<svg xmlns="http://www.w3.org/2000/svg" viewBox="0 0 640 640"><!--! Font Awesome Pro 7.1.0 by @fontawesome - https://fontawesome.com License - https://fontawesome.com/license (Commercial License) Copyright 2025 Fonticons, Inc. --><path fill="currentColor" d="M160 256C160 167.6 231.6 96 320 96C408.4 96 480 167.6 480 256L480 384C480 472.4 408.4 544 320 544C231.6 544 160 472.4 160 384L160 256zM320 128C249.3 128 192 185.3 192 256L192 384C192 454.7 249.3 512 320 512C390.7 512 448 454.7 448 384L448 256C448 185.3 390.7 128 320 128z"/></svg>