<svg xmlns="http://www.w3.org/2000/svg" viewBox="0 0 640 640"><!--! Font Awesome Pro 7.1.0 by @fontawesome - https://fontawesome.com License - https://fontawesome.com/license (Commercial License) Copyright 2025 Fonticons, Inc. --><path fill="currentColor" d="M176 112C176 103.2 183.2 96 192 96L389.9 96C444.1 96 488 139.9 488 194.1C488 233.2 464.8 268.6 428.9 284.1L259.5 357.3C218.5 375 192 415.4 192 460.1L192 512L464 512C472.8 512 480 519.2 480 528C480 536.8 472.8 544 464 544L176 544C167.2 544 160 536.8 160 528L160 460.1C160 402.7 194.1 350.7 246.8 327.9L416.1 254.7C440.3 244.2 455.9 220.4 455.9 194.1C455.9 157.6 426.3 128 389.8 128L192 128C183.2 128 176 120.8 176 112z"/></svg>