<svg xmlns="http://www.w3.org/2000/svg" viewBox="0 0 640 640"><!--! Font Awesome Pro 7.1.0 by @fontawesome - https://fontawesome.com License - https://fontawesome.com/license (Commercial License) Copyright 2025 Fonticons, Inc. --><path fill="currentColor" d="M224 336C215.2 336 208 328.8 208 320C208 311.2 215.2 304 224 304L360 304C408.6 304 448 264.6 448 216C448 167.4 408.6 128 360 128L176 128C167.2 128 160 120.8 160 112C160 103.2 167.2 96 176 96L360 96C426.3 96 480 149.7 480 216C480 260.5 455.8 299.3 419.9 320C455.8 340.7 480 379.5 480 424C480 490.3 426.3 544 360 544L176 544C167.2 544 160 536.8 160 528C160 519.2 167.2 512 176 512L360 512C408.6 512 448 472.6 448 424C448 375.4 408.6 336 360 336L224 336z"/></svg>