<svg xmlns="http://www.w3.org/2000/svg" viewBox="0 0 640 640"><!--! Font Awesome Pro 7.1.0 by @fontawesome - https://fontawesome.com License - https://fontawesome.com/license (Commercial License) Copyright 2025 Fonticons, Inc. --><path fill="currentColor" d="M608 128C625.7 128 640 113.7 640 96C640 78.3 625.7 64 608 64C590.3 64 576 78.3 576 96C576 113.7 590.3 128 608 128zM16 128C7.2 128 0 135.2 0 144C0 152.8 7.2 160 16 160L127.3 160L35.4 278.2C31.6 283 31 289.6 33.7 295.1C36.4 300.6 42 304.1 48.1 304.1L80.1 304.1C124.3 304.1 160.1 339.9 160.1 384.1L160.1 400.1C160.1 444.3 124.3 480.1 80.1 480.1L74.6 480.1C61.9 480.1 49.7 475 40.7 466L27.3 452.7C21.1 446.5 10.9 446.5 4.7 452.7C-1.5 458.9-1.5 469.1 4.7 475.3L18 488.6C33 503.6 53.4 512 74.6 512L80.1 512C142 512 192.1 461.9 192.1 400L192.1 384C192.1 322.4 142.3 272.4 80.8 272L172.6 153.8C176.4 149 177 142.4 174.3 136.9C171.6 131.4 166 127.9 159.9 127.9L16 128zM448 208C448 181.5 469.5 160 496 160C522.5 160 544 181.5 544 208L544 432C544 458.5 522.5 480 496 480C469.5 480 448 458.5 448 432L448 208zM576 432L576 208C576 163.8 540.2 128 496 128C451.8 128 416 163.8 416 208L416 432C416 476.2 451.8 512 496 512C540.2 512 576 476.2 576 432zM256 240C256 195.8 291.8 160 336 160C344.8 160 352 152.8 352 144C352 135.2 344.8 128 336 128C274.1 128 224 178.1 224 240L224 352L224 352.2L224 432C224 476.2 259.8 512 304 512C348.2 512 384 476.2 384 432L384 336C384 291.8 348.2 256 304 256C286 256 269.4 262 256 272L256 240zM304 288C330.5 288 352 309.5 352 336L352 432C352 458.5 330.5 480 304 480C277.5 480 256 458.5 256 432L256 336C256 309.5 277.5 288 304 288z"/></svg>