<svg xmlns="http://www.w3.org/2000/svg" viewBox="0 0 640 640"><!--! Font Awesome Pro 7.1.0 by @fontawesome - https://fontawesome.com License - https://fontawesome.com/license (Commercial License) Copyright 2025 Fonticons, Inc. --><path fill="currentColor" d="M160 112C160 103.2 152.8 96 144 96C135.2 96 128 103.2 128 112L128 352C128 387.3 156.7 416 192 416L416 416L416 528C416 536.8 423.2 544 432 544C440.8 544 448 536.8 448 528L448 416L496 416C504.8 416 512 408.8 512 400C512 391.2 504.8 384 496 384L448 384L448 112C448 103.2 440.8 96 432 96C423.2 96 416 103.2 416 112L416 384L192 384C174.3 384 160 369.7 160 352L160 112z"/></svg>