<svg xmlns="http://www.w3.org/2000/svg" viewBox="0 0 640 640"><!--! Font Awesome Pro 7.1.0 by @fontawesome - https://fontawesome.com License - https://fontawesome.com/license (Commercial License) Copyright 2025 Fonticons, Inc. --><path fill="currentColor" d="M160 112C160 103.2 167.2 96 176 96L432 96C440.8 96 448 103.2 448 112C448 120.8 440.8 128 432 128L192 128L192 288L352 288C422.7 288 480 345.3 480 416C480 486.7 422.7 544 352 544L176 544C167.2 544 160 536.8 160 528C160 519.2 167.2 512 176 512L352 512C405 512 448 469 448 416C448 363 405 320 352 320L176 320C167.2 320 160 312.8 160 304L160 112z"/></svg>