<svg xmlns="http://www.w3.org/2000/svg" viewBox="0 0 640 640"><!--! Font Awesome Pro 7.1.0 by @fontawesome - https://fontawesome.com License - https://fontawesome.com/license (Commercial License) Copyright 2025 Fonticons, Inc. --><path fill="currentColor" d="M400 96C408.8 96 416 103.2 416 112C416 120.8 408.8 128 400 128L280 128C222.6 128 176 174.6 176 232L176 320.4C200.9 290.8 238.3 272 280 272L344 272C419.1 272 480 332.9 480 408C480 483.1 419.1 544 344 544L280 544C204.9 544 144 483.1 144 408C144 406 144 404 144.1 402C144 401.3 144 400.7 144 400L144 232C144 156.9 204.9 96 280 96L400 96zM176 408C176 465.4 222.6 512 280 512L344 512C401.4 512 448 465.4 448 408C448 350.6 401.4 304 344 304L280 304C222.6 304 176 350.6 176 408z"/></svg>