<svg xmlns="http://www.w3.org/2000/svg" viewBox="0 0 640 640"><!--! Font Awesome Pro 7.1.0 by @fontawesome - https://fontawesome.com License - https://fontawesome.com/license (Commercial License) Copyright 2025 Fonticons, Inc. --><path fill="currentColor" d="M464 216C464 149.7 410.3 96 344 96L296 96C229.7 96 176 149.7 176 216C176 257.4 196.9 293.9 228.8 315.4C188.1 334.6 160 376 160 424C160 490.3 213.7 544 280 544L360 544C426.3 544 480 490.3 480 424C480 376 451.9 334.6 411.2 315.4C443.1 293.8 464 257.3 464 216zM344.1 336L360 336C408.6 336 448 375.4 448 424C448 472.6 408.6 512 360 512L280 512C231.4 512 192 472.6 192 424C192 375.4 231.4 336 280 336L344.1 336zM344.1 304L296 304C247.4 304 208.1 264.6 208.1 216C208.1 167.4 247.5 128 296.1 128L344.1 128C392.7 128 432.1 167.4 432.1 216C432.1 264.6 392.7 304 344.2 304z"/></svg>