<svg xmlns="http://www.w3.org/2000/svg" viewBox="0 0 640 640"><!--! Font Awesome Pro 7.1.0 by @fontawesome - https://fontawesome.com License - https://fontawesome.com/license (Commercial License) Copyright 2025 Fonticons, Inc. --><path fill="currentColor" d="M336 384C381.2 384 421.6 363.1 448 330.5L448 408C448 465.4 401.4 512 344 512L224 512C215.2 512 208 519.2 208 528C208 536.8 215.2 544 224 544L344 544C419.1 544 480 483.1 480 408L480 239.9C480 160.4 415.5 96 336 96L288 96C208.5 96 144 160.5 144 240C144 319.5 208.5 384 288 384L336 384zM448 240C448 301.9 397.9 352 336 352L288 352C226.1 352 176 301.9 176 240C176 178.1 226.1 128 288 128L336 128C397.9 128 448 178.1 448 240z"/></svg>