<svg xmlns="http://www.w3.org/2000/svg" viewBox="0 0 640 640"><!--! Font Awesome Pro 7.1.0 by @fontawesome - https://fontawesome.com License - https://fontawesome.com/license (Commercial License) Copyright 2025 Fonticons, Inc. --><path fill="currentColor" d="M544 128C561.7 128 576 142.3 576 160L576 256L480 256L480 224L496 224C504.8 224 512 216.8 512 208C512 199.2 504.8 192 496 192L480 192L480 128L544 128zM448 192L432 192C423.2 192 416 199.2 416 208C416 216.8 423.2 224 432 224L448 224L448 256L320 256L320 224L336 224C344.8 224 352 216.8 352 208C352 199.2 344.8 192 336 192L320 192L320 128L448 128L448 192zM288 192L272 192C263.2 192 256 199.2 256 208C256 216.8 263.2 224 272 224L288 224L288 256L192 256L192 224L208 224C216.8 224 224 216.8 224 208C224 199.2 216.8 192 208 192L192 192L192 128L288 128L288 192zM160 192L144 192C135.2 192 128 199.2 128 208C128 216.8 135.2 224 144 224L160 224L160 256L64 256L64 160C64 142.3 78.3 128 96 128L160 128L160 192zM64 480L64 288L160 288L160 352L144 352C135.2 352 128 359.2 128 368C128 376.8 135.2 384 144 384L160 384L160 416L144 416C135.2 416 128 423.2 128 432C128 440.8 135.2 448 144 448L160 448L160 512L96 512C78.3 512 64 497.7 64 480zM192 448L208 448C216.8 448 224 440.8 224 432C224 423.2 216.8 416 208 416L192 416L192 384L208 384C216.8 384 224 376.8 224 368C224 359.2 216.8 352 208 352L192 352L192 288L288 288L288 352L272 352C263.2 352 256 359.2 256 368C256 376.8 263.2 384 272 384L288 384L288 416L272 416C263.2 416 256 423.2 256 432C256 440.8 263.2 448 272 448L288 448L288 512L192 512L192 448zM320 384L336 384C344.8 384 352 376.8 352 368C352 359.2 344.8 352 336 352L320 352L320 288L448 288L448 416L432 416C423.2 416 416 423.2 416 432C416 440.8 423.2 448 432 448L448 448L448 512L320 512L320 448L336 448C344.8 448 352 440.8 352 432C352 423.2 344.8 416 336 416L320 416L320 384zM480 448L496 448C504.8 448 512 440.8 512 432C512 423.2 504.8 416 496 416L480 416L480 288L576 288L576 480C576 497.7 561.7 512 544 512L480 512L480 448zM96 96C60.7 96 32 124.7 32 160L32 480C32 515.3 60.7 544 96 544L544 544C579.3 544 608 515.3 608 480L608 160C608 124.7 579.3 96 544 96L96 96z"/></svg>