<svg xmlns="http://www.w3.org/2000/svg" viewBox="0 0 640 640"><!--! Font Awesome Pro 7.1.0 by @fontawesome - https://fontawesome.com License - https://fontawesome.com/license (Commercial License) Copyright 2025 Fonticons, Inc. --><path fill="currentColor" d="M288.2 129.3C288.2 110.9 303.1 96 321.5 96C337.6 96 351.5 107.6 354.3 123.5L376.8 249.7C377.4 253 374.9 256 371.5 256C369.8 256 368.1 255.2 367.1 253.7L294.6 150.9C290.5 145 288.2 138 288.2 130.8L288.2 129.3zM256.2 129.3L256.2 130.8C256.2 144.6 260.5 158.1 268.4 169.3L341 272.2C348 282.1 359.4 288 371.5 288C394.8 288 412.4 267 408.3 244.1L385.9 117.8C380.3 86.7 353.2 64 321.6 64C285.5 64 256.2 93.2 256.2 129.3z"/></svg>