<svg xmlns="http://www.w3.org/2000/svg" viewBox="0 0 640 640"><!--! Font Awesome Pro 7.1.0 by @fontawesome - https://fontawesome.com License - https://fontawesome.com/license (Commercial License) Copyright 2025 Fonticons, Inc. --><path fill="currentColor" d="M340.7 68.7C346.9 62.5 357.1 62.5 363.3 68.7C369.5 74.9 369.5 85.1 363.3 91.3L359.4 95.2C350.2 104.4 343.4 115.7 339.6 128L447.9 128L452.8 128.1C503.7 130.7 544 172.6 544 224L544 256L543.8 259.3C542.3 274.4 530.3 286.3 515.2 287.9L511.9 288.1L495.9 288.1L495.5 303.3C491.7 381.4 456.9 493.2 330 540.6L325 542C321.6 542.6 318.1 542.6 314.7 542L309.7 540.6C183 493.1 148.2 381.3 144.4 303.2L144 288L128 288L124.7 287.8C109.6 286.3 97.7 274.3 96.1 259.2L96 256L96 224C96 172.6 136.3 130.7 187.1 128.1L192 128L306.6 128C311.1 107.2 321.5 87.9 336.8 72.6L340.7 68.7zM176.3 301.8C179.8 372.7 210.9 468.7 320 510C436.4 466 464 359.6 464 288L176 288L176.3 301.8zM192 160C156.7 160 128 188.7 128 224L128 256L512 256L512 224C512 188.7 483.3 160 448 160L192 160z"/></svg>