<svg xmlns="http://www.w3.org/2000/svg" viewBox="0 0 640 640"><!--! Font Awesome Pro 7.1.0 by @fontawesome - https://fontawesome.com License - https://fontawesome.com/license (Commercial License) Copyright 2025 Fonticons, Inc. --><path fill="currentColor" d="M544 128C561.7 128 576 142.3 576 160L576 480C576 497.7 561.7 512 544 512L96 512C78.3 512 64 497.7 64 480L64 160C64 142.3 78.3 128 96 128L544 128zM96 96C60.7 96 32 124.7 32 160L32 480C32 515.3 60.7 544 96 544L544 544C579.3 544 608 515.3 608 480L608 160C608 124.7 579.3 96 544 96L96 96zM192 256C192 238.3 206.3 224 224 224C241.7 224 256 238.3 256 256C256 273.7 241.7 288 224 288C206.3 288 192 273.7 192 256zM288 256C288 220.7 259.3 192 224 192C188.7 192 160 220.7 160 256C160 291.3 188.7 320 224 320C259.3 320 288 291.3 288 256zM144 432C144 405.5 165.5 384 192 384L256 384C282.5 384 304 405.5 304 432C304 440.8 311.2 448 320 448C328.8 448 336 440.8 336 432C336 387.8 300.2 352 256 352L192 352C147.8 352 112 387.8 112 432C112 440.8 119.2 448 128 448C136.8 448 144 440.8 144 432zM384 224C375.2 224 368 231.2 368 240C368 248.8 375.2 256 384 256L512 256C520.8 256 528 248.8 528 240C528 231.2 520.8 224 512 224L384 224zM384 320C375.2 320 368 327.2 368 336C368 344.8 375.2 352 384 352L512 352C520.8 352 528 344.8 528 336C528 327.2 520.8 320 512 320L384 320z"/></svg>