<svg xmlns="http://www.w3.org/2000/svg" viewBox="0 0 640 640"><!--! Font Awesome Pro 7.1.0 by @fontawesome - https://fontawesome.com License - https://fontawesome.com/license (Commercial License) Copyright 2025 Fonticons, Inc. --><path fill="currentColor" d="M400 208C426.5 208 448 229.5 448 256L448 464L496 464C504.8 464 512 471.2 512 480C512 488.8 504.8 496 496 496L448 496L448 528L447.8 532.9C445.3 557.1 424.9 576 400 576L240 576L235.1 575.8C210.9 573.3 192 552.9 192 528L192 496L144 496C135.2 496 128 488.8 128 480C128 471.2 135.2 464 144 464L192 464L192 256C192 229.5 213.5 208 240 208L400 208zM224 528C224 536.8 231.2 544 240 544L400 544C408.8 544 416 536.8 416 528L416 496L224 496L224 528zM240 240C231.2 240 224 247.2 224 256L224 464L416 464L416 256C416 247.2 408.8 240 400 240L240 240zM360 416C346.7 416 336 405.3 336 392C336 378.7 346.7 368 360 368C373.3 368 384 378.7 384 392C384 405.3 373.3 416 360 416zM360 336C346.7 336 336 325.3 336 312C336 298.7 346.7 288 360 288C373.3 288 384 298.7 384 312C384 325.3 373.3 336 360 336zM448 64C456.8 64 464 71.2 464 80C464 88.8 456.8 96 448 96L416 96L416 160L384 160L384 96L256 96L256 160L224 160L224 96L192 96C183.2 96 176 88.8 176 80C176 71.2 183.2 64 192 64L448 64z"/></svg>