<svg xmlns="http://www.w3.org/2000/svg" viewBox="0 0 640 640"><!--! Font Awesome Pro 7.1.0 by @fontawesome - https://fontawesome.com License - https://fontawesome.com/license (Commercial License) Copyright 2025 Fonticons, Inc. --><path fill="currentColor" d="M224 96L224 144L192 144L192 96C192 78.3 206.3 64 224 64L288 64C305.7 64 320 78.3 320 96L320 144L288 144L288 96L224 96zM192 224C156.7 224 128 252.7 128 288L128 504C128 526.1 145.9 544 168 544L344 544C366.1 544 384 526.1 384 504L384 288C384 252.7 355.3 224 320 224L192 224zM96 288C96 235 139 192 192 192L320 192C373 192 416 235 416 288L416 504C416 543.8 383.8 576 344 576L168 576C128.2 576 96 543.8 96 504L96 288zM304 384C304 357.5 282.5 336 256 336C229.5 336 208 357.5 208 384C208 410.5 229.5 432 256 432C282.5 432 304 410.5 304 384zM176 384C176 339.8 211.8 304 256 304C300.2 304 336 339.8 336 384C336 428.2 300.2 464 256 464C211.8 464 176 428.2 176 384zM432 64C440.8 64 448 71.2 448 80L448 96L464 96C472.8 96 480 103.2 480 112C480 120.8 472.8 128 464 128L448 128L448 144C448 152.8 440.8 160 432 160C423.2 160 416 152.8 416 144L416 128L400 128C391.2 128 384 120.8 384 112C384 103.2 391.2 96 400 96L416 96L416 80C416 71.2 423.2 64 432 64zM576 80L576 96L592 96C600.8 96 608 103.2 608 112C608 120.8 600.8 128 592 128L576 128L576 144C576 152.8 568.8 160 560 160C551.2 160 544 152.8 544 144L544 128L528 128C519.2 128 512 120.8 512 112C512 103.2 519.2 96 528 96L544 96L544 80C544 71.2 551.2 64 560 64C568.8 64 576 71.2 576 80zM576 272L576 288L592 288C600.8 288 608 295.2 608 304C608 312.8 600.8 320 592 320L576 320L576 336C576 344.8 568.8 352 560 352C551.2 352 544 344.8 544 336L544 320L528 320C519.2 320 512 312.8 512 304C512 295.2 519.2 288 528 288L544 288L544 272C544 263.2 551.2 256 560 256C568.8 256 576 263.2 576 272zM512 176L512 192L528 192C536.8 192 544 199.2 544 208C544 216.8 536.8 224 528 224L512 224L512 240C512 248.8 504.8 256 496 256C487.2 256 480 248.8 480 240L480 224L464 224C455.2 224 448 216.8 448 208C448 199.2 455.2 192 464 192L480 192L480 176C480 167.2 487.2 160 496 160C504.8 160 512 167.2 512 176z"/></svg>