<svg xmlns="http://www.w3.org/2000/svg" viewBox="0 0 640 640"><!--! Font Awesome Pro 7.1.0 by @fontawesome - https://fontawesome.com License - https://fontawesome.com/license (Commercial License) Copyright 2025 Fonticons, Inc. --><path fill="currentColor" d="M96 160C78.3 160 64 174.3 64 192L64 320C64 337.7 78.3 352 96 352L544 352C561.7 352 576 337.7 576 320L576 192C576 174.3 561.7 160 544 160L96 160zM32 192C32 156.7 60.7 128 96 128L544 128C579.3 128 608 156.7 608 192L608 320C608 355.3 579.3 384 544 384L96 384C60.7 384 32 355.3 32 320L32 192zM144 256L496 256C504.8 256 512 263.2 512 272C512 280.8 504.8 288 496 288L144 288C135.2 288 128 280.8 128 272C128 263.2 135.2 256 144 256zM256 544L256 432L288 432L288 544C288 579.3 259.3 608 224 608C188.7 608 160 579.3 160 544C160 535.2 167.2 528 176 528C184.8 528 192 535.2 192 544C192 561.7 206.3 576 224 576C241.7 576 256 561.7 256 544zM384 432L384 544C384 561.7 398.3 576 416 576C433.7 576 448 561.7 448 544L448 536C448 527.2 455.2 520 464 520C472.8 520 480 527.2 480 536L480 544C480 579.3 451.3 608 416 608C380.7 608 352 579.3 352 544L352 432L384 432z"/></svg>