<svg xmlns="http://www.w3.org/2000/svg" viewBox="0 0 640 640"><!--! Font Awesome Pro 7.1.0 by @fontawesome - https://fontawesome.com License - https://fontawesome.com/license (Commercial License) Copyright 2025 Fonticons, Inc. --><path fill="currentColor" d="M512 160L128 160C110.3 160 96 174.3 96 192L96 416C96 433.7 110.3 448 128 448L142.9 448L112.7 478.2C84.7 471.3 64 446.1 64 416L64 192C64 156.7 92.7 128 128 128L512 128C547.3 128 576 156.7 576 192L576 416C576 446.1 555.3 471.3 527.3 478.2L497.1 448L512 448C529.7 448 544 433.7 544 416L544 192C544 174.3 529.7 160 512 160zM448 512L320 384L192 512L448 512zM192 544C179.1 544 167.4 536.2 162.4 524.2C157.4 512.2 160.2 498.5 169.3 489.3L297.3 361.3C309.8 348.8 330.1 348.8 342.6 361.3L470.6 489.3C479.8 498.5 482.5 512.2 477.5 524.2C472.5 536.2 460.9 544 448 544L192 544z"/></svg>