<svg xmlns="http://www.w3.org/2000/svg" viewBox="0 0 640 640"><!--! Font Awesome Pro 7.1.0 by @fontawesome - https://fontawesome.com License - https://fontawesome.com/license (Commercial License) Copyright 2025 Fonticons, Inc. --><path fill="currentColor" d="M96 320C96 377.5 117.7 429.9 153.3 469.6L135.4 487.4C133.8 489.1 132.3 490.7 130.8 492.5C89.3 447 64 386.4 64 320C64 178.6 178.6 64 320 64C461.4 64 576 178.6 576 320C576 386.4 550.7 447 509.2 492.5C507.7 490.8 506.2 489.1 504.6 487.5L486.8 469.7C522.3 429.9 544 377.5 544 320C544 196.3 443.7 96 320 96C196.3 96 96 196.3 96 320zM480 320C480 359.8 465.5 396.2 441.4 424.2L418.7 401.5C437 379.4 448 351 448 320C448 249.3 390.7 192 320 192C249.3 192 192 249.3 192 320C192 351 203 379.4 221.3 401.5L198.6 424.2C174.5 396.2 160 359.8 160 320C160 231.6 231.6 160 320 160C408.4 160 480 231.6 480 320zM384 320C384 333.3 379.9 345.6 373 355.9L349.5 332.4C351.1 328.6 352 324.4 352 320C352 302.3 337.7 288 320 288C302.3 288 288 302.3 288 320C288 324.4 288.9 328.6 290.5 332.4L267 355.9C260.1 345.7 256 333.3 256 320C256 284.7 284.7 256 320 256C355.3 256 384 284.7 384 320zM192 576C179.1 576 167.4 568.2 162.4 556.2C157.4 544.2 160.2 530.5 169.3 521.3L297.3 393.3C309.8 380.8 330.1 380.8 342.6 393.3L470.6 521.3C479.8 530.5 482.5 544.2 477.5 556.2C472.5 568.2 460.9 576 448 576L192 576zM192 544L448 544L320 416L192 544z"/></svg>