<svg xmlns="http://www.w3.org/2000/svg" viewBox="0 0 640 640"><!--! Font Awesome Pro 7.1.0 by @fontawesome - https://fontawesome.com License - https://fontawesome.com/license (Commercial License) Copyright 2025 Fonticons, Inc. --><path fill="currentColor" d="M320 128C443.7 128 544 228.3 544 352C544 408.1 523.4 459.4 489.3 498.7L539.3 548.7C545.5 554.9 545.5 565.1 539.3 571.3C533.1 577.5 522.9 577.5 516.7 571.3L466.7 521.3C427.4 555.4 376.1 576 320 576C263.9 576 212.6 555.4 173.3 521.3L123.3 571.3C117.1 577.5 106.9 577.5 100.7 571.3C94.5 565.1 94.5 554.9 100.7 548.7L150.7 498.7C116.6 459.4 96 408.1 96 352C96 228.3 196.3 128 320 128zM320 160C214 160 128 246 128 352C128 458 214 544 320 544C426 544 512 458 512 352C512 246 426 160 320 160zM320 480C306.7 480 296 469.3 296 456C296 442.7 306.7 432 320 432C333.3 432 344 442.7 344 456C344 469.3 333.3 480 320 480zM320 224C333.5 224 344.3 235.4 343.5 248.9L335.9 384.9C335.4 393.4 328.4 400 319.9 400C311.4 400 304.4 393.4 303.9 384.9L296.3 248.9C295.5 235.4 306.3 224 319.8 224zM159.2 64C178.5 64 196.5 69.8 211.5 79.7C221 86 217.8 99.6 207.4 104.3L206.6 104.7C201 107.3 194.5 106.5 189.1 103.6C180.2 98.8 170 96 159.1 96C124.2 96 95.9 124.3 95.9 159.2C95.9 166 97 172.6 99 178.7C100.9 184.5 100.5 191.1 96.9 196.1L96.4 196.8C90 206.3 76 207 71.6 196.5C66.7 185.1 64 172.5 64 159.2C64 106.6 106.6 64 159.2 64zM480.7 64C533.3 64 576 106.6 576 159.2C576 172.4 573.3 185 568.4 196.5C563.9 207 550 206.3 543.4 196.9L542.9 196.2C539.4 191.2 538.9 184.6 540.8 178.8C542.8 172.6 543.9 166.1 543.9 159.3C543.9 124.4 515.6 96.1 480.6 96.1C469.7 96.1 459.5 98.8 450.6 103.7C445.2 106.6 438.7 107.4 433.1 104.8L432.4 104.4C422 99.7 418.7 86.1 428.3 79.8C443.3 69.9 461.3 64.1 480.6 64.1z"/></svg>