<svg xmlns="http://www.w3.org/2000/svg" viewBox="0 0 640 640"><!--! Font Awesome Pro 7.1.0 by @fontawesome - https://fontawesome.com License - https://fontawesome.com/license (Commercial License) Copyright 2025 Fonticons, Inc. --><path fill="currentColor" d="M450.8 103.6C445.4 106.5 438.9 107.3 433.3 104.7L432.5 104.3C422.1 99.6 418.8 86 428.4 79.7C443.4 69.8 461.4 64 480.7 64C533.3 64 575.9 106.6 575.9 159.2C575.9 172.4 573.2 185 568.3 196.5C563.8 207 549.9 206.3 543.4 196.9L542.9 196.2C539.4 191.2 538.9 184.7 540.8 178.8C542.8 172.6 543.9 166.1 543.9 159.2C543.9 124.3 515.6 96 480.7 96C469.8 96 459.6 98.7 450.7 103.6zM96.5 196.9C90 206.3 76 207 71.6 196.5C66.7 185 64 172.4 64 159.2C64 106.6 106.6 64 159.2 64C178.5 64 196.5 69.8 211.5 79.7C221.1 86 217.8 99.6 207.4 104.3L206.6 104.7C201 107.3 194.5 106.5 189.1 103.6C180.2 98.8 170 96 159.1 96C124.2 96 95.9 124.3 95.9 159.2C95.9 166 97 172.6 99 178.8C100.9 184.6 100.5 191.2 96.9 196.2L96.4 196.9zM512 352C512 246 426 160 320 160C214 160 128 246 128 352C128 458 214 544 320 544C426 544 512 458 512 352zM466.7 521.3C427.4 555.4 376.1 576 320 576C263.9 576 212.6 555.4 173.3 521.3L123.3 571.3C117.1 577.5 106.9 577.5 100.7 571.3C94.5 565.1 94.5 554.9 100.7 548.7L150.7 498.7C116.6 459.4 96 408.1 96 352C96 228.3 196.3 128 320 128C443.7 128 544 228.3 544 352C544 408.1 523.4 459.4 489.3 498.7L539.3 548.7C545.5 554.9 545.5 565.1 539.3 571.3C533.1 577.5 522.9 577.5 516.7 571.3L466.7 521.3zM256 256L384 256C390.2 256 395.8 259.5 398.4 265.1C401 270.7 400.3 277.2 396.5 282L289.3 416L384 416C392.8 416 400 423.2 400 432C400 440.8 392.8 448 384 448L256 448C249.8 448 244.2 444.5 241.6 438.9C239 433.3 239.7 426.8 243.5 422L350.7 288L256 288C247.2 288 240 280.8 240 272C240 263.2 247.2 256 256 256z"/></svg>