<svg xmlns="http://www.w3.org/2000/svg" viewBox="0 0 640 640"><!--! Font Awesome Pro 7.1.0 by @fontawesome - https://fontawesome.com License - https://fontawesome.com/license (Commercial License) Copyright 2025 Fonticons, Inc. --><path fill="currentColor" d="M320 128C443.7 128 544 228.3 544 352C544 408.1 523.4 459.4 489.3 498.7L539.3 548.7L541.4 551.2C545.5 557.4 544.8 565.9 539.3 571.3C533.8 576.7 525.4 577.5 519.2 573.4L516.7 571.3L466.7 521.3C427.4 555.4 376.1 576 320 576C263.9 576 212.6 555.4 173.3 521.3L123.3 571.3C117.1 577.5 106.9 577.5 100.7 571.3C94.5 565.1 94.5 554.9 100.7 548.7L150.7 498.7C116.6 459.4 96 408.1 96 352C96 228.3 196.3 128 320 128zM320 160C214 160 128 246 128 352C128 458 214 544 320 544C426 544 512 458 512 352C512 246 426 160 320 160zM400 336C408.8 336 416 343.2 416 352C416 360.8 408.8 368 400 368L240 368C231.2 368 224 360.8 224 352C224 343.2 231.2 336 240 336L400 336zM164.2 64.1C181.7 65 197.9 70.6 211.6 79.6C221.1 85.9 217.9 99.5 207.5 104.2L206.7 104.6C201.1 107.2 194.6 106.4 189.2 103.5C180.3 98.7 170.1 95.9 159.2 95.9C124.3 95.9 96 124.2 96 159.1C96 165.9 97.1 172.5 99.1 178.6C101 184.4 100.6 191 97 196L96.5 196.7C90 206.1 76 206.8 71.5 196.3C67.2 186.3 64.6 175.4 64.1 163.9L64 159.2C64 106.6 106.6 64 159.2 64L164.1 64.1zM480.7 64C533.4 64 576 106.6 576 159.2L575.9 164.1C575.3 175.5 572.7 186.4 568.5 196.5C564 207 550.1 206.3 543.5 196.9L543 196.2C539.5 191.2 539 184.6 540.9 178.8C542.9 172.6 544 166.1 544 159.3C544 124.4 515.7 96.1 480.7 96.1C469.9 96.1 459.7 98.8 450.7 103.7C445.3 106.6 438.8 107.3 433.2 104.8L432.4 104.4C422 99.7 418.7 86.1 428.3 79.8C442 70.7 458.3 65.2 475.7 64.3L480.6 64.2z"/></svg>