<svg xmlns="http://www.w3.org/2000/svg" viewBox="0 0 640 640"><!--! Font Awesome Pro 7.1.0 by @fontawesome - https://fontawesome.com License - https://fontawesome.com/license (Commercial License) Copyright 2025 Fonticons, Inc. --><path fill="currentColor" d="M192 80C192 88.8 199.2 96 208 96L432 96C440.8 96 448 88.8 448 80C448 71.2 440.8 64 432 64L208 64C199.2 64 192 71.2 192 80zM144 160C144 168.8 151.2 176 160 176L480 176C488.8 176 496 168.8 496 160C496 151.2 488.8 144 480 144L160 144C151.2 144 144 151.2 144 160zM116 261.4C119 258 123.4 256 128 256L512 256C516.6 256 521 258 524 261.4L524 261.4C527 264.8 528.5 269.4 527.9 274L495.9 530C494.9 538 488.1 544 480 544L160 544C151.9 544 145.1 538 144.1 530L112.1 274C111.5 269.4 112.9 264.9 116 261.4zM128 224C114.2 224 101.1 229.9 92 240.2C82.9 250.5 78.7 264.3 80.4 278L112.4 534C115.4 558 135.8 576 160 576L480 576C504.2 576 524.6 558 527.6 534L559.6 278C561.3 264.3 557.1 250.6 548 240.3C538.9 230 525.8 224 512 224L128 224zM320 480C255.6 480 214.9 438.4 214.9 400C214.9 361.6 255.6 320 320 320C384.4 320 425.1 361.6 425.1 400C425.1 438.4 384.4 480 320 480zM320 512C395.7 512 457.1 461.9 457.1 400C457.1 338.1 395.7 288 320 288C244.3 288 182.9 338.1 182.9 400C182.9 461.9 244.3 512 320 512zM320 424C336.2 424 349.4 413.3 349.4 400C349.4 386.7 336.2 376 320 376C303.8 376 290.6 386.7 290.6 400C290.6 413.3 303.8 424 320 424z"/></svg>