<svg xmlns="http://www.w3.org/2000/svg" viewBox="0 0 640 640"><!--! Font Awesome Pro 7.1.0 by @fontawesome - https://fontawesome.com License - https://fontawesome.com/license (Commercial License) Copyright 2025 Fonticons, Inc. --><path fill="currentColor" d="M160.5 80C160.5 88.8 167.7 96 176.5 96L400.5 96C409.3 96 416.5 88.8 416.5 80C416.5 71.2 409.3 64 400.5 64L176.5 64C167.7 64 160.5 71.2 160.5 80zM112.5 160C112.5 168.8 119.7 176 128.5 176L448.5 176C457.3 176 464.5 168.8 464.5 160C464.5 151.2 457.3 144 448.5 144L128.5 144C119.7 144 112.5 151.2 112.5 160zM84.5 261.4C87.5 258 91.9 256 96.5 256L480.5 256C485.1 256 489.5 258 492.5 261.4L492.5 261.4C495.5 264.8 497 269.4 496.4 274L496.3 274.6C507 276.4 517.5 279.1 527.6 282.6L528.2 278C529.9 264.3 525.7 250.6 516.6 240.3C507.5 230 494.4 224.1 480.6 224.1L96.6 224.1C82.8 224.1 69.7 230 60.6 240.3C51.5 250.6 47.2 264.3 48.9 278L80.9 534C83.9 558 104.3 576 128.5 576L308.5 576C301.3 566 295.1 555.3 289.9 544L128.5 544C120.4 544 113.6 538 112.6 530L80.6 274C80 269.4 81.4 264.9 84.5 261.4zM288.5 288C212.8 288 151.4 338.1 151.4 400C151.4 459.1 207.5 507.5 278.5 511.7C275.8 501.2 274 490.3 273.1 479.2C217.7 473.2 183.4 435.3 183.4 400C183.4 361.6 224.1 320 288.5 320C303.9 320 318 322.4 330.5 326.5C339.2 318.1 348.6 310.4 358.7 303.7C338.2 293.7 314.2 287.9 288.5 287.9zM288.5 376C272.3 376 259.1 386.7 259.1 400C259.1 409.9 266.5 418.5 277.1 422.1C280.7 406 286.3 390.6 293.6 376.3C291.9 376.1 290.2 375.9 288.5 375.9zM404.5 558.6C412.3 549.5 423.9 544 436.3 544L492.7 544C505.1 544 516.6 549.5 524.5 558.6C507.2 569.6 486.6 576 464.5 576C442.4 576 421.8 569.6 404.5 558.6zM548.8 537.8C535 521.7 514.6 512 492.7 512L436.3 512C414.5 512 394.1 521.6 380.2 537.8C362.9 518.1 352.5 492.3 352.5 464C352.5 402.1 402.6 352 464.5 352C526.4 352 576.5 402.1 576.5 464C576.5 492.2 566 518.1 548.8 537.8zM608.5 464C608.5 384.5 544 320 464.5 320C385 320 320.5 384.5 320.5 464C320.5 543.5 385 608 464.5 608C544 608 608.5 543.5 608.5 464zM464.5 416C477.8 416 488.5 426.7 488.5 440C488.5 453.3 477.8 464 464.5 464C451.2 464 440.5 453.3 440.5 440C440.5 426.7 451.2 416 464.5 416zM464.5 496C495.4 496 520.5 470.9 520.5 440C520.5 409.1 495.4 384 464.5 384C433.6 384 408.5 409.1 408.5 440C408.5 470.9 433.6 496 464.5 496z"/></svg>