<svg xmlns="http://www.w3.org/2000/svg" viewBox="0 0 640 640"><!--! Font Awesome Pro 7.1.0 by @fontawesome - https://fontawesome.com License - https://fontawesome.com/license (Commercial License) Copyright 2025 Fonticons, Inc. --><path fill="currentColor" d="M160 80C160 88.8 167.2 96 176 96L400 96C408.8 96 416 88.8 416 80C416 71.2 408.8 64 400 64L176 64C167.2 64 160 71.2 160 80zM112 160C112 168.8 119.2 176 128 176L448 176C456.8 176 464 168.8 464 160C464 151.2 456.8 144 448 144L128 144C119.2 144 112 151.2 112 160zM84 261.4C87 258 91.4 256 96 256L480 256C484.6 256 489 258 492 261.4L492 261.4C495 264.8 496.5 269.4 495.9 274L495.8 274.6C506.5 276.4 517 279.1 527.1 282.6L527.7 278C529.4 264.3 525.2 250.6 516.1 240.3C507 230 493.8 224 480 224L96 224C82.2 224 69.1 229.9 60 240.2C50.9 250.5 46.7 264.3 48.4 278L80.4 534C83.4 558 103.8 576 128 576L308 576C300.8 566 294.6 555.3 289.4 544L128 544C119.9 544 113.1 538 112.1 530L80.1 274C79.5 269.4 80.9 264.9 84 261.4zM288 288C212.3 288 150.9 338.1 150.9 400C150.9 459.1 207 507.5 278 511.7C275.3 501.2 273.5 490.3 272.6 479.2C217.2 473.2 182.9 435.3 182.9 400C182.9 361.6 223.6 320 288 320C303.4 320 317.5 322.4 330 326.5C338.7 318.1 348.1 310.4 358.2 303.7C337.7 293.7 313.7 287.9 288 287.9zM288 376C271.8 376 258.6 386.7 258.6 400C258.6 409.9 266 418.5 276.6 422.1C280.2 406 285.8 390.6 293.1 376.3C291.4 376.1 289.7 375.9 288 375.9zM352 464C352 402.1 402.1 352 464 352C525.9 352 576 402.1 576 464C576 525.9 525.9 576 464 576C402.1 576 352 525.9 352 464zM608 464C608 384.5 543.5 320 464 320C384.5 320 320 384.5 320 464C320 543.5 384.5 608 464 608C543.5 608 608 543.5 608 464zM480 400C480 391.2 472.8 384 464 384C455.2 384 448 391.2 448 400L448 448L400 448C391.2 448 384 455.2 384 464C384 472.8 391.2 480 400 480L448 480L448 528C448 536.8 455.2 544 464 544C472.8 544 480 536.8 480 528L480 480L528 480C536.8 480 544 472.8 544 464C544 455.2 536.8 448 528 448L480 448L480 400z"/></svg>