<svg xmlns="http://www.w3.org/2000/svg" viewBox="0 0 640 640"><!--! Font Awesome Pro 7.1.0 by @fontawesome - https://fontawesome.com License - https://fontawesome.com/license (Commercial License) Copyright 2025 Fonticons, Inc. --><path fill="currentColor" d="M448 128L128 128C110.3 128 96 142.3 96 160L96 480C96 497.7 110.3 512 128 512L278 512C280.9 523.1 284.7 533.8 289.4 544L128 544C92.7 544 64 515.3 64 480L64 160C64 124.7 92.7 96 128 96L448 96C483.3 96 512 124.7 512 160L512 278C501.6 275.3 491 273.5 480 272.6L480 160C480 142.3 465.7 128 448 128zM288 160C360.1 160 421.1 207.7 441.1 273.4C430.3 274.7 419.8 276.9 409.6 279.9C392.8 228.9 344.7 192.1 288 192.1C217.3 192.1 160 249.4 160 320.1C160 385.6 209.2 439.7 272.7 447.2C271.7 458.6 271.8 469.6 272.6 479.4C191.5 471.7 128 403.3 128 320.1C128 231.7 199.6 160.1 288 160.1zM288 296C301.3 296 312 306.7 312 320C312 333.3 301.3 344 288 344C274.7 344 264 333.3 264 320C264 306.7 274.7 296 288 296zM576 464C576 402.1 525.9 352 464 352C402.1 352 352 402.1 352 464C352 525.9 402.1 576 464 576C525.9 576 576 525.9 576 464zM320 464C320 384.5 384.5 320 464 320C543.5 320 608 384.5 608 464C608 543.5 543.5 608 464 608C384.5 608 320 543.5 320 464zM480 400L480 448L528 448C536.8 448 544 455.2 544 464C544 472.8 536.8 480 528 480L480 480L480 528C480 536.8 472.8 544 464 544C455.2 544 448 536.8 448 528L448 480L400 480C391.2 480 384 472.8 384 464C384 455.2 391.2 448 400 448L448 448L448 400C448 391.2 455.2 384 464 384C472.8 384 480 391.2 480 400z"/></svg>