<svg xmlns="http://www.w3.org/2000/svg" viewBox="0 0 640 640"><!--! Font Awesome Pro 7.1.0 by @fontawesome - https://fontawesome.com License - https://fontawesome.com/license (Commercial License) Copyright 2025 Fonticons, Inc. --><path fill="currentColor" d="M480 128C497.7 128 512 142.3 512 160L512 480C512 497.7 497.7 512 480 512L160 512C142.3 512 128 497.7 128 480L128 160C128 142.3 142.3 128 160 128L480 128zM160 96C124.7 96 96 124.7 96 160L96 480C96 515.3 124.7 544 160 544L480 544C515.3 544 544 515.3 544 480L544 160C544 124.7 515.3 96 480 96L160 96zM320 192C390.7 192 448 249.3 448 320C448 390.7 390.7 448 320 448C249.3 448 192 390.7 192 320C192 249.3 249.3 192 320 192zM320 480C408.4 480 480 408.4 480 320C480 231.6 408.4 160 320 160C231.6 160 160 231.6 160 320C160 408.4 231.6 480 320 480zM320 344C333.3 344 344 333.3 344 320C344 306.7 333.3 296 320 296C306.7 296 296 306.7 296 320C296 333.3 306.7 344 320 344z"/></svg>