<svg xmlns="http://www.w3.org/2000/svg" viewBox="0 0 640 640"><!--! Font Awesome Pro 7.1.0 by @fontawesome - https://fontawesome.com License - https://fontawesome.com/license (Commercial License) Copyright 2025 Fonticons, Inc. --><path fill="currentColor" d="M448 128L128 128C110.3 128 96 142.3 96 160L96 480C96 497.7 110.3 512 128 512L278 512C280.9 523.1 284.7 533.8 289.4 544L128 544C92.7 544 64 515.3 64 480L64 160C64 124.7 92.7 96 128 96L448 96C483.3 96 512 124.7 512 160L512 278C501.6 275.3 491 273.5 480 272.6L480 160C480 142.3 465.7 128 448 128zM288 160C360.1 160 421.1 207.7 441.1 273.4C430.3 274.7 419.8 276.9 409.6 279.9C392.8 228.9 344.7 192.1 288 192.1C217.3 192.1 160 249.4 160 320.1C160 385.6 209.2 439.7 272.7 447.2C271.7 458.6 271.8 469.6 272.6 479.4C191.5 471.7 128 403.3 128 320.1C128 231.7 199.6 160.1 288 160.1zM288 296C301.3 296 312 306.7 312 320C312 333.3 301.3 344 288 344C274.7 344 264 333.3 264 320C264 306.7 274.7 296 288 296zM524 558.6C516.2 549.5 504.6 544 492.2 544L435.8 544C423.4 544 411.9 549.5 404 558.6C421.3 569.6 441.9 576 464 576C486.1 576 506.7 569.6 524 558.6zM548.3 537.8C565.6 518.1 576 492.3 576 464C576 402.1 525.9 352 464 352C402.1 352 352 402.1 352 464C352 492.2 362.5 518.1 379.7 537.8C393.5 521.7 413.9 512 435.8 512L492.2 512C514 512 534.4 521.6 548.3 537.8zM320 464C320 384.5 384.5 320 464 320C543.5 320 608 384.5 608 464C608 543.5 543.5 608 464 608C384.5 608 320 543.5 320 464zM464 464C477.3 464 488 453.3 488 440C488 426.7 477.3 416 464 416C450.7 416 440 426.7 440 440C440 453.3 450.7 464 464 464zM464 384C494.9 384 520 409.1 520 440C520 470.9 494.9 496 464 496C433.1 496 408 470.9 408 440C408 409.1 433.1 384 464 384z"/></svg>