<svg xmlns="http://www.w3.org/2000/svg" viewBox="0 0 640 640"><!--! Font Awesome Pro 7.1.0 by @fontawesome - https://fontawesome.com License - https://fontawesome.com/license (Commercial License) Copyright 2025 Fonticons, Inc. --><path fill="currentColor" d="M335.5 212.1C335 214 334.2 215.7 333 217.3C331.6 219.2 329.9 220.7 328 221.8C326.1 222.9 323.9 223.6 321.6 223.9C318.4 224.2 315 223.6 312 221.9L169.9 140.6C176.9 192.8 202.1 231.8 227.7 259C242.8 275 257.8 286.8 269.1 294.5C274.7 298.4 279.4 301.2 282.6 303.1C284.2 304 285.4 304.7 286.2 305.1L287.1 305.6L287.3 305.7L287.3 305.7C295.2 309.7 298.4 319.3 294.4 327.2C290.4 335.1 280.8 338.3 272.9 334.4L280 320C272.8 334.3 272.8 334.3 272.8 334.3L272.8 334.3L272.8 334.3L272.7 334.2L272.3 334C272 333.8 271.6 333.6 271 333.3C269.9 332.7 268.4 331.9 266.5 330.8C262.7 328.6 257.3 325.3 251 320.9C238.3 312.2 221.4 298.9 204.4 280.9C170.5 244.8 136.1 189.1 136.1 111.9C136.1 106.2 139.1 100.9 144.1 98.1C149.1 95.3 155.1 95.2 160.1 98L306.5 181.7C318.7 114.8 377.4 64 448 64L544 64C552.8 64 560 71.2 560 80C560 87 555.5 93 549.2 95.1C556.5 104.6 561.7 115.7 564.2 128L630.7 128C635.8 128 640 132.2 640 137.3C640 141.3 637.4 144.9 633.6 146.1L568.4 167.8L573.1 217.2C575.4 241.1 563.9 264.3 543.5 277.1C514.4 295.3 476.1 287.1 457 258.5L455.3 256L447.9 256L447.9 296C447.9 296.7 447.8 297.5 447.8 298.2C447.9 300.1 447.9 302.1 447.9 304C447.9 334.9 435.5 362.4 415.9 382.4L416 536C416 558.1 398.1 576 376 576L344 576C321.9 576 304 558.1 304 536L304 411.6L215.9 391.8C215.4 406.1 212.3 420.1 206.7 433.2L198.6 452.2C196.4 457.2 196.1 462.8 197.5 468.1L213.4 525.3C220.5 550.8 201.3 576 174.9 576L141.7 576C123.7 576 108 564 103.2 546.7L89.6 498.1C81.3 468.3 83.4 436.6 95.6 408.1L103.7 389.1C103.9 388.7 104 388.3 104 387.8C104 387.4 103.9 387 103.8 386.6L70.4 306.5C66.2 296.4 64 285.7 64 274.8C45.4 281.4 32 299.2 32 320.1L32 368.1C32 376.9 24.8 384.1 16 384.1C7.2 384.1 0 376.8 0 368L0 320C0 278.7 31.3 244.8 71.4 240.5C80.4 220.7 97 205.1 117.4 197.4C120.8 207.8 124.8 217.8 129.2 227.2C109.8 234.3 96 252.9 96 274.8C96 281.5 97.3 288.1 99.9 294.3L133.3 374.4C135.1 378.7 136 383.3 136 387.9C136 392.7 135 397.4 133.2 401.8L125.1 420.8C115.8 442.5 114.2 466.8 120.5 489.6L134 538.2C135 541.7 138.1 544.1 141.7 544.1L174.9 544.1C180.2 544.1 184 539.1 182.6 534L166.7 476.8C163.3 464.5 164.2 451.5 169.2 439.8L177.3 420.8C181.7 410.4 184 399.3 184 388C184 383.4 183.6 378.8 182.9 374.3C182 369 183.8 363.7 187.7 360C191.6 356.3 197 354.8 202.2 356L318.4 382C319.8 382.3 321.2 382.6 322.7 382.8C330.4 384.1 336 390.8 336 398.6L336 536C336 540.4 339.6 544 344 544L376 544C380.4 544 384 540.4 384 536L384 375.6C384 371 385.9 366.7 389.3 363.7C405.6 349.2 416 328.1 416 304.1C416 301.8 415.9 299.6 415.7 297.4C415.6 295.9 415.7 294.3 416 292.9L416 240.1C416 231.3 423.2 224.1 432 224.1L464 224.1C469.4 224.1 474.3 226.8 477.3 231.2L483.7 240.8C493.1 255 512.2 259.1 526.6 250C536.7 243.7 542.4 232.2 541.3 220.3L533.6 139.5C531.3 114.9 510.6 96.1 485.8 96.1L448 96C386.2 96 336.1 146 336 207.7C336 209.2 335.9 210.6 335.5 212.1zM464 160C464 151.2 471.2 144 480 144C488.8 144 496 151.2 496 160C496 168.8 488.8 176 480 176C471.2 176 464 168.8 464 160z"/></svg>