<svg xmlns="http://www.w3.org/2000/svg" viewBox="0 0 640 640"><!--! Font Awesome Pro 7.1.0 by @fontawesome - https://fontawesome.com License - https://fontawesome.com/license (Commercial License) Copyright 2025 Fonticons, Inc. --><path fill="currentColor" d="M160 96C142.3 96 128 110.3 128 128L128 160C128 177.7 142.3 192 160 192L192 192L192 224L128 224L128 208C128 190.3 113.7 176 96 176L64 176C46.3 176 32 190.3 32 208L32 352C32 369.7 46.3 384 64 384L96 384L96 416C96 433.7 110.3 448 128 448L160 448L160 512C160 529.7 174.3 544 192 544L272 544C289.7 544 304 529.7 304 512L304 480C304 462.3 289.7 448 272 448L368 448C350.3 448 336 462.3 336 480L336 512C336 529.7 350.3 544 368 544L448 544C465.7 544 480 529.7 480 512L480 448L512 448C529.7 448 544 433.7 544 416L544 384L576 384C593.7 384 608 369.7 608 352L608 208C608 190.3 593.7 176 576 176L544 176C526.3 176 512 190.3 512 208L512 224L448 224L448 192L480 192C497.7 192 512 177.7 512 160L512 128C512 110.3 497.7 96 480 96L448 96C430.3 96 416 110.3 416 128L384 128C366.3 128 352 142.3 352 160L352 192L288 192L288 160C288 142.3 273.7 128 256 128L224 128C224 110.3 209.7 96 192 96L160 96zM512 256L512 304C512 312.8 519.2 320 528 320C536.8 320 544 312.8 544 304L544 208L576 208L576 352L528 352C519.2 352 512 359.2 512 368L512 416L128 416L128 368C128 359.2 120.8 352 112 352L64 352L64 208L96 208L96 304C96 312.8 103.2 320 112 320C120.8 320 128 312.8 128 304L128 256L208 256C216.8 256 224 248.8 224 240L224 160L256 160L256 208C256 216.8 263.2 224 272 224L368 224C376.8 224 384 216.8 384 208L384 160L416 160L416 240C416 248.8 423.2 256 432 256L512 256zM160 160L160 128L192 128L192 160L160 160zM480 160L448 160L448 128L480 128L480 160zM192 512L192 448L224 448L224 464C224 472.8 231.2 480 240 480L272 480L272 512L192 512zM416 464L416 448L448 448L448 512L368 512L368 480L400 480C408.8 480 416 472.8 416 464zM256 304C256 295.2 248.8 288 240 288C231.2 288 224 295.2 224 304L224 368C224 376.8 231.2 384 240 384C248.8 384 256 376.8 256 368L256 304zM416 304C416 295.2 408.8 288 400 288C391.2 288 384 295.2 384 304L384 368C384 376.8 391.2 384 400 384C408.8 384 416 376.8 416 368L416 304z"/></svg>