<svg xmlns="http://www.w3.org/2000/svg" viewBox="0 0 640 640"><!--! Font Awesome Pro 7.1.0 by @fontawesome - https://fontawesome.com License - https://fontawesome.com/license (Commercial License) Copyright 2025 Fonticons, Inc. --><path fill="currentColor" d="M320 96C214 96 128 182 128 288C128 344.2 159.2 398.7 200.2 445.4C240.6 491.5 286.9 525.8 308.8 540.8C311.6 542.7 315.4 544 320 544C324.6 544 328.4 542.7 331.2 540.8C353.1 525.8 399.3 491.5 439.8 445.4C480.8 398.7 512 344.1 512 288C512 182 426 96 320 96zM96 288C96 164.3 196.3 64 320 64C443.7 64 544 164.3 544 288C544 423.3 395.2 535.7 349.3 567.2C340.7 573.1 330.4 576 320 576C309.6 576 299.3 573.1 290.7 567.2C244.8 535.7 96 423.3 96 288zM446 304L432 304C402.2 304 377.1 324.4 370 352L384 352C413.8 352 438.9 331.6 446 304zM432 272L464 272C472.8 272 480 279.2 480 288C480 341 437 384 384 384L352 384C343.2 384 336 376.8 336 368C336 315 379 272 432 272zM208 304L194 304C201.1 331.6 226.2 352 256 352L270 352C262.9 324.4 237.8 304 208 304zM304 368C304 376.8 296.8 384 288 384L256 384C203 384 160 341 160 288C160 279.2 167.2 272 176 272L208 272C261 272 304 315 304 368z"/></svg>