<svg xmlns="http://www.w3.org/2000/svg" viewBox="0 0 640 640"><!--! Font Awesome Pro 7.1.0 by @fontawesome - https://fontawesome.com License - https://fontawesome.com/license (Commercial License) Copyright 2025 Fonticons, Inc. --><path fill="currentColor" d="M528 112C536.8 112 544 119.2 544 128C544 136.8 536.8 144 528 144L272 144C263.2 144 256 136.8 256 128C256 119.2 263.2 112 272 112L528 112zM528 240C536.8 240 544 247.2 544 256C544 264.8 536.8 272 528 272L112 272C103.2 272 96 264.8 96 256C96 247.2 103.2 240 112 240L528 240zM544 384C544 392.8 536.8 400 528 400L272 400C263.2 400 256 392.8 256 384C256 375.2 263.2 368 272 368L528 368C536.8 368 544 375.2 544 384zM528 496C536.8 496 544 503.2 544 512C544 520.8 536.8 528 528 528L112 528C103.2 528 96 520.8 96 512C96 503.2 103.2 496 112 496L528 496z"/></svg>