<svg xmlns="http://www.w3.org/2000/svg" viewBox="0 0 640 640"><!--! Font Awesome Pro 7.1.0 by @fontawesome - https://fontawesome.com License - https://fontawesome.com/license (Commercial License) Copyright 2025 Fonticons, Inc. --><path fill="currentColor" d="M112 112C103.2 112 96 119.2 96 128C96 136.8 103.2 144 112 144L368 144C376.8 144 384 136.8 384 128C384 119.2 376.8 112 368 112L112 112zM112 240C103.2 240 96 247.2 96 256C96 264.8 103.2 272 112 272L528 272C536.8 272 544 264.8 544 256C544 247.2 536.8 240 528 240L112 240zM96 384C96 392.8 103.2 400 112 400L368 400C376.8 400 384 392.8 384 384C384 375.2 376.8 368 368 368L112 368C103.2 368 96 375.2 96 384zM112 496C103.2 496 96 503.2 96 512C96 520.8 103.2 528 112 528L528 528C536.8 528 544 520.8 544 512C544 503.2 536.8 496 528 496L112 496z"/></svg>