<svg xmlns="http://www.w3.org/2000/svg" viewBox="0 0 640 640"><!--! Font Awesome Pro 7.1.0 by @fontawesome - https://fontawesome.com License - https://fontawesome.com/license (Commercial License) Copyright 2025 Fonticons, Inc. --><path fill="currentColor" d="M59.3 36.8C53.1 30.6 42.9 30.6 36.7 36.8C30.5 43 30.5 53.2 36.7 59.4L580.7 603.4C586.9 609.6 597.1 609.6 603.3 603.4C609.5 597.2 609.5 587 603.3 580.8L422.5 400L528 400C536.8 400 544 392.8 544 384C544 375.2 536.8 368 528 368L390.5 368L294.5 272L528 272C536.8 272 544 264.8 544 256C544 247.2 536.8 240 528 240L262.5 240L166.5 144L528 144C536.8 144 544 136.8 544 128C544 119.2 536.8 112 528 112L134.5 112L59.3 36.8zM149.5 240L112 240C103.2 240 96 247.2 96 256C96 264.8 103.2 272 112 272L181.5 272L149.5 240zM277.5 368L112 368C103.2 368 96 375.2 96 384C96 392.8 103.2 400 112 400L309.5 400L277.5 368zM405.5 496L112 496C103.2 496 96 503.2 96 512C96 520.8 103.2 528 112 528L437.5 528L405.5 496z"/></svg>