<svg xmlns="http://www.w3.org/2000/svg" viewBox="0 0 640 640"><!--! Font Awesome Pro 7.1.0 by @fontawesome - https://fontawesome.com License - https://fontawesome.com/license (Commercial License) Copyright 2025 Fonticons, Inc. --><path fill="currentColor" d="M208 112C199.2 112 192 119.2 192 128C192 136.8 199.2 144 208 144L432 144C440.8 144 448 136.8 448 128C448 119.2 440.8 112 432 112L208 112zM112 240C103.2 240 96 247.2 96 256C96 264.8 103.2 272 112 272L528 272C536.8 272 544 264.8 544 256C544 247.2 536.8 240 528 240L112 240zM192 384C192 392.8 199.2 400 208 400L432 400C440.8 400 448 392.8 448 384C448 375.2 440.8 368 432 368L208 368C199.2 368 192 375.2 192 384zM112 496C103.2 496 96 503.2 96 512C96 520.8 103.2 528 112 528L528 528C536.8 528 544 520.8 544 512C544 503.2 536.8 496 528 496L112 496z"/></svg>