<svg xmlns="http://www.w3.org/2000/svg" viewBox="0 0 640 640"><!--! Font Awesome Pro 7.1.0 by @fontawesome - https://fontawesome.com License - https://fontawesome.com/license (Commercial License) Copyright 2025 Fonticons, Inc. --><path fill="currentColor" d="M207.4 384C220.1 384 232.8 386.1 244.9 390.1L405.3 443.6L412 445.5C418.7 447.2 425.7 448 432.7 448C465.5 448 495.4 429.5 510.1 400.2L513.8 392.9C517.7 385 527.4 381.8 535.3 385.7C543.2 389.6 546.4 399.3 542.5 407.2L538.8 414.5C518.7 454.7 477.7 480 432.8 480C420.1 480 407.4 477.9 395.3 473.9L234.7 420.4C225.9 417.5 216.6 416 207.4 416C174.6 416 144.6 434.5 130 463.8L126.3 471.1C122.3 479 112.7 482.2 104.8 478.3C96.9 474.4 93.7 464.7 97.6 456.8L101.3 449.5L105.3 442.1C126.5 406.2 165.2 383.9 207.3 383.9zM207.4 160C220.1 160 232.8 162.1 244.9 166.1L405.3 219.6L412 221.5C418.7 223.2 425.7 224 432.7 224C465.5 224 495.4 205.5 510.1 176.2L513.8 168.9C517.7 161 527.4 157.8 535.3 161.7C543.2 165.6 546.4 175.3 542.5 183.2L538.8 190.5C518.7 230.6 477.7 256 432.8 256C420.1 256 407.4 253.9 395.3 249.9L234.7 196.4C225.9 193.5 216.6 192 207.4 192C174.6 192 144.7 210.5 130 239.8L126.3 247.1C122.3 255 112.7 258.2 104.8 254.3C96.9 250.4 93.7 240.7 97.6 232.8L101.3 225.5L105.3 218.1C126.6 182.3 165.3 160 207.4 160z"/></svg>