<svg xmlns="http://www.w3.org/2000/svg" viewBox="0 0 640 640"><!--! Font Awesome Pro 7.1.0 by @fontawesome - https://fontawesome.com License - https://fontawesome.com/license (Commercial License) Copyright 2025 Fonticons, Inc. --><path fill="currentColor" d="M462 171.7C468.1 164.3 477.2 160 486.8 160L624 160C632.8 160 640 152.8 640 144C640 135.2 632.8 128 624 128L486.7 128C467.5 128 449.3 136.6 437.2 151.5L178 468.3C171.9 475.7 162.8 480 153.2 480L16 480C7.2 480 0 487.2 0 496C0 504.8 7.2 512 16 512L153.3 512C172.5 512 190.7 503.4 202.8 488.5L462 171.7zM432 480C423.2 480 416 487.2 416 496C416 504.8 423.2 512 432 512L624 512C632.8 512 640 504.8 640 496C640 487.2 632.8 480 624 480L432 480z"/></svg>