<svg xmlns="http://www.w3.org/2000/svg" viewBox="0 0 640 640"><!--! Font Awesome Pro 7.1.0 by @fontawesome - https://fontawesome.com License - https://fontawesome.com/license (Commercial License) Copyright 2025 Fonticons, Inc. --><path fill="currentColor" d="M208 176.5C208 197.6 216.2 218 230.9 233L269.2 272.3L319.5 250.5C348.9 237.7 368 208.5 368 176.3C368 132 332.1 95.9 288 95.9C243.9 95.9 208 132.1 208 176.4zM332.2 279.9L293.1 296.8L414.5 421.4L469.3 372.1C475.9 366.2 486 366.7 491.9 373.3C497.8 379.9 497.3 390 490.7 395.9L436.8 444.4L507.4 516.9C513.6 523.2 513.4 533.4 507.1 539.5C500.8 545.6 490.6 545.5 484.5 539.2L413 465.8L378.2 497.1C344.7 527.3 301.2 544 256 544C186 544 128 487.3 128 416.9C128 366.3 158.1 320.5 204.5 300.3L237.7 285.9L207.9 255.3C187.4 234.3 176 205.8 176 176.5C176 114.7 226 64 288 64C349.9 64 400 114.6 400 176.4C400 221.2 373.4 262 332.2 279.9zM256 512C293.2 512 329.2 498.2 356.9 473.3L390.7 442.9L261.7 310.5L217.3 329.7C182.5 344.8 160 379 160 416.9C160 469.3 203.3 512 256 512z"/></svg>