<svg xmlns="http://www.w3.org/2000/svg" viewBox="0 0 640 640"><!--! Font Awesome Pro 7.1.0 by @fontawesome - https://fontawesome.com License - https://fontawesome.com/license (Commercial License) Copyright 2025 Fonticons, Inc. --><path fill="currentColor" d="M288.5 96C262 96 240.5 117.5 240.5 144C240.5 170.5 262 192 288.5 192C315 192 336.5 170.5 336.5 144C336.5 117.5 315 96 288.5 96zM208.5 144C208.5 99.8 244.3 64 288.5 64C332.7 64 368.5 99.8 368.5 144C368.5 182.7 341 215 304.5 222.4L304.5 527.2C309 526.8 313.4 526.1 317.7 525.3C321.2 535.7 325.6 545.8 330.8 555.3C317.2 558.4 303.1 560 288.5 560C182.5 560 96.5 474 96.5 368L96.5 339.3L59 372.1C52.3 377.9 42.2 377.2 36.4 370.6C30.6 364 31.3 353.8 38 348L102 292C108 286.7 117 286.7 123.1 292L187.1 348C193.8 353.8 194.4 363.9 188.6 370.6C182.8 377.3 172.7 377.9 166 372.1L128.5 339.3L128.5 368C128.5 451 191.6 519.2 272.5 527.2L272.5 222.4C236 215 208.5 182.7 208.5 144zM608.5 464C608.5 402.1 558.4 352 496.5 352C434.6 352 384.5 402.1 384.5 464C384.5 525.9 434.6 576 496.5 576C558.4 576 608.5 525.9 608.5 464zM352.5 464C352.5 384.5 417 320 496.5 320C576 320 640.5 384.5 640.5 464C640.5 543.5 576 608 496.5 608C417 608 352.5 543.5 352.5 464zM555.8 427.3L519.1 464L555.8 500.7C562 506.9 562 517.1 555.8 523.3C549.6 529.5 539.4 529.5 533.2 523.3L496.5 486.6L459.8 523.3C453.6 529.5 443.4 529.5 437.2 523.3C431 517.1 431 506.9 437.2 500.7L473.9 464L437.2 427.3C431 421.1 431 410.9 437.2 404.7C443.4 398.5 453.6 398.5 459.8 404.7L496.5 441.4L533.2 404.7C539.4 398.5 549.6 398.5 555.8 404.7C562 410.9 562 421.1 555.8 427.3z"/></svg>