<svg xmlns="http://www.w3.org/2000/svg" viewBox="0 0 640 640"><!--! Font Awesome Pro 7.1.0 by @fontawesome - https://fontawesome.com License - https://fontawesome.com/license (Commercial License) Copyright 2025 Fonticons, Inc. --><path fill="currentColor" d="M336 144C336 170.5 314.5 192 288 192C261.5 192 240 170.5 240 144C240 117.5 261.5 96 288 96C314.5 96 336 117.5 336 144zM288 64C243.8 64 208 99.8 208 144C208 182.7 235.5 215 272 222.4L272 527.2C191.1 519.2 128 451 128 368L128 339.3L165.5 372.1C172.2 377.9 182.3 377.2 188.1 370.6C193.9 364 193.2 353.8 186.6 348L122.6 292C116.6 286.7 107.6 286.7 101.5 292L37.5 348C30.8 353.8 30.2 363.9 36 370.6C41.8 377.3 51.9 377.9 58.6 372.1L96 339.3L96 368C96 474 182 560 288 560C316.6 560 343.6 553.8 368 542.6L368 506.6C348.8 517.7 327.1 524.9 304 527.2L304 222.4C340.5 215 368 182.7 368 144C368 99.8 332.2 64 288 64zM448 416.1L448 418.7C429.4 425.3 416 443.1 416 464L416 560C416 586.5 437.5 608 464 608L592 608C618.5 608 640 586.5 640 560L640 464C640 443.1 626.6 425.3 608 418.7L608 368.1C608 323.9 572.2 288.1 528 288.1C483.8 288.1 448 323.9 448 368.1L448 416.1zM448 464C448 455.8 454.2 449 462.3 448.1L593.8 448.1C601.8 449 608.1 455.8 608.1 464L608.1 560C608.1 568.8 600.9 576 592.1 576L464.1 576C455.3 576 448.1 568.8 448.1 560L448.1 464zM576 368.1L576 416L480 416L480 368.1C480 341.6 501.5 320.1 528 320.1C554.5 320.1 576 341.6 576 368.1z"/></svg>