<svg xmlns="http://www.w3.org/2000/svg" viewBox="0 0 640 640"><!--! Font Awesome Pro 7.1.0 by @fontawesome - https://fontawesome.com License - https://fontawesome.com/license (Commercial License) Copyright 2025 Fonticons, Inc. --><path fill="currentColor" d="M288 96C261.5 96 240 117.5 240 144C240 170.5 261.5 192 288 192C314.5 192 336 170.5 336 144C336 117.5 314.5 96 288 96zM208 144C208 99.8 243.8 64 288 64C332.2 64 368 99.8 368 144C368 182.7 340.5 215 304 222.4L304 527.2C308.5 526.8 312.9 526.1 317.2 525.3C320.7 535.7 325.1 545.8 330.3 555.3C316.7 558.4 302.6 560 288 560C182 560 96 474 96 368L96 339.3L58.5 372.1C51.8 377.9 41.7 377.2 35.9 370.6C30.1 364 30.8 353.8 37.4 348L101.4 292C107.4 286.7 116.4 286.7 122.5 292L186.5 348C193.2 353.8 193.8 363.9 188 370.6C182.2 377.3 172.1 377.9 165.4 372.1L128 339.3L128 368C128 451 191.1 519.2 272 527.2L272 222.4C235.5 215 208 182.7 208 144zM496 576C557.9 576 608 525.9 608 464C608 402.1 557.9 352 496 352C434.1 352 384 402.1 384 464C384 525.9 434.1 576 496 576zM496 320C575.5 320 640 384.5 640 464C640 543.5 575.5 608 496 608C416.5 608 352 543.5 352 464C352 384.5 416.5 320 496 320zM553.4 403.1C560.5 408.3 562.1 418.3 556.9 425.5L492.9 513.5C490.1 517.3 485.9 519.7 481.2 520C476.5 520.3 471.9 518.7 468.6 515.4L428.6 475.4C422.4 469.2 422.4 459 428.6 452.8C434.8 446.6 445 446.6 451.2 452.8L478 479.6L531 406.7C536.2 399.6 546.2 398 553.4 403.2z"/></svg>