<svg xmlns="http://www.w3.org/2000/svg" viewBox="0 0 640 640"><!--! Font Awesome Pro 7.1.0 by @fontawesome - https://fontawesome.com License - https://fontawesome.com/license (Commercial License) Copyright 2025 Fonticons, Inc. --><path fill="currentColor" d="M320 96C293.5 96 272 117.5 272 144C272 170.5 293.5 192 320 192C346.5 192 368 170.5 368 144C368 117.5 346.5 96 320 96zM240 144C240 99.8 275.8 64 320 64C364.2 64 400 99.8 400 144C400 182.7 372.5 215 336 222.4L336 527.2C416.9 519.2 480 451 480 368L480 339.3L442.5 372.1C435.8 377.9 425.7 377.2 419.9 370.6C414.1 364 414.8 353.8 421.4 348L485.4 292C491.4 286.7 500.4 286.7 506.5 292L570.5 348C577.1 353.8 577.8 363.9 572 370.6C566.2 377.3 556.1 377.9 549.4 372.1L512 339.3L512 368C512 474 426 560 320 560C214 560 128 474 128 368L128 339.3L90.5 372.1C83.8 377.9 73.7 377.2 67.9 370.6C62.1 364 62.8 353.8 69.5 348L133.5 292C139.5 286.7 148.5 286.7 154.6 292L218.6 348C225.3 353.8 225.9 363.9 220.1 370.6C214.3 377.3 204.2 377.9 197.5 372.1L160 339.3L160 368C160 451 223.1 519.2 304 527.2L304 222.4C267.5 215 240 182.7 240 144z"/></svg>