<svg xmlns="http://www.w3.org/2000/svg" viewBox="0 0 640 640"><!--! Font Awesome Pro 7.1.0 by @fontawesome - https://fontawesome.com License - https://fontawesome.com/license (Commercial License) Copyright 2025 Fonticons, Inc. --><path fill="currentColor" d="M288 96C261.5 96 240 117.5 240 144C240 170.5 261.5 192 288 192C314.5 192 336 170.5 336 144C336 117.5 314.5 96 288 96zM208 144C208 99.8 243.8 64 288 64C332.2 64 368 99.8 368 144C368 182.7 340.5 215 304 222.4L304 527.2C308.5 526.8 312.9 526.1 317.2 525.3C320.7 535.7 325.1 545.8 330.3 555.3C316.7 558.4 302.6 560 288 560C182 560 96 474 96 368L96 339.3L58.5 372.1C51.8 377.9 41.7 377.2 35.9 370.6C30.1 364 30.8 353.8 37.4 348L101.4 292C107.4 286.7 116.4 286.7 122.5 292L186.5 348C193.2 353.8 193.8 363.9 188 370.6C182.2 377.3 172.1 377.9 165.4 372.1L128 339.3L128 368C128 451 191.1 519.2 272 527.2L272 222.4C235.5 215 208 182.7 208 144zM608 464C608 402.1 557.9 352 496 352C434.1 352 384 402.1 384 464C384 525.9 434.1 576 496 576C557.9 576 608 525.9 608 464zM352 464C352 384.5 416.5 320 496 320C575.5 320 640 384.5 640 464C640 543.5 575.5 608 496 608C416.5 608 352 543.5 352 464zM496 508C507 508 516 517 516 528C516 539 507 548 496 548C485 548 476 539 476 528C476 517 485 508 496 508zM496 384C504.8 384 512 391.2 512 400L512 464C512 472.8 504.8 480 496 480C487.2 480 480 472.8 480 464L480 400C480 391.2 487.2 384 496 384z"/></svg>