<svg xmlns="http://www.w3.org/2000/svg" viewBox="0 0 640 640"><!--! Font Awesome Pro 7.1.0 by @fontawesome - https://fontawesome.com License - https://fontawesome.com/license (Commercial License) Copyright 2025 Fonticons, Inc. --><path fill="currentColor" d="M423.7 149.5C419.9 140.3 415 131.7 409 124C413.5 120.3 416 116.2 416 112C416 94.3 373 80 320 80C267 80 224 94.3 224 112C224 116.2 226.5 120.3 231 124C225.1 131.8 220.1 140.3 216.3 149.5C201 139 192 126 192 112C192 76.7 249.3 48 320 48C390.7 48 448 76.7 448 112C448 126 439 139 423.7 149.5zM352 192C352 174.3 337.7 160 320 160C302.3 160 288 174.3 288 192C288 209.7 302.3 224 320 224C337.7 224 352 209.7 352 192zM256 192C256 156.7 284.7 128 320 128C355.3 128 384 156.7 384 192C384 227.3 355.3 256 320 256C284.7 256 256 227.3 256 192zM182.9 187.4L277.1 300.5C289.6 292.5 304.4 288 320 288C335.6 288 350.4 292.5 362.9 300.5L457.1 187.4C471.6 170 493.1 160 515.7 160C557.8 160 592 194.1 592 236.3L592 299.7C592 342.1 574.2 380.3 545.7 407.3C529.3 422.9 522.7 448.5 526.4 470.9L535.7 526.4C540 552.4 520 576 493.7 576L416 576C414.3 576 412.7 576 411 575.9C410 576 409.1 576 408.1 576L231.9 576C230.9 576 230 576 229 575.9C227.3 576 225.7 576 224 576L146.3 576C120 576 99.9 552.4 104.3 526.4L113.6 470.9C117.3 448.6 110.8 422.9 94.3 407.3C65.8 380.3 48 342 48 299.7L48 236.3C48 194.2 82.1 160 124.3 160C146.9 160 168.4 170.1 182.9 187.4zM397.9 350.4L439.4 537C439.9 539.3 440.2 541.7 440.2 543.9L493.8 543.9C500.4 543.9 505.3 538 504.3 531.6L495 476.1C489.9 445.3 498.2 408.3 523.8 384.1C546.2 362.9 560.1 332.9 560.1 299.7L560.1 236.3C560.1 211.8 540.3 192 515.8 192C502.7 192 490.2 197.8 481.8 207.9L385.9 322.9C391.5 331.1 395.6 340.4 397.8 350.5zM146.3 544L199.9 544C199.9 541.7 200.2 539.4 200.7 537.1L242.2 350.5C244.5 340.4 248.6 331.1 254.1 322.9L158.3 207.9C149.9 197.8 137.4 192 124.3 192C99.8 192 80 211.8 80 236.3L80 299.7C80 332.9 93.9 362.9 116.3 384.1C141.9 408.3 150.2 445.4 145.1 476.1L135.8 531.6C134.7 538.1 139.7 543.9 146.3 543.9zM408.1 544L366.6 357.4C361.8 335.6 342.4 320 320 320C297.6 320 278.2 335.6 273.4 357.4L231.9 544L408.1 544z"/></svg>