<svg xmlns="http://www.w3.org/2000/svg" viewBox="0 0 640 640"><!--! Font Awesome Pro 7.1.0 by @fontawesome - https://fontawesome.com License - https://fontawesome.com/license (Commercial License) Copyright 2025 Fonticons, Inc. --><path fill="currentColor" d="M331.3 68.7C325.1 62.5 314.9 62.5 308.7 68.7L148.7 228.7C142.5 234.9 142.5 245.1 148.7 251.3C154.9 257.5 165.1 257.5 171.3 251.3L320 102.6L468.7 251.3C474.9 257.5 485.1 257.5 491.3 251.3C497.5 245.1 497.5 234.9 491.3 228.7L331.3 68.7zM491.3 411.3C497.5 405.1 497.5 394.9 491.3 388.7C485.1 382.5 474.9 382.5 468.7 388.7L320 537.4L171.3 388.7C165.1 382.5 154.9 382.5 148.7 388.7C142.5 394.9 142.5 405.1 148.7 411.3L308.7 571.3C314.9 577.5 325.1 577.5 331.3 571.3L491.3 411.3z"/></svg>