<svg xmlns="http://www.w3.org/2000/svg" viewBox="0 0 640 640"><!--! Font Awesome Pro 7.1.0 by @fontawesome - https://fontawesome.com License - https://fontawesome.com/license (Commercial License) Copyright 2025 Fonticons, Inc. --><path fill="currentColor" d="M331.3 523.3C325.1 529.5 314.9 529.5 308.7 523.3L148.7 363.3C142.5 357.1 142.5 346.9 148.7 340.7C154.9 334.5 165.1 334.5 171.3 340.7L320 489.4L468.7 340.7C474.9 334.5 485.1 334.5 491.3 340.7C497.5 346.9 497.5 357.1 491.3 363.3L331.3 523.3zM491.3 171.3L331.3 331.3C325.1 337.5 314.9 337.5 308.7 331.3L148.7 171.3C142.5 165.1 142.5 154.9 148.7 148.7C154.9 142.5 165.1 142.5 171.3 148.7L320 297.4L468.7 148.7C474.9 142.5 485.1 142.5 491.3 148.7C497.5 154.9 497.5 165.1 491.3 171.3z"/></svg>