<svg xmlns="http://www.w3.org/2000/svg" viewBox="0 0 640 640"><!--! Font Awesome Pro 7.1.0 by @fontawesome - https://fontawesome.com License - https://fontawesome.com/license (Commercial License) Copyright 2025 Fonticons, Inc. --><path fill="currentColor" d="M116.7 308.7C110.5 314.9 110.5 325.1 116.7 331.3L276.7 491.3C282.9 497.5 293.1 497.5 299.3 491.3C305.5 485.1 305.5 474.9 299.3 468.7L150.6 320L299.3 171.3C305.5 165.1 305.5 154.9 299.3 148.7C293.1 142.5 282.9 142.5 276.7 148.7L116.7 308.7zM468.7 148.7L308.7 308.7C302.5 314.9 302.5 325.1 308.7 331.3L468.7 491.3C474.9 497.5 485.1 497.5 491.3 491.3C497.5 485.1 497.5 474.9 491.3 468.7L342.6 320L491.3 171.3C497.5 165.1 497.5 154.9 491.3 148.7C485.1 142.5 474.9 142.5 468.7 148.7z"/></svg>