<svg xmlns="http://www.w3.org/2000/svg" viewBox="0 0 640 640"><!--! Font Awesome Pro 7.1.0 by @fontawesome - https://fontawesome.com License - https://fontawesome.com/license (Commercial License) Copyright 2025 Fonticons, Inc. --><path fill="currentColor" d="M334.3 119.2C338.3 111.3 335 101.7 327.1 97.7C319.2 93.7 309.6 97 305.6 104.9L97.6 520.9C95.1 525.9 95.4 531.7 98.3 536.5C101.2 541.3 106.5 544 112 544L528 544C536.8 544 544 536.8 544 528C544 519.2 536.8 512 528 512L137.9 512L334.3 119.2zM434 373.1C430.1 364.5 419.5 361.7 411.5 366.7C404.5 371.1 402.1 380.2 405.5 387.7C416.2 411.6 424 437.2 428.2 464L460.6 464C456 432 446.9 401.5 434 373.1zM365 321.6C370.3 328.2 379.7 330 386.9 325.5C394.7 320.6 396.8 310.1 391 302.8C372.5 279.5 350.9 258.8 327 241.2L312.5 270.3C332 285.2 349.7 302.5 365.1 321.6z"/></svg>