<svg xmlns="http://www.w3.org/2000/svg" viewBox="0 0 640 640"><!--! Font Awesome Pro 7.1.0 by @fontawesome - https://fontawesome.com License - https://fontawesome.com/license (Commercial License) Copyright 2025 Fonticons, Inc. --><path fill="currentColor" d="M331.3 116.7C325.1 110.5 314.9 110.5 308.7 116.7L148.7 276.7C142.5 282.9 142.5 293.1 148.7 299.3C154.9 305.5 165.1 305.5 171.3 299.3L320 150.6L468.7 299.3C474.9 305.5 485.1 305.5 491.3 299.3C497.5 293.1 497.5 282.9 491.3 276.7L331.3 116.7zM491.3 468.7L331.3 308.7C325.1 302.5 314.9 302.5 308.7 308.7L148.7 468.7C142.5 474.9 142.5 485.1 148.7 491.3C154.9 497.5 165.1 497.5 171.3 491.3L320 342.6L468.7 491.3C474.9 497.5 485.1 497.5 491.3 491.3C497.5 485.1 497.5 474.9 491.3 468.7z"/></svg>