<svg xmlns="http://www.w3.org/2000/svg" viewBox="0 0 640 640"><!--! Font Awesome Pro 7.1.0 by @fontawesome - https://fontawesome.com License - https://fontawesome.com/license (Commercial License) Copyright 2025 Fonticons, Inc. --><path fill="currentColor" d="M128 112C128 103.2 120.8 96 112 96C103.2 96 96 103.2 96 112L96 480C96 515.3 124.7 544 160 544L528 544C536.8 544 544 536.8 544 528C544 519.2 536.8 512 528 512L160 512C142.3 512 128 497.7 128 480L128 112zM271 211.5C278.5 214.5 287.2 211.9 291.5 205C296.6 196.8 293.4 186 284.5 182.4C250.8 168.8 214.3 161 176 160L176 192C209.5 192.9 241.5 199.7 271 211.4zM434.9 348.5C428 352.8 425.5 361.5 428.4 369C440.1 398.5 446.9 430.5 447.8 464L479.8 464C478.8 425.7 471 389.2 457.4 355.5C453.8 346.5 443 343.4 434.8 348.5zM412.4 306C420.1 301.2 422.3 290.9 416.8 283.7C399.5 260.9 379.2 240.5 356.4 223.3C349.2 217.8 338.9 220 334.1 227.7C329.5 235 331.6 244.5 338.4 249.8C357.9 264.8 375.4 282.3 390.4 301.8C395.6 308.6 405.2 310.7 412.5 306.1z"/></svg>