<svg xmlns="http://www.w3.org/2000/svg" viewBox="0 0 640 640"><!--! Font Awesome Pro 7.1.0 by @fontawesome - https://fontawesome.com License - https://fontawesome.com/license (Commercial License) Copyright 2025 Fonticons, Inc. --><path fill="currentColor" d="M224 192C224 240.2 249.8 280.6 279 310.7C293.4 325.5 307.8 337.1 318.7 344.9L320 345.8L321.3 344.9C332.2 337.1 346.6 325.6 361 310.7C390.2 280.6 416 240.2 416 192C416 139 373 96 320 96C267 96 224 139 224 192zM276.1 352C239.1 319.9 192 264.8 192 192C192 121.3 249.3 64 320 64C390.7 64 448 121.3 448 192C448 264.8 400.9 319.9 363.9 352L464 352C472.8 352 480 359.2 480 368C480 376.8 472.8 384 464 384L336 384L336 560C336 568.8 328.8 576 320 576C311.2 576 304 568.8 304 560L304 384L176 384C167.2 384 160 376.8 160 368C160 359.2 167.2 352 176 352L276.1 352z"/></svg>