<svg xmlns="http://www.w3.org/2000/svg" viewBox="0 0 640 640"><!--! Font Awesome Pro 7.1.0 by @fontawesome - https://fontawesome.com License - https://fontawesome.com/license (Commercial License) Copyright 2025 Fonticons, Inc. --><path fill="currentColor" d="M560 96C568.8 96 576 103.2 576 112C576 120.8 568.8 128 560 128L512.7 128C508.6 128 504.8 130.4 502.9 134.1L489.9 160L496 160C557.8 160 608 210.2 608 272C608 307.3 579.3 336 544 336L472 336C457.3 336 443.5 332.3 431.3 326C431.7 329.3 432 332.6 432 336C432 340.1 431.6 344.1 431 348.1L518.6 406.5L524 410.4C536.1 420 545.2 433 550.2 447.8L575.3 523L576 526.2C576.9 533.6 572.5 540.8 565.2 543.3C557.9 545.8 550 542.6 546.3 536.1L545 533.1L519.9 457.9C516.9 449 511.5 441.2 504.2 435.5L501 433.2L419.6 378.9C417.3 382.5 414.7 385.9 411.8 389.1L445.7 423L449.7 427.3C458.7 437.7 464.9 450.3 467.6 463.9L479.8 524.9L480.1 528.1C480.1 535.5 474.8 542.2 467.2 543.7C459.6 545.2 452.2 541.1 449.3 534.3L448.4 531.2L436.2 470.2C434.6 462.1 430.9 454.5 425.5 448.3L423.1 445.7L385.9 408.5C375.7 413.3 364.4 416 352.5 416.1L352 417.4L286.1 535.9C281.8 543.6 272.1 546.4 264.4 542.1C256.7 537.8 253.9 528.1 258.2 520.3L319.9 409.2C307.5 403.7 296.6 395.2 288.5 384.5L204.4 535.9L202.5 538.6C197.7 544.2 189.3 545.9 182.6 542.2C175.9 538.5 172.9 530.5 175.1 523.4L176.4 520.4L240.3 405.3C225.7 412.3 209.4 416.2 192.1 416.2L190.3 416.2C190.3 417.8 190.1 419.4 189.6 421L188.3 424L126 536C121.7 543.7 112 546.5 104.3 542.2C96.6 537.9 93.7 527.9 98 520.2L155.9 416L112 416C67.8 416 32 380.2 32 336C32 256.5 96.5 192 176 192L192 192C243.9 192 287.4 227.3 300.2 275.1C314.2 263.2 332.2 256 352 256C363.9 256 375.2 258.7 385.4 263.4C384.5 258.4 384 253.3 384 248C384 205.9 413.5 170.8 453 162.1L474.2 119.8L477.3 114.6C485.3 103 498.4 96 512.7 96L560 96zM176 224C114.1 224 64 274.1 64 336C64 362.5 85.5 384 112 384L192 384C236.2 384 272 348.2 272 304C272 259.8 236.2 224 192 224L176 224zM352 288C325.5 288 304 309.5 304 336L304.2 340.9C306.7 365.1 327.1 384 352 384C378.5 384 400 362.5 400 336C400 309.5 378.5 288 352 288zM472 192C441.1 192 416 217.1 416 248C416 278.9 441.1 304 472 304L544 304C561.7 304 576 289.7 576 272C576 227.8 540.2 192 496 192L472 192zM488 272C474.7 272 464 261.3 464 248C464 234.7 474.7 224 488 224C501.3 224 512 234.7 512 248C512 261.3 501.3 272 488 272z"/></svg>