<svg xmlns="http://www.w3.org/2000/svg" viewBox="0 0 640 640"><!--! Font Awesome Pro 7.1.0 by @fontawesome - https://fontawesome.com License - https://fontawesome.com/license (Commercial License) Copyright 2025 Fonticons, Inc. --><path fill="currentColor" d="M160 128C160 92.7 188.7 64 224 64L416 64C451.3 64 480 92.7 480 128L480 256L544 256C579.3 256 608 284.7 608 320L608 512C608 547.3 579.3 576 544 576L96 576C60.7 576 32 547.3 32 512L32 224C32 188.7 60.7 160 96 160L160 160L160 128zM576 512L576 320C576 302.3 561.7 288 544 288L464 288C455.2 288 448 280.8 448 272L448 128C448 110.3 433.7 96 416 96L224 96C206.3 96 192 110.3 192 128L192 176C192 184.8 184.8 192 176 192L96 192C78.3 192 64 206.3 64 224L64 512C64 529.7 78.3 544 96 544L256 544L256 464C256 437.5 277.5 416 304 416L336 416C362.5 416 384 437.5 384 464L384 544L544 544C561.7 544 576 529.7 576 512zM352 544L352 464C352 455.2 344.8 448 336 448L304 448C295.2 448 288 455.2 288 464L288 544L352 544zM136 344L152 344C160.8 344 168 351.2 168 360L168 376C168 384.8 160.8 392 152 392L136 392C127.2 392 120 384.8 120 376L120 360C120 351.2 127.2 344 136 344zM120 264C120 255.2 127.2 248 136 248L152 248C160.8 248 168 255.2 168 264L168 280C168 288.8 160.8 296 152 296L136 296C127.2 296 120 288.8 120 280L120 264zM264 248L280 248C288.8 248 296 255.2 296 264L296 280C296 288.8 288.8 296 280 296L264 296C255.2 296 248 288.8 248 280L248 264C248 255.2 255.2 248 264 248zM344 264C344 255.2 351.2 248 360 248L376 248C384.8 248 392 255.2 392 264L392 280C392 288.8 384.8 296 376 296L360 296C351.2 296 344 288.8 344 280L344 264zM264 152L280 152C288.8 152 296 159.2 296 168L296 184C296 192.8 288.8 200 280 200L264 200C255.2 200 248 192.8 248 184L248 168C248 159.2 255.2 152 264 152zM344 168C344 159.2 351.2 152 360 152L376 152C384.8 152 392 159.2 392 168L392 184C392 192.8 384.8 200 376 200L360 200C351.2 200 344 192.8 344 184L344 168zM488 344L504 344C512.8 344 520 351.2 520 360L520 376C520 384.8 512.8 392 504 392L488 392C479.2 392 472 384.8 472 376L472 360C472 351.2 479.2 344 488 344z"/></svg>