<svg xmlns="http://www.w3.org/2000/svg" viewBox="0 0 640 640"><!--! Font Awesome Pro 7.1.0 by @fontawesome - https://fontawesome.com License - https://fontawesome.com/license (Commercial License) Copyright 2025 Fonticons, Inc. --><path fill="currentColor" d="M320 544C313.9 544 307.9 543.8 301.9 543.3L380 408L393.8 384.1C393.8 384.1 393.9 384 393.9 384L412.4 352L479.4 468.1L482.7 473.9C441.9 517.1 384.1 544 320 544zM393.9 256L534.7 256C540.7 276.3 544 297.8 544 320C544 367.3 529.4 411.1 504.3 447.3L426.2 312L412.5 288.3L412.4 288L393.9 256zM338.7 224L338.5 224L301.5 224L368.5 107.9L371.9 102.1C438.6 117.9 493.7 163.5 522.4 224L338.7 224zM320 96C326.1 96 332.1 96.2 338.1 96.7L260 232C251.5 246.7 240.8 265.3 227.7 288L227.7 288L160.7 171.9L157.4 166.1C198.1 122.9 255.9 96 320 96zM96 320C96 272.7 110.6 228.9 135.7 192.7C195.4 296.1 232.2 359.9 246.1 384L105.3 384C99.3 363.7 96 342.2 96 320zM268.1 537.9C201.4 522.1 146.3 476.5 117.6 416L338.5 416L271.4 532.1L268 537.9zM320 576C461.4 576 576 461.4 576 320C576 178.6 461.4 64 320 64C178.6 64 64 178.6 64 320C64 461.4 178.6 576 320 576zM366.1 368.1C360.4 377.9 349.8 384 338.4 384L301.4 384C290 384 279.4 377.9 273.7 368L255.2 336C249.5 326.1 249.5 313.9 255.2 304L273.7 272C279.4 262.1 289.9 256.1 301.2 256L338.5 256C349.8 256.1 360.2 262.1 365.9 271.8L384.6 304.2C390.2 314 390.2 326.1 384.6 335.9L384.5 336L366 368L365.9 368.1z"/></svg>