<svg xmlns="http://www.w3.org/2000/svg" viewBox="0 0 640 640"><!--! Font Awesome Pro 7.1.0 by @fontawesome - https://fontawesome.com License - https://fontawesome.com/license (Commercial License) Copyright 2025 Fonticons, Inc. --><path fill="currentColor" d="M302.7 384.1C293.9 384.8 287.4 392.6 288.1 401.4C288.8 410.2 296.6 416.8 305.4 416L313.4 415.3C371.4 410.5 416.1 361.9 416.1 303.7L416 160C416 124.7 387.3 96 352 96L288 96C252.7 96 224 124.7 224 160L224 224C224 259.3 252.7 288 288 288L352 288C363.7 288 374.6 284.9 384 279.4L384 303.6C384 345.2 352.1 379.9 310.6 383.3L302.6 384zM384 224C384 241.7 369.7 256 352 256L288 256C270.3 256 256 241.7 256 224L256 160C256 142.3 270.3 128 288 128L352 128C369.7 128 384 142.3 384 160L384 224z"/></svg>