<svg xmlns="http://www.w3.org/2000/svg" viewBox="0 0 640 640"><!--! Font Awesome Pro 7.1.0 by @fontawesome - https://fontawesome.com License - https://fontawesome.com/license (Commercial License) Copyright 2025 Fonticons, Inc. --><path fill="currentColor" d="M324.6 160L320 160L320 155.4C320 122.6 346.6 96 379.4 96L384 96L384 100.6C384 133.4 357.4 160 324.6 160zM306.3 192L324.6 192C375.1 192 416 151.1 416 100.6L416 82.3C416 72.2 407.8 64 397.7 64L379.4 64C328.9 64 288 104.9 288 155.4L288 173.7C288 183.8 296.2 192 306.3 192zM128 352C128 318.2 136 284.3 150.8 260C165 236.5 183.8 224 208 224C229 224 256.7 232.4 279.1 241.1C305.3 251.3 334.7 251.3 361 241.1C383.4 232.4 411.1 224 432.1 224C456.4 224 475.1 236.5 489.3 260C504 284.3 512.1 318.2 512.1 352C512.1 409.5 494.1 458.6 468.5 492.8C442.5 527.5 411.1 544 384.1 544C370.9 544 352.1 541.3 338.8 539C326.5 536.8 313.8 536.8 301.5 539C288.2 541.3 269.4 544 256.2 544C229.2 544 197.8 527.5 171.8 492.8C146.2 458.6 128.2 409.5 128.2 352zM256 576C272.2 576 293.4 572.8 306.8 570.5C315.5 569 324.4 569 333.1 570.5C346.6 572.9 367.7 576 383.9 576C463.9 576 543.9 480 543.9 352C543.9 275.7 508.2 192 431.9 192C404.6 192 372.2 202.3 349.2 211.3C330.4 218.6 309.3 218.6 290.5 211.3C267.6 202.4 235.1 192 207.8 192C131.5 192 95.8 275.7 95.8 352C95.8 480 175.8 576 255.8 576z"/></svg>