<svg xmlns="http://www.w3.org/2000/svg" viewBox="0 0 640 640"><!--! Font Awesome Pro 7.1.0 by @fontawesome - https://fontawesome.com License - https://fontawesome.com/license (Commercial License) Copyright 2025 Fonticons, Inc. --><path fill="currentColor" d="M324.7 160C357.5 160 384.1 133.4 384.1 100.6L384.1 96L379.5 96C346.7 96 320.1 122.6 320.1 155.4L320.1 160L324.7 160zM306.4 192C296.3 192 288.1 183.8 288.1 173.7L288.1 155.4C288.1 104.9 329.1 64 379.6 64L397.9 64C408 64 416.2 72.2 416.2 82.3L416.2 100.6C416.2 151.1 375.3 192 324.8 192L306.5 192zM256.1 544C269.3 544 288.1 541.3 301.4 539C313.7 536.8 326.4 536.8 338.7 539C352 541.3 370.8 544 384 544C403.7 544 425.8 535.2 446.6 516.7C408 479 384 426.3 384 368C384 312.4 405.8 261.9 441.3 224.6C438.3 224.2 435.2 224 432 224C411 224 383.3 232.4 360.9 241.1C334.7 251.3 305.3 251.3 279 241.1C256.6 232.4 228.9 224 207.9 224C204.7 224 201.6 224.2 198.6 224.6C234.1 261.9 255.9 312.4 255.9 368C255.9 426.3 231.9 479 193.3 516.7C214.1 535.2 236.2 544 255.9 544zM158 526.4C151.8 519.6 153.6 509.1 160.7 503.3C199.5 471 224.1 422.4 224.1 368C224.1 312.6 198.5 263.3 158.6 231C150.6 224.5 149.3 212.3 157.9 206.7C172.1 197.4 188.8 192 208.2 192C235.5 192 267.9 202.3 290.9 211.3C309.7 218.6 330.8 218.6 349.6 211.3C372.5 202.4 405 192 432.3 192C451.6 192 468.4 197.4 482.6 206.7C491.2 212.3 489.9 224.6 481.9 231C441.9 263.3 416.4 312.7 416.4 368C416.4 422.4 441.1 471 479.8 503.3C486.8 509.2 488.6 519.6 482.5 526.4C454.2 557.7 419.3 576 384.4 576C368.2 576 347 572.8 333.5 570.5C324.8 569 315.9 569 307.2 570.5C293.7 572.9 272.6 576 256.4 576C221.5 576 186.6 557.7 158.3 526.4z"/></svg>