<svg xmlns="http://www.w3.org/2000/svg" viewBox="0 0 640 640"><!--! Font Awesome Pro 7.1.0 by @fontawesome - https://fontawesome.com License - https://fontawesome.com/license (Commercial License) Copyright 2025 Fonticons, Inc. --><path fill="currentColor" d="M80 96C71.2 96 64 103.2 64 112C64 120.8 71.2 128 80 128L96 128L96 512L80 512C71.2 512 64 519.2 64 528C64 536.8 71.2 544 80 544L232 544C240.8 544 248 536.8 248 528L248 424C248 384.2 280.2 352 320 352C359.8 352 392 384.2 392 424L392 528C392 536.8 399.2 544 408 544L560 544C568.8 544 576 536.8 576 528C576 519.2 568.8 512 560 512L544 512L544 128L560 128C568.8 128 576 120.8 576 112C576 103.2 568.8 96 560 96L80 96zM512 128L512 192L128 192L128 128L512 128zM512 224L512 512L424 512L424 424C424 366.6 377.4 320 320 320C262.6 320 216 366.6 216 424L216 512L128 512L128 224L512 224z"/></svg>