<svg xmlns="http://www.w3.org/2000/svg" viewBox="0 0 640 640"><!--! Font Awesome Pro 7.1.0 by @fontawesome - https://fontawesome.com License - https://fontawesome.com/license (Commercial License) Copyright 2025 Fonticons, Inc. --><path fill="currentColor" d="M96 112C96 103.2 88.8 96 80 96C71.2 96 64 103.2 64 112L64 464C64 508.2 99.8 544 144 544L560 544C568.8 544 576 536.8 576 528C576 519.2 568.8 512 560 512L144 512C117.5 512 96 490.5 96 464L96 112zM369.2 266.9C375.1 273.3 383.4 277.1 392.1 277.3C400.8 277.5 409.3 274.1 415.4 267.9L456 227.3L512 283.3L512 416L192 416L192 318L304 195.8L369.2 266.9zM392.8 245.3C383 234.6 359.3 208.8 321.7 167.8C317.2 162.8 310.7 160 304 160C297.3 160 290.9 162.8 286.3 167.8L166.3 298.7C162.2 303.1 160 308.9 160 314.9L160 424C160 437.3 170.7 448 184 448L520 448C533.3 448 544 437.3 544 424L544 280C544 273.6 541.5 267.5 537 263L473 199C463.6 189.6 448.4 189.6 439.1 199C423.2 214.9 407.8 230.3 392.8 245.3z"/></svg>