<svg xmlns="http://www.w3.org/2000/svg" viewBox="0 0 640 640"><!--! Font Awesome Pro 7.1.0 by @fontawesome - https://fontawesome.com License - https://fontawesome.com/license (Commercial License) Copyright 2025 Fonticons, Inc. --><path fill="currentColor" d="M331.3 36.7C325.1 30.5 314.9 30.5 308.7 36.7L228.7 116.7C222.5 122.9 222.5 133.1 228.7 139.3C234.9 145.5 245.1 145.5 251.3 139.3L304 86.6L304 240C304 248.8 311.2 256 320 256C328.8 256 336 248.8 336 240L336 86.6L388.7 139.3C394.9 145.5 405.1 145.5 411.3 139.3C417.5 133.1 417.5 122.9 411.3 116.7L331.3 36.7zM411.3 523.3C417.5 517.1 417.5 506.9 411.3 500.7C405.1 494.5 394.9 494.5 388.7 500.7L336 553.4L336 400C336 391.2 328.8 384 320 384C311.2 384 304 391.2 304 400L304 553.4L251.3 500.7C245.1 494.5 234.9 494.5 228.7 500.7C222.5 506.9 222.5 517.1 228.7 523.3L308.7 603.3C314.9 609.5 325.1 609.5 331.3 603.3L411.3 523.3zM128 320C128 333.3 138.7 344 152 344C165.3 344 176 333.3 176 320C176 306.7 165.3 296 152 296C138.7 296 128 306.7 128 320zM264 296C250.7 296 240 306.7 240 320C240 333.3 250.7 344 264 344C277.3 344 288 333.3 288 320C288 306.7 277.3 296 264 296zM352 320C352 333.3 362.7 344 376 344C389.3 344 400 333.3 400 320C400 306.7 389.3 296 376 296C362.7 296 352 306.7 352 320zM488 296C474.7 296 464 306.7 464 320C464 333.3 474.7 344 488 344C501.3 344 512 333.3 512 320C512 306.7 501.3 296 488 296z"/></svg>