<svg xmlns="http://www.w3.org/2000/svg" viewBox="0 0 640 640"><!--! Font Awesome Pro 7.1.0 by @fontawesome - https://fontawesome.com License - https://fontawesome.com/license (Commercial License) Copyright 2025 Fonticons, Inc. --><path fill="currentColor" d="M320 96C443.7 96 544 196.3 544 320C544 328.8 551.2 336 560 336C568.8 336 576 328.8 576 320C576 178.6 461.4 64 320 64C178.6 64 64 178.6 64 320C64 328.8 71.2 336 80 336C88.8 336 96 328.8 96 320C96 196.3 196.3 96 320 96zM443.3 340.7L331.3 228.7C325.1 222.5 314.9 222.5 308.7 228.7L196.7 340.7C190.5 346.9 190.5 357.1 196.7 363.3C202.9 369.5 213.1 369.5 219.3 363.3L304 278.6L304 560C304 568.8 311.2 576 320 576C328.8 576 336 568.8 336 560L336 278.6L420.7 363.3C426.9 369.5 437.1 369.5 443.3 363.3C449.5 357.1 449.5 346.9 443.3 340.7z"/></svg>