<svg xmlns="http://www.w3.org/2000/svg" viewBox="0 0 640 640"><!--! Font Awesome Pro 7.1.0 by @fontawesome - https://fontawesome.com License - https://fontawesome.com/license (Commercial License) Copyright 2025 Fonticons, Inc. --><path fill="currentColor" d="M336 48C336 39.2 328.8 32 320 32C311.2 32 304 39.2 304 48L304 361.4L251.3 308.7C245.1 302.5 234.9 302.5 228.7 308.7C222.5 314.9 222.5 325.1 228.7 331.3L308.7 411.3C314.9 417.5 325.1 417.5 331.3 411.3L411.3 331.3C417.5 325.1 417.5 314.9 411.3 308.7C405.1 302.5 394.9 302.5 388.7 308.7L336 361.4L336 48zM128 224C128 206.3 142.3 192 160 192L208 192C216.8 192 224 184.8 224 176C224 167.2 216.8 160 208 160L160 160C124.7 160 96 188.7 96 224L96 512C96 547.3 124.7 576 160 576L480 576C515.3 576 544 547.3 544 512L544 224C544 188.7 515.3 160 480 160L432 160C423.2 160 416 167.2 416 176C416 184.8 423.2 192 432 192L480 192C497.7 192 512 206.3 512 224L512 512C512 529.7 497.7 544 480 544L160 544C142.3 544 128 529.7 128 512L128 224z"/></svg>