<svg xmlns="http://www.w3.org/2000/svg" viewBox="0 0 640 640"><!--! Font Awesome Pro 7.1.0 by @fontawesome - https://fontawesome.com License - https://fontawesome.com/license (Commercial License) Copyright 2025 Fonticons, Inc. --><path fill="currentColor" d="M196.7 491.3L308.7 603.3C314.9 609.5 325.1 609.5 331.3 603.3L443.3 491.3C449.5 485.1 449.5 474.9 443.3 468.7C437.1 462.5 426.9 462.5 420.7 468.7L336 553.4L336 86.7L420.7 171.4C426.9 177.6 437.1 177.6 443.3 171.4C449.5 165.2 449.5 155 443.3 148.8L331.3 36.8C328.3 33.8 324.2 32.1 320 32.1C315.8 32.1 311.7 33.8 308.7 36.8L196.7 148.7C190.5 154.9 190.5 165.1 196.7 171.3C202.9 177.5 213.1 177.5 219.3 171.3L304 86.6L304 553.3L219.3 468.6C213.1 462.4 202.9 462.4 196.7 468.6C190.5 474.8 190.5 485 196.7 491.2z"/></svg>