<svg xmlns="http://www.w3.org/2000/svg" viewBox="0 0 640 640"><!--! Font Awesome Pro 7.1.0 by @fontawesome - https://fontawesome.com License - https://fontawesome.com/license (Commercial License) Copyright 2025 Fonticons, Inc. --><path fill="currentColor" d="M548.7 436.7L464 521.4L464 80C464 71.2 456.8 64 448 64C439.2 64 432 71.2 432 80L432 521.4L347.3 436.7C341.1 430.5 330.9 430.5 324.7 436.7C318.5 442.9 318.5 453.1 324.7 459.3L436.7 571.3C442.9 577.5 453.1 577.5 459.3 571.3L571.3 459.3C577.5 453.1 577.5 442.9 571.3 436.7C565.1 430.5 554.9 430.5 548.7 436.7zM292.7 203.3C298.9 209.5 309.1 209.5 315.3 203.3C321.5 197.1 321.5 186.9 315.3 180.7L203.3 68.7C197.1 62.5 186.9 62.5 180.7 68.7L68.7 180.7C62.5 186.9 62.5 197.1 68.7 203.3C74.9 209.5 85.1 209.5 91.3 203.3L176 118.6L176 560C176 568.8 183.2 576 192 576C200.8 576 208 568.8 208 560L208 118.6L292.7 203.3z"/></svg>