<svg xmlns="http://www.w3.org/2000/svg" viewBox="0 0 640 640"><!--! Font Awesome Pro 7.1.0 by @fontawesome - https://fontawesome.com License - https://fontawesome.com/license (Commercial License) Copyright 2025 Fonticons, Inc. --><path fill="currentColor" d="M496 576C504.8 576 512 568.8 512 560C512 551.2 504.8 544 496 544L144 544C135.2 544 128 551.2 128 560C128 568.8 135.2 576 144 576L496 576zM308.7 443.3C314.9 449.5 325.1 449.5 331.3 443.3L475.3 299.3C481.5 293.1 481.5 282.9 475.3 276.7C469.1 270.5 458.9 270.5 452.7 276.7L336 393.4L336 80C336 71.2 328.8 64 320 64C311.2 64 304 71.2 304 80L304 393.4L187.3 276.7C181.1 270.5 170.9 270.5 164.7 276.7C158.5 282.9 158.5 293.1 164.7 299.3L308.7 443.3z"/></svg>