<svg xmlns="http://www.w3.org/2000/svg" viewBox="0 0 640 640"><!--! Font Awesome Pro 7.1.0 by @fontawesome - https://fontawesome.com License - https://fontawesome.com/license (Commercial License) Copyright 2025 Fonticons, Inc. --><path fill="currentColor" d="M544 144C544 135.2 551.2 128 560 128C568.8 128 576 135.2 576 144L576 496C576 504.8 568.8 512 560 512C551.2 512 544 504.8 544 496L544 144zM68.7 331.3C62.5 325.1 62.5 314.9 68.7 308.7L212.7 164.7C218.9 158.5 229.1 158.5 235.3 164.7C241.5 170.9 241.5 181.1 235.3 187.3L118.6 304L432 304C440.8 304 448 311.2 448 320C448 328.8 440.8 336 432 336L118.6 336L235.3 452.7C241.5 458.9 241.5 469.1 235.3 475.3C229.1 481.5 218.9 481.5 212.7 475.3L68.7 331.3z"/></svg>