<svg xmlns="http://www.w3.org/2000/svg" viewBox="0 0 640 640"><!--! Font Awesome Pro 7.1.0 by @fontawesome - https://fontawesome.com License - https://fontawesome.com/license (Commercial License) Copyright 2025 Fonticons, Inc. --><path fill="currentColor" d="M240 64L80 64C71.2 64 64 71.2 64 80L64 240C64 248.8 71.2 256 80 256C88.8 256 96 248.8 96 240L96 118.6L364.7 387.3C370.9 393.5 381.1 393.5 387.3 387.3C393.5 381.1 393.5 370.9 387.3 364.7L118.6 96L240 96C248.8 96 256 88.8 256 80C256 71.2 248.8 64 240 64zM352 128C343.2 128 336 135.2 336 144C336 152.8 343.2 160 352 160C458 160 544 246 544 352C544 458 458 544 352 544C246 544 160 458 160 352C160 343.2 152.8 336 144 336C135.2 336 128 343.2 128 352C128 475.7 228.3 576 352 576C475.7 576 576 475.7 576 352C576 228.3 475.7 128 352 128z"/></svg>