<svg xmlns="http://www.w3.org/2000/svg" viewBox="0 0 640 640"><!--! Font Awesome Pro 7.1.0 by @fontawesome - https://fontawesome.com License - https://fontawesome.com/license (Commercial License) Copyright 2025 Fonticons, Inc. --><path fill="currentColor" d="M299.3 475.3L203.3 571.3C197.1 577.5 186.9 577.5 180.7 571.3L84.7 475.3C78.5 469.1 78.5 458.9 84.7 452.7C90.9 446.5 101.1 446.5 107.3 452.7L176 521.4L176 336L88 336C79.2 336 72 328.8 72 320C72 311.2 79.2 304 88 304L368 304L368 118.6L299.3 187.3C293.1 193.5 282.9 193.5 276.7 187.3C270.5 181.1 270.5 170.9 276.7 164.7L372.7 68.7C378.9 62.5 389.1 62.5 395.3 68.7L491.3 164.7C497.5 170.9 497.5 181.1 491.3 187.3C485.1 193.5 474.9 193.5 468.7 187.3L400 118.6L400 283.3C386.9 298.2 377.1 316.1 372 336L208 336L208 521.4L276.7 452.7C282.9 446.5 293.1 446.5 299.3 452.7C305.5 458.9 305.5 469.1 299.3 475.3zM208 80L208 256L176 256L176 80C176 71.2 183.2 64 192 64C200.8 64 208 71.2 208 80zM416 416.1L416 368.1C416 323.9 451.8 288.1 496 288.1C540.2 288.1 576 323.9 576 368.1L576 418.7C594.6 425.3 608 443.1 608 464L608 560C608 586.5 586.5 608 560 608L432 608C405.5 608 384 586.5 384 560L384 464C384 443.1 397.4 425.3 416 418.7L416 416.1zM416 464L416 560C416 568.8 423.2 576 432 576L560 576C568.8 576 576 568.8 576 560L576 464C576 455.8 569.8 449 561.7 448.1L430.2 448.1C422.2 449 415.9 455.8 415.9 464zM544 368.1C544 341.6 522.5 320.1 496 320.1C469.5 320.1 448 341.6 448 368.1L448 416L544 416L544 368.1z"/></svg>