<svg xmlns="http://www.w3.org/2000/svg" viewBox="0 0 640 640"><!--! Font Awesome Pro 7.1.0 by @fontawesome - https://fontawesome.com License - https://fontawesome.com/license (Commercial License) Copyright 2025 Fonticons, Inc. --><path fill="currentColor" d="M400 464C400 472.8 407.2 480 416 480L592 480C600.8 480 608 472.8 608 464L608 288C608 279.2 600.8 272 592 272C583.2 272 576 279.2 576 288L576 425.4L363.3 212.7C357.1 206.5 346.9 206.5 340.7 212.7L224 329.4L59.3 164.7C53.1 158.5 42.9 158.5 36.7 164.7C30.5 170.9 30.5 181.1 36.7 187.3L212.7 363.3C218.9 369.5 229.1 369.5 235.3 363.3L352 246.6L553.4 448L416 448C407.2 448 400 455.2 400 464z"/></svg>