<svg xmlns="http://www.w3.org/2000/svg" viewBox="0 0 640 640"><!--! Font Awesome Pro 7.1.0 by @fontawesome - https://fontawesome.com License - https://fontawesome.com/license (Commercial License) Copyright 2025 Fonticons, Inc. --><path fill="currentColor" d="M316 319.9C305.9 319.9 296.4 324.6 290.4 332.7L192 463.9L192 103.9L480 319.8L316 319.8zM198.4 68.8C191.1 63.3 181.4 62.5 173.3 66.5C165.2 70.5 160 78.9 160 88L160 488C160 498.3 166.6 507.5 176.4 510.8C186.2 514.1 197 510.7 203.2 502.4L305.3 366.3L405.7 567.2C409.7 575.1 419.3 578.3 427.2 574.4C435.1 570.5 438.3 560.8 434.4 552.9L334 352L504.2 352C514.5 352 523.7 345.4 527 335.6C530.3 325.8 526.9 315 518.6 308.8L198.4 68.8z"/></svg>