<svg xmlns="http://www.w3.org/2000/svg" viewBox="0 0 640 640"><!--! Font Awesome Pro 7.1.0 by @fontawesome - https://fontawesome.com License - https://fontawesome.com/license (Commercial License) Copyright 2025 Fonticons, Inc. --><path fill="currentColor" d="M64 176L64 464C64 472.8 56.8 480 48 480C39.2 480 32 472.8 32 464L32 176C32 167.2 39.2 160 48 160C56.8 160 64 167.2 64 176zM608 176L608 464C608 472.8 600.8 480 592 480C583.2 480 576 472.8 576 464L576 176C576 167.2 583.2 160 592 160C600.8 160 608 167.2 608 176zM507.3 331.3L427.3 411.3C421.1 417.5 410.9 417.5 404.7 411.3C398.5 405.1 398.5 394.9 404.7 388.7L457.4 336L182.7 336L235.4 388.7C241.6 394.9 241.6 405.1 235.4 411.3C229.2 417.5 219 417.5 212.8 411.3L132.8 331.3C129.8 328.3 128.1 324.2 128.1 320C128.1 315.8 129.8 311.7 132.8 308.7L212.8 228.7C219 222.5 229.2 222.5 235.4 228.7C241.6 234.9 241.6 245.1 235.4 251.3L182.7 304L457.4 304L404.7 251.3C398.5 245.1 398.5 234.9 404.7 228.7C410.9 222.5 421.1 222.5 427.3 228.7L507.3 308.7C513.5 314.9 513.5 325.1 507.3 331.3z"/></svg>