<svg xmlns="http://www.w3.org/2000/svg" viewBox="0 0 640 640"><!--! Font Awesome Pro 7.1.0 by @fontawesome - https://fontawesome.com License - https://fontawesome.com/license (Commercial License) Copyright 2025 Fonticons, Inc. --><path fill="currentColor" d="M400 176C400 167.2 407.2 160 416 160L592 160C600.8 160 608 167.2 608 176L608 352C608 360.8 600.8 368 592 368C583.2 368 576 360.8 576 352L576 214.6L363.3 427.3C357.1 433.5 346.9 433.5 340.7 427.3L224 310.6L59.3 475.3C53.1 481.5 42.9 481.5 36.7 475.3C30.5 469.1 30.5 458.9 36.7 452.7L212.7 276.7C218.9 270.5 229.1 270.5 235.3 276.7L352 393.4L553.4 192L416 192C407.2 192 400 184.8 400 176z"/></svg>