<svg xmlns="http://www.w3.org/2000/svg" viewBox="0 0 640 640"><!--! Font Awesome Pro 7.1.0 by @fontawesome - https://fontawesome.com License - https://fontawesome.com/license (Commercial License) Copyright 2025 Fonticons, Inc. --><path fill="currentColor" d="M68.7 308.7C62.5 314.9 62.5 325.1 68.7 331.3L212.7 475.3C218.9 481.5 229.1 481.5 235.3 475.3C241.5 469.1 241.5 458.9 235.3 452.7L118.6 336L432 336C440.8 336 448 328.8 448 320C448 311.2 440.8 304 432 304L118.6 304L235.3 187.3C241.5 181.1 241.5 170.9 235.3 164.7C229.1 158.5 218.9 158.5 212.7 164.7L68.7 308.7zM552 128C538.7 128 528 138.7 528 152C528 165.3 538.7 176 552 176C565.3 176 576 165.3 576 152C576 138.7 565.3 128 552 128zM528 264C528 277.3 538.7 288 552 288C565.3 288 576 277.3 576 264C576 250.7 565.3 240 552 240C538.7 240 528 250.7 528 264zM552 352C538.7 352 528 362.7 528 376C528 389.3 538.7 400 552 400C565.3 400 576 389.3 576 376C576 362.7 565.3 352 552 352zM528 488C528 501.3 538.7 512 552 512C565.3 512 576 501.3 576 488C576 474.7 565.3 464 552 464C538.7 464 528 474.7 528 488z"/></svg>