<svg xmlns="http://www.w3.org/2000/svg" viewBox="0 0 640 640"><!--! Font Awesome Pro 7.1.0 by @fontawesome - https://fontawesome.com License - https://fontawesome.com/license (Commercial License) Copyright 2025 Fonticons, Inc. --><path fill="currentColor" d="M475.3 372.7L331.3 228.7C325.1 222.5 314.9 222.5 308.7 228.7L164.7 372.7C158.5 378.9 158.5 389.1 164.7 395.3C170.9 401.5 181.1 401.5 187.3 395.3L304 278.6L304 560C304 568.8 311.2 576 320 576C328.8 576 336 568.8 336 560L336 278.6L452.7 395.3C458.9 401.5 469.1 401.5 475.3 395.3C481.5 389.1 481.5 378.9 475.3 372.7zM128 240L128 160C128 124.7 156.7 96 192 96L448 96C483.3 96 512 124.7 512 160L512 240C512 248.8 519.2 256 528 256C536.8 256 544 248.8 544 240L544 160C544 107 501 64 448 64L192 64C139 64 96 107 96 160L96 240C96 248.8 103.2 256 112 256C120.8 256 128 248.8 128 240z"/></svg>