<svg xmlns="http://www.w3.org/2000/svg" viewBox="0 0 640 640"><!--! Font Awesome Pro 7.1.0 by @fontawesome - https://fontawesome.com License - https://fontawesome.com/license (Commercial License) Copyright 2025 Fonticons, Inc. --><path fill="currentColor" d="M544 320C544 196.3 443.7 96 320 96C311.2 96 304 88.8 304 80C304 71.2 311.2 64 320 64C461.4 64 576 178.6 576 320C576 461.4 461.4 576 320 576C311.2 576 304 568.8 304 560C304 551.2 311.2 544 320 544C443.7 544 544 443.7 544 320zM180.7 196.7C186.9 190.5 197.1 190.5 203.3 196.7C209.5 202.9 209.5 213.1 203.3 219.3L118.6 304L400 304C408.8 304 416 311.2 416 320C416 328.8 408.8 336 400 336L118.6 336L203.3 420.7C209.5 426.9 209.5 437.1 203.3 443.3C197.1 449.5 186.9 449.5 180.7 443.3L68.7 331.3C62.5 325.1 62.5 314.9 68.7 308.7L180.7 196.7z"/></svg>