<svg xmlns="http://www.w3.org/2000/svg" viewBox="0 0 640 640"><!--! Font Awesome Pro 7.1.0 by @fontawesome - https://fontawesome.com License - https://fontawesome.com/license (Commercial License) Copyright 2025 Fonticons, Inc. --><path fill="currentColor" d="M539.3 148.7C545.5 154.9 545.5 165.1 539.3 171.3L443.3 267.3C437.1 273.5 426.9 273.5 420.7 267.3C414.5 261.1 414.5 250.9 420.7 244.7L489.4 176L256 176C167.6 176 96 247.6 96 336C96 344.8 88.8 352 80 352C71.2 352 64 344.8 64 336C64 230 150 144 256 144L489.4 144L420.7 75.3C414.5 69.1 414.5 58.9 420.7 52.7C426.9 46.5 437.1 46.5 443.3 52.7L539.3 148.7zM100.7 491.3C94.5 485.1 94.5 474.9 100.7 468.7L196.7 372.7C202.9 366.5 213.1 366.5 219.3 372.7C225.5 378.9 225.5 389.1 219.3 395.3L150.6 464L384 464C472.4 464 544 392.4 544 304C544 295.2 551.2 288 560 288C568.8 288 576 295.2 576 304C576 410 490 496 384 496L150.6 496L219.3 564.7C225.5 570.9 225.5 581.1 219.3 587.3C213.1 593.5 202.9 593.5 196.7 587.3L100.7 491.3zM352 272L352 368C352 376.8 344.8 384 336 384C327.2 384 320 376.8 320 368L320 304L313.6 308.8C306.5 314.1 296.5 312.7 291.2 305.6C285.9 298.5 287.3 288.5 294.4 283.2L326.4 259.2C331.2 255.6 337.7 255 343.2 257.7C348.7 260.4 352 266 352 272z"/></svg>