<svg xmlns="http://www.w3.org/2000/svg" viewBox="0 0 640 640"><!--! Font Awesome Pro 7.1.0 by @fontawesome - https://fontawesome.com License - https://fontawesome.com/license (Commercial License) Copyright 2025 Fonticons, Inc. --><path fill="currentColor" d="M128 80C128 88.8 135.2 96 144 96L496 96C504.8 96 512 88.8 512 80C512 71.2 504.8 64 496 64L144 64C135.2 64 128 71.2 128 80zM337 199C327.6 189.6 312.4 189.6 303.1 199L159 343C152.1 349.9 150.1 360.2 153.8 369.2C157.5 378.2 166.3 384 176 384L256 384L256 448L256 448L256 528C256 554.5 277.5 576 304 576L336 576C362.5 576 384 554.5 384 528L384 384L464 384C473.7 384 482.5 378.2 486.2 369.2C489.9 360.2 487.9 349.9 481 343L337 199zM352 448L352 528C352 536.8 344.8 544 336 544L304 544C295.2 544 288 536.8 288 528L288 448L288 448L288 368C288 359.2 280.8 352 272 352L195.3 352L320 227.3L444.7 352L368 352C359.2 352 352 359.2 352 368L352 448z"/></svg>