<svg xmlns="http://www.w3.org/2000/svg" viewBox="0 0 640 640"><!--! Font Awesome Pro 7.1.0 by @fontawesome - https://fontawesome.com License - https://fontawesome.com/license (Commercial License) Copyright 2025 Fonticons, Inc. --><path fill="currentColor" d="M548.7 203.3C554.9 209.5 565.1 209.5 571.3 203.3C577.5 197.1 577.5 186.9 571.3 180.7L459.3 68.7C453.1 62.5 442.9 62.5 436.7 68.7L324.7 180.7C318.5 186.9 318.5 197.1 324.7 203.3C330.9 209.5 341.1 209.5 347.3 203.3L432 118.6L432 560C432 568.8 439.2 576 448 576C456.8 576 464 568.8 464 560L464 118.6L548.7 203.3zM292.7 436.7L208 521.4L208 80C208 71.2 200.8 64 192 64C183.2 64 176 71.2 176 80L176 521.4L91.3 436.7C85.1 430.5 74.9 430.5 68.7 436.7C62.5 442.9 62.5 453.1 68.7 459.3L180.7 571.3C186.9 577.5 197.1 577.5 203.3 571.3L315.3 459.3C321.5 453.1 321.5 442.9 315.3 436.7C309.1 430.5 298.9 430.5 292.7 436.7z"/></svg>