<svg xmlns="http://www.w3.org/2000/svg" viewBox="0 0 640 640"><!--! Font Awesome Pro 7.1.0 by @fontawesome - https://fontawesome.com License - https://fontawesome.com/license (Commercial License) Copyright 2025 Fonticons, Inc. --><path fill="currentColor" d="M356.7 68.7C362.9 62.5 373.1 62.5 379.3 68.7C385.5 74.9 385.5 85.1 379.3 91.3L326.6 144L448 144C501 144 544 187 544 240L544 272C544 280.8 536.8 288 528 288C519.2 288 512 280.8 512 272L512 240C512 204.7 483.3 176 448 176L326.6 176L379.3 228.7C385.5 234.9 385.5 245.1 379.3 251.3C373.1 257.5 362.9 257.5 356.7 251.3L276.7 171.3C270.5 165.1 270.5 154.9 276.7 148.7L356.7 68.7zM283.3 340.7L363.3 420.7C369.5 426.9 369.5 437.1 363.3 443.3L283.3 523.3C277.1 529.5 266.9 529.5 260.7 523.3C254.5 517.1 254.5 506.9 260.7 500.7L313.4 448L192 448C156.7 448 128 476.7 128 512L128 544C128 552.8 120.8 560 112 560C103.2 560 96 552.8 96 544L96 512C96 459 139 416 192 416L313.4 416L260.7 363.3C254.5 357.1 254.5 346.9 260.7 340.7C266.9 334.5 277.1 334.5 283.3 340.7zM480 464C497.7 464 512 449.7 512 432C512 414.3 497.7 400 480 400C462.3 400 448 414.3 448 432C448 449.7 462.3 464 480 464zM480 368C515.3 368 544 396.7 544 432C544 467.3 515.3 496 480 496C444.7 496 416 467.3 416 432C416 396.7 444.7 368 480 368zM128 160C128 177.7 142.3 192 160 192C177.7 192 192 177.7 192 160C192 142.3 177.7 128 160 128C142.3 128 128 142.3 128 160zM224 160C224 195.3 195.3 224 160 224C124.7 224 96 195.3 96 160C96 124.7 124.7 96 160 96C195.3 96 224 124.7 224 160z"/></svg>