<svg xmlns="http://www.w3.org/2000/svg" viewBox="0 0 640 640"><!--! Font Awesome Pro 7.1.0 by @fontawesome - https://fontawesome.com License - https://fontawesome.com/license (Commercial License) Copyright 2025 Fonticons, Inc. --><path fill="currentColor" d="M400 96C391.2 96 384 103.2 384 112C384 120.8 391.2 128 400 128L489.4 128L320 297.4L150.6 128L240 128C248.8 128 256 120.8 256 112C256 103.2 248.8 96 240 96L112 96C103.2 96 96 103.2 96 112L96 240C96 248.8 103.2 256 112 256C120.8 256 128 248.8 128 240L128 150.6L297.4 320L128 489.4L128 400C128 391.2 120.8 384 112 384C103.2 384 96 391.2 96 400L96 528C96 536.8 103.2 544 112 544L240 544C248.8 544 256 536.8 256 528C256 519.2 248.8 512 240 512L150.6 512L320 342.6L489.4 512L400 512C391.2 512 384 519.2 384 528C384 536.8 391.2 544 400 544L528 544C536.8 544 544 536.8 544 528L544 400C544 391.2 536.8 384 528 384C519.2 384 512 391.2 512 400L512 489.4L342.6 320L512 150.6L512 240C512 248.8 519.2 256 528 256C536.8 256 544 248.8 544 240L544 112C544 103.2 536.8 96 528 96L400 96z"/></svg>