<svg xmlns="http://www.w3.org/2000/svg" viewBox="0 0 640 640"><!--! Font Awesome Pro 7.1.0 by @fontawesome - https://fontawesome.com License - https://fontawesome.com/license (Commercial License) Copyright 2025 Fonticons, Inc. --><path fill="currentColor" d="M64 192C64 187.8 65.7 183.7 68.7 180.7L196.7 52.7C202.9 46.5 213.1 46.5 219.3 52.7C225.5 58.9 225.5 69.1 219.3 75.3L118.6 176L392 176C493.6 176 576 258.4 576 360C576 461.6 493.6 544 392 544L144 544L140.8 543.7C133.5 542.2 128 535.7 128 528C128 520.3 133.5 513.8 140.8 512.3L144 512L392 512C475.9 512 544 443.9 544 360C544 276.1 476 208 392 208L118.6 208L219.3 308.7L221.4 311.2C225.5 317.4 224.8 325.9 219.3 331.3C213.8 336.7 205.4 337.5 199.2 333.4L196.7 331.3L68.7 203.3C65.7 200.3 64 196.2 64 192z"/></svg>