<svg xmlns="http://www.w3.org/2000/svg" viewBox="0 0 640 640"><!--! Font Awesome Pro 7.1.0 by @fontawesome - https://fontawesome.com License - https://fontawesome.com/license (Commercial License) Copyright 2025 Fonticons, Inc. --><path fill="currentColor" d="M411.3 331.3C417.5 325.1 417.5 314.9 411.3 308.7L267.3 164.7C261.1 158.5 250.9 158.5 244.7 164.7C238.5 170.9 238.5 181.1 244.7 187.3L361.4 304L80 304C71.2 304 64 311.2 64 320C64 328.8 71.2 336 80 336L361.4 336L244.7 452.7C238.5 458.9 238.5 469.1 244.7 475.3C250.9 481.5 261.1 481.5 267.3 475.3L411.3 331.3zM400 512C391.2 512 384 519.2 384 528C384 536.8 391.2 544 400 544L480 544C533 544 576 501 576 448L576 192C576 139 533 96 480 96L400 96C391.2 96 384 103.2 384 112C384 120.8 391.2 128 400 128L480 128C515.3 128 544 156.7 544 192L544 448C544 483.3 515.3 512 480 512L400 512z"/></svg>