<svg xmlns="http://www.w3.org/2000/svg" viewBox="0 0 640 640"><!--! Font Awesome Pro 7.1.0 by @fontawesome - https://fontawesome.com License - https://fontawesome.com/license (Commercial License) Copyright 2025 Fonticons, Inc. --><path fill="currentColor" d="M144 64C135.2 64 128 71.2 128 80C128 88.8 135.2 96 144 96L496 96C504.8 96 512 88.8 512 80C512 71.2 504.8 64 496 64L144 64zM331.3 196.7C325.1 190.5 314.9 190.5 308.7 196.7L164.7 340.7C158.5 346.9 158.5 357.1 164.7 363.3C170.9 369.5 181.1 369.5 187.3 363.3L304 246.6L304 560C304 568.8 311.2 576 320 576C328.8 576 336 568.8 336 560L336 246.6L452.7 363.3C458.9 369.5 469.1 369.5 475.3 363.3C481.5 357.1 481.5 346.9 475.3 340.7L331.3 196.7z"/></svg>