<svg xmlns="http://www.w3.org/2000/svg" viewBox="0 0 640 640"><!--! Font Awesome Pro 7.1.0 by @fontawesome - https://fontawesome.com License - https://fontawesome.com/license (Commercial License) Copyright 2025 Fonticons, Inc. --><path fill="currentColor" d="M130.4 148.1L87.2 104.9C80.3 98 78.3 87.7 82 78.7C85.7 69.7 94.4 64 104.1 64L216.1 64C229.4 64 240.1 74.7 240.1 88L240.1 200.1C240.1 209.8 234.3 218.6 225.3 222.3C216.3 226 206 224 199.1 217.1L153 170.8C117.6 210.4 96.1 262.7 96.1 320C96.1 325 96.3 330 96.6 335C97.2 343.8 90.5 351.4 81.7 352C72.9 352.6 65.2 345.9 64.7 337C64.3 331.4 64.1 325.7 64.1 320C64.1 253.9 89.2 193.6 130.4 148.1zM123.5 96L208.2 180.8L208.2 96L123.5 96zM320.1 96C315.1 96 310.1 96.2 305.2 96.5C296.4 97.1 288.8 90.4 288.2 81.6C287.6 72.8 294.2 65.1 303 64.6C308.6 64.2 314.3 64 320.1 64C386.2 64 446.5 89.1 492 130.3L535.2 87C542.1 80.1 552.4 78.1 561.4 81.8C570.4 85.5 576.2 94.3 576.2 104L576.2 216C576.2 229.3 565.5 240 552.2 240L440.1 240C430.4 240 421.6 234.2 417.9 225.2C414.2 216.2 416.2 205.9 423.1 199L469.3 152.9C429.7 117.5 377.4 96 320.1 96zM558.5 288C567.3 287.4 574.9 294.1 575.5 302.9C575.9 308.5 576.1 314.2 576.1 320C576.1 386.1 551 446.4 509.9 491.8L553.1 535.1C560 542 562 552.3 558.3 561.3C554.6 570.3 545.9 576 536.1 576L424.1 576C410.8 576 400.1 565.3 400.1 552L400.1 439.9C400.1 430.2 405.9 421.4 414.9 417.7C423.9 414 434.2 416 441.1 422.9L487.2 469.1C522.6 429.5 544.1 377.2 544.1 320C544.1 315 543.9 310 543.6 305.1C543 296.3 549.7 288.7 558.5 288.1zM171 487.1C210.6 522.5 262.9 544 320.1 544C325.1 544 330.1 543.8 335.1 543.5C343.9 542.9 351.5 549.6 352.1 558.4C352.7 567.2 346 574.8 337.2 575.4C331.6 575.8 325.9 576 320.2 576C254.1 576 193.8 550.9 148.4 509.8L105.1 553C98.2 559.9 87.9 561.9 78.9 558.2C69.9 554.5 64.1 545.7 64.1 536L64.1 424C64.1 410.7 74.8 400 88.1 400L200.2 400C209.9 400 218.7 405.8 222.4 414.8C226.1 423.8 224.1 434.1 217.2 441L171 487.1zM544.2 208L544.2 123.3L459.4 208L544.2 208zM96.1 516.7L180.9 432L96.1 432L96.1 516.7zM432.1 544.1L516.8 544.1L432.1 459.3L432.1 544.1z"/></svg>