<svg xmlns="http://www.w3.org/2000/svg" viewBox="0 0 640 640"><!--! Font Awesome Pro 7.1.0 by @fontawesome - https://fontawesome.com License - https://fontawesome.com/license (Commercial License) Copyright 2025 Fonticons, Inc. --><path fill="currentColor" d="M308.7 571.3C314.9 577.5 325.1 577.5 331.3 571.3L475.3 427.3C481.5 421.1 481.5 410.9 475.3 404.7C469.1 398.5 458.9 398.5 452.7 404.7L336 521.4L336 208C336 199.2 328.8 192 320 192C311.2 192 304 199.2 304 208L304 521.4L187.3 404.7C181.1 398.5 170.9 398.5 164.7 404.7C158.5 410.9 158.5 421.1 164.7 427.3L308.7 571.3zM128 88C128 101.3 138.7 112 152 112C165.3 112 176 101.3 176 88C176 74.7 165.3 64 152 64C138.7 64 128 74.7 128 88zM264 112C277.3 112 288 101.3 288 88C288 74.7 277.3 64 264 64C250.7 64 240 74.7 240 88C240 101.3 250.7 112 264 112zM352 88C352 101.3 362.7 112 376 112C389.3 112 400 101.3 400 88C400 74.7 389.3 64 376 64C362.7 64 352 74.7 352 88zM488 112C501.3 112 512 101.3 512 88C512 74.7 501.3 64 488 64C474.7 64 464 74.7 464 88C464 101.3 474.7 112 488 112z"/></svg>