<svg xmlns="http://www.w3.org/2000/svg" viewBox="0 0 640 640"><!--! Font Awesome Pro 7.1.0 by @fontawesome - https://fontawesome.com License - https://fontawesome.com/license (Commercial License) Copyright 2025 Fonticons, Inc. --><path fill="currentColor" d="M123.3 100.7C117.1 94.5 106.9 94.5 100.7 100.7C94.5 106.9 94.5 117.1 100.7 123.3L263.4 286.1L286.1 263.4L123.3 100.7zM489.4 512L400 512C391.2 512 384 519.2 384 528C384 536.8 391.2 544 400 544L528 544C536.8 544 544 536.8 544 528L544 400C544 391.2 536.8 384 528 384C519.2 384 512 391.2 512 400L512 489.4L376.6 354L354 376.6L489.4 512zM400 96C391.2 96 384 103.2 384 112C384 120.8 391.2 128 400 128L489.4 128L100.7 516.7C94.5 522.9 94.5 533.1 100.7 539.3C106.9 545.5 117.1 545.5 123.3 539.3L512 150.6L512 240C512 248.8 519.2 256 528 256C536.8 256 544 248.8 544 240L544 112C544 103.2 536.8 96 528 96L400 96z"/></svg>