<svg xmlns="http://www.w3.org/2000/svg" viewBox="0 0 640 640"><!--! Font Awesome Pro 7.1.0 by @fontawesome - https://fontawesome.com License - https://fontawesome.com/license (Commercial License) Copyright 2025 Fonticons, Inc. --><path fill="currentColor" d="M320 96C443.7 96 544 196.3 544 320C544 443.7 443.7 544 320 544C196.3 544 96 443.7 96 320C96 196.3 196.3 96 320 96zM320 576C461.4 576 576 461.4 576 320C576 178.6 461.4 64 320 64C178.6 64 64 178.6 64 320C64 461.4 178.6 576 320 576zM331.3 228.7C325.1 222.5 314.9 222.5 308.7 228.7L236.7 300.7C230.5 306.9 230.5 317.1 236.7 323.3C242.9 329.5 253.1 329.5 259.3 323.3L304 278.6L304 400C304 408.8 311.2 416 320 416C328.8 416 336 408.8 336 400L336 278.6L380.7 323.3C386.9 329.5 397.1 329.5 403.3 323.3C409.5 317.1 409.5 306.9 403.3 300.7L331.3 228.7z"/></svg>