<svg xmlns="http://www.w3.org/2000/svg" viewBox="0 0 640 640"><!--! Font Awesome Pro 7.1.0 by @fontawesome - https://fontawesome.com License - https://fontawesome.com/license (Commercial License) Copyright 2025 Fonticons, Inc. --><path fill="currentColor" d="M491.3 100.7C485.1 94.5 474.9 94.5 468.7 100.7L372.7 196.7C366.5 202.9 366.5 213.1 372.7 219.3C378.9 225.5 389.1 225.5 395.3 219.3L464 150.6L464 320L320 320L320 144C320 117.5 298.5 96 272 96L144 96C117.5 96 96 117.5 96 144L96 320L80 320C53.5 320 32 341.5 32 368L32 473.1C39.4 475 46.6 478.3 53.2 483C56.3 485.2 58.6 486.2 60.1 486.7C61.4 487.1 62.7 487.3 64.1 487.4L64 368C64 359.2 71.2 352 80 352L560 352C568.8 352 576 359.2 576 368L576 487.4C576.9 487.4 577.7 487.3 578.4 487.1C579.9 486.8 582.7 485.9 586.8 483C593.4 478.3 600.6 475 608 473.1L608 368C608 341.5 586.5 320 560 320L496 320L496 150.6L564.7 219.3C570.9 225.5 581.1 225.5 587.3 219.3C593.5 213.1 593.5 202.9 587.3 196.7L491.3 100.7zM144 128L272 128C280.8 128 288 135.2 288 144L288 320L128 320L128 144C128 135.2 135.2 128 144 128zM489.1 533.9C508.8 548 531.5 560.8 556.1 565.5C581.3 570.3 607.8 566.4 633.3 548.1C640.5 543 642.2 533 637 525.8C631.8 518.6 621.9 516.9 614.7 522.1C596.7 534.9 579.3 537.4 562.1 534.1C544.2 530.7 525.9 520.9 507.7 507.9C470.6 481.4 420.6 481.4 383.4 507.9C358.1 526 338.1 536 319.9 536C301.7 536 281.8 525.9 256.4 507.9C219.3 481.4 169.3 481.4 132.1 507.9C108.9 524.4 86 535.6 63.9 535.4C51.4 535.3 38.5 531.7 25.1 522.1C17.9 517 7.9 518.6 2.8 525.8C-2.3 533-.5 543 6.7 548.1C25.4 561.4 44.7 567.3 63.9 567.4C96.3 567.6 126.1 551.6 150.8 533.9C176.8 515.3 211.9 515.3 237.9 533.9C263.5 552.2 290.8 568 319.9 568C349 568 376.3 552.2 401.9 533.9C427.9 515.3 463 515.3 489 533.9z"/></svg>