<svg xmlns="http://www.w3.org/2000/svg" viewBox="0 0 640 640"><!--! Font Awesome Pro 7.1.0 by @fontawesome - https://fontawesome.com License - https://fontawesome.com/license (Commercial License) Copyright 2025 Fonticons, Inc. --><path fill="currentColor" d="M475.3 267.3L331.3 411.3C325.1 417.5 314.9 417.5 308.7 411.3L164.7 267.3C158.5 261.1 158.5 250.9 164.7 244.7C170.9 238.5 181.1 238.5 187.3 244.7L304 361.4L304 80C304 71.2 311.2 64 320 64C328.8 64 336 71.2 336 80L336 361.4L452.7 244.7C458.9 238.5 469.1 238.5 475.3 244.7C481.5 250.9 481.5 261.1 475.3 267.3zM128 400L128 480C128 515.3 156.7 544 192 544L448 544C483.3 544 512 515.3 512 480L512 400C512 391.2 519.2 384 528 384C536.8 384 544 391.2 544 400L544 480C544 533 501 576 448 576L192 576C139 576 96 533 96 480L96 400C96 391.2 103.2 384 112 384C120.8 384 128 391.2 128 400z"/></svg>