<svg xmlns="http://www.w3.org/2000/svg" viewBox="0 0 640 640"><!--! Font Awesome Pro 7.1.0 by @fontawesome - https://fontawesome.com License - https://fontawesome.com/license (Commercial License) Copyright 2025 Fonticons, Inc. --><path fill="currentColor" d="M96 320C96 196.3 196.3 96 320 96C328.8 96 336 88.8 336 80C336 71.2 328.8 64 320 64C178.6 64 64 178.6 64 320C64 461.4 178.6 576 320 576C328.8 576 336 568.8 336 560C336 551.2 328.8 544 320 544C196.3 544 96 443.7 96 320zM459.3 196.7C453.1 190.5 442.9 190.5 436.7 196.7C430.5 202.9 430.5 213.1 436.7 219.3L521.4 304L240 304C231.2 304 224 311.2 224 320C224 328.8 231.2 336 240 336L521.4 336L436.7 420.7C430.5 426.9 430.5 437.1 436.7 443.3C442.9 449.5 453.1 449.5 459.3 443.3L571.3 331.3C577.5 325.1 577.5 314.9 571.3 308.7L459.3 196.7z"/></svg>