<svg xmlns="http://www.w3.org/2000/svg" viewBox="0 0 640 640"><!--! Font Awesome Pro 7.1.0 by @fontawesome - https://fontawesome.com License - https://fontawesome.com/license (Commercial License) Copyright 2025 Fonticons, Inc. --><path fill="currentColor" d="M411.3 171.3L331.3 251.3C325.1 257.5 314.9 257.5 308.7 251.3L228.7 171.3C222.5 165.1 222.5 154.9 228.7 148.7C234.9 142.5 245.1 142.5 251.3 148.7L304 201.4L304 48C304 39.2 311.2 32 320 32C328.8 32 336 39.2 336 48L336 201.4L388.7 148.7C394.9 142.5 405.1 142.5 411.3 148.7C417.5 154.9 417.5 165.1 411.3 171.3zM411.3 468.7C417.5 474.9 417.5 485.1 411.3 491.3C405.1 497.5 394.9 497.5 388.7 491.3L336 438.6L336 592C336 600.8 328.8 608 320 608C311.2 608 304 600.8 304 592L304 438.6L251.3 491.3C245.1 497.5 234.9 497.5 228.7 491.3C222.5 485.1 222.5 474.9 228.7 468.7L308.7 388.7C314.9 382.5 325.1 382.5 331.3 388.7L411.3 468.7zM176 320C176 333.3 165.3 344 152 344C138.7 344 128 333.3 128 320C128 306.7 138.7 296 152 296C165.3 296 176 306.7 176 320zM264 344C250.7 344 240 333.3 240 320C240 306.7 250.7 296 264 296C277.3 296 288 306.7 288 320C288 333.3 277.3 344 264 344zM400 320C400 333.3 389.3 344 376 344C362.7 344 352 333.3 352 320C352 306.7 362.7 296 376 296C389.3 296 400 306.7 400 320zM488 344C474.7 344 464 333.3 464 320C464 306.7 474.7 296 488 296C501.3 296 512 306.7 512 320C512 333.3 501.3 344 488 344z"/></svg>