<svg xmlns="http://www.w3.org/2000/svg" viewBox="0 0 640 640"><!--! Font Awesome Pro 7.1.0 by @fontawesome - https://fontawesome.com License - https://fontawesome.com/license (Commercial License) Copyright 2025 Fonticons, Inc. --><path fill="currentColor" d="M96 496C96 504.8 88.8 512 80 512C71.2 512 64 504.8 64 496L64 400C64 347 107 304 160 304L521.4 304L404.7 187.3C398.5 181.1 398.5 170.9 404.7 164.7C410.9 158.5 421.1 158.5 427.3 164.7L571.3 308.7C574.3 311.7 576 315.8 576 320C576 324.2 574.3 328.3 571.3 331.3L427.3 475.3C421.1 481.5 410.9 481.5 404.7 475.3C398.5 469.1 398.5 458.9 404.7 452.7L521.4 336L160 336C124.7 336 96 364.7 96 400L96 496z"/></svg>