<svg xmlns="http://www.w3.org/2000/svg" viewBox="0 0 640 640"><!--! Font Awesome Pro 7.1.0 by @fontawesome - https://fontawesome.com License - https://fontawesome.com/license (Commercial License) Copyright 2025 Fonticons, Inc. --><path fill="currentColor" d="M331.3 68.7C325.1 62.5 314.9 62.5 308.7 68.7L236.7 140.7C230.5 146.9 230.5 157.1 236.7 163.3C242.9 169.5 253.1 169.5 259.3 163.3L304 118.6L304 304L118.6 304L163.3 259.3C169.5 253.1 169.5 242.9 163.3 236.7C157.1 230.5 146.9 230.5 140.7 236.7L68.7 308.7C62.5 314.9 62.5 325.1 68.7 331.3L140.7 403.3C146.9 409.5 157.1 409.5 163.3 403.3C169.5 397.1 169.5 386.9 163.3 380.7L118.6 336L304 336L304 521.4L259.3 476.7C253.1 470.5 242.9 470.5 236.7 476.7C230.5 482.9 230.5 493.1 236.7 499.3L308.7 571.3C314.9 577.5 325.1 577.5 331.3 571.3L403.3 499.3C409.5 493.1 409.5 482.9 403.3 476.7C397.1 470.5 386.9 470.5 380.7 476.7L336 521.4L336 336L521.4 336L476.7 380.7C470.5 386.9 470.5 397.1 476.7 403.3C482.9 409.5 493.1 409.5 499.3 403.3L571.3 331.3C577.5 325.1 577.5 314.9 571.3 308.7L499.3 236.7C493.1 230.5 482.9 230.5 476.7 236.7C470.5 242.9 470.5 253.1 476.7 259.3L521.4 304L336 304L336 118.6L380.7 163.3C386.9 169.5 397.1 169.5 403.3 163.3C409.5 157.1 409.5 146.9 403.3 140.7L331.3 68.7z"/></svg>