<svg xmlns="http://www.w3.org/2000/svg" viewBox="0 0 640 640"><!--! Font Awesome Pro 7.1.0 by @fontawesome - https://fontawesome.com License - https://fontawesome.com/license (Commercial License) Copyright 2025 Fonticons, Inc. --><path fill="currentColor" d="M315.3 100.7C309.1 94.5 298.9 94.5 292.7 100.7C286.5 106.9 286.5 117.1 292.7 123.3L313.4 144L160 144C107 144 64 187 64 240C64 293 107 336 160 336L480 336C515.3 336 544 364.7 544 400C544 425.3 529.3 447.2 508 457.6C498.9 433.3 475.5 416 448 416C412.7 416 384 444.7 384 480C384 515.3 412.7 544 448 544C479.6 544 505.9 521 511.1 490.9C548.9 478 576 442.2 576 400C576 347 533 304 480 304L160 304C124.7 304 96 275.3 96 240C96 204.7 124.7 176 160 176L313.4 176L292.7 196.7C286.5 202.9 286.5 213.1 292.7 219.3C298.9 225.5 309.1 225.5 315.3 219.3L363.3 171.3C369.5 165.1 369.5 154.9 363.3 148.7L315.3 100.7zM448 160C448 142.3 462.3 128 480 128C497.7 128 512 142.3 512 160C512 177.7 497.7 192 480 192C462.3 192 448 177.7 448 160zM544 160C544 124.7 515.3 96 480 96C444.7 96 416 124.7 416 160C416 195.3 444.7 224 480 224C515.3 224 544 195.3 544 160zM160 448C177.7 448 192 462.3 192 480C192 497.7 177.7 512 160 512C142.3 512 128 497.7 128 480C128 462.3 142.3 448 160 448zM222 464C214.9 436.4 189.8 416 160 416C124.7 416 96 444.7 96 480C96 515.3 124.7 544 160 544C189.8 544 214.9 523.6 222 496L281.4 496L260.7 516.7C254.5 522.9 254.5 533.1 260.7 539.3C266.9 545.5 277.1 545.5 283.3 539.3L331.3 491.3C337.5 485.1 337.5 474.9 331.3 468.7L283.3 420.7C277.1 414.5 266.9 414.5 260.7 420.7C254.5 426.9 254.5 437.1 260.7 443.3L281.4 464L222 464zM448 448C465.7 448 480 462.3 480 480C480 497.7 465.7 512 448 512C430.3 512 416 497.7 416 480C416 462.3 430.3 448 448 448z"/></svg>