<svg xmlns="http://www.w3.org/2000/svg" viewBox="0 0 640 640"><!--! Font Awesome Pro 7.1.0 by @fontawesome - https://fontawesome.com License - https://fontawesome.com/license (Commercial License) Copyright 2025 Fonticons, Inc. --><path fill="currentColor" d="M480 512C497.7 512 512 497.7 512 480L512 160C512 142.3 497.7 128 480 128L160 128C142.3 128 128 142.3 128 160L128 480C128 497.7 142.3 512 160 512L480 512zM544 480C544 515.3 515.3 544 480 544L160 544C124.7 544 96 515.3 96 480L96 160C96 124.7 124.7 96 160 96L480 96C515.3 96 544 124.7 544 160L544 480zM404.7 336L368 336C359.2 336 352 328.8 352 320L352 232C352 227.6 348.4 224 344 224L296 224C291.6 224 288 227.6 288 232L288 320C288 328.8 280.8 336 272 336L235.3 336L320 420.7L404.7 336zM199 345C192.1 338.1 190.1 327.8 193.8 318.8C197.5 309.8 206.3 304 216 304L256 304L256 232C256 209.9 273.9 192 296 192L344 192C366.1 192 384 209.9 384 232L384 304L424 304C433.7 304 442.5 309.8 446.2 318.8C449.9 327.8 447.9 338.1 441 345L337 449C327.6 458.4 312.4 458.4 303.1 449L199 345z"/></svg>