<svg xmlns="http://www.w3.org/2000/svg" viewBox="0 0 640 640"><!--! Font Awesome Pro 7.1.0 by @fontawesome - https://fontawesome.com License - https://fontawesome.com/license (Commercial License) Copyright 2025 Fonticons, Inc. --><path fill="currentColor" d="M64 448C64 452.2 65.7 456.3 68.7 459.3L196.7 587.3C202.9 593.5 213.1 593.5 219.3 587.3C225.5 581.1 225.5 570.9 219.3 564.7L118.6 464L392 464C493.6 464 576 381.6 576 280C576 178.4 493.6 96 392 96L144 96L140.8 96.3C133.5 97.8 128 104.3 128 112C128 119.7 133.5 126.2 140.8 127.7L144 128L392 128C475.9 128 544 196.1 544 280C544 363.9 476 432 392 432L118.6 432L219.3 331.3L221.4 328.8C225.5 322.6 224.8 314.1 219.3 308.7C213.8 303.3 205.4 302.5 199.2 306.6L196.7 308.7L68.7 436.7C65.7 439.7 64 443.8 64 448z"/></svg>