<svg xmlns="http://www.w3.org/2000/svg" viewBox="0 0 640 640"><!--! Font Awesome Pro 7.1.0 by @fontawesome - https://fontawesome.com License - https://fontawesome.com/license (Commercial License) Copyright 2025 Fonticons, Inc. --><path fill="currentColor" d="M299.3 443.3L203.3 539.3C197.1 545.5 186.9 545.5 180.7 539.3L84.7 443.3C78.5 437.1 78.5 426.9 84.7 420.7C90.9 414.5 101.1 414.5 107.3 420.7L176 489.4L176 112C176 103.2 183.2 96 192 96C200.8 96 208 103.2 208 112L208 489.4L276.7 420.7C282.9 414.5 293.1 414.5 299.3 420.7C305.5 426.9 305.5 437.1 299.3 443.3zM512 176C512 149.5 490.5 128 464 128C437.5 128 416 149.5 416 176C416 202.5 437.5 224 464 224C490.5 224 512 202.5 512 176zM469.9 255.8C467.9 255.9 466 256 464 256C419.8 256 384 220.2 384 176C384 131.8 419.8 96 464 96C508.2 96 544 131.8 544 176C544 194.9 538.2 213.3 527.5 228.8L469.2 313.1C464.2 320.4 454.2 322.2 446.9 317.1C439.6 312 437.8 302.1 442.9 294.8L470 255.7zM473.6 355.2C477.6 358.2 480 363 480 368L480 512L520 512C528.8 512 536 519.2 536 528C536 536.8 528.8 544 520 544L408 544C399.2 544 392 536.8 392 528C392 519.2 399.2 512 408 512L448 512L448 389.2L412.4 399.4C403.9 401.8 395 396.9 392.6 388.4C390.2 379.9 395.1 371 403.6 368.6L459.6 352.6C464.4 351.2 469.6 352.2 473.6 355.2z"/></svg>