<svg xmlns="http://www.w3.org/2000/svg" viewBox="0 0 640 640"><!--! Font Awesome Pro 7.1.0 by @fontawesome - https://fontawesome.com License - https://fontawesome.com/license (Commercial License) Copyright 2025 Fonticons, Inc. --><path fill="currentColor" d="M436.7 548.7L521.4 464L80 464C71.2 464 64 456.8 64 448C64 439.2 71.2 432 80 432L521.4 432L436.7 347.3C430.5 341.1 430.5 330.9 436.7 324.7C442.9 318.5 453.1 318.5 459.3 324.7L571.3 436.7C577.5 442.9 577.5 453.1 571.3 459.3L459.3 571.3C453.1 577.5 442.9 577.5 436.7 571.3C430.5 565.1 430.5 554.9 436.7 548.7zM203.3 292.7C209.5 298.9 209.5 309.1 203.3 315.3C197.1 321.5 186.9 321.5 180.7 315.3L68.7 203.3C62.5 197.1 62.5 186.9 68.7 180.7L180.7 68.7C186.9 62.5 197.1 62.5 203.3 68.7C209.5 74.9 209.5 85.1 203.3 91.3L118.6 176L560 176C568.8 176 576 183.2 576 192C576 200.8 568.8 208 560 208L118.6 208L203.3 292.7z"/></svg>