<svg xmlns="http://www.w3.org/2000/svg" viewBox="0 0 640 640"><!--! Font Awesome Pro 7.1.0 by @fontawesome - https://fontawesome.com License - https://fontawesome.com/license (Commercial License) Copyright 2025 Fonticons, Inc. --><path fill="currentColor" d="M176 88C176 101.3 165.3 112 152 112C138.7 112 128 101.3 128 88C128 74.7 138.7 64 152 64C165.3 64 176 74.7 176 88zM308.7 196.7C314.9 190.5 325.1 190.5 331.3 196.7L475.3 340.7C481.5 346.9 481.5 357.1 475.3 363.3C469.1 369.5 458.9 369.5 452.7 363.3L336 246.6L336 560C336 568.8 328.8 576 320 576C311.2 576 304 568.8 304 560L304 246.6L187.3 363.3C181.1 369.5 170.9 369.5 164.7 363.3C158.5 357.1 158.5 346.9 164.7 340.7L308.7 196.7zM264 112C250.7 112 240 101.3 240 88C240 74.7 250.7 64 264 64C277.3 64 288 74.7 288 88C288 101.3 277.3 112 264 112zM400 88C400 101.3 389.3 112 376 112C362.7 112 352 101.3 352 88C352 74.7 362.7 64 376 64C389.3 64 400 74.7 400 88zM488 112C474.7 112 464 101.3 464 88C464 74.7 474.7 64 488 64C501.3 64 512 74.7 512 88C512 101.3 501.3 112 488 112z"/></svg>