<svg xmlns="http://www.w3.org/2000/svg" viewBox="0 0 640 640"><!--! Font Awesome Pro 7.1.0 by @fontawesome - https://fontawesome.com License - https://fontawesome.com/license (Commercial License) Copyright 2025 Fonticons, Inc. --><path fill="currentColor" d="M308.7 68.7C314.9 62.5 325.1 62.5 331.3 68.7L427.3 164.7C433.5 170.9 433.5 181.1 427.3 187.3C421.1 193.5 410.9 193.5 404.7 187.3L336 118.6L336 424C336 432.8 328.8 440 320 440C311.2 440 304 432.8 304 424L304 118.6L235.3 187.3C229.1 193.5 218.9 193.5 212.7 187.3C206.5 181.1 206.5 170.9 212.7 164.7L308.7 68.7zM240 256L240 288L112 288C103.2 288 96 295.2 96 304L96 474.5C80.1 484.7 70 487.4 64.4 487.4L64 487.4L64 304C64 277.5 85.5 256 112 256L240 256zM571.1 486.9C564.6 485.7 555.7 481.9 544 474.5L544 304C544 295.2 536.8 288 528 288L400 288L400 256L528 256C554.5 256 576 277.5 576 304L576 487.4C574.7 487.4 573.1 487.3 571.1 486.9zM402 533.9C376.4 552.2 349.1 568 320 568C290.9 568 263.6 552.2 238 533.9C212 515.3 176.9 515.3 150.9 533.9C126.2 551.5 96.3 567.6 64 567.4C44.7 567.3 25.4 561.4 6.8 548.1C-.4 543-2.1 533 3.1 525.8C8.3 518.6 18.2 516.9 25.4 522.1C38.8 531.7 51.8 535.4 64.2 535.4C86.2 535.5 109.2 524.4 132.4 507.9C169.5 481.4 219.5 481.4 256.7 507.9C282 526 302 536 320.2 536C338.4 536 358.3 525.9 383.7 507.9C420.8 481.4 470.8 481.4 508 507.9C526.2 520.9 544.5 530.7 562.4 534.1C579.6 537.4 597 534.9 615 522.1C622.2 517 632.2 518.6 637.3 525.8C642.4 533 640.8 543 633.6 548.1C608 566.3 581.6 570.3 556.4 565.5C531.9 560.8 509.2 548 489.4 533.9C463.4 515.3 428.3 515.3 402.3 533.9z"/></svg>