<svg xmlns="http://www.w3.org/2000/svg" viewBox="0 0 640 640"><!--! Font Awesome Pro 7.1.0 by @fontawesome - https://fontawesome.com License - https://fontawesome.com/license (Commercial License) Copyright 2025 Fonticons, Inc. --><path fill="currentColor" d="M571.3 331.3C577.5 325.1 577.5 314.9 571.3 308.7L427.3 164.7C421.1 158.5 410.9 158.5 404.7 164.7C398.5 170.9 398.5 181.1 404.7 187.3L521.4 304L208 304C199.2 304 192 311.2 192 320C192 328.8 199.2 336 208 336L521.4 336L404.7 452.7C398.5 458.9 398.5 469.1 404.7 475.3C410.9 481.5 421.1 481.5 427.3 475.3L571.3 331.3zM88 512C101.3 512 112 501.3 112 488C112 474.7 101.3 464 88 464C74.7 464 64 474.7 64 488C64 501.3 74.7 512 88 512zM112 376C112 362.7 101.3 352 88 352C74.7 352 64 362.7 64 376C64 389.3 74.7 400 88 400C101.3 400 112 389.3 112 376zM88 288C101.3 288 112 277.3 112 264C112 250.7 101.3 240 88 240C74.7 240 64 250.7 64 264C64 277.3 74.7 288 88 288zM112 152C112 138.7 101.3 128 88 128C74.7 128 64 138.7 64 152C64 165.3 74.7 176 88 176C101.3 176 112 165.3 112 152z"/></svg>