<svg xmlns="http://www.w3.org/2000/svg" viewBox="0 0 640 640"><!--! Font Awesome Pro 7.1.0 by @fontawesome - https://fontawesome.com License - https://fontawesome.com/license (Commercial License) Copyright 2025 Fonticons, Inc. --><path fill="currentColor" d="M160 128C142.3 128 128 142.3 128 160L128 480C128 497.7 142.3 512 160 512L480 512C497.7 512 512 497.7 512 480L512 160C512 142.3 497.7 128 480 128L160 128zM96 160C96 124.7 124.7 96 160 96L480 96C515.3 96 544 124.7 544 160L544 480C544 515.3 515.3 544 480 544L160 544C124.7 544 96 515.3 96 480L96 160zM235.3 304L272 304C280.8 304 288 311.2 288 320L288 408C288 412.4 291.6 416 296 416L344 416C348.4 416 352 412.4 352 408L352 320C352 311.2 359.2 304 368 304L404.7 304L320 219.3L235.3 304zM441 295C447.9 301.9 449.9 312.2 446.2 321.2C442.5 330.2 433.7 336 424 336L384 336L384 408C384 430.1 366.1 448 344 448L296 448C273.9 448 256 430.1 256 408L256 336L216 336C206.3 336 197.5 330.2 193.8 321.2C190.1 312.2 192.2 301.9 199 295L303 191C312.4 181.6 327.6 181.6 336.9 191L441 295z"/></svg>