<svg xmlns="http://www.w3.org/2000/svg" viewBox="0 0 640 640"><!--! Font Awesome Pro 7.1.0 by @fontawesome - https://fontawesome.com License - https://fontawesome.com/license (Commercial License) Copyright 2025 Fonticons, Inc. --><path fill="currentColor" d="M299.3 443.3L203.3 539.3C197.1 545.5 186.9 545.5 180.7 539.3L84.7 443.3C78.5 437.1 78.5 426.9 84.7 420.7C90.9 414.5 101.1 414.5 107.3 420.7L176 489.4L176 112C176 103.2 183.2 96 192 96C200.8 96 208 103.2 208 112L208 489.4L276.7 420.7C282.9 414.5 293.1 414.5 299.3 420.7C305.5 426.9 305.5 437.1 299.3 443.3zM384 240C384 248.8 391.2 256 400 256L496 256C504.8 256 512 248.8 512 240L512 144C512 135.2 504.8 128 496 128L400 128C391.2 128 384 135.2 384 144L384 240zM448 387.5L373.3 512L522.7 512L448 387.5zM352 240L352 144C352 117.5 373.5 96 400 96L496 96C522.5 96 544 117.5 544 144L544 240C544 266.5 522.5 288 496 288L400 288C373.5 288 352 266.5 352 240zM339.6 506L423.8 365.7C428.9 357.2 438.1 352 448 352C457.9 352 467.1 357.2 472.2 365.7L556.4 506C558.7 509.9 560 514.4 560 518.9C560 532.7 548.8 544 534.9 544L361 544C347.2 544 335.9 532.8 335.9 518.9C335.9 514.4 337.1 509.9 339.5 506z"/></svg>