<svg xmlns="http://www.w3.org/2000/svg" viewBox="0 0 640 640"><!--! Font Awesome Pro 7.1.0 by @fontawesome - https://fontawesome.com License - https://fontawesome.com/license (Commercial License) Copyright 2025 Fonticons, Inc. --><path fill="currentColor" d="M428.7 60.7C434.9 54.5 445.1 54.5 451.3 60.7L539.3 148.7C545.5 154.9 545.5 165.1 539.3 171.3L451.3 259.3C445.1 265.5 434.9 265.5 428.7 259.3C422.5 253.1 422.5 242.9 428.7 236.7L489.4 176L224 176C171 176 128 219 128 272L128 304C128 312.8 120.8 320 112 320C103.2 320 96 312.8 96 304L96 272C96 201.3 153.3 144 224 144L489.4 144L428.7 83.3C422.5 77.1 422.5 66.9 428.7 60.7zM340.7 324.7C346.9 318.5 357.1 318.5 363.3 324.7L443.3 404.7C449.5 410.9 449.5 421.1 443.3 427.3L363.3 507.3C357.1 513.5 346.9 513.5 340.7 507.3C334.5 501.1 334.5 490.9 340.7 484.7L393.4 432L192 432C156.7 432 128 460.7 128 496L128 528C128 536.8 120.8 544 112 544C103.2 544 96 536.8 96 528L96 496C96 443 139 400 192 400L393.4 400L340.7 347.3C334.5 341.1 334.5 330.9 340.7 324.7z"/></svg>