<svg xmlns="http://www.w3.org/2000/svg" viewBox="0 0 640 640"><!--! Font Awesome Pro 7.1.0 by @fontawesome - https://fontawesome.com License - https://fontawesome.com/license (Commercial License) Copyright 2025 Fonticons, Inc. --><path fill="currentColor" d="M303 569L303 569C312.4 578.4 327.6 578.4 336.9 569L336.9 569L480.9 425C487.8 418.1 489.8 407.8 486.1 398.8C482.4 389.8 473.7 384 464 384L384 384L384 240C384 213.5 362.5 192 336 192L304 192C277.5 192 256 213.5 256 240L256 384L176 384C166.3 384 157.5 389.8 153.8 398.8C150.1 407.8 152.2 418.1 159 425L303 569zM352 320L352 400C352 408.8 359.2 416 368 416L444.7 416L320 540.7L195.3 416L272 416C280.8 416 288 408.8 288 400L288 240C288 231.2 295.2 224 304 224L336 224C344.8 224 352 231.2 352 240L352 320zM512 80C512 71.2 504.8 64 496 64L144 64C135.2 64 128 71.2 128 80C128 88.8 135.2 96 144 96L496 96C504.8 96 512 88.8 512 80z"/></svg>