<svg xmlns="http://www.w3.org/2000/svg" viewBox="0 0 640 640"><!--! Font Awesome Pro 7.1.0 by @fontawesome - https://fontawesome.com License - https://fontawesome.com/license (Commercial License) Copyright 2025 Fonticons, Inc. --><path fill="currentColor" d="M448.5 576C452.7 576 456.8 574.3 459.8 571.3L587.8 443.3C594 437.1 594 426.9 587.8 420.7C581.6 414.5 571.4 414.5 565.2 420.7L464.5 521.4L464.5 248C464.5 146.4 382.1 64 280.5 64C178.9 64 96.5 146.4 96.5 248L96.5 496L96.8 499.2C98.3 506.5 104.8 512 112.5 512C120.2 512 126.7 506.5 128.2 499.2L128.5 496L128.5 248C128.5 164.1 196.6 96 280.5 96C364.4 96 432.5 164.1 432.5 248L432.5 521.4L331.8 420.7L329.3 418.6C323.1 414.5 314.6 415.2 309.2 420.7C303.8 426.2 303 434.6 307.1 440.8L309.2 443.3L437.2 571.3C440.2 574.3 444.3 576 448.5 576z"/></svg>