<svg xmlns="http://www.w3.org/2000/svg" viewBox="0 0 640 640"><!--! Font Awesome Pro 7.1.0 by @fontawesome - https://fontawesome.com License - https://fontawesome.com/license (Commercial License) Copyright 2025 Fonticons, Inc. --><path fill="currentColor" d="M560 64C568.8 64 576 71.2 576 80L576 224C576 230.6 572 236.5 565.9 238.9C559.8 241.3 552.9 239.8 548.4 235L483.8 166.6C441.2 121.5 382 96 320 96C196.3 96 96 196.3 96 320C96 443.7 196.3 544 320 544C405.9 544 480.6 495.6 518.2 424.5C522.3 416.7 532 413.7 539.8 417.8C547.6 421.9 550.6 431.6 546.5 439.4C503.6 520.6 418.3 575.9 320 575.9C178.6 575.9 64 461.3 64 319.9C64 178.5 178.6 64 320 64C390.8 64 458.4 93.2 507 144.6L544 183.7L544 79.9C544 71.1 551.2 63.9 560 63.9zM248.8 225.7C253.8 223.2 259.6 223.5 264.4 226.4C269.2 229.3 272 234.5 272 240L272 400C272 408.8 264.8 416 256 416C247.2 416 240 408.8 240 400L240 265.9L215.2 278.3C207.3 282.3 197.7 279 193.7 271.1C189.7 263.2 193 253.6 200.9 249.6L248.9 225.6zM376 224C406.9 224 432 249.1 432 280L432 360C432 390.9 406.9 416 376 416L360 416C329.1 416 304 390.9 304 360L304 280C304 249.1 329.1 224 360 224L376 224zM360 256C346.7 256 336 266.7 336 280L336 360C336 373.3 346.7 384 360 384L376 384C389.3 384 400 373.3 400 360L400 280C400 266.7 389.3 256 376 256L360 256z"/></svg>