<svg xmlns="http://www.w3.org/2000/svg" viewBox="0 0 640 640"><!--! Font Awesome Pro 7.1.0 by @fontawesome - https://fontawesome.com License - https://fontawesome.com/license (Commercial License) Copyright 2025 Fonticons, Inc. --><path fill="currentColor" d="M507.3 308.7C513.5 314.9 513.5 325.1 507.3 331.3L363.3 475.3C357.1 481.5 346.9 481.5 340.7 475.3C334.5 469.1 334.5 458.9 340.7 452.7L457.4 336L16 336C7.2 336 0 328.8 0 320C0 311.2 7.2 304 16 304L457.4 304L340.7 187.3C334.5 181.1 334.5 170.9 340.7 164.7C346.9 158.5 357.1 158.5 363.3 164.7L507.3 308.7zM640 176L640 464C640 472.8 632.8 480 624 480C615.2 480 608 472.8 608 464L608 176C608 167.2 615.2 160 624 160C632.8 160 640 167.2 640 176z"/></svg>