<svg xmlns="http://www.w3.org/2000/svg" viewBox="0 0 640 640"><!--! Font Awesome Pro 7.1.0 by @fontawesome - https://fontawesome.com License - https://fontawesome.com/license (Commercial License) Copyright 2025 Fonticons, Inc. --><path fill="currentColor" d="M560 128C551.2 128 544 135.2 544 144L544 496C544 504.8 551.2 512 560 512C568.8 512 576 504.8 576 496L576 144C576 135.2 568.8 128 560 128zM441 337C450.4 327.6 450.4 312.4 441 303.1L297 159C290.1 152.1 279.8 150.1 270.8 153.8C261.8 157.5 256 166.3 256 176L256 256L192 256L192 256L112 256C85.5 256 64 277.5 64 304L64 336C64 362.5 85.5 384 112 384L256 384L256 464C256 473.7 261.8 482.5 270.8 486.2C279.8 489.9 290.1 487.9 297 481L441 337zM192 352L112 352C103.2 352 96 344.8 96 336L96 304C96 295.2 103.2 288 112 288L192 288L192 288L272 288C280.8 288 288 280.8 288 272L288 195.3L412.7 320L288 444.7L288 368C288 359.2 280.8 352 272 352L192 352z"/></svg>