<svg xmlns="http://www.w3.org/2000/svg" viewBox="0 0 640 640"><!--! Font Awesome Pro 7.1.0 by @fontawesome - https://fontawesome.com License - https://fontawesome.com/license (Commercial License) Copyright 2025 Fonticons, Inc. --><path fill="currentColor" d="M356.7 260.7C350.5 266.9 350.5 277.1 356.7 283.3C362.9 289.5 373.1 289.5 379.3 283.3L544 118.6L544 224C544 232.8 551.2 240 560 240C568.8 240 576 232.8 576 224L576 80C576 71.2 568.8 64 560 64L416 64C407.2 64 400 71.2 400 80C400 88.8 407.2 96 416 96L521.4 96L356.7 260.7zM283.3 379.3C289.5 373.1 289.5 362.9 283.3 356.7C277.1 350.5 266.9 350.5 260.7 356.7L96 521.4L96 416C96 407.2 88.8 400 80 400C71.2 400 64 407.2 64 416L64 560C64 568.8 71.2 576 80 576L224 576C232.8 576 240 568.8 240 560C240 551.2 232.8 544 224 544L118.6 544L283.3 379.3z"/></svg>