<svg xmlns="http://www.w3.org/2000/svg" viewBox="0 0 640 640"><!--! Font Awesome Pro 7.1.0 by @fontawesome - https://fontawesome.com License - https://fontawesome.com/license (Commercial License) Copyright 2025 Fonticons, Inc. --><path fill="currentColor" d="M299.3 443.3L203.3 539.3C197.1 545.5 186.9 545.5 180.7 539.3L84.7 443.3C78.5 437.1 78.5 426.9 84.7 420.7C90.9 414.5 101.1 414.5 107.3 420.7L176 489.4L176 112C176 103.2 183.2 96 192 96C200.8 96 208 103.2 208 112L208 489.4L276.7 420.7C282.9 414.5 293.1 414.5 299.3 420.7C305.5 426.9 305.5 437.1 299.3 443.3zM376 96L520 96C526.3 96 532 99.7 534.6 105.5C537.2 111.3 536.1 118 531.9 122.7L411.9 256L520 256C528.8 256 536 263.2 536 272C536 280.8 528.8 288 520 288L376 288C369.7 288 364 284.3 361.4 278.5C358.8 272.7 359.9 266 364.1 261.3L484.1 128L376 128C367.2 128 360 120.8 360 112C360 103.2 367.2 96 376 96zM462.3 360.8L526.2 488.5C526.3 488.7 526.4 488.9 526.5 489.1L542.3 520.8C546.3 528.7 543 538.3 535.1 542.3C527.2 546.3 517.6 543 513.6 535.1L502 511.9L393.8 511.9L382.2 535.1C378.2 543 368.6 546.2 360.7 542.3C352.8 538.4 349.6 528.7 353.5 520.8L369.3 489.1C369.4 488.9 369.5 488.7 369.6 488.5L433.5 360.8C436.2 355.4 441.7 352 447.8 352C453.9 352 459.4 355.4 462.1 360.8zM486.1 480L448 403.8L409.9 480L486.1 480z"/></svg>