<svg xmlns="http://www.w3.org/2000/svg" viewBox="0 0 640 640"><!--! Font Awesome Pro 7.1.0 by @fontawesome - https://fontawesome.com License - https://fontawesome.com/license (Commercial License) Copyright 2025 Fonticons, Inc. --><path fill="currentColor" d="M308.7 68.7C314.9 62.5 325.1 62.5 331.3 68.7L475.3 212.7C481.5 218.9 481.5 229.1 475.3 235.3C469.1 241.5 458.9 241.5 452.7 235.3L336 118.6L336 432C336 440.8 328.8 448 320 448C311.2 448 304 440.8 304 432L304 118.6L187.3 235.3C181.1 241.5 170.9 241.5 164.7 235.3C158.5 229.1 158.5 218.9 164.7 212.7L308.7 68.7zM128 552C128 538.7 138.7 528 152 528C165.3 528 176 538.7 176 552C176 565.3 165.3 576 152 576C138.7 576 128 565.3 128 552zM264 528C277.3 528 288 538.7 288 552C288 565.3 277.3 576 264 576C250.7 576 240 565.3 240 552C240 538.7 250.7 528 264 528zM352 552C352 538.7 362.7 528 376 528C389.3 528 400 538.7 400 552C400 565.3 389.3 576 376 576C362.7 576 352 565.3 352 552zM488 528C501.3 528 512 538.7 512 552C512 565.3 501.3 576 488 576C474.7 576 464 565.3 464 552C464 538.7 474.7 528 488 528z"/></svg>