<svg xmlns="http://www.w3.org/2000/svg" viewBox="0 0 640 640"><!--! Font Awesome Pro 7.1.0 by @fontawesome - https://fontawesome.com License - https://fontawesome.com/license (Commercial License) Copyright 2025 Fonticons, Inc. --><path fill="currentColor" d="M347.3 203.3C341.1 209.5 330.9 209.5 324.7 203.3C318.5 197.1 318.5 186.9 324.7 180.7L436.7 68.7C442.9 62.5 453.1 62.5 459.3 68.7L571.3 180.7C577.5 186.9 577.5 197.1 571.3 203.3C565.1 209.5 554.9 209.5 548.7 203.3L464 118.6L464 304L560 304C568.8 304 576 311.2 576 320C576 328.8 568.8 336 560 336L208 336L208 521.4L292.7 436.7C298.9 430.5 309.1 430.5 315.3 436.7C321.5 442.9 321.5 453.1 315.3 459.3L203.3 571.3C197.1 577.5 186.9 577.5 180.7 571.3L68.7 459.3C62.5 453.1 62.5 442.9 68.7 436.7C74.9 430.5 85.1 430.5 91.3 436.7L176 521.4L176 336L80 336C71.2 336 64 328.8 64 320C64 311.2 71.2 304 80 304L432 304L432 118.6L347.3 203.3zM464 384L464 560C464 568.8 456.8 576 448 576C439.2 576 432 568.8 432 560L432 384L464 384zM176 80C176 71.2 183.2 64 192 64C200.8 64 208 71.2 208 80L208 256L176 256L176 80z"/></svg>