<svg xmlns="http://www.w3.org/2000/svg" viewBox="0 0 640 640"><!--! Font Awesome Pro 7.1.0 by @fontawesome - https://fontawesome.com License - https://fontawesome.com/license (Commercial License) Copyright 2025 Fonticons, Inc. --><path fill="currentColor" d="M552 512C565.3 512 576 501.3 576 488C576 474.7 565.3 464 552 464C538.7 464 528 474.7 528 488C528 501.3 538.7 512 552 512zM443.3 331.3C449.5 325.1 449.5 314.9 443.3 308.7L299.3 164.7C293.1 158.5 282.9 158.5 276.7 164.7C270.5 170.9 270.5 181.1 276.7 187.3L393.4 304L80 304C71.2 304 64 311.2 64 320C64 328.8 71.2 336 80 336L393.4 336L276.7 452.7C270.5 458.9 270.5 469.1 276.7 475.3C282.9 481.5 293.1 481.5 299.3 475.3L443.3 331.3zM576 376C576 362.7 565.3 352 552 352C538.7 352 528 362.7 528 376C528 389.3 538.7 400 552 400C565.3 400 576 389.3 576 376zM552 288C565.3 288 576 277.3 576 264C576 250.7 565.3 240 552 240C538.7 240 528 250.7 528 264C528 277.3 538.7 288 552 288zM576 152C576 138.7 565.3 128 552 128C538.7 128 528 138.7 528 152C528 165.3 538.7 176 552 176C565.3 176 576 165.3 576 152z"/></svg>