<svg xmlns="http://www.w3.org/2000/svg" viewBox="0 0 640 640"><!--! Font Awesome Pro 7.1.0 by @fontawesome - https://fontawesome.com License - https://fontawesome.com/license (Commercial License) Copyright 2025 Fonticons, Inc. --><path fill="currentColor" d="M192.5 576C188.3 576 184.2 574.3 181.2 571.3L53.2 443.3C47 437.1 47 426.9 53.2 420.7C59.4 414.5 69.6 414.5 75.8 420.7L176.5 521.4L176.5 248C176.5 146.4 258.9 64 360.5 64C462.1 64 544.5 146.4 544.5 248L544.5 496L544.2 499.2C542.7 506.5 536.2 512 528.5 512C520.8 512 514.3 506.5 512.8 499.2L512.5 496L512.5 248C512.5 164.1 444.4 96 360.5 96C276.6 96 208.5 164.1 208.5 248L208.5 521.4L309.2 420.7L311.7 418.6C317.9 414.5 326.4 415.2 331.8 420.7C337.2 426.2 338 434.6 333.9 440.8L331.8 443.3L203.8 571.3C200.8 574.3 196.7 576 192.5 576z"/></svg>