<svg xmlns="http://www.w3.org/2000/svg" viewBox="0 0 640 640"><!--! Font Awesome Pro 7.1.0 by @fontawesome - https://fontawesome.com License - https://fontawesome.com/license (Commercial License) Copyright 2025 Fonticons, Inc. --><path fill="currentColor" d="M297.4 105.4C303.7 99.1 311.9 96 320 96C328.1 96 336.4 99.1 342.6 105.4L502.6 265.4C511.8 274.6 514.5 288.3 509.5 300.3C504.5 312.3 492.9 320 480 320L384 320L384 496C384 522.5 362.5 544 336 544L304 544C277.5 544 256 522.5 256 496L256 320L160 320C147.1 320 135.4 312.2 130.4 300.2C125.4 288.2 128.2 274.5 137.4 265.4L137.4 265.4L297.4 105.4zM480 288L320 128L160 288L272 288C280.8 288 288 295.2 288 304L288 496C288 504.8 295.2 512 304 512L336 512C344.8 512 352 504.8 352 496L352 304C352 295.2 359.2 288 368 288L480 288z"/></svg>