<svg xmlns="http://www.w3.org/2000/svg" viewBox="0 0 640 640"><!--! Font Awesome Pro 7.1.0 by @fontawesome - https://fontawesome.com License - https://fontawesome.com/license (Commercial License) Copyright 2025 Fonticons, Inc. --><path fill="currentColor" d="M203.3 100.7C197.1 94.5 186.9 94.5 180.7 100.7L84.7 196.7C78.5 202.9 78.5 213.1 84.7 219.3C90.9 225.5 101.1 225.5 107.3 219.3L176 150.6L176 528C176 536.8 183.2 544 192 544C200.8 544 208 536.8 208 528L208 150.6L276.7 219.3C282.9 225.5 293.1 225.5 299.3 219.3C305.5 213.1 305.5 202.9 299.3 196.7L203.3 100.7zM376 96C367.2 96 360 103.2 360 112C360 120.8 367.2 128 376 128L484.1 128L364.1 261.3C359.9 266 358.8 272.7 361.4 278.5C364 284.3 369.7 288 376 288L520 288C528.8 288 536 280.8 536 272C536 263.2 528.8 256 520 256L411.9 256L531.9 122.7C536.1 118 537.2 111.3 534.6 105.5C532 99.7 526.3 96 520 96L376 96zM462.3 360.8C459.6 355.4 454.1 352 448 352C441.9 352 436.4 355.4 433.7 360.8L369.8 488.6C369.7 488.8 369.6 489 369.5 489.2L353.7 520.9C349.7 528.8 353 538.4 360.9 542.4C368.8 546.4 378.4 543.1 382.4 535.2L394 512L502.2 512L513.8 535.2C517.8 543.1 527.4 546.3 535.3 542.4C543.2 538.5 546.4 528.8 542.5 520.9L526.7 489.2C526.6 489 526.5 488.8 526.4 488.6L462.3 360.8zM486.1 480L409.9 480L448 403.8L486.1 480z"/></svg>