<svg xmlns="http://www.w3.org/2000/svg" viewBox="0 0 640 640"><!--! Font Awesome Pro 7.1.0 by @fontawesome - https://fontawesome.com License - https://fontawesome.com/license (Commercial License) Copyright 2025 Fonticons, Inc. --><path fill="currentColor" d="M299.3 443.3L203.3 539.3C197.1 545.5 186.9 545.5 180.7 539.3L84.7 443.3C78.5 437.1 78.5 426.9 84.7 420.7C90.9 414.5 101.1 414.5 107.3 420.7L176 489.4L176 112C176 103.2 183.2 96 192 96C200.8 96 208 103.2 208 112L208 489.4L276.7 420.7C282.9 414.5 293.1 414.5 299.3 420.7C305.5 426.9 305.5 437.1 299.3 443.3zM384 272C384 280.8 391.2 288 400 288L528 288C536.8 288 544 280.8 544 272L544 144C544 135.2 536.8 128 528 128L400 128C391.2 128 384 135.2 384 144L384 272zM352 272L352 144C352 117.5 373.5 96 400 96L528 96C554.5 96 576 117.5 576 144L576 272C576 298.5 554.5 320 528 320L400 320C373.5 320 352 298.5 352 272zM384 496C384 504.8 391.2 512 400 512L464 512C472.8 512 480 504.8 480 496L480 432C480 423.2 472.8 416 464 416L400 416C391.2 416 384 423.2 384 432L384 496zM352 496L352 432C352 405.5 373.5 384 400 384L464 384C490.5 384 512 405.5 512 432L512 496C512 522.5 490.5 544 464 544L400 544C373.5 544 352 522.5 352 496z"/></svg>