<svg xmlns="http://www.w3.org/2000/svg" viewBox="0 0 640 640"><!--! Font Awesome Pro 7.1.0 by @fontawesome - https://fontawesome.com License - https://fontawesome.com/license (Commercial License) Copyright 2025 Fonticons, Inc. --><path fill="currentColor" d="M228.7 331.3C225.7 328.3 224 324.2 224 320C224 315.8 225.7 311.7 228.7 308.7L372.7 164.7C378.9 158.5 389.1 158.5 395.3 164.7C401.5 170.9 401.5 181.1 395.3 187.3L278.6 304L560 304C568.8 304 576 311.2 576 320C576 328.8 568.8 336 560 336L278.6 336L395.3 452.7C401.5 458.9 401.5 469.1 395.3 475.3C389.1 481.5 378.9 481.5 372.7 475.3L228.7 331.3zM240 512C248.8 512 256 519.2 256 528C256 536.8 248.8 544 240 544L160 544C107 544 64 501 64 448L64 192C64 139 107 96 160 96L240 96C248.8 96 256 103.2 256 112C256 120.8 248.8 128 240 128L160 128C124.7 128 96 156.7 96 192L96 448C96 483.3 124.7 512 160 512L240 512z"/></svg>