<svg xmlns="http://www.w3.org/2000/svg" viewBox="0 0 640 640"><!--! Font Awesome Pro 7.1.0 by @fontawesome - https://fontawesome.com License - https://fontawesome.com/license (Commercial License) Copyright 2025 Fonticons, Inc. --><path fill="currentColor" d="M112 64C103.2 64 96 71.2 96 80C96 88.8 103.2 96 112 96L528 96C536.8 96 544 88.8 544 80C544 71.2 536.8 64 528 64L112 64zM203.3 164.7C197.1 158.5 186.9 158.5 180.7 164.7L100.7 244.7C94.5 250.9 94.5 261.1 100.7 267.3C106.9 273.5 117.1 273.5 123.3 267.3L176 214.6L176 560C176 568.8 183.2 576 192 576C200.8 576 208 568.8 208 560L208 214.6L260.7 267.3C266.9 273.5 277.1 273.5 283.3 267.3C289.5 261.1 289.5 250.9 283.3 244.7L203.3 164.7zM459.3 164.7C453.1 158.5 442.9 158.5 436.7 164.7L356.7 244.7C350.5 250.9 350.5 261.1 356.7 267.3C362.9 273.5 373.1 273.5 379.3 267.3L432 214.6L432 560C432 568.8 439.2 576 448 576C456.8 576 464 568.8 464 560L464 214.6L516.7 267.3C522.9 273.5 533.1 273.5 539.3 267.3C545.5 261.1 545.5 250.9 539.3 244.7L459.3 164.7z"/></svg>