<svg xmlns="http://www.w3.org/2000/svg" viewBox="0 0 640 640"><!--! Font Awesome Pro 7.1.0 by @fontawesome - https://fontawesome.com License - https://fontawesome.com/license (Commercial License) Copyright 2025 Fonticons, Inc. --><path fill="currentColor" d="M80 576C71.2 576 64 568.8 64 560C64 551.2 71.2 544 80 544L560 544C568.8 544 576 551.2 576 560C576 568.8 568.8 576 560 576L80 576zM203.3 475.3C197.1 481.5 186.9 481.5 180.7 475.3L100.7 395.3C94.5 389.1 94.5 378.9 100.7 372.7C106.9 366.5 117.1 366.5 123.3 372.7L176 425.4L176 80C176 71.2 183.2 64 192 64C200.8 64 208 71.2 208 80L208 425.4L260.7 372.7C266.9 366.5 277.1 366.5 283.3 372.7C289.5 378.9 289.5 389.1 283.3 395.3L203.3 475.3zM459.3 475.3C453.1 481.5 442.9 481.5 436.7 475.3L356.7 395.3C350.5 389.1 350.5 378.9 356.7 372.7C362.9 366.5 373.1 366.5 379.3 372.7L432 425.4L432 80C432 71.2 439.2 64 448 64C456.8 64 464 71.2 464 80L464 425.4L516.7 372.7C522.9 366.5 533.1 366.5 539.3 372.7C545.5 378.9 545.5 389.1 539.3 395.3L459.3 475.3z"/></svg>