<svg xmlns="http://www.w3.org/2000/svg" viewBox="0 0 640 640"><!--! Font Awesome Pro 7.1.0 by @fontawesome - https://fontawesome.com License - https://fontawesome.com/license (Commercial License) Copyright 2025 Fonticons, Inc. --><path fill="currentColor" d="M203.3 100.7C197.1 94.5 186.9 94.5 180.7 100.7L84.7 196.7C78.5 202.9 78.5 213.1 84.7 219.3C90.9 225.5 101.1 225.5 107.3 219.3L176 150.6L176 528C176 536.8 183.2 544 192 544C200.8 544 208 536.8 208 528L208 150.6L276.7 219.3C282.9 225.5 293.1 225.5 299.3 219.3C305.5 213.1 305.5 202.9 299.3 196.7L203.3 100.7zM384 240L384 144C384 135.2 391.2 128 400 128L496 128C504.8 128 512 135.2 512 144L512 240C512 248.8 504.8 256 496 256L400 256C391.2 256 384 248.8 384 240zM448 387.5L522.7 512L373.3 512L448 387.5zM352 240C352 266.5 373.5 288 400 288L496 288C522.5 288 544 266.5 544 240L544 144C544 117.5 522.5 96 496 96L400 96C373.5 96 352 117.5 352 144L352 240zM339.6 506C337.3 509.9 336 514.4 336 518.9C336 532.7 347.2 544 361.1 544L535 544C548.8 544 560.1 532.8 560.1 518.9C560.1 514.4 558.9 509.9 556.5 506L472.2 365.7C467.1 357.2 457.9 352 448 352C438.1 352 428.9 357.2 423.8 365.7L339.6 506z"/></svg>