<svg xmlns="http://www.w3.org/2000/svg" viewBox="0 0 640 640"><!--! Font Awesome Pro 7.1.0 by @fontawesome - https://fontawesome.com License - https://fontawesome.com/license (Commercial License) Copyright 2025 Fonticons, Inc. --><path fill="currentColor" d="M105.4 342.6C99.1 336.4 96 328.1 96 320C96 311.9 99.1 303.6 105.4 297.4L265.4 137.4C274.6 128.2 288.3 125.5 300.3 130.5C312.3 135.5 320 147.1 320 160L320 256L496 256C522.5 256 544 277.5 544 304L544 336C544 362.5 522.5 384 496 384L320 384L320 480C320 492.9 312.2 504.6 300.2 509.6C288.2 514.6 274.5 511.8 265.3 502.7L265.3 502.7L105.3 342.7zM288 160L128 320L288 480L288 368C288 359.2 295.2 352 304 352L496 352C504.8 352 512 344.8 512 336L512 304C512 295.2 504.8 288 496 288L304 288C295.2 288 288 280.8 288 272L288 160z"/></svg>