<svg xmlns="http://www.w3.org/2000/svg" viewBox="0 0 640 640"><!--! Font Awesome Pro 7.1.0 by @fontawesome - https://fontawesome.com License - https://fontawesome.com/license (Commercial License) Copyright 2025 Fonticons, Inc. --><path fill="currentColor" d="M548.7 571.3C554.9 577.5 565.1 577.5 571.3 571.3C577.5 565.1 577.5 554.9 571.3 548.7L438.6 416L496 416C504.8 416 512 408.8 512 400C512 391.2 504.8 384 496 384L400 384C391.2 384 384 391.2 384 400L384 496C384 504.8 391.2 512 400 512C408.8 512 416 504.8 416 496L416 438.6L548.7 571.3zM240 128C231.2 128 224 135.2 224 144L224 201.4L91.3 68.7C85.1 62.5 74.9 62.5 68.7 68.7C62.5 74.9 62.5 85.1 68.7 91.3L201.4 224L144 224C135.2 224 128 231.2 128 240C128 248.8 135.2 256 144 256L240 256C248.8 256 256 248.8 256 240L256 144C256 135.2 248.8 128 240 128zM571.3 68.7C565.1 62.5 554.9 62.5 548.7 68.7L416 201.4L416 144C416 135.2 408.8 128 400 128C391.2 128 384 135.2 384 144L384 240C384 248.8 391.2 256 400 256L496 256C504.8 256 512 248.8 512 240C512 231.2 504.8 224 496 224L438.6 224L571.3 91.3C577.5 85.1 577.5 74.9 571.3 68.7zM144 416L201.4 416L68.7 548.7C62.5 554.9 62.5 565.1 68.7 571.3C74.9 577.5 85.1 577.5 91.3 571.3L224 438.6L224 496C224 504.8 231.2 512 240 512C248.8 512 256 504.8 256 496L256 400C256 391.2 248.8 384 240 384L144 384C135.2 384 128 391.2 128 400C128 408.8 135.2 416 144 416zM320 296C333.3 296 344 306.7 344 320C344 333.3 333.3 344 320 344C306.7 344 296 333.3 296 320C296 306.7 306.7 296 320 296zM320 376C350.9 376 376 350.9 376 320C376 289.1 350.9 264 320 264C289.1 264 264 289.1 264 320C264 350.9 289.1 376 320 376z"/></svg>