<svg xmlns="http://www.w3.org/2000/svg" viewBox="0 0 640 640"><!--! Font Awesome Pro 7.1.0 by @fontawesome - https://fontawesome.com License - https://fontawesome.com/license (Commercial License) Copyright 2025 Fonticons, Inc. --><path fill="currentColor" d="M448.5 64C452.7 64 456.8 65.7 459.8 68.7L587.8 196.7C594 202.9 594 213.1 587.8 219.3C581.6 225.5 571.4 225.5 565.2 219.3L464.5 118.6L464.5 392C464.5 493.6 382.1 576 280.5 576C178.9 576 96.5 493.6 96.5 392L96.5 144L96.8 140.8C98.3 133.5 104.8 128 112.5 128C120.2 128 126.7 133.5 128.2 140.8L128.5 144L128.5 392C128.5 475.9 196.6 544 280.5 544C364.4 544 432.5 475.9 432.5 392L432.5 118.6L331.8 219.3L329.3 221.4C323.1 225.5 314.6 224.8 309.2 219.3C303.8 213.8 303 205.4 307.1 199.2L309.2 196.7L437.2 68.7C440.2 65.7 444.3 64 448.5 64z"/></svg>