<svg xmlns="http://www.w3.org/2000/svg" viewBox="0 0 640 640"><!--! Font Awesome Pro 7.1.0 by @fontawesome - https://fontawesome.com License - https://fontawesome.com/license (Commercial License) Copyright 2025 Fonticons, Inc. --><path fill="currentColor" d="M544 496C544 504.8 551.2 512 560 512C568.8 512 576 504.8 576 496L576 400C576 347 533 304 480 304L118.6 304L235.3 187.3C241.5 181.1 241.5 170.9 235.3 164.7C229.1 158.5 218.9 158.5 212.7 164.7L68.7 308.7C65.7 311.7 64 315.8 64 320C64 324.2 65.7 328.3 68.7 331.3L212.7 475.3C218.9 481.5 229.1 481.5 235.3 475.3C241.5 469.1 241.5 458.9 235.3 452.7L118.6 336L480 336C515.3 336 544 364.7 544 400L544 496z"/></svg>