<svg xmlns="http://www.w3.org/2000/svg" viewBox="0 0 640 640"><!--! Font Awesome Pro 7.1.0 by @fontawesome - https://fontawesome.com License - https://fontawesome.com/license (Commercial License) Copyright 2025 Fonticons, Inc. --><path fill="currentColor" d="M192 96L320 96L320 192C320 227.3 348.7 256 384 256L480 256L480 512C480 529.7 465.7 544 448 544L192 544C174.3 544 160 529.7 160 512L160 464L128 464L128 512C128 547.3 156.7 576 192 576L448 576C483.3 576 512 547.3 512 512L512 250.5C512 233.5 505.3 217.2 493.3 205.2L370.7 82.7C358.7 70.7 342.5 64 325.5 64L192 64C156.7 64 128 92.7 128 128L128 336L160 336L160 128C160 110.3 174.3 96 192 96zM352 109.3L466.7 224L384 224C366.3 224 352 209.7 352 192L352 109.3zM64 400C64 408.8 71.2 416 80 416L329.4 416L284.7 460.7C278.5 466.9 278.5 477.1 284.7 483.3C290.9 489.5 301.1 489.5 307.3 483.3L379.3 411.3C385.5 405.1 385.5 394.9 379.3 388.7L307.3 316.7C301.1 310.5 290.9 310.5 284.7 316.7C278.5 322.9 278.5 333.1 284.7 339.3L329.4 384L80 384C71.2 384 64 391.2 64 400z"/></svg>