<svg xmlns="http://www.w3.org/2000/svg" viewBox="0 0 640 640"><!--! Font Awesome Pro 7.1.0 by @fontawesome - https://fontawesome.com License - https://fontawesome.com/license (Commercial License) Copyright 2025 Fonticons, Inc. --><path fill="currentColor" d="M496 544C504.8 544 512 551.2 512 560C512 568.8 504.8 576 496 576L400 576C347 576 304 533 304 480L304 118.6L187.3 235.3C181.1 241.5 170.9 241.5 164.7 235.3C158.5 229.1 158.5 218.9 164.7 212.7L308.7 68.7C311.7 65.7 315.8 64 320 64C324.2 64 328.3 65.7 331.3 68.7L475.3 212.7C481.5 218.9 481.5 229.1 475.3 235.3C469.1 241.5 458.9 241.5 452.7 235.3L336 118.6L336 480C336 515.3 364.7 544 400 544L496 544z"/></svg>