<svg xmlns="http://www.w3.org/2000/svg" viewBox="0 0 640 640"><!--! Font Awesome Pro 7.1.0 by @fontawesome - https://fontawesome.com License - https://fontawesome.com/license (Commercial License) Copyright 2025 Fonticons, Inc. --><path fill="currentColor" d="M512 240C512 248.8 519.2 256 528 256C536.8 256 544 248.8 544 240L544 160C544 107 501 64 448 64L192 64C139 64 96 107 96 160L96 240C96 248.8 103.2 256 112 256C120.8 256 128 248.8 128 240L128 160C128 124.7 156.7 96 192 96L448 96C483.3 96 512 124.7 512 160L512 240zM308.7 571.3C314.9 577.5 325.1 577.5 331.3 571.3L475.3 427.3C481.5 421.1 481.5 410.9 475.3 404.7C469.1 398.5 458.9 398.5 452.7 404.7L336 521.4L336 240C336 231.2 328.8 224 320 224C311.2 224 304 231.2 304 240L304 521.4L187.3 404.7C181.1 398.5 170.9 398.5 164.7 404.7C158.5 410.9 158.5 421.1 164.7 427.3L308.7 571.3z"/></svg>