<svg xmlns="http://www.w3.org/2000/svg" viewBox="0 0 640 640"><!--! Font Awesome Pro 7.1.0 by @fontawesome - https://fontawesome.com License - https://fontawesome.com/license (Commercial License) Copyright 2025 Fonticons, Inc. --><path fill="currentColor" d="M320 96C196.3 96 96 196.3 96 320C96 443.7 196.3 544 320 544C443.7 544 544 443.7 544 320C544 196.3 443.7 96 320 96zM320 576C178.6 576 64 461.4 64 320C64 178.6 178.6 64 320 64C461.4 64 576 178.6 576 320C576 461.4 461.4 576 320 576zM235.3 336L320 420.7L404.7 336L368 336C359.2 336 352 328.8 352 320L352 232C352 227.6 348.4 224 344 224L296 224C291.6 224 288 227.6 288 232L288 320C288 328.8 280.8 336 272 336L235.3 336zM441 345L337 449C327.6 458.4 312.4 458.4 303.1 449L199 345C192.1 338.1 190.1 327.8 193.8 318.8C197.5 309.8 206.3 304 216 304L256 304L256 232C256 209.9 273.9 192 296 192L344 192C366.1 192 384 209.9 384 232L384 304L424 304C433.7 304 442.5 309.8 446.2 318.8C449.9 327.8 447.9 338.1 441 345z"/></svg>