<svg xmlns="http://www.w3.org/2000/svg" viewBox="0 0 640 640"><!--! Font Awesome Pro 7.1.0 by @fontawesome - https://fontawesome.com License - https://fontawesome.com/license (Commercial License) Copyright 2025 Fonticons, Inc. --><path fill="currentColor" d="M576 144C576 135.2 568.8 128 560 128C551.2 128 544 135.2 544 144L544 496C544 504.8 551.2 512 560 512C568.8 512 576 504.8 576 496L576 144zM443.3 331.3C449.5 325.1 449.5 314.9 443.3 308.7L299.3 164.7C293.1 158.5 282.9 158.5 276.7 164.7C270.5 170.9 270.5 181.1 276.7 187.3L393.4 304L80 304C71.2 304 64 311.2 64 320C64 328.8 71.2 336 80 336L393.4 336L276.7 452.7C270.5 458.9 270.5 469.1 276.7 475.3C282.9 481.5 293.1 481.5 299.3 475.3L443.3 331.3z"/></svg>