<svg xmlns="http://www.w3.org/2000/svg" viewBox="0 0 640 640"><!--! Font Awesome Pro 7.1.0 by @fontawesome - https://fontawesome.com License - https://fontawesome.com/license (Commercial License) Copyright 2025 Fonticons, Inc. --><path fill="currentColor" d="M96 144C96 135.2 88.8 128 80 128C71.2 128 64 135.2 64 144L64 240C64 293 107 336 160 336L521.4 336L404.7 452.7C398.5 458.9 398.5 469.1 404.7 475.3C410.9 481.5 421.1 481.5 427.3 475.3L571.3 331.3C574.3 328.3 576 324.2 576 320C576 315.8 574.3 311.7 571.3 308.7L427.3 164.7C421.1 158.5 410.9 158.5 404.7 164.7C398.5 170.9 398.5 181.1 404.7 187.3L521.4 304L160 304C124.7 304 96 275.3 96 240L96 144z"/></svg>