<svg xmlns="http://www.w3.org/2000/svg" viewBox="0 0 640 640"><!--! Font Awesome Pro 7.1.0 by @fontawesome - https://fontawesome.com License - https://fontawesome.com/license (Commercial License) Copyright 2025 Fonticons, Inc. --><path fill="currentColor" d="M543.5 305.1C540 252.8 518.3 201.6 478.4 161.6C434.7 117.9 377.4 96 320 96C258 96 198.8 121.5 156.2 166.6L117.1 208L224 208C232.8 208 240 215.2 240 224C240 232.8 232.8 240 224 240L80 240C71.2 240 64 232.8 64 224L64 80C64 71.2 71.2 64 80 64C88.8 64 96 71.2 96 80L96 183.8L133 144.7C181.6 93.2 249.3 64.1 320 64.1C385.5 64.1 451 89.1 501 139.1C546.6 184.7 571.5 243.4 575.4 303.1C576 311.9 569.3 319.5 560.5 320.1C551.7 320.7 544.1 314 543.5 305.2zM96.5 335C100 387.3 121.7 438.5 161.6 478.4C205.3 522.1 262.6 544 320 544C382 544 441.2 518.5 483.8 473.4L522.9 432L416 432C407.2 432 400 424.8 400 416C400 407.2 407.2 400 416 400L560 400C568.8 400 576 407.2 576 416L576 560C576 568.8 568.8 576 560 576C551.2 576 544 568.8 544 560L544 456.2L507 495.3C458.4 546.8 390.7 575.9 320 575.9C254.5 575.9 189 550.9 139 500.9C93.4 455.3 68.6 396.6 64.6 336.9C64 328.1 70.7 320.5 79.5 319.9C88.3 319.3 95.9 326 96.5 334.8z"/></svg>