<svg xmlns="http://www.w3.org/2000/svg" viewBox="0 0 640 640"><!--! Font Awesome Pro 7.1.0 by @fontawesome - https://fontawesome.com License - https://fontawesome.com/license (Commercial License) Copyright 2025 Fonticons, Inc. --><path fill="currentColor" d="M64 144C64 135.2 71.2 128 80 128C88.8 128 96 135.2 96 144L96 496C96 504.8 88.8 512 80 512C71.2 512 64 504.8 64 496L64 144zM196.7 331.3C190.5 325.1 190.5 314.9 196.7 308.7L340.7 164.7C346.9 158.5 357.1 158.5 363.3 164.7C369.5 170.9 369.5 181.1 363.3 187.3L246.6 304L560 304C568.8 304 576 311.2 576 320C576 328.8 568.8 336 560 336L246.6 336L363.3 452.7C369.5 458.9 369.5 469.1 363.3 475.3C357.1 481.5 346.9 481.5 340.7 475.3L196.7 331.3z"/></svg>