<svg xmlns="http://www.w3.org/2000/svg" viewBox="0 0 640 640"><!--! Font Awesome Pro 7.1.0 by @fontawesome - https://fontawesome.com License - https://fontawesome.com/license (Commercial License) Copyright 2025 Fonticons, Inc. --><path fill="currentColor" d="M99.3 192L192 99.3L284.7 192L99.3 192zM290.3 224C306.7 224 320 210.7 320 194.3C320 186.4 316.9 178.9 311.3 173.3L209 71C204.5 66.5 198.4 64 192 64C185.6 64 179.5 66.5 175 71L72.7 173.4C67.1 178.9 64 186.5 64 194.3C64 210.7 77.3 224 93.7 224L176 224L176 560C176 568.8 183.2 576 192 576C200.8 576 208 568.8 208 560L208 224L290.3 224zM432 80L432 416L349.7 416C333.3 416 320 429.3 320 445.7C320 453.6 323.1 461.1 328.7 466.7L431 569C435.5 573.5 441.6 576 448 576C454.4 576 460.5 573.5 465 569L567.3 466.6C572.9 461 576 453.5 576 445.6C576 429.2 562.7 415.9 546.3 415.9L464 415.9L464 79.9C464 71.1 456.8 63.9 448 63.9C439.2 63.9 432 71.1 432 79.9zM448 540.7L355.3 448L540.7 448L448 540.7z"/></svg>