<svg xmlns="http://www.w3.org/2000/svg" viewBox="0 0 640 640"><!--! Font Awesome Pro 7.1.0 by @fontawesome - https://fontawesome.com License - https://fontawesome.com/license (Commercial License) Copyright 2025 Fonticons, Inc. --><path fill="currentColor" d="M539.3 171.3C545.5 165.1 545.5 154.9 539.3 148.7L443.3 52.7C437.1 46.5 426.9 46.5 420.7 52.7C414.5 58.9 414.5 69.1 420.7 75.3L489.4 144L256 144C150 144 64 230 64 336C64 344.8 71.2 352 80 352C88.8 352 96 344.8 96 336C96 247.6 167.6 176 256 176L489.4 176L420.7 244.7C414.5 250.9 414.5 261.1 420.7 267.3C426.9 273.5 437.1 273.5 443.3 267.3L539.3 171.3zM100.7 468.7C94.5 474.9 94.5 485.1 100.7 491.3L196.7 587.3C202.9 593.5 213.1 593.5 219.3 587.3C225.5 581.1 225.5 570.9 219.3 564.7L150.6 496L384 496C490 496 576 410 576 304C576 295.2 568.8 288 560 288C551.2 288 544 295.2 544 304C544 392.4 472.4 464 384 464L150.6 464L219.3 395.3C225.5 389.1 225.5 378.9 219.3 372.7C213.1 366.5 202.9 366.5 196.7 372.7L100.7 468.7z"/></svg>