<svg xmlns="http://www.w3.org/2000/svg" viewBox="0 0 640 640"><!--! Font Awesome Pro 7.1.0 by @fontawesome - https://fontawesome.com License - https://fontawesome.com/license (Commercial License) Copyright 2025 Fonticons, Inc. --><path fill="currentColor" d="M192.5 64C188.3 64 184.2 65.7 181.2 68.7L53.2 196.7C47 202.9 47 213.1 53.2 219.3C59.4 225.5 69.6 225.5 75.8 219.3L176.5 118.6L176.5 392C176.5 493.6 258.9 576 360.5 576C462.1 576 544.5 493.6 544.5 392L544.5 144L544.2 140.8C542.7 133.5 536.2 128 528.5 128C520.8 128 514.3 133.5 512.8 140.8L512.5 144L512.5 392C512.5 475.9 444.4 544 360.5 544C276.6 544 208.5 475.9 208.5 392L208.5 118.6L309.2 219.3L311.7 221.4C317.9 225.5 326.4 224.8 331.8 219.3C337.2 213.8 338 205.4 333.9 199.2L331.8 196.7L203.8 68.7C200.8 65.7 196.7 64 192.5 64z"/></svg>