<svg xmlns="http://www.w3.org/2000/svg" viewBox="0 0 640 640"><!--! Font Awesome Pro 7.1.0 by @fontawesome - https://fontawesome.com License - https://fontawesome.com/license (Commercial License) Copyright 2025 Fonticons, Inc. --><path fill="currentColor" d="M331.3 251.3L411.3 171.3C417.5 165.1 417.5 154.9 411.3 148.7C405.1 142.5 394.9 142.5 388.7 148.7L336 201.4L336 48C336 39.2 328.8 32 320 32C311.2 32 304 39.2 304 48L304 201.4L251.3 148.7C245.1 142.5 234.9 142.5 228.7 148.7C222.5 154.9 222.5 165.1 228.7 171.3L308.7 251.3C314.9 257.5 325.1 257.5 331.3 251.3zM331.3 388.7C325.1 382.5 314.9 382.5 308.7 388.7L228.7 468.7C222.5 474.9 222.5 485.1 228.7 491.3C234.9 497.5 245.1 497.5 251.3 491.3L304 438.6L304 592C304 600.8 311.2 608 320 608C328.8 608 336 600.8 336 592L336 438.6L388.7 491.3C394.9 497.5 405.1 497.5 411.3 491.3C417.5 485.1 417.5 474.9 411.3 468.7L331.3 388.7zM144 304C135.2 304 128 311.2 128 320C128 328.8 135.2 336 144 336L496 336C504.8 336 512 328.8 512 320C512 311.2 504.8 304 496 304L144 304z"/></svg>