<svg xmlns="http://www.w3.org/2000/svg" viewBox="0 0 640 640"><!--! Font Awesome Pro 7.1.0 by @fontawesome - https://fontawesome.com License - https://fontawesome.com/license (Commercial License) Copyright 2025 Fonticons, Inc. --><path fill="currentColor" d="M576 448C576 452.2 574.3 456.3 571.3 459.3L443.3 587.3C437.1 593.5 426.9 593.5 420.7 587.3C414.5 581.1 414.5 570.9 420.7 564.7L521.4 464L248 464C146.4 464 64 381.6 64 280C64 178.4 146.4 96 248 96L496 96L499.2 96.3C506.5 97.8 512 104.3 512 112C512 119.7 506.5 126.2 499.2 127.7L496 128L248 128C164.1 128 96 196.1 96 280C96 363.9 164.1 432 248 432L521.4 432L420.7 331.3L418.6 328.8C414.5 322.6 415.2 314.1 420.7 308.7C426.2 303.3 434.6 302.5 440.8 306.6L443.3 308.7L571.3 436.7C574.3 439.7 576 443.8 576 448z"/></svg>