<svg xmlns="http://www.w3.org/2000/svg" viewBox="0 0 640 640"><!--! Font Awesome Pro 7.1.0 by @fontawesome - https://fontawesome.com License - https://fontawesome.com/license (Commercial License) Copyright 2025 Fonticons, Inc. --><path fill="currentColor" d="M395.3 36.7C389.1 30.5 378.9 30.5 372.7 36.7L276.7 132.7C270.5 138.9 270.5 149.1 276.7 155.3C282.9 161.5 293.1 161.5 299.3 155.3L368 86.6L368 374.4C346.1 350.8 314.8 336 280 336L118.6 336L187.3 267.3C193.5 261.1 193.5 250.9 187.3 244.7C181.1 238.5 170.9 238.5 164.7 244.7L68.7 340.7C62.5 346.9 62.5 357.1 68.7 363.3L164.7 459.3C170.9 465.5 181.1 465.5 187.3 459.3C193.5 453.1 193.5 442.9 187.3 436.7L118.6 368L280 368C328.6 368 368 407.4 368 456C368 457.5 368.2 458.9 368.6 460.3C374.8 525.2 429.5 576 496 576L528 576C536.8 576 544 568.8 544 560C544 551.2 536.8 544 528 544L496 544C443 544 400 501 400 448L400 86.6L468.7 155.3C474.9 161.5 485.1 161.5 491.3 155.3C497.5 149.1 497.5 138.9 491.3 132.7L395.3 36.7z"/></svg>