<svg xmlns="http://www.w3.org/2000/svg" viewBox="0 0 640 640"><!--! Font Awesome Pro 7.1.0 by @fontawesome - https://fontawesome.com License - https://fontawesome.com/license (Commercial License) Copyright 2025 Fonticons, Inc. --><path fill="currentColor" d="M336 80C336 71.2 328.8 64 320 64C311.2 64 304 71.2 304 80L304 201.4L251.3 148.7C245.1 142.5 234.9 142.5 228.7 148.7C222.5 154.9 222.5 165.1 228.7 171.3L308.7 251.3C314.9 257.5 325.1 257.5 331.3 251.3L411.3 171.3C417.5 165.1 417.5 154.9 411.3 148.7C405.1 142.5 394.9 142.5 388.7 148.7L336 201.4L336 80zM352 320C352 302.3 337.7 288 320 288C302.3 288 288 302.3 288 320C288 337.7 302.3 352 320 352C337.7 352 352 337.7 352 320zM411.3 491.3C417.5 485.1 417.5 474.9 411.3 468.7L331.3 388.7C325.1 382.5 314.9 382.5 308.7 388.7L228.7 468.7C222.5 474.9 222.5 485.1 228.7 491.3C234.9 497.5 245.1 497.5 251.3 491.3L304 438.6L304 560C304 568.8 311.2 576 320 576C328.8 576 336 568.8 336 560L336 438.6L388.7 491.3C394.9 497.5 405.1 497.5 411.3 491.3zM148.7 228.7C142.5 234.9 142.5 245.1 148.7 251.3L201.4 304L80 304C71.2 304 64 311.2 64 320C64 328.8 71.2 336 80 336L201.4 336L148.7 388.7C142.5 394.9 142.5 405.1 148.7 411.3C154.9 417.5 165.1 417.5 171.3 411.3L251.3 331.3C257.5 325.1 257.5 314.9 251.3 308.7L171.3 228.7C165.1 222.5 154.9 222.5 148.7 228.7zM491.3 228.7C485.1 222.5 474.9 222.5 468.7 228.7L388.7 308.7C382.5 314.9 382.5 325.1 388.7 331.3L468.7 411.3C474.9 417.5 485.1 417.5 491.3 411.3C497.5 405.1 497.5 394.9 491.3 388.7L438.6 336L560 336C568.8 336 576 328.8 576 320C576 311.2 568.8 304 560 304L438.6 304L491.3 251.3C497.5 245.1 497.5 234.9 491.3 228.7z"/></svg>