<svg xmlns="http://www.w3.org/2000/svg" viewBox="0 0 640 640"><!--! Font Awesome Pro 7.1.0 by @fontawesome - https://fontawesome.com License - https://fontawesome.com/license (Commercial License) Copyright 2025 Fonticons, Inc. --><path fill="currentColor" d="M491.3 443.3L603.3 331.3C609.5 325.1 609.5 314.9 603.3 308.7L491.3 196.7C485.1 190.5 474.9 190.5 468.7 196.7C462.5 202.9 462.5 213.1 468.7 219.3L553.4 304L86.7 304L171.4 219.3C177.6 213.1 177.6 202.9 171.4 196.7C165.2 190.5 155 190.5 148.8 196.7L36.8 308.7C33.8 311.7 32.1 315.8 32.1 320C32.1 324.2 33.8 328.3 36.8 331.3L148.8 443.3C155 449.5 165.2 449.5 171.4 443.3C177.6 437.1 177.6 426.9 171.4 420.7L86.7 336L553.4 336L468.7 420.7C462.5 426.9 462.5 437.1 468.7 443.3C474.9 449.5 485.1 449.5 491.3 443.3z"/></svg>