<svg xmlns="http://www.w3.org/2000/svg" viewBox="0 0 640 640"><!--! Font Awesome Pro 7.1.0 by @fontawesome - https://fontawesome.com License - https://fontawesome.com/license (Commercial License) Copyright 2025 Fonticons, Inc. --><path fill="currentColor" d="M320 96C443.7 96 544 196.3 544 320C544 328.8 551.2 336 560 336C568.8 336 576 328.8 576 320C576 178.6 461.4 64 320 64C178.6 64 64 178.6 64 320C64 328.8 71.2 336 80 336C88.8 336 96 328.8 96 320C96 196.3 196.3 96 320 96zM443.3 459.3C449.5 453.1 449.5 442.9 443.3 436.7C437.1 430.5 426.9 430.5 420.7 436.7L336 521.4L336 240C336 231.2 328.8 224 320 224C311.2 224 304 231.2 304 240L304 521.4L219.3 436.7C213.1 430.5 202.9 430.5 196.7 436.7C190.5 442.9 190.5 453.1 196.7 459.3L308.7 571.3C314.9 577.5 325.1 577.5 331.3 571.3L443.3 459.3z"/></svg>