<svg xmlns="http://www.w3.org/2000/svg" viewBox="0 0 640 640"><!--! Font Awesome Pro 7.1.0 by @fontawesome - https://fontawesome.com License - https://fontawesome.com/license (Commercial License) Copyright 2025 Fonticons, Inc. --><path fill="currentColor" d="M331.3 68.7C325.1 62.5 314.9 62.5 308.7 68.7L164.7 212.7C158.5 218.9 158.5 229.1 164.7 235.3C170.9 241.5 181.1 241.5 187.3 235.3L304 118.6L304 400C304 408.8 311.2 416 320 416C328.8 416 336 408.8 336 400L336 118.6L452.7 235.3C458.9 241.5 469.1 241.5 475.3 235.3C481.5 229.1 481.5 218.9 475.3 212.7L331.3 68.7zM128 400C128 391.2 120.8 384 112 384C103.2 384 96 391.2 96 400L96 480C96 533 139 576 192 576L448 576C501 576 544 533 544 480L544 400C544 391.2 536.8 384 528 384C519.2 384 512 391.2 512 400L512 480C512 515.3 483.3 544 448 544L192 544C156.7 544 128 515.3 128 480L128 400z"/></svg>