<svg xmlns="http://www.w3.org/2000/svg" viewBox="0 0 640 640"><!--! Font Awesome Pro 7.1.0 by @fontawesome - https://fontawesome.com License - https://fontawesome.com/license (Commercial License) Copyright 2025 Fonticons, Inc. --><path fill="currentColor" d="M203.3 100.7C197.1 94.5 186.9 94.5 180.7 100.7L84.7 196.7C78.5 202.9 78.5 213.1 84.7 219.3C90.9 225.5 101.1 225.5 107.3 219.3L176 150.6L176 528C176 536.8 183.2 544 192 544C200.8 544 208 536.8 208 528L208 150.6L276.7 219.3C282.9 225.5 293.1 225.5 299.3 219.3C305.5 213.1 305.5 202.9 299.3 196.7L203.3 100.7zM384 272L384 144C384 135.2 391.2 128 400 128L528 128C536.8 128 544 135.2 544 144L544 272C544 280.8 536.8 288 528 288L400 288C391.2 288 384 280.8 384 272zM352 272C352 298.5 373.5 320 400 320L528 320C554.5 320 576 298.5 576 272L576 144C576 117.5 554.5 96 528 96L400 96C373.5 96 352 117.5 352 144L352 272zM384 496L384 432C384 423.2 391.2 416 400 416L464 416C472.8 416 480 423.2 480 432L480 496C480 504.8 472.8 512 464 512L400 512C391.2 512 384 504.8 384 496zM352 496C352 522.5 373.5 544 400 544L464 544C490.5 544 512 522.5 512 496L512 432C512 405.5 490.5 384 464 384L400 384C373.5 384 352 405.5 352 432L352 496z"/></svg>