<svg xmlns="http://www.w3.org/2000/svg" viewBox="0 0 640 640"><!--! Font Awesome Pro 7.1.0 by @fontawesome - https://fontawesome.com License - https://fontawesome.com/license (Commercial License) Copyright 2025 Fonticons, Inc. --><path fill="currentColor" d="M96 144C96 135.2 88.8 128 80 128C71.2 128 64 135.2 64 144L64 496C64 504.8 71.2 512 80 512C88.8 512 96 504.8 96 496L96 144zM571.3 331.3C577.5 325.1 577.5 314.9 571.3 308.7L427.3 164.7C421.1 158.5 410.9 158.5 404.7 164.7C398.5 170.9 398.5 181.1 404.7 187.3L521.4 304L208 304C199.2 304 192 311.2 192 320C192 328.8 199.2 336 208 336L521.4 336L404.7 452.7C398.5 458.9 398.5 469.1 404.7 475.3C410.9 481.5 421.1 481.5 427.3 475.3L571.3 331.3z"/></svg>