<svg xmlns="http://www.w3.org/2000/svg" viewBox="0 0 640 640"><!--! Font Awesome Pro 7.1.0 by @fontawesome - https://fontawesome.com License - https://fontawesome.com/license (Commercial License) Copyright 2025 Fonticons, Inc. --><path fill="currentColor" d="M128 552C128 565.3 138.7 576 152 576C165.3 576 176 565.3 176 552C176 538.7 165.3 528 152 528C138.7 528 128 538.7 128 552zM308.7 443.3C314.9 449.5 325.1 449.5 331.3 443.3L475.3 299.3C481.5 293.1 481.5 282.9 475.3 276.7C469.1 270.5 458.9 270.5 452.7 276.7L336 393.4L336 80C336 71.2 328.8 64 320 64C311.2 64 304 71.2 304 80L304 393.4L187.3 276.7C181.1 270.5 170.9 270.5 164.7 276.7C158.5 282.9 158.5 293.1 164.7 299.3L308.7 443.3zM264 576C277.3 576 288 565.3 288 552C288 538.7 277.3 528 264 528C250.7 528 240 538.7 240 552C240 565.3 250.7 576 264 576zM352 552C352 565.3 362.7 576 376 576C389.3 576 400 565.3 400 552C400 538.7 389.3 528 376 528C362.7 528 352 538.7 352 552zM488 576C501.3 576 512 565.3 512 552C512 538.7 501.3 528 488 528C474.7 528 464 538.7 464 552C464 565.3 474.7 576 488 576z"/></svg>