<svg xmlns="http://www.w3.org/2000/svg" viewBox="0 0 640 640"><!--! Font Awesome Pro 7.1.0 by @fontawesome - https://fontawesome.com License - https://fontawesome.com/license (Commercial License) Copyright 2025 Fonticons, Inc. --><path fill="currentColor" d="M146.5 67.7C122 57.5 93.9 69.1 83.7 93.5L9.8 270.8C3.3 286.4 0 303.1 0 320C0 390.7 57.3 448 128 448L208 448C249.5 448 285.7 425.4 305 392C315.7 373.6 312.7 351 299.2 336C312.7 321 315.6 298.4 305 280C299.5 270.5 292.6 261.8 284.6 254.4L315.6 246.6C341.3 240.2 357 214.1 350.5 188.4C344 162.7 318.1 147 292.4 153.4L275.6 157.6L285.6 149.8C306.5 133.5 310.2 103.3 293.8 82.4L293.8 82.4C277.5 61.5 247.3 57.8 226.4 74.2L176 113.7C176.7 94.3 165.5 75.6 146.5 67.7zM263.8 320L263.5 320L263.2 320C257.7 319.9 252.5 317 249.6 312C241.3 297.6 225.7 288 208 288C181.5 288 160 309.5 160 336C160 362.5 181.5 384 208 384C225.7 384 241.3 374.4 249.6 360C252.5 355 257.7 352.1 263.2 352L263.5 352L263.8 352C266.4 352 269 352.7 271.5 354.2C279.1 358.6 281.8 368.4 277.3 376.1C263.5 400 237.6 416.1 208 416.1L128 416.1C75 416.1 32 373.1 32 320.1C32 307.4 34.5 294.9 39.4 283.2L113.2 105.8C116.6 97.6 126 93.8 134.1 97.2C142.2 100.6 146.1 110 142.7 118.1L127.9 153.9C125.1 160.6 127.2 168.4 133 172.8C138.8 177.2 146.8 177.2 152.6 172.7L246.2 99.4C253.2 94 263.2 95.2 268.7 102.1C274.2 109 272.9 119.1 266 124.6L196.7 178.8C190.8 183.5 188.9 191.6 192.2 198.4C195.5 205.2 203.1 208.7 210.5 206.9L300.3 184.5C308.9 182.4 317.6 187.6 319.7 196.1C321.8 204.6 316.6 213.4 308.1 215.5L241.8 232.1C235.1 233.8 230.3 239.5 229.7 246.4C229.1 253.3 233.1 259.7 239.4 262.4C255.4 269.2 268.8 281.1 277.4 296.1C281.8 303.7 279.2 313.5 271.6 318C269.1 319.4 266.5 320.1 263.9 320.2zM221.9 328C223.6 330.9 225.5 333.6 227.7 336C225.6 338.4 223.6 341.1 221.9 344C219.1 348.9 213.9 352 208 352C199.2 352 192 344.8 192 336C192 327.2 199.2 320 208 320C213.9 320 219.1 323.2 221.9 328zM493.5 572.3C518 582.5 546.1 570.9 556.3 546.5L630.1 369.3C636.6 353.7 639.9 337 639.9 320.1C639.9 249.4 582.6 192.1 511.9 192.1L431.9 192.1C390.4 192.1 354.2 214.7 334.9 248.1C324.2 266.5 327.2 289.1 340.7 304.1C327.2 319.1 324.3 341.7 334.9 360.1C340.4 369.6 347.3 378.3 355.3 385.7L324.3 393.5C298.6 399.9 282.9 426 289.4 451.7C295.9 477.4 321.9 493.1 347.6 486.6L364.4 482.4L354.4 490.2C333.5 506.5 329.8 536.7 346.2 557.6C362.6 578.5 392.7 582.2 413.6 565.8L464 526.3C463.3 545.7 474.6 564.4 493.5 572.3zM376.2 320L376.5 320L376.8 320C382.3 320.1 387.5 323 390.4 328C398.7 342.4 414.3 352 432 352C458.5 352 480 330.5 480 304C480 277.5 458.5 256 432 256C414.3 256 398.7 265.6 390.4 280C387.5 285 382.3 287.9 376.8 288L376.5 288L376.2 288C373.6 288 371 287.3 368.5 285.8C360.9 281.4 358.2 271.6 362.7 263.9C376.5 240 402.4 223.9 432 223.9L512 223.9C565 223.9 608 266.9 608 319.9C608 332.6 605.5 345.1 600.6 356.8L526.8 534.2C523.4 542.4 514 546.2 505.9 542.8C497.8 539.4 493.9 530 497.3 521.9L512.2 486.1C515 479.4 512.9 471.6 507.1 467.2C501.3 462.8 493.3 462.8 487.5 467.3L393.9 540.6C386.9 546 376.9 544.8 371.4 537.9C365.9 531 367.2 520.9 374.1 515.4L443.4 461.2C449.3 456.5 451.2 448.4 447.9 441.6C444.6 434.8 437 431.3 429.6 433.1L339.8 455.5C331.2 457.6 322.5 452.4 320.4 443.9C318.3 435.4 323.5 426.6 332 424.5L398.3 407.9C405 406.2 409.8 400.5 410.4 393.6C411 386.7 407 380.3 400.7 377.6C384.7 370.8 371.3 358.9 362.7 343.9C358.3 336.3 360.9 326.5 368.5 322C371 320.6 373.6 319.9 376.2 319.8zM418.1 312C416.4 309.1 414.5 306.4 412.3 304C414.4 301.6 416.4 298.9 418.1 296C420.9 291.1 426.1 288 432 288C440.8 288 448 295.2 448 304C448 312.8 440.8 320 432 320C426.1 320 420.9 316.8 418.1 312z"/></svg>