<svg xmlns="http://www.w3.org/2000/svg" viewBox="0 0 640 640"><!--! Font Awesome Pro 7.1.0 by @fontawesome - https://fontawesome.com License - https://fontawesome.com/license (Commercial License) Copyright 2025 Fonticons, Inc. --><path fill="currentColor" d="M414 72.2C409.7 79.9 412.5 89.7 420.2 94C494 135 543.9 213.7 543.9 304C543.9 312.8 551.1 320 559.9 320C568.7 320 575.9 312.8 575.9 304C575.9 201.6 519.3 112.4 435.7 66C428 61.7 418.2 64.5 413.9 72.2zM160 304C160 224.5 224.5 160 304 160C383.5 160 448 224.5 448 304C448 345.9 430.1 383.7 401.5 410C391.4 419.2 384 432.6 384 448C384 501 341 544 288 544L272 544C263.2 544 256 551.2 256 560C256 568.8 263.2 576 272 576L288 576C358.7 576 416 518.7 416 448C416 443.2 418.4 437.9 423.1 433.6C458 401.5 480 355.3 480 304C480 206.8 401.2 128 304 128C206.8 128 128 206.8 128 304C128 312.8 135.2 320 144 320C152.8 320 160 312.8 160 304zM224 440C237.3 440 248 429.3 248 416C248 402.7 237.3 392 224 392C210.7 392 200 402.7 200 416C200 429.3 210.7 440 224 440zM96 568C109.3 568 120 557.3 120 544C120 530.7 109.3 520 96 520C82.7 520 72 530.7 72 544C72 557.3 82.7 568 96 568zM116.7 436.7C110.5 442.9 110.5 453.1 116.7 459.3L180.7 523.3C186.9 529.5 197.1 529.5 203.3 523.3C209.5 517.1 209.5 506.9 203.3 500.7L139.3 436.7C133.1 430.5 122.9 430.5 116.7 436.7zM224 304C224 259.8 259.8 224 304 224C348.2 224 384 259.8 384 304C384 312.8 391.2 320 400 320C408.8 320 416 312.8 416 304C416 242.1 365.9 192 304 192C242.1 192 192 242.1 192 304C192 312.8 199.2 320 208 320C216.8 320 224 312.8 224 304z"/></svg>