<svg xmlns="http://www.w3.org/2000/svg" viewBox="0 0 640 640"><!--! Font Awesome Pro 7.1.0 by @fontawesome - https://fontawesome.com License - https://fontawesome.com/license (Commercial License) Copyright 2025 Fonticons, Inc. --><path fill="currentColor" d="M320 64C328.8 64 336 71.2 336 80L336 292.3L520 186.1C527.7 181.7 537.4 184.3 541.9 192C546.4 199.7 543.7 209.4 536 213.9L352 320L536 426.1C543.7 430.5 546.3 440.3 541.9 448C537.5 455.7 527.7 458.3 520 453.9L336 347.7L336 560C336 568.8 328.8 576 320 576C311.2 576 304 568.8 304 560L304 347.7L120 453.9C112.3 458.3 102.6 455.7 98.1 448C93.6 440.3 96.4 430.6 104 426.1L288 320L104 213.9C96.4 209.4 93.7 199.7 98.1 192C102.5 184.3 112.3 181.7 120 186.1L304 292.3L304 80C304 71.2 311.2 64 320 64z"/></svg>