<svg xmlns="http://www.w3.org/2000/svg" viewBox="0 0 640 640"><!--! Font Awesome Pro 7.1.0 by @fontawesome - https://fontawesome.com License - https://fontawesome.com/license (Commercial License) Copyright 2025 Fonticons, Inc. --><path fill="currentColor" d="M239.6 502.1C188.8 519 157.3 512.2 142.9 497.7C128.5 483.2 121.6 451.7 138.5 401C143.9 384.8 151.4 367.7 161 350.1C177.8 373.9 197.7 397.5 220.4 420.2C243.1 442.9 266.7 462.8 290.5 479.6C272.9 489.2 255.8 496.8 239.6 502.1zM120.2 119.7C81 158.9 92.1 237.9 141.3 320C92.1 402.1 81 481.1 120.2 520.3C159.4 559.5 238.4 548.4 320.5 499.2C402.6 548.4 481.6 559.5 520.8 520.3C560 481.1 548.9 402.1 499.7 320C548.9 237.9 560 158.9 520.8 119.7C481.6 80.5 402.6 91.6 320.5 140.8C238.4 91.6 159.4 80.5 120.2 119.7zM243 397.5C217.7 372.2 196.4 345.9 179.2 320C196.4 294.1 217.8 267.7 243 242.5C268.2 217.3 294.6 195.9 320.5 178.7C346.4 195.9 372.8 217.3 398 242.5C423.2 267.7 444.6 294.1 461.8 320C444.6 345.9 423.2 372.3 398 397.5C372.8 422.7 346.4 444.1 320.5 461.3C294.6 444.1 268.2 422.7 243 397.5zM220.3 219.8C197.6 242.5 177.7 266.1 160.9 289.9C151.3 272.3 143.7 255.2 138.4 239C121.5 188.2 128.4 156.7 142.8 142.3C157.2 127.9 188.8 121 239.5 137.9C255.7 143.3 272.8 150.8 290.4 160.4C266.6 177.2 243 197.1 220.3 219.8zM420.6 219.8C397.9 197.1 374.3 177.2 350.5 160.4C368.1 150.8 385.2 143.2 401.4 137.9C452.2 121 483.7 127.9 498.1 142.3C512.5 156.7 519.4 188.3 502.5 239C497.1 255.2 489.6 272.3 480 289.9C463.2 266.1 443.3 242.5 420.6 219.8zM420.6 420.1C443.3 397.4 463.2 373.8 480 350C489.6 367.6 497.2 384.7 502.5 400.9C519.4 451.7 512.6 483.2 498.1 497.6C483.6 512 452.1 518.9 401.4 502C385.2 496.6 368.1 489.1 350.5 479.5C374.3 462.7 397.9 442.8 420.6 420.1zM320.5 344C333.8 343.7 344.3 332.8 344 319.5C343.7 306.2 332.8 295.7 319.5 296C306.2 296.3 295.7 307.2 296 320.5C296.3 333.8 307.2 344.3 320.5 344z"/></svg>