<svg xmlns="http://www.w3.org/2000/svg" viewBox="0 0 640 640"><!--! Font Awesome Pro 7.1.0 by @fontawesome - https://fontawesome.com License - https://fontawesome.com/license (Commercial License) Copyright 2025 Fonticons, Inc. --><path fill="currentColor" d="M59.3 36.8C53.1 30.6 42.9 30.6 36.7 36.8C30.5 43 30.5 53.2 36.7 59.4L580.7 603.4C586.9 609.6 597.1 609.6 603.3 603.4C609.5 597.2 609.5 587 603.3 580.8L531.5 509C557.3 500.8 576 476.6 576 448L576 192C576 156.7 547.3 128 512 128L150.5 128L59.3 36.8zM182.5 160L512 160C529.7 160 544 174.3 544 192L544 448C544 465.7 529.7 480 512 480L502.5 480L433.7 411.2C460.7 400.8 479.9 374.6 479.9 344L479.9 296C479.9 256.2 447.7 224 407.9 224L351.9 224C343.1 224 335.9 231.2 335.9 240L336 313.5L182.5 160zM406.5 384L368 345.5L368 256L408 256C430.1 256 448 273.9 448 296L448 344C448 366.1 430.1 384 408 384L406.5 384zM71.5 162C66.7 171 64 181.2 64 192L64 448C64 483.3 92.7 512 128 512L421.5 512L389.5 480L128 480C110.3 480 96 465.7 96 448L96 192C96 190.3 96.1 188.6 96.4 186.9L71.5 162zM167.5 258C162.7 267 160 277.2 160 288L160 400C160 408.8 167.2 416 176 416C184.8 416 192 408.8 192 400L192 352L261.5 352L229.5 320L192 320L192 288C192 286.3 192.1 284.6 192.4 282.9L167.5 258zM272 362.5L272 400C272 408.8 279.2 416 288 416C296.8 416 304 408.8 304 400L304 394.5L272 362.5z"/></svg>