<svg xmlns="http://www.w3.org/2000/svg" viewBox="0 0 640 640"><!--! Font Awesome Pro 7.1.0 by @fontawesome - https://fontawesome.com License - https://fontawesome.com/license (Commercial License) Copyright 2025 Fonticons, Inc. --><path fill="currentColor" d="M380.4 304L259.6 304L320 140.2L380.4 304zM414.5 304L344 112.7C340.3 102.7 330.7 96 320 96C309.3 96 299.7 102.7 296 112.7L225.5 304L128 304C119.2 304 112 311.2 112 320C112 328.8 119.2 336 128 336L213.7 336L190.1 400L128 400C119.2 400 112 407.2 112 416C112 424.8 119.2 432 128 432L178.3 432L145 522.5C141.9 530.8 146.2 540 154.5 543C162.8 546 172 541.8 175 533.5L212.4 432L427.6 432L465 533.5C468.1 541.8 477.3 546 485.5 543C493.7 540 498 530.7 495 522.5L461.7 432L512 432C520.8 432 528 424.8 528 416C528 407.2 520.8 400 512 400L449.9 400L426.3 336L512 336C520.8 336 528 328.8 528 320C528 311.2 520.8 304 512 304L414.5 304zM392.2 336L415.8 400L224.3 400L247.9 336L392.3 336z"/></svg>