<svg xmlns="http://www.w3.org/2000/svg" viewBox="0 0 640 640"><!--! Font Awesome Pro 7.1.0 by @fontawesome - https://fontawesome.com License - https://fontawesome.com/license (Commercial License) Copyright 2025 Fonticons, Inc. --><path fill="currentColor" d="M448 96L448 128.2C394.4 131.6 352 176.2 352 230.6C352 280.8 388.3 323.6 437.8 331.8L485 339.7C519.1 345.4 544 374.8 544 409.4C544 448.4 512.4 480 473.4 480L392 480C383.2 480 376 487.2 376 496C376 504.8 383.2 512 392 512L448 512L448 544C448 552.8 455.2 560 464 560C472.8 560 480 552.8 480 544L480 511.8C533.6 508.4 576 463.8 576 409.4C576 359.2 539.7 316.4 490.2 308.2L443 300.3C408.9 294.6 384 265.2 384 230.6C384 191.6 415.6 160 454.6 160L520 160C528.8 160 536 152.8 536 144C536 135.2 528.8 128 520 128L480 128L480 96C480 87.2 472.8 80 464 80C455.2 80 448 87.2 448 96zM258.3 415.8L288.5 532C290.7 540.6 299.5 545.7 308 543.5C316.5 541.3 321.7 532.5 319.5 524L217.5 131.7C214.5 120.1 204 112 192 112C180 112 169.5 120.1 166.5 131.7L64.5 524C62.3 532.6 67.4 541.3 76 543.5C84.6 545.7 93.3 540.6 95.5 532L125.7 415.8C126.5 415.9 127.2 416 128 416L256 416C256.8 416 257.6 415.9 258.3 415.8zM250 384L134 384L192 160.8L250 384z"/></svg>