<svg xmlns="http://www.w3.org/2000/svg" viewBox="0 0 640 640"><!--! Font Awesome Pro 7.1.0 by @fontawesome - https://fontawesome.com License - https://fontawesome.com/license (Commercial License) Copyright 2025 Fonticons, Inc. --><path fill="currentColor" d="M172.9 171.8L144.8 256L495.1 256L467 171.8C458.3 145.6 433.9 128 406.3 128L233.7 128C206.2 128 181.7 145.6 173 171.8zM110.3 258.5L142.6 161.6C155.7 122.4 192.3 96 233.7 96L406.4 96C447.7 96 484.4 122.4 497.5 161.6L529.8 258.4C556.5 266.1 576.1 290.7 576.1 319.9L576.1 527.9C576.1 536.7 568.9 543.9 560.1 543.9C551.3 543.9 544.1 536.7 544.1 527.9L544.1 479.9L96.1 479.9L96.1 527.9C96.1 536.7 88.9 543.9 80.1 543.9C71.3 543.9 64 536.8 64 528L64 320C64 290.8 83.6 266.2 110.3 258.5zM128 288C110.3 288 96 302.3 96 320L96 448L544 448L544 320C544 302.3 529.7 288 512 288L128 288zM168 344C181.3 344 192 354.7 192 368C192 381.3 181.3 392 168 392C154.7 392 144 381.3 144 368C144 354.7 154.7 344 168 344zM448 368C448 354.7 458.7 344 472 344C485.3 344 496 354.7 496 368C496 381.3 485.3 392 472 392C458.7 392 448 381.3 448 368z"/></svg>