<svg xmlns="http://www.w3.org/2000/svg" viewBox="0 0 640 640"><!--! Font Awesome Pro 7.1.0 by @fontawesome - https://fontawesome.com License - https://fontawesome.com/license (Commercial License) Copyright 2025 Fonticons, Inc. --><path fill="currentColor" d="M544 208C544 242.8 528.1 274 503.1 294.6C480.8 313 460.4 339.3 454 372.2C444.6 419.9 423 466 396.5 492.5C327.8 561.2 216.3 561.2 147.6 492.5C78.9 423.8 78.9 312.3 147.6 243.6C174.1 217.1 220.1 195.5 267.9 186.1C300.8 179.7 327.2 159.3 345.5 137C366.1 112 397.2 96.1 432.1 96.1C494 96.1 544.1 146.2 544.1 208.1zM485.3 378.3C489.9 354.8 504.9 334.4 523.4 319.2C555.5 292.8 576 252.8 576 207.9C576 128.4 511.5 63.9 432 63.9C387.2 63.9 347.1 84.4 320.7 116.5C305.5 135 285.1 150 261.6 154.6C209.7 164.8 157.1 188.6 124.9 220.9C43.7 302.1 43.7 433.8 124.9 515.1C206.1 596.4 337.8 596.3 419.1 515.1C451.4 482.8 475.2 430.2 485.4 378.4zM240.1 304.1C278.3 265.9 328.2 263.7 352.2 287.7C376.2 311.7 374 361.6 335.8 399.8C297.6 438 247.7 440.2 223.7 416.2C199.7 392.2 201.9 342.3 240.1 304.1zM374.9 265.1C333.5 223.7 262.8 236.3 217.5 281.5C172.2 326.7 159.7 397.5 201.1 438.9C242.5 480.3 313.2 467.7 358.5 422.5C403.8 377.3 416.3 306.5 374.9 265.1z"/></svg>