<svg xmlns="http://www.w3.org/2000/svg" viewBox="0 0 640 640"><!--! Font Awesome Pro 7.1.0 by @fontawesome - https://fontawesome.com License - https://fontawesome.com/license (Commercial License) Copyright 2025 Fonticons, Inc. --><path fill="currentColor" d="M176 96C167.2 96 160 103.2 160 112L160 528C160 536.8 167.2 544 176 544L352 544C422.7 544 480 486.7 480 416C480 363.2 448 317.8 402.3 298.3C430 277.9 448 245.1 448 208C448 146.1 397.9 96 336 96L176 96zM352 320C405 320 448 363 448 416C448 469 405 512 352 512L192 512L192 320L352 320zM336 288L192 288L192 128L336 128C380.2 128 416 163.8 416 208C416 252.2 380.2 288 336 288z"/></svg>