<svg xmlns="http://www.w3.org/2000/svg" viewBox="0 0 640 640"><!--! Font Awesome Pro 7.1.0 by @fontawesome - https://fontawesome.com License - https://fontawesome.com/license (Commercial License) Copyright 2025 Fonticons, Inc. --><path fill="currentColor" d="M320 192C346.5 192 368 170.5 368 144C368 117.5 346.5 96 320 96C293.5 96 272 117.5 272 144C272 170.5 293.5 192 320 192zM320 64C364.2 64 400 99.8 400 144C400 188.2 364.2 224 320 224C275.8 224 240 188.2 240 144C240 99.8 275.8 64 320 64zM142.1 210.8C162.6 187.7 198 185.6 221.2 206.1L245.4 227.6C265.9 245.9 292.5 256 320 256C347.5 256 374.1 245.9 394.6 227.6L418.8 206.1C441.9 185.6 477.3 187.6 497.9 210.8C518.5 234 516.4 269.3 493.3 289.9L469 311.3C452.9 325.6 435.1 337.3 416 346.4L416 378.7L465.9 434.8C482.8 453.8 484.8 481.9 470.6 503.1L438.6 551.1C421.4 576.8 386.7 583.8 360.9 566.6C335.1 549.4 328.2 514.7 345.4 488.9L353.4 476.9L334.8 456L305.1 456L286.5 476.9L294.5 488.9C311.7 514.6 304.7 549.4 279 566.6C253.3 583.8 218.5 576.8 201.3 551.1L169.3 503.1C155.2 481.9 157.1 453.9 174 434.8L223.9 378.7L223.9 346.4C204.8 337.4 186.9 325.6 170.9 311.3L146.8 289.9C123.7 269.4 121.6 234 142.1 210.8zM199.9 230.1C190 221.3 174.8 222.2 166 232.1C157.2 242 158.1 257.2 168 266L192.2 287.5C208.3 301.8 226.6 313.2 246.1 321.3C252.1 323.8 255.9 329.6 256 336L384 336C384 329.5 387.9 323.7 393.9 321.3C413.5 313.2 431.7 301.8 447.8 287.5L472 266C481.9 257.2 482.8 242 474 232.1C465.2 222.2 450 221.3 440.1 230.1L415.9 251.6C389.5 275 355.4 288 320 288C284.6 288 250.5 275 224.1 251.5L199.9 230.1zM384 368L256 368L256 384.8C256 385 256 385.2 256 385.4L294.9 424.3C295.9 424.1 296.9 424 297.9 424L342 424C343 424 344 424.1 345 424.3L384 385.4C384 385.2 384 385 384 384.8L384 368zM402.7 411.9L368.7 445.9L385.5 464.9C390.3 470.3 390.9 478.3 386.9 484.4L372 506.7C364.6 517.7 367.6 532.6 378.7 540C389.8 547.4 404.6 544.4 412 533.3L444 485.3C450.1 476.2 449.2 464.2 442 456L402.8 411.9zM271.3 445.9L237.3 411.9L198.1 456C190.8 464.2 190 476.2 196.1 485.3L228.1 533.3C235.5 544.3 250.4 547.3 261.4 540C272.4 532.7 275.4 517.7 268.1 506.7L253.2 484.4C249.2 478.3 249.7 470.3 254.6 464.9L271.4 445.9z"/></svg>