<svg xmlns="http://www.w3.org/2000/svg" viewBox="0 0 640 640"><!--! Font Awesome Pro 7.1.0 by @fontawesome - https://fontawesome.com License - https://fontawesome.com/license (Commercial License) Copyright 2025 Fonticons, Inc. --><path fill="currentColor" d="M288 96L352 96C360.8 96 368 103.2 368 112L368 144L272 144L272 112C272 103.2 279.2 96 288 96zM240 112L240 144L224 144C153.3 144 96 201.3 96 272L96 512C96 547.3 124.7 576 160 576L480 576C515.3 576 544 547.3 544 512L544 272C544 201.3 486.7 144 416 144L400 144L400 112C400 85.5 378.5 64 352 64L288 64C261.5 64 240 85.5 240 112zM416 176C469 176 512 219 512 272L512 512C512 529.7 497.7 544 480 544L448 544L448 384C448 348.7 419.3 320 384 320L256 320C220.7 320 192 348.7 192 384L192 544L160 544C142.3 544 128 529.7 128 512L128 272C128 219 171 176 224 176L416 176zM416 544L224 544L224 384C224 366.3 238.3 352 256 352L384 352C401.7 352 416 366.3 416 384L416 544zM240 224C231.2 224 224 231.2 224 240C224 248.8 231.2 256 240 256L400 256C408.8 256 416 248.8 416 240C416 231.2 408.8 224 400 224L240 224z"/></svg>