<svg xmlns="http://www.w3.org/2000/svg" viewBox="0 0 640 640"><!--! Font Awesome Pro 7.1.0 by @fontawesome - https://fontawesome.com License - https://fontawesome.com/license (Commercial License) Copyright 2025 Fonticons, Inc. --><path fill="currentColor" d="M344.9 96.7C300.7 126.9 264.9 167.7 240.6 215.4L217.3 261.2C196.2 302.7 165.3 338.4 127.3 365.3L68 407.2C44.6 423.8 41.7 457.4 62 477.7L168.7 584.3C184.4 600 209.1 602.3 227.5 589.8L295.6 543.3C339.8 513.1 375.6 472.3 399.9 424.6L423.2 378.8C444.3 337.3 475.2 301.6 513.2 274.7L572.5 232.7C595.9 216.1 598.8 182.5 578.5 162.2L471.8 55.7C456.1 40 431.4 37.7 413 50.2L344.9 96.7zM269.2 229.9C291 187 323.2 150.3 363 123.2L431.1 76.7C436.8 72.8 444.4 73.5 449.2 78.4L493.2 122.4L415 172.7C365.9 204.3 325.8 248.1 298.8 299.9L274.7 346C254.3 385.2 225.5 419.4 190.5 446.3L125.7 496.1L84.6 455C78.4 448.8 79.2 438.4 86.4 433.3L145.7 391.3C187.9 361.4 222.3 321.7 245.7 275.6L269 229.8zM148.6 519L210.1 471.7C248.8 441.9 280.5 404.1 303.1 360.8L327.2 314.6C351.6 267.7 387.9 228.1 432.3 199.5L516.4 145.4L555.8 184.8C562 191 561.2 201.4 554 206.5L494.7 248.5C452.4 278.4 418.1 318.1 394.7 364.2L371.4 410C349.6 452.9 317.3 489.6 277.6 516.7L209.5 563.2C203.8 567.1 196.2 566.4 191.4 561.5L148.6 519z"/></svg>