<svg xmlns="http://www.w3.org/2000/svg" viewBox="0 0 640 640"><!--! Font Awesome Pro 7.1.0 by @fontawesome - https://fontawesome.com License - https://fontawesome.com/license (Commercial License) Copyright 2025 Fonticons, Inc. --><path fill="currentColor" d="M512 440C538.2 440 560.9 458 566.9 483.5L591.6 588.3L592 591.5C592.2 598.9 587.2 605.7 579.7 607.5C572.2 609.3 564.6 605.4 561.5 598.7L560.4 595.6L552 559.9L528 559.9L528 591.9C528 600.7 520.8 607.9 512 607.9C503.2 607.9 496 600.7 496 591.9L496 559.9L472 559.9L463.6 595.6C461.6 604.2 453 609.5 444.4 607.5C435.8 605.5 430.5 596.9 432.5 588.3L457.2 483.4C463.2 457.9 485.9 439.9 512.1 439.9zM439.9 48.2C479.7 49.9 517.7 64.6 546.6 93.5C577.4 124.3 592.1 165.4 592.1 208.2L591.8 218.4C589.1 269.5 565.8 322.3 524 364.1C449.4 438.7 336.9 455.2 265.4 397.3L206.2 456.5C216.9 471.1 216.6 491.3 205 505.4L202.3 508.4L132.2 578.5C117.6 593.1 94.4 594.1 78.7 581.3L75.7 578.5L61.6 564.4C46 548.8 46 523.5 61.6 507.8L131.7 437.7L134.7 434.9C148.8 423.4 169 423 183.6 433.7L242.7 374.6C220.9 347.6 209.6 314.4 208.1 279.9L207.9 271.9C207.9 217.7 231.4 160.6 275.9 116.1C320.4 71.6 377.8 48 431.9 48L439.9 48.2zM165.7 460.3C163 457.6 158.7 457.2 155.6 459.3L154.4 460.3L84.3 530.4C81.2 533.5 81.2 538.6 84.3 541.7L98.4 555.8L99.6 556.8C102.7 558.8 106.9 558.5 109.7 555.8L179.8 485.7C182.5 483 182.9 478.7 180.8 475.6L179.8 474.3L165.7 460.2zM512 472C500.7 472 490.8 479.8 488.2 490.8L479.5 528L544.5 528L535.7 490.8C533.1 479.8 523.3 472 511.9 472zM431.9 80C386.8 80 337.7 99.7 298.7 138.7C259.7 177.7 240 226.8 240 271.9L240.2 278.5C241.6 311.3 253.6 341.4 276.2 363.9C330.3 418 431 411.8 501.4 341.4C538 304.8 557.5 259.4 559.8 216.7L560 208.2C560 172.8 547.9 140.2 523.9 116.2C501.4 93.7 471.3 81.7 438.5 80.2L431.9 80z"/></svg>