<svg xmlns="http://www.w3.org/2000/svg" viewBox="0 0 640 640"><!--! Font Awesome Pro 7.1.0 by @fontawesome - https://fontawesome.com License - https://fontawesome.com/license (Commercial License) Copyright 2025 Fonticons, Inc. --><path fill="currentColor" d="M153 160L487 160L499.6 210.3C507.8 243.3 512 277.2 512 311.2L512 328.9C512 362.9 507.8 396.8 499.6 429.8L487 480L153 480L140.4 429.7C132.2 396.7 128 362.9 128 328.8L128 311.1C128 277.1 132.2 243.2 140.4 210.2L153 160zM494.9 128L145.1 128L128.8 103.5C128.3 102.7 128 101.8 128 100.8C128 98.1 130.2 96 132.8 96L507.1 96C509.8 96 511.9 98.2 511.9 100.8C511.9 101.8 511.6 102.7 511.1 103.5L494.9 128zM145.1 512L494.8 512L511.1 536.5C511.6 537.3 511.9 538.2 511.9 539.2C511.9 541.9 509.7 544 507.1 544L132.8 544C130.1 544 128 541.8 128 539.2C128 538.2 128.3 537.3 128.8 536.5L145.1 512zM102.2 121.3L122.2 151.3L109.4 202.5C100.5 238 96 274.5 96 311.2L96 328.9C96 365.5 100.5 402 109.4 437.5L122.2 488.7L102.2 518.7C98.2 524.8 96 531.9 96 539.2C96 559.5 112.5 576 132.8 576L507.1 576C527.4 576 543.9 559.5 543.9 539.2C543.9 531.9 541.7 524.8 537.7 518.8L517.7 488.8L530.5 437.6C539.4 402.1 543.9 365.6 543.9 328.9L543.9 311.2C543.9 274.6 539.4 238.1 530.5 202.5L517.7 151.3L537.7 121.3C541.7 115.2 543.9 108.1 543.9 100.9C543.9 80.6 527.4 64.1 507.1 64.1L132.8 64C112.5 64 96 80.5 96 100.8C96 108.1 98.2 115.2 102.2 121.3zM336 383C399.1 375.1 448 321.3 448 256L448 254.4C448 237.6 434.4 224 417.6 224L408.7 224C371.5 224 339.8 241.9 320 268.5C300.2 241.9 268.5 224 231.3 224L222.4 224C205.6 224 192 237.6 192 254.4L192 256C192 321.3 240.9 375.1 304 383L304 416C304 424.8 311.2 432 320 432C328.8 432 336 424.8 336 416L336 383zM304 350.7C258.6 343.1 224 303.6 224 256L231.3 256C264.9 256 292.3 276.5 304 304.4L304 350.6zM336 350.7L336 304.5C347.7 276.6 375.1 256.1 408.7 256.1L416 256.1C416 303.7 381.4 343.2 336 350.8z"/></svg>