<svg xmlns="http://www.w3.org/2000/svg" viewBox="0 0 640 640"><!--! Font Awesome Pro 7.1.0 by @fontawesome - https://fontawesome.com License - https://fontawesome.com/license (Commercial License) Copyright 2025 Fonticons, Inc. --><path fill="currentColor" d="M608 272C608 174.8 529.2 96 432 96C388.9 96 349.4 111.5 318.9 137.2C308.3 132.1 297.2 127.7 285.9 124.1C323.5 87 375.1 64.1 432.1 64.1C547 64.1 640.1 157.2 640.1 272.1C640.1 384.9 550.4 476.7 438.4 480C443.6 469.4 448 458.4 451.7 447C539.7 437.2 608.1 362.7 608.1 272.1zM364.6 148.4L382.2 147.9C388.4 147.7 394.3 145.8 399.4 142.3L413.9 132.3C424.8 124.8 439.2 124.8 450.1 132.3L464.6 142.3C469.7 145.8 475.6 147.7 481.8 147.9L499.4 148.4C512.6 148.8 524.2 157.2 528.7 169.7L534.6 186.3C536.7 192.1 540.4 197.2 545.2 200.9L559.2 211.6C569.7 219.7 574.1 233.3 570.4 246L565.4 262.9C563.7 268.8 563.7 275.1 565.4 281L570.4 297.9C574.1 310.6 569.7 324.2 559.2 332.3L545.2 343C540.3 346.8 536.6 351.8 534.6 357.6L528.7 374.2C524.3 386.7 512.6 395.1 499.4 395.5L481.8 396C475.6 396.2 469.7 398.1 464.6 401.6L461.5 403.7C463.1 392 464 380.1 464 367.9L464 366.7C469.5 365 475.2 364.1 480.9 363.9L498.5 363.4L504.4 346.8C508.5 335.2 515.9 325 525.7 317.5L539.7 306.8L534.7 289.9C531.2 278.1 531.2 265.5 534.7 253.7L539.7 236.8L525.7 226.1C515.9 218.6 508.6 208.4 504.4 196.8L498.5 180.2L480.9 179.7C468.6 179.4 456.6 175.5 446.5 168.5L432 158.5L417.5 168.5C407.3 175.5 395.4 179.3 383.1 179.7L381.8 179.7C371.3 170 360 161.2 348 153.4C352.8 150.2 358.6 148.4 364.6 148.2zM384 368C384 270.8 305.2 192 208 192C110.8 192 32 270.8 32 368C32 465.2 110.8 544 208 544C305.2 544 384 465.2 384 368zM0 368C0 253.1 93.1 160 208 160C322.9 160 416 253.1 416 368C416 482.9 322.9 576 208 576C93.1 576 0 482.9 0 368zM208 288C252.2 288 288 323.8 288 368C288 412.2 252.2 448 208 448C163.8 448 128 412.2 128 368C128 323.8 163.8 288 208 288zM256 368C256 341.5 234.5 320 208 320C181.5 320 160 341.5 160 368C160 394.5 181.5 416 208 416C234.5 416 256 394.5 256 368zM128 256C128 247.2 135.2 240 144 240C152.8 240 160 247.2 160 256C160 264.8 152.8 272 144 272C135.2 272 128 264.8 128 256zM320 288C328.8 288 336 295.2 336 304C336 312.8 328.8 320 320 320C311.2 320 304 312.8 304 304C304 295.2 311.2 288 320 288zM112 448C120.8 448 128 455.2 128 464C128 472.8 120.8 480 112 480C103.2 480 96 472.8 96 464C96 455.2 103.2 448 112 448zM240 480C248.8 480 256 487.2 256 496C256 504.8 248.8 512 240 512C231.2 512 224 504.8 224 496C224 487.2 231.2 480 240 480zM288 464C288 455.2 295.2 448 304 448C312.8 448 320 455.2 320 464C320 472.8 312.8 480 304 480C295.2 480 288 472.8 288 464zM80 320C88.8 320 96 327.2 96 336C96 344.8 88.8 352 80 352C71.2 352 64 344.8 64 336C64 327.2 71.2 320 80 320z"/></svg>