<svg xmlns="http://www.w3.org/2000/svg" viewBox="0 0 640 640"><!--! Font Awesome Pro 7.1.0 by @fontawesome - https://fontawesome.com License - https://fontawesome.com/license (Commercial License) Copyright 2025 Fonticons, Inc. --><path fill="currentColor" d="M192 128L192 160L320 160L320 128C320 92.7 291.3 64 256 64C220.7 64 192 92.7 192 128zM160 160L160 128C160 75 203 32 256 32C309 32 352 75 352 128L352 160L416 160C451.3 160 480 188.7 480 224L480 240L448 240L448 224C448 206.3 433.7 192 416 192L96 192C78.3 192 64 206.3 64 224L64 448C64 465.7 78.3 480 96 480L176 480L176 512L96 512C60.7 512 32 483.3 32 448L32 224C32 188.7 60.7 160 96 160L160 160zM256 352L256 512C256 529.7 270.3 544 288 544L544 544C561.7 544 576 529.7 576 512L576 352C576 334.3 561.7 320 544 320L288 320C270.3 320 256 334.3 256 352zM224 352C224 316.7 252.7 288 288 288L544 288C579.3 288 608 316.7 608 352L608 512C608 547.3 579.3 576 544 576L288 576C252.7 576 224 547.3 224 512L224 352zM336 368C344.8 368 352 375.2 352 384L352 400C352 435.3 380.7 464 416 464C451.3 464 480 435.3 480 400L480 384C480 375.2 487.2 368 496 368C504.8 368 512 375.2 512 384L512 400C512 453 469 496 416 496C363 496 320 453 320 400L320 384C320 375.2 327.2 368 336 368z"/></svg>