<svg xmlns="http://www.w3.org/2000/svg" viewBox="0 0 640 640"><!--! Font Awesome Pro 7.1.0 by @fontawesome - https://fontawesome.com License - https://fontawesome.com/license (Commercial License) Copyright 2025 Fonticons, Inc. --><path fill="currentColor" d="M304 64C295.2 64 288 71.2 288 80L288 128L186.2 128C171.7 128 160 139.7 160 154.2L160 482.9C160 499 173 512 189.1 512L288 512L288 560C288 568.8 295.2 576 304 576C312.8 576 320 568.8 320 560L320 512L376 512C433.4 512 480 465.4 480 408C480 363.3 451.8 325.2 412.2 310.5C434.1 291.4 448 263.3 448 232C448 174.6 401.4 128 344 128L320 128L320 80C320 71.2 312.8 64 304 64zM288 160L288 304L192 304L192 160L288 160zM320 304L320 160L344 160C383.8 160 416 192.2 416 232C416 271.8 383.8 304 344 304L320 304zM288 336L288 480L192 480L192 336L288 336zM320 480L320 336L376 336C415.8 336 448 368.2 448 408C448 447.8 415.8 480 376 480L320 480z"/></svg>