<svg xmlns="http://www.w3.org/2000/svg" viewBox="0 0 640 640"><!--! Font Awesome Pro 7.1.0 by @fontawesome - https://fontawesome.com License - https://fontawesome.com/license (Commercial License) Copyright 2025 Fonticons, Inc. --><path fill="currentColor" d="M96.6 336L543.5 336C541.9 358.4 537 379.9 529.4 400L110.7 400C103 379.9 98.1 358.4 96.6 336zM225.8 523.3L250.3 432L333.5 432L303.9 543.4C276.2 541.4 249.9 534.4 225.9 523.3zM197 507.2C167.9 488 143.5 462.2 126 432L217.2 432L197 507.2zM514 432C478 494.3 412.7 537.7 337 543.4L366.6 432L514 432zM444 544C522.7 500.3 576 416.4 576 320C576 178.6 461.4 64 320 64C178.6 64 64 178.6 64 320C64 461.4 178.6 576 320 576L560 576C568.8 576 576 568.8 576 560C576 551.2 568.8 544 560 544L444 544zM543.4 304L96.6 304C98.2 281.6 103.1 260.1 110.7 240L529.3 240C537 260.1 541.9 281.6 543.4 304zM307.4 96.3L277.2 208L126 208C162.7 144.4 229.8 100.6 307.4 96.3zM340.4 96.9C367.8 99.4 393.8 106.8 417.5 118.3L393.5 208L310.4 208L340.5 96.9zM514 208L426.6 208L446.2 134.9C473.9 153.8 497.2 178.8 514 208z"/></svg>