<svg xmlns="http://www.w3.org/2000/svg" viewBox="0 0 640 640"><!--! Font Awesome Pro 7.1.0 by @fontawesome - https://fontawesome.com License - https://fontawesome.com/license (Commercial License) Copyright 2025 Fonticons, Inc. --><path fill="currentColor" d="M263.5 349.4C294 313.1 320 268.5 320 224C320 153.3 262.7 96 192 96C121.3 96 64 153.3 64 224C64 268.5 90 313.1 120.5 349.4C135.3 367 150.2 381.4 161.4 391.4C171.3 400.3 181.5 408 192 416C202.6 408.1 212.8 400.3 222.6 391.4C233.8 381.4 248.7 366.9 263.5 349.4zM166.5 480L217.6 480L192.1 441.7L166.6 480zM352 224C352 336 224 432 224 432L251.9 473.8C254.6 477.8 256 482.6 256 487.4C256 501 245 512 231.4 512L152.5 512C138.9 512 127.9 501 127.9 487.4C127.9 482.6 129.3 477.8 132 473.8L160 432C160 432 32 336 32 224C32 135.6 103.6 64 192 64C280.4 64 352 135.6 352 224zM416 496C416 496 363.8 456.8 326 399.3C331.8 392.3 337.7 384.9 343.3 377.1C344.5 375.5 345.6 373.9 346.8 372.2C355.5 386.7 365.7 400.5 376.4 413.3C391.2 430.9 406.1 445.3 417.3 455.3C427.2 464.1 437.4 472 447.9 479.9C458.5 472 468.7 464.2 478.5 455.3C489.7 445.3 504.6 430.8 519.4 413.3C549.9 377.1 575.9 332.4 575.9 287.9C575.9 217.2 518.6 159.9 447.9 159.9C428.4 159.9 409.9 164.3 393.4 172.1C390.7 161.6 387.2 151.4 383 141.7C402.8 132.9 424.8 128 447.9 128C536.3 128 607.9 199.6 607.9 288C607.9 400 479.9 496 479.9 496L507.8 537.8C510.5 541.8 511.9 546.6 511.9 551.4C511.9 565 500.9 576 487.3 576L408.4 576C394.8 576 383.8 565 383.8 551.4C383.8 546.6 385.2 541.8 387.9 537.8L416 496zM448 505.7L422.5 544L473.6 544L448.1 505.7zM176 176C158.3 176 144 190.3 144 208C144 216.8 136.8 224 128 224C119.2 224 112 216.8 112 208C112 172.7 140.7 144 176 144C184.8 144 192 151.2 192 160C192 168.8 184.8 176 176 176z"/></svg>