<svg xmlns="http://www.w3.org/2000/svg" viewBox="0 0 640 640"><!--! Font Awesome Pro 7.1.0 by @fontawesome - https://fontawesome.com License - https://fontawesome.com/license (Commercial License) Copyright 2025 Fonticons, Inc. --><path fill="currentColor" d="M448 96C465.7 96 480 110.3 480 128L480 512C480 529.7 465.7 544 448 544L192 544C174.3 544 160 529.7 160 512L160 128C160 110.3 174.3 96 192 96L448 96zM192 64C156.7 64 128 92.7 128 128L128 512C128 547.3 156.7 576 192 576L448 576C483.3 576 512 547.3 512 512L512 128C512 92.7 483.3 64 448 64L192 64zM288 192C288 200.8 295.2 208 304 208L416 208C424.8 208 432 200.8 432 192C432 183.2 424.8 176 416 176L304 176C295.2 176 288 183.2 288 192zM288 320C288 328.8 295.2 336 304 336L416 336C424.8 336 432 328.8 432 320C432 311.2 424.8 304 416 304L304 304C295.2 304 288 311.2 288 320zM288 448C288 456.8 295.2 464 304 464L416 464C424.8 464 432 456.8 432 448C432 439.2 424.8 432 416 432L304 432C295.2 432 288 439.2 288 448zM224 168C210.7 168 200 178.7 200 192C200 205.3 210.7 216 224 216C237.3 216 248 205.3 248 192C248 178.7 237.3 168 224 168zM200 320C200 333.3 210.7 344 224 344C237.3 344 248 333.3 248 320C248 306.7 237.3 296 224 296C210.7 296 200 306.7 200 320zM224 424C210.7 424 200 434.7 200 448C200 461.3 210.7 472 224 472C237.3 472 248 461.3 248 448C248 434.7 237.3 424 224 424z"/></svg>