<svg xmlns="http://www.w3.org/2000/svg" viewBox="0 0 640 640"><!--! Font Awesome Pro 7.1.0 by @fontawesome - https://fontawesome.com License - https://fontawesome.com/license (Commercial License) Copyright 2025 Fonticons, Inc. --><path fill="currentColor" d="M128 256C128 150 214 64 320 64C426 64 512 150 512 256C512 384 352 496 352 496L379.9 537.8C382.6 541.8 384 546.6 384 551.4C384 565 373 576 359.4 576L280.5 576C266.9 576 255.9 565 255.9 551.4C255.9 546.6 257.3 541.8 260 537.8L288 496C288 496 128 384 128 256zM320 480C320 480 480 368 480 256C480 167.6 408.4 96 320 96C231.6 96 160 167.6 160 256C160 368 320 480 320 480zM296 544L344 544L320 504L296 544zM240 240C240 248.8 232.8 256 224 256C215.2 256 208 248.8 208 240C208 187 251 144 304 144C312.8 144 320 151.2 320 160C320 168.8 312.8 176 304 176C268.7 176 240 204.7 240 240z"/></svg>