<svg xmlns="http://www.w3.org/2000/svg" viewBox="0 0 640 640"><!--! Font Awesome Pro 7.1.0 by @fontawesome - https://fontawesome.com License - https://fontawesome.com/license (Commercial License) Copyright 2025 Fonticons, Inc. --><path fill="currentColor" d="M320 544C196.3 544 96 443.7 96 320C96 263.9 116.6 212.6 150.7 173.3L466.7 489.3C427.4 523.4 376.1 544 320 544zM400 377.4L400 362.2L446 368C454.8 369.1 462.8 362.9 463.9 354.1C465 345.3 458.8 337.3 450 336.2L400 330L400 308.6L451.9 295.6C460.5 293.5 465.7 284.8 463.5 276.2C461.3 267.6 452.7 262.4 444.1 264.6L400 275.6L400 272.1C400 264.7 399 257.4 397.1 250.6L440.9 221.4C448.3 216.5 450.2 206.6 445.3 199.2C440.4 191.8 430.5 189.9 423.1 194.8L382.3 222C367.6 203.8 345.2 192.1 320 192.1C291.4 192.1 266.3 207.1 252.2 229.7L173.3 150.7C212.6 116.6 263.9 96 320 96C443.7 96 544 196.3 544 320C544 376.1 523.4 427.4 489.3 466.7L400 377.4zM275.8 253.2C283.1 236 300.1 224 320 224C346.5 224 368 245.5 368 272L368 345.4L275.8 253.2zM320 576C461.4 576 576 461.4 576 320C576 178.6 461.4 64 320 64C178.6 64 64 178.6 64 320C64 461.4 178.6 576 320 576zM272 368L272 362.5L239.4 329.9L190 336.1C181.2 337.2 175 345.2 176.1 354C177.2 362.8 185.2 369 194 367.9L240 362.1L240 368C240 375.4 241 382.7 242.9 389.5L199.1 418.7C191.7 423.6 189.8 433.5 194.7 440.9C199.6 448.3 209.5 450.2 216.9 445.3L257.7 418.1C272.4 436.3 294.8 448 320 448C331.1 448 341.6 445.8 351.2 441.7L325.2 415.7C323.5 415.9 321.7 416 320 416C293.5 416 272 394.5 272 368z"/></svg>