<svg xmlns="http://www.w3.org/2000/svg" viewBox="0 0 640 640"><!--! Font Awesome Pro 7.1.0 by @fontawesome - https://fontawesome.com License - https://fontawesome.com/license (Commercial License) Copyright 2025 Fonticons, Inc. --><path fill="currentColor" d="M489.3 466.7L396 373.4C426.9 357.4 448 325.2 448 288C448 235 405 192 352 192L264 192C250.7 192 240 202.7 240 216L240 217.4L173.3 150.7C212.6 116.6 263.9 96 320 96C443.7 96 544 196.3 544 320C544 376.1 523.4 427.4 489.3 466.7zM466.7 489.3C427.4 523.4 376.1 544 320 544C196.3 544 96 443.7 96 320C96 263.9 116.6 212.6 150.7 173.3L240 262.6L240 432C240 440.8 247.2 448 256 448C264.8 448 272 440.8 272 432L272 384L352 384C355 384 358 383.9 361 383.6L466.7 489.3zM371.6 349L272 249.4L272 224L352 224C387.3 224 416 252.7 416 288C416 316.5 397.3 340.7 371.6 349zM272 294.6L329.4 352L272 352L272 294.6zM320 576C461.4 576 576 461.4 576 320C576 178.6 461.4 64 320 64C178.6 64 64 178.6 64 320C64 461.4 178.6 576 320 576z"/></svg>