<svg xmlns="http://www.w3.org/2000/svg" viewBox="0 0 640 640"><!--! Font Awesome Pro 7.1.0 by @fontawesome - https://fontawesome.com License - https://fontawesome.com/license (Commercial License) Copyright 2025 Fonticons, Inc. --><path fill="currentColor" d="M480 192L480 448L544 448C561.7 448 576 433.7 576 416L576 224C576 206.3 561.7 192 544 192L480 192zM448 192L192 192L192 448L448 448L448 192zM160 448L160 192L96 192C78.3 192 64 206.3 64 224L64 416C64 433.7 78.3 448 96 448L160 448zM160 160L544 160C579.3 160 608 188.7 608 224L608 416C608 451.3 579.3 480 544 480L96 480C60.7 480 32 451.3 32 416L32 224C32 188.7 60.7 160 96 160L160 160zM272 248C285.3 248 296 258.7 296 272C296 285.3 285.3 296 272 296C258.7 296 248 285.3 248 272C248 258.7 258.7 248 272 248zM344 272C344 258.7 354.7 248 368 248C381.3 248 392 258.7 392 272C392 285.3 381.3 296 368 296C354.7 296 344 285.3 344 272zM272 344C285.3 344 296 354.7 296 368C296 381.3 285.3 392 272 392C258.7 392 248 381.3 248 368C248 354.7 258.7 344 272 344zM344 368C344 354.7 354.7 344 368 344C381.3 344 392 354.7 392 368C392 381.3 381.3 392 368 392C354.7 392 344 381.3 344 368z"/></svg>