<svg xmlns="http://www.w3.org/2000/svg" viewBox="0 0 640 640"><!--! Font Awesome Pro 7.1.0 by @fontawesome - https://fontawesome.com License - https://fontawesome.com/license (Commercial License) Copyright 2025 Fonticons, Inc. --><path fill="currentColor" d="M178 96.1C169.2 95 161.2 101.2 160.1 110C159 118.8 165.2 126.8 174 127.9L181.9 128.9C205.9 131.9 223.9 152.3 223.9 176.5L223.9 256L175.9 256C167.1 256 159.9 263.2 159.9 272C159.9 280.8 167.1 288 175.9 288L223.9 288L223.9 464C223.9 508.2 259.7 544 303.9 544L335.9 544C433.1 544 511.9 465.2 511.9 368L511.9 336C511.9 291.8 476.1 256 431.9 256L399.9 256C391.1 256 383.9 263.2 383.9 272C383.9 280.8 391.1 288 399.9 288L431.9 288C458.4 288 479.9 309.5 479.9 336L479.9 368C479.9 447.5 415.4 512 335.9 512L303.9 512C277.4 512 255.9 490.5 255.9 464L255.9 288L303.9 288C312.7 288 319.9 280.8 319.9 272C319.9 263.2 312.7 256 303.9 256L255.9 256L255.9 176.5C255.9 136.2 225.9 102.1 185.8 97.1L177.9 96.1z"/></svg>