<svg xmlns="http://www.w3.org/2000/svg" viewBox="0 0 640 640"><!--! Font Awesome Pro 7.1.0 by @fontawesome - https://fontawesome.com License - https://fontawesome.com/license (Commercial License) Copyright 2025 Fonticons, Inc. --><path fill="currentColor" d="M509.7 97C510.3 96.4 511.2 96 512 96C512.8 96 513.7 96.3 514.3 97L543 125.7C543.6 126.3 544 127.2 544 128C544 128.8 543.7 129.7 543 130.3L504 169.3L461.1 178.8L470.6 135.9L509.6 96.9zM440.4 124.5L425.4 192L363 254.4C337.8 233.6 306.4 220 272.1 216.7L272.1 207.9C272.1 199.1 264.9 191.9 256.1 191.9C247.3 191.9 240.1 199.1 240.1 207.9L240.1 216.7C205.7 219.9 174.3 233.6 149.2 254.4L143 248.2C136.8 242 126.6 242 120.4 248.2C114.2 254.4 114.2 264.6 120.4 270.8L126.6 277C105.6 302.2 92 333.6 88.8 368L80 368C71.2 368 64 375.2 64 384C64 392.8 71.2 400 80 400L88.8 400C92 434.4 105.7 465.8 126.5 490.9L120.3 497.1C114.1 503.3 114.1 513.5 120.3 519.7C126.5 525.9 136.7 525.9 142.9 519.7L149.1 513.5C174.3 534.3 205.7 547.9 240 551.2L240 560C240 568.8 247.2 576 256 576C264.8 576 272 568.8 272 560L272 551.2C306.4 548 337.8 534.3 362.9 513.5L369.1 519.7C375.3 525.9 385.5 525.9 391.7 519.7C397.9 513.5 397.9 503.3 391.7 497.1L385.5 490.9C406.3 465.7 419.9 434.3 423.2 400L432 400C440.8 400 448 392.8 448 384C448 375.2 440.8 368 432 368L423.2 368C420 333.6 406.3 302.2 385.5 277.1L447.9 214.7L515.4 199.7C518.4 199 521.1 197.5 523.2 195.4L565.7 153C572.3 146.4 576 137.4 576 128C576 118.6 572.3 109.7 565.7 103L537 74.3C530.3 67.7 521.4 64 512 64C502.6 64 493.7 67.7 487 74.3L444.7 116.7C442.5 118.9 441.1 121.6 440.4 124.5zM256 248C331.1 248 392 308.9 392 384C392 459.1 331.1 520 256 520C180.9 520 120 459.1 120 384C120 308.9 180.9 248 256 248zM188.7 380.7C182.5 386.9 182.5 397.1 188.7 403.3L236.7 451.3C242.9 457.5 253.1 457.5 259.3 451.3C265.5 445.1 265.5 434.9 259.3 428.7L211.3 380.7C205.1 374.5 194.9 374.5 188.7 380.7z"/></svg>