<svg xmlns="http://www.w3.org/2000/svg" viewBox="0 0 640 640"><!--! Font Awesome Pro 7.1.0 by @fontawesome - https://fontawesome.com License - https://fontawesome.com/license (Commercial License) Copyright 2025 Fonticons, Inc. --><path fill="currentColor" d="M512 192C529.7 192 544 206.3 544 224L544 416C544 433.7 529.7 448 512 448L336 448L336 192L512 192zM270.6 192L304 192L304 273.4L129.4 448L128 448C110.3 448 96 433.7 96 416L96 366.6L270.6 192zM225.3 192L96 321.4L96 224C96 206.3 110.3 192 128 192L225.4 192zM174.6 448L304 318.6L304 448L174.6 448zM128 160C92.7 160 64 188.7 64 224L64 416C64 451.3 92.7 480 128 480L512 480C547.3 480 576 451.3 576 416L576 224C576 188.7 547.3 160 512 160L128 160z"/></svg>