<svg xmlns="http://www.w3.org/2000/svg" viewBox="0 0 640 640"><!--! Font Awesome Pro 7.1.0 by @fontawesome - https://fontawesome.com License - https://fontawesome.com/license (Commercial License) Copyright 2025 Fonticons, Inc. --><path fill="currentColor" d="M470.6 192L214.6 448L361.3 448L543.9 265.4L543.9 224C543.9 206.3 529.6 192 511.9 192L470.5 192zM425.3 192L278.6 192L96 374.6L96 416C96 433.7 110.3 448 128 448L169.4 448L425.4 192zM96 329.4L233.4 192L128 192C110.3 192 96 206.3 96 224L96 329.4zM406.6 448L512 448C529.7 448 544 433.7 544 416L544 310.6L406.6 448zM64 224C64 188.7 92.7 160 128 160L512 160C547.3 160 576 188.7 576 224L576 416C576 451.3 547.3 480 512 480L128 480C92.7 480 64 451.3 64 416L64 224z"/></svg>