<svg xmlns="http://www.w3.org/2000/svg" viewBox="0 0 640 640"><!--! Font Awesome Pro 7.1.0 by @fontawesome - https://fontawesome.com License - https://fontawesome.com/license (Commercial License) Copyright 2025 Fonticons, Inc. --><path fill="currentColor" d="M128 160C110.3 160 96 174.3 96 192L96 448C96 465.7 110.3 480 128 480L512 480C529.7 480 544 465.7 544 448L544 192C544 174.3 529.7 160 512 160L128 160zM64 192C64 156.7 92.7 128 128 128L512 128C547.3 128 576 156.7 576 192L576 448C576 483.3 547.3 512 512 512L128 512C92.7 512 64 483.3 64 448L64 192zM176 224C184.8 224 192 231.2 192 240L192 400C192 408.8 184.8 416 176 416C167.2 416 160 408.8 160 400L160 240C160 231.2 167.2 224 176 224zM224 240C224 231.2 231.2 224 240 224C248.8 224 256 231.2 256 240L256 400C256 408.8 248.8 416 240 416C231.2 416 224 408.8 224 400L224 240zM336 224C344.8 224 352 231.2 352 240L352 400C352 408.8 344.8 416 336 416C327.2 416 320 408.8 320 400L320 240C320 231.2 327.2 224 336 224zM384 240C384 231.2 391.2 224 400 224C408.8 224 416 231.2 416 240L416 400C416 408.8 408.8 416 400 416C391.2 416 384 408.8 384 400L384 240zM464 224C472.8 224 480 231.2 480 240L480 400C480 408.8 472.8 416 464 416C455.2 416 448 408.8 448 400L448 240C448 231.2 455.2 224 464 224z"/></svg>