<svg xmlns="http://www.w3.org/2000/svg" viewBox="0 0 640 640"><!--! Font Awesome Pro 7.1.0 by @fontawesome - https://fontawesome.com License - https://fontawesome.com/license (Commercial License) Copyright 2025 Fonticons, Inc. --><path fill="currentColor" d="M64 128C64 92.7 92.7 64 128 64L208 64C216.8 64 224 71.2 224 80C224 88.8 216.8 96 208 96L128 96C110.3 96 96 110.3 96 128L96 208C96 216.8 88.8 224 80 224C71.2 224 64 216.8 64 208L64 128zM176 192C184.8 192 192 199.2 192 208L192 432C192 440.8 184.8 448 176 448C167.2 448 160 440.8 160 432L160 208C160 199.2 167.2 192 176 192zM224 208C224 199.2 231.2 192 240 192C248.8 192 256 199.2 256 208L256 432C256 440.8 248.8 448 240 448C231.2 448 224 440.8 224 432L224 208zM448 208C448 199.2 455.2 192 464 192C472.8 192 480 199.2 480 208L480 432C480 440.8 472.8 448 464 448C455.2 448 448 440.8 448 432L448 208zM304 192C312.8 192 320 199.2 320 208L320 432C320 440.8 312.8 448 304 448C295.2 448 288 440.8 288 432L288 208C288 199.2 295.2 192 304 192zM368 208C368 199.2 375.2 192 384 192C392.8 192 400 199.2 400 208L400 432C400 440.8 392.8 448 384 448C375.2 448 368 440.8 368 432L368 208zM512 64C547.3 64 576 92.7 576 128L576 208C576 216.8 568.8 224 560 224C551.2 224 544 216.8 544 208L544 128C544 110.3 529.7 96 512 96L432 96C423.2 96 416 88.8 416 80C416 71.2 423.2 64 432 64L512 64zM64 512L64 432C64 423.2 71.2 416 80 416C88.8 416 96 423.2 96 432L96 512C96 529.7 110.3 544 128 544L208 544C216.8 544 224 551.2 224 560C224 568.8 216.8 576 208 576L128 576C92.7 576 64 547.3 64 512zM512 576L432 576C423.2 576 416 568.8 416 560C416 551.2 423.2 544 432 544L512 544C529.7 544 544 529.7 544 512L544 432C544 423.2 551.2 416 560 416C568.8 416 576 423.2 576 432L576 512C576 547.3 547.3 576 512 576z"/></svg>