<svg xmlns="http://www.w3.org/2000/svg" viewBox="0 0 640 640"><!--! Font Awesome Pro 7.1.0 by @fontawesome - https://fontawesome.com License - https://fontawesome.com/license (Commercial License) Copyright 2025 Fonticons, Inc. --><path fill="currentColor" d="M112 96C103.2 96 96 103.2 96 112L96 528C96 536.8 103.2 544 112 544C120.8 544 128 536.8 128 528L128 112C128 103.2 120.8 96 112 96zM176 96C167.2 96 160 103.2 160 112L160 528C160 536.8 167.2 544 176 544C184.8 544 192 536.8 192 528L192 112C192 103.2 184.8 96 176 96zM256 112L256 528C256 536.8 263.2 544 272 544C280.8 544 288 536.8 288 528L288 112C288 103.2 280.8 96 272 96C263.2 96 256 103.2 256 112zM336 96C327.2 96 320 103.2 320 112L320 528C320 536.8 327.2 544 336 544C344.8 544 352 536.8 352 528L352 112C352 103.2 344.8 96 336 96zM416 112L416 528C416 536.8 423.2 544 432 544C440.8 544 448 536.8 448 528L448 112C448 103.2 440.8 96 432 96C423.2 96 416 103.2 416 112zM528 96C519.2 96 512 103.2 512 112L512 528C512 536.8 519.2 544 528 544C536.8 544 544 536.8 544 528L544 112C544 103.2 536.8 96 528 96z"/></svg>