<svg xmlns="http://www.w3.org/2000/svg" viewBox="0 0 640 640"><!--! Font Awesome Pro 7.1.0 by @fontawesome - https://fontawesome.com License - https://fontawesome.com/license (Commercial License) Copyright 2025 Fonticons, Inc. --><path fill="currentColor" d="M314.5 99.6L142 168.6C137.1 170.6 133.5 174.8 132.3 179.9L100.5 320L112.5 320C121.3 320 128.5 327.2 128.5 336L128.5 512C128.5 529.7 142.8 544 160.5 544L208.5 544L208.5 384C208.5 366.3 222.8 352 240.5 352L400.5 352C418.2 352 432.5 366.3 432.5 384L432.5 544L480.5 544C498.2 544 512.5 529.7 512.5 512L512.5 336C512.5 327.2 519.7 320 528.5 320L540.5 320L508.7 179.9C507.5 174.8 503.9 170.5 499 168.6L326.5 99.6C322.7 98.1 318.4 98.1 314.6 99.6zM240.5 544L377.9 544L240.5 406.6L240.5 544zM240.5 576L160.5 576C125.2 576 96.5 547.3 96.5 512L96.5 352L90.5 352C75.1 352 63.7 337.7 67.1 322.7L101.2 172.8C104.7 157.4 115.5 144.7 130.2 138.9L302.7 69.9C314.1 65.3 326.9 65.3 338.4 69.9L510.9 138.9C525.5 144.8 536.4 157.4 539.9 172.8L574 322.6C577.4 337.6 566 351.9 550.6 351.9L544.6 351.9L544.6 511.9C544.6 547.2 515.9 575.9 480.6 575.9L240.6 575.9zM296.5 176L344.5 176C366.6 176 384.5 193.9 384.5 216L384.5 264C384.5 286.1 366.6 304 344.5 304L296.5 304C274.4 304 256.5 286.1 256.5 264L256.5 216C256.5 193.9 274.4 176 296.5 176zM288.5 216L288.5 264C288.5 268.4 292.1 272 296.5 272L344.5 272C348.9 272 352.5 268.4 352.5 264L352.5 216C352.5 211.6 348.9 208 344.5 208L296.5 208C292.1 208 288.5 211.6 288.5 216zM400.5 521.4L400.5 384L263.1 384L400.5 521.4z"/></svg>