<svg xmlns="http://www.w3.org/2000/svg" viewBox="0 0 640 640"><!--! Font Awesome Pro 7.1.0 by @fontawesome - https://fontawesome.com License - https://fontawesome.com/license (Commercial License) Copyright 2025 Fonticons, Inc. --><path fill="currentColor" d="M146.8 544C149.5 555.5 154.2 566.3 160.4 576L96 576C60.7 576 32 547.3 32 512L32 144C32 82.1 82.1 32 144 32C194.8 32 237.7 65.8 251.4 112.1L221.5 124.1C212.6 89.5 181.3 64 144 64C99.8 64 64 99.8 64 144L64 170.2L166 170.2C162.5 176.1 159.5 182.4 157.2 189L152.6 202.2L64.1 202.2L64.1 512C64.1 529.7 78.4 544 96.1 544L146.9 544zM374 149.2L248 199.6C240.8 202.5 235.2 208.3 232.6 215.6L192.3 330C192.1 330.5 192 331 192 331.5C192 334 194 336 196.5 336L208 336C216.8 336 224 343.2 224 352L224 520C224 533.3 234.7 544 248 544L304 544L304 456C304 425.1 329.1 400 360 400L408 400C438.9 400 464 425.1 464 456L464 544L520 544C533.3 544 544 533.3 544 520L544 352C544 343.2 551.2 336 560 336L571.5 336C574 336 576 334 576 331.5C576 331 575.9 330.5 575.7 330L535.4 215.6C532.8 208.3 527.2 202.5 520 199.6L394 149.2C387.6 146.6 380.5 146.6 374.1 149.2zM520 576L248 576C217.1 576 192 550.9 192 520L192 367.7C174 365.5 160 350.1 160 331.5C160 327.4 160.7 323.3 162.1 319.4L202.4 205C208 189 220.3 176.2 236 169.9L362 119.5C376 113.9 391.7 113.9 405.7 119.5L531.8 169.9C547.5 176.2 559.8 189 565.4 205L605.8 319.4C607.2 323.3 607.9 327.4 607.9 331.5C607.9 350.1 593.9 365.5 575.9 367.7L576 520C576 550.9 550.9 576 520 576zM432 456C432 442.7 421.3 432 408 432L360 432C346.7 432 336 442.7 336 456L336 544L432 544L432 456zM352 256L352 320L416 320L416 256L352 256zM320 256C320 238.3 334.3 224 352 224L416 224C433.7 224 448 238.3 448 256L448 320C448 337.7 433.7 352 416 352L352 352C334.3 352 320 337.7 320 320L320 256z"/></svg>