<svg xmlns="http://www.w3.org/2000/svg" viewBox="0 0 640 640"><!--! Font Awesome Pro 7.1.0 by @fontawesome - https://fontawesome.com License - https://fontawesome.com/license (Commercial License) Copyright 2025 Fonticons, Inc. --><path fill="currentColor" d="M64 144C64 135.2 71.2 128 80 128L560 128C568.8 128 576 135.2 576 144C576 152.8 568.8 160 560 160L80 160C71.2 160 64 152.8 64 144zM160 320C160 311.2 167.2 304 176 304L464 304C472.8 304 480 311.2 480 320C480 328.8 472.8 336 464 336L176 336C167.2 336 160 328.8 160 320zM384 496C384 504.8 376.8 512 368 512L272 512C263.2 512 256 504.8 256 496C256 487.2 263.2 480 272 480L368 480C376.8 480 384 487.2 384 496z"/></svg>