<svg xmlns="http://www.w3.org/2000/svg" viewBox="0 0 640 640"><!--! Font Awesome Pro 7.1.0 by @fontawesome - https://fontawesome.com License - https://fontawesome.com/license (Commercial License) Copyright 2025 Fonticons, Inc. --><path fill="currentColor" d="M96 144C96 135.2 103.2 128 112 128L528 128C536.8 128 544 135.2 544 144C544 152.8 536.8 160 528 160L112 160C103.2 160 96 152.8 96 144zM96 320C96 311.2 103.2 304 112 304L400 304C408.8 304 416 311.2 416 320C416 328.8 408.8 336 400 336L112 336C103.2 336 96 328.8 96 320zM288 496C288 504.8 280.8 512 272 512L112 512C103.2 512 96 504.8 96 496C96 487.2 103.2 480 112 480L272 480C280.8 480 288 487.2 288 496z"/></svg>