<svg xmlns="http://www.w3.org/2000/svg" viewBox="0 0 640 640"><!--! Font Awesome Pro 7.1.0 by @fontawesome - https://fontawesome.com License - https://fontawesome.com/license (Commercial License) Copyright 2025 Fonticons, Inc. --><path fill="currentColor" d="M384 128L384 256L496 256C504.8 256 512 248.8 512 240L512 144C512 135.2 504.8 128 496 128L384 128zM281.4 128L144 128C135.2 128 128 135.2 128 144L128 240C128 248.8 135.2 256 144 256L153.4 256L281.4 128zM326.7 128L198.7 256L352.1 256L352.1 128L326.7 128zM96 144C96 117.5 117.5 96 144 96L496 96C522.5 96 544 117.5 544 144L544 240C544 266.5 522.5 288 496 288L144 288C117.5 288 96 266.5 96 240L96 144zM256 384L256 512L496 512C504.8 512 512 504.8 512 496L512 400C512 391.2 504.8 384 496 384L256 384zM224 384L144 384C135.2 384 128 391.2 128 400L128 496C128 504.8 135.2 512 144 512L224 512L224 384zM96 400C96 373.5 117.5 352 144 352L496 352C522.5 352 544 373.5 544 400L544 496C544 522.5 522.5 544 496 544L144 544C117.5 544 96 522.5 96 496L96 400z"/></svg>