<svg xmlns="http://www.w3.org/2000/svg" viewBox="0 0 640 640"><!--! Font Awesome Pro 7.1.0 by @fontawesome - https://fontawesome.com License - https://fontawesome.com/license (Commercial License) Copyright 2025 Fonticons, Inc. --><path fill="currentColor" d="M512.4 16C526.6 16 540.2 21.5 550.5 31.2L609.3 87L613.7 91.7C621.9 101.6 626.3 114.1 626.1 126.9L625.6 133.3C624 145 618.6 156 610.3 164.3L403.7 371C398.8 375.8 393.6 380.2 387.9 384.1L382.1 387.8L242.4 471.6C236.8 475 231.6 479 227 483.6L126.1 584.5C129.3 590.5 128.4 598.2 123.3 603.3C117.8 608.8 109.4 609.5 103.2 605.4L100.7 603.3L36.7 539.3L34.6 536.8C30.5 530.6 31.2 522.1 36.7 516.7C41.8 511.6 49.4 510.7 55.5 513.9L156.4 413C161 408.4 165.1 403.2 168.4 397.6L252.2 257.9C256.9 250.1 262.6 242.8 269 236.3L473.1 32.2L477.2 28.5C487 20.4 499.5 16 512.3 16zM78.7 536L104.1 561.4L201.5 464L176.1 438.6L78.7 536zM512.4 48C507.8 48 503.2 49.4 499.4 51.9L495.8 54.8L291.7 259C287.1 263.6 283 268.8 279.7 274.4L196.2 413.5L226.5 443.8L365.7 360.3L369.8 357.6C373.8 354.8 377.6 351.7 381.1 348.2L587.6 141.8C591 138.4 593.2 133.9 593.9 129.1L594.1 126.5C594.2 121.3 592.4 116.2 589 112.2L587.2 110.3L528.4 54.5C524.1 50.4 518.3 48.1 512.3 48.1z"/></svg>