<svg xmlns="http://www.w3.org/2000/svg" viewBox="0 0 640 640"><!--! Font Awesome Pro 7.1.0 by @fontawesome - https://fontawesome.com License - https://fontawesome.com/license (Commercial License) Copyright 2025 Fonticons, Inc. --><path fill="currentColor" d="M496.1 608C451.9 608 416.1 572.2 416.1 528C416.1 483.8 451.9 448 496.1 448C540.3 448 576.1 483.8 576.1 528C576.1 572.2 540.3 608 496.1 608zM512.4 16C526.6 16 540.2 21.5 550.5 31.2L609.3 87L613.7 91.7C621.9 101.6 626.3 114.1 626.1 126.9L625.6 133.3C624 145 618.6 156 610.3 164.3L403.7 371C398.9 375.8 393.6 380.2 387.9 384.1L382.1 387.8L242.4 471.6C236.8 475 231.6 479 227 483.6L126.2 584.5C129.4 590.5 128.5 598.2 123.4 603.3C117.9 608.8 109.5 609.5 103.3 605.4L100.8 603.3L36.8 539.3L34.7 536.8C30.6 530.6 31.3 522.1 36.8 516.7C41.9 511.6 49.5 510.7 55.6 513.9L156.4 413C161 408.4 165.1 403.2 168.4 397.6L252.2 257.9C256.9 250.1 262.6 242.8 269 236.3L473.1 32.2L477.2 28.5C487 20.4 499.5 16 512.3 16zM496.1 480C469.6 480 448.1 501.5 448.1 528C448.1 554.5 469.6 576 496.1 576C522.6 576 544.1 554.5 544.1 528C544.1 501.5 522.6 480 496.1 480zM78.7 536L104.1 561.4L193.5 472L168.1 446.6L78.7 536zM512.4 48C507.8 48 503.2 49.4 499.4 51.9L495.9 54.8L291.7 259C287.1 263.6 283 268.8 279.7 274.4L195.9 414.1C194 417.2 192 420.2 189.8 423.1L217 450.2C219.9 448 222.9 446 226 444.1L365.7 360.3L369.8 357.6C373.8 354.8 377.6 351.7 381.1 348.2L587.7 141.8C591.1 138.4 593.3 133.9 593.9 129.1L594.1 126.5C594.2 121.3 592.4 116.2 589 112.2L587.2 110.3L528.4 54.5C524.1 50.4 518.3 48.1 512.3 48.1z"/></svg>