<svg xmlns="http://www.w3.org/2000/svg" viewBox="0 0 640 640"><!--! Font Awesome Pro 7.1.0 by @fontawesome - https://fontawesome.com License - https://fontawesome.com/license (Commercial License) Copyright 2025 Fonticons, Inc. --><path fill="currentColor" d="M320 576C178.6 576 64 461.4 64 320C64 178.6 178.6 64 320 64C461.4 64 576 178.6 576 320C576 461.4 461.4 576 320 576zM334 96.5C332.7 107.6 330.8 118.5 328.2 129.1C326.1 137.7 317.4 142.9 308.9 140.8C300.4 138.7 295 130.1 297.1 121.5C299.1 113.4 300.5 105.2 301.7 96.8C192.6 105.6 105.7 192.6 96.8 301.7C105.2 300.6 113.4 299.1 121.5 297.1C130.1 295 138.7 300.2 140.8 308.8C142.9 317.4 137.7 326 129.1 328.2C118.5 330.8 107.6 332.7 96.5 334C103.4 446.5 193.4 536.5 306 543.5C307.3 532.4 309.3 521.5 311.9 510.9C314 502.3 322.7 497.1 331.2 499.2C339.7 501.3 345 510 342.9 518.5C340.9 526.6 339.4 534.8 338.3 543.2C447.4 534.4 534.4 447.4 543.2 338.3C534.8 339.4 526.6 340.9 518.5 342.9C509.9 345 501.3 339.8 499.2 331.2C497.1 322.6 502.3 314 510.9 311.9C521.5 309.3 532.4 307.3 543.5 306C536.5 193.5 446.5 103.5 334 96.5zM370.6 451.9C366 459.5 356.2 461.9 348.6 457.3C341 452.7 338.6 442.9 343.2 435.3L370.6 451.9zM435.3 343.2C442.9 338.6 452.7 341.1 457.3 348.6C461.9 356.1 459.5 366 451.9 370.6C418.7 390.7 390.7 418.7 370.6 451.9C361.5 446.4 352.3 440.8 343.2 435.3C366 397.7 397.6 366 435.3 343.2zM204.8 296.8C197.2 301.4 187.4 298.9 182.8 291.4C178.2 283.9 180.6 274 188.2 269.4L204.8 296.8zM269.5 188.1C274.1 180.5 283.9 178.1 291.5 182.7C299.1 187.3 301.5 197.1 296.9 204.7C274.1 242.3 242.5 274 204.8 296.8C199.3 287.7 193.8 278.5 188.2 269.4C221.4 249.3 249.4 221.3 269.5 188.1z"/></svg>