<svg xmlns="http://www.w3.org/2000/svg" viewBox="0 0 640 640"><!--! Font Awesome Pro 7.1.0 by @fontawesome - https://fontawesome.com License - https://fontawesome.com/license (Commercial License) Copyright 2025 Fonticons, Inc. --><path fill="currentColor" d="M320 64C324.6 64 328.9 65.9 331.9 69.3L470.3 224L576 224C584.8 224 592 231.2 592 240C592 248.8 584.8 256 576 256L569.6 256L522.3 492.6C516.3 522.5 490.1 544 459.5 544L180.4 544C149.9 544 123.6 522.5 117.6 492.6L70.4 256L64 256C55.2 256 48 248.8 48 240C48 231.2 55.2 224 64 224L64 224L169.7 224L308.1 69.3C311.1 65.9 315.5 64 320 64zM320 104L212.6 224L427.4 224L320 104zM103 256L149.1 486.3C152.1 501.3 165.2 512 180.5 512L459.6 512C474.9 512 488 501.2 491 486.3L537 256L103 256zM240 368L400 368C408.8 368 416 375.2 416 384C416 392.8 408.8 400 400 400L240 400C231.2 400 224 392.8 224 384C224 375.2 231.2 368 240 368z"/></svg>