<svg xmlns="http://www.w3.org/2000/svg" viewBox="0 0 640 640"><!--! Font Awesome Pro 7.1.0 by @fontawesome - https://fontawesome.com License - https://fontawesome.com/license (Commercial License) Copyright 2025 Fonticons, Inc. --><path fill="currentColor" d="M480 304C488.8 304 496 311.2 496 320C496 328.8 488.8 336 480 336L479.9 336L479.8 338.2L447.8 562.2C446.9 568.5 442.3 573.8 436.1 575.4C429.9 577 423.3 574.8 419.3 569.8L377.1 516.2L332.1 570.2C329.1 573.8 324.6 576 319.8 576C316.2 576 312.8 574.8 310 572.7L307.5 570.3L262.5 516.3L220.4 569.9C216.4 574.9 209.8 577.2 203.7 575.5C198.3 574 194.1 569.9 192.5 564.6L192 562.3L160 338.3L159.9 336.1L159.8 336.1C151 336.1 143.8 328.9 143.8 320.1C143.8 311.3 151 304.1 159.8 304.1L479.8 304.1zM282.9 490.5L320 535L357.1 490.5L320 443.3L282.9 490.5zM218.5 520.6L241.7 491L208.6 451.2L218.5 520.5zM398.2 491L421.4 520.6L431.3 451.3L398.2 491.1zM220.1 415L262 465.2L299.7 417.3L256.8 362.7L220.2 415zM340.3 417.3L378 465.2L419.9 415L383.3 362.7L340.4 417.3zM320 64C494.5 64 578.9 187.9 601.6 227.8C606.1 235.7 608 244.8 608 253.9L608 374.4L607.8 379.1C606.1 402.5 591.7 423.3 570 432.9L511.1 459.1L516.4 421.7L557 403.7L561.1 401.5C570.3 395.7 576 385.5 576 374.5L576 254C576 250.4 575.4 247.7 574.6 245.6L573.7 243.7C553 207.1 477 96 320 96C172.8 96 96.8 193.6 70.8 235.9L66.3 243.6C65 245.8 64.1 249.1 64.1 253.9L64.1 374.4C64.1 387 71.5 398.5 83.1 403.7L123.7 421.7L129 459.1L70.1 432.9C48.3 423.3 33.9 402.5 32.2 379.1L32 374.4L32 253.9C32 245.9 33.5 238 36.8 230.8L38.4 227.8C61.1 187.9 145.5 64 320 64zM320 391.5L363.7 336L276.4 336L320.1 391.5zM199.7 388.5L236.5 335.9L192.2 335.9L199.7 388.5zM440.4 388.5L447.9 335.9L403.6 335.9L440.4 388.5zM400 192C426.5 192 448 213.5 448 240L448 256L416 256L416 240C416 231.2 408.8 224 400 224L240 224C231.2 224 224 231.2 224 240L224 256L192 256L192 240C192 213.5 213.5 192 240 192L400 192z"/></svg>