<svg xmlns="http://www.w3.org/2000/svg" viewBox="0 0 640 640"><!--! Font Awesome Pro 7.1.0 by @fontawesome - https://fontawesome.com License - https://fontawesome.com/license (Commercial License) Copyright 2025 Fonticons, Inc. --><path fill="currentColor" d="M248.6 113.8C253.2 111.4 258.6 111.4 263.2 113.7L320 142.1L376.8 113.7L380.4 112.4C384.1 111.6 388 112 391.4 113.8C396 116.2 399.1 120.7 399.8 125.7L412.2 212.5L458.8 181.4C481.7 166.2 512.3 170.4 530.2 191.3C580.4 249.8 607.9 324.4 607.9 401.4L607.9 421.6C607.9 441.9 586.5 455.1 568.4 446L516.7 420.2L487.8 458.8C476.1 474.4 453.4 476 439.6 462.2L402 424.6L346 503C334 519.8 309.9 520.8 296.5 506.2L294 503L238 424.6L200.4 462.2C187.5 475.1 166.7 474.5 154.5 461.5L152.2 458.8L123.3 420.2L71.6 446C53.4 455.2 32 442 32 421.7L32 401.5C32 324.4 59.6 249.9 109.7 191.4L113.2 187.7C131.4 170.1 159.7 167.3 181.1 181.5L227.7 212.6L240.1 125.8L241.1 122.1C242.5 118.6 245.1 115.6 248.5 113.9zM327.2 174.3C323.8 176 320 176.4 316.4 175.6L312.9 174.3L268.7 152.2L255.9 242.2C255.1 247.6 251.6 252.3 246.6 254.5C241.6 256.7 235.8 256.3 231.2 253.2L163.5 208C154.1 201.7 141.5 203.5 134.1 212.1C88.9 264.8 64.1 332 64.1 401.4L64.1 414L109 391.6L111.6 390.4C124.9 385.2 140.2 389.4 148.9 401L177.8 439.6L215.4 402C229.4 388 252.6 390 264.1 406L320.1 484.4L376.1 406C387.6 389.9 410.8 388 424.8 402L462.4 439.6L491.3 401C500.6 388.6 517.4 384.7 531.2 391.6L576.1 414L576.1 401.4C576.1 332 551.3 264.8 506.1 212.1C498.7 203.5 486.1 201.8 476.7 208L409 253.2C404.4 256.2 398.6 256.7 393.6 254.5C388.6 252.3 385.1 247.6 384.3 242.2L371.4 152.2L327.3 174.3z"/></svg>