<svg xmlns="http://www.w3.org/2000/svg" viewBox="0 0 640 640"><!--! Font Awesome Pro 7.1.0 by @fontawesome - https://fontawesome.com License - https://fontawesome.com/license (Commercial License) Copyright 2025 Fonticons, Inc. --><path fill="currentColor" d="M128 125.3C128 109.1 141.1 96 157.3 96C165.1 96 172.5 99.1 178 104.6L203 129.7C196 140.8 192 153.9 192 168C192 188.2 200.3 206.5 213.8 219.6L212.7 220.7C206.5 226.9 206.5 237.1 212.7 243.3C218.9 249.5 229.1 249.5 235.3 243.3L339.3 139.3C345.5 133.1 345.5 122.9 339.3 116.7C333.1 110.5 322.9 110.5 316.7 116.7L315.6 117.8C302.5 104.4 284.2 96 264 96C249.9 96 236.8 100 225.7 107L200.6 81.9C189.1 70.5 173.5 64 157.3 64C123.4 64 96 91.4 96 125.3L96 320L80 320C71.2 320 64 327.2 64 336C64 344.8 71.2 352 80 352L96 352L96 432C96 462.5 108.2 490.2 128 510.4L128 560C128 568.8 135.2 576 144 576C152.8 576 160 568.8 160 560L160 533.2C174.5 540.1 190.8 544 208 544L432 544C449.2 544 465.5 540.1 480 533.2L480 560C480 568.8 487.2 576 496 576C504.8 576 512 568.8 512 560L512 510.4C531.8 490.2 544 462.5 544 432L544 352L560 352C568.8 352 576 344.8 576 336C576 327.2 568.8 320 560 320L128 320L128 125.3zM293 140.4L236.4 197C228.8 189.7 224 179.4 224 168C224 145.9 241.9 128 264 128C275.4 128 285.7 132.8 293 140.4zM128 352L512 352L512 432C512 476.2 476.2 512 432 512L208 512C163.8 512 128 476.2 128 432L128 352z"/></svg>