<svg xmlns="http://www.w3.org/2000/svg" viewBox="0 0 640 640"><!--! Font Awesome Pro 7.1.0 by @fontawesome - https://fontawesome.com License - https://fontawesome.com/license (Commercial License) Copyright 2025 Fonticons, Inc. --><path fill="currentColor" d="M59.3 36.8C53.1 30.6 42.9 30.6 36.7 36.8C30.5 43 30.5 53.2 36.7 59.4L580.7 603.4C586.9 609.6 597.1 609.6 603.3 603.4C609.5 597.2 609.5 587 603.3 580.8L527.9 505.4C556.2 493.1 576 464.8 576 432L576 400L608 400C625.7 400 640 385.7 640 368L640 272C640 254.3 625.7 240 608 240L576 240L576 208C576 163.8 540.2 128 496 128L150.5 128L59.3 36.8zM182.5 160L496 160C522.5 160 544 181.5 544 208L544 432C544 456.4 525.8 476.6 502.1 479.6L182.5 160zM32 208L32 432C32 476.2 67.8 512 112 512L421.5 512L389.5 480L112 480C85.5 480 64 458.5 64 432L64 208C64 193.3 70.6 180.2 80.9 171.4L58.2 148.8C42.1 163.4 32 184.5 32 208zM576 272L608 272L608 368L576 368L576 272z"/></svg>