<svg xmlns="http://www.w3.org/2000/svg" viewBox="0 0 640 640"><!--! Font Awesome Pro 7.1.0 by @fontawesome - https://fontawesome.com License - https://fontawesome.com/license (Commercial License) Copyright 2025 Fonticons, Inc. --><path fill="currentColor" d="M296 363.4L259 460.6L418.8 320L341.9 320C331.4 320 321.5 314.8 315.5 306.2C309.5 297.6 308.2 286.5 311.9 276.6L348.9 179.4L189.1 320L266 320C276.5 320 286.4 325.2 292.3 333.8C298.2 342.4 299.6 353.5 295.9 363.3zM440 288C450 288 458.9 294.2 462.5 303.5C466.1 312.8 463.4 323.4 455.9 330L255.9 506C247.6 513.3 235.4 514 226.4 507.7C217.4 501.4 213.7 489.7 217.7 479.4C245.8 405.2 262 362.8 266.1 352L168 352C158 352 149.1 345.8 145.5 336.5C141.9 327.2 144.6 316.6 152.1 310L352.1 134C360.4 126.7 372.6 126 381.6 132.3C390.6 138.6 394.3 150.3 390.3 160.6C362.2 234.8 346 277.2 341.9 288L440 288zM439.6 160C440.8 149.1 439.5 138.2 435.9 128L496 128C540.2 128 576 163.8 576 208L576 240L608 240C625.7 240 640 254.3 640 272L640 368C640 385.7 625.7 400 608 400L576 400L576 432C576 476.2 540.2 512 496 512L321.7 512L358.1 480L496 480C522.5 480 544 458.5 544 432L544 208C544 181.5 522.5 160 496 160L439.6 160zM112 512C67.8 512 32 476.2 32 432L32 208C32 163.8 67.8 128 112 128L286.3 128L249.9 160L112 160C85.5 160 64 181.5 64 208L64 432C64 458.5 85.5 480 112 480L168.4 480C167.2 490.9 168.5 501.8 172.1 512L112 512zM576 272L576 368L608 368L608 272L576 272z"/></svg>