<svg xmlns="http://www.w3.org/2000/svg" viewBox="0 0 640 640"><!--! Font Awesome Pro 7.1.0 by @fontawesome - https://fontawesome.com License - https://fontawesome.com/license (Commercial License) Copyright 2025 Fonticons, Inc. --><path fill="currentColor" d="M496 160C522.5 160 544 181.5 544 208L544 432C544 458.5 522.5 480 496 480L112 480C85.5 480 64 458.5 64 432L64 208C64 181.5 85.5 160 112 160L496 160zM576 432L576 400L608 400C625.7 400 640 385.7 640 368L640 272C640 254.3 625.7 240 608 240L576 240L576 208C576 163.8 540.2 128 496 128L112 128C67.8 128 32 163.8 32 208L32 432C32 476.2 67.8 512 112 512L496 512C540.2 512 576 476.2 576 432zM576 368L576 272L608 272L608 368L576 368zM160 384L160 256L384 256L384 384L160 384zM128 248L128 392C128 405.3 138.7 416 152 416L392 416C405.3 416 416 405.3 416 392L416 248C416 234.7 405.3 224 392 224L152 224C138.7 224 128 234.7 128 248z"/></svg>