<svg xmlns="http://www.w3.org/2000/svg" viewBox="0 0 640 640"><!--! Font Awesome Pro 7.1.0 by @fontawesome - https://fontawesome.com License - https://fontawesome.com/license (Commercial License) Copyright 2025 Fonticons, Inc. --><path fill="currentColor" d="M236.3 128C233.4 136.1 232 144.9 232.2 154L232.4 160L111.9 160C85.4 160 63.9 181.5 63.9 208L63.9 432C63.9 458.5 85.4 480 111.9 480L232.4 480C232.1 482.6 231.9 485.3 231.9 488C231.9 496.4 233.4 504.5 236.1 512L112 512C67.8 512 32 476.2 32 432L32 208C32 163.8 67.8 128 112 128L236.3 128zM304 512C290.7 512 280 501.3 280 488C280 474.7 290.7 464 304 464C317.3 464 328 474.7 328 488C328 501.3 317.3 512 304 512zM496 128C540.2 128 576 163.8 576 208L576 240L608 240C625.7 240 640 254.3 640 272L640 368C640 385.7 625.7 400 608 400L576 400L576 432C576 476.2 540.2 512 496 512L371.8 512C374.5 504.5 376 496.4 376 488C376 485.3 375.8 482.6 375.5 480L496 480C522.5 480 544 458.5 544 432L544 208C544 181.5 522.5 160 496 160L375.5 160L375.7 154C376 144.9 374.5 136.1 371.6 128L496 128zM304 128C317.4 128 328.2 139.1 327.8 152.5L320 400.5C319.7 409.1 312.6 416 304 416C295.4 416 288.3 409.1 288 400.5L280.2 152.5C279.8 139.1 290.6 128 304 128zM576 368L608 368L608 272L576 272L576 368z"/></svg>