<svg xmlns="http://www.w3.org/2000/svg" viewBox="0 0 640 640"><!--! Font Awesome Pro 7.1.0 by @fontawesome - https://fontawesome.com License - https://fontawesome.com/license (Commercial License) Copyright 2025 Fonticons, Inc. --><path fill="currentColor" d="M112 160C85.5 160 64 181.5 64 208L64 432C64 458.5 85.5 480 112 480L496 480C522.5 480 544 458.5 544 432L544 208C544 181.5 522.5 160 496 160L112 160zM576 400L576 432C576 476.2 540.2 512 496 512L112 512C67.8 512 32 476.2 32 432L32 208C32 163.8 67.8 128 112 128L496 128C540.2 128 576 163.8 576 208L576 240L608 240C625.7 240 640 254.3 640 272L640 368C640 385.7 625.7 400 608 400L576 400zM576 272L576 368L608 368L608 272L576 272z"/></svg>