<svg xmlns="http://www.w3.org/2000/svg" viewBox="0 0 640 640"><!--! Font Awesome Pro 7.1.0 by @fontawesome - https://fontawesome.com License - https://fontawesome.com/license (Commercial License) Copyright 2025 Fonticons, Inc. --><path fill="currentColor" d="M80 64C88.8 64 96 71.2 96 80L96 224L288 224L288 96C288 78.3 302.3 64 320 64L464 64C525.9 64 576 114.1 576 176L576 552C576 560.8 568.8 568 560 568C551.2 568 544 560.8 544 552L544 511.7L96 511.7L96 552C96 560.8 88.8 568 80 568C71.2 568 64 560.8 64 552L64 80C64 71.2 71.2 64 80 64zM288 479.7L288 352C288 334.3 302.3 320 320 320L544 320L544 256L96 256L96 479.7L288 479.7zM544 224L544 176C544 131.8 508.2 96 464 96L320 96L320 224L544 224zM544 352L320 352L320 479.7L544 479.7L544 352zM192 416C209.7 416 224 401.7 224 384C224 366.3 209.7 352 192 352C174.3 352 160 366.3 160 384C160 401.7 174.3 416 192 416zM192 320C227.3 320 256 348.7 256 384C256 419.3 227.3 448 192 448C156.7 448 128 419.3 128 384C128 348.7 156.7 320 192 320zM224 128C224 110.3 209.7 96 192 96C174.3 96 160 110.3 160 128C160 145.7 174.3 160 192 160C209.7 160 224 145.7 224 128zM128 128C128 92.7 156.7 64 192 64C227.3 64 256 92.7 256 128C256 163.3 227.3 192 192 192C156.7 192 128 163.3 128 128z"/></svg>