<svg xmlns="http://www.w3.org/2000/svg" viewBox="0 0 640 640"><!--! Font Awesome Pro 7.1.0 by @fontawesome - https://fontawesome.com License - https://fontawesome.com/license (Commercial License) Copyright 2025 Fonticons, Inc. --><path fill="currentColor" d="M48 96C56.8 96 64 103.2 64 112L64 224L496 224C557.9 224 608 274.1 608 336L608 528C608 536.8 600.8 544 592 544C583.2 544 576 536.8 576 528L576 448L64 448L64 528C64 536.8 56.8 544 48 544C39.2 544 32 536.8 32 528L32 112C32 103.2 39.2 96 48 96zM64 256L64 416L576 416L576 336C576 291.8 540.2 256 496 256L64 256z"/></svg>