<svg xmlns="http://www.w3.org/2000/svg" viewBox="0 0 640 640"><!--! Font Awesome Pro 7.1.0 by @fontawesome - https://fontawesome.com License - https://fontawesome.com/license (Commercial License) Copyright 2025 Fonticons, Inc. --><path fill="currentColor" d="M128 160L128 200.6C137.4 195.2 148.3 192 160 192L272 192C291.1 192 308.3 200.4 320 213.7C331.7 200.4 348.9 192 368 192L480 192C491.7 192 502.6 195.1 512 200.6L512 160C512 142.3 497.7 128 480 128L160 128C142.3 128 128 142.3 128 160zM544 256L544 304C563.4 318.6 576 341.8 576 368L576 528C576 536.8 568.8 544 560 544C551.2 544 544 536.8 544 528L544 480L96 480L96 528C96 536.8 88.8 544 80 544C71.2 544 64 536.8 64 528L64 368C64 341.8 76.6 318.6 96 304L96 160C96 124.7 124.7 96 160 96L480 96C515.3 96 544 124.7 544 160L544 256zM512 289.6L512 256C512 238.3 497.7 224 480 224L368 224C350.3 224 336 238.3 336 256L336 288L496 288C501.5 288 506.8 288.6 512 289.6zM304 288L304 256C304 238.3 289.7 224 272 224L160 224C142.3 224 128 238.3 128 256L128 289.6C133.2 288.6 138.5 288 144 288L304 288zM544 368C544 341.5 522.5 320 496 320L144 320C117.5 320 96 341.5 96 368L96 448L544 448L544 368z"/></svg>