<svg xmlns="http://www.w3.org/2000/svg" viewBox="0 0 640 640"><!--! Font Awesome Pro 7.1.0 by @fontawesome - https://fontawesome.com License - https://fontawesome.com/license (Commercial License) Copyright 2025 Fonticons, Inc. --><path fill="currentColor" d="M64 112C64 103.2 56.8 96 48 96C39.2 96 32 103.2 32 112L32 528C32 536.8 39.2 544 48 544C56.8 544 64 536.8 64 528L64 448L576 448L576 528C576 536.8 583.2 544 592 544C600.8 544 608 536.8 608 528L608 320C608 258.1 557.9 208 496 208L368 208C341.5 208 320 229.5 320 256L320 416L64 416L64 112zM496 240C540.2 240 576 275.8 576 320L576 416L352 416L352 256C352 247.2 359.2 240 368 240L496 240zM144 288C144 261.5 165.5 240 192 240C218.5 240 240 261.5 240 288C240 314.5 218.5 336 192 336C165.5 336 144 314.5 144 288zM272 288C272 243.8 236.2 208 192 208C147.8 208 112 243.8 112 288C112 332.2 147.8 368 192 368C236.2 368 272 332.2 272 288z"/></svg>