<svg xmlns="http://www.w3.org/2000/svg" viewBox="0 0 640 640"><!--! Font Awesome Pro 7.1.0 by @fontawesome - https://fontawesome.com License - https://fontawesome.com/license (Commercial License) Copyright 2025 Fonticons, Inc. --><path fill="currentColor" d="M432 128C440.8 128 448 135.2 448 144L448 415.7C448 415.9 448 416.1 448 416.4L448 448.1C448 483.4 419.3 512.1 384 512.1L192 512.1C156.7 512.1 128 483.4 128 448.1L128 144C128 135.2 135.2 128 144 128L432 128zM480 448L480 425.9L581.5 375.2C597.8 367.1 608 350.4 608 332.3L608 208C608 181.5 586.5 160 560 160L480 160L480 144C480 117.5 458.5 96 432 96L144 96C117.5 96 96 117.5 96 144L96 448C96 501 139 544 192 544L384 544C437 544 480 501 480 448zM567.2 346.5L480 390.1L480 192L560 192C568.8 192 576 199.2 576 208L576 332.2C576 338.3 572.6 343.8 567.2 346.5zM208 192C199.2 192 192 199.2 192 208L192 432C192 440.8 199.2 448 208 448C216.8 448 224 440.8 224 432L224 208C224 199.2 216.8 192 208 192zM352 208L352 432C352 440.8 359.2 448 368 448C376.8 448 384 440.8 384 432L384 208C384 199.2 376.8 192 368 192C359.2 192 352 199.2 352 208zM288 192C279.2 192 272 199.2 272 208L272 432C272 440.8 279.2 448 288 448C296.8 448 304 440.8 304 432L304 208C304 199.2 296.8 192 288 192z"/></svg>