<svg xmlns="http://www.w3.org/2000/svg" viewBox="0 0 640 640"><!--! Font Awesome Pro 7.1.0 by @fontawesome - https://fontawesome.com License - https://fontawesome.com/license (Commercial License) Copyright 2025 Fonticons, Inc. --><path fill="currentColor" d="M288 32C262.9 32 240 41.7 222.9 57.4C222.9 57.4 222.6 57.7 221.9 57.7C221.2 57.7 220.7 57.5 220.6 57.4C205.9 46.5 187.7 40 168 40C119.4 40 80 79.4 80 128C80 176.6 119.4 216 168 216C187.7 216 205.9 209.5 220.6 198.6C220.7 198.5 221.2 198.3 221.9 198.3C222.6 198.3 222.9 198.6 222.9 198.6C240 214.3 262.9 224 288 224C313.1 224 336 214.3 353.1 198.6C353.1 198.6 353.4 198.3 354.1 198.3C354.8 198.3 355.3 198.5 355.4 198.6C370.1 209.5 388.3 216 408 216C456.6 216 496 176.6 496 128C496 79.4 456.6 40 408 40C388.3 40 370.1 46.5 355.4 57.4C355.3 57.5 354.8 57.7 354.1 57.7C353.4 57.7 353.1 57.4 353.1 57.4C336 41.7 313.1 32 288 32zM244.6 80.9C256 70.4 271.3 64 288 64C304.7 64 320 70.4 331.4 80.9C343.3 91.9 361.9 92.5 374.6 83C383.9 76 395.5 71.9 408 71.9C438.9 71.9 464 97 464 127.9C464 158.8 438.9 183.9 408 183.9C395.4 183.9 383.9 179.8 374.6 172.8C361.9 163.3 343.3 163.9 331.4 174.9C320 185.4 304.8 191.8 288 191.8C271.2 191.8 256 185.4 244.6 174.9C232.7 163.9 214.1 163.3 201.4 172.8C192.1 179.8 180.5 183.9 168 183.9C137.1 183.9 112 158.8 112 127.9C112 97 137.1 72 168 72C180.6 72 192.1 76.1 201.4 83.1C214.1 92.6 232.6 92 244.6 81zM96 243.4L96 480C96 533 139 576 192 576L384 576C437 576 480 533 480 480L480 457.9L581.5 407.2C597.8 399.1 608 382.4 608 364.3L608 240C608 213.5 586.5 192 560 192L528 192C521.7 203.8 513.7 214.6 504.3 224L560 224C568.8 224 576 231.2 576 240L576 364.2C576 370.3 572.6 375.8 567.2 378.5L480 422.1L480 243.4C470.1 249.6 459.4 254.5 448 258L448 447.7C448 447.9 448 448.1 448 448.4L448 480.1C448 515.4 419.3 544.1 384 544.1L192 544.1C156.7 544.1 128 515.4 128 480.1L128 258.1C116.6 254.6 105.9 249.7 96 243.5zM208 288C199.2 288 192 295.2 192 304L192 464C192 472.8 199.2 480 208 480C216.8 480 224 472.8 224 464L224 304C224 295.2 216.8 288 208 288zM368 288C359.2 288 352 295.2 352 304L352 464C352 472.8 359.2 480 368 480C376.8 480 384 472.8 384 464L384 304C384 295.2 376.8 288 368 288zM288 288C279.2 288 272 295.2 272 304L272 464C272 472.8 279.2 480 288 480C296.8 480 304 472.8 304 464L304 304C304 295.2 296.8 288 288 288z"/></svg>