<svg xmlns="http://www.w3.org/2000/svg" viewBox="0 0 640 640"><!--! Font Awesome Pro 7.1.0 by @fontawesome - https://fontawesome.com License - https://fontawesome.com/license (Commercial License) Copyright 2025 Fonticons, Inc. --><path fill="currentColor" d="M606.3 72.8C602.3 64.9 592.7 61.7 584.8 65.6L520.8 97.6C512.9 101.6 509.7 111.2 513.6 119.1C517.5 127 527.2 130.2 535.1 126.3L599.1 94.3C607 90.3 610.2 80.7 606.3 72.8zM320 64C311.2 64 304 71.2 304 80L304 96.8C223.1 104.8 160 173 160 256L160 266.3C160 311.4 144.6 355.2 116.5 390.4L106.4 403C99.7 411.4 96 421.8 96 432.6C96 458.8 117.2 480 143.4 480L496.6 480C522.8 480 544 458.8 544 432.6C544 421.8 540.3 411.4 533.6 403L523.5 390.4C495.3 355.2 480 311.4 480 266.3L480 256C480 173 416.9 104.8 336 96.8L336 80C336 71.2 328.8 64 320 64zM320 128C390.7 128 448 185.3 448 256L448 266.3C448 318.7 465.8 369.5 498.6 410.4L508.6 423C510.8 425.7 512 429.1 512 432.6C512 441.1 505.1 448 496.6 448L143.4 448C134.9 448 128 441.1 128 432.6C128 429.1 129.2 425.7 131.4 423L141.5 410.4C174.2 369.5 192.1 318.7 192.1 266.3L192.1 256C192.1 185.3 249.4 128 320.1 128zM252.1 528C262 556 288.7 576 320 576C351.3 576 378 556 387.9 528L352 528C344.7 537.7 333.1 544 320 544C306.9 544 295.3 537.7 288 528L252.1 528zM0 240C0 248.8 7.2 256 16 256L96 256C104.8 256 112 248.8 112 240C112 231.2 104.8 224 96 224L16 224C7.2 224 0 231.2 0 240zM544 224C535.2 224 528 231.2 528 240C528 248.8 535.2 256 544 256L624 256C632.8 256 640 248.8 640 240C640 231.2 632.8 224 624 224L544 224zM40.8 94.3L104.8 126.3C112.7 130.3 122.3 127 126.3 119.1C130.3 111.2 127 101.6 119.1 97.6L55.1 65.6C47.2 61.6 37.6 64.9 33.6 72.8C29.6 80.7 32.9 90.3 40.8 94.3z"/></svg>