<svg xmlns="http://www.w3.org/2000/svg" viewBox="0 0 640 640"><!--! Font Awesome Pro 7.1.0 by @fontawesome - https://fontawesome.com License - https://fontawesome.com/license (Commercial License) Copyright 2025 Fonticons, Inc. --><path fill="currentColor" d="M304 96C401.2 96 480 174.8 480 272C480 369.2 401.2 448 304 448C206.8 448 128 369.2 128 272C128 174.8 206.8 96 304 96zM304 480C418.9 480 512 386.9 512 272C512 157.1 418.9 64 304 64C189.1 64 96 157.1 96 272C96 386.9 189.1 480 304 480zM304 224C330.5 224 352 245.5 352 272C352 298.5 330.5 320 304 320C277.5 320 256 298.5 256 272C256 245.5 277.5 224 304 224zM304 352C348.2 352 384 316.2 384 272C384 227.8 348.2 192 304 192C259.8 192 224 227.8 224 272C224 316.2 259.8 352 304 352zM528 416C528 407.2 535.2 400 544 400C552.8 400 560 407.2 560 416C560 424.8 552.8 432 544 432C535.2 432 528 424.8 528 416zM592 416C592 389.5 570.5 368 544 368C517.5 368 496 389.5 496 416C496 436.9 509.4 454.7 528 461.3L528 480C528 515.3 499.3 544 464 544L439.4 544C444.8 534.6 448 523.7 448 512L448 483.7C437.8 490.6 427.1 496.8 416 502.3L416 512C416 529.7 401.7 544 384 544L224 544C206.3 544 192 529.7 192 512L192 502.3C180.9 496.9 170.2 490.7 160 483.7L160 512C160 547.3 188.7 576 224 576L464 576C517 576 560 533 560 480L560 461.3C578.6 454.7 592 436.9 592 416z"/></svg>