<svg xmlns="http://www.w3.org/2000/svg" viewBox="0 0 640 640"><!--! Font Awesome Pro 7.1.0 by @fontawesome - https://fontawesome.com License - https://fontawesome.com/license (Commercial License) Copyright 2025 Fonticons, Inc. --><path fill="currentColor" d="M304 80C304 71.2 311.2 64 320 64C328.8 64 336 71.2 336 80L336 96.8C416.9 104.8 480 173 480 256L480 266.3C480 311.4 495.4 355.2 523.5 390.4L533.6 403C540.3 411.4 544 421.8 544 432.6C544 458.8 522.8 480 496.6 480L143.4 480C117.2 480 96 458.8 96 432.6C96 421.9 99.7 411.4 106.4 403L116.5 390.4C144.6 355.2 160 311.4 160 266.3L160 256C160 173 223.1 104.8 304 96.8L304 80zM192 256L192 266.3C192 318.7 174.2 369.5 141.4 410.4L131.4 423C129.2 425.7 128 429.1 128 432.6C128 441.1 134.9 448 143.4 448L496.6 448C505.1 448 512 441.1 512 432.6C512 429.1 510.8 425.7 508.6 423L498.5 410.4C465.8 369.5 448 318.7 448 266.3L448 256C448 185.3 390.7 128 320 128C249.3 128 192 185.3 192 256zM320 576C288.7 576 262 556 252.1 528L288 528C295.3 537.7 306.9 544 320 544C333.1 544 344.7 537.7 352 528L387.9 528C378 556 351.3 576 320 576zM304 360L304 304L248 304C239.2 304 232 296.8 232 288C232 279.2 239.2 272 248 272L304 272L304 216C304 207.2 311.2 200 320 200C328.8 200 336 207.2 336 216L336 272L392 272C400.8 272 408 279.2 408 288C408 296.8 400.8 304 392 304L336 304L336 360C336 368.8 328.8 376 320 376C311.2 376 304 368.8 304 360z"/></svg>