<svg xmlns="http://www.w3.org/2000/svg" viewBox="0 0 640 640"><!--! Font Awesome Pro 7.1.0 by @fontawesome - https://fontawesome.com License - https://fontawesome.com/license (Commercial License) Copyright 2025 Fonticons, Inc. --><path fill="currentColor" d="M356.2 118.6C348.4 120.7 340.8 123.4 333.4 126.4C319.9 98.7 295 76.6 263.1 67.9C204.9 52 145.5 86.3 130.2 144.6L124.4 166.5C111.7 214.9 83.1 257.6 43.2 287.6C42 288.5 32.3 296.5 32.3 296.5L55.3 302.8L220.7 348C221 349.3 221.3 350.5 221.6 351.8L227.4 373.7C228.3 377 229 380.3 229.6 383.7L23.9 327.3C6.8 322.6-3.4 304.9 1.1 287.8C2.9 280.8 7 274.7 12.7 270.4L24 262C58.1 236.4 82.6 199.9 93.5 158.4L99.3 136.5C119.1 61 196.3 16.4 271.6 37C314.4 48.7 347.3 78.9 364.2 116.6C361.5 117.2 358.9 117.9 356.2 118.6zM224.8 455C215.2 460.7 204 464 192 464C158.6 464 131.1 438.3 128.2 405.6L163.9 415.4C169.3 425.3 179.9 432 192 432C198 432 203.5 430.4 208.3 427.5L230 433.4C228.8 440.7 227 447.8 224.7 454.9zM616 390L627.3 398.5C633 402.8 637.1 408.9 638.9 415.9C643.4 433 633.2 450.7 616.1 455.4L296.1 542.9C279 547.6 261.5 537.5 257 520.3C255.2 513.3 255.7 506 258.6 499.3L264.2 486.2C281.2 446.6 284.5 402.5 273.6 361L267.8 339.1C248.1 263.6 293.1 185.6 368.4 165C443.7 144.4 520.9 189 540.7 264.5L546.5 286.4C557.4 327.9 581.9 364.4 616 390zM293.7 498.8L288.1 511.9L607.8 424.5L596.8 415.7C556.9 385.7 528.3 343.1 515.6 294.6L509.8 272.7C494.5 214.4 435 180.1 376.9 196C318.5 212 283.6 272.5 298.9 331.1L304.7 353C317.4 401.4 313.5 452.8 293.7 498.9zM360.1 575.1L392.9 566.1C398.7 572.2 406.9 575.9 416 575.9C431.2 575.9 443.9 565.4 447.2 551.2L480 542.2C480 542.8 480 543.3 480 543.9C480 579.2 451.3 607.9 416 607.9C392 607.9 371 594.6 360.1 575z"/></svg>