<svg xmlns="http://www.w3.org/2000/svg" viewBox="0 0 640 640"><!--! Font Awesome Pro 7.1.0 by @fontawesome - https://fontawesome.com License - https://fontawesome.com/license (Commercial License) Copyright 2025 Fonticons, Inc. --><path fill="currentColor" d="M59.3 36.8C53.1 30.6 42.9 30.6 36.7 36.8C30.5 43 30.5 53.2 36.7 59.4L580.7 603.4C586.9 609.6 597.1 609.6 603.3 603.4C609.5 597.2 609.5 587 603.3 580.8L544.1 521.6C554.2 504.7 560 485 560 464L560 461.3C578.6 454.7 592 436.9 592 416C592 389.5 570.5 368 544 368C517.5 368 496 389.5 496 416C496 436.9 509.4 454.7 528 461.3L528 464C528 476.1 525.3 487.6 520.5 497.9L446.3 423.7C486.7 385.8 512 331.8 512 272C512 157.1 418.9 64 304 64C244.2 64 190.2 89.3 152.3 129.7L59.3 36.7zM174.9 152.4C207 117.7 253 96 304 96C401.2 96 480 174.8 480 272C480 323 458.3 369 423.6 401.1L355.6 333.1C372.9 318.4 384 296.5 384 272C384 227.8 348.2 192 304 192C279.5 192 257.6 203 242.9 220.4L174.9 152.4zM332.9 310.4L265.7 243.2C274.5 231.6 288.4 224.1 304 224.1C330.5 224.1 352 245.6 352 272.1C352 287.8 344.5 301.7 332.9 310.4zM544 400C552.8 400 560 407.2 560 416C560 424.8 552.8 432 544 432C535.2 432 528 424.8 528 416C528 407.2 535.2 400 544 400zM109 199.5C100.6 222.1 96 246.5 96 272C96 386.9 189.1 480 304 480C329.5 480 353.9 475.4 376.5 467L351.1 441.6C336.1 445.8 320.3 448 304 448C206.8 448 128 369.2 128 272C128 255.7 130.2 239.9 134.4 224.9L109 199.5zM448 544C449.8 544 451.6 543.9 453.3 543.8L480.6 571.1C470.3 574.2 459.3 575.9 447.9 575.9L223.9 575.9C188.6 575.9 159.9 547.2 159.9 511.9L159.9 483.6C170.1 490.5 180.8 496.7 191.9 502.2L191.9 511.9C191.9 529.6 206.2 543.9 223.9 543.9L447.9 543.9z"/></svg>