<svg xmlns="http://www.w3.org/2000/svg" viewBox="0 0 640 640"><!--! Font Awesome Pro 7.1.0 by @fontawesome - https://fontawesome.com License - https://fontawesome.com/license (Commercial License) Copyright 2025 Fonticons, Inc. --><path fill="currentColor" d="M59.3 36.8C53.1 30.6 42.9 30.6 36.7 36.8C30.5 43 30.5 53.2 36.7 59.4L580.7 603.4C586.9 609.6 597.1 609.6 603.3 603.4C609.5 597.2 609.5 587 603.3 580.8L502.2 479.7C525.7 476.9 544 456.9 544 432.6C544 421.8 540.3 411.4 533.6 403L523.5 390.4C495.3 355.2 480 311.4 480 266.3L480 256C480 173 416.9 104.8 336 96.8L336 80C336 71.2 328.8 64 320 64C311.2 64 304 71.2 304 80L304 96.8C255.9 101.6 214 127.7 188 165.5L59.3 36.8zM211.2 188.6C233.7 152.2 274 128 320 128C390.7 128 448 185.3 448 256L448 266.3C448 318.7 465.8 369.5 498.6 410.4L508.6 423C510.8 425.7 512 429.1 512 432.6C512 441.1 505.1 448 496.6 448L470.5 448L211.1 188.6zM160 256L160 266.3C160 311.4 144.6 355.2 116.5 390.4L106.4 403C99.7 411.4 96 421.8 96 432.6C96 458.8 117.2 480 143.4 480L389.5 480L357.5 448L143.4 448C134.9 448 128 441.1 128 432.6C128 429.1 129.2 425.7 131.4 423L141.5 410.4C170.9 373.6 188.3 328.7 191.5 282L160.1 250.6C160 252.4 160 254.2 160 256zM252.1 528C262 556 288.7 576 320 576C351.3 576 378 556 387.9 528L352 528C344.7 537.7 333.1 544 320 544C306.9 544 295.3 537.7 288 528L252.1 528z"/></svg>