<svg xmlns="http://www.w3.org/2000/svg" viewBox="0 0 640 640"><!--! Font Awesome Pro 7.1.0 by @fontawesome - https://fontawesome.com License - https://fontawesome.com/license (Commercial License) Copyright 2025 Fonticons, Inc. --><path fill="currentColor" d="M575.2 170.1C573.3 182 578.3 194 588.1 201C600.2 209.8 608 223.9 608 239.9C608 266.4 586.5 287.9 560 287.9L464 287.9C437.5 287.9 416 266.4 416 239.9C416 223.9 423.8 209.7 435.9 201C445.7 193.9 450.6 182 448.8 170.1C448.3 166.8 448 163.4 448 160C448 124.7 476.7 96 512 96C547.3 96 576 124.7 576 160C576 163.5 575.7 166.8 575.2 170.1zM606.8 175.1C607.6 170.2 608 165.1 608 160C608 107 565 64 512 64C459 64 416 107 416 160C416 165.1 416.4 170.2 417.2 175.1C397.1 189.6 384 213.3 384 240C384 284.2 419.8 320 464 320L496 320L496 560C496 568.8 503.2 576 512 576C520.8 576 528 568.8 528 560L528 320L560 320C604.2 320 640 284.2 640 240C640 213.3 626.9 189.7 606.8 175.1zM64 288L320 288L320 352L64 352L64 288zM64 384L64 432L16 432C7.2 432 0 439.2 0 448C0 456.8 7.2 464 16 464L32 464L32 560C32 568.8 39.2 576 48 576C56.8 576 64 568.8 64 560L64 464L320 464L320 560C320 568.8 327.2 576 336 576C344.8 576 352 568.8 352 560L352 464L368 464C376.8 464 384 456.8 384 448C384 439.2 376.8 432 368 432L320 432L320 384C337.7 384 352 369.7 352 352L352 288C352 270.3 337.7 256 320 256L64 256C46.3 256 32 270.3 32 288L32 352C32 369.7 46.3 384 64 384zM288 384L288 432L96 432L96 384L288 384z"/></svg>