<svg xmlns="http://www.w3.org/2000/svg" viewBox="0 0 640 640"><!--! Font Awesome Pro 7.1.0 by @fontawesome - https://fontawesome.com License - https://fontawesome.com/license (Commercial License) Copyright 2025 Fonticons, Inc. --><path fill="currentColor" d="M512 160C529.7 160 544 174.3 544 192L544 208L96 208L96 192C96 174.3 110.3 160 128 160L512 160zM96 448L96 240L544 240L544 448C544 465.7 529.7 480 512 480L128 480C110.3 480 96 465.7 96 448zM128 128C92.7 128 64 156.7 64 192L64 448C64 483.3 92.7 512 128 512L512 512C547.3 512 576 483.3 576 448L576 192C576 156.7 547.3 128 512 128L128 128zM384 320L480 320L480 416L384 416L384 320zM352 320L352 416C352 433.7 366.3 448 384 448L480 448C497.7 448 512 433.7 512 416L512 320C512 302.3 497.7 288 480 288L384 288C366.3 288 352 302.3 352 320zM208 320C234.5 320 256 341.5 256 368C256 394.5 234.5 416 208 416C181.5 416 160 394.5 160 368C160 341.5 181.5 320 208 320zM208 448C252.2 448 288 412.2 288 368C288 323.8 252.2 288 208 288C163.8 288 128 323.8 128 368C128 412.2 163.8 448 208 448zM208 384C216.8 384 224 376.8 224 368C224 359.2 216.8 352 208 352C199.2 352 192 359.2 192 368C192 376.8 199.2 384 208 384z"/></svg>