<svg xmlns="http://www.w3.org/2000/svg" viewBox="0 0 640 640"><!--! Font Awesome Pro 7.1.0 by @fontawesome - https://fontawesome.com License - https://fontawesome.com/license (Commercial License) Copyright 2025 Fonticons, Inc. --><path fill="currentColor" d="M352 128C360.8 128 368 135.2 368 144L368 208C368 216.8 360.8 224 352 224L288 224C279.2 224 272 216.8 272 208L272 144C272 135.2 279.2 128 288 128L352 128zM435.4 192L514 192C521.1 219.6 546.2 240 576 240C611.3 240 640 211.3 640 176C640 140.7 611.3 112 576 112C546.2 112 521.1 132.4 514 160L400 160L400 144C400 117.5 378.5 96 352 96L288 96C261.5 96 240 117.5 240 144L240 160L126 160C118.9 132.4 93.8 112 64 112C28.7 112 0 140.7 0 176C0 211.3 28.7 240 64 240C93.8 240 118.9 219.6 126 192L204.6 192C139.5 231.2 96 302.5 96 384L80 384C53.5 384 32 405.5 32 432L32 496C32 522.5 53.5 544 80 544L144 544C170.5 544 192 522.5 192 496L192 432C192 405.5 170.5 384 144 384L128 384C128 306.5 173.9 239.7 240 209.4C240.7 235.3 261.9 256 288 256L352 256C378 256 399.2 235.3 400 209.4C466.1 239.7 512 306.5 512 384L496 384C469.5 384 448 405.5 448 432L448 496C448 522.5 469.5 544 496 544L560 544C586.5 544 608 522.5 608 496L608 432C608 405.5 586.5 384 560 384L544 384C544 302.5 500.5 231.2 435.4 192zM544 416L560 416C568.8 416 576 423.2 576 432L576 496C576 504.8 568.8 512 560 512L496 512C487.2 512 480 504.8 480 496L480 432C480 423.2 487.2 416 496 416L544 416zM128 416L144 416C152.8 416 160 423.2 160 432L160 496C160 504.8 152.8 512 144 512L80 512C71.2 512 64 504.8 64 496L64 432C64 423.2 71.2 416 80 416L128 416zM32 176C32 158.3 46.3 144 64 144C81.7 144 96 158.3 96 176C96 193.7 81.7 208 64 208C46.3 208 32 193.7 32 176zM544 176C544 158.3 558.3 144 576 144C593.7 144 608 158.3 608 176C608 193.7 593.7 208 576 208C558.3 208 544 193.7 544 176z"/></svg>