<svg xmlns="http://www.w3.org/2000/svg" viewBox="0 0 640 640"><!--! Font Awesome Pro 7.1.0 by @fontawesome - https://fontawesome.com License - https://fontawesome.com/license (Commercial License) Copyright 2025 Fonticons, Inc. --><path fill="currentColor" d="M322.3 103.7C325.2 98.9 330.4 96 336 96L448 96C456.8 96 464 103.2 464 112C464 120.8 456.8 128 448 128L362.5 128L451 296.1C465 290.8 480.2 288 496 288C566.7 288 624 345.3 624 416C624 486.7 566.7 544 496 544C425.3 544 368 486.7 368 416C368 372.6 389.6 334.2 422.7 311.1L402 271.8L326.3 423.2C323.6 428.6 318.1 432 312 432L271 432C263.1 495.1 209.3 544 144 544C73.3 544 16 486.7 16 416C16 345.3 73.3 288 144 288C156.4 288 168.3 289.8 179.6 293L206.1 240L182.1 192L144 192C135.2 192 128 184.8 128 176C128 167.2 135.2 160 144 160L192 160C198.1 160 203.6 163.4 206.3 168.8L233.9 224L376.9 224L321.9 119.5C319.3 114.5 319.5 108.6 322.4 103.8zM224 275.8L161.9 400L286.1 400L224 275.8zM312 380.2L374.1 256L249.9 256L312 380.2zM481.8 423.4L437.7 339.6C414.7 357.1 399.9 384.8 399.9 415.9C399.9 468.9 442.9 511.9 495.9 511.9C548.9 511.9 591.9 468.9 591.9 415.9C591.9 362.9 548.9 319.9 495.9 319.9C485.4 319.9 475.4 321.6 466 324.7L510.1 408.5C514.2 416.3 511.2 426 503.4 430.1C495.6 434.2 485.9 431.2 481.8 423.4zM144 512C191.6 512 231.1 477.4 238.7 432L141.2 432C126.9 432 117.6 417 124 404.2L165 322.3C158.3 320.8 151.2 320 144 320C91 320 48 363 48 416C48 469 91 512 144 512z"/></svg>