<svg xmlns="http://www.w3.org/2000/svg" viewBox="0 0 640 640"><!--! Font Awesome Pro 7.1.0 by @fontawesome - https://fontawesome.com License - https://fontawesome.com/license (Commercial License) Copyright 2025 Fonticons, Inc. --><path fill="currentColor" d="M368 120C368 106.7 378.7 96 392 96C405.3 96 416 106.7 416 120C416 133.3 405.3 144 392 144C378.7 144 368 133.3 368 120zM448 120C448 89.1 422.9 64 392 64C361.1 64 336 89.1 336 120C336 150.9 361.1 176 392 176C422.9 176 448 150.9 448 120zM309.6 220.8C315.5 216.1 324 216.1 329.8 221L405.7 284.3C408.6 286.7 412.2 288 415.9 288L479.9 288C488.7 288 495.9 280.8 495.9 272C495.9 263.2 488.7 256 479.9 256L421.7 256L350.2 196.4C332.7 181.8 307.3 181.5 289.5 195.8L237.3 237.5C205.9 262.6 210.4 311.7 245.9 330.6L304 361.6L304 480C304 488.8 311.2 496 320 496C328.8 496 336 488.8 336 480L336 352C336 346.1 332.7 340.7 327.5 337.9L261.1 302.5C245.9 294.4 243.9 273.4 257.4 262.6L309.6 220.9zM144 384C188.2 384 224 419.8 224 464C224 508.2 188.2 544 144 544C99.8 544 64 508.2 64 464C64 419.8 99.8 384 144 384zM144 576C205.9 576 256 525.9 256 464C256 402.1 205.9 352 144 352C82.1 352 32 402.1 32 464C32 525.9 82.1 576 144 576zM416 464C416 419.8 451.8 384 496 384C540.2 384 576 419.8 576 464C576 508.2 540.2 544 496 544C451.8 544 416 508.2 416 464zM608 464C608 402.1 557.9 352 496 352C434.1 352 384 402.1 384 464C384 525.9 434.1 576 496 576C557.9 576 608 525.9 608 464z"/></svg>