<svg xmlns="http://www.w3.org/2000/svg" viewBox="0 0 640 640"><!--! Font Awesome Pro 7.1.0 by @fontawesome - https://fontawesome.com License - https://fontawesome.com/license (Commercial License) Copyright 2025 Fonticons, Inc. --><path fill="currentColor" d="M392 96C405.3 96 416 106.7 416 120C416 133.3 405.3 144 392 144C378.7 144 368 133.3 368 120C368 106.7 378.7 96 392 96zM392 176C422.9 176 448 150.9 448 120C448 89.1 422.9 64 392 64C361.1 64 336 89.1 336 120C336 150.9 361.1 176 392 176zM160 352C160 343.2 152.8 336 144 336C135.2 336 128 343.2 128 352L128 353.1C109 355.8 91.6 363.3 76.9 374.3L76.1 373.5C69.9 367.3 59.7 367.3 53.5 373.5C47.3 379.7 47.3 389.9 53.5 396.1L54.3 396.9C43.3 411.6 35.8 429 33.1 448L32 448C23.2 448 16 455.2 16 464C16 472.8 23.2 480 32 480L33.1 480C35.8 499 43.3 516.4 54.3 531.1L53.5 531.9C47.3 538.1 47.3 548.3 53.5 554.5C59.7 560.7 69.9 560.7 76.1 554.5L76.9 553.7C91.6 564.7 109 572.1 128 574.9L128 576C128 584.8 135.2 592 144 592C152.8 592 160 584.8 160 576L160 574.9C179 572.2 196.4 564.7 211.1 553.7L211.9 554.5C218.1 560.7 228.3 560.7 234.5 554.5C240.7 548.3 240.7 538.1 234.5 531.9L233.7 531.1C244.7 516.4 252.1 499 254.9 480L256 480C264.8 480 272 472.8 272 464C272 455.2 264.8 448 256 448L254.9 448C252.2 429 244.7 411.6 233.7 396.9L234.5 396.1C240.7 389.9 240.7 379.7 234.5 373.5C228.3 367.3 218.1 367.3 211.9 373.5L211.1 374.3C196.4 363.3 179 355.9 160 353.1L160 352zM64 464C64 419.8 99.8 384 144 384C188.2 384 224 419.8 224 464C224 508.2 188.2 544 144 544C99.8 544 64 508.2 64 464zM512 352C512 343.2 504.8 336 496 336C487.2 336 480 343.2 480 352L480 353.1C461 355.8 443.6 363.3 428.9 374.3L428.1 373.5C421.9 367.3 411.7 367.3 405.5 373.5C399.3 379.7 399.3 389.9 405.5 396.1L406.3 396.9C395.3 411.6 387.9 429 385.1 448L384 448C375.2 448 368 455.2 368 464C368 472.8 375.2 480 384 480L385.1 480C387.8 499 395.3 516.4 406.3 531.1L405.5 531.9C399.3 538.1 399.3 548.3 405.5 554.5C411.7 560.7 421.9 560.7 428.1 554.5L428.9 553.7C443.6 564.7 461 572.1 480 574.9L480 576C480 584.8 487.2 592 496 592C504.8 592 512 584.8 512 576L512 574.9C531 572.2 548.4 564.7 563.1 553.7L563.9 554.5C570.1 560.7 580.3 560.7 586.5 554.5C592.7 548.3 592.7 538.1 586.5 531.9L585.7 531.1C596.7 516.4 604.1 499 606.9 480L608 480C616.8 480 624 472.8 624 464C624 455.2 616.8 448 608 448L606.9 448C604.2 429 596.7 411.6 585.7 396.9L586.5 396.1C592.7 389.9 592.7 379.7 586.5 373.5C580.3 367.3 570.1 367.3 563.9 373.5L563.1 374.3C548.4 363.3 531 355.9 512 353.1L512 352zM416 464C416 419.8 451.8 384 496 384C540.2 384 576 419.8 576 464C576 508.2 540.2 544 496 544C451.8 544 416 508.2 416 464zM309.6 220.8C315.5 216.1 324 216.1 329.8 221L405.7 284.3C408.6 286.7 412.2 288 415.9 288L479.9 288C488.7 288 495.9 280.8 495.9 272C495.9 263.2 488.7 256 479.9 256L421.7 256L350.2 196.4C332.7 181.8 307.3 181.5 289.5 195.8L237.3 237.5C205.9 262.6 210.4 311.7 245.9 330.6L304 361.6L304 480C304 488.8 311.2 496 320 496C328.8 496 336 488.8 336 480L336 352C336 346.1 332.7 340.7 327.5 337.9L261.1 302.5C245.9 294.4 243.9 273.4 257.4 262.6L309.6 220.9z"/></svg>