<svg xmlns="http://www.w3.org/2000/svg" viewBox="0 0 640 640"><!--! Font Awesome Pro 7.1.0 by @fontawesome - https://fontawesome.com License - https://fontawesome.com/license (Commercial License) Copyright 2025 Fonticons, Inc. --><path fill="currentColor" d="M416 96C424.8 96 432 103.2 432 112L432 128L512 128C547.3 128 576 156.7 576 192L576 448L592 448C600.8 448 608 455.2 608 464C608 472.8 600.8 480 592 480L336 480L336 560C336 568.8 328.8 576 320 576C311.2 576 304 568.8 304 560L304 480L48 480C39.2 480 32 472.8 32 464C32 455.2 39.2 448 48 448L64 448L64 192C64 156.7 92.7 128 128 128L208 128L208 112C208 103.2 215.2 96 224 96C232.8 96 240 103.2 240 112L240 128L400 128L400 112C400 103.2 407.2 96 416 96zM320 448L544 448L544 192C544 174.3 529.7 160 512 160L432 160L432 208L464 208C472.8 208 480 215.2 480 224C480 232.8 472.8 240 464 240L368 240C359.2 240 352 232.8 352 224C352 215.2 359.2 208 368 208L400 208L400 160L240 160L240 208L272 208C280.8 208 288 215.2 288 224C288 232.8 280.8 240 272 240L176 240C167.2 240 160 232.8 160 224C160 215.2 167.2 208 176 208L208 208L208 160L128 160C110.3 160 96 174.3 96 192L96 448L320 448z"/></svg>