<svg xmlns="http://www.w3.org/2000/svg" viewBox="0 0 640 640"><!--! Font Awesome Pro 7.1.0 by @fontawesome - https://fontawesome.com License - https://fontawesome.com/license (Commercial License) Copyright 2025 Fonticons, Inc. --><path fill="currentColor" d="M160 128L160 160L224 160L224 128L160 128zM128 160L128 128C128 110.3 142.3 96 160 96L224 96C241.7 96 256 110.3 256 128L256 160C291.3 160 320 188.7 320 224C320 188.7 348.7 160 384 160L384 128C384 110.3 398.3 96 416 96L480 96C497.7 96 512 110.3 512 128L512 160C547.3 160 576 188.7 576 224L576 256L592 256C600.8 256 608 263.2 608 272C608 280.8 600.8 288 592 288L572.8 288L549.8 518.4C546.5 551.1 519 576 486.1 576L153.9 576C121 576 93.5 551.1 90.2 518.4L67.2 288L48 288C39.2 288 32 280.8 32 272C32 263.2 39.2 256 48 256L64 256L64 224C64 188.7 92.7 160 128 160zM544 224C544 206.3 529.7 192 512 192L384 192C366.3 192 352 206.3 352 224L352 256L544 256L544 224zM288 224C288 206.3 273.7 192 256 192L128 192C110.3 192 96 206.3 96 224L96 256L288 256L288 224zM416 128L416 160L480 160L480 128L416 128zM99.4 288L122.1 515.2C123.7 531.6 137.5 544 153.9 544L486.1 544C502.5 544 516.3 531.5 517.9 515.2L540.6 288L99.4 288zM320 352C315 352 310.4 354.4 307.4 358.4L287 386.3C282 393.1 272.7 394.8 265.6 390.4C257.7 385.5 255.7 374.9 261.2 367.4L281.7 339.5C290.7 327.3 304.9 320.1 320.1 320.1C335.3 320.1 349.5 327.3 358.5 339.5L379 367.4C384.5 374.9 382.5 385.5 374.6 390.4C367.5 394.8 358.2 393 353.2 386.3L332.7 358.4C329.8 354.4 325.1 352 320.1 352zM239.8 421.5C247.7 426.4 249.7 437 244.2 444.5L234.7 457.5C232.9 459.9 232 462.9 232 465.9C232 473.7 238.3 480 246.1 480L284 480C292.8 480 300 487.2 300 496C300 504.8 292.8 512 284 512L246.1 512C220.6 512 200 491.3 200 465.9C200 456.1 203.1 446.5 208.9 438.6L218.4 425.6C223.4 418.8 232.7 417.1 239.8 421.5zM340 496C340 487.2 347.2 480 356 480L393.9 480C401.7 480 408 473.7 408 465.9C408 462.9 407 460 405.3 457.5L395.8 444.5C390.3 437 392.3 426.4 400.2 421.5C407.3 417.1 416.6 418.9 421.6 425.6L431.1 438.6C436.9 446.5 440 456.1 440 465.9C440 491.4 419.3 512 393.9 512L356 512C347.2 512 340 504.8 340 496z"/></svg>