<svg xmlns="http://www.w3.org/2000/svg" viewBox="0 0 640 640"><!--! Font Awesome Pro 7.1.0 by @fontawesome - https://fontawesome.com License - https://fontawesome.com/license (Commercial License) Copyright 2025 Fonticons, Inc. --><path fill="currentColor" d="M224 128L224 160L160 160L160 128L224 128zM128 128L128 160C92.7 160 64 188.7 64 224L64 256L48 256C39.2 256 32 263.2 32 272C32 280.8 39.2 288 48 288L67.2 288L90.2 518.4C93.5 551.1 121 576 153.9 576L486.1 576C519 576 546.5 551.1 549.8 518.4L572.8 288L592 288C600.8 288 608 280.8 608 272C608 263.2 600.8 256 592 256L576 256L576 224C576 188.7 547.3 160 512 160L512 128C512 110.3 497.7 96 480 96L416 96C398.3 96 384 110.3 384 128L384 160C348.7 160 320 188.7 320 224C320 188.7 291.3 160 256 160L256 128C256 110.3 241.7 96 224 96L160 96C142.3 96 128 110.3 128 128zM544 256L352 256L352 224C352 206.3 366.3 192 384 192L512 192C529.7 192 544 206.3 544 224L544 256zM288 256L96 256L96 224C96 206.3 110.3 192 128 192L256 192C273.7 192 288 206.3 288 224L288 256zM480 128L480 160L416 160L416 128L480 128zM122.1 515.2L99.4 288L540.6 288L517.9 515.2C516.3 531.6 502.5 544 486.1 544L153.9 544C137.5 544 123.7 531.5 122.1 515.2z"/></svg>