<svg xmlns="http://www.w3.org/2000/svg" viewBox="0 0 640 640"><!--! Font Awesome Pro 7.1.0 by @fontawesome - https://fontawesome.com License - https://fontawesome.com/license (Commercial License) Copyright 2025 Fonticons, Inc. --><path fill="currentColor" d="M32 144C32 135.2 39.2 128 48 128L592 128C600.8 128 608 135.2 608 144C608 152.8 600.8 160 592 160L576 160L549.3 453.8C546.3 486.8 518.7 512 485.6 512L154.5 512C121.4 512 93.8 486.8 90.8 453.8L64 160L48 160C39.2 160 32 152.8 32 144zM96.1 160L122.6 450.9C124.1 467.4 137.9 480 154.5 480L485.6 480C502.2 480 516 467.4 517.5 450.9L543.9 160L96.1 160zM320 240C315.2 240 310.6 242.3 307.8 246.3L284 280.1C279.1 287 269.6 288.9 262.4 284.4C254.6 279.5 252.5 269.1 257.8 261.6L281.7 227.8C290.5 215.4 304.8 208 320 208C335.2 208 349.5 215.4 358.3 227.8L382.2 261.6C387.5 269.1 385.4 279.5 377.6 284.4C370.4 288.9 360.9 287 356 280.1L332.1 246.3C329.3 242.4 324.8 240 319.9 240zM237.8 316.2C245.6 321.1 247.7 331.5 242.4 339L226.6 361.3C224.9 363.7 224 366.6 224 369.6C224 377.5 230.4 384 238.4 384L284 384C292.8 384 300 391.2 300 400C300 408.8 292.8 416 284 416L238.4 416C212.8 416 192 395.2 192 369.6C192 360 195 350.7 200.5 342.9L216.3 320.6C221.2 313.7 230.7 311.8 237.9 316.3zM340 400C340 391.2 347.2 384 356 384L401.6 384C409.5 384 416 377.6 416 369.6C416 366.6 415.1 363.7 413.4 361.3L397.6 339C392.3 331.5 394.4 321.1 402.2 316.2C409.4 311.7 418.9 313.6 423.7 320.5L439.5 342.8C445 350.6 448 360 448 369.5C448 395.1 427.2 415.9 401.6 415.9L356 416C347.2 416 340 408.8 340 400z"/></svg>