<svg xmlns="http://www.w3.org/2000/svg" viewBox="0 0 640 640"><!--! Font Awesome Pro 7.1.0 by @fontawesome - https://fontawesome.com License - https://fontawesome.com/license (Commercial License) Copyright 2025 Fonticons, Inc. --><path fill="currentColor" d="M48 128C39.2 128 32 135.2 32 144C32 152.8 39.2 160 48 160L64 160L90.7 453.8C93.7 486.8 121.3 512 154.4 512L485.5 512C518.6 512 546.2 486.8 549.2 453.8L576 160L592 160C600.8 160 608 152.8 608 144C608 135.2 600.8 128 592 128L48 128zM543.9 160L517.4 450.9C515.9 467.4 502.1 480 485.5 480L154.4 480C137.8 480 124 467.4 122.5 450.9L96.1 160L543.9 160z"/></svg>