<svg xmlns="http://www.w3.org/2000/svg" viewBox="0 0 640 640"><!--! Font Awesome Pro 7.1.0 by @fontawesome - https://fontawesome.com License - https://fontawesome.com/license (Commercial License) Copyright 2025 Fonticons, Inc. --><path fill="currentColor" d="M59.3 36.8C53.1 30.6 42.9 30.6 36.7 36.8C30.5 43 30.5 53.2 36.7 59.4L580.7 603.4C586.9 609.6 597.1 609.6 603.3 603.4C609.5 597.2 609.5 587 603.3 580.8L512 489.5L512 416C512 380.7 483.3 352 448 352L384 352C381 352 378 352.2 375.1 352.6L296.2 273.7C310.8 262 320 244.1 320 224L320 128C320 92.7 291.3 64 256 64L192 64C163.5 64 139.3 82.7 131 108.5L59.3 36.8zM160 137.5L160 128C160 110.3 174.3 96 192 96L256 96C273.7 96 288 110.3 288 128L288 224C288 235.3 282.2 245.2 273.4 250.9L160 137.5zM406.5 384L448 384C465.7 384 480 398.3 480 416L480 457.5L406.5 384zM320.2 410.7C320.1 412.4 320 414.2 320 416L320 512C320 547.3 348.7 576 384 576L448 576C458.9 576 469.1 573.3 478 568.5L453.1 543.6C451.4 543.9 449.7 544 448 544L384 544C366.3 544 352 529.7 352 512L352 442.5L320.2 410.7zM441.8 67.4C437.9 64.4 432.9 63.3 428.1 64.5L364.1 80.5C355.5 82.6 350.3 91.3 352.5 99.9C354.7 108.5 363.3 113.7 371.9 111.5L416 100.5L416 256L368 256C359.2 256 352 263.2 352 272C352 280.8 359.2 288 368 288L496 288C504.8 288 512 280.8 512 272C512 263.2 504.8 256 496 256L448 256L448 80C448 75.1 445.7 70.4 441.8 67.4zM217.8 355.4C213.9 352.4 208.9 351.3 204.1 352.5L140.1 368.5C131.5 370.6 126.3 379.3 128.5 387.9C130.7 396.5 139.3 401.7 147.9 399.5L192 388.5L192 544L144 544C135.2 544 128 551.2 128 560C128 568.8 135.2 576 144 576L272 576C280.8 576 288 568.8 288 560C288 551.2 280.8 544 272 544L224 544L224 368C224 363.1 221.7 358.4 217.8 355.4z"/></svg>