<svg xmlns="http://www.w3.org/2000/svg" viewBox="0 0 640 640"><!--! Font Awesome Pro 7.1.0 by @fontawesome - https://fontawesome.com License - https://fontawesome.com/license (Commercial License) Copyright 2025 Fonticons, Inc. --><path fill="currentColor" d="M416 80C416 75.1 413.7 70.4 409.8 67.4C405.9 64.4 400.9 63.3 396.1 64.5L332.1 80.5C323.5 82.6 318.3 91.3 320.5 99.9C322.7 108.5 331.3 113.7 339.9 111.5L384 100.5L384 256L336 256C327.2 256 320 263.2 320 272C320 280.8 327.2 288 336 288L396.1 288C406.5 275 419.4 264.1 434 256L416 256L416 80zM352 352C316.7 352 288 380.7 288 416L288 512C288 542.2 308.9 567.5 337.1 574.2C336.4 569.5 336 564.7 336 559.9L336 539.7C326.4 534.2 320 523.8 320 512L320 416C320 398.3 334.3 384 352 384L368 384L368 368C368 362.6 368.3 357.2 369 352L352 352zM192 368C192 363.1 189.7 358.4 185.8 355.4C181.9 352.4 176.9 351.3 172.1 352.5L108.1 368.5C99.5 370.6 94.3 379.3 96.5 387.9C98.7 396.5 107.3 401.7 115.9 399.5L160 388.5L160 544L112 544C103.2 544 96 551.2 96 560C96 568.8 103.2 576 112 576L240 576C248.8 576 256 568.8 256 560C256 551.2 248.8 544 240 544L192 544L192 368zM96 128L96 224C96 259.3 124.7 288 160 288L224 288C259.3 288 288 259.3 288 224L288 128C288 92.7 259.3 64 224 64L160 64C124.7 64 96 92.7 96 128zM160 96L224 96C241.7 96 256 110.3 256 128L256 224C256 241.7 241.7 256 224 256L160 256C142.3 256 128 241.7 128 224L128 128C128 110.3 142.3 96 160 96zM416 416.1L416 418.7C397.4 425.3 384 443.1 384 464L384 560C384 586.5 405.5 608 432 608L560 608C586.5 608 608 586.5 608 560L608 464C608 443.1 594.6 425.3 576 418.7L576 368.1C576 323.9 540.2 288.1 496 288.1C451.8 288.1 416 323.9 416 368.1L416 416.1zM416 464C416 455.8 422.2 449 430.3 448.1L561.8 448.1C569.8 449 576.1 455.8 576.1 464L576.1 560C576.1 568.8 568.9 576 560.1 576L432.1 576C423.3 576 416.1 568.8 416.1 560L416.1 464zM544 368.1L544 416L448 416L448 368.1C448 341.6 469.5 320.1 496 320.1C522.5 320.1 544 341.6 544 368.1z"/></svg>