<svg xmlns="http://www.w3.org/2000/svg" viewBox="0 0 640 640"><!--! Font Awesome Pro 7.1.0 by @fontawesome - https://fontawesome.com License - https://fontawesome.com/license (Commercial License) Copyright 2025 Fonticons, Inc. --><path fill="currentColor" d="M448 80L448 256L496 256C504.8 256 512 263.2 512 272C512 280.8 504.8 288 496 288L368 288C359.2 288 352 280.8 352 272C352 263.2 359.2 256 368 256L416 256L416 100.5L371.9 111.5C363.3 113.6 354.6 108.4 352.5 99.9C350.4 91.4 355.6 82.6 364.1 80.5L428.1 64.5C432.9 63.3 437.9 64.4 441.8 67.4C445.7 70.4 448 75.1 448 80zM224 368L224 544L272 544C280.8 544 288 551.2 288 560C288 568.8 280.8 576 272 576L144 576C135.2 576 128 568.8 128 560C128 551.2 135.2 544 144 544L192 544L192 388.5L147.9 399.5C139.3 401.6 130.6 396.4 128.5 387.9C126.4 379.4 131.6 370.6 140.1 368.5L204.1 352.5C208.9 351.3 213.9 352.4 217.8 355.4C221.7 358.4 224 363.1 224 368zM128 128C128 92.7 156.7 64 192 64L256 64C291.3 64 320 92.7 320 128L320 224C320 259.3 291.3 288 256 288L192 288C156.7 288 128 259.3 128 224L128 128zM192 96C174.3 96 160 110.3 160 128L160 224C160 241.7 174.3 256 192 256L256 256C273.7 256 288 241.7 288 224L288 128C288 110.3 273.7 96 256 96L192 96zM384 352L448 352C483.3 352 512 380.7 512 416L512 512C512 547.3 483.3 576 448 576L384 576C348.7 576 320 547.3 320 512L320 416C320 380.7 348.7 352 384 352zM352 416L352 512C352 529.7 366.3 544 384 544L448 544C465.7 544 480 529.7 480 512L480 416C480 398.3 465.7 384 448 384L384 384C366.3 384 352 398.3 352 416z"/></svg>