<svg xmlns="http://www.w3.org/2000/svg" viewBox="0 0 640 640"><!--! Font Awesome Pro 7.1.0 by @fontawesome - https://fontawesome.com License - https://fontawesome.com/license (Commercial License) Copyright 2025 Fonticons, Inc. --><path fill="currentColor" d="M416 80C416 75.1 413.7 70.4 409.8 67.4C405.9 64.4 400.9 63.3 396.1 64.5L332.1 80.5C323.5 82.6 318.3 91.3 320.5 99.9C322.7 108.5 331.3 113.7 339.9 111.5L384 100.5L384 256L336 256C327.2 256 320 263.2 320 272C320 280.8 327.2 288 336 288L387.1 288C410.6 277.7 436.6 272 464 272C469.4 272 474.7 272.2 480 272.7C480 272.5 480 272.3 480 272C480 263.2 472.8 256 464 256L416 256L416 80zM192 368C192 363.1 189.7 358.4 185.8 355.4C181.9 352.4 176.9 351.3 172.1 352.5L108.1 368.5C99.5 370.6 94.3 379.3 96.5 387.9C98.7 396.5 107.3 401.7 115.9 399.5L160 388.5L160 544L112 544C103.2 544 96 551.2 96 560C96 568.8 103.2 576 112 576L240 576C248.8 576 256 568.8 256 560C256 551.2 248.8 544 240 544L192 544L192 368zM96 128L96 224C96 259.3 124.7 288 160 288L224 288C259.3 288 288 259.3 288 224L288 128C288 92.7 259.3 64 224 64L160 64C124.7 64 96 92.7 96 128zM160 96L224 96C241.7 96 256 110.3 256 128L256 224C256 241.7 241.7 256 224 256L160 256C142.3 256 128 241.7 128 224L128 128C128 110.3 142.3 96 160 96zM464 352C525.9 352 576 402.1 576 464C576 525.9 525.9 576 464 576C402.1 576 352 525.9 352 464C352 402.1 402.1 352 464 352zM464 608C543.5 608 608 543.5 608 464C608 384.5 543.5 320 464 320C384.5 320 320 384.5 320 464C320 543.5 384.5 608 464 608zM521.4 403.1C514.3 397.9 504.2 399.5 499 406.6L446 479.5L419.2 452.7C413 446.5 402.8 446.5 396.6 452.7C390.4 458.9 390.4 469.1 396.6 475.3L436.6 515.3C439.9 518.6 444.5 520.3 449.2 519.9C453.9 519.5 458.1 517.1 460.9 513.4L524.9 425.4C530.1 418.3 528.5 408.2 521.4 403z"/></svg>