<svg xmlns="http://www.w3.org/2000/svg" viewBox="0 0 640 640"><!--! Font Awesome Pro 7.1.0 by @fontawesome - https://fontawesome.com License - https://fontawesome.com/license (Commercial License) Copyright 2025 Fonticons, Inc. --><path fill="currentColor" d="M176 96C167.2 96 160 103.2 160 112C160 120.8 167.2 128 176 128L240 128C248.8 128 256 120.8 256 112C256 103.2 248.8 96 240 96L176 96zM400 96C391.2 96 384 103.2 384 112C384 120.8 391.2 128 400 128L464 128C472.8 128 480 120.8 480 112C480 103.2 472.8 96 464 96L400 96zM256 496C256 504.8 248.8 512 240 512L112 512C103.2 512 96 504.8 96 496L96 420.9C96 392.1 103.8 363.8 118.7 339C134.7 312.4 144.9 282.7 148.8 251.9L154.5 206C155.5 198 162.3 192 170.4 192L256 192L256 496zM288 496L288 352L352 352L352 496C352 522.5 373.5 544 400 544L528 544C554.5 544 576 522.5 576 496L576 420.9C576 386.3 566.6 352.3 548.8 322.6C535.1 299.8 526.3 274.4 523 248L517.3 202C514.3 178 493.9 160 469.7 160L376 160C362.7 160 352 170.7 352 184L352 192L288 192L288 184C288 170.7 277.3 160 264 160L170.4 160C146.2 160 125.8 178 122.8 202L117 248C113.7 274.4 104.9 299.8 91.2 322.6C73.4 352.3 64 386.3 64 420.9L64 496C64 522.5 85.5 544 112 544L240 544C266.5 544 288 522.5 288 496zM288 320L288 224L352 224L352 320L288 320zM384 336L384 192L469.6 192C477.7 192 484.5 198 485.5 206L491.2 251.9C495.1 282.7 505.3 312.4 521.3 339C536.1 363.7 544 392 544 420.9L544 496C544 504.8 536.8 512 528 512L400 512C391.2 512 384 504.8 384 496L384 336z"/></svg>