<svg xmlns="http://www.w3.org/2000/svg" viewBox="0 0 640 640"><!--! Font Awesome Pro 7.1.0 by @fontawesome - https://fontawesome.com License - https://fontawesome.com/license (Commercial License) Copyright 2025 Fonticons, Inc. --><path fill="currentColor" d="M336 80.4C336 62.2 353.6 46.1 373.5 53.2C435.5 75.2 480 134.4 480 204C480 228.6 474.4 252 464.5 272.8C486.3 275 507.9 281.8 528.1 293.4C588.4 328.2 617.4 396.3 605.5 461.1C601.7 481.8 578.9 489.1 563.2 480C552.3 473.7 547.5 461.9 548.2 451.1C550.1 423.1 536.3 395.1 510.4 380.2C474.1 359.2 427.6 371.7 406.6 408C385.6 444.3 398.1 490.8 434.4 511.8C460.3 526.8 491.4 524.7 514.7 509.1C523.6 503.1 536.3 501.3 547.2 507.6C563 516.7 568.1 540 552 553.7C501.9 596.4 428.4 605.3 368.1 570.5C348.8 559.4 332.7 544.8 320.1 528C307.5 544.8 291.4 559.4 272.1 570.5C211.8 605.3 138.3 596.4 88.2 553.7C72.2 540 77.3 516.7 93 507.6C103.9 501.3 116.5 503.1 125.5 509.1C148.8 524.7 179.9 526.7 205.8 511.8C242.2 490.8 254.6 444.3 233.6 408C212.6 371.7 166.1 359.2 129.8 380.2C103.9 395.2 90.1 423.1 92 451.1C92.7 461.8 88 473.7 77 480C61.2 489.1 38.5 481.9 34.7 461.1C22.7 396.4 51.8 328.3 112.1 293.4C132.2 281.8 153.9 275 175.6 272.8C165.6 251.9 160.1 228.6 160.1 204C160.1 134.4 204.6 75.2 266.6 53.2C286.5 46.1 304.1 62.2 304.1 80.4C304.1 93 296.2 103 286.6 107.8C261.4 120.2 244.1 146.1 244.1 176C244.1 218 278.1 252 320.1 252C362.1 252 396.1 218 396.1 176C396.1 146.1 378.8 120.2 353.6 107.8C343.9 103 336.1 93 336.1 80.4zM402 105.7C418.2 124.6 428 149.2 428 176C428 235.6 379.6 284 320 284C260.4 284 212 235.6 212 176C212 149.1 221.8 124.6 238 105.7C209.9 129.2 192 164.5 192 204C192 232.1 201 258 216.3 279.1C220 284.2 220.4 290.9 217.3 296.3C214.2 301.7 208.3 304.9 202.1 304.4C177.2 302.4 151.4 307.7 128 321.2C93.8 340.9 72.1 374.1 65.9 410.2C74.1 386.7 90.5 365.9 113.8 352.5C165.5 322.7 231.5 340.4 261.3 392C291.1 443.6 273.4 509.7 221.8 539.5C198.5 552.9 172.4 556.7 147.9 552.1C182.3 564.7 221.9 562.5 256.1 542.8C278.2 530 295 511.7 305.9 490.6C308.6 485.3 314.1 481.9 320.1 481.9C326.1 481.9 331.6 485.3 334.3 490.6C345.2 511.7 362 530 384.1 542.8C418.3 562.5 457.9 564.7 492.3 552.1C467.8 556.7 441.7 552.9 418.4 539.5C366.7 509.7 349 443.6 378.9 392C408.8 340.4 474.8 322.6 526.4 352.5C549.7 365.9 566 386.7 574.3 410.2C568 374.1 546.4 340.9 512.2 321.2C488.8 307.7 463.1 302.4 438.1 304.4C431.9 304.9 425.9 301.7 422.9 296.3C419.9 290.9 420.2 284.1 423.9 279.1C439.2 258 448.2 232.1 448.2 204C448.2 164.5 430.3 129.2 402.2 105.7zM363.7 181.5C362.2 193.3 356.1 203.6 347.3 210.6C338.5 208.9 329.4 208 320.1 208C310.8 208 301.7 208.9 292.9 210.6C284 203.6 277.9 193.3 276.5 181.5C290.5 177.9 305.1 176 320.2 176C335.3 176 349.9 177.9 363.9 181.5zM428.3 447C438.8 435 447.3 421.3 453.4 406.3C464 401.3 476.5 400.6 487.9 404.9C479 433.1 463.2 458.3 442.5 478.4C433.6 470.2 428.6 458.7 428.3 446.9zM186.6 406.2C192.7 421.2 201.3 435 211.8 447C211.5 458.8 206.5 470.2 197.6 478.4C176.8 458.3 161 433.1 152.1 404.9C163.5 400.5 176 401.2 186.6 406.2zM304 352C304 360.8 311.2 368 320 368C328.8 368 336 360.8 336 352C336 343.2 328.8 336 320 336C311.2 336 304 343.2 304 352zM320 400C293.5 400 272 378.5 272 352C272 325.5 293.5 304 320 304C346.5 304 368 325.5 368 352C368 378.5 346.5 400 320 400z"/></svg>