<svg xmlns="http://www.w3.org/2000/svg" viewBox="0 0 640 640"><!--! Font Awesome Pro 7.1.0 by @fontawesome - https://fontawesome.com License - https://fontawesome.com/license (Commercial License) Copyright 2025 Fonticons, Inc. --><path fill="currentColor" d="M464 264L464 168C464 128.2 431.8 96 392 96C352.2 96 320 128.2 320 168L320 192C320 227.3 291.3 256 256 256L96 256L96 264C96 365.6 178.4 448 280 448C381.6 448 464 365.6 464 264zM280 480L279.7 480L318.1 552.5L319.3 555.5C321.4 562.6 318.3 570.5 311.4 574.1C304.5 577.7 296.3 575.9 291.6 570.2L289.8 567.5L241.7 476.6C140.7 458.6 64 370.2 64 264L64 252.4C64 237.7 75.2 225.6 89.5 224.1L92.4 223.9L256 223.9C273.7 223.9 288 209.6 288 191.9L288 167.9C288 110.5 334.6 63.9 392 63.9C436.3 63.9 474.2 91.7 489.2 130.8L568.2 178.2C573 181.1 576 186.3 576 191.9C576 197.5 573 202.7 568.2 205.6L496 249L496 264C496 352.6 442.6 428.8 366.3 462.1L414.2 552.5L415.4 555.5C417.5 562.6 414.4 570.5 407.5 574.1C400.6 577.7 392.4 575.9 387.7 570.2L385.9 567.5L335.8 472.7C318 477.4 299.4 480 280.1 480zM528.9 192L496 172.3L496 211.8L528.9 192.1zM392 160C405.3 160 416 170.7 416 184C416 197.3 405.3 208 392 208C378.7 208 368 197.3 368 184C368 170.7 378.7 160 392 160z"/></svg>