<svg xmlns="http://www.w3.org/2000/svg" viewBox="0 0 640 640"><!--! Font Awesome Pro 7.1.0 by @fontawesome - https://fontawesome.com License - https://fontawesome.com/license (Commercial License) Copyright 2025 Fonticons, Inc. --><path fill="currentColor" d="M224 80C224 71.2 231.2 64 240 64C248.8 64 256 71.2 256 80L256 128L320 128L320 80C320 71.2 327.2 64 336 64C344.8 64 352 71.2 352 80L352 128.3C405.7 132.4 448 177.3 448 232C448 263.3 434.1 291.4 412.2 310.5C451.8 325.2 480 363.3 480 408C480 465.4 433.4 512 376 512L352 512L352 560C352 568.8 344.8 576 336 576C327.2 576 320 568.8 320 560L320 512L256 512L256 560C256 568.8 248.8 576 240 576C231.2 576 224 568.8 224 560L224 512L189.1 512C173 512 160 499 160 482.9L160 154.2C160 139.7 171.7 128 186.2 128L224 128L224 80zM336 480L376 480C415.8 480 448 447.8 448 408C448 368.2 415.8 336 376 336L192 336L192 480L336 480zM336 160L192 160L192 304L344 304C383.8 304 416 271.8 416 232C416 192.2 383.8 160 344 160L336 160z"/></svg>