<svg xmlns="http://www.w3.org/2000/svg" viewBox="0 0 640 640"><!--! Font Awesome Pro 7.1.0 by @fontawesome - https://fontawesome.com License - https://fontawesome.com/license (Commercial License) Copyright 2025 Fonticons, Inc. --><path fill="currentColor" d="M128 192C128 156.7 156.7 128 192 128L448 128C483.3 128 512 156.7 512 192L512 245.8C521.8 239.7 532.9 236.5 544 236.2L544 192C544 139 501 96 448 96L192 96C139 96 96 139 96 192L96 448C96 501 139 544 192 544L296.1 544C290.7 533.8 286.2 523.1 282.5 512L192 512C156.7 512 128 483.3 128 448C128 412.7 156.7 384 192 384L284.6 384C288.7 373.1 293.7 362.3 299.1 352L192 352C167.4 352 145 361.2 128 376.4L128 192zM272 446.1C272 441.4 272.3 436.7 272.7 432L192 432C183.2 432 176 439.2 176 448C176 456.8 183.2 464 192 464L272.8 464C272.3 458.1 272 452.1 272 446.1zM427.5 263.6C403.9 284.8 377.4 312.9 356.6 344.4C336 375.6 320 411.7 320 448.1C320 536.9 391.2 608.1 480 608.1C568.8 608.1 640 536.9 640 448.1C640 385.6 597.6 325 559.1 289.5C547.9 279.2 530.6 279.2 519.4 289.4C515.4 293.1 509.8 298.7 504.8 303.9C493.1 290 481 276.5 466.8 263.6C462.1 259.4 456.1 256.1 448.1 256C442 256 433.7 257.9 427.5 263.5zM447.1 289C462.1 302.8 474.8 317.8 488.8 334.7C496.5 344 510.5 344.4 518.8 335.6C523.8 330.3 533.2 320.4 539.3 314.6C574.4 347.6 608.1 399.4 608.1 448.1C608.1 481.7 595.4 512.2 574.5 534.9C575.6 529.6 576.1 524.1 576.1 518.5C576.1 461.1 512.3 408 488.7 390.3C483.5 386.4 476.6 386.4 471.4 390.3C447.8 408 384 461.1 384 518.5C384 524.1 384.6 529.6 385.6 534.9C364.7 512.2 352 481.7 352 448.1C352 420.6 364.3 390.8 383.3 362C401.7 334.2 425.4 308.7 447.1 289zM544 518.6C544 548.3 517.5 576.1 480.1 576.2L480 576.2C442.5 576.2 416 548.4 416 518.6C416 501.2 426.1 480.9 443.4 460.1C455.5 445.6 469.2 433.1 480 424.3C490.7 433.1 504.5 445.6 516.6 460.1C533.9 480.8 544 501.2 544 518.6z"/></svg>