<svg xmlns="http://www.w3.org/2000/svg" viewBox="0 0 640 640"><!--! Font Awesome Pro 7.1.0 by @fontawesome - https://fontawesome.com License - https://fontawesome.com/license (Commercial License) Copyright 2025 Fonticons, Inc. --><path fill="currentColor" d="M64 112C64 85.5 85.5 64 112 64L184 64L184 64.1C184.8 64 185.5 64 186.3 64L502.1 64C523.2 64 538.5 84.1 533 104.4L455.1 389.9C469.9 398.1 480 413.8 480 432L480 528C480 554.5 458.5 576 432 576L208 576C181.5 576 160 554.5 160 528L160 432C160 412.1 172.1 395 189.4 387.7L180.4 288L112 288C85.5 288 64 266.5 64 240L64 112zM112 96C103.2 96 96 103.2 96 112L96 240C96 248.8 103.2 256 112 256L177.5 256L163 96L112.1 96zM208 416C199.2 416 192 423.2 192 432L192 528C192 536.8 199.2 544 208 544L432 544C440.8 544 448 536.8 448 528L448 432C448 423.2 440.8 416 432 416L208 416zM449.7 288L376 288C367.2 288 360 280.8 360 272C360 263.2 367.2 256 376 256L458.5 256L476 192L376.1 192C367.3 192 360.1 184.8 360.1 176C360.1 167.2 367.3 160 376.1 160L484.7 160L502.2 96L195.1 96L221.3 384L423.6 384L449.8 288zM320 456C333.3 456 344 466.7 344 480C344 493.3 333.3 504 320 504C306.7 504 296 493.3 296 480C296 466.7 306.7 456 320 456z"/></svg>