<svg xmlns="http://www.w3.org/2000/svg" viewBox="0 0 640 640"><!--! Font Awesome Pro 7.1.0 by @fontawesome - https://fontawesome.com License - https://fontawesome.com/license (Commercial License) Copyright 2025 Fonticons, Inc. --><path fill="currentColor" d="M566.6 96L259.5 96L285.7 384L488 384L514.2 288L440.5 288C431.7 288 424.5 280.8 424.5 272C424.5 263.2 431.7 256 440.5 256L523 256L540.5 192L440.6 192C431.8 192 424.6 184.8 424.6 176C424.6 167.2 431.8 160 440.6 160L549.2 160L566.7 96zM253.9 387.7L226.9 90.1C225.6 76.1 236.6 64 250.8 64L566.6 64C587.7 64 603 84.1 597.5 104.4L519.6 389.9C534.4 398.1 544.5 413.8 544.5 432L544.5 528C544.5 554.5 523 576 496.5 576L272.5 576C246 576 224.5 554.5 224.5 528L224.5 432C224.5 412.1 236.6 395 253.9 387.7zM272.5 416C263.7 416 256.5 423.2 256.5 432L256.5 528C256.5 536.8 263.7 544 272.5 544L496.5 544C505.3 544 512.5 536.8 512.5 528L512.5 432C512.5 423.2 505.3 416 496.5 416L272.5 416zM360.5 480C360.5 466.7 371.2 456 384.5 456C397.8 456 408.5 466.7 408.5 480C408.5 493.3 397.8 504 384.5 504C371.2 504 360.5 493.3 360.5 480zM163.1 103.1L161.1 102.2C140.8 93.2 116.6 97.4 104.2 115.5C58 182.8 58 272.3 104.2 339.6C116.7 357.7 140.8 361.9 161.1 352.9L163.1 352C171 348.5 174.7 339.3 171.4 331.3L162.6 309.8C159.9 303.4 153.4 299.4 146.5 299.9L129.1 301.3C121.9 301.9 115.2 297.6 112.7 290.7C98 249.6 98.8 204.3 114.9 163.7C117.5 157.2 124.1 153.1 131.1 153.7L146.5 155C153.4 155.6 160 151.6 162.6 145.1L171.4 123.6C174.7 115.6 171 106.4 163.1 102.9zM201 136.1L192.2 157.6C184.2 176.9 164.7 188.9 143.8 187.2L140.7 186.9C132.5 213.4 132 241.9 139.2 268.6L143.8 268.2C164.6 266.5 184.2 278.4 192.2 297.8L201 319.3C210.9 343.4 199.8 371 176 381.5L174 382.4C143.3 395.9 101 391.7 77.8 357.8C24.1 279.6 24.1 175.7 77.8 97.5C101 63.6 143.3 59.4 174 73L176 73.9C199.8 84.4 210.9 112 201 136.1z"/></svg>