<svg xmlns="http://www.w3.org/2000/svg" viewBox="0 0 640 640"><!--! Font Awesome Pro 7.1.0 by @fontawesome - https://fontawesome.com License - https://fontawesome.com/license (Commercial License) Copyright 2025 Fonticons, Inc. --><path fill="currentColor" d="M112 96C103.2 96 96 103.2 96 112C96 120.8 103.2 128 112 128L224 128L224 528C224 536.8 231.2 544 240 544C248.8 544 256 536.8 256 528L256 128L528 128C536.8 128 544 120.8 544 112C544 103.2 536.8 96 528 96L112 96zM112 256L176 256L176 224L112 224C103.2 224 96 231.2 96 240C96 248.8 103.2 256 112 256zM528 256C536.8 256 544 248.8 544 240C544 231.2 536.8 224 528 224L304 224L304 256L528 256z"/></svg>