<svg xmlns="http://www.w3.org/2000/svg" viewBox="0 0 640 640"><!--! Font Awesome Pro 7.1.0 by @fontawesome - https://fontawesome.com License - https://fontawesome.com/license (Commercial License) Copyright 2025 Fonticons, Inc. --><path fill="currentColor" d="M280 88C280 74.7 269.3 64 256 64C242.7 64 232 74.7 232 88C232 101.3 242.7 112 256 112C269.3 112 280 101.3 280 88zM200 88C200 57.1 225.1 32 256 32C286.9 32 312 57.1 312 88C312 118.9 286.9 144 256 144C225.1 144 200 118.9 200 88zM176 236.3C175.4 237 174.8 237.7 174.2 238.4L139.1 280.5C131.9 289.1 128 299.9 128 311.2L128 368C128 376.8 120.8 384 112 384C103.2 384 96 376.8 96 368L96 311.2C96 292.5 102.6 274.4 114.5 260L149.6 217.9C171.7 191.4 204.4 176.1 238.9 176.1C274.8 176.1 308.6 192.7 330.7 221L412.6 326.3C418 333.3 416.8 343.3 409.8 348.8C402.8 354.3 392.8 353 387.3 346L305.5 240.5C305 239.9 304.5 239.3 304 238.7L304 406.1L328 418.1C352.3 430.2 368.7 453.8 371.7 480.8L383.9 590.2C384.9 599 378.5 606.9 369.8 607.9C361.1 608.9 353.1 602.5 352.1 593.8L339.9 484.4C338.1 468.2 328.2 454.1 313.7 446.8L220.2 400C193.1 386.4 176 358.7 176 328.4L176 236.2zM272 214.8C261.7 210.4 250.5 208.1 239 208.1C228.3 208.1 217.8 210.1 208 214L208 328.6C208 346.8 218.3 363.4 234.5 371.5L272 390.2L272 214.8zM202.8 445L231.7 459.5L227.1 473.3C223.8 483.1 218.7 492.2 211.9 500.1L124.1 602.4C118.3 609.1 108.2 609.9 101.5 604.1C94.8 598.3 94 588.2 99.8 581.5L187.6 479C191.6 474.3 194.7 468.8 196.7 462.9L202.7 444.8zM430.3 379.3C437.3 374 447.4 375.3 452.7 382.4L604.7 582.4C610 589.4 608.7 599.5 601.6 604.8C594.5 610.1 584.5 608.8 579.2 601.7L427.2 401.7C421.9 394.7 423.2 384.6 430.3 379.3z"/></svg>