<svg xmlns="http://www.w3.org/2000/svg" viewBox="0 0 640 640"><!--! Font Awesome Pro 7.1.0 by @fontawesome - https://fontawesome.com License - https://fontawesome.com/license (Commercial License) Copyright 2025 Fonticons, Inc. --><path fill="currentColor" d="M96.2 112C96.2 120.8 103.4 128 112.2 128L224.2 128L224.2 400C224.2 408.8 231.4 416 240.2 416C249 416 256.2 408.8 256.2 400L256.2 128L528.2 128C537 128 544.2 120.8 544.2 112C544.2 103.2 537 96 528.2 96L112.2 96C103.4 96 96.2 103.2 96.2 112zM113.3 176L95.4 234C94.2 238 93.5 242.1 93.5 246.3C93.5 263.7 104.1 278.6 119.2 284.8L95.4 362C94.2 366 93.5 370.1 93.5 374.3C93.5 391.7 104.1 406.6 119.2 412.8L95.4 490C94.2 494 93.5 498.1 93.5 502.3C93.5 525.3 112.2 544 135.2 544L502.1 544C525.4 544 544.2 525.1 544.2 501.9C544.2 498 543.7 494.1 542.6 490.3L520.2 411.9C534.4 405.1 544.2 390.6 544.2 373.9C544.2 370 543.7 366.1 542.6 362.3L520.2 283.9C534.4 277.1 544.2 262.6 544.2 245.9C544.2 242 543.7 238.1 542.6 234.3L525.9 176L492.6 176L511.8 243.1C512.1 244 512.2 244.9 512.2 245.9C512.2 251.5 507.7 256 502.1 256L304.2 256L304.2 288L488.1 288L511.9 371.1C512.2 372 512.3 372.9 512.3 373.9C512.3 379.5 507.8 384 502.2 384L304.3 384L304.3 416L488.2 416L512 499.1C512.3 500 512.4 500.9 512.4 501.9C512.4 507.5 507.9 512 502.3 512L135.2 512C129.8 512 125.5 507.7 125.5 502.3C125.5 501.3 125.6 500.4 125.9 499.4L151.7 416L176.1 416L176.1 384L135.1 384C129.7 384 125.4 379.7 125.4 374.3C125.4 373.3 125.5 372.4 125.8 371.4L151.6 288L176 288L176 256L135 256C129.6 256 125.3 251.7 125.3 246.3C125.3 245.3 125.4 244.4 125.7 243.4L146.6 176L113.1 176z"/></svg>