<svg xmlns="http://www.w3.org/2000/svg" viewBox="0 0 640 640"><!--! Font Awesome Pro 7.1.0 by @fontawesome - https://fontawesome.com License - https://fontawesome.com/license (Commercial License) Copyright 2025 Fonticons, Inc. --><path fill="currentColor" d="M112 96C103.2 96 96 103.2 96 112C96 120.8 103.2 128 112 128L224 128L224 400C224 408.8 231.2 416 240 416C248.8 416 256 408.8 256 400L256 128L528 128C536.8 128 544 120.8 544 112C544 103.2 536.8 96 528 96L112 96zM528 256C536.8 256 544 248.8 544 240C544 231.2 536.8 224 528 224L304 224L304 256L528 256zM112 224C103.2 224 96 231.2 96 240C96 248.8 103.2 256 112 256L176 256L176 224L112 224zM112 384L176 384L176 352L112 352C103.2 352 96 359.2 96 368C96 376.8 103.2 384 112 384zM528 352L304 352L304 384L528 384C536.8 384 544 376.8 544 368C544 359.2 536.8 352 528 352zM112 512L528 512C536.8 512 544 504.8 544 496C544 487.2 536.8 480 528 480L112 480C103.2 480 96 487.2 96 496C96 504.8 103.2 512 112 512z"/></svg>