<svg xmlns="http://www.w3.org/2000/svg" viewBox="0 0 640 640"><!--! Font Awesome Pro 7.1.0 by @fontawesome - https://fontawesome.com License - https://fontawesome.com/license (Commercial License) Copyright 2025 Fonticons, Inc. --><path fill="currentColor" d="M160 128C142.3 128 128 142.3 128 160L128 480C128 497.7 142.3 512 160 512L480 512C497.7 512 512 497.7 512 480L512 160C512 142.3 497.7 128 480 128L160 128zM96 160C96 124.7 124.7 96 160 96L480 96C515.3 96 544 124.7 544 160L544 480C544 515.3 515.3 544 480 544L160 544C124.7 544 96 515.3 96 480L96 160zM184 160C197.3 160 208 170.7 208 184C208 197.3 197.3 208 184 208C170.7 208 160 197.3 160 184C160 170.7 170.7 160 184 160zM432 184C432 170.7 442.7 160 456 160C469.3 160 480 170.7 480 184C480 197.3 469.3 208 456 208C442.7 208 432 197.3 432 184zM184 432C197.3 432 208 442.7 208 456C208 469.3 197.3 480 184 480C170.7 480 160 469.3 160 456C160 442.7 170.7 432 184 432zM432 456C432 442.7 442.7 432 456 432C469.3 432 480 442.7 480 456C480 469.3 469.3 480 456 480C442.7 480 432 469.3 432 456zM232.7 241.8C239.2 217.2 261.4 200 286.9 200L344 200C379.5 200 408 229 408 264.3C408 288.3 394.6 310.5 373.1 321.5L336 340.3L336 360C336 368.8 328.8 376 320 376C311.2 376 304 368.8 304 360L304 330.5C304 324.5 307.4 319 312.7 316.2L358.5 292.8C369.2 287.4 376 276.2 376 264.1C376 246.3 361.6 231.8 344 231.8L286.9 231.8C276 231.8 266.4 239.2 263.7 249.7L263.5 250.4C261.3 258.9 252.5 264.1 244 261.8C235.5 259.5 230.3 250.8 232.6 242.3L232.8 241.6zM296 424C296 410.7 306.7 400 320 400C333.3 400 344 410.7 344 424C344 437.3 333.3 448 320 448C306.7 448 296 437.3 296 424z"/></svg>