<svg xmlns="http://www.w3.org/2000/svg" viewBox="0 0 640 640"><!--! Font Awesome Pro 7.1.0 by @fontawesome - https://fontawesome.com License - https://fontawesome.com/license (Commercial License) Copyright 2025 Fonticons, Inc. --><path fill="currentColor" d="M112 128C103.2 128 96 135.2 96 144C96 152.8 103.2 160 112 160L528 160C536.8 160 544 152.8 544 144C544 135.2 536.8 128 528 128L112 128zM240 304C231.2 304 224 311.2 224 320C224 328.8 231.2 336 240 336L528 336C536.8 336 544 328.8 544 320C544 311.2 536.8 304 528 304L240 304zM224 496C224 504.8 231.2 512 240 512L528 512C536.8 512 544 504.8 544 496C544 487.2 536.8 480 528 480L240 480C231.2 480 224 487.2 224 496zM96 496C96 504.8 103.2 512 112 512C120.8 512 128 504.8 128 496L128 304C128 295.2 120.8 288 112 288C103.2 288 96 295.2 96 304L96 496z"/></svg>