<svg xmlns="http://www.w3.org/2000/svg" viewBox="0 0 640 640"><!--! Font Awesome Pro 7.1.0 by @fontawesome - https://fontawesome.com License - https://fontawesome.com/license (Commercial License) Copyright 2025 Fonticons, Inc. --><path fill="currentColor" d="M480 128C497.7 128 512 142.3 512 160L512 480C512 497.7 497.7 512 480 512L160 512C142.3 512 128 497.7 128 480L128 160C128 142.3 142.3 128 160 128L480 128zM160 96C124.7 96 96 124.7 96 160L96 480C96 515.3 124.7 544 160 544L480 544C515.3 544 544 515.3 544 480L544 160C544 124.7 515.3 96 480 96L160 96zM208 184C208 170.7 197.3 160 184 160C170.7 160 160 170.7 160 184C160 197.3 170.7 208 184 208C197.3 208 208 197.3 208 184zM456 208C469.3 208 480 197.3 480 184C480 170.7 469.3 160 456 160C442.7 160 432 170.7 432 184C432 197.3 442.7 208 456 208zM208 456C208 442.7 197.3 432 184 432C170.7 432 160 442.7 160 456C160 469.3 170.7 480 184 480C197.3 480 208 469.3 208 456zM456 480C469.3 480 480 469.3 480 456C480 442.7 469.3 432 456 432C442.7 432 432 442.7 432 456C432 469.3 442.7 480 456 480z"/></svg>