<svg xmlns="http://www.w3.org/2000/svg" viewBox="0 0 640 640"><!--! Font Awesome Pro 7.1.0 by @fontawesome - https://fontawesome.com License - https://fontawesome.com/license (Commercial License) Copyright 2025 Fonticons, Inc. --><path fill="currentColor" d="M232 128L232 192L408 192L408 128L232 128zM200 128L160 128C142.3 128 128 142.3 128 160L128 192L200 192L200 128zM128 224L128 304L304 304L304 224L128 224zM128 416L200 416L200 336L128 336L128 416zM128 448L128 480C128 497.7 142.3 512 160 512L282.6 512C286.3 523.1 290.8 533.8 296.2 544L160 544C124.7 544 96 515.3 96 480L96 160C96 124.7 124.7 96 160 96L480 96C515.3 96 544 124.7 544 160L544 236.2C532.9 236.5 521.8 239.7 512 245.8L512 160C512 142.3 497.7 128 480 128L440 128L440 208.1C426.3 208.9 412.7 214.2 401.8 223.9L401.7 224L336 224L336 294.9C327 306.7 318.8 318.6 311.5 330.4C310.3 332.3 309.2 334.2 308.1 336.1L232 336.1L232 416.1L275.2 416.1C273.1 426.1 272 436.2 272 446.2L272 448.1L128 448.1zM427.5 263.6C433.8 258 442 256.1 448.1 256.1C456.1 256.2 462.1 259.4 466.8 263.7C481 276.5 493.1 290.1 504.8 304C509.8 298.8 515.4 293.1 519.4 289.5C530.6 279.2 548 279.3 559.1 289.6C597.6 325.1 640 385.7 640 448.2C640 537 568.8 608.2 480 608.2C391.2 608.2 320 537 320 448.2C320 411.7 336 375.7 356.6 344.5C377.4 313 403.9 284.9 427.5 263.7zM447.1 289C425.4 308.7 401.7 334.2 383.3 362C364.3 390.8 352 420.6 352 448.1C352 481.7 364.7 512.2 385.6 534.9C384.5 529.6 384 524.1 384 518.5C384 461.1 447.8 408 471.4 390.3C476.6 386.4 483.5 386.4 488.7 390.3C512.3 408 576.1 461.1 576.1 518.5C576.1 524.1 575.5 529.6 574.5 534.9C595.4 512.2 608.1 481.7 608.1 448.1C608.1 399.4 574.4 347.7 539.3 314.6C533.2 320.4 523.9 330.2 518.8 335.6C510.5 344.4 496.5 343.9 488.8 334.7C474.8 317.8 462.1 302.9 447.1 289zM544 518.6C544 501.2 533.9 480.9 516.6 460.1C504.5 445.6 490.8 433.1 480 424.3C469.3 433.1 455.5 445.6 443.4 460.1C426.1 480.8 416 501.2 416 518.6C416 548.4 442.5 576.2 480 576.2L480.1 576.2C517.5 576.1 544 548.3 544 518.6z"/></svg>