<svg xmlns="http://www.w3.org/2000/svg" viewBox="0 0 640 640"><!--! Font Awesome Pro 7.1.0 by @fontawesome - https://fontawesome.com License - https://fontawesome.com/license (Commercial License) Copyright 2025 Fonticons, Inc. --><path fill="currentColor" d="M288 80C288 71.2 295.2 64 304 64C454.2 64 576 185.8 576 336C576 344.8 568.8 352 560 352C551.2 352 544 344.8 544 336C544 203.5 436.5 96 304 96C295.2 96 288 88.8 288 80zM112 160C120.8 160 128 167.2 128 176L128 432C128 493.9 178.1 544 240 544C301.9 544 352 493.9 352 432C352 370.1 301.9 320 240 320L208 320C199.2 320 192 312.8 192 304C192 295.2 199.2 288 208 288L240 288C319.5 288 384 352.5 384 432C384 511.5 319.5 576 240 576C160.5 576 96 511.5 96 432L96 176C96 167.2 103.2 160 112 160zM304 160C401.2 160 480 238.8 480 336C480 344.8 472.8 352 464 352C455.2 352 448 344.8 448 336C448 256.5 383.5 192 304 192C295.2 192 288 184.8 288 176C288 167.2 295.2 160 304 160z"/></svg>