<svg xmlns="http://www.w3.org/2000/svg" viewBox="0 0 640 640"><!--! Font Awesome Pro 7.1.0 by @fontawesome - https://fontawesome.com License - https://fontawesome.com/license (Commercial License) Copyright 2025 Fonticons, Inc. --><path fill="currentColor" d="M313.4 65.4C319.1 62.8 325.9 63.9 330.6 68L474.6 196C478.2 199.2 480.1 203.7 480 208.5C479.9 213.3 477.6 217.7 473.8 220.6L346.1 320L473.8 419.4C477.6 422.3 479.8 426.8 480 431.5C480.2 436.2 478.2 440.8 474.6 444L330.6 572C325.9 576.2 319.2 577.2 313.4 574.6C307.6 572 304 566.3 304 560L304 352.7L185.8 444.6C178.8 450 168.8 448.8 163.3 441.8C157.8 434.8 159.1 424.8 166.1 419.3L293.9 320L166.2 220.6C159.2 215.2 158 205.1 163.4 198.1C168.8 191.1 178.9 189.9 185.9 195.3L304 287.3L304 80C304 73.7 307.7 68 313.4 65.4zM336 352.7L336 524.4L439 432.8L336 352.7zM336 287.3L439 207.2L336 115.6L336 287.3z"/></svg>