<svg xmlns="http://www.w3.org/2000/svg" viewBox="0 0 640 640"><!--! Font Awesome Pro 7.1.0 by @fontawesome - https://fontawesome.com License - https://fontawesome.com/license (Commercial License) Copyright 2025 Fonticons, Inc. --><path fill="currentColor" d="M446.7 376.3C503.3 356.9 544 303.2 544 240C544 160.5 479.5 96 400 96C336.8 96 283.1 136.7 263.7 193.3C255.9 192.4 248 192 240 192C236.8 192 233.7 192.1 230.6 192.2C251.4 118.2 319.4 64 400 64C497.2 64 576 142.8 576 240C576 320.6 521.8 388.6 447.8 409.4C447.9 406.3 448 403.1 448 400C448 392 447.5 384.1 446.7 376.3zM384 400C384 320.5 319.5 256 240 256C160.5 256 96 320.5 96 400C96 479.5 160.5 544 240 544C319.5 544 384 479.5 384 400zM64 400C64 302.8 142.8 224 240 224C337.2 224 416 302.8 416 400C416 497.2 337.2 576 240 576C142.8 576 64 497.2 64 400zM240 304L240 336L272 336C280.8 336 288 343.2 288 352C288 360.8 280.8 368 272 368L240 368L240 400C240 408.8 232.8 416 224 416C215.2 416 208 408.8 208 400L208 368L176 368C167.2 368 160 360.8 160 352C160 343.2 167.2 336 176 336L208 336L208 304C208 295.2 215.2 288 224 288C232.8 288 240 295.2 240 304zM432 144L432 176L464 176C472.8 176 480 183.2 480 192C480 200.8 472.8 208 464 208L432 208L432 240C432 248.8 424.8 256 416 256C407.2 256 400 248.8 400 240L400 208L368 208C359.2 208 352 200.8 352 192C352 183.2 359.2 176 368 176L400 176L400 144C400 135.2 407.2 128 416 128C424.8 128 432 135.2 432 144z"/></svg>