<svg xmlns="http://www.w3.org/2000/svg" viewBox="0 0 640 640"><!--! Font Awesome Pro 7.1.0 by @fontawesome - https://fontawesome.com License - https://fontawesome.com/license (Commercial License) Copyright 2025 Fonticons, Inc. --><path fill="currentColor" d="M144 96C135.2 96 128 103.2 128 112C128 120.8 135.2 128 144 128L192 128L192 512L144 512C135.2 512 128 519.2 128 528C128 536.8 135.2 544 144 544L384 544C454.7 544 512 486.7 512 416C512 363.2 480 317.8 434.3 298.3C462 277.9 480 245.1 480 208C480 146.1 429.9 96 368 96L144 96zM224 512L224 320L384 320C437 320 480 363 480 416C480 469 437 512 384 512L224 512zM224 128L368 128C412.2 128 448 163.8 448 208C448 252.2 412.2 288 368 288L224 288L224 128z"/></svg>