<svg xmlns="http://www.w3.org/2000/svg" viewBox="0 0 640 640"><!--! Font Awesome Pro 7.1.0 by @fontawesome - https://fontawesome.com License - https://fontawesome.com/license (Commercial License) Copyright 2025 Fonticons, Inc. --><path fill="currentColor" d="M277 274.6L352 112L96 320L206 320C216.9 320 227.1 325.6 233 334.8C238.9 344 239.7 355.5 235.1 365.5L160 528L416 320L306 320C295.1 320 284.9 314.4 279 305.2C273.1 296 272.3 284.5 276.9 274.5zM381.1 125.4C333.3 228.9 308.3 283.1 306 288L416 288C429.5 288 441.6 296.5 446.2 309.3C450.8 322.1 446.7 336.3 436.2 344.8L180.2 552.8C168.6 562.2 152.1 562.4 140.4 553.2C128.7 544 124.7 528 131 514.5C178.8 411 203.8 356.8 206 351.9L96 352C82.5 352 70.4 343.5 65.8 330.7C61.2 317.9 65.3 303.7 75.8 295.2L331.8 87.2C343.4 77.8 359.9 77.6 371.6 86.8C383.3 96 387.3 112 381 125.5zM480 352C486.1 352 491.6 355.4 494.3 360.8L590.3 552.8C594.3 560.7 591 570.3 583.1 574.3C575.2 578.3 565.6 575 561.6 567.1L542 527.9L417.8 527.9L398.2 567.1C394.2 575 384.6 578.2 376.7 574.3C368.8 570.4 365.6 560.7 369.5 552.8L465.5 360.8C468.2 355.4 473.7 352 479.8 352zM480 403.8L433.9 496L526.1 496L480 403.8z"/></svg>