<svg xmlns="http://www.w3.org/2000/svg" viewBox="0 0 640 640"><!--! Font Awesome Pro 7.1.0 by @fontawesome - https://fontawesome.com License - https://fontawesome.com/license (Commercial License) Copyright 2025 Fonticons, Inc. --><path fill="currentColor" d="M59.3 36.7C53.1 30.5 42.9 30.5 36.7 36.7C30.5 42.9 30.5 53.1 36.7 59.3L580.7 603.3C586.9 609.5 597.1 609.5 603.3 603.3C609.5 597.1 609.5 586.9 603.3 580.7L442.3 419.7L532.5 344.6C542.8 336 546.7 321.8 542.1 309.1C537.5 296.4 525.5 288 512 288L367.3 288L380.1 256L445.7 91.9C451.1 78.3 446.6 62.7 434.8 54.1C423 45.5 406.8 46 395.5 55.4L222.3 199.7L59.3 36.7zM245.1 222.4L416 80L337.6 276.1C333.7 286 334.9 297.1 340.8 305.9C346.7 314.7 356.6 320 367.3 320L512 320L419.6 397L245.1 222.5zM107.5 295.4C97.1 304 93.3 318.2 97.9 330.9C102.5 343.6 114.5 352 128 352L261.6 352L229.6 320L128 320L183.4 273.8L160.7 251.1L107.5 295.4zM224 560L294.2 384.6L269.6 360L260 384L194.4 548.1C189 561.7 193.5 577.3 205.3 585.9C217.1 594.5 233.3 594 244.6 584.6L380.7 471.1L358 448.4L224 560z"/></svg>