<svg xmlns="http://www.w3.org/2000/svg" viewBox="0 0 640 640"><!--! Font Awesome Pro 7.1.0 by @fontawesome - https://fontawesome.com License - https://fontawesome.com/license (Commercial License) Copyright 2025 Fonticons, Inc. --><path fill="currentColor" d="M512 56C503.2 56 496 63.2 496 72L496 112L456 112C447.2 112 440 119.2 440 128C440 136.8 447.2 144 456 144L496 144L496 184C496 192.8 503.2 200 512 200C520.8 200 528 192.8 528 184L528 144L568 144C576.8 144 584 136.8 584 128C584 119.2 576.8 112 568 112L528 112L528 72C528 63.2 520.8 56 512 56zM390 159.4C378 147.4 358.8 146.9 346.1 158.1C356.7 170.1 356.7 170.1 346.1 158.1L333.5 169.3C314 163.3 293.4 160.1 272 160.1C157.1 160.1 64 253.2 64 368.1C64 483 157.1 576.1 272 576.1C386.9 576.1 480 483 480 368.1C480 346 476.5 324.6 470.1 304.6L480 294.7C492.5 282.2 492.5 261.9 480 249.4L446.6 216L459.3 203.3C465.5 197.1 465.5 186.9 459.3 180.7C453.1 174.5 442.9 174.5 436.7 180.7L424 193.4L390 159.4zM347.9 199.4L367.4 182.1L457.4 272.1L440.4 289.1C436 293.5 434.5 300.2 436.7 306.1C444 325.4 448 346.3 448 368.2C448 465.4 369.2 544.2 272 544.2C174.8 544.2 96 465.2 96 368C96 270.8 174.8 192 272 192C293 192 313.1 195.7 331.8 202.4C337.3 204.4 343.5 203.2 347.9 199.3zM176 368C176 315 219 272 272 272C280.8 272 288 264.8 288 256C288 247.2 280.8 240 272 240C201.3 240 144 297.3 144 368C144 376.8 151.2 384 160 384C168.8 384 176 376.8 176 368z"/></svg>