<svg xmlns="http://www.w3.org/2000/svg" viewBox="0 0 640 640"><!--! Font Awesome Pro 7.1.0 by @fontawesome - https://fontawesome.com License - https://fontawesome.com/license (Commercial License) Copyright 2025 Fonticons, Inc. --><path fill="currentColor" d="M0 264C0 206.6 46.6 160 104 160C153.2 160 194.4 194.1 205.2 240L434.8 240C445.6 194.1 486.8 160 536 160C593.4 160 640 206.6 640 264C640 284.6 634 303.8 623.6 320C633.9 336.2 640 355.4 640 376C640 433.4 593.4 480 536 480C486.8 480 445.6 445.9 434.8 400L205.2 400C194.4 445.9 153.2 480 104 480C46.6 480 0 433.4 0 376C0 355.4 6 336.2 16.4 320C6 303.8 0 284.6 0 264zM104 192C64.2 192 32 224.2 32 264C32 279.5 36.9 293.8 45.2 305.5C51.3 314.2 51.3 325.8 45.2 334.5C36.9 346.2 32 360.5 32 376C32 415.8 64.2 448 104 448C139.5 448 169 422.3 174.9 388.5C176.8 377.6 186.2 368 198.9 368L441 368C453.7 368 463.1 377.6 465 388.5C470.9 422.3 500.4 448 535.9 448C575.7 448 607.9 415.8 607.9 376C607.9 360.5 603 346.2 594.7 334.5C588.6 325.8 588.6 314.2 594.7 305.5C603 293.8 607.9 279.5 607.9 264C607.9 224.2 575.7 192 535.9 192C500.4 192 470.9 217.7 465 251.5C463.1 262.4 453.7 272 441 272L199 272C186.3 272 176.9 262.4 175 251.5C169.1 217.7 139.6 192 104.1 192z"/></svg>