<svg xmlns="http://www.w3.org/2000/svg" viewBox="0 0 640 640"><!--! Font Awesome Pro 7.1.0 by @fontawesome - https://fontawesome.com License - https://fontawesome.com/license (Commercial License) Copyright 2025 Fonticons, Inc. --><path fill="currentColor" d="M336 48C336 39.2 328.8 32 320 32C311.2 32 304 39.2 304 48L304 144C304 152.8 311.2 160 320 160C328.8 160 336 152.8 336 144L336 48zM187.3 100.7C181.1 94.5 170.9 94.5 164.7 100.7C158.5 106.9 158.5 117.1 164.7 123.3L228.7 187.3C234.9 193.5 245.1 193.5 251.3 187.3C257.5 181.1 257.5 170.9 251.3 164.7L187.3 100.7zM475.3 123.3C481.5 117.1 481.5 106.9 475.3 100.7C469.1 94.5 458.9 94.5 452.7 100.7L388.7 164.7C382.5 170.9 382.5 181.1 388.7 187.3C394.9 193.5 405.1 193.5 411.3 187.3L475.3 123.3zM104 192C46.6 192 0 238.6 0 296C0 316.6 6 335.8 16.4 352C6.1 368.2 0 387.4 0 408C0 465.4 46.6 512 104 512C153.2 512 194.4 477.9 205.2 432L434.8 432C445.6 477.9 486.8 512 536 512C593.4 512 640 465.4 640 408C640 387.4 634 368.2 623.6 352C633.9 335.8 640 316.6 640 296C640 238.6 593.4 192 536 192C486.8 192 445.6 226.1 434.8 272L404.4 272C396.1 272 388.4 276.3 384 283.3L320 385.8L255.9 283.3C251.5 276.3 243.8 272 235.5 272L205.1 272C194.3 226.1 153.1 192 103.9 192zM231.1 304L291.1 400L198.9 400C186.2 400 176.8 409.6 174.9 420.5C169 454.3 139.5 480 104 480C64.2 480 32 447.8 32 408C32 392.5 36.9 378.2 45.2 366.5C51.3 357.8 51.3 346.2 45.2 337.5C36.9 325.8 32 311.5 32 296C32 256.2 64.2 224 104 224C139.5 224 169 249.7 174.9 283.5C176.8 294.4 186.2 304 198.9 304L231.1 304zM408.8 304L441 304C453.7 304 463.1 294.4 465 283.5C470.9 249.7 500.4 224 535.9 224C575.7 224 607.9 256.2 607.9 296C607.9 311.5 603 325.8 594.7 337.5C588.6 346.2 588.6 357.8 594.7 366.5C603 378.2 607.9 392.5 607.9 408C607.9 447.8 575.7 480 535.9 480C500.4 480 470.9 454.3 465 420.5C463.1 409.6 453.7 400 441 400L348.8 400L408.8 304z"/></svg>