<svg xmlns="http://www.w3.org/2000/svg" viewBox="0 0 640 640"><!--! Font Awesome Pro 7.1.0 by @fontawesome - https://fontawesome.com License - https://fontawesome.com/license (Commercial License) Copyright 2025 Fonticons, Inc. --><path fill="currentColor" d="M224 96L208 96C199.2 96 192 88.8 192 80C192 71.2 199.2 64 208 64L432 64C440.8 64 448 71.2 448 80C448 88.8 440.8 96 432 96L416 96L416 281.7C432.5 291.2 447.4 303.2 460.4 317L513.4 264L500.7 251.3C494.5 245.1 494.5 234.9 500.7 228.7C506.9 222.5 517.1 222.5 523.3 228.7L571.3 276.7C577.5 282.9 577.5 293.1 571.3 299.3C565.1 305.5 554.9 305.5 548.7 299.3L536 286.6L480.3 342.3C500.3 372.6 512 408.9 512 448C512 494.4 495.5 537 468.1 570.2C465.1 573.9 460.5 576 455.8 576L184.3 576C179.5 576 175 573.9 172 570.2C144.6 537 128.1 494.4 128.1 448C128.1 376.9 166.7 314.9 224.1 281.7L224 96zM256 96L256 291.2C256 297.2 252.6 302.7 247.3 305.4C214.4 322.2 188.2 350 173.3 384L466.7 384C451.9 350.1 425.6 322.2 392.7 305.4C387.3 302.7 384 297.2 384 291.2L384 96L256 96zM476.8 416L163.2 416C161.1 426.3 160 437 160 448C160 484 171.9 517.3 192 544L448 544C468.1 517.3 480 484 480 448C480 437 478.9 426.3 476.8 416z"/></svg>