<svg xmlns="http://www.w3.org/2000/svg" viewBox="0 0 640 640"><!--! Font Awesome Pro 7.1.0 by @fontawesome - https://fontawesome.com License - https://fontawesome.com/license (Commercial License) Copyright 2025 Fonticons, Inc. --><path fill="currentColor" d="M256 128C256 92.7 284.7 64 320 64L560 64C586.5 64 608 85.5 608 112L608 304C608 324.9 594.6 342.7 576 349.3L576 416L592 416C600.8 416 608 423.2 608 432C608 440.8 600.8 448 592 448L320 448C284.7 448 256 419.3 256 384L256 384L256 128zM320 352C302.3 352 288 366.3 288 384C288 401.7 302.3 416 320 416L544 416L544 352L320 352zM288 328.6C297.4 323.2 308.3 320 320 320L560 320C568.8 320 576 312.8 576 304L576 112C576 103.2 568.8 96 560 96L320 96C302.3 96 288 110.3 288 128L288 328.6zM96 192L208 192L208 224L96 224C78.3 224 64 238.3 64 256L64 456.6C73.4 451.2 84.3 448 96 448L228.1 448C237.1 460.9 248.8 471.8 262.3 480L96 480C78.3 480 64 494.3 64 512C64 529.7 78.3 544 96 544L320 544L320 496L352 496L352 544L368 544C376.8 544 384 551.2 384 560C384 568.8 376.8 576 368 576L96 576C60.7 576 32 547.3 32 512L32 512L32 256C32 220.7 60.7 192 96 192z"/></svg>