<svg xmlns="http://www.w3.org/2000/svg" viewBox="0 0 640 640"><!--! Font Awesome Pro 7.1.0 by @fontawesome - https://fontawesome.com License - https://fontawesome.com/license (Commercial License) Copyright 2025 Fonticons, Inc. --><path fill="currentColor" d="M128 64C92.7 64 64 92.7 64 128L64 512L64 512C64 547.3 92.7 576 128 576L308 576C300.8 566 294.6 555.3 289.4 544L128 544C110.3 544 96 529.7 96 512C96 494.3 110.3 480 128 480L272.7 480C271.8 469.5 271.8 458.5 272.7 448L128 448C116.3 448 105.4 451.1 96 456.6L96 128C96 110.3 110.3 96 128 96L464 96C472.8 96 480 103.2 480 112L480 272.7C491 273.6 501.6 275.4 512 278.1L512 112.1C512 85.6 490.5 64.1 464 64.1L128 64zM352 464C352 402.1 402.1 352 464 352C525.9 352 576 402.1 576 464C576 525.9 525.9 576 464 576C402.1 576 352 525.9 352 464zM608 464C608 384.5 543.5 320 464 320C384.5 320 320 384.5 320 464C320 543.5 384.5 608 464 608C543.5 608 608 543.5 608 464zM396.7 467.3C402.9 473.5 413.1 473.5 419.3 467.3L448 438.6L448 528C448 536.8 455.2 544 464 544C472.8 544 480 536.8 480 528L480 438.6L508.7 467.3C514.9 473.5 525.1 473.5 531.3 467.3C537.5 461.1 537.5 450.9 531.3 444.7L475.3 388.7C469.1 382.5 458.9 382.5 452.7 388.7L396.7 444.7C390.5 450.9 390.5 461.1 396.7 467.3z"/></svg>