<svg xmlns="http://www.w3.org/2000/svg" viewBox="0 0 640 640"><!--! Font Awesome Pro 7.1.0 by @fontawesome - https://fontawesome.com License - https://fontawesome.com/license (Commercial License) Copyright 2025 Fonticons, Inc. --><path fill="currentColor" d="M282.6 155.1L304 164L304 542.7C254.2 522.4 201 512 147.2 512L112 512C103.2 512 96 504.8 96 496L96 144C96 135.2 103.2 128 112 128L147.2 128C193.7 128 239.7 137.2 282.6 155.1zM492.8 512C439 512 385.8 522.4 336 542.7L336 164L357.4 155.1C400.3 137.2 446.3 128 492.8 128L528 128C536.8 128 544 135.2 544 144L544 496C544 504.8 536.8 512 528 512L492.8 512zM320 136L294.9 125.5C248.1 106 197.9 96 147.2 96L112 96C85.5 96 64 117.5 64 144L64 496C64 522.5 85.5 544 112 544L147.2 544C197.9 544 248.1 554 294.9 573.5L307.7 578.8C315.6 582.1 324.4 582.1 332.3 578.8L345.1 573.5C391.9 554 442.1 544 492.8 544L528 544C554.5 544 576 522.5 576 496L576 144C576 117.5 554.5 96 528 96L492.8 96C442.1 96 391.9 106 345.1 125.5L320 136zM160 192C151.2 192 144 199.2 144 208C144 216.8 151.2 224 160 224L172.2 224C193.2 224 214 228.9 232.8 238.3C240.7 242.3 250.3 239 254.3 231.1C258.3 223.2 255 213.6 247.1 209.6C223.8 198 198.2 191.9 172.2 191.9L160 192zM467.8 192C441.8 192 416.1 198.1 392.9 209.7C385 213.7 381.8 223.3 385.7 231.2C389.6 239.1 399.3 242.3 407.2 238.4C426 229 446.8 224.1 467.8 224.1L480 224.1C488.8 224.1 496 216.9 496 208.1C496 199.3 488.8 192.1 480 192.1L467.8 192.1zM160 288C151.2 288 144 295.2 144 304C144 312.8 151.2 320 160 320L172.2 320C193.2 320 214 324.9 232.8 334.3C240.7 338.3 250.3 335 254.3 327.1C258.3 319.2 255 309.6 247.1 305.6C223.8 294 198.2 287.9 172.2 287.9L160 288zM467.8 288C441.8 288 416.1 294.1 392.9 305.7C385 309.7 381.8 319.3 385.7 327.2C389.6 335.1 399.3 338.3 407.2 334.4C426 325 446.8 320.1 467.8 320.1L480 320.1C488.8 320.1 496 312.9 496 304.1C496 295.3 488.8 288.1 480 288.1L467.8 288.1zM160 384C151.2 384 144 391.2 144 400C144 408.8 151.2 416 160 416L172.2 416C193.2 416 214 420.9 232.8 430.3C240.7 434.3 250.3 431 254.3 423.1C258.3 415.2 255 405.6 247.1 401.6C223.8 390 198.2 383.9 172.2 383.9L160 384zM467.8 384C441.8 384 416.1 390.1 392.9 401.7C385 405.7 381.8 415.3 385.7 423.2C389.6 431.1 399.3 434.3 407.2 430.4C426 421 446.8 416.1 467.8 416.1L480 416.1C488.8 416.1 496 408.9 496 400.1C496 391.3 488.8 384.1 480 384.1L467.8 384.1z"/></svg>