<svg xmlns="http://www.w3.org/2000/svg" viewBox="0 0 640 640"><!--! Font Awesome Pro 7.1.0 by @fontawesome - https://fontawesome.com License - https://fontawesome.com/license (Commercial License) Copyright 2025 Fonticons, Inc. --><path fill="currentColor" d="M96 128C96 92.7 124.7 64 160 64L496 64C522.5 64 544 85.5 544 112L544 432C544 452.9 530.6 470.7 512 477.3L512 544L528 544C536.8 544 544 551.2 544 560C544 568.8 536.8 576 528 576L160 576C124.7 576 96 547.3 96 512L96 512L96 128zM160 480C142.3 480 128 494.3 128 512C128 529.7 142.3 544 160 544L480 544L480 480L160 480zM128 456.6C137.4 451.2 148.3 448 160 448L496 448C504.8 448 512 440.8 512 432L512 112C512 103.2 504.8 96 496 96L160 96C142.3 96 128 110.3 128 128L128 456.6zM304 176L336 176C353.7 176 368 190.3 368 208L368 224L384 224C401.7 224 416 238.3 416 256L416 288C416 305.7 401.7 320 384 320L368 320L368 336C368 353.7 353.7 368 336 368L304 368C286.3 368 272 353.7 272 336L272 320L256 320C238.3 320 224 305.7 224 288L224 256C224 238.3 238.3 224 256 224L272 224L272 208C272 190.3 286.3 176 304 176zM336 312L336 296C336 291.6 339.6 288 344 288L384 288L384 256L344 256C339.6 256 336 252.4 336 248L336 208L304 208L304 248C304 252.4 300.4 256 296 256L256 256L256 288L296 288C300.4 288 304 291.6 304 296L304 336L336 336L336 312z"/></svg>