<svg xmlns="http://www.w3.org/2000/svg" viewBox="0 0 640 640"><!--! Font Awesome Pro 7.1.0 by @fontawesome - https://fontawesome.com License - https://fontawesome.com/license (Commercial License) Copyright 2025 Fonticons, Inc. --><path fill="currentColor" d="M336 164.3L380.1 148.5C418.1 134.9 458.1 128 498.5 128L560 128C568.8 128 576 135.2 576 144L576 432C576 440.8 568.8 448 560 448L522.6 448C458 448 394.3 463 336.6 491.9L336 492.2L336 164.2zM304 492.3L303.4 492C245.6 463 181.9 448 117.3 448L80 448C71.2 448 64 440.8 64 432L64 144C64 135.2 71.2 128 80 128L141.5 128C181.8 128 221.9 134.9 259.9 148.5L304 164.3L304 492.3zM320 136L270.6 118.4C229.2 103.6 185.5 96 141.5 96L80 96C53.5 96 32 117.5 32 144L32 432C32 458.5 53.5 480 80 480L117.3 480C176.9 480 235.7 493.9 289 520.5L305.6 528.8C314.6 533.3 325.2 533.3 334.2 528.8L350.8 520.5C404.2 493.9 463 480 522.6 480L560 480C586.5 480 608 458.5 608 432L608 144C608 117.5 586.5 96 560 96L498.5 96C454.5 96 410.8 103.6 369.3 118.4L320 136zM32 544C32 552.8 39.2 560 48 560L113.7 560C153.3 560 192.5 566.4 230.1 578.9L303.4 603.3C314.6 607 326.7 606.5 337.5 601.9L365.9 589.7C411.7 570.1 461 559.9 510.9 559.9L592.1 559.9C600.9 559.9 608.1 552.7 608.1 543.9C608.1 535.1 600.9 527.9 592.1 527.9L510.9 527.9C456.7 527.9 403.1 538.9 353.3 560.2L324.9 572.4C321.3 573.9 317.3 574.1 313.5 572.9L240.2 548.5C199.4 534.9 156.7 528 113.7 528L48 528C39.2 528 32 535.2 32 544z"/></svg>