<svg xmlns="http://www.w3.org/2000/svg" viewBox="0 0 640 640"><!--! Font Awesome Pro 7.1.0 by @fontawesome - https://fontawesome.com License - https://fontawesome.com/license (Commercial License) Copyright 2025 Fonticons, Inc. --><path fill="currentColor" d="M96 128C96 92.7 124.7 64 160 64L496 64C522.5 64 544 85.5 544 112L544 432C544 452.9 530.6 470.7 512 477.3L512 544L528 544C536.8 544 544 551.2 544 560C544 568.8 536.8 576 528 576L160 576C124.7 576 96 547.3 96 512L96 512L96 128zM160 480C142.3 480 128 494.3 128 512C128 529.7 142.3 544 160 544L480 544L480 480L160 480zM128 456.6C137.4 451.2 148.3 448 160 448L496 448C504.8 448 512 440.8 512 432L512 112C512 103.2 504.8 96 496 96L160 96C142.3 96 128 110.3 128 128L128 456.6zM240 192L432 192C440.8 192 448 199.2 448 208C448 216.8 440.8 224 432 224L240 224C231.2 224 224 216.8 224 208C224 199.2 231.2 192 240 192zM240 288L432 288C440.8 288 448 295.2 448 304C448 312.8 440.8 320 432 320L240 320C231.2 320 224 312.8 224 304C224 295.2 231.2 288 240 288z"/></svg>