<svg xmlns="http://www.w3.org/2000/svg" viewBox="0 0 640 640"><!--! Font Awesome Pro 7.1.0 by @fontawesome - https://fontawesome.com License - https://fontawesome.com/license (Commercial License) Copyright 2025 Fonticons, Inc. --><path fill="currentColor" d="M432.8 92.4L371 109C362.5 111.3 357.4 120.1 359.7 128.6L372.1 175L464.8 150.2L452.4 103.8C450.1 95.3 441.3 90.2 432.8 92.5zM531.5 275.2C520.5 273.1 509.1 272 497.5 271.9L473.1 180.9L380.4 205.7L404.4 295.1C394.5 300.5 385.1 306.8 376.3 313.8L352 223.6L352 337C338.9 351.9 328 368.7 320 387.1L320 208C320 199.2 312.8 192 304 192L240 192C231.2 192 224 199.2 224 208L224 528C224 536.8 231.2 544 240 544L304 544C310 544 315.2 540.7 317.9 535.9C322.2 546.4 327.3 556.5 333.3 566C325.2 572.3 315 576 304 576L240 576C227.7 576 216.5 571.4 208 563.8C199.5 571.4 188.3 576 176 576L112 576C85.5 576 64 554.5 64 528L64 112C64 85.5 85.5 64 112 64L176 64C202.5 64 224 85.5 224 112L224 162.7C229 160.9 234.4 160 240 160L304 160C317.8 160 330.3 165.8 339 175.2L328.8 136.9C321.9 111.3 337.1 85 362.7 78.1L424.5 61.5C450.1 54.6 476.4 69.8 483.3 95.4C500.1 158.2 510 194.9 531.5 275.2zM192 528L192 480L96 480L96 528C96 536.8 103.2 544 112 544L176 544C184.8 544 192 536.8 192 528zM192 448L192 192L96 192L96 448L192 448zM112 96C103.2 96 96 103.2 96 112L96 160L192 160L192 112C192 103.2 184.8 96 176 96L112 96zM496 576C557.9 576 608 525.9 608 464C608 402.1 557.9 352 496 352C434.1 352 384 402.1 384 464C384 525.9 434.1 576 496 576zM496 320C575.5 320 640 384.5 640 464C640 543.5 575.5 608 496 608C416.5 608 352 543.5 352 464C352 384.5 416.5 320 496 320zM485.3 392L506.6 392C515.4 392 522.6 399.2 522.6 408L522.6 437.3L551.9 437.3C560.7 437.3 567.9 444.5 567.9 453.3L567.9 474.6C567.9 483.4 560.7 490.6 551.9 490.6L522.6 490.6L522.6 519.9C522.6 528.7 515.4 535.9 506.6 535.9L485.3 535.9C476.5 535.9 469.3 528.7 469.3 519.9L469.3 490.6L440 490.6C431.2 490.6 424 483.4 424 474.6L424 453.3C424 444.5 431.2 437.3 440 437.3L469.3 437.3L469.3 408C469.3 399.2 476.5 392 485.3 392z"/></svg>