<svg xmlns="http://www.w3.org/2000/svg" viewBox="0 0 640 640"><!--! Font Awesome Pro 7.1.0 by @fontawesome - https://fontawesome.com License - https://fontawesome.com/license (Commercial License) Copyright 2025 Fonticons, Inc. --><path fill="currentColor" d="M480 64C515.3 64 544 92.7 544 128L544 512L544 512C544 547.3 515.3 576 480 576L112 576C103.2 576 96 568.8 96 560C96 551.2 103.2 544 112 544L128 544L128 477.3C109.4 470.7 96 452.9 96 432L96 112C96 85.5 117.5 64 144 64L480 64zM160 480L160 544L480 544C497.7 544 512 529.7 512 512C512 494.3 497.7 480 480 480L160 480zM480 448C491.7 448 502.6 451.1 512 456.6L512 128C512 110.3 497.7 96 480 96L144 96C135.2 96 128 103.2 128 112L128 432C128 440.8 135.2 448 144 448L480 448zM369.2 224.4C371.7 218.3 380.4 218.3 382.9 224.4L393.2 249.2L420 251.3C426.6 251.8 429.2 260 424.2 264.3L403.8 281.9L410 308C411.5 314.4 404.6 319.5 398.9 316.1L376 302.1L353.1 316.1C347.5 319.5 340.5 314.5 342 308L348.2 281.9L327.8 264.4C322.8 260.1 325.5 251.9 332 251.4L358.8 249.3L369.1 224.5zM224 272C224 321.4 261.3 362.1 309.3 367.4C277.3 347.7 256 312.3 256 272C256 231.7 277.3 196.3 309.3 176.6C261.3 181.9 224 222.6 224 272zM320 144C344.6 144 367.6 150.9 387.1 163C393.5 166.9 396.3 174.7 393.8 181.8C391.3 188.9 384.4 193.3 376.9 192.5C374 192.2 371 192 368 192C323.8 192 288 227.8 288 272C288 316.2 323.8 352 368 352C371 352 374 351.8 376.9 351.5C384.3 350.7 391.4 355.1 393.8 362.2C396.2 369.3 393.4 377.1 387.1 381C367.6 393 344.6 400 320 400C249.3 400 192 342.7 192 272C192 201.3 249.3 144 320 144z"/></svg>