<svg xmlns="http://www.w3.org/2000/svg" viewBox="0 0 640 640"><!--! Font Awesome Pro 7.1.0 by @fontawesome - https://fontawesome.com License - https://fontawesome.com/license (Commercial License) Copyright 2025 Fonticons, Inc. --><path fill="currentColor" d="M320 96C443.7 96 544 196.3 544 320C544 443.7 443.7 544 320 544C196.3 544 96 443.7 96 320C96 196.3 196.3 96 320 96zM320 576C461.4 576 576 461.4 576 320C576 178.6 461.4 64 320 64C178.6 64 64 178.6 64 320C64 461.4 178.6 576 320 576zM256 240C256 231.2 263.2 224 272 224L368 224C376.8 224 384 231.2 384 240L384 398.7L330 355.5C324.2 350.8 315.9 350.8 310 355.5L256 398.7L256 240zM272 192C245.5 192 224 213.5 224 240L224 432C224 438.2 227.5 443.8 233.1 446.4C238.7 449 245.2 448.3 250 444.5L320 388.5L390 444.5C394.8 448.3 401.4 449.1 406.9 446.4C412.4 443.7 416 438.1 416 432L416 240C416 213.5 394.5 192 368 192L272 192z"/></svg>