<svg xmlns="http://www.w3.org/2000/svg" viewBox="0 0 640 640"><!--! Font Awesome Pro 7.1.0 by @fontawesome - https://fontawesome.com License - https://fontawesome.com/license (Commercial License) Copyright 2025 Fonticons, Inc. --><path fill="currentColor" d="M96 128C96 92.7 124.7 64 160 64L496 64C522.5 64 544 85.5 544 112L544 432C544 452.9 530.6 470.7 512 477.3L512 544L528 544C536.8 544 544 551.2 544 560C544 568.8 536.8 576 528 576L160 576C124.7 576 96 547.3 96 512L96 512L96 128zM160 480C142.3 480 128 494.3 128 512C128 529.7 142.3 544 160 544L480 544L480 480L160 480zM128 456.6C137.4 451.2 148.3 448 160 448L496 448C504.8 448 512 440.8 512 432L512 112C512 103.2 504.8 96 496 96L160 96C142.3 96 128 110.3 128 128L128 456.6zM400.4 135C443.4 161.8 472 209.6 472 264C472 347.9 403.9 416 320 416C236.1 416 168 347.9 168 264C168 209.5 196.7 161.8 239.6 135C245.9 131.1 254 132 259.3 137.2C264.6 142.4 265.6 150.5 261.7 156.9C255.5 167.2 251.9 179.2 251.9 192.1C251.9 212.6 260.9 230.9 275.3 243.4C281.1 248.5 282.5 257 278.6 263.6C274.4 270.7 271.9 279.1 271.9 288C271.9 309.1 285.5 326.9 304.3 333.4L305 316.3C294.8 310.9 287.9 300.3 287.9 288C287.9 274.8 295.9 263.5 307.3 258.6L312 143.7C312.2 139.4 315.7 136 320 136C324.3 136 327.8 139.4 328 143.7L332.6 258.6C344 263.5 352 274.8 352 288C352 300.3 345.1 311 334.9 316.3L335.6 333.4C354.5 326.9 368 309 368 288C368 279 365.6 270.7 361.3 263.6C357.4 257 358.7 248.4 364.6 243.4C379 230.9 388 212.6 388 192.1C388 179.2 384.4 167.2 378.2 156.9C374.4 150.6 375.4 142.4 380.6 137.2C385.8 132 394.1 131 400.4 135zM394.5 258.8C398.1 267.9 400 277.8 400 288.1C400 332.3 364.2 368.1 320 368.1C275.8 368.1 240 332.3 240 288.1C240 277.8 242 267.9 245.5 258.8C230.8 242.4 221.4 221 220.1 197.5C207.4 216.6 200 239.5 200 264.1C200 330.4 253.7 384.1 320 384.1C386.3 384.1 440 330.4 440 264.1C440 239.5 432.6 216.6 419.9 197.5C418.6 221 409.3 242.4 394.5 258.8z"/></svg>