<svg xmlns="http://www.w3.org/2000/svg" viewBox="0 0 640 640"><!--! Font Awesome Pro 7.1.0 by @fontawesome - https://fontawesome.com License - https://fontawesome.com/license (Commercial License) Copyright 2025 Fonticons, Inc. --><path fill="currentColor" d="M96 128C96 92.7 124.7 64 160 64L496 64C522.5 64 544 85.5 544 112L544 432C544 452.9 530.6 470.7 512 477.3L512 544L528 544C536.8 544 544 551.2 544 560C544 568.8 536.8 576 528 576L160 576C124.7 576 96 547.3 96 512L96 512L96 128zM160 480C142.3 480 128 494.3 128 512C128 529.7 142.3 544 160 544L480 544L480 480L160 480zM128 456.6C137.4 451.2 148.3 448 160 448L496 448C504.8 448 512 440.8 512 432L512 112C512 103.2 504.8 96 496 96L160 96C142.3 96 128 110.3 128 128L128 456.6zM320 160C281.1 160 256 184.6 256 208C256 223.9 266.9 239.7 286.7 248.9C292.4 251.5 296 257.2 296 263.4L296 264L344 264L344 263.4C344 257.2 347.6 251.5 353.3 248.9C373.2 239.7 384 223.8 384 208C384 184.6 358.9 160 320 160zM224 208C224 160.7 270.5 128 320 128C369.5 128 416 160.7 416 208C416 236.6 398.5 260.2 374.4 274C370.2 286.8 358.2 296 344 296L296 296C281.8 296 269.8 286.8 265.6 274C241.5 260.2 224 236.6 224 208zM272 208C272 199.2 279.2 192 288 192C296.8 192 304 199.2 304 208C304 216.8 296.8 224 288 224C279.2 224 272 216.8 272 208zM352 192C360.8 192 368 199.2 368 208C368 216.8 360.8 224 352 224C343.2 224 336 216.8 336 208C336 199.2 343.2 192 352 192zM422.6 313.4C426.3 321.4 422.7 330.9 414.7 334.6L358.7 360L414.7 385.4C422.7 389.1 426.3 398.5 422.6 406.6C418.9 414.7 409.5 418.2 401.4 414.5L320 377.5L238.6 414.5C230.6 418.2 221.1 414.6 217.4 406.6C213.7 398.6 217.3 389.1 225.3 385.4L281.3 360L225.3 334.6C217.3 330.9 213.7 321.5 217.4 313.4C221.1 305.3 230.5 301.8 238.6 305.5L320 342.5L401.4 305.5C409.4 301.8 418.9 305.4 422.6 313.4z"/></svg>