<svg xmlns="http://www.w3.org/2000/svg" viewBox="0 0 640 640"><!--! Font Awesome Pro 7.1.0 by @fontawesome - https://fontawesome.com License - https://fontawesome.com/license (Commercial License) Copyright 2025 Fonticons, Inc. --><path fill="currentColor" d="M96 128C96 92.7 124.7 64 160 64L496 64C522.5 64 544 85.5 544 112L544 432C544 452.9 530.6 470.7 512 477.3L512 544L528 544C536.8 544 544 551.2 544 560C544 568.8 536.8 576 528 576L160 576C124.7 576 96 547.3 96 512L96 512L96 128zM160 480C142.3 480 128 494.3 128 512C128 529.7 142.3 544 160 544L480 544L480 480L160 480zM128 456.6C137.4 451.2 148.3 448 160 448L496 448C504.8 448 512 440.8 512 432L512 112C512 103.2 504.8 96 496 96L160 96C142.3 96 128 110.3 128 128L128 456.6zM340.4 218.2L331.3 227.3C328.3 230.3 324.2 232 320 232C315.8 232 311.7 230.3 308.7 227.3L299.6 218.2C293.1 211.7 284.2 208 274.9 208L272 208C254.3 208 240 222.3 240 240C240 261.4 254.5 282.5 274.6 301C291.4 316.5 310 328 320 333.7C330 328 348.5 316.5 365.4 301C385.5 282.5 400 261.3 400 240C400 222.3 385.7 208 368 208L365.1 208C355.8 208 347 211.7 340.4 218.2zM365.1 176L368 176C403.3 176 432 204.7 432 240C432 275.3 408.9 304.5 387 324.6C364.6 345.2 340.2 359.3 331.1 364.2C324.1 368 315.8 368 308.9 364.2C299.8 359.3 275.4 345.2 253 324.6C231.2 304.5 208 275.3 208 240C208 204.7 236.7 176 272 176L274.9 176C291.6 176 307.7 182.3 320 193.5C332.3 182.3 348.4 176 365.1 176z"/></svg>