<svg xmlns="http://www.w3.org/2000/svg" viewBox="0 0 640 640"><!--! Font Awesome Pro 7.1.0 by @fontawesome - https://fontawesome.com License - https://fontawesome.com/license (Commercial License) Copyright 2025 Fonticons, Inc. --><path fill="currentColor" d="M544 320C544 196.3 443.7 96 320 96C196.3 96 96 196.3 96 320C96 443.7 196.3 544 320 544C443.7 544 544 443.7 544 320zM64 320C64 178.6 178.6 64 320 64C461.4 64 576 178.6 576 320C576 461.4 461.4 576 320 576C178.6 576 64 461.4 64 320zM336 267.8L336 404.6C366.3 391.4 398.9 384.4 432 384L432 240C404.5 240.4 377.4 247.1 352.7 259.4L336 267.8zM304 404.6L304 267.8L287.3 259.4C262.6 247.1 235.5 240.4 208 240L208 384C241.1 384.4 273.7 391.4 304 404.6zM320 240L338.4 230.8C368.4 215.8 401.5 208 435 208L437 208C451.9 208 464 220.1 464 235L464 389C464 403.9 451.9 416 437 416L435 416C401.5 416 368.4 423.8 338.4 438.8L328.1 444C323 446.5 317.1 446.5 312 444L301.7 438.8C271.7 423.8 238.6 416 205.1 416L203.1 416C188.2 416 176.1 403.9 176.1 389L176.1 235C176.1 220.1 188.2 208 203.1 208L205.1 208C238.6 208 271.7 215.8 301.7 230.8L320 240z"/></svg>