<svg xmlns="http://www.w3.org/2000/svg" viewBox="0 0 640 640"><!--! Font Awesome Pro 7.1.0 by @fontawesome - https://fontawesome.com License - https://fontawesome.com/license (Commercial License) Copyright 2025 Fonticons, Inc. --><path fill="currentColor" d="M96 128C96 92.7 124.7 64 160 64L496 64C522.5 64 544 85.5 544 112L544 432C544 452.9 530.6 470.7 512 477.3L512 544L528 544C536.8 544 544 551.2 544 560C544 568.8 536.8 576 528 576L160 576C124.7 576 96 547.3 96 512L96 512L96 128zM416 96L320 96L320 240L358.4 211.2C364.1 206.9 371.9 206.9 377.6 211.2L416 240L416 96zM288 96L160 96C142.3 96 128 110.3 128 128L128 456.6C137.4 451.2 148.3 448 160 448L496 448C504.8 448 512 440.8 512 432L512 112C512 103.2 504.8 96 496 96L448 96L448 272C448 278.1 444.6 283.6 439.2 286.3C433.8 289 427.3 288.4 422.4 284.8L368 244L313.6 284.8C308.8 288.4 302.3 289 296.8 286.3C291.3 283.6 288 278.1 288 272L288 96zM160 480C142.3 480 128 494.3 128 512C128 529.7 142.3 544 160 544L480 544L480 480L160 480z"/></svg>