<svg xmlns="http://www.w3.org/2000/svg" viewBox="0 0 640 640"><!--! Font Awesome Pro 7.1.0 by @fontawesome - https://fontawesome.com License - https://fontawesome.com/license (Commercial License) Copyright 2025 Fonticons, Inc. --><path fill="currentColor" d="M96 128C96 92.7 124.7 64 160 64L496 64C522.5 64 544 85.5 544 112L544 432C544 452.9 530.6 470.7 512 477.3L512 544L528 544C536.8 544 544 551.2 544 560C544 568.8 536.8 576 528 576L160 576C124.7 576 96 547.3 96 512L96 512L96 128zM160 480C142.3 480 128 494.3 128 512C128 529.7 142.3 544 160 544L480 544L480 480L160 480zM128 456.6C137.4 451.2 148.3 448 160 448L496 448C504.8 448 512 440.8 512 432L512 112C512 103.2 504.8 96 496 96L160 96C142.3 96 128 110.3 128 128L128 456.6zM252.2 240C244.6 231.5 240 220.3 240 208C240 181.5 261.5 160 288 160L376 160C384.8 160 392 167.2 392 176C392 184.8 384.8 192 376 192L288 192C279.2 192 272 199.2 272 208C272 216.8 279.2 224 288 224L352 224C378.5 224 400 245.5 400 272C400 284.3 395.4 295.5 387.8 304C395.4 312.5 400 323.7 400 336C400 362.5 378.5 384 352 384L264 384C255.2 384 248 376.8 248 368C248 359.2 255.2 352 264 352L352 352C360.8 352 368 344.8 368 336C368 327.2 360.8 320 352 320L288 320C261.5 320 240 298.5 240 272C240 259.7 244.6 248.5 252.2 240zM320 288L352 288C360.8 288 368 280.8 368 272C368 263.2 360.8 256 352 256L288 256C279.2 256 272 263.2 272 272C272 280.8 279.2 288 288 288L320 288z"/></svg>