<svg xmlns="http://www.w3.org/2000/svg" viewBox="0 0 640 640"><!--! Font Awesome Pro 7.1.0 by @fontawesome - https://fontawesome.com License - https://fontawesome.com/license (Commercial License) Copyright 2025 Fonticons, Inc. --><path fill="currentColor" d="M59.3 36.8C53.1 30.6 42.9 30.6 36.7 36.8C30.5 43 30.5 53.2 36.7 59.4L580.7 603.4C586.9 609.6 597.1 609.6 603.3 603.4C609.5 597.2 609.5 587 603.3 580.8L512 489.5L512 128C512 92.7 483.3 64 448 64L192 64C163.5 64 139.3 82.7 131 108.5L59.3 36.8zM160 137.5L160 128C160 110.3 174.3 96 192 96L448 96C465.7 96 480 110.3 480 128L480 457.5L160 137.5zM128 554C128 572.6 148.2 584.1 164.2 574.7L320 482.6L475.8 574.6C479.6 576.8 483.6 577.9 487.5 578L405.3 495.8L332.2 452.6C324.7 448.1 315.3 448.1 307.8 452.6L160 540L160 250.5L128 218.5L128 554z"/></svg>