<svg xmlns="http://www.w3.org/2000/svg" viewBox="0 0 640 640"><!--! Font Awesome Pro 7.1.0 by @fontawesome - https://fontawesome.com License - https://fontawesome.com/license (Commercial License) Copyright 2025 Fonticons, Inc. --><path fill="currentColor" d="M256 128C256 92.7 284.7 64 320 64C355.3 64 384 92.7 384 128C384 163.3 355.3 192 320 192C284.7 192 256 163.3 256 128zM416 128C416 75 373 32 320 32C267 32 224 75 224 128C224 181 267 224 320 224C373 224 416 181 416 128zM282.6 315.1L304 324L304 542.7C254.2 522.4 201 512 147.2 512L112 512C103.2 512 96 504.8 96 496L96 304C96 295.2 103.2 288 112 288L147.2 288C193.7 288 239.7 297.2 282.6 315.1zM492.8 512C439 512 385.8 522.4 336 542.7L336 324L357.4 315.1C400.3 297.2 446.3 288 492.8 288L528 288C536.8 288 544 295.2 544 304L544 496C544 504.8 536.8 512 528 512L492.8 512zM320 296L294.9 285.5C248.1 266 197.9 256 147.2 256L112 256C85.5 256 64 277.5 64 304L64 496C64 522.5 85.5 544 112 544L147.2 544C197.9 544 248.1 554 294.9 573.5L307.7 578.8C315.6 582.1 324.4 582.1 332.3 578.8L345.1 573.5C391.9 554 442.1 544 492.8 544L528 544C554.5 544 576 522.5 576 496L576 304C576 277.5 554.5 256 528 256L492.8 256C442.1 256 391.9 266 345.1 285.5L320 296z"/></svg>