<svg xmlns="http://www.w3.org/2000/svg" viewBox="0 0 640 640"><!--! Font Awesome Pro 7.1.0 by @fontawesome - https://fontawesome.com License - https://fontawesome.com/license (Commercial License) Copyright 2025 Fonticons, Inc. --><path fill="currentColor" d="M544 128C544 92.7 515.3 64 480 64L144 64C117.5 64 96 85.5 96 112L96 432C96 452.9 109.4 470.7 128 477.3L128 544L112 544C103.2 544 96 551.2 96 560C96 568.8 103.2 576 112 576L480 576C515.3 576 544 547.3 544 512L544 512L544 128zM480 480C497.7 480 512 494.3 512 512C512 529.7 497.7 544 480 544L160 544L160 480L480 480zM512 456.6C502.6 451.2 491.7 448 480 448L144 448C135.2 448 128 440.8 128 432L128 112C128 103.2 135.2 96 144 96L480 96C497.7 96 512 110.3 512 128L512 456.6zM333.5 159.5C330.6 154.9 325.5 152 320 152C314.5 152 309.4 154.8 306.5 159.5L275.8 208L224 208C218.2 208 212.8 211.2 210 216.3C207.2 221.4 207.4 227.6 210.5 232.6L235.4 272.1L210.5 311.6C207.4 316.5 207.2 322.8 210 327.9C212.8 333 218.2 336.2 224 336.2L275.8 336.2L306.5 384.7C309.4 389.3 314.5 392.2 320 392.2C325.5 392.2 330.6 389.4 333.5 384.7L364.2 336.2L416 336.2C421.8 336.2 427.2 333 430 327.9C432.8 322.8 432.6 316.6 429.5 311.6L404.6 272.1L429.5 232.6C432.6 227.7 432.8 221.4 430 216.3C427.2 211.2 421.8 208 416 208L364.2 208L333.5 159.5zM298.1 232.6L320 198L341.8 232.5C344.7 237.1 349.8 240 355.3 240L386.9 240L372.1 263.5C368.8 268.7 368.8 275.4 372.1 280.6L386.9 304.1L355.3 304.1C349.8 304.1 344.7 306.9 341.8 311.6L320 346L298.2 311.5C295.3 306.9 290.2 304 284.7 304L253.1 304L267.9 280.5C271.2 275.3 271.2 268.6 267.9 263.4L253 240L284.6 240C290.1 240 295.2 237.2 298.1 232.5z"/></svg>