<svg xmlns="http://www.w3.org/2000/svg" viewBox="0 0 640 640"><!--! Font Awesome Pro 7.1.0 by @fontawesome - https://fontawesome.com License - https://fontawesome.com/license (Commercial License) Copyright 2025 Fonticons, Inc. --><path fill="currentColor" d="M304 164L282.6 155.1C239.7 137.2 193.7 128 147.2 128L112 128C103.2 128 96 135.2 96 144L96 496C96 504.8 103.2 512 112 512L147.2 512C201 512 254.2 522.4 304 542.7L304 164zM336 542.7C385.8 522.4 439 512 492.8 512L528 512C536.8 512 544 504.8 544 496L544 144C544 135.2 536.8 128 528 128L492.8 128C446.3 128 400.3 137.2 357.4 155.1L336 164L336 542.7zM294.9 125.5L320 136L345.1 125.5C391.9 106 442.1 96 492.8 96L528 96C554.5 96 576 117.5 576 144L576 496C576 522.5 554.5 544 528 544L492.8 544C442.1 544 391.9 554 345.1 573.5L332.3 578.8C324.4 582.1 315.6 582.1 307.7 578.8L294.9 573.5C248.1 554 197.9 544 147.2 544L112 544C85.5 544 64 522.5 64 496L64 144C64 117.5 85.5 96 112 96L147.2 96C197.9 96 248.1 106 294.9 125.5z"/></svg>