<svg xmlns="http://www.w3.org/2000/svg" viewBox="0 0 640 640"><!--! Font Awesome Pro 7.1.0 by @fontawesome - https://fontawesome.com License - https://fontawesome.com/license (Commercial License) Copyright 2025 Fonticons, Inc. --><path fill="currentColor" d="M96 128C96 92.7 124.7 64 160 64L496 64C522.5 64 544 85.5 544 112L544 432C544 452.9 530.6 470.7 512 477.3L512 544L528 544C536.8 544 544 551.2 544 560C544 568.8 536.8 576 528 576L160 576C124.7 576 96 547.3 96 512L96 512L96 128zM160 480C142.3 480 128 494.3 128 512C128 529.7 142.3 544 160 544L480 544L480 480L160 480zM128 456.6C137.4 451.2 148.3 448 160 448L496 448C504.8 448 512 440.8 512 432L512 112C512 103.2 504.8 96 496 96L160 96C142.3 96 128 110.3 128 128L128 456.6zM304 144L336 144C353.7 144 368 158.3 368 176L368 208L400 208C417.7 208 432 222.3 432 240L432 272C432 289.7 417.7 304 400 304L368 304L368 368C368 385.7 353.7 400 336 400L304 400C286.3 400 272 385.7 272 368L272 304L240 304C222.3 304 208 289.7 208 272L208 240C208 222.3 222.3 208 240 208L272 208L272 176C272 158.3 286.3 144 304 144zM304 176L304 224C304 232.8 296.8 240 288 240L240 240L240 272L288 272C296.8 272 304 279.2 304 288L304 368L336 368L336 288C336 279.2 343.2 272 352 272L400 272L400 240L352 240C343.2 240 336 232.8 336 224L336 176L304 176z"/></svg>