<svg xmlns="http://www.w3.org/2000/svg" viewBox="0 0 640 640"><!--! Font Awesome Pro 7.1.0 by @fontawesome - https://fontawesome.com License - https://fontawesome.com/license (Commercial License) Copyright 2025 Fonticons, Inc. --><path fill="currentColor" d="M96 128C96 92.7 124.7 64 160 64L496 64C522.5 64 544 85.5 544 112L544 432C544 452.9 530.6 470.7 512 477.3L512 544L528 544C536.8 544 544 551.2 544 560C544 568.8 536.8 576 528 576L160 576C124.7 576 96 547.3 96 512L96 512L96 128zM160 480C142.3 480 128 494.3 128 512C128 529.7 142.3 544 160 544L480 544L480 480L160 480zM128 456.6C137.4 451.2 148.3 448 160 448L496 448C504.8 448 512 440.8 512 432L512 112C512 103.2 504.8 96 496 96L160 96C142.3 96 128 110.3 128 128L128 456.6zM352 224C352 206.3 337.7 192 320 192C302.3 192 288 206.3 288 224C288 241.7 302.3 256 320 256C337.7 256 352 241.7 352 224zM256 224C256 188.7 284.7 160 320 160C355.3 160 384 188.7 384 224C384 259.3 355.3 288 320 288C284.7 288 256 259.3 256 224zM230.6 384C219.8 384 211.6 373.9 216.4 364.2C229.5 338 256.6 320 288 320L352 320C383.3 320 410.4 338 423.6 364.2C428.5 373.9 420.3 384 409.4 384C402.1 384 395.9 379.2 391.8 373.2C383.2 360.4 368.6 352 352 352L288 352C271.4 352 256.8 360.4 248.2 373.2C244.1 379.2 237.9 384 230.6 384z"/></svg>