<svg xmlns="http://www.w3.org/2000/svg" viewBox="0 0 640 640"><!--! Font Awesome Pro 7.1.0 by @fontawesome - https://fontawesome.com License - https://fontawesome.com/license (Commercial License) Copyright 2025 Fonticons, Inc. --><path fill="currentColor" d="M192 64C156.7 64 128 92.7 128 128L128 554C128 572.6 148.2 584.1 164.2 574.7L320 482.6L475.8 574.6C491.8 584.1 512 572.5 512 553.9L512 127.9C512 92.6 483.3 63.9 448 63.9L192 64zM160 128C160 110.3 174.3 96 192 96L448 96C465.7 96 480 110.3 480 128L480 540L332.2 452.7C324.7 448.2 315.3 448.2 307.8 452.7L160 540L160 128zM304 344C304 352.8 311.2 360 320 360C328.8 360 336 352.8 336 344L336 288L392 288C400.8 288 408 280.8 408 272C408 263.2 400.8 256 392 256L336 256L336 200C336 191.2 328.8 184 320 184C311.2 184 304 191.2 304 200L304 256L248 256C239.2 256 232 263.2 232 272C232 280.8 239.2 288 248 288L304 288L304 344z"/></svg>