<svg xmlns="http://www.w3.org/2000/svg" viewBox="0 0 640 640"><!--! Font Awesome Pro 7.1.0 by @fontawesome - https://fontawesome.com License - https://fontawesome.com/license (Commercial License) Copyright 2025 Fonticons, Inc. --><path fill="currentColor" d="M432.9 92.4L371.1 109C362.6 111.3 357.5 120.1 359.8 128.6L372.2 175L464.9 150.2L452.5 103.8C450.2 95.3 441.4 90.2 432.9 92.5zM446.7 453.1L539.4 428.3L473.1 181L380.4 205.8L446.7 453.1zM455 484L467.4 530.4C469.7 538.9 478.5 544 487 541.7L548.8 525.1C557.3 522.8 562.4 514 560.1 505.5L547.7 459.2L455 484zM578.6 450.9L591 497.3C597.9 522.9 582.7 549.2 557.1 556.1L495.3 572.7C469.7 579.6 443.4 564.4 436.5 538.8L352.1 223.7L352.1 528.1C352.1 554.6 330.6 576.1 304.1 576.1L240.1 576.1C227.8 576.1 216.6 571.5 208.1 563.9C199.6 571.5 188.4 576.1 176.1 576.1L112.1 576.1C85.6 576.1 64.1 554.6 64.1 528.1L64.1 112.1C64.1 85.6 85.6 64.1 112.1 64.1L176.1 64.1C202.6 64.1 224.1 85.6 224.1 112.1L224.1 162.8C229.1 161 234.5 160.1 240.1 160.1L304.1 160.1C317.9 160.1 330.4 165.9 339.1 175.3L328.9 136.9C322 111.3 337.2 85 362.8 78.1L424.6 61.5C450.2 54.6 476.5 69.8 483.4 95.4C493.7 134 516.5 219.1 570.4 420L578.7 450.9zM224.1 208L224.1 528C224.1 536.8 231.3 544 240.1 544L304.1 544C312.9 544 320.1 536.8 320.1 528L320.1 208C320.1 199.2 312.9 192 304.1 192L240.1 192C231.3 192 224.1 199.2 224.1 208zM192.1 528L192.1 480L96.1 480L96.1 528C96.1 536.8 103.3 544 112.1 544L176.1 544C184.9 544 192.1 536.8 192.1 528zM192.1 448L192.1 192L96.1 192L96.1 448L192.1 448zM112.1 96C103.3 96 96.1 103.2 96.1 112L96.1 160L192.1 160L192.1 112C192.1 103.2 184.9 96 176.1 96L112.1 96z"/></svg>