<svg xmlns="http://www.w3.org/2000/svg" viewBox="0 0 640 640"><!--! Font Awesome Pro 7.1.0 by @fontawesome - https://fontawesome.com License - https://fontawesome.com/license (Commercial License) Copyright 2025 Fonticons, Inc. --><path fill="currentColor" d="M96 152L96 224L192 224L192 208C192 199.2 199.2 192 208 192C216.8 192 224 199.2 224 208L224 224L304 224L304 208C304 199.2 311.2 192 320 192C328.8 192 336 199.2 336 208L336 224L416 224L416 208C416 199.2 423.2 192 432 192C440.8 192 448 199.2 448 208L448 224L544 224L544 152C544 121.1 518.9 96 488 96L152 96C121.1 96 96 121.1 96 152zM64 232.6L64 152C64 103.4 103.4 64 152 64L488 64C536.6 64 576 103.4 576 152L576 232.6C595.1 243.7 608 264.3 608 288L608 480C608 515.3 579.3 544 544 544L96 544C60.7 544 32 515.3 32 480L32 288C32 264.3 44.9 243.6 64 232.6zM208 256L96 256C78.3 256 64 270.3 64 288L64 480C64 497.7 78.3 512 96 512L544 512C561.7 512 576 497.7 576 480L576 288C576 270.3 561.7 256 544 256L208 256zM208 432C234.5 432 256 410.5 256 384C256 357.5 234.5 336 208 336C181.5 336 160 357.5 160 384C160 410.5 181.5 432 208 432zM208 304C252.2 304 288 339.8 288 384C288 428.2 252.2 464 208 464C163.8 464 128 428.2 128 384C128 339.8 163.8 304 208 304zM480 384C480 357.5 458.5 336 432 336C405.5 336 384 357.5 384 384C384 410.5 405.5 432 432 432C458.5 432 480 410.5 480 384zM352 384C352 339.8 387.8 304 432 304C476.2 304 512 339.8 512 384C512 428.2 476.2 464 432 464C387.8 464 352 428.2 352 384z"/></svg>