<svg xmlns="http://www.w3.org/2000/svg" viewBox="0 0 640 640"><!--! Font Awesome Pro 7.1.0 by @fontawesome - https://fontawesome.com License - https://fontawesome.com/license (Commercial License) Copyright 2025 Fonticons, Inc. --><path fill="currentColor" d="M112 64C107.4 64 103.1 66 100 69.4C96.9 72.8 95.5 77.4 96.1 81.9L126.4 339.7C127.2 346.7 126.5 353.8 124.3 360.5L103.4 423.2C98.5 437.9 96 453.3 96 468.8L96 560C96 568.8 103.2 576 112 576L240 576C248.8 576 256 568.8 256 560L256 523.6L314.5 557.1C336.3 569.5 360.9 576.1 385.9 576.1L527.9 576.1C536.7 576.1 543.9 568.9 543.9 560.1L543.9 501.4C543.9 472.6 528.4 445.9 503.3 431.8L387.7 366.3C371.3 357.1 361.9 339.1 363.5 320.4L384 81.4C384.4 76.9 382.9 72.5 379.8 69.2C376.7 65.9 372.5 64 368 64L112 64zM128 512L224 512L224 544L128 544L128 512zM240 480L128 480L128 468.8C128 456.8 129.9 444.8 133.7 433.4L154.6 370.6C158.3 359.5 159.5 347.6 158.2 336L130 96L208 96L208 272C208 280.8 215.2 288 224 288C232.8 288 240 280.8 240 272L240 96L350.6 96L331.6 317.7C328.9 348.9 344.7 378.8 371.9 394.2L487.6 459.6C502.7 468.1 512 484.1 512 501.4L512 544.1L386 544.1C366.5 544.1 347.4 539 330.4 529.3L247.9 482.2C245.5 480.8 242.7 480.1 240 480.1z"/></svg>