<svg xmlns="http://www.w3.org/2000/svg" viewBox="0 0 640 640"><!--! Font Awesome Pro 7.1.0 by @fontawesome - https://fontawesome.com License - https://fontawesome.com/license (Commercial License) Copyright 2025 Fonticons, Inc. --><path fill="currentColor" d="M128 120C128 106.7 138.7 96 152 96L224 96L224 448C224 483.3 252.7 512 288 512C307.1 512 324.3 503.6 336 490.3C347.7 503.6 364.9 512 384 512C403.1 512 420.3 503.6 432 490.3C443.7 503.6 460.9 512 480 512C491.7 512 502.6 508.9 512 503.4L512 560C512 568.8 519.2 576 528 576C536.8 576 544 568.8 544 560L544 120C544 89.1 518.9 64 488 64L152 64C121.1 64 96 89.1 96 120L96 560C96 568.8 103.2 576 112 576C120.8 576 128 568.8 128 560L128 120zM512 128L512 448C512 465.7 497.7 480 480 480C462.3 480 448 465.7 448 448L448 96L488 96C501.3 96 512 106.7 512 120L512 128zM416 128L416 448C416 465.7 401.7 480 384 480C366.3 480 352 465.7 352 448L352 96L416 96L416 128zM256 448L256 96L320 96L320 448C320 465.7 305.7 480 288 480C270.3 480 256 465.7 256 448z"/></svg>