<svg xmlns="http://www.w3.org/2000/svg" viewBox="0 0 640 640"><!--! Font Awesome Pro 7.1.0 by @fontawesome - https://fontawesome.com License - https://fontawesome.com/license (Commercial License) Copyright 2025 Fonticons, Inc. --><path fill="currentColor" d="M544 528C544 536.8 536.8 544 528 544L112 544C103.2 544 96 536.8 96 528C96 519.2 103.2 512 112 512L528 512C536.8 512 544 519.2 544 528zM488 384C488 370.7 498.7 360 512 360C525.3 360 536 370.7 536 384C536 397.3 525.3 408 512 408C498.7 408 488 397.3 488 384zM152 384C152 397.3 141.3 408 128 408C114.7 408 104 397.3 104 384C104 370.7 114.7 360 128 360C141.3 360 152 370.7 152 384zM488 256C488 242.7 498.7 232 512 232C525.3 232 536 242.7 536 256C536 269.3 525.3 280 512 280C498.7 280 488 269.3 488 256zM152 256C152 269.3 141.3 280 128 280C114.7 280 104 269.3 104 256C104 242.7 114.7 232 128 232C141.3 232 152 242.7 152 256zM488 128C488 114.7 498.7 104 512 104C525.3 104 536 114.7 536 128C536 141.3 525.3 152 512 152C498.7 152 488 141.3 488 128zM152 128C152 141.3 141.3 152 128 152C114.7 152 104 141.3 104 128C104 114.7 114.7 104 128 104C141.3 104 152 114.7 152 128zM360 128C360 114.7 370.7 104 384 104C397.3 104 408 114.7 408 128C408 141.3 397.3 152 384 152C370.7 152 360 141.3 360 128zM280 128C280 141.3 269.3 152 256 152C242.7 152 232 141.3 232 128C232 114.7 242.7 104 256 104C269.3 104 280 114.7 280 128z"/></svg>