<svg xmlns="http://www.w3.org/2000/svg" viewBox="0 0 640 640"><!--! Font Awesome Pro 7.1.0 by @fontawesome - https://fontawesome.com License - https://fontawesome.com/license (Commercial License) Copyright 2025 Fonticons, Inc. --><path fill="currentColor" d="M112 544C103.2 544 96 536.8 96 528L96 112C96 103.2 103.2 96 112 96C120.8 96 128 103.2 128 112L128 528C128 536.8 120.8 544 112 544zM256 488C269.3 488 280 498.7 280 512C280 525.3 269.3 536 256 536C242.7 536 232 525.3 232 512C232 498.7 242.7 488 256 488zM256 152C242.7 152 232 141.3 232 128C232 114.7 242.7 104 256 104C269.3 104 280 114.7 280 128C280 141.3 269.3 152 256 152zM384 488C397.3 488 408 498.7 408 512C408 525.3 397.3 536 384 536C370.7 536 360 525.3 360 512C360 498.7 370.7 488 384 488zM384 152C370.7 152 360 141.3 360 128C360 114.7 370.7 104 384 104C397.3 104 408 114.7 408 128C408 141.3 397.3 152 384 152zM512 488C525.3 488 536 498.7 536 512C536 525.3 525.3 536 512 536C498.7 536 488 525.3 488 512C488 498.7 498.7 488 512 488zM512 152C498.7 152 488 141.3 488 128C488 114.7 498.7 104 512 104C525.3 104 536 114.7 536 128C536 141.3 525.3 152 512 152zM512 360C525.3 360 536 370.7 536 384C536 397.3 525.3 408 512 408C498.7 408 488 397.3 488 384C488 370.7 498.7 360 512 360zM512 280C498.7 280 488 269.3 488 256C488 242.7 498.7 232 512 232C525.3 232 536 242.7 536 256C536 269.3 525.3 280 512 280z"/></svg>