<svg xmlns="http://www.w3.org/2000/svg" viewBox="0 0 640 640"><!--! Font Awesome Pro 7.1.0 by @fontawesome - https://fontawesome.com License - https://fontawesome.com/license (Commercial License) Copyright 2025 Fonticons, Inc. --><path fill="currentColor" d="M112 304C103.2 304 96 311.2 96 320C96 328.8 103.2 336 112 336L528 336C536.8 336 544 328.8 544 320C544 311.2 536.8 304 528 304L112 304zM128 152C141.3 152 152 141.3 152 128C152 114.7 141.3 104 128 104C114.7 104 104 114.7 104 128C104 141.3 114.7 152 128 152zM128 536C141.3 536 152 525.3 152 512C152 498.7 141.3 488 128 488C114.7 488 104 498.7 104 512C104 525.3 114.7 536 128 536zM224 152C237.3 152 248 141.3 248 128C248 114.7 237.3 104 224 104C210.7 104 200 114.7 200 128C200 141.3 210.7 152 224 152zM224 536C237.3 536 248 525.3 248 512C248 498.7 237.3 488 224 488C210.7 488 200 498.7 200 512C200 525.3 210.7 536 224 536zM416 488C402.7 488 392 498.7 392 512C392 525.3 402.7 536 416 536C429.3 536 440 525.3 440 512C440 498.7 429.3 488 416 488zM416 152C429.3 152 440 141.3 440 128C440 114.7 429.3 104 416 104C402.7 104 392 114.7 392 128C392 141.3 402.7 152 416 152zM320 488C306.7 488 296 498.7 296 512C296 525.3 306.7 536 320 536C333.3 536 344 525.3 344 512C344 498.7 333.3 488 320 488zM320 152C333.3 152 344 141.3 344 128C344 114.7 333.3 104 320 104C306.7 104 296 114.7 296 128C296 141.3 306.7 152 320 152zM512 488C498.7 488 488 498.7 488 512C488 525.3 498.7 536 512 536C525.3 536 536 525.3 536 512C536 498.7 525.3 488 512 488zM512 104C498.7 104 488 114.7 488 128C488 141.3 498.7 152 512 152C525.3 152 536 141.3 536 128C536 114.7 525.3 104 512 104zM320 392C306.7 392 296 402.7 296 416C296 429.3 306.7 440 320 440C333.3 440 344 429.3 344 416C344 402.7 333.3 392 320 392zM512 440C525.3 440 536 429.3 536 416C536 402.7 525.3 392 512 392C498.7 392 488 402.7 488 416C488 429.3 498.7 440 512 440zM128 392C114.7 392 104 402.7 104 416C104 429.3 114.7 440 128 440C141.3 440 152 429.3 152 416C152 402.7 141.3 392 128 392zM512 248C525.3 248 536 237.3 536 224C536 210.7 525.3 200 512 200C498.7 200 488 210.7 488 224C488 237.3 498.7 248 512 248zM128 200C114.7 200 104 210.7 104 224C104 237.3 114.7 248 128 248C141.3 248 152 237.3 152 224C152 210.7 141.3 200 128 200zM320 248C333.3 248 344 237.3 344 224C344 210.7 333.3 200 320 200C306.7 200 296 210.7 296 224C296 237.3 306.7 248 320 248z"/></svg>