<svg xmlns="http://www.w3.org/2000/svg" viewBox="0 0 640 640"><!--! Font Awesome Pro 7.1.0 by @fontawesome - https://fontawesome.com License - https://fontawesome.com/license (Commercial License) Copyright 2025 Fonticons, Inc. --><path fill="currentColor" d="M96 528C96 536.8 103.2 544 112 544C120.8 544 128 536.8 128 528L128 160C128 142.3 142.3 128 160 128L528 128C536.8 128 544 120.8 544 112C544 103.2 536.8 96 528 96L160 96C124.7 96 96 124.7 96 160L96 528zM360 512C360 525.3 370.7 536 384 536C397.3 536 408 525.3 408 512C408 498.7 397.3 488 384 488C370.7 488 360 498.7 360 512zM256 536C269.3 536 280 525.3 280 512C280 498.7 269.3 488 256 488C242.7 488 232 498.7 232 512C232 525.3 242.7 536 256 536zM488 512C488 525.3 498.7 536 512 536C525.3 536 536 525.3 536 512C536 498.7 525.3 488 512 488C498.7 488 488 498.7 488 512zM512 280C525.3 280 536 269.3 536 256C536 242.7 525.3 232 512 232C498.7 232 488 242.7 488 256C488 269.3 498.7 280 512 280zM488 384C488 397.3 498.7 408 512 408C525.3 408 536 397.3 536 384C536 370.7 525.3 360 512 360C498.7 360 488 370.7 488 384z"/></svg>