<svg xmlns="http://www.w3.org/2000/svg" viewBox="0 0 640 640"><!--! Font Awesome Pro 7.1.0 by @fontawesome - https://fontawesome.com License - https://fontawesome.com/license (Commercial License) Copyright 2025 Fonticons, Inc. --><path fill="currentColor" d="M96 112C96 103.2 103.2 96 112 96L528 96C536.8 96 544 103.2 544 112C544 120.8 536.8 128 528 128L112 128C103.2 128 96 120.8 96 112zM152 256C152 269.3 141.3 280 128 280C114.7 280 104 269.3 104 256C104 242.7 114.7 232 128 232C141.3 232 152 242.7 152 256zM488 256C488 242.7 498.7 232 512 232C525.3 232 536 242.7 536 256C536 269.3 525.3 280 512 280C498.7 280 488 269.3 488 256zM152 384C152 397.3 141.3 408 128 408C114.7 408 104 397.3 104 384C104 370.7 114.7 360 128 360C141.3 360 152 370.7 152 384zM488 384C488 370.7 498.7 360 512 360C525.3 360 536 370.7 536 384C536 397.3 525.3 408 512 408C498.7 408 488 397.3 488 384zM152 512C152 525.3 141.3 536 128 536C114.7 536 104 525.3 104 512C104 498.7 114.7 488 128 488C141.3 488 152 498.7 152 512zM488 512C488 498.7 498.7 488 512 488C525.3 488 536 498.7 536 512C536 525.3 525.3 536 512 536C498.7 536 488 525.3 488 512zM280 512C280 525.3 269.3 536 256 536C242.7 536 232 525.3 232 512C232 498.7 242.7 488 256 488C269.3 488 280 498.7 280 512zM360 512C360 498.7 370.7 488 384 488C397.3 488 408 498.7 408 512C408 525.3 397.3 536 384 536C370.7 536 360 525.3 360 512z"/></svg>