<svg xmlns="http://www.w3.org/2000/svg" viewBox="0 0 640 640"><!--! Font Awesome Pro 7.1.0 by @fontawesome - https://fontawesome.com License - https://fontawesome.com/license (Commercial License) Copyright 2025 Fonticons, Inc. --><path fill="currentColor" d="M528 96C536.8 96 544 103.2 544 112L544 528C544 536.8 536.8 544 528 544C519.2 544 512 536.8 512 528L512 112C512 103.2 519.2 96 528 96zM384 152C370.7 152 360 141.3 360 128C360 114.7 370.7 104 384 104C397.3 104 408 114.7 408 128C408 141.3 397.3 152 384 152zM384 488C397.3 488 408 498.7 408 512C408 525.3 397.3 536 384 536C370.7 536 360 525.3 360 512C360 498.7 370.7 488 384 488zM256 152C242.7 152 232 141.3 232 128C232 114.7 242.7 104 256 104C269.3 104 280 114.7 280 128C280 141.3 269.3 152 256 152zM256 488C269.3 488 280 498.7 280 512C280 525.3 269.3 536 256 536C242.7 536 232 525.3 232 512C232 498.7 242.7 488 256 488zM128 152C114.7 152 104 141.3 104 128C104 114.7 114.7 104 128 104C141.3 104 152 114.7 152 128C152 141.3 141.3 152 128 152zM128 488C141.3 488 152 498.7 152 512C152 525.3 141.3 536 128 536C114.7 536 104 525.3 104 512C104 498.7 114.7 488 128 488zM128 280C114.7 280 104 269.3 104 256C104 242.7 114.7 232 128 232C141.3 232 152 242.7 152 256C152 269.3 141.3 280 128 280zM128 360C141.3 360 152 370.7 152 384C152 397.3 141.3 408 128 408C114.7 408 104 397.3 104 384C104 370.7 114.7 360 128 360z"/></svg>