<svg xmlns="http://www.w3.org/2000/svg" viewBox="0 0 640 640"><!--! Font Awesome Pro 7.1.0 by @fontawesome - https://fontawesome.com License - https://fontawesome.com/license (Commercial License) Copyright 2025 Fonticons, Inc. --><path fill="currentColor" d="M320 544C311.2 544 304 536.8 304 528L304 336L112 336C103.2 336 96 328.8 96 320C96 311.2 103.2 304 112 304L304 304L304 112C304 103.2 311.2 96 320 96C328.8 96 336 103.2 336 112L336 304L528 304C536.8 304 544 311.2 544 320C544 328.8 536.8 336 528 336L336 336L336 528C336 536.8 328.8 544 320 544zM128 488C141.3 488 152 498.7 152 512C152 525.3 141.3 536 128 536C114.7 536 104 525.3 104 512C104 498.7 114.7 488 128 488zM512 488C525.3 488 536 498.7 536 512C536 525.3 525.3 536 512 536C498.7 536 488 525.3 488 512C488 498.7 498.7 488 512 488zM128 392C141.3 392 152 402.7 152 416C152 429.3 141.3 440 128 440C114.7 440 104 429.3 104 416C104 402.7 114.7 392 128 392zM512 392C525.3 392 536 402.7 536 416C536 429.3 525.3 440 512 440C498.7 440 488 429.3 488 416C488 402.7 498.7 392 512 392zM488 224C488 210.7 498.7 200 512 200C525.3 200 536 210.7 536 224C536 237.3 525.3 248 512 248C498.7 248 488 237.3 488 224zM128 200C141.3 200 152 210.7 152 224C152 237.3 141.3 248 128 248C114.7 248 104 237.3 104 224C104 210.7 114.7 200 128 200zM488 128C488 114.7 498.7 104 512 104C525.3 104 536 114.7 536 128C536 141.3 525.3 152 512 152C498.7 152 488 141.3 488 128zM104 128C104 114.7 114.7 104 128 104C141.3 104 152 114.7 152 128C152 141.3 141.3 152 128 152C114.7 152 104 141.3 104 128zM392 128C392 114.7 402.7 104 416 104C429.3 104 440 114.7 440 128C440 141.3 429.3 152 416 152C402.7 152 392 141.3 392 128zM416 488C429.3 488 440 498.7 440 512C440 525.3 429.3 536 416 536C402.7 536 392 525.3 392 512C392 498.7 402.7 488 416 488zM200 128C200 114.7 210.7 104 224 104C237.3 104 248 114.7 248 128C248 141.3 237.3 152 224 152C210.7 152 200 141.3 200 128zM224 488C237.3 488 248 498.7 248 512C248 525.3 237.3 536 224 536C210.7 536 200 525.3 200 512C200 498.7 210.7 488 224 488z"/></svg>