<svg xmlns="http://www.w3.org/2000/svg" viewBox="0 0 640 640"><!--! Font Awesome Pro 7.1.0 by @fontawesome - https://fontawesome.com License - https://fontawesome.com/license (Commercial License) Copyright 2025 Fonticons, Inc. --><path fill="currentColor" d="M320 80C311.2 80 304 87.2 304 96L304 274C276.4 281.1 256 306.2 256 336C256 371.3 284.7 400 320 400C355.3 400 384 371.3 384 336C384 306.2 363.6 281.1 336 274L336 96C336 87.2 328.8 80 320 80zM320 368C302.3 368 288 353.7 288 336C288 318.3 302.3 304 320 304C337.7 304 352 318.3 352 336C352 353.7 337.7 368 320 368zM112 224L160 224C168.8 224 176 231.2 176 240L176 336C176 415.5 240.5 480 320 480C399.5 480 464 415.5 464 336L464 240C464 231.2 471.2 224 480 224L528 224C536.8 224 544 231.2 544 240L544 512C544 529.7 529.7 544 512 544L128 544C110.3 544 96 529.7 96 512L96 240C96 231.2 103.2 224 112 224zM112 192C85.5 192 64 213.5 64 240L64 512C64 547.3 92.7 576 128 576L512 576C547.3 576 576 547.3 576 512L576 240C576 213.5 554.5 192 528 192L480 192C453.5 192 432 213.5 432 240L432 336C432 397.9 381.9 448 320 448C258.1 448 208 397.9 208 336L208 240C208 213.5 186.5 192 160 192L112 192z"/></svg>