<svg xmlns="http://www.w3.org/2000/svg" viewBox="0 0 640 640"><!--! Font Awesome Pro 7.1.0 by @fontawesome - https://fontawesome.com License - https://fontawesome.com/license (Commercial License) Copyright 2025 Fonticons, Inc. --><path fill="currentColor" d="M320 32C346.5 32 368 53.5 368 80C386.5 89.2 398.5 107.6 399.9 128C400 128.9 400 129.8 400 130.7C418.6 137.3 432 155.1 432 176L432 250.7L443.5 269.8C456.9 292.2 464 317.8 464 343.9L464 544C464 579.3 435.3 608 400 608L240 608C204.7 608 176 579.3 176 544L176 343.9C176 317.8 183.1 292.2 196.5 269.8L208 250.7L208 176C208 155.1 221.4 137.3 240 130.7C240 129.8 240.1 128.9 240.1 128C241.4 107.6 253.5 89.2 272 80C272 53.5 293.5 32 320 32zM367.7 128C366.5 119.7 361.3 112.4 353.7 108.6C342.9 103.2 336 92.1 336 80C336 71.2 328.8 64 320 64C311.2 64 304 71.2 304 80C304 92.1 297.2 103.2 286.3 108.6C278.7 112.4 273.5 119.7 272.3 128L367.7 128zM256 160C247.2 160 240 167.2 240 176L240 224L400 224L400 176C400 167.2 392.8 160 384 160L256 160zM224 286.3C213.6 303.7 208 323.6 208 343.9L208 352L272 352C280.8 352 288 359.2 288 368C288 376.8 280.8 384 272 384L208 384L208 448L272 448C280.8 448 288 455.2 288 464C288 472.8 280.8 480 272 480L208 480L208 544C208 561.7 222.3 576 240 576L400 576C417.7 576 432 561.7 432 544L432 343.9C432 323.6 426.5 303.7 416 286.3L397.9 256L242.1 256L224 286.3z"/></svg>