<svg xmlns="http://www.w3.org/2000/svg" viewBox="0 0 640 640"><!--! Font Awesome Pro 7.1.0 by @fontawesome - https://fontawesome.com License - https://fontawesome.com/license (Commercial License) Copyright 2025 Fonticons, Inc. --><path fill="currentColor" d="M224 48C224 56.8 231.2 64 240 64L240 213.4C192.2 241.1 160 292.8 160 352L160 512C160 565 203 608 256 608L384 608C437 608 480 565 480 512L480 352C480 292.8 447.8 241.1 400 213.4L400 64C408.8 64 416 56.8 416 48C416 39.2 408.8 32 400 32L240 32C231.2 32 224 39.2 224 48zM272 64L368 64L368 223C368 229.1 371.4 234.6 376.9 237.3C419.1 258.3 448 301.8 448 352L448 512C448 547.3 419.3 576 384 576L256 576C220.7 576 192 547.3 192 512L192 352C192 301.8 220.9 258.3 263.1 237.3C268.5 234.6 272 229 272 223L272 64zM368 422.2C368 440.7 362 451.3 355.1 457.6C347.7 464.3 336 469 320 469C293 469 272 447.6 272 422.3C272 412.8 278.2 396.6 291.5 376.1C300.4 362.4 310.8 349.2 320 338.4C329.2 349.2 339.6 362.3 348.5 376.1C361.8 396.7 368 412.9 368 422.3zM400 422.2C400 383.4 356.3 330.3 333.5 305.2C326.2 297.1 313.8 297.1 306.5 305.2C283.7 330.3 240 383.4 240 422.2C240 465.7 275.8 500.9 320 500.9C364.2 500.9 400 474.7 400 422.2z"/></svg>