<svg xmlns="http://www.w3.org/2000/svg" viewBox="0 0 640 640"><!--! Font Awesome Pro 7.1.0 by @fontawesome - https://fontawesome.com License - https://fontawesome.com/license (Commercial License) Copyright 2025 Fonticons, Inc. --><path fill="currentColor" d="M588.1 32.5C593.5 31.1 599.3 32.7 603.3 36.7C607.3 40.7 608.9 46.4 607.5 51.9L575.5 179.9C574.1 185.5 569.8 189.9 564.2 191.4C558.6 192.9 552.7 191.4 548.6 187.3L512 150.6L201.7 460.9L215.5 516.1C216.9 521.5 215.2 527.3 211.3 531.3L147.3 595.3C143.2 599.4 137.3 600.9 131.7 599.4C126.1 597.9 121.8 593.5 120.5 587.9L106.8 533.2L52.1 519.5C46.5 518.1 42.1 513.8 40.6 508.2C39.1 502.6 40.6 496.7 44.7 492.6L108.7 428.6L110.3 427.2C114.1 424.3 119.2 423.2 123.9 424.4L179.1 438.2L489.4 128L452.7 91.3C448.6 87.2 447.1 81.3 448.6 75.7C450.1 70.2 454.5 65.8 460.1 64.5L588.1 32.5zM480.8 249.7C532.7 341.3 519.8 459.7 441.7 537.7L437 542.4L459.3 564.7L461.4 567.2C465.5 573.4 464.8 581.9 459.3 587.3C453.8 592.7 445.4 593.5 439.2 589.4L436.7 587.3L290 440.6L312.6 418L414.4 519.8L419.1 515.1C484.5 449.7 497.2 351.5 457.2 273.3L480.8 249.7zM87.3 495.3L123.9 504.5L126 505.2C130.7 507.1 134.3 511.2 135.6 516.2L144.7 552.8L182.3 515.2L170.8 469.3L124.9 457.8L87.3 495.4zM102.3 198.3C180.3 120.3 298.7 107.3 390.3 159.2L366.7 182.8C288.5 142.8 190.4 155.5 125 220.9L120.3 225.6L222.1 327.4L199.5 350L52.8 203.2L50.7 200.7C46.6 194.5 47.3 186 52.8 180.6C58.3 175.2 66.7 174.4 72.9 178.5L75.4 180.6L97.7 202.9L102.4 198.2zM495.3 88.7L551.3 144.7L570 70L495.3 88.7z"/></svg>