<svg xmlns="http://www.w3.org/2000/svg" viewBox="0 0 640 640"><!--! Font Awesome Pro 7.1.0 by @fontawesome - https://fontawesome.com License - https://fontawesome.com/license (Commercial License) Copyright 2025 Fonticons, Inc. --><path fill="currentColor" d="M320 96C361.8 96 397.4 122.8 410.6 160.1C374.6 161.6 342.4 178 320 203.3C297.7 178 265.5 161.6 229.4 160.1C242.5 122.8 278.1 96 320 96zM320 64C259.2 64 208.3 106.4 195.2 163.2C143.5 175.1 103.7 218.4 97 272L129.3 272C136.9 226.6 176.4 192 224 192C255.7 192 283.8 207.4 301.3 231.1C295 243.7 290.8 257.5 289 272L321.3 272C328.9 226.6 368.4 192 416 192C463.6 192 503.1 226.6 510.7 272L543 272C536.3 218.4 496.5 175.1 444.7 163.2C431.7 106.4 380.7 64 319.9 64zM112 320C103.2 320 96 327.2 96 336L96 352C96 422.7 153.3 480 224 480L233.8 480L208.8 554.9C207.2 559.8 208 565.1 211 569.3C214 573.5 218.8 575.9 224 575.9L416 575.9C421.1 575.9 426 573.4 429 569.3C432 565.2 432.8 559.8 431.2 554.9L406.2 480L416 480C486.7 480 544 422.7 544 352L544 336C544 327.2 536.8 320 528 320L112 320zM224 448C171 448 128 405 128 352L512 352C512 405 469 448 416 448L384 448C378.9 448 374 450.5 371 454.6C368 458.7 367.2 464.1 368.8 469L393.8 543.9L246.2 543.9L271.2 469C272.8 464.1 272 458.8 269 454.6C266 450.4 261.2 448 256 448L224 448z"/></svg>