<svg xmlns="http://www.w3.org/2000/svg" viewBox="0 0 640 640"><!--! Font Awesome Pro 7.1.0 by @fontawesome - https://fontawesome.com License - https://fontawesome.com/license (Commercial License) Copyright 2025 Fonticons, Inc. --><path fill="currentColor" d="M267.8 146.2C277.9 125.5 297.8 112 320 112C342.2 112 362.2 125.5 372.2 146.2C374.2 150.3 377.8 153.4 382.2 154.6C386.6 155.8 391.3 155.2 395.1 152.7C403.9 147.1 414 144 424.9 144C452.7 144 477 165.2 482.7 195C484.2 202.7 491 208.2 498.8 208C499.2 208 499.5 208 499.9 208C523.2 208 543.9 228.5 543.9 256C543.9 264.8 551.1 272 559.9 272C568.7 272 575.9 264.8 575.9 256C575.9 216.6 548.4 182.5 511 176.8C498.9 139.6 465.4 112 424.9 112C413.5 112 402.6 114.2 392.6 118.2C376.2 95.2 349.9 80 319.9 80C289.9 80 263.7 95.2 247.2 118.2C237.2 114.2 226.3 112 214.9 112C174.4 112 140.9 139.6 128.8 176.8C91.4 182.5 63.9 216.6 63.9 256C63.9 264.8 71.1 272 79.9 272C88.7 272 95.9 264.8 95.9 256C95.9 228.5 116.6 208 139.9 208C140.3 208 140.6 208 141 208C148.8 208.2 155.7 202.7 157.1 195C162.8 165.2 187.1 144 214.9 144C225.7 144 235.9 147.2 244.7 152.7C248.5 155.1 253.3 155.8 257.6 154.6C261.9 153.4 265.6 150.3 267.6 146.2zM193.3 489.1C190.6 480.1 184.1 472.7 175.5 468.9C130 449 97.9 404.3 96.1 352L543.9 352C542.1 404.3 510 449 464.5 468.9C455.9 472.7 449.3 480.1 446.7 489.1C442.8 502.3 430.5 512 416 512L224 512C209.5 512 197.3 502.4 193.3 489.1zM91.4 320C76.3 320 64 332.3 64 347.4C64 414.9 104.6 472.8 162.6 498.3C170.5 524.7 195 544 224 544L416 544C445 544 469.5 524.7 477.4 498.3C535.5 472.9 576 414.9 576 347.5C576 332.4 563.7 320.1 548.6 320.1L91.4 320z"/></svg>