<svg xmlns="http://www.w3.org/2000/svg" viewBox="0 0 640 640"><!--! Font Awesome Pro 7.1.0 by @fontawesome - https://fontawesome.com License - https://fontawesome.com/license (Commercial License) Copyright 2025 Fonticons, Inc. --><path fill="currentColor" d="M160 143.7L76.9 160.3C68.2 162 62.6 170.5 64.3 179.1C66 187.7 74.5 193.4 83.1 191.7L160 176.3L160 218.6L78.9 224C70.1 224.6 63.4 232.2 64 241C64.6 249.8 72.2 256.5 81 255.9L159.9 250.6L159.9 287.9L114.8 287.9C87.3 288 65.4 311.2 67 338.8L67.6 349.1C72.5 433.2 123.5 504.2 195.1 538.3C202.7 560.2 223.5 575.9 248 575.9L392 575.9C416.5 575.9 437.3 560.2 444.9 538.3C516.5 504.2 567.4 433.2 572.4 349.1L573 338.8C574.6 311.2 552.7 288 525.1 288L272 288L272 96C272 87.2 264.8 80 256 80C247.2 80 240 87.2 240 96L240 288L192 288L192 112C192 103.2 184.8 96 176 96C167.2 96 160 103.2 160 112L160 143.7zM320 208L320 240L561.1 224C569.9 223.4 576.6 215.8 576 207C575.4 198.2 567.8 191.5 559 192.1L320 208zM320 111.7L320 144.3L563.1 95.7C571.8 94 577.4 85.5 575.7 76.9C574 68.3 565.5 62.6 556.9 64.3L320 111.7zM208.8 509.5C147.4 480.3 103.8 419.4 99.5 347.3L98.9 337C98.4 327.8 105.7 320.1 114.9 320.1L525.1 320.1C534.3 320.1 541.6 327.9 541.1 337L540.5 347.3C536.3 419.4 492.7 480.3 431.2 509.5C423.5 513.2 417.5 519.8 414.7 527.9C411.4 537.3 402.5 544 392 544L248 544C237.6 544 228.6 537.3 225.3 527.9C222.5 519.8 216.6 513.2 208.8 509.5z"/></svg>