<svg xmlns="http://www.w3.org/2000/svg" viewBox="0 0 640 640"><!--! Font Awesome Pro 7.1.0 by @fontawesome - https://fontawesome.com License - https://fontawesome.com/license (Commercial License) Copyright 2025 Fonticons, Inc. --><path fill="currentColor" d="M320 64C314.1 64 308.7 67.2 305.9 72.5C303.1 77.8 303.4 84 306.7 88.9L317.5 105.2C319.1 107.6 320 110.5 320 113.4C320 121.5 313.4 128.1 305.3 128.1L228 128C190.4 128 160 158.4 160 196C160 206.2 162.3 215.9 166.3 224.6C126.7 229.4 96 263.1 96 304C96 330.2 108.6 353.4 128 368L128 408C128 465.4 174.6 512 232 512L235.5 512L224.5 556.1C223.3 560.9 224.4 565.9 227.4 569.8C230.4 573.7 235.1 576 240 576L400 576C404.9 576 409.6 573.7 412.6 569.8C415.6 565.9 416.7 560.9 415.5 556.1L404.5 512L408 512C465.4 512 512 465.4 512 408L512 368C531.4 353.4 544 330.2 544 304C544 262.6 512.6 228.6 472.3 224.4C477.2 214.7 480 203.6 480 192C480 121.3 422.7 64 352 64L320 64zM480 382.4L480 408C480 447.8 447.8 480 408 480L384 480C379.1 480 374.4 482.3 371.4 486.2C368.4 490.1 367.3 495.1 368.5 499.9L379.5 544L260.5 544L271.5 499.9C272.7 495.1 271.6 490.1 268.6 486.2C265.6 482.3 260.9 480 256 480L232 480C192.2 480 160 447.8 160 408L160 382.4C165.2 383.4 170.5 384 176 384L464 384C469.5 384 474.8 383.4 480 382.4zM352 113.3C352 107.3 350.9 101.5 348.7 96L352 96C405 96 448 139 448 192C448 205.1 441.7 216.7 432 224L344 224C335.2 224 328 231.2 328 240C328 248.8 335.2 256 344 256L464 256C490.5 256 512 277.5 512 304C512 330.5 490.5 352 464 352L176 352C149.5 352 128 330.5 128 304C128 277.5 149.5 256 176 256L232 256C240.8 256 248 248.8 248 240C248 231.2 240.8 224 232 224L205.4 224C197.2 217.4 192 207.3 192 196C192 176.1 208.1 160 228 160L305.3 160C331.1 160 352 139.1 352 113.3z"/></svg>