<svg xmlns="http://www.w3.org/2000/svg" viewBox="0 0 640 640"><!--! Font Awesome Pro 7.1.0 by @fontawesome - https://fontawesome.com License - https://fontawesome.com/license (Commercial License) Copyright 2025 Fonticons, Inc. --><path fill="currentColor" d="M192 96C169.9 96 152 113.9 152 136L152 140.4C152 146.8 152.8 153.2 154.3 159.4L163.7 196.8C165.9 205.7 167.3 214.8 167.8 224L216.2 224C216.7 214.8 218.1 205.7 220.3 196.8L229.7 159.4C231.3 153.2 232 146.8 232 140.4L232 136C232 113.9 214.1 96 192 96zM155.9 294.9L125.1 365.4C116.5 385.2 112 406.5 112 428.1C112 454.3 118.6 480 131.1 503L153.5 544.1L230.5 544.1L252.9 503C265.4 480 272 454.3 272 428.1C272 406.5 267.5 385.2 258.9 365.4L228.1 295C222.7 282.6 219 269.5 217.3 256.1L166.8 256.1C165 269.5 161.4 282.6 156 295zM120 136C120 96.2 152.2 64 192 64C231.8 64 264 96.2 264 136L264 140.4C264 149.4 262.9 158.4 260.7 167.2L251.3 204.6C249.1 213.5 248 222.6 248 231.8L248 237.3C248 252.8 251.2 268 257.4 282.2L288.2 352.6C298.6 376.4 304 402.1 304 428.1C304 459.6 296.1 490.6 281 518.3L256.3 563.5C252.1 571.2 244 576 235.2 576L148.7 576C139.9 576 131.8 571.2 127.6 563.5L103 518.2C87.9 490.5 80 459.5 80 428C80 402 85.4 376.3 95.8 352.5L126.6 282.1C132.8 268 136 252.7 136 237.2L136 231.7C136 222.5 134.9 213.4 132.7 204.5L123.3 167.1C121.1 158.4 120 149.4 120 140.4L120 136zM448 96C425.9 96 408 113.9 408 136L408 140.4C408 146.8 408.8 153.2 410.3 159.4L419.7 196.8C421.9 205.7 423.3 214.8 423.8 224L472.2 224C472.7 214.8 474.1 205.7 476.3 196.8L485.7 159.4C487.3 153.2 488 146.8 488 140.4L488 136C488 113.9 470.1 96 448 96zM411.9 294.9L381.1 365.3C372.5 385.1 368 406.4 368 428C368 454.2 374.6 479.9 387.1 502.9L409.5 544L486.5 544L508.9 502.9C521.4 479.9 528 454.2 528 428C528 406.4 523.5 385.1 514.9 365.3L484.1 294.9C478.7 282.5 475 269.4 473.3 256L422.8 256C421 269.4 417.4 282.5 412 294.9zM376 136C376 96.2 408.2 64 448 64C487.8 64 520 96.2 520 136L520 140.4C520 149.4 518.9 158.4 516.7 167.2L507.3 204.6C505.1 213.5 504 222.6 504 231.8L504 237.3C504 252.8 507.2 268 513.4 282.2L544.2 352.6C554.6 376.4 560 402.1 560 428.1C560 459.6 552.1 490.6 537 518.3L512.3 563.5C508.1 571.2 500 576 491.2 576L404.7 576C395.9 576 387.8 571.2 383.6 563.5L359 518.2C343.9 490.5 336 459.5 336 428C336 402 341.4 376.3 351.8 352.5L382.6 282.1C388.8 267.9 392 252.7 392 237.2L392 231.7C392 222.5 390.9 213.4 388.7 204.5L379.3 167.1C377.1 158.3 376 149.4 376 140.3L376 135.9z"/></svg>