<svg xmlns="http://www.w3.org/2000/svg" viewBox="0 0 640 640"><!--! Font Awesome Pro 7.1.0 by @fontawesome - https://fontawesome.com License - https://fontawesome.com/license (Commercial License) Copyright 2025 Fonticons, Inc. --><path fill="currentColor" d="M176 208C127 208 96 174.9 96 144C96 113.1 127 80 176 80C225 80 256 113.1 256 144C256 174.9 225 208 176 208zM176 240C231.5 240 277.6 205.4 286.5 160L560 160C568.8 160 576 152.8 576 144C576 135.2 568.8 128 560 128L286.5 128C277.6 82.6 231.5 48 176 48C114.1 48 64 91 64 144C64 197 114.1 240 176 240zM225.3 527.9C222.5 519.8 216.6 513.2 208.8 509.5C147.4 480.3 103.8 419.4 99.5 347.3L98.9 337C98.4 327.8 105.7 320.1 114.9 320.1L525.1 320.1C534.3 320.1 541.6 327.9 541.1 337L540.5 347.3C536.3 419.4 492.7 480.3 431.2 509.5C423.5 513.2 417.5 519.8 414.7 527.9C411.4 537.3 402.5 544 392 544L248 544C237.6 544 228.6 537.3 225.3 527.9zM114.9 288C87.3 288 65.4 311.2 67 338.8L67.6 349.1C72.5 433.2 123.5 504.2 195.1 538.3C202.7 560.2 223.5 575.9 248 575.9L392 575.9C416.5 575.9 437.3 560.2 444.9 538.3C516.5 504.2 567.4 433.2 572.4 349.1L573 338.8C574.6 311.2 552.7 288 525.1 288L114.9 288z"/></svg>