<svg xmlns="http://www.w3.org/2000/svg" viewBox="0 0 640 640"><!--! Font Awesome Pro 7.1.0 by @fontawesome - https://fontawesome.com License - https://fontawesome.com/license (Commercial License) Copyright 2025 Fonticons, Inc. --><path fill="currentColor" d="M305.1 80C342.2 80 374 102.7 387.4 135C390.2 141.6 397 145.6 404.1 144.7C408 144.2 411.9 144 415.9 144C423.3 144 430.5 144.8 437.4 146.4C451 143.9 477.2 141.1 507.6 150.7C484.3 126.8 451.8 111.9 415.8 111.9C414.5 111.9 413.1 111.9 411.8 112C391.4 73.9 351.2 47.9 304.9 47.9C258.6 47.9 218.4 73.9 198 112C195.9 111.9 193.9 111.9 191.8 111.9C121.1 111.9 63.8 169.2 63.8 239.9C63.8 263.2 70 285.1 80.9 303.9L120.2 303.9C105 286.9 95.8 264.5 95.8 239.9C95.8 186.9 138.8 143.9 191.8 143.9C196.4 143.9 201 144.2 205.4 144.9C212.6 145.9 219.7 141.9 222.4 135.2C235.8 102.8 267.7 80 304.8 80zM464 208C508.2 208 544 243.8 544 288C544 293.5 543.4 298.8 542.4 304L574.9 304C575.6 298.8 576 293.4 576 288C576 226.1 525.9 176 464 176C402.1 176 352 226.1 352 288C352 293.4 352.4 298.8 353.1 304L385.6 304C384.6 298.8 384 293.5 384 288C384 243.8 419.8 208 464 208zM193.3 521.1C190.6 512.1 184.1 504.7 175.5 500.9C130 481 97.9 436.3 96.1 384L543.9 384C542.1 436.3 510 481 464.5 500.9C455.9 504.7 449.3 512.1 446.7 521.1C442.8 534.3 430.5 544 416 544L224 544C209.5 544 197.3 534.4 193.3 521.1zM91.4 352C76.3 352 64 364.3 64 379.4C64 446.9 104.6 504.8 162.6 530.3C170.5 556.7 195 576 224 576L416 576C445 576 469.5 556.7 477.4 530.3C535.5 504.9 576 446.9 576 379.5C576 364.4 563.7 352.1 548.6 352.1L91.4 352zM320 160C320 151.2 312.8 144 304 144C295.2 144 288 151.2 288 160L288 288C288 296.8 295.2 304 304 304C312.8 304 320 296.8 320 288L320 160zM171.3 196.7C165.1 190.5 154.9 190.5 148.7 196.7C142.5 202.9 142.5 213.1 148.7 219.3L228.7 299.3C234.9 305.5 245.1 305.5 251.3 299.3C257.5 293.1 257.5 282.9 251.3 276.7L171.3 196.7z"/></svg>