<svg xmlns="http://www.w3.org/2000/svg" viewBox="0 0 640 640"><!--! Font Awesome Pro 7.1.0 by @fontawesome - https://fontawesome.com License - https://fontawesome.com/license (Commercial License) Copyright 2025 Fonticons, Inc. --><path fill="currentColor" d="M480 256C480 261.4 479.7 266.7 479.2 272L511.3 272C511.7 266.7 512 261.4 512 256C512 150 426 64 320 64C214 64 128 150 128 256C128 261.4 128.2 266.7 128.7 272L160.8 272C160.3 266.7 160 261.4 160 256C160 167.6 231.6 96 320 96C408.4 96 480 167.6 480 256zM112 320C103.2 320 96 327.2 96 336L96 352C96 422.7 153.3 480 224 480L233.8 480L208.8 554.9C207.2 559.8 208 565.1 211 569.3C214 573.5 218.8 575.9 224 575.9L416 575.9C421.1 575.9 426 573.4 429 569.3C432 565.2 432.8 559.8 431.2 554.9L406.2 480L416 480C486.7 480 544 422.7 544 352L544 336C544 327.2 536.8 320 528 320L112 320zM224 448C171 448 128 405 128 352L512 352C512 405 469 448 416 448L384 448C378.9 448 374 450.5 371 454.6C368 458.7 367.2 464.1 368.8 469L393.8 543.9L246.2 543.9L271.2 469C272.8 464.1 272 458.8 269 454.6C266 450.4 261.2 448 256 448L224 448z"/></svg>