<svg xmlns="http://www.w3.org/2000/svg" viewBox="0 0 640 640"><!--! Font Awesome Pro 7.1.0 by @fontawesome - https://fontawesome.com License - https://fontawesome.com/license (Commercial License) Copyright 2025 Fonticons, Inc. --><path fill="currentColor" d="M544 320C544 196.3 443.7 96 320 96C196.3 96 96 196.3 96 320C96 443.7 196.3 544 320 544C443.7 544 544 443.7 544 320zM64 320C64 178.6 178.6 64 320 64C461.4 64 576 178.6 576 320C576 461.4 461.4 576 320 576C178.6 576 64 461.4 64 320zM304 248C317.3 248 328 258.7 328 272C328 285.3 317.3 296 304 296C290.7 296 280 285.3 280 272C280 258.7 290.7 248 304 248zM184 240C184 226.7 194.7 216 208 216C221.3 216 232 226.7 232 240C232 253.3 221.3 264 208 264C194.7 264 184 253.3 184 240zM304 152C317.3 152 328 162.7 328 176C328 189.3 317.3 200 304 200C290.7 200 280 189.3 280 176C280 162.7 290.7 152 304 152z"/></svg>