<svg xmlns="http://www.w3.org/2000/svg" viewBox="0 0 640 640"><!--! Font Awesome Pro 7.1.0 by @fontawesome - https://fontawesome.com License - https://fontawesome.com/license (Commercial License) Copyright 2025 Fonticons, Inc. --><path fill="currentColor" d="M293.8 421.8L304 397.9L304 547.5C301.3 546.5 298.7 545.4 296.2 543.9L136.2 452.5C121.2 444 112 428.1 112 410.9L112 359L248.5 437C265.1 446.5 286.3 439.4 293.8 421.8zM299.7 326.8L264.4 409.2L68.4 297.2L103.7 214.8L299.7 326.8zM128.2 192L296.2 96C311 87.6 329.1 87.6 343.8 96L511.8 192L320 301.6L128.2 192zM560 249.7L578.3 280.2C582.8 287.8 592.7 290.2 600.2 285.7C607.7 281.2 610.2 271.3 605.7 263.7L564.2 194.5C558.6 185.1 550.6 177.3 541.1 171.9L359.7 68.3C335.1 54.2 304.9 54.2 280.3 68.3L102 170.1C89.9 177 80.4 187.7 75 200.5L39 284.6C32.5 299.5 38.3 316.9 52.5 325L80.1 340.8L80.1 410.9C80.1 439.6 95.5 466.1 120.4 480.3L280.4 571.7C305 585.8 335.2 585.8 359.8 571.7L519.8 480.3C544.7 466.1 560.1 439.6 560.1 410.9L560.1 249.8zM336 329.3L528 219.5L528 410.9C528 428.1 518.8 444 503.8 452.6L343.8 544C341.3 545.4 338.6 546.6 336 547.6L336 329.3z"/></svg>