<svg xmlns="http://www.w3.org/2000/svg" viewBox="0 0 640 640"><!--! Font Awesome Pro 7.1.0 by @fontawesome - https://fontawesome.com License - https://fontawesome.com/license (Commercial License) Copyright 2025 Fonticons, Inc. --><path fill="currentColor" d="M512 480L512 224L400 224L400 288C400 314.5 378.5 336 352 336L288 336C261.5 336 240 314.5 240 288L240 224L128 224L128 480C128 497.7 142.3 512 160 512L480 512C497.7 512 512 497.7 512 480zM272 224L272 288C272 296.8 279.2 304 288 304L352 304C360.8 304 368 296.8 368 288L368 224L272 224zM362.8 192L339.9 112L300 112L277.1 192L362.7 192zM396.1 192L504.7 192L457.1 125.4C451.1 117 441.4 112 431.1 112L373.2 112L396.1 192zM364.1 80L431.1 80C451.8 80 471.2 90 483.2 106.8L532.1 175.3C539.9 186.2 544 199.2 544 212.5L544 480C544 515.3 515.3 544 480 544L160 544C124.7 544 96 515.3 96 480L96 212.5C96 199.2 100.2 186.2 107.9 175.3L156.9 106.8C168.9 90 188.3 80 208.9 80L364 80zM266.8 112L208.9 112C198.6 112 188.9 117 182.9 125.4L135.3 192L243.9 192L266.8 112z"/></svg>