<svg xmlns="http://www.w3.org/2000/svg" viewBox="0 0 640 640"><!--! Font Awesome Pro 7.1.0 by @fontawesome - https://fontawesome.com License - https://fontawesome.com/license (Commercial License) Copyright 2025 Fonticons, Inc. --><path fill="currentColor" d="M480 224L480 272.7C491 273.6 501.6 275.4 512 278.1L512 212.6C512 199.3 507.8 186.3 500.1 175.4L451.1 106.8C439.1 90 419.7 80 399.1 80L176.9 80C156.2 80 136.8 90 124.8 106.8L75.9 175.3C68.2 186.2 64 199.2 64 212.5L64 480C64 515.3 92.7 544 128 544L289.4 544C284.7 533.8 280.9 523.1 278 512L128 512C110.3 512 96 497.7 96 480L96 224L480 224zM103.3 192L150.9 125.4C156.9 117 166.6 112 176.9 112L272 112L272 192L103.3 192zM304 192L304 112L399.1 112C409.4 112 419.1 117 425.1 125.4L472.7 192L304 192zM464 352C525.9 352 576 402.1 576 464C576 525.9 525.9 576 464 576C402.1 576 352 525.9 352 464C352 402.1 402.1 352 464 352zM464 608C543.5 608 608 543.5 608 464C608 384.5 543.5 320 464 320C384.5 320 320 384.5 320 464C320 543.5 384.5 608 464 608zM521.4 403.1C514.3 397.9 504.2 399.5 499 406.6L446 479.5L419.2 452.7C413 446.5 402.8 446.5 396.6 452.7C390.4 458.9 390.4 469.1 396.6 475.3L436.6 515.3C439.9 518.6 444.5 520.3 449.2 519.9C453.9 519.5 458.1 517.1 460.9 513.4L524.9 425.4C530.1 418.3 528.5 408.2 521.4 403z"/></svg>