<svg xmlns="http://www.w3.org/2000/svg" viewBox="0 0 640 640"><!--! Font Awesome Pro 7.1.0 by @fontawesome - https://fontawesome.com License - https://fontawesome.com/license (Commercial License) Copyright 2025 Fonticons, Inc. --><path fill="currentColor" d="M288.7 80C283.9 90.1 280.1 100.9 277.3 112L177.4 112C167.1 112 157.4 117 151.4 125.4L103.8 192L277.3 192C280 203.1 283.8 213.9 288.6 224L96.5 224L96.5 480C96.5 497.7 110.8 512 128.5 512L448.5 512C466.2 512 480.5 497.7 480.5 480L480.5 315.2C489 313.1 497.2 310.4 505.1 307.1L512.5 314.5L512.5 479.9L512.2 486.4C509.1 516.5 485.2 540.5 455.1 543.5L448.6 543.8L128.6 543.8L122.1 543.5C92 540.4 68 516.5 65 486.4L64.7 479.9L64.7 212.4C64.7 200.7 67.9 189.3 73.9 179.4L76.6 175.2L125.5 106.7C136 92 152.2 82.5 169.9 80.4L177.6 79.9L288.9 79.9zM288.5 272C297.3 272 304.5 279.2 304.5 288L304.5 409.4L349.2 364.7C355.4 358.5 365.6 358.5 371.8 364.7C378 370.9 378 381.1 371.8 387.3L299.8 459.3L297.3 461.4C291.1 465.5 282.6 464.8 277.2 459.3L205.2 387.3L203.1 384.8C199 378.6 199.7 370.1 205.2 364.7C210.7 359.3 219.1 358.5 225.3 362.6L227.8 364.7L272.5 409.4L272.5 288C272.5 279.2 279.7 272 288.5 272zM440.5 32.1C506.8 32.1 560.5 85.8 560.5 152.1C560.5 179.5 551.3 204.6 535.9 224.8L603.8 292.8C610 299 610 309.2 603.8 315.4C598.3 320.9 589.9 321.5 583.7 317.4L581.2 315.4L513.3 247.4C493.1 262.8 467.9 272.1 440.5 272.1C374.2 272.1 320.5 218.4 320.5 152.1C320.5 85.8 374.2 32.1 440.5 32.1zM440.5 64.1C391.9 64.1 352.5 103.5 352.5 152.1C352.5 200.7 391.9 240.1 440.5 240.1C489.1 240.1 528.5 200.7 528.5 152.1C528.5 103.5 489.1 64.1 440.5 64.1z"/></svg>