<svg xmlns="http://www.w3.org/2000/svg" viewBox="0 0 640 640"><!--! Font Awesome Pro 7.1.0 by @fontawesome - https://fontawesome.com License - https://fontawesome.com/license (Commercial License) Copyright 2025 Fonticons, Inc. --><path fill="currentColor" d="M431.1 80C451.8 80 471.2 90 483.2 106.8L532.1 175.3C539.8 186.1 544 199.2 544 212.5L544 480C544 515.3 515.3 544 480 544L160 544C124.7 544 96 515.3 96 480L96 212.5C96 199.2 100.2 186.2 107.9 175.3L156.8 106.8C168.9 90 188.3 80 208.9 80L431 80zM128 480C128 497.7 142.3 512 160 512L480 512C497.7 512 512 497.7 512 480L512 224L128 224L128 480zM387.1 282.2C392.3 275.1 402.3 273.5 409.4 278.7C416.5 283.9 418.1 293.9 412.9 301L307.3 446.2C304.5 450 300.2 452.4 295.5 452.7C290.8 453 286.2 451.3 282.9 447.9L228.5 391.6C222.4 385.2 222.5 375.1 228.9 369C235.3 362.9 245.4 363.1 251.5 369.4L292.7 412L387.1 282.2zM208.9 112C198.6 112 188.9 117 182.9 125.4L135.3 192L304 192L304 112L208.9 112zM336 192L504.7 192L457.1 125.4C451.1 117 441.4 112 431.1 112L336 112L336 192z"/></svg>