<svg xmlns="http://www.w3.org/2000/svg" viewBox="0 0 640 640"><!--! Font Awesome Pro 7.1.0 by @fontawesome - https://fontawesome.com License - https://fontawesome.com/license (Commercial License) Copyright 2025 Fonticons, Inc. --><path fill="currentColor" d="M512 224L128 224L128 480C128 497.7 142.3 512 160 512L480 512C497.7 512 512 497.7 512 480L512 224zM304 192L304 112L208.9 112C198.6 112 188.9 117 182.9 125.4L135.3 192L304 192zM504.7 192L457.1 125.4C451.1 117 441.4 112 431.1 112L336 112L336 192L504.7 192zM96 212.5C96 199.2 100.2 186.2 107.9 175.3L156.9 106.8C168.9 90 188.3 80 208.9 80L431 80C451.7 80 471.1 90 483.1 106.8L532 175.3C539.8 186.2 543.9 199.2 543.9 212.5L544 480C544 515.3 515.3 544 480 544L160 544C124.7 544 96 515.3 96 480L96 212.5zM308.7 459.3L236.7 387.3C230.5 381.1 230.5 370.9 236.7 364.7C242.9 358.5 253.1 358.5 259.3 364.7L304 409.4L304 288C304 279.2 311.2 272 320 272C328.8 272 336 279.2 336 288L336 409.4L380.7 364.7C386.9 358.5 397.1 358.5 403.3 364.7C409.5 370.9 409.5 381.1 403.3 387.3L331.3 459.3C325.1 465.5 314.9 465.5 308.7 459.3z"/></svg>