<svg xmlns="http://www.w3.org/2000/svg" viewBox="0 0 640 640"><!--! Font Awesome Pro 7.1.0 by @fontawesome - https://fontawesome.com License - https://fontawesome.com/license (Commercial License) Copyright 2025 Fonticons, Inc. --><path fill="currentColor" d="M512 224L128 224L128 480C128 497.7 142.3 512 160 512L480 512C497.7 512 512 497.7 512 480L512 224zM304 192L304 112L208.9 112C198.6 112 188.9 117 182.9 125.4L135.3 192L304 192zM504.7 192L457.1 125.4C451.1 117 441.4 112 431.1 112L336 112L336 192L504.7 192zM96 212.5C96 199.2 100.2 186.2 107.9 175.3L156.9 106.8C168.9 90 188.3 80 208.9 80L431 80C451.7 80 471.1 90 483.1 106.8L532 175.3C539.8 186.2 543.9 199.2 543.9 212.5L544 480C544 515.3 515.3 544 480 544L160 544C124.7 544 96 515.3 96 480L96 212.5zM320 264C328.8 264 336 271.2 336 280L336 288L352 288C360.8 288 368 295.2 368 304C368 312.8 360.8 320 352 320L302.3 320C294.4 320 288 326.4 288 334.3C288 341.3 293.1 347.3 300 348.4L345.3 356C367.6 359.7 384 379 384 401.7C384 427.3 363.3 448 337.7 448L336 448L336 456C336 464.8 328.8 472 320 472C311.2 472 304 464.8 304 456L304 448L280 448C271.2 448 264 440.8 264 432C264 423.2 271.2 416 280 416L337.7 416C345.6 416 352 409.6 352 401.7C352 394.7 346.9 388.7 340 387.6L294.7 380C272.4 376.3 256 357 256 334.3C256 308.7 276.7 288 302.3 288L304 288L304 280C304 271.2 311.2 264 320 264z"/></svg>