<svg xmlns="http://www.w3.org/2000/svg" viewBox="0 0 640 640"><!--! Font Awesome Pro 7.1.0 by @fontawesome - https://fontawesome.com License - https://fontawesome.com/license (Commercial License) Copyright 2025 Fonticons, Inc. --><path fill="currentColor" d="M160 128C142.3 128 128 142.3 128 160L128 480C128 497.7 142.3 512 160 512L480 512C497.7 512 512 497.7 512 480L512 160C512 142.3 497.7 128 480 128L160 128zM96 160C96 124.7 124.7 96 160 96L480 96C515.3 96 544 124.7 544 160L544 480C544 515.3 515.3 544 480 544L160 544C124.7 544 96 515.3 96 480L96 160zM208 416L432 416C440.8 416 448 423.2 448 432C448 440.8 440.8 448 432 448L208 448C199.2 448 192 440.8 192 432C192 423.2 199.2 416 208 416zM172.7 275.3C166.5 269.1 166.5 258.9 172.7 252.7L228.7 196.7C234.9 190.5 245.1 190.5 251.3 196.7L307.3 252.7C313.5 258.9 313.5 269.1 307.3 275.3C301.1 281.5 290.9 281.5 284.7 275.3L256 246.6L256 352C256 360.8 248.8 368 240 368C231.2 368 224 360.8 224 352L224 246.6L195.3 275.3C189.1 281.5 178.9 281.5 172.7 275.3zM332.7 252.7L388.7 196.7C394.9 190.5 405.1 190.5 411.3 196.7L467.3 252.7C473.5 258.9 473.5 269.1 467.3 275.3C461.1 281.5 450.9 281.5 444.7 275.3L416 246.6L416 352C416 360.8 408.8 368 400 368C391.2 368 384 360.8 384 352L384 246.6L355.3 275.3C349.1 281.5 338.9 281.5 332.7 275.3C326.5 269.1 326.5 258.9 332.7 252.7z"/></svg>