<svg xmlns="http://www.w3.org/2000/svg" viewBox="0 0 640 640"><!--! Font Awesome Pro 7.1.0 by @fontawesome - https://fontawesome.com License - https://fontawesome.com/license (Commercial License) Copyright 2025 Fonticons, Inc. --><path fill="currentColor" d="M352 192C352 139 309 96 256 96C214.8 96 179.7 121.9 166.1 158.3L138 142.3C157.4 96.3 202.9 64 256 64C294.9 64 329.7 81.3 353.2 108.7C358.4 83.2 381 64 408 64L456 64C486.9 64 512 89.1 512 120L512 136.6L480 154.9L480 120C480 106.7 469.3 96 456 96L408 96C394.7 96 384 106.7 384 120L384 192C384 198.3 383.5 204.4 382.7 210.5L342.7 233.4C348.7 220.9 352 206.9 352 192.1zM248.5 437L112 359L112 410.9C112 428.1 121.2 444 136.2 452.6L296.2 544C298.7 545.4 301.4 546.6 304 547.6L304 398L293.8 421.9C286.3 439.5 265.1 446.6 248.5 437.1zM336 547.6C338.7 546.6 341.3 545.5 343.8 544L503.8 452.6C518.8 444.1 528 428.1 528 410.9L528 219.6L335.9 329.3L335.9 547.6zM578.3 280.2L560 249.7L560 410.8C560 439.5 544.6 466 519.7 480.2L359.7 571.6C335.1 585.6 304.9 585.6 280.3 571.6L120.3 480.2C95.4 466.1 80 439.6 80 410.9L80 340.8L52.4 325C38.3 316.9 32.5 299.5 38.9 284.6L81.3 185.7C83.1 181.5 86.6 178.3 90.9 176.8C95.2 175.3 100 175.8 103.9 178.1L320 301.6L536.1 178.1C543.7 173.8 553.3 176.3 557.8 183.8L605.8 263.8C610.3 271.4 607.9 281.2 600.3 285.8C592.7 290.4 582.9 287.9 578.4 280.3zM299.7 326.8L103.7 214.8L68.4 297.2L264.4 409.2L299.7 326.8z"/></svg>