<svg xmlns="http://www.w3.org/2000/svg" viewBox="0 0 640 640"><!--! Font Awesome Pro 7.1.0 by @fontawesome - https://fontawesome.com License - https://fontawesome.com/license (Commercial License) Copyright 2025 Fonticons, Inc. --><path fill="currentColor" d="M512 224L128 224L128 480C128 497.7 142.3 512 160 512L480 512C497.7 512 512 497.7 512 480L512 224zM304 192L304 112L208.9 112C198.6 112 188.9 117 182.9 125.4L135.3 192L304 192zM504.7 192L457.1 125.4C451.1 117 441.4 112 431.1 112L336 112L336 192L504.7 192zM96 212.5C96 199.2 100.2 186.2 107.9 175.3L156.9 106.8C168.9 90 188.3 80 208.9 80L431 80C451.7 80 471.1 90 483.1 106.8L532 175.3C539.8 186.2 543.9 199.2 543.9 212.5L544 480C544 515.3 515.3 544 480 544L160 544C124.7 544 96 515.3 96 480L96 212.5zM340.4 314.2L331.3 323.3C328.3 326.3 324.2 328 320 328C315.8 328 311.7 326.3 308.7 323.3L299.6 314.2C293.1 307.7 284.2 304 274.9 304L272 304C254.3 304 240 318.3 240 336C240 357.4 254.5 378.5 274.6 397C291.4 412.5 310 424 320 429.7C330 424 348.5 412.5 365.4 397C385.5 378.5 400 357.3 400 336C400 318.3 385.7 304 368 304L365.1 304C355.8 304 347 307.7 340.4 314.2zM365.1 272L368 272C403.3 272 432 300.7 432 336C432 371.3 408.9 400.5 387 420.6C364.6 441.2 340.2 455.3 331.1 460.2C324.1 464 315.8 464 308.9 460.2C299.8 455.3 275.4 441.2 253 420.6C231.2 400.5 208 371.3 208 336C208 300.7 236.7 272 272 272L274.9 272C291.6 272 307.7 278.3 320 289.5C332.3 278.3 348.4 272 365.1 272z"/></svg>