<svg xmlns="http://www.w3.org/2000/svg" viewBox="0 0 640 640"><!--! Font Awesome Pro 7.1.0 by @fontawesome - https://fontawesome.com License - https://fontawesome.com/license (Commercial License) Copyright 2025 Fonticons, Inc. --><path fill="currentColor" d="M224.6 196.7C218.4 190.5 218.4 180.3 224.6 174.1L326.1 72.6C332.3 66.4 342.5 66.4 348.7 72.6L431.4 155.3C437.6 161.5 437.6 171.7 431.4 177.9L329.9 279.4C323.7 285.6 313.5 285.6 307.3 279.4L224.6 196.7zM202 219.3L270.6 287.9L176 287.9C167.2 287.9 160 295.1 160 303.9C160 312.7 167.2 319.9 176 319.9L464 319.9C472.8 319.9 480 312.7 480 303.9C480 295.1 472.8 287.9 464 287.9L366.6 287.9L454.1 200.4C472.8 181.7 472.8 151.3 454.1 132.5L371.4 49.9C352.7 31.2 322.3 31.2 303.5 49.9L201.9 151.5C183.2 170.2 183.2 200.6 201.9 219.4zM497.2 224L512 224C529.7 224 544 238.3 544 256L544 384L96 384L96 256C96 238.3 110.3 224 128 224L147.6 224C143.1 213.8 140.4 202.9 139.7 192L128 192C92.7 192 64 220.7 64 256L64 512C64 547.3 92.7 576 128 576L512 576C547.3 576 576 547.3 576 512L576 256C576 221 547.9 192.6 513.1 192C510 203.3 504.7 214.2 497.3 224zM544 416L544 512C544 529.7 529.7 544 512 544L128 544C110.3 544 96 529.7 96 512L96 416L544 416z"/></svg>