<svg xmlns="http://www.w3.org/2000/svg" viewBox="0 0 640 640"><!--! Font Awesome Pro 7.1.0 by @fontawesome - https://fontawesome.com License - https://fontawesome.com/license (Commercial License) Copyright 2025 Fonticons, Inc. --><path fill="currentColor" d="M431.1 80C451.8 80 471.2 90 483.2 106.8L532.1 175.3C539.8 186.1 544 199.2 544 212.5L544 480L543.7 486.5C540.6 516.6 516.7 540.6 486.6 543.6L480.1 543.9L160.1 543.9L153.6 543.6C123.5 540.5 99.5 516.6 96.5 486.5L96 480L96 212.5C96 200.8 99.2 189.4 105.2 179.5L107.9 175.3L156.8 106.8C167.3 92.1 183.5 82.6 201.2 80.5L208.9 80L431 80zM128 480C128 497.7 142.3 512 160 512L480 512C497.7 512 512 497.7 512 480L512 224L128 224L128 480zM311.2 274.6C317.4 270.5 325.9 271.2 331.3 276.7L403.3 348.7L405.4 351.2C409.5 357.4 408.8 365.9 403.3 371.3C397.8 376.7 389.4 377.5 383.2 373.4L380.7 371.3L336 326.6L336 448C336 456.8 328.8 464 320 464C311.2 464 304 456.8 304 448L304 326.6L259.3 371.3C253.1 377.5 242.9 377.5 236.7 371.3C230.5 365.1 230.5 354.9 236.7 348.7L308.7 276.7L311.2 274.6zM208.9 112C198.6 112 188.9 117 182.9 125.4L135.3 192L304 192L304 112L208.9 112zM336 192L504.7 192L457.1 125.4C451.8 118 443.8 113.3 434.9 112.2L431.1 112L336 112L336 192z"/></svg>