<svg xmlns="http://www.w3.org/2000/svg" viewBox="0 0 640 640"><!--! Font Awesome Pro 7.1.0 by @fontawesome - https://fontawesome.com License - https://fontawesome.com/license (Commercial License) Copyright 2025 Fonticons, Inc. --><path fill="currentColor" d="M296.6 544C299.1 545.4 301.8 546.6 304.4 547.6L304.4 329.3L113.2 220.1C112.6 223.1 112.3 226.1 112.3 229.2L112.3 410.9C112.3 428.1 121.5 444 136.5 452.6L296.5 544zM344.3 544L504.3 452.6C519.3 444 528.5 428.1 528.5 410.9L528.5 229.2C528.5 226.1 528.2 223.1 527.6 220.1L336.4 329.3L336.4 547.6C339.1 546.6 341.7 545.5 344.2 544zM432.5 237.6L511.5 192.5C509.3 190.6 506.9 189 504.3 187.5L344.3 96C329.5 87.6 311.4 87.6 296.6 96L240.6 128L432.4 237.6zM400.3 256L208.5 146.4L136.7 187.4C134.1 188.9 131.7 190.5 129.5 192.4L320.5 301.5L400.3 255.9zM360.1 571.7C335.5 585.8 305.3 585.7 280.7 571.7L120.7 480.3C95.8 466.1 80.4 439.6 80.4 410.9L80.4 229.2C80.4 200.5 95.8 174 120.7 159.8L280.7 68.4C305.3 54.3 335.5 54.3 360.1 68.4L520.1 159.8C545 174 560.4 200.5 560.4 229.2L560.4 410.9C560.4 439.6 545 466.1 520.1 480.3L360.1 571.7z"/></svg>