<svg xmlns="http://www.w3.org/2000/svg" viewBox="0 0 640 640"><!--! Font Awesome Pro 7.1.0 by @fontawesome - https://fontawesome.com License - https://fontawesome.com/license (Commercial License) Copyright 2025 Fonticons, Inc. --><path fill="currentColor" d="M440.5 320.1C506.8 320.1 560.5 373.8 560.5 440.1C560.5 467.5 551.3 492.6 535.9 512.8L603.8 580.8C610 587 610 597.2 603.8 603.4C598.3 608.9 589.9 609.5 583.7 605.4L581.2 603.4L513.3 535.4C493.1 550.8 467.9 560.1 440.5 560.1C374.2 560.1 320.5 506.4 320.5 440.1C320.5 373.8 374.2 320.1 440.5 320.1zM399.6 80C420.3 80 439.7 90 451.7 106.8L500.6 175.3C508.3 186.1 512.5 199.2 512.5 212.5L512.5 288.3C502.4 283.5 491.6 279.7 480.5 277L480.5 224.1L96.5 224.1L96.5 480.1C96.5 497.8 110.8 512.1 128.5 512.1L288.6 512.1C294 523.5 300.7 534.3 308.5 544.1L128.5 544.1L122 543.8C91.9 540.7 67.9 516.8 64.9 486.7L64.6 480.2L64.6 212.7C64.6 201 67.8 189.6 73.8 179.7L76.5 175.5L125.4 107C135.9 92.3 152.1 82.8 169.8 80.7L177.5 80.2L399.6 80.2zM440.5 352.1C391.9 352.1 352.5 391.5 352.5 440.1C352.5 488.7 391.9 528.1 440.5 528.1C489.1 528.1 528.5 488.7 528.5 440.1C528.5 391.5 489.1 352.1 440.5 352.1zM177.4 112C167.1 112 157.4 117 151.4 125.4L103.8 192L473.1 192L425.5 125.4C420.2 118 412.2 113.3 403.3 112.2L399.5 112L177.4 112z"/></svg>