<svg xmlns="http://www.w3.org/2000/svg" viewBox="0 0 640 640"><!--! Font Awesome Pro 7.1.0 by @fontawesome - https://fontawesome.com License - https://fontawesome.com/license (Commercial License) Copyright 2025 Fonticons, Inc. --><path fill="currentColor" d="M167 128L328.9 128L346.3 180.2C355 206.3 379.5 224 407 224L469.5 224L423.8 384L218.2 384L167 128zM328.9 96L167 96C146.8 96 131.7 114.5 135.7 134.3L186.9 390.3C189.9 405.3 203 416 218.3 416L423.9 416C438.2 416 450.7 406.5 454.7 392.8L500.4 232.8C506.2 212.4 490.9 192 469.6 192L407.1 192C393.3 192 381.1 183.2 376.7 170.1L359.3 117.9C354.9 104.8 342.7 96 328.9 96zM123.8 320L112 320C85.5 320 64 341.5 64 368L64 496C64 522.5 85.5 544 112 544L528 544C554.5 544 576 522.5 576 496L576 368C576 341.5 554.5 320 528 320L525.4 320L516.3 352L528.1 352C536.9 352 544.1 359.2 544.1 368L544.1 496C544.1 504.8 536.9 512 528.1 512L112 512C103.2 512 96 504.8 96 496L96 368C96 359.2 103.2 352 112 352L130.2 352L123.8 320z"/></svg>