<svg xmlns="http://www.w3.org/2000/svg" viewBox="0 0 640 640"><!--! Font Awesome Pro 7.1.0 by @fontawesome - https://fontawesome.com License - https://fontawesome.com/license (Commercial License) Copyright 2025 Fonticons, Inc. --><path fill="currentColor" d="M512 480C512 497.7 497.7 512 480 512L160 512C142.3 512 128 497.7 128 480L128 224L512 224L512 480zM135.3 192L182.9 125.4C188.9 117 198.6 112 208.9 112L304 112L304 192L135.3 192zM336 192L336 112L431.1 112C441.4 112 451.1 117 457.1 125.4L504.7 192L336 192zM107.9 175.3C100.2 186.2 96 199.2 96 212.5L96 480C96 515.3 124.7 544 160 544L480 544C515.3 544 544 515.3 544 480L544 212.5C544 199.2 539.8 186.2 532.1 175.3L483.1 106.8C471.1 90 451.7 80 431.1 80L208.9 80C188.3 80 168.9 90 156.9 106.8L107.9 175.3z"/></svg>