<svg xmlns="http://www.w3.org/2000/svg" viewBox="0 0 640 640"><!--! Font Awesome Pro 7.1.0 by @fontawesome - https://fontawesome.com License - https://fontawesome.com/license (Commercial License) Copyright 2025 Fonticons, Inc. --><path fill="currentColor" d="M448 96L512 96C529.7 96 544 110.3 544 128L544 512C544 529.7 529.7 544 512 544L427.4 544C424 555.6 418.7 566.3 412 576L512 576C547.3 576 576 547.3 576 512L576 128C576 92.7 547.3 64 512 64L256 64C220.7 64 192 92.7 192 128L192 208L224 208L224 128C224 110.3 238.3 96 256 96L320 96L320 168C320 181.3 330.7 192 344 192L424 192C437.3 192 448 181.3 448 168L448 96zM416 96L416 160L352 160L352 96L416 96zM96 384L352 384L352 512C352 529.7 337.7 544 320 544L128 544C110.3 544 96 529.7 96 512L96 384zM64 376L64 512C64 547.3 92.7 576 128 576L320 576C355.3 576 384 547.3 384 512L384 376C393.7 368.7 400 357.1 400 344L400 296C400 273.9 382.1 256 360 256L88 256C65.9 256 48 273.9 48 296L48 344C48 357.1 54.3 368.7 64 376zM88 352C83.6 352 80 348.4 80 344L80 296C80 291.6 83.6 288 88 288L360 288C364.4 288 368 291.6 368 296L368 344C368 348.4 364.4 352 360 352L88 352z"/></svg>