<svg xmlns="http://www.w3.org/2000/svg" viewBox="0 0 640 640"><!--! Font Awesome Pro 7.1.0 by @fontawesome - https://fontawesome.com License - https://fontawesome.com/license (Commercial License) Copyright 2025 Fonticons, Inc. --><path fill="currentColor" d="M400 96C417.7 96 432 110.3 432 128L432 240L464 240L464 128C464 92.7 435.3 64 400 64L240 64C204.7 64 176 92.7 176 128L176 240L208 240L208 128C208 110.3 222.3 96 240 96L256 96L256 152C256 174.1 273.9 192 296 192L344 192C366.1 192 384 174.1 384 152L384 96L400 96zM288 96L352 96L352 152C352 156.4 348.4 160 344 160L296 160C291.6 160 288 156.4 288 152L288 96zM379.9 576L512 576C547.3 576 576 547.3 576 512L576 352C576 316.7 547.3 288 512 288L379.9 288C386.6 297.7 391.9 308.4 395.3 320L463.9 320L463.9 376C463.9 380.4 460.3 384 455.9 384L399.9 384L399.9 416L455.9 416C478 416 495.9 398.1 495.9 376L495.9 320L511.9 320C529.6 320 543.9 334.3 543.9 352L543.9 512C543.9 529.7 529.6 544 511.9 544L395.3 544C391.9 555.6 386.6 566.3 379.9 576zM304 512.1L304 512L304 352L304 352L304 512L304 512.1zM288 320C305.7 320 320 334.3 320 352L320 512C320 529.7 305.7 544 288 544L128 544C110.3 544 96 529.7 96 512L96 352C96 334.3 110.3 320 128 320L144 320L144 376C144 398.1 161.9 416 184 416L232 416C254.1 416 272 398.1 272 376L272 320L288 320zM176 376L176 320L240 320L240 376C240 380.4 236.4 384 232 384L184 384C179.6 384 176 380.4 176 376zM288 288L128 288C92.7 288 64 316.7 64 352L64 512C64 547.3 92.7 576 128 576L288 576C323.3 576 352 547.3 352 512L352 352C352 316.7 323.3 288 288 288z"/></svg>