<svg xmlns="http://www.w3.org/2000/svg" viewBox="0 0 640 640"><!--! Font Awesome Pro 7.1.0 by @fontawesome - https://fontawesome.com License - https://fontawesome.com/license (Commercial License) Copyright 2025 Fonticons, Inc. --><path fill="currentColor" d="M159.6 115.6C161.6 107 156.2 98.4 147.6 96.4C139 94.4 130.4 99.8 128.4 108.4L82.8 306.2C61.1 331.4 48 364.2 48 400C48 479.5 112.5 544 192 544C241.9 544 285.9 518.6 311.8 480L328.3 480C354.1 518.6 398.1 544 448.1 544C527.6 544 592.1 479.5 592.1 400C592.1 364.2 579 331.4 557.3 306.2L511.6 108.4C509.6 99.8 501 94.4 492.4 96.4C483.8 98.4 478.4 107 480.4 115.6L523.5 302.6L487 317.2C430.2 339.9 381 378.5 345.4 428.3L331.3 448L308.4 448L294.3 428.3C258.7 378.5 209.6 339.9 152.7 317.2L116.2 302.6L159.3 115.6zM268.5 446.9L282.3 466.3C261.9 494.1 229 512 192 512C130.1 512 80 461.9 80 400C80 374.3 88.6 350.7 103.2 331.7L141.1 346.8C192.3 367.3 236.5 402 268.5 446.8zM371.6 446.9C403.6 402.1 447.8 367.4 499 346.9L536.9 331.8C551.5 350.7 560.1 374.4 560.1 400.1C560.1 462 510 512.1 448.1 512.1C411.1 512.1 378.2 494.1 357.8 466.4L371.6 447z"/></svg>