<svg xmlns="http://www.w3.org/2000/svg" viewBox="0 0 640 640"><!--! Font Awesome Pro 7.1.0 by @fontawesome - https://fontawesome.com License - https://fontawesome.com/license (Commercial License) Copyright 2025 Fonticons, Inc. --><path fill="currentColor" d="M215.6 126.1C175.5 147.8 96 217.4 96 320C96 422.6 175.5 492.2 215.6 513.9C223.4 518.1 226.3 527.8 222 535.6C217.7 543.4 208.1 546.3 200.3 542C155.2 517.6 64 439.3 64 320C64 200.7 155.2 122.4 200.4 97.9C208.2 93.7 217.9 96.6 222.1 104.3C226.3 112 223.4 121.8 215.7 126zM424.4 126.1C416.6 121.9 413.7 112.2 418 104.4C422.3 96.6 431.9 93.7 439.7 98C484.8 122.4 576 200.7 576 320C576 439.3 484.8 517.6 439.6 542.1C431.8 546.3 422.1 543.4 417.9 535.7C413.7 528 416.6 518.2 424.3 514C464.5 492.2 544 422.6 544 320C544 217.4 464.5 147.8 424.4 126.1z"/></svg>