<svg xmlns="http://www.w3.org/2000/svg" viewBox="0 0 640 640"><!--! Font Awesome Pro 7.1.0 by @fontawesome - https://fontawesome.com License - https://fontawesome.com/license (Commercial License) Copyright 2025 Fonticons, Inc. --><path fill="currentColor" d="M224 144C224 117.5 245.5 96 272 96L368 96C376.8 96 384 103.2 384 112C384 120.8 376.8 128 368 128L272 128C263.2 128 256 135.2 256 144L256 496C256 504.8 263.2 512 272 512L368 512C376.8 512 384 519.2 384 528C384 536.8 376.8 544 368 544L272 544C245.5 544 224 522.5 224 496L224 144z"/></svg>