<svg xmlns="http://www.w3.org/2000/svg" viewBox="0 0 640 640"><!--! Font Awesome Pro 7.1.0 by @fontawesome - https://fontawesome.com License - https://fontawesome.com/license (Commercial License) Copyright 2025 Fonticons, Inc. --><path fill="currentColor" d="M384 176C384 131.8 348.2 96 304 96L240 96C231.2 96 224 103.2 224 112C224 120.8 231.2 128 240 128L304 128C330.5 128 352 149.5 352 176L352 229.5C352 250.7 360.4 271.1 375.4 286.1L409.3 320L375.4 353.9C360.4 368.9 352 389.3 352 410.5L352 464C352 490.5 330.5 512 304 512L240 512C231.2 512 224 519.2 224 528C224 536.8 231.2 544 240 544L304 544C348.2 544 384 508.2 384 464L384 410.5C384 397.8 389.1 385.6 398.1 376.6L443.4 331.3C446.4 328.3 448.1 324.2 448.1 320C448.1 315.8 446.4 311.7 443.4 308.7L398.1 263.4C389.1 254.4 384 242.2 384 229.5L384 176z"/></svg>