<svg xmlns="http://www.w3.org/2000/svg" viewBox="0 0 640 640"><!--! Font Awesome Pro 7.1.0 by @fontawesome - https://fontawesome.com License - https://fontawesome.com/license (Commercial License) Copyright 2025 Fonticons, Inc. --><path fill="currentColor" d="M416 144C416 117.5 394.5 96 368 96L272 96C263.2 96 256 103.2 256 112C256 120.8 263.2 128 272 128L368 128C376.8 128 384 135.2 384 144L384 496C384 504.8 376.8 512 368 512L272 512C263.2 512 256 519.2 256 528C256 536.8 263.2 544 272 544L368 544C394.5 544 416 522.5 416 496L416 144z"/></svg>