<svg xmlns="http://www.w3.org/2000/svg" viewBox="0 0 640 640"><!--! Font Awesome Pro 7.1.0 by @fontawesome - https://fontawesome.com License - https://fontawesome.com/license (Commercial License) Copyright 2025 Fonticons, Inc. --><path fill="currentColor" d="M144 96C117.5 96 96 117.5 96 144L96 496C96 522.5 117.5 544 144 544L240 544C248.8 544 256 536.8 256 528C256 519.2 248.8 512 240 512L144 512C135.2 512 128 504.8 128 496L128 144C128 135.2 135.2 128 144 128L240 128C248.8 128 256 120.8 256 112C256 103.2 248.8 96 240 96L144 96zM496 96L400 96C391.2 96 384 103.2 384 112C384 120.8 391.2 128 400 128L496 128C504.8 128 512 135.2 512 144L512 496C512 504.8 504.8 512 496 512L400 512C391.2 512 384 519.2 384 528C384 536.8 391.2 544 400 544L496 544C522.5 544 544 522.5 544 496L544 144C544 117.5 522.5 96 496 96z"/></svg>