<svg xmlns="http://www.w3.org/2000/svg" viewBox="0 0 640 640"><!--! Font Awesome Pro 7.1.0 by @fontawesome - https://fontawesome.com License - https://fontawesome.com/license (Commercial License) Copyright 2025 Fonticons, Inc. --><path fill="currentColor" d="M256 176C256 131.8 291.8 96 336 96L400 96C408.8 96 416 103.2 416 112C416 120.8 408.8 128 400 128L336 128C309.5 128 288 149.5 288 176L288 229.5C288 250.7 279.6 271.1 264.6 286.1L230.6 320L264.6 353.9C279.6 368.9 288 389.3 288 410.5L288 464C288 490.5 309.5 512 336 512L400 512C408.8 512 416 519.2 416 528C416 536.8 408.8 544 400 544L336 544C291.8 544 256 508.2 256 464L256 410.5C256 397.8 250.9 385.6 241.9 376.6L196.7 331.3C193.7 328.3 192 324.2 192 320C192 315.8 193.7 311.7 196.7 308.7L242 263.4C251 254.4 256.1 242.2 256.1 229.5L256 176z"/></svg>