<svg xmlns="http://www.w3.org/2000/svg" viewBox="0 0 640 640"><!--! Font Awesome Pro 7.1.0 by @fontawesome - https://fontawesome.com License - https://fontawesome.com/license (Commercial License) Copyright 2025 Fonticons, Inc. --><path fill="currentColor" d="M176 96C131.8 96 96 131.8 96 176L96 229.5C96 242.2 90.9 254.4 81.9 263.4L36.7 308.7C33.7 311.7 32 315.8 32 320C32 324.2 33.7 328.3 36.7 331.3L82 376.6C91 385.6 96.1 397.8 96.1 410.5L96 464C96 508.2 131.8 544 176 544L240 544C248.8 544 256 536.8 256 528C256 519.2 248.8 512 240 512L176 512C149.5 512 128 490.5 128 464L128 410.5C128 389.3 119.6 368.9 104.6 353.9L70.6 320L104.6 286.1C119.6 271.1 128 250.7 128 229.5L128 176C128 149.5 149.5 128 176 128L240 128C248.8 128 256 120.8 256 112C256 103.2 248.8 96 240 96L176 96zM464 96L400 96C391.2 96 384 103.2 384 112C384 120.8 391.2 128 400 128L464 128C490.5 128 512 149.5 512 176L512 229.5C512 250.7 520.4 271.1 535.4 286.1L569.3 320L535.4 353.9C520.4 368.9 512 389.3 512 410.5L512 464C512 490.5 490.5 512 464 512L400 512C391.2 512 384 519.2 384 528C384 536.8 391.2 544 400 544L464 544C508.2 544 544 508.2 544 464L544 410.5C544 397.8 549.1 385.6 558.1 376.6L603.4 331.3C606.4 328.3 608.1 324.2 608.1 320C608.1 315.8 606.4 311.7 603.4 308.7L558.1 263.4C549.1 254.4 544 242.2 544 229.5L544 176C544 131.8 508.2 96 464 96z"/></svg>