<svg xmlns="http://www.w3.org/2000/svg" viewBox="0 0 640 640"><!--! Font Awesome Pro 7.1.0 by @fontawesome - https://fontawesome.com License - https://fontawesome.com/license (Commercial License) Copyright 2025 Fonticons, Inc. --><path fill="currentColor" d="M208 80C234.5 80 256 101.5 256 128C256 154.5 234.5 176 208 176C181.5 176 160 154.5 160 128C160 101.5 181.5 80 208 80zM208 208C252.2 208 288 172.2 288 128C288 83.8 252.2 48 208 48C163.8 48 128 83.8 128 128C128 172.2 163.8 208 208 208zM208 272C234.5 272 256 293.5 256 320C256 346.5 234.5 368 208 368C181.5 368 160 346.5 160 320C160 293.5 181.5 272 208 272zM208 400C252.2 400 288 364.2 288 320C288 275.8 252.2 240 208 240C163.8 240 128 275.8 128 320C128 364.2 163.8 400 208 400zM256 512C256 538.5 234.5 560 208 560C181.5 560 160 538.5 160 512C160 485.5 181.5 464 208 464C234.5 464 256 485.5 256 512zM288 512C288 467.8 252.2 432 208 432C163.8 432 128 467.8 128 512C128 556.2 163.8 592 208 592C252.2 592 288 556.2 288 512zM432 560C405.5 560 384 538.5 384 512C384 485.5 405.5 464 432 464C458.5 464 480 485.5 480 512C480 538.5 458.5 560 432 560zM432 592C476.2 592 512 556.2 512 512C512 467.8 476.2 432 432 432C387.8 432 352 467.8 352 512C352 556.2 387.8 592 432 592zM384 320C384 293.5 405.5 272 432 272C458.5 272 480 293.5 480 320C480 346.5 458.5 368 432 368C405.5 368 384 346.5 384 320zM512 320C512 275.8 476.2 240 432 240C387.8 240 352 275.8 352 320C352 364.2 387.8 400 432 400C476.2 400 512 364.2 512 320zM432 80C458.5 80 480 101.5 480 128C480 154.5 458.5 176 432 176C405.5 176 384 154.5 384 128C384 101.5 405.5 80 432 80zM432 208C476.2 208 512 172.2 512 128C512 83.8 476.2 48 432 48C387.8 48 352 83.8 352 128C352 172.2 387.8 208 432 208zM208 144C216.8 144 224 136.8 224 128C224 119.2 216.8 112 208 112C199.2 112 192 119.2 192 128C192 136.8 199.2 144 208 144zM224 320C224 311.2 216.8 304 208 304C199.2 304 192 311.2 192 320C192 328.8 199.2 336 208 336C216.8 336 224 328.8 224 320zM432 144C440.8 144 448 136.8 448 128C448 119.2 440.8 112 432 112C423.2 112 416 119.2 416 128C416 136.8 423.2 144 432 144z"/></svg>