<svg xmlns="http://www.w3.org/2000/svg" viewBox="0 0 640 640"><!--! Font Awesome Pro 7.1.0 by @fontawesome - https://fontawesome.com License - https://fontawesome.com/license (Commercial License) Copyright 2025 Fonticons, Inc. --><path fill="currentColor" d="M224.3 130.8C223.4 138 217.8 143.6 210.6 144.6C177.5 149.1 152 177.6 152 212C152 222.9 154.5 233.1 159 242.1C162.9 250 159.7 259.6 151.8 263.5C128.1 275.3 112 299.8 112 327.9C112 348.3 120.5 366.7 134.1 379.8C139.4 384.9 140.6 393.1 136.8 399.5C131.2 409 128 420.1 128 431.9C128 465.9 154.5 493.7 187.9 495.8C194.6 496.2 200.3 500.7 202.2 507.1C208.7 528.4 228.5 543.9 252 543.9C280.7 543.9 304 520.6 304 491.9L304 135.9L304 135.6C303.8 113.6 286 95.9 264 95.9C243.7 95.9 226.9 111.1 224.3 130.7zM320 541.3C304.7 562.3 280 576 252 576C217.9 576 188.6 555.7 175.4 526.6C130.3 518.7 96 479.4 96 432C96 418.6 98.8 405.8 103.8 394.2C89 376.2 80 353.2 80 328C80 292.6 97.7 261.3 124.7 242.5C121.6 232.9 120 222.6 120 212C120 165.4 151.9 126.2 195.1 115.1C204 85.5 231.5 64 264 64C286.6 64 306.8 74.4 320 90.7C333.2 74.4 353.4 64 376 64C408.5 64 436 85.5 444.9 115.1C488.1 126.2 520 165.3 520 212C520 222.6 518.3 232.9 515.3 242.5C542.3 261.3 560 292.5 560 328C560 353.1 551.1 376.2 536.2 394.2C541.2 405.8 544 418.6 544 432C544 479.4 509.7 518.7 464.6 526.6C451.4 555.7 422.1 576 388 576C360 576 335.3 562.3 320 541.3zM336 352.2L336 492C336 520.7 359.3 544 388 544C411.4 544 431.3 528.5 437.8 507.2C439.7 500.8 445.4 496.3 452.1 495.9C485.5 493.8 512 466 512 432C512 420.1 508.8 409.1 503.2 399.6C499.4 393.2 500.6 385.1 505.9 379.9C519.5 366.8 528 348.4 528 328C528 299.8 511.8 275.4 488.2 263.6C480.3 259.7 477.1 250.1 481 242.2C485.5 233.1 488 222.9 488 212.1C488 177.7 462.5 149.3 429.4 144.7C422.2 143.7 416.6 138.1 415.7 130.9C413.2 111.3 396.4 96.1 376 96.1C354 96.1 336.2 113.8 336 135.8C336 135.9 336 136 336 136.1L336 352.1L336 352.3z"/></svg>