<svg xmlns="http://www.w3.org/2000/svg" viewBox="0 0 640 640"><!--! Font Awesome Pro 7.1.0 by @fontawesome - https://fontawesome.com License - https://fontawesome.com/license (Commercial License) Copyright 2025 Fonticons, Inc. --><path fill="currentColor" d="M264 96C286 96 303.8 113.7 304 135.7L304 136L304 224L285.3 224C278.7 205.4 260.9 192 240 192C213.5 192 192 213.5 192 240C192 266.5 213.5 288 240 288C260.9 288 278.7 274.6 285.3 256L304 256L304 320L256 320C229.5 320 208 341.5 208 368L208 370.7C189.4 377.3 176 395.1 176 416C176 442.5 197.5 464 224 464C250.5 464 272 442.5 272 416C272 395.1 258.6 377.3 240 370.7L240 368C240 359.2 247.2 352 256 352L304 352L304 492C304 520.7 280.7 544 252 544C228.6 544 208.7 528.5 202.2 507.2C200.3 500.8 194.6 496.3 187.9 495.9C154.5 493.8 128 466 128 432C128 420.1 131.2 409.1 136.8 399.6C140.6 393.2 139.4 385.1 134.1 379.9C120.5 366.8 112 348.4 112 328C112 299.8 128.2 275.4 151.8 263.6C159.7 259.7 162.9 250.1 159 242.2C154.5 233.1 152 222.9 152 212.1C152 177.7 177.5 149.3 210.6 144.7C217.8 143.7 223.4 138.1 224.3 130.9C226.8 111.3 243.6 96.1 264 96.1zM336 256L354.7 256C361.3 274.6 379.1 288 400 288C426.5 288 448 266.5 448 240C448 213.5 426.5 192 400 192C379.1 192 361.3 205.4 354.7 224L336 224L336 135.7C336.2 113.7 354 96 376 96C396.3 96 413.1 111.2 415.7 130.8C416.6 138 422.2 143.6 429.4 144.6C462.5 149.2 488 177.6 488 212C488 222.9 485.5 233.1 481 242.1C477.1 250 480.3 259.6 488.2 263.5C511.9 275.3 528 299.8 528 327.9C528 348.3 519.5 366.7 505.9 379.8C500.6 384.9 499.4 393.1 503.2 399.5C508.8 409 512 420.1 512 431.9C512 465.9 485.5 493.7 452.1 495.8C445.4 496.2 439.7 500.7 437.8 507.1C431.3 528.4 411.5 543.9 388 543.9C359.3 543.9 336 520.6 336 491.9L336 463.9L384 463.9C410.5 463.9 432 442.4 432 415.9L432 413.2C450.6 406.6 464 388.8 464 367.9C464 341.4 442.5 319.9 416 319.9C389.5 319.9 368 341.4 368 367.9C368 388.8 381.4 406.6 400 413.2L400 415.9C400 424.7 392.8 431.9 384 431.9L336 431.9L336 255.9zM252 576C280 576 304.7 562.3 320 541.3C335.3 562.3 360 576 388 576C422.1 576 451.4 555.7 464.6 526.6C509.7 518.7 544 479.4 544 432C544 418.6 541.2 405.8 536.2 394.2C551 376.2 560 353.2 560 328C560 292.6 542.3 261.3 515.3 242.5C518.4 232.9 520 222.6 520 212C520 165.4 488.1 126.2 444.9 115.1C436 85.5 408.5 64 376 64C353.4 64 333.2 74.4 320 90.7C306.8 74.4 286.6 64 264 64C231.5 64 204 85.5 195.1 115.1C151.9 126.2 120 165.3 120 212C120 222.6 121.7 232.9 124.7 242.5C97.7 261.3 80 292.5 80 328C80 353.1 88.9 376.2 103.8 394.2C98.8 405.8 96 418.6 96 432C96 479.4 130.3 518.7 175.4 526.6C188.6 555.7 217.9 576 252 576zM400 256C391.2 256 384 248.8 384 240C384 231.2 391.2 224 400 224C408.8 224 416 231.2 416 240C416 248.8 408.8 256 400 256zM432 368C432 376.8 424.8 384 416 384C407.2 384 400 376.8 400 368C400 359.2 407.2 352 416 352C424.8 352 432 359.2 432 368zM240 416C240 424.8 232.8 432 224 432C215.2 432 208 424.8 208 416C208 407.2 215.2 400 224 400C232.8 400 240 407.2 240 416zM256 240C256 248.8 248.8 256 240 256C231.2 256 224 248.8 224 240C224 231.2 231.2 224 240 224C248.8 224 256 231.2 256 240z"/></svg>