<svg xmlns="http://www.w3.org/2000/svg" viewBox="0 0 640 640"><!--! Font Awesome Pro 7.1.0 by @fontawesome - https://fontawesome.com License - https://fontawesome.com/license (Commercial License) Copyright 2025 Fonticons, Inc. --><path fill="currentColor" d="M320 544C196.3 544 96 443.7 96 320C96 196.3 196.3 96 320 96C443.7 96 544 196.3 544 320C544 443.7 443.7 544 320 544zM320 128C214 128 128 214 128 320C128 426 214 512 320 512C426 512 512 426 512 320C512 214 426 128 320 128zM50.5 147.3C55.3 139.9 65.2 137.7 72.6 142.5C80 147.3 82.2 157.2 77.4 164.6C48.7 209.4 32 262.8 32 320C32 377.2 48.7 430.6 77.5 475.4C82.3 482.8 80.1 492.7 72.7 497.5C65.3 502.3 55.3 500.1 50.6 492.7C18.6 442.9 .1 383.6 .1 320C.1 256.4 18.5 197.1 50.5 147.3zM567.3 142.5C574.7 137.7 584.6 139.9 589.4 147.3C621.4 197.1 639.9 256.4 639.9 320C639.9 383.6 621.3 442.8 589.4 492.7C584.6 500.1 574.7 502.3 567.3 497.5C559.9 492.7 557.7 482.8 562.5 475.4C591.3 430.6 608 377.3 608 320C608 262.7 591.3 209.4 562.5 164.6C557.7 157.2 559.9 147.2 567.3 142.5zM320 448C306.7 448 296 437.3 296 424C296 410.7 306.7 400 320 400C333.3 400 344 410.7 344 424C344 437.3 333.3 448 320 448zM320 192C333.5 192 344.3 203.4 343.5 216.9L335.9 352.9C335.4 361.4 328.4 368 319.9 368C311.4 368 304.4 361.4 303.9 352.9L296.3 216.9C295.5 203.4 306.3 192 319.8 192z"/></svg>