<svg xmlns="http://www.w3.org/2000/svg" viewBox="0 0 640 640"><!--! Font Awesome Pro 7.1.0 by @fontawesome - https://fontawesome.com License - https://fontawesome.com/license (Commercial License) Copyright 2025 Fonticons, Inc. --><path fill="currentColor" d="M464 80C472.8 80 480 87.2 480 96L480 128L520 128C528.8 128 536 135.2 536 144C536 152.8 528.8 160 520 160L454.6 160C415.6 160 384 191.6 384 230.6C384 265.1 409 294.6 443 300.3L490.2 308.2C539.7 316.4 576 359.3 576 409.4C576 463.9 533.6 508.4 480 511.8L480 544C480 552.8 472.8 560 464 560C455.2 560 448 552.8 448 544L448 512L392 512C383.2 512 376 504.8 376 496C376 487.2 383.2 480 392 480L473.4 480C512.4 480 544 448.4 544 409.4C544 374.9 519 345.4 485 339.7L437.8 331.8C388.3 323.6 352 280.7 352 230.6C352 176.1 394.4 131.6 448 128.2L448 96C448 87.2 455.2 80 464 80zM64 112C64 103.2 71.2 96 80 96L176 96C255.5 96 320 160.5 320 240C320 300.9 282.1 353 228.7 374.1L271.4 523.6C273.8 532.1 268.9 541 260.4 543.4C251.9 545.8 243 540.9 240.6 532.4L197.7 382.4C190.6 383.5 183.3 384 175.9 384L95.9 384L95.9 528C95.9 536.8 88.7 544 79.9 544C71.1 544 64 536.8 64 528L64 112zM96 352L176 352C237.9 352 288 301.9 288 240C288 178.1 237.9 128 176 128L96 128L96 352z"/></svg>