<svg xmlns="http://www.w3.org/2000/svg" viewBox="0 0 640 640"><!--! Font Awesome Pro 7.1.0 by @fontawesome - https://fontawesome.com License - https://fontawesome.com/license (Commercial License) Copyright 2025 Fonticons, Inc. --><path fill="currentColor" d="M176 128L272 128C333.9 128 384 178.1 384 240L384 271C384 278.3 379 284.7 371.9 286.5L364.1 288.4C357 290.3 352 296.7 352 304L352 464C352 490.5 330.5 512 304 512L144 512C117.5 512 96 490.5 96 464L96 304C96 296.7 91 290.3 83.9 288.5L76.1 286.6C69 284.8 64 278.4 64 271L64 240C64 178.1 114.1 128 176 128zM144 544L496 544C540.2 544 576 508.2 576 464L576 320C593.9 319.6 608 304.6 607.3 286.7L605.1 234C601.9 156.9 538.4 96 461.2 96L176 96C96.5 96 32 160.5 32 240L32 271C32 291.5 45 309.5 64 316.3L64 464C64 508.2 99.8 544 144 544zM496 512L368 512C378 498.6 384 482 384 464L384 320L544 320L544 464C544 490.5 522.5 512 496 512zM560 288L412.9 288C414.9 282.7 416 277 416 271L416 240C416 194.8 395.1 154.4 362.5 128L461.2 128C521.2 128 570.6 175.3 573.1 235.3L575.3 288L560 288z"/></svg>