<svg xmlns="http://www.w3.org/2000/svg" viewBox="0 0 640 640"><!--! Font Awesome Pro 7.1.0 by @fontawesome - https://fontawesome.com License - https://fontawesome.com/license (Commercial License) Copyright 2025 Fonticons, Inc. --><path fill="currentColor" d="M160 320L160 496C160 504.8 167.2 512 176 512L464 512C472.8 512 480 504.8 480 496L480 320C480 302.3 494.3 288 512 288C529.7 288 544 273.7 544 256C544 216.9 521.7 185.4 480.3 162.1C438.3 138.5 380.1 125.6 320 125.6C259.9 125.6 201.7 138.5 159.7 162.1C118.3 185.4 96 216.9 96 256C96 273.7 110.3 288 128 288C145.7 288 160 302.3 160 320zM512 320L512 496C512 522.5 490.5 544 464 544L176 544C149.5 544 128 522.5 128 496L128 320C92.7 320 64 291.3 64 256C64 39.5 576 39.5 576 256C576 291.3 547.3 320 512 320zM257.9 340.7C251.7 346.9 251.7 357.1 257.9 363.3L308.6 414C314.8 420.2 325 420.2 331.2 414L381.9 363.3C388.1 357.1 388.1 346.9 381.9 340.7L331.2 290C325 283.8 314.8 283.8 308.6 290L257.9 340.7zM353.9 267.3L404.6 318C423.3 336.7 423.3 367.1 404.6 385.9L353.9 436.6C335.2 455.3 304.8 455.3 286 436.6L235.3 385.9C216.6 367.2 216.6 336.8 235.3 318L286 267.3C304.7 248.6 335.1 248.6 353.9 267.3z"/></svg>