<svg xmlns="http://www.w3.org/2000/svg" viewBox="0 0 640 640"><!--! Font Awesome Pro 7.1.0 by @fontawesome - https://fontawesome.com License - https://fontawesome.com/license (Commercial License) Copyright 2025 Fonticons, Inc. --><path fill="currentColor" d="M128 288C110.3 288 96 273.7 96 256C96 216.9 118.3 185.4 159.7 162.1C201.7 138.5 259.9 125.6 320 125.6C380.1 125.6 438.3 138.5 480.3 162.1C521.7 185.4 544 216.9 544 256C544 273.7 529.7 288 512 288C494.3 288 480 302.3 480 320L480 496C480 504.8 472.8 512 464 512L176 512C167.2 512 160 504.8 160 496L160 320C160 302.3 145.7 288 128 288zM512 352L512 320C547.3 320 576 291.3 576 256C576 39.5 64 39.5 64 256C64 291.3 92.7 320 128 320L128 496C128 522.5 149.5 544 176 544L464 544C490.5 544 512 522.5 512 496L512 352z"/></svg>