<svg xmlns="http://www.w3.org/2000/svg" viewBox="0 0 640 640"><!--! Font Awesome Pro 7.1.0 by @fontawesome - https://fontawesome.com License - https://fontawesome.com/license (Commercial License) Copyright 2025 Fonticons, Inc. --><path fill="currentColor" d="M80 96C71.2 96 64 103.2 64 112C64 120.8 71.2 128 80 128L112 128L112 192L80 192C71.2 192 64 199.2 64 208L64 320C64 327.3 69 333.7 76.1 335.5L79.5 336.4C108 343.5 128 369.1 128 398.5L128 512C128 529.7 142.3 544 160 544L224 544C241.7 544 256 529.7 256 512L256 416C256 380.7 284.7 352 320 352C355.3 352 384 380.7 384 416L384 512C384 529.7 398.3 544 416 544L480 544C497.7 544 512 529.7 512 512L512 398.5C512 369.1 532 343.5 560.5 336.4L563.9 335.5C571 333.7 576 327.3 576 320L576 208C576 199.2 568.8 192 560 192L528 192L528 128L560 128C568.8 128 576 120.8 576 112C576 103.2 568.8 96 560 96L80 96zM496 128L496 192L400 192L400 128L496 128zM368 128L368 192L272 192L272 128L368 128zM240 128L240 192L144 192L144 128L240 128zM96 307.9L96 224L544 224L544 307.9C506 321.3 480 357.4 480 398.4L480 511.9L416 511.9L416 415.9C416 362.9 373 319.9 320 319.9C267 319.9 224 362.9 224 415.9L224 511.9L160 511.9L160 398.4C160 357.4 134 321.3 96 307.9z"/></svg>