<svg xmlns="http://www.w3.org/2000/svg" viewBox="0 0 640 640"><!--! Font Awesome Pro 7.1.0 by @fontawesome - https://fontawesome.com License - https://fontawesome.com/license (Commercial License) Copyright 2025 Fonticons, Inc. --><path fill="currentColor" d="M48 96C39.2 96 32 103.2 32 112C32 120.8 39.2 128 48 128L80 128L80 192L48 192C39.2 192 32 199.2 32 208L32 320C32 327.3 37 333.7 44.1 335.5L47.5 336.4C76 343.5 96 369.1 96 398.5L96 512C96 529.7 110.3 544 128 544L192 544C209.7 544 224 529.7 224 512L224 416C224 380.7 252.7 352 288 352C294.3 352 300.4 352.9 306.2 354.6C312.7 345.3 319.9 336.6 327.9 328.6C315.8 323.1 302.3 320 288.1 320C235.1 320 192.1 363 192.1 416L192.1 512L128.1 512L128.1 398.5C128.1 357.5 102.1 321.4 64.1 308L64.1 224.1L512.1 224.1L512.1 278.1C523.2 281 533.9 284.8 544.1 289.5L544.1 208.1C544.1 199.3 536.9 192.1 528.1 192.1L496.1 192.1L496.1 128.1L528.1 128.1C536.9 128.1 544.1 120.9 544.1 112.1C544.1 103.3 536.9 96.1 528.1 96.1L48 96zM464 128L464 192L368 192L368 128L464 128zM336 128L336 192L240 192L240 128L336 128zM208 128L208 192L112 192L112 128L208 128zM464 352C525.9 352 576 402.1 576 464C576 525.9 525.9 576 464 576C402.1 576 352 525.9 352 464C352 402.1 402.1 352 464 352zM464 608C543.5 608 608 543.5 608 464C608 384.5 543.5 320 464 320C384.5 320 320 384.5 320 464C320 543.5 384.5 608 464 608zM521.4 403.1C514.3 397.9 504.2 399.5 499 406.6L446 479.5L419.2 452.7C413 446.5 402.8 446.5 396.6 452.7C390.4 458.9 390.4 469.1 396.6 475.3L436.6 515.3C439.9 518.6 444.5 520.3 449.2 519.9C453.9 519.5 458.1 517.1 460.9 513.4L524.9 425.4C530.1 418.3 528.5 408.2 521.4 403z"/></svg>