<svg xmlns="http://www.w3.org/2000/svg" viewBox="0 0 640 640"><!--! Font Awesome Pro 7.1.0 by @fontawesome - https://fontawesome.com License - https://fontawesome.com/license (Commercial License) Copyright 2025 Fonticons, Inc. --><path fill="currentColor" d="M112 160C103.2 160 96 167.2 96 176L96 208L544 208L544 176C544 167.2 536.8 160 528 160L112 160zM384 240L256 240L256 256C256 301 241.4 344.8 214.4 380.8L209.7 387C226.6 406.7 239.6 429.8 247.4 455.3C252.8 472.9 264.6 480 271.9 480L367.9 480C375.2 480 387 472.8 392.4 455.3C400.3 429.9 413.2 406.7 430.1 387L425.4 380.8C398.6 344.8 384 301 384 256L384 240zM453.3 364.3C472.5 348.3 494.8 336 519.3 328.5C536.9 323.1 544 311.3 544 304L544 240L416 240L416 256C416 294.1 428.4 331.1 451.2 361.6L453.3 364.3zM96 240L96 304C96 311.3 103.2 323.1 120.7 328.5C145.2 336.1 167.5 348.3 186.7 364.3L188.8 361.6C211.6 331.1 224 294.1 224 256L224 240L96 240zM64 176C64 149.5 85.5 128 112 128L528 128C554.5 128 576 149.5 576 176L576 304C576 330.5 554 351.3 528.7 359.1C478.4 374.7 438.7 414.4 423.1 464.7C415.3 490 394.5 512 368 512L272 512C245.5 512 224.7 490 216.9 464.7C201.3 414.4 161.6 374.7 111.3 359.1C86 351.3 64 330.5 64 304L64 176z"/></svg>