<svg xmlns="http://www.w3.org/2000/svg" viewBox="0 0 640 640"><!--! Font Awesome Pro 7.1.0 by @fontawesome - https://fontawesome.com License - https://fontawesome.com/license (Commercial License) Copyright 2025 Fonticons, Inc. --><path fill="currentColor" d="M272 96L368 96C376.8 96 384 103.2 384 112L384 160L256 160L256 112C256 103.2 263.2 96 272 96zM224 112L224 160L128 160C92.7 160 64 188.7 64 224L64 480C64 515.3 92.7 544 128 544L321.4 544C316.7 533.8 312.9 523.1 310 512L128 512C110.3 512 96 497.7 96 480L96 352L240 352L240 400C240 417.7 254.3 432 272 432L306.7 432C308.5 421 311.3 410.3 315 400L272.1 400L272.1 352L340.1 352C348.5 340.3 358.3 329.5 369.1 320L96.1 320L96.1 224C96.1 206.3 110.4 192 128.1 192L512.1 192C529.8 192 544.1 206.3 544.1 224L544.1 278C555.2 280.9 565.9 284.7 576.1 289.4L576.1 224C576.1 188.7 547.4 160 512.1 160L416.1 160L416.1 112C416.1 85.5 394.6 64 368.1 64L272 64C245.5 64 224 85.5 224 112zM496 352C557.9 352 608 402.1 608 464C608 525.9 557.9 576 496 576C434.1 576 384 525.9 384 464C384 402.1 434.1 352 496 352zM496 608C575.5 608 640 543.5 640 464C640 384.5 575.5 320 496 320C416.5 320 352 384.5 352 464C352 543.5 416.5 608 496 608zM496 384C487.2 384 480 391.2 480 400L480 464C480 472.8 487.2 480 496 480L544 480C552.8 480 560 472.8 560 464C560 455.2 552.8 448 544 448L512 448L512 400C512 391.2 504.8 384 496 384z"/></svg>