<svg xmlns="http://www.w3.org/2000/svg" viewBox="0 0 640 640"><!--! Font Awesome Pro 7.1.0 by @fontawesome - https://fontawesome.com License - https://fontawesome.com/license (Commercial License) Copyright 2025 Fonticons, Inc. --><path fill="currentColor" d="M256 112L256 160L384 160L384 112C384 103.2 376.8 96 368 96L272 96C263.2 96 256 103.2 256 112zM224 160L224 112C224 85.5 245.5 64 272 64L368 64C394.5 64 416 85.5 416 112L416 160L512 160C547.3 160 576 188.7 576 224L576 480C576 515.3 547.3 544 512 544L128 544C92.7 544 64 515.3 64 480L64 224C64 188.7 92.7 160 128 160L224 160zM400 192L128 192C110.3 192 96 206.3 96 224L96 320L544 320L544 224C544 206.3 529.7 192 512 192L400 192zM544 352L400 352L400 400C400 417.7 385.7 432 368 432L272 432C254.3 432 240 417.7 240 400L240 352L96 352L96 480C96 497.7 110.3 512 128 512L512 512C529.7 512 544 497.7 544 480L544 352zM272 352L272 400L368 400L368 352L272 352z"/></svg>