<svg xmlns="http://www.w3.org/2000/svg" viewBox="0 0 640 640"><!--! Font Awesome Pro 7.1.0 by @fontawesome - https://fontawesome.com License - https://fontawesome.com/license (Commercial License) Copyright 2025 Fonticons, Inc. --><path fill="currentColor" d="M304 168C304 176.8 311.2 184 320 184C328.8 184 336 176.8 336 168L336 80C336 71.2 328.8 64 320 64C311.2 64 304 71.2 304 80L304 168zM320 256C355.3 256 384 284.7 384 320C384 355.3 355.3 384 320 384C284.7 384 256 355.3 256 320C256 284.7 284.7 256 320 256zM320 416C373 416 416 373 416 320C416 267 373 224 320 224C267 224 224 267 224 320C224 373 267 416 320 416zM320 576C328.8 576 336 568.8 336 560L336 480C336 471.2 328.8 464 320 464C311.2 464 304 471.2 304 480L304 560C304 568.8 311.2 576 320 576zM64 320C64 328.8 71.2 336 80 336L160 336C168.8 336 176 328.8 176 320C176 311.2 168.8 304 160 304L80 304C71.2 304 64 311.2 64 320zM472 304C463.2 304 456 311.2 456 320C456 328.8 463.2 336 472 336L560 336C568.8 336 576 328.8 576 320C576 311.2 568.8 304 560 304L472 304zM139 501C145.2 507.2 155.4 507.2 161.6 501L218.2 444.4C224.4 438.2 224.4 428 218.2 421.8C212 415.6 201.8 415.6 195.6 421.8L139 478.4C132.8 484.6 132.8 494.8 139 501zM416.2 201.2C410 207.4 410 217.6 416.2 223.8C422.4 230 432.6 230 438.8 223.8L501 161.6C507.2 155.4 507.2 145.2 501 139C494.8 132.8 484.6 132.8 478.4 139L416.2 201.2zM139 139C132.8 145.2 132.8 155.4 139 161.6L195.6 218.2C201.8 224.4 212 224.4 218.2 218.2C224.4 212 224.4 201.8 218.2 195.6L161.6 139C155.4 132.8 145.2 132.8 139 139zM438.8 416.2C432.6 410 422.4 410 416.2 416.2C410 422.4 410 432.6 416.2 438.8L478.4 501C484.6 507.2 494.8 507.2 501 501C507.2 494.8 507.2 484.6 501 478.4L438.8 416.2z"/></svg>