<svg xmlns="http://www.w3.org/2000/svg" viewBox="0 0 640 640"><!--! Font Awesome Pro 7.1.0 by @fontawesome - https://fontawesome.com License - https://fontawesome.com/license (Commercial License) Copyright 2025 Fonticons, Inc. --><path fill="currentColor" d="M344 144C344 130.7 333.3 120 320 120C306.7 120 296 130.7 296 144C296 157.3 306.7 168 320 168C333.3 168 344 157.3 344 144zM320 256C355.3 256 384 284.7 384 320C384 355.3 355.3 384 320 384C284.7 384 256 355.3 256 320C256 284.7 284.7 256 320 256zM320 416C373 416 416 373 416 320C416 267 373 224 320 224C267 224 224 267 224 320C224 373 267 416 320 416zM320 520C333.3 520 344 509.3 344 496C344 482.7 333.3 472 320 472C306.7 472 296 482.7 296 496C296 509.3 306.7 520 320 520zM496 344C509.3 344 520 333.3 520 320C520 306.7 509.3 296 496 296C482.7 296 472 306.7 472 320C472 333.3 482.7 344 496 344zM120 320C120 333.3 130.7 344 144 344C157.3 344 168 333.3 168 320C168 306.7 157.3 296 144 296C130.7 296 120 306.7 120 320zM216 192C216 178.7 205.3 168 192 168C178.7 168 168 178.7 168 192C168 205.3 178.7 216 192 216C205.3 216 216 205.3 216 192zM472 448C472 434.7 461.3 424 448 424C434.7 424 424 434.7 424 448C424 461.3 434.7 472 448 472C461.3 472 472 461.3 472 448zM472 192C472 178.7 461.3 168 448 168C434.7 168 424 178.7 424 192C424 205.3 434.7 216 448 216C461.3 216 472 205.3 472 192zM168 448C168 461.3 178.7 472 192 472C205.3 472 216 461.3 216 448C216 434.7 205.3 424 192 424C178.7 424 168 434.7 168 448z"/></svg>