<svg xmlns="http://www.w3.org/2000/svg" viewBox="0 0 640 640"><!--! Font Awesome Pro 7.1.0 by @fontawesome - https://fontawesome.com License - https://fontawesome.com/license (Commercial License) Copyright 2025 Fonticons, Inc. --><path fill="currentColor" d="M192 64L96 64C78.3 64 64 78.3 64 96L64 192C64 209.7 78.3 224 96 224L112 224L112 256L96 256C60.7 256 32 227.3 32 192L32 96C32 60.7 60.7 32 96 32L192 32C227.3 32 256 60.7 256 96L256 112L224 112L224 96C224 78.3 209.7 64 192 64zM384 528L416 528L416 544C416 561.7 430.3 576 448 576L544 576C561.7 576 576 561.7 576 544L576 448C576 430.3 561.7 416 544 416L528 416L528 384L544 384C579.3 384 608 412.7 608 448L608 544C608 579.3 579.3 608 544 608L448 608C412.7 608 384 579.3 384 544L384 528zM334.6 192L192 334.6L192 416C192 418.9 192.4 421.6 193.1 424.3L424.3 193.1C421.7 192.4 418.9 192 416 192L334.6 192zM289.3 192L224 192C206.3 192 192 206.3 192 224L192 289.4L289.4 192zM328 160L416 160C451.3 160 480 188.7 480 224L480 416C480 451.3 451.3 480 416 480L224 480C188.7 480 160 451.3 160 416L160 224C160 188.7 188.7 160 224 160L328 160zM350.6 448L416 448C433.7 448 448 433.7 448 416L448 350.6L350.6 448zM448 305.4L448 224C448 221.1 447.6 218.4 446.9 215.7L215.7 446.9C218.3 447.6 221.1 448 224 448L305.4 448L448 305.4z"/></svg>