<svg xmlns="http://www.w3.org/2000/svg" viewBox="0 0 640 640"><!--! Font Awesome Pro 7.1.0 by @fontawesome - https://fontawesome.com License - https://fontawesome.com/license (Commercial License) Copyright 2025 Fonticons, Inc. --><path fill="currentColor" d="M603.3 91.3C609.5 85.1 609.5 74.9 603.3 68.7C597.1 62.5 586.9 62.5 580.7 68.7L372.7 276.7L327.4 231.4C322.6 226.6 316.2 224 309.5 224C297.1 224 286.5 233 284.5 245.2L275.4 299.9L265.6 298.5C219.3 291.9 172.6 307.5 139.6 340.5L129 351C107.9 372.1 96 400.8 96 430.7C96 432 96.1 433.2 96.4 434.4C98.1 442.2 105 448 113.3 448L128 448C113.6 462.4 83.3 492.8 38.6 537.4C34.4 541.6 32 547.4 32 553.4C32 565.9 42.1 576 54.6 576L226.5 576C265.9 576 303.7 560.4 331.5 532.5C364.6 499.4 380.1 452.8 373.5 406.5L372.1 396.7L426.8 387.6C439 385.6 448 375 448 362.6C448 355.9 445.3 349.4 440.6 344.7L395.3 299.4L603.3 91.4zM306.7 306.7L313.9 263.2L408.8 358.1L365.3 365.3L306.6 306.6zM261 330.2L285.7 333.7L338.3 386.3L341.8 411C347 447.3 334.8 483.9 308.8 509.9C287 531.7 257.3 544 226.4 544L77.2 544L150.6 470.6C159.8 461.4 162.5 447.7 157.5 435.7C152.7 424.2 141.7 416.5 129.3 416C132.2 400 140 385.2 151.6 373.6L162.1 363.1C188 337.2 224.7 325 261 330.1z"/></svg>