<svg xmlns="http://www.w3.org/2000/svg" viewBox="0 0 640 640"><!--! Font Awesome Pro 7.1.0 by @fontawesome - https://fontawesome.com License - https://fontawesome.com/license (Commercial License) Copyright 2025 Fonticons, Inc. --><path fill="currentColor" d="M256 128L256 192L160 192L160 160C160 142.3 174.3 128 192 128L256 128zM288 128L544 128C561.7 128 576 142.3 576 160L576 192L288 192L288 128zM576 224L576 384C576 401.7 561.7 416 544 416L192 416C174.3 416 160 401.7 160 384L160 224L576 224zM192 96C156.7 96 128 124.7 128 160L128 384C128 419.3 156.7 448 192 448L544 448C579.3 448 608 419.3 608 384L608 160C608 124.7 579.3 96 544 96L192 96zM48 224C39.2 224 32 231.2 32 240L32 480C32 515.3 60.7 544 96 544L496 544C504.8 544 512 536.8 512 528C512 519.2 504.8 512 496 512L96 512C78.3 512 64 497.7 64 480L64 240C64 231.2 56.8 224 48 224z"/></svg>