<svg xmlns="http://www.w3.org/2000/svg" viewBox="0 0 640 640"><!--! Font Awesome Pro 7.1.0 by @fontawesome - https://fontawesome.com License - https://fontawesome.com/license (Commercial License) Copyright 2025 Fonticons, Inc. --><path fill="currentColor" d="M384 416C366.3 416 352 430.3 352 448L352 512C352 529.7 337.7 544 320 544C302.3 544 288 529.7 288 512L288 448C288 430.3 273.7 416 256 416L208 416C181.5 416 160 394.5 160 368L160 352L480 352L480 368C480 394.5 458.5 416 432 416L384 416zM480 320L160 320L160 128C160 110.3 174.3 96 192 96L224 96L224 208C224 216.8 231.2 224 240 224C248.8 224 256 216.8 256 208L256 96L320 96L320 176C320 184.8 327.2 192 336 192C344.8 192 352 184.8 352 176L352 96L448 96C465.7 96 480 110.3 480 128L480 320zM208 448L256 448L256 512C256 547.3 284.7 576 320 576C355.3 576 384 547.3 384 512L384 448L432 448C476.2 448 512 412.2 512 368L512 128C512 92.7 483.3 64 448 64L192 64C156.7 64 128 92.7 128 128L128 368C128 412.2 163.8 448 208 448z"/></svg>