<svg xmlns="http://www.w3.org/2000/svg" viewBox="0 0 640 640"><!--! Font Awesome Pro 7.1.0 by @fontawesome - https://fontawesome.com License - https://fontawesome.com/license (Commercial License) Copyright 2025 Fonticons, Inc. --><path fill="currentColor" d="M320 64C390.7 64 448 121.3 448 192L448 256L528 256C536.8 256 544 263.2 544 272C544 280.8 536.8 288 528 288L508.8 288L484.3 532.8L483.6 537.3C479.5 558.1 462.2 573.8 441.1 575.8L436.5 576L203.4 576L198.8 575.8C177.7 573.8 160.4 558.1 156.3 537.3L155.6 532.8L131.1 288L111.9 288C103.1 288 95.9 280.8 95.9 272C95.9 263.2 103.1 256 111.9 256L191.9 256L191.9 192C192 121.3 249.3 64 320 64zM187.5 529.6L188.1 532.6C190.1 539.3 196.3 544 203.4 544L436.5 544C444.7 544 451.6 537.8 452.4 529.6L476.6 288L163.4 288L187.5 529.6zM320 96C267 96 224 139 224 192L224 256L416 256L416 192C416 139 373 96 320 96z"/></svg>