<svg xmlns="http://www.w3.org/2000/svg" viewBox="0 0 640 640"><!--! Font Awesome Pro 7.1.0 by @fontawesome - https://fontawesome.com License - https://fontawesome.com/license (Commercial License) Copyright 2025 Fonticons, Inc. --><path fill="currentColor" d="M352 96L96 96C78.3 96 64 110.3 64 128L64 512C64 529.7 78.3 544 96 544L160 544L160 464C160 437.5 181.5 416 208 416L240 416C266.5 416 288 437.5 288 464L288 544L339.6 544C342.1 555.2 346 565.9 351 576L96 576C60.7 576 32 547.3 32 512L32 128C32 92.7 60.7 64 96 64L352 64C387.3 64 416 92.7 416 128L416 136.6C406.3 142.2 398.2 150.3 392.6 160L384 160L384 128C384 110.3 369.7 96 352 96zM256 544L256 464C256 455.2 248.8 448 240 448L208 448C199.2 448 192 455.2 192 464L192 544L256 544zM272 176L288 176C296.8 176 304 183.2 304 192L304 208C304 216.8 296.8 224 288 224L272 224C263.2 224 256 216.8 256 208L256 192C256 183.2 263.2 176 272 176zM256 304C256 295.2 263.2 288 272 288L288 288C296.8 288 304 295.2 304 304L304 320C304 328.8 296.8 336 288 336L272 336C263.2 336 256 328.8 256 320L256 304zM160 176L176 176C184.8 176 192 183.2 192 192L192 208C192 216.8 184.8 224 176 224L160 224C151.2 224 144 216.8 144 208L144 192C144 183.2 151.2 176 160 176zM144 304C144 295.2 151.2 288 160 288L176 288C184.8 288 192 295.2 192 304L192 320C192 328.8 184.8 336 176 336L160 336C151.2 336 144 328.8 144 320L144 304zM635.3 292.7C638.3 295.7 640 299.8 640 304L640 320C640 344.6 630.8 367 615.6 384L624 384C628.2 384 632.3 385.7 635.3 388.7C638.3 391.7 640 395.8 640 400L640 416C640 440.6 630.8 463 615.6 480L624 480C628.2 480 632.3 481.7 635.3 484.7C638.3 487.7 640 491.8 640 496L640 512C640 565 597 608 544 608L480 608C427 608 384 565 384 512L384 496C384 487.2 391.2 480 400 480L408.4 480C393.2 463 384 440.6 384 416L384 400C384 391.2 391.2 384 400 384L408.4 384C393.2 367 384 344.6 384 320L384 304C384 295.2 391.2 288 400 288L432 288C465.4 288 494.8 305 512 330.9C529.2 305 558.6 288 592 288L624 288C628.2 288 632.3 289.7 635.3 292.7zM528 384L528 384L544 384C579.3 384 608 355.3 608 320L592 320C556.7 320 528 348.7 528 384zM496 384C496 348.7 467.3 320 432 320L416 320C416 355.3 444.7 384 480 384L496 384zM512 416L503.6 416C506.7 419.4 509.5 423.1 512 426.9C514.6 423.1 517.4 419.4 520.4 416L512 416zM496 480C496 444.7 467.3 416 432 416L416 416C416 451.3 444.7 480 480 480L496 480zM512 512L503.6 512C506.7 515.4 509.5 519.1 512 522.9C514.6 519.1 517.4 515.4 520.4 512L512 512zM528 480L544 480C579.3 480 608 451.3 608 416L592 416C556.7 416 528 444.7 528 480zM528 576L544 576C579.3 576 608 547.3 608 512L592 512C556.7 512 528 540.7 528 576zM496 576C496 540.7 467.3 512 432 512L416 512C416 547.3 444.7 576 480 576L496 576zM512 128C520.8 128 528 135.2 528 144L528 256C528 264.8 520.8 272 512 272C503.2 272 496 264.8 496 256L496 144C496 135.2 503.2 128 512 128zM560 192C560 183.2 567.2 176 576 176C584.8 176 592 183.2 592 192L592 240C592 248.8 584.8 256 576 256C567.2 256 560 248.8 560 240L560 192zM432 240L432 192C432 183.2 439.2 176 448 176C456.8 176 464 183.2 464 192L464 240C464 248.8 456.8 256 448 256C439.2 256 432 248.8 432 240z"/></svg>