<svg xmlns="http://www.w3.org/2000/svg" viewBox="0 0 640 640"><!--! Font Awesome Pro 7.1.0 by @fontawesome - https://fontawesome.com License - https://fontawesome.com/license (Commercial License) Copyright 2025 Fonticons, Inc. --><path fill="currentColor" d="M192 96C174.3 96 160 110.3 160 128L160 512C160 529.7 174.3 544 192 544L256 544L256 464C256 437.5 277.5 416 304 416L336 416C362.5 416 384 437.5 384 464L384 544L448 544C465.7 544 480 529.7 480 512L480 128C480 110.3 465.7 96 448 96L192 96zM288 544L352 544L352 464C352 455.2 344.8 448 336 448L304 448C295.2 448 288 455.2 288 464L288 544zM256 576L192 576C156.7 576 128 547.3 128 512L128 128C128 92.7 156.7 64 192 64L448 64C483.3 64 512 92.7 512 128L512 512C512 547.3 483.3 576 448 576L256 576zM352 192C352 183.2 359.2 176 368 176L384 176C392.8 176 400 183.2 400 192L400 208C400 216.8 392.8 224 384 224L368 224C359.2 224 352 216.8 352 208L352 192zM368 288L384 288C392.8 288 400 295.2 400 304L400 320C400 328.8 392.8 336 384 336L368 336C359.2 336 352 328.8 352 320L352 304C352 295.2 359.2 288 368 288zM240 192C240 183.2 247.2 176 256 176L272 176C280.8 176 288 183.2 288 192L288 208C288 216.8 280.8 224 272 224L256 224C247.2 224 240 216.8 240 208L240 192zM256 288L272 288C280.8 288 288 295.2 288 304L288 320C288 328.8 280.8 336 272 336L256 336C247.2 336 240 328.8 240 320L240 304C240 295.2 247.2 288 256 288z"/></svg>