<svg xmlns="http://www.w3.org/2000/svg" viewBox="0 0 640 640"><!--! Font Awesome Pro 7.1.0 by @fontawesome - https://fontawesome.com License - https://fontawesome.com/license (Commercial License) Copyright 2025 Fonticons, Inc. --><path fill="currentColor" d="M256 128C256 92.7 284.7 64 320 64L512 64C547.3 64 576 92.7 576 128L576 512C576 547.3 547.3 576 512 576L128 576C92.7 576 64 547.3 64 512L64 256C64 220.7 92.7 192 128 192L256 192L256 128zM256 224L128 224C110.3 224 96 238.3 96 256L96 512C96 529.7 110.3 544 128 544L264.6 544C259.2 534.6 256 523.7 256 512L256 224zM320 544L512 544C529.7 544 544 529.7 544 512L544 128C544 110.3 529.7 96 512 96L320 96C302.3 96 288 110.3 288 128L288 512C288 529.7 302.3 544 320 544zM440 168C440 159.2 447.2 152 456 152L472 152C480.8 152 488 159.2 488 168L488 184C488 192.8 480.8 200 472 200L456 200C447.2 200 440 192.8 440 184L440 168zM360 152L376 152C384.8 152 392 159.2 392 168L392 184C392 192.8 384.8 200 376 200L360 200C351.2 200 344 192.8 344 184L344 168C344 159.2 351.2 152 360 152zM440 264C440 255.2 447.2 248 456 248L472 248C480.8 248 488 255.2 488 264L488 280C488 288.8 480.8 296 472 296L456 296C447.2 296 440 288.8 440 280L440 264zM360 248L376 248C384.8 248 392 255.2 392 264L392 280C392 288.8 384.8 296 376 296L360 296C351.2 296 344 288.8 344 280L344 264C344 255.2 351.2 248 360 248zM152 296C152 287.2 159.2 280 168 280L184 280C192.8 280 200 287.2 200 296L200 312C200 320.8 192.8 328 184 328L168 328C159.2 328 152 320.8 152 312L152 296zM360 344L376 344C384.8 344 392 351.2 392 360L392 376C392 384.8 384.8 392 376 392L360 392C351.2 392 344 384.8 344 376L344 360C344 351.2 351.2 344 360 344zM152 392C152 383.2 159.2 376 168 376L184 376C192.8 376 200 383.2 200 392L200 408C200 416.8 192.8 424 184 424L168 424C159.2 424 152 416.8 152 408L152 392zM456 344L472 344C480.8 344 488 351.2 488 360L488 376C488 384.8 480.8 392 472 392L456 392C447.2 392 440 384.8 440 376L440 360C440 351.2 447.2 344 456 344z"/></svg>