<svg xmlns="http://www.w3.org/2000/svg" viewBox="0 0 640 640"><!--! Font Awesome Pro 7.1.0 by @fontawesome - https://fontawesome.com License - https://fontawesome.com/license (Commercial License) Copyright 2025 Fonticons, Inc. --><path fill="currentColor" d="M64 96C46.3 96 32 110.3 32 128L32 512C32 529.7 46.3 544 64 544L128 544L128 464C128 437.5 149.5 416 176 416L208 416C234.5 416 256 437.5 256 464L256 544L320 544C337.7 544 352 529.7 352 512L352 128C352 110.3 337.7 96 320 96L64 96zM160 544L224 544L224 464C224 455.2 216.8 448 208 448L176 448C167.2 448 160 455.2 160 464L160 544zM128 576L64 576C28.7 576 0 547.3 0 512L0 128C0 92.7 28.7 64 64 64L320 64C355.3 64 384 92.7 384 128L384 512C384 547.3 355.3 576 320 576L128 576zM224 192C224 183.2 231.2 176 240 176L256 176C264.8 176 272 183.2 272 192L272 208C272 216.8 264.8 224 256 224L240 224C231.2 224 224 216.8 224 208L224 192zM240 288L256 288C264.8 288 272 295.2 272 304L272 320C272 328.8 264.8 336 256 336L240 336C231.2 336 224 328.8 224 320L224 304C224 295.2 231.2 288 240 288zM112 192C112 183.2 119.2 176 128 176L144 176C152.8 176 160 183.2 160 192L160 208C160 216.8 152.8 224 144 224L128 224C119.2 224 112 216.8 112 208L112 192zM128 288L144 288C152.8 288 160 295.2 160 304L160 320C160 328.8 152.8 336 144 336L128 336C119.2 336 112 328.8 112 320L112 304C112 295.2 119.2 288 128 288zM448 64C456.8 64 464 71.2 464 80L464 96L608 96C625.7 96 640 110.3 640 128L640 256C640 273.7 625.7 288 608 288L464 288L464 560C464 568.8 456.8 576 448 576C439.2 576 432 568.8 432 560L432 80C432 71.2 439.2 64 448 64zM464 256L608 256L608 128L464 128L464 256z"/></svg>