<svg xmlns="http://www.w3.org/2000/svg" viewBox="0 0 640 640"><!--! Font Awesome Pro 7.1.0 by @fontawesome - https://fontawesome.com License - https://fontawesome.com/license (Commercial License) Copyright 2025 Fonticons, Inc. --><path fill="currentColor" d="M416 96L160 96C142.3 96 128 110.3 128 128L128 512C128 529.7 142.3 544 160 544L224 544L224 480C224 444.7 252.7 416 288 416C299 416 309.3 418.8 318.3 423.6C311.6 431.9 306.9 441.9 304.9 452.8C300 449.7 294.2 447.9 287.9 447.9C270.2 447.9 255.9 462.2 255.9 479.9L255.9 543.9L303.9 543.9L303.9 575.9L159.9 575.9C124.6 575.9 95.9 547.2 95.9 511.9L96 128C96 92.7 124.7 64 160 64L416 64C451.3 64 480 92.7 480 128L480 400L448 400L448 128C448 110.3 433.7 96 416 96zM336 176L352 176C360.8 176 368 183.2 368 192L368 208C368 216.8 360.8 224 352 224L336 224C327.2 224 320 216.8 320 208L320 192C320 183.2 327.2 176 336 176zM320 304C320 295.2 327.2 288 336 288L352 288C360.8 288 368 295.2 368 304L368 320C368 328.8 360.8 336 352 336L336 336C327.2 336 320 328.8 320 320L320 304zM224 176L240 176C248.8 176 256 183.2 256 192L256 208C256 216.8 248.8 224 240 224L224 224C215.2 224 208 216.8 208 208L208 192C208 183.2 215.2 176 224 176zM208 304C208 295.2 215.2 288 224 288L240 288C248.8 288 256 295.2 256 304L256 320C256 328.8 248.8 336 240 336L224 336C215.2 336 208 328.8 208 320L208 304zM492.3 448.4C499.5 446.7 507 450.2 510.3 456.8L544 524.2L544 464C544 455.2 551.2 448 560 448C568.8 448 576 455.2 576 464L576 592C576 599.4 570.9 605.9 563.7 607.6C556.5 609.3 549 605.8 545.7 599.2L512 531.8L512 592C512 600.8 504.8 608 496 608C487.2 608 480 600.8 480 592L480 464C480 456.6 485.1 450.1 492.3 448.4zM384 464L384 560C384 568.8 391.2 576 400 576C408.8 576 416 568.8 416 560L416 464C416 455.2 423.2 448 432 448C440.8 448 448 455.2 448 464L448 560C448 586.5 426.5 608 400 608C373.5 608 352 586.5 352 560L352 464C352 455.2 359.2 448 368 448C376.8 448 384 455.2 384 464z"/></svg>