<svg xmlns="http://www.w3.org/2000/svg" viewBox="0 0 640 640"><!--! Font Awesome Pro 7.1.0 by @fontawesome - https://fontawesome.com License - https://fontawesome.com/license (Commercial License) Copyright 2025 Fonticons, Inc. --><path fill="currentColor" d="M160 96L416 96C433.7 96 448 110.3 448 128L448 400L480 400L480 128C480 92.7 451.3 64 416 64L160 64C124.7 64 96 92.7 96 128L96 512C96 547.3 124.7 576 160 576L208 576L208 544L160 544C142.3 544 128 529.7 128 512L128 128C128 110.3 142.3 96 160 96zM320 192L320 208C320 216.8 327.2 224 336 224L352 224C360.8 224 368 216.8 368 208L368 192C368 183.2 360.8 176 352 176L336 176C327.2 176 320 183.2 320 192zM336 288C327.2 288 320 295.2 320 304L320 320C320 328.8 327.2 336 336 336L352 336C360.8 336 368 328.8 368 320L368 304C368 295.2 360.8 288 352 288L336 288zM208 192L208 208C208 216.8 215.2 224 224 224L240 224C248.8 224 256 216.8 256 208L256 192C256 183.2 248.8 176 240 176L224 176C215.2 176 208 183.2 208 192zM224 288C215.2 288 208 295.2 208 304L208 320C208 328.8 215.2 336 224 336L240 336C248.8 336 256 328.8 256 320L256 304C256 295.2 248.8 288 240 288L224 288zM552 448C529.9 448 512 465.9 512 488L512 568C512 590.1 529.9 608 552 608L568 608C590.1 608 608 590.1 608 568L608 488C608 465.9 590.1 448 568 448L552 448zM544 488C544 483.6 547.6 480 552 480L568 480C572.4 480 576 483.6 576 488L576 568C576 572.4 572.4 576 568 576L552 576C547.6 576 544 572.4 544 568L544 488zM384 488L384 568C384 590.1 401.9 608 424 608L440 608C462.1 608 480 590.1 480 568L480 544C480 535.2 472.8 528 464 528L448 528C439.2 528 432 535.2 432 544C432 552.8 439.2 560 448 560L448 568C448 572.4 444.4 576 440 576L424 576C419.6 576 416 572.4 416 568L416 488C416 483.6 419.6 480 424 480L440 480C444.4 480 448 483.6 448 488C448 496.8 455.2 504 464 504C472.8 504 480 496.8 480 488C480 465.9 462.1 448 440 448L424 448C401.9 448 384 465.9 384 488zM286.3 456.8C283 450.2 275.5 446.7 268.3 448.4C261.1 450.1 256 456.6 256 464L256 592C256 600.8 263.2 608 272 608C280.8 608 288 600.8 288 592L288 531.8L321.7 599.2C325 605.8 332.5 609.3 339.7 607.6C346.9 605.9 352 599.4 352 592L352 464C352 455.2 344.8 448 336 448C327.2 448 320 455.2 320 464L320 524.2L286.3 456.8z"/></svg>