<svg xmlns="http://www.w3.org/2000/svg" viewBox="0 0 640 640"><!--! Font Awesome Pro 7.1.0 by @fontawesome - https://fontawesome.com License - https://fontawesome.com/license (Commercial License) Copyright 2025 Fonticons, Inc. --><path fill="currentColor" d="M128 96L384 96C401.7 96 416 110.3 416 128L416 268.1C425.6 260.4 436.4 254 448 249.3L448 128C448 92.7 419.3 64 384 64L128 64C92.7 64 64 92.7 64 128L64 512C64 547.3 92.7 576 128 576L337.3 576C336.4 570.8 336 565.4 336 559.9L336 544L320 544L320 464C320 437.5 298.5 416 272 416L240 416C213.5 416 192 437.5 192 464L192 544L128 544C110.3 544 96 529.7 96 512L96 128C96 110.3 110.3 96 128 96zM224 544L224 464C224 455.2 231.2 448 240 448L272 448C280.8 448 288 455.2 288 464L288 544L224 544zM288 192L288 208C288 216.8 295.2 224 304 224L320 224C328.8 224 336 216.8 336 208L336 192C336 183.2 328.8 176 320 176L304 176C295.2 176 288 183.2 288 192zM304 288C295.2 288 288 295.2 288 304L288 320C288 328.8 295.2 336 304 336L320 336C328.8 336 336 328.8 336 320L336 304C336 295.2 328.8 288 320 288L304 288zM176 192L176 208C176 216.8 183.2 224 192 224L208 224C216.8 224 224 216.8 224 208L224 192C224 183.2 216.8 176 208 176L192 176C183.2 176 176 183.2 176 192zM192 288C183.2 288 176 295.2 176 304L176 320C176 328.8 183.2 336 192 336L208 336C216.8 336 224 328.8 224 320L224 304C224 295.2 216.8 288 208 288L192 288zM416 416.1L416 418.7C397.4 425.3 384 443.1 384 464L384 560C384 586.5 405.5 608 432 608L560 608C586.5 608 608 586.5 608 560L608 464C608 443.1 594.6 425.3 576 418.7L576 368.1C576 323.9 540.2 288.1 496 288.1C451.8 288.1 416 323.9 416 368.1L416 416.1zM416 464C416 455.8 422.2 449 430.3 448.1L561.8 448.1C569.8 449 576.1 455.8 576.1 464L576.1 560C576.1 568.8 568.9 576 560.1 576L432.1 576C423.3 576 416.1 568.8 416.1 560L416.1 464zM544 368.1L544 416L448 416L448 368.1C448 341.6 469.5 320.1 496 320.1C522.5 320.1 544 341.6 544 368.1z"/></svg>