<svg xmlns="http://www.w3.org/2000/svg" viewBox="0 0 640 640"><!--! Font Awesome Pro 7.1.0 by @fontawesome - https://fontawesome.com License - https://fontawesome.com/license (Commercial License) Copyright 2025 Fonticons, Inc. --><path fill="currentColor" d="M384 96L128 96C110.3 96 96 110.3 96 128L96 512C96 529.7 110.3 544 128 544L192 544L192 464C192 437.5 213.5 416 240 416L272 416C274 416 276 416.1 278 416.4C275.4 426.6 273.6 437.2 272.7 448C272.5 448 272.3 448 272 448L240 448C231.2 448 224 455.2 224 464L224 544L289.4 544C294.6 555.3 300.8 566 308 576L128 576C92.7 576 64 547.3 64 512L64 128C64 92.7 92.7 64 128 64L384 64C419.3 64 448 92.7 448 128L448 272.7C437 273.6 426.4 275.4 416 278.1L416 128.1C416 110.4 401.7 96.1 384 96.1zM336 320.9C330.7 325.6 325.7 330.7 320.9 336C320.6 336 320.3 336 320 336L304 336C295.2 336 288 328.8 288 320L288 304C288 295.2 295.2 288 304 288L320 288C328.8 288 336 295.2 336 304L336 320C336 320.3 336 320.6 336 320.9zM304 176L320 176C328.8 176 336 183.2 336 192L336 208C336 216.8 328.8 224 320 224L304 224C295.2 224 288 216.8 288 208L288 192C288 183.2 295.2 176 304 176zM192 176L208 176C216.8 176 224 183.2 224 192L224 208C224 216.8 216.8 224 208 224L192 224C183.2 224 176 216.8 176 208L176 192C176 183.2 183.2 176 192 176zM176 304C176 295.2 183.2 288 192 288L208 288C216.8 288 224 295.2 224 304L224 320C224 328.8 216.8 336 208 336L192 336C183.2 336 176 328.8 176 320L176 304zM576 464C576 402.1 525.9 352 464 352C402.1 352 352 402.1 352 464C352 525.9 402.1 576 464 576C525.9 576 576 525.9 576 464zM320 464C320 384.5 384.5 320 464 320C543.5 320 608 384.5 608 464C608 543.5 543.5 608 464 608C384.5 608 320 543.5 320 464zM464 508C475 508 484 517 484 528C484 539 475 548 464 548C453 548 444 539 444 528C444 517 453 508 464 508zM464 384C472.8 384 480 391.2 480 400L480 464C480 472.8 472.8 480 464 480C455.2 480 448 472.8 448 464L448 400C448 391.2 455.2 384 464 384z"/></svg>