<svg xmlns="http://www.w3.org/2000/svg" viewBox="0 0 640 640"><!--! Font Awesome Pro 7.1.0 by @fontawesome - https://fontawesome.com License - https://fontawesome.com/license (Commercial License) Copyright 2025 Fonticons, Inc. --><path fill="currentColor" d="M352 96L96 96C78.3 96 64 110.3 64 128L64 512C64 529.7 78.3 544 96 544L160 544L160 480C160 444.7 188.7 416 224 416C259.3 416 288 444.7 288 480L288 544L304 544L304 560C304 565.5 304.5 570.8 305.3 576L96 576C60.7 576 32 547.3 32 512L32 128C32 92.7 60.7 64 96 64L352 64C387.3 64 416 92.7 416 128L416 144L400 144C394.5 144 389.2 144.5 384 145.3L384 128C384 110.3 369.7 96 352 96zM304 304L304 320C304 328.8 296.8 336 288 336L272 336C263.2 336 256 328.8 256 320L256 304C256 295.2 263.2 288 272 288L288 288C296.8 288 304 295.2 304 304zM224 448C206.3 448 192 462.3 192 480L192 544L256 544L256 480C256 462.3 241.7 448 224 448zM272 176L288 176C296.8 176 304 183.2 304 192L304 208C304 216.8 296.8 224 288 224L272 224C263.2 224 256 216.8 256 208L256 192C256 183.2 263.2 176 272 176zM160 176L176 176C184.8 176 192 183.2 192 192L192 208C192 216.8 184.8 224 176 224L160 224C151.2 224 144 216.8 144 208L144 192C144 183.2 151.2 176 160 176zM144 304C144 295.2 151.2 288 160 288L176 288C184.8 288 192 295.2 192 304L192 320C192 328.8 184.8 336 176 336L160 336C151.2 336 144 328.8 144 320L144 304zM576 224L416 224C398.3 224 384 238.3 384 256L384 544C384 561.7 398.3 576 416 576L576 576C593.7 576 608 561.7 608 544L608 256C608 238.3 593.7 224 576 224zM416 192L576 192C611.3 192 640 220.7 640 256L640 544C640 579.3 611.3 608 576 608L416 608C380.7 608 352 579.3 352 544L352 256C352 220.7 380.7 192 416 192zM448 288L544 288C552.8 288 560 295.2 560 304C560 312.8 552.8 320 544 320L448 320C439.2 320 432 312.8 432 304C432 295.2 439.2 288 448 288zM432 400C432 391.2 439.2 384 448 384L544 384C552.8 384 560 391.2 560 400C560 408.8 552.8 416 544 416L448 416C439.2 416 432 408.8 432 400zM448 480L512 480C520.8 480 528 487.2 528 496C528 504.8 520.8 512 512 512L448 512C439.2 512 432 504.8 432 496C432 487.2 439.2 480 448 480z"/></svg>