<svg xmlns="http://www.w3.org/2000/svg" viewBox="0 0 640 640"><!--! Font Awesome Pro 7.1.0 by @fontawesome - https://fontawesome.com License - https://fontawesome.com/license (Commercial License) Copyright 2025 Fonticons, Inc. --><path fill="currentColor" d="M384 96L128 96C110.3 96 96 110.3 96 128L96 512C96 529.7 110.3 544 128 544L192 544L192 464C192 437.5 213.5 416 240 416L272 416L272 420.4C272 429.7 272.5 438.9 273.6 448.1C273.1 448 272.5 448 272 448L240 448C231.2 448 224 455.2 224 464L224 544L306.3 544C313.1 555.3 320.8 566 329.3 576L128 576C92.7 576 64 547.3 64 512L64 128C64 92.7 92.7 64 128 64L384 64C419.3 64 448 92.7 448 128L448 273.6C444.9 274.2 441.8 275.1 438.7 276.1L416 283.7L416 128C416 110.3 401.7 96 384 96zM336 310.3L326.7 313.4C314.4 317.5 303.6 324.4 295 333.2C290.8 330.3 288 325.5 288 320L288 304C288 295.2 295.2 288 304 288L320 288C328.8 288 336 295.2 336 304L336 310.3zM304 176L320 176C328.8 176 336 183.2 336 192L336 208C336 216.8 328.8 224 320 224L304 224C295.2 224 288 216.8 288 208L288 192C288 183.2 295.2 176 304 176zM192 176L208 176C216.8 176 224 183.2 224 192L224 208C224 216.8 216.8 224 208 224L192 224C183.2 224 176 216.8 176 208L176 192C176 183.2 183.2 176 192 176zM176 304C176 295.2 183.2 288 192 288L208 288C216.8 288 224 295.2 224 304L224 320C224 328.8 216.8 336 208 336L192 336C183.2 336 176 328.8 176 320L176 304zM352 391.2L352 422.3C352 484.3 387.8 540.7 443.9 567.1L448 569L448 359.2L352 391.2zM464 576.1C464.3 576.1 464.6 576.1 464.8 576L463.1 576C463.4 576.1 463.7 576.1 463.9 576.1zM484.1 567C540.2 540.6 576 484.2 576 422.2L576 391.1L480 359.1L480 568.9L484.1 567zM448.7 604.7L430.2 596C363 564.3 320 496.6 320 422.2L320 391.1C320 377.3 328.8 365.1 341.9 360.7L453.9 323.4C460.5 321.2 467.6 321.2 474.1 323.4L586.1 360.7C599.2 365.1 608 377.3 608 391.1L608 422.2C608 496.6 565 564.3 497.8 595.9L479.3 604.6C474.5 606.8 469.3 608 464.1 608C458.9 608 453.6 606.8 448.9 604.6z"/></svg>