<svg xmlns="http://www.w3.org/2000/svg" viewBox="0 0 640 640"><!--! Font Awesome Pro 7.1.0 by @fontawesome - https://fontawesome.com License - https://fontawesome.com/license (Commercial License) Copyright 2025 Fonticons, Inc. --><path fill="currentColor" d="M257.7 131.4L320 256L352 256L352 176C352 167.2 359.2 160 368 160C376.8 160 384 167.2 384 176L384 256C419.3 256 448 284.7 448 320L448 368L544 368L544 272C544 227.8 579.8 192 624 192C632.8 192 640 199.2 640 208C640 216.8 632.8 224 624 224C597.5 224 576 245.5 576 272L576 496C576 522.5 597.5 544 624 544C632.8 544 640 551.2 640 560C640 568.8 632.8 576 624 576C579.8 576 544 540.2 544 496L544 400L459.9 400C472.6 418.1 480 440.2 480 464C480 525.9 429.9 576 368 576L144 576C82.1 576 32 525.9 32 464C32 433.5 44.2 405.8 64 385.6L64 160C64 124.7 92.7 96 128 96L200.4 96C224.6 96 246.8 109.7 257.6 131.4zM96 362.8C110.5 355.9 126.8 352 144 352L368 352C385.2 352 401.5 355.9 416 362.8L416 320C416 302.3 401.7 288 384 288L96 288L96 362.8zM229.1 145.7C223.6 134.8 212.6 128 200.4 128L128 128C110.3 128 96 142.3 96 160L96 256L284.2 256L229 145.7zM144 384C99.8 384 64 419.8 64 464C64 508.2 99.8 544 144 544L368 544C412.2 544 448 508.2 448 464C448 419.8 412.2 384 368 384L144 384zM344 464C344 450.7 354.7 440 368 440C381.3 440 392 450.7 392 464C392 477.3 381.3 488 368 488C354.7 488 344 477.3 344 464zM256 440C269.3 440 280 450.7 280 464C280 477.3 269.3 488 256 488C242.7 488 232 477.3 232 464C232 450.7 242.7 440 256 440zM120 464C120 450.7 130.7 440 144 440C157.3 440 168 450.7 168 464C168 477.3 157.3 488 144 488C130.7 488 120 477.3 120 464z"/></svg>