<svg xmlns="http://www.w3.org/2000/svg" viewBox="0 0 640 640"><!--! Font Awesome Pro 7.1.0 by @fontawesome - https://fontawesome.com License - https://fontawesome.com/license (Commercial License) Copyright 2025 Fonticons, Inc. --><path fill="currentColor" d="M484.3 88.9L442.3 130.9L448.6 168.7L496.9 120.4L484.3 88.9zM503.7 229.3L443.3 219.2L331.2 331.3C325 337.5 314.8 337.5 308.6 331.3C302.4 325.1 302.4 314.9 308.6 308.7L420.7 196.6L410.6 136.2C408.9 126 412.2 115.6 419.5 108.3L478.7 49.1C487 41 500.8 43.9 505 54.5L528 112L585.5 135C596.2 139.3 599 153 590.9 161.2L531.7 220.4C524.4 227.7 514 231 503.8 229.3zM519.5 143.1L471.2 191.4L509 197.7L551 155.7L519.5 143.1zM320 64C343.3 64 365.8 67.1 387.2 72.9L385.7 74.4C378 82.1 372 91.3 368 101.1C352.5 97.7 336.5 95.9 320 95.9C196.3 95.9 96 196.2 96 319.9C96 443.6 196.3 544 320 544C443.7 544 544 443.7 544 320C544 303.5 542.2 287.4 538.8 272C548.7 268 557.8 262.1 565.5 254.3L567 252.8C572.8 274.2 575.9 296.7 575.9 320C575.9 461.4 461.3 576 319.9 576C178.5 576 64 461.4 64 320C64 178.6 178.6 64 320 64zM320 160C336.4 160 352.3 162.5 367.2 167.1L369.4 180.2L353.2 196.4C342.6 193.6 331.5 192.1 320 192.1C249.3 192.1 192 249.4 192 320.1C192 390.8 249.3 448.1 320 448.1C390.7 448.1 448 390.8 448 320.1C448 308.6 446.5 297.5 443.7 286.9L459.9 270.7L473 272.9C477.6 287.8 480.1 303.7 480.1 320.1C480.1 408.5 408.5 480.1 320.1 480.1C231.7 480.1 160 408.4 160 320C160 231.6 231.7 160 320 160z"/></svg>