<svg xmlns="http://www.w3.org/2000/svg" viewBox="0 0 640 640"><!--! Font Awesome Pro 7.1.0 by @fontawesome - https://fontawesome.com License - https://fontawesome.com/license (Commercial License) Copyright 2025 Fonticons, Inc. --><path fill="currentColor" d="M320 544C443.7 544 544 443.7 544 320C544 196.3 443.7 96 320 96C196.3 96 96 196.3 96 320C96 325.9 96.2 331.8 96.7 337.6L91.8 339.2C81.9 342.6 73.3 348.1 66.4 355.1C64.8 343.6 64 331.9 64 320C64 178.6 178.6 64 320 64C461.4 64 576 178.6 576 320C576 461.4 461.4 576 320 576C308.1 576 296.4 575.2 284.9 573.6C291.9 566.7 297.4 558 300.7 548.2L302.3 543.3C308.1 543.8 314 544 319.9 544zM320 160C408.4 160 480 231.6 480 320C480 407.2 410.2 478.1 323.5 480L334.4 447.2C398.3 440 448 385.8 448 320C448 249.3 390.7 192 320 192C254.2 192 200 241.7 192.8 305.6L160 316.5C161.9 229.8 232.8 160 320 160zM315.3 324.7C319.6 329 321.1 335.3 319.2 341.1L255.2 533.1C253 539.6 246.9 544 240 544C233.1 544 227 539.6 224.8 533.1L201 461.6L107.3 555.3C101.1 561.5 90.9 561.5 84.7 555.3C78.5 549.1 78.5 538.9 84.7 532.7L178.4 439L107 415.2C100.4 413 96 406.9 96 400C96 393.1 100.4 387 106.9 384.8L298.9 320.8C304.6 318.9 311 320.4 315.3 324.7zM162.6 400L213.1 416.8C217.9 418.4 221.6 422.1 223.2 426.9L240 477.4L278.7 361.3L162.6 400z"/></svg>