<svg xmlns="http://www.w3.org/2000/svg" viewBox="0 0 640 640"><!--! Font Awesome Pro 7.1.0 by @fontawesome - https://fontawesome.com License - https://fontawesome.com/license (Commercial License) Copyright 2025 Fonticons, Inc. --><path fill="currentColor" d="M304 80C304 71.2 311.2 64 320 64C328.8 64 336 71.2 336 80L336 97.1C383 103.9 421.4 140 430.1 187.8L476.5 443.1C465.6 440.9 454.5 439.9 443.4 440L427.4 352L212.7 352L196.7 440C185.6 439.8 174.5 440.9 163.6 443.1L210 187.8C218.6 140 257 103.9 304 97.1L304 80zM320 128C281.4 128 248.3 155.6 241.4 193.6L218.4 320L421.5 320L398.5 193.6C391.6 155.6 358.5 128 319.9 128zM402 533.9C376.4 552.2 349.1 568 320 568C290.9 568 263.6 552.2 238 533.9C212 515.3 176.9 515.3 150.9 533.9C126.2 551.5 96.3 567.6 64 567.4C44.7 567.3 25.4 561.4 6.8 548.1C-.4 543-2.1 533 3.1 525.8C8.3 518.6 18.2 516.9 25.4 522.1C38.8 531.7 51.8 535.4 64.2 535.4C86.2 535.5 109.2 524.4 132.4 507.9C169.5 481.4 219.5 481.4 256.7 507.9C282 526 302 536 320.2 536C338.4 536 358.3 525.9 383.7 507.9C420.8 481.4 470.8 481.4 508 507.9C526.2 520.9 544.5 530.7 562.4 534.1C579.6 537.4 597 534.9 615 522.1C622.2 517 632.2 518.6 637.3 525.8C642.4 533 640.8 543 633.6 548.1C608 566.3 581.6 570.3 556.4 565.5C531.9 560.8 509.2 548 489.4 533.9C463.4 515.3 428.3 515.3 402.3 533.9z"/></svg>