<svg xmlns="http://www.w3.org/2000/svg" viewBox="0 0 640 640"><!--! Font Awesome Pro 7.1.0 by @fontawesome - https://fontawesome.com License - https://fontawesome.com/license (Commercial License) Copyright 2025 Fonticons, Inc. --><path fill="currentColor" d="M208 64C199.2 64 192 71.2 192 80C192 88.8 199.2 96 208 96L234.6 96L180.5 353C150.6 358.4 128 384.6 128 416L128 454.9C138.3 450 149.1 446.3 160 443.8L160 415.9C160 398.2 174.3 383.9 192 383.9L448 383.9C465.7 383.9 480 398.2 480 415.9L480 443.8C490.9 446.3 501.7 450 512 454.9L512 416C512 384.6 489.4 358.5 459.5 353L405.4 96L432 96C440.8 96 448 88.8 448 80C448 71.2 440.8 64 432 64L208 64zM372.7 96L382 140.4L320 212.8L258 140.4L267.3 96L372.7 96zM249.6 179.8L298.9 237.3L217.5 332.2L249.6 179.8zM320 261.9L397.2 352L242.8 352L320 261.9zM422.4 332.2L341 237.3L390.3 179.8L422.4 332.2zM402 533.9C428 515.3 463.1 515.3 489.1 533.9C508.8 548 531.5 560.8 556.1 565.5C581.3 570.3 607.8 566.4 633.3 548.1C640.5 543 642.2 533 637 525.8C631.8 518.6 621.9 516.9 614.7 522.1C596.7 534.9 579.3 537.4 562.1 534.1C544.2 530.7 525.9 520.9 507.7 507.9C470.6 481.4 420.6 481.4 383.4 507.9C358.1 526 338.1 536 319.9 536C301.7 536 281.8 525.9 256.4 507.9C219.3 481.4 169.3 481.4 132.1 507.9C108.9 524.4 86 535.6 63.9 535.4C51.4 535.3 38.5 531.7 25.1 522.1C17.9 517 7.9 518.6 2.8 525.8C-2.3 533-.5 543 6.7 548.1C25.4 561.4 44.7 567.3 63.9 567.4C96.3 567.6 126.1 551.6 150.8 533.9C176.8 515.3 211.9 515.3 237.9 533.9C263.5 552.2 290.8 568 319.9 568C349 568 376.3 552.2 401.9 533.9z"/></svg>