<svg xmlns="http://www.w3.org/2000/svg" viewBox="0 0 640 640"><!--! Font Awesome Pro 7.1.0 by @fontawesome - https://fontawesome.com License - https://fontawesome.com/license (Commercial License) Copyright 2025 Fonticons, Inc. --><path fill="currentColor" d="M176 64C176 55.2 183.2 48 192 48C200.8 48 208 55.2 208 64L208 281.2C196.6 278 185.8 273.9 176 269L176 64zM256 288C250.6 288 245.3 287.7 240 287.2L240 112C240 103.2 247.2 96 256 96C264.8 96 272 103.2 272 112L272 287.2C266.7 287.7 261.4 288 256 288zM304 281.2L304 80C304 71.2 311.2 64 320 64C328.8 64 336 71.2 336 80L336 265.4C328.7 269.2 322 273.3 315.7 277.5C311.9 278.8 308 280.1 304 281.2zM256 336C256.9 336 257.9 336 258.8 336C257.2 338.6 255.7 341.1 254.3 343.5C249.7 351.6 246.5 359.8 244.3 367.8C196.7 365.5 147 349 109 322.3L150.4 487.8C154 502 166.8 512 181.4 512L239.9 512L239.9 544L181.4 544C152 544 126.4 524 119.3 495.5L64.5 275.9C62.6 268.4 66.3 260.7 73.3 257.5C80.3 254.3 88.6 256.5 93 262.8C123.4 305.6 191.7 336 256 336zM379.8 235C376.7 239.4 372.7 243.8 368 248L368 112C368 103.2 375.2 96 384 96C392.8 96 400 103.2 400 112L400 216.6C392.2 221.1 385.3 227.3 379.8 235zM132.2 235C126.7 227.3 119.8 221.1 112 216.6L112 112C112 103.2 119.2 96 128 96C136.8 96 144 103.2 144 112L144 248C139.3 243.8 135.3 239.4 132.2 235zM320 402.8L320 432.1L288 432.1L288 402.8C288 396.5 288.5 390.2 289.8 384.1C291 378.3 293 372.8 296 367.6C357.3 260.7 538.8 260.6 600.1 367.6C603.1 372.8 605 378.3 606.2 384.1C607.5 390.2 608 396.5 608 402.8L608 432.1L576 432.1L576 402.8C576 393.3 574.5 387.4 572.3 383.5C548.7 342.4 500.3 319.4 448 319.4C395.7 319.4 347.3 342.4 323.7 383.5C321.5 387.3 320 393.3 320 402.8zM576 550.5L576 528.1L608 528.1L608 550.5C608 559.7 605.8 568.4 602 576.1C592.6 594.8 573.3 607.6 550.9 607.6L345.2 607.6C322.9 607.6 303.5 594.8 294.1 576.1C290.2 568.4 288.1 559.7 288.1 550.5L288.1 528.1L320.1 528.1L320.1 550.5C320.1 564.4 331.4 575.6 345.2 575.6L550.9 575.6C564.8 575.6 576 564.3 576 550.5zM304 464L592 464C600.8 464 608 471.2 608 480C608 488.8 600.8 496 592 496L304 496C295.2 496 288 488.8 288 480C288 471.2 295.2 464 304 464zM432 352C432 343.2 439.2 336 448 336C456.8 336 464 343.2 464 352C464 360.8 456.8 368 448 368C439.2 368 432 360.8 432 352zM384 368C392.8 368 400 375.2 400 384C400 392.8 392.8 400 384 400C375.2 400 368 392.8 368 384C368 375.2 375.2 368 384 368zM496 384C496 375.2 503.2 368 512 368C520.8 368 528 375.2 528 384C528 392.8 520.8 400 512 400C503.2 400 496 392.8 496 384z"/></svg>