<svg xmlns="http://www.w3.org/2000/svg" viewBox="0 0 640 640"><!--! Font Awesome Pro 7.1.0 by @fontawesome - https://fontawesome.com License - https://fontawesome.com/license (Commercial License) Copyright 2025 Fonticons, Inc. --><path fill="currentColor" d="M96.1 104.7L106.2 224L405.7 224L415.8 104.7C416.2 100 412.5 96 407.8 96L104.1 96C99.4 96 95.7 100 96.1 104.7zM108.9 256L130.7 514.7C132.1 531.3 146 544 162.6 544L240.4 544C240.1 546.2 240 548.4 240 550.7C240 559.4 241.1 567.9 243.1 576L162.6 576C129.3 576 101.6 550.5 98.8 517.4L64.2 107.4C62.3 84 80.7 64 104.1 64L407.8 64C431.2 64 449.6 84 447.7 107.4L436.5 240C405.6 241.2 379.2 247.2 356.8 256L108.9 256zM320 402.8L320 432.1L288 432.1L288 402.8C288 396.5 288.5 390.2 289.8 384.1C291 378.3 293 372.8 296 367.6C357.3 260.7 538.8 260.6 600.1 367.6C603.1 372.8 605 378.3 606.2 384.1C607.5 390.2 608 396.5 608 402.8L608 432.1L576 432.1L576 402.8C576 393.3 574.5 387.4 572.3 383.5C548.7 342.4 500.3 319.4 448 319.4C395.7 319.4 347.3 342.4 323.7 383.5C321.5 387.3 320 393.3 320 402.8zM576 550.5L576 528.1L608 528.1L608 550.5C608 559.7 605.8 568.4 602 576.1C592.6 594.8 573.3 607.6 550.9 607.6L345.2 607.6C322.9 607.6 303.5 594.8 294.1 576.1C290.2 568.4 288.1 559.7 288.1 550.5L288.1 528.1L320.1 528.1L320.1 550.5C320.1 564.4 331.4 575.6 345.2 575.6L550.9 575.6C564.8 575.6 576 564.3 576 550.5zM304 464L592 464C600.8 464 608 471.2 608 480C608 488.8 600.8 496 592 496L304 496C295.2 496 288 488.8 288 480C288 471.2 295.2 464 304 464zM432 352C432 343.2 439.2 336 448 336C456.8 336 464 343.2 464 352C464 360.8 456.8 368 448 368C439.2 368 432 360.8 432 352zM384 368C392.8 368 400 375.2 400 384C400 392.8 392.8 400 384 400C375.2 400 368 392.8 368 384C368 375.2 375.2 368 384 368zM496 384C496 375.2 503.2 368 512 368C520.8 368 528 375.2 528 384C528 392.8 520.8 400 512 400C503.2 400 496 392.8 496 384z"/></svg>