<svg xmlns="http://www.w3.org/2000/svg" viewBox="0 0 640 640"><!--! Font Awesome Pro 7.1.0 by @fontawesome - https://fontawesome.com License - https://fontawesome.com/license (Commercial License) Copyright 2025 Fonticons, Inc. --><path fill="currentColor" d="M296.6 48C274.9 48 255.8 62.6 250.2 83.6L229.8 160L80 160C71.2 160 64 167.2 64 176C64 184.8 71.2 192 80 192L96 192L124.3 532C126.4 556.9 147.2 576 172.1 576L243 576C241 567.9 239.9 559.4 239.9 550.7L239.9 544L172.1 544C163.8 544 156.8 537.6 156.2 529.3L128.1 192L383.9 192L379.2 248.6C389.4 245.8 400.3 243.6 411.9 242.1L416.1 192L432.1 192C440.9 192 448.1 184.8 448.1 176C448.1 167.2 440.9 160 432.1 160L263.1 160L281.3 91.9C283.2 84.9 289.5 80 296.8 80L336 80C344.8 80 352 72.8 352 64C352 55.2 344.8 48 336 48L296.6 48zM320 402.8C320 393.3 321.5 387.3 323.7 383.5C347.3 342.4 395.7 319.4 448 319.4C500.3 319.4 548.7 342.4 572.3 383.5C574.5 387.3 576 393.3 576 402.8L576 432.1L608 432.1L608 402.8C608 396.5 607.5 390.2 606.2 384.1C605 378.3 603 372.8 600.1 367.6C538.8 260.6 357.3 260.7 296 367.6C293 372.8 291.1 378.3 289.8 384.1C288.5 390.2 288 396.5 288 402.8L288 432.1L320 432.1L320 402.8zM576 550.5C576 564.4 564.7 575.6 550.9 575.6L345.2 575.6C331.3 575.6 320.1 564.3 320.1 550.5L320.1 528.1L288.1 528.1L288.1 550.5C288.1 559.7 290.3 568.4 294.1 576.1C303.5 594.8 322.8 607.6 345.2 607.6L550.9 607.6C573.3 607.6 592.6 594.8 602 576.1C605.9 568.4 608 559.7 608 550.5L608 528.1L576 528.1L576 550.5zM304 464C295.2 464 288 471.2 288 480C288 488.8 295.2 496 304 496L592 496C600.8 496 608 488.8 608 480C608 471.2 600.8 464 592 464L304 464zM464 352C464 343.2 456.8 336 448 336C439.2 336 432 343.2 432 352C432 360.8 439.2 368 448 368C456.8 368 464 360.8 464 352zM384 400C392.8 400 400 392.8 400 384C400 375.2 392.8 368 384 368C375.2 368 368 375.2 368 384C368 392.8 375.2 400 384 400zM528 384C528 375.2 520.8 368 512 368C503.2 368 496 375.2 496 384C496 392.8 503.2 400 512 400C520.8 400 528 392.8 528 384z"/></svg>