<svg xmlns="http://www.w3.org/2000/svg" viewBox="0 0 640 640"><!--! Font Awesome Pro 7.1.0 by @fontawesome - https://fontawesome.com License - https://fontawesome.com/license (Commercial License) Copyright 2025 Fonticons, Inc. --><path fill="currentColor" d="M128 464C128 490.5 149.5 512 176 512L464 512C490.5 512 512 490.5 512 464L128 464zM128 272L512 272L512 266C512 251.7 509.8 240.4 505.1 231.8C486 196.8 434.8 128 320 128C205.2 128 154 196.7 134.9 231.8C130.2 240.4 128 251.6 128 266L128 272zM96 464C96 446.3 110.3 432 128 432L512 432C529.7 432 544 446.3 544 464C544 508.2 508.2 544 464 544L176 544C131.8 544 96 508.2 96 464zM128 304C110.3 304 96 289.7 96 272L96 266C96 248.8 98.6 231.6 106.8 216.5C129 175.6 189.1 96 320 96C450.9 96 511 175.6 533.2 216.5C541.4 231.6 544 248.8 544 266L544 272C544 289.7 529.7 304 512 304L128 304zM300 176C300 165 309 156 320 156C331 156 340 165 340 176C340 187 331 196 320 196C309 196 300 187 300 176zM224 188C235 188 244 197 244 208C244 219 235 228 224 228C213 228 204 219 204 208C204 197 213 188 224 188zM396 208C396 197 405 188 416 188C427 188 436 197 436 208C436 219 427 228 416 228C405 228 396 219 396 208zM211.8 367.1L150.5 395C143.2 398.3 135.3 400 127.3 400L80 400C71.2 400 64 392.8 64 384C64 375.2 71.2 368 80 368L127.3 368C130.7 368 134.1 367.3 137.2 365.8L198.5 338C215 330.5 234.2 331.5 249.9 340.6L307.9 374.4C315.4 378.8 324.6 378.8 332.1 374.4L387.1 342.3C405.1 331.8 427.4 332.2 445 343.2L478.8 364.3C482.6 366.7 487 367.9 491.5 367.9L560 367.9C568.8 367.9 576 375.1 576 383.9C576 392.7 568.8 399.9 560 399.9L491.5 399.9C481 399.9 470.7 396.9 461.8 391.4L428 370.4C420.4 365.7 410.9 365.5 403.2 370L348.2 402.1C330.8 412.3 309.2 412.3 291.8 402.1L233.8 368.3C227.1 364.4 218.9 364 211.8 367.2z"/></svg>