<svg xmlns="http://www.w3.org/2000/svg" viewBox="0 0 640 640"><!--! Font Awesome Pro 7.1.0 by @fontawesome - https://fontawesome.com License - https://fontawesome.com/license (Commercial License) Copyright 2025 Fonticons, Inc. --><path fill="currentColor" d="M469.8 329.5C438.2 242.6 386.9 164.2 320 100.4C253.1 164.2 201.8 242.6 170.2 329.5L169.5 331.4C163.2 348.8 160 367.1 160 385.6C160 472.7 232.2 544 320 544C407.8 544 480 472.7 480 385.6C480 367.1 476.8 348.8 470.5 331.5L470.5 331.5L469.8 329.6zM499.9 318.6L500.6 320.5C508.2 341.4 512.1 363.4 512.1 385.6C512.1 490.8 425.3 576 320.1 576C214.9 576 128 490.7 128 385.6C128 363.4 131.9 341.4 139.5 320.5L140.2 318.6C174.2 224.8 230 140.5 302.9 72.5L306.2 69.5C309.9 66 314.9 64 320 64C325.1 64 330.1 66 333.8 69.5L337.1 72.5C410 140.5 465.8 224.9 499.8 318.6zM320 224C329.3 224 338.3 227.7 344.9 234.3L353.8 243.2C382.6 272 405.9 305.9 422.4 343.1L424.3 347.4C429.3 358.7 431.9 371.1 431.9 383.4C431.9 445.1 381.9 495.9 319.9 495.9C257.9 495.9 208 445.2 208 383.5C208 371.1 210.6 358.8 215.6 347.5L217.5 343.2C234 306 257.3 272.1 286.1 243.3L295 234.4C301.6 227.8 310.6 224.1 319.9 224.1zM317.7 256.9L308.8 265.8C282.8 291.8 261.7 322.4 246.8 356.1L244.9 360.4C241.7 367.6 240 375.5 240 383.4C240 427.7 275.9 463.9 320 463.9C364.1 463.9 400 427.7 400 383.4C400 375.5 398.3 367.6 395.1 360.4L393.2 356.1C378.2 322.5 357.2 291.8 331.2 265.8L322.3 256.9C321.7 256.3 320.9 256 320 256C319.1 256 318.3 256.4 317.7 256.9z"/></svg>