<svg xmlns="http://www.w3.org/2000/svg" viewBox="0 0 640 640"><!--! Font Awesome Pro 7.1.0 by @fontawesome - https://fontawesome.com License - https://fontawesome.com/license (Commercial License) Copyright 2025 Fonticons, Inc. --><path fill="currentColor" d="M306 126C314.2 90.5 346 64 384 64C395.4 64 406.2 66.4 416 70.7C425.8 66.4 436.6 64 448 64C482.6 64 512.1 86 523.2 116.8C554 127.9 576 157.4 576 192C576 203.4 573.6 214.2 569.3 224C573.6 233.8 576 244.6 576 256C576 294 549.5 325.8 514 334L305.9 542.1C284.2 563.8 254.7 576 224 576C193.3 576 163.8 563.8 142.1 542.1L97.9 497.9C76.2 476.2 64 446.7 64 416C64 385.3 76.2 355.8 97.9 334.1L306 126zM350 110.1C371.5 142.8 383.9 182 383.9 224C383.9 235.9 382.9 247.6 381 258.9C392.4 257 404 256 415.9 256C458 256 497.1 268.5 529.8 289.9C538.5 281.2 543.9 269.2 543.9 255.9C543.9 247.1 541.6 239 537.5 231.9C534.6 226.9 534.6 220.8 537.5 215.9C541.6 208.9 543.9 200.7 543.9 191.9C543.9 169.1 528 150 506.7 145.1C500.7 143.7 496.1 139.1 494.7 133.1C489.8 111.8 470.7 95.9 447.9 95.9C439.1 95.9 431 98.2 423.9 102.3C418.9 105.2 412.8 105.2 407.9 102.3C400.9 98.2 392.7 95.9 383.9 95.9C370.6 95.9 358.6 101.3 350 110zM416 288C400.8 288 386.1 289.9 372.1 293.5C343.5 374.2 266.5 432 176 432C147.7 432 120.6 426.3 96 416.1C96 438.3 104.9 459.6 120.6 475.4L164.7 519.5C180.4 535.2 201.8 544 224 544C246.2 544 267.6 535.2 283.3 519.4L495.7 307C471.8 294.8 444.7 288 416 288zM176 400C255.2 400 322.2 347.7 344.3 275.7C349.3 259.4 352 242 352 224C352 195.3 345.1 168.2 333 144.3L120.6 356.7C112.7 364.6 106.6 373.8 102.4 383.9C124.8 394.2 149.7 400 176 400z"/></svg>