<svg xmlns="http://www.w3.org/2000/svg" viewBox="0 0 640 640"><!--! Font Awesome Pro 7.1.0 by @fontawesome - https://fontawesome.com License - https://fontawesome.com/license (Commercial License) Copyright 2025 Fonticons, Inc. --><path fill="currentColor" d="M68.7 68.7C74.1 63.3 82.5 62.5 88.9 66.7L264.1 183.5L305 74.4C307.4 68.1 313.3 64 320 64C326.7 64 332.6 68.1 335 74.4L377.6 188L459 160.9C464.8 159 471.1 160.5 475.4 164.8C479.7 169.1 481.2 175.4 479.3 181.2L452.1 262.4L565.6 305C571.8 307.3 576 313.3 576 320C576 326.7 571.9 332.6 565.6 335L454.2 376.8L510.3 488.9C513.4 495.1 512.2 502.5 507.3 507.4C502.4 512.3 495 513.5 488.8 510.4L376.7 454.3L335 565.6C332.7 571.8 326.7 576 320 576C313.3 576 307.4 571.9 305 565.6L263.3 454.3L151.2 510.3C145 513.4 137.6 512.2 132.7 507.3C127.8 502.4 126.6 495 129.7 488.8L185.7 376.7L74.4 335C68.1 332.6 64 326.7 64 320C64 313.3 68.1 307.4 74.4 305L183.5 264.1L66.7 88.9C62.5 82.6 63.3 74.1 68.7 68.7zM137.7 137.7L221.3 263.1C224 267.2 224.7 272.2 223.2 276.9C221.7 281.6 218.2 285.3 213.6 287L125.6 320L213.6 353C217.8 354.6 221.2 357.9 222.9 362.1C224.6 366.3 224.3 371.1 222.3 375.1L179.8 460.2L264.9 417.7C269 415.7 273.7 415.5 277.9 417.1C282.1 418.7 285.4 422.1 287 426.4L320 514.5L353 426.4C354.6 422.2 357.9 418.8 362.1 417.1C366.3 415.4 371.1 415.7 375.1 417.7L460.2 460.2L417.7 375.1C415.7 371 415.5 366.3 417.1 362.1C418.7 357.9 422.1 354.6 426.4 353L514.5 320L426.4 287C418.3 284 414.1 275.1 416.8 267L438.7 201.4L373.1 223.3C364.9 226 356.1 221.8 353.1 213.7L320.1 125.7L287.1 213.7C285.4 218.3 281.7 221.8 277 223.3C272.3 224.8 267.3 224.1 263.2 221.4L137.7 137.7z"/></svg>