<svg xmlns="http://www.w3.org/2000/svg" viewBox="0 0 640 640"><!--! Font Awesome Pro 7.1.0 by @fontawesome - https://fontawesome.com License - https://fontawesome.com/license (Commercial License) Copyright 2025 Fonticons, Inc. --><path fill="currentColor" d="M416 96C451.3 96 480 124.7 480 160L480 176L160 176L160 160C160 124.7 188.7 96 224 96L416 96zM224 64C171 64 128 107 128 160L128 312.4C108.4 330 96 355.6 96 384L96 448C96 471.7 108.9 492.4 128 503.4L128 560C128 568.8 135.2 576 144 576C152.8 576 160 568.8 160 560L160 512L480 512L480 560C480 568.8 487.2 576 496 576C504.8 576 512 568.8 512 560L512 503.4C531.1 492.3 544 471.7 544 448L544 384C544 355.6 531.6 330 512 312.4L512 160C512 107 469 64 416 64L224 64zM480 208L480 293.5C470 290 459.2 288 448 288L336 288L336 208L480 208zM160 293.5L160 208L304 208L304 288L192 288C180.8 288 170 289.9 160 293.5zM336 320L448 320C483.3 320 512 348.7 512 384L512 448C512 465.7 497.7 480 480 480L160 480C142.3 480 128 465.7 128 448L128 384C128 348.7 156.7 320 192 320L336 320zM208 424C221.3 424 232 413.3 232 400C232 386.7 221.3 376 208 376C194.7 376 184 386.7 184 400C184 413.3 194.7 424 208 424zM456 400C456 386.7 445.3 376 432 376C418.7 376 408 386.7 408 400C408 413.3 418.7 424 432 424C445.3 424 456 413.3 456 400z"/></svg>