<svg xmlns="http://www.w3.org/2000/svg" viewBox="0 0 640 640"><!--! Font Awesome Pro 7.1.0 by @fontawesome - https://fontawesome.com License - https://fontawesome.com/license (Commercial License) Copyright 2025 Fonticons, Inc. --><path fill="currentColor" d="M280.2 128.4C320.5 132.5 352 166.6 352 208L352 432L351.8 436.9C349.9 455.6 337.2 471.1 320 477.2L320 528C320 536.8 312.8 544 304 544C295.2 544 288 536.8 288 528L288 480L96 480L96 528C96 536.8 88.8 544 80 544C71.2 544 64 536.8 64 528L64 477.2C46.8 471.1 34.2 455.6 32.2 436.9L32 432L32 208C32 166.6 63.5 132.5 103.8 128.4L112 128L272 128L280.2 128.4zM512 64C573.9 64 624 114.1 624 176C624 232.4 582.3 279.1 528 286.8L528 528C528 536.8 520.8 544 512 544C503.2 544 496 536.8 496 528L496 286.8C441.7 279 400 232.4 400 176C400 114.1 450.1 64 512 64zM64 432C64 440.8 71.2 448 80 448L304 448C312.8 448 320 440.8 320 432L320 320L64 320L64 432zM136 408C122.7 408 112 397.3 112 384C112 370.7 122.7 360 136 360C149.3 360 160 370.7 160 384C160 397.3 149.3 408 136 408zM248 408C234.7 408 224 397.3 224 384C224 370.7 234.7 360 248 360C261.3 360 272 370.7 272 384C272 397.3 261.3 408 248 408zM112 160C85.5 160 64 181.5 64 208L64 288L320 288L320 208C320 181.5 298.5 160 272 160L112 160zM512 96C467.8 96 432 131.8 432 176C432 220.2 467.8 256 512 256C556.2 256 592 220.2 592 176C592 131.8 556.2 96 512 96z"/></svg>