<svg xmlns="http://www.w3.org/2000/svg" viewBox="0 0 640 640"><!--! Font Awesome Pro 7.1.0 by @fontawesome - https://fontawesome.com License - https://fontawesome.com/license (Commercial License) Copyright 2025 Fonticons, Inc. --><path fill="currentColor" d="M488.2 64.2C572.8 68.5 640 138.4 640 224L640 448L639.7 454.5C636.6 484.6 612.7 508.6 582.6 511.6L576.1 511.9L570.5 511.9C557.3 549.2 521.9 575.9 480.1 575.9C438.3 575.9 402.8 549.2 389.7 511.9L250.6 511.9C237.4 549.2 201.9 575.9 160.2 575.9C118.5 575.9 83 549.2 69.8 511.9L64.2 511.9L57.7 511.6C27.6 508.5 3.6 484.6 .6 454.5L0 448L0 160C0 108.6 40.3 66.7 91.1 64.1L96 64L480 64L488.2 64.2zM160 416C124.7 416 96 444.7 96 480C96 515.3 124.7 544 160 544C195.3 544 224 515.3 224 480C224 444.7 195.3 416 160 416zM480 416C444.7 416 416 444.7 416 480C416 515.3 444.7 544 480 544C515.3 544 544 515.3 544 480C544 444.7 515.3 416 480 416zM32 288L32 448C32 465.7 46.3 480 64 480C64 427 107 384 160 384C213 384 256 427 256 480L384 480C384 438.2 410.7 402.7 448 389.6L448 288L32 288zM480 384C533 384 576 427 576 480C593.7 480 608 465.7 608 448L608 224C608 153.3 550.7 96 480 96L480 384zM256 256L448 256L448 96L256 96L256 256zM96 96C60.7 96 32 124.7 32 160L32 256L224 256L224 96L96 96z"/></svg>