<svg xmlns="http://www.w3.org/2000/svg" viewBox="0 0 640 640"><!--! Font Awesome Pro 7.1.0 by @fontawesome - https://fontawesome.com License - https://fontawesome.com/license (Commercial License) Copyright 2025 Fonticons, Inc. --><path fill="currentColor" d="M192 96C156.7 96 128 124.7 128 160L128 192L512 192L512 160C512 124.7 483.3 96 448 96L192 96zM128 224L128 320L304 320L304 224L128 224zM336 224L336 320L512 320L512 224L336 224zM128 352L128 448C128 465.7 142.3 480 160 480L480 480C497.7 480 512 465.7 512 448L512 352L128 352zM96 320L96 160C96 107 139 64 192 64L448 64C501 64 544 107 544 160L544 448C544 471.7 531.1 492.4 512 503.4L512 560C512 568.8 504.8 576 496 576C487.2 576 480 568.8 480 560L480 512L160 512L160 560C160 568.8 152.8 576 144 576C135.2 576 128 568.8 128 560L128 503.4C108.9 492.4 96 471.7 96 448L96 320zM168 416C168 402.7 178.7 392 192 392C205.3 392 216 402.7 216 416C216 429.3 205.3 440 192 440C178.7 440 168 429.3 168 416zM448 392C461.3 392 472 402.7 472 416C472 429.3 461.3 440 448 440C434.7 440 424 429.3 424 416C424 402.7 434.7 392 448 392zM272 128L368 128C376.8 128 384 135.2 384 144C384 152.8 376.8 160 368 160L272 160C263.2 160 256 152.8 256 144C256 135.2 263.2 128 272 128z"/></svg>