<svg xmlns="http://www.w3.org/2000/svg" viewBox="0 0 640 640"><!--! Font Awesome Pro 7.1.0 by @fontawesome - https://fontawesome.com License - https://fontawesome.com/license (Commercial License) Copyright 2025 Fonticons, Inc. --><path fill="currentColor" d="M537.7 96.2C559.2 98.4 576 116.6 576 138.7L576 227.7C576 302.8 528.9 366.8 462.7 392.1L473.1 402.5L478.3 408.2C489.7 422.1 496 439.5 496 457.6L495.8 463.1C494 488.6 479.7 511.7 457.7 524.7L452.9 527.3L437.3 535.1C427.2 540.1 416.3 543.1 405.1 543.7L400.3 543.8C366.9 543.8 336.9 523.7 324 493.3L321.7 487.1L320.1 482.4L318.5 487.1C307.2 520.9 275.5 543.8 239.8 543.8C228.5 543.8 217.4 541.5 207.1 537.1L202.7 535.1L187.1 527.3C162.3 514.9 146.1 490.4 144.2 463.1L144 457.6C144 436.9 152.2 417.1 166.8 402.4L177.2 392C111 366.8 64 302.8 64 227.7L64 138.7L64.2 134.3C66.4 112.8 84.6 96 106.7 96C203.6 96 286.5 156.2 320 241.2C353.5 156.2 436.4 96 533.3 96L537.7 96.2zM106.7 128C100.8 128 96 132.8 96 138.7L96 227.7C96 297.2 145.3 355.2 210.8 368.7C216.6 369.9 221.2 374.1 222.9 379.8C224.6 385.5 223.1 391.5 218.9 395.7L189.5 425.2C180.9 433.8 176 445.5 176 457.7L176.5 464.1C178.6 478.9 187.8 492 201.5 498.8L217.1 506.6L222.5 508.9C228 510.9 233.9 511.9 239.8 511.9C261.7 511.9 281.2 497.9 288.1 477.1L292.3 464.4C300.1 441.1 304 416.8 304 392.2L304 321.4C304 321 303.9 320.6 303.8 320.2C301.2 213.5 213.9 127.8 106.6 127.8zM533.4 128C424.4 128 336 216.4 336 325.3L336 392.3C336 416.8 340 441.2 347.7 464.5L351.9 477.2L353.3 481C361.2 499.7 379.6 512 400.1 512L406 511.7C411.8 511 417.5 509.3 422.8 506.7L438.4 498.9L444 495.6C454.6 488.3 461.6 476.9 463.4 464.2L463.9 457.8C463.9 447.1 460.2 436.8 453.5 428.6L450.4 425.2L420.9 395.7C416.7 391.5 415.2 385.4 416.9 379.8C418.6 374.2 423.2 369.9 429 368.7C494.6 355.2 543.8 297.2 543.8 227.7L543.8 138.7L543.6 136.5C542.7 132.3 539.5 129.1 535.3 128.2L533.1 128z"/></svg>