<svg xmlns="http://www.w3.org/2000/svg" viewBox="0 0 640 640"><!--! Font Awesome Pro 7.1.0 by @fontawesome - https://fontawesome.com License - https://fontawesome.com/license (Commercial License) Copyright 2025 Fonticons, Inc. --><path fill="currentColor" d="M448 160L512 160C529.7 160 544 174.3 544 192L544 336L576 336L576 192C576 156.7 547.3 128 512 128L128 128C92.7 128 64 156.7 64 192L64 336L96 336L96 192C96 174.3 110.3 160 128 160L416 160L416 336L448 336L448 160zM48 384C39.2 384 32 391.2 32 400C32 408.8 39.2 416 48 416L64 416L64 480C64 497.7 78.3 512 96 512L544 512C561.7 512 576 497.7 576 480L576 416L592 416C600.8 416 608 408.8 608 400C608 391.2 600.8 384 592 384L48 384zM544 416L544 480L96 480L96 416L544 416z"/></svg>