<svg xmlns="http://www.w3.org/2000/svg" viewBox="0 0 640 640"><!--! Font Awesome Pro 7.1.0 by @fontawesome - https://fontawesome.com License - https://fontawesome.com/license (Commercial License) Copyright 2025 Fonticons, Inc. --><path fill="currentColor" d="M484.9 184.3C410.5 109.3 290 109.3 215.6 184.3C141.2 259.3 141.2 380.8 215.6 455.7C290 530.6 410.5 530.7 484.9 455.7C491.1 449.4 501.2 449.4 507.4 455.7C513.6 462 513.6 472.1 507.4 478.4C420.6 565.9 279.9 565.9 193 478.4C106.1 390.9 106.2 249 193 161.5C279.8 74 420.5 74 507.4 161.5C513.6 167.8 513.6 177.9 507.4 184.2C501.2 190.5 491.1 190.5 484.9 184.2z"/></svg>