<svg xmlns="http://www.w3.org/2000/svg" viewBox="0 0 640 640"><!--! Font Awesome Pro 7.1.0 by @fontawesome - https://fontawesome.com License - https://fontawesome.com/license (Commercial License) Copyright 2025 Fonticons, Inc. --><path fill="currentColor" d="M295.3 74.7L80.3 243.6C70 251.7 64 264.1 64 277.2C64 300.9 83.1 320 106.8 320L533.3 320C556.9 320 576.1 300.9 576.1 277.2C576.1 264.1 570.1 251.7 559.8 243.6L544 231.3L544 136C544 113.9 526.1 96 504 96L472 96C449.9 96 432 113.9 432 136L432 143.3L344.7 74.7C330.2 63.3 309.8 63.3 295.3 74.7zM512 136L512 206.2L464 168.5L464 136.1C464 131.7 467.6 128.1 472 128.1L504 128.1C508.4 128.1 512 131.7 512 136.1zM324.9 99.9L539.9 268.8C542.5 270.8 544 274 544 277.3C544 283.2 539.2 288.1 533.2 288.1L106.8 288C100.9 288 96 283.2 96 277.2C96 273.9 97.5 270.8 100.1 268.7L315.1 99.9C318 97.6 322.1 97.6 325 99.9zM112 432C112 440.8 119.2 448 128 448L240 448C248.8 448 256 440.8 256 432C256 423.2 248.8 416 240 416L128 416C119.2 416 112 423.2 112 432zM128 480C119.2 480 112 487.2 112 496C112 504.8 119.2 512 128 512L512 512C520.8 512 528 504.8 528 496C528 487.2 520.8 480 512 480L128 480zM112 368C112 376.8 119.2 384 128 384L240 384C248.8 384 256 376.8 256 368C256 359.2 248.8 352 240 352L128 352C119.2 352 112 359.2 112 368zM400 416C391.2 416 384 423.2 384 432C384 440.8 391.2 448 400 448L512 448C520.8 448 528 440.8 528 432C528 423.2 520.8 416 512 416L400 416zM400 352C391.2 352 384 359.2 384 368C384 376.8 391.2 384 400 384L512 384C520.8 384 528 376.8 528 368C528 359.2 520.8 352 512 352L400 352zM112 560C112 568.8 119.2 576 128 576L512 576C520.8 576 528 568.8 528 560C528 551.2 520.8 544 512 544L128 544C119.2 544 112 551.2 112 560z"/></svg>