<svg xmlns="http://www.w3.org/2000/svg" viewBox="0 0 640 640"><!--! Font Awesome Pro 7.1.0 by @fontawesome - https://fontawesome.com License - https://fontawesome.com/license (Commercial License) Copyright 2025 Fonticons, Inc. --><path fill="currentColor" d="M480 304L160 304L160 128C160 110.3 174.3 96 192 96L448 96C465.7 96 480 110.3 480 128L480 304zM128 320L128 512C128 547.3 156.7 576 192 576L448 576C483.3 576 512 547.3 512 512L512 128C512 92.7 483.3 64 448 64L192 64C156.7 64 128 92.7 128 128L128 320zM480 512C480 529.7 465.7 544 448 544L192 544C174.3 544 160 529.7 160 512L160 336L480 336L480 512zM256 160C238.3 160 224 174.3 224 192L224 208C224 216.8 231.2 224 240 224C248.8 224 256 216.8 256 208L256 192L384 192L384 208C384 216.8 391.2 224 400 224C408.8 224 416 216.8 416 208L416 192C416 174.3 401.7 160 384 160L256 160zM256 416C238.3 416 224 430.3 224 448L224 464C224 472.8 231.2 480 240 480C248.8 480 256 472.8 256 464L256 448L384 448L384 464C384 472.8 391.2 480 400 480C408.8 480 416 472.8 416 464L416 448C416 430.3 401.7 416 384 416L256 416z"/></svg>