<svg xmlns="http://www.w3.org/2000/svg" viewBox="0 0 640 640"><!--! Font Awesome Pro 7.1.0 by @fontawesome - https://fontawesome.com License - https://fontawesome.com/license (Commercial License) Copyright 2025 Fonticons, Inc. --><path fill="currentColor" d="M352 88C365.3 88 376 77.3 376 64C376 50.7 365.3 40 352 40C338.7 40 328 50.7 328 64C328 77.3 338.7 88 352 88zM280 88C280 74.7 269.3 64 256 64C242.7 64 232 74.7 232 88C232 101.3 242.7 112 256 112C269.3 112 280 101.3 280 88zM224 320L224 416L128 416L128 352C128 334.3 142.3 320 160 320L224 320zM256 416L256 320L384 320L384 416L256 416zM416 416L416 320L480 320C497.7 320 512 334.3 512 352L512 416L416 416zM512 448L512 512C512 529.7 497.7 544 480 544L160 544C142.3 544 128 529.7 128 512L128 448L512 448zM160 288C124.7 288 96 316.7 96 352L96 512C96 547.3 124.7 576 160 576L480 576C515.3 576 544 547.3 544 512L544 352C544 316.7 515.3 288 480 288L336 288L336 172.1L548.4 111.4C556.9 109 561.8 100.1 559.4 91.6C557 83.1 548.1 78.2 539.6 80.6L315.6 144.6L315.6 144.6L91.6 208.6C83.1 211 78.2 219.9 80.6 228.4C83 236.9 91.9 241.8 100.4 239.4L304 181.2L304 288L160 288z"/></svg>