<svg xmlns="http://www.w3.org/2000/svg" viewBox="0 0 640 640"><!--! Font Awesome Pro 7.1.0 by @fontawesome - https://fontawesome.com License - https://fontawesome.com/license (Commercial License) Copyright 2025 Fonticons, Inc. --><path fill="currentColor" d="M480 224L480 512C480 529.7 465.7 544 448 544L192 544C174.3 544 160 529.7 160 512L160 224L480 224zM480 192L160 192L160 128C160 110.3 174.3 96 192 96L448 96C465.7 96 480 110.3 480 128L480 192zM512 192L512 128C512 92.7 483.3 64 448 64L192 64C156.7 64 128 92.7 128 128L128 512C128 547.3 156.7 576 192 576L448 576C483.3 576 512 547.3 512 512L512 192zM200 288C200 301.3 210.7 312 224 312C237.3 312 248 301.3 248 288C248 274.7 237.3 264 224 264C210.7 264 200 274.7 200 288zM224 360C210.7 360 200 370.7 200 384C200 397.3 210.7 408 224 408C237.3 408 248 397.3 248 384C248 370.7 237.3 360 224 360zM296 288C296 301.3 306.7 312 320 312C333.3 312 344 301.3 344 288C344 274.7 333.3 264 320 264C306.7 264 296 274.7 296 288zM320 360C306.7 360 296 370.7 296 384C296 397.3 306.7 408 320 408C333.3 408 344 397.3 344 384C344 370.7 333.3 360 320 360zM392 288C392 301.3 402.7 312 416 312C429.3 312 440 301.3 440 288C440 274.7 429.3 264 416 264C402.7 264 392 274.7 392 288zM416 360C402.7 360 392 370.7 392 384C392 397.3 402.7 408 416 408C429.3 408 440 397.3 440 384C440 370.7 429.3 360 416 360zM392 480C392 493.3 402.7 504 416 504C429.3 504 440 493.3 440 480C440 466.7 429.3 456 416 456C402.7 456 392 466.7 392 480zM208 464C199.2 464 192 471.2 192 480C192 488.8 199.2 496 208 496L336 496C344.8 496 352 488.8 352 480C352 471.2 344.8 464 336 464L208 464z"/></svg>