<svg xmlns="http://www.w3.org/2000/svg" viewBox="0 0 640 640"><!--! Font Awesome Pro 7.1.0 by @fontawesome - https://fontawesome.com License - https://fontawesome.com/license (Commercial License) Copyright 2025 Fonticons, Inc. --><path fill="currentColor" d="M208 64C216.8 64 224 71.2 224 80L224 128L416 128L416 80C416 71.2 423.2 64 432 64C440.8 64 448 71.2 448 80L448 128L480 128C515.3 128 544 156.7 544 192L544 480C544 515.3 515.3 544 480 544L160 544C124.7 544 96 515.3 96 480L96 192C96 156.7 124.7 128 160 128L192 128L192 80C192 71.2 199.2 64 208 64zM480 160L160 160C142.3 160 128 174.3 128 192L128 480C128 497.7 142.3 512 160 512L480 512C497.7 512 512 497.7 512 480L512 192C512 174.3 497.7 160 480 160zM340.4 298.2L331.3 307.3C328.3 310.3 324.2 312 320 312C315.8 312 311.7 310.3 308.7 307.3L299.6 298.2C293.1 291.7 284.2 288 274.9 288L272 288C254.3 288 240 302.3 240 320C240 341.4 254.5 362.5 274.6 381C291.4 396.5 310 408 320 413.7C330 408 348.5 396.5 365.4 381C385.5 362.5 400 341.3 400 320C400 302.3 385.7 288 368 288L365.1 288C355.8 288 347 291.7 340.4 298.2zM365.1 256L368 256C403.3 256 432 284.7 432 320C432 355.3 408.9 384.5 387 404.6C364.6 425.2 340.2 439.3 331.1 444.2C324.1 448 315.8 448 308.9 444.2C299.8 439.3 275.4 425.2 253 404.6C231.2 384.5 208 355.3 208 320C208 284.7 236.7 256 272 256L274.9 256C291.6 256 307.7 262.3 320 273.5C332.3 262.3 348.4 256 365.1 256z"/></svg>