<svg xmlns="http://www.w3.org/2000/svg" viewBox="0 0 640 640"><!--! Font Awesome Pro 7.1.0 by @fontawesome - https://fontawesome.com License - https://fontawesome.com/license (Commercial License) Copyright 2025 Fonticons, Inc. --><path fill="currentColor" d="M208 64C216.8 64 224 71.2 224 80L224 128L416 128L416 80C416 71.2 423.2 64 432 64C440.8 64 448 71.2 448 80L448 128L480 128C515.3 128 544 156.7 544 192L544 480C544 515.3 515.3 544 480 544L160 544C124.7 544 96 515.3 96 480L96 192C96 156.7 124.7 128 160 128L192 128L192 80C192 71.2 199.2 64 208 64zM480 160L160 160C142.3 160 128 174.3 128 192L128 480C128 497.7 142.3 512 160 512L480 512C497.7 512 512 497.7 512 480L512 192C512 174.3 497.7 160 480 160zM200 256C200 242.7 210.7 232 224 232C237.3 232 248 242.7 248 256C248 269.3 237.3 280 224 280C210.7 280 200 269.3 200 256zM295 298.5C301.6 291.8 310.6 288 320 288C329.4 288 338.4 291.8 345 298.5L438.8 393.8C444.7 399.8 448 407.8 448 416.2C448 433.8 433.7 448.1 416.1 448.1L223.9 448.1C206.3 448.1 192 433.8 192 416.2C192 407.8 195.3 399.8 201.2 393.8L295 298.5zM320 320C319.2 320 318.4 320.3 317.8 320.9L224.2 416L415.9 416L322.3 320.9C321.7 320.3 320.9 320 320.1 320z"/></svg>