<svg xmlns="http://www.w3.org/2000/svg" viewBox="0 0 640 640"><!--! Font Awesome Pro 7.1.0 by @fontawesome - https://fontawesome.com License - https://fontawesome.com/license (Commercial License) Copyright 2025 Fonticons, Inc. --><path fill="currentColor" d="M208 64C216.8 64 224 71.2 224 80L224 128L416 128L416 80C416 71.2 423.2 64 432 64C440.8 64 448 71.2 448 80L448 128L480 128C515.3 128 544 156.7 544 192L544 273.1C538.8 272.4 533.4 272 528 272C522.6 272 517.2 272.4 512 273.1L512 256L128 256L128 273.1C122.8 272.4 117.4 272 112 272C106.6 272 101.2 272.4 96 273.1L96 192C96 156.7 124.7 128 160 128L192 128L192 80C192 71.2 199.2 64 208 64zM374.8 512C371.2 522.1 369 532.8 368.2 544L271.7 544C271 532.8 268.7 522.1 265.1 512L374.8 512zM480 160L160 160C142.3 160 128 174.3 128 192L128 224L512 224L512 192C512 174.3 497.7 160 480 160zM144 384C144 366.3 129.7 352 112 352C94.3 352 80 366.3 80 384C80 401.7 94.3 416 112 416C129.7 416 144 401.7 144 384zM48 384C48 348.7 76.7 320 112 320C147.3 320 176 348.7 176 384C176 419.3 147.3 448 112 448C76.7 448 48 419.3 48 384zM32 560C32 568.8 24.8 576 16 576C7.2 576 0 568.8 0 560C0 515.8 35.8 480 80 480L144 480C188.2 480 224 515.8 224 560C224 568.8 216.8 576 208 576C199.2 576 192 568.8 192 560C192 533.5 170.5 512 144 512L80 512C53.5 512 32 533.5 32 560zM528 416C545.7 416 560 401.7 560 384C560 366.3 545.7 352 528 352C510.3 352 496 366.3 496 384C496 401.7 510.3 416 528 416zM528 320C563.3 320 592 348.7 592 384C592 419.3 563.3 448 528 448C492.7 448 464 419.3 464 384C464 348.7 492.7 320 528 320zM496 512C469.5 512 448 533.5 448 560C448 568.8 440.8 576 432 576C423.2 576 416 568.8 416 560C416 515.8 451.8 480 496 480L560 480C604.2 480 640 515.8 640 560C640 568.8 632.8 576 624 576C615.2 576 608 568.8 608 560C608 533.5 586.5 512 560 512L496 512z"/></svg>