<svg xmlns="http://www.w3.org/2000/svg" viewBox="0 0 640 640"><!--! Font Awesome Pro 7.1.0 by @fontawesome - https://fontawesome.com License - https://fontawesome.com/license (Commercial License) Copyright 2025 Fonticons, Inc. --><path fill="currentColor" d="M192 80C192 71.2 184.8 64 176 64C167.2 64 160 71.2 160 80L160 128L128 128C92.7 128 64 156.7 64 192L64 480C64 515.3 92.7 544 128 544L289.4 544C284.7 533.8 280.9 523.1 278 512L128 512C110.3 512 96 497.7 96 480L96 256L512 256L512 192C512 156.7 483.3 128 448 128L416 128L416 80C416 71.2 408.8 64 400 64C391.2 64 384 71.2 384 80L384 128L192 128L192 80zM128 160L448 160C465.7 160 480 174.3 480 192L480 224L96 224L96 192C96 174.3 110.3 160 128 160zM524 558.6C506.7 569.6 486.1 576 464 576C441.9 576 421.3 569.6 404 558.6C411.8 549.5 423.4 544 435.8 544L492.2 544C504.6 544 516.1 549.5 524 558.6zM548.3 537.8C534.5 521.7 514.1 512 492.2 512L435.8 512C414 512 393.6 521.6 379.7 537.8C362.4 518.1 352 492.3 352 464C352 402.1 402.1 352 464 352C525.9 352 576 402.1 576 464C576 492.2 565.5 518.1 548.3 537.8zM608 464C608 384.5 543.5 320 464 320C384.5 320 320 384.5 320 464C320 543.5 384.5 608 464 608C543.5 608 608 543.5 608 464zM464 416C477.3 416 488 426.7 488 440C488 453.3 477.3 464 464 464C450.7 464 440 453.3 440 440C440 426.7 450.7 416 464 416zM464 496C494.9 496 520 470.9 520 440C520 409.1 494.9 384 464 384C433.1 384 408 409.1 408 440C408 470.9 433.1 496 464 496z"/></svg>