<svg xmlns="http://www.w3.org/2000/svg" viewBox="0 0 640 640"><!--! Font Awesome Pro 7.1.0 by @fontawesome - https://fontawesome.com License - https://fontawesome.com/license (Commercial License) Copyright 2025 Fonticons, Inc. --><path fill="currentColor" d="M208 64C216.8 64 224 71.2 224 80L224 128L416 128L416 80C416 71.2 423.2 64 432 64C440.8 64 448 71.2 448 80L448 128L480 128C515.3 128 544 156.7 544 192L544 480C544 515.3 515.3 544 480 544L160 544C124.7 544 96 515.3 96 480L96 192C96 156.7 124.7 128 160 128L192 128L192 80C192 71.2 199.2 64 208 64zM480 160L160 160C142.3 160 128 174.3 128 192L128 224L512 224L512 192C512 174.3 497.7 160 480 160zM512 256L416 256L416 320L512 320L512 256zM512 352L416 352L416 416L512 416L512 352zM512 448L416 448L416 512L480 512C497.7 512 512 497.7 512 480L512 448zM384 416L384 352L256 352L256 416L384 416zM256 448L256 512L384 512L384 448L256 448zM224 416L224 352L128 352L128 416L224 416zM128 448L128 480C128 497.7 142.3 512 160 512L224 512L224 448L128 448zM128 320L224 320L224 256L128 256L128 320zM256 320L384 320L384 256L256 256L256 320z"/></svg>