<svg xmlns="http://www.w3.org/2000/svg" viewBox="0 0 640 640"><!--! Font Awesome Pro 7.1.0 by @fontawesome - https://fontawesome.com License - https://fontawesome.com/license (Commercial License) Copyright 2025 Fonticons, Inc. --><path fill="currentColor" d="M432 64C440.8 64 448 71.2 448 80L448 128L480 128C515.3 128 544 156.7 544 192L544 480C544 515.3 515.3 544 480 544L160 544C124.7 544 96 515.3 96 480L96 192C96 156.7 124.7 128 160 128L192 128L192 80C192 71.2 199.2 64 208 64C216.8 64 224 71.2 224 80L224 128L416 128L416 80C416 71.2 423.2 64 432 64zM160 160C142.3 160 128 174.3 128 192L128 480C128 497.7 142.3 512 160 512L480 512C497.7 512 512 497.7 512 480L512 192C512 174.3 497.7 160 480 160L160 160zM320 464C306.7 464 296 453.3 296 440C296 426.7 306.7 416 320 416C333.3 416 344 426.7 344 440C344 453.3 333.3 464 320 464zM320 208C333.5 208 344.3 219.4 343.5 232.9L335.9 368.9C335.4 377.4 328.4 384 319.9 384C311.4 384 304.4 377.4 303.9 368.9L296.3 232.9C295.5 219.4 306.3 208 319.8 208z"/></svg>