<svg xmlns="http://www.w3.org/2000/svg" viewBox="0 0 640 640"><!--! Font Awesome Pro 7.1.0 by @fontawesome - https://fontawesome.com License - https://fontawesome.com/license (Commercial License) Copyright 2025 Fonticons, Inc. --><path fill="currentColor" d="M144.4 64C153.2 64 160.4 71.2 160.4 80L160.4 128L352.4 128L352.4 80C352.4 71.2 359.6 64 368.4 64C377.2 64 384.4 71.2 384.4 80L384.4 128L416.4 128C451.7 128 480.4 156.7 480.4 192L480.4 287.3C474 291.5 467.9 296.5 462.3 302.1L448.4 316L448.4 192C448.4 174.3 434.1 160 416.4 160L96.4 160C78.7 160 64.4 174.3 64.4 192L64.4 480C64.4 497.7 78.7 512 96.4 512L284.9 512L279.6 544L96.4 544C61.1 544 32.4 515.3 32.4 480L32.4 192C32.4 156.7 61.1 128 96.4 128L128.4 128L128.4 80C128.4 71.2 135.6 64 144.4 64zM144.4 288L368.4 288C377.2 288 384.4 295.2 384.4 304C384.4 312.8 377.2 320 368.4 320L144.4 320C135.6 320 128.4 312.8 128.4 304C128.4 295.2 135.6 288 144.4 288zM144.4 384L272.4 384C281.2 384 288.4 391.2 288.4 400C288.4 408.8 281.2 416 272.4 416L144.4 416C135.6 416 128.4 408.8 128.4 400C128.4 391.2 135.6 384 144.4 384zM373.5 504.1C368.8 508.8 365.7 514.9 364.6 521.5L356.1 572.3L406.9 563.8C413.5 562.7 419.5 559.6 424.3 554.9L526.5 452.7L475.8 402L373.6 504.2zM498.3 379.3L549 430L569.7 409.3C583.7 395.3 583.7 372.6 569.7 358.6C555.7 344.6 533 344.6 519 358.6L498.3 379.3zM333 516.2C335.2 503 341.4 490.9 350.9 481.5L496.4 336C522.9 309.5 565.9 309.5 592.4 336C618.9 362.5 618.9 405.5 592.4 432L446.9 577.5C437.5 586.9 425.3 593.2 412.2 595.4L337.6 607.8C336.8 607.9 336 608 335.2 608C327 608 320.4 601.4 320.4 593.2C320.4 592.4 320.5 591.6 320.6 590.8L333 516.2z"/></svg>