<svg xmlns="http://www.w3.org/2000/svg" viewBox="0 0 640 640"><!--! Font Awesome Pro 7.1.0 by @fontawesome - https://fontawesome.com License - https://fontawesome.com/license (Commercial License) Copyright 2025 Fonticons, Inc. --><path fill="currentColor" d="M208 64C216.8 64 224 71.2 224 80L224 128L416 128L416 80C416 71.2 423.2 64 432 64C440.8 64 448 71.2 448 80L448 128L480 128C515.3 128 544 156.7 544 192L544 480C544 515.3 515.3 544 480 544L160 544C124.7 544 96 515.3 96 480L96 192C96 156.7 124.7 128 160 128L192 128L192 80C192 71.2 199.2 64 208 64zM480 160L160 160C142.3 160 128 174.3 128 192L128 480C128 497.7 142.3 512 160 512L480 512C497.7 512 512 497.7 512 480L512 192C512 174.3 497.7 160 480 160zM240 320C231.2 320 224 327.2 224 336L224 400C224 408.8 231.2 416 240 416L400 416C408.8 416 416 408.8 416 400L416 336C416 327.2 408.8 320 400 320L240 320zM192 336C192 309.5 213.5 288 240 288L400 288C426.5 288 448 309.5 448 336L448 400C448 426.5 426.5 448 400 448L240 448C213.5 448 192 426.5 192 400L192 336z"/></svg>