<svg xmlns="http://www.w3.org/2000/svg" viewBox="0 0 640 640"><!--! Font Awesome Pro 7.1.0 by @fontawesome - https://fontawesome.com License - https://fontawesome.com/license (Commercial License) Copyright 2025 Fonticons, Inc. --><path fill="currentColor" d="M432 64C440.8 64 448 71.2 448 80L448 128L480 128C515.3 128 544 156.7 544 192L544 480C544 515.3 515.3 544 480 544L160 544C124.7 544 96 515.3 96 480L96 192C96 156.7 124.7 128 160 128L192 128L192 80C192 71.2 199.2 64 208 64C216.8 64 224 71.2 224 80L224 128L416 128L416 80C416 71.2 423.2 64 432 64zM160 160C142.3 160 128 174.3 128 192L128 480C128 497.7 142.3 512 160 512L480 512C497.7 512 512 497.7 512 480L512 192C512 174.3 497.7 160 480 160L160 160zM403.1 246.6C408.3 239.5 418.3 237.9 425.4 243.1C432.5 248.3 434.1 258.3 428.9 265.4L300.9 441.4C298.1 445.2 293.9 447.6 289.2 447.9C284.5 448.2 279.9 446.6 276.6 443.3L212.6 379.3C206.4 373.1 206.4 362.9 212.6 356.7C218.8 350.5 229 350.5 235.2 356.7L285.9 407.4L402.9 246.6z"/></svg>