<svg xmlns="http://www.w3.org/2000/svg" viewBox="0 0 640 640"><!--! Font Awesome Pro 7.1.0 by @fontawesome - https://fontawesome.com License - https://fontawesome.com/license (Commercial License) Copyright 2025 Fonticons, Inc. --><path fill="currentColor" d="M208 64C216.8 64 224 71.2 224 80L224 128L416 128L416 80C416 71.2 423.2 64 432 64C440.8 64 448 71.2 448 80L448 128L480 128C515.3 128 544 156.7 544 192L544 480C544 515.3 515.3 544 480 544L160 544C124.7 544 96 515.3 96 480L96 192C96 156.7 124.7 128 160 128L192 128L192 80C192 71.2 199.2 64 208 64zM480 160L160 160C142.3 160 128 174.3 128 192L128 480C128 497.7 142.3 512 160 512L480 512C497.7 512 512 497.7 512 480L512 192C512 174.3 497.7 160 480 160zM348.7 238L368.2 277.6L411.9 284C438.1 287.8 448.6 320.1 429.6 338.6L398 369.4L405.5 412.9C410 439 382.5 459 359.1 446.6L320 426L280.9 446.6C257.4 459 230 439 234.5 412.9L242 369.4L210.4 338.6C191.4 320.1 201.9 287.8 228.1 284L271.8 277.6L291.3 238C303 214.2 337 214.2 348.7 238zM296.7 299.3C294.4 304 289.9 307.3 284.7 308.1L232.7 315.7L270.4 352.4C274.2 356.1 275.9 361.4 275 366.6L266.1 418.4L312.6 393.9C317.3 391.5 322.8 391.5 327.5 393.9L374 418.4L365.1 366.6C364.2 361.4 365.9 356.1 369.7 352.4L407.4 315.7L355.4 308.1C350.2 307.3 345.7 304.1 343.4 299.3L320.1 252.1L296.8 299.3z"/></svg>