<svg xmlns="http://www.w3.org/2000/svg" viewBox="0 0 640 640"><!--! Font Awesome Pro 7.1.0 by @fontawesome - https://fontawesome.com License - https://fontawesome.com/license (Commercial License) Copyright 2025 Fonticons, Inc. --><path fill="currentColor" d="M208 64C216.8 64 224 71.2 224 80L224 128L416 128L416 80C416 71.2 423.2 64 432 64C440.8 64 448 71.2 448 80L448 128L480 128C515.3 128 544 156.7 544 192L544 480C544 515.3 515.3 544 480 544L160 544C124.7 544 96 515.3 96 480L96 192C96 156.7 124.7 128 160 128L192 128L192 80C192 71.2 199.2 64 208 64zM480 160L160 160C142.3 160 128 174.3 128 192L128 480C128 497.7 142.3 512 160 512L480 512C497.7 512 512 497.7 512 480L512 192C512 174.3 497.7 160 480 160zM308.7 427.3L236.7 355.3C230.5 349.1 230.5 338.9 236.7 332.7C242.9 326.5 253.1 326.5 259.3 332.7L304 377.4L304 256C304 247.2 311.2 240 320 240C328.8 240 336 247.2 336 256L336 377.4L380.7 332.7C386.9 326.5 397.1 326.5 403.3 332.7C409.5 338.9 409.5 349.1 403.3 355.3L331.3 427.3C325.1 433.5 314.9 433.5 308.7 427.3z"/></svg>