<svg xmlns="http://www.w3.org/2000/svg" viewBox="0 0 640 640"><!--! Font Awesome Pro 7.1.0 by @fontawesome - https://fontawesome.com License - https://fontawesome.com/license (Commercial License) Copyright 2025 Fonticons, Inc. --><path fill="currentColor" d="M256 80C256 71.2 263.2 64 272 64C280.8 64 288 71.2 288 80L288 128L448 128L448 80C448 71.2 455.2 64 464 64C472.8 64 480 71.2 480 80L480 128L512 128C547.3 128 576 156.7 576 192L576 416C576 451.3 547.3 480 512 480L224 480C188.7 480 160 451.3 160 416L160 192C160 156.7 188.7 128 224 128L256 128L256 80zM464 160L224 160C206.3 160 192 174.3 192 192L192 224L544 224L544 192C544 174.3 529.7 160 512 160L464 160zM192 416C192 433.7 206.3 448 224 448L512 448C529.7 448 544 433.7 544 416L544 256L192 256L192 416zM96 240L96 512C96 529.7 110.3 544 128 544L464 544C472.8 544 480 551.2 480 560C480 568.8 472.8 576 464 576L128 576C92.7 576 64 547.3 64 512L64 240C64 231.2 71.2 224 80 224C88.8 224 96 231.2 96 240z"/></svg>