<svg xmlns="http://www.w3.org/2000/svg" viewBox="0 0 640 640"><!--! Font Awesome Pro 7.1.0 by @fontawesome - https://fontawesome.com License - https://fontawesome.com/license (Commercial License) Copyright 2025 Fonticons, Inc. --><path fill="currentColor" d="M192 80C192 71.2 184.8 64 176 64C167.2 64 160 71.2 160 80L160 128L128 128C92.7 128 64 156.7 64 192L64 480C64 515.3 92.7 544 128 544L289.4 544C284.7 533.8 280.9 523.1 278 512L128 512C110.3 512 96 497.7 96 480L96 256L512 256L512 192C512 156.7 483.3 128 448 128L416 128L416 80C416 71.2 408.8 64 400 64C391.2 64 384 71.2 384 80L384 128L192 128L192 80zM128 160L448 160C465.7 160 480 174.3 480 192L480 224L96 224L96 192C96 174.3 110.3 160 128 160zM352 464C352 402.1 402.1 352 464 352C525.9 352 576 402.1 576 464C576 525.9 525.9 576 464 576C402.1 576 352 525.9 352 464zM608 464C608 384.5 543.5 320 464 320C384.5 320 320 384.5 320 464C320 543.5 384.5 608 464 608C543.5 608 608 543.5 608 464zM480 400C480 391.2 472.8 384 464 384C455.2 384 448 391.2 448 400L448 448L400 448C391.2 448 384 455.2 384 464C384 472.8 391.2 480 400 480L448 480L448 528C448 536.8 455.2 544 464 544C472.8 544 480 536.8 480 528L480 480L528 480C536.8 480 544 472.8 544 464C544 455.2 536.8 448 528 448L480 448L480 400z"/></svg>