<svg xmlns="http://www.w3.org/2000/svg" viewBox="0 0 640 640"><!--! Font Awesome Pro 7.1.0 by @fontawesome - https://fontawesome.com License - https://fontawesome.com/license (Commercial License) Copyright 2025 Fonticons, Inc. --><path fill="currentColor" d="M224 80C224 71.2 216.8 64 208 64C199.2 64 192 71.2 192 80L192 128L160 128C124.7 128 96 156.7 96 192L96 480C96 515.3 124.7 544 160 544L480 544C515.3 544 544 515.3 544 480L544 192C544 156.7 515.3 128 480 128L448 128L448 80C448 71.2 440.8 64 432 64C423.2 64 416 71.2 416 80L416 128L224 128L224 80zM160 160L480 160C497.7 160 512 174.3 512 192L512 480C512 497.7 497.7 512 480 512L160 512C142.3 512 128 497.7 128 480L128 192C128 174.3 142.3 160 160 160zM184 272C184 285.3 194.7 296 208 296C221.3 296 232 285.3 232 272C232 258.7 221.3 248 208 248C194.7 248 184 258.7 184 272zM432 376C418.7 376 408 386.7 408 400C408 413.3 418.7 424 432 424C445.3 424 456 413.3 456 400C456 386.7 445.3 376 432 376zM288 272C288 280.8 295.2 288 304 288L432 288C440.8 288 448 280.8 448 272C448 263.2 440.8 256 432 256L304 256C295.2 256 288 263.2 288 272zM336 384L208 384C199.2 384 192 391.2 192 400C192 408.8 199.2 416 208 416L336 416C344.8 416 352 408.8 352 400C352 391.2 344.8 384 336 384z"/></svg>