<svg xmlns="http://www.w3.org/2000/svg" viewBox="0 0 640 640"><!--! Font Awesome Pro 7.1.0 by @fontawesome - https://fontawesome.com License - https://fontawesome.com/license (Commercial License) Copyright 2025 Fonticons, Inc. --><path fill="currentColor" d="M160 176C160 149.5 181.5 128 208 128L368 128C376.8 128 384 120.8 384 112C384 103.2 376.8 96 368 96L208 96C163.8 96 128 131.8 128 176L128 224C92.7 224 64 252.7 64 288L64 480C64 515.3 92.7 544 128 544L384 544C419.3 544 448 515.3 448 480L448 288C448 252.7 419.3 224 384 224L160 224L160 176zM144 256L384 256C401.7 256 416 270.3 416 288L416 480C416 497.7 401.7 512 384 512L128 512C110.3 512 96 497.7 96 480L96 288C96 270.3 110.3 256 128 256L144 256zM496 300L496 340L576 280L576 488L496 428L496 468L569.6 523.2C573.8 526.3 578.8 528 584 528C597.3 528 608 517.3 608 504L608 264C608 250.7 597.3 240 584 240C578.8 240 573.8 241.7 569.6 244.8L496 300zM144 336C144 344.8 151.2 352 160 352L352 352C360.8 352 368 344.8 368 336C368 327.2 360.8 320 352 320L160 320C151.2 320 144 327.2 144 336z"/></svg>