<svg xmlns="http://www.w3.org/2000/svg" viewBox="0 0 640 640"><!--! Font Awesome Pro 7.1.0 by @fontawesome - https://fontawesome.com License - https://fontawesome.com/license (Commercial License) Copyright 2025 Fonticons, Inc. --><path fill="currentColor" d="M64 128L64 208C64 216.8 71.2 224 80 224C88.8 224 96 216.8 96 208L96 128C96 110.3 110.3 96 128 96L208 96C216.8 96 224 88.8 224 80C224 71.2 216.8 64 208 64L128 64C92.7 64 64 92.7 64 128zM280.6 160C263.9 160 249 170.3 243.1 186L240.8 192L215.9 192C185 192 159.9 217.1 159.9 248L159.9 392C159.9 422.9 185 448 215.9 448L423.9 448C454.8 448 479.9 422.9 479.9 392L479.9 248C479.9 217.1 454.8 192 423.9 192L399 192L396.7 186C391 170.3 376 160 359.4 160L280.7 160zM273.1 197.2C274.3 194.1 277.3 192 280.6 192L359.3 192C362.6 192 365.6 194.1 366.8 197.2L373 213.6C375.3 219.8 381.3 224 388 224L424 224C437.3 224 448 234.7 448 248L448 392C448 405.3 437.3 416 424 416L216 416C202.7 416 192 405.3 192 392L192 248C192 234.7 202.7 224 216 224L252 224C258.7 224 264.6 219.9 267 213.6L273.2 197.2zM288 320C288 302.3 302.3 288 320 288C337.7 288 352 302.3 352 320C352 337.7 337.7 352 320 352C302.3 352 288 337.7 288 320zM384 320C384 284.7 355.3 256 320 256C284.7 256 256 284.7 256 320C256 355.3 284.7 384 320 384C355.3 384 384 355.3 384 320zM512 64L432 64C423.2 64 416 71.2 416 80C416 88.8 423.2 96 432 96L512 96C529.7 96 544 110.3 544 128L544 208C544 216.8 551.2 224 560 224C568.8 224 576 216.8 576 208L576 128C576 92.7 547.3 64 512 64zM64 512C64 547.3 92.7 576 128 576L208 576C216.8 576 224 568.8 224 560C224 551.2 216.8 544 208 544L128 544C110.3 544 96 529.7 96 512L96 432C96 423.2 88.8 416 80 416C71.2 416 64 423.2 64 432L64 512zM512 576C547.3 576 576 547.3 576 512L576 432C576 423.2 568.8 416 560 416C551.2 416 544 423.2 544 432L544 512C544 529.7 529.7 544 512 544L432 544C423.2 544 416 551.2 416 560C416 568.8 423.2 576 432 576L512 576z"/></svg>