<svg xmlns="http://www.w3.org/2000/svg" viewBox="0 0 640 640"><!--! Font Awesome Pro 7.1.0 by @fontawesome - https://fontawesome.com License - https://fontawesome.com/license (Commercial License) Copyright 2025 Fonticons, Inc. --><path fill="currentColor" d="M320 96C443.7 96 544 196.3 544 320C544 443.7 443.7 544 320 544C196.3 544 96 443.7 96 320C96 196.3 196.3 96 320 96zM320 576C461.4 576 576 461.4 576 320C576 178.6 461.4 64 320 64C178.6 64 64 178.6 64 320C64 461.4 178.6 576 320 576zM264.6 186.1L248.9 208L232 208C201.1 208 176 233.1 176 264L176 376C176 406.9 201.1 432 232 432L408 432C438.9 432 464 406.9 464 376L464 264C464 233.1 438.9 208 408 208L391.1 208L375.4 186.1C370.9 179.8 363.6 176 355.9 176L284.1 176C276.3 176 269.1 179.7 264.6 186.1zM288.2 208L351.7 208L369.8 233.3C372.8 237.5 377.7 240 382.8 240L407.9 240C421.2 240 431.9 250.7 431.9 264L431.9 376C431.9 389.3 421.2 400 407.9 400L231.9 400C218.6 400 207.9 389.3 207.9 376L207.9 264C207.9 250.7 218.6 240 231.9 240L257 240C262.2 240 267 237.5 270 233.3L288.2 208zM296 312C296 298.7 306.7 288 320 288C333.3 288 344 298.7 344 312C344 325.3 333.3 336 320 336C306.7 336 296 325.3 296 312zM376 312C376 281.1 350.9 256 320 256C289.1 256 264 281.1 264 312C264 342.9 289.1 368 320 368C350.9 368 376 342.9 376 312z"/></svg>