<svg xmlns="http://www.w3.org/2000/svg" viewBox="0 0 640 640"><!--! Font Awesome Pro 7.1.0 by @fontawesome - https://fontawesome.com License - https://fontawesome.com/license (Commercial License) Copyright 2025 Fonticons, Inc. --><path fill="currentColor" d="M96 512L544 512C561.7 512 576 497.7 576 480L576 435.4C576 429.1 574.1 422.9 570.6 417.6L569.5 416L70.4 416L69.3 417.6C65.8 422.9 63.9 429 63.9 435.4L64 480C64 497.7 78.3 512 96 512zM548.2 384L520.1 341.8C514.8 333.9 512 324.6 512 315.2L512 160C512 142.3 497.7 128 480 128L160 128C142.3 128 128 142.3 128 160L128 315.2C128 324.7 125.2 333.9 119.9 341.8L91.8 384L548.2 384zM544 544L96 544C60.7 544 32 515.3 32 480L32 435.4C32 422.8 35.7 410.4 42.7 399.9L93.3 324C95.1 321.4 96 318.3 96 315.1L96 160C96 124.7 124.7 96 160 96L480 96C515.3 96 544 124.7 544 160L544 315.2C544 318.4 544.9 321.4 546.7 324.1L597.3 399.9C604.3 410.4 608 422.8 608 435.4L608 480C608 515.3 579.3 544 544 544zM448 216C434.7 216 424 205.3 424 192C424 178.7 434.7 168 448 168C461.3 168 472 178.7 472 192C472 205.3 461.3 216 448 216zM320 208C293.5 208 272 229.5 272 256C272 282.5 293.5 304 320 304C346.5 304 368 282.5 368 256C368 229.5 346.5 208 320 208zM400 256C400 300.2 364.2 336 320 336C275.8 336 240 300.2 240 256C240 211.8 275.8 176 320 176C364.2 176 400 211.8 400 256zM144 448L496 448C504.8 448 512 455.2 512 464C512 472.8 504.8 480 496 480L144 480C135.2 480 128 472.8 128 464C128 455.2 135.2 448 144 448z"/></svg>