<svg xmlns="http://www.w3.org/2000/svg" viewBox="0 0 640 640"><!--! Font Awesome Pro 7.1.0 by @fontawesome - https://fontawesome.com License - https://fontawesome.com/license (Commercial License) Copyright 2025 Fonticons, Inc. --><path fill="currentColor" d="M178.2 101.1C161.6 95.1 143.2 103.6 137.2 120.2L82.4 270.6C76.4 287.2 84.9 305.6 101.5 311.6L309.4 387.2L503 219.3L178.2 101.1zM107.1 109.3C119.2 76.1 155.9 58.9 189.1 71L513.9 189.2C536.8 197.5 542.4 227.5 523.9 243.4L330.4 411.4C321.6 419 309.4 421.3 298.5 417.3L224.3 390.3L224.3 480C224.3 506.5 202.8 528 176.3 528L96.3 528L96.3 560C96.3 568.8 89.1 576 80.3 576C71.5 576 64.3 568.8 64.3 560L64.3 464C64.3 455.2 71.5 448 80.3 448C89.1 448 96.3 455.2 96.3 464L96.3 496L176.3 496C185.1 496 192.3 488.8 192.3 480L192.3 384L192.3 378.7L90.6 341.7C57.4 329.6 40.3 292.9 52.3 259.7L107.1 109.3zM481.5 483.9L367.7 442.5L395.4 418.5L492.5 453.8L536.3 333.5L506 322.5L533.6 298.5L547.2 303.4C563.8 309.4 572.4 327.8 566.3 344.4L522.6 464.8C516.6 481.4 498.2 490 481.6 483.9z"/></svg>