<svg xmlns="http://www.w3.org/2000/svg" viewBox="0 0 640 640"><!--! Font Awesome Pro 7.1.0 by @fontawesome - https://fontawesome.com License - https://fontawesome.com/license (Commercial License) Copyright 2025 Fonticons, Inc. --><path fill="currentColor" d="M75.3 36.7L128 89.4L180.7 36.7C186.9 30.5 197.1 30.5 203.3 36.7C209.5 42.9 209.5 53.1 203.3 59.3L139.3 123.3C133.1 129.5 122.9 129.5 116.7 123.3L52.7 59.3C46.5 53.1 46.5 42.9 52.7 36.7C58.9 30.5 69.1 30.5 75.3 36.7zM208.9 119.8C217.5 105.1 233.3 96 250.4 96L389.6 96C406.7 96 422.5 105.1 431.1 119.8L454.5 160L512 160C547.3 160 576 188.7 576 224L576 480C576 515.3 547.3 544 512 544L128 544C92.7 544 64 515.3 64 480L64 224C64 188.7 92.7 160 128 160L185.5 160L208.9 119.8zM250.4 128C244.7 128 239.4 131 236.6 135.9L208.5 184C205.6 188.9 200.4 191.9 194.7 191.9L128 192C110.3 192 96 206.3 96 224L96 480C96 497.7 110.3 512 128 512L512 512C529.7 512 544 497.7 544 480L544 224C544 206.3 529.7 192 512 192L445.3 192C439.6 192 434.3 189 431.5 184.1L403.4 135.9C400.5 131 395.3 128 389.6 128L250.4 128zM208 352C208 290.1 258.1 240 320 240C381.9 240 432 290.1 432 352C432 413.9 381.9 464 320 464C258.1 464 208 413.9 208 352zM320 432C364.2 432 400 396.2 400 352C400 307.8 364.2 272 320 272C275.8 272 240 307.8 240 352C240 396.2 275.8 432 320 432z"/></svg>