<svg xmlns="http://www.w3.org/2000/svg" viewBox="0 0 640 640"><!--! Font Awesome Pro 7.1.0 by @fontawesome - https://fontawesome.com License - https://fontawesome.com/license (Commercial License) Copyright 2025 Fonticons, Inc. --><path fill="currentColor" d="M59.3 36.8C53.1 30.6 42.9 30.6 36.7 36.8C30.5 43 30.5 53.2 36.7 59.4L580.7 603.4C586.9 609.6 597.1 609.6 603.3 603.4C609.5 597.2 609.5 587 603.3 580.8L552.3 529.8C566.7 518 576 500.1 576 480L576 224C576 188.7 547.3 160 512 160L454.5 160L431.1 119.8C422.5 105.1 406.7 96 389.6 96L250.4 96C233.3 96 217.5 105.1 208.9 119.8L185.5 160L182.5 160L59.3 36.8zM207.7 185.2C208 184.8 208.2 184.4 208.4 184L236.5 135.9C239.4 131 244.6 128 250.3 128L389.5 128C395.2 128 400.5 131 403.3 135.9L431.4 184C434.3 188.9 439.5 191.9 445.2 191.9L511.9 191.9C529.6 191.9 543.9 206.2 543.9 223.9L543.9 479.9C543.9 491.2 538.1 501.1 529.3 506.8L421.6 399.1C428.2 384.8 432 368.8 432 352C432 290.1 381.9 240 320 240C303.2 240 287.2 243.7 272.9 250.4L207.8 185.3zM396.8 374.3L297.6 275.1C304.7 273 312.2 271.9 319.9 271.9C364.1 271.9 399.9 307.7 399.9 351.9C399.9 359.6 398.8 367.1 396.7 374.2zM64 224L64 480C64 515.3 92.7 544 128 544L453.5 544L421.5 512L128 512C110.3 512 96 497.7 96 480L96 224C96 213.8 100.8 204.7 108.3 198.8L85.6 176.1C72.3 187.8 64 204.9 64 224zM208 352C208 413.9 258.1 464 320 464C335.8 464 350.8 460.7 364.4 454.9L339.2 429.7C333.1 431.2 326.6 432 320 432C275.8 432 240 396.2 240 352C240 345.4 240.8 339 242.3 332.8L217.1 307.6C211.2 321.2 208 336.2 208 352z"/></svg>