<svg xmlns="http://www.w3.org/2000/svg" viewBox="0 0 640 640"><!--! Font Awesome Pro 7.1.0 by @fontawesome - https://fontawesome.com License - https://fontawesome.com/license (Commercial License) Copyright 2025 Fonticons, Inc. --><path fill="currentColor" d="M250.4 96C233.3 96 217.5 105.1 208.9 119.8L185.5 160L128 160C92.7 160 64 188.7 64 224L64 480C64 515.3 92.7 544 128 544L321.4 544C316.7 533.8 312.9 523.1 310 512L128 512C110.3 512 96 497.7 96 480L96 224C96 206.3 110.3 192 128 192L194.7 192C200.4 192 205.7 189 208.5 184.1L236.6 136C239.5 131.1 244.7 128.1 250.4 128.1L389.6 128.1C395.3 128.1 400.6 131.1 403.4 136L431.5 184.1C434.4 189 439.6 192 445.3 192L512 192C529.7 192 544 206.3 544 224L544 278C555.1 280.9 565.8 284.7 576 289.4L576 224C576 188.7 547.3 160 512 160L454.5 160L431.1 119.8C422.5 105.1 406.7 96 389.6 96L250.4 96zM320 240C258.1 240 208 290.1 208 352C208 408.4 249.7 455.1 304 462.9C304.1 452 305 441.3 306.8 431C268.9 424.7 240 391.8 240 352.1C240 307.9 275.8 272.1 320 272.1C347.4 272.1 371.5 285.8 385.9 306.8C394.6 300.7 403.9 295.3 413.6 290.6C393.6 260.2 359.1 240.1 320 240.1zM496 576C434.1 576 384 525.9 384 464C384 402.1 434.1 352 496 352C557.9 352 608 402.1 608 464C608 525.9 557.9 576 496 576zM496 320C416.5 320 352 384.5 352 464C352 543.5 416.5 608 496 608C575.5 608 640 543.5 640 464C640 384.5 575.5 320 496 320zM516 464C516 453 507 444 496 444C485 444 476 453 476 464C476 475 485 484 496 484C507 484 516 475 516 464zM560 484C571 484 580 475 580 464C580 453 571 444 560 444C549 444 540 453 540 464C540 475 549 484 560 484zM452 464C452 453 443 444 432 444C421 444 412 453 412 464C412 475 421 484 432 484C443 484 452 475 452 464z"/></svg>