<svg xmlns="http://www.w3.org/2000/svg" viewBox="0 0 640 640"><!--! Font Awesome Pro 7.1.0 by @fontawesome - https://fontawesome.com License - https://fontawesome.com/license (Commercial License) Copyright 2025 Fonticons, Inc. --><path fill="currentColor" d="M59.3 36.8C53.1 30.6 42.9 30.6 36.7 36.8C30.5 43 30.5 53.2 36.7 59.4L580.7 603.4C586.9 609.6 597.1 609.6 603.3 603.4C609.5 597.2 609.5 587 603.3 580.8L473.6 451.1C516.9 410.2 544 352.3 544 288C544 164.3 443.7 64 320 64C255.7 64 197.8 91.1 156.9 134.4L59.3 36.8zM179.6 157.1C214.6 119.5 264.6 96 320 96C426 96 512 182 512 288C512 343.4 488.5 393.4 451 428.4L405.7 383.1C431.7 359.7 448 325.7 448 288C448 217.3 390.7 160 320 160C282.2 160 248.3 176.3 224.9 202.3L179.6 157.1zM383 360.5L247.5 225C265.1 204.8 291 192 320 192C373 192 416 235 416 288C416 316.9 403.2 342.9 383 360.5zM112.6 203.1C101.9 229.3 96 258 96 288C96 406.3 187.8 503.2 304 511.4L304 544L224 544C215.2 544 208 551.2 208 560C208 568.8 215.2 576 224 576L416 576C424.8 576 432 568.8 432 560C432 551.2 424.8 544 416 544L336 544L336 511.4C360.2 509.7 383.4 504.1 404.9 495.3L380 470.4C361.1 476.6 341 479.9 320.1 479.9C214.1 479.9 128.1 393.9 128.1 287.9C128.1 267 131.5 246.8 137.6 228L112.6 203.1z"/></svg>