<svg xmlns="http://www.w3.org/2000/svg" viewBox="0 0 640 640"><!--! Font Awesome Pro 7.1.0 by @fontawesome - https://fontawesome.com License - https://fontawesome.com/license (Commercial License) Copyright 2025 Fonticons, Inc. --><path fill="currentColor" d="M64 192C64 130.1 114.1 80 176 80C209.4 80 239.5 94.6 260 117.9C263 121.3 267.4 123.3 272 123.3C276.6 123.3 281 121.3 284 117.9C304.5 94.6 334.6 80 368 80C429.9 80 480 130.1 480 192C480 253.9 429.9 304 368 304L176 304C114.1 304 64 253.9 64 192zM176 48C96.5 48 32 112.5 32 192C32 271.5 96.5 336 176 336L368 336C447.5 336 512 271.5 512 192C512 112.5 447.5 48 368 48C331.1 48 297.5 61.9 272 84.7C246.5 61.9 212.9 48 176 48zM344 192C344 178.7 354.7 168 368 168C381.3 168 392 178.7 392 192C392 205.3 381.3 216 368 216C354.7 216 344 205.3 344 192zM424 192C424 161.1 398.9 136 368 136C337.1 136 312 161.1 312 192C312 222.9 337.1 248 368 248C398.9 248 424 222.9 424 192zM496 332L496 372L576 312L576 520L496 460L496 500L569.6 555.2C573.8 558.3 578.8 560 584 560C597.3 560 608 549.3 608 536L608 296C608 282.7 597.3 272 584 272C578.8 272 573.8 273.7 569.6 276.8L496 332zM96 375.4L96 480C96 515.3 124.7 544 160 544L384 544C419.3 544 448 515.3 448 480L448 375.4C437.8 379.9 427.1 383.5 416 386.2L416 480C416 497.7 401.7 512 384 512L160 512C142.3 512 128 497.7 128 480L128 386.2C116.9 383.5 106.2 379.8 96 375.4zM176 168C189.3 168 200 178.7 200 192C200 205.3 189.3 216 176 216C162.7 216 152 205.3 152 192C152 178.7 162.7 168 176 168zM176 248C206.9 248 232 222.9 232 192C232 161.1 206.9 136 176 136C145.1 136 120 161.1 120 192C120 222.9 145.1 248 176 248z"/></svg>