<svg xmlns="http://www.w3.org/2000/svg" viewBox="0 0 640 640"><!--! Font Awesome Pro 7.1.0 by @fontawesome - https://fontawesome.com License - https://fontawesome.com/license (Commercial License) Copyright 2025 Fonticons, Inc. --><path fill="currentColor" d="M160 96C142.3 96 128 110.3 128 128L128 416C128 433.7 142.3 448 160 448L480 448C497.7 448 512 433.7 512 416L512 128C512 110.3 497.7 96 480 96L160 96zM96 128C96 92.7 124.7 64 160 64L480 64C515.3 64 544 92.7 544 128L544 416C544 451.3 515.3 480 480 480L336 480L336 544L416 544C424.8 544 432 551.2 432 560C432 568.8 424.8 576 416 576L224 576C215.2 576 208 568.8 208 560C208 551.2 215.2 544 224 544L304 544L304 480L160 480C124.7 480 96 451.3 96 416L96 128zM400 272C400 227.8 364.2 192 320 192C275.8 192 240 227.8 240 272C240 316.2 275.8 352 320 352C364.2 352 400 316.2 400 272zM208 272C208 210.1 258.1 160 320 160C381.9 160 432 210.1 432 272C432 333.9 381.9 384 320 384C258.1 384 208 333.9 208 272z"/></svg>