<svg xmlns="http://www.w3.org/2000/svg" viewBox="0 0 640 640"><!--! Font Awesome Pro 7.1.0 by @fontawesome - https://fontawesome.com License - https://fontawesome.com/license (Commercial License) Copyright 2025 Fonticons, Inc. --><path fill="currentColor" d="M290.4 94.1C303.8 106.6 315.2 120.2 327.7 135.4C334.7 143.9 347.6 144.3 355.1 136.3C359.6 131.5 367.8 122.7 373.3 117.4C404.8 147.4 435.1 194.4 435.1 238.6C435.1 267.5 424.9 293.8 407.9 314.1C408.5 310.4 408.8 306.5 408.8 302.6C408.8 250.4 350.8 202.2 329.4 186.1C324.7 182.6 318.4 182.6 313.7 186.1C292.2 202.2 234.3 250.5 234.3 302.6C234.3 307.9 234.9 313.2 235.9 318.2C216.7 297.5 205.1 269.5 205.1 238.6C205.1 213.5 216.2 186.5 233.3 160.3C249.8 135.1 271.1 111.9 290.6 94.1zM379.7 302.6C379.7 328.4 357.7 352.7 326.1 354.8C324.4 354.9 322.7 354.9 320.9 355C287.2 354.7 263.3 329.5 263.3 302.6C263.3 286.8 272.5 268.3 288.2 249.4C299.2 236.2 311.7 224.9 321.5 216.8C331.3 224.8 343.7 236.1 354.8 249.4C370.5 268.3 379.7 286.8 379.7 302.6zM272.6 71C251.4 90.2 227.5 115.8 208.8 144.4C190.2 172.8 175.9 205.5 175.9 238.6C175.9 319.2 239.9 384.1 320 384.1C400.1 384.1 464.1 319.3 464.1 238.6C464.1 181.8 426 126.7 391.3 94.4C381.2 85 365.4 84.9 355.2 94.3C351.6 97.6 346.7 102.7 342.2 107.4C331.7 94.8 320.9 82.6 308.2 71C304 67.1 298.5 64.1 291.2 64.1C285.7 64.1 278.1 65.8 272.5 71zM85.9 353.1C77.7 349.8 68.4 353.8 65.1 362C61.8 370.2 65.8 379.5 74 382.8L276.9 464L74.1 545.1C65.9 548.4 61.9 557.7 65.2 565.9C68.5 574.1 77.8 578.1 86 574.8L320 481.2L554.1 574.9C562.3 578.2 571.6 574.2 574.9 566C578.2 557.8 574.2 548.5 566 545.2L363.1 464L565.9 382.9C574.1 379.6 578.1 370.3 574.8 362.1C571.5 353.9 562.2 349.9 554 353.2L320 446.8L85.9 353.1z"/></svg>