<svg xmlns="http://www.w3.org/2000/svg" viewBox="0 0 640 640"><!--! Font Awesome Pro 7.1.0 by @fontawesome - https://fontawesome.com License - https://fontawesome.com/license (Commercial License) Copyright 2025 Fonticons, Inc. --><path fill="currentColor" d="M394.3 83.8C401.1 89.5 401.9 99.6 396.2 106.3L340.9 171.8L566.6 439C572.7 446.2 576 455.4 576 464.8L576 512C576 529.7 561.7 544 544 544L96 544C78.3 544 64 529.7 64 512L64 464.8C64 455.4 67.3 446.2 73.4 439L299 171.8L243.7 106.3C238 99.5 238.9 89.5 245.6 83.8C252.3 78.1 262.4 79 268.1 85.7L320 147L371.8 85.7C377.5 78.9 387.6 78.1 394.3 83.8zM97.9 459.6C96.7 461 96 462.9 96 464.8L96 512L170.6 512L180.1 501.4L308.1 357.4C311.1 354 315.5 352 320.1 352C324.7 352 329 354 332.1 357.4L460.1 501.4L469.5 512L544.1 512L544.1 464.8C544.1 462.9 543.4 461.1 542.2 459.6L320 196.6L97.9 459.6zM213.4 512L426.6 512L320 392.1L213.4 512z"/></svg>