<svg xmlns="http://www.w3.org/2000/svg" viewBox="0 0 640 640"><!--! Font Awesome Pro 7.1.0 by @fontawesome - https://fontawesome.com License - https://fontawesome.com/license (Commercial License) Copyright 2025 Fonticons, Inc. --><path fill="currentColor" d="M464 496L464 349.6C451.2 356.1 436.3 361.5 420.3 365.8C413.8 367.5 407 369.1 399.9 370.5C398.6 413.5 363.3 448.1 319.9 448.1C276.5 448.1 241.2 413.6 239.9 370.5C232.9 369.1 226.1 367.5 219.5 365.8C203.5 361.5 188.7 356.1 175.8 349.6L176 496C176 499 177.5 503.5 183.6 509.3C189.7 515.1 199.5 521.1 212.8 526.4C239.4 537.1 277.3 544 320 544C362.7 544 400.6 537.1 427.2 526.4C440.6 521.1 450.3 515.1 456.4 509.3C462.5 503.5 464 499 464 496zM464 312.3L464 191.6C456.6 196.3 448.1 200.5 439.1 204.1C407.8 216.6 365.7 224 320 224C274.3 224 232.2 216.6 200.9 204.1C191.8 200.5 183.4 196.3 176 191.6L176 312.3C187.7 320.8 205.3 328.7 227.9 334.8C233.5 336.3 239.3 337.7 245.4 338.9C257 309.1 286 288 319.9 288C353.8 288 382.8 309.1 394.4 338.9C400.5 337.7 406.3 336.3 411.9 334.8C434.6 328.7 452.2 320.8 463.8 312.3zM176 144C176 147 177.5 151.5 183.6 157.3C189.7 163.1 199.5 169.1 212.8 174.4C239.4 185.1 277.3 192 320 192C362.7 192 400.6 185.1 427.2 174.4C440.6 169.1 450.3 163.1 456.4 157.3C462.5 151.5 464 147 464 144C464 141 462.5 136.5 456.4 130.7C450.3 124.9 440.6 118.9 427.2 113.6C400.6 102.9 362.7 96 320 96C277.3 96 239.4 102.9 212.8 113.6C199.4 118.9 189.7 124.9 183.6 130.7C177.5 136.5 176 141 176 144zM496 144L496 504C496 543.8 417.2 576 320 576C222.8 576 144 543.8 144 504L144 136C144 96.2 222.8 64 320 64C417.2 64 496 96.2 496 136L496 144zM320 416C346.5 416 368 394.5 368 368C368 341.5 346.5 320 320 320C293.5 320 272 341.5 272 368C272 394.5 293.5 416 320 416z"/></svg>