<svg xmlns="http://www.w3.org/2000/svg" viewBox="0 0 640 640"><!--! Font Awesome Pro 7.1.0 by @fontawesome - https://fontawesome.com License - https://fontawesome.com/license (Commercial License) Copyright 2025 Fonticons, Inc. --><path fill="currentColor" d="M339.1 159.3L316.5 181.9C304 194.4 283.7 194.4 271.2 181.9C258.7 169.4 258.7 149.1 271.2 136.6L293.8 114C310.5 97.3 330.8 86.1 352.1 80.6L352.1 149.2C347.4 151.9 343 155.3 339 159.3zM416.9 149.4C406.9 143.5 395.5 140.5 384.2 140.5L384.2 76.5C412 76.5 439.8 85.4 462.9 103.4L416.9 149.4zM439.5 172L485.5 126C500.7 145.6 509.5 168.5 511.8 192L447.2 192C445.8 185 443.3 178.3 439.6 172zM510.9 224C507.4 247 497.5 269.3 481.4 288L391.4 288L429.6 249.8C437.1 242.3 442.3 233.5 445.3 224L510.8 224zM295.4 384L359.4 320L449.9 320L385.9 384L295.4 384zM353.9 416L289.9 480L199.4 480L263.4 416L353.9 416zM169.4 555.2C157.6 543.4 156.9 524.5 167.6 512L257.9 512L214.7 555.2C202.2 567.7 181.9 567.7 169.4 555.2zM361.7 181.9C374.2 169.4 394.5 169.4 407 181.9C419.5 194.4 419.5 214.7 407 227.2L146.7 487.4C121.7 512.4 121.7 552.9 146.7 577.9C171.7 602.9 212.2 602.9 237.2 577.9L497.5 317.7C560 255.2 560 153.9 497.5 91.4C435 28.9 333.7 28.9 271.2 91.4L248.6 114C223.6 139 223.6 179.5 248.6 204.5C273.6 229.5 314.1 229.5 339.1 204.5L361.7 181.9z"/></svg>