<svg xmlns="http://www.w3.org/2000/svg" viewBox="0 0 640 640"><!--! Font Awesome Pro 7.1.0 by @fontawesome - https://fontawesome.com License - https://fontawesome.com/license (Commercial License) Copyright 2025 Fonticons, Inc. --><path fill="currentColor" d="M607.9 158.7C608.5 165.5 604.6 172 598.3 174.7L500.5 216.6C518 247.1 528 282.4 528 320C528 434.9 434.9 528 320 528C282.4 528 247.1 518 216.6 500.5L174.7 598.2C172 604.5 165.6 608.4 158.7 607.8C151.8 607.2 146.1 602.4 144.5 595.7L132.7 548.5L101.1 559C95.4 560.9 89 559.4 84.7 555.1C80.4 550.8 78.9 544.5 80.8 538.7L91.3 507.1L44.1 495.3C37.5 493.9 32.6 488.1 32.1 481.3C31.6 474.5 35.4 468 41.7 465.3L139.4 423.4C122 393 112 357.7 112 320C112 205.1 205.1 112 320 112C357.6 112 392.9 122 423.4 139.5L465.3 41.7C468 35.4 474.4 31.5 481.3 32.1C488.2 32.7 493.9 37.5 495.5 44.2L507.3 91.4L538.9 80.9C544.7 79 551 80.5 555.3 84.8C559.6 89.1 561.1 95.4 559.2 101.2L548.7 132.8L595.9 144.6C602.6 146.3 607.4 152 608 158.8zM450.3 157.9C462 167.3 472.7 178 482.1 189.7L542.1 164L524.2 159.5C519.9 158.4 516.2 155.6 514.1 151.7C512 147.8 511.5 143.2 512.9 138.9L518.8 121.3L501.2 127.2C497 128.6 492.3 128.2 488.4 126C484.5 123.8 481.7 120.2 480.6 115.9L476 98L450.3 157.9zM422.8 462.8L144.4 307.5C144.1 311.6 144 315.8 144 320C144 417.2 222.8 496 320 496C358.4 496 393.9 483.7 422.9 462.8zM448.3 440.4C466.2 421.3 479.9 398.2 487.9 372.6L190 201.3C171.4 221.7 157.5 246.5 150 274L448.3 440.4zM494.8 339.7C495.5 333.2 495.9 326.7 495.9 320C495.9 222.8 417.1 144 319.9 144C280.6 144 244.2 156.9 214.9 178.7L494.9 339.7zM157.8 450.3L98 476L115.9 480.5C120.2 481.6 123.9 484.4 126 488.3C128.1 492.2 128.6 496.8 127.2 501.1L121.3 518.7L138.9 512.8C143.1 511.4 147.8 511.8 151.7 514C155.6 516.2 158.4 519.8 159.5 524.1L164 542L189.7 482.1C178 472.7 167.3 462 157.9 450.3z"/></svg>