<svg xmlns="http://www.w3.org/2000/svg" viewBox="0 0 640 640"><!--! Font Awesome Pro 7.1.0 by @fontawesome - https://fontawesome.com License - https://fontawesome.com/license (Commercial License) Copyright 2025 Fonticons, Inc. --><path fill="currentColor" d="M334.5 177.7C363.4 170.6 402.5 164.9 451.3 164.9C500.1 164.9 539.2 170.6 568.1 177.7C573.3 156.1 577 136.1 579.4 118.8C579.7 116.6 579.2 115.1 578.8 114.4C578.6 114.1 578.4 113.9 578.3 113.8C578.2 113.7 578 113.6 577.6 113.4C553.4 105.2 511.1 96 451.3 96C391.5 96 349.2 105.3 325 113.4C324.6 113.5 324.4 113.7 324.3 113.8C324.2 113.9 324 114.1 323.8 114.4C323.4 115.1 322.9 116.6 323.2 118.8C325.6 136.1 329.3 156.1 334.5 177.7zM342.7 208.6C349.9 233.6 359.1 259.9 370.5 286.3C393.5 282.8 420.4 280.6 451.3 280.6C482.2 280.6 509.1 282.9 532.1 286.3C543.5 259.9 552.7 233.6 559.9 208.6C533.6 202.2 497.3 196.9 451.3 196.9C405.3 196.9 369 202.2 342.7 208.6zM449.2 414.6C449.6 415.1 450 415.3 450.2 415.4C450.5 415.5 450.8 415.6 451.2 415.6C451.6 415.6 451.9 415.5 452.2 415.4C452.5 415.3 452.8 415.1 453.2 414.6C479.2 384.9 500.5 351.2 517.8 316.7C498.5 314.2 476.3 312.6 451.1 312.6C425.9 312.6 403.7 314.2 384.4 316.7C401.7 351.2 423 384.8 449 414.6zM425.1 435.7C339.4 337.8 302.4 202.4 291.5 123.2C289 105.7 297.9 88.8 314.7 83.1C342.5 73.7 388.3 64 451.2 64C514.1 64 560 73.7 587.8 83.1C604.6 88.8 613.5 105.6 611 123.2C600 202.3 563.1 337.7 477.4 435.6C463.5 451.5 439.1 451.5 425.1 435.6zM309.4 461.9C280.5 469 241.4 474.7 192.6 474.7C143.8 474.7 104.7 469 75.8 461.9C70.6 483.5 66.9 503.5 64.5 520.8C64.2 523 64.7 524.5 65.1 525.2C65.3 525.5 65.5 525.7 65.6 525.8C65.7 525.9 65.9 526 66.3 526.2C90.5 534.4 132.8 543.6 192.6 543.6C252.4 543.6 294.7 534.3 318.9 526.2C319.3 526.1 319.5 525.9 319.6 525.8C319.7 525.7 319.9 525.5 320.1 525.2C320.5 524.5 321 523 320.7 520.8C318.3 503.5 314.6 483.5 309.4 461.9zM301.2 431C294 406 284.8 379.7 273.4 353.3C250.4 356.8 223.5 359 192.6 359C161.7 359 134.8 356.7 111.8 353.3C100.4 379.7 91.2 406 84 431C110.3 437.4 146.6 442.7 192.6 442.7C238.6 442.7 274.9 437.4 301.2 431zM194.7 225C194.3 224.5 193.9 224.3 193.7 224.2C193.4 224.1 193.1 224 192.7 224C192.3 224 192 224.1 191.7 224.2C191.4 224.3 191.1 224.5 190.7 225C164.7 254.7 143.4 288.4 126.1 322.9C145.4 325.4 167.6 327 192.8 327C218 327 240.2 325.4 259.5 322.9C242.2 288.4 220.9 254.8 194.9 225zM218.8 203.9C304.5 301.8 341.5 437.2 352.4 516.3C354.8 533.9 345.9 550.7 329.2 556.4C301.5 565.8 255.6 575.5 192.7 575.5C129.8 575.5 83.8 565.8 56.1 556.4C39.3 550.7 30.4 533.9 32.9 516.3C43.9 437.2 80.8 301.8 166.5 203.9C180.4 188 204.8 188 218.8 203.9z"/></svg>