<svg xmlns="http://www.w3.org/2000/svg" viewBox="0 0 640 640"><!--! Font Awesome Pro 7.1.0 by @fontawesome - https://fontawesome.com License - https://fontawesome.com/license (Commercial License) Copyright 2025 Fonticons, Inc. --><path fill="currentColor" d="M266.5 486.2C256.1 492.5 247.7 497.3 241.9 500.3C186.6 527.8 119.4 505.4 91.8 450.1C64.2 394.8 86.5 327.6 141.7 299.9C164.8 288.8 234.4 262.5 314.1 233.6C393 205 479.1 174.7 532.7 155.9C547.7 150.7 564.3 157.3 571.5 171.8L602.2 233.2C609.4 247.7 604.8 265 591.6 273.8C568.1 289.6 537.4 310.1 503.9 332.3C511.3 340 517.8 348.6 523.4 357.8C556.3 335.9 586.3 315.9 609.4 300.4C636.1 282.5 645.1 247.7 630.8 218.9L600.2 157.5C585.8 128.8 552.5 115.1 522.2 125.7C414.8 163.3 177.1 247.2 127.6 271.2C77 296.5 47.9 347.5 48 400.5L35.4 406.8C3.8 422.6-9.1 461 6.8 492.6C22.7 524.2 61 537 92.6 521.2L105.2 514.9C147.5 546.8 205.8 554 256.4 528.7C262.5 525.5 271.2 520.6 281.8 514.2C275.7 505.5 270.6 496 266.5 486.1zM80.7 491.4L78.3 492.6C62.5 500.5 43.3 494.1 35.4 478.3C27.5 462.5 33.9 443.3 49.7 435.4L52.1 434.2C54.6 444.5 58.3 454.6 63.2 464.4C68.1 474.2 74 483.3 80.7 491.4zM320 432C320 387.8 355.8 352 400 352C444.2 352 480 387.8 480 432C480 476.2 444.2 512 400 512C355.8 512 320 476.2 320 432zM512 432C512 370.1 461.9 320 400 320C338.1 320 288 370.1 288 432C288 493.9 338.1 544 400 544C461.9 544 512 493.9 512 432zM400 456C413.3 456 424 445.3 424 432C424 418.7 413.3 408 400 408C386.7 408 376 418.7 376 432C376 445.3 386.7 456 400 456z"/></svg>