<svg xmlns="http://www.w3.org/2000/svg" viewBox="0 0 640 640"><!--! Font Awesome Pro 7.1.0 by @fontawesome - https://fontawesome.com License - https://fontawesome.com/license (Commercial License) Copyright 2025 Fonticons, Inc. --><path fill="currentColor" d="M333.3 71.1C330.3 66.7 325.4 64 320 64C315.3 64 310.9 66 307.9 69.5L306.7 71.1C292.5 92.3 272.9 131.1 258.6 175.2C248.3 206.9 240.5 242.5 240 276.7C188.5 240.6 125.4 220.9 91.1 214C85.9 213 80.4 214.6 76.7 218.4C73 222.2 71.3 227.6 72.3 232.9C79.4 268.3 100.4 334.3 139.1 386.4C117.6 395.3 98.6 406 86 413.1C83.9 414.3 81.9 415.4 80.2 416.4C75.1 419.2 72 424.6 71.9 430.4C71.8 436.2 75.1 441.6 80.2 444.4C94.3 452.2 121.6 467.1 152.4 477.5C173.1 484.5 197.1 490.1 220.2 489.3L207.4 522.4C205.1 528.5 206.6 535.4 211.4 539.8C215.5 543.7 221.4 545 226.7 543.5L228.9 542.7L303.9 508.4L303.9 560.1C303.9 568.9 311.1 576.1 319.9 576.1C328.7 576.1 335.9 568.9 335.9 560.1L335.9 508.4L410.8 542.6C416.7 545.3 423.7 544.1 428.4 539.7C433.1 535.3 434.7 528.4 432.4 522.3L419.6 489.2C442.8 490.1 466.7 484.5 487.4 477.4C518.1 467 545.4 452.1 559.6 444.3C564.7 441.5 567.8 436.1 567.8 430.3C567.8 424.5 564.6 419.1 559.6 416.3C546.6 409.1 524.4 397.6 498.7 389C538.7 336.5 560.3 268.8 567.5 232.8C568.6 227.6 566.9 222.1 563.1 218.3C559.3 214.5 553.9 212.9 548.7 213.9C514.4 220.7 451.2 240.4 399.8 276.6C399.2 242.3 391.4 206.8 381.2 175.1C367 131.1 347.4 92.2 333.2 71zM336 473.1L336 384C336 375.2 328.8 368 320 368C311.2 368 304 375.2 304 384L304 473.1L251.4 497.1L260.2 474.3C262.5 468.5 261.1 461.8 256.7 457.4C252.3 453 245.8 451.4 239.9 453.5C219.1 460.9 191.2 456.8 162.7 447.1C147.9 442.1 133.8 435.8 121.8 429.9C136 422.4 152.8 414.4 170.3 408.9L165.5 393.6L177.5 382.9C143.1 344.4 121.1 290.3 109.9 251.4C150.9 263 208.5 286.6 247.5 323.7L258.5 312.1L258.6 312.1L247.5 323.7C252.5 328.5 260 329.5 266.1 326.2C272.2 322.9 275.5 316.1 274.3 309.3C267.7 271.8 275.6 226.6 289.1 184.8C298.3 156.5 309.7 130.8 319.9 111.4C330.2 130.8 341.6 156.5 350.8 184.8C364.3 226.6 372.2 271.8 365.6 309.3C364.4 316.1 367.7 322.9 373.8 326.2C379.9 329.5 387.4 328.4 392.4 323.7C431.3 286.6 489 263 529.9 251.4C518.4 291.6 495.4 347.9 459 386.6C455.1 390.8 453.7 396.8 455.3 402.3C456.8 407.1 460.4 410.9 465.1 412.6L467.1 413.2L478.7 416.1C492.4 420 505.4 425.2 516.8 430.4C505.1 436.1 491.4 442.1 477.1 447C448.6 456.7 420.7 460.8 399.9 453.4C394 451.3 387.5 452.8 383.1 457.3C378.7 461.8 377.4 468.4 379.6 474.2L388.4 497L335.9 473zM170.4 408.9L165.7 393.6L177.6 382.9C181.2 387 182.5 392.6 181.1 397.8C179.7 403 175.6 407.2 170.4 408.8z"/></svg>