<svg xmlns="http://www.w3.org/2000/svg" viewBox="0 0 640 640"><!--! Font Awesome Pro 7.1.0 by @fontawesome - https://fontawesome.com License - https://fontawesome.com/license (Commercial License) Copyright 2025 Fonticons, Inc. --><path fill="currentColor" d="M96 176C96 131.8 131.8 96 176 96C220.2 96 256 131.8 256 176L256 304L96 304L96 176zM96 464L96 338.7L256 338.7L256 464C256 508.2 220.2 544 176 544C131.8 544 96 508.2 96 464zM64 176L64 464C64 525.9 114.1 576 176 576C237.9 576 288 525.9 288 464L288 358.2L404.3 527.7C439.8 579.4 509.6 592 560.3 555.8C611 519.6 623.3 448.3 587.8 396.6L459.3 209.3C423.8 157.6 354 145 303.3 181.2C297.7 185.2 292.6 189.6 288 194.3L288 176C288 114.1 237.9 64 176 64C114.1 64 64 114.1 64 176zM288 284.1L288 265.8C290.5 243 302.2 221.3 321.9 207.2C357.8 181.5 407.4 190.2 432.9 227.3L490.6 311.5L358.3 404.1L302.2 322.3C294.1 310.5 289.5 297.4 288 284zM376.4 430.6L508.7 338L561.4 414.8C587.1 452.3 578 503.9 541.7 529.9C505.8 555.6 456.2 546.9 430.7 509.8L376.5 430.7z"/></svg>