<svg xmlns="http://www.w3.org/2000/svg" viewBox="0 0 640 640"><!--! Font Awesome Pro 7.1.0 by @fontawesome - https://fontawesome.com License - https://fontawesome.com/license (Commercial License) Copyright 2025 Fonticons, Inc. --><path fill="currentColor" d="M382.1 404.7L235.3 257.9L158.4 334.9C138.9 354.4 128 380.8 128 408.3C128 465.6 174.5 512.1 231.8 512.1C259.3 512.1 285.7 501.2 305.2 481.7L382.1 404.8zM404.7 382.1L481.6 305.2C501.1 285.7 512 259.3 512 231.8C512 174.5 465.5 128 408.2 128C380.7 128 354.3 138.9 334.8 158.4L257.9 235.3L404.6 382zM504.2 327.8L327.8 504.2C302.3 529.7 267.8 544 231.8 544C156.8 544 96 483.2 96 408.2C96 372.2 110.3 337.7 135.8 312.2L312.2 135.8C337.7 110.3 372.2 96 408.2 96C483.2 96 544 156.8 544 231.8C544 267.8 529.7 302.3 504.2 327.8z"/></svg>