<svg xmlns="http://www.w3.org/2000/svg" viewBox="0 0 640 640"><!--! Font Awesome Pro 7.1.0 by @fontawesome - https://fontawesome.com License - https://fontawesome.com/license (Commercial License) Copyright 2025 Fonticons, Inc. --><path fill="currentColor" d="M233.7 128C206.2 128 181.7 145.6 173 171.8L144.9 256L495.2 256L467.1 171.8C458.3 145.6 433.9 128 406.3 128L233.7 128zM72.6 288L48 288C39.2 288 32 280.8 32 272C32 263.2 39.2 256 48 256L111.1 256L142.6 161.6C155.7 122.4 192.3 96 233.7 96L406.4 96C447.7 96 484.4 122.4 497.5 161.6L528.9 256L592 256C600.8 256 608 263.2 608 272C608 280.8 600.8 288 592 288L567.4 288C572.8 297.4 576 308.3 576 320L576 528C576 536.8 568.8 544 560 544C551.2 544 544 536.8 544 528L544 480L96 480L96 528C96 536.8 88.8 544 80 544C71.2 544 64 536.8 64 528L64 320C64 308.3 67.1 297.4 72.6 288zM128 288C110.3 288 96 302.3 96 320L96 448L544 448L544 320C544 302.3 529.7 288 512 288L128 288zM144 368C144 354.7 154.7 344 168 344C181.3 344 192 354.7 192 368C192 381.3 181.3 392 168 392C154.7 392 144 381.3 144 368zM472 344C485.3 344 496 354.7 496 368C496 381.3 485.3 392 472 392C458.7 392 448 381.3 448 368C448 354.7 458.7 344 472 344z"/></svg>