<svg xmlns="http://www.w3.org/2000/svg" viewBox="0 0 640 640"><!--! Font Awesome Pro 7.1.0 by @fontawesome - https://fontawesome.com License - https://fontawesome.com/license (Commercial License) Copyright 2025 Fonticons, Inc. --><path fill="currentColor" d="M263.9 117.2L104.4 209.3C92.1 216.4 86 230.7 89.3 244.5L107.2 318.5L357.1 174.2L302 121.7C291.7 111.9 276.2 110.1 263.9 117.2zM324 98.6L388 159.5C414.8 153.2 443.7 164.7 458.1 189.8C540.8 333 519.4 296 538.1 328.4C542.5 336.1 539.9 345.8 532.2 350.3C524.5 354.8 514.8 352.1 510.3 344.4L494.3 316.7L161.7 508.7L177.7 536.4C182.1 544.1 179.5 553.8 171.8 558.3C164.1 562.8 154.4 560.1 149.9 552.4C99.5 464.7 84.8 439.3 70.2 413.9C55.7 388.8 60.1 358 79 338L58.2 252.1C51.5 224.5 63.8 195.8 88.4 181.6L247.9 89.5C272.5 75.3 303.5 79 324 98.6zM121.9 439.4L145.9 481L478.5 289C462.5 261.3 446.5 233.6 430.5 205.9C421.7 190.6 402.1 185.4 386.8 194.2L109.6 354.1C94.3 362.9 89.1 382.5 97.9 397.8L121.9 439.4zM379 244.8C390.5 238.2 405.2 242.1 411.8 253.6C418.4 265.1 414.5 279.8 403 286.4C391.5 293 376.8 289.1 370.2 277.6C363.6 266.1 367.5 251.4 379 244.8zM190.1 381.6C196.7 393.1 192.8 407.8 181.3 414.4C169.8 421 155.1 417.1 148.5 405.6C141.9 394.1 145.8 379.4 157.3 372.8C168.8 366.2 183.5 370.1 190.1 381.6zM417.3 562.6C415.8 571.3 407.6 577.2 398.9 575.7C390.2 574.2 384.3 566 385.8 557.3C394.7 504.3 440.7 463.9 496.3 463.9C551.9 463.9 597.9 504.3 606.8 557.3C608.3 566 602.4 574.3 593.7 575.7C585 577.1 576.7 571.3 575.3 562.6C569 524.8 536 496 496.4 496C456.8 496 423.9 524.8 417.5 562.6z"/></svg>