<svg xmlns="http://www.w3.org/2000/svg" viewBox="0 0 640 640"><!--! Font Awesome Pro 7.1.0 by @fontawesome - https://fontawesome.com License - https://fontawesome.com/license (Commercial License) Copyright 2025 Fonticons, Inc. --><path fill="currentColor" d="M320 96L96 96C78.3 96 64 110.3 64 128L64 480C64 497.7 78.3 512 96 512L176 512L176 544L96 544C60.7 544 32 515.3 32 480L32 128C32 92.7 60.7 64 96 64L320 64C355.3 64 384 92.7 384 128L384 175.8L352 175.8L352 128C352 110.3 337.7 96 320 96zM128 192C128 183.2 135.2 176 144 176L160 176C168.8 176 176 183.2 176 192L176 208C176 216.8 168.8 224 160 224L144 224C135.2 224 128 216.8 128 208L128 192zM144 288L160 288C168.8 288 176 295.2 176 304L176 320C176 328.8 168.8 336 160 336L144 336C135.2 336 128 328.8 128 320L128 304C128 295.2 135.2 288 144 288zM341.5 256C326.8 256 314 266 310.5 280.2L292.6 352L539.6 352L521.7 280.2C518 266 505.2 256 490.5 256L341.5 256zM279.4 272.5C286.5 244 312.1 224 341.5 224L490.5 224C519.9 224 545.5 244 552.6 272.5L574.4 359.7C594.4 370.5 608 391.7 608 416L608 560C608 568.8 600.8 576 592 576C583.2 576 576 568.8 576 560L576 544L256 544L256 560C256 568.8 248.8 576 240 576C231.2 576 224 568.8 224 560L224 416C224 391.7 237.6 370.5 257.6 359.7L279.4 272.5zM576 416C576 398.3 561.7 384 544 384L288 384C270.3 384 256 398.3 256 416L256 512L576 512L576 416zM320 424C333.3 424 344 434.7 344 448C344 461.3 333.3 472 320 472C306.7 472 296 461.3 296 448C296 434.7 306.7 424 320 424zM488 448C488 434.7 498.7 424 512 424C525.3 424 536 434.7 536 448C536 461.3 525.3 472 512 472C498.7 472 488 461.3 488 448z"/></svg>