<svg xmlns="http://www.w3.org/2000/svg" viewBox="0 0 640 640"><!--! Font Awesome Pro 7.1.0 by @fontawesome - https://fontawesome.com License - https://fontawesome.com/license (Commercial License) Copyright 2025 Fonticons, Inc. --><path fill="currentColor" d="M233.7 128L406.4 128C433.9 128 458.4 145.6 467.1 171.8L495.2 256L144.9 256L173 171.8C181.7 145.6 206.1 128 233.7 128zM142.6 161.6L110.3 258.5C83.6 266.2 64 290.8 64 320L64 416C64 439.7 76.9 460.4 96 471.4L96 528C96 536.8 103.2 544 112 544C120.8 544 128 536.8 128 528L128 480L512 480L512 528C512 536.8 519.2 544 528 544C536.8 544 544 536.8 544 528L544 471.4C563.1 460.3 576 439.7 576 416L576 320C576 290.8 556.4 266.2 529.7 258.5L497.4 161.6C484.3 122.4 447.7 96 406.3 96L233.7 96C192.4 96 155.7 122.4 142.6 161.6zM400 448L400 400C400 382.3 385.7 368 368 368L272 368C254.3 368 240 382.3 240 400L240 448L128 448C110.3 448 96 433.7 96 416L96 320C96 302.3 110.3 288 128 288L512 288C529.7 288 544 302.3 544 320L544 416C544 433.7 529.7 448 512 448L400 448zM272 448L272 400L368 400L368 448L272 448zM128 352C128 360.8 135.2 368 144 368L192 368C200.8 368 208 360.8 208 352C208 343.2 200.8 336 192 336L144 336C135.2 336 128 343.2 128 352zM448 344C439.2 344 432 351.2 432 360C432 368.8 439.2 376 448 376L496 376C504.8 376 512 368.8 512 360C512 351.2 504.8 344 496 344L448 344z"/></svg>