<svg xmlns="http://www.w3.org/2000/svg" viewBox="0 0 640 640"><!--! Font Awesome Pro 7.1.0 by @fontawesome - https://fontawesome.com License - https://fontawesome.com/license (Commercial License) Copyright 2025 Fonticons, Inc. --><path fill="currentColor" d="M126.8 158.2L87.6 256L146 256C144.7 261.1 144 266.5 144 272C144 277.5 144.7 282.9 146 288L64 288C46.3 288 32 302.3 32 320L32 400C32 417.7 46.3 432 64 432L67.3 432C77.7 395.1 111.7 368 152 368C192.3 368 226.2 395.1 236.7 432L387.3 432C397.7 395.1 431.7 368 472 368C512.3 368 546.2 395.1 556.7 432L576 432C593.7 432 608 417.7 608 400L608 384C608 331 565 288 512 288L398 288C399.3 282.9 400 277.5 400 272C400 266.5 399.3 261.1 398 256L472 256L390.4 147.2C381.3 135.1 367.1 128 352 128L171.3 128C151.7 128 134 139.9 126.7 158.2zM52.8 257L97.1 146.3C109.2 115.9 138.6 96 171.3 96L352 96C377.2 96 400.9 107.9 416 128L512 256C582.7 256 640 313.3 640 384L640 400C640 435.3 611.3 464 576 464L559.6 464C555.6 508.9 517.9 544 472 544C426.1 544 388.4 508.9 384.4 464L239.7 464C235.7 508.9 198 544 152.1 544C106.2 544 68.5 508.9 64.5 464L64.1 464C28.8 464 .1 435.3 .1 400L.1 320C.1 288.5 22.9 262.3 52.9 257zM152 512C182.9 512 208 486.9 208 456C208 425.1 182.9 400 152 400C121.1 400 96 425.1 96 456C96 486.9 121.1 512 152 512zM528 456C528 425.1 502.9 400 472 400C441.1 400 416 425.1 416 456C416 486.9 441.1 512 472 512C502.9 512 528 486.9 528 456zM315.3 187.3L246.6 256L336 256C342.5 256 348.3 259.9 350.8 265.9C353.3 271.9 351.9 278.8 347.3 283.3L251.3 379.3C245.1 385.5 234.9 385.5 228.7 379.3C222.5 373.1 222.5 362.9 228.7 356.7L297.4 288L208 288C201.5 288 195.7 284.1 193.2 278.1C190.7 272.1 192.1 265.2 196.7 260.7L292.7 164.7C298.9 158.5 309.1 158.5 315.3 164.7C321.5 170.9 321.5 181.1 315.3 187.3z"/></svg>