<svg xmlns="http://www.w3.org/2000/svg" viewBox="0 0 640 640"><!--! Font Awesome Pro 7.1.0 by @fontawesome - https://fontawesome.com License - https://fontawesome.com/license (Commercial License) Copyright 2025 Fonticons, Inc. --><path fill="currentColor" d="M160 96L256 96C264.8 96 272 103.2 272 112C272 120.8 264.8 128 256 128L160 128C151.2 128 144 120.8 144 112C144 103.2 151.2 96 160 96zM384 96L480 96C488.8 96 496 103.2 496 112C496 120.8 488.8 128 480 128L384 128C375.2 128 368 120.8 368 112C368 103.2 375.2 96 384 96zM128 192C110.3 192 96 206.3 96 224L96 448C96 465.7 110.3 480 128 480L512 480C529.7 480 544 465.7 544 448L544 224C544 206.3 529.7 192 512 192L128 192zM64 224C64 188.7 92.7 160 128 160L512 160C547.3 160 576 188.7 576 224L576 448C576 483.3 547.3 512 512 512L128 512C92.7 512 64 483.3 64 448L64 224zM432 240C440.8 240 448 247.2 448 256L448 288L480 288C488.8 288 496 295.2 496 304C496 312.8 488.8 320 480 320L448 320L448 352C448 360.8 440.8 368 432 368C423.2 368 416 360.8 416 352L416 320L384 320C375.2 320 368 312.8 368 304C368 295.2 375.2 288 384 288L416 288L416 256C416 247.2 423.2 240 432 240zM160 288L256 288C264.8 288 272 295.2 272 304C272 312.8 264.8 320 256 320L160 320C151.2 320 144 312.8 144 304C144 295.2 151.2 288 160 288z"/></svg>