<svg xmlns="http://www.w3.org/2000/svg" viewBox="0 0 640 640"><!--! Font Awesome Pro 7.1.0 by @fontawesome - https://fontawesome.com License - https://fontawesome.com/license (Commercial License) Copyright 2025 Fonticons, Inc. --><path fill="currentColor" d="M336 112C336 120.4 333.4 123.4 332.3 124.5C330.7 126 327 128 320 128C311.2 128 304 120.8 304 112C304 110.3 305.6 103.7 312.6 92.4C314.9 88.7 317.4 84.9 320 81.4C322.6 85 325.2 88.7 327.4 92.4C334.3 103.7 336 110.3 336 112zM368 112C368 89.8 345 60 330.8 43.8C325 37.1 314.9 37.1 309.1 43.8C294.9 60.1 271.9 89.9 271.9 112C271.9 138.5 293.4 160 319.9 160C346.4 160 367.9 144 367.9 112zM227.9 240L412.1 240C426.3 240 438.8 249.4 442.8 263L464.3 336L175.8 336L197.3 263C201.3 249.4 213.8 240 228 240zM166.5 253.9L141.6 338.7C115.2 346.6 96 371.1 96 400L96 560C96 568.8 103.2 576 112 576C120.8 576 128 568.8 128 560L128 528L512 528L512 560C512 568.8 519.2 576 528 576C536.8 576 544 568.8 544 560L544 400C544 371.1 524.8 346.6 498.4 338.7L473.5 254C465.5 226.8 440.5 208.1 412.1 208.1L227.9 208.1C199.5 208.1 174.5 226.8 166.5 254zM512 448L512 496L128 496L128 400C128 382.3 142.3 368 160 368L480 368C497.7 368 512 382.3 512 400L512 448zM192 456C205.3 456 216 445.3 216 432C216 418.7 205.3 408 192 408C178.7 408 168 418.7 168 432C168 445.3 178.7 456 192 456zM472 432C472 418.7 461.3 408 448 408C434.7 408 424 418.7 424 432C424 445.3 434.7 456 448 456C461.3 456 472 445.3 472 432zM172.3 124.5C170.7 126 167 128 160 128C151.2 128 144 120.8 144 112C144 110.3 145.6 103.7 152.6 92.4C154.9 88.7 157.4 84.9 160 81.4C162.6 85 165.2 88.7 167.4 92.4C174.3 103.7 176 110.3 176 112C176 120.4 173.4 123.4 172.3 124.5zM160 160C186.5 160 208 144 208 112C208 89.8 185 60 170.8 43.8C165 37.1 155 37.1 149.2 43.8C135 60 112 89.8 112 112C112 138.5 133.5 160 160 160zM496 112C496 120.4 493.4 123.4 492.3 124.5C490.7 126 487 128 480 128C471.2 128 464 120.8 464 112C464 110.3 465.6 103.7 472.6 92.4C474.9 88.7 477.4 84.9 480 81.4C482.6 85 485.2 88.7 487.4 92.4C494.3 103.7 496 110.3 496 112zM528 112C528 89.8 505 60 490.8 43.8C485 37.1 474.9 37.1 469.1 43.8C454.9 60.1 431.9 89.9 431.9 112C431.9 138.5 453.4 160 479.9 160C506.4 160 527.9 144 527.9 112z"/></svg>