<svg xmlns="http://www.w3.org/2000/svg" viewBox="0 0 640 640"><!--! Font Awesome Pro 7.1.0 by @fontawesome - https://fontawesome.com License - https://fontawesome.com/license (Commercial License) Copyright 2025 Fonticons, Inc. --><path fill="currentColor" d="M160.4 176.5L132.5 288L507.5 288L479.6 176.5C472.5 148 446.9 128 417.5 128L222.5 128C193.1 128 167.5 148 160.4 176.5zM97.6 295.7L129.3 168.7C140 126 178.4 96 222.5 96L417.6 96C461.7 96 500 126 510.7 168.7L542.4 295.7C562.4 306.5 576 327.7 576 352L576 528C576 536.8 568.8 544 560 544C551.2 544 544 536.8 544 528L544 480L96 480L96 528C96 536.8 88.8 544 80 544C71.2 544 64 536.8 64 528L64 352C64 327.7 77.6 306.5 97.6 295.7zM128 320C110.3 320 96 334.3 96 352L96 448L544 448L544 352C544 334.3 529.7 320 512 320L128 320zM160 360C173.3 360 184 370.7 184 384C184 397.3 173.3 408 160 408C146.7 408 136 397.3 136 384C136 370.7 146.7 360 160 360zM456 384C456 370.7 466.7 360 480 360C493.3 360 504 370.7 504 384C504 397.3 493.3 408 480 408C466.7 408 456 397.3 456 384zM240 240C253.3 240 264 229.3 264 216C264 202.7 253.3 192 240 192C226.7 192 216 202.7 216 216C216 229.3 226.7 240 240 240zM240 160C270.9 160 296 185.1 296 216C296 246.9 270.9 272 240 272C209.1 272 184 246.9 184 216C184 185.1 209.1 160 240 160zM424 216C424 202.7 413.3 192 400 192C386.7 192 376 202.7 376 216C376 229.3 386.7 240 400 240C413.3 240 424 229.3 424 216zM344 216C344 185.1 369.1 160 400 160C430.9 160 456 185.1 456 216C456 246.9 430.9 272 400 272C369.1 272 344 246.9 344 216z"/></svg>