<svg xmlns="http://www.w3.org/2000/svg" viewBox="0 0 640 640"><!--! Font Awesome Pro 7.1.0 by @fontawesome - https://fontawesome.com License - https://fontawesome.com/license (Commercial License) Copyright 2025 Fonticons, Inc. --><path fill="currentColor" d="M112.6 76C121.1 68.5 132.2 64 144.3 64C170.8 64 192.3 85.5 192.3 112C192.3 138.5 170.8 160 144.3 160C132.1 160 121 155.5 112.6 148C106 142.2 95.9 142.8 90 149.4C84.1 156 84.8 166.1 91.4 172C105.5 184.4 124 192 144.3 192C183 192 215.3 164.5 222.7 128L417.9 128C425.3 164.5 457.6 192 496.3 192C516.6 192 535.1 184.4 549.2 172C555.8 166.2 556.5 156 550.6 149.4C544.7 142.8 534.6 142.1 528 148C519.5 155.5 508.4 160 496.3 160C469.8 160 448.3 138.5 448.3 112C448.3 85.5 469.8 64 496.3 64C508.5 64 519.6 68.5 528 76C534.6 81.8 544.7 81.2 550.6 74.6C556.5 68 555.8 57.9 549.2 52C535.1 39.6 516.6 32 496.3 32C457.6 32 425.3 59.5 417.9 96L222.7 96C215.3 59.5 183 32 144.3 32C124 32 105.5 39.6 91.4 52C84.8 57.8 84.1 68 90 74.6C95.9 81.2 106 81.8 112.6 76zM228.2 240L412.4 240C426.6 240 439.1 249.4 443.1 263L464.6 336L176.1 336L197.6 263C201.6 249.4 214.1 240 228.3 240zM166.8 253.9L141.9 338.7C115.5 346.6 96.3 371.1 96.3 400L96.3 560C96.3 568.8 103.5 576 112.3 576C121.1 576 128.3 568.8 128.3 560L128.3 528L512.3 528L512.3 560C512.3 568.8 519.5 576 528.3 576C537.1 576 544.3 568.8 544.3 560L544.3 400C544.3 371.1 525.1 346.6 498.7 338.7L473.8 254C465.8 226.8 440.8 208.1 412.4 208.1L228.2 208.1C199.8 208.1 174.8 226.8 166.8 254zM512.3 448L512.3 496L128.3 496L128.3 400C128.3 382.3 142.6 368 160.3 368L480.3 368C498 368 512.3 382.3 512.3 400L512.3 448zM192.3 456C205.6 456 216.3 445.3 216.3 432C216.3 418.7 205.6 408 192.3 408C179 408 168.3 418.7 168.3 432C168.3 445.3 179 456 192.3 456zM472.3 432C472.3 418.7 461.6 408 448.3 408C435 408 424.3 418.7 424.3 432C424.3 445.3 435 456 448.3 456C461.6 456 472.3 445.3 472.3 432z"/></svg>