<svg xmlns="http://www.w3.org/2000/svg" viewBox="0 0 640 640"><!--! Font Awesome Pro 7.1.0 by @fontawesome - https://fontawesome.com License - https://fontawesome.com/license (Commercial License) Copyright 2025 Fonticons, Inc. --><path fill="currentColor" d="M151.2 33.7C143.3 29.7 133.7 33 129.7 40.9C125.7 48.8 128.9 58.4 136.8 62.3L200.8 94.3C208.7 98.3 218.3 95 222.3 87.1C226.3 79.2 223 69.6 215.1 65.6L151.1 33.6zM384 128L384 128L379.6 110.6C372.8 83.2 348.2 64 320 64C291.8 64 267.2 83.2 260.4 110.6L256 128L256 128L223.2 128C178.7 128 140.1 158.5 129.8 201.8L116.6 257C86.7 262.4 64 288.5 64 320L64 528C64 536.8 71.2 544 80 544C88.8 544 96 536.8 96 528L96 480L544 480L544 528C544 536.8 551.2 544 560 544C568.8 544 576 536.8 576 528L576 320C576 288.5 553.3 262.4 523.4 257L510.2 201.8C499.9 158.5 461.3 128 416.8 128L384 128zM348.6 118.3L351 128L289 128L291.4 118.3C294.7 105.2 306.5 96 320 96C333.5 96 345.3 105.2 348.6 118.3zM510.3 40.8C506.3 32.9 496.7 29.7 488.8 33.6L424.8 65.6C416.9 69.6 413.7 79.2 417.6 87.1C421.5 95 431.2 98.2 439.1 94.3L503.1 62.3C511 58.3 514.2 48.7 510.3 40.8zM160.9 209.2C167.8 180.4 193.5 160 223.2 160L416.8 160C446.4 160 472.2 180.3 479.1 209.2L490.2 256L149.8 256L160.9 209.2zM497.8 288L512 288C529.7 288 544 302.3 544 320L544 448L96 448L96 320C96 302.3 110.3 288 128 288L497.8 288zM192 368C192 354.7 181.3 344 168 344C154.7 344 144 354.7 144 368C144 381.3 154.7 392 168 392C181.3 392 192 381.3 192 368zM472 392C485.3 392 496 381.3 496 368C496 354.7 485.3 344 472 344C458.7 344 448 354.7 448 368C448 381.3 458.7 392 472 392z"/></svg>