<svg xmlns="http://www.w3.org/2000/svg" viewBox="0 0 640 640"><!--! Font Awesome Pro 7.1.0 by @fontawesome - https://fontawesome.com License - https://fontawesome.com/license (Commercial License) Copyright 2025 Fonticons, Inc. --><path fill="currentColor" d="M140.9 171.8C149.7 145.6 174.1 128 201.7 128L374.4 128C396.8 128 417.2 139.7 428.7 158.1C438.6 153.8 449 150.4 459.7 148C443.4 116.5 410.7 96.1 374.4 96.1L201.7 96C160.4 96 123.7 122.4 110.6 161.6L78.3 258.5C51.6 266.2 32 290.8 32 320L32 528C32 536.8 39.2 544 48 544C56.8 544 64 536.8 64 528L64 480L384 480L384 448L64 448L64 320C64 302.3 78.3 288 96 288L329.7 288C331.3 277 333.9 266.2 337.6 256L112.9 256L141 171.8zM136 392C149.3 392 160 381.3 160 368C160 354.7 149.3 344 136 344C122.7 344 112 354.7 112 368C112 381.3 122.7 392 136 392zM496 224C544.6 224 584 263.4 584 312C584 351.1 558.5 384.3 523.1 395.8C516.5 397.9 512 404.1 512 411L512 416C512 420.2 513.7 424.3 516.7 427.3L537.4 448L516.7 468.7C510.5 474.9 510.5 485.1 516.7 491.3L536.5 511.1L504 538.9L464 504.6L464 404.2C464 398.2 460.7 392.8 455.4 390C427.2 375.3 408 345.8 408 311.9C408 263.3 447.4 223.9 496 223.9zM376 312C376 354.8 398.4 392.3 432 413.5L432 512C432 516.7 434 521.1 437.6 524.2L493.6 572.2C499.6 577.3 508.4 577.3 514.4 572.2L570.4 524.2C573.8 521.3 575.8 517.1 576 512.7C576.2 508.3 574.5 503.9 571.3 500.8L550.6 480.1L571.3 459.4C577.5 453.2 577.5 443 571.3 436.8L552.5 418C590.3 397.8 616 358 616 312.1C616 245.8 562.3 192.1 496 192.1C429.7 192.1 376 245.7 376 312zM496 264C482.7 264 472 274.7 472 288C472 301.3 482.7 312 496 312C509.3 312 520 301.3 520 288C520 274.7 509.3 264 496 264z"/></svg>