<svg xmlns="http://www.w3.org/2000/svg" viewBox="0 0 640 640"><!--! Font Awesome Pro 7.1.0 by @fontawesome - https://fontawesome.com License - https://fontawesome.com/license (Commercial License) Copyright 2025 Fonticons, Inc. --><path fill="currentColor" d="M128 96C98.2 96 73.1 116.4 66 144L382 144C374.9 116.4 349.8 96 320 96L128 96zM416 160L416 175.8L341.5 175.8C339.5 175.8 337.6 175.9 335.7 176L64.1 176L64.1 272L230.1 272L222.1 304L64.1 304L64.1 416C64.1 433.7 78.4 448 96.1 448L176.1 448L176.1 480L96.1 480L96.1 528C96.1 536.8 88.9 544 80.1 544C71.3 544 64.1 536.8 64.1 528L64.1 471.4C44.9 460.4 32 439.7 32 416L32 160C32 107 75 64 128 64L320 64C373 64 416 107 416 160zM128 360C141.3 360 152 370.7 152 384C152 397.3 141.3 408 128 408C114.7 408 104 397.3 104 384C104 370.7 114.7 360 128 360zM341.5 256C326.8 256 314 266 310.5 280.2L292.6 352L539.6 352L521.7 280.2C518 266 505.2 256 490.5 256L341.5 256zM279.4 272.5C286.5 244 312.1 224 341.5 224L490.5 224C519.9 224 545.5 244 552.6 272.5L574.4 359.7C594.4 370.5 608 391.7 608 416L608 560C608 568.8 600.8 576 592 576C583.2 576 576 568.8 576 560L576 544L256 544L256 560C256 568.8 248.8 576 240 576C231.2 576 224 568.8 224 560L224 416C224 391.7 237.6 370.5 257.6 359.7L279.4 272.5zM576 416C576 398.3 561.7 384 544 384L288 384C270.3 384 256 398.3 256 416L256 512L576 512L576 416zM320 424C333.3 424 344 434.7 344 448C344 461.3 333.3 472 320 472C306.7 472 296 461.3 296 448C296 434.7 306.7 424 320 424zM488 448C488 434.7 498.7 424 512 424C525.3 424 536 434.7 536 448C536 461.3 525.3 472 512 472C498.7 472 488 461.3 488 448z"/></svg>