<svg xmlns="http://www.w3.org/2000/svg" viewBox="0 0 640 640"><!--! Font Awesome Pro 7.1.0 by @fontawesome - https://fontawesome.com License - https://fontawesome.com/license (Commercial License) Copyright 2025 Fonticons, Inc. --><path fill="currentColor" d="M336 48C336 39.2 328.8 32 320 32C311.2 32 304 39.2 304 48L304 128C304 136.8 311.2 144 320 144C328.8 144 336 136.8 336 128L336 48zM227.9 240L412.1 240C426.3 240 438.8 249.4 442.8 263L464.3 336L175.8 336L197.3 263C201.3 249.4 213.8 240 228 240zM166.5 253.9L141.6 338.7C115.2 346.6 96 371.1 96 400L96 560C96 568.8 103.2 576 112 576C120.8 576 128 568.8 128 560L128 528L512 528L512 560C512 568.8 519.2 576 528 576C536.8 576 544 568.8 544 560L544 400C544 371.1 524.8 346.6 498.4 338.7L473.5 254C465.5 226.8 440.5 208.1 412.1 208.1L227.9 208.1C199.5 208.1 174.5 226.8 166.5 254zM512 448L512 496L128 496L128 400C128 382.3 142.3 368 160 368L480 368C497.7 368 512 382.3 512 400L512 448zM192 456C205.3 456 216 445.3 216 432C216 418.7 205.3 408 192 408C178.7 408 168 418.7 168 432C168 445.3 178.7 456 192 456zM472 432C472 418.7 461.3 408 448 408C434.7 408 424 418.7 424 432C424 445.3 434.7 456 448 456C461.3 456 472 445.3 472 432zM100.7 68.7C94.5 74.9 94.5 85.1 100.7 91.3L156.7 147.3C162.9 153.5 173.1 153.5 179.3 147.3C185.5 141.1 185.5 130.9 179.3 124.7L123.3 68.7C117.1 62.5 106.9 62.5 100.7 68.7zM516.7 68.7L460.7 124.7C454.5 130.9 454.5 141.1 460.7 147.3C466.9 153.5 477.1 153.5 483.3 147.3L539.3 91.3C545.5 85.1 545.5 74.9 539.3 68.7C533.1 62.5 522.9 62.5 516.7 68.7z"/></svg>