<svg xmlns="http://www.w3.org/2000/svg" viewBox="0 0 640 640"><!--! Font Awesome Pro 7.1.0 by @fontawesome - https://fontawesome.com License - https://fontawesome.com/license (Commercial License) Copyright 2025 Fonticons, Inc. --><path fill="currentColor" d="M224 80.1L224 32.1C224 23.3 216.8 16.1 208 16.1C199.2 16.1 192 23.3 192 32.1L192 80.1C192 88.9 199.2 96.1 208 96.1C216.8 96.1 224 88.9 224 80.1zM32 224.1L80 224.1C88.8 224.1 96 216.9 96 208.1C96 199.3 88.8 192.1 80 192.1L32 192.1C23.2 192.1 16 199.3 16 208.1C16 216.9 23.2 224.1 32 224.1zM287.2 128.9C293.4 135.1 303.6 135.1 309.8 128.9L343.8 95C350 88.8 350 78.6 343.8 72.4C337.6 66.2 327.4 66.2 321.2 72.4L287.2 106.3C281 112.5 281 122.7 287.2 128.9zM94.9 343.9L128.8 310C135 303.8 135 293.6 128.8 287.4C122.6 281.2 112.4 281.2 106.2 287.4L72.2 321.2C66 327.4 66 337.6 72.2 343.8C78.4 350 88.6 350 94.8 343.8zM72.2 72.3C66 78.6 66 88.7 72.2 95L106.1 128.9C112.3 135.1 122.5 135.1 128.7 128.9C134.9 122.7 134.9 112.5 128.7 106.3L94.9 72.3C88.7 66.1 78.5 66.1 72.3 72.3zM348.3 205.1L526.2 252.8C539.9 256.5 549.6 268.7 549.9 282.9L551.7 359L273 284.3L312.6 219.3C320 207.2 334.5 201.4 348.2 205.1zM285.4 202.7L239.4 278.1C211.9 278.9 187 297.6 179.5 325.5C136.7 485.2 147.8 444 138.1 480C135.8 488.5 140.9 497.3 149.4 499.6C157.9 501.9 166.7 496.8 169 488.3L177.3 457.4L548.2 556.8L539.9 587.7C537.6 596.2 542.7 605 551.2 607.3C559.7 609.6 568.5 604.5 570.8 596C597 498.1 604.6 469.8 612.2 441.5C619.7 413.5 607.5 384.9 584 370.5L581.9 282.2C581.2 253.8 561.9 229.3 534.5 221.9L356.6 174.2C329.2 166.9 300.2 178.4 285.4 202.7zM568.9 479.5L556.5 525.9L185.6 426.5C193.9 395.6 202.2 364.7 210.4 333.8C215 316.7 232.5 306.6 249.6 311.2L558.7 394C575.8 398.6 585.9 416.1 581.3 433.2L568.9 479.6zM257.7 404.4C270.5 407.8 283.7 400.2 287.1 387.4C290.5 374.6 282.9 361.4 270.1 358C257.3 354.6 244.1 362.2 240.7 375C237.3 387.8 244.9 401 257.7 404.4zM534.4 453.7C537.8 440.9 530.2 427.7 517.4 424.3C504.6 420.9 491.4 428.5 488 441.3C484.6 454.1 492.2 467.3 505 470.7C517.8 474.1 531 466.5 534.4 453.7z"/></svg>