<svg xmlns="http://www.w3.org/2000/svg" viewBox="0 0 640 640"><!--! Font Awesome Pro 7.1.0 by @fontawesome - https://fontawesome.com License - https://fontawesome.com/license (Commercial License) Copyright 2025 Fonticons, Inc. --><path fill="currentColor" d="M172.9 171.8L144.8 256L200.5 256C194.9 265.8 191.9 276.8 191.9 288L127.9 288C110.2 288 95.9 302.3 95.9 320L95.9 448L543.9 448L543.9 320C543.9 302.3 529.6 288 511.9 288L447.9 288C447.9 279.8 446.3 271.4 443 263.5C441.9 260.9 440.7 258.4 439.3 256L495 256L466.9 171.8C458.3 145.6 433.9 128 406.3 128L233.7 128C206.2 128 181.7 145.6 173 171.8zM110.3 258.5L142.6 161.6C155.7 122.4 192.3 96 233.7 96L406.4 96C447.7 96 484.4 122.4 497.5 161.6L529.8 258.4C556.5 266.1 576.1 290.7 576.1 319.9L576.1 527.9C576.1 536.7 568.9 543.9 560.1 543.9C551.3 543.9 544.1 536.7 544.1 527.9L544.1 479.9L96.1 479.9L96.1 527.9C96.1 536.7 88.9 543.9 80.1 543.9C71.3 543.9 64 536.8 64 528L64 320C64 290.8 83.6 266.2 110.3 258.5zM168 344C181.3 344 192 354.7 192 368C192 381.3 181.3 392 168 392C154.7 392 144 381.3 144 368C144 354.7 154.7 344 168 344zM448 368C448 354.7 458.7 344 472 344C485.3 344 496 354.7 496 368C496 381.3 485.3 392 472 392C458.7 392 448 381.3 448 368zM363.3 203.3L294.6 272L384 272C390.5 272 396.3 275.9 398.8 281.9C401.3 287.9 399.9 294.8 395.3 299.3L299.3 395.3C293.1 401.5 282.9 401.5 276.7 395.3C270.5 389.1 270.5 378.9 276.7 372.7L345.4 304L256 304C249.5 304 243.7 300.1 241.2 294.1C238.7 288.1 240.1 281.2 244.7 276.7L340.7 180.7C346.9 174.5 357.1 174.5 363.3 180.7C369.5 186.9 369.5 197.1 363.3 203.3z"/></svg>