<svg xmlns="http://www.w3.org/2000/svg" viewBox="0 0 640 640"><!--! Font Awesome Pro 7.1.0 by @fontawesome - https://fontawesome.com License - https://fontawesome.com/license (Commercial License) Copyright 2025 Fonticons, Inc. --><path fill="currentColor" d="M140.9 171.8C149.7 145.6 174.1 128 201.7 128L374.4 128C401.9 128 426.4 145.6 435.1 171.8L459 243.6C469.6 241.5 480.4 240.3 491.6 240.1L465.4 161.6C452.3 122.4 415.7 96 374.3 96L201.7 96C160.4 96 123.7 122.4 110.6 161.6L78.3 258.5C51.6 266.2 32 290.8 32 320L32 528C32 536.8 39.2 544 48 544C56.8 544 64 536.8 64 528L64 480L310 480C307.3 469.6 305.5 459 304.6 448L64 448L64 320C64 302.3 78.3 288 96 288L369 288C383.9 274.9 400.7 264 419.1 256L112.8 256L140.9 171.8zM136 392C149.3 392 160 381.3 160 368C160 354.7 149.3 344 136 344C122.7 344 112 354.7 112 368C112 381.3 122.7 392 136 392zM496 320C557.9 320 608 370.1 608 432C608 493.9 557.9 544 496 544C434.1 544 384 493.9 384 432C384 370.1 434.1 320 496 320zM496 576C575.5 576 640 511.5 640 432C640 352.5 575.5 288 496 288C416.5 288 352 352.5 352 432C352 511.5 416.5 576 496 576zM506 356.7L442 420.7C437.4 425.3 436.1 432.2 438.5 438.1C440.9 444 446.8 448 453.3 448L500 448L463.3 484.7C457.1 490.9 457.1 501.1 463.3 507.3C469.5 513.5 479.7 513.5 485.9 507.3L549.9 443.3C554.5 438.7 555.8 431.8 553.4 425.9C551 420 545.1 416 538.6 416L491.9 416L528.6 379.3C534.8 373.1 534.8 362.9 528.6 356.7C522.4 350.5 512.2 350.5 506 356.7z"/></svg>