<svg xmlns="http://www.w3.org/2000/svg" viewBox="0 0 640 640"><!--! Font Awesome Pro 7.1.0 by @fontawesome - https://fontawesome.com License - https://fontawesome.com/license (Commercial License) Copyright 2025 Fonticons, Inc. --><path fill="currentColor" d="M416 128C469 128 512 171 512 224L512 448L302.4 448C287.8 419.5 258.2 400 224 400C189.8 400 160.2 419.5 145.6 448L96 448C78.3 448 64 433.7 64 416L64 160C64 142.3 78.3 128 96 128L416 128zM96 480L136.4 480C136.2 482.6 136 485.3 136 488C136 536.6 175.4 576 224 576C272.6 576 312 536.6 312 488C312 485.3 311.9 482.6 311.6 480L624 480C632.8 480 640 472.8 640 464C640 455.2 632.8 448 624 448L544 448L544 224C544 153.3 486.7 96 416 96L96 96C60.7 96 32 124.7 32 160L32 416C32 451.3 60.7 480 96 480zM168 224L216 224C220.4 224 224 227.6 224 232L224 280C224 284.4 220.4 288 216 288L168 288C163.6 288 160 284.4 160 280L160 232C160 227.6 163.6 224 168 224zM128 232L128 280C128 302.1 145.9 320 168 320L216 320C238.1 320 256 302.1 256 280L256 232C256 209.9 238.1 192 216 192L168 192C145.9 192 128 209.9 128 232zM408 224C412.4 224 416 227.6 416 232L416 280C416 284.4 412.4 288 408 288L360 288C355.6 288 352 284.4 352 280L352 232C352 227.6 355.6 224 360 224L408 224zM360 192C337.9 192 320 209.9 320 232L320 280C320 302.1 337.9 320 360 320L408 320C430.1 320 448 302.1 448 280L448 232C448 209.9 430.1 192 408 192L360 192zM224 432C254.9 432 280 457.1 280 488C280 518.9 254.9 544 224 544C193.1 544 168 518.9 168 488C168 457.1 193.1 432 224 432z"/></svg>