<svg xmlns="http://www.w3.org/2000/svg" viewBox="0 0 640 640"><!--! Font Awesome Pro 7.1.0 by @fontawesome - https://fontawesome.com License - https://fontawesome.com/license (Commercial License) Copyright 2025 Fonticons, Inc. --><path fill="currentColor" d="M96 128C78.3 128 64 142.3 64 160L64 416C64 433.7 78.3 448 96 448L145.6 448C160.2 419.5 189.8 400 224 400C258.2 400 287.8 419.5 302.4 448L320 448L320 232C320 209.9 337.9 192 360 192L408 192C430.1 192 448 209.9 448 232L448 448L512 448L512 224C512 171 469 128 416 128L96 128zM384 336C384 327.2 391.2 320 400 320L416 320L416 232C416 227.6 412.4 224 408 224L360 224C355.6 224 352 227.6 352 232L352 448L416 448L416 352L400 352C391.2 352 384 344.8 384 336zM136.4 480L96 480C60.7 480 32 451.3 32 416L32 160C32 124.7 60.7 96 96 96L416 96C486.7 96 544 153.3 544 224L544 448L624 448C632.8 448 640 455.2 640 464C640 472.8 632.8 480 624 480L311.6 480C311.8 482.6 312 485.3 312 488C312 536.6 272.6 576 224 576C175.4 576 136 536.6 136 488C136 485.3 136.1 482.6 136.4 480zM216 224L168 224C163.6 224 160 227.6 160 232L160 280C160 284.4 163.6 288 168 288L216 288C220.4 288 224 284.4 224 280L224 232C224 227.6 220.4 224 216 224zM168 192L216 192C238.1 192 256 209.9 256 232L256 280C256 302.1 238.1 320 216 320L168 320C145.9 320 128 302.1 128 280L128 232C128 209.9 145.9 192 168 192zM224 544C254.9 544 280 518.9 280 488C280 457.1 254.9 432 224 432C193.1 432 168 457.1 168 488C168 518.9 193.1 544 224 544z"/></svg>