<svg xmlns="http://www.w3.org/2000/svg" viewBox="0 0 640 640"><!--! Font Awesome Pro 7.1.0 by @fontawesome - https://fontawesome.com License - https://fontawesome.com/license (Commercial License) Copyright 2025 Fonticons, Inc. --><path fill="currentColor" d="M448 64C483.3 64 512 92.7 512 128L512 512C512 547.3 483.3 576 448 576L192 576L185.5 575.7C153.2 572.4 128 545.1 128 512L128 128C128 92.7 156.7 64 192 64L448 64zM192 96C174.3 96 160 110.3 160 128L160 512C160 529.7 174.3 544 192 544L448 544C465.7 544 480 529.7 480 512L480 128C480 110.3 465.7 96 448 96L192 96zM352 416C360.8 416 368 423.2 368 432C368 440.8 360.8 448 352 448L288 448C279.2 448 272 440.8 272 432C272 423.2 279.2 416 288 416L352 416zM320 184C359.8 184 392 216.2 392 256C392 257.4 391.9 258.7 391.8 260.1C419.9 269.9 440 296.6 440 328C440 367.8 407.8 400 368 400C349.5 400 332.7 393 320 381.6C307.3 393 290.5 400 272 400C232.2 400 200 367.8 200 328C200 296.6 220.1 270 248.1 260.1C248 258.7 248 257.4 248 256C248 216.2 280.2 184 320 184zM320 216C297.9 216 280 233.9 280 256C280 260 280.6 263.9 281.7 267.6L282.4 271.1C282.7 274.6 281.7 278.1 279.7 281.1C277 285.1 272.7 287.7 268 288.2C247.8 290.2 232 307.3 232 328C232 350.1 249.9 368 272 368C286.5 368 299.2 360.2 306.3 348.5L307.5 346.8C310.5 343 315.1 340.7 320 340.7C325.6 340.7 330.8 343.7 333.7 348.5L336.6 352.7C343.9 362.1 355.3 368 368 368C390.1 368 408 350.1 408 328C408 307.3 392.2 290.2 372 288.2C367.2 287.7 362.9 285.1 360.2 281.2C357.5 277.3 356.8 272.2 358.2 267.7L359.5 262C359.8 260.1 359.9 258.1 359.9 256.1C359.9 234 342 216.1 319.9 216.1z"/></svg>