<svg xmlns="http://www.w3.org/2000/svg" viewBox="0 0 640 640"><!--! Font Awesome Pro 7.1.0 by @fontawesome - https://fontawesome.com License - https://fontawesome.com/license (Commercial License) Copyright 2025 Fonticons, Inc. --><path fill="currentColor" d="M518.7 128.3C551 131.6 576.2 158.8 576.2 192L576.2 512L575.9 518.5C572.8 548.6 548.9 572.6 518.8 575.6L512.3 575.9L320.3 575.9L313.8 575.6C301.7 574.4 290.7 569.7 281.6 562.8L351.9 544L512.4 544C530.1 544 544.4 529.7 544.4 512L544.4 192C544.4 174.3 530.1 160 512.4 160L437.4 160L428.8 128L512.3 128L518.8 128.3zM297.3 45.4C329.3 40.2 360.7 60 369.3 92L452.1 401.1L453.5 407.5C458.3 437.4 441.4 466.7 413.1 477.5L406.9 479.5L221.5 529.2L215.1 530.5C185.2 535.3 155.9 518.4 145.1 490.1L143 484L60.2 174.9C51.6 142.9 68.9 110 99.2 98.5L105.4 96.5L290.9 46.8L297.3 45.5zM338.4 100.3C333.8 83.2 316.3 73.1 299.2 77.7L113.7 127.4C96.7 132 86.5 149.5 91.1 166.6L173.9 475.7C178.5 492.8 196 502.9 213.1 498.3L398.5 448.6C415.6 444 425.7 426.5 421.1 409.4L338.4 100.3zM309 368C316.4 367.6 323.4 372.4 325.4 379.8C327.4 387.3 323.8 394.9 317.1 398.2L314.1 399.4L260.3 413.8C251.8 416.1 243 411 240.7 402.5C238.4 394 243.5 385.2 252 382.9L305.8 368.5L309 368zM227.1 176.8C231.2 175.7 235.6 176.3 239.2 178.4C259.7 190.3 291.4 208.5 334.2 233.3L334.9 233.7L338.5 236L339.2 236.5C361.5 252.6 369.4 282.4 357.9 307.5L355.3 312.4C341.2 336.7 312.2 347 286.5 338.3L281.4 336.3C281.1 336.2 280.9 336.1 280.6 335.9L276.8 333.9L276.1 333.5L267.6 328.6L262.7 337.2L262.2 337.9L259.9 341.5L259.5 342.1C243.4 364.4 213.6 372.4 188.5 360.9L183.6 358.3C156 342.4 146.5 307 162.5 279.3L217.3 184.3L219.1 181.7C221.2 179.3 223.9 177.6 227 176.8zM190.2 295.3C183.1 307.7 187.3 323.6 199.7 330.7L204.2 332.7C214.8 336.4 226.7 332.8 233.5 323.6L235.3 320.9L248.1 298.8L249.9 296.2C252 293.8 254.7 292.1 257.8 291.3C261.9 290.2 266.3 290.8 270 292.9L291.7 305.5L294.9 307.1C306.8 312.4 321.1 307.9 327.8 296.3L329.8 291.8C333.5 281.1 329.8 269.1 320.6 262.4L317.7 260.5L259.6 227L237.1 214L190.3 295.2z"/></svg>