<svg xmlns="http://www.w3.org/2000/svg" viewBox="0 0 640 640"><!--! Font Awesome Pro 7.1.0 by @fontawesome - https://fontawesome.com License - https://fontawesome.com/license (Commercial License) Copyright 2025 Fonticons, Inc. --><path fill="currentColor" d="M448 64C483.3 64 512 92.7 512 128L512 512C512 547.3 483.3 576 448 576L192 576L185.5 575.7C153.2 572.4 128 545.1 128 512L128 128C128 92.7 156.7 64 192 64L448 64zM192 96C174.3 96 160 110.3 160 128L160 512C160 529.7 174.3 544 192 544L448 544C465.7 544 480 529.7 480 512L480 128C480 110.3 465.7 96 448 96L192 96zM352 416C360.8 416 368 423.2 368 432C368 440.8 360.8 448 352 448L288 448C279.2 448 272 440.8 272 432C272 423.2 279.2 416 288 416L352 416zM308.7 196.2C314.9 190 325.1 190 331.4 196.2C349.7 214.5 381 245.8 425.1 289.9C450.1 314.9 450.1 355.4 425.1 380.4C400.1 405.4 359.6 405.4 334.6 380.4L320.1 365.9L305.6 380.4C282.2 403.8 245.1 405.3 219.9 384.8L215 380.4C190 355.4 190 314.9 215 289.9C259.1 245.8 290.3 214.5 308.7 196.2zM297.4 252.8L237.7 312.5C225.2 325 225.2 345.3 237.7 357.8L240.1 360C252.7 370.2 271.2 369.5 282.9 357.8L308.7 332C311.7 329 315.8 327.3 320 327.3C324.2 327.3 328.3 329 331.3 332L357.1 357.8C369.6 370.3 389.9 370.3 402.3 357.8C414.8 345.3 414.8 325 402.3 312.5L342.6 252.8L319.9 230.2L297.3 252.8z"/></svg>