<svg xmlns="http://www.w3.org/2000/svg" viewBox="0 0 640 640"><!--! Font Awesome Pro 7.1.0 by @fontawesome - https://fontawesome.com License - https://fontawesome.com/license (Commercial License) Copyright 2025 Fonticons, Inc. --><path fill="currentColor" d="M192 96C174.3 96 160 110.3 160 128L160 512C160 529.7 174.3 544 192 544L448 544C465.7 544 480 529.7 480 512L480 128C480 110.3 465.7 96 448 96L192 96zM128 128C128 92.7 156.7 64 192 64L448 64C483.3 64 512 92.7 512 128L512 512C512 547.3 483.3 576 448 576L192 576C156.7 576 128 547.3 128 512L128 128zM331.3 212.7L427.3 308.7C433.5 314.9 433.5 325.1 427.3 331.3L331.3 427.3C325.1 433.5 314.9 433.5 308.7 427.3L212.7 331.3C206.5 325.1 206.5 314.9 212.7 308.7L308.7 212.7C314.9 206.5 325.1 206.5 331.3 212.7zM320 393.4L393.4 320L320 246.6L246.6 320L320 393.4z"/></svg>