<svg xmlns="http://www.w3.org/2000/svg" viewBox="0 0 640 640"><!--! Font Awesome Pro 7.1.0 by @fontawesome - https://fontawesome.com License - https://fontawesome.com/license (Commercial License) Copyright 2025 Fonticons, Inc. --><path fill="currentColor" d="M192 96C174.3 96 160 110.3 160 128L160 512C160 529.7 174.3 544 192 544L448 544C465.7 544 480 529.7 480 512L480 128C480 110.3 465.7 96 448 96L192 96zM128 128C128 92.7 156.7 64 192 64L448 64C483.3 64 512 92.7 512 128L512 512C512 547.3 483.3 576 448 576L192 576C156.7 576 128 547.3 128 512L128 128zM340.4 266.2L331.3 275.3C328.3 278.3 324.2 280 320 280C315.8 280 311.7 278.3 308.7 275.3L299.6 266.2C293.1 259.7 284.2 256 274.9 256L272 256C254.3 256 240 270.3 240 288C240 309.4 254.5 330.5 274.6 349C291.4 364.5 310 376 320 381.7C330 376 348.5 364.5 365.4 349C385.5 330.5 400 309.3 400 288C400 270.3 385.7 256 368 256L365.1 256C355.8 256 347 259.7 340.4 266.2zM365.1 224L368 224C403.3 224 432 252.7 432 288C432 323.3 408.9 352.5 387 372.6C364.6 393.2 340.2 407.3 331.1 412.2C324.1 416 315.8 416 308.9 412.2C299.8 407.3 275.4 393.2 253 372.6C231.2 352.5 208 323.3 208 288C208 252.7 236.7 224 272 224L274.9 224C291.6 224 307.7 230.3 320 241.5C332.3 230.3 348.4 224 365.1 224z"/></svg>