<svg xmlns="http://www.w3.org/2000/svg" viewBox="0 0 640 640"><!--! Font Awesome Pro 7.1.0 by @fontawesome - https://fontawesome.com License - https://fontawesome.com/license (Commercial License) Copyright 2025 Fonticons, Inc. --><path fill="currentColor" d="M160 128C142.3 128 128 142.3 128 160L128 480C128 497.7 142.3 512 160 512L480 512C497.7 512 512 497.7 512 480L512 160C512 142.3 497.7 128 480 128L160 128zM96 160C96 124.7 124.7 96 160 96L480 96C515.3 96 544 124.7 544 160L544 480C544 515.3 515.3 544 480 544L160 544C124.7 544 96 515.3 96 480L96 160zM320 224C329.6 224 338.7 228 345.2 235L440.7 337.8C445.4 342.9 448 349.6 448 356.5C448 371.7 435.7 384 420.5 384L219.5 384C204.3 384 192 371.7 192 356.5C192 349.6 194.6 342.9 199.3 337.8L294.8 235C301.3 228 310.4 224 320 224zM318.3 256.7L229.9 352L410.2 352L321.8 256.7C321.4 256.2 320.7 256 320.1 256C319.5 256 318.8 256.3 318.4 256.7z"/></svg>