<svg xmlns="http://www.w3.org/2000/svg" viewBox="0 0 640 640"><!--! Font Awesome Pro 7.1.0 by @fontawesome - https://fontawesome.com License - https://fontawesome.com/license (Commercial License) Copyright 2025 Fonticons, Inc. --><path fill="currentColor" d="M320 544C196.3 544 96 443.7 96 320C96 196.3 196.3 96 320 96C443.7 96 544 196.3 544 320C544 443.7 443.7 544 320 544zM320 64C178.6 64 64 178.6 64 320C64 461.4 178.6 576 320 576C461.4 576 576 461.4 576 320C576 178.6 461.4 64 320 64zM320 416C329.6 416 338.7 412 345.2 405L440.7 302.2C445.4 297.1 448 290.4 448 283.5C448 268.3 435.7 256 420.5 256L219.5 256C204.3 256 192 268.3 192 283.5C192 290.4 194.6 297.1 199.3 302.2L294.8 405C301.3 412 310.4 416 320 416zM321.7 383.3C321.3 383.8 320.6 384 320 384C319.4 384 318.7 383.7 318.3 383.3L229.9 288L410.2 288L321.8 383.3z"/></svg>