<svg xmlns="http://www.w3.org/2000/svg" viewBox="0 0 640 640"><!--! Font Awesome Pro 7.1.0 by @fontawesome - https://fontawesome.com License - https://fontawesome.com/license (Commercial License) Copyright 2025 Fonticons, Inc. --><path fill="currentColor" d="M438.9 297.4C450.5 310.3 451.7 329.8 438.9 342.6L310.9 470.6C301.8 479.8 288 482.5 276 477.5L271.7 475.3C262.2 469.6 256.2 459.2 256.2 447.9L256.2 191.9L256.5 187.1C257.9 177.7 263.5 169.4 271.6 164.5L275.9 162.3C286.4 158 298.2 159.5 307.1 166.1L310.8 169.2L438.8 297.2zM415.9 320.1C415.8 319.8 415.6 319.4 415.2 319L288.3 192L288.3 448L416 320.3C416 320.2 415.9 320.1 415.9 320.1z"/></svg>