<svg xmlns="http://www.w3.org/2000/svg" viewBox="0 0 640 640"><!--! Font Awesome Pro 7.1.0 by @fontawesome - https://fontawesome.com License - https://fontawesome.com/license (Commercial License) Copyright 2025 Fonticons, Inc. --><path fill="currentColor" d="M544 320C544 443.7 443.7 544 320 544C196.3 544 96 443.7 96 320C96 196.3 196.3 96 320 96C443.7 96 544 196.3 544 320zM64 320C64 461.4 178.6 576 320 576C461.4 576 576 461.4 576 320C576 178.6 461.4 64 320 64C178.6 64 64 178.6 64 320zM416 320C416 310.4 412 301.3 405 294.8L302.2 199.3C297.1 194.6 290.4 192 283.5 192C268.3 192 256 204.3 256 219.5L256 420.5C256 435.7 268.3 448 283.5 448C290.4 448 297.1 445.4 302.2 440.7L405 345.2C412 338.7 416 329.6 416 320zM383.3 318.3C383.8 318.7 384 319.4 384 320C384 320.6 383.7 321.3 383.3 321.7L288 410.1L288 229.8L383.3 318.2z"/></svg>