<svg xmlns="http://www.w3.org/2000/svg" viewBox="0 0 640 640"><!--! Font Awesome Pro 7.1.0 by @fontawesome - https://fontawesome.com License - https://fontawesome.com/license (Commercial License) Copyright 2025 Fonticons, Inc. --><path fill="currentColor" d="M512 160C512 142.3 497.7 128 480 128L160 128C142.3 128 128 142.3 128 160L128 480C128 497.7 142.3 512 160 512L480 512C497.7 512 512 497.7 512 480L512 160zM480 96C515.3 96 544 124.7 544 160L544 480C544 515.3 515.3 544 480 544L160 544C124.7 544 96 515.3 96 480L96 160C96 124.7 124.7 96 160 96L480 96zM416 320C416 329.6 412 338.7 405 345.2L302.2 440.7C297.1 445.4 290.4 448 283.5 448C268.3 448 256 435.7 256 420.5L256 219.5C256 204.3 268.3 192 283.5 192C290.4 192 297.1 194.6 302.2 199.3L405 294.8C412 301.3 416 310.4 416 320zM383.3 318.3L288 229.9L288 410.2L383.3 321.8C383.8 321.4 384 320.7 384 320.1C384 319.5 383.7 318.8 383.3 318.4z"/></svg>