<svg xmlns="http://www.w3.org/2000/svg" viewBox="0 0 640 640"><!--! Font Awesome Pro 7.1.0 by @fontawesome - https://fontawesome.com License - https://fontawesome.com/license (Commercial License) Copyright 2025 Fonticons, Inc. --><path fill="currentColor" d="M297.9 201.4C310.8 189.8 330.3 188.6 343.1 201.4L471.1 329.4C480.3 338.6 483 352.3 478 364.3L475.8 368.6C470.1 378.1 459.7 384.1 448.4 384.1L192.4 384.1L187.6 383.8C178.2 382.4 169.9 376.8 165 368.7L162.8 364.4C158.6 353.8 160.2 341.9 166.7 333L169.8 329.3L297.8 201.3zM320.6 224.4C320.3 224.5 319.9 224.7 319.5 225.1L192.5 352L448.5 352L320.8 224.3C320.7 224.3 320.6 224.4 320.6 224.4z"/></svg>