<svg xmlns="http://www.w3.org/2000/svg" viewBox="0 0 640 640"><!--! Font Awesome Pro 7.1.0 by @fontawesome - https://fontawesome.com License - https://fontawesome.com/license (Commercial License) Copyright 2025 Fonticons, Inc. --><path fill="currentColor" d="M201.7 297.4C190.1 310.3 188.9 329.8 201.7 342.6L329.7 470.6C338.8 479.8 352.6 482.5 364.6 477.5L368.9 475.3C378.4 469.6 384.4 459.2 384.4 447.9L384.4 191.9L384.1 187.1C382.7 177.7 377.1 169.4 369 164.5L364.7 162.3C354.2 158 342.4 159.5 333.5 166.1L329.8 169.2L201.8 297.2zM224.7 320.1C224.8 319.8 225 319.4 225.4 319L352.3 192.1L352.3 448.1L224.6 320.4C224.6 320.3 224.7 320.2 224.7 320.2z"/></svg>