<svg xmlns="http://www.w3.org/2000/svg" viewBox="0 0 640 640"><!--! Font Awesome Pro 7.1.0 by @fontawesome - https://fontawesome.com License - https://fontawesome.com/license (Commercial License) Copyright 2025 Fonticons, Inc. --><path fill="currentColor" d="M447 56C434.5 43.5 414.2 43.5 401.7 56L389.6 68.1C363.7 94 355.7 131.1 365.6 163.9C354.7 161.3 343.3 160 331.5 160C273.2 160 220.2 194.1 196 247.2L67.2 530.8C61.7 542.9 64.3 557.2 73.7 566.7C83.1 576.2 97.4 578.7 109.6 573.2L393.1 444.3C446.2 420.2 480.3 367.2 480.3 308.8C480.3 297.1 478.9 285.7 476.4 274.7C509.2 284.6 546.3 276.6 572.2 250.7L584.3 238.6C596.8 226.1 596.8 205.8 584.3 193.3L572.2 181.2C548.6 157.6 515.7 148.8 485.3 155C491.4 124.5 482.7 91.7 459.1 68.1L447 56zM384.4 176L384.4 176L413.1 204.7L413.1 204.7L384.4 176zM435.7 227.3L435.7 227.3L464.4 256L464.4 256L435.7 227.3zM447 216L459.4 203.6C484.4 178.9 524.7 179 549.6 203.9L561.7 216L549.6 228.1C524.6 253.1 484.1 253.1 459.1 228.1L447 216zM436.5 181.3L424.4 193.4L412.3 181.3C387.3 156.3 387.3 115.8 412.3 90.8L424.4 78.7L436.5 90.8C461.5 115.8 461.5 156.3 436.5 181.3L436.5 181.3zM331.6 192C396.1 192 448.4 244.3 448.4 308.8C448.4 354.6 421.6 396.2 379.9 415.1L287.9 456.9L283.7 452.7L251.7 420.7C245.5 414.5 235.3 414.5 229.1 420.7C222.9 426.9 222.9 437.1 229.1 443.3L256.8 471.1L96.4 544L225.3 260.5C226.6 257.6 228.1 254.7 229.6 251.9L277.1 299.4C283.3 305.6 293.5 305.6 299.7 299.4C305.9 293.2 305.9 283 299.7 276.8L251.7 228.8L249.1 226.2C270.6 204.7 300.1 192.1 331.6 192.1z"/></svg>