<svg xmlns="http://www.w3.org/2000/svg" viewBox="0 0 640 640"><!--! Font Awesome Pro 7.1.0 by @fontawesome - https://fontawesome.com License - https://fontawesome.com/license (Commercial License) Copyright 2025 Fonticons, Inc. --><path fill="currentColor" d="M118.4 120.2C122 106 134.8 96 149.5 96L298.5 96C313.2 96 326 106 329.5 120.2L343.4 175.8L376.4 175.8L360.6 112.4C353.5 84 327.9 64 298.5 64L149.5 64C120.1 64 94.5 84 87.4 112.5L65.6 199.7C45.6 210.5 32 231.7 32 256L32 400C32 408.8 39.2 416 48 416C56.8 416 64 408.8 64 400L64 384L180.6 384C184 372.4 189.3 361.7 196 352L64 352L64 256C64 238.3 78.3 224 96 224L249.4 224C258.4 211 270.1 200.1 283.5 192L100.5 192L118.4 120.2zM152 288C152 274.7 141.3 264 128 264C114.7 264 104 274.7 104 288C104 301.3 114.7 312 128 312C141.3 312 152 301.3 152 288zM341.5 256L490.5 256C505.2 256 518 266 521.5 280.2L539.4 352L292.4 352L310.3 280.2C313.9 266 326.7 256 341.3 256zM279.4 272.5L257.6 359.7C237.6 370.5 224 391.7 224 416L224 560C224 568.8 231.2 576 240 576C248.8 576 256 568.8 256 560L256 544L576 544L576 560C576 568.8 583.2 576 592 576C600.8 576 608 568.8 608 560L608 416C608 391.7 594.4 370.5 574.4 359.7L552.6 272.5C545.5 244 519.9 224 490.5 224L341.5 224C312.1 224 286.5 244 279.4 272.5zM576 448L576 512L256 512L256 416C256 398.3 270.3 384 288 384L544 384C561.7 384 576 398.3 576 416L576 448zM320 472C333.3 472 344 461.3 344 448C344 434.7 333.3 424 320 424C306.7 424 296 434.7 296 448C296 461.3 306.7 472 320 472zM536 448C536 434.7 525.3 424 512 424C498.7 424 488 434.7 488 448C488 461.3 498.7 472 512 472C525.3 472 536 461.3 536 448z"/></svg>