<svg xmlns="http://www.w3.org/2000/svg" viewBox="0 0 640 640"><!--! Font Awesome Pro 7.1.0 by @fontawesome - https://fontawesome.com License - https://fontawesome.com/license (Commercial License) Copyright 2025 Fonticons, Inc. --><path fill="currentColor" d="M0 80C0 71.2 7.2 64 16 64L61.3 64C84.5 64 104.4 80.6 108.5 103.4L147.9 320L466.7 320C485.6 320 501.9 306.8 505.8 288.4L544.4 108.6C546.3 100 554.8 94.5 563.4 96.3C572 98.1 577.5 106.7 575.7 115.3L537.1 295.1C530 328.3 500.7 352 466.7 352L153.7 352L159.4 383.2C162.9 402.2 179.4 416 198.8 416L464 416C472.8 416 480 423.2 480 432C480 440.8 472.8 448 464 448L198.7 448C163.9 448 134.1 423.1 127.9 388.9L77 109.1C75.7 101.5 69 96 61.3 96L16 96C7.2 96 0 88.8 0 80zM208 544C219 544 228 535 228 524C228 513 219 504 208 504C197 504 188 513 188 524C188 535 197 544 208 544zM208 472C236.7 472 260 495.3 260 524C260 552.7 236.7 576 208 576C179.3 576 156 552.7 156 524C156 495.3 179.3 472 208 472zM452 524C452 513 443 504 432 504C421 504 412 513 412 524C412 535 421 544 432 544C443 544 452 535 452 524zM380 524C380 495.3 403.3 472 432 472C460.7 472 484 495.3 484 524C484 552.7 460.7 576 432 576C403.3 576 380 552.7 380 524zM304 232L304 176L248 176C239.2 176 232 168.8 232 160C232 151.2 239.2 144 248 144L304 144L304 88C304 79.2 311.2 72 320 72C328.8 72 336 79.2 336 88L336 144L392 144C400.8 144 408 151.2 408 160C408 168.8 400.8 176 392 176L336 176L336 232C336 240.8 328.8 248 320 248C311.2 248 304 240.8 304 232z"/></svg>