<svg xmlns="http://www.w3.org/2000/svg" viewBox="0 0 640 640"><!--! Font Awesome Pro 7.1.0 by @fontawesome - https://fontawesome.com License - https://fontawesome.com/license (Commercial License) Copyright 2025 Fonticons, Inc. --><path fill="currentColor" d="M16 64C7.2 64 0 71.2 0 80C0 88.8 7.2 96 16 96L61.3 96C69 96 75.7 101.5 77 109.1L127.9 388.8C134.1 423 163.9 447.9 198.7 447.9L304.6 447.9C305.5 436.9 307.3 426.3 310 415.9L198.7 415.9C179.4 415.9 162.8 402.1 159.3 383.1L153.7 352L340 352C348.4 340.3 358.2 329.5 369 320L147.9 320L113 128L530.3 128C535.4 128 539.2 132.7 538.1 137.7L509.3 272.5C520.1 273.2 530.7 274.9 541 277.3L569.4 144.4C574.8 119.5 555.8 96 530.3 96L106.6 96C99.9 77.1 81.9 64 61.3 64L16 64zM188 524C188 513 197 504 208 504C219 504 228 513 228 524C228 535 219 544 208 544C197 544 188 535 188 524zM260 524C260 495.3 236.7 472 208 472C179.3 472 156 495.3 156 524C156 552.7 179.3 576 208 576C236.7 576 260 552.7 260 524zM384 464C384 402.1 434.1 352 496 352C557.9 352 608 402.1 608 464C608 525.9 557.9 576 496 576C434.1 576 384 525.9 384 464zM640 464C640 384.5 575.5 320 496 320C416.5 320 352 384.5 352 464C352 543.5 416.5 608 496 608C575.5 608 640 543.5 640 464zM518.6 464L555.3 427.3C561.5 421.1 561.5 410.9 555.3 404.7C549.1 398.5 538.9 398.5 532.7 404.7L496 441.4L459.3 404.7C453.1 398.5 442.9 398.5 436.7 404.7C430.5 410.9 430.5 421.1 436.7 427.3L473.4 464L436.7 500.7C430.5 506.9 430.5 517.1 436.7 523.3C442.9 529.5 453.1 529.5 459.3 523.3L496 486.6L532.7 523.3C538.9 529.5 549.1 529.5 555.3 523.3C561.5 517.1 561.5 506.9 555.3 500.7L518.6 464z"/></svg>