<svg xmlns="http://www.w3.org/2000/svg" viewBox="0 0 640 640"><!--! Font Awesome Pro 7.1.0 by @fontawesome - https://fontawesome.com License - https://fontawesome.com/license (Commercial License) Copyright 2025 Fonticons, Inc. --><path fill="currentColor" d="M64 80C64 71.2 71.2 64 80 64L125.3 64C145.9 64 163.9 77.1 170.6 96L594.4 96C619.9 96 638.8 119.5 633.5 144.4L601.1 295.1C594 328.3 564.7 352 530.7 352L217.7 352L223.4 383.2C226.9 402.2 243.4 416 262.8 416L528 416C536.8 416 544 423.2 544 432C544 440.8 536.8 448 528 448L262.7 448C227.9 448 198.1 423.1 191.9 388.9L141 109.1C139.6 101.5 133 96 125.3 96L80 96C71.2 96 64 88.8 64 80zM211.9 320L530.7 320C549.6 320 565.9 306.8 569.8 288.4L602.1 137.7C603.2 132.7 599.4 128 594.3 128L177 128L211.9 320zM272 544C283 544 292 535 292 524C292 513 283 504 272 504C261 504 252 513 252 524C252 535 261 544 272 544zM272 472C300.7 472 324 495.3 324 524C324 552.7 300.7 576 272 576C243.3 576 220 552.7 220 524C220 495.3 243.3 472 272 472zM516 524C516 513 507 504 496 504C485 504 476 513 476 524C476 535 485 544 496 544C507 544 516 535 516 524zM444 524C444 495.3 467.3 472 496 472C524.7 472 548 495.3 548 524C548 552.7 524.7 576 496 576C467.3 576 444 552.7 444 524zM16 160L80 160C88.8 160 96 167.2 96 176C96 184.8 88.8 192 80 192L16 192C7.2 192 0 184.8 0 176C0 167.2 7.2 160 16 160zM16 256L96 256C104.8 256 112 263.2 112 272C112 280.8 104.8 288 96 288L16 288C7.2 288 0 280.8 0 272C0 263.2 7.2 256 16 256zM16 352L112 352C120.8 352 128 359.2 128 368C128 376.8 120.8 384 112 384L16 384C7.2 384 0 376.8 0 368C0 359.2 7.2 352 16 352z"/></svg>