<svg xmlns="http://www.w3.org/2000/svg" viewBox="0 0 640 640"><!--! Font Awesome Pro 7.1.0 by @fontawesome - https://fontawesome.com License - https://fontawesome.com/license (Commercial License) Copyright 2025 Fonticons, Inc. --><path fill="currentColor" d="M0 80C0 71.2 7.2 64 16 64L61.3 64C84.5 64 104.4 80.6 108.5 103.4L147.9 320L466.7 320C485.6 320 501.9 306.8 505.8 288.4L544.4 108.6C546.3 100 554.8 94.5 563.4 96.3C572 98.1 577.5 106.7 575.7 115.3L537.1 295.1C530 328.3 500.7 352 466.7 352L153.7 352L159.4 383.2C162.9 402.2 179.4 416 198.8 416L464 416C472.8 416 480 423.2 480 432C480 440.8 472.8 448 464 448L198.7 448C163.9 448 134.1 423.1 127.9 388.9L77 109.1C75.7 101.5 69 96 61.3 96L16 96C7.2 96 0 88.8 0 80zM208 544C219 544 228 535 228 524C228 513 219 504 208 504C197 504 188 513 188 524C188 535 197 544 208 544zM208 472C236.7 472 260 495.3 260 524C260 552.7 236.7 576 208 576C179.3 576 156 552.7 156 524C156 495.3 179.3 472 208 472zM452 524C452 513 443 504 432 504C421 504 412 513 412 524C412 535 421 544 432 544C443 544 452 535 452 524zM380 524C380 495.3 403.3 472 432 472C460.7 472 484 495.3 484 524C484 552.7 460.7 576 432 576C403.3 576 380 552.7 380 524zM252.7 92.7C258.9 86.5 269.1 86.5 275.3 92.7L320 137.4L364.7 92.7C370.9 86.5 381.1 86.5 387.3 92.7C393.5 98.9 393.5 109.1 387.3 115.3L342.6 160L387.3 204.7C393.5 210.9 393.5 221.1 387.3 227.3C381.1 233.5 370.9 233.5 364.7 227.3L320 182.6L275.3 227.3C269.1 233.5 258.9 233.5 252.7 227.3C246.5 221.1 246.5 210.9 252.7 204.7L297.4 160L252.7 115.3C246.5 109.1 246.5 98.9 252.7 92.7z"/></svg>