<svg xmlns="http://www.w3.org/2000/svg" viewBox="0 0 640 640"><!--! Font Awesome Pro 7.1.0 by @fontawesome - https://fontawesome.com License - https://fontawesome.com/license (Commercial License) Copyright 2025 Fonticons, Inc. --><path fill="currentColor" d="M320 96C337.7 96 352 110.3 352 128C352 145.7 337.7 160 320 160L160 160C142.3 160 128 145.7 128 128C128 110.3 142.3 96 160 96L320 96zM160 64C124.7 64 96 92.7 96 128C96 163.3 124.7 192 160 192L224 192L224 224L151.5 224C119.7 224 92.6 247.4 88.1 278.9L64.6 443.5C64.2 446.5 64 449.5 64 452.5L64 512C64 547.3 92.7 576 128 576L512 576C547.3 576 576 547.3 576 512L576 452.5C576 449.5 575.8 446.4 575.4 443.5L551.8 278.9C547.3 247.4 520.3 224 488.4 224L255.9 224L255.9 192L319.9 192C355.2 192 383.9 163.3 383.9 128C383.9 92.7 355.3 64 320 64L160 64zM96 512L96 480L544 480L544 512C544 529.7 529.7 544 512 544L128 544C110.3 544 96 529.7 96 512zM520.2 283.5L543.7 448L96.3 448L119.8 283.5C122.1 267.7 135.6 256 151.5 256L488.5 256C504.4 256 517.9 267.7 520.2 283.5zM176 296C162.7 296 152 306.7 152 320C152 333.3 162.7 344 176 344C189.3 344 200 333.3 200 320C200 306.7 189.3 296 176 296zM248 320C248 333.3 258.7 344 272 344C285.3 344 296 333.3 296 320C296 306.7 285.3 296 272 296C258.7 296 248 306.7 248 320zM224 376C210.7 376 200 386.7 200 400C200 413.3 210.7 424 224 424C237.3 424 248 413.3 248 400C248 386.7 237.3 376 224 376zM344 320C344 333.3 354.7 344 368 344C381.3 344 392 333.3 392 320C392 306.7 381.3 296 368 296C354.7 296 344 306.7 344 320zM320 376C306.7 376 296 386.7 296 400C296 413.3 306.7 424 320 424C333.3 424 344 413.3 344 400C344 386.7 333.3 376 320 376zM440 320C440 333.3 450.7 344 464 344C477.3 344 488 333.3 488 320C488 306.7 477.3 296 464 296C450.7 296 440 306.7 440 320zM416 376C402.7 376 392 386.7 392 400C392 413.3 402.7 424 416 424C429.3 424 440 413.3 440 400C440 386.7 429.3 376 416 376z"/></svg>