<svg xmlns="http://www.w3.org/2000/svg" viewBox="0 0 640 640"><!--! Font Awesome Pro 7.1.0 by @fontawesome - https://fontawesome.com License - https://fontawesome.com/license (Commercial License) Copyright 2025 Fonticons, Inc. --><path fill="currentColor" d="M208 112C208 103.2 200.8 96 192 96C183.2 96 176 103.2 176 112L176 288L96 288L96 240C96 231.2 88.8 224 80 224C71.2 224 64 231.2 64 240L64 512C64 547.3 92.7 576 128 576L512 576C547.3 576 576 547.3 576 512L576 240C576 231.2 568.8 224 560 224C551.2 224 544 231.2 544 240L544 288L464 288L464 112C464 103.2 456.8 96 448 96C439.2 96 432 103.2 432 112L432 168L336 168L336 112C336 103.2 328.8 96 320 96C311.2 96 304 103.2 304 112L304 168L208 168L208 112zM208 200L432 200L432 304C432 312.8 439.2 320 448 320L544 320L544 512C544 529.7 529.7 544 512 544L400 544L400 464C400 419.8 364.2 384 320 384C275.8 384 240 419.8 240 464L240 544L128 544C110.3 544 96 529.7 96 512L96 320L192 320C200.8 320 208 312.8 208 304L208 200zM368 464L368 544L272 544L272 464C272 437.5 293.5 416 320 416C346.5 416 368 437.5 368 464z"/></svg>