<svg xmlns="http://www.w3.org/2000/svg" viewBox="0 0 640 640"><!--! Font Awesome Pro 7.1.0 by @fontawesome - https://fontawesome.com License - https://fontawesome.com/license (Commercial License) Copyright 2025 Fonticons, Inc. --><path fill="currentColor" d="M432 32C529.2 32 608 110.8 608 208C608 276.4 569 335.6 512 364.7L512 528C512 554.5 490.5 576 464 576C437.5 576 416 554.5 416 528L416 403.6L329.8 480.2C360.1 482.5 384 507.8 384 538.6C384 559.2 367.3 575.9 346.7 575.9L176 576C131.8 576 96 540.2 96 496L96 240C96 213.5 74.5 192 48 192C39.2 192 32 184.8 32 176C32 167.2 39.2 160 48 160C92.2 160 128 195.8 128 240L128 356C156.8 304 203.2 263.1 259.2 241.3C257.1 230.5 256 219.4 256 208C256 110.8 334.8 32 432 32zM268.2 272.2C188.7 304.3 131.9 380.7 128.2 470.7L128 480L128 496C128 522.5 149.5 544 176 544L346.7 544C349.6 544 352 541.6 352 538.7C352 524 340.1 512.1 325.3 512L288 512C280.3 512 273.8 506.5 272.3 499.2L272 496L272 456C272 433.9 254.1 416 232 416L224 416C215.2 416 208 408.8 208 400C208 391.2 215.2 384 224 384L232 384C271.8 384 304 416.2 304 456L304 460.3L394.4 379.9C336.5 367.3 289.3 326.3 268.1 272.2zM480 377.3C469.7 380.2 459 382.2 448 383.2L448 528C448 536.8 455.2 544 464 544C472.8 544 480 536.8 480 528L480 377.3zM544 205.7C544 267.6 493.9 317.7 432 317.7C370.1 317.7 320 267.5 320 205.7L320 117.5C300 142.2 288 173.7 288 208C288 285 348.5 348 424.6 351.8L432 352L439.4 351.8C515.5 347.9 576 285 576 208C576 173.7 564 142.2 544 117.5L544 205.7zM469.4 149.6C466.6 151.9 463 153.1 459.4 153.1L404.5 153.1C401.8 153.1 399.1 152.4 396.7 151.1L394.5 149.6L351.9 115.5L351.9 205.7C351.9 249.9 387.7 285.7 431.9 285.7C476.1 285.7 511.9 249.9 511.9 205.7L511.9 115.5L469.3 149.6zM400 228C389 228 380 219 380 208C380 197 389 188 400 188C411 188 420 197 420 208C420 219 411 228 400 228zM464 228C453 228 444 219 444 208C444 197 453 188 464 188C475 188 484 197 484 208C484 219 475 228 464 228zM176 48C184.8 48 192 55.2 192 64L192 96L224 96C232.8 96 240 103.2 240 112C240 120.8 232.8 128 224 128L192 128L192 160C192 168.8 184.8 176 176 176C167.2 176 160 168.8 160 160L160 128L128 128C119.2 128 112 120.8 112 112C112 103.2 119.2 96 128 96L160 96L160 64C160 55.2 167.2 48 176 48zM432 64C406.5 64 382.5 70.7 361.7 82.3L410.2 121.1L453.9 121.1L502.4 82.3C481.5 70.7 457.5 64 432 64z"/></svg>