<svg xmlns="http://www.w3.org/2000/svg" viewBox="0 0 640 640"><!--! Font Awesome Pro 7.1.0 by @fontawesome - https://fontawesome.com License - https://fontawesome.com/license (Commercial License) Copyright 2025 Fonticons, Inc. --><path fill="currentColor" d="M551.9 34.2C556.5 31.5 562.1 31.2 567 33.6C572.5 36.3 576.1 41.9 576.1 48L576.1 192C576.1 239.4 550.4 280.7 512.1 302.8L512 528C512 554.5 490.5 576 464 576C437.5 576 416 554.5 416 528L416 429.9L338.6 481.6C364.6 487.6 384 510.9 384 538.7C384 559.3 367.3 576 346.7 576L176 576C131.8 575.9 96 540.1 96 496L96 240C96 213.5 74.5 192 48 192C39.2 192 32 184.8 32 176C32 167.2 39.2 160 48 160C92.2 160 128 195.8 128 240L128 356C167.5 284.9 239.8 234.6 324.5 225.5C321.6 214.8 320 203.6 320 192L320 48C320 41.9 323.5 36.3 329.1 33.6C334.6 30.9 341.2 31.7 346 35.5L421.6 96L474.4 96L550 35.5L551.9 34.2zM337.4 256.5C220.5 264 128 361.2 128 480L128 496C128 522.5 149.5 544 176 544L346.7 544C349.6 544 352 541.6 352 538.7C352 524 340.1 512.1 325.3 512L288 512C279.2 512 272 504.9 272 496L272 456C272 433.9 254.1 416 232 416L224 416C215.2 416 208 408.8 208 400C208 391.2 215.2 384 224 384L232 384C271.8 384 304 416.2 304 456L304 466.1L423.1 386.7C428 383.4 434.3 383.1 439.5 385.9C444.7 388.7 447.9 394.1 447.9 400L447.9 528C447.9 536.8 455.1 544 463.9 544C472.7 544 479.9 536.8 479.9 528L479.9 316C469.7 318.6 458.9 320 447.9 320C400.7 320 359.5 294.5 337.3 256.5zM490 124.5C487.2 126.8 483.6 128 480 128L416 128C412.4 128 408.8 126.8 406 124.5L352 81.3L352 192C352 245 395 288 448 288C501 288 544 245 544 192L544 81.3L490 124.5zM408 212C397 212 388 203 388 192C388 181 397 172 408 172C419 172 428 181 428 192C428 203 419 212 408 212zM488 212C477 212 468 203 468 192C468 181 477 172 488 172C499 172 508 181 508 192C508 203 499 212 488 212z"/></svg>