<svg xmlns="http://www.w3.org/2000/svg" viewBox="0 0 640 640"><!--! Font Awesome Pro 7.1.0 by @fontawesome - https://fontawesome.com License - https://fontawesome.com/license (Commercial License) Copyright 2025 Fonticons, Inc. --><path fill="currentColor" d="M256 88C269.3 88 280 77.3 280 64C280 50.7 269.3 40 256 40C242.7 40 232 50.7 232 64C232 77.3 242.7 88 256 88zM368 128C368 119.2 375.2 112 384 112C392.8 112 400 119.2 400 128C400 136.8 392.8 144 384 144C375.2 144 368 136.8 368 128zM432 128C432 101.5 410.5 80 384 80C357.5 80 336 101.5 336 128C336 154.5 357.5 176 384 176C410.5 176 432 154.5 432 128zM156.1 308.9C168 287 181.2 268.3 190.9 256L449.1 256C458.8 268.3 472 287 483.9 308.9C500.3 339 512 371.1 512 398.4C512 443.5 490.6 478.8 455.9 503.9C420.5 529.5 371.3 544 320 544C268.7 544 219.5 529.5 184.1 503.9C149.4 478.8 128 443.5 128 398.4C128 371.1 139.7 339 156.1 308.9zM151.2 256C126.2 292.1 96 347.9 96 398.4C96 435.8 107.9 467.8 128 493.9L128 560C128 568.8 135.2 576 144 576C152.8 576 160 568.8 160 560L160 525.8C202.3 558.6 260.6 576 320 576C379.4 576 437.7 558.6 480 525.8L480 560C480 568.8 487.2 576 496 576C504.8 576 512 568.8 512 560L512 493.9C532.1 467.8 544 435.8 544 398.4C544 347.9 513.8 292.1 488.8 256L528 256C536.8 256 544 248.8 544 240C544 231.2 536.8 224 528 224L112 224C103.2 224 96 231.2 96 240C96 248.8 103.2 256 112 256L151.2 256z"/></svg>