<svg xmlns="http://www.w3.org/2000/svg" viewBox="0 0 640 640"><!--! Font Awesome Pro 7.1.0 by @fontawesome - https://fontawesome.com License - https://fontawesome.com/license (Commercial License) Copyright 2025 Fonticons, Inc. --><path fill="currentColor" d="M336 64C344.8 64 352 71.2 352 80L352 128.2C399.9 130.2 443.2 149.7 475.8 180.4C482.2 186.5 482.5 196.6 476.4 203C470.3 209.4 460.2 209.7 453.8 203.7C425.1 176.6 386.5 160 344 160C255.6 160 184 231.6 184 320C184 408.4 255.6 480 344 480C386.5 480 425.1 463.4 453.8 436.4C460.2 430.3 470.4 430.6 476.4 437.1C482.4 443.6 482.2 453.7 475.8 459.7C443.2 490.4 399.9 509.9 352 511.9L352 560.1C352 568.9 344.8 576.1 336 576.1C327.2 576.1 320 568.9 320 560.1L320 510.6C225.3 498.7 152 417.9 152 320C152 222.1 225.3 141.3 320 129.5L320 80C320 71.2 327.2 64 336 64z"/></svg>