<svg xmlns="http://www.w3.org/2000/svg" viewBox="0 0 640 640"><!--! Font Awesome Pro 7.1.0 by @fontawesome - https://fontawesome.com License - https://fontawesome.com/license (Commercial License) Copyright 2025 Fonticons, Inc. --><path fill="currentColor" d="M369.4 56C382.4 42.6 405.3 48.8 409.9 66.8L427.1 135L494.8 115.9C503.6 114 511.6 116.2 518.3 122C524 128.6 526.8 136.8 524.4 145.5L505.3 213.2L573.5 230.5C581.9 232.6 588.6 239.2 590.8 247.6C593 256 590.6 265 584.4 271L534 320.1L584.4 369.2C590.6 375.3 593.1 384.2 590.9 392.6C588.7 401 582 407.5 573.6 409.6L505.4 426.9L524.6 494.6C526.9 503 524.6 511.9 518.5 518.1C512.4 524.2 503.4 526.6 495 524.2L427.3 505.1L410 573.3C407.9 581.7 401.3 588.3 392.9 590.6C384.5 592.9 375.6 590.4 369.5 584.2L320.4 533.8L271.3 584.2C265.2 590.4 256.3 592.9 247.9 590.6C239.5 588.3 233 581.7 230.8 573.3L213.6 505.1L145.9 524.2C137.5 526.6 128.5 524.2 122.4 518.1C116.3 512 113.9 503 116.3 494.6L135.5 426.9L67.3 409.6C58.9 407.5 52.2 401 50 392.6C47.8 384.2 50.2 375.3 56.5 369.2L106.7 320L56.3 271C50.1 264.9 47.6 256 49.9 247.6C52.1 239.2 58.8 232.6 67.2 230.5L135.4 213.2L116.3 145.5C113.8 136.8 116.7 128.6 122.4 122C129.1 116.2 137.1 113.9 145.9 115.9L213.5 135L230.8 66.8C235.4 48.7 258.3 42.6 271.3 56L320.3 106.4L369.4 56zM331.8 499.5L382.4 551.5L396.2 497.1C400.6 479.7 418.6 469.3 435.9 474.2L489.8 489.5L474.6 435.6C469.7 418.3 480.1 400.3 497.5 395.9L551.8 382.1L511.7 343C498.8 330.4 498.8 309.7 511.7 297.1L551.8 258L497.5 244.2C480.1 239.8 469.7 221.8 474.6 204.5L489.8 150.6L435.9 165.8C418.6 170.7 400.6 160.3 396.2 142.9L382.4 88.6L343.3 128.8C337 135.3 328.7 138.5 320.3 138.5C311.9 138.5 303.6 135.3 297.4 128.8L258.3 88.6L244.5 142.9C240.1 160.4 222.1 170.7 204.8 165.8L150.9 150.6L166.1 204.5C171 221.8 160.6 239.8 143.2 244.2L88.8 258L129 297.1C141.9 309.7 141.9 330.4 129 343L88.8 382L143.2 395.8C160.7 400.2 171 418.2 166.1 435.5L150.9 489.4L204.8 474.1C222.1 469.2 240.1 479.6 244.5 497L258.3 551.4L308.9 499.4C311.9 496.3 316.1 494.6 320.4 494.6C324.7 494.6 328.9 496.3 331.9 499.4z"/></svg>