<svg xmlns="http://www.w3.org/2000/svg" viewBox="0 0 640 640"><!--! Font Awesome Pro 7.1.0 by @fontawesome - https://fontawesome.com License - https://fontawesome.com/license (Commercial License) Copyright 2025 Fonticons, Inc. --><path fill="currentColor" d="M373.1 156.5C381.3 163.4 388.8 171 395.7 179.2C415.5 161.8 441 152.1 467.5 152.1C527.4 152.1 576 200.7 576 260.6C576 289.4 564.6 316.9 544.2 337.3L465.1 416.4C444.8 436.7 417.2 448.2 388.4 448.2C328.5 448.2 279.9 399.6 279.9 339.7C279.9 324.1 283.3 308.8 289.6 294.8C293.3 286.8 289.7 277.3 281.7 273.6C273.7 269.9 264.2 273.5 260.5 281.5C252.3 299.6 247.9 319.4 247.9 339.7C247.9 417.3 310.8 480.2 388.4 480.2C425.6 480.2 461.4 465.4 487.7 439.1L566.8 360C593.1 333.7 607.9 297.9 607.9 260.7C607.9 183.1 545 120.2 467.4 120.2C432.4 120.2 398.8 133.3 373 156.7zM251.5 192C311.4 192 360 240.6 360 300.5C360 316.1 356.6 331.4 350.3 345.4C346.6 353.4 350.2 362.9 358.2 366.6C366.2 370.3 375.7 366.7 379.4 358.7C387.6 340.6 392 320.8 392 300.5C392 222.9 329.1 160 251.5 160C214.3 160 178.5 174.8 152.2 201.1L73.1 280.2C46.8 306.5 32 342.3 32 379.5C32 457.1 94.9 520 172.5 520C207.5 520 241.1 506.9 266.9 483.5C258.7 476.6 251.2 469 244.3 460.8C224.5 478.2 199 487.9 172.5 487.9C112.6 487.9 64 439.3 64 379.4C64 350.6 75.4 323.1 95.8 302.7L174.9 223.6C195.2 203.3 222.8 191.8 251.6 191.8z"/></svg>