<svg xmlns="http://www.w3.org/2000/svg" viewBox="0 0 640 640"><!--! Font Awesome Pro 7.1.0 by @fontawesome - https://fontawesome.com License - https://fontawesome.com/license (Commercial License) Copyright 2025 Fonticons, Inc. --><path fill="currentColor" d="M256 96C238.3 96 224 110.3 224 128L224 320L416 320L416 128C416 110.3 401.7 96 384 96L256 96zM448 128L448 320L464 320C490.5 320 512 341.5 512 368L512 416C512 442.5 490.5 464 464 464L336 464L336 544L400 544C408.8 544 416 551.2 416 560C416 568.8 408.8 576 400 576L240 576C231.2 576 224 568.8 224 560C224 551.2 231.2 544 240 544L304 544L304 464L176 464C149.5 464 128 442.5 128 416L128 368C128 341.5 149.5 320 176 320L192 320L192 128C192 92.7 220.7 64 256 64L384 64C419.3 64 448 92.7 448 128zM320 432L464 432C472.8 432 480 424.8 480 416L480 368C480 359.2 472.8 352 464 352L176 352C167.2 352 160 359.2 160 368L160 416C160 424.8 167.2 432 176 432L320 432zM144 208L144 272C144 280.8 136.8 288 128 288C119.2 288 112 280.8 112 272L112 208C112 199.2 119.2 192 128 192C136.8 192 144 199.2 144 208zM528 208L528 272C528 280.8 520.8 288 512 288C503.2 288 496 280.8 496 272L496 208C496 199.2 503.2 192 512 192C520.8 192 528 199.2 528 208z"/></svg>