<svg xmlns="http://www.w3.org/2000/svg" viewBox="0 0 640 640"><!--! Font Awesome Pro 7.1.0 by @fontawesome - https://fontawesome.com License - https://fontawesome.com/license (Commercial License) Copyright 2025 Fonticons, Inc. --><path fill="currentColor" d="M320 64C231.6 64 160 135.6 160 224L160 320L144 320C117.5 320 96 341.5 96 368L96 416C96 436.9 109.4 454.7 128 461.3L128 560C128 568.8 135.2 576 144 576C152.8 576 160 568.8 160 560L160 464L480 464L480 560C480 568.8 487.2 576 496 576C504.8 576 512 568.8 512 560L512 461.3C530.6 454.7 544 436.9 544 416L544 368C544 341.5 522.5 320 496 320L480 320L480 224C480 135.6 408.4 64 320 64zM448 320L384 320L384 113.1C422.3 135.2 448 176.6 448 224L448 320zM352 100L352 320L288 320L288 100C298.2 97.4 309 96 320 96C331 96 341.8 97.4 352 100zM256 113.1L256 320L192 320L192 224C192 176.6 217.7 135.3 256 113.1zM160 352L496 352C504.8 352 512 359.2 512 368L512 416C512 424.8 504.8 432 496 432L144 432C135.2 432 128 424.8 128 416L128 368C128 359.2 135.2 352 144 352L160 352z"/></svg>