<svg xmlns="http://www.w3.org/2000/svg" viewBox="0 0 640 640"><!--! Font Awesome Pro 7.1.0 by @fontawesome - https://fontawesome.com License - https://fontawesome.com/license (Commercial License) Copyright 2025 Fonticons, Inc. --><path fill="currentColor" d="M59.3 36.8C53.1 30.6 42.9 30.6 36.7 36.8C30.5 43 30.5 53.2 36.7 59.4L580.7 603.4C586.9 609.6 597.1 609.6 603.3 603.4C609.5 597.2 609.5 587 603.3 580.8L543 520.4C582.2 494.7 608 450.3 608 400C608 342.5 574.4 293 525.7 269.8C524 280.8 521.3 291.4 517.9 301.7C552.6 320.7 576.1 357.6 576.1 399.9C576.1 441.5 553.5 477.8 519.8 497.1L394.3 371.7C444.8 349.4 480 298.8 480 240C480 160.5 415.5 96 336 96L176 96C158.8 96 142.3 99 127.1 104.5L59.3 36.8zM152.9 130.4C160.3 128.8 168.1 128 176 128L336 128C397.9 128 448 178.1 448 240C448 290.2 415 332.7 369.5 346.9L310.5 288L368 288C376.8 288 384 280.8 384 272C384 263.2 376.8 256 368 256L304 256C296 256 288.1 256.7 280.4 257.9L152.9 130.4zM61.8 152.3C43.1 176.6 32 207 32 240C32 297.5 65.6 347 114.3 370.2C116 359.2 118.7 348.6 122.1 338.3C87.4 319.3 63.9 282.4 63.9 240.1C63.9 215.9 71.5 193.6 84.6 175.3L61.8 152.3zM205 295.5C177.3 321.7 160 358.9 160 400C160 479.5 224.5 544 304 544L453.5 544L421.5 512L304 512C242.1 512 192 461.9 192 400C192 367.7 205.7 338.6 227.6 318.1L205 295.5z"/></svg>