<svg xmlns="http://www.w3.org/2000/svg" viewBox="0 0 640 640"><!--! Font Awesome Pro 7.1.0 by @fontawesome - https://fontawesome.com License - https://fontawesome.com/license (Commercial License) Copyright 2025 Fonticons, Inc. --><path fill="currentColor" d="M192 128L544 128C561.7 128 576 142.3 576 160L576 448C576 465.7 561.7 480 544 480L512 480L512 416C512 398.3 497.7 384 480 384L384 384C366.3 384 352 398.3 352 416L352 480L322.1 480C326.9 490.1 330.6 500.8 333 512L544 512C579.3 512 608 483.3 608 448L608 160C608 124.7 579.3 96 544 96L192 96C156.7 96 128 124.7 128 160L128 209C133.2 208.3 138.6 208 144 208C149.4 208 154.8 208.3 160 209L160 160C160 142.3 174.3 128 192 128zM384 480L384 416L480 416L480 480L384 480zM96 336C96 309.5 117.5 288 144 288C170.5 288 192 309.5 192 336C192 362.5 170.5 384 144 384C117.5 384 96 362.5 96 336zM224 336C224 291.8 188.2 256 144 256C99.8 256 64 291.8 64 336C64 380.2 99.8 416 144 416C188.2 416 224 380.2 224 336zM96 448C43 448 0 491 0 544L0 560C0 568.8 7.2 576 16 576C24.8 576 32 568.8 32 560L32 544C32 508.7 60.7 480 96 480L192 480C227.3 480 256 508.7 256 544L256 560C256 568.8 263.2 576 272 576C280.8 576 288 568.8 288 560L288 544C288 491 245 448 192 448L96 448z"/></svg>