<svg xmlns="http://www.w3.org/2000/svg" viewBox="0 0 640 640"><!--! Font Awesome Pro 7.1.0 by @fontawesome - https://fontawesome.com License - https://fontawesome.com/license (Commercial License) Copyright 2025 Fonticons, Inc. --><path fill="currentColor" d="M96 184L96 480L288 480L288 432C288 405.5 309.5 384 336 384L432 384C458.5 384 480 405.5 480 432L480 480L544 480L544 184C544 170.7 533.3 160 520 160L120 160C106.7 160 96 170.7 96 184zM64 480L64 184C64 153.1 89.1 128 120 128L520 128C550.9 128 576 153.1 576 184L576 480L592 480C600.8 480 608 487.2 608 496C608 504.8 600.8 512 592 512L48 512C39.2 512 32 504.8 32 496C32 487.2 39.2 480 48 480L64 480zM448 432C448 423.2 440.8 416 432 416L336 416C327.2 416 320 423.2 320 432L320 480L448 480L448 432z"/></svg>