<svg xmlns="http://www.w3.org/2000/svg" viewBox="0 0 640 640"><!--! Font Awesome Pro 7.1.0 by @fontawesome - https://fontawesome.com License - https://fontawesome.com/license (Commercial License) Copyright 2025 Fonticons, Inc. --><path fill="currentColor" d="M80 96C88.8 96 96 103.2 96 112L96 464C96 490.5 117.5 512 144 512L560 512C568.8 512 576 519.2 576 528C576 536.8 568.8 544 560 544L144 544C99.8 544 64 508.2 64 464L64 112C64 103.2 71.2 96 80 96zM240 387.2C250.6 387.2 259.2 378.6 259.2 368C259.2 357.4 250.6 348.8 240 348.8C229.4 348.8 220.8 357.4 220.8 368C220.8 378.6 229.4 387.2 240 387.2zM240 320C266.5 320 288 341.5 288 368C288 394.5 266.5 416 240 416C213.5 416 192 394.5 192 368C192 341.5 213.5 320 240 320zM448 352C448 334.3 433.7 320 416 320C398.3 320 384 334.3 384 352C384 369.7 398.3 384 416 384C433.7 384 448 369.7 448 352zM352 352C352 316.7 380.7 288 416 288C451.3 288 480 316.7 480 352C480 387.3 451.3 416 416 416C380.7 416 352 387.3 352 352zM304 259.2C314.6 259.2 323.2 250.6 323.2 240C323.2 229.4 314.6 220.8 304 220.8C293.4 220.8 284.8 229.4 284.8 240C284.8 250.6 293.4 259.2 304 259.2zM304 192C330.5 192 352 213.5 352 240C352 266.5 330.5 288 304 288C277.5 288 256 266.5 256 240C256 213.5 277.5 192 304 192zM480 192C480 174.3 465.7 160 448 160C430.3 160 416 174.3 416 192C416 209.7 430.3 224 448 224C465.7 224 480 209.7 480 192zM384 192C384 156.7 412.7 128 448 128C483.3 128 512 156.7 512 192C512 227.3 483.3 256 448 256C412.7 256 384 227.3 384 192z"/></svg>