<svg xmlns="http://www.w3.org/2000/svg" viewBox="0 0 640 640"><!--! Font Awesome Pro 7.1.0 by @fontawesome - https://fontawesome.com License - https://fontawesome.com/license (Commercial License) Copyright 2025 Fonticons, Inc. --><path fill="currentColor" d="M96 112C96 103.2 88.8 96 80 96C71.2 96 64 103.2 64 112L64 464C64 508.2 99.8 544 144 544L560 544C568.8 544 576 536.8 576 528C576 519.2 568.8 512 560 512L144 512C117.5 512 96 490.5 96 464L96 112zM208 160L432 160C440.8 160 448 152.8 448 144C448 135.2 440.8 128 432 128L208 128C199.2 128 192 135.2 192 144C192 152.8 199.2 160 208 160zM208 256C199.2 256 192 263.2 192 272C192 280.8 199.2 288 208 288L368 288C376.8 288 384 280.8 384 272C384 263.2 376.8 256 368 256L208 256zM208 384C199.2 384 192 391.2 192 400C192 408.8 199.2 416 208 416L496 416C504.8 416 512 408.8 512 400C512 391.2 504.8 384 496 384L208 384z"/></svg>