<svg xmlns="http://www.w3.org/2000/svg" viewBox="0 0 640 640"><!--! Font Awesome Pro 7.1.0 by @fontawesome - https://fontawesome.com License - https://fontawesome.com/license (Commercial License) Copyright 2025 Fonticons, Inc. --><path fill="currentColor" d="M80 96C88.8 96 96 103.2 96 112L96 464C96 490.5 117.5 512 144 512L560 512C568.8 512 576 519.2 576 528C576 536.8 568.8 544 560 544L144 544C99.8 544 64 508.2 64 464L64 112C64 103.2 71.2 96 80 96zM360 192C355.6 192 352 195.6 352 200L352 280C352 284.4 355.6 288 360 288L376 288C380.4 288 384 284.4 384 280L384 200C384 195.6 380.4 192 376 192L360 192zM352 160L352 112C352 103.2 359.2 96 368 96C376.8 96 384 103.2 384 112L384 160C384 160.3 384 160.5 384 160.8C402.3 164.5 416 180.6 416 200L416 280C416 299.4 402.2 315.5 384 319.2C384 319.5 384 319.7 384 320L384 368C384 376.8 376.8 384 368 384C359.2 384 352 376.8 352 368L352 320C352 319.7 352 319.5 352 319.2C333.7 315.5 320 299.4 320 280L320 200C320 180.6 333.8 164.5 352 160.8C352 160.5 352 160.3 352 160zM512 296L512 344C512 348.4 515.6 352 520 352L536 352C540.4 352 544 348.4 544 344L544 296C544 291.6 540.4 288 536 288L520 288C515.6 288 512 291.6 512 296zM512 256.8C512 256.5 512 256.3 512 256L512 208C512 199.2 519.2 192 528 192C536.8 192 544 199.2 544 208L544 256C544 256.3 544 256.5 544 256.8C562.3 260.5 576 276.6 576 296L576 344C576 363.4 562.2 379.5 544 383.2C544 383.5 544 383.7 544 384L544 432C544 440.8 536.8 448 528 448C519.2 448 512 440.8 512 432L512 384C512 383.7 512 383.5 512 383.2C493.7 379.5 480 363.4 480 344L480 296C480 276.6 493.8 260.5 512 256.8zM224 232C224 227.6 220.4 224 216 224L200 224C195.6 224 192 227.6 192 232L192 344C192 348.4 195.6 352 200 352L216 352C220.4 352 224 348.4 224 344L224 232zM192 192.8C192 192.5 192 192.3 192 192L192 144C192 135.2 199.2 128 208 128C216.8 128 224 135.2 224 144L224 192C224 192.3 224 192.5 224 192.8C242.3 196.5 256 212.6 256 232L256 344C256 363.4 242.2 379.5 224 383.2C224 383.5 224 383.7 224 384L224 432C224 440.8 216.8 448 208 448C199.2 448 192 440.8 192 432L192 384C192 383.7 192 383.5 192 383.2C173.7 379.5 160 363.4 160 344L160 232C160 212.6 173.8 196.5 192 192.8z"/></svg>