<svg xmlns="http://www.w3.org/2000/svg" viewBox="0 0 640 640"><!--! Font Awesome Pro 7.1.0 by @fontawesome - https://fontawesome.com License - https://fontawesome.com/license (Commercial License) Copyright 2025 Fonticons, Inc. --><path fill="currentColor" d="M336 112C336 103.2 328.8 96 320 96C311.2 96 304 103.2 304 112L304 344.6L101.7 515.8C95 521.5 94.1 531.6 99.8 538.4C105.5 545.2 115.6 546 122.3 540.3L320 373L517.7 540.2C524.4 545.9 534.5 545.1 540.3 538.3C546.1 531.5 545.2 521.5 538.4 515.7L336 344.6L336 112zM448 152C461.3 152 472 141.3 472 128C472 114.7 461.3 104 448 104C434.7 104 424 114.7 424 128C424 141.3 434.7 152 448 152zM472 320C472 306.7 461.3 296 448 296C434.7 296 424 306.7 424 320C424 333.3 434.7 344 448 344C461.3 344 472 333.3 472 320zM544 248C557.3 248 568 237.3 568 224C568 210.7 557.3 200 544 200C530.7 200 520 210.7 520 224C520 237.3 530.7 248 544 248zM216 224C216 210.7 205.3 200 192 200C178.7 200 168 210.7 168 224C168 237.3 178.7 248 192 248C205.3 248 216 237.3 216 224zM96 152C109.3 152 120 141.3 120 128C120 114.7 109.3 104 96 104C82.7 104 72 114.7 72 128C72 141.3 82.7 152 96 152zM120 320C120 306.7 109.3 296 96 296C82.7 296 72 306.7 72 320C72 333.3 82.7 344 96 344C109.3 344 120 333.3 120 320zM320 536C333.3 536 344 525.3 344 512C344 498.7 333.3 488 320 488C306.7 488 296 498.7 296 512C296 525.3 306.7 536 320 536z"/></svg>