<svg xmlns="http://www.w3.org/2000/svg" viewBox="0 0 640 640"><!--! Font Awesome Pro 7.1.0 by @fontawesome - https://fontawesome.com License - https://fontawesome.com/license (Commercial License) Copyright 2025 Fonticons, Inc. --><path fill="currentColor" d="M528 480C536.8 480 544 472.8 544 464L544 176C544 167.2 536.8 160 528 160L496 160C487.2 160 480 167.2 480 176L480 464C480 472.8 487.2 480 496 480L528 480zM576 464C576 490.5 554.5 512 528 512L496 512C469.5 512 448 490.5 448 464L448 176C448 149.5 469.5 128 496 128L528 128C554.5 128 576 149.5 576 176L576 464zM304 352L336 352C344.8 352 352 344.8 352 336L352 176C352 167.2 344.8 160 336 160L304 160C295.2 160 288 167.2 288 176L288 336C288 344.8 295.2 352 304 352zM336 384L304 384C277.5 384 256 362.5 256 336L256 176C256 149.5 277.5 128 304 128L336 128C362.5 128 384 149.5 384 176L384 336C384 362.5 362.5 384 336 384zM112 448L144 448C152.8 448 160 440.8 160 432L160 176C160 167.2 152.8 160 144 160L112 160C103.2 160 96 167.2 96 176L96 432C96 440.8 103.2 448 112 448zM144 480L112 480C85.5 480 64 458.5 64 432L64 176C64 149.5 85.5 128 112 128L144 128C170.5 128 192 149.5 192 176L192 432C192 458.5 170.5 480 144 480z"/></svg>