<svg xmlns="http://www.w3.org/2000/svg" viewBox="0 0 640 640"><!--! Font Awesome Pro 7.1.0 by @fontawesome - https://fontawesome.com License - https://fontawesome.com/license (Commercial License) Copyright 2025 Fonticons, Inc. --><path fill="currentColor" d="M93.3 339.9L189.5 508C196.6 520.4 209.9 528.1 224.2 528.1L415.8 528.1C430.1 528.1 443.4 520.4 450.5 508L546.7 339.9C553.7 327.6 553.7 312.5 546.7 300.2L450.5 132.1C443.4 119.7 430.2 112 415.8 112L224.2 112C209.9 112 196.6 119.7 189.5 132.1L93.3 300.2C86.3 312.5 86.3 327.6 93.3 339.9zM65.5 355.8C52.8 333.6 52.8 306.4 65.5 284.3L161.7 116.2C174.5 93.8 198.4 80 224.2 80L415.8 80C441.6 80 465.5 93.8 478.3 116.2L574.5 284.3C587.2 306.5 587.2 333.7 574.5 355.8L478.3 523.9C465.5 546.3 441.6 560.1 415.8 560.1L224.2 560.1C198.4 560.1 174.5 546.3 161.7 523.9L65.5 355.8zM354.8 267.9L378.9 328.2C380.6 328 382.3 328 384 328C414.9 328 440 353.1 440 384C440 414.9 414.9 440 384 440C354.8 440 330.8 417.7 328.2 389.2L273.5 378.3C264.1 396 245.5 408.1 224 408.1C193.1 408.1 168 383 168 352.1C168 321.2 193.1 296.1 224 296.1C230.8 296.1 237.4 297.3 243.4 299.6L275 257.3C268.1 248 264 236.5 264 224C264 193.1 289.1 168 320 168C350.9 168 376 193.1 376 224C376 241.8 367.7 257.6 354.8 267.9zM279.8 346.8L334.5 357.7C338.1 350.8 343.2 344.8 349.2 340L325.1 279.7C323.4 279.9 321.7 279.9 320 279.9C313.2 279.9 306.6 278.7 300.6 276.4L269 318.7C274.9 326.7 278.8 336.4 279.8 346.9zM344 224C344 210.7 333.3 200 320 200C306.7 200 296 210.7 296 224C296 237.3 306.7 248 320 248C333.3 248 344 237.3 344 224zM384 408C397.3 408 408 397.3 408 384C408 370.7 397.3 360 384 360C370.7 360 360 370.7 360 384C360 397.3 370.7 408 384 408zM248 352C248 338.7 237.3 328 224 328C210.7 328 200 338.7 200 352C200 365.3 210.7 376 224 376C237.3 376 248 365.3 248 352z"/></svg>