<svg xmlns="http://www.w3.org/2000/svg" viewBox="0 0 640 640"><!--! Font Awesome Pro 7.1.0 by @fontawesome - https://fontawesome.com License - https://fontawesome.com/license (Commercial License) Copyright 2025 Fonticons, Inc. --><path fill="currentColor" d="M192 128L544 128C561.7 128 576 142.3 576 160L576 448C576 465.7 561.7 480 544 480L322.1 480C326.9 490.1 330.6 500.8 333 512L544 512C579.3 512 608 483.3 608 448L608 160C608 124.7 579.3 96 544 96L192 96C156.7 96 128 124.7 128 160L128 209C133.2 208.3 138.6 208 144 208C149.4 208 154.8 208.3 160 209L160 160C160 142.3 174.3 128 192 128zM400 192C391.2 192 384 199.2 384 208C384 216.8 391.2 224 400 224L457.4 224L352 329.4L315.3 292.7C309.1 286.5 298.9 286.5 292.7 292.7C286.5 298.9 286.5 309.1 292.7 315.3L340.7 363.3C343.7 366.3 347.8 368 352 368C356.2 368 360.3 366.3 363.3 363.3L480 246.6L480 304C480 312.8 487.2 320 496 320C504.8 320 512 312.8 512 304L512 208C512 199.2 504.8 192 496 192L400 192zM144 288C170.5 288 192 309.5 192 336C192 362.5 170.5 384 144 384C117.5 384 96 362.5 96 336C96 309.5 117.5 288 144 288zM144 416C188.2 416 224 380.2 224 336C224 291.8 188.2 256 144 256C99.8 256 64 291.8 64 336C64 380.2 99.8 416 144 416zM0 544L0 560C0 568.8 7.2 576 16 576C24.8 576 32 568.8 32 560L32 544C32 508.7 60.7 480 96 480L192 480C227.3 480 256 508.7 256 544L256 560C256 568.8 263.2 576 272 576C280.8 576 288 568.8 288 560L288 544C288 491 245 448 192 448L96 448C43 448 0 491 0 544z"/></svg>