<svg xmlns="http://www.w3.org/2000/svg" viewBox="0 0 640 640"><!--! Font Awesome Pro 7.1.0 by @fontawesome - https://fontawesome.com License - https://fontawesome.com/license (Commercial License) Copyright 2025 Fonticons, Inc. --><path fill="currentColor" d="M96 112C96 103.2 88.8 96 80 96C71.2 96 64 103.2 64 112L64 464C64 508.2 99.8 544 144 544L560 544C568.8 544 576 536.8 576 528C576 519.2 568.8 512 560 512L144 512C117.5 512 96 490.5 96 464L96 112zM194.9 277.3C197.2 268.9 200.9 258 206.3 247.2C217.5 224.7 233.4 208 256 208C273.7 208 287.6 216.5 300.7 232.2C314.3 248.5 325.5 270.7 337.7 295.1C338.3 296.3 338.9 297.6 339.6 298.9C350.9 321.6 362.4 344.7 378.7 364.2C395.6 384.4 417.7 400 448 400C488.8 400 512.9 368.6 525.7 343.2C532.4 330 536.9 317 539.6 307.4C541.2 301.9 542.7 296.4 543.7 290.8C545.3 282.1 539.5 273.8 530.8 272.2C522.1 270.6 513.8 276.4 512.2 285.1C511.3 289.6 510.1 294.1 508.9 298.5C506.5 306.9 502.7 317.9 497.1 328.7C485.6 351.4 469.7 367.9 447.9 367.9C430.2 367.9 416.3 359.4 403.2 343.7C389 326.6 378.9 306.3 369 286.5C367.9 284.3 366.8 282.1 365.7 279.8L365.7 279.8C354.1 256.5 341.4 231.1 325.2 211.7C308.3 191.5 286.2 175.9 255.9 175.9C214.5 175.9 190.4 207.2 177.6 232.7C171 245.9 166.7 258.9 164 268.6C162.5 274.1 161.1 279.6 160.1 285.2C158.6 293.8 164.6 302.2 173.2 303.7C181.9 305.2 190.2 299.3 191.6 290.6C192.4 286.1 193.5 281.6 194.7 277.2z"/></svg>