<svg xmlns="http://www.w3.org/2000/svg" viewBox="0 0 640 640"><!--! Font Awesome Pro 7.1.0 by @fontawesome - https://fontawesome.com License - https://fontawesome.com/license (Commercial License) Copyright 2025 Fonticons, Inc. --><path fill="currentColor" d="M80 96C88.8 96 96 103.2 96 112L96 464C96 490.5 117.5 512 144 512L560 512C568.8 512 576 519.2 576 528C576 536.8 568.8 544 560 544L144 544C99.8 544 64 508.2 64 464L64 112C64 103.2 71.2 96 80 96zM432 160C423.2 160 416 152.8 416 144C416 135.2 423.2 128 432 128L528 128C536.8 128 544 135.2 544 144L544 240C544 248.8 536.8 256 528 256C519.2 256 512 248.8 512 240L512 182.6L363.3 331.3C357.1 337.5 346.9 337.5 340.7 331.3L272 262.6L187.3 347.3C181.1 353.5 170.9 353.5 164.7 347.3C158.5 341.1 158.5 330.9 164.7 324.7L260.7 228.7C263.7 225.7 267.8 224 272 224C276.2 224 280.3 225.7 283.3 228.7L352 297.4L489.4 160L432 160zM489.4 416L418 344.6L440.6 322L512 393.4L512 336C512 327.2 519.2 320 528 320C536.8 320 544 327.2 544 336L544 432C544 440.8 536.8 448 528 448L432 448C423.2 448 416 440.8 416 432C416 423.2 423.2 416 432 416L489.4 416z"/></svg>