<svg xmlns="http://www.w3.org/2000/svg" viewBox="0 0 640 640"><!--! Font Awesome Pro 7.1.0 by @fontawesome - https://fontawesome.com License - https://fontawesome.com/license (Commercial License) Copyright 2025 Fonticons, Inc. --><path fill="currentColor" d="M448 64C439.2 64 432 71.2 432 80C432 88.8 439.2 96 448 96L520.2 96L367.2 235.1L233.8 131.4C228.2 127 220.3 126.9 214.6 131.1L38.6 259.1C31.5 264.3 29.9 274.3 35.1 281.5C40.3 288.7 50.3 290.2 57.5 285L223.7 164L358.2 268.6C364.3 273.4 373 273 378.8 267.8L544 117.6L544 192C544 200.8 551.2 208 560 208C568.8 208 576 200.8 576 192L576 80C576 71.2 568.8 64 560 64L448 64zM224 288C215.2 288 208 295.2 208 304L208 528C208 536.8 215.2 544 224 544C232.8 544 240 536.8 240 528L240 304C240 295.2 232.8 288 224 288zM96 384C87.2 384 80 391.2 80 400L80 528C80 536.8 87.2 544 96 544C104.8 544 112 536.8 112 528L112 400C112 391.2 104.8 384 96 384zM352 464C352 402.1 402.1 352 464 352C525.9 352 576 402.1 576 464C576 525.9 525.9 576 464 576C402.1 576 352 525.9 352 464zM608 464C608 384.5 543.5 320 464 320C384.5 320 320 384.5 320 464C320 543.5 384.5 608 464 608C543.5 608 608 543.5 608 464zM464 368C455.2 368 448 375.2 448 384L448 392.1C425.7 393.2 408 411.6 408 434.2C408 454.6 422.6 472 442.6 475.7L487.6 483.9C492.4 484.8 495.9 489 495.9 493.9C495.9 499.5 491.3 504.1 485.7 504.1L432 504C423.2 504 416 511.2 416 520C416 528.8 423.2 536 432 536L448 536L448 544C448 552.8 455.2 560 464 560C472.8 560 480 552.8 480 544L480 536L485.8 536C509.1 536 528 517.1 528 493.8C528 473.4 513.4 456 493.4 452.3L448.4 444.1C443.6 443.2 440.1 439 440.1 434.1C440.1 428.5 444.7 423.9 450.3 423.9L496.1 423.9C504.9 423.9 512.1 416.7 512.1 407.9C512.1 399.1 504.9 391.9 496.1 391.9L480.1 391.9L480.1 383.9C480.1 375.1 472.9 367.9 464.1 367.9z"/></svg>