<svg xmlns="http://www.w3.org/2000/svg" viewBox="0 0 640 640"><!--! Font Awesome Pro 7.1.0 by @fontawesome - https://fontawesome.com License - https://fontawesome.com/license (Commercial License) Copyright 2025 Fonticons, Inc. --><path fill="currentColor" d="M320 96C322.9 96 325.6 97.6 327 100.2L411.2 256L228.8 256L313 100.2C314.4 97.6 317.1 96 320 96zM211.5 288L428.4 288L480.2 384L159.6 384L211.4 288zM497.5 416L543 500.2C544.3 502.7 544.3 505.7 542.8 508.1C541.3 510.5 538.7 512 535.9 512L104 512C101.2 512 98.6 510.5 97.1 508.1C95.6 505.7 95.6 502.7 96.9 500.2L142.4 416L497.5 416zM355.2 85C348.2 72.1 334.7 64 320 64C305.3 64 291.8 72.1 284.8 85L68.8 485C62.1 497.4 62.4 512.4 69.6 524.5C76.8 536.6 89.9 544 104 544L536 544C550.1 544 563.1 536.6 570.4 524.5C577.7 512.4 577.9 497.4 571.2 485L355.2 85z"/></svg>