<svg xmlns="http://www.w3.org/2000/svg" viewBox="0 0 640 640"><!--! Font Awesome Pro 7.1.0 by @fontawesome - https://fontawesome.com License - https://fontawesome.com/license (Commercial License) Copyright 2025 Fonticons, Inc. --><path fill="currentColor" d="M448 64C439.2 64 432 71.2 432 80C432 88.8 439.2 96 448 96L520.2 96L367.2 235.1L233.8 131.4C228.2 127 220.3 126.9 214.6 131.1L38.6 259.1C31.5 264.3 29.9 274.3 35.1 281.5C40.3 288.7 50.3 290.2 57.5 285L223.7 164L358.2 268.6C364.3 273.4 373 273 378.8 267.8L544 117.6L544 192C544 200.8 551.2 208 560 208C568.8 208 576 200.8 576 192L576 80C576 71.2 568.8 64 560 64L448 64zM224 288C215.2 288 208 295.2 208 304L208 528C208 536.8 215.2 544 224 544C232.8 544 240 536.8 240 528L240 304C240 295.2 232.8 288 224 288zM96 384C87.2 384 80 391.2 80 400L80 528C80 536.8 87.2 544 96 544C104.8 544 112 536.8 112 528L112 400C112 391.2 104.8 384 96 384zM352 464C352 402.1 402.1 352 464 352C525.9 352 576 402.1 576 464C576 525.9 525.9 576 464 576C402.1 576 352 525.9 352 464zM608 464C608 384.5 543.5 320 464 320C384.5 320 320 384.5 320 464C320 543.5 384.5 608 464 608C543.5 608 608 543.5 608 464zM432 464C432 446.3 446.3 432 464 432C481.7 432 496 446.3 496 464C496 481.7 481.7 496 464 496C446.3 496 432 481.7 432 464zM528 464C528 452.1 524.8 441 519.1 431.5L531.3 419.3C537.5 413.1 537.5 402.9 531.3 396.7C525.1 390.5 514.9 390.5 508.7 396.7L496.5 408.9C487 403.3 475.9 400 464 400C452.1 400 441 403.2 431.5 408.9L419.3 396.7C413.1 390.5 402.9 390.5 396.7 396.7C390.5 402.9 390.5 413.1 396.7 419.3L408.9 431.5C403.3 441 400 452.1 400 464C400 475.9 403.2 487 408.9 496.5L396.7 508.7C390.5 514.9 390.5 525.1 396.7 531.3C402.9 537.5 413.1 537.5 419.3 531.3L431.5 519.1C441 524.7 452.1 528 464 528C475.9 528 487 524.8 496.5 519.1L508.7 531.3C514.9 537.5 525.1 537.5 531.3 531.3C537.5 525.1 537.5 514.9 531.3 508.7L519.1 496.5C524.7 487 528 475.9 528 464z"/></svg>