<svg xmlns="http://www.w3.org/2000/svg" viewBox="0 0 640 640"><!--! Font Awesome Pro 7.1.0 by @fontawesome - https://fontawesome.com License - https://fontawesome.com/license (Commercial License) Copyright 2025 Fonticons, Inc. --><path fill="currentColor" d="M336 96C344.8 96 352 103.2 352 112L352 128L528 128C554.5 128 576 149.5 576 176L576 240C576 266.5 554.5 288 528 288L352 288L352 304C352 312.8 344.8 320 336 320C327.2 320 320 312.8 320 304L320 288L112 288C85.5 288 64 266.5 64 240L64 176C64 149.5 85.5 128 112 128L320 128L320 112C320 103.2 327.2 96 336 96zM224 160L224 256L320 256L320 160L224 160zM352 160L352 256L528 256C536.8 256 544 248.8 544 240L544 176C544 167.2 536.8 160 528 160L352 160zM192 160L112 160C103.2 160 96 167.2 96 176L96 240C96 248.8 103.2 256 112 256L192 256L192 160zM432 320C440.8 320 448 327.2 448 336L448 352L528 352C554.5 352 576 373.5 576 400L576 464C576 490.5 554.5 512 528 512L448 512L448 528C448 536.8 440.8 544 432 544C423.2 544 416 536.8 416 528L416 512L112 512C85.5 512 64 490.5 64 464L64 400C64 373.5 85.5 352 112 352L416 352L416 336C416 327.2 423.2 320 432 320zM288 480L416 480L416 384L288 384L288 480zM448 384L448 480L528 480C536.8 480 544 472.8 544 464L544 400C544 391.2 536.8 384 528 384L448 384zM256 384L112 384C103.2 384 96 391.2 96 400L96 464C96 472.8 103.2 480 112 480L256 480L256 384z"/></svg>