<svg xmlns="http://www.w3.org/2000/svg" viewBox="0 0 640 640"><!--! Font Awesome Pro 7.1.0 by @fontawesome - https://fontawesome.com License - https://fontawesome.com/license (Commercial License) Copyright 2025 Fonticons, Inc. --><path fill="currentColor" d="M224 160C232.8 160 240 167.2 240 176L240 248C240 256.8 232.8 264 224 264L112 264C103.2 264 96 256.8 96 248L96 176C96 167.2 103.2 160 112 160L224 160zM112 128C85.5 128 64 149.5 64 176L64 248C64 274.5 85.5 296 112 296L224 296C250.5 296 272 274.5 272 248L272 176C272 149.5 250.5 128 224 128L112 128zM224 376C232.8 376 240 383.2 240 392L240 464C240 472.8 232.8 480 224 480L112 480C103.2 480 96 472.8 96 464L96 392C96 383.2 103.2 376 112 376L224 376zM112 344C85.5 344 64 365.5 64 392L64 464C64 490.5 85.5 512 112 512L224 512C250.5 512 272 490.5 272 464L272 392C272 365.5 250.5 344 224 344L112 344zM360 160L536 160C540.4 160 544 163.6 544 168L544 184C544 188.4 540.4 192 536 192L360 192C355.6 192 352 188.4 352 184L352 168C352 163.6 355.6 160 360 160zM320 168L320 184C320 206.1 337.9 224 360 224L536 224C558.1 224 576 206.1 576 184L576 168C576 145.9 558.1 128 536 128L360 128C337.9 128 320 145.9 320 168zM536 304C540.4 304 544 307.6 544 312L544 328C544 332.4 540.4 336 536 336L360 336C355.6 336 352 332.4 352 328L352 312C352 307.6 355.6 304 360 304L536 304zM360 272C337.9 272 320 289.9 320 312L320 328C320 350.1 337.9 368 360 368L536 368C558.1 368 576 350.1 576 328L576 312C576 289.9 558.1 272 536 272L360 272zM360 448L536 448C540.4 448 544 451.6 544 456L544 472C544 476.4 540.4 480 536 480L360 480C355.6 480 352 476.4 352 472L352 456C352 451.6 355.6 448 360 448zM320 456L320 472C320 494.1 337.9 512 360 512L536 512C558.1 512 576 494.1 576 472L576 456C576 433.9 558.1 416 536 416L360 416C337.9 416 320 433.9 320 456z"/></svg>