<svg xmlns="http://www.w3.org/2000/svg" viewBox="0 0 640 640"><!--! Font Awesome Pro 7.1.0 by @fontawesome - https://fontawesome.com License - https://fontawesome.com/license (Commercial License) Copyright 2025 Fonticons, Inc. --><path fill="currentColor" d="M96 112C96 103.2 88.8 96 80 96C71.2 96 64 103.2 64 112L64 464C64 508.2 99.8 544 144 544L560 544C568.8 544 576 536.8 576 528C576 519.2 568.8 512 560 512L144 512C117.5 512 96 490.5 96 464L96 112zM208 160L336 160C344.8 160 352 152.8 352 144C352 135.2 344.8 128 336 128L208 128C199.2 128 192 135.2 192 144C192 152.8 199.2 160 208 160zM272 256C263.2 256 256 263.2 256 272C256 280.8 263.2 288 272 288L432 288C440.8 288 448 280.8 448 272C448 263.2 440.8 256 432 256L272 256zM432 384C423.2 384 416 391.2 416 400C416 408.8 423.2 416 432 416L528 416C536.8 416 544 408.8 544 400C544 391.2 536.8 384 528 384L432 384z"/></svg>