<svg xmlns="http://www.w3.org/2000/svg" viewBox="0 0 640 640"><!--! Font Awesome Pro 7.1.0 by @fontawesome - https://fontawesome.com License - https://fontawesome.com/license (Commercial License) Copyright 2025 Fonticons, Inc. --><path fill="currentColor" d="M96 112C96 103.2 88.8 96 80 96C71.2 96 64 103.2 64 112L64 464C64 508.2 99.8 544 144 544L560 544C568.8 544 576 536.8 576 528C576 519.2 568.8 512 560 512L144 512C117.5 512 96 490.5 96 464L96 112zM384 400C384 408.8 391.2 416 400 416L528 416C536.8 416 544 408.8 544 400L544 272C544 263.2 536.8 256 528 256C519.2 256 512 263.2 512 272L512 361.4L395.3 244.7C389.1 238.5 378.9 238.5 372.7 244.7L288 329.4L187.3 228.7C181.1 222.5 170.9 222.5 164.7 228.7C158.5 234.9 158.5 245.1 164.7 251.3L276.7 363.3C282.9 369.5 293.1 369.5 299.3 363.3L384 278.6L489.4 384L400 384C391.2 384 384 391.2 384 400z"/></svg>