<svg xmlns="http://www.w3.org/2000/svg" viewBox="0 0 640 640"><!--! Font Awesome Pro 7.1.0 by @fontawesome - https://fontawesome.com License - https://fontawesome.com/license (Commercial License) Copyright 2025 Fonticons, Inc. --><path fill="currentColor" d="M224 96C241.7 96 256 110.3 256 128C256 145.7 241.7 160 224 160C206.3 160 192 145.7 192 128C192 110.3 206.3 96 224 96zM224 192C228.5 192 232.9 191.5 237.1 190.7L275.2 273.9C248.6 291.1 229.8 319.3 225.1 352L126 352C118.9 324.4 93.8 304 64 304C28.7 304 0 332.7 0 368C0 403.3 28.7 432 64 432C93.8 432 118.9 411.6 126 384L225.2 384C233 438.3 279.6 480 336.1 480C371.1 480 402.4 463.9 422.9 438.8L514.7 493.9C513 499.7 512.1 505.8 512.1 512.1C512.1 547.4 540.8 576.1 576.1 576.1C611.4 576.1 640.1 547.4 640.1 512.1C640.1 476.8 611.4 448.1 576.1 448.1C558.6 448.1 542.7 455.1 531.2 466.5L439.4 411.4C445 398.1 448.1 383.4 448.1 368.1C448.1 349.4 443.5 331.8 435.4 316.3L537.2 243C548 251.2 561.4 256.1 576 256.1C611.3 256.1 640 227.4 640 192.1C640 156.8 611.3 128.1 576 128.1C540.7 128.1 512 156.8 512 192.1C512 201.2 513.9 209.9 517.4 217.8L416.6 290.2C396.2 269.1 367.6 256 336 256C325 256 314.4 257.6 304.3 260.5L265.8 176.4C279.4 164.7 288 147.4 288 128C288 92.7 259.3 64 224 64C188.7 64 160 92.7 160 128C160 163.3 188.7 192 224 192zM576 160C593.7 160 608 174.3 608 192C608 209.7 593.7 224 576 224C558.3 224 544 209.7 544 192C544 174.3 558.3 160 576 160zM544 512C544 494.3 558.3 480 576 480C593.7 480 608 494.3 608 512C608 529.7 593.7 544 576 544C558.3 544 544 529.7 544 512zM64 336C81.7 336 96 350.3 96 368C96 385.7 81.7 400 64 400C46.3 400 32 385.7 32 368C32 350.3 46.3 336 64 336zM336 288C380.2 288 416 323.8 416 368C416 412.2 380.2 448 336 448C291.8 448 256 412.2 256 368C256 323.8 291.8 288 336 288z"/></svg>