<svg xmlns="http://www.w3.org/2000/svg" viewBox="0 0 640 640"><!--! Font Awesome Pro 7.1.0 by @fontawesome - https://fontawesome.com License - https://fontawesome.com/license (Commercial License) Copyright 2025 Fonticons, Inc. --><path fill="currentColor" d="M448 112L448 144C448 152.8 440.8 160 432 160L144 160C135.2 160 128 152.8 128 144L128 112C128 103.2 135.2 96 144 96L432 96C440.8 96 448 103.2 448 112zM432 64L144 64C117.5 64 96 85.5 96 112L96 144C96 170.5 117.5 192 144 192L432 192C458.5 192 480 170.5 480 144L480 112C480 85.5 458.5 64 432 64zM512 336C512 344.8 504.8 352 496 352L144 352C135.2 352 128 344.8 128 336L128 304C128 295.2 135.2 288 144 288L496 288C504.8 288 512 295.2 512 304L512 336zM544 304C544 277.5 522.5 256 496 256L144 256C117.5 256 96 277.5 96 304L96 336C96 362.5 117.5 384 144 384L496 384C522.5 384 544 362.5 544 336L544 304zM320 528C320 536.8 312.8 544 304 544L144 544C135.2 544 128 536.8 128 528L128 496C128 487.2 135.2 480 144 480L304 480C312.8 480 320 487.2 320 496L320 528zM352 496C352 469.5 330.5 448 304 448L144 448C117.5 448 96 469.5 96 496L96 528C96 554.5 117.5 576 144 576L304 576C330.5 576 352 554.5 352 528L352 496z"/></svg>