<svg xmlns="http://www.w3.org/2000/svg" viewBox="0 0 640 640"><!--! Font Awesome Pro 7.1.0 by @fontawesome - https://fontawesome.com License - https://fontawesome.com/license (Commercial License) Copyright 2025 Fonticons, Inc. --><path fill="currentColor" d="M336 98.4L336 272L468 272C438 276.3 410.2 287.6 386.2 304L336 304C318.3 304 304 289.7 304 272L304 96C304 78.3 318.4 63.8 335.9 66.1C442.9 80.3 527.7 165.1 541.9 272.1C542.1 273.3 542.1 274.4 542.1 275.5C531.5 272.9 520.5 271.2 509.3 270.4C495 181.9 424.7 112.1 336 98.4zM272 352L337.6 352C330.5 362 324.3 372.7 319.2 384L272 384C245.5 384 224 362.5 224 336L224 133.6C132.3 155.3 64 237.7 64 336C64 450.9 157.1 544 272 544C287.5 544 302.6 542.3 317.1 539.1C321.4 549.3 326.5 559.1 332.4 568.3C313.1 573.3 292.9 576 272 576C139.5 576 32 468.5 32 336C32 221.9 111.6 126.4 218.3 102C238.7 97.3 256 113.6 256 132.7L256 336C256 344.8 263.2 352 272 352zM496 576C557.9 576 608 525.9 608 464C608 402.1 557.9 352 496 352C434.1 352 384 402.1 384 464C384 525.9 434.1 576 496 576zM496 320C575.5 320 640 384.5 640 464C640 543.5 575.5 608 496 608C416.5 608 352 543.5 352 464C352 384.5 416.5 320 496 320zM480 384C480 375.2 487.2 368 496 368C504.8 368 512 375.2 512 384L512 392L528 392C536.8 392 544 399.2 544 408C544 416.8 536.8 424 528 424L482.2 424C476.6 424 472 428.6 472 434.2C472 439.1 475.5 443.3 480.3 444.2L525.3 452.4C545.3 456 559.9 473.5 559.9 493.9C559.9 517.2 541 536.1 517.7 536.1L511.9 536.1L511.9 544.1C511.9 552.9 504.7 560.1 495.9 560.1C487.1 560.1 479.9 552.9 479.9 544.1L479.9 536.1L463.9 536.1C455.1 536.1 447.9 528.9 447.9 520.1C447.9 511.3 455.1 504.1 463.9 504.1L517.7 504.1C523.3 504.1 527.9 499.5 527.9 493.9C527.9 489 524.4 484.8 519.6 483.9L474.6 475.7C454.6 472.1 440 454.6 440 434.2C440 411.6 457.7 393.2 480 392.1L480 384z"/></svg>