<svg xmlns="http://www.w3.org/2000/svg" viewBox="0 0 640 640"><!--! Font Awesome Pro 7.1.0 by @fontawesome - https://fontawesome.com License - https://fontawesome.com/license (Commercial License) Copyright 2025 Fonticons, Inc. --><path fill="currentColor" d="M160 128C142.3 128 128 142.3 128 160C128 177.7 142.3 192 160 192L480 192C497.7 192 512 177.7 512 160C512 142.3 497.7 128 480 128L160 128zM96 160C96 124.7 124.7 96 160 96L480 96C515.3 96 544 124.7 544 160C544 195.3 515.3 224 480 224L336 224L336 248L342.6 254.6L385.3 297.3L391.9 303.9L447.9 303.9C492.1 303.9 527.9 339.7 527.9 383.9L527.9 415.9L543.9 415.9C561.6 415.9 575.9 430.2 575.9 447.9L575.9 511.9C575.9 529.6 561.6 543.9 543.9 543.9L479.9 543.9C462.2 543.9 447.9 529.6 447.9 511.9L447.9 447.9C447.9 430.2 462.2 415.9 479.9 415.9L495.9 415.9L495.9 383.9C495.9 357.4 474.4 335.9 447.9 335.9L391.9 335.9L335.9 391.9L335.9 415.9L351.9 415.9C369.6 415.9 383.9 430.2 383.9 447.9L383.9 511.9C383.9 529.6 369.6 543.9 351.9 543.9L287.9 543.9C270.2 543.9 255.9 529.6 255.9 511.9L255.9 447.9C255.9 430.2 270.2 415.9 287.9 415.9L303.9 415.9L303.9 391.9L297.3 385.3L254.6 342.6L248 336L192 336C165.5 336 144 357.5 144 384L144 416L160 416C177.7 416 192 430.3 192 448L192 512C192 529.7 177.7 544 160 544L96 544C78.3 544 64 529.7 64 512L64 448C64 430.3 78.3 416 96 416L112 416L112 384C112 339.8 147.8 304 192 304L248 304L254.6 297.4L297.3 254.7L303.9 248.1L303.9 224.1L159.9 224.1C124.6 224.1 95.9 195.4 95.9 160.1zM112 448L96 448L96 512L160 512L160 448L112 448zM304 448L288 448L288 512L352 512L352 448L304 448zM496 448L480 448L480 512L544 512L544 448L496 448zM277.3 320L320 362.7L362.7 320L320 277.3L277.3 320z"/></svg>