<svg xmlns="http://www.w3.org/2000/svg" viewBox="0 0 640 640"><!--! Font Awesome Pro 7.1.0 by @fontawesome - https://fontawesome.com License - https://fontawesome.com/license (Commercial License) Copyright 2025 Fonticons, Inc. --><path fill="currentColor" d="M336 128C344.8 128 352 135.2 352 144L352 496C352 504.8 344.8 512 336 512L304 512C295.2 512 288 504.8 288 496L288 144C288 135.2 295.2 128 304 128L336 128zM304 96C277.5 96 256 117.5 256 144L256 496C256 522.5 277.5 544 304 544L336 544C362.5 544 384 522.5 384 496L384 144C384 117.5 362.5 96 336 96L304 96zM144 320C152.8 320 160 327.2 160 336L160 496C160 504.8 152.8 512 144 512L112 512C103.2 512 96 504.8 96 496L96 336C96 327.2 103.2 320 112 320L144 320zM112 288C85.5 288 64 309.5 64 336L64 496C64 522.5 85.5 544 112 544L144 544C170.5 544 192 522.5 192 496L192 336C192 309.5 170.5 288 144 288L112 288zM496 192L528 192C536.8 192 544 199.2 544 208L544 496C544 504.8 536.8 512 528 512L496 512C487.2 512 480 504.8 480 496L480 208C480 199.2 487.2 192 496 192zM448 208L448 496C448 522.5 469.5 544 496 544L528 544C554.5 544 576 522.5 576 496L576 208C576 181.5 554.5 160 528 160L496 160C469.5 160 448 181.5 448 208z"/></svg>