<svg xmlns="http://www.w3.org/2000/svg" viewBox="0 0 640 640"><!--! Font Awesome Pro 7.1.0 by @fontawesome - https://fontawesome.com License - https://fontawesome.com/license (Commercial License) Copyright 2025 Fonticons, Inc. --><path fill="currentColor" d="M96 112C96 103.2 88.8 96 80 96C71.2 96 64 103.2 64 112L64 464C64 508.2 99.8 544 144 544L560 544C568.8 544 576 536.8 576 528C576 519.2 568.8 512 560 512L144 512C117.5 512 96 490.5 96 464L96 112zM416 144C416 135.2 408.8 128 400 128C391.2 128 384 135.2 384 144L384 240C384 248.8 391.2 256 400 256C408.8 256 416 248.8 416 240L416 144zM512 144C512 135.2 504.8 128 496 128C487.2 128 480 135.2 480 144L480 400C480 408.8 487.2 416 496 416C504.8 416 512 408.8 512 400L512 144zM320 208C320 199.2 312.8 192 304 192C295.2 192 288 199.2 288 208L288 304C288 312.8 295.2 320 304 320C312.8 320 320 312.8 320 304L320 208zM224 304C224 295.2 216.8 288 208 288C199.2 288 192 295.2 192 304L192 400C192 408.8 199.2 416 208 416C216.8 416 224 408.8 224 400L224 304z"/></svg>