<svg xmlns="http://www.w3.org/2000/svg" viewBox="0 0 640 640"><!--! Font Awesome Pro 7.1.0 by @fontawesome - https://fontawesome.com License - https://fontawesome.com/license (Commercial License) Copyright 2025 Fonticons, Inc. --><path fill="currentColor" d="M372.9 113.4C378.1 106.3 376.5 96.3 369.4 91C362.3 85.7 352.3 87.4 347 94.5L218 271.4L163.2 216.6C157 210.4 146.8 210.4 140.6 216.6C134.4 222.8 134.4 233 140.6 239.2L208.6 307.2C211.9 310.5 216.5 312.2 221.2 311.8C225.9 311.4 230.1 309.1 232.9 305.3L372.9 113.3zM504.9 245.4C510.1 238.3 508.5 228.3 501.4 223C494.3 217.7 484.3 219.4 479 226.5L280 499.4L191.2 410.6C185 404.4 174.8 404.4 168.6 410.6C162.4 416.8 162.4 427 168.6 433.2L270.6 535.2C273.9 538.5 278.5 540.2 283.2 539.8C287.9 539.4 292.1 537.1 294.9 533.3L504.9 245.3z"/></svg>