<svg xmlns="http://www.w3.org/2000/svg" viewBox="0 0 640 640"><!--! Font Awesome Pro 7.1.0 by @fontawesome - https://fontawesome.com License - https://fontawesome.com/license (Commercial License) Copyright 2025 Fonticons, Inc. --><path fill="currentColor" d="M544 308L544 320L96 320C96 310.7 100.6 302 108.4 296.9L359.7 129.3C361 128.5 362.5 128 364 128C463.4 128 544 208.6 544 308zM96 352L544 352L544 480C544 497.7 529.7 512 512 512L128 512C110.3 512 96 497.7 96 480L96 352zM576 320L576 308C576 190.9 481.1 96 364 96C356.2 96 348.5 98.3 342 102.7L90.6 270.2C74 281.3 64 300 64 320L64 480C64 515.3 92.7 544 128 544L512 544C547.3 544 576 515.3 576 480L576 320z"/></svg>