<svg xmlns="http://www.w3.org/2000/svg" viewBox="0 0 640 640"><!--! Font Awesome Pro 7.1.0 by @fontawesome - https://fontawesome.com License - https://fontawesome.com/license (Commercial License) Copyright 2025 Fonticons, Inc. --><path fill="currentColor" d="M176 512C149.5 512 128 490.5 128 464L316.6 464L268.6 432L128 432C110.3 432 96 446.3 96 464C96 508.2 131.8 544 176 544L464 544C508.2 544 544 508.2 544 464C544 446.3 529.7 432 512 432L499.4 432L451.4 464L512 464C512 490.5 490.5 512 464 512L176 512zM96 272C96 289.7 110.3 304 128 304L512 304C529.7 304 544 289.7 544 272L544 266C544 248.8 541.4 231.6 533.2 216.5C511 175.7 450.9 96 320 96C189.1 96 129 175.6 106.8 216.5C98.6 231.6 96 248.8 96 266L96 272zM512 272L128 272L128 266C128 251.6 130.2 240.4 134.9 231.8C154 196.7 205.2 128 320 128C434.8 128 486 196.7 505.1 231.8C509.8 240.4 512 251.7 512 266L512 272zM320 196C331 196 340 187 340 176C340 165 331 156 320 156C309 156 300 165 300 176C300 187 309 196 320 196zM244 208C244 197 235 188 224 188C213 188 204 197 204 208C204 219 213 228 224 228C235 228 244 219 244 208zM416 228C427 228 436 219 436 208C436 197 427 188 416 188C405 188 396 197 396 208C396 219 405 228 416 228zM96 352C87.2 352 80 359.2 80 368C80 376.8 87.2 384 96 384L283.2 384L375.2 445.3C380.6 448.9 387.6 448.9 393 445.3L485 384L544.2 384C553 384 560.2 376.8 560.2 368C560.2 359.2 553 352 544.2 352L480.2 352C477 352 474 352.9 471.3 354.7L384.2 412.8L297.1 354.7C294.5 352.9 291.4 352 288.2 352L96 352z"/></svg>