<svg xmlns="http://www.w3.org/2000/svg" viewBox="0 0 640 640"><!--! Font Awesome Pro 7.1.0 by @fontawesome - https://fontawesome.com License - https://fontawesome.com/license (Commercial License) Copyright 2025 Fonticons, Inc. --><path fill="currentColor" d="M333.6 55.6C331.9 52.9 329.4 50.6 326.3 49.3C318.2 45.8 308.8 49.6 305.3 57.7L210.8 278.1C192.2 264.2 169 256 144 256C82.1 256 32 306.1 32 368C32 465.2 118 544 224 544C330 544 416 465.2 416 368C416 306.1 365.9 256 304 256C284 256 265.2 261.3 248.9 270.5L322.7 98.3L432.3 272.4C439.3 281.7 445.2 291.8 450 302.5C463 293.3 478.9 288 496 288C540.2 288 576 323.8 576 368C576 445 507 512 416 512C413.4 512 410.7 511.9 408.1 511.8C398.7 522.2 388.4 531.8 377.2 540.4C389.7 542.8 402.7 544 416 544C522 544 608 465.2 608 368C608 306.1 557.9 256 496 256C484.5 256 473.4 257.7 462.9 261L333.6 55.6zM224 321.6C232.6 321.6 240.8 318.1 246.9 312C261.5 297.1 281.7 288 304 288C348.2 288 384 323.8 384 368C384 445 315 512 224 512C133 512 64 445 64 368C64 323.8 99.8 288 144 288C166.4 288 186.6 297.2 201.1 312C207.1 318.1 215.4 321.6 224 321.6z"/></svg>