<svg xmlns="http://www.w3.org/2000/svg" viewBox="0 0 640 640"><!--! Font Awesome Pro 7.1.0 by @fontawesome - https://fontawesome.com License - https://fontawesome.com/license (Commercial License) Copyright 2025 Fonticons, Inc. --><path fill="currentColor" d="M424.7 227.3C393 195.6 357 166.2 320 136.8C283 166.2 247 195.6 215.3 227.3C168.8 273.8 128 334 128 416L512 416C512 334 471.2 273.8 424.7 227.3zM133.5 448C146.7 485.3 182.2 512 224 512L416 512C457.8 512 493.4 485.3 506.5 448L133.5 448zM447.3 204.7C496.8 254.2 544 322 544 416C544 486.7 486.7 544 416 544L224 544C153.3 544 96 486.7 96 416C96 322 143.2 254.2 192.7 204.7C225.9 171.5 263.1 141.2 300.2 111.7C311.8 102.5 328.3 102.5 339.9 111.7C376.9 141.1 414.2 171.5 447.4 204.7z"/></svg>