<svg xmlns="http://www.w3.org/2000/svg" viewBox="0 0 640 640"><!--! Font Awesome Pro 7.1.0 by @fontawesome - https://fontawesome.com License - https://fontawesome.com/license (Commercial License) Copyright 2025 Fonticons, Inc. --><path fill="currentColor" d="M320 96C373 96 416 139 416 192C416 216.6 406.6 239 391.4 256L392 256C400.8 256 408 263.2 408 272C408 280.8 400.8 288 392 288L386.7 288L400 448L456.2 518.3C461.2 524.6 464 532.4 464 540.5C464 560.1 448.1 576 428.5 576L211.5 576C191.9 576 176 560.1 176 540.5C176 532.4 178.7 524.6 183.8 518.3L240 448L253.3 288L248 288C239.2 288 232 280.8 232 272C232 263.2 239.2 256 248 256L248.6 256C233.4 239 224 216.6 224 192C224 139 267 96 320 96zM255.4 480L208.8 538.3L208.8 538.3C208.3 538.9 208 539.7 208 540.5C208 542.5 209.6 544 211.5 544L428.4 544C429.9 544 431.1 543.1 431.7 541.8L432 540.4C432 539.6 431.7 538.8 431.2 538.2L431.2 538.2L384.6 479.9L255.4 479.9zM272.1 448L367.9 448L354.6 288L285.5 288L272.2 448zM320 128C284.7 128 256 156.7 256 192C256 227.3 284.7 256 320 256C355.3 256 384 227.3 384 192C384 156.7 355.3 128 320 128z"/></svg>