<svg xmlns="http://www.w3.org/2000/svg" viewBox="0 0 640 640"><!--! Font Awesome Pro 7.1.0 by @fontawesome - https://fontawesome.com License - https://fontawesome.com/license (Commercial License) Copyright 2025 Fonticons, Inc. --><path fill="currentColor" d="M240 80C248.8 80 256 87.2 256 96C256 104.8 248.8 112 240 112L192 112L192 160L544 160L550.5 160.3C582.8 163.6 608 190.9 608 224L608 448L607.7 454.5C604.6 484.6 580.7 508.6 550.6 511.6L544.1 511.9L96.1 511.9L89.6 511.6C59.5 508.5 35.5 484.6 32.5 454.5L32 448L32 224C32 190.9 57.2 163.6 89.5 160.3L96 160L160 160L160 112L112 112C103.2 112 96 104.8 96 96C96 87.2 103.2 80 112 80L240 80zM96 192C78.3 192 64 206.3 64 224L64 448C64 465.7 78.3 480 96 480L544 480C561.7 480 576 465.7 576 448L576 224C576 206.3 561.7 192 544 192L96 192zM275.9 403.9C238.4 441.4 177.6 441.4 140.1 403.9C102.6 366.4 102.6 305.6 140.1 268.1C177.6 230.6 238.4 230.6 275.9 268.1C313.4 305.6 313.4 366.4 275.9 403.9zM432 432C379 432 336 389 336 336C336 283 379 240 432 240C485 240 528 283 528 336C528 389 485 432 432 432zM224 336C224 344.8 216.8 352 208 352C199.2 352 192 344.8 192 336L192 274.1C181.3 276.9 171.1 282.4 162.8 290.8C137.8 315.8 137.8 356.3 162.8 381.3C187.8 406.3 228.3 406.3 253.3 381.3C278.3 356.3 278.3 315.8 253.3 290.8C244.9 282.4 234.8 276.9 224.1 274.1L224.1 336zM432 272C396.7 272 368 300.7 368 336C368 371.3 396.7 400 432 400C467.3 400 496 371.3 496 336C496 324.1 492.7 313.1 487.1 303.5L443.3 347.3C437.1 353.5 426.9 353.5 420.7 347.3C414.5 341.1 414.5 330.9 420.7 324.7L464.5 280.9C455 275.3 443.9 272 432.1 272zM512 96C520.8 96 528 103.2 528 112C528 120.8 520.8 128 512 128L384 128C375.2 128 368 120.8 368 112C368 103.2 375.2 96 384 96L512 96z"/></svg>