<svg xmlns="http://www.w3.org/2000/svg" viewBox="0 0 640 640"><!--! Font Awesome Pro 7.1.0 by @fontawesome - https://fontawesome.com License - https://fontawesome.com/license (Commercial License) Copyright 2025 Fonticons, Inc. --><path fill="currentColor" d="M320 32C328.8 32 336 39.2 336 48L336 96L400 96C408.8 96 416 103.2 416 112C416 120.8 408.8 128 400 128L336 128L336 224L518.1 224C532.4 224 544 235.6 544 249.9C544 253.9 543 257.9 541.2 261.5L448 448L504.2 518.3C509.2 524.6 512 532.4 512 540.5C512 560.1 496.1 576 476.5 576L163.6 576C144 576 128.1 560.1 128.1 540.5C128.1 532.4 130.8 524.6 135.9 518.3L192 448L98.7 261.5C96.9 257.9 96 253.9 96 249.9C96 235.6 107.6 224 121.9 224L304 224L304 128L240 128C231.2 128 224 120.8 224 112C224 103.2 231.2 96 240 96L304 96L304 48C304 39.2 311.2 32 320 32zM220.2 464L217 468L160.8 538.3C160.3 538.9 160 539.7 160 540.5C160 542.5 161.6 544 163.5 544L476.4 544C477.9 544 479.1 543.1 479.7 541.8L480 540.4C480 539.7 479.7 538.9 479.2 538.2L479.2 538.2L423 467.9L419.8 463.9L220.2 463.9zM219.8 432L420.2 432L508.2 256L131.8 256L219.8 432z"/></svg>