<svg xmlns="http://www.w3.org/2000/svg" viewBox="0 0 640 640"><!--! Font Awesome Pro 7.1.0 by @fontawesome - https://fontawesome.com License - https://fontawesome.com/license (Commercial License) Copyright 2025 Fonticons, Inc. --><path fill="currentColor" d="M368 64C376.8 64 384 71.2 384 80C384 88.8 376.8 96 368 96L346.7 96L440 208C465.8 239 480 278.1 480 318.4C480 360.6 464.5 401.4 436.4 433L425.1 445.7L473.8 518.7C477.8 524.8 480 531.9 480 539.1C480 559.4 463.5 575.9 443.2 575.9L196.8 576C176.5 576 160 559.5 160 539.2C160 531.9 162.2 524.8 166.2 518.8L214.9 445.8L203.6 433.1C175.5 401.4 160 360.7 160 318.4C160 278.1 174.1 239 200 208L293.3 96L272 96C263.2 96 256 88.8 256 80C256 71.2 263.2 64 272 64L368 64zM192.8 536.5C192.3 537.3 192 538.2 192 539.2C192 541.9 194.2 544 196.8 544L443.1 544C445.1 544 446.8 542.8 447.6 541L448 539.1C448 538.6 447.9 538.1 447.8 537.7L447.2 536.4L398.9 463.9L241.1 463.9L192.8 536.4zM317.9 116.5L224.5 228.5C203.5 253.7 191.9 285.5 191.9 318.4C191.9 352.8 204.5 386 227.4 411.7C235.7 421 241.7 427.8 245.4 431.9L394.4 431.9C398.2 427.7 404.2 420.9 412.5 411.6C433.9 387.5 446.3 356.8 447.8 324.8L448 318.4C448 290 439.3 262.5 423.4 239.2L363.3 299.3C357.1 305.5 346.9 305.5 340.7 299.3C334.5 293.1 334.5 282.9 340.7 276.7L403.4 214L322.1 116.5L320 114L317.9 116.5z"/></svg>