<svg xmlns="http://www.w3.org/2000/svg" viewBox="0 0 640 640"><!--! Font Awesome Pro 7.1.0 by @fontawesome - https://fontawesome.com License - https://fontawesome.com/license (Commercial License) Copyright 2025 Fonticons, Inc. --><path fill="currentColor" d="M480 96C515.3 96 544 124.7 544 160L544 480C544 515.3 515.3 544 480 544L160 544C124.7 544 96 515.3 96 480L96 160C96 124.7 124.7 96 160 96L480 96zM128 457.2L128 480C128 497.7 142.3 512 160 512L182.8 512L182.8 457.2L128 457.2zM210.3 457.2L210.3 512L265.1 512L265.1 457.2L210.3 457.2zM292.6 457.2L292.6 512L347.5 512L347.5 457.2L292.6 457.2zM374.9 457.2L374.9 512L429.7 512L429.7 457.2L374.9 457.2zM457.2 457.2L457.2 512L480 512C497.7 512 512 497.7 512 480L512 457.2L457.2 457.2zM128 429.7L182.8 429.7L182.8 374.9L128 374.9L128 429.7zM210.3 429.7L265.1 429.7L265.1 374.9L210.3 374.9L210.3 429.7zM292.6 429.7L347.5 429.7L347.5 374.9L292.6 374.9L292.6 429.7zM374.9 429.7L429.7 429.7L429.7 374.9L374.9 374.9L374.9 429.7zM457.2 429.7L512 429.7L512 374.9L457.2 374.9L457.2 429.7zM128 347.4L182.8 347.4L182.8 292.5L128 292.5L128 347.4zM210.3 347.4L265.1 347.4L265.1 292.5L210.3 292.5L210.3 347.4zM292.6 347.4L347.5 347.4L347.5 292.5L292.6 292.5L292.6 347.4zM374.9 347.4L429.7 347.4L429.7 292.5L374.9 292.5L374.9 347.4zM457.2 347.4L512 347.4L512 292.5L457.2 292.5L457.2 347.4zM128 265.1L182.8 265.1L182.8 210.3L128 210.3L128 265.1zM210.3 265.1L265.1 265.1L265.1 210.3L210.3 210.3L210.3 265.1zM292.6 265.1L347.5 265.1L347.5 210.3L292.6 210.3L292.6 265.1zM374.9 265.1L429.7 265.1L429.7 210.3L374.9 210.3L374.9 265.1zM457.2 265.1L512 265.1L512 210.3L457.2 210.3L457.2 265.1zM160 128C142.3 128 128 142.3 128 160L128 182.8L182.8 182.8L182.8 128L160 128zM210.3 182.8L265.1 182.8L265.1 128L210.3 128L210.3 182.8zM292.6 182.8L347.5 182.8L347.5 128L292.6 128L292.6 182.8zM374.9 182.8L429.7 182.8L429.7 128L374.9 128L374.9 182.8zM457.2 182.8L512 182.8L512 160C512 142.3 497.7 128 480 128L457.2 128L457.2 182.8z"/></svg>