<svg xmlns="http://www.w3.org/2000/svg" viewBox="0 0 640 640"><!--! Font Awesome Pro 7.1.0 by @fontawesome - https://fontawesome.com License - https://fontawesome.com/license (Commercial License) Copyright 2025 Fonticons, Inc. --><path fill="currentColor" d="M320 64C417.2 64 496 142.8 496 240L496 362.9C496 380.2 490.1 397 479.3 410.5L432.6 468.8L472.2 518.3C477.2 524.6 480 532.4 480 540.5L479.8 544.1C478 562 462.9 576 444.5 576L195.6 576L192 575.8C175.3 574.1 162 560.8 160.3 544.1L160.1 540.5C160.1 533.4 162.2 526.6 166.1 520.7L167.9 518.3L208.5 467.5L200.9 437C194.4 411 202 383.5 221 364.6L281.6 304L245.6 304L242 306.7C223.6 320.3 200 324.4 178.4 317.8L174.1 316.3C146.4 306 128 279.4 128 249.8L128 247.1C128 228.2 135.1 210.1 147.9 196.2L224 113.8L224 80L224.3 76.8C225.8 69.5 232.3 64 240 64L320 64zM192.8 538.2C192.3 538.8 192 539.6 192 540.4C192 542.3 193.6 543.9 195.5 543.9L444.4 543.9C446.3 543.9 447.9 542.3 447.9 540.4C447.9 540 447.8 539.6 447.7 539.2L447.1 538.2L400.5 480L239.3 480L192.7 538.2zM256 120C256 124 254.5 127.9 251.8 130.8L171.5 217.8C164.2 225.8 160.1 236.2 160.1 247L160.1 249.7C160.1 266 170.2 280.6 185.5 286.3L190.2 287.7C201.4 290.3 213.3 287.9 222.6 280.9L230.5 275L232.7 273.6C235 272.4 237.5 271.8 240.1 271.8L320.1 271.8C326.6 271.8 332.4 275.7 334.9 281.7C337.4 287.7 336 294.6 331.4 299.1L243.5 387C232.5 398 228.1 414 231.8 429L236.5 447.8L408.3 447.8L454.3 390.3C460.6 382.5 464 372.7 464 362.7L464 240C464 160.5 399.5 96 320 96L256 96L256 120zM280 208C266.7 208 256 197.3 256 184C256 170.7 266.7 160 280 160C293.3 160 304 170.7 304 184C304 197.3 293.3 208 280 208z"/></svg>