<svg xmlns="http://www.w3.org/2000/svg" viewBox="0 0 640 640"><!--! Font Awesome Pro 7.1.0 by @fontawesome - https://fontawesome.com License - https://fontawesome.com/license (Commercial License) Copyright 2025 Fonticons, Inc. --><path fill="currentColor" d="M368 96C368 87.2 375.2 80 384 80L512 80C520.8 80 528 87.2 528 96C528 104.8 520.8 112 512 112L464 112L464 160L544 160L550.5 160.3C582.8 163.6 608 190.9 608 224L608 448L607.7 454.5C604.6 484.6 580.7 508.6 550.6 511.6L544.1 511.9L96.1 511.9L89.6 511.6C59.5 508.5 35.5 484.6 32.5 454.5L32 448L32 224C32 190.9 57.2 163.6 89.5 160.3L96 160L432 160L432 112L384 112C375.2 112 368 104.8 368 96zM432 192L96 192C78.3 192 64 206.3 64 224L64 448C64 465.7 78.3 480 96 480L544 480C561.7 480 576 465.7 576 448L576 224C576 206.3 561.7 192 544 192L432 192zM112 96L240 96C248.8 96 256 103.2 256 112C256 120.8 248.8 128 240 128L112 128C103.2 128 96 120.8 96 112C96 103.2 103.2 96 112 96zM496 336C496 306.2 475.6 281.1 448 274L448 336C448 344.8 440.8 352 432 352C423.2 352 416 344.8 416 336L416 274C388.4 281.1 368 306.2 368 336C368 371.3 396.7 400 432 400C467.3 400 496 371.3 496 336zM432 240C485 240 528 283 528 336C528 389 485 432 432 432C379 432 336 389 336 336C336 283 379 240 432 240zM263.1 303.5L219.3 347.3C213.1 353.5 202.9 353.5 196.7 347.3C190.5 341.1 190.5 330.9 196.7 324.7L240.5 280.9C216 266.4 183.8 269.7 162.7 290.8C137.7 315.8 137.7 356.3 162.7 381.3C187.7 406.3 228.2 406.3 253.2 381.3C274.3 360.2 277.6 328.1 263.1 303.5zM275.8 403.9C251.7 428.7 216 438.6 182.5 429.8C149 421 122.9 394.9 114.1 361.4C105.3 327.9 115.2 292.2 140.1 268.1C177.6 230.6 238.4 230.6 275.9 268.1C313.4 305.6 313.4 366.4 275.9 403.9z"/></svg>