<svg xmlns="http://www.w3.org/2000/svg" viewBox="0 0 640 640"><!--! Font Awesome Pro 7.1.0 by @fontawesome - https://fontawesome.com License - https://fontawesome.com/license (Commercial License) Copyright 2025 Fonticons, Inc. --><path fill="currentColor" d="M256 32C264.8 32 272 39.2 272 48L272 80L304 80C312.8 80 320 87.2 320 96C320 104.8 312.8 112 304 112L272 112L272 160L358.1 160C372.4 160 384 171.6 384 185.9C384 189.9 383.1 193.9 381.3 197.5L344 272C352.8 272 360 279.2 360 288C360 296.8 352.8 304 344 304L337.6 304L352 448L402.7 498.7C411.2 507.2 416 518.7 416 530.7C416 555.7 395.7 575.9 370.7 576L141.2 576C116.2 576 96 555.7 96 530.7C96 518.7 100.8 507.2 109.2 498.7L160 448L174.4 304L168 304C159.2 304 152 296.8 152 288C152 279.2 159.2 272 168 272L130.7 197.5C128.9 193.9 128 189.9 128 185.9C128 171.6 139.6 160 153.9 160L240 160L240 112L208 112C199.2 112 192 104.8 192 96C192 87.2 199.2 80 208 80L240 80L240 48C240 39.2 247.2 32 256 32zM536 224C558.1 224 576 241.9 576 264L576 328C576 335.6 573.9 343 569.8 349.3L568 352L528 405.3L528 450.6L566.8 502.4L568.9 505.5C573.5 512.8 576 521.3 576 530C576 555.4 555.4 576 530 576L452.2 576C457.6 566.3 461.3 555.5 463 544L530 544C537.7 544 544 537.7 544 530C544 527.7 543.5 525.5 542.4 523.5L541.2 521.6L499.2 465.6C498.8 465.1 498.5 464.5 498.2 464L435.9 464L403.9 432L496 432L496 400C496 396.5 497.1 393.2 499.2 390.4L542.4 332.8L543.6 330.5C543.9 329.7 544 328.8 544 328L544 264C544 259.6 540.4 256 536 256L500 256L500 288C500 299 491 308 480 308C469 308 460 299 460 288L460 256L405.7 256L421.7 224L536 224zM182.6 470.6L131.9 521.4C129.4 523.9 128 527.3 128 530.8C128 538.1 133.9 544 141.2 544.1L370.7 544.1C377.1 544.1 382.4 539.5 383.7 533.5L384 530.8C384 528.2 383.2 525.6 381.8 523.5L380.1 521.5L329.4 470.7L322.7 464.1L189.3 464.1L182.6 470.7zM193.8 432L318.3 432L305.5 304L206.6 304L193.8 432zM203.8 272L308.2 272L348.2 192L163.8 192L203.8 272z"/></svg>