<svg xmlns="http://www.w3.org/2000/svg" viewBox="0 0 640 640"><!--! Font Awesome Pro 7.1.0 by @fontawesome - https://fontawesome.com License - https://fontawesome.com/license (Commercial License) Copyright 2025 Fonticons, Inc. --><path fill="currentColor" d="M368 64C376.8 64 384 71.2 384 80C384 88.8 376.8 96 368 96L346.7 96L409.3 171.1C429.2 194.9 440 225 440 256C440 285.2 430.3 313.6 412.6 336.7C419.2 338.7 424 344.7 424 352C424 360.8 416.8 368 408 368L400 368L400 432L457.8 518.7C461.8 524.8 464 531.9 464 539.1C464 559.4 447.5 575.9 427.2 575.9L212.8 576C192.5 576 176 559.5 176 539.2C176 531.9 178.2 524.8 182.2 518.8L240 432.1L240 368.1L232 368.1C223.2 368.1 216 360.9 216 352.1C216 344.9 220.8 338.8 227.4 336.8C209.7 313.7 200 285.3 200 256.1C200 225.1 210.9 195.1 230.7 171.2L293.3 96L272 96C263.2 96 256 88.8 256 80C256 71.2 263.2 64 272 64L368 64zM208.8 536.5C208.3 537.3 208 538.2 208 539.2C208 541.9 210.2 544 212.8 544L427.1 544C429.1 544 430.8 542.8 431.6 541L432 539.1C432 538.6 431.9 538.1 431.8 537.7L431.2 536.4L382.9 463.9L257.2 463.9L208.9 536.4zM272 368L272 432L368 432L368 368L272 368zM255.3 191.6C240.3 209.7 232 232.5 232 256C232 279.5 240.3 302.3 255.3 320.4L255.3 320.4C262.4 328.9 266.8 334.1 268.3 336L371.7 336L375.5 331.5L384.8 320.4L390.1 313.4C401.8 296.6 408.1 276.6 408.1 256C408.1 237.8 403.2 220.1 394 204.7L355.4 243.3C349.2 249.5 339 249.5 332.8 243.3C326.6 237.1 326.6 226.9 332.8 220.7L374.2 179.1L320 114L255.3 191.6z"/></svg>