<svg xmlns="http://www.w3.org/2000/svg" viewBox="0 0 640 640"><!--! Font Awesome Pro 7.1.0 by @fontawesome - https://fontawesome.com License - https://fontawesome.com/license (Commercial License) Copyright 2025 Fonticons, Inc. --><path fill="currentColor" d="M369.6 96.1C374.4 96.6 378.7 99.2 381.4 103.2L394.6 123L397.7 126.9C405.5 135.4 417.5 139.1 429 136.3L460.2 128.5L462.5 128.1C467.9 127.6 473.4 129.9 476.7 134.3C480.6 139.4 481.1 146.3 478 151.8L411 272.3C418.4 273.7 424 280.2 424 288C424 296.8 416.8 304 408 304L402.9 304L416 448L466.7 498.7C475.2 507.2 480 518.7 480 530.7C480 555.7 459.7 575.9 434.7 576L205.3 576C180.3 576 160.1 555.7 160.1 530.7C160.1 518.7 164.9 507.2 173.3 498.7L224 448L237.1 304L232 304C223.2 304 216 296.8 216 288C216 280.2 221.6 273.7 228.9 272.3L162 151.8C158.9 146.2 159.4 139.3 163.3 134.2C167.2 129.1 173.7 126.9 179.9 128.4L211.1 136.2C224.2 139.6 238 134.2 245.5 123L258.7 103.2L261 100.5C263.6 98.1 266.9 96.5 270.5 96.2C275.3 95.7 280 97.4 283.4 100.8L297.5 114.9L299.9 117.1C312.5 127.3 331 126.6 342.7 114.9L356.8 100.8L359.6 98.6C362.6 96.7 366.1 95.8 369.7 96.2zM253.3 464L195.9 521.4C193.4 523.9 192 527.3 192 530.8C192 538.1 197.9 544 205.2 544.1L434.7 544.1C441.1 544.1 446.4 539.5 447.7 533.5L448 530.8C448 528.2 447.2 525.6 445.8 523.5L444.1 521.5L386.7 464.1L253.2 464.1zM257.6 432L382.4 432L370.8 304L269.2 304L257.6 432zM365.3 137.4C341.9 160.8 304.8 162.3 279.6 141.8L274.8 137.4L274.5 137.1L272.1 140.7C257.9 161.9 232.7 172.6 207.8 168.2L265.5 272L374.6 272L432.2 168.2C409 172.3 385.4 163.3 370.9 144.8L368 140.7L365.6 137.1L365.4 137.4zM320 32C334.9 32 347 44.1 347 59C347 73.9 334.9 86 320 86C305.1 86 293 73.9 293 59C293 44.1 305.1 32 320 32z"/></svg>