<svg xmlns="http://www.w3.org/2000/svg" viewBox="0 0 640 640"><!--! Font Awesome Pro 7.1.0 by @fontawesome - https://fontawesome.com License - https://fontawesome.com/license (Commercial License) Copyright 2025 Fonticons, Inc. --><path fill="currentColor" d="M451.2 96.3C458.5 97.8 464 104.3 464 112L464 245.3C464 255.7 460.6 265.8 454.4 274.1L427.9 309.4C430.4 312.2 432 315.9 432 320C432 328.8 424.8 336 416 336L416 432L473.8 518.7C477.8 524.8 480 531.9 480 539.1L479.8 542.9C477.9 561.5 462.2 576 443.1 576L196.8 576L193 575.8C175.7 574 162 560.3 160.2 542.9L160 539.2C160 533.7 161.2 528.4 163.5 523.5L166.2 518.8L224 432.1L224 336.1C215.2 336.1 208 328.9 208 320.1C208 316 209.6 312.3 212.1 309.5L185.6 274.1C179.4 265.8 176 255.7 176 245.3L176 112L176.3 108.8C177.8 101.5 184.3 96 192 96L448 96L451.2 96.3zM192.8 536.5C192.3 537.3 192 538.2 192 539.2C192 541.9 194.2 544 196.8 544L443.1 544C445.8 544 447.9 541.8 447.9 539.2C447.9 538.7 447.8 538.2 447.7 537.8L447.1 536.5L398.8 464L241.1 464L192.8 536.5zM256 336L256 432L384 432L384 336L256 336zM208 245.3C208 248.8 209.1 252.1 211.2 254.9L248 304L392 304L428.8 254.9C430.9 252.1 432 248.8 432 245.3L432 128L384 128L384 176C384 184.8 376.8 192 368 192C359.2 192 352 184.8 352 176L352 128L288 128L288 176C288 184.8 280.8 192 272 192C263.2 192 256 184.8 256 176L256 128L208 128L208 245.3z"/></svg>