<svg xmlns="http://www.w3.org/2000/svg" viewBox="0 0 640 640"><!--! Font Awesome Pro 7.1.0 by @fontawesome - https://fontawesome.com License - https://fontawesome.com/license (Commercial License) Copyright 2025 Fonticons, Inc. --><path fill="currentColor" d="M328 32C429.6 32 512 114.4 512 216L512 357.5C512 378.7 503.6 399.1 488.6 414.1L457.1 445.6L505.9 518.8C509.9 524.9 512.1 532 512.1 539.2L511.9 543C510 561.6 494.3 576.1 475.2 576.1L164.9 576.1L161.1 575.9C143.7 574 130 560.3 128.2 542.9L128 539.1C128 533.6 129.2 528.3 131.5 523.4L134.2 518.7L192 432L192 426.5C192 405.3 200.4 384.9 215.4 369.9L297.3 288L246.5 288L244 290.5C225.7 308.8 199.3 315.9 174.5 309.5L169.6 308C140 298.2 120 270.4 120 239.2L120 237.9C120 220 126.5 202.7 138.2 189.1L224 90.1L224 48.1L224.3 44.9C225.8 37.6 232.3 32.1 240 32.1L328 32.1zM160.8 536.5C160.3 537.3 160 538.2 160 539.2C160 541.9 162.2 544 164.8 544L475.1 544C477.8 544 479.9 541.8 479.9 539.2C479.9 538.7 479.8 538.2 479.7 537.8L479.1 536.5L430.8 464L209.1 464L160.8 536.5zM256 96C256 99.8 254.6 103.6 252.1 106.5L162.4 210C155.7 217.7 152 227.6 152 237.8L152 239.1C152 256.6 163.2 272.2 179.8 277.7L185.4 279.1C198.4 281.5 212 277.4 221.5 267.9L228.7 260.7L231.1 258.7C233.7 257 236.8 256 240 256L336 256C342.5 256 348.3 259.9 350.8 265.9C353.3 271.9 351.9 278.8 347.3 283.3L238.1 392.6C229.1 401.6 224 413.8 224 426.5L224 432L425.4 432L466 391.4C475 382.4 480.1 370.2 480.1 357.5L480 216C480 132.1 411.9 64 328 64L256 64L256 96zM288 184C274.7 184 264 173.3 264 160C264 146.7 274.7 136 288 136C301.3 136 312 146.7 312 160C312 173.3 301.3 184 288 184z"/></svg>