<svg xmlns="http://www.w3.org/2000/svg" viewBox="0 0 640 640"><!--! Font Awesome Pro 7.1.0 by @fontawesome - https://fontawesome.com License - https://fontawesome.com/license (Commercial License) Copyright 2025 Fonticons, Inc. --><path fill="currentColor" d="M320 32C381.9 32 432 82.1 432 144C432 175.3 419.1 203.7 398.3 224L408 224C416.8 224 424 231.2 424 240C424 248.8 416.8 256 408 256L404.6 256L432 448L488.2 518.3C493.2 524.6 496 532.4 496 540.5C496 560.1 480.1 576 460.5 576L179.5 576C159.9 576 144 560.1 144 540.5C144 532.4 146.7 524.6 151.8 518.3L208 448L235.4 256L232 256C223.2 256 216 248.8 216 240C216 231.2 223.2 224 232 224L241.7 224C220.9 203.7 208 175.3 208 144C208 82.1 258.1 32 320 32zM236.2 464L233 468L176.8 538.3L176.8 538.3C176.3 538.9 176 539.7 176 540.5C176 542.5 177.6 544 179.5 544L460.4 544C461.9 544 463.1 543.1 463.7 541.8L464 540.4C464 539.6 463.7 538.8 463.2 538.2L463.2 538.2L407 467.9L403.8 463.9L236.2 463.9zM267.1 260.5L242.6 432L397.4 432L372.9 260.5L372.2 256L267.8 256L267.1 260.5zM320 64C275.8 64 240 99.8 240 144C240 188.2 275.8 224 320 224C364.2 224 400 188.2 400 144C400 99.8 364.2 64 320 64z"/></svg>