<svg xmlns="http://www.w3.org/2000/svg" viewBox="0 0 640 640"><!--! Font Awesome Pro 7.1.0 by @fontawesome - https://fontawesome.com License - https://fontawesome.com/license (Commercial License) Copyright 2025 Fonticons, Inc. --><path fill="currentColor" d="M480 64C497.7 64 512 78.3 512 96L512 234.7C512 248.5 507.5 262 499.2 273.1L464 320L464 448L506.7 519.1C510.2 524.9 512 531.6 512 538.4C512 559.2 495.2 576 474.4 576L165.6 576C144.8 576 128 559.2 128 538.4C128 531.6 129.8 524.9 133.3 519.1L176 448L176 320L140.8 273.1C132.5 262 128 248.5 128 234.7L128 96C128 78.3 142.3 64 160 64L480 64zM203.4 464.5L160.8 535.5C160.6 535.9 160.4 536.4 160.2 536.8L160 538.3C160 541.4 162.5 543.9 165.6 543.9L474.4 543.9C477.5 543.9 480 541.4 480 538.3C480 537.8 479.9 537.3 479.8 536.8L479.2 535.5L436.5 464.4C436.4 464.2 436.3 464.1 436.3 463.9L203.7 464C203.6 464.2 203.5 464.3 203.5 464.5zM160 234.7C160 241.6 162.2 248.4 166.4 253.9L201.6 300.8C205.8 306.3 208 313.1 208 320L208 432L432 432L432 320C432 313.1 434.3 306.4 438.4 300.8L473.6 253.9L476.3 249.5C478.7 244.9 480 239.8 480 234.7L480 96L400 96L400 144C400 152.8 392.8 160 384 160C375.2 160 368 152.8 368 144L368 96L272 96L272 144C272 152.8 264.8 160 256 160C247.2 160 240 152.8 240 144L240 96L160 96L160 234.7z"/></svg>