<svg xmlns="http://www.w3.org/2000/svg" viewBox="0 0 640 640"><!--! Font Awesome Pro 7.1.0 by @fontawesome - https://fontawesome.com License - https://fontawesome.com/license (Commercial License) Copyright 2025 Fonticons, Inc. --><path fill="currentColor" d="M100.7 139.3L308.7 347.3C314.9 353.5 325.1 353.5 331.3 347.3L539.3 139.3C545.5 133.1 545.5 122.9 539.3 116.7C533.1 110.5 522.9 110.5 516.7 116.7L320 313.4L123.3 116.7C117.1 110.5 106.9 110.5 100.7 116.7C94.5 122.9 94.5 133.1 100.7 139.3zM100.7 331.3L308.7 539.3C314.9 545.5 325.1 545.5 331.3 539.3L539.3 331.3C545.5 325.1 545.5 314.9 539.3 308.7C533.1 302.5 522.9 302.5 516.7 308.7L320 505.4L123.3 308.7C117.1 302.5 106.9 302.5 100.7 308.7C94.5 314.9 94.5 325.1 100.7 331.3z"/></svg>