<svg xmlns="http://www.w3.org/2000/svg" viewBox="0 0 640 640"><!--! Font Awesome Pro 7.1.0 by @fontawesome - https://fontawesome.com License - https://fontawesome.com/license (Commercial License) Copyright 2025 Fonticons, Inc. --><path fill="currentColor" d="M96 320C96 196.3 196.3 96 320 96C443.7 96 544 196.3 544 320C544 443.7 443.7 544 320 544C196.3 544 96 443.7 96 320zM576 320C576 178.6 461.4 64 320 64C178.6 64 64 178.6 64 320C64 461.4 178.6 576 320 576C461.4 576 576 461.4 576 320zM340.7 196.7L228.7 308.7C222.5 314.9 222.5 325.1 228.7 331.3L340.7 443.3C346.9 449.5 357.1 449.5 363.3 443.3C369.5 437.1 369.5 426.9 363.3 420.7L262.6 320L363.3 219.3C369.5 213.1 369.5 202.9 363.3 196.7C357.1 190.5 346.9 190.5 340.7 196.7z"/></svg>