<svg xmlns="http://www.w3.org/2000/svg" viewBox="0 0 640 640"><!--! Font Awesome Pro 7.1.0 by @fontawesome - https://fontawesome.com License - https://fontawesome.com/license (Commercial License) Copyright 2025 Fonticons, Inc. --><path fill="currentColor" d="M100.7 308.7C94.5 314.9 94.5 325.1 100.7 331.3L308.7 539.3C314.9 545.5 325.1 545.5 331.3 539.3C337.5 533.1 337.5 522.9 331.3 516.7L134.6 320L331.3 123.3C337.5 117.1 337.5 106.9 331.3 100.7C325.1 94.5 314.9 94.5 308.7 100.7L100.7 308.7zM500.7 100.7L292.7 308.7C286.5 314.9 286.5 325.1 292.7 331.3L500.7 539.3C506.9 545.5 517.1 545.5 523.3 539.3C529.5 533.1 529.5 522.9 523.3 516.7L326.6 320L523.3 123.3C529.5 117.1 529.5 106.9 523.3 100.7C517.1 94.5 506.9 94.5 500.7 100.7z"/></svg>