<svg xmlns="http://www.w3.org/2000/svg" viewBox="0 0 640 640"><!--! Font Awesome Pro 7.1.0 by @fontawesome - https://fontawesome.com License - https://fontawesome.com/license (Commercial License) Copyright 2025 Fonticons, Inc. --><path fill="currentColor" d="M139.3 539.3L347.3 331.3C353.5 325.1 353.5 314.9 347.3 308.7L139.3 100.7C133.1 94.5 122.9 94.5 116.7 100.7C110.5 106.9 110.5 117.1 116.7 123.3L313.4 320L116.7 516.7C110.5 522.9 110.5 533.1 116.7 539.3C122.9 545.5 133.1 545.5 139.3 539.3zM331.3 539.3L539.3 331.3C545.5 325.1 545.5 314.9 539.3 308.7L331.3 100.7C325.1 94.5 314.9 94.5 308.7 100.7C302.5 106.9 302.5 117.1 308.7 123.3L505.4 320L308.7 516.7C302.5 522.9 302.5 533.1 308.7 539.3C314.9 545.5 325.1 545.5 331.3 539.3z"/></svg>