<svg xmlns="http://www.w3.org/2000/svg" viewBox="0 0 640 640"><!--! Font Awesome Pro 7.1.0 by @fontawesome - https://fontawesome.com License - https://fontawesome.com/license (Commercial License) Copyright 2025 Fonticons, Inc. --><path fill="currentColor" d="M331.3 100.7C325.1 94.5 314.9 94.5 308.7 100.7L100.7 308.7C94.5 314.9 94.5 325.1 100.7 331.3C106.9 337.5 117.1 337.5 123.3 331.3L320 134.6L516.7 331.3C522.9 337.5 533.1 337.5 539.3 331.3C545.5 325.1 545.5 314.9 539.3 308.7L331.3 100.7zM539.3 500.7L331.3 292.7C325.1 286.5 314.9 286.5 308.7 292.7L100.7 500.7C94.5 506.9 94.5 517.1 100.7 523.3C106.9 529.5 117.1 529.5 123.3 523.3L320 326.6L516.7 523.3C522.9 529.5 533.1 529.5 539.3 523.3C545.5 517.1 545.5 506.9 539.3 500.7z"/></svg>