<svg xmlns="http://www.w3.org/2000/svg" viewBox="0 0 640 640"><!--! Font Awesome Pro 7.1.0 by @fontawesome - https://fontawesome.com License - https://fontawesome.com/license (Commercial License) Copyright 2025 Fonticons, Inc. --><path fill="currentColor" d="M0 208C0 163.8 35.8 128 80 128L84.2 128C112.2 128 137.8 143.8 150.3 168.8C154.3 176.7 151 186.3 143.1 190.3C135.2 194.3 125.6 191 121.6 183.1C114.6 169 100.1 160 84.2 160L80 160C53.5 160 32 181.5 32 208L32 432C32 458.5 53.5 480 80 480L84.2 480C100.1 480 114.6 471 121.7 456.8C125.7 448.9 135.3 445.7 143.2 449.6C151.1 453.5 154.3 463.2 150.4 471.1C137.9 496.1 112.3 511.9 84.3 511.9L80 512C35.8 512 0 476.2 0 432L0 208zM208 128C216.8 128 224 135.2 224 144L224 288L384 288L384 144C384 135.2 391.2 128 400 128C408.8 128 416 135.2 416 144L416 496C416 504.8 408.8 512 400 512C391.2 512 384 504.8 384 496L384 320L224 320L224 496C224 504.8 216.8 512 208 512C199.2 512 192 504.8 192 496L192 144C192 135.2 199.2 128 208 128zM448 144C448 135.2 455.2 128 464 128L624 128C632.8 128 640 135.2 640 144C640 152.8 632.8 160 624 160L480 160L480 288L592 288C600.8 288 608 295.2 608 304C608 312.8 600.8 320 592 320L480 320L480 496C480 504.8 472.8 512 464 512C455.2 512 448 504.8 448 496L448 144z"/></svg>