<svg xmlns="http://www.w3.org/2000/svg" viewBox="0 0 640 640"><!--! Font Awesome Pro 7.1.0 by @fontawesome - https://fontawesome.com License - https://fontawesome.com/license (Commercial License) Copyright 2025 Fonticons, Inc. --><path fill="currentColor" d="M192.5 128C192.5 110.3 178.2 96 160.5 96C142.8 96 128.5 110.3 128.5 128C128.5 145.7 142.8 160 160.5 160C178.2 160 192.5 145.7 192.5 128zM96.5 128C96.5 92.7 125.2 64 160.5 64C195.8 64 224.5 92.7 224.5 128C224.5 163.3 195.8 192 160.5 192C125.2 192 96.5 163.3 96.5 128zM512.5 128C512.5 110.3 498.2 96 480.5 96C462.8 96 448.5 110.3 448.5 128C448.5 145.7 462.8 160 480.5 160C498.2 160 512.5 145.7 512.5 128zM416.5 128C416.5 92.7 445.2 64 480.5 64C515.8 64 544.5 92.7 544.5 128C544.5 163.3 515.8 192 480.5 192C445.2 192 416.5 163.3 416.5 128zM480.5 256C468.9 256 457.9 259.4 448.5 265.6L448.5 416L512.5 416L512.5 265.6C503.1 259.4 492.1 256 480.5 256zM448.5 560C448.5 568.8 441.3 576 432.5 576C423.7 576 416.5 568.8 416.5 560L416.5 307.3L374.1 376.4C369.5 383.9 359.6 386.3 352.1 381.7C344.6 377.1 342.2 367.2 346.8 359.7L403.7 267C420.1 240.3 449.2 224 480.5 224C511.8 224 540.9 240.3 557.3 267L614.1 359.6C618.7 367.1 616.4 377 608.8 381.6C601.2 386.2 591.4 383.9 586.8 376.3L544.4 307.2L544.4 559.9C544.4 568.7 537.2 575.9 528.4 575.9C519.6 575.9 512.4 568.7 512.4 559.9L512.4 447.9L448.4 447.9L448.4 559.9zM96.5 464L72.5 464C67.5 464 62.8 461.7 59.8 457.7C56.8 453.7 55.8 448.6 57 443.8L95 302.6L45.8 376.8C40.9 384.2 31 386.2 23.6 381.3C16.2 376.4 14.2 366.5 19.1 359.1L80.3 267C97.1 241.7 124.7 225.9 154.8 224.1C156.2 224 157.7 223.9 159.2 223.9L161.9 223.9C163.4 223.9 164.8 224 166.3 224.1C196.4 225.9 224 241.7 240.8 267L301.9 359.1C306.8 366.5 304.8 376.4 297.4 381.3C290 386.2 280.1 384.2 275.2 376.8L226 302.6L264 443.8C265.3 448.6 264.3 453.7 261.2 457.7C258.1 461.7 253.5 464 248.5 464L224.5 464L224.5 560C224.5 568.8 217.3 576 208.5 576C199.7 576 192.5 568.8 192.5 560L192.5 464L128.5 464L128.5 560C128.5 568.8 121.3 576 112.5 576C103.7 576 96.5 568.8 96.5 560L96.5 464zM157 256.1C147 257 138.6 264 135.9 273.8L93.4 432L227.6 432L185 273.8C182.4 264 173.9 257 163.9 256.1C161.6 256 159.3 256 157 256.1z"/></svg>