<svg xmlns="http://www.w3.org/2000/svg" viewBox="0 0 640 640"><!--! Font Awesome Pro 7.1.0 by @fontawesome - https://fontawesome.com License - https://fontawesome.com/license (Commercial License) Copyright 2025 Fonticons, Inc. --><path fill="currentColor" d="M352 128C352 110.3 337.7 96 320 96C302.3 96 288 110.3 288 128C288 145.7 302.3 160 320 160C337.7 160 352 145.7 352 128zM256 128C256 92.7 284.7 64 320 64C355.3 64 384 92.7 384 128C384 163.3 355.3 192 320 192C284.7 192 256 163.3 256 128zM240 252C212.2 237.1 188.6 214.6 172.5 186.2L162.1 167.9C157.7 160.2 160.4 150.4 168.1 146.1C175.8 141.8 185.6 144.4 189.9 152.1L200.3 170.4C224.7 213.4 270.4 240 319.8 240C368.7 240 413.9 214 438.5 171.8L450.1 151.9C454.6 144.3 464.3 141.7 472 146.1C479.7 150.5 482.2 160.3 477.8 168L466.2 187.9C450.2 215.4 427.1 237.3 400 251.8L400 560C400 568.8 392.8 576 384 576C375.2 576 368 568.8 368 560L368 448L272 448L272 560C272 568.8 264.8 576 256 576C247.2 576 240 568.8 240 560L240 252zM272 265.1L272 416L368 416L368 265C352.6 269.6 336.4 272 319.9 272C303.5 272 287.4 269.6 272 265.1z"/></svg>