<svg xmlns="http://www.w3.org/2000/svg" viewBox="0 0 640 640"><!--! Font Awesome Pro 7.1.0 by @fontawesome - https://fontawesome.com License - https://fontawesome.com/license (Commercial License) Copyright 2025 Fonticons, Inc. --><path fill="currentColor" d="M320 160C337.7 160 352 145.7 352 128C352 110.3 337.7 96 320 96C302.3 96 288 110.3 288 128C288 145.7 302.3 160 320 160zM320 64C355.3 64 384 92.7 384 128C384 163.3 355.3 192 320 192C284.7 192 256 163.3 256 128C256 92.7 284.7 64 320 64zM256 464L232 464C227 464 222.3 461.7 219.3 457.7C216.3 453.7 215.3 448.6 216.5 443.8L258 289.8L188.5 377.9C183 384.8 173 386 166 380.6C159 375.2 158 365 163.4 358.1L237.7 263.9C256.5 240 284.8 225.6 315 224.1C316.2 224 317.5 224 318.7 224L321.4 224C322.6 224 323.9 224 325.1 224.1C355.3 225.6 383.5 240 402.4 263.9L476.7 358.1C482.2 365 481 375.1 474 380.6C467 386.1 457 384.9 451.5 377.9L382 289.8L423.5 443.8C424.8 448.6 423.8 453.7 420.7 457.7C417.6 461.7 413 464 408 464L384 464L384 560C384 568.8 376.8 576 368 576C359.2 576 352 568.8 352 560L352 464L288 464L288 560C288 568.8 280.8 576 272 576C263.2 576 256 568.8 256 560L256 464zM316.8 256.1C306.7 256.9 298.1 263.9 295.4 273.8L252.9 432L387.1 432L344.5 273.8C341.8 263.9 333.2 256.9 323.1 256.1C321 256 318.9 256 316.8 256.1z"/></svg>