<svg xmlns="http://www.w3.org/2000/svg" viewBox="0 0 640 640"><!--! Font Awesome Pro 7.1.0 by @fontawesome - https://fontawesome.com License - https://fontawesome.com/license (Commercial License) Copyright 2025 Fonticons, Inc. --><path fill="currentColor" d="M288 128C288 110.3 302.3 96 320 96C337.7 96 352 110.3 352 128C352 145.7 337.7 160 320 160C302.3 160 288 145.7 288 128zM384 128C384 92.7 355.3 64 320 64C284.7 64 256 92.7 256 128C256 163.3 284.7 192 320 192C355.3 192 384 163.3 384 128zM233.9 304.2C235.8 301.1 237.8 298.2 240 295.3L240 560C240 568.8 247.2 576 256 576C264.8 576 272 568.8 272 560L272 448L368 448L368 560C368 568.8 375.2 576 384 576C392.8 576 400 568.8 400 560L400 295.3C402.2 298.1 404.2 301.1 406.1 304.2L450.4 376.4C455 383.9 464.9 386.3 472.4 381.7C479.9 377.1 482.3 367.2 477.7 359.7L433.4 287.5C409.2 248 366.3 224 320 224C273.7 224 230.8 248 206.6 287.5L162.4 359.6C157.8 367.1 160.1 377 167.7 381.6C175.3 386.2 185.1 383.9 189.7 376.3L234 304.1zM368 416L272 416L272 268.1C286.5 260.3 303 256 320 256C337 256 353.5 260.3 368 268.1L368 416z"/></svg>