<svg xmlns="http://www.w3.org/2000/svg" viewBox="0 0 640 640"><!--! Font Awesome Pro 7.1.0 by @fontawesome - https://fontawesome.com License - https://fontawesome.com/license (Commercial License) Copyright 2025 Fonticons, Inc. --><path fill="currentColor" d="M128 128L512 128L512 192L128 192L128 128zM128 224L128 528C128 536.8 135.2 544 144 544C152.8 544 160 536.8 160 528L160 480L256 480L256 528C256 536.8 263.2 544 272 544C280.8 544 288 536.8 288 528L288 480L480 480L480 528C480 536.8 487.2 544 496 544C504.8 544 512 536.8 512 528L512 224C529.7 224 544 209.7 544 192L544 128C544 110.3 529.7 96 512 96L128 96C110.3 96 96 110.3 96 128L96 192C96 209.7 110.3 224 128 224zM480 224L480 320L288 320L288 224L480 224zM256 224L256 320L160 320L160 224L256 224zM272 448L160 448L160 352L352 352L352 448L272 448zM384 448L384 352L480 352L480 448L384 448z"/></svg>