<svg xmlns="http://www.w3.org/2000/svg" viewBox="0 0 640 640"><!--! Font Awesome Pro 7.1.0 by @fontawesome - https://fontawesome.com License - https://fontawesome.com/license (Commercial License) Copyright 2025 Fonticons, Inc. --><path fill="currentColor" d="M320 32C328.8 32 336 39.2 336 48L336 80L376 80C384.8 80 392 87.2 392 96C392 104.8 384.8 112 376 112L336 112L336 167L457 241C471.3 249.7 480 265.2 480 282L480 310.2L545 342.7C564 352.2 576 371.6 576 392.8L576 520C576 550.9 550.9 576 520 576L120 576C89.1 576 64 550.9 64 520L64 392.7C64 371.5 76 352.1 95 342.6L160 310.1L160 281.9C160 265.2 168.7 249.7 183 240.9L304 166.9L304 111.9L264 111.9C255.2 111.9 248 104.7 248 95.9C248 87.1 255.2 79.9 264 79.9L304 79.9L304 47.9C304 39.1 311.2 31.9 320 31.9zM480 544L520 544C533.3 544 544 533.3 544 520L544 392.7C544 383.6 538.9 375.3 530.7 371.2L480 345.9L480 544zM448 544L448 281.9C448 276.3 445.1 271.2 440.3 268.2L320 194.8L199.7 268.3C194.9 271.2 192 276.4 192 282L192 544.1L256 544.1L256 448.1C256 412.8 284.7 384.1 320 384.1C355.3 384.1 384 412.8 384 448.1L384 544.1L448 544.1zM109.3 371.3C101.1 375.3 96 383.6 96 392.7L96 520C96 533.3 106.7 544 120 544L160 544L160 345.9L109.3 371.3zM352 544L352 448C352 430.3 337.7 416 320 416C302.3 416 288 430.3 288 448L288 544L352 544z"/></svg>