<svg xmlns="http://www.w3.org/2000/svg" viewBox="0 0 640 640"><!--! Font Awesome Pro 7.1.0 by @fontawesome - https://fontawesome.com License - https://fontawesome.com/license (Commercial License) Copyright 2025 Fonticons, Inc. --><path fill="currentColor" d="M320 96C443.7 96 544 196.3 544 320C544 443.7 443.7 544 320 544C196.3 544 96 443.7 96 320C96 196.3 196.3 96 320 96zM320 576C461.4 576 576 461.4 576 320C576 178.6 461.4 64 320 64C178.6 64 64 178.6 64 320C64 461.4 178.6 576 320 576zM320 224C313.9 224 308.4 227.4 305.7 232.8L225.7 392.8C221.7 400.7 225 410.3 232.9 414.3C240.8 418.3 250.4 415 254.4 407.1L266 383.9L374.2 383.9L385.8 407.1C389.8 415 399.4 418.2 407.3 414.3C415.2 410.4 418.4 400.7 414.5 392.8L334.5 232.8C331.8 227.4 326.3 224 320.2 224zM320 275.8L358.1 352L281.9 352L320 275.8z"/></svg>