<svg xmlns="http://www.w3.org/2000/svg" viewBox="0 0 640 640"><!--! Font Awesome Pro 7.1.0 by @fontawesome - https://fontawesome.com License - https://fontawesome.com/license (Commercial License) Copyright 2025 Fonticons, Inc. --><path fill="currentColor" d="M96 320C96 196.3 196.3 96 320 96C443.7 96 544 196.3 544 320C544 443.7 443.7 544 320 544C196.3 544 96 443.7 96 320zM576 320C576 178.6 461.4 64 320 64C178.6 64 64 178.6 64 320C64 461.4 178.6 576 320 576C461.4 576 576 461.4 576 320zM304 404.7L219.3 320L304 235.3L304 272C304 280.8 311.2 288 320 288L408 288C412.4 288 416 291.6 416 296L416 344C416 348.4 412.4 352 408 352L320 352C311.2 352 304 359.2 304 368L304 404.7zM295 199L191 303C181.6 312.4 181.6 327.6 191 336.9L295 441C301.9 447.9 312.2 449.9 321.2 446.2C330.2 442.5 336 433.7 336 424L336 384L408 384C430.1 384 448 366.1 448 344L448 296C448 273.9 430.1 256 408 256L336 256L336 216C336 206.3 330.2 197.5 321.2 193.8C312.2 190.1 301.9 192.1 295 199z"/></svg>