<svg xmlns="http://www.w3.org/2000/svg" viewBox="0 0 640 640"><!--! Font Awesome Pro 7.1.0 by @fontawesome - https://fontawesome.com License - https://fontawesome.com/license (Commercial License) Copyright 2025 Fonticons, Inc. --><path fill="currentColor" d="M320 96C443.7 96 544 196.3 544 320C544 443.7 443.7 544 320 544C196.3 544 96 443.7 96 320C96 196.3 196.3 96 320 96zM320 576C461.4 576 576 461.4 576 320C576 178.6 461.4 64 320 64C178.6 64 64 178.6 64 320C64 461.4 178.6 576 320 576zM224 192C215.2 192 208 199.2 208 208C208 216.8 215.2 224 224 224L416 224C424.8 224 432 216.8 432 208C432 199.2 424.8 192 416 192L224 192zM224 256C215.2 256 208 263.2 208 272C208 280.8 215.2 288 224 288L304 288L304 432C304 440.8 311.2 448 320 448C328.8 448 336 440.8 336 432L336 288L416 288C424.8 288 432 280.8 432 272C432 263.2 424.8 256 416 256L224 256z"/></svg>