<svg xmlns="http://www.w3.org/2000/svg" viewBox="0 0 640 640"><!--! Font Awesome Pro 7.1.0 by @fontawesome - https://fontawesome.com License - https://fontawesome.com/license (Commercial License) Copyright 2025 Fonticons, Inc. --><path fill="currentColor" d="M320 96C443.7 96 544 196.3 544 320C544 443.7 443.7 544 320 544C196.3 544 96 443.7 96 320C96 196.3 196.3 96 320 96zM320 576C461.4 576 576 461.4 576 320C576 178.6 461.4 64 320 64C178.6 64 64 178.6 64 320C64 461.4 178.6 576 320 576zM243 285L249.2 300.8C249.6 301.9 250 302.9 250.3 304L240 304C231.2 304 224 311.2 224 320C224 328.8 231.2 336 240 336L252.7 336C251.1 345.5 247.4 354.7 241.7 362.9L210.9 406.9C207.5 411.8 207.1 418.2 209.8 423.5C212.5 428.8 218 432 224 432L400 432C408.8 432 416 424.8 416 416C416 407.2 408.8 400 400 400L254.7 400L267.9 381.2C277.4 367.6 283.2 352 285 336L368 336C376.8 336 384 328.8 384 320C384 311.2 376.8 304 368 304L283.4 304C282.3 299 280.8 294.1 279 289.2L272.8 273.4C260.6 241.9 283.8 208 317.5 208L318.8 208C335.8 208 352.1 214.7 364.1 226.7L372.7 235.3C378.9 241.5 389.1 241.5 395.3 235.3C401.5 229.1 401.5 218.9 395.3 212.7L386.7 204.1C368.7 186.1 344.3 176 318.8 176L317.5 176C261.2 176 222.5 232.6 242.9 285z"/></svg>