<svg xmlns="http://www.w3.org/2000/svg" viewBox="0 0 640 640"><!--! Font Awesome Pro 7.1.0 by @fontawesome - https://fontawesome.com License - https://fontawesome.com/license (Commercial License) Copyright 2025 Fonticons, Inc. --><path fill="currentColor" d="M320 96C443.7 96 544 196.3 544 320C544 443.7 443.7 544 320 544C196.3 544 96 443.7 96 320C96 196.3 196.3 96 320 96zM320 576C461.4 576 576 461.4 576 320C576 178.6 461.4 64 320 64C178.6 64 64 178.6 64 320C64 461.4 178.6 576 320 576zM256 224C247.2 224 240 231.2 240 240L240 312C240 334.1 257.9 352 280 352L352 352L352 400C352 408.8 359.2 416 368 416C376.8 416 384 408.8 384 400L384 352C392.8 352 400 344.8 400 336C400 327.2 392.8 320 384 320L384 240C384 231.2 376.8 224 368 224C359.2 224 352 231.2 352 240L352 320L280 320C275.6 320 272 316.4 272 312L272 240C272 231.2 264.8 224 256 224z"/></svg>