<svg xmlns="http://www.w3.org/2000/svg" viewBox="0 0 640 640"><!--! Font Awesome Pro 7.1.0 by @fontawesome - https://fontawesome.com License - https://fontawesome.com/license (Commercial License) Copyright 2025 Fonticons, Inc. --><path fill="currentColor" d="M466.7 489.3L320 342.6L173.3 489.3C212.6 523.4 263.9 544 320 544C376.1 544 427.4 523.4 466.7 489.3zM489.3 466.7C523.4 427.4 544 376.1 544 320C544 263.9 523.4 212.6 489.3 173.3L342.6 320L489.3 466.7zM466.7 150.7C427.4 116.6 376.1 96 320 96C263.9 96 212.6 116.6 173.3 150.7L320 297.4L466.7 150.7zM150.7 173.3C116.6 212.6 96 263.9 96 320C96 376.1 116.6 427.4 150.7 466.7L297.4 320L150.7 173.3zM64 320C64 178.6 178.6 64 320 64C461.4 64 576 178.6 576 320C576 461.4 461.4 576 320 576C178.6 576 64 461.4 64 320z"/></svg>