<svg xmlns="http://www.w3.org/2000/svg" viewBox="0 0 640 640"><!--! Font Awesome Pro 7.1.0 by @fontawesome - https://fontawesome.com License - https://fontawesome.com/license (Commercial License) Copyright 2025 Fonticons, Inc. --><path fill="currentColor" d="M320 96C443.7 96 544 196.3 544 320C544 443.7 443.7 544 320 544C196.3 544 96 443.7 96 320C96 196.3 196.3 96 320 96zM320 576C461.4 576 576 461.4 576 320C576 178.6 461.4 64 320 64C178.6 64 64 178.6 64 320C64 461.4 178.6 576 320 576zM304 208C304 199.2 296.8 192 288 192C279.2 192 272 199.2 272 208L272 432C272 440.8 279.2 448 288 448C296.8 448 304 440.8 304 432L304 208zM384 264C384 255.2 376.8 248 368 248C359.2 248 352 255.2 352 264L352 376C352 384.8 359.2 392 368 392C376.8 392 384 384.8 384 376L384 264zM224 280C224 271.2 216.8 264 208 264C199.2 264 192 271.2 192 280L192 360C192 368.8 199.2 376 208 376C216.8 376 224 368.8 224 360L224 280zM464 304C464 295.2 456.8 288 448 288C439.2 288 432 295.2 432 304L432 336C432 344.8 439.2 352 448 352C456.8 352 464 344.8 464 336L464 304z"/></svg>