<svg xmlns="http://www.w3.org/2000/svg" viewBox="0 0 640 640"><!--! Font Awesome Pro 7.1.0 by @fontawesome - https://fontawesome.com License - https://fontawesome.com/license (Commercial License) Copyright 2025 Fonticons, Inc. --><path fill="currentColor" d="M320 96C443.7 96 544 196.3 544 320C544 443.7 443.7 544 320 544C196.3 544 96 443.7 96 320C96 196.3 196.3 96 320 96zM320 576C461.4 576 576 461.4 576 320C576 178.6 461.4 64 320 64C178.6 64 64 178.6 64 320C64 461.4 178.6 576 320 576zM320 222.1L349.2 288L290.8 288L320 222.1zM340.5 189.4C336.9 181.3 328.9 176 320 176C311.1 176 303.1 181.2 299.5 189.4L255.8 288L208 288C199.2 288 192 295.2 192 304C192 312.8 199.2 320 208 320L241.6 320L227.4 352L207.9 352C199.1 352 191.9 359.2 191.9 368C191.9 376.8 199.1 384 207.9 384L213.2 384L201.9 409.5C198.3 417.6 202 427 210.1 430.6C218.2 434.2 227.6 430.5 231.2 422.4L248.2 383.9L391.6 383.9L408.6 422.4C412.2 430.5 421.6 434.1 429.7 430.6C437.8 427.1 441.4 417.6 437.9 409.5L426.6 384L431.9 384C440.7 384 447.9 376.8 447.9 368C447.9 359.2 440.7 352 431.9 352L412.4 352L398.2 320L431.8 320C440.6 320 447.8 312.8 447.8 304C447.8 295.2 440.6 288 431.8 288L384 288L340.3 189.4zM276.6 320L363.4 320L377.6 352L262.5 352L276.7 320z"/></svg>