<svg xmlns="http://www.w3.org/2000/svg" viewBox="0 0 640 640"><!--! Font Awesome Pro 7.1.0 by @fontawesome - https://fontawesome.com License - https://fontawesome.com/license (Commercial License) Copyright 2025 Fonticons, Inc. --><path fill="currentColor" d="M320 96C443.7 96 544 196.3 544 320C544 443.7 443.7 544 320 544C196.3 544 96 443.7 96 320C96 196.3 196.3 96 320 96zM320 576C461.4 576 576 461.4 576 320C576 178.6 461.4 64 320 64C178.6 64 64 178.6 64 320C64 461.4 178.6 576 320 576zM400 192C391.2 192 384 199.2 384 208L384 224L383 224C352.6 224 328 248.6 328 279C328 305.9 347.4 328.8 373.9 333.2L404.8 338.3C415.9 340.1 424 349.7 424 361C424 373.7 413.7 384 401 384L352 384C343.2 384 336 391.2 336 400C336 408.8 343.2 416 352 416L384 416L384 432C384 440.8 391.2 448 400 448C408.8 448 416 440.8 416 432L416 413.9C439.1 407.4 456 386.2 456 361C456 334.1 436.6 311.2 410.1 306.8L379.2 301.7C368.1 299.9 360 290.3 360 279C360 266.3 370.3 256 383 256L432 256C440.8 256 448 248.8 448 240C448 231.2 440.8 224 432 224L416 224L416 208C416 199.2 408.8 192 400 192zM184 279C184 305.9 203.4 328.8 229.9 333.2L260.8 338.3C271.9 340.1 280 349.7 280 361C280 373.7 269.7 384 257 384L208 384C199.2 384 192 391.2 192 400C192 408.8 199.2 416 208 416L257 416C287.4 416 312 391.4 312 361C312 334.1 292.6 311.2 266.1 306.8L235.2 301.7C224.1 299.9 216 290.3 216 279C216 266.3 226.3 256 239 256L288 256C296.8 256 304 248.8 304 240C304 231.2 296.8 224 288 224L239 224C208.6 224 184 248.6 184 279z"/></svg>