<svg xmlns="http://www.w3.org/2000/svg" viewBox="0 0 640 640"><!--! Font Awesome Pro 7.1.0 by @fontawesome - https://fontawesome.com License - https://fontawesome.com/license (Commercial License) Copyright 2025 Fonticons, Inc. --><path fill="currentColor" d="M320 96C443.7 96 544 196.3 544 320C544 443.7 443.7 544 320 544C196.3 544 96 443.7 96 320C96 196.3 196.3 96 320 96zM320 576C461.4 576 576 461.4 576 320C576 178.6 461.4 64 320 64C178.6 64 64 178.6 64 320C64 461.4 178.6 576 320 576zM163.2 288C170.6 251.7 190.3 219.8 217.8 196.9L250.6 253.7C241.3 263.4 234.1 275 229.5 288L163.2 288zM264.5 470.1L297.3 413.3C304.6 415.1 312.2 416 320 416C327.8 416 335.4 415.1 342.7 413.3L375.5 470.1C358.2 476.5 339.5 480 320 480C300.5 480 281.7 476.5 264.5 470.1zM476.8 288L410.5 288C405.9 275 398.7 263.4 389.4 253.7L422.2 196.9C449.7 219.8 469.4 251.7 476.8 288zM128.7 304C128 312.8 135.2 320 144 320L240 320C248.8 320 255.8 312.7 258 304.2C261.3 291.4 268.4 280.1 278.1 271.7C285.1 265.6 288.5 255.3 283.9 247.3L236.3 164.8C232 157.3 222.4 154.5 215.1 159.3C166.9 190.8 133.8 243.5 128.8 304.1zM275.1 387.7L227.5 470.2C223.2 477.7 225.6 487.4 233.3 491.3C259.4 504.5 288.8 512 320.1 512C351.4 512 380.8 504.6 406.9 491.3C414.6 487.4 417 477.7 412.7 470.2L365.1 387.7C360.4 379.6 349.8 377.4 341 380.5C334.5 382.7 327.5 384 320.2 384C312.9 384 305.9 382.8 299.4 380.5C290.6 377.5 280 379.6 275.3 387.7zM400 320L496 320C504.8 320 512.1 312.8 511.3 304C506.3 243.4 473.2 190.8 425 159.2C417.7 154.4 408.2 157.2 403.8 164.7L356.2 247.2C351.5 255.3 354.9 265.5 362 271.6C371.7 280 378.8 291.3 382.1 304.1C384.3 312.7 391.2 319.9 400.1 319.9zM320 352C337.7 352 352 337.7 352 320C352 302.3 337.7 288 320 288C302.3 288 288 302.3 288 320C288 337.7 302.3 352 320 352z"/></svg>