<svg xmlns="http://www.w3.org/2000/svg" viewBox="0 0 640 640"><!--! Font Awesome Pro 7.1.0 by @fontawesome - https://fontawesome.com License - https://fontawesome.com/license (Commercial License) Copyright 2025 Fonticons, Inc. --><path fill="currentColor" d="M320 96C443.7 96 544 196.3 544 320C544 443.7 443.7 544 320 544C196.3 544 96 443.7 96 320C96 196.3 196.3 96 320 96zM320 576C461.4 576 576 461.4 576 320C576 178.6 461.4 64 320 64C178.6 64 64 178.6 64 320C64 461.4 178.6 576 320 576zM224 272C224 280.8 231.2 288 240 288L400 288C408.8 288 416 280.8 416 272C416 263.2 408.8 256 400 256L240 256C231.2 256 224 263.2 224 272zM224 368C224 376.8 231.2 384 240 384L400 384C408.8 384 416 376.8 416 368C416 359.2 408.8 352 400 352L240 352C231.2 352 224 359.2 224 368z"/></svg>