<svg xmlns="http://www.w3.org/2000/svg" viewBox="0 0 640 640"><!--! Font Awesome Pro 7.1.0 by @fontawesome - https://fontawesome.com License - https://fontawesome.com/license (Commercial License) Copyright 2025 Fonticons, Inc. --><path fill="currentColor" d="M320 96C443.7 96 544 196.3 544 320C544 443.7 443.7 544 320 544C196.3 544 96 443.7 96 320C96 196.3 196.3 96 320 96zM320 576C461.4 576 576 461.4 576 320C576 178.6 461.4 64 320 64C178.6 64 64 178.6 64 320C64 461.4 178.6 576 320 576zM272 240C272 231.2 264.8 224 256 224C247.2 224 240 231.2 240 240L240 336C240 380.2 275.8 416 320 416C364.2 416 400 380.2 400 336L400 240C400 231.2 392.8 224 384 224C375.2 224 368 231.2 368 240L368 336C368 362.5 346.5 384 320 384C293.5 384 272 362.5 272 336L272 240z"/></svg>