<svg xmlns="http://www.w3.org/2000/svg" viewBox="0 0 640 640"><!--! Font Awesome Pro 7.1.0 by @fontawesome - https://fontawesome.com License - https://fontawesome.com/license (Commercial License) Copyright 2025 Fonticons, Inc. --><path fill="currentColor" d="M544 320C544 196.3 443.7 96 320 96C196.3 96 96 196.3 96 320C96 443.7 196.3 544 320 544C443.7 544 544 443.7 544 320zM64 320C64 178.6 178.6 64 320 64C461.4 64 576 178.6 576 320C576 461.4 461.4 576 320 576C178.6 576 64 461.4 64 320zM256 224C256 188.7 284.7 160 320 160C355.3 160 384 188.7 384 224L384 320C384 355.3 355.3 384 320 384C284.7 384 256 355.3 256 320L256 224zM320 192C302.3 192 288 206.3 288 224L288 320C288 337.7 302.3 352 320 352C337.7 352 352 337.7 352 320L352 224C352 206.3 337.7 192 320 192zM208 288C216.8 288 224 295.2 224 304L224 320C224 373 267 416 320 416C373 416 416 373 416 320L416 304C416 295.2 423.2 288 432 288C440.8 288 448 295.2 448 304L448 320C448 385.3 399.1 439.1 336 447L336 464C336 472.8 328.8 480 320 480C311.2 480 304 472.8 304 464L304 447C240.9 439.1 192 385.3 192 320L192 304C192 295.2 199.2 288 208 288z"/></svg>