<svg xmlns="http://www.w3.org/2000/svg" viewBox="0 0 640 640"><!--! Font Awesome Pro 7.1.0 by @fontawesome - https://fontawesome.com License - https://fontawesome.com/license (Commercial License) Copyright 2025 Fonticons, Inc. --><path fill="currentColor" d="M320 96C443.7 96 544 196.3 544 320C544 443.7 443.7 544 320 544C196.3 544 96 443.7 96 320C96 196.3 196.3 96 320 96zM320 576C461.4 576 576 461.4 576 320C576 178.6 461.4 64 320 64C178.6 64 64 178.6 64 320C64 461.4 178.6 576 320 576zM357.7 176C349.8 176 342.2 179.1 336.6 184.7L216 305.4C210.9 310.5 208 317.5 208 324.7C208 339.8 220.2 352 235.3 352L274 352L253.4 426.1C248.1 445.1 262.4 464 282.2 464C290.1 464 297.7 460.9 303.3 455.3L424 334.6C429.1 329.5 432 322.5 432 315.3C432 300.2 419.8 288 404.7 288L366 288L386.6 213.9C391.9 194.9 377.6 176 357.8 176zM246.6 320L353.5 213.1L329.4 299.7C326.6 309.7 334.4 320 344.8 320L393.3 320L286.4 426.9L310.5 340.3C313.3 330.3 305.5 320 295.1 320L246.6 320z"/></svg>