<svg xmlns="http://www.w3.org/2000/svg" viewBox="0 0 640 640"><!--! Font Awesome Pro 7.1.0 by @fontawesome - https://fontawesome.com License - https://fontawesome.com/license (Commercial License) Copyright 2025 Fonticons, Inc. --><path fill="currentColor" d="M544 320C544 196.3 443.7 96 320 96C196.3 96 96 196.3 96 320C96 443.7 196.3 544 320 544C443.7 544 544 443.7 544 320zM64 320C64 178.6 178.6 64 320 64C461.4 64 576 178.6 576 320C576 461.4 461.4 576 320 576C178.6 576 64 461.4 64 320zM256 192C247.2 192 240 199.2 240 208L240 248L224 248C215.2 248 208 255.2 208 264C208 272.8 215.2 280 224 280L240 280L240 296L224 296C215.2 296 208 303.2 208 312C208 320.8 215.2 328 224 328L240 328L240 432C240 440.8 247.2 448 256 448C264.8 448 272 440.8 272 432L272 384L320 384C358.7 384 392.1 361 407.3 328L432 328C440.8 328 448 320.8 448 312C448 303.2 440.8 296 432 296L415.7 296C415.9 293.4 416 290.7 416 288C416 285.3 415.9 282.6 415.7 280L432 280C440.8 280 448 272.8 448 264C448 255.2 440.8 248 432 248L407.3 248C392.1 215 358.8 192 320 192L256 192zM370 248L272 248L272 224L320 224C340.2 224 358.2 233.4 370 248zM272 280L383.5 280C383.8 282.6 384 285.3 384 288C384 290.7 383.8 293.4 383.5 296L272 296L272 280zM370 328C358.3 342.6 340.3 352 320 352L272 352L272 328L370 328z"/></svg>