<svg xmlns="http://www.w3.org/2000/svg" viewBox="0 0 640 640"><!--! Font Awesome Pro 7.1.0 by @fontawesome - https://fontawesome.com License - https://fontawesome.com/license (Commercial License) Copyright 2025 Fonticons, Inc. --><path fill="currentColor" d="M320 96C443.7 96 544 196.3 544 320C544 443.7 443.7 544 320 544C196.3 544 96 443.7 96 320C96 196.3 196.3 96 320 96zM320 576C461.4 576 576 461.4 576 320C576 178.6 461.4 64 320 64C178.6 64 64 178.6 64 320C64 461.4 178.6 576 320 576zM268.5 230C263 223.1 252.9 222 246 227.5C239.1 233 238 243.1 243.5 250L299.5 320L243.5 390C238 396.9 239.1 407 246 412.5C252.9 418 263 416.9 268.5 410L320 345.6L371.5 410C377 416.9 387.1 418 394 412.5C400.9 407 402 396.9 396.5 390L340.5 320L396.5 250C402 243.1 400.9 233 394 227.5C387.1 222 377 223.1 371.5 230L320 294.4L268.5 230z"/></svg>