<svg xmlns="http://www.w3.org/2000/svg" viewBox="0 0 640 640"><!--! Font Awesome Pro 7.1.0 by @fontawesome - https://fontawesome.com License - https://fontawesome.com/license (Commercial License) Copyright 2025 Fonticons, Inc. --><path fill="currentColor" d="M320 96C443.7 96 544 196.3 544 320C544 443.7 443.7 544 320 544C196.3 544 96 443.7 96 320C96 196.3 196.3 96 320 96zM320 576C461.4 576 576 461.4 576 320C576 178.6 461.4 64 320 64C178.6 64 64 178.6 64 320C64 461.4 178.6 576 320 576zM256 356.7L256 256L356.7 256L332 280.7C325.8 286.9 325.8 297.1 332 303.3L396.7 368L368 396.7L303.3 332C300.3 329 296.2 327.3 292 327.3C287.8 327.3 283.7 329 280.7 332L256 356.7zM248 224C234.7 224 224 234.7 224 248L224 376C224 397.2 250 408 265 393L292 366L351 425C360.4 434.4 375.6 434.4 384.9 425L424.9 385C434.3 375.6 434.3 360.4 424.9 351.1L365.9 292.1L392.9 265.1C407.9 250.1 397.2 224.1 375.9 224.1L247.9 224.1z"/></svg>