<svg xmlns="http://www.w3.org/2000/svg" viewBox="0 0 640 640"><!--! Font Awesome Pro 7.1.0 by @fontawesome - https://fontawesome.com License - https://fontawesome.com/license (Commercial License) Copyright 2025 Fonticons, Inc. --><path fill="currentColor" d="M320 96C443.7 96 544 196.3 544 320C544 443.7 443.7 544 320 544C196.3 544 96 443.7 96 320C96 196.3 196.3 96 320 96zM320 576C461.4 576 576 461.4 576 320C576 178.6 461.4 64 320 64C178.6 64 64 178.6 64 320C64 461.4 178.6 576 320 576zM256 224C247.2 224 240 231.2 240 240L240 400C240 408.8 247.2 416 256 416L320 416C373 416 416 373 416 320C416 267 373 224 320 224L256 224zM320 384L272 384L272 256L320 256C355.3 256 384 284.7 384 320C384 355.3 355.3 384 320 384z"/></svg>