<svg xmlns="http://www.w3.org/2000/svg" viewBox="0 0 640 640"><!--! Font Awesome Pro 7.1.0 by @fontawesome - https://fontawesome.com License - https://fontawesome.com/license (Commercial License) Copyright 2025 Fonticons, Inc. --><path fill="currentColor" d="M320 96C443.7 96 544 196.3 544 320C544 443.7 443.7 544 320 544C196.3 544 96 443.7 96 320C96 196.3 196.3 96 320 96zM320 576C461.4 576 576 461.4 576 320C576 178.6 461.4 64 320 64C178.6 64 64 178.6 64 320C64 461.4 178.6 576 320 576zM256 224C247.2 224 240 231.2 240 240C240 248.8 247.2 256 256 256L350.7 256L243.5 390C239.7 394.8 238.9 401.4 241.6 406.9C244.3 412.4 249.9 416 256 416L384 416C392.8 416 400 408.8 400 400C400 391.2 392.8 384 384 384L289.3 384L396.5 250C400.3 245.2 401.1 238.6 398.4 233.1C395.7 227.6 390.2 224 384 224L256 224z"/></svg>