<svg xmlns="http://www.w3.org/2000/svg" viewBox="0 0 640 640"><!--! Font Awesome Pro 7.1.0 by @fontawesome - https://fontawesome.com License - https://fontawesome.com/license (Commercial License) Copyright 2025 Fonticons, Inc. --><path fill="currentColor" d="M320 96C443.7 96 544 196.3 544 320C544 443.7 443.7 544 320 544C196.3 544 96 443.7 96 320C96 196.3 196.3 96 320 96zM320 576C461.4 576 576 461.4 576 320C576 178.6 461.4 64 320 64C178.6 64 64 178.6 64 320C64 461.4 178.6 576 320 576zM343.8 223.9L316.3 288L240 288C231.2 288 224 295.2 224 304C224 312.8 231.2 320 240 320L302.6 320L266.8 403.5C263.6 411.1 256.1 416 247.9 416L224 416C215.2 416 208 423.2 208 432C208 440.8 215.2 448 224 448L247.9 448C268.9 448 287.9 435.5 296.2 416.1L337.4 320L400 320C408.8 320 416 312.8 416 304C416 295.2 408.8 288 400 288L351.1 288L373.2 236.5C376.4 228.9 383.9 224 392.1 224L416 224C424.8 224 432 216.8 432 208C432 199.2 424.8 192 416 192L392.1 192C371.1 192 352.1 204.5 343.8 223.9z"/></svg>