<svg xmlns="http://www.w3.org/2000/svg" viewBox="0 0 640 640"><!--! Font Awesome Pro 7.1.0 by @fontawesome - https://fontawesome.com License - https://fontawesome.com/license (Commercial License) Copyright 2025 Fonticons, Inc. --><path fill="currentColor" d="M320 96C443.7 96 544 196.3 544 320C544 443.7 443.7 544 320 544C196.3 544 96 443.7 96 320C96 196.3 196.3 96 320 96zM320 576C461.4 576 576 461.4 576 320C576 178.6 461.4 64 320 64C178.6 64 64 178.6 64 320C64 461.4 178.6 576 320 576zM320 184C320 175.2 312.8 168 304 168C295.2 168 288 175.2 288 184L288 197.2C234.9 212.8 196.1 261.9 196.1 320C196.1 358.2 212.9 392.5 239.4 416L224 416C215.2 416 208 423.2 208 432C208 440.8 215.2 448 224 448L416 448C424.8 448 432 440.8 432 432C432 423.2 424.8 416 416 416L324.1 416C271.1 416 228.1 373 228.1 320C228.1 279.8 252.9 245.3 288 231L288 280C288 288.8 295.2 296 304 296C312.8 296 320 288.8 320 280L320 224.1C321.4 224 322.7 224 324.1 224C328.1 224 332.1 224.2 336 224.7L336 280C336 288.8 343.2 296 352 296C360.8 296 368 288.8 368 280L368 234.6C393.5 247.7 412.3 271.9 418.2 300.8C420 309.5 428.4 315.1 437.1 313.3C445.8 311.5 451.4 303.1 449.6 294.4C440.7 250.5 409.3 214.8 368 199.7L368 184C368 175.2 360.8 168 352 168C343.2 168 336 175.2 336 184L336 192.5C332.1 192.1 328.1 192 324.1 192C322.7 192 321.3 192 320 192.1L320 184z"/></svg>