<svg xmlns="http://www.w3.org/2000/svg" viewBox="0 0 640 640"><!--! Font Awesome Pro 7.1.0 by @fontawesome - https://fontawesome.com License - https://fontawesome.com/license (Commercial License) Copyright 2025 Fonticons, Inc. --><path fill="currentColor" d="M320 96C443.7 96 544 196.3 544 320C544 443.7 443.7 544 320 544C196.3 544 96 443.7 96 320C96 196.3 196.3 96 320 96zM320 576C461.4 576 576 461.4 576 320C576 178.6 461.4 64 320 64C178.6 64 64 178.6 64 320C64 461.4 178.6 576 320 576zM272 224C263.2 224 256 231.2 256 240C256 248.8 263.2 256 272 256L354.5 256L266.6 391.3C261.8 398.7 263.9 408.6 271.3 413.4C278.7 418.2 288.6 416.1 293.4 408.7L397.4 248.7C400.6 243.8 400.8 237.5 398 232.3C395.2 227.1 389.9 224 384 224L272 224z"/></svg>