<svg xmlns="http://www.w3.org/2000/svg" viewBox="0 0 640 640"><!--! Font Awesome Pro 7.1.0 by @fontawesome - https://fontawesome.com License - https://fontawesome.com/license (Commercial License) Copyright 2025 Fonticons, Inc. --><path fill="currentColor" d="M320 96C196.3 96 96 196.3 96 320C96 443.7 196.3 544 320 544C443.7 544 544 443.7 544 320C544 196.3 443.7 96 320 96zM320 576C178.6 576 64 461.4 64 320C64 178.6 178.6 64 320 64C461.4 64 576 178.6 576 320C576 461.4 461.4 576 320 576zM256 283.3L256 384L356.7 384L332 359.3C325.8 353.1 325.8 342.9 332 336.7L396.7 272L368 243.3L303.3 308C300.3 311 296.2 312.7 292 312.7C287.8 312.7 283.7 311 280.7 308L256 283.3zM248 416C234.7 416 224 405.3 224 392L224 264C224 242.8 250 232 265 247L292 274L351 215C360.4 205.6 375.6 205.6 384.9 215L424.9 255C434.3 264.4 434.3 279.6 424.9 288.9L365.9 347.9L392.9 374.9C407.9 389.9 397.2 415.9 375.9 415.9L247.9 415.9z"/></svg>