<svg xmlns="http://www.w3.org/2000/svg" viewBox="0 0 640 640"><!--! Font Awesome Pro 7.1.0 by @fontawesome - https://fontawesome.com License - https://fontawesome.com/license (Commercial License) Copyright 2025 Fonticons, Inc. --><path fill="currentColor" d="M320 96C443.7 96 544 196.3 544 320C544 443.7 443.7 544 320 544C196.3 544 96 443.7 96 320C96 196.3 196.3 96 320 96zM320 576C461.4 576 576 461.4 576 320C576 178.6 461.4 64 320 64C178.6 64 64 178.6 64 320C64 461.4 178.6 576 320 576zM390.4 214.3L392.4 215.1C413.1 223.1 427.3 243.2 423.2 264.8C408.3 345.1 345 408.3 264.7 423.3C243.1 427.3 223 413.2 215 392.5L214.2 390.5C211.1 382.4 215 373.3 223 370L244.4 361.1C250.8 358.4 258.3 360.2 262.8 365.5L274.1 378.8C278.8 384.3 286.6 386 293.2 382.9C332.6 364.2 364.1 331.7 381.4 291.5C384.2 285 382.4 277.5 377 273L365.2 263C359.9 258.5 358.1 251.1 360.8 244.6L369.7 223.2C373 215.2 382.2 211.3 390.2 214.4zM340.3 210.8L331.4 232.2C323.4 251.5 328.7 273.8 344.7 287.3L347 289.3C334 313.8 314.3 334.3 290.3 348.2L287.3 344.7C273.8 328.7 251.5 323.4 232.2 331.4L210.8 340.3C186.8 350.3 175.1 377.7 184.5 401.9L185.3 403.9C197.4 435.2 230.3 462.1 270.7 454.6C364 437.3 437.4 363.8 454.8 270.5C462.3 230.1 435.4 197.2 404.1 185.1L402.1 184.3C377.8 174.9 350.5 186.6 340.5 210.6z"/></svg>