<svg xmlns="http://www.w3.org/2000/svg" viewBox="0 0 640 640"><!--! Font Awesome Pro 7.1.0 by @fontawesome - https://fontawesome.com License - https://fontawesome.com/license (Commercial License) Copyright 2025 Fonticons, Inc. --><path fill="currentColor" d="M320 96C443.7 96 544 196.3 544 320C544 443.7 443.7 544 320 544C196.3 544 96 443.7 96 320C96 196.3 196.3 96 320 96zM320 576C461.4 576 576 461.4 576 320C576 178.6 461.4 64 320 64C178.6 64 64 178.6 64 320C64 461.4 178.6 576 320 576zM416 192C407.2 192 400 199.2 400 208L400 224.3C373 227.4 352 250.3 352 278.1C352 300.2 365.5 320.2 386 328.4L418 341.2C426.4 344.6 431.9 352.7 431.9 361.8C431.9 374 422 384 409.7 384L376 384C367.2 384 360 391.2 360 400C360 408.8 367.2 416 376 416L400 416L400 432C400 440.8 407.2 448 416 448C424.8 448 432 440.8 432 432L432 411.3C450.9 402.8 464 383.9 464 361.9C464 339.8 450.5 319.8 430 311.6L398 298.8C389.6 295.4 384.1 287.3 384.1 278.2C384.1 266 394 256 406.3 256L440.1 256C448.9 256 456.1 248.8 456.1 240C456.1 231.2 448.9 224 440.1 224L432.1 224L432.1 208C432.1 199.2 424.9 192 416.1 192zM192 208C183.2 208 176 215.2 176 224L176 416C176 424.8 183.2 432 192 432C200.8 432 208 424.8 208 416L208 352L245.2 352L273.2 421.9C276.5 430.1 285.8 434.1 294 430.8C302.2 427.5 306.2 418.2 302.9 410L277.2 345.8C302.4 334.6 320 309.3 320 280C320 240.2 287.8 208 248 208L192 208zM248 320L208 320L208 240L248 240C270.1 240 288 257.9 288 280C288 302.1 270.1 320 248 320z"/></svg>