<svg xmlns="http://www.w3.org/2000/svg" viewBox="0 0 640 640"><!--! Font Awesome Pro 7.1.0 by @fontawesome - https://fontawesome.com License - https://fontawesome.com/license (Commercial License) Copyright 2025 Fonticons, Inc. --><path fill="currentColor" d="M320 96C443.7 96 544 196.3 544 320C544 443.7 443.7 544 320 544C196.3 544 96 443.7 96 320C96 196.3 196.3 96 320 96zM320 576C461.4 576 576 461.4 576 320C576 178.6 461.4 64 320 64C178.6 64 64 178.6 64 320C64 461.4 178.6 576 320 576zM288 224C279.2 224 272 231.2 272 240C272 248.8 279.2 256 288 256L304 256L304 384L272 384C263.2 384 256 391.2 256 400C256 408.8 263.2 416 272 416L368 416C376.8 416 384 408.8 384 400C384 391.2 376.8 384 368 384L336 384L336 240C336 231.2 328.8 224 320 224L288 224z"/></svg>