<svg xmlns="http://www.w3.org/2000/svg" viewBox="0 0 640 640"><!--! Font Awesome Pro 7.1.0 by @fontawesome - https://fontawesome.com License - https://fontawesome.com/license (Commercial License) Copyright 2025 Fonticons, Inc. --><path fill="currentColor" d="M320 96C443.7 96 544 196.3 544 320C544 443.7 443.7 544 320 544C196.3 544 96 443.7 96 320C96 196.3 196.3 96 320 96zM320 576C461.4 576 576 461.4 576 320C576 178.6 461.4 64 320 64C178.6 64 64 178.6 64 320C64 461.4 178.6 576 320 576zM247.3 296L249.2 300.8C251.6 307 253.1 313.5 253.5 320L240 320C231.2 320 224 327.2 224 336C224 344.8 231.2 352 240 352L247.8 352C246.1 355.8 244.1 359.4 241.6 362.9L210.8 406.9C207.4 411.8 207 418.2 209.7 423.5C212.4 428.8 218 432 224 432L400 432C408.8 432 416 424.8 416 416C416 407.2 408.8 400 400 400L254.7 400L267.9 381.2C274.2 372.2 278.9 362.3 281.8 352L368 352C376.8 352 384 344.8 384 336C384 327.2 376.8 320 368 320L285.5 320C285.1 311.9 283.7 303.9 281.3 296L368 296C376.8 296 384 288.8 384 280C384 271.2 376.8 264 368 264L270.2 264C265.3 235.5 287.1 208 317.6 208L318.9 208C335.9 208 352.2 214.7 364.2 226.7L372.8 235.3C379 241.5 389.2 241.5 395.4 235.3C401.6 229.1 401.6 218.9 395.4 212.7L386.8 204.1C368.8 186.1 344.4 176 318.9 176L317.6 176C268.8 176 233.2 218.6 238 264.1C230.2 265.1 224.1 271.8 224.1 280C224.1 288.8 231.3 296 240.1 296L247.4 296z"/></svg>