<svg xmlns="http://www.w3.org/2000/svg" viewBox="0 0 640 640"><!--! Font Awesome Pro 7.1.0 by @fontawesome - https://fontawesome.com License - https://fontawesome.com/license (Commercial License) Copyright 2025 Fonticons, Inc. --><path fill="currentColor" d="M320 96C443.7 96 544 196.3 544 320C544 443.7 443.7 544 320 544C196.3 544 96 443.7 96 320C96 196.3 196.3 96 320 96zM320 576C461.4 576 576 461.4 576 320C576 178.6 461.4 64 320 64C178.6 64 64 178.6 64 320C64 461.4 178.6 576 320 576zM248 320C248 280.2 280.2 248 320 248C338.5 248 355.2 254.9 368 266.3C374.6 272.2 384.7 271.6 390.6 265C396.5 258.4 395.9 248.3 389.3 242.4C370.9 225.9 346.6 215.9 320 215.9C262.6 215.9 216 262.5 216 319.9C216 377.3 262.6 423.9 320 423.9C377.4 423.9 424 377.3 424 319.9C424 311.1 416.8 303.9 408 303.9L336 303.9C327.2 303.9 320 311.1 320 319.9C320 328.7 327.2 335.9 336 335.9L390.2 335.9C382.9 368 354.2 391.9 320 391.9C280.2 391.9 248 359.7 248 319.9z"/></svg>