<svg xmlns="http://www.w3.org/2000/svg" viewBox="0 0 640 640"><!--! Font Awesome Pro 7.1.0 by @fontawesome - https://fontawesome.com License - https://fontawesome.com/license (Commercial License) Copyright 2025 Fonticons, Inc. --><path fill="currentColor" d="M544 320C544 196.3 443.7 96 320 96C196.3 96 96 196.3 96 320C96 443.7 196.3 544 320 544C443.7 544 544 443.7 544 320zM64 320C64 178.6 178.6 64 320 64C461.4 64 576 178.6 576 320C576 461.4 461.4 576 320 576C178.6 576 64 461.4 64 320zM224 208L224 333.8L293.8 275.7C300.6 270 310.7 271 316.3 277.7C321.9 284.4 321 294.6 314.3 300.2L273.2 334.4L318.4 424.7C322.4 432.6 319.1 442.2 311.2 446.2C303.3 450.2 293.7 446.9 289.7 439L247.9 355.4L224 375.3L224 431.8C224 440.6 216.8 447.8 208 447.8C199.2 447.8 192 440.6 192 431.8L192 207.8C192 199 199.2 191.8 208 191.8C216.8 191.8 224 199 224 207.8zM418.9 320C410.5 320 402.4 323 396.1 328.5C388.4 335.1 384 344.8 384 354.9L384 432C384 440.8 376.8 448 368 448C359.2 448 352 440.8 352 432L352 304C352 295.2 359.2 288 368 288C374.9 288 380.8 292.3 383 298.4C393.7 291.6 406.1 288 418.9 288L432 288C440.8 288 448 295.2 448 304C448 312.8 440.8 320 432 320L418.9 320zM432 416C440.8 416 448 423.2 448 432C448 440.8 440.8 448 432 448C423.2 448 416 440.8 416 432C416 423.2 423.2 416 432 416z"/></svg>