<svg xmlns="http://www.w3.org/2000/svg" viewBox="0 0 640 640"><!--! Font Awesome Pro 7.1.0 by @fontawesome - https://fontawesome.com License - https://fontawesome.com/license (Commercial License) Copyright 2025 Fonticons, Inc. --><path fill="currentColor" d="M320 96C443.7 96 544 196.3 544 320C544 443.7 443.7 544 320 544C196.3 544 96 443.7 96 320C96 196.3 196.3 96 320 96zM320 576C461.4 576 576 461.4 576 320C576 178.6 461.4 64 320 64C178.6 64 64 178.6 64 320C64 461.4 178.6 576 320 576zM256 240L256 400C256 408.8 263.2 416 272 416L344 416C374.9 416 400 390.9 400 360C400 340 389.5 322.4 373.6 312.5C380.1 303.3 384 292.1 384 280C384 249.1 358.9 224 328 224L272 224C263.2 224 256 231.2 256 240zM352 280C352 293.3 341.3 304 328 304L288 304L288 256L328 256C341.3 256 352 266.7 352 280zM288 384L288 336L344 336C357.3 336 368 346.7 368 360C368 373.3 357.3 384 344 384L288 384z"/></svg>