<svg xmlns="http://www.w3.org/2000/svg" viewBox="0 0 640 640"><!--! Font Awesome Pro 7.1.0 by @fontawesome - https://fontawesome.com License - https://fontawesome.com/license (Commercial License) Copyright 2025 Fonticons, Inc. --><path fill="currentColor" d="M320 96C443.7 96 544 196.3 544 320C544 443.7 443.7 544 320 544C196.3 544 96 443.7 96 320C96 196.3 196.3 96 320 96zM320 576C461.4 576 576 461.4 576 320C576 178.6 461.4 64 320 64C178.6 64 64 178.6 64 320C64 461.4 178.6 576 320 576zM384 192C401.7 192 416 206.3 416 224C416 241.7 401.7 256 384 256C366.3 256 352 241.7 352 224C352 206.3 366.3 192 384 192zM384 288C419.3 288 448 259.3 448 224C448 188.7 419.3 160 384 160C348.7 160 320 188.7 320 224C320 230.3 320.9 236.4 322.6 242.2L268.9 274.4C257.3 263 241.5 256 224 256C188.7 256 160 284.7 160 320C160 355.3 188.7 384 224 384C241.5 384 257.4 377 268.9 365.6L322.6 397.8C320.9 403.6 320 409.7 320 416C320 451.3 348.7 480 384 480C419.3 480 448 451.3 448 416C448 380.7 419.3 352 384 352C366.5 352 350.6 359 339.1 370.4L285.4 338.2C287.1 332.4 288 326.3 288 320C288 313.7 287.1 307.6 285.4 301.8L339.1 269.6C350.6 281 366.5 288 384 288zM384 384C401.7 384 416 398.3 416 416C416 433.7 401.7 448 384 448C366.3 448 352 433.7 352 416C352 398.3 366.3 384 384 384zM192 320C192 302.3 206.3 288 224 288C241.7 288 256 302.3 256 320C256 337.7 241.7 352 224 352C206.3 352 192 337.7 192 320z"/></svg>