<svg xmlns="http://www.w3.org/2000/svg" viewBox="0 0 640 640"><!--! Font Awesome Pro 7.1.0 by @fontawesome - https://fontawesome.com License - https://fontawesome.com/license (Commercial License) Copyright 2025 Fonticons, Inc. --><path fill="currentColor" d="M320 544C443.7 544 544 443.7 544 320C544 196.3 443.7 96 320 96C196.3 96 96 196.3 96 320C96 443.7 196.3 544 320 544zM320 64C461.4 64 576 178.6 576 320C576 461.4 461.4 576 320 576C178.6 576 64 461.4 64 320C64 178.6 178.6 64 320 64zM384 368L384 278.6L251.3 411.3C245.1 417.5 234.9 417.5 228.7 411.3C222.5 405.1 222.5 394.9 228.7 388.7L361.4 256L272 256C263.2 256 256 248.8 256 240C256 231.2 263.2 224 272 224L400 224C408.8 224 416 231.2 416 240L416 368C416 376.8 408.8 384 400 384C391.2 384 384 376.8 384 368z"/></svg>