<svg xmlns="http://www.w3.org/2000/svg" viewBox="0 0 640 640"><!--! Font Awesome Pro 7.1.0 by @fontawesome - https://fontawesome.com License - https://fontawesome.com/license (Commercial License) Copyright 2025 Fonticons, Inc. --><path fill="currentColor" d="M544 320C544 196.3 443.7 96 320 96C196.3 96 96 196.3 96 320C96 443.7 196.3 544 320 544C443.7 544 544 443.7 544 320zM64 320C64 178.6 178.6 64 320 64C461.4 64 576 178.6 576 320C576 461.4 461.4 576 320 576C178.6 576 64 461.4 64 320zM186.2 291.3C179.6 297.2 169.5 296.7 163.6 290.1C157.7 283.5 158.2 273.4 164.8 267.5C205.9 230.5 260.4 207.9 320 207.9C379.6 207.9 434.1 230.5 475.2 267.5C481.8 273.4 482.3 283.5 476.4 290.1C470.5 296.7 460.4 297.2 453.8 291.3C418.4 259.4 371.5 240 320 240C268.5 240 221.6 259.4 186.2 291.4zM320 408C333.3 408 344 418.7 344 432C344 445.3 333.3 456 320 456C306.7 456 296 445.3 296 432C296 418.7 306.7 408 320 408zM320 336C295.2 336 272.7 345.4 255.6 360.8C249 366.7 238.9 366.2 233 359.7C227.1 353.2 227.6 343 234.1 337.1C256.8 316.6 286.9 304.1 319.9 304.1C352.9 304.1 383 316.6 405.7 337.1C412.3 343 412.8 353.1 406.8 359.7C400.8 366.3 390.8 366.8 384.2 360.8C367.2 345.4 344.6 336 319.8 336z"/></svg>