<svg xmlns="http://www.w3.org/2000/svg" viewBox="0 0 640 640"><!--! Font Awesome Pro 7.1.0 by @fontawesome - https://fontawesome.com License - https://fontawesome.com/license (Commercial License) Copyright 2025 Fonticons, Inc. --><path fill="currentColor" d="M320 96C443.7 96 544 196.3 544 320C544 443.7 443.7 544 320 544C196.3 544 96 443.7 96 320C96 196.3 196.3 96 320 96zM320 576C461.4 576 576 461.4 576 320C576 178.6 461.4 64 320 64C178.6 64 64 178.6 64 320C64 461.4 178.6 576 320 576zM224 208C215.2 208 208 215.2 208 224L208 416C208 424.8 215.2 432 224 432C232.8 432 240 424.8 240 416L240 240L304 240C321.7 240 336 254.3 336 272L336 336C336 344.8 343.2 352 352 352C360.8 352 368 344.8 368 336L368 272C368 236.7 339.3 208 304 208L224 208zM432 224C432 215.2 424.8 208 416 208C407.2 208 400 215.2 400 224L400 368C400 385.7 385.7 400 368 400L304 400L304 304C304 295.2 296.8 288 288 288C279.2 288 272 295.2 272 304L272 416C272 420.2 273.7 424.3 276.7 427.3C279.7 430.3 283.8 432 288 432L368 432C403.3 432 432 403.3 432 368L432 224z"/></svg>