<svg xmlns="http://www.w3.org/2000/svg" viewBox="0 0 640 640"><!--! Font Awesome Pro 7.1.0 by @fontawesome - https://fontawesome.com License - https://fontawesome.com/license (Commercial License) Copyright 2025 Fonticons, Inc. --><path fill="currentColor" d="M320 96C443.7 96 544 196.3 544 320C544 443.7 443.7 544 320 544C196.3 544 96 443.7 96 320C96 196.3 196.3 96 320 96zM320 576C461.4 576 576 461.4 576 320C576 178.6 461.4 64 320 64C178.6 64 64 178.6 64 320C64 461.4 178.6 576 320 576zM272 192C263.2 192 256 199.2 256 208L256 276.5L218.9 288.9C210.5 291.7 206 300.8 208.8 309.1C211.6 317.4 220.7 322 229 319.2L255.9 310.2L255.9 340.5L218.8 352.9C210.4 355.7 205.9 364.8 208.7 373.1C211.5 381.4 220.6 386 228.9 383.2L255.8 374.2L255.8 432C255.8 440.8 263 448 271.8 448L335.8 448C388.8 448 431.8 405 431.8 352C431.8 343.2 424.6 336 415.8 336C407 336 399.8 343.2 399.8 352C399.8 387.3 371.1 416 335.8 416L287.8 416L287.8 363.5L372.9 335.1C381.3 332.3 385.8 323.2 383 314.9C380.2 306.6 371.1 302 362.8 304.8L287.9 329.8L287.9 299.5L373 271.1C381.4 268.3 385.9 259.2 383.1 250.9C380.3 242.6 371.2 238 362.9 240.8L288 265.8L288 208C288 199.2 280.8 192 272 192z"/></svg>