<svg xmlns="http://www.w3.org/2000/svg" viewBox="0 0 640 640"><!--! Font Awesome Pro 7.1.0 by @fontawesome - https://fontawesome.com License - https://fontawesome.com/license (Commercial License) Copyright 2025 Fonticons, Inc. --><path fill="currentColor" d="M320 96C443.7 96 544 196.3 544 320C544 443.7 443.7 544 320 544C196.3 544 96 443.7 96 320C96 196.3 196.3 96 320 96zM320 576C461.4 576 576 461.4 576 320C576 178.6 461.4 64 320 64C178.6 64 64 178.6 64 320C64 461.4 178.6 576 320 576zM253 230.7C249 225 241.7 222.6 235.1 224.8C228.5 227 224 233 224 240L224 400C224 408.8 231.2 416 240 416C248.8 416 256 408.8 256 400L256 289.9L307 361.3C310 365.5 314.9 368 320 368C325.1 368 330 365.5 333 361.3L384 289.9L384 400C384 408.8 391.2 416 400 416C408.8 416 416 408.8 416 400L416 240C416 233 411.5 226.9 404.9 224.8C398.3 222.7 391 225 387 230.7L320 324.5L253 230.7z"/></svg>