<svg xmlns="http://www.w3.org/2000/svg" viewBox="0 0 640 640"><!--! Font Awesome Pro 7.1.0 by @fontawesome - https://fontawesome.com License - https://fontawesome.com/license (Commercial License) Copyright 2025 Fonticons, Inc. --><path fill="currentColor" d="M320 96C443.7 96 544 196.3 544 320C544 443.7 443.7 544 320 544C196.3 544 96 443.7 96 320C96 196.3 196.3 96 320 96zM320 576C461.4 576 576 461.4 576 320C576 178.6 461.4 64 320 64C178.6 64 64 178.6 64 320C64 461.4 178.6 576 320 576zM268.5 230C264.3 224.7 257.1 222.6 250.7 224.9C244.3 227.2 240 233.2 240 240L240 400C240 408.8 247.2 416 256 416C264.8 416 272 408.8 272 400L272 285.6L371.5 410C375.7 415.3 382.9 417.4 389.3 415.1C395.7 412.8 400 406.8 400 400L400 240C400 231.2 392.8 224 384 224C375.2 224 368 231.2 368 240L368 354.4L268.5 230z"/></svg>