<svg xmlns="http://www.w3.org/2000/svg" viewBox="0 0 640 640"><!--! Font Awesome Pro 7.1.0 by @fontawesome - https://fontawesome.com License - https://fontawesome.com/license (Commercial License) Copyright 2025 Fonticons, Inc. --><path fill="currentColor" d="M320 96C443.7 96 544 196.3 544 320C544 443.7 443.7 544 320 544C196.3 544 96 443.7 96 320C96 196.3 196.3 96 320 96zM320 576C461.4 576 576 461.4 576 320C576 178.6 461.4 64 320 64C178.6 64 64 178.6 64 320C64 461.4 178.6 576 320 576zM390.5 161.4C382.4 157.8 373 161.4 369.4 169.5L342.9 229.1C334.1 232.9 326.3 238.6 320 245.6C308.3 232.3 291.1 223.9 272 223.9C259.8 223.9 248.3 227.3 238.6 233.3C236.1 227.8 230.5 223.9 224 223.9C215.2 223.9 208 231.1 208 239.9L208 303.9L208 303.9L208 399.9C208 408.7 215.2 415.9 224 415.9C232.8 415.9 240 408.7 240 399.9L240 287.9C240 270.2 254.3 255.9 272 255.9C289.5 255.9 303.8 270 304 287.5L304 287.9L304 316.5L241.4 457.4C237.8 465.5 241.4 474.9 249.5 478.5C257.6 482.1 267 478.5 270.6 470.4L304 395.3L304 399.9C304 408.7 311.2 415.9 320 415.9C328.8 415.9 336 408.7 336 399.9L336 323.3L365.9 256C366.6 256 367.3 255.9 368 255.9C385.7 255.9 400 270.2 400 287.9L400 399.9C400 408.7 407.2 415.9 416 415.9C424.8 415.9 432 408.7 432 399.9L432 287.9C432 256.6 409.5 230.5 379.7 225L398.6 182.4C402.2 174.3 398.6 164.9 390.5 161.3z"/></svg>