<svg xmlns="http://www.w3.org/2000/svg" viewBox="0 0 640 640"><!--! Font Awesome Pro 7.1.0 by @fontawesome - https://fontawesome.com License - https://fontawesome.com/license (Commercial License) Copyright 2025 Fonticons, Inc. --><path fill="currentColor" d="M320 96C443.7 96 544 196.3 544 320C544 443.7 443.7 544 320 544C196.3 544 96 443.7 96 320C96 196.3 196.3 96 320 96zM320 576C461.4 576 576 461.4 576 320C576 178.6 461.4 64 320 64C178.6 64 64 178.6 64 320C64 461.4 178.6 576 320 576zM320 224C275.8 224 240 259.8 240 304L240 336C240 380.2 275.8 416 320 416C364.2 416 400 380.2 400 336L400 304C400 259.8 364.2 224 320 224zM272 304C272 277.5 293.5 256 320 256C346.5 256 368 277.5 368 304L368 336C368 362.5 346.5 384 320 384C293.5 384 272 362.5 272 336L272 304z"/></svg>