<svg xmlns="http://www.w3.org/2000/svg" viewBox="0 0 640 640"><!--! Font Awesome Pro 7.1.0 by @fontawesome - https://fontawesome.com License - https://fontawesome.com/license (Commercial License) Copyright 2025 Fonticons, Inc. --><path fill="currentColor" d="M320 96C443.7 96 544 196.3 544 320C544 443.7 443.7 544 320 544C196.3 544 96 443.7 96 320C96 196.3 196.3 96 320 96zM320 576C461.4 576 576 461.4 576 320C576 178.6 461.4 64 320 64C178.6 64 64 178.6 64 320C64 461.4 178.6 576 320 576zM304 184L304 193.1C249.7 200.9 208 247.5 208 304L208 416C208 424.8 215.2 432 224 432C232.8 432 240 424.8 240 416L240 304C240 265.3 267.5 233 304 225.6L304 416C304 424.8 311.2 432 320 432C328.8 432 336 424.8 336 416L336 225.6C372.5 233 400 265.3 400 304L400 416C400 424.8 407.2 432 416 432C424.8 432 432 424.8 432 416L432 304C432 247.6 390.3 200.9 336 193.1L336 184C336 175.2 328.8 168 320 168C311.2 168 304 175.2 304 184z"/></svg>