<svg xmlns="http://www.w3.org/2000/svg" viewBox="0 0 640 640"><!--! Font Awesome Pro 7.1.0 by @fontawesome - https://fontawesome.com License - https://fontawesome.com/license (Commercial License) Copyright 2025 Fonticons, Inc. --><path fill="currentColor" d="M320 96C443.7 96 544 196.3 544 320C544 443.7 443.7 544 320 544C196.3 544 96 443.7 96 320C96 196.3 196.3 96 320 96zM320 576C461.4 576 576 461.4 576 320C576 178.6 461.4 64 320 64C178.6 64 64 178.6 64 320C64 461.4 178.6 576 320 576zM360 240C360 231.2 352.8 224 344 224L312 224C276.7 224 248 252.7 248 288L248 352C248 387.3 276.7 416 312 416L328 416C363.3 416 392 387.3 392 352C392 316.7 363.3 288 328 288L312 288C300.3 288 289.4 291.1 280 296.6L280 288C280 270.3 294.3 256 312 256L344 256C352.8 256 360 248.8 360 240zM312 384C294.3 384 280 369.7 280 352C280 334.3 294.3 320 312 320L328 320C345.7 320 360 334.3 360 352C360 369.7 345.7 384 328 384L312 384z"/></svg>