<svg xmlns="http://www.w3.org/2000/svg" viewBox="0 0 640 640"><!--! Font Awesome Pro 7.1.0 by @fontawesome - https://fontawesome.com License - https://fontawesome.com/license (Commercial License) Copyright 2025 Fonticons, Inc. --><path fill="currentColor" d="M320 96C443.7 96 544 196.3 544 320C544 443.7 443.7 544 320 544C196.3 544 96 443.7 96 320C96 196.3 196.3 96 320 96zM320 576C461.4 576 576 461.4 576 320C576 178.6 461.4 64 320 64C178.6 64 64 178.6 64 320C64 461.4 178.6 576 320 576zM394.5 252C401.1 246.2 401.8 236.1 396 229.4C390.2 222.7 380.1 222.1 373.4 227.9L272 316.7L272 240C272 231.2 264.8 224 256 224C247.2 224 240 231.2 240 240L240 400C240 408.8 247.2 416 256 416C264.8 416 272 408.8 272 400L272 359.3L302.1 333L372.1 410.8C378 417.4 388.1 417.9 394.7 412C401.3 406.1 401.8 396 395.9 389.4L326.2 312L394.5 252.2z"/></svg>