<svg xmlns="http://www.w3.org/2000/svg" viewBox="0 0 640 640"><!--! Font Awesome Pro 7.1.0 by @fontawesome - https://fontawesome.com License - https://fontawesome.com/license (Commercial License) Copyright 2025 Fonticons, Inc. --><path fill="currentColor" d="M320 96C443.7 96 544 196.3 544 320C544 443.7 443.7 544 320 544C196.3 544 96 443.7 96 320C96 196.3 196.3 96 320 96zM320 576C461.4 576 576 461.4 576 320C576 178.6 461.4 64 320 64C178.6 64 64 178.6 64 320C64 461.4 178.6 576 320 576zM343.2 181.1C346 172.7 341.5 163.7 333.1 160.9C324.7 158.1 315.7 162.6 312.9 171L305.6 193C242.3 200.8 193.4 254.7 193.4 320C193.4 356.2 208.4 388.9 232.6 412.2L217 459C214.2 467.4 218.7 476.4 227.1 479.2C235.5 482 244.5 477.5 247.3 469.1L259.6 432.2C267.9 436.8 276.9 440.5 286.2 443.2L280.9 459C278.1 467.4 282.6 476.4 291 479.2C299.4 482 308.4 477.5 311.2 469.1L318.2 448C319.2 448 320.2 448 321.2 448C355.2 448 386.1 434.7 409.1 413.1C415.5 407 415.8 396.9 409.7 390.5C403.6 384.1 393.5 383.8 387.1 389.8C371.6 404.4 351.4 413.9 328.9 415.7L384.8 248.1C385.6 248.8 386.3 249.5 387.1 250.2C393.5 256.3 403.7 256 409.7 249.5C415.7 243 415.5 232.9 409.1 226.9C404.9 222.9 400.3 219.2 395.6 215.8L407.2 181.1C410 172.7 405.5 163.7 397.1 160.9C388.7 158.1 379.7 162.6 376.9 171L367 200.4C358.1 197 348.8 194.6 339.1 193.2L343.2 181zM356.9 230.9L296.2 412.7C286.7 410.2 277.9 406.2 269.8 401.1L328.7 224.3C338.6 225.1 348 227.3 356.8 230.8zM293.8 228L244.1 377.1C232.3 361.1 225.3 341.4 225.3 320C225.3 276.5 254.2 239.8 293.9 228z"/></svg>