<svg xmlns="http://www.w3.org/2000/svg" viewBox="0 0 640 640"><!--! Font Awesome Pro 7.1.0 by @fontawesome - https://fontawesome.com License - https://fontawesome.com/license (Commercial License) Copyright 2025 Fonticons, Inc. --><path fill="currentColor" d="M544 320C544 196.3 443.7 96 320 96C196.3 96 96 196.3 96 320C96 443.7 196.3 544 320 544C443.7 544 544 443.7 544 320zM64 320C64 178.6 178.6 64 320 64C461.4 64 576 178.6 576 320C576 461.4 461.4 576 320 576C178.6 576 64 461.4 64 320zM343.9 192L376.9 192C385.7 192 392.9 199.2 392.9 208C392.9 216.8 385.7 224 376.9 224L343.9 224C308.2 224 277.1 243.3 260.3 272L320 272C328.8 272 336 279.2 336 288C336 296.8 328.8 304 320 304L248.6 304C247.6 309.4 247.2 315 247.2 320.8C247.2 326 247.6 331.1 248.4 336L320.1 336C328.9 336 336.1 343.2 336.1 352C336.1 360.8 328.9 368 320.1 368L259.5 368C276.1 397.5 307.7 417.5 344 417.5L377 417.5C385.8 417.5 393 424.7 393 433.5C393 442.3 385.8 449.5 377 449.5L344 449.5C289.6 449.5 243 415.7 224.2 368L200 368C191.2 368 184 360.8 184 352C184 343.2 191.2 336 200 336L216 336C215.4 331 215.1 325.9 215.1 320.8C215.1 315.1 215.5 309.5 216.2 304L200 304C191.2 304 184 296.8 184 288C184 279.2 191.2 272 200 272L224.7 272C243.9 225.1 290.1 192 343.9 192z"/></svg>