<svg xmlns="http://www.w3.org/2000/svg" viewBox="0 0 640 640"><!--! Font Awesome Pro 7.1.0 by @fontawesome - https://fontawesome.com License - https://fontawesome.com/license (Commercial License) Copyright 2025 Fonticons, Inc. --><path fill="currentColor" d="M544 320C544 196.3 443.7 96 320 96C196.3 96 96 196.3 96 320C96 443.7 196.3 544 320 544C443.7 544 544 443.7 544 320zM64 320C64 178.6 178.6 64 320 64C461.4 64 576 178.6 576 320C576 461.4 461.4 576 320 576C178.6 576 64 461.4 64 320zM320 296C333.3 296 344 306.7 344 320C344 333.3 333.3 344 320 344C306.7 344 296 333.3 296 320C296 306.7 306.7 296 320 296zM296 224C296 210.7 306.7 200 320 200C333.3 200 344 210.7 344 224C344 237.3 333.3 248 320 248C306.7 248 296 237.3 296 224zM320 392C333.3 392 344 402.7 344 416C344 429.3 333.3 440 320 440C306.7 440 296 429.3 296 416C296 402.7 306.7 392 320 392z"/></svg>