<svg xmlns="http://www.w3.org/2000/svg" viewBox="0 0 640 640"><!--! Font Awesome Pro 7.1.0 by @fontawesome - https://fontawesome.com License - https://fontawesome.com/license (Commercial License) Copyright 2025 Fonticons, Inc. --><path fill="currentColor" d="M320 96C443.7 96 544 196.3 544 320C544 443.7 443.7 544 320 544C196.3 544 96 443.7 96 320C96 196.3 196.3 96 320 96zM320 576C461.4 576 576 461.4 576 320C576 178.6 461.4 64 320 64C178.6 64 64 178.6 64 320C64 461.4 178.6 576 320 576zM256 280C256 293.8 261 306.4 269.2 316.1C256.3 326.4 248 342.2 248 360C248 390.9 273.1 416 304 416L336 416C366.9 416 392 390.9 392 360C392 342.2 383.7 326.4 370.8 316.1C379 306.3 384 293.7 384 280C384 249.1 358.9 224 328 224L312 224C281.1 224 256 249.1 256 280zM352 280C352 293.3 341.3 304 328 304L312 304C298.7 304 288 293.3 288 280C288 266.7 298.7 256 312 256L328 256C341.3 256 352 266.7 352 280zM304 336L336 336C349.3 336 360 346.7 360 360C360 373.3 349.3 384 336 384L304 384C290.7 384 280 373.3 280 360C280 346.7 290.7 336 304 336z"/></svg>