<svg xmlns="http://www.w3.org/2000/svg" viewBox="0 0 640 640"><!--! Font Awesome Pro 7.1.0 by @fontawesome - https://fontawesome.com License - https://fontawesome.com/license (Commercial License) Copyright 2025 Fonticons, Inc. --><path fill="currentColor" d="M320 544C443.7 544 544 443.7 544 320C544 196.3 443.7 96 320 96C196.3 96 96 196.3 96 320C96 443.7 196.3 544 320 544zM320 64C461.4 64 576 178.6 576 320C576 461.4 461.4 576 320 576C178.6 576 64 461.4 64 320C64 178.6 178.6 64 320 64zM344 320C344 333.3 333.3 344 320 344C306.7 344 296 333.3 296 320C296 306.7 306.7 296 320 296C333.3 296 344 306.7 344 320zM416 296C429.3 296 440 306.7 440 320C440 333.3 429.3 344 416 344C402.7 344 392 333.3 392 320C392 306.7 402.7 296 416 296zM248 320C248 333.3 237.3 344 224 344C210.7 344 200 333.3 200 320C200 306.7 210.7 296 224 296C237.3 296 248 306.7 248 320z"/></svg>