<svg xmlns="http://www.w3.org/2000/svg" viewBox="0 0 640 640"><!--! Font Awesome Pro 7.1.0 by @fontawesome - https://fontawesome.com License - https://fontawesome.com/license (Commercial License) Copyright 2025 Fonticons, Inc. --><path fill="currentColor" d="M320 576C178.6 576 64 461.4 64 320C64 178.6 178.6 64 320 64C461.4 64 576 178.6 576 320C576 461.4 461.4 576 320 576zM320 96C196.3 96 96 196.3 96 320C96 443.7 196.3 544 320 544C443.7 544 544 443.7 544 320C544 196.3 443.7 96 320 96zM436.4 192.6C444.9 195 449.8 203.9 447.4 212.4L383.4 436.4C381 444.9 372.1 449.8 363.6 447.4C355.1 445 350.2 436.1 352.6 427.6L416.6 203.6C419 195.1 427.9 190.2 436.4 192.6zM304 224C312.8 224 320 231.2 320 240C320 248.8 312.8 256 304 256L255 256C242.3 256 232 266.3 232 279C232 290.2 240.1 299.8 251.2 301.7L282.1 306.8C308.6 311.2 328 334.2 328 361C328 391.4 303.4 416 273 416L224 416C215.2 416 208 408.8 208 400C208 391.2 215.2 384 224 384L273 384C285.7 384 296 373.7 296 361C296 349.8 287.9 340.2 276.8 338.3L245.9 333.2C219.4 328.8 200 305.8 200 278.9C200 248.5 224.6 223.9 255 223.9L304 223.9z"/></svg>