<svg xmlns="http://www.w3.org/2000/svg" viewBox="0 0 640 640"><!--! Font Awesome Pro 7.1.0 by @fontawesome - https://fontawesome.com License - https://fontawesome.com/license (Commercial License) Copyright 2025 Fonticons, Inc. --><path fill="currentColor" d="M320 96C443.7 96 544 196.3 544 320C544 443.7 443.7 544 320 544C196.3 544 96 443.7 96 320C96 196.3 196.3 96 320 96zM320 576C461.4 576 576 461.4 576 320C576 178.6 461.4 64 320 64C178.6 64 64 178.6 64 320C64 461.4 178.6 576 320 576zM208 224C199.2 224 192 231.2 192 240L192 400C192 408.8 199.2 416 208 416L281.6 416C290.4 416 297.6 408.8 297.6 400C297.6 391.2 290.4 384 281.6 384L224 384L224 339.2L272 339.2C280.8 339.2 288 332 288 323.2C288 314.4 280.8 307.2 272 307.2L224 307.2L224 256L280 256C288.8 256 296 248.8 296 240C296 231.2 288.8 224 280 224L208 224zM344 224C335.2 224 328 231.2 328 240C328 248.8 335.2 256 344 256L404.9 256L329.9 392.3C327.2 397.3 327.3 403.3 330.1 408.2C332.9 413.1 338.2 416.1 343.9 416.1L431.9 416.1C440.7 416.1 447.9 408.9 447.9 400.1C447.9 391.3 440.7 384.1 431.9 384.1L371 384.1L446 247.8C448.7 242.8 448.6 236.8 445.8 231.9C443 227 437.7 224 432 224L344 224z"/></svg>