<svg xmlns="http://www.w3.org/2000/svg" viewBox="0 0 640 640"><!--! Font Awesome Pro 7.1.0 by @fontawesome - https://fontawesome.com License - https://fontawesome.com/license (Commercial License) Copyright 2025 Fonticons, Inc. --><path fill="currentColor" d="M541.7 352L336 352C309.5 352 288 330.5 288 304L288 98.3C179.4 113.8 96 207.2 96 320C96 443.7 196.3 544 320 544C432.8 544 526.2 460.6 541.7 352zM544 320C544 196.3 443.7 96 320 96L320 304C320 312.8 327.2 320 336 320L544 320zM64 320C64 178.6 178.6 64 320 64C461.4 64 576 178.6 576 320C576 461.4 461.4 576 320 576C178.6 576 64 461.4 64 320z"/></svg>