<svg xmlns="http://www.w3.org/2000/svg" viewBox="0 0 640 640"><!--! Font Awesome Pro 7.1.0 by @fontawesome - https://fontawesome.com License - https://fontawesome.com/license (Commercial License) Copyright 2025 Fonticons, Inc. --><path fill="currentColor" d="M320 96C443.7 96 544 196.3 544 320C544 443.7 443.7 544 320 544C196.3 544 96 443.7 96 320C96 196.3 196.3 96 320 96zM320 576C461.4 576 576 461.4 576 320C576 178.6 461.4 64 320 64C178.6 64 64 178.6 64 320C64 461.4 178.6 576 320 576zM208 192C199.2 192 192 199.2 192 208L192 400C192 408.8 199.2 416 208 416C216.8 416 224 408.8 224 400L224 336L261.2 336L289.2 405.9C292.5 414.1 301.8 418.1 310 414.8C318.2 411.5 322.2 402.2 318.9 394L293.2 329.8C318.4 318.6 336 293.3 336 264C336 224.2 303.8 192 264 192L208 192zM264 304L224 304L224 224L264 224C286.1 224 304 241.9 304 264C304 286.1 286.1 304 264 304zM352 304L352 448C352 456.8 359.2 464 368 464C376.8 464 384 456.8 384 448L384 400L408 400C438.9 400 464 374.9 464 344C464 313.1 438.9 288 408 288L368 288C359.2 288 352 295.2 352 304zM384 368L384 320L408 320C421.3 320 432 330.7 432 344C432 357.3 421.3 368 408 368L384 368z"/></svg>