<svg xmlns="http://www.w3.org/2000/svg" viewBox="0 0 640 640"><!--! Font Awesome Pro 7.1.0 by @fontawesome - https://fontawesome.com License - https://fontawesome.com/license (Commercial License) Copyright 2025 Fonticons, Inc. --><path fill="currentColor" d="M83.1 296C91.3 296 98.2 289.8 99.6 281.7C105.3 248.4 118.4 217.6 137.2 191.1C141.9 184.4 141.5 175.1 135.7 169.3C129 162.6 117.9 163.1 112.4 170.8C89.9 202.2 74.2 238.8 67.8 278.5C66.3 287.9 73.7 296 83.2 296zM191.4 136.8C217.9 118.1 248.7 105 282 99.2C290.1 97.8 296.3 91 296.3 82.7C296.3 73.2 288.1 65.7 278.8 67.3C239.1 73.8 202.4 89.4 171.1 111.9C163.4 117.4 162.9 128.5 169.6 135.2C175.4 141 184.7 141.5 191.4 136.7zM344.4 557.2C344.4 566.7 352.6 574.2 361.9 572.6C401.6 566.1 438.3 550.5 469.6 528C477.3 522.5 477.8 511.4 471.1 504.7C465.3 498.9 456 498.4 449.3 503.2C422.8 521.9 392 535 358.7 540.8C350.6 542.2 344.4 549 344.4 557.3zM503.5 449C498.8 455.7 499.2 465 505 470.8C511.7 477.5 522.8 477 528.3 469.3C550.8 437.9 566.5 401.3 572.9 361.6C574.4 352.2 567 344.1 557.5 344.1C549.3 344.1 542.4 350.3 541 358.4C535.3 391.7 522.2 422.5 503.4 449zM169.6 504.7C162.9 511.4 163.4 522.5 171.1 528C202.5 550.5 239.1 566.2 278.8 572.6C288.2 574.1 296.3 566.7 296.3 557.2C296.3 549 290.1 542.1 282 540.7C248.7 535 217.9 521.9 191.4 503.1C184.7 498.4 175.4 498.8 169.6 504.6zM112.3 469.3C117.8 477 128.9 477.5 135.6 470.8C141.4 465 141.9 455.7 137.1 449C118.4 422.5 105.3 391.7 99.5 358.4C98.1 350.3 91.3 344.1 83 344.1C73.5 344.1 66 352.3 67.6 361.6C74.1 401.3 89.7 438 112.2 469.3zM471.1 135.3C477.8 128.6 477.3 117.5 469.6 112C438.2 89.5 401.6 73.8 361.9 67.4C352.5 65.9 344.4 73.3 344.4 82.8C344.4 91 350.6 97.9 358.7 99.3C392 105 422.8 118.1 449.3 136.9C456 141.6 465.3 141.2 471.1 135.4zM503.5 191C522.2 217.5 535.3 248.3 541.1 281.6C542.5 289.7 549.3 295.9 557.6 295.9C567.1 295.9 574.6 287.7 573 278.4C566.5 238.7 550.9 202 528.4 170.7C522.9 163 511.8 162.5 505.1 169.2C499.3 175 498.8 184.3 503.6 191z"/></svg>