<svg xmlns="http://www.w3.org/2000/svg" viewBox="0 0 640 640"><!--! Font Awesome Pro 7.1.0 by @fontawesome - https://fontawesome.com License - https://fontawesome.com/license (Commercial License) Copyright 2025 Fonticons, Inc. --><path fill="currentColor" d="M320 544C196.3 544 96 443.7 96 320C96 196.3 196.3 96 320 96C443.7 96 544 196.3 544 320C544 443.7 443.7 544 320 544zM320 64C178.6 64 64 178.6 64 320C64 461.4 178.6 576 320 576C461.4 576 576 461.4 576 320C576 178.6 461.4 64 320 64zM384 283.3L384 384L283.3 384L308 359.3C314.2 353.1 314.2 342.9 308 336.7L243.3 272L272 243.3L336.7 308C339.7 311 343.8 312.7 348 312.7C352.2 312.7 356.3 311 359.3 308L384 283.3zM392 416C405.3 416 416 405.3 416 392L416 264C416 242.8 390 232 375 247L348 274L289 215C279.6 205.6 264.4 205.6 255.1 215L215.1 255C205.7 264.4 205.7 279.6 215.1 288.9L274.1 347.9L247.1 374.9C232.1 389.9 242.8 415.9 264.1 415.9L392.1 415.9z"/></svg>