<svg xmlns="http://www.w3.org/2000/svg" viewBox="0 0 640 640"><!--! Font Awesome Pro 7.1.0 by @fontawesome - https://fontawesome.com License - https://fontawesome.com/license (Commercial License) Copyright 2025 Fonticons, Inc. --><path fill="currentColor" d="M320 96C443.7 96 544 196.3 544 320C544 443.7 443.7 544 320 544C196.3 544 96 443.7 96 320C96 196.3 196.3 96 320 96zM320 576C461.4 576 576 461.4 576 320C576 178.6 461.4 64 320 64C178.6 64 64 178.6 64 320C64 461.4 178.6 576 320 576zM235.3 304L320 219.3L404.7 304L368 304C359.2 304 352 311.2 352 320L352 408C352 412.4 348.4 416 344 416L296 416C291.6 416 288 412.4 288 408L288 320C288 311.2 280.8 304 272 304L235.3 304zM441 295L337 191C327.6 181.6 312.4 181.6 303.1 191L199 295C192.1 301.9 190.1 312.2 193.8 321.2C197.5 330.2 206.3 336 216 336L256 336L256 408C256 430.1 273.9 448 296 448L344 448C366.1 448 384 430.1 384 408L384 336L424 336C433.7 336 442.5 330.2 446.2 321.2C449.9 312.2 447.9 301.9 441 295z"/></svg>