<svg xmlns="http://www.w3.org/2000/svg" viewBox="0 0 640 640"><!--! Font Awesome Pro 7.1.0 by @fontawesome - https://fontawesome.com License - https://fontawesome.com/license (Commercial License) Copyright 2025 Fonticons, Inc. --><path fill="currentColor" d="M96 320C96 196.3 196.3 96 320 96C443.7 96 544 196.3 544 320C544 443.7 443.7 544 320 544C196.3 544 96 443.7 96 320zM576 320C576 178.6 461.4 64 320 64C178.6 64 64 178.6 64 320C64 461.4 178.6 576 320 576C461.4 576 576 461.4 576 320zM224 320C224 329.6 228 338.7 235 345.2L337.8 440.7C342.9 445.4 349.6 448 356.5 448C371.7 448 384 435.7 384 420.5L384 219.5C384 204.3 371.7 192 356.5 192C349.6 192 342.9 194.6 337.8 199.3L235 294.8C228 301.3 224 310.4 224 320zM256.7 321.7C256.2 321.3 256 320.6 256 320C256 319.4 256.3 318.7 256.7 318.3L352 229.9L352 410.2L256.7 321.8z"/></svg>