<svg xmlns="http://www.w3.org/2000/svg" viewBox="0 0 640 640"><!--! Font Awesome Pro 7.1.0 by @fontawesome - https://fontawesome.com License - https://fontawesome.com/license (Commercial License) Copyright 2025 Fonticons, Inc. --><path fill="currentColor" d="M287.7 81.6C289.4 90.3 283.8 98.7 275.2 100.5C172.9 121.2 96 211.6 96 320C96 443.7 196.3 544 320 544C443.7 544 544 443.7 544 320C544 211.6 467.1 121.2 364.8 100.5C356.1 98.7 350.5 90.3 352.3 81.6C354.1 72.9 362.5 67.4 371.2 69.1C488 92.8 576 196.1 576 320C576 461.4 461.4 576 320 576C178.6 576 64 461.4 64 320C64 196.1 152 92.8 268.8 69.1C277.5 67.4 285.9 73 287.7 81.6z"/></svg>