<svg xmlns="http://www.w3.org/2000/svg" viewBox="0 0 640 640"><!--! Font Awesome Pro 7.1.0 by @fontawesome - https://fontawesome.com License - https://fontawesome.com/license (Commercial License) Copyright 2025 Fonticons, Inc. --><path fill="currentColor" d="M320 96C443.7 96 544 196.3 544 320C544 443.7 443.7 544 320 544C196.3 544 96 443.7 96 320C96 196.3 196.3 96 320 96zM320 576C461.4 576 576 461.4 576 320C576 178.6 461.4 64 320 64C178.6 64 64 178.6 64 320C64 461.4 178.6 576 320 576zM272 248C272 234.7 282.7 224 296 224L312.8 224C325.6 224 336 234.4 336 247.2C336 257.4 331 267 322.5 272.8L300.7 287.8L278.6 264.5C274.3 260 272 254.1 272 247.9zM340.7 299.2C357.8 287.4 368 268 368 247.2C368 216.7 343.3 192 312.8 192L296 192C265.1 192 240 217.1 240 248C240 262.4 245.5 276.2 255.4 286.6L274 306.1L235.3 332.7C218.2 344.5 207.9 364 207.9 384.8C207.9 419.7 236.2 448 271.1 448L307.1 448C330.4 448 352.2 436.8 365.7 417.8L372 409L404.4 443C410.5 449.4 420.6 449.6 427 443.6C433.4 437.6 433.6 427.4 427.6 421L391 382.6L429 329.4C434.1 322.2 432.5 312.2 425.3 307.1C418.1 302 408.1 303.6 403 310.8L368.5 359L323.1 311.3L340.6 299.2zM253.6 359.1L296.5 329.6L349.7 385.4L339.9 399.2C332.4 409.7 320.3 416 307.4 416L271.4 416C254.2 416 240.2 402 240.2 384.8C240.2 374.5 245.3 364.9 253.7 359.1z"/></svg>