<svg xmlns="http://www.w3.org/2000/svg" viewBox="0 0 640 640"><!--! Font Awesome Pro 7.1.0 by @fontawesome - https://fontawesome.com License - https://fontawesome.com/license (Commercial License) Copyright 2025 Fonticons, Inc. --><path fill="currentColor" d="M320 96C443.7 96 544 196.3 544 320C544 443.7 443.7 544 320 544C196.3 544 96 443.7 96 320C96 196.3 196.3 96 320 96zM320 576C461.4 576 576 461.4 576 320C576 178.6 461.4 64 320 64C178.6 64 64 178.6 64 320C64 461.4 178.6 576 320 576zM240 192C231.2 192 224 199.2 224 208C224 216.8 231.2 224 240 224L288 224C308.9 224 326.7 237.4 333.3 256L240 256C231.2 256 224 263.2 224 272C224 280.8 231.2 288 240 288L333.3 288C326.7 306.6 308.9 320 288 320L240 320C233.1 320 227 324.4 224.8 330.9C222.6 337.4 224.9 344.6 230.4 348.8L358.4 444.8C365.5 450.1 375.5 448.7 380.8 441.6C386.1 434.5 384.7 424.5 377.6 419.2L288 352C326.7 352 359 324.5 366.4 288L400 288C408.8 288 416 280.8 416 272C416 263.2 408.8 256 400 256L366.4 256C364 244.2 359 233.3 352 224L400 224C408.8 224 416 216.8 416 208C416 199.2 408.8 192 400 192L240 192z"/></svg>