<svg xmlns="http://www.w3.org/2000/svg" viewBox="0 0 640 640"><!--! Font Awesome Pro 7.1.0 by @fontawesome - https://fontawesome.com License - https://fontawesome.com/license (Commercial License) Copyright 2025 Fonticons, Inc. --><path fill="currentColor" d="M320 96C443.7 96 544 196.3 544 320C544 443.7 443.7 544 320 544C196.3 544 96 443.7 96 320C96 196.3 196.3 96 320 96zM320 576C461.4 576 576 461.4 576 320C576 178.6 461.4 64 320 64C178.6 64 64 178.6 64 320C64 461.4 178.6 576 320 576zM304 184L304 201.1C245.3 208.9 200 259.2 200 320C200 380.8 245.3 431.1 304 438.9L304 456C304 464.8 311.2 472 320 472C328.8 472 336 464.8 336 456L336 438.9C394.7 431.1 440 380.8 440 320C440 311.2 432.8 304 424 304L336 304L336 233.4C353.6 236.6 369.3 245.1 381.6 257.1C387.9 263.3 398 263.2 404.2 256.9C410.4 250.6 410.3 240.5 404 234.3C386 216.6 362.3 204.6 336 201.1L336 184C336 175.2 328.8 168 320 168C311.2 168 304 175.2 304 184zM232 320C232 276.9 263 241 304 233.5L304 406.6C263 399.1 232 363.2 232 320zM406.5 336C399.9 371.8 371.7 400 335.9 406.6L335.9 336L406.5 336z"/></svg>