<svg xmlns="http://www.w3.org/2000/svg" viewBox="0 0 640 640"><!--! Font Awesome Pro 7.1.0 by @fontawesome - https://fontawesome.com License - https://fontawesome.com/license (Commercial License) Copyright 2025 Fonticons, Inc. --><path fill="currentColor" d="M320 96C443.7 96 544 196.3 544 320C544 443.7 443.7 544 320 544C196.3 544 96 443.7 96 320C96 196.3 196.3 96 320 96zM320 576C461.4 576 576 461.4 576 320C576 178.6 461.4 64 320 64C178.6 64 64 178.6 64 320C64 461.4 178.6 576 320 576zM208 208C199.2 208 192 215.2 192 224L192 416C192 424.8 199.2 432 208 432C216.8 432 224 424.8 224 416L224 352L261.2 352L289.2 421.9C292.5 430.1 301.8 434.1 310 430.8C318.2 427.5 322.2 418.2 318.9 410L293.2 345.8C318.4 334.6 336 309.3 336 280C336 240.2 303.8 208 264 208L208 208zM264 320L224 320L224 240L264 240C286.1 240 304 257.9 304 280C304 302.1 286.1 320 264 320zM352 307.2C352 331.6 369.2 352.6 393.1 357.4L416.6 362.1C425.6 363.9 432 371.8 432 380.9C432 391.5 423.4 400.1 412.8 400.1L376 400C367.2 400 360 407.2 360 416C360 424.8 367.2 432 376 432L412.8 432C441.1 432 464 409.1 464 380.8C464 356.4 446.8 335.4 422.9 330.6L399.4 326C390.4 324.2 384 316.3 384 307.2C384 296.6 392.6 288 403.2 288L440 288C448.8 288 456 280.8 456 272C456 263.2 448.8 256 440 256L403.2 256C374.9 256 352 278.9 352 307.2z"/></svg>