<svg xmlns="http://www.w3.org/2000/svg" viewBox="0 0 640 640"><!--! Font Awesome Pro 7.1.0 by @fontawesome - https://fontawesome.com License - https://fontawesome.com/license (Commercial License) Copyright 2025 Fonticons, Inc. --><path fill="currentColor" d="M288 96C395.3 96 485.1 171.5 506.9 272.3C518.4 272.9 529.6 274.6 540.4 277.2C520 156.2 414.8 64 288 64C146.6 64 32 178.6 32 320C32 461.4 146.6 576 288 576C304.7 576 321 574.4 336.8 571.4C330.5 562.1 325 552.1 320.4 541.7C309.8 543.2 299 544 288 544C164.3 544 64 443.7 64 320C64 196.3 164.3 96 288 96zM443.2 267.6C402.1 230.5 347.7 208 288 208C228.3 208 173.9 230.6 132.8 267.6C126.2 273.5 125.7 283.6 131.6 290.2C137.5 296.8 147.6 297.3 154.2 291.4C189.7 259.5 236.5 240 288 240C337.8 240 383.4 258.2 418.4 288.3C428 284 438.1 280.5 448.5 277.9C448.1 274.1 446.4 270.3 443.3 267.5zM288 304C255 304 224.9 316.5 202.2 337C195.6 342.9 195.1 353 201.1 359.6C207.1 366.2 217.1 366.7 223.7 360.7C240.7 345.3 263.3 335.9 288.1 335.9C307.4 335.9 325.4 341.6 340.5 351.4C346.8 342.7 353.8 334.5 361.5 327C340.7 312.4 315.4 303.9 288.1 303.9zM288 408C274.7 408 264 418.7 264 432C264 445.3 274.7 456 288 456C294.4 456 300.2 453.5 304.5 449.4C305.2 439.5 306.7 429.8 308.9 420.4C304.8 413 296.9 408.1 287.9 408.1zM496 352C557.9 352 608 402.1 608 464C608 525.9 557.9 576 496 576C434.1 576 384 525.9 384 464C384 402.1 434.1 352 496 352zM496 608C575.5 608 640 543.5 640 464C640 384.5 575.5 320 496 320C416.5 320 352 384.5 352 464C352 543.5 416.5 608 496 608zM496 424C519.6 424 541 432.9 557.3 447.5C563.9 453.4 574 452.9 579.9 446.3C585.8 439.7 585.3 429.6 578.7 423.7C556.8 404 527.8 392 496 392C464.2 392 435.2 404 413.3 423.7C406.7 429.6 406.2 439.7 412.1 446.3C418 452.9 428.1 453.4 434.7 447.5C451 432.9 472.4 424 496 424zM516 528C516 517 507 508 496 508C485 508 476 517 476 528C476 539 485 548 496 548C507 548 516 539 516 528zM469.3 490.3C476.4 483.9 485.7 480 496 480C506.3 480 515.6 483.9 522.7 490.3C529.3 496.2 539.4 495.7 545.3 489.2C551.2 482.7 550.7 472.5 544.2 466.6C531.4 455 514.5 448 496 448C477.5 448 460.6 455 447.9 466.5C441.3 472.4 440.8 482.5 446.8 489.1C452.8 495.7 462.8 496.2 469.4 490.2z"/></svg>