<svg xmlns="http://www.w3.org/2000/svg" viewBox="0 0 640 640"><!--! Font Awesome Pro 7.1.0 by @fontawesome - https://fontawesome.com License - https://fontawesome.com/license (Commercial License) Copyright 2025 Fonticons, Inc. --><path fill="currentColor" d="M320 96C443.7 96 544 196.3 544 320C544 443.7 443.7 544 320 544C196.3 544 96 443.7 96 320C96 196.3 196.3 96 320 96zM320 576C461.4 576 576 461.4 576 320C576 178.6 461.4 64 320 64C178.6 64 64 178.6 64 320C64 461.4 178.6 576 320 576zM320 224C310.4 224 301.3 228 294.8 235L199.3 337.8C194.6 342.9 192 349.6 192 356.5C192 371.7 204.3 384 219.5 384L420.5 384C435.7 384 448 371.7 448 356.5C448 349.6 445.4 342.9 440.7 337.8L345.2 235C338.7 228 329.6 224 320 224zM318.3 256.7C318.7 256.2 319.4 256 320 256C320.6 256 321.3 256.3 321.7 256.7L410.1 352L229.8 352L318.2 256.7z"/></svg>