<svg xmlns="http://www.w3.org/2000/svg" viewBox="0 0 640 640"><!--! Font Awesome Pro 7.1.0 by @fontawesome - https://fontawesome.com License - https://fontawesome.com/license (Commercial License) Copyright 2025 Fonticons, Inc. --><path fill="currentColor" d="M320 96C443.7 96 544 196.3 544 320C544 443.7 443.7 544 320 544C196.3 544 96 443.7 96 320C96 196.3 196.3 96 320 96zM320 576C461.4 576 576 461.4 576 320C576 178.6 461.4 64 320 64C178.6 64 64 178.6 64 320C64 461.4 178.6 576 320 576zM208 208C208 216.8 215.2 224 224 224L304 224L304 292.5L242.9 312.9C234.5 315.7 230 324.8 232.8 333.1C235.6 341.4 244.7 346 253 343.2L303.9 326.2L303.9 356.5L242.8 376.9C234.4 379.7 229.9 388.8 232.7 397.1C235.5 405.4 244.6 410 252.9 407.2L303.8 390.2L303.8 432C303.8 440.8 311 448 319.8 448C328.6 448 335.8 440.8 335.8 432L335.8 379.5L396.9 359.1C405.3 356.3 409.8 347.2 407 338.9C404.2 330.6 395.1 326 386.8 328.8L335.9 345.8L335.9 315.5L397 295.1C405.4 292.3 409.9 283.2 407.1 274.9C404.3 266.6 395.2 262 386.9 264.8L336 281.8L336 224L416 224C424.8 224 432 216.8 432 208C432 199.2 424.8 192 416 192L224 192C215.2 192 208 199.2 208 208z"/></svg>