<svg xmlns="http://www.w3.org/2000/svg" viewBox="0 0 640 640"><!--! Font Awesome Pro 7.1.0 by @fontawesome - https://fontawesome.com License - https://fontawesome.com/license (Commercial License) Copyright 2025 Fonticons, Inc. --><path fill="currentColor" d="M320 96C443.7 96 544 196.3 544 320C544 443.7 443.7 544 320 544C196.3 544 96 443.7 96 320C96 196.3 196.3 96 320 96zM320 576C461.4 576 576 461.4 576 320C576 178.6 461.4 64 320 64C178.6 64 64 178.6 64 320C64 461.4 178.6 576 320 576zM240 224C231.2 224 224 231.2 224 240C224 248.8 231.2 256 240 256L304 256L304 400C304 408.8 311.2 416 320 416C328.8 416 336 408.8 336 400L336 256L400 256C408.8 256 416 248.8 416 240C416 231.2 408.8 224 400 224L240 224z"/></svg>