<svg xmlns="http://www.w3.org/2000/svg" viewBox="0 0 640 640"><!--! Font Awesome Pro 7.1.0 by @fontawesome - https://fontawesome.com License - https://fontawesome.com/license (Commercial License) Copyright 2025 Fonticons, Inc. --><path fill="currentColor" d="M320 96C443.7 96 544 196.3 544 320C544 443.7 443.7 544 320 544C196.3 544 96 443.7 96 320C96 196.3 196.3 96 320 96zM320 576C461.4 576 576 461.4 576 320C576 178.6 461.4 64 320 64C178.6 64 64 178.6 64 320C64 461.4 178.6 576 320 576zM384 240C384 231.2 376.8 224 368 224C359.2 224 352 231.2 352 240L352 344C352 366.1 334.1 384 312 384C289.9 384 272 366.1 272 344L272 336C272 327.2 264.8 320 256 320C247.2 320 240 327.2 240 336L240 344C240 383.8 272.2 416 312 416C351.8 416 384 383.8 384 344L384 240z"/></svg>