<svg xmlns="http://www.w3.org/2000/svg" viewBox="0 0 640 640"><!--! Font Awesome Pro 7.1.0 by @fontawesome - https://fontawesome.com License - https://fontawesome.com/license (Commercial License) Copyright 2025 Fonticons, Inc. --><path fill="currentColor" d="M320 544C196.3 544 96 443.7 96 320C96 196.3 196.3 96 320 96C443.7 96 544 196.3 544 320C544 443.7 443.7 544 320 544zM320 64C178.6 64 64 178.6 64 320C64 461.4 178.6 576 320 576C461.4 576 576 461.4 576 320C576 178.6 461.4 64 320 64zM384 272L384 361.4L251.3 228.7C245.1 222.5 234.9 222.5 228.7 228.7C222.5 234.9 222.5 245.1 228.7 251.3L361.4 384L272 384C263.2 384 256 391.2 256 400C256 408.8 263.2 416 272 416L400 416C408.8 416 416 408.8 416 400L416 272C416 263.2 408.8 256 400 256C391.2 256 384 263.2 384 272z"/></svg>