<svg xmlns="http://www.w3.org/2000/svg" viewBox="0 0 640 640"><!--! Font Awesome Pro 7.1.0 by @fontawesome - https://fontawesome.com License - https://fontawesome.com/license (Commercial License) Copyright 2025 Fonticons, Inc. --><path fill="currentColor" d="M320 96C443.7 96 544 196.3 544 320C544 443.7 443.7 544 320 544C196.3 544 96 443.7 96 320C96 196.3 196.3 96 320 96zM320 576C461.4 576 576 461.4 576 320C576 178.6 461.4 64 320 64C178.6 64 64 178.6 64 320C64 461.4 178.6 576 320 576zM208.2 205.4C206.7 214.1 212.6 222.4 221.4 223.8L238.8 226.7C248.7 228.4 256 236.9 256 247L256 272L226.3 272C217.5 272 210.3 279.2 210.3 288C210.3 296.8 217.5 304 226.3 304L256 304L256 395.4C256 424.4 279.5 448 308.6 448L324.6 448C383.9 448 432 399.9 432 340.6L432 324.6C432 295.6 408.5 272 379.4 272L376 272C367.2 272 360 279.2 360 288C360 296.8 367.2 304 376 304L379.4 304C390.8 304 400 313.2 400 324.6L400 340.6C400 382.3 366.2 416 324.6 416L308.6 416C297.2 416 288 406.8 288 395.4L288 304L304 304C312.8 304 320 296.8 320 288C320 279.2 312.8 272 304 272L288 272L288 247C288 221.3 269.4 199.4 244.1 195.1L226.7 192.2C218 190.7 209.7 196.6 208.3 205.4z"/></svg>