<svg xmlns="http://www.w3.org/2000/svg" viewBox="0 0 640 640"><!--! Font Awesome Pro 7.1.0 by @fontawesome - https://fontawesome.com License - https://fontawesome.com/license (Commercial License) Copyright 2025 Fonticons, Inc. --><path fill="currentColor" d="M320 96C443.7 96 544 196.3 544 320C544 443.7 443.7 544 320 544C196.3 544 96 443.7 96 320C96 196.3 196.3 96 320 96zM320 576C461.4 576 576 461.4 576 320C576 178.6 461.4 64 320 64C178.6 64 64 178.6 64 320C64 461.4 178.6 576 320 576zM280 400C280 408.8 287.2 416 296 416L328 416C363.3 416 392 387.3 392 352L392 288C392 252.7 363.3 224 328 224L312 224C276.7 224 248 252.7 248 288C248 323.3 276.7 352 312 352L328 352C339.7 352 350.6 348.9 360 343.4L360 352C360 369.7 345.7 384 328 384L296 384C287.2 384 280 391.2 280 400zM328 256C345.7 256 360 270.3 360 288C360 305.7 345.7 320 328 320L312 320C294.3 320 280 305.7 280 288C280 270.3 294.3 256 312 256L328 256z"/></svg>