<svg xmlns="http://www.w3.org/2000/svg" viewBox="0 0 640 640"><!--! Font Awesome Pro 7.1.0 by @fontawesome - https://fontawesome.com License - https://fontawesome.com/license (Commercial License) Copyright 2025 Fonticons, Inc. --><path fill="currentColor" d="M320 96C443.7 96 544 196.3 544 320C544 443.7 443.7 544 320 544C196.3 544 96 443.7 96 320C96 196.3 196.3 96 320 96zM320 576C461.4 576 576 461.4 576 320C576 178.6 461.4 64 320 64C178.6 64 64 178.6 64 320C64 461.4 178.6 576 320 576zM272 224C263.2 224 256 231.2 256 240L256 400C256 408.8 263.2 416 272 416C280.8 416 288 408.8 288 400L288 336L352 336C360.8 336 368 328.8 368 320C368 311.2 360.8 304 352 304L288 304L288 256L368 256C376.8 256 384 248.8 384 240C384 231.2 376.8 224 368 224L272 224z"/></svg>