<svg xmlns="http://www.w3.org/2000/svg" viewBox="0 0 640 640"><!--! Font Awesome Pro 7.1.0 by @fontawesome - https://fontawesome.com License - https://fontawesome.com/license (Commercial License) Copyright 2025 Fonticons, Inc. --><path fill="currentColor" d="M544 320C544 196.3 443.7 96 320 96L320 272C320 298.5 298.5 320 272 320L96 320C96 443.7 196.3 544 320 544C443.7 544 544 443.7 544 320zM288 98.3C189.9 112.3 112.3 189.9 98.3 288L272 288C280.8 288 288 280.8 288 272L288 98.3zM64 320C64 178.6 178.6 64 320 64C461.4 64 576 178.6 576 320C576 461.4 461.4 576 320 576C178.6 576 64 461.4 64 320z"/></svg>