<svg xmlns="http://www.w3.org/2000/svg" viewBox="0 0 640 640"><!--! Font Awesome Pro 7.1.0 by @fontawesome - https://fontawesome.com License - https://fontawesome.com/license (Commercial License) Copyright 2025 Fonticons, Inc. --><path fill="currentColor" d="M320 96C443.7 96 544 196.3 544 320C544 443.7 443.7 544 320 544C196.3 544 96 443.7 96 320C96 196.3 196.3 96 320 96zM320 576C461.4 576 576 461.4 576 320C576 178.6 461.4 64 320 64C178.6 64 64 178.6 64 320C64 461.4 178.6 576 320 576zM204 208C179.7 208 160 227.7 160 252L160 388C160 412.3 179.7 432 204 432C228.3 432 248 412.3 248 388L248 384C248 375.2 240.8 368 232 368C223.2 368 216 375.2 216 384L216 388C216 394.6 210.6 400 204 400C197.4 400 192 394.6 192 388L192 252C192 245.4 197.4 240 204 240C210.6 240 216 245.4 216 252L216 256C216 264.8 223.2 272 232 272C240.8 272 248 264.8 248 256L248 252C248 227.7 228.3 208 204 208zM304 224C304 215.2 296.8 208 288 208C279.2 208 272 215.2 272 224L272 416C272 424.8 279.2 432 288 432C296.8 432 304 424.8 304 416L304 336L336 336L336 416C336 424.8 343.2 432 352 432C360.8 432 368 424.8 368 416L368 224C368 215.2 360.8 208 352 208C343.2 208 336 215.2 336 224L336 304L304 304L304 224zM416 208C407.2 208 400 215.2 400 224L400 416C400 424.8 407.2 432 416 432C424.8 432 432 424.8 432 416L432 336L456 336C464.8 336 472 328.8 472 320C472 311.2 464.8 304 456 304L432 304L432 240L464 240C472.8 240 480 232.8 480 224C480 215.2 472.8 208 464 208L416 208z"/></svg>