<svg xmlns="http://www.w3.org/2000/svg" viewBox="0 0 640 640"><!--! Font Awesome Pro 7.1.0 by @fontawesome - https://fontawesome.com License - https://fontawesome.com/license (Commercial License) Copyright 2025 Fonticons, Inc. --><path fill="currentColor" d="M320 544C443.7 544 544 443.7 544 320C544 196.3 443.7 96 320 96C196.3 96 96 196.3 96 320C96 443.7 196.3 544 320 544zM320 64C461.4 64 576 178.6 576 320C576 461.4 461.4 576 320 576C178.6 576 64 461.4 64 320C64 178.6 178.6 64 320 64zM384 356.7L384 256L283.3 256L308 280.7C314.2 286.9 314.2 297.1 308 303.3L243.3 368L272 396.7L336.7 332C339.7 329 343.8 327.3 348 327.3C352.2 327.3 356.3 329 359.3 332L384 356.7zM392 224C405.3 224 416 234.7 416 248L416 376C416 397.2 390 408 375 393L348 366L289 425C279.6 434.4 264.4 434.4 255.1 425L215.1 385C205.7 375.6 205.7 360.4 215.1 351.1L274.1 292.1L247.1 265.1C232.1 250.1 242.8 224.1 264.1 224.1L392.1 224.1z"/></svg>