<svg xmlns="http://www.w3.org/2000/svg" viewBox="0 0 640 640"><!--! Font Awesome Pro 7.1.0 by @fontawesome - https://fontawesome.com License - https://fontawesome.com/license (Commercial License) Copyright 2025 Fonticons, Inc. --><path fill="currentColor" d="M320 96C443.7 96 544 196.3 544 320C544 443.7 443.7 544 320 544C196.3 544 96 443.7 96 320C96 196.3 196.3 96 320 96zM320 576C461.4 576 576 461.4 576 320C576 178.6 461.4 64 320 64C178.6 64 64 178.6 64 320C64 461.4 178.6 576 320 576zM176 224C167.2 224 160 231.2 160 240L160 400C160 408.8 167.2 416 176 416C184.8 416 192 408.8 192 400L192 352L214.1 352L241.7 407.2C245.7 415.1 255.3 418.3 263.2 414.4C271.1 410.5 274.3 400.8 270.4 392.9L248.1 348.4C272.9 339.6 290.7 315.9 290.7 288.1C290.7 252.8 262 224.1 226.7 224.1L176 224zM226.7 320L192 320L192 256L226.7 256C244.4 256 258.7 270.3 258.7 288C258.7 305.7 244.4 320 226.7 320zM320 416C328.8 416 336 408.8 336 400L336 285.6L371.5 330C374.5 333.8 379.1 336 384 336C388.9 336 393.5 333.8 396.5 330L432 285.6L432 400C432 408.8 439.2 416 448 416C456.8 416 464 408.8 464 400L464 240C464 233.2 459.7 227.2 453.3 224.9C446.9 222.6 439.8 224.7 435.5 230L384 294.4L332.5 230C328.3 224.7 321.1 222.6 314.7 224.9C308.3 227.2 304 233.2 304 240L304 400C304 408.8 311.2 416 320 416z"/></svg>