<svg xmlns="http://www.w3.org/2000/svg" viewBox="0 0 640 640"><!--! Font Awesome Pro 7.1.0 by @fontawesome - https://fontawesome.com License - https://fontawesome.com/license (Commercial License) Copyright 2025 Fonticons, Inc. --><path fill="currentColor" d="M320 96C443.7 96 544 196.3 544 320C544 443.7 443.7 544 320 544C196.3 544 96 443.7 96 320C96 196.3 196.3 96 320 96zM320 576C461.4 576 576 461.4 576 320C576 178.6 461.4 64 320 64C178.6 64 64 178.6 64 320C64 461.4 178.6 576 320 576zM256 208L256 320L224 320C215.2 320 208 327.2 208 336C208 344.8 215.2 352 224 352L256 352L256 384L224 384C215.2 384 208 391.2 208 400C208 408.8 215.2 416 224 416L256 416L256 432C256 440.8 263.2 448 272 448C280.8 448 288 440.8 288 432L288 416L352 416C360.8 416 368 408.8 368 400C368 391.2 360.8 384 352 384L288 384L288 352L352 352C396.2 352 432 316.2 432 272C432 227.8 396.2 192 352 192L272 192C263.2 192 256 199.2 256 208zM352 320L288 320L288 224L352 224C378.5 224 400 245.5 400 272C400 298.5 378.5 320 352 320z"/></svg>