<svg xmlns="http://www.w3.org/2000/svg" viewBox="0 0 640 640"><!--! Font Awesome Pro 7.1.0 by @fontawesome - https://fontawesome.com License - https://fontawesome.com/license (Commercial License) Copyright 2025 Fonticons, Inc. --><path fill="currentColor" d="M320 96C443.7 96 544 196.3 544 320C544 443.7 443.7 544 320 544C196.3 544 96 443.7 96 320C96 196.3 196.3 96 320 96zM320 576C461.4 576 576 461.4 576 320C576 178.6 461.4 64 320 64C178.6 64 64 178.6 64 320C64 461.4 178.6 576 320 576zM336 304L280 304C271.2 304 264 311.2 264 320C264 328.8 271.2 336 280 336L336 336C349.3 336 360 346.7 360 360C360 373.3 349.3 384 336 384L264 384C255.2 384 248 391.2 248 400C248 408.8 255.2 416 264 416L336 416C366.9 416 392 390.9 392 360C392 344.3 385.6 330.2 375.2 320C385.6 309.8 392 295.7 392 280C392 249.1 366.9 224 336 224L264 224C255.2 224 248 231.2 248 240C248 248.8 255.2 256 264 256L336 256C349.3 256 360 266.7 360 280C360 293.3 349.3 304 336 304z"/></svg>