<svg xmlns="http://www.w3.org/2000/svg" viewBox="0 0 640 640"><!--! Font Awesome Pro 7.1.0 by @fontawesome - https://fontawesome.com License - https://fontawesome.com/license (Commercial License) Copyright 2025 Fonticons, Inc. --><path fill="currentColor" d="M320 96C443.7 96 544 196.3 544 320C544 443.7 443.7 544 320 544C196.3 544 96 443.7 96 320C96 196.3 196.3 96 320 96zM320 576C461.4 576 576 461.4 576 320C576 178.6 461.4 64 320 64C178.6 64 64 178.6 64 320C64 461.4 178.6 576 320 576zM392 192C383.2 192 376 199.2 376 208L376 224.4C348.9 227.8 328 250.9 328 278.9C328 305.8 347.4 328.7 373.9 333.1L404.8 338.2C415.9 340 424 349.6 424 360.9C424 373.6 413.7 383.9 401 383.9L352 383.9C343.2 383.9 336 391.1 336 399.9C336 408.7 343.2 415.9 352 415.9L376 415.9L376 431.9C376 440.7 383.2 447.9 392 447.9C400.8 447.9 408 440.7 408 431.9L408 415.5C435.1 412.1 456 389 456 361C456 334.1 436.6 311.2 410.1 306.8L379.2 301.7C368.1 299.9 360 290.3 360 279C360 266.3 370.3 256 383 256L424 256C432.8 256 440 248.8 440 240C440 231.2 432.8 224 424 224L408 224L408 208C408 199.2 400.8 192 392 192zM288.7 412.7C291.3 421.1 300.3 425.9 308.7 423.2C317.1 420.5 321.9 411.6 319.2 403.2L268.3 239C265.5 230.1 257.3 224 248 224C238.7 224 230.4 230.1 227.7 239L176.7 403.3C174.1 411.7 178.8 420.7 187.2 423.3C195.6 425.9 204.6 421.2 207.2 412.8L216.1 384.1L279.7 384.1L288.6 412.8zM248 281.5L269.9 352L226.1 352L248 281.5z"/></svg>