<svg xmlns="http://www.w3.org/2000/svg" viewBox="0 0 640 640"><!--! Font Awesome Pro 7.1.0 by @fontawesome - https://fontawesome.com License - https://fontawesome.com/license (Commercial License) Copyright 2025 Fonticons, Inc. --><path fill="currentColor" d="M320 96C196.3 96 96 196.3 96 320C96 443.7 196.3 544 320 544C443.7 544 544 443.7 544 320C544 196.3 443.7 96 320 96zM320 576C178.6 576 64 461.4 64 320C64 178.6 178.6 64 320 64C461.4 64 576 178.6 576 320C576 461.4 461.4 576 320 576zM256 272L256 361.4L388.7 228.7C394.9 222.5 405.1 222.5 411.3 228.7C417.5 234.9 417.5 245.1 411.3 251.3L278.6 384L368 384C376.8 384 384 391.2 384 400C384 408.8 376.8 416 368 416L240 416C231.2 416 224 408.8 224 400L224 272C224 263.2 231.2 256 240 256C248.8 256 256 263.2 256 272z"/></svg>