<svg xmlns="http://www.w3.org/2000/svg" viewBox="0 0 640 640"><!--! Font Awesome Pro 7.1.0 by @fontawesome - https://fontawesome.com License - https://fontawesome.com/license (Commercial License) Copyright 2025 Fonticons, Inc. --><path fill="currentColor" d="M320 96C443.7 96 544 196.3 544 320C544 443.7 443.7 544 320 544C196.3 544 96 443.7 96 320C96 196.3 196.3 96 320 96zM320 576C461.4 576 576 461.4 576 320C576 178.6 461.4 64 320 64C178.6 64 64 178.6 64 320C64 461.4 178.6 576 320 576zM256 208L256 352L240 352C231.2 352 224 359.2 224 368C224 376.8 231.2 384 240 384L256 384L256 432C256 440.8 263.2 448 272 448C280.8 448 288 440.8 288 432L288 384L336 384C344.8 384 352 376.8 352 368C352 359.2 344.8 352 336 352L288 352L288 320L360 320C368.8 320 376 312.8 376 304C376 295.2 368.8 288 360 288L288 288L288 224L392 224C400.8 224 408 216.8 408 208C408 199.2 400.8 192 392 192L272 192C263.2 192 256 199.2 256 208z"/></svg>