<svg xmlns="http://www.w3.org/2000/svg" viewBox="0 0 640 640"><!--! Font Awesome Pro 7.1.0 by @fontawesome - https://fontawesome.com License - https://fontawesome.com/license (Commercial License) Copyright 2025 Fonticons, Inc. --><path fill="currentColor" d="M320 96C443.7 96 544 196.3 544 320C544 443.7 443.7 544 320 544C196.3 544 96 443.7 96 320C96 196.3 196.3 96 320 96zM320 576C461.4 576 576 461.4 576 320C576 178.6 461.4 64 320 64C178.6 64 64 178.6 64 320C64 461.4 178.6 576 320 576zM280 192C273.9 192 268.4 195.4 265.7 200.8L254.1 224L208 224C199.2 224 192 231.2 192 240C192 248.8 199.2 256 208 256L432 256C440.8 256 448 248.8 448 240C448 231.2 440.8 224 432 224L385.9 224L374.3 200.8C371.6 195.4 366.1 192 360 192L280 192zM222 304L236.5 420C238.5 436 252.1 448 268.3 448L371.8 448C387.9 448 401.6 436 403.6 420L418.1 304L385.9 304L371.9 416L268.4 416L254.4 304L222.2 304z"/></svg>