<svg xmlns="http://www.w3.org/2000/svg" viewBox="0 0 640 640"><!--! Font Awesome Pro 7.1.0 by @fontawesome - https://fontawesome.com License - https://fontawesome.com/license (Commercial License) Copyright 2025 Fonticons, Inc. --><path fill="currentColor" d="M320 96C443.7 96 544 196.3 544 320C544 443.7 443.7 544 320 544C196.3 544 96 443.7 96 320C96 196.3 196.3 96 320 96zM320 576C461.4 576 576 461.4 576 320C576 178.6 461.4 64 320 64C178.6 64 64 178.6 64 320C64 461.4 178.6 576 320 576zM208 192C199.2 192 192 199.2 192 208L192 432C192 440.8 199.2 448 208 448C216.8 448 224 440.8 224 432L224 375.5L247.9 355.6L289.7 439.2C293.7 447.1 303.3 450.3 311.2 446.4C319.1 442.5 322.3 432.8 318.4 424.9L273.2 334.6L314.3 300.4C321.1 294.7 322 284.7 316.3 277.9C310.6 271.1 300.6 270.2 293.8 275.9L224 333.8L224 208C224 199.2 216.8 192 208 192zM396.1 328.5C402.4 323 410.5 320 418.9 320L432 320C440.8 320 448 312.8 448 304C448 295.2 440.8 288 432 288L418.9 288C406.1 288 393.7 291.7 383 298.4C380.7 292.3 374.9 288 368 288C359.2 288 352 295.2 352 304L352 432C352 440.8 359.2 448 368 448C376.8 448 384 440.8 384 432L384 354.9C384 344.7 388.4 335.1 396.1 328.5z"/></svg>