<svg xmlns="http://www.w3.org/2000/svg" viewBox="0 0 640 640"><!--! Font Awesome Pro 7.1.0 by @fontawesome - https://fontawesome.com License - https://fontawesome.com/license (Commercial License) Copyright 2025 Fonticons, Inc. --><path fill="currentColor" d="M320 96C443.7 96 544 196.3 544 320C544 443.7 443.7 544 320 544C196.3 544 96 443.7 96 320C96 196.3 196.3 96 320 96zM320 576C461.4 576 576 461.4 576 320C576 178.6 461.4 64 320 64C178.6 64 64 178.6 64 320C64 461.4 178.6 576 320 576zM336 176C336 167.2 328.8 160 320 160C311.2 160 304 167.2 304 176L304 193.2C241.5 201.6 193.3 255.2 193.3 320C193.3 384.8 241.5 438.4 304 446.8L304 464C304 472.8 311.2 480 320 480C328.8 480 336 472.8 336 464L336 447.2C364.2 444 389.6 431.6 409.1 413.1C415.5 407 415.8 396.9 409.7 390.5C403.6 384.1 393.5 383.8 387.1 389.9C373.3 403 355.6 411.9 336 415L336 225.2C355.6 228.2 373.3 237.2 387.1 250.3C393.5 256.4 403.7 256.1 409.7 249.6C415.7 243.1 415.5 233 409.1 227C389.5 208.5 364.1 196.2 336 192.9L336 176.1zM225.3 320C225.3 272.9 259.3 233.7 304 225.5L304 414.4C259.2 406.3 225.3 367.1 225.3 319.9z"/></svg>