<svg xmlns="http://www.w3.org/2000/svg" viewBox="0 0 640 640"><!--! Font Awesome Pro 7.1.0 by @fontawesome - https://fontawesome.com License - https://fontawesome.com/license (Commercial License) Copyright 2025 Fonticons, Inc. --><path fill="currentColor" d="M320 96C443.7 96 544 196.3 544 320C544 443.7 443.7 544 320 544C196.3 544 96 443.7 96 320C96 196.3 196.3 96 320 96zM320 576C461.4 576 576 461.4 576 320C576 178.6 461.4 64 320 64C178.6 64 64 178.6 64 320C64 461.4 178.6 576 320 576zM249.6 214.3C257.7 211.2 266.8 215.1 270.1 223.1L279 244.5C281.7 250.9 279.9 258.4 274.6 262.9L262.8 272.9C257.4 277.5 255.7 285 258.4 291.4C275.7 331.5 307.2 364.1 346.6 382.8C353.2 385.9 361 384.2 365.7 378.7L377 365.4C381.5 360.1 388.9 358.3 395.4 361L416.8 369.9C424.8 373.2 428.7 382.4 425.6 390.4L424.8 392.4C416.8 413.1 396.7 427.3 375.1 423.2C294.8 408.3 231.6 345 216.6 264.7C212.6 243.1 226.7 223 247.4 215L249.4 214.2zM299.7 210.8C289.7 186.8 262.3 175.1 238.1 184.5L236.1 185.3C204.8 197.4 177.9 230.3 185.4 270.7C202.7 364 276.2 437.4 369.5 454.8C409.9 462.3 442.8 435.4 454.9 404.1L455.7 402.1C465.1 377.8 453.4 350.5 429.4 340.5L408 331.6C388.7 323.6 366.4 328.9 352.9 344.9L349.9 348.4C325.9 334.5 306.2 314.1 293.2 289.5L295.5 287.5C311.5 274 316.8 251.7 308.8 232.4L299.9 211z"/></svg>