<svg xmlns="http://www.w3.org/2000/svg" viewBox="0 0 640 640"><!--! Font Awesome Pro 7.1.0 by @fontawesome - https://fontawesome.com License - https://fontawesome.com/license (Commercial License) Copyright 2025 Fonticons, Inc. --><path fill="currentColor" d="M320 96C443.7 96 544 196.3 544 320C544 443.7 443.7 544 320 544C196.3 544 96 443.7 96 320C96 196.3 196.3 96 320 96zM320 576C461.4 576 576 461.4 576 320C576 178.6 461.4 64 320 64C178.6 64 64 178.6 64 320C64 461.4 178.6 576 320 576zM304 176L304 192L253.7 192C238.3 192 225.8 204.5 225.8 219.9L225.8 417.6C225.8 434.4 239.4 448 256.2 448L304.1 448L304.1 464C304.1 472.8 311.3 480 320.1 480C328.9 480 336.1 472.8 336.1 464L336.1 448L366.3 448C406.1 448 438.3 415.8 438.3 376C438.3 349.1 423.6 325.7 401.8 313.3C413.9 300.4 421.3 283.1 421.3 264C421.3 224.2 389.1 192 349.3 192L336 192L336 176C336 167.2 328.8 160 320 160C311.2 160 304 167.2 304 176zM257.8 224L304 224L304 304L257.8 304L257.8 224zM336 224L349.3 224C371.4 224 389.3 241.9 389.3 264C389.3 286.1 371.4 304 349.3 304L336 304L336 224zM257.8 336L304 336L304 416L257.8 416L257.8 336zM336 336L366.2 336C388.3 336 406.2 353.9 406.2 376C406.2 398.1 388.3 416 366.2 416L336 416L336 336z"/></svg>