<svg xmlns="http://www.w3.org/2000/svg" viewBox="0 0 640 640"><!--! Font Awesome Pro 7.1.0 by @fontawesome - https://fontawesome.com License - https://fontawesome.com/license (Commercial License) Copyright 2025 Fonticons, Inc. --><path fill="currentColor" d="M320 96C443.7 96 544 196.3 544 320C544 443.7 443.7 544 320 544C196.3 544 96 443.7 96 320C96 196.3 196.3 96 320 96zM320 576C461.4 576 576 461.4 576 320C576 178.6 461.4 64 320 64C178.6 64 64 178.6 64 320C64 461.4 178.6 576 320 576zM412.3 197.8C406.6 191 396.6 190.1 389.8 195.7L288 280.5L288 208C288 199.2 280.8 192 272 192C263.2 192 256 199.2 256 208L256 304.2L224.2 304.2C215.4 304.2 208.2 311.4 208.2 320.2C208.2 329 215.4 336.2 224.2 336.2L256 336.2L256 432C256 440.8 263.2 448 272 448C280.8 448 288 440.8 288 432L288 359.9L389.8 444.3C396.6 449.9 406.7 449 412.3 442.2C417.9 435.4 417 425.3 410.2 419.7L309.6 336.2L399.8 336.2C408.6 336.2 415.8 329 415.8 320.2C415.8 311.4 408.6 304.2 399.8 304.2L309.5 304.2L410.3 220.3C417.1 214.6 418 204.6 412.4 197.8z"/></svg>