<svg xmlns="http://www.w3.org/2000/svg" viewBox="0 0 640 640"><!--! Font Awesome Pro 7.1.0 by @fontawesome - https://fontawesome.com License - https://fontawesome.com/license (Commercial License) Copyright 2025 Fonticons, Inc. --><path fill="currentColor" d="M320.5 64C450.2 64 557.3 160.5 574.1 285.6C567.5 289.8 561.6 295.2 556.7 301.9L544.4 318.7C543.7 195.5 443.7 95.9 320.4 95.9C196.7 95.9 96.4 196.2 96.4 319.9C96.4 443.6 196.7 543.9 320.4 543.9C363.7 543.9 404.2 531.5 438.5 510.2L456.8 529.2C458.3 530.7 459.8 532.2 461.5 533.5C421.1 560.3 372.6 575.9 320.5 575.9C179.1 575.9 64.5 461.3 64.5 319.9C64.5 178.5 179.1 64 320.5 64zM595.6 330.2C600.8 323.1 610.8 321.5 617.9 326.7C625 331.9 626.6 341.9 621.4 349L515.8 494.2C513 498 508.7 500.4 504 500.7C499.3 501 494.7 499.3 491.4 495.9L437 439.6C430.9 433.2 431 423.1 437.4 417C443.8 410.9 453.9 411.1 460 417.4L501.2 460L595.6 330.2zM320.5 448C307.2 448 296.5 437.3 296.5 424C296.5 410.7 307.2 400 320.5 400C333.8 400 344.5 410.7 344.5 424C344.5 437.3 333.8 448 320.5 448zM320.5 192C334 192 344.8 203.4 344 216.9L336.4 352.9C335.9 361.4 328.9 368 320.4 368C311.9 368 304.9 361.4 304.4 352.9L296.8 216.9C296 203.4 306.8 192 320.3 192z"/></svg>