<svg xmlns="http://www.w3.org/2000/svg" viewBox="0 0 640 640"><!--! Font Awesome Pro 7.1.0 by @fontawesome - https://fontawesome.com License - https://fontawesome.com/license (Commercial License) Copyright 2025 Fonticons, Inc. --><path fill="currentColor" d="M310 416C312.9 404.9 316.7 394.2 321.4 384L320 384L256 384C196.1 384 145.9 425.1 131.9 480.6C90 439.9 64 383 64 320C64 196.3 164.3 96 288 96C395.3 96 485.1 171.5 506.9 272.3C518.4 272.9 529.6 274.6 540.4 277.2C520.1 156.2 414.8 64 288 64C146.6 64 32 178.6 32 320C32 461.4 146.6 576 288 576C304.7 576 321 574.4 336.8 571.4C330.5 562.1 325 552.1 320.4 541.7C309.8 543.2 299 544 288 544C240.5 544 196.5 529.2 160.3 504.1C164.3 454.8 205.6 416 256 416L310 416zM288 304C261.5 304 240 282.5 240 256C240 229.5 261.5 208 288 208C314.5 208 336 229.5 336 256C336 282.5 314.5 304 288 304zM208 256C208 300.2 243.8 336 288 336C332.2 336 368 300.2 368 256C368 211.8 332.2 176 288 176C243.8 176 208 211.8 208 256zM556 558.6C538.7 569.6 518.1 576 496 576C473.9 576 453.3 569.6 436 558.6C443.8 549.5 455.4 544 467.8 544L524.2 544C536.6 544 548.1 549.5 556 558.6zM580.3 537.8C566.5 521.7 546.1 512 524.2 512L467.8 512C446 512 425.6 521.6 411.7 537.8C394.4 518.1 384 492.3 384 464C384 402.1 434.1 352 496 352C557.9 352 608 402.1 608 464C608 492.2 597.5 518.1 580.3 537.8zM640 464C640 384.5 575.5 320 496 320C416.5 320 352 384.5 352 464C352 543.5 416.5 608 496 608C575.5 608 640 543.5 640 464zM496 416C509.3 416 520 426.7 520 440C520 453.3 509.3 464 496 464C482.7 464 472 453.3 472 440C472 426.7 482.7 416 496 416zM496 496C526.9 496 552 470.9 552 440C552 409.1 526.9 384 496 384C465.1 384 440 409.1 440 440C440 470.9 465.1 496 496 496z"/></svg>