<svg xmlns="http://www.w3.org/2000/svg" viewBox="0 0 640 640"><!--! Font Awesome Pro 7.1.0 by @fontawesome - https://fontawesome.com License - https://fontawesome.com/license (Commercial License) Copyright 2025 Fonticons, Inc. --><path fill="currentColor" d="M320 96C443.7 96 544 196.3 544 320C544 443.7 443.7 544 320 544C196.3 544 96 443.7 96 320C96 196.3 196.3 96 320 96zM320 576C461.4 576 576 461.4 576 320C576 178.6 461.4 64 320 64C178.6 64 64 178.6 64 320C64 461.4 178.6 576 320 576zM240 208L240 272L224 272C215.2 272 208 279.2 208 288C208 296.8 215.2 304 224 304L240 304L240 432C240 440.8 247.2 448 256 448C264.8 448 272 440.8 272 432L272 384L320 384C367.6 384 407 349.4 414.7 304L432 304C440.8 304 448 296.8 448 288C448 279.2 440.8 272 432 272L414.7 272C407.1 226.6 367.6 192 320 192L256 192C247.2 192 240 199.2 240 208zM320 224C349.8 224 374.9 244.4 382 272L272 272L272 224L320 224zM272 352L272 304L382 304C374.9 331.6 349.8 352 320 352L272 352z"/></svg>