<svg xmlns="http://www.w3.org/2000/svg" viewBox="0 0 640 640"><!--! Font Awesome Pro 7.1.0 by @fontawesome - https://fontawesome.com License - https://fontawesome.com/license (Commercial License) Copyright 2025 Fonticons, Inc. --><path fill="currentColor" d="M320 96C443.7 96 544 196.3 544 320C544 443.7 443.7 544 320 544C196.3 544 96 443.7 96 320C96 196.3 196.3 96 320 96zM320 576C461.4 576 576 461.4 576 320C576 178.6 461.4 64 320 64C178.6 64 64 178.6 64 320C64 461.4 178.6 576 320 576zM272 192C263.2 192 256 199.2 256 208L256 292.5L218.9 304.9C210.5 307.7 206 316.8 208.8 325.1C211.6 333.4 220.7 338 229 335.2L255.9 326.2L255.9 432C255.9 440.8 263.1 448 271.9 448L399.9 448C408.7 448 415.9 440.8 415.9 432C415.9 423.2 408.7 416 399.9 416L287.9 416L287.9 315.5L373 287.1C381.4 284.3 385.9 275.2 383.1 266.9C380.3 258.6 371.2 254 362.9 256.8L288 281.8L288 208C288 199.2 280.8 192 272 192z"/></svg>