<svg xmlns="http://www.w3.org/2000/svg" viewBox="0 0 640 640"><!--! Font Awesome Pro 7.1.0 by @fontawesome - https://fontawesome.com License - https://fontawesome.com/license (Commercial License) Copyright 2025 Fonticons, Inc. --><path fill="currentColor" d="M320 96C443.7 96 544 196.3 544 320C544 443.7 443.7 544 320 544C196.3 544 96 443.7 96 320C96 196.3 196.3 96 320 96zM320 576C461.4 576 576 461.4 576 320C576 178.6 461.4 64 320 64C178.6 64 64 178.6 64 320C64 461.4 178.6 576 320 576zM212.7 212.7C206.5 218.9 206.5 229.1 212.7 235.3L241.8 264.4C230.6 280.1 224 299.3 224 320C224 340.7 230.6 359.9 241.7 375.6L212.6 404.7C206.4 410.9 206.4 421.1 212.6 427.3C218.8 433.5 229 433.5 235.2 427.3L264.3 398.2C280.1 409.4 299.3 416 320 416C340.7 416 359.9 409.4 375.6 398.3L404.7 427.4C410.9 433.6 421.1 433.6 427.3 427.4C433.5 421.2 433.5 411 427.3 404.8L398.2 375.7C409.4 359.9 416 340.7 416 320C416 299.3 409.4 280.1 398.3 264.4L427.4 235.3C433.6 229.1 433.6 218.9 427.4 212.7C421.2 206.5 411 206.5 404.8 212.7L375.7 241.8C359.9 230.6 340.7 224 320 224C299.3 224 280.1 230.6 264.4 241.7L235.3 212.6C229.1 206.4 218.9 206.4 212.7 212.6zM320 256C355.3 256 384 284.7 384 320C384 355.3 355.3 384 320 384C284.7 384 256 355.3 256 320C256 284.7 284.7 256 320 256z"/></svg>