<svg xmlns="http://www.w3.org/2000/svg" viewBox="0 0 640 640"><!--! Font Awesome Pro 7.1.0 by @fontawesome - https://fontawesome.com License - https://fontawesome.com/license (Commercial License) Copyright 2025 Fonticons, Inc. --><path fill="currentColor" d="M320 96C443.7 96 544 196.3 544 320C544 443.7 443.7 544 320 544C196.3 544 96 443.7 96 320C96 196.3 196.3 96 320 96zM320 576C461.4 576 576 461.4 576 320C576 178.6 461.4 64 320 64C178.6 64 64 178.6 64 320C64 461.4 178.6 576 320 576zM256 368L256 278.6L388.7 411.3C394.9 417.5 405.1 417.5 411.3 411.3C417.5 405.1 417.5 394.9 411.3 388.7L278.6 256L368 256C376.8 256 384 248.8 384 240C384 231.2 376.8 224 368 224L240 224C231.2 224 224 231.2 224 240L224 368C224 376.8 231.2 384 240 384C248.8 384 256 376.8 256 368z"/></svg>