<svg xmlns="http://www.w3.org/2000/svg" viewBox="0 0 640 640"><!--! Font Awesome Pro 7.1.0 by @fontawesome - https://fontawesome.com License - https://fontawesome.com/license (Commercial License) Copyright 2025 Fonticons, Inc. --><path fill="currentColor" d="M310 416C312.9 404.9 316.7 394.2 321.4 384L320 384L256 384C196.1 384 145.9 425.1 131.9 480.6C90 439.9 64 383 64 320C64 196.3 164.3 96 288 96C395.3 96 485.1 171.5 506.9 272.3C518.4 272.9 529.6 274.6 540.4 277.2C520.1 156.2 414.8 64 288 64C146.6 64 32 178.6 32 320C32 461.4 146.6 576 288 576C304.7 576 321 574.4 336.8 571.4C330.5 562.1 325 552.1 320.4 541.7C309.8 543.2 299 544 288 544C240.5 544 196.5 529.2 160.3 504.1C164.3 454.8 205.6 416 256 416L310 416zM288 304C261.5 304 240 282.5 240 256C240 229.5 261.5 208 288 208C314.5 208 336 229.5 336 256C336 282.5 314.5 304 288 304zM208 256C208 300.2 243.8 336 288 336C332.2 336 368 300.2 368 256C368 211.8 332.2 176 288 176C243.8 176 208 211.8 208 256zM384 464C384 402.1 434.1 352 496 352C557.9 352 608 402.1 608 464C608 525.9 557.9 576 496 576C434.1 576 384 525.9 384 464zM640 464C640 384.5 575.5 320 496 320C416.5 320 352 384.5 352 464C352 543.5 416.5 608 496 608C575.5 608 640 543.5 640 464zM496 548C507 548 516 539 516 528C516 517 507 508 496 508C485 508 476 517 476 528C476 539 485 548 496 548zM496 408C509.3 408 520 418.7 520 432C520 439.2 515.8 445.7 509.2 448.6L496.8 454.1C486.6 458.6 480 468.8 480 480C480 488.8 487.2 496 496 496C504 496 510.6 490.1 511.8 482.5L522.2 477.9C540.3 469.8 552 451.9 552 432C552 401.1 526.9 376 496 376C468.9 376 446.3 395.2 441.1 420.8C439.3 429.5 444.9 437.9 453.6 439.7C462.3 441.5 470.7 435.9 472.5 427.2C474.7 416.2 484.4 408 496 408z"/></svg>