<svg xmlns="http://www.w3.org/2000/svg" viewBox="0 0 640 640"><!--! Font Awesome Pro 7.1.0 by @fontawesome - https://fontawesome.com License - https://fontawesome.com/license (Commercial License) Copyright 2025 Fonticons, Inc. --><path fill="currentColor" d="M491.3 68.7C485.1 62.5 474.9 62.5 468.7 68.7L68.7 468.7C62.5 474.9 62.5 485.1 68.7 491.3C122.9 545.5 196.5 576 273.2 576L277.2 576C442.2 576 576 442.2 576 277.2L576 273.2C576 196.5 545.5 123 491.3 68.7zM342.8 239.8L432.2 150.4C453.7 175.6 469.1 206.3 475.9 240.1L342.9 240.1C342.8 240 342.8 240 342.7 239.9zM359.6 272L479.9 272C480 274.7 480.1 277.3 480.1 280C480.1 329.5 462.1 374.7 432.4 409.7L349.9 327.2C360.6 310.7 363.9 290.7 359.7 272zM409.7 432.3C374.8 462.1 329.5 480 280 480C277.3 480 274.7 479.9 272 479.8L272 357.8C290.4 362.4 310.2 359.6 326.9 349.4L409.7 432.2zM240 476C206.3 469.1 175.6 453.8 150.3 432.3L240 342.6L240 476zM512 280C512 221.7 490.5 168.4 455 127.7L479.6 103C521 149.8 544 210.3 544 273.1L544 277.1C544 424.5 424.5 544 277.2 544L273.2 544C210.3 544 149.8 521 103 479.6L127.7 455C168.5 490.5 221.7 512 280 512C408.1 512 512 408.1 512 280zM320.2 262.5C333.3 278.2 332.4 301.6 317.7 316.3C303 331 279.6 331.9 263.9 318.8L320.2 262.5z"/></svg>