<svg xmlns="http://www.w3.org/2000/svg" viewBox="0 0 640 640"><!--! Font Awesome Pro 7.1.0 by @fontawesome - https://fontawesome.com License - https://fontawesome.com/license (Commercial License) Copyright 2025 Fonticons, Inc. --><path fill="currentColor" d="M448 160C483.3 160 512 131.3 512 96L448 96C412.7 96 384 124.7 384 160L448 160zM448 192L368 192C359.2 192 352 184.8 352 176L352 160C352 150 353.5 140.3 356.4 131.2C344.6 129.1 332.4 128 320 128C205.1 128 112 221.1 112 336C112 450.9 205.1 544 320 544C434.9 544 528 450.9 528 336C528 297.5 517.6 261.5 499.3 230.6C509.4 226.8 518.9 221.8 527.8 215.9C548.3 251.2 560 292.3 560 336C560 468.5 452.5 576 320 576C187.5 576 80 468.5 80 336C80 203.5 187.5 96 320 96C337.8 96 355.1 97.9 371.8 101.6C389.3 78.7 417 64 448 64L528 64C536.8 64 544 71.2 544 80L544 96C544 149 501 192 448 192z"/></svg>