<svg xmlns="http://www.w3.org/2000/svg" viewBox="0 0 640 640"><!--! Font Awesome Pro 7.1.0 by @fontawesome - https://fontawesome.com License - https://fontawesome.com/license (Commercial License) Copyright 2025 Fonticons, Inc. --><path fill="currentColor" d="M320 96L416 96C433.7 96 448 110.3 448 128L448 272C448 280.8 455.2 288 464 288L544 288C561.7 288 576 302.3 576 320L576 512C576 529.7 561.7 544 544 544L320 544C302.3 544 288 529.7 288 512L288 128C288 110.3 302.3 96 320 96zM256 512C256 523.7 259.1 534.6 264.6 544L96 544C78.3 544 64 529.7 64 512L64 224C64 206.3 78.3 192 96 192L256 192L256 512zM256 128L256 160L216 160L216 80C216 71.2 208.8 64 200 64C191.2 64 184 71.2 184 80L184 160L128 160L128 80C128 71.2 120.8 64 112 64C103.2 64 96 71.2 96 80L96 160C60.7 160 32 188.7 32 224L32 512C32 547.3 60.7 576 96 576L544 576C579.3 576 608 547.3 608 512L608 320C608 284.7 579.3 256 544 256L480 256L480 128C480 92.7 451.3 64 416 64L320 64C284.7 64 256 92.7 256 128zM344 168L344 184C344 192.8 351.2 200 360 200L376 200C384.8 200 392 192.8 392 184L392 168C392 159.2 384.8 152 376 152L360 152C351.2 152 344 159.2 344 168zM360 248C351.2 248 344 255.2 344 264L344 280C344 288.8 351.2 296 360 296L376 296C384.8 296 392 288.8 392 280L392 264C392 255.2 384.8 248 376 248L360 248zM344 360L344 376C344 384.8 351.2 392 360 392L376 392C384.8 392 392 384.8 392 376L392 360C392 351.2 384.8 344 376 344L360 344C351.2 344 344 351.2 344 360zM136 248C127.2 248 120 255.2 120 264L120 280C120 288.8 127.2 296 136 296L152 296C160.8 296 168 288.8 168 280L168 264C168 255.2 160.8 248 152 248L136 248zM120 360L120 376C120 384.8 127.2 392 136 392L152 392C160.8 392 168 384.8 168 376L168 360C168 351.2 160.8 344 152 344L136 344C127.2 344 120 351.2 120 360zM488 344C479.2 344 472 351.2 472 360L472 376C472 384.8 479.2 392 488 392L504 392C512.8 392 520 384.8 520 376L520 360C520 351.2 512.8 344 504 344L488 344z"/></svg>