<svg xmlns="http://www.w3.org/2000/svg" viewBox="0 0 640 640"><!--! Font Awesome Pro 7.1.0 by @fontawesome - https://fontawesome.com License - https://fontawesome.com/license (Commercial License) Copyright 2025 Fonticons, Inc. --><path fill="currentColor" d="M512 160L398.6 160L302.6 256L387.1 256C368.7 264 351.8 274.9 337 288L96 288L96 448C96 465.7 110.3 480 128 480L278 480C280.9 491.1 284.7 501.8 289.4 512L128 512C92.7 512 64 483.3 64 448L64 192C64 156.7 92.7 128 128 128L512 128C547.3 128 576 156.7 576 192L576 276C565.1 268.1 553.3 261.4 540.9 256L544 256L544 192C544 186.9 542.8 182.2 540.7 177.9L478.1 240.5C473.4 240.2 468.7 240 464 240C452.6 240 441.3 241 430.5 242.9L513.3 160C512.9 160 512.4 160 512 160zM97.4 256L193.4 160L128 160C110.3 160 96 174.3 96 192L96 256L97.4 256zM142.7 256L257.4 256L353.4 160L238.7 160L142.7 256zM464 544C525.9 544 576 493.9 576 432C576 370.1 525.9 320 464 320C402.1 320 352 370.1 352 432C352 493.9 402.1 544 464 544zM464 288C543.5 288 608 352.5 608 432C608 511.5 543.5 576 464 576C384.5 576 320 511.5 320 432C320 352.5 384.5 288 464 288zM424.1 362.1C429.1 359.3 435.3 359.3 440.2 362.3L533.5 418.3C538.3 421.2 541.3 426.4 541.3 432C541.3 437.6 538.3 442.8 533.5 445.7L440.2 501.7C435.3 504.7 429.1 504.7 424.1 501.9C419.1 499.1 416 493.8 416 488L416 376C416 370.2 419.1 364.9 424.1 362.1zM448 459.7L494.2 432L448 404.3L448 459.8z"/></svg>