<svg xmlns="http://www.w3.org/2000/svg" viewBox="0 0 640 640"><!--! Font Awesome Pro 7.1.0 by @fontawesome - https://fontawesome.com License - https://fontawesome.com/license (Commercial License) Copyright 2025 Fonticons, Inc. --><path fill="currentColor" d="M635.8 48.2C628.7 35.7 614.1 29.4 600.2 32.9L472.2 65C466.6 66.4 461.4 69.3 457.3 73.4L142.7 388C132.2 398.5 119.3 406.5 105.2 411.2L37.9 433.6C27.4 437.1 19.4 445.8 16.9 456.6C14.4 467.4 17.6 478.7 25.4 486.6C36.7 475.3 36.7 475.3 25.4 486.6L137.4 598.6C145.2 606.4 156.6 609.7 167.4 607.1C178.2 604.5 186.9 596.6 190.4 586.1L212.8 518.8C217.5 504.7 225.5 491.8 236 481.3L630.6 86.6C640.8 76.4 642.9 60.7 635.8 48.2zM480 96L608 64L523.3 148.7L475.3 100.7L480 96zM452.7 123.3L500.7 171.3L213.4 458.6C199.3 472.7 188.8 489.8 182.5 508.6L160 576L48 464L115.3 441.5C134.2 435.2 151.3 424.6 165.3 410.6L452.7 123.3zM424 216C432.8 216 440 208.8 440 200C440 191.2 432.8 184 424 184C415.2 184 408 191.2 408 200C408 208.8 415.2 216 424 216zM232 408C240.8 408 248 400.8 248 392C248 383.2 240.8 376 232 376C223.2 376 216 383.2 216 392C216 400.8 223.2 408 232 408zM376 264C376 255.2 368.8 248 360 248C351.2 248 344 255.2 344 264C344 272.8 351.2 280 360 280C368.8 280 376 272.8 376 264zM296 344C304.8 344 312 336.8 312 328C312 319.2 304.8 312 296 312C287.2 312 280 319.2 280 328C280 336.8 287.2 344 296 344z"/></svg>