<svg xmlns="http://www.w3.org/2000/svg" viewBox="0 0 640 640"><!--! Font Awesome Pro 7.1.0 by @fontawesome - https://fontawesome.com License - https://fontawesome.com/license (Commercial License) Copyright 2025 Fonticons, Inc. --><path fill="currentColor" d="M68.7 68.7C74.9 62.5 85.1 62.5 91.3 68.7L202.9 180.3C216.4 193.8 224 212.1 224 231.2L224 256L248.8 256C267.9 256 286.2 263.6 299.7 277.1L394.9 372.3C408.4 385.8 416 404.1 416 423.2L416 448L440.8 448C459.9 448 478.2 455.6 491.7 469.1L571.3 548.7C577.5 554.9 577.5 565.1 571.3 571.3C565.1 577.5 554.9 577.5 548.7 571.3L469.1 491.7C461.6 484.2 451.4 480 440.8 480L400 480C391.2 480 384 472.8 384 464L384 423.2C384 412.6 379.8 402.4 372.3 394.9L277.1 299.7C269.6 292.2 259.4 288 248.8 288L208 288C199.2 288 192 280.8 192 272L192 231.2C192 220.6 187.8 210.4 180.3 202.9L68.7 91.3C62.5 85.1 62.5 74.9 68.7 68.7zM68.7 292.7C74.9 286.5 85.1 286.5 91.3 292.7L173.2 374.6C185.2 386.6 191.9 402.9 191.9 419.9L191.9 448L220 448C237 448 253.3 454.7 265.3 466.7L347.2 548.6C353.4 554.8 353.4 565 347.2 571.2C341 577.4 330.8 577.4 324.6 571.2L242.7 489.3C236.7 483.3 228.6 479.9 220.1 479.9L176 480C167.2 480 160 472.8 160 464L160 419.9C160 411.4 156.6 403.3 150.6 397.3L68.7 315.3C62.5 309.1 62.5 298.9 68.7 292.7zM315.3 68.7L333.2 86.6C345.2 98.6 351.9 114.9 351.9 131.9L351.9 160L380 160C397 160 413.3 166.7 425.3 178.7L461.2 214.6C473.2 226.6 479.9 242.9 479.9 259.9L479.9 288L508 288C525 288 541.3 294.7 553.3 306.7L571.2 324.6C577.4 330.8 577.4 341 571.2 347.2C565 353.4 554.8 353.4 548.6 347.2L530.7 329.3C524.7 323.3 516.6 319.9 508.1 319.9L464 320C455.2 320 448 312.8 448 304L448 259.9C448 251.4 444.6 243.3 438.6 237.3L402.7 201.4C396.7 195.4 388.6 192 380.1 192L336 192C327.2 192 320 184.8 320 176L320 131.9C320 123.4 316.6 115.3 310.6 109.3L292.7 91.3C286.5 85.1 286.5 74.9 292.7 68.7C298.9 62.5 309.1 62.5 315.3 68.7z"/></svg>