<svg xmlns="http://www.w3.org/2000/svg" viewBox="0 0 640 640"><!--! Font Awesome Pro 7.1.0 by @fontawesome - https://fontawesome.com License - https://fontawesome.com/license (Commercial License) Copyright 2025 Fonticons, Inc. --><path fill="currentColor" d="M264 144L376 144C389.3 144 400 133.3 400 120C400 106.7 389.3 96 376 96L264 96C250.7 96 240 106.7 240 120C240 133.3 250.7 144 264 144zM264 176C235.8 176 212.4 155.1 208.6 128L192 128C174.3 128 160 142.3 160 160L160 512C160 529.7 174.3 544 192 544L448 544C465.7 544 480 529.7 480 512L480 160C480 142.3 465.7 128 448 128L431.4 128C427.5 155.1 404.2 176 376 176L264 176zM376 64C398.3 64 417.6 77.1 426.6 96L448 96C483.3 96 512 124.7 512 160L512 512C512 547.3 483.3 576 448 576L192 576C156.7 576 128 547.3 128 512L128 160C128 124.7 156.7 96 192 96L213.4 96C222.4 77.1 241.7 64 264 64L376 64zM240 256L296 256C326.9 256 352 281.1 352 312C352 337.4 335.1 358.8 311.9 365.7L348 397.3L388.6 356.7C394.8 350.5 405 350.5 411.2 356.7C417.4 362.9 417.4 373.1 411.2 379.3L372.1 418.4L410.4 451.9C417 457.7 417.7 467.8 411.9 474.5C406.1 481.2 396 481.8 389.3 476L349.4 441.1L315.2 475.3C309 481.5 298.8 481.5 292.6 475.3C286.4 469.1 286.4 458.9 292.6 452.7L325.3 420L265.9 368L255.9 368L255.9 416C255.9 424.8 248.7 432 239.9 432C231.1 432 223.9 424.8 223.9 416L223.9 272C223.9 263.2 231.1 256 239.9 256zM296 336C309.3 336 320 325.3 320 312C320 298.7 309.3 288 296 288L256 288L256 336L296 336z"/></svg>