<svg xmlns="http://www.w3.org/2000/svg" viewBox="0 0 640 640"><!--! Font Awesome Pro 7.1.0 by @fontawesome - https://fontawesome.com License - https://fontawesome.com/license (Commercial License) Copyright 2025 Fonticons, Inc. --><path fill="currentColor" d="M264 144L376 144C389.3 144 400 133.3 400 120C400 106.7 389.3 96 376 96L264 96C250.7 96 240 106.7 240 120C240 133.3 250.7 144 264 144zM264 176C235.8 176 212.4 155.1 208.6 128L192 128C174.3 128 160 142.3 160 160L160 512C160 529.7 174.3 544 192 544L448 544C465.7 544 480 529.7 480 512L480 160C480 142.3 465.7 128 448 128L431.4 128C427.5 155.1 404.2 176 376 176L264 176zM376 64C398.3 64 417.6 77.1 426.6 96L448 96C483.3 96 512 124.7 512 160L512 512C512 547.3 483.3 576 448 576L192 576C156.7 576 128 547.3 128 512L128 160C128 124.7 156.7 96 192 96L213.4 96C222.4 77.1 241.7 64 264 64L376 64zM320 272C299.4 272 282.8 288.7 282.8 309.2C282.8 318 275.6 325.2 266.8 325.2C258 325.2 250.8 318 250.8 309.2C250.8 271 281.8 240 320 240C358.2 240 389.2 271 389.2 309.2C389.2 345 364.9 362.9 347.1 370.9C339.3 374.4 336 380.1 336 384C336 392.8 328.8 400 320 400C311.2 400 304 392.8 304 384C304 363.2 319.3 348.3 334.1 341.7C346.3 336.3 357.3 327 357.3 309.2C357.3 288.6 340.6 272 320.1 272zM300 448C300 437 309 428 320 428C331 428 340 437 340 448C340 459 331 468 320 468C309 468 300 459 300 448z"/></svg>