<svg xmlns="http://www.w3.org/2000/svg" viewBox="0 0 640 640"><!--! Font Awesome Pro 7.1.0 by @fontawesome - https://fontawesome.com License - https://fontawesome.com/license (Commercial License) Copyright 2025 Fonticons, Inc. --><path fill="currentColor" d="M264 144L376 144C389.3 144 400 133.3 400 120C400 106.7 389.3 96 376 96L264 96C250.7 96 240 106.7 240 120C240 133.3 250.7 144 264 144zM264 176C235.8 176 212.4 155.1 208.6 128L192 128C174.3 128 160 142.3 160 160L160 512C160 529.7 174.3 544 192 544L448 544C465.7 544 480 529.7 480 512L480 160C480 142.3 465.7 128 448 128L431.4 128C427.5 155.1 404.2 176 376 176L264 176zM376 64C398.3 64 417.6 77.1 426.6 96L448 96C483.3 96 512 124.7 512 160L512 512C512 547.3 483.3 576 448 576L192 576C156.7 576 128 547.3 128 512L128 160C128 124.7 156.7 96 192 96L213.4 96C222.4 77.1 241.7 64 264 64L376 64zM304 256L336 256C353.7 256 368 270.3 368 288L368 304L384 304C401.7 304 416 318.3 416 336L416 368C416 385.7 401.7 400 384 400L368 400L368 416C368 433.7 353.7 448 336 448L304 448C286.3 448 272 433.7 272 416L272 400L256 400C238.3 400 224 385.7 224 368L224 336C224 318.3 238.3 304 256 304L272 304L272 288C272 270.3 286.3 256 304 256zM336 392L336 376C336 371.6 339.6 368 344 368L384 368L384 336L344 336C339.6 336 336 332.4 336 328L336 288L304 288L304 328C304 332.4 300.4 336 296 336L256 336L256 368L296 368C300.4 368 304 371.6 304 376L304 416L336 416L336 392z"/></svg>