<svg xmlns="http://www.w3.org/2000/svg" viewBox="0 0 640 640"><!--! Font Awesome Pro 7.1.0 by @fontawesome - https://fontawesome.com License - https://fontawesome.com/license (Commercial License) Copyright 2025 Fonticons, Inc. --><path fill="currentColor" d="M376 64C398.3 64 417.6 77.1 426.6 96L448 96C483.3 96 512 124.7 512 160L512 512C512 547.3 483.3 576 448 576L192 576C156.7 576 128 547.3 128 512L128 160C128 124.7 156.7 96 192 96L213.4 96C222.4 77.1 241.7 64 264 64L376 64zM192 128C174.3 128 160 142.3 160 160L160 512C160 529.7 174.3 544 192 544L448 544C465.7 544 480 529.7 480 512L480 160C480 142.3 465.7 128 448 128L431.4 128C427.5 155.1 404.2 176 376 176L264 176C235.8 176 212.4 155.1 208.6 128L192 128zM320 432C333.3 432 344 442.7 344 456C344 469.3 333.3 480 320 480C306.7 480 296 469.3 296 456C296 442.7 306.7 432 320 432zM320 224C333.5 224 344.3 235.4 343.5 248.9L335.9 384.9C335.4 393.4 328.4 400 319.9 400C311.4 400 304.4 393.4 303.9 384.9L296.3 248.9C295.5 235.4 306.3 224 319.8 224zM264 96C250.7 96 240 106.7 240 120C240 133.3 250.7 144 264 144L376 144C389.3 144 400 133.3 400 120C400 106.7 389.3 96 376 96L264 96z"/></svg>