<svg xmlns="http://www.w3.org/2000/svg" viewBox="0 0 640 640"><!--! Font Awesome Pro 7.1.0 by @fontawesome - https://fontawesome.com License - https://fontawesome.com/license (Commercial License) Copyright 2025 Fonticons, Inc. --><path fill="currentColor" d="M264 144L376 144C389.3 144 400 133.3 400 120C400 106.7 389.3 96 376 96L264 96C250.7 96 240 106.7 240 120C240 133.3 250.7 144 264 144zM264 176C235.8 176 212.4 155.1 208.6 128L192 128C174.3 128 160 142.3 160 160L160 512C160 529.7 174.3 544 192 544L448 544C465.7 544 480 529.7 480 512L480 160C480 142.3 465.7 128 448 128L431.4 128C427.5 155.1 404.2 176 376 176L264 176zM376 64C398.3 64 417.6 77.1 426.6 96L448 96C483.3 96 512 124.7 512 160L512 512C512 547.3 483.3 576 448 576L192 576C156.7 576 128 547.3 128 512L128 160C128 124.7 156.7 96 192 96L213.4 96C222.4 77.1 241.7 64 264 64L376 64zM352 336C352 318.3 337.7 304 320 304C302.3 304 288 318.3 288 336C288 353.7 302.3 368 320 368C337.7 368 352 353.7 352 336zM256 336C256 300.7 284.7 272 320 272C355.3 272 384 300.7 384 336C384 371.3 355.3 400 320 400C284.7 400 256 371.3 256 336zM230.6 496C219.8 496 211.6 485.9 216.4 476.2C229.5 450 256.6 432 288 432L352 432C383.3 432 410.4 450 423.6 476.2C428.5 485.9 420.3 496 409.4 496C402.1 496 395.9 491.2 391.8 485.2C383.2 472.4 368.6 464 352 464L288 464C271.4 464 256.8 472.4 248.2 485.2C244.1 491.2 237.9 496 230.6 496z"/></svg>