<svg xmlns="http://www.w3.org/2000/svg" viewBox="0 0 640 640"><!--! Font Awesome Pro 7.1.0 by @fontawesome - https://fontawesome.com License - https://fontawesome.com/license (Commercial License) Copyright 2025 Fonticons, Inc. --><path fill="currentColor" d="M264 144L376 144C389.3 144 400 133.3 400 120C400 106.7 389.3 96 376 96L264 96C250.7 96 240 106.7 240 120C240 133.3 250.7 144 264 144zM264 176C235.8 176 212.4 155.1 208.6 128L192 128C174.3 128 160 142.3 160 160L160 512C160 529.7 174.3 544 192 544L448 544C465.7 544 480 529.7 480 512L480 160C480 142.3 465.7 128 448 128L431.4 128C427.5 155.1 404.2 176 376 176L264 176zM376 64C398.3 64 417.6 77.1 426.6 96L448 96C483.3 96 512 124.7 512 160L512 512C512 547.3 483.3 576 448 576L192 576C156.7 576 128 547.3 128 512L128 160C128 124.7 156.7 96 192 96L213.4 96C222.4 77.1 241.7 64 264 64L376 64zM320 288C311.2 288 304 280.8 304 272C304 263.2 311.2 256 320 256L416 256C424.8 256 432 263.2 432 272C432 280.8 424.8 288 416 288L320 288zM320 448L416 448C424.8 448 432 455.2 432 464C432 472.8 424.8 480 416 480L320 480C311.2 480 304 472.8 304 464C304 455.2 311.2 448 320 448zM264 464C264 477.3 253.3 488 240 488C226.7 488 216 477.3 216 464C216 450.7 226.7 440 240 440C253.3 440 264 450.7 264 464zM240 248C253.3 248 264 258.7 264 272C264 285.3 253.3 296 240 296C226.7 296 216 285.3 216 272C216 258.7 226.7 248 240 248zM336 368C336 359.2 343.2 352 352 352L416 352C424.8 352 432 359.2 432 368C432 376.8 424.8 384 416 384L352 384C343.2 384 336 376.8 336 368zM299.5 346.1L254.2 402.1C251.2 405.9 246.6 408 241.7 408C236.8 408 232.3 405.8 229.3 402L204.4 370.9C198.9 364 200 353.9 206.9 348.4C213.8 342.9 223.9 344 229.4 350.9L241.9 366.5L274.7 326C280.3 319.1 290.3 318.1 297.2 323.6C304.1 329.1 305.1 339.2 299.6 346.1z"/></svg>