<svg xmlns="http://www.w3.org/2000/svg" viewBox="0 0 640 640"><!--! Font Awesome Pro 7.1.0 by @fontawesome - https://fontawesome.com License - https://fontawesome.com/license (Commercial License) Copyright 2025 Fonticons, Inc. --><path fill="currentColor" d="M544 320C544 443.7 443.7 544 320 544C196.3 544 96 443.7 96 320C96 196.3 196.3 96 320 96C443.7 96 544 196.3 544 320zM64 320C64 461.4 178.6 576 320 576C461.4 576 576 461.4 576 320C576 178.6 461.4 64 320 64C178.6 64 64 178.6 64 320zM304 176L304 315.2L242.7 407.2C237.8 414.6 239.8 424.5 247.1 429.4C254.4 434.3 264.4 432.3 269.3 425L333.3 329C335.1 326.4 336 323.3 336 320.1L336 176.1C336 167.3 328.8 160.1 320 160.1C311.2 160.1 304 167.3 304 176.1z"/></svg>