<svg xmlns="http://www.w3.org/2000/svg" viewBox="0 0 640 640"><!--! Font Awesome Pro 7.1.0 by @fontawesome - https://fontawesome.com License - https://fontawesome.com/license (Commercial License) Copyright 2025 Fonticons, Inc. --><path fill="currentColor" d="M544 320C544 443.7 443.7 544 320 544C196.3 544 96 443.7 96 320C96 196.3 196.3 96 320 96C443.7 96 544 196.3 544 320zM64 320C64 461.4 178.6 576 320 576C461.4 576 576 461.4 576 320C576 178.6 461.4 64 320 64C178.6 64 64 178.6 64 320zM304 176L304 320C304 328.8 311.2 336 320 336L432 336C440.8 336 448 328.8 448 320C448 311.2 440.8 304 432 304L336 304L336 176C336 167.2 328.8 160 320 160C311.2 160 304 167.2 304 176z"/></svg>