<svg xmlns="http://www.w3.org/2000/svg" viewBox="0 0 640 640"><!--! Font Awesome Pro 7.1.0 by @fontawesome - https://fontawesome.com License - https://fontawesome.com/license (Commercial License) Copyright 2025 Fonticons, Inc. --><path fill="currentColor" d="M128 288C128 182 214 96 320 96C426 96 512 182 512 288C512 394 426 480 320 480C214 480 128 394 128 288zM512 403.4L512 512C512 529.7 497.7 544 480 544L160 544C142.3 544 128 529.7 128 512L128 403.4C167.2 468.5 238.5 512 320 512C401.5 512 472.8 468.5 512 403.4zM96 288L96 512C96 547.3 124.7 576 160 576L480 576C515.3 576 544 547.3 544 512L544 288C544 164.3 443.7 64 320 64C196.3 64 96 164.3 96 288zM320 160C311.2 160 304 167.2 304 176L304 288C304 292.2 305.7 296.3 308.7 299.3L356.7 347.3C362.9 353.5 373.1 353.5 379.3 347.3C385.5 341.1 385.5 330.9 379.3 324.7L336 281.4L336 176C336 167.2 328.8 160 320 160z"/></svg>