<svg xmlns="http://www.w3.org/2000/svg" viewBox="0 0 640 640"><!--! Font Awesome Pro 7.1.0 by @fontawesome - https://fontawesome.com License - https://fontawesome.com/license (Commercial License) Copyright 2025 Fonticons, Inc. --><path fill="currentColor" d="M96 320C96 443.7 196.3 544 320 544C443.7 544 544 443.7 544 320C544 196.3 443.7 96 320 96C196.3 96 96 196.3 96 320zM576 320C576 461.4 461.4 576 320 576C178.6 576 64 461.4 64 320C64 178.6 178.6 64 320 64C461.4 64 576 178.6 576 320zM304 464L304 324.8L242.7 232.8C237.8 225.4 239.8 215.5 247.1 210.6C254.4 205.7 264.4 207.7 269.3 215L333.3 311C335.1 313.6 336 316.7 336 319.9L336 463.9C336 472.7 328.8 479.9 320 479.9C311.2 479.9 304 472.7 304 463.9z"/></svg>