<svg xmlns="http://www.w3.org/2000/svg" viewBox="0 0 640 640"><!--! Font Awesome Pro 7.1.0 by @fontawesome - https://fontawesome.com License - https://fontawesome.com/license (Commercial License) Copyright 2025 Fonticons, Inc. --><path fill="currentColor" d="M128 544L352 544C369.7 544 384 529.7 384 512L384 464L416 464L416 512C416 547.3 387.3 576 352 576L128 576C92.7 576 64 547.3 64 512L64 288C64 252.7 92.7 224 128 224L176 224L176 256L128 256C110.3 256 96 270.3 96 288L96 512C96 529.7 110.3 544 128 544zM544 352L544 128C544 110.3 529.7 96 512 96L288 96C270.3 96 256 110.3 256 128L256 352C256 369.7 270.3 384 288 384L512 384C529.7 384 544 369.7 544 352zM288 416C252.7 416 224 387.3 224 352L224 128C224 92.7 252.7 64 288 64L512 64C547.3 64 576 92.7 576 128L576 352C576 387.3 547.3 416 512 416L288 416zM384 312L384 256L328 256C319.2 256 312 248.8 312 240C312 231.2 319.2 224 328 224L384 224L384 168C384 159.2 391.2 152 400 152C408.8 152 416 159.2 416 168L416 224L472 224C480.8 224 488 231.2 488 240C488 248.8 480.8 256 472 256L416 256L416 312C416 320.8 408.8 328 400 328C391.2 328 384 320.8 384 312z"/></svg>