<svg xmlns="http://www.w3.org/2000/svg" viewBox="0 0 640 640"><!--! Font Awesome Pro 7.1.0 by @fontawesome - https://fontawesome.com License - https://fontawesome.com/license (Commercial License) Copyright 2025 Fonticons, Inc. --><path fill="currentColor" d="M59.3 36.8C53.1 30.6 42.9 30.6 36.7 36.8C30.5 43 30.5 53.2 36.7 59.4L580.7 603.4C586.9 609.6 597.1 609.6 603.3 603.4C609.5 597.2 609.5 587 603.3 580.8L531.5 509C557.3 500.8 576 476.6 576 448L576 192C576 156.7 547.3 128 512 128L150.5 128L59.3 36.8zM182.5 160L512 160C529.7 160 544 174.3 544 192L544 448C544 465.7 529.7 480 512 480L502.5 480L437 414.5C461.7 408.6 480 386.5 480 360C480 351.2 472.8 344 464 344C455.2 344 448 351.2 448 360C448 373.3 437.3 384 424 384L406.5 384L368 345.5L368 280C368 266.7 378.7 256 392 256L424 256C437.3 256 448 266.7 448 280C448 288.8 455.2 296 464 296C472.8 296 480 288.8 480 280C480 249.1 454.9 224 424 224L392 224C361.1 224 336 249.1 336 280L336 313.5L182.5 160zM71.5 162C66.7 171 64 181.2 64 192L64 448C64 483.3 92.7 512 128 512L421.5 512L389.5 480L128 480C110.3 480 96 465.7 96 448L96 192C96 190.3 96.1 188.6 96.4 186.9L71.5 162zM165.5 256C162 263.3 160.1 271.5 160.1 280.1L160.1 360.1C160.1 391 185.2 416.1 216.1 416.1L248.1 416.1C269.1 416.1 287.4 404.6 297 387.5L272 362.5C270.7 374.5 260.4 384 248 384L216 384C202.7 384 192 373.3 192 360L192 282.5L165.4 255.9z"/></svg>