<svg xmlns="http://www.w3.org/2000/svg" viewBox="0 0 640 640"><!--! Font Awesome Pro 7.1.0 by @fontawesome - https://fontawesome.com License - https://fontawesome.com/license (Commercial License) Copyright 2025 Fonticons, Inc. --><path fill="currentColor" d="M240 96C279.9 96 313 125.2 319 163.4C319.9 169 323.7 173.7 328.9 175.8C334.1 177.9 340.2 177 344.6 173.5C355.5 165 369.1 160 383.9 160C419.2 160 447.9 188.7 447.9 224C458.9 224 469.6 225.4 479.8 228C479.9 226.7 479.9 225.3 479.9 224C479.9 171 436.9 128 383.9 128C369.9 128 356.7 131 344.7 136.4C328.7 94.1 287.8 64 239.9 64C184.1 64 137 106.3 129.1 160L128 160C75 160 32 203 32 256C32 308.6 75.9 351.3 128.4 352C133.4 347.7 138.8 343.8 144.4 340.4C144.9 333.5 145.8 326.7 147.2 320.1L128 320C92.7 320 64 291.3 64 256C64 220.7 92.7 192 128 192C132.4 192 136.7 192.4 140.8 193.3C145.6 194.3 150.5 193 154.2 189.9C157.9 186.8 160.1 182.2 160 177.3C159.3 133.3 196 96 240 96zM224 352C224 307.8 259.8 272 304 272C338.2 272 367.4 293.4 378.8 323.6C381 329.3 386.1 333.2 392.2 333.8C398.3 334.4 404.1 331.5 407.3 326.4C415.8 312.9 430.9 303.9 448 303.9C474.5 303.9 496 325.4 496 351.9C496 356.1 495.5 360.1 494.5 363.9C493.2 368.8 494.3 373.9 497.5 377.8C500.7 381.7 505.4 384 510.4 383.8C510.9 383.8 511.5 383.8 512 383.8C547.3 383.8 576 412.5 576 447.8C576 483.1 547.3 511.8 512 511.8L216 511.8C185.1 511.8 160 486.7 160 455.8C160 425.5 184 400.9 214 399.8C219.1 399.6 223.8 397 226.7 392.8C229.6 388.6 230.3 383.3 228.6 378.5C225.7 370.2 224 361.2 224 351.8zM304 240C242.1 240 192 290.1 192 352C192 358.4 192.5 364.7 193.6 370.9C155.9 380.8 128 415.2 128 456C128 504.6 167.4 544 216 544L512 544C565 544 608 501 608 448C608 400.4 573.4 360.9 528 353.3C528.7 308.8 492.6 272 448 272C428.8 272 411.1 278.8 397.3 290.1C377.2 259.9 342.9 240 304 240z"/></svg>