<svg xmlns="http://www.w3.org/2000/svg" viewBox="0 0 640 640"><!--! Font Awesome Pro 7.1.0 by @fontawesome - https://fontawesome.com License - https://fontawesome.com/license (Commercial License) Copyright 2025 Fonticons, Inc. --><path fill="currentColor" d="M367.2 60.8C366.1 55.6 362.6 51.3 357.7 49.2C352.8 47.1 347.2 47.7 342.8 50.6L272 97.6L201.3 50.7C196.9 47.8 191.3 47.2 186.4 49.3C181.5 51.4 177.9 55.7 176.9 60.9L160 144L76.8 160.8C71.6 161.9 67.3 165.4 65.2 170.3C63.1 175.2 63.7 180.8 66.6 185.2L113.6 256L66.7 326.7C63.8 331.1 63.2 336.7 65.3 341.6C67.4 346.5 71.7 350.1 76.9 351.1L123.1 360.5C127.5 350.1 133 340.3 139.6 331.3L106.5 324.6L146.1 264.8C149.6 259.5 149.6 252.5 146.1 247.2L106.5 187.4L176.8 173.2C183.1 171.9 188 167 189.3 160.7L203.4 90.4L263.2 130C268.5 133.5 275.5 133.5 280.8 130L340.6 90.4L354.8 160.7C356.1 167 361 171.9 367.3 173.2L437.6 187.4L423.8 208.3C426.5 208.1 429.3 208 432.1 208C441.8 208 451.2 209.1 460.3 211.1L477.4 185.3C480.3 180.9 480.9 175.3 478.8 170.4C476.7 165.5 472.4 161.9 467.2 160.9L384 144L367.2 60.8zM349.9 237.8C341.7 202.4 309.9 176 272 176C227.8 176 192 211.8 192 256C192 266 193.8 275.6 197.2 284.5C206.9 280.2 217.1 276.9 227.8 274.8C225.4 269 224 262.7 224 256C224 229.5 245.5 208 272 208C298.5 208 320 229.5 320 256C320 264.1 318 271.8 314.4 278.5C315.7 278 317 277.6 318.3 277.2C326.2 262.1 336.9 248.7 349.9 237.8zM256 352C275.1 352 292.3 360.4 304 373.7C309.3 379.7 318.3 380.9 325 376.3C332.7 371.1 342 368 352 368C379.2 368 401.6 391.9 399.9 419.1C399.5 426.2 403.8 432.8 410.6 435.2C432.4 442.9 448 463.7 448 488.1C448 519 422.9 544.1 392 544.1L216 544.1C185.1 544.1 160 519 160 488.1C160 468.4 170.1 451.1 185.5 441.1C190.7 437.7 193.5 431.6 192.6 425.4C187.1 387.7 217.6 352.1 255.9 352.1zM160.1 420C140.5 436.1 128 460.6 128 488C128 536.6 167.4 576 216 576L392 576C440.6 576 480 536.6 480 488C480 453.7 460.3 424 431.7 409.5C428.2 369.1 393.8 336 352 336C340.1 336 328.8 338.6 318.7 343.3C301.9 328.8 280 320 256 320C201.4 320 158 367 160.1 420zM404.6 296.6C412.4 291.2 421.8 288 432 288C458.5 288 480 309.5 480 336L480 336.8C480 343.3 483.9 349.2 489.9 351.7C495.9 354.2 502.9 352.8 507.4 348.1C514.7 340.7 524.8 336.1 536 336.1C558.1 336.1 576 354 576 376.1C576 398.2 558.1 416.1 536 416.1L507.4 416.1C513.6 426 518.5 436.7 522 448.1L536 448.1C575.8 448.1 608 415.9 608 376.1C608 336.3 575.8 304.1 536 304.1C525.9 304.1 516.3 306.2 507.6 309.9C496.8 278.6 467 256.1 432 256.1C405.7 256.1 382.4 268.8 367.8 288.3C380.7 289.1 393.1 292 404.6 296.6z"/></svg>