<svg xmlns="http://www.w3.org/2000/svg" viewBox="0 0 640 640"><!--! Font Awesome Pro 7.1.0 by @fontawesome - https://fontawesome.com License - https://fontawesome.com/license (Commercial License) Copyright 2025 Fonticons, Inc. --><path fill="currentColor" d="M485.6 49.2C480.7 47.2 475.1 47.7 470.7 50.6L400 97.6L329.3 50.7C324.9 47.8 319.3 47.2 314.4 49.3C309.5 51.4 305.9 55.7 304.9 60.9L288 144L204.8 160.8C199.6 161.9 195.3 165.4 193.2 170.3C191.1 175.2 191.7 180.8 194.6 185.2L209.8 208C224.5 208.2 238.7 210.3 252.2 214.2L234.4 187.4L304.7 173.2C311 171.9 315.9 167 317.2 160.7L331.4 90.4L391.2 130C396.5 133.5 403.5 133.5 408.8 130L468.6 90.4L482.8 160.7C484.1 167 489 171.9 495.3 173.2L565.6 187.4L526 247.2C522.5 252.5 522.5 259.5 526 264.8L565.6 324.6L495.3 338.8C493.9 339.1 492.5 339.6 491.2 340.2C491.4 341.1 491.7 341.9 491.9 342.8C506.8 347.6 520.6 354.7 533 363.7L595.2 351.1C600.4 350 604.7 346.5 606.8 341.6C608.9 336.7 608.3 331.1 605.4 326.7L558.5 256L605.4 185.3C608.3 180.9 608.9 175.3 606.8 170.4C604.7 165.5 600.4 161.9 595.2 160.9L512 144L495.2 60.8C494.1 55.6 490.6 51.3 485.7 49.2zM480 256C480 211.8 444.2 176 400 176C359.3 176 325.7 206.4 320.6 245.8C331.4 242.5 342.8 240.6 354.6 240.1C361.2 221.4 379 208 399.9 208C426.4 208 447.9 229.5 447.9 256C447.9 261 447.1 265.9 445.7 270.5C454.7 277.8 462.7 286.2 469.5 295.5C476.1 283.9 479.9 270.4 479.9 256zM128 368C128 323.8 163.8 288 208 288C243.3 288 273.3 310.9 283.9 342.7C285.9 348.6 291 352.8 297.2 353.5C303.4 354.2 309.4 351.4 312.7 346.2C322.6 330.5 340.2 320.1 360.1 320.1C391 320.1 416.1 345.2 416.1 376.1C416.1 383.5 414.7 390.5 412.1 397C409.8 402.6 411 409.1 415 413.6C419 418.1 425.3 420 431.2 418.4C436.6 416.9 442.3 416.1 448.1 416.1C483.4 416.1 512.1 444.8 512.1 480.1C512.1 515.4 483.4 544.1 448.1 544.1L128 544C92.7 544 64 515.3 64 480C64 447.5 88.3 420.6 119.7 416.5C124.5 415.9 128.8 413.1 131.3 409C133.8 404.9 134.3 399.8 132.7 395.2C129.7 386.7 128 377.6 128 368zM208 256C146.1 256 96 306.1 96 368C96 375.1 96.7 382.1 97.9 388.8C59.6 401.4 32 437.5 32 480C32 533 75 576 128 576L448 576C501 576 544 533 544 480C544 427 501 384 448 384L447.6 384C447.8 381.4 448 378.7 448 376C448 327.4 408.6 288 360 288C338.3 288 318.5 295.9 303.1 308.9C283.3 277.2 248.1 256 208 256z"/></svg>