<svg xmlns="http://www.w3.org/2000/svg" viewBox="0 0 640 640"><!--! Font Awesome Pro 7.1.0 by @fontawesome - https://fontawesome.com License - https://fontawesome.com/license (Commercial License) Copyright 2025 Fonticons, Inc. --><path fill="currentColor" d="M160 176C160 131.8 195.8 96 240 96C275.3 96 305.3 118.9 315.9 150.7C317.9 156.6 323 160.8 329.1 161.5C335.2 162.2 341.3 159.4 344.6 154.2C354.5 138.5 372.1 128.1 392 128.1C422.9 128.1 448 153.2 448 184.1C448 191.5 446.6 198.5 444 205C441.7 210.6 442.9 217.1 446.9 221.6C450.9 226.1 457.2 228 463.1 226.4C468.5 224.9 474.2 224.1 480 224.1C515.3 224.1 544 252.8 544 288.1C544 323.4 515.3 352.1 480 352.1L160 352C124.7 352 96 323.3 96 288C96 255.5 120.3 228.6 151.7 224.5C156.5 223.9 160.8 221.1 163.3 217C165.8 212.9 166.3 207.8 164.7 203.2C161.7 194.7 160 185.6 160 176zM240 64C178.1 64 128 114.1 128 176C128 183.1 128.7 190.1 129.9 196.8C91.6 209.4 64 245.5 64 288C64 341 107 384 160 384L480 384C533 384 576 341 576 288C576 235 533 192 480 192L479.6 192C479.8 189.4 480 186.7 480 184C480 135.4 440.6 96 392 96C370.3 96 350.5 103.9 335.1 116.9C315.3 85.2 280.1 64 240 64zM336 480C336 471.2 328.8 464 320 464C311.2 464 304 471.2 304 480L304 512L272 512C263.2 512 256 519.2 256 528C256 536.8 263.2 544 272 544L304 544L304 576C304 584.8 311.2 592 320 592C328.8 592 336 584.8 336 576L336 544L368 544C376.8 544 384 536.8 384 528C384 519.2 376.8 512 368 512L336 512L336 480zM136 432C127.2 432 120 439.2 120 448L120 480L88 480C79.2 480 72 487.2 72 496C72 504.8 79.2 512 88 512L120 512L120 544C120 552.8 127.2 560 136 560C144.8 560 152 552.8 152 544L152 512L184 512C192.8 512 200 504.8 200 496C200 487.2 192.8 480 184 480L152 480L152 448C152 439.2 144.8 432 136 432zM520 448C520 439.2 512.8 432 504 432C495.2 432 488 439.2 488 448L488 480L456 480C447.2 480 440 487.2 440 496C440 504.8 447.2 512 456 512L488 512L488 544C488 552.8 495.2 560 504 560C512.8 560 520 552.8 520 544L520 512L552 512C560.8 512 568 504.8 568 496C568 487.2 560.8 480 552 480L520 480L520 448z"/></svg>