<svg xmlns="http://www.w3.org/2000/svg" viewBox="0 0 640 640"><!--! Font Awesome Pro 7.1.0 by @fontawesome - https://fontawesome.com License - https://fontawesome.com/license (Commercial License) Copyright 2025 Fonticons, Inc. --><path fill="currentColor" d="M160 240C160 178.1 210.1 128 272 128C311.3 128 345.8 148.2 365.8 178.8C370.2 185.5 378.9 187.9 386.1 184.5C397.5 179 410.4 176 424 176C472.6 176 512 215.4 512 264C512 278.1 508.7 291.4 502.8 303.2C500.8 307.3 500.6 312.1 502.3 316.3C504 320.5 507.5 323.9 511.8 325.4C549.2 338.5 576 374.2 576 416C576 469 533 512 480 512L176 512C114.1 512 64 461.9 64 400C64 346.3 101.8 301.4 152.2 290.5C156.5 289.6 160.3 286.9 162.5 283.1C164.7 279.3 165.4 274.8 164.2 270.5C161.5 260.8 160 250.6 160 240zM272 96C192.5 96 128 160.5 128 240C128 248 128.7 255.9 129.9 263.5C73 282.7 32 336.5 32 400C32 479.5 96.5 544 176 544L480 544C550.7 544 608 486.7 608 416C608 366.1 579.5 323 537.9 301.8C541.8 289.9 544 277.2 544 264C544 197.7 490.3 144 424 144C410.3 144 397.1 146.3 384.8 150.5C358.4 117.3 317.7 96 272 96zM224 280L224 296C224 318.1 241.9 336 264 336L280 336C302.1 336 320 318.1 320 296L320 280C320 257.9 302.1 240 280 240L264 240C241.9 240 224 257.9 224 280zM264 272L280 272C284.4 272 288 275.6 288 280L288 296C288 300.4 284.4 304 280 304L264 304C259.6 304 256 300.4 256 296L256 280C256 275.6 259.6 272 264 272zM336 256C336 264.8 343.2 272 352 272L352 320C352 328.8 359.2 336 368 336C376.8 336 384 328.8 384 320L384 256C384 247.2 376.8 240 368 240L352 240C343.2 240 336 247.2 336 256zM256 368C247.2 368 240 375.2 240 384C240 392.8 247.2 400 256 400L256 448C256 456.8 263.2 464 272 464C280.8 464 288 456.8 288 448L288 384C288 375.2 280.8 368 272 368L256 368zM320 408L320 424C320 446.1 337.9 464 360 464L376 464C398.1 464 416 446.1 416 424L416 408C416 385.9 398.1 368 376 368L360 368C337.9 368 320 385.9 320 408zM360 400L376 400C380.4 400 384 403.6 384 408L384 424C384 428.4 380.4 432 376 432L360 432C355.6 432 352 428.4 352 424L352 408C352 403.6 355.6 400 360 400z"/></svg>