<svg xmlns="http://www.w3.org/2000/svg" viewBox="0 0 640 640"><!--! Font Awesome Pro 7.1.0 by @fontawesome - https://fontawesome.com License - https://fontawesome.com/license (Commercial License) Copyright 2025 Fonticons, Inc. --><path fill="currentColor" d="M160 176C160 131.8 195.8 96 240 96C275.3 96 305.3 118.9 315.9 150.7C317.9 156.6 323 160.8 329.1 161.5C335.2 162.2 341.3 159.4 344.6 154.2C354.5 138.5 372.1 128.1 392 128.1C422.9 128.1 448 153.2 448 184.1C448 191.5 446.6 198.5 444 205C441.7 210.6 442.9 217.1 446.9 221.6C450.9 226.1 457.2 228 463.1 226.4C468.5 224.9 474.2 224.1 480 224.1C515.3 224.1 544 252.8 544 288.1C544 323.4 515.3 352.1 480 352.1L160 352C124.7 352 96 323.3 96 288C96 255.5 120.3 228.6 151.7 224.5C156.5 223.9 160.8 221.1 163.3 217C165.8 212.9 166.3 207.8 164.7 203.2C161.7 194.7 160 185.6 160 176zM240 64C178.1 64 128 114.1 128 176C128 183.1 128.7 190.1 129.9 196.8C91.6 209.4 64 245.5 64 288C64 341 107 384 160 384L480 384C533 384 576 341 576 288C576 235 533 192 480 192L479.6 192C479.8 189.4 480 186.7 480 184C480 135.4 440.6 96 392 96C370.3 96 350.5 103.9 335.1 116.9C315.3 85.2 280.1 64 240 64zM334.6 441.5C332 435.7 326.3 432 320 432C313.7 432 307.9 435.7 305.4 441.5L276.2 507.1C273.4 513.4 272 520.1 272 527L272 528C272 554.5 293.5 576 320 576C346.5 576 368 554.5 368 528L368 527C368 520.1 366.6 513.4 363.8 507.1L334.6 441.5zM305.4 520.1L319.9 487.4L334.4 520.1C335.4 522.3 335.9 524.6 335.9 527L335.9 528C335.9 536.8 328.7 544 319.9 544C311.1 544 303.9 536.8 303.9 528L303.9 527C303.9 524.6 304.4 522.3 305.4 520.1zM176 432C169.7 432 163.9 435.7 161.4 441.5L132.2 507.1C129.4 513.4 128 520.1 128 527L128 528C128 554.5 149.5 576 176 576C202.5 576 224 554.5 224 528L224 527C224 520.1 222.6 513.4 219.8 507.1L190.6 441.5C188 435.7 182.3 432 176 432zM176 487.4L190.5 520.1C191.5 522.3 192 524.6 192 527L192 528C192 536.8 184.8 544 176 544C167.2 544 160 536.8 160 528L160 527C160 524.6 160.5 522.3 161.5 520.1L176 487.4zM478.6 441.5C476 435.7 470.3 432 464 432C457.7 432 451.9 435.7 449.4 441.5L420.2 507.1C417.4 513.4 416 520.1 416 527L416 528C416 554.5 437.5 576 464 576C490.5 576 512 554.5 512 528L512 527C512 520.1 510.6 513.4 507.8 507.1L478.6 441.5zM449.4 520.1L463.9 487.4L478.4 520.1C479.4 522.3 479.9 524.6 479.9 527L479.9 528C479.9 536.8 472.7 544 463.9 544C455.1 544 447.9 536.8 447.9 528L447.9 527C447.9 524.6 448.4 522.3 449.4 520.1z"/></svg>