<svg xmlns="http://www.w3.org/2000/svg" viewBox="0 0 640 640"><!--! Font Awesome Pro 7.1.0 by @fontawesome - https://fontawesome.com License - https://fontawesome.com/license (Commercial License) Copyright 2025 Fonticons, Inc. --><path fill="currentColor" d="M240 96C195.8 96 160 131.8 160 176C160 185.6 161.7 194.7 164.7 203.2C166.4 207.8 165.8 212.8 163.3 217C160.8 221.2 156.5 223.9 151.7 224.5C120.3 228.5 96 255.4 96 288C96 323.3 124.7 352 160 352L480 352C515.3 352 544 323.3 544 288C544 252.7 515.3 224 480 224C474.1 224 468.4 224.8 463.1 226.3C457.2 227.9 451 226 446.9 221.5C442.8 217 441.7 210.5 444 204.9C446.6 198.5 448 191.4 448 184C448 153.1 422.9 128 392 128C372.1 128 354.6 138.4 344.6 154.1C341.3 159.3 335.3 162.2 329.1 161.4C322.9 160.6 317.8 156.4 315.9 150.6C305.3 118.9 275.3 96 240 96zM128 176C128 114.1 178.1 64 240 64C280.2 64 315.4 85.1 335.1 116.9C350.4 103.9 370.3 96 392 96C440.6 96 480 135.4 480 184C480 186.7 479.9 189.4 479.6 192L480 192C533 192 576 235 576 288C576 341 533 384 480 384L160 384C107 384 64 341 64 288C64 245.5 91.6 209.4 129.9 196.8C128.6 190.1 128 183.1 128 176zM160 456C160 442.7 170.7 432 184 432C197.3 432 208 442.7 208 456C208 469.3 197.3 480 184 480C170.7 480 160 469.3 160 456zM120 528C133.3 528 144 538.7 144 552C144 565.3 133.3 576 120 576C106.7 576 96 565.3 96 552C96 538.7 106.7 528 120 528zM288 456C288 442.7 298.7 432 312 432C325.3 432 336 442.7 336 456C336 469.3 325.3 480 312 480C298.7 480 288 469.3 288 456zM248 528C261.3 528 272 538.7 272 552C272 565.3 261.3 576 248 576C234.7 576 224 565.3 224 552C224 538.7 234.7 528 248 528zM416 456C416 442.7 426.7 432 440 432C453.3 432 464 442.7 464 456C464 469.3 453.3 480 440 480C426.7 480 416 469.3 416 456zM376 528C389.3 528 400 538.7 400 552C400 565.3 389.3 576 376 576C362.7 576 352 565.3 352 552C352 538.7 362.7 528 376 528z"/></svg>