<svg xmlns="http://www.w3.org/2000/svg" viewBox="0 0 640 640"><!--! Font Awesome Pro 7.1.0 by @fontawesome - https://fontawesome.com License - https://fontawesome.com/license (Commercial License) Copyright 2025 Fonticons, Inc. --><path fill="currentColor" d="M160 176C160 131.8 195.8 96 240 96C275.3 96 305.3 118.9 315.9 150.7C317.9 156.6 323 160.8 329.1 161.5C335.2 162.2 341.3 159.4 344.6 154.2C354.5 138.5 372.1 128.1 392 128.1C422.9 128.1 448 153.2 448 184.1C448 191.5 446.6 198.5 444 205C441.7 210.6 442.9 217.1 446.9 221.6C450.9 226.1 457.2 228 463.1 226.4C468.5 224.9 474.2 224.1 480 224.1C515.3 224.1 544 252.8 544 288.1C544 323.4 515.3 352.1 480 352.1L160 352C124.7 352 96 323.3 96 288C96 255.5 120.3 228.6 151.7 224.5C156.5 223.9 160.8 221.1 163.3 217C165.8 212.9 166.3 207.8 164.7 203.2C161.7 194.7 160 185.6 160 176zM240 64C178.1 64 128 114.1 128 176C128 183.1 128.7 190.1 129.9 196.8C91.6 209.4 64 245.5 64 288C64 341 107 384 160 384L480 384C533 384 576 341 576 288C576 235 533 192 480 192L479.6 192C479.8 189.4 480 186.7 480 184C480 135.4 440.6 96 392 96C370.3 96 350.5 103.9 335.1 116.9C315.3 85.2 280.1 64 240 64zM128 432C119.2 432 112 439.2 112 448L112 512C112 520.8 119.2 528 128 528C136.8 528 144 520.8 144 512L144 448C144 439.2 136.8 432 128 432zM320 432C311.2 432 304 439.2 304 448L304 512C304 520.8 311.2 528 320 528C328.8 528 336 520.8 336 512L336 448C336 439.2 328.8 432 320 432zM512 432C503.2 432 496 439.2 496 448L496 512C496 520.8 503.2 528 512 528C520.8 528 528 520.8 528 512L528 448C528 439.2 520.8 432 512 432zM224 480C215.2 480 208 487.2 208 496L208 560C208 568.8 215.2 576 224 576C232.8 576 240 568.8 240 560L240 496C240 487.2 232.8 480 224 480zM416 480C407.2 480 400 487.2 400 496L400 560C400 568.8 407.2 576 416 576C424.8 576 432 568.8 432 560L432 496C432 487.2 424.8 480 416 480z"/></svg>