<svg xmlns="http://www.w3.org/2000/svg" viewBox="0 0 640 640"><!--! Font Awesome Pro 7.1.0 by @fontawesome - https://fontawesome.com License - https://fontawesome.com/license (Commercial License) Copyright 2025 Fonticons, Inc. --><path fill="currentColor" d="M335.2 60.8C334.1 55.6 330.6 51.3 325.7 49.2C320.8 47.1 315.2 47.7 310.8 50.6L240 97.6L169.3 50.7C164.9 47.8 159.3 47.2 154.4 49.3C149.5 51.4 145.9 55.7 144.9 60.9L128 144L44.8 160.8C39.6 161.9 35.3 165.4 33.2 170.3C31.1 175.2 31.7 180.8 34.6 185.2L81.6 256L34.7 326.7C31.8 331.1 31.2 336.7 33.3 341.6C35.4 346.5 39.7 350.1 44.9 351.1L128 368L144.8 451.2C145.9 456.4 149.4 460.7 154.3 462.8C159.2 464.9 164.8 464.3 169.2 461.4L239.3 414.9C232.5 406.7 226.7 397.8 221.9 388.1L171.4 421.6L157.2 351.3C155.9 345 151 340.1 144.7 338.8L74.4 324.6L114 264.8C117.5 259.5 117.5 252.5 114 247.2L74.4 187.4L144.7 173.2C151 171.9 155.9 167 157.2 160.7L171.4 90.4L231.2 130C236.5 133.5 243.5 133.5 248.8 130L308.6 90.4L319.1 142.3C328.5 137.2 338.7 133.4 349.4 130.9L335.2 60.8zM240 176C195.8 176 160 211.8 160 256C160 288.8 179.7 317 208 329.3L208 328C208 316.6 209.4 305.6 212 295C199.9 286.3 192 272.1 192 256C192 229.5 213.5 208 240 208C247.6 208 254.8 209.8 261.2 212.9C264.4 202.5 268.9 192.8 274.6 183.8C264.1 178.8 252.4 176 240 176zM317.1 464.8C308.7 462 299.7 466.5 296.9 474.9L270.2 554.9C267.4 563.3 271.9 572.3 280.3 575.1C288.7 577.9 297.7 573.4 300.5 565L327.2 485C330 476.6 325.5 467.6 317.1 464.8zM437.1 464.8C428.7 462 419.7 466.5 416.9 474.9L390.2 554.9C387.4 563.3 391.9 572.3 400.3 575.1C408.7 577.9 417.7 573.4 420.5 565L447.2 485C450 476.6 445.5 467.6 437.1 464.8zM557.1 464.8C548.7 462 539.7 466.5 536.9 474.9L510.2 554.9C507.4 563.3 511.9 572.3 520.3 575.1C528.7 577.9 537.7 573.4 540.5 565L567.2 485C570 476.6 565.5 467.6 557.1 464.8zM543.3 265.3C542.4 271.5 545.2 277.6 550.4 281C565.8 291 575.9 308.3 575.9 328C575.9 358.9 550.8 384 519.9 384L343.9 384C313 384 287.9 358.9 287.9 328C287.9 303.6 303.5 282.8 325.3 275.1C332.1 272.7 336.4 266.2 336 259C334.3 231.9 356.7 207.9 383.9 207.9C393.9 207.9 403.2 211 410.9 216.2C417.6 220.7 426.6 219.6 431.9 213.6C443.7 200.3 460.8 191.9 479.9 191.9C518.2 191.9 548.7 227.4 543.2 265.2zM480 160C456.1 160 434.2 168.8 417.3 183.3C407.1 178.6 395.8 176 384 176C342.2 176 307.7 209 304.3 249.5C275.7 264 256 293.7 256 328C256 376.6 295.4 416 344 416L520 416C568.6 416 608 376.6 608 328C608 300.6 595.5 276.2 575.9 260C578 207 534.6 160 480 160z"/></svg>