<svg xmlns="http://www.w3.org/2000/svg" viewBox="0 0 640 640"><!--! Font Awesome Pro 7.1.0 by @fontawesome - https://fontawesome.com License - https://fontawesome.com/license (Commercial License) Copyright 2025 Fonticons, Inc. --><path fill="currentColor" d="M59.3 36.7C53.1 30.5 42.9 30.5 36.7 36.7C30.5 42.9 30.5 53.1 36.7 59.3L580.7 603.3C586.9 609.5 597.1 609.5 603.3 603.3C609.5 597.1 609.5 586.9 603.3 580.7L547.4 524.8C583.8 502.2 608 461.9 608 416C608 366.1 579.5 323 537.9 301.8C541.8 289.9 544 277.2 544 264C544 197.7 490.3 144 424 144C410.3 144 397.1 146.3 384.8 150.5C358.4 117.3 317.7 96 272 96C229.9 96 191.9 114.1 165.6 143L59.3 36.7zM188.3 165.6C208.8 142.5 238.7 128 272 128C311.3 128 345.8 148.2 365.8 178.8C370.2 185.5 378.9 187.9 386.1 184.5C397.5 179 410.4 176 424 176C472.6 176 512 215.4 512 264C512 278.1 508.7 291.4 502.8 303.2C500.8 307.3 500.6 312.1 502.3 316.3C504 320.5 507.5 323.9 511.8 325.4C549.2 338.5 576 374.2 576 416C576 453.2 554.9 485.4 524 501.4L188.3 165.6zM128 240C128 248 128.7 255.9 129.9 263.5C73 282.7 32 336.5 32 400C32 479.5 96.5 544 176 544L453.5 544L421.5 512L176 512C114.1 512 64 461.9 64 400C64 346.3 101.8 301.4 152.2 290.5C156.5 289.6 160.3 286.9 162.5 283.1C164.7 279.3 165.4 274.8 164.2 270.5C162.4 264.2 161.2 257.7 160.5 251L129.4 219.9C128.5 226.5 128 233.2 128 240z"/></svg>