<svg xmlns="http://www.w3.org/2000/svg" viewBox="0 0 640 640"><!--! Font Awesome Pro 7.1.0 by @fontawesome - https://fontawesome.com License - https://fontawesome.com/license (Commercial License) Copyright 2025 Fonticons, Inc. --><path fill="currentColor" d="M160 176C160 131.8 195.8 96 240 96C275.3 96 305.3 118.9 315.9 150.7C317.9 156.6 323 160.8 329.2 161.5C335.4 162.2 341.4 159.4 344.7 154.2C354.6 138.5 372.2 128.1 392.1 128.1C423 128.1 448.1 153.2 448.1 184.1C448.1 191.5 446.7 198.5 444.1 205C441.8 210.6 443 217.1 447 221.6C451 226.1 457.3 228 463.2 226.4C468.6 224.9 474.3 224.1 480.1 224.1C515.4 224.1 544.1 252.8 544.1 288.1C544.1 323.4 515.4 352.1 480.1 352.1L160 352C124.7 352 96 323.3 96 288C96 255.5 120.3 228.6 151.7 224.5C156.5 223.9 160.8 221.1 163.3 217C165.8 212.9 166.3 207.8 164.7 203.2C161.7 194.7 160 185.6 160 176zM240 64C178.1 64 128 114.1 128 176C128 183.1 128.7 190.1 129.9 196.8C91.6 209.4 64 245.5 64 288C64 341 107 384 160 384L480 384C533 384 576 341 576 288C576 235 533 192 480 192L479.6 192C479.8 189.4 480 186.7 480 184C480 135.4 440.6 96 392 96C370.3 96 350.5 103.9 335.1 116.9C315.3 85.2 280.1 64 240 64zM161.8 453.1C164.6 444.7 160.1 435.7 151.7 432.9C143.3 430.1 134.3 434.6 131.5 443L94.2 555C91.4 563.4 95.9 572.4 104.3 575.2C112.7 578 121.7 573.5 124.5 565.1L161.8 453.1zM281.8 453.1C284.6 444.7 280.1 435.7 271.7 432.9C263.3 430.1 254.3 434.6 251.5 443L214.2 555C211.4 563.4 215.9 572.4 224.3 575.2C232.7 578 241.7 573.5 244.5 565.1L281.8 453.1zM393.8 453.1C396.6 444.7 392.1 435.7 383.7 432.9C375.3 430.1 366.3 434.6 363.5 443L326.2 555C323.4 563.4 327.9 572.4 336.3 575.2C344.7 578 353.7 573.5 356.5 565.1L393.8 453.1zM513.8 453.1C516.6 444.7 512.1 435.7 503.7 432.9C495.3 430.1 486.3 434.6 483.5 443L446.2 555C443.4 563.4 447.9 572.4 456.3 575.2C464.7 578 473.7 573.5 476.5 565.1L513.8 453.1z"/></svg>