<svg xmlns="http://www.w3.org/2000/svg" viewBox="0 0 640 640"><!--! Font Awesome Pro 7.1.0 by @fontawesome - https://fontawesome.com License - https://fontawesome.com/license (Commercial License) Copyright 2025 Fonticons, Inc. --><path fill="currentColor" d="M160 176C160 131.8 195.8 96 240 96C275.3 96 305.3 118.9 315.9 150.7C317.9 156.6 323 160.8 329.1 161.5C335.2 162.2 341.3 159.4 344.6 154.2C354.5 138.5 372.1 128.1 392 128.1C422.9 128.1 448 153.2 448 184.1C448 191.5 446.6 198.5 444 205C441.7 210.6 442.9 217.1 446.9 221.6C450.9 226.1 457.2 228 463.1 226.4C468.5 224.9 474.2 224.1 480 224.1C515.3 224.1 544 252.8 544 288.1C544 323.4 515.3 352.1 480 352.1L160 352C124.7 352 96 323.3 96 288C96 255.5 120.3 228.6 151.7 224.5C156.5 223.9 160.8 221.1 163.3 217C165.8 212.9 166.3 207.8 164.7 203.2C161.7 194.7 160 185.6 160 176zM240 64C178.1 64 128 114.1 128 176C128 183.1 128.7 190.1 129.9 196.8C91.6 209.4 64 245.5 64 288C64 341 107 384 160 384L480 384C533 384 576 341 576 288C576 235 533 192 480 192L479.6 192C479.8 189.4 480 186.7 480 184C480 135.4 440.6 96 392 96C370.3 96 350.5 103.9 335.1 116.9C315.3 85.2 280.1 64 240 64zM192 448C192 439.2 184.8 432 176 432C167.2 432 160 439.2 160 448L160 528C160 536.8 167.2 544 176 544C184.8 544 192 536.8 192 528L192 448zM384 448C384 439.2 376.8 432 368 432C359.2 432 352 439.2 352 448L352 528C352 536.8 359.2 544 368 544C376.8 544 384 536.8 384 528L384 448zM288 480C288 471.2 280.8 464 272 464C263.2 464 256 471.2 256 480L256 560C256 568.8 263.2 576 272 576C280.8 576 288 568.8 288 560L288 480zM480 480C480 471.2 472.8 464 464 464C455.2 464 448 471.2 448 480L448 560C448 568.8 455.2 576 464 576C472.8 576 480 568.8 480 560L480 480z"/></svg>