<svg xmlns="http://www.w3.org/2000/svg" viewBox="0 0 640 640"><!--! Font Awesome Pro 7.1.0 by @fontawesome - https://fontawesome.com License - https://fontawesome.com/license (Commercial License) Copyright 2025 Fonticons, Inc. --><path fill="currentColor" d="M334.6 210.4C391.8 140.6 478.7 96 576 96L592 96C600.8 96 608 88.8 608 80C608 71.2 600.8 64 592 64L576 64C462.3 64 361.4 119.2 298.8 204.2C304.1 207.8 309.1 211.8 313.9 216C320.6 213.6 327.5 211.7 334.6 210.3zM517.6 321.9C534.3 310.6 554.4 304 576 304L592 304C600.8 304 608 296.8 608 288C608 279.2 600.8 272 592 272L576 272C543.2 272 513.2 283.6 489.7 302.9C490.5 305.5 491.3 308.1 491.9 310.8C500.9 313.7 509.5 317.4 517.6 321.9zM450.3 242.3C485.2 215.7 528.8 200 576 200L592 200C600.8 200 608 192.8 608 184C608 175.2 600.8 168 592 168L576 168C517.7 168 464.3 188.8 422.7 223.3C432.7 228.5 441.9 234.9 450.2 242.3zM128 336C128 291.8 163.8 256 208 256C243.3 256 273.3 278.9 283.9 310.7C285.9 316.6 291 320.8 297.2 321.5C303.4 322.2 309.4 319.4 312.7 314.2C322.6 298.5 340.2 288.1 360.1 288.1C391 288.1 416.1 313.2 416.1 344.1C416.1 351.5 414.7 358.5 412.1 365C409.8 370.6 411 377.1 415 381.6C419 386.1 425.3 388 431.2 386.4C436.6 384.9 442.3 384.1 448.1 384.1C483.4 384.1 512.1 412.8 512.1 448.1C512.1 483.4 483.4 512.1 448.1 512.1L128 512C92.7 512 64 483.3 64 448C64 415.5 88.3 388.6 119.7 384.5C124.5 383.9 128.8 381.1 131.3 377C133.8 372.9 134.3 367.8 132.7 363.2C129.7 354.7 128 345.6 128 336zM208 224C146.1 224 96 274.1 96 336C96 343.1 96.7 350.1 97.9 356.8C59.6 369.4 32 405.5 32 448C32 501 75 544 128 544L448 544C501 544 544 501 544 448C544 395 501 352 448 352L447.6 352C447.8 349.4 448 346.7 448 344C448 295.4 408.6 256 360 256C338.3 256 318.5 263.9 303.1 276.9C283.3 245.2 248.1 224 208 224z"/></svg>