<svg xmlns="http://www.w3.org/2000/svg" viewBox="0 0 640 640"><!--! Font Awesome Pro 7.1.0 by @fontawesome - https://fontawesome.com License - https://fontawesome.com/license (Commercial License) Copyright 2025 Fonticons, Inc. --><path fill="currentColor" d="M160 176C160 131.8 195.8 96 240 96C275.3 96 305.3 118.9 315.9 150.7C317.9 156.6 323 160.8 329.1 161.5C335.2 162.2 341.3 159.4 344.6 154.2C354.5 138.5 372.1 128.1 392 128.1C422.9 128.1 448 153.2 448 184.1C448 191.5 446.6 198.5 444 205C441.7 210.6 442.9 217.1 446.9 221.6C450.9 226.1 457.2 228 463.1 226.4C468.5 224.9 474.2 224.1 480 224.1C515.3 224.1 544 252.8 544 288.1C544 323.4 515.3 352.1 480 352.1L160 352C124.7 352 96 323.3 96 288C96 255.5 120.3 228.6 151.7 224.5C156.5 223.9 160.8 221.1 163.3 217C165.8 212.9 166.3 207.8 164.7 203.2C161.7 194.7 160 185.6 160 176zM240 64C178.1 64 128 114.1 128 176C128 183.1 128.7 190.1 129.9 196.8C91.6 209.4 64 245.5 64 288C64 341 107 384 160 384L480 384C533 384 576 341 576 288C576 235 533 192 480 192L479.6 192C479.8 189.4 480 186.7 480 184C480 135.4 440.6 96 392 96C370.3 96 350.5 103.9 335.1 116.9C315.3 85.2 280.1 64 240 64zM161.9 453.1C164.7 444.7 160.2 435.7 151.8 432.9C143.4 430.1 134.4 434.6 131.6 443L118.2 482.8C115.4 491.2 119.9 500.2 128.3 503C136.7 505.8 145.7 501.3 148.5 492.9L161.8 453zM281.9 453.1C284.7 444.7 280.2 435.7 271.8 432.9C263.4 430.1 254.4 434.6 251.6 443L214.3 555C211.5 563.4 216 572.4 224.4 575.2C232.8 578 241.8 573.5 244.6 565.1L281.9 453.1zM393.9 453.1C396.7 444.7 392.2 435.7 383.8 432.9C375.4 430.1 366.4 434.6 363.6 443L350.3 482.9C347.5 491.3 352 500.3 360.4 503.1C368.8 505.9 377.8 501.4 380.6 493L393.9 453.1zM513.9 453.1C516.7 444.7 512.2 435.7 503.8 432.9C495.4 430.1 486.4 434.6 483.6 443L446.3 555C443.5 563.4 448 572.4 456.4 575.2C464.8 578 473.8 573.5 476.6 565.1L513.9 453.1zM136 552C136 538.7 125.3 528 112 528C98.7 528 88 538.7 88 552C88 565.3 98.7 576 112 576C125.3 576 136 565.3 136 552zM344 576C357.3 576 368 565.3 368 552C368 538.7 357.3 528 344 528C330.7 528 320 538.7 320 552C320 565.3 330.7 576 344 576z"/></svg>