<svg xmlns="http://www.w3.org/2000/svg" viewBox="0 0 640 640"><!--! Font Awesome Pro 7.1.0 by @fontawesome - https://fontawesome.com License - https://fontawesome.com/license (Commercial License) Copyright 2025 Fonticons, Inc. --><path fill="currentColor" d="M478.5 96C441.5 127.2 418.1 173.8 418.1 226C418.1 310.8 480.1 381 561.3 393.9C542.6 404.9 521.6 412.2 499.1 414.9C506.4 423.8 512.5 433.7 517.2 444.4C554 437.2 587.1 419.5 613.1 394.5C618.6 389.2 620.2 381.1 617 374.1C613.8 367.1 606.7 362.9 599.2 363.5C595.5 363.8 591.8 363.9 588.1 363.9C511.9 363.9 450.1 302.1 450.1 225.9C450.1 171.8 481.2 124.9 526.7 102.3C533.5 98.9 537.5 91.6 536.5 84C535.5 76.4 529.9 70.4 522.5 68.7C508.8 65.6 494.6 64 480 64C374 64 288 150 288 256C288 258.8 288.1 261.6 288.2 264.4C293.5 268 298.6 271.9 303.4 276.2C309.1 274.7 314.9 273.6 320.9 272.9C320.3 267.4 320 261.7 320 256C320 168.2 390.8 96.8 478.4 96zM144 384C144 348.7 172.7 320 208 320C237.1 320 261.7 339.4 269.4 366C271.1 371.8 275.9 376.2 281.9 377.3C287.9 378.4 293.9 376 297.6 371.2C306.4 359.5 320.3 352 336 352C362.5 352 384 373.5 384 400C384 409 381.6 417.3 377.3 424.4C374.2 429.7 374.3 436.3 377.7 441.4C381.1 446.5 387.1 449.2 393.2 448.4C421.5 444.5 447.9 467.1 447.9 495.9C447.9 522.4 426.4 543.9 400 543.9L128 543.9C92.7 543.9 64 515.2 64 479.9C64 444.5 93.9 415.2 129.3 415.9C134.2 416 138.8 413.9 141.9 410.1C145 406.3 146.3 401.4 145.3 396.7C144.5 392.6 144 388.3 144 383.9zM290.2 334.4C273.4 306.6 242.9 288 208 288C154.5 288 111.3 332 112 385.3C66.6 392.9 32 432.4 32 480C32 533 75 576 128 576L400 576C444.1 575.9 479.9 540.2 479.9 496C479.9 456.6 451.5 423.9 414.1 417.3C415.3 411.7 416 406 416 400.1C416 355.9 380.2 320.1 336 320.1C319 320.1 303.2 325.4 290.2 334.5z"/></svg>