<svg xmlns="http://www.w3.org/2000/svg" viewBox="0 0 640 640"><!--! Font Awesome Pro 7.1.0 by @fontawesome - https://fontawesome.com License - https://fontawesome.com/license (Commercial License) Copyright 2025 Fonticons, Inc. --><path fill="currentColor" d="M119.6 144.6L76.1 153.4L100.6 190.3C107.7 201 107.7 215 100.6 225.7L76.1 262.6L116.4 270.8C113.7 280.9 112.2 291.6 112.1 302.6L42.8 288.6C38.4 287.7 34.7 284.7 33 280.5C31.3 276.3 31.7 271.6 34.2 267.9L73.9 208L34.3 148.2C31.8 144.4 31.3 139.7 33 135.5C34.7 131.3 38.4 128.3 42.8 127.4L113.2 113.2L127.5 42.8C128.4 38.4 131.4 34.7 135.6 33C139.8 31.3 144.5 31.7 148.2 34.2L208 73.9L267.8 34.2C271.5 31.7 276.3 31.3 280.4 33C284.5 34.7 287.6 38.4 288.5 42.8L296.1 80.2C285.2 80.9 274.7 82.9 264.7 86.1L262.7 76L225.8 100.5C215.1 107.6 201.1 107.6 190.4 100.5L153.5 76L144.7 119.5C142.1 132.1 132.3 142 119.7 144.5zM495.9 192C495.9 156.7 467.2 128 431.9 128C402.8 128 378.2 147.4 370.5 174C368.8 179.8 364 184.2 358 185.3C352 186.4 346 184 342.3 179.2C333.5 167.5 319.6 160 303.9 160C277.4 160 255.9 181.5 255.9 208C255.9 217 258.3 225.3 262.6 232.4C265.7 237.7 265.6 244.3 262.2 249.4C258.8 254.5 252.8 257.2 246.7 256.4C218.4 252.5 192 275.1 192 303.9C192 330.4 213.5 351.9 239.9 351.9L285.5 351.9L253.5 383.9L239.8 383.9C195.7 383.8 159.9 348.1 159.9 303.9C159.9 264.6 188.3 231.8 225.7 225.2C224.5 219.6 223.8 213.9 223.8 208C223.8 163.8 259.6 128 303.8 128C320.8 128 336.6 133.3 349.6 142.4C366.4 114.6 396.9 96 431.8 96C485.3 96 528.5 140 527.8 193.3C573.2 200.9 607.8 240.4 607.8 288C607.8 341 564.8 384 511.8 384L486.3 384C483 382.3 479.5 380.9 475.9 379.7L480.6 362.7C481.6 359.1 482.3 355.5 482.8 351.9L511.7 351.9C547 351.9 575.7 323.2 575.7 287.9C575.7 252.5 545.8 223.2 510.4 223.9C505.5 224 500.9 221.9 497.8 218.1C494.7 214.3 493.4 209.4 494.4 204.7C495.2 200.6 495.7 196.3 495.7 191.9zM384.6 312.7C390.2 307.1 397.8 304 405.7 304C425.5 304 439.8 322.8 434.5 341.9L413.9 416L452.6 416C467.7 416 479.9 428.2 479.9 443.3C479.9 450.5 477 457.5 471.9 462.6L351.4 583.2C345.8 588.8 338.2 592 330.3 592C310.5 592 296.2 573.2 301.5 554.1L322.1 480L283.4 480C268.3 480 256.1 467.8 256.1 452.7C256.1 445.5 259 438.5 264.1 433.4L384.6 312.7zM401.5 341L294.6 448L343.1 448C353.5 448 361.3 458.2 358.5 468.3L334.4 554.9L441.3 448L392.8 448C382.4 448 374.6 437.7 377.4 427.7L401.5 341.1z"/></svg>