<svg xmlns="http://www.w3.org/2000/svg" viewBox="0 0 640 640"><!--! Font Awesome Pro 7.1.0 by @fontawesome - https://fontawesome.com License - https://fontawesome.com/license (Commercial License) Copyright 2025 Fonticons, Inc. --><path fill="currentColor" d="M160 240C160 178.1 210.1 128 272 128C311.3 128 345.8 148.2 365.8 178.8C370.2 185.5 378.9 187.9 386.1 184.5C397.5 179 410.4 176 424 176C472.6 176 512 215.4 512 264C512 278.1 508.7 291.4 502.8 303.2C500.8 307.3 500.6 312.1 502.3 316.3C504 320.5 507.5 323.9 511.8 325.4C549.2 338.5 576 374.2 576 416C576 469 533 512 480 512L176 512C114.1 512 64 461.9 64 400C64 346.3 101.8 301.4 152.2 290.5C156.5 289.6 160.3 286.9 162.5 283.1C164.7 279.3 165.4 274.8 164.2 270.5C161.5 260.8 160 250.6 160 240zM272 96C192.5 96 128 160.5 128 240C128 248 128.7 255.9 129.9 263.5C73 282.7 32 336.5 32 400C32 479.5 96.5 544 176 544L480 544C550.7 544 608 486.7 608 416C608 366.1 579.5 323 537.9 301.8C541.8 289.9 544 277.2 544 264C544 197.7 490.3 144 424 144C410.3 144 397.1 146.3 384.8 150.5C358.4 117.3 317.7 96 272 96zM320 272C340.6 272 357.2 288.7 357.2 309.2C357.2 327 346.2 336.2 334 341.7C319.3 348.3 303.9 363.2 303.9 384C303.9 392.8 311.1 400 319.9 400C328.7 400 335.9 392.8 335.9 384C335.9 380.2 339.3 374.4 347 370.9C364.8 362.9 389.1 345 389.1 309.2C389.1 271 358.1 240 319.9 240C281.7 240 250.7 271 250.7 309.2C250.7 318 257.9 325.2 266.7 325.2C275.5 325.2 282.7 318 282.7 309.2C282.7 288.6 299.4 272 319.9 272zM340 448C340 437 331 428 320 428C309 428 300 437 300 448C300 459 309 468 320 468C331 468 340 459 340 448z"/></svg>