<svg xmlns="http://www.w3.org/2000/svg" viewBox="0 0 640 640"><!--! Font Awesome Pro 7.1.0 by @fontawesome - https://fontawesome.com License - https://fontawesome.com/license (Commercial License) Copyright 2025 Fonticons, Inc. --><path fill="currentColor" d="M160 176C160 131.8 195.8 96 240 96C275.3 96 305.3 118.9 315.9 150.7C317.9 156.6 323 160.8 329.1 161.5C335.2 162.2 341.3 159.4 344.6 154.2C354.5 138.5 372.1 128.1 392 128.1C422.9 128.1 448 153.2 448 184.1C448 191.5 446.6 198.5 444 205C441.7 210.6 442.9 217.1 446.9 221.6C450.9 226.1 457.2 228 463.1 226.4C468.5 224.9 474.2 224.1 480 224.1C515.3 224.1 544 252.8 544 288.1C544 323.4 515.3 352.1 480 352.1L434.3 352.1C443.2 361.2 449.6 372.2 453.1 384.1L480 384.1C533 384.1 576 341.1 576 288.1C576 235.1 533 192.1 480 192.1L479.6 192.1C479.8 189.5 480 186.8 480 184.1C480 135.5 440.6 96.1 392 96.1C370.3 96.1 350.5 104 335.1 117C315.3 85.3 280.1 64.1 240 64.1C178.1 64.1 128 114.2 128 176.1C128 183.2 128.7 190.2 129.9 196.9C91.6 209.5 64 245.6 64 288.1C64 341.1 107 384.1 160 384.1L186.9 384.1C190.4 372.2 196.7 361.2 205.7 352.1L160 352C124.7 352 96 323.3 96 288C96 255.5 120.3 228.6 151.7 224.5C156.5 223.9 160.8 221.1 163.3 217C165.8 212.9 166.3 207.8 164.7 203.2C161.7 194.7 160 185.6 160 176zM96 464C96 455.2 103.2 448 112 448C120.8 448 128 455.2 128 464C128 472.8 120.8 480 112 480C103.2 480 96 472.8 96 464zM160 464C160 437.5 138.5 416 112 416C85.5 416 64 437.5 64 464C64 490.5 85.5 512 112 512C138.5 512 160 490.5 160 464zM512 464C512 455.2 519.2 448 528 448C536.8 448 544 455.2 544 464C544 472.8 536.8 480 528 480C519.2 480 512 472.8 512 464zM576 464C576 437.5 554.5 416 528 416C501.5 416 480 437.5 480 464C480 490.5 501.5 512 528 512C554.5 512 576 490.5 576 464zM375.5 519.5C355.8 539.9 326.6 548.1 299.2 540.9C271.7 533.7 250.3 512.3 243.1 484.8C235.9 457.4 244.1 428.2 264.5 408.5C284.2 388.1 313.4 379.9 340.8 387.1C368.3 394.3 389.7 415.7 396.9 443.2C404.1 470.6 395.9 499.8 375.5 519.5zM344.3 364.5C338.3 355.5 328.4 351.9 320 351.9C311.6 351.9 301.7 355.4 295.7 364.5C289.4 374 278 378.7 266.9 376.4C256.3 374.3 246.8 378.8 240.8 384.7C234.8 390.6 230.4 400.1 232.5 410.8C234.7 421.9 230 433.3 220.6 439.6C211.6 445.6 208 455.5 208 463.9C208 472.3 211.5 482.2 220.6 488.2C230.1 494.5 234.8 505.9 232.5 517C230.4 527.6 234.9 537.1 240.8 543.1C246.7 549.1 256.3 553.5 266.9 551.4C278 549.2 289.4 553.9 295.7 563.3C301.7 572.3 311.6 575.9 320 575.9C328.4 575.9 338.3 572.4 344.3 563.3C350.6 553.8 362 549.1 373.1 551.4C383.7 553.5 393.2 549 399.2 543.1C405.2 537.2 409.6 527.6 407.5 517C405.3 505.9 410 494.5 419.4 488.2C428.4 482.2 432 472.3 432 463.9C432 455.5 428.5 445.6 419.4 439.6C409.9 433.3 405.2 421.9 407.5 410.8C409.6 400.2 405.1 390.7 399.2 384.7C393.3 378.7 383.7 374.3 373.1 376.4C362 378.6 350.6 373.9 344.3 364.5z"/></svg>