<svg xmlns="http://www.w3.org/2000/svg" viewBox="0 0 640 640"><!--! Font Awesome Pro 7.1.0 by @fontawesome - https://fontawesome.com License - https://fontawesome.com/license (Commercial License) Copyright 2025 Fonticons, Inc. --><path fill="currentColor" d="M160 240C160 178.1 210.1 128 272 128C311.3 128 345.8 148.2 365.8 178.8C370.2 185.5 378.9 187.9 386.1 184.5C397.5 179 410.4 176 424 176C472.6 176 512 215.4 512 264C512 278.1 508.7 291.4 502.8 303.2C500.8 307.3 500.6 312.1 502.3 316.3C504 320.5 507.5 323.9 511.8 325.4C549.2 338.5 576 374.2 576 416C576 469 533 512 480 512L176 512C114.1 512 64 461.9 64 400C64 346.3 101.8 301.4 152.2 290.5C156.5 289.6 160.3 286.9 162.5 283.1C164.7 279.3 165.4 274.8 164.2 270.5C161.5 260.8 160 250.6 160 240zM272 96C192.5 96 128 160.5 128 240C128 248 128.7 255.9 129.9 263.5C73 282.7 32 336.5 32 400C32 479.5 96.5 544 176 544L480 544C550.7 544 608 486.7 608 416C608 366.1 579.5 323 537.9 301.8C541.8 289.9 544 277.2 544 264C544 197.7 490.3 144 424 144C410.3 144 397.1 146.3 384.8 150.5C358.4 117.3 317.7 96 272 96zM384 256L360 256C346.7 256 336 266.7 336 280L336 352C326.6 346.9 315.7 344 304 344C268.7 344 240 370.9 240 404C240 437.1 268.7 464 304 464C339.3 464 368 437.1 368 404C368 402.6 368 401.3 367.9 399.9L368 400L368 288L384 288C392.8 288 400 280.8 400 272C400 263.2 392.8 256 384 256zM304 432C284.4 432 272 417.5 272 404C272 390.5 284.4 376 304 376C323.6 376 336 390.5 336 404C336 417.5 323.7 432 304 432z"/></svg>