<svg xmlns="http://www.w3.org/2000/svg" viewBox="0 0 640 640"><!--! Font Awesome Pro 7.1.0 by @fontawesome - https://fontawesome.com License - https://fontawesome.com/license (Commercial License) Copyright 2025 Fonticons, Inc. --><path fill="currentColor" d="M272 128C210.1 128 160 178.1 160 240C160 250.6 161.5 260.9 164.2 270.5C165.4 274.8 164.8 279.3 162.5 283.1C160.2 286.9 156.5 289.6 152.2 290.5C101.8 301.4 64 346.3 64 400C64 461.9 114.1 512 176 512L480 512C533 512 576 469 576 416C576 374.2 549.2 338.5 511.8 325.4C507.5 323.9 504 320.6 502.3 316.3C500.6 312 500.8 307.3 502.8 303.2C508.7 291.4 512 278.1 512 264C512 215.4 472.6 176 424 176C410.4 176 397.6 179.1 386.1 184.5C378.9 188 370.2 185.5 365.8 178.8C345.8 148.2 311.2 128 272 128zM128 240C128 160.5 192.5 96 272 96C317.7 96 358.5 117.3 384.8 150.5C397.1 146.3 410.3 144 424 144C490.3 144 544 197.7 544 264C544 277.2 541.9 289.9 537.9 301.8C579.5 322.9 608 366.1 608 416C608 486.7 550.7 544 480 544L176 544C96.5 544 32 479.5 32 400C32 336.6 73 282.8 129.9 263.5C128.7 255.9 128 248 128 240zM192 336C192 327.2 199.2 320 208 320L304 320C312.8 320 320 327.2 320 336C320 344.8 312.8 352 304 352L208 352C199.2 352 192 344.8 192 336zM368 336C368 327.2 375.2 320 384 320L432 320C440.8 320 448 327.2 448 336C448 344.8 440.8 352 432 352L384 352C375.2 352 368 344.8 368 336zM432 416C440.8 416 448 423.2 448 432C448 440.8 440.8 448 432 448L336 448C327.2 448 320 440.8 320 432C320 423.2 327.2 416 336 416L432 416zM256 416C264.8 416 272 423.2 272 432C272 440.8 264.8 448 256 448L208 448C199.2 448 192 440.8 192 432C192 423.2 199.2 416 208 416L256 416z"/></svg>