<svg xmlns="http://www.w3.org/2000/svg" viewBox="0 0 640 640"><!--! Font Awesome Pro 7.1.0 by @fontawesome - https://fontawesome.com License - https://fontawesome.com/license (Commercial License) Copyright 2025 Fonticons, Inc. --><path fill="currentColor" d="M160 240C160 178.1 210.1 128 272 128C311.3 128 345.8 148.2 365.8 178.8C370.2 185.5 378.9 187.9 386.1 184.5C397.5 179 410.4 176 424 176C472.6 176 512 215.4 512 264C512 278.1 508.7 291.4 502.8 303.2C500.8 307.3 500.6 312.1 502.3 316.3C504 320.5 507.5 323.9 511.8 325.4C549.2 338.5 576 374.2 576 416C576 469 533 512 480 512L176 512C114.1 512 64 461.9 64 400C64 346.3 101.8 301.4 152.2 290.5C156.5 289.6 160.3 286.9 162.5 283.1C164.7 279.3 165.4 274.8 164.2 270.5C161.5 260.8 160 250.6 160 240zM272 96C192.5 96 128 160.5 128 240C128 248 128.7 255.9 129.9 263.5C73 282.7 32 336.5 32 400C32 479.5 96.5 544 176 544L480 544C550.7 544 608 486.7 608 416C608 366.1 579.5 323 537.9 301.8C541.8 289.9 544 277.2 544 264C544 197.7 490.3 144 424 144C410.3 144 397.1 146.3 384.8 150.5C358.4 117.3 317.7 96 272 96zM304 424C304 432.8 311.2 440 320 440C328.8 440 336 432.8 336 424L336 368L392 368C400.8 368 408 360.8 408 352C408 343.2 400.8 336 392 336L336 336L336 280C336 271.2 328.8 264 320 264C311.2 264 304 271.2 304 280L304 336L248 336C239.2 336 232 343.2 232 352C232 360.8 239.2 368 248 368L304 368L304 424z"/></svg>