<svg xmlns="http://www.w3.org/2000/svg" viewBox="0 0 640 640"><!--! Font Awesome Pro 7.1.0 by @fontawesome - https://fontawesome.com License - https://fontawesome.com/license (Commercial License) Copyright 2025 Fonticons, Inc. --><path fill="currentColor" d="M376.8 81.2C413.4 81.2 443.1 110.9 443.1 147.5L443.1 151.3C443.1 163.4 440.5 175.4 435.4 186.4L433.1 191.1L413.3 227.8L448.9 207.9L453.6 205.4C464.8 200 477.1 197.2 489.5 197.2L492.8 197.2C529.4 197.2 559.1 226.9 559.1 263.6C559.1 279 553.7 293.8 544.1 305.6L539.7 310.5L530.1 320L539.7 329.6C552.1 342 559.1 358.9 559.1 376.5C559.1 413.1 529.4 442.8 492.8 442.8L489.3 442.8C477 442.8 464.8 440.1 453.7 434.8L449 432.4L412.6 412.3L432.7 448.7L435.1 453.4C440.3 464.5 443.1 476.7 443.1 489L443.1 492.5C443.1 529.1 413.4 558.8 376.8 558.8C359.2 558.8 342.3 551.8 329.9 539.4L320.3 529.8L310.8 539.4C298.4 551.8 281.5 558.8 263.9 558.8C227.3 558.8 197.5 529.1 197.5 492.5L197.5 489C197.5 474.9 201.1 461 207.9 448.7L228 412.3L191.6 432.5C179.3 439.3 165.4 442.9 151.3 442.9L147.8 442.9C111.2 442.9 81.5 413.2 81.5 376.6C81.5 359 88.5 342.1 100.9 329.7L110.4 320.1L100.9 310.6C88.5 298.2 81.5 281.3 81.5 263.7C81.5 227.1 111.2 197.3 147.8 197.3L151.3 197.3C165.4 197.3 179.3 200.9 191.6 207.7L228 227.8L207.9 191.4C201.1 179.1 197.5 165.2 197.5 151.1L197.5 147.6C197.5 111 227.2 81.3 263.9 81.3C281.5 81.3 298.4 88.3 310.8 100.7L320.3 110.2L329.9 100.7L334.8 96.3C346.6 86.6 361.4 81.3 376.8 81.3zM376.8 113.2C367.7 113.2 359 116.8 352.5 123.3L331.7 144.1C328.7 147.1 324.6 148.8 320.4 148.8C316.2 148.8 312.1 147.1 309.1 144.1L288.2 123.2C281.8 116.8 273 113.1 263.9 113.1C244.9 113.1 229.5 128.5 229.5 147.4L229.5 150.9C229.5 159.6 231.7 168.1 235.9 175.7L282.9 260.7C286.3 266.9 285.3 274.7 280.2 279.8C275.1 284.9 267.4 285.9 261.1 282.5L176.1 235.5C168.5 231.3 160 229.1 151.3 229.1L147.8 229.1C128.8 229.1 113.5 244.5 113.5 263.5C113.5 272.6 117.1 281.3 123.6 287.8L144.4 308.6C147.4 311.6 149.1 315.7 149.1 319.9C149.1 324.1 147.4 328.2 144.4 331.2L123.6 352.2C117.2 358.6 113.5 367.4 113.5 376.5C113.5 395.5 128.9 410.8 147.8 410.8L151.3 410.8C160 410.8 168.5 408.6 176.1 404.4L261.1 357.4C267.3 354 275.1 355 280.2 360.1C285.2 365.1 286.3 372.9 282.9 379.2L235.9 464.2C231.7 471.8 229.5 480.3 229.5 489L229.5 492.5C229.5 511.5 244.9 526.8 263.9 526.8C273 526.8 281.7 523.2 288.2 516.7L309 495.8L311.4 493.8C314 492.1 317.1 491.1 320.3 491.1C324.5 491.1 328.6 492.8 331.6 495.8L352.5 516.7C358.9 523.1 367.7 526.8 376.8 526.8C395.8 526.8 411.1 511.4 411.1 492.5L411.1 489C411.1 482.5 409.9 476 407.5 470L404.8 464.2L357.8 379.2C354.4 373 355.4 365.2 360.5 360.1C365.6 355 373.3 354 379.6 357.4L464.6 404.4L470.4 407.1C476.4 409.5 482.9 410.7 489.4 410.7L492.9 410.7C511.9 410.7 527.2 395.3 527.2 376.4C527.2 367.3 523.6 358.6 517.1 352.1L496.2 331.2C493.2 328.2 491.5 324.1 491.5 319.9C491.5 315.7 493.2 311.6 496.2 308.6L517.1 287.8L519.4 285.3C524.4 279.2 527.2 271.5 527.2 263.5C527.2 244.5 511.8 229.1 492.9 229.1L489.6 229.1C480.9 229.1 472.2 231.4 464.6 235.6L381 282.5C374.8 286 367 284.9 361.9 280C356.8 275 355.7 267.3 359.1 261L405 175.8L407.7 170C410 164.1 411.2 157.7 411.2 151.3L411.2 147.5C411.2 128.5 395.8 113.2 376.9 113.2z"/></svg>