<svg xmlns="http://www.w3.org/2000/svg" viewBox="0 0 640 640"><!--! Font Awesome Pro 7.1.0 by @fontawesome - https://fontawesome.com License - https://fontawesome.com/license (Commercial License) Copyright 2025 Fonticons, Inc. --><path fill="currentColor" d="M216 200C216 142.6 262.6 96 320 96C377.4 96 424 142.6 424 200C424 206.5 423.4 212.8 422.3 218.9L419.2 236C418.4 240.4 419.5 244.9 422.2 248.5C424.9 252.1 428.9 254.4 433.4 254.8L450.7 256.5C503.2 261.8 544.1 306.1 544.1 360C544.1 417.4 497.5 464 440.1 464C400.4 464 365.9 441.8 348.3 409L334.2 382.6C331.4 377.4 326 374.1 320.1 374.1C314.2 374.1 308.8 377.4 306 382.6L291.8 409C274.2 441.8 239.7 464 200 464C142.6 464 96 417.4 96 360C96 306.1 137 261.8 189.4 256.5L206.7 254.8C211.1 254.4 215.2 252.1 217.9 248.5C220.6 244.9 221.7 240.4 220.8 236L217.7 218.9C216.6 212.8 216 206.5 216 200zM320 64C244.9 64 184 124.9 184 200C184 208.4 184.8 216.7 186.2 224.7C117.6 231.6 64 289.6 64 360C64 435.1 124.9 496 200 496C241.7 496 279.1 477.2 304 447.6L304 544L240 544C231.2 544 224 551.2 224 560C224 568.8 231.2 576 240 576L400 576C408.8 576 416 568.8 416 560C416 551.2 408.8 544 400 544L336 544L336 447.6C360.9 477.2 398.3 496 440 496C515.1 496 576 435.1 576 360C576 289.5 522.4 231.6 453.8 224.7C455.3 216.7 456 208.4 456 200C456 124.9 395.1 64 320 64z"/></svg>