<svg xmlns="http://www.w3.org/2000/svg" viewBox="0 0 640 640"><!--! Font Awesome Pro 7.1.0 by @fontawesome - https://fontawesome.com License - https://fontawesome.com/license (Commercial License) Copyright 2025 Fonticons, Inc. --><path fill="currentColor" d="M337 104C382.4 90 416.7 95.1 435.6 113.9C454.5 132.7 459.5 167.1 445.5 212.5C431.7 257.1 400.5 308.1 354.5 354.1C308.5 400.1 257.5 431.3 212.9 445.1C167.5 459.1 133.2 454 114.3 435.2C95.4 416.4 90.4 382 104.4 336.6C118.2 292 149.4 241 195.4 195C241.4 149 292.4 117.8 337 104zM458.2 91.2C426.9 59.9 377.3 58.1 327.6 73.4C277.1 89 221.8 123.4 172.8 172.3C123.8 221.2 89.5 276.6 73.9 327.1C58.5 376.8 60.4 426.4 91.7 457.7L134.1 500.1C182.7 548.7 248.6 576 317.3 576C460.4 576 576.4 460 576.4 316.9C576.4 248.2 549.1 182.3 500.5 133.7L458.2 91.2zM485.4 164.1C523.3 205.8 544.4 260.2 544.4 316.9C544.4 321 544.3 325.1 544.1 329.1L523.7 308.7C517.5 302.5 507.3 302.5 501.1 308.7C494.9 314.9 494.9 325.1 501.1 331.3L538.5 368.7C530 405.2 512.6 438.4 488.8 465.8L443.7 420.7C437.5 414.5 427.3 414.5 421.1 420.7C414.9 426.9 414.9 437.1 421.1 443.3L466.2 488.4C438.8 512.2 405.7 529.5 369.1 538.1L331.7 500.7C325.5 494.5 315.3 494.5 309.1 500.7C302.9 506.9 302.9 517.1 309.1 523.3L329.5 543.7C325.5 543.9 321.4 544 317.3 544C260.7 544 206.3 522.9 164.5 485C183 485.1 202.6 481.7 222.3 475.6C272.8 460 328.1 425.6 377.1 376.7C426.1 327.8 460.5 272.4 476 221.9C482.1 202.2 485.4 182.6 485.4 164.1zM382.7 167.3C386.2 170.8 392.3 184.3 381 216.1C370.6 245.5 348.1 281 314.8 314.3C281.5 347.6 245.9 370.2 216.6 380.5C184.8 391.7 171.2 385.6 167.8 382.2C164.4 378.8 158.2 365.2 169.5 333.4C179.9 304 202.4 268.5 235.7 235.2C269 201.9 304.6 179.3 333.9 169C365.7 157.8 379.3 163.9 382.7 167.3zM405.3 144.7C371 110.3 284.9 140.7 213 212.5C141.1 284.3 110.8 370.5 145.1 404.8C179.4 439.1 265.6 408.8 337.4 336.9C409.2 265 439.6 178.9 405.3 144.6z"/></svg>