<svg xmlns="http://www.w3.org/2000/svg" viewBox="0 0 640 640"><!--! Font Awesome Pro 7.1.0 by @fontawesome - https://fontawesome.com License - https://fontawesome.com/license (Commercial License) Copyright 2025 Fonticons, Inc. --><path fill="currentColor" d="M176 192C202.5 192 224 170.5 224 144C224 117.5 202.5 96 176 96C149.5 96 128 117.5 128 144C128 170.5 149.5 192 176 192zM256 144C256 182.7 228.5 215 192 222.4L192 240C192 275.3 220.7 304 256 304L384 304C419.3 304 448 275.3 448 240L448 222.4C411.5 215 384 182.7 384 144C384 99.8 419.8 64 464 64C508.2 64 544 99.8 544 144C544 182.7 516.5 215 480 222.4L480 240C480 293 437 336 384 336L336 336L336 417.6C372.5 425 400 457.3 400 496C400 540.2 364.2 576 320 576C275.8 576 240 540.2 240 496C240 457.3 267.5 425 304 417.6L304 336L256 336C203 336 160 293 160 240L160 222.4C123.5 215 96 182.7 96 144C96 99.8 131.8 64 176 64C220.2 64 256 99.8 256 144zM464 192C490.5 192 512 170.5 512 144C512 117.5 490.5 96 464 96C437.5 96 416 117.5 416 144C416 170.5 437.5 192 464 192zM368 496C368 469.5 346.5 448 320 448C293.5 448 272 469.5 272 496C272 522.5 293.5 544 320 544C346.5 544 368 522.5 368 496z"/></svg>