<svg xmlns="http://www.w3.org/2000/svg" viewBox="0 0 640 640"><!--! Font Awesome Pro 7.1.0 by @fontawesome - https://fontawesome.com License - https://fontawesome.com/license (Commercial License) Copyright 2025 Fonticons, Inc. --><path fill="currentColor" d="M379.3 68.7L432 121.4L484.7 68.7C490.9 62.5 501.1 62.5 507.3 68.7C513.5 74.9 513.5 85.1 507.3 91.3L454.6 144L507.3 196.7C513.5 202.9 513.5 213.1 507.3 219.3C501.1 225.5 490.9 225.5 484.7 219.3L432 166.6L379.3 219.3C373.1 225.5 362.9 225.5 356.7 219.3C350.5 213.1 350.5 202.9 356.7 196.7L409.4 144L356.7 91.3C350.5 85.1 350.5 74.9 356.7 68.7C362.9 62.5 373.1 62.5 379.3 68.7zM256 144C256 117.5 234.5 96 208 96C181.5 96 160 117.5 160 144C160 170.5 181.5 192 208 192C234.5 192 256 170.5 256 144zM288 144C288 182.7 260.5 215 224 222.4L224 417.6C260.5 425 288 457.3 288 496C288 540.2 252.2 576 208 576C163.8 576 128 540.2 128 496C128 457.3 155.5 425 192 417.6L192 222.4C155.5 215 128 182.7 128 144C128 99.8 163.8 64 208 64C252.2 64 288 99.8 288 144zM160 496C160 522.5 181.5 544 208 544C234.5 544 256 522.5 256 496C256 469.5 234.5 448 208 448C181.5 448 160 469.5 160 496zM432 544C458.5 544 480 522.5 480 496C480 469.5 458.5 448 432 448C405.5 448 384 469.5 384 496C384 522.5 405.5 544 432 544zM352 496C352 457.3 379.5 425 416 417.6L416 272C416 263.2 423.2 256 432 256C440.8 256 448 263.2 448 272L448 417.6C484.5 425 512 457.3 512 496C512 540.2 476.2 576 432 576C387.8 576 352 540.2 352 496z"/></svg>