<svg xmlns="http://www.w3.org/2000/svg" viewBox="0 0 640 640"><!--! Font Awesome Pro 7.1.0 by @fontawesome - https://fontawesome.com License - https://fontawesome.com/license (Commercial License) Copyright 2025 Fonticons, Inc. --><path fill="currentColor" d="M176 96C202.5 96 224 117.5 224 144C224 170.5 202.5 192 176 192C149.5 192 128 170.5 128 144C128 117.5 149.5 96 176 96zM192.9 222.2C229 214.5 256 182.4 256 144C256 99.8 220.2 64 176 64C131.8 64 96 99.8 96 144C96 182.7 123.5 215 160 222.4L160 417.6C123.5 425 96 457.3 96 496C96 540.2 131.8 576 176 576C220.2 576 256 540.2 256 496C256 457.3 228.5 425 192 417.6L192 298.5C218.4 331.1 258.8 352 304 352L385.6 352C393 388.5 425.3 416 464 416C508.2 416 544 380.2 544 336C544 291.8 508.2 256 464 256C425.3 256 393 283.5 385.6 320L304 320C247 320 199.9 277.4 192.9 222.2zM512 336C512 362.5 490.5 384 464 384C437.5 384 416 362.5 416 336C416 309.5 437.5 288 464 288C490.5 288 512 309.5 512 336zM224 496C224 522.5 202.5 544 176 544C149.5 544 128 522.5 128 496C128 469.5 149.5 448 176 448C202.5 448 224 469.5 224 496z"/></svg>