<svg xmlns="http://www.w3.org/2000/svg" viewBox="0 0 640 640"><!--! Font Awesome Pro 7.1.0 by @fontawesome - https://fontawesome.com License - https://fontawesome.com/license (Commercial License) Copyright 2025 Fonticons, Inc. --><path fill="currentColor" d="M320 416C373 416 416 373 416 320C416 267 373 224 320 224C267 224 224 267 224 320C224 373 267 416 320 416zM447 336C439.1 399.1 385.3 448 320 448C254.7 448 200.9 399.1 193 336L48 336C39.2 336 32 328.8 32 320C32 311.2 39.2 304 48 304L193 304C200.9 240.9 254.7 192 320 192C385.3 192 439.1 240.9 447 304L592 304C600.8 304 608 311.2 608 320C608 328.8 600.8 336 592 336L447 336z"/></svg>