<svg xmlns="http://www.w3.org/2000/svg" viewBox="0 0 640 640"><!--! Font Awesome Pro 7.1.0 by @fontawesome - https://fontawesome.com License - https://fontawesome.com/license (Commercial License) Copyright 2025 Fonticons, Inc. --><path fill="currentColor" d="M160 144C160 117.5 181.5 96 208 96C234.5 96 256 117.5 256 144C256 170.5 234.5 192 208 192C181.5 192 160 170.5 160 144zM224 222.4C260.5 215 288 182.7 288 144C288 99.8 252.2 64 208 64C163.8 64 128 99.8 128 144C128 182.7 155.5 215 192 222.4L192 417.6C155.5 425 128 457.3 128 496C128 540.2 163.8 576 208 576C252.2 576 288 540.2 288 496C288 457.3 260.5 425 224 417.6L224 222.4zM432 176C449.7 176 464 161.7 464 144C464 126.3 449.7 112 432 112C414.3 112 400 126.3 400 144C400 161.7 414.3 176 432 176zM464 296C464 278.3 449.7 264 432 264C414.3 264 400 278.3 400 296C400 313.7 414.3 328 432 328C449.7 328 464 313.7 464 296zM256 496C256 522.5 234.5 544 208 544C181.5 544 160 522.5 160 496C160 469.5 181.5 448 208 448C234.5 448 256 469.5 256 496zM432 544C405.5 544 384 522.5 384 496C384 469.5 405.5 448 432 448C458.5 448 480 469.5 480 496C480 522.5 458.5 544 432 544zM432 576C476.2 576 512 540.2 512 496C512 451.8 476.2 416 432 416C387.8 416 352 451.8 352 496C352 540.2 387.8 576 432 576z"/></svg>