<svg xmlns="http://www.w3.org/2000/svg" viewBox="0 0 640 640"><!--! Font Awesome Pro 7.1.0 by @fontawesome - https://fontawesome.com License - https://fontawesome.com/license (Commercial License) Copyright 2025 Fonticons, Inc. --><path fill="currentColor" d="M379.3 91.3C385.5 85.1 385.5 74.9 379.3 68.7C373.1 62.5 362.9 62.5 356.7 68.7L292.7 132.7C286.5 138.9 286.5 149.1 292.7 155.3L356.7 219.3C362.9 225.5 373.1 225.5 379.3 219.3C385.5 213.1 385.5 202.9 379.3 196.7L342.6 160L416 160C442.5 160 464 181.5 464 208L464 417.6C427.5 425 400 457.3 400 496C400 540.2 435.8 576 480 576C524.2 576 560 540.2 560 496C560 457.3 532.5 425 496 417.6L496 208C496 163.8 460.2 128 416 128L342.6 128L379.3 91.3zM112 144C112 117.5 133.5 96 160 96C186.5 96 208 117.5 208 144C208 170.5 186.5 192 160 192C133.5 192 112 170.5 112 144zM176 222.4C212.5 215 240 182.7 240 144C240 99.8 204.2 64 160 64C115.8 64 80 99.8 80 144C80 182.7 107.5 215 144 222.4L144 417.6C107.5 425 80 457.3 80 496C80 540.2 115.8 576 160 576C204.2 576 240 540.2 240 496C240 457.3 212.5 425 176 417.6L176 222.4zM112 496C112 469.5 133.5 448 160 448C186.5 448 208 469.5 208 496C208 522.5 186.5 544 160 544C133.5 544 112 522.5 112 496zM480 448C506.5 448 528 469.5 528 496C528 522.5 506.5 544 480 544C453.5 544 432 522.5 432 496C432 469.5 453.5 448 480 448z"/></svg>