<svg xmlns="http://www.w3.org/2000/svg" viewBox="0 0 640 640"><!--! Font Awesome Pro 7.1.0 by @fontawesome - https://fontawesome.com License - https://fontawesome.com/license (Commercial License) Copyright 2025 Fonticons, Inc. --><path fill="currentColor" d="M235.3 155.3C241.5 149.1 241.5 138.9 235.3 132.7C229.1 126.5 218.9 126.5 212.7 132.7L36.7 308.7C30.5 314.9 30.5 325.1 36.7 331.3L212.7 507.3C218.9 513.5 229.1 513.5 235.3 507.3C241.5 501.1 241.5 490.9 235.3 484.7L70.6 320L235.3 155.3zM404.7 155.3L569.4 320L404.7 484.7C398.5 490.9 398.5 501.1 404.7 507.3C410.9 513.5 421.1 513.5 427.3 507.3L603.3 331.3C609.5 325.1 609.5 314.9 603.3 308.7L427.3 132.7C421.1 126.5 410.9 126.5 404.7 132.7C398.5 138.9 398.5 149.1 404.7 155.3z"/></svg>