<svg xmlns="http://www.w3.org/2000/svg" viewBox="0 0 640 640"><!--! Font Awesome Pro 7.1.0 by @fontawesome - https://fontawesome.com License - https://fontawesome.com/license (Commercial License) Copyright 2025 Fonticons, Inc. --><path fill="currentColor" d="M144 128C117.5 128 96 149.5 96 176L96 272C96 280.8 88.8 288 80 288C71.2 288 64 280.8 64 272L64 176C64 131.8 99.8 96 144 96L517.1 96C532 96 544 108.1 544 122.9C544 126.2 543.4 129.6 542.2 132.7L498.3 245.7C545.5 280.7 576.1 336.8 576.1 400L576.1 408C576.1 463.5 541.5 507.4 520.2 529.2C510.3 539.4 496.3 544 482.1 544L222 544C207.8 544 193.9 539.3 183.9 529.2C162.7 507.5 128 463.5 128 408L128 400C128 336.8 158.6 280.7 205.8 245.7L160 128L144 128zM509.7 128L194.4 128L238 240L466.2 240L509.8 128zM160.8 384C160.3 389.3 160 394.6 160 400L160 408C160 450.6 187.2 486.8 206.8 506.8C209.5 509.6 214.5 512 222 512L482 512C489.5 512 494.5 509.6 497.2 506.8C516.8 486.8 544 450.6 544 408L544 400C544 394.6 543.7 389.3 543.2 384L160.8 384zM167.3 352L536.7 352C526.6 319.7 506.5 291.9 480 272L224 272C197.6 291.9 177.5 319.7 167.3 352z"/></svg>