<svg xmlns="http://www.w3.org/2000/svg" viewBox="0 0 640 640"><!--! Font Awesome Pro 7.1.0 by @fontawesome - https://fontawesome.com License - https://fontawesome.com/license (Commercial License) Copyright 2025 Fonticons, Inc. --><path fill="currentColor" d="M577.5 229.2L524.3 198.8C498.2 183.9 468.8 175.8 438.7 175.2C406.9 174.6 376.2 163.7 351.1 144.2L326.2 124.9C330.7 111.9 337.8 100.3 347.1 91C386.8 51.3 467.4 52.9 528.1 113.6C563.9 149.4 579.1 192.1 577.5 229.2zM571 262.4C566.5 274.8 559.6 285.7 550.7 294.6C511 334.3 430.4 332.7 369.7 272C335.3 237.6 319.9 196.9 320.2 160.8L331.4 169.5C362 193.3 399.4 206.5 438.1 207.2C462.8 207.7 487 214.3 508.4 226.6L571 262.4zM573.3 317.3C629.6 261 619.5 159.7 550.7 91C481.9 22.3 380.7 12.1 324.4 68.4C268.1 124.7 278.3 225.9 347 294.7C415.7 363.5 517 373.6 573.3 317.3zM200.1 572.5C192.2 574.8 184.2 576 176.1 576C119.9 576 64.1 517.8 64.1 432C64.1 375.9 87.9 331.7 120.1 307.7L120.1 321.5C120.1 365.6 135.6 408.3 163.8 442.2C187.2 470.3 200.1 505.8 200.1 542.4L200.1 572.4zM232.1 556.3L232.1 542.5C232.1 498.4 216.6 455.7 188.4 421.8C165 393.7 152.1 358.2 152.1 321.6L152.1 291.6C160 289.3 168 288.1 176.1 288.1C232.3 288.1 288.1 346.3 288.1 432.1C288.1 488.2 264.3 532.4 232.1 556.4zM320.1 432C320.1 334.8 255.6 256 176.1 256C96.6 256 32.1 334.8 32.1 432C32.1 529.2 96.6 608 176.1 608C255.6 608 320.1 529.2 320.1 432z"/></svg>