<svg xmlns="http://www.w3.org/2000/svg" viewBox="0 0 640 640"><!--! Font Awesome Pro 7.1.0 by @fontawesome - https://fontawesome.com License - https://fontawesome.com/license (Commercial License) Copyright 2025 Fonticons, Inc. --><path fill="currentColor" d="M230.9 74.9L139.9 178.9C129.7 190.6 126 207.3 130.3 222.3L225.8 552.9C229.8 566.6 242.3 576 256.5 576L384.4 576C398.7 576 411.2 566.6 415.1 552.9L510.6 222.3C514.9 207.3 511.2 190.6 500.9 178.9L409.9 74.9C403.9 68 395.2 64 385.9 64L255 64C245.8 64 237 68 230.9 74.9zM255 96L386 96L477 200C480.2 203.6 481.3 208.8 480 213.5L384.4 544L256.5 544L161 213.4C159.7 208.8 160.8 203.6 164 199.9L255 96z"/></svg>