<svg xmlns="http://www.w3.org/2000/svg" viewBox="0 0 640 640"><!--! Font Awesome Pro 7.1.0 by @fontawesome - https://fontawesome.com License - https://fontawesome.com/license (Commercial License) Copyright 2025 Fonticons, Inc. --><path fill="currentColor" d="M144.8 436.9L173.6 403.3C210.2 360.6 263.7 336 319.9 336C385.5 336 447.8 307.3 490.5 257.5L507.5 237.7C521.8 299.9 500.7 377.6 439.1 439.2C351.4 526.9 231 532.5 169.2 470.7C159.3 460.8 151.1 449.4 144.8 436.9zM132.4 402.3C118.1 340.1 139.2 262.4 200.8 200.8C288.5 113.1 408.9 107.5 470.7 169.3C480.6 179.2 488.8 190.6 495.1 203.1L466.3 236.7C429.7 279.4 376.2 304 320 304C254.4 304 192.1 332.7 149.4 382.5L132.4 402.3zM178.2 178.2C82.4 273.9 68.3 415 146.6 493.4C224.9 571.8 366.1 557.6 461.8 461.8C557.5 366 571.7 225 493.4 146.6C415.1 68.2 273.9 82.4 178.2 178.2z"/></svg>