<svg xmlns="http://www.w3.org/2000/svg" viewBox="0 0 640 640"><!--! Font Awesome Pro 7.1.0 by @fontawesome - https://fontawesome.com License - https://fontawesome.com/license (Commercial License) Copyright 2025 Fonticons, Inc. --><path fill="currentColor" d="M336.5 176C336.5 167.2 329.3 160 320.5 160C311.7 160 304.5 167.2 304.5 176L304.5 240L240.5 240C231.7 240 224.5 247.2 224.5 256C224.5 264.8 231.7 272 240.5 272L304.5 272L304.5 400C304.5 408.8 311.7 416 320.5 416C329.3 416 336.5 408.8 336.5 400L336.5 272L400.5 272C409.3 272 416.5 264.8 416.5 256C416.5 247.2 409.3 240 400.5 240L336.5 240L336.5 176zM139.9 178.9L230.9 74.9C237 68 245.7 64 255 64L386 64C395.2 64 404 68 410.1 74.9L501.1 178.9C511.4 190.6 515.1 207.3 510.8 222.3L415.1 552.9C411.1 566.6 398.6 576 384.4 576L256.5 576C242.2 576 229.7 566.6 225.8 552.9L130.3 222.3C126 207.3 129.7 190.6 140 178.9zM164 200C160.8 203.6 159.7 208.8 161 213.5L256.5 544.1L384.4 544.1L479.9 213.5C481.2 208.9 480.1 203.7 476.9 200L385.9 96L254.9 96L163.9 200z"/></svg>