<svg xmlns="http://www.w3.org/2000/svg" viewBox="0 0 640 640"><!--! Font Awesome Pro 7.1.0 by @fontawesome - https://fontawesome.com License - https://fontawesome.com/license (Commercial License) Copyright 2025 Fonticons, Inc. --><path fill="currentColor" d="M213 65.1C209.4 64.1 205.6 65.8 203.8 69.1L189.4 96.8C187.1 101.3 182.8 104.4 177.8 105.2C172.1 106.1 166.5 107.6 161.2 109.7C156.5 111.5 151.2 110.9 147 108.2L120.7 91.4C117.5 89.4 113.4 89.8 110.7 92.5L92.7 110.5C90 113.2 89.6 117.3 91.6 120.5L108.4 146.8C111.1 151 111.6 156.3 109.9 161C108.9 163.7 108 166.4 107.3 169.2C106.6 172 105.9 174.8 105.5 177.6C104.7 182.6 101.6 186.8 97.1 189.2L69.3 203.7C66 205.4 64.3 209.2 65.3 212.9L71.9 237.5C72.9 241.1 76.2 243.6 80 243.4L111.1 242C116.1 241.8 121 243.9 124.2 247.8C127.8 252.2 131.9 256.3 136.4 260C140.3 263.2 142.4 268 142.2 273.1L140.9 304.3C140.7 308 143.2 311.4 146.8 312.4L171.4 319C175 320 178.8 318.3 180.6 315L195 287.2C197.3 282.7 201.6 279.6 206.6 278.8C212.3 277.9 217.9 276.4 223.2 274.3C227.9 272.5 233.2 273.1 237.4 275.8L263.7 292.6C266.9 294.6 271 294.2 273.7 291.5L291.7 273.5C294.4 270.8 294.8 266.7 292.8 263.5L276 237.2C273.3 233 272.8 227.7 274.5 223C275.5 220.3 276.4 217.6 277.1 214.8C277.8 212 278.5 209.2 278.9 206.4C279.7 201.4 282.8 197.2 287.3 194.8L315 180.4C318.3 178.7 320 174.9 319 171.2L312.4 146.6C311.4 143 308.1 140.5 304.3 140.7L273.3 142C268.3 142.2 263.4 140.1 260.2 136.2C256.6 131.8 252.5 127.7 248 124C244.1 120.8 242 116 242.2 110.9L243.5 79.7C243.7 76 241.2 72.6 237.6 71.6L213 65.1zM175.5 54.3C184.2 37.7 203.2 29.3 221.3 34.2L245.9 40.8C264 45.7 276.3 62.4 275.5 81.2L274.5 104.7C276.2 106.3 277.9 108 279.5 109.7L303.1 108.7C321.8 107.9 338.6 120.2 343.5 138.3L350.1 162.9C355 181 346.6 200.1 330 208.7L309 219.6C308.5 221.9 307.8 224.2 307.2 226.4L319.9 246.3C330 262.1 327.7 282.8 314.4 296.1L296.4 314.1C283.1 327.4 262.5 329.6 246.6 319.6L226.7 307C224.4 307.7 222.2 308.3 219.8 308.8L208.9 329.7C200.2 346.3 181.2 354.7 163.1 349.9L138.5 343.3C120.4 338.4 108.1 321.7 108.9 302.9L109.9 279.4C108.2 277.8 106.5 276.1 104.9 274.4L81.3 275.4C62.6 276.2 45.8 263.9 40.9 245.8L34.4 221.1C29.5 203 37.9 183.9 54.5 175.3L75.4 164.4C75.9 162.1 76.6 159.8 77.2 157.6L64.6 137.6C54.5 121.8 56.8 101.1 70.1 87.8L88.1 69.8C101.3 56.6 122 54.3 137.9 64.4L157.7 77C160 76.3 162.2 75.7 164.6 75.2L175.5 54.3zM177.7 246.1C147.8 238.1 130.1 207.4 138.1 177.5C146.1 147.6 176.8 129.9 206.7 137.9C236.6 145.9 254.3 176.6 246.3 206.5C238.3 236.4 207.6 254.1 177.7 246.1zM215.4 198.2C218.8 185.4 211.2 172.2 198.4 168.8C185.6 165.4 172.4 173 169 185.8C165.6 198.6 173.2 211.8 186 215.2C198.8 218.6 212 211 215.4 198.2zM402.8 327.7C399.2 328.7 396.7 332 396.9 335.8L398.2 367C398.4 372 396.3 376.9 392.4 380.1C387.9 383.8 383.9 387.9 380.2 392.3C377 396.2 372.2 398.4 367.1 398.1L335.9 396.8C332.2 396.6 328.8 399.1 327.8 402.7L321.2 427.3C320.2 430.9 321.9 434.7 325.2 436.5L353 450.8C357.5 453.1 360.6 457.4 361.4 462.4C361.9 465.2 362.5 468 363.2 470.8C363.9 473.6 364.8 476.4 365.8 479C367.6 483.7 367 489 364.3 493.2L347.5 519.5C345.5 522.7 345.9 526.8 348.6 529.5L366.6 547.5C369.3 550.2 373.4 550.6 376.6 548.6L403 531.9C407.2 529.2 412.5 528.7 417.2 530.4C422.6 532.4 428.1 533.9 433.8 534.9C438.8 535.7 443 538.8 445.4 543.3L459.8 571C461.5 574.3 465.3 576 469 575L493.6 568.4C497.2 567.4 499.7 564.1 499.5 560.3L498.2 529.1C498 524.1 500.1 519.2 504 516.1C508.5 512.4 512.5 508.3 516.2 503.9C519.4 500 524.2 497.8 529.3 498.1L560.5 499.4C564.2 499.6 567.6 497.1 568.6 493.5L575.2 468.9C576.2 465.3 574.5 461.5 571.2 459.7L543.5 445.3C539 443 535.9 438.7 535.1 433.7C534.6 430.9 534 428.1 533.3 425.3C532.6 422.5 531.7 419.7 530.7 417.1C528.9 412.4 529.5 407.1 532.2 402.9L549 376.6C551 373.4 550.6 369.3 547.9 366.6L529.9 348.6C527.2 345.9 523.1 345.5 519.9 347.5L493.6 364.3C489.4 367 484.1 367.6 479.4 365.8C474 363.8 468.5 362.3 462.8 361.3C457.8 360.5 453.6 357.4 451.2 352.9L436.8 325.2C435.1 321.9 431.3 320.2 427.6 321.2L403 327.8zM364.9 337.2C364.1 318.5 376.4 301.7 394.5 296.8L419.1 290.2C437.2 285.3 456.3 293.7 464.9 310.3L475.8 331.2C478.1 331.7 480.4 332.4 482.7 333L502.6 320.3C518.4 310.2 539.1 312.5 552.4 325.8L570.4 343.8C583.7 357.1 585.9 377.7 575.9 393.6L563.2 413.5C563.9 415.7 564.5 418 565 420.3L585.9 431.2C602.5 439.9 610.9 458.9 606.1 477L599.5 501.6C594.6 519.7 577.9 532 559.1 531.2L535.5 530.2C533.9 531.9 532.2 533.6 530.5 535.2L531.5 558.7C532.3 577.4 520 594.2 501.9 599.1L477.3 605.7C459.2 610.6 440.1 602.2 431.5 585.5L420.6 564.6C418.3 564.1 416 563.4 413.7 562.8L393.8 575.5C378 585.6 357.3 583.3 344 570L326 552C312.7 538.7 310.5 518.1 320.5 502.2L333.2 482.3C332.5 480.1 331.9 477.8 331.4 475.5L310.5 464.6C293.9 455.9 285.5 436.9 290.4 418.8L297 394.2C301.9 376.1 318.6 363.8 337.4 364.6L361 365.6C362.6 363.9 364.3 362.2 366 360.6L365 337.1zM462.7 502.2C432.8 510.2 402.1 492.5 394.1 462.6C386.1 432.7 403.8 402 433.7 394C463.6 386 494.3 403.7 502.3 433.6C510.3 463.5 492.6 494.2 462.7 502.2zM471.4 441.9C468 429.1 454.8 421.5 442 424.9C429.2 428.3 421.6 441.5 425 454.3C428.4 467.1 441.6 474.7 454.4 471.3C467.2 467.9 474.8 454.7 471.4 441.9z"/></svg>