<svg xmlns="http://www.w3.org/2000/svg" viewBox="0 0 640 640"><!--! Font Awesome Pro 7.1.0 by @fontawesome - https://fontawesome.com License - https://fontawesome.com/license (Commercial License) Copyright 2025 Fonticons, Inc. --><path fill="currentColor" d="M320 96C443.7 96 544 196.3 544 320C544 443.7 443.7 544 320 544C196.3 544 96 443.7 96 320C96 196.3 196.3 96 320 96zM320 576C461.4 576 576 461.4 576 320C576 178.6 461.4 64 320 64C178.6 64 64 178.6 64 320C64 461.4 178.6 576 320 576zM320 464C240.5 464 176 399.5 176 320C176 240.5 240.5 176 320 176C399.5 176 464 240.5 464 320C464 399.5 399.5 464 320 464zM144 320C144 417.2 222.8 496 320 496C417.2 496 496 417.2 496 320C496 222.8 417.2 144 320 144C222.8 144 144 222.8 144 320zM336 256C336 247.2 328.8 240 320 240C311.2 240 304 247.2 304 256L304 384C304 392.8 311.2 400 320 400C328.8 400 336 392.8 336 384L336 256z"/></svg>