<svg xmlns="http://www.w3.org/2000/svg" viewBox="0 0 640 640"><!--! Font Awesome Pro 7.1.0 by @fontawesome - https://fontawesome.com License - https://fontawesome.com/license (Commercial License) Copyright 2025 Fonticons, Inc. --><path fill="currentColor" d="M192 396.7C225.3 407.5 263.4 414.3 304 415.7L304 479.7C262.3 478.3 224.1 471.6 192 461.4L192 396.7zM96 341.7C112.2 358.2 134.1 372.6 160 384.3L160 449C157.7 447.9 155.5 446.9 153.3 445.8C110.4 424.3 96 400.6 96 383.9L96 341.7zM320 128C178.6 128 64 192.5 64 272L64 384C64 454.7 178.6 512 320 512C461.4 512 576 454.7 576 384L576 272C576 192.5 461.4 128 320 128zM480 384.4C505.9 372.7 527.8 358.2 544 341.8L544 384C544 400.7 529.6 424.4 486.7 445.9C484.5 447 482.3 448.1 480 449.1L480 384.4zM336 415.7C376.6 414.3 414.7 407.5 448 396.7L448 461.4C415.9 471.7 377.7 478.3 336 479.7L336 415.7zM96 272C96 210.1 196.3 160 320 160C443.7 160 544 210.1 544 272C544 333.9 443.7 384 320 384C196.3 384 96 333.9 96 272z"/></svg>