<svg xmlns="http://www.w3.org/2000/svg" viewBox="0 0 640 640"><!--! Font Awesome Pro 7.1.0 by @fontawesome - https://fontawesome.com License - https://fontawesome.com/license (Commercial License) Copyright 2025 Fonticons, Inc. --><path fill="currentColor" d="M396.7 448C407.5 414.7 414.3 376.6 415.7 336L479.7 336C478.3 377.7 471.6 415.9 461.4 448L396.7 448zM341.7 544C358.2 527.8 372.6 505.9 384.3 480L449 480C447.9 482.3 446.9 484.5 445.8 486.7C424.3 529.6 400.6 544 383.9 544L341.7 544zM128 320C128 461.4 192.5 576 272 576L384 576C454.7 576 512 461.4 512 320C512 178.6 454.7 64 384 64L272 64C192.5 64 128 178.6 128 320zM384.4 160C372.7 134.1 358.2 112.2 341.8 96L384 96C400.7 96 424.4 110.4 445.9 153.3C447 155.5 448.1 157.7 449.1 160L384.4 160zM415.7 304C414.3 263.4 407.5 225.3 396.7 192L461.4 192C471.7 224.1 478.3 262.3 479.7 304L415.7 304zM272 544C210.1 544 160 443.7 160 320C160 196.3 210.1 96 272 96C333.9 96 384 196.3 384 320C384 443.7 333.9 544 272 544zM352 320C352 222.8 316.2 144 272 144C227.8 144 192 222.8 192 320C192 417.2 227.8 496 272 496C316.2 496 352 417.2 352 320zM272 456C245.5 456 224 395.1 224 320C224 244.9 245.5 184 272 184C298.5 184 320 244.9 320 320C320 395.1 298.5 456 272 456z"/></svg>