<svg xmlns="http://www.w3.org/2000/svg" viewBox="0 0 640 640"><!--! Font Awesome Pro 7.1.0 by @fontawesome - https://fontawesome.com License - https://fontawesome.com/license (Commercial License) Copyright 2025 Fonticons, Inc. --><path fill="currentColor" d="M224 144C224 144.3 224 144.6 224.1 145C213.2 145.7 202.5 146.7 192 148.1L192 144C192 128.7 200.6 116.3 211.4 107C222.3 97.6 237.1 89.9 254.1 83.8C288.1 71.4 334.1 64.1 384 64.1C433.9 64.1 479.9 71.4 513.9 83.8C530.8 90 545.7 97.7 556.6 107C567.5 116.3 576 128.8 576 144L576 361.9C576 377.3 567.8 390.1 556.9 399.9C546 409.7 531.2 417.8 514.2 424.3C508.5 426.5 502.4 428.5 496.1 430.4L496.1 396.8C498.4 396 500.7 395.2 502.9 394.4C517.8 388.7 528.7 382.4 535.6 376.2C542.5 370 544 365 544 361.9L544 295.7C535.3 301.3 525.2 306.2 514.1 310.4C508.4 312.6 502.3 314.6 496 316.5L496 282.9C498.3 282.1 500.6 281.3 502.8 280.5C517.7 274.8 528.6 268.5 535.5 262.3C542.4 256.1 544 251.1 544 248L544 190.1C535.2 195.5 525 200.2 513.9 204.2C501.5 208.7 487.5 212.5 472.4 215.6C468 210.2 463.4 205.5 459 201.5C453.6 196.6 447.8 192.2 441.8 188.2C465.3 185.1 486.1 180.2 503 174.1C517.9 168.7 528.8 162.6 535.8 156.7C542.8 150.7 544.1 146.3 544.1 143.9C544.1 141.5 542.8 137.1 535.8 131.1C528.8 125.3 517.9 119.2 503 113.8C473.3 103 431.2 96 384 96C336.8 96 294.7 103 265 113.8C250.1 119.2 239.2 125.3 232.2 131.2C225.2 137.2 223.9 141.6 223.9 144zM96 272C96 274.4 97.3 278.8 104.3 284.8C111.2 290.7 122.1 296.8 137.1 302.2C166.8 313 208.8 320 256.1 320C303.4 320 345.4 313 375.1 302.2C390 296.8 400.9 290.7 407.9 284.8C414.9 278.8 416.2 274.4 416.2 272C416.2 269.6 414.9 265.2 407.9 259.2C401 253.3 390.1 247.2 375.1 241.8C345.4 231 303.4 224 256.1 224C208.8 224 166.8 231 137.1 241.8C122.2 247.2 111.3 253.3 104.3 259.2C97.3 265.2 96 269.6 96 272zM64 272C64 256.7 72.6 244.3 83.4 235C94.3 225.6 109.1 217.9 126.1 211.8C160.1 199.4 206.1 192.1 256 192.1C305.9 192.1 351.9 199.4 385.9 211.8C402.8 218 417.7 225.7 428.6 235C439.5 244.3 448 256.8 448 272L448 489.9C448 505.3 439.8 518.1 428.9 527.9C418 537.7 403.2 545.8 386.2 552.3C352.1 565.3 306 573 256 573C206 573 159.9 565.3 125.9 552.3C108.9 545.8 94.1 537.7 83.2 527.9C72.3 518.1 64 505.3 64 489.9L64 272zM416 318.1C407.2 323.5 397 328.2 385.9 332.2C351.9 344.6 305.9 351.9 256 351.9C206.1 351.9 160.1 344.6 126.1 332.2C115 328.2 104.8 323.5 96 318.1L96 376C96 379.1 97.6 384 104.5 390.2C111.4 396.4 122.3 402.8 137.2 408.4C166.9 419.7 208.8 427 256 427C303.2 427 345.1 419.7 374.8 408.4C389.7 402.7 400.6 396.4 407.5 390.2C414.4 384 416 379.1 416 376L416 318.1zM96 489.9C96 493 97.6 497.9 104.5 504.1C111.4 510.3 122.3 516.7 137.2 522.3C166.9 533.6 208.8 541 256 541C303.2 541 345.1 533.7 374.8 522.4C389.7 516.7 400.6 510.4 407.5 504.2C414.4 498 416 493 416 489.9L416 423.7C407.3 429.3 397.2 434.2 386.1 438.4C352 451.4 306 459.1 256 459.1C206 459.1 159.9 451.4 125.9 438.4C114.9 434.2 104.8 429.3 96 423.7L96 489.9z"/></svg>