<svg xmlns="http://www.w3.org/2000/svg" viewBox="0 0 640 640"><!--! Font Awesome Pro 7.1.0 by @fontawesome - https://fontawesome.com License - https://fontawesome.com/license (Commercial License) Copyright 2025 Fonticons, Inc. --><path fill="currentColor" d="M352 192C352 174.3 337.7 160 320 160C302.3 160 288 174.3 288 192C288 209.7 302.3 224 320 224C337.7 224 352 209.7 352 192zM256 192C256 156.7 284.7 128 320 128C355.3 128 384 156.7 384 192C384 227.3 355.3 256 320 256C284.7 256 256 227.3 256 192zM352 448C352 430.3 337.7 416 320 416C302.3 416 288 430.3 288 448C288 465.7 302.3 480 320 480C337.7 480 352 465.7 352 448zM384 448C384 483.3 355.3 512 320 512C284.7 512 256 483.3 256 448C256 412.7 284.7 384 320 384C355.3 384 384 412.7 384 448z"/></svg>