<svg xmlns="http://www.w3.org/2000/svg" viewBox="0 0 640 640"><!--! Font Awesome Pro 7.1.0 by @fontawesome - https://fontawesome.com License - https://fontawesome.com/license (Commercial License) Copyright 2025 Fonticons, Inc. --><path fill="currentColor" d="M343.9 64.5C352.5 66.6 357.7 75.3 355.5 83.9L344.5 128C365.7 128.1 386 131.5 405 137.9L420.4 76.1C422.5 67.5 431.2 62.3 439.8 64.5C448.4 66.7 453.6 75.3 451.4 83.9L434.8 150.8C449.8 158.8 463.5 168.8 475.8 180.4C482.2 186.5 482.5 196.6 476.4 203C470.3 209.4 460.2 209.7 453.8 203.7C445.6 195.9 436.5 189 426.7 183.1L352.5 479.8C391.6 477.7 427 461.6 453.8 436.4C460.2 430.3 470.4 430.6 476.4 437.1C482.4 443.6 482.2 453.7 475.8 459.7C441.5 492 395.3 511.9 344.5 512L331.5 563.9C329.4 572.5 320.7 577.7 312.1 575.5C303.5 573.3 298.3 564.7 300.5 556.1L312.2 509.4C291.5 506 272 499.2 254.1 489.7L235.6 563.9C233.5 572.5 224.8 577.7 216.2 575.5C207.6 573.3 202.4 564.7 204.6 556.1L225.8 471.2C180.8 436.1 152 381.4 152 320C152 225.3 220.6 146.6 310.8 130.9L324.5 76.2C326.6 67.6 335.3 62.4 343.9 64.6zM320 478.2L397.3 169.1C380.6 163.2 362.7 160 344.1 160C341.6 160 339.1 160.1 336.5 160.2L262.1 457.5C279.5 467.9 299.1 475.1 319.9 478.2zM184 320C184 365.9 203.4 407.4 234.4 436.5L302.2 165.5C234.1 183.9 184 246.1 184 320z"/></svg>