<svg xmlns="http://www.w3.org/2000/svg" viewBox="0 0 640 640"><!--! Font Awesome Pro 7.1.0 by @fontawesome - https://fontawesome.com License - https://fontawesome.com/license (Commercial License) Copyright 2025 Fonticons, Inc. --><path fill="currentColor" d="M160 256L224 256L224 384L160 384C107 384 64 427 64 480C64 533 107 576 160 576C213 576 256 533 256 480L256 416L384 416L384 480C384 533 427 576 480 576C533 576 576 533 576 480C576 427 533 384 480 384L416 384L416 256L480 256C533 256 576 213 576 160C576 107 533 64 480 64C427 64 384 107 384 160L384 224L256 224L256 160C256 107 213 64 160 64C107 64 64 107 64 160C64 213 107 256 160 256zM320 384L256 384L256 256L384 256L384 384L320 384zM160 224C124.7 224 96 195.3 96 160C96 124.7 124.7 96 160 96C195.3 96 224 124.7 224 160L224 224L160 224zM224 480C224 515.3 195.3 544 160 544C124.7 544 96 515.3 96 480C96 444.7 124.7 416 160 416L224 416L224 480zM416 224L416 160C416 124.7 444.7 96 480 96C515.3 96 544 124.7 544 160C544 195.3 515.3 224 480 224L416 224zM480 416C515.3 416 544 444.7 544 480C544 515.3 515.3 544 480 544C444.7 544 416 515.3 416 480L416 416L480 416z"/></svg>