<svg xmlns="http://www.w3.org/2000/svg" viewBox="0 0 640 640"><!--! Font Awesome Pro 7.1.0 by @fontawesome - https://fontawesome.com License - https://fontawesome.com/license (Commercial License) Copyright 2025 Fonticons, Inc. --><path fill="currentColor" d="M280.6 489.7L320 568.4L359.4 489.7C363.6 481.3 371.4 475.1 380.5 472.9C477.6 449.6 544 373.4 544 288C544 185.8 447.9 96 320 96C192.1 96 96 185.8 96 288C96 373.4 162.4 449.6 259.5 472.9C268.7 475.1 276.4 481.3 280.6 489.7zM325.4 579.4C325.4 579.4 325.4 579.4 325.4 579.4L325.4 579.4L325.4 579.4zM388 504L343.2 593.7C338.8 602.5 329.8 608 320 608C310.2 608 301.2 602.5 296.8 593.7L252 504C143.6 478 64 391.1 64 288C64 164.3 178.6 64 320 64C461.4 64 576 164.3 576 288C576 391.1 496.4 478 388 504z"/></svg>