<svg xmlns="http://www.w3.org/2000/svg" viewBox="0 0 640 640"><!--! Font Awesome Pro 7.1.0 by @fontawesome - https://fontawesome.com License - https://fontawesome.com/license (Commercial License) Copyright 2025 Fonticons, Inc. --><path fill="currentColor" d="M144 464.2C150.2 452.8 148.9 438.8 140.8 428.8C112.6 393.9 96 350.7 96 304C96 191 194.3 96 320 96C445.7 96 544 191 544 304C544 417 445.7 512 320 512C287.7 512 257.2 505.7 229.6 494.4C221.7 491.1 212.7 491.2 204.8 494.6L103.8 537.8L144 464.2zM64 304C64 358.4 83.3 408.6 115.9 448.9L67.1 538.3C65.1 542 64 546.2 64 550.5C64 564.6 75.4 576 89.5 576C93.5 576 97.3 575.4 101 573.9L217.4 524C248.8 536.9 283.5 544 320 544C461.4 544 576 436.5 576 304C576 171.5 461.4 64 320 64C178.6 64 64 171.5 64 304zM320 200C311.2 200 304 207.2 304 216L304 224L302.3 224C276.7 224 256 244.7 256 270.3C256 292.9 272.4 312.3 294.7 316L340 323.6C346.9 324.7 352 330.7 352 337.7C352 345.6 345.6 352 337.7 352L280 352C271.2 352 264 359.2 264 368C264 376.8 271.2 384 280 384L304 384L304 392C304 400.8 311.2 408 320 408C328.8 408 336 400.8 336 392L336 384L337.7 384C363.3 384 384 363.3 384 337.7C384 315.1 367.6 295.7 345.3 292L300 284.4C293.1 283.2 288 277.3 288 270.3C288 262.4 294.4 256 302.3 256L352 256C360.8 256 368 248.8 368 240C368 231.2 360.8 224 352 224L336 224L336 216C336 207.2 328.8 200 320 200z"/></svg>