<svg xmlns="http://www.w3.org/2000/svg" viewBox="0 0 640 640"><!--! Font Awesome Pro 7.1.0 by @fontawesome - https://fontawesome.com License - https://fontawesome.com/license (Commercial License) Copyright 2025 Fonticons, Inc. --><path fill="currentColor" d="M280.6 150.3L320 71.6L359.4 150.3C363.6 158.7 371.4 164.9 380.5 167.1C477.6 190.4 544 266.6 544 352C544 454.2 447.9 544 320 544C192.1 544 96 454.2 96 352C96 266.6 162.4 190.4 259.5 167.1C268.7 164.9 276.4 158.7 280.6 150.3zM325.5 60.6L325.5 60.6L325.5 60.6C325.5 60.6 325.5 60.6 325.5 60.6zM388 136L343.2 46.3C338.8 37.5 329.8 32 320 32C310.2 32 301.2 37.5 296.8 46.3L252 136C143.6 162 64 248.9 64 352C64 475.7 178.6 576 320 576C461.4 576 576 475.7 576 352C576 248.9 496.4 162 388 136z"/></svg>