<svg xmlns="http://www.w3.org/2000/svg" viewBox="0 0 640 640"><!--! Font Awesome Pro 7.1.0 by @fontawesome - https://fontawesome.com License - https://fontawesome.com/license (Commercial License) Copyright 2025 Fonticons, Inc. --><path fill="currentColor" d="M360.2 416.3C360.2 398.5 345.8 384 327.9 384C311.8 384 298.2 395.8 296 411.7L278 537.5C277.5 540.9 280.2 544 283.7 544C285.6 544 287.4 543 288.5 541.4L354.5 439.5C358.3 433.7 360.3 426.9 360.3 420L360.3 416.3zM392.2 416.3L392.2 420C392.2 433.1 388.4 445.9 381.3 456.9L315.3 558.8C308.4 569.5 296.4 576 283.6 576C260.6 576 243 555.7 246.3 533L264.3 407.2C268.8 375.5 295.9 352 327.9 352C363.4 352 392.2 380.8 392.2 416.3z"/></svg>