<svg xmlns="http://www.w3.org/2000/svg" viewBox="0 0 640 640"><!--! Font Awesome Pro 7.1.0 by @fontawesome - https://fontawesome.com License - https://fontawesome.com/license (Commercial License) Copyright 2025 Fonticons, Inc. --><path fill="currentColor" d="M90.5 287.3C96.9 296.1 98.5 307.5 94.6 317.6L72.6 375.4L152.1 345.1C158.7 342.6 166 342.3 172.8 344.4C188.8 349.3 206 351.9 224 351.9C315 351.9 384 284.9 384 207.9C384 130.9 315 64 224 64C133 64 64 131 64 208C64 237.1 73.6 264.4 90.5 287.3zM64.7 306.3C44 278.2 32 244.4 32 208C32 110.8 118 32 224 32C330 32 416 110.8 416 208C416 305.2 330 384 224 384C202.8 384 182.5 380.9 163.4 375.1L59.4 414.7C57.1 415.6 54.7 416 52.2 416C41 416 31.9 406.9 31.9 395.7C31.9 393.2 32.3 390.8 33.2 388.5L64.5 306.2zM227.2 432C238.1 431.9 248.9 431 259.5 429.6C274.5 493.4 336.9 544.1 416.1 544.1C434.1 544.1 451.3 541.4 467.3 536.6C474.1 534.5 481.4 534.8 488 537.3L567.5 567.6L545.5 509.8C541.6 499.6 543.2 488.2 549.6 479.5C566.4 456.6 576.1 429.4 576.1 400.2C576.1 335.4 527.2 277.7 457.5 261C460.1 250.8 462 240.3 463.1 229.5C546.4 248.7 608.1 317.8 608.1 400.2C608.1 436.6 596.1 470.4 575.4 498.4L606.7 580.7C607.6 583 608 585.4 608 587.9C608 599.1 598.9 608.2 587.7 608.2C585.2 608.2 582.8 607.7 580.5 606.9L476.5 567.3C457.5 573.1 437.1 576.2 415.9 576.2C321.8 576.2 243.5 514.1 227.1 432.2zM224 104C232.8 104 240 111.2 240 120L240 128L256 128C264.8 128 272 135.2 272 144C272 152.8 264.8 160 256 160L206.3 160C198.4 160 192 166.4 192 174.3C192 181.3 197.1 187.3 204 188.4L249.3 196C271.6 199.7 288 219 288 241.7C288 267.3 267.3 288 241.7 288L240 288L240 296C240 304.8 232.8 312 224 312C215.2 312 208 304.8 208 296L208 288L184 288C175.2 288 168 280.8 168 272C168 263.2 175.2 256 184 256L241.7 256C249.6 256 256 249.6 256 241.7C256 234.7 250.9 228.7 244 227.6L198.7 220C176.4 216.3 160 197 160 174.3C160 148.7 180.7 128 206.3 128L208 128L208 120C208 111.2 215.2 104 224 104z"/></svg>