<svg xmlns="http://www.w3.org/2000/svg" viewBox="0 0 640 640"><!--! Font Awesome Pro 7.1.0 by @fontawesome - https://fontawesome.com License - https://fontawesome.com/license (Commercial License) Copyright 2025 Fonticons, Inc. --><path fill="currentColor" d="M576 304C576 290.4 574.8 277.1 572.5 264.1C562.6 267.8 552.1 270.2 541.3 271.4C543.1 282.1 544.1 293 544.1 304.1C544.1 417.1 445.8 512.1 320.1 512.1C287.8 512.1 257.3 505.8 229.7 494.5C221.8 491.2 212.8 491.3 204.9 494.7L103.9 538L144.1 464.4C150.3 453 149 439 140.9 429C112.7 394.1 96.1 350.9 96.1 304.2C96.1 191.2 194.4 96.2 320.1 96.2C350.1 96.2 378.5 101.6 404.4 111.4C407.2 100.9 411.2 91 416.4 81.8C386.7 70.5 354.2 64.3 320.2 64.3C178.8 64.3 64.2 171.8 64.2 304.3C64.2 358.7 83.5 408.9 116.1 449.2L67.1 538.3C65.1 542 64 546.2 64 550.5C64 564.6 75.4 576 89.5 576C93.5 576 97.3 575.4 101 573.9L217.4 524C248.8 536.9 283.5 544 320 544C461.4 544 576 436.5 576 304zM480 144C480 117.5 501.5 96 528 96C554.5 96 576 117.5 576 144C576 170.5 554.5 192 528 192C501.5 192 480 170.5 480 144zM608 144C608 99.8 572.2 64 528 64C483.8 64 448 99.8 448 144C448 188.2 483.8 224 528 224C572.2 224 608 188.2 608 144z"/></svg>