<svg xmlns="http://www.w3.org/2000/svg" viewBox="0 0 640 640"><!--! Font Awesome Pro 7.1.0 by @fontawesome - https://fontawesome.com License - https://fontawesome.com/license (Commercial License) Copyright 2025 Fonticons, Inc. --><path fill="currentColor" d="M144 464.2C150.2 452.8 148.9 438.8 140.8 428.8C112.6 393.9 96 350.7 96 304C96 191 194.3 96 320 96C445.7 96 544 191 544 304C544 417 445.7 512 320 512C287.7 512 257.2 505.7 229.6 494.4C221.7 491.1 212.7 491.2 204.8 494.6L103.8 537.8L144 464.2zM64 304C64 358.4 83.3 408.6 115.9 448.9L67.1 538.3C65.1 542 64 546.2 64 550.5C64 564.6 75.4 576 89.5 576C93.5 576 97.3 575.4 101 573.9L217.4 524C248.8 536.9 283.5 544 320 544C461.4 544 576 436.5 576 304C576 171.5 461.4 64 320 64C178.6 64 64 171.5 64 304zM248 208C248 194.7 237.3 184 224 184C210.7 184 200 194.7 200 208C200 221.3 210.7 232 224 232C237.3 232 248 221.3 248 208zM295 250.5L201.2 345.8C195.3 351.8 192 359.8 192 368.2C192 385.8 206.3 400.1 223.9 400.1L416.1 400.1C433.7 400.1 448 385.8 448 368.2C448 359.8 444.7 351.8 438.8 345.8L345 250.5C338.4 243.8 329.4 240 320 240C310.6 240 301.6 243.8 295 250.5zM320 272C320.8 272 321.6 272.3 322.2 272.9L415.8 368L224.1 368L317.7 272.9C318.3 272.3 319.1 272 319.9 272z"/></svg>