<svg xmlns="http://www.w3.org/2000/svg" viewBox="0 0 640 640"><!--! Font Awesome Pro 7.1.0 by @fontawesome - https://fontawesome.com License - https://fontawesome.com/license (Commercial License) Copyright 2025 Fonticons, Inc. --><path fill="currentColor" d="M59.3 36.8C53.1 30.6 42.9 30.6 36.7 36.8C30.5 43 30.5 53.2 36.7 59.4L580.7 603.4C586.9 609.6 597.1 609.6 603.3 603.4C609.5 597.2 609.5 587 603.3 580.8L498.5 476C546.3 432.4 576 371.4 576 304C576 171.5 461.4 64 320 64C254 64 193.8 87.4 148.4 125.9L59.3 36.8zM171.1 148.6C210.4 116 262.3 96 320 96C445.7 96 544 191 544 304C544 362 518.1 415.2 475.9 453.4L171.1 148.6zM64 304C64 358.4 83.3 408.6 115.9 448.9L67.1 538.3C65.1 542 64 546.2 64 550.5C64 564.6 75.4 576 89.5 576C93.5 576 97.3 575.4 101 573.9L217.4 524C248.8 536.9 283.5 544 320 544C359.4 544 396.8 535.6 430.2 520.7L405.8 496.3C379.5 506.4 350.6 512 320 512C287.7 512 257.2 505.7 229.6 494.4C221.7 491.1 212.7 491.2 204.8 494.6L103.8 537.9L144 464.3C150.2 452.9 148.9 438.9 140.8 428.9C112.6 394 96 350.8 96 304.1C96 270.7 104.6 238.9 120 210.6L96.5 187C75.8 221.6 64 261.5 64 304z"/></svg>