<svg xmlns="http://www.w3.org/2000/svg" viewBox="0 0 640 640"><!--! Font Awesome Pro 7.1.0 by @fontawesome - https://fontawesome.com License - https://fontawesome.com/license (Commercial License) Copyright 2025 Fonticons, Inc. --><path fill="currentColor" d="M94.6 317.6C98.4 307.5 96.9 296 90.5 287.3C73.6 264.4 64 237.1 64 208C64 131 133 64 224 64C315 64 384 131 384 208C384 285 315 352 224 352C206 352 188.8 349.3 172.8 344.5C166 342.4 158.7 342.7 152.1 345.2L72.6 375.5L94.6 317.7zM32 208C32 244.4 44 278.2 64.7 306.2L33.3 388.5C32.4 390.8 32 393.2 32 395.7C32 406.9 41.1 416 52.3 416C54.8 416 57.2 415.5 59.5 414.7L163.5 375.1C182.5 380.9 202.9 384 224.1 384C330.1 384 416.1 305.2 416.1 208C416.1 110.8 330 32 224 32C118 32 32 110.8 32 208zM416 576C437.2 576 457.5 572.9 476.6 567.1L580.6 606.7C582.9 607.6 585.4 608 587.8 608C599 608 608.1 598.9 608.1 587.7C608.1 585.2 607.6 582.8 606.8 580.5L575.5 498.2C596.1 470.1 608.2 436.3 608.2 400C608.2 317.6 546.5 248.5 463.2 229.3C462.1 240.1 460.3 250.6 457.6 260.8C527.4 277.5 576.2 335.2 576.2 400C576.2 429.1 566.6 456.4 549.7 479.3C543.3 488.1 541.7 499.5 545.6 509.6L567.6 567.4L488.1 537.1C481.5 534.6 474.2 534.3 467.4 536.4C451.4 541.3 434.2 543.9 416.2 543.9C337.1 543.9 274.6 493.2 259.6 429.4C249 430.9 238.2 431.7 227.3 431.8C243.7 513.7 322 575.8 416.1 575.8zM186.8 165.2C186.8 144.7 203.4 128 224 128C244.6 128 261.2 144.7 261.2 165.2C261.2 183 250.2 192.2 238 197.7C223.3 204.3 207.9 219.2 207.9 240C207.9 248.8 215.1 256 223.9 256C232.7 256 239.9 248.8 239.9 240C239.9 236.2 243.3 230.4 251 226.9C268.8 218.9 293.1 201 293.1 165.2C293.1 127 262.1 96 223.9 96C185.7 96 154.7 127 154.7 165.2C154.7 174 161.9 181.2 170.7 181.2C179.5 181.2 186.7 174 186.7 165.2zM224 324C235 324 244 315 244 304C244 293 235 284 224 284C213 284 204 293 204 304C204 315 213 324 224 324zM493.6 344.5C498.3 337 496 327.1 488.5 322.5C481 317.9 471.1 320.1 466.5 327.6L398.9 435.8L364.9 390.5C359.6 383.4 349.6 382 342.5 387.3C335.4 392.6 334 402.6 339.3 409.7L387.3 473.7C390.5 477.9 395.5 480.3 400.8 480.1C406.1 479.9 410.9 477.1 413.7 472.6L493.7 344.6z"/></svg>