<svg xmlns="http://www.w3.org/2000/svg" viewBox="0 0 640 640"><!--! Font Awesome Pro 7.1.0 by @fontawesome - https://fontawesome.com License - https://fontawesome.com/license (Commercial License) Copyright 2025 Fonticons, Inc. --><path fill="currentColor" d="M144 464.2C150.2 452.8 148.9 438.8 140.8 428.8C112.6 393.9 96 350.7 96 304C96 191 194.3 96 320 96C445.7 96 544 191 544 304C544 417 445.7 512 320 512C287.7 512 257.2 505.7 229.6 494.4C221.7 491.1 212.7 491.2 204.8 494.6L103.8 537.8L144 464.2zM64 304C64 358.4 83.3 408.6 115.9 448.9L67.1 538.3C65.1 542 64 546.2 64 550.5C64 564.6 75.4 576 89.5 576C93.5 576 97.3 575.4 101 573.9L217.4 524C248.8 536.9 283.5 544 320 544C461.4 544 576 436.5 576 304C576 171.5 461.4 64 320 64C178.6 64 64 171.5 64 304zM331.3 212.7C325.1 206.5 314.9 206.5 308.7 212.7L236.7 284.7C230.5 290.9 230.5 301.1 236.7 307.3C242.9 313.5 253.1 313.5 259.3 307.3L304 262.6L304 384C304 392.8 311.2 400 320 400C328.8 400 336 392.8 336 384L336 262.6L380.7 307.3C386.9 313.5 397.1 313.5 403.3 307.3C409.5 301.1 409.5 290.9 403.3 284.7L331.3 212.7z"/></svg>