<svg xmlns="http://www.w3.org/2000/svg" viewBox="0 0 640 640"><!--! Font Awesome Pro 7.1.0 by @fontawesome - https://fontawesome.com License - https://fontawesome.com/license (Commercial License) Copyright 2025 Fonticons, Inc. --><path fill="currentColor" d="M144 464.2C150.2 452.8 148.9 438.8 140.8 428.8C112.6 393.9 96 350.7 96 304C96 191 194.3 96 320 96C445.7 96 544 191 544 304C544 417 445.7 512 320 512C287.7 512 257.2 505.7 229.6 494.4C221.7 491.1 212.7 491.2 204.8 494.6L103.8 537.8L144 464.2zM64 304C64 358.4 83.3 408.6 115.9 448.9L67.1 538.3C65.1 542 64 546.2 64 550.5C64 564.6 75.4 576 89.5 576C93.5 576 97.3 575.4 101 573.9L217.4 524C248.8 536.9 283.5 544 320 544C461.4 544 576 436.5 576 304C576 171.5 461.4 64 320 64C178.6 64 64 171.5 64 304zM176 288C167.2 288 160 295.2 160 304C160 312.8 167.2 320 176 320L336 320C344.8 320 352 312.8 352 304C352 295.2 344.8 288 336 288L176 288zM416 288C407.2 288 400 295.2 400 304C400 312.8 407.2 320 416 320L464 320C472.8 320 480 312.8 480 304C480 295.2 472.8 288 464 288L416 288zM208 384C199.2 384 192 391.2 192 400C192 408.8 199.2 416 208 416L256 416C264.8 416 272 408.8 272 400C272 391.2 264.8 384 256 384L208 384zM336 384C327.2 384 320 391.2 320 400C320 408.8 327.2 416 336 416L432 416C440.8 416 448 408.8 448 400C448 391.2 440.8 384 432 384L336 384z"/></svg>