<svg xmlns="http://www.w3.org/2000/svg" viewBox="0 0 640 640"><!--! Font Awesome Pro 7.1.0 by @fontawesome - https://fontawesome.com License - https://fontawesome.com/license (Commercial License) Copyright 2025 Fonticons, Inc. --><path fill="currentColor" d="M140.8 428.8C148.9 438.9 150.2 452.9 144 464.2L103.8 537.8L204.8 494.5C212.7 491.1 221.6 491 229.6 494.3C252.6 503.7 277.6 509.7 304 511.4L304 543.5C273.4 541.7 244.2 534.9 217.4 523.9L101 573.9C97.3 575.5 93.5 576 89.5 576C75.4 576 64 564.6 64 550.5C64 546.2 65.1 542 67.1 538.3L115.9 448.9C83.3 408.6 64 358.4 64 304C64 171.5 178.6 64 320 64C461.4 64 576 171.5 576 304C576 320.6 574.2 336.8 570.8 352.4C562.6 345 552.4 339.7 541.1 337.3C543 326.4 544 315.3 544 304C544 191 445.7 96 320 96C194.3 96 96 191 96 304C96 350.7 112.5 393.8 140.8 428.8zM464 368L464 592C464 600.8 456.8 608 448 608C439.2 608 432 600.8 432 592L432 368C432 359.2 439.2 352 448 352C456.8 352 464 359.2 464 368zM544 400L544 560C544 568.8 536.8 576 528 576C519.2 576 512 568.8 512 560L512 400C512 391.2 519.2 384 528 384C536.8 384 544 391.2 544 400zM384 416L384 544C384 552.8 376.8 560 368 560C359.2 560 352 552.8 352 544L352 416C352 407.2 359.2 400 368 400C376.8 400 384 407.2 384 416zM624 448L624 512C624 520.8 616.8 528 608 528C599.2 528 592 520.8 592 512L592 448C592 439.2 599.2 432 608 432C616.8 432 624 439.2 624 448z"/></svg>