<svg xmlns="http://www.w3.org/2000/svg" viewBox="0 0 640 640"><!--! Font Awesome Pro 7.1.0 by @fontawesome - https://fontawesome.com License - https://fontawesome.com/license (Commercial License) Copyright 2025 Fonticons, Inc. --><path fill="currentColor" d="M144 464.2C150.2 452.8 148.9 438.8 140.8 428.8C112.6 393.9 96 350.7 96 304C96 191 194.3 96 320 96C445.7 96 544 191 544 304C544 417 445.7 512 320 512C287.7 512 257.2 505.7 229.6 494.4C221.7 491.1 212.7 491.2 204.8 494.6L103.8 537.8L144 464.2zM64 304C64 358.4 83.3 408.6 115.9 448.9L67.1 538.3C65.1 542 64 546.2 64 550.5C64 564.6 75.4 576 89.5 576C93.5 576 97.3 575.4 101 573.9L217.4 524C248.8 536.9 283.5 544 320 544C461.4 544 576 436.5 576 304C576 171.5 461.4 64 320 64C178.6 64 64 171.5 64 304zM320 224C340.6 224 357.2 240.7 357.2 261.2C357.2 279 346.2 288.2 334 293.7C319.3 300.3 303.9 315.2 303.9 336C303.9 344.8 311.1 352 319.9 352C328.7 352 335.9 344.8 335.9 336C335.9 332.2 339.3 326.4 347 322.9C364.8 314.9 389.1 297 389.1 261.2C389.1 223 358.1 192 319.9 192C281.7 192 250.7 223 250.7 261.2C250.7 270 257.9 277.2 266.7 277.2C275.5 277.2 282.7 270 282.7 261.2C282.7 240.6 299.4 224 319.9 224zM340 400C340 389 331 380 320 380C309 380 300 389 300 400C300 411 309 420 320 420C331 420 340 411 340 400z"/></svg>