<svg xmlns="http://www.w3.org/2000/svg" viewBox="0 0 640 640"><!--! Font Awesome Pro 7.1.0 by @fontawesome - https://fontawesome.com License - https://fontawesome.com/license (Commercial License) Copyright 2025 Fonticons, Inc. --><path fill="currentColor" d="M243.2 597.6L243.2 597.6L355.2 513.6C356.6 512.6 358.3 512 360 512L480 512C533 512 576 469 576 416L576 192C576 139 533 96 480 96L160 96C107 96 64 139 64 192L64 416C64 469 107 512 160 512L192 512L192 580C192 595.5 204.5 608 220 608C226.1 608 232 606 236.8 602.4L243.2 597.6zM224 512L224 504C224 490.7 213.3 480 200 480L160 480C124.7 480 96 451.3 96 416L96 192C96 156.7 124.7 128 160 128L480 128C515.3 128 544 156.7 544 192L544 416C544 451.3 515.3 480 480 480L360 480C351.3 480 342.9 482.8 336 488L224 572L224 512zM320 200C311.2 200 304 207.2 304 216L304 224L302.3 224C276.7 224 256 244.7 256 270.3C256 292.9 272.4 312.3 294.7 316L340 323.6C346.9 324.7 352 330.7 352 337.7C352 345.6 345.6 352 337.7 352L280 352C271.2 352 264 359.2 264 368C264 376.8 271.2 384 280 384L304 384L304 392C304 400.8 311.2 408 320 408C328.8 408 336 400.8 336 392L336 384L337.7 384C363.3 384 384 363.3 384 337.7C384 315.1 367.6 295.7 345.3 292L300 284.4C293.1 283.2 288 277.3 288 270.3C288 262.4 294.4 256 302.3 256L352 256C360.8 256 368 248.8 368 240C368 231.2 360.8 224 352 224L336 224L336 216C336 207.2 328.8 200 320 200z"/></svg>