<svg xmlns="http://www.w3.org/2000/svg" viewBox="0 0 640 640"><!--! Font Awesome Pro 7.1.0 by @fontawesome - https://fontawesome.com License - https://fontawesome.com/license (Commercial License) Copyright 2025 Fonticons, Inc. --><path fill="currentColor" d="M104 64L344 64C366.1 64 384 81.9 384 104L384 296C384 318.1 366.1 336 344 336L254.5 336C241.4 336 228.7 340.6 218.6 349L160 397.8L160 352C160 343.2 152.8 336 144 336L104 336C81.9 336 64 318.1 64 296L64 104C64 81.9 81.9 64 104 64zM32 104L32 296C32 335.8 64.2 368 104 368L128 368L128 432C128 438.2 131.6 443.9 137.2 446.5C142.8 449.1 149.5 448.3 154.2 444.3L239.1 373.6C243.4 370 248.9 368 254.5 368L344 368C383.8 368 416 335.8 416 296L416 104C416 64.2 383.8 32 344 32L104 32C64.2 32 32 64.2 32 104zM256 456L256 422L224 448.7L224 456.1C224 495.9 256.2 528.1 296 528.1L385.5 528.1C391.1 528.1 396.6 530.1 400.9 533.7L485.8 604.4C490.6 608.4 497.2 609.2 502.8 606.6C508.4 604 512 598.3 512 592.1L512 528.1L536 528.1C575.8 528.1 608 495.9 608 456.1L608 264.1C608 224.3 575.8 192.1 536 192.1L464 192.1L464 224.1L536 224.1C558.1 224.1 576 242 576 264.1L576 456.1C576 478.2 558.1 496.1 536 496.1L496 496.1C487.2 496.1 480 503.3 480 512.1L480 557.9L421.4 509C411.3 500.6 398.6 496 385.5 496L296 496C273.9 496 256 478.1 256 456zM224 96C215.2 96 208 103.2 208 112L208 120L206.3 120C180.7 120 160 140.7 160 166.3C160 188.9 176.4 208.3 198.7 212L244 219.6C250.9 220.8 256 226.7 256 233.7C256 241.6 249.6 248 241.7 248L184 248C175.2 248 168 255.2 168 264C168 272.8 175.2 280 184 280L208 280L208 288C208 296.8 215.2 304 224 304C232.8 304 240 296.8 240 288L240 280L241.7 280C267.3 280 288 259.3 288 233.7C288 211.1 271.6 191.7 249.3 188L204 180.4C197.1 179.2 192 173.3 192 166.3C192 158.4 198.4 152 206.3 152L256 152C264.8 152 272 144.8 272 136C272 127.2 264.8 120 256 120L240 120L240 112C240 103.2 232.8 96 224 96z"/></svg>