<svg xmlns="http://www.w3.org/2000/svg" viewBox="0 0 640 640"><!--! Font Awesome Pro 7.1.0 by @fontawesome - https://fontawesome.com License - https://fontawesome.com/license (Commercial License) Copyright 2025 Fonticons, Inc. --><path fill="currentColor" d="M90.5 287.3C96.9 296.1 98.5 307.5 94.6 317.6L72.6 375.4L152.1 345.1C158.7 342.6 166 342.3 172.8 344.4C188.8 349.3 206 351.9 224 351.9C315 351.9 384 284.9 384 207.9C384 130.9 315 64 224 64C133 64 64 131 64 208C64 237.1 73.6 264.4 90.5 287.3zM64.7 306.3C44 278.2 32 244.4 32 208C32 110.8 118 32 224 32C330 32 416 110.8 416 208C416 305.2 330 384 224 384C202.8 384 182.5 380.9 163.4 375.1L59.4 414.7C57.1 415.6 54.7 416 52.2 416C41 416 31.9 406.9 31.9 395.7C31.9 393.2 32.3 390.8 33.2 388.5L64.5 306.2zM227.2 432C238.1 431.9 248.9 431 259.5 429.6C274.5 493.4 336.9 544.1 416.1 544.1C434.1 544.1 451.3 541.4 467.3 536.6C474.1 534.5 481.4 534.8 488 537.3L567.5 567.6L545.5 509.8C541.6 499.6 543.2 488.2 549.6 479.5C566.4 456.6 576.1 429.4 576.1 400.2C576.1 335.4 527.2 277.7 457.5 261C460.1 250.8 462 240.3 463.1 229.5C546.4 248.7 608.1 317.8 608.1 400.2C608.1 436.6 596.1 470.4 575.4 498.4L606.7 580.7C607.6 583 608 585.4 608 587.9C608 599.1 598.9 608.2 587.7 608.2C585.2 608.2 582.8 607.7 580.5 606.9L476.5 567.3C457.5 573.1 437.1 576.2 415.9 576.2C321.8 576.2 243.5 514.1 227.1 432.2zM224 128C203.4 128 186.8 144.7 186.8 165.2C186.8 174 179.6 181.2 170.8 181.2C162 181.2 154.8 174 154.8 165.2C154.8 127 185.8 96 224 96C262.2 96 293.2 127 293.2 165.2C293.2 201 268.9 218.9 251.1 226.9C243.3 230.4 240 236.1 240 240C240 248.8 232.8 256 224 256C215.2 256 208 248.8 208 240C208 219.2 223.3 204.3 238.1 197.7C250.3 192.3 261.3 183 261.3 165.2C261.3 144.6 244.6 128 224.1 128zM204 304C204 293 213 284 224 284C235 284 244 293 244 304C244 315 235 324 224 324C213 324 204 315 204 304z"/></svg>