<svg xmlns="http://www.w3.org/2000/svg" viewBox="0 0 640 640"><!--! Font Awesome Pro 7.1.0 by @fontawesome - https://fontawesome.com License - https://fontawesome.com/license (Commercial License) Copyright 2025 Fonticons, Inc. --><path fill="currentColor" d="M243.2 597.6L243.2 597.6L355.2 513.6C356.6 512.6 358.3 512 360 512L480 512C533 512 576 469 576 416L576 192C576 139 533 96 480 96L160 96C107 96 64 139 64 192L64 416C64 469 107 512 160 512L192 512L192 580C192 595.5 204.5 608 220 608C226.1 608 232 606 236.8 602.4L243.2 597.6zM224 512L224 504C224 490.7 213.3 480 200 480L160 480C124.7 480 96 451.3 96 416L96 192C96 156.7 124.7 128 160 128L480 128C515.3 128 544 156.7 544 192L544 416C544 451.3 515.3 480 480 480L360 480C351.3 480 342.9 482.8 336 488L224 572L224 512zM192 328C205.3 328 216 317.3 216 304C216 290.7 205.3 280 192 280C178.7 280 168 290.7 168 304C168 317.3 178.7 328 192 328zM320 328C333.3 328 344 317.3 344 304C344 290.7 333.3 280 320 280C306.7 280 296 290.7 296 304C296 317.3 306.7 328 320 328zM472 304C472 290.7 461.3 280 448 280C434.7 280 424 290.7 424 304C424 317.3 434.7 328 448 328C461.3 328 472 317.3 472 304z"/></svg>