<svg xmlns="http://www.w3.org/2000/svg" viewBox="0 0 640 640"><!--! Font Awesome Pro 7.1.0 by @fontawesome - https://fontawesome.com License - https://fontawesome.com/license (Commercial License) Copyright 2025 Fonticons, Inc. --><path fill="currentColor" d="M144 464.2C150.2 452.8 148.9 438.8 140.8 428.8C112.6 393.9 96 350.7 96 304C96 191 194.3 96 320 96C445.7 96 544 191 544 304C544 417 445.7 512 320 512C287.7 512 257.2 505.7 229.6 494.4C221.7 491.1 212.7 491.2 204.8 494.6L103.8 537.8L144 464.2zM64 304C64 358.4 83.3 408.6 115.9 448.9L67.1 538.3C65.1 542 64 546.2 64 550.5C64 564.6 75.4 576 89.5 576C93.5 576 97.3 575.4 101 573.9L217.4 524C248.8 536.9 283.5 544 320 544C461.4 544 576 436.5 576 304C576 171.5 461.4 64 320 64C178.6 64 64 171.5 64 304zM304 208C286.3 208 272 222.3 272 240L272 256L256 256C238.3 256 224 270.3 224 288L224 320C224 337.7 238.3 352 256 352L272 352L272 368C272 385.7 286.3 400 304 400L336 400C353.7 400 368 385.7 368 368L368 352L384 352C401.7 352 416 337.7 416 320L416 288C416 270.3 401.7 256 384 256L368 256L368 240C368 222.3 353.7 208 336 208L304 208zM336 344L336 368L304 368L304 328C304 323.6 300.4 320 296 320L256 320L256 288L296 288C300.4 288 304 284.4 304 280L304 240L336 240L336 280C336 284.4 339.6 288 344 288L384 288L384 320L344 320C339.6 320 336 323.6 336 328L336 344z"/></svg>