<svg xmlns="http://www.w3.org/2000/svg" viewBox="0 0 640 640"><!--! Font Awesome Pro 7.1.0 by @fontawesome - https://fontawesome.com License - https://fontawesome.com/license (Commercial License) Copyright 2025 Fonticons, Inc. --><path fill="currentColor" d="M320 64C461.4 64 576 171.5 576 304C576 436.5 461.4 544 320 544C283.5 544 248.8 536.9 217.4 524L101 573.8C97.3 575.4 93.5 576 89.5 576C75.4 576 64 564.6 64 550.5C64 546.2 65.1 542 67.1 538.3L115.8 448.9C83.3 408.6 64 358.4 64 304C64 171.5 178.6 64 320 64zM320 96C194.3 96 96 191 96 304C96 350.7 112.5 393.8 140.8 428.7C148.9 438.8 150.2 452.8 144 464.1L103.8 537.8L204.8 494.5C212.7 491.1 221.6 491.1 229.6 494.3C257.2 505.6 287.7 512 320 512C445.7 512 544 417 544 304C544 191 445.7 96 320 96zM403.1 214.6C408.3 207.5 418.3 205.9 425.4 211.1C432.5 216.3 434.1 226.3 428.9 233.4L300.9 409.4C298.1 413.2 293.9 415.6 289.2 415.9C284.5 416.2 279.9 414.6 276.6 411.3L212.6 347.3C206.4 341.1 206.4 330.9 212.6 324.7C218.8 318.5 229 318.5 235.2 324.7L285.9 375.4L402.9 214.6z"/></svg>