<svg xmlns="http://www.w3.org/2000/svg" viewBox="0 0 640 640"><!--! Font Awesome Pro 7.1.0 by @fontawesome - https://fontawesome.com License - https://fontawesome.com/license (Commercial License) Copyright 2025 Fonticons, Inc. --><path fill="currentColor" d="M243.2 597.6L243.2 597.6L355.2 513.6C356.6 512.6 358.3 512 360 512L480 512C533 512 576 469 576 416L576 192C576 139 533 96 480 96L160 96C107 96 64 139 64 192L64 416C64 469 107 512 160 512L192 512L192 580C192 595.5 204.5 608 220 608C226.1 608 232 606 236.8 602.4L243.2 597.6zM224 512L224 504C224 490.7 213.3 480 200 480L160 480C124.7 480 96 451.3 96 416L96 192C96 156.7 124.7 128 160 128L480 128C515.3 128 544 156.7 544 192L544 416C544 451.3 515.3 480 480 480L360 480C351.3 480 342.9 482.8 336 488L224 572L224 512zM176 288C167.2 288 160 295.2 160 304C160 312.8 167.2 320 176 320L336 320C344.8 320 352 312.8 352 304C352 295.2 344.8 288 336 288L176 288zM416 288C407.2 288 400 295.2 400 304C400 312.8 407.2 320 416 320L464 320C472.8 320 480 312.8 480 304C480 295.2 472.8 288 464 288L416 288zM176 384C167.2 384 160 391.2 160 400C160 408.8 167.2 416 176 416L256 416C264.8 416 272 408.8 272 400C272 391.2 264.8 384 256 384L176 384zM336 384C327.2 384 320 391.2 320 400C320 408.8 327.2 416 336 416L464 416C472.8 416 480 408.8 480 400C480 391.2 472.8 384 464 384L336 384z"/></svg>