<svg xmlns="http://www.w3.org/2000/svg" viewBox="0 0 640 640"><!--! Font Awesome Pro 7.1.0 by @fontawesome - https://fontawesome.com License - https://fontawesome.com/license (Commercial License) Copyright 2025 Fonticons, Inc. --><path fill="currentColor" d="M256 112C256 103.2 248.8 96 240 96C231.2 96 224 103.2 224 112L224 224L112 224C103.2 224 96 231.2 96 240C96 248.8 103.2 256 112 256L240 256C248.8 256 256 248.8 256 240L256 112zM112 384C103.2 384 96 391.2 96 400C96 408.8 103.2 416 112 416L224 416L224 528C224 536.8 231.2 544 240 544C248.8 544 256 536.8 256 528L256 400C256 391.2 248.8 384 240 384L112 384zM416 112C416 103.2 408.8 96 400 96C391.2 96 384 103.2 384 112L384 240C384 248.8 391.2 256 400 256L528 256C536.8 256 544 248.8 544 240C544 231.2 536.8 224 528 224L416 224L416 112zM400 384C391.2 384 384 391.2 384 400L384 528C384 536.8 391.2 544 400 544C408.8 544 416 536.8 416 528L416 416L528 416C536.8 416 544 408.8 544 400C544 391.2 536.8 384 528 384L400 384z"/></svg>