<svg xmlns="http://www.w3.org/2000/svg" viewBox="0 0 640 640"><!--! Font Awesome Pro 7.1.0 by @fontawesome - https://fontawesome.com License - https://fontawesome.com/license (Commercial License) Copyright 2025 Fonticons, Inc. --><path fill="currentColor" d="M59.3 36.8C53.1 30.6 42.9 30.6 36.7 36.8C30.5 43 30.5 53.2 36.7 59.4L580.7 603.4C586.9 609.6 597.1 609.6 603.3 603.4C609.5 597.2 609.5 587 603.3 580.8L511.9 489.4C551.8 444.3 576 385 576 320C576 178.6 461.4 64 320 64C255 64 195.7 88.2 150.6 128.1L59.3 36.8zM173.3 150.8C212.6 116.7 263.9 96.1 320 96.1C443.7 96.1 544 196.4 544 320.1C544 376.2 523.4 427.5 489.3 466.8L402 379.5C402.9 377.7 403.6 375.8 404.3 373.9L453.1 227.4C461.4 202.4 437.6 178.6 412.6 186.9L266.1 235.8C264.2 236.4 262.3 237.2 260.5 238.1L173.3 150.7zM377 354.5L285.5 263L422.7 217.3L377 354.5zM64 320C64 461.4 178.6 576 320 576C367.5 576 411.9 563.1 450 540.6L426.5 517.1C394.8 534.3 358.5 544 319.9 544C196.2 544 95.9 443.7 95.9 320C95.9 281.4 105.7 245.1 122.8 213.4L99.4 190C76.9 228.1 64 272.5 64 320zM186.9 412.6C178.6 437.6 202.4 461.4 227.4 453.1L328.8 419.3L303.5 394L217.3 422.7L246 336.5L220.7 311.2L186.9 412.5z"/></svg>