<svg xmlns="http://www.w3.org/2000/svg" viewBox="0 0 640 640"><!--! Font Awesome Pro 7.1.0 by @fontawesome - https://fontawesome.com License - https://fontawesome.com/license (Commercial License) Copyright 2025 Fonticons, Inc. --><path fill="currentColor" d="M480 416L480 224C480 153.3 422.7 96 352 96L288 96C217.3 96 160 153.3 160 224L160 416C160 486.7 217.3 544 288 544L352 544C422.7 544 480 486.7 480 416zM128 224C128 135.6 199.6 64 288 64L352 64C440.4 64 512 135.6 512 224L512 416C512 504.4 440.4 576 352 576L288 576C199.6 576 128 504.4 128 416L128 224zM336 176L336 240C336 248.8 328.8 256 320 256C311.2 256 304 248.8 304 240L304 176C304 167.2 311.2 160 320 160C328.8 160 336 167.2 336 176z"/></svg>