<svg xmlns="http://www.w3.org/2000/svg" viewBox="0 0 640 640"><!--! Font Awesome Pro 7.1.0 by @fontawesome - https://fontawesome.com License - https://fontawesome.com/license (Commercial License) Copyright 2025 Fonticons, Inc. --><path fill="currentColor" d="M320 96C443.7 96 544 196.3 544 320C544 443.7 443.7 544 320 544C196.3 544 96 443.7 96 320C96 196.3 196.3 96 320 96zM320 576C461.4 576 576 461.4 576 320C576 178.6 461.4 64 320 64C178.6 64 64 178.6 64 320C64 461.4 178.6 576 320 576zM412.6 186.9L266.1 235.8C251.8 240.6 240.5 251.8 235.7 266.2L186.9 412.6C178.6 437.6 202.4 461.4 227.4 453.1L373.9 404.3C388.2 399.5 399.5 388.3 404.3 373.9L453.1 227.4C461.4 202.4 437.6 178.6 412.6 186.9zM422.7 217.3L373.9 363.8C372.3 368.6 368.6 372.3 363.8 373.9L217.3 422.7L266.1 276.2C267.7 271.4 271.4 267.7 276.2 266.1L422.7 217.3zM320 344C333.3 344 344 333.3 344 320C344 306.7 333.3 296 320 296C306.7 296 296 306.7 296 320C296 333.3 306.7 344 320 344z"/></svg>