<svg xmlns="http://www.w3.org/2000/svg" viewBox="0 0 640 640"><!--! Font Awesome Pro 7.1.0 by @fontawesome - https://fontawesome.com License - https://fontawesome.com/license (Commercial License) Copyright 2025 Fonticons, Inc. --><path fill="currentColor" d="M368 288C332.7 288 304 259.3 304 224L304 96L288 96C217.3 96 160 153.3 160 224L160 416C160 486.7 217.3 544 288 544L352 544C422.7 544 480 486.7 480 416L480 288L368 288zM336 96L336 224C336 241.7 350.3 256 368 256L480 256L480 224C480 153.3 422.7 96 352 96L336 96zM352 64C440.4 64 512 135.6 512 224L512 416C512 504.4 440.4 576 352 576L288 576C199.6 576 128 504.4 128 416L128 224C128 135.6 199.6 64 288 64L352 64z"/></svg>