<svg xmlns="http://www.w3.org/2000/svg" viewBox="0 0 640 640"><!--! Font Awesome Pro 7.1.0 by @fontawesome - https://fontawesome.com License - https://fontawesome.com/license (Commercial License) Copyright 2025 Fonticons, Inc. --><path fill="currentColor" d="M100.7 100.7C106.9 94.5 117.1 94.5 123.3 100.7L256 233.4L256 144C256 135.2 263.2 128 272 128C280.8 128 288 135.2 288 144L288 272C288 280.8 280.8 288 272 288L144 288C135.2 288 128 280.8 128 272C128 263.2 135.2 256 144 256L233.4 256L100.7 123.3C94.5 117.1 94.5 106.9 100.7 100.7zM539.3 100.7C545.5 106.9 545.5 117.1 539.3 123.3L406.6 256L496 256C504.8 256 512 263.2 512 272C512 280.8 504.8 288 496 288L368 288C359.2 288 352 280.8 352 272L352 144C352 135.2 359.2 128 368 128C376.8 128 384 135.2 384 144L384 233.4L516.7 100.7C522.9 94.5 533.1 94.5 539.3 100.7zM128 368C128 359.2 135.2 352 144 352L272 352C280.8 352 288 359.2 288 368L288 496C288 504.8 280.8 512 272 512C263.2 512 256 504.8 256 496L256 406.6L123.3 539.3C117.1 545.5 106.9 545.5 100.7 539.3C94.5 533.1 94.5 522.9 100.7 516.7L233.4 384L144 384C135.2 384 128 376.8 128 368zM352 368C352 359.2 359.2 352 368 352L496 352C504.8 352 512 359.2 512 368C512 376.8 504.8 384 496 384L406.6 384L539.3 516.7C545.5 522.9 545.5 533.1 539.3 539.3C533.1 545.5 522.9 545.5 516.7 539.3L384 406.6L384 496C384 504.8 376.8 512 368 512C359.2 512 352 504.8 352 496L352 368z"/></svg>