<svg xmlns="http://www.w3.org/2000/svg" viewBox="0 0 640 640"><!--! Font Awesome Pro 7.1.0 by @fontawesome - https://fontawesome.com License - https://fontawesome.com/license (Commercial License) Copyright 2025 Fonticons, Inc. --><path fill="currentColor" d="M480 96C497.7 96 512 110.3 512 128L512 432C512 449.7 497.7 464 480 464L160 464C142.3 464 128 449.7 128 432L128 128C128 110.3 142.3 96 160 96L480 96zM160 64C124.7 64 96 92.7 96 128L96 432C96 455.7 108.9 476.4 128 487.4L128 544C128 561.7 142.3 576 160 576L480 576C497.7 576 512 561.7 512 544L512 487.4C531.1 476.3 544 455.7 544 432L544 128C544 92.7 515.3 64 480 64L160 64zM160 496L480 496L480 544L160 544L160 496zM432 176L432 288L208 288L208 176L432 176zM208 144C190.3 144 176 158.3 176 176L176 288C176 305.7 190.3 320 208 320L432 320C449.7 320 464 305.7 464 288L464 176C464 158.3 449.7 144 432 144L208 144zM320 400C320 408.8 327.2 416 336 416L448 416C456.8 416 464 408.8 464 400C464 391.2 456.8 384 448 384L336 384C327.2 384 320 391.2 320 400zM200 424C213.3 424 224 413.3 224 400C224 386.7 213.3 376 200 376C186.7 376 176 386.7 176 400C176 413.3 186.7 424 200 424z"/></svg>