<svg xmlns="http://www.w3.org/2000/svg" viewBox="0 0 640 640"><!--! Font Awesome Pro 7.1.0 by @fontawesome - https://fontawesome.com License - https://fontawesome.com/license (Commercial License) Copyright 2025 Fonticons, Inc. --><path fill="currentColor" d="M368 416L96 416C78.3 416 64 401.7 64 384L64 160C64 142.3 78.3 128 96 128L369.3 128C371.2 116.5 375.2 105.7 380.8 96L96 96C60.7 96 32 124.7 32 160L32 384C32 419.3 60.7 448 96 448L368 448L368 416zM369.3 512L144 512C135.2 512 128 519.2 128 528C128 536.8 135.2 544 144 544L380.8 544C375.2 534.3 371.2 523.5 369.3 512zM464 128L560 128C568.8 128 576 135.2 576 144L576 192L448 192L448 144C448 135.2 455.2 128 464 128zM448 224L576 224L576 288L448 288L448 224zM576 320L576 496C576 504.8 568.8 512 560 512L464 512C455.2 512 448 504.8 448 496L448 320L576 320zM416 144L416 496C416 522.5 437.5 544 464 544L560 544C586.5 544 608 522.5 608 496L608 144C608 117.5 586.5 96 560 96L464 96C437.5 96 416 117.5 416 144zM536 408C536 394.7 525.3 384 512 384C498.7 384 488 394.7 488 408C488 421.3 498.7 432 512 432C525.3 432 536 421.3 536 408z"/></svg>