<svg xmlns="http://www.w3.org/2000/svg" viewBox="0 0 640 640"><!--! Font Awesome Pro 7.1.0 by @fontawesome - https://fontawesome.com License - https://fontawesome.com/license (Commercial License) Copyright 2025 Fonticons, Inc. --><path fill="currentColor" d="M272 416L272 448L96 448C60.7 448 32 419.3 32 384L32 160C32 124.7 60.7 96 96 96L284.8 96C279.2 105.7 275.2 116.5 273.3 128L96 128C78.3 128 64 142.3 64 160L64 384C64 401.7 78.3 416 96 416L272 416zM273.3 512C275.2 523.5 279.2 534.3 284.8 544L144 544C135.2 544 128 536.8 128 528C128 519.2 135.2 512 144 512L273.3 512zM368 128C359.2 128 352 135.2 352 144L352 496C352 504.8 359.2 512 368 512L560 512C568.8 512 576 504.8 576 496L576 144C576 135.2 568.8 128 560 128L368 128zM320 144C320 117.5 341.5 96 368 96L560 96C586.5 96 608 117.5 608 144L608 496C608 522.5 586.5 544 560 544L368 544C341.5 544 320 522.5 320 496L320 144zM440 216C440 202.7 450.7 192 464 192C477.3 192 488 202.7 488 216C488 229.3 477.3 240 464 240C450.7 240 440 229.3 440 216zM496 400C496 382.3 481.7 368 464 368C446.3 368 432 382.3 432 400C432 417.7 446.3 432 464 432C481.7 432 496 417.7 496 400zM400 400C400 364.7 428.7 336 464 336C499.3 336 528 364.7 528 400C528 435.3 499.3 464 464 464C428.7 464 400 435.3 400 400z"/></svg>