<svg xmlns="http://www.w3.org/2000/svg" viewBox="0 0 640 640"><!--! Font Awesome Pro 7.1.0 by @fontawesome - https://fontawesome.com License - https://fontawesome.com/license (Commercial License) Copyright 2025 Fonticons, Inc. --><path fill="currentColor" d="M272 128C263.2 128 256 135.2 256 144C256 152.8 263.2 160 272 160L304 160L304 208.6C187.8 216.8 96 313.7 96 432L128 432C128 326 214 240 320 240C426 240 512 326 512 432L544 432C544 313.7 452.2 216.8 336 208.6L336 160L368 160C376.8 160 384 152.8 384 144C384 135.2 376.8 128 368 128L272 128zM80 480C71.2 480 64 487.2 64 496C64 504.8 71.2 512 80 512L560 512C568.8 512 576 504.8 576 496C576 487.2 568.8 480 560 480L80 480z"/></svg>