<svg xmlns="http://www.w3.org/2000/svg" viewBox="0 0 640 640"><!--! Font Awesome Pro 7.1.0 by @fontawesome - https://fontawesome.com License - https://fontawesome.com/license (Commercial License) Copyright 2025 Fonticons, Inc. --><path fill="currentColor" d="M32 112C32 103.2 39.2 96 48 96L592 96C600.8 96 608 103.2 608 112C608 120.8 600.8 128 592 128L576 128L576 512L592 512C600.8 512 608 519.2 608 528C608 536.8 600.8 544 592 544L48 544C39.2 544 32 536.8 32 528C32 519.2 39.2 512 48 512L64 512L64 128L48 128C39.2 128 32 120.8 32 112zM96 128L96 512L544 512L544 128L96 128zM160 208C160 199.2 167.2 192 176 192C184.8 192 192 199.2 192 208L192 432C192 440.8 184.8 448 176 448C167.2 448 160 440.8 160 432L160 208zM368 192C376.8 192 384 199.2 384 208L384 432C384 440.8 376.8 448 368 448C359.2 448 352 440.8 352 432L352 208C352 199.2 359.2 192 368 192zM448 208C448 199.2 455.2 192 464 192C472.8 192 480 199.2 480 208L480 432C480 440.8 472.8 448 464 448C455.2 448 448 440.8 448 432L448 208zM272 192C280.8 192 288 199.2 288 208L288 432C288 440.8 280.8 448 272 448C263.2 448 256 440.8 256 432L256 208C256 199.2 263.2 192 272 192z"/></svg>