<svg xmlns="http://www.w3.org/2000/svg" viewBox="0 0 640 640"><!--! Font Awesome Pro 7.1.0 by @fontawesome - https://fontawesome.com License - https://fontawesome.com/license (Commercial License) Copyright 2025 Fonticons, Inc. --><path fill="currentColor" d="M160 96C142.3 96 128 110.3 128 128L128 512C128 529.7 142.3 544 160 544L448 544C465.7 544 480 529.7 480 512L480 128C480 110.3 465.7 96 448 96L160 96zM96 128C96 92.7 124.7 64 160 64L448 64C483.3 64 512 92.7 512 128L512 512C512 547.3 483.3 576 448 576L160 576C124.7 576 96 547.3 96 512L96 128zM336 256C336 238.3 321.7 224 304 224C286.3 224 272 238.3 272 256C272 273.7 286.3 288 304 288C321.7 288 336 273.7 336 256zM240 256C240 220.7 268.7 192 304 192C339.3 192 368 220.7 368 256C368 291.3 339.3 320 304 320C268.7 320 240 291.3 240 256zM272 384C245.5 384 224 405.5 224 432C224 440.8 216.8 448 208 448C199.2 448 192 440.8 192 432C192 387.8 227.8 352 272 352L336 352C380.2 352 416 387.8 416 432C416 440.8 408.8 448 400 448C391.2 448 384 440.8 384 432C384 405.5 362.5 384 336 384L272 384zM576 144L576 208C576 216.8 568.8 224 560 224C551.2 224 544 216.8 544 208L544 144C544 135.2 551.2 128 560 128C568.8 128 576 135.2 576 144zM560 256C568.8 256 576 263.2 576 272L576 336C576 344.8 568.8 352 560 352C551.2 352 544 344.8 544 336L544 272C544 263.2 551.2 256 560 256zM576 400L576 464C576 472.8 568.8 480 560 480C551.2 480 544 472.8 544 464L544 400C544 391.2 551.2 384 560 384C568.8 384 576 391.2 576 400z"/></svg>