<svg xmlns="http://www.w3.org/2000/svg" viewBox="0 0 640 640"><!--! Font Awesome Pro 7.1.0 by @fontawesome - https://fontawesome.com License - https://fontawesome.com/license (Commercial License) Copyright 2025 Fonticons, Inc. --><path fill="currentColor" d="M208 96L432 96C440.8 96 448 103.2 448 112L448 272C448 280.8 440.8 288 432 288L208 288C199.2 288 192 280.8 192 272L192 112C192 103.2 199.2 96 208 96zM160 112L160 272C160 298.5 181.5 320 208 320L432 320C458.5 320 480 298.5 480 272L480 112C480 85.5 458.5 64 432 64L208 64C181.5 64 160 85.5 160 112zM544 416C579.3 416 608 444.7 608 480C608 515.3 579.3 544 544 544L96 544C60.7 544 32 515.3 32 480C32 444.7 60.7 416 96 416L544 416zM96 384C43 384 0 427 0 480C0 533 43 576 96 576L544 576C597 576 640 533 640 480C640 427 597 384 544 384L96 384zM152 480C152 466.7 141.3 456 128 456C114.7 456 104 466.7 104 480C104 493.3 114.7 504 128 504C141.3 504 152 493.3 152 480zM320 504C333.3 504 344 493.3 344 480C344 466.7 333.3 456 320 456C306.7 456 296 466.7 296 480C296 493.3 306.7 504 320 504zM536 480C536 466.7 525.3 456 512 456C498.7 456 488 466.7 488 480C488 493.3 498.7 504 512 504C525.3 504 536 493.3 536 480z"/></svg>