<svg xmlns="http://www.w3.org/2000/svg" viewBox="0 0 640 640"><!--! Font Awesome Pro 7.1.0 by @fontawesome - https://fontawesome.com License - https://fontawesome.com/license (Commercial License) Copyright 2025 Fonticons, Inc. --><path fill="currentColor" d="M96 416C60.7 416 32 444.7 32 480C32 515.3 60.7 544 96 544L544 544C579.3 544 608 515.3 608 480C608 444.7 579.3 416 544 416L96 416zM0 480C0 427 43 384 96 384L544 384C597 384 640 427 640 480C640 533 597 576 544 576L96 576C43 576 0 533 0 480zM128 456C141.3 456 152 466.7 152 480C152 493.3 141.3 504 128 504C114.7 504 104 493.3 104 480C104 466.7 114.7 456 128 456zM296 480C296 466.7 306.7 456 320 456C333.3 456 344 466.7 344 480C344 493.3 333.3 504 320 504C306.7 504 296 493.3 296 480zM512 456C525.3 456 536 466.7 536 480C536 493.3 525.3 504 512 504C498.7 504 488 493.3 488 480C488 466.7 498.7 456 512 456z"/></svg>