<svg xmlns="http://www.w3.org/2000/svg" viewBox="0 0 640 640"><!--! Font Awesome Pro 7.1.0 by @fontawesome - https://fontawesome.com License - https://fontawesome.com/license (Commercial License) Copyright 2025 Fonticons, Inc. --><path fill="currentColor" d="M272 96C280.8 96 288 103.2 288 112L288 272C288 280.8 280.8 288 272 288L112 288C103.2 288 96 280.8 96 272L96 112C96 103.2 103.2 96 112 96L272 96zM112 64C85.5 64 64 85.5 64 112L64 272C64 298.5 85.5 320 112 320L272 320C298.5 320 320 298.5 320 272L320 112C320 85.5 298.5 64 272 64L112 64zM528 160C536.8 160 544 167.2 544 176L544 272C544 280.8 536.8 288 528 288L432 288C423.2 288 416 280.8 416 272L416 176C416 167.2 423.2 160 432 160L528 160zM432 128C405.5 128 384 149.5 384 176L384 272C384 298.5 405.5 320 432 320L528 320C554.5 320 576 298.5 576 272L576 176C576 149.5 554.5 128 528 128L432 128zM608 480C608 515.3 579.3 544 544 544L96 544C60.7 544 32 515.3 32 480C32 444.7 60.7 416 96 416L544 416C579.3 416 608 444.7 608 480zM96 384C43 384 0 427 0 480C0 533 43 576 96 576L544 576C597 576 640 533 640 480C640 427 597 384 544 384L96 384zM152 480C152 466.7 141.3 456 128 456C114.7 456 104 466.7 104 480C104 493.3 114.7 504 128 504C141.3 504 152 493.3 152 480zM320 504C333.3 504 344 493.3 344 480C344 466.7 333.3 456 320 456C306.7 456 296 466.7 296 480C296 493.3 306.7 504 320 504zM536 480C536 466.7 525.3 456 512 456C498.7 456 488 466.7 488 480C488 493.3 498.7 504 512 504C525.3 504 536 493.3 536 480z"/></svg>