<svg xmlns="http://www.w3.org/2000/svg" viewBox="0 0 640 640"><!--! Font Awesome Pro 7.1.0 by @fontawesome - https://fontawesome.com License - https://fontawesome.com/license (Commercial License) Copyright 2025 Fonticons, Inc. --><path fill="currentColor" d="M112 64C103.2 64 96 71.2 96 80C96 88.8 103.2 96 112 96L208 96L208 208C208 212.2 209.7 216.3 212.7 219.3C215.7 222.3 219.8 224 224 224L464 224L464 256C464 264.8 471.2 272 480 272C488.8 272 496 264.8 496 256L496 208C496 203.8 494.3 199.7 491.3 196.7C488.3 193.7 484.2 192 480 192L240 192L240 96L336 96C344.8 96 352 88.8 352 80C352 71.2 344.8 64 336 64L112 64zM448 352L512 352L512 384L448 384L448 352zM416 344L416 384L384 384L384 344C384 330.7 373.3 320 360 320L280 320C266.7 320 256 330.7 256 344L256 384L224 384L224 344C224 330.7 213.3 320 200 320L120 320C106.7 320 96 330.7 96 344L96 384C43 384 0 427 0 480C0 533 43 576 96 576L544 576C597 576 640 533 640 480C640 427 597 384 544 384L544 344C544 330.7 533.3 320 520 320L440 320C426.7 320 416 330.7 416 344zM120 416L544 416C579.3 416 608 444.7 608 480C608 515.3 579.3 544 544 544L96 544C60.7 544 32 515.3 32 480C32 444.7 60.7 416 96 416L120 416zM192 352L192 384L128 384L128 352L192 352zM288 384L288 352L352 352L352 384L288 384zM128 504C141.3 504 152 493.3 152 480C152 466.7 141.3 456 128 456C114.7 456 104 466.7 104 480C104 493.3 114.7 504 128 504zM344 480C344 466.7 333.3 456 320 456C306.7 456 296 466.7 296 480C296 493.3 306.7 504 320 504C333.3 504 344 493.3 344 480zM512 504C525.3 504 536 493.3 536 480C536 466.7 525.3 456 512 456C498.7 456 488 466.7 488 480C488 493.3 498.7 504 512 504z"/></svg>