<svg xmlns="http://www.w3.org/2000/svg" viewBox="0 0 640 640"><!--! Font Awesome Pro 7.1.0 by @fontawesome - https://fontawesome.com License - https://fontawesome.com/license (Commercial License) Copyright 2025 Fonticons, Inc. --><path fill="currentColor" d="M261.9 120.7C271.6 115.5 282.3 112.6 293.1 112.1C308.1 170.4 355.1 215.7 414.3 228.5C429.9 282.6 473.3 324.9 528 339C528 350.2 525.5 361.3 520.5 371.5L483.8 447C477 461.1 465.9 472.6 452.1 479.9L378.1 519.4C364.4 526.7 348.7 529.5 333.3 527.3L250.3 515.6C234.9 513.4 220.6 506.4 209.4 495.6L149.1 437.2C137.9 426.3 130.4 412.2 127.7 396.8L113.1 314C110.4 298.6 112.6 282.7 119.5 268.6L156.2 193C163 178.9 174.1 167.4 187.9 160.1L261.9 120.6zM321.5 91.6C320.7 86.2 316.6 81.8 311.2 81C289.1 77.9 266.6 81.9 246.8 92.4L172.8 131.9C153.1 142.4 137.2 158.9 127.4 179L90.7 254.6C80.9 274.7 77.7 297.5 81.6 319.5L96.1 402.3C100 424.4 110.7 444.6 126.8 460.2L187.1 518.6C203.2 534.2 223.7 544.2 245.8 547.3L328.8 559C350.9 562.1 373.4 558.1 393.2 547.6L467.2 508.1C486.9 497.6 502.8 481.1 512.6 460.9L549.3 385.4C559.1 365.3 562.3 342.5 558.4 320.5C557.5 315.2 553.1 311.2 547.8 310.4C496.3 302.2 455 263.3 443.3 213C441.5 205.4 435.3 199.6 427.6 198.4C373 189.7 329.9 146.4 321.4 91.6zM288 280C301.3 280 312 269.3 312 256C312 242.7 301.3 232 288 232C274.7 232 264 242.7 264 256C264 269.3 274.7 280 288 280zM280 416C280 402.7 269.3 392 256 392C242.7 392 232 402.7 232 416C232 429.3 242.7 440 256 440C269.3 440 280 429.3 280 416zM416 376C429.3 376 440 365.3 440 352C440 338.7 429.3 328 416 328C402.7 328 392 338.7 392 352C392 365.3 402.7 376 416 376z"/></svg>