<svg xmlns="http://www.w3.org/2000/svg" viewBox="0 0 640 640"><!--! Font Awesome Pro 7.1.0 by @fontawesome - https://fontawesome.com License - https://fontawesome.com/license (Commercial License) Copyright 2025 Fonticons, Inc. --><path fill="currentColor" d="M306.7 112.7C291.3 110.5 275.6 113.3 261.9 120.6L187.9 160.1C174.1 167.4 163.1 179 156.2 193L119.5 268.6C112.7 282.7 110.4 298.6 113.1 314L127.6 396.8C130.3 412.2 137.8 426.4 149 437.2L209.3 495.6C220.5 506.5 234.8 513.5 250.2 515.6L333.2 527.3C348.6 529.5 364.3 526.7 378 519.4L452 479.9C465.7 472.6 476.8 461.1 483.7 447L520.4 371.5C527.2 357.4 529.5 341.5 526.8 326.1L512.2 243.3C509.5 227.9 502 213.7 490.8 202.9L430.6 144.5C419.4 133.6 405.1 126.6 389.7 124.5L306.7 112.8zM246.8 92.4C266.5 81.9 289.1 77.9 311.2 81L394.2 92.7C416.3 95.8 436.9 105.9 452.9 121.4L513.2 179.8C529.3 195.4 540 215.6 543.9 237.7L558.5 320.5C562.4 342.6 559.2 365.3 549.4 385.4L512.6 461C502.8 481.1 486.9 497.6 467.2 508.2L393.2 547.7C373.5 558.2 350.9 562.2 328.8 559.1L245.8 547.4C223.7 544.3 203.1 534.2 187.1 518.7L126.8 460.2C110.8 444.6 100 424.3 96.2 402.3L81.6 319.5C77.7 297.4 80.9 274.7 90.7 254.6L127.4 179C137.2 158.9 153.1 142.4 172.8 131.8L246.8 92.3zM296 232C309.3 232 320 242.7 320 256C320 269.3 309.3 280 296 280C282.7 280 272 269.3 272 256C272 242.7 282.7 232 296 232zM232 416C232 402.7 242.7 392 256 392C269.3 392 280 402.7 280 416C280 429.3 269.3 440 256 440C242.7 440 232 429.3 232 416zM416 328C429.3 328 440 338.7 440 352C440 365.3 429.3 376 416 376C402.7 376 392 365.3 392 352C392 338.7 402.7 328 416 328z"/></svg>