<svg xmlns="http://www.w3.org/2000/svg" viewBox="0 0 640 640"><!--! Font Awesome Pro 7.1.0 by @fontawesome - https://fontawesome.com License - https://fontawesome.com/license (Commercial License) Copyright 2025 Fonticons, Inc. --><path fill="currentColor" d="M320 96C443.7 96 544 196.3 544 320C544 443.7 443.7 544 320 544C196.3 544 96 443.7 96 320C96 196.3 196.3 96 320 96zM320 576C461.4 576 576 461.4 576 320C576 178.6 461.4 64 320 64C178.6 64 64 178.6 64 320C64 461.4 178.6 576 320 576zM269.1 370.9C241 342.8 241 297.2 269.1 269.1C297.2 241 342.8 241 370.9 269.1C377.1 275.3 387.3 275.3 393.5 269.1C399.7 262.9 399.7 252.7 393.5 246.5C352.9 205.9 287 205.9 246.4 246.5C205.8 287.1 205.8 353 246.4 393.6C287 434.2 352.9 434.2 393.5 393.6C399.7 387.4 399.7 377.2 393.5 371C387.3 364.8 377.1 364.8 370.9 371C342.8 399.1 297.2 399.1 269.1 371z"/></svg>