<svg xmlns="http://www.w3.org/2000/svg" viewBox="0 0 640 640"><!--! Font Awesome Pro 7.1.0 by @fontawesome - https://fontawesome.com License - https://fontawesome.com/license (Commercial License) Copyright 2025 Fonticons, Inc. --><path fill="currentColor" d="M512 64C497.4 64 483.9 68.9 473.2 77.1C465.5 73.8 457 72 448 72C427.7 72 409.5 81.5 397.8 96.3C395.9 96.1 393.9 96 392 96C371.7 96 353.5 105.5 341.8 120.3C339.9 120.1 337.9 120 336 120C314.1 120 294.8 131 283.3 147.7C291 158 298 168.7 304.3 179.7C304.3 179.5 304.4 179.3 304.4 179.1C306.7 163.7 320 151.9 336 151.9C339.1 151.9 342.1 152.3 344.9 153.2C352.2 155.3 360 152 363.5 145.2C368.9 134.9 379.6 127.9 391.9 127.9C395 127.9 398 128.3 400.8 129.2C408.1 131.3 415.9 128 419.4 121.2C424.8 110.9 435.5 103.9 447.8 103.9C454.7 103.9 461 106 466.2 109.7C472.9 114.4 482.2 113.3 487.5 107C493.4 100.1 502.1 95.8 511.8 95.8C529.5 95.8 543.8 110.1 543.8 127.8C543.8 137.5 539.5 146.2 532.6 152.1C526.4 157.5 525.2 166.7 530 173.4C533.7 178.6 535.8 184.9 535.8 191.8C535.8 204.1 528.8 214.9 518.5 220.2C511.7 223.7 508.4 231.5 510.5 238.8C511.3 241.6 511.8 244.6 511.8 247.7C511.8 260 504.8 270.8 494.5 276.1C487.7 279.6 484.4 287.4 486.5 294.7C487.3 297.5 487.8 300.5 487.8 303.6C487.8 314.5 482.4 324.1 474.1 329.9C482.8 336.2 491.2 343.3 499 350.9C511.8 339.2 519.9 322.4 519.9 303.6C519.9 301.6 519.8 299.7 519.6 297.8C534.4 286.1 543.9 268 543.9 247.6C543.9 245.6 543.8 243.7 543.6 241.8C558.4 230.1 567.9 212 567.9 191.6C567.9 182.7 566.1 174.2 562.8 166.4C571 155.6 575.9 142.2 575.9 127.6C575.9 92.3 547.2 63.6 511.9 63.6zM227.3 132.7C223.4 128.8 217.7 127.2 212.3 128.4C206.9 129.6 202.6 133.7 200.8 138.9L178.8 204.8C178.1 206.8 177.1 208.7 175.7 210.3L99.6 297.3C76.7 323.5 64 357.2 64 392.1L64 406C64 442.2 77.6 477.1 102.2 503.7L126.2 529.7C153.5 559.2 191.9 576 232 576L242.9 576C281.1 576 317.7 560.8 344.7 533.8L414.2 464.3C415.9 462.6 417.8 461.4 420 460.6L501.5 431C506.6 429.1 510.5 424.8 511.7 419.4C512.9 414 511.3 408.5 507.4 404.6L478.3 375.5C442.7 339.9 394.4 319.9 344.1 319.9C333.3 319.9 322.5 320.8 312 322.6C310.1 253.1 281.7 186.9 232.4 137.6L227.4 132.6zM280 330L280 331.1C253.8 340.5 229.8 355.6 209.8 375.6L115.8 469.6C103 451 96 428.8 96 406L96 392.1C96 365 105.8 338.8 123.7 318.3L199.8 231.3C204 226.5 207.2 220.9 209.2 214.9L222.7 174.4C259.6 217.7 280 272.8 280 330zM149.7 508L136.7 493.9L232.4 398.2C262 368.6 302.1 352 344 352C385.9 352 426 368.6 455.6 398.2L466.9 409.5L409.2 430.5C402.6 432.9 396.6 436.7 391.7 441.7L322.2 511.2C301.2 532.2 272.7 544 243 544L232 544C200.7 544 170.9 530.9 149.7 508z"/></svg>