<svg xmlns="http://www.w3.org/2000/svg" viewBox="0 0 640 640"><!--! Font Awesome Pro 7.1.0 by @fontawesome - https://fontawesome.com License - https://fontawesome.com/license (Commercial License) Copyright 2025 Fonticons, Inc. --><path fill="currentColor" d="M96 248L96 296.6C115.1 307.7 128 328.3 128 352L512 352C512 328.3 524.9 307.6 544 296.6L544 248C544 199.4 504.6 160 456 160L184 160C135.4 160 96 199.4 96 248zM64 288L64 248C64 181.7 117.7 128 184 128L456 128C522.3 128 576 181.7 576 248L576 288C611.3 288 640 316.7 640 352L640 432C640 476.2 604.2 512 560 512L80 512C35.8 512 0 476.2 0 432L0 352C0 316.7 28.7 288 64 288zM32 352L32 432C32 458.5 53.5 480 80 480L560 480C586.5 480 608 458.5 608 432L608 352C608 334.3 593.7 320 576 320C558.3 320 544 334.3 544 352L544 368C544 376.8 536.8 384 528 384L112 384C103.2 384 96 376.8 96 368L96 352C96 334.3 81.7 320 64 320C46.3 320 32 334.3 32 352z"/></svg>