<svg xmlns="http://www.w3.org/2000/svg" viewBox="0 0 640 640"><!--! Font Awesome Pro 7.1.0 by @fontawesome - https://fontawesome.com License - https://fontawesome.com/license (Commercial License) Copyright 2025 Fonticons, Inc. --><path fill="currentColor" d="M160 248L160 296.6C179.1 307.7 192 328.3 192 352L448 352C448 328.3 460.9 307.6 480 296.6L480 248C480 199.4 440.6 160 392 160L248 160C199.4 160 160 199.4 160 248zM128 288L128 248C128 181.7 181.7 128 248 128L392 128C458.3 128 512 181.7 512 248L512 288C547.3 288 576 316.7 576 352L576 432C576 470.7 548.5 503 512 510.4L512 528C512 536.8 504.8 544 496 544C487.2 544 480 536.8 480 528L480 512L160 512L160 528C160 536.8 152.8 544 144 544C135.2 544 128 536.8 128 528L128 510.4C91.5 503 64 470.7 64 432L64 352C64 316.7 92.7 288 128 288zM96 352L96 432C96 458.5 117.5 480 144 480L496 480C522.5 480 544 458.5 544 432L544 352C544 334.3 529.7 320 512 320C494.3 320 480 334.3 480 352L480 368C480 376.8 472.8 384 464 384L176 384C167.2 384 160 376.8 160 368L160 352C160 334.3 145.7 320 128 320C110.3 320 96 334.3 96 352z"/></svg>