<svg xmlns="http://www.w3.org/2000/svg" viewBox="0 0 640 640"><!--! Font Awesome Pro 7.1.0 by @fontawesome - https://fontawesome.com License - https://fontawesome.com/license (Commercial License) Copyright 2025 Fonticons, Inc. --><path fill="currentColor" d="M64 128C46.3 128 32 142.3 32 160L32 192L64 192C99.3 192 128 220.7 128 256L128 384C128 419.3 99.3 448 64 448L32 448L32 480C32 497.7 46.3 512 64 512L304 512L304 414.7C258.6 407.1 224 367.6 224 320C224 272.4 258.6 232.9 304 225.3L304 128L64 128zM336 414.7L336 512L576 512C593.7 512 608 497.7 608 480L608 448L576 448C540.7 448 512 419.3 512 384L512 256C512 220.7 540.7 192 576 192L608 192L608 160C608 142.3 593.7 128 576 128L336 128L336 225.3C381.4 232.9 416 272.4 416 320C416 367.6 381.4 407.1 336 414.7zM336 258L336 382C363.6 374.9 384 349.8 384 320C384 290.2 363.6 265.1 336 258zM304 258C276.4 265.1 256 290.2 256 320C256 349.8 276.4 374.9 304 382L304 258zM32 224L32 416L64 416C81.7 416 96 401.7 96 384L96 256C96 238.3 81.7 224 64 224L32 224zM576 416L608 416L608 224L576 224C558.3 224 544 238.3 544 256L544 384C544 401.7 558.3 416 576 416zM0 160C0 124.7 28.7 96 64 96L576 96C611.3 96 640 124.7 640 160L640 480C640 515.3 611.3 544 576 544L64 544C28.7 544 0 515.3 0 480L0 160z"/></svg>