<svg xmlns="http://www.w3.org/2000/svg" viewBox="0 0 640 640"><!--! Font Awesome Pro 7.1.0 by @fontawesome - https://fontawesome.com License - https://fontawesome.com/license (Commercial License) Copyright 2025 Fonticons, Inc. --><path fill="currentColor" d="M128 208L128 472C128 476.4 131.6 480 136 480L168 480C172.4 480 176 476.4 176 472L176 400C176 347 219 304 272 304C325 304 368 347 368 400L368 472C368 476.4 371.6 480 376 480L408 480C412.4 480 416 476.4 416 472L416 304C416 298.5 418.9 293.3 423.6 290.4C428.3 287.5 434.2 287.2 439.2 289.7L503.2 321.7C508.6 324.4 512 329.9 512 336L512 398.7C512 401.7 512.9 404.7 514.5 407.3L551.8 465.9C557.4 474.7 567.1 480 577.5 480C594.3 480 608 466.4 608 449.5L608 362C608 358.7 607 355.6 605.2 352.9L594.8 338C592.9 335.3 592 332.1 592 328.9L592 264C592 259.6 588.4 256 584 256C580 256 576.7 258.9 576.1 262.7C575 269.1 570.2 274.3 563.8 275.7C557.4 277.1 550.9 274.6 547.1 269.2L495.4 194.5C480.5 172.9 456 160 429.7 160L399.7 160C397.8 186.9 386.3 212.3 367.2 231.4L364.1 234.5C340.1 258.5 307.5 272 273.6 272L270.4 272C236.5 272 203.9 258.5 179.9 234.5L176.8 231.4C160.2 214.8 149.4 193.6 145.6 170.9C134.9 179.7 128 193.1 128 208zM199.4 208.8L202.5 211.9C220.5 229.9 244.9 240 270.4 240L273.6 240C299.1 240 323.5 229.9 341.5 211.9L344.6 208.8C357.8 195.6 365.9 178.4 367.7 160L176.4 160C178.2 178.4 186.3 195.6 199.5 208.8zM208 439.8L208 472C208 494.1 190.1 512 168 512L136 512C113.9 512 96 494.1 96 472L96 208C96 190 102 173.4 112 160C85.5 160 64 181.5 64 208L64 332.8C64 361.1 41.1 384 12.8 384C5.7 384 0 378.3 0 371.2L0 352C0 328.3 12.9 307.6 32 296.6L32 208C32 163.8 67.8 128 112 128L429.7 128C466.5 128 500.9 146 521.8 176.2L560.3 231.8C566.9 226.9 575.2 224 584 224C606.1 224 624 241.9 624 264L624 323.9L631.5 334.7C637.1 342.7 640 352.3 640 362L640 449.5C640 484 612 512 577.5 512C556.1 512 536.3 501.1 524.8 483.1L487.5 424.5C482.6 416.8 480 407.9 480 398.7L480 345.9L448 329.9L448 472C448 494.1 430.1 512 408 512L376 512C353.9 512 336 494.1 336 472L336 439.8C329.4 441.8 321.4 443.6 312 445.1L312 456C312 464.8 304.8 472 296 472C287.2 472 280 464.8 280 456L280 447.9C274.9 448 269.1 448 264 447.9L264 456C264 464.8 256.8 472 248 472C239.2 472 232 464.8 232 456L232 445.1C222.6 443.6 214.6 441.8 208 439.8zM208 406C210.1 406.8 212.7 407.8 215.7 408.7C227.1 412.2 245.5 416 272 416C298.5 416 316.9 412.2 328.3 408.7C331.3 407.8 333.9 406.8 336 406L336 400C336 364.7 307.3 336 272 336C236.7 336 208 364.7 208 400L208 406zM552 384C552 375.2 559.2 368 568 368C576.8 368 584 375.2 584 384C584 392.8 576.8 400 568 400C559.2 400 552 392.8 552 384z"/></svg>