<svg xmlns="http://www.w3.org/2000/svg" viewBox="0 0 640 640"><!--! Font Awesome Pro 7.1.0 by @fontawesome - https://fontawesome.com License - https://fontawesome.com/license (Commercial License) Copyright 2025 Fonticons, Inc. --><path fill="currentColor" d="M280 80L360 80C373.3 80 384 90.7 384 104L384 128L256 128L256 104C256 90.7 266.7 80 280 80zM224 104L224 128C195.5 128.6 170.7 148 163.4 175.7L97.4 426.7C96.5 430.2 96 433.8 96 437.5C96 461 115 480 138.5 480L501.5 480C525 480 544 461 544 437.5C544 433.9 543.5 430.2 542.6 426.7L476.6 175.7C469.3 148 444.5 128.6 416 128L416 104C416 73.1 390.9 48 360 48L280 48C249.1 48 224 73.1 224 104zM240 160L414.7 160C429.2 160 441.9 169.8 445.6 183.9L511.6 434.9C511.8 435.8 511.9 436.7 511.9 437.6C511.9 443.4 507.2 448.1 501.4 448.1L138.4 448.1C132.6 448.1 127.9 443.4 127.9 437.6C127.9 436.7 128 435.8 128.2 434.9L194.2 183.9C197.9 169.8 210.6 160 225.1 160L240 160zM320 576C352.8 576 381 556.3 393.3 528L355.7 528C346.9 537.8 334.1 544 319.9 544C305.7 544 292.9 537.8 284.1 528L246.5 528C258.8 556.3 287 576 319.8 576z"/></svg>