<svg xmlns="http://www.w3.org/2000/svg" viewBox="0 0 640 640"><!--! Font Awesome Pro 7.1.0 by @fontawesome - https://fontawesome.com License - https://fontawesome.com/license (Commercial License) Copyright 2025 Fonticons, Inc. --><path fill="currentColor" d="M176 96C137.3 96 105 123.5 97.6 160L194.7 160C198.9 160 203 158.3 206 155.3L212.6 148.7C218.8 142.5 229 142.5 235.2 148.7C241.4 154.9 241.4 165.1 235.2 171.3L228.6 177.9C219.6 186.9 207.4 192 194.7 192L96 192L96 212.1C96 223.6 102.2 234.2 112.1 239.9L190.9 284.9C209.1 270 231.5 260 256 257L256 208C256 199.2 263.2 192 272 192C280.8 192 288 199.2 288 208L288 256L352 256L352 208C352 199.2 359.2 192 368 192C376.8 192 384 199.2 384 208L384 257C408.5 260.1 430.9 270.1 449.1 285L527.9 240C537.9 234.3 544 223.7 544 212.2L544 192.1L445.3 192.1C432.6 192.1 420.4 187 411.4 178L404.8 171.4C398.6 165.2 398.6 155 404.8 148.8C411 142.6 421.2 142.6 427.4 148.8L434 155.4C437 158.4 441.1 160.1 445.3 160.1L542.4 160.1C535 123.5 502.7 96 464 96L448 96L473.6 115.2C480.7 120.5 482.1 130.5 476.8 137.6C471.5 144.7 461.5 146.1 454.4 140.8L390.4 92.8C384.9 88.7 382.6 81.5 384.8 74.9C387 68.3 393.1 64 400 64L464 64C525.9 64 576 114.1 576 176L576 212.1C576 235.1 563.7 256.3 543.8 267.7L471.7 308.9C477.7 317.2 482.8 326.3 486.7 336L524.2 336L552.8 321.7C560.7 317.7 570.3 321 574.3 328.9C578.3 336.8 575 346.4 567.1 350.4L535.1 366.4C532.9 367.5 530.4 368.1 527.9 368.1L494.9 368.1C495.6 373.3 495.9 378.7 495.9 384.1L495.9 392.1L518.1 401.3C520 402.1 521.8 403.3 523.3 404.8L555.3 436.8C561.5 443 561.5 453.2 555.3 459.4C549.1 465.6 538.9 465.6 532.7 459.4L502.9 429.6L477.2 418.9L446.1 450L485.7 465.1C487.8 465.9 489.7 467.1 491.3 468.7L523.3 500.7C529.5 506.9 529.5 517.1 523.3 523.3C517.1 529.5 506.9 529.5 500.7 523.3L471.1 493.7L421.3 474.7L406.2 489.8L441.4 514.9C445.6 517.9 448.1 522.8 448.1 527.9L448.1 559.9C448.1 568.7 440.9 575.9 432.1 575.9C423.3 575.9 416.1 568.7 416.1 559.9L416.1 536.1L382.2 511.9L258.1 511.9L224.2 536.1L224.2 559.9C224.2 568.7 217 575.9 208.2 575.9C199.4 575.9 192.2 568.7 192.2 559.9L192.2 527.9C192.2 522.7 194.7 517.9 198.9 514.9L234.1 489.8L219 474.7L169.2 493.7L139.6 523.3C133.4 529.5 123.2 529.5 117 523.3C110.8 517.1 110.8 506.9 117 500.7L149 468.7C150.6 467.1 152.5 465.9 154.6 465.1L194.2 450L163.1 418.9L137.4 429.6L107.6 459.4C101.4 465.6 91.2 465.6 85 459.4C78.8 453.2 78.8 443 85 436.8L117 404.8C118.5 403.3 120.2 402.2 122.2 401.3L144.4 392.1L144.4 384.1C144.4 378.7 144.7 373.3 145.4 368.1L112.4 368.1C109.9 368.1 107.5 367.5 105.2 366.4L73.2 350.4C65.3 346.4 62.1 336.8 66 328.9C69.9 321 79.6 317.8 87.5 321.7L116.1 336L153.6 336C157.5 326.3 162.6 317.2 168.6 308.9L96.3 267.7C76.3 256.3 64 235.1 64 212.1L64 176C64 114.1 114.1 64 176 64L240 64C246.9 64 253 68.4 255.2 74.9C257.4 81.4 255.1 88.6 249.6 92.8L185.6 140.8C178.5 146.1 168.5 144.7 163.2 137.6C157.9 130.5 159.3 120.5 166.4 115.2L192 96L176 96zM368 288L272 288C219 288 176 331 176 384L176 386.7L269.3 480L370.8 480L464.1 386.7L464.1 384C464.1 331 421.1 288 368.1 288z"/></svg>