<svg xmlns="http://www.w3.org/2000/svg" viewBox="0 0 640 640"><!--! Font Awesome Pro 7.1.0 by @fontawesome - https://fontawesome.com License - https://fontawesome.com/license (Commercial License) Copyright 2025 Fonticons, Inc. --><path fill="currentColor" d="M283.3 91.3C289.5 85.1 289.5 74.9 283.3 68.7C277.1 62.5 266.9 62.5 260.7 68.7L228.7 100.7C222.5 106.9 222.5 117.1 228.7 123.3C234.9 129.5 245.1 129.5 251.3 123.3L283.3 91.3zM475.3 91.3C481.5 85.1 481.5 74.9 475.3 68.7C469.1 62.5 458.9 62.5 452.7 68.7L420.7 100.7C414.5 106.9 414.5 117.1 420.7 123.3C426.9 129.5 437.1 129.5 443.3 123.3L475.3 91.3zM139 190C145.3 179.6 152.1 176 160 176C169.3 176 183.1 179.9 195.6 184.8C213.8 191.9 234.1 191.9 252.3 184.8C264.8 179.9 278.7 176 287.9 176C295.8 176 302.6 179.6 308.9 190C315.7 201.2 319.9 218 319.9 235.5C319.9 242.6 319.4 249.5 318.4 256.1L350.7 256.1C351.5 249.4 351.9 242.6 351.9 235.5C351.9 191.9 331.5 144.1 287.9 144.1C272.3 144.1 253.8 150 240.7 155.1C230 159.3 217.9 159.3 207.2 155.1C194.1 150 175.6 144.1 160 144.1C116.4 144.1 96 191.9 96 235.5C96 242.5 96.4 249.4 97.2 256.1L129.5 256.1C128.5 249.5 128 242.7 128 235.5C128 218 132.2 201.3 139 190zM542.7 256C543.5 249.3 543.9 242.5 543.9 235.4C543.9 191.8 523.5 144 479.9 144C464.3 144 445.8 149.9 432.7 155C422 159.2 409.9 159.2 399.2 155C386.8 150.2 369.6 144.7 354.6 144C358 148 361 152.3 363.6 156.7C368.1 164.1 371.8 172 374.7 180.3C379 181.6 383.3 183.1 387.5 184.8C405.7 191.9 426 191.9 444.2 184.8C456.7 179.9 470.6 176 479.8 176C487.7 176 494.5 179.6 500.8 190C507.6 201.2 511.8 218 511.8 235.5C511.8 242.6 511.3 249.5 510.3 256.1L542.6 256.1zM96 448L544 448L544 520C544 533.3 533.3 544 520 544L120 544C106.7 544 96 533.3 96 520L96 448zM96 416L96 344C96 330.7 106.7 320 120 320L520 320C533.3 320 544 330.7 544 344L544 416L96 416zM576 416L576 344C576 313.1 550.9 288 520 288L120 288C89.1 288 64 313.1 64 344L64 520C64 550.9 89.1 576 120 576L520 576C550.9 576 576 550.9 576 520L576 416zM160 368C160 359.2 152.8 352 144 352C135.2 352 128 359.2 128 368C128 376.8 135.2 384 144 384C152.8 384 160 376.8 160 368zM496 384C504.8 384 512 376.8 512 368C512 359.2 504.8 352 496 352C487.2 352 480 359.2 480 368C480 376.8 487.2 384 496 384zM160 496C160 487.2 152.8 480 144 480C135.2 480 128 487.2 128 496C128 504.8 135.2 512 144 512C152.8 512 160 504.8 160 496zM496 512C504.8 512 512 504.8 512 496C512 487.2 504.8 480 496 480C487.2 480 480 487.2 480 496C480 504.8 487.2 512 496 512z"/></svg>