<svg xmlns="http://www.w3.org/2000/svg" viewBox="0 0 640 640"><!--! Font Awesome Pro 7.1.0 by @fontawesome - https://fontawesome.com License - https://fontawesome.com/license (Commercial License) Copyright 2025 Fonticons, Inc. --><path fill="currentColor" d="M512 160C529.7 160 544 174.3 544 192L544 256L96 256L96 192C96 174.3 110.3 160 128 160L512 160zM544 288L544 448C544 465.7 529.7 480 512 480L128 480C110.3 480 96 465.7 96 448L96 288L544 288zM128 128C92.7 128 64 156.7 64 192L64 448C64 483.3 92.7 512 128 512L512 512C547.3 512 576 483.3 576 448L576 192C576 156.7 547.3 128 512 128L128 128zM160 400C160 408.8 167.2 416 176 416L208 416C216.8 416 224 408.8 224 400C224 391.2 216.8 384 208 384L176 384C167.2 384 160 391.2 160 400zM256 400C256 408.8 263.2 416 272 416L304 416C312.8 416 320 408.8 320 400C320 391.2 312.8 384 304 384L272 384C263.2 384 256 391.2 256 400z"/></svg>