<svg xmlns="http://www.w3.org/2000/svg" viewBox="0 0 640 640"><!--! Font Awesome Pro 7.1.0 by @fontawesome - https://fontawesome.com License - https://fontawesome.com/license (Commercial License) Copyright 2025 Fonticons, Inc. --><path fill="currentColor" d="M512 160C529.7 160 544 174.3 544 192L544 448C544 465.7 529.7 480 512 480L128 480C110.3 480 96 465.7 96 448L96 192C96 174.3 110.3 160 128 160L512 160zM128 128C92.7 128 64 156.7 64 192L64 448C64 483.3 92.7 512 128 512L512 512C547.3 512 576 483.3 576 448L576 192C576 156.7 547.3 128 512 128L128 128zM144 400C144 408.8 151.2 416 160 416L224 416C232.8 416 240 408.8 240 400C240 391.2 232.8 384 224 384L160 384C151.2 384 144 391.2 144 400zM272 400C272 408.8 279.2 416 288 416L352 416C360.8 416 368 408.8 368 400C368 391.2 360.8 384 352 384L288 384C279.2 384 272 391.2 272 400zM400 400C400 408.8 407.2 416 416 416L480 416C488.8 416 496 408.8 496 400C496 391.2 488.8 384 480 384L416 384C407.2 384 400 391.2 400 400zM184 208C161.9 208 144 225.9 144 248L144 296C144 318.1 161.9 336 184 336L264 336C286.1 336 304 318.1 304 296L304 248C304 225.9 286.1 208 264 208L184 208zM176 248C176 243.6 179.6 240 184 240L264 240C268.4 240 272 243.6 272 248L272 296C272 300.4 268.4 304 264 304L184 304C179.6 304 176 300.4 176 296L176 248z"/></svg>