<svg xmlns="http://www.w3.org/2000/svg" viewBox="0 0 640 640"><!--! Font Awesome Pro 7.1.0 by @fontawesome - https://fontawesome.com License - https://fontawesome.com/license (Commercial License) Copyright 2025 Fonticons, Inc. --><path fill="currentColor" d="M128 160C110.3 160 96 174.3 96 192L96 448C96 465.7 110.3 480 128 480L512 480C529.7 480 544 465.7 544 448L544 192C544 174.3 529.7 160 512 160L128 160zM64 192C64 156.7 92.7 128 128 128L512 128C547.3 128 576 156.7 576 192L576 448C576 483.3 547.3 512 512 512L128 512C92.7 512 64 483.3 64 448L64 192zM160 384L224 384C232.8 384 240 391.2 240 400C240 408.8 232.8 416 224 416L160 416C151.2 416 144 408.8 144 400C144 391.2 151.2 384 160 384zM288 384L352 384C360.8 384 368 391.2 368 400C368 408.8 360.8 416 352 416L288 416C279.2 416 272 408.8 272 400C272 391.2 279.2 384 288 384zM416 384L480 384C488.8 384 496 391.2 496 400C496 408.8 488.8 416 480 416L416 416C407.2 416 400 408.8 400 400C400 391.2 407.2 384 416 384z"/></svg>