<svg xmlns="http://www.w3.org/2000/svg" viewBox="0 0 640 640"><!--! Font Awesome Pro 7.1.0 by @fontawesome - https://fontawesome.com License - https://fontawesome.com/license (Commercial License) Copyright 2025 Fonticons, Inc. --><path fill="currentColor" d="M320 96C376.1 96 427.4 116.6 466.7 150.7L362 255.4L305.2 96.4C310.1 96.1 315.1 95.9 320 95.9zM489.3 173.3C506.3 192.9 519.9 215.5 529.3 240.1C530.8 244 530 247.5 527.8 250.5C525.4 253.6 521.2 256 516 256L406.6 256L489.3 173.3zM374.6 288L516 288C545.4 288 571.2 260 559.2 228.7C522.5 132.4 429.3 64 320 64C178.6 64 64 178.6 64 320C64 429.3 132.4 522.5 228.7 559.2C260 571.2 288 545.4 288 516.1L288 374.7L290.1 372.6L303.8 378.5C315.8 383.7 329.8 381 339 371.7L372.2 338.5C380.9 329.8 383.9 316.8 379.7 305.1L373.9 288.8L374.7 288zM258.4 359L150.7 466.7C116.6 427.4 96 376.1 96 320C96 309.9 96.7 300 98 290.2L258.4 359zM173.3 489.3L256 406.6L256 516C256 521.1 253.6 525.3 250.5 527.8C247.5 530.1 244 530.8 240.1 529.3C215.4 519.9 192.9 506.2 173.3 489.3zM104.6 258.3C127.2 179.4 191.9 118.3 272.8 101L272.9 101.4L349.5 315.9L316.3 349.1L104.6 258.4z"/></svg>