<svg xmlns="http://www.w3.org/2000/svg" viewBox="0 0 640 640"><!--! Font Awesome Pro 7.1.0 by @fontawesome - https://fontawesome.com License - https://fontawesome.com/license (Commercial License) Copyright 2025 Fonticons, Inc. --><path fill="currentColor" d="M480 182.6L571.3 91.3C577.5 85.1 577.5 74.9 571.3 68.7C565.1 62.5 554.9 62.5 548.7 68.7L457.4 160L240 160L240 192L425.4 192L192 425.4L192 80C192 71.2 184.8 64 176 64C167.2 64 160 71.2 160 80L160 160L80 160C71.2 160 64 167.2 64 176C64 184.8 71.2 192 80 192L160 192L160 432C160 458.5 181.5 480 208 480L400 480L400 448L214.6 448L448 214.6L448 560C448 568.8 455.2 576 464 576C472.8 576 480 568.8 480 560L480 480L560 480C568.8 480 576 472.8 576 464C576 455.2 568.8 448 560 448L480 448L480 182.6z"/></svg>