<svg xmlns="http://www.w3.org/2000/svg" viewBox="0 0 640 640"><!--! Font Awesome Pro 7.1.0 by @fontawesome - https://fontawesome.com License - https://fontawesome.com/license (Commercial License) Copyright 2025 Fonticons, Inc. --><path fill="currentColor" d="M320 48C328.8 48 336 55.2 336 64L336 96.6C447 104.4 535.6 193 543.4 304L576 304C584.8 304 592 311.2 592 320C592 328.8 584.8 336 576 336L543.4 336C535.6 447 447 535.6 336 543.4L336 576C336 584.8 328.8 592 320 592C311.2 592 304 584.8 304 576L304 543.4C193 535.6 104.4 447 96.6 336L64 336C55.2 336 48 328.8 48 320C48 311.2 55.2 304 64 304L96.6 304C104.4 193 193 104.4 304 96.6L304 64C304 55.2 311.2 48 320 48zM128.7 336C136.4 429.3 210.8 503.6 304 511.3L304 464C304 455.2 311.2 448 320 448C328.8 448 336 455.2 336 464L336 511.3C429.3 503.6 503.6 429.2 511.3 336L464 336C455.2 336 448 328.8 448 320C448 311.2 455.2 304 464 304L511.3 304C503.6 210.7 429.3 136.4 336 128.7L336 176C336 184.8 328.8 192 320 192C311.2 192 304 184.8 304 176L304 128.7C210.7 136.4 136.4 210.7 128.7 304L176 304C184.8 304 192 311.2 192 320C192 328.8 184.8 336 176 336L128.7 336zM320 296C333.3 296 344 306.7 344 320C344 333.3 333.3 344 320 344C306.7 344 296 333.3 296 320C296 306.7 306.7 296 320 296z"/></svg>