<svg xmlns="http://www.w3.org/2000/svg" viewBox="0 0 640 640"><!--! Font Awesome Pro 7.1.0 by @fontawesome - https://fontawesome.com License - https://fontawesome.com/license (Commercial License) Copyright 2025 Fonticons, Inc. --><path fill="currentColor" d="M543.4 304L448 304C439.2 304 432 311.2 432 320C432 328.8 439.2 336 448 336L543.4 336C535.6 447 447 535.6 336 543.4L336 448C336 439.2 328.8 432 320 432C311.2 432 304 439.2 304 448L304 543.4C193 535.6 104.4 447 96.6 336L192 336C200.8 336 208 328.8 208 320C208 311.2 200.8 304 192 304L96.6 304C104.4 193 193 104.4 304 96.6L304 192C304 200.8 311.2 208 320 208C328.8 208 336 200.8 336 192L336 96.6C447 104.4 535.6 193 543.4 304zM64 320C64 461.4 178.6 576 320 576C461.4 576 576 461.4 576 320C576 178.6 461.4 64 320 64C178.6 64 64 178.6 64 320z"/></svg>