<svg xmlns="http://www.w3.org/2000/svg" viewBox="0 0 640 640"><!--! Font Awesome Pro 7.1.0 by @fontawesome - https://fontawesome.com License - https://fontawesome.com/license (Commercial License) Copyright 2025 Fonticons, Inc. --><path fill="currentColor" d="M416 64C444.4 64 469.8 76.4 487.4 96L565.2 96L571.5 96.3C602.9 99.1 629.2 122.3 635.5 153.7C638 166.2 630.2 178.5 617.8 181.6L512 208L512 256C512 334.8 464.5 402.5 396.6 432.1L446.8 553.9L447.7 557C449.1 564.3 445.2 571.8 438.1 574.8C431 577.8 422.9 575.1 418.7 569L417.2 566.2L366.2 442.4C351.4 446 336 448 320 448L307.2 448L350.8 553.9L351.7 557C353.1 564.3 349.2 571.8 342.1 574.8C335 577.8 326.9 575.1 322.7 569L321.2 566.2L272.6 448.1L61.6 448.1L26 476.6C19.1 482 9 480.9 3.5 474C-2 467.1-.9 457 6 451.5L320 200.3L320 160C320 107 363 64 416 64zM416 96C380.7 96 352 124.7 352 160L352 245.1C352 324.8 298.4 394.6 221.3 415.2L218 416.1L319.9 416.1C408.3 416.1 479.9 344.5 479.9 256.1L479.9 160.1C479.9 124.8 451.2 96.1 415.9 96.1zM105.5 412.9L213.1 384.2C276.1 367.4 320 310.3 320 245L320 241.2L105.5 412.8zM416 184C402.7 184 392 173.3 392 160C392 146.7 402.7 136 416 136C429.3 136 440 146.7 440 160C440 173.3 429.3 184 416 184zM506.4 128C510 138 512 148.8 512 160L512 175L601.9 152.5C595.9 137.9 581.5 128 565.2 128L506.4 128z"/></svg>