<svg xmlns="http://www.w3.org/2000/svg" viewBox="0 0 640 640"><!--! Font Awesome Pro 7.1.0 by @fontawesome - https://fontawesome.com License - https://fontawesome.com/license (Commercial License) Copyright 2025 Fonticons, Inc. --><path fill="currentColor" d="M336 128C336 119.2 328.8 112 320 112C311.2 112 304 119.2 304 128C304 136.8 311.2 144 320 144C328.8 144 336 136.8 336 128zM322.1 176C320.7 176.1 319.3 176.1 318 176L237.3 296.9C232.8 303.6 224 305.9 216.8 302.3L117.2 252.5L150.3 440.3C154.3 463.2 174.3 480 197.6 480L442.2 480C465.5 480 485.4 463.3 489.5 440.3L522.6 252.5L423 302.3C415.8 305.9 407 303.6 402.5 296.9L322.1 176zM287.7 163.5C278 154.7 272 142 272 128C272 101.5 293.5 80 320 80C346.5 80 368 101.5 368 128C368 142.1 361.9 154.8 352.3 163.5L421.5 267.3L507 224.6C505.1 219.4 504 213.8 504 208C504 181.5 525.5 160 552 160C578.5 160 600 181.5 600 208C600 233.6 579.9 254.6 554.6 255.9L521.1 445.9C514.4 484.1 481.1 512 442.3 512L197.7 512C158.9 512 125.7 484.1 118.9 445.9L85.4 255.9C60.1 254.6 40 233.6 40 208C40 181.5 61.5 160 88 160C114.5 160 136 181.5 136 208C136 213.8 135 219.4 133 224.6L218.5 267.3L287.7 163.5zM104 208C104 199.2 96.8 192 88 192C79.2 192 72 199.2 72 208C72 216.8 79.2 224 88 224C96.8 224 104 216.8 104 208zM552 224C560.8 224 568 216.8 568 208C568 199.2 560.8 192 552 192C543.2 192 536 199.2 536 208C536 216.8 543.2 224 552 224z"/></svg>