<svg xmlns="http://www.w3.org/2000/svg" viewBox="0 0 640 640"><!--! Font Awesome Pro 7.1.0 by @fontawesome - https://fontawesome.com License - https://fontawesome.com/license (Commercial License) Copyright 2025 Fonticons, Inc. --><path fill="currentColor" d="M364.7 76.7C370.9 70.5 381.1 70.5 387.3 76.7L563.3 252.7C569.5 258.9 569.5 269.1 563.3 275.3C557.1 281.5 546.9 281.5 540.7 275.3L520 254.6L350.1 424.6C335.1 439.6 314.7 448 293.5 448L234.5 448C221.8 448 209.6 453.1 200.6 462.1C141.5 521.2 105.1 557.6 91.3 571.4C85.1 577.6 74.9 577.6 68.7 571.4C62.5 565.2 62.5 555 68.7 548.8L100.7 516.8L100.7 516.8L178 439.5C187 430.5 192.1 418.3 192.1 405.6L192.1 346.6C192.1 325.4 200.5 305 215.5 290L385.4 120L364.7 99.3C358.5 93.1 358.5 82.9 364.7 76.7zM408 142.6L302.6 248L392 337.4L497.4 232L408 142.6zM280 270.6L238.1 312.5C229.1 321.5 224 333.7 224 346.4L224 405.4C224 409.2 223.7 413 223.2 416.7C226.9 416.2 230.7 415.9 234.5 415.9L293.5 415.9C306.2 415.9 318.4 410.8 327.4 401.8L369.4 360L280 270.6z"/></svg>