<svg xmlns="http://www.w3.org/2000/svg" viewBox="0 0 640 640"><!--! Font Awesome Pro 7.1.0 by @fontawesome - https://fontawesome.com License - https://fontawesome.com/license (Commercial License) Copyright 2025 Fonticons, Inc. --><path fill="currentColor" d="M286.1 183.4L222.6 120L243.3 99.3C249.5 93.1 249.5 82.9 243.3 76.7C237.1 70.5 226.9 70.5 220.7 76.7L44.7 252.7C38.5 258.9 38.5 269.1 44.7 275.3C50.9 281.5 61.1 281.5 67.3 275.3L88 254.6L176.1 342.7C176.5 329.6 178.9 316.7 183.1 304.5L110.6 232L200 142.6L263.4 206L286 183.4zM432.6 441.9L416 458.5C414 460.5 411.9 462.5 409.7 464.4L516.7 571.3C522.9 577.5 533.1 577.5 539.3 571.3C545.5 565.1 545.5 554.9 539.3 548.7L432.6 441.9zM419.3 76.7C413.1 70.5 402.9 70.5 396.7 76.7C390.5 82.9 390.5 93.1 396.7 99.3L417.4 120L247.4 289.9C232.4 304.9 224 325.3 224 346.5L224 405.5C224 418.2 218.9 430.4 209.9 439.4L132.6 516.7L132.6 516.7L100.6 548.7C94.4 554.9 94.4 565.1 100.6 571.3C106.8 577.5 117 577.5 123.2 571.3C137 557.5 173.4 521.1 232.5 462C241.5 453 253.7 447.9 266.4 447.9L325.4 447.9C346.6 447.9 367 439.5 382 424.5L552 254.6L572.7 275.3C578.9 281.5 589.1 281.5 595.3 275.3C601.5 269.1 601.5 258.9 595.3 252.7L419.3 76.7zM529.4 232L424 337.4L334.6 248L440 142.6L529.4 232zM270.1 312.6L312 270.7L401.4 360.1L359.5 402C350.5 411 338.3 416.1 325.6 416.1L266.6 416.1C262.8 416.1 259 416.4 255.3 416.9C255.8 413.2 256.1 409.4 256.1 405.6L256.1 346.6C256.1 333.9 261.2 321.7 270.2 312.7z"/></svg>