<svg xmlns="http://www.w3.org/2000/svg" viewBox="0 0 640 640"><!--! Font Awesome Pro 7.1.0 by @fontawesome - https://fontawesome.com License - https://fontawesome.com/license (Commercial License) Copyright 2025 Fonticons, Inc. --><path fill="currentColor" d="M145 318.5C145 212.5 231 126.5 337 126.5C388 126.5 434.4 146.4 468.8 178.9C475.2 185 485.4 184.7 491.4 178.2C497.4 171.7 497.2 161.6 490.8 155.6C450.7 117.7 396.6 94.5 337.1 94.5C213.4 94.5 113.1 194.8 113.1 318.5C113.1 442.2 213.4 542.5 337.1 542.5C396.6 542.5 450.7 519.3 490.8 481.4C497.2 475.3 497.5 465.2 491.4 458.8C485.3 452.4 475.2 452.1 468.8 458.1C434.4 490.6 388.1 510.5 337 510.5C331.4 510.5 325.9 510.3 320.4 509.8L320.4 404.3C320.4 393.8 323.1 383.5 328.3 374.4C339 355.6 359 344 380.6 344L392.4 344C401.2 344 408.4 336.8 408.4 328C408.4 319.2 401.2 312 392.4 312L380.6 312C358.1 312 336.8 320.2 320.4 334.4L320.4 320C320.4 311.2 313.2 304 304.4 304C295.6 304 288.4 311.2 288.4 320L288.4 504.3C205.9 482.8 145 407.7 145 318.5z"/></svg>