<svg xmlns="http://www.w3.org/2000/svg" viewBox="0 0 640 640"><!--! Font Awesome Pro 7.1.0 by @fontawesome - https://fontawesome.com License - https://fontawesome.com/license (Commercial License) Copyright 2025 Fonticons, Inc. --><path fill="currentColor" d="M473.9 450.8C517.1 409.9 544 352.1 544 288C544 164.3 443.7 64 320 64C196.3 64 96 164.3 96 288C96 352.1 122.9 409.9 166.1 450.8L163.5 454L102.1 530.8C98.2 535.7 96 541.8 96 548.2C96 563.5 108.5 576 123.8 576L516.1 576C531.5 576 543.9 563.5 543.9 548.2C543.9 541.9 541.7 535.7 537.8 530.8L476.4 454L473.8 450.8zM426.2 448L213.9 448C162.1 413.6 128 354.8 128 288C128 182 214 96 320 96C426 96 512 182 512 288C512 354.8 477.9 413.6 426.2 448zM240 160C231.2 160 224 167.2 224 176L224 192L208 192C199.2 192 192 199.2 192 208C192 216.8 199.2 224 208 224L224 224L224 240C224 248.8 231.2 256 240 256C248.8 256 256 248.8 256 240L256 224L272 224C280.8 224 288 216.8 288 208C288 199.2 280.8 192 272 192L256 192L256 176C256 167.2 248.8 160 240 160zM400 224C400 215.2 392.8 208 384 208C375.2 208 368 215.2 368 224L368 272L320 272C311.2 272 304 279.2 304 288C304 296.8 311.2 304 320 304L368 304L368 352C368 360.8 375.2 368 384 368C392.8 368 400 360.8 400 352L400 304L448 304C456.8 304 464 296.8 464 288C464 279.2 456.8 272 448 272L400 272L400 224zM183.7 480L456.3 480L507.5 544L132.5 544L183.7 480z"/></svg>