<svg xmlns="http://www.w3.org/2000/svg" viewBox="0 0 640 640"><!--! Font Awesome Pro 7.1.0 by @fontawesome - https://fontawesome.com License - https://fontawesome.com/license (Commercial License) Copyright 2025 Fonticons, Inc. --><path fill="currentColor" d="M304.3 89.2L128.5 190.8L320.3 301.5L512.2 190.8L336.3 89.2C326.4 83.5 314.2 83.5 304.3 89.2zM112.5 218.5L112.5 421.5C112.5 432.9 118.6 443.5 128.5 449.2L304.3 550.7L304.3 329.2L112.5 218.4zM336.3 550.8L512.2 449.2C522.1 443.5 528.2 432.9 528.2 421.5L528.2 218.5L336.4 329.3L336.4 550.8zM288.3 61.5C308.1 50.1 332.5 50.1 352.3 61.5L528.2 163C548 174.4 560.2 195.6 560.2 218.4L560.2 421.4C560.2 444.3 548 465.4 528.2 476.8L352.3 578.5C332.5 589.9 308.1 589.9 288.3 578.5L112.5 477C92.7 465.6 80.5 444.4 80.5 421.6L80.5 218.6C80.5 195.7 92.7 174.6 112.5 163.2L288.3 61.5z"/></svg>