<svg xmlns="http://www.w3.org/2000/svg" viewBox="0 0 640 640"><!--! Font Awesome Pro 7.1.0 by @fontawesome - https://fontawesome.com License - https://fontawesome.com/license (Commercial License) Copyright 2025 Fonticons, Inc. --><path fill="currentColor" d="M352 96L352 160L288 160L288 96L352 96zM288 64C270.3 64 256 78.3 256 96L256 160C256 177.7 270.3 192 288 192L352 192C369.7 192 384 177.7 384 160L384 96C384 78.3 369.7 64 352 64L288 64zM288 480L352 480L352 544L288 544L288 480zM256 480L256 544C256 561.7 270.3 576 288 576L352 576C369.7 576 384 561.7 384 544L384 480C384 462.3 369.7 448 352 448L288 448C270.3 448 256 462.3 256 480zM480 480L544 480L544 544L480 544L480 480zM448 480L448 544C448 561.7 462.3 576 480 576L544 576C561.7 576 576 561.7 576 544L576 480C576 462.3 561.7 448 544 448L480 448C462.3 448 448 462.3 448 480zM384 288L448 288L448 352L384 352L384 288zM352 288L352 352C352 369.7 366.3 384 384 384L448 384C465.7 384 480 369.7 480 352L480 288C480 270.3 465.7 256 448 256L384 256C366.3 256 352 270.3 352 288zM246.6 252.1C234.1 239.6 213.8 239.6 201.3 252.1L156.1 297.4C143.6 309.9 143.6 330.2 156.1 342.7L201.4 388C213.9 400.5 234.2 400.5 246.7 388L292 342.7C304.5 330.2 304.5 309.9 292 297.4L246.7 252.1zM96 480L160 480L160 544L96 544L96 480zM269.3 320L224 365.3L178.7 320L224 274.7L269.3 320zM64 480L64 544C64 561.7 78.3 576 96 576L160 576C177.7 576 192 561.7 192 544L192 480C192 462.3 177.7 448 160 448L96 448C78.3 448 64 462.3 64 480z"/></svg>