<svg xmlns="http://www.w3.org/2000/svg" viewBox="0 0 640 640"><!--! Font Awesome Pro 7.1.0 by @fontawesome - https://fontawesome.com License - https://fontawesome.com/license (Commercial License) Copyright 2025 Fonticons, Inc. --><path fill="currentColor" d="M260.4 515.9L516.4 259.9C553.9 222.4 553.9 161.6 516.4 124.1C478.9 86.6 418.1 86.6 380.6 124.1L124.6 380.1C87.1 417.6 87.1 478.4 124.6 515.9C162.1 553.4 222.9 553.4 260.4 515.9zM282.2 539.3C232.2 588.5 151.7 588.2 102 538.5C52 488.5 52 407.5 102 357.5L197.2 262.3C190.2 252.9 191 239.6 199.5 231.1C208 222.6 221.4 221.8 230.7 228.8L358 101.5C408 51.5 489 51.5 539 101.5C588.7 151.2 589 231.7 539.8 281.7C546.8 291.1 546 304.4 537.5 313C529 321.6 515.7 322.3 506.3 315.3L315.8 505.7C322.8 515.1 322 528.4 313.5 536.9C305 545.4 291.6 546.2 282.2 539.2zM192.5 372C192.5 361 201.5 352 212.5 352C223.5 352 232.5 361 232.5 372C232.5 383 223.5 392 212.5 392C201.5 392 192.5 383 192.5 372zM396.5 288C407.5 288 416.5 297 416.5 308C416.5 319 407.5 328 396.5 328C385.5 328 376.5 319 376.5 308C376.5 297 385.5 288 396.5 288zM408.5 180C408.5 169 417.5 160 428.5 160C439.5 160 448.5 169 448.5 180C448.5 191 439.5 200 428.5 200C417.5 200 408.5 191 408.5 180z"/></svg>