<svg xmlns="http://www.w3.org/2000/svg" viewBox="0 0 640 640"><!--! Font Awesome Pro 7.1.0 by @fontawesome - https://fontawesome.com License - https://fontawesome.com/license (Commercial License) Copyright 2025 Fonticons, Inc. --><path fill="currentColor" d="M360.6 48C338.9 48 319.8 62.6 314.2 83.6L293.8 160L144 160C135.2 160 128 167.2 128 176C128 184.8 135.2 192 144 192L160 192L188.3 532C190.4 556.9 211.2 576 236.1 576L403.8 576C428.8 576 449.6 556.9 451.6 532L479.9 192L495.9 192C504.7 192 511.9 184.8 511.9 176C511.9 167.2 504.7 160 495.9 160L326.9 160L345.1 91.9C347 84.9 353.3 80 360.6 80L400 80C408.8 80 416 72.8 416 64C416 55.2 408.8 48 400 48L360.6 48zM192.1 192L447.9 192L419.8 529.3C419.1 537.6 412.2 544 403.9 544L236.2 544C227.9 544 220.9 537.6 220.3 529.3L192.1 192z"/></svg>