<svg xmlns="http://www.w3.org/2000/svg" viewBox="0 0 640 640"><!--! Font Awesome Pro 7.1.0 by @fontawesome - https://fontawesome.com License - https://fontawesome.com/license (Commercial License) Copyright 2025 Fonticons, Inc. --><path fill="currentColor" d="M304 64C298.1 64 292.7 67.2 289.9 72.5C287.1 77.8 287.4 84 290.7 88.9L301.5 105.2C303.1 107.6 304 110.5 304 113.4C304 121.5 297.4 128.1 289.3 128.1L244 128C207.3 128 177.5 157 176.1 193.3C130.7 200.9 96 240.4 96 288C96 328.5 121.1 363.1 156.5 377.2L157.7 384L184.9 536.4C189 559.3 208.9 576 232.2 576L407.8 576C431.1 576 451 559.3 455.1 536.4L482.3 384L483.5 377.2C518.9 363.1 544 328.5 544 288C544 240.4 509.4 200.9 464 193.3C464 192.9 464 192.4 464 192C464 121.3 406.7 64 336 64L304 64zM448 352L192 352C156.7 352 128 323.3 128 288C128 252.7 156.7 224 192 224L193.4 224C198.3 224 202.9 221.8 205.9 217.9C208.9 214 210 209.1 208.9 204.3C208.3 201.6 207.9 198.9 207.9 196C207.9 176.1 224 160 243.9 160L289.2 160C315 160 335.9 139.1 335.9 113.3C335.9 107.3 334.8 101.5 332.6 96L335.9 96C388.9 96 431.9 139 431.9 192C431.9 196 431.3 199.8 430.2 203.4C428.8 208.2 429.7 213.5 432.7 217.5C435.7 221.5 440.5 223.9 445.5 223.9L447.8 223.9C483.1 223.9 511.8 252.6 511.8 287.9C511.8 323.2 483.1 351.9 447.8 351.9zM192 384L249.3 384L262.6 544L232.2 544C224.4 544 217.8 538.4 216.4 530.8L190.2 384L192 384zM281.4 384L358.6 384L345.3 544L294.7 544L281.4 384zM390.7 384L449.8 384L423.6 530.8C422.2 538.4 415.6 544 407.8 544L377.4 544L390.7 384z"/></svg>