<svg xmlns="http://www.w3.org/2000/svg" viewBox="0 0 640 640"><!--! Font Awesome Pro 7.1.0 by @fontawesome - https://fontawesome.com License - https://fontawesome.com/license (Commercial License) Copyright 2025 Fonticons, Inc. --><path fill="currentColor" d="M432 96C440.8 96 448 103.2 448 112C448 120.8 440.8 128 432 128L272 128C245.5 128 224 149.5 224 176L224 208L432 208C476.2 208 512 243.8 512 288L512 293.6C549.3 306.8 576 342.2 576 384L576 448C576 501 533 544 480 544L160 544L155.1 543.9C104.3 541.3 64 499.4 64 448L64 384C64 342.2 90.7 306.8 128 293.6L128 288C128 249.3 155.5 217 192 209.6L192 176C192 131.8 227.8 96 272 96L432 96zM96 448C96 483.3 124.7 512 160 512L480 512C515.3 512 544 483.3 544 448L544 432L96 432L96 448zM160 320C124.7 320 96 348.7 96 384L96 400L544 400L544 384C544 348.7 515.3 320 480 320L160 320zM208 240C181.5 240 160 261.5 160 288L480 288C480 261.5 458.5 240 432 240L208 240z"/></svg>