<svg xmlns="http://www.w3.org/2000/svg" viewBox="0 0 640 640"><!--! Font Awesome Pro 7.1.0 by @fontawesome - https://fontawesome.com License - https://fontawesome.com/license (Commercial License) Copyright 2025 Fonticons, Inc. --><path fill="currentColor" d="M123.3 100.7C117.1 94.5 106.9 94.5 100.7 100.7C94.5 106.9 94.5 117.1 100.7 123.3L173.4 196C145.1 229.5 128 272.7 128 320C128 367.3 145.1 410.5 173.4 444L100.7 516.7C94.5 522.9 94.5 533.1 100.7 539.3C106.9 545.5 117.1 545.5 123.3 539.3L196 466.6C229.5 494.9 272.7 512 320 512C367.3 512 410.5 494.9 444 466.6L516.7 539.3C522.9 545.5 533.1 545.5 539.3 539.3C545.5 533.1 545.5 522.9 539.3 516.7L466.6 444C494.9 410.6 512 367.3 512 320C512 272.7 494.9 229.5 466.6 196L539.3 123.3C545.5 117.1 545.5 106.9 539.3 100.7C533.1 94.5 522.9 94.5 516.7 100.7L444 173.4C410.5 145.1 367.3 128 320 128C272.7 128 229.5 145.1 196 173.4L123.3 100.7zM160 320C160 231.6 231.6 160 320 160C408.4 160 480 231.6 480 320C480 408.4 408.4 480 320 480C231.6 480 160 408.4 160 320z"/></svg>