<svg xmlns="http://www.w3.org/2000/svg" viewBox="0 0 640 640"><!--! Font Awesome Pro 7.1.0 by @fontawesome - https://fontawesome.com License - https://fontawesome.com/license (Commercial License) Copyright 2025 Fonticons, Inc. --><path fill="currentColor" d="M129.1 64C138 64.7 144.6 72.3 144 81.1L132.9 236.6C130.9 264.4 152.9 288 180.8 288L235.3 288C263.2 288 285.2 264.4 283.2 236.6L272 81.1C271.4 72.3 278 64.7 286.9 64C295.8 63.3 303.3 70 304 78.9L315.1 234.3C318.4 280.6 281.7 320 235.3 320L224 320L224 560C224 568.8 216.8 576 208 576C199.2 576 192 568.8 192 560L192 320L180.7 320C134.3 320 97.6 280.6 100.9 234.3L112 78.9C112.7 70 120.3 63.4 129.1 64zM184.8 64C193.6 64.4 200.4 72 200 80.8L192 240.8C191.6 249.6 184 256.4 175.2 256C166.4 255.6 159.6 248 160 239.2L168 79.2C168.5 70.4 176 63.6 184.8 64zM231.2 64C240 63.6 247.5 70.4 248 79.2L256 239.2C256.4 248 249.6 255.5 240.8 256C232 256.5 224.5 249.6 224 240.8L216 80.8C215.6 72 222.4 64.5 231.2 64zM384 200C384 124.9 444.9 64 520 64L528 64C536.8 64 544 71.2 544 80L544 560C544 568.8 536.8 576 528 576C519.2 576 512 568.8 512 560L512 416L448 416C412.7 416 384 387.3 384 352L384 200zM512 384L512 96.3C458.3 100.4 416 145.3 416 200L416 352C416 369.7 430.3 384 448 384L512 384z"/></svg>