<svg xmlns="http://www.w3.org/2000/svg" viewBox="0 0 640 640"><!--! Font Awesome Pro 7.1.0 by @fontawesome - https://fontawesome.com License - https://fontawesome.com/license (Commercial License) Copyright 2025 Fonticons, Inc. --><path fill="currentColor" d="M144 88C152.8 88 160 95.2 160 104L160 361.4L324.7 196.7C330.9 190.5 341.1 190.5 347.3 196.7C353.5 202.9 353.5 213.1 347.3 219.3L222.2 344.4L348.9 518.6C354.1 525.7 352.5 535.8 345.4 541C338.3 546.2 328.2 544.6 323 537.5L199.3 367.3L160 406.6L160 528C160 536.8 152.8 544 144 544C135.2 544 128 536.8 128 528L128 104C128 95.2 135.2 88 144 88zM464 288C453.6 301.8 448 318.7 448 336L448 528C448 536.8 440.8 544 432 544C423.2 544 416 536.8 416 528L416 240C416 231.2 423.2 224 432 224C440.8 224 448 231.2 448 240L448 257.6C468.9 236.2 497.7 224 528 224L544 224C552.8 224 560 231.2 560 240C560 248.8 552.8 256 544 256L528 256C502.8 256 479.1 267.9 464 288zM528 504C541.3 504 552 514.7 552 528C552 541.3 541.3 552 528 552C514.7 552 504 541.3 504 528C504 514.7 514.7 504 528 504z"/></svg>