<svg xmlns="http://www.w3.org/2000/svg" viewBox="0 0 640 640"><!--! Font Awesome Pro 7.1.0 by @fontawesome - https://fontawesome.com License - https://fontawesome.com/license (Commercial License) Copyright 2025 Fonticons, Inc. --><path fill="currentColor" d="M512 480C512 482.4 511 487.4 503.6 494.9C496.1 502.5 483.7 510.8 465.8 518.5C430.1 533.8 378.6 544 320 544C261.4 544 209.9 533.8 174.2 518.5C156.3 510.8 143.9 502.5 136.4 494.9C129 487.4 128 482.4 128 480L128 395.5C145.2 404.4 166.1 411.8 189.2 417.4C226.7 426.6 271.7 431.9 320 431.9C368.3 431.9 413.3 426.6 450.8 417.4C473.9 411.7 494.8 404.4 512 395.5L512 480zM512 267.5L512 358.1C497.5 368.7 474.1 378.7 443.1 386.4C408.4 394.9 366 400 320 400C274 400 231.5 394.9 196.9 386.4C165.9 378.8 142.5 368.7 128 358.1L128 267.5C145.2 276.4 166.1 283.8 189.2 289.4C226.7 298.6 271.7 303.9 320 303.9C368.3 303.9 413.3 298.6 450.8 289.4C473.9 283.7 494.8 276.4 512 267.5zM512 230.1C497.5 240.7 474.1 250.7 443.1 258.4C408.4 266.9 366 272 320 272C274 272 231.5 266.9 196.9 258.4C165.9 250.8 142.5 240.7 128 230.1L128 160C128 157.6 129 152.6 136.4 145.1C143.9 137.5 156.3 129.2 174.2 121.5C209.9 106.2 261.4 96 320 96C378.6 96 430.1 106.2 465.8 121.5C483.7 129.2 496.1 137.5 503.6 145.1C511 152.6 512 157.6 512 160L512 230.1zM544 480L544 160C544 107 443.7 64 320 64C196.3 64 96 107 96 160L96 480C96 533 196.3 576 320 576C443.7 576 544 533 544 480z"/></svg>