<svg xmlns="http://www.w3.org/2000/svg" viewBox="0 0 640 640"><!--! Font Awesome Pro 7.1.0 by @fontawesome - https://fontawesome.com License - https://fontawesome.com/license (Commercial License) Copyright 2025 Fonticons, Inc. --><path fill="currentColor" d="M96 128C96 136.8 103.2 144 112 144L528 144C536.8 144 544 136.8 544 128C544 119.2 536.8 112 528 112L112 112C103.2 112 96 119.2 96 128zM288 256C288 264.8 295.2 272 304 272L528 272C536.8 272 544 264.8 544 256C544 247.2 536.8 240 528 240L304 240C295.2 240 288 247.2 288 256zM304 368C295.2 368 288 375.2 288 384C288 392.8 295.2 400 304 400L528 400C536.8 400 544 392.8 544 384C544 375.2 536.8 368 528 368L304 368zM96 512C96 520.8 103.2 528 112 528L528 528C536.8 528 544 520.8 544 512C544 503.2 536.8 496 528 496L112 496C103.2 496 96 503.2 96 512zM192 275.8L192 364.2L138.3 320L192 275.8zM103 307.6C95.2 314 95.2 326 103 332.4L197.8 410.5C208.2 419.1 224 411.7 224 398.1L224 241.9C224 228.4 208.3 221 197.8 229.5L103 307.6z"/></svg>