<svg xmlns="http://www.w3.org/2000/svg" viewBox="0 0 640 640"><!--! Font Awesome Pro 7.1.0 by @fontawesome - https://fontawesome.com License - https://fontawesome.com/license (Commercial License) Copyright 2025 Fonticons, Inc. --><path fill="currentColor" d="M272 64C280.8 64 288 71.2 288 80L288 104C288 117.3 298.7 128 312 128L328 128C341.3 128 352 117.3 352 104L352 80C352 71.2 359.2 64 368 64C376.8 64 384 71.2 384 80L384 104C384 112.6 382.1 120.7 378.6 128L448 128C461.3 128 472 117.3 472 104L472 80C472 71.2 479.2 64 488 64C496.8 64 504 71.2 504 80L504 104C504 126 491.3 145.1 472.8 154.2L507.8 189.2C515.1 172 532.1 160 552 160C578.5 160 600 181.5 600 208C600 234.5 578.5 256 552 256C549.1 256 546.3 255.7 543.6 255.3C540.2 282.8 516.8 304 488.4 304L435.9 304L417.3 365.8C416.4 368.8 415.9 371.9 415.9 375L415.9 536C415.9 558.1 398 576 375.9 576L343.9 576C321.8 576 303.9 558.1 303.9 536L303.9 432L289.1 432C265 432 241.4 426.3 220.1 415.4C219.2 433.2 210 449.8 194.8 460C185.5 466.2 181.4 477.9 185 488.6L196.6 523.4C205.2 549.3 186 576 158.7 576L129.3 576C112.1 576 96.8 565 91.4 548.6L69.9 484.2C65.5 471.1 65.5 456.9 69.9 443.7L78.4 418.3C79.5 415 80 411.6 80 408.2L80 403.9C80 395.4 76.6 387.3 70.6 381.3L66.7 377.4C66 376.7 65.2 375.9 64.5 375.1L64 385C63.4 393.8 55.9 400.5 47 400C38.1 399.5 31.5 391.8 32 383L35.3 330C38.5 279.4 80.4 240 131.1 240L332.7 240L342.7 204.1L328.9 213.3C321.5 218.2 311.6 216.2 306.7 208.9C301.8 201.6 303.8 191.6 311.1 186.7L351.1 160L311.9 160C281 160 255.9 134.9 255.9 104L255.9 80C255.9 71.2 263.1 64 271.9 64zM380.3 188.2L360.3 260.3C358.4 267.2 352.1 272 344.9 272L136 272C105.1 272 80 297.1 80 328L80 332.1C80 340.6 83.4 348.7 89.4 354.7L93.3 358.6C105.3 370.6 112 386.9 112 403.9L112 408.2C112 415.1 110.9 421.9 108.7 428.4L100.2 453.8C98 460.4 98 467.5 100.2 474L121.7 538.4C122.8 541.7 125.8 543.9 129.3 543.9L158.7 543.9C164.2 543.9 168 538.5 166.3 533.4L154.7 498.6C146.6 474.3 155.8 447.5 177.1 433.3C185.3 427.9 189.5 418.2 187.9 408.5L184.2 386.6C183.2 380.3 185.9 374 191.3 370.5C196.7 367 203.6 367.1 208.9 370.6L222.6 379.8C242.3 393 265.5 400 289.2 400L320 400C328.8 400 336 407.2 336 416L336 536C336 540.4 339.6 544 344 544L376 544C380.4 544 384 540.4 384 536L384 375C384 368.8 384.9 362.6 386.7 356.6L408.7 283.3C410.7 276.5 417 271.9 424 271.9L488.4 271.9C501.4 271.9 512 261.3 512 248.3C512 242 509.5 236 505.1 231.6L444.7 171.2C437.5 164 427.7 159.9 417.5 159.9C400.2 159.9 385 171.4 380.4 188.1zM432 192C440.8 192 448 199.2 448 208C448 216.8 440.8 224 432 224C423.2 224 416 216.8 416 208C416 199.2 423.2 192 432 192zM568 208C568 199.2 560.8 192 552 192C543.2 192 536 199.2 536 208C536 216.8 543.2 224 552 224C560.8 224 568 216.8 568 208z"/></svg>