<svg xmlns="http://www.w3.org/2000/svg" viewBox="0 0 640 640"><!--! Font Awesome Pro 7.1.0 by @fontawesome - https://fontawesome.com License - https://fontawesome.com/license (Commercial License) Copyright 2025 Fonticons, Inc. --><path fill="currentColor" d="M320 80C320 71.2 312.8 64 304 64C295.2 64 288 71.2 288 80L288 104C288 134.9 313.1 160 344 160L383.2 160L343.2 186.7C335.8 191.6 333.9 201.5 338.8 208.9C343.7 216.3 353.6 218.2 361 213.3L374.8 204.1L364.8 240L163.2 240C112.5 240 70.5 279.4 67.4 330L64 383C63.4 391.8 70.2 399.4 79 400C87.8 400.6 95.4 393.8 96 385L96.6 375.1C97.3 375.9 98 376.6 98.8 377.4L102.7 381.3C108.7 387.3 112.1 395.4 112.1 403.9L112.1 408.2C112.1 411.6 111.5 415.1 110.5 418.3L102 443.7C97.6 456.8 97.6 471 102 484.2L123.5 548.6C128.8 565 144.1 576 161.3 576L190.7 576C218 576 237.3 549.3 228.6 523.4L217 488.6C213.4 477.9 217.5 466.2 226.8 460C242 449.9 251.2 433.2 252.1 415.4C273.4 426.3 297.1 432 321.1 432L335.9 432L335.9 536C335.9 558.1 353.8 576 375.9 576L407.9 576C430 576 447.9 558.1 447.9 536L447.9 375C447.9 371.9 448.4 368.8 449.3 365.8L467.9 304L520.4 304C551.1 304 576 279.1 576 248.4C576 233.7 570.1 219.5 559.7 209.1L504.8 154.2C523.3 145.1 536 126 536 104L536 80C536 71.2 528.8 64 520 64C511.2 64 504 71.2 504 80L504 104C504 117.3 493.3 128 480 128L410.6 128C414.1 120.7 416 112.6 416 104L416 80C416 71.2 408.8 64 400 64C391.2 64 384 71.2 384 80L384 104C384 117.3 373.3 128 360 128L344 128C330.7 128 320 117.3 320 104L320 80zM449.4 160C459.6 160 469.4 164.1 476.6 171.3L537 231.7C541.4 236.1 543.9 242.1 543.9 248.4C543.9 261.4 533.3 272 520.3 272L456 272C448.9 272 442.7 276.6 440.7 283.4L418.7 356.7C416.9 362.7 416 368.9 416 375.1L416 536.1C416 540.5 412.4 544.1 408 544.1L376 544.1C371.6 544.1 368 540.5 368 536.1L368 416.1C368 407.3 360.8 400.1 352 400.1L321.2 400.1C297.5 400.1 274.3 393.1 254.6 379.9L240.9 370.7C235.6 367.2 228.7 367.1 223.3 370.6C217.9 374.1 215.2 380.4 216.2 386.7L219.9 408.6C221.5 418.3 217.3 428 209.1 433.4C187.7 447.6 178.6 474.4 186.7 498.7L198.3 533.5C200 538.7 196.2 544 190.7 544L161.3 544C157.9 544 154.8 541.8 153.7 538.5L132.2 474.1C130 467.5 130 460.4 132.2 453.9L140.7 428.5C142.9 422 144 415.1 144 408.3L144 404C144 387 137.3 370.7 125.3 358.7L121.4 354.8C115.4 348.8 112 340.7 112 332.2L112 328.1C112 297.2 137.1 272.1 168 272.1L376.9 272.1C384.1 272.1 390.4 267.3 392.3 260.4L412.3 188.3C417 171.5 432.1 160 449.4 160zM480 208C480 199.2 472.8 192 464 192C455.2 192 448 199.2 448 208C448 216.8 455.2 224 464 224C472.8 224 480 216.8 480 208z"/></svg>