<svg xmlns="http://www.w3.org/2000/svg" viewBox="0 0 640 640"><!--! Font Awesome Pro 7.1.0 by @fontawesome - https://fontawesome.com License - https://fontawesome.com/license (Commercial License) Copyright 2025 Fonticons, Inc. --><path fill="currentColor" d="M90.6 106.6C88.8 111.8 88 116.9 88 120C88 129.5 94.2 139.6 103.3 148.7C109.2 154.6 109.6 164.1 104.1 170.5L43.7 240.4C36.1 249.2 32 260.3 32 271.8L32 277.2C32 300.8 51.1 319.9 74.7 319.9C84.7 319.9 94.4 316.4 102.1 310L133.8 283.6C137.9 280.2 143.3 279.1 148.4 280.5C153.5 281.9 157.5 285.8 159.2 290.8L190.2 383.9L544 383.9L544 271.9C544 245.4 522.6 224 496.1 223.9C476.4 223.9 403.5 223.9 277.5 223.9C264.5 223.9 252.1 218.7 243.1 209.4L194.4 159.4C189 153.9 188.3 145.3 192.8 139C197.5 132.4 200 125.9 200 119.9C200 116.7 199.2 111.6 197.4 106.5C196.3 103.4 195.1 101 194 99.2C193.8 99.4 193.6 99.5 193.3 99.7L155.7 131.4C153.4 133.3 150.6 134.6 147.7 135C147.1 135.1 146.6 135.2 146 135.3C141.3 136.2 136.4 134.9 132.7 131.8L94.6 99.8C94.4 99.6 94.1 99.4 93.9 99.3C92.8 101.1 91.6 103.6 90.5 106.6zM563.9 229.6C571.6 241.9 576.1 256.4 576.1 272L576.1 528C576.1 554.5 554.6 576 528.1 576L480.1 576C453.6 576 432.1 554.5 432.1 528L432.1 480L304.1 480L304.1 528C304.1 554.5 282.6 576 256.1 576L208.1 576C181.6 576 160.1 554.5 160.1 528L160.1 394.6L136.3 323.3L122.6 334.7C109.1 345.9 92.2 352 74.7 352C33.5 352 0 318.5 0 277.3L0 271.9C0 252.7 6.9 234.1 19.5 219.6L70.8 160.1C62.9 149.6 56 136 56 120C56 112.8 57.6 104.1 60.3 96.1C63 88.3 67.5 79.2 74.7 72.6C82.3 65.6 91.6 65 98.7 66.6C105.4 68.1 111.1 71.8 115.2 75.2L144 99.5L172.8 75.3C176.9 71.9 182.6 68.2 189.3 66.7C196.5 65 205.7 65.7 213.3 72.7C220.5 79.3 225 88.4 227.7 96.2C230.5 104.2 232 112.8 232 120.1C232 129.7 229.5 138.4 225.9 146L266 187.2C269 190.3 273.1 192 277.5 192L496 192L496.2 192L536 192C593.4 192 640 238.6 640 296C640 304.8 632.8 312 624 312C615.2 312 608 304.8 608 296C608 266.1 589.8 240.5 563.8 229.6zM192 528C192 536.8 199.2 544 208 544L256 544C264.8 544 272 536.8 272 528L272 464C272 455.2 279.2 448 288 448L448 448C456.8 448 464 455.2 464 464L464 528C464 536.8 471.2 544 480 544L528 544C536.8 544 544 536.8 544 528L544 416L192 416L192 528zM272 280C285.3 280 296 290.7 296 304C296 317.3 285.3 328 272 328C258.7 328 248 317.3 248 304C248 290.7 258.7 280 272 280zM368 280C381.3 280 392 290.7 392 304C392 317.3 381.3 328 368 328C354.7 328 344 317.3 344 304C344 290.7 354.7 280 368 280zM440 304C440 290.7 450.7 280 464 280C477.3 280 488 290.7 488 304C488 317.3 477.3 328 464 328C450.7 328 440 317.3 440 304z"/></svg>