<svg xmlns="http://www.w3.org/2000/svg" viewBox="0 0 640 640"><!--! Font Awesome Pro 7.1.0 by @fontawesome - https://fontawesome.com License - https://fontawesome.com/license (Commercial License) Copyright 2025 Fonticons, Inc. --><path fill="currentColor" d="M336 80L336 249.4L388.7 196.7C394.9 190.5 405.1 190.5 411.3 196.7C417.5 202.9 417.5 213.1 411.3 219.3L331.3 299.3C325.1 305.5 314.9 305.5 308.7 299.3L228.7 219.3C222.5 213.1 222.5 202.9 228.7 196.7C234.9 190.5 245.1 190.5 251.3 196.7L304 249.4L304 80C304 71.2 311.2 64 320 64C328.8 64 336 71.2 336 80zM128 96L256 96L256 128L128 128C110.3 128 96 142.3 96 160L96 352L544 352L544 160C544 142.3 529.7 128 512 128L384 128L384 96L512 96C547.3 96 576 124.7 576 160L576 416C576 451.3 547.3 480 512 480L394.9 480L405.6 544L464 544C472.8 544 480 551.2 480 560C480 568.8 472.8 576 464 576L176 576C167.2 576 160 568.8 160 560C160 551.2 167.2 544 176 544L234.4 544L245.1 480L128 480C92.7 480 64 451.3 64 416L64 160C64 124.7 92.7 96 128 96zM544 416L544 384L96 384L96 416C96 433.7 110.3 448 128 448L512 448C529.7 448 544 433.7 544 416zM266.9 544L373.1 544L362.4 480L277.5 480L266.8 544z"/></svg>