<svg xmlns="http://www.w3.org/2000/svg" viewBox="0 0 640 640"><!--! Font Awesome Pro 7.1.0 by @fontawesome - https://fontawesome.com License - https://fontawesome.com/license (Commercial License) Copyright 2025 Fonticons, Inc. --><path fill="currentColor" d="M512 128L128 128C110.3 128 96 142.3 96 160L96 416C96 433.7 110.3 448 128 448L512 448C529.7 448 544 433.7 544 416L544 160C544 142.3 529.7 128 512 128zM128 96L512 96C547.3 96 576 124.7 576 160L576 416C576 451.3 547.3 480 512 480L394.9 480L405.6 544L464 544C472.8 544 480 551.2 480 560C480 568.8 472.8 576 464 576L176 576C167.2 576 160 568.8 160 560C160 551.2 167.2 544 176 544L234.4 544L245.1 480L128 480C92.7 480 64 451.3 64 416L64 160C64 124.7 92.7 96 128 96zM277.6 480L266.9 544L373.1 544L362.4 480L277.5 480zM283.4 235.3L230.7 288L283.4 340.7C289.6 346.9 289.6 357.1 283.4 363.3C277.2 369.5 267 369.5 260.8 363.3L196.8 299.3C190.6 293.1 190.6 282.9 196.8 276.7L260.8 212.7C267 206.5 277.2 206.5 283.4 212.7C289.6 218.9 289.6 229.1 283.4 235.3zM379.4 212.7L443.4 276.7C449.6 282.9 449.6 293.1 443.4 299.3L379.4 363.3C373.2 369.5 363 369.5 356.8 363.3C350.6 357.1 350.6 346.9 356.8 340.7L409.5 288L356.8 235.3C350.6 229.1 350.6 218.9 356.8 212.7C363 206.5 373.2 206.5 379.4 212.7z"/></svg>