<svg xmlns="http://www.w3.org/2000/svg" viewBox="0 0 640 640"><!--! Font Awesome Pro 7.1.0 by @fontawesome - https://fontawesome.com License - https://fontawesome.com/license (Commercial License) Copyright 2025 Fonticons, Inc. --><path fill="currentColor" d="M384 160C379 160 374.2 162.4 371.2 166.4L294.4 268.8C285.3 280.9 271.1 288 256 288L48 288C39.2 288 32 280.8 32 272C32 263.2 39.2 256 48 256L256 256C261 256 265.8 253.6 268.8 249.6L345.6 147.2C354.7 135.1 368.9 128 384 128L560 128C568.8 128 576 135.2 576 144C576 152.8 568.8 160 560 160L384 160zM238.5 384L307.1 473.7C310.1 477.7 314.8 480 319.8 480L560 480C568.8 480 576 487.2 576 496C576 504.8 568.8 512 560 512L319.8 512C304.8 512 290.8 505 281.7 493.2L198.2 384L48 384C39.2 384 32 376.8 32 368C32 359.2 39.2 352 48 352L210.5 352L212.7 350.3L214 352L560 352C568.8 352 576 359.2 576 368C576 376.8 568.8 384 560 384L238.5 384z"/></svg>