<svg xmlns="http://www.w3.org/2000/svg" viewBox="0 0 640 640"><!--! Font Awesome Pro 7.1.0 by @fontawesome - https://fontawesome.com License - https://fontawesome.com/license (Commercial License) Copyright 2025 Fonticons, Inc. --><path fill="currentColor" d="M388.7 196.7C394.9 190.5 405.1 190.5 411.3 196.7L448 233.4L448 160C448 142.3 433.7 128 416 128L311.4 128C316.8 137.4 320 148.3 320 160L320 224C320 259.3 291.3 288 256 288L160 288C124.7 288 96 259.3 96 224L96 160C96 124.7 124.7 96 160 96L416 96C451.3 96 480 124.7 480 160L480 233.4L516.7 196.7C522.9 190.5 533.1 190.5 539.3 196.7C545.5 202.9 545.5 213.1 539.3 219.3L475.3 283.3C469.1 289.5 458.9 289.5 452.7 283.3L388.7 219.3C382.5 213.1 382.5 202.9 388.7 196.7zM512 416C512 398.3 497.7 384 480 384L160 384C142.3 384 128 398.3 128 416L128 480C128 497.7 142.3 512 160 512L480 512C497.7 512 512 497.7 512 480L512 416zM544 480C544 515.3 515.3 544 480 544L160 544C124.7 544 96 515.3 96 480L96 416C96 380.7 124.7 352 160 352L480 352C515.3 352 544 380.7 544 416L544 480zM288 224L288 160C288 142.3 273.7 128 256 128L160 128C142.3 128 128 142.3 128 160L128 224C128 241.7 142.3 256 160 256L256 256C273.7 256 288 241.7 288 224zM192 432L448 432C456.8 432 464 439.2 464 448C464 456.8 456.8 464 448 464L192 464C183.2 464 176 456.8 176 448C176 439.2 183.2 432 192 432z"/></svg>