<svg xmlns="http://www.w3.org/2000/svg" viewBox="0 0 640 640"><!--! Font Awesome Pro 7.1.0 by @fontawesome - https://fontawesome.com License - https://fontawesome.com/license (Commercial License) Copyright 2025 Fonticons, Inc. --><path fill="currentColor" d="M480 128L480 352L576 352L576 160C576 142.3 561.7 128 544 128L480 128zM448 128L384 128L384 232L448 232L448 128zM352 128L288 128L288 352L352 352L352 128zM256 128L192 128L192 232L256 232L256 128zM160 128L96 128C78.3 128 64 142.3 64 160L64 352L160 352L160 128zM64 384L64 480C64 497.7 78.3 512 96 512L304 512L304 384L64 384zM336 512L544 512C561.7 512 576 497.7 576 480L576 384L336 384L336 512zM32 160C32 124.7 60.7 96 96 96L544 96C579.3 96 608 124.7 608 160L608 480C608 515.3 579.3 544 544 544L96 544C60.7 544 32 515.3 32 480L32 160zM256 352L256 264L192 264L192 352L256 352zM448 264L384 264L384 352L448 352L448 264z"/></svg>