<svg xmlns="http://www.w3.org/2000/svg" viewBox="0 0 640 640"><!--! Font Awesome Pro 7.1.0 by @fontawesome - https://fontawesome.com License - https://fontawesome.com/license (Commercial License) Copyright 2025 Fonticons, Inc. --><path fill="currentColor" d="M480 288C515.3 288 544 259.3 544 224L544 160C544 124.7 515.3 96 480 96L160 96C124.7 96 96 124.7 96 160L96 224C96 259.3 124.7 288 160 288L194 288C191.3 277.5 191.3 266.5 194 256L160 256C142.3 256 128 241.7 128 224L128 160C128 142.3 142.3 128 160 128L480 128C497.7 128 512 142.3 512 160L512 224C512 241.7 497.7 256 480 256L446 256C448.7 266.5 448.7 277.5 446 288L480 288zM128 416C128 398.3 142.3 384 160 384L480 384C497.7 384 512 398.3 512 416L512 480C512 497.7 497.7 512 480 512L160 512C142.3 512 128 497.7 128 480L128 416zM160 352C124.7 352 96 380.7 96 416L96 480C96 515.3 124.7 544 160 544L480 544C515.3 544 544 515.3 544 480L544 416C544 380.7 515.3 352 480 352L336 352L336 246.6L372.7 283.3C378.9 289.5 389.1 289.5 395.3 283.3C401.5 277.1 401.5 266.9 395.3 260.7L331.3 196.7C325.1 190.5 314.9 190.5 308.7 196.7L244.7 260.7C238.5 266.9 238.5 277.1 244.7 283.3C250.9 289.5 261.1 289.5 267.3 283.3L304 246.6L304 352L160 352z"/></svg>