<svg xmlns="http://www.w3.org/2000/svg" viewBox="0 0 640 640"><!--! Font Awesome Pro 7.1.0 by @fontawesome - https://fontawesome.com License - https://fontawesome.com/license (Commercial License) Copyright 2025 Fonticons, Inc. --><path fill="currentColor" d="M224 512C118 512 32 426 32 320C32 214 118 128 224 128C245.5 128 266.1 131.5 285.4 138C228.9 178.7 192 245 192 320C192 395 228.8 461.3 285.4 502C266.1 508.5 245.5 512 224 512zM224.7 336L415.4 336C414 352.7 410.5 368.8 405.1 384L234.9 384C229.5 368.8 226 352.7 224.6 336zM390.4 416C373.5 445.1 349.2 469.5 320.1 486.3C291 469.4 266.6 445.1 249.8 416L390.4 416zM224.7 304C226.1 287.3 229.6 271.2 235 256L405.2 256C410.6 271.2 414.1 287.3 415.5 304L224.8 304zM249.7 224C266.6 194.9 290.9 170.5 320 153.7C349.1 170.6 373.5 194.9 390.3 224L249.7 224zM224 544C258.4 544 290.9 536.3 320 522.4C349.1 536.2 381.6 544 416 544C539.7 544 640 443.7 640 320C640 196.3 539.7 96 416 96C381.6 96 349.1 103.7 320 117.6C290.9 103.7 258.4 96 224 96C100.3 96 0 196.3 0 320C0 443.7 100.3 544 224 544zM416 128C522 128 608 214 608 320C608 426 522 512 416 512C394.5 512 373.9 508.5 354.6 502C411.1 461.3 448 395 448 320C448 245 411.2 178.7 354.6 138C373.9 131.5 394.5 128 416 128z"/></svg>