<svg xmlns="http://www.w3.org/2000/svg" viewBox="0 0 640 640"><!--! Font Awesome Pro 7.1.0 by @fontawesome - https://fontawesome.com License - https://fontawesome.com/license (Commercial License) Copyright 2025 Fonticons, Inc. --><path fill="currentColor" d="M320 120C333.3 120 344 109.3 344 96C344 82.7 333.3 72 320 72C306.7 72 296 82.7 296 96C296 109.3 306.7 120 320 120zM320 368L447 368C439.1 431.1 385.3 480 320 480C249.3 480 192 422.7 192 352C192 281.3 249.3 224 320 224C385.3 224 439.1 272.9 447 336L320 336C311.2 336 304 343.2 304 352C304 360.8 311.2 368 320 368zM480 352C480 263.6 408.4 192 320 192C231.6 192 160 263.6 160 352C160 440.4 231.6 512 320 512C408.4 512 480 440.4 480 352zM600 352C600 338.7 589.3 328 576 328C562.7 328 552 338.7 552 352C552 365.3 562.7 376 576 376C589.3 376 600 365.3 600 352zM64 376C77.3 376 88 365.3 88 352C88 338.7 77.3 328 64 328C50.7 328 40 338.7 40 352C40 365.3 50.7 376 64 376zM152 160C152 146.7 141.3 136 128 136C114.7 136 104 146.7 104 160C104 173.3 114.7 184 128 184C141.3 184 152 173.3 152 160zM512 184C525.3 184 536 173.3 536 160C536 146.7 525.3 136 512 136C498.7 136 488 146.7 488 160C488 173.3 498.7 184 512 184zM152 544C152 530.7 141.3 520 128 520C114.7 520 104 530.7 104 544C104 557.3 114.7 568 128 568C141.3 568 152 557.3 152 544zM512 568C525.3 568 536 557.3 536 544C536 530.7 525.3 520 512 520C498.7 520 488 530.7 488 544C488 557.3 498.7 568 512 568z"/></svg>