<svg xmlns="http://www.w3.org/2000/svg" viewBox="0 0 640 640"><!--! Font Awesome Pro 7.1.0 by @fontawesome - https://fontawesome.com License - https://fontawesome.com/license (Commercial License) Copyright 2025 Fonticons, Inc. --><path fill="currentColor" d="M320 120C333.3 120 344 109.3 344 96C344 82.7 333.3 72 320 72C306.7 72 296 82.7 296 96C296 109.3 306.7 120 320 120zM308.7 363.3L398.5 453.1C348.3 492.2 275.7 488.6 229.5 442.5C179.5 392.5 179.5 311.5 229.5 261.5C279.5 211.5 360.5 211.5 410.5 261.5C456.7 307.7 460.2 380.3 421.1 430.5L331.3 340.7C325.1 334.5 314.9 334.5 308.7 340.7C302.5 346.9 302.5 357.1 308.7 363.3zM433.1 465.1C475.2 425.1 492.4 365.3 477.8 309C463.2 252.7 419.3 208.8 363 194.2C306.7 179.6 246.9 196.8 206.9 238.9C164.8 278.9 147.6 338.7 162.2 395C176.8 451.3 220.7 495.2 277 509.8C333.3 524.4 393.1 507.2 433.1 465.1zM600 352C600 338.7 589.3 328 576 328C562.7 328 552 338.7 552 352C552 365.3 562.7 376 576 376C589.3 376 600 365.3 600 352zM64 376C77.3 376 88 365.3 88 352C88 338.7 77.3 328 64 328C50.7 328 40 338.7 40 352C40 365.3 50.7 376 64 376zM152 160C152 146.7 141.3 136 128 136C114.7 136 104 146.7 104 160C104 173.3 114.7 184 128 184C141.3 184 152 173.3 152 160zM512 184C525.3 184 536 173.3 536 160C536 146.7 525.3 136 512 136C498.7 136 488 146.7 488 160C488 173.3 498.7 184 512 184zM152 544C152 530.7 141.3 520 128 520C114.7 520 104 530.7 104 544C104 557.3 114.7 568 128 568C141.3 568 152 557.3 152 544zM512 568C525.3 568 536 557.3 536 544C536 530.7 525.3 520 512 520C498.7 520 488 530.7 488 544C488 557.3 498.7 568 512 568z"/></svg>