<svg xmlns="http://www.w3.org/2000/svg" viewBox="0 0 640 640"><!--! Font Awesome Pro 7.1.0 by @fontawesome - https://fontawesome.com License - https://fontawesome.com/license (Commercial License) Copyright 2025 Fonticons, Inc. --><path fill="currentColor" d="M200 112C200 98.7 189.3 88 176 88C162.7 88 152 98.7 152 112C152 125.3 162.7 136 176 136C189.3 136 200 125.3 200 112zM120 112C120 81.1 145.1 56 176 56C206.9 56 232 81.1 232 112C232 142.9 206.9 168 176 168C145.1 168 120 142.9 120 112zM488 112C488 98.7 477.3 88 464 88C450.7 88 440 98.7 440 112C440 125.3 450.7 136 464 136C477.3 136 488 125.3 488 112zM408 112C408 81.1 433.1 56 464 56C494.9 56 520 81.1 520 112C520 142.9 494.9 168 464 168C433.1 168 408 142.9 408 112zM320 136C333.3 136 344 125.3 344 112C344 98.7 333.3 88 320 88C306.7 88 296 98.7 296 112C296 125.3 306.7 136 320 136zM320 56C350.9 56 376 81.1 376 112C376 142.9 350.9 168 320 168C289.1 168 264 142.9 264 112C264 81.1 289.1 56 320 56zM200 256C200 242.7 189.3 232 176 232C162.7 232 152 242.7 152 256C152 269.3 162.7 280 176 280C189.3 280 200 269.3 200 256zM120 256C120 225.1 145.1 200 176 200C206.9 200 232 225.1 232 256C232 286.9 206.9 312 176 312C145.1 312 120 286.9 120 256zM464 280C477.3 280 488 269.3 488 256C488 242.7 477.3 232 464 232C450.7 232 440 242.7 440 256C440 269.3 450.7 280 464 280zM464 200C494.9 200 520 225.1 520 256C520 286.9 494.9 312 464 312C433.1 312 408 286.9 408 256C408 225.1 433.1 200 464 200zM344 256C344 242.7 333.3 232 320 232C306.7 232 296 242.7 296 256C296 269.3 306.7 280 320 280C333.3 280 344 269.3 344 256zM264 256C264 225.1 289.1 200 320 200C350.9 200 376 225.1 376 256C376 286.9 350.9 312 320 312C289.1 312 264 286.9 264 256zM176 424C189.3 424 200 413.3 200 400C200 386.7 189.3 376 176 376C162.7 376 152 386.7 152 400C152 413.3 162.7 424 176 424zM176 344C206.9 344 232 369.1 232 400C232 430.9 206.9 456 176 456C145.1 456 120 430.9 120 400C120 369.1 145.1 344 176 344zM488 400C488 386.7 477.3 376 464 376C450.7 376 440 386.7 440 400C440 413.3 450.7 424 464 424C477.3 424 488 413.3 488 400zM408 400C408 369.1 433.1 344 464 344C494.9 344 520 369.1 520 400C520 430.9 494.9 456 464 456C433.1 456 408 430.9 408 400zM320 424C333.3 424 344 413.3 344 400C344 386.7 333.3 376 320 376C306.7 376 296 386.7 296 400C296 413.3 306.7 424 320 424zM320 344C350.9 344 376 369.1 376 400C376 430.9 350.9 456 320 456C289.1 456 264 430.9 264 400C264 369.1 289.1 344 320 344zM344 544C344 530.7 333.3 520 320 520C306.7 520 296 530.7 296 544C296 557.3 306.7 568 320 568C333.3 568 344 557.3 344 544zM376 544C376 574.9 350.9 600 320 600C289.1 600 264 574.9 264 544C264 513.1 289.1 488 320 488C350.9 488 376 513.1 376 544z"/></svg>