<svg xmlns="http://www.w3.org/2000/svg" viewBox="0 0 640 640"><!--! Font Awesome Pro 7.1.0 by @fontawesome - https://fontawesome.com License - https://fontawesome.com/license (Commercial License) Copyright 2025 Fonticons, Inc. --><path fill="currentColor" d="M81 361C70.1 350.1 64 335.4 64 320C64 304.6 70.1 289.9 81 279L279 81C289.9 70.1 304.6 64 320 64C335.4 64 350.1 70.1 361 81L559 279C569.9 289.9 576 304.6 576 320C576 335.4 569.9 350.1 559 361L361 559C350.1 569.9 335.4 576 320 576C304.6 576 289.9 569.9 279 559L81 361zM336 101.5L336 538.5C336.8 537.9 337.6 537.2 338.3 536.4L536.4 338.3C541.3 333.4 544 326.8 544 320C544 313.2 541.3 306.5 536.4 301.7L338.3 103.6C337.6 102.9 336.8 102.2 336 101.5zM304 538.5L304 101.5C303.2 102.1 302.4 102.8 301.7 103.6L103.6 301.7C98.7 306.5 96 313.1 96 320C96 326.9 98.7 333.5 103.6 338.3L301.7 536.4C302.4 537.1 303.2 537.8 304 538.5z"/></svg>