<svg xmlns="http://www.w3.org/2000/svg" viewBox="0 0 640 640"><!--! Font Awesome Pro 7.1.0 by @fontawesome - https://fontawesome.com License - https://fontawesome.com/license (Commercial License) Copyright 2025 Fonticons, Inc. --><path fill="currentColor" d="M81 279L129.1 230.9C147.8 212.2 178.2 212.2 197 230.9L252.1 286C270.8 304.7 270.8 335.1 252.1 353.9L197 409.1C178.3 427.8 147.9 427.8 129.1 409.1L81 361C70.1 350.1 64 335.4 64 320C64 304.6 70.1 289.9 81 279zM103.6 338.3L151.7 386.4C157.9 392.6 168.1 392.6 174.3 386.4L229.4 331.3C235.6 325.1 235.6 314.9 229.4 308.7L174.3 253.6C168.1 247.4 157.9 247.4 151.7 253.6L103.6 301.7C98.7 306.5 96 313.1 96 320C96 326.9 98.7 333.5 103.6 338.3zM230.9 443C212.2 461.7 212.2 492.1 230.9 510.9L279 559C289.9 569.9 304.6 576 320 576C335.4 576 350.1 569.9 361 559L409.1 510.9C427.8 492.2 427.8 461.8 409.1 443L354 387.9C335.3 369.2 304.9 369.2 286.1 387.9L230.9 443zM308.7 410.5C314.9 404.3 325.1 404.3 331.3 410.5L386.4 465.6C392.6 471.8 392.6 482 386.4 488.2L338.3 536.3C333.4 541.2 326.8 543.9 320 543.9C313.2 543.9 306.5 541.2 301.7 536.3L253.6 488.2C247.4 482 247.4 471.8 253.6 465.6L308.7 410.5zM443 230.9C461.7 212.2 492.1 212.2 510.9 230.9L559 279C569.9 289.9 576 304.6 576 320C576 335.4 569.9 350.1 559 361L510.9 409.1C492.2 427.8 461.8 427.8 443 409.1L387.9 354C369.2 335.3 369.2 304.9 387.9 286.1L443 230.9zM465.6 253.5L410.5 308.6C404.3 314.8 404.3 325 410.5 331.2L465.6 386.3C471.8 392.5 482 392.5 488.2 386.3L536.3 338.2C541.2 333.3 543.9 326.7 543.9 319.9C543.9 313.1 541.2 306.4 536.3 301.6L488.2 253.5C482 247.3 471.8 247.3 465.6 253.5zM409.1 129.1L361 81C350.1 70.1 335.4 64 320 64C304.6 64 289.9 70.1 279 81L230.9 129.1C212.2 147.8 212.2 178.2 230.9 197L286 252.1C304.7 270.8 335.1 270.8 353.9 252.1L409.1 197C427.8 178.3 427.8 147.9 409.1 129.1zM253.5 174.3C247.3 168.1 247.3 157.9 253.5 151.7L301.6 103.6C306.5 98.7 313.1 96 319.9 96C326.7 96 333.4 98.7 338.2 103.6L386.3 151.7C392.5 157.9 392.5 168.1 386.3 174.3L331.2 229.4C325 235.6 314.8 235.6 308.6 229.4L253.5 174.3z"/></svg>