<svg xmlns="http://www.w3.org/2000/svg" viewBox="0 0 640 640"><!--! Font Awesome Pro 7.1.0 by @fontawesome - https://fontawesome.com License - https://fontawesome.com/license (Commercial License) Copyright 2025 Fonticons, Inc. --><path fill="currentColor" d="M320 64C335.4 64 350.1 70.1 361 81L559 279C569.9 289.9 576 304.6 576 320C576 335.4 569.9 350.1 559 361L361 559C350.1 569.9 335.4 576 320 576C304.6 576 289.9 569.9 279 559L81 361C70.1 350.1 64 335.4 64 320C64 304.6 70.1 289.9 81 279L279 81C289.9 70.1 304.6 64 320 64zM320 96C313.1 96 306.5 98.7 301.7 103.6L103.6 301.7C98.7 306.5 96 313.1 96 320C96 326.9 98.7 333.5 103.6 338.3L301.7 536.4C306.6 541.3 313.2 544 320 544C326.8 544 333.5 541.3 338.3 536.4L536.4 338.3C541.3 333.4 544 326.8 544 320C544 313.2 541.3 306.5 536.4 301.7L338.3 103.6C333.5 98.7 326.9 96 320 96zM320 448C306.7 448 296 437.3 296 424C296 410.7 306.7 400 320 400C333.3 400 344 410.7 344 424C344 437.3 333.3 448 320 448zM320 192C333.5 192 344.3 203.4 343.5 216.9L335.9 352.9C335.4 361.4 328.4 368 319.9 368C311.4 368 304.4 361.4 303.9 352.9L296.3 216.9C295.5 203.4 306.3 192 319.8 192z"/></svg>