<svg xmlns="http://www.w3.org/2000/svg" viewBox="0 0 640 640"><!--! Font Awesome Pro 7.1.0 by @fontawesome - https://fontawesome.com License - https://fontawesome.com/license (Commercial License) Copyright 2025 Fonticons, Inc. --><path fill="currentColor" d="M64 320C64 335.4 70.1 350.1 81 361L279 559C289.9 569.9 304.6 576 320 576C335.4 576 350.1 569.9 361 559L559 361C569.9 350.1 576 335.4 576 320C576 304.6 569.9 289.9 559 279L361 81C350.1 70.1 335.4 64 320 64C304.6 64 289.9 70.1 279 81L81 279C70.1 289.9 64 304.6 64 320zM320 96C326.9 96 333.5 98.7 338.3 103.6L536.4 301.7C541.3 306.6 544 313.2 544 320C544 326.8 541.3 333.5 536.4 338.3L338.3 536.4C333.4 541.3 326.8 544 320 544C313.2 544 306.5 541.3 301.7 536.4L103.6 338.3C98.7 333.5 96 326.9 96 320C96 313.1 98.7 306.5 103.6 301.7L301.7 103.6C306.6 98.7 313.2 96 320 96z"/></svg>