<svg xmlns="http://www.w3.org/2000/svg" viewBox="0 0 640 640"><!--! Font Awesome Pro 7.1.0 by @fontawesome - https://fontawesome.com License - https://fontawesome.com/license (Commercial License) Copyright 2025 Fonticons, Inc. --><path fill="currentColor" d="M312.9 69.9C317.3 72.9 320 77.9 320 83.2L320 556.9C320 562.2 317.3 567.2 312.9 570.2C308.5 573.2 302.8 573.7 297.9 571.7C290.9 568.8 284.5 564.6 279 559.1L81 361C70.1 350.1 64 335.4 64 320C64 304.6 70.1 289.9 81 279L279 81C284.5 75.5 290.9 71.3 297.9 68.4C302.8 66.4 308.5 66.9 312.9 69.9zM288 117.3L103.6 301.7C98.7 306.5 96 313.1 96 320C96 326.9 98.7 333.5 103.6 338.3L103.6 338.3L288 522.7L288 117.2z"/></svg>