<svg xmlns="http://www.w3.org/2000/svg" viewBox="0 0 640 640"><!--! Font Awesome Pro 7.1.0 by @fontawesome - https://fontawesome.com License - https://fontawesome.com/license (Commercial License) Copyright 2025 Fonticons, Inc. --><path fill="currentColor" d="M480 128C497.7 128 512 142.3 512 160L512 480C512 497.7 497.7 512 480 512L160 512C142.3 512 128 497.7 128 480L128 160C128 142.3 142.3 128 160 128L480 128zM160 96C124.7 96 96 124.7 96 160L96 480C96 515.3 124.7 544 160 544L480 544C515.3 544 544 515.3 544 480L544 160C544 124.7 515.3 96 480 96L160 96zM248 224C248 210.7 237.3 200 224 200C210.7 200 200 210.7 200 224C200 237.3 210.7 248 224 248C237.3 248 248 237.3 248 224zM416 248C429.3 248 440 237.3 440 224C440 210.7 429.3 200 416 200C402.7 200 392 210.7 392 224C392 237.3 402.7 248 416 248zM440 416C440 402.7 429.3 392 416 392C402.7 392 392 402.7 392 416C392 429.3 402.7 440 416 440C429.3 440 440 429.3 440 416zM224 440C237.3 440 248 429.3 248 416C248 402.7 237.3 392 224 392C210.7 392 200 402.7 200 416C200 429.3 210.7 440 224 440z"/></svg>