<svg xmlns="http://www.w3.org/2000/svg" viewBox="0 0 640 640"><!--! Font Awesome Pro 7.1.0 by @fontawesome - https://fontawesome.com License - https://fontawesome.com/license (Commercial License) Copyright 2025 Fonticons, Inc. --><path fill="currentColor" d="M292.2 53.8C309.8 45.3 330.3 45.3 347.9 53.8L351.6 55.8L543.6 164.6C562.4 175.3 574.4 194.6 575.9 216L576.1 220.3L576.1 435.8C576.1 457.4 565.2 477.5 547.3 489.2L543.6 491.4L351.6 600.2C332 611.3 308 611.3 288.5 600.2L96.4 491.5C76.4 480.1 64 458.8 64 435.8L64 220.3L64.2 216C65.6 194.6 77.7 175.3 96.5 164.6L288.5 55.8L292.2 53.8zM304 572.3L304 496L137.9 478.1L304 572.3zM336 495.9L336 572.2L502.1 478.1L336 495.9zM108.6 442.8L290.5 462.3L199.1 302.7L108.5 442.8zM349.4 462.3L531.3 442.8L440.7 302.7L349.3 462.3zM320 449.4L412.4 288L227.6 288L320 449.4zM96 220.2L96 403.4L178.2 276.1L96 218C96 218.7 95.9 219.4 95.9 220.1zM461.8 276.1L544 403.3L544 220.2C544 219.5 543.9 218.8 543.8 218.1L461.7 276.1zM227.7 256L412.4 256L320 95.5L227.7 256zM113.8 191.5L194.9 248.8L283.1 95.6L113.9 191.5zM445.1 248.8L526.2 191.5L357 95.6L445.1 248.8z"/></svg>