<svg xmlns="http://www.w3.org/2000/svg" viewBox="0 0 640 640"><!--! Font Awesome Pro 7.1.0 by @fontawesome - https://fontawesome.com License - https://fontawesome.com/license (Commercial License) Copyright 2025 Fonticons, Inc. --><path fill="currentColor" d="M285.2 68.8C304.1 48.8 336 48.8 354.9 68.8L575 301.1C593.2 320.4 592.4 350.8 573.1 369L353 576.9L349.4 580C332.1 593.4 307.9 593.4 290.6 580L287.1 576.9L67 369C49 351.9 47.1 324.1 62 304.8L65.2 301L285.3 68.7zM304 548.9L304 397.2L100.1 356.4L304 548.9zM336 397.2L336 548.9L539.8 356.4L336 397.2zM89.7 321.6L304 364.5L304 95.4L89.7 321.6zM336 364.5L550.3 321.6L336 95.4L336 364.5z"/></svg>