<svg xmlns="http://www.w3.org/2000/svg" viewBox="0 0 640 640"><!--! Font Awesome Pro 7.1.0 by @fontawesome - https://fontawesome.com License - https://fontawesome.com/license (Commercial License) Copyright 2025 Fonticons, Inc. --><path fill="currentColor" d="M280.8 68.3C305.4 54.3 335.6 54.3 360.1 68.3L520.1 159.7C543.5 173 558.4 197.2 560.2 223.8L560.4 229.2L560.4 410.9C560.4 439.6 545 466.1 520.1 480.4L360.1 571.8C335.5 585.8 305.3 585.8 280.8 571.8L120.8 480.4C95.9 466.2 80.5 439.7 80.5 411L80.5 229.2C80.5 200.5 95.9 174 120.8 159.8L280.8 68.4zM113.4 220.1C112.8 223.1 112.5 226.1 112.5 229.2L112.5 411C112.5 428.2 121.8 444.1 136.7 452.7L296.7 544.1C299.2 545.5 301.9 546.6 304.5 547.6L304.5 329.4L113.4 220.2zM336.4 329.3L336.4 547.5C339.1 546.6 341.7 545.5 344.2 544L504.2 452.6C519.2 444.1 528.4 428.1 528.4 410.9L528.4 229.2L528 222.8C527.9 221.9 527.6 221 527.5 220.1L336.4 329.3zM344.3 96C329.5 87.6 311.4 87.6 296.6 96L136.6 187.4C134 188.9 131.7 190.6 129.5 192.5L320.5 301.6L511.4 192.5C509.2 190.6 506.9 188.9 504.3 187.5L344.3 96z"/></svg>