<svg xmlns="http://www.w3.org/2000/svg" viewBox="0 0 640 640"><!--! Font Awesome Pro 7.1.0 by @fontawesome - https://fontawesome.com License - https://fontawesome.com/license (Commercial License) Copyright 2025 Fonticons, Inc. --><path fill="currentColor" d="M283.8 75C303 52.5 337.8 52.5 356.9 75L562.8 317.2C579.4 336.7 577.8 365.7 559.1 383.3L353.2 577.1L349.6 580.2C332.4 593.5 308.2 593.5 291 580.2L287.5 577L81.6 383.3C64.2 366.8 61.7 340.3 75 321L78 317.2L283.8 75zM110.2 366.2L304.4 548.9L304.4 416.8L212.3 360.1L110.2 366.1zM336.4 416.9L336.4 549L530.5 366.3L428.4 360.3L336.3 417zM236.2 337.4L320.4 389.2L404.6 337.4L320.4 123.7L236.2 337.4zM105.3 334.5L205.3 328.6L287.4 120.3L105.4 334.5zM435.6 328.6L535.6 334.5L353.6 120.3L435.7 328.6z"/></svg>