<svg xmlns="http://www.w3.org/2000/svg" viewBox="0 0 640 640"><!--! Font Awesome Pro 7.1.0 by @fontawesome - https://fontawesome.com License - https://fontawesome.com/license (Commercial License) Copyright 2025 Fonticons, Inc. --><path fill="currentColor" d="M375.7 64.1C385.5 64.7 395 67.6 403.5 72.5L492.6 124C502.3 129.6 510.4 137.7 516 147.4L567.5 236.5C573.1 246.2 576.1 257.3 576.1 268.5L576.1 371.4L576 375.6C575.4 385.4 572.5 394.9 567.6 403.4L516.1 492.5L513.9 496.1C508.5 504.2 501.2 511 492.7 515.9L403.6 567.4L399.9 569.4C392.4 573.1 384.2 575.3 375.8 575.9L371.6 576L268.7 576L264.5 575.9C256.1 575.3 247.9 573.1 240.4 569.4L236.7 567.4L147.6 515.9C139.1 511 131.9 504.2 126.4 496.1L124 492.6L72.6 403.4C67.7 394.9 64.8 385.4 64.2 375.6L64 371.4L64 268.6C64 258.8 66.3 249.1 70.6 240.3L72.6 236.6L124.1 147.5C129 139 135.8 131.8 143.9 126.3L147.4 124L236.6 72.6C245.1 67.7 254.6 64.8 264.4 64.2L268.6 64.1L371.5 64.1L375.7 64.2zM212.1 391.8L270.1 544L370 544L428 391.8L320.1 337.8L212.2 391.8zM96 371.4C96 377 97.5 382.5 100.3 387.4L151.7 476.5L154 480C156.6 483.3 159.7 486.1 163.4 488.2L229 526L178 392.2L95.9 298.4L95.9 371.3zM461.9 392.3L410.9 526.1L476.5 488.3C481.4 485.5 485.4 481.4 488.2 476.6L539.6 387.5C542.4 382.6 543.9 377.1 543.9 371.5L543.9 298.6L461.8 392.4zM151.7 163.4L100.3 252.6C100 253.1 99.8 253.6 99.5 254.1L195.8 364.2L303.9 310.1L303.9 204.1L153.2 161L151.6 163.4zM336 204.1L336 310.1L444.1 364.2L540.4 254.1L539.7 252.6L488.3 163.5C487.8 162.7 487.2 161.9 486.7 161.1L336 204.1zM268.6 96C264.4 96 260.2 96.8 256.4 98.4L252.6 100.2L187.9 137.5L320 175.3L452.1 137.5L387.4 100.2C382.5 97.4 377 95.9 371.4 95.9L268.6 96z"/></svg>