<svg xmlns="http://www.w3.org/2000/svg" viewBox="0 0 640 640"><!--! Font Awesome Pro 7.1.0 by @fontawesome - https://fontawesome.com License - https://fontawesome.com/license (Commercial License) Copyright 2025 Fonticons, Inc. --><path fill="currentColor" d="M283 77.4C302.2 53.9 338.1 53.9 357.3 77.4L577 345.9C594.1 366.8 590.6 397.7 569.3 414.2L349.6 585.1L346.3 587.4C330.4 597.7 309.9 597.7 294 587.4L290.7 585.1L71 414.2C51 398.7 46.7 370.6 60.3 349.9L63.3 345.9L283 77.4zM88.1 366.2C82.4 373.2 83.6 383.4 90.7 388.9L304.2 555L304.2 102L88.1 366.2zM336.2 555L549.7 388.9L552.1 386.6C556.3 381.7 557.1 374.6 554.1 368.9L552.3 366.2L336.2 102.1L336.2 555z"/></svg>