<svg xmlns="http://www.w3.org/2000/svg" viewBox="0 0 640 640"><!--! Font Awesome Pro 7.1.0 by @fontawesome - https://fontawesome.com License - https://fontawesome.com/license (Commercial License) Copyright 2025 Fonticons, Inc. --><path fill="currentColor" d="M160 128C142.3 128 128 142.3 128 160L128 480C128 497.7 142.3 512 160 512L480 512C497.7 512 512 497.7 512 480L512 160C512 142.3 497.7 128 480 128L160 128zM96 160C96 124.7 124.7 96 160 96L480 96C515.3 96 544 124.7 544 160L544 480C544 515.3 515.3 544 480 544L160 544C124.7 544 96 515.3 96 480L96 160zM224 200C237.3 200 248 210.7 248 224C248 237.3 237.3 248 224 248C210.7 248 200 237.3 200 224C200 210.7 210.7 200 224 200zM440 224C440 237.3 429.3 248 416 248C402.7 248 392 237.3 392 224C392 210.7 402.7 200 416 200C429.3 200 440 210.7 440 224zM320 296C333.3 296 344 306.7 344 320C344 333.3 333.3 344 320 344C306.7 344 296 333.3 296 320C296 306.7 306.7 296 320 296zM392 416C392 402.7 402.7 392 416 392C429.3 392 440 402.7 440 416C440 429.3 429.3 440 416 440C402.7 440 392 429.3 392 416zM224 392C237.3 392 248 402.7 248 416C248 429.3 237.3 440 224 440C210.7 440 200 429.3 200 416C200 402.7 210.7 392 224 392z"/></svg>