<svg xmlns="http://www.w3.org/2000/svg" viewBox="0 0 640 640"><!--! Font Awesome Pro 7.1.0 by @fontawesome - https://fontawesome.com License - https://fontawesome.com/license (Commercial License) Copyright 2025 Fonticons, Inc. --><path fill="currentColor" d="M288 160C305.7 160 320 145.7 320 128C320 110.3 305.7 96 288 96C270.3 96 256 110.3 256 128C256 145.7 270.3 160 288 160zM288 64C323.3 64 352 92.7 352 128C352 163.3 323.3 192 288 192C252.7 192 224 163.3 224 128C224 92.7 252.7 64 288 64zM33.8 264.6C37.9 256.8 47.6 253.7 55.4 257.8L95.3 278.6L109.4 253.2C124.9 225.3 154.4 207.9 186.3 207.9L209.9 207.9C249 207.9 283.4 233.7 294.4 271.3L332.7 402.4L414.9 445.3L452.6 382.5C465 361.8 495.1 361.8 507.5 382.5L594.4 527.4C607.2 548.7 591.8 575.9 567 575.9L393.1 575.9C368.2 575.9 352.9 548.8 365.7 527.4L398.4 472.9L40.6 286.2C32.8 282.1 29.7 272.4 33.8 264.6zM293.4 382L263.8 280.3C256.8 256.4 234.9 240 210 240L186.4 240C166.1 240 147.3 251 137.4 268.8L123.7 293.5L293.4 382zM102.5 385.4L246.5 449.4C252.3 452 256 457.7 256 464L256 560C256 568.8 248.8 576 240 576C231.2 576 224 568.8 224 560L224 474.4L106.1 422L63.3 564.6C60.8 573.1 51.8 577.9 43.4 575.3C35 572.7 30.1 563.9 32.7 555.4L80.7 395.4C82 391 85.2 387.4 89.3 385.5C93.4 383.6 98.3 383.6 102.5 385.4zM480 399.1L393.1 544L566.9 544L480 399.1z"/></svg>