<svg xmlns="http://www.w3.org/2000/svg" viewBox="0 0 640 640"><!--! Font Awesome Pro 7.1.0 by @fontawesome - https://fontawesome.com License - https://fontawesome.com/license (Commercial License) Copyright 2025 Fonticons, Inc. --><path fill="currentColor" d="M417.6 83.2C426.7 71.1 440.9 64 456 64L469 64C563.5 64 640 140.5 640 234.9L640 285.8C640 362.3 600.6 433.4 535.7 474L512 488.9L512 528C512 554.5 490.5 576 464 576L432 576C405.5 576 384 554.5 384 528L384 517C380.5 517.9 376.5 518.8 372.3 519.6C358.1 522.6 340 525.6 319.9 527.1C319.4 515.9 316.5 505.2 311.7 495.6C332.2 494.5 351.1 491.5 365.7 488.4C374.8 486.5 382.2 484.6 387.3 483.1C389.8 482.4 391.8 481.8 393.1 481.4C393.7 481.2 394.2 481 394.5 480.9L394.8 480.8L394.9 480.8L394.9 480.8C399.8 479.2 405.1 480 409.3 483C413.5 486 415.9 490.8 415.9 496L415.9 528C415.9 536.8 423.1 544 431.9 544L463.9 544C472.7 544 479.9 536.8 479.9 528L479.9 480.3C479.9 477.5 480.5 474.7 481.9 472.3C483.3 469.9 485.3 467.8 487.7 466.3L518.7 446.9C574.2 412.2 607.9 351.3 607.9 285.9L607.9 235C608 158.2 545.8 96 469.1 96L456.1 96C451 96 446.3 98.4 443.3 102.4L436.5 111.5C429.8 120.4 420.7 127.4 410.4 131.5C399.4 135.9 392.2 146.6 392.2 158.4L392.2 160.2C392.2 177.7 406.4 191.9 423.9 191.9L498.4 191.9C532.5 191.9 560.2 219.6 560.2 253.7L560.2 276.7C560.2 309.4 533.7 335.8 501.1 335.8C473.8 335.8 447.2 327.3 424.9 311.4L398.9 292.8C365.2 268.7 324.9 255.8 283.5 255.8C233.9 255.8 186.2 274.3 149.6 307.7L61.1 388.4C42.5 405.4 32 429.3 32 454.5C32 503.9 72.1 544 121.5 544L242.5 544C250 544 256 537.9 256 530.5C256 524.1 251.6 518.6 245.3 517.3L147.7 496.2C117.5 489.7 96 463 96 432.1C96 423.3 103.2 416.1 112 416.1C120.8 416.1 128 423.3 128 432.1C128 447.9 139 461.6 154.5 464.9L252.1 486C273 490.5 288 509.1 288 530.5C288 555.6 267.6 576 242.5 576L121.5 576C54.4 576 0 521.6 0 454.5C0 420.4 14.4 387.8 39.6 364.8L127.8 284.3C170.3 245.5 225.7 224 283.3 224C331.4 224 378.2 239 417.3 267L443.3 285.6C460.1 297.6 480.2 304 500.9 304C515.9 304 528 291.9 528 276.9L528 253.9C528 237.4 514.6 224.1 498.2 224.1L423.7 224.1C388.5 224.1 360 195.6 360 160.4L360 158.6C360 133.7 375.2 111.2 398.3 102C403.2 100 407.5 96.7 410.7 92.5L417.5 83.4zM448 144C448 135.2 455.2 128 464 128C472.8 128 480 135.2 480 144C480 152.8 472.8 160 464 160C455.2 160 448 152.8 448 144z"/></svg>