<svg xmlns="http://www.w3.org/2000/svg" viewBox="0 0 640 640"><!--! Font Awesome Pro 7.1.0 by @fontawesome - https://fontawesome.com License - https://fontawesome.com/license (Commercial License) Copyright 2025 Fonticons, Inc. --><path fill="currentColor" d="M52.1 386.8C64.8 412.4 76.6 416 80 416L156 416C160.4 427.3 165.9 438 172.5 448L80 448C35.8 448 0 376.4 0 288C0 199.6 35.8 128 80 128L560 128C604.2 128 640 199.6 640 288C640 376.4 604.2 448 560 448L467.5 448C474 438 479.6 427.3 484 416L560 416C563.4 416 575.2 412.4 587.9 386.8C599.7 363.2 608 328.3 608 288C608 247.7 599.8 212.8 587.9 189.2C575.2 163.6 563.4 160 560 160L80 160C76.6 160 64.8 163.6 52.1 189.2C40.2 212.8 32 247.7 32 288C32 328.3 40.2 363.2 52.1 386.8zM416 352C416 299 373 256 320 256C267 256 224 299 224 352C224 405 267 448 320 448C373 448 416 405 416 352zM384 462.9C365.2 473.8 343.3 480 320 480C296.7 480 274.8 473.8 256 462.9L256 539L313.5 513.4C317.6 511.6 322.4 511.6 326.5 513.4L384 539L384 462.9zM416 436.7L416 553.4C416 565.9 405.9 576 393.4 576C390.2 576 387.1 575.3 384.2 574.1L320 545.6L255.8 574.1C252.9 575.4 249.8 576 246.6 576C234.1 576 224 565.9 224 553.4L224 436.7C204.1 414.1 192 384.5 192 352C192 281.3 249.3 224 320 224C390.7 224 448 281.3 448 352C448 384.5 435.9 414.1 416 436.7zM320 328C306.7 328 296 338.7 296 352C296 365.3 306.7 376 320 376C333.3 376 344 365.3 344 352C344 338.7 333.3 328 320 328zM320 408C289.1 408 264 382.9 264 352C264 321.1 289.1 296 320 296C350.9 296 376 321.1 376 352C376 382.9 350.9 408 320 408z"/></svg>