<svg xmlns="http://www.w3.org/2000/svg" viewBox="0 0 640 640"><!--! Font Awesome Pro 7.1.0 by @fontawesome - https://fontawesome.com License - https://fontawesome.com/license (Commercial License) Copyright 2025 Fonticons, Inc. --><path fill="currentColor" d="M320 572.2L405.7 480L368 480C359.2 480 352 472.8 352 464L352 176C352 167.2 359.2 160 368 160L405.7 160L320 67.8L234.3 160L272 160C280.8 160 288 167.2 288 176L288 464C288 472.8 280.8 480 272 480L234.3 480L320 572.2zM337.6 600.3C333.1 605.2 326.7 608 320 608C313.3 608 307 605.2 302.4 600.3L198.4 488.3C191.9 481.3 190.2 471.1 194 462.4L194 462.4C197.8 453.7 206.5 448 216 448L256 448L256 192L216 192C206.5 192 197.8 186.3 194 177.6C190.2 168.9 191.9 158.7 198.4 151.7L302.4 39.7C314.1 50.6 314.1 50.6 302.4 39.7C306.9 34.8 313.3 32 320 32C326.7 32 333 34.8 337.6 39.7L337.6 39.7L441.6 151.7C448.1 158.7 449.8 168.9 446 177.6C442.2 186.3 433.5 192 424 192L384 192L384 448L424 448C433.5 448 442.2 453.7 446 462.4L446 462.4C449.8 471.1 448.1 481.3 441.6 488.3L337.6 600.3z"/></svg>