<svg xmlns="http://www.w3.org/2000/svg" viewBox="0 0 640 640"><!--! Font Awesome Pro 7.1.0 by @fontawesome - https://fontawesome.com License - https://fontawesome.com/license (Commercial License) Copyright 2025 Fonticons, Inc. --><path fill="currentColor" d="M160 128L480 128C497.7 128 512 142.3 512 160L512 512L128 512L128 160C128 142.3 142.3 128 160 128zM544 512L544 160C544 124.7 515.3 96 480 96L160 96C124.7 96 96 124.7 96 160L96 512L80 512C71.2 512 64 519.2 64 528C64 536.8 71.2 544 80 544L560 544C568.8 544 576 536.8 576 528C576 519.2 568.8 512 560 512L544 512zM320 432C258.1 432 208 381.9 208 320C208 258.1 258.1 208 320 208C381.9 208 432 258.1 432 320C432 381.9 381.9 432 320 432zM176 320C176 399.5 240.5 464 320 464C399.5 464 464 399.5 464 320C464 240.5 399.5 176 320 176C240.5 176 176 240.5 176 320zM320 344C333.3 344 344 333.3 344 320C344 306.7 333.3 296 320 296C306.7 296 296 306.7 296 320C296 333.3 306.7 344 320 344z"/></svg>