<svg xmlns="http://www.w3.org/2000/svg" viewBox="0 0 640 640"><!--! Font Awesome Pro 7.1.0 by @fontawesome - https://fontawesome.com License - https://fontawesome.com/license (Commercial License) Copyright 2025 Fonticons, Inc. --><path fill="currentColor" d="M314.7 129.8C288.7 168.6 245.1 192 198.3 192L132 192C112.2 192 96.1 208.1 96.1 227.9C96.1 237.4 99.9 246.5 106.6 253.2L133.6 280.2C150.6 297.2 160.2 320.3 160.2 344.3C160.2 368.7 150.4 392.1 132.9 409.1L119.7 421.9C114.8 426.7 112 433.3 112 440.2C112 456.6 127.1 468.7 143.1 465.2L205.4 451.4C215.4 449.2 225.7 448 236 448C278.3 448 318.6 466.8 345.8 499.3L376.3 535.9C380.6 541 386.9 544 393.6 544C406 544 416.1 533.9 416.1 521.5L416.1 470.3C416.1 415.7 449.6 366.7 500.5 347L522.7 338.4C535.6 333.4 544.1 321 544.1 307.1C544.1 293.6 536 281.4 523.5 276.2L480.7 258.3C437.9 240.4 406.5 202.9 396.3 157.7L388.4 122.5C384.9 107 371.2 96 355.3 96C344 96 333.4 101.7 327.1 111.1L314.7 129.8zM288 112L300.4 93.4C312.7 75 333.3 64 355.3 64C386.2 64 412.9 85.4 419.6 115.5L427.5 150.7C435.4 185.8 459.8 214.9 493 228.8L535.8 246.7C560.2 256.9 576.1 280.7 576.1 307.2C576.1 334.2 559.5 358.5 534.3 368.3L512.1 376.9C473.5 391.9 448.1 429 448.1 470.4L448.1 521.6C448.1 551.7 423.7 576.1 393.6 576.1C377.4 576.1 362.1 568.9 351.7 556.5L321.2 519.9C300.2 494.7 268.8 480.1 236 480.1C228.1 480.1 220.1 481 212.4 482.7L150.1 496.4C114.1 504.4 80 477 80 440.2C80 424.7 86.2 409.9 97.3 399L110.4 386.2C121.7 375.2 128.1 360 128.1 344.2C128.1 328.6 121.9 313.7 110.9 302.7L83.9 275.7C71.3 263.1 64.1 245.9 64.1 227.9C64.1 190.4 94.5 160 132 160L198.4 160C234.4 160 268.1 142 288.1 112zM224 264C237.3 264 248 274.7 248 288C248 301.3 237.3 312 224 312C210.7 312 200 301.3 200 288C200 274.7 210.7 264 224 264zM328 256C328 242.7 338.7 232 352 232C365.3 232 376 242.7 376 256C376 269.3 365.3 280 352 280C338.7 280 328 269.3 328 256zM352 360C365.3 360 376 370.7 376 384C376 397.3 365.3 408 352 408C338.7 408 328 397.3 328 384C328 370.7 338.7 360 352 360z"/></svg>