<svg xmlns="http://www.w3.org/2000/svg" viewBox="0 0 640 640"><!--! Font Awesome Pro 7.1.0 by @fontawesome - https://fontawesome.com License - https://fontawesome.com/license (Commercial License) Copyright 2025 Fonticons, Inc. --><path fill="currentColor" d="M512 128L128 128C110.3 128 96 142.3 96 160L96 416C96 433.7 110.3 448 128 448L512 448C529.7 448 544 433.7 544 416L544 160C544 142.3 529.7 128 512 128zM128 96L512 96C547.3 96 576 124.7 576 160L576 416C576 451.3 547.3 480 512 480L394.9 480L405.6 544L464 544C472.8 544 480 551.2 480 560C480 568.8 472.8 576 464 576L176 576C167.2 576 160 568.8 160 560C160 551.2 167.2 544 176 544L234.4 544L245.1 480L128 480C92.7 480 64 451.3 64 416L64 160C64 124.7 92.7 96 128 96zM277.6 480L266.9 544L373.1 544L362.4 480L277.5 480zM368 192L464 192C472.8 192 480 199.2 480 208L480 304C480 312.8 472.8 320 464 320C455.2 320 448 312.8 448 304L448 246.6L331.3 363.3C328.3 366.3 324.2 368 320 368C315.8 368 311.7 366.3 308.7 363.3L240 294.6L171.3 363.3C165.1 369.5 154.9 369.5 148.7 363.3C142.5 357.1 142.5 346.9 148.7 340.7L228.7 260.7C234.9 254.5 245.1 254.5 251.3 260.7L320 329.4L425.4 224L368 224C359.2 224 352 216.8 352 208C352 199.2 359.2 192 368 192z"/></svg>