<svg xmlns="http://www.w3.org/2000/svg" viewBox="0 0 640 640"><!--! Font Awesome Pro 7.1.0 by @fontawesome - https://fontawesome.com License - https://fontawesome.com/license (Commercial License) Copyright 2025 Fonticons, Inc. --><path fill="currentColor" d="M480 128L96 128C78.3 128 64 142.3 64 160L64 416C64 433.7 78.3 448 96 448L304.7 448C303.8 458.5 303.8 469.5 304.7 480L245.6 480L234.9 544L321.4 544C326.6 555.3 332.8 566 340 576L144 576C135.2 576 128 568.8 128 560C128 551.2 135.2 544 144 544L202.4 544L213.1 480L96 480C60.7 480 32 451.3 32 416L32 160C32 124.7 60.7 96 96 96L480 96C515.3 96 544 124.7 544 160L544 278C533.6 275.3 523 273.5 512 272.6L512 160C512 142.3 497.7 128 480 128zM416 289.4L416 246.6L299.3 363.3C296.3 366.3 292.2 368 288 368C283.8 368 279.7 366.3 276.7 363.3L208 294.6L139.3 363.3C133.1 369.5 122.9 369.5 116.7 363.3C110.5 357.1 110.5 346.9 116.7 340.7L196.7 260.7C202.9 254.5 213.1 254.5 219.3 260.7L288 329.4L393.4 224L336 224C327.2 224 320 216.8 320 208C320 199.2 327.2 192 336 192L432 192C440.8 192 448 199.2 448 208L448 278C436.9 280.9 426.2 284.7 416 289.4zM496 576C557.9 576 608 525.9 608 464C608 402.1 557.9 352 496 352C434.1 352 384 402.1 384 464C384 525.9 434.1 576 496 576zM496 320C575.5 320 640 384.5 640 464C640 543.5 575.5 608 496 608C416.5 608 352 543.5 352 464C352 384.5 416.5 320 496 320zM496 496C513.7 496 528 481.7 528 464C528 446.3 513.7 432 496 432C478.3 432 464 446.3 464 464C464 481.7 478.3 496 496 496zM551.1 496.5L563.3 508.7C569.5 514.9 569.5 525.1 563.3 531.3C557.1 537.5 546.9 537.5 540.7 531.3L528.5 519.1C519 524.7 507.9 528 496 528C484.1 528 473 524.8 463.5 519.1L451.3 531.3C445.1 537.5 434.9 537.5 428.7 531.3C422.5 525.1 422.5 514.9 428.7 508.7L440.9 496.5C435.3 487 432 475.9 432 464C432 452.1 435.2 441 440.9 431.5L428.7 419.3C422.5 413.1 422.5 402.9 428.7 396.7C434.9 390.5 445.1 390.5 451.3 396.7L463.5 408.9C473 403.3 484.1 400 496 400C507.9 400 519 403.2 528.5 408.9L540.7 396.7C546.9 390.5 557.1 390.5 563.3 396.7C569.5 402.9 569.5 413.1 563.3 419.3L551.1 431.5C556.7 441 560 452.1 560 464C560 475.9 556.8 487 551.1 496.5z"/></svg>