<svg xmlns="http://www.w3.org/2000/svg" viewBox="0 0 640 640"><!--! Font Awesome Pro 7.1.0 by @fontawesome - https://fontawesome.com License - https://fontawesome.com/license (Commercial License) Copyright 2025 Fonticons, Inc. --><path fill="currentColor" d="M128 128L512 128C529.7 128 544 142.3 544 160L544 416C544 433.7 529.7 448 512 448L128 448C110.3 448 96 433.7 96 416L96 160C96 142.3 110.3 128 128 128zM512 96L128 96C92.7 96 64 124.7 64 160L64 416C64 451.3 92.7 480 128 480L245.1 480L234.4 544L176 544C167.2 544 160 551.2 160 560C160 568.8 167.2 576 176 576L464 576C472.8 576 480 568.8 480 560C480 551.2 472.8 544 464 544L405.6 544L394.9 480L512 480C547.3 480 576 451.3 576 416L576 160C576 124.7 547.3 96 512 96zM362.4 480L373.1 544L266.9 544L277.6 480L362.5 480z"/></svg>