<svg xmlns="http://www.w3.org/2000/svg" viewBox="0 0 640 640"><!--! Font Awesome Pro 7.1.0 by @fontawesome - https://fontawesome.com License - https://fontawesome.com/license (Commercial License) Copyright 2025 Fonticons, Inc. --><path fill="currentColor" d="M576 528C576 519.2 568.8 512 560 512L80 512C71.2 512 64 519.2 64 528C64 536.8 71.2 544 80 544L560 544C568.8 544 576 536.8 576 528zM208 384C199.2 384 192 376.8 192 368L192 272C192 263.2 199.2 256 208 256L432 256C440.8 256 448 263.2 448 272L448 368C448 376.8 440.8 384 432 384L208 384zM432 416C458.5 416 480 394.5 480 368L480 272C480 245.5 458.5 224 432 224L208 224C181.5 224 160 245.5 160 272L160 368C160 394.5 181.5 416 208 416L432 416zM560 128C568.8 128 576 120.8 576 112C576 103.2 568.8 96 560 96L80 96C71.2 96 64 103.2 64 112C64 120.8 71.2 128 80 128L560 128z"/></svg>