<svg xmlns="http://www.w3.org/2000/svg" viewBox="0 0 640 640"><!--! Font Awesome Pro 7.1.0 by @fontawesome - https://fontawesome.com License - https://fontawesome.com/license (Commercial License) Copyright 2025 Fonticons, Inc. --><path fill="currentColor" d="M528 64C519.2 64 512 71.2 512 80L512 560C512 568.8 519.2 576 528 576C536.8 576 544 568.8 544 560L544 80C544 71.2 536.8 64 528 64zM384 432C384 440.8 376.8 448 368 448L272 448C263.2 448 256 440.8 256 432L256 208C256 199.2 263.2 192 272 192L368 192C376.8 192 384 199.2 384 208L384 432zM416 208C416 181.5 394.5 160 368 160L272 160C245.5 160 224 181.5 224 208L224 432C224 458.5 245.5 480 272 480L368 480C394.5 480 416 458.5 416 432L416 208zM128 80C128 71.2 120.8 64 112 64C103.2 64 96 71.2 96 80L96 560C96 568.8 103.2 576 112 576C120.8 576 128 568.8 128 560L128 80z"/></svg>