<svg xmlns="http://www.w3.org/2000/svg" viewBox="0 0 640 640"><!--! Font Awesome Pro 7.1.0 by @fontawesome - https://fontawesome.com License - https://fontawesome.com/license (Commercial License) Copyright 2025 Fonticons, Inc. --><path fill="currentColor" d="M256 162.3L256 160C256 142.3 241.7 128 224 128C206.3 128 192 142.3 192 160L192 162.3C192 164.3 192.2 166.2 192.5 168.2L218 315C218.5 317.9 221 320 224 320C227 320 229.5 317.9 230 315L255.5 168.2L255.5 168.2C255.8 166.3 256 164.3 256 162.3zM160 162.3L160 160C160 124.7 188.7 96 224 96C259.3 96 288 124.7 288 160L288 162.3C288 166.1 287.7 169.9 287 173.7L261.5 320.5C258.3 338.7 242.5 352 224 352C205.5 352 189.7 338.7 186.5 320.5L161 173.6C160.3 169.8 160 166.1 160 162.2zM448 162.3L448 160C448 142.3 433.7 128 416 128C398.3 128 384 142.3 384 160L384 162.3C384 164.3 384.2 166.2 384.5 168.2L410 315C410.5 317.9 413 320 416 320C419 320 421.5 317.9 422 315L447.5 168.2L447.5 168.2C447.8 166.3 448 164.3 448 162.3zM352 162.3L352 160C352 124.7 380.7 96 416 96C451.3 96 480 124.7 480 160L480 162.3C480 166.1 479.7 169.9 479 173.7L453.5 320.5C450.3 338.7 434.5 352 416 352C397.5 352 381.7 338.7 378.5 320.5L353 173.6C352.3 169.8 352 166.1 352 162.2z"/></svg>