<svg xmlns="http://www.w3.org/2000/svg" viewBox="0 0 640 640"><!--! Font Awesome Pro 7.1.0 by @fontawesome - https://fontawesome.com License - https://fontawesome.com/license (Commercial License) Copyright 2025 Fonticons, Inc. --><path fill="currentColor" d="M344 168C344 154.7 333.3 144 320 144C306.7 144 296 154.7 296 168C296 181.3 306.7 192 320 192C333.3 192 344 181.3 344 168zM264 168C264 137.1 289.1 112 320 112C350.9 112 376 137.1 376 168C376 198.9 350.9 224 320 224C289.1 224 264 198.9 264 168zM96 320C96 311.2 103.2 304 112 304L528 304C536.8 304 544 311.2 544 320C544 328.8 536.8 336 528 336L112 336C103.2 336 96 328.8 96 320zM320 496C333.3 496 344 485.3 344 472C344 458.7 333.3 448 320 448C306.7 448 296 458.7 296 472C296 485.3 306.7 496 320 496zM320 416C350.9 416 376 441.1 376 472C376 502.9 350.9 528 320 528C289.1 528 264 502.9 264 472C264 441.1 289.1 416 320 416z"/></svg>