<svg xmlns="http://www.w3.org/2000/svg" viewBox="0 0 640 640"><!--! Font Awesome Pro 7.1.0 by @fontawesome - https://fontawesome.com License - https://fontawesome.com/license (Commercial License) Copyright 2025 Fonticons, Inc. --><path fill="currentColor" d="M387.3 32.4C394.8 33.9 400 40.6 400 48L399.7 51.2L397 63.9L469.5 63.9C490.7 63.9 511.1 72.3 526.1 87.3L534.7 95.9L584.1 95.9C597.4 95.9 608.1 106.6 608.1 119.9L608.1 159.9C608.1 212.9 565.1 255.9 512.1 255.9L475.6 255.9L464.1 290.5L464.1 527.9C464.1 554.4 442.6 575.9 416.1 575.9L384.1 575.9C357.6 575.9 336.1 554.4 336.1 527.9L336.1 440.4C300.3 455.5 259.9 455.5 224.1 440.4L224.1 527.9C224.1 554.4 202.6 575.9 176.1 575.9L144.1 575.9C117.6 575.9 96.1 554.4 96.1 527.9L96.1 254.3C59.5 247 32 214.7 32 176C32 167.2 39.2 160 48 160C56.8 160 64 167.2 64 176C64 200.8 82.9 221.3 107.1 223.8L112 224L273.7 224L133.1 91.7L131 89.3C126.6 83.1 127 74.7 132.3 69C137.6 63.3 146 62.4 152.4 66.3L155 68.3L315 218.9L320.4 224L331.1 224L368.4 44.8L369.4 41.7C372.3 34.9 379.8 30.8 387.3 32.4zM128 528C128 536.8 135.2 544 144 544L176 544C184.8 544 192 536.8 192 528L192 416C192 410.6 194.7 405.5 199.3 402.6C203.9 399.7 209.6 399.2 214.5 401.4L234.5 410.3C251.5 417.8 269.9 420.9 288 419.6L288 256L128 256L128 528zM320 412.5C321.8 411.8 323.7 411.1 325.5 410.3L345.5 401.4L347.4 400.7C351.9 399.3 356.8 400 360.7 402.6C365.2 405.6 368 410.6 368 416L368 528C368 536.8 375.2 544 384 544L416 544C424.8 544 432 536.8 432 528L432 292.8L346 256L320 256L320 412.5zM362.7 228.3L439.9 261.4L448.7 234.9L449.7 232.6C452.4 227.4 457.9 224 463.9 224L511.9 224C547.2 224 575.9 195.3 575.9 160L575.9 128L527.9 128C523.7 128 519.6 126.3 516.6 123.3L503.4 110.1C494.4 101.1 482.2 96 469.5 96L390.3 96L362.7 228.3zM464 164C453 164 444 155 444 144C444 133 453 124 464 124C475 124 484 133 484 144C484 155 475 164 464 164z"/></svg>