<svg xmlns="http://www.w3.org/2000/svg" viewBox="0 0 640 640"><!--! Font Awesome Pro 7.1.0 by @fontawesome - https://fontawesome.com License - https://fontawesome.com/license (Commercial License) Copyright 2025 Fonticons, Inc. --><path fill="currentColor" d="M64 80C55.2 80 48 87.2 48 96C48 104.8 55.2 112 64 112L136.9 112C143.8 112 149.9 116.4 152.1 122.9L250.7 418.8C216.8 428.1 191.9 459.1 191.9 495.9C191.9 540.1 227.7 575.9 271.9 575.9C316.1 575.9 351.9 540.1 351.9 495.9C351.9 489.1 351.1 482.5 349.5 476.2L581 399C589.4 396.2 593.9 387.1 591.1 378.8C588.3 370.5 579.2 365.9 570.9 368.7L335.5 447.3C323.1 431.2 304.8 420 283.8 416.9L182.5 112.8C175.9 93.2 157.6 80 136.9 80L64 80zM224 496C224 469.5 245.5 448 272 448C298.5 448 320 469.5 320 496C320 522.5 298.5 544 272 544C245.5 544 224 522.5 224 496zM322.4 183.7L444.2 144.1C452.6 141.4 461.6 146 464.4 154.4L504 276.1C506.7 284.5 502.1 293.5 493.7 296.3L371.9 335.9C363.5 338.6 354.5 334 351.7 325.6L312.1 203.9C309.4 195.5 314 186.5 322.4 183.7zM281.7 213.7L321.3 335.4C329.5 360.6 356.6 374.4 381.8 366.2L503.5 326.6C528.7 318.4 542.5 291.3 534.3 266.1L494.7 144.5C486.5 119.3 459.4 105.5 434.2 113.7L312.5 153.3C287.3 161.5 273.5 188.6 281.7 213.8z"/></svg>