<svg xmlns="http://www.w3.org/2000/svg" viewBox="0 0 640 640"><!--! Font Awesome Pro 7.1.0 by @fontawesome - https://fontawesome.com License - https://fontawesome.com/license (Commercial License) Copyright 2025 Fonticons, Inc. --><path fill="currentColor" d="M48 96C48 87.2 55.2 80 64 80L136.9 80C157.6 80 175.9 93.2 182.4 112.8L283.7 416.8C304.7 419.9 323 431.2 335.4 447.2L570.9 368.7C579.3 365.9 588.3 370.4 591.1 378.8C593.9 387.2 589.4 396.2 581 399L349.6 476.3C351.2 482.6 352 489.2 352 496C352 540.2 316.2 576 272 576C227.8 576 192 540.2 192 496C192 459.2 216.9 428.2 250.8 418.9L152.1 122.9C149.9 116.4 143.8 112 136.9 112L64 112C55.2 112 48 104.8 48 96zM272 544C298.5 544 320 522.5 320 496C320 469.5 298.5 448 272 448C245.5 448 224 469.5 224 496C224 522.5 245.5 544 272 544z"/></svg>