<svg xmlns="http://www.w3.org/2000/svg" viewBox="0 0 640 640"><!--! Font Awesome Pro 7.1.0 by @fontawesome - https://fontawesome.com License - https://fontawesome.com/license (Commercial License) Copyright 2025 Fonticons, Inc. --><path fill="currentColor" d="M32 80C32 71.2 39.2 64 48 64L80 64C106.5 64 128 85.5 128 112L128 416C128 433.7 142.3 448 160 448L592 448C600.8 448 608 455.2 608 464C608 472.8 600.8 480 592 480L535.4 480C540.8 489.4 544 500.3 544 512C544 547.3 515.3 576 480 576C444.7 576 416 547.3 416 512C416 500.3 419.1 489.4 424.6 480L279.5 480C284.9 489.4 288.1 500.3 288.1 512C288.1 547.3 259.4 576 224.1 576C188.8 576 160.1 547.3 160.1 512C160.1 500.3 163.2 489.4 168.7 480L160.1 480C124.8 480 96.1 451.3 96.1 416L96 112C96 103.2 88.8 96 80 96L48 96C39.2 96 32 88.8 32 80zM480 480C462.3 480 448 494.3 448 512C448 529.7 462.3 544 480 544C497.7 544 512 529.7 512 512C512 494.3 497.7 480 480 480zM192 512C192 529.7 206.3 544 224 544C241.7 544 256 529.7 256 512C256 494.3 241.7 480 224 480C206.3 480 192 494.3 192 512z"/></svg>