<svg xmlns="http://www.w3.org/2000/svg" viewBox="0 0 640 640"><!--! Font Awesome Pro 7.1.0 by @fontawesome - https://fontawesome.com License - https://fontawesome.com/license (Commercial License) Copyright 2025 Fonticons, Inc. --><path fill="currentColor" d="M240 96L289.1 96C329.6 96 367.8 105.4 401.8 122.2C405.8 124.2 410.3 124.4 414.5 122.9C446.9 110.8 487.7 98.3 519.7 96.3C518.9 99.6 517.5 103.9 515.5 109.3C508.3 127.9 495.3 151.6 484.3 170.4C480.9 176.2 481.5 183.5 485.8 188.7C522.2 232.8 544.1 289.3 544.1 350.9C544.1 405.3 510.5 451.8 462.9 470.8C473.7 455.3 480.1 436.4 480.1 416C480.1 369.5 447.1 330.8 403.3 321.9C398.6 320.9 393.7 322.2 390 325.2C386.3 328.2 384.1 332.8 384.1 337.6L384.1 389C384.1 395.1 379.2 400 373.1 400C370.2 400 367.5 398.9 365.4 396.9L291.6 324.6C288.6 321.7 284.6 320 280.4 320L114.2 320C104.2 320 96 311.9 96 301.8C96 295.3 99.4 289.4 105 286.1L130.1 271.5C137 267.4 139.9 258.9 136.8 251.5C131.2 238.1 128 223.5 128 208C128 146.1 178.1 96 240 96zM520.6 89.7C520.6 89.7 520.6 89.7 520.6 89.8C520.6 89.7 520.6 89.7 520.6 89.7zM384 480L345.9 480L344.9 477.9C325.9 440 287.1 416 244.7 416L240 416C234.5 416 229.3 418.9 226.4 423.6C223.5 428.3 223.2 434.2 225.7 439.2L254.1 496L225.7 552.8C223.2 557.8 223.5 563.7 226.4 568.4C229.3 573.1 234.5 576 240 576L244.7 576C287.1 576 325.9 552 344.9 514.1L345.9 512L414.9 512C503.9 512 576 439.9 576 350.9C576 285.6 554.2 225.3 517.4 177.1C527.4 159.6 538.4 138.7 545.3 120.9C549.2 110.7 552.7 99.5 552.6 90C552.6 85.2 551.6 78.5 547 72.7C541.9 66.3 534.6 64 528 64C491 64 444.5 77.9 409.7 90.5C373 73.5 332.1 64 289.1 64L240 64C160.5 64 96 128.5 96 208C96 222.8 98.2 237.1 102.4 250.6L88.9 258.5C73.5 267.5 64 284 64 301.8C64 329.5 86.5 352 114.2 352L273.8 352L342.9 419.7C350.9 427.6 361.7 432 373 432C396.7 432 416 412.8 416 389L416 360.5C435.1 371.6 448 392.3 448 415.9C448 451.2 419.3 479.9 384 479.9zM267.6 451.3C288.5 457.5 306.2 472.1 316.3 492.2L318.2 496L316.3 499.8C306.3 519.9 288.5 534.5 267.6 540.7L286.4 503.2C288.7 498.7 288.7 493.4 286.4 488.9L267.6 451.4zM216 240C229.3 240 240 229.3 240 216C240 202.7 229.3 192 216 192C202.7 192 192 202.7 192 216C192 229.3 202.7 240 216 240z"/></svg>