<svg xmlns="http://www.w3.org/2000/svg" viewBox="0 0 640 640"><!--! Font Awesome Pro 7.1.0 by @fontawesome - https://fontawesome.com License - https://fontawesome.com/license (Commercial License) Copyright 2025 Fonticons, Inc. --><path fill="currentColor" d="M432 64C423.2 64 416 71.2 416 80L416 128L304 128C295.2 128 288 135.2 288 144C288 152.8 295.2 160 304 160L416 160L416 277.5C389.6 244.9 349.2 224 304 224C224.5 224 160 288.5 160 368C160 447.5 224.5 512 304 512C349.2 512 389.6 491.1 416 458.5L416 496C416 504.8 423.2 512 432 512C440.8 512 448 504.8 448 496L448 160L496 160C504.8 160 512 152.8 512 144C512 135.2 504.8 128 496 128L448 128L448 80C448 71.2 440.8 64 432 64zM192 368C192 306.1 242.1 256 304 256C365.9 256 416 306.1 416 368C416 429.9 365.9 480 304 480C242.1 480 192 429.9 192 368zM144 544C135.2 544 128 551.2 128 560C128 568.8 135.2 576 144 576L496 576C504.8 576 512 568.8 512 560C512 551.2 504.8 544 496 544L144 544z"/></svg>