<svg xmlns="http://www.w3.org/2000/svg" viewBox="0 0 640 640"><!--! Font Awesome Pro 7.1.0 by @fontawesome - https://fontawesome.com License - https://fontawesome.com/license (Commercial License) Copyright 2025 Fonticons, Inc. --><path fill="currentColor" d="M192 96C174.3 96 160 110.3 160 128L160 544L384 544L384 128C384 110.3 369.7 96 352 96L192 96zM407.4 96C412.8 105.4 416 116.3 416 128L416 576L112 576C103.2 576 96 568.8 96 560C96 551.2 103.2 544 112 544L128 544L128 128C128 92.7 156.7 64 192 64L448 64C483.3 64 512 92.7 512 128L512 544L528 544C536.8 544 544 551.2 544 560C544 568.8 536.8 576 528 576L496 576C487.2 576 480 568.8 480 560L480 128C480 110.3 465.7 96 448 96L407.4 96zM344 312C344 325.3 333.3 336 320 336C306.7 336 296 325.3 296 312C296 298.7 306.7 288 320 288C333.3 288 344 298.7 344 312z"/></svg>