<svg xmlns="http://www.w3.org/2000/svg" viewBox="0 0 640 640"><!--! Font Awesome Pro 7.1.0 by @fontawesome - https://fontawesome.com License - https://fontawesome.com/license (Commercial License) Copyright 2025 Fonticons, Inc. --><path fill="currentColor" d="M155.9 186C196.4 160.7 254.3 144 320 144C323.1 144 326.2 144 329.3 144.1L308.7 164.7C302.5 170.9 302.5 181.1 308.7 187.3C314.9 193.5 325.1 193.5 331.3 187.3L371.1 147.5C415.5 153.6 454.4 167.5 484 186C524.9 211.6 543.9 242.8 543.9 272C543.9 301.2 524.9 332.4 484 358C443.5 383.3 385.6 400 319.9 400C254.2 400 196.4 383.3 155.9 358C115 332.4 96 301.2 96 272C96 242.8 115 211.6 155.9 186zM320 112C178.6 112 64 183.6 64 272L64 368C64 456.4 178.6 528 320 528C461.4 528 576 456.4 576 368L576 272C576 183.6 461.4 112 320 112zM544 368C544 397.2 525 428.4 484.1 454C443.6 479.3 385.7 496 320 496C254.3 496 196.4 479.3 155.9 454C115 428.4 96 397.2 96 368L96 349.5C139.7 398.7 223.6 432 320 432C416.4 432 500.3 398.7 544 349.5L544 368zM320 304C364.2 304 400 282.5 400 256C400 229.5 364.2 208 320 208C275.8 208 240 229.5 240 256C240 282.5 275.8 304 320 304zM235.3 180.7C229.1 174.5 218.9 174.5 212.7 180.7L180.7 212.7C174.5 218.9 174.5 229.1 180.7 235.3C186.9 241.5 197.1 241.5 203.3 235.3L235.3 203.3C241.5 197.1 241.5 186.9 235.3 180.7zM436.7 196.7C430.5 202.9 430.5 213.1 436.7 219.3L468.7 251.3C474.9 257.5 485.1 257.5 491.3 251.3C497.5 245.1 497.5 234.9 491.3 228.7L459.3 196.7C453.1 190.5 442.9 190.5 436.7 196.7zM112 272C112 280.8 119.2 288 128 288L160 288C168.8 288 176 280.8 176 272C176 263.2 168.8 256 160 256L128 256C119.2 256 112 263.2 112 272zM436.7 292.7C430.5 298.9 430.5 309.1 436.7 315.3L452.7 331.3C458.9 337.5 469.1 337.5 475.3 331.3C481.5 325.1 481.5 314.9 475.3 308.7L459.3 292.7C453.1 286.5 442.9 286.5 436.7 292.7zM196.7 308.7C190.5 314.9 190.5 325.1 196.7 331.3L228.7 363.3C234.9 369.5 245.1 369.5 251.3 363.3C257.5 357.1 257.5 346.9 251.3 340.7L219.3 308.7C213.1 302.5 202.9 302.5 196.7 308.7zM395.3 324.7C389.1 318.5 378.9 318.5 372.7 324.7L340.7 356.7C334.5 362.9 334.5 373.1 340.7 379.3C346.9 385.5 357.1 385.5 363.3 379.3L395.3 347.3C401.5 341.1 401.5 330.9 395.3 324.7zM320 280C293.5 280 272 269.3 272 256C272 242.7 293.5 232 320 232C346.5 232 368 242.7 368 256C368 269.3 346.5 280 320 280z"/></svg>