<svg xmlns="http://www.w3.org/2000/svg" viewBox="0 0 640 640"><!--! Font Awesome Pro 7.1.0 by @fontawesome - https://fontawesome.com License - https://fontawesome.com/license (Commercial License) Copyright 2025 Fonticons, Inc. --><path fill="currentColor" d="M307.7 64.4C312 65.4 315.7 68.2 317.9 72L379.2 178.9C395.4 148.6 427.3 128 464 128L576 128L578.1 128.2C583 128.9 587.4 131.8 589.9 136.2C592.4 140.6 592.6 145.8 590.7 150.4L589.7 152.3L544 228.5L544 336.1C544 424.5 472.4 496.1 384 496.1L318.2 496.1L234.8 571.9C229.9 576.3 222.8 577.3 216.9 574.4L72.9 502.4C67.4 499.6 63.9 493.9 64.1 487.7C64.3 481.5 67.9 476 73.6 473.5L189.5 422C138.5 386.2 112.7 333.8 102.4 283.4C90.5 225.4 98.5 167.6 113.8 137L115.6 134.2C117.6 131.7 120.3 129.8 123.5 128.8C127.7 127.5 132.2 128 136 130.2L218.6 176.6C234.6 125.5 267.3 85.3 295.4 66.8L298.3 65.3C301.3 64.1 304.7 63.8 307.9 64.6zM464 160C428.7 160 400 188.7 400 224L400 288C400 293.7 397 298.9 392.1 301.8C387.2 304.7 381.1 304.7 376.2 301.9L136.3 167C128.6 193.2 125 234.2 133.7 276.8C144.3 328.7 172.7 380.5 231.2 409.7C236.7 412.5 240.2 418.2 240 424.4C239.8 430.6 236.1 436.1 230.5 438.6L117.5 488.8L221.4 540.7L301.3 468.1L303.6 466.3C306.1 464.8 309 463.9 312 463.9L384 463.9C454.7 463.9 512 406.6 512 335.9L512 223.9C512 221 512.8 218.2 514.3 215.7L547.8 160L464 160zM299.4 104.1C280.5 121.6 259.8 150.9 248.7 187.1C248.1 188.9 247.7 190.8 247.2 192.7L368.1 260.7L368.1 223.7L299.5 104.2zM448 248C434.7 248 424 237.3 424 224C424 210.7 434.7 200 448 200C461.3 200 472 210.7 472 224C472 237.3 461.3 248 448 248z"/></svg>