<svg xmlns="http://www.w3.org/2000/svg" viewBox="0 0 640 640"><!--! Font Awesome Pro 7.1.0 by @fontawesome - https://fontawesome.com License - https://fontawesome.com/license (Commercial License) Copyright 2025 Fonticons, Inc. --><path fill="currentColor" d="M303 569L303 569C312.4 578.4 327.6 578.4 336.9 569L336.9 569L480.9 425C487.8 418.1 489.8 407.8 486.1 398.8C482.4 389.8 473.7 384 464 384L384 384L384 272C384 245.5 362.5 224 336 224L304 224C277.5 224 256 245.5 256 272L256 384L176 384C166.3 384 157.5 389.8 153.8 398.8C150.1 407.8 152.2 418.1 159 425L303 569zM444.7 416L320 540.7L195.3 416L272 416C280.8 416 288 408.8 288 400L288 272C288 263.2 295.2 256 304 256L336 256C344.8 256 352 263.2 352 272L352 400C352 408.8 359.2 416 368 416L444.7 416zM512 240C512 248.8 519.2 256 528 256C536.8 256 544 248.8 544 240L544 160C544 107 501 64 448 64L192 64C139 64 96 107 96 160L96 240C96 248.8 103.2 256 112 256C120.8 256 128 248.8 128 240L128 160C128 124.7 156.7 96 192 96L448 96C483.3 96 512 124.7 512 160L512 240z"/></svg>