<svg xmlns="http://www.w3.org/2000/svg" viewBox="0 0 640 640"><!--! Font Awesome Pro 7.1.0 by @fontawesome - https://fontawesome.com License - https://fontawesome.com/license (Commercial License) Copyright 2025 Fonticons, Inc. --><path fill="currentColor" d="M160.2 480L160.2 214.6L244.9 299.3C251.1 305.5 261.3 305.5 267.5 299.3L420.9 145.9C427.1 139.7 437.3 139.7 443.5 145.9L494.2 196.6C500.4 202.8 500.4 213 494.2 219.2L340.9 372.7C334.7 378.9 334.7 389.1 340.9 395.3L425.6 480L160.2 480zM128.2 488C128.2 501.3 138.9 512 152.2 512L425.6 512C454.1 512 468.4 477.5 448.2 457.4L374.9 384L516.9 241.9C535.6 223.2 535.6 192.8 516.9 174L466.2 123.3C447.5 104.6 417.1 104.6 398.3 123.3L256.2 265.4L182.9 192C162.7 171.8 128.3 186.1 128.3 214.6L128.3 488z"/></svg>