<svg xmlns="http://www.w3.org/2000/svg" viewBox="0 0 640 640"><!--! Font Awesome Pro 7.1.0 by @fontawesome - https://fontawesome.com License - https://fontawesome.com/license (Commercial License) Copyright 2025 Fonticons, Inc. --><path fill="currentColor" d="M481 265L337 409C327.6 418.4 312.4 418.4 303.1 409L159 265C152.1 258.1 150.1 247.8 153.8 238.8C157.5 229.8 166.3 224 176 224L256 224L256 112C256 85.5 277.5 64 304 64L336 64C362.5 64 384 85.5 384 112L384 224L464 224C473.7 224 482.5 229.8 486.2 238.8C489.9 247.8 487.9 258.1 481 265zM195.3 256L320 380.7L444.7 256L368 256C359.2 256 352 248.8 352 240L352 112C352 103.2 344.8 96 336 96L304 96C295.2 96 288 103.2 288 112L288 240C288 248.8 280.8 256 272 256L195.3 256zM128 400L128 480C128 515.3 156.7 544 192 544L448 544C483.3 544 512 515.3 512 480L512 400C512 391.2 519.2 384 528 384C536.8 384 544 391.2 544 400L544 480C544 533 501 576 448 576L192 576C139 576 96 533 96 480L96 400C96 391.2 103.2 384 112 384C120.8 384 128 391.2 128 400z"/></svg>