<svg xmlns="http://www.w3.org/2000/svg" viewBox="0 0 640 640"><!--! Font Awesome Pro 7.1.0 by @fontawesome - https://fontawesome.com License - https://fontawesome.com/license (Commercial License) Copyright 2025 Fonticons, Inc. --><path fill="currentColor" d="M297.4 534.6C303.7 540.9 311.9 544 320 544C328.1 544 336.4 540.9 342.6 534.6L502.6 374.6C511.8 365.4 514.5 351.7 509.5 339.7C504.5 327.7 492.9 320 480 320L384 320L384 144C384 117.5 362.5 96 336 96L304 96C277.5 96 256 117.5 256 144L256 320L160 320C147.1 320 135.4 327.8 130.4 339.8C125.4 351.8 128.2 365.5 137.4 374.6L137.4 374.6L297.4 534.6zM480 352L320 512L160 352L272 352C280.8 352 288 344.8 288 336L288 144C288 135.2 295.2 128 304 128L336 128C344.8 128 352 135.2 352 144L352 336C352 344.8 359.2 352 368 352L480 352z"/></svg>