<svg xmlns="http://www.w3.org/2000/svg" viewBox="0 0 640 640"><!--! Font Awesome Pro 7.1.0 by @fontawesome - https://fontawesome.com License - https://fontawesome.com/license (Commercial License) Copyright 2025 Fonticons, Inc. --><path fill="currentColor" d="M337 569L337 569C327.6 578.4 312.4 578.4 303.1 569L303.1 569L159.1 425C152.2 418.1 150.2 407.8 153.9 398.8C157.6 389.8 166.3 384 176 384L256 384L256 320L256 320L256 240C256 213.5 277.5 192 304 192L336 192C362.5 192 384 213.5 384 240L384 384L464 384C473.7 384 482.5 389.8 486.2 398.8C489.9 407.8 487.9 418.1 481 425L337 569zM352 320L352 240C352 231.2 344.8 224 336 224L304 224C295.2 224 288 231.2 288 240L288 320L288 320L288 400C288 408.8 280.8 416 272 416L195.3 416L320 540.7L444.7 416L368 416C359.2 416 352 408.8 352 400L352 320zM152 64C165.3 64 176 74.7 176 88C176 101.3 165.3 112 152 112C138.7 112 128 101.3 128 88C128 74.7 138.7 64 152 64zM264 64C277.3 64 288 74.7 288 88C288 101.3 277.3 112 264 112C250.7 112 240 101.3 240 88C240 74.7 250.7 64 264 64zM400 88C400 101.3 389.3 112 376 112C362.7 112 352 101.3 352 88C352 74.7 362.7 64 376 64C389.3 64 400 74.7 400 88zM488 64C501.3 64 512 74.7 512 88C512 101.3 501.3 112 488 112C474.7 112 464 101.3 464 88C464 74.7 474.7 64 488 64z"/></svg>