<svg xmlns="http://www.w3.org/2000/svg" viewBox="0 0 640 640"><!--! Font Awesome Pro 7.1.0 by @fontawesome - https://fontawesome.com License - https://fontawesome.com/license (Commercial License) Copyright 2025 Fonticons, Inc. --><path fill="currentColor" d="M511.1 320C529.3 320 544.1 305.2 544.1 287C544.1 278.3 540.6 269.9 534.4 263.7L498.7 228L562.4 164.3C578 148.7 578 123.4 562.4 107.7L532.3 77.7C516.7 62 491.4 62 475.8 77.7L412.1 141.4L376.4 105.7C370.2 99.5 361.8 96 353.1 96C334.9 96 320.1 110.8 320.1 129L320.1 288C320.1 305.7 334.4 320 352.1 320L511.1 320zM511.8 286.3C512 286.5 512.1 286.7 512.1 287C512.1 287.5 511.7 288 511.1 288L352.1 288L352.1 129C352.1 128.5 352.5 128 353.1 128C353.4 128 353.6 128.1 353.8 128.3L400.8 175.3C407 181.5 417.2 181.5 423.4 175.3L498.4 100.3C501.5 97.2 506.6 97.2 509.7 100.3L539.8 130.4C542.9 133.5 542.9 138.6 539.8 141.7L464.8 216.7C458.6 222.9 458.6 233.1 464.8 239.3L511.8 286.3zM129 320C110.8 320 96 334.8 96 353C96 361.7 99.5 370.1 105.7 376.3L141.4 412L77.7 475.7C62.1 491.3 62.1 516.6 77.7 532.3L107.8 562.4C123.4 578 148.7 578 164.4 562.4L228.1 498.7L263.8 534.4C270 540.6 278.4 544.1 287.1 544.1C305.3 544.1 320.1 529.3 320.1 511.1L320.1 352.1C320.1 334.4 305.8 320.1 288.1 320.1L129 320zM128 353C128 352.5 128.4 352 129 352L288 352L288 511C288 511.5 287.6 512 287 512C286.7 512 286.5 511.9 286.3 511.7L239.3 464.7C233.1 458.5 222.9 458.5 216.7 464.7L141.7 539.7C138.6 542.8 133.5 542.8 130.4 539.7L100.3 509.7C97.2 506.6 97.2 501.5 100.3 498.4L175.3 423.4C181.5 417.2 181.5 407 175.3 400.8L128.3 353.8C128.1 353.6 128 353.4 128 353.1z"/></svg>