<svg xmlns="http://www.w3.org/2000/svg" viewBox="0 0 640 640"><!--! Font Awesome Pro 7.1.0 by @fontawesome - https://fontawesome.com License - https://fontawesome.com/license (Commercial License) Copyright 2025 Fonticons, Inc. --><path fill="currentColor" d="M208 80C208 71.2 200.8 64 192 64C183.2 64 176 71.2 176 80L176 416L93.7 416C77.3 416 64 429.3 64 445.7C64 453.6 67.1 461.1 72.7 466.7L175 569C179.5 573.5 185.6 576 192 576C198.4 576 204.5 573.5 209 569L311.3 466.6C316.9 461 320 453.5 320 445.6C320 429.2 306.7 415.9 290.3 415.9L208 415.9L208 79.9zM464 560L464 224L546.3 224C562.7 224 576 210.7 576 194.3C576 186.4 572.9 178.9 567.3 173.3L465 71C460.5 66.5 454.4 64 448 64C441.6 64 435.5 66.5 431 71L328.7 173.4C323.1 179 320 186.5 320 194.4C320 210.8 333.3 224.1 349.7 224.1L432 224.1L432 560.1C432 568.9 439.2 576.1 448 576.1C456.8 576.1 464 568.9 464 560.1zM355.3 192L448 99.3L540.7 192L355.3 192zM192 540.7L99.3 448L284.7 448L192 540.7z"/></svg>