<svg xmlns="http://www.w3.org/2000/svg" viewBox="0 0 640 640"><!--! Font Awesome Pro 7.1.0 by @fontawesome - https://fontawesome.com License - https://fontawesome.com/license (Commercial License) Copyright 2025 Fonticons, Inc. --><path fill="currentColor" d="M176 640C167.2 640 160 632.8 160 624C160 615.2 167.2 608 176 608L464 608C472.8 608 480 615.2 480 624C480 632.8 472.8 640 464 640L176 640zM342.6 502.6C330.1 515.1 309.8 515.1 297.3 502.6L169.3 374.6C160.1 365.4 157.4 351.7 162.4 339.7C167.4 327.7 179.1 320 192 320L256 320L256 48C256 21.5 277.5 0 304 0L336 0C362.5 0 384 21.5 384 48L384 320L448 320C460.9 320 472.6 327.8 477.6 339.8C482.6 351.8 479.8 365.5 470.7 374.7L342.7 502.7zM320 480L448 352L368 352C359.2 352 352 344.8 352 336L352 48C352 39.2 344.8 32 336 32L304 32C295.2 32 288 39.2 288 48L288 336C288 344.8 280.8 352 272 352L192 352L320 480z"/></svg>