<svg xmlns="http://www.w3.org/2000/svg" viewBox="0 0 640 640"><!--! Font Awesome Pro 7.1.0 by @fontawesome - https://fontawesome.com License - https://fontawesome.com/license (Commercial License) Copyright 2025 Fonticons, Inc. --><path fill="currentColor" d="M152 576C138.7 576 128 565.3 128 552C128 538.7 138.7 528 152 528C165.3 528 176 538.7 176 552C176 565.3 165.3 576 152 576zM264 576C250.7 576 240 565.3 240 552C240 538.7 250.7 528 264 528C277.3 528 288 538.7 288 552C288 565.3 277.3 576 264 576zM352 552C352 538.7 362.7 528 376 528C389.3 528 400 538.7 400 552C400 565.3 389.3 576 376 576C362.7 576 352 565.3 352 552zM488 576C474.7 576 464 565.3 464 552C464 538.7 474.7 528 488 528C501.3 528 512 538.7 512 552C512 565.3 501.3 576 488 576zM337 441C327.6 450.4 312.4 450.4 303.1 441L159 297C152.1 290.1 150.1 279.8 153.8 270.8C157.5 261.8 166.3 256 176 256L256 256L256 192L256 192L256 112C256 85.5 277.5 64 304 64L336 64C362.5 64 384 85.5 384 112L384 256L464 256C473.7 256 482.5 261.8 486.2 270.8C489.9 279.8 487.9 290.1 481 297L337 441zM352 192L352 112C352 103.2 344.8 96 336 96L304 96C295.2 96 288 103.2 288 112L288 192L288 192L288 272C288 280.8 280.8 288 272 288L195.3 288L320 412.7L444.7 288L368 288C359.2 288 352 280.8 352 272L352 192z"/></svg>