<svg xmlns="http://www.w3.org/2000/svg" viewBox="0 0 640 640"><!--! Font Awesome Pro 7.1.0 by @fontawesome - https://fontawesome.com License - https://fontawesome.com/license (Commercial License) Copyright 2025 Fonticons, Inc. --><path fill="currentColor" d="M384 160C384 124.7 355.3 96 320 96C284.7 96 256 124.7 256 160C256 195.3 284.7 224 320 224C355.3 224 384 195.3 384 160zM362.3 246.2C349.5 252.5 335.2 256 320 256C304.8 256 290.5 252.5 277.7 246.2L206.2 371.4C240.1 389.7 278.8 400 320 400C408.8 400 486.4 351.8 527.9 280C532.3 272.4 542.1 269.7 549.8 274.2C557.5 278.7 560.1 288.4 555.6 296.1C508.6 377.4 420.7 432.1 320 432.1C273 432.1 228.9 420.2 190.3 399.3L93.9 567.9C89.5 575.6 79.7 578.2 72.1 573.9C64.5 569.6 61.8 559.7 66.1 552.1L163.1 382.3C131 359.6 104.1 330.2 84.4 296.1C80 288.5 82.6 278.7 90.2 274.2C97.8 269.7 107.6 272.4 112.1 280C129 309.2 151.9 334.6 179.1 354.3L251.6 227.4C234.5 210.1 224 186.3 224 160C224 107 267 64 320 64C373 64 416 107 416 160C416 186.3 405.5 210.1 388.4 227.4L436.9 312.3C428.4 318.8 419.4 324.6 410 329.6L362.3 246.1zM573.9 552.1C578.3 559.8 575.6 569.5 567.9 573.9C560.2 578.3 550.5 575.6 546.1 567.9L473.5 440.8C482.9 435.7 492 430.1 500.8 424L573.9 552z"/></svg>