<svg xmlns="http://www.w3.org/2000/svg" viewBox="0 0 640 640"><!--! Font Awesome Pro 7.1.0 by @fontawesome - https://fontawesome.com License - https://fontawesome.com/license (Commercial License) Copyright 2025 Fonticons, Inc. --><path fill="currentColor" d="M288.8 74.9C291 68.4 297.1 64 304 64L483.8 64C516.5 64 547.6 78.3 568.8 103.1L624.8 168.5C634.5 179.9 639.9 194.3 639.9 209.3C639.9 243.9 611.8 272 577.2 272L554.4 272C533.2 272 512.8 263.6 497.8 248.6L489.2 240L479.8 240L479.8 252C479.8 269.6 488.1 286.2 502.2 296.8L592.9 364.8C622.4 387 639.8 421.7 639.8 458.7C639.8 520.7 591.8 571.4 530.9 575.7C529.9 575.9 528.9 576 527.8 576L48.4 576C23.7 576.2 2.5 557.5 .2 532.4C-2.2 506 17.2 482.6 43.6 480.2L421.9 445.2L392.9 410.3C366.4 378.7 352 338.8 352 297.7L352 217.9L296.8 190.3C291.8 187.8 288.5 182.9 288 177.4C287.5 171.9 289.9 166.5 294.3 163.2L341.3 128L294.4 92.8C288.9 88.7 286.6 81.5 288.8 74.9zM525.9 544C526.3 543.9 526.7 543.9 527.2 543.9C572.2 541.6 608 504.3 608 458.7C608 431.8 595.4 406.5 573.9 390.4L483.2 322.4C461 305.8 448 279.7 448 252L448 224C448 215.2 455.2 208 464 208L496 208C500.2 208 504.3 209.7 507.3 212.7L520.6 226C529.6 235 541.8 240.1 554.5 240.1L577.3 240.1C594.3 240.1 608 226.3 608 209.4C608 202.1 605.4 195 600.6 189.4L544.6 124C529.4 106.2 507.2 96 483.8 96L352 96L377.6 115.2C381.6 118.2 384 123 384 128C384 133 381.6 137.8 377.6 140.8L334.3 173.3L375.1 193.7C380.5 196.4 383.9 202 383.9 208L383.9 297.7C383.9 331.4 395.7 364 417.3 389.9L459 439.8C462.2 443.7 464 448.6 464 453.7C464 464.9 455.5 474.3 444.3 475.3L46.5 512.1C37.7 512.9 31.2 520.7 32 529.5C32.8 537.9 39.8 544.1 48.1 544L525.8 544zM320 263.4L320 297.6C320 299 320 300.4 320 301.9L171.7 203C165.6 199 157.6 199.5 152.2 204.4L63 283.7L190.6 272.1C197.3 271.5 203.7 275.1 206.5 281.2C209.3 287.3 208.1 294.5 203.3 299.3L150.6 352L327.2 352C330.2 363 334 373.7 338.7 384L112 384C105.5 384 99.7 380.1 97.2 374.1C94.7 368.1 96.1 361.2 100.7 356.7L149.5 307.9L17.5 319.9C10.6 320.5 4.1 316.7 1.4 310.3C-1.3 303.9 .2 296.6 5.4 292L130.9 180.5C147.2 166 171.3 164.3 189.4 176.4L320 263.4zM495.2 121.7L527.2 137.7C535.1 141.7 538.3 151.3 534.4 159.2C530.5 167.1 520.8 170.3 512.9 166.4L480.9 150.4C473 146.4 469.8 136.8 473.7 128.9C477.6 121 487.3 117.8 495.2 121.7z"/></svg>