<svg xmlns="http://www.w3.org/2000/svg" viewBox="0 0 640 640"><!--! Font Awesome Pro 7.1.0 by @fontawesome - https://fontawesome.com License - https://fontawesome.com/license (Commercial License) Copyright 2025 Fonticons, Inc. --><path fill="currentColor" d="M512 160C529.7 160 544 145.7 544 128C544 110.3 529.7 96 512 96C494.3 96 480 110.3 480 128C480 145.7 494.3 160 512 160zM450 112C457.1 84.4 482.2 64 512 64C547.3 64 576 92.7 576 128C576 163.3 547.3 192 512 192C507 192 502.1 191.4 497.4 190.3L493 196.4L437 273.9L433.3 279C442.5 290.1 448 304.3 448 319.9C448 335.5 442.5 349.7 433.3 360.8L437 365.9L493 443.4L497.4 449.5C502.1 448.4 507 447.8 512 447.8C547.3 447.8 576 476.5 576 511.8C576 547.1 547.3 575.8 512 575.8C482.2 575.8 457.1 555.4 450 527.8L190 527.8C182.9 555.4 157.8 575.8 128 575.8C92.7 575.8 64 547.1 64 511.8C64 482 84.4 456.9 112 449.8L112 189.8C84.4 182.9 64 157.8 64 128C64 92.7 92.7 64 128 64C157.8 64 182.9 84.4 190 112L450 112zM450 144L190 144C184.2 166.5 166.5 184.2 144 190L144 450C166.5 455.8 184.2 473.5 190 496L450 496C453.1 483.8 459.8 473 468.8 464.8L467 462.3L411 384.8L407.3 379.7C400.1 382.5 392.2 384.1 384 384.1C348.7 384.1 320 355.4 320 320.1C320 284.8 348.7 256.1 384 256.1C392.2 256.1 400.1 257.7 407.3 260.5L411 255.4L467 177.9L468.8 175.4C459.8 167.2 453.1 156.4 450 144.2zM96 512C96 529.7 110.3 544 128 544C145.7 544 160 529.7 160 512C160 494.3 145.7 480 128 480C110.3 480 96 494.3 96 512zM480 512C480 529.7 494.3 544 512 544C529.7 544 544 529.7 544 512C544 494.3 529.7 480 512 480C494.3 480 480 494.3 480 512zM352 320C352 337.7 366.3 352 384 352C401.7 352 416 337.7 416 320C416 302.3 401.7 288 384 288C366.3 288 352 302.3 352 320zM128 160C145.7 160 160 145.7 160 128C160 110.3 145.7 96 128 96C110.3 96 96 110.3 96 128C96 145.7 110.3 160 128 160z"/></svg>