<svg xmlns="http://www.w3.org/2000/svg" viewBox="0 0 640 640"><!--! Font Awesome Pro 7.1.0 by @fontawesome - https://fontawesome.com License - https://fontawesome.com/license (Commercial License) Copyright 2025 Fonticons, Inc. --><path fill="currentColor" d="M551.2 66.6C557.4 62.5 565.9 63.2 571.3 68.7C576.7 74.2 577.5 82.6 573.4 88.8L571.3 91.3L419.3 243.3L494.1 318.1C512.8 336.8 512.8 367.2 494.1 386L354.8 525.3L350.1 529.5C340.3 537.5 328.4 542.4 315.8 543.7L309.5 544L144 544C117.5 544 96 522.5 96 496L96 330.5C96 315.6 101.2 301.3 110.5 289.9L114.8 285.2L254.1 145.9C272.8 127.2 303.2 127.2 322 145.9L396.8 220.7L548.8 68.7L551.3 66.6zM137.4 307.9C131.4 313.9 128 322 128 330.5L128 496C128 504.8 135.2 512 144 512L309.5 512C318 512 326.1 508.6 332.1 502.6L406 428.7L211.2 233.9L137.3 307.8zM299.3 168.6C293.8 163.1 285.4 162.5 279.2 166.6L276.7 168.6L234 211.4L428.8 406.2L471.5 363.4L473.5 360.9C477 355.6 477 348.6 473.5 343.3L471.5 340.8L299.4 168.7z"/></svg>