<svg xmlns="http://www.w3.org/2000/svg" viewBox="0 0 640 640"><!--! Font Awesome Pro 7.1.0 by @fontawesome - https://fontawesome.com License - https://fontawesome.com/license (Commercial License) Copyright 2025 Fonticons, Inc. --><path fill="currentColor" d="M202 64C177.1 64.1 158.1 86.5 162.2 111.1L189.1 272.8C190.2 279.5 189.2 286.3 186.2 292.4L79.1 506.5C63.2 538.4 86.4 576 122.1 576L518.3 576C554 576 577.2 538.4 561.2 506.5L454.1 292.3C451.1 286.3 450 279.4 451.2 272.7L478.1 111.1C482.2 86.5 463.2 64 438.2 64C420.8 64 405.4 75.1 399.9 91.6L395.1 106C384.3 138.3 354.2 160 320.2 160C286.2 160 256 138.2 245.2 106L240.4 91.6C235 75.2 219.6 64 202.2 64L202 64zM193.8 105.8C192.9 100.7 196.9 96 202.1 96C205.7 96 208.9 98.3 210.1 101.8L214.9 116.2C230 161.4 272.4 192 320.2 192C368 192 410.4 161.4 425.5 116.1L430.3 101.7C431.4 98.3 434.7 95.9 438.3 95.9C443.5 95.9 447.5 100.6 446.6 105.7L419.6 267.5C417.4 280.8 419.4 294.5 425.5 306.6L532.6 520.8C537.9 531.4 530.2 544 518.3 544L122.1 544C110.2 544 102.5 531.5 107.8 520.8L214.9 306.6C220.9 294.5 223 280.8 220.8 267.5L193.8 105.8z"/></svg>