<svg xmlns="http://www.w3.org/2000/svg" viewBox="0 0 640 640"><!--! Font Awesome Pro 7.1.0 by @fontawesome - https://fontawesome.com License - https://fontawesome.com/license (Commercial License) Copyright 2025 Fonticons, Inc. --><path fill="currentColor" d="M464 384C462.4 384 460.9 384 459.3 384.1C462.3 373.9 464 363.1 464 352C525.9 352 576 402.1 576 464C576 525.9 525.9 576 464 576C402.1 576 352 525.9 352 464C363.2 464 374 462.4 384.1 459.3C384 460.8 384 462.4 384 464C384 508.2 419.8 544 464 544C508.2 544 544 508.2 544 464C544 419.8 508.2 384 464 384zM384.5 407.1C378.1 410.9 370.9 413.6 363.2 415C359.5 415.6 355.8 416 351.9 416L287.9 416C284.1 416 280.3 415.7 276.6 415C269 413.6 261.8 410.9 255.3 407.1L187.1 475.3C180.9 481.5 170.7 481.5 164.5 475.3C158.3 469.1 158.3 458.9 164.5 452.7L232.7 384.5C228.9 378.1 226.2 370.9 224.8 363.2C224.2 359.5 223.8 355.8 223.8 351.9L223.8 287.9C223.8 284.1 224.1 280.3 224.8 276.6C226.2 269 228.9 261.8 232.7 255.3L164.5 187.1C158.3 180.9 158.3 170.7 164.5 164.5C170.7 158.3 180.9 158.3 187.1 164.5L255.3 232.7C261.7 228.9 268.9 226.2 276.6 224.8C280.3 224.2 284 223.8 287.9 223.8L351.9 223.8C355.7 223.8 359.5 224.1 363.2 224.8C370.8 226.2 378 228.9 384.5 232.7L452.7 164.5C458.9 158.3 469.1 158.3 475.3 164.5C481.5 170.7 481.5 180.9 475.3 187.1L407.1 255.3C410.9 261.7 413.6 268.9 415 276.6C415.6 280.3 416 284 416 287.9L416 351.9C416 355.7 415.7 359.5 415 363.2C413.6 370.8 410.9 378 407.1 384.5L475.3 452.7C481.5 458.9 481.5 469.1 475.3 475.3C469.1 481.5 458.9 481.5 452.7 475.3L384.5 407.1zM176 64C237.9 64 288 114.1 288 176C276.8 176 266 177.6 255.9 180.7C256 179.2 256 177.6 256 176C256 131.8 220.2 96 176 96C131.8 96 96 131.8 96 176C96 220.2 131.8 256 176 256C177.6 256 179.1 256 180.7 255.9C177.7 266.1 176 276.9 176 288C114.1 288 64 237.9 64 176C64 114.1 114.1 64 176 64zM64 464C64 402.1 114.1 352 176 352C176 363.2 177.6 374 180.7 384.1C179.2 384 177.6 384 176 384C131.8 384 96 419.8 96 464C96 508.2 131.8 544 176 544C220.2 544 256 508.2 256 464C256 462.4 256 460.9 255.9 459.3C266.1 462.3 276.9 464 288 464C288 525.9 237.9 576 176 576C114.1 576 64 525.9 64 464zM384.1 180.7C373.9 177.7 363.1 176 352 176C352 114.1 402.1 64 464 64C525.9 64 576 114.1 576 176C576 237.9 525.9 288 464 288C464 276.8 462.4 266 459.3 255.9C460.8 256 462.4 256 464 256C508.2 256 544 220.2 544 176C544 131.8 508.2 96 464 96C419.8 96 384 131.8 384 176C384 177.6 384 179.1 384.1 180.7zM288 256C270.3 256 256 270.3 256 288L256 352C256 369.7 270.3 384 288 384L352 384C369.7 384 384 369.7 384 352L384 288C384 270.3 369.7 256 352 256L288 256z"/></svg>