<svg xmlns="http://www.w3.org/2000/svg" viewBox="0 0 640 640"><!--! Font Awesome Pro 7.1.0 by @fontawesome - https://fontawesome.com License - https://fontawesome.com/license (Commercial License) Copyright 2025 Fonticons, Inc. --><path fill="currentColor" d="M0 176C0 167.2 7.2 160 16 160L272 160C280.8 160 288 167.2 288 176C288 184.8 280.8 192 272 192L160 192L160 256L480 256L480 192L368 192C359.2 192 352 184.8 352 176C352 167.2 359.2 160 368 160L624 160C632.8 160 640 167.2 640 176C640 184.8 632.8 192 624 192L512 192L512 288C512 292.6 510 297 506.5 300L459.7 340.9L460.8 342.3L489.6 380.7C504.1 400.1 512 423.7 512 447.9L512 495.9C512 504.7 504.8 511.9 496 511.9C487.2 511.9 480 504.7 480 495.9L480 447.9C480 430.6 474.4 413.7 464 399.9L435.6 362L378.5 411.9C375.6 414.5 371.8 415.9 368 415.9L272 415.9C268.1 415.9 264.4 414.5 261.5 411.9L204.4 362.1L176 400C165.6 413.8 160 430.7 160 448L160 496C160 504.8 152.8 512 144 512C135.2 512 128 504.8 128 496L128 448C128 423.8 135.9 400.2 150.4 380.8L179.2 342.4L180.3 341L133.5 300.1C130 297.1 128 292.7 128 288.1L128 192.1L16 192.1C7.2 192.1 0 184.9 0 176.1zM168.3 288L278 384L362 384L471.7 288L168.3 288z"/></svg>