<svg xmlns="http://www.w3.org/2000/svg" viewBox="0 0 640 640"><!--! Font Awesome Pro 7.1.0 by @fontawesome - https://fontawesome.com License - https://fontawesome.com/license (Commercial License) Copyright 2025 Fonticons, Inc. --><path fill="currentColor" d="M320.2 48C330.2 48 339.5 52.5 345.4 60.5C381.8 109.9 512 292.8 512 384C512 490 426 576 320 576C214 576 128 490 128 384C128 292.8 258.2 109.9 294.6 60.5C299.8 53.5 307.5 49.2 316.1 48.2L319.8 48L320.2 48zM320 80C301.9 104.6 261.3 161.3 225.2 222.7C207 253.7 190.4 285.3 178.4 314.2C166.1 343.8 159.9 367.6 159.9 384C159.9 472.4 231.5 544 319.9 544C408.3 544 479.9 472.4 479.9 384C479.9 367.6 473.7 343.8 461.4 314.2C449.4 285.3 432.8 253.7 414.6 222.7C378.6 161.2 338 104.6 319.9 80zM320 296C328.8 296 336 303.2 336 312L336 368L392 368C400.8 368 408 375.2 408 384C408 392.8 400.8 400 392 400L336 400L336 456L335.7 459.2C334.2 466.5 327.7 472 320 472C312.3 472 305.8 466.5 304.3 459.2L304 456L304 400L248 400C239.2 400 232 392.8 232 384C232 375.2 239.2 368 248 368L304 368L304 312C304 303.2 311.2 296 320 296z"/></svg>