<svg xmlns="http://www.w3.org/2000/svg" viewBox="0 0 640 640"><!--! Font Awesome Pro 7.1.0 by @fontawesome - https://fontawesome.com License - https://fontawesome.com/license (Commercial License) Copyright 2025 Fonticons, Inc. --><path fill="currentColor" d="M320 544C231.6 544 160 472.4 160 384C160 367.6 166.2 343.8 178.5 314.2C190.5 285.3 207.1 253.7 225.3 222.8C261.3 161.4 301.9 104.7 320 80.1C338.1 104.7 378.7 161.4 414.7 222.8C432.9 253.8 449.5 285.3 461.5 314.2C473.8 343.8 480 367.6 480 384C480 472.4 408.4 544 320 544zM128 384C128 490 214 576 320 576C426 576 512 490 512 384C512 292.8 381.8 109.9 345.4 60.5C339.5 52.5 330.2 48 320.2 48L319.8 48C309.8 48 300.5 52.5 294.6 60.5C258.2 109.9 128 292.8 128 384zM240 384C240 375.2 232.8 368 224 368C215.2 368 208 375.2 208 384C208 445.9 258.1 496 320 496C328.8 496 336 488.8 336 480C336 471.2 328.8 464 320 464C275.8 464 240 428.2 240 384z"/></svg>