<svg xmlns="http://www.w3.org/2000/svg" viewBox="0 0 640 640"><!--! Font Awesome Pro 7.1.0 by @fontawesome - https://fontawesome.com License - https://fontawesome.com/license (Commercial License) Copyright 2025 Fonticons, Inc. --><path fill="currentColor" d="M256 336L256 240C256 160.5 320.5 96 400 96C479.5 96 544 160.5 544 240C544 319.5 479.5 384 400 384L304 384C277.5 384 256 362.5 256 336zM224 240L224 336C224 339 224.2 342 224.5 344.9L183.5 385.9C170.8 374.8 154.2 368 136 368C96.2 368 64 400.2 64 440C64 477.2 92.2 507.8 128.4 511.6C132.2 547.8 162.8 576 200 576C239.8 576 272 543.8 272 504C272 485.8 265.2 469.2 254.1 456.5L295.1 415.5C298 415.8 301 416 304 416L400 416C497.2 416 576 337.2 576 240C576 142.8 497.2 64 400 64C302.8 64 224 142.8 224 240zM236.2 378.4C242.6 388.7 251.3 397.3 261.6 403.8L226.4 439C215.2 450.2 218.6 466.6 227.5 475C235.2 482.3 240 492.6 240 504.1C240 526.2 222.1 544.1 200 544.1C177.9 544.1 160 526.2 160 504.1C160 491 149.1 480.1 136 480.1C113.9 480.1 96 462.2 96 440.1C96 418 113.9 400.1 136 400.1C147.5 400.1 157.8 404.9 165.1 412.6C173.5 421.5 189.9 424.9 201.1 413.7L236.2 378.6z"/></svg>