<svg xmlns="http://www.w3.org/2000/svg" viewBox="0 0 640 640"><!--! Font Awesome Pro 7.1.0 by @fontawesome - https://fontawesome.com License - https://fontawesome.com/license (Commercial License) Copyright 2025 Fonticons, Inc. --><path fill="currentColor" d="M576 224C576 204.1 559.9 180.1 511.2 159.5C486.6 149.1 456.5 141 422.3 135.6C400.9 196.7 406.1 256.9 443.5 308.6C469 303.4 491.9 296.7 511.2 288.5C559.9 267.9 576 243.9 576 224zM380.3 238.5C365.1 246.9 343.5 256 320 256C296.5 256 274.9 246.9 259.7 238.5C255.5 264.7 246.2 290.2 231.1 314.4C258.6 318.1 288.5 320 319.9 320C351.3 320 381.2 318 408.7 314.4C393.7 290.2 384.3 264.7 380.1 238.5zM377.7 202.4C378.1 178.9 382.2 155 389.9 131.4C367.8 129.2 344.4 128 320 128C295.6 128 272.2 129.2 250.1 131.4C257.8 155 261.9 178.9 262.3 202.4C265.6 204.7 269.7 207.4 274.5 210C287.7 217.4 304 223.9 320 223.9C336 223.9 352.4 217.4 365.5 210C370.2 207.3 374.4 204.7 377.7 202.3zM128.8 288.5C148.1 296.7 171 303.4 196.5 308.6C234 256.8 239.1 196.6 217.7 135.6C183.5 141 153.3 149.1 128.8 159.5C80.1 180.1 64 204.1 64 224C64 243.9 80.1 267.9 128.8 288.5zM608 224L608 408C608 455.6 569.4 489.6 518.5 510.9C466.7 532.6 396.4 544 320 544C243.6 544 173.3 532.6 121.5 510.9C70.6 489.6 32 455.6 32 408L32 224C32 144 160.9 96 320 96C479.1 96 608 144 608 224zM576 286.8C528.1 328.4 431.5 352 320 352C208.5 352 111.9 328.4 64 286.8L64 408C64 435.4 86.3 461.4 133.9 481.4C180.5 500.9 246.3 512 320 512C393.7 512 459.5 500.9 506.2 481.4C553.8 461.5 576 435.4 576 408L576 286.8z"/></svg>