<svg xmlns="http://www.w3.org/2000/svg" viewBox="0 0 640 640"><!--! Font Awesome Pro 7.1.0 by @fontawesome - https://fontawesome.com License - https://fontawesome.com/license (Commercial License) Copyright 2025 Fonticons, Inc. --><path fill="currentColor" d="M256 352C256 369.7 270.3 384 288 384L392.2 384C386.9 369 384 352.8 384 336C384 256.5 448.5 192 528 192C530.6 192 533.3 192.1 535.9 192.2C516.2 136.2 462.8 96 400 96C320.5 96 256 160.5 256 240L256 352zM224 345.4L224 240C224 142.8 302.8 64 400 64C486.5 64 558.5 126.5 573.2 208.8C575.3 220.6 562.9 228.9 551.2 226.4C543.7 224.8 535.9 224 528 224C466.1 224 416 274.1 416 336C416 355.2 420.8 373.2 429.3 389C435 399.5 430.4 413.8 418.5 415C412.4 415.6 406.2 416 400 416L294.6 416L254.1 456.5C265.2 469.2 272 485.8 272 504C272 543.8 239.8 576 200 576C162.8 576 132.2 547.8 128.4 511.6C92.2 507.8 64 477.2 64 440C64 400.2 96.2 368 136 368C154.2 368 170.8 374.8 183.5 385.9L224 345.4zM231.9 382.8L201 413.6C189.8 424.8 173.4 421.4 165 412.5C157.7 404.8 147.4 400 135.9 400C113.8 400 95.9 417.9 95.9 440C95.9 462.1 113.8 480 135.9 480C149 480 159.9 490.9 159.9 504C159.9 526.1 177.8 544 199.9 544C222 544 239.9 526.1 239.9 504C239.9 492.5 235.1 482.2 227.4 474.9C218.5 466.5 215.1 450.1 226.3 438.9L257.1 408.1C246.4 402.2 237.6 393.4 231.7 382.7z"/></svg>