<svg xmlns="http://www.w3.org/2000/svg" viewBox="0 0 640 640"><!--! Font Awesome Pro 7.1.0 by @fontawesome - https://fontawesome.com License - https://fontawesome.com/license (Commercial License) Copyright 2025 Fonticons, Inc. --><path fill="currentColor" d="M160 96C142.3 96 128 110.3 128 128L128 512C128 529.7 142.3 544 160 544L480 544C497.7 544 512 529.7 512 512L512 128C512 110.3 497.7 96 480 96L160 96zM96 128C96 92.7 124.7 64 160 64L480 64C515.3 64 544 92.7 544 128L544 512C544 547.3 515.3 576 480 576L160 576C124.7 576 96 547.3 96 512L96 128zM192 136C205.3 136 216 146.7 216 160C216 173.3 205.3 184 192 184C178.7 184 168 173.3 168 160C168 146.7 178.7 136 192 136zM264 160C264 146.7 274.7 136 288 136C301.3 136 312 146.7 312 160C312 173.3 301.3 184 288 184C274.7 184 264 173.3 264 160zM432 368C432 306.1 381.9 256 320 256C258.1 256 208 306.1 208 368C208 429.9 258.1 480 320 480C381.9 480 432 429.9 432 368zM176 368C176 288.5 240.5 224 320 224C399.5 224 464 288.5 464 368C464 447.5 399.5 512 320 512C240.5 512 176 447.5 176 368zM268.7 292.7C274.9 286.5 285.1 286.5 291.3 292.7L296 297.4C306.2 307.6 312 321.5 312 336C312 350.5 306.2 364.4 296 374.6L286.6 384C282.4 388.2 280 394 280 400C280 406 282.4 411.8 286.6 416L291.3 420.7C297.5 426.9 297.5 437.1 291.3 443.3C285.1 449.5 274.9 449.5 268.7 443.3L264 438.6C253.8 428.4 248 414.5 248 400C248 385.5 253.8 371.6 264 361.4L273.4 352C277.6 347.8 280 342 280 336C280 330 277.6 324.2 273.4 320L268.7 315.3C262.5 309.1 262.5 298.9 268.7 292.7zM371.3 292.7L376 297.4C386.2 307.6 392 321.5 392 336C392 350.5 386.2 364.4 376 374.6L366.6 384C362.4 388.2 360 394 360 400C360 406 362.4 411.8 366.6 416L371.3 420.7C377.5 426.9 377.5 437.1 371.3 443.3C365.1 449.5 354.9 449.5 348.7 443.3L344 438.6C333.8 428.4 328 414.5 328 400C328 385.5 333.8 371.6 344 361.4L353.4 352C357.6 347.8 360 342 360 336C360 330 357.6 324.2 353.4 320L348.7 315.3C342.5 309.1 342.5 298.9 348.7 292.7C354.9 286.5 365.1 286.5 371.3 292.7z"/></svg>