<svg xmlns="http://www.w3.org/2000/svg" viewBox="0 0 640 640"><!--! Font Awesome Pro 7.1.0 by @fontawesome - https://fontawesome.com License - https://fontawesome.com/license (Commercial License) Copyright 2025 Fonticons, Inc. --><path fill="currentColor" d="M432 323L432 299.4C432 282.1 439.1 267.5 447.3 256.9L447.3 256.9C457.8 243.4 464 226.4 464 208C464 163.8 428.2 128 384 128C339.8 128 304 163.8 304 208C304 234.2 316.6 257.5 336.2 272.2C346 279.5 350.7 291.7 348.5 303.7C346.3 315.7 337.4 325.4 325.7 328.7L160.7 374.9C153.7 376.9 146.2 376.4 139.5 373.5L96.2 354.9C100.5 442 172.4 512 260 512L376 512C429 512 472 469 472 416C472 388.5 460.5 363.8 442 346.3C435.6 340.3 432 331.9 432 323.1zM464 304L464 323C488.6 346.3 504 379.3 504 416C504 486.7 446.7 544 376 544L260 544C151.8 544 64 455 64 346.7C64 332 75.9 320 90.6 320C94.2 320 97.8 320.7 101.1 322.1L152 344C252.9 315.7 307.9 300.3 317 297.8C307.2 290.5 298.7 281.7 291.8 271.6C279.3 253.5 272 231.6 272 208C272 146.1 322.1 96 384 96C438.1 96 483.3 134.4 493.7 185.4C503.3 186.7 513 186.7 522.6 185.5L546.8 182.5C562.3 180.6 576 192.6 576 208.3C576 261.2 533.1 304 480.3 304L464 304zM495.6 217.8C493.9 237.8 486.8 256.4 475.9 272L480.3 272C513.2 272 540.2 247.1 543.6 215.2L526.6 217.3C516.3 218.6 505.9 218.8 495.6 217.8zM376 216C376 202.7 386.7 192 400 192C413.3 192 424 202.7 424 216C424 229.3 413.3 240 400 240C386.7 240 376 229.3 376 216zM389.2 375.7C383 422.4 347.8 462.7 298.5 475C258.1 485.1 217.3 474.1 188.8 448.8C182.2 442.9 181.6 432.8 187.5 426.2C193.4 419.6 203.5 419 210.1 424.9C230.8 443.2 260.7 451.5 290.8 444C327.6 434.8 353.1 405 357.5 371.5C358.7 362.7 366.7 356.6 375.5 357.8C384.3 359 390.4 367 389.2 375.8z"/></svg>