<svg xmlns="http://www.w3.org/2000/svg" viewBox="0 0 640 640"><!--! Font Awesome Pro 7.1.0 by @fontawesome - https://fontawesome.com License - https://fontawesome.com/license (Commercial License) Copyright 2025 Fonticons, Inc. --><path fill="currentColor" d="M472 128C494.3 128 513.5 141.1 522.5 160L544 160L550.5 160.3C582.8 163.6 608 190.9 608 224L608 304L624 304C632.8 304 640 311.2 640 320C640 328.8 632.8 336 624 336L608 336L608 416L607.7 422.5C604.6 452.6 580.7 476.6 550.6 479.6L544.1 479.9L522.7 479.9C513.7 498.8 494.5 511.9 472.1 511.9C443.1 511.9 419.2 489.9 416.4 461.6L416.1 455.9L416.1 335.9L224.1 335.9L224.1 455.9L223.8 461.6C220.9 489.8 197.1 511.9 168.1 511.9C145.8 511.9 126.5 498.8 117.5 479.9L96.1 479.9L89.6 479.6C59.5 476.5 35.5 452.6 32.5 422.5L32.2 416L32.2 336L16.2 336C7.4 336 .2 328.8 .2 320C.2 311.2 7.4 304 16.2 304L32.2 304L32.2 224C32.2 190.9 57.4 163.6 89.7 160.3L96.2 160L117.7 160C126.7 141.1 145.9 128 168.2 128C199.1 128 224.2 153.1 224.2 184L224.2 304L416.2 304L416.2 184C416.2 153.1 441.3 128 472.2 128zM472 160C458.7 160 448 170.7 448 184L448 456C448 469.3 458.7 480 472 480C485.3 480 496 469.3 496 456L496 184C496 170.7 485.3 160 472 160zM168 160C154.7 160 144 170.7 144 184L144 456C144 469.3 154.7 480 168 480C181.3 480 192 469.3 192 456L192 184C192 170.7 181.3 160 168 160zM96 192C78.3 192 64 206.3 64 224L64 416C64 433.7 78.3 448 96 448L112 448L112 192L96 192zM528 448L544 448C561.7 448 576 433.7 576 416L576 224C576 207.4 563.4 193.8 547.3 192.2L544 192L528 192L528 448z"/></svg>