<svg xmlns="http://www.w3.org/2000/svg" viewBox="0 0 640 640"><!--! Font Awesome Pro 7.1.0 by @fontawesome - https://fontawesome.com License - https://fontawesome.com/license (Commercial License) Copyright 2025 Fonticons, Inc. --><path fill="currentColor" d="M442.4 160L336.5 160L336.5 288L341.8 288C333.4 298.6 325.6 309.3 318.6 320L98.9 320L121.8 480L275.2 480C277 490.9 279.6 501.6 283 512L126.3 512L128.3 525.7C129.5 534.4 123.5 542.6 114.7 543.8C105.9 545 97.9 539 96.7 530.3L66.4 318.4C47.2 312.7 34.4 293 38.6 272.2L59.7 166.6C64.1 144.2 83.8 128 106.7 128L534.2 128C557.1 128 576.8 144.2 581.3 166.6L601 265C596.9 260.8 592.7 256.6 588.4 252.7C581 245.9 572.2 241.1 563.1 238.5L550 172.9C548.5 165.4 541.9 160 534.3 160L474.8 160L484.3 222.5C474.2 214.1 462.1 209.4 449.8 208.3L442.4 160zM304.5 288L304.5 160L198.3 160L179.1 288L304.5 288zM146.7 288L165.9 160L106.7 160C99.1 160 92.5 165.4 91 172.9L69.9 278.4C68.9 283.4 72.7 288 77.7 288L146.6 288zM428 263.6C434.3 258 442.5 256.1 448.6 256.1C456.6 256.2 462.6 259.4 467.3 263.7C481.5 276.5 493.6 290.1 505.3 304C510.3 298.8 515.9 293.1 519.9 289.5C531.1 279.2 548.5 279.3 559.6 289.6C598.1 325.1 640.5 385.7 640.5 448.2C640.5 537 569.3 608.2 480.5 608.2C391.7 608.2 320.5 537 320.5 448.2C320.5 411.7 336.5 375.7 357.1 344.5C377.9 313 404.4 284.9 428 263.7zM447.6 289C425.9 308.7 402.2 334.2 383.8 362C364.8 390.8 352.5 420.6 352.5 448.1C352.5 481.7 365.2 512.2 386.1 534.9C385 529.6 384.5 524.1 384.5 518.5C384.5 461.1 448.3 408 471.9 390.3C477.1 386.4 484 386.4 489.2 390.3C512.8 408 576.6 461.1 576.6 518.5C576.6 524.1 576 529.6 575 534.9C595.9 512.2 608.6 481.7 608.6 448.1C608.6 399.4 574.9 347.7 539.8 314.6C533.7 320.4 524.4 330.2 519.3 335.6C511 344.4 497 343.9 489.3 334.7C475.3 317.8 462.6 302.9 447.6 289zM544.5 518.5C544.5 501.1 534.4 480.8 517.1 460C505 445.5 491.3 433 480.5 424.2C469.8 433 456 445.5 443.9 460C426.6 480.7 416.5 501.1 416.5 518.5C416.5 548.3 443 576.1 480.5 576.1L480.6 576.1C518 576 544.5 548.2 544.5 518.5z"/></svg>