<svg xmlns="http://www.w3.org/2000/svg" viewBox="0 0 640 640"><!--! Font Awesome Pro 7.1.0 by @fontawesome - https://fontawesome.com License - https://fontawesome.com/license (Commercial License) Copyright 2025 Fonticons, Inc. --><path fill="currentColor" d="M283.2 164.3L242.4 109.8C266.6 100.9 292.7 96 320 96C347.3 96 373.4 100.9 397.6 109.8L356.8 164.2C345 161.5 332.7 160 320 160C307.3 160 295 161.5 283.2 164.3zM251.5 175.4C224 188.4 200.9 209 184.7 234.5L127.3 205.8C147.8 171.3 177.3 142.8 212.6 123.5L251.6 175.5zM170.4 263.1C163.7 280.8 160 300 160 320L96 320C96 289.7 102 260.7 113 234.4L170.5 263.1zM160 352L160 432L96 432L96 352L160 352zM160 464L160 528C160 536.8 152.8 544 144 544L112 544C103.2 544 96 536.8 96 528L96 464L160 464zM427.4 123.4C460.8 141.7 489.1 168.3 509.4 200.5L454.5 233.4C438.4 208.4 415.5 188.2 388.4 175.4L427.4 123.4zM524.6 228.7C537.1 256.6 544 287.5 544 320L480 320C480 299.5 476.2 280 469.2 262L524.7 228.7zM544 352L544 432L480 432L480 352L544 352zM544 464L544 528C544 536.8 536.8 544 528 544L496 544C487.2 544 480 536.8 480 528L480 464L544 464zM192 320C192 249.3 249.3 192 320 192C390.7 192 448 249.3 448 320L448 528C448 554.5 469.5 576 496 576L528 576C554.5 576 576 554.5 576 528L576 320C576 178.6 461.4 64 320 64C178.6 64 64 178.6 64 320L64 528C64 554.5 85.5 576 112 576L144 576C170.5 576 192 554.5 192 528L192 320zM320 240C311.2 240 304 247.2 304 256L304 560C304 568.8 311.2 576 320 576C328.8 576 336 568.8 336 560L336 256C336 247.2 328.8 240 320 240zM256 272C247.2 272 240 279.2 240 288L240 560C240 568.8 247.2 576 256 576C264.8 576 272 568.8 272 560L272 288C272 279.2 264.8 272 256 272zM384 272C375.2 272 368 279.2 368 288L368 560C368 568.8 375.2 576 384 576C392.8 576 400 568.8 400 560L400 288C400 279.2 392.8 272 384 272z"/></svg>