<svg xmlns="http://www.w3.org/2000/svg" viewBox="0 0 640 640"><!--! Font Awesome Pro 7.1.0 by @fontawesome - https://fontawesome.com License - https://fontawesome.com/license (Commercial License) Copyright 2025 Fonticons, Inc. --><path fill="currentColor" d="M176 96C167.2 96 160 103.2 160 112L160 528C160 536.8 167.2 544 176 544L464 544C472.8 544 480 536.8 480 528C480 519.2 472.8 512 464 512L192 512L192 336L400 336C408.8 336 416 328.8 416 320C416 311.2 408.8 304 400 304L192 304L192 128L464 128C472.8 128 480 120.8 480 112C480 103.2 472.8 96 464 96L176 96z"/></svg>