<svg xmlns="http://www.w3.org/2000/svg" viewBox="0 0 640 640"><!--! Font Awesome Pro 7.1.0 by @fontawesome - https://fontawesome.com License - https://fontawesome.com/license (Commercial License) Copyright 2025 Fonticons, Inc. --><path fill="currentColor" d="M448 256C448 261.6 447.7 267.2 447.1 272.7C458.4 271.7 469.5 271.8 479.3 272.6C479.8 267.1 480 261.6 480 256C480 150 394 64 288 64C182 64 96 150 96 256L96 448C96 518.7 153.3 576 224 576L233.3 576C256.2 576 278.1 569.9 297.1 559C291.8 549.7 287.3 540 283.6 529.8C268.8 538.9 251.5 544 233.4 544L224.1 544C171.1 544 128.1 501 128.1 448L128.1 256C128.1 167.6 199.7 96 288.1 96C376.5 96 448.1 167.6 448.1 256zM208 256C208 211.8 243.8 176 288 176C332.2 176 368 211.8 368 256L368 264C368 272.8 375.2 280 384 280C392.8 280 400 272.8 400 264L400 256C400 194.1 349.9 144 288 144C226.1 144 176 194.1 176 256L176 288C176 296.8 183.2 304 192 304L208 304C225.7 304 240 318.3 240 336C240 353.7 225.7 368 208 368L192 368C183.2 368 176 375.2 176 384C176 392.8 183.2 400 192 400L208 400C243.3 400 272 371.3 272 336C272 300.7 243.3 272 208 272L208 256zM464 352C525.9 352 576 402.1 576 464C576 525.9 525.9 576 464 576C402.1 576 352 525.9 352 464C352 402.1 402.1 352 464 352zM464 608C543.5 608 608 543.5 608 464C608 384.5 543.5 320 464 320C384.5 320 320 384.5 320 464C320 543.5 384.5 608 464 608zM521.4 403.1C514.3 397.9 504.2 399.5 499 406.6L446 479.5L419.2 452.7C413 446.5 402.8 446.5 396.6 452.7C390.4 458.9 390.4 469.1 396.6 475.3L436.6 515.3C439.9 518.6 444.5 520.3 449.2 519.9C453.9 519.5 458.1 517.1 460.9 513.4L524.9 425.4C530.1 418.3 528.5 408.2 521.4 403z"/></svg>