<svg xmlns="http://www.w3.org/2000/svg" viewBox="0 0 640 640"><!--! Font Awesome Pro 7.1.0 by @fontawesome - https://fontawesome.com License - https://fontawesome.com/license (Commercial License) Copyright 2025 Fonticons, Inc. --><path fill="currentColor" d="M448 256C448 272.9 445.4 289.2 440.5 304.4C442.9 304.1 445.4 304 448 304C456.7 304 465 305.7 472.6 308.9C477.4 292.1 480 274.3 480 256C480 150 394 64 288 64C182 64 96 150 96 256L96 448C96 518.7 153.3 576 224 576L233.3 576C259.3 576 284.1 568.1 304.8 554.2C304.3 550.9 304 547.5 304 544L304 513C286.2 532.4 260.7 544 233.3 544L224 544C171 544 128 501 128 448L128 256C128 167.6 199.6 96 288 96C376.4 96 448 167.6 448 256zM208 256C208 211.8 243.8 176 288 176C332.2 176 368 211.8 368 256L368 264C368 272.8 375.2 280 384 280C392.8 280 400 272.8 400 264L400 256C400 194.1 349.9 144 288 144C226.1 144 176 194.1 176 256L176 288C176 296.8 183.2 304 192 304L208 304C225.7 304 240 318.3 240 336C240 353.7 225.7 368 208 368L192 368C183.2 368 176 375.2 176 384C176 392.8 183.2 400 192 400L208 400C243.3 400 272 371.3 272 336C272 300.7 243.3 272 208 272L208 256zM464 368C464 359.2 456.8 352 448 352C439.2 352 432 359.2 432 368L432 592C432 600.8 439.2 608 448 608C456.8 608 464 600.8 464 592L464 368zM544 400C544 391.2 536.8 384 528 384C519.2 384 512 391.2 512 400L512 560C512 568.8 519.2 576 528 576C536.8 576 544 568.8 544 560L544 400zM384 416C384 407.2 376.8 400 368 400C359.2 400 352 407.2 352 416L352 544C352 552.8 359.2 560 368 560C376.8 560 384 552.8 384 544L384 416zM624 448C624 439.2 616.8 432 608 432C599.2 432 592 439.2 592 448L592 512C592 520.8 599.2 528 608 528C616.8 528 624 520.8 624 512L624 448z"/></svg>