<svg xmlns="http://www.w3.org/2000/svg" viewBox="0 0 640 640"><!--! Font Awesome Pro 7.1.0 by @fontawesome - https://fontawesome.com License - https://fontawesome.com/license (Commercial License) Copyright 2025 Fonticons, Inc. --><path fill="currentColor" d="M320 96C231.6 96 160 167.6 160 256L160 288C195.3 288 224 316.7 224 352C224 363.6 220.9 374.6 215.4 384C220.8 393.4 224 404.4 224 416C224 427.6 220.9 438.6 215.4 448C220.8 457.4 224 468.4 224 480C224 515.3 195.3 544 160 544L144 544C108.7 544 80 515.3 80 480C80 473.5 81 467.2 82.8 461.3C71.2 449.7 64 433.7 64 416C64 398.3 71.2 382.3 82.8 370.7C81 364.8 80 358.5 80 352C80 322.2 100.4 297.1 128 290L128 256C128 150 214 64 320 64C426 64 512 150 512 256L512 290C539.6 297.1 560 322.2 560 352C560 358.5 559 364.8 557.2 370.7C568.8 382.3 576 398.3 576 416C576 433.7 568.8 449.7 557.2 461.3C559 467.2 560 473.5 560 480C560 515.3 531.3 544 496 544L480 544C444.7 544 416 515.3 416 480C416 468.4 419.1 457.4 424.6 448C419.2 438.6 416 427.6 416 416C416 404.4 419.1 393.4 424.6 384C419.2 374.6 416 363.6 416 352C416 316.7 444.7 288 480 288L480 256C480 167.6 408.4 96 320 96zM496 320L480 320C462.3 320 448 334.3 448 352C448 360.2 451.1 367.7 456.1 373.3C461.5 379.4 461.5 388.6 456.1 394.6C451 400.3 448 407.7 448 415.9C448 424.1 451.1 431.6 456.1 437.2C461.5 443.3 461.5 452.5 456.1 458.5C451 464.2 448 471.6 448 479.8C448 497.5 462.3 511.8 480 511.8L496 511.8C513.7 511.8 528 497.5 528 479.8C528 474.1 526.5 468.7 523.9 464.1C519.7 456.7 522.1 447.3 529.2 442.8C538.1 437.1 544 427.1 544 415.8C544 404.5 538.1 394.5 529.2 388.8C522 384.2 519.7 374.9 523.9 367.5C526.5 362.9 528 357.5 528 351.8C528 334.1 513.7 319.8 496 319.8zM112 352C112 357.7 113.5 363.1 116.1 367.7C120.3 375.1 117.9 384.5 110.8 389C101.9 394.7 96 404.7 96 416C96 427.3 101.9 437.3 110.8 443C118 447.6 120.3 456.9 116.1 464.3C113.5 468.9 112 474.3 112 480C112 497.7 126.3 512 144 512L160 512C177.7 512 192 497.7 192 480C192 471.8 188.9 464.3 183.9 458.7C178.5 452.6 178.5 443.4 183.9 437.4C189 431.7 192 424.3 192 416.1C192 407.9 188.9 400.4 183.9 394.8C178.5 388.7 178.5 379.5 183.9 373.5C189 367.8 192 360.4 192 352.2C192 334.5 177.7 320.2 160 320.2L144 320.2C126.3 320.2 112 334.5 112 352.2z"/></svg>