<svg xmlns="http://www.w3.org/2000/svg" viewBox="0 0 640 640"><!--! Font Awesome Pro 7.1.0 by @fontawesome - https://fontawesome.com License - https://fontawesome.com/license (Commercial License) Copyright 2025 Fonticons, Inc. --><path fill="currentColor" d="M480 256C480 309.5 453.8 356.9 413.3 386C398.1 397 382.9 412.5 374.5 433.5L354.4 483.7C339.8 520.1 304.5 544 265.3 544L256 544C203 544 160 501 160 448L160 256C160 167.6 231.6 96 320 96C408.4 96 480 167.6 480 256zM404.3 445.4C409.8 431.7 420.1 420.6 432.1 412C480.5 377.1 512.1 320.3 512.1 256C512.1 150 426.1 64 320.1 64C214.1 64 128 150 128 256L128 448C128 518.7 185.3 576 256 576L265.3 576C317.6 576 364.7 544.1 384.1 495.5L404.2 445.3zM240 256C240 211.8 275.8 176 320 176C364.2 176 400 211.8 400 256L400 264C400 272.8 407.2 280 416 280C424.8 280 432 272.8 432 264L432 256C432 194.1 381.9 144 320 144C258.1 144 208 194.1 208 256L208 288C208 296.8 215.2 304 224 304L240 304C257.7 304 272 318.3 272 336C272 353.7 257.7 368 240 368L224 368C215.2 368 208 375.2 208 384C208 392.8 215.2 400 224 400L240 400C275.3 400 304 371.3 304 336C304 300.7 275.3 272 240 272L240 256z"/></svg>