<svg xmlns="http://www.w3.org/2000/svg" viewBox="0 0 640 640"><!--! Font Awesome Pro 7.1.0 by @fontawesome - https://fontawesome.com License - https://fontawesome.com/license (Commercial License) Copyright 2025 Fonticons, Inc. --><path fill="currentColor" d="M544 320C544 228.2 488.8 149.3 409.8 114.7L387.5 170.5C382.7 182.4 372.5 191.3 360.1 194.5L343.1 198.8C337.5 200.2 335.2 206.8 338.6 211.4L354.7 232.9C364.9 246.5 365.4 265 356 279.1L345.3 295.2C334.9 310.8 317.4 320.1 298.7 320.1L296.4 320.1C291 320.1 287.2 325.3 288.7 330.4L294.7 350.3C302.1 375.1 283.6 400.1 257.7 400.1C240.9 400.1 225.5 390.6 218 375.6L208.7 357.1C206.3 352.2 199.7 351.2 195.9 355L180.5 370.4C171 379.9 157.5 384 144.4 381.3L102.4 372.9C126 471 214.5 544 320 544C367.4 544 411.4 529.3 447.6 504.1L439.1 498L428.5 501.9C400.8 512.2 369.9 499.2 357.9 472.3L352.4 460C340.5 433.5 350.9 402.3 376.2 388.2L412.4 368L418.5 358.5C427.5 344.5 442.9 336 459.6 336C476.3 336 491.7 344.5 500.7 358.5L502.6 361.4L518.3 357C525.8 354.9 533.7 355.1 541.1 357.4C543.1 345.2 544.2 332.7 544.2 320zM532.4 388.4C530.6 387.5 528.6 387.4 526.8 387.9L511 392.3C497.6 396.1 483.2 390.6 475.7 378.8L473.7 375.7C470.6 370.9 465.3 368 459.6 368C453.9 368 448.6 370.9 445.5 375.7L439.4 385.2C436.6 389.6 432.7 393.3 428 395.9L391.8 416.1C380.9 422.2 376.5 435.5 381.6 446.9L387.1 459.3C392.3 470.8 405.5 476.4 417.4 472L436 465C441 463.1 446.6 463.9 451 467L473.4 483.2C500.7 457.6 521.5 425.2 533.3 388.7L532.4 388.3zM379.6 104C360.6 98.8 340.7 96 320 96C196.3 96 96 196.3 96 320C96 326.4 96.3 332.8 96.8 339L150.5 349.7C153.1 350.2 155.8 349.4 157.7 347.5L173.1 332.1C192.4 312.8 225 318.1 237.2 342.5L246.5 361C248.6 365.2 252.9 367.8 257.5 367.8C262 367.8 265.2 363.5 263.9 359.2L257.9 339.3C250.2 313.6 269.4 287.8 296.2 287.8L298.5 287.8C306.5 287.8 314 283.8 318.5 277.1L329.2 261C331.1 258.2 331 254.5 328.9 251.8L312.8 230.3C295.6 207.4 307.3 174.4 335.1 167.5L352.1 163.2C354.6 162.6 356.6 160.8 357.6 158.4L379.6 104zM64 320C64 178.6 178.6 64 320 64C461.4 64 576 178.6 576 320C576 461.4 461.4 576 320 576C178.6 576 64 461.4 64 320zM227.9 408.5L259.9 416.5C268.5 418.6 273.7 427.3 271.5 435.9C269.3 444.5 260.7 449.7 252.1 447.5L220.1 439.5C211.5 437.4 206.3 428.7 208.5 420.1C210.7 411.5 219.3 406.3 227.9 408.5zM312.1 411.5C303.5 409.4 298.3 400.7 300.5 392.1L308.5 360.1C310.6 351.5 319.3 346.3 327.9 348.5C336.5 350.7 341.7 359.3 339.5 367.9L331.5 399.9C329.4 408.5 320.7 413.7 312.1 411.5zM430.3 207.2L414.3 239.2C410.3 247.1 400.7 250.3 392.8 246.4C384.9 242.5 381.7 232.8 385.6 224.9L401.6 192.9C405.6 185 415.2 181.8 423.1 185.7C431 189.6 434.2 199.3 430.3 207.2z"/></svg>