<svg xmlns="http://www.w3.org/2000/svg" viewBox="0 0 640 640"><!--! Font Awesome Pro 7.1.0 by @fontawesome - https://fontawesome.com License - https://fontawesome.com/license (Commercial License) Copyright 2025 Fonticons, Inc. --><path fill="currentColor" d="M375.5 550.7L384.7 505C394.3 510 404.4 514.2 414.8 517.6L404.5 568.7C402.7 577.5 396.4 583.3 390.1 585.9C383.8 588.5 375.2 588.9 367.7 583.9L279.9 525.7L192.1 583.9C184.6 588.9 176.1 588.5 169.7 585.9C163.3 583.3 157.1 577.5 155.3 568.7L134.6 465.4L31.3 444.5C22.5 442.7 16.7 436.4 14.1 430.1C11.5 423.8 11.1 415.2 16.1 407.7L74.3 320L16.1 232.2C11.1 224.7 11.5 216.2 14.1 209.8C16.7 203.4 22.5 197.2 31.3 195.4L134.6 174.6L155.4 71.3C157.2 62.5 163.5 56.7 169.8 54.1C176.1 51.5 184.7 51.1 192.2 56.1L280 114.3L367.8 56.1C375.3 51.1 383.8 51.5 390.2 54.1C396.6 56.7 402.8 62.5 404.6 71.3L414.9 122.4C404.5 125.8 394.4 130.1 384.8 135L375.5 89.3L297.7 141C287 148.1 273 148.1 262.3 141L184.4 89.3L165.9 180.9C163.3 193.5 153.5 203.4 140.9 205.9L49.3 224.5L101 302.3C108.1 313 108.1 327 101 337.7L49.3 415.6L140.9 434.1C153.5 436.7 163.4 446.5 165.9 459.1L184.4 550.7L262.3 499C273 491.9 287 491.9 297.7 499L375.6 550.7zM280 208C287.9 208 295.7 208.8 303.2 210.4C297.3 219.9 292.1 229.9 287.8 240.4C285.2 240.2 282.6 240 280 240C235.8 240 200 275.8 200 320C200 364.2 235.8 400 280 400C282.6 400 285.2 399.9 287.8 399.6C292.1 410 297.3 420.1 303.2 429.6C295.7 431.2 288 432 280 432C218.1 432 168 381.9 168 320C168 258.1 218.1 208 280 208zM608 320C608 249.3 550.7 192 480 192C409.3 192 352 249.3 352 320C352 390.7 409.3 448 480 448C550.7 448 608 390.7 608 320zM320 320C320 231.6 391.6 160 480 160C568.4 160 640 231.6 640 320C640 408.4 568.4 480 480 480C391.6 480 320 408.4 320 320z"/></svg>