<svg xmlns="http://www.w3.org/2000/svg" viewBox="0 0 640 640"><!--! Font Awesome Pro 7.1.0 by @fontawesome - https://fontawesome.com License - https://fontawesome.com/license (Commercial License) Copyright 2025 Fonticons, Inc. --><path fill="currentColor" d="M525.1 246.8C556.7 289.4 547.7 349.5 505.2 381.1C491.8 391 476.8 396.9 461.4 399.1C437.6 402.4 412.3 412.5 390.5 425.9C368.9 439.2 347.7 457.7 334.8 480C299.5 541.2 221.2 562.2 159.9 526.9C98.6 491.6 77.8 413.2 113.2 352C141.3 303.4 155.9 235.1 160.4 183.6C162.4 161.3 172.1 139.6 189.5 122.8C227.7 86.1 288.5 87.3 325.2 125.5C343.1 144.1 368 162.3 393.4 177.1C418.8 191.9 446.9 204.7 471.9 211C492.5 216.3 511.5 228.4 525.2 246.8zM479.8 180C437.4 169.1 378.6 134.9 348.3 103.3C299.3 52.3 218.3 50.7 167.3 99.7C144.1 122 131.1 151 128.5 180.7C124.2 230 110.2 293.1 85.4 335.9C41.2 412.4 67.4 510.3 144 554.5C220.6 598.7 318.4 572.5 362.6 495.9C381.4 463.4 428.7 435.9 465.9 430.7C486.4 427.8 506.5 419.9 524.3 406.7C581.1 364.6 593 284.4 550.9 227.6C532.7 203 507.4 186.9 479.9 179.8zM288 400C235 400 192 357 192 304C192 251 235 208 288 208C341 208 384 251 384 304C384 357 341 400 288 400zM160 304C160 374.7 217.3 432 288 432C358.7 432 416 374.7 416 304C416 233.3 358.7 176 288 176C217.3 176 160 233.3 160 304zM248 304C248 281.9 265.9 264 288 264C296.8 264 304 256.8 304 248C304 239.2 296.8 232 288 232C248.2 232 216 264.2 216 304C216 312.8 223.2 320 232 320C240.8 320 248 312.8 248 304z"/></svg>