<svg xmlns="http://www.w3.org/2000/svg" viewBox="0 0 640 640"><!--! Font Awesome Pro 7.1.0 by @fontawesome - https://fontawesome.com License - https://fontawesome.com/license (Commercial License) Copyright 2025 Fonticons, Inc. --><path fill="currentColor" d="M320 528C234.8 528 160 443.7 160 352C160 301.2 174.7 238.9 203.5 190.3C232.2 141.9 271.4 112 320 112C368.6 112 407.8 141.9 436.5 190.3C465.3 238.9 480 301.1 480 352C480 443.7 405.2 528 320 528zM128 352C128 458 214 560 320 560C426 560 512 458 512 352C512 240 448 80 320 80C192 80 128 240 128 352zM298.8 198C305.3 192 305.8 181.9 299.8 175.4C293.8 168.9 283.7 168.4 277.2 174.4C253.3 196.2 236.1 227.1 224.9 258.6C213.7 290.2 208 323.7 208 352.1C208 360.9 215.2 368.1 224 368.1C232.8 368.1 240 360.9 240 352.1C240 327.6 245 297.7 255.1 269.3C265.2 240.8 280.1 215.2 298.8 198.1z"/></svg>