<svg xmlns="http://www.w3.org/2000/svg" viewBox="0 0 640 640"><!--! Font Awesome Pro 7.1.0 by @fontawesome - https://fontawesome.com License - https://fontawesome.com/license (Commercial License) Copyright 2025 Fonticons, Inc. --><path fill="currentColor" d="M320 128C315.5 128 311.2 129.9 308.2 133.2L132.2 325.2C127.9 329.9 126.8 336.6 129.3 342.5C131.8 348.4 137.7 352 144 352L496 352C502.3 352 508.1 348.2 510.6 342.4C513.1 336.6 512 329.8 507.7 325.1L331.7 133.1C328.7 129.8 324.4 127.9 319.9 127.9zM320 96C333.5 96 346.3 101.6 355.4 111.6L531.4 303.6C544.3 317.6 547.6 337.9 540 355.4C532.4 372.9 515 384 496 384L144 384C125 384 107.7 372.8 100.1 355.3C92.5 337.8 95.8 317.6 108.7 303.5L284.7 111.5C293.7 101.6 306.5 96 320 96zM152 464C138.7 464 128 474.7 128 488C128 501.3 138.7 512 152 512L488 512C501.3 512 512 501.3 512 488C512 474.7 501.3 464 488 464L152 464zM96 488C96 457.1 121.1 432 152 432L488 432C518.9 432 544 457.1 544 488C544 518.9 518.9 544 488 544L152 544C121.1 544 96 518.9 96 488z"/></svg>