<svg xmlns="http://www.w3.org/2000/svg" viewBox="0 0 640 640"><!--! Font Awesome Pro 7.1.0 by @fontawesome - https://fontawesome.com License - https://fontawesome.com/license (Commercial License) Copyright 2025 Fonticons, Inc. --><path fill="currentColor" d="M224 175.8C224 131.7 259.7 96 303.8 96C345.3 96 379.9 127.8 383.4 169.2L384.1 177.3C384.8 186.1 392.6 192.6 401.4 191.9C410.2 191.2 416.8 183.4 416 174.6L415.3 166.5C414.2 153.5 410.9 141.1 405.8 129.8C466.1 140.1 512 192.7 512 256L512 368C512 376.8 519.2 384 528 384C536.8 384 544 376.8 544 368L544 256C544 167.6 472.4 96 384 96L382.1 96C361.9 76.1 334.1 64 303.8 64C273.3 64 245.6 76.3 225.4 96.1C118 99.6 32 187.7 32 296C32 351.5 32 320.5 32 347.1C32 372.5 23.3 397.2 7.5 417.1L3.5 422C-2 428.9-.9 439 6 444.5C12.9 450 23 448.9 28.5 442L32.4 437.1C52.8 411.6 64 379.8 64 347.1C64 317.4 64 329 64 296C64 213.6 123.3 145.1 201.4 130.8C195.3 144.6 192 159.8 192 175.9C192 234.1 236.6 282.5 294.5 287.3L302.6 288C311.4 288.7 319.1 282.2 319.9 273.4C320.7 264.6 314.1 256.9 305.3 256.1L297.2 255.4C255.8 252 224 217.4 224 175.8zM413.4 359.3C410.6 354.9 405.6 352 400 352C391.2 352 384 359.2 384 368L384 528C384 536.8 376.8 544 368 544L336 544C327.2 544 320 536.8 320 528L320 448C320 447.3 320 446.6 319.9 446C320.4 442.2 319.5 438.2 317.2 434.8C312.1 427.6 302.2 425.8 294.9 430.8C279.4 441.6 260.5 448 240.1 448C219.7 448 200.8 441.6 185.3 430.8C178.1 425.7 168.1 427.5 163 434.8C160.6 438.2 159.8 442.2 160.3 446C160.2 446.7 160.2 447.4 160.2 448L160.2 528C160.2 536.8 153 544 144.2 544L112.2 544C103.4 544 96.2 536.8 96.2 528L96.2 416C96.2 407.2 89 400 80.2 400C71.4 400 64.2 407.2 64.2 416L64.2 528C64.2 554.5 85.7 576 112.2 576L144.2 576C170.7 576 192.2 554.5 192.2 528L192.2 470.7C207 476.7 223.2 480 240.2 480C257.2 480 273.4 476.7 288.2 470.7L288.2 528C288.2 554.5 309.7 576 336.2 576L368.2 576C394.7 576 416.2 554.5 416.2 528L416.2 413.6C423.4 420.8 430.9 426.8 439 431.7C442 433.6 445.1 435.2 448.2 436.7L448.2 447.1C448.2 500.6 491.6 544 545.1 544C589.5 544 628.3 513.8 639.1 470.6L639.8 467.9C641.9 459.3 636.7 450.6 628.2 448.5C619.7 446.4 610.9 451.6 608.8 460.1L608.1 462.8C600.9 491.7 574.9 511.9 545.2 511.9C509.4 511.9 480.3 482.9 480.3 447L480.3 446.2C487.9 447.3 495.9 447.9 504.3 447.9C540.9 447.9 577.7 437.6 603.7 411.1C609.9 404.8 609.8 394.7 603.5 388.5C597.2 382.3 587.1 382.4 580.9 388.7C562.9 407.1 535.6 415.9 504.3 415.9C483.8 415.9 468.9 412.3 455.7 404.2C442.2 396 429.1 382.2 413.7 359.2zM480 272C480 263.2 472.8 256 464 256C455.2 256 448 263.2 448 272C448 280.8 455.2 288 464 288C472.8 288 480 280.8 480 272z"/></svg>