<svg xmlns="http://www.w3.org/2000/svg" viewBox="0 0 640 640"><!--! Font Awesome Pro 7.1.0 by @fontawesome - https://fontawesome.com License - https://fontawesome.com/license (Commercial License) Copyright 2025 Fonticons, Inc. --><path fill="currentColor" d="M219.3 36.7L283.3 100.7C289.5 106.9 289.5 117.1 283.3 123.3C277.1 129.5 266.9 129.5 260.7 123.3L208 70.6L155.3 123.3C149.1 129.5 138.9 129.5 132.7 123.3C126.5 117.1 126.5 106.9 132.7 100.7L196.7 36.7C202.9 30.5 213.1 30.5 219.3 36.7zM379.3 36.7L432 89.4L484.7 36.7C490.9 30.5 501.1 30.5 507.3 36.7C513.5 42.9 513.5 53.1 507.3 59.3L443.3 123.3C437.1 129.5 426.9 129.5 420.7 123.3L356.7 59.3C350.5 53.1 350.5 42.9 356.7 36.7C362.9 30.5 373.1 30.5 379.3 36.7zM128 224C110.3 224 96 238.3 96 256L96 512C96 529.7 110.3 544 128 544L512 544C529.7 544 544 529.7 544 512L544 256C544 238.3 529.7 224 512 224L128 224zM64 256C64 220.7 92.7 192 128 192L512 192C547.3 192 576 220.7 576 256L576 512C576 547.3 547.3 576 512 576L128 576C92.7 576 64 547.3 64 512L64 256zM248 328C248 314.7 237.3 304 224 304C210.7 304 200 314.7 200 328C200 341.3 210.7 352 224 352C237.3 352 248 341.3 248 328zM168 328C168 297.1 193.1 272 224 272C254.9 272 280 297.1 280 328C280 358.9 254.9 384 224 384C193.1 384 168 358.9 168 328zM416 352C429.3 352 440 341.3 440 328C440 314.7 429.3 304 416 304C402.7 304 392 314.7 392 328C392 341.3 402.7 352 416 352zM416 272C446.9 272 472 297.1 472 328C472 358.9 446.9 384 416 384C385.1 384 360 358.9 360 328C360 297.1 385.1 272 416 272zM208 448C190.3 448 176 462.3 176 480L176 496C176 504.8 168.8 512 160 512C151.2 512 144 504.8 144 496L144 480C144 444.7 172.7 416 208 416L240 416C275.3 416 304 444.7 304 480L304 496C304 504.8 296.8 512 288 512C279.2 512 272 504.8 272 496L272 480C272 462.3 257.7 448 240 448L208 448zM368 480L368 496C368 504.8 360.8 512 352 512C343.2 512 336 504.8 336 496L336 480C336 444.7 364.7 416 400 416L432 416C467.3 416 496 444.7 496 480L496 496C496 504.8 488.8 512 480 512C471.2 512 464 504.8 464 496L464 480C464 462.3 449.7 448 432 448L400 448C382.3 448 368 462.3 368 480z"/></svg>