<svg xmlns="http://www.w3.org/2000/svg" viewBox="0 0 640 640"><!--! Font Awesome Pro 7.1.0 by @fontawesome - https://fontawesome.com License - https://fontawesome.com/license (Commercial License) Copyright 2025 Fonticons, Inc. --><path fill="currentColor" d="M320 112C302.3 112 288 126.3 288 144C288 161.7 302.3 176 320 176C337.7 176 352 161.7 352 144C352 126.3 337.7 112 320 112zM320 208C284.7 208 256 179.3 256 144C256 108.7 284.7 80 320 80C355.3 80 384 108.7 384 144C384 179.3 355.3 208 320 208zM352 320C352 302.3 337.7 288 320 288C302.3 288 288 302.3 288 320C288 337.7 302.3 352 320 352C337.7 352 352 337.7 352 320zM384 320C384 355.3 355.3 384 320 384C284.7 384 256 355.3 256 320C256 284.7 284.7 256 320 256C355.3 256 384 284.7 384 320zM352 496C352 478.3 337.7 464 320 464C302.3 464 288 478.3 288 496C288 513.7 302.3 528 320 528C337.7 528 352 513.7 352 496zM384 496C384 531.3 355.3 560 320 560C284.7 560 256 531.3 256 496C256 460.7 284.7 432 320 432C355.3 432 384 460.7 384 496z"/></svg>