<svg xmlns="http://www.w3.org/2000/svg" viewBox="0 0 640 640"><!--! Font Awesome Pro 7.1.0 by @fontawesome - https://fontawesome.com License - https://fontawesome.com/license (Commercial License) Copyright 2025 Fonticons, Inc. --><path fill="currentColor" d="M544 320C544 337.7 529.7 352 512 352C494.3 352 480 337.7 480 320C480 302.3 494.3 288 512 288C529.7 288 544 302.3 544 320zM352 320C352 337.7 337.7 352 320 352C302.3 352 288 337.7 288 320C288 302.3 302.3 288 320 288C337.7 288 352 302.3 352 320zM128 352C110.3 352 96 337.7 96 320C96 302.3 110.3 288 128 288C145.7 288 160 302.3 160 320C160 337.7 145.7 352 128 352z"/></svg>