<svg xmlns="http://www.w3.org/2000/svg" viewBox="0 0 640 640"><!--! Font Awesome Pro 7.1.0 by @fontawesome - https://fontawesome.com License - https://fontawesome.com/license (Commercial License) Copyright 2025 Fonticons, Inc. --><path fill="currentColor" d="M320 480C337.7 480 352 494.3 352 512C352 529.7 337.7 544 320 544C302.3 544 288 529.7 288 512C288 494.3 302.3 480 320 480zM320 288C337.7 288 352 302.3 352 320C352 337.7 337.7 352 320 352C302.3 352 288 337.7 288 320C288 302.3 302.3 288 320 288zM288 128C288 110.3 302.3 96 320 96C337.7 96 352 110.3 352 128C352 145.7 337.7 160 320 160C302.3 160 288 145.7 288 128z"/></svg>