<svg xmlns="http://www.w3.org/2000/svg" viewBox="0 0 640 640"><!--! Font Awesome Pro 7.1.0 by @fontawesome - https://fontawesome.com License - https://fontawesome.com/license (Commercial License) Copyright 2025 Fonticons, Inc. --><path fill="currentColor" d="M571.3 91.3C577.5 85.1 577.5 74.9 571.3 68.7C565.1 62.5 554.9 62.5 548.7 68.7L489.4 128C444.2 88.2 384.9 64 320 64C178.6 64 64 178.6 64 320C64 384.9 88.2 444.2 128 489.4L68.7 548.7C62.5 554.9 62.5 565.1 68.7 571.3C74.9 577.5 85.1 577.5 91.3 571.3L150.6 512C195.7 551.8 255 576 320 576C461.4 576 576 461.4 576 320C576 255.1 551.8 195.8 512 150.6L571.3 91.3zM466.7 150.7L150.7 466.7C116.6 427.4 96 376.1 96 320C96 196.3 196.3 96 320 96C376.1 96 427.4 116.6 466.7 150.7zM173.3 489.3L489.3 173.3C523.4 212.6 544 263.9 544 320C544 443.7 443.7 544 320 544C263.9 544 212.6 523.4 173.3 489.3z"/></svg>