<svg xmlns="http://www.w3.org/2000/svg" viewBox="0 0 640 640"><!--! Font Awesome Pro 7.1.0 by @fontawesome - https://fontawesome.com License - https://fontawesome.com/license (Commercial License) Copyright 2025 Fonticons, Inc. --><path fill="currentColor" d="M424 112C424 120.8 416.8 128 408 128L336 128L336 192L448 192C483.3 192 512 220.7 512 256L512 272.7C501.5 271.8 490.5 271.8 480 272.7L480 256C480 238.3 465.7 224 448 224L192 224C174.3 224 160 238.3 160 256L160 384C160 401.7 174.3 416 192 416L224 416C229 416 233.8 418.4 236.8 422.4L270.4 467.2C276.4 475.3 285.9 480 296 480L304.7 480C305.6 491 307.4 501.6 310.1 512L296.1 512C276 512 257 502.5 244.9 486.4L216 448L192 448C156.7 448 128 419.3 128 384L128 336L96 336L96 416C96 424.8 88.8 432 80 432C71.2 432 64 424.8 64 416L64 224C64 215.2 71.2 208 80 208C88.8 208 96 215.2 96 224L96 304L128 304L128 256C128 220.7 156.7 192 192 192L304 192L304 128L232 128C223.2 128 216 120.8 216 112C216 103.2 223.2 96 232 96L408 96C416.8 96 424 103.2 424 112zM544 278L544 240C544 231.2 551.2 224 560 224C568.8 224 576 231.2 576 240L576 289.4C565.8 284.7 555.1 280.9 544 278zM400 288C404.1 288 407.8 289.5 410.6 292C395.5 299.5 381.5 309 369 320L240 320C231.2 320 224 312.8 224 304C224 295.2 231.2 288 240 288L400 288zM608 464C608 402.1 557.9 352 496 352C434.1 352 384 402.1 384 464C384 525.9 434.1 576 496 576C557.9 576 608 525.9 608 464zM352 464C352 384.5 416.5 320 496 320C575.5 320 640 384.5 640 464C640 543.5 575.5 608 496 608C416.5 608 352 543.5 352 464zM496 508C507 508 516 517 516 528C516 539 507 548 496 548C485 548 476 539 476 528C476 517 485 508 496 508zM496 384C504.8 384 512 391.2 512 400L512 464C512 472.8 504.8 480 496 480C487.2 480 480 472.8 480 464L480 400C480 391.2 487.2 384 496 384z"/></svg>