<svg xmlns="http://www.w3.org/2000/svg" viewBox="0 0 640 640"><!--! Font Awesome Pro 7.1.0 by @fontawesome - https://fontawesome.com License - https://fontawesome.com/license (Commercial License) Copyright 2025 Fonticons, Inc. --><path fill="currentColor" d="M424 112C424 120.8 416.8 128 408 128L336 128L336 192L448 192C483.3 192 512 220.7 512 256L512 448C512 483.3 483.3 512 448 512L296 512C275.9 512 256.9 502.5 244.8 486.4L216 448L192 448C156.7 448 128 419.3 128 384L128 336L96 336L96 416C96 424.8 88.8 432 80 432C71.2 432 64 424.8 64 416L64 224C64 215.2 71.2 208 80 208C88.8 208 96 215.2 96 224L96 304L128 304L128 256C128 220.7 156.7 192 192 192L304 192L304 128L232 128C223.2 128 216 120.8 216 112C216 103.2 223.2 96 232 96L408 96C416.8 96 424 103.2 424 112zM560 224C568.8 224 576 231.2 576 240L576 464C576 472.8 568.8 480 560 480C551.2 480 544 472.8 544 464L544 240C544 231.2 551.2 224 560 224zM192 224C174.3 224 160 238.3 160 256L160 384C160 401.7 174.3 416 192 416L224 416C229 416 233.8 418.4 236.8 422.4L270.4 467.2C276.4 475.3 285.9 480 296 480L448 480C465.7 480 480 465.7 480 448L480 256C480 238.3 465.7 224 448 224L192 224zM400 320L240 320C231.2 320 224 312.8 224 304C224 295.2 231.2 288 240 288L400 288C408.8 288 416 295.2 416 304C416 312.8 408.8 320 400 320z"/></svg>