<svg xmlns="http://www.w3.org/2000/svg" viewBox="0 0 640 640"><!--! Font Awesome Pro 7.1.0 by @fontawesome - https://fontawesome.com License - https://fontawesome.com/license (Commercial License) Copyright 2025 Fonticons, Inc. --><path fill="currentColor" d="M480 144C480 117.5 501.5 96 528 96C554.5 96 576 117.5 576 144C576 170.5 554.5 192 528 192C501.5 192 480 170.5 480 144zM608 144C608 99.8 572.2 64 528 64C483.8 64 448 99.8 448 144C448 188.2 483.8 224 528 224C572.2 224 608 188.2 608 144zM576 448L576 262.7C565.9 266.8 555.2 269.6 544 271L544 448C544 465.7 529.7 480 512 480L128 480C110.3 480 96 465.7 96 448L96 239.6L272.7 369.2C300.9 389.8 339.2 389.8 367.3 369.2L503.1 269.6C490.2 267.1 478 262.6 466.9 256.5L348.4 343.3C331.5 355.7 308.5 355.7 291.6 343.3L106.8 207.8C100 202.8 96 194.9 96 186.5C96 171.9 107.9 160 122.5 160L401 160C400.3 154.8 400 149.4 400 144C400 138.6 400.3 133.2 401 128L122.5 128C91 128 65.3 152.9 64.1 184L64 184L64 448C64 483.3 92.7 512 128 512L512 512C547.3 512 576 483.3 576 448z"/></svg>