<svg xmlns="http://www.w3.org/2000/svg" viewBox="0 0 640 640"><!--! Font Awesome Pro 7.1.0 by @fontawesome - https://fontawesome.com License - https://fontawesome.com/license (Commercial License) Copyright 2025 Fonticons, Inc. --><path fill="currentColor" d="M122.5 128C90.2 128 64 154.2 64 186.5C64 188.4 64.1 190.2 64.3 192L64 192L64 448C64 483.3 92.7 512 128 512L321.4 512C316.7 501.8 312.9 491.1 310 480L128 480C110.3 480 96 465.7 96 448L96 239.6L272.7 369.2C284 377.5 296.8 382.4 310.1 384.1C312.9 373.2 316.6 362.7 321.2 352.7C310.9 352.9 300.5 349.8 291.7 343.4L106.8 207.8C100 202.8 96 194.9 96 186.4C96 171.8 107.9 159.9 122.5 159.9L512 160C529.7 160 544 174.3 544 192L544 246C555.1 248.9 565.8 252.7 576 257.4L576 192C576 156.7 547.3 128 512 128L122.5 128zM496 320C557.9 320 608 370.1 608 432C608 493.9 557.9 544 496 544C434.1 544 384 493.9 384 432C384 370.1 434.1 320 496 320zM496 576C575.5 576 640 511.5 640 432C640 352.5 575.5 288 496 288C416.5 288 352 352.5 352 432C352 511.5 416.5 576 496 576zM553.4 371.1C546.3 365.9 536.2 367.5 531 374.6L478 447.5L451.2 420.7C445 414.5 434.8 414.5 428.6 420.7C422.4 426.9 422.4 437.1 428.6 443.3L468.6 483.3C471.9 486.6 476.5 488.3 481.2 487.9C485.9 487.5 490.1 485.1 492.9 481.4L556.9 393.4C562.1 386.3 560.5 376.2 553.4 371z"/></svg>