<svg xmlns="http://www.w3.org/2000/svg" viewBox="0 0 640 640"><!--! Font Awesome Pro 7.1.0 by @fontawesome - https://fontawesome.com License - https://fontawesome.com/license (Commercial License) Copyright 2025 Fonticons, Inc. --><path fill="currentColor" d="M576 488C576 518.9 551.1 544 520.1 544L119.9 544C88.9 544 64 518.9 64 488L64 216C64.2 200.5 72.1 186.1 85 177.5L275.6 50.4C302.5 32.5 337.5 32.5 364.4 50.4L555 177.5C567.9 186.1 575.8 200.5 576 216L576 488zM119.9 512L520.1 512C533.3 512 544 501.3 544 488L544 264.4L368.7 398.8C340 420.8 300.1 420.8 271.4 398.8L96 264.4L96 488C96 501.3 106.7 512 119.9 512zM544 216.6C544 211.5 541.5 206.8 537.3 204L346.6 77C330.5 66.3 309.5 66.3 293.3 77L102.7 204.1C98.5 206.9 96 211.6 96 216.7C96 221.4 98.2 225.8 101.9 228.7L290.8 373.4C308 386.6 332 386.6 349.2 373.4L538.1 228.6C541.8 225.7 544 221.3 544 216.6z"/></svg>