<svg xmlns="http://www.w3.org/2000/svg" viewBox="0 0 640 640"><!--! Font Awesome Pro 7.1.0 by @fontawesome - https://fontawesome.com License - https://fontawesome.com/license (Commercial License) Copyright 2025 Fonticons, Inc. --><path fill="currentColor" d="M576 216.6L576 336.5C566.6 331.1 555.7 327.9 544 327.9L544 264.3L368.7 398.7C340 420.7 300.1 420.7 271.4 398.7L96 264.4L96 488C96 501.3 106.7 512 119.9 512L448.5 512C443.1 521.4 439.9 532.3 439.9 544L119.9 544C88.9 544 64 518.9 64 488L64 216C64.2 200.5 72.1 186.1 85 177.5L275.6 50.4C302.5 32.5 337.5 32.5 364.4 50.4L555 177.5C567.9 186.1 575.8 200.5 576 216L576 216.6zM544 216.6C544 211.5 541.5 206.8 537.3 204L346.6 77C330.5 66.3 309.5 66.3 293.3 77L102.7 204.1C98.5 206.9 96 211.6 96 216.7C96 221.4 98.2 225.8 101.9 228.7L290.8 373.4C308 386.6 332 386.6 349.2 373.4L538.1 228.6C541.8 225.7 544 221.3 544 216.6zM544 376C552.8 376 560 383.2 560 392L560 400L576 400C584.8 400 592 407.2 592 416C592 424.8 584.8 432 576 432L526.3 432C518.4 432 512 438.4 512 446.3C512 453.3 517.1 459.3 524 460.4L569.3 468C591.6 471.7 608 491 608 513.7C608 539.3 587.3 560 561.7 560L560 560L560 568C560 576.8 552.8 584 544 584C535.2 584 528 576.8 528 568L528 560L504 560C495.2 560 488 552.8 488 544C488 535.2 495.2 528 504 528L561.7 528C569.6 528 576 521.6 576 513.7C576 506.7 570.9 500.7 564 499.6L518.7 492C496.4 488.3 480 469 480 446.3C480 420.7 500.7 400 526.3 400L528 400L528 392C528 383.2 535.2 376 544 376z"/></svg>