<svg xmlns="http://www.w3.org/2000/svg" viewBox="0 0 640 640"><!--! Font Awesome Pro 7.1.0 by @fontawesome - https://fontawesome.com License - https://fontawesome.com/license (Commercial License) Copyright 2025 Fonticons, Inc. --><path fill="currentColor" d="M320 96C443.7 96 544 196.3 544 320C544 443.7 443.7 544 320 544C196.3 544 96 443.7 96 320C96 196.3 196.3 96 320 96zM320 576C461.4 576 576 461.4 576 320C576 178.6 461.4 64 320 64C178.6 64 64 178.6 64 320C64 461.4 178.6 576 320 576zM432 256L432 264.5L327.6 319.6C325.3 320.8 322.6 321.5 320 321.5C317.4 321.5 314.7 320.9 312.4 319.6L208 264.5L208 256C208 247.2 215.2 240 224 240L416 240C424.8 240 432 247.2 432 256zM208 384L208 300.7L297.5 347.9C304.4 351.6 312.2 353.5 320 353.5C327.8 353.5 335.6 351.6 342.5 347.9L432 300.7L432 384C432 392.8 424.8 400 416 400L224 400C215.2 400 208 392.8 208 384zM224 208C197.5 208 176 229.5 176 256L176 384C176 410.5 197.5 432 224 432L416 432C442.5 432 464 410.5 464 384L464 256C464 229.5 442.5 208 416 208L224 208z"/></svg>