<svg xmlns="http://www.w3.org/2000/svg" viewBox="0 0 640 640"><!--! Font Awesome Pro 7.1.0 by @fontawesome - https://fontawesome.com License - https://fontawesome.com/license (Commercial License) Copyright 2025 Fonticons, Inc. --><path fill="currentColor" d="M512 224C582.7 224 640 281.3 640 352C640 392.4 621.2 428.4 592 451.9L592 553.7C592 566 582 576 569.7 576C565.8 576 562 575 558.6 573.1L512 546.5L465.4 573.1C462 575 458.2 576 454.3 576C442 576 432 566 432 553.7L432 451.9C402.8 428.4 384 392.4 384 352C384 281.3 441.3 224 512 224zM560 470.6C545.2 476.6 529 480 512 480C495 480 478.8 476.6 464 470.6L464 537L504.1 514.1L506 513.2C510.5 511.4 515.7 511.7 520 514.1L560.1 537L560.1 470.6zM512 128C546 128 573.7 154.5 575.8 188C564.7 183.7 553 180.4 541 178.4C535.9 167.5 524.9 160 512.1 160L122.5 160C107.9 160 96 171.9 96 186.5C96 194.9 100 202.9 106.8 207.8L291.6 343.3C304.7 352.9 321.3 355 336 349.8C336 350.5 336 351.3 336 352C336 362.4 336.9 372.6 338.7 382.4C316.3 387.8 292.1 383.3 272.7 369.1L96 239.5L96 448C96 465.7 110.3 480 128 480L384 480L384 512L128 512C92.7 512 64 483.3 64 448L64 192L64.3 192C64.1 190.2 64 188.3 64 186.5C64 154.2 90.2 128 122.5 128L512 128zM512 256C459 256 416 299 416 352C416 405 459 448 512 448C565 448 608 405 608 352C608 299 565 256 512 256zM512 408C481.1 408 456 382.9 456 352C456 321.1 481.1 296 512 296C542.9 296 568 321.1 568 352C568 382.9 542.9 408 512 408zM512 328C498.7 328 488 338.7 488 352C488 365.3 498.7 376 512 376C525.3 376 536 365.3 536 352C536 338.7 525.3 328 512 328z"/></svg>