<svg xmlns="http://www.w3.org/2000/svg" viewBox="0 0 640 640"><!--! Font Awesome Pro 7.1.0 by @fontawesome - https://fontawesome.com License - https://fontawesome.com/license (Commercial License) Copyright 2025 Fonticons, Inc. --><path fill="currentColor" d="M192 128C174.3 128 160 142.3 160 160C160 169.7 164.8 178.8 172.8 184.2L341 298.4C357.3 309.4 378.6 309.4 394.9 298.4L563.2 184.2C571.2 178.7 576 169.7 576 160C576 142.3 561.7 128 544 128L192 128zM323.1 324.9L160 214.2L160 384C160 401.7 174.3 416 192 416L544 416C561.7 416 576 401.7 576 384L576 214.2L412.9 324.9C385.8 343.3 350.2 343.3 323.1 324.9zM544 96C579.3 96 608 124.7 608 160L608 384C608 419.3 579.3 448 544 448L192 448C156.7 448 128 419.3 128 384L128 160C128 124.7 156.7 96 192 96L544 96zM64 208L64 480C64 497.7 78.3 512 96 512L496 512C504.8 512 512 519.2 512 528C512 536.8 504.8 544 496 544L96 544C60.7 544 32 515.3 32 480L32 208C32 199.2 39.2 192 48 192C56.8 192 64 199.2 64 208z"/></svg>