<svg xmlns="http://www.w3.org/2000/svg" viewBox="0 0 640 640"><!--! Font Awesome Pro 7.1.0 by @fontawesome - https://fontawesome.com License - https://fontawesome.com/license (Commercial License) Copyright 2025 Fonticons, Inc. --><path fill="currentColor" d="M144 96L400 96C408.8 96 416 103.2 416 112L448 112C448 85.5 426.5 64 400 64L144 64C117.5 64 96 85.5 96 112L96 240L128 240L128 112C128 103.2 135.2 96 144 96zM224 208C224 199.2 231.2 192 240 192L560 192C568.8 192 576 199.2 576 208L576 432C576 440.8 568.8 448 560 448L432 448L432 480L560 480C586.5 480 608 458.5 608 432L608 208C608 181.5 586.5 160 560 160L240 160C213.5 160 192 181.5 192 208L192 240L224 240L224 208zM336 320C344.8 320 352 327.2 352 336L352 359.2L214.2 446.2C212.3 447.4 210.2 448 208 448C205.8 448 203.6 447.4 201.8 446.2L64 359.2L64 336C64 327.2 71.2 320 80 320L336 320zM64 528L64 397L184.7 473.2C191.7 477.6 199.8 479.9 208 479.9C216.2 479.9 224.3 477.6 231.3 473.2L352 397L352 528C352 536.8 344.8 544 336 544L80 544C71.2 544 64 536.8 64 528zM80 288C53.5 288 32 309.5 32 336L32 528C32 554.5 53.5 576 80 576L336 576C362.5 576 384 554.5 384 528L384 336C384 309.5 362.5 288 336 288L80 288zM496 304L464 304L464 272L496 272L496 304zM432 264L432 312C432 325.3 442.7 336 456 336L504 336C517.3 336 528 325.3 528 312L528 264C528 250.7 517.3 240 504 240L456 240C442.7 240 432 250.7 432 264z"/></svg>