<svg xmlns="http://www.w3.org/2000/svg" viewBox="0 0 640 640"><!--! Font Awesome Pro 7.1.0 by @fontawesome - https://fontawesome.com License - https://fontawesome.com/license (Commercial License) Copyright 2025 Fonticons, Inc. --><path fill="currentColor" d="M272 128C285.3 128 296 117.3 296 104C296 90.7 285.3 80 272 80C258.7 80 248 90.7 248 104C248 117.3 258.7 128 272 128zM272 48C302.9 48 328 73.1 328 104C328 134.9 302.9 160 272 160C241.1 160 216 134.9 216 104C216 73.1 241.1 48 272 48zM355 319.8C367.8 309.6 383.6 304 400 304L504 304C543.8 304 576 336.2 576 376C576 415.8 543.8 448 504 448L425.3 448L285 560.2C272.2 570.4 256.4 576 240 576L136 576C96.2 576 64 543.8 64 504C64 464.2 96.2 432 136 432L214.7 432L355 319.8zM400 336C390.9 336 382.1 339.1 375 344.8L230.4 460.5C227.6 462.8 224 464 220.4 464L136 464C113.9 464 96 481.9 96 504C96 526.1 113.9 544 136 544L240 544C249.1 544 257.9 540.9 265 535.2L409.6 419.5C412.4 417.2 416 416 419.6 416L504 416C526.1 416 544 398.1 544 376C544 353.9 526.1 336 504 336L400 336zM320 272C320 245.5 298.5 224 272 224C245.5 224 224 245.5 224 272L224 352.9L192 378.5L192 272C192 227.8 227.8 192 272 192C309.4 192 340.8 217.7 349.6 252.4L320.1 276L320.1 276L320.1 271.9z"/></svg>