<svg xmlns="http://www.w3.org/2000/svg" viewBox="0 0 640 640"><!--! Font Awesome Pro 7.1.0 by @fontawesome - https://fontawesome.com License - https://fontawesome.com/license (Commercial License) Copyright 2025 Fonticons, Inc. --><path fill="currentColor" d="M192 160C192 142.3 206.3 128 224 128L416 128C433.7 128 448 142.3 448 160L448 192L480 192C497.7 192 512 206.3 512 224L512 256L544 256C561.7 256 576 270.3 576 288L576 480C576 497.7 561.7 512 544 512L96 512C78.3 512 64 497.7 64 480L64 288C64 270.3 78.3 256 96 256L128 256L128 224C128 206.3 142.3 192 160 192L192 192L192 160zM416 160L224 160L224 208C224 216.8 216.8 224 208 224L160 224L160 272C160 280.8 152.8 288 144 288L96 288L96 480L160 480L160 400C160 391.2 167.2 384 176 384C184.8 384 192 391.2 192 400L192 480L256 480L256 400C256 391.2 263.2 384 272 384C280.8 384 288 391.2 288 400L288 480L352 480L352 400C352 391.2 359.2 384 368 384C376.8 384 384 391.2 384 400L384 480L448 480L448 400C448 391.2 455.2 384 464 384C472.8 384 480 391.2 480 400L480 480L544 480L544 288L496 288C487.2 288 480 280.8 480 272L480 224L432 224C423.2 224 416 216.8 416 208L416 160z"/></svg>