<svg xmlns="http://www.w3.org/2000/svg" viewBox="0 0 640 640"><!--! Font Awesome Pro 7.1.0 by @fontawesome - https://fontawesome.com License - https://fontawesome.com/license (Commercial License) Copyright 2025 Fonticons, Inc. --><path fill="currentColor" d="M64 144C64 135.2 71.2 128 80 128L272 128C280.8 128 288 135.2 288 144C288 152.8 280.8 160 272 160L96 160L96 304L256 304C264.8 304 272 311.2 272 320C272 328.8 264.8 336 256 336L96 336L96 480L272 480C280.8 480 288 487.2 288 496C288 504.8 280.8 512 272 512L80 512C71.2 512 64 504.8 64 496L64 144zM336 144C336 135.2 343.2 128 352 128L560 128C565.7 128 571 131.1 573.9 136.1C576.8 141.1 576.7 147.2 573.8 152.2L380 480L560 480C568.8 480 576 487.2 576 496C576 504.8 568.8 512 560 512L352 512C346.3 512 341 508.9 338.1 503.9C335.2 498.9 335.3 492.8 338.2 487.8L532 160L352 160C343.2 160 336 152.8 336 144z"/></svg>