<svg xmlns="http://www.w3.org/2000/svg" viewBox="0 0 640 640"><!--! Font Awesome Pro 7.1.0 by @fontawesome - https://fontawesome.com License - https://fontawesome.com/license (Commercial License) Copyright 2025 Fonticons, Inc. --><path fill="currentColor" d="M185.3 256C212.8 163.5 298.5 96 400 96L448 96C456.8 96 464 103.2 464 112C464 120.8 456.8 128 448 128L400 128C316.4 128 245.3 181.4 218.9 256L368 256C376.8 256 384 263.2 384 272C384 280.8 376.8 288 368 288L210.7 288C209 298.4 208 309.1 208 320C208 330.9 208.9 341.6 210.7 352L368 352C376.8 352 384 359.2 384 368C384 376.8 376.8 384 368 384L218.9 384C245.3 458.6 316.4 512 400 512L448 512C456.8 512 464 519.2 464 528C464 536.8 456.8 544 448 544L400 544C298.5 544 212.8 476.5 185.3 384L144 384C135.2 384 128 376.8 128 368C128 359.2 135.2 352 144 352L178.3 352C176.8 341.5 176 330.9 176 320C176 309.1 176.8 298.5 178.3 288L144 288C135.2 288 128 280.8 128 272C128 263.2 135.2 256 144 256L185.3 256z"/></svg>