<svg xmlns="http://www.w3.org/2000/svg" viewBox="0 0 640 640"><!--! Font Awesome Pro 7.1.0 by @fontawesome - https://fontawesome.com License - https://fontawesome.com/license (Commercial License) Copyright 2025 Fonticons, Inc. --><path fill="currentColor" d="M640 80C640 73.9 636.6 68.4 631.2 65.7C625.8 63 619.2 63.6 614.4 67.2L373.1 248.1L303.1 120.8C294.7 105.5 278.6 96 261.1 96L176 96C149.5 96 128 117.5 128 144L128 256L80 256C53.5 256 32 277.5 32 304L32 376.4C12.4 394 0 419.6 0 448C0 501 43 544 96 544L320 544C373 544 416 501 416 448C416 424.1 407.3 402.2 392.8 385.4L608 224L608 376.4L437.9 515.6C432.7 519.9 430.7 527 433 533.4C435.3 539.8 441.2 544 448 544L560 544C604.2 544 640 508.2 640 464L640 80zM64 357.5L64 304C64 295.2 71.2 288 80 288L352 288L352 357.5C342 354 331.2 352 320 352L96 352C84.8 352 74 353.9 64 357.5zM340.9 256L160 256L160 144C160 135.2 167.2 128 176 128L261.1 128C266.9 128 272.3 131.2 275.1 136.3L340.9 256zM384 352L384 280L608 112L608 184L384 352zM492.8 512L608 417.8L608 464C608 490.5 586.5 512 560 512L492.8 512zM96 384L320 384C355.3 384 384 412.7 384 448C384 483.3 355.3 512 320 512L96 512C60.7 512 32 483.3 32 448C32 412.7 60.7 384 96 384z"/></svg>