<svg xmlns="http://www.w3.org/2000/svg" viewBox="0 0 640 640"><!--! Font Awesome Pro 7.1.0 by @fontawesome - https://fontawesome.com License - https://fontawesome.com/license (Commercial License) Copyright 2025 Fonticons, Inc. --><path fill="currentColor" d="M203.3 548.7C209.5 554.9 209.5 565.1 203.3 571.3C197.1 577.5 186.9 577.5 180.7 571.3L68.7 459.3C62.5 453.1 62.5 442.9 68.7 436.7L180.7 324.7C186.9 318.5 197.1 318.5 203.3 324.7C209.5 330.9 209.5 341.1 203.3 347.3L118.6 432L560 432C568.8 432 576 439.2 576 448C576 456.8 568.8 464 560 464L118.6 464L203.3 548.7zM436.7 292.7L521.4 208L80 208C71.2 208 64 200.8 64 192C64 183.2 71.2 176 80 176L521.4 176L436.7 91.3C430.5 85.1 430.5 74.9 436.7 68.7C442.9 62.5 453.1 62.5 459.3 68.7L571.3 180.7C577.5 186.9 577.5 197.1 571.3 203.3L459.3 315.3C453.1 321.5 442.9 321.5 436.7 315.3C430.5 309.1 430.5 298.9 436.7 292.7z"/></svg>