<svg xmlns="http://www.w3.org/2000/svg" viewBox="0 0 640 640"><!--! Font Awesome Pro 7.1.0 by @fontawesome - https://fontawesome.com License - https://fontawesome.com/license (Commercial License) Copyright 2025 Fonticons, Inc. --><path fill="currentColor" d="M240 96C248.8 96 256 103.2 256 112C256 120.8 248.8 128 240 128L128 128L128 240C128 248.8 120.8 256 112 256C103.2 256 96 248.8 96 240L96 112C96 103.2 103.2 96 112 96L240 96zM96 400C96 391.2 103.2 384 112 384C120.8 384 128 391.2 128 400L128 512L240 512C248.8 512 256 519.2 256 528C256 536.8 248.8 544 240 544L112 544C103.2 544 96 536.8 96 528L96 400zM528 96C536.8 96 544 103.2 544 112L544 240C544 248.8 536.8 256 528 256C519.2 256 512 248.8 512 240L512 128L400 128C391.2 128 384 120.8 384 112C384 103.2 391.2 96 400 96L528 96zM512 400C512 391.2 519.2 384 528 384C536.8 384 544 391.2 544 400L544 528C544 536.8 536.8 544 528 544L400 544C391.2 544 384 536.8 384 528C384 519.2 391.2 512 400 512L512 512L512 400z"/></svg>