<svg xmlns="http://www.w3.org/2000/svg" viewBox="0 0 640 640"><!--! Font Awesome Pro 7.1.0 by @fontawesome - https://fontawesome.com License - https://fontawesome.com/license (Commercial License) Copyright 2025 Fonticons, Inc. --><path fill="currentColor" d="M208 128C216.8 128 224 135.2 224 144C224 152.8 216.8 160 208 160L96 160L96 272C96 280.8 88.8 288 80 288C71.2 288 64 280.8 64 272L64 144C64 135.2 71.2 128 80 128L208 128zM64 368C64 359.2 71.2 352 80 352C88.8 352 96 359.2 96 368L96 480L208 480C216.8 480 224 487.2 224 496C224 504.8 216.8 512 208 512L80 512C71.2 512 64 504.8 64 496L64 368zM560 128C568.8 128 576 135.2 576 144L576 272C576 280.8 568.8 288 560 288C551.2 288 544 280.8 544 272L544 160L432 160C423.2 160 416 152.8 416 144C416 135.2 423.2 128 432 128L560 128zM544 368C544 359.2 551.2 352 560 352C568.8 352 576 359.2 576 368L576 496C576 504.8 568.8 512 560 512L432 512C423.2 512 416 504.8 416 496C416 487.2 423.2 480 432 480L544 480L544 368z"/></svg>