<svg xmlns="http://www.w3.org/2000/svg" viewBox="0 0 640 640"><!--! Font Awesome Pro 7.1.0 by @fontawesome - https://fontawesome.com License - https://fontawesome.com/license (Commercial License) Copyright 2025 Fonticons, Inc. --><path fill="currentColor" d="M575.4 84.4C577.6 76.7 573.7 68.5 566.4 65.3C559.1 62.1 550.4 64.9 546.3 71.7L374.2 358.6L335.5 204.1C333.7 197 327.3 192 320 192C312.7 192 306.3 197 304.5 204.1L263.4 368.7L155.4 260.7C150.2 255.5 142 254.5 135.7 258.4C129.4 262.3 126.6 270 128.9 277.1L168.7 396.6L81.3 384.2C74.7 383.3 68.3 386.5 65.1 392.3C61.9 398.1 62.6 405.3 66.9 410.4L139.2 496.1L181.1 496.1L172.4 485.8L118.4 421.8L189.9 431.9C195.4 432.7 200.9 430.6 204.4 426.3C207.9 422 209 416.3 207.3 411L180.7 331.3L260.8 411.4C264.9 415.5 270.8 417 276.4 415.5C282 414 286.3 409.6 287.7 404L320 274L352.5 403.9C354.1 410.2 359.3 414.9 365.7 415.8C372.1 416.7 378.4 413.8 381.8 408.2L511.4 192.3L448.7 411.6C447.2 416.9 448.5 422.6 452.1 426.7C455.7 430.8 461.3 432.7 466.7 431.8L520.2 422.9L467.8 485.8L459.3 496L501 496L572.5 410.2C576.8 405.1 577.4 397.8 574.1 392C570.8 386.2 564.2 383.1 557.6 384.2L486.6 396L575.6 84.3zM336 80C336 71.2 328.8 64 320 64C311.2 64 304 71.2 304 80L304 144C304 152.8 311.2 160 320 160C328.8 160 336 152.8 336 144L336 80zM48 544C39.2 544 32 551.2 32 560C32 568.8 39.2 576 48 576L592 576C600.8 576 608 568.8 608 560C608 551.2 600.8 544 592 544L414.7 544C407.1 498.6 367.6 464 320 464C272.4 464 232.9 498.6 225.3 544L48 544zM258 544C265.1 516.4 290.2 496 320 496C349.8 496 374.9 516.4 382 544L258 544z"/></svg>