<svg xmlns="http://www.w3.org/2000/svg" viewBox="0 0 640 640"><!--! Font Awesome Pro 7.1.0 by @fontawesome - https://fontawesome.com License - https://fontawesome.com/license (Commercial License) Copyright 2025 Fonticons, Inc. --><path fill="currentColor" d="M480 128C497.7 128 512 142.3 512 160L512 480C512 497.7 497.7 512 480 512L160 512C142.3 512 128 497.7 128 480L128 160C128 142.3 142.3 128 160 128L480 128zM544 160C544 124.7 515.3 96 480 96L160 96C124.7 96 96 124.7 96 160L96 480C96 515.3 124.7 544 160 544L480 544C515.3 544 544 515.3 544 480L544 160zM384 368C384 376.8 391.2 384 400 384C408.8 384 416 376.8 416 368L416 240C416 231.2 408.8 224 400 224L272 224C263.2 224 256 231.2 256 240C256 248.8 263.2 256 272 256L361.4 256L228.7 388.7C222.5 394.9 222.5 405.1 228.7 411.3C234.9 417.5 245.1 417.5 251.3 411.3L384 278.6L384 368z"/></svg>