<svg xmlns="http://www.w3.org/2000/svg" viewBox="0 0 640 640"><!--! Font Awesome Pro 7.1.0 by @fontawesome - https://fontawesome.com License - https://fontawesome.com/license (Commercial License) Copyright 2025 Fonticons, Inc. --><path fill="currentColor" d="M544.2 96L395.4 96L544.2 244.7L544.2 96zM552.2 64C565.5 64 576.2 74.7 576.2 88L576.2 264C576.2 273.7 570.4 282.5 561.4 286.2C552.4 289.9 542.1 287.9 535.2 281L458.4 204.3L283.3 379.4C277.1 385.6 266.9 385.6 260.7 379.4C254.5 373.2 254.5 363 260.7 356.8L435.8 181.8L359.1 105.1C352.2 98.2 350.2 87.9 353.9 78.9C357.6 69.9 366.4 64 376.1 64L552.2 64zM64.1 240C64.1 195.8 99.9 160 144.1 160L240.1 160C248.9 160 256.1 167.2 256.1 176C256.1 184.8 248.9 192 240.1 192L144.1 192C117.6 192 96.1 213.5 96.1 240L96.1 496C96.1 522.5 117.6 544 144.1 544L400.1 544C426.6 544 448.1 522.5 448.1 496L448.1 400C448.1 391.2 455.3 384 464.1 384C472.9 384 480.1 391.2 480.1 400L480.1 496C480.1 540.2 444.3 576 400.1 576L144.1 576C99.9 576 64.1 540.2 64.1 496L64.1 240z"/></svg>