<svg xmlns="http://www.w3.org/2000/svg" viewBox="0 0 640 640"><!--! Font Awesome Pro 7.1.0 by @fontawesome - https://fontawesome.com License - https://fontawesome.com/license (Commercial License) Copyright 2025 Fonticons, Inc. --><path fill="currentColor" d="M480 128C497.7 128 512 142.3 512 160L512 480C512 497.7 497.7 512 480 512L160 512C142.3 512 128 497.7 128 480L128 160C128 142.3 142.3 128 160 128L480 128zM544 160C544 124.7 515.3 96 480 96L160 96C124.7 96 96 124.7 96 160L96 480C96 515.3 124.7 544 160 544L480 544C515.3 544 544 515.3 544 480L544 160zM384 356.7L359.3 332C356.3 329 352.2 327.3 348 327.3C343.8 327.3 339.7 329 336.7 332L272 396.7L243.3 368L308 303.3C314.2 297.1 314.2 286.9 308 280.7L283.3 256L384 256L384 356.7zM392 224L264 224C242.8 224 232 250 247 265L274 292L215 351C205.6 360.4 205.6 375.6 215 384.9L255 424.9C264.4 434.3 279.6 434.3 288.9 424.9L347.9 365.9L374.9 392.9C389.9 407.9 415.9 397.2 415.9 375.9L415.9 247.9C415.9 234.6 405.2 223.9 391.9 223.9z"/></svg>