<svg xmlns="http://www.w3.org/2000/svg" viewBox="0 0 640 640"><!--! Font Awesome Pro 7.1.0 by @fontawesome - https://fontawesome.com License - https://fontawesome.com/license (Commercial License) Copyright 2025 Fonticons, Inc. --><path fill="currentColor" d="M258.1 190.1C246.9 193.3 236.3 197.4 226.4 202.2C217.8 206.3 208 207 199 204.2L143.1 186.7L161.7 215C170 227.6 169.9 244 161.5 256.5C157 263.2 153.2 270.2 150.2 277.3C146.1 287 138.2 294.5 128.3 298L66.5 320L128.3 342.1C138.2 345.6 146.1 353.1 150.2 362.8C153.2 369.9 157 376.9 161.5 383.6C169.9 396.1 170 412.5 161.7 425.1L143.1 453.4L199 435.9C208.1 433.1 217.9 433.8 226.4 437.9C236.3 442.7 246.9 446.7 258.1 450C267 452.6 274.6 458.3 279.4 466.1L320 531L360.6 466.1C365.5 458.3 373.1 452.5 381.9 450C393.1 446.8 403.7 442.7 413.6 437.9C422.2 433.8 432 433.1 441 435.9L496.9 453.4L478.3 425.1C470 412.5 470.1 396.1 478.5 383.6C483 376.9 486.8 369.9 489.8 362.8C493.9 353.1 501.8 345.6 511.7 342.1L573.5 320L511.7 297.9C501.8 294.4 493.9 286.9 489.8 277.2C486.8 270.1 483 263.1 478.5 256.4C470.1 243.9 470 227.5 478.3 214.9L496.9 186.6L441 204.1C431.9 206.9 422.1 206.2 413.6 202.1C403.7 197.3 393.1 193.3 381.9 190C373 187.4 365.4 181.7 360.6 173.9L320 109L279.4 173.9C274.5 181.7 266.9 187.5 258.1 190zM0 320C0 310.4 6 301.8 15.1 298.6L115.7 262.7C119.7 253.3 124.6 244.2 130.4 235.6L89.2 172.8C83.9 164.8 84.3 154.3 90 146.7C95.7 139.1 105.7 135.8 114.9 138.7L210.2 168.5C222 162.8 234.6 158 247.7 154.2L295.5 77.7C300.8 69.1 310 64 320 64C330 64 339.2 69.1 344.5 77.6L392.3 154.1C405.4 157.9 418 162.7 429.8 168.4L525.1 138.6C534.3 135.7 544.2 138.9 550 146.6C555.8 154.3 556.1 164.7 550.8 172.7L509.5 235.4C515.3 244 520.2 253.1 524.2 262.5L624.8 298.4C633.8 301.6 639.9 310.2 639.9 319.8C639.9 329.4 633.9 338 624.8 341.2L524.3 377.3C520.3 386.7 515.4 395.8 509.6 404.4L550.9 467.1C556.2 475.1 555.8 485.6 550.1 493.2C544.4 500.8 534.4 504.1 525.2 501.2L429.9 471.4C418.1 477.1 405.5 481.9 392.4 485.7L344.6 562.2C339.2 570.9 330 576 320 576C310 576 300.8 570.9 295.5 562.4L247.7 485.9C234.6 482.1 222 477.3 210.2 471.6L114.9 501.4C105.7 504.3 95.8 501.1 90 493.4C84.2 485.7 83.9 475.3 89.2 467.3L130.5 404.6C124.7 396 119.8 386.9 115.8 377.5L15.1 341.4C6 338.2 0 329.6 0 320zM220.1 283C225 266.2 245.1 262.4 261.4 268.9C279.6 276.1 299.3 280 320 280C340.7 280 360.5 276.1 378.6 268.9C394.9 262.5 415 266.2 419.9 283C422.6 292.2 424 301.9 424 312C424 369.4 377.4 416 320 416C262.6 416 216 369.4 216 312C216 302 217.4 292.2 220.1 283zM249.3 298.5C248.5 302.8 248.1 307.3 248.1 312C248.1 351.8 280.3 384 320.1 384C359.9 384 392.1 351.8 392.1 312C392.1 307.4 391.7 302.9 390.9 298.5C377.4 303.5 363.7 307.5 349.4 309.7C344.4 329.3 333.8 342.7 328.3 348.5C326.2 350.8 323.2 351.9 320.1 351.9C317 351.9 314 350.8 311.9 348.5C306.4 342.6 295.8 329.2 290.8 309.7C276.5 307.5 262.8 303.5 249.3 298.5z"/></svg>