<svg xmlns="http://www.w3.org/2000/svg" viewBox="0 0 640 640"><!--! Font Awesome Pro 7.1.0 by @fontawesome - https://fontawesome.com License - https://fontawesome.com/license (Commercial License) Copyright 2025 Fonticons, Inc. --><path fill="currentColor" d="M428.2 115.9L307.3 236.8L403.2 332.7L524.1 211.8C550.6 185.3 550.6 142.4 524.1 115.9C497.6 89.4 454.7 89.4 428.2 115.9zM546.8 234.4L425.9 355.3L443.3 372.7C449.5 378.9 449.5 389.1 443.3 395.3C437.1 401.5 426.9 401.5 420.7 395.3C416.5 391.1 367.4 342 273.4 248L244.7 219.3C238.5 213.1 238.5 202.9 244.7 196.7C250.9 190.5 261.1 190.5 267.3 196.7L284.7 214.1L405.6 93.2C444.6 54.2 507.8 54.2 546.7 93.2C585.6 132.2 585.7 195.4 546.7 234.3zM243.3 284.7L355.3 396.7C361.5 402.9 361.5 413.1 355.3 419.3L254.1 520.6C239.1 535.6 218.7 544 197.5 544L156.3 544L106.9 572.2C102.6 574.7 97.7 576 92.7 576C76.9 576 64.1 563.2 64.1 547.4C64.1 542.4 65.4 537.5 67.9 533.2L96.1 483.8L96.1 442.6C96.1 421.4 104.5 401 119.5 386L220.7 284.7C226.9 278.5 237.1 278.5 243.3 284.7zM142.6 408L232 497.4L265.4 464L176 374.6L142.6 408zM128.1 438.8C128 440 128 441.3 128 442.5L128 488C128 490.8 127.3 493.5 125.9 495.9L101.7 538.3L144.1 514.1C146.5 512.7 149.3 512 152 512L197.5 512C198.8 512 200 512 201.2 511.9L128.1 438.8zM321.4 408L232 318.6L198.6 352L288 441.4L321.4 408z"/></svg>