<svg xmlns="http://www.w3.org/2000/svg" viewBox="0 0 640 640"><!--! Font Awesome Pro 7.1.0 by @fontawesome - https://fontawesome.com License - https://fontawesome.com/license (Commercial License) Copyright 2025 Fonticons, Inc. --><path fill="currentColor" d="M262.1 236.7C265 239.6 304.5 279.1 380.6 355.2C396.6 371.2 409.9 384.5 420.7 395.3C426.9 401.5 437.1 401.5 443.3 395.3C449.5 389.1 449.5 378.9 443.3 372.7L425.9 355.3C428.4 352.8 468.7 312.5 546.8 234.4C585.8 195.4 585.8 132.2 546.8 93.3C507.8 54.4 444.6 54.3 405.7 93.3C327.6 171.4 287.3 211.7 284.8 214.2L267.4 196.8L267.4 196.8C261.2 190.6 251 190.6 244.8 196.8C238.6 203 238.6 213.2 244.8 219.4L262.2 236.8zM524.1 211.7L403.3 332.6L307.4 236.7L428.2 115.9C454.7 89.4 497.6 89.4 524.1 115.9C550.6 142.4 550.6 185.3 524.1 211.8zM119.4 385.9C104.4 400.9 96 421.3 96 442.5L96 483.7L67.8 533.1C65.3 537.4 64 542.3 64 547.3C64 563.1 76.8 575.9 92.6 575.9C97.6 575.9 102.5 574.6 106.8 572.1L156.2 543.9L197.4 543.9C218.6 543.9 239 535.5 254 520.5L366 408.5L341.4 383.9L166.5 383.9L253.9 296.5L231.3 273.9L119.3 385.9zM136 416L313.4 416L231.5 497.9C222.5 506.9 210.3 512 197.6 512L152 512C149.2 512 146.5 512.7 144.1 514.1L101.7 538.3L125.9 495.9C127.3 493.5 128 490.7 128 488L128 442.5C128 433 130.8 423.8 136 416z"/></svg>