<svg xmlns="http://www.w3.org/2000/svg" viewBox="0 0 640 640"><!--! Font Awesome Pro 7.1.0 by @fontawesome - https://fontawesome.com License - https://fontawesome.com/license (Commercial License) Copyright 2025 Fonticons, Inc. --><path fill="currentColor" d="M304 320C304 376.3 288.5 425.9 265 460.4C241.4 495.1 212.2 512 184 512C155.8 512 126.6 495.2 103 460.4C96.3 450.5 90.2 439.4 85 427.3C93.4 430.3 102.5 432 112 432C156.2 432 192 396.2 192 352C192 307.8 156.2 272 112 272C94.8 272 78.9 277.4 65.9 286.6C70.7 244.2 84.3 207.1 103 179.5C126.6 144.8 155.8 127.9 184 127.9C212.2 127.9 241.4 144.7 265 179.5C288.5 214.1 304 263.6 304 319.9zM320 219.9C295.1 146.4 243.5 96 184 96C100.1 96 32 196.3 32 320C32 443.7 100.1 544 184 544C243.5 544 295.1 493.6 320 420.1C344.9 493.5 396.5 544 456 544C539.9 544 608 443.7 608 320C608 196.3 539.9 96 456 96C396.5 96 344.9 146.4 320 219.9zM375 460.5C368.3 450.6 362.2 439.5 357 427.4C365.4 430.4 374.5 432.1 384 432.1C428.2 432.1 464 396.3 464 352.1C464 307.9 428.2 272.1 384 272.1C366.8 272.1 350.9 277.5 337.9 286.7C342.7 244.3 356.3 207.2 375 179.6C398.6 144.9 427.8 128 456 128C484.2 128 513.4 144.8 537 179.6C560.5 214.2 576 263.7 576 320C576 376.3 560.5 425.9 537 460.4C513.4 495.1 484.2 512 456 512C427.8 512 398.6 495.2 375 460.4zM64 352C64 325.5 85.5 304 112 304C138.5 304 160 325.5 160 352C160 378.5 138.5 400 112 400C85.5 400 64 378.5 64 352zM384 304C410.5 304 432 325.5 432 352C432 378.5 410.5 400 384 400C357.5 400 336 378.5 336 352C336 325.5 357.5 304 384 304z"/></svg>