<svg xmlns="http://www.w3.org/2000/svg" viewBox="0 0 640 640"><!--! Font Awesome Pro 7.1.0 by @fontawesome - https://fontawesome.com License - https://fontawesome.com/license (Commercial License) Copyright 2025 Fonticons, Inc. --><path fill="currentColor" d="M96 120C96 122.2 97.5 127.5 108.1 135C118.3 142.2 134 149.3 154.9 155.6C196.5 168.1 254.8 176 320 176C385.2 176 443.5 168.1 485.1 155.6C506 149.3 521.7 142.2 531.9 135C542.5 127.5 544 122.2 544 120C544 117.8 542.5 112.5 531.9 105C521.7 97.8 506 90.7 485.1 84.4C443.5 71.9 385.2 64 320 64C254.8 64 196.5 71.9 154.9 84.4C134 90.7 118.3 97.8 108.1 105C97.5 112.5 96 117.8 96 120zM320 32C387.4 32 449 40.2 494.3 53.8C516.8 60.6 536.3 68.9 550.4 79C564.1 88.7 576 102.4 576 120.1C576 137.8 564.1 151.4 550.4 161.2C536.3 171.2 516.9 179.6 494.3 186.4C449 200 387.4 208.2 320 208.2C252.6 208.2 191 200 145.7 186.4C123.1 179.5 103.7 171.1 89.6 161.1C75.9 151.3 64 137.7 64 120C64 102.3 75.9 88.7 89.6 78.9C103.7 68.9 123.1 60.5 145.7 53.8C191 40.2 252.6 32 320 32zM131.9 232.2C134.1 232.9 136.3 233.5 138.6 234.1C121.7 264.2 112 298.9 112 335.9C112 450.8 205.1 543.9 320 543.9C434.9 543.9 528 450.8 528 335.9C528 298.9 518.3 264.2 501.4 234.1C503.7 233.5 505.9 232.8 508.1 232.2C516.2 229.8 524.4 227 532.3 224C550 257.4 560 295.6 560 336C560 468.5 452.5 576 320 576C187.5 576 80 468.5 80 336C80 295.5 90 257.4 107.7 224C115.7 227.1 123.8 229.8 131.9 232.2zM200.1 401.3C206.8 395.6 216.9 396.3 222.7 403.1C246.2 430.6 281.1 448 320 448C358.9 448 393.8 430.6 417.3 403.1C423 396.4 433.1 395.6 439.9 401.3C446.7 407 447.4 417.1 441.7 423.9C412.4 458.2 368.7 480 320 480C271.3 480 227.6 458.2 198.3 423.9C192.6 417.2 193.3 407.1 200.1 401.3zM208 328C208 336.8 200.8 344 192 344C183.2 344 176 336.8 176 328C176 292.7 204.7 264 240 264C275.3 264 304 292.7 304 328C304 336.8 296.8 344 288 344C279.2 344 272 336.8 272 328C272 310.3 257.7 296 240 296C222.3 296 208 310.3 208 328zM400 296C382.3 296 368 310.3 368 328C368 336.8 360.8 344 352 344C343.2 344 336 336.8 336 328C336 292.7 364.7 264 400 264C435.3 264 464 292.7 464 328C464 336.8 456.8 344 448 344C439.2 344 432 336.8 432 328C432 310.3 417.7 296 400 296z"/></svg>