<svg xmlns="http://www.w3.org/2000/svg" viewBox="0 0 640 640"><!--! Font Awesome Pro 7.1.0 by @fontawesome - https://fontawesome.com License - https://fontawesome.com/license (Commercial License) Copyright 2025 Fonticons, Inc. --><path fill="currentColor" d="M367.4 539C468.3 517.2 544 427.5 544 320C544 196.3 443.7 96 320 96C196.3 96 96 196.3 96 320C96 336.7 97.8 352.9 101.3 368.6C90.4 369.8 80 372.9 70.5 377.4C66.2 359 64 339.7 64 320C64 178.6 178.6 64 320 64C461.4 64 576 178.6 576 320C576 449 480.6 555.6 356.6 573.4C362.2 562.9 366 551.3 367.4 539zM240 248C253.3 248 264 258.7 264 272C264 285.3 253.3 296 240 296C226.7 296 216 285.3 216 272C216 258.7 226.7 248 240 248zM400 264C413.3 264 424 274.7 424 288C424 301.3 413.3 312 400 312C386.7 312 376 301.3 376 288C376 274.7 386.7 264 400 264zM197 198.4L183.9 205.9C176.2 210.3 166.5 207.6 162.1 199.9C157.7 192.2 160.4 182.5 168.1 178.1L181.2 170.6C212.8 152.6 251.8 153.9 282.1 174.1L313 194.7C320.4 199.6 322.3 209.5 317.4 216.9C312.5 224.3 302.6 226.2 295.2 221.3L264.3 200.7C244.1 187.3 218.1 186.4 197 198.4zM208 400C208 391.2 215.2 384 224 384L336 384C344.8 384 352 391.2 352 400C352 408.8 344.8 416 336 416L224 416C215.2 416 208 408.8 208 400zM96 464L96 568C96 590.1 113.9 608 136 608L152 608C174.1 608 192 590.1 192 568L192 560C192 551.2 199.2 544 208 544L272 544C280.8 544 288 536.8 288 528C288 519.2 280.8 512 272 512L144 512C135.2 512 128 504.8 128 496L128 464C128 455.2 120.8 448 112 448C103.2 448 96 455.2 96 464zM112 416C138.5 416 160 437.5 160 464L160 480L272 480C298.5 480 320 501.5 320 528C320 554.5 298.5 576 272 576L223.6 576C219.6 612 189.1 640 152 640L136 640C96.2 640 64 607.8 64 568L64 464C64 437.5 85.5 416 112 416z"/></svg>