<svg xmlns="http://www.w3.org/2000/svg" viewBox="0 0 640 640"><!--! Font Awesome Pro 7.1.0 by @fontawesome - https://fontawesome.com License - https://fontawesome.com/license (Commercial License) Copyright 2025 Fonticons, Inc. --><path fill="currentColor" d="M320.4 544C425.4 544 513.5 471.8 537.8 374.3C554.9 362.8 568.5 346.3 576.3 326.6C572.8 464.9 459.6 576 320.4 576C181.2 576 68 464.9 64.5 326.6C72.3 346.3 85.9 362.8 103 374.3C127.3 471.8 215.4 544 320.4 544zM192.6 136L153.1 136C149.3 136 145.5 136.2 141.8 136.6C187.9 91.7 250.9 64 320.4 64C389.9 64 452.9 91.7 499 136.6C495.3 136.2 491.5 136 487.7 136L448.1 136C412 110.8 367.9 96 320.4 96C272.9 96 228.9 110.8 192.6 136zM200.5 401.3C207.2 395.6 217.3 396.3 223.1 403.1C246.6 430.6 281.5 448 320.4 448C359.3 448 394.2 430.6 417.7 403.1C423.4 396.4 433.5 395.6 440.3 401.3C447.1 407 447.8 417.1 442.1 423.9C412.8 458.2 369.1 480 320.4 480C271.7 480 228 458.2 198.7 423.9C193 417.2 193.7 407.1 200.5 401.3zM329.1 240L311.8 240C311.8 243.5 311.5 247 310.9 250.5L302.9 298.5C297.7 329.4 271 352 239.8 352L161.1 352C129.8 352 103.1 329.4 98 298.5L90 250.5C83.5 211.5 113.6 176 153.1 176L247.8 176C271.8 176 292.3 189 303.2 208L337.7 208C348.7 189 369.2 176 393.1 176L487.8 176C527.3 176 557.4 211.5 550.9 250.5L542.9 298.5C537.7 329.4 511 352 479.8 352L401.1 352C369.8 352 343.1 329.4 338 298.5L330 250.5C329.4 247 329.1 243.4 329.1 240zM361.6 245.3L369.6 293.3C370.6 299.2 373.1 304.4 376.7 308.7L410.3 208L393.2 208C373.4 208 358.4 225.8 361.6 245.3zM474.2 208L443.9 208L406.6 320L436.9 320L474.2 208zM506 213.7L470.6 320L479.7 320C495.3 320 508.7 308.7 511.3 293.3L519.3 245.3C521.4 232.6 515.7 220.6 506 213.8zM153.1 208C133.3 208 118.3 225.8 121.5 245.3L129.5 293.3C130.5 299.2 133 304.4 136.6 308.7L170.2 208L153.1 208zM196.9 320L234.2 208L203.9 208L166.6 320L196.9 320zM266 213.7L230.6 320L239.7 320C255.3 320 268.7 308.7 271.3 293.3L279.3 245.3C281.4 232.6 275.7 220.6 266 213.8z"/></svg>