<svg xmlns="http://www.w3.org/2000/svg" viewBox="0 0 640 640"><!--! Font Awesome Pro 7.1.0 by @fontawesome - https://fontawesome.com License - https://fontawesome.com/license (Commercial License) Copyright 2025 Fonticons, Inc. --><path fill="currentColor" d="M544 320C544 196.3 443.7 96 320 96C196.3 96 96 196.3 96 320C96 443.7 196.3 544 320 544C443.7 544 544 443.7 544 320zM64 320C64 178.6 178.6 64 320 64C461.4 64 576 178.6 576 320C576 461.4 461.4 576 320 576C178.6 576 64 461.4 64 320zM315.8 368L324.2 368C374.9 368 416 409.1 416 459.8C416 471 407 480 395.8 480L244.2 480C233 480 224 471 224 459.8C224 409.1 265.1 368 315.8 368zM324.2 400L315.8 400C286.8 400 262.6 420.6 257.2 448L382.9 448C377.4 420.6 353.3 400 324.3 400zM200 288C200 274.7 210.7 264 224 264C237.3 264 248 274.7 248 288C248 301.3 237.3 312 224 312C210.7 312 200 301.3 200 288zM416 264C429.3 264 440 274.7 440 288C440 301.3 429.3 312 416 312C402.7 312 392 301.3 392 288C392 274.7 402.7 264 416 264zM240 176C235.6 176 231.2 176.3 227 176.9C205.8 179.7 186.4 189.3 170.9 203.7C164.4 209.7 154.3 209.4 148.3 202.9C142.3 196.4 142.6 186.3 149.1 180.3C169.2 161.6 194.6 148.8 222.8 145.1C228.4 144.4 234.2 144 240 144C248.8 144 256 151.2 256 160C256 168.8 248.8 176 240 176zM413 176.9C408.7 176.3 404.4 176 400 176C391.2 176 384 168.8 384 160C384 151.2 391.2 144 400 144C405.8 144 411.6 144.4 417.2 145.1C445.4 148.8 470.9 161.5 490.9 180.3C497.4 186.3 497.7 196.5 491.7 202.9C485.7 209.3 475.5 209.7 469.1 203.7C453.6 189.2 434.3 179.7 413 176.9zM224 240C197.5 240 176 261.5 176 288C176 314.5 197.5 336 224 336C250.5 336 272 314.5 272 288C272 261.5 250.5 240 224 240zM304 288C304 332.2 268.2 368 224 368C179.8 368 144 332.2 144 288C144 243.8 179.8 208 224 208C268.2 208 304 243.8 304 288zM368 288C368 314.5 389.5 336 416 336C442.5 336 464 314.5 464 288C464 261.5 442.5 240 416 240C389.5 240 368 261.5 368 288zM416 368C371.8 368 336 332.2 336 288C336 243.8 371.8 208 416 208C460.2 208 496 243.8 496 288C496 332.2 460.2 368 416 368z"/></svg>