<svg xmlns="http://www.w3.org/2000/svg" viewBox="0 0 640 640"><!--! Font Awesome Pro 7.1.0 by @fontawesome - https://fontawesome.com License - https://fontawesome.com/license (Commercial License) Copyright 2025 Fonticons, Inc. --><path fill="currentColor" d="M320 544C414.4 544 495.2 485.6 528.1 402.9C543.9 397.8 558 389 569.5 377.5C543.4 491.2 441.6 575.9 320 575.9C198.4 575.9 96.6 491.2 70.5 377.6C82 389 96.1 397.8 111.9 402.9C144.8 485.6 225.6 544 320 544zM320 96C272.5 96 228.5 110.8 192.2 136L144 136C143.3 136 142.7 136 142 136C188.1 91.4 250.8 64 320 64C389.2 64 451.9 91.4 498 136C497.3 136 496.7 136 496 136L447.8 136C411.5 110.8 367.5 96 320 96zM222.7 403.1C246.2 430.6 281 448 320 448C359 448 393.8 430.6 417.3 403.1C423 396.4 433.1 395.6 439.9 401.3C446.7 407 447.4 417.1 441.7 423.9C412.4 458.2 368.7 480 320 480C271.3 480 227.6 458.2 198.3 423.9C192.6 417.2 193.3 407.1 200.1 401.3C206.9 395.5 216.9 396.3 222.7 403.1zM200 272C200 258.7 210.7 248 224 248C237.3 248 248 258.7 248 272C248 285.3 237.3 296 224 296C210.7 296 200 285.3 200 272zM416 248C429.3 248 440 258.7 440 272C440 285.3 429.3 296 416 296C402.7 296 392 285.3 392 272C392 258.7 402.7 248 416 248zM336 304L336 248L304 248L304 304C304 339.3 275.3 368 240 368L144 368C108.7 368 80 339.3 80 304L80 256L64 256C55.2 256 48 248.8 48 240C48 231.2 55.2 224 64 224L82 224C89.1 196.4 114.2 176 144 176L240 176C266.9 176 289.9 192.5 299.3 216L340.6 216C350.1 192.5 373.1 176 399.9 176L495.9 176C525.7 176 550.8 196.4 557.9 224L575.9 224C584.7 224 591.9 231.2 591.9 240C591.9 248.8 584.7 256 575.9 256L559.9 256L559.9 304C559.9 339.3 531.2 368 495.9 368L399.9 368C364.6 368 335.9 339.3 335.9 304zM400 208C382.3 208 368 222.3 368 240L368 304C368 321.7 382.3 336 400 336L496 336C513.7 336 528 321.7 528 304L528 240C528 222.3 513.7 208 496 208L400 208zM112 240L112 304C112 321.7 126.3 336 144 336L240 336C257.7 336 272 321.7 272 304L272 240C272 222.3 257.7 208 240 208L144 208C126.3 208 112 222.3 112 240z"/></svg>