<svg xmlns="http://www.w3.org/2000/svg" viewBox="0 0 640 640"><!--! Font Awesome Pro 7.1.0 by @fontawesome - https://fontawesome.com License - https://fontawesome.com/license (Commercial License) Copyright 2025 Fonticons, Inc. --><path fill="currentColor" d="M544 320C544 196.3 443.7 96 320 96C196.3 96 96 196.3 96 320C96 443.7 196.3 544 320 544C443.7 544 544 443.7 544 320zM64 320C64 178.6 178.6 64 320 64C461.4 64 576 178.6 576 320C576 461.4 461.4 576 320 576C178.6 576 64 461.4 64 320zM372.9 493.8C356.7 487.7 338.9 484.4 320 484.4C301.2 484.4 283.3 487.8 267.1 493.8C255.9 498 243.5 496.1 234.7 489.3C230.2 485.8 226.3 480.7 224.7 474.2C223.1 467.5 224.2 460.7 227.4 454.7C244.8 422.1 279.8 400 319.9 400C360 400 395.1 422.1 412.4 454.7C415.6 460.7 416.7 467.5 415.1 474.2C413.5 480.7 409.6 485.8 405.1 489.3C396.3 496.1 383.9 498 372.7 493.8zM320 432C295.1 432 273.3 444.1 260.4 462.2C278.9 455.8 299 452.4 320 452.4C341 452.4 361.1 455.9 379.6 462.3C366.7 444.2 344.9 432.1 320 432.1zM216 336C216 322.7 226.7 312 240 312C253.3 312 264 322.7 264 336C264 349.3 253.3 360 240 360C226.7 360 216 349.3 216 336zM400 312C413.3 312 424 322.7 424 336C424 349.3 413.3 360 400 360C386.7 360 376 349.3 376 336C376 322.7 386.7 312 400 312zM256 224C251.6 224 247.2 224.3 243 224.9C221.8 227.7 202.4 237.3 186.9 251.7C180.4 257.7 170.3 257.4 164.3 250.9C158.3 244.4 158.6 234.3 165.1 228.3C185.2 209.6 210.6 196.8 238.8 193.1C244.4 192.4 250.2 192 256 192C264.8 192 272 199.2 272 208C272 216.8 264.8 224 256 224zM397 224.9C392.7 224.3 388.4 224 384 224C375.2 224 368 216.8 368 208C368 199.2 375.2 192 384 192C389.8 192 395.6 192.4 401.2 193.1C429.4 196.8 454.9 209.5 474.9 228.3C481.4 234.3 481.7 244.5 475.7 250.9C469.7 257.3 459.5 257.7 453.1 251.7C437.6 237.2 418.3 227.7 397 224.9z"/></svg>