<svg xmlns="http://www.w3.org/2000/svg" viewBox="0 0 640 640"><!--! Font Awesome Pro 7.1.0 by @fontawesome - https://fontawesome.com License - https://fontawesome.com/license (Commercial License) Copyright 2025 Fonticons, Inc. --><path fill="currentColor" d="M491.6 464C450.5 512.9 388.9 544 320 544C196.3 544 96 443.7 96 320C96 196.3 196.3 96 320 96C433.4 96 527.1 180.2 541.9 289.5C537.4 288.5 532.7 288 528 288L352 288C343.2 288 336 295.2 336 304C336 312.8 343.2 320 352 320L528 320C545.7 320 560 334.3 560 352C560 369.7 545.7 384 528 384L432 384C423.2 384 416 391.2 416 400C416 408.8 423.2 416 432 416L528 416C563.3 416 592 387.3 592 352C592 335.7 585.9 320.7 575.8 309.4C570.3 172.9 457.9 64 320 64C178.6 64 64 178.6 64 320C64 461.4 178.6 576 320 576C408 576 485.6 531.6 531.7 464L491.6 464zM264 240C264 226.7 253.3 216 240 216C226.7 216 216 226.7 216 240C216 253.3 226.7 264 240 264C253.3 264 264 253.3 264 240zM400 264C413.3 264 424 253.3 424 240C424 226.7 413.3 216 400 216C386.7 216 376 226.7 376 240C376 253.3 386.7 264 400 264zM272 448L336 448C344.8 448 352 440.8 352 432C352 423.2 344.8 416 336 416L272 416C245.5 416 224 437.5 224 464C224 472.8 231.2 480 240 480C248.8 480 256 472.8 256 464C256 455.2 263.2 448 272 448z"/></svg>