<svg xmlns="http://www.w3.org/2000/svg" viewBox="0 0 640 640"><!--! Font Awesome Pro 7.1.0 by @fontawesome - https://fontawesome.com License - https://fontawesome.com/license (Commercial License) Copyright 2025 Fonticons, Inc. --><path fill="currentColor" d="M544 320C544 443.7 443.7 544 320 544C262.1 544 209.4 522.1 169.6 486C165.9 496.6 160.7 506.3 154.3 515.1C199 553.1 256.8 575.9 320 575.9C461.4 575.9 576 461.3 576 319.9C576 178.5 461.4 64 320 64C184 64 72.8 170.1 64.5 304C75.5 304.1 86.6 307.4 96.1 314.1C99.2 193.1 198.3 96 320 96C443.7 96 544 196.3 544 320zM315.8 368C265.1 368 224 409.1 224 459.8C224 471 233 480 244.2 480L395.8 480C407 480 416 471 416 459.8C416 409.1 374.9 368 324.2 368L315.8 368zM324.2 400C353.2 400 377.4 420.6 382.8 448L257.1 448C262.6 420.6 286.7 400 315.7 400L324.1 400zM376 336C376 349.3 386.7 360 400 360C413.3 360 424 349.3 424 336C424 322.7 413.3 312 400 312C386.7 312 376 322.7 376 336zM240 360C253.3 360 264 349.3 264 336C264 322.7 253.3 312 240 312C226.7 312 216 322.7 216 336C216 349.3 226.7 360 240 360zM259.3 212.7C253.1 206.5 242.9 206.5 236.7 212.7L229.3 220.1C210.4 239 186.1 251.5 159.8 255.8L157.3 256.2C148.6 257.7 142.7 265.9 144.1 274.6C145.5 283.3 153.8 289.2 162.5 287.8L165 287.4C197.9 281.9 228.3 266.3 251.8 242.7L259.2 235.3C265.4 229.1 265.4 218.9 259.2 212.7zM380.7 235.3L388.1 242.7C411.7 266.3 442 281.9 474.9 287.4L477.4 287.8C486.1 289.3 494.4 283.4 495.8 274.6C497.2 265.8 491.4 257.6 482.6 256.2L480.1 255.8C453.8 251.4 429.5 238.9 410.6 220.1L403.2 212.7C397 206.5 386.8 206.5 380.6 212.7C374.4 218.9 374.4 229.1 380.6 235.3zM64 392.9C67.8 397.6 71.5 402.5 75 407.4C81.2 416 86.6 423.7 90.6 431.4C94.6 439.1 95.9 444.5 95.9 448C95.9 465.7 81.6 480 63.9 480C46.2 480 31.9 465.7 31.9 448C31.9 444.5 33.2 439.1 37.2 431.4C41.2 423.7 46.7 416 52.8 407.4C56.4 402.5 60 397.6 63.8 392.9zM64 352C59 352 54.7 354.4 51.5 358C42.8 367.8 34.7 378.1 27 388.7C15 405.4 0 426.4 0 448C0 483.3 28.7 512 64 512C99.3 512 128 483.3 128 448C128 426.5 113 405.5 101 388.7C93.4 378.1 85.2 367.8 76.5 358C73.3 354.4 68.9 352 64 352z"/></svg>