<svg xmlns="http://www.w3.org/2000/svg" viewBox="0 0 640 640"><!--! Font Awesome Pro 7.1.0 by @fontawesome - https://fontawesome.com License - https://fontawesome.com/license (Commercial License) Copyright 2025 Fonticons, Inc. --><path fill="currentColor" d="M240.3 0C231.5 0 224.3 7.2 224.3 16L224.3 176C224.3 184.8 231.5 192 240.3 192C249.1 192 256.3 184.8 256.3 176L256.3 16C256.3 7.2 249.1 0 240.3 0zM323.1 96C446.8 96 547.1 196.3 547.1 320C547.1 443.7 446.8 544 323.1 544C299.8 544 277.4 540.5 256.3 533.9L256.3 528C256.3 519.2 249.1 512 240.3 512C231.5 512 224.3 519.2 224.3 528L224.3 624C224.3 632.8 231.5 640 240.3 640C249.1 640 256.3 632.8 256.3 624L256.3 567.2C277.6 572.9 300 576 323.1 576C464.5 576 579.1 461.4 579.1 320C579.1 178.6 464.5 64 323.1 64C322.2 64 321.2 64 320.3 64L320.3 16C320.3 7.2 313.1 0 304.3 0C295.5 0 288.3 7.2 288.3 16L288.3 112C288.3 120.8 295.5 128 304.3 128C313.1 128 320.3 120.8 320.3 112L320.3 96C321.2 96 322.2 96 323.1 96zM176.3 489.2C129 448.1 99.1 387.6 99.1 320C99.1 252.4 129 191.9 176.3 150.8L176.3 110.2C110.2 156.5 67.1 233.2 67.1 320C67.1 406.8 110.2 483.5 176.3 529.8L176.3 489.2zM200.4 401.3C193.7 407 192.9 417.1 198.6 423.9C227.9 458.2 271.6 480 320.3 480C369 480 412.7 458.2 442 423.9C447.7 417.2 447 407.1 440.2 401.3C433.4 395.5 423.4 396.3 417.6 403.1C394.1 430.6 359.2 448 320.3 448C281.4 448 246.5 430.6 223 403.1C217.3 396.4 207.2 395.6 200.4 401.3zM208.3 328C208.3 314.7 219 304 232.3 304L248.3 304C261.6 304 272.3 314.7 272.3 328C272.3 336.8 279.5 344 288.3 344C297.1 344 304.3 336.8 304.3 328C304.3 297.1 279.2 272 248.3 272L232.3 272C201.4 272 176.3 297.1 176.3 328C176.3 336.8 183.5 344 192.3 344C201.1 344 208.3 336.8 208.3 328zM392.3 304L408.3 304C421.6 304 432.3 314.7 432.3 328C432.3 336.8 439.5 344 448.3 344C457.1 344 464.3 336.8 464.3 328C464.3 297.1 439.2 272 408.3 272L392.3 272C361.4 272 336.3 297.1 336.3 328C336.3 336.8 343.5 344 352.3 344C361.1 344 368.3 336.8 368.3 328C368.3 314.7 379 304 392.3 304z"/></svg>