<svg xmlns="http://www.w3.org/2000/svg" viewBox="0 0 640 640"><!--! Font Awesome Pro 7.1.0 by @fontawesome - https://fontawesome.com License - https://fontawesome.com/license (Commercial License) Copyright 2025 Fonticons, Inc. --><path fill="currentColor" d="M465.6 530.6C532.3 484.4 576 407.3 576 320C576 178.6 461.4 64 320 64C178.6 64 64 178.6 64 320C64 407.3 107.7 484.4 174.4 530.6C191.3 557.9 221.6 576 256 576L384 576C418.5 576 448.7 557.8 465.6 530.6zM480 476.8L480 384C480 372.9 477.2 362.5 472.2 353.4L543.9 314.8C543.9 316.5 544 318.2 544 320C544 381 519.6 436.4 480 476.8zM320 96C430.2 96 521.8 175.5 540.5 280.3L449.4 329.4C439.7 323.4 428.2 320 416 320L224 320C211.8 320 200.3 323.4 190.6 329.4L99.5 280.3C118.2 175.5 209.8 96 320 96zM160 384L160 476.8C120.4 436.4 96 381.1 96 320C96 318.3 96 316.5 96.1 314.8L167.8 353.4C162.8 362.5 160 372.9 160 384zM192 384C192 366.3 206.3 352 224 352L416 352C433.7 352 448 366.3 448 384L448 480C448 515.3 419.3 544 384 544L256 544C220.7 544 192 515.3 192 480L192 384zM352 240C352 248.8 359.2 256 368 256L384 256C401.3 256 418.2 261.6 432 272L438.4 276.8C445.5 282.1 455.5 280.7 460.8 273.6C466.1 266.5 464.7 256.5 457.6 251.2L451.2 246.4C431.8 231.9 408.2 224 384 224L368 224C359.2 224 352 231.2 352 240zM272 224L256 224C231.8 224 208.2 231.9 188.8 246.4L182.4 251.2C175.3 256.5 173.9 266.5 179.2 273.6C184.5 280.7 194.5 282.1 201.6 276.8L208 272C221.8 261.6 238.7 256 256 256L272 256C280.8 256 288 248.8 288 240C288 231.2 280.8 224 272 224zM248 400C239.2 400 232 407.2 232 416C232 424.8 239.2 432 248 432L392 432C400.8 432 408 424.8 408 416C408 407.2 400.8 400 392 400L248 400zM248 464C239.2 464 232 471.2 232 480C232 488.8 239.2 496 248 496L392 496C400.8 496 408 488.8 408 480C408 471.2 400.8 464 392 464L248 464z"/></svg>