<svg xmlns="http://www.w3.org/2000/svg" viewBox="0 0 640 640"><!--! Font Awesome Pro 7.1.0 by @fontawesome - https://fontawesome.com License - https://fontawesome.com/license (Commercial License) Copyright 2025 Fonticons, Inc. --><path fill="currentColor" d="M320 544C348.2 544 375.2 538.8 400 529.3L400 563.3C374.8 571.5 347.9 576 320 576C178.6 576 64 461.4 64 320C64 178.6 178.6 64 320 64C461.4 64 576 178.6 576 320C576 400.8 538.5 472.9 480 519.9L480 560C480 568.8 472.8 576 464 576C455.2 576 448 568.8 448 560L448 366.4C427.7 387.1 399.3 400 368 400C306.1 400 256 349.9 256 288C256 226.1 306.1 176 368 176C429.9 176 480 226.1 480 288L480 476.8C519.6 436.4 544 381.1 544 320C544 196.3 443.7 96 320 96C196.3 96 96 196.3 96 320C96 443.7 196.3 544 320 544zM368 368C412.2 368 448 332.2 448 288C448 243.8 412.2 208 368 208C323.8 208 288 243.8 288 288C288 332.2 323.8 368 368 368zM192 232C205.3 232 216 242.7 216 256C216 269.3 205.3 280 192 280C178.7 280 168 269.3 168 256C168 242.7 178.7 232 192 232zM320 280C320 266.7 330.7 256 344 256C357.3 256 368 266.7 368 280C368 293.3 357.3 304 344 304C330.7 304 320 293.3 320 280zM208 448C199.2 448 192 440.8 192 432C192 423.2 199.2 416 208 416L208.1 416C216.4 416 238.1 416 262.2 422.6C286.4 429.2 314.4 442.8 333.3 471.2C338.2 478.6 336.2 488.5 328.9 493.4C321.6 498.3 311.6 496.3 306.7 489C293.6 469.3 273.6 459 253.8 453.6C234 448.2 215.8 448.2 208 448.2z"/></svg>