<svg xmlns="http://www.w3.org/2000/svg" viewBox="0 0 640 640"><!--! Font Awesome Pro 7.1.0 by @fontawesome - https://fontawesome.com License - https://fontawesome.com/license (Commercial License) Copyright 2025 Fonticons, Inc. --><path fill="currentColor" d="M544 320C544 196.3 443.7 96 320 96C196.3 96 96 196.3 96 320C96 443.7 196.3 544 320 544C443.7 544 544 443.7 544 320zM64 320C64 178.6 178.6 64 320 64C461.4 64 576 178.6 576 320C576 461.4 461.4 576 320 576C178.6 576 64 461.4 64 320zM240 296C253.3 296 264 306.7 264 320C264 333.3 253.3 344 240 344C226.7 344 216 333.3 216 320C216 306.7 226.7 296 240 296zM376 320C376 306.7 386.7 296 400 296C413.3 296 424 306.7 424 320C424 333.3 413.3 344 400 344C386.7 344 376 333.3 376 320zM243 224.9C221.8 227.7 202.4 237.3 186.9 251.7C180.4 257.7 170.3 257.4 164.3 250.9C158.3 244.4 158.6 234.3 165.1 228.3C185.2 209.6 210.6 196.8 238.8 193.1C244.4 192.4 250.2 192 256 192C264.8 192 272 199.2 272 208C272 216.8 264.8 224 256 224C251.6 224 247.2 224.3 243 224.9zM384 224C375.2 224 368 216.8 368 208C368 199.2 375.2 192 384 192C389.8 192 395.6 192.4 401.2 193.1C429.4 196.8 454.9 209.5 474.9 228.3C481.4 234.3 481.7 244.5 475.7 250.9C469.7 257.3 459.5 257.7 453.1 251.7C437.6 237.2 418.3 227.7 397 224.9C392.7 224.3 388.4 224 384 224zM352 448C352 430.3 337.7 416 320 416C302.3 416 288 430.3 288 448C288 465.7 302.3 480 320 480C337.7 480 352 465.7 352 448zM256 448C256 412.7 284.7 384 320 384C355.3 384 384 412.7 384 448C384 483.3 355.3 512 320 512C284.7 512 256 483.3 256 448z"/></svg>