<svg xmlns="http://www.w3.org/2000/svg" viewBox="0 0 640 640"><!--! Font Awesome Pro 7.1.0 by @fontawesome - https://fontawesome.com License - https://fontawesome.com/license (Commercial License) Copyright 2025 Fonticons, Inc. --><path fill="currentColor" d="M216.8 90.9C223.8 72.5 231.9 57.1 240.8 46.6C249.7 36.2 258.1 32 266.1 32C273.4 32 281.3 35.1 291.1 40.4C298.7 44.5 309 48.8 320.1 48.8C331.2 48.8 341.6 44.6 349.1 40.4C358.8 35.1 366.8 32 374.1 32C382.2 32 390.6 36.2 399.4 46.6C408.4 57.1 416.5 72.5 423.4 90.9C435.5 122.8 443 160.8 446.7 189.8C412.2 200.7 370.3 208 320 208C269.7 208 227.8 200.7 193.3 189.8C197 160.8 204.5 122.8 216.6 90.9zM67.5 103.5C63.3 95.7 53.5 92.9 45.8 97.1C38.1 101.3 35.2 111.1 39.5 118.8C63.2 162.4 151.3 240 320.2 240C489.1 240 577.2 162.4 601 118.8C605.2 111 602.4 101.3 594.6 97.1C586.8 92.9 577.1 95.7 572.9 103.5C562.8 122 532.7 154.5 477.7 178.4C473.5 148.7 465.8 111.8 453.6 79.6C446 59.6 436.3 40.3 424 25.8C411.6 11.2 395 0 374.3 0C358.5 0 344.5 6.6 334 12.3C328.6 15.3 323.8 16.7 320.3 16.7C316.8 16.7 312.1 15.2 306.6 12.3C296 6.5 282.1 0 266.3 0C245.6 0 229.1 11.2 216.6 25.8C204.2 40.3 194.6 59.5 187 79.6C174.8 111.8 167.1 148.7 162.9 178.4C107.9 154.5 77.7 122 67.7 103.5zM125.8 240.7C107 273.5 96.2 311.5 96.2 352C96.2 475.7 196.5 576 320.2 576C443.9 576 544.2 475.7 544.2 352C544.2 311.5 533.4 273.5 514.6 240.7C505.2 245.1 495.2 249.2 484.7 253C502.1 281.9 512.2 315.8 512.2 352C512.2 458 426.2 544 320.2 544C214.2 544 128.2 458 128.2 352C128.2 315.8 138.2 281.9 155.7 253C145.2 249.2 135.2 245.1 125.8 240.7zM406.1 423.5C386.4 449.3 355.2 466 320.2 466C285.2 466 254.1 449.4 234.3 423.5C261.5 429 290.3 432 320.2 432C350.1 432 378.9 429.1 406.1 423.5zM437.1 382.4C402.1 393.7 362.4 400 320.2 400C278 400 238.3 393.7 203.4 382.5C193.3 379.3 182.9 387.4 185.9 397.6C203 455.6 256.7 498 320.2 498C383.7 498 437.4 455.6 454.5 397.6C457.5 387.4 447.1 379.2 437 382.5zM240.2 344C253.5 344 264.2 333.3 264.2 320C264.2 306.7 253.5 296 240.2 296C226.9 296 216.2 306.7 216.2 320C216.2 333.3 226.9 344 240.2 344zM424.2 320C424.2 306.7 413.5 296 400.2 296C386.9 296 376.2 306.7 376.2 320C376.2 333.3 386.9 344 400.2 344C413.5 344 424.2 333.3 424.2 320z"/></svg>