<svg xmlns="http://www.w3.org/2000/svg" viewBox="0 0 640 640"><!--! Font Awesome Pro 7.1.0 by @fontawesome - https://fontawesome.com License - https://fontawesome.com/license (Commercial License) Copyright 2025 Fonticons, Inc. --><path fill="currentColor" d="M320 96C443.7 96 544 196.3 544 320C544 443.7 443.7 544 320 544C196.3 544 96 443.7 96 320C96 196.3 196.3 96 320 96zM320 576C461.4 576 576 461.4 576 320C576 178.6 461.4 64 320 64C178.6 64 64 178.6 64 320C64 461.4 178.6 576 320 576zM264 320C264 306.7 253.3 296 240 296C226.7 296 216 306.7 216 320C216 333.3 226.7 344 240 344C253.3 344 264 333.3 264 320zM400 344C413.3 344 424 333.3 424 320C424 306.7 413.3 296 400 296C386.7 296 376 306.7 376 320C376 333.3 386.7 344 400 344zM240 432C240 440.8 247.2 448 256 448L384 448C392.8 448 400 440.8 400 432C400 423.2 392.8 416 384 416L256 416C247.2 416 240 423.2 240 432zM401.2 228.1C409.6 222.8 420.4 223.3 428.3 229.3L438.4 236.8C445.5 242.1 455.5 240.7 460.8 233.6C466.1 226.5 464.7 216.5 457.6 211.2L447.5 203.7C429 189.8 403.8 188.7 384.2 201L343.5 226.5C336 231.2 333.7 241.1 338.4 248.5C343.1 255.9 353 258.3 360.4 253.6L401.1 228.1zM192 224C183.2 224 176 231.2 176 240C176 248.8 183.2 256 192 256L256 256C264.8 256 272 248.8 272 240C272 231.2 264.8 224 256 224L192 224z"/></svg>