<svg xmlns="http://www.w3.org/2000/svg" viewBox="0 0 640 640"><!--! Font Awesome Pro 7.1.0 by @fontawesome - https://fontawesome.com License - https://fontawesome.com/license (Commercial License) Copyright 2025 Fonticons, Inc. --><path fill="currentColor" d="M544 320C544 196.3 443.7 96 320 96C196.3 96 96 196.3 96 320C96 443.7 196.3 544 320 544C443.7 544 544 443.7 544 320zM64 320C64 178.6 178.6 64 320 64C461.4 64 576 178.6 576 320C576 461.4 461.4 576 320 576C178.6 576 64 461.4 64 320zM272 448L368 448C376.8 448 384 455.2 384 464C384 472.8 376.8 480 368 480L272 480C263.2 480 256 472.8 256 464C256 455.2 263.2 448 272 448zM408 368L424 368C437.3 368 448 357.3 448 344C448 335.2 455.2 328 464 328C472.8 328 480 335.2 480 344C480 374.9 454.9 400 424 400L408 400C377.1 400 352 374.9 352 344C352 335.2 359.2 328 368 328C376.8 328 384 335.2 384 344C384 357.3 394.7 368 408 368zM192 344C192 357.3 202.7 368 216 368L232 368C245.3 368 256 357.3 256 344C256 335.2 263.2 328 272 328C280.8 328 288 335.2 288 344C288 374.9 262.9 400 232 400L216 400C185.1 400 160 374.9 160 344C160 335.2 167.2 328 176 328C184.8 328 192 335.2 192 344zM163.5 282C158 275.1 159.1 265 166 259.5L246 195.5C252.9 190 263 191.1 268.5 198C274 204.9 272.9 215 266 220.5L186 284.5C179.1 290 169 288.9 163.5 282zM474 259.5C480.9 265 482 275.1 476.5 282C471 288.9 460.9 290 454 284.5L374 220.5C367.1 215 366 204.9 371.5 198C377 191.1 387.1 190 394 195.5L474 259.5z"/></svg>