<svg xmlns="http://www.w3.org/2000/svg" viewBox="0 0 640 640"><!--! Font Awesome Pro 7.1.0 by @fontawesome - https://fontawesome.com License - https://fontawesome.com/license (Commercial License) Copyright 2025 Fonticons, Inc. --><path fill="currentColor" d="M208.6 359.6C204.8 351.6 195.2 348.2 187.3 352.1C179.4 356 175.9 365.5 179.8 373.4C199.2 414.1 235.8 446.5 282.8 459.1C329.8 471.7 377.6 462 414.8 436.4C422.1 431.4 423.9 421.4 418.9 414.2C413.9 407 403.9 405.1 396.7 410.1C366.9 430.6 328.7 438.3 291.1 428.3C253.5 418.3 224.3 392.4 208.7 359.7zM232 256C232 242.7 242.7 232 256 232C269.3 232 280 242.7 280 256C280 269.3 269.3 280 256 280C242.7 280 232 269.3 232 256zM416 312C429.3 312 440 301.3 440 288C440 274.7 429.3 264 416 264C402.7 264 392 274.7 392 288C392 301.3 402.7 312 416 312zM566.1 390.8C558.5 417.4 576.4 448 604.1 448L624.1 448C632.9 448 640.1 455.2 640.1 464C640.1 472.8 632.9 480 624.1 480L560.1 480C518.8 480 518.8 544 560.1 544C568.9 544 576.1 551.2 576.1 560C576.1 568.8 568.9 576 560.1 576L16 576C7.2 576 0 568.8 0 560C0 551.2 7.2 544 16 544L41.4 544C82.7 544 109.1 471 90.7 434C73.6 399.7 64 361 64 320C64 178.6 178.6 64 320 64C461.4 64 576 178.6 576 320C576 344.6 572.5 368.3 566.1 390.8zM544 320C544 196.3 443.7 96 320 96C196.3 96 96 196.3 96 320C96 355.9 104.4 389.8 119.4 419.8C138.8 458.7 127.5 510.6 101.4 544L504.6 544C483.4 507.4 504.8 458.2 546.8 449.4C533.7 430.6 528.6 405.8 535.4 382C541 362.4 544.1 341.6 544.1 320z"/></svg>