<svg xmlns="http://www.w3.org/2000/svg" viewBox="0 0 640 640"><!--! Font Awesome Pro 7.1.0 by @fontawesome - https://fontawesome.com License - https://fontawesome.com/license (Commercial License) Copyright 2025 Fonticons, Inc. --><path fill="currentColor" d="M544 320C544 196.3 443.7 96 320 96C196.3 96 96 196.3 96 320C96 443.7 196.3 544 320 544C443.7 544 544 443.7 544 320zM64 320C64 178.6 178.6 64 320 64C461.4 64 576 178.6 576 320C576 461.4 461.4 576 320 576C178.6 576 64 461.4 64 320zM235.1 459.6L234 460.5C227.1 466 217 464.9 211.5 458C206 451.1 207.1 441 214 435.5L215.1 434.6C269 391.5 336 368 405 368L416 368C424.8 368 432 375.2 432 384C432 392.8 424.8 400 416 400L405 400C343.2 400 283.3 421 235.1 459.6zM216 272C216 258.7 226.7 248 240 248C253.3 248 264 258.7 264 272C264 285.3 253.3 296 240 296C226.7 296 216 285.3 216 272zM400 248C413.3 248 424 258.7 424 272C424 285.3 413.3 296 400 296C386.7 296 376 285.3 376 272C376 258.7 386.7 248 400 248z"/></svg>