<svg xmlns="http://www.w3.org/2000/svg" viewBox="0 0 640 640"><!--! Font Awesome Pro 7.1.0 by @fontawesome - https://fontawesome.com License - https://fontawesome.com/license (Commercial License) Copyright 2025 Fonticons, Inc. --><path fill="currentColor" d="M544 320C544 196.3 443.7 96 320 96C196.3 96 96 196.3 96 320C96 443.7 196.3 544 320 544C443.7 544 544 443.7 544 320zM64 320C64 178.6 178.6 64 320 64C461.4 64 576 178.6 576 320C576 461.4 461.4 576 320 576C178.6 576 64 461.4 64 320zM224 384L416 384C424.8 384 432 391.2 432 400C432 408.8 424.8 416 416 416L224 416C215.2 416 208 408.8 208 400C208 391.2 215.2 384 224 384zM192 272C192 263.2 199.2 256 208 256L272 256C280.8 256 288 263.2 288 272C288 280.8 280.8 288 272 288L208 288C199.2 288 192 280.8 192 272zM368 256L432 256C440.8 256 448 263.2 448 272C448 280.8 440.8 288 432 288L368 288C359.2 288 352 280.8 352 272C352 263.2 359.2 256 368 256z"/></svg>