<svg xmlns="http://www.w3.org/2000/svg" viewBox="0 0 640 640"><!--! Font Awesome Pro 7.1.0 by @fontawesome - https://fontawesome.com License - https://fontawesome.com/license (Commercial License) Copyright 2025 Fonticons, Inc. --><path fill="currentColor" d="M245.7 41.8C254.2 39.5 259.3 30.7 257 22.2C254.7 13.7 246 8.6 237.5 10.9C158.4 32.1 87.3 83.5 43.1 160C38.7 167.7 41.4 177.4 49 181.9C56.6 186.4 66.4 183.7 70.9 176C110.6 107.1 174.5 60.9 245.7 41.8zM597.4 480C601.8 472.3 599.2 462.6 591.5 458.1C583.8 453.6 574.1 456.3 569.6 464C529.8 532.9 465.9 579.1 394.7 598.2C386.2 600.5 381.1 609.3 383.4 617.8C385.7 626.3 394.5 631.4 403 629.1C482.1 607.9 553.1 556.5 597.3 480zM415.7 153.7C476.4 187.2 514.3 250.9 514.8 320.3C515.3 389.7 478.4 453.9 418.1 488.3C357.9 522.7 283.8 522 224.3 486.3C163.6 452.8 125.7 389.1 125.2 319.7C124.7 250.3 161.6 186.1 221.9 151.7C282.1 117.3 356.2 118 415.7 153.7zM208.3 514C277.7 555.8 364.3 556.8 434.7 516.6C505 476.5 548.2 401.5 547.6 320.4C547 239.4 502.7 165.1 431.7 126C362.3 84.2 275.7 83.2 205.3 123.4C135 163.5 91.8 238.5 92.4 319.6C93 400.6 137.3 474.9 208.3 514zM295.8 250.4C302.4 238.9 298.5 224.2 287 217.6C275.5 211 260.8 214.9 254.2 226.4C247.6 237.9 251.5 252.6 263 259.2C274.5 265.8 289.2 261.9 295.8 250.4zM401.6 339.2C413.1 345.8 427.8 341.9 434.4 330.4C441 318.9 437.1 304.2 425.6 297.6C414.1 291 399.4 294.9 392.8 306.4C386.2 317.9 390.1 332.6 401.6 339.2zM255.3 432.6C241.8 425.4 233.3 411.3 233.2 396C233 380.7 241.2 366.5 254.6 359C267.9 351.5 284.3 351.8 297.3 359.9C310.8 367.1 319.3 381.2 319.4 396.5C319.6 411.8 311.4 426 298 433.5C284.7 441 268.3 440.7 255.3 432.6zM215.7 361.2C202.5 382.9 202.1 410 214.6 432.1C227.1 454.2 250.6 467.8 276 467.6C301.4 467.4 324.7 453.5 336.9 431.2C350.1 409.5 350.5 382.4 338 360.3C325.5 338.2 302 324.6 276.6 324.8C251.2 325 227.9 338.9 215.7 361.2z"/></svg>