<svg xmlns="http://www.w3.org/2000/svg" viewBox="0 0 640 640"><!--! Font Awesome Pro 7.1.0 by @fontawesome - https://fontawesome.com License - https://fontawesome.com/license (Commercial License) Copyright 2025 Fonticons, Inc. --><path fill="currentColor" d="M544 320C544 196.3 443.7 96 320 96C196.3 96 96 196.3 96 320C96 443.7 196.3 544 320 544C443.7 544 544 443.7 544 320zM64 320C64 178.6 178.6 64 320 64C461.4 64 576 178.6 576 320C576 461.4 461.4 576 320 576C178.6 576 64 461.4 64 320zM384 328C384 341.3 394.7 352 408 352L424 352C437.3 352 448 341.3 448 328C448 319.2 455.2 312 464 312C472.8 312 480 319.2 480 328C480 358.9 454.9 384 424 384L408 384C377.1 384 352 358.9 352 328C352 319.2 359.2 312 368 312C376.8 312 384 319.2 384 328zM216 352L232 352C245.3 352 256 341.3 256 328C256 319.2 263.2 312 272 312C280.8 312 288 319.2 288 328C288 358.9 262.9 384 232 384L216 384C185.1 384 160 358.9 160 328C160 319.2 167.2 312 176 312C184.8 312 192 319.2 192 328C192 341.3 202.7 352 216 352zM254.6 436.7C271.3 453.6 294.4 464 320 464C345.6 464 368.7 453.6 385.4 436.7C391.6 430.4 401.7 430.4 408 436.6C414.3 442.8 414.3 452.9 408.1 459.2C385.6 481.9 354.5 496 320 496C285.5 496 254.4 481.9 231.9 459.3C225.7 453 225.7 442.9 232 436.7C238.3 430.5 248.4 430.5 254.6 436.8zM271.1 170.9C273.9 179.3 269.4 188.3 261 191.1L254.7 193.2C231.1 201.1 210.7 216.6 196.9 237.3L189.3 248.8C184.4 256.2 174.5 258.1 167.1 253.2C159.7 248.3 157.8 238.4 162.7 231L170.3 219.5C188.1 192.9 214.2 172.9 244.6 162.8L250.9 160.7C259.3 157.9 268.3 162.4 271.1 170.8zM378.9 191.1C370.5 188.3 366 179.2 368.8 170.9C371.6 162.6 380.7 158 389.1 160.8L395.4 162.9C425.8 173 451.9 193 469.7 219.6L477.3 231.1C482.2 238.5 480.2 248.4 472.9 253.3C465.6 258.2 455.6 256.2 450.7 248.9L443 237.4C429.2 216.7 408.9 201.1 385.2 193.3L378.9 191.2z"/></svg>