<svg xmlns="http://www.w3.org/2000/svg" viewBox="0 0 640 640"><!--! Font Awesome Pro 7.1.0 by @fontawesome - https://fontawesome.com License - https://fontawesome.com/license (Commercial License) Copyright 2025 Fonticons, Inc. --><path fill="currentColor" d="M544 320C544 337 542.1 353.5 538.5 369.4C543.9 368.5 549.5 368 555.2 368C560.6 368 566 368.4 571.2 369.3C574.3 353.4 575.9 336.9 575.9 320C575.9 178.6 461.3 64 319.9 64C178.5 64 64 178.6 64 320C64 336.9 65.6 353.3 68.7 369.3C73.9 368.5 79.3 368 84.7 368C90.4 368 96 368.5 101.4 369.4C97.8 353.5 95.9 337 95.9 320C95.9 196.3 196.2 96 319.9 96C443.6 96 544 196.3 544 320zM320 544C273.7 544 230.6 529.9 194.9 505.9L203.3 548C238.3 565.9 278 576 320 576C362 576 401.7 565.9 436.7 547.9L445.1 505.8C409.4 529.9 366.3 544 320 544zM105.1 464.7L127.4 576L160 576L136.5 458.4C131.5 433.8 109.9 416 84.8 416C55.6 416 32 439.6 32 468.8L32 576L64 576L64 468.8C64 457.3 73.3 448 84.8 448C94.7 448 103.2 455 105.1 464.7zM512.6 576L534.9 464.7C536.8 455 545.4 448 555.3 448C566.8 448 576.1 457.3 576.1 468.8L576.1 576L608.1 576L608.1 468.8C608.1 439.7 584.5 416 555.3 416C530.2 416 508.5 433.8 503.6 458.4L480 576L512.6 576zM188.3 261.4C198 245.5 211.3 234.2 224.4 228.4C237.6 222.6 249 222.9 257.1 227.3C265 231.6 270.6 240.3 271.8 253.3C273 266.4 269.4 282.7 259.7 298.6C250 314.5 236.7 325.8 223.6 331.6C210.4 337.4 199 337.1 190.9 332.7C183 328.4 177.4 319.7 176.2 306.7C175 293.6 178.6 277.3 188.3 261.4zM272.4 199.3C253.2 188.8 230.9 190.6 211.4 199.2C191.9 207.8 173.7 223.8 160.9 244.8C148.1 265.8 142.4 288.9 144.3 309.7C146.2 330.6 156.1 350.3 175.5 360.9C194.7 371.4 217 369.6 236.5 361C256 352.4 274.2 336.4 287 315.4C299.8 294.4 305.5 271.3 303.6 250.5C301.7 229.6 291.8 209.9 272.4 199.3zM415.7 228.5C428.8 234.3 442.1 245.6 451.8 261.5C461.5 277.4 465.1 293.7 463.9 306.8C462.7 319.8 457 328.5 449.2 332.8C441.1 337.2 429.7 337.5 416.5 331.7C403.4 325.9 390.1 314.6 380.4 298.7C370.7 282.8 367.1 266.5 368.3 253.4C369.5 240.4 375.2 231.7 383 227.4C391.1 223 402.5 222.7 415.7 228.5zM428.6 199.2C409.2 190.6 386.8 188.8 367.6 199.3C348.2 209.9 338.3 229.6 336.4 250.5C334.5 271.3 340.2 294.4 353 315.4C365.8 336.4 383.9 352.4 403.5 361C422.9 369.6 445.3 371.4 464.5 360.9C483.9 350.3 493.8 330.6 495.7 309.7C497.6 288.9 491.9 265.8 479.1 244.8C466.3 223.8 448.2 207.8 428.6 199.2zM352 432L352 448C352 465.7 337.7 480 320 480C302.3 480 288 465.7 288 448L288 432C288 414.3 302.3 400 320 400C337.7 400 352 414.3 352 432zM256 432L256 448C256 483.3 284.7 512 320 512C355.3 512 384 483.3 384 448L384 432C384 396.7 355.3 368 320 368C284.7 368 256 396.7 256 432z"/></svg>