<svg xmlns="http://www.w3.org/2000/svg" viewBox="0 0 640 640"><!--! Font Awesome Pro 7.1.0 by @fontawesome - https://fontawesome.com License - https://fontawesome.com/license (Commercial License) Copyright 2025 Fonticons, Inc. --><path fill="currentColor" d="M544 320C544 196.3 443.7 96 320 96C196.3 96 96 196.3 96 320C96 443.7 196.3 544 320 544C443.7 544 544 443.7 544 320zM64 320C64 178.6 178.6 64 320 64C461.4 64 576 178.6 576 320C576 461.4 461.4 576 320 576C178.6 576 64 461.4 64 320zM254.6 443.3C248.4 449.6 238.3 449.6 232 443.4C225.7 437.2 225.7 427.1 231.9 420.8C254.4 398.1 285.5 384 320 384C354.5 384 385.6 398.1 408.1 420.7C414.3 427 414.3 437.1 408 443.3C401.7 449.5 391.6 449.5 385.4 443.2C368.7 426.4 345.6 416 320 416C294.4 416 271.3 426.4 254.6 443.3zM176 256L240 256C257.7 256 272 270.3 272 288C272 305.7 257.7 320 240 320C222.3 320 208 305.7 208 288L176 288C167.2 288 160 280.8 160 272C160 263.2 167.2 256 176 256zM352 272C352 263.2 359.2 256 368 256L432 256C449.7 256 464 270.3 464 288C464 305.7 449.7 320 432 320C414.3 320 400 305.7 400 288L368 288C359.2 288 352 280.8 352 272z"/></svg>