<svg xmlns="http://www.w3.org/2000/svg" viewBox="0 0 640 640"><!--! Font Awesome Pro 7.1.0 by @fontawesome - https://fontawesome.com License - https://fontawesome.com/license (Commercial License) Copyright 2025 Fonticons, Inc. --><path fill="currentColor" d="M544.2 326.7L443.9 427C447.3 433.5 446 441.7 440.2 446.7C433.5 452.4 423.4 451.7 417.6 444.9C394.1 417.4 359.2 400 320.3 400C281.4 400 246.5 417.4 223 444.9C217.3 451.6 207.2 452.4 200.4 446.7C193.6 441 192.9 430.9 198.6 424.1C227.9 389.8 271.6 368 320.3 368C323.4 368 326.4 368.1 329.4 368.3L401.7 296C401.2 296 400.8 296 400.3 296C387 296 376.3 285.3 376.3 272C376.3 258.7 387 248 400.3 248C413.6 248 424.3 258.7 424.3 272C424.3 272.5 424.3 272.9 424.3 273.4L504.8 192.9C464.4 134.4 396.8 96 320.3 96C196.6 96 96.3 196.3 96.3 320C96.3 443.7 196.6 544 320.3 544C441.8 544 540.6 447.3 544.2 326.7zM575.2 295.7C575.9 303.7 576.3 311.8 576.3 319.9C576.3 461.3 461.7 575.9 320.3 575.9C178.9 575.9 64.3 461.4 64.3 320C64.3 178.6 178.9 64 320.3 64C406.3 64 482.4 106.4 528.8 171.4C552.3 157.3 583.3 160.4 603.6 180.6C627.5 204.5 627.5 243.3 603.6 267.2L575.2 295.6zM421.5 404.1L457.6 368L444.9 355.3C438.7 349.1 438.7 338.9 444.9 332.7C451.1 326.5 461.3 326.5 467.5 332.7L480.2 345.4L505.6 320L492.9 307.3C486.7 301.1 486.7 290.9 492.9 284.7C499.1 278.5 509.3 278.5 515.5 284.7L528.2 297.4L553.6 272L540.9 259.3C534.7 253.1 534.7 242.9 540.9 236.7C547.1 230.5 557.3 230.5 563.5 236.7L576.2 249.4L580.9 244.7C592.3 233.3 592.3 214.8 580.9 203.3C569.5 191.8 551 191.9 539.5 203.3L367.7 375.2C387.6 381.4 405.8 391.3 421.5 404.2zM240.3 248C253.6 248 264.3 258.7 264.3 272C264.3 285.3 253.6 296 240.3 296C227 296 216.3 285.3 216.3 272C216.3 258.7 227 248 240.3 248z"/></svg>