<svg xmlns="http://www.w3.org/2000/svg" viewBox="0 0 640 640"><!--! Font Awesome Pro 7.1.0 by @fontawesome - https://fontawesome.com License - https://fontawesome.com/license (Commercial License) Copyright 2025 Fonticons, Inc. --><path fill="currentColor" d="M544 320C544 443.7 443.7 544 320 544C196.3 544 96 443.7 96 320C96 316.4 96.1 312.9 96.2 309.4C86.8 300 76.6 288.3 68 274.4C65.3 289.2 64 304.4 64 320C64 461.4 178.6 576 320 576C461.4 576 576 461.4 576 320C576 304.4 574.6 289.2 572 274.4C563.4 288.3 553.2 300 543.8 309.4C544 312.9 544 316.4 544 320zM472.3 114.2C429.7 82.7 377 64 320 64C263 64 210.3 82.7 167.7 114.2C176.2 116 184.3 118.9 192 122.9C205.7 115.9 221 112.1 236.7 112C262.5 101.7 290.6 96 320 96C349.4 96 377.6 101.7 403.3 112C419 112.1 434.3 115.8 448 122.9C455.7 119 463.8 116.1 472.3 114.2zM320 432C358 432 394.5 427.8 428.5 420C405.8 456.1 365.7 480 320 480C274.3 480 234.2 456.1 211.5 420C245.5 427.8 282 432 320 432zM473.5 397.3C476.9 385.6 465.1 376.3 453.5 380C413.6 392.8 368.2 400 320 400C271.8 400 226.4 392.8 186.5 380C174.9 376.3 163.1 385.6 166.5 397.3C186 463.6 247.4 512 320 512C392.6 512 454 463.6 473.5 397.3zM493.1 176L496 176C513.7 176 528 190.3 528 208C528 229.4 513.5 250.5 493.4 269C476.5 284.5 458 296 448 301.7C438 296 419.5 284.5 402.6 269C382.5 250.5 368 229.3 368 208C368 190.3 382.3 176 400 176L402.9 176C412.2 176 421 179.7 427.6 186.2L436.7 195.3C439.7 198.3 443.8 200 448 200C452.2 200 456.3 198.3 459.3 195.3L468.4 186.2C474.9 179.7 483.8 176 493.1 176zM448 161.5C435.7 150.3 419.6 144 402.9 144L400 144C364.7 144 336 172.7 336 208C336 243.3 359.1 272.5 381 292.6C403.4 313.2 427.8 327.3 436.9 332.2C443.9 336 452.2 336 459.1 332.2C468.2 327.3 492.6 313.1 515 292.6C536.8 272.5 560 243.3 560 208C560 172.7 531.3 144 496 144L493.1 144C476.4 144 460.3 150.3 448 161.5zM212.4 186.2C218.9 179.7 227.8 176 237.1 176L240 176C257.7 176 272 190.3 272 208C272 229.4 257.5 250.5 237.4 269C220.6 284.5 202 296 192 301.7C182 296 163.5 284.5 146.6 269C126.5 250.5 112 229.3 112 208C112 190.3 126.3 176 144 176L146.9 176C156.2 176 165 179.7 171.6 186.2L180.7 195.3C183.7 198.3 187.8 200 192 200C196.2 200 200.3 198.3 203.3 195.3L212.4 186.2zM237.1 144C220.4 144 204.3 150.3 192 161.5C179.7 150.3 163.6 144 146.9 144L144 144C108.7 144 80 172.7 80 208C80 243.3 103.1 272.5 125 292.6C147.4 313.2 171.8 327.3 180.9 332.2C187.9 336 196.2 336 203.1 332.2C212.2 327.3 236.6 313.1 259 292.6C280.8 272.5 304 243.3 304 208C304 172.7 275.3 144 240 144L237.1 144z"/></svg>