<svg xmlns="http://www.w3.org/2000/svg" viewBox="0 0 640 640"><!--! Font Awesome Pro 7.1.0 by @fontawesome - https://fontawesome.com License - https://fontawesome.com/license (Commercial License) Copyright 2025 Fonticons, Inc. --><path fill="currentColor" d="M400.4 76.8C375.2 68.5 348.2 64 320.3 64C245.9 64 178.9 95.8 132.1 146.4C119.6 148.9 107.1 151.6 94.8 154.6C86.6 156.6 79.5 161.7 75.1 168.9C35.4 233.3 22.7 336.8 46.7 410C50.5 421.6 60.6 430 72.7 431.7C84.8 433.4 96.8 428 103.6 417.9C134.7 371.8 173.2 331 217.3 297.2C213 312.1 224.6 327.9 240.3 327.9C253.6 327.9 264.3 317.2 264.3 303.9C264.3 290.9 254 280.4 241.2 279.9C253.2 271.7 265.6 264.1 278.4 256.9C373.4 252.2 469.1 263.6 560.1 290.9C571.1 294.2 582.9 291.4 591.3 283.5C599.7 275.6 603.1 263.9 600.5 252.8C583.2 180.1 533 111.7 469 73.1C462.9 69.4 455.6 67.9 448.5 68.7C432.3 70.7 416.3 73.3 400.4 76.6zM191.8 136.5C231.3 108.7 279.4 94.5 327.7 96.1C298.4 105.8 270.1 117.5 242.9 131.1C225.8 132.5 208.8 134.3 191.9 136.5zM538.4 185.7C552.4 208.5 563 233.6 569.4 260.4C408 211.9 232.7 211.9 71.3 260.4C77.7 233.6 88.3 208.5 102.3 185.7C245 151.4 395.7 151.4 538.3 185.7zM209.3 263.3C157.7 300.8 112.8 347.1 77.1 400C67.7 371.3 63.4 341 64.5 310.8C70.4 303.8 76.5 297 82.7 290.3C123.7 278.1 166 269 209.3 263.2zM332.9 128.1C371.2 115.1 411.1 105.9 452.4 100.7C473.2 113.3 492.1 128.7 508.5 146.4C451.6 135.1 392.9 128.8 332.9 128zM575.8 337C576.4 328.2 569.7 320.6 560.9 320C552.1 319.4 544.5 326.1 543.9 334.9C536.2 451.6 439.1 543.9 320.4 543.9C247.1 543.9 182.1 508.7 141.2 454.3C135.9 447.2 125.9 445.8 118.8 451.1C111.7 456.4 110.3 466.4 115.6 473.5C162.2 535.8 236.5 576 320.3 576C456 576 567 470.5 575.8 337zM405.5 461.5C412 467.4 422.2 467 428.1 460.4C434 453.8 433.6 443.7 427 437.8C405.5 418.2 372.4 399.9 328.2 399.9C311.8 399.9 296.8 402.4 283.4 406.7C275 409.4 270.3 418.3 272.9 426.8C275.5 435.3 284.5 439.9 293 437.3C303.4 434 315.1 432 328.2 432C363 432 388.6 446.2 405.4 461.5zM376.3 304C376.3 290.7 387 280 400.3 280C413.6 280 424.3 290.7 424.3 304C424.3 317.3 413.6 328 400.3 328C387 328 376.3 317.3 376.3 304z"/></svg>