<svg xmlns="http://www.w3.org/2000/svg" viewBox="0 0 640 640"><!--! Font Awesome Pro 7.1.0 by @fontawesome - https://fontawesome.com License - https://fontawesome.com/license (Commercial License) Copyright 2025 Fonticons, Inc. --><path fill="currentColor" d="M575.9 325.4L542.2 291.7C528.3 181.3 434.1 96 320 96C273 96 229.4 110.5 193.4 135.2C183.5 126.8 171.8 121.9 159.6 120.5C203.5 85.2 259.3 64 320 64C461.4 64 576 178.6 576 320C576 321.8 576 323.6 575.9 325.4zM393.2 531.8L418 556.6C387.8 569.1 354.7 576 320 576C232 576 154.4 531.6 108.3 464C120.7 463.9 132.9 462.4 144.6 459.4C185.6 511 248.9 544 319.9 544C345.5 544 370.2 539.7 393.1 531.8zM320 384C336.2 384 351.6 387.8 364.5 394.7C361 397 357.8 399.7 354.7 402.7C349.6 407.8 345.5 413.6 342.5 419.8C335.9 417.4 328.3 415.9 320 415.9C305.5 415.9 292.9 420.3 284.3 426.8C275.7 433.3 272 440.9 272 448C272 455.1 275.8 462.7 284.3 469.1C292.8 475.5 305.5 480 320 480C328.3 480 335.9 478.6 342.5 476.1C345.5 482.3 349.6 488.1 354.7 493.2L363.3 501.8C350.6 508.3 335.7 511.9 319.9 511.9C299.1 511.9 279.7 505.6 265 494.6C250.3 483.6 240 467.4 240 448C240 428.6 250.5 412.2 265.1 401.3C279.7 390.4 299.2 384 320 384zM416 204C454.3 204 486.6 229.6 496.7 264.6C485.8 263.1 474.6 264.4 464.2 268.6C456.5 249.5 437.8 236 416 236C387.3 236 364 259.3 364 288C364 301.7 369.3 314.2 378 323.5C369.9 331.8 364.6 341.8 361.9 352.3C343.6 336.9 332 313.8 332 288C332 241.6 369.6 204 416 204zM416.4 264C429.7 264 440.4 274.7 440.4 288C440.4 301.3 429.7 312 416.4 312C403.1 312 392.4 301.3 392.4 288C392.4 274.7 403.1 264 416.4 264zM163.3 172.7C169.5 178.9 169.5 189.1 163.3 195.3L91.3 267.3C85.1 273.5 74.9 273.5 68.7 267.3C62.5 261.1 62.5 250.9 68.7 244.7L140.7 172.7C146.9 166.5 157.1 166.5 163.3 172.7zM16 192C24.8 192 32 199.2 32 208L32 312C32 351.8 64.2 384 104 384L107.5 384C126.6 384 144.9 376.4 158.4 362.9L228.6 292.7C234.8 286.5 245 286.5 251.2 292.7C257.4 298.9 257.4 309.1 251.2 315.3L181 385.5C161.5 405 135 416 107.5 416L104 416C46.6 416 0 369.4 0 312L0 208C0 199.2 7.2 192 16 192zM227.3 212.7C233.5 218.9 233.5 229.1 227.3 235.3L147.3 315.3C141.1 321.5 130.9 321.5 124.7 315.3C118.5 309.1 118.5 298.9 124.7 292.7L204.7 212.7C210.9 206.5 221.1 206.5 227.3 212.7zM476.7 339.3C470.5 333.1 470.5 322.9 476.7 316.7C482.9 310.5 493.1 310.5 499.3 316.7L571.3 388.7C577.5 394.9 577.5 405.1 571.3 411.3C565.1 417.5 554.9 417.5 548.7 411.3L476.7 339.3zM608 352C608 343.2 615.2 336 624 336C632.8 336 640 343.2 640 352L640 456C640 513.4 593.4 560 536 560L532.5 560C504.9 560 478.5 549 459 529.5L388.8 459.3C382.6 453.1 382.6 442.9 388.8 436.7C395 430.5 405.2 430.5 411.4 436.7L481.6 506.9C495 520.4 513.4 528 532.5 528L536 528C575.8 528 608 495.8 608 456L608 352zM412.7 379.3C406.5 373.1 406.5 362.9 412.7 356.7C418.9 350.5 429.1 350.5 435.3 356.7L515.3 436.7C521.5 442.9 521.5 453.1 515.3 459.3C509.1 465.5 498.9 465.5 492.7 459.3L412.7 379.3z"/></svg>