<svg xmlns="http://www.w3.org/2000/svg" viewBox="0 0 640 640"><!--! Font Awesome Pro 7.1.0 by @fontawesome - https://fontawesome.com License - https://fontawesome.com/license (Commercial License) Copyright 2025 Fonticons, Inc. --><path fill="currentColor" d="M544 320C544 196.3 443.7 96 320 96C196.3 96 96 196.3 96 320C96 443.7 196.3 544 320 544C443.7 544 544 443.7 544 320zM64 320C64 178.6 178.6 64 320 64C461.4 64 576 178.6 576 320C576 461.4 461.4 576 320 576C178.6 576 64 461.4 64 320zM222.7 387.1C246.2 414.6 281 432 320 432C359 432 393.8 414.6 417.3 387.1C423 380.4 433.1 379.6 439.9 385.3C446.7 391 447.4 401.1 441.7 407.9C412.4 442.2 368.7 464 320 464C271.3 464 227.6 442.2 198.3 407.9C192.6 401.2 193.3 391.1 200.1 385.3C206.9 379.5 216.9 380.3 222.7 387.1zM232 256C218.7 256 208 266.7 208 280C208 288.8 200.8 296 192 296C183.2 296 176 288.8 176 280C176 249.1 201.1 224 232 224L248 224C278.9 224 304 249.1 304 280C304 288.8 296.8 296 288 296C279.2 296 272 288.8 272 280C272 266.7 261.3 256 248 256L232 256zM368 280C368 288.8 360.8 296 352 296C343.2 296 336 288.8 336 280C336 249.1 361.1 224 392 224L408 224C438.9 224 464 249.1 464 280C464 288.8 456.8 296 448 296C439.2 296 432 288.8 432 280C432 266.7 421.3 256 408 256L392 256C378.7 256 368 266.7 368 280z"/></svg>