<svg xmlns="http://www.w3.org/2000/svg" viewBox="0 0 640 640"><!--! Font Awesome Pro 7.1.0 by @fontawesome - https://fontawesome.com License - https://fontawesome.com/license (Commercial License) Copyright 2025 Fonticons, Inc. --><path fill="currentColor" d="M538.8 240C516.9 139.4 427.2 64 320 64C212.8 64 123.1 139.4 101.2 240L68.5 240C91 121.6 195 32 320 32C445 32 549 121.6 571.5 240L538.8 240zM264 208C264 221.3 253.3 232 240 232C226.7 232 216 221.3 216 208C216 199.8 220.1 192.6 226.3 188.3L186.9 175.2C178.5 172.4 174 163.3 176.8 155C179.6 146.7 188.7 142 197.1 144.8L293.1 176.8C301.5 179.6 306 188.7 303.2 197C300.4 205.3 291.3 209.9 283 207.1L262.9 200.4C263.7 202.8 264.1 205.3 264.1 207.9zM400 232C386.7 232 376 221.3 376 208C376 205.4 376.4 202.8 377.2 200.5L357.1 207.2C348.7 210 339.7 205.5 336.9 197.1C334.1 188.7 338.6 179.7 347 176.9L443 144.9C451.4 142.1 460.4 146.6 463.2 155C466 163.4 461.5 172.4 453.1 175.2L413.7 188.3C419.9 192.6 424 199.8 424 208C424 221.3 413.3 232 400 232zM32 352L32 512C32 529.7 46.3 544 64 544L576 544C593.7 544 608 529.7 608 512L608 352C608 334.3 593.7 320 576 320L64 320C46.3 320 32 334.3 32 352zM0 352C0 316.7 28.7 288 64 288L576 288C611.3 288 640 316.7 640 352L640 512C640 547.3 611.3 576 576 576L64 576C28.7 576 0 547.3 0 512L0 352zM400 416L384 416L384 448L400 448C408.8 448 416 455.2 416 464C416 472.8 408.8 480 400 480L384 480L384 496C384 504.8 376.8 512 368 512C359.2 512 352 504.8 352 496L352 480L320 480L320 496C320 504.8 312.8 512 304 512C295.2 512 288 504.8 288 496L288 480L272 480C263.2 480 256 472.8 256 464C256 455.2 263.2 448 272 448L288 448L288 416L272 416C263.2 416 256 408.8 256 400C256 391.2 263.2 384 272 384L288 384L288 368C288 359.2 295.2 352 304 352C312.8 352 320 359.2 320 368L320 384L352 384L352 368C352 359.2 359.2 352 368 352C376.8 352 384 359.2 384 368L384 384L400 384C408.8 384 416 391.2 416 400C416 408.8 408.8 416 400 416zM320 416L320 448L352 448L352 416L320 416zM570.4 363.9C577.1 369.7 577.9 379.7 572.1 386.5L476.1 498.5C470.3 505.2 460.3 506 453.5 500.2C446.7 494.4 446 484.4 451.8 477.6L547.8 365.6C553.6 358.9 563.6 358.1 570.4 363.9zM448 384C448 370.7 458.7 360 472 360C485.3 360 496 370.7 496 384C496 397.3 485.3 408 472 408C458.7 408 448 397.3 448 384zM552 456C565.3 456 576 466.7 576 480C576 493.3 565.3 504 552 504C538.7 504 528 493.3 528 480C528 466.7 538.7 456 552 456zM208 352C216.8 352 224 359.2 224 368L224 432C224 440.8 216.8 448 208 448C199.2 448 192 440.8 192 432L192 368C192 359.2 199.2 352 208 352zM184 488C184 474.7 194.7 464 208 464C221.3 464 232 474.7 232 488C232 501.3 221.3 512 208 512C194.7 512 184 501.3 184 488zM64 406.5C64 387.5 77.8 371.7 96 368.6L96 368.1C96 359.3 103.2 352.1 112 352.1C120.8 352.1 128 359.3 128 368.1L136 368.1C144.8 368.1 152 375.3 152 384.1C152 392.9 144.8 400.1 136 400.1L102.5 400.1C98.9 400.1 96 403 96 406.6C96 409.6 98 412.2 100.9 412.9L130.9 420.4C148 424.7 160 440.1 160 457.7C160 476.7 146.2 492.5 128 495.6L128 496.1C128 504.9 120.8 512.1 112 512.1C103.2 512.1 96 504.9 96 496.1L80 496.1C71.2 496.1 64 488.9 64 480.1C64 471.3 71.2 464.1 80 464.1L121.5 464.1C125.1 464.1 128 461.2 128 457.6C128 454.6 126 452 123.1 451.3L93.1 443.8C76 439.5 64 424.1 64 406.5z"/></svg>