<svg xmlns="http://www.w3.org/2000/svg" viewBox="0 0 640 640"><!--! Font Awesome Pro 7.1.0 by @fontawesome - https://fontawesome.com License - https://fontawesome.com/license (Commercial License) Copyright 2025 Fonticons, Inc. --><path fill="currentColor" d="M544 320C544 381 519.6 436.4 480 476.8L480 519.9C538.5 473 576 400.9 576 320C576 178.6 461.4 64 320 64C178.6 64 64 178.6 64 320C64 400.8 101.5 472.9 160 519.9L160 476.8C120.4 436.4 96 381 96 320C96 196.3 196.3 96 320 96C443.7 96 544 196.3 544 320zM176 384C167.2 384 160 391.2 160 400C160 408.8 167.2 416 176 416L208 416L208 528C208 589.9 258.1 640 320 640C381.9 640 432 589.9 432 528L432 416L464 416C472.8 416 480 408.8 480 400C480 391.2 472.8 384 464 384L176 384zM240 528L240 416L400 416L400 528C400 572.2 364.2 608 320 608C275.8 608 240 572.2 240 528zM336 448C336 439.2 328.8 432 320 432C311.2 432 304 439.2 304 448L304 448.5C285.8 451.6 272 467.4 272 486.4C272 504.1 284 519.4 301.1 523.7L331.1 531.2C334 531.9 336 534.5 336 537.5C336 541.1 333.1 544 329.5 544L296 544C287.2 544 280 551.2 280 560C280 568.8 287.2 576 296 576L304 576C304 584.8 311.2 592 320 592C328.8 592 336 584.8 336 576L336 575.5C354.2 572.4 368 556.6 368 537.6C368 519.9 356 504.6 338.9 500.3L308.9 492.8C306 492.1 304 489.5 304 486.5C304 482.9 306.9 480 310.5 480L344 480C352.8 480 360 472.8 360 464C360 455.2 352.8 448 344 448L336 448zM224 184L224 192L222.2 192C201.1 192 184 209.1 184 230.2C184 248.1 196.4 263.6 213.9 267.5L251.1 275.8C253.9 276.4 256 278.9 256 281.8C256 285.2 253.2 288 249.8 288L208 288C199.2 288 192 295.2 192 304C192 312.8 199.2 320 208 320L224 320L224 328C224 336.8 231.2 344 240 344C248.8 344 256 336.8 256 328L256 320L256 319.5C274.2 316.5 288 300.8 288 281.8C288 263.9 275.6 248.4 258.1 244.5L220.9 236.2C218.1 235.6 216 233.1 216 230.2C216 226.8 218.8 224 222.2 224L264 224C272.8 224 280 216.8 280 208C280 199.2 272.8 192 264 192L256 192L256 184C256 175.2 248.8 168 240 168C231.2 168 224 175.2 224 184zM400 168C391.2 168 384 175.2 384 184L384 192L382.2 192C361.1 192 344 209.1 344 230.2C344 248.1 356.4 263.6 373.9 267.5L411.1 275.8C413.9 276.4 416 278.9 416 281.8C416 285.2 413.2 288 409.8 288L368 288C359.2 288 352 295.2 352 304C352 312.8 359.2 320 368 320L384 320L384 328C384 336.8 391.2 344 400 344C408.8 344 416 336.8 416 328L416 320L416 319.5C434.2 316.5 448 300.8 448 281.8C448 263.9 435.6 248.4 418.1 244.5L380.9 236.2C378.1 235.6 376 233.1 376 230.2C376 226.8 378.8 224 382.2 224L424 224C432.8 224 440 216.8 440 208C440 199.2 432.8 192 424 192L416 192L416 184C416 175.2 408.8 168 400 168z"/></svg>