<svg xmlns="http://www.w3.org/2000/svg" viewBox="0 0 640 640"><!--! Font Awesome Pro 7.1.0 by @fontawesome - https://fontawesome.com License - https://fontawesome.com/license (Commercial License) Copyright 2025 Fonticons, Inc. --><path fill="currentColor" d="M96 320C96 196.3 196.3 96 320 96C443.7 96 544 196.3 544 320C544 388.9 512.9 450.5 464 491.6L464 531.7C497 509.2 524.5 479.1 544 444L544 528C544 536.8 551.2 544 560 544C568.8 544 576 536.8 576 528L576 320C576 178.6 461.4 64 320 64C178.6 64 64 178.6 64 320L64 432C64 440.8 71.2 448 80 448C88.8 448 96 440.8 96 432L96 320zM273 539C219 527.5 172.2 496.4 140.3 453.6C136.4 464.4 129.7 473.8 121.1 481C162.5 532.1 223.2 566.9 292.1 574.4C282.3 565.1 275.4 552.8 273 539zM240 384L240 448C222.3 448 208 433.7 208 416C208 398.3 222.3 384 240 384zM304 448L272 448L272 384L304 384L304 448zM368 384L368 448L336 448L336 384L368 384zM352 480L384 480L384 560C384 568.8 391.2 576 400 576C408.8 576 416 568.8 416 560L416 478C443.6 470.9 464 445.8 464 416C464 380.7 435.3 352 400 352L240 352C204.7 352 176 380.7 176 416C176 451.3 204.7 480 240 480L320 480L320 528C320 536.8 327.2 544 336 544C344.8 544 352 536.8 352 528L352 480zM400 448L400 384C417.7 384 432 398.3 432 416C432 433.7 417.7 448 400 448zM240 296C253.3 296 264 285.3 264 272C264 258.7 253.3 248 240 248C226.7 248 216 258.7 216 272C216 285.3 226.7 296 240 296zM424 272C424 258.7 413.3 248 400 248C386.7 248 376 258.7 376 272C376 285.3 386.7 296 400 296C413.3 296 424 285.3 424 272z"/></svg>