<svg xmlns="http://www.w3.org/2000/svg" viewBox="0 0 640 640"><!--! Font Awesome Pro 7.1.0 by @fontawesome - https://fontawesome.com License - https://fontawesome.com/license (Commercial License) Copyright 2025 Fonticons, Inc. --><path fill="currentColor" d="M320 96C443.7 96 544 196.3 544 320C544 443.7 443.7 544 320 544C196.3 544 96 443.7 96 320C96 196.3 196.3 96 320 96zM320 576C461.4 576 576 461.4 576 320C576 178.6 461.4 64 320 64C178.6 64 64 178.6 64 320C64 461.4 178.6 576 320 576zM405.3 473.3C409.8 469.8 413.7 464.7 415.3 458.2C416.9 451.5 415.8 444.7 412.6 438.7C395.2 406 360.2 384 320.1 384C280 384 245 406.1 227.6 438.7C224.4 444.7 223.3 451.5 224.9 458.2C226.5 464.7 230.3 469.8 234.9 473.3C243.7 480.1 256.1 482 267.3 477.8C283.5 471.7 301.3 468.4 320.2 468.4C339.1 468.4 356.9 471.8 373.1 477.8C384.3 482 396.7 480.2 405.5 473.3zM379.6 446.2C361.1 439.8 341 436.3 320 436.3C299.1 436.3 279 439.8 260.4 446.1C273.3 428 295.1 415.9 320 415.9C344.9 415.9 366.7 428 379.6 446.1zM240 328C253.3 328 264 317.3 264 304C264 301.4 263.6 298.8 262.8 296.5L282.9 303.2C291.3 306 300.3 301.5 303.1 293.1C305.9 284.7 301.4 275.7 293 272.9L197 240.9C188.6 238.1 179.6 242.6 176.8 251C174 259.4 178.5 268.4 186.9 271.2L226.3 284.3C220.1 288.6 216 295.8 216 304C216 317.3 226.7 328 240 328zM424 304C424 295.8 419.9 288.6 413.7 284.3L453.1 271.2C461.5 268.4 466 259.3 463.2 251C460.4 242.7 451.3 238.1 443 240.9L347 272.9C338.6 275.7 334.1 284.8 336.9 293.1C339.7 301.4 348.8 306 357.1 303.2L377.2 296.5C376.4 298.9 376 301.4 376 304C376 317.3 386.7 328 400 328C413.3 328 424 317.3 424 304z"/></svg>