<svg xmlns="http://www.w3.org/2000/svg" viewBox="0 0 640 640"><!--! Font Awesome Pro 7.1.0 by @fontawesome - https://fontawesome.com License - https://fontawesome.com/license (Commercial License) Copyright 2025 Fonticons, Inc. --><path fill="currentColor" d="M320 96C443.7 96 544 196.3 544 320C544 443.7 443.7 544 320 544C196.3 544 96 443.7 96 320C96 196.3 196.3 96 320 96zM320 576C461.4 576 576 461.4 576 320C576 178.6 461.4 64 320 64C178.6 64 64 178.6 64 320C64 461.4 178.6 576 320 576zM264 272C264 258.7 253.3 248 240 248C226.7 248 216 258.7 216 272C216 285.3 226.7 296 240 296C253.3 296 264 285.3 264 272zM400 296C413.3 296 424 285.3 424 272C424 258.7 413.3 248 400 248C386.7 248 376 258.7 376 272C376 285.3 386.7 296 400 296zM272.4 369C265.7 359.4 258.6 350.2 251 341.4C248.2 338.1 244.4 336 240 336C235.6 336 231.9 338.1 229 341.4C221.4 350.2 214.3 359.5 207.6 369C197.1 384.1 184 403 184 422.4C184 454.2 209.1 480 240 480C270.9 480 296 454.2 296 422.4C296 403 282.9 384.1 272.4 369zM240 378.9C242.1 381.7 244.1 384.5 246.1 387.4C251.5 395.2 256.1 401.9 259.6 408.6C263 415.3 264 419.7 264 422.4C264 437.4 252.4 448 240 448C227.6 448 216 437.4 216 422.4C216 419.7 217 415.4 220.4 408.6C223.8 401.9 228.4 395.1 233.9 387.4C235.9 384.5 238 381.7 240 378.9zM352 416C377.6 416 400.7 426.4 417.4 443.3C423.6 449.6 433.7 449.6 440 443.4C446.3 437.2 446.3 427.1 440.1 420.8C417.6 398.1 386.5 384.1 352 384.1C346.7 384.1 341.5 384.4 336.4 385.1C340.4 394.9 342.9 405.5 343.7 416.5C346.4 416.3 349.2 416.1 352 416.1z"/></svg>