<svg xmlns="http://www.w3.org/2000/svg" viewBox="0 0 640 640"><!--! Font Awesome Pro 7.1.0 by @fontawesome - https://fontawesome.com License - https://fontawesome.com/license (Commercial License) Copyright 2025 Fonticons, Inc. --><path fill="currentColor" d="M544 320C544 196.3 443.7 96 320 96C196.3 96 96 196.3 96 320C96 443.7 196.3 544 320 544C443.7 544 544 443.7 544 320zM64 320C64 178.6 178.6 64 320 64C461.4 64 576 178.6 576 320C576 461.4 461.4 576 320 576C178.6 576 64 461.4 64 320zM222.7 387.1C246.2 414.6 281 432 320 432C359 432 393.8 414.6 417.3 387.1C423 380.4 433.1 379.6 439.9 385.3C446.7 391 447.4 401.1 441.7 407.9C412.4 442.2 368.7 464 320 464C271.3 464 227.6 442.2 198.3 407.9C192.6 401.2 193.3 391.1 200.1 385.3C206.9 379.5 216.9 380.3 222.7 387.1zM216 272C216 258.7 226.7 248 240 248C253.3 248 264 258.7 264 272C264 285.3 253.3 296 240 296C226.7 296 216 285.3 216 272zM368 280C368 288.8 360.8 296 352 296C343.2 296 336 288.8 336 280C336 249.1 361.1 224 392 224L408 224C438.9 224 464 249.1 464 280C464 288.8 456.8 296 448 296C439.2 296 432 288.8 432 280C432 266.7 421.3 256 408 256L392 256C378.7 256 368 266.7 368 280z"/></svg>