<svg xmlns="http://www.w3.org/2000/svg" viewBox="0 0 640 640"><!--! Font Awesome Pro 7.1.0 by @fontawesome - https://fontawesome.com License - https://fontawesome.com/license (Commercial License) Copyright 2025 Fonticons, Inc. --><path fill="currentColor" d="M448 86.4C448 100.6 457.4 115.5 472.3 129.6C486.3 142.8 502.6 152.8 512 158C521.3 152.8 537.7 142.8 551.7 129.6C566.7 115.5 576 100.7 576 86.4C576 74 566 64 553.6 64L549.2 64C542.3 64 535.6 66.7 530.6 71.5L523 78.8C516.8 84.7 507 84.7 500.8 78.8L493.2 71.5C488.2 66.7 481.6 64 474.6 64L470.2 64C458 64 448 74 448 86.4zM470.4 32L474.8 32C488.4 32 501.5 36.7 512 45.3C522.5 36.7 535.6 32 549.2 32L553.6 32C583.6 32 608 56.4 608 86.4C608 114.2 590.4 137.1 573.6 152.9C556.3 169.2 536.7 180.9 526.5 186.5C517.4 191.5 506.6 191.5 497.5 186.5C487.3 180.9 467.7 169.2 450.4 152.9C433.6 137.1 416 114.2 416 86.4C416 56.4 440.4 32 470.4 32zM369.5 68.8C368.5 74.5 368 80.4 368 86.4C368 91.5 368.3 96.5 369 101.4C353.2 97.9 336.8 96 320 96C196.3 96 96 196.3 96 320C96 349 101.5 376.8 111.6 402.2C106.3 403.3 101.1 404.8 96 406.7C89.9 404.4 83.7 402.7 77.3 401.6C68.7 376 64 348.5 64 320C64 178.6 178.6 64 320 64C336.9 64 353.5 65.6 369.5 68.8zM557.4 224.1C569.4 253.7 576 286.1 576 320C576 348.5 571.3 376 562.7 401.6C556.3 402.7 550 404.4 544 406.7C538.9 404.8 533.7 403.3 528.4 402.2C538.4 376.7 544 349 544 320C544 290.5 538.3 262.3 527.9 236.6C535.4 235 542.7 232.4 549.6 228.6C551.8 227.4 554.5 225.9 557.4 224.1zM320 544C349.3 544 377.3 538.4 402.9 528.2C405.4 539.1 409.3 549.1 414 558.2C384.9 569.7 353.2 576 320 576C286.8 576 255.1 569.7 226 558.2C230.7 549.1 234.6 539.1 237.1 528.2C262.7 538.4 290.7 544 320 544zM200.1 385.3C206.8 379.6 216.9 380.3 222.7 387.1C246.2 414.6 281.1 432 320 432C358.9 432 393.8 414.6 417.3 387.1C423 380.4 433.1 379.6 439.9 385.3C446.7 391 447.4 401.1 441.7 407.9C412.4 442.2 368.7 464 320 464C271.3 464 227.6 442.2 198.3 407.9C192.6 401.2 193.3 391.1 200.1 385.3zM208 280C208 288.8 200.8 296 192 296C183.2 296 176 288.8 176 280C176 249.1 201.1 224 232 224L248 224C278.9 224 304 249.1 304 280C304 288.8 296.8 296 288 296C279.2 296 272 288.8 272 280C272 266.7 261.3 256 248 256L232 256C218.7 256 208 266.7 208 280zM392 256C378.7 256 368 266.7 368 280C368 288.8 360.8 296 352 296C343.2 296 336 288.8 336 280C336 249.1 361.1 224 392 224L408 224C438.9 224 464 249.1 464 280C464 288.8 456.8 296 448 296C439.2 296 432 288.8 432 280C432 266.7 421.3 256 408 256L392 256zM32 502.4C32 516.6 41.4 531.5 56.3 545.6C70.3 558.8 86.6 568.8 96 574C105.3 568.8 121.7 558.8 135.7 545.6C150.7 531.5 160 516.7 160 502.4C160 490 150 480 137.6 480L133.2 480C126.3 480 119.6 482.7 114.6 487.5L107 494.8C100.8 500.7 91 500.7 84.8 494.8L77.2 487.5C72.2 482.7 65.6 480 58.6 480L54.2 480C42 480 32 490 32 502.4zM54.4 448L58.8 448C72.4 448 85.6 452.7 96 461.3C106.5 452.7 119.6 448 133.2 448L137.6 448C167.6 448 192 472.4 192 502.4C192 530.2 174.4 553.1 157.6 568.9C140.3 585.2 120.7 596.9 110.5 602.5C101.4 607.5 90.6 607.5 81.5 602.5C71.3 596.9 51.7 585.2 34.4 568.9C17.6 553.1 0 530.2 0 502.4C0 472.4 24.4 448 54.4 448zM502.4 480C490 480 480 490 480 502.4C480 516.6 489.4 531.5 504.3 545.6C518.3 558.8 534.6 568.8 544 574C553.3 568.8 569.7 558.8 583.7 545.6C598.7 531.5 608 516.7 608 502.4C608 490 598 480 585.6 480L581.2 480C574.3 480 567.6 482.7 562.6 487.5L555 494.8C548.8 500.7 539 500.7 532.8 494.8L525.2 487.5C520.2 482.7 513.6 480 506.6 480L502.2 480zM448 502.4C448 472.4 472.4 448 502.4 448L506.8 448C520.4 448 533.5 452.7 544 461.3C554.5 452.7 567.6 448 581.2 448L585.6 448C615.6 448 640 472.4 640 502.4C640 530.2 622.4 553.1 605.6 568.9C588.3 585.2 568.7 596.9 558.5 602.5C549.4 607.5 538.6 607.5 529.5 602.5C519.3 596.9 499.7 585.2 482.4 568.9C465.6 553.1 448 530.2 448 502.4z"/></svg>