<svg xmlns="http://www.w3.org/2000/svg" viewBox="0 0 640 640"><!--! Font Awesome Pro 7.1.0 by @fontawesome - https://fontawesome.com License - https://fontawesome.com/license (Commercial License) Copyright 2025 Fonticons, Inc. --><path fill="currentColor" d="M239.1 560.9C220.5 589.2 188.5 608 152 608L148.5 608C120.9 608 94.5 597 75 577.5L4.7 507.3C-1.5 501.1-1.5 490.9 4.7 484.7C10.9 478.5 21.1 478.5 27.3 484.7L97.5 554.9C111 568.4 129.4 576 148.5 576L152 576C191.8 576 224 543.8 224 504L224 400C224 391.2 231.2 384 240 384C248.8 384 256 391.2 256 400L256 414.9C274.8 425.8 296.7 432 320 432C343.3 432 365.2 425.8 384 414.9L384 400C384 391.2 391.2 384 400 384C408.8 384 416 391.2 416 400L416 504C416 543.8 448.2 576 488 576L491.5 576C510.6 576 528.9 568.4 542.4 554.9L612.6 484.7C618.8 478.5 629 478.5 635.2 484.7C641.4 490.9 641.4 501.1 635.2 507.3L565 577.5C545.5 597 519 608 491.5 608L488 608C452.3 608 420.8 590 402 562.6C376.2 571.3 348.6 576 320 576C291.6 576 264.3 571.4 238.8 562.9C238.9 562.2 239 561.6 239.1 560.9zM251.8 533.5C273.3 540.4 296.2 544.1 320 544.1C343.8 544.1 366.7 540.4 388.2 533.5C385.5 524.2 384 514.3 384 504.1L384 450.8C364.4 459.4 342.8 464.1 320 464.1C297.2 464.1 275.6 459.3 256 450.8L256 504.1C256 514.3 254.5 524.2 251.8 533.5zM576 320C576 322 576 324 575.9 326C566.5 318.5 555.3 313.9 543.8 312.5C539.8 192.3 441.1 96 319.9 96C198.7 96 100.1 192.3 96.1 312.5C84.7 313.9 73.5 318.4 64 326C64 324 63.9 322 63.9 320C63.9 178.6 178.5 64 319.9 64C461.3 64 576 178.6 576 320zM208 280C208 288.8 200.8 296 192 296C183.2 296 176 288.8 176 280C176 244.7 204.7 216 240 216C275.3 216 304 244.7 304 280C304 288.8 296.8 296 288 296C279.2 296 272 288.8 272 280C272 262.3 257.7 248 240 248C222.3 248 208 262.3 208 280zM400 248C382.3 248 368 262.3 368 280C368 288.8 360.8 296 352 296C343.2 296 336 288.8 336 280C336 244.7 364.7 216 400 216C435.3 216 464 244.7 464 280C464 288.8 456.8 296 448 296C439.2 296 432 288.8 432 280C432 262.3 417.7 248 400 248zM92.7 364.7C98.9 358.5 109.1 358.5 115.3 364.7L187.3 436.7C193.5 442.9 193.5 453.1 187.3 459.3C181.1 465.5 170.9 465.5 164.7 459.3L92.7 387.3C86.5 381.1 86.5 370.9 92.7 364.7zM28.7 404.7C34.9 398.5 45.1 398.5 51.3 404.7L131.3 484.7C137.5 490.9 137.5 501.1 131.3 507.3C125.1 513.5 114.9 513.5 108.7 507.3L28.7 427.3C22.5 421.1 22.5 410.9 28.7 404.7zM547.3 364.7C553.5 370.9 553.5 381.1 547.3 387.3L475.3 459.3C469.1 465.5 458.9 465.5 452.7 459.3C446.5 453.1 446.5 442.9 452.7 436.7L524.7 364.7C530.9 358.5 541.1 358.5 547.3 364.7zM611.3 404.7C617.5 410.9 617.5 421.1 611.3 427.3L531.3 507.3C525.1 513.5 514.9 513.5 508.7 507.3C502.5 501.1 502.5 490.9 508.7 484.7L588.7 404.7C594.9 398.5 605.1 398.5 611.3 404.7z"/></svg>