<svg xmlns="http://www.w3.org/2000/svg" viewBox="0 0 640 640"><!--! Font Awesome Pro 7.1.0 by @fontawesome - https://fontawesome.com License - https://fontawesome.com/license (Commercial License) Copyright 2025 Fonticons, Inc. --><path fill="currentColor" d="M288 544C370.9 544 443.3 499 482 432L518.2 432C476.7 517.3 389.2 576 287.9 576C146.5 576 31.9 461.4 31.9 320C31.9 178.6 146.6 64 288 64C389.2 64 476.7 122.7 518.3 208L482 208C443.3 141 370.9 96 288 96C164.3 96 64 196.3 64 320C64 443.7 164.3 544 288 544zM158.7 387.1C182.2 414.6 217 432 256 432C295 432 329.8 414.6 353.3 387.1C359 380.4 369.1 379.6 375.9 385.3C382.7 391 383.4 401.1 377.7 407.9C348.4 442.2 304.7 464 256 464C207.3 464 163.6 442.2 134.3 407.9C128.6 401.2 129.3 391.1 136.1 385.3C142.9 379.5 152.9 380.3 158.7 387.1zM168 256C154.7 256 144 266.7 144 280C144 288.8 136.8 296 128 296C119.2 296 112 288.8 112 280C112 249.1 137.1 224 168 224L184 224C214.9 224 240 249.1 240 280C240 288.8 232.8 296 224 296C215.2 296 208 288.8 208 280C208 266.7 197.3 256 184 256L168 256zM304 280C304 288.8 296.8 296 288 296C279.2 296 272 288.8 272 280C272 249.1 297.1 224 328 224L344 224C374.9 224 400 249.1 400 280C400 288.8 392.8 296 384 296C375.2 296 368 288.8 368 280C368 266.7 357.3 256 344 256L328 256C314.7 256 304 266.7 304 280zM544 144C544 135.2 551.2 128 560 128C604.2 128 640 163.8 640 208C640 252.2 604.2 288 560 288L464 288C455.2 288 448 280.8 448 272C448 263.2 455.2 256 464 256L560 256C586.5 256 608 234.5 608 208C608 181.5 586.5 160 560 160C551.2 160 544 152.8 544 144zM560 352C578.8 352 595.1 341.2 602.9 325.5C616.7 319.5 629.2 311.2 639.9 301C639.9 302 640 303 640 304C640 348.2 604.2 384 560 384L464 384C455.2 384 448 376.8 448 368C448 359.2 455.2 352 464 352L560 352z"/></svg>