<svg xmlns="http://www.w3.org/2000/svg" viewBox="0 0 640 640"><!--! Font Awesome Pro 7.1.0 by @fontawesome - https://fontawesome.com License - https://fontawesome.com/license (Commercial License) Copyright 2025 Fonticons, Inc. --><path fill="currentColor" d="M320 96C443.7 96 544 196.3 544 320C544 443.7 443.7 544 320 544C196.3 544 96 443.7 96 320C96 196.3 196.3 96 320 96zM320 576C461.4 576 576 461.4 576 320C576 178.6 461.4 64 320 64C178.6 64 64 178.6 64 320C64 461.4 178.6 576 320 576zM378.9 236.3C385.3 227.7 393 224 400 224C407 224 414.7 227.8 421.1 236.3C427.5 244.8 432 257.4 432 272C432 286.6 427.6 299.1 421.1 307.7C414.6 316.3 407 320 400 320C393 320 385.3 316.2 378.9 307.7C372.5 299.2 368 286.6 368 272C368 257.4 372.4 244.9 378.9 236.3zM353.3 217.1C342.3 231.7 336 251.2 336 272C336 292.8 342.3 312.2 353.3 326.9C364.3 341.6 380.6 352 400 352C419.4 352 435.8 341.5 446.7 326.9C457.6 312.3 464 292.8 464 272C464 251.2 457.7 231.8 446.7 217.1C435.7 202.4 419.4 192 400 192C380.6 192 364.2 202.5 353.3 217.1zM275.9 311.5C284.5 309.4 289.7 300.7 287.5 292.1C285.3 283.5 276.7 278.3 268.1 280.5L204.1 296.5C195.5 298.6 190.3 307.3 192.5 315.9C194.7 324.5 203.3 329.7 211.9 327.5L275.9 311.5zM284.5 166C279 159.1 268.9 158 262 163.5L182 227.5C175.1 233 174 243.1 179.5 250C185 256.9 195.1 258 202 252.5L282 188.5C288.9 183 290 172.9 284.5 166zM445.2 409C450.2 401.7 448.3 391.8 441 386.8C433.7 381.8 423.8 383.7 418.8 391L396.7 423.3C392.9 428.8 386.7 432.1 380.1 432.1C375.7 432.1 371.5 430.7 368 428.1L340 407C319 391.2 290.8 388.7 267.3 400.4C252.9 407.6 235.5 404.8 224.1 393.4L219.3 388.6C213.1 382.4 202.9 382.4 196.7 388.6C190.5 394.8 190.5 405 196.7 411.2L201.5 416C222.6 437.1 254.9 442.4 281.7 429C294.4 422.7 309.6 424 320.9 432.5L348.8 453.5C357.8 460.3 368.8 463.9 380.1 463.9C397.3 463.9 413.4 455.4 423.1 441.2L445.2 409z"/></svg>