<svg xmlns="http://www.w3.org/2000/svg" viewBox="0 0 640 640"><!--! Font Awesome Pro 7.1.0 by @fontawesome - https://fontawesome.com License - https://fontawesome.com/license (Commercial License) Copyright 2025 Fonticons, Inc. --><path fill="currentColor" d="M463.5 492C512.7 450.9 544 389.1 544 320C544 196.3 443.7 96 320 96C196.3 96 96 196.3 96 320C96 389.1 127.3 450.9 176.5 492C177.9 509 182.3 525.2 189.1 540C114.2 495.4 64 413.5 64 320C64 178.6 178.6 64 320 64C461.4 64 576 178.6 576 320C576 413.5 525.8 495.4 450.9 540C457.7 525.2 462.1 509 463.5 492zM311.5 398.8C314.5 400.4 317.4 402.4 320 404.5C329.7 396.6 342.1 392 355.4 392L357.4 392C382.6 392 404.1 407.9 412.4 430.2C445.2 401.6 460.8 358.3 454.9 316.1L311.5 398.8zM416 467.5L416 480C416 533 373 576 320 576C267 576 224 533 224 480L224 455.5C221 452.9 218.1 450.3 215.3 447.5C205.2 437.5 208.8 421.2 221.1 414.1L450.9 281.4C463.2 274.3 479.1 279.4 482.7 293.1C499.9 358.3 474.3 429.2 415.9 467.5zM352 200C352 213.3 341.3 224 328 224C318.3 224 309.9 218.2 306.1 209.9C304.7 214.4 304 219.1 304 224C304 250.5 325.5 272 352 272C378.5 272 400 250.5 400 224C400 197.5 378.5 176 352 176C347.1 176 342.3 176.7 337.9 178.1C346.2 181.9 352 190.2 352 200zM208 264C221.3 264 232 274.7 232 288C232 301.3 221.3 312 208 312C194.7 312 184 301.3 184 288C184 274.7 194.7 264 208 264zM352 144C396.2 144 432 179.8 432 224C432 268.2 396.2 304 352 304C307.8 304 272 268.2 272 224C272 179.8 307.8 144 352 144zM355.4 424C348.7 424 342.6 426.7 338.2 431.2L338 431.5C336.4 433.2 335 435.1 333.9 437.3C333 439.1 332.3 441 331.9 443C329.1 455.6 311.1 455.6 308.3 443C307.9 441 307.2 439.1 306.3 437.3C305.2 435.2 303.8 433.2 302.2 431.5L302 431.2C297.6 426.7 291.4 424 284.8 424L282.8 424C268.1 424 256.2 435.9 256.2 450.6L256.2 480C256.2 515.3 284.9 544 320.2 544C355.5 544 384.2 515.3 384.2 480L384.2 450.6C384.2 435.9 372.3 424 357.6 424L355.6 424z"/></svg>