<svg xmlns="http://www.w3.org/2000/svg" viewBox="0 0 640 640"><!--! Font Awesome Pro 7.1.0 by @fontawesome - https://fontawesome.com License - https://fontawesome.com/license (Commercial License) Copyright 2025 Fonticons, Inc. --><path fill="currentColor" d="M544 320C544 196.3 443.7 96 320 96C196.3 96 96 196.3 96 320C96 443.7 196.3 544 320 544C443.7 544 544 443.7 544 320zM64 320C64 178.6 178.6 64 320 64C461.4 64 576 178.6 576 320C576 461.4 461.4 576 320 576C178.6 576 64 461.4 64 320zM324.2 400L315.8 400C286.8 400 262.6 420.6 257.2 448L382.9 448C377.4 420.6 353.3 400 324.3 400zM315.8 368L324.2 368C374.9 368 416 409.1 416 459.8C416 471 407 480 395.8 480L244.2 480C233 480 224 471 224 459.8C224 409.1 265.1 368 315.8 368zM164.7 212.7C170.9 206.5 181.1 206.5 187.3 212.7L224 249.4L260.7 212.7C266.9 206.5 277.1 206.5 283.3 212.7C289.5 218.9 289.5 229.1 283.3 235.3L246.6 272L283.3 308.7C289.5 314.9 289.5 325.1 283.3 331.3C277.1 337.5 266.9 337.5 260.7 331.3L224 294.6L187.3 331.3C181.1 337.5 170.9 337.5 164.7 331.3C158.5 325.1 158.5 314.9 164.7 308.7L201.4 272L164.7 235.3C158.5 229.1 158.5 218.9 164.7 212.7zM356.7 212.7C362.9 206.5 373.1 206.5 379.3 212.7L416 249.4L452.7 212.7C458.9 206.5 469.1 206.5 475.3 212.7C481.5 218.9 481.5 229.1 475.3 235.3L438.6 272L475.3 308.7C481.5 314.9 481.5 325.1 475.3 331.3C469.1 337.5 458.9 337.5 452.7 331.3L416 294.6L379.3 331.3C373.1 337.5 362.9 337.5 356.7 331.3C350.5 325.1 350.5 314.9 356.7 308.7L393.4 272L356.7 235.3C350.5 229.1 350.5 218.9 356.7 212.7z"/></svg>