<svg xmlns="http://www.w3.org/2000/svg" viewBox="0 0 640 640"><!--! Font Awesome Pro 7.1.0 by @fontawesome - https://fontawesome.com License - https://fontawesome.com/license (Commercial License) Copyright 2025 Fonticons, Inc. --><path fill="currentColor" d="M396.4 516.1C364.3 533.9 327.3 544 288 544C164.3 544 64 443.7 64 320C64 196.3 164.3 96 288 96C400.9 96 494.2 179.5 509.7 288C510.5 288 511.2 288 512 288C522.6 288 532.8 289.5 542.5 292.2C528.6 163.9 420 64 288 64C146.6 64 32 178.6 32 320C32 461.4 146.6 576 288 576C333.9 576 377 563.9 414.3 542.7C410.2 535.4 406.9 527.7 404.5 519.5L396.3 516zM288 472C274.7 472 264 461.3 264 448C264 434.7 274.7 424 288 424C301.3 424 312 434.7 312 448C312 461.3 301.3 472 288 472zM232 448C232 478.9 257.1 504 288 504C318.9 504 344 478.9 344 448C344 417.1 318.9 392 288 392C257.1 392 232 417.1 232 448zM352 296C352 287.2 344.8 280 336 280C327.2 280 320 287.2 320 296C320 326.9 345.1 352 376 352L392 352C422.9 352 448 326.9 448 296C448 287.2 440.8 280 432 280C423.2 280 416 287.2 416 296C416 309.3 405.3 320 392 320L376 320C362.7 320 352 309.3 352 296zM184 320C170.7 320 160 309.3 160 296C160 287.2 152.8 280 144 280C135.2 280 128 287.2 128 296C128 326.9 153.1 352 184 352L200 352C230.9 352 256 326.9 256 296C256 287.2 248.8 280 240 280C231.2 280 224 287.2 224 296C224 309.3 213.3 320 200 320L184 320zM480 400C480 382.3 494.3 368 512 368C525.9 368 537.8 376.9 542.2 389.4C544.5 396 550.9 400.4 558 400.1C558.7 400.1 559.4 400.1 560 400.1C586.5 400.1 608 421.6 608 448.1C608 474.6 586.5 496.1 560 496.1C558.4 496.1 556.8 496 555.3 495.9C549 495.3 543 498.4 539.9 503.9C534.4 513.6 524 520.1 512.1 520.1C494.4 520.1 480.1 505.8 480.1 488.1C480.1 485.3 480.4 482.7 481.1 480.2C483 472.6 479.1 464.7 471.9 461.6L440.7 448.2L474.3 433.8C482.4 430.3 486.2 420.9 482.7 412.8C481.1 409 480.1 404.7 480.1 400.2zM512 336C476.7 336 448 364.7 448 400C448 403.3 448.2 406.5 448.7 409.7L393.7 433.3C387.8 435.8 384 441.6 384 448C384 454.4 387.8 460.2 393.7 462.7L448 486C448 486.7 448 487.3 448 488C448 523.3 476.7 552 512 552C532.2 552 550.3 542.6 562 528C605.3 527 640 491.5 640 448C640 406.4 608.2 372.2 567.6 368.4C556.6 349.1 535.8 336 512 336z"/></svg>