<svg xmlns="http://www.w3.org/2000/svg" viewBox="0 0 640 640"><!--! Font Awesome Pro 7.1.0 by @fontawesome - https://fontawesome.com License - https://fontawesome.com/license (Commercial License) Copyright 2025 Fonticons, Inc. --><path fill="currentColor" d="M320 96C443.7 96 544 196.3 544 320C544 443.7 443.7 544 320 544C196.3 544 96 443.7 96 320C96 196.3 196.3 96 320 96zM320 576C461.4 576 576 461.4 576 320C576 178.6 461.4 64 320 64C178.6 64 64 178.6 64 320C64 461.4 178.6 576 320 576zM248 272L168 272L168 256C168 233.9 185.9 216 208 216C208.5 216 208.9 216 209.4 216C208.5 218.5 208 221.2 208 224C208 237.3 218.7 248 232 248C237.2 248 242.1 246.3 246 243.5C247.3 247.4 248 251.6 248 256L248 272zM208 184C168.2 184 136 216.2 136 256L136 272C136 289.7 150.3 304 168 304L248 304C265.7 304 280 289.7 280 272L280 256C280 216.2 247.8 184 208 184zM444.1 237.1C446.6 242.9 448 249.3 448 256L448 272L352 272L352 256C352 229.5 373.5 208 400 208C402 208 403.9 208.1 405.8 208.3C402.2 212.5 400 218 400 224C400 237.3 410.7 248 424 248C432.4 248 439.8 243.7 444.1 237.1zM320 256L320 273.9C320 290.5 333.5 304 350.1 304L449.9 304C466.5 304 480 290.5 480 273.9L480 256C480 211.8 444.2 176 400 176C355.8 176 320 211.8 320 256zM324.7 480L312 480C310 480 308 480 306.1 479.9C313.3 452.4 338.3 432 368 432C383.9 432 398.5 437.8 409.7 447.5C406.9 450.2 404 452.7 401 455.1C379.5 470.8 353.1 480 324.7 480zM274.1 475.8C222.6 462.9 182.2 421.2 171.8 368L452.9 368C450.1 388.6 442.6 407.6 431.4 423.9C414.5 409 392.3 400 368.1 400C322 400 283.5 432.5 274.2 475.8zM420.3 480.6C456.3 454.1 481 412.9 485.3 365.3C486.7 349.6 474.3 336 458.5 336L156.8 336C145.6 336 136.9 345.6 137.9 356.7C145.9 444.7 219.6 512 308 512L329.4 512C363.6 512 395.2 500.3 420.3 480.6z"/></svg>