<svg xmlns="http://www.w3.org/2000/svg" viewBox="0 0 640 640"><!--! Font Awesome Pro 7.1.0 by @fontawesome - https://fontawesome.com License - https://fontawesome.com/license (Commercial License) Copyright 2025 Fonticons, Inc. --><path fill="currentColor" d="M503.8 448L503.9 448C511.4 455.6 520 462.1 529.4 467.1C483.1 532.9 406.5 576 319.9 576C233.3 576 156.8 533 110.5 467.1C119.9 462 128.5 455.5 136 448L136.1 448C176.6 506 243.8 544 319.9 544C396 544 463.3 506 503.7 448zM535.4 258.6C508.8 164.8 422.4 96 320 96C217.6 96 131.2 164.8 104.5 258.6C103.5 258.7 102.6 258.8 101.6 258.9L70.4 262.8C96.4 149 198.3 64 320 64C441.7 64 543.6 149 569.6 262.8L538.4 258.9C537.4 258.8 536.5 258.7 535.5 258.6zM428.5 404C394.5 411.8 358 416 320 416C282 416 245.5 411.8 211.5 404C234.2 440.1 274.3 464 320 464C365.7 464 405.8 440.1 428.5 404zM453.5 364C465.1 360.3 476.9 369.6 473.5 381.3C454 447.6 392.6 496 320 496C247.4 496 186 447.6 166.5 381.3C163.1 369.6 174.9 360.3 186.5 364C226.4 376.8 271.8 384 320 384C368.2 384 413.6 376.8 453.5 364zM208 282C208 290.8 200.8 298 192 298C183.2 298 176 290.8 176 282C176 246.7 204.7 218 240 218C275.3 218 304 246.7 304 282C304 290.8 296.8 298 288 298C279.2 298 272 290.8 272 282C272 264.3 257.7 250 240 250C222.3 250 208 264.3 208 282zM400 250C382.3 250 368 264.3 368 282C368 290.8 360.8 298 352 298C343.2 298 336 290.8 336 282C336 246.7 364.7 218 400 218C435.3 218 464 246.7 464 282C464 290.8 456.8 298 448 298C439.2 298 432 290.8 432 282C432 264.3 417.7 250 400 250zM32 372.5C32 387.7 44.3 400 59.5 400C73.4 400 85.1 389.7 86.8 375.9L91.2 340.8L56.1 345.2C42.3 347 32 358.6 32 372.5zM583.9 345.2L548.8 340.8L553.2 375.9C554.9 389.7 566.6 400 580.5 400C595.7 400 608 387.7 608 372.5C608 358.6 597.7 346.9 583.9 345.2zM52.1 313.5L107.6 306.6C118 305.3 126.8 314.1 125.5 324.5L118.6 380C114.9 409.8 89.6 432.1 59.6 432.1C26.7 432.1 .1 405.5 .1 372.6C.1 342.6 22.4 317.3 52.2 313.6zM587.9 313.5C617.7 317.2 640 342.5 640 372.5C640 405.4 613.4 432 580.5 432C550.5 432 525.2 409.7 521.5 379.9L514.6 324.4C513.3 314 522.1 305.2 532.5 306.5L588 313.4z"/></svg>