<svg xmlns="http://www.w3.org/2000/svg" viewBox="0 0 640 640"><!--! Font Awesome Pro 7.1.0 by @fontawesome - https://fontawesome.com License - https://fontawesome.com/license (Commercial License) Copyright 2025 Fonticons, Inc. --><path fill="currentColor" d="M544 320C544 196.3 443.7 96 320 96C196.3 96 96 196.3 96 320C96 443.7 196.3 544 320 544C443.7 544 544 443.7 544 320zM64 320C64 178.6 178.6 64 320 64C461.4 64 576 178.6 576 320C576 461.4 461.4 576 320 576C178.6 576 64 461.4 64 320zM304 368C304 359.2 311.2 352 320 352L336 352C362.5 352 384 373.5 384 400C384 412.3 379.4 423.5 371.8 432C379.4 440.5 384 451.7 384 464C384 490.5 362.5 512 336 512L320 512C311.2 512 304 504.8 304 496C304 487.2 311.2 480 320 480L336 480C344.8 480 352 472.8 352 464C352 455.2 344.8 448 336 448L320 448C311.2 448 304 440.8 304 432C304 423.2 311.2 416 320 416L336 416C344.8 416 352 408.8 352 400C352 391.2 344.8 384 336 384L320 384C311.2 384 304 376.8 304 368zM232 256C218.7 256 208 266.7 208 280C208 288.8 200.8 296 192 296C183.2 296 176 288.8 176 280C176 249.1 201.1 224 232 224L248 224C278.9 224 304 249.1 304 280C304 288.8 296.8 296 288 296C279.2 296 272 288.8 272 280C272 266.7 261.3 256 248 256L232 256zM368 280C368 288.8 360.8 296 352 296C343.2 296 336 288.8 336 280C336 249.1 361.1 224 392 224L408 224C438.9 224 464 249.1 464 280C464 288.8 456.8 296 448 296C439.2 296 432 288.8 432 280C432 266.7 421.3 256 408 256L392 256C378.7 256 368 266.7 368 280z"/></svg>