<svg xmlns="http://www.w3.org/2000/svg" viewBox="0 0 640 640"><!--! Font Awesome Pro 7.1.0 by @fontawesome - https://fontawesome.com License - https://fontawesome.com/license (Commercial License) Copyright 2025 Fonticons, Inc. --><path fill="currentColor" d="M320 544C196.3 544 96 443.7 96 320C96 196.3 196.3 96 320 96C443.7 96 544 196.3 544 320C544 356.9 535.1 391.7 519.3 422.4C518.1 421.1 516.9 419.8 515.7 418.5L470.8 373.6C470.8 373.5 470.9 373.4 470.9 373.3C473.8 365 469.5 355.8 461.1 352.9C452.7 350 443.6 354.3 440.7 362.7C423.1 412.4 375.7 448 320 448C264.3 448 216.9 412.4 199.3 362.7C196.4 354.4 187.2 350 178.9 352.9C170.6 355.8 166.2 365 169.1 373.3C191.1 435.4 250.3 480 320 480C329.7 480 339.2 479.1 348.4 477.5L400.2 529.3C375.2 538.8 348.2 544 320 544zM456.1 404.2L493 441.1C511.7 459.8 511.7 490.2 493 509C474.3 527.8 443.9 527.7 425.1 509L383.1 467C413.4 454 438.8 431.9 456 404.1zM320 576C360.1 576 398.1 566.8 431.9 550.3C460.2 560.5 493 554.3 515.7 531.6C536.2 511.1 543.2 482.3 536.9 456.1C561.7 416.7 576.1 370 576.1 319.9C576.1 178.5 461.5 63.9 320.1 63.9C178.7 63.9 64 178.6 64 320C64 461.4 178.6 576 320 576zM240 248C257.7 248 272 262.3 272 280C272 288.8 279.2 296 288 296C296.8 296 304 288.8 304 280C304 244.7 275.3 216 240 216C204.7 216 176 244.7 176 280C176 288.8 183.2 296 192 296C200.8 296 208 288.8 208 280C208 262.3 222.3 248 240 248zM400 248C417.7 248 432 262.3 432 280C432 288.8 439.2 296 448 296C456.8 296 464 288.8 464 280C464 244.7 435.3 216 400 216C364.7 216 336 244.7 336 280C336 288.8 343.2 296 352 296C360.8 296 368 288.8 368 280C368 262.3 382.3 248 400 248z"/></svg>