<svg xmlns="http://www.w3.org/2000/svg" viewBox="0 0 640 640"><!--! Font Awesome Pro 7.1.0 by @fontawesome - https://fontawesome.com License - https://fontawesome.com/license (Commercial License) Copyright 2025 Fonticons, Inc. --><path fill="currentColor" d="M544 320C544 196.3 443.7 96 320 96C196.3 96 96 196.3 96 320C96 443.7 196.3 544 320 544C443.7 544 544 443.7 544 320zM64 320C64 178.6 178.6 64 320 64C461.4 64 576 178.6 576 320C576 461.4 461.4 576 320 576C178.6 576 64 461.4 64 320zM256 416L384 416C392.8 416 400 423.2 400 432C400 440.8 392.8 448 384 448L256 448C247.2 448 240 440.8 240 432C240 423.2 247.2 416 256 416zM224 336C250.5 336 272 314.5 272 288C272 269.2 261.1 252.8 245.3 245C247 248.3 248 252 248 256C248 269.3 237.3 280 224 280C210.7 280 200 269.3 200 256C200 252 201 248.3 202.7 245C186.9 252.9 176 269.2 176 288C176 314.5 197.5 336 224 336zM224 208C268.2 208 304 243.8 304 288C304 332.2 268.2 368 224 368C179.8 368 144 332.2 144 288C144 243.8 179.8 208 224 208zM464 288C464 269.2 453.1 252.8 437.3 245C439 248.3 440 252 440 256C440 269.3 429.3 280 416 280C402.7 280 392 269.3 392 256C392 252 393 248.3 394.7 245C378.9 252.9 368 269.2 368 288C368 314.5 389.5 336 416 336C442.5 336 464 314.5 464 288zM336 288C336 243.8 371.8 208 416 208C460.2 208 496 243.8 496 288C496 332.2 460.2 368 416 368C371.8 368 336 332.2 336 288z"/></svg>