<svg xmlns="http://www.w3.org/2000/svg" viewBox="0 0 640 640"><!--! Font Awesome Pro 7.1.0 by @fontawesome - https://fontawesome.com License - https://fontawesome.com/license (Commercial License) Copyright 2025 Fonticons, Inc. --><path fill="currentColor" d="M144 64C167.4 64 187.2 79.4 193.7 100.7C195.8 107.4 202 112 209 112L216 112C238.1 112 256 129.9 256 152C256 174.1 238.1 192 216 192L72 192C49.9 192 32 174.1 32 152C32 129.9 49.9 112 72 112L79 112C86 112 92.2 107.4 94.3 100.7C100.8 79.4 120.6 64 144 64zM68 80.1C30.1 82.2 0 113.6 0 152C0 191.8 32.2 224 72 224L216 224C255.8 224 288 191.8 288 152C288 113.6 257.9 82.2 220 80.1C206.5 51.7 177.6 32 144 32C110.4 32 81.5 51.7 68 80.1zM64 320C64 436.3 141.6 534.6 247.9 565.7C243.8 554.2 241.2 542.1 240.4 529.4C156 497.3 96.1 415.6 96.1 320C96.1 303.5 97.9 287.5 101.3 272L80 272C76.2 272 72.3 271.8 68.6 271.4C65.6 287.1 64 303.4 64 320zM320 96C443.7 96 544 196.3 544 320C544 320.8 544 321.6 544 322.4C555.2 324.7 565.8 328.5 575.7 333.7C575.9 329.2 576.1 324.6 576.1 320C576.1 178.6 461.5 64 320.1 64C308.4 64 296.8 64.8 285.5 66.3C297.5 74.2 307.9 84.3 316 96C317.3 96 318.7 96 320 96zM264 288C264 274.7 253.3 264 240 264C226.7 264 216 274.7 216 288C216 301.3 226.7 312 240 312C253.3 312 264 301.3 264 288zM424 288C424 274.7 413.3 264 400 264C386.7 264 376 274.7 376 288C376 301.3 386.7 312 400 312C413.3 312 424 301.3 424 288zM352.7 457.3C347.2 419.6 377.7 384 416 384C435.1 384 452.2 392.4 464 405.7C469.3 411.7 478.3 412.9 485 408.3C492.7 403.1 502 400 512 400C539.2 400 561.6 423.9 559.9 451.1C559.5 458.2 563.8 464.8 570.6 467.2C592.4 474.9 608 495.7 608 520.1C608 551 582.9 576.1 552 576.1L376 576.1C345.1 576.1 320 551 320 520.1C320 500.4 330.1 483.1 345.5 473.1C350.7 469.7 353.5 463.6 352.6 457.4zM416 352C361.4 352 318 399 320.1 452C300.5 468.1 288 492.6 288 520C288 568.6 327.4 608 376 608L552 608C600.6 608 640 568.6 640 520C640 485.7 620.3 456 591.7 441.5C588.2 401.1 553.8 368 512 368C500.1 368 488.8 370.6 478.7 375.3C461.9 360.8 440 352 416 352z"/></svg>