<svg xmlns="http://www.w3.org/2000/svg" viewBox="0 0 640 640"><!--! Font Awesome Pro 7.1.0 by @fontawesome - https://fontawesome.com License - https://fontawesome.com/license (Commercial License) Copyright 2025 Fonticons, Inc. --><path fill="currentColor" d="M544 320C544 196.3 443.7 96 320 96C196.3 96 96 196.3 96 320C96 443.7 196.3 544 320 544C443.7 544 544 443.7 544 320zM64 320C64 178.6 178.6 64 320 64C461.4 64 576 178.6 576 320C576 461.4 461.4 576 320 576C178.6 576 64 461.4 64 320zM232 330.7C251.5 342 265.8 361.2 270.4 384L369.6 384C374.2 361.2 388.5 342 408 330.7C415.7 326.3 425.4 328.9 429.9 336.5C434.4 344.1 431.7 353.9 424.1 358.4C409.7 366.7 400.1 382.2 400.1 400C400.1 417.8 409.7 433.3 424.1 441.6C431.7 446 434.4 455.8 429.9 463.5C425.4 471.2 415.7 473.8 408 469.3C388.5 458 374.2 438.8 369.6 416L270.4 416C265.8 438.8 251.5 458 232 469.3C224.4 473.7 214.6 471.1 210.1 463.5C205.6 455.9 208.3 446.1 215.9 441.6C230.3 433.3 239.9 417.8 239.9 400C239.9 382.2 230.3 366.7 215.9 358.4C208.3 354 205.6 344.2 210.1 336.5C214.6 328.8 224.3 326.2 232 330.7zM400 248C413.3 248 424 258.7 424 272C424 285.3 413.3 296 400 296C386.7 296 376 285.3 376 272C376 258.7 386.7 248 400 248zM264 272C264 285.3 253.3 296 240 296C226.7 296 216 285.3 216 272C216 258.7 226.7 248 240 248C253.3 248 264 258.7 264 272zM247.2 206.3L183.2 238.3C175.3 242.3 165.7 239 161.7 231.1C157.7 223.2 161 213.6 168.9 209.6L232.9 177.6C240.8 173.6 250.4 176.9 254.4 184.8C258.4 192.7 255.1 202.3 247.2 206.3zM385.7 184.8C389.7 176.9 399.3 173.7 407.2 177.6L471.2 209.6C479.1 213.6 482.3 223.2 478.4 231.1C474.5 239 464.8 242.2 456.9 238.3L392.9 206.3C385 202.3 381.8 192.7 385.7 184.8z"/></svg>