<svg xmlns="http://www.w3.org/2000/svg" viewBox="0 0 640 640"><!--! Font Awesome Pro 7.1.0 by @fontawesome - https://fontawesome.com License - https://fontawesome.com/license (Commercial License) Copyright 2025 Fonticons, Inc. --><path fill="currentColor" d="M139 119.4C135.4 114.5 131.8 109.6 128 104.9C124.2 109.6 120.5 114.5 117 119.4C110.8 128 105.4 135.7 101.4 143.4C97.4 151.1 96.1 156.5 96.1 160C96.1 177.7 110.4 192 128.1 192C145.8 192 160.1 177.7 160.1 160C160.1 156.5 158.8 151.1 154.8 143.4C150.8 135.7 145.3 128 139.2 119.4L139.2 119.4zM128 64C133 64 137.3 66.4 140.5 70C149.2 79.8 157.3 90.1 165 100.7C177 117.4 192 138.4 192 160C192 195.3 163.3 224 128 224C92.7 224 64 195.3 64 160C64 138.5 79 117.5 91 100.7C98.6 90.1 106.8 79.8 115.5 70C118.7 66.4 123 64 128 64zM64 320C64 298.2 66.7 277.1 71.8 256.9C81 262.3 91.1 266.4 101.8 268.9C98 285.3 96 302.4 96 320C96 443.7 196.3 544 320 544C443.7 544 544 443.7 544 320C544 196.3 443.7 96 320 96C287.9 96 257.3 102.8 229.7 114.9C228.3 111.8 226.9 109 225.5 106.3C221.9 99.3 217.8 92.8 213.9 86.9C246.2 72.2 282.1 64 320 64C461.4 64 576 178.6 576 320C576 461.4 461.4 576 320 576C178.6 576 64 461.4 64 320zM320 448C294.4 448 271.3 458.4 254.6 475.3C248.4 481.6 238.3 481.6 232 475.4C225.7 469.2 225.7 459.1 231.9 452.8C254.4 430.1 285.5 416 320 416C354.5 416 385.6 430.1 408.1 452.7C414.3 459 414.3 469.1 408 475.3C401.7 481.5 391.6 481.5 385.4 475.2C368.7 458.4 345.6 448 320 448zM192 320L272 320C280.8 320 288 327.2 288 336C288 344.8 280.8 352 272 352L192 352C183.2 352 176 344.8 176 336C176 327.2 183.2 320 192 320zM352 336C352 327.2 359.2 320 368 320L448 320C456.8 320 464 327.2 464 336C464 344.8 456.8 352 448 352L368 352C359.2 352 352 344.8 352 336z"/></svg>