<svg xmlns="http://www.w3.org/2000/svg" viewBox="0 0 640 640"><!--! Font Awesome Pro 7.1.0 by @fontawesome - https://fontawesome.com License - https://fontawesome.com/license (Commercial License) Copyright 2025 Fonticons, Inc. --><path fill="currentColor" d="M544 320C544 196.3 443.7 96 320 96C196.3 96 96 196.3 96 320C96 443.7 196.3 544 320 544C443.7 544 544 443.7 544 320zM64 320C64 178.6 178.6 64 320 64C461.4 64 576 178.6 576 320C576 461.4 461.4 576 320 576C178.6 576 64 461.4 64 320zM320 416C282 416 245.5 411.8 211.5 404C234.2 440.1 274.3 464 320 464C365.7 464 405.8 440.1 428.5 404C394.5 411.8 358 416 320 416zM473.5 381.3C454 447.6 392.6 496 320 496C247.4 496 186 447.6 166.5 381.3C163.1 369.6 174.9 360.3 186.5 364C226.4 376.8 271.8 384 320 384C368.2 384 413.6 376.8 453.5 364C465.1 360.3 476.9 369.6 473.5 381.3zM216 272C216 258.7 226.7 248 240 248C253.3 248 264 258.7 264 272C264 285.3 253.3 296 240 296C226.7 296 216 285.3 216 272zM368 280C368 288.8 360.8 296 352 296C343.2 296 336 288.8 336 280C336 249.1 361.1 224 392 224L408 224C438.9 224 464 249.1 464 280C464 288.8 456.8 296 448 296C439.2 296 432 288.8 432 280C432 266.7 421.3 256 408 256L392 256C378.7 256 368 266.7 368 280z"/></svg>