<svg xmlns="http://www.w3.org/2000/svg" viewBox="0 0 640 640"><!--! Font Awesome Pro 7.1.0 by @fontawesome - https://fontawesome.com License - https://fontawesome.com/license (Commercial License) Copyright 2025 Fonticons, Inc. --><path fill="currentColor" d="M544 320C544 196.3 443.7 96 320 96C196.3 96 96 196.3 96 320C96 443.7 196.3 544 320 544C443.7 544 544 443.7 544 320zM64 320C64 178.6 178.6 64 320 64C461.4 64 576 178.6 576 320C576 461.4 461.4 576 320 576C178.6 576 64 461.4 64 320zM436.4 383.4L228.4 442.8C219.9 445.2 211 440.3 208.6 431.8C206.2 423.3 211.1 414.4 219.6 412L427.6 352.6C436.1 350.2 445 355.1 447.4 363.6C449.8 372.1 444.9 381 436.4 383.4zM216 272C216 258.7 226.7 248 240 248C253.3 248 264 258.7 264 272C264 285.3 253.3 296 240 296C226.7 296 216 285.3 216 272zM400 248C413.3 248 424 258.7 424 272C424 285.3 413.3 296 400 296C386.7 296 376 285.3 376 272C376 258.7 386.7 248 400 248z"/></svg>