<svg xmlns="http://www.w3.org/2000/svg" viewBox="0 0 640 640"><!--! Font Awesome Pro 7.1.0 by @fontawesome - https://fontawesome.com License - https://fontawesome.com/license (Commercial License) Copyright 2025 Fonticons, Inc. --><path fill="currentColor" d="M544 320C544 196.3 443.7 96 320 96C196.3 96 96 196.3 96 320C96 443.7 196.3 544 320 544C443.7 544 544 443.7 544 320zM64 320C64 178.6 178.6 64 320 64C461.4 64 576 178.6 576 320C576 461.4 461.4 576 320 576C178.6 576 64 461.4 64 320zM280.9 402.7L320 428.8L359.1 402.7C364.5 399.1 371.5 399.1 376.8 402.7L417.1 429.5L440.8 417.7C448.7 413.7 458.3 417 462.3 424.9C466.3 432.8 463 442.4 455.1 446.4L423.1 462.4C418 465 411.8 464.6 407.1 461.4L368 435.3L328.9 461.4C323.5 465 316.5 465 311.2 461.4L272.1 435.3L233 461.4C228.2 464.6 222.1 465 217 462.4L185 446.4C177.1 442.4 173.9 432.8 177.8 424.9C181.7 417 191.4 413.8 199.3 417.7L223 429.5L263.3 402.7C268.7 399.1 275.7 399.1 281.1 402.7zM185.3 256.8C189.3 248.9 198.9 245.7 206.8 249.6L286.8 289.6C292.2 292.3 295.6 297.9 295.6 303.9C295.6 309.9 292.2 315.5 286.8 318.2L206.8 358.2C198.9 362.2 189.3 358.9 185.3 351C181.3 343.1 184.6 333.5 192.5 329.5L243.9 303.8L192.5 278.1C184.6 274.1 181.4 264.5 185.3 256.6zM447.5 278.3L396.1 304L447.5 329.7C455.4 333.7 458.6 343.3 454.7 351.2C450.8 359.1 441.1 362.3 433.2 358.4L353.2 318.4C347.8 315.7 344.4 310.1 344.4 304.1C344.4 298.1 347.8 292.5 353.2 289.8L433.2 249.8C441.1 245.8 450.7 249.1 454.7 257C458.7 264.9 455.4 274.5 447.5 278.5z"/></svg>