<svg xmlns="http://www.w3.org/2000/svg" viewBox="0 0 640 640"><!--! Font Awesome Pro 7.1.0 by @fontawesome - https://fontawesome.com License - https://fontawesome.com/license (Commercial License) Copyright 2025 Fonticons, Inc. --><path fill="currentColor" d="M288.1 544C325.3 544 360.3 534.9 391.2 518.9C395.1 529.8 399.3 539.8 403.2 548.7C368.6 566.2 329.5 576 288.1 576C146.7 576 32.1 461.4 32.1 320C32.1 178.6 146.7 64 288.1 64C429.5 64 544.1 178.6 544.1 320C544.1 324.1 544 328.2 543.8 332.3C541.9 331 539.9 329.8 537.9 328.6C529.6 323.8 520.9 320.3 512.1 317.9C511 195.1 411.1 96 288.1 96C164.4 96 64.1 196.3 64.1 320C64.1 443.7 164.4 544 288.1 544zM288.1 336L304.1 336C330.6 336 352.1 357.5 352.1 384C352.1 396.3 347.5 407.5 339.9 416C347.5 424.5 352.1 435.7 352.1 448C352.1 474.5 330.6 496 304.1 496L288.1 496C279.3 496 272.1 488.8 272.1 480C272.1 471.2 279.3 464 288.1 464L304.1 464C312.9 464 320.1 456.8 320.1 448C320.1 439.2 312.9 432 304.1 432L288.1 432C279.3 432 272.1 424.8 272.1 416C272.1 407.2 279.3 400 288.1 400L304.1 400C312.9 400 320.1 392.8 320.1 384C320.1 375.2 312.9 368 304.1 368L288.1 368C279.3 368 272.1 360.8 272.1 352C272.1 343.2 279.3 336 288.1 336zM208.1 248C221.4 248 232.1 258.7 232.1 272C232.1 285.3 221.4 296 208.1 296C194.8 296 184.1 285.3 184.1 272C184.1 258.7 194.8 248 208.1 248zM360.1 256C346.8 256 336.1 266.7 336.1 280C336.1 288.8 328.9 296 320.1 296C311.3 296 304.1 288.8 304.1 280C304.1 249.1 329.2 224 360.1 224L376.1 224C407 224 432.1 249.1 432.1 280C432.1 288.8 424.9 296 416.1 296C407.3 296 400.1 288.8 400.1 280C400.1 266.7 389.4 256 376.1 256L360.1 256zM556.6 443.6L544.2 447C540.1 448.1 535.7 447.5 532.1 445.4C528.5 443.3 525.7 439.8 524.6 435.7L521.3 423.3C518.9 414.4 513.1 406.7 505 402.1L502.5 400.6C487.2 391.8 467.6 397 458.8 412.3C448.1 430.8 450.1 456.4 458.3 482.5C465.1 504.3 475.4 523.6 481.2 533.5C492.7 533.6 514.5 532.8 536.9 527.8C563.6 521.8 586.7 510.8 597.4 492.2C606.2 476.9 601 457.3 585.7 448.5L583.2 447C575.2 442.4 565.7 441.1 556.7 443.5zM599.1 419.4L601.6 420.9C632.2 438.6 642.7 477.7 625 508.3C607.3 538.9 572.7 552.6 543.8 559.1C514.1 565.7 485.9 565.7 475.6 565.5C467.7 565.3 460.5 561.1 456.3 554.4C450.9 545.6 436.8 521.1 427.7 492.1C418.8 463.8 413.4 426.9 431.1 396.4C448.8 365.8 487.9 355.3 518.5 373L521 374.5C535.5 382.9 546.3 396.3 551.3 412.2C567.6 408.6 584.6 411.3 599.1 419.6z"/></svg>