<svg xmlns="http://www.w3.org/2000/svg" viewBox="0 0 640 640"><!--! Font Awesome Pro 7.1.0 by @fontawesome - https://fontawesome.com License - https://fontawesome.com/license (Commercial License) Copyright 2025 Fonticons, Inc. --><path fill="currentColor" d="M544 320C544 414.3 485.7 495.1 403.1 528.1C411.3 514 416 497.5 416 480L416 437.2C418.8 438.9 421.3 440.7 423.4 442.5C430.2 448.2 440.2 447.4 445.9 440.6C451.6 433.8 450.8 423.8 444 418.1C418.6 396.5 371.1 384 320 384C268.9 384 221.4 396.5 196 418.1C189.2 423.8 188.4 433.9 194.1 440.6C199.8 447.3 209.9 448.2 216.6 442.5C218.7 440.7 221.2 438.9 224 437.2L224 480C224 497.5 228.7 513.9 236.9 528.1C212 518.1 189.2 503.8 169.7 486.1C166 496.7 160.8 506.4 154.4 515.2C199.1 553.2 256.9 576 320.1 576C461.5 576 576.1 461.4 576.1 320C576.1 178.6 461.4 64 320 64C184 64 72.8 170.1 64.5 304C75.5 304.1 86.6 307.4 96.1 314.1C99.2 193.1 198.3 96 320 96C443.7 96 544 196.3 544 320zM376 320C376 333.3 386.7 344 400 344C413.3 344 424 333.3 424 320C424 306.7 413.3 296 400 296C386.7 296 376 306.7 376 320zM240 344C253.3 344 264 333.3 264 320C264 306.7 253.3 296 240 296C226.7 296 216 306.7 216 320C216 333.3 226.7 344 240 344zM259.3 212.7C253.1 206.5 242.9 206.5 236.7 212.7L229.3 220.1C210.4 239 186.1 251.5 159.8 255.8L157.3 256.2C148.6 257.7 142.7 265.9 144.1 274.6C145.5 283.3 153.8 289.2 162.5 287.8L165 287.4C197.9 281.9 228.3 266.3 251.8 242.7L259.2 235.3C265.4 229.1 265.4 218.9 259.2 212.7zM380.7 235.3L388.1 242.7C411.7 266.3 442 281.9 474.9 287.4L477.4 287.8C486.1 289.3 494.4 283.4 495.8 274.6C497.2 265.8 491.4 257.6 482.6 256.2L480.1 255.8C453.8 251.4 429.5 238.9 410.6 220.1L403.2 212.7C397 206.5 386.8 206.5 380.6 212.7C374.4 218.9 374.4 229.1 380.6 235.3zM384 442.2L384 480C384 515.3 355.3 544 320 544C284.7 544 256 515.3 256 480L256 442.2C256 427.8 267.7 416 282.2 416L283.2 416C295.3 416 305.6 424.6 307.7 436.5C310.2 450.2 329.8 450.2 332.2 436.5C334.4 424.6 344.7 416 356.8 416L357.8 416C372.2 416 384 427.7 384 442.2zM64 392.9C67.8 397.6 71.5 402.5 75 407.4C81.2 416 86.6 423.7 90.6 431.4C94.6 439.1 95.9 444.5 95.9 448C95.9 465.7 81.6 480 63.9 480C46.2 480 31.9 465.7 31.9 448C31.9 444.5 33.2 439.1 37.2 431.4C41.2 423.7 46.7 416 52.8 407.4C56.4 402.5 60 397.6 63.8 392.9zM64 352C59 352 54.7 354.4 51.5 358C42.8 367.8 34.7 378.1 27 388.7C15 405.4 0 426.4 0 448C0 483.3 28.7 512 64 512C99.3 512 128 483.3 128 448C128 426.5 113 405.5 101 388.7C93.4 378.1 85.2 367.8 76.5 358C73.3 354.4 68.9 352 64 352z"/></svg>