<svg xmlns="http://www.w3.org/2000/svg" viewBox="0 0 640 640"><!--! Font Awesome Pro 7.1.0 by @fontawesome - https://fontawesome.com License - https://fontawesome.com/license (Commercial License) Copyright 2025 Fonticons, Inc. --><path fill="currentColor" d="M320 96C443.7 96 544 196.3 544 320C544 443.7 443.7 544 320 544C196.3 544 96 443.7 96 320C96 196.3 196.3 96 320 96zM320 576C461.4 576 576 461.4 576 320C576 178.6 461.4 64 320 64C178.6 64 64 178.6 64 320C64 461.4 178.6 576 320 576zM264 272C264 258.7 253.3 248 240 248C226.7 248 216 258.7 216 272C216 285.3 226.7 296 240 296C253.3 296 264 285.3 264 272zM400 296C413.3 296 424 285.3 424 272C424 258.7 413.3 248 400 248C386.7 248 376 258.7 376 272C376 285.3 386.7 296 400 296zM432.4 369C425.7 359.4 418.6 350.2 411 341.4C408.2 338.1 404.4 336 400 336C395.6 336 391.9 338.1 389 341.4C381.4 350.2 374.3 359.5 367.6 369C357.1 384.1 344 403 344 422.4C344 454.2 369.1 480 400 480C430.9 480 456 454.2 456 422.4C456 403 442.9 384.1 432.4 369zM400 378.9C402.1 381.7 404.1 384.5 406.1 387.4C411.5 395.2 416.1 401.9 419.6 408.6C423 415.3 424 419.7 424 422.4C424 437.4 412.4 448 400 448C387.6 448 376 437.4 376 422.4C376 419.7 377 415.4 380.4 408.6C383.8 401.9 388.4 395.1 393.9 387.4C395.9 384.5 398 381.7 400 378.9zM222.7 387.1C217 380.4 206.9 379.6 200.1 385.3C193.3 391 192.6 401.1 198.3 407.9C224.3 438.3 261.5 458.9 303.6 463.2C299.4 452.8 296.8 441.6 296.1 429.8C266.9 424.3 241.2 408.9 222.6 387.1z"/></svg>