<svg xmlns="http://www.w3.org/2000/svg" viewBox="0 0 640 640"><!--! Font Awesome Pro 7.1.0 by @fontawesome - https://fontawesome.com License - https://fontawesome.com/license (Commercial License) Copyright 2025 Fonticons, Inc. --><path fill="currentColor" d="M544 320C544 379.7 520.6 434 482.6 474.1L509.6 492.1C550.8 446.6 576 386.3 576 320C576 178.6 461.4 64 320 64C178.6 64 64 178.6 64 320C64 386.3 89.2 446.6 130.5 492.1L157.5 474.1C119.4 434 96 379.7 96 320C96 196.3 196.3 96 320 96C443.7 96 544 196.3 544 320zM192.5 246.3L243.9 272L192.5 297.7C184.6 301.7 181.4 311.3 185.3 319.2C189.2 327.1 198.9 330.3 206.8 326.4L286.8 286.4C292.2 283.7 295.6 278.1 295.6 272.1C295.6 266.1 292.2 260.5 286.8 257.8L206.8 217.8C198.9 213.8 189.3 217.1 185.3 225C181.3 232.9 184.6 242.5 192.5 246.5zM454.7 224.8C450.7 216.9 441.1 213.7 433.2 217.6L353.2 257.6C347.8 260.3 344.4 265.9 344.4 271.9C344.4 277.9 347.8 283.5 353.2 286.2L433.2 326.2C441.1 330.2 450.7 326.9 454.7 319C458.7 311.1 455.4 301.5 447.5 297.5L396.1 271.8L447.5 246.1C455.4 242.1 458.6 232.5 454.7 224.6zM72 576C85.3 576 96 565.3 96 552C96 538.7 85.3 528 72 528C58.7 528 48 538.7 48 552C48 565.3 58.7 576 72 576zM592 520C592 506.7 581.3 496 568 496C554.7 496 544 506.7 544 520C544 533.3 554.7 544 568 544C581.3 544 592 533.3 592 520zM336 416C327.2 416 320 423.2 320 432C320 440.8 327.2 448 336 448C344.8 448 352 440.8 352 432C352 423.2 344.8 416 336 416zM320 496C320 487.2 312.8 480 304 480C295.2 480 288 487.2 288 496C288 504.8 295.2 512 304 512C312.8 512 320 504.8 320 496zM416 401.8C426.8 406.1 434.7 410.3 439.1 413.3C446.5 418.2 456.4 416.2 461.3 408.9C466.2 401.6 464.2 391.6 456.9 386.7C438.3 374.3 387.2 352 320 352C252.8 352 201.7 374.3 183.1 386.7C175.7 391.6 173.8 401.5 178.7 408.9C183.6 416.3 193.5 418.2 200.9 413.3C205.3 410.3 213.2 406.1 224 401.8L224 444.6C224 471.3 210.6 496.3 188.4 511.2L135.1 546.7C129.2 550.6 126.6 557.9 128.7 564.6C130.8 571.3 136.9 576 144 576L496 576C503 576 509.3 571.4 511.3 564.6C513.3 557.8 510.7 550.6 504.9 546.7L451.6 511.2C429.3 496.4 416 471.4 416 444.6L416 401.8zM384 391.6L384 444.6C384 482 402.7 517 433.9 537.8L443.2 544L196.9 544L206.2 537.8C237.3 517 256 482.1 256 444.6L256 391.6C274.2 387.2 295.8 383.9 320 383.9C344.2 383.9 365.8 387.1 384 391.6z"/></svg>