<svg xmlns="http://www.w3.org/2000/svg" viewBox="0 0 640 640"><!--! Font Awesome Pro 7.1.0 by @fontawesome - https://fontawesome.com License - https://fontawesome.com/license (Commercial License) Copyright 2025 Fonticons, Inc. --><path fill="currentColor" d="M544 320C544 389.1 512.7 450.9 463.5 492C462.1 509 457.7 525.2 450.9 540C525.8 495.3 576 413.5 576 320C576 178.6 461.4 64 320 64C178.6 64 64 178.6 64 320C64 413.5 114.2 495.4 189.1 540C182.3 525.2 177.9 509 176.5 492C127.3 450.9 96 389.1 96 320C96 196.3 196.3 96 320 96C443.7 96 544 196.3 544 320zM320 400C303.2 400 287.2 398.6 272.2 396.1L235.9 387C222.5 382.4 210.6 376.8 200.6 370.5C193.1 365.8 183.3 368 178.5 375.4C173.7 382.8 176 392.8 183.4 397.5C195.2 405 208.9 411.5 224 416.7L224 480C224 533 267 576 320 576C373 576 416 533 416 480L416 416.7C431 411.5 444.7 405 456.6 397.5C464.1 392.8 466.3 382.9 461.5 375.4C456.7 367.9 446.9 365.7 439.4 370.5C429.4 376.8 417.5 382.4 404.1 387L367.8 396.1C352.8 398.6 336.8 400 320 400zM240 296C253.3 296 264 285.3 264 272C264 258.7 253.3 248 240 248C226.7 248 216 258.7 216 272C216 285.3 226.7 296 240 296zM424 272C424 258.7 413.3 248 400 248C386.7 248 376 258.7 376 272C376 285.3 386.7 296 400 296C413.3 296 424 285.3 424 272zM384 480C384 515.3 355.3 544 320 544C284.7 544 256 515.3 256 480L256 458.6C256 443.9 267.9 432 282.6 432L284.6 432C295.9 432 305.7 439.9 308.2 450.9C311 463.5 329 463.5 331.8 450.9C334.3 439.8 344.1 432 355.4 432L357.4 432C372.1 432 384 443.9 384 458.6L384 480z"/></svg>