<svg xmlns="http://www.w3.org/2000/svg" viewBox="0 0 640 640"><!--! Font Awesome Pro 7.1.0 by @fontawesome - https://fontawesome.com License - https://fontawesome.com/license (Commercial License) Copyright 2025 Fonticons, Inc. --><path fill="currentColor" d="M544 320C544 196.3 443.7 96 320 96C196.3 96 96 196.3 96 320C96 443.7 196.3 544 320 544C443.7 544 544 443.7 544 320zM64 320C64 178.6 178.6 64 320 64C461.4 64 576 178.6 576 320C576 461.4 461.4 576 320 576C178.6 576 64 461.4 64 320zM384.6 180.4C382.2 171.9 387.1 163 395.6 160.6C404.1 158.2 413 163.1 415.4 171.6L416.9 176.8C423.9 201.5 445 219.5 470.5 222.7L482 224.1C490.8 225.2 497 233.2 495.9 242C494.9 250.1 488 256 480 256C490 269.4 496 286 496 304C496 348.2 460.2 384 416 384C371.8 384 336 348.2 336 304C336 262.5 367.5 228.4 408 224.4C398 213.6 390.4 200.3 386.1 185.6L384.6 180.4zM244.4 160.6C252.9 163 257.8 171.9 255.4 180.4L253.9 185.6C249.7 200.4 242.1 213.6 232 224.4C272.4 228.4 304 262.5 304 304C304 348.2 268.2 384 224 384C179.8 384 144 348.2 144 304C144 286 150 269.4 160 256C152 256 145.1 250.1 144.1 242C143 233.2 149.2 225.2 158 224.1L169.5 222.7C195 219.5 216.1 201.4 223.1 176.8L224.6 171.6C227 163.1 235.9 158.2 244.4 160.6zM272 304C272 277.5 250.5 256 224 256C197.5 256 176 277.5 176 304C176 330.5 197.5 352 224 352C250.5 352 272 330.5 272 304zM416 352C442.5 352 464 330.5 464 304C464 277.5 442.5 256 416 256C389.5 256 368 277.5 368 304C368 330.5 389.5 352 416 352zM224 272C241.7 272 256 286.3 256 304C256 321.7 241.7 336 224 336C206.3 336 192 321.7 192 304C209.7 304 224 289.7 224 272zM384 304C401.7 304 416 289.7 416 272C433.7 272 448 286.3 448 304C448 321.7 433.7 336 416 336C398.3 336 384 321.7 384 304zM288 448L352 448C360.8 448 368 455.2 368 464C368 472.8 360.8 480 352 480L288 480C279.2 480 272 472.8 272 464C272 455.2 279.2 448 288 448z"/></svg>