<svg xmlns="http://www.w3.org/2000/svg" viewBox="0 0 640 640"><!--! Font Awesome Pro 7.1.0 by @fontawesome - https://fontawesome.com License - https://fontawesome.com/license (Commercial License) Copyright 2025 Fonticons, Inc. --><path fill="currentColor" d="M544 320C544 196.3 443.7 96 320 96C196.3 96 96 196.3 96 320C96 443.7 196.3 544 320 544C443.7 544 544 443.7 544 320zM64 320C64 178.6 178.6 64 320 64C461.4 64 576 178.6 576 320C576 461.4 461.4 576 320 576C178.6 576 64 461.4 64 320zM315.8 368L324.2 368C374.9 368 416 409.1 416 459.8C416 471 407 480 395.8 480L244.2 480C233 480 224 471 224 459.8C224 409.1 265.1 368 315.8 368zM324.2 400L315.8 400C286.8 400 262.6 420.6 257.2 448L382.9 448C377.4 420.6 353.3 400 324.3 400zM216 288C216 274.7 226.7 264 240 264C253.3 264 264 274.7 264 288C264 301.3 253.3 312 240 312C226.7 312 216 301.3 216 288zM400 264C413.3 264 424 274.7 424 288C424 301.3 413.3 312 400 312C386.7 312 376 301.3 376 288C376 274.7 386.7 264 400 264zM256 192C251.6 192 247.2 192.3 243 192.9C221.8 195.7 202.4 205.3 186.9 219.7C180.4 225.7 170.3 225.4 164.3 218.9C158.3 212.4 158.6 202.3 165.1 196.3C185.2 177.6 210.6 164.8 238.8 161.1C244.4 160.4 250.2 160 256 160C264.8 160 272 167.2 272 176C272 184.8 264.8 192 256 192zM397 192.9C392.7 192.3 388.4 192 384 192C375.2 192 368 184.8 368 176C368 167.2 375.2 160 384 160C389.8 160 395.6 160.4 401.2 161.1C429.4 164.8 454.9 177.5 474.9 196.3C481.4 202.3 481.7 212.5 475.7 218.9C469.7 225.3 459.5 225.7 453.1 219.7C437.6 205.2 418.3 195.7 397 192.9z"/></svg>