<svg xmlns="http://www.w3.org/2000/svg" viewBox="0 0 640 640"><!--! Font Awesome Pro 7.1.0 by @fontawesome - https://fontawesome.com License - https://fontawesome.com/license (Commercial License) Copyright 2025 Fonticons, Inc. --><path fill="currentColor" d="M544 320C544 443.7 443.7 544 320 544C196.3 544 96 443.7 96 320C96 303.5 97.8 287.5 101.2 272L136 272C136 322.1 174.4 363.2 223.3 367.6C213.7 375.5 208 387.3 208 400C208 415.9 217 430.4 231.1 437.5L211.5 462C206 468.9 207.1 479 214 484.5C220.9 490 231 488.9 236.5 482L260.4 452.1L267.7 455.7L257.2 482C253.9 490.2 257.9 499.5 266.1 502.8C274.3 506.1 283.6 502.1 286.9 493.9L296.9 469C299.3 469.7 301.7 470.3 304.1 470.8L304.1 496C304.1 504.8 311.3 512 320.1 512C328.9 512 336.1 504.8 336.1 496L336.1 470.8C338.5 470.3 340.9 469.7 343.3 469L353.3 493.9C356.6 502.1 365.9 506.1 374.1 502.8C382.3 499.5 386.3 490.2 383 482L372.5 455.7L379.8 452.1L403.7 482C409.2 488.9 419.3 490 426.2 484.5C433.1 479 434.2 468.9 428.7 462L409.1 437.5C423.3 430.4 432.2 415.9 432.2 400C432.2 387.3 426.5 375.5 416.9 367.6C465.9 363.2 504.2 322.1 504.2 272L539 272C542.4 287.5 544.2 303.5 544.2 320zM282 293.5L260.6 329.2C259.5 329.8 258.7 330.2 258 330.5C250.1 334 241.2 336 231.9 336C196.6 336 167.9 307.3 167.9 272C167.9 236.7 196.6 208 231.9 208C267.2 208 295.9 236.7 295.9 272C295.9 274.5 295.8 276.9 295.5 279.3C290.1 282.9 285.4 287.7 282 293.4zM357.9 293.5C354.4 287.7 349.8 282.9 344.4 279.4C344.1 277 344 274.5 344 272.1C344 236.8 372.7 208.1 408 208.1C443.3 208.1 472 236.8 472 272.1C472 307.4 443.3 336.1 408 336.1C398.7 336.1 389.9 334.1 381.9 330.6C381.3 330.3 380.4 329.9 379.3 329.3L358 293.5zM529.3 240L498.5 240C485.3 202.7 449.8 176 408 176C368.6 176 334.8 199.7 320 233.6C305.2 199.7 271.4 176 232 176C190.2 176 154.6 202.7 141.5 240L110.7 240C142.9 155.8 224.5 96 320 96C415.5 96 497.1 155.8 529.3 240zM563.4 240.4C529.9 138 433.6 64 320 64C206.4 64 110.1 138 76.6 240.4C69.4 241.9 64 248.3 64 256C64 260.7 66 265 69.3 267.9C65.8 284.7 64 302.1 64 320C64 461.4 178.6 576 320 576C461.4 576 576 461.4 576 320C576 302.1 574.2 284.7 570.7 267.9C574 265 576 260.7 576 256C576 248.3 570.6 241.9 563.4 240.4zM320 304C324.3 304 328.3 306.3 330.5 310L370.3 376.3L372.7 380.3L394.6 391.2C398 392.9 400.1 396.3 400.1 400C400.1 403.7 398 407.2 394.6 408.8L341.5 435.3C328 442.1 312.1 442.1 298.6 435.3L245.5 408.8C242.1 407.1 240 403.7 240 400C240 396.3 242.1 392.8 245.5 391.2C259.5 384.2 266.8 380.5 267.4 380.3L269.8 376.3L309.6 310C311.8 306.3 315.8 304 320.1 304zM256 280C256 266.7 245.3 256 232 256C218.7 256 208 266.7 208 280C208 293.3 218.7 304 232 304C245.3 304 256 293.3 256 280zM408 304C421.3 304 432 293.3 432 280C432 266.7 421.3 256 408 256C394.7 256 384 266.7 384 280C384 293.3 394.7 304 408 304z"/></svg>