<svg xmlns="http://www.w3.org/2000/svg" viewBox="0 0 640 640"><!--! Font Awesome Pro 7.1.0 by @fontawesome - https://fontawesome.com License - https://fontawesome.com/license (Commercial License) Copyright 2025 Fonticons, Inc. --><path fill="currentColor" d="M544 320C544 196.3 443.7 96 320 96C196.3 96 96 196.3 96 320C96 443.7 196.3 544 320 544C443.7 544 544 443.7 544 320zM64 320C64 178.6 178.6 64 320 64C461.4 64 576 178.6 576 320C576 461.4 461.4 576 320 576C178.6 576 64 461.4 64 320zM304 344C304 335.2 311.2 328 320 328L336 328C362.5 328 384 349.5 384 376C384 388.3 379.4 399.5 371.8 408C379.4 416.5 384 427.7 384 440C384 466.5 362.5 488 336 488L320 488C311.2 488 304 480.8 304 472C304 463.2 311.2 456 320 456L336 456C344.8 456 352 448.8 352 440C352 431.2 344.8 424 336 424L320 424C311.2 424 304 416.8 304 408C304 399.2 311.2 392 320 392L336 392C344.8 392 352 384.8 352 376C352 367.2 344.8 360 336 360L320 360C311.2 360 304 352.8 304 344zM216 272C216 258.7 226.7 248 240 248C253.3 248 264 258.7 264 272C264 285.3 253.3 296 240 296C226.7 296 216 285.3 216 272zM400 248C413.3 248 424 258.7 424 272C424 285.3 413.3 296 400 296C386.7 296 376 285.3 376 272C376 258.7 386.7 248 400 248z"/></svg>