<svg xmlns="http://www.w3.org/2000/svg" viewBox="0 0 640 640"><!--! Font Awesome Pro 7.1.0 by @fontawesome - https://fontawesome.com License - https://fontawesome.com/license (Commercial License) Copyright 2025 Fonticons, Inc. --><path fill="currentColor" d="M124.3 205.4L165 164.7C169 160.7 174.7 159.2 179.8 160.4C182.7 161 185.4 162.5 187.6 164.7C193.8 170.9 193.8 181.1 187.6 187.3L119.6 255.3C102.3 272.6 74.3 272.6 57 255.3C39.7 238 39.7 210 57 192.7L197 52.7C203.2 46.5 213.4 46.4 219.6 52.7C225.8 59 225.8 69.1 219.6 75.3L106.9 188L124.3 205.4zM210.2 142.1C208.1 140 205.9 138.2 203.6 136.6L242.2 98C260.9 79.3 260.9 48.9 242.2 30.1C223.5 11.3 193.1 11.4 174.3 30.1L34.3 170.1C4.5 199.9 4.5 248.2 34.3 278C64.1 307.8 112.4 307.8 142.2 278L210.2 210C228.9 191.3 228.9 160.9 210.2 142.1zM97.1 340.3C107.4 472.2 217.7 576 352.3 576C493.7 576 608.3 461.4 608.3 320C608.3 178.6 493.7 64 352.3 64C335.9 64 319.8 65.6 304.2 68.5C303.6 80.3 300.9 92.1 296 103.1C314 98.4 332.9 96 352.3 96C476 96 576.3 196.3 576.3 320C576.3 443.7 476 544 352.3 544C234 544 137 452.2 128.9 336C118.5 338.8 107.8 340.2 97.1 340.3zM232.4 385.4C225.7 391.1 224.9 401.2 230.6 408C259.9 442.3 303.6 464.1 352.3 464.1C401 464.1 444.7 442.3 474 408C479.7 401.3 479 391.2 472.2 385.4C465.4 379.6 455.4 380.4 449.6 387.2C426.1 414.7 391.2 432.1 352.3 432.1C313.4 432.1 278.5 414.7 255 387.2C249.3 380.5 239.2 379.7 232.4 385.4zM272.3 296C285.6 296 296.3 285.3 296.3 272C296.3 258.7 285.6 248 272.3 248C259 248 248.3 258.7 248.3 272C248.3 285.3 259 296 272.3 296zM456.3 272C456.3 258.7 445.6 248 432.3 248C419 248 408.3 258.7 408.3 272C408.3 285.3 419 296 432.3 296C445.6 296 456.3 285.3 456.3 272z"/></svg>