<svg xmlns="http://www.w3.org/2000/svg" viewBox="0 0 640 640"><!--! Font Awesome Pro 7.1.0 by @fontawesome - https://fontawesome.com License - https://fontawesome.com/license (Commercial License) Copyright 2025 Fonticons, Inc. --><path fill="currentColor" d="M528 16C528 24.8 535.2 32 544 32L589.8 32L531.7 101.8C527.7 106.6 526.9 113.2 529.5 118.8C532.1 124.4 537.8 128 544 128L624 128C632.8 128 640 120.8 640 112C640 103.2 632.8 96 624 96L578.2 96L636.3 26.2C640.3 21.4 641.1 14.8 638.5 9.2C635.9 3.6 630.2 0 624 0L544 0C535.2 0 528 7.2 528 16zM368 112C368 120.8 375.2 128 384 128L429.8 128L371.7 197.8C367.7 202.6 366.9 209.2 369.5 214.8C372.1 220.4 377.8 224 384 224L464 224C472.8 224 480 216.8 480 208C480 199.2 472.8 192 464 192L418.2 192L476.3 122.2C480.3 117.4 481.1 110.8 478.5 105.2C475.9 99.6 470.2 96 464 96L384 96C375.2 96 368 103.2 368 112zM320 64C178.6 64 64 178.6 64 320C64 461.4 178.6 576 320 576C461.4 576 576 461.4 576 320C576 303.6 574.5 287.5 571.5 272L538.8 272C542.2 287.5 544 303.5 544 320C544 443.7 443.7 544 320 544C196.3 544 96 443.7 96 320C96 196.3 196.3 96 320 96L320 64zM320 472C306.7 472 296 461.3 296 448C296 434.7 306.7 424 320 424C333.3 424 344 434.7 344 448C344 461.3 333.3 472 320 472zM264 448C264 478.9 289.1 504 320 504C350.9 504 376 478.9 376 448C376 417.1 350.9 392 320 392C289.1 392 264 417.1 264 448zM408 336C394.7 336 384 325.3 384 312C384 303.2 376.8 296 368 296C359.2 296 352 303.2 352 312C352 342.9 377.1 368 408 368L424 368C454.9 368 480 342.9 480 312C480 303.2 472.8 296 464 296C455.2 296 448 303.2 448 312C448 325.3 437.3 336 424 336L408 336zM192 312C192 303.2 184.8 296 176 296C167.2 296 160 303.2 160 312C160 342.9 185.1 368 216 368L232 368C262.9 368 288 342.9 288 312C288 303.2 280.8 296 272 296C263.2 296 256 303.2 256 312C256 325.3 245.3 336 232 336L216 336C202.7 336 192 325.3 192 312z"/></svg>