<svg xmlns="http://www.w3.org/2000/svg" viewBox="0 0 640 640"><!--! Font Awesome Pro 7.1.0 by @fontawesome - https://fontawesome.com License - https://fontawesome.com/license (Commercial License) Copyright 2025 Fonticons, Inc. --><path fill="currentColor" d="M544 320C544 196.3 443.7 96 320 96C196.3 96 96 196.3 96 320C96 443.7 196.3 544 320 544C443.7 544 544 443.7 544 320zM64 320C64 178.6 178.6 64 320 64C461.4 64 576 178.6 576 320C576 461.4 461.4 576 320 576C178.6 576 64 461.4 64 320zM261.5 478C253.8 488.8 238.8 491.2 228 483.5C217.2 475.8 214.8 460.8 222.5 450C244.2 419.8 279.8 400 320 400C360.2 400 395.7 419.8 417.5 450C425.2 460.8 422.8 475.8 412 483.5C401.2 491.2 386.2 488.8 378.5 478C365.4 459.8 344.1 448 320 448C295.9 448 274.6 459.8 261.5 478zM185.3 288.8C189.3 280.9 198.9 277.7 206.8 281.6L286.8 321.6C292.2 324.3 295.6 329.8 295.6 335.9C295.6 342 292.2 347.5 286.8 350.2L206.8 390.2C198.9 394.2 189.3 390.9 185.3 383C181.3 375.1 184.6 365.5 192.5 361.5L243.9 335.8L192.5 310.1C184.6 306.1 181.4 296.5 185.3 288.6zM447.5 310.3L396.1 336L447.5 361.7C455.4 365.7 458.6 375.3 454.7 383.2C450.8 391.1 441.1 394.3 433.2 390.4L353.2 350.4C347.8 347.7 344.4 342.2 344.4 336.1C344.4 330 347.8 324.5 353.2 321.8L433.2 281.8C441.1 277.8 450.7 281.1 454.7 289C458.7 296.9 455.4 306.5 447.5 310.5zM275.3 164.7C281.5 170.9 281.5 181.1 275.3 187.3L267.9 194.7C244.3 218.3 214 233.9 181.1 239.4L178.6 239.8C169.9 241.3 161.6 235.4 160.2 226.6C158.8 217.8 164.6 209.6 173.4 208.2L175.9 207.8C202.2 203.4 226.5 190.9 245.4 172.1L252.8 164.7C259 158.5 269.2 158.5 275.4 164.7zM364.7 187.3C358.5 181.1 358.5 170.9 364.7 164.7C370.9 158.5 381.1 158.5 387.3 164.7L394.7 172.1C413.6 191 437.9 203.5 464.2 207.8L466.7 208.2C475.4 209.7 481.3 217.9 479.9 226.6C478.5 235.3 470.2 241.2 461.5 239.8L459 239.4C426.1 233.9 395.7 218.3 372.2 194.7L364.8 187.3z"/></svg>