<svg xmlns="http://www.w3.org/2000/svg" viewBox="0 0 640 640"><!--! Font Awesome Pro 7.1.0 by @fontawesome - https://fontawesome.com License - https://fontawesome.com/license (Commercial License) Copyright 2025 Fonticons, Inc. --><path fill="currentColor" d="M544 320C544 383.3 517.8 440.4 475.6 481.1C476.2 481.6 476.7 482.2 477.3 482.7C484.8 490.2 490.1 499.1 493.1 508.6C544.1 461.8 576.1 394.6 576.1 319.9C576.1 178.5 461.5 63.9 320.1 63.9C178.7 63.9 64 178.6 64 320C64 393.2 94.7 459.2 144 505.9L144 458.6C113.9 420.5 96 372.3 96 320C96 196.3 196.3 96 320 96C443.7 96 544 196.3 544 320zM403.4 384.2C412.9 383.5 422.4 384.9 431.4 388.5C425.6 332.1 377.9 288.1 320 288.1C269.2 288.1 226.3 321.9 212.6 368.3C223.8 369.1 234.1 372.7 243 378.5C252.4 344.8 283.4 320.1 320 320.1C352.2 320.1 379.9 339.1 392.6 366.5C397.3 371.9 400.9 378 403.4 384.3zM268.8 198.4C263.5 191.3 253.5 189.9 246.4 195.2L182.4 243.2C175.3 248.5 173.9 258.5 179.2 265.6C184.5 272.7 194.5 274.1 201.6 268.8L265.6 220.8C272.7 215.5 274.1 205.5 268.8 198.4zM374.4 220.8L438.4 268.8C445.5 274.1 455.5 272.7 460.8 265.6C466.1 258.5 464.7 248.5 457.6 243.2L393.6 195.2C386.5 189.9 376.5 191.3 371.2 198.4C365.9 205.5 367.3 215.5 374.4 220.8zM355.3 419.3C361.5 413.1 361.5 402.9 355.3 396.7C349.1 390.5 338.9 390.5 332.7 396.7L260.7 468.7C254.5 474.9 254.5 485.1 260.7 491.3C266.9 497.5 277.1 497.5 283.3 491.3L355.3 419.3zM224 432C224 423.2 216.8 416 208 416C199.2 416 192 423.2 192 432L192 536C192 593.4 238.6 640 296 640L299.5 640C327.1 640 353.5 629 373 609.5L443.2 539.3C449.4 533.1 449.4 522.9 443.2 516.7C437 510.5 426.8 510.5 420.6 516.7L350.4 586.9C337 600.4 318.6 608 299.5 608L296 608C256.2 608 224 575.8 224 536L224 432zM419.3 459.3C425.5 453.1 425.5 442.9 419.3 436.7C413.1 430.5 402.9 430.5 396.7 436.7L316.7 516.7C310.5 522.9 310.5 533.1 316.7 539.3C322.9 545.5 333.1 545.5 339.3 539.3L419.3 459.3z"/></svg>