<svg xmlns="http://www.w3.org/2000/svg" viewBox="0 0 640 640"><!--! Font Awesome Pro 7.1.0 by @fontawesome - https://fontawesome.com License - https://fontawesome.com/license (Commercial License) Copyright 2025 Fonticons, Inc. --><path fill="currentColor" d="M272 32C286.3 32 299.2 38.3 308 48.3C311 51.7 315.4 53.7 320 53.7C324.6 53.7 329 51.7 332 48.3C340.8 38.3 353.7 32 368 32C390.3 32 409.2 47.3 414.5 68C416.3 75.1 422.7 80 430 80L440 80C462.1 80 480 97.9 480 120C480 142.1 462.1 160 440 160L416 160C380.7 160 352 188.7 352 224L352 244L384 233.3L384 223.9C384 206.2 398.3 191.9 416 191.9L440 191.9C479.8 191.9 512 159.7 512 119.9C512 80.6 480.5 48.6 441.3 47.9C429 19.6 400.8-.1 368-.1C350-.1 333.4 5.9 320 15.9C306.6 5.9 290-.1 272-.1C239.2-.1 211 19.7 198.7 47.9C159.6 48.6 128 80.6 128 119.9C128 159.7 160.2 191.9 200 191.9L224 191.9C241.7 191.9 256 206.2 256 223.9L256 233.3L288 244L288 224C288 188.7 259.3 160 224 160L200 160C177.9 160 160 142.1 160 120C160 97.9 177.9 80 200 80L210 80C217.3 80 223.7 75.1 225.5 68C230.8 47.3 249.6 32 272 32zM97.5 293.8L66.6 283.5C65.1 294.3 64.2 305.2 64 316.4C64 317.6 64 318.8 64 320C64 461.4 178.6 576 320 576C461.4 576 576 461.4 576 320C576 318.8 576 317.6 576 316.4C575.8 305.3 575 294.3 573.4 283.5C551 291 533.9 296.7 522.1 300.6C515.5 302.8 508.4 302.8 501.9 300.6L426.1 275.3C419.5 273.1 412.4 273.1 405.9 275.3L330.1 300.6C323.5 302.8 316.4 302.8 309.9 300.6L234.1 275.3C227.5 273.1 220.4 273.1 213.9 275.3L138.1 300.6C131.5 302.8 124.4 302.8 117.9 300.6L97.5 293.8zM96.1 327.1L107.8 331C120.9 335.4 135.1 335.4 148.3 331L224 305.7L299.8 331C312.9 335.4 327.1 335.4 340.3 331L416 305.7L491.8 331C504.9 335.4 519.1 335.4 532.3 331L543.9 327.1C540.1 447.5 441.3 544 320 544C198.7 544 99.9 447.5 96.1 327.1zM264 400C264 386.7 253.3 376 240 376C226.7 376 216 386.7 216 400C216 413.3 226.7 424 240 424C253.3 424 264 413.3 264 400zM400 424C413.3 424 424 413.3 424 400C424 386.7 413.3 376 400 376C386.7 376 376 386.7 376 400C376 413.3 386.7 424 400 424zM256 480L256 496C256 504.8 263.2 512 272 512L368 512C376.8 512 384 504.8 384 496L384 480C384 444.7 355.3 416 320 416C284.7 416 256 444.7 256 480zM320 448C337.7 448 352 462.3 352 480L288 480C288 462.3 302.3 448 320 448z"/></svg>