<svg xmlns="http://www.w3.org/2000/svg" viewBox="0 0 640 640"><!--! Font Awesome Pro 7.1.0 by @fontawesome - https://fontawesome.com License - https://fontawesome.com/license (Commercial License) Copyright 2025 Fonticons, Inc. --><path fill="currentColor" d="M544 320C544 196.3 443.7 96 320 96C196.3 96 96 196.3 96 320C96 443.7 196.3 544 320 544C443.7 544 544 443.7 544 320zM64 320C64 178.6 178.6 64 320 64C461.4 64 576 178.6 576 320C576 461.4 461.4 576 320 576C178.6 576 64 461.4 64 320zM320 416C282 416 245.5 411.8 211.5 404C234.2 440.1 274.3 464 320 464C365.7 464 405.8 440.1 428.5 404C394.5 411.8 358 416 320 416zM473.5 381.3C454 447.6 392.6 496 320 496C247.4 496 186 447.6 166.5 381.3C163.1 369.6 174.9 360.3 186.5 364C226.4 376.8 271.8 384 320 384C368.2 384 413.6 376.8 453.5 364C465.1 360.3 476.9 369.6 473.5 381.3zM240 250C222.3 250 208 264.3 208 282C208 290.8 200.8 298 192 298C183.2 298 176 290.8 176 282C176 246.7 204.7 218 240 218C275.3 218 304 246.7 304 282C304 290.8 296.8 298 288 298C279.2 298 272 290.8 272 282C272 264.3 257.7 250 240 250zM368 282C368 290.8 360.8 298 352 298C343.2 298 336 290.8 336 282C336 246.7 364.7 218 400 218C435.3 218 464 246.7 464 282C464 290.8 456.8 298 448 298C439.2 298 432 290.8 432 282C432 264.3 417.7 250 400 250C382.3 250 368 264.3 368 282z"/></svg>