<svg xmlns="http://www.w3.org/2000/svg" viewBox="0 0 640 640"><!--! Font Awesome Pro 7.1.0 by @fontawesome - https://fontawesome.com License - https://fontawesome.com/license (Commercial License) Copyright 2025 Fonticons, Inc. --><path fill="currentColor" d="M340.8 543.1C340.7 553.8 342.2 564.5 345.3 574.8C337.1 575.6 328.7 576 320.3 576C312.4 576 304.5 575.6 296.7 574.9C299.9 564.6 301.4 553.9 301.3 543.2C313.5 544.2 327.1 544.3 340.7 543.1zM96.3 320C96.3 339.3 98.7 357.9 103.3 375.8C92.9 378.5 82.9 382.8 73.6 388.7C67.5 366.8 64.3 343.8 64.3 320C64.3 178.6 178.9 64 320.3 64C461.7 64 576.3 178.6 576.3 320C576.3 343.5 573.1 366.3 567.2 387.9C557.8 382.1 547.8 378 537.4 375.4C541.9 357.7 544.3 339.1 544.3 320C544.3 196.3 444 96 320.3 96C196.6 96 96.3 196.3 96.3 320zM184.3 304L264.3 304C273.1 304 280.3 311.2 280.3 320C280.3 328.8 273.1 336 264.3 336L184.3 336C175.5 336 168.3 328.8 168.3 320C168.3 311.2 175.5 304 184.3 304zM376.3 304L456.3 304C465.1 304 472.3 311.2 472.3 320C472.3 328.8 465.1 336 456.3 336L376.3 336C367.5 336 360.3 328.8 360.3 320C360.3 311.2 367.5 304 376.3 304zM446.6 216.8C450.6 224.7 447.3 234.3 439.4 238.3L375.4 270.3C367.5 274.3 357.9 271 353.9 263.1C349.9 255.2 353.2 245.6 361.1 241.6L425.1 209.6C433 205.6 442.6 208.9 446.6 216.8zM201.2 238.3C193.3 234.3 190.1 224.7 194 216.8C197.9 208.9 207.6 205.7 215.5 209.6L279.5 241.6C287.4 245.6 290.6 255.2 286.7 263.1C282.8 271 273.1 274.2 265.2 270.3L201.2 238.3zM535.3 453.8C522.8 441.3 502.5 441.3 490 453.8C486.8 457 484.4 460.7 482.9 464.6C481.2 469 477.6 472.3 473.2 473.9C468.8 475.5 463.9 474.9 459.8 472.5L412.2 443.9L440.8 491.5C443.2 495.5 443.7 500.4 442.2 504.9C440.7 509.4 437.3 512.9 432.9 514.6C429 516.2 425.3 518.5 422.1 521.7C409.6 534.2 409.6 554.5 422.1 567C431.9 576.8 446.6 579 458.6 573.2C464.9 570.2 472.5 571.6 477.3 576.8C477.8 577.3 478.2 577.8 478.7 578.3C497.4 597 527.8 597 546.6 578.3C565.4 559.6 565.3 529.2 546.6 510.4C546.1 509.9 545.6 509.4 545.1 509C539.9 504.2 538.5 496.7 541.5 490.3C547.2 478.4 545.1 463.7 535.3 453.8zM467.4 431.2C492.4 406.2 532.9 406.2 557.9 431.2C574.8 448.1 580.2 472 574.4 493.4C600.4 524.8 598.7 571.5 569.3 600.9C539.9 630.3 493.2 632 461.8 606C440.4 611.9 416.4 606.4 399.6 589.5C374.6 564.5 374.6 524 399.6 499C401.4 497.2 403.2 495.6 405.1 494.1L373 440.6C366.8 430.3 368.4 417.1 377 408.5C385.6 399.9 398.7 398.4 409.1 404.5L462.6 436.6C464.1 434.7 465.8 432.8 467.5 431.1zM152.1 453.8C139.6 441.3 119.3 441.3 106.8 453.8C97 463.6 94.8 478.3 100.6 490.3C103.6 496.6 102.2 504.2 97 509C96.5 509.5 96 509.9 95.5 510.4C76.8 529.1 76.8 559.5 95.5 578.3C114.2 597.1 144.6 597 163.4 578.3C163.9 577.8 164.4 577.3 164.8 576.8C169.6 571.6 177.1 570.2 183.5 573.2C195.4 578.9 210.1 576.8 220 567C232.5 554.5 232.5 534.2 220 521.7C216.8 518.5 213.1 516.1 209.2 514.6C204.8 512.9 201.5 509.3 200 504.9C198.5 500.5 199 495.6 201.4 491.5L230 443.9L182.4 472.5C178.4 474.9 173.5 475.4 169 473.9C164.5 472.4 161 469 159.3 464.6C157.7 460.7 155.4 457 152.2 453.8zM84.2 431.2C109.2 406.2 149.7 406.2 174.7 431.2C176.5 433 178.1 434.8 179.6 436.7L233.1 404.6C243.4 398.4 256.6 400 265.2 408.6C273.8 417.2 275.3 430.3 269.2 440.7L237.1 494.2C239 495.7 240.9 497.4 242.6 499.1C267.6 524.1 267.6 564.6 242.6 589.6C225.7 606.5 201.8 611.9 180.4 606.1C149 632.1 102.3 630.4 72.9 601C43.5 571.6 41.8 524.8 67.8 493.4C61.9 472 67.4 448 84.3 431.2z"/></svg>