<svg xmlns="http://www.w3.org/2000/svg" viewBox="0 0 640 640"><!--! Font Awesome Pro 7.1.0 by @fontawesome - https://fontawesome.com License - https://fontawesome.com/license (Commercial License) Copyright 2025 Fonticons, Inc. --><path fill="currentColor" d="M320 64C302.9 64 286.2 65.7 270.1 68.9C261.4 70.6 255.8 79 257.5 87.7C259.2 96.4 267.6 102 276.3 100.3C290.4 97.5 305 96 320 96C335 96 349.6 97.5 363.7 100.3C372.4 102 380.8 96.4 382.5 87.7C384.2 79 378.6 70.6 369.9 68.9C353.8 65.7 337.1 64 320 64zM462.2 107.1C454.9 102.2 444.9 104.2 440 111.5C435.1 118.8 437.1 128.8 444.4 133.7C468.8 150.1 489.9 171.1 506.2 195.5C511.1 202.8 521.1 204.8 528.4 199.9C535.7 195 537.7 185 532.8 177.7C514.1 149.8 490.1 125.8 462.2 107.1zM195.6 133.7C202.9 128.8 204.9 118.8 200 111.5C195.1 104.2 185.1 102.2 177.8 107.1C149.9 125.8 125.9 149.8 107.2 177.7C102.3 185 104.3 195 111.6 199.9C118.9 204.8 128.9 202.8 133.8 195.5C150.2 171.1 171.2 150 195.6 133.7zM100.3 276.3C102 267.6 96.4 259.2 87.7 257.5C79 255.8 70.6 261.4 68.9 270.1C65.7 286.2 64 302.9 64 320C64 337.1 65.7 353.8 68.9 369.9C70.6 378.6 79 384.2 87.7 382.5C96.4 380.8 102 372.4 100.3 363.7C97.5 349.6 96 335 96 320C96 305 97.5 290.4 100.3 276.3zM571.2 270.1C569.5 261.4 561.1 255.8 552.4 257.5C543.7 259.2 538.1 267.6 539.8 276.3C542.6 290.4 544.1 305.1 544.1 320C544.1 334.9 542.6 349.6 539.8 363.7C538.1 372.4 543.7 380.8 552.4 382.5C561.1 384.2 569.5 378.6 571.2 369.9C574.4 353.7 576.1 337 576.1 320C576.1 303 574.4 286.2 571.2 270.1zM133.7 444.4C128.8 437.1 118.8 435.1 111.5 440C104.2 444.9 102.2 454.9 107.1 462.2C125.8 490.1 149.8 514.1 177.7 532.8C185 537.7 195 535.8 199.9 528.4C204.8 521 202.8 511.1 195.5 506.2C171.1 489.8 150 468.8 133.7 444.4zM532.9 462.2C537.8 454.9 535.9 444.9 528.5 440C521.1 435.1 511.2 437.1 506.3 444.4C489.9 468.8 468.9 489.9 444.5 506.2C437.2 511.1 435.2 521.1 440.1 528.4C445 535.7 455 537.7 462.3 532.8C490.2 514.1 514.2 490.1 532.9 462.2zM276.3 539.7C267.6 538 259.2 543.6 257.5 552.3C255.8 561 261.4 569.4 270.1 571.1C286.3 574.3 303 576 320 576C337 576 353.8 574.3 369.9 571.1C378.6 569.4 384.2 561 382.5 552.3C380.8 543.6 372.4 538 363.7 539.7C349.6 542.5 335 544 320 544C305 544 290.4 542.5 276.3 539.7zM240 296C253.3 296 264 285.3 264 272C264 258.7 253.3 248 240 248C226.7 248 216 258.7 216 272C216 285.3 226.7 296 240 296zM424 272C424 258.7 413.3 248 400 248C386.7 248 376 258.7 376 272C376 285.3 386.7 296 400 296C413.3 296 424 285.3 424 272zM248 384C239.2 384 232 391.2 232 400C232 408.8 239.2 416 248 416L392 416C400.8 416 408 408.8 408 400C408 391.2 400.8 384 392 384L248 384z"/></svg>