<svg xmlns="http://www.w3.org/2000/svg" viewBox="0 0 640 640"><!--! Font Awesome Pro 7.1.0 by @fontawesome - https://fontawesome.com License - https://fontawesome.com/license (Commercial License) Copyright 2025 Fonticons, Inc. --><path fill="currentColor" d="M544 320C544 196.3 443.7 96 320 96C196.3 96 96 196.3 96 320C96 443.7 196.3 544 320 544C443.7 544 544 443.7 544 320zM64 320C64 178.6 178.6 64 320 64C461.4 64 576 178.6 576 320C576 461.4 461.4 576 320 576C178.6 576 64 461.4 64 320zM254.6 475.3C248.4 481.6 238.3 481.6 232 475.4C225.7 469.2 225.7 459.1 231.9 452.8C254.4 430.1 285.5 416 320 416C354.5 416 385.6 430.1 408.1 452.7C414.3 459 414.3 469.1 408 475.3C401.7 481.5 391.6 481.5 385.4 475.2C368.7 458.4 345.6 448 320 448C294.4 448 271.3 458.4 254.6 475.3zM275.3 331.4L267.9 338.8C244.3 362.4 214 378 181.1 383.5L178.6 383.9C169.9 385.4 161.6 379.5 160.2 370.7C158.8 361.9 164.6 353.7 173.4 352.3L175.9 351.9C202.2 347.5 226.5 335 245.4 316.2L252.8 308.8C259 302.6 269.2 302.6 275.4 308.8C281.6 315 281.6 325.2 275.4 331.4zM364.7 331.4C358.5 325.2 358.5 315 364.7 308.8C370.9 302.6 381.1 302.6 387.3 308.8L394.7 316.2C413.6 335.1 437.9 347.6 464.2 351.9L466.7 352.3C475.4 353.8 481.3 362 479.9 370.7C478.5 379.4 470.2 385.3 461.5 383.9L459 383.5C426.1 378 395.7 362.4 372.2 338.8L364.8 331.4z"/></svg>