<svg xmlns="http://www.w3.org/2000/svg" viewBox="0 0 640 640"><!--! Font Awesome Pro 7.1.0 by @fontawesome - https://fontawesome.com License - https://fontawesome.com/license (Commercial License) Copyright 2025 Fonticons, Inc. --><path fill="currentColor" d="M544 320C544 388.9 512.9 450.5 464 491.6L464 512C464 519.7 462.8 527 460.6 534C530.1 488.2 576 409.5 576 320C576 178.6 461.4 64 320 64C178.6 64 64 178.6 64 320C64 421.6 123.2 509.3 208.9 550.7C208.3 545.9 208 541 208 536L208 520C208 518 208 516.1 208.1 514.1C141.1 475.4 96 403 96 320C96 196.3 196.3 96 320 96C443.7 96 544 196.3 544 320zM264 224C264 210.7 253.3 200 240 200C226.7 200 216 210.7 216 224C216 237.3 226.7 248 240 248C253.3 248 264 237.3 264 224zM400 248C413.3 248 424 237.3 424 224C424 210.7 413.3 200 400 200C386.7 200 376 210.7 376 224C376 237.3 386.7 248 400 248zM200.1 321.3C193.4 327 192.6 337.1 198.3 343.9C217.6 366.4 243 383.6 272 392.7L272 358.7C252.8 350.9 235.9 338.6 222.7 323.1C217 316.4 206.9 315.6 200.1 321.3zM400 378.6C415.8 369.5 429.9 357.7 441.7 343.9C447.4 337.2 446.7 327.1 439.9 321.3C433.1 315.5 423.1 316.4 417.3 323.1C412.1 329.2 406.2 334.9 400 339.9L400 378.6zM320 480L384 480L384 512C384 520.8 391.2 528 400 528C408.8 528 416 520.8 416 512L416 464C416 455.2 408.8 448 400 448L352 448L352 352C352 343.2 344.8 336 336 336C327.2 336 320 343.2 320 352L320 448C284.7 448 256 476.7 256 512L256 544C256 579.3 284.7 608 320 608L400 608C408.8 608 416 600.8 416 592C416 583.2 408.8 576 400 576L320 576C302.3 576 288 561.7 288 544L288 512C288 494.3 302.3 480 320 480z"/></svg>