<svg xmlns="http://www.w3.org/2000/svg" viewBox="0 0 640 640"><!--! Font Awesome Pro 7.1.0 by @fontawesome - https://fontawesome.com License - https://fontawesome.com/license (Commercial License) Copyright 2025 Fonticons, Inc. --><path fill="currentColor" d="M544 320C544 196.3 443.7 96 320 96C196.3 96 96 196.3 96 320C96 443.7 196.3 544 320 544C443.7 544 544 443.7 544 320zM64 320C64 178.6 178.6 64 320 64C461.4 64 576 178.6 576 320C576 461.4 461.4 576 320 576C178.6 576 64 461.4 64 320zM160 272C160 263.2 167.2 256 176 256L240 256C257.7 256 272 270.3 272 288C272 305.7 257.7 320 240 320C222.3 320 208 305.7 208 288L176 288C167.2 288 160 280.8 160 272zM368 256L432 256C449.7 256 464 270.3 464 288C464 305.7 449.7 320 432 320C414.3 320 400 305.7 400 288L368 288C359.2 288 352 280.8 352 272C352 263.2 359.2 256 368 256zM432 400C432 426.5 410.5 448 384 448L240 448C231.2 448 224 440.8 224 432C224 423.2 231.2 416 240 416L384 416C392.8 416 400 408.8 400 400C400 391.2 407.2 384 416 384C424.8 384 432 391.2 432 400z"/></svg>