<svg xmlns="http://www.w3.org/2000/svg" viewBox="0 0 640 640"><!--! Font Awesome Pro 7.1.0 by @fontawesome - https://fontawesome.com License - https://fontawesome.com/license (Commercial License) Copyright 2025 Fonticons, Inc. --><path fill="currentColor" d="M227.7 242.6C216.3 239.5 204.2 239.1 192.4 241.7C180.7 225.8 181.2 203.7 193.9 188.3C196.2 185.6 197 181.8 196.1 178.2C191 158.1 200.8 136.9 219.8 128.2C222.9 126.8 225.2 123.9 225.9 120.3C229.9 99.9 247.8 85 268.8 85.6C272.1 85.7 275.3 84.2 277.4 81.3C289.8 64.5 312.5 59.1 331.1 68.9C334.1 70.5 337.6 70.5 340.5 68.9C359.1 59.1 381.8 64.5 394.2 81.3C396.3 84.2 399.5 85.7 402.8 85.6C423.8 85 441.8 99.9 445.7 120.3C446.4 123.9 448.8 126.8 451.8 128.2C470.8 136.9 480.6 158.1 475.5 178.2C474.6 181.8 475.5 185.6 477.7 188.3C490.9 204.3 490.9 227.6 477.7 243.6C475.4 246.3 474.6 250.1 475.5 253.7C475.7 254.7 476 255.7 476.1 256.7C471.9 257.3 467.7 258.3 463.6 259.7C457 257.5 450.2 256.3 443.4 256C442 244.3 445.4 232.4 453 223.2C456.5 219 456.5 212.8 453 208.7C444.2 198 441 183.7 444.4 170.3C445.8 164.8 443 159.4 438.4 157.3C425.8 151.5 416.8 139.9 414.2 126.4C413.1 120.9 408.5 117.4 403.6 117.5C389.7 117.9 376.6 111.4 368.3 100.2C365.2 95.9 359.7 94.8 355.3 97.1C343 103.6 328.3 103.6 316 97.1C311.6 94.8 306.1 95.9 303 100.2C294.8 111.4 281.6 117.9 267.7 117.5C262.8 117.4 258.2 120.9 257.1 126.4C254.5 140 245.5 151.6 232.9 157.3C228.3 159.4 225.5 164.8 226.9 170.3C230.3 183.7 227.1 198 218.3 208.7C214.8 212.9 214.8 219.1 218.3 223.2C223 228.8 226.1 235.5 227.4 242.5zM299.2 374.2C298.7 370.5 296.4 367.1 292.7 365.4C279.9 359.7 270.7 348.2 268 334.5C266.9 329.2 262.2 325.4 256.7 325.6C242.7 326 229.4 319.6 221 308.5C217.7 304.2 211.8 302.8 206.9 305.3C194.5 311.7 179.7 311.7 167.3 305.3C162.4 302.8 156.5 304.2 153.2 308.5C144.8 319.7 131.5 326 117.5 325.6C112 325.4 107.3 329.3 106.2 334.5C103.5 348.2 94.2 359.7 81.5 365.4C76.5 367.6 73.9 373.1 75.3 378.3C78.8 391.8 75.5 406.2 66.5 416.9C63 421 63 427 66.5 431.2C75.5 441.9 78.8 456.2 75.3 469.8C74 475 76.6 480.4 81.5 482.7C94.3 488.4 103.5 499.9 106.2 513.6C107.3 518.9 112 522.7 117.5 522.5C131.5 522.1 144.8 528.5 153.2 539.6C156.5 543.9 162.4 545.3 167.3 542.8C179.7 536.4 194.5 536.4 206.9 542.8C211.8 545.3 217.7 543.9 221 539.6C229.4 528.5 242.7 522.1 256.7 522.5C262.2 522.7 266.9 518.8 268 513.6C270.7 499.9 280 488.4 292.7 482.7C295.2 481.6 297.1 479.7 298.2 477.4C298.1 489.4 301 501.1 306.4 511.6L305.7 511.9C302.4 513.4 300 516.3 299.3 519.9C295.2 540.5 276.8 555.1 255.8 554.5C252.2 554.4 248.7 556.1 246.6 558.9C233.9 575.7 211 580.9 192.3 571.3C189.1 569.6 185.2 569.6 182 571.3C163.3 580.9 140.4 575.7 127.7 558.9C125.5 556 122.1 554.4 118.5 554.5C97.5 555.1 79.1 540.5 75 519.9C74.3 516.4 71.9 513.4 68.6 511.9C49.4 503.3 39.2 482.2 44.4 461.8C45.3 458.3 44.5 454.7 42.1 451.9C28.5 435.8 28.5 412.3 42.1 396.3C44.4 393.6 45.3 389.9 44.4 386.4C39.1 366 49.4 344.9 68.6 336.3C71.9 334.8 74.3 331.8 75 328.3C79.1 307.7 97.5 293.1 118.5 293.7C122.1 293.8 125.6 292.1 127.7 289.3C140.4 272.5 163.3 267.3 182 276.9C185.2 278.6 189.1 278.6 192.3 276.9C211 267.3 233.9 272.5 246.6 289.3C248.8 292.2 252.2 293.8 255.8 293.7C276.8 293.1 295.2 307.7 299.3 328.3C300 331.8 302.4 334.8 305.7 336.3C308.6 337.6 311.3 339.2 313.8 341C306.2 350.7 301.2 362.2 299.2 374.3zM434 323.7C426.1 334.5 413.4 340.7 400 340.3C395.9 340.2 391.9 343.1 391 347.9C388.5 361 379.8 372.1 367.7 377.7C363.8 379.5 361.4 384.1 362.6 388.9C365.9 401.8 362.8 415.6 354.3 425.8C351.3 429.4 351.3 434.7 354.3 438.3C362.8 448.6 365.8 462.3 362.6 475.2C361.4 479.9 363.8 484.6 367.7 486.4C379.9 492 388.5 503.1 391 516.2C391.9 520.9 395.9 523.9 400 523.8C413.4 523.4 426.1 529.7 434 540.4C436.7 544 441.4 545 445.1 543.1C457 536.8 471.1 536.8 482.9 543.1C486.6 545.1 491.3 544.1 494 540.4C501.9 529.6 514.6 523.4 528 523.8C532.1 523.9 536.1 521 537 516.2C539.5 503.1 548.2 492 560.3 486.4C564.2 484.6 566.6 480 565.4 475.2C562.1 462.3 565.2 448.5 573.7 438.3C576.7 434.7 576.7 429.4 573.7 425.8C565.2 415.5 562.2 401.8 565.4 388.9C566.6 384.2 564.2 379.5 560.3 377.7C548.1 372.1 539.5 361 537 347.9C536.1 343.2 532.1 340.2 528 340.3C514.6 340.7 501.9 334.4 494 323.7C491.3 320.1 486.6 319.1 482.9 321C471 327.3 456.9 327.3 445.1 321C441.4 319 436.7 320 434 323.7zM460 292.7C462.5 294 465.5 294 468 292.7C485.9 283.3 507.8 288.5 519.8 304.7C521.6 307.1 524.4 308.4 527.1 308.4C547.3 307.8 564.6 322.2 568.5 341.8C569.1 344.9 571.1 347.4 573.7 348.6C592 357 601.4 377.4 596.5 396.7C595.7 399.8 596.5 403 598.4 405.4C611.2 420.8 611.2 443.3 598.4 458.7C596.5 461 595.7 464.3 596.5 467.4C601.4 486.8 592 507.1 573.7 515.5C571.1 516.7 569.1 519.2 568.5 522.3C564.7 541.9 547.4 556.3 527.1 555.7C524.3 555.6 521.6 556.9 519.8 559.4C507.8 575.6 486 580.8 468 571.4C465.5 570.1 462.5 570.1 460 571.4C442.1 580.8 420.2 575.6 408.2 559.4C406.4 557 403.6 555.7 400.9 555.7C380.7 556.3 363.4 541.9 359.5 522.3C358.9 519.2 356.9 516.7 354.3 515.5C336 507.1 326.6 486.7 331.5 467.4C332.3 464.3 331.5 461.1 329.6 458.7C316.8 443.3 316.8 420.8 329.6 405.4C331.5 403.1 332.3 399.8 331.5 396.7C326.6 377.3 336 357 354.3 348.6C356.9 347.4 358.9 344.9 359.5 341.8C363.3 322.2 380.6 307.8 400.9 308.4C403.7 308.5 406.4 307.2 408.2 304.7C420.2 288.5 442 283.3 460 292.7zM432 448C440.8 448 448 455.2 448 464C448 472.8 440.8 480 432 480C423.2 480 416 472.8 416 464C416 455.2 423.2 448 432 448zM112 416C112 407.2 119.2 400 128 400C136.8 400 144 407.2 144 416C144 424.8 136.8 432 128 432C119.2 432 112 424.8 112 416zM160 464C168.8 464 176 471.2 176 480C176 488.8 168.8 496 160 496C151.2 496 144 488.8 144 480C144 471.2 151.2 464 160 464z"/></svg>