<svg xmlns="http://www.w3.org/2000/svg" viewBox="0 0 640 640"><!--! Font Awesome Pro 7.1.0 by @fontawesome - https://fontawesome.com License - https://fontawesome.com/license (Commercial License) Copyright 2025 Fonticons, Inc. --><path fill="currentColor" d="M192.1 160C209.8 160 224.1 145.7 224.1 128C224.1 110.3 209.8 96 192.1 96C174.4 96 160.1 110.3 160.1 128C160.1 145.7 174.4 160 192.1 160zM192.1 64C227.4 64 256.1 92.7 256.1 128C256.1 163.3 227.4 192 192.1 192C156.8 192 128.1 163.3 128.1 128C128.1 92.7 156.8 64 192.1 64zM160.1 256C142.4 256 128.1 270.3 128.1 288L128.1 352C128.1 369.7 142.4 384 160.1 384L193.1 384C192.4 389.2 192.1 394.6 192.1 400L192.1 416L160.1 416L160.1 560C160.1 568.8 152.9 576 144.1 576C135.3 576 128.1 568.8 128.1 560L128.1 407.4C109 396.3 96.1 375.7 96.1 352L96.1 288C96.1 252.7 124.8 224 160.1 224L218.9 224C217.1 231.7 216.1 239.7 216.1 248C216.1 250.7 216.2 253.4 216.4 256L160.1 256zM480.1 448L446.8 448C447.7 442.8 448.1 437.5 448.1 432L448.1 416L533.7 416L498.9 294.3C492.4 271.6 471.7 256 448.1 256C439.2 256 430.6 258.2 423.1 262.3C423.7 257.6 424.1 252.9 424.1 248C424.1 241.2 423.4 234.5 422.2 228C430.4 225.4 439.1 224 448.1 224C486 224 519.3 249.1 529.7 285.5L564.5 407.2C570.3 427.6 555 448 533.7 448L512.1 448L512.1 560C512.1 568.8 504.9 576 496.1 576C487.3 576 480.1 568.8 480.1 560L480.1 448zM448.1 160C465.8 160 480.1 145.7 480.1 128C480.1 110.3 465.8 96 448.1 96C430.4 96 416.1 110.3 416.1 128C416.1 145.7 430.4 160 448.1 160zM448.1 64C483.4 64 512.1 92.7 512.1 128C512.1 163.3 483.4 192 448.1 192C412.8 192 384.1 163.3 384.1 128C384.1 92.7 412.8 64 448.1 64zM320.1 272C333.4 272 344.1 261.3 344.1 248C344.1 234.7 333.4 224 320.1 224C306.8 224 296.1 234.7 296.1 248C296.1 261.3 306.8 272 320.1 272zM320.1 192C351 192 376.1 217.1 376.1 248C376.1 278.9 351 304 320.1 304C289.2 304 264.1 278.9 264.1 248C264.1 217.1 289.2 192 320.1 192zM320.1 352C293.6 352 272.1 373.5 272.1 400L272.1 432C272.1 440.8 279.3 448 288.1 448L352.1 448C360.9 448 368.1 440.8 368.1 432L368.1 400C368.1 373.5 346.6 352 320.1 352zM272.1 477.3C253.5 470.7 240.1 452.9 240.1 432L240.1 400C240.1 355.8 275.9 320 320.1 320C364.3 320 400.1 355.8 400.1 400L400.1 432C400.1 452.9 386.7 470.7 368.1 477.3L368.1 560C368.1 568.8 360.9 576 352.1 576C343.3 576 336.1 568.8 336.1 560L336.1 480L304.1 480L304.1 560C304.1 568.8 296.9 576 288.1 576C279.3 576 272.1 568.8 272.1 560L272.1 477.3z"/></svg>