<svg xmlns="http://www.w3.org/2000/svg" viewBox="0 0 640 640"><!--! Font Awesome Pro 7.1.0 by @fontawesome - https://fontawesome.com License - https://fontawesome.com/license (Commercial License) Copyright 2025 Fonticons, Inc. --><path fill="currentColor" d="M192.1 96C209.8 96 224.1 110.3 224.1 128C224.1 145.7 209.8 160 192.1 160C174.4 160 160.1 145.7 160.1 128C160.1 110.3 174.4 96 192.1 96zM192.1 192C227.4 192 256.1 163.3 256.1 128C256.1 92.7 227.4 64 192.1 64C156.8 64 128.1 92.7 128.1 128C128.1 163.3 156.8 192 192.1 192zM192.1 416L106.5 416L141.3 294.3C147.8 271.6 168.5 256 192.1 256C201 256 209.6 258.2 217.1 262.3C216.5 257.6 216.1 252.9 216.1 248C216.1 241.2 216.8 234.5 218 228C209.8 225.4 201.1 224 192.1 224C154.2 224 120.9 249.1 110.5 285.5L75.8 407.2C69.9 427.7 85.3 448 106.5 448L128.1 448L128.1 560C128.1 568.8 135.3 576 144.1 576C152.9 576 160.1 568.8 160.1 560L160.1 448L193.4 448C192.5 442.8 192.1 437.5 192.1 432L192.1 416zM446.8 448L480.1 448L480.1 560C480.1 568.8 487.3 576 496.1 576C504.9 576 512.1 568.8 512.1 560L512.1 448L533.7 448C555 448 570.3 427.7 564.5 407.2L529.7 285.5C519.3 249.1 486 224 448.1 224C439.1 224 430.4 225.4 422.2 228C423.5 234.5 424.1 241.1 424.1 248C424.1 252.8 423.8 257.6 423.1 262.3C430.6 258.3 439.1 256 448.1 256C471.7 256 492.4 271.6 498.9 294.3L533.7 416L448.1 416L448.1 432C448.1 437.5 447.6 442.8 446.8 448zM448.1 96C465.8 96 480.1 110.3 480.1 128C480.1 145.7 465.8 160 448.1 160C430.4 160 416.1 145.7 416.1 128C416.1 110.3 430.4 96 448.1 96zM448.1 192C483.4 192 512.1 163.3 512.1 128C512.1 92.7 483.4 64 448.1 64C412.8 64 384.1 92.7 384.1 128C384.1 163.3 412.8 192 448.1 192zM320.1 224C333.4 224 344.1 234.7 344.1 248C344.1 261.3 333.4 272 320.1 272C306.8 272 296.1 261.3 296.1 248C296.1 234.7 306.8 224 320.1 224zM320.1 304C351 304 376.1 278.9 376.1 248C376.1 217.1 351 192 320.1 192C289.2 192 264.1 217.1 264.1 248C264.1 278.9 289.2 304 320.1 304zM320.1 352C346.6 352 368.1 373.5 368.1 400L368.1 432C368.1 440.8 360.9 448 352.1 448L288.1 448C279.3 448 272.1 440.8 272.1 432L272.1 400C272.1 373.5 293.6 352 320.1 352zM272.1 477.3L272.1 560C272.1 568.8 279.3 576 288.1 576C296.9 576 304.1 568.8 304.1 560L304.1 480L336.1 480L336.1 560C336.1 568.8 343.3 576 352.1 576C360.9 576 368.1 568.8 368.1 560L368.1 477.3C386.7 470.7 400.1 452.9 400.1 432L400.1 400C400.1 355.8 364.3 320 320.1 320C275.9 320 240.1 355.8 240.1 400L240.1 432C240.1 452.9 253.5 470.7 272.1 477.3z"/></svg>