<svg xmlns="http://www.w3.org/2000/svg" viewBox="0 0 640 640"><!--! Font Awesome Pro 7.1.0 by @fontawesome - https://fontawesome.com License - https://fontawesome.com/license (Commercial License) Copyright 2025 Fonticons, Inc. --><path fill="currentColor" d="M512 288C512 182 426 96 320 96C214 96 128 182 128 288C128 394 214 480 320 480C426 480 512 394 512 288zM544 288C544 406.3 452.2 503.2 336 511.4L336 544L464 544C472.8 544 480 551.2 480 560C480 568.8 472.8 576 464 576L176 576C167.2 576 160 568.8 160 560C160 551.2 167.2 544 176 544L304 544L304 511.4C187.8 503.2 96 406.3 96 288C96 164.3 196.3 64 320 64C443.7 64 544 164.3 544 288zM320 272C328.8 272 336 279.2 336 288C336 296.8 328.8 304 320 304C311.2 304 304 296.8 304 288C304 279.2 311.2 272 320 272zM264.6 172.3C231.8 185.5 216 222.8 229.2 255.6C238.5 278.6 259.6 293.3 282.8 295.4C288.6 295.9 293.7 299.6 296 305C298.3 310.4 297.5 316.6 293.9 321.2L246 382.6C243.3 386.1 243.9 391.1 247.4 393.8C275.3 415.6 315.5 410.6 337.2 382.8C352.5 363.3 354.6 337.6 344.8 316.5C342.3 311.2 343 304.9 346.5 300.2C350 295.5 355.8 293.1 361.6 293.9L438.7 304.7C443.1 305.3 447.1 302.3 447.7 297.9C452.6 262.9 428.2 230.5 393.2 225.6C368.6 222.1 345.3 233.1 331.9 252.1C328.5 256.9 322.8 259.4 317 258.8C311.2 258.2 306.2 254.3 304 248.9L275 176.7C273.3 172.6 268.7 170.6 264.6 172.3zM324.6 213.9C344.5 198 370.6 190 397.9 193.9C450.4 201.3 487 249.8 479.6 302.3C476.5 324.2 456.3 339.4 434.4 336.3L381.8 329C385.6 354.2 379.5 380.8 362.5 402.5C329.9 444.3 269.5 451.7 227.7 419C210.3 405.4 207.2 380.3 220.8 362.9L253.6 321C229.9 311.7 209.9 293.1 199.6 267.6C179.7 218.4 203.5 162.5 252.6 142.6C273.1 134.3 296.4 144.2 304.7 164.7L324.6 214z"/></svg>