<svg xmlns="http://www.w3.org/2000/svg" viewBox="0 0 640 640"><!--! Font Awesome Pro 7.1.0 by @fontawesome - https://fontawesome.com License - https://fontawesome.com/license (Commercial License) Copyright 2025 Fonticons, Inc. --><path fill="currentColor" d="M240 224C240 158.7 288.9 104.9 352 97L352 232.2C352 237.4 354.5 242.3 358.8 245.3C363.1 248.3 368.5 249.1 373.4 247.3C386.7 242.6 401.1 240 416.1 240C481.4 240 535.2 288.9 543.1 352L407.9 352C402.7 352 397.8 354.5 394.8 358.8C391.8 363.1 391 368.5 392.8 373.4C397.5 386.7 400.1 401.1 400.1 416.1C400.1 481.4 351.2 535.2 288.1 543.1L288.1 407.9C288.1 402.7 285.6 397.8 281.3 394.8C277 391.8 271.6 391 266.7 392.8C253.4 397.5 239 400.1 224 400.1C158.7 400.1 104.9 351.2 97 288.1L232.2 288.1C237.4 288.1 242.3 285.6 245.3 281.3C248.3 277 249.1 271.6 247.3 266.7C242.6 253.3 240 239 240 224zM368 64C279.6 64 208 135.6 208 224C208 234.9 209.1 245.7 211.2 256L80 256C71.2 256 64 263.2 64 272C64 360.4 135.6 432 224 432C234.9 432 245.7 430.9 256 428.8L256 560C256 568.8 263.2 576 272 576C360.4 576 432 504.4 432 416C432 405.1 430.9 394.3 428.8 384L560 384C568.8 384 576 376.8 576 368C576 279.6 504.4 208 416 208C405.1 208 394.3 209.1 384 211.2L384 80C384 71.2 376.8 64 368 64zM320 344C333.3 344 344 333.3 344 320C344 306.7 333.3 296 320 296C306.7 296 296 306.7 296 320C296 333.3 306.7 344 320 344z"/></svg>