<svg xmlns="http://www.w3.org/2000/svg" viewBox="0 0 640 640"><!--! Font Awesome Pro 7.1.0 by @fontawesome - https://fontawesome.com License - https://fontawesome.com/license (Commercial License) Copyright 2025 Fonticons, Inc. --><path fill="currentColor" d="M80 544C71.2 544 64 536.8 64 528L64 112C64 103.2 71.2 96 80 96C88.8 96 96 103.2 96 112L96 277.9L299.2 103.7C308.7 95.6 322 93.7 333.4 98.9C344.8 104.1 352 115.5 352 128L352 250.4L523.2 103.7C532.7 95.6 546 93.7 557.4 98.9C568.8 104.1 576 115.5 576 128L576 512C576 524.5 568.7 535.8 557.4 541.1C546.1 546.4 532.7 544.5 523.2 536.3L352 389.6L352 512C352 524.5 344.7 535.8 333.4 541.1C322.1 546.4 308.7 544.5 299.2 536.3L96 362.1L96 528C96 536.8 88.8 544 80 544zM352 347.4L544 512L544 128L352 292.6L352 347.5zM320 512L320 128L96 320L320 512z"/></svg>