<svg xmlns="http://www.w3.org/2000/svg" viewBox="0 0 640 640"><!--! Font Awesome Pro 7.1.0 by @fontawesome - https://fontawesome.com License - https://fontawesome.com/license (Commercial License) Copyright 2025 Fonticons, Inc. --><path fill="currentColor" d="M304 112C304 103.2 296.8 96 288 96C279.2 96 272 103.2 272 112L272 160L144 160C135.2 160 128 167.2 128 176C128 184.8 135.2 192 144 192L272 192L272 240L253.3 240C240.6 240 228.4 245.1 219.4 254.1L185.4 288L80 288C71.2 288 64 295.2 64 304C64 312.8 71.2 320 80 320L192 320C196.2 320 200.3 318.3 203.3 315.3L241.9 276.7C244.9 273.7 249 272 253.2 272L322.7 272C326.9 272 331 273.7 334 276.7L372.6 315.3C375.6 318.3 379.7 320 383.9 320L431.9 320C493.8 320 543.9 370.1 543.9 432C543.9 440.8 536.7 448 527.9 448L495.9 448C487.1 448 479.9 440.8 479.9 432C479.9 405.5 458.4 384 431.9 384L371.1 384C365.4 384 360.1 387 357.3 392C343.4 416 317.6 432 288 432C258.4 432 232.5 415.9 218.7 392C215.8 387.1 210.6 384 204.9 384L80 384C71.2 384 64 391.2 64 400C64 408.8 71.2 416 80 416L196.1 416C216.3 445 249.9 464 288 464C326.1 464 359.7 445 379.9 416L432 416C440.8 416 448 423.2 448 432C448 458.5 469.5 480 496 480L528 480C554.5 480 576 458.5 576 432C576 352.5 511.5 288 432 288L390.6 288L356.7 254.1C347.7 245.1 335.5 240 322.8 240L304.1 240L304.1 192L432.1 192C440.9 192 448.1 184.8 448.1 176C448.1 167.2 440.9 160 432.1 160L304.1 160L304.1 112z"/></svg>