<svg xmlns="http://www.w3.org/2000/svg" viewBox="0 0 640 640"><!--! Font Awesome Pro 7.1.0 by @fontawesome - https://fontawesome.com License - https://fontawesome.com/license (Commercial License) Copyright 2025 Fonticons, Inc. --><path fill="currentColor" d="M224 120C224 106.7 234.7 96 248 96L407.4 96C413.8 96 419.9 98.5 424.4 103L473 151.6C477.5 156.1 480 162.2 480 168.6L480 200L512 200L512 168.6C512 153.7 506.1 139.5 495.6 129L447 80.4C436.5 69.9 422.3 64 407.4 64L248 64C217.1 64 192 89.1 192 120L192 194.7C187 192.9 181.6 192 176 192L112 192C85.5 192 64 213.5 64 240L64 496C64 522.5 85.5 544 112 544L176 544C188.3 544 199.5 539.4 208 531.8C216.5 539.4 227.7 544 240 544L528 544C554.5 544 576 522.5 576 496L576 304C576 277.5 554.5 256 528 256L224 256L224 120zM192 240L192 496C192 504.8 184.8 512 176 512L112 512C103.2 512 96 504.8 96 496L96 240C96 231.2 103.2 224 112 224L176 224C184.8 224 192 231.2 192 240zM240 512C231.2 512 224 504.8 224 496L224 288L528 288C536.8 288 544 295.2 544 304L544 496C544 504.8 536.8 512 528 512L240 512zM320 352C320 338.7 309.3 328 296 328C282.7 328 272 338.7 272 352C272 365.3 282.7 376 296 376C309.3 376 320 365.3 320 352zM296 472C309.3 472 320 461.3 320 448C320 434.7 309.3 424 296 424C282.7 424 272 434.7 272 448C272 461.3 282.7 472 296 472zM408 352C408 338.7 397.3 328 384 328C370.7 328 360 338.7 360 352C360 365.3 370.7 376 384 376C397.3 376 408 365.3 408 352zM384 472C397.3 472 408 461.3 408 448C408 434.7 397.3 424 384 424C370.7 424 360 434.7 360 448C360 461.3 370.7 472 384 472zM496 352C496 338.7 485.3 328 472 328C458.7 328 448 338.7 448 352C448 365.3 458.7 376 472 376C485.3 376 496 365.3 496 352zM472 472C485.3 472 496 461.3 496 448C496 434.7 485.3 424 472 424C458.7 424 448 434.7 448 448C448 461.3 458.7 472 472 472z"/></svg>