<svg xmlns="http://www.w3.org/2000/svg" viewBox="0 0 640 640"><!--! Font Awesome Pro 7.1.0 by @fontawesome - https://fontawesome.com License - https://fontawesome.com/license (Commercial License) Copyright 2025 Fonticons, Inc. --><path fill="currentColor" d="M565.9 74.1C558.9 67.1 549.2 63.3 539.3 64.1L522.7 65.7C435.5 75.4 286.9 110.2 201.4 195.6L194.1 203.1C121.3 281.3 121.2 368 135.3 420.4L137.7 427.7C142.1 439.5 149.1 450.2 157.4 459.9L68.7 548.7C62.5 554.9 62.5 565.1 68.7 571.3C74.9 577.5 85.1 577.5 91.3 571.3L180 482.6C191.7 492.5 204.7 500.7 219.6 504.7L230.2 507.2C283.2 518.5 363.8 514 436.9 445.9L444.4 438.6C529.8 353.2 564.6 204.5 574.3 117.3L575.9 100.7C576.7 90.8 572.9 81.1 565.9 74.1zM202.7 459.9L246.6 416L421.7 416C355.8 481.9 283.2 485.9 236.8 475.9L227.9 473.7C219.6 471.5 211.3 466.8 202.7 459.8zM449 384L278.6 384L342.6 320L486.4 320C475.6 342.9 463.2 364.6 449 384zM500.2 288L374.7 288L412.3 250.4C418.5 244.2 418.5 234 412.3 227.8C406.1 221.6 395.9 221.6 389.7 227.8L180.1 437.3C174.4 430.2 170.2 423.4 167.7 416.6L166.2 412.1C153.9 366.4 153.7 288.5 224 218.3C264.6 177.7 322.9 148.6 383.1 128.7C435.5 111.4 487.3 101.9 526.1 97.6L541.9 96C541.9 96 542.1 96 542.3 96.1C542.6 96.2 542.9 96.4 543.3 96.8C543.7 97.2 543.9 97.5 544 97.8L544.1 98.2C540.8 137.9 531.2 197 511.4 256.9C508 267.4 504.2 277.8 500.2 288z"/></svg>