<svg xmlns="http://www.w3.org/2000/svg" viewBox="0 0 640 640"><!--! Font Awesome Pro 7.1.0 by @fontawesome - https://fontawesome.com License - https://fontawesome.com/license (Commercial License) Copyright 2025 Fonticons, Inc. --><path fill="currentColor" d="M389.6 227.8L160 457.4L160 394C160 334.6 183.6 277.6 225.6 235.6L329.4 131.9C352.4 108.9 383.5 96 416 96C448.5 96 479.7 108.9 502.6 131.9L508.1 137.4C531.1 160.4 544 191.5 544 224C544 246.8 537.7 268.9 526 288L374.7 288L412.3 250.4C418.5 244.2 418.5 234 412.3 227.8C406.1 221.6 395.9 221.6 389.7 227.8zM342.6 320L498.7 320L434.7 384L278.6 384L342.6 320zM402.7 416C360.9 457 304.6 480 245.9 480L182.6 480L246.6 416L402.7 416zM128 394L128 489.3L68.7 548.6C62.5 554.8 62.5 565 68.7 571.2C74.9 577.4 85.1 577.4 91.3 571.2L150.6 512L246 512C313.9 512 379 485 427 437L530.7 333.3C559.7 304.3 576 265 576 224C576 183 559.7 143.7 530.7 114.7L525.2 109.2C496.3 80.3 457 64 416 64C375 64 335.7 80.3 306.7 109.3L203 213C155 261 128 326.1 128 394z"/></svg>