<svg xmlns="http://www.w3.org/2000/svg" viewBox="0 0 640 640"><!--! Font Awesome Pro 7.1.0 by @fontawesome - https://fontawesome.com License - https://fontawesome.com/license (Commercial License) Copyright 2025 Fonticons, Inc. --><path fill="currentColor" d="M96 112C96 103.2 103.2 96 112 96C350.6 96 544 289.4 544 528C544 536.8 536.8 544 528 544C519.2 544 512 536.8 512 528C512 307.1 332.9 128 112 128C103.2 128 96 120.8 96 112zM160 512C177.7 512 192 497.7 192 480C192 462.3 177.7 448 160 448C142.3 448 128 462.3 128 480C128 497.7 142.3 512 160 512zM160 416C195.3 416 224 444.7 224 480C224 515.3 195.3 544 160 544C124.7 544 96 515.3 96 480C96 444.7 124.7 416 160 416zM112 224C279.9 224 416 360.1 416 528C416 536.8 408.8 544 400 544C391.2 544 384 536.8 384 528C384 377.8 262.2 256 112 256C103.2 256 96 248.8 96 240C96 231.2 103.2 224 112 224z"/></svg>