<svg xmlns="http://www.w3.org/2000/svg" viewBox="0 0 640 640"><!--! Font Awesome Pro 7.1.0 by @fontawesome - https://fontawesome.com License - https://fontawesome.com/license (Commercial License) Copyright 2025 Fonticons, Inc. --><path fill="currentColor" d="M96 187.2L96 512L160 512L160 187.2L128 147.2L96 187.2zM71 167.2L115.5 111.6C121.9 103.6 134.1 103.6 140.5 111.6L185 167.2C189.5 172.9 192 179.9 192 187.2L192 224L256 224L256 187.2C256 179.9 258.5 172.9 263 167.2L307.5 111.6C313.9 103.6 326.1 103.6 332.5 111.6L377 167.2C381.5 172.9 384 179.9 384 187.2L384 224L448 224L448 187.2C448 179.9 450.5 172.9 455 167.2L499.5 111.6C505.9 103.6 518.1 103.6 524.5 111.6L569 167.2C573.5 172.9 576 179.9 576 187.2L576 512C576 529.7 561.7 544 544 544L480 544C462.3 544 448 529.7 448 512L448 448L384 448L384 512C384 529.7 369.7 544 352 544L288 544C270.3 544 256 529.7 256 512L256 448L192 448L192 512C192 529.7 177.7 544 160 544L96 544C78.3 544 64 529.7 64 512L64 187.2C64 179.9 66.5 172.9 71 167.2zM448 416L448 256L384 256L384 416L448 416zM192 256L192 416L256 416L256 256L192 256zM288 512L352 512L352 187.2L320 147.2L288 187.2L288 512zM480 187.2L480 512L544 512L544 187.2L512 147.2L480 187.2z"/></svg>