<svg xmlns="http://www.w3.org/2000/svg" viewBox="0 0 640 640"><!--! Font Awesome Pro 7.1.0 by @fontawesome - https://fontawesome.com License - https://fontawesome.com/license (Commercial License) Copyright 2025 Fonticons, Inc. --><path fill="currentColor" d="M366.7 100.9C394.4 106.8 420.2 117.8 443.1 132.8C449.4 129.7 456.5 128 464 128C490.5 128 512 149.5 512 176C512 183.5 510.3 190.6 507.2 196.9C522.3 219.8 533.2 245.6 539.1 273.3C560.2 278.3 576 297.3 576 320C576 342.7 560.3 361.7 539.1 366.7C533.2 394.4 522.2 420.2 507.2 443C510.3 449.3 512 456.4 512 463.9C512 490.4 490.5 511.9 464 511.9C437.5 511.9 416 490.4 416 463.9C416 437.4 437.5 415.9 464 415.9C471.1 415.9 477.8 417.4 483.8 420.2C494.5 402.8 502.4 383.6 507.1 363.2C495.8 357.7 486.9 347.9 482.7 336L382 336C377.9 351.7 368.1 365.1 354.8 373.7L408.2 533.8L415.2 554.9L415.2 554.9C416.8 559.8 416 565.1 413 569.3C410 573.5 405.2 575.9 400 575.9L240 575.9C234.9 575.9 230 573.4 227 569.3C224 565.2 223.2 559.8 224.8 554.9L231.8 533.8L285.2 373.7C271.9 365.1 262 351.7 258 336L157.3 336C153.1 348 144.2 357.8 132.9 363.2C137.6 383.6 145.6 402.8 156.2 420.2C162.2 417.5 168.9 415.9 176 415.9C202.5 415.9 224 437.4 224 463.9C224 490.4 202.5 511.9 176 511.9C149.5 511.9 128 490.4 128 463.9C128 456.4 129.7 449.3 132.8 443C117.7 420.1 106.8 394.3 100.9 366.7C79.8 361.7 64 342.7 64 320C64 297.3 79.7 278.3 100.9 273.3C106.8 245.6 117.8 219.8 132.8 196.9C129.7 190.6 128 183.5 128 176C128 149.5 149.5 128 176 128C183.5 128 190.6 129.7 196.9 132.8C219.8 117.7 245.6 106.7 273.3 100.9C278.3 79.8 297.3 64 320 64C342.7 64 361.7 79.7 366.7 100.9zM264.9 287.5L196.7 219.3C190.4 222.3 183.4 224 176 224C168.9 224 162.3 222.5 156.2 219.7C145.5 237.1 137.6 256.3 132.9 276.7C144.2 282.2 153.1 292 157.3 303.9L258 304C259.5 298.1 261.8 292.6 264.8 287.5zM304 258L304 157.3C292 153.1 282.2 144.2 276.8 132.9C256.4 137.6 237.2 145.6 219.8 156.2C222.5 162.2 224.1 168.9 224.1 176C224.1 183.4 222.4 190.4 219.4 196.7L287.6 264.9C292.7 261.9 298.2 259.6 304.1 258.1zM352.5 264.8L420.7 196.6C417.7 190.3 416 183.3 416 175.9C416 168.8 417.5 162.2 420.3 156.1C402.9 145.4 383.7 137.5 363.3 132.8C357.8 144.1 348 153 336.1 157.2L336 258C341.9 259.5 347.4 261.8 352.5 264.8zM382 304L482.7 304C486.9 292 495.8 282.2 507.1 276.8C502.4 256.4 494.4 237.2 483.8 219.8C477.8 222.5 471.1 224.1 464 224.1C456.6 224.1 449.6 222.4 443.3 219.4L375.1 287.6C378.1 292.7 380.4 298.2 381.9 304.1zM315.6 383.8C310.3 399.8 296 442.5 272.9 512L262.2 544L377.8 544C374 532.5 360.3 491.5 336.9 421.2L324.5 383.9C321.6 384.1 318.6 384.1 315.7 383.9zM336 112C336 103.2 328.8 96 320 96C311.2 96 304 103.2 304 112C304 120.8 311.2 128 320 128C328.8 128 336 120.8 336 112zM176 192C184.8 192 192 184.8 192 176C192 167.2 184.8 160 176 160C167.2 160 160 167.2 160 176C160 184.8 167.2 192 176 192zM480 176C480 167.2 472.8 160 464 160C455.2 160 448 167.2 448 176C448 184.8 455.2 192 464 192C472.8 192 480 184.8 480 176zM112 304C103.2 304 96 311.2 96 320C96 328.8 103.2 336 112 336C120.8 336 128 328.8 128 320C128 311.2 120.8 304 112 304zM160 464C160 472.8 167.2 480 176 480C184.8 480 192 472.8 192 464C192 455.2 184.8 448 176 448C167.2 448 160 455.2 160 464zM464 448C455.2 448 448 455.2 448 464C448 472.8 455.2 480 464 480C472.8 480 480 472.8 480 464C480 455.2 472.8 448 464 448zM512 320C512 328.8 519.2 336 528 336C536.8 336 544 328.8 544 320C544 311.2 536.8 304 528 304C519.2 304 512 311.2 512 320zM320 352C337.7 352 352 337.7 352 320C352 302.3 337.7 288 320 288C302.3 288 288 302.3 288 320C288 337.7 302.3 352 320 352z"/></svg>