<svg xmlns="http://www.w3.org/2000/svg" viewBox="0 0 640 640"><!--! Font Awesome Pro 7.1.0 by @fontawesome - https://fontawesome.com License - https://fontawesome.com/license (Commercial License) Copyright 2025 Fonticons, Inc. --><path fill="currentColor" d="M496 608C451.8 608 416 572.2 416 528C416 483.8 451.8 448 496 448C540.2 448 576 483.8 576 528C576 572.2 540.2 608 496 608zM496 480C469.5 480 448 501.5 448 528C448 554.5 469.5 576 496 576C522.5 576 544 554.5 544 528C544 501.5 522.5 480 496 480zM462.1 88C482.4 62.7 518.9 56.3 546.8 74.3C574.6 92.3 583.9 128.2 569.1 157.1L565.8 162.8L343.8 506.5L338.3 514.4C309.8 553 264.4 576 216.1 576L208.3 575.8C130.5 571.9 68.1 509.5 64.2 431.8L64 424L64 416C64 380.7 92.7 352 128 352L134.5 352.3C166.8 355.6 192 382.8 192 416L192 423.9C192 436.3 201.5 446.6 213.6 447.8L216.1 447.9C223.2 447.9 229.9 444.7 234.5 439.3L236.3 436.9L458.3 93.2L462.1 87.9zM263.1 454.4C252.8 470.4 235.1 480 216.1 480L216.1 480C185.1 480 160 454.9 160 424L160 416.1C160 398.4 145.7 384.1 128 384.1C111.4 384.1 97.8 396.7 96.2 412.8L96 416L96 424C96 490.3 149.8 544.1 216.1 544.1C256.8 544.1 294.8 523.4 316.9 489.2L476.1 242.6L421.9 208.7L263.1 454.5zM529.3 101.1C515.5 92.2 497.5 95.2 487.3 107.5L484.6 111.2L439.1 181.6L493.4 215.5L538.4 145.8L540.6 141.9C547.2 128.5 543.5 112.1 531.7 102.8L529.2 101z"/></svg>