<svg xmlns="http://www.w3.org/2000/svg" viewBox="0 0 640 640"><!--! Font Awesome Pro 7.1.0 by @fontawesome - https://fontawesome.com License - https://fontawesome.com/license (Commercial License) Copyright 2025 Fonticons, Inc. --><path fill="currentColor" d="M160 80C160 71.2 167.2 64 176 64L304 64C312.8 64 320 71.2 320 80C320 88.8 312.8 96 304 96L252.2 96L391.3 256L475.2 256C490.7 256 506.1 258.5 520.7 263.4L581.8 283.8C597.5 289 608 303.6 608 320C608 336.4 597.5 351 581.9 356.2L520.8 376.6C506.1 381.5 490.7 384 475.3 384L391.6 384L258.3 544L304.1 544C312.9 544 320.1 551.2 320.1 560C320.1 568.8 312.9 576 304.1 576L176.1 576C167.3 576 160.1 568.8 160.1 560C160.1 551.2 167.3 544 176.1 544L192.1 544L192.1 384L166.7 384L123.4 427.3C120.4 430.3 116.3 432 112.1 432L48.1 432C39.3 432 32.1 424.8 32.1 416L32 224C32 215.2 39.2 208 48 208L112 208C116.2 208 120.3 209.7 123.3 212.7L166.6 256L192 256L192 96L176 96C167.2 96 160 88.8 160 80zM224 256L348.9 256L224 112.4L224 256zM224 384L224 535L349.8 384L224 384zM64 336L64 400L105.4 400L148.7 356.7C151.7 353.7 155.8 352 160 352L475.2 352C487.2 352 499.2 350.1 510.6 346.3L571.7 325.9C574.2 325.1 575.9 322.7 575.9 320C575.9 317.3 574.2 315 571.7 314.1L510.6 293.7C499.2 289.9 487.2 288 475.2 288L160 288C155.8 288 151.7 286.3 148.7 283.3L105.4 240L64 240L64 304L112 304C120.8 304 128 311.2 128 320C128 328.8 120.8 336 112 336L64 336z"/></svg>