<svg xmlns="http://www.w3.org/2000/svg" viewBox="0 0 640 640"><!--! Font Awesome Pro 7.1.0 by @fontawesome - https://fontawesome.com License - https://fontawesome.com/license (Commercial License) Copyright 2025 Fonticons, Inc. --><path fill="currentColor" d="M325.5 64C342.5 64 358.7 70.8 370.7 82.8L493.3 205.2C505.3 217.2 512 233.5 512 250.4L512 512C512 547.3 483.3 576 448 576L192 576C156.7 576 128 547.3 128 512L128 128C128 92.7 156.7 64 192 64L325.5 64zM192 96C174.3 96 160 110.3 160 128L160 512C160 529.7 174.3 544 192 544L448 544C465.7 544 480 529.7 480 512L480 256L384 256C348.7 256 320 227.3 320 192L320 96L192 96zM320 456C333.3 456 344 466.7 344 480C344 493.3 333.3 504 320 504C306.7 504 296 493.3 296 480C296 466.7 306.7 456 320 456zM320 280C333.6 280 344.3 291.6 343.4 305.1L336 409.1C335.4 417.5 328.4 424 320 424C311.6 424 304.6 417.5 304 409.1L296.6 305.1C295.6 291.5 306.4 280 320 280zM352 192C352 209.7 366.3 224 384 224L466.7 224L352 109.2L352 192z"/></svg>