<svg xmlns="http://www.w3.org/2000/svg" viewBox="0 0 640 640"><!--! Font Awesome Pro 7.1.0 by @fontawesome - https://fontawesome.com License - https://fontawesome.com/license (Commercial License) Copyright 2025 Fonticons, Inc. --><path fill="currentColor" d="M256 96L128 96C110.3 96 96 110.3 96 128L96 512C96 529.7 110.3 544 128 544L306.3 544C313.1 555.3 320.8 566 329.3 576L128 576C92.7 576 64 547.3 64 512L64 128C64 92.7 92.7 64 128 64L261.5 64C278.5 64 294.8 70.7 306.8 82.7L429.3 205.3C441.3 217.3 448 233.6 448 250.6L448 273.7C444.9 274.3 441.8 275.2 438.7 276.2L416 283.8L416 256.1L320 256.1C284.7 256.1 256 227.4 256 192.1L256 96.1zM402.7 224L288 109.3L288 192C288 209.7 302.3 224 320 224L402.7 224zM352 391.2L352 422.3C352 484.3 387.8 540.7 443.9 567.1L448 569L448 359.2L352 391.2zM464 576.1C464.3 576.1 464.6 576.1 464.8 576L463.1 576C463.4 576.1 463.7 576.1 463.9 576.1zM484.1 567C540.2 540.6 576 484.2 576 422.2L576 391.1L480 359.1L480 568.9L484.1 567zM448.7 604.7L430.2 596C363 564.3 320 496.6 320 422.2L320 391.1C320 377.3 328.8 365.1 341.9 360.7L453.9 323.4C460.5 321.2 467.6 321.2 474.1 323.4L586.1 360.7C599.2 365.1 608 377.3 608 391.1L608 422.2C608 496.6 565 564.3 497.8 595.9L479.3 604.6C474.5 606.8 469.3 608 464.1 608C458.9 608 453.6 606.8 448.9 604.6z"/></svg>