<svg xmlns="http://www.w3.org/2000/svg" viewBox="0 0 640 640"><!--! Font Awesome Pro 7.1.0 by @fontawesome - https://fontawesome.com License - https://fontawesome.com/license (Commercial License) Copyright 2025 Fonticons, Inc. --><path fill="currentColor" d="M320 96L192 96C174.3 96 160 110.3 160 128L160 512C160 529.7 174.3 544 192 544L448 544C465.7 544 480 529.7 480 512L480 256L384 256C348.7 256 320 227.3 320 192L320 96zM466.7 224L352 109.3L352 192C352 209.7 366.3 224 384 224L466.7 224zM128 128C128 92.7 156.7 64 192 64L325.5 64C342.5 64 358.8 70.7 370.8 82.7L493.3 205.3C505.3 217.3 512 233.6 512 250.6L512 512C512 547.3 483.3 576 448 576L192 576C156.7 576 128 547.3 128 512L128 128zM304 312C304 303.2 311.2 296 320 296C328.8 296 336 303.2 336 312L336 320L352 320C360.8 320 368 327.2 368 336C368 344.8 360.8 352 352 352L302.3 352C294.4 352 288 358.4 288 366.3C288 373.3 293.1 379.3 300 380.4L345.3 388C367.6 391.7 384 411 384 433.7C384 459.3 363.3 480 337.7 480L336 480L336 488C336 496.8 328.8 504 320 504C311.2 504 304 496.8 304 488L304 480L280 480C271.2 480 264 472.8 264 464C264 455.2 271.2 448 280 448L337.7 448C345.6 448 352 441.6 352 433.7C352 426.7 346.9 420.7 340 419.6L294.7 412C272.4 408.3 256 389 256 366.3C256 340.7 276.7 320 302.3 320L304 320L304 312zM208 160L272 160C280.8 160 288 167.2 288 176C288 184.8 280.8 192 272 192L208 192C199.2 192 192 184.8 192 176C192 167.2 199.2 160 208 160zM208 224L272 224C280.8 224 288 231.2 288 240C288 248.8 280.8 256 272 256L208 256C199.2 256 192 248.8 192 240C192 231.2 199.2 224 208 224z"/></svg>