<svg xmlns="http://www.w3.org/2000/svg" viewBox="0 0 640 640"><!--! Font Awesome Pro 7.1.0 by @fontawesome - https://fontawesome.com License - https://fontawesome.com/license (Commercial License) Copyright 2025 Fonticons, Inc. --><path fill="currentColor" d="M320 96L192 96C174.3 96 160 110.3 160 128L160 512C160 529.7 174.3 544 192 544L448 544C465.7 544 480 529.7 480 512L480 256L384 256C348.7 256 320 227.3 320 192L320 96zM466.7 224L352 109.3L352 192C352 209.7 366.3 224 384 224L466.7 224zM128 128C128 92.7 156.7 64 192 64L325.5 64C342.5 64 358.8 70.7 370.8 82.7L493.3 205.3C505.3 217.3 512 233.6 512 250.6L512 512C512 547.3 483.3 576 448 576L192 576C156.7 576 128 547.3 128 512L128 128zM192 144C192 135.2 199.2 128 208 128L272 128C280.8 128 288 135.2 288 144C288 152.8 280.8 160 272 160L208 160C199.2 160 192 152.8 192 144zM192 208C192 199.2 199.2 192 208 192L272 192C280.8 192 288 199.2 288 208C288 216.8 280.8 224 272 224L208 224C199.2 224 192 216.8 192 208zM224 288L224 336C224 344.8 231.2 352 240 352C248.8 352 256 344.8 256 336L256 288L224 288zM224 256L256 256C273.7 256 288 270.3 288 288L288 336C288 362.5 266.5 384 240 384C213.5 384 192 362.5 192 336L192 288C192 270.3 206.3 256 224 256z"/></svg>