<svg xmlns="http://www.w3.org/2000/svg" viewBox="0 0 640 640"><!--! Font Awesome Pro 7.1.0 by @fontawesome - https://fontawesome.com License - https://fontawesome.com/license (Commercial License) Copyright 2025 Fonticons, Inc. --><path fill="currentColor" d="M256 96L128 96C110.3 96 96 110.3 96 128L96 512C96 529.7 110.3 544 128 544L176 544L176 576L128 576C92.7 576 64 547.3 64 512L64 128C64 92.7 92.7 64 128 64L261.5 64C278.5 64 294.8 70.7 306.8 82.7L429.3 205.3C441.3 217.3 448 233.6 448 250.6L448 400.1L416 400.1L416 256.1L320 256.1C284.7 256.1 256 227.4 256 192.1L256 96.1zM402.7 224L288 109.3L288 192C288 209.7 302.3 224 320 224L402.7 224zM400 448L432 448C462.9 448 488 473.1 488 504C488 534.9 462.9 560 432 560L416 560L416 592C416 600.8 408.8 608 400 608C391.2 608 384 600.8 384 592L384 464C384 455.2 391.2 448 400 448zM432 528C445.3 528 456 517.3 456 504C456 490.7 445.3 480 432 480L416 480L416 528L432 528zM253.7 455.8L288 512.9L322.3 455.8C326 449.6 333.4 446.7 340.3 448.6C347.2 450.5 352 456.8 352 464L352 592C352 600.8 344.8 608 336 608C327.2 608 320 600.8 320 592L320 521.8L301.7 552.3C298.8 557.1 293.6 560.1 288 560.1C282.4 560.1 277.2 557.1 274.3 552.3L256 521.8L256 592C256 600.8 248.8 608 240 608C231.2 608 224 600.8 224 592L224 464C224 456.8 228.8 450.5 235.7 448.6C242.6 446.7 250 449.6 253.7 455.8zM608 560C608 586.5 586.5 608 560 608L528 608C519.2 608 512 600.8 512 592C512 583.2 519.2 576 528 576L560 576C568.8 576 576 568.8 576 560C576 551.2 568.8 544 560 544L536 544C527.2 544 520 536.8 520 528C520 519.2 527.2 512 536 512L560 512C568.8 512 576 504.8 576 496C576 487.2 568.8 480 560 480L528 480C519.2 480 512 472.8 512 464C512 455.2 519.2 448 528 448L560 448C586.5 448 608 469.5 608 496C608 508.3 603.4 519.5 595.8 528C603.4 536.5 608 547.7 608 560z"/></svg>