<svg xmlns="http://www.w3.org/2000/svg" viewBox="0 0 640 640"><!--! Font Awesome Pro 7.1.0 by @fontawesome - https://fontawesome.com License - https://fontawesome.com/license (Commercial License) Copyright 2025 Fonticons, Inc. --><path fill="currentColor" d="M256 96L128 96C110.3 96 96 110.3 96 128L96 512C96 529.7 110.3 544 128 544L176 544L176 576L128 576C92.7 576 64 547.3 64 512L64 128C64 92.7 92.7 64 128 64L261.5 64C278.5 64 294.8 70.7 306.8 82.7L429.3 205.3C441.3 217.3 448 233.6 448 250.6L448 400.1L416 400.1L416 256.1L320 256.1C284.7 256.1 256 227.4 256 192.1L256 96.1zM402.7 224L288 109.3L288 192C288 209.7 302.3 224 320 224L402.7 224zM424 448L440 448C462.1 448 480 465.9 480 488L480 568C480 590.1 462.1 608 440 608L424 608C401.9 608 384 590.1 384 568L384 488C384 465.9 401.9 448 424 448zM416 488L416 568C416 572.4 419.6 576 424 576L440 576C444.4 576 448 572.4 448 568L448 488C448 483.6 444.4 480 440 480L424 480C419.6 480 416 483.6 416 488zM253.7 455.8L288 512.9L322.3 455.8C326 449.6 333.4 446.7 340.3 448.6C347.2 450.5 352 456.8 352 464L352 592C352 600.8 344.8 608 336 608C327.2 608 320 600.8 320 592L320 521.8L301.7 552.3C298.8 557.1 293.6 560.1 288 560.1C282.4 560.1 277.2 557.1 274.3 552.3L256 521.8L256 592C256 600.8 248.8 608 240 608C231.2 608 224 600.8 224 592L224 464C224 456.8 228.8 450.5 235.7 448.6C242.6 446.7 250 449.6 253.7 455.8zM528 448C536.8 448 544 455.2 544 464L544 495.6C544 518.6 549.5 541.2 560 561.6C570.5 541.3 576 518.7 576 495.6L576 464C576 455.2 583.2 448 592 448C600.8 448 608 455.2 608 464L608 495.6C608 530.3 597.7 564.3 578.4 593.2L573.3 600.9C570.3 605.4 565.3 608 560 608C554.7 608 549.7 605.3 546.7 600.9L541.6 593.2C522.3 564.3 512 530.3 512 495.6L512 464C512 455.2 519.2 448 528 448z"/></svg>