<svg xmlns="http://www.w3.org/2000/svg" viewBox="0 0 640 640"><!--! Font Awesome Pro 7.1.0 by @fontawesome - https://fontawesome.com License - https://fontawesome.com/license (Commercial License) Copyright 2025 Fonticons, Inc. --><path fill="currentColor" d="M192 96L320 96L320 192C320 227.3 348.7 256 384 256L480 256L480 512C480 529.7 465.7 544 448 544L192 544C174.3 544 160 529.7 160 512L160 128C160 110.3 174.3 96 192 96zM352 109.3L466.7 224L384 224C366.3 224 352 209.7 352 192L352 109.3zM192 64C156.7 64 128 92.7 128 128L128 512C128 547.3 156.7 576 192 576L448 576C483.3 576 512 547.3 512 512L512 250.5C512 233.5 505.3 217.2 493.3 205.2L370.7 82.7C358.7 70.7 342.5 64 325.5 64L192 64zM304 304C286.3 304 272 318.3 272 336L272 352L256 352C238.3 352 224 366.3 224 384L224 416C224 433.7 238.3 448 256 448L272 448L272 464C272 481.7 286.3 496 304 496L336 496C353.7 496 368 481.7 368 464L368 448L384 448C401.7 448 416 433.7 416 416L416 384C416 366.3 401.7 352 384 352L368 352L368 336C368 318.3 353.7 304 336 304L304 304zM336 440L336 464L304 464L304 424C304 419.6 300.4 416 296 416L256 416L256 384L296 384C300.4 384 304 380.4 304 376L304 336L336 336L336 376C336 380.4 339.6 384 344 384L384 384L384 416L344 416C339.6 416 336 419.6 336 424L336 440z"/></svg>