<svg xmlns="http://www.w3.org/2000/svg" viewBox="0 0 640 640"><!--! Font Awesome Pro 7.1.0 by @fontawesome - https://fontawesome.com License - https://fontawesome.com/license (Commercial License) Copyright 2025 Fonticons, Inc. --><path fill="currentColor" d="M192 96L320 96L320 192C320 227.3 348.7 256 384 256L480 256L480 512C480 529.7 465.7 544 448 544L192 544C174.3 544 160 529.7 160 512L160 128C160 110.3 174.3 96 192 96zM352 109.3L466.7 224L384 224C366.3 224 352 209.7 352 192L352 109.3zM192 64C156.7 64 128 92.7 128 128L128 512C128 547.3 156.7 576 192 576L448 576C483.3 576 512 547.3 512 512L512 250.5C512 233.5 505.3 217.2 493.3 205.2L370.7 82.7C358.7 70.7 342.5 64 325.5 64L192 64zM248 288C225.9 288 208 305.9 208 328C208 347.4 221.7 363.5 240 367.2L240 432.8C221.7 436.5 208 452.6 208 472C208 494.1 225.9 512 248 512C267.4 512 283.5 498.3 287.2 480L352.8 480C356.5 498.3 372.6 512 392 512C414.1 512 432 494.1 432 472C432 452.6 418.3 436.5 400 432.8L400 367.2C418.3 363.5 432 347.4 432 328C432 305.9 414.1 288 392 288C372.6 288 356.5 301.7 352.8 320L287.2 320C283.5 301.7 267.4 288 248 288zM360 448L280 448C277.7 445 275 442.3 272 440L272 360C275 357.7 277.7 355 280 352L360 352C362.3 355 365 357.7 368 360L368 440C365 442.3 362.3 445 360 448zM248 316C254.6 316 260 321.4 260 328C260 334.6 254.6 340 248 340C241.4 340 236 334.6 236 328C236 321.4 241.4 316 248 316zM380 328C380 321.4 385.4 316 392 316C398.6 316 404 321.4 404 328C404 334.6 398.6 340 392 340C385.4 340 380 334.6 380 328zM248 484C241.4 484 236 478.6 236 472C236 465.4 241.4 460 248 460C254.6 460 260 465.4 260 472C260 478.6 254.6 484 248 484zM404 472C404 478.6 398.6 484 392 484C385.4 484 380 478.6 380 472C380 465.4 385.4 460 392 460C398.6 460 404 465.4 404 472z"/></svg>