<svg xmlns="http://www.w3.org/2000/svg" viewBox="0 0 640 640"><!--! Font Awesome Pro 7.1.0 by @fontawesome - https://fontawesome.com License - https://fontawesome.com/license (Commercial License) Copyright 2025 Fonticons, Inc. --><path fill="currentColor" d="M256 96L128 96C110.3 96 96 110.3 96 128L96 512C96 529.7 110.3 544 128 544L272 544L272 576L128 576C92.7 576 64 547.3 64 512L64 128C64 92.7 92.7 64 128 64L261.5 64C278.5 64 294.8 70.7 306.8 82.7L429.3 205.3C441.3 217.3 448 233.6 448 250.6L448 400.1L416 400.1L416 256.1L320 256.1C284.7 256.1 256 227.4 256 192.1L256 96.1zM402.7 224L288 109.3L288 192C288 209.7 302.3 224 320 224L402.7 224zM336 448L400 448C405.5 448 410.7 450.9 413.6 455.6C416.5 460.3 416.8 466.2 414.3 471.2L361.9 576L400 576C408.8 576 416 583.2 416 592C416 600.8 408.8 608 400 608L336 608C330.5 608 325.3 605.1 322.4 600.4C319.5 595.7 319.2 589.8 321.7 584.8L374.1 480L336 480C327.2 480 320 472.8 320 464C320 455.2 327.2 448 336 448zM480 464L480 592C480 600.8 472.8 608 464 608C455.2 608 448 600.8 448 592L448 464C448 455.2 455.2 448 464 448C472.8 448 480 455.2 480 464zM512 464C512 455.2 519.2 448 528 448L560 448C590.9 448 616 473.1 616 504C616 534.9 590.9 560 560 560L544 560L544 592C544 600.8 536.8 608 528 608C519.2 608 512 600.8 512 592L512 464zM544 528L560 528C573.3 528 584 517.3 584 504C584 490.7 573.3 480 560 480L544 480L544 528z"/></svg>