<svg xmlns="http://www.w3.org/2000/svg" viewBox="0 0 640 640"><!--! Font Awesome Pro 7.1.0 by @fontawesome - https://fontawesome.com License - https://fontawesome.com/license (Commercial License) Copyright 2025 Fonticons, Inc. --><path fill="currentColor" d="M352 96L224 96C206.3 96 192 110.3 192 128L192 384L240 384C245 384 249.8 386.4 252.8 390.4L285.3 433.7L337.7 328.9C340.4 323.5 345.9 320.1 352 320.1C358.1 320.1 363.6 323.5 366.3 328.9L393.9 384.1L448 384.1C456.8 384.1 464 391.3 464 400.1C464 408.9 456.8 416.1 448 416.1L384 416.1C377.9 416.1 372.4 412.7 369.7 407.3L352 371.9L302.3 471.3C299.8 476.3 294.9 479.6 289.4 480.1C283.9 480.6 278.5 478.2 275.2 473.8L232 416L112 416C103.2 416 96 408.8 96 400C96 391.2 103.2 384 112 384L160 384L160 128C160 92.7 188.7 64 224 64L357.5 64C374.5 64 390.8 70.7 402.8 82.7L525.3 205.3C537.3 217.3 544 233.6 544 250.6L544 512C544 547.3 515.3 576 480 576L224 576C188.7 576 160 547.3 160 512L160 464L192 464L192 512C192 529.7 206.3 544 224 544L480 544C497.7 544 512 529.7 512 512L512 256L416 256C380.7 256 352 227.3 352 192L352 96zM498.7 224L384 109.3L384 192C384 209.7 398.3 224 416 224L498.7 224z"/></svg>