<svg xmlns="http://www.w3.org/2000/svg" viewBox="0 0 640 640"><!--! Font Awesome Pro 7.1.0 by @fontawesome - https://fontawesome.com License - https://fontawesome.com/license (Commercial License) Copyright 2025 Fonticons, Inc. --><path fill="currentColor" d="M192 96L320 96L320 192C320 227.3 348.7 256 384 256L480 256L480 512C480 529.7 465.7 544 448 544L192 544C174.3 544 160 529.7 160 512L160 128C160 110.3 174.3 96 192 96zM352 109.3L466.7 224L384 224C366.3 224 352 209.7 352 192L352 109.3zM192 64C156.7 64 128 92.7 128 128L128 512C128 547.3 156.7 576 192 576L448 576C483.3 576 512 547.3 512 512L512 250.5C512 233.5 505.3 217.2 493.3 205.2L370.7 82.7C358.7 70.7 342.5 64 325.5 64L192 64zM288 352C288 334.3 302.3 320 320 320C337.7 320 352 334.3 352 352C352 369.7 337.7 384 320 384C302.3 384 288 369.7 288 352zM384 352C384 316.7 355.3 288 320 288C284.7 288 256 316.7 256 352C256 387.3 284.7 416 320 416C355.3 416 384 387.3 384 352zM230.6 512C237.9 512 244.1 507.2 248.2 501.2C256.8 488.4 271.4 480 288 480L352 480C368.6 480 383.2 488.4 391.8 501.2C395.9 507.2 402.1 512 409.4 512C420.3 512 428.4 501.9 423.6 492.2C410.5 466 383.4 448 352 448L288 448C256.7 448 229.6 466 216.4 492.2C211.5 501.9 219.7 512 230.6 512z"/></svg>