<svg xmlns="http://www.w3.org/2000/svg" viewBox="0 0 640 640"><!--! Font Awesome Pro 7.1.0 by @fontawesome - https://fontawesome.com License - https://fontawesome.com/license (Commercial License) Copyright 2025 Fonticons, Inc. --><path fill="currentColor" d="M256 96L128 96C110.3 96 96 110.3 96 128L96 512C96 529.7 110.3 544 128 544L289.4 544C294.6 555.3 300.8 566 308 576L128 576C92.7 576 64 547.3 64 512L64 128C64 92.7 92.7 64 128 64L261.5 64C278.5 64 294.8 70.7 306.8 82.7L429.3 205.3C441.3 217.3 448 233.6 448 250.6L448 272.7C437 273.6 426.4 275.4 416 278.1L416 256.1L320 256.1C284.7 256.1 256 227.4 256 192.1L256 96.1zM402.7 224L288 109.3L288 192C288 209.7 302.3 224 320 224L402.7 224zM576 464C576 402.1 525.9 352 464 352C402.1 352 352 402.1 352 464C352 525.9 402.1 576 464 576C525.9 576 576 525.9 576 464zM320 464C320 384.5 384.5 320 464 320C543.5 320 608 384.5 608 464C608 543.5 543.5 608 464 608C384.5 608 320 543.5 320 464zM464 508C475 508 484 517 484 528C484 539 475 548 464 548C453 548 444 539 444 528C444 517 453 508 464 508zM464 408C452.4 408 442.7 416.2 440.5 427.2C438.7 435.9 430.3 441.5 421.6 439.7C412.9 437.9 407.3 429.5 409.1 420.8C414.3 395.2 436.9 376 464 376C494.9 376 520 401.1 520 432C520 451.8 508.3 469.8 490.2 477.9L479.8 482.5C478.6 490.2 472 496 464 496C455.2 496 448 488.8 448 480C448 468.8 454.6 458.7 464.8 454.1L477.2 448.6C483.8 445.7 488 439.2 488 432C488 418.7 477.3 408 464 408z"/></svg>