<svg xmlns="http://www.w3.org/2000/svg" viewBox="0 0 640 640"><!--! Font Awesome Pro 7.1.0 by @fontawesome - https://fontawesome.com License - https://fontawesome.com/license (Commercial License) Copyright 2025 Fonticons, Inc. --><path fill="currentColor" d="M192 96L320 96L320 192C320 227.3 348.7 256 384 256L480 256L480 512C480 529.7 465.7 544 448 544L192 544C174.3 544 160 529.7 160 512L160 128C160 110.3 174.3 96 192 96zM352 109.3L466.7 224L384 224C366.3 224 352 209.7 352 192L352 109.3zM192 64C156.7 64 128 92.7 128 128L128 512C128 547.3 156.7 576 192 576L448 576C483.3 576 512 547.3 512 512L512 250.5C512 233.5 505.3 217.2 493.3 205.2L370.7 82.7C358.7 70.7 342.5 64 325.5 64L192 64zM224 320C206.3 320 192 334.3 192 352L192 480C192 497.7 206.3 512 224 512L416 512C433.7 512 448 497.7 448 480L448 352C448 334.3 433.7 320 416 320L224 320zM304 352L304 400L224 400L224 352L304 352zM304 432L304 480L224 480L224 432L304 432zM336 480L336 432L416 432L416 480L336 480zM336 400L336 352L416 352L416 400L336 400z"/></svg>