<svg xmlns="http://www.w3.org/2000/svg" viewBox="0 0 640 640"><!--! Font Awesome Pro 7.1.0 by @fontawesome - https://fontawesome.com License - https://fontawesome.com/license (Commercial License) Copyright 2025 Fonticons, Inc. --><path fill="currentColor" d="M312 448C334.1 448 352 465.9 352 488L352 568C352 590.1 334.1 608 312 608L296 608C273.9 608 256 590.1 256 568L256 488C256 465.9 273.9 448 296 448L312 448zM432 448C458.5 448 480 469.5 480 496L480 560C480 586.5 458.5 608 432 608L400 608C391.2 608 384 600.8 384 592L384 464L384.3 460.8C385.8 453.5 392.3 448 400 448L432 448zM576 448C584.8 448 592 455.2 592 464C592 472.8 584.8 480 576 480L544 480L544 512L576 512C584.8 512 592 519.2 592 528C592 536.8 584.8 544 576 544L544 544L544 592C544 600.8 536.8 608 528 608C519.2 608 512 600.8 512 592L512 464L512.3 460.8C513.8 453.5 520.3 448 528 448L576 448zM267.8 64.3C282.5 65.8 296.2 72.2 306.7 82.7L429.3 205.2C441.3 217.2 448 233.5 448 250.4L448 399.9L416 399.9L416 255.9L320 255.9C284.7 255.9 256 227.2 256 191.9L256 95.9L128 95.9C110.3 96 96 110.3 96 128L96 512C96 529.7 110.3 544 128 544L208 544L208 576L128 576L121.5 575.7C89.2 572.4 64 545.1 64 512L64 128C64 94.9 89.2 67.6 121.5 64.3L128 64L261.5 64L267.8 64.3zM296 480C291.6 480 288 483.6 288 488L288 568C288 572.4 291.6 576 296 576L312 576C316.4 576 320 572.4 320 568L320 488C320 483.6 316.4 480 312 480L296 480zM416 576L432 576C440.8 576 448 568.8 448 560L448 496C448 487.2 440.8 480 432 480L416 480L416 576zM288 192C288 209.7 302.3 224 320 224L402.7 224L288 109.2L288 192z"/></svg>