<svg xmlns="http://www.w3.org/2000/svg" viewBox="0 0 640 640"><!--! Font Awesome Pro 7.1.0 by @fontawesome - https://fontawesome.com License - https://fontawesome.com/license (Commercial License) Copyright 2025 Fonticons, Inc. --><path fill="currentColor" d="M256 96L128 96C110.3 96 96 110.3 96 128L96 512C96 529.7 110.3 544 128 544L208 544L208 576L128 576C92.7 576 64 547.3 64 512L64 128C64 92.7 92.7 64 128 64L261.5 64C278.5 64 294.8 70.7 306.8 82.7L429.3 205.3C441.3 217.3 448 233.6 448 250.6L448 400.1L416 400.1L416 256.1L320 256.1C284.7 256.1 256 227.4 256 192.1L256 96.1zM402.7 224L288 109.3L288 192C288 209.7 302.3 224 320 224L402.7 224zM544 592L544 464C544 455.2 551.2 448 560 448C568.8 448 576 455.2 576 464L576 576L592 576C600.8 576 608 583.2 608 592C608 600.8 600.8 608 592 608L560 608C551.2 608 544 600.8 544 592zM413.7 455.8L448 512.9L482.3 455.8C486 449.6 493.4 446.7 500.3 448.6C507.2 450.5 512 456.8 512 464L512 592C512 600.8 504.8 608 496 608C487.2 608 480 600.8 480 592L480 521.8L461.7 552.3C458.8 557.1 453.6 560.1 448 560.1C442.4 560.1 437.2 557.1 434.3 552.3L416 521.8L416 592C416 600.8 408.8 608 400 608C391.2 608 384 600.8 384 592L384 464C384 456.8 388.8 450.5 395.7 448.6C402.6 446.7 410 449.6 413.7 455.8zM288 464C288 471.3 290.2 478.4 294.2 484.4L304 499.1L313.8 484.4C317.8 478.3 320 471.2 320 464C320 455.2 327.2 448 336 448C344.8 448 352 455.2 352 464C352 477.6 348 490.9 340.4 502.2L323.2 528L340.4 553.8C347.9 565.1 352 578.4 352 592C352 600.8 344.8 608 336 608C327.2 608 320 600.8 320 592C320 584.7 317.8 577.6 313.8 571.6L304 556.9L294.2 571.6C290.2 577.7 288 584.8 288 592C288 600.8 280.8 608 272 608C263.2 608 256 600.8 256 592C256 578.4 260 565.1 267.6 553.8L284.8 528L267.6 502.2C260.1 490.9 256 477.6 256 464C256 455.2 263.2 448 272 448C280.8 448 288 455.2 288 464z"/></svg>