<svg xmlns="http://www.w3.org/2000/svg" viewBox="0 0 640 640"><!--! Font Awesome Pro 7.1.0 by @fontawesome - https://fontawesome.com License - https://fontawesome.com/license (Commercial License) Copyright 2025 Fonticons, Inc. --><path fill="currentColor" d="M192 96L320 96L320 192C320 227.3 348.7 256 384 256L480 256L480 512C480 529.7 465.7 544 448 544L192 544C174.3 544 160 529.7 160 512L160 128C160 110.3 174.3 96 192 96zM352 109.3L466.7 224L384 224C366.3 224 352 209.7 352 192L352 109.3zM192 64C156.7 64 128 92.7 128 128L128 512C128 547.3 156.7 576 192 576L448 576C483.3 576 512 547.3 512 512L512 250.5C512 233.5 505.3 217.2 493.3 205.2L370.7 82.7C358.7 70.7 342.5 64 325.5 64L192 64zM252.7 332.7C246.5 338.9 246.5 349.1 252.7 355.3L297.4 400L252.7 444.7C246.5 450.9 246.5 461.1 252.7 467.3C258.9 473.5 269.1 473.5 275.3 467.3L320 422.6L364.7 467.3C370.9 473.5 381.1 473.5 387.3 467.3C393.5 461.1 393.5 450.9 387.3 444.7L342.6 400L387.3 355.3C393.5 349.1 393.5 338.9 387.3 332.7C381.1 326.5 370.9 326.5 364.7 332.7L320 377.4L275.3 332.7C269.1 326.5 258.9 326.5 252.7 332.7z"/></svg>