<svg xmlns="http://www.w3.org/2000/svg" viewBox="0 0 640 640"><!--! Font Awesome Pro 7.1.0 by @fontawesome - https://fontawesome.com License - https://fontawesome.com/license (Commercial License) Copyright 2025 Fonticons, Inc. --><path fill="currentColor" d="M256 96L128 96C110.3 96 96 110.3 96 128L96 512C96 529.7 110.3 544 128 544L208 544L208 576L128 576C92.7 576 64 547.3 64 512L64 128C64 92.7 92.7 64 128 64L261.5 64C278.5 64 294.8 70.7 306.8 82.7L429.3 205.3C441.3 217.3 448 233.6 448 250.6L448 400.1L416 400.1L416 256.1L320 256.1C284.7 256.1 256 227.4 256 192.1L256 96.1zM402.7 224L288 109.3L288 192C288 209.7 302.3 224 320 224L402.7 224zM296 448L312 448C334.1 448 352 465.9 352 488L352 496C352 504.8 344.8 512 336 512C327.2 512 320 504.8 320 496L320 488C320 483.6 316.4 480 312 480L296 480C291.6 480 288 483.6 288 488L288 568C288 572.4 291.6 576 296 576L312 576C316.4 576 320 572.4 320 568L320 560C320 551.2 327.2 544 336 544C344.8 544 352 551.2 352 560L352 568C352 590.1 334.1 608 312 608L296 608C273.9 608 256 590.1 256 568L256 488C256 465.9 273.9 448 296 448zM424 448L440 448C462.1 448 480 465.9 480 488L480 592C480 600.8 472.8 608 464 608C455.2 608 448 600.8 448 592L448 560L416 560L416 592C416 600.8 408.8 608 400 608C391.2 608 384 600.8 384 592L384 488C384 465.9 401.9 448 424 448zM448 528L448 488C448 483.6 444.4 480 440 480L424 480C419.6 480 416 483.6 416 488L416 528L448 528zM512 464C512 455.2 519.2 448 528 448L560 448C586.5 448 608 469.5 608 496L608 560C608 586.5 586.5 608 560 608L528 608C519.2 608 512 600.8 512 592L512 464zM544 576L560 576C568.8 576 576 568.8 576 560L576 496C576 487.2 568.8 480 560 480L544 480L544 576z"/></svg>