<svg xmlns="http://www.w3.org/2000/svg" viewBox="0 0 640 640"><!--! Font Awesome Pro 7.1.0 by @fontawesome - https://fontawesome.com License - https://fontawesome.com/license (Commercial License) Copyright 2025 Fonticons, Inc. --><path fill="currentColor" d="M320 96L192 96C174.3 96 160 110.3 160 128L160 336L128 336L128 128C128 92.7 156.7 64 192 64L325.5 64C342.5 64 358.8 70.7 370.8 82.7L493.3 205.3C505.3 217.3 512 233.6 512 250.6L512 512C512 547.3 483.3 576 448 576L368 576L368 544L448 544C465.7 544 480 529.7 480 512L480 256L384 256C348.7 256 320 227.3 320 192L320 96zM466.7 224L352 109.3L352 192C352 209.7 366.3 224 384 224L466.7 224zM160 416L160 544L288 544L288 416L160 416zM128 416C128 398.3 142.3 384 160 384L288 384C305.7 384 320 398.3 320 416L320 544C320 561.7 305.7 576 288 576L160 576C142.3 576 128 561.7 128 544L128 416z"/></svg>