<svg xmlns="http://www.w3.org/2000/svg" viewBox="0 0 640 640"><!--! Font Awesome Pro 7.1.0 by @fontawesome - https://fontawesome.com License - https://fontawesome.com/license (Commercial License) Copyright 2025 Fonticons, Inc. --><path fill="currentColor" d="M192 96L320 96L320 192C320 227.3 348.7 256 384 256L480 256L480 512C480 529.7 465.7 544 448 544L192 544C174.3 544 160 529.7 160 512L160 128C160 110.3 174.3 96 192 96zM352 109.3L466.7 224L384 224C366.3 224 352 209.7 352 192L352 109.3zM192 64C156.7 64 128 92.7 128 128L128 512C128 547.3 156.7 576 192 576L448 576C483.3 576 512 547.3 512 512L512 250.5C512 233.5 505.3 217.2 493.3 205.2L370.7 82.7C358.7 70.7 342.5 64 325.5 64L192 64zM240 288C231.2 288 224 295.2 224 304L224 448C224 456.8 231.2 464 240 464C248.8 464 256 456.8 256 448L256 400L266 400L325.4 452L292.7 484.7C286.5 490.9 286.5 501.1 292.7 507.3C298.9 513.5 309.1 513.5 315.3 507.3L349.5 473.1L389.4 508C396.1 513.8 406.2 513.1 412 506.5C417.8 499.9 417.1 489.7 410.5 483.9L372.2 450.4L411.3 411.3C417.5 405.1 417.5 394.9 411.3 388.7C405.1 382.5 394.9 382.5 388.7 388.7L348.1 429.3L312 397.7C335.2 390.8 352.1 369.4 352.1 344C352.1 313.1 327 288 296.1 288L240.1 288zM272 368L256 368L256 320L296 320C309.3 320 320 330.7 320 344C320 357.3 309.3 368 296 368L272 368z"/></svg>