<svg xmlns="http://www.w3.org/2000/svg" viewBox="0 0 640 640"><!--! Font Awesome Pro 7.1.0 by @fontawesome - https://fontawesome.com License - https://fontawesome.com/license (Commercial License) Copyright 2025 Fonticons, Inc. --><path fill="currentColor" d="M320 96L192 96C174.3 96 160 110.3 160 128L160 304L128 304L128 128C128 92.7 156.7 64 192 64L325.5 64C342.5 64 358.8 70.7 370.8 82.7L493.3 205.3C505.3 217.3 512 233.6 512 250.6L512 304.1L480 304.1L480 256.1L384 256.1C348.7 256.1 320 227.4 320 192.1L320 96.1zM128 432L160 432L160 512C160 529.7 174.3 544 192 544L448 544C465.7 544 480 529.7 480 512L480 432L512 432L512 512C512 547.3 483.3 576 448 576L192 576C156.7 576 128 547.3 128 512L128 432zM466.7 224L352 109.3L352 192C352 209.7 366.3 224 384 224L466.7 224zM48 352L176 352C184.8 352 192 359.2 192 368C192 376.8 184.8 384 176 384L48 384C39.2 384 32 376.8 32 368C32 359.2 39.2 352 48 352zM256 352L384 352C392.8 352 400 359.2 400 368C400 376.8 392.8 384 384 384L256 384C247.2 384 240 376.8 240 368C240 359.2 247.2 352 256 352zM464 352L592 352C600.8 352 608 359.2 608 368C608 376.8 600.8 384 592 384L464 384C455.2 384 448 376.8 448 368C448 359.2 455.2 352 464 352z"/></svg>