<svg xmlns="http://www.w3.org/2000/svg" viewBox="0 0 640 640"><!--! Font Awesome Pro 7.1.0 by @fontawesome - https://fontawesome.com License - https://fontawesome.com/license (Commercial License) Copyright 2025 Fonticons, Inc. --><path fill="currentColor" d="M256 96L128 96C110.3 96 96 110.3 96 128L96 512C96 529.7 110.3 544 128 544L208 544L208 576L128 576C92.7 576 64 547.3 64 512L64 128C64 92.7 92.7 64 128 64L261.5 64C278.5 64 294.8 70.7 306.8 82.7L429.3 205.3C441.3 217.3 448 233.6 448 250.6L448 400.1L416 400.1L416 256.1L320 256.1C284.7 256.1 256 227.4 256 192.1L256 96.1zM402.7 224L288 109.3L288 192C288 209.7 302.3 224 320 224L402.7 224zM296 448L312 448C334.1 448 352 465.9 352 488L352 496C352 504.8 344.8 512 336 512C327.2 512 320 504.8 320 496L320 488C320 483.6 316.4 480 312 480L296 480C291.6 480 288 483.6 288 488L288 568C288 572.4 291.6 576 296 576L312 576C316.4 576 320 572.4 320 568L320 560C320 551.2 327.2 544 336 544C344.8 544 352 551.2 352 560L352 568C352 590.1 334.1 608 312 608L296 608C273.9 608 256 590.1 256 568L256 488C256 465.9 273.9 448 296 448zM429.7 448L456 448C464.8 448 472 455.2 472 464C472 472.8 464.8 480 456 480L429.7 480C422.2 480 416 486.1 416 493.7C416 498.9 418.9 503.6 423.6 505.9L454.8 521.5C470.3 529.2 480 545 480 562.3C480 587.5 459.6 608 434.3 608L400 608C391.2 608 384 600.8 384 592C384 583.2 391.2 576 400 576L434.3 576C441.8 576 448 569.9 448 562.3C448 557.1 445.1 552.4 440.4 550.1L409.2 534.5C393.7 526.8 384 511 384 493.7C384 468.5 404.4 448 429.7 448zM528 448C536.8 448 544 455.2 544 464L544 495.6C544 518.6 549.5 541.2 560 561.6C570.5 541.3 576 518.7 576 495.6L576 464C576 455.2 583.2 448 592 448C600.8 448 608 455.2 608 464L608 495.6C608 530.3 597.7 564.3 578.4 593.2L573.3 600.9C570.3 605.4 565.3 608 560 608C554.7 608 549.7 605.3 546.7 600.9L541.6 593.2C522.3 564.3 512 530.3 512 495.6L512 464C512 455.2 519.2 448 528 448z"/></svg>