<svg xmlns="http://www.w3.org/2000/svg" viewBox="0 0 640 640"><!--! Font Awesome Pro 7.1.0 by @fontawesome - https://fontawesome.com License - https://fontawesome.com/license (Commercial License) Copyright 2025 Fonticons, Inc. --><path fill="currentColor" d="M256 96C238.3 96 224 110.3 224 128L224 448C224 465.7 238.3 480 256 480L480 480C497.7 480 512 465.7 512 448L512 240L432 240C396.7 240 368 211.3 368 176L368 96L256 96zM400 176C400 193.7 414.3 208 432 208L498.7 208L400 109.3L400 176zM192 128C192 92.7 220.7 64 256 64L373.5 64C390.5 64 406.8 70.7 418.8 82.7L525.3 189.3C537.3 201.3 544 217.6 544 234.6L544 448C544 483.3 515.3 512 480 512L256 512C220.7 512 192 483.3 192 448L192 128zM128 176L128 544C128 561.7 142.3 576 160 576L432 576C440.8 576 448 583.2 448 592C448 600.8 440.8 608 432 608L160 608C124.7 608 96 579.3 96 544L96 176C96 167.2 103.2 160 112 160C120.8 160 128 167.2 128 176zM352 256L384 256C401.7 256 416 270.3 416 288L416 304L432 304C449.7 304 464 318.3 464 336L464 368C464 385.7 449.7 400 432 400L416 400L416 416C416 433.7 401.7 448 384 448L352 448C334.3 448 320 433.7 320 416L320 400L304 400C286.3 400 272 385.7 272 368L272 336C272 318.3 286.3 304 304 304L320 304L320 288C320 270.3 334.3 256 352 256zM384 392L384 376C384 371.6 387.6 368 392 368L432 368L432 336L392 336C387.6 336 384 332.4 384 328L384 288L352 288L352 328C352 332.4 348.4 336 344 336L304 336L304 368L344 368C348.4 368 352 371.6 352 376L352 416L384 416L384 392z"/></svg>