<svg xmlns="http://www.w3.org/2000/svg" viewBox="0 0 640 640"><!--! Font Awesome Pro 7.1.0 by @fontawesome - https://fontawesome.com License - https://fontawesome.com/license (Commercial License) Copyright 2025 Fonticons, Inc. --><path fill="currentColor" d="M256 96L128 96C110.3 96 96 110.3 96 128L96 512C96 529.7 110.3 544 128 544L208 544L208 576L128 576C92.7 576 64 547.3 64 512L64 128C64 92.7 92.7 64 128 64L261.5 64C278.5 64 294.8 70.7 306.8 82.7L429.3 205.3C441.3 217.3 448 233.6 448 250.6L448 400.1L416 400.1L416 256.1L320 256.1C284.7 256.1 256 227.4 256 192.1L256 96.1zM402.7 224L288 109.3L288 192C288 209.7 302.3 224 320 224L402.7 224zM272 448L336 448C344.8 448 352 455.2 352 464C352 472.8 344.8 480 336 480L288 480L288 512L320 512C328.8 512 336 519.2 336 528C336 536.8 328.8 544 320 544L288 544L288 576L336 576C344.8 576 352 583.2 352 592C352 600.8 344.8 608 336 608L272 608C263.2 608 256 600.8 256 592L256 464C256 455.2 263.2 448 272 448zM400 448L432 448C462.9 448 488 473.1 488 504C488 534.9 462.9 560 432 560L416 560L416 592C416 600.8 408.8 608 400 608C391.2 608 384 600.8 384 592L384 464C384 455.2 391.2 448 400 448zM432 528C445.3 528 456 517.3 456 504C456 490.7 445.3 480 432 480L416 480L416 528L432 528zM512 493.7C512 468.5 532.4 448 557.7 448L584 448C592.8 448 600 455.2 600 464C600 472.8 592.8 480 584 480L557.7 480C550.2 480 544 486.1 544 493.7C544 498.9 546.9 503.6 551.6 505.9L582.8 521.5C598.3 529.2 608 545 608 562.3C608 587.5 587.6 608 562.3 608L528 608C519.2 608 512 600.8 512 592C512 583.2 519.2 576 528 576L562.3 576C569.8 576 576 569.9 576 562.3C576 557.1 573.1 552.4 568.4 550.1L537.2 534.5C521.8 526.8 512 511 512 493.7z"/></svg>