<svg xmlns="http://www.w3.org/2000/svg" viewBox="0 0 640 640"><!--! Font Awesome Pro 7.1.0 by @fontawesome - https://fontawesome.com License - https://fontawesome.com/license (Commercial License) Copyright 2025 Fonticons, Inc. --><path fill="currentColor" d="M320 96L192 96C174.3 96 160 110.3 160 128L160 512C160 529.7 174.3 544 192 544L448 544C465.7 544 480 529.7 480 512L480 256L384 256C348.7 256 320 227.3 320 192L320 96zM466.7 224L352 109.3L352 192C352 209.7 366.3 224 384 224L466.7 224zM128 128C128 92.7 156.7 64 192 64L325.5 64C342.5 64 358.8 70.7 370.8 82.7L493.3 205.3C505.3 217.3 512 233.6 512 250.6L512 512C512 547.3 483.3 576 448 576L192 576C156.7 576 128 547.3 128 512L128 128zM255.6 378.9C261.1 372 269.5 368 278.3 368C291.1 368 302.5 376.4 306.1 388.7L323.9 448L432 448C440.8 448 448 455.2 448 464C448 472.8 440.8 480 432 480L312 480C304.9 480 298.7 475.4 296.7 468.6L277.1 403.3L220.5 474C215 480.9 204.9 482 198 476.5C191.1 471 190 460.9 195.5 454L255.6 378.9zM208 160L272 160C280.8 160 288 167.2 288 176C288 184.8 280.8 192 272 192L208 192C199.2 192 192 184.8 192 176C192 167.2 199.2 160 208 160zM208 224L272 224C280.8 224 288 231.2 288 240C288 248.8 280.8 256 272 256L208 256C199.2 256 192 248.8 192 240C192 231.2 199.2 224 208 224z"/></svg>