<svg xmlns="http://www.w3.org/2000/svg" viewBox="0 0 640 640"><!--! Font Awesome Pro 7.1.0 by @fontawesome - https://fontawesome.com License - https://fontawesome.com/license (Commercial License) Copyright 2025 Fonticons, Inc. --><path fill="currentColor" d="M256 96L128 96C110.3 96 96 110.3 96 128L96 512C96 529.7 110.3 544 128 544L272 544L272 576L128 576C92.7 576 64 547.3 64 512L64 128C64 92.7 92.7 64 128 64L261.5 64C278.5 64 294.8 70.7 306.8 82.7L429.3 205.3C441.3 217.3 448 233.6 448 250.6L448 400.1L416 400.1L416 256.1L320 256.1C284.7 256.1 256 227.4 256 192.1L256 96.1zM402.7 224L288 109.3L288 192C288 209.7 302.3 224 320 224L402.7 224zM360 448L376 448C398.1 448 416 465.9 416 488C416 496.8 408.8 504 400 504C391.2 504 384 496.8 384 488C384 483.6 380.4 480 376 480L360 480C355.6 480 352 483.6 352 488L352 568C352 572.4 355.6 576 360 576L376 576C380.4 576 384 572.4 384 568L384 560C375.2 560 368 552.8 368 544C368 535.2 375.2 528 384 528L400 528C408.8 528 416 535.2 416 544L416 568C416 590.1 398.1 608 376 608L360 608C337.9 608 320 590.1 320 568L320 488C320 465.9 337.9 448 360 448zM480 464L480 592C480 600.8 472.8 608 464 608C455.2 608 448 600.8 448 592L448 464C448 455.2 455.2 448 464 448C472.8 448 480 455.2 480 464zM512 464C512 455.2 519.2 448 528 448L576 448C584.8 448 592 455.2 592 464C592 472.8 584.8 480 576 480L544 480L544 512L576 512C584.8 512 592 519.2 592 528C592 536.8 584.8 544 576 544L544 544L544 592C544 600.8 536.8 608 528 608C519.2 608 512 600.8 512 592L512 464z"/></svg>