<svg xmlns="http://www.w3.org/2000/svg" viewBox="0 0 640 640"><!--! Font Awesome Pro 7.1.0 by @fontawesome - https://fontawesome.com License - https://fontawesome.com/license (Commercial License) Copyright 2025 Fonticons, Inc. --><path fill="currentColor" d="M192 96C174.3 96 160 110.3 160 128L160 512C160 529.7 174.3 544 192 544L448 544C465.7 544 480 529.7 480 512L480 250.5C480 242 476.6 233.9 470.6 227.9L348.1 105.4C342.1 99.4 334 96 325.5 96L192 96zM128 128C128 92.7 156.7 64 192 64L325.5 64C342.5 64 358.8 70.7 370.8 82.7L493.3 205.3C505.3 217.3 512 233.6 512 250.6L512 512C512 547.3 483.3 576 448 576L192 576C156.7 576 128 547.3 128 512L128 128zM319.3 296.3L260.7 368L379.4 368L320.8 296.3C320.6 296.1 320.4 296 320.1 296C319.8 296 319.6 296.1 319.4 296.3zM320 264C329.9 264 339.2 268.4 345.4 276.1L409.7 354.7C413.8 359.7 416 365.9 416 372.3C416 387.7 403.6 400.1 388.2 400.1L251.8 400.1C236.5 400.1 224 387.7 224 372.3C224 365.9 226.2 359.7 230.3 354.7L294.6 276.1C300.8 268.5 310.2 264 320 264z"/></svg>