<svg xmlns="http://www.w3.org/2000/svg" viewBox="0 0 640 640"><!--! Font Awesome Pro 7.1.0 by @fontawesome - https://fontawesome.com License - https://fontawesome.com/license (Commercial License) Copyright 2025 Fonticons, Inc. --><path fill="currentColor" d="M368 96L368 176C368 211.3 396.7 240 432 240L512 240L512 448C512 465.7 497.7 480 480 480L256 480C238.3 480 224 465.7 224 448L224 128C224 110.3 238.3 96 256 96L368 96zM400 109.3L498.7 208L432 208C414.3 208 400 193.7 400 176L400 109.3zM256 64C220.7 64 192 92.7 192 128L192 448C192 483.3 220.7 512 256 512L480 512C515.3 512 544 483.3 544 448L544 234.5C544 217.5 537.3 201.2 525.3 189.2L418.7 82.7C406.7 70.7 390.5 64 373.5 64L256 64zM112 160C103.2 160 96 167.2 96 176L96 544C96 579.3 124.7 608 160 608L432 608C440.8 608 448 600.8 448 592C448 583.2 440.8 576 432 576L160 576C142.3 576 128 561.7 128 544L128 176C128 167.2 120.8 160 112 160z"/></svg>