<svg xmlns="http://www.w3.org/2000/svg" viewBox="0 0 640 640"><!--! Font Awesome Pro 7.1.0 by @fontawesome - https://fontawesome.com License - https://fontawesome.com/license (Commercial License) Copyright 2025 Fonticons, Inc. --><path fill="currentColor" d="M336 448C344.8 448 352 455.2 352 464L352 495.6C352 535.2 338 569.9 317.3 600.9C314.3 605.4 309.3 608 304 608C299.3 608 294.9 606 291.9 602.5L290.7 600.9L276.5 579.5C274.9 577.1 273.5 574.7 272.1 572.3L267.7 579.5L253.5 600.9C250.5 605.4 245.5 608 240.2 608C235.5 608 231.1 606 228.1 602.5L226.9 600.9C206 569.9 192 535.1 192 495.6L192 464C192 455.2 199.2 448 208 448C216.8 448 224 455.2 224 464L224 495.6C224 519.1 230.1 541 240.8 561.9L240.9 561.7L244.4 556C252 542.6 256 527.4 256 511.9C256 503.1 263.2 495.9 272 495.9C280.8 495.9 288 503.1 288 511.9C288 529.6 293.2 546.9 303.1 561.7L303.2 561.9C313.8 541 320 519.1 320 495.6L320 464C320 455.2 327.2 448 336 448zM440 448C462.1 448 480 465.9 480 488L480 592C480 600.8 472.8 608 464 608C455.2 608 448 600.8 448 592L448 560L416 560L416 592C416 600.8 408.8 608 400 608C391.2 608 384 600.8 384 592L384 488C384 465.9 401.9 448 424 448L440 448zM592 448C600.8 448 608 455.2 608 464L608 495.6C608 530.3 597.7 564.3 578.4 593.2L573.3 600.9C570.3 605.4 565.3 608 560 608C555.3 608 550.9 606 547.9 602.5L546.7 600.9L541.6 593.2C522.3 564.3 512 530.3 512 495.6L512 464C512 455.2 519.2 448 528 448C536.8 448 544 455.2 544 464L544 495.6C544 518.6 549.6 541 560 561.3C570.4 541 576 518.5 576 495.6L576 464C576 455.2 583.2 448 592 448zM267.8 64.3C282.5 65.8 296.2 72.2 306.7 82.7L429.3 205.2C441.3 217.2 448 233.5 448 250.4L448 399.9L416 399.9L416 255.9L320 255.9C284.7 255.9 256 227.2 256 191.9L256 95.9L128 95.9C110.3 96 96 110.3 96 128L96 512C96 529.7 110.3 544 128 544L144 544L144 576L128 576L121.5 575.7C89.2 572.4 64 545.1 64 512L64 128C64 94.9 89.2 67.6 121.5 64.3L128 64L261.5 64L267.8 64.3zM424 480C419.6 480 416 483.6 416 488L416 528L448 528L448 488C448 483.6 444.4 480 440 480L424 480zM288 192C288 209.7 302.3 224 320 224L402.7 224L288 109.2L288 192z"/></svg>