<svg xmlns="http://www.w3.org/2000/svg" viewBox="0 0 640 640"><!--! Font Awesome Pro 7.1.0 by @fontawesome - https://fontawesome.com License - https://fontawesome.com/license (Commercial License) Copyright 2025 Fonticons, Inc. --><path fill="currentColor" d="M192 96L320 96L320 192C320 227.3 348.7 256 384 256L480 256L480 512C480 529.7 465.7 544 448 544L192 544C174.3 544 160 529.7 160 512L160 128C160 110.3 174.3 96 192 96zM352 109.3L466.7 224L384 224C366.3 224 352 209.7 352 192L352 109.3zM192 64C156.7 64 128 92.7 128 128L128 512C128 547.3 156.7 576 192 576L448 576C483.3 576 512 547.3 512 512L512 250.5C512 233.5 505.3 217.2 493.3 205.2L370.7 82.7C358.7 70.7 342.5 64 325.5 64L192 64zM384 304L360 304C346.7 304 336 314.7 336 328L336 400C326.6 394.9 315.7 392 304 392C268.7 392 240 418.9 240 452C240 485.1 268.7 512 304 512C339.3 512 368 485.1 368 452C368 450.6 368 449.3 367.9 447.9L368 448L368 336L384 336C392.8 336 400 328.8 400 320C400 311.2 392.8 304 384 304zM304 480C284.4 480 272 465.5 272 452C272 438.5 284.4 424 304 424C323.6 424 336 438.5 336 452C336 465.5 323.7 480 304 480z"/></svg>