<svg xmlns="http://www.w3.org/2000/svg" viewBox="0 0 640 640"><!--! Font Awesome Pro 7.1.0 by @fontawesome - https://fontawesome.com License - https://fontawesome.com/license (Commercial License) Copyright 2025 Fonticons, Inc. --><path fill="currentColor" d="M256 96L128 96C110.3 96 96 110.3 96 128L96 512C96 529.7 110.3 544 128 544L289.4 544C294.6 555.3 300.8 566 308 576L128 576C92.7 576 64 547.3 64 512L64 128C64 92.7 92.7 64 128 64L261.5 64C278.5 64 294.8 70.7 306.8 82.7L429.3 205.3C441.3 217.3 448 233.6 448 250.6L448 272.7C437 273.6 426.4 275.4 416 278.1L416 256.1L320 256.1C284.7 256.1 256 227.4 256 192.1L256 96.1zM402.7 224L288 109.3L288 192C288 209.7 302.3 224 320 224L402.7 224zM576 464C576 402.1 525.9 352 464 352C402.1 352 352 402.1 352 464C352 525.9 402.1 576 464 576C525.9 576 576 525.9 576 464zM320 464C320 384.5 384.5 320 464 320C543.5 320 608 384.5 608 464C608 543.5 543.5 608 464 608C384.5 608 320 543.5 320 464zM480 400L480 448L528 448C536.8 448 544 455.2 544 464C544 472.8 536.8 480 528 480L480 480L480 528C480 536.8 472.8 544 464 544C455.2 544 448 536.8 448 528L448 480L400 480C391.2 480 384 472.8 384 464C384 455.2 391.2 448 400 448L448 448L448 400C448 391.2 455.2 384 464 384C472.8 384 480 391.2 480 400z"/></svg>