<svg xmlns="http://www.w3.org/2000/svg" viewBox="0 0 640 640"><!--! Font Awesome Pro 7.1.0 by @fontawesome - https://fontawesome.com License - https://fontawesome.com/license (Commercial License) Copyright 2025 Fonticons, Inc. --><path fill="currentColor" d="M224 96L352 96L352 192C352 227.3 380.7 256 416 256L512 256L512 512C512 529.7 497.7 544 480 544L288 544L288 576L480 576C515.3 576 544 547.3 544 512L544 250.5C544 233.5 537.3 217.2 525.3 205.2L402.7 82.7C390.7 70.7 374.5 64 357.5 64L224 64C188.7 64 160 92.7 160 128L160 208C170.9 208 181.6 209 192 210.9L192 128C192 110.3 206.3 96 224 96zM384 109.3L498.7 224L416 224C398.3 224 384 209.7 384 192L384 109.3zM64 384C64 331 107 288 160 288C213 288 256 331 256 384C256 437 213 480 160 480C107 480 64 437 64 384zM208 502.7L208 569L167.9 546.1C163 543.3 156.9 543.3 152 546.1L112 569L112 502.7C126.8 508.7 143 512 160 512C177 512 193.2 508.7 208 502.7zM240 483.9C269.3 460.4 288 424.4 288 384C288 313.3 230.7 256 160 256C89.3 256 32 313.3 32 384C32 424.4 50.7 460.5 80 483.9L80 585.7C80 598 90 608 102.3 608C106.2 608 110 607 113.4 605.1L160 578.5L206.6 605.1C210 607 213.8 608 217.7 608C230 608 240 598 240 585.7L240 483.9zM160 408C146.7 408 136 397.3 136 384C136 370.7 146.7 360 160 360C173.3 360 184 370.7 184 384C184 397.3 173.3 408 160 408zM160 328C129.1 328 104 353.1 104 384C104 414.9 129.1 440 160 440C190.9 440 216 414.9 216 384C216 353.1 190.9 328 160 328z"/></svg>