<svg xmlns="http://www.w3.org/2000/svg" viewBox="0 0 640 640"><!--! Font Awesome Pro 7.1.0 by @fontawesome - https://fontawesome.com License - https://fontawesome.com/license (Commercial License) Copyright 2025 Fonticons, Inc. --><path fill="currentColor" d="M59.3 36.8C53.1 30.6 42.9 30.6 36.7 36.8C30.5 43 30.5 53.2 36.7 59.4L580.7 603.4C586.9 609.6 597.1 609.6 603.3 603.4C609.5 597.2 609.5 587 603.3 580.8L512 489.5L512 250.5C512 233.5 505.3 217.2 493.3 205.2L370.7 82.7C358.7 70.7 342.5 64 325.5 64L192 64C163.5 64 139.3 82.7 131 108.5L59.3 36.8zM160 137.5L160 128C160 110.3 174.3 96 192 96L320 96L320 192C320 227.3 348.7 256 384 256L480 256L480 457.5L160 137.5zM128 512C128 547.3 156.7 576 192 576L448 576C458.9 576 469.1 573.3 478 568.5L453.1 543.6C451.4 543.9 449.7 544 448 544L192 544C174.3 544 160 529.7 160 512L160 250.5L128 218.5L128 512zM466.7 224L384 224C366.3 224 352 209.7 352 192L352 109.3L466.7 224z"/></svg>