<svg xmlns="http://www.w3.org/2000/svg" viewBox="0 0 640 640"><!--! Font Awesome Pro 7.1.0 by @fontawesome - https://fontawesome.com License - https://fontawesome.com/license (Commercial License) Copyright 2025 Fonticons, Inc. --><path fill="currentColor" d="M320 96L192 96C174.3 96 160 110.3 160 128L160 512C160 529.7 174.3 544 192 544L448 544C465.7 544 480 529.7 480 512L480 256L384 256C348.7 256 320 227.3 320 192L320 96zM466.7 224L352 109.3L352 192C352 209.7 366.3 224 384 224L466.7 224zM128 128C128 92.7 156.7 64 192 64L325.5 64C342.5 64 358.8 70.7 370.8 82.7L493.3 205.3C505.3 217.3 512 233.6 512 250.6L512 512C512 547.3 483.3 576 448 576L192 576C156.7 576 128 547.3 128 512L128 128zM208 400C208 355.3 234.2 316.8 272 298.8L272 336C252.6 350.6 240 373.8 240 400C240 444.2 275.8 480 320 480C346.2 480 369.4 467.4 384 448L421.2 448C403.2 485.8 364.7 512 320 512C258.1 512 208 461.9 208 400zM430.9 416L336 416C318.3 416 304 401.7 304 384L304 289.1C309.2 288.4 314.6 288 320 288C381.9 288 432 338.1 432 400C432 405.4 431.6 410.8 430.9 416zM336 321.6L336 384L398.4 384C392 352.7 367.3 328 336 321.6z"/></svg>