<svg xmlns="http://www.w3.org/2000/svg" viewBox="0 0 640 640"><!--! Font Awesome Pro 7.1.0 by @fontawesome - https://fontawesome.com License - https://fontawesome.com/license (Commercial License) Copyright 2025 Fonticons, Inc. --><path fill="currentColor" d="M192 96L320 96L320 192C320 227.3 348.7 256 384 256L480 256L480 512C480 529.7 465.7 544 448 544L192 544C174.3 544 160 529.7 160 512L160 128C160 110.3 174.3 96 192 96zM352 109.3L466.7 224L384 224C366.3 224 352 209.7 352 192L352 109.3zM192 64C156.7 64 128 92.7 128 128L128 512C128 547.3 156.7 576 192 576L448 576C483.3 576 512 547.3 512 512L512 250.5C512 233.5 505.3 217.2 493.3 205.2L370.7 82.7C358.7 70.7 342.5 64 325.5 64L192 64zM256 320C229.5 320 208 341.5 208 368L208 432C208 458.5 229.5 480 256 480L272 480C298.5 480 320 458.5 320 432L320 368C320 341.5 298.5 320 272 320L256 320zM240 368C240 359.2 247.2 352 256 352L272 352C280.8 352 288 359.2 288 368L288 432C288 440.8 280.8 448 272 448L256 448C247.2 448 240 440.8 240 432L240 368zM360 320C351.2 320 344 327.2 344 336C344 344.8 351.2 352 360 352L368 352L368 448L360 448C351.2 448 344 455.2 344 464C344 472.8 351.2 480 360 480L408 480C416.8 480 424 472.8 424 464C424 455.2 416.8 448 408 448L400 448L400 336C400 327.2 392.8 320 384 320L360 320z"/></svg>