<svg xmlns="http://www.w3.org/2000/svg" viewBox="0 0 640 640"><!--! Font Awesome Pro 7.1.0 by @fontawesome - https://fontawesome.com License - https://fontawesome.com/license (Commercial License) Copyright 2025 Fonticons, Inc. --><path fill="currentColor" d="M256 96L128 96C110.3 96 96 110.3 96 128L96 512C96 529.7 110.3 544 128 544L240 544L240 576L128 576C92.7 576 64 547.3 64 512L64 128C64 92.7 92.7 64 128 64L261.5 64C278.5 64 294.8 70.7 306.8 82.7L429.3 205.3C441.3 217.3 448 233.6 448 250.6L448 400.1L416 400.1L416 256.1L320 256.1C284.7 256.1 256 227.4 256 192.1L256 96.1zM402.7 224L288 109.3L288 192C288 209.7 302.3 224 320 224L402.7 224zM320 464C320 471.3 322.2 478.4 326.2 484.4L336 499.1L345.8 484.4C349.8 478.3 352 471.2 352 464C352 455.2 359.2 448 368 448C376.8 448 384 455.2 384 464C384 477.6 380 490.9 372.4 502.2L355.2 528L372.4 553.8C379.9 565.1 384 578.4 384 592C384 600.8 376.8 608 368 608C359.2 608 352 600.8 352 592C352 584.7 349.8 577.6 345.8 571.6L336 556.9L326.2 571.6C322.2 577.7 320 584.8 320 592C320 600.8 312.8 608 304 608C295.2 608 288 600.8 288 592C288 578.4 292 565.1 299.6 553.8L316.8 528L299.6 502.2C292.1 490.9 288 477.6 288 464C288 455.2 295.2 448 304 448C312.8 448 320 455.2 320 464zM432 608C423.2 608 416 600.8 416 592L416 464C416 455.2 423.2 448 432 448C440.8 448 448 455.2 448 464L448 576L464 576C472.8 576 480 583.2 480 592C480 600.8 472.8 608 464 608L432 608zM512 493.7C512 468.5 532.4 448 557.7 448L584 448C592.8 448 600 455.2 600 464C600 472.8 592.8 480 584 480L557.7 480C550.2 480 544 486.1 544 493.7C544 498.9 546.9 503.6 551.6 505.9L582.8 521.5C598.3 529.2 608 545 608 562.3C608 587.5 587.6 608 562.3 608L528 608C519.2 608 512 600.8 512 592C512 583.2 519.2 576 528 576L562.3 576C569.8 576 576 569.9 576 562.3C576 557.1 573.1 552.4 568.4 550.1L537.2 534.5C521.8 526.8 512 511 512 493.7z"/></svg>