<svg xmlns="http://www.w3.org/2000/svg" viewBox="0 0 640 640"><!--! Font Awesome Pro 7.1.0 by @fontawesome - https://fontawesome.com License - https://fontawesome.com/license (Commercial License) Copyright 2025 Fonticons, Inc. --><path fill="currentColor" d="M323.8 453.6C327.8 448.9 334.2 446.9 340.2 448.6C347.1 450.5 351.9 456.8 351.9 464L351.9 592C351.9 600.8 344.7 608 335.9 608C327.1 608 319.9 600.8 319.9 592L319.9 521.8L301.6 552.3C298.7 557.1 293.5 560.1 287.9 560.1C283 560.1 278.4 557.8 275.4 554L274.2 552.3L255.9 521.8L255.9 592C255.9 600.8 248.7 608 239.9 608C231.1 608 223.9 600.8 223.9 592L223.9 464L224.1 461.3C225.1 455.3 229.5 450.2 235.6 448.6C242.5 446.7 249.9 449.6 253.6 455.8L287.9 512.9L322.2 455.8L323.8 453.6zM400 448C408.8 448 416 455.2 416 464L416 592C416 600.8 408.8 608 400 608C391.2 608 384 600.8 384 592L384 464C384 455.2 391.2 448 400 448zM496 448C522.5 448 544 469.5 544 496L544 560C544 586.5 522.5 608 496 608L464 608C455.2 608 448 600.8 448 592L448 464L448.3 460.8C449.8 453.5 456.3 448 464 448L496 448zM592 448C600.8 448 608 455.2 608 464L608 592C608 600.8 600.8 608 592 608C583.2 608 576 600.8 576 592L576 464C576 455.2 583.2 448 592 448zM267.8 64.3C282.5 65.8 296.2 72.2 306.7 82.7L429.3 205.2C441.3 217.2 448 233.5 448 250.4L448 399.9L416 399.9L416 255.9L320 255.9C284.7 255.9 256 227.2 256 191.9L256 95.9L128 95.9C110.3 96 96 110.3 96 128L96 512C96 529.7 110.3 544 128 544L176 544L176 576L128 576L121.5 575.7C89.2 572.4 64 545.1 64 512L64 128C64 94.9 89.2 67.6 121.5 64.3L128 64L261.5 64L267.8 64.3zM480 576L496 576C504.8 576 512 568.8 512 560L512 496C512 487.2 504.8 480 496 480L480 480L480 576zM288 192C288 209.7 302.3 224 320 224L402.7 224L288 109.2L288 192z"/></svg>