<svg xmlns="http://www.w3.org/2000/svg" viewBox="0 0 640 640"><!--! Font Awesome Pro 7.1.0 by @fontawesome - https://fontawesome.com License - https://fontawesome.com/license (Commercial License) Copyright 2025 Fonticons, Inc. --><path fill="currentColor" d="M256 96L128 96C110.3 96 96 110.3 96 128L96 512C96 529.7 110.3 544 128 544L208 544L208 576L128 576C92.7 576 64 547.3 64 512L64 128C64 92.7 92.7 64 128 64L261.5 64C278.5 64 294.8 70.7 306.8 82.7L429.3 205.3C441.3 217.3 448 233.6 448 250.6L448 400.1L416 400.1L416 256.1L320 256.1C284.7 256.1 256 227.4 256 192.1L256 96.1zM402.7 224L288 109.3L288 192C288 209.7 302.3 224 320 224L402.7 224zM301.7 448L328 448C336.8 448 344 455.2 344 464C344 472.8 336.8 480 328 480L301.7 480C294.2 480 288 486.1 288 493.7C288 498.9 290.9 503.6 295.6 505.9L326.8 521.5C342.3 529.2 352 545 352 562.3C352 587.5 331.6 608 306.3 608L272 608C263.2 608 256 600.8 256 592C256 583.2 263.2 576 272 576L306.3 576C313.8 576 320 569.9 320 562.3C320 557.1 317.1 552.4 312.4 550.1L281.2 534.5C265.7 526.8 256 511 256 493.7C256 468.5 276.4 448 301.7 448zM416 464L416 495.6C416 518.6 421.5 541.2 432 561.6C442.5 541.3 448 518.7 448 495.6L448 464C448 455.2 455.2 448 464 448C472.8 448 480 455.2 480 464L480 495.6C480 530.3 469.7 564.3 450.4 593.2L445.3 600.9C442.3 605.4 437.3 608 432 608C426.7 608 421.7 605.3 418.7 600.9L413.6 593.2C394.3 564.3 384 530.3 384 495.6L384 464C384 455.2 391.2 448 400 448C408.8 448 416 455.2 416 464zM512 488C512 465.9 529.9 448 552 448L568 448C590.1 448 608 465.9 608 488C608 496.8 600.8 504 592 504C583.2 504 576 496.8 576 488C576 483.6 572.4 480 568 480L552 480C547.6 480 544 483.6 544 488L544 568C544 572.4 547.6 576 552 576L568 576C572.4 576 576 572.4 576 568L576 560C567.2 560 560 552.8 560 544C560 535.2 567.2 528 576 528L592 528C600.8 528 608 535.2 608 544L608 568C608 590.1 590.1 608 568 608L552 608C529.9 608 512 590.1 512 568L512 488z"/></svg>