<svg xmlns="http://www.w3.org/2000/svg" viewBox="0 0 640 640"><!--! Font Awesome Pro 7.1.0 by @fontawesome - https://fontawesome.com License - https://fontawesome.com/license (Commercial License) Copyright 2025 Fonticons, Inc. --><path fill="currentColor" d="M256 96L128 96C110.3 96 96 110.3 96 128L96 512C96 529.7 110.3 544 128 544L208 544L208 576L128 576C92.7 576 64 547.3 64 512L64 128C64 92.7 92.7 64 128 64L261.5 64C278.5 64 294.8 70.7 306.8 82.7L429.3 205.3C441.3 217.3 448 233.6 448 250.6L448 400.1L416 400.1L416 256.1L320 256.1C284.7 256.1 256 227.4 256 192.1L256 96.1zM402.7 224L288 109.3L288 192C288 209.7 302.3 224 320 224L402.7 224zM414.3 456.8L448 524.2L448 464C448 455.2 455.2 448 464 448C472.8 448 480 455.2 480 464L480 592C480 599.4 474.9 605.9 467.7 607.6C460.5 609.3 453 605.8 449.7 599.2L416 531.8L416 592C416 600.8 408.8 608 400 608C391.2 608 384 600.8 384 592L384 464C384 456.6 389.1 450.1 396.3 448.4C403.5 446.7 411 450.2 414.3 456.8zM272 448L304 448C334.9 448 360 473.1 360 504C360 534.9 334.9 560 304 560L288 560L288 592C288 600.8 280.8 608 272 608C263.2 608 256 600.8 256 592L256 464C256 455.2 263.2 448 272 448zM304 528C317.3 528 328 517.3 328 504C328 490.7 317.3 480 304 480L288 480L288 528L304 528zM512 488C512 465.9 529.9 448 552 448L568 448C590.1 448 608 465.9 608 488C608 496.8 600.8 504 592 504C583.2 504 576 496.8 576 488C576 483.6 572.4 480 568 480L552 480C547.6 480 544 483.6 544 488L544 568C544 572.4 547.6 576 552 576L568 576C572.4 576 576 572.4 576 568L576 560C567.2 560 560 552.8 560 544C560 535.2 567.2 528 576 528L592 528C600.8 528 608 535.2 608 544L608 568C608 590.1 590.1 608 568 608L552 608C529.9 608 512 590.1 512 568L512 488z"/></svg>