<svg xmlns="http://www.w3.org/2000/svg" viewBox="0 0 640 640"><!--! Font Awesome Pro 7.1.0 by @fontawesome - https://fontawesome.com License - https://fontawesome.com/license (Commercial License) Copyright 2025 Fonticons, Inc. --><path fill="currentColor" d="M192 96L320 96L320 192C320 227.3 348.7 256 384 256L480 256L480 512C480 529.7 465.7 544 448 544L192 544C174.3 544 160 529.7 160 512L160 128C160 110.3 174.3 96 192 96zM352 109.3L466.7 224L384 224C366.3 224 352 209.7 352 192L352 109.3zM192 64C156.7 64 128 92.7 128 128L128 512C128 547.3 156.7 576 192 576L448 576C483.3 576 512 547.3 512 512L512 250.5C512 233.5 505.3 217.2 493.3 205.2L370.7 82.7C358.7 70.7 342.5 64 325.5 64L192 64zM248 320C248 306.7 237.3 296 224 296C210.7 296 200 306.7 200 320C200 333.3 210.7 344 224 344C237.3 344 248 333.3 248 320zM295 362.5L201.2 457.7C195.3 463.7 192 471.7 192 480.1C192 497.7 206.3 512 223.9 512L416.1 512C433.7 512 448 497.7 448 480.1C448 471.7 444.7 463.7 438.8 457.7L345 362.5C338.4 355.8 329.4 352 320 352C310.6 352 301.6 355.8 295 362.5zM320 384C320.8 384 321.6 384.3 322.2 384.9L415.8 480L224.1 480L317.7 384.9C318.3 384.3 319.1 384 319.9 384z"/></svg>