<svg xmlns="http://www.w3.org/2000/svg" viewBox="0 0 640 640"><!--! Font Awesome Pro 7.1.0 by @fontawesome - https://fontawesome.com License - https://fontawesome.com/license (Commercial License) Copyright 2025 Fonticons, Inc. --><path fill="currentColor" d="M256 96L128 96C110.3 96 96 110.3 96 128L96 512C96 529.7 110.3 544 128 544L384 544C401.7 544 416 529.7 416 512L416 464L448 464L448 512C448 547.3 419.3 576 384 576L128 576C92.7 576 64 547.3 64 512L64 128C64 92.7 92.7 64 128 64L261.5 64C278.5 64 294.8 70.7 306.8 82.7L429.3 205.3C441.3 217.3 448 233.6 448 250.6L448 336.1L416 336.1L416 256.1L320 256.1C284.7 256.1 256 227.4 256 192.1L256 96.1zM304 384L545.4 384L500.7 339.3C494.5 333.1 494.5 322.9 500.7 316.7C506.9 310.5 517.1 310.5 523.3 316.7L595.3 388.7C601.5 394.9 601.5 405.1 595.3 411.3L523.3 483.3C517.1 489.5 506.9 489.5 500.7 483.3C494.5 477.1 494.5 466.9 500.7 460.7L545.4 416L304 416C295.2 416 288 408.8 288 400C288 391.2 295.2 384 304 384zM402.7 224L288 109.3L288 192C288 209.7 302.3 224 320 224L402.7 224z"/></svg>