<svg xmlns="http://www.w3.org/2000/svg" viewBox="0 0 640 640"><!--! Font Awesome Pro 7.1.0 by @fontawesome - https://fontawesome.com License - https://fontawesome.com/license (Commercial License) Copyright 2025 Fonticons, Inc. --><path fill="currentColor" d="M192 96L320 96L320 192C320 227.3 348.7 256 384 256L480 256L480 512C480 529.7 465.7 544 448 544L192 544C174.3 544 160 529.7 160 512L160 128C160 110.3 174.3 96 192 96zM352 109.3L466.7 224L384 224C366.3 224 352 209.7 352 192L352 109.3zM192 64C156.7 64 128 92.7 128 128L128 512C128 547.3 156.7 576 192 576L448 576C483.3 576 512 547.3 512 512L512 250.5C512 233.5 505.3 217.2 493.3 205.2L370.7 82.7C358.7 70.7 342.5 64 325.5 64L192 64zM340.4 346.2C346.9 339.7 355.8 336 365.1 336L368 336C385.7 336 400 350.3 400 368C400 389.4 385.5 410.5 365.4 429C348.5 444.5 330 456 320 461.7C310 456 291.5 444.5 274.6 429C254.5 410.5 240 389.3 240 368C240 350.3 254.3 336 272 336L274.9 336C284.2 336 293 339.7 299.6 346.2L308.7 355.3C311.7 358.3 315.8 360 320 360C324.2 360 328.3 358.3 331.3 355.3L340.4 346.2zM365.1 304C348.4 304 332.3 310.3 320 321.5C307.7 310.3 291.6 304 274.9 304L272 304C236.7 304 208 332.7 208 368C208 403.3 231.1 432.5 253 452.6C275.4 473.2 299.8 487.3 308.9 492.2C315.9 496 324.2 496 331.1 492.2C340.2 487.3 364.6 473.2 387 452.6C408.8 432.5 432 403.3 432 368C432 332.7 403.3 304 368 304L365.1 304z"/></svg>