<svg xmlns="http://www.w3.org/2000/svg" viewBox="0 0 640 640"><!--! Font Awesome Pro 7.1.0 by @fontawesome - https://fontawesome.com License - https://fontawesome.com/license (Commercial License) Copyright 2025 Fonticons, Inc. --><path fill="currentColor" d="M336 448C344.8 448 352 455.2 352 464C352 472.8 344.8 480 336 480L320 480L320 592C320 600.8 312.8 608 304 608C295.2 608 288 600.8 288 592L288 480L272 480C263.2 480 256 472.8 256 464C256 455.2 263.2 448 272 448L336 448zM464 448C472.8 448 480 455.2 480 464C480 472.8 472.8 480 464 480L416 480L416 512L448 512C456.8 512 464 519.2 464 528C464 536.8 456.8 544 448 544L416 544L416 576L464 576C472.8 576 480 583.2 480 592C480 600.8 472.8 608 464 608L400 608C391.2 608 384 600.8 384 592L384 464L384.3 460.8C385.8 453.5 392.3 448 400 448L464 448zM592 448C600.8 448 608 455.2 608 464C608 477.6 604 490.9 596.4 502.2L579.2 528L596.4 553.8L599.1 558.1C604.9 568.4 608 580.1 608 591.9C608 600.7 600.8 607.9 592 607.9C583.2 607.9 576 600.7 576 591.9C576 586.4 574.8 581.1 572.5 576.2L569.8 571.5L560 556.8L550.2 571.5C546.2 577.6 544 584.7 544 591.9C544 600.7 536.8 607.9 528 607.9C519.2 607.9 512 600.7 512 591.9C512 578.3 516 565 523.6 553.7L540.8 527.9L523.6 502.1C516.1 490.8 512 477.5 512 463.9C512 455.1 519.2 447.9 528 447.9C536.8 447.9 544 455.1 544 463.9C544 471.2 546.2 478.3 550.2 484.3L560 499L569.8 484.3C573.8 478.2 576 471.1 576 463.9C576 455.1 583.2 447.9 592 447.9zM267.8 64.3C282.5 65.8 296.2 72.2 306.7 82.7L429.3 205.2C441.3 217.2 448 233.5 448 250.4L448 399.9L416 399.9L416 255.9L320 255.9C284.7 255.9 256 227.2 256 191.9L256 95.9L128 95.9C110.3 96 96 110.3 96 128L96 512C96 529.7 110.3 544 128 544L208 544L208 576L128 576L121.5 575.7C89.2 572.4 64 545.1 64 512L64 128C64 94.9 89.2 67.6 121.5 64.3L128 64L261.5 64L267.8 64.3zM288 192C288 209.7 302.3 224 320 224L402.7 224L288 109.2L288 192z"/></svg>