<svg xmlns="http://www.w3.org/2000/svg" viewBox="0 0 640 640"><!--! Font Awesome Pro 7.1.0 by @fontawesome - https://fontawesome.com License - https://fontawesome.com/license (Commercial License) Copyright 2025 Fonticons, Inc. --><path fill="currentColor" d="M192 96L320 96L320 192C320 227.3 348.7 256 384 256L480 256L480 512C480 529.7 465.7 544 448 544L192 544C174.3 544 160 529.7 160 512L160 128C160 110.3 174.3 96 192 96zM352 109.3L466.7 224L384 224C366.3 224 352 209.7 352 192L352 109.3zM192 64C156.7 64 128 92.7 128 128L128 512C128 547.3 156.7 576 192 576L448 576C483.3 576 512 547.3 512 512L512 250.5C512 233.5 505.3 217.2 493.3 205.2L370.7 82.7C358.7 70.7 342.5 64 325.5 64L192 64zM336 352L336 448L240 448L240 352L336 352zM336 480C352.6 480 366.2 467.4 367.8 451.3L383.8 465C389.1 469.5 395.8 472 402.8 472C418.9 472 432 458.9 432 442.8L432 357.2C432 341.1 418.9 328 402.8 328C395.8 328 389.1 330.5 383.8 335L367.8 348.7C366.2 332.6 352.6 320 336 320L240 320C222.3 320 208 334.3 208 352L208 448C208 465.7 222.3 480 240 480L336 480zM400 363.3L400 436.7L368 409.3L368 390.7L400 363.3z"/></svg>