<svg xmlns="http://www.w3.org/2000/svg" viewBox="0 0 640 640"><!--! Font Awesome Pro 7.1.0 by @fontawesome - https://fontawesome.com License - https://fontawesome.com/license (Commercial License) Copyright 2025 Fonticons, Inc. --><path fill="currentColor" d="M256 96L128 96C110.3 96 96 110.3 96 128L96 512C96 529.7 110.3 544 128 544L208 544L208 576L128 576C92.7 576 64 547.3 64 512L64 128C64 92.7 92.7 64 128 64L261.5 64C278.5 64 294.8 70.7 306.8 82.7L429.3 205.3C441.3 217.3 448 233.6 448 250.6L448 400.1L416 400.1L416 256.1L320 256.1C284.7 256.1 256 227.4 256 192.1L256 96.1zM402.7 224L288 109.3L288 192C288 209.7 302.3 224 320 224L402.7 224zM272 448L304 448C334.9 448 360 473.1 360 504C360 534.9 334.9 560 304 560L288 560L288 592C288 600.8 280.8 608 272 608C263.2 608 256 600.8 256 592L256 464C256 455.2 263.2 448 272 448zM304 528C317.3 528 328 517.3 328 504C328 490.7 317.3 480 304 480L288 480L288 528L304 528zM400 448L432 448C458.5 448 480 469.5 480 496L480 560C480 586.5 458.5 608 432 608L400 608C391.2 608 384 600.8 384 592L384 464C384 455.2 391.2 448 400 448zM432 576C440.8 576 448 568.8 448 560L448 496C448 487.2 440.8 480 432 480L416 480L416 576L432 576zM512 464C512 455.2 519.2 448 528 448L576 448C584.8 448 592 455.2 592 464C592 472.8 584.8 480 576 480L544 480L544 512L576 512C584.8 512 592 519.2 592 528C592 536.8 584.8 544 576 544L544 544L544 592C544 600.8 536.8 608 528 608C519.2 608 512 600.8 512 592L512 464z"/></svg>