<svg xmlns="http://www.w3.org/2000/svg" viewBox="0 0 640 640"><!--! Font Awesome Pro 7.1.0 by @fontawesome - https://fontawesome.com License - https://fontawesome.com/license (Commercial License) Copyright 2025 Fonticons, Inc. --><path fill="currentColor" d="M192 96L320 96L320 192C320 227.3 348.7 256 384 256L480 256L480 512C480 529.7 465.7 544 448 544L192 544C174.3 544 160 529.7 160 512L160 128C160 110.3 174.3 96 192 96zM352 109.3L466.7 224L384 224C366.3 224 352 209.7 352 192L352 109.3zM192 64C156.7 64 128 92.7 128 128L128 512C128 547.3 156.7 576 192 576L448 576C483.3 576 512 547.3 512 512L512 250.5C512 233.5 505.3 217.2 493.3 205.2L370.7 82.7C358.7 70.7 342.5 64 325.5 64L192 64zM336 304C336 295.2 328.8 288 320 288C311.2 288 304 295.2 304 304L304 336L272 336C263.2 336 256 343.2 256 352C256 360.8 263.2 368 272 368L304 368L304 400C304 408.8 311.2 416 320 416C328.8 416 336 408.8 336 400L336 368L368 368C376.8 368 384 360.8 384 352C384 343.2 376.8 336 368 336L336 336L336 304zM272 448C263.2 448 256 455.2 256 464C256 472.8 263.2 480 272 480L368 480C376.8 480 384 472.8 384 464C384 455.2 376.8 448 368 448L272 448z"/></svg>