<svg xmlns="http://www.w3.org/2000/svg" viewBox="0 0 640 640"><!--! Font Awesome Pro 7.1.0 by @fontawesome - https://fontawesome.com License - https://fontawesome.com/license (Commercial License) Copyright 2025 Fonticons, Inc. --><path fill="currentColor" d="M331.8 64.3C346.4 65.8 360.2 72.2 370.7 82.7L493.2 205.2C505.2 217.2 511.9 233.5 511.9 250.4L511.9 511.9L511.6 518.4C508.5 548.5 484.6 572.5 454.5 575.5L448 575.8L192 575.8L185.5 575.5C153.2 572.4 128 545.1 128 512L128 128C128 94.9 153.2 67.6 185.5 64.3L192 64L325.5 64L331.8 64.3zM192 96C174.3 96 160 110.3 160 128L160 512C160 529.7 174.3 544 192 544L448 544C465.7 544 480 529.7 480 512L480 256L384 256C348.7 256 320 227.3 320 192L320 96L192 96zM272 320C280.8 320 288 327.2 288 336C288 344.8 280.8 352 272 352L256 352L256 366.1C256 372.8 253.9 379.3 250.1 384.7L248.3 386.9L237.1 400L248.3 413.1C253.3 418.9 256 426.3 256 433.9L256 448L272 448C280.8 448 288 455.2 288 464C288 472.8 280.8 480 272 480L256 480C238.3 480 224 465.7 224 448L224 433.9L203.8 410.4C198.7 404.4 198.7 395.6 203.8 389.6L224 366.1L224 352C224 334.3 238.3 320 256 320L272 320zM384 320C401.7 320 416 334.3 416 352L416 366.1L436.2 389.6C441.3 395.6 441.3 404.4 436.2 410.4L416 433.9L416 448C416 465.7 401.7 480 384 480L368 480C359.2 480 352 472.8 352 464C352 455.2 359.2 448 368 448L384 448L384 433.9C384 426.3 386.8 418.9 391.7 413.1L402.9 400L391.7 386.9L389.9 384.7C386.1 379.3 384 372.8 384 366.1L384 352L368 352C359.2 352 352 344.8 352 336C352 327.2 359.2 320 368 320L384 320zM352 192C352 209.7 366.3 224 384 224L466.8 224L352 109.2L352 192z"/></svg>