<svg xmlns="http://www.w3.org/2000/svg" viewBox="0 0 640 640"><!--! Font Awesome Pro 7.1.0 by @fontawesome - https://fontawesome.com License - https://fontawesome.com/license (Commercial License) Copyright 2025 Fonticons, Inc. --><path fill="currentColor" d="M256 96L128 96C110.3 96 96 110.3 96 128L96 512C96 529.7 110.3 544 128 544L208 544L208 576L128 576C92.7 576 64 547.3 64 512L64 128C64 92.7 92.7 64 128 64L261.5 64C278.5 64 294.8 70.7 306.8 82.7L429.3 205.3C441.3 217.3 448 233.6 448 250.6L448 400.1L416 400.1L416 256.1L320 256.1C284.7 256.1 256 227.4 256 192.1L256 96.1zM402.7 224L288 109.3L288 192C288 209.7 302.3 224 320 224L402.7 224zM272 448L304 448C334.9 448 360 473.1 360 504C360 534.9 334.9 560 304 560L288 560L288 592C288 600.8 280.8 608 272 608C263.2 608 256 600.8 256 592L256 464C256 455.2 263.2 448 272 448zM304 528C317.3 528 328 517.3 328 504C328 490.7 317.3 480 304 480L288 480L288 528L304 528zM400 448L432 448C462.9 448 488 473.1 488 504C488 534.9 462.9 560 432 560L416 560L416 592C416 600.8 408.8 608 400 608C391.2 608 384 600.8 384 592L384 464C384 455.2 391.2 448 400 448zM432 528C445.3 528 456 517.3 456 504C456 490.7 445.3 480 432 480L416 480L416 528L432 528zM512 464C512 455.2 519.2 448 528 448L592 448C600.8 448 608 455.2 608 464C608 472.8 600.8 480 592 480L576 480L576 592C576 600.8 568.8 608 560 608C551.2 608 544 600.8 544 592L544 480L528 480C519.2 480 512 472.8 512 464z"/></svg>