<svg xmlns="http://www.w3.org/2000/svg" viewBox="0 0 640 640"><!--! Font Awesome Pro 7.1.0 by @fontawesome - https://fontawesome.com License - https://fontawesome.com/license (Commercial License) Copyright 2025 Fonticons, Inc. --><path fill="currentColor" d="M360 96C375.4 96 390.1 102.1 401 113L527 239C537.9 249.9 544 264.6 544 280C544 295.4 537.9 310.1 527 321L496 352L96.6 352C98.3 339.6 104.1 328 113 319L220.7 211.3L292.7 283.3C298.9 289.5 309.1 289.5 315.3 283.3C321.5 277.1 321.5 266.9 315.3 260.7L243.3 188.7L319 113C329.9 102.1 344.6 96 360 96zM198.1 188.7L90.3 296.4C73.5 313.3 64 336.1 64 360C64 383.9 73.5 406.7 90.3 423.6L216.4 549.7C233.3 566.5 256.1 576 280 576C303.9 576 326.7 566.5 343.6 549.7L549.7 343.6C566.5 326.7 576 303.9 576 280C576 256.1 566.5 233.3 549.7 216.4L423.6 90.3C406.7 73.5 383.9 64 360 64C336.1 64 313.3 73.5 296.4 90.3L220.7 166L155.3 100.6C149.1 94.4 138.9 94.4 132.7 100.6C126.5 106.8 126.5 117 132.7 123.2L198.1 188.6zM113 401C108 396 104.1 390.3 101.2 384L464 384L321 527C310.1 537.9 295.4 544 280 544C264.6 544 249.9 537.9 239 527L113 401z"/></svg>