<svg xmlns="http://www.w3.org/2000/svg" viewBox="0 0 640 640"><!--! Font Awesome Pro 7.1.0 by @fontawesome - https://fontawesome.com License - https://fontawesome.com/license (Commercial License) Copyright 2025 Fonticons, Inc. --><path fill="currentColor" d="M128 80C128 71.2 135.2 64 144 64L280 64C288.8 64 296 71.2 296 80C296 88.8 288.8 96 280 96L144 96C135.2 96 128 88.8 128 80zM32 144C32 135.2 39.2 128 48 128L384 128C392.8 128 400 135.2 400 144C400 152.8 392.8 160 384 160L368 160L368 544L384 544C392.8 544 400 551.2 400 560C400 568.8 392.8 576 384 576L48 576C39.2 576 32 568.8 32 560C32 551.2 39.2 544 48 544L64 544L64 160L48 160C39.2 160 32 152.8 32 144zM96 160L96 544L336 544L336 160L96 160zM160 208C168.8 208 176 215.2 176 224L176 480C176 488.8 168.8 496 160 496C151.2 496 144 488.8 144 480L144 224C144 215.2 151.2 208 160 208zM480 512L416 512L416 480L480 480C488.8 480 496 472.8 496 464L496 432C496 405.5 517.5 384 544 384L560 384C568.8 384 576 376.8 576 368L576 240C576 231.2 568.8 224 560 224L416 224L416 192L560 192C586.5 192 608 213.5 608 240L608 368C608 394.5 586.5 416 560 416L544 416C535.2 416 528 423.2 528 432L528 464C528 490.5 506.5 512 480 512z"/></svg>