<svg xmlns="http://www.w3.org/2000/svg" viewBox="0 0 640 640"><!--! Font Awesome Pro 7.1.0 by @fontawesome - https://fontawesome.com License - https://fontawesome.com/license (Commercial License) Copyright 2025 Fonticons, Inc. --><path fill="currentColor" d="M544 128C561.7 128 576 142.3 576 160L576 208L512 208L512 128L544 128zM256 128L480 128L480 416L256 416L256 128zM544 416L512 416L512 336L576 336L576 384C576 401.7 561.7 416 544 416zM576 240L576 304L512 304L512 240L576 240zM224 336L224 416L192 416C174.3 416 160 401.7 160 384L160 336L224 336zM224 240L224 304L160 304L160 240L224 240zM224 128L224 208L160 208L160 160C160 142.3 174.3 128 192 128L224 128zM192 96C156.7 96 128 124.7 128 160L128 384C128 419.3 156.7 448 192 448L544 448C579.3 448 608 419.3 608 384L608 160C608 124.7 579.3 96 544 96L192 96zM64 208C64 199.2 56.8 192 48 192C39.2 192 32 199.2 32 208L32 480C32 515.3 60.7 544 96 544L496 544C504.8 544 512 536.8 512 528C512 519.2 504.8 512 496 512L96 512C78.3 512 64 497.7 64 480L64 208z"/></svg>