<svg xmlns="http://www.w3.org/2000/svg" viewBox="0 0 640 640"><!--! Font Awesome Pro 7.1.0 by @fontawesome - https://fontawesome.com License - https://fontawesome.com/license (Commercial License) Copyright 2025 Fonticons, Inc. --><path fill="currentColor" d="M160 48C160 39.2 167.2 32 176 32L464 32C472.8 32 480 39.2 480 48C480 56.8 472.8 64 464 64L176 64C167.2 64 160 56.8 160 48zM112 144C112 135.2 119.2 128 128 128L512 128C520.8 128 528 135.2 528 144C528 152.8 520.8 160 512 160L128 160C119.2 160 112 152.8 112 144zM160 256L128 256C110.3 256 96 270.3 96 288L96 320L160 320L160 256zM160 224L512 224C547.3 224 576 252.7 576 288L576 480C576 515.3 547.3 544 512 544L128 544C92.7 544 64 515.3 64 480L64 288C64 252.7 92.7 224 128 224L160 224zM192 512L448 512L448 256L192 256L192 512zM480 256L480 320L544 320L544 288C544 270.3 529.7 256 512 256L480 256zM544 352L480 352L480 416L544 416L544 352zM544 448L480 448L480 512L512 512C529.7 512 544 497.7 544 480L544 448zM160 512L160 448L96 448L96 480C96 497.7 110.3 512 128 512L160 512zM96 416L160 416L160 352L96 352L96 416z"/></svg>