<svg xmlns="http://www.w3.org/2000/svg" viewBox="0 0 640 640"><!--! Font Awesome Pro 7.1.0 by @fontawesome - https://fontawesome.com License - https://fontawesome.com/license (Commercial License) Copyright 2025 Fonticons, Inc. --><path fill="currentColor" d="M59.3 36.8C53.1 30.6 42.9 30.6 36.7 36.8C30.5 43 30.5 53.2 36.7 59.4L580.7 603.4C586.9 609.6 597.1 609.6 603.3 603.4C609.5 597.2 609.5 587 603.3 580.8L385.9 363.4L566.6 182.6C575.8 173.4 578.5 159.7 573.5 147.7C568.5 135.7 556.9 128 544 128L150.5 128L59.3 36.8zM182.5 160L544 160L363.3 340.7L182.5 160zM256 365.3L256 365.3L256 480C256 488.5 259.4 496.6 265.4 502.6L329.4 566.6C338.6 575.8 352.3 578.5 364.3 573.5C376.3 568.5 384 556.9 384 544L384 474.5L352 442.5L352 544L288 480L288 378.5L256 346.5L256 365.2z"/></svg>