<svg xmlns="http://www.w3.org/2000/svg" viewBox="0 0 640 640"><!--! Font Awesome Pro 7.1.0 by @fontawesome - https://fontawesome.com License - https://fontawesome.com/license (Commercial License) Copyright 2025 Fonticons, Inc. --><path fill="currentColor" d="M265.4 267.3L372.7 160L75.3 160L182.6 267.3C188.6 273.3 192 281.4 192 289.9L192 404.6L256 468.6L256 289.9C256 281.4 259.4 273.3 265.4 267.3zM409 169L288 290L288 488.1C288 497.8 282.2 506.6 273.2 510.3C264.2 514 253.9 512 247 505.1L167 425.1C162.5 420.6 160 414.5 160 408.1L160 289.9L39 169C32.2 162.1 30.1 151.8 33.8 142.8C37.5 133.8 46.3 128 56 128L392 128C401.7 128 410.5 133.8 414.2 142.8C417.9 151.8 415.9 162.1 409 169zM496 128L560 128C568.8 128 576 135.2 576 144C576 152.8 568.8 160 560 160L496 160C487.2 160 480 152.8 480 144C480 135.2 487.2 128 496 128zM368 304L560 304C568.8 304 576 311.2 576 320C576 328.8 568.8 336 560 336L368 336C359.2 336 352 328.8 352 320C352 311.2 359.2 304 368 304zM368 480L560 480C568.8 480 576 487.2 576 496C576 504.8 568.8 512 560 512L368 512C359.2 512 352 504.8 352 496C352 487.2 359.2 480 368 480z"/></svg>