<svg xmlns="http://www.w3.org/2000/svg" viewBox="0 0 640 640"><!--! Font Awesome Pro 7.1.0 by @fontawesome - https://fontawesome.com License - https://fontawesome.com/license (Commercial License) Copyright 2025 Fonticons, Inc. --><path fill="currentColor" d="M34.4 147.8C39.4 135.8 51.1 128 64 128L512 128C524.9 128 536.6 135.8 541.6 147.8C546.6 159.8 543.8 173.5 534.7 182.7L444.3 273C422 275.3 400.8 281.4 381.4 290.6L512 160L64 160L251.3 347.3C254.3 350.3 256 354.4 256 358.6L256 480L275.2 499.2C280.2 526 290.7 550.9 305.6 572.6C302.6 571.1 299.8 569.1 297.3 566.6L233.3 502.6C227.3 496.6 223.9 488.5 223.9 480L224 365.3L41.4 182.6C32.2 173.5 29.5 159.7 34.4 147.8zM576 464C576 402.1 525.9 352 464 352C402.1 352 352 402.1 352 464C352 525.9 402.1 576 464 576C525.9 576 576 525.9 576 464zM320 464C320 384.5 384.5 320 464 320C543.5 320 608 384.5 608 464C608 543.5 543.5 608 464 608C384.5 608 320 543.5 320 464zM523.3 427.3L486.6 464L523.3 500.7C529.5 506.9 529.5 517.1 523.3 523.3C517.1 529.5 506.9 529.5 500.7 523.3L464 486.6L427.3 523.3C421.1 529.5 410.9 529.5 404.7 523.3C398.5 517.1 398.5 506.9 404.7 500.7L441.4 464L404.7 427.3C398.5 421.1 398.5 410.9 404.7 404.7C410.9 398.5 421.1 398.5 427.3 404.7L464 441.4L500.7 404.7C506.9 398.5 517.1 398.5 523.3 404.7C529.5 410.9 529.5 421.1 523.3 427.3z"/></svg>