<svg xmlns="http://www.w3.org/2000/svg" viewBox="0 0 640 640"><!--! Font Awesome Pro 7.1.0 by @fontawesome - https://fontawesome.com License - https://fontawesome.com/license (Commercial License) Copyright 2025 Fonticons, Inc. --><path fill="currentColor" d="M96 320C96 196.3 196.3 96 320 96C390.3 96 453 128.4 494.1 179C499.7 185.9 509.7 186.9 516.6 181.4C523.5 175.9 524.5 165.8 519 158.9C472.1 101 400.3 64 320 64C178.6 64 64 178.6 64 320L64 368C64 376.8 71.2 384 80 384C88.8 384 96 376.8 96 368L96 320zM566.8 251.7C564.4 243.2 555.6 238.2 547.1 240.5C538.6 242.8 533.6 251.7 535.9 260.2C541.1 279.2 544 299.2 544 319.9L544 367.9C544 376.7 551.2 383.9 560 383.9C568.8 383.9 576 376.7 576 367.9L576 319.9C576 296.3 572.8 273.4 566.8 251.6zM320 144C297.2 144 275.4 148.3 255.4 156.2C245.7 160 243.4 172.3 250.2 180.3C255 185.9 263 187.5 269.9 184.9C285.5 179.1 302.4 175.9 320 175.9C399.5 175.9 464 240.4 464 319.9L464 344.8C464 373.1 462.2 401.4 458.5 429.4C457.2 439.1 464.7 447.9 474.5 447.9C482.4 447.9 489.1 442.1 490.1 434.3C494 404.7 495.9 374.8 495.9 344.8L495.9 319.9C495.9 222.7 417.1 143.9 319.9 143.9zM209.1 206.1C203.1 199.1 192.3 198.5 186.3 205.6C159.9 236.4 144 276.3 144 320L144 344.9C144 372.7 140.6 400.3 133.8 427.2C131.2 437.6 138.8 448 149.5 448C156.5 448 162.7 443.4 164.5 436.6C172.2 406.7 176.1 375.9 176.1 344.9L176.1 320C176.1 285.3 188.4 253.5 208.8 228.6C214.2 222.1 214.6 212.5 209.1 206.1zM320 224C267 224 224 267 224 320L224 344.9C224 383.5 218.6 421.9 208.1 458.9C205.1 469.3 212.8 480 223.6 480C230.5 480 236.6 475.5 238.5 468.9C250.1 428.7 256 386.9 256 344.9L256 320C256 284.7 284.7 256 320 256C355.3 256 384 284.7 384 320L384 344.9C384 383.7 380.1 422.4 372.3 460.3C370.2 470.4 377.8 480 388.1 480C395.5 480 402 474.9 403.5 467.6C411.8 427.3 416 386.2 416 344.9L416 320C416 267 373 224 320 224zM336 320C336 311.2 328.8 304 320 304C311.2 304 304 311.2 304 320L304 344.9C304 405.8 292.8 466.1 270.9 523L265 538.3C261.8 546.5 265.9 555.8 274.2 559C282.5 562.2 291.7 558.1 294.9 549.8L300.8 534.5C324.1 474 336 409.7 336 344.9L336 320z"/></svg>