<svg xmlns="http://www.w3.org/2000/svg" viewBox="0 0 640 640"><!--! Font Awesome Pro 7.1.0 by @fontawesome - https://fontawesome.com License - https://fontawesome.com/license (Commercial License) Copyright 2025 Fonticons, Inc. --><path fill="currentColor" d="M254 84.2C260.1 77.9 265.9 72.2 271.7 66.9C280.5 75.8 289 85.7 297.6 96.2C310.4 111.8 325.6 132.3 340.3 156.7C345.8 165.8 355.5 171.6 366.1 172.1C376.7 172.6 386.9 167.9 393.3 159.4C394.6 157.7 395.9 156 397.1 154.3L397.1 154.3C403.6 145.6 409.6 137.6 416.1 130.9C433.1 147.9 447.7 170.4 461.2 192.2C486.8 233.6 512 290.1 512 352C512 458 426 544 320 544C214 544 128 458 128 352C128 270.4 165 198 202.5 145.7C221.2 119.6 239.9 98.7 254 84.2zM272.6 34C265.3 33.8 257.9 36.2 252.2 41.3C244.9 47.8 237.9 54.7 231.1 61.8C216.2 77.1 196.4 99.3 176.5 126.9C137.1 181.9 96 260.8 96 351.9C96 475.6 196.3 575.9 320 575.9C443.7 575.9 544 475.7 544 352C544 281.7 515.6 219.3 488.4 175.4C474.4 152.8 457.2 125.9 435.9 105.5C430.2 100 423.8 96.1 416 96.1C408.5 96.1 402.1 100.1 396.4 105.4C386.7 114.5 378.2 126.1 371.1 135.6L371.1 135.6C369.9 137.2 368.8 138.7 367.7 140.2C352 114.3 335.9 92.6 322.4 76C313 64.5 303.2 53.1 292.6 42.6C287.2 37.2 280 34.3 272.6 34.1zM224 370.8C224 331.2 251.4 297.1 269.2 279.3C285.6 300.1 316.6 339.5 333.6 361.2C346.1 377.1 369.9 377.5 383 362.2L406.1 335.3C436.9 396.7 390 463.9 321.6 463.9C293.4 463.9 269 454.9 251.8 439.2C234.8 423.7 223.8 400.8 223.8 370.7zM293.5 258.4C282.8 244.8 262 241.6 248.3 255C229.5 273.3 192 316.3 192 370.8C192 409.3 206.3 441 230.4 463C254.3 484.8 286.8 496 321.7 496C411.6 496 480 403.8 432.7 317.1C422.2 296.7 396.7 297.2 383.9 312.1L358.7 341.4C341.4 319.3 309.6 279 293.4 258.4z"/></svg>