<svg xmlns="http://www.w3.org/2000/svg" viewBox="0 0 640 640"><!--! Font Awesome Pro 7.1.0 by @fontawesome - https://fontawesome.com License - https://fontawesome.com/license (Commercial License) Copyright 2025 Fonticons, Inc. --><path fill="currentColor" d="M576 96L64 96L64 160L576 160L576 96zM64 560L64 192C46.3 192 32 177.7 32 160L32 96C32 78.3 46.3 64 64 64L576 64C593.7 64 608 78.3 608 96L608 160C608 177.7 593.7 192 576 192L576 560C576 568.8 568.8 576 560 576L480 576C471.2 576 464 568.8 464 560C464 551.2 471.2 544 480 544L544 544L544 192L96 192L96 544L160 544C168.8 544 176 551.2 176 560C176 568.8 168.8 576 160 576L80 576C71.2 576 64 568.8 64 560zM290.1 288C270.7 305.7 249.7 328.5 233.3 353.2C216.1 379.3 205.1 406 205.1 430.7C205.1 460.1 215.9 486.7 233.7 506.9C233.1 502.9 232.7 498.8 232.7 494.7C232.7 442.5 290.7 394.3 312.1 378.2C316.8 374.7 323.1 374.7 327.8 378.2C349.3 394.3 407.2 442.6 407.2 494.7C407.2 498.9 406.9 502.9 406.2 506.9C424 486.7 434.8 460 434.8 430.7C434.8 387.5 405.1 341.3 373.7 311.4C368.2 316.7 360.5 324.9 356.2 329.5C348.1 338.1 334.3 337.7 326.7 328.6C314.3 313.6 303.1 300.4 289.9 288.1zM320 545.6C326.9 545.6 333.6 545 340.2 543.9C363.2 536.3 378.2 516 378.2 494.7C378.2 478.9 369 460.4 353.3 441.5C342.3 428.3 329.8 417 320 408.9C310.2 416.9 297.8 428.2 286.7 441.5C271 460.4 261.8 478.9 261.8 494.7C261.8 516 276.8 536.3 299.8 543.9C306.4 545 313.1 545.6 320 545.6zM271.3 261.9C277.3 256.5 285.2 254.7 291 254.7C298.7 254.8 304.5 257.9 309 262C321.5 273.3 332.3 285.3 342.6 297.5C346.9 293.1 351.5 288.5 354.8 285.4C365.6 275.6 382.2 275.6 392.9 285.5C428 317.9 466.9 373.4 466.9 430.8C466.9 512.4 401.6 577.7 320 577.7C238.4 577.7 173.1 512.2 173.1 430.7C173.1 397.1 187.8 364.1 206.6 335.6C225.6 306.9 249.8 281.2 271.3 261.9z"/></svg>