<svg xmlns="http://www.w3.org/2000/svg" viewBox="0 0 640 640"><!--! Font Awesome Pro 7.1.0 by @fontawesome - https://fontawesome.com License - https://fontawesome.com/license (Commercial License) Copyright 2025 Fonticons, Inc. --><path fill="currentColor" d="M288.1 64.2C282 64.2 273.7 66.1 267.5 71.7C243.9 92.9 217.4 121 196.6 152.5C176 183.7 160 219.8 160 256.2C160 345 231.2 416.2 320 416.2C408.8 416.2 480 345 480 256.2C480 193.7 437.6 133.1 399.1 97.6C387.9 87.3 370.6 87.3 359.4 97.5C355.4 101.2 349.8 106.8 344.8 112C333.1 98.1 321 84.6 306.8 71.7C302.1 67.5 296.1 64.2 288.1 64.1zM328.8 142.8C336.5 152.1 350.5 152.5 358.8 143.7C363.8 138.4 373.2 128.5 379.3 122.7C414.4 155.7 448.1 207.5 448.1 256.2C448.1 289.8 435.4 320.3 414.5 343C415.6 337.7 416.1 332.2 416.1 326.6C416.1 269.2 352.3 216.1 328.7 198.4C323.5 194.5 316.6 194.5 311.4 198.4C287.8 216.1 224 269.2 224 326.6C224 332.2 224.6 337.7 225.6 343C204.7 320.3 192 289.8 192 256.2C192 228.7 204.3 198.9 223.3 170.1C241.7 142.3 265.4 116.8 287.1 97.1C302.1 110.9 314.8 125.9 328.8 142.8zM320.1 384.2L320 384.2C282.5 384.2 256 356.4 256 326.6C256 309.2 266.1 288.9 283.4 268.1C295.5 253.6 309.2 241.1 320 232.3C330.7 241.1 344.5 253.6 356.6 268.1C373.9 288.8 384 309.2 384 326.6C384 356.3 357.5 384.1 320.1 384.2zM156.8 384L112 384C85.5 384 64 405.5 64 432L64 496C64 522.5 85.5 544 112 544L528 544C554.5 544 576 522.5 576 496L576 432C576 405.5 554.5 384 528 384L483 384C473.8 395.7 463.4 406.5 452 416L528.1 416C536.9 416 544.1 423.2 544.1 432L544.1 496C544.1 504.8 536.9 512 528.1 512L112 512C103.2 512 96 504.8 96 496L96 432C96 423.2 103.2 416 112 416L187.7 416C176.3 406.5 165.9 395.7 156.8 384zM496 488C509.3 488 520 477.3 520 464C520 450.7 509.3 440 496 440C482.7 440 472 450.7 472 464C472 477.3 482.7 488 496 488z"/></svg>