<svg xmlns="http://www.w3.org/2000/svg" viewBox="0 0 640 640"><!--! Font Awesome Pro 7.1.0 by @fontawesome - https://fontawesome.com License - https://fontawesome.com/license (Commercial License) Copyright 2025 Fonticons, Inc. --><path fill="currentColor" d="M181.9 250.1C147.4 284.6 128 331.4 128 380.2L128 391.7C128 493.5 210.5 576 312.3 576L327.4 576C429.3 576 512 493.4 512 391.4C512 325.3 484.9 262.2 437.1 216.6L358.9 142.2C349.4 133.1 344 120.6 344 107.4L344 85.3C344 73.5 334.4 64 322.7 64C316 64 309.7 67.2 305.6 72.5L286.1 98.5C271.7 117.8 262.9 140.7 260.9 164.7L260 175.5C259.1 186.8 259.6 198 261.6 209C264.4 224.3 269.9 238.9 278 252.3C278.6 253.4 279.3 254.4 280 255.5C281.6 258 283.4 260.5 285.2 263L317.2 305.7C324.2 315 328 326.4 328 338.1L328 352.1C328 374.2 310.1 392.1 288 392.1C265.9 392.1 248 374.2 248 352.1L248 252.4C248 241.6 241.9 232.2 233 227.4C229 225.3 224.5 224.1 219.7 224.1C212.2 224.1 205 227.1 199.7 232.4L181.9 250.1zM312.5 116.6C314.6 135.1 323.2 152.4 336.8 165.3L415 239.8C456.5 279.3 480 334.1 480 391.4C480 475.7 411.7 544 327.4 544L312.3 544C228.2 544 160 475.8 160 391.7L160 380.2C160 339.9 176 301.2 204.5 272.7L216 261.3L216 352C216 391.8 248.2 424 288 424C327.8 424 360 391.8 360 352L360 338C360 319.4 354 301.3 342.8 286.4L310.8 243.7C296.7 224.9 290 201.6 291.9 178.1L292.8 167.3C294.3 149.3 300.8 132.1 311.7 117.7L312.5 116.6zM331.2 91.7L331.2 91.7L331.2 91.7L331.2 91.7z"/></svg>