<svg xmlns="http://www.w3.org/2000/svg" viewBox="0 0 640 640"><!--! Font Awesome Pro 7.1.0 by @fontawesome - https://fontawesome.com License - https://fontawesome.com/license (Commercial License) Copyright 2025 Fonticons, Inc. --><path fill="currentColor" d="M288.1 64.2C282 64.2 273.7 66.1 267.5 71.7C243.9 92.9 217.4 121 196.6 152.5C176 183.7 160 219.8 160 256.2C160 273 162.5 289.1 167.3 304.3C170.2 304.1 173.1 304.1 176 304.1C184.8 304.1 193.5 304.8 202 306.2C195.6 290.9 192 274 192 256.2C192 228.7 204.3 198.9 223.3 170.1C241.7 142.3 265.4 116.8 287.1 97.1C302.1 110.9 314.8 125.9 328.8 142.8C336.5 152.1 350.5 152.5 358.8 143.7C363.8 138.4 373.2 128.5 379.3 122.7C414.4 155.7 448.1 207.5 448.1 256.2C448.1 274 444.6 290.8 438.1 306.2C446.6 304.8 455.2 304.1 464.1 304.1C467 304.1 469.9 304.2 472.8 304.3C477.5 289.1 480.1 273 480.1 256.2C480.1 193.7 437.7 133.1 399.2 97.6C388 87.3 370.7 87.3 359.5 97.5C355.5 101.2 349.9 106.8 344.9 112C333.2 98.1 321.1 84.6 306.9 71.7C302.2 67.5 296.2 64.2 288.2 64.1zM320 416.2C321 416.2 321.9 416.2 322.9 416.2C321 416 319 416 317.2 416.2C318.2 416.2 319.1 416.2 320.1 416.2zM276 277.6C278.3 274.5 280.8 271.3 283.4 268.1C295.5 253.6 309.2 241.1 320 232.3C330.7 241.1 344.5 253.6 356.6 268.1C359.2 271.3 361.7 274.4 364 277.6C380.7 281.9 396.4 288.6 410.8 297.2C395.1 251.8 348.2 213 328.7 198.4C323.5 194.5 316.6 194.5 311.4 198.4C291.9 213 245 251.8 229.3 297.2C243.7 288.5 259.4 281.9 276.1 277.6zM320 320C281.9 320 247.8 336.6 224.3 362.9C209.7 355.9 193.3 352 176 352C114.1 352 64 402.1 64 464C64 525.9 114.1 576 176 576L464 576C525.9 576 576 525.9 576 464C576 402.1 525.9 352 464 352C446.7 352 430.3 355.9 415.7 362.9C392.3 336.6 358.1 320 320 320zM241.5 392.8C258.9 368.1 287.6 352 320 352C352.4 352 381.1 368.1 398.5 392.8C403.5 399.8 413.1 401.7 420.3 397C432.8 388.8 447.8 384.1 464 384.1C508.2 384.1 544 419.9 544 464.1C544 508.3 508.2 544.1 464 544.1L176 544.1C131.8 544.1 96 508.3 96 464.1C96 419.9 131.8 384.1 176 384.1C192.1 384.1 207.1 388.9 219.7 397C226.9 401.7 236.6 399.9 241.5 392.8z"/></svg>