<svg xmlns="http://www.w3.org/2000/svg" viewBox="0 0 640 640"><!--! Font Awesome Pro 7.1.0 by @fontawesome - https://fontawesome.com License - https://fontawesome.com/license (Commercial License) Copyright 2025 Fonticons, Inc. --><path fill="currentColor" d="M320 64C328.8 64 336 71.2 336 80L336 97C393.9 104.2 439.8 150.1 447 208L464 208C472.8 208 480 215.2 480 224C480 232.8 472.8 240 464 240L448 240L448 288L464 288C490.5 288 512 309.5 512 336L512 432C512 458.5 490.5 480 464 480L448 480L448 544L464 544C472.8 544 480 551.2 480 560C480 568.8 472.8 576 464 576L176 576C167.2 576 160 568.8 160 560C160 551.2 167.2 544 176 544L192 544L192 480L176 480C149.5 480 128 458.5 128 432L128 336C128 309.5 149.5 288 176 288L192 288L192 240L176 240C167.2 240 160 232.8 160 224C160 215.2 167.2 208 176 208L193 208C200.2 150.1 246.1 104.2 304 97L304 80C304 71.2 311.2 64 320 64zM320 128C272.4 128 232.9 162.6 225.3 208L414.6 208C407 162.6 367.5 128 319.9 128zM192 320L176 320C167.2 320 160 327.2 160 336L160 432C160 440.8 167.2 448 176 448L192 448L192 320zM224 464L224 544L416 544L416 240L224 240L224 464zM448 448L464 448C472.8 448 480 440.8 480 432L480 336C480 327.2 472.8 320 464 320L448 320L448 448zM352 384C352 366.3 337.7 352 320 352C302.3 352 288 366.3 288 384C288 401.7 302.3 416 320 416C337.7 416 352 401.7 352 384zM256 384C256 348.7 284.7 320 320 320C355.3 320 384 348.7 384 384C384 419.3 355.3 448 320 448C284.7 448 256 419.3 256 384z"/></svg>