<svg xmlns="http://www.w3.org/2000/svg" viewBox="0 0 640 640"><!--! Font Awesome Pro 7.1.0 by @fontawesome - https://fontawesome.com License - https://fontawesome.com/license (Commercial License) Copyright 2025 Fonticons, Inc. --><path fill="currentColor" d="M194.4 370.8C205.5 384.2 218.5 397.6 233.1 410C268.6 440 314.5 464 367.9 464C474.9 464 551.1 368 575.9 320C551.1 272 474.9 176 367.9 176C314.4 176 268.6 200 233.1 230C218.5 242.4 205.5 255.8 194.4 269.2L177.1 290C172.6 287.4 134.9 265.4 64 224L109.8 304.1L118.9 320L109.8 335.9L64 416C134.9 374.7 172.6 352.7 177.1 350L194.4 370.8zM36.2 400.1L82 320L36.2 239.9C29 227.3 31.2 211.5 41.5 201.3C51.8 191.1 67.6 189.1 80.2 196.4L169.9 248.7C182.1 234.1 196.4 219.3 212.6 205.6C251.8 172.5 304.6 144.1 368.1 144.1C431.6 144.1 484.4 172.6 523.6 205.6C562.7 238.6 590.5 278 604.6 305.4C609.3 314.6 609.3 325.5 604.6 334.7C590.5 362.1 562.7 401.5 523.6 434.5C484.4 467.6 431.6 496 368.1 496C304.6 496 251.8 467.5 212.6 434.5C196.4 420.8 182.1 406 169.9 391.4L80.1 443.6C67.6 450.9 51.7 448.9 41.4 438.7C31.1 428.5 29 412.7 36.1 400.1zM448 296C461.3 296 472 306.7 472 320C472 333.3 461.3 344 448 344C434.7 344 424 333.3 424 320C424 306.7 434.7 296 448 296z"/></svg>