<svg xmlns="http://www.w3.org/2000/svg" viewBox="0 0 640 640"><!--! Font Awesome Pro 7.1.0 by @fontawesome - https://fontawesome.com License - https://fontawesome.com/license (Commercial License) Copyright 2025 Fonticons, Inc. --><path fill="currentColor" d="M279.8 212C293.2 205.8 300.6 191.2 297.7 176.7L288 128L365.6 186.2C370.5 189.9 376.4 192.1 382.5 192.5C429.7 195.9 470.5 215.7 502.8 240C538.3 266.7 563.6 298.7 576 320C563.6 341.3 538.4 373.3 502.8 400C470.5 424.2 429.7 444.1 382.5 447.5C376.4 447.9 370.5 450.1 365.6 453.8L288 512L297.7 463.4C300.6 448.9 293.2 434.3 279.8 428.1C262.7 420.2 247.1 410.5 233.2 400.1C219.4 389.7 207.1 378.5 196.4 367.3C186.2 356.6 169.9 354.3 157.1 361.8L64 416L109.8 335.9C115.4 326.1 115.4 314 109.8 304.1L64 224L157.1 278.3C169.9 285.8 186.1 283.5 196.4 272.8C207.1 261.6 219.4 250.4 233.2 240C247.1 229.5 262.8 219.8 279.8 212zM41.5 201.3C31.2 211.5 29 227.3 36.2 239.9L82 320L36.2 400.1C29 412.7 31.2 428.5 41.5 438.7C51.8 448.9 67.6 450.9 80.1 443.6L173.2 389.3C185 401.6 198.6 414.1 213.9 425.6C229.4 437.2 246.9 448.1 266.3 457.1L256.6 505.7C254 518.7 259.7 532 270.9 539C282.1 546 296.5 545.5 307.2 537.5L384.8 479.3C439.7 475.3 486.3 452.3 522 425.5C561.2 396.1 589.2 360.8 603.6 336C609.4 326.1 609.4 313.8 603.6 303.9C589.2 279.1 561.1 243.8 522 214.4C486.2 187.6 439.7 164.6 384.8 160.6L307.2 102.4C296.6 94.4 282.2 93.9 270.9 100.9C259.6 107.9 254 121.3 256.6 134.3L266.3 182.9C246.9 191.9 229.4 202.8 213.9 214.4C198.6 225.9 184.9 238.3 173.2 250.7L80.1 196.4C67.6 189.1 51.7 191.1 41.5 201.3zM448 344C461.3 344 472 333.3 472 320C472 306.7 461.3 296 448 296C434.7 296 424 306.7 424 320C424 333.3 434.7 344 448 344z"/></svg>