<svg xmlns="http://www.w3.org/2000/svg" viewBox="0 0 640 640"><!--! Font Awesome Pro 7.1.0 by @fontawesome - https://fontawesome.com License - https://fontawesome.com/license (Commercial License) Copyright 2025 Fonticons, Inc. --><path fill="currentColor" d="M376.4 96C372.5 96 368.5 96.6 364.7 97.8L300.2 117.6C226.4 140.3 176 208.5 176 285.8L176 352L184 352C206.1 352 224 369.9 224 392L224 536C224 558.1 206.1 576 184 576L136 576C113.9 576 96 558.1 96 536L96 392C96 369.9 113.9 352 136 352L144 352L144 285.8C144 194.5 203.6 113.9 290.8 87L355.3 67.2C362.1 65.1 369.2 64 376.4 64C415.9 64 448 96.1 448 135.6L448 200C448 208.8 440.8 216 432 216C423.2 216 416 208.8 416 200L416 135.6C416 113.7 398.3 96 376.4 96zM424.9 241.7C429.4 239.4 434.7 239.4 439.2 241.7C457.1 250.6 482.9 268.8 504.4 295.1C526 321.5 544 357 544 400C544 433.5 528.9 480.9 485.8 515.8L509.3 551.1C512.6 556 512.9 562.3 510.1 567.5C507.3 572.7 501.9 576 496 576L368 576C362.1 576 356.7 572.8 353.9 567.5C351.1 562.2 351.4 556 354.7 551.1L378.2 515.8C335.1 480.9 320 433.5 320 400C320 356.9 338 321.5 359.6 295.1C381.1 268.8 407 250.7 424.8 241.7zM352 400C352 427.3 365.9 470 408.9 498.7C416.3 503.6 418.2 513.5 413.3 520.9L397.9 544L466.1 544L450.7 520.9C445.8 513.5 447.8 503.6 455.1 498.7C498.1 470 512 427.3 512 400C512 366.3 498 337.7 479.6 315.3C464 296.3 445.8 282.3 432 274.2C418.2 282.3 400 296.3 384.4 315.3C366 337.7 352 366.2 352 400zM184 384L136 384C131.6 384 128 387.6 128 392L128 536C128 540.4 131.6 544 136 544L184 544C188.4 544 192 540.4 192 536L192 392C192 387.6 188.4 384 184 384zM456 352C469.3 352 480 362.7 480 376C480 389.3 469.3 400 456 400C442.7 400 432 389.3 432 376C432 362.7 442.7 352 456 352z"/></svg>