<svg xmlns="http://www.w3.org/2000/svg" viewBox="0 0 640 640"><!--! Font Awesome Pro 7.1.0 by @fontawesome - https://fontawesome.com License - https://fontawesome.com/license (Commercial License) Copyright 2025 Fonticons, Inc. --><path fill="currentColor" d="M175.4 255.2C196.8 231.6 225 207.6 256.1 189.6C287.3 171.5 320.4 160 352 160C403.6 160 460.2 186.5 504.4 221.5C526.4 238.9 544.6 257.9 557.3 275.8C570.3 294.2 576 309.5 576 320C576 330.5 570.3 345.8 557.3 364.2C544.7 382.1 526.4 401.1 504.4 418.5C460.1 453.6 403.5 480 352 480C320.4 480 287.3 468.5 256.1 450.4C225 432.4 196.8 408.4 175.4 384.8C170 378.9 161.1 377.8 154.5 382.4L69.6 440.8L94.1 330.4C95.6 323.5 95.6 316.4 94.1 309.6L69.6 199.2L154.5 257.6C161.1 262.1 170 261.1 175.4 255.2zM352 128C312.9 128 274.2 142.1 240.1 161.9C210.3 179.1 183.3 201.2 161.4 223.5L75.7 164.6C71.3 161.6 66.1 160 60.8 160C44 160 31.5 175.6 35.2 192L62.8 316.5C63.3 318.8 63.3 321.2 62.8 323.4L35.2 448C31.6 464.4 44 480 60.8 480C66.1 480 71.3 478.4 75.7 475.4C66.6 462.2 66.6 462.2 75.7 475.4L161.3 416.5C183.2 438.9 210.3 460.9 240 478.1C274.2 497.9 312.9 512 351.9 512C413.3 512 476.7 481.1 524.2 443.5C548.1 424.6 568.6 403.4 583.4 382.6C597.8 362.2 607.9 340.2 607.9 320C607.9 299.8 597.7 277.8 583.4 257.4C568.7 236.6 548.2 215.4 524.2 196.5C476.7 158.9 413.3 128 351.9 128zM347.3 235.3C353.5 229.1 353.5 218.9 347.3 212.7C341.1 206.5 330.9 206.5 324.7 212.7L260.7 276.7C254.5 282.9 254.5 293.1 260.7 299.3C266.9 305.5 277.1 305.5 283.3 299.3L347.3 235.3zM459.3 251.3C465.5 245.1 465.5 234.9 459.3 228.7C453.1 222.5 442.9 222.5 436.7 228.7L276.7 388.7C270.5 394.9 270.5 405.1 276.7 411.3C282.9 417.5 293.1 417.5 299.3 411.3L459.3 251.3zM475.3 363.3C481.5 357.1 481.5 346.9 475.3 340.7C469.1 334.5 458.9 334.5 452.7 340.7L388.7 404.7C382.5 410.9 382.5 421.1 388.7 427.3C394.9 433.5 405.1 433.5 411.3 427.3L475.3 363.3z"/></svg>