<svg xmlns="http://www.w3.org/2000/svg" viewBox="0 0 640 640"><!--! Font Awesome Pro 7.1.0 by @fontawesome - https://fontawesome.com License - https://fontawesome.com/license (Commercial License) Copyright 2025 Fonticons, Inc. --><path fill="currentColor" d="M128 80C128 71.2 120.8 64 112 64C103.2 64 96 71.2 96 80L96 560C96 568.8 103.2 576 112 576C120.8 576 128 568.8 128 560L128 448L520 448C533.3 448 544 437.3 544 424C544 418.8 542.3 413.8 539.2 409.6L448 288L539.2 166.4C542.3 162.2 544 157.2 544 152C544 138.7 533.3 128 520 128L128 128L128 80zM128 160L504 160L422.4 268.8C413.9 280.2 413.9 295.8 422.4 307.2L504 416L128 416L128 160z"/></svg>