<svg xmlns="http://www.w3.org/2000/svg" viewBox="0 0 640 640"><!--! Font Awesome Pro 7.1.0 by @fontawesome - https://fontawesome.com License - https://fontawesome.com/license (Commercial License) Copyright 2025 Fonticons, Inc. --><path fill="currentColor" d="M128 80C128 71.2 120.8 64 112 64C103.2 64 96 71.2 96 80L96 560C96 568.8 103.2 576 112 576C120.8 576 128 568.8 128 560L128 456L224.3 431.9C265.4 421.6 308.9 426.4 346.8 445.3C391 467.4 442.3 470.1 488.5 452.7L523.2 439.7C535.7 435 544 423.1 544 409.7L544 130C544 107 519.8 92 499.2 102.3L489.6 107.1C443.3 130.3 388.8 130.3 342.5 107.1C307.4 89.5 267.1 85.1 229 94.6L128 120L128 80zM128 378.6L235.1 355.6C268.7 348.4 303.7 351.2 335.8 363.7L361.6 373.7C406.8 391.3 456.7 392.5 502.8 377.2L512 374.1L512 409.7L477.3 422.7C439.4 436.9 397.3 434.7 361.1 416.6C316.4 394.2 265.1 388.6 216.6 400.7L128 423L128 378.6zM128 345.9L128 306.6L230.2 284.7C266.6 276.9 304.5 280.8 338.6 296L352.4 302.2C403 324.7 460.4 326.1 512 306.1L512 340.5L492.7 346.9C453.8 359.9 411.5 358.8 373.3 344L347.5 334C309.6 319.3 268.3 316 228.5 324.5L128 345.9zM128 273.9L128 153L236.7 125.8C243.1 124.2 249.5 123.1 256 122.5L256 249.2C245.1 249.8 234.3 251.2 223.5 253.5L128 273.9zM288 249.9L288 202.1C305.4 204.2 322.4 208.8 338.6 216L352.4 222.2C403 244.7 460.4 246.1 512 226.1L512 271.8L500.7 276.2C457 293.2 408.3 292 365.4 273L351.6 266.8C331.3 257.8 309.8 252.1 288 249.9zM288 169.9L288 123.3C301.9 125.3 315.4 129.5 328.1 135.9C383.4 163.6 448.5 163.6 503.9 135.9L512 131.8L512 191.7L500.7 196.1C457 213.1 408.3 211.9 365.4 192.9L351.6 186.7C331.3 177.7 309.8 172 288 169.8zM184 184C184 175.2 176.8 168 168 168C159.2 168 152 175.2 152 184C152 192.8 159.2 200 168 200C176.8 200 184 192.8 184 184zM216 184C224.8 184 232 176.8 232 168C232 159.2 224.8 152 216 152C207.2 152 200 159.2 200 168C200 176.8 207.2 184 216 184zM184 232C184 223.2 176.8 216 168 216C159.2 216 152 223.2 152 232C152 240.8 159.2 248 168 248C176.8 248 184 240.8 184 232zM216 232C224.8 232 232 224.8 232 216C232 207.2 224.8 200 216 200C207.2 200 200 207.2 200 216C200 224.8 207.2 232 216 232z"/></svg>