<svg xmlns="http://www.w3.org/2000/svg" viewBox="0 0 640 640"><!--! Font Awesome Pro 7.1.0 by @fontawesome - https://fontawesome.com License - https://fontawesome.com/license (Commercial License) Copyright 2025 Fonticons, Inc. --><path fill="currentColor" d="M128 80C128 71.2 120.8 64 112 64C103.2 64 96 71.2 96 80L96 560C96 568.8 103.2 576 112 576C120.8 576 128 568.8 128 560L128 456L224.3 431.9C265.4 421.6 308.9 426.4 346.8 445.3C391 467.4 442.3 470.1 488.5 452.7L523.2 439.7C535.7 435 544 423.1 544 409.7L544 130C544 107 519.8 92 499.2 102.3L489.6 107.1C443.3 130.3 388.8 130.3 342.5 107.1C307.4 89.5 267.1 85.1 229 94.6L128 120L128 80zM128 153L236.7 125.8C267.4 118.1 299.8 121.7 328.1 135.8C383.4 163.5 448.5 163.5 503.9 135.8L512 131.7L512 409.7L477.3 422.7C439.4 436.9 397.3 434.7 361.1 416.6C316.4 394.2 265.1 388.6 216.6 400.7L128 423L128 153z"/></svg>