<svg xmlns="http://www.w3.org/2000/svg" viewBox="0 0 640 640"><!--! Font Awesome Pro 7.1.0 by @fontawesome - https://fontawesome.com License - https://fontawesome.com/license (Commercial License) Copyright 2025 Fonticons, Inc. --><path fill="currentColor" d="M128 80C128 71.2 120.8 64 112 64C103.2 64 96 71.2 96 80L96 560C96 568.8 103.2 576 112 576C120.8 576 128 568.8 128 560L128 460.2L229.8 432.4C266.2 422.5 304.9 426.3 338.6 443.2C387.3 467.6 444.3 469.2 494.4 447.8L524.6 434.9C536.4 429.9 544 418.3 544 405.5L544 123.3C544 98.9 517.6 83.5 496.4 95.7L480.6 104.7C440 127.9 390.4 129.3 348.5 108.4C310.6 89.5 267.1 85.2 226.3 96.3L128 123.1L128 80zM128 156.2L224 130L224 197.5L128 218.4L128 156.2zM128 251.1L224 230.2L224 301.5L128 322.4L128 251.1zM256 223.3C275.6 219 295.5 218.8 314.8 224.5C337.8 231.3 360.7 238.6 384 244.8L384 315.5C342.2 303.2 300.2 286 256 294.6L256 223.3zM416 250.2C448.9 252.6 480.3 243.4 512 236.1L512 307.3C480.6 314.6 448.6 325 416 322.1L416 250.2zM384 348.9L384 426.2C373.4 423.5 363 419.7 353 414.7C322.8 399.6 289.3 393.1 256 395.7L256 327.4C300.5 317.7 341.7 337.7 384 348.9zM416 430.7L416 354.2C448.9 356.6 480.3 347.4 512 340.1L512 405.4L481.8 418.3C460.8 427.3 438.3 431.4 416 430.6zM416 218.1L416 155.1C451.4 154.1 481.9 140.8 512 123.6L512 203.3C480.6 210.6 448.6 221 416 218.1zM384 153L384 211.6L323.9 193.9C301.8 187.4 278.6 186.3 256 190.6L256 123C282.7 120 309.9 124.8 334.2 136.9C350.1 144.9 366.9 150.2 384 152.9zM128 355.2L224 334.3L224 400.9C191.9 409.2 160 418.3 128 427.1L128 355.2z"/></svg>