<svg xmlns="http://www.w3.org/2000/svg" viewBox="0 0 640 640"><!--! Font Awesome Pro 7.1.0 by @fontawesome - https://fontawesome.com License - https://fontawesome.com/license (Commercial License) Copyright 2025 Fonticons, Inc. --><path fill="currentColor" d="M224 384L224 96L240 96C248.8 96 256 88.8 256 80C256 71.2 248.8 64 240 64L16 64C7.2 64 0 71.2 0 80C0 88.8 7.2 96 16 96L32 96L32 384C32 437 75 480 128 480C154.7 480 178.9 469.1 196.3 451.4L224 387C224 386 224 385 224 384zM64 96L192 96L192 224L64 224L64 96zM64 256L192 256L192 384C192 419.3 163.3 448 128 448C92.7 448 64 419.3 64 384L64 256zM304 64C295.2 64 288 71.2 288 80C288 88.8 295.2 96 304 96L320 96L320 284.7L228.5 498.2C225.5 505.2 224 512.6 224 520.2C224 551 249 576 279.8 576L552.2 576C583 576 608 551 608 520.2C608 512.6 606.5 505.2 603.5 498.2L512 284.7L512 96L528 96C536.8 96 544 88.8 544 80C544 71.2 536.8 64 528 64L304 64zM480 96L480 288C480 290.2 480.4 292.3 481.3 294.3L519.7 384L312.2 384L350.6 294.3C351.5 292.3 351.9 290.2 351.9 288L351.9 96L479.9 96zM257.9 510.8L298.5 416L533.4 416L574 510.8C575.3 513.8 575.9 517 575.9 520.2C575.9 533.4 565.2 544 552.1 544L279.7 544C266.5 544 255.9 533.3 255.9 520.2C255.9 517 256.6 513.8 257.8 510.8z"/></svg>