<svg xmlns="http://www.w3.org/2000/svg" viewBox="0 0 640 640"><!--! Font Awesome Pro 7.1.0 by @fontawesome - https://fontawesome.com License - https://fontawesome.com/license (Commercial License) Copyright 2025 Fonticons, Inc. --><path fill="currentColor" d="M208 96L224 96L224 217.7C166.6 250.9 128 312.9 128 384C128 490 214 576 320 576C426 576 512 490 512 384C512 312.9 473.4 250.9 416 217.7L416 96L432 96C440.8 96 448 88.8 448 80C448 71.2 440.8 64 432 64L208 64C199.2 64 192 71.2 192 80C192 88.8 199.2 96 208 96zM256 227.2L256 96L384 96L384 227.2C384 233.2 387.4 238.7 392.7 241.4C444.5 267.9 480 321.8 480 384L428.3 384C402.2 384 376.6 376.9 354.2 363.5L349.2 360.5C322.5 344.5 291.9 336 260.7 336C234 336 207.7 342.2 183.8 354.2L161 365.6C167.2 311.3 200.6 265.3 247.2 241.4C252.6 238.7 255.9 233.2 255.9 227.2zM160.9 401.4L167.1 398.3L198.2 382.8C217.6 373.1 239.1 368 260.8 368C286.2 368 311 374.9 332.8 387.9L337.8 390.9C365.2 407.3 396.5 416 428.4 416L476.9 416C462 489 397.4 544 320 544C237.5 544 169.6 481.6 160.9 401.4z"/></svg>