<svg xmlns="http://www.w3.org/2000/svg" viewBox="0 0 640 640"><!--! Font Awesome Pro 7.1.0 by @fontawesome - https://fontawesome.com License - https://fontawesome.com/license (Commercial License) Copyright 2025 Fonticons, Inc. --><path fill="currentColor" d="M192 80C192 71.2 199.2 64 208 64L432 64C440.8 64 448 71.2 448 80C448 88.8 440.8 96 432 96L416 96L416 283.8L477.8 391.9C477.9 392.1 478 392.2 478.1 392.4L537 495.4C541.7 503.6 544.1 512.8 544.1 522.2C544.1 552 520 576.1 490.2 576.1L149.9 576C120.1 576 96 551.9 96 522.1C96 512.7 98.4 503.5 103.1 495.3L162 392.3C162.1 392.1 162.2 392 162.3 391.8L224 283.8L224 96L208 96C199.2 96 192 88.8 192 80zM185.3 416L130.9 511.2C129 514.5 128 518.3 128 522.1C128 534.2 137.8 544 149.9 544L490 544C502.1 544 511.9 534.2 511.9 522.1C511.9 518.3 510.9 514.5 509 511.2L454.7 416L185.3 416zM436.4 384L386.1 295.9C384.7 293.5 384 290.7 384 288L384 96L256 96L256 288C256 290.8 255.3 293.5 253.9 295.9L203.6 384L436.5 384z"/></svg>