<svg xmlns="http://www.w3.org/2000/svg" viewBox="0 0 640 640"><!--! Font Awesome Pro 7.1.0 by @fontawesome - https://fontawesome.com License - https://fontawesome.com/license (Commercial License) Copyright 2025 Fonticons, Inc. --><path fill="currentColor" d="M401.8 389.4L433.3 410.4C457.3 426.4 484.1 437.5 512 443.3L512 196.6C484 202.4 457.3 213.5 433.3 229.5C408.4 246.1 395.2 254.9 393.7 255.9L48 256C39.2 256 32 263.2 32 272L32 368C32 376.8 39.2 384 48 384L393.7 384L401.8 389.4zM544 447.6C548.5 447.9 553 448 557.5 448L592 448C600.8 448 608 440.8 608 432L608 208C608 199.2 600.8 192 592 192L557.5 192C553 192 548.5 192.1 544 192.4L544 447.6zM0 368L0 272C0 245.5 21.5 224 48 224L384 224L415.5 203C457.6 175 507 160 557.5 160L592 160C618.5 160 640 181.5 640 208L640 432C640 458.5 618.5 480 592 480L557.5 480C507 480 457.5 465 415.5 437L384 416L48 416C21.5 416 0 394.5 0 368zM224 320C224 311.2 231.2 304 240 304L304 304C312.8 304 320 311.2 320 320C320 328.8 312.8 336 304 336L240 336C231.2 336 224 328.8 224 320z"/></svg>