<svg xmlns="http://www.w3.org/2000/svg" viewBox="0 0 640 640"><!--! Font Awesome Pro 7.1.0 by @fontawesome - https://fontawesome.com License - https://fontawesome.com/license (Commercial License) Copyright 2025 Fonticons, Inc. --><path fill="currentColor" d="M144 64C135.2 64 128 71.2 128 80C128 88.8 135.2 96 144 96L160 96L160 283.8L98.2 391.9C98.1 392.1 98 392.2 97.9 392.4L39.1 495.3C34.4 503.5 32 512.7 32 522.1C32 551.9 56.1 576 85.9 576L282.6 576C281.6 574.5 280.6 572.9 279.7 571.3L264.6 544L85.9 544C73.8 544 64 534.2 64 522.1C64 518.3 65 514.5 66.9 511.2L121.3 416L250.1 416C247.6 405.6 247.4 394.7 249.7 384L139.5 384L189.8 295.9C191.2 293.5 191.9 290.7 191.9 288L191.9 96L319.9 96L319.9 280L351.9 280L351.9 96L367.9 96C376.7 96 383.9 88.8 383.9 80C383.9 71.2 376.8 64 368 64L144 64zM424.2 319.6L472.2 319.6L472.2 330.2C472.2 346.8 481.5 360.6 494.1 367.9C506.8 375.3 523.5 376.4 537.8 368.1L547 362.8L571 404.4L561.7 409.8C547.4 418 540 433 540 447.6C540 462.2 547.4 477.2 561.7 485.4L571 490.8L547 532.4L537.8 527.1C523.5 518.8 506.8 519.9 494.1 527.3C481.5 534.6 472.2 548.4 472.2 565L472.2 575.6L424.2 575.6L424.2 565.2C424.2 548.5 414.8 534.6 402.1 527.3C389.4 520 372.7 518.8 358.3 527.1L349.3 532.3L325.3 490.7L334.2 485.6C348.6 477.3 356 462.2 356 447.5C356 432.8 348.6 417.7 334.2 409.4L325.3 404.3L349.3 362.7L358.3 367.9C372.7 376.2 389.4 375.1 402.1 367.7C414.8 360.4 424.2 346.5 424.2 329.8L424.2 319.4zM416.2 287.6C402.9 287.6 392.2 298.3 392.2 311.6L392.2 330C392.2 334.2 389.8 338 386.1 340.2C382.4 342.4 377.9 342.5 374.3 340.4L358.4 331.2C346.9 324.6 332.2 328.5 325.6 340L293.6 395.4C287 406.9 290.9 421.6 302.4 428.2L318.2 437.3C321.9 439.4 324 443.4 324 447.7C324 452 321.9 455.9 318.2 458.1L302.4 467.2C290.9 473.8 287 488.5 293.6 500L325.6 555.4C332.2 566.9 346.9 570.8 358.4 564.2L374.3 555C378 552.9 382.5 553 386.1 555.2C389.7 557.4 392.2 561.1 392.2 565.4L392.2 583.8C392.2 597.1 402.9 607.8 416.2 607.8L480.2 607.8C493.5 607.8 504.2 597.1 504.2 583.8L504.2 565.2C504.2 561 506.6 557.3 510.2 555.2C513.8 553.1 518.3 552.9 521.9 555L538 564.3C549.5 570.9 564.2 567 570.8 555.5L602.8 500.1C609.4 488.6 605.5 473.9 594 467.3L577.7 457.9C574.1 455.8 572 451.9 572 447.8C572 443.7 574.1 439.8 577.7 437.7L594 428.3C605.5 421.7 609.4 407 602.8 395.5L570.8 340.1C564.2 328.6 549.5 324.7 538 331.3L521.9 340.6C518.3 342.7 513.8 342.5 510.2 340.4C506.6 338.3 504.2 334.5 504.2 330.4L504.2 311.8C504.2 298.5 493.5 287.8 480.2 287.8L416.2 287.8zM504 447.8C504 416.9 478.9 391.8 448 391.8C417.1 391.8 392 416.9 392 447.8C392 478.7 417.1 503.8 448 503.8C478.9 503.8 504 478.7 504 447.8zM448 423.8C461.3 423.8 472 434.5 472 447.8C472 461.1 461.3 471.8 448 471.8C434.7 471.8 424 461.1 424 447.8C424 434.5 434.7 423.8 448 423.8z"/></svg>