<svg xmlns="http://www.w3.org/2000/svg" viewBox="0 0 640 640"><!--! Font Awesome Pro 7.1.0 by @fontawesome - https://fontawesome.com License - https://fontawesome.com/license (Commercial License) Copyright 2025 Fonticons, Inc. --><path fill="currentColor" d="M208 96L224 96L224 217.7C166.6 250.9 128 312.9 128 384C128 490 214 576 320 576C426 576 512 490 512 384C512 312.9 473.4 250.9 416 217.7L416 96L432 96C440.8 96 448 88.8 448 80C448 71.2 440.8 64 432 64L208 64C199.2 64 192 71.2 192 80C192 88.8 199.2 96 208 96zM256 227.2L256 96L384 96L384 227.2C384 233.2 387.4 238.7 392.7 241.4C444.5 267.9 480 321.8 480 384C480 472.4 408.4 544 320 544C231.6 544 160 472.4 160 384C160 321.8 195.4 267.9 247.3 241.4C252.7 238.7 256 233.2 256 227.2zM378.9 411.1L368 420.7L368 448L272 448L272 420.7L261.1 411.1C247.3 399 240 383.7 240 368C240 337.1 271 304 320 304C369 304 400 337.1 400 368C400 383.7 392.7 399 378.9 411.1zM400 448L400 435.2C419.8 417.9 432 394.2 432 368C432 315 381.9 272 320 272C258.1 272 208 315 208 368C208 394.2 220.2 417.9 240 435.2L240 448C240 465.7 254.3 480 272 480L368 480C385.7 480 400 465.7 400 448zM312 368C312 354.7 301.3 344 288 344C274.7 344 264 354.7 264 368C264 381.3 274.7 392 288 392C301.3 392 312 381.3 312 368zM352 392C365.3 392 376 381.3 376 368C376 354.7 365.3 344 352 344C338.7 344 328 354.7 328 368C328 381.3 338.7 392 352 392z"/></svg>