<svg xmlns="http://www.w3.org/2000/svg" viewBox="0 0 640 640"><!--! Font Awesome Pro 7.1.0 by @fontawesome - https://fontawesome.com License - https://fontawesome.com/license (Commercial License) Copyright 2025 Fonticons, Inc. --><path fill="currentColor" d="M96.4 290.8L129 344C135.7 355 138.9 367.8 138 380.7L134.1 438.1L108.5 463.7C103.7 457.9 101.2 450.4 101.7 442.5L106.1 378.5C106.5 372.3 105 366 101.8 360.7L68.4 306.3C61.3 294.7 62.9 279.6 72.3 269.7L116.4 223.3C120.7 218.8 123.5 213 124.4 206.8L133.7 143.3C135.7 129.7 146.5 119.2 160 117.7L223.2 110.6C229.4 109.9 235.2 107.3 239.8 103.1L287.2 60.2C297.3 51 312.3 50 323.6 57.5L376.3 93C381.4 96.5 387.5 98.2 393.7 98L457.2 95.8C462.7 95.6 468 97 472.5 99.5L443.7 128.3L394.7 130C381.8 130.4 369 126.8 358.3 119.6L307.2 85.2L261.1 126.8C251.5 135.4 239.5 140.9 226.6 142.3L165 149.2L156 211.3C154.1 224 148.4 235.9 139.5 245.2L96.4 290.8zM185.9 499.4C223.3 527.4 269.7 544 320.1 544C443.8 544 544.1 443.7 544.1 320C544.1 269.6 527.5 223.2 499.5 185.8L185.9 499.4zM478.5 161.6C491 149.1 511.4 149 522.3 162.9C556 206.3 576.1 260.8 576.1 319.9C576.1 461.3 461.5 575.9 320.1 575.9C260.9 575.9 206.4 555.8 163.1 522.1C149.2 511.2 149.3 490.8 161.8 478.3L478.5 161.6zM312.1 448C325.4 448 336.1 458.7 336.1 472C336.1 485.3 325.4 496 312.1 496C298.8 496 288.1 485.3 288.1 472C288.1 458.7 298.8 448 312.1 448zM368.1 456C368.1 442.7 378.8 432 392.1 432C405.4 432 416.1 442.7 416.1 456C416.1 469.3 405.4 480 392.1 480C378.8 480 368.1 469.3 368.1 456zM343 229.2L320.1 252.1C308.7 244.4 294.9 240 280.1 240C240.3 240 208.1 272.2 208.1 312C208.1 326.8 212.6 340.6 220.2 352L197.3 374.9C184 357.4 176.1 335.6 176.1 312C176.1 254.6 222.7 208 280.1 208C303.7 208 325.6 215.9 343 229.2z"/></svg>