<svg xmlns="http://www.w3.org/2000/svg" viewBox="0 0 640 640"><!--! Font Awesome Pro 7.1.0 by @fontawesome - https://fontawesome.com License - https://fontawesome.com/license (Commercial License) Copyright 2025 Fonticons, Inc. --><path fill="currentColor" d="M544 320C544 196.3 443.7 96 320 96C196.3 96 96 196.3 96 320C96 443.7 196.3 544 320 544C443.7 544 544 443.7 544 320zM64 320C64 178.6 178.6 64 320 64C461.4 64 576 178.6 576 320C576 461.4 461.4 576 320 576C178.6 576 64 461.4 64 320zM427.3 235.3L235.3 427.3C229.1 433.5 218.9 433.5 212.7 427.3C206.5 421.1 206.5 410.9 212.7 404.7L404.7 212.7C410.9 206.5 421.1 206.5 427.3 212.7C433.5 218.9 433.5 229.1 427.3 235.3zM315.3 164.7C321.5 170.9 321.5 181.1 315.3 187.3L187.3 315.3C181.1 321.5 170.9 321.5 164.7 315.3C158.5 309.1 158.5 298.9 164.7 292.7L292.7 164.7C298.9 158.5 309.1 158.5 315.3 164.7zM475.3 347.3L347.3 475.3C341.1 481.5 330.9 481.5 324.7 475.3C318.5 469.1 318.5 458.9 324.7 452.7L452.7 324.7C458.9 318.5 469.1 318.5 475.3 324.7C481.5 330.9 481.5 341.1 475.3 347.3z"/></svg>