<svg xmlns="http://www.w3.org/2000/svg" viewBox="0 0 640 640"><!--! Font Awesome Pro 7.1.0 by @fontawesome - https://fontawesome.com License - https://fontawesome.com/license (Commercial License) Copyright 2025 Fonticons, Inc. --><path fill="currentColor" d="M128.4 128C110.7 128 96.4 142.3 96.4 160L96.4 480C96.4 497.7 110.7 512 128.4 512L284.9 512L279.6 544L128.4 544C93.1 544 64.4 515.3 64.4 480L64.4 160C64.4 124.7 93.1 96 128.4 96L371.1 96C388.1 96 404.4 102.7 416.4 114.7L493.6 192C505.6 204 512.3 220.3 512.3 237.3L512.3 272.6C501.1 275.8 490.3 280.7 480.3 287.3L480.3 237.3C480.3 228.8 476.9 220.7 470.9 214.7L393.8 137.4C391.1 134.7 387.9 132.5 384.4 130.9L384.4 240C384.4 257.7 370.1 272 352.4 272L192.4 272C174.7 272 160.4 257.7 160.4 240L160.4 128L128.4 128zM192.4 128L192.4 240L352.4 240L352.4 128L192.4 128zM320.4 384C320.4 366.3 306.1 352 288.4 352C270.7 352 256.4 366.3 256.4 384C256.4 401.7 270.7 416 288.4 416C306.1 416 320.4 401.7 320.4 384zM224.4 384C224.4 348.7 253.1 320 288.4 320C323.7 320 352.4 348.7 352.4 384C352.4 419.3 323.7 448 288.4 448C253.1 448 224.4 419.3 224.4 384zM373.5 504.3C368.8 509 365.7 515.1 364.6 521.7L356.1 572.5L406.9 564C413.5 562.9 419.5 559.8 424.3 555.1L526.5 452.9L475.8 402.2L373.6 504.4zM498.3 379.4L549 430.1L569.7 409.4C583.7 395.4 583.7 372.7 569.7 358.7C555.7 344.7 533 344.7 519 358.7L498.3 379.4zM333 516.4C335.2 503.2 341.4 491.1 350.9 481.7L496.4 336.1C522.9 309.6 565.9 309.6 592.4 336.1C618.9 362.6 618.9 405.6 592.4 432.1L446.9 577.6C437.5 587 425.3 593.3 412.2 595.5L337.6 607.9C327.8 609.5 319 600.7 320.6 590.9L333 516.4z"/></svg>