<svg xmlns="http://www.w3.org/2000/svg" viewBox="0 0 640 640"><!--! Font Awesome Pro 7.1.0 by @fontawesome - https://fontawesome.com License - https://fontawesome.com/license (Commercial License) Copyright 2025 Fonticons, Inc. --><path fill="currentColor" d="M160 128C142.3 128 128 142.3 128 160L128 480C128 497.7 142.3 512 160 512L480 512C497.7 512 512 497.7 512 480L512 237.3C512 228.8 508.6 220.7 502.6 214.7L425.4 137.4C422.7 134.7 419.5 132.5 416 130.9L416 240C416 257.7 401.7 272 384 272L224 272C206.3 272 192 257.7 192 240L192 128L160 128zM224 128L224 240L384 240L384 128L224 128zM96 160C96 124.7 124.7 96 160 96L402.7 96C419.7 96 436 102.7 448 114.7L525.3 192C537.3 204 544 220.3 544 237.3L544 480C544 515.3 515.3 544 480 544L160 544C124.7 544 96 515.3 96 480L96 160zM352 384C352 366.3 337.7 352 320 352C302.3 352 288 366.3 288 384C288 401.7 302.3 416 320 416C337.7 416 352 401.7 352 384zM256 384C256 348.7 284.7 320 320 320C355.3 320 384 348.7 384 384C384 419.3 355.3 448 320 448C284.7 448 256 419.3 256 384z"/></svg>