<svg xmlns="http://www.w3.org/2000/svg" viewBox="0 0 640 640"><!--! Font Awesome Pro 7.1.0 by @fontawesome - https://fontawesome.com License - https://fontawesome.com/license (Commercial License) Copyright 2025 Fonticons, Inc. --><path fill="currentColor" d="M192 128L192 416C192 433.7 206.3 448 224 448L512 448C529.7 448 544 433.7 544 416L544 208.6C544 200.1 540.6 192 534.6 186L454.1 105.4C452.3 103.6 450.2 102 448 100.7L448 160C448 177.7 433.7 192 416 192L288 192C270.3 192 256 177.7 256 160L256 96L224 96C206.3 96 192 110.3 192 128zM416 160L416 96L288 96L288 160L416 160zM160 128C160 92.7 188.7 64 224 64L431.4 64C448.4 64 464.7 70.7 476.7 82.7L557.3 163.3C569.3 175.3 576 191.6 576 208.6L576 416C576 451.3 547.3 480 512 480L224 480C188.7 480 160 451.3 160 416L160 128zM96 176L96 512C96 529.7 110.3 544 128 544L464 544C472.8 544 480 551.2 480 560C480 568.8 472.8 576 464 576L128 576C92.7 576 64 547.3 64 512L64 176C64 167.2 71.2 160 80 160C88.8 160 96 167.2 96 176zM400 320C400 302.3 385.7 288 368 288C350.3 288 336 302.3 336 320C336 337.7 350.3 352 368 352C385.7 352 400 337.7 400 320zM304 320C304 284.7 332.7 256 368 256C403.3 256 432 284.7 432 320C432 355.3 403.3 384 368 384C332.7 384 304 355.3 304 320z"/></svg>