<svg xmlns="http://www.w3.org/2000/svg" viewBox="0 0 640 640"><!--! Font Awesome Pro 7.1.0 by @fontawesome - https://fontawesome.com License - https://fontawesome.com/license (Commercial License) Copyright 2025 Fonticons, Inc. --><path fill="currentColor" d="M450.4 96C418.3 96 389.2 115.2 376.7 144.8L316.2 288L176 288C167.2 288 160 295.2 160 304C160 312.8 167.2 320 176 320L302.6 320L233.8 482.7C226.3 500.5 208.9 512 189.6 512L144 512C135.2 512 128 519.2 128 528C128 536.8 135.2 544 144 544L189.6 544C221.7 544 250.8 524.8 263.3 495.2L337.4 320L464 320C472.8 320 480 312.8 480 304C480 295.2 472.8 288 464 288L350.9 288L406.2 157.3C413.7 139.5 431.1 128 450.4 128L496 128C504.8 128 512 120.8 512 112C512 103.2 504.8 96 496 96L450.4 96z"/></svg>