<svg xmlns="http://www.w3.org/2000/svg" viewBox="0 0 640 640"><!--! Font Awesome Pro 7.1.0 by @fontawesome - https://fontawesome.com License - https://fontawesome.com/license (Commercial License) Copyright 2025 Fonticons, Inc. --><path fill="currentColor" d="M544 232C544 265.6 531.8 296.3 511.7 320C531.8 343.7 544 374.4 544 408C544 483.1 483.1 544 408 544C374.4 544 343.7 531.8 320 511.7C296.3 531.8 265.6 544 232 544C156.9 544 96 483.1 96 408C96 374.4 108.2 343.7 128.3 320C108.2 296.3 96 265.6 96 232C96 156.9 156.9 96 232 96C265.6 96 296.3 108.2 320 128.3C343.7 108.2 374.4 96 408 96C483.1 96 544 156.9 544 232zM299.3 152.7C281.1 137.3 257.7 128 232 128C174.6 128 128 174.6 128 232C128 257.7 137.3 281.1 152.7 299.3C162.8 311.2 162.8 328.8 152.7 340.7C137.3 358.9 128 382.3 128 408C128 465.4 174.6 512 232 512C257.7 512 281.1 502.7 299.3 487.3C311.2 477.2 328.8 477.2 340.7 487.3C358.9 502.7 382.3 512 408 512C465.4 512 512 465.4 512 408C512 382.3 502.7 358.9 487.3 340.7C477.2 328.8 477.2 311.2 487.3 299.3C502.7 281.1 512 257.7 512 232C512 174.6 465.4 128 408 128C382.3 128 358.9 137.3 340.7 152.7C328.8 162.8 311.2 162.8 299.3 152.7zM368 320C368 293.5 346.5 272 320 272C293.5 272 272 293.5 272 320C272 346.5 293.5 368 320 368C346.5 368 368 346.5 368 320zM240 320C240 275.8 275.8 240 320 240C364.2 240 400 275.8 400 320C400 364.2 364.2 400 320 400C275.8 400 240 364.2 240 320z"/></svg>