<svg xmlns="http://www.w3.org/2000/svg" viewBox="0 0 640 640"><!--! Font Awesome Pro 7.1.0 by @fontawesome - https://fontawesome.com License - https://fontawesome.com/license (Commercial License) Copyright 2025 Fonticons, Inc. --><path fill="currentColor" d="M320 32C324.7 32 329.2 34.1 332.3 37.8L402.5 122.1L454.4 83.2C459.2 79.6 465.7 79 471.1 81.7C476.5 84.4 480 89.9 480 96L480 199C480 265.7 425.6 319.6 358.9 319L336 318.8L336 458.8C366.2 415.9 415.1 387 470.9 384.2L480 384L514.5 384L517.5 384.2C532.4 385.7 544 398.3 544 413.6L543.8 422C539.6 505 473 571.6 389.9 575.8L381.5 576L258.4 576L250 575.8C167 571.6 100.4 505 96.2 421.9L96 413.5C96 398.2 107.6 385.6 122.5 384.1L125.5 383.9L160 383.9L169.1 384.1C224.9 386.9 273.8 415.8 304 458.7L304 318.4L278.9 318.2C213 317.6 160 264.1 160 198.2L160 96C160 89.9 163.4 84.4 168.8 81.7C174.2 79 180.7 79.6 185.5 83.2L237.3 122.1L307.6 37.8L310.1 35.4C312.9 33.3 316.3 32.1 319.9 32.1zM128.1 416C129.4 486.9 187.3 544 258.5 544L303.1 544C295.1 472 234.1 416 160 416L128.1 416zM480 416C405.9 416 344.9 472 336.9 544L381.5 544C452.7 544 510.6 486.9 511.9 416L480 416zM252.3 154.2C246.8 160.7 237.2 161.9 230.4 156.8L192 128L192 198.2C192 246.5 230.9 285.7 279.2 286.2L359.2 287C408.1 287.5 448 247.9 448 199L448 128L409.6 156.8C402.8 161.9 393.2 160.8 387.7 154.2L320 73L252.3 154.2z"/></svg>