<svg xmlns="http://www.w3.org/2000/svg" viewBox="0 0 640 640"><!--! Font Awesome Pro 7.1.0 by @fontawesome - https://fontawesome.com License - https://fontawesome.com/license (Commercial License) Copyright 2025 Fonticons, Inc. --><path fill="currentColor" d="M544 320C544 196.3 443.7 96 320 96C196.3 96 96 196.3 96 320C96 443.7 196.3 544 320 544C443.7 544 544 443.7 544 320zM64 320C64 178.6 178.6 64 320 64C461.4 64 576 178.6 576 320C576 461.4 461.4 576 320 576C178.6 576 64 461.4 64 320zM224 264C237.3 264 248 274.7 248 288C248 301.3 237.3 312 224 312C210.7 312 200 301.3 200 288C200 274.7 210.7 264 224 264zM392 288C392 274.7 402.7 264 416 264C429.3 264 440 274.7 440 288C440 301.3 429.3 312 416 312C402.7 312 392 301.3 392 288zM256 432L384 432C392.8 432 400 439.2 400 448C400 456.8 392.8 464 384 464L256 464C247.2 464 240 456.8 240 448C240 439.2 247.2 432 256 432zM224 336C250.5 336 272 314.5 272 288C272 261.5 250.5 240 224 240C197.5 240 176 261.5 176 288C176 314.5 197.5 336 224 336zM224 208C268.2 208 304 243.8 304 288C304 332.2 268.2 368 224 368C179.8 368 144 332.2 144 288C144 243.8 179.8 208 224 208zM464 288C464 261.5 442.5 240 416 240C389.5 240 368 261.5 368 288C368 314.5 389.5 336 416 336C442.5 336 464 314.5 464 288zM336 288C336 243.8 371.8 208 416 208C460.2 208 496 243.8 496 288C496 332.2 460.2 368 416 368C371.8 368 336 332.2 336 288z"/></svg>