<svg xmlns="http://www.w3.org/2000/svg" viewBox="0 0 640 640"><!--! Font Awesome Pro 7.1.0 by @fontawesome - https://fontawesome.com License - https://fontawesome.com/license (Commercial License) Copyright 2025 Fonticons, Inc. --><path fill="currentColor" d="M492.7 84.7L212 365.4L274.6 428L555.3 147.3C561.5 141.1 561.5 130.9 555.3 124.7L515.3 84.7C509.1 78.5 498.9 78.5 492.7 84.7zM189.4 388L84.7 492.7C78.5 498.9 78.5 509.1 84.7 515.3L124.7 555.3C130.9 561.5 141.1 561.5 147.3 555.3L252 450.6L189.4 388zM470.1 62.1C488.8 43.4 519.2 43.4 538 62.1L578 102.1C596.7 120.8 596.7 151.2 578 170L170 578C151.3 596.7 120.9 596.7 102.1 578L62.1 538C43.4 519.3 43.4 488.9 62.1 470.1L470.1 62.1zM312 312C312 303.2 319.2 296 328 296C336.8 296 344 303.2 344 312C344 320.8 336.8 328 328 328C319.2 328 312 320.8 312 312zM160 464C168.8 464 176 471.2 176 480C176 488.8 168.8 496 160 496C151.2 496 144 488.8 144 480C144 471.2 151.2 464 160 464zM376 248C376 239.2 383.2 232 392 232C400.8 232 408 239.2 408 248C408 256.8 400.8 264 392 264C383.2 264 376 256.8 376 248zM456 168C464.8 168 472 175.2 472 184C472 192.8 464.8 200 456 200C447.2 200 440 192.8 440 184C440 175.2 447.2 168 456 168z"/></svg>