<svg xmlns="http://www.w3.org/2000/svg" viewBox="0 0 640 640"><!--! Font Awesome Pro 7.1.0 by @fontawesome - https://fontawesome.com License - https://fontawesome.com/license (Commercial License) Copyright 2025 Fonticons, Inc. --><path fill="currentColor" d="M480 128C497.7 128 512 142.3 512 160L512 480C512 497.7 497.7 512 480 512L160 512C142.3 512 128 497.7 128 480L128 160C128 142.3 142.3 128 160 128L480 128zM160 96C124.7 96 96 124.7 96 160L96 480C96 515.3 124.7 544 160 544L480 544C515.3 544 544 515.3 544 480L544 160C544 124.7 515.3 96 480 96L160 96zM408 192C430.1 192 448 209.9 448 232C448 254.1 430.1 272 408 272C401.8 272 395.8 270.6 390.6 268L410 252.5C416.9 247 418 236.9 412.5 230C407 223.1 396.9 222 390 227.5L369.7 243.7C368.6 240 368 236.1 368 232C368 209.9 385.9 192 408 192zM364.2 289.1C376.3 298.4 391.5 304 408 304C447.8 304 480 271.8 480 232C480 192.2 447.8 160 408 160C368.2 160 336 192.2 336 232C336 243.7 338.8 254.7 343.7 264.5L320 283.5L296.3 264.5C301.3 254.7 304 243.7 304 232C304 192.2 271.8 160 232 160C192.2 160 160 192.2 160 232C160 271.8 192.2 304 232 304C248.5 304 263.7 298.5 275.8 289.1L304 311.6L304 337.7C271.9 345 248 373.6 248 407.9C248 447.7 280.2 479.9 320 479.9C359.8 479.9 392 447.7 392 407.9C392 373.6 368.1 345 336 337.7L336 311.6L364.2 289.1zM304 371.3L304 400C304 408.8 311.2 416 320 416C328.8 416 336 408.8 336 400L336 371.3C350.1 377.5 360 391.6 360 408C360 430.1 342.1 448 320 448C297.9 448 280 430.1 280 408C280 391.6 289.9 377.5 304 371.3zM249.4 268C244.1 270.5 238.2 272 232 272C209.9 272 192 254.1 192 232C192 209.9 209.9 192 232 192C254.1 192 272 209.9 272 232C272 236.1 271.4 240 270.3 243.7L250 227.5C243.1 222 233 223.1 227.5 230C222 236.9 223.1 247 230 252.5L249.4 268z"/></svg>