<svg xmlns="http://www.w3.org/2000/svg" viewBox="0 0 640 640"><!--! Font Awesome Pro 7.1.0 by @fontawesome - https://fontawesome.com License - https://fontawesome.com/license (Commercial License) Copyright 2025 Fonticons, Inc. --><path fill="currentColor" d="M497.7 142.3C512.2 156.8 519 188.3 502.1 239C485.9 287.7 450.1 344.9 397.5 397.5C344.9 450.1 287.8 485.9 239.1 502.1C188.3 519 156.8 512.1 142.4 497.7C130.3 485.6 123.5 461.6 131.5 424.3C134.5 430.1 138.5 435.8 143.8 441.1C163.8 461.1 189.7 462.9 207.2 460.9C225.3 458.9 243.5 452.1 260 443.9C293.6 427.3 330.7 399.4 365.1 365C399.5 330.6 427.3 293.5 444 259.9C452.2 243.3 458.9 225.2 461 207.1C463 189.6 461.2 163.7 441.2 143.7C435.9 138.4 430.2 134.4 424.4 131.4C461.6 123.4 485.7 130.2 497.8 142.3zM201.1 239.5C104.3 346 67.6 468.2 119.7 520.3C175 575.6 309.5 530.8 420.2 420.2C530.9 309.6 575.6 175 520.3 119.7C468.2 67.6 346 104.3 239.6 201C226.3 213 213 226.3 201.1 239.5zM224.8 261C236 248.7 248.6 236.1 261 224.8C287.8 200.6 315 181.6 339.1 169.6C353.9 162.3 368.3 157.2 381.3 155.7C394.3 154.2 408.3 156.2 418.5 166.3C428.7 176.4 430.6 190.5 429.1 203.5C427.6 216.5 422.6 230.9 415.2 245.7C400.5 275.4 374.9 309.8 342.4 342.4C309.9 375 275.4 400.5 245.7 415.2C230.9 422.5 216.5 427.6 203.5 429.1C190.5 430.6 176.5 428.6 166.3 418.5C156.1 408.4 154.2 394.3 155.7 381.3C157.2 368.3 162.2 353.9 169.6 339.1C181.6 315 200.6 287.8 224.8 261z"/></svg>