<svg xmlns="http://www.w3.org/2000/svg" viewBox="0 0 640 640"><!--! Font Awesome Pro 7.1.0 by @fontawesome - https://fontawesome.com License - https://fontawesome.com/license (Commercial License) Copyright 2025 Fonticons, Inc. --><path fill="currentColor" d="M240 96C195.8 96 160 131.8 160 176C160 185.6 161.7 194.7 164.7 203.2C166.4 207.8 165.8 212.8 163.3 217C160.8 221.2 156.5 223.9 151.7 224.5C120.3 228.5 96 255.4 96 288C96 323.3 124.7 352 160 352L480 352C515.3 352 544 323.3 544 288C544 252.7 515.3 224 480 224C474.1 224 468.4 224.8 463.1 226.3C457.2 227.9 451 226 446.9 221.5C442.8 217 441.7 210.5 444 204.9C446.6 198.5 448 191.4 448 184C448 153.1 422.9 128 392 128C372.1 128 354.6 138.4 344.6 154.1C341.3 159.3 335.3 162.2 329.1 161.4C322.9 160.6 317.8 156.4 315.9 150.6C305.3 118.9 275.3 96 240 96zM128 176C128 114.1 178.1 64 240 64C280.2 64 315.4 85.1 335.1 116.9C350.4 103.9 370.3 96 392 96C440.6 96 480 135.4 480 184C480 186.7 479.9 189.4 479.6 192L480 192C533 192 576 235 576 288C576 341 533 384 480 384L160 384C107 384 64 341 64 288C64 245.5 91.6 209.4 129.9 196.8C128.6 190.1 128 183.1 128 176zM544 464C544 472.8 536.8 480 528 480L48 480C39.2 480 32 472.8 32 464C32 455.2 39.2 448 48 448L528 448C536.8 448 544 455.2 544 464zM112 544L208 544C216.8 544 224 551.2 224 560C224 568.8 216.8 576 208 576L112 576C103.2 576 96 568.8 96 560C96 551.2 103.2 544 112 544zM288 544L592 544C600.8 544 608 551.2 608 560C608 568.8 600.8 576 592 576L288 576C279.2 576 272 568.8 272 560C272 551.2 279.2 544 288 544z"/></svg>