<svg xmlns="http://www.w3.org/2000/svg" viewBox="0 0 640 640"><!--! Font Awesome Pro 7.1.0 by @fontawesome - https://fontawesome.com License - https://fontawesome.com/license (Commercial License) Copyright 2025 Fonticons, Inc. --><path fill="currentColor" d="M544 416L192 416C174.3 416 160 401.7 160 384L160 128C160 110.3 174.3 96 192 96L309.5 96C318 96 326.1 99.4 332.1 105.4L368 141.3C380 153.3 396.3 160 413.3 160L544 160C561.7 160 576 174.3 576 192L576 384C576 401.7 561.7 416 544 416zM192 448L544 448C579.3 448 608 419.3 608 384L608 192C608 156.7 579.3 128 544 128L413.3 128C404.8 128 396.7 124.6 390.7 118.6L354.7 82.7C342.7 70.7 326.5 64 309.5 64L192 64C156.7 64 128 92.7 128 128L128 384C128 419.3 156.7 448 192 448zM64 176C64 167.2 56.8 160 48 160C39.2 160 32 167.2 32 176L32 480C32 515.3 60.7 544 96 544L496 544C504.8 544 512 536.8 512 528C512 519.2 504.8 512 496 512L96 512C78.3 512 64 497.7 64 480L64 176z"/></svg>