<svg xmlns="http://www.w3.org/2000/svg" viewBox="0 0 640 640"><!--! Font Awesome Pro 7.1.0 by @fontawesome - https://fontawesome.com License - https://fontawesome.com/license (Commercial License) Copyright 2025 Fonticons, Inc. --><path fill="currentColor" d="M512 480L128 480C110.3 480 96 465.7 96 448L96 160C96 142.3 110.3 128 128 128L266.7 128C273.6 128 280.4 130.2 285.9 134.4L324.3 163.2C335.4 171.5 348.9 176 362.7 176L512 176C529.7 176 544 190.3 544 208L544 448C544 465.7 529.7 480 512 480zM128 512L512 512C547.3 512 576 483.3 576 448L576 208C576 172.7 547.3 144 512 144L362.7 144C355.8 144 349 141.8 343.5 137.6L305.1 108.8C294 100.5 280.5 96 266.7 96L128 96C92.7 96 64 124.7 64 160L64 448C64 483.3 92.7 512 128 512zM340.4 282.2C346.9 275.7 355.8 272 365.1 272L368 272C385.7 272 400 286.3 400 304C400 325.4 385.5 346.5 365.4 365C348.5 380.5 330 392 320 397.7C310 392 291.5 380.5 274.6 365C254.5 346.5 240 325.3 240 304C240 286.3 254.3 272 272 272L274.9 272C284.2 272 293 275.7 299.6 282.2L308.7 291.3C311.7 294.3 315.8 296 320 296C324.2 296 328.3 294.3 331.3 291.3L340.4 282.2zM365.1 240C348.4 240 332.3 246.3 320 257.5C307.7 246.3 291.6 240 274.9 240L272 240C236.7 240 208 268.7 208 304C208 339.3 231.1 368.5 253 388.6C275.4 409.2 299.8 423.3 308.9 428.2C315.9 432 324.2 432 331.1 428.2C340.2 423.3 364.6 409.2 387 388.6C408.8 368.5 432 339.3 432 304C432 268.7 403.3 240 368 240L365.1 240z"/></svg>