<svg xmlns="http://www.w3.org/2000/svg" viewBox="0 0 640 640"><!--! Font Awesome Pro 7.1.0 by @fontawesome - https://fontawesome.com License - https://fontawesome.com/license (Commercial License) Copyright 2025 Fonticons, Inc. --><path fill="currentColor" d="M544 448C544 465.7 529.7 480 512 480L128 480C110.3 480 96 465.7 96 448L96 160C96 142.3 110.3 128 128 128L266.7 128C273.6 128 280.4 130.2 285.9 134.4L324.3 163.2C335.4 171.5 348.9 176 362.7 176L512 176C529.7 176 544 190.3 544 208L544 448zM128 512L512 512C547.3 512 576 483.3 576 448L576 208C576 172.7 547.3 144 512 144L362.7 144C355.8 144 349 141.8 343.5 137.6L305.1 108.8C294 100.5 280.5 96 266.7 96L128 96C92.7 96 64 124.7 64 160L64 448C64 483.3 92.7 512 128 512zM248 224C248 210.7 237.3 200 224 200C210.7 200 200 210.7 200 224C200 237.3 210.7 248 224 248C237.3 248 248 237.3 248 224zM295 266.5L201.2 361.8C195.3 367.8 192 375.8 192 384.2C192 401.8 206.3 416.1 223.9 416.1L416.1 416.1C433.7 416.1 448 401.8 448 384.2C448 375.8 444.7 367.8 438.8 361.8L345 266.5C338.4 259.8 329.4 256 320 256C310.6 256 301.6 259.8 295 266.5zM320 288C320.8 288 321.6 288.3 322.2 288.9L415.8 384L224.1 384L317.7 288.9C318.3 288.3 319.1 288 319.9 288z"/></svg>