<svg xmlns="http://www.w3.org/2000/svg" viewBox="0 0 640 640"><!--! Font Awesome Pro 7.1.0 by @fontawesome - https://fontawesome.com License - https://fontawesome.com/license (Commercial License) Copyright 2025 Fonticons, Inc. --><path fill="currentColor" d="M266.7 96C280.5 96 294 100.5 305.1 108.8L343.5 137.6C349 141.8 355.8 144 362.7 144L512 144C547.3 144 576 172.7 576 208L576 448C576 483.3 547.3 512 512 512L128 512C92.7 512 64 483.3 64 448L64 160C64 124.7 92.7 96 128 96L266.7 96zM128 128C110.3 128 96 142.3 96 160L96 448C96 465.7 110.3 480 128 480L512 480C529.7 480 544 465.7 544 448L544 208C544 190.3 529.7 176 512 176L362.7 176C348.9 176 335.4 171.5 324.3 163.2L285.9 134.4C280.4 130.2 273.6 128 266.7 128L128 128zM387.1 250.2C392.3 243.1 402.3 241.5 409.4 246.7C416.5 251.9 418.1 261.9 412.9 269L307.3 414.2C304.5 418 300.2 420.4 295.5 420.7C290.8 421 286.2 419.3 282.9 415.9L228.5 359.6C222.4 353.2 222.5 343.1 228.9 337C235.3 330.9 245.4 331.1 251.5 337.4L292.7 380L387.1 250.2z"/></svg>