<svg xmlns="http://www.w3.org/2000/svg" viewBox="0 0 640 640"><!--! Font Awesome Pro 7.1.0 by @fontawesome - https://fontawesome.com License - https://fontawesome.com/license (Commercial License) Copyright 2025 Fonticons, Inc. --><path fill="currentColor" d="M544 448C544 465.7 529.7 480 512 480L128 480C110.3 480 96 465.7 96 448L96 160C96 142.3 110.3 128 128 128L266.7 128C273.6 128 280.4 130.2 285.9 134.4L324.3 163.2C335.4 171.5 348.9 176 362.7 176L512 176C529.7 176 544 190.3 544 208L544 448zM128 512L512 512C547.3 512 576 483.3 576 448L576 208C576 172.7 547.3 144 512 144L362.7 144C355.8 144 349 141.8 343.5 137.6L305.1 108.8C294 100.5 280.5 96 266.7 96L128 96C92.7 96 64 124.7 64 160L64 448C64 483.3 92.7 512 128 512zM331.3 236.7C325.1 230.5 314.9 230.5 308.7 236.7L236.7 308.7C230.5 314.9 230.5 325.1 236.7 331.3C242.9 337.5 253.1 337.5 259.3 331.3L304 286.6L304 408C304 416.8 311.2 424 320 424C328.8 424 336 416.8 336 408L336 286.6L380.7 331.3C386.9 337.5 397.1 337.5 403.3 331.3C409.5 325.1 409.5 314.9 403.3 308.7L331.3 236.7z"/></svg>