<svg xmlns="http://www.w3.org/2000/svg" viewBox="0 0 640 640"><!--! Font Awesome Pro 7.1.0 by @fontawesome - https://fontawesome.com License - https://fontawesome.com/license (Commercial License) Copyright 2025 Fonticons, Inc. --><path fill="currentColor" d="M544 448L544 208C544 190.3 529.7 176 512 176L480 176L480 336C480 341.5 477.1 346.7 472.4 349.6C467.7 352.5 461.8 352.8 456.8 350.3L400 321.9L343.2 350.3C338.2 352.8 332.3 352.5 327.6 349.6C322.9 346.7 320 341.5 320 336L320 160L285.9 134.4C280.4 130.2 273.6 128 266.7 128L128 128C110.3 128 96 142.3 96 160L96 448C96 465.7 110.3 480 128 480L512 480C529.7 480 544 465.7 544 448zM464 144L512 144C547.3 144 576 172.7 576 208L576 448C576 483.3 547.3 512 512 512L128 512C92.7 512 64 483.3 64 448L64 160C64 124.7 92.7 96 128 96L266.7 96C280.5 96 294 100.5 305.1 108.8L343.5 137.6C349 141.8 355.8 144 362.7 144L464 144zM448 176L362.7 176C359.1 176 355.5 175.7 352 175.1L352 310.1L392.8 289.7C397.3 287.4 402.6 287.4 407.1 289.7L448 310.1L448 176z"/></svg>