<svg xmlns="http://www.w3.org/2000/svg" viewBox="0 0 640 640"><!--! Font Awesome Pro 7.1.0 by @fontawesome - https://fontawesome.com License - https://fontawesome.com/license (Commercial License) Copyright 2025 Fonticons, Inc. --><path fill="currentColor" d="M512 480L128 480C110.3 480 96 465.7 96 448L96 160C96 142.3 110.3 128 128 128L266.7 128C273.6 128 280.4 130.2 285.9 134.4L324.3 163.2C335.4 171.5 348.9 176 362.7 176L512 176C529.7 176 544 190.3 544 208L544 448C544 465.7 529.7 480 512 480zM128 512L512 512C547.3 512 576 483.3 576 448L576 208C576 172.7 547.3 144 512 144L362.7 144C355.8 144 349 141.8 343.5 137.6L305.1 108.8C294 100.5 280.5 96 266.7 96L128 96C92.7 96 64 124.7 64 160L64 448C64 483.3 92.7 512 128 512zM176 336L176 304L208 304L208 336L176 336zM144 296L144 344C144 357.3 154.7 368 168 368L216 368C229.3 368 240 357.3 240 344L240 296C240 282.7 229.3 272 216 272L168 272C154.7 272 144 282.7 144 296zM304 304L336 304L336 336L304 336L304 304zM296 272C282.7 272 272 282.7 272 296L272 344C272 357.3 282.7 368 296 368L344 368C357.3 368 368 357.3 368 344L368 296C368 282.7 357.3 272 344 272L296 272zM432 336L432 304L464 304L464 336L432 336zM400 296L400 344C400 357.3 410.7 368 424 368L472 368C485.3 368 496 357.3 496 344L496 296C496 282.7 485.3 272 472 272L424 272C410.7 272 400 282.7 400 296z"/></svg>