<svg xmlns="http://www.w3.org/2000/svg" viewBox="0 0 640 640"><!--! Font Awesome Pro 7.1.0 by @fontawesome - https://fontawesome.com License - https://fontawesome.com/license (Commercial License) Copyright 2025 Fonticons, Inc. --><path fill="currentColor" d="M512 480L128 480C110.3 480 96 465.7 96 448L96 160C96 142.3 110.3 128 128 128L266.7 128C273.6 128 280.4 130.2 285.9 134.4L324.3 163.2C335.4 171.5 348.9 176 362.7 176L512 176C529.7 176 544 190.3 544 208L544 448C544 465.7 529.7 480 512 480zM128 512L512 512C547.3 512 576 483.3 576 448L576 208C576 172.7 547.3 144 512 144L362.7 144C355.8 144 349 141.8 343.5 137.6L305.1 108.8C294 100.5 280.5 96 266.7 96L128 96C92.7 96 64 124.7 64 160L64 448C64 483.3 92.7 512 128 512zM272 240C272 245 265.2 248.9 260.9 246.4C245.6 237.6 226 242.8 217.2 258.1L201.2 285.8C192.4 301.1 197.6 320.7 212.9 329.5C217.2 332 217.2 339.9 212.9 342.4C197.6 351.2 192.4 370.8 201.2 386.1L217.2 413.8C226 429.1 245.6 434.4 260.9 425.5C265.2 423 272 427 272 431.9C272 449.6 286.3 463.9 304 463.9L336 463.9C353.7 463.9 368 449.6 368 431.9C368 426.9 374.8 423 379.1 425.5C394.4 434.3 414 429.1 422.8 413.8L438.8 386.1C447.6 370.8 442.4 351.2 427.1 342.4C422.8 339.9 422.8 332 427.1 329.5C442.4 320.7 447.7 301.1 438.8 285.8L422.8 258.1C414 242.8 394.4 237.6 379.1 246.4C374.8 248.9 368 245 368 240C368 222.3 353.7 208 336 208L304 208C286.3 208 272 222.3 272 240zM336 240C336 269.2 369.9 288.7 395.1 274.1L411.1 301.8C385.8 316.4 385.8 355.5 411.1 370.1L395.1 397.8C369.9 383.2 336 402.8 336 431.9L304 431.9C304 402.7 270.1 383.2 244.9 397.8L228.9 370.1C254.1 355.6 254.2 316.4 228.9 301.8L244.9 274.1C269.6 288.3 304 269.6 304 240.6L304 239.9L336 239.9zM344 336C344 322.7 333.3 312 320 312C306.7 312 296 322.7 296 336C296 349.3 306.7 360 320 360C333.3 360 344 349.3 344 336z"/></svg>