<svg xmlns="http://www.w3.org/2000/svg" viewBox="0 0 640 640"><!--! Font Awesome Pro 7.1.0 by @fontawesome - https://fontawesome.com License - https://fontawesome.com/license (Commercial License) Copyright 2025 Fonticons, Inc. --><path fill="currentColor" d="M512 480L128 480C110.3 480 96 465.7 96 448L96 160C96 142.3 110.3 128 128 128L266.7 128C273.6 128 280.4 130.2 285.9 134.4L324.3 163.2C335.4 171.5 348.9 176 362.7 176L512 176C529.7 176 544 190.3 544 208L544 448C544 465.7 529.7 480 512 480zM128 512L512 512C547.3 512 576 483.3 576 448L576 208C576 172.7 547.3 144 512 144L362.7 144C355.8 144 349 141.8 343.5 137.6L305.1 108.8C294 100.5 280.5 96 266.7 96L128 96C92.7 96 64 124.7 64 160L64 448C64 483.3 92.7 512 128 512zM312 253.3C333.5 252.4 353.8 263.4 364.8 281.9C375.9 300.4 375.9 323.5 364.8 342C353.8 360.5 333.5 371.5 312 370.6C290.5 371.5 270.2 360.5 259.2 342C248.1 323.5 248.1 300.4 259.2 281.9C270.2 263.4 290.5 252.4 312 253.3zM312 400C330.5 400 347.7 394.3 361.9 384.5L404.7 427.3C410.9 433.5 421.1 433.5 427.3 427.3C433.5 421.1 433.5 410.9 427.3 404.7L384.5 361.9C394.3 347.7 400 330.5 400 312C400 263.4 360.6 224 312 224C263.4 224 224 263.4 224 312C224 360.6 263.4 400 312 400z"/></svg>