<svg xmlns="http://www.w3.org/2000/svg" viewBox="0 0 640 640"><!--! Font Awesome Pro 7.1.0 by @fontawesome - https://fontawesome.com License - https://fontawesome.com/license (Commercial License) Copyright 2025 Fonticons, Inc. --><path fill="currentColor" d="M352 112C352 103.2 359.2 96 368 96L417.5 96C420.7 96 423.7 96.9 426.4 98.7L458.3 120C466.2 125.3 475.5 128.1 484.9 128.1L560 128C568.8 128 576 135.2 576 144L576 240C576 248.8 568.8 256 560 256L368 256C359.2 256 352 248.8 352 240L352 112zM320 112L320 240C320 266.5 341.5 288 368 288L560 288C586.5 288 608 266.5 608 240L608 144C608 117.5 586.5 96 560 96L484.8 96C481.6 96 478.6 95.1 475.9 93.3L444.1 72.1C436.2 66.8 426.9 64 417.5 64L368 64C341.5 64 320 85.5 320 112zM368 384L417.5 384C420.7 384 423.7 384.9 426.4 386.7L460.3 409.3C466.9 413.7 474.6 416 482.5 416L560.1 416C568.9 416 576.1 423.2 576.1 432L576.1 528C576.1 536.8 568.9 544 560.1 544L368.1 544C359.3 544 352.1 536.8 352.1 528L352.1 400C352.1 391.2 359.3 384 368.1 384zM320 400L320 528C320 554.5 341.5 576 368 576L560 576C586.5 576 608 554.5 608 528L608 432C608 405.5 586.5 384 560 384L482.4 384C480.8 384 479.3 383.5 478 382.7L444.1 360.1C436.2 354.8 427 352 417.5 352L368 352C341.5 352 320 373.5 320 400zM64 88C64 79.2 56.8 72 48 72C39.2 72 32 79.2 32 88L32 464C32 490.5 53.5 512 80 512L272 512L272 480L80 480C71.2 480 64 472.8 64 464L64 224L272 224L272 192L64 192L64 88z"/></svg>