<svg xmlns="http://www.w3.org/2000/svg" viewBox="0 0 640 640"><!--! Font Awesome Pro 7.1.0 by @fontawesome - https://fontawesome.com License - https://fontawesome.com/license (Commercial License) Copyright 2025 Fonticons, Inc. --><path fill="currentColor" d="M266.7 96C280.5 96 294 100.5 305.1 108.8L343.5 137.6C347.7 140.7 352.5 142.8 357.6 143.6L362.7 144L512 144C547.3 144 576 172.7 576 208L576 448C576 483.3 547.3 512 512 512L128 512C92.7 512 64 483.3 64 448L64 160C64 124.7 92.7 96 128 96L266.7 96zM128 128C110.3 128 96 142.3 96 160L96 448C96 465.7 110.3 480 128 480L512 480C529.7 480 544 465.7 544 448L544 208C544 190.3 529.7 176 512 176L362.7 176C350.6 176 338.8 172.6 328.6 166.1L324.4 163.2L286 134.4C280.5 130.2 273.7 128 266.8 128L128 128zM316.7 244.7C323 238.5 333.1 238.5 339.3 244.7L411.3 316.7L413.4 319.2C417.5 325.4 416.8 333.9 411.3 339.3L339.3 411.3L336.8 413.4C330.6 417.5 322.1 416.8 316.7 411.3C311.3 405.8 310.5 397.4 314.6 391.2L316.7 388.7L361.4 344L240 344C231.2 344 224 336.8 224 328C224 319.2 231.2 312 240 312L361.4 312L316.7 267.3C310.5 261.1 310.5 250.9 316.7 244.7z"/></svg>