<svg xmlns="http://www.w3.org/2000/svg" viewBox="0 0 640 640"><!--! Font Awesome Pro 7.1.0 by @fontawesome - https://fontawesome.com License - https://fontawesome.com/license (Commercial License) Copyright 2025 Fonticons, Inc. --><path fill="currentColor" d="M512 480L128 480C110.3 480 96 465.7 96 448L96 160C96 142.3 110.3 128 128 128L266.7 128C273.6 128 280.4 130.2 285.9 134.4L324.3 163.2C335.4 171.5 348.9 176 362.7 176L512 176C529.7 176 544 190.3 544 208L544 448C544 465.7 529.7 480 512 480zM128 512L512 512C547.3 512 576 483.3 576 448L576 208C576 172.7 547.3 144 512 144L362.7 144C355.8 144 349 141.8 343.5 137.6L305.1 108.8C294 100.5 280.5 96 266.7 96L128 96C92.7 96 64 124.7 64 160L64 448C64 483.3 92.7 512 128 512zM304 240C286.3 240 272 254.3 272 272L272 288L256 288C238.3 288 224 302.3 224 320L224 352C224 369.7 238.3 384 256 384L272 384L272 400C272 417.7 286.3 432 304 432L336 432C353.7 432 368 417.7 368 400L368 384L384 384C401.7 384 416 369.7 416 352L416 320C416 302.3 401.7 288 384 288L368 288L368 272C368 254.3 353.7 240 336 240L304 240zM336 376L336 400L304 400L304 360C304 355.6 300.4 352 296 352L256 352L256 320L296 320C300.4 320 304 316.4 304 312L304 272L336 272L336 312C336 316.4 339.6 320 344 320L384 320L384 352L344 352C339.6 352 336 355.6 336 360L336 376z"/></svg>