<svg xmlns="http://www.w3.org/2000/svg" viewBox="0 0 640 640"><!--! Font Awesome Pro 7.1.0 by @fontawesome - https://fontawesome.com License - https://fontawesome.com/license (Commercial License) Copyright 2025 Fonticons, Inc. --><path fill="currentColor" d="M512 480L128 480C110.3 480 96 465.7 96 448L96 160C96 142.3 110.3 128 128 128L266.7 128C273.6 128 280.4 130.2 285.9 134.4L324.3 163.2C335.4 171.5 348.9 176 362.7 176L512 176C529.7 176 544 190.3 544 208L544 448C544 465.7 529.7 480 512 480zM128 512L512 512C547.3 512 576 483.3 576 448L576 208C576 172.7 547.3 144 512 144L362.7 144C355.8 144 349 141.8 343.5 137.6L305.1 108.8C294 100.5 280.5 96 266.7 96L128 96C92.7 96 64 124.7 64 160L64 448C64 483.3 92.7 512 128 512zM308.7 419.3C314.9 425.5 325.1 425.5 331.3 419.3L403.3 347.3C409.5 341.1 409.5 330.9 403.3 324.7C397.1 318.5 386.9 318.5 380.7 324.7L336 369.4L336 248C336 239.2 328.8 232 320 232C311.2 232 304 239.2 304 248L304 369.4L259.3 324.7C253.1 318.5 242.9 318.5 236.7 324.7C230.5 330.9 230.5 341.1 236.7 347.3L308.7 419.3z"/></svg>