<svg xmlns="http://www.w3.org/2000/svg" viewBox="0 0 640 640"><!--! Font Awesome Pro 7.1.0 by @fontawesome - https://fontawesome.com License - https://fontawesome.com/license (Commercial License) Copyright 2025 Fonticons, Inc. --><path fill="currentColor" d="M346.1 96.3C341.8 95.1 337.4 97.7 336.3 101.9L312.3 189.9C311.1 194.2 313.7 198.6 317.9 199.7C322.1 200.8 326.6 198.3 327.7 194.1L351.7 106.1C352.9 101.8 350.3 97.4 346.1 96.3zM326.5 231.5L319.1 256L285.7 256L295.4 223.6C283.1 214 277 197.6 281.4 181.5L305.4 93.5C311.2 72.2 333.2 59.6 354.5 65.4C375.8 71.2 388.4 93.2 382.6 114.5L358.6 202.5C354.3 218.1 341.4 229 326.5 231.5zM287.4 320L288.6 320C288.2 320 287.8 320 287.4 320zM375.4 320L376.5 320C376.1 320 375.8 320 375.4 320zM441.1 231.4L425.5 256L387.6 256L414.5 213.8C406.2 201.1 405.6 184.2 414.3 170.5L470.3 82.5C482.1 63.9 506.8 58.4 525.5 70.3C544.2 82.2 549.6 106.9 537.8 125.5L481.8 213.5C472.9 227.5 456.6 234.1 441.2 231.4zM508.3 97.3C504.6 94.9 499.6 96 497.3 99.8L441.3 187.8C438.9 191.5 440 196.5 443.8 198.8C447.6 201.1 452.5 200.1 454.8 196.3L510.8 108.3C513.2 104.6 512.1 99.6 508.3 97.3zM96 320L96 384C96 454.7 153.3 512 224 512L352 512C422.7 512 480 454.7 480 384L480 320L224 320L224 368C224 376.8 216.8 384 208 384C199.2 384 192 376.8 192 368L192 336C192 327.2 184.8 320 176 320C167.2 320 160 327.2 160 336L160 400C160 408.8 152.8 416 144 416C135.2 416 128 408.8 128 400L128 320L96 320zM64 320C64 302.3 78.3 288 96 288L560 288C568.8 288 576 295.2 576 304C576 312.8 568.8 320 560 320L512 320L512 384C512 436.3 486.9 482.8 448 512L448 560C448 568.8 440.8 576 432 576C423.2 576 416 568.8 416 560L416 530.7C396.4 539.3 374.8 544 352 544L224 544C201.2 544 179.6 539.2 160 530.7L160 560C160 568.8 152.8 576 144 576C135.2 576 128 568.8 128 560L128 512C89.1 482.8 64 436.3 64 384L64 320z"/></svg>