<svg xmlns="http://www.w3.org/2000/svg" viewBox="0 0 640 640"><!--! Font Awesome Pro 7.1.0 by @fontawesome - https://fontawesome.com License - https://fontawesome.com/license (Commercial License) Copyright 2025 Fonticons, Inc. --><path fill="currentColor" d="M128 96C145.7 96 160 110.3 160 128C160 145.7 145.7 160 128 160C110.3 160 96 145.7 96 128C96 110.3 110.3 96 128 96zM183.4 160C188.8 150.6 192 139.7 192 128C192 92.7 163.3 64 128 64C92.7 64 64 92.7 64 128C64 151.7 76.9 172.4 96 183.4L96 576L128 576L128 512L533.6 512C548.2 512 560 500.2 560 485.6C560 481.9 559.2 478.3 557.7 474.9L496 336L557.7 197.1C559.2 193.7 560 190.1 560 186.4C560 171.8 548.2 160 533.6 160L183.4 160zM525 480L128 480L128 192L525 192L466.8 323C463.1 331.3 463.1 340.7 466.8 349L525 480z"/></svg>