<svg xmlns="http://www.w3.org/2000/svg" viewBox="0 0 640 640"><!--! Font Awesome Pro 7.1.0 by @fontawesome - https://fontawesome.com License - https://fontawesome.com/license (Commercial License) Copyright 2025 Fonticons, Inc. --><path fill="currentColor" d="M96 232L96 320L256 320L256 232C256 192.2 223.8 160 184 160L168 160C128.2 160 96 192.2 96 232zM64 336L64 232C64 174.6 110.6 128 168 128L184 128C241.4 128 288 174.6 288 232L288 496C288 504.8 280.8 512 272 512C263.2 512 256 504.8 256 496L256 352L96 352L96 496C96 504.8 88.8 512 80 512C71.2 512 64 504.8 64 496L64 336zM456 288C416.2 288 384 320.2 384 360L384 408C384 447.8 416.2 480 456 480L472 480C511.8 480 544 447.8 544 408L544 360C544 320.2 511.8 288 472 288L456 288zM544 285L544 272C544 263.2 551.2 256 560 256C568.8 256 576 263.2 576 272L576 406.5C576 432.3 580.2 457.9 588.3 482.4L591.2 491C594 499.4 589.5 508.4 581.1 511.2C572.7 514 563.7 509.5 560.9 501.1L558 492.5C556 486.4 554.1 480.2 552.5 473.9C533.4 497.2 504.5 512 472 512L456 512C398.6 512 352 465.4 352 408L352 360C352 302.6 398.6 256 456 256L472 256C499.9 256 525.3 267 544 285z"/></svg>