<svg xmlns="http://www.w3.org/2000/svg" viewBox="0 0 640 640"><!--! Font Awesome Pro 7.1.0 by @fontawesome - https://fontawesome.com License - https://fontawesome.com/license (Commercial License) Copyright 2025 Fonticons, Inc. --><path fill="currentColor" d="M320 96C326.4 96 332.2 99.8 334.7 105.8L506.6 512L544 512C552.8 512 560 519.2 560 528C560 536.8 552.8 544 544 544L432 544C423.2 544 416 536.8 416 528C416 519.2 423.2 512 432 512L471.9 512L431.3 416L208.8 416L168.2 512L208.1 512C216.9 512 224.1 519.2 224.1 528C224.1 536.8 216.9 544 208.1 544L96 544C87.2 544 80 536.8 80 528C80 519.2 87.2 512 96 512L133.4 512L305.3 105.8C307.8 99.9 313.6 96 320 96zM222.3 384L417.7 384L320 153.1L222.3 384z"/></svg>