<svg xmlns="http://www.w3.org/2000/svg" viewBox="0 0 640 640"><!--! Font Awesome Pro 7.1.0 by @fontawesome - https://fontawesome.com License - https://fontawesome.com/license (Commercial License) Copyright 2025 Fonticons, Inc. --><path fill="currentColor" d="M320 64C439.6 64 539.9 146 568.1 256.8C572.4 273.9 559.8 290 542.3 292.2L412.5 308.4L445.1 416L528 416C554.5 416 576 437.5 576 464L576 537.8C576 558.9 558.9 576 537.8 576C491.7 576 451 545.8 437.6 501.7L421.4 448L366.2 448C367.4 453 368.1 458.1 368.1 463.3C368.1 499 339.1 528 303.4 528L301.5 528C292.7 528 284 526.3 275.8 522.9L108.9 453.4C104.1 451.4 99.9 448.3 96.6 444.2L93.8 439.9C74.8 404.1 64 363.3 64 320C64 178.6 178.6 64 320 64zM468.2 492.4C477.5 523.1 505.8 544 537.8 544C541.2 544 544 541.2 544 537.8L544 464C544 455.2 536.8 448 528 448L454.8 448L468.2 492.4zM320 96C196.3 96 96 196.3 96 320C96 357.6 105.3 392.9 121.7 424L288 493.3L291.2 494.5C294.5 495.5 297.9 496 301.3 496L303.2 496C320.1 496 334.1 483.1 335.8 466.6L336 463.3C336 459.5 335.3 455.8 334 452.2L332.5 448.7L294.4 372.4C291.3 366.1 289.2 359.4 288.4 352.4L288 345.3C288 314.7 310.8 289 341.1 285.2L535.9 260.8C510 165.8 423.1 96 320 96zM345.1 316.9C330.8 318.7 320 330.9 320 345.3C320 349.7 321 354.1 323 358.1L352 416.1L411.7 416.1L380.3 312.6L345.1 317zM224 408C210.7 408 200 397.3 200 384C200 370.7 210.7 360 224 360C237.3 360 248 370.7 248 384C248 397.3 237.3 408 224 408z"/></svg>