<svg xmlns="http://www.w3.org/2000/svg" viewBox="0 0 640 640"><!--! Font Awesome Pro 7.1.0 by @fontawesome - https://fontawesome.com License - https://fontawesome.com/license (Commercial License) Copyright 2025 Fonticons, Inc. --><path fill="currentColor" d="M275 32C370.5 32 448 109.5 448 205C448 246.3 433.2 286.1 406.4 317.5L480.2 465.3L535.8 472.6C577.1 478 608 513.2 608 554.9C608 584.3 584.2 608.1 554.8 608.1L426.1 608.1C398.6 608.1 371.5 600.6 347.9 586.4L163.1 475.5C107.8 442.3 88.6 371.3 119.7 314.8L134.1 288.5C111.1 272.6 96 246.1 96 216L96 188.6C59.1 178.1 32 144.3 32 104L32 70.6C32 49.3 49.3 32 70.6 32L275 32zM70.6 64C67 64 64 67 64 70.6L64 104C64 134.9 89.1 160 120 160L272 160C280.8 160 288 167.2 288 176C288 184.8 280.8 192 272 192L128 192L128 216C128 246.9 153.1 272 184 272L230.4 272C239.2 272 246.4 279.2 246.4 288C246.4 296.8 239.2 304 230.4 304L184 304C176.9 304 170.1 303.1 163.5 301.5L147.7 330.2C124.9 371.6 139 423.7 179.6 448L364.3 558.9C382.9 570.1 404.3 576 426 576L554.7 576C566.4 576 575.9 566.5 575.9 554.8C575.9 529.2 556.9 507.6 531.5 504.3L467.5 495.9C462.2 495.2 457.6 491.9 455.3 487.2L383.5 343.6L331.9 402.6C326.1 409.2 316 409.9 309.3 404.1C302.6 398.3 302 388.2 307.8 381.5L381 297.9C403.6 272.2 416 239.2 416 205C416 127.1 352.9 64 275 64L70.6 64z"/></svg>