<svg xmlns="http://www.w3.org/2000/svg" viewBox="0 0 640 640"><!--! Font Awesome Pro 7.1.0 by @fontawesome - https://fontawesome.com License - https://fontawesome.com/license (Commercial License) Copyright 2025 Fonticons, Inc. --><path fill="currentColor" d="M137.1 213.5C198.4 119.4 314.5 59.1 513.8 86.8L517.5 87.5C535.5 91.5 550.3 105.9 553.3 125L555.7 142C566.6 228.6 559.2 340 502.9 426.5C443.6 517.6 332.7 577.1 144.7 555.5L126.3 553.2C107.9 550.6 92.1 537.2 87.6 518.8L86.8 515C72.6 426.4 77.1 305.8 137.1 213.5zM113.5 392.1C110.2 433.4 112.6 474 118.3 509.9C119.2 515.6 124.1 520.5 130.6 521.5L148.2 523.7C185 527.9 218.3 528.8 248.5 527L113.5 392zM350.6 117.3C257.8 132 199.6 176.2 163.9 231C140.2 267.4 125.9 309.2 118.5 351.9L289.3 522.7C382.1 508 440.4 463.9 476.1 409.1C499.8 372.7 514 330.8 521.4 288L350.6 117.3zM220.7 332.7C226.9 326.5 237.1 326.5 243.3 332.7L307.3 396.7C313.5 402.9 313.5 413.1 307.3 419.3C301.1 425.5 290.9 425.5 284.7 419.3L220.7 355.3C214.5 349.1 214.5 338.9 220.7 332.7zM276.7 276.7C282.9 270.5 293.1 270.5 299.3 276.7L363.3 340.7C369.5 346.9 369.5 357.1 363.3 363.3C357.1 369.5 346.9 369.5 340.7 363.3L276.7 299.3C270.5 293.1 270.5 282.9 276.7 276.7zM332.7 220.7C338.9 214.5 349.1 214.5 355.3 220.7L419.3 284.7C425.5 290.9 425.5 301.1 419.3 307.3C413.1 313.5 402.9 313.5 396.7 307.3L332.7 243.3C326.5 237.1 326.5 226.9 332.7 220.7zM509.4 118.5C465.6 112.4 426.5 110.8 391.5 112.9L526.5 247.8C529.3 212.6 528.1 177.9 524.1 146.2L521.8 130C520.9 124.3 516 119.4 509.5 118.4z"/></svg>