<svg xmlns="http://www.w3.org/2000/svg" viewBox="0 0 640 640"><!--! Font Awesome Pro 7.1.0 by @fontawesome - https://fontawesome.com License - https://fontawesome.com/license (Commercial License) Copyright 2025 Fonticons, Inc. --><path fill="currentColor" d="M512 80C512 71.2 504.8 64 496 64C487.2 64 480 71.2 480 80L480 528C480 536.8 487.2 544 496 544L592 544C600.8 544 608 536.8 608 528C608 519.2 600.8 512 592 512L512 512L512 80zM64 488C64 457.1 89.1 432 120 432C150.9 432 176 457.1 176 488C176 518.9 150.9 544 120 544C89.1 544 64 518.9 64 488zM32 280L32 488C32 536.6 71.4 576 120 576C160.3 576 194.2 548.9 204.7 512L275.3 512C285.7 548.9 319.7 576 360 576C408.6 576 448 536.6 448 488C448 460.7 435.5 436.3 416 420.1L416 330.5C416 321.2 414 312.1 410.1 303.7L327.1 123.9C319.3 106.9 302.2 96 283.5 96L176 96C149.5 96 128 117.5 128 144L128 224L88 224C57.1 224 32 249.1 32 280zM384 403.3C376.4 401.1 368.3 400 360 400C314.1 400 276.4 435.1 272.4 480L207.7 480C203.7 435.1 166 400 120.1 400C98.8 400 79.3 407.5 64.1 420.1L64 280C64 266.7 74.7 256 88 256L137.4 256L228.7 347.3C231.7 350.3 235.8 352 240 352L384 352L384 403.3zM382.2 320L246.6 320L160 233.4L160 144C160 135.2 167.2 128 176 128L283.5 128C289.7 128 295.4 131.6 298 137.3L381 317.1C381.4 318 381.8 319 382.2 320zM304 488C304 457.1 329.1 432 360 432C390.9 432 416 457.1 416 488C416 518.9 390.9 544 360 544C329.1 544 304 518.9 304 488z"/></svg>