<svg xmlns="http://www.w3.org/2000/svg" viewBox="0 0 640 640"><!--! Font Awesome Pro 7.1.0 by @fontawesome - https://fontawesome.com License - https://fontawesome.com/license (Commercial License) Copyright 2025 Fonticons, Inc. --><path fill="currentColor" d="M48 96C56.8 96 64 103.2 64 112L64 160L144 160L144 112C144 103.2 151.2 96 160 96C168.8 96 176 103.2 176 112L176 160L256 160L256 112C256 103.2 263.2 96 272 96C280.8 96 288 103.2 288 112L288 224L352 224L352 112C352 103.2 359.2 96 368 96C376.8 96 384 103.2 384 112L384 160L464 160L464 112C464 103.2 471.2 96 480 96C488.8 96 496 103.2 496 112L496 160L576 160L576 112C576 103.2 583.2 96 592 96C600.8 96 608 103.2 608 112L608 272C608 292.9 594.6 310.7 576 317.3L576 512C576 547.3 547.3 576 512 576L128 576C92.7 576 64 547.3 64 512L64 317.3C45.4 310.7 32 292.9 32 272L32 112C32 103.2 39.2 96 48 96zM272 544L368 544L368 480C368 453.5 346.5 432 320 432C293.5 432 272 453.5 272 480L272 544zM400 544L512 544C529.7 544 544 529.7 544 512L544 320L400 320C373.5 320 352 298.5 352 272L352 256L288 256L288 272C288 298.5 266.5 320 240 320L96 320L96 512C96 529.7 110.3 544 128 544L240 544L240 480C240 435.8 275.8 400 320 400C364.2 400 400 435.8 400 480L400 544zM576 192L384 192L384 272C384 280.8 391.2 288 400 288L560 288C568.8 288 576 280.8 576 272L576 192zM64 272C64 280.8 71.2 288 80 288L240 288C248.8 288 256 280.8 256 272L256 192L64 192L64 272z"/></svg>