<svg xmlns="http://www.w3.org/2000/svg" viewBox="0 0 640 640"><!--! Font Awesome Pro 7.1.0 by @fontawesome - https://fontawesome.com License - https://fontawesome.com/license (Commercial License) Copyright 2025 Fonticons, Inc. --><path fill="currentColor" d="M560 544C568.8 544 576 536.8 576 528L576 112C576 103.2 568.8 96 560 96C551.2 96 544 103.2 544 112L544 277.9L340.8 103.8C331.3 95.7 318 93.8 306.6 99C295.2 104.2 288 115.5 288 128L288 250.4L116.8 103.7C107.3 95.6 94 93.7 82.6 98.9C71.2 104.1 64 115.5 64 128L64 512C64 524.5 71.3 535.8 82.6 541.1C93.9 546.4 107.3 544.5 116.8 536.3L288 389.6L288 512C288 524.5 295.3 535.8 306.6 541.1C317.9 546.4 331.3 544.5 340.8 536.3L544 362.1L544 528C544 536.8 551.2 544 560 544zM288 347.4L96 512L96 128L288 292.6L288 347.4zM320 512L320 128L544 320L320 512z"/></svg>