<svg xmlns="http://www.w3.org/2000/svg" viewBox="0 0 640 640"><!--! Font Awesome Pro 7.1.0 by @fontawesome - https://fontawesome.com License - https://fontawesome.com/license (Commercial License) Copyright 2025 Fonticons, Inc. --><path fill="currentColor" d="M141.5 130.2C139.2 128 135.8 127.4 132.8 128.6C129.8 129.8 128 132.8 128 136L128 504C128 507.2 129.9 510.1 132.9 511.4C135.9 512.7 139.3 512 141.6 509.8L333.6 325.8C335.2 324.3 336.1 322.2 336.1 320C336.1 317.8 335.2 315.7 333.6 314.2L141.6 130.2zM336 367.7L163.7 532.9C152.1 544 135.1 547.1 120.3 540.8C105.5 534.5 96 520 96 504L96 136C96 120 105.6 105.5 120.3 99.2C135 92.9 152.1 96 163.7 107.1L336 272.3L336 136C336 120 345.6 105.5 360.3 99.2C375 92.9 392.1 96 403.7 107.1L595.7 291.1C603.6 298.6 608 309.1 608 320C608 330.9 603.5 341.3 595.7 348.9L403.7 532.9C392.1 544 375.1 547.1 360.3 540.8C345.5 534.5 336 520 336 504L336 367.7zM372.9 128.6C370 129.9 368 132.8 368 136L368 504C368 507.2 369.9 510.1 372.9 511.4C375.9 512.7 379.3 512 381.6 509.8L573.6 325.8C575.2 324.3 576.1 322.2 576.1 320C576.1 317.8 575.2 315.7 573.6 314.2L381.6 130.2C379.3 128 375.9 127.4 372.9 128.6z"/></svg>