<svg xmlns="http://www.w3.org/2000/svg" viewBox="0 0 640 640"><!--! Font Awesome Pro 7.1.0 by @fontawesome - https://fontawesome.com License - https://fontawesome.com/license (Commercial License) Copyright 2025 Fonticons, Inc. --><path fill="currentColor" d="M576 144C576 135.2 568.8 128 560 128L512 128L512 80C512 71.2 504.8 64 496 64C487.2 64 480 71.2 480 80L480 128L160 128L160 80C160 71.2 152.8 64 144 64C135.2 64 128 71.2 128 80L128 128L80 128C71.2 128 64 135.2 64 144C64 152.8 71.2 160 80 160L128 160L128 480L80 480C71.2 480 64 487.2 64 496C64 504.8 71.2 512 80 512L128 512L128 560C128 568.8 135.2 576 144 576C152.8 576 160 568.8 160 560L160 512L480 512L480 560C480 568.8 487.2 576 496 576C504.8 576 512 568.8 512 560L512 512L560 512C568.8 512 576 504.8 576 496C576 487.2 568.8 480 560 480L512 480L512 160L560 160C568.8 160 576 152.8 576 144zM480 160L480 480L160 480L160 160L480 160z"/></svg>