<svg xmlns="http://www.w3.org/2000/svg" viewBox="0 0 640 640"><!--! Font Awesome Pro 7.1.0 by @fontawesome - https://fontawesome.com License - https://fontawesome.com/license (Commercial License) Copyright 2025 Fonticons, Inc. --><path fill="currentColor" d="M240 96C231.2 96 224 103.2 224 112L224 384L176 384C167.2 384 160 391.2 160 400C160 408.8 167.2 416 176 416L224 416L224 528C224 536.8 231.2 544 240 544C248.8 544 256 536.8 256 528L256 416L368 416C376.8 416 384 408.8 384 400C384 391.2 376.8 384 368 384L256 384L256 288L432 288C440.8 288 448 280.8 448 272C448 263.2 440.8 256 432 256L256 256L256 128L464 128C472.8 128 480 120.8 480 112C480 103.2 472.8 96 464 96L240 96z"/></svg>