<svg xmlns="http://www.w3.org/2000/svg" viewBox="0 0 640 640"><!--! Font Awesome Pro 7.1.0 by @fontawesome - https://fontawesome.com License - https://fontawesome.com/license (Commercial License) Copyright 2025 Fonticons, Inc. --><path fill="currentColor" d="M240 64L240 269.1C249.8 273.9 260.6 278.1 272 281.3L272 64C272 55.2 264.8 48 256 48C247.2 48 240 55.2 240 64zM320 288C325.4 288 330.7 287.7 336 287.2L336 112C336 103.2 328.8 96 320 96C311.2 96 304 103.2 304 112L304 287.2C309.3 287.7 314.6 288 320 288zM368 281.2C379.4 278 390.2 273.9 400 269L400 80C400 71.2 392.8 64 384 64C375.2 64 368 71.2 368 80L368 281.2zM443.8 235C449.3 227.3 456.2 221.1 464 216.6L464 112C464 103.2 456.8 96 448 96C439.2 96 432 103.2 432 112L432 248C436.7 243.8 440.7 239.4 443.8 235zM196.2 235C199.3 239.4 203.3 243.8 208 248L208 112C208 103.2 200.8 96 192 96C183.2 96 176 103.2 176 112L176 216.6C183.8 221.1 190.7 227.3 196.2 235zM157.1 262.7C152.6 256.4 144.4 254.2 137.4 257.4C130.4 260.6 126.7 268.4 128.6 275.8L183.4 495.5C190.5 524 216.1 544 245.5 544L394.5 544C423.9 544 449.5 524 456.6 495.5L511.5 275.9C513.4 268.4 509.7 260.7 502.7 257.5C495.7 254.3 487.4 256.5 483 262.8C452.6 305.6 384.3 336 320 336C255.7 336 187.4 305.6 157.1 262.7zM214.5 487.7L173.1 322.3C259 382.8 381.1 382.8 467 322.3L425.6 487.8C422 502 409.2 512 394.5 512L245.5 512C230.8 512 218 502 214.5 487.8z"/></svg>