<svg xmlns="http://www.w3.org/2000/svg" viewBox="0 0 640 640"><!--! Font Awesome Pro 7.1.0 by @fontawesome - https://fontawesome.com License - https://fontawesome.com/license (Commercial License) Copyright 2025 Fonticons, Inc. --><path fill="currentColor" d="M400 128C373.5 128 352 149.5 352 176C352 176.6 352 177.1 351.9 177.7C351 185.7 344.3 192 336 192L332.8 192C184.3 192 64 312.3 64 460.8L64 480C64 497.7 78.3 512 96 512L368 512C376.8 512 384 504.8 384 496C384 487.2 376.8 480 368 480L336 480C331.9 480 327.8 478.4 324.7 475.3C318.5 469.1 318.5 458.9 324.7 452.7L333.5 443.9C335.2 442.2 336.7 440.5 338.2 438.6C347.1 427.5 352 413.6 352 399.2C352 386.7 348.3 375 342.1 365.2C330.9 347.7 311.2 336.1 288.8 336.1C272 336.1 256 342.8 244.1 354.6L203.3 395.4C197.1 401.6 186.9 401.6 180.7 395.4C174.5 389.2 174.5 379 180.7 372.8L221.5 332C239.4 314.1 263.6 304.1 288.8 304.1C309.5 304.1 328.7 310.7 344.3 322C368.3 339.3 384 367.5 384 399.3C384 416.7 379.3 433.5 370.5 448.2C395.8 449.5 416 470.5 416 496.1C416 522.6 394.5 544.1 368 544.1L96 544C60.7 544 32 515.3 32 480L32 460.8C32 298.4 160.6 166.1 321.6 160.2C328.9 123.6 361.3 96 400 96C441.4 96 475.4 127.4 479.6 167.7C517.7 175 548.7 186.2 569.7 195.3C594.6 206 608 230.8 608 256.1C608 281.6 594.6 305.2 572.8 318.3L455.7 388.4L551.8 512L592 512C600.8 512 608 519.2 608 528C608 536.8 600.8 544 592 544L544 544C539.1 544 534.4 541.7 531.4 537.8L419.4 393.8C416.6 390.2 415.5 385.5 416.3 381C417.1 376.5 419.9 372.6 423.8 370.2L556.4 290.7C568.6 283.4 576.1 270.2 576.1 256C576.1 241.6 568.6 229.6 557.1 224.6C535.6 215.3 502.3 203.5 461.4 196.9C453.2 195.6 447.3 188.2 448 179.8C448.1 178.5 448.2 177.2 448.2 175.9C448.2 149.4 426.7 127.9 400.2 127.9zM400 160C408.8 160 416 167.2 416 176C416 184.8 408.8 192 400 192C391.2 192 384 184.8 384 176C384 167.2 391.2 160 400 160z"/></svg>