<svg xmlns="http://www.w3.org/2000/svg" viewBox="0 0 640 640"><!--! Font Awesome Pro 7.1.0 by @fontawesome - https://fontawesome.com License - https://fontawesome.com/license (Commercial License) Copyright 2025 Fonticons, Inc. --><path fill="currentColor" d="M544 320C544 196.3 443.7 96 320 96C196.3 96 96 196.3 96 320C96 443.7 196.3 544 320 544C443.7 544 544 443.7 544 320zM64 320C64 178.6 178.6 64 320 64C461.4 64 576 178.6 576 320C576 461.4 461.4 576 320 576C178.6 576 64 461.4 64 320zM240 248C253.3 248 264 258.7 264 272C264 285.3 253.3 296 240 296C226.7 296 216 285.3 216 272C216 258.7 226.7 248 240 248zM376 272C376 258.7 386.7 248 400 248C413.3 248 424 258.7 424 272C424 285.3 413.3 296 400 296C386.7 296 376 285.3 376 272zM398.4 464.1C376 454.6 350.7 449.3 323.9 449.3C297.1 449.3 271.9 454.6 249.5 464.1C238.3 468.8 225.7 467.2 216.7 460.5C207 453.3 201.8 440.1 207.7 426.6C226.9 382.5 271.9 351.9 323.9 351.9C375.9 351.9 420.9 382.5 440.1 426.6C446 440.2 440.9 453.3 431.1 460.5C422.1 467.1 409.6 468.8 398.3 464zM324 383.9C287.1 383.9 255.5 404.2 240.1 433.4C265.7 423 294.1 417.3 324 417.3C353.9 417.3 382.4 423.1 408 433.4C392.6 404.2 360.9 383.9 324 383.9z"/></svg>