<svg xmlns="http://www.w3.org/2000/svg" viewBox="0 0 640 640"><!--! Font Awesome Pro 7.1.0 by @fontawesome - https://fontawesome.com License - https://fontawesome.com/license (Commercial License) Copyright 2025 Fonticons, Inc. --><path fill="currentColor" d="M80 144C80 99.8 115.8 64 160 64L208 64C216.8 64 224 71.2 224 80C224 88.8 216.8 96 208 96L160 96C133.5 96 112 117.5 112 144L112 256L176 256C184.8 256 192 263.2 192 272C192 280.8 184.8 288 176 288L112 288L112 462.1C112 503.2 80.9 537.6 40 541.7L17.6 543.9C8.8 544.8 1 538.4 .1 529.6C-.8 520.8 5.6 513 14.4 512.1L36.8 509.9C61.3 507.4 80 486.7 80 462.1L80 288L16 288C7.2 288 0 280.8 0 272C0 263.2 7.2 256 16 256L80 256L80 144zM301.5 224.5C272.8 270.1 256 324.9 256 384C256 443.1 272.8 497.9 301.5 543.5C306.2 551 304 560.9 296.5 565.6C289 570.3 279.1 568.1 274.4 560.6C242.5 509.9 224 449.2 224 384C224 318.8 242.5 258.1 274.5 207.5C279.2 200 289.1 197.8 296.6 202.5C304.1 207.2 306.3 217.1 301.6 224.6zM562.4 224.5C557.7 217 559.9 207.1 567.4 202.4C574.9 197.7 584.8 199.9 589.5 207.4C621.5 258.1 640 318.8 640 384C640 449.2 621.5 509.9 589.5 560.5C584.8 568 574.9 570.2 567.4 565.5C559.9 560.8 557.7 550.9 562.4 543.4C591.2 497.9 608 443.1 608 384C608 324.9 591.2 270.1 562.5 224.5zM379.3 308.7L432 361.4L484.7 308.7C490.9 302.5 501.1 302.5 507.3 308.7C513.5 314.9 513.5 325.1 507.3 331.3L454.6 384L507.3 436.7C513.5 442.9 513.5 453.1 507.3 459.3C501.1 465.5 490.9 465.5 484.7 459.3L432 406.6L379.3 459.3C373.1 465.5 362.9 465.5 356.7 459.3C350.5 453.1 350.5 442.9 356.7 436.7L409.4 384L356.7 331.3C350.5 325.1 350.5 314.9 356.7 308.7C362.9 302.5 373.1 302.5 379.3 308.7z"/></svg>