<svg xmlns="http://www.w3.org/2000/svg" viewBox="0 0 640 640"><!--! Font Awesome Pro 7.1.0 by @fontawesome - https://fontawesome.com License - https://fontawesome.com/license (Commercial License) Copyright 2025 Fonticons, Inc. --><path fill="currentColor" d="M34.4 147.8C39.4 135.8 51.1 128 64 128L512 128C524.9 128 536.6 135.8 541.6 147.8C546.6 159.8 543.8 173.5 534.7 182.7L444.3 273C422 275.3 400.8 281.4 381.4 290.6L512 160L64 160L251.3 347.3C254.3 350.3 256 354.4 256 358.6L256 480L275.2 499.2C280.2 526 290.7 550.9 305.6 572.6C302.6 571.1 299.8 569.1 297.3 566.6L233.3 502.6C227.3 496.6 223.9 488.5 223.9 480L224 365.3L41.4 182.6C32.2 173.5 29.5 159.7 34.4 147.8zM464 576C525.9 576 576 525.9 576 464C576 402.1 525.9 352 464 352C402.1 352 352 402.1 352 464C352 525.9 402.1 576 464 576zM464 320C543.5 320 608 384.5 608 464C608 543.5 543.5 608 464 608C384.5 608 320 543.5 320 464C320 384.5 384.5 320 464 320zM448 384C448 375.2 455.2 368 464 368C472.8 368 480 375.2 480 384L480 392L496 392C504.8 392 512 399.2 512 408C512 416.8 504.8 424 496 424L450.2 424C444.6 424 440 428.6 440 434.2C440 439.1 443.5 443.3 448.3 444.2L493.3 452.4C513.3 456 527.9 473.5 527.9 493.9C527.9 517.2 509 536.1 485.7 536.1L479.9 536.1L479.9 544.1C479.9 552.9 472.7 560.1 463.9 560.1C455.1 560.1 447.9 552.9 447.9 544.1L447.9 536.1L431.9 536.1C423.1 536.1 415.9 528.9 415.9 520.1C415.9 511.3 423.1 504.1 431.9 504.1L485.7 504.1C491.3 504.1 495.9 499.5 495.9 493.9C495.9 489 492.4 484.8 487.6 483.9L442.6 475.7C422.6 472.1 408 454.6 408 434.2C408 411.6 425.7 393.2 448 392.1L448 384z"/></svg>