<svg xmlns="http://www.w3.org/2000/svg" viewBox="0 0 640 640"><!--! Font Awesome Pro 7.1.0 by @fontawesome - https://fontawesome.com License - https://fontawesome.com/license (Commercial License) Copyright 2025 Fonticons, Inc. --><path fill="currentColor" d="M320 128C214 128 128 214 128 320C128 426 214 512 320 512C418.5 512 499.8 437.7 510.7 342.1C510.9 340.6 510.4 339.3 509.3 338.1C508.1 336.9 506.2 335.9 504 335.9L338.3 335.9C329.5 335.9 322.3 328.7 322.3 319.9C322.3 311.1 329.5 303.9 338.3 303.9L504 304C525.5 304 545.3 321.9 542.5 345.8C529.7 457.4 435 544 320 544C196.3 544 96 443.7 96 320C96 196.3 196.3 96 320 96C377.4 96 429.7 117.6 469.3 153C475.9 158.9 476.4 169 470.6 175.6C464.8 182.2 454.6 182.7 448 176.9C414 146.5 369.2 128 320 128z"/></svg>