<svg xmlns="http://www.w3.org/2000/svg" viewBox="0 0 640 640"><!--! Font Awesome Pro 7.1.0 by @fontawesome - https://fontawesome.com License - https://fontawesome.com/license (Commercial License) Copyright 2025 Fonticons, Inc. --><path fill="currentColor" d="M208 248C208 164.1 276.1 96 360 96L372.8 96C335.9 123.2 310.6 162.6 300.7 206.5C299.3 212.5 301.6 218.8 306.5 222.6C311.4 226.4 318 227.1 323.6 224.3C344.2 213.9 367.4 208 392.1 208C476 208 544.1 276.1 544.1 360L544.1 372.8C516.9 335.9 477.5 310.6 433.6 300.7C427.6 299.3 421.3 301.6 417.4 306.5C413.5 311.4 412.9 318 415.7 323.6C426.1 344.2 432 367.4 432 392.1C432 476 363.9 544.1 280 544.1L267.2 544.1C304.1 516.9 329.4 477.5 339.3 433.6C340.7 427.6 338.4 421.3 333.5 417.4C328.6 413.5 322 412.9 316.4 415.7C295.8 426.1 272.6 432 247.9 432C164 432 95.9 363.9 95.9 280L95.9 267.2C123.1 304.1 162.5 329.4 206.4 339.3C212.4 340.7 218.7 338.4 222.5 333.5C226.3 328.6 227 322 224.2 316.4C213.9 295.9 208 272.7 208 248zM360 64C258.4 64 176 146.4 176 248C176 265.2 178.4 281.9 182.8 297.7C158.5 286.6 137.1 269.3 121 247.1L112.1 235C107.1 228.1 99.1 224 90.6 224C75.9 224 64 235.9 64 250.6L64 280C64 381.6 146.4 464 248 464C265.2 464 281.9 461.6 297.7 457.2C286.6 481.5 269.3 502.9 247.1 519L247.1 519L234.9 527.9C228 532.9 223.9 540.9 223.9 549.4C223.9 564.1 235.8 576 250.5 576L279.9 576C381.5 576 463.9 493.6 463.9 392C463.9 374.8 461.5 358.1 457.1 342.3C481.4 353.4 502.8 370.7 518.9 392.9L527.8 405.1C532.8 412 540.8 416.1 549.3 416.1C564 416.1 575.9 404.2 575.9 389.5L575.9 360.1C575.9 258.5 493.5 176.1 391.9 176.1C374.7 176.1 358 178.5 342.2 182.9C353.3 158.6 370.6 137.2 392.8 121.1L405 112.1C411.9 107.1 416 99.1 416 90.6C416 75.9 404.1 64 389.4 64L360 64zM320 384C355.3 384 384 355.3 384 320C384 284.7 355.3 256 320 256C284.7 256 256 284.7 256 320C256 355.3 284.7 384 320 384zM288 320C288 302.3 302.3 288 320 288C337.7 288 352 302.3 352 320C352 337.7 337.7 352 320 352C302.3 352 288 337.7 288 320z"/></svg>