<svg xmlns="http://www.w3.org/2000/svg" viewBox="0 0 640 640"><!--! Font Awesome Pro 7.1.0 by @fontawesome - https://fontawesome.com License - https://fontawesome.com/license (Commercial License) Copyright 2025 Fonticons, Inc. --><path fill="currentColor" d="M544 160C561.7 160 576 174.3 576 192L576 288C576 305.7 561.7 320 544 320L96 320C78.3 320 64 305.7 64 288L64 192C64 174.3 78.3 160 96 160L544 160zM96 128C60.7 128 32 156.7 32 192L32 288C32 323.3 60.7 352 96 352L544 352C579.3 352 608 323.3 608 288L608 192C608 156.7 579.3 128 544 128L96 128zM96 448L96 480L64 480L64 448L96 448zM64 416C46.3 416 32 430.3 32 448L32 480C32 497.7 46.3 512 64 512L96 512C113.7 512 128 497.7 128 480L128 448C128 430.3 113.7 416 96 416L64 416zM224 448L256 448L256 480L224 480L224 448zM192 448L192 480C192 497.7 206.3 512 224 512L256 512C273.7 512 288 497.7 288 480L288 448C288 430.3 273.7 416 256 416L224 416C206.3 416 192 430.3 192 448zM416 448L416 480L384 480L384 448L416 448zM384 416C366.3 416 352 430.3 352 448L352 480C352 497.7 366.3 512 384 512L416 512C433.7 512 448 497.7 448 480L448 448C448 430.3 433.7 416 416 416L384 416zM544 448L576 448L576 480L544 480L544 448zM512 448L512 480C512 497.7 526.3 512 544 512L576 512C593.7 512 608 497.7 608 480L608 448C608 430.3 593.7 416 576 416L544 416C526.3 416 512 430.3 512 448z"/></svg>