<svg xmlns="http://www.w3.org/2000/svg" viewBox="0 0 640 640"><!--! Font Awesome Pro 7.1.0 by @fontawesome - https://fontawesome.com License - https://fontawesome.com/license (Commercial License) Copyright 2025 Fonticons, Inc. --><path fill="currentColor" d="M410.7 96.3C520.6 101.9 608 192.7 608 304L608 444.3C608 499.4 563.4 544 508.3 544C465.4 544 427.3 516.5 413.7 475.8L404.4 448L235.5 448L226.2 475.8C212.7 516.5 174.6 544 131.7 544C76.6 544 32 499.4 32 444.3L32 304C32 189.1 125.1 96 240 96L400 96L410.7 96.3zM240 128C142.8 128 64 206.8 64 304L64 444.3C64 481.7 94.3 512 131.7 512C160.8 512 186.7 493.4 195.9 465.7L208.8 426.9L209.8 424.6C212.5 419.4 218 416 224 416L416 416C422.9 416 429 420.4 431.2 426.9L444.1 465.7C453.3 493.3 479.2 512 508.3 512C545.7 512 576 481.7 576 444.3L576 304C576 209.8 502.1 132.9 409.1 128.2L400 128L240 128zM192 224C200.8 224 208 231.2 208 240L208 272L240 272C248.8 272 256 279.2 256 288C256 296.8 248.8 304 240 304L208 304L208 336C208 344.8 200.8 352 192 352C183.2 352 176 344.8 176 336L176 304L144 304C135.2 304 128 296.8 128 288C128 279.2 135.2 272 144 272L176 272L176 240C176 231.2 183.2 224 192 224zM416 344C402.7 344 392 333.3 392 320C392 306.7 402.7 296 416 296C429.3 296 440 306.7 440 320C440 333.3 429.3 344 416 344zM464 264C450.7 264 440 253.3 440 240C440 226.7 450.7 216 464 216C477.3 216 488 226.7 488 240C488 253.3 477.3 264 464 264z"/></svg>