<svg xmlns="http://www.w3.org/2000/svg" viewBox="0 0 640 640"><!--! Font Awesome Pro 7.1.0 by @fontawesome - https://fontawesome.com License - https://fontawesome.com/license (Commercial License) Copyright 2025 Fonticons, Inc. --><path fill="currentColor" d="M486.5 96.3C518.8 99.6 544 126.9 544 160L544 480L543.7 486.5C540.6 516.6 516.7 540.6 486.6 543.6L480.1 543.9L160.1 543.9L153.6 543.6C123.5 540.5 99.5 516.6 96.5 486.5L96 480L96 160C96 126.9 121.2 99.6 153.5 96.3L160 96L480 96L486.5 96.3zM128 480C128 497.7 142.3 512 160 512L200 512L200 440L128 440L128 480zM232 512L304 512L304 440L232 440L232 512zM440 512L480 512C497.7 512 512 497.7 512 480L512 440L440 440L440 512zM336 512L408 512L408 440L336 440L336 512zM128 408L200 408L200 336L128 336L128 408zM232 408L304 408L304 336L232 336L232 408zM440 408L512 408L512 336L440 336L440 408zM336 408L408 408L408 336L336 336L336 408zM128 304L200 304L200 232L128 232L128 304zM232 304L304 304L304 232L232 232L232 304zM440 304L512 304L512 232L440 232L440 304zM336 304L408 304L408 232L336 232L336 304zM160 128C142.3 128 128 142.3 128 160L128 200L200 200L200 128L160 128zM232 200L304 200L304 128L232 128L232 200zM440 200L512 200L512 160C512 142.3 497.7 128 480 128L440 128L440 200zM336 200L408 200L408 128L336 128L336 200z"/></svg>