<svg xmlns="http://www.w3.org/2000/svg" viewBox="0 0 640 640"><!--! Font Awesome Pro 7.1.0 by @fontawesome - https://fontawesome.com License - https://fontawesome.com/license (Commercial License) Copyright 2025 Fonticons, Inc. --><path fill="currentColor" d="M486.5 96.3C518.8 99.6 544 126.9 544 160L544 480L543.7 486.5C540.6 516.6 516.7 540.6 486.6 543.6L480.1 543.9L160.1 543.9L153.6 543.6C123.5 540.5 99.5 516.6 96.5 486.5L96 480L96 160C96 126.9 121.2 99.6 153.5 96.3L160 96L480 96L486.5 96.3zM160 128C142.3 128 128 142.3 128 160L128 480C128 497.7 142.3 512 160 512L480 512C497.7 512 512 497.7 512 480L512 160C512 142.3 497.7 128 480 128L160 128zM451.3 160.2C467.4 161.8 480 175.4 480 192L480 448L479.8 451.3C478.3 466.4 466.3 478.3 451.2 479.9L447.9 480.1L191.9 480.1L188.6 479.9C173.5 478.4 161.6 466.4 160 451.3L160 448L160 192C160 175.4 172.6 161.8 188.7 160.2L192 160L448 160L451.3 160.2zM336 448L448 448L448 336L336 336L336 448zM192 448L304 448L304 336L192 336L192 448zM336 304L448 304L448 192L336 192L336 304zM192 304L304 304L304 192L192 192L192 304z"/></svg>