<svg xmlns="http://www.w3.org/2000/svg" viewBox="0 0 640 640"><!--! Font Awesome Pro 7.1.0 by @fontawesome - https://fontawesome.com License - https://fontawesome.com/license (Commercial License) Copyright 2025 Fonticons, Inc. --><path fill="currentColor" d="M192 160C103.6 160 32 231.6 32 320C32 408.4 103.6 480 192 480L448 480C536.4 480 608 408.4 608 320C608 231.6 536.4 160 448 160L192 160zM0 320C0 214 86 128 192 128L448 128C554 128 640 214 640 320C640 426 554 512 448 512L192 512C86 512 0 426 0 320zM208 256L208 304L256 304C264.8 304 272 311.2 272 320C272 328.8 264.8 336 256 336L208 336L208 384C208 392.8 200.8 400 192 400C183.2 400 176 392.8 176 384L176 336L128 336C119.2 336 112 328.8 112 320C112 311.2 119.2 304 128 304L176 304L176 256C176 247.2 183.2 240 192 240C200.8 240 208 247.2 208 256zM408 368C408 354.7 418.7 344 432 344C445.3 344 456 354.7 456 368C456 381.3 445.3 392 432 392C418.7 392 408 381.3 408 368zM496 248C509.3 248 520 258.7 520 272C520 285.3 509.3 296 496 296C482.7 296 472 285.3 472 272C472 258.7 482.7 248 496 248z"/></svg>