<svg xmlns="http://www.w3.org/2000/svg" viewBox="0 0 640 640"><!--! Font Awesome Pro 7.1.0 by @fontawesome - https://fontawesome.com License - https://fontawesome.com/license (Commercial License) Copyright 2025 Fonticons, Inc. --><path fill="currentColor" d="M192 96C174.3 96 160 110.3 160 128L160 480C160 515.3 188.7 544 224 544L416 544C451.3 544 480 515.3 480 480L480 128C480 110.3 465.7 96 448 96L192 96zM128 128C128 92.7 156.7 64 192 64L448 64C483.3 64 512 92.7 512 128L512 480C512 533 469 576 416 576L224 576C171 576 128 533 128 480L128 128zM224 288L416 288L416 160L224 160L224 288zM192 144C192 135.2 199.2 128 208 128L432 128C440.8 128 448 135.2 448 144L448 288C448 305.7 433.7 320 416 320L224 320C206.3 320 192 305.7 192 288L192 144zM336 424C336 410.7 346.7 400 360 400C373.3 400 384 410.7 384 424C384 437.3 373.3 448 360 448C346.7 448 336 437.3 336 424zM424 352C437.3 352 448 362.7 448 376C448 389.3 437.3 400 424 400C410.7 400 400 389.3 400 376C400 362.7 410.7 352 424 352zM224 368C224 359.2 231.2 352 240 352C248.8 352 256 359.2 256 368L256 384L272 384C280.8 384 288 391.2 288 400C288 408.8 280.8 416 272 416L256 416L256 432C256 440.8 248.8 448 240 448C231.2 448 224 440.8 224 432L224 416L208 416C199.2 416 192 408.8 192 400C192 391.2 199.2 384 208 384L224 384L224 368z"/></svg>