<svg xmlns="http://www.w3.org/2000/svg" viewBox="0 0 640 640"><!--! Font Awesome Pro 7.1.0 by @fontawesome - https://fontawesome.com License - https://fontawesome.com/license (Commercial License) Copyright 2025 Fonticons, Inc. --><path fill="currentColor" d="M96 128C78.3 128 64 142.3 64 160L64 480C64 497.7 78.3 512 96 512L416 512C433.7 512 448 497.7 448 480L448 160C448 142.3 433.7 128 416 128L96 128zM480 160L480 320L512 320L512 224C512 206.3 526.3 192 544 192L576 192C593.7 192 608 206.3 608 224L608 256C608 273.7 593.7 288 576 288L544 288L544 336C544 344.8 536.8 352 528 352L480 352L480 480C480 515.3 451.3 544 416 544L96 544C60.7 544 32 515.3 32 480L32 160C32 124.7 60.7 96 96 96L416 96C451.3 96 480 124.7 480 160zM128 192L128 320L384 320L384 192L128 192zM96 192C96 174.3 110.3 160 128 160L384 160C401.7 160 416 174.3 416 192L416 320C416 337.7 401.7 352 384 352L128 352C110.3 352 96 337.7 96 320L96 192zM544 256L576 256L576 224L544 224L544 256zM160 400L160 416L176 416C184.8 416 192 423.2 192 432C192 440.8 184.8 448 176 448L160 448L160 464C160 472.8 152.8 480 144 480C135.2 480 128 472.8 128 464L128 448L112 448C103.2 448 96 440.8 96 432C96 423.2 103.2 416 112 416L128 416L128 400C128 391.2 135.2 384 144 384C152.8 384 160 391.2 160 400zM256 424C256 410.7 266.7 400 280 400C293.3 400 304 410.7 304 424C304 437.3 293.3 448 280 448C266.7 448 256 437.3 256 424zM360 400C373.3 400 384 410.7 384 424C384 437.3 373.3 448 360 448C346.7 448 336 437.3 336 424C336 410.7 346.7 400 360 400z"/></svg>