<svg xmlns="http://www.w3.org/2000/svg" viewBox="0 0 640 640"><!--! Font Awesome Pro 7.1.0 by @fontawesome - https://fontawesome.com License - https://fontawesome.com/license (Commercial License) Copyright 2025 Fonticons, Inc. --><path fill="currentColor" d="M576 256L64 256L64 560C64 568.8 56.8 576 48 576C39.2 576 32 568.8 32 560L32 219.8C32 193.4 48.2 169.7 72.8 160.2L302.6 70.8C313.8 66.4 326.2 66.4 337.4 70.8L567.2 160.1C591.8 169.7 608 193.4 608 219.7L608 560C608 568.8 600.8 576 592 576C583.2 576 576 568.8 576 560L576 256zM576 224L576 219.8C576 206.6 567.9 194.8 555.6 190L325.8 100.6C322.1 99.1 317.9 99.1 314.2 100.6L84.4 190C72.1 194.7 64 206.6 64 219.8L64 224L576 224zM236.7 344.9L209.6 400L430.4 400L403.3 344.9C400.6 339.4 395 336 388.9 336L251 336C244.9 336 239.3 339.5 236.6 344.9zM194.4 432C192.8 436.8 192 441.8 192 446.9L192 512L448 512L448 446.9C448 441.8 447.2 436.8 445.6 432L194.3 432zM192 544L192 558C192 566.8 184.8 574 176 574C167.2 574 160 566.8 160 558L160 446.9C160 434.7 162.8 422.6 168.2 411.6L208 330.8C216 314.4 232.7 304 251 304L389 304C407.3 304 424 314.4 432.1 330.8L471.8 411.6C477.2 422.6 480 434.7 480 446.9L480 558C480 566.8 472.8 574 464 574C455.2 574 448 566.8 448 558L448 544L192 544zM240 456C248.8 456 256 463.2 256 472C256 480.8 248.8 488 240 488C231.2 488 224 480.8 224 472C224 463.2 231.2 456 240 456zM384 472C384 463.2 391.2 456 400 456C408.8 456 416 463.2 416 472C416 480.8 408.8 488 400 488C391.2 488 384 480.8 384 472z"/></svg>