<svg xmlns="http://www.w3.org/2000/svg" viewBox="0 0 640 640"><!--! Font Awesome Pro 7.1.0 by @fontawesome - https://fontawesome.com License - https://fontawesome.com/license (Commercial License) Copyright 2025 Fonticons, Inc. --><path fill="currentColor" d="M576 256L64 256L64 560C64 568.8 56.8 576 48 576C39.2 576 32 568.8 32 560L32 219.8C32 193.4 48.2 169.7 72.8 160.2L302.6 70.8C313.8 66.4 326.2 66.4 337.4 70.8L567.2 160.1C591.8 169.7 608 193.4 608 219.7L608 560C608 568.8 600.8 576 592 576C583.2 576 576 568.8 576 560L576 256zM576 224L576 219.8C576 206.6 567.9 194.8 555.6 190L325.8 100.6C322.1 99.1 317.9 99.1 314.2 100.6L84.4 190C72.1 194.7 64 206.6 64 219.8L64 224L576 224zM160 320L480 320C497.7 320 512 334.3 512 352L512 560C512 568.8 504.8 576 496 576C487.2 576 480 568.8 480 560L480 448L160 448L160 560C160 568.8 152.8 576 144 576C135.2 576 128 568.8 128 560L128 352C128 334.3 142.3 320 160 320zM480 416L480 352L160 352L160 416L480 416zM256 512L384 512C392.8 512 400 519.2 400 528C400 536.8 392.8 544 384 544L256 544C247.2 544 240 536.8 240 528C240 519.2 247.2 512 256 512z"/></svg>