<svg xmlns="http://www.w3.org/2000/svg" viewBox="0 0 640 640"><!--! Font Awesome Pro 7.1.0 by @fontawesome - https://fontawesome.com License - https://fontawesome.com/license (Commercial License) Copyright 2025 Fonticons, Inc. --><path fill="currentColor" d="M544 256L576 256L576 560C576 568.8 583.2 576 592 576C600.8 576 608 568.8 608 560L608 219.8C608 193.4 591.8 169.7 567.2 160.2L337.4 70.8C326.2 66.4 313.8 66.4 302.6 70.8L72.8 160.1C48.2 169.7 32 193.4 32 219.8L32 560C32 568.8 39.2 576 48 576C56.8 576 64 568.8 64 560L64 256L544 256zM64 224L64 219.8C64 206.6 72.1 194.8 84.4 190L314.2 100.6C317.9 99.1 322.1 99.1 325.8 100.6L555.6 190C567.9 194.8 576 206.6 576 219.8L576 224L64 224z"/></svg>