<svg xmlns="http://www.w3.org/2000/svg" viewBox="0 0 640 640"><!--! Font Awesome Pro 7.1.0 by @fontawesome - https://fontawesome.com License - https://fontawesome.com/license (Commercial License) Copyright 2025 Fonticons, Inc. --><path fill="currentColor" d="M256 112C256 103.2 263.2 96 272 96L304 96L304 134.2C304 185.6 322.4 235.3 355.9 274.4L373 294.3C390.5 314.7 400.1 340.8 400.1 367.6C400.1 429.5 349.9 479.9 288.1 479.9C226.2 479.9 176.1 429.8 176.1 367.9L176.1 362.6C176.1 338.2 183.7 314.3 197.9 294.4L213 273.3C237.6 238.8 252.2 198.3 255.3 156.2C255.7 152.6 255.9 148.9 255.9 145.2L256 112zM224 112L224 139.2C224 143.9 223.8 148.5 223.5 153.2C221.4 169.6 213.1 184.8 200 195.2L116.7 261.8C83.4 288.5 64 328.8 64 371.5C64 449.1 126.9 512 204.5 512L208 512L208 560C208 568.8 215.2 576 224 576C232.8 576 240 568.8 240 560L240 512L272 512L272 560C272 568.8 279.2 576 288 576C296.8 576 304 568.8 304 560L304 512L336 512L336 560C336 568.8 343.2 576 352 576C360.8 576 368 568.8 368 560L368 512L400 512L400 560C400 568.8 407.2 576 416 576C424.8 576 432 568.8 432 560L432 512L435.5 512C513.1 512 576 449.1 576 371.5C576 328.8 556.6 288.5 523.3 261.8L440 195.2C424.8 183.1 416 164.7 416 145.2L416 112C416 85.5 394.5 64 368 64L272 64C245.5 64 224 85.5 224 112zM136.7 286.8L197.7 238C194.4 243.7 190.9 249.3 187 254.7L171.8 275.9C153.7 301.3 144 331.6 144 362.7L144 368C144 413.1 164.7 453.4 197.2 479.8C140.7 476 96 429 96 371.6C96 338.6 111 307.5 136.7 286.9zM435.5 480L378.3 480C411 453.5 432 412.9 432 367.7C432 333.2 419.7 299.7 397.2 273.5L380.1 253.6C351.7 220.4 336 178 336 134.2L336 96L368 96C376.8 96 384 103.2 384 112L384 145.2C384 174.4 397.3 201.9 420 220.2L503.3 286.8C529 307.4 544 338.6 544 371.5C544 431.4 495.4 480 435.5 480z"/></svg>