<svg xmlns="http://www.w3.org/2000/svg" viewBox="0 0 640 640"><!--! Font Awesome Pro 7.1.0 by @fontawesome - https://fontawesome.com License - https://fontawesome.com/license (Commercial License) Copyright 2025 Fonticons, Inc. --><path fill="currentColor" d="M320 96C337.7 96 352 110.3 352 128L352 256L128 256L128 128C128 110.3 142.3 96 160 96L320 96zM352 288L352 544L128 544L128 288L352 288zM96 128L96 544C87.2 544 80 551.2 80 560C80 568.8 87.2 576 96 576L384 576C392.8 576 400 568.8 400 560C400 551.2 392.8 544 384 544L384 384L400 384C426.5 384 448 405.5 448 432L448 448C448 483.3 476.7 512 512 512C547.3 512 576 483.3 576 448L576 221.1C576 203.2 568.5 186 555.2 173.9L474.8 100.2C468.3 94.2 458.2 94.7 452.2 101.2C446.2 107.7 446.7 117.8 453.2 123.8L480 148.4L480 224C480 259.3 508.7 288 544 288L544 448C544 465.7 529.7 480 512 480C494.3 480 480 465.7 480 448L480 432C480 387.8 444.2 352 400 352L384 352L384 128C384 92.7 355.3 64 320 64L160 64C124.7 64 96 92.7 96 128zM544 256C526.3 256 512 241.7 512 224L512 177.7L533.6 197.5C540.2 203.6 544 212.1 544 221.1L544 256z"/></svg>