<svg xmlns="http://www.w3.org/2000/svg" viewBox="0 0 640 640"><!--! Font Awesome Pro 7.1.0 by @fontawesome - https://fontawesome.com License - https://fontawesome.com/license (Commercial License) Copyright 2025 Fonticons, Inc. --><path fill="currentColor" d="M224 96C241.7 96 256 110.3 256 128L256 256L32 256L32 128C32 110.3 46.3 96 64 96L224 96zM32 528L32 288L256 288L256 528C256 536.8 248.8 544 240 544L48 544C39.2 544 32 536.8 32 528zM64 64C28.7 64 0 92.7 0 128L0 528C0 554.5 21.5 576 48 576L240 576C266.5 576 288 554.5 288 528L288 352C314.5 352 336 373.5 336 400L336 456C336 486.9 361.1 512 392 512C422.9 512 448 486.9 448 456L448 221.1C448 203.2 440.5 186 427.2 173.9L346.8 100.2C340.3 94.2 330.2 94.7 324.2 101.2C318.2 107.7 318.7 117.8 325.2 123.8L352 148.4L352 224C352 259.3 380.7 288 416 288L416 456C416 469.3 405.3 480 392 480C378.7 480 368 469.3 368 456L368 400C368 355.8 332.2 320 288 320L288 128C288 92.7 259.3 64 224 64L64 64zM384 224L384 177.7L405.6 197.5C412.2 203.6 416 212.1 416 221.1L416 256C398.3 256 384 241.7 384 224zM544 367.3L544 272.7L599.9 320L544 367.3zM529.6 416C533.8 416 537.8 414.5 540.9 411.8L633.9 333.1C637.8 329.8 640 325 640 319.9C640 314.8 637.8 310 633.9 306.7L540.9 228C537.7 225.3 533.7 223.8 529.6 223.8C519.9 223.8 512 231.7 512 241.4L512 398.3C512 408 519.9 415.9 529.6 415.9z"/></svg>