<svg xmlns="http://www.w3.org/2000/svg" viewBox="0 0 640 640"><!--! Font Awesome Pro 7.1.0 by @fontawesome - https://fontawesome.com License - https://fontawesome.com/license (Commercial License) Copyright 2025 Fonticons, Inc. --><path fill="currentColor" d="M59.3 36.8C53.1 30.6 42.9 30.6 36.7 36.8C30.5 43 30.5 53.2 36.7 59.4L580.7 603.4C586.9 609.6 597.1 609.6 603.3 603.4C609.5 597.2 609.5 587 603.3 580.8L534.1 511.6C557.7 508.6 576 488.4 576 464L576 221.1C576 203.2 568.5 186 555.2 173.9L474.8 100.2C468.3 94.2 458.2 94.7 452.2 101.2C446.2 107.7 446.7 117.8 453.2 123.8L480 148.4L480 224C480 259.3 508.7 288 544 288L544 464C544 472.8 536.8 480 528 480L502.5 480L384 361.5L384 128C384 92.7 355.3 64 320 64L160 64C139.9 64 122 73.3 110.3 87.7L59.3 36.8zM133.1 110.6C138.8 101.8 148.7 96 160 96L320 96C337.7 96 352 110.3 352 128L352 329.5L133.1 110.6zM96 544C87.2 544 80 551.2 80 560C80 568.8 87.2 576 96 576L384 576C392.8 576 400 568.8 400 560C400 551.2 392.8 544 384 544L384 474.5L352 442.5L352 544L128 544L128 218.5L96 186.5L96 544zM512 177.7L533.6 197.5C540.2 203.6 544 212.1 544 221.1L544 256C526.3 256 512 241.7 512 224L512 177.7z"/></svg>