<svg xmlns="http://www.w3.org/2000/svg" viewBox="0 0 640 640"><!--! Font Awesome Pro 7.1.0 by @fontawesome - https://fontawesome.com License - https://fontawesome.com/license (Commercial License) Copyright 2025 Fonticons, Inc. --><path fill="currentColor" d="M416 96C433.7 96 448 110.3 448 128L448 256L224 256L224 128C224 110.3 238.3 96 256 96L416 96zM224 528L224 288L448 288L448 528C448 536.8 440.8 544 432 544L240 544C231.2 544 224 536.8 224 528zM256 64C220.7 64 192 92.7 192 128L192 528C192 554.5 213.5 576 240 576L432 576C458.5 576 480 554.5 480 528L480 352C506.5 352 528 373.5 528 400L528 456C528 486.9 553.1 512 584 512C614.9 512 640 486.9 640 456L640 221.1C640 203.2 632.5 186 619.2 173.9L538.8 100.2C532.3 94.2 522.2 94.7 516.2 101.2C510.2 107.7 510.7 117.8 517.2 123.8L544 148.4L544 224C544 259.3 572.7 288 608 288L608 456C608 469.3 597.3 480 584 480C570.7 480 560 469.3 560 456L560 400C560 355.8 524.2 320 480 320L480 128C480 92.7 451.3 64 416 64L256 64zM576 224L576 177.7L597.6 197.5C604.2 203.6 608 212.1 608 221.1L608 256C590.3 256 576 241.7 576 224zM96 367.3L40.1 320L96 272.7L96 367.3zM110.4 416C120.1 416 128 408.1 128 398.4L128 241.5C128 231.8 120.1 223.9 110.4 223.9C106.2 223.9 102.2 225.4 99.1 228.1L6.1 306.8C2.2 310.1 0 314.9 0 320C0 325.1 2.2 329.9 6.1 333.2L99.1 411.9C102.3 414.6 106.3 416.1 110.4 416.1z"/></svg>