<svg xmlns="http://www.w3.org/2000/svg" viewBox="0 0 640 640"><!--! Font Awesome Pro 7.1.0 by @fontawesome - https://fontawesome.com License - https://fontawesome.com/license (Commercial License) Copyright 2025 Fonticons, Inc. --><path fill="currentColor" d="M320 96C443.7 96 544 196.3 544 320C544 443.7 443.7 544 320 544C196.3 544 96 443.7 96 320C96 196.3 196.3 96 320 96zM320 576C461.4 576 576 461.4 576 320C576 178.6 461.4 64 320 64C178.6 64 64 178.6 64 320C64 461.4 178.6 576 320 576zM320 384C337.7 384 352 398.3 352 416C352 433.7 337.7 448 320 448C302.3 448 288 433.7 288 416C288 398.3 302.3 384 320 384zM320 480C355.3 480 384 451.3 384 416C384 380.7 355.3 352 320 352C302.5 352 286.6 359 275.1 370.4L168.2 306.3C160.6 301.8 150.8 304.2 146.2 311.8C141.6 319.4 144.1 329.2 151.7 333.8L258.5 397.9C256.8 403.7 255.9 409.8 255.9 416.1C255.9 451.4 284.6 480.1 319.9 480.1z"/></svg>