<svg xmlns="http://www.w3.org/2000/svg" viewBox="0 0 640 640"><!--! Font Awesome Pro 7.1.0 by @fontawesome - https://fontawesome.com License - https://fontawesome.com/license (Commercial License) Copyright 2025 Fonticons, Inc. --><path fill="currentColor" d="M288 544C299 544 309.8 543.2 320.4 541.7C325 552.1 330.5 562 336.8 571.4C321 574.4 304.7 576 288 576C146.6 576 32 461.4 32 320C32 178.6 146.6 64 288 64C414.8 64 520.1 156.2 540.4 277.2C529.6 274.6 518.4 273 506.9 272.3C485 171.5 395.3 96 288 96C164.3 96 64 196.3 64 320C64 443.7 164.3 544 288 544zM288 480C252.7 480 224 451.3 224 416C224 386.2 244.4 361.1 272 354L272 160C272 151.2 279.2 144 288 144C296.8 144 304 151.2 304 160L304 354C313.7 356.5 322.5 361.2 329.9 367.6C324.1 377.6 319.2 388.1 315.2 399.1C309.6 390 299.5 383.9 288 383.9C270.3 383.9 256 398.2 256 415.9C256 433.6 270.3 447.9 288 447.9C294.3 447.9 300.2 446.1 305.1 442.9C304.4 449.8 304 456.8 304 463.9C304 468.6 304.2 473.2 304.5 477.8C299.2 479.2 293.7 479.9 288 479.9zM176 184C189.3 184 200 194.7 200 208C200 221.3 189.3 232 176 232C162.7 232 152 221.3 152 208C152 194.7 162.7 184 176 184zM104 320C104 306.7 114.7 296 128 296C141.3 296 152 306.7 152 320C152 333.3 141.3 344 128 344C114.7 344 104 333.3 104 320zM376 208C376 194.7 386.7 184 400 184C413.3 184 424 194.7 424 208C424 221.3 413.3 232 400 232C386.7 232 376 221.3 376 208zM496 576C557.9 576 608 525.9 608 464C608 402.1 557.9 352 496 352C434.1 352 384 402.1 384 464C384 525.9 434.1 576 496 576zM496 320C575.5 320 640 384.5 640 464C640 543.5 575.5 608 496 608C416.5 608 352 543.5 352 464C352 384.5 416.5 320 496 320zM576 464C576 472.8 568.8 480 560 480L432 480C423.2 480 416 472.8 416 464C416 455.2 423.2 448 432 448L560 448C568.8 448 576 455.2 576 464z"/></svg>