<svg xmlns="http://www.w3.org/2000/svg" viewBox="0 0 640 640"><!--! Font Awesome Pro 7.1.0 by @fontawesome - https://fontawesome.com License - https://fontawesome.com/license (Commercial License) Copyright 2025 Fonticons, Inc. --><path fill="currentColor" d="M211.3 181.7C208.2 178.6 208.2 173.5 211.3 170.4L314.8 66.9C317.9 63.8 323 63.8 326.1 66.9L357.5 98.3C360.6 101.4 360.6 106.5 357.5 109.6L254.1 213.1C251 216.2 245.9 216.2 242.8 213.1L211.4 181.7zM348.7 44.3C333.1 28.7 307.8 28.7 292.1 44.3L188.7 147.7C173.1 163.3 173.1 188.6 188.7 204.3L220.1 235.7C231.3 246.9 247.5 250.1 261.6 245.2L317.1 300.7L85.1 532.7C78.9 538.9 78.9 549.1 85.1 555.3C91.3 561.5 101.5 561.5 107.7 555.3L339.7 323.3L395.2 378.8C390.3 392.8 393.5 409.1 404.7 420.3L436.1 451.7C451.7 467.3 477 467.3 492.7 451.7L596.1 348.3C611.7 332.7 611.7 307.4 596.1 291.7L564.7 260.3C553.5 249.1 537.3 245.9 523.2 250.8L389.6 117.2C394.5 103.2 391.3 86.9 380.1 75.7L348.7 44.3zM497.8 270.6L415.1 353.3L287.1 225.3L369.8 142.6L497.8 270.6zM458.8 429.1L427.4 397.7C424.3 394.6 424.3 389.5 427.4 386.4L530.8 282.9C533.9 279.8 539 279.8 542.1 282.9L573.5 314.3C576.6 317.4 576.6 322.5 573.5 325.6L470.1 429.1C467 432.2 461.9 432.2 458.8 429.1z"/></svg>