<svg xmlns="http://www.w3.org/2000/svg" viewBox="0 0 640 640"><!--! Font Awesome Pro 7.1.0 by @fontawesome - https://fontawesome.com License - https://fontawesome.com/license (Commercial License) Copyright 2025 Fonticons, Inc. --><path fill="currentColor" d="M331.3 96C238.9 96 177 190.7 214 275.3L227.6 306.3C229.6 310.8 231.3 315.3 232.7 320L176 320C167.2 320 160 327.2 160 336C160 344.8 167.2 352 176 352L238.2 352C239.3 376.8 233.2 401.7 220.1 423.5L162.3 519.8C159.3 524.7 159.3 530.9 162.1 535.9C164.9 540.9 170.2 544 176 544L464 544C472.8 544 480 536.8 480 528C480 519.2 472.8 512 464 512L204.3 512L247.5 440C263.6 413.1 271.3 382.5 270.2 352L416 352C424.8 352 432 344.8 432 336C432 327.2 424.8 320 416 320L265.8 320C263.6 311 260.6 302.1 256.9 293.5L243.3 262.5C215.5 199.1 262 128 331.3 128L337.8 128C360.1 128 382 133.8 401.3 144.9L424.1 157.9C431.8 162.3 441.5 159.6 445.9 151.9C450.3 144.2 447.6 134.5 439.9 130.1L417.1 117.1C393 103.3 365.6 96 337.8 96L331.3 96z"/></svg>