<svg xmlns="http://www.w3.org/2000/svg" viewBox="0 0 640 640"><!--! Font Awesome Pro 7.1.0 by @fontawesome - https://fontawesome.com License - https://fontawesome.com/license (Commercial License) Copyright 2025 Fonticons, Inc. --><path fill="currentColor" d="M283.9 66.5C295.7 64.9 307.8 64 320 64C332.2 64 344.3 64.9 356.1 66.5C372.7 68.8 385.8 87.3 388.8 102.6L392.2 119.6C393.7 127.1 404.2 131.5 410.6 127.2L425 117.6C437.9 109 460.2 105.1 473.6 115.2C493 129.7 510.2 147 524.8 166.4C534.9 179.8 531 202.1 522.4 215L512.8 229.4C508.5 235.8 512.9 246.3 520.4 247.8L537.4 251.2C552.6 254.2 571.1 267.3 573.5 283.9C575.2 295.7 576 307.8 576 320C576 332.2 575.1 344.3 573.5 356.1C571.2 372.7 552.7 385.8 537.4 388.8L520.4 392.2C512.9 393.7 508.5 404.2 512.8 410.6L522.4 425C531 437.9 534.9 460.2 524.8 473.6C510.3 492.9 493 510.2 473.6 524.7C460.2 534.8 437.9 530.9 425 522.3L410.6 512.7C404.2 508.5 393.7 512.8 392.2 520.3L388.8 537.3C385.8 552.5 372.7 571 356.1 573.4C344.3 575.1 332.2 575.9 320 575.9C307.8 575.9 295.7 575 283.9 573.4C267.3 571.1 254.2 552.6 251.2 537.3L247.8 520.3C246.3 512.8 235.8 508.4 229.4 512.7L215 522.3C202.1 530.9 179.8 534.8 166.4 524.7C147.1 510.2 129.8 492.9 115.2 473.6C105.1 460.2 109 437.9 117.6 425L127.2 410.6C131.4 404.2 127.1 393.7 119.6 392.2L102.6 388.8C87.3 385.8 68.9 372.7 66.5 356.1C64.9 344.3 64 332.2 64 320C64 307.8 64.9 295.7 66.5 283.9C68.8 267.3 87.3 254.2 102.6 251.2L119.6 247.8C127.1 246.3 131.5 235.8 127.2 229.4L117.6 215C109 202 105.1 179.8 115.2 166.4C129.7 147 147 129.7 166.4 115.2C179.8 105.1 202 109 214.9 117.6L229.3 127.2C235.7 131.5 246.2 127.1 247.7 119.6L251.1 102.6C254.1 87.4 267.2 68.9 283.8 66.5zM282.5 108.8L279.1 125.8C276.1 140.8 265.3 152 252.6 157.3C239.8 162.6 224.3 162.2 211.6 153.8L197.2 144.2C193.1 141.5 188.2 140.9 183.7 142.2C168.1 154.2 154.1 168.2 142.2 183.7C140.9 188.2 141.5 193.1 144.2 197.2L153.8 211.6C162.2 224.3 162.6 239.7 157.3 252.6C152 265.4 140.8 276.1 125.8 279.1L108.8 282.5C104 283.5 100 286.5 97.8 290.6C96.5 300.2 95.9 310 95.9 319.9C95.9 329.8 96.5 339.6 97.8 349.2C100 353.3 104 356.4 108.8 357.3L125.8 360.7C140.8 363.7 152 374.5 157.3 387.2C162.6 400 162.2 415.5 153.8 428.2L144.2 442.6C141.5 446.7 140.9 451.6 142.2 456.1C154.2 471.7 168.2 485.7 183.7 497.6C188.2 498.9 193.1 498.3 197.2 495.6L211.6 486C224.3 477.6 239.7 477.2 252.6 482.5C265.4 487.8 276.1 499 279.1 514L282.5 531C283.5 535.8 286.5 539.8 290.6 542C300.2 543.3 310 543.9 319.9 543.9C329.8 543.9 339.6 543.3 349.2 542C353.3 539.8 356.4 535.8 357.3 531L360.7 514C363.7 499 374.5 487.8 387.2 482.5C400 477.2 415.5 477.6 428.2 486L442.6 495.6C446.7 498.3 451.6 498.9 456.1 497.6C471.7 485.6 485.7 471.6 497.6 456.1C498.9 451.6 498.3 446.7 495.6 442.6L486 428.2C477.6 415.5 477.2 400.1 482.5 387.2C487.8 374.4 499 363.7 514 360.7L531 357.3C535.8 356.3 539.8 353.3 542 349.2C543.3 339.6 543.9 329.8 543.9 319.9C543.9 310 543.3 300.2 542 290.6C539.8 286.5 535.8 283.4 531 282.5L514 279.1C499 276.1 487.8 265.3 482.5 252.6C477.2 239.8 477.6 224.3 486 211.6L495.6 197.2C498.3 193.1 498.9 188.2 497.6 183.7C485.6 168.1 471.6 154.1 456.1 142.2C451.6 140.9 446.7 141.5 442.6 144.2L428.2 153.8C415.5 162.2 400.1 162.6 387.2 157.3C374.4 152 363.7 140.8 360.7 125.8L357.3 108.8C356.3 104 353.3 100 349.2 97.8C339.6 96.5 329.8 95.9 319.9 95.9C310 95.9 300.2 96.5 290.6 97.8C286.5 100 283.4 104 282.5 108.8zM351.7 226.6L319.7 418.6C318.2 427.3 310 433.2 301.3 431.8C292.6 430.4 286.7 422.1 288.1 413.4L320.1 221.4C321.6 212.7 329.8 206.8 338.5 208.2C347.2 209.6 353.1 217.9 351.7 226.6zM251.3 291.3L222.6 320L251.3 348.7C257.5 354.9 257.5 365.1 251.3 371.3C245.1 377.5 234.9 377.5 228.7 371.3L188.7 331.3C182.5 325.1 182.5 314.9 188.7 308.7L228.7 268.7C234.9 262.5 245.1 262.5 251.3 268.7C257.5 274.9 257.5 285.1 251.3 291.3zM411.3 268.7L451.3 308.7C457.5 314.9 457.5 325.1 451.3 331.3L411.3 371.3C405.1 377.5 394.9 377.5 388.7 371.3C382.5 365.1 382.5 354.9 388.7 348.7L417.4 320L388.7 291.3C382.5 285.1 382.5 274.9 388.7 268.7C394.9 262.5 405.1 262.5 411.3 268.7z"/></svg>