<svg xmlns="http://www.w3.org/2000/svg" viewBox="0 0 640 640"><!--! Font Awesome Pro 7.1.0 by @fontawesome - https://fontawesome.com License - https://fontawesome.com/license (Commercial License) Copyright 2025 Fonticons, Inc. --><path fill="currentColor" d="M192 96C186.8 96 181.9 98.5 178.9 102.8L66.9 262.8C62.6 269 63.2 277.4 68.3 282.9L308.3 538.9C311.3 542.1 315.5 544 320 544C324.5 544 328.6 542.2 331.7 538.9L571.7 282.9C576.9 277.4 577.5 269 573.1 262.8L461.1 102.8C458.1 98.5 453.2 96 448 96L192 96zM192.9 138.7L286.8 256L110.8 256L192.9 138.7zM116.9 288L523.1 288L320 504.6L116.9 288zM529.2 256L353.2 256L447.1 138.7L529.2 256zM414.7 128L320 246.4L225.3 128L414.7 128z"/></svg>