<svg xmlns="http://www.w3.org/2000/svg" viewBox="0 0 640 640"><!--! Font Awesome Pro 7.1.0 by @fontawesome - https://fontawesome.com License - https://fontawesome.com/license (Commercial License) Copyright 2025 Fonticons, Inc. --><path fill="currentColor" d="M370.7 570C374 573.8 378.9 576 384 576C389.1 576 393.9 573.8 397.3 570L426.6 536.6C438.2 523.3 458.7 522.6 471.1 535.1L473.4 537.4C477.6 541.6 483.4 544 489.4 544C501.9 544 512 533.9 512 521.4L512 256C512 150 426 64 320 64C214 64 128 150 128 256L128 521.4C128 533.9 138.1 544 150.6 544C156.6 544 162.4 541.6 166.6 537.4L168.9 535.1C181.4 522.6 201.8 523.3 213.4 536.6L242.7 570C246 573.8 250.9 576 256 576C261.1 576 265.9 573.8 269.3 570L295.9 539.5C308.6 524.9 331.3 524.9 344.1 539.5L370.7 570zM160 502.1L160 256C160 167.6 231.6 96 320 96C408.4 96 480 167.6 480 256L480 502.1C454.9 488.1 422.4 492.8 402.4 515.5L384 536.6L368.2 518.5C342.7 489.4 297.4 489.4 271.9 518.5L256.1 536.6L237.7 515.5C217.6 492.7 185.1 488 160 502.1zM280 256C280 242.7 269.3 232 256 232C242.7 232 232 242.7 232 256C232 269.3 242.7 280 256 280C269.3 280 280 269.3 280 256zM384 280C397.3 280 408 269.3 408 256C408 242.7 397.3 232 384 232C370.7 232 360 242.7 360 256C360 269.3 370.7 280 384 280z"/></svg>