<svg xmlns="http://www.w3.org/2000/svg" viewBox="0 0 640 640"><!--! Font Awesome Pro 7.1.0 by @fontawesome - https://fontawesome.com License - https://fontawesome.com/license (Commercial License) Copyright 2025 Fonticons, Inc. --><path fill="currentColor" d="M415.8 96C442.4 96 464 117.5 464 144C464 170.5 442.5 192 416 192L337.9 192L372.6 122.7C380.8 106.4 397.6 96 415.9 96zM286.7 224L243.5 278C238 284.9 239.1 295 246 300.5C252.9 306 263 304.9 268.5 298L320 233.6L371.5 298C377 304.9 387.1 306 394 300.5C400.9 295 402 284.9 396.5 278L353.3 224L512 224C529.7 224 544 238.3 544 256L544 384L96 384L96 256C96 238.3 110.3 224 128 224L286.7 224zM160 192L128 192C92.7 192 64 220.7 64 256L64 480C64 515.3 92.7 544 128 544L512 544C547.3 544 576 515.3 576 480L576 256C576 220.7 547.3 192 512 192L480 192C490 178.6 496 162 496 144C496 99.8 460 64 415.8 64C385.4 64 357.5 81.2 343.9 108.4L320 156.2L296.1 108.4C282.5 81.2 254.5 64 224.2 64C180 64 144 99.8 144 144C144 162 150 178.6 160 192zM224 192C197.5 192 176 170.5 176 144C176 117.5 197.6 96 224.2 96C242.5 96 259.3 106.4 267.5 122.7L302.2 192L224.1 192zM96 416L544 416L544 480C544 497.7 529.7 512 512 512L128 512C110.3 512 96 497.7 96 480L96 416z"/></svg>