<svg xmlns="http://www.w3.org/2000/svg" viewBox="0 0 640 640"><!--! Font Awesome Pro 7.1.0 by @fontawesome - https://fontawesome.com License - https://fontawesome.com/license (Commercial License) Copyright 2025 Fonticons, Inc. --><path fill="currentColor" d="M154.5 33C162.8 30 172 34.3 175 42.6L192.4 90.5L211 42.3C214.2 34.1 223.4 30 231.7 33.1C240 36.2 244 45.5 240.9 53.8L224.5 96.4L271.4 66.5C278.9 61.8 288.7 64 293.5 71.4C298.3 78.8 296 88.7 288.6 93.5L234.4 128L288 128C318.3 128 343.7 149.1 350.3 177.4C339.5 179.1 329.1 182.4 319.6 187C317.2 171.7 304 160 288 160L96 160C78.3 160 64 174.3 64 192L64 512C64 529.7 78.3 544 96 544L241.3 544C243.2 555.5 247.2 566.3 252.8 576L96 576C60.7 576 32 547.3 32 512L32 192C32 156.7 60.7 128 96 128L149.6 128L95.4 93.5C88 88.8 85.8 78.9 90.5 71.4C95.2 63.9 105.1 61.8 112.6 66.5L160.9 97.2L145 53.5C142 45.2 146.3 36 154.6 33zM369.4 256L368 256C350.3 256 336 270.3 336 288C336 305.7 350.3 320 368 320L422.1 320L399.3 274.5C393.6 263.2 382.1 256 369.4 256zM315.4 324.6C308.2 314.2 303.9 301.6 303.9 288C303.9 252.7 332.6 224 367.9 224L369.3 224C394.1 224 416.7 238 427.8 260.2L447.8 300.2L467.8 260.2C479.1 238 501.8 224 526.6 224L528 224C563.3 224 592 252.7 592 288C592 301.6 587.8 314.2 580.5 324.6C596.7 332.3 608 348.8 608 368L608 528C608 554.5 586.5 576 560 576L336 576C309.5 576 288 554.5 288 528L288 368C288 348.8 299.2 332.3 315.5 324.6zM368 352L336 352C327.2 352 320 359.2 320 368L320 528C320 536.8 327.2 544 336 544L432 544L432 352L368 352zM560 544C568.8 544 576 536.8 576 528L576 368C576 359.2 568.8 352 560 352L464 352L464 544L560 544zM528 320C545.7 320 560 305.7 560 288C560 270.3 545.7 256 528 256L526.6 256C513.9 256 502.4 263.2 496.7 274.5L473.9 320L528 320z"/></svg>