<svg xmlns="http://www.w3.org/2000/svg" viewBox="0 0 640 640"><!--! Font Awesome Pro 7.1.0 by @fontawesome - https://fontawesome.com License - https://fontawesome.com/license (Commercial License) Copyright 2025 Fonticons, Inc. --><path fill="currentColor" d="M372.5 122.7L337.9 192L416 192C442.5 192 464 170.5 464 144C464 117.5 442.4 96 415.8 96C397.5 96 380.7 106.4 372.5 122.7zM224 224L112 224C103.2 224 96 231.2 96 240L96 272C96 280.8 103.2 288 112 288L528 288C536.8 288 544 280.8 544 272L544 240C544 231.2 536.8 224 528 224L224 224zM112 192L160 192C150 178.6 144 162 144 144C144 99.8 180 64 224.2 64C254.6 64 282.5 81.2 296.1 108.4L320 156.2L343.9 108.4C357.5 81.2 385.4 64 415.8 64C459.9 64 496 99.8 496 144C496 162 490 178.6 480 192L528 192C554.5 192 576 213.5 576 240L576 272C576 292.9 562.6 310.7 544 317.3L544 480C544 515.3 515.3 544 480 544L160 544C124.7 544 96 515.3 96 480L96 317.3C77.4 310.7 64 292.9 64 272L64 240C64 213.5 85.5 192 112 192zM302.1 192L267.5 122.7C259.3 106.4 242.5 96 224.2 96C197.6 96 176 117.5 176 144C176 170.5 197.5 192 224 192L302.1 192zM128 480C128 497.7 142.3 512 160 512L304 512L304 320L128 320L128 480zM336 512L480 512C497.7 512 512 497.7 512 480L512 320L336 320L336 512z"/></svg>