<svg xmlns="http://www.w3.org/2000/svg" viewBox="0 0 640 640"><!--! Font Awesome Pro 7.1.0 by @fontawesome - https://fontawesome.com License - https://fontawesome.com/license (Commercial License) Copyright 2025 Fonticons, Inc. --><path fill="currentColor" d="M320 80C271.4 80 232 119.4 232 168C232 191.7 241.3 213.1 256.5 228.9C260.9 233.5 262.2 240.4 259.7 246.3C257.2 252.2 251.4 256 245 256L176 256C149.5 256 128 277.5 128 304C128 330.5 149.5 352 176 352L202.7 352C236 352 254.7 390.4 234.2 416.6L170.2 498.4C153.9 519.3 157.6 549.4 178.4 565.8C199.2 582.2 229.4 578.4 245.8 557.6L288.5 503C304.5 482.5 335.5 482.5 351.5 503L394.2 557.6C410.5 578.5 440.7 582.2 461.6 565.8C482.5 549.4 486.2 519.3 469.8 498.4L405.8 416.6C385.3 390.4 404 352 437.4 352L464 352C490.5 352 512 330.5 512 304C512 277.5 490.5 256 464 256L395 256C388.6 256 382.8 252.2 380.3 246.3C377.8 240.4 379 233.6 383.5 228.9C398.7 213.1 408 191.6 408 168C408 119.4 368.6 80 320 80zM200 168C200 101.7 253.7 48 320 48C386.3 48 440 101.7 440 168C440 188.2 435 207.3 426.2 224L464 224C508.2 224 544 259.8 544 304C544 348.2 508.2 384 464 384L437.4 384C430.7 384 427 391.7 431.1 396.9L495.1 478.7C522.3 513.5 516.2 563.8 481.4 591C446.6 618.2 396.2 612.1 369 577.3L326.3 522.7C323.1 518.6 316.9 518.6 313.7 522.7L271 577.3C243.8 612.1 193.5 618.2 158.7 591C123.9 563.8 117.8 513.5 145 478.7L209 396.9C213.1 391.6 209.4 384 202.7 384L176 384C131.8 384 96 348.2 96 304C96 259.8 131.8 224 176 224L213.8 224C205 207.3 200 188.2 200 168zM268 160C268 149 277 140 288 140C299 140 308 149 308 160C308 171 299 180 288 180C277 180 268 171 268 160zM352 140C363 140 372 149 372 160C372 171 363 180 352 180C341 180 332 171 332 160C332 149 341 140 352 140zM300 288C300 277 309 268 320 268C331 268 340 277 340 288C340 299 331 308 320 308C309 308 300 299 300 288zM320 364C331 364 340 373 340 384C340 395 331 404 320 404C309 404 300 395 300 384C300 373 309 364 320 364z"/></svg>