<svg xmlns="http://www.w3.org/2000/svg" viewBox="0 0 640 640"><!--! Font Awesome Pro 7.1.0 by @fontawesome - https://fontawesome.com License - https://fontawesome.com/license (Commercial License) Copyright 2025 Fonticons, Inc. --><path fill="currentColor" d="M160.5 104.7C160.1 100 163.8 96 168.5 96L472.2 96C476.9 96 480.6 100 480.2 104.7L457.9 369.4L434 381.4C414.8 391 391.7 388.6 374.9 375.1C343.1 349.6 297.8 349.6 266 375.1C249.2 388.5 226.1 391 206.9 381.4L182.9 369.4L160.6 104.8zM186 406.7L192.6 410C223 425.2 259.5 421.3 286 400.1C306.1 384 334.8 384 354.9 400.1C381.4 421.3 417.9 425.2 448.3 410L454.8 406.8L445.7 514.8C444.3 531.4 430.4 544.1 413.8 544.1L227 544C210.4 544 196.5 531.3 195.1 514.7L186 406.7zM168.5 64C145.1 64 126.7 84 128.6 107.4L163.2 517.4C166 550.5 193.7 576 227 576L413.8 576C447.1 576 474.8 550.5 477.6 517.4L512.2 107.4C514.1 84 495.6 64 472.2 64L168.5 64zM320.4 280C300.8 280 288.4 265.5 288.4 252C288.4 245.4 292.7 233 303.2 216.4C308.6 207.9 314.6 199.7 320.4 192.4C326.2 199.7 332.3 207.9 337.6 216.4C348.1 233 352.4 245.4 352.4 252C352.4 265.5 340.1 280 320.4 280zM320.4 312C355.7 312 384.4 285.1 384.4 252C384.4 219.5 349.6 176.2 331.3 155.7C325.4 149.1 315.4 149.1 309.5 155.7C291.2 176.2 256.4 219.6 256.4 252C256.4 285.1 285.1 312 320.4 312z"/></svg>