<svg xmlns="http://www.w3.org/2000/svg" viewBox="0 0 640 640"><!--! Font Awesome Pro 7.1.0 by @fontawesome - https://fontawesome.com License - https://fontawesome.com/license (Commercial License) Copyright 2025 Fonticons, Inc. --><path fill="currentColor" d="M168.5 96C163.8 96 160.1 100 160.5 104.7L195.1 514.7C196.5 531.3 210.3 544 227 544L413.8 544C430.4 544 444.3 531.3 445.7 514.7L480.3 104.7C480.7 100 477 96 472.3 96L168.5 96zM128.6 107.4C126.7 84 145.1 64 168.5 64L472.2 64C495.6 64 514 84 512.1 107.4L477.5 517.4C474.7 550.5 447 576 413.8 576L227 576C193.7 576 166 550.5 163.2 517.4L128.6 107.4z"/></svg>