<svg xmlns="http://www.w3.org/2000/svg" viewBox="0 0 640 640"><!--! Font Awesome Pro 7.1.0 by @fontawesome - https://fontawesome.com License - https://fontawesome.com/license (Commercial License) Copyright 2025 Fonticons, Inc. --><path fill="currentColor" d="M232.6 42.6C234.9 36.2 240.9 32 247.7 32L392.3 32C399 32 405.1 36.2 407.4 42.6C428.8 102.2 451.3 192.4 447.6 268.8C445.8 306.9 437.4 343.6 417.2 371C399 395.8 372.1 411.7 336 415.2L336 576L400 576C408.8 576 416 583.2 416 592C416 600.8 408.8 608 400 608L240 608C231.2 608 224 600.8 224 592C224 583.2 231.2 576 240 576L304 576L304 415.2C267.9 411.7 241 395.8 222.8 371C202.6 343.5 194.2 306.9 192.4 268.8C188.8 192.4 211.2 102.2 232.6 42.6zM225 224C223.9 238.8 223.7 253.3 224.3 267.2C226 302.4 233.6 331.8 248.5 352C262.7 371.3 284.7 384 320 384C355.3 384 377.3 371.3 391.5 352C406.4 331.8 414 302.4 415.7 267.2C416.4 253.3 416.1 238.7 415 224L225 224zM228.4 192L411.6 192C405.4 146.4 393.4 100.6 381 64L259 64C246.6 100.6 234.6 146.4 228.4 192z"/></svg>