<svg xmlns="http://www.w3.org/2000/svg" viewBox="0 0 640 640"><!--! Font Awesome Pro 7.1.0 by @fontawesome - https://fontawesome.com License - https://fontawesome.com/license (Commercial License) Copyright 2025 Fonticons, Inc. --><path fill="currentColor" d="M98.1 250.2C73.2 297.5 95.7 356 146 374.3C196.3 392.6 251.1 362.3 262.5 310L273.4 259.9L122 204.8L98.1 250.2zM280.2 228.3L299.4 139.7L179.3 96L137 176.2L280.2 228.3zM69.8 235.3L150.9 81.1C158.4 66.9 175.1 60.5 190.2 65.9L310.4 109.7C314 111 317.2 112.9 320 115.3C322.8 112.9 326 111 329.6 109.7L449.8 65.9C464.8 60.4 481.6 66.9 489.1 81.1L570.3 235.3C601.7 295 577.7 367.6 519.7 397.9L561.7 513.3L618.6 492.6C626.9 489.6 636.1 493.9 639.1 502.2C642.1 510.5 637.8 519.7 629.5 522.7C581.5 540.2 533.6 557.6 485.6 575.1C477.3 578.1 468.1 573.8 465.1 565.5C462.1 557.2 466.4 548 474.7 545L531.6 524.3L489.6 408.9C425.7 423 360.6 382.8 346.3 316.9L320.1 195.9L293.9 316.9C279.6 382.8 214.5 423.1 150.6 408.9L108.6 524.3L165.5 545C173.8 548 178.1 557.2 175.1 565.5C172.1 573.8 162.9 578.1 154.6 575.1C106.6 557.6 58.7 540.2 10.7 522.7C2.4 519.7-1.9 510.5 1.1 502.2C4.1 493.9 13.3 489.6 21.6 492.6L78.5 513.3L120.5 397.9C62.5 367.6 38.5 295 69.9 235.3zM541.9 250.2L518 204.8L366.6 259.9L377.5 310C388.8 362.3 443.7 392.5 494 374.3C544.3 356.1 566.8 297.6 541.9 250.2zM359.8 228.3L503 176.2L460.7 96L340.6 139.7L359.8 228.3z"/></svg>