<svg xmlns="http://www.w3.org/2000/svg" viewBox="0 0 640 640"><!--! Font Awesome Pro 7.1.0 by @fontawesome - https://fontawesome.com License - https://fontawesome.com/license (Commercial License) Copyright 2025 Fonticons, Inc. --><path fill="currentColor" d="M160.5 104.7C160.1 100 163.8 96 168.5 96L472.2 96C476.9 96 480.6 100 480.2 104.7L464.8 288L176 288L160.5 104.7zM178.7 320L462.1 320L445.7 514.7C444.3 531.3 430.4 544 413.8 544L227 544C210.4 544 196.5 531.3 195.1 514.7L178.7 320zM168.5 64C145.1 64 126.7 84 128.6 107.4L163.2 517.4C166 550.5 193.7 576 227 576L413.8 576C447.1 576 474.8 550.5 477.6 517.4L512.2 107.4C514.1 84 495.6 64 472.2 64L168.5 64z"/></svg>