<svg xmlns="http://www.w3.org/2000/svg" viewBox="0 0 640 640"><!--! Font Awesome Pro 7.1.0 by @fontawesome - https://fontawesome.com License - https://fontawesome.com/license (Commercial License) Copyright 2025 Fonticons, Inc. --><path fill="currentColor" d="M576 144C576 194.7 542.3 237.6 496 251.4L496 284.5C560.1 269.9 608 212.6 608 144.1C608 64.6 543.5 .1 464 .1C407.5 .1 358.5 32.7 335 80.1L372.1 80.1C392.3 51.1 426 32.1 464 32.1C525.9 32.1 576 82.2 576 144.1zM128 160L416 160L416 320L128 320L128 160zM128 448L128 352L416 352L416 448C416 501 373 544 320 544L224 544C171 544 128 501 128 448zM96 160L96 448C96 518.7 153.3 576 224 576L320 576C390.7 576 448 518.7 448 448L448 160C448 142.3 433.7 128 416 128L128 128C110.3 128 96 142.3 96 160z"/></svg>