<svg xmlns="http://www.w3.org/2000/svg" viewBox="0 0 640 640"><!--! Font Awesome Pro 7.1.0 by @fontawesome - https://fontawesome.com License - https://fontawesome.com/license (Commercial License) Copyright 2025 Fonticons, Inc. --><path fill="currentColor" d="M156.5 128C133.6 128 113.9 144.2 109.4 166.6L82.2 302.5C105.6 283.5 135.5 272 168 272C223.1 272 270.6 304.8 292 352L348.1 352C369.4 304.8 416.9 272 472.1 272C504.6 272 534.5 283.4 557.9 302.5L530.6 166.6C526.1 144.2 506.4 128 483.5 128L448 128C439.2 128 432 120.8 432 112C432 103.2 439.2 96 448 96L483.5 96C521.6 96 554.5 122.9 561.9 160.3L604.5 373.2C606.8 384.7 607.9 396.3 607.9 408C607.9 483.1 547 544 471.9 544C396.8 544 336 483.1 336 408C336 399.8 336.7 391.8 338.1 384L301.9 384C303.3 391.8 304 399.8 304 408C304 483.1 243.1 544 168 544C92.9 544 32 483.1 32 408C32 396.3 33.2 384.6 35.4 373.2L78 160.3C85.5 122.9 118.3 96 156.5 96L192 96C200.8 96 208 103.2 208 112C208 120.8 200.8 128 192 128L156.5 128zM64 408C64 465.4 110.6 512 168 512C225.4 512 272 465.4 272 408C272 350.6 225.4 304 168 304C110.6 304 64 350.6 64 408zM472 512C529.4 512 576 465.4 576 408C576 350.6 529.4 304 472 304C414.6 304 368 350.6 368 408C368 465.4 414.6 512 472 512z"/></svg>