<svg xmlns="http://www.w3.org/2000/svg" viewBox="0 0 640 640"><!--! Font Awesome Pro 7.1.0 by @fontawesome - https://fontawesome.com License - https://fontawesome.com/license (Commercial License) Copyright 2025 Fonticons, Inc. --><path fill="currentColor" d="M381.5 484.1C359.4 529 335.5 544 320 544C304.5 544 280.6 529 258.5 484.1C239.5 445.5 226.4 392.8 224.3 336L415.7 336C413.6 392.8 400.5 445.5 381.5 484.1zM415.7 304L224.3 304C226.4 247.2 239.5 194.5 258.5 155.9C280.6 111 304.5 96 320 96C335.5 96 359.4 111 381.5 155.9C400.5 194.5 413.6 247.2 415.7 304zM447.7 336L543.4 336C536.9 428.5 474.2 505.5 389.2 533.1C422.2 488.9 445 415.3 447.7 336zM543.4 304L447.7 304C445 224.7 422.2 151.1 389.2 106.9C474.2 134.5 536.9 211.5 543.4 304zM192.2 304L96.5 304C103 211.5 165.7 134.5 250.7 106.9C217.7 151.1 194.9 224.7 192.2 304zM96.6 336L192.3 336C195 415.3 217.8 488.9 250.8 533.1C165.8 505.5 103.1 428.5 96.6 336zM320 576C461.4 576 576 461.4 576 320C576 178.6 461.4 64 320 64C178.6 64 64 178.6 64 320C64 461.4 178.6 576 320 576z"/></svg>