<svg xmlns="http://www.w3.org/2000/svg" viewBox="0 0 640 640"><!--! Font Awesome Pro 7.1.0 by @fontawesome - https://fontawesome.com License - https://fontawesome.com/license (Commercial License) Copyright 2025 Fonticons, Inc. --><path fill="currentColor" d="M544 320C544 303.2 542.2 286.9 538.7 271.2L491.5 259.4C487.4 258.4 483.1 259.6 480.2 262.5C478.2 264.5 476.6 266.7 475.3 269.2L475 269.8C467.1 285.6 452.9 297.1 436.4 301.7L451.5 316.8C459.5 324.8 464 335.7 464 347C464 366.5 450.8 383.5 432 388.4L432 394.6C432 411.9 426.4 428.8 416 442.6L390.4 476.7C381.3 488.8 367.1 495.9 352 495.9C325.5 495.9 304 474.4 304 447.9L304 399.9L272 399.9C236.7 399.9 208 371.2 208 335.9L208 307.9C208 290.3 216.3 273.7 230.4 263.1L269.8 233.6C278.2 227.3 288.3 223.9 298.8 223.9C304 223.9 309.1 224.7 314.1 226.4L346.1 237.1C350.4 238.5 355.1 238.7 359.5 237.6L393.8 229C397.5 228.1 400.1 224.7 400.1 220.9C400.1 218.1 398.7 215.5 396.4 214L370 196.6C362.4 203.9 352.3 208 341.8 208C335.5 208 329.3 206.5 323.6 203.7L310.4 197.1C286.5 234 227.4 211.7 235.5 166.9L239 148.3C239.4 146.3 239.2 144.2 238.6 142.2L229.6 115.1C150.9 149.8 96 228.5 96 320C96 443.7 196.3 544 320 544C443.7 544 544 443.7 544 320zM527.5 235.4C494.1 153.6 413.8 96 320 96C299.1 96 278.8 98.9 259.6 104.2L268.9 132C271.3 139.1 271.8 146.6 270.5 154L267.1 172.7C265.2 182.9 279.1 187.9 284.2 178.8C291.6 165.4 308.3 160.3 322 167.1L338 175.1C339.2 175.7 340.5 176 341.8 176C344.1 176 346.3 175.1 347.9 173.5L351.4 170C359.9 161.5 373.2 160.2 383.1 166.9L414 187.5C425.2 195 432 207.6 432 221C432 239.5 419.4 255.6 401.5 260.1L367.2 268.7C356.9 271.3 346 270.9 335.9 267.5L303.9 256.8C302.2 256.2 300.5 256 298.8 256C295.3 256 291.8 257.1 289 259.3L249.6 288.8C243.6 293.3 240 300.4 240 308L240 336C240 353.7 254.3 368 272 368L304 368C321.7 368 336 382.3 336 400L336 448C336 456.8 343.2 464 352 464C357 464 361.8 461.6 364.8 457.6L390.4 423.5C396.6 415.2 400 405.1 400 394.7L400 382.6C400 371.4 407.6 361.6 418.5 358.9L423.8 357.6C428.6 356.4 432 352.1 432 347.1C432 344.2 430.9 341.5 428.8 339.5L388.6 299.3C384 294.7 382.7 287.8 385.1 281.9C387.5 276 393.4 272 399.9 272L419.6 272C430.9 272 441.2 265.6 446.3 255.5L446.6 254.9C449.4 249.3 453 244.2 457.5 239.8C468.4 228.9 484.3 224.5 499.2 228.2L527.4 235.3zM64 320C64 178.6 178.6 64 320 64C461.4 64 576 178.6 576 320C576 461.4 461.4 576 320 576C178.6 576 64 461.4 64 320z"/></svg>