<svg xmlns="http://www.w3.org/2000/svg" viewBox="0 0 640 640"><!--! Font Awesome Pro 7.1.0 by @fontawesome - https://fontawesome.com License - https://fontawesome.com/license (Commercial License) Copyright 2025 Fonticons, Inc. --><path fill="currentColor" d="M124.7 412.7C118.5 418.9 118.5 429.1 124.7 435.3C130.9 441.5 141.1 441.5 147.3 435.3L157.3 425.3C195 458.1 241.1 476.1 288 479.4L288 544L176 544C167.2 544 160 551.2 160 560C160 568.8 167.2 576 176 576L432 576C440.8 576 448 568.8 448 560C448 551.2 440.8 544 432 544L320 544L320 479.4C371.9 475.7 422.7 454 462.4 414.4C546.1 330.7 549.7 197.3 473.3 109.3L483.3 99.3C489.5 93.1 489.5 82.9 483.3 76.7C477.1 70.5 466.9 70.5 460.7 76.7L439.8 97.6C433.6 103.8 433.6 114 439.8 120.2C514.8 195.2 514.8 316.7 439.8 391.7C364.8 466.7 243.3 466.7 168.3 391.7C162.1 385.5 151.9 385.5 145.7 391.7L124.7 412.7zM176 256C176 185.3 233.3 128 304 128C374.7 128 432 185.3 432 256C432 326.7 374.7 384 304 384C233.3 384 176 326.7 176 256zM464 256C464 167.6 392.4 96 304 96C215.6 96 144 167.6 144 256C144 344.4 215.6 416 304 416C392.4 416 464 344.4 464 256z"/></svg>