<svg xmlns="http://www.w3.org/2000/svg" viewBox="0 0 640 640"><!--! Font Awesome Pro 7.1.0 by @fontawesome - https://fontawesome.com License - https://fontawesome.com/license (Commercial License) Copyright 2025 Fonticons, Inc. --><path fill="currentColor" d="M320 544C196.3 544 96 443.7 96 320C96 308.2 96.9 296.7 98.7 285.4L101.7 292.1C111 313.1 129 329.1 150.9 336L213.9 355.7C229.4 360.6 240 374.9 240 391.2L240 406.2C240 423.2 249.6 438.8 264.8 446.4C269.2 448.6 272 453.1 272 458L272 480.7C272 506.9 293.2 528.1 319.4 528.1C341.2 528.1 360.2 513.3 365.4 492.2L369.8 474.6C372.4 464.4 379 455.6 388.1 450.4L399.7 443.8C419.6 432.4 431.9 411.2 431.9 388.2L431.9 379.9C431.9 362.9 425.2 346.6 413.2 334.6L409.3 330.7C397.3 318.7 381 312 364 312L315.2 312C310.2 312 305.3 310.8 300.9 308.6L255 285.7C252.9 284.7 251.2 283 250.2 280.9L249.5 279.5C247.2 274.9 249.1 269.3 253.7 267C255.9 265.9 258.5 265.7 260.8 266.5L285 274.6C300 279.6 316.5 273.9 325.3 260.8C333.9 247.9 333 230.8 323.1 218.9L305.2 197.4C302.7 194.4 302.7 190 305.3 187.1L325.4 163.6C338.6 148.2 340.7 126.2 330.6 108.5L323.6 96C401.1 97.2 469 137.8 508.3 198.6L470.1 213.9C446.5 223.3 434.4 249.5 442.4 273.6L459.3 324.3C464.5 339.9 477.3 351.7 493.2 355.7L539 367.2C517.3 468.3 427.5 544 320 544zM112 236.7C141.3 163.7 207.8 109.7 288 98.3L302.9 124.4C306.3 130.3 305.6 137.6 301.2 142.8L281.1 166.3C268.4 181.1 268.2 202.9 280.7 217.9L298.6 239.4C299.5 240.5 299.6 242 298.8 243.1C298 244.3 296.6 244.8 295.2 244.3L271 236.1C260.6 232.6 249.3 233.4 239.5 238.3C219.1 248.5 210.8 273.3 221 293.7L221.7 295.1C225.8 303.4 232.6 310.1 240.9 314.3L286.8 337.2C295.7 341.6 305.5 344 315.4 344L364.2 344C372.7 344 380.8 347.4 386.8 353.4L390.7 357.3C396.7 363.3 400.1 371.4 400.1 379.9L400.1 388.2C400.1 399.7 393.9 410.3 384 416L372.4 422.6C355.7 432.2 343.6 448.1 338.9 466.8L334.5 484.4C332.8 491.3 326.6 496.1 319.5 496.1C311 496.1 304.1 489.2 304.1 480.7L304.1 458C304.1 441 294.5 425.4 279.3 417.8C274.9 415.6 272.1 411.1 272.1 406.2L272.1 391.2C272.1 360.9 252.4 334.2 223.5 325.1L160.5 305.4C147.3 301.3 136.6 291.7 131 279.1L112 236.7zM544 320C544 325.2 543.8 330.3 543.5 335.4L500.9 324.8C495.6 323.5 491.3 319.5 489.6 314.3L472.7 263.6C470 255.6 474.1 246.8 481.9 243.7L523.7 227C536.7 255.3 543.9 286.9 543.9 320.1zM320 576C461.4 576 576 461.4 576 320C576 178.6 461.4 64 320 64C178.6 64 64 178.6 64 320C64 461.4 178.6 576 320 576z"/></svg>