<svg xmlns="http://www.w3.org/2000/svg" viewBox="0 0 640 640"><!--! Font Awesome Pro 7.1.0 by @fontawesome - https://fontawesome.com License - https://fontawesome.com/license (Commercial License) Copyright 2025 Fonticons, Inc. --><path fill="currentColor" d="M352 544C367.5 544 391.4 529 413.5 484.1C432.5 445.5 445.6 392.8 447.7 336L352 336L352 304L447.7 304C445.6 247.2 432.5 194.5 413.5 155.9C391.4 111 367.5 96 352 96C336.5 96 312.6 111 290.5 155.9C271.9 193.6 259 244.7 256.5 299.9L133.9 336L128.6 336L128.7 337.5L97.4 346.7C96.5 337.9 96 329 96 320C96 178.6 210.6 64 352 64C493.4 64 608 178.6 608 320C608 461.4 493.4 576 352 576C329.2 576 307 573 286 567.4L303.7 507.2C321.7 534.3 339.6 543.9 352 543.9zM232.6 408.8L232.3 407.2L233.2 406.9L232.6 408.8zM421.2 533.1C506.2 505.5 568.9 428.5 575.4 336L479.7 336C477 415.3 454.2 488.9 421.2 533.1zM479.7 304L575.4 304C568.9 211.5 506.2 134.5 421.2 106.9C454.2 151.1 477 224.7 479.7 304zM282.8 106.9C197.8 134.5 135.1 211.5 128.6 304L224.3 304C227 224.7 249.8 151.1 282.8 106.9zM119.1 423.8L169.5 449C178.8 453.6 186.3 461.2 191 470.5L216.2 521L256.7 383.3L119 423.8zM275.9 344.3C288 340.7 299.3 352 295.8 364.2L235.5 569C231.4 582.9 212.3 584.6 205.8 571.6L167.5 495.1L75.3 587.3C69.1 593.5 58.9 593.5 52.7 587.3C46.5 581.1 46.5 570.9 52.7 564.7L144.9 472.5L68.4 434.2C55.4 427.7 57.1 408.6 71 404.5L275.8 344.3z"/></svg>