<svg xmlns="http://www.w3.org/2000/svg" viewBox="0 0 640 640"><!--! Font Awesome Pro 7.1.0 by @fontawesome - https://fontawesome.com License - https://fontawesome.com/license (Commercial License) Copyright 2025 Fonticons, Inc. --><path fill="currentColor" d="M473.9 450.8C517.1 409.9 544 352.1 544 288C544 164.3 443.7 64 320 64C196.3 64 96 164.3 96 288C96 352.1 122.9 409.9 166.1 450.8L163.5 454L102.1 530.8C98.2 535.7 96 541.8 96 548.2C96 563.5 108.5 576 123.8 576L516.1 576C531.5 576 543.9 563.5 543.9 548.2C543.9 541.9 541.7 535.7 537.8 530.8L476.4 454L473.8 450.8zM426.2 448L336 448L336 374.6L372.7 411.3C378.9 417.5 389.1 417.5 395.3 411.3C401.5 405.1 401.5 394.9 395.3 388.7L336 329.4L336 294.7L372.7 331.4C378.9 337.6 389.1 337.6 395.3 331.4C401.5 325.2 401.5 315 395.3 308.8L331.3 244.8C325.1 238.6 314.9 238.6 308.7 244.8L244.7 308.8C238.5 315 238.5 325.2 244.7 331.4C250.9 337.6 261.1 337.6 267.3 331.4L304 294.7L304 329.4L244.7 388.7C238.5 394.9 238.5 405.1 244.7 411.3C250.9 417.5 261.1 417.5 267.3 411.3L304 374.6L304 448L213.8 448C162.1 413.6 128 354.8 128 288C128 182 214 96 320 96C426 96 512 182 512 288C512 354.8 477.9 413.6 426.2 448zM336 168C349.3 168 360 157.3 360 144C360 130.7 349.3 120 336 120C322.7 120 312 130.7 312 144C312 157.3 322.7 168 336 168zM456 240C456 226.7 445.3 216 432 216C418.7 216 408 226.7 408 240C408 253.3 418.7 264 432 264C445.3 264 456 253.3 456 240zM176 328C189.3 328 200 317.3 200 304C200 290.7 189.3 280 176 280C162.7 280 152 290.7 152 304C152 317.3 162.7 328 176 328zM183.7 480L456.3 480L507.5 544L132.5 544L183.7 480z"/></svg>