<svg xmlns="http://www.w3.org/2000/svg" viewBox="0 0 640 640"><!--! Font Awesome Pro 7.1.0 by @fontawesome - https://fontawesome.com License - https://fontawesome.com/license (Commercial License) Copyright 2025 Fonticons, Inc. --><path fill="currentColor" d="M368 64C429.9 64 480 114.1 480 176L480 193.6C516.5 201 544 233.3 544 272L544 310.9C544 336.4 533.9 360.8 515.9 378.8L455 439.6C450.5 444.1 448 450.2 448 456.6L448 520C448 550.9 422.9 576 392 576L184 576C153.1 576 128 550.9 128 520L128 422.3C108.2 402.2 96 374.5 96 344L96 176C96 114.1 146.1 64 208 64L368 64zM208 96C163.8 96 128 131.8 128 176L128 344C128 367.7 138.3 389 154.7 403.6C158.1 406.6 160 411 160 415.5L160 520C160 533.3 170.7 544 184 544L392 544C405.3 544 416 533.3 416 520L416 456.6C416 441.7 421.9 427.5 432.4 417L493.2 356.2C505.2 344.2 511.9 327.9 511.9 311L511.9 272.1C511.9 245.6 490.4 224.1 463.9 224.1L431.9 224.1C405.4 224.1 383.9 245.6 383.9 272.1C383.9 298.6 405.4 320.1 431.9 320.1C440.7 320.1 447.9 327.3 447.9 336.1C447.9 344.9 440.7 352.1 431.9 352.1C393.2 352.1 360.9 324.6 353.5 288.1L240 288C204.7 288 176 259.3 176 224C176 215.2 183.2 208 192 208C200.8 208 208 215.2 208 224C208 241.7 222.3 256 240 256L353.6 256C361 219.5 393.3 192 432 192L448 192L448 176C448 131.8 412.2 96 368 96L208 96zM327.1 402.7C334.5 397.8 344.4 399.8 349.3 407.1C354.2 414.4 352.2 424.4 344.9 429.3L316.9 448L344.9 466.7C352.3 471.6 354.2 481.5 349.3 488.9C344.4 496.3 334.5 498.2 327.1 493.3L288 467.2L248.9 493.3C241.5 498.2 231.6 496.2 226.7 488.9C221.8 481.6 223.8 471.6 231.1 466.7L259.1 448L231.1 429.3C223.7 424.4 221.8 414.5 226.7 407.1C231.6 399.7 241.5 397.8 248.9 402.7L288 428.8L327.1 402.7z"/></svg>