<svg xmlns="http://www.w3.org/2000/svg" viewBox="0 0 640 640"><!--! Font Awesome Pro 7.1.0 by @fontawesome - https://fontawesome.com License - https://fontawesome.com/license (Commercial License) Copyright 2025 Fonticons, Inc. --><path fill="currentColor" d="M528 96C572.2 96 608 131.8 608 176L608 528C608 536.8 600.8 544 592 544C583.2 544 576 536.8 576 528L576 176C576 149.5 554.5 128 528 128L112 128C85.5 128 64 149.5 64 176L64 528C64 536.8 56.8 544 48 544C39.2 544 32 536.8 32 528L32 176C32 131.8 67.8 96 112 96L528 96zM448 176C456.8 176 464 183.2 464 192L464 240L512 240C520.8 240 528 247.2 528 256C528 264.8 520.8 272 512 272L464 272L464 336L512 336C520.8 336 528 343.2 528 352C528 360.8 520.8 368 512 368L464 368L464 432L512 432C520.8 432 528 439.2 528 448C528 456.8 520.8 464 512 464L464 464L464 528C464 536.8 456.8 544 448 544C439.2 544 432 536.8 432 528L432 464L336 464L336 528C336 536.8 328.8 544 320 544C311.2 544 304 536.8 304 528L304 464L208 464L208 528C208 536.8 200.8 544 192 544C183.2 544 176 536.8 176 528L176 464L128 464C119.2 464 112 456.8 112 448C112 439.2 119.2 432 128 432L176 432L176 368L128 368C119.2 368 112 360.8 112 352C112 343.2 119.2 336 128 336L176 336L176 272L128 272C119.2 272 112 264.8 112 256C112 247.2 119.2 240 128 240L176 240L176 192L176.3 188.8C177.8 181.5 184.3 176 192 176C199.7 176 206.2 181.5 207.7 188.8L208 192L208 240L304 240L304 192C304 183.2 311.2 176 320 176C328.8 176 336 183.2 336 192L336 240L432 240L432 192C432 183.2 439.2 176 448 176zM208 432L304 432L304 368L208 368L208 432zM336 432L432 432L432 368L336 368L336 432zM208 336L304 336L304 272L208 272L208 336zM336 336L432 336L432 272L336 272L336 336z"/></svg>