<svg xmlns="http://www.w3.org/2000/svg" viewBox="0 0 640 640"><!--! Font Awesome Pro 7.1.0 by @fontawesome - https://fontawesome.com License - https://fontawesome.com/license (Commercial License) Copyright 2025 Fonticons, Inc. --><path fill="currentColor" d="M578.5 40.3C582.7 32.6 592.5 29.7 600.2 34C607.9 38.3 610.8 48 606.5 55.7L340.2 542.7C329 563.2 307.4 576 284 576L112.5 576C86 576 64.5 554.5 64.5 528L64.5 391.4C64.5 360.9 92.5 338.2 122.4 344.4L382.2 399.2L578.5 40.3zM115.8 375.8C105.9 373.7 96.5 381.3 96.5 391.5L96.5 416.1L144.5 416.1C153.3 416.1 160.5 423.3 160.5 432.1C160.5 440.9 153.3 448.1 144.5 448.1L96.5 448.1L96.5 480.1L144.5 480.1C153.3 480.1 160.5 487.3 160.5 496.1C160.5 504.9 153.3 512.1 144.5 512.1L96.5 512.1L96.5 528.1C96.5 536.9 103.7 544.1 112.5 544.1L284 544C295.7 544 306.5 537.6 312.1 527.4L366.2 428.5L115.8 375.8z"/></svg>