<svg xmlns="http://www.w3.org/2000/svg" viewBox="0 0 640 640"><!--! Font Awesome Pro 7.1.0 by @fontawesome - https://fontawesome.com License - https://fontawesome.com/license (Commercial License) Copyright 2025 Fonticons, Inc. --><path fill="currentColor" d="M199.6 42.4C204.3 39.5 210.2 39.2 215.2 41.7L423.2 145.7L425.1 146.9C429.4 149.9 432 154.8 432 160.1C432 165.4 429.4 170.3 425.1 173.3L423.2 174.5L224 274.1L224 344.6C253.7 339.2 286.2 336.2 320 336.2C387.9 336.2 450.2 348.1 496.1 368C519 377.9 538.6 390.2 552.6 404.6C566.7 419.1 576 436.6 576 456.3C576 476 566.7 493.5 552.6 508C538.5 522.4 519 534.6 496.1 544.6C450.2 564.5 388 576.4 320 576.4C252 576.4 189.8 564.1 143.9 544.2C121 534.3 101.5 522.1 87.4 507.7C73.3 493.2 64 475.7 64 456C64 436.3 73.3 418.8 87.4 404.3C101.5 389.9 121 377.7 143.9 367.7C158.4 361.4 174.5 355.9 192 351.4L192 56L192.1 53.9C192.7 49.2 195.4 44.9 199.6 42.3zM320 368C285.5 368 253 371.3 224 377L224 418.2C239.3 411.7 259.1 408 280 408C301.6 408 321.9 411.9 337.4 418.7C345.1 422.1 352.4 426.6 357.9 432.5C363.5 438.4 368 446.4 368 456C368 465.6 363.5 473.6 357.9 479.5C352.4 485.3 345.1 489.8 337.4 493.3C321.9 500.2 301.6 504.1 280 504.1C258.4 504.1 238.1 500.2 222.6 493.3C214.9 489.9 207.6 485.4 202.1 479.5C197.2 474.3 193.2 467.6 192.2 459.5L192 456L192 384.6C179.2 388.3 167.4 392.5 156.7 397.1C136.2 406 120.6 416.1 110.4 426.6C100.2 437 96.1 446.9 96.1 455.9C96.1 464.9 100.2 474.8 110.4 485.2C120.6 495.7 136.2 505.8 156.7 514.7C197.7 532.5 255.4 543.9 320 543.9C384.6 543.9 442.4 532.5 483.3 514.7C503.8 505.8 519.4 495.7 529.6 485.2C539.8 474.8 543.9 464.9 543.9 455.9C543.9 446.9 539.7 437 529.6 426.6C519.4 416.1 503.8 406 483.3 397.1C442.3 379.3 384.6 367.9 320 367.9zM280 440C261.8 440 246.1 443.3 235.6 448C230.3 450.3 227 452.7 225.3 454.6C224.7 455.2 224.4 455.7 224.2 456C224.4 456.3 224.7 456.8 225.3 457.4C227.1 459.2 230.4 461.6 235.6 464C246.1 468.7 261.8 472 280 472C298.2 472 313.9 468.7 324.4 464C329.7 461.7 333 459.3 334.7 457.4C335.3 456.8 335.6 456.3 335.8 456C335.6 455.7 335.3 455.2 334.7 454.6C332.9 452.8 329.6 450.4 324.4 448C313.9 443.3 298.2 440 280 440zM224 238.1L380.2 160L224 81.9L224 238.1z"/></svg>