<svg xmlns="http://www.w3.org/2000/svg" viewBox="0 0 640 640"><!--! Font Awesome Pro 7.1.0 by @fontawesome - https://fontawesome.com License - https://fontawesome.com/license (Commercial License) Copyright 2025 Fonticons, Inc. --><path fill="currentColor" d="M176 64C184.8 64 192 71.2 192 80L192 96L256 96L256 80C256 71.2 263.2 64 272 64C280.8 64 288 71.2 288 80L288 96L352 96L352 80C352 71.2 359.2 64 368 64C376.8 64 384 71.2 384 80L384 96L448 96L448 80C448 71.2 455.2 64 464 64C472.8 64 480 71.2 480 80L480 224C506.5 224 528 245.5 528 272L528 352C554.5 352 576 373.5 576 400L576 528C576 554.5 554.5 576 528 576L112 576C85.5 576 64 554.5 64 528L64 400C64 373.5 85.5 352 112 352L112 272C112 245.5 133.5 224 160 224L160 80C160 71.2 167.2 64 176 64zM368 384L192 384L192 544L256 544L256 496C256 460.7 284.7 432 320 432C355.3 432 384 460.7 384 496L384 544L448 544L448 384L368 384zM352 496C352 478.3 337.7 464 320 464C302.3 464 288 478.3 288 496L288 544L352 544L352 496zM192 128L192 224L272 224L272 208C272 181.5 293.5 160 320 160C346.5 160 368 181.5 368 208L368 224L448 224L448 128L192 128zM304 224L336 224L336 208C336 199.2 328.8 192 320 192C311.2 192 304 199.2 304 208L304 224zM272 256L224 256L224 352L272 352L272 336C272 309.5 293.5 288 320 288C346.5 288 368 309.5 368 336L368 352L416 352L416 256L272 256zM160 256C151.2 256 144 263.2 144 272L144 352L192 352L192 256L160 256zM336 352L336 336C336 327.2 328.8 320 320 320C311.2 320 304 327.2 304 336L304 352L336 352zM448 256L448 352L496 352L496 272C496 263.2 488.8 256 480 256L448 256zM528 384L480 384L480 544L528 544C536.8 544 544 536.8 544 528L544 400C544 391.2 536.8 384 528 384zM160 544L160 384L112 384C103.2 384 96 391.2 96 400L96 528C96 536.8 103.2 544 112 544L160 544z"/></svg>