<svg xmlns="http://www.w3.org/2000/svg" viewBox="0 0 640 640"><!--! Font Awesome Pro 7.1.0 by @fontawesome - https://fontawesome.com License - https://fontawesome.com/license (Commercial License) Copyright 2025 Fonticons, Inc. --><path fill="currentColor" d="M271 35.4C256.5 31.6 241.6 40.1 237.6 54.6L163.6 320.7C159.5 335.3 168.2 350.4 182.9 354.3C190.6 356.4 198.8 354.9 205.2 350.5C296.5 289.2 392.3 274.4 439.5 274.9C450.3 275 459.1 280.2 464.9 288.7C474.4 302.4 474.1 319.9 466.1 334.8C458.1 349.7 443.4 359.9 426.4 359.9L304 360C295.2 360 288 367.2 288 376C288 384.8 295.2 392 304 392L426.4 392C457 392 481.6 373.5 494.2 350C506.8 326.6 508.6 296.2 491.5 271C482.6 256.3 469.8 244 455.3 235.4C415.7 211.7 337.6 149.8 288.7 50C285.2 42.9 278.9 37.5 271 35.5zM265.3 74.5C307.7 155.7 367.5 212.2 411 244.1C357 248.6 276.5 267.3 197.9 317.2L265.2 74.5zM432 480C440.8 480 448 487.2 448 496L448 544L192 544L192 496C192 487.2 199.2 480 208 480L432 480zM208 448C181.5 448 160 469.5 160 496L160 544L144 544C135.2 544 128 551.2 128 560C128 568.8 135.2 576 144 576L496 576C504.8 576 512 568.8 512 560C512 551.2 504.8 544 496 544L480 544L480 496C480 469.5 458.5 448 432 448L208 448z"/></svg>