<svg xmlns="http://www.w3.org/2000/svg" viewBox="0 0 640 640"><!--! Font Awesome Pro 7.1.0 by @fontawesome - https://fontawesome.com License - https://fontawesome.com/license (Commercial License) Copyright 2025 Fonticons, Inc. --><path fill="currentColor" d="M447.6 63.8C435.5 51.7 415.9 51.7 403.7 63.8L392.4 75.1C373.3 94.2 364.4 119.7 365.9 144.8C356.6 140.8 346.4 138.5 335.6 138.5C303.4 138.5 275.9 158.5 264.8 186.7C251.5 175.4 234.3 168.5 215.5 168.5C173.5 168.5 139.4 202.6 139.4 244.6C139.4 263.4 146.2 280.6 157.6 293.9C129.4 305 109.4 332.5 109.4 364.7C109.4 383.5 116.2 400.7 127.6 414C99.4 425.1 79.4 452.6 79.4 484.8C79.4 526.8 113.5 560.9 155.5 560.9C187.7 560.9 215.2 540.9 226.3 512.7C239.6 524 256.8 530.9 275.6 530.9C307.8 530.9 335.3 510.9 346.4 482.7C359.7 494 376.9 500.9 395.7 500.9C437.7 500.9 471.8 466.8 471.8 424.8C471.8 406 465 388.8 453.6 375.5C481.8 364.4 501.8 336.9 501.8 304.7C501.8 293.9 499.6 283.7 495.5 274.4C520.5 275.8 546 267 565.2 247.9L576.6 236.5C588.7 224.4 588.7 204.8 576.6 192.6L565.2 181.2C543.2 159.2 512.7 150.8 484.2 156C489.5 127.5 481.1 97 459 75L447.6 63.8zM436.4 181.3L425.7 192L415 181.3C392 158.2 392 120.8 415 97.8L425.7 87.1L436.4 97.8C459.5 120.9 459.5 158.3 436.4 181.3zM448.4 214.6L459 203.9C482.1 180.8 519.5 180.8 542.5 203.9L553.2 214.6L542.5 225.3C519.4 248.4 482 248.4 459 225.3L448.3 214.6zM335.6 258.7C319.4 259.5 304 251.3 295.7 237.3C287.3 223.4 287.3 205.9 295.7 192C304 178 319.4 169.8 335.6 170.6C351.8 169.8 367.2 178 375.5 192C383.9 205.9 383.9 223.4 375.5 237.3C367.2 251.3 351.8 259.5 335.6 258.7zM215.5 288.7C199.3 289.5 183.9 281.3 175.6 267.3C167.2 253.4 167.2 235.9 175.6 222C183.9 208 199.3 199.8 215.5 200.6C231.7 199.8 247.1 208 255.4 222C263.8 235.9 263.8 253.4 255.4 267.3C247.1 281.3 231.7 289.5 215.5 288.7zM425.7 348.8C409.5 349.6 394.1 341.4 385.8 327.4C377.4 313.5 377.4 296 385.8 282.1C394.1 268.1 409.5 259.9 425.7 260.7C441.9 259.9 457.3 268.1 465.6 282.1C474 296 474 313.5 465.6 327.4C457.3 341.4 441.9 349.6 425.7 348.8zM305.6 378.8C289.4 379.6 274 371.4 265.7 357.4C257.3 343.5 257.3 326 265.7 312.1C274 298.1 289.4 289.9 305.6 290.7C321.8 289.9 337.2 298.1 345.5 312.1C353.9 326 353.9 343.5 345.5 357.4C337.2 371.4 321.8 379.6 305.6 378.8zM185.5 408.8C169.3 409.6 153.9 401.4 145.6 387.4C137.2 373.5 137.2 356 145.6 342.1C153.9 328.1 169.3 319.9 185.5 320.7C201.7 319.9 217.1 328.1 225.4 342.1C233.8 356 233.8 373.5 225.4 387.4C217.1 401.4 201.7 409.6 185.5 408.8zM395.7 468.9C379.5 469.7 364.1 461.5 355.8 447.5C347.4 433.6 347.4 416.1 355.8 402.2C364.1 388.2 379.5 380 395.7 380.8C411.9 380 427.3 388.2 435.6 402.2C444 416.1 444 433.6 435.6 447.5C427.3 461.5 411.9 469.7 395.7 468.9zM275.6 498.9C259.4 499.7 244 491.5 235.7 477.5C227.3 463.6 227.3 446.1 235.7 432.2C244 418.2 259.4 410 275.6 410.8C291.8 410 307.2 418.2 315.5 432.2C323.9 446.1 323.9 463.6 315.5 477.5C307.2 491.5 291.8 499.7 275.6 498.9zM155.5 528.9C139.3 529.7 123.9 521.5 115.6 507.5C107.2 493.6 107.2 476.1 115.6 462.2C123.9 448.2 139.3 440 155.5 440.8C171.7 440 187.1 448.2 195.4 462.2C203.8 476.1 203.8 493.6 195.4 507.5C187.1 521.5 171.7 529.7 155.5 528.9z"/></svg>