<svg xmlns="http://www.w3.org/2000/svg" viewBox="0 0 640 640"><!--! Font Awesome Pro 7.1.0 by @fontawesome - https://fontawesome.com License - https://fontawesome.com/license (Commercial License) Copyright 2025 Fonticons, Inc. --><path fill="currentColor" d="M208 96L480 96C515.3 96 544 124.7 544 160L544 250C533.9 245.3 522.9 243 512 243L512 160C512 142.3 497.7 128 480 128L448 128L448 276.5C434.6 292.1 418 312.6 402.2 336L336 336L336 512L345.5 512C347 523.1 349.6 533.8 353.1 544L160 544C124.7 544 96 515.3 96 480L96 160C96 124.7 124.7 96 160 96L208 96zM128 336L128 480C128 497.7 142.3 512 160 512L192 512L192 336L128 336zM224 512L304 512L304 336L224 336L224 512zM416 128L336 128L336 304L416 304L416 128zM304 128L224 128L224 304L304 304L304 128zM192 128L160 128C142.3 128 128 142.3 128 160L128 304L192 304L192 128zM424 490.1C424 537 462.9 576 512 576C561.1 576 600 537 600 490.1C600 464.5 587.6 433 568.2 400.7C550.2 370.8 528.3 343.6 512 324.9C495.6 343.6 473.8 370.7 455.8 400.7C436.4 433 424 464.5 424 490.1zM512 608C445.7 608 392 555.2 392 490.1C392 421.2 456.1 339.7 490.6 300.8C502.2 287.7 521.9 287.7 533.5 300.8C568 339.7 632.1 421.2 632.1 490.1C632.1 555.2 578.4 608 512.1 608z"/></svg>