<svg xmlns="http://www.w3.org/2000/svg" viewBox="0 0 640 640"><!--! Font Awesome Pro 7.1.0 by @fontawesome - https://fontawesome.com License - https://fontawesome.com/license (Commercial License) Copyright 2025 Fonticons, Inc. --><path fill="currentColor" d="M106.8 127.1C98.4 124.2 94 115.1 96.9 106.8C99.8 98.5 108.9 94 117.3 96.9L533.3 240.9C539.7 243.1 544.1 249.2 544.1 256C544.1 262.8 539.8 268.9 533.3 271.1L117.3 415.1C108.9 418 99.8 413.6 96.9 405.2C94 396.8 98.4 387.7 106.8 384.8L479.1 256L106.8 127.1zM528 512C536.8 512 544 519.2 544 528C544 536.8 536.8 544 528 544L112 544C103.2 544 96 536.8 96 528C96 519.2 103.2 512 112 512L528 512z"/></svg>