<svg xmlns="http://www.w3.org/2000/svg" viewBox="0 0 640 640"><!--! Font Awesome Pro 7.1.0 by @fontawesome - https://fontawesome.com License - https://fontawesome.com/license (Commercial License) Copyright 2025 Fonticons, Inc. --><path fill="currentColor" d="M144 128C135.2 128 128 135.2 128 144L128 240C128 248.8 135.2 256 144 256L240 256C248.8 256 256 248.8 256 240L256 144C256 135.2 248.8 128 240 128L144 128zM96 144C96 117.5 117.5 96 144 96L240 96C266.5 96 288 117.5 288 144L288 240C288 266.5 266.5 288 240 288L144 288C117.5 288 96 266.5 96 240L96 144zM144 384C135.2 384 128 391.2 128 400L128 496C128 504.8 135.2 512 144 512L240 512C248.8 512 256 504.8 256 496L256 400C256 391.2 248.8 384 240 384L144 384zM96 400C96 373.5 117.5 352 144 352L240 352C266.5 352 288 373.5 288 400L288 496C288 522.5 266.5 544 240 544L144 544C117.5 544 96 522.5 96 496L96 400zM496 128L400 128C391.2 128 384 135.2 384 144L384 240C384 248.8 391.2 256 400 256L496 256C504.8 256 512 248.8 512 240L512 144C512 135.2 504.8 128 496 128zM400 96L496 96C522.5 96 544 117.5 544 144L544 240C544 266.5 522.5 288 496 288L400 288C373.5 288 352 266.5 352 240L352 144C352 117.5 373.5 96 400 96zM368 432L528 432C536.8 432 544 439.2 544 448C544 456.8 536.8 464 528 464L368 464C359.2 464 352 456.8 352 448C352 439.2 359.2 432 368 432z"/></svg>