<svg xmlns="http://www.w3.org/2000/svg" viewBox="0 0 640 640"><!--! Font Awesome Pro 7.1.0 by @fontawesome - https://fontawesome.com License - https://fontawesome.com/license (Commercial License) Copyright 2025 Fonticons, Inc. --><path fill="currentColor" d="M192 256C227.3 256 256 227.3 256 192C256 156.7 227.3 128 192 128C156.7 128 128 156.7 128 192C128 227.3 156.7 256 192 256zM288 192C288 245 245 288 192 288C139 288 96 245 96 192C96 139 139 96 192 96C245 96 288 139 288 192zM192 512C227.3 512 256 483.3 256 448C256 412.7 227.3 384 192 384C156.7 384 128 412.7 128 448C128 483.3 156.7 512 192 512zM288 448C288 501 245 544 192 544C139 544 96 501 96 448C96 395 139 352 192 352C245 352 288 395 288 448zM384 192C384 227.3 412.7 256 448 256C483.3 256 512 227.3 512 192C512 156.7 483.3 128 448 128C412.7 128 384 156.7 384 192zM448 288C395 288 352 245 352 192C352 139 395 96 448 96C501 96 544 139 544 192C544 245 501 288 448 288zM368 432L528 432C536.8 432 544 439.2 544 448C544 456.8 536.8 464 528 464L368 464C359.2 464 352 456.8 352 448C352 439.2 359.2 432 368 432z"/></svg>