<svg xmlns="http://www.w3.org/2000/svg" viewBox="0 0 640 640"><!--! Font Awesome Pro 7.1.0 by @fontawesome - https://fontawesome.com License - https://fontawesome.com/license (Commercial License) Copyright 2025 Fonticons, Inc. --><path fill="currentColor" d="M134.1 148.2C141.9 148.2 148.2 141.9 148.2 134.1C148.2 126.3 141.9 120 134.1 120C126.3 120 120 126.3 120 134.1C120 141.9 126.3 148.2 134.1 148.2zM172.2 134.1C172.2 155.1 155.1 172.2 134.1 172.2C113.1 172.2 96 155.1 96 134.1C96 113.1 113.1 96 134.1 96C155.1 96 172.2 113.1 172.2 134.1zM258.3 148.2C266.1 148.2 272.4 141.9 272.4 134.1C272.4 126.3 266.1 120 258.3 120C250.5 120 244.2 126.3 244.2 134.1C244.2 141.9 250.5 148.2 258.3 148.2zM296.4 134.1C296.4 155.1 279.3 172.2 258.3 172.2C237.3 172.2 220.2 155.1 220.2 134.1C220.2 113.1 237.3 96 258.3 96C279.3 96 296.4 113.1 296.4 134.1zM367.8 134.1C367.8 141.9 374.1 148.2 381.9 148.2C389.7 148.2 396 141.9 396 134.1C396 126.3 389.7 120 381.9 120C374.1 120 367.8 126.3 367.8 134.1zM381.9 172.2C360.9 172.2 343.8 155.1 343.8 134.1C343.8 113.1 360.9 96 381.9 96C402.9 96 420 113.1 420 134.1C420 155.1 402.9 172.2 381.9 172.2zM506.1 148.2C513.9 148.2 520.2 141.9 520.2 134.1C520.2 126.3 513.9 120 506.1 120C498.3 120 492 126.3 492 134.1C492 141.9 498.3 148.2 506.1 148.2zM544 134.1C544 155.1 526.9 172.2 505.9 172.2C484.9 172.2 467.8 155.1 467.8 134.1C467.8 113.1 484.9 96 505.9 96C526.9 96 544 113.1 544 134.1zM120 258.2C120 266 126.3 272.3 134.1 272.3C141.9 272.3 148.2 266 148.2 258.2C148.2 250.4 141.9 244.1 134.1 244.1C126.3 244.1 120 250.4 120 258.2zM134.1 296.3C113.1 296.3 96 279.2 96 258.2C96 237.2 113.1 220.1 134.1 220.1C155.1 220.1 172.2 237.2 172.2 258.2C172.2 279.2 155.1 296.3 134.1 296.3zM258.3 272.3C266.1 272.3 272.4 266 272.4 258.2C272.4 250.4 266.1 244.1 258.3 244.1C250.5 244.1 244.2 250.4 244.2 258.2C244.2 266 250.5 272.3 258.3 272.3zM296.4 258.2C296.4 279.2 279.3 296.3 258.3 296.3C237.3 296.3 220.2 279.2 220.2 258.2C220.2 237.2 237.3 220.1 258.3 220.1C279.3 220.1 296.4 237.2 296.4 258.2zM367.8 258.2C367.8 266 374.1 272.3 381.9 272.3C389.7 272.3 396 266 396 258.2C396 250.4 389.7 244.1 381.9 244.1C374.1 244.1 367.8 250.4 367.8 258.2zM381.9 296.3C360.9 296.3 343.8 279.2 343.8 258.2C343.8 237.2 360.9 220.1 381.9 220.1C402.9 220.1 420 237.2 420 258.2C420 279.2 402.9 296.3 381.9 296.3zM506.1 272.3C513.9 272.3 520.2 266 520.2 258.2C520.2 250.4 513.9 244.1 506.1 244.1C498.3 244.1 492 250.4 492 258.2C492 266 498.3 272.3 506.1 272.3zM544 258.2C544 279.2 526.9 296.3 505.9 296.3C484.9 296.3 467.8 279.2 467.8 258.2C467.8 237.2 484.9 220.1 505.9 220.1C526.9 220.1 544 237.2 544 258.2zM120 381.8C120 389.6 126.3 395.9 134.1 395.9C141.9 395.9 148.2 389.6 148.2 381.8C148.2 374 141.9 367.7 134.1 367.7C126.3 367.7 120 374 120 381.8zM134.1 419.9C113.1 419.9 96 402.8 96 381.8C96 360.8 113.1 343.7 134.1 343.7C155.1 343.7 172.2 360.8 172.2 381.8C172.2 402.8 155.1 419.9 134.1 419.9zM258.3 395.9C266.1 395.9 272.4 389.6 272.4 381.8C272.4 374 266.1 367.7 258.3 367.7C250.5 367.7 244.2 374 244.2 381.8C244.2 389.6 250.5 395.9 258.3 395.9zM296.4 381.8C296.4 402.8 279.3 419.9 258.3 419.9C237.3 419.9 220.2 402.8 220.2 381.8C220.2 360.8 237.3 343.7 258.3 343.7C279.3 343.7 296.4 360.8 296.4 381.8zM367.8 381.8C367.8 389.6 374.1 395.9 381.9 395.9C389.7 395.9 396 389.6 396 381.8C396 374 389.7 367.7 381.9 367.7C374.1 367.7 367.8 374 367.8 381.8zM381.9 419.9C360.9 419.9 343.8 402.8 343.8 381.8C343.8 360.8 360.9 343.7 381.9 343.7C402.9 343.7 420 360.8 420 381.8C420 402.8 402.9 419.9 381.9 419.9zM506.1 395.9C513.9 395.9 520.2 389.6 520.2 381.8C520.2 374 513.9 367.7 506.1 367.7C498.3 367.7 492 374 492 381.8C492 389.6 498.3 395.9 506.1 395.9zM544 381.8C544 402.8 526.9 419.9 505.9 419.9C484.9 419.9 467.8 402.8 467.8 381.8C467.8 360.8 484.9 343.7 505.9 343.7C526.9 343.7 544 360.8 544 381.8zM120 505.9C120 513.7 126.3 520 134.1 520C141.9 520 148.2 513.7 148.2 505.9C148.2 498.1 141.9 491.8 134.1 491.8C126.3 491.8 120 498.1 120 505.9zM134.1 544C113.1 544 96 526.9 96 505.9C96 484.9 113.1 467.8 134.1 467.8C155.1 467.8 172.2 484.9 172.2 505.9C172.2 526.9 155.1 544 134.1 544zM258.3 520C266.1 520 272.4 513.7 272.4 505.9C272.4 498.1 266.1 491.8 258.3 491.8C250.5 491.8 244.2 498.1 244.2 505.9C244.2 513.7 250.5 520 258.3 520zM296.4 505.9C296.4 526.9 279.3 544 258.3 544C237.3 544 220.2 526.9 220.2 505.9C220.2 484.9 237.3 467.8 258.3 467.8C279.3 467.8 296.4 484.9 296.4 505.9zM367.8 505.9C367.8 513.7 374.1 520 381.9 520C389.7 520 396 513.7 396 505.9C396 498.1 389.7 491.8 381.9 491.8C374.1 491.8 367.8 498.1 367.8 505.9zM381.8 544C360.8 544 343.7 526.9 343.7 505.9C343.7 484.9 360.8 467.8 381.8 467.8C402.8 467.8 419.9 484.9 419.9 505.9C419.9 526.9 402.8 544 381.8 544zM506 520C513.8 520 520.1 513.7 520.1 505.9C520.1 498.1 513.8 491.8 506 491.8C498.2 491.8 491.9 498.1 491.9 505.9C491.9 513.7 498.2 520 506 520zM544 505.9C544 526.9 526.9 544 505.9 544C484.9 544 467.8 526.9 467.8 505.9C467.8 484.9 484.9 467.8 505.9 467.8C526.9 467.8 544 484.9 544 505.9z"/></svg>