<svg xmlns="http://www.w3.org/2000/svg" viewBox="0 0 640 640"><!--! Font Awesome Pro 7.1.0 by @fontawesome - https://fontawesome.com License - https://fontawesome.com/license (Commercial License) Copyright 2025 Fonticons, Inc. --><path fill="currentColor" d="M112 96C103.2 96 96 103.2 96 112L96 136C96 144.8 103.2 152 112 152L136 152C144.8 152 152 144.8 152 136L152 112C152 103.2 144.8 96 136 96L112 96zM96 210L96 234C96 242.8 103.2 250 112 250L136 250C144.8 250 152 242.8 152 234L152 210C152 201.2 144.8 194 136 194L112 194C103.2 194 96 201.2 96 210zM112 292C103.2 292 96 299.2 96 308L96 332C96 340.8 103.2 348 112 348L136 348C144.8 348 152 340.8 152 332L152 308C152 299.2 144.8 292 136 292L112 292zM96 406L96 430C96 438.8 103.2 446 112 446L136 446C144.8 446 152 438.8 152 430L152 406C152 397.2 144.8 390 136 390L112 390C103.2 390 96 397.2 96 406zM96 504L96 528C96 536.8 103.2 544 112 544L136 544C144.8 544 152 536.8 152 528L152 504C152 495.2 144.8 488 136 488L112 488C103.2 488 96 495.2 96 504zM194 504L194 528C194 536.8 201.2 544 210 544L234 544C242.8 544 250 536.8 250 528L250 504C250 495.2 242.8 488 234 488L210 488C201.2 488 194 495.2 194 504zM308 488C299.2 488 292 495.2 292 504L292 528C292 536.8 299.2 544 308 544L332 544C340.8 544 348 536.8 348 528L348 504C348 495.2 340.8 488 332 488L308 488zM390 504L390 528C390 536.8 397.2 544 406 544L430 544C438.8 544 446 536.8 446 528L446 504C446 495.2 438.8 488 430 488L406 488C397.2 488 390 495.2 390 504zM504 488C495.2 488 488 495.2 488 504L488 528C488 536.8 495.2 544 504 544L528 544C536.8 544 544 536.8 544 528L544 504C544 495.2 536.8 488 528 488L504 488zM210 390C201.2 390 194 397.2 194 406L194 430C194 438.8 201.2 446 210 446L234 446C242.8 446 250 438.8 250 430L250 406C250 397.2 242.8 390 234 390L210 390zM292 406L292 430C292 438.8 299.2 446 308 446L332 446C340.8 446 348 438.8 348 430L348 406C348 397.2 340.8 390 332 390L308 390C299.2 390 292 397.2 292 406zM406 390C397.2 390 390 397.2 390 406L390 430C390 438.8 397.2 446 406 446L430 446C438.8 446 446 438.8 446 430L446 406C446 397.2 438.8 390 430 390L406 390zM488 406L488 430C488 438.8 495.2 446 504 446L528 446C536.8 446 544 438.8 544 430L544 406C544 397.2 536.8 390 528 390L504 390C495.2 390 488 397.2 488 406zM194 308L194 332C194 340.8 201.2 348 210 348L234 348C242.8 348 250 340.8 250 332L250 308C250 299.2 242.8 292 234 292L210 292C201.2 292 194 299.2 194 308zM308 292C299.2 292 292 299.2 292 308L292 332C292 340.8 299.2 348 308 348L332 348C340.8 348 348 340.8 348 332L348 308C348 299.2 340.8 292 332 292L308 292zM390 308L390 332C390 340.8 397.2 348 406 348L430 348C438.8 348 446 340.8 446 332L446 308C446 299.2 438.8 292 430 292L406 292C397.2 292 390 299.2 390 308zM504 292C495.2 292 488 299.2 488 308L488 332C488 340.8 495.2 348 504 348L528 348C536.8 348 544 340.8 544 332L544 308C544 299.2 536.8 292 528 292L504 292zM210 194C201.2 194 194 201.2 194 210L194 234C194 242.8 201.2 250 210 250L234 250C242.8 250 250 242.8 250 234L250 210C250 201.2 242.8 194 234 194L210 194zM292 210L292 234C292 242.8 299.2 250 308 250L332 250C340.8 250 348 242.8 348 234L348 210C348 201.2 340.8 194 332 194L308 194C299.2 194 292 201.2 292 210zM406 194C397.2 194 390 201.2 390 210L390 234C390 242.8 397.2 250 406 250L430 250C438.8 250 446 242.8 446 234L446 210C446 201.2 438.8 194 430 194L406 194zM488 210L488 234C488 242.8 495.2 250 504 250L528 250C536.8 250 544 242.8 544 234L544 210C544 201.2 536.8 194 528 194L504 194C495.2 194 488 201.2 488 210zM194 112L194 136C194 144.8 201.2 152 210 152L234 152C242.8 152 250 144.8 250 136L250 112C250 103.2 242.8 96 234 96L210 96C201.2 96 194 103.2 194 112zM308 96C299.2 96 292 103.2 292 112L292 136C292 144.8 299.2 152 308 152L332 152C340.8 152 348 144.8 348 136L348 112C348 103.2 340.8 96 332 96L308 96zM390 112L390 136C390 144.8 397.2 152 406 152L430 152C438.8 152 446 144.8 446 136L446 112C446 103.2 438.8 96 430 96L406 96C397.2 96 390 103.2 390 112zM504 96C495.2 96 488 103.2 488 112L488 136C488 144.8 495.2 152 504 152L528 152C536.8 152 544 144.8 544 136L544 112C544 103.2 536.8 96 528 96L504 96z"/></svg>