<svg xmlns="http://www.w3.org/2000/svg" viewBox="0 0 640 640"><!--! Font Awesome Pro 7.1.0 by @fontawesome - https://fontawesome.com License - https://fontawesome.com/license (Commercial License) Copyright 2025 Fonticons, Inc. --><path fill="currentColor" d="M120 120L152 120L152 152L120 152L120 120zM112 96C103.2 96 96 103.2 96 112L96 160C96 168.8 103.2 176 112 176L160 176C168.8 176 176 168.8 176 160L176 112C176 103.2 168.8 96 160 96L112 96zM120 242.7L152 242.7L152 274.7L120 274.7L120 242.7zM112 218.7C103.2 218.7 96 225.9 96 234.7L96 282.7C96 291.5 103.2 298.7 112 298.7L160 298.7C168.8 298.7 176 291.5 176 282.7L176 234.7C176 225.9 168.8 218.7 160 218.7L112 218.7zM120 365.4L152 365.4L152 397.4L120 397.4L120 365.4zM112 341.4C103.2 341.4 96 348.6 96 357.4L96 405.4C96 414.2 103.2 421.4 112 421.4L160 421.4C168.8 421.4 176 414.2 176 405.4L176 357.4C176 348.6 168.8 341.4 160 341.4L112 341.4zM120 520L120 488L152 488L152 520L120 520zM96 480L96 528C96 536.8 103.2 544 112 544L160 544C168.8 544 176 536.8 176 528L176 480C176 471.2 168.8 464 160 464L112 464C103.2 464 96 471.2 96 480zM242.7 520L242.7 488L274.7 488L274.7 520L242.7 520zM218.7 480L218.7 528C218.7 536.8 225.9 544 234.7 544L282.7 544C291.5 544 298.7 536.8 298.7 528L298.7 480C298.7 471.2 291.5 464 282.7 464L234.7 464C225.9 464 218.7 471.2 218.7 480zM365.4 488L397.4 488L397.4 520L365.4 520L365.4 488zM357.4 464C348.6 464 341.4 471.2 341.4 480L341.4 528C341.4 536.8 348.6 544 357.4 544L405.4 544C414.2 544 421.4 536.8 421.4 528L421.4 480C421.4 471.2 414.2 464 405.4 464L357.4 464zM488 520L488 488L520 488L520 520L488 520zM464 480L464 528C464 536.8 471.2 544 480 544L528 544C536.8 544 544 536.8 544 528L544 480C544 471.2 536.8 464 528 464L480 464C471.2 464 464 471.2 464 480zM242.7 397.3L242.7 365.3L274.7 365.3L274.7 397.3L242.7 397.3zM218.7 357.3L218.7 405.3C218.7 414.1 225.9 421.3 234.7 421.3L282.7 421.3C291.5 421.3 298.7 414.1 298.7 405.3L298.7 357.3C298.7 348.5 291.5 341.3 282.7 341.3L234.7 341.3C225.9 341.3 218.7 348.5 218.7 357.3zM365.4 365.3L397.4 365.3L397.4 397.3L365.4 397.3L365.4 365.3zM357.4 341.3C348.6 341.3 341.4 348.5 341.4 357.3L341.4 405.3C341.4 414.1 348.6 421.3 357.4 421.3L405.4 421.3C414.2 421.3 421.4 414.1 421.4 405.3L421.4 357.3C421.4 348.5 414.2 341.3 405.4 341.3L357.4 341.3zM488.1 397.3L488.1 365.3L520.1 365.3L520.1 397.3L488.1 397.3zM464.1 357.3L464.1 405.3C464.1 414.1 471.3 421.3 480.1 421.3L528.1 421.3C536.9 421.3 544.1 414.1 544.1 405.3L544.1 357.3C544.1 348.5 536.9 341.3 528.1 341.3L480.1 341.3C471.3 341.3 464.1 348.5 464.1 357.3zM242.7 274.7L242.7 242.7L274.7 242.7L274.7 274.7L242.7 274.7zM218.7 234.7L218.7 282.7C218.7 291.5 225.9 298.7 234.7 298.7L282.7 298.7C291.5 298.7 298.7 291.5 298.7 282.7L298.7 234.7C298.7 225.9 291.5 218.7 282.7 218.7L234.7 218.7C225.9 218.7 218.7 225.9 218.7 234.7zM365.4 242.7L397.4 242.7L397.4 274.7L365.4 274.7L365.4 242.7zM357.4 218.7C348.6 218.7 341.4 225.9 341.4 234.7L341.4 282.7C341.4 291.5 348.6 298.7 357.4 298.7L405.4 298.7C414.2 298.7 421.4 291.5 421.4 282.7L421.4 234.7C421.4 225.9 414.2 218.7 405.4 218.7L357.4 218.7zM488.1 274.7L488.1 242.7L520.1 242.7L520.1 274.7L488.1 274.7zM464.1 234.7L464.1 282.7C464.1 291.5 471.3 298.7 480.1 298.7L528.1 298.7C536.9 298.7 544.1 291.5 544.1 282.7L544.1 234.7C544.1 225.9 536.9 218.7 528.1 218.7L480.1 218.7C471.3 218.7 464.1 225.9 464.1 234.7zM242.7 152L242.7 120L274.7 120L274.7 152L242.7 152zM218.7 112L218.7 160C218.7 168.8 225.9 176 234.7 176L282.7 176C291.5 176 298.7 168.8 298.7 160L298.7 112C298.7 103.2 291.5 96 282.7 96L234.7 96C225.9 96 218.7 103.2 218.7 112zM365.4 120L397.4 120L397.4 152L365.4 152L365.4 120zM357.4 96C348.6 96 341.4 103.2 341.4 112L341.4 160C341.4 168.8 348.6 176 357.4 176L405.4 176C414.2 176 421.4 168.8 421.4 160L421.4 112C421.4 103.2 414.2 96 405.4 96L357.4 96zM488 152L488 120L520 120L520 152L488 152zM464 112L464 160C464 168.8 471.2 176 480 176L528 176C536.8 176 544 168.8 544 160L544 112C544 103.2 536.8 96 528 96L480 96C471.2 96 464 103.2 464 112z"/></svg>