<svg xmlns="http://www.w3.org/2000/svg" viewBox="0 0 640 640"><!--! Font Awesome Pro 7.1.0 by @fontawesome - https://fontawesome.com License - https://fontawesome.com/license (Commercial License) Copyright 2025 Fonticons, Inc. --><path fill="currentColor" d="M176 128L176 176L128 176L128 128L176 128zM128 96C110.3 96 96 110.3 96 128L96 176C96 193.7 110.3 208 128 208L176 208C193.7 208 208 193.7 208 176L208 128C208 110.3 193.7 96 176 96L128 96zM176 296L176 344L128 344L128 296L176 296zM128 264C110.3 264 96 278.3 96 296L96 344C96 361.7 110.3 376 128 376L176 376C193.7 376 208 361.7 208 344L208 296C208 278.3 193.7 264 176 264L128 264zM128 464L176 464L176 512L128 512L128 464zM96 464L96 512C96 529.7 110.3 544 128 544L176 544C193.7 544 208 529.7 208 512L208 464C208 446.3 193.7 432 176 432L128 432C110.3 432 96 446.3 96 464zM344 128L344 176L296 176L296 128L344 128zM296 96C278.3 96 264 110.3 264 128L264 176C264 193.7 278.3 208 296 208L344 208C361.7 208 376 193.7 376 176L376 128C376 110.3 361.7 96 344 96L296 96zM296 296L344 296L344 344L296 344L296 296zM264 296L264 344C264 361.7 278.3 376 296 376L344 376C361.7 376 376 361.7 376 344L376 296C376 278.3 361.7 264 344 264L296 264C278.3 264 264 278.3 264 296zM344 464L344 512L296 512L296 464L344 464zM296 432C278.3 432 264 446.3 264 464L264 512C264 529.7 278.3 544 296 544L344 544C361.7 544 376 529.7 376 512L376 464C376 446.3 361.7 432 344 432L296 432zM464 128L512 128L512 176L464 176L464 128zM432 128L432 176C432 193.7 446.3 208 464 208L512 208C529.7 208 544 193.7 544 176L544 128C544 110.3 529.7 96 512 96L464 96C446.3 96 432 110.3 432 128zM512 296L512 344L464 344L464 296L512 296zM464 264C446.3 264 432 278.3 432 296L432 344C432 361.7 446.3 376 464 376L512 376C529.7 376 544 361.7 544 344L544 296C544 278.3 529.7 264 512 264L464 264zM464 464L512 464L512 512L464 512L464 464zM432 464L432 512C432 529.7 446.3 544 464 544L512 544C529.7 544 544 529.7 544 512L544 464C544 446.3 529.7 432 512 432L464 432C446.3 432 432 446.3 432 464z"/></svg>