<svg xmlns="http://www.w3.org/2000/svg" viewBox="0 0 640 640"><!--! Font Awesome Pro 7.1.0 by @fontawesome - https://fontawesome.com License - https://fontawesome.com/license (Commercial License) Copyright 2025 Fonticons, Inc. --><path fill="currentColor" d="M472 128L104 128C99.6 128 96 131.6 96 136L96 160C96 266 182 352 288 352C291.8 352 295.6 351.9 299.3 351.7C293.8 362.1 288.8 373 284.6 384C265.9 383.7 247.7 381.2 230.4 376.6L204.3 433.9C208.6 438.1 212.4 442.8 215.4 448L272 448C272.1 458.8 273 469.5 274.7 480L224 480C224 515.3 195.3 544 160 544C124.7 544 96 515.3 96 480C96 444.7 124.7 416 160 416C165.7 416 171.1 416.7 176.4 418.1L200.1 366.1C120 331.9 64 252.5 64 160L64 136C64 113.9 81.9 96 104 96L472 96C494.1 96 512 113.9 512 136L512 160C512 186.8 507.3 212.4 498.7 236.2C494.4 232.1 490.1 228.1 485.7 224.1C481.5 220.3 476.9 217.2 472.1 214.8C477.3 197.4 480 179.1 480 160L480 136C480 131.6 476.4 128 472 128zM160 448C142.3 448 128 462.3 128 480C128 497.7 142.3 512 160 512C177.7 512 192 497.7 192 480C192 462.3 177.7 448 160 448zM427.5 263.6C433.8 258 442 256.1 448.1 256.1C456.1 256.2 462.1 259.4 466.8 263.7C481 276.5 493.1 290.1 504.8 304C509.8 298.8 515.4 293.1 519.4 289.5C530.6 279.2 548 279.3 559.1 289.6C597.6 325.1 640 385.7 640 448.2C640 537 568.8 608.2 480 608.2C391.2 608.2 320 537 320 448.2C320 411.7 336 375.7 356.6 344.5C377.4 313 403.9 284.9 427.5 263.7zM447.1 289C425.4 308.7 401.7 334.2 383.3 362C364.3 390.8 352 420.6 352 448.1C352 481.7 364.7 512.2 385.6 534.9C384.5 529.6 384 524.1 384 518.5C384 461.1 447.8 408 471.4 390.3C476.6 386.4 483.5 386.4 488.7 390.3C512.3 408 576.1 461.1 576.1 518.5C576.1 524.1 575.5 529.6 574.5 534.9C595.4 512.2 608.1 481.7 608.1 448.1C608.1 399.4 574.4 347.7 539.3 314.6C533.2 320.4 523.9 330.2 518.8 335.6C510.5 344.4 496.5 343.9 488.8 334.7C474.8 317.8 462.1 302.9 447.1 289zM544 518.6C544 501.2 533.9 480.9 516.6 460.1C504.5 445.6 490.8 433.1 480 424.3C469.3 433.1 455.5 445.6 443.4 460.1C426.1 480.8 416 501.2 416 518.6C416 548.4 442.5 576.2 480 576.2L480.1 576.2C517.5 576.1 544 548.3 544 518.6z"/></svg>