<svg xmlns="http://www.w3.org/2000/svg" viewBox="0 0 640 640"><!--! Font Awesome Pro 7.1.0 by @fontawesome - https://fontawesome.com License - https://fontawesome.com/license (Commercial License) Copyright 2025 Fonticons, Inc. --><path fill="currentColor" d="M504 128C508.4 128 512 131.6 512 136L512 160C512 266 426 352 320 352C214 352 128 266 128 160L128 136C128 131.6 131.6 128 136 128L504 128zM136 96C113.9 96 96 113.9 96 136L96 160C96 252.5 152 331.9 232 366.1L208.3 418.1C203.1 416.7 197.6 416 191.9 416C156.6 416 127.9 444.7 127.9 480C127.9 515.3 156.6 544 191.9 544C227.2 544 255.9 515.3 255.9 480L424.5 480L449.3 534.6C453 542.6 462.4 546.2 470.5 542.5C478.6 538.8 482.1 529.4 478.4 521.3L408 366.1C488 331.9 544 252.5 544 160L544 136C544 113.9 526.1 96 504 96L136 96zM236.4 433.9L262.5 376.6C280.9 381.5 300.2 384.1 320.1 384.1C340 384.1 359.3 381.5 377.7 376.6L410.2 448.1L247.6 448.1C244.6 442.9 240.8 438.1 236.5 434zM192 512C174.3 512 160 497.7 160 480C160 462.3 174.3 448 192 448C209.7 448 224 462.3 224 480C224 497.7 209.7 512 192 512z"/></svg>