<svg xmlns="http://www.w3.org/2000/svg" viewBox="0 0 640 640"><!--! Font Awesome Pro 7.1.0 by @fontawesome - https://fontawesome.com License - https://fontawesome.com/license (Commercial License) Copyright 2025 Fonticons, Inc. --><path fill="currentColor" d="M208 0C199.2 0 192 7.2 192 16C192 35.6 199.8 54.4 213.7 68.3L243.8 98.4C251.7 106.3 256.1 116.9 256.1 128.1C256.1 136.9 263.3 144.1 272.1 144.1C280.9 144.1 288.1 136.9 288.1 128.1C288.1 108.5 280.3 89.7 266.4 75.8L236.3 45.7C228.4 37.8 224 27.2 224 16C224 7.2 216.8 0 208 0zM112 192C107.6 192 103.5 193.8 100.5 196.9C97.5 200 95.8 204.3 96 208.7L96.4 218.8C100 303.7 154.5 374.7 229.8 403L208.4 450.1C203.2 448.7 197.7 448 192 448C156.7 448 128 476.7 128 512C128 547.3 156.7 576 192 576C227.3 576 256 547.3 256 512L424.6 512L449.4 566.6C453.1 574.6 462.5 578.2 470.6 574.5C478.7 570.8 482.2 561.4 478.5 553.3L410.2 403.1C488.4 373.9 544 298.6 544 210.2L544 208C544 199.2 536.8 192 528 192L112 192zM379.1 411.9L410 480L247.4 480C244.4 474.8 240.6 470 236.3 465.9L260.8 411.9C274.1 414.6 287.8 416 301.9 416L338.1 416C352.1 416 365.8 414.6 379 411.9zM302 384C211 384 135.9 314 128.8 224L511.5 224C504.5 313.5 429.6 384 338.3 384L302 384zM224 512C224 529.7 209.7 544 192 544C174.3 544 160 529.7 160 512C160 494.3 174.3 480 192 480C209.7 480 224 494.3 224 512zM352 16C352 7.2 344.8 0 336 0C327.2 0 320 7.2 320 16C320 35.6 327.8 54.4 341.7 68.3L371.8 98.4C379.7 106.3 384.1 116.9 384.1 128.1C384.1 136.9 391.3 144.1 400.1 144.1C408.9 144.1 416.1 136.9 416.1 128.1C416.1 108.5 408.3 89.7 394.4 75.8L364.3 45.7C356.4 37.8 352 27.1 352 16z"/></svg>