<svg xmlns="http://www.w3.org/2000/svg" viewBox="0 0 640 640"><!--! Font Awesome Pro 7.1.0 by @fontawesome - https://fontawesome.com License - https://fontawesome.com/license (Commercial License) Copyright 2025 Fonticons, Inc. --><path fill="currentColor" d="M320 96C196.3 96 96 196.3 96 320C96 443.7 196.3 544 320 544C443.7 544 544 443.7 544 320C544 196.3 443.7 96 320 96zM576 320C576 461.4 461.4 576 320 576C178.6 576 64 461.4 64 320C64 178.6 178.6 64 320 64C461.4 64 576 178.6 576 320zM240 384C222.3 384 208 398.3 208 416C208 433.7 222.3 448 240 448L240 384zM304 448L304 384L272 384L272 448L304 448zM368 448L368 384L336 384L336 448L368 448zM400 448C417.7 448 432 433.7 432 416C432 398.3 417.7 384 400 384L400 448zM240 352L400 352C435.3 352 464 380.7 464 416C464 451.3 435.3 480 400 480L240 480C204.7 480 176 451.3 176 416C176 380.7 204.7 352 240 352zM240 248C253.3 248 264 258.7 264 272C264 285.3 253.3 296 240 296C226.7 296 216 285.3 216 272C216 258.7 226.7 248 240 248zM376 272C376 258.7 386.7 248 400 248C413.3 248 424 258.7 424 272C424 285.3 413.3 296 400 296C386.7 296 376 285.3 376 272z"/></svg>