<svg xmlns="http://www.w3.org/2000/svg" viewBox="0 0 640 640"><!--! Font Awesome Pro 7.1.0 by @fontawesome - https://fontawesome.com License - https://fontawesome.com/license (Commercial License) Copyright 2025 Fonticons, Inc. --><path fill="currentColor" d="M426.1 86.9C393.8 72.2 357.8 64 320 64C178.6 64 64 178.6 64 320C64 461.4 178.6 576 320 576C461.4 576 576 461.4 576 320C576 298.2 573.3 277.1 568.2 256.9C559 262.3 548.9 266.4 538.2 268.9C542 285.3 544 302.4 544 320C544 443.7 443.7 544 320 544C196.3 544 96 443.7 96 320C96 196.3 196.3 96 320 96C352.1 96 382.7 102.8 410.3 114.9C411.7 111.8 413.1 109 414.5 106.3C418.1 99.3 422.2 92.8 426.1 86.9zM428.5 403.9C405.8 440 365.7 463.9 320 463.9C274.3 463.9 234.2 440 211.5 403.9C245.5 411.7 282 415.9 320 415.9C358 415.9 394.5 411.7 428.5 403.9zM453.5 363.9C413.6 376.7 368.2 383.9 320 383.9C271.8 383.9 226.4 376.7 186.5 363.9C174.9 360.2 163.1 369.5 166.5 381.2C186 447.5 247.4 495.9 320 495.9C392.6 495.9 454 447.5 473.5 381.2C476.9 369.5 465.1 360.2 453.5 363.9zM208 282C208 264.3 222.3 250 240 250C257.7 250 272 264.3 272 282C272 290.8 279.2 298 288 298C296.8 298 304 290.8 304 282C304 246.7 275.3 218 240 218C204.7 218 176 246.7 176 282C176 290.8 183.2 298 192 298C200.8 298 208 290.8 208 282zM400 250C417.7 250 432 264.3 432 282C432 290.8 439.2 298 448 298C456.8 298 464 290.8 464 282C464 246.7 435.3 218 400 218C364.7 218 336 246.7 336 282C336 290.8 343.2 298 352 298C360.8 298 368 290.8 368 282C368 264.3 382.3 250 400 250zM512 104.9C515.8 109.6 519.5 114.5 523 119.4C529.2 128 534.6 135.7 538.6 143.4C542.6 151.1 543.9 156.5 543.9 160C543.9 177.7 529.6 192 511.9 192C494.2 192 479.9 177.7 479.9 160C479.9 156.5 481.2 151.1 485.2 143.4C489.2 135.7 494.7 128 500.8 119.4C504.4 114.5 508 109.6 511.8 104.9zM512 64C507 64 502.7 66.4 499.5 70C490.8 79.8 482.7 90.1 475 100.7C463 117.4 448 138.4 448 160C448 195.3 476.7 224 512 224C547.3 224 576 195.3 576 160C576 138.5 561 117.5 549 100.7C541.4 90.1 533.2 79.8 524.5 70C521.3 66.4 516.9 64 512 64z"/></svg>