<svg xmlns="http://www.w3.org/2000/svg" viewBox="0 0 640 640"><!--! Font Awesome Pro 7.1.0 by @fontawesome - https://fontawesome.com License - https://fontawesome.com/license (Commercial License) Copyright 2025 Fonticons, Inc. --><path fill="currentColor" d="M475.1 164.9L517.4 158.4C532.7 156 544 142.9 544 127.4C544 110.1 530 96 512.6 96C497.1 96 484 107.3 481.6 122.6L475.1 164.9zM469.2 198.2C453.2 200.7 439.4 186.9 441.8 170.8L450 117.7C454.8 86.8 481.4 64 512.6 64C547.6 64 576 92.4 576 127.4C576 158.7 553.2 185.3 522.3 190L469.2 198.2zM413.4 116.3C330.7 78.4 229.7 93.5 161.6 161.6C93.5 229.7 78.4 330.7 116.3 413.4L101.5 416.2C95.7 417.2 90 418.8 84.6 420.8C44.7 327.4 62.8 215.2 139 139C215.2 62.8 327.4 44.7 420.8 84.6C418.8 90 417.2 95.7 416.1 101.5L413.3 116.3zM501 501C424.8 577.2 312.5 595.3 219.2 555.4C221.2 550 222.8 544.3 223.9 538.5L226.7 523.7C309.4 561.6 410.4 546.5 478.4 478.4C546.4 410.3 561.6 309.3 523.7 226.7L538.5 223.9C544.3 222.8 550 221.2 555.4 219.2C595.3 312.6 577.2 424.8 501 501zM387.9 387.9C361 414.8 332.2 437.6 302.7 456.1C344.2 465.6 389.5 454.1 421.8 421.8C454.1 389.5 465.6 344.2 456.1 302.7C437.6 332.2 414.7 361 387.9 387.9zM471.9 254.8C505 315.5 495.9 393.1 444.5 444.5C393.1 495.9 315.5 505 254.8 471.9C244.1 466.1 245.9 451.1 256.7 445.5C294 426.3 331.2 399.3 365.3 365.2C399.4 331.1 426.4 293.9 445.6 256.6C451.2 245.8 466.1 244 472 254.7zM157.5 348C154.7 339.6 159.2 330.6 167.6 327.8L252.5 299.5C258.2 297.6 264.6 299.1 268.9 303.4C273.2 307.7 274.7 314 272.8 319.8L244.5 404.7C241.7 413.1 232.6 417.6 224.3 414.8C216 412 211.4 402.9 214.2 394.6L232.4 340.1L177.9 358.3C169.5 361.1 160.5 356.6 157.7 348.2zM358.1 177.7L339.9 232.2L394.4 214C402.8 211.2 411.8 215.7 414.6 224.1C417.4 232.5 412.9 241.5 404.5 244.3L319.6 272.6C313.9 274.5 307.5 273 303.2 268.7C298.9 264.4 297.4 258.1 299.3 252.3L327.6 167.4C330.4 159 339.5 154.5 347.8 157.3C356.1 160.1 360.7 169.2 357.9 177.5zM122.6 481.6C107.3 484 96 497.1 96 512.6C96 529.9 110 544 127.4 544C142.9 544 156 532.7 158.4 517.4L164.9 475.1L122.6 481.6zM198.2 469.2L190 522.3C185.2 553.2 158.6 576 127.4 576C92.4 576 64 547.6 64 512.6C64 481.3 86.8 454.7 117.7 450L170.8 441.8C186.8 439.3 200.6 453.1 198.2 469.2z"/></svg>