<svg xmlns="http://www.w3.org/2000/svg" viewBox="0 0 640 640"><!--! Font Awesome Pro 7.1.0 by @fontawesome - https://fontawesome.com License - https://fontawesome.com/license (Commercial License) Copyright 2025 Fonticons, Inc. --><path fill="currentColor" d="M544 320C544 196.3 443.7 96 320 96C196.3 96 96 196.3 96 320C96 443.7 196.3 544 320 544C443.7 544 544 443.7 544 320zM64 320C64 178.6 178.6 64 320 64C461.4 64 576 178.6 576 320C576 461.4 461.4 576 320 576C178.6 576 64 461.4 64 320zM320 416C282 416 245.5 411.8 211.5 404C234.2 440.1 274.3 464 320 464C365.7 464 405.8 440.1 428.5 404C394.5 411.8 358 416 320 416zM473.5 381.3C454 447.6 392.6 496 320 496C247.4 496 186 447.6 166.5 381.3C163.1 369.6 174.9 360.3 186.5 364C226.4 376.8 271.8 384 320 384C368.2 384 413.6 376.8 453.5 364C465.1 360.3 476.9 369.6 473.5 381.3zM185.3 208.8C189.3 200.9 198.9 197.7 206.8 201.6L286.8 241.6C292.2 244.3 295.6 249.9 295.6 255.9C295.6 261.9 292.2 267.5 286.8 270.2L206.8 310.2C198.9 314.2 189.3 310.9 185.3 303C181.3 295.1 184.6 285.5 192.5 281.5L243.9 255.8L192.5 230.1C184.6 226.1 181.4 216.5 185.3 208.6zM447.5 230.3L396.1 256L447.5 281.7C455.4 285.7 458.6 295.3 454.7 303.2C450.8 311.1 441.1 314.3 433.2 310.4L353.2 270.4C347.8 267.7 344.4 262.1 344.4 256.1C344.4 250.1 347.8 244.5 353.2 241.8L433.2 201.8C441.1 197.8 450.7 201.1 454.7 209C458.7 216.9 455.4 226.5 447.5 230.5z"/></svg>