<svg xmlns="http://www.w3.org/2000/svg" viewBox="0 0 640 640"><!--! Font Awesome Pro 7.1.0 by @fontawesome - https://fontawesome.com License - https://fontawesome.com/license (Commercial License) Copyright 2025 Fonticons, Inc. --><path fill="currentColor" d="M463.5 492C512.7 450.9 544 389.1 544 320C544 196.3 443.7 96 320 96C196.3 96 96 196.3 96 320C96 389.1 127.3 450.9 176.5 492C177.9 509 182.3 525.2 189.1 540C114.2 495.4 64 413.5 64 320C64 178.6 178.6 64 320 64C461.4 64 576 178.6 576 320C576 413.5 525.8 495.4 450.9 540C457.7 525.2 462.1 509 463.5 492zM367.8 396.1L404.1 387C417.5 382.4 429.4 376.8 439.4 370.5C446.9 365.8 456.8 368 461.5 375.4C466.2 382.8 464 392.8 456.6 397.5C444.8 405 431.1 411.5 416 416.7L416 480C416 533 373 576 320 576C267 576 224 533 224 480L224 416.7C208.9 411.5 195.3 405 183.4 397.5C175.9 392.8 173.7 382.9 178.5 375.4C183.3 367.9 193.1 365.7 200.6 370.5C210.6 376.8 222.5 382.4 235.9 387L272.2 396.1C287.2 398.6 303.2 400 320 400C336.8 400 352.8 398.6 367.8 396.1zM384 458.6C384 443.9 372.1 432 357.4 432L355.4 432C344.1 432 334.3 439.9 331.8 450.9C329 463.5 311 463.5 308.2 450.9C305.7 439.8 295.9 432 284.6 432L282.6 432C267.9 432 256 443.9 256 458.6L256 480C256 515.3 284.7 544 320 544C355.3 544 384 515.3 384 480L384 458.6zM192 296C192 304.8 184.8 312 176 312C167.2 312 160 304.8 160 296C160 265.1 185.1 240 216 240L232 240C262.9 240 288 265.1 288 296C288 304.8 280.8 312 272 312C263.2 312 256 304.8 256 296C256 282.7 245.3 272 232 272L216 272C202.7 272 192 282.7 192 296zM376.4 272C376.4 258.7 387.1 248 400.4 248C413.7 248 424.4 258.7 424.4 272C424.4 285.3 413.7 296 400.4 296C387.1 296 376.4 285.3 376.4 272zM448 272C448 245.5 426.5 224 400 224C373.5 224 352 245.5 352 272C352 298.5 373.5 320 400 320C426.5 320 448 298.5 448 272zM320 272C320 227.8 355.8 192 400 192C444.2 192 480 227.8 480 272C480 316.2 444.2 352 400 352C355.8 352 320 316.2 320 272z"/></svg>