<svg xmlns="http://www.w3.org/2000/svg" viewBox="0 0 640 640"><!--! Font Awesome Pro 7.1.0 by @fontawesome - https://fontawesome.com License - https://fontawesome.com/license (Commercial License) Copyright 2025 Fonticons, Inc. --><path fill="currentColor" d="M128 256C110.3 256 96 241.7 96 224C96 206.3 110.3 192 128 192C145.7 192 160 206.3 160 224C160 241.7 145.7 256 128 256zM192 224C192 188.7 163.3 160 128 160C92.7 160 64 188.7 64 224C64 259.3 92.7 288 128 288C163.3 288 192 259.3 192 224zM352 224C352 241.7 337.7 256 320 256C302.3 256 288 241.7 288 224C288 206.3 302.3 192 320 192C337.7 192 352 206.3 352 224zM320 160C284.7 160 256 188.7 256 224C256 259.3 284.7 288 320 288C355.3 288 384 259.3 384 224C384 188.7 355.3 160 320 160zM544 224C544 241.7 529.7 256 512 256C494.3 256 480 241.7 480 224C480 206.3 494.3 192 512 192C529.7 192 544 206.3 544 224zM512 160C476.7 160 448 188.7 448 224C448 259.3 476.7 288 512 288C547.3 288 576 259.3 576 224C576 188.7 547.3 160 512 160zM544 416C544 433.7 529.7 448 512 448C494.3 448 480 433.7 480 416C480 398.3 494.3 384 512 384C529.7 384 544 398.3 544 416zM512 352C476.7 352 448 380.7 448 416C448 451.3 476.7 480 512 480C547.3 480 576 451.3 576 416C576 380.7 547.3 352 512 352zM320 448C302.3 448 288 433.7 288 416C288 398.3 302.3 384 320 384C337.7 384 352 398.3 352 416C352 433.7 337.7 448 320 448zM384 416C384 380.7 355.3 352 320 352C284.7 352 256 380.7 256 416C256 451.3 284.7 480 320 480C355.3 480 384 451.3 384 416zM160 416C160 433.7 145.7 448 128 448C110.3 448 96 433.7 96 416C96 398.3 110.3 384 128 384C145.7 384 160 398.3 160 416zM128 352C92.7 352 64 380.7 64 416C64 451.3 92.7 480 128 480C163.3 480 192 451.3 192 416C192 380.7 163.3 352 128 352z"/></svg>