<svg xmlns="http://www.w3.org/2000/svg" viewBox="0 0 640 640"><!--! Font Awesome Pro 7.1.0 by @fontawesome - https://fontawesome.com License - https://fontawesome.com/license (Commercial License) Copyright 2025 Fonticons, Inc. --><path fill="currentColor" d="M544 240C544 231.2 536.8 224 528 224L112 224C103.2 224 96 231.2 96 240C96 248.8 103.2 256 112 256L528 256C536.8 256 544 248.8 544 240zM544 400C544 391.2 536.8 384 528 384L112 384C103.2 384 96 391.2 96 400C96 408.8 103.2 416 112 416L528 416C536.8 416 544 408.8 544 400z"/></svg>