<svg xmlns="http://www.w3.org/2000/svg" viewBox="0 0 640 640"><!--! Font Awesome Pro 7.1.0 by @fontawesome - https://fontawesome.com License - https://fontawesome.com/license (Commercial License) Copyright 2025 Fonticons, Inc. --><path fill="currentColor" d="M240 96C231.2 96 224 103.2 224 112L224 528C224 536.8 231.2 544 240 544C248.8 544 256 536.8 256 528L256 112C256 103.2 248.8 96 240 96zM400 96C391.2 96 384 103.2 384 112L384 528C384 536.8 391.2 544 400 544C408.8 544 416 536.8 416 528L416 112C416 103.2 408.8 96 400 96z"/></svg>