<svg xmlns="http://www.w3.org/2000/svg" viewBox="0 0 640 640"><!--! Font Awesome Pro 7.1.0 by @fontawesome - https://fontawesome.com License - https://fontawesome.com/license (Commercial License) Copyright 2025 Fonticons, Inc. --><path fill="currentColor" d="M384 128C384 110.3 398.3 96 416 96C433.7 96 448 110.3 448 128C448 145.7 433.7 160 416 160C398.3 160 384 145.7 384 128zM416 192C451.3 192 480 163.3 480 128C480 92.7 451.3 64 416 64C380.7 64 352 92.7 352 128C352 163.3 380.7 192 416 192zM416 352C398.3 352 384 337.7 384 320C384 302.3 398.3 288 416 288C433.7 288 448 302.3 448 320C448 337.7 433.7 352 416 352zM480 320C480 284.7 451.3 256 416 256C380.7 256 352 284.7 352 320C352 355.3 380.7 384 416 384C451.3 384 480 355.3 480 320zM416 480C433.7 480 448 494.3 448 512C448 529.7 433.7 544 416 544C398.3 544 384 529.7 384 512C384 494.3 398.3 480 416 480zM480 512C480 476.7 451.3 448 416 448C380.7 448 352 476.7 352 512C352 547.3 380.7 576 416 576C451.3 576 480 547.3 480 512zM224 480C241.7 480 256 494.3 256 512C256 529.7 241.7 544 224 544C206.3 544 192 529.7 192 512C192 494.3 206.3 480 224 480zM288 512C288 476.7 259.3 448 224 448C188.7 448 160 476.7 160 512C160 547.3 188.7 576 224 576C259.3 576 288 547.3 288 512zM192 320C192 302.3 206.3 288 224 288C241.7 288 256 302.3 256 320C256 337.7 241.7 352 224 352C206.3 352 192 337.7 192 320zM224 384C259.3 384 288 355.3 288 320C288 284.7 259.3 256 224 256C188.7 256 160 284.7 160 320C160 355.3 188.7 384 224 384zM224 160C206.3 160 192 145.7 192 128C192 110.3 206.3 96 224 96C241.7 96 256 110.3 256 128C256 145.7 241.7 160 224 160zM288 128C288 92.7 259.3 64 224 64C188.7 64 160 92.7 160 128C160 163.3 188.7 192 224 192C259.3 192 288 163.3 288 128z"/></svg>