<svg xmlns="http://www.w3.org/2000/svg" viewBox="0 0 640 640"><!--! Font Awesome Pro 7.1.0 by @fontawesome - https://fontawesome.com License - https://fontawesome.com/license (Commercial License) Copyright 2025 Fonticons, Inc. --><path fill="currentColor" d="M121.3 166.5C112.9 158.5 109.5 146.6 112.4 135.4C115.3 124.2 124.1 115.4 135.3 112.5C146.5 109.6 158.4 113 166.4 121.4C174.8 129.4 178.2 141.3 175.3 152.5C172.4 163.7 163.6 172.5 152.4 175.4C141.2 178.3 129.3 174.9 121.3 166.5zM98.7 189.1C108.6 199 121 205 133.8 207C121.7 226 112.4 246.4 106.2 267.4C103.7 275.9 108.5 284.8 117 287.3C125.5 289.8 134.4 285 136.9 276.5C146.4 244.5 163.8 214.3 189.1 189C214.4 163.7 244.6 146.3 276.6 136.8C285.1 134.3 289.9 125.4 287.4 116.9C284.9 108.4 276 103.6 267.5 106.1C246.5 112.4 226.1 121.6 207.1 133.7C205.1 120.8 199.1 108.5 189.2 98.6C164.2 73.6 123.8 73.6 98.8 98.6C73.8 123.6 73.8 164 98.8 189zM473.5 166.5C465.1 158.5 461.7 146.6 464.6 135.4C467.5 124.2 476.3 115.4 487.5 112.5C498.7 109.6 510.6 113 518.6 121.4C527 129.4 530.4 141.3 527.5 152.5C524.6 163.7 515.8 172.5 504.6 175.4C493.4 178.3 481.5 174.9 473.5 166.5zM506.2 207C519.1 205 531.4 199 541.3 189.1C566.3 164.1 566.3 123.7 541.3 98.7C516.3 73.7 475.9 73.7 450.9 98.7C441 108.6 435 121 433 133.8C414 121.7 393.6 112.4 372.6 106.2C364.1 103.7 355.2 108.5 352.7 117C350.2 125.5 355 134.4 363.5 136.9C395.5 146.4 425.7 163.8 451 189.1C476.3 214.4 493.7 244.6 503.2 276.6C505.7 285.1 514.6 289.9 523.1 287.4C531.6 284.9 536.4 276 533.9 267.5C527.6 246.5 518.4 226.1 506.3 207.1zM121.3 473.5C129.3 465.1 141.2 461.7 152.4 464.6C163.6 467.5 172.4 476.3 175.3 487.5C178.2 498.7 174.8 510.6 166.4 518.6C158.4 527 146.5 530.4 135.3 527.5C124.1 524.6 115.3 515.8 112.4 504.6C109.5 493.4 112.9 481.5 121.3 473.5zM98.7 450.9C73.7 475.9 73.7 516.3 98.7 541.3C123.7 566.3 164.1 566.3 189.1 541.3C199 531.4 205 519 207 506.2C226 518.4 246.4 527.6 267.4 533.8C275.9 536.3 284.8 531.5 287.3 523C289.8 514.5 285 505.6 276.5 503.1C244.5 493.6 214.3 476.2 189 450.9C163.7 425.6 146.3 395.4 136.8 363.4C134.4 355 125.5 350.1 117 352.7C108.5 355.3 103.7 364.1 106.2 372.6C112.5 393.6 121.7 414 133.8 433C120.9 435 108.6 441 98.7 450.9zM518.6 473.5C527 481.5 530.4 493.4 527.5 504.6C524.6 515.8 515.8 524.6 504.6 527.5C493.4 530.4 481.5 527 473.5 518.6C465.1 510.6 461.7 498.7 464.6 487.5C467.5 476.3 476.3 467.5 487.5 464.6C498.7 461.7 510.6 465.1 518.6 473.5zM541.2 450.9C531.3 441 518.9 435 506.1 433C518.2 414 527.5 393.6 533.7 372.6C536.2 364.1 531.4 355.2 522.9 352.7C514.4 350.2 505.5 355 503 363.5C493.5 395.5 476.1 425.7 450.8 451C425.5 476.3 395.3 493.7 363.3 503.2C354.8 505.7 350 514.6 352.5 523.1C355 531.6 363.9 536.4 372.4 533.9C393.4 527.6 413.8 518.4 432.8 506.3C434.8 519.2 440.8 531.5 450.7 541.4C475.7 566.4 516.1 566.4 541.1 541.4C566.1 516.4 566.1 476 541.1 451zM432 224C432 215.2 424.8 208 416 208C407.2 208 400 215.2 400 224L400 243.6C379.6 223.5 354.1 208 320 208C271.2 208 229.7 239.2 214.4 282.7C211.5 291 215.8 300.2 224.2 303.1C232.6 306 241.7 301.7 244.6 293.3C255.6 262.2 285.2 240 320.1 240C345.6 240 365.1 252.5 383 272L352 272C343.2 272 336 279.2 336 288C336 296.8 343.2 304 352 304L416 304C424.8 304 432 296.8 432 288L432 224zM224 432C232.8 432 240 424.8 240 416L240 396.4C260.4 416.5 285.9 432 320 432C368.8 432 410.3 400.8 425.6 357.3C428.5 349 424.2 339.8 415.8 336.9C407.4 334 398.3 338.3 395.4 346.7C384.4 377.8 354.8 400 319.9 400C294.4 400 274.9 387.5 257 368L287.9 368C296.7 368 303.9 360.8 303.9 352C303.9 343.2 296.7 336 287.9 336L223.9 336C215.1 336 207.9 343.2 207.9 352L207.9 416C207.9 424.8 215.1 432 223.9 432z"/></svg>