<svg xmlns="http://www.w3.org/2000/svg" viewBox="0 0 640 640"><!--! Font Awesome Pro 7.1.0 by @fontawesome - https://fontawesome.com License - https://fontawesome.com/license (Commercial License) Copyright 2025 Fonticons, Inc. --><path fill="currentColor" d="M304 64C295.2 64 288 71.2 288 80L288 130.7C197.2 145.9 128 224.9 128 320C128 415.1 197.2 494.1 288 509.3L288 560C288 568.8 295.2 576 304 576C312.8 576 320 568.8 320 560L320 512C426 512 512 426 512 320C512 311.2 504.8 304 496 304L320 304L320 160C363.6 160 403.1 177.4 432 205.7C438.3 211.9 448.4 211.8 454.6 205.5C460.8 199.2 460.7 189.1 454.4 182.9C419.8 149 372.3 128 320 128L320 80C320 71.2 312.8 64 304 64zM288 163.2L288 476.8C215 462 160 397.4 160 320C160 242.6 215 178 288 163.2zM320 480L320 336L479.2 336C471.2 416.9 403 480 320 480z"/></svg>