<svg xmlns="http://www.w3.org/2000/svg" viewBox="0 0 640 640"><!--! Font Awesome Pro 7.1.0 by @fontawesome - https://fontawesome.com License - https://fontawesome.com/license (Commercial License) Copyright 2025 Fonticons, Inc. --><path fill="currentColor" d="M507.7 96.8L455.1 131.8C450.6 134.8 448 139.8 448 145.1L448 169.3L484.7 132.6C490.9 126.4 501.1 126.4 507.3 132.6L517 142.3C523.1 148.4 532.9 148.4 539 142.3C545.7 135.6 544.9 124.6 537.3 118.9L507.7 96.8zM416 201.4L416 145.2C416 129.2 424 114.2 437.4 105.3L492 68.8C496.6 65.7 502.2 64 507.8 64C514 64 520 66 525 69.7L556.6 93.4C579.7 110.8 582.1 144.6 561.7 165C543.7 183 514.8 183.5 496.1 166.6C464.3 198.4 422.4 240.3 370.5 292.2C379.3 299.2 387.8 303.9 393.3 304.1C401.5 304.3 408.9 301.9 416.2 299.5C430.4 294.9 443.7 290.5 460.2 307.2C476 323.1 476 348.9 460.2 364.8L438.6 386.6C429.8 395.5 418.9 400.6 408 405.6C397.1 410.6 386.3 415.6 377.7 424.4C361.1 441.2 354.2 463 347.2 484.9C340.2 506.9 333.2 529 316.2 546.2C276.8 586.1 212.7 586.1 173.3 546.2L93.5 465.3C54.2 425.6 54.2 361.3 93.5 321.6C110.4 304.5 132.3 297.4 154.1 290.2C175.7 283.1 197.3 276.1 213.9 259.4C223.1 250.1 228.6 238.6 234.2 227.1C239.8 215.5 245.4 203.8 254.8 194.3L284.7 164.1C300.6 148 326.5 148 342.4 164.1C362.9 184.8 354.6 200.5 345.7 217.2C341.6 225 337.3 233 335.8 241.9C334.5 249.1 339.9 259.4 347.9 269.6L416 201.4zM212.7 340.7C218.9 334.5 229.1 334.5 235.3 340.7L299.3 404.7C305.5 410.9 305.5 421.1 299.3 427.3C293.1 433.5 282.9 433.5 276.7 427.3L212.7 363.3C206.5 357.1 206.5 346.9 212.7 340.7zM164.7 388.7C170.9 382.5 181.1 382.5 187.3 388.7L251.3 452.7C257.5 458.9 257.5 469.1 251.3 475.3C245.1 481.5 234.9 481.5 228.7 475.3L164.7 411.3C158.5 405.1 158.5 394.9 164.7 388.7zM313.1 206.8C313.7 205.5 314.6 204.2 315.6 202.7C318.8 197.7 322.6 191.8 318.4 187.6C315.6 184.8 311.2 184.8 308.5 187.6L278.6 217.8C273.7 222.8 270.2 229.4 263.8 242.9C258.6 253.7 251 269.6 237.8 283C215.4 305.6 187 314.9 166.7 321.4L164.3 322.2C141.4 329.7 127.6 334.8 117.4 345.2C91.1 371.8 91.1 415 117.4 441.7L197.3 522.5C223.6 549.1 266.1 549.1 292.4 522.5C302.8 512 307.8 498 315.1 474.9L315.9 472.5C322.4 452 331.4 423.4 353.8 400.7C366.8 387.6 382.5 380.3 392.6 375.7C405.5 369.8 410.8 367 414.8 362.9L436.4 341.1C438.6 338.9 439 328 434.2 329.1C430.1 330.1 426.1 331.2 422.2 332.3C412.6 335.1 403.1 337.8 392.4 337.5C384.1 337.2 377 334.6 372.4 332.6C367.3 330.3 362.5 327.5 358.2 324.6C349.6 318.8 340.8 311.3 333.1 303.4C325.5 295.6 317.8 286.3 312.1 276.7C307.4 268.7 299.7 253.4 302.7 236C304.8 223.8 309.7 213.7 313.2 206.8z"/></svg>