<svg xmlns="http://www.w3.org/2000/svg" viewBox="0 0 640 640"><!--! Font Awesome Pro 7.1.0 by @fontawesome - https://fontawesome.com License - https://fontawesome.com/license (Commercial License) Copyright 2025 Fonticons, Inc. --><path fill="currentColor" d="M160 64C142.3 64 128 78.3 128 96L128 147.2C128 153.5 129.9 159.7 133.4 165L160 204.9L160 240.9C105.7 247 64 283.7 64 328C64 342 68.2 355.3 75.6 367.1C83.8 380.1 83.1 399 72.7 410.5C57.1 427.7 47.9 449 47.9 472C47.9 529.4 105.2 576 175.9 576C225.1 576 267.8 553.4 289.2 520.4C288.3 514.5 287.9 508.4 287.9 502.2C287.9 482.1 292.9 463.5 300.3 447.3C296.3 433.8 289 421.3 279.2 410.5C268.9 399.1 268.1 380.1 276.3 367.1C283.8 355.3 287.9 342 287.9 328C287.9 283.7 246.2 247 191.9 240.9L191.9 204.9L218.5 165C222 159.7 223.9 153.6 223.9 147.2L224 96C224 78.3 209.7 64 192 64L160 64zM160 273.1L160 338.8C141.4 345.4 128 363.2 128 384.1C128 410.6 149.5 432.1 176 432.1C202.5 432.1 224 410.6 224 384.1C224 363.2 210.6 345.4 192 338.8L192 273.1C233.6 278.8 256 306.5 256 328C256 335.5 253.8 342.9 249.3 350C234.2 373.9 234.6 408.8 255.5 432C266.4 444.1 272 457.9 272 472C272 505.9 235.5 544 176 544C116.5 544 80 505.9 80 472C80 457.9 85.6 444.1 96.5 432C117.4 408.8 117.8 374 102.7 350C98.2 342.9 96 335.5 96 328C96 306.4 118.4 278.8 160 273.1zM176 400C167.2 400 160 392.8 160 384C160 375.2 167.2 368 176 368C184.8 368 192 375.2 192 384C192 392.8 184.8 400 176 400zM192 147.2L176 171.2L160 147.2L160 96L192 96L192 147.2zM440.9 114.8C443.3 103.8 453 96 464.2 96L468 96C478.9 96 488 105 488 116.2C488 127.1 479.1 136 468.4 136C457.1 136 448 145.2 448 156.4L448 213.4L430.6 193.5C427.3 189.7 425.9 184.6 427 179.6L440.9 114.8zM406.5 214.6L448 262L448 303.5C420.1 300.4 398.4 280.8 391.6 252.2C389.7 244.3 382.2 239.1 374.2 240C366.2 240.9 360 247.9 360 256L360 296.6C360 309 364 320.6 368 332.1L368 332.1C372 343.7 376 355.5 376 368C376 401.6 359 438.9 347.2 460.9C340.3 473.6 336 487.8 336 502.2C336 543 369 576 409.8 576L518.2 576C559 576 592 543 592 502.2C592 487.7 587.7 473.6 580.8 460.9C569 438.9 552 401.6 552 368C552 355.4 556.1 343.6 560 332C564 320.5 568 308.9 568 296.5L568 271.9C568 263.8 561.9 257 553.9 256C545.9 255 544 255.9 536.5 268.2C523 290 501.3 301.3 480 303.6L480 166.7C503 161.4 520 140.6 520 116.2C520 87.6 496.8 64 468 64L464.2 64C437.9 64 415.1 82.4 409.6 108.1L395.7 173C392.5 187.8 396.5 203.3 406.5 214.7zM440 400C431.2 400 424 407.2 424 416C424 424.8 431.2 432 440 432L488 432C496.8 432 504 424.8 504 416C504 407.2 496.8 400 488 400L440 400zM440 464C431.2 464 424 471.2 424 480C424 488.8 431.2 496 440 496L488 496C496.8 496 504 488.8 504 480C504 471.2 496.8 464 488 464L440 464zM456 336L472 336C494.7 336 515.3 328.7 531.6 316.2C530.9 318.3 530.1 320.6 529.3 323.1C525.5 333.9 520 350 520 368.1C520 410.2 540.5 453.6 552.6 476.1C557.5 485.3 560 494.2 560 502.3C560 525.4 541.3 544.1 518.2 544.1L409.8 544.1C386.7 544.1 368 525.4 368 502.3C368 494.2 370.4 485.3 375.4 476.1C387.5 453.6 408 410.2 408 368.1C408 350 402.4 334 398.7 323.1C397.8 320.6 397 318.3 396.4 316.2C412.8 328.8 433.3 336 456 336z"/></svg>