<svg xmlns="http://www.w3.org/2000/svg" viewBox="0 0 640 640"><!--! Font Awesome Pro 7.1.0 by @fontawesome - https://fontawesome.com License - https://fontawesome.com/license (Commercial License) Copyright 2025 Fonticons, Inc. --><path fill="currentColor" d="M509.7 97C510.3 96.4 511.2 96 512 96C512.8 96 513.7 96.3 514.3 97L543 125.7C543.6 126.3 544 127.2 544 128C544 128.8 543.7 129.7 543 130.3L504 169.3L461.1 178.8L470.6 135.9L509.6 96.9zM440.4 124.5L425.4 192L389.9 227.5C338.2 184.6 269.9 179.5 231.6 217.9C219.6 229.9 211.9 244.7 208.2 261.1C204.1 279.2 187.4 294.6 168.8 295.6C140.9 297 115 307.3 95.4 326.8C46.5 375.7 55.7 464 115.8 524.2C175.9 584.4 264.3 593.5 313.2 544.6C332.8 525 343 499.1 344.5 471.2C345.4 452.7 360.9 435.9 379 431.8C395.4 428.1 410.2 420.4 422.2 408.4C460.5 370.1 455.5 301.8 412.6 250.1L448.1 214.6L515.6 199.6C518.6 198.9 521.3 197.4 523.4 195.3L565.7 153C572.3 146.4 576 137.4 576 128C576 118.6 572.3 109.7 565.7 103L537 74.3C530.3 67.7 521.4 64 512 64C502.6 64 493.7 67.7 487 74.3L444.7 116.7C442.5 118.9 441.1 121.6 440.4 124.5zM367.1 250.2L292.7 324.6C286.4 321.6 279.4 319.9 272 319.9C245.5 319.9 224 341.4 224 367.9C224 394.4 245.5 415.9 272 415.9C298.5 415.9 320 394.4 320 367.9C320 360.5 318.3 353.5 315.3 347.2L389.7 272.8C424.2 315.7 421.4 363.8 399.4 385.8C392.1 393.1 382.8 398.1 371.8 400.6C341.1 407.5 314.1 435.3 312.4 469.6C311.3 490.6 303.8 508.7 290.5 522C258.3 554.2 190.6 553.8 138.4 501.6C86.2 449.4 85.8 381.6 118 349.4C131.3 336.1 149.4 328.5 170.4 327.5C204.7 325.8 232.5 298.8 239.4 268.1C241.9 257.1 246.9 247.8 254.2 240.5C276.2 218.5 324.3 215.7 367.2 250.2zM272 352C280.8 352 288 359.2 288 368C288 376.8 280.8 384 272 384C263.2 384 256 376.8 256 368C256 359.2 263.2 352 272 352z"/></svg>