<svg xmlns="http://www.w3.org/2000/svg" viewBox="0 0 640 640"><!--! Font Awesome Pro 7.1.0 by @fontawesome - https://fontawesome.com License - https://fontawesome.com/license (Commercial License) Copyright 2025 Fonticons, Inc. --><path fill="currentColor" d="M59.3 36.8C53.1 30.6 42.9 30.6 36.7 36.8C30.5 43 30.5 53.2 36.7 59.4L580.7 603.4C586.9 609.6 597.1 609.6 603.3 603.4C609.5 597.2 609.5 587 603.3 580.8L326.5 304L473.4 304C481.9 304 490 300.6 496 294.6L518.6 272L576 272C593.7 272 608 257.7 608 240L608 160C608 142.3 593.7 128 576 128L544 128L544 112C544 103.2 536.8 96 528 96C519.2 96 512 103.2 512 112L512 128L150.5 128L59.3 36.8zM182.5 160L576 160L576 240L518.6 240C510.1 240 502 243.4 496 249.4L473.4 272L294.6 272L182.6 160zM32 160L32 272C32 289.7 46.3 304 64 304L74 304C94.8 304 110.1 323.6 105 343.8L65 504.2C62.6 513.8 64.8 523.9 70.8 531.7C76.8 539.5 86.1 544 96 544L208 544C222.7 544 235.5 534 239 519.8L277 367.6L250.6 341.2L207.9 512L95.9 512L136 351.5C140.3 334.5 137.3 317.7 129.3 304L213.3 304L181.3 272L63.8 272L63.8 160L69.3 160L44.1 134.8C36.8 140.7 32 149.8 32 160z"/></svg>