<svg xmlns="http://www.w3.org/2000/svg" viewBox="0 0 640 640"><!--! Font Awesome Pro 7.1.0 by @fontawesome - https://fontawesome.com License - https://fontawesome.com/license (Commercial License) Copyright 2025 Fonticons, Inc. --><path fill="currentColor" d="M160 112C160 103.2 152.8 96 144 96C135.2 96 128 103.2 128 112L128 128C75 128 32 171 32 224C32 271.3 66.3 310.7 111.4 318.6L65 504.2C62.6 513.8 64.8 523.9 70.8 531.7C76.8 539.5 86.1 544 96 544L200 544C214.7 544 227.5 534 231 519.8L256.9 416L319.9 416L319.9 432C319.9 440.8 327.1 448 335.9 448C344.7 448 351.9 440.8 351.9 432L351.9 368C351.9 359.2 344.7 352 335.9 352C327.1 352 319.9 359.2 319.9 368L319.9 384L264.9 384L280.9 320L479.9 320C515.5 320 546.5 300.7 563.1 272L567.9 272C590 272 607.9 254.1 607.9 232L607.9 216C607.9 193.9 590 176 567.9 176L563.1 176C546.6 147.3 515.6 128 480 128L160 128L160 112zM144 160L480 160C506.2 160 528.8 175.8 538.7 198.4C541.2 204.2 547 208 553.4 208L568.1 208C572.5 208 576.1 211.6 576.1 216L576.1 232C576.1 236.4 572.5 240 568.1 240L553.4 240C547 240 541.3 243.8 538.7 249.6C528.8 272.2 506.2 288 480 288L128 288C92.7 288 64 259.3 64 224C64 188.7 92.7 160 128 160L144 160zM128 208C119.2 208 112 215.2 112 224C112 232.8 119.2 240 128 240L480 240C488.8 240 496 232.8 496 224C496 215.2 488.8 208 480 208L128 208zM96 512L144 320L248 320L200 512L96 512z"/></svg>