<svg xmlns="http://www.w3.org/2000/svg" viewBox="0 0 640 640"><!--! Font Awesome Pro 7.1.0 by @fontawesome - https://fontawesome.com License - https://fontawesome.com/license (Commercial License) Copyright 2025 Fonticons, Inc. --><path fill="currentColor" d="M528 96C536.8 96 544 103.2 544 112L544 128L576 128C593.7 128 608 142.3 608 160L608 240C608 257.7 593.7 272 576 272L518.6 272L496 294.6C490 300.6 481.9 304 473.4 304L427.3 304L398.7 384.1C391.9 403.2 373.8 416 353.5 416L265 416L239 519.8C235.5 534 222.7 544 208 544L96 544C86.1 544 76.8 539.5 70.8 531.7C64.8 523.9 62.6 513.8 65 504.2L105.1 343.8C110.1 323.6 94.9 304 74.1 304L64.1 304C46.4 304 32.1 289.7 32.1 272L32 160C32 142.3 46.3 128 64 128L512 128L512 112C512 103.2 519.2 96 528 96zM273 384L353.5 384C360.3 384 366.3 379.8 368.6 373.4L393.4 304L293.1 304L273.1 384zM64 160L64 272L473.4 272L496 249.4C502 243.4 510.1 240 518.6 240L576 240L576 160L64 160zM260 304L129.5 304C137.5 317.7 140.4 334.5 136.2 351.5L96 512L208 512L260 304z"/></svg>