<svg xmlns="http://www.w3.org/2000/svg" viewBox="0 0 640 640"><!--! Font Awesome Pro 7.1.0 by @fontawesome - https://fontawesome.com License - https://fontawesome.com/license (Commercial License) Copyright 2025 Fonticons, Inc. --><path fill="currentColor" d="M160 128C142.3 128 128 142.3 128 160L128 480C128 497.7 142.3 512 160 512L480 512C497.7 512 512 497.7 512 480L512 160C512 142.3 497.7 128 480 128L160 128zM96 160C96 124.7 124.7 96 160 96L480 96C515.3 96 544 124.7 544 160L544 480C544 515.3 515.3 544 480 544L160 544C124.7 544 96 515.3 96 480L96 160zM400 240L400 400C400 408.8 392.8 416 384 416C375.2 416 368 408.8 368 400L368 336L272 336L272 400C272 408.8 264.8 416 256 416C247.2 416 240 408.8 240 400L240 240C240 231.2 247.2 224 256 224C264.8 224 272 231.2 272 240L272 304L368 304L368 240C368 231.2 375.2 224 384 224C392.8 224 400 231.2 400 240z"/></svg>