<svg xmlns="http://www.w3.org/2000/svg" viewBox="0 0 640 640"><!--! Font Awesome Pro 7.1.0 by @fontawesome - https://fontawesome.com License - https://fontawesome.com/license (Commercial License) Copyright 2025 Fonticons, Inc. --><path fill="currentColor" d="M480 320L480 528C480 536.8 487.2 544 496 544C504.8 544 512 536.8 512 528L512 112C512 103.2 504.8 96 496 96C487.2 96 480 103.2 480 112L480 288L160 288L160 112C160 103.2 152.8 96 144 96C135.2 96 128 103.2 128 112L128 528C128 536.8 135.2 544 144 544C152.8 544 160 536.8 160 528L160 320L480 320z"/></svg>