<svg xmlns="http://www.w3.org/2000/svg" viewBox="0 0 640 640"><!--! Font Awesome Pro 7.1.0 by @fontawesome - https://fontawesome.com License - https://fontawesome.com/license (Commercial License) Copyright 2025 Fonticons, Inc. --><path fill="currentColor" d="M96 144C96 135.2 88.8 128 80 128C71.2 128 64 135.2 64 144L64 496C64 504.8 71.2 512 80 512C88.8 512 96 504.8 96 496L96 336L288 336L288 496C288 504.8 295.2 512 304 512C312.8 512 320 504.8 320 496L320 144C320 135.2 312.8 128 304 128C295.2 128 288 135.2 288 144L288 304L96 304L96 144zM496 144C496 138.5 493.1 133.3 488.4 130.4C483.7 127.5 477.8 127.2 472.8 129.7L392.8 169.7C384.9 173.7 381.7 183.3 385.6 191.2C389.5 199.1 399.2 202.3 407.1 198.4L463.9 170L463.9 480.1L399.9 480.1C391.1 480.1 383.9 487.3 383.9 496.1C383.9 504.9 391.1 512.1 399.9 512.1L559.9 512.1C568.7 512.1 575.9 504.9 575.9 496.1C575.9 487.3 568.7 480.1 559.9 480.1L495.9 480.1L495.9 144.1z"/></svg>