<svg xmlns="http://www.w3.org/2000/svg" viewBox="0 0 640 640"><!--! Font Awesome Pro 7.1.0 by @fontawesome - https://fontawesome.com License - https://fontawesome.com/license (Commercial License) Copyright 2025 Fonticons, Inc. --><path fill="currentColor" d="M96 144C96 135.2 88.8 128 80 128C71.2 128 64 135.2 64 144L64 496C64 504.8 71.2 512 80 512C88.8 512 96 504.8 96 496L96 336L256 336L256 496C256 504.8 263.2 512 272 512C280.8 512 288 504.8 288 496L288 144C288 135.2 280.8 128 272 128C263.2 128 256 135.2 256 144L256 304L96 304L96 144zM384 128C375.2 128 368 135.2 368 144C368 152.8 375.2 160 384 160L492.3 160C525.2 160 552 186.7 552 219.7C552 241.3 540.3 261.2 521.5 271.8L425.7 325.5C380.2 350.9 352 398.9 352 451L352 496C352 504.8 359.2 512 368 512L560 512C568.8 512 576 504.8 576 496C576 487.2 568.8 480 560 480L384 480L384 451C384 410.5 405.9 373.1 441.3 353.3L537.1 299.6C566 283.4 584 252.8 584 219.6C584 169 543 127.9 492.3 127.9L384 128z"/></svg>