<svg xmlns="http://www.w3.org/2000/svg" viewBox="0 0 640 640"><!--! Font Awesome Pro 7.1.0 by @fontawesome - https://fontawesome.com License - https://fontawesome.com/license (Commercial License) Copyright 2025 Fonticons, Inc. --><path fill="currentColor" d="M96 144C96 135.2 88.8 128 80 128C71.2 128 64 135.2 64 144L64 496C64 504.8 71.2 512 80 512C88.8 512 96 504.8 96 496L96 336L256 336L256 496C256 504.8 263.2 512 272 512C280.8 512 288 504.8 288 496L288 144C288 135.2 280.8 128 272 128C263.2 128 256 135.2 256 144L256 304L96 304L96 144zM384 320C384 328.8 391.2 336 400 336L480 336C519.8 336 552 368.2 552 408C552 447.8 519.8 480 480 480L368 480C359.2 480 352 487.2 352 496C352 504.8 359.2 512 368 512L480 512C537.4 512 584 465.4 584 408C584 370.9 564.6 338.4 535.4 320C564.6 301.6 584 269.1 584 232C584 174.6 537.4 128 480 128L368 128C359.2 128 352 135.2 352 144C352 152.8 359.2 160 368 160L480 160C519.8 160 552 192.2 552 232C552 271.8 519.8 304 480 304L400 304C391.2 304 384 311.2 384 320z"/></svg>