<svg xmlns="http://www.w3.org/2000/svg" viewBox="0 0 640 640"><!--! Font Awesome Pro 7.1.0 by @fontawesome - https://fontawesome.com License - https://fontawesome.com/license (Commercial License) Copyright 2025 Fonticons, Inc. --><path fill="currentColor" d="M96 144C96 135.2 88.8 128 80 128C71.2 128 64 135.2 64 144L64 496C64 504.8 71.2 512 80 512C88.8 512 96 504.8 96 496L96 336L256 336L256 496C256 504.8 263.2 512 272 512C280.8 512 288 504.8 288 496L288 144C288 135.2 280.8 128 272 128C263.2 128 256 135.2 256 144L256 304L96 304L96 144zM384 144C384 135.2 376.8 128 368 128C359.2 128 352 135.2 352 144L352 272C352 316.2 387.8 352 432 352L544 352L544 496C544 504.8 551.2 512 560 512C568.8 512 576 504.8 576 496L576 144C576 135.2 568.8 128 560 128C551.2 128 544 135.2 544 144L544 320L432 320C405.5 320 384 298.5 384 272L384 144z"/></svg>