<svg xmlns="http://www.w3.org/2000/svg" viewBox="0 0 640 640"><!--! Font Awesome Pro 7.1.0 by @fontawesome - https://fontawesome.com License - https://fontawesome.com/license (Commercial License) Copyright 2025 Fonticons, Inc. --><path fill="currentColor" d="M96 144C96 135.2 88.8 128 80 128C71.2 128 64 135.2 64 144L64 496C64 504.8 71.2 512 80 512C88.8 512 96 504.8 96 496L96 336L256 336L256 496C256 504.8 263.2 512 272 512C280.8 512 288 504.8 288 496L288 144C288 135.2 280.8 128 272 128C263.2 128 256 135.2 256 144L256 304L96 304L96 144zM368 128C359.2 128 352 135.2 352 144L352 304C352 312.8 359.2 320 368 320L472 320C516.2 320 552 355.8 552 400C552 444.2 516.2 480 472 480L368 480C359.2 480 352 487.2 352 496C352 504.8 359.2 512 368 512L472 512C533.9 512 584 461.9 584 400C584 338.1 533.9 288 472 288L384 288L384 160L552 160C560.8 160 568 152.8 568 144C568 135.2 560.8 128 552 128L368 128z"/></svg>