<svg xmlns="http://www.w3.org/2000/svg" viewBox="0 0 640 640"><!--! Font Awesome Pro 7.1.0 by @fontawesome - https://fontawesome.com License - https://fontawesome.com/license (Commercial License) Copyright 2025 Fonticons, Inc. --><path fill="currentColor" d="M80 128C88.8 128 96 135.2 96 144L96 304L256 304L256 144C256 135.2 263.2 128 272 128C280.8 128 288 135.2 288 144L288 496C288 504.8 280.8 512 272 512C263.2 512 256 504.8 256 496L256 336L96 336L96 496C96 504.8 88.8 512 80 512C71.2 512 64 504.8 64 496L64 144C64 135.2 71.2 128 80 128zM448 160C412.7 160 384 188.7 384 224L384 296.4C401 281.2 423.4 272 448 272L480 272C533 272 576 315 576 368L576 416C576 469 533 512 480 512L448 512C395 512 352 469 352 416L352 224C352 171 395 128 448 128L528 128C536.8 128 544 135.2 544 144C544 152.8 536.8 160 528 160L448 160zM384 368L384 416C384 451.3 412.7 480 448 480L480 480C515.3 480 544 451.3 544 416L544 368C544 332.7 515.3 304 480 304L448 304C412.7 304 384 332.7 384 368z"/></svg>