<svg xmlns="http://www.w3.org/2000/svg" viewBox="0 0 640 640"><!--! Font Awesome Pro 7.1.0 by @fontawesome - https://fontawesome.com License - https://fontawesome.com/license (Commercial License) Copyright 2025 Fonticons, Inc. --><path fill="currentColor" d="M128 464C128 490.5 149.5 512 176 512L464 512C490.5 512 512 490.5 512 464L128 464zM128 272L512 272L512 266C512 251.7 509.8 240.4 505.1 231.8C486 196.8 434.8 128 320 128C205.2 128 154 196.7 134.9 231.8C130.2 240.4 128 251.6 128 266L128 272zM96 464C96 446.3 110.3 432 128 432L512 432C529.7 432 544 446.3 544 464C544 508.2 508.2 544 464 544L176 544C131.8 544 96 508.2 96 464zM128 304C110.3 304 96 289.7 96 272L96 266C96 248.8 98.6 231.6 106.8 216.5C129 175.6 189.1 96 320 96C450.9 96 511 175.6 533.2 216.5C541.4 231.6 544 248.8 544 266L544 272C544 289.7 529.7 304 512 304L128 304zM64 368C64 359.2 71.2 352 80 352L560 352C568.8 352 576 359.2 576 368C576 376.8 568.8 384 560 384L80 384C71.2 384 64 376.8 64 368zM320 156C331 156 340 165 340 176C340 187 331 196 320 196C309 196 300 187 300 176C300 165 309 156 320 156zM204 208C204 197 213 188 224 188C235 188 244 197 244 208C244 219 235 228 224 228C213 228 204 219 204 208zM416 188C427 188 436 197 436 208C436 219 427 228 416 228C405 228 396 219 396 208C396 197 405 188 416 188z"/></svg>