<svg xmlns="http://www.w3.org/2000/svg" viewBox="0 0 640 640"><!--! Font Awesome Pro 7.1.0 by @fontawesome - https://fontawesome.com License - https://fontawesome.com/license (Commercial License) Copyright 2025 Fonticons, Inc. --><path fill="currentColor" d="M448.2 32C448.2 23.2 441 16 432.2 16C423.4 16 416.2 23.2 416.2 32L416.2 80C416.2 88.8 423.4 96 432.2 96C441 96 448.2 88.8 448.2 80L448.2 32zM432.2 320C423.4 320 416.2 327.2 416.2 336L416.2 384C416.2 392.8 423.4 400 432.2 400C441 400 448.2 392.8 448.2 384L448.2 336C448.2 327.2 441 320 432.2 320zM624.2 208C624.2 199.2 617 192 608.2 192L560.2 192C551.4 192 544.2 199.2 544.2 208C544.2 216.8 551.4 224 560.2 224L608.2 224C617 224 624.2 216.8 624.2 208zM568 72.2C561.8 66 551.6 66 545.4 72.2L511.4 106.2C505.2 112.4 505.2 122.6 511.4 128.8C517.6 135 527.8 135 534 128.8L568 94.9C574.2 88.7 574.2 78.5 568 72.3zM534 287.2C527.8 281 517.6 281 511.4 287.2C505.2 293.4 505.2 303.6 511.4 309.8L545.3 343.7C551.5 349.9 561.7 349.9 567.9 343.7C574.1 337.5 574.1 327.3 567.9 321.1L534 287.2zM64.1 205.3L141.4 128L336.1 128L336.1 288L64.1 288L64.1 205.3zM32.1 205.3L32.1 288C32.1 305.7 46.4 320 64.1 320L208.1 320L208.1 592C208.1 600.8 215.3 608 224.1 608C232.9 608 240.1 600.8 240.1 592L240.1 320L336.1 320C353.8 320 368.1 305.7 368.1 288L368.1 128C368.1 110.3 353.8 96 336.1 96L141.3 96C132.8 96 124.7 99.4 118.7 105.4L41.5 182.6C35.5 188.6 32.1 196.7 32.1 205.2z"/></svg>