<svg xmlns="http://www.w3.org/2000/svg" viewBox="0 0 640 640"><!--! Font Awesome Pro 7.1.0 by @fontawesome - https://fontawesome.com License - https://fontawesome.com/license (Commercial License) Copyright 2025 Fonticons, Inc. --><path fill="currentColor" d="M128 48C57.3 48 0 105.3 0 176L0 192C0 196.2 1.7 200.3 4.7 203.3C7.7 206.3 11.8 208 16 208L91.6 208L112 220.3L112 512C112 547.3 140.7 576 176 576C211.3 576 240 547.3 240 512L240 220.3L260.4 208L320 208L320 208C320 216.8 327.2 224 336 224C344.8 224 352 216.8 352 208L352 80C352 71.2 344.8 64 336 64C327.2 64 320 71.2 320 80L262.6 80L254 71.4C239 56.4 218.6 48 197.4 48L128 48zM144 512L144 231.4C147.2 231.8 150.5 232 153.7 232L198.2 232C201.5 232 204.7 231.8 207.9 231.4L208 512C208 529.7 193.7 544 176 544C158.3 544 144 529.7 144 512zM320 112L320 176L256 176C253.1 176 250.3 176.8 247.8 178.3L223 193.2C215.5 197.7 207 200 198.3 200L153.8 200C145.1 200 136.6 197.6 129.1 193.2L104.3 178.3C101.8 176.8 99 176 96.1 176L32.1 176L32.1 176C32.1 123 75.1 80 128.1 80L197.6 80C210.3 80 222.5 85.1 231.5 94.1L244.8 107.4C247.8 110.4 251.9 112.1 256.1 112.1L320.1 112.1zM432 128C432 110.3 446.3 96 464 96C481.7 96 496 110.3 496 128L496 272C496 276.5 497.9 280.9 501.3 283.9L560.1 336.8C564.9 341.1 568.7 346.3 571.4 352L356.6 352C359.3 346.3 363.1 341.1 367.9 336.8L426.7 283.9C430.1 280.9 432 276.5 432 272L432 128zM352 528L352 384L576 384L576 528C576 536.8 568.8 544 560 544L448 544L448 496C448 487.2 440.8 480 432 480C423.2 480 416 487.2 416 496L416 544L368 544C359.2 544 352 536.8 352 528zM464 64C428.7 64 400 92.7 400 128L400 264.9L346.5 313.1C329.6 328.3 320 349.9 320 372.6L320 528C320 554.5 341.5 576 368 576L560 576C586.5 576 608 554.5 608 528L608 372.5C608 349.8 598.4 328.2 581.5 313L528 264.9L528 128C528 92.7 499.3 64 464 64z"/></svg>