<svg xmlns="http://www.w3.org/2000/svg" viewBox="0 0 640 640"><!--! Font Awesome Pro 7.1.0 by @fontawesome - https://fontawesome.com License - https://fontawesome.com/license (Commercial License) Copyright 2025 Fonticons, Inc. --><path fill="currentColor" d="M320 64C328.8 64 336 71.2 336 80L336 125.7L507.5 101.2C526.8 98.5 544 113.4 544 132.9L544 331.1C544 350.6 526.8 365.5 507.5 362.8L336 338.3L336 592C336 600.8 328.8 608 320 608C311.2 608 304 600.8 304 592L304 338.3L132.5 362.8C113.2 365.5 96 350.6 96 331.1L96 132.9C96 113.4 113.2 98.5 132.5 101.2L304 125.7L304 80C304 71.2 311.2 64 320 64zM512 331.1L512 132.9L324.5 159.7C321.5 160.1 318.5 160.1 315.4 159.7L128 132.9L128 331.1L315.5 304.3C318.5 303.9 321.5 303.9 324.6 304.3L512 331.1z"/></svg>