<svg xmlns="http://www.w3.org/2000/svg" viewBox="0 0 640 640"><!--! Font Awesome Pro 7.1.0 by @fontawesome - https://fontawesome.com License - https://fontawesome.com/license (Commercial License) Copyright 2025 Fonticons, Inc. --><path fill="currentColor" d="M320 96C337.7 96 352 110.3 352 128L352 272C352 280.8 359.2 288 368 288C376.8 288 384 280.8 384 272L384 160C384 142.3 398.3 128 416 128C433.7 128 448 142.3 448 160L448 336C448 344.8 455.2 352 464 352L514.7 352C530.9 352 544 365.1 544 381.3C544 389.1 540.9 396.5 535.4 402L445.2 492.2C412 525.3 367 544 320 544C273 544 228 525.3 194.7 492.1L104.6 401.9C99.1 396.5 96 389 96 381.3C96 365.1 109.1 352 125.3 352L176 352C184.8 352 192 344.8 192 336L192 160C192 142.3 206.3 128 224 128C241.7 128 256 142.3 256 160L256 272C256 280.8 263.2 288 272 288C280.8 288 288 280.8 288 272L288 128C288 110.3 302.3 96 320 96zM320 64C292.1 64 268.3 81.9 259.6 106.8C249.4 100 237.2 96 224 96C188.7 96 160 124.7 160 160L160 320L125.3 320C91.4 320 64 347.4 64 381.3C64 397.5 70.5 413.1 81.9 424.6L172.1 514.8C211.3 554 264.5 576 320 576C375.5 576 428.7 554 467.9 514.7L558.1 424.5C569.6 413 576 397.4 576 381.2C576 347.4 548.6 319.9 514.7 319.9L480 319.9L480 159.9C480 124.6 451.3 95.9 416 95.9C402.8 95.9 390.6 99.9 380.4 106.7C371.7 81.8 347.9 63.9 320 63.9zM240.9 413.3C247.4 406.6 259.6 394.9 274.4 385.1C289.5 375 305.5 368.1 320 368.1C334.5 368.1 350.5 375 365.6 385.1C380.4 395 392.6 406.6 399.1 413.3C399.5 413.8 400 414.6 400 416C400 417.4 399.5 418.3 399.1 418.7C392.6 425.4 380.4 437.1 365.6 446.9C350.5 457 334.5 463.9 320 463.9C305.5 463.9 289.5 457 274.4 446.9C259.6 437 247.4 425.4 240.9 418.7C240.5 418.2 240 417.4 240 416C240 414.6 240.5 413.7 240.9 413.3zM320 336C296.2 336 273.8 347 256.6 358.4C239.2 370 225.2 383.5 217.9 391.1C211.2 398.1 208 407.2 208 416.1C208 425 211.2 434.1 217.9 441.1C225.2 448.7 239.2 462.1 256.6 473.8C273.7 485.2 296.1 496.2 320 496.2C343.9 496.2 366.2 485.2 383.4 473.8C400.8 462.2 414.8 448.7 422.1 441.1C428.8 434.1 432 425 432 416.1C432 407.2 428.8 398.1 422.1 391.1C414.8 383.5 400.8 370.1 383.4 358.4C366.3 347 343.9 336 320 336zM320 440C333.3 440 344 429.3 344 416C344 402.7 333.3 392 320 392C306.7 392 296 402.7 296 416C296 429.3 306.7 440 320 440z"/></svg>