<svg xmlns="http://www.w3.org/2000/svg" viewBox="0 0 640 640"><!--! Font Awesome Pro 7.1.0 by @fontawesome - https://fontawesome.com License - https://fontawesome.com/license (Commercial License) Copyright 2025 Fonticons, Inc. --><path fill="currentColor" d="M240 96L240 192C240 197.5 242.9 202.7 247.6 205.6C252.3 208.5 258.2 208.8 263.2 206.3L320 177.9L376.8 206.3C381.8 208.8 387.7 208.5 392.4 205.6C397.1 202.7 400 197.5 400 192L400 96L432 96C440.8 96 448 103.2 448 112L448 272C448 280.8 440.8 288 432 288L208 288C199.2 288 192 280.8 192 272L192 112C192 103.2 199.2 96 208 96L240 96zM256 64L208 64C181.5 64 160 85.5 160 112L160 272C160 298.5 181.5 320 208 320L432 320C458.5 320 480 298.5 480 272L480 112C480 85.5 458.5 64 432 64L256 64zM272 96L368 96L368 166.1L327.2 145.7C322.7 143.4 317.4 143.4 312.9 145.7L272 166.1L272 96zM227.4 368C211.6 368 196.2 372.7 183 381.4L107.2 432L48 432C39.2 432 32 439.2 32 448C32 456.8 39.2 464 48 464L112 464C115.2 464 118.2 463.1 120.9 461.3L200.8 408C208.7 402.7 217.9 399.9 227.4 399.9L376 400C389.3 400 400 410.7 400 424C400 437.3 389.3 448 376 448L288 448C279.2 448 272 455.2 272 464C272 472.8 279.2 480 288 480L436.6 480C439.5 480 442.3 479.2 444.8 477.7L543.3 419C546.7 417 550.5 416 554.4 416L555.7 416C566.9 416 576 425.1 576 436.3C576 443.2 572.5 449.6 566.8 453.3L447.1 531.1C434.1 539.5 419 544 403.5 544L48 544C39.2 544 32 551.2 32 560C32 568.8 39.2 576 48 576L403.5 576C425.2 576 446.4 569.7 464.5 557.9L584.1 480.1C598.9 470.5 607.9 454 607.9 436.3C607.9 407.4 584.5 384 555.6 384L554.3 384C544.6 384 535.2 386.6 526.8 391.6L432.1 448L426.5 448C430 440.7 431.9 432.6 431.9 424C431.9 393.1 406.8 368 375.9 368L227.3 368z"/></svg>