<svg xmlns="http://www.w3.org/2000/svg" viewBox="0 0 640 640"><!--! Font Awesome Pro 7.1.0 by @fontawesome - https://fontawesome.com License - https://fontawesome.com/license (Commercial License) Copyright 2025 Fonticons, Inc. --><path fill="currentColor" d="M520 192C533.3 192 544 202.7 544 216C544 229.3 533.3 240 520 240L336 240L336 208C336 202.5 335.4 197.2 334.4 192L520 192zM304 240L304 240L304 272L304 272L304 296C304 309.2 293.3 320 280 320L280 320C266.7 320 256 309.3 256 296L256 240C256 231.2 248.8 224 240 224C231.2 224 224 231.2 224 240L224 296C224 311.7 230.4 325.8 240.8 336C230.4 346.2 224 360.3 224 376C224 389.8 229 402.4 237.2 412.1C224.3 422.4 216 438.2 216 456C216 464.6 217.9 472.7 221.4 480C151.9 478.6 96 421.8 96 352L96 288C96 217.3 153.3 160 224 160L256 160C282.5 160 304 181.5 304 208L304 240zM336 272L376 272C389.3 272 400 282.7 400 296C400 309.3 389.3 320 376 320L330.6 320C334.1 312.7 336 304.6 336 296L336 272zM426.6 272L520 272C550.9 272 576 246.9 576 216C576 185.1 550.9 160 520 160L320 160C305.4 140.6 282.2 128 256 128L224 128C135.6 128 64 199.6 64 288L64 352C64 440.4 135.6 512 224 512L328 512C358.9 512 384 486.9 384 456C384 443.9 380.2 432.7 373.6 423.5C389.4 413.6 400 396 400 376C400 366.3 397.5 357.2 393.2 349.3C415.7 342 432 320.9 432 296C432 287.4 430.1 279.3 426.6 272zM304 352L344 352C357.2 352 368 362.8 368 376C368 389.3 357.3 400 344 400L280 400C266.7 400 256 389.3 256 376C256 362.7 266.7 352 280 352L304 352zM304 480L272 480C258.7 480 248 469.3 248 456C248 442.7 258.7 432 272 432L328 432C341.3 432 352 442.7 352 456C352 469.3 341.3 480 328 480L304 480z"/></svg>