<svg xmlns="http://www.w3.org/2000/svg" viewBox="0 0 640 640"><!--! Font Awesome Pro 7.1.0 by @fontawesome - https://fontawesome.com License - https://fontawesome.com/license (Commercial License) Copyright 2025 Fonticons, Inc. --><path fill="currentColor" d="M192 168C192 202.6 213.2 234.5 247.8 253.8C252.9 256.6 256 262 256 267.8L256 288C256 296.8 263.2 304 272 304L368 304C376.8 304 384 296.8 384 288L384 267.8C384 262 387.1 256.7 392.2 253.8C426.8 234.5 448 202.6 448 168C448 113.2 393.5 64 320 64C246.5 64 192 113.2 192 168zM320 32C405.5 32 480 90.3 480 168C480 213.4 454.1 252.6 416 276.9L416 288C416 314.5 394.5 336 368 336L272 336C245.5 336 224 314.5 224 288L224 276.9C185.9 252.6 160 213.4 160 168C160 90.3 234.5 32 320 32zM272 144C289.7 144 304 158.3 304 176C304 193.7 289.7 208 272 208C254.3 208 240 193.7 240 176C240 158.3 254.3 144 272 144zM336 176C336 158.3 350.3 144 368 144C385.7 144 400 158.3 400 176C400 193.7 385.7 208 368 208C350.3 208 336 193.7 336 176zM183 381.4C196.1 372.6 211.6 368 227.4 368L376 368C406.9 368 432 393.1 432 424C432 432.6 430.1 440.7 426.6 448L432.2 448L526.9 391.6C535.2 386.7 544.7 384 554.4 384L555.7 384C584.6 384 608 407.4 608 436.3C608 454 599 470.5 584.2 480.1L464.6 557.9C446.4 569.7 425.2 576 403.6 576L48 576C39.2 576 32 568.8 32 560C32 551.2 39.2 544 48 544L403.5 544C419 544 434.1 539.5 447.1 531.1L566.7 453.3C572.5 449.6 575.9 443.1 575.9 436.3C575.9 425.1 566.8 416 555.6 416L554.3 416C550.4 416 546.6 417.1 543.2 419L444.7 477.7C442.2 479.2 439.4 480 436.5 480L288 480C279.2 480 272 472.8 272 464C272 455.2 279.2 448 288 448L376 448C389.3 448 400 437.3 400 424C400 410.7 389.3 400 376 400L227.4 400C217.9 400 208.7 402.8 200.8 408.1L120.9 461.3C118.3 463.1 115.2 464 112 464L48 464C39.2 464 32 456.8 32 448C32 439.2 39.2 432 48 432L107.2 432L183 381.4z"/></svg>