<svg xmlns="http://www.w3.org/2000/svg" viewBox="0 0 640 640"><!--! Font Awesome Pro 7.1.0 by @fontawesome - https://fontawesome.com License - https://fontawesome.com/license (Commercial License) Copyright 2025 Fonticons, Inc. --><path fill="currentColor" d="M106.8 67.4C144.7 55.4 185.2 76.5 197.1 114.4L215.2 171.6C218.1 180.8 220.3 190.1 221.8 199.6C230.7 194.7 240.8 192.1 251.2 192.1C285 192.1 312.4 219.5 312.4 253.3C312.4 254.3 312.3 255.2 312.2 256.2C313.2 256.2 314.1 256.1 315.1 256.1C348.9 256.1 376.3 283.5 376.4 317.3C376.4 318.3 376.3 319.2 376.2 320.2C377.2 320.2 378.1 320.1 379.1 320.1C406.9 320.1 430.3 338.6 437.8 364L487.8 314.1C499.3 302.6 514.9 296.2 531.1 296.2C564.9 296.2 592.3 323.6 592.4 357.5C592.4 373.7 585.9 389.3 574.5 400.8L465.1 510C425.5 549.6 372.6 573 317 575.7L305.8 576C181.4 576 80.5 475.1 80.5 350.7L80.5 231.7C80.5 226 79.6 220.3 77.9 214.9L59.8 157.7C47.8 119.8 68.9 79.3 106.8 67.4zM166.6 124C159.9 102.9 137.4 91.3 116.4 97.9C95.4 104.6 83.7 127.1 90.3 148.1L108.4 205.3C111.1 213.8 112.5 222.8 112.5 231.8L112.5 350.8L112.7 360.7C117.9 462.8 202.4 544 305.8 544L315.4 543.8C363.2 541.4 408.5 521.4 442.5 487.4L551.9 378C557.4 372.5 560.5 365.1 560.5 357.3C560.5 341.1 547.4 328.1 531.2 328C523.4 328 516 331.1 510.5 336.6C441.1 405.9 399.3 447.8 385 462.1C373.5 473.6 357.9 480 341.7 480C311.3 480 286.1 457.8 281.3 428.7C275 430.8 268.4 432 261.7 432C227.9 432 200.5 404.6 200.5 370.7C200.5 363.9 201.7 357.3 203.8 351C174.7 346.2 152.5 321.1 152.5 290.7C152.5 274.5 159 258.9 170.4 247.4L192.3 225.4C191.7 210.4 189.2 195.4 184.6 181.1L166.6 124zM379.2 352C371.4 352 364 355.1 358.5 360.6L321 398.1C315.5 403.6 312.4 411 312.4 418.8C312.4 435 325.5 448 341.6 448.1C349.4 448.1 356.8 445 362.3 439.5L399.8 402C405.3 396.5 408.4 389.1 408.4 381.3C408.4 365.1 395.3 352.1 379.1 352.1zM315.2 288C307.4 288 300 291.1 294.5 296.6L241 350.1C235.5 355.6 232.4 363 232.4 370.8C232.4 387 245.5 400 261.6 400.1C269.4 400.1 276.8 397 282.3 391.5L335.8 338C341.3 332.5 344.4 325.1 344.4 317.3C344.4 301.1 331.3 288.1 315.1 288.1zM251.2 224C243.4 224 236 227.1 230.5 232.6L193 270.1C187.5 275.6 184.4 283 184.4 290.8C184.4 307 197.5 320 213.6 320.1C221.4 320.1 228.8 317 234.3 311.5L271.8 274C277.3 268.5 280.4 261.1 280.4 253.3C280.4 237.1 267.3 224.1 251.2 224.1z"/></svg>