<svg xmlns="http://www.w3.org/2000/svg" viewBox="0 0 640 640"><!--! Font Awesome Pro 7.1.0 by @fontawesome - https://fontawesome.com License - https://fontawesome.com/license (Commercial License) Copyright 2025 Fonticons, Inc. --><path fill="currentColor" d="M216 96C229.3 96 240 106.7 240 120L240 304L208 304C202.5 304 197.2 304.6 192 305.6L192 120C192 106.7 202.7 96 216 96zM272 213.4L272 120C272 89.1 246.9 64 216 64C185.1 64 160 89.1 160 120L160 320C140.6 334.6 128 357.8 128 384L128 416C128 504.4 199.6 576 288 576L352 576C440.4 576 512 504.4 512 416L512 184C512 153.1 486.9 128 456 128C425.1 128 400 153.1 400 184L400 245.4C392.7 241.9 384.6 240 376 240C366.3 240 357.2 242.5 349.3 246.8C342 224.3 320.9 208 296 208C287.4 208 279.3 209.9 272 213.4zM272 264C272 250.7 282.7 240 296 240C309.3 240 320 250.7 320 264L320 309.4C312.7 305.9 304.6 304 296 304L272 304L272 264zM352 336L352 296C352 282.8 362.8 272 376 272C389.3 272 400 282.7 400 296L400 360C400 373.3 389.3 384 376 384C362.7 384 352 373.3 352 360L352 336zM240 336L296 336C309.2 336 320 346.7 320 360L320 360C320 373.3 309.3 384 296 384L240 384C231.2 384 224 391.2 224 400C224 408.8 231.2 416 240 416L296 416C311.7 416 325.8 409.6 336 399.2C346.2 409.6 360.3 416 376 416C406.9 416 432 390.9 432 360L432 184C432 170.7 442.7 160 456 160C469.3 160 480 170.7 480 184L480 416C480 486.7 422.7 544 352 544L288 544C217.3 544 160 486.7 160 416L160 384C160 357.5 181.5 336 208 336L240 336z"/></svg>