<svg xmlns="http://www.w3.org/2000/svg" viewBox="0 0 640 640"><!--! Font Awesome Pro 7.1.0 by @fontawesome - https://fontawesome.com License - https://fontawesome.com/license (Commercial License) Copyright 2025 Fonticons, Inc. --><path fill="currentColor" d="M418.3 159.8C427 158.6 433.1 150.4 431.9 141.7L430.7 133.2C425.7 98 398 70.3 362.8 65.3L354.3 64.2C345.6 63 337.4 69 336.2 77.8C335 86.6 341 94.7 349.8 95.9L358.3 97.1C379.4 100.1 396 116.7 399 137.8L400.2 146.3C401.5 155 409.6 161.1 418.3 159.9zM77.7 432.2C69 433.4 62.9 441.5 64.2 450.3L65.4 458.8C70.4 494 98.1 521.7 133.3 526.7L141.8 527.9C150.5 529.2 158.7 523.1 159.9 514.3C161.1 505.5 155 497.4 146.3 496.2L137.8 495C116.7 492 100.1 475.4 97.1 454.3L95.9 445.8C94.7 437.1 86.5 431 77.8 432.2zM214.4 126.4C193.4 115.6 166.9 119.1 149.3 136.7C131.7 154.3 128.3 180.8 139 201.8C130.3 204.4 122.2 209.1 115.3 215.9C93.4 237.8 93.4 273.2 115.3 295.1L124.8 304.6C117.2 307.3 110 311.7 103.9 317.8C82.1 339.6 82 375 103.7 396.9L226.9 521.1C261.7 556.2 309.2 576 358.6 576C461 576 544 493 544 390.6L544 376L544 215.9C544 185 518.9 159.9 488 159.9C457.1 159.9 432 185 432 215.9L432 226.9L307.7 102.6C285.8 80.7 250.4 80.7 228.5 102.6C221.7 109.4 217 117.6 214.4 126.3zM172 159.3C181.4 149.9 196.6 149.9 205.9 159.3L214.7 168.1L214.8 168.2L351.9 305.3C358.1 311.5 368.3 311.5 374.5 305.3C380.7 299.1 380.7 288.9 374.5 282.7L251 159.2L250.9 159.1C241.6 149.7 241.6 134.6 251 125.2C260.4 115.8 275.6 115.8 284.9 125.2L436.7 276.9C441.3 281.5 448.2 282.8 454.1 280.4C460 278 464 272.1 464 265.6L464 216C464 202.7 474.7 192 488 192C501.3 192 512 202.7 512 216L512 376L512 390.6C512 475.3 443.3 544 358.6 544C317.7 544 278.5 527.6 249.6 498.6L126.6 374.3C117.3 364.9 117.3 349.7 126.7 340.3C136.1 330.9 151.4 330.9 160.8 340.3L196.8 376.3L196.9 376.4L239 418.5C245.2 424.7 255.4 424.7 261.6 418.5C267.8 412.3 267.8 402.1 261.6 395.9C234.6 369 204 338.4 169.6 304L169.5 303.9L138 272.4C128.6 263 128.6 247.8 138 238.5C147.3 229.2 162.4 229.1 171.8 238.4L295.4 361.9C301.6 368.1 311.8 368.1 318 361.9C324.2 355.7 324.2 345.5 318 339.3L271.5 292.8L271.4 292.7L171.9 193.2C162.5 183.8 162.5 168.6 171.9 159.3z"/></svg>