<svg xmlns="http://www.w3.org/2000/svg" viewBox="0 0 640 640"><!--! Font Awesome Pro 7.1.0 by @fontawesome - https://fontawesome.com License - https://fontawesome.com/license (Commercial License) Copyright 2025 Fonticons, Inc. --><path fill="currentColor" d="M248.5 96C261.8 96 272.5 106.7 272.5 120L272.5 360C272.5 390.9 297.6 416 328.5 416C344.2 416 358.3 409.6 368.5 399.2C378.7 409.6 392.8 416 408.5 416C439.4 416 464.5 390.9 464.5 360L464.5 184C464.5 170.7 475.2 160 488.5 160C501.8 160 512.5 170.7 512.5 184L512.5 400C512.5 479.5 448 544 368.5 544L360 544C302.7 544 247.8 521.2 207.3 480.7L103.5 377C94.1 367.6 94.1 352.4 103.5 343.1C112.9 333.8 128.1 333.7 137.4 343.1L197.1 402.8C201.7 407.4 208.6 408.7 214.5 406.3C220.4 403.9 224.4 398 224.4 391.5L224.4 120.1C224.4 106.8 235.1 96.1 248.4 96.1zM352.5 360C352.5 373.3 341.8 384 328.5 384C315.2 384 304.5 373.3 304.5 360L304.5 263.9C304.5 250.7 315.3 240 328.5 240C341.8 240 352.5 250.7 352.5 264L352.5 360zM384.5 296C384.5 282.7 395.2 272 408.5 272C421.8 272 432.5 282.7 432.5 296L432.5 360C432.5 373.3 421.8 384 408.5 384C395.2 384 384.5 373.3 384.5 360L384.5 296zM432.5 245.4C425.2 241.9 417.1 240 408.5 240C398.8 240 389.7 242.5 381.8 246.8C374.5 224.3 353.4 208 328.5 208C319.9 208 311.8 209.9 304.5 213.4L304.5 120C304.5 89.1 279.4 64 248.5 64C217.6 64 192.5 89.1 192.5 120L192.5 352.8L160.1 320.4C138.2 298.5 102.8 298.5 80.9 320.4C59 342.3 59 377.7 80.9 399.6L184.7 503.4C231.2 549.9 294.3 576 360 576L368.5 576C465.7 576 544.5 497.2 544.5 400L544.5 184C544.5 153.1 519.4 128 488.5 128C457.6 128 432.5 153.1 432.5 184L432.5 245.4z"/></svg>