<svg xmlns="http://www.w3.org/2000/svg" viewBox="0 0 640 640"><!--! Font Awesome Pro 7.1.0 by @fontawesome - https://fontawesome.com License - https://fontawesome.com/license (Commercial License) Copyright 2025 Fonticons, Inc. --><path fill="currentColor" d="M192 448C174.3 448 160 462.3 160 480L160 544C160 561.7 174.3 576 192 576L448 576C465.7 576 480 561.7 480 544L480 480C480 462.3 465.7 448 448 448L192 448zM452.3 400L493.8 330.8C505.7 310.9 512 288.2 512 265L512 176C512 140.7 483.3 112 448 112L447.4 112C436.3 92.9 415.7 80 392 80C381 80 370.7 82.8 361.7 87.6C350 73.2 332.1 64 312 64C298.7 64 286.3 68.1 276 75.1C265.7 68.1 253.3 64 240 64C204.7 64 176 92.7 176 128L176 193.6L174.7 194.1C146.6 204.7 128 231.5 128 261.5L128 315.8C128 339.3 139.5 361.3 158.7 374.8L194.7 400L250.1 400C249.4 399.3 248.7 398.7 247.9 398.2L177.1 348.6C166.4 341.1 160 328.9 160 315.8L160 261.5C160 244.8 170.3 229.9 186 224C180.4 209 180.4 209 186 224L197.7 219.6C201.4 218.2 204.3 215.6 206.1 212.3C207.4 210 208.1 207.4 208.1 204.6L208 128C208 110.3 222.3 96 240 96C249.6 96 258.1 100.2 264 106.8C267 110.2 271.4 112.2 276 112.2C280.6 112.2 285 110.2 288 106.8C293.9 100.1 302.4 96 312 96C325.7 96 337.4 104.6 342 116.8C343.9 122 348.4 125.8 353.8 126.9C359.2 128 364.8 126.2 368.6 122.2C374.5 115.9 382.7 112.1 392 112.1C406.2 112.1 418.3 121.3 422.4 134.2C424.9 142 433 146.6 441 144.9C443.2 144.4 445.5 144.2 447.9 144.2C465.6 144.2 479.9 158.5 479.9 176.2L479.9 265.2C479.9 282.6 475.2 299.7 466.2 314.6L414.8 400.2L452.1 400.2zM192 480L448 480L448 544L192 544L192 480z"/></svg>