<svg xmlns="http://www.w3.org/2000/svg" viewBox="0 0 640 640"><!--! Font Awesome Pro 7.1.0 by @fontawesome - https://fontawesome.com License - https://fontawesome.com/license (Commercial License) Copyright 2025 Fonticons, Inc. --><path fill="currentColor" d="M416.1 88C416.1 74.7 426.8 64 440.1 64C453.4 64 464.1 74.7 464.1 88C464.1 101.3 453.4 112 440.1 112C426.8 112 416.1 101.3 416.1 88zM366.2 576C329.1 576 294.7 564.4 266.5 544.6C270.2 534.4 272.2 523.4 272.2 512C272.2 510.8 272.2 509.6 272.1 508.3C297.2 530.5 330.1 544 366.2 544L496.1 544C504.9 544 512.1 536.8 512.1 528C512.1 519.2 505 512 496.2 512L432.1 512C423.3 512 416.1 504.8 416.1 496C416.1 487.2 423.3 480 432.1 480L528.1 480C536.9 480 544.1 472.8 544.1 464C544.1 455.2 536.9 448 528.1 448L432.1 448C423.3 448 416.1 440.8 416.1 432C416.1 423.2 423.3 416 432.1 416L560.1 416C568.9 416 576.1 408.8 576.1 400C576.1 391.2 568.9 384 560.1 384L432.1 384C423.3 384 416.1 376.8 416.1 368C416.1 359.2 423.3 352 432.1 352L528.1 352C536.9 352 544.1 344.8 544.1 336C544.1 327.2 536.9 320 528.1 320L354.9 320C347.3 320 340.8 314.7 339.2 307.3C337.6 299.9 341.4 292.4 348.4 289.4L390.6 270.6C398.7 267 402.3 257.6 398.7 249.5C395.1 241.4 385.7 237.8 377.6 241.4L308.5 272.1C257.2 294.9 224.1 345.8 224.1 401.9C224.1 411.7 225.1 421.3 227 430.6C216.7 424.2 205.2 419.6 192.8 417.5C192.3 412.4 192.1 407.2 192.1 402C192.1 333.2 232.6 270.9 295.5 242.9L364.6 212.2C388.8 201.4 417.2 212.3 428 236.6C435.9 254.4 432.1 274.4 419.9 288.1L528.1 288.1C554.6 288.1 576.1 309.6 576.1 336.1C576.1 342.3 574.9 348.3 572.7 353.8C593.1 359.3 608.1 378 608.1 400.1C608.1 422.2 593.1 440.9 572.7 446.4C574.9 451.9 576.1 457.8 576.1 464.1C576.1 486.2 561.1 504.9 540.7 510.4C542.9 515.9 544.1 521.8 544.1 528.1C544.1 554.6 522.6 576.1 496.1 576.1L366.2 576.1zM32 288.2L32.5 212.6C32.7 186.1 54.3 164.8 80.8 164.9C100.3 165 117 176.8 124.4 193.5L169.1 95C180 70.8 208.5 60.1 232.6 71C238.3 73.6 243.3 77.2 247.3 81.4C260.8 65.1 284 59.2 304.1 68.3C324.2 77.4 335.1 98.8 331.7 119.6C337.6 119.9 343.5 121.3 349.2 123.8C368.5 132.6 379.2 152.5 377.1 172.5L336.7 190L343.9 174.1C347.5 166.1 344 156.6 335.9 152.9C327.8 149.2 318.4 152.8 314.7 160.9L292.9 209L282.7 213.4L282.3 213.6L282.3 213.6C269.5 219.3 257.5 226.2 246.4 234.1C276.8 167 294.2 128.5 298.7 118.6C302.3 110.6 298.8 101.1 290.7 97.4C282.6 93.7 273.2 97.3 269.5 105.4C265.1 115.1 247.5 154 216.7 222C213.1 230 203.6 233.6 195.5 230C187.4 226.4 183.9 216.9 187.5 208.8L227.1 121.4C230.7 113.4 227.2 103.9 219.1 100.2C211 96.5 201.6 100.1 197.9 108.2L126.8 265.9C123.7 272.8 116.2 276.5 108.8 274.9C101.4 273.3 96.2 266.7 96.2 259.2L96.5 213C96.6 204.2 89.4 197 80.6 196.9C71.8 196.8 64.6 204 64.5 212.8L64 288.5C63.6 344.6 96.3 395.8 147.5 418.9C148.2 419.2 148.8 419.5 149.5 419.8C136.8 423.5 125.1 429.7 115.2 437.9C63.6 406.3 31.7 349.8 32.1 288.3zM208.1 512C208.1 494.3 193.8 480 176.1 480C158.4 480 144.1 494.3 144.1 512C144.1 529.7 158.4 544 176.1 544C193.8 544 208.1 529.7 208.1 512zM112.1 512C112.1 476.7 140.8 448 176.1 448C211.4 448 240.1 476.7 240.1 512C240.1 547.3 211.4 576 176.1 576C140.8 576 112.1 547.3 112.1 512zM544.1 208C544.1 199.2 536.9 192 528.1 192C519.3 192 512.1 199.2 512.1 208C512.1 216.8 519.3 224 528.1 224C536.9 224 544.1 216.8 544.1 208zM480.1 208C480.1 181.5 501.6 160 528.1 160C554.6 160 576.1 181.5 576.1 208C576.1 234.5 554.6 256 528.1 256C501.6 256 480.1 234.5 480.1 208z"/></svg>