<svg xmlns="http://www.w3.org/2000/svg" viewBox="0 0 640 640"><!--! Font Awesome Pro 7.1.0 by @fontawesome - https://fontawesome.com License - https://fontawesome.com/license (Commercial License) Copyright 2025 Fonticons, Inc. --><path fill="currentColor" d="M16.8 112C16.8 85.3 38.6 63.6 65.5 64C91.5 64.4 112.7 87.7 112.7 113.7L112 218.7L173.9 292C181 300.4 194 290.2 187.5 281.3L158.9 242.1C145.5 223.6 145.8 197.5 161.4 180.7C186.9 153.3 221.9 165.5 235.8 184.7L278.1 243.1C294.7 265.2 303.7 292.2 303.7 320L303.7 416.1L335.9 416.1L335.9 320C335.9 292.3 344.9 265.3 361.5 243.1L403.8 184.7C417.7 165.5 452.7 153.3 478.2 180.7C493.8 197.4 494.1 223.6 480.7 242.1L452.1 281.3C445.6 290.3 458.6 300.4 465.7 292L527.6 218.6L526.9 113.7C526.9 87.7 548.1 64.3 574.1 64C600.9 63.6 622.8 85.2 622.8 112L623.6 250.2C623.6 261.2 619.9 271.7 613.1 280.2L506.4 413.9C505.9 414.6 505.3 415.3 504.8 416L528 416C536.8 416 544 423.2 544 432C544 440.8 536.8 448 528 448L112 448C103.2 448 96 440.8 96 432C96 423.2 103.2 416 112 416L134.9 416C134.4 415.3 133.9 414.6 133.3 413.9L26.5 280.2C19.8 271.7 16 261.2 16 250.2L16.8 112zM170.2 416L271.9 416L271.8 319.9C271.8 299.3 265.1 278.8 252.3 261.9L210 203.6C204.6 196.2 194.6 194.9 187.7 200.1C179.8 205.7 179.3 215.8 184.2 222.3L214.7 264.5C214.9 264.7 215.2 265 215.2 265.3C241.3 305 181.4 352 144.5 307.7L87.4 239.2C82.6 233.4 79.9 226.1 80 218.5L80.6 112.6C80.6 90.2 48.6 90.9 48.6 111.9L48 250.2C48 253.8 49.2 257.4 51.5 260.2L158.3 393.9C163.3 400.1 167.3 407.8 170.2 416zM481.4 393.9L588.3 260.2C590.5 257.5 591.8 253.8 591.8 250.2L591.1 111.9C591.1 90.9 559.1 90.3 559.1 112.6L559.7 218.5C559.7 226 557.1 233.4 552.3 239.2L495.2 307.7C458.4 352.1 398.4 305.1 424.5 265.3C424.5 265.1 424.7 264.8 425 264.5L455.5 222.3C460.4 215.8 459.9 205.7 452 200.1C445 194.9 435 196.2 429.7 203.6L387.4 262C374.7 278.9 367.9 299.4 367.9 320L367.8 416.1L469.5 416.1C472.4 407.9 476.4 400.2 481.4 394zM112 480L528 480C536.8 480 544 487.2 544 496C544 504.8 536.8 512 528 512L496 512L496 560C496 568.8 488.8 576 480 576C471.2 576 464 568.8 464 560L464 512L368 512L368 560C368 568.8 360.8 576 352 576C343.2 576 336 568.8 336 560L336 512L304 512L304 560C304 568.8 296.8 576 288 576C279.2 576 272 568.8 272 560L272 512L176 512L176 560C176 568.8 168.8 576 160 576C151.2 576 144 568.8 144 560L144 512L112 512C103.2 512 96 504.8 96 496C96 487.2 103.2 480 112 480z"/></svg>