<svg xmlns="http://www.w3.org/2000/svg" viewBox="0 0 640 640"><!--! Font Awesome Pro 7.1.0 by @fontawesome - https://fontawesome.com License - https://fontawesome.com/license (Commercial License) Copyright 2025 Fonticons, Inc. --><path fill="currentColor" d="M59.3 36.8C53.1 30.6 42.9 30.6 36.7 36.8C30.5 43 30.5 53.2 36.7 59.4L580.7 603.4C586.9 609.6 597.1 609.6 603.3 603.4C609.5 597.2 609.5 587 603.3 580.8L494.6 472C495.6 470.9 496.6 469.9 497.6 468.8C498.2 468.3 498.8 467.8 499.3 467.3L603.3 363.3C609.5 357.1 609.5 346.9 603.3 340.7C597.1 334.5 586.9 334.5 580.7 340.7L516.7 404.7C514.3 388.1 506.8 372.2 494.1 359.4L379.3 244.7C373.1 238.5 362.9 238.5 356.7 244.7L312.6 288.8C312.4 289 312.2 289.2 312 289.4L254.6 232L326.6 160L418.9 160C434.7 160 450.1 164.7 463.3 173.4L487.1 189.3C492.7 193 500 192.9 505.4 188.9L593.4 124.9C600.5 119.7 602.1 109.7 596.9 102.5C591.7 95.3 581.7 93.8 574.5 99L495.5 156.4L481 146.7C462.7 134.5 441 128 418.9 128L215.8 128C197.4 128 179.5 132.5 163.5 141L59.3 36.8zM187.6 165.1C196.5 161.8 206 160 215.7 160L281.3 160L231.9 209.4L187.6 165.1zM334.6 312C334.8 311.8 335 311.6 335.2 311.4L368 278.6L471.4 382.1C490 400.7 490.1 430.7 471.9 449.5L334.6 312zM410.8 501.2C396 508.3 379.7 512 363 512L350.6 512L307.3 468.7C301.1 462.5 290.9 462.5 284.7 468.7C278.5 474.9 278.5 485.1 284.7 491.3L305.4 512L277 512C247.3 512 218.8 500.2 197.8 479.2L59.3 340.7C53.1 334.5 42.9 334.5 36.7 340.7C30.5 346.9 30.5 357.1 36.7 363.3L175.2 501.8C202.2 528.8 238.8 544 277 544L363 544C388.3 544 412.9 537.3 434.5 525L410.8 501.3z"/></svg>