<svg xmlns="http://www.w3.org/2000/svg" viewBox="0 0 640 640"><!--! Font Awesome Pro 7.1.0 by @fontawesome - https://fontawesome.com License - https://fontawesome.com/license (Commercial License) Copyright 2025 Fonticons, Inc. --><path fill="currentColor" d="M400 80C400 71.2 392.8 64 384 64C375.2 64 368 71.2 368 80L368 144C368 152.8 375.2 160 384 160C392.8 160 400 152.8 400 144L400 80zM279.1 82.7C271.7 87.6 269.8 97.5 274.7 104.9L306.7 152.9C311.6 160.3 321.5 162.2 328.9 157.3C336.3 152.4 338.2 142.5 333.3 135.1L301.3 87.1C296.4 79.7 286.5 77.8 279.1 82.7zM488.9 82.7C481.5 77.8 471.6 79.8 466.7 87.1L434.7 135.1C429.8 142.5 431.8 152.4 439.1 157.3C446.4 162.2 456.4 160.2 461.3 152.9L493.3 104.9C498.2 97.5 496.2 87.6 488.9 82.7zM217.9 216C222.7 216 227.2 217.9 230.6 221.3L356.7 347.3C359.6 350.2 363.6 352 368 352C376.8 352 384 344.8 384 336L384 272C384 263.2 391.2 256 400 256C408.8 256 416 263.2 416 272L416 401.6C416 480.2 352.2 544 273.6 544C235.8 544 199.6 529 172.9 502.3C147.6 477 131 460.4 123.3 452.7L123.3 452.7L101.3 430.7C97.9 427.3 96 422.8 96 418C96 408.1 104 400.1 113.9 400.1C118.7 400.1 123.2 402 126.6 405.3L126.6 405.3L164.7 443.4C170.9 449.6 181.1 449.6 187.3 443.4C193.5 437.2 193.5 427 187.3 420.8L149.2 382.7L149.2 382.7L101.2 334.7C97.8 331.3 95.9 326.8 95.9 322C95.9 312.1 103.9 304.1 113.8 304.1C118.6 304.1 123.1 306 126.5 309.4L212.6 395.5C218.8 401.7 229 401.7 235.2 395.5C241.4 389.3 241.4 379.1 235.2 372.9L149.1 286.8L149.1 286.8L125.1 262.8C121.7 259.4 119.8 254.9 119.8 250.1C119.8 240.2 127.8 232.2 137.7 232.2C142.5 232.2 147 234.1 150.4 237.5L182.4 269.5L182.4 269.5L260.5 347.6C266.7 353.8 276.9 353.8 283.1 347.6C289.3 341.4 289.3 331.2 283.1 325L205 246.9L205 246.9C201.6 243.5 199.8 239 199.8 234.2C199.8 224.3 207.8 216.3 217.7 216.3zM95.1 275.7C76.9 283.1 64 301 64 321.9C64 335.2 69.3 347.9 78.6 357.3L93.6 372.3C76.2 380.1 64 397.6 64 417.9C64 431.2 69.3 443.9 78.6 453.3L100.6 475.3L100.6 475.3L116.6 491.3L116.6 491.3L150.2 524.9C183 557.6 227.4 576 273.6 576C369.9 576 448 497.9 448 401.6L448 272C448 245.5 426.5 224 400 224C373.5 224 352 245.5 352 272L352 297.4L253.3 198.7C243.9 189.3 231.2 184.1 218 184.1C197.6 184.1 180.1 196.3 172.3 213.8C163 205 150.8 200.1 138 200.1C110.4 200.1 88.1 222.5 88.1 250C88.1 259.1 90.6 268 95.2 275.7zM424.8 542.1C413.1 554.7 399.8 565.8 385.3 575.2C390.7 575.7 396.2 576 401.7 576C498 576 576.1 497.9 576.1 401.6L576 272C576 245.5 554.5 224 528 224C501.5 224 480 245.5 480 272L480 342.6L484.7 347.3C487.6 350.2 491.6 352 496 352C504.8 352 512 344.8 512 336L512 272C512 263.2 519.2 256 528 256C536.8 256 544 263.2 544 272L544 401.6C544 472.3 492.4 531 424.8 542.1z"/></svg>