<svg xmlns="http://www.w3.org/2000/svg" viewBox="0 0 640 640"><!--! Font Awesome Pro 7.1.0 by @fontawesome - https://fontawesome.com License - https://fontawesome.com/license (Commercial License) Copyright 2025 Fonticons, Inc. --><path fill="currentColor" d="M593.4 124.9C600.5 119.7 602.1 109.7 596.9 102.5C591.7 95.3 581.7 93.8 574.5 99L495.5 156.4L481 146.7C462.7 134.5 441 128 418.9 128L215.8 128C188.9 128 162.9 137.7 142.6 155.2L65.4 99.1C58.3 93.9 48.2 95.5 43 102.6C37.8 109.7 39.4 119.7 46.6 124.9L134.6 188.9C141 193.5 149.8 192.8 155.3 187.3L159.2 183.4C174.2 168.4 194.6 160 215.8 160L281.4 160L176 265.4C163.5 277.9 163.5 298.2 176 310.7L176.8 311.5C220.5 355.2 291.5 355.2 335.2 311.5L368 278.6L471.4 382.1C490.1 400.8 490.1 431.2 471.4 450L452 469.4L419.3 436.7C413.1 430.5 402.9 430.5 396.7 436.7C390.5 442.9 390.5 453.1 396.7 459.3L428.3 491C409.4 504.6 386.5 512 362.9 512L350.5 512L307.2 468.7C301 462.5 290.8 462.5 284.6 468.7C278.4 474.9 278.4 485.1 284.6 491.3L305.3 512L276.9 512C247.2 512 218.7 500.2 197.7 479.2L59.3 340.7C53.1 334.5 42.9 334.5 36.7 340.7C30.5 346.9 30.5 357.1 36.7 363.3L175.2 501.8C202.2 528.8 238.8 544 277 544L363 544C401.2 544 437.8 528.8 464.8 501.8L494.1 472.5C495.3 471.3 496.5 470 497.6 468.7C498.2 468.2 498.8 467.7 499.3 467.2L603.3 363.2C609.5 357 609.5 346.8 603.3 340.6C597.1 334.4 586.9 334.4 580.7 340.6L516.7 404.6C514.3 388 506.8 372.1 494.1 359.3L379.3 244.7C373.1 238.5 362.9 238.5 356.7 244.7L312.6 288.8C281.4 320 230.7 320 199.5 288.8L198.7 288L326.7 160L419 160C434.8 160 450.2 164.7 463.4 173.4L487.2 189.3C492.8 193 500.1 192.9 505.5 188.9L593.5 124.9z"/></svg>