<svg xmlns="http://www.w3.org/2000/svg" viewBox="0 0 640 640"><!--! Font Awesome Pro 7.1.0 by @fontawesome - https://fontawesome.com License - https://fontawesome.com/license (Commercial License) Copyright 2025 Fonticons, Inc. --><path fill="currentColor" d="M354.4 113.8L333 143.3C330 147.5 325.2 149.9 320 149.9C314.8 149.9 310 147.4 307 143.3L285.6 113.8C277.5 102.6 264.6 96 250.9 96C227.2 96 208 115.2 208 138.9C208 165.6 225.1 191 246.1 214.8C269.5 241.4 298.1 264.6 317.4 279C319.1 280.2 321 280.2 322.7 279C342 264.6 370.6 241.4 394 214.8C414.9 191 432.1 165.6 432.1 138.9C432.1 115.2 412.9 96 389.2 96C375.4 96 362.5 102.6 354.5 113.8zM389.1 64C430.5 64 464 97.5 464 138.9C464 178.5 439.1 211.9 418 235.9C392.5 264.9 361.9 289.7 341.8 304.6C328.8 314.3 311.3 314.3 298.3 304.6C278.2 289.6 247.6 264.9 222.1 235.9C200.9 211.8 176.1 178.5 176.1 138.9C176.1 97.5 209.6 64 251 64C275 64 297.6 75.5 311.7 95L320 106.7L328.4 95C342.5 75.5 365.1 64 389.1 64zM183 381.4C196.1 372.6 211.6 368 227.4 368L376 368C406.9 368 432 393.1 432 424C432 432.6 430.1 440.7 426.6 448L432.2 448L526.9 391.6C535.2 386.7 544.7 384 554.4 384L555.7 384C584.6 384 608 407.4 608 436.3C608 454 599 470.5 584.2 480.1L464.6 557.9C446.4 569.7 425.2 576 403.6 576L48 576C39.2 576 32 568.8 32 560C32 551.2 39.2 544 48 544L403.5 544C419 544 434.1 539.5 447.1 531.1L566.7 453.3C572.5 449.6 575.9 443.1 575.9 436.3C575.9 425.1 566.8 416 555.6 416L554.3 416C550.4 416 546.6 417.1 543.2 419L444.7 477.7C442.2 479.2 439.4 480 436.5 480L288 480C279.2 480 272 472.8 272 464C272 455.2 279.2 448 288 448L376 448C389.3 448 400 437.3 400 424C400 410.7 389.3 400 376 400L227.4 400C217.9 400 208.7 402.8 200.8 408.1L120.9 461.3C118.3 463.1 115.2 464 112 464L48 464C39.2 464 32 456.8 32 448C32 439.2 39.2 432 48 432L107.2 432L183 381.4z"/></svg>