<svg xmlns="http://www.w3.org/2000/svg" viewBox="0 0 640 640"><!--! Font Awesome Pro 7.1.0 by @fontawesome - https://fontawesome.com License - https://fontawesome.com/license (Commercial License) Copyright 2025 Fonticons, Inc. --><path fill="currentColor" d="M342.6 73.4L438.6 169.4C451.1 181.9 451.1 202.2 438.6 214.7L342.6 310.7C330.1 323.2 309.8 323.2 297.3 310.7L201.3 214.7C188.8 202.2 188.8 181.9 201.3 169.4L297.3 73.4C309.8 60.9 330.1 60.9 342.6 73.4zM224 192L320 288L416 192L320 96L224 192zM64 128C99.3 128 128 156.7 128 192L128 316.3C128 320.9 128.4 325.4 129.3 329.8C131.4 326.6 133.9 323.5 136.7 320.7C158.4 299 193.6 299 215.3 320.7L306.6 412C311.7 417.1 316.2 422.6 320 428.6C323.8 422.7 328.3 417.1 333.4 412L424.7 320.7C446.4 299 481.6 299 503.3 320.7C506.1 323.5 508.6 326.6 510.7 329.8C511.6 325.4 512 320.9 512 316.3L512 192C512 156.7 540.7 128 576 128C611.3 128 640 156.7 640 192L640 408.2C640 437.9 628.2 466.4 607.2 487.4L523.3 571.3C517.1 577.5 506.9 577.5 500.7 571.3C494.5 565.1 494.5 554.9 500.7 548.7L584.6 464.8C599.6 449.8 608 429.4 608 408.2L608 192C608 174.3 593.7 160 576 160C558.3 160 544 174.3 544 192L544 316.3C544 343.4 533.2 369.4 514.1 388.5C512.5 390.1 494.2 408.4 459.3 443.3L443.3 459.3C437.1 465.5 426.9 465.5 420.7 459.3C414.5 453.1 414.5 442.9 420.7 436.7L436.7 420.7L436.7 420.7L480.7 376.7L480.7 376.7C489.9 367.5 489.9 352.5 480.7 343.3C471.5 334.1 456.5 334.1 447.3 343.3L356 434.6C343.2 447.4 336 464.8 336 482.9L336 560C336 568.8 328.8 576 320 576C311.2 576 304 568.8 304 560L304 482.9C304 464.8 296.8 447.4 284 434.6L192.7 343.3C183.5 334.1 168.5 334.1 159.3 343.3C150.1 352.5 150.1 367.5 159.3 376.7L219.3 436.7C225.5 442.9 225.5 453.1 219.3 459.3C213.1 465.5 202.9 465.5 196.7 459.3L180.7 443.3L180.7 443.3L136.7 399.3L136.7 399.3L126 388.5C106.8 369.4 96 343.4 96 316.3L96 192C96 174.3 81.7 160 64 160C46.3 160 32 174.3 32 192L32 408.2C32 429.4 40.4 449.8 55.4 464.8L139.3 548.7C145.5 554.9 145.5 565.1 139.3 571.3C133.1 577.5 122.9 577.5 116.7 571.3L32.8 487.4C11.8 466.4 0 437.9 0 408.2L0 192C0 156.7 28.7 128 64 128z"/></svg>