<svg xmlns="http://www.w3.org/2000/svg" viewBox="0 0 640 640"><!--! Font Awesome Pro 7.1.0 by @fontawesome - https://fontawesome.com License - https://fontawesome.com/license (Commercial License) Copyright 2025 Fonticons, Inc. --><path fill="currentColor" d="M157.1 64L176 64C239.3 64 294.1 100.8 320 154.2C345.9 100.8 400.7 64 464 64L482.9 64C499 64 512 77 512 93.1C512 174.2 446.2 240 365.1 240L336 240L336 304C336 312.8 328.8 320 320 320C311.2 320 304 312.8 304 304L304 240L274.9 240C193.8 240 128 174.2 128 93.1C128 77 141 64 157.1 64zM176 96L160 96C161.5 158.1 212.4 208 274.9 208L303 208C295.1 144.9 241.3 96 176 96zM337 208L365.1 208C427.6 208 478.4 158.1 480 96L464 96C398.7 96 344.9 144.9 337 208zM183 381.4C196.1 372.6 211.6 368 227.4 368L376 368C406.9 368 432 393.1 432 424C432 432.6 430.1 440.7 426.6 448L432.2 448L526.9 391.6C535.2 386.7 544.7 384 554.4 384L555.7 384C584.6 384 608 407.4 608 436.3C608 454 599 470.5 584.2 480.1L464.6 557.9C446.4 569.7 425.2 576 403.6 576L48 576C39.2 576 32 568.8 32 560C32 551.2 39.2 544 48 544L403.5 544C419 544 434.1 539.5 447.1 531.1L566.7 453.3C572.5 449.6 575.9 443.1 575.9 436.3C575.9 425.1 566.8 416 555.6 416L554.3 416C550.4 416 546.6 417.1 543.2 419L444.7 477.7C442.2 479.2 439.4 480 436.5 480L288 480C279.2 480 272 472.8 272 464C272 455.2 279.2 448 288 448L376 448C389.3 448 400 437.3 400 424C400 410.7 389.3 400 376 400L227.4 400C217.9 400 208.7 402.8 200.8 408.1L120.9 461.3C118.3 463.1 115.2 464 112 464L48 464C39.2 464 32 456.8 32 448C32 439.2 39.2 432 48 432L107.2 432L183 381.4z"/></svg>