<svg xmlns="http://www.w3.org/2000/svg" viewBox="0 0 640 640"><!--! Font Awesome Pro 7.1.0 by @fontawesome - https://fontawesome.com License - https://fontawesome.com/license (Commercial License) Copyright 2025 Fonticons, Inc. --><path fill="currentColor" d="M192.5 120C192.5 106.7 203.2 96 216.5 96C229.8 96 240.5 106.7 240.5 120L240.5 128L96.5 128C90.3 128 84.7 131.5 82.1 137.1C79.5 142.7 80.2 149.2 84 154L108 184L84 214C80.2 218.8 79.4 225.4 82.1 230.9C84.8 236.4 90.4 240 96.5 240L160.5 240L160.5 320C141.1 334.6 128.5 357.8 128.5 384L128.5 416C128.5 504.4 200.1 576 288.5 576L352.5 576C440.9 576 512.5 504.4 512.5 416L512.5 312C512.5 281.1 487.4 256 456.5 256C444.4 256 433.2 259.8 424 266.4C414.1 250.6 396.5 240 376.5 240C366.8 240 357.7 242.5 349.8 246.8C342.5 224.3 321.4 208 296.5 208C287.9 208 279.8 209.9 272.5 213.4L272.5 144.1L272.5 144L272.5 143.9L272.5 120C272.5 89.1 247.4 64 216.5 64C185.6 64 160.5 89.1 160.5 120L160.5 128L192.5 128L192.5 120zM240.5 160L240.5 208L129.8 208L141 194C145.7 188.2 145.7 179.9 141 174L129.8 160L240.5 160zM240.5 240L240.5 304L208.5 304C203 304 197.7 304.6 192.5 305.6L192.5 240L240.5 240zM240.5 336L296.5 336C309.7 336 320.5 346.7 320.5 360L320.5 360C320.5 373.3 309.8 384 296.5 384L240.5 384C231.7 384 224.5 391.2 224.5 400C224.5 408.8 231.7 416 240.5 416L296.5 416C312.2 416 326.3 409.6 336.5 399.2C346.7 409.6 360.8 416 376.5 416C390.3 416 402.9 411 412.6 402.8C422.9 415.7 438.7 424 456.5 424C465.1 424 473.2 422.1 480.5 418.6C479.1 488.1 422.3 544 352.5 544L288.5 544C217.8 544 160.5 486.7 160.5 416L160.5 384C160.5 357.5 182 336 208.5 336L240.5 336zM272.5 304L272.5 264C272.5 250.7 283.2 240 296.5 240C309.8 240 320.5 250.7 320.5 264L320.5 309.4C313.2 305.9 305.1 304 296.5 304L272.5 304zM352.5 336L352.5 296C352.5 282.8 363.3 272 376.5 272C389.8 272 400.5 282.7 400.5 296L400.5 360C400.5 373.3 389.8 384 376.5 384C363.2 384 352.5 373.3 352.5 360L352.5 336zM480.5 336L480.5 368C480.5 381.3 469.8 392 456.5 392C443.2 392 432.5 381.3 432.5 368L432.5 312C432.5 298.7 443.2 288 456.5 288C469.8 288 480.5 298.7 480.5 312L480.5 336z"/></svg>