<svg xmlns="http://www.w3.org/2000/svg" viewBox="0 0 640 640"><!--! Font Awesome Pro 7.1.0 by @fontawesome - https://fontawesome.com License - https://fontawesome.com/license (Commercial License) Copyright 2025 Fonticons, Inc. --><path fill="currentColor" d="M376 368C406.9 368 432 393.1 432 424C432 432.6 430 440.7 426.5 448L432.1 448L526.8 391.6L530 389.8C537.5 386 545.8 384 554.3 384L555.6 384C584.5 384 607.9 407.4 607.9 436.3C607.9 451.8 601 466.3 589.4 476.2L584.1 480.1L464.5 557.9C446.3 569.7 425.1 576 403.4 576L48 576C39.2 576 32 568.8 32 560C32 551.2 39.2 544 48 544L403.5 544C419 544 434.1 539.5 447.1 531.1L566.7 453.3L568.8 451.8C573.3 448 576 442.3 576 436.3C576 425.1 566.9 416 555.7 416L554.4 416C551.5 416 548.6 416.6 545.9 417.7L543.3 419L444.8 477.7C442.3 479.2 439.5 479.9 436.6 479.9L288 480C279.2 480 272 472.8 272 464C272 455.2 279.2 448 288 448L376 448C389.3 448 400 437.3 400 424C400 410.7 389.3 400 376 400L227.4 400C217.9 400 208.7 402.8 200.8 408.1L120.9 461.3C118.3 463.1 115.2 464 112 464L48 464C39.2 464 32 456.8 32 448C32 439.2 39.2 432 48 432L107.2 432L183 381.4C196.1 372.6 211.6 368 227.4 368L376 368zM307.4 16.2C314 17.1 319.9 20.8 323.7 26.2L325.4 29L360.6 98L437.1 110.2L437.1 110.2L440.5 111C455.9 115.8 462.3 135 452.6 148.1L450.3 150.8L395.6 205.5L407.7 282.1L407.7 282.1L408 285.4C408.1 292.1 405.4 298.5 400.6 303.1L398 305.2C390.7 310.5 381.1 311.2 373.1 307.2L373.1 307.2L304 272L235 307.2L235 307.2C228 310.7 219.8 310.6 212.9 307L210.1 305.2C202.9 299.9 199 291 200.4 282.1L200.4 282.1L212.5 205.5L157.8 150.8C144 136.9 151.9 113.2 171 110.2L171 110.2L247.5 98L282.8 29L284.5 26.2C288.8 19.9 296.1 16 304 16L304.1 16L307.4 16.2zM272.2 119.9C269.9 124.4 265.5 127.6 260.5 128.4L191.5 139.4L240.9 188.8L243.2 191.8C244.5 193.9 245.3 196.4 245.5 198.9L245.4 202.7L234.5 271.8L296.8 240.1L300.3 238.8C304 237.9 307.8 238.4 311.3 240.1L373.6 271.8L362.7 202.7C361.9 197.7 363.6 192.5 367.2 188.9L416.5 139.5L347.5 128.5C342.5 127.7 338.1 124.5 335.8 120L304 57.6L272.2 119.9z"/></svg>