<svg xmlns="http://www.w3.org/2000/svg" viewBox="0 0 640 640"><!--! Font Awesome Pro 7.1.0 by @fontawesome - https://fontawesome.com License - https://fontawesome.com/license (Commercial License) Copyright 2025 Fonticons, Inc. --><path fill="currentColor" d="M350.2 297.7C357.9 301.7 366.7 304 376 304C388.1 304 399.3 300.2 408.5 293.6C418.4 309.4 436 320 456 320C464.6 320 472.7 318.1 480 314.6L480 320C480 358.6 460.5 392.6 430.8 412.7C422.2 418.5 416 428.4 416 440.1L416 560C416 568.8 423.2 576 432 576C440.8 576 448 568.8 448 560L448 440.1L448 440L448.1 439.9C448.2 439.7 448.4 439.4 448.8 439.2C486.9 413.3 512 369.6 512 320L512 216C512 185.1 486.9 160 456 160C447.4 160 439.3 161.9 432 165.4L432 152C432 121.1 406.9 96 376 96C366.3 96 357.2 98.5 349.3 102.8C342 80.3 320.9 64 296 64C271.1 64 250 80.3 242.7 102.8C234.8 98.5 225.7 96 216 96C185.1 96 160 121.1 160 152L160 264C160 266.6 160.2 269.1 160.5 271.6C140.8 286.2 128 309.6 128 336C128 395 167.9 444.7 222.2 459.5C223 459.7 223.5 460.1 223.8 460.5C223.9 460.7 224 460.8 224 460.8L224 460.8L224 560.1C224 568.9 231.2 576.1 240 576.1C248.8 576.1 256 568.9 256 560.1L256 460.8C256 444.5 244.1 432.4 230.6 428.7C189.9 417.6 160 380.3 160 336.1C160 309.6 181.5 288.1 208 288.1L296 288.1C309.3 288.1 320 298.8 320 312.1C320 325.4 309.3 336.1 296 336.1L240 336.1C231.2 336.1 224 343.3 224 352.1C224 360.9 231.2 368.1 240 368.1L296 368.1C326.9 368.1 352 343 352 312.1C352 307.2 351.4 302.4 350.2 297.8zM320 261.4C312.7 257.9 304.6 256 296 256L272 256L272 120C272 106.7 282.7 96 296 96C309.3 96 320 106.7 320 120L320 261.4zM240 256L208 256C202.5 256 197.2 256.6 192 257.6L192 152C192 138.7 202.7 128 216 128C229.3 128 240 138.7 240 152L240 256zM480 256L480 264C480 277.3 469.3 288 456 288C442.7 288 432 277.3 432 264L432 216C432 202.7 442.7 192 456 192C469.3 192 480 202.7 480 216L480 256zM352 152C352 138.7 362.7 128 376 128C389.3 128 400 138.7 400 152L400 248C400 261.3 389.3 272 376 272C362.7 272 352 261.3 352 248L352 152z"/></svg>