<svg xmlns="http://www.w3.org/2000/svg" viewBox="0 0 640 640"><!--! Font Awesome Pro 7.1.0 by @fontawesome - https://fontawesome.com License - https://fontawesome.com/license (Commercial License) Copyright 2025 Fonticons, Inc. --><path fill="currentColor" d="M249.4 65.9C279.3 57.8 310 75.5 318.1 105.3L359.4 258L385.2 132.6C391.4 102.3 421 82.8 451.3 89C481.6 95.2 501.1 125 494.9 155.3L492.4 167.3C504.7 160.3 519.6 158 534.3 161.9C564.2 169.8 582.1 200.4 574.2 230.3L513 462.6C495.7 528.4 436.8 574.6 369 576C368.7 576 368.3 576 368 576L350.6 576C291.8 576 234.8 555.1 190 517L83.7 426.7C60.1 406.7 57.3 371.3 77.3 347.8L77.3 347.8C97.3 324.2 132.7 321.4 156.2 341.4L187.7 368.2L138.7 217.4C129.1 188 145.2 156.4 174.6 146.8C187.9 142.5 201.6 143.4 213.6 148.4L210 134.6C201.9 104.7 219.6 74 249.4 65.9zM367.3 544C367.5 544 367.6 544 367.8 544C421.6 543.2 468.4 506.6 482.1 454.4L543.2 222.1C546.6 209.3 538.9 196.2 526.1 192.8C513.3 189.4 500.2 197.1 496.8 209.9L462.5 340.1C460.7 347.1 454.3 352 447 352L441.2 352C436.4 352 431.8 349.8 428.8 346.1C425.8 342.4 424.6 337.5 425.5 332.8L463.5 148.8C466.2 135.8 457.8 123.1 444.8 120.5C431.8 117.9 419.1 126.2 416.5 139.2L377.1 330.4C375.6 337.7 369.3 342.9 361.9 343.2C354.5 343.5 347.9 338.5 346 331.4L287.2 113.7C283.7 100.9 270.6 93.3 257.8 96.8C245 100.3 237.4 113.4 240.9 126.2L296.5 331.8C297.8 336.6 296.8 341.7 293.8 345.7C290.8 349.7 285.9 352 281 352L278.3 352C271.4 352 265.2 347.5 263.1 340.9L214.8 192.6C210.7 180 197.2 173.1 184.6 177.2C172 181.3 165.1 194.8 169.2 207.4L235.7 411.9C237.9 418.7 235.3 426.2 229.4 430.1C223.5 434 215.6 433.6 210.1 429L135.6 365.7C125.5 357.1 110.4 358.3 101.8 368.4C93.2 378.5 94.4 393.6 104.5 402.2L210.7 492.5C249.8 525.7 299.3 543.9 350.6 543.9L367.3 543.9z"/></svg>