<svg xmlns="http://www.w3.org/2000/svg" viewBox="0 0 640 640"><!--! Font Awesome Pro 7.1.0 by @fontawesome - https://fontawesome.com License - https://fontawesome.com/license (Commercial License) Copyright 2025 Fonticons, Inc. --><path fill="currentColor" d="M192 520C192 533.3 202.7 544 216 544C229.3 544 240 533.3 240 520L240 336L208 336C202.5 336 197.2 335.4 192 334.4L192 520zM240 304L240 304L272 304L272 304L296 304C309.2 304 320 293.3 320 280L320 280C320 266.7 309.3 256 296 256L240 256C231.2 256 224 248.8 224 240C224 231.2 231.2 224 240 224L296 224C311.7 224 325.8 230.4 336 240.8C346.2 230.4 360.3 224 376 224C389.8 224 402.4 229 412.1 237.2C422.4 224.3 438.2 216 456 216C464.6 216 472.7 217.9 480 221.4C478.6 151.9 421.8 96 352 96L288 96C217.3 96 160 153.3 160 224L160 256C160 282.5 181.5 304 208 304L240 304zM272 336L272 376C272 389.3 282.7 400 296 400C309.3 400 320 389.3 320 376L320 330.6C312.7 334.1 304.6 336 296 336L272 336zM272 426.6L272 520C272 550.9 246.9 576 216 576C185.1 576 160 550.9 160 520L160 320C140.6 305.4 128 282.2 128 256L128 224C128 135.6 199.6 64 288 64L352 64C440.4 64 512 135.6 512 224L512 328C512 358.9 486.9 384 456 384C443.9 384 432.7 380.2 423.5 373.6C413.6 389.4 396 400 376 400C366.3 400 357.2 397.5 349.3 393.2C342 415.7 320.9 432 296 432C287.4 432 279.3 430.1 272 426.6zM352 304L352 344C352 357.2 362.8 368 376 368C389.3 368 400 357.3 400 344L400 280C400 266.7 389.3 256 376 256C362.7 256 352 266.7 352 280L352 304zM480 304L480 272C480 258.7 469.3 248 456 248C442.7 248 432 258.7 432 272L432 328C432 341.3 442.7 352 456 352C469.3 352 480 341.3 480 328L480 304z"/></svg>