<svg xmlns="http://www.w3.org/2000/svg" viewBox="0 0 640 640"><!--! Font Awesome Pro 7.1.0 by @fontawesome - https://fontawesome.com License - https://fontawesome.com/license (Commercial License) Copyright 2025 Fonticons, Inc. --><path fill="currentColor" d="M328.5 64C303.6 64 282.5 80.3 275.2 102.8C267.3 98.5 258.2 96 248.5 96C217.6 96 192.5 121.1 192.5 152L192.5 352.8L160.1 320.4C138.2 298.5 102.8 298.5 80.9 320.4C59 342.3 59 377.7 80.9 399.6L184.7 503.4C231.2 549.9 294.3 576 360 576L368.5 576C465.7 576 544.5 497.2 544.5 400L544.5 216C544.5 185.1 519.4 160 488.5 160C479.9 160 471.8 161.9 464.5 165.4L464.5 152C464.5 121.1 439.4 96 408.5 96C398.8 96 389.7 98.5 381.8 102.8C374.5 80.3 353.4 64 328.5 64zM248.5 128C261.8 128 272.5 138.7 272.5 152L272.5 304C272.5 312.8 279.7 320 288.5 320C297.3 320 304.5 312.8 304.5 304L304.5 120C304.5 106.7 315.2 96 328.5 96C341.8 96 352.5 106.7 352.5 120L352.5 304C352.5 312.8 359.7 320 368.5 320C377.3 320 384.5 312.8 384.5 304L384.5 151.9C384.5 138.7 395.3 128 408.5 128C421.8 128 432.5 138.7 432.5 152L432.5 304C432.5 312.8 439.7 320 448.5 320C457.3 320 464.5 312.8 464.5 304L464.5 215.9C464.5 202.7 475.3 192 488.5 192C501.8 192 512.5 202.7 512.5 216L512.5 400C512.5 479.5 448 544 368.5 544L360 544C302.7 544 247.8 521.2 207.3 480.7L103.5 377C94.1 367.6 94.1 352.4 103.5 343.1C112.9 333.8 128.1 333.7 137.4 343.1L197.1 402.8C201.7 407.4 208.6 408.7 214.5 406.3C220.4 403.9 224.4 398 224.4 391.5L224.4 152.1C224.4 138.8 235.1 128.1 248.4 128.1zM312.5 416C312.5 402.7 301.8 392 288.5 392C275.2 392 264.5 402.7 264.5 416C264.5 429.3 275.2 440 288.5 440C301.8 440 312.5 429.3 312.5 416zM368.5 392C381.8 392 392.5 381.3 392.5 368C392.5 354.7 381.8 344 368.5 344C355.2 344 344.5 354.7 344.5 368C344.5 381.3 355.2 392 368.5 392zM456.5 432C456.5 418.7 445.8 408 432.5 408C419.2 408 408.5 418.7 408.5 432C408.5 445.3 419.2 456 432.5 456C445.8 456 456.5 445.3 456.5 432zM352.5 504C365.8 504 376.5 493.3 376.5 480C376.5 466.7 365.8 456 352.5 456C339.2 456 328.5 466.7 328.5 480C328.5 493.3 339.2 504 352.5 504z"/></svg>