<svg xmlns="http://www.w3.org/2000/svg" viewBox="0 0 640 640"><!--! Font Awesome Pro 7.1.0 by @fontawesome - https://fontawesome.com License - https://fontawesome.com/license (Commercial License) Copyright 2025 Fonticons, Inc. --><path fill="currentColor" d="M549.6 368C591 368 624.5 401.5 624.5 442.9C624.5 482.5 599.6 515.9 578.5 539.9C553 568.9 522.4 593.7 502.3 608.6C489.3 618.3 471.8 618.3 458.8 608.6C438.7 593.6 408.1 568.9 382.6 539.9C361.4 515.8 336.6 482.5 336.6 442.9C336.6 401.5 370.1 368 411.5 368C435.5 368 458.1 379.5 472.2 399L480.6 410.7L489 399C503.1 379.5 525.7 368 549.7 368zM549.6 400C535.8 400 522.9 406.6 514.9 417.8L493.5 447.4C490.5 451.6 485.7 454 480.5 454C475.3 454 470.5 451.5 467.5 447.4L446.1 417.8C438 406.7 425.1 400 411.4 400C387.7 400 368.5 419.2 368.5 442.9C368.5 469.6 385.6 495 406.6 518.8C430 545.4 458.6 568.6 477.9 583C479.6 584.2 481.5 584.2 483.2 583C502.5 568.6 531.1 545.4 554.5 518.8C575.4 495 592.6 469.6 592.6 442.9C592.6 419.2 573.4 400 549.7 400zM328.5 64C353.4 64 374.5 80.3 381.8 102.8C389.7 98.5 398.8 96 408.5 96C439.4 96 464.5 121.1 464.5 152L464.5 165.4C471.8 161.9 479.9 160 488.5 160C519.4 160 544.5 185.1 544.5 216L544.5 320.2C533.5 320.7 522.8 322.5 512.5 325.8L512.5 216C512.5 202.7 501.8 192 488.5 192C475.3 192 464.5 202.7 464.5 215.9L464.5 304C464.5 312.8 457.3 320 448.5 320C439.7 320 432.5 312.8 432.5 304L432.5 152C432.5 138.7 421.8 128 408.5 128C395.3 128 384.5 138.7 384.5 151.9L384.5 304C384.5 312.8 377.3 320 368.5 320C359.7 320 352.5 312.8 352.5 304L352.5 120C352.5 106.7 341.8 96 328.5 96C315.2 96 304.5 106.7 304.5 120L304.5 304C304.5 312.8 297.3 320 288.5 320C279.7 320 272.5 312.8 272.5 304L272.5 152C272.5 138.7 261.8 128 248.5 128C235.2 128 224.5 138.7 224.5 152L224.5 391.4C224.5 397.9 220.6 403.7 214.6 406.2C208.6 408.7 201.7 407.3 197.2 402.7L137.5 343C128.1 333.6 112.9 333.6 103.6 343C94.3 352.4 94.2 367.6 103.6 376.9L207.3 480.7C238.8 512.2 279 532.9 322.2 540.5C330 551.9 338.4 562.3 346.5 571.5C347.7 572.9 349 574.3 350.3 575.7C288.1 573.3 228.9 547.5 184.7 503.3L80.9 399.6C59 377.7 59 342.3 80.9 320.4C102.8 298.5 138.2 298.5 160.1 320.4L192.5 352.8L192.5 152C192.5 121.1 217.6 96 248.5 96C258.2 96 267.3 98.4 275.2 102.8C282.5 80.3 303.6 64 328.5 64z"/></svg>