<svg xmlns="http://www.w3.org/2000/svg" viewBox="0 0 640 640"><!--! Font Awesome Pro 7.1.0 by @fontawesome - https://fontawesome.com License - https://fontawesome.com/license (Commercial License) Copyright 2025 Fonticons, Inc. --><path fill="currentColor" d="M288 104L288 144C288 152.8 280.8 160 272 160L232 160C227.6 160 224 163.6 224 168L224 216C224 220.4 227.6 224 232 224L272 224C280.8 224 288 231.2 288 240L288 280C288 284.4 291.6 288 296 288L344 288C348.4 288 352 284.4 352 280L352 240C352 231.2 359.2 224 368 224L408 224C412.4 224 416 220.4 416 216L416 168C416 163.6 412.4 160 408 160L368 160C359.2 160 352 152.8 352 144L352 104C352 99.6 348.4 96 344 96L296 96C291.6 96 288 99.6 288 104zM296 64L344 64C366.1 64 384 81.9 384 104L384 128L408 128C430.1 128 448 145.9 448 168L448 216C448 238.1 430.1 256 408 256L384 256L384 280C384 302.1 366.1 320 344 320L296 320C273.9 320 256 302.1 256 280L256 256L232 256C209.9 256 192 238.1 192 216L192 168C192 145.9 209.9 128 232 128L256 128L256 104C256 81.9 273.9 64 296 64zM183 381.4C196.1 372.6 211.6 368 227.4 368L376 368C406.9 368 432 393.1 432 424C432 432.6 430.1 440.7 426.6 448L432.2 448L526.9 391.6C535.2 386.7 544.7 384 554.4 384L555.7 384C584.6 384 608 407.4 608 436.3C608 454 599 470.5 584.2 480.1L464.6 557.9C446.4 569.7 425.2 576 403.6 576L48 576C39.2 576 32 568.8 32 560C32 551.2 39.2 544 48 544L403.5 544C419 544 434.1 539.5 447.1 531.1L566.7 453.3C572.5 449.6 575.9 443.1 575.9 436.3C575.9 425.1 566.8 416 555.6 416L554.3 416C550.4 416 546.6 417.1 543.2 419L444.7 477.7C442.2 479.2 439.4 480 436.5 480L288 480C279.2 480 272 472.8 272 464C272 455.2 279.2 448 288 448L376 448C389.3 448 400 437.3 400 424C400 410.7 389.3 400 376 400L227.4 400C217.9 400 208.7 402.8 200.8 408.1L120.9 461.3C118.3 463.1 115.2 464 112 464L48 464C39.2 464 32 456.8 32 448C32 439.2 39.2 432 48 432L107.2 432L183 381.4z"/></svg>