<svg xmlns="http://www.w3.org/2000/svg" viewBox="0 0 640 640"><!--! Font Awesome Pro 7.1.0 by @fontawesome - https://fontawesome.com License - https://fontawesome.com/license (Commercial License) Copyright 2025 Fonticons, Inc. --><path fill="currentColor" d="M328 64C303.1 64 282 80.3 274.7 102.8C266.8 98.5 257.7 96 248 96C217.1 96 192 121.1 192 152L192 352.8L159.6 320.4C137.7 298.5 102.3 298.5 80.4 320.4C58.5 342.3 58.5 377.7 80.4 399.6L184.2 503.4C230.7 549.9 293.8 576 359.5 576L368 576C399 576 428 568 453.3 554C444.4 547.5 437.1 538.9 432 529C412.7 538.6 391 544 368 544L359.5 544C302.2 544 247.3 521.2 206.8 480.7L103 377C93.6 367.6 93.6 352.4 103 343.1C112.4 333.8 127.6 333.7 136.9 343.1L196.6 402.8C201.2 407.4 208.1 408.7 214 406.3C219.9 403.9 223.9 398 223.9 391.5L224 152C224 138.7 234.7 128 248 128C261.3 128 272 138.7 272 152L272 304C272 312.8 279.2 320 288 320C296.8 320 304 312.8 304 304L304 120C304 106.7 314.7 96 328 96C341.3 96 352 106.7 352 120L352 304C352 312.8 359.2 320 368 320C376.8 320 384 312.8 384 304L384 151.9C384 138.7 394.8 128 408 128C421.3 128 432 138.7 432 152L432 304C432 312.8 439.2 320 448 320C456.8 320 464 312.8 464 304L464 215.9C464 202.7 474.8 192 488 192C501.3 192 512 202.7 512 216L512 378.3C520.9 370.3 531.9 364.5 544 361.8L544 216C544 185.1 518.9 160 488 160C479.4 160 471.3 161.9 464 165.4L464 152C464 121.1 438.9 96 408 96C398.3 96 389.2 98.5 381.3 102.8C374 80.3 352.9 64 328 64zM96 144C96 135.2 88.8 128 80 128C71.2 128 64 135.2 64 144L64 192L16 192C7.2 192 0 199.2 0 208C0 216.8 7.2 224 16 224L64 224L64 256C64 264.8 71.2 272 80 272C88.8 272 96 264.8 96 256L96 224L144 224C152.8 224 160 216.8 160 208C160 199.2 152.8 192 144 192L96 192L96 144zM336 368C336 359.2 328.8 352 320 352C311.2 352 304 359.2 304 368L304 400L272 400C263.2 400 256 407.2 256 416C256 424.8 263.2 432 272 432L304 432L304 464C304 472.8 311.2 480 320 480C328.8 480 336 472.8 336 464L336 432L368 432C376.8 432 384 424.8 384 416C384 407.2 376.8 400 368 400L336 400L336 368zM576 432C576 423.2 568.8 416 560 416C551.2 416 544 423.2 544 432L544 480L496 480C487.2 480 480 487.2 480 496C480 504.8 487.2 512 496 512L544 512L544 560C544 568.8 551.2 576 560 576C568.8 576 576 568.8 576 560L576 512L624 512C632.8 512 640 504.8 640 496C640 487.2 632.8 480 624 480L576 480L576 432z"/></svg>