<svg xmlns="http://www.w3.org/2000/svg" viewBox="0 0 640 640"><!--! Font Awesome Pro 7.1.0 by @fontawesome - https://fontawesome.com License - https://fontawesome.com/license (Commercial License) Copyright 2025 Fonticons, Inc. --><path fill="currentColor" d="M64 184C64 153.1 89.1 128 120 128L350.6 128C386.8 128 420.7 145.5 441.7 174.9L555.1 333.7C568.7 352.7 576 375.5 576 398.8L576 496C576 504.8 568.8 512 560 512C551.2 512 544 504.8 544 496L544 398.8C544 382.1 538.8 365.9 529.1 352.3L415.7 193.5C400.7 172.5 376.4 160 350.6 160L120 160C106.7 160 96 170.7 96 184C96 197.3 106.7 208 120 208L320 208C355.3 208 384 236.7 384 272C384 307.3 355.3 336 320 336L184 336C170.7 336 160 346.7 160 360C160 373.3 170.7 384 184 384L336 384C339.2 384 342.2 384.9 344.9 386.7L440.9 450.7C445.3 453.7 448 458.7 448 464L448 496C448 504.8 440.8 512 432 512C423.2 512 416 504.8 416 496L416 472.6L331.2 416L184 416C153.1 416 128 390.9 128 360C128 329.1 153.1 304 184 304L320 304C337.7 304 352 289.7 352 272C352 254.3 337.7 240 320 240L120 240C89.1 240 64 214.9 64 184z"/></svg>