<svg xmlns="http://www.w3.org/2000/svg" viewBox="0 0 640 640"><!--! Font Awesome Pro 7.1.0 by @fontawesome - https://fontawesome.com License - https://fontawesome.com/license (Commercial License) Copyright 2025 Fonticons, Inc. --><path fill="currentColor" d="M232 576C201.1 576 176 550.9 176 520L176 319.4C172.8 317.4 169.6 315.2 166.5 312.9L144 296C123.9 280.9 112 257.2 112 232L112 212.5C112 159.5 141.1 110.8 187.7 85.7L196 81.2C217 69.9 240.4 64 264.3 64L400 64C461.9 64 512 114.1 512 176L512 272C512 307.3 483.3 336 448 336C445.2 336 442.4 335.8 439.7 335.5C428.7 354.9 407.9 368 384 368C378.7 368 373.5 367.3 368.5 366.1C357.7 386.3 336.5 400 312 400C303.5 400 295.4 398.3 288 395.3L288 520C288 550.9 262.9 576 232 576zM208 520C208 533.3 218.7 544 232 544C245.3 544 256 533.3 256 520L256 362.5C256 355.4 260.6 349.2 267.4 347.2C274.2 345.2 281.4 347.8 285.4 353.7C291.2 362.4 301 368 312.1 368C327.7 368 340.7 356.8 343.5 342.1C344.5 337 347.9 332.6 352.7 330.5C357.5 328.4 363 328.7 367.5 331.4C372.3 334.3 378 336 384.1 336C398.8 336 411.3 326 415 312.4C416.2 308 419.2 304.3 423.3 302.3C427.4 300.3 432.1 300.1 436.4 301.7C440 303.1 444 303.9 448.2 303.9C465.9 303.9 480.2 289.6 480.2 271.9L480.2 175.9C480.2 131.7 444.4 95.9 400.2 95.9L264.3 96C245.8 96 227.5 100.6 211.2 109.4L211.2 109.4L202.9 113.9C166.6 133.4 144 171.3 144 212.5L144 232C144 247.1 151.1 261.3 163.2 270.4L176 280L176 232C176 223.2 183.2 216 192 216C200.8 216 208 223.2 208 232L208 520z"/></svg>