<svg xmlns="http://www.w3.org/2000/svg" viewBox="0 0 640 640"><!--! Font Awesome Pro 7.1.0 by @fontawesome - https://fontawesome.com License - https://fontawesome.com/license (Commercial License) Copyright 2025 Fonticons, Inc. --><path fill="currentColor" d="M571.3 123.3C577.5 117.1 577.5 106.9 571.3 100.7C565.1 94.5 554.9 94.5 548.7 100.7L494 155.4L481.1 146.8C462.7 134.5 441 128 418.9 128L215.8 128C186.1 128 157.6 139.8 136.6 160.8L132.7 164.7L36.7 260.7C30.5 266.9 30.5 277.1 36.7 283.3C42.9 289.5 53.1 289.5 59.3 283.3L155.3 187.3L159.2 183.4C174.2 168.4 194.6 160 215.8 160L281.4 160L176 265.4C163.5 277.9 163.5 298.2 176 310.7L176.8 311.5C220.5 355.2 291.5 355.2 335.2 311.5L368 278.6L471.4 382.1C490.1 400.8 490.1 431.2 471.4 450L452 469.4L419.3 436.7C413.1 430.5 402.9 430.5 396.7 436.7C390.5 442.9 390.5 453.1 396.7 459.3L428.3 491C409.4 504.6 386.5 512 362.9 512L350.5 512L307.2 468.7C301 462.5 290.8 462.5 284.6 468.7C278.4 474.9 278.4 485.1 284.6 491.3L305.3 512L276.9 512C247.2 512 218.7 500.2 197.7 479.2L187.2 468.7C181 462.5 170.8 462.5 164.6 468.7L68.6 564.7C62.4 570.9 62.4 581.1 68.6 587.3C74.8 593.5 85 593.5 91.2 587.3L176 502.6C202.9 529.1 239.2 544 277 544L363 544C401.2 544 437.8 528.8 464.8 501.8L494.1 472.5C495.3 471.3 496.5 470 497.6 468.7C498.2 468.2 498.8 467.7 499.3 467.2L603.3 363.2C609.5 357 609.5 346.8 603.3 340.6C597.1 334.4 586.9 334.4 580.7 340.6L516.7 404.6C514.3 388 506.8 372.1 494.1 359.3L379.3 244.7C373.1 238.5 362.9 238.5 356.7 244.7L312.6 288.8C281.4 320 230.7 320 199.5 288.8L198.7 288L326.7 160L419 160C434.8 160 450.2 164.7 463.4 173.4L487.2 189.3C493.5 193.5 502 192.7 507.4 187.3L571.4 123.3z"/></svg>