<svg xmlns="http://www.w3.org/2000/svg" viewBox="0 0 640 640"><!--! Font Awesome Pro 7.1.0 by @fontawesome - https://fontawesome.com License - https://fontawesome.com/license (Commercial License) Copyright 2025 Fonticons, Inc. --><path fill="currentColor" d="M304 288C365.9 288 416 237.9 416 176C416 114.1 365.9 64 304 64C242.1 64 192 114.1 192 176C192 237.9 242.1 288 304 288zM304 32C383.5 32 448 96.5 448 176C448 255.5 383.5 320 304 320C224.5 320 160 255.5 160 176C160 96.5 224.5 32 304 32zM288 96C288 87.2 295.2 80 304 80C312.8 80 320 87.2 320 96L320 104L336 104C344.8 104 352 111.2 352 120C352 128.8 344.8 136 336 136L290.2 136C284.6 136 280 140.6 280 146.2C280 151.1 283.5 155.3 288.3 156.2L333.3 164.4C353.3 168 367.9 185.5 367.9 205.9C367.9 229.2 349 248.1 325.7 248.1L319.9 248.1L319.9 256.1C319.9 264.9 312.7 272.1 303.9 272.1C295.1 272.1 287.9 264.9 287.9 256.1L287.9 248.1L271.9 248.1C263.1 248.1 255.9 240.9 255.9 232.1C255.9 223.3 263.1 216.1 271.9 216.1L325.7 216.1C331.3 216.1 335.9 211.5 335.9 205.9C335.9 201 332.4 196.8 327.6 195.9L282.6 187.7C262.6 184.1 248 166.6 248 146.2C248 123.6 265.7 105.2 288 104.1L288 96zM183 381.4C196.1 372.6 211.6 368 227.4 368L376 368C406.9 368 432 393.1 432 424C432 432.6 430.1 440.7 426.6 448L432.2 448L526.9 391.6C535.2 386.7 544.7 384 554.4 384L555.7 384C584.6 384 608 407.4 608 436.3C608 454 599 470.5 584.2 480.1L464.6 557.9C446.4 569.7 425.2 576 403.6 576L48 576C39.2 576 32 568.8 32 560C32 551.2 39.2 544 48 544L403.5 544C419 544 434.1 539.5 447.1 531.1L566.7 453.3C572.5 449.6 575.9 443.1 575.9 436.3C575.9 425.1 566.8 416 555.6 416L554.3 416C550.4 416 546.6 417.1 543.2 419L444.7 477.7C442.2 479.2 439.4 480 436.5 480L288 480C279.2 480 272 472.8 272 464C272 455.2 279.2 448 288 448L376 448C389.3 448 400 437.3 400 424C400 410.7 389.3 400 376 400L227.4 400C217.9 400 208.7 402.8 200.8 408.1L120.9 461.3C118.3 463.1 115.2 464 112 464L48 464C39.2 464 32 456.8 32 448C32 439.2 39.2 432 48 432L107.2 432L183 381.4z"/></svg>