<svg xmlns="http://www.w3.org/2000/svg" viewBox="0 0 640 640"><!--! Font Awesome Pro 7.1.0 by @fontawesome - https://fontawesome.com License - https://fontawesome.com/license (Commercial License) Copyright 2025 Fonticons, Inc. --><path fill="currentColor" d="M128 192C128 156.7 99.3 128 64 128C28.7 128 0 156.7 0 192L0 408.2C0 437.9 11.8 466.4 32.8 487.4L116.7 571.3C122.9 577.5 133.1 577.5 139.3 571.3C145.5 565.1 145.5 554.9 139.3 548.7L55.4 464.8C40.4 449.8 32 429.4 32 408.2L32 192C32 174.3 46.3 160 64 160C81.7 160 96 174.3 96 192L96 316.3C96 343.4 106.8 369.4 125.9 388.5L136.6 399.3C136.6 399.3 136.6 399.3 136.6 399.3L180.6 443.3C180.6 443.3 180.6 443.3 180.6 443.3L196.6 459.3C202.8 465.5 213 465.5 219.2 459.3C225.4 453.1 225.4 442.9 219.2 436.7L159.2 376.7C150 367.5 150 352.5 159.2 343.3C168.4 334.1 183.4 334.1 192.6 343.3L284 434.6C296.8 447.4 304 464.8 304 482.9L304 560C304 568.8 311.2 576 320 576C328.8 576 336 568.8 336 560L336 482.9C336 464.8 343.2 447.4 356 434.6L447.3 343.3C456.5 334.1 471.5 334.1 480.7 343.3C489.9 352.5 489.9 367.4 480.7 376.7L480.7 376.7L436.7 420.7L436.7 420.7L420.7 436.7C414.5 442.9 414.5 453.1 420.7 459.3C426.9 465.5 437.1 465.5 443.3 459.3L503.3 399.3L514.1 388.5C533.3 369.3 544 343.4 544 316.3L544 192C544 174.3 558.3 160 576 160C593.7 160 608 174.3 608 192L608 408.2C608 429.4 599.6 449.8 584.6 464.8L500.7 548.7C494.5 554.9 494.5 565.1 500.7 571.3C506.9 577.5 517.1 577.5 523.3 571.3L607.2 487.4C628.2 466.4 640 437.9 640 408.2L640 192C640 156.7 611.3 128 576 128C540.7 128 512 156.7 512 192L512 316.3C512 320.9 511.6 325.4 510.7 329.8C508.6 326.6 506.1 323.5 503.3 320.7C481.6 299 446.4 299 424.7 320.7L333.4 412C328.3 417.1 323.8 422.6 320 428.6C316.2 422.7 311.7 417.1 306.6 412L215.3 320.7C193.6 299 158.4 299 136.7 320.7C133.9 323.5 131.4 326.6 129.3 329.8C128.4 325.4 128 320.9 128 316.3L128 192z"/></svg>