<svg xmlns="http://www.w3.org/2000/svg" viewBox="0 0 640 640"><!--! Font Awesome Pro 7.1.0 by @fontawesome - https://fontawesome.com License - https://fontawesome.com/license (Commercial License) Copyright 2025 Fonticons, Inc. --><path fill="currentColor" d="M320 64C328.8 64 336 71.2 336 80L336 96L360 96C368.8 96 376 103.2 376 112C376 120.8 368.8 128 360 128L302.6 128C290.1 128 280 138.1 280 150.6C280 161.8 288.3 171.3 299.4 172.9L345.2 179.4C372.1 183.2 392 206.3 392 233.4C392 263.5 367.6 288 337.4 288L336 288L336 304C336 312.8 328.8 320 320 320C311.2 320 304 312.8 304 304L304 288L272 288C263.2 288 256 280.8 256 272C256 263.2 263.2 256 272 256L337.4 256C349.9 256 360 245.9 360 233.4C360 222.2 351.7 212.7 340.6 211.1L294.8 204.6C267.9 200.8 248 177.7 248 150.6C248 120.5 272.4 96 302.6 96L304 96L304 80C304 71.2 311.2 64 320 64zM183 381.4C196.1 372.6 211.6 368 227.4 368L376 368C406.9 368 432 393.1 432 424C432 432.6 430.1 440.7 426.6 448L432.2 448L526.9 391.6C535.2 386.7 544.7 384 554.4 384L555.7 384C584.6 384 608 407.4 608 436.3C608 454 599 470.5 584.2 480.1L464.6 557.9C446.4 569.7 425.2 576 403.6 576L48 576C39.2 576 32 568.8 32 560C32 551.2 39.2 544 48 544L403.5 544C419 544 434.1 539.5 447.1 531.1L566.7 453.3C572.5 449.6 575.9 443.1 575.9 436.3C575.9 425.1 566.8 416 555.6 416L554.3 416C550.4 416 546.6 417.1 543.2 419L444.7 477.7C442.2 479.2 439.4 480 436.5 480L288 480C279.2 480 272 472.8 272 464C272 455.2 279.2 448 288 448L376 448C389.3 448 400 437.3 400 424C400 410.7 389.3 400 376 400L227.4 400C217.9 400 208.7 402.8 200.8 408.1L120.9 461.3C118.3 463.1 115.2 464 112 464L48 464C39.2 464 32 456.8 32 448C32 439.2 39.2 432 48 432L107.2 432L183 381.4z"/></svg>