<svg xmlns="http://www.w3.org/2000/svg" viewBox="0 0 640 640"><!--! Font Awesome Pro 7.1.0 by @fontawesome - https://fontawesome.com License - https://fontawesome.com/license (Commercial License) Copyright 2025 Fonticons, Inc. --><path fill="currentColor" d="M336 379.6L336 295.6C336.2 282.5 346.9 272 360 272C373.3 272 384 282.7 384 296L384 368C384 376.8 391.2 384 400 384C408.8 384 416 376.8 416 368L416 243.4C416 234.8 413.2 226.4 408.1 219.5L340 128C337.5 124.6 336.1 120.6 336 116.4L336 115.7C336.2 104.8 345.1 96 356 96L357.3 96C364 96 370.3 99.2 374.4 104.5L464 224C474.4 237.8 480 254.7 480 272L480 368C480 374.4 483.8 380.2 489.7 382.7L601.7 430.7C609.8 434.2 619.2 430.4 622.7 422.3C626.2 414.2 622.4 404.8 614.3 401.3L512 357.4L512 272C512 247.8 504.1 224.2 489.6 204.8L400 85.3C389.9 71.9 374.1 64 357.3 64L356 64C342 64 329.3 69.5 320 78.5C310.6 69.5 297.9 64 283.9 64L282.6 64C265.9 64 250.1 71.9 240 85.3L150.4 204.8C135.9 224.2 128 247.8 128 272L128 357.4L25.7 401.2C17.6 404.7 13.8 414.1 17.3 422.2C20.8 430.3 30.2 434.1 38.3 430.6L150.3 382.6C156.2 380.1 160 374.3 160 367.9L160 271.9C160 254.6 165.6 237.7 176 223.9L265.6 104.5C269.6 99.1 276 96 282.7 96L284 96C295 96 303.9 104.8 304 115.7C304 115.9 304 116.2 304 116.4C303.9 120.6 302.5 124.7 300 128L231.9 219.5C226.8 226.4 224 234.8 224 243.4L224 368C224 376.8 231.2 384 240 384C248.8 384 256 376.8 256 368L256 296C256 282.7 266.7 272 280 272C293.1 272 303.8 282.5 304 295.6L304 296L304 378.9C304 379.1 304 379.4 304 379.6C303.7 419.1 279.2 454.5 242.3 468.6L42.3 545.1C34 548.3 29.9 557.5 33.1 565.8C36.3 574.1 45.5 578.2 53.8 575L253.8 498.5C282.6 487.5 305.8 466.8 320.1 440.9C334.4 466.7 357.5 487.5 386.4 498.5L586.4 575C594.7 578.2 603.9 574 607.1 565.8C610.3 557.6 606.1 548.3 597.9 545.1L397.9 468.6C360.9 454.5 336.5 419.1 336.2 379.6zM320 256.8C309.8 246.4 295.7 240 280 240C271.4 240 263.3 241.9 256 245.4L256 243.4C256 241.7 256.6 240 257.6 238.6L320 154.8L382.4 238.6C383.4 240 384 241.7 384 243.4L384 245.4C376.7 241.9 368.6 240 360 240C344.3 240 330.2 246.4 320 256.8zM336 379.6L336 295.6C336.2 282.5 346.9 272 360 272C373.3 272 384 282.7 384 296L384 368C384 376.8 391.2 384 400 384C408.8 384 416 376.8 416 368L416 243.4C416 234.8 413.2 226.4 408.1 219.5L340 128C337.5 124.6 336.1 120.6 336 116.4L336 115.7C336.2 104.8 345.1 96 356 96L357.3 96C364 96 370.3 99.2 374.4 104.5L464 224C474.4 237.8 480 254.7 480 272L480 368C480 374.4 483.8 380.2 489.7 382.7L601.7 430.7C609.8 434.2 619.2 430.4 622.7 422.3C626.2 414.2 622.4 404.8 614.3 401.3L512 357.4L512 272C512 247.8 504.1 224.2 489.6 204.8L400 85.3C389.9 71.9 374.1 64 357.3 64L356 64C342 64 329.3 69.5 320 78.5C310.6 69.5 297.9 64 283.9 64L282.6 64C265.9 64 250.1 71.9 240 85.3L150.4 204.8C135.9 224.2 128 247.8 128 272L128 357.4L25.7 401.2C17.6 404.7 13.8 414.1 17.3 422.2C20.8 430.3 30.2 434.1 38.3 430.6L150.3 382.6C156.2 380.1 160 374.3 160 367.9L160 271.9C160 254.6 165.6 237.7 176 223.9L265.6 104.5C269.6 99.1 276 96 282.7 96L284 96C295 96 303.9 104.8 304 115.7C304 115.9 304 116.2 304 116.4C303.9 120.6 302.5 124.7 300 128L231.9 219.5C226.8 226.4 224 234.8 224 243.4L224 368C224 376.8 231.2 384 240 384C248.8 384 256 376.8 256 368L256 296C256 282.7 266.7 272 280 272C293.1 272 303.8 282.5 304 295.6L304 296L304 378.9C304 379.1 304 379.4 304 379.6C303.7 419.1 279.2 454.5 242.3 468.6L42.3 545.1C34 548.3 29.9 557.5 33.1 565.8C36.3 574.1 45.5 578.2 53.8 575L253.8 498.5C282.6 487.5 305.8 466.8 320.1 440.9C334.4 466.7 357.5 487.5 386.4 498.5L586.4 575C594.7 578.2 603.9 574 607.1 565.8C610.3 557.6 606.1 548.3 597.9 545.1L397.9 468.6C360.9 454.5 336.5 419.1 336.2 379.6zM320 256.8C309.8 246.4 295.7 240 280 240C271.4 240 263.3 241.9 256 245.4L256 243.4C256 241.7 256.6 240 257.6 238.6L320 154.8L382.4 238.6C383.4 240 384 241.7 384 243.4L384 245.4C376.7 241.9 368.6 240 360 240C344.3 240 330.2 246.4 320 256.8z"/></svg>