<svg xmlns="http://www.w3.org/2000/svg" viewBox="0 0 640 640"><!--! Font Awesome Pro 7.1.0 by @fontawesome - https://fontawesome.com License - https://fontawesome.com/license (Commercial License) Copyright 2025 Fonticons, Inc. --><path fill="currentColor" d="M317.4 64.3C286.6 61.3 259.2 83.9 256.3 114.6L241.9 263L187.8 130.8C176.1 102.2 143.4 88.5 114.8 100.2C86.2 111.9 72.5 144.6 84.2 173.2L148.5 330.5C135.8 344.7 128 363.4 128 384L128 416C128 504.4 199.6 576 288 576L352 576C440.4 576 512 504.4 512 416L512 304C512 300.8 511.1 297.9 509.5 295.4C502.4 272.6 481.1 256 456 256C443.9 256 432.7 259.8 423.5 266.4C413.6 250.6 396 240 376 240C369.1 240 362.4 241.3 356.3 243.6L367.8 125.4C370.8 94.6 348.2 67.2 317.5 64.3zM175.1 311L113.8 161.1C108.8 148.8 114.7 134.8 126.9 129.8C139.1 124.8 153.2 130.7 158.2 142.9L224.1 304L208 304C196.3 304 185.2 306.5 175.1 311zM296 304L270.1 304L288.1 117.7C289.4 104.5 301.1 94.8 314.3 96.1C327.5 97.4 337.2 109.1 335.9 122.3L317.9 308.4C311.2 305.5 303.8 304 296 304zM376 272C389.3 272 400 282.7 400 296L400 360C400 373.3 389.3 384 376 384C362.7 384 352 373.3 352 360L352 296C352 282.7 362.7 272 376 272zM408.5 405.6C418.4 421.4 436 432 456 432C464.4 432 472.4 430.1 479.5 426.8C474 492.4 419 544 352 544L288 544C217.3 544 160 486.7 160 416L160 384C160 357.5 181.5 336 208 336L296 336C309.2 336 320 346.7 320 360L320 360C320 373.3 309.3 384 296 384L240 384C231.2 384 224 391.2 224 400C224 408.8 231.2 416 240 416L296 416C311.7 416 325.8 409.6 336 399.2C346.2 409.6 360.3 416 376 416C388.1 416 399.3 412.2 408.5 405.6zM480 376C480 389.2 469.2 400 456 400C442.7 400 432 389.3 432 376L432 312C432 298.7 442.7 288 456 288C469.2 288 480 298.7 480 312L480 376.1z"/></svg>