<svg xmlns="http://www.w3.org/2000/svg" viewBox="0 0 640 640"><!--! Font Awesome Pro 7.1.0 by @fontawesome - https://fontawesome.com License - https://fontawesome.com/license (Commercial License) Copyright 2025 Fonticons, Inc. --><path fill="currentColor" d="M457 274.6C443.9 283.4 428.4 288 412.6 288L264 288C233.1 288 208 262.9 208 232C208 223.4 209.9 215.3 213.4 208L207.8 208L113.1 264.4C104.8 269.3 95.3 272 85.6 272L84.3 272C55.4 272 32 248.6 32 219.7C32 202 41 185.5 55.8 175.8L175.4 98.1C193.6 86.3 214.8 80 236.4 80L592 80C600.8 80 608 87.2 608 96C608 104.8 600.8 112 592 112L236.5 112C221 112 205.9 116.5 192.9 124.9L73.2 202.7C67.4 206.4 64 212.8 64 219.7C64 230.9 73.1 240 84.3 240L85.6 240C89.5 240 93.3 238.9 96.7 237L195.2 178.3C197.7 176.8 200.5 176 203.4 176L352 176C360.8 176 368 183.2 368 192C368 200.8 360.8 208 352 208L264 208C250.7 208 240 218.7 240 232C240 245.3 250.7 256 264 256L412.6 256C422.1 256 431.3 253.2 439.2 247.9L519.1 194.6C521.7 192.8 524.8 191.9 528 191.9L592 191.9C600.8 191.9 608 199.1 608 207.9C608 216.7 600.8 223.9 592 223.9L532.8 223.9L457 274.5zM183 365.4C196.1 356.6 211.6 352 227.4 352L376 352C406.9 352 432 377.1 432 408C432 416.6 430.1 424.7 426.6 432L432.2 432L526.9 375.6C535.2 370.7 544.7 368 554.4 368L555.7 368C584.6 368 608 391.4 608 420.3C608 438 599 454.5 584.2 464.1L464.6 541.9C446.4 553.7 425.2 560 403.6 560L48 560C39.2 560 32 552.8 32 544C32 535.2 39.2 528 48 528L403.5 528C419 528 434.1 523.5 447.1 515.1L566.7 437.3C572.5 433.6 575.9 427.1 575.9 420.3C575.9 409.1 566.8 400 555.6 400L554.3 400C550.4 400 546.6 401.1 543.2 403L444.7 461.7C442.2 463.2 439.4 464 436.5 464L288 464C279.2 464 272 456.8 272 448C272 439.2 279.2 432 288 432L376 432C389.3 432 400 421.3 400 408C400 394.7 389.3 384 376 384L227.4 384C217.9 384 208.7 386.8 200.8 392.1L120.9 445.3C118.3 447.1 115.2 448 112 448L48 448C39.2 448 32 440.8 32 432C32 423.2 39.2 416 48 416L107.2 416L183 365.4z"/></svg>