<svg xmlns="http://www.w3.org/2000/svg" viewBox="0 0 640 640"><!--! Font Awesome Pro 7.1.0 by @fontawesome - https://fontawesome.com License - https://fontawesome.com/license (Commercial License) Copyright 2025 Fonticons, Inc. --><path fill="currentColor" d="M64 232C64 201.1 89.1 176 120 176L320.6 176C322.6 172.8 324.8 169.6 327.1 166.5L344 144C359.1 123.9 382.8 112 408 112L427.5 112C480.5 112 529.2 141.1 554.3 187.7L558.8 196C570.1 217 576 240.4 576 264.3L576 400C576 461.9 525.9 512 464 512L368 512C332.7 512 304 483.3 304 448C304 445.2 304.2 442.4 304.5 439.7C285.1 428.7 272 407.9 272 384C272 378.7 272.7 373.5 273.9 368.5C253.7 357.7 240 336.5 240 312C240 303.5 241.7 295.4 244.7 288L120 288C89.1 288 64 262.9 64 232zM120 208C106.7 208 96 218.7 96 232C96 245.3 106.7 256 120 256L277.5 256C284.6 256 290.8 260.6 292.8 267.4C294.8 274.2 292.2 281.4 286.3 285.4C277.6 291.2 272 301 272 312.1C272 327.7 283.2 340.7 297.9 343.5C303 344.5 307.4 347.9 309.5 352.7C311.6 357.5 311.3 363 308.6 367.5C305.7 372.3 304 378 304 384.1C304 398.8 314 411.3 327.6 415C332 416.2 335.7 419.2 337.7 423.3C339.7 427.4 339.9 432.1 338.3 436.4C336.9 440 336.1 444 336.1 448.2C336.1 465.9 350.4 480.2 368.1 480.2L464.1 480.2C508.3 480.2 544.1 444.4 544.1 400.2L544.1 264.5C544.1 246 539.5 227.7 530.7 211.4L530.7 211.4L526.2 203.1C506.6 166.6 468.7 144 427.5 144L408 144C392.9 144 378.7 151.1 369.6 163.2L360 176L408 176C416.8 176 424 183.2 424 192C424 200.8 416.8 208 408 208L120 208z"/></svg>