<svg xmlns="http://www.w3.org/2000/svg" viewBox="0 0 640 640"><!--! Font Awesome Pro 7.1.0 by @fontawesome - https://fontawesome.com License - https://fontawesome.com/license (Commercial License) Copyright 2025 Fonticons, Inc. --><path fill="currentColor" d="M336 80L336 112C336 120.8 328.8 128 320 128C311.2 128 304 120.8 304 112L304 80C304 71.2 311.2 64 320 64C328.8 64 336 71.2 336 80zM64 144L64 176C64 184.8 56.8 192 48 192C39.2 192 32 184.8 32 176L32 144C32 135.2 39.2 128 48 128C56.8 128 64 135.2 64 144zM128 144L128 176C128 184.8 120.8 192 112 192C103.2 192 96 184.8 96 176L96 144C96 135.2 103.2 128 112 128C120.8 128 128 135.2 128 144zM192 144L192 176C192 184.8 184.8 192 176 192C167.2 192 160 184.8 160 176L160 144C160 135.2 167.2 128 176 128C184.8 128 192 135.2 192 144zM256 144L256 176C256 184.8 248.8 192 240 192C231.2 192 224 184.8 224 176L224 144C224 135.2 231.2 128 240 128C248.8 128 256 135.2 256 144zM416 144L416 176C416 184.8 408.8 192 400 192C391.2 192 384 184.8 384 176L384 144C384 135.2 391.2 128 400 128C408.8 128 416 135.2 416 144zM480 144L480 176C480 184.8 472.8 192 464 192C455.2 192 448 184.8 448 176L448 144C448 135.2 455.2 128 464 128C472.8 128 480 135.2 480 144zM544 144L544 176C544 184.8 536.8 192 528 192C519.2 192 512 184.8 512 176L512 144C512 135.2 519.2 128 528 128C536.8 128 544 135.2 544 144zM608 144L608 176C608 184.8 600.8 192 592 192C583.2 192 576 184.8 576 176L576 144C576 135.2 583.2 128 592 128C600.8 128 608 135.2 608 144zM320 160C328.8 160 336 167.2 336 176L336 416L384 416L384 240C384 231.2 391.2 224 400 224C408.8 224 416 231.2 416 240L416 416L448 416L448 240C448 231.2 455.2 224 464 224C472.8 224 480 231.2 480 240L480 416L512 416L512 240C512 231.2 519.2 224 528 224C536.8 224 544 231.2 544 240L544 413.3C562.6 406.7 576 388.9 576 368L576 240C576 231.2 583.2 224 592 224C600.8 224 608 231.2 608 240L608 368C608 412.2 572.2 448 528 448L336 448L336 544L496 544C504.8 544 512 551.2 512 560C512 568.8 504.8 576 496 576L144 576C135.2 576 128 568.8 128 560C128 551.2 135.2 544 144 544L304 544L304 448L112 448C67.8 448 32 412.2 32 368L32 240C32 231.2 39.2 224 48 224C56.8 224 64 231.2 64 240L64 368C64 388.9 77.4 406.7 96 413.3L96 240C96 231.2 103.2 224 112 224C120.8 224 128 231.2 128 240L128 416L160 416L160 240C160 231.2 167.2 224 176 224C184.8 224 192 231.2 192 240L192 416L224 416L224 240C224 231.2 231.2 224 240 224C248.8 224 256 231.2 256 240L256 416L304 416L304 176C304 167.2 311.2 160 320 160z"/></svg>