<svg xmlns="http://www.w3.org/2000/svg" viewBox="0 0 640 640"><!--! Font Awesome Pro 7.1.0 by @fontawesome - https://fontawesome.com License - https://fontawesome.com/license (Commercial License) Copyright 2025 Fonticons, Inc. --><path fill="currentColor" d="M571.3 91.3L507.3 155.3C501.1 161.5 490.9 161.5 484.7 155.3C478.5 149.1 478.5 138.9 484.7 132.7L548.7 68.7C554.9 62.5 565.1 62.5 571.3 68.7C577.5 74.9 577.5 85.1 571.3 91.3zM251.3 411.3L91.3 571.3C85.1 577.5 74.9 577.5 68.7 571.3C62.5 565.1 62.5 554.9 68.7 548.7L228.7 388.7C234.9 382.5 245.1 382.5 251.3 388.7C257.5 394.9 257.5 405.1 251.3 411.3zM304 160C224.5 160 160 224.5 160 304C160 312.8 152.8 320 144 320C135.2 320 128 312.8 128 304C128 206.8 206.8 128 304 128C401.2 128 480 206.8 480 304C480 355.3 458.1 401.4 423.1 433.6C418.3 438 416 443.3 416 448C416 518.7 358.7 576 288 576L272 576C263.2 576 256 568.8 256 560C256 551.2 263.2 544 272 544L288 544C341 544 384 501 384 448C384 432.6 391.4 419.3 401.5 410C430.1 383.7 448 345.9 448 304C448 224.5 383.5 160 304 160zM304 224C259.8 224 224 259.8 224 304C224 312.8 216.8 320 208 320C199.2 320 192 312.8 192 304C192 242.1 242.1 192 304 192C365.9 192 416 242.1 416 304C416 312.8 408.8 320 400 320C391.2 320 384 312.8 384 304C384 259.8 348.2 224 304 224z"/></svg>