<svg xmlns="http://www.w3.org/2000/svg" viewBox="0 0 640 640"><!--! Font Awesome Pro 7.1.0 by @fontawesome - https://fontawesome.com License - https://fontawesome.com/license (Commercial License) Copyright 2025 Fonticons, Inc. --><path fill="currentColor" d="M266.2 64.4C274.8 66.3 280.3 74.8 278.5 83.4L255.2 192L439.8 192L464.5 76.6C466.4 68 474.9 62.5 483.5 64.3C492.1 66.1 497.6 74.7 495.8 83.3L472.5 192L560 192C568.8 192 576 199.2 576 208C576 216.8 568.8 224 560 224L465.6 224L424.5 416L512 416C520.8 416 528 423.2 528 432C528 440.8 520.8 448 512 448L417.6 448L392.9 563.4C391.1 572 382.5 577.5 373.9 575.7C365.3 573.9 359.8 565.3 361.6 556.7L384.9 448L200.3 448L175.6 563.4C173.7 572 165.2 577.5 156.6 575.7C148 573.9 142.5 565.3 144.3 556.7L167.6 448L80 448C71.2 448 64 440.8 64 432C64 423.2 71.2 416 80 416L174.5 416L215.6 224L128 224C119.2 224 112 216.8 112 208C112 199.2 119.2 192 128 192L222.5 192L247.2 76.6C249.1 68 257.6 62.5 266.2 64.3zM248.4 224L207.3 416L391.9 416L433 224L248.4 224z"/></svg>