<svg xmlns="http://www.w3.org/2000/svg" viewBox="0 0 640 640"><!--! Font Awesome Pro 7.1.0 by @fontawesome - https://fontawesome.com License - https://fontawesome.com/license (Commercial License) Copyright 2025 Fonticons, Inc. --><path fill="currentColor" d="M234.2 64.4C242.8 66.3 248.3 74.8 246.5 83.4L223.2 192L407.8 192L432.5 76.6C434.4 68 442.9 62.5 451.5 64.3C460.1 66.1 465.6 74.7 463.8 83.3L440.5 192L528 192C536.8 192 544 199.2 544 208C544 216.8 536.8 224 528 224L433.6 224L416.1 305.8C405.9 324.2 400 345.4 400 368L400 381L397 395.2C379.2 412.6 368 436.9 368 463.9L368 530.3L360.9 563.3C359.1 571.9 350.5 577.4 341.9 575.6C333.3 573.8 327.8 565.2 329.6 556.6L352.9 447.9L168.3 447.9L143.6 563.3C141.7 571.9 133.2 577.4 124.6 575.6C116 573.8 110.5 565.2 112.3 556.6L135.6 448L48 448C39.2 448 32 440.8 32 432C32 423.2 39.2 416 48 416L142.5 416L183.6 224L96 224C87.2 224 80 216.8 80 208C80 199.2 87.2 192 96 192L190.5 192L215.2 76.6C217.1 68 225.6 62.5 234.2 64.3zM216.4 224L175.3 416L359.9 416L401 224L216.4 224zM448 416.1L448 368.1C448 323.9 483.8 288.1 528 288.1C572.2 288.1 608 323.9 608 368.1L608 418.7C626.6 425.3 640 443.1 640 464L640 560C640 586.5 618.5 608 592 608L464 608C437.5 608 416 586.5 416 560L416 464C416 443.1 429.4 425.3 448 418.7L448 416.1zM448 464L448 560C448 568.8 455.2 576 464 576L592 576C600.8 576 608 568.8 608 560L608 464C608 455.8 601.8 449 593.7 448.1L462.2 448.1C454.2 449 447.9 455.8 447.9 464zM576 368.1C576 341.6 554.5 320.1 528 320.1C501.5 320.1 480 341.6 480 368.1L480 416L576 416L576 368.1z"/></svg>