<svg xmlns="http://www.w3.org/2000/svg" viewBox="0 0 640 640"><!--! Font Awesome Pro 7.1.0 by @fontawesome - https://fontawesome.com License - https://fontawesome.com/license (Commercial License) Copyright 2025 Fonticons, Inc. --><path fill="currentColor" d="M576 520C576 489.5 551.5 464.6 521.1 464L442.1 279.7C435.5 264.4 434.5 247.2 439.2 231.2L477.6 99.8C481.5 86.3 467.4 74.7 454.9 81.1L300 161C261.2 181 230.4 213.7 212.6 253.6L119.1 464C88.6 464.5 64 489.4 64 520C64 550.9 89.1 576 120 576L520 576C550.9 576 576 550.9 576 520zM412.8 292.3L486.4 464L304.1 464L304.1 432L336.1 432C344.9 432 352.1 424.8 352.1 416C352.1 407.2 344.9 400 336.1 400L304.1 400L304.1 368C304.1 359.2 296.9 352 288.1 352C279.3 352 272.1 359.2 272.1 368L272.1 400L240.1 400C231.3 400 224.1 407.2 224.1 416C224.1 424.8 231.3 432 240.1 432L272.1 432L272.1 464L154.2 464L241.9 266.7C256.7 233.4 282.4 206.2 314.7 189.5L436.4 126.7L408.5 222.3C401.8 245.4 403.3 270.2 412.7 292.4zM544 520C544 533.3 533.3 544 520 544L120 544C106.7 544 96 533.3 96 520C96 506.7 106.7 496 120 496L520 496C533.3 496 544 506.7 544 520zM352 240C352 231.2 344.8 224 336 224C327.2 224 320 231.2 320 240L320 256L304 256C295.2 256 288 263.2 288 272C288 280.8 295.2 288 304 288L320 288L320 304C320 312.8 327.2 320 336 320C344.8 320 352 312.8 352 304L352 288L368 288C376.8 288 384 280.8 384 272C384 263.2 376.8 256 368 256L352 256L352 240z"/></svg>