<svg xmlns="http://www.w3.org/2000/svg" viewBox="0 0 640 640"><!--! Font Awesome Pro 7.1.0 by @fontawesome - https://fontawesome.com License - https://fontawesome.com/license (Commercial License) Copyright 2025 Fonticons, Inc. --><path fill="currentColor" d="M320 96C287.6 96 258.9 112.1 241.5 136.8C236.5 143.8 226.9 145.7 219.7 141C207.2 132.8 192.2 128.1 176 128.1C131.8 128.1 96 163.9 96 208.1C96 242.9 118.2 272.6 149.3 283.6C155.7 285.9 160 291.9 160 298.7L160 416.2L224 416.2L224 288.2C224 279.4 231.2 272.2 240 272.2C248.8 272.2 256 279.4 256 288.2L256 416.2L304 416.2L304 288.2C304 279.4 311.2 272.2 320 272.2C328.8 272.2 336 279.4 336 288.2L336 416.2L384 416.2L384 288.2C384 279.4 391.2 272.2 400 272.2C408.8 272.2 416 279.4 416 288.2L416 416.2L480 416.2L480 298.7C480 291.9 484.3 285.9 490.7 283.6C521.8 272.6 544 243 544 208.1C544 163.9 508.2 128.1 464 128.1C447.9 128.1 432.9 132.9 420.3 141C413.1 145.7 403.4 143.9 398.5 136.8C381.1 112.1 352.4 96 320 96zM480 448L160 448L160 512C160 529.7 174.3 544 192 544L448 544C465.7 544 480 529.7 480 512L480 448zM224.3 106.9C247.8 80.6 281.9 64 320 64C358.1 64 392.2 80.6 415.7 106.9C430.3 99.9 446.8 96 464 96C525.9 96 576 146.1 576 208C576 252.7 549.8 291.2 512 309.2L512 512C512 547.3 483.3 576 448 576L192 576C156.7 576 128 547.3 128 512L128 309.2C90.2 291.2 64 252.7 64 208C64 146.1 114.1 96 176 96C193.3 96 209.7 99.9 224.3 106.9z"/></svg>