<svg xmlns="http://www.w3.org/2000/svg" viewBox="0 0 640 640"><!--! Font Awesome Pro 7.1.0 by @fontawesome - https://fontawesome.com License - https://fontawesome.com/license (Commercial License) Copyright 2025 Fonticons, Inc. --><path fill="currentColor" d="M253.8 128C232.7 128 214.4 142.7 209.8 163.3L185.3 273.8C203.5 276.2 221.2 281 238.1 288L457.9 288L430.2 163.3C425.6 142.7 407.3 128 386.2 128L385.2 128C378.8 128 372.6 129.5 366.9 132.3C337.4 147.1 302.6 147.1 273.1 132.3C267.4 129.5 261.2 128 254.8 128L253.8 128zM152.9 272.1L178.6 156.3C186.4 121.1 217.7 96 253.8 96L254.8 96C266.1 96 277.3 98.6 287.4 103.7C307.9 114 332.1 114 352.6 103.7C362.7 98.6 373.9 96 385.2 96L386.2 96C422.3 96 453.6 121.1 461.4 156.3L487.3 272.6C572.9 280.4 640 352.4 640 440L640 444C640 481.6 609.6 512 572 512L68 512C30.4 512 0 481.6 0 444L0 430.5C0 344.9 67.9 275.1 152.9 272.1zM494.7 305.9L533.3 480L572 480C591.9 480 608 463.9 608 444L608 440C608 372.6 559 316.7 494.6 305.9zM495 454.8L465 320L292.8 320L494.9 454.7zM158.5 304C88.6 304 32 360.6 32 430.5L32 444C32 463.9 48.1 480 68 480L475.2 480L255 333.2C226.4 314.1 192.8 304 158.5 304z"/></svg>