<svg xmlns="http://www.w3.org/2000/svg" viewBox="0 0 640 640"><!--! Font Awesome Pro 7.1.0 by @fontawesome - https://fontawesome.com License - https://fontawesome.com/license (Commercial License) Copyright 2025 Fonticons, Inc. --><path fill="currentColor" d="M445.7 96C439.6 96 433.6 97.6 428.3 100.7L315.4 166.5C275.8 189.6 246.8 227.2 234.5 271.4L203.2 384L437.8 384L404.3 258.5C401 246.1 401.4 233 405.5 220.9C414.4 194.1 439.5 176.1 467.7 176.1L468.6 176.1C485 176.1 500.8 182.1 513 193L543.9 220.5L543.9 190.1C543.9 175.9 537.6 162.3 526.6 153.2L467.8 104C461.6 98.8 453.7 96 445.6 96zM176.6 480L463.4 480L446.3 416L194.3 416L176.5 480zM143.4 480L144.6 475.7L203.7 262.9C218.2 210.7 252.5 166.2 299.3 138.9L412.1 73.1C422.3 67.2 433.9 64 445.7 64C461.3 64 476.4 69.5 488.3 79.4L547.2 128.5C565.5 143.7 576 166.2 576 190L576 256C576 262.3 572.3 268 566.6 270.6C560.9 273.2 554.1 272.1 549.4 268L491.9 216.8C485.5 211.1 477.3 208 468.7 208L467.8 208C453.3 208 440.5 217.2 435.9 231C433.8 237.2 433.6 243.9 435.3 250.3L495.5 475.9L496.6 480L528 480C554.5 480 576 501.5 576 528C576 554.5 554.5 576 528 576L112 576C85.5 576 64 554.5 64 528C64 501.5 85.5 480 112 480L143.4 480zM112 512C103.2 512 96 519.2 96 528C96 536.8 103.2 544 112 544L528 544C536.8 544 544 536.8 544 528C544 519.2 536.8 512 528 512L112 512z"/></svg>