<svg xmlns="http://www.w3.org/2000/svg" viewBox="0 0 640 640"><!--! Font Awesome Pro 7.1.0 by @fontawesome - https://fontawesome.com License - https://fontawesome.com/license (Commercial License) Copyright 2025 Fonticons, Inc. --><path fill="currentColor" d="M310.2 96C290.7 96 273.1 107.8 265.7 125.9L154.1 400L484.9 400L390 176.2C381.1 155.3 381.6 131.7 391.2 111.1L398.2 96L310.2 96zM419.4 163.7L519.9 400.6C542.8 404.2 560.4 424.1 560.4 448L560.4 496C560.4 522.5 538.9 544 512.4 544L128.4 544C101.9 544 80.4 522.5 80.4 496L80.4 448C80.4 424.7 97.1 405.2 119.1 400.9L236.1 113.8C248.4 83.7 277.7 64 310.2 64L448.4 64C438.2 85.9 428.7 106.1 420.1 124.6C414.3 136.9 414.1 151.1 419.4 163.6zM128.4 512L512.4 512C521.2 512 528.4 504.8 528.4 496L528.4 448C528.4 439.2 521.2 432 512.4 432L128.4 432C119.6 432 112.4 439.2 112.4 448L112.4 496C112.4 504.8 119.6 512 128.4 512zM520 100.5C516.4 105.9 509.9 108.6 503.5 107.3C500.3 106.7 496.9 107.6 494.4 110C491.9 112.4 491 115.9 491.7 119.1C493 125.5 490.3 132 484.9 135.6C482.2 137.4 480.4 140.5 480.4 143.9C480.4 147.3 482.1 150.4 484.9 152.2C490.3 155.8 493 162.3 491.7 168.7C491.1 171.9 492 175.3 494.4 177.8C496.8 180.3 500.2 181.2 503.5 180.5C509.9 179.2 516.4 181.9 520 187.3C521.8 190 524.9 191.8 528.3 191.8C531.7 191.8 534.8 190.1 536.6 187.3C540.2 181.9 546.7 179.2 553.1 180.5C556.3 181.1 559.7 180.2 562.2 177.8C564.7 175.4 565.6 171.9 564.9 168.7C563.6 162.3 566.3 155.8 571.7 152.2C574.4 150.4 576.2 147.3 576.2 143.9C576.2 140.5 574.4 137.4 571.7 135.6C566.3 132 563.6 125.5 564.9 119.1C565.5 115.9 564.6 112.5 562.2 110C559.8 107.5 556.3 106.6 553.1 107.3C546.7 108.6 540.2 105.9 536.6 100.5C534.8 97.8 531.7 96 528.3 96C524.9 96 521.8 97.7 520 100.5zM528.4 64C539.4 64 549.4 68.2 556.9 75.2C567.1 75.6 577.2 79.7 584.9 87.5C592.6 95.3 596.8 105.4 597.2 115.5C604.1 123 608.3 133 608.3 144C608.3 155 604.1 165 597.2 172.5C596.8 182.7 592.7 192.8 584.9 200.5C577.1 208.2 567 212.4 556.9 212.8C549.4 219.7 539.4 224 528.4 224C517.4 224 507.4 219.8 499.9 212.8C489.7 212.4 479.6 208.3 471.9 200.5C464.2 192.7 460 182.6 459.6 172.5C452.7 165 448.4 155 448.4 144C448.4 133 452.6 123 459.6 115.5C460 105.3 464.1 95.2 471.9 87.5C479.7 79.8 489.8 75.6 499.9 75.2C507.3 68.2 517.4 64 528.4 64z"/></svg>