<svg xmlns="http://www.w3.org/2000/svg" viewBox="0 0 640 640"><!--! Font Awesome Pro 7.1.0 by @fontawesome - https://fontawesome.com License - https://fontawesome.com/license (Commercial License) Copyright 2025 Fonticons, Inc. --><path fill="currentColor" d="M311.6 100.5C313.4 97.8 316.5 96 319.9 96C323.3 96 326.4 97.7 328.2 100.5C331.8 105.9 338.3 108.6 344.7 107.3C347.9 106.7 351.3 107.6 353.8 110C356.3 112.4 357.2 115.9 356.5 119.1C355.2 125.5 357.9 132 363.3 135.6C366 137.4 367.8 140.5 367.8 143.9C367.8 147.3 366 150.4 363.3 152.2C357.9 155.8 355.2 162.3 356.5 168.7C357.1 171.9 356.2 175.3 353.8 177.8C351.4 180.3 347.9 181.2 344.7 180.5C338.3 179.2 331.8 181.9 328.2 187.3C326.4 190 323.3 191.8 319.9 191.8C316.5 191.8 313.4 190.1 311.6 187.3C308 181.9 301.5 179.2 295.1 180.5C291.9 181.1 288.5 180.2 286 177.8C283.5 175.4 282.6 171.9 283.3 168.7C284.6 162.3 281.9 155.8 276.5 152.2C273.8 150.4 272 147.3 272 143.9C272 140.5 273.7 137.4 276.5 135.6C281.9 132 284.6 125.5 283.3 119.1C282.7 115.9 283.6 112.5 286 110C288.4 107.5 291.9 106.6 295.1 107.3C301.5 108.6 308 105.9 311.6 100.5zM320 64C309 64 299 68.2 291.5 75.2C281.3 75.6 271.2 79.7 263.5 87.5C255.8 95.3 251.6 105.4 251.2 115.5C244.2 122.9 240 132.9 240 144C240 155.1 244.2 165 251.2 172.5C251.6 182.7 255.7 192.8 263.5 200.5L263.7 200.7C167.4 232 120.7 343.5 103.7 448.7C81.2 452.6 64 472.3 64 496L64 528C64 554.5 85.5 576 112 576L528 576C554.5 576 576 554.5 576 528L576 496C576 472.3 558.8 452.6 536.3 448.7C519.4 343.5 472.6 232 376.4 200.6C376.5 200.6 376.5 200.5 376.5 200.5C384.3 192.7 388.4 182.6 388.8 172.5C395.7 165 399.9 155 399.9 144C399.9 133 395.7 123 388.8 115.5C388.4 105.3 384.3 95.2 376.5 87.5C368.7 79.8 358.6 75.6 348.5 75.2C341 68.2 331 64 320 64zM154.8 373.6L186.8 386.4C211.3 396.2 239 393.3 260.9 378.7L293.4 357C309.5 346.3 330.5 346.3 346.7 357L379.2 378.7C401.1 393.3 428.8 396.2 453.3 386.4L485.3 373.6C493.4 397.7 499.5 422.9 503.8 448L136.3 448C140.6 422.9 146.7 397.6 154.9 373.6zM166.3 343.7C168.3 339.1 170.4 334.6 172.5 330.2C204 265.9 251 224 319.9 224C388.8 224 435.9 265.8 467.3 330.2C469.5 334.6 471.5 339.1 473.5 343.7L441.1 356.6C426.4 362.5 409.8 360.7 396.6 352L364.1 330.3C337.2 312.4 302.2 312.4 275.3 330.3L243.1 352C229.9 360.8 213.3 362.5 198.6 356.6L166.2 343.7zM112 544C103.2 544 96 536.8 96 528L96 496C96 487.2 103.2 480 112 480L528 480C536.8 480 544 487.2 544 496L544 528C544 536.8 536.8 544 528 544L112 544z"/></svg>