<svg xmlns="http://www.w3.org/2000/svg" viewBox="0 0 640 640"><!--! Font Awesome Pro 7.1.0 by @fontawesome - https://fontawesome.com License - https://fontawesome.com/license (Commercial License) Copyright 2025 Fonticons, Inc. --><path fill="currentColor" d="M253.8 128C232.7 128 214.4 142.7 209.8 163.3L182.1 288L457.9 288L430.2 163.3C425.6 142.7 407.3 128 386.2 128L385.2 128C378.9 128 372.6 129.5 366.9 132.3C337.4 147.1 302.6 147.1 273.1 132.3C267.4 129.5 261.2 128 254.8 128L253.8 128zM175 320L151.8 424.6C141.2 420.5 131.4 414.9 122.7 408L178.6 156.3C186.4 121.1 217.7 96 253.8 96L254.8 96C266.1 96 277.3 98.6 287.4 103.7C307.9 114 332.1 114 352.6 103.7C362.7 98.6 373.9 96 385.2 96L386.2 96C422.3 96 453.6 121.1 461.4 156.3L517.3 408C508.6 414.9 498.8 420.5 488.2 424.6L465 320L175 320zM16 304C24.8 304 32 311.2 32 320C32 408.4 103.6 480 192 480L448 480C536.4 480 608 408.4 608 320C608 311.2 615.2 304 624 304C632.8 304 640 311.2 640 320C640 426 554 512 448 512L192 512C86 512 0 426 0 320C0 311.2 7.2 304 16 304z"/></svg>