<svg xmlns="http://www.w3.org/2000/svg" viewBox="0 0 640 640"><!--! Font Awesome Pro 7.1.0 by @fontawesome - https://fontawesome.com License - https://fontawesome.com/license (Commercial License) Copyright 2025 Fonticons, Inc. --><path fill="currentColor" d="M320.4 72C327 72 332.9 76 335.3 82.2L373.8 181.2L466.9 130.2C472.7 127 479.8 127.7 484.9 132C490 136.3 491.9 143.1 489.8 149.4L455.7 250L559.9 270.8C566.4 272.1 571.4 277.2 572.5 283.7C573.6 290.2 570.7 296.7 565 300.2L474.2 355.3L540.6 438.2C544.7 443.3 545.3 450.5 542 456.2C538.7 461.9 532.2 465 525.7 464L420.7 447.9L418.3 554.1C418.2 560.7 414 566.5 407.8 568.8C401.6 571.1 394.7 569.3 390.3 564.3L320.2 484.5L250.1 564.3C245.7 569.3 238.8 571 232.6 568.8C226.4 566.6 222.2 560.7 222.1 554.1L219.7 447.9L114.7 464C108.2 465 101.7 461.9 98.4 456.2C95.1 450.5 95.6 443.3 99.8 438.2L166.2 355.3L75.4 300.2C69.8 296.8 66.8 290.2 67.9 283.7C69 277.2 74.1 272.1 80.5 270.8L185 249.9L150.9 149.3C148.8 143.1 150.7 136.1 155.8 131.9C160.9 127.7 168 127 173.8 130.1L266.9 181.1L305.4 82.1C307.8 76 313.8 72 320.4 72zM320.4 132.1L290.2 209.8C288.5 214.1 285.1 217.5 280.8 219C276.5 220.5 271.7 220.2 267.6 218L194.5 177.9L221.3 256.8C222.8 261.2 222.3 265.9 220 269.9C217.7 273.9 213.8 276.7 209.3 277.6L127.4 294L198.7 337.2C202.6 339.6 205.4 343.6 206.2 348.1C207 352.6 205.8 357.3 202.9 360.9L150.8 425.9L233.2 413.3C237.8 412.6 242.4 413.9 245.9 416.9C249.4 419.9 251.5 424.2 251.6 428.8L253.5 512.1L308.5 449.5C311.5 446 315.9 444.1 320.5 444.1C325.1 444.1 329.5 446.1 332.5 449.5L387.5 512.1L389.3 428.8C389.4 424.2 391.5 419.9 395 416.9C398.5 413.9 403.2 412.6 407.7 413.3L490.1 425.9L438 360.9C435.1 357.3 433.9 352.6 434.7 348.1C435.5 343.6 438.2 339.6 442.2 337.2L513.4 293.9L431.7 277.6C427.2 276.7 423.3 273.9 421 269.9C418.7 265.9 418.2 261.1 419.7 256.8L446.5 177.9L373.4 218C369.4 220.2 364.6 220.6 360.2 219C355.8 217.4 352.4 214.1 350.8 209.8L320.4 132.1z"/></svg>