<svg xmlns="http://www.w3.org/2000/svg" viewBox="0 0 640 640"><!--! Font Awesome Pro 7.1.0 by @fontawesome - https://fontawesome.com License - https://fontawesome.com/license (Commercial License) Copyright 2025 Fonticons, Inc. --><path fill="currentColor" d="M160 128C142.3 128 128 142.3 128 160L128 328.6C137.4 323.2 148.3 320 160 320L480 320C491.7 320 502.6 323.1 512 328.6L512 160C512 142.3 497.7 128 480 128L160 128zM128 384L128 480C128 497.7 142.3 512 160 512L480 512C497.7 512 512 497.7 512 480L512 384C512 366.3 497.7 352 480 352L160 352C142.3 352 128 366.3 128 384zM96 384L96 160C96 124.7 124.7 96 160 96L480 96C515.3 96 544 124.7 544 160L544 480C544 515.3 515.3 544 480 544L160 544C124.7 544 96 515.3 96 480L96 384zM352 408C365.3 408 376 418.7 376 432C376 445.3 365.3 456 352 456C338.7 456 328 445.3 328 432C328 418.7 338.7 408 352 408zM448 408C461.3 408 472 418.7 472 432C472 445.3 461.3 456 448 456C434.7 456 424 445.3 424 432C424 418.7 434.7 408 448 408z"/></svg>