<svg xmlns="http://www.w3.org/2000/svg" viewBox="0 0 640 640"><!--! Font Awesome Pro 7.1.0 by @fontawesome - https://fontawesome.com License - https://fontawesome.com/license (Commercial License) Copyright 2025 Fonticons, Inc. --><path fill="currentColor" d="M96 280C96 178.4 178.4 96 280 96C373.6 96 450.9 165.9 462.5 256.4C463 259.9 464.6 263.2 467.1 265.7L519.5 318.1C525 323.6 528.1 331 528.1 338.8C528.1 355 515 368.1 498.8 368.1L480 368C471.2 368 464 375.2 464 384L464 432C464 458.5 442.5 480 416 480L368 480C359.2 480 352 487.2 352 496L352 560C352 568.8 359.2 576 368 576C376.8 576 384 568.8 384 560L384 512L416 512C460.2 512 496 476.2 496 432L496 400L498.7 400C532.5 400 560 372.6 560 338.7C560 322.5 553.5 306.9 542.1 295.4L493.5 246.8C477.5 143.3 388 64 280 64C160.7 64 64 160.7 64 280C64 340 88.5 394.3 128 433.5L128 560C128 568.8 135.2 576 144 576C152.8 576 160 568.8 160 560L160 426.6C160 422.1 158.1 417.9 154.9 414.9C118.7 381.3 96 333.3 96 280zM308.4 234.2C314.9 227.7 323.8 224 333.1 224L336 224C353.7 224 368 238.3 368 256C368 277.4 353.5 298.5 333.4 317C316.5 332.5 298 344 288 349.7C278 344 259.5 332.5 242.6 317C222.5 298.5 208 277.3 208 256C208 238.3 222.3 224 240 224L242.9 224C252.2 224 261 227.7 267.6 234.2L276.7 243.3C279.7 246.3 283.8 248 288 248C292.2 248 296.3 246.3 299.3 243.3L308.4 234.2zM333.1 192C316.4 192 300.3 198.3 288 209.5C275.7 198.3 259.6 192 242.9 192L240 192C204.7 192 176 220.7 176 256C176 291.3 199.1 320.5 221 340.6C243.4 361.2 267.8 375.3 276.9 380.2C283.9 384 292.2 384 299.1 380.2C308.2 375.3 332.6 361.2 355 340.6C376.8 320.5 400 291.3 400 256C400 220.7 371.3 192 336 192L333.1 192z"/></svg>