<svg xmlns="http://www.w3.org/2000/svg" viewBox="0 0 640 640"><!--! Font Awesome Pro 7.1.0 by @fontawesome - https://fontawesome.com License - https://fontawesome.com/license (Commercial License) Copyright 2025 Fonticons, Inc. --><path fill="currentColor" d="M240 100.4L240 163.4C240 185 229.1 202.5 217 213.9C201.5 228.5 192 249.1 192 272C192 316.2 227.8 352 272 352C316.2 352 352 316.2 352 272C352 249.1 342.4 228.5 327 213.9C314.9 202.5 304 185 304 163.4L304 97.6C296.1 96.6 288.1 96 280 96C266.3 96 252.9 97.5 240 100.4zM208 110.6C142.2 138.6 96 203.9 96 280C96 333.3 118.6 381.3 154.9 414.9C158.2 417.9 160 422.2 160 426.6L160 560C160 568.8 152.8 576 144 576C135.2 576 128 568.8 128 560L128 433.5C88.5 394.3 64 340 64 280C64 160.7 160.7 64 280 64C388 64 477.5 143.3 493.5 246.8L542.1 295.4C553.6 306.9 560 322.5 560 338.7C560 372.5 532.6 400 498.7 400L496 400L496 432C496 476.2 460.2 512 416 512L384 512L384 560C384 568.8 376.8 576 368 576C359.2 576 352 568.8 352 560L352 496C352 487.2 359.2 480 368 480L416 480C442.5 480 464 458.5 464 432L464 384C464 375.2 471.2 368 480 368L498.7 368C514.9 368 528 354.9 528 338.7C528 330.9 524.9 323.5 519.4 318L467 265.6C464.5 263.1 462.9 259.8 462.4 256.3C453.2 184.7 402.9 126 335.9 104.6L335.9 163.3C335.9 173.8 341.2 183.3 348.8 190.5C370.4 210.9 383.9 239.8 383.9 271.9C383.9 333.8 333.8 383.9 271.9 383.9C210 383.9 160 333.9 160 272C160 239.9 173.5 211 195.1 190.6C202.7 183.4 208 173.8 208 163.4L208 110.6zM272 248C285.3 248 296 258.7 296 272C296 285.3 285.3 296 272 296C258.7 296 248 285.3 248 272C248 258.7 258.7 248 272 248z"/></svg>