<svg xmlns="http://www.w3.org/2000/svg" viewBox="0 0 640 640"><!--! Font Awesome Pro 7.1.0 by @fontawesome - https://fontawesome.com License - https://fontawesome.com/license (Commercial License) Copyright 2025 Fonticons, Inc. --><path fill="currentColor" d="M304 97.5L304 164.2C313.6 169.7 320 180.1 320 191.9C320 209.6 305.7 223.9 288 223.9C270.3 223.9 256 209.6 256 191.9C256 180.1 262.4 169.7 272 164.2L272 96.1C237.4 97.6 205.4 108.6 178.3 126.6L194.6 151C203.4 164.1 208 179.6 208 195.4L208 228.3C217.6 233.8 224 244.2 224 256C224 273.7 209.7 288 192 288C174.3 288 160 273.7 160 256C160 244.2 166.4 233.8 176 228.3L176 195.4C176 185.9 173.2 176.7 167.9 168.8L153.2 146.7C118 180.2 96 227.6 96 280C96 333.3 118.6 381.3 154.9 414.9C158.2 417.9 160 422.2 160 426.6L160 560C160 568.8 152.8 576 144 576C135.2 576 128 568.8 128 560L128 433.5C88.5 394.3 64 340 64 280C64 160.7 160.7 64 280 64C282.1 64 284.2 64 286.4 64.1C286.9 64 287.4 64 288 64C289 64 290 64.1 290.9 64.3C394 69.4 478 146.8 493.5 246.8L542.1 295.4C553.6 306.9 560 322.5 560 338.7C560 372.5 532.6 400 498.7 400L496 400L496 432C496 476.2 460.2 512 416 512L384 512L384 560C384 568.8 376.8 576 368 576C359.2 576 352 568.8 352 560L352 496C352 487.2 359.2 480 368 480L416 480C442.5 480 464 458.5 464 432L464 384C464 375.2 471.2 368 480 368L498.7 368C514.9 368 528 354.9 528 338.7C528 330.9 524.9 323.5 519.4 318L467 265.6C464.5 263.1 462.9 259.8 462.4 256.3C457.5 218 440.9 183.5 416.2 156.3L408 168.7C402.7 176.6 399.9 185.8 399.9 195.3L399.9 228.2C409.5 233.7 415.9 244.1 415.9 255.9C415.9 273.6 401.6 287.9 383.9 287.9C366.2 287.9 351.9 273.6 351.9 255.9C351.9 244.1 358.3 233.7 367.9 228.2L367.9 195.3C367.9 179.5 372.6 164.1 381.3 150.9L392 135.1C392.2 134.9 392.3 134.6 392.5 134.4C367.4 114.9 337 101.8 304 97.5zM256 320C256 302.3 270.3 288 288 288C305.7 288 320 302.3 320 320C320 337.7 305.7 352 288 352C270.3 352 256 337.7 256 320z"/></svg>