<svg xmlns="http://www.w3.org/2000/svg" viewBox="0 0 640 640"><!--! Font Awesome Pro 7.1.0 by @fontawesome - https://fontawesome.com License - https://fontawesome.com/license (Commercial License) Copyright 2025 Fonticons, Inc. --><path fill="currentColor" d="M128 288C128 182 214 96 320 96C426 96 512 182 512 288L512 344.4C495 329.2 472.6 320 448 320L432 320C405.5 320 384 341.5 384 368L384 496C384 522.5 405.5 544 432 544L448 544C501 544 544 501 544 448L544 288C544 164.3 443.7 64 320 64C196.3 64 96 164.3 96 288L96 448C96 501 139 544 192 544L208 544C234.5 544 256 522.5 256 496L256 368C256 341.5 234.5 320 208 320L192 320C167.4 320 145 329.2 128 344.4L128 288zM128 416C128 380.7 156.7 352 192 352L208 352C216.8 352 224 359.2 224 368L224 496C224 504.8 216.8 512 208 512L192 512C156.7 512 128 483.3 128 448L128 416zM512 416L512 448C512 483.3 483.3 512 448 512L432 512C423.2 512 416 504.8 416 496L416 368C416 359.2 423.2 352 432 352L448 352C483.3 352 512 380.7 512 416z"/></svg>