<svg xmlns="http://www.w3.org/2000/svg" viewBox="0 0 640 640"><!--! Font Awesome Pro 7.1.0 by @fontawesome - https://fontawesome.com License - https://fontawesome.com/license (Commercial License) Copyright 2025 Fonticons, Inc. --><path fill="currentColor" d="M140.5 160L312.4 160C329.9 140.4 355.4 128.1 383.7 128C354.2 107.8 318.4 96 280 96C224.2 96 174.2 120.8 140.5 160zM293.5 192L118.4 192C107.8 211.5 100.6 233.1 97.6 256L293.5 256C290 246 288 235.2 288 224C288 212.8 289.9 202 293.5 192zM312.5 288L64.1 288C64 285.3 64 282.7 64 280C64 160.7 160.7 64 280 64C340 64 394.3 88.5 433.5 128L512 128C547.3 128 576 156.7 576 192L576 256C576 276.7 566.2 295.1 551 306.8C556.8 316.3 560 327.4 560 338.8C560 372.6 532.6 400.1 498.7 400.1L496 400.1L496 432.1C496 476.3 460.2 512.1 416 512.1L384 512.1L384 560.1C384 568.9 376.8 576.1 368 576.1C359.2 576.1 352 568.9 352 560.1L352 496.1C352 487.3 359.2 480.1 368 480.1L416 480.1C442.5 480.1 464 458.6 464 432.1L464 384.1C464 375.3 471.2 368.1 480 368.1L498.7 368.1C514.9 368.1 528 355 528 338.8C528 331.7 525.4 324.8 520.7 319.5C517.9 319.9 514.9 320.1 512 320.1L384 320.1C355.6 320.1 330 307.7 312.4 288.1zM489.4 288L512 288C529.7 288 544 273.7 544 256L544 192C544 174.3 529.7 160 512 160L384 160C348.7 160 320 188.7 320 224C320 259.3 348.7 288 384 288L489.4 288zM128 433.5C101.2 407 81.4 373.5 71.3 336L104.6 336C114.3 366.5 131.8 393.6 154.8 414.9C158.1 417.9 159.9 422.2 159.9 426.6L160 560C160 568.8 152.8 576 144 576C135.2 576 128 568.8 128 560L128 433.5z"/></svg>