<svg xmlns="http://www.w3.org/2000/svg" viewBox="0 0 640 640"><!--! Font Awesome Pro 7.1.0 by @fontawesome - https://fontawesome.com License - https://fontawesome.com/license (Commercial License) Copyright 2025 Fonticons, Inc. --><path fill="currentColor" d="M96 280C96 178.4 178.4 96 280 96C373.6 96 450.9 165.9 462.5 256.4C463 259.9 464.6 263.2 467.1 265.7L519.5 318.1C525 323.6 528.1 331 528.1 338.8C528.1 355 515 368.1 498.8 368.1L480 368C471.2 368 464 375.2 464 384L464 432C464 458.5 442.5 480 416 480L368 480C359.2 480 352 487.2 352 496L352 560C352 568.8 359.2 576 368 576C376.8 576 384 568.8 384 560L384 512L416 512C460.2 512 496 476.2 496 432L496 400L498.7 400C532.5 400 560 372.6 560 338.7C560 322.5 553.5 306.9 542.1 295.4L493.5 246.8C477.5 143.3 388 64 280 64C160.7 64 64 160.7 64 280C64 340 88.5 394.3 128 433.5L128 560C128 568.8 135.2 576 144 576C152.8 576 160 568.8 160 560L160 426.6C160 422.1 158.1 417.9 154.9 414.9C118.7 381.3 96 333.3 96 280zM240 144C209.6 144 184.1 165.2 177.6 193.6C149.2 200.1 128 225.6 128 256C128 291.3 156.7 320 192 320C206.6 339.4 229.8 352 256 352C288.8 352 317 332.2 329.3 304L352 304C387.3 304 416 275.3 416 240C416 207.3 391.4 180.3 359.7 176.5C348.7 157.1 327.9 144 304 144C292.4 144 281.4 147.1 272 152.6C262.6 147.2 251.6 144 240 144zM208 208C208 190.3 222.3 176 240 176C248.2 176 255.7 179.1 261.3 184.1C267.4 189.5 276.6 189.5 282.6 184.1C288.3 179 295.7 176 303.9 176C317.8 176 329.7 184.9 334.1 197.3C336.4 203.7 342.4 208 349.2 208L351.9 208C369.6 208 383.9 222.3 383.9 240C383.9 257.7 369.6 272 351.9 272L317.9 272C310.6 272 304.2 276.9 302.4 284C297.1 304.7 278.3 320 255.9 320C237.9 320 222.3 310.1 214 295.5C210.7 289.6 204 286.4 197.3 287.6C195.5 287.9 193.7 288.1 191.8 288.1C174.1 288.1 159.8 273.8 159.8 256.1C159.8 238.4 174.1 224.1 191.8 224.1C200.6 224.1 207.8 216.9 207.8 208.1z"/></svg>