<svg xmlns="http://www.w3.org/2000/svg" viewBox="0 0 640 640"><!--! Font Awesome Pro 7.1.0 by @fontawesome - https://fontawesome.com License - https://fontawesome.com/license (Commercial License) Copyright 2025 Fonticons, Inc. --><path fill="currentColor" d="M59.3 36.8C53.1 30.6 42.9 30.6 36.7 36.8C30.5 43 30.5 53.2 36.7 59.4L580.7 603.4C586.9 609.6 597.1 609.6 603.3 603.4C609.5 597.2 609.5 587 603.3 580.8L526.2 503.7C537.4 488 544 468.8 544 448L544 288C544 164.3 443.7 64 320 64C255.7 64 197.8 91.1 156.9 134.4L59.3 36.8zM179.6 157.1C214.6 119.5 264.6 96 320 96C426 96 512 182 512 288L512 344.4C495 329.2 472.6 320 448 320L432 320C407.6 320 387.4 338.2 384.4 361.9L179.6 157.1zM416 393.5L416 368C416 359.2 423.2 352 432 352L448 352C483.3 352 512 380.7 512 416L512 448C512 459.9 508.8 471 503.1 480.6L416 393.5zM112.6 203.1C101.9 229.3 96 258 96 288L96 448C96 501 139 544 192 544L208 544C234.5 544 256 522.5 256 496L256 368C256 341.5 234.5 320 208 320L192 320C167.4 320 145 329.2 128 344.4L128 288C128 267.1 131.4 246.9 137.5 228.1L112.6 203.1zM128 432L128 416C128 380.7 156.7 352 192 352L208 352C216.8 352 224 359.2 224 368L224 496C224 504.8 216.8 512 208 512L192 512C156.7 512 128 483.3 128 448L128 432z"/></svg>