<svg xmlns="http://www.w3.org/2000/svg" viewBox="0 0 640 640"><!--! Font Awesome Pro 7.1.0 by @fontawesome - https://fontawesome.com License - https://fontawesome.com/license (Commercial License) Copyright 2025 Fonticons, Inc. --><path fill="currentColor" d="M88.1 64C85.4 64 82.8 64.1 80.1 64.2L80.1 64C71.3 64 64.1 56.8 64.1 48C64.1 39.2 71.3 32 80.1 32C80.7 32 81.2 32 81.7 32.1C83.8 32 85.9 32 88.1 32C196.1 32 285.6 111.3 301.6 214.8L350.2 263.4C361.7 274.9 368.1 290.5 368.1 306.7C368.1 340.5 340.7 368 306.8 368L304.1 368L304.1 408C304.1 415.5 298.8 422.1 291.5 423.6L197.7 443.7C194.5 444.4 192.2 447.2 192.2 450.5C192.2 454.2 195 457.2 198.7 457.5L289.3 464C297.7 464.6 304.2 471.6 304.2 480L304.2 496C304.2 540.2 268.4 576 224.2 576L80.2 576C71.4 576 64.2 568.8 64.2 560C64.2 551.2 71.4 544 80.2 544L224.2 544C250.7 544 272.2 522.5 272.2 496L272.2 494.9L196.4 489.5C176 488 160.2 471.1 160.2 450.6C160.2 432.2 173 416.3 191 412.5L272.2 395.1L272.2 352C272.2 343.2 279.4 336 288.2 336L306.9 336C323.1 336 336.2 322.9 336.2 306.7C336.2 298.9 333.1 291.5 327.6 286L275.2 233.6C272.7 231.1 271.1 227.8 270.6 224.3C259 133.8 181.7 63.9 88.1 63.9zM160.1 248C160.1 234.7 170.8 224 184.1 224C197.4 224 208.1 234.7 208.1 248C208.1 261.3 197.4 272 184.1 272C170.8 272 160.1 261.3 160.1 248zM513.8 283.3C520 277.1 530.2 277.1 536.4 283.3C630.1 377 630.1 529 536.4 622.7C530.2 628.9 520 628.9 513.8 622.7C507.6 616.5 507.6 606.3 513.8 600.1C595 518.9 595 387.2 513.8 305.9C507.6 299.7 507.6 289.5 513.8 283.3zM446 351.2C452.2 345 462.4 345 468.6 351.2C524.8 407.4 524.8 498.6 468.6 554.8C462.4 561 452.2 561 446 554.8C439.8 548.6 439.8 538.4 446 532.2C489.7 488.5 489.7 417.5 446 373.8C439.8 367.6 439.8 357.4 446 351.2z"/></svg>