<svg xmlns="http://www.w3.org/2000/svg" viewBox="0 0 640 640"><!--! Font Awesome Pro 7.1.0 by @fontawesome - https://fontawesome.com License - https://fontawesome.com/license (Commercial License) Copyright 2025 Fonticons, Inc. --><path fill="currentColor" d="M96 280C96 178.4 178.4 96 280 96C373.6 96 450.9 165.9 462.5 256.4C463 259.9 464.6 263.2 467.1 265.7L519.5 318.1C525 323.6 528.1 331 528.1 338.8C528.1 355 515 368.1 498.8 368.1L480 368C471.2 368 464 375.2 464 384L464 432C464 458.5 442.5 480 416 480L368 480C359.2 480 352 487.2 352 496L352 560C352 568.8 359.2 576 368 576C376.8 576 384 568.8 384 560L384 512L416 512C460.2 512 496 476.2 496 432L496 400L498.7 400C532.5 400 560 372.6 560 338.7C560 322.5 553.5 306.9 542.1 295.4L493.5 246.8C477.5 143.3 388 64 280 64C160.7 64 64 160.7 64 280C64 340 88.5 394.3 128 433.5L128 560C128 568.8 135.2 576 144 576C152.8 576 160 568.8 160 560L160 426.6C160 422.1 158.1 417.9 154.9 414.9C118.7 381.3 96 333.3 96 280zM272 192C254.3 192 240 206.3 240 224L240 240L224 240C206.3 240 192 254.3 192 272L192 304C192 321.7 206.3 336 224 336L240 336L240 352C240 369.7 254.3 384 272 384L304 384C321.7 384 336 369.7 336 352L336 336L352 336C369.7 336 384 321.7 384 304L384 272C384 254.3 369.7 240 352 240L336 240L336 224C336 206.3 321.7 192 304 192L272 192zM304 328L304 352L272 352L272 312C272 307.6 268.4 304 264 304L224 304L224 272L264 272C268.4 272 272 268.4 272 264L272 224L304 224L304 264C304 268.4 307.6 272 312 272L352 272L352 304L312 304C307.6 304 304 307.6 304 312L304 328z"/></svg>