<svg xmlns="http://www.w3.org/2000/svg" viewBox="0 0 640 640"><!--! Font Awesome Pro 7.1.0 by @fontawesome - https://fontawesome.com License - https://fontawesome.com/license (Commercial License) Copyright 2025 Fonticons, Inc. --><path fill="currentColor" d="M352.1 265.4L580.7 36.8C586.9 30.6 597.1 30.6 603.3 36.8C609.5 43 609.5 53.2 603.3 59.4L59.3 603.4C53.1 609.6 42.9 609.6 36.7 603.4C30.5 597.2 30.5 587 36.7 580.8L67.7 549.8C68.3 549.1 69 548.4 69.8 547.7L275.7 341.8C276.3 341 277.1 340.3 277.8 339.7L329.4 288.1L275 233.7C272.5 231.2 270.9 227.9 270.4 224.4C258.8 134.1 181.8 64.2 88.4 64L88 64C79.2 64 72 56.8 72 48C72 39.2 79.2 32 88 32L88 32C196 32 285.5 111.3 301.5 214.8L352.1 265.4zM238 492.5L267.9 462.6L289.1 464.1C297.5 464.7 304 471.7 304 480.1L304 496.1C304 540.3 268.2 576.1 224 576.1L154.5 576.1L186.5 544.1L224 544.1C250.5 544.1 272 522.6 272 496.1L272 495L238 492.6zM184 224C197.3 224 208 234.7 208 248C208 261.3 197.3 272 184 272C170.7 272 160 261.3 160 248C160 234.7 170.7 224 184 224zM544 328C557.3 328 568 338.7 568 352C568 365.3 557.3 376 544 376C530.7 376 520 365.3 520 352C520 338.7 530.7 328 544 328zM456 400C456 386.7 466.7 376 480 376C493.3 376 504 386.7 504 400C504 413.3 493.3 424 480 424C466.7 424 456 413.3 456 400zM392 448C392 434.7 402.7 424 416 424C429.3 424 440 434.7 440 448C440 461.3 429.3 472 416 472C402.7 472 392 461.3 392 448zM520 448C520 434.7 530.7 424 544 424C557.3 424 568 434.7 568 448C568 461.3 557.3 472 544 472C530.7 472 520 461.3 520 448zM544 520C557.3 520 568 530.7 568 544C568 557.3 557.3 568 544 568C530.7 568 520 557.3 520 544C520 530.7 530.7 520 544 520zM456 496C456 482.7 466.7 472 480 472C493.3 472 504 482.7 504 496C504 509.3 493.3 520 480 520C466.7 520 456 509.3 456 496z"/></svg>