<svg xmlns="http://www.w3.org/2000/svg" viewBox="0 0 640 640"><!--! Font Awesome Pro 7.1.0 by @fontawesome - https://fontawesome.com License - https://fontawesome.com/license (Commercial License) Copyright 2025 Fonticons, Inc. --><path fill="currentColor" d="M96 280C96 178.4 178.4 96 280 96C373.6 96 450.9 165.9 462.5 256.4C463 259.9 464.6 263.2 467.1 265.7L519.5 318.1C525 323.6 528.1 331 528.1 338.8C528.1 355 515 368.1 498.8 368.1L480 368C471.2 368 464 375.2 464 384L464 432C464 458.5 442.5 480 416 480L368 480C359.2 480 352 487.2 352 496L352 560C352 568.8 359.2 576 368 576C376.8 576 384 568.8 384 560L384 512L416 512C460.2 512 496 476.2 496 432L496 400L498.7 400C532.5 400 560 372.6 560 338.7C560 322.5 553.5 306.9 542.1 295.4L493.5 246.8C477.5 143.3 388 64 280 64C160.7 64 64 160.7 64 280C64 340 88.5 394.3 128 433.5L128 560C128 568.8 135.2 576 144 576C152.8 576 160 568.8 160 560L160 426.6C160 422.1 158.1 417.9 154.9 414.9C118.7 381.3 96 333.3 96 280zM384 280C397.3 280 408 269.3 408 256C408 242.7 397.3 232 384 232C370.7 232 360 242.7 360 256C360 269.3 370.7 280 384 280z"/></svg>