<svg xmlns="http://www.w3.org/2000/svg" viewBox="0 0 640 640"><!--! Font Awesome Pro 7.1.0 by @fontawesome - https://fontawesome.com License - https://fontawesome.com/license (Commercial License) Copyright 2025 Fonticons, Inc. --><path fill="currentColor" d="M96 280C96 268 97.2 256.2 99.4 244.9L288 360.9L288 512C288 547.3 316.7 576 352 576L461.1 576C490.9 576 516.8 555.4 523.5 526.4L553.5 396.4C557.8 377.7 560.1 358.4 560.1 338.8L560.1 336L560 336C559.3 320.7 553 306.3 542.1 295.4L493.5 246.8C477.5 143.3 388 64 280 64C160.7 64 64 160.7 64 280C64 340 88.5 394.3 128 433.5L128 560C128 568.8 135.2 576 144 576C152.8 576 160 568.8 160 560L160 426.6C160 422.1 158.1 417.9 154.9 414.9C118.7 381.3 96 333.3 96 280zM308.5 336L108.6 213C135.4 144.5 202 96 280 96C373.6 96 450.9 165.9 462.5 256.4C463 259.9 464.6 263.2 467.1 265.7L519.5 318.1C524.3 322.9 527.3 329.3 527.9 336L308.6 336zM320 368L526.1 368C525.2 375.1 523.9 382.2 522.3 389.2L516.1 416L400 416C391.2 416 384 423.2 384 432C384 440.8 391.2 448 400 448L508.7 448L501.3 480L400 480C391.2 480 384 487.2 384 496C384 504.8 391.2 512 400 512L493.9 512L492.2 519.2C488.9 533.7 476 544 461.1 544L352 544C334.3 544 320 529.7 320 512L320 368zM384 280C397.3 280 408 269.3 408 256C408 242.7 397.3 232 384 232C370.7 232 360 242.7 360 256C360 269.3 370.7 280 384 280z"/></svg>