<svg xmlns="http://www.w3.org/2000/svg" viewBox="0 0 640 640"><!--! Font Awesome Pro 7.1.0 by @fontawesome - https://fontawesome.com License - https://fontawesome.com/license (Commercial License) Copyright 2025 Fonticons, Inc. --><path fill="currentColor" d="M88 64C85.3 64 82.7 64.1 80 64.2L80 64C71.2 64 64 56.8 64 48C64 39.2 71.2 32 80 32C80.6 32 81.1 32 81.6 32.1C83.7 32 85.8 32 88 32C196 32 285.5 111.3 301.5 214.8L350.1 263.4C361.6 274.9 368 290.5 368 306.7C368 340.5 340.6 368 306.7 368L304 368L304 408C304 415.5 298.7 422.1 291.4 423.6L197.6 443.7C194.4 444.4 192.1 447.2 192.1 450.5C192.1 454.2 194.9 457.2 198.6 457.5L289.2 464C297.6 464.6 304.1 471.6 304.1 480L304.1 496C304.1 540.2 268.3 576 224.1 576L80 576C71.2 576 64 568.8 64 560C64 551.2 71.2 544 80 544L224 544C250.5 544 272 522.5 272 496L272 494.9L196.2 489.5C175.8 488 160 471.1 160 450.6C160 432.2 172.8 416.3 190.8 412.5L272 395.1L272 352C272 343.2 279.2 336 288 336L306.7 336C322.9 336 336 322.9 336 306.7C336 298.9 332.9 291.5 327.4 286L275 233.6C272.6 231.2 271 227.9 270.5 224.4C258.9 133.9 181.6 64 88 64zM160 248C160 234.7 170.7 224 184 224C197.3 224 208 234.7 208 248C208 261.3 197.3 272 184 272C170.7 272 160 261.3 160 248zM520 352C520 338.7 530.7 328 544 328C557.3 328 568 338.7 568 352C568 365.3 557.3 376 544 376C530.7 376 520 365.3 520 352zM480 376C493.3 376 504 386.7 504 400C504 413.3 493.3 424 480 424C466.7 424 456 413.3 456 400C456 386.7 466.7 376 480 376zM416 424C429.3 424 440 434.7 440 448C440 461.3 429.3 472 416 472C402.7 472 392 461.3 392 448C392 434.7 402.7 424 416 424zM544 424C557.3 424 568 434.7 568 448C568 461.3 557.3 472 544 472C530.7 472 520 461.3 520 448C520 434.7 530.7 424 544 424zM520 544C520 530.7 530.7 520 544 520C557.3 520 568 530.7 568 544C568 557.3 557.3 568 544 568C530.7 568 520 557.3 520 544zM480 472C493.3 472 504 482.7 504 496C504 509.3 493.3 520 480 520C466.7 520 456 509.3 456 496C456 482.7 466.7 472 480 472z"/></svg>