<svg xmlns="http://www.w3.org/2000/svg" viewBox="0 0 640 640"><!--! Font Awesome Pro 7.1.0 by @fontawesome - https://fontawesome.com License - https://fontawesome.com/license (Commercial License) Copyright 2025 Fonticons, Inc. --><path fill="currentColor" d="M197.1 128C141.3 128 96 173.3 96 229.1C96 284.2 130.4 336.3 167.8 381.6C206.7 428.9 253.4 470.8 288 498L288 182.2L279.1 169.9L279.1 169.9C260.1 143.6 229.6 128 197.1 128zM64 229.1C64 155.6 123.6 96 197.1 96C239.8 96 280 116.5 305 151.1L317 167.6C319 170.3 320 173.6 320 177L320 525.8C320 530.8 317.7 535.5 313.7 538.6C309.7 541.7 304.5 542.6 299.7 541.2C291.5 538.9 283.8 535.1 276.9 529.9C240.4 502 187.2 455.5 143.1 402C105.6 356.5 64 296.5 64 229.2z"/></svg>