<svg xmlns="http://www.w3.org/2000/svg" viewBox="0 0 640 640"><!--! Font Awesome Pro 7.1.0 by @fontawesome - https://fontawesome.com License - https://fontawesome.com/license (Commercial License) Copyright 2025 Fonticons, Inc. --><path fill="currentColor" d="M319.6 64C327.1 63.8 333.7 68.9 335.5 76.1L419.5 412.1L465.1 298C467.5 291.9 473.4 287.9 480 287.9L592 287.9C600.8 287.9 608 295.1 608 303.9C608 312.7 600.8 319.9 592 319.9L490.8 319.9L430.8 469.8C428.2 476.2 421.8 480.3 414.9 479.8C408 479.3 402.1 474.4 400.5 467.7L321.8 152.7L239.8 562.9C238.3 570.2 232 575.6 224.5 575.8C217 576 210.4 570.9 208.6 563.7L147.5 320L48 320C39.2 320 32 312.8 32 304C32 295.2 39.2 288 48 288L160 288C167.3 288 173.7 293 175.5 300.1L222.2 487.1L304.2 76.9C305.8 69.5 312.1 64.2 319.6 64z"/></svg>