<svg xmlns="http://www.w3.org/2000/svg" viewBox="0 0 640 640"><!--! Font Awesome Pro 7.1.0 by @fontawesome - https://fontawesome.com License - https://fontawesome.com/license (Commercial License) Copyright 2025 Fonticons, Inc. --><path fill="currentColor" d="M410.9 128C378.5 128 348 143.6 329 169.9L301 208.6C298 212.8 293.2 215.2 288 215.2C282.8 215.2 278 212.7 275 208.6L247 169.9C228 143.6 197.5 128 165.1 128C109.2 128 64 173.3 64 229.1C64 284.1 98.4 336.2 135.8 381.6C177.9 432.8 229.2 477.6 264.3 504.5C268.1 507.4 272.7 509.6 277.7 510.8C280.6 522.3 284.5 533.4 289.4 544C288.9 544 288.5 544 288 544C272.4 544 257.2 539.4 244.9 529.9C208.4 502 155.2 455.5 111.1 402C73.6 356.5 32 296.5 32 229.2C32 155.7 91.6 96.1 165.1 96.1C207.8 96.1 247.9 116.6 273 151.2L288 171.9L303 151.2C328 116.6 368.2 96.1 410.9 96.1C484.4 96.1 544 155.7 544 229.2C544 248.6 540.5 267.5 534.7 285.5C524.9 281.6 514.6 278.5 504.1 276.3C509.1 260.9 512 245.2 512 229.2C512 173.3 466.7 128.1 410.9 128.1zM576 464C576 402.1 525.9 352 464 352C402.1 352 352 402.1 352 464C352 525.9 402.1 576 464 576C525.9 576 576 525.9 576 464zM320 464C320 384.5 384.5 320 464 320C543.5 320 608 384.5 608 464C608 543.5 543.5 608 464 608C384.5 608 320 543.5 320 464zM523.3 427.3L486.6 464L523.3 500.7C529.5 506.9 529.5 517.1 523.3 523.3C517.1 529.5 506.9 529.5 500.7 523.3L464 486.6L427.3 523.3C421.1 529.5 410.9 529.5 404.7 523.3C398.5 517.1 398.5 506.9 404.7 500.7L441.4 464L404.7 427.3C398.5 421.1 398.5 410.9 404.7 404.7C410.9 398.5 421.1 398.5 427.3 404.7L464 441.4L500.7 404.7C506.9 398.5 517.1 398.5 523.3 404.7C529.5 410.9 529.5 421.1 523.3 427.3z"/></svg>