<svg xmlns="http://www.w3.org/2000/svg" viewBox="0 0 640 640"><!--! Font Awesome Pro 7.1.0 by @fontawesome - https://fontawesome.com License - https://fontawesome.com/license (Commercial License) Copyright 2025 Fonticons, Inc. --><path fill="currentColor" d="M160 128C142.3 128 128 142.3 128 160L128 480C128 497.7 142.3 512 160 512L480 512C497.7 512 512 497.7 512 480L512 160C512 142.3 497.7 128 480 128L160 128zM96 160C96 124.7 124.7 96 160 96L480 96C515.3 96 544 124.7 544 160L544 480C544 515.3 515.3 544 480 544L160 544C124.7 544 96 515.3 96 480L96 160zM340.4 274.2L331.3 283.3C328.3 286.3 324.2 288 320 288C315.8 288 311.7 286.3 308.7 283.3L299.6 274.2C293.1 267.7 284.2 264 274.9 264L272 264C254.3 264 240 278.3 240 296C240 317.4 254.5 338.5 274.6 357C291.4 372.5 310 384 320 389.7C330 384 348.5 372.5 365.4 357C385.5 338.5 400 317.3 400 296C400 278.3 385.7 264 368 264L365.1 264C355.8 264 347 267.7 340.4 274.2zM365.1 232L368 232C403.3 232 432 260.7 432 296C432 331.3 408.9 360.5 387 380.6C364.6 401.2 340.2 415.3 331.1 420.2C324.1 424 315.8 424 308.9 420.2C299.8 415.3 275.4 401.2 253 380.6C231.2 360.5 208 331.3 208 296C208 260.7 236.7 232 272 232L274.9 232C291.6 232 307.7 238.3 320 249.5C332.3 238.3 348.4 232 365.1 232z"/></svg>