<svg xmlns="http://www.w3.org/2000/svg" viewBox="0 0 640 640"><!--! Font Awesome Pro 7.1.0 by @fontawesome - https://fontawesome.com License - https://fontawesome.com/license (Commercial License) Copyright 2025 Fonticons, Inc. --><path fill="currentColor" d="M320 96C443.7 96 544 196.3 544 320C544 443.7 443.7 544 320 544C196.3 544 96 443.7 96 320C96 196.3 196.3 96 320 96zM320 576C461.4 576 576 461.4 576 320C576 178.6 461.4 64 320 64C178.6 64 64 178.6 64 320C64 461.4 178.6 576 320 576zM340.4 282.2C346.9 275.7 355.8 272 365.1 272L368 272C385.7 272 400 286.3 400 304C400 325.4 385.5 346.5 365.4 365C348.5 380.5 330 392 320 397.7C310 392 291.5 380.5 274.6 365C254.5 346.5 240 325.3 240 304C240 286.3 254.3 272 272 272L274.9 272C284.2 272 293 275.7 299.6 282.2L308.7 291.3C311.7 294.3 315.8 296 320 296C324.2 296 328.3 294.3 331.3 291.3L340.4 282.2zM365.1 240C348.4 240 332.3 246.3 320 257.5C307.7 246.3 291.6 240 274.9 240L272 240C236.7 240 208 268.7 208 304C208 339.3 231.1 368.5 253 388.6C275.4 409.2 299.8 423.3 308.9 428.2C315.9 432 324.2 432 331.1 428.2C340.2 423.3 364.6 409.2 387 388.6C408.8 368.5 432 339.3 432 304C432 268.7 403.3 240 368 240L365.1 240z"/></svg>