<svg xmlns="http://www.w3.org/2000/svg" viewBox="0 0 640 640"><!--! Font Awesome Pro 7.1.0 by @fontawesome - https://fontawesome.com License - https://fontawesome.com/license (Commercial License) Copyright 2025 Fonticons, Inc. --><path fill="currentColor" d="M313.8 116.5C353.3 113 388.2 142.3 391.6 181.8C392.1 187.1 392.1 192.4 391.7 197.7C402.3 203.3 412.2 210.1 421.2 218C423.7 205.3 424.7 192.3 423.5 179C418.5 121.9 368.1 79.6 311 84.6C277.8 87.5 248 106.2 230.9 134.8L223.9 146.5L215 136.2C193.2 111 160.6 97.8 127.4 100.7C70.3 105.7 28 156.1 33 213.2C37.5 265.1 73.5 308 104.5 339.6C129.7 365.3 157.9 388.1 182.5 406C176.8 390.4 172.4 373.8 170.3 356.3C155.8 344.4 141 331.3 127.3 317.3C96.5 285.9 68.3 250.1 64.8 210.5C61.3 171 90.6 136.1 130.1 132.7C153.1 130.7 175.6 139.8 190.7 157.3L214.1 184.4C217.5 188.3 222.5 190.3 227.6 189.9C232.7 189.5 237.3 186.6 239.9 182.2L258.3 151.5C270.1 131.7 290.7 118.8 313.7 116.8zM450.3 301.1C465.4 283.7 487.9 274.5 510.9 276.5C550.4 280 579.7 314.8 576.2 354.3C572.7 393.9 544.6 429.7 513.7 461.1C479.2 496.3 438.2 526.3 410.4 543.9C406.2 546.5 400.8 547.9 394.7 547.4C388.6 546.9 383.5 544.6 379.8 541.3C355.5 519.1 320.3 482.5 292.4 441.8C267.5 405.5 246 365.4 249.4 325.8C252.9 286.3 287.7 257 327.2 260.5C350.2 262.5 370.8 275.4 382.6 295.2L401 325.9C403.6 330.3 408.2 333.2 413.3 333.6C418.4 334 423.4 332 426.8 328.1L450.2 301zM513.7 244.7C480.5 241.8 447.9 255 426.1 280.2L417.2 290.5L410.2 278.8C393.1 250.2 363.3 231.5 330.1 228.6C273 223.6 222.6 265.9 217.6 323C213.1 374.9 241 423.4 266.1 459.9C295.8 503.1 332.7 541.6 358.3 564.9C376.8 581.8 406.4 584.4 427.6 571C456.9 552.4 499.9 521 536.6 483.6C567.6 452 603.6 409.1 608.1 357.2C613.1 300.1 570.8 249.7 513.7 244.7z"/></svg>