<svg xmlns="http://www.w3.org/2000/svg" viewBox="0 0 640 640"><!--! Font Awesome Pro 7.1.0 by @fontawesome - https://fontawesome.com License - https://fontawesome.com/license (Commercial License) Copyright 2025 Fonticons, Inc. --><path fill="currentColor" d="M442.9 128C410.5 128 380 143.6 361 169.9L333 208.6C330 212.8 325.2 215.2 320 215.2C314.8 215.2 310 212.7 307 208.6L279 169.9C260.1 143.6 229.6 128 197.1 128C141.3 128 96 173.3 96 229.1C96 266.5 111.9 302.5 133.8 336L187.4 336C193.7 336 199.4 332.3 202 326.6L233.5 257.4C236 251.8 241.5 248.2 247.6 248C253.7 247.8 259.4 251.1 262.2 256.5L321.1 367.8L370.4 287.6C373.4 282.8 378.6 279.9 384.3 280C390 280.1 395.1 283.2 397.9 288.1L420.7 328C423.5 333 428.9 336.1 434.6 336.1L506.3 336.1C528.1 302.5 544 266.5 544 229.1C544 173.3 498.7 128 442.9 128zM512 368L434.6 368C417.4 368 401.5 358.8 392.9 343.8L383.5 327.3L333.6 408.3C330.6 413.2 325.2 416.1 319.5 415.9C313.8 415.7 308.6 412.5 305.9 407.4L249.1 300.2L231.1 339.8C223.3 357 206.2 368 187.4 368L116.9 368C88.5 328.2 64 280.9 64 229.1C64 155.6 123.6 96 197.1 96C239.8 96 280 116.5 305 151.1L320 171.8L335 151.1C360 116.5 400.2 96 442.9 96C516.4 96 576 155.6 576 229.1C576 280.9 551.5 328.2 523.1 368L512 368zM155 416L198.2 416C232.8 452.6 269.3 483.9 296.3 504.5C302.5 509.3 310.7 512 320 512C329.3 512 337.4 509.3 343.7 504.5C370.7 483.9 407.2 452.6 441.8 416L485 416C443.5 463.6 396.3 504.5 363.1 529.9C350.7 539.3 335.5 544 320 544C304.5 544 289.2 539.4 276.9 529.9C243.6 504.5 196.5 463.6 155 416z"/></svg>