<svg xmlns="http://www.w3.org/2000/svg" viewBox="0 0 640 640"><!--! Font Awesome Pro 7.1.0 by @fontawesome - https://fontawesome.com License - https://fontawesome.com/license (Commercial License) Copyright 2025 Fonticons, Inc. --><path fill="currentColor" d="M360.9 169.9C379.9 143.6 410.4 128 442.8 128C498.7 128 543.9 173.3 543.9 229.1C543.9 284.1 509.4 336.2 472.1 381.6C430 432.8 378.7 477.6 343.6 504.5C337.4 509.3 329.2 512 319.9 512C310.6 512 302.5 509.3 296.2 504.5C261.1 477.7 209.8 432.8 167.7 381.6C130.4 336.2 95.9 284.1 95.9 229.1C95.9 173.2 141.2 128 197 128C229.4 128 259.9 143.6 278.9 169.9L304.9 205.9C305.5 207.5 306.5 209.1 307.6 210.4L343.9 252.7L262.9 306.7C259.2 309.2 256.7 313.1 256 317.6C255.3 322.1 256.5 326.5 259.3 330L323.3 410C328.8 416.9 338.9 418 345.8 412.5C352.7 407 353.8 396.9 348.3 390L295.2 323.6L376.7 269.3C380.5 266.8 383 262.7 383.7 258.2C384.4 253.7 383 249.1 380 245.6L339.9 198.8L360.8 169.9zM442.9 96C400.2 96 360 116.5 335 151.1L320 171.8L305 151.1C280 116.5 239.8 96 197.1 96C123.6 96 64 155.6 64 229.1C64 296.5 105.6 356.4 143.1 402C187.2 455.5 240.4 502 276.9 529.9C289.2 539.4 304.4 544 320 544C335.6 544 350.8 539.4 363.1 529.9C399.6 502 452.8 455.5 496.9 402C534.4 356.4 576 296.5 576 229.1C576 155.6 516.4 96 442.9 96z"/></svg>