<svg xmlns="http://www.w3.org/2000/svg" viewBox="0 0 640 640"><!--! Font Awesome Pro 7.1.0 by @fontawesome - https://fontawesome.com License - https://fontawesome.com/license (Commercial License) Copyright 2025 Fonticons, Inc. --><path fill="currentColor" d="M59.3 36.7C53.1 30.5 42.9 30.5 36.7 36.7C30.5 42.9 30.5 53.1 36.7 59.3L580.7 603.3C586.9 609.5 597.1 609.5 603.3 603.3C609.5 597.1 609.5 586.9 603.3 580.7L462.9 440.3C474.5 428 486 415.2 496.9 402C534.4 356.4 576 296.5 576 229.1C576 155.6 516.4 96 442.9 96C400.2 96 360 116.5 335 151.1L320 171.8L305 151.1C280 116.5 239.8 96 197.1 96C174.4 96 153 101.7 134.3 111.7L59.3 36.7zM158.3 135.7C170.2 130.7 183.3 128 197.1 128C229.5 128 260 143.6 279 169.9L307 208.6C310 212.8 314.8 215.2 320 215.2C325.2 215.2 330 212.7 333 208.6L361 169.9C380 143.6 410.5 128 442.9 128C498.8 128 544 173.3 544 229.1C544 284.1 509.5 336.2 472.2 381.6C462 394 451.2 406.1 440.2 417.6L158.3 135.7zM64 229.1C64 296.5 105.6 356.4 143.1 401.9C187.2 455.5 240.4 502 276.9 529.8C289.3 539.2 304.5 543.9 320 543.9C335.5 543.9 350.8 539.3 363.1 529.8C375.5 520.3 389.8 508.7 405 495.4L382.3 472.7C368.3 484.9 355.1 495.6 343.6 504.3C337.4 509.1 329.2 511.8 319.9 511.8C310.6 511.8 302.5 509.1 296.2 504.3C261.1 477.5 209.8 432.6 167.7 381.4C130.4 336 95.9 283.9 95.9 228.9C95.9 216.2 98.2 204.1 102.5 192.9L78.4 168.9C69.2 187 64 207.4 64 229.1z"/></svg>