<svg xmlns="http://www.w3.org/2000/svg" viewBox="0 0 640 640"><!--! Font Awesome Pro 7.1.0 by @fontawesome - https://fontawesome.com License - https://fontawesome.com/license (Commercial License) Copyright 2025 Fonticons, Inc. --><path fill="currentColor" d="M360.9 169.9C379.9 143.6 410.4 128 442.8 128C498.7 128 543.9 173.3 543.9 229.1C543.9 284.1 509.4 336.2 472.1 381.6C430 432.8 378.7 477.6 343.6 504.5C341.3 506.3 338.7 507.7 335.9 508.9L335.9 204.3L360.8 169.8zM304 204.3L304 508.9C301.2 507.7 298.6 506.2 296.3 504.5C261.2 477.7 209.9 432.8 167.8 381.6C130.5 336.2 96 284.1 96 229.1C96 173.2 141.3 128 197.1 128C229.5 128 260 143.6 279 169.9L304 204.3zM442.9 96C400.2 96 360 116.5 335 151.1L320 171.8L305 151.1C280 116.5 239.8 96 197.1 96C123.6 96 64 155.6 64 229.1C64 296.5 105.6 356.4 143.1 402C187.2 455.5 240.4 502 276.9 529.9C289.2 539.4 304.4 544 320 544C335.6 544 350.8 539.4 363.1 529.9C399.6 502 452.8 455.5 496.9 402C534.4 356.4 576 296.5 576 229.1C576 155.6 516.4 96 442.9 96z"/></svg>