<svg xmlns="http://www.w3.org/2000/svg" viewBox="0 0 640 640"><!--! Font Awesome Pro 7.1.0 by @fontawesome - https://fontawesome.com License - https://fontawesome.com/license (Commercial License) Copyright 2025 Fonticons, Inc. --><path fill="currentColor" d="M272 96C280.8 96 288 103.2 288 112L288 208C288 246.1 300.4 283.1 323.2 313.6L342.4 339.2C369.4 375.2 384 419 384 464L384 528C384 536.8 376.8 544 368 544C359.2 544 352 536.8 352 528L352 464C352 425.9 339.6 388.9 316.8 358.4L297.6 332.8C270.6 296.8 256 253 256 208L256 112C256 103.2 263.2 96 272 96zM112 160C120.8 160 128 167.2 128 176L128 221.9C128 256.6 138.3 290.6 157.6 319.5L189.1 366.8C211.9 401 224 441.1 224 482.2L224 528.1C224 536.9 216.8 544.1 208 544.1C199.2 544.1 192 536.9 192 528.1L192 482.2C192 447.5 181.7 413.5 162.4 384.6L130.9 337.2C108.2 303.1 96 262.9 96 221.9L96 176C96 167.2 103.2 160 112 160zM448 176L448 221.9C448 256.6 458.3 290.6 477.6 319.5L509.1 366.8C531.9 401 544 441.1 544 482.2L544 528.1C544 536.9 536.8 544.1 528 544.1C519.2 544.1 512 536.9 512 528.1L512 482.2C512 447.5 501.7 413.5 482.4 384.6L450.9 337.3C428.2 303.1 416 262.9 416 221.9L416 176C416 167.2 423.2 160 432 160C440.8 160 448 167.2 448 176z"/></svg>