<svg xmlns="http://www.w3.org/2000/svg" viewBox="0 0 640 640"><!--! Font Awesome Pro 7.1.0 by @fontawesome - https://fontawesome.com License - https://fontawesome.com/license (Commercial License) Copyright 2025 Fonticons, Inc. --><path fill="currentColor" d="M208 96C199.2 96 192 103.2 192 112C192 120.8 199.2 128 208 128L368 128L368 192L152 192L108.8 134.4C105.8 130.4 101 128 96 128L48 128C43.1 128 38.6 130.2 35.5 134C32.4 137.8 31.3 142.7 32.4 147.5L64.4 291.5C66 298.8 72.5 304 80 304L216.2 304L304.2 417.1C319.4 436.6 342.7 448 367.3 448L448 448C518.7 448 576 390.7 576 320C576 249.3 518.7 192 448 192L400 192L400 128L560 128C568.8 128 576 120.8 576 112C576 103.2 568.8 96 560 96L208 96zM368 224L368 416L367.3 416C352.5 416 338.5 409.2 329.4 397.5L236.6 278.2C233.6 274.3 228.9 272 224 272L92.8 272L67.9 160L88 160L131.2 217.6C134.2 221.6 139 224 144 224L368 224zM400 416L400 224L448 224C501 224 544 267 544 320C544 373 501 416 448 416L400 416zM592 480C583.2 480 576 487.2 576 496C576 504.8 568.8 512 560 512L272 512C263.2 512 256 519.2 256 528C256 536.8 263.2 544 272 544L560 544C586.5 544 608 522.5 608 496C608 487.2 600.8 480 592 480z"/></svg>