<svg xmlns="http://www.w3.org/2000/svg" viewBox="0 0 640 640"><!--! Font Awesome Pro 7.1.0 by @fontawesome - https://fontawesome.com License - https://fontawesome.com/license (Commercial License) Copyright 2025 Fonticons, Inc. --><path fill="currentColor" d="M541.8 288L574.1 288C559.6 172.2 467.8 80.4 352 66L352 98.3C450.1 112.3 527.7 189.9 541.7 288zM574 352L541.7 352C527.7 450.1 450.1 527.7 352 541.7L352 574C467.8 559.6 559.6 467.8 574 352zM66 352C80.4 467.8 172.2 559.6 288 574L288 541.7C189.9 527.7 112.3 450.1 98.3 352L66 352zM66 288L98.3 288C112.3 189.9 189.9 112.3 288 98.3L288 66C172.2 80.4 80.4 172.2 66 288zM240 208C240 199.2 232.8 192 224 192C215.2 192 208 199.2 208 208L208 432C208 440.8 215.2 448 224 448C232.8 448 240 440.8 240 432L240 336L400 336L400 432C400 440.8 407.2 448 416 448C424.8 448 432 440.8 432 432L432 208C432 199.2 424.8 192 416 192C407.2 192 400 199.2 400 208L400 304L240 304L240 208z"/></svg>