<svg xmlns="http://www.w3.org/2000/svg" viewBox="0 0 640 640"><!--! Font Awesome Pro 7.1.0 by @fontawesome - https://fontawesome.com License - https://fontawesome.com/license (Commercial License) Copyright 2025 Fonticons, Inc. --><path fill="currentColor" d="M576 78.9C575.3 70 567.7 63.4 558.9 64C550.1 64.6 543.4 72.3 544 81.1L560 305.1C560.6 313.9 568.3 320.5 577.1 319.9C585.9 319.3 592.5 311.6 591.9 302.8L575.9 78.8zM81.1 64C72.3 63.4 64.7 70 64 78.9L48 302.9C47.4 311.7 54 319.4 62.8 320C71.6 320.6 79.3 314 79.9 305.2L95.9 81.2C96.6 72.3 90 64.7 81.1 64zM310.2 99.8C316 95.3 324 95.3 329.8 99.8L448.9 191.9C468.5 207 480 230.4 480 255.1L480 451.7C480 463.3 473.7 474 463.5 479.7L358.7 538C351.7 541.9 343.9 543.9 336 544L336 288L416 288C424.8 288 432 280.8 432 272C432 263.2 424.8 256 416 256L224 256C215.2 256 208 263.2 208 272C208 280.8 215.2 288 224 288L304 288L304 544C296 543.9 288.2 541.8 281.3 538L176.5 479.7C166.3 474.1 160 463.3 160 451.7L160 255.1C160 230.3 171.5 206.9 191.1 191.8L310.2 99.8zM349.3 74.5C332 61.1 307.9 61.1 290.6 74.5L171.5 166.5C144.1 187.7 128 220.5 128 255.1L128 451.7C128 474.9 140.6 496.4 160.9 507.6L265.7 565.8C277.6 572.4 291 575.9 304.6 575.9L335.4 575.9C349 575.9 362.4 572.4 374.3 565.8L479.1 507.6C499.4 496.4 512 475 512 451.8L512 255.2C512 220.5 495.9 187.8 468.5 166.6L349.4 74.5z"/></svg>