<svg xmlns="http://www.w3.org/2000/svg" viewBox="0 0 640 640"><!--! Font Awesome Pro 7.1.0 by @fontawesome - https://fontawesome.com License - https://fontawesome.com/license (Commercial License) Copyright 2025 Fonticons, Inc. --><path fill="currentColor" d="M304 96C418.9 96 512 189.1 512 304L512 320L320 320C313.1 320 307 324.4 304.8 330.9L276.5 416L141.2 416C116.2 416 96 395.8 96 370.8L96 304C96 189.1 189.1 96 304 96zM400 515.4L306.4 427.3L331.5 351.9L400 351.9L400 515.3zM432 544L432 352L560 352C568.8 352 576 344.8 576 336C576 327.2 568.8 320 560 320L544 320L544 304C544 171.5 436.5 64 304 64C171.5 64 64 171.5 64 304L64 370.8C64 413.4 98.6 448 141.2 448L281.7 448L413 571.7C416 574.5 419.9 576 424 576L528 576C536.8 576 544 568.8 544 560C544 551.2 536.8 544 528 544L432 544zM349.3 167.1C345.4 161.2 338.1 158.6 331.4 160.7C324.7 162.8 320 168.9 320 176L320 272C320 280.8 327.2 288 336 288C344.8 288 352 280.8 352 272L352 228.8L386.7 280.8C390.6 286.7 397.9 289.3 404.6 287.2C411.3 285.1 416 279.1 416 272L416 176C416 167.2 408.8 160 400 160C391.2 160 384 167.2 384 176L384 219.2L349.3 167.2zM224 176C224 167.2 216.8 160 208 160C199.2 160 192 167.2 192 176L192 240C192 266.5 213.5 288 240 288C266.5 288 288 266.5 288 240L288 176C288 167.2 280.8 160 272 160C263.2 160 256 167.2 256 176L256 240C256 248.8 248.8 256 240 256C231.2 256 224 248.8 224 240L224 176z"/></svg>