<svg xmlns="http://www.w3.org/2000/svg" viewBox="0 0 640 640"><!--! Font Awesome Pro 7.1.0 by @fontawesome - https://fontawesome.com License - https://fontawesome.com/license (Commercial License) Copyright 2025 Fonticons, Inc. --><path fill="currentColor" d="M336 128C353.7 128 368 142.3 368 160L368 432L272 432L272 160C272 142.3 286.3 128 304 128L336 128zM400 432L400 165.8C484.4 186.8 543 262.4 544 352.2L544 432L400 432zM576 437.4L576 352C574.8 243 499.9 150.8 393.4 131.7C382.9 110.5 361.2 96 336 96L304 96C278.9 96 257.1 110.5 246.6 131.6C139.9 150.6 64 242 64 352L64 437.4C45.1 446.4 32 465.7 32 488C32 518.9 57.1 544 88 544L552 544C582.9 544 608 518.9 608 488C608 465.7 594.9 446.4 576 437.4zM552 464C565.3 464 576 474.7 576 488C576 501.3 565.3 512 552 512L88 512C74.7 512 64 501.3 64 488C64 474.7 74.7 464 88 464L552 464zM96 432L96 352C96 261.7 155 186.5 240 165.7L240 432L96 432z"/></svg>