<svg xmlns="http://www.w3.org/2000/svg" viewBox="0 0 640 640"><!--! Font Awesome Pro 7.1.0 by @fontawesome - https://fontawesome.com License - https://fontawesome.com/license (Commercial License) Copyright 2025 Fonticons, Inc. --><path fill="currentColor" d="M232 120C232 106.7 242.7 96 256 96C269.3 96 280 106.7 280 120C280 133.3 269.3 144 256 144C242.7 144 232 133.3 232 120zM272 173.7C295.1 166.8 312 145.4 312 120C312 89.1 286.9 64 256 64C225.1 64 200 89.1 200 120C200 145.4 216.9 166.8 240 173.7L240 266.3C231.4 268.9 223.7 273.4 217.3 279.5L142.5 236.8C148 213.4 137.8 188.2 116 175.6C89.2 160 55 169.2 39.5 196C24 222.8 33.2 257 60 272.5C63.9 274.7 67.9 276.5 72 277.7L72 362.3C67.9 363.5 63.9 365.2 60 367.5C33.2 383 24 417.2 39.5 444C55 470.8 89.2 480 116 464.5C137.9 451.9 148 426.7 142.5 403.2L188.8 376.8C181.9 368.7 176.5 359.3 172.9 349L126.7 375.5C120.2 369.3 112.4 364.9 104 362.4L104 277.7C112.4 275.2 120.2 270.8 126.7 264.6L201.5 307.3C200.5 311.4 200 315.7 200 320C200 345.4 216.9 366.8 240 373.7L240 466.3C216.9 473.2 200 494.6 200 520C200 550.9 225.1 576 256 576C286.7 576 311.6 551.3 312 520.8C304.5 507.9 298.5 494 294.4 479.3C288.1 473.4 280.5 468.9 272 466.4L272 373.8C280.6 371.2 288.3 366.7 294.7 360.6L301.5 364.5C305.6 354.6 310.7 345.1 316.5 336.2L310.6 332.9C311.6 328.8 312.1 324.5 312.1 320.2C312.1 294.8 295.2 273.4 272.1 266.5L272.1 173.9zM472.5 196C457 169.2 422.8 160 396 175.5C374.1 188.1 364 213.3 369.4 236.7L323.1 263.1C330 271.2 335.4 280.6 339 290.9L385.2 264.5C387.7 266.8 390.3 268.9 393.1 270.8C414.8 261.3 438.7 256 463.9 256C465.9 256 467.9 256 469.8 256.1C481.9 238.8 483.6 215.5 472.4 196zM412 203.2C423.5 196.6 438.2 200.5 444.8 212C451.4 223.5 447.5 238.2 436 244.8C424.5 251.4 409.8 247.5 403.2 236C396.6 224.5 400.5 209.8 412 203.2zM67.2 212C73.8 200.5 88.5 196.6 100 203.2C111.5 209.8 115.4 224.5 108.8 236C102.2 247.5 87.5 251.4 76 244.8C64.5 238.2 60.6 223.5 67.2 212zM232 520C232 506.7 242.7 496 256 496C269.3 496 280 506.7 280 520C280 533.3 269.3 544 256 544C242.7 544 232 533.3 232 520zM108.8 404C115.4 415.5 111.5 430.2 100 436.8C88.5 443.4 73.8 439.5 67.2 428C60.6 416.5 64.5 401.8 76 395.2C87.5 388.6 102.2 392.5 108.8 404zM256 296C269.3 296 280 306.7 280 320C280 333.3 269.3 344 256 344C242.7 344 232 333.3 232 320C232 306.7 242.7 296 256 296zM352 432C352 370.1 402.1 320 464 320C525.9 320 576 370.1 576 432C576 493.9 525.9 544 464 544C402.1 544 352 493.9 352 432zM608 432C608 352.5 543.5 288 464 288C384.5 288 320 352.5 320 432C320 511.5 384.5 576 464 576C543.5 576 608 511.5 608 432zM511.9 351C507.6 347.3 501.3 347 496.8 350.4L400.8 422.4C396.7 425.5 395 430.9 396.6 435.8C398.2 440.7 402.8 444 408 444L443.6 444L413.5 498.2C410.7 503.2 411.8 509.3 416.1 513.1C420.4 516.9 426.7 517.1 431.2 513.7L527.2 441.7C531.3 438.6 533 433.2 531.4 428.3C529.8 423.4 525.2 420.1 520 420.1L484.4 420.1L514.5 365.9C517.3 360.9 516.2 354.8 511.9 351z"/></svg>