<svg xmlns="http://www.w3.org/2000/svg" viewBox="0 0 640 640"><!--! Font Awesome Pro 7.1.0 by @fontawesome - https://fontawesome.com License - https://fontawesome.com/license (Commercial License) Copyright 2025 Fonticons, Inc. --><path fill="currentColor" d="M296 120C296 106.7 306.7 96 320 96C333.3 96 344 106.7 344 120C344 133.3 333.3 144 320 144C306.7 144 296 133.3 296 120zM336 173.7C359.1 166.8 376 145.4 376 120C376 89.1 350.9 64 320 64C289.1 64 264 89.1 264 120C264 145.4 280.9 166.8 304 173.7L304 266.3C295.4 268.9 287.7 273.4 281.3 279.5L206.5 236.8C212 213.4 201.8 188.2 180 175.6C153.2 160 119 169.2 103.5 196C88 222.8 97.2 257 124 272.5C127.9 274.7 131.9 276.5 136 277.7L136 362.3C131.9 363.5 127.9 365.2 124 367.5C97.2 383 88 417.2 103.5 444C119 470.8 153.2 480 180 464.5C201.9 451.9 212 426.7 206.5 403.2L252.8 376.8C245.9 368.7 240.5 359.3 236.9 349L190.7 375.5C184.2 369.3 176.4 364.9 168 362.4L168 277.7C176.4 275.2 184.2 270.8 190.7 264.6L265.5 307.3C264.5 311.4 264 315.7 264 320C264 345.4 280.9 366.8 304 373.7L304 466.3C280.9 473.2 264 494.6 264 520C264 550.9 289.1 576 320 576C350.9 576 376 550.9 376 520C376 494.6 359.1 473.2 336 466.3L336 373.7C344.6 371.1 352.3 366.6 358.7 360.5L433.5 403.2C428 426.6 438.2 451.8 460 464.4C486.8 479.9 521 470.7 536.5 443.9C552 417.1 542.8 382.9 516 367.4C512.1 365.2 508.1 363.4 504 362.2L504 277.6C508.1 276.4 512.1 274.7 516 272.4C542.8 256.9 552 222.7 536.5 195.9C521 169.1 486.8 160 460 175.5C438.1 188.1 428 213.3 433.4 236.7L387.1 263.1C394 271.2 399.4 280.6 403 290.9L449.2 264.5C455.7 270.7 463.5 275.2 471.9 277.6L471.9 362.3C463.5 364.8 455.7 369.2 449.2 375.4L374.4 332.7C375.4 328.6 375.9 324.3 375.9 320C375.9 294.6 359 273.2 335.9 266.3L335.9 173.7zM476 203.2C487.5 196.6 502.2 200.5 508.8 212C515.4 223.5 511.5 238.2 500 244.8C488.5 251.4 473.8 247.5 467.2 236C460.6 224.5 464.5 209.8 476 203.2zM131.2 212C137.8 200.5 152.5 196.6 164 203.2C175.5 209.8 179.4 224.5 172.8 236C166.2 247.5 151.5 251.4 140 244.8C128.5 238.2 124.6 223.5 131.2 212zM296 520C296 506.7 306.7 496 320 496C333.3 496 344 506.7 344 520C344 533.3 333.3 544 320 544C306.7 544 296 533.3 296 520zM172.8 404C179.4 415.5 175.5 430.2 164 436.8C152.5 443.4 137.8 439.5 131.2 428C124.6 416.5 128.5 401.8 140 395.2C151.5 388.6 166.2 392.5 172.8 404zM476 436.8C464.5 430.2 460.6 415.5 467.2 404C473.8 392.5 488.5 388.6 500 395.2C511.5 401.8 515.4 416.5 508.8 428C502.2 439.5 487.5 443.4 476 436.8zM320 296C333.3 296 344 306.7 344 320C344 333.3 333.3 344 320 344C306.7 344 296 333.3 296 320C296 306.7 306.7 296 320 296z"/></svg>