<svg xmlns="http://www.w3.org/2000/svg" viewBox="0 0 640 640"><!--! Font Awesome Pro 7.1.0 by @fontawesome - https://fontawesome.com License - https://fontawesome.com/license (Commercial License) Copyright 2025 Fonticons, Inc. --><path fill="currentColor" d="M93.3 300.2L189.5 132.1C196.6 119.7 209.8 112 224.2 112L415.8 112C430.1 112 443.4 119.7 450.5 132.1L546.7 300.2C553.7 312.5 553.7 327.6 546.7 339.9L450.5 508C443.4 520.4 430.1 528.1 415.8 528.1L224.2 528.1C209.9 528.1 196.6 520.4 189.5 508L93.3 339.9C86.3 327.6 86.3 312.5 93.3 300.2zM65.5 284.3C52.8 306.5 52.8 333.7 65.5 355.8L161.7 523.9C174.5 546.3 198.4 560.1 224.2 560.1L415.8 560.1C441.6 560.1 465.5 546.3 478.3 523.9L574.5 355.8C587.2 333.6 587.2 306.4 574.5 284.3L478.3 116.2C465.5 93.8 441.6 80 415.8 80L224.2 80C198.4 80 174.5 93.8 161.7 116.2L65.5 284.3z"/></svg>