<svg xmlns="http://www.w3.org/2000/svg" viewBox="0 0 640 640"><!--! Font Awesome Pro 7.1.0 by @fontawesome - https://fontawesome.com License - https://fontawesome.com/license (Commercial License) Copyright 2025 Fonticons, Inc. --><path fill="currentColor" d="M340.9 547.3L509 451.1C521.4 444 529.1 430.7 529.1 416.4L529.1 224.8C529.1 210.5 521.4 197.2 509 190.1L340.9 93.9C328.6 86.9 313.5 86.9 301.2 93.9L133.1 190C120.6 197.2 113 210.4 113 224.8L113 416.4C113 430.7 120.7 444 133.1 451.1L301.2 547.3C313.5 554.3 328.6 554.3 340.9 547.3zM356.8 575.1C334.6 587.8 307.4 587.8 285.3 575.1L117.2 478.9C94.8 466.1 81 442.2 81 416.4L81 224.8C81 199 94.8 175.1 117.2 162.3L285.2 66.1C307.4 53.4 334.6 53.4 356.7 66.1L524.8 162.3C547.2 175.1 561 199 561 224.8L561 416.4C561 442.2 547.2 466.1 524.8 478.9L356.8 575.1zM190.3 248.8L224 316.2L224 256C224 247.2 231.2 240 240 240C248.8 240 256 247.2 256 256L256 384C256 391.4 250.9 397.9 243.7 399.6C236.5 401.3 229 397.8 225.7 391.2L192 323.8L192 384C192 392.8 184.8 400 176 400C167.2 400 160 392.8 160 384L160 256C160 248.6 165.1 242.1 172.3 240.4C179.5 238.7 187 242.2 190.3 248.8zM288 256C288 247.2 295.2 240 304 240L352 240C360.8 240 368 247.2 368 256C368 264.8 360.8 272 352 272L320 272L320 304L352 304C360.8 304 368 311.2 368 320C368 328.8 360.8 336 352 336L320 336L320 384C320 392.8 312.8 400 304 400C295.2 400 288 392.8 288 384L288 256zM400 240L464 240C472.8 240 480 247.2 480 256C480 264.8 472.8 272 464 272L448 272L448 384C448 392.8 440.8 400 432 400C423.2 400 416 392.8 416 384L416 272L400 272C391.2 272 384 264.8 384 256C384 247.2 391.2 240 400 240z"/></svg>