<svg xmlns="http://www.w3.org/2000/svg" viewBox="0 0 640 640"><!--! Font Awesome Pro 7.1.0 by @fontawesome - https://fontawesome.com License - https://fontawesome.com/license (Commercial License) Copyright 2025 Fonticons, Inc. --><path fill="currentColor" d="M415.8 80C441.6 80 465.5 93.8 478.3 116.2L574.5 284.2C587.2 306.4 587.2 333.6 574.5 355.7L478.3 523.9C465.5 546.3 441.6 560.1 415.8 560.1L224.2 560.1C198.4 560.1 174.5 546.3 161.7 523.9L65.5 355.8C52.8 333.6 52.8 306.4 65.5 284.3L161.7 116.3C174.5 93.8 198.4 80 224.2 80L415.8 80zM224.2 112C209.9 112 196.6 119.7 189.5 132.1L93.3 300.2C86.3 312.5 86.3 327.6 93.3 339.9L189.5 507.9C196.6 520.4 209.9 528.1 224.2 528.1L415.8 528.1C430.1 528.1 443.4 520.4 450.5 507.9L546.7 339.9C553.7 327.6 553.7 312.5 546.7 300.2L450.5 132.1C443.4 119.7 430.2 112 415.8 112L224.2 112zM403.1 230.6C408.3 223.5 418.3 221.9 425.4 227.1C432.5 232.3 434.1 242.3 428.9 249.4L300.9 425.4C298.1 429.2 293.9 431.6 289.2 431.9C284.5 432.2 279.9 430.6 276.6 427.3L212.6 363.3C206.4 357.1 206.4 346.9 212.6 340.7C218.8 334.5 229 334.5 235.2 340.7L286 391.4L403 230.6z"/></svg>