<svg xmlns="http://www.w3.org/2000/svg" viewBox="0 0 640 640"><!--! Font Awesome Pro 7.1.0 by @fontawesome - https://fontawesome.com License - https://fontawesome.com/license (Commercial License) Copyright 2025 Fonticons, Inc. --><path fill="currentColor" d="M93.3 300.2L189.5 132.1C196.6 119.7 209.8 112 224.2 112L415.8 112C430.1 112 443.4 119.7 450.5 132.1L546.7 300.2C553.7 312.5 553.7 327.6 546.7 339.9L450.5 508C443.4 520.4 430.1 528.1 415.8 528.1L224.2 528.1C209.9 528.1 196.6 520.4 189.5 508L93.3 339.9C86.3 327.6 86.3 312.5 93.3 300.2zM65.5 284.3C52.8 306.5 52.8 333.7 65.5 355.8L161.7 523.9C174.5 546.3 198.4 560.1 224.2 560.1L415.8 560.1C441.6 560.1 465.5 546.3 478.3 523.9L574.5 355.8C587.2 333.6 587.2 306.4 574.5 284.3L478.3 116.2C465.5 93.8 441.6 80 415.8 80L224.2 80C198.4 80 174.5 93.8 161.7 116.2L65.5 284.3zM352 304C354.7 304 357.2 305.4 358.7 307.7L424.3 409L401.9 448.1L238.1 448.1L216.5 410.4L249.4 363.4C250.9 361.3 253.3 360 256 360C258.7 360 261.1 361.3 262.6 363.4L273.2 378.6C276.3 383 281.3 385.5 286.6 385.4C291.9 385.3 296.8 382.6 299.7 378.1L345.3 307.7C346.8 305.4 349.3 304 352 304zM318.4 290.3L285.6 341C278.1 332.7 267.4 328 256 328C242.9 328 230.7 334.4 223.2 345.1L184.5 400.4C180.9 405.5 180.6 412.1 183.7 417.5L214.9 472C217.8 477 223 480.1 228.8 480.1L411.2 480.1C416.9 480.1 422.2 477 425.1 472L456.9 416.4C459.9 411.2 459.7 404.8 456.4 399.8L385.6 290.3C378.2 278.9 365.6 272 352 272C338.4 272 325.8 278.9 318.4 290.3zM272 224C272 232.8 264.8 240 256 240C247.2 240 240 232.8 240 224C240 215.2 247.2 208 256 208C264.8 208 272 215.2 272 224zM256 176C229.5 176 208 197.5 208 224C208 250.5 229.5 272 256 272C282.5 272 304 250.5 304 224C304 197.5 282.5 176 256 176z"/></svg>