<svg xmlns="http://www.w3.org/2000/svg" viewBox="0 0 640 640"><!--! Font Awesome Pro 7.1.0 by @fontawesome - https://fontawesome.com License - https://fontawesome.com/license (Commercial License) Copyright 2025 Fonticons, Inc. --><path fill="currentColor" d="M198.6 383.2L154.9 427C151.8 430.1 151.8 435.2 154.9 438.3L217.7 501.1C220.8 504.2 225.9 504.2 229 501.1L272.7 457.4C278.7 451.4 286.8 448 295.3 448L343.3 448C348.5 448 353.3 445.5 356.3 441.3L375.7 414.3L241.6 280.2L214.6 299.6C210.4 302.6 207.9 307.4 207.9 312.6L207.9 360.6C207.9 369.1 204.5 377.2 198.5 383.2zM394.6 388L555.8 163.5C558.5 159.7 560 155.1 560 150.5C560 144.6 557.6 138.9 553.5 134.7L521.3 102.5C517.1 98.3 511.4 96 505.5 96C500.8 96 496.3 97.5 492.5 100.2L268 261.4L394.6 388zM343.3 480L295.3 480L251.6 523.7C240.2 535.1 223.7 538.2 209.6 533L173.6 569C169.1 573.5 163 576 156.6 576L56 576C42.7 576 32 565.3 32 552L32 547.3C32 540.9 34.5 534.8 39 530.3L123 446.3C117.8 432.1 120.9 415.6 132.3 404.3L176 360.6L176 312.6C176 297.1 183.4 282.6 196 273.6L473.8 74.2C483 67.6 494.1 64 505.5 64C519.9 64 533.7 69.7 543.9 79.9L576.1 112.1C586.3 122.3 592 136.1 592 150.5C592 161.9 588.4 173 581.8 182.2L382.4 460C373.4 472.6 358.9 480 343.4 480zM143 471.6L70.6 544L153.3 544L184.3 513L142.9 471.6zM304 544L592 544C600.8 544 608 551.2 608 560C608 568.8 600.8 576 592 576L304 576C295.2 576 288 568.8 288 560C288 551.2 295.2 544 304 544z"/></svg>