<svg xmlns="http://www.w3.org/2000/svg" viewBox="0 0 640 640"><!--! Font Awesome Pro 7.1.0 by @fontawesome - https://fontawesome.com License - https://fontawesome.com/license (Commercial License) Copyright 2025 Fonticons, Inc. --><path fill="currentColor" d="M270.5 191.7C265 182 265 170.1 270.5 160.3L297.5 112.3C303.1 102.2 313.8 96 325.4 96L378.7 96C390.3 96 400.9 102.2 406.6 112.3L433.6 160.3C439.1 170 439.1 181.9 433.6 191.7L406.6 239.7C400.9 249.8 390.3 256 378.7 256L325.4 256C313.8 256 303.2 249.8 297.5 239.7L270.5 191.7zM325.4 128L298.4 176L325.4 224L378.7 224L405.7 176L378.7 128L325.4 128zM64 182.6L64 512C64 529.7 78.3 544 96 544L425.4 544L64 182.6zM32 182.6C32 154.1 66.5 139.8 86.6 160L448 521.4C468.2 541.6 453.9 576 425.4 576L96 576C60.7 576 32 547.3 32 512L32 182.6zM464.3 470.5C454.2 464.8 448 454.2 448 442.6L448 389.3C448 377.7 454.2 367.1 464.3 361.4L512.3 334.4C522 328.9 533.9 328.9 543.7 334.4L591.7 361.4C601.8 367.1 608 377.7 608 389.3L608 442.6C608 454.2 601.8 464.8 591.7 470.5L543.7 497.5C534 503 522.1 503 512.3 497.5L464.3 470.5zM528 469.6L576 442.6L576 389.3L528 362.3L480 389.3L480 442.6L528 469.6zM160 128C160 110.3 174.3 96 192 96C209.7 96 224 110.3 224 128C224 145.7 209.7 160 192 160C174.3 160 160 145.7 160 128zM384 320C401.7 320 416 334.3 416 352C416 369.7 401.7 384 384 384C366.3 384 352 369.7 352 352C352 334.3 366.3 320 384 320z"/></svg>