<svg xmlns="http://www.w3.org/2000/svg" viewBox="0 0 640 640"><!--! Font Awesome Pro 7.1.0 by @fontawesome - https://fontawesome.com License - https://fontawesome.com/license (Commercial License) Copyright 2025 Fonticons, Inc. --><path fill="currentColor" d="M427.3 108.7C421.1 102.5 410.9 102.5 404.7 108.7C398.5 114.9 398.5 125.1 404.7 131.3L416.8 143.4C412.4 146.6 408.4 150.2 404.8 154.2L382 145.2C353.6 133.8 323.4 128 292.9 128L224 128C118 128 32 214 32 320C32 331.5 32 328.5 32 347.1C32 372.5 23.3 397.2 7.5 417.1L3.5 422C-2 428.9-.9 439 6 444.5C12.9 450 23 448.9 28.5 442L32.4 437.1C52.8 411.6 64 379.8 64 347.1C64 313.4 64 333 64 320C64 231.6 135.6 160 224 160L292.9 160C319.4 160 345.6 165 370.1 174.9L388.3 182.2C385.5 190.3 384 199 384 208.1L384 213.1C384 222.6 379.5 231.5 373.2 238.7C360 254.1 352 274.1 352 296C352 341.9 387.1 379.6 432 383.6L432 400C432 408.8 439.2 416 448 416C456.8 416 464 408.8 464 400L464 384L552 384C554.7 384 557.4 383.9 560 383.6L560 400C560 408.8 567.2 416 576 416C584.8 416 592 408.8 592 400L592 374.4C620.5 359.8 640 330.2 640 296C640 265.2 624.2 238.2 600.3 222.4C595.4 219.2 592 213.9 592 208C592 185.6 582.8 165.3 567.9 150.7L579.3 139.3C585.5 133.1 585.5 122.9 579.3 116.7C573.1 110.5 562.9 110.5 556.7 116.7L540.2 133.1C531.5 129.8 521.9 128 512 128L464 128C458.6 128 453.3 128.5 448.2 129.6L427.3 108.7zM448 352L440 352C409.1 352 384 326.9 384 296C384 282 389.1 269.3 397.5 259.5C406.7 248.8 416 232.8 416 213L416 208C416 181.5 437.5 160 464 160L512 160C538.5 160 560 181.5 560 208C560 221.4 565.5 232.7 573.2 241C547.5 246.1 528 268.7 528 296C528 304.8 535.2 312 544 312C552.8 312 560 304.8 560 296C560 282.7 570.7 272 584 272C597.3 272 608 282.7 608 296C608 326.9 582.9 352 552 352L448 352zM416 435.8L416 488C416 501.3 405.3 512 392 512L360 512C346.7 512 336 501.3 336 488L336 427.9C336 422.8 333.6 418 329.5 415C325.4 412 320.1 411.1 315.2 412.6L303.9 416.2C272.7 426 239.3 426 208.1 416.2L196.8 412.6C191.9 411.1 186.6 412 182.5 415C178.4 418 176 422.8 176 427.9L176 488C176 501.3 165.3 512 152 512L120 512C106.7 512 96 501.3 96 488L96 416C96 407.2 88.8 400 80 400C71.2 400 64 407.2 64 416L64 488C64 518.9 89.1 544 120 544L152 544C182.9 544 208 518.9 208 488L208 449.4C239.5 457.5 272.5 457.5 304 449.4L304 488C304 518.9 329.1 544 360 544L392 544C422.9 544 448 518.9 448 488L448 448C435.7 448 424.5 443.4 416 435.8zM480 208C480 199.2 472.8 192 464 192C455.2 192 448 199.2 448 208C448 216.8 455.2 224 464 224C472.8 224 480 216.8 480 208zM440 240C431.2 240 424 247.2 424 256C424 264.8 431.2 272 440 272C453.3 272 464 282.7 464 296C464 304.8 471.2 312 480 312C488.8 312 496 304.8 496 296C496 265.1 470.9 240 440 240zM528 224C536.8 224 544 216.8 544 208C544 199.2 536.8 192 528 192C519.2 192 512 199.2 512 208C512 216.8 519.2 224 528 224z"/></svg>