<svg xmlns="http://www.w3.org/2000/svg" viewBox="0 0 640 640"><!--! Font Awesome Pro 7.1.0 by @fontawesome - https://fontawesome.com License - https://fontawesome.com/license (Commercial License) Copyright 2025 Fonticons, Inc. --><path fill="currentColor" d="M96 248C96 257 100.1 266.9 110.3 277.3C120.5 287.8 136.1 298 156.6 306.9C197.6 324.7 255.3 336 319.9 336C384.5 336 442.3 324.6 483.2 306.9C503.7 298 519.3 287.8 529.5 277.3C539.7 266.9 543.8 257 543.8 248C543.8 239 539.7 229.1 529.5 218.7C519.3 208.2 503.7 198 483.2 189.1C442.2 171.3 384.5 160 319.9 160C255.3 160 197.6 171.4 156.7 189.1C136.1 198 120.5 208.2 110.3 218.7C100.1 229.1 96 239 96 248zM64 248C64 228.3 73.3 210.8 87.4 196.3C101.5 181.9 121 169.7 143.9 159.8C189.8 139.9 252.1 128 320 128C387.9 128 450.2 139.9 496.1 159.8C519 169.7 538.6 182 552.6 196.4C566.7 210.9 576 228.4 576 248.1L576 392.1C576 411.8 566.7 429.3 552.6 443.8C538.5 458.2 519 470.4 496.1 480.4C450.2 500.3 388 512.2 320 512.2C252 512.2 189.8 500.1 143.9 480.2C121 470.3 101.5 458.1 87.4 443.7C73.3 429.2 64 411.7 64 392L64 248zM544 307.6C531 318.6 514.6 328.1 496.1 336.2C450.2 356.1 388 368 320 368C252 368 189.8 356.1 143.9 336.2C125.3 328.2 109 318.6 96 307.6L96 392C96 401 100.1 410.9 110.3 421.3C120.5 431.8 136.1 442 156.6 450.9C197.6 468.7 255.3 480 319.9 480C384.5 480 442.3 468.6 483.2 450.9C503.7 442 519.3 431.8 529.5 421.3C539.7 410.9 543.8 401 543.8 392L543.8 307.6z"/></svg>