<svg xmlns="http://www.w3.org/2000/svg" viewBox="0 0 640 640"><!--! Font Awesome Pro 7.1.0 by @fontawesome - https://fontawesome.com License - https://fontawesome.com/license (Commercial License) Copyright 2025 Fonticons, Inc. --><path fill="currentColor" d="M545.7 42C549 33.8 558.4 29.9 566.5 33.2C574.6 36.5 578.6 45.9 575.3 54L391.6 506.2C374.5 548.4 333.4 576 287.9 576L144.5 576C118 576 96.5 554.5 96.5 528L96.5 432C96.5 405.5 118 384 144.5 384L406.7 384L545.6 42zM224.5 544L287.9 544C320.4 544 349.8 524.3 362 494.1L393.8 416L224.5 416L224.5 544zM144.5 416C135.7 416 128.5 423.2 128.5 432L128.5 528C128.5 536.8 135.7 544 144.5 544L192.5 544L192.5 416L144.5 416z"/></svg>