<svg xmlns="http://www.w3.org/2000/svg" viewBox="0 0 640 640"><!--! Font Awesome Pro 7.1.0 by @fontawesome - https://fontawesome.com License - https://fontawesome.com/license (Commercial License) Copyright 2025 Fonticons, Inc. --><path fill="currentColor" d="M513.2 42C516.5 33.8 525.9 29.9 534 33.2C542.1 36.5 546.1 45.9 542.8 54L359.2 506.2C342 548.4 300.9 576 255.4 576L112 576C85.5 576 64 554.5 64 528L64 432C64 405.5 85.5 384 112 384L374.2 384L513.1 42zM611.3 480.2C627.4 481.8 640 495.5 640 512L640 544L639.8 547.3C638.3 562.3 626.3 574.3 611.2 575.9L607.9 576.1L479.9 576.1L476.6 575.9C461.5 574.4 449.6 562.4 448 547.3L447.8 544L447.8 512C447.8 495.4 460.4 481.8 476.5 480.2L479.8 480L607.8 480L611.1 480.2zM480 544L608 544L608 512L480 512L480 544zM112 416C103.2 416 96 423.2 96 432L96 528C96 536.8 103.2 544 112 544L160 544L160 416L112 416zM192 544L255.4 544C287.9 544 317.3 524.3 329.5 494.1L361.3 416L192 416L192 544z"/></svg>