<svg xmlns="http://www.w3.org/2000/svg" viewBox="0 0 640 640"><!--! Font Awesome Pro 7.1.0 by @fontawesome - https://fontawesome.com License - https://fontawesome.com/license (Commercial License) Copyright 2025 Fonticons, Inc. --><path fill="currentColor" d="M128 304C128 244.3 142.9 192.3 172.7 155.9C201.8 120.5 248.1 96 320 96C391.9 96 438.2 120.5 467.3 155.9C497.2 192.3 512 244.2 512 304C512 399.4 499.6 457.6 472.7 492.4C447.6 524.8 404 544 320 544C236 544 192.4 524.9 167.3 492.4C140.4 457.6 128 399.4 128 304zM320 64C160 64 96 175 96 304C96 496 144 576 320 576C496 576 544 496 544 304C544 175 480 64 320 64zM256 272C256 289.7 241.7 304 224 304C206.3 304 192 289.7 192 272L192 256L256 256L256 272zM224 336C259.3 336 288 307.3 288 272L288 256C288 238.3 273.7 224 256 224L192 224C174.3 224 160 238.3 160 256L160 272C160 307.3 188.7 336 224 336zM416 304C398.3 304 384 289.7 384 272L384 256L448 256L448 272C448 289.7 433.7 304 416 304zM480 272L480 256C480 238.3 465.7 224 448 224L384 224C366.3 224 352 238.3 352 256L352 272C352 307.3 380.7 336 416 336C451.3 336 480 307.3 480 272zM272 176C280.8 176 288 168.8 288 160C288 151.2 280.8 144 272 144C263.2 144 256 151.2 256 160C256 168.8 263.2 176 272 176zM336 208C336 199.2 328.8 192 320 192C311.2 192 304 199.2 304 208C304 216.8 311.2 224 320 224C328.8 224 336 216.8 336 208zM304 368C304 359.2 296.8 352 288 352C279.2 352 272 359.2 272 368C272 376.8 279.2 384 288 384C296.8 384 304 376.8 304 368zM304 432C304 423.2 296.8 416 288 416C279.2 416 272 423.2 272 432C272 440.8 279.2 448 288 448C296.8 448 304 440.8 304 432zM288 512C296.8 512 304 504.8 304 496C304 487.2 296.8 480 288 480C279.2 480 272 487.2 272 496C272 504.8 279.2 512 288 512zM352 512C360.8 512 368 504.8 368 496C368 487.2 360.8 480 352 480C343.2 480 336 487.2 336 496C336 504.8 343.2 512 352 512zM352 448C360.8 448 368 440.8 368 432C368 423.2 360.8 416 352 416C343.2 416 336 423.2 336 432C336 440.8 343.2 448 352 448zM352 384C360.8 384 368 376.8 368 368C368 359.2 360.8 352 352 352C343.2 352 336 359.2 336 368C336 376.8 343.2 384 352 384zM384 160C384 151.2 376.8 144 368 144C359.2 144 352 151.2 352 160C352 168.8 359.2 176 368 176C376.8 176 384 168.8 384 160z"/></svg>