<svg xmlns="http://www.w3.org/2000/svg" viewBox="0 0 640 640"><!--! Font Awesome Pro 7.1.0 by @fontawesome - https://fontawesome.com License - https://fontawesome.com/license (Commercial License) Copyright 2025 Fonticons, Inc. --><path fill="currentColor" d="M320.2 160C302.5 160 288.2 145.7 288.2 128C288.2 110.3 302.5 96 320.2 96C337.9 96 352.2 110.3 352.2 128C352.2 145.7 337.9 160 320.2 160zM320.2 192C355.5 192 384.2 163.3 384.2 128C384.2 92.7 355.5 64 320.2 64C284.9 64 256.2 92.7 256.2 128C256.2 163.3 284.9 192 320.2 192zM191.8 298.5C176.3 293.3 160.2 304.9 160.2 321.3L160.2 353.3C160.2 387.9 132.1 416 97.5 416C81.1 416 69.5 432.1 74.7 447.6L79 460.4C85 478.4 85.5 497.7 80.5 516L75.2 535.4C70.3 553.3 86.8 569.8 104.7 564.9L124.1 559.6C142.4 554.6 161.7 555.1 179.7 561.1L192.5 565.4C208 570.6 224.1 559 224.1 542.7L224.1 510.7C224.1 476.1 252.2 448 286.8 448C303.2 448 314.7 431.9 309.6 416.4L305.3 403.6C299.3 385.6 298.8 366.3 303.8 348L309.1 328.6C314 310.7 297.5 294.2 279.6 299.1L260.2 304.4C241.9 309.4 222.6 308.9 204.6 302.9L191.8 298.6zM108.4 447.3C155.6 441.9 192.2 401.9 192.2 353.3L192.2 332.4L194.5 333.2C218.5 341.2 244.3 341.9 268.7 335.3L274.6 333.7L273 339.6C266.4 364 267.1 389.8 275.1 413.8L276.1 416.8C228.9 422.2 192.3 462.2 192.3 510.9L192.3 531.8L190 531.1C169 524.1 146.7 522.7 125.1 526.9L115.9 529.1L110 530.7L111.6 524.8L113.8 515.6C117.4 497.1 116.9 478 112.2 459.7L109.5 450.6L108.5 447.6zM225.8 145.6C197.4 152.1 176.2 177.6 176.2 208C176.2 243.3 204.9 272 240.2 272C270.6 272 296 250.8 302.6 222.4C291.7 220.4 281.4 216.5 272.1 211.1C270.6 227.3 256.9 240 240.2 240C222.5 240 208.2 225.7 208.2 208C208.2 191.4 220.9 177.7 237.1 176.1C231.7 166.8 227.8 156.5 225.8 145.6zM337.8 222.4C344.3 250.8 369.8 272 400.2 272C435.5 272 464.2 243.3 464.2 208C464.2 177.6 443 152.2 414.6 145.6C412.6 156.5 408.7 166.8 403.3 176.1C419.5 177.6 432.2 191.3 432.2 208C432.2 225.7 417.9 240 400.2 240C383.6 240 369.9 227.3 368.3 211.1C359 216.5 348.7 220.4 337.8 222.4zM448.6 298.5L435.8 302.8C417.8 308.8 398.5 309.3 380.2 304.3L360.8 299C342.9 294.1 326.4 310.6 331.3 328.5L336.6 347.9C341.6 366.2 341.1 385.5 335.1 403.5L330.8 416.3C325.6 431.8 337.2 447.9 353.6 447.9C388.2 447.9 416.3 476 416.3 510.6L416.3 542.6C416.3 559 432.4 570.5 447.9 565.3L460.7 561C478.7 555 498 554.5 516.3 559.5L535.7 564.8C553.6 569.7 570.1 553.2 565.2 535.3L559.9 516C554.9 497.7 555.4 478.4 561.4 460.4L565.7 447.6C570.9 432.1 559.3 416 542.9 416C508.3 416 480.2 387.9 480.2 353.3L480.2 321.3C480.2 304.9 464.1 293.3 448.6 298.5zM532 447.3L531 450.3L528.3 459.4C523.7 477.7 523.1 496.8 526.7 515.3L528.9 524.5L530.5 530.4L524.6 528.8L515.4 526.6C493.8 522.4 471.4 523.8 450.5 530.8L448.2 531.5L448.2 510.6C448.2 462 411.6 421.9 364.4 416.5L365.4 413.5C373.4 389.5 374.1 363.7 367.5 339.3L365.9 333.4L371.8 335C396.2 341.6 422 340.9 446 332.9L448.3 332.1L448.3 353C448.3 401.6 485 441.6 532.1 447z"/></svg>