<svg xmlns="http://www.w3.org/2000/svg" viewBox="0 0 640 640"><!--! Font Awesome Pro 7.1.0 by @fontawesome - https://fontawesome.com License - https://fontawesome.com/license (Commercial License) Copyright 2025 Fonticons, Inc. --><path fill="currentColor" d="M309.6 68.3C315.7 62.6 325.3 62.6 331.4 68.3L571.4 292.3C577.9 298.3 578.2 308.5 572.2 314.9C566.2 321.3 556 321.7 549.6 315.7L528.5 296L528.5 512C528.5 547.3 499.8 576 464.5 576L176.5 576C141.2 576 112.5 547.3 112.5 512L112.5 296L91.4 315.7C84.9 321.7 74.8 321.4 68.8 314.9C62.8 308.4 63.1 298.3 69.6 292.3L309.6 68.3zM320.5 101.9L144.5 266.2L144.5 512C144.5 529.7 158.8 544 176.5 544L240.5 544L240.5 432C240.5 396.7 269.2 368 304.5 368L336.5 368C371.8 368 400.5 396.7 400.5 432L400.5 544L464.5 544C482.2 544 496.5 529.7 496.5 512L496.5 266.2L320.5 101.9zM272.5 544L368.5 544L368.5 432C368.5 414.3 354.2 400 336.5 400L304.5 400C286.8 400 272.5 414.3 272.5 432L272.5 544z"/></svg>