<svg xmlns="http://www.w3.org/2000/svg" viewBox="0 0 640 640"><!--! Font Awesome Pro 7.1.0 by @fontawesome - https://fontawesome.com License - https://fontawesome.com/license (Commercial License) Copyright 2025 Fonticons, Inc. --><path fill="currentColor" d="M224 128L256 128L256 208C256 216.8 263.2 224 272 224C280.8 224 288 216.8 288 208L288 128L464 128C472.8 128 480 135.2 480 144C480 152.8 472.8 160 464 160L320 160L320 192L416 192C469 192 512 235 512 288L128 288C128 235 171 192 224 192L224 160L176 160C167.2 160 160 152.8 160 144C160 135.2 167.2 128 176 128L224 128zM543.8 301.2C544 296.9 544 292.5 544 288C544 245.1 522.9 207.2 490.6 184C503.5 175.4 512 160.7 512 144C512 117.5 490.5 96 464 96L176 96C149.5 96 128 117.5 128 144C128 160.7 136.5 175.4 149.4 184C117.1 207.2 96 245.2 96 288C96 292.5 96.1 296.9 96.2 301.2C96 302.1 96 303 96 304C96 305.5 96.2 306.9 96.6 308.3C103.8 434.6 177.3 507.3 209.3 533.2C218.6 540.7 230.4 544.1 242.4 544.1L397.7 544.1C409.7 544.1 421.4 540.8 430.8 533.2C462.8 507.3 536.3 434.6 543.5 308.3C543.9 306.9 544.1 305.5 544.1 304C544.1 303 544 302.1 543.9 301.2zM510.4 320C508 343.5 503.1 364.9 496.5 384C496.3 384 496.2 384 496 384L144 384C143.8 384 143.7 384 143.5 384C137 364.8 132 343.5 129.6 320L510.4 320zM483.3 416C459.9 463.9 428.1 494.1 410.6 508.3C408.1 510.3 403.9 512 397.7 512L242.4 512C236.1 512 231.9 510.3 229.5 508.3C212 494.2 180.1 463.9 156.8 416L483.4 416z"/></svg>