<svg xmlns="http://www.w3.org/2000/svg" viewBox="0 0 640 640"><!--! Font Awesome Pro 7.1.0 by @fontawesome - https://fontawesome.com License - https://fontawesome.com/license (Commercial License) Copyright 2025 Fonticons, Inc. --><path fill="currentColor" d="M96.7 534.1C96.2 535 96 536.1 96 537.2C96 541 99.1 544 102.8 544L208 544L208 368C208 306.1 258.1 256 320 256C381.9 256 432 306.1 432 368L432 544L537.2 544C541 544 544 540.9 544 537.2C544 536.1 543.8 535.1 543.3 534.1L519.7 486.8C504.1 455.7 496 421.4 496 386.7L496 305.2C496 259.8 473.8 217.2 436.6 191.1C416.7 177.1 414.2 148.6 431.4 131.4L466.7 96L336 96C230 96 144 182 144 288L144 386.7C144 421.5 135.9 455.8 120.4 486.9L96.7 534.1zM240 544L400 544L400 368C400 323.8 364.2 288 320 288C275.8 288 240 323.8 240 368L240 544zM208 576L102.8 576C81.4 576 64 558.6 64 537.2C64 531.2 65.4 525.2 68.1 519.8L91.7 472.5C105.1 445.9 112 416.5 112 386.7L112 288C112 164.3 212.3 64 336 64L489.4 64C501.9 64 512 74.1 512 86.6C512 92.6 509.6 98.4 505.4 102.6L454 154C450.9 157.1 451.3 162.3 455 164.9C500.8 196.9 528 249.3 528 305.2L528 386.7C528 416.5 534.9 445.9 548.3 472.6L571.9 519.9C574.6 525.3 576 531.2 576 537.3C576 558.7 558.6 576.1 537.2 576.1L208 576z"/></svg>