<svg xmlns="http://www.w3.org/2000/svg" viewBox="0 0 640 640"><!--! Font Awesome Pro 7.1.0 by @fontawesome - https://fontawesome.com License - https://fontawesome.com/license (Commercial License) Copyright 2025 Fonticons, Inc. --><path fill="currentColor" d="M208.5 64.4C241.3 68 266 96.1 265.4 129.1L264.9 136.2L240 329.1L240 336C240 380.2 275.8 416 320 416C364.2 416 400 380.2 400 336L400 329.1L375.1 136.2C370.2 97.9 400 64 438.6 64L512 64C538.5 64 560 85.5 560 112C560 138.1 539.1 159.3 513.2 159.9L540.2 305.9C542.7 319.6 544 333.5 544 347.4L544 351.9C544 475.6 443.7 575.9 320 575.9C196.3 575.9 96 475.7 96 352L96 347.5C96 333.6 97.3 319.7 99.8 306L126.8 160C100.8 159.3 80 138.1 80 112C80 85.5 101.5 64 128 64L201.4 64L208.5 64.4zM128 96C119.2 96 112 103.2 112 112C112 120.8 119.2 128 128 128L146 128C150.8 128 155.3 130.1 158.3 133.8C161.3 137.5 162.6 142.3 161.7 146.9L131.3 311.8C129.1 323.6 128 335.5 128 347.5L128 352C128 458 214 544 320 544C426 544 512 458 512 352L512 347.5C512 335.5 510.9 323.6 508.7 311.8L478.3 146.9C477.4 142.2 478.7 137.4 481.7 133.8C484.7 130.2 489.2 128 494 128L512 128C520.8 128 528 120.8 528 112C528 103.2 520.8 96 512 96L438.6 96C419.3 96 404.4 113 406.8 132.1L431.8 325.9L431.9 328L431.9 336C431.9 397.9 381.8 448 319.9 448C258 448 208 397.9 208 336L208 328C208 327.3 208 326.6 208.1 325.9L233.1 132.1L233.4 128.5C233.7 112 221.3 98 205 96.2L201.4 96L128 96z"/></svg>