<svg xmlns="http://www.w3.org/2000/svg" viewBox="0 0 640 640"><!--! Font Awesome Pro 7.1.0 by @fontawesome - https://fontawesome.com License - https://fontawesome.com/license (Commercial License) Copyright 2025 Fonticons, Inc. --><path fill="currentColor" d="M368 208C368 146.1 418.1 96 480 96L517.8 96C542.5 96 563.2 114.8 565.6 139.4L573.3 220.2C574.4 232.1 568.8 243.6 558.6 249.9C544.2 258.9 525.2 254.8 515.7 240.7L509.3 231.1C506.3 226.6 501.3 224 496 224L464 224C455.2 224 448 231.2 448 240L448 292.8C447.7 294.3 447.6 295.8 447.7 297.3C447.9 299.5 448 301.7 448 304C448 328 437.6 349.1 421.3 363.6C417.9 366.6 416 371 416 375.5L416 536C416 540.4 412.4 544 408 544L376 544C371.6 544 368 540.4 368 536L368 398.7C368 390.9 362.4 384.2 354.7 382.9C353.3 382.7 351.9 382.4 350.4 382.1L288 368.1L288 318.8C333.4 311.2 368 271.7 368 224.1L368 208.1zM272 288C236.7 288 208 259.3 208 224L336 224C336 259.3 307.3 288 272 288zM256 318.7L256 360.8L234.2 355.9C229 354.7 223.6 356.2 219.7 359.9C215.8 363.6 214 368.9 214.9 374.2C215.7 378.7 216 383.3 216 387.9C216 399.2 213.7 410.3 209.3 420.7L201.2 439.7C196.2 451.4 195.3 464.5 198.7 476.7L214.6 533.9C216 539 212.2 544 206.9 544L173.7 544C170.1 544 167 541.6 166 538.1L152.5 489.5C146.2 466.7 147.8 442.4 157.1 420.7L165.2 401.7C167.1 397.3 168 392.6 168 387.8C168 383.2 167.1 378.5 165.3 374.3L131.9 294.2C129.3 288 128 281.4 128 274.7C128 247.6 149.3 225.5 176 224.1C176 271.6 210.6 311.1 256 318.7zM224 192L178.7 192C145.2 192 116.4 211.9 103.4 240.5C63.3 244.8 32 278.7 32 320L32 368C32 376.8 39.2 384 48 384C56.8 384 64 376.8 64 368L64 320C64 299.1 77.4 281.3 96 274.7C96 285.6 98.2 296.4 102.4 306.4L135.8 386.5C136 386.9 136 387.3 136 387.7C136 388.1 135.9 388.6 135.7 389L127.6 408C115.4 436.4 113.3 468.2 121.6 498L135.1 546.6C139.9 563.9 155.7 575.9 173.6 575.9L206.8 575.9C233.3 575.9 252.4 550.7 245.3 525.2L229.4 468C227.9 462.7 228.3 457.1 230.5 452.1L238.6 433.1C244.2 420 247.4 405.9 247.8 391.7L336 411.6L336 536C336 558.1 353.9 576 376 576L408 576C430.1 576 448 558.1 448 536L448 382.4C467.6 362.4 480 334.9 480 304C480 302.1 479.9 300.1 479.9 298.2C480 297.5 480 296.8 480 296L480 256L487.4 256L489.1 258.5C508.1 287.1 546.5 295.3 575.6 277.1C596 264.4 607.4 241.2 605.2 217.2L597.5 136.4C596 120.9 590.2 106.7 581.2 95.1C587.5 93 592 87 592 80C592 71.2 584.8 64 576 64L480 64C405.9 64 344.8 120 336.9 192L224 192zM528 160C528 151.2 520.8 144 512 144C503.2 144 496 151.2 496 160C496 168.8 503.2 176 512 176C520.8 176 528 168.8 528 160z"/></svg>