<svg xmlns="http://www.w3.org/2000/svg" viewBox="0 0 640 640"><!--! Font Awesome Pro 7.1.0 by @fontawesome - https://fontawesome.com License - https://fontawesome.com/license (Commercial License) Copyright 2025 Fonticons, Inc. --><path fill="currentColor" d="M404 104.2C417.7 99.4 432 109.6 432 124.1C432 131.1 428.5 137.7 422.6 141.6L391.1 162.6C385.8 166.1 383.1 172.4 384.2 178.6C385.3 184.8 389.9 189.9 396.1 191.4L403.1 193.2C435.2 201.2 462.5 222.1 478.7 251L533.1 348.2C547 373.1 543.7 404.1 524.7 425.4C512 439.7 493.8 447.9 474.6 447.9L466.9 447.9C444.7 447.9 423.7 437.6 410.1 420.1L384.1 386.6C376.7 377.1 363 375.4 353.5 382.8C322 407.3 276.9 403.5 250 374.1L219.7 341.1C213.7 334.6 203.6 334.1 197.1 340.1C190.6 346.1 190.1 356.2 196.1 362.7L226.4 395.7C248.7 420 279.6 432 310.4 430.9C310.6 431.5 310.9 432.1 311.2 432.6L347.1 499C350.2 504.8 351.9 511.3 351.9 517.9C351.9 532.2 340.3 543.8 326 543.8L128 544C110.3 544 96 529.7 96 512L96 382C96 279.8 160.7 188.9 257.2 155.3L404 104.2zM375.4 484L343.4 424.7C350.8 422 358.1 418.5 365 414.1L385 439.9C404.7 465.2 435 480.1 467.1 480.1L474.8 480.1C503.1 480.1 530 468 548.8 446.9C576.8 415.4 581.8 369.6 561.2 332.8L506.8 235.6C490.8 206.9 466 184.5 436.4 171.2L440.5 168.5C455.1 158.5 464 141.9 464 124.2C464 87.6 428 62 393.5 74L246.6 125.1C137.3 163.1 64 266.2 64 382L64 512C64 547.3 92.7 576 128 576L326.1 576C358.1 576 384 550.1 384 518.1C384 506.2 381 494.4 375.4 483.9zM400 296C413.3 296 424 285.3 424 272C424 258.7 413.3 248 400 248C386.7 248 376 258.7 376 272C376 285.3 386.7 296 400 296z"/></svg>