<svg xmlns="http://www.w3.org/2000/svg" viewBox="0 0 640 640"><!--! Font Awesome Pro 7.1.0 by @fontawesome - https://fontawesome.com License - https://fontawesome.com/license (Commercial License) Copyright 2025 Fonticons, Inc. --><path fill="currentColor" d="M368 208C368 216.8 360.8 224 352 224L178.7 224C150.7 224 128 246.7 128 274.7C128 281.4 129.3 288 131.9 294.2L165.3 374.3C167.1 378.6 168 383.2 168 387.8C168 392.6 167 397.3 165.2 401.7L157.1 420.7C147.8 442.4 146.2 466.7 152.5 489.5L166 538.1C167 541.6 170.1 544 173.7 544L206.9 544C212.2 544 216 539 214.6 533.9L198.7 476.7C195.3 464.4 196.2 451.4 201.2 439.7L209.3 420.7C213.7 410.3 216 399.2 216 387.9C216 383.3 215.6 378.7 214.9 374.2C214 368.9 215.8 363.6 219.7 359.9C223.6 356.2 229 354.7 234.2 355.9L350.4 382C351.8 382.3 353.2 382.6 354.7 382.8C362.4 384.1 368 390.8 368 398.6L368 536C368 540.4 371.6 544 376 544L408 544C412.4 544 416 540.4 416 536L416 375.6C416 371 417.9 366.7 421.3 363.7C437.6 349.2 448 328.1 448 304.1C448 301.8 447.9 299.6 447.7 297.4C447.6 295.9 447.7 294.3 448 292.9L448 240.1C448 231.3 455.2 224.1 464 224.1L496 224.1C501.4 224.1 506.3 226.8 509.3 231.2L515.7 240.8C525.1 255 544.2 259.1 558.6 250C568.7 243.7 574.4 232.2 573.3 220.3L565.6 139.5C563.3 114.9 542.6 96.1 517.8 96.1L480 96C418.1 96 368 146.1 368 208zM581.2 95.1C590.1 106.7 596 120.8 597.5 136.4L605.2 217.2C607.5 241.1 596 264.3 575.6 277.1C546.5 295.3 508.2 287.1 489.1 258.5L487.4 256L480 256L480 296C480 296.7 479.9 297.5 479.9 298.2C480 300.1 480 302.1 480 304C480 334.9 467.6 362.4 448 382.4L448 536C448 558.1 430.1 576 408 576L376 576C353.9 576 336 558.1 336 536L336 411.6L247.9 391.8C247.4 406.1 244.3 420.1 238.7 433.2L230.6 452.2C228.4 457.2 228.1 462.8 229.5 468.1L245.4 525.3C252.5 550.8 233.3 576 206.9 576L173.7 576C155.7 576 140 564 135.2 546.7L121.6 498.1C113.3 468.3 115.4 436.6 127.6 408.1L135.7 389.1C135.9 388.7 136 388.3 136 387.8C136 387.4 135.9 387 135.8 386.6L102.4 306.5C98.2 296.4 96 285.7 96 274.8C77.4 281.4 64 299.2 64 320.1L64 368.1C64 376.9 56.8 384.1 48 384.1C39.2 384.1 32 376.8 32 368L32 320C32 278.7 63.3 244.8 103.4 240.5C116.4 211.9 145.2 192 178.7 192L336.9 192C344.9 120 405.9 64 480 64L576 64C584.8 64 592 71.2 592 80C592 87 587.5 93 581.2 95.1zM496 160C496 151.2 503.2 144 512 144C520.8 144 528 151.2 528 160C528 168.8 520.8 176 512 176C503.2 176 496 168.8 496 160z"/></svg>