<svg xmlns="http://www.w3.org/2000/svg" viewBox="0 0 640 640"><!--! Font Awesome Pro 7.1.0 by @fontawesome - https://fontawesome.com License - https://fontawesome.com/license (Commercial License) Copyright 2025 Fonticons, Inc. --><path fill="currentColor" d="M384 176C384 184.8 391.2 192 400 192C408.8 192 416 184.8 416 176L416 174.1L512.1 162.1C513.1 169.9 519.8 176 528 176C536.8 176 544 168.8 544 160L544 96C544 87.2 536.8 80 528 80C519.9 80 513.2 86.1 512.1 93.9L416 81.9L416 80C416 71.2 408.8 64 400 64C391.2 64 384 71.2 384 80L248 80C164.1 80 96 148.1 96 232C96 280.8 119 324.2 154.7 352L144 352C117.5 352 96 373.5 96 400C96 412.3 100.6 423.5 108.2 432C100.6 440.5 96 451.7 96 464C96 476.3 100.6 487.5 108.2 496C100.6 504.5 96 515.7 96 528C96 554.5 117.5 576 144 576L496 576C522.5 576 544 554.5 544 528C544 515.7 539.4 504.5 531.8 496C539.4 487.5 544 476.3 544 464C544 451.7 539.4 440.5 531.8 432C539.4 423.5 544 412.3 544 400C544 387.7 539.4 376.5 531.8 368C539.4 359.5 544 348.3 544 336C544 309.5 522.5 288 496 288L248 288C217.1 288 192 262.9 192 232C192 201.1 217.1 176 248 176L384 176zM384 144L248 144C199.4 144 160 183.4 160 232C160 280.6 199.4 320 248 320L496 320C504.8 320 512 327.2 512 336C512 344.8 504.8 352 496 352L248 352C181.7 352 128 298.3 128 232C128 165.7 181.7 112 248 112L384 112L384 144zM496 384C504.8 384 512 391.2 512 400C512 408.8 504.8 416 496 416L144 416C135.2 416 128 408.8 128 400C128 391.2 135.2 384 144 384L496 384zM416 114.1L512 126.1L512 129.9L416 141.9L416 114.1zM144 512L496 512C504.8 512 512 519.2 512 528C512 536.8 504.8 544 496 544L144 544C135.2 544 128 536.8 128 528C128 519.2 135.2 512 144 512zM144 448L496 448C504.8 448 512 455.2 512 464C512 472.8 504.8 480 496 480L144 480C135.2 480 128 472.8 128 464C128 455.2 135.2 448 144 448z"/></svg>