<svg xmlns="http://www.w3.org/2000/svg" viewBox="0 0 640 640"><!--! Font Awesome Pro 7.1.0 by @fontawesome - https://fontawesome.com License - https://fontawesome.com/license (Commercial License) Copyright 2025 Fonticons, Inc. --><path fill="currentColor" d="M96 320C96 196.3 196.3 96 320 96C443.7 96 544 196.3 544 320L544 416L512 416C503.2 416 496 423.2 496 432C496 440.8 503.2 448 512 448L513.9 448L525.9 544.1C518.1 545.1 512 551.8 512 560C512 568.8 519.2 576 528 576L592 576C600.8 576 608 568.8 608 560C608 551.9 601.9 545.2 594.1 544.1L606.1 448L608 448C616.8 448 624 440.8 624 432C624 423.2 616.8 416 608 416L576 416L576 320C576 178.6 461.4 64 320 64C178.6 64 64 178.6 64 320C64 461.4 178.6 576 320 576C377.6 576 430.8 557 473.6 524.8C480.7 519.5 482.1 509.5 476.8 502.4C471.5 495.3 461.5 493.9 454.4 499.2C417 527.3 370.4 544 320 544C196.3 544 96 443.7 96 320zM573.9 448L561.9 544L558.1 544L546.1 448L573.9 448zM464 320C464 399.5 399.5 464 320 464C240.5 464 176 399.5 176 320C176 240.5 240.5 176 320 176C399.5 176 464 240.5 464 320zM320 144C222.8 144 144 222.8 144 320C144 417.2 222.8 496 320 496C417.2 496 496 417.2 496 320C496 222.8 417.2 144 320 144zM320 384C284.7 384 256 355.3 256 320C256 284.7 284.7 256 320 256C355.3 256 384 284.7 384 320C384 355.3 355.3 384 320 384zM224 320C224 373 267 416 320 416C373 416 416 373 416 320C416 267 373 224 320 224C267 224 224 267 224 320z"/></svg>