<svg xmlns="http://www.w3.org/2000/svg" viewBox="0 0 640 640"><!--! Font Awesome Pro 7.1.0 by @fontawesome - https://fontawesome.com License - https://fontawesome.com/license (Commercial License) Copyright 2025 Fonticons, Inc. --><path fill="currentColor" d="M128 96L384 96C401.7 96 416 110.3 416 128L416 268.1C425.6 260.4 436.4 254 448 249.3L448 128C448 92.7 419.3 64 384 64L128 64C92.7 64 64 92.7 64 128L64 512C64 547.3 92.7 576 128 576L304 576C304 575 304 574.1 304 573.1C304 549.5 309.8 527.3 320 507.8L320 464C320 437.5 298.5 416 272 416L240 416C213.5 416 192 437.5 192 464L192 544L128 544C110.3 544 96 529.7 96 512L96 128C96 110.3 110.3 96 128 96zM288 544L224 544L224 464C224 455.2 231.2 448 240 448L272 448C280.8 448 288 455.2 288 464L288 544zM496 320C522.5 320 544 341.5 544 368C544 394.5 522.5 416 496 416C469.5 416 448 394.5 448 368C448 341.5 469.5 320 496 320zM496 448C540.2 448 576 412.2 576 368C576 323.8 540.2 288 496 288C451.8 288 416 323.8 416 368C416 412.2 451.8 448 496 448zM352 576L352 592C352 600.8 359.2 608 368 608C376.8 608 384 600.8 384 592L384 576C384 540.7 412.7 512 448 512L544 512C579.3 512 608 540.7 608 576L608 592C608 600.8 615.2 608 624 608C632.8 608 640 600.8 640 592L640 576C640 523 597 480 544 480L448 480C395 480 352 523 352 576zM240 176L240 208L208 208C199.2 208 192 215.2 192 224C192 232.8 199.2 240 208 240L240 240L240 272C240 280.8 247.2 288 256 288C264.8 288 272 280.8 272 272L272 240L304 240C312.8 240 320 232.8 320 224C320 215.2 312.8 208 304 208L272 208L272 176C272 167.2 264.8 160 256 160C247.2 160 240 167.2 240 176z"/></svg>