<svg xmlns="http://www.w3.org/2000/svg" viewBox="0 0 640 640"><!--! Font Awesome Pro 7.1.0 by @fontawesome - https://fontawesome.com License - https://fontawesome.com/license (Commercial License) Copyright 2025 Fonticons, Inc. --><path fill="currentColor" d="M208 64C172.7 64 144 92.7 144 128L144 192L96 192C60.7 192 32 220.7 32 256L32 512C32 547.3 60.7 576 96 576L544 576C579.3 576 608 547.3 608 512L608 256C608 220.7 579.3 192 544 192L496 192L496 128C496 92.7 467.3 64 432 64L208 64zM544 544L384 544L384 464C384 437.5 362.5 416 336 416L304 416C277.5 416 256 437.5 256 464L256 544L96 544C78.3 544 64 529.7 64 512L64 256C64 238.3 78.3 224 96 224L160 224C168.8 224 176 216.8 176 208L176 128C176 110.3 190.3 96 208 96L432 96C449.7 96 464 110.3 464 128L464 208C464 216.8 471.2 224 480 224L544 224C561.7 224 576 238.3 576 256L576 512C576 529.7 561.7 544 544 544zM352 544L288 544L288 464C288 455.2 295.2 448 304 448L336 448C344.8 448 352 455.2 352 464L352 544zM120 392L120 408C120 416.8 127.2 424 136 424L152 424C160.8 424 168 416.8 168 408L168 392C168 383.2 160.8 376 152 376L136 376C127.2 376 120 383.2 120 392zM136 280C127.2 280 120 287.2 120 296L120 312C120 320.8 127.2 328 136 328L152 328C160.8 328 168 320.8 168 312L168 296C168 287.2 160.8 280 152 280L136 280zM472 392L472 408C472 416.8 479.2 424 488 424L504 424C512.8 424 520 416.8 520 408L520 392C520 383.2 512.8 376 504 376L488 376C479.2 376 472 383.2 472 392zM488 280C479.2 280 472 287.2 472 296L472 312C472 320.8 479.2 328 488 328L504 328C512.8 328 520 320.8 520 312L520 296C520 287.2 512.8 280 504 280L488 280zM304 160L304 192L272 192C263.2 192 256 199.2 256 208C256 216.8 263.2 224 272 224L304 224L304 256C304 264.8 311.2 272 320 272C328.8 272 336 264.8 336 256L336 224L368 224C376.8 224 384 216.8 384 208C384 199.2 376.8 192 368 192L336 192L336 160C336 151.2 328.8 144 320 144C311.2 144 304 151.2 304 160z"/></svg>