<svg xmlns="http://www.w3.org/2000/svg" viewBox="0 0 640 640"><!--! Font Awesome Pro 7.1.0 by @fontawesome - https://fontawesome.com License - https://fontawesome.com/license (Commercial License) Copyright 2025 Fonticons, Inc. --><path fill="currentColor" d="M320 64C284.7 64 256 92.7 256 128L256 160L96 160C60.7 160 32 188.7 32 224L32 512C32 547.3 60.7 576 96 576L544 576C579.3 576 608 547.3 608 512L608 128C608 92.7 579.3 64 544 64L320 64zM496 544L496 464C496 437.5 474.5 416 448 416L416 416C389.5 416 368 437.5 368 464L368 544L320 544C302.3 544 288 529.7 288 512L288 128C288 110.3 302.3 96 320 96L544 96C561.7 96 576 110.3 576 128L576 512C576 529.7 561.7 544 544 544L496 544zM464 544L400 544L400 464C400 455.2 407.2 448 416 448L448 448C456.8 448 464 455.2 464 464L464 544zM96 192L256 192L256 512C256 523.7 259.1 534.6 264.6 544L96 544C78.3 544 64 529.7 64 512L64 224C64 206.3 78.3 192 96 192zM416 160L416 192L384 192C375.2 192 368 199.2 368 208C368 216.8 375.2 224 384 224L416 224L416 256C416 264.8 423.2 272 432 272C440.8 272 448 264.8 448 256L448 224L480 224C488.8 224 496 216.8 496 208C496 199.2 488.8 192 480 192L448 192L448 160C448 151.2 440.8 144 432 144C423.2 144 416 151.2 416 160zM160 256L160 288L128 288C119.2 288 112 295.2 112 304C112 312.8 119.2 320 128 320L160 320L160 352C160 360.8 167.2 368 176 368C184.8 368 192 360.8 192 352L192 320L224 320C232.8 320 240 312.8 240 304C240 295.2 232.8 288 224 288L192 288L192 256C192 247.2 184.8 240 176 240C167.2 240 160 247.2 160 256z"/></svg>