<svg xmlns="http://www.w3.org/2000/svg" viewBox="0 0 640 640"><!--! Font Awesome Pro 7.1.0 by @fontawesome - https://fontawesome.com License - https://fontawesome.com/license (Commercial License) Copyright 2025 Fonticons, Inc. --><path fill="currentColor" d="M320 112C320 127.8 326.7 142.9 338.5 153.5L365 177.3C387.3 197.4 400 226 400 256C400 264.8 392.8 272 384 272C375.2 272 368 264.8 368 256C368 235.1 359.1 215.1 343.6 201.1L317.1 177.3C298.6 160.6 288 136.9 288 112C288 103.2 295.2 96 304 96C312.8 96 320 103.2 320 112zM128 400L128 512C128 529.7 142.3 544 160 544L192 544L192 368L128 368L128 400zM291.6 336L230.4 297.7C220.2 291.3 208.5 288 196.5 288L160 288C142.3 288 128 302.3 128 320L128 336L291.6 336zM336.4 326.3C346.6 332.7 358.3 336 370.3 336L480 336C515.3 336 544 364.7 544 400L544 512C544 547.3 515.3 576 480 576L160 576C124.7 576 96 547.3 96 512L96 320C96 284.7 124.7 256 160 256L196.5 256C214.5 256 232.1 261.1 247.4 270.6L336.5 326.3zM370.4 368L336 368L336 544L416 544L416 368L370.4 368zM448 544L480 544C497.7 544 512 529.7 512 512L512 400C512 382.3 497.7 368 480 368L448 368L448 544zM304 368L224 368L224 544L304 544L304 368zM416 96C424.8 96 432 103.2 432 112C432 127.8 438.7 142.9 450.5 153.5L477 177.3C499.3 197.4 512 226 512 256C512 264.8 504.8 272 496 272C487.2 272 480 264.8 480 256C480 235.1 471.1 215.1 455.6 201.1L429.1 177.3C410.6 160.6 400 136.9 400 112C400 103.2 407.2 96 416 96zM192 160C192 142.3 177.7 128 160 128C142.3 128 128 142.3 128 160C128 177.7 142.3 192 160 192C177.7 192 192 177.7 192 160zM96 160C96 124.7 124.7 96 160 96C195.3 96 224 124.7 224 160C224 195.3 195.3 224 160 224C124.7 224 96 195.3 96 160z"/></svg>