<svg xmlns="http://www.w3.org/2000/svg" viewBox="0 0 640 640"><!--! Font Awesome Pro 7.1.0 by @fontawesome - https://fontawesome.com License - https://fontawesome.com/license (Commercial License) Copyright 2025 Fonticons, Inc. --><path fill="currentColor" d="M320 530.7L530.7 320C539.2 311.5 544 300 544 288C544 276 539.2 264.5 530.7 256L513.9 239.2L239.2 513.9L256 530.7C264.5 539.2 276 544 288 544C300 544 311.5 539.2 320 530.7zM214.3 534.2C183.9 550.7 145.1 546.2 119.5 520.5C93.9 494.8 89.2 456 105.8 425.7L86.6 406.6C72.1 392.1 64 372.5 64 352C64 331.5 72.1 311.9 86.6 297.4L297.4 86.6C311.9 72.1 331.5 64 352 64C372.5 64 392.1 72.1 406.6 86.6L425.7 105.7C456.1 89.2 494.9 93.7 520.5 119.4C546.1 145.1 550.8 183.9 534.2 214.2L553.3 233.3C567.9 247.9 576 267.5 576 288C576 308.5 567.9 328.1 553.4 342.6L342.6 553.4C328.1 567.9 308.5 576 288 576C267.5 576 247.9 567.9 233.4 553.4L214.3 534.3zM126.1 400.8L400.8 126.1L384 109.3C375.5 100.8 364 96 352 96C340 96 328.5 100.8 320 109.3L109.3 320C100.8 328.5 96 340 96 352C96 364 100.8 375.5 109.3 384L126.1 400.8zM497.9 142.1C479.2 123.4 448.8 123.4 430 142.1L142 430.1C123.3 448.8 123.3 479.2 142 498C160.7 516.8 191.1 516.7 209.9 498L497.9 210C516.6 191.3 516.6 160.9 497.9 142.1z"/></svg>