<svg xmlns="http://www.w3.org/2000/svg" viewBox="0 0 640 640"><!--! Font Awesome Pro 7.1.0 by @fontawesome - https://fontawesome.com License - https://fontawesome.com/license (Commercial License) Copyright 2025 Fonticons, Inc. --><path fill="currentColor" d="M64 80C64 71.2 71.2 64 80 64L560 64C568.8 64 576 71.2 576 80C576 88.8 568.8 96 560 96L544 96L544 544L560 544C568.8 544 576 551.2 576 560C576 568.8 568.8 576 560 576L80 576C71.2 576 64 568.8 64 560C64 551.2 71.2 544 80 544L96 544L96 96L80 96C71.2 96 64 88.8 64 80zM128 96L128 544L256 544L256 464L248 464C234.7 464 223.7 453.1 227 440.2C237.6 398.7 275.2 368 320 368C364.8 368 402.5 398.7 413 440.2C416.3 453 405.2 464 392 464L384 464L384 544L512 544L512 96L128 96zM288 464L288 544L352 544L352 464L288 464zM320 400C296.3 400 275.6 412.9 264.6 432L375.5 432C364.4 412.9 343.7 400 320.1 400zM296 184C296 175.2 303.2 168 312 168L328 168C336.8 168 344 175.2 344 184L344 200C344 208.8 336.8 216 328 216L312 216C303.2 216 296 208.8 296 200L296 184zM312 264L328 264C336.8 264 344 271.2 344 280L344 296C344 304.8 336.8 312 328 312L312 312C303.2 312 296 304.8 296 296L296 280C296 271.2 303.2 264 312 264zM200 184C200 175.2 207.2 168 216 168L232 168C240.8 168 248 175.2 248 184L248 200C248 208.8 240.8 216 232 216L216 216C207.2 216 200 208.8 200 200L200 184zM216 264L232 264C240.8 264 248 271.2 248 280L248 296C248 304.8 240.8 312 232 312L216 312C207.2 312 200 304.8 200 296L200 280C200 271.2 207.2 264 216 264zM392 184C392 175.2 399.2 168 408 168L424 168C432.8 168 440 175.2 440 184L440 200C440 208.8 432.8 216 424 216L408 216C399.2 216 392 208.8 392 200L392 184zM408 264L424 264C432.8 264 440 271.2 440 280L440 296C440 304.8 432.8 312 424 312L408 312C399.2 312 392 304.8 392 296L392 280C392 271.2 399.2 264 408 264z"/></svg>