<svg xmlns="http://www.w3.org/2000/svg" viewBox="0 0 640 640"><!--! Font Awesome Pro 7.1.0 by @fontawesome - https://fontawesome.com License - https://fontawesome.com/license (Commercial License) Copyright 2025 Fonticons, Inc. --><path fill="currentColor" d="M80 64C71.2 64 64 71.2 64 80C64 88.8 71.2 96 80 96L96 96L96 137.6C96 187 118.8 233.6 157.8 263.9L230 320L157.8 376.1C118.8 406.4 96 453.1 96 502.4L96 544L80 544C71.2 544 64 551.2 64 560C64 568.8 71.2 576 80 576L308 576C300.8 566 294.6 555.3 289.4 544L128 544L128 502.4C128 462.9 146.2 425.6 177.4 401.4L256 340.3L295.8 371.3C301 361.9 307 353 313.6 344.6L282 320L354.2 263.9C393.2 233.6 416 187 416 137.6L416 96L432 96C440.8 96 448 88.8 448 80C448 71.2 440.8 64 432 64L80 64zM384 96L384 137.6C384 177.1 365.8 214.4 334.6 238.6L256 299.7L177.4 238.6C146.2 214.4 128 177.1 128 137.6L128 96L384 96zM464 352C525.9 352 576 402.1 576 464C576 525.9 525.9 576 464 576C402.1 576 352 525.9 352 464C352 402.1 402.1 352 464 352zM464 608C543.5 608 608 543.5 608 464C608 384.5 543.5 320 464 320C384.5 320 320 384.5 320 464C320 543.5 384.5 608 464 608zM464 384C455.2 384 448 391.2 448 400L448 464C448 472.8 455.2 480 464 480L512 480C520.8 480 528 472.8 528 464C528 455.2 520.8 448 512 448L480 448L480 400C480 391.2 472.8 384 464 384z"/></svg>