<svg xmlns="http://www.w3.org/2000/svg" viewBox="0 0 640 640"><!--! Font Awesome Pro 7.1.0 by @fontawesome - https://fontawesome.com License - https://fontawesome.com/license (Commercial License) Copyright 2025 Fonticons, Inc. --><path fill="currentColor" d="M128 560C128 568.8 135.2 576 144 576L496 576C504.8 576 512 568.8 512 560C512 551.2 504.8 544 496 544L480 544L480 502.4C480 453 457.2 406.4 418.2 376.1L346 320L418.2 263.9C457.2 233.6 480 187 480 137.6L480 96L496 96C504.8 96 512 88.8 512 80C512 71.2 504.8 64 496 64L144 64C135.2 64 128 71.2 128 80C128 88.8 135.2 96 144 96L160 96L160 137.6C160 187 182.8 233.6 221.8 263.9L294 320L221.8 376.1C182.8 406.4 160 453.1 160 502.4L160 544L144 544C135.2 544 128 551.2 128 560zM192 544L192 502.4C192 462.9 210.2 425.6 241.4 401.4L320 340.3L398.6 401.4C429.8 425.6 448 462.9 448 502.4L448 544L192 544zM241.4 238.6C225.3 226.1 212.6 210 204.1 192L435.8 192C427.3 210 414.7 226.1 398.5 238.6L319.9 299.7L241.3 238.6zM194 160C192.7 152.7 192 145.2 192 137.6L192 96L448 96L448 137.6C448 145.2 447.3 152.7 446 160L194 160z"/></svg>