<svg xmlns="http://www.w3.org/2000/svg" viewBox="0 0 640 640"><!--! Font Awesome Pro 7.1.0 by @fontawesome - https://fontawesome.com License - https://fontawesome.com/license (Commercial License) Copyright 2025 Fonticons, Inc. --><path fill="currentColor" d="M144 576C135.2 576 128 568.8 128 560C128 551.2 135.2 544 144 544L160 544L160 502.4C160 453 182.8 406.4 221.8 376.1L294 320L221.8 263.9C182.8 233.6 160 186.9 160 137.6L160 96L144 96C135.2 96 128 88.8 128 80C128 71.2 135.2 64 144 64L496 64C504.8 64 512 71.2 512 80C512 88.8 504.8 96 496 96L480 96L480 137.6C480 187 457.2 233.6 418.2 263.9L346 320L418.2 376.1C457.2 406.4 480 453 480 502.4L480 544L496 544C504.8 544 512 551.2 512 560C512 568.8 504.8 576 496 576L144 576zM448 544L448 502.4C448 494.8 447.3 487.3 446 480L194 480C192.7 487.3 192 494.8 192 502.4L192 544L448 544zM241.4 401.4C225.3 413.9 212.6 430 204.1 448L435.8 448C427.3 430 414.7 413.9 398.5 401.4L319.9 340.3L241.3 401.4zM320 299.7L398.6 238.6C404.3 234.1 409.6 229.3 414.4 224L225.6 224C230.4 229.3 235.7 234.2 241.4 238.6L320 299.7zM435.9 192C443.8 175.2 448 156.6 448 137.6L448 96L192 96L192 137.6C192 156.7 196.2 175.2 204.1 192L435.8 192z"/></svg>