<svg xmlns="http://www.w3.org/2000/svg" viewBox="0 0 640 640"><!--! Font Awesome Pro 7.1.0 by @fontawesome - https://fontawesome.com License - https://fontawesome.com/license (Commercial License) Copyright 2025 Fonticons, Inc. --><path fill="currentColor" d="M324.9 44.5C331.1 38.5 340.9 38.5 347.1 44.5L571.1 260.5C577.5 266.6 577.6 276.8 571.5 283.1C565.4 289.4 555.2 289.6 548.9 283.5L528 263.4L528 448C528 483.3 499.3 512 464 512L327 512C324.1 501.1 320.6 490.4 316.5 480L464 480C481.7 480 496 465.7 496 448L496 232.5L336 78.2L123.1 283.5C116.7 289.6 106.6 289.4 100.5 283.1C94.4 276.8 94.6 266.6 100.9 260.5L324.9 44.5zM272 280C272 257.9 289.9 240 312 240L360 240C382.1 240 400 257.9 400 280L400 328C400 350.1 382.1 368 360 368L312 368C289.9 368 272 350.1 272 328L272 280zM312 272C307.6 272 304 275.6 304 280L304 328C304 332.4 307.6 336 312 336L360 336C364.4 336 368 332.4 368 328L368 280C368 275.6 364.4 272 360 272L312 272zM48 352C180.5 352 288 459.5 288 592C288 600.8 280.8 608 272 608C263.2 608 256 600.8 256 592C256 477.1 162.9 384 48 384C39.2 384 32 376.8 32 368C32 359.2 39.2 352 48 352zM64 544C81.7 544 96 558.3 96 576C96 593.7 81.7 608 64 608C46.3 608 32 593.7 32 576C32 558.3 46.3 544 64 544zM32 464C32 455.2 39.2 448 48 448C127.5 448 192 512.5 192 592C192 600.8 184.8 608 176 608C167.2 608 160 600.8 160 592C160 530.1 109.9 480 48 480C39.2 480 32 472.8 32 464z"/></svg>