<svg xmlns="http://www.w3.org/2000/svg" viewBox="0 0 640 640"><!--! Font Awesome Pro 7.1.0 by @fontawesome - https://fontawesome.com License - https://fontawesome.com/license (Commercial License) Copyright 2025 Fonticons, Inc. --><path fill="currentColor" d="M331.4 68.3C325.3 62.6 315.7 62.6 309.6 68.3L69.6 292.3C63.1 298.3 62.8 308.5 68.8 314.9C74.8 321.3 85 321.7 91.4 315.7L112.5 296L112.5 512C112.5 547.3 141.2 576 176.5 576L464.5 576C499.8 576 528.5 547.3 528.5 512L528.5 296L549.6 315.7C556.1 321.7 566.2 321.4 572.2 314.9C578.2 308.4 577.9 298.3 571.4 292.3L528.5 252.2L528.5 136C528.5 113.9 510.6 96 488.5 96L456.5 96C434.4 96 416.5 113.9 416.5 136L416.5 147.7L331.4 68.3zM496.5 136L496.5 222.4L448.5 177.6L448.5 136C448.5 131.6 452.1 128 456.5 128L488.5 128C492.9 128 496.5 131.6 496.5 136zM496.5 266.2L496.5 512C496.5 529.7 482.2 544 464.5 544L176.5 544C158.8 544 144.5 529.7 144.5 512L144.5 266.2L320.5 101.9L496.5 266.2zM320.5 256C338.2 256 352.5 270.3 352.5 288C352.5 305.7 338.2 320 320.5 320C302.8 320 288.5 305.7 288.5 288C288.5 270.3 302.8 256 320.5 256zM320.5 352C355.8 352 384.5 323.3 384.5 288C384.5 252.7 355.8 224 320.5 224C285.2 224 256.5 252.7 256.5 288C256.5 323.3 285.2 352 320.5 352zM288.5 416L352.5 416C379 416 400.5 437.5 400.5 464C400.5 472.8 407.7 480 416.5 480C425.3 480 432.5 472.8 432.5 464C432.5 419.8 396.7 384 352.5 384L288.5 384C244.3 384 208.5 419.8 208.5 464C208.5 472.8 215.7 480 224.5 480C233.3 480 240.5 472.8 240.5 464C240.5 437.5 262 416 288.5 416z"/></svg>