<svg xmlns="http://www.w3.org/2000/svg" viewBox="0 0 640 640"><!--! Font Awesome Pro 7.1.0 by @fontawesome - https://fontawesome.com License - https://fontawesome.com/license (Commercial License) Copyright 2025 Fonticons, Inc. --><path fill="currentColor" d="M272 16C263.2 16 256 23.2 256 32L256 64L224 64C215.2 64 208 71.2 208 80C208 88.8 215.2 96 224 96L256 96L256 128C256 136.8 263.2 144 272 144C280.8 144 288 136.8 288 128L288 96L320 96C328.8 96 336 88.8 336 80C336 71.2 328.8 64 320 64L288 64L288 32C288 23.2 280.8 16 272 16zM127 33C122.1 32.3 117.1 32 112 32C50.1 32 0 82.1 0 144C0 205.9 50.1 256 112 256C142.6 256 170.4 243.7 190.6 223.8C191.3 223.2 191.9 222.5 192.5 221.8C198.5 215.6 203.3 209.2 207.3 202.8C211.2 196.6 204.1 189.5 196.9 190.8C194.5 191.2 192 191.6 189.4 191.7C186 192 181.9 192 177.5 191.6C177.1 191.6 176.7 191.5 176.3 191.5C140.2 187.7 112 157.1 112 119.9C112 99.1 120.8 80.4 134.9 67.2C135.2 66.9 135.5 66.7 135.8 66.4C138.7 63.7 141.9 61.3 145.2 59.2C147.3 57.8 149.5 56.6 151.8 55.5C158.4 52.2 159.8 42.3 152.9 39.6C145.9 36.9 138.2 34.6 129.7 33.3C128.8 33.2 127.9 33 127 32.9zM80 120C80 163.9 107.1 201.4 145.5 216.7C135.3 221.4 123.9 224 112 224C67.8 224 32 188.2 32 144C32 105.6 59.1 73.5 95.3 65.8C85.6 81.6 80 100.2 80 120zM379.1 140.5C372.9 134.5 363.1 134.5 356.9 140.5L132.9 356.5C126.5 362.6 126.4 372.8 132.5 379.1C138.6 385.4 148.8 385.6 155.1 379.5L176 359.4L176 544C176 579.3 204.7 608 240 608L496 608C531.3 608 560 579.3 560 544L560 359.4L580.9 379.6C587.3 385.7 597.4 385.5 603.5 379.2C609.6 372.9 609.4 362.7 603.1 356.6L379.1 140.6zM528 328.5L528 544C528 561.7 513.7 576 496 576L240 576C222.3 576 208 561.7 208 544L208 328.5L368 174.2L528 328.5zM304 376L304 424C304 446.1 321.9 464 344 464L392 464C414.1 464 432 446.1 432 424L432 376C432 353.9 414.1 336 392 336L344 336C321.9 336 304 353.9 304 376zM344 368L392 368C396.4 368 400 371.6 400 376L400 424C400 428.4 396.4 432 392 432L344 432C339.6 432 336 428.4 336 424L336 376C336 371.6 339.6 368 344 368zM560 80C551.2 80 544 87.2 544 96L544 128L512 128C503.2 128 496 135.2 496 144C496 152.8 503.2 160 512 160L544 160L544 192C544 200.8 551.2 208 560 208C568.8 208 576 200.8 576 192L576 160L608 160C616.8 160 624 152.8 624 144C624 135.2 616.8 128 608 128L576 128L576 96C576 87.2 568.8 80 560 80z"/></svg>