<svg xmlns="http://www.w3.org/2000/svg" viewBox="0 0 640 640"><!--! Font Awesome Pro 7.1.0 by @fontawesome - https://fontawesome.com License - https://fontawesome.com/license (Commercial License) Copyright 2025 Fonticons, Inc. --><path fill="currentColor" d="M144 64C205.9 64 256 114.1 256 176C256 237.9 205.9 288 144 288C82.1 288 32 237.9 32 176C32 114.1 82.1 64 144 64zM144 320C223.5 320 288 255.5 288 176C288 96.5 223.5 32 144 32C64.5 32 0 96.5 0 176C0 255.5 64.5 320 144 320zM140.7 108.7C134.5 114.9 134.5 125.1 140.7 131.3L169.4 160L80 160C71.2 160 64 167.2 64 176C64 184.8 71.2 192 80 192L169.4 192L140.7 220.7C134.5 226.9 134.5 237.1 140.7 243.3C146.9 249.5 157.1 249.5 163.3 243.3L219.3 187.3C225.5 181.1 225.5 170.9 219.3 164.7L163.3 108.7C157.1 102.5 146.9 102.5 140.7 108.7zM336 171.3L416.1 101.3L560.1 227.3L560.1 416C560.1 417.1 560 418.2 559.9 419.2C564.3 421.1 568 422.3 571.2 422.9C574.6 423.6 576.9 423.4 578.5 423.1C580 422.8 582.8 421.9 586.9 419C588.6 417.8 590.3 416.7 592.1 415.7L592.1 255.3L597.6 260.1C604.2 265.9 614.4 265.2 620.2 258.6C626 252 625.3 241.8 618.7 236L426.5 68C420.5 62.7 411.5 62.7 405.4 68L331.2 133C334 145.4 335.7 158.2 336 171.3zM392 232C374.3 232 360 246.3 360 264L360 312C360 329.7 374.3 344 392 344L440 344C457.7 344 472 329.7 472 312L472 264C472 246.3 457.7 232 440 232L392 232zM402 469.9C428 451.3 463.1 451.3 489.1 469.9C508.8 484 531.5 496.8 556.1 501.5C581.3 506.3 607.8 502.4 633.3 484.1C640.5 479 642.2 469 637 461.8C631.8 454.6 621.9 452.9 614.7 458.1C596.7 470.9 579.3 473.4 562.1 470.1C544.2 466.7 525.9 456.9 507.7 443.9C470.6 417.4 420.6 417.4 383.4 443.9C358.1 462 338.1 472 319.9 472C301.7 472 281.8 461.9 256.4 443.9C219.3 417.4 169.3 417.4 132.1 443.9C108.9 460.4 86 471.6 63.9 471.4C51.4 471.3 38.5 467.7 25.1 458.1C17.9 453 7.9 454.6 2.8 461.8C-2.3 469-.5 479 6.7 484.1C25.4 497.4 44.7 503.3 63.9 503.4C96.3 503.6 126.1 487.6 150.8 469.9C176.8 451.3 211.9 451.3 237.9 469.9C263.5 488.2 290.8 504 319.9 504C349 504 376.3 488.2 401.9 469.9zM489.1 565.9C508.8 580 531.5 592.8 556.1 597.5C581.3 602.3 607.8 598.4 633.3 580.1C640.5 575 642.2 565 637 557.8C631.8 550.6 621.9 548.9 614.7 554.1C596.7 566.9 579.3 569.4 562.1 566.1C544.2 562.7 525.9 552.9 507.7 539.9C470.6 513.4 420.6 513.4 383.4 539.9C358.1 558 338.1 568 319.9 568C301.7 568 281.8 557.9 256.4 539.9C219.3 513.4 169.3 513.4 132.1 539.9C108.9 556.4 86 567.6 63.9 567.4C51.4 567.3 38.5 563.7 25.1 554.1C17.9 549 7.9 550.6 2.8 557.8C-2.3 565-.5 575 6.7 580.1C25.4 593.4 44.7 599.3 63.9 599.4C96.3 599.6 126.1 583.6 150.8 565.9C176.8 547.3 211.9 547.3 237.9 565.9C263.5 584.2 290.8 600 319.9 600C349 600 376.3 584.2 401.9 565.9C427.9 547.3 463 547.3 489 565.9zM392 312L392 264L440 264L440 312L392 312z"/></svg>