<svg xmlns="http://www.w3.org/2000/svg" viewBox="0 0 640 640"><!--! Font Awesome Pro 7.1.0 by @fontawesome - https://fontawesome.com License - https://fontawesome.com/license (Commercial License) Copyright 2025 Fonticons, Inc. --><path fill="currentColor" d="M277.1 68.3C283.2 62.6 292.8 62.6 298.9 68.3L448.8 208.2C435.9 207.1 422.7 210 411.3 216.9L288 101.9L112 266.2L112 512C112 529.7 126.3 544 144 544L208 544L208 432C208 396.7 236.7 368 272 368L291.3 368C286.6 378.4 282.4 389.2 279.2 400L272 400C254.3 400 240 414.3 240 432L240 544L296.1 544C302 555.3 308.9 566 316.7 576L144 576C108.7 576 80 547.3 80 512L80 296L58.9 315.7C52.4 321.7 42.3 321.4 36.3 314.9C30.3 308.4 30.6 298.3 37.1 292.3L277.1 68.3zM427.5 263.6C433.8 258 442 256.1 448.1 256.1C456.1 256.2 462.1 259.4 466.8 263.7C481 276.5 493.1 290.1 504.8 304C509.8 298.8 515.4 293.1 519.4 289.5C530.6 279.2 548 279.3 559.1 289.6C597.6 325.1 640 385.7 640 448.2C640 537 568.8 608.2 480 608.2L479.9 608.2C391.1 608.1 320 537 320 448.2C320 411.7 336 375.7 356.6 344.5C377.4 313 403.9 284.9 427.5 263.7zM608 448.2C608 399.5 574.3 347.8 539.2 314.7C533.1 320.5 523.8 330.3 518.7 335.7C510.4 344.5 496.4 344 488.7 334.8C474.7 317.9 462 303 447 289.1C425.3 308.8 401.6 334.3 383.2 362.1C364.2 390.9 351.9 420.7 351.9 448.2C351.9 481.8 364.6 512.3 385.5 535C384.4 529.7 383.9 524.2 383.9 518.6C383.9 461.2 447.7 408.1 471.3 390.4C476.5 386.5 483.4 386.5 488.6 390.4C512.2 408.1 576 461.2 576 518.6C576 524.2 575.4 529.7 574.4 535C595.3 512.3 608 481.8 608 448.2zM480.1 576.2C517.5 576.1 544 548.3 544 518.6C544 501.2 533.9 480.9 516.6 460.1C504.5 445.6 490.8 433.1 480 424.3C469.3 433.1 455.5 445.6 443.4 460.1C426.1 480.8 416 501.2 416 518.6C416 548.4 442.5 576.2 480 576.2L480.1 576.2z"/></svg>