<svg xmlns="http://www.w3.org/2000/svg" viewBox="0 0 640 640"><!--! Font Awesome Pro 7.1.0 by @fontawesome - https://fontawesome.com License - https://fontawesome.com/license (Commercial License) Copyright 2025 Fonticons, Inc. --><path fill="currentColor" d="M384 112C397.3 112 408 101.3 408 88C408 74.7 397.3 64 384 64C370.7 64 360 74.7 360 88C360 101.3 370.7 112 384 112zM384 32C414.9 32 440 57.1 440 88C440 118.9 414.9 144 384 144C353.1 144 328 118.9 328 88C328 57.1 353.1 32 384 32zM336 213.9L336 328.5C336 346.7 346.3 363.3 362.5 371.4L400 390.1L400 213.3C390.1 209.8 379.6 208 368.8 208C357.5 208 346.4 210 336 213.9zM304 233.8C302.3 235.4 300.6 237.1 299 238.9L268.5 272.5C260.5 281.3 256 292.8 256 304.8L256 368.1C256 376.9 248.8 384.1 240 384.1C231.2 384.1 224 376.9 224 368.1L224 304.8C224 284.9 231.4 265.7 244.8 251L275.3 217.4C299.2 191.1 333.2 176 368.8 176C408.6 176 446 194.7 469.9 226.5L489.6 252.8C498.7 264.9 512.9 272 528 272L560 272C568.8 272 576 279.2 576 288C576 296.8 568.8 304 560 304L528 304C502.8 304 479.1 292.1 464 272L444.3 245.7C440.6 240.8 436.5 236.3 432 232.2L432 406L456 418C480.3 430.1 496.7 453.7 499.7 480.7L511.9 590.1C512.9 598.9 506.5 606.8 497.8 607.8C489.1 608.8 481.1 602.4 480.1 593.7L467.9 484.4C466.1 468.2 456.2 454.1 441.7 446.8L348.2 400C321.1 386.4 304 358.7 304 328.4L304 233.7zM330.8 445L359.7 459.5L355.1 473.3C351.8 483.1 346.7 492.2 339.9 500.1L252.1 602.4C246.3 609.1 236.2 609.9 229.5 604.1C222.8 598.3 222 588.2 227.8 581.5L315.6 479C319.6 474.3 322.7 468.8 324.7 462.9L330.7 444.8zM202.6 84L279.6 152.5C270.2 158.1 261.4 164.5 253.2 171.8L191.8 117.2L80 212.2L80 368C80 376.8 87.2 384 96 384L178 384C181.2 396.6 188.2 407.7 197.7 416L96 416C69.5 416 48 394.5 48 368L48 239.4L42.4 244.2C35.7 249.9 25.6 249.1 19.8 242.4C14 235.7 14.9 225.6 21.6 219.8L181.6 83.8C187.7 78.6 196.6 78.7 202.6 84z"/></svg>