<svg xmlns="http://www.w3.org/2000/svg" viewBox="0 0 640 640"><!--! Font Awesome Pro 7.1.0 by @fontawesome - https://fontawesome.com License - https://fontawesome.com/license (Commercial License) Copyright 2025 Fonticons, Inc. --><path fill="currentColor" d="M277.1 68.3C283.2 62.6 292.8 62.6 298.9 68.3L518.6 273.3C511.2 272.4 503.7 272 496 272C487.8 272 479.8 272.5 471.9 273.5L288 101.9L112 266.2L112 512C112 529.7 126.3 544 144 544L208 544L208 432C208 396.7 236.7 368 272 368L304 368C312.2 368 320 369.5 327.2 372.4C322.1 381.7 317.8 391.6 314.3 401.8C311.1 400.7 307.6 400.1 304 400.1L272 400.1C254.3 400.1 240 414.4 240 432.1L240 544.1L321.4 544.1C326.6 555.4 332.8 566.1 340 576.1L144 576.1C108.7 576.1 80 547.4 80 512.1L80 296.1L58.9 315.8C52.4 321.8 42.3 321.5 36.3 315C30.3 308.5 30.6 298.4 37.1 292.4L277.1 68.4zM496 576C557.9 576 608 525.9 608 464C608 402.1 557.9 352 496 352C434.1 352 384 402.1 384 464C384 525.9 434.1 576 496 576zM496 320C575.5 320 640 384.5 640 464C640 543.5 575.5 608 496 608C416.5 608 352 543.5 352 464C352 384.5 416.5 320 496 320zM553.4 403.1C560.5 408.3 562.1 418.3 556.9 425.5L492.9 513.5C490.1 517.3 485.9 519.7 481.2 520C476.5 520.3 471.9 518.7 468.6 515.4L428.6 475.4C422.4 469.2 422.4 459 428.6 452.8C434.8 446.6 445 446.6 451.2 452.8L478 479.6L531 406.7C536.2 399.6 546.2 398 553.4 403.2z"/></svg>