<svg xmlns="http://www.w3.org/2000/svg" viewBox="0 0 640 640"><!--! Font Awesome Pro 7.1.0 by @fontawesome - https://fontawesome.com License - https://fontawesome.com/license (Commercial License) Copyright 2025 Fonticons, Inc. --><path fill="currentColor" d="M416 64C429.3 64 440 74.7 440 88C440 101.3 429.3 112 416 112C402.7 112 392 101.3 392 88C392 74.7 402.7 64 416 64zM416 144C446.9 144 472 118.9 472 88C472 57.1 446.9 32 416 32C385.1 32 360 57.1 360 88C360 118.9 385.1 144 416 144zM464 213.9L464 328.5C464 346.7 453.7 363.3 437.5 371.4L400 390.1L400 213.3C409.9 209.8 420.4 208 431.2 208C442.5 208 453.6 210 464 213.9zM496 233.8C497.7 235.4 499.4 237.1 501 238.9L531.5 272.5C539.5 281.3 544 292.8 544 304.8L544 368.1C544 376.9 551.2 384.1 560 384.1C568.8 384.1 576 376.9 576 368.1L576 304.8C576 284.9 568.6 265.7 555.2 251L524.7 217.4C500.8 191.1 466.8 176 431.2 176C391.4 176 354 194.7 330.1 226.5L310.4 252.8C301.3 264.9 287.1 272 272 272L240 272C231.2 272 224 279.2 224 288C224 296.8 231.2 304 240 304L272 304C297.2 304 320.9 292.1 336 272L355.7 245.7C359.4 240.8 363.5 236.3 368 232.2L368 406L344 418C319.7 430.1 303.3 453.7 300.3 480.7L288.1 590.2C287.1 599 293.5 606.9 302.2 607.9C310.9 608.9 318.9 602.5 319.9 593.8L332.1 484.4C333.9 468.2 343.8 454.1 358.3 446.8L451.8 400C478.9 386.4 496 358.7 496 328.4L496 233.7zM469.2 445L440.3 459.5L444.9 473.3C448.2 483.1 453.3 492.2 460.1 500.1L547.9 602.6C553.7 609.3 563.8 610.1 570.5 604.3C577.2 598.5 578 588.4 572.2 581.7L484.3 479.1C480.3 474.4 477.2 468.9 475.2 463L469.2 444.9zM202.6 84C196.6 78.7 187.7 78.6 181.6 83.8L21.6 219.8C14.9 225.5 14 235.6 19.8 242.4C25.6 249.2 35.6 250 42.4 244.2L48 239.4L48 368C48 394.5 69.5 416 96 416L256 416C282.5 416 304 394.5 304 368L304 347.9C293.7 350.6 282.9 352 272 352L272 368C272 376.8 264.8 384 256 384L96 384C87.2 384 80 376.8 80 368L80 212.2L191.8 117.2L288 202.7L291.7 197.7C296.9 190.8 302.6 184.3 308.7 178.3L202.6 84z"/></svg>