<svg xmlns="http://www.w3.org/2000/svg" viewBox="0 0 640 640"><!--! Font Awesome Pro 7.1.0 by @fontawesome - https://fontawesome.com License - https://fontawesome.com/license (Commercial License) Copyright 2025 Fonticons, Inc. --><path fill="currentColor" d="M331.4 68.3C325.3 62.6 315.7 62.6 309.6 68.3L69.6 292.3C63.1 298.3 62.8 308.5 68.8 314.9C74.8 321.3 85 321.7 91.4 315.7L112.5 296L112.5 512C112.5 547.3 141.2 576 176.5 576L464.5 576C499.8 576 528.5 547.3 528.5 512L528.5 296L549.6 315.7C556.1 321.7 566.2 321.4 572.2 314.9C578.2 308.4 577.9 298.3 571.4 292.3L528.5 252.2L528.5 136C528.5 113.9 510.6 96 488.5 96L456.5 96C434.4 96 416.5 113.9 416.5 136L416.5 147.7L331.4 68.3zM496.5 136L496.5 222.4L448.5 177.6L448.5 136C448.5 131.6 452.1 128 456.5 128L488.5 128C492.9 128 496.5 131.6 496.5 136zM496.5 266.2L496.5 512C496.5 529.7 482.2 544 464.5 544L176.5 544C158.8 544 144.5 529.7 144.5 512L144.5 266.2L320.5 101.9L496.5 266.2zM304.5 256C286.8 256 272.5 270.3 272.5 288L272.5 304L256.5 304C238.8 304 224.5 318.3 224.5 336L224.5 368C224.5 385.7 238.8 400 256.5 400L272.5 400L272.5 416C272.5 433.7 286.8 448 304.5 448L336.5 448C354.2 448 368.5 433.7 368.5 416L368.5 400L384.5 400C402.2 400 416.5 385.7 416.5 368L416.5 336C416.5 318.3 402.2 304 384.5 304L368.5 304L368.5 288C368.5 270.3 354.2 256 336.5 256L304.5 256zM336.5 392L336.5 416L304.5 416L304.5 376C304.5 371.6 300.9 368 296.5 368L256.5 368L256.5 336L296.5 336C300.9 336 304.5 332.4 304.5 328L304.5 288L336.5 288L336.5 328C336.5 332.4 340.1 336 344.5 336L384.5 336L384.5 368L344.5 368C340.1 368 336.5 371.6 336.5 376L336.5 392z"/></svg>