<svg xmlns="http://www.w3.org/2000/svg" viewBox="0 0 640 640"><!--! Font Awesome Pro 7.1.0 by @fontawesome - https://fontawesome.com License - https://fontawesome.com/license (Commercial License) Copyright 2025 Fonticons, Inc. --><path fill="currentColor" d="M331.4 68.3C325.3 62.6 315.7 62.6 309.6 68.3L69.6 292.3C63.1 298.3 62.8 308.5 68.8 314.9C74.8 321.3 85 321.7 91.4 315.7L112.5 296L112.5 512C112.5 547.3 141.2 576 176.5 576L464.5 576C499.8 576 528.5 547.3 528.5 512L528.5 296L549.6 315.7C556.1 321.7 566.2 321.4 572.2 314.9C578.2 308.4 577.9 298.3 571.4 292.3L331.4 68.3zM496.5 266.2L496.5 512C496.5 529.7 482.2 544 464.5 544L176.5 544C158.8 544 144.5 529.7 144.5 512L144.5 266.2L320.5 101.9L496.5 266.2z"/></svg>