<svg xmlns="http://www.w3.org/2000/svg" viewBox="0 0 640 640"><!--! Font Awesome Pro 7.1.0 by @fontawesome - https://fontawesome.com License - https://fontawesome.com/license (Commercial License) Copyright 2025 Fonticons, Inc. --><path fill="currentColor" d="M336 96L384 96L384 144C384 152.8 391.2 160 400 160C408.8 160 416 152.8 416 144L416 96L480 96L480 144C480 152.8 487.2 160 496 160C504.8 160 512 152.8 512 144L512 96L560 96C568.8 96 576 103.2 576 112L576 512C576 529.7 561.7 544 544 544L459.4 544C456 555.6 450.7 566.3 444 576L544 576C579.3 576 608 547.3 608 512L608 112C608 85.5 586.5 64 560 64L336 64C309.5 64 288 85.5 288 112L288 133L320 161L320 112C320 103.2 327.2 96 336 96zM250.5 164C244.5 158.7 235.5 158.7 229.4 164L37.5 332C30.8 337.8 30.2 347.9 36 354.6C41.8 361.3 51.9 361.9 58.6 356.1L64 351.3L64 512C64 547.3 92.7 576 128 576L352 576C387.3 576 416 547.3 416 512L416 351.3L421.5 356.1C428.1 361.9 438.3 361.2 444.1 354.6C449.9 348 449.2 337.8 442.6 332L250.6 164zM384 323.3L384 512C384 529.7 369.7 544 352 544L128 544C110.3 544 96 529.7 96 512L96 323.3L240 197.3L384 323.3zM184 360L184 408C184 425.7 198.3 440 216 440L264 440C281.7 440 296 425.7 296 408L296 360C296 342.3 281.7 328 264 328L216 328C198.3 328 184 342.3 184 360zM216 360L264 360L264 408L216 408L216 360z"/></svg>