<svg xmlns="http://www.w3.org/2000/svg" viewBox="0 0 640 640"><!--! Font Awesome Pro 7.1.0 by @fontawesome - https://fontawesome.com License - https://fontawesome.com/license (Commercial License) Copyright 2025 Fonticons, Inc. --><path fill="currentColor" d="M277.1 68.3C283.2 62.6 292.8 62.6 298.9 68.3L489.3 246C478.2 249.5 467.8 254.5 458.2 260.7L288 101.9L112 266.2L112 512C112 529.7 126.3 544 144 544L208 544L208 432C208 396.7 236.7 368 272 368L304 368C339.3 368 368 396.7 368 432L368 559.9C368 565.4 368.5 570.8 369.3 576L144 576C108.7 576 80 547.3 80 512L80 296L58.9 315.7C52.4 321.7 42.3 321.4 36.3 314.9C30.3 308.4 30.6 298.3 37.1 292.3L277.1 68.3zM240 544L336 544L336 432C336 414.3 321.7 400 304 400L272 400C254.3 400 240 414.3 240 432L240 544zM576 368C575.9 341.5 554.5 320.1 528 320.1C501.5 320.1 480 341.6 480 368.1L480 416L592 416C618.5 416 640 437.5 640 464L640 560C640 586.5 618.5 608 592 608L464 608C437.5 608 416 586.5 416 560L416 464C416 443.1 429.4 425.3 448 418.7L448 368.1C448 323.9 483.8 288.1 528 288.1C572.2 288.1 607.9 323.9 608 368L576 368zM480 448.1L462.3 448.1C454.3 449 448 455.8 448 464L448 560C448 568.8 455.2 576 464 576L592 576C600.8 576 608 568.8 608 560L608 464C608 455.2 600.8 448 592 448L544 448L544 448.1L480 448.1z"/></svg>