<svg xmlns="http://www.w3.org/2000/svg" viewBox="0 0 640 640"><!--! Font Awesome Pro 7.1.0 by @fontawesome - https://fontawesome.com License - https://fontawesome.com/license (Commercial License) Copyright 2025 Fonticons, Inc. --><path fill="currentColor" d="M464 64C472.8 64 480 71.2 480 80L480 96L608 96C625.7 96 640 110.3 640 128L640 224C640 241.7 625.7 256 608 256L480 256L480 560C480 568.8 472.8 576 464 576C455.2 576 448 568.8 448 560L448 80C448 71.2 455.2 64 464 64zM480 224L608 224L608 128L480 128L480 224zM251.1 108.5L400 252.1L400 296.5L240 142.2L80 296.5L80 512C80 529.7 94.3 544 112 544L400 544L400 576L112 576C76.7 576 48 547.3 48 512L48 327.4L27.1 347.6C20.7 353.7 10.6 353.5 4.5 347.2C-1.6 340.9-1.4 330.7 4.9 324.6L228.9 108.6C235.1 102.6 244.9 102.6 251.1 108.6zM176 344C176 321.9 193.9 304 216 304L264 304C286.1 304 304 321.9 304 344L304 392C304 414.1 286.1 432 264 432L216 432C193.9 432 176 414.1 176 392L176 344zM216 336C211.6 336 208 339.6 208 344L208 392C208 396.4 211.6 400 216 400L264 400C268.4 400 272 396.4 272 392L272 344C272 339.6 268.4 336 264 336L216 336z"/></svg>