<svg xmlns="http://www.w3.org/2000/svg" viewBox="0 0 640 640"><!--! Font Awesome Pro 7.1.0 by @fontawesome - https://fontawesome.com License - https://fontawesome.com/license (Commercial License) Copyright 2025 Fonticons, Inc. --><path fill="currentColor" d="M416 48C411.5 48 407.1 49.9 404.1 53.3L312.8 154.7L336.9 175.8L416 87.9L538.5 224L480 224C473.9 224 468.3 227.5 465.6 233C462.9 238.5 463.6 245 467.3 249.9L571.7 384L496 384C489.7 384 484 387.7 481.4 393.4C478.8 399.1 479.9 405.9 484 410.6L602.6 544L459.4 544C456 555.6 450.7 566.3 444 576L612.5 576C627.7 576 640.1 563.6 640.1 548.4C640.1 541.6 637.6 535.1 633.1 530.1L531.6 416L580.1 416C595.5 416 608 403.5 608 388.1C608 381.9 605.9 375.9 602.1 371L512.7 256L548.4 256C563.6 256 576 243.7 576 228.4C576 221.6 573.5 215 568.9 210L427.9 53.3C424.9 49.9 420.5 48 416 48zM250.5 164C244.5 158.7 235.5 158.7 229.4 164L37.5 332C30.8 337.8 30.2 347.9 36 354.6C41.8 361.3 51.9 361.9 58.6 356.1L64 351.3L64 512C64 547.3 92.7 576 128 576L352 576C387.3 576 416 547.3 416 512L416 351.3L421.5 356.1C428.1 361.9 438.3 361.2 444.1 354.6C449.9 348 449.2 337.8 442.6 332L250.6 164zM384 323.3L384 512C384 529.7 369.7 544 352 544L128 544C110.3 544 96 529.7 96 512L96 323.3L240 197.3L384 323.3zM184 360L184 408C184 425.7 198.3 440 216 440L264 440C281.7 440 296 425.7 296 408L296 360C296 342.3 281.7 328 264 328L216 328C198.3 328 184 342.3 184 360zM216 360L264 360L264 408L216 408L216 360z"/></svg>