<svg xmlns="http://www.w3.org/2000/svg" viewBox="0 0 640 640"><!--! Font Awesome Pro 7.1.0 by @fontawesome - https://fontawesome.com License - https://fontawesome.com/license (Commercial License) Copyright 2025 Fonticons, Inc. --><path fill="currentColor" d="M309.6 68.3C315.7 62.6 325.3 62.6 331.4 68.3L571.4 292.3C577.9 298.3 578.2 308.5 572.2 314.9C566.2 321.3 556 321.7 549.6 315.7L528.5 296L528.5 512C528.5 547.3 499.8 576 464.5 576L176.5 576C141.2 576 112.5 547.3 112.5 512L112.5 296L91.4 315.7C84.9 321.7 74.8 321.4 68.8 314.9C62.8 308.4 63.1 298.3 69.6 292.3L309.6 68.3zM320.5 101.9L144.5 266.2L144.5 512C144.5 529.7 158.8 544 176.5 544L464.5 544C482.2 544 496.5 529.7 496.5 512L496.5 266.2L320.5 101.9zM288.5 304C279.7 304 272.5 311.2 272.5 320L272.5 384C272.5 392.8 279.7 400 288.5 400L352.5 400C361.3 400 368.5 392.8 368.5 384L368.5 320C368.5 311.2 361.3 304 352.5 304L288.5 304zM240.5 320C240.5 293.5 262 272 288.5 272L352.5 272C379 272 400.5 293.5 400.5 320L400.5 384C400.5 410.5 379 432 352.5 432L288.5 432C262 432 240.5 410.5 240.5 384L240.5 320z"/></svg>