<svg xmlns="http://www.w3.org/2000/svg" viewBox="0 0 640 640"><!--! Font Awesome Pro 7.1.0 by @fontawesome - https://fontawesome.com License - https://fontawesome.com/license (Commercial License) Copyright 2025 Fonticons, Inc. --><path fill="currentColor" d="M298.9 68.3C292.8 62.6 283.2 62.6 277.1 68.3L37.1 292.3C30.6 298.3 30.3 308.5 36.3 314.9C42.3 321.3 52.5 321.7 58.9 315.7L80 296L80 512C80 547.3 108.7 576 144 576L340 576C332.8 566 326.6 555.3 321.4 544L144 544C126.3 544 112 529.7 112 512L112 266.2L288 101.9L471.9 273.5C479.8 272.5 487.9 272 496 272C503.6 272 511.2 272.4 518.6 273.3L298.9 68.3zM375.6 314.4C369.8 308 361.4 304 352 304L336 304L336 288C336 270.3 321.7 256 304 256L272 256C254.3 256 240 270.3 240 288L240 304L224 304C206.3 304 192 318.3 192 336L192 368C192 385.7 206.3 400 224 400L240 400L240 416C240 433.7 254.3 448 272 448L304 448L304.7 448C305.6 437 307.4 426.4 310.1 416L272.1 416L272.1 376C272.1 371.6 268.5 368 264.1 368L224.1 368L224.1 336L264.1 336C268.5 336 272.1 332.4 272.1 328L272.1 288L304.1 288L304.1 328C304.1 332.4 307.7 336 312.1 336L353 336C360 328.2 367.6 321 375.7 314.4zM496 352C557.9 352 608 402.1 608 464C608 525.9 557.9 576 496 576C434.1 576 384 525.9 384 464C384 402.1 434.1 352 496 352zM496 608C575.5 608 640 543.5 640 464C640 384.5 575.5 320 496 320C416.5 320 352 384.5 352 464C352 543.5 416.5 608 496 608zM553.4 403.1C546.3 397.9 536.2 399.5 531 406.6L478 479.5L451.2 452.7C445 446.5 434.8 446.5 428.6 452.7C422.4 458.9 422.4 469.1 428.6 475.3L468.6 515.3C471.9 518.6 476.5 520.3 481.2 519.9C485.9 519.5 490.1 517.1 492.9 513.4L556.9 425.4C562.1 418.3 560.5 408.2 553.4 403z"/></svg>