<svg xmlns="http://www.w3.org/2000/svg" viewBox="0 0 640 640"><!--! Font Awesome Pro 7.1.0 by @fontawesome - https://fontawesome.com License - https://fontawesome.com/license (Commercial License) Copyright 2025 Fonticons, Inc. --><path fill="currentColor" d="M309.6 68.3C315.7 62.6 325.3 62.6 331.4 68.3L571.4 292.3C577.9 298.3 578.2 308.5 572.2 314.9C566.2 321.3 556 321.7 549.6 315.7L528.5 296L528.5 512C528.5 547.3 499.8 576 464.5 576L176.5 576C141.2 576 112.5 547.3 112.5 512L112.5 296L91.4 315.7C84.9 321.7 74.8 321.4 68.8 314.9C62.8 308.4 63.1 298.3 69.6 292.3L309.6 68.3zM320.5 101.9L144.5 266.2L144.5 512C144.5 529.7 158.8 544 176.5 544L464.5 544C482.2 544 496.5 529.7 496.5 512L496.5 266.2L320.5 101.9zM340.9 330.2L331.8 339.3C328.8 342.3 324.7 344 320.5 344C316.3 344 312.2 342.3 309.2 339.3L300.1 330.2C293.6 323.7 284.7 320 275.4 320L272.5 320C254.8 320 240.5 334.3 240.5 352C240.5 373.4 255 394.5 275.1 413C291.9 428.5 310.5 440 320.5 445.7C330.5 440 349 428.5 365.9 413C386 394.5 400.5 373.3 400.5 352C400.5 334.3 386.2 320 368.5 320L365.6 320C356.3 320 347.5 323.7 340.9 330.2zM365.6 288L368.5 288C403.8 288 432.5 316.7 432.5 352C432.5 387.3 409.4 416.5 387.5 436.6C365.1 457.2 340.7 471.3 331.6 476.2C324.6 480 316.3 480 309.4 476.2C300.3 471.3 275.9 457.2 253.5 436.6C231.7 416.5 208.5 387.3 208.5 352C208.5 316.7 237.2 288 272.5 288L275.4 288C292.1 288 308.2 294.3 320.5 305.5C332.8 294.3 348.9 288 365.6 288z"/></svg>