<svg xmlns="http://www.w3.org/2000/svg" viewBox="0 0 640 640"><!--! Font Awesome Pro 7.1.0 by @fontawesome - https://fontawesome.com License - https://fontawesome.com/license (Commercial License) Copyright 2025 Fonticons, Inc. --><path fill="currentColor" d="M309.6 68.3C315.7 62.6 325.3 62.6 331.4 68.3L571.4 292.3C577.9 298.3 578.2 308.5 572.2 314.9C566.2 321.3 556 321.7 549.6 315.7L528.5 296L528.5 512C528.5 547.3 499.8 576 464.5 576L176.5 576C141.2 576 112.5 547.3 112.5 512L112.5 296L91.4 315.7C84.9 321.7 74.8 321.4 68.8 314.9C62.8 308.4 63.1 298.3 69.6 292.3L309.6 68.3zM320.5 101.9L144.5 266.2L144.5 512C144.5 529.7 158.8 544 176.5 544L464.5 544C482.2 544 496.5 529.7 496.5 512L496.5 266.2L320.5 101.9zM320.5 320C338.2 320 352.5 305.7 352.5 288C352.5 270.3 338.2 256 320.5 256C302.8 256 288.5 270.3 288.5 288C288.5 305.7 302.8 320 320.5 320zM320.5 224C355.8 224 384.5 252.7 384.5 288C384.5 323.3 355.8 352 320.5 352C285.2 352 256.5 323.3 256.5 288C256.5 252.7 285.2 224 320.5 224zM288.5 416C262 416 240.5 437.5 240.5 464C240.5 472.8 233.3 480 224.5 480C215.7 480 208.5 472.8 208.5 464C208.5 419.8 244.3 384 288.5 384L352.5 384C396.7 384 432.5 419.8 432.5 464C432.5 472.8 425.3 480 416.5 480C407.7 480 400.5 472.8 400.5 464C400.5 437.5 379 416 352.5 416L288.5 416z"/></svg>