<svg xmlns="http://www.w3.org/2000/svg" viewBox="0 0 640 640"><!--! Font Awesome Pro 7.1.0 by @fontawesome - https://fontawesome.com License - https://fontawesome.com/license (Commercial License) Copyright 2025 Fonticons, Inc. --><path fill="currentColor" d="M288 64C146.6 64 32 178.6 32 320C32 461.4 146.6 576 288 576C296.7 576 309.9 573.4 324.4 568.2C338.7 563.1 352.8 556 363.3 548.1C398.9 521.3 447.1 521.3 482.7 548.1C498.9 560.3 520 570.4 541.2 574C562.2 577.5 582.2 574.5 598.4 562.3C605.5 557 615.5 558.4 620.8 565.5C626.1 572.6 624.7 582.6 617.6 587.9C592.6 606.8 563 610.2 535.8 605.6C508.8 601 483 588.5 463.4 573.7C439.2 555.5 406.7 555.5 382.6 573.7C368.9 584 351.7 592.5 335.2 598.4C318.9 604.2 301.7 608.1 288 608.1C128.9 608.1 0 479.2 0 320.1C0 161 128.9 32 288 32C296.8 32 304 39.2 304 48C304 56.8 296.8 64 288 64zM352 272L352 394.6C346.7 397.4 341.5 400.5 336.4 404C330.1 408.3 324.6 411.7 320 414.4L320 272C320 261.9 324.7 252.4 332.8 246.4L428.8 174.4C440.2 165.9 455.9 165.9 467.3 174.4L562.8 246.4C570.8 252.4 575.5 261.9 575.5 271.9L575.8 420.3C569.6 423.7 564.5 423.9 558.5 422.9C554.3 422.1 549.4 420.6 543.8 418.1L543.5 272.1L448 200.2L352 272.2zM382.6 477.7C368.9 488 351.7 496.5 335.2 502.4C318.9 508.2 301.7 512.1 288 512.1C182 512.1 96 426.1 96 320.1C96 214.1 182 128 288 128C296.8 128 304 135.2 304 144C304 152.8 296.8 160 288 160C199.6 160 128 231.6 128 320C128 408.4 199.6 480 288 480C296.7 480 309.9 477.4 324.4 472.2C338.7 467.1 352.8 460 363.3 452.1C398.9 425.3 447.1 425.3 482.7 452.1C498.9 464.3 520 474.4 541.2 478C562.2 481.5 582.2 478.5 598.4 466.3C605.5 461 615.5 462.4 620.8 469.5C626.1 476.6 624.7 486.6 617.6 491.9C592.6 510.8 563 514.2 535.8 509.6C508.8 505 483 492.5 463.4 477.7C439.2 459.5 406.7 459.5 382.6 477.7z"/></svg>