<svg xmlns="http://www.w3.org/2000/svg" viewBox="0 0 640 640"><!--! Font Awesome Pro 7.1.0 by @fontawesome - https://fontawesome.com License - https://fontawesome.com/license (Commercial License) Copyright 2025 Fonticons, Inc. --><path fill="currentColor" d="M576 96L352 96C334.3 96 320 110.3 320 128L320 189L288 161L288 128C288 92.7 316.7 64 352 64L576 64C611.3 64 640 92.7 640 128L640 512C640 547.3 611.3 576 576 576L411.9 576C418.6 566.3 423.9 555.6 427.3 544L576 544C593.7 544 608 529.7 608 512L608 128C608 110.3 593.7 96 576 96zM488 184C488 175.2 495.2 168 504 168L520 168C528.8 168 536 175.2 536 184L536 200C536 208.8 528.8 216 520 216L504 216C495.2 216 488 208.8 488 200L488 184zM504 264L520 264C528.8 264 536 271.2 536 280L536 296C536 304.8 528.8 312 520 312L504 312C495.2 312 488 304.8 488 296L488 280C488 271.2 495.2 264 504 264zM488 376C488 367.2 495.2 360 504 360L520 360C528.8 360 536 367.2 536 376L536 392C536 400.8 528.8 408 520 408L504 408C495.2 408 488 400.8 488 392L488 376zM408 168L424 168C432.8 168 440 175.2 440 184L440 200C440 208.8 432.8 216 424 216L408 216C399.2 216 392 208.8 392 200L392 184C392 175.2 399.2 168 408 168zM218.5 164L410.5 332C417.1 337.8 417.8 347.9 412 354.6C406.2 361.3 396.1 361.9 389.4 356.1L383.9 351.3L383.9 512C383.9 547.3 355.2 576 319.9 576L96 576C60.7 576 32 547.3 32 512L32 351.3L26.5 356.1C19.8 361.9 9.7 361.2 3.9 354.6C-1.9 348-1.2 337.8 5.5 332L197.5 164C203.5 158.7 212.5 158.7 218.6 164zM352 323.3L208 197.3L64 323.3L64 512C64 529.7 78.3 544 96 544L320 544C337.7 544 352 529.7 352 512L352 323.3zM152 360C152 342.3 166.3 328 184 328L232 328C249.7 328 264 342.3 264 360L264 408C264 425.7 249.7 440 232 440L184 440C166.3 440 152 425.7 152 408L152 360zM184 360L184 408L232 408L232 360L184 360z"/></svg>