<svg xmlns="http://www.w3.org/2000/svg" viewBox="0 0 640 640"><!--! Font Awesome Pro 7.1.0 by @fontawesome - https://fontawesome.com License - https://fontawesome.com/license (Commercial License) Copyright 2025 Fonticons, Inc. --><path fill="currentColor" d="M331.4 68.3C325.3 62.6 315.7 62.6 309.6 68.3L69.6 292.3C63.1 298.3 62.8 308.5 68.8 314.9C74.8 321.3 85 321.7 91.4 315.7L112.5 296L112.5 512C112.5 547.3 141.2 576 176.5 576L464.5 576C499.8 576 528.5 547.3 528.5 512L528.5 296L549.6 315.7C556.1 321.7 566.2 321.4 572.2 314.9C578.2 308.4 577.9 298.3 571.4 292.3L528.5 252.2L528.5 136C528.5 113.9 510.6 96 488.5 96L456.5 96C434.4 96 416.5 113.9 416.5 136L416.5 147.7L331.4 68.3zM496.5 136L496.5 222.4L448.5 177.6L448.5 136C448.5 131.6 452.1 128 456.5 128L488.5 128C492.9 128 496.5 131.6 496.5 136zM496.5 266.2L496.5 512C496.5 529.7 482.2 544 464.5 544L176.5 544C158.8 544 144.5 529.7 144.5 512L144.5 266.2L320.5 101.9L496.5 266.2zM340.9 330.2C347.4 323.6 356.3 320 365.6 320L368.5 320C386.2 320 400.5 334.3 400.5 352C400.5 373.4 386 394.5 365.9 413C349 428.5 330.5 440 320.5 445.7C310.5 440 292 428.5 275.1 413C255 394.5 240.5 373.3 240.5 352C240.5 334.3 254.8 320 272.5 320L275.4 320C284.7 320 293.5 323.7 300.1 330.2L309.2 339.3C312.2 342.3 316.3 344 320.5 344C324.7 344 328.8 342.3 331.8 339.3L340.9 330.2zM365.6 288C348.9 288 332.8 294.3 320.5 305.5C308.2 294.3 292.1 288 275.4 288L272.5 288C237.2 288 208.5 316.7 208.5 352C208.5 387.3 231.6 416.5 253.5 436.6C275.9 457.2 300.3 471.3 309.4 476.2C316.4 480 324.7 480 331.6 476.2C340.7 471.3 365.1 457.2 387.5 436.6C409.3 416.5 432.5 387.3 432.5 352C432.5 316.7 403.8 288 368.5 288L365.6 288z"/></svg>