<svg xmlns="http://www.w3.org/2000/svg" viewBox="0 0 640 640"><!--! Font Awesome Pro 7.1.0 by @fontawesome - https://fontawesome.com License - https://fontawesome.com/license (Commercial License) Copyright 2025 Fonticons, Inc. --><path fill="currentColor" d="M259.1 102.3C267.7 108.7 275.3 116.3 281.7 124.9L316.4 90.2C322.6 84 322.6 73.8 316.4 67.6C310.2 61.4 300 61.4 293.8 67.6L259.1 102.3zM124.9 281.7C116.3 275.3 108.7 267.7 102.3 259.1L67.5 293.8C61.3 300 61.3 310.2 67.5 316.4C73.7 322.6 83.9 322.6 90.1 316.4L124.8 281.7zM80 192C80 186.6 80.4 181.2 81.1 176L32 176C23.2 176 16 183.2 16 192C16 200.8 23.2 208 32 208L81.1 208C80.4 202.8 80 197.4 80 192zM102.3 124.9C108.7 116.3 116.3 108.7 124.9 102.3L90.2 67.5C84 61.3 73.8 61.3 67.6 67.5C61.4 73.7 61.4 83.9 67.6 90.1L102.3 124.8zM176 32L176 81.1C181.2 80.4 186.6 80 192 80C197.4 80 202.8 80.4 208 81.1L208 32C208 23.2 200.8 16 192 16C183.2 16 176 23.2 176 32zM144 194.8C144 166.7 166.8 144 194.8 144C218.6 144 238.6 160.4 244.1 182.5L269.2 158.3C255.7 130.8 227.5 111.9 194.8 111.9C149.1 111.9 112 149 112 194.7C112 226.3 129.7 253.7 155.7 267.7L180.8 243.5C159.5 237.6 144 218 144 194.8zM379.1 140.5C372.9 134.5 363.1 134.5 356.9 140.5L132.9 356.5C126.5 362.6 126.4 372.8 132.5 379.1C138.6 385.4 148.8 385.6 155.1 379.5L176 359.4L176 544C176 579.3 204.7 608 240 608L496 608C531.3 608 560 579.3 560 544L560 359.4L580.9 379.6C587.3 385.7 597.4 385.5 603.5 379.2C609.6 372.9 609.4 362.7 603.1 356.6L379.1 140.6zM528 328.5L528 544C528 561.7 513.7 576 496 576L240 576C222.3 576 208 561.7 208 544L208 328.5L368 174.2L528 328.5zM304 376L304 424C304 446.1 321.9 464 344 464L392 464C414.1 464 432 446.1 432 424L432 376C432 353.9 414.1 336 392 336L344 336C321.9 336 304 353.9 304 376zM344 368L392 368C396.4 368 400 371.6 400 376L400 424C400 428.4 396.4 432 392 432L344 432C339.6 432 336 428.4 336 424L336 376C336 371.6 339.6 368 344 368z"/></svg>