<svg xmlns="http://www.w3.org/2000/svg" viewBox="0 0 640 640"><!--! Font Awesome Pro 7.1.0 by @fontawesome - https://fontawesome.com License - https://fontawesome.com/license (Commercial License) Copyright 2025 Fonticons, Inc. --><path fill="currentColor" d="M309.6 68.3C315.7 62.6 325.3 62.6 331.4 68.3L571.4 292.3C577.9 298.3 578.2 308.5 572.2 314.9C566.2 321.3 556 321.7 549.6 315.7L528.5 296L528.5 512C528.5 547.3 499.8 576 464.5 576L176.5 576C141.2 576 112.5 547.3 112.5 512L112.5 296L91.4 315.7C84.9 321.7 74.8 321.4 68.8 314.9C62.8 308.4 63.1 298.3 69.6 292.3L309.6 68.3zM320.5 101.9L144.5 266.2L144.5 512C144.5 529.7 158.8 544 176.5 544L464.5 544C482.2 544 496.5 529.7 496.5 512L496.5 266.2L320.5 101.9zM304.5 256L336.5 256C354.2 256 368.5 270.3 368.5 288L368.5 304L384.5 304C402.2 304 416.5 318.3 416.5 336L416.5 368C416.5 385.7 402.2 400 384.5 400L368.5 400L368.5 416C368.5 433.7 354.2 448 336.5 448L304.5 448C286.8 448 272.5 433.7 272.5 416L272.5 400L256.5 400C238.8 400 224.5 385.7 224.5 368L224.5 336C224.5 318.3 238.8 304 256.5 304L272.5 304L272.5 288C272.5 270.3 286.8 256 304.5 256zM336.5 392L336.5 376C336.5 371.6 340.1 368 344.5 368L384.5 368L384.5 336L344.5 336C340.1 336 336.5 332.4 336.5 328L336.5 288L304.5 288L304.5 328C304.5 332.4 300.9 336 296.5 336L256.5 336L256.5 368L296.5 368C300.9 368 304.5 371.6 304.5 376L304.5 416L336.5 416L336.5 392z"/></svg>