<svg xmlns="http://www.w3.org/2000/svg" viewBox="0 0 640 640"><!--! Font Awesome Pro 7.1.0 by @fontawesome - https://fontawesome.com License - https://fontawesome.com/license (Commercial License) Copyright 2025 Fonticons, Inc. --><path fill="currentColor" d="M331.4 68.3C325.3 62.6 315.7 62.6 309.6 68.3L69.6 292.3C63.1 298.3 62.8 308.5 68.8 314.9C74.8 321.3 85 321.7 91.4 315.7L112.5 296L112.5 512C112.5 547.3 141.2 576 176.5 576L464.5 576C499.8 576 528.5 547.3 528.5 512L528.5 296L549.6 315.7C556.1 321.7 566.2 321.4 572.2 314.9C578.2 308.4 577.9 298.3 571.4 292.3L528.5 252.2L528.5 136C528.5 113.9 510.6 96 488.5 96L456.5 96C434.4 96 416.5 113.9 416.5 136L416.5 147.7L331.4 68.3zM496.5 136L496.5 222.4L448.5 177.6L448.5 136C448.5 131.6 452.1 128 456.5 128L488.5 128C492.9 128 496.5 131.6 496.5 136zM496.5 266.2L496.5 512C496.5 529.7 482.2 544 464.5 544L400.5 544L400.5 432C400.5 396.7 371.8 368 336.5 368L304.5 368C269.2 368 240.5 396.7 240.5 432L240.5 544L176.5 544C158.8 544 144.5 529.7 144.5 512L144.5 266.2L320.5 101.9L496.5 266.2zM368.5 544L272.5 544L272.5 432C272.5 414.3 286.8 400 304.5 400L336.5 400C354.2 400 368.5 414.3 368.5 432L368.5 544z"/></svg>