<svg xmlns="http://www.w3.org/2000/svg" viewBox="0 0 640 640"><!--! Font Awesome Pro 7.1.0 by @fontawesome - https://fontawesome.com License - https://fontawesome.com/license (Commercial License) Copyright 2025 Fonticons, Inc. --><path fill="currentColor" d="M331.4 68.3C325.3 62.6 315.7 62.6 309.6 68.3L69.6 292.3C63.1 298.3 62.8 308.5 68.8 314.9C74.8 321.3 85 321.7 91.4 315.7L112.5 296L112.5 512C112.5 547.3 141.2 576 176.5 576L464.5 576C499.8 576 528.5 547.3 528.5 512L528.5 296L549.6 315.7C556.1 321.7 566.2 321.4 572.2 314.9C578.2 308.4 577.9 298.3 571.4 292.3L528.5 252.2L528.5 136C528.5 113.9 510.6 96 488.5 96L456.5 96C434.4 96 416.5 113.9 416.5 136L416.5 147.7L331.4 68.3zM496.5 136L496.5 222.4L448.5 177.6L448.5 136C448.5 131.6 452.1 128 456.5 128L488.5 128C492.9 128 496.5 131.6 496.5 136zM496.5 266.2L496.5 512C496.5 529.7 482.2 544 464.5 544L345.1 544L294.7 468.4L377.4 413.3C381.4 410.6 384 406.3 384.4 401.6C384.8 396.9 383.2 392.1 379.8 388.7L283.8 292.7C277.6 286.5 267.4 286.5 261.2 292.7C255 298.9 255 309.1 261.2 315.3L343.4 397.5L263.6 450.7C256.2 455.6 254.3 465.5 259.2 472.9L306.6 544L176.5 544C158.8 544 144.5 529.7 144.5 512L144.5 266.2L320.5 101.9L496.5 266.2z"/></svg>