<svg xmlns="http://www.w3.org/2000/svg" viewBox="0 0 640 640"><!--! Font Awesome Pro 7.1.0 by @fontawesome - https://fontawesome.com License - https://fontawesome.com/license (Commercial License) Copyright 2025 Fonticons, Inc. --><path fill="currentColor" d="M480 80C480 71.2 472.8 64 464 64C455.2 64 448 71.2 448 80L448 560C448 568.8 455.2 576 464 576C472.8 576 480 568.8 480 560L480 256L608 256C625.7 256 640 241.7 640 224L640 128C640 110.3 625.7 96 608 96L480 96L480 80zM480 128L608 128L608 224L480 224L480 128zM400 252.1L251.1 108.5C244.9 102.5 235.1 102.5 228.9 108.5L4.9 324.5C-1.5 330.6-1.6 340.8 4.5 347.1C10.6 353.4 20.8 353.6 27.1 347.5L48 327.4L48 512C48 547.3 76.7 576 112 576L400 576L400 544L112 544C94.3 544 80 529.7 80 512L80 296.5L240 142.2L400 296.5L400 252zM222.4 278.4C203 278.4 187.2 294.2 187.2 313.6L187.2 331.2L169.6 331.2C150.2 331.2 134.4 347 134.4 366.4L134.4 401.6C134.4 421 150.2 436.8 169.6 436.8L187.2 436.8L187.2 454.4C187.2 473.8 203 489.6 222.4 489.6L257.6 489.6C277 489.6 292.8 473.8 292.8 454.4L292.8 436.8L310.4 436.8C329.8 436.8 345.6 421 345.6 401.6L345.6 366.4C345.6 347 329.8 331.2 310.4 331.2L292.8 331.2L292.8 313.6C292.8 294.2 277 278.4 257.6 278.4L222.4 278.4zM257.6 428L257.6 454.4L222.4 454.4L222.4 410.4C222.4 405.5 218.5 401.6 213.6 401.6L169.6 401.6L169.6 366.4L213.6 366.4C218.5 366.4 222.4 362.5 222.4 357.6L222.4 313.6L257.6 313.6L257.6 357.6C257.6 362.5 261.5 366.4 266.4 366.4L310.4 366.4L310.4 401.6L266.4 401.6C261.5 401.6 257.6 405.5 257.6 410.4L257.6 428z"/></svg>