<svg xmlns="http://www.w3.org/2000/svg" viewBox="0 0 640 640"><!--! Font Awesome Pro 7.1.0 by @fontawesome - https://fontawesome.com License - https://fontawesome.com/license (Commercial License) Copyright 2025 Fonticons, Inc. --><path fill="currentColor" d="M330.5 68C324.5 62.7 315.5 62.7 309.4 68L117.4 236C110.7 241.8 110.1 251.9 115.9 258.6C121.7 265.3 131.8 265.9 138.5 260.1L144 255.3L144 384.4C154.4 380.8 165.2 378.4 176 377.1L176 227.3L320 101.3L464 227.3L464 377.1C474.8 378.4 485.6 380.8 496 384.4L496 255.3L501.5 260.1C508.1 265.9 518.3 265.2 524.1 258.6C529.9 252 529.2 241.8 522.6 236L330.5 68zM264 264L264 312C264 329.7 278.3 344 296 344L344 344C361.7 344 376 329.7 376 312L376 264C376 246.3 361.7 232 344 232L296 232C278.3 232 264 246.3 264 264zM296 264L344 264L344 312L296 312L296 264zM489.1 469.9C508.8 484 531.5 496.8 556.1 501.5C581.3 506.3 607.8 502.4 633.3 484.1C640.5 479 642.2 469 637 461.8C631.8 454.6 621.9 452.9 614.7 458.1C596.7 470.9 579.3 473.4 562.1 470.1C544.2 466.7 525.9 456.9 507.7 443.9C470.6 417.4 420.6 417.4 383.4 443.9C358.1 462 338.1 472 319.9 472C301.7 472 281.8 461.9 256.4 443.9C219.3 417.4 169.3 417.4 132.1 443.9C108.9 460.4 86 471.6 63.9 471.4C51.4 471.3 38.5 467.7 25.1 458.1C17.9 453 7.9 454.6 2.8 461.8C-2.3 469-.5 479 6.7 484.1C25.4 497.4 44.7 503.3 63.9 503.4C96.3 503.6 126.1 487.6 150.8 469.9C176.8 451.3 211.9 451.3 237.9 469.9C263.5 488.2 290.8 504 319.9 504C349 504 376.3 488.2 401.9 469.9C427.9 451.3 463 451.3 489 469.9zM402 565.9C428 547.3 463.1 547.3 489.1 565.9C508.8 580 531.5 592.8 556.1 597.5C581.3 602.3 607.8 598.4 633.3 580.1C640.5 575 642.2 565 637 557.8C631.8 550.6 621.9 548.9 614.7 554.1C596.7 566.9 579.3 569.4 562.1 566.1C544.2 562.7 525.9 552.9 507.7 539.9C470.6 513.4 420.6 513.4 383.4 539.9C358.1 558 338.1 568 319.9 568C301.7 568 281.8 557.9 256.4 539.9C219.3 513.4 169.3 513.4 132.1 539.9C108.9 556.4 86 567.6 63.9 567.4C51.4 567.3 38.5 563.7 25.1 554.1C17.9 549 7.9 550.6 2.8 557.8C-2.3 565-.5 575 6.7 580.1C25.4 593.4 44.7 599.3 63.9 599.4C96.3 599.6 126.1 583.6 150.8 565.9C176.8 547.3 211.9 547.3 237.9 565.9C263.5 584.2 290.8 600 319.9 600C349 600 376.3 584.2 401.9 565.9z"/></svg>