<svg xmlns="http://www.w3.org/2000/svg" viewBox="0 0 640 640"><!--! Font Awesome Pro 7.1.0 by @fontawesome - https://fontawesome.com License - https://fontawesome.com/license (Commercial License) Copyright 2025 Fonticons, Inc. --><path fill="currentColor" d="M308.9 76.5C315.1 70.5 324.9 70.5 331.1 76.5L555.1 292.5C561.5 298.6 561.6 308.8 555.5 315.1C549.4 321.4 539.2 321.6 532.9 315.5L512 295.4L512 455C501.7 450.1 491 446.4 480 443.9L480 264.6L320 110.3L160 264.6L160 443.9C149.1 446.4 138.3 450.1 128 455L128 295.4L107.1 315.5C100.7 321.6 90.6 321.5 84.5 315.1C78.4 308.7 78.6 298.6 84.9 292.5L308.9 76.5zM296 272L344 272C366.1 272 384 289.9 384 312L384 360C384 382.1 366.1 400 344 400L296 400C273.9 400 256 382.1 256 360L256 312C256 289.9 273.9 272 296 272zM288 312L288 360C288 364.4 291.6 368 296 368L344 368C348.4 368 352 364.4 352 360L352 312C352 307.6 348.4 304 344 304L296 304C291.6 304 288 307.6 288 312zM402 533.9C376.4 552.2 349.1 568 320 568C290.9 568 263.6 552.2 238 533.9C212 515.3 176.9 515.3 150.9 533.9C126.2 551.5 96.3 567.6 64 567.4C44.7 567.3 25.4 561.4 6.8 548.1C-.4 543-2.1 533 3.1 525.8C8.3 518.6 18.2 516.9 25.4 522.1C38.8 531.7 51.8 535.4 64.2 535.4C86.2 535.5 109.2 524.4 132.4 507.9C169.5 481.4 219.5 481.4 256.7 507.9C282 526 302 536 320.2 536C338.4 536 358.3 525.9 383.7 507.9C420.8 481.4 470.8 481.4 508 507.9C526.2 520.9 544.5 530.7 562.4 534.1C579.6 537.4 597 534.9 615 522.1C622.2 517 632.2 518.6 637.3 525.8C642.4 533 640.8 543 633.6 548.1C608 566.3 581.6 570.3 556.4 565.5C531.9 560.8 509.2 548 489.4 533.9C463.4 515.3 428.3 515.3 402.3 533.9z"/></svg>