<svg xmlns="http://www.w3.org/2000/svg" viewBox="0 0 640 640"><!--! Font Awesome Pro 7.1.0 by @fontawesome - https://fontawesome.com License - https://fontawesome.com/license (Commercial License) Copyright 2025 Fonticons, Inc. --><path fill="currentColor" d="M460 202.8C460 135.2 396.9 85.2 331.1 100.8L215.1 128.1C206.5 130.1 201.2 138.7 203.2 147.3C205.2 155.9 213.8 161.3 222.4 159.3L338.4 131.9C384.1 121.1 427.9 155.8 427.9 202.8C427.9 223.2 419.3 242.4 404.8 256L144 256C135.2 256 128 263.2 128 272C128 280.8 135.2 288 144 288L351.4 288L351.4 288L416.3 288C416.3 288 416.3 288 416.3 288L496.1 288C504.9 288 512.1 280.8 512.1 272C512.1 263.2 504.9 256 496.1 256L445.6 256C454.9 240.2 460.1 221.8 460.1 202.8zM496.3 352L143.7 352C135 352.2 128 359.3 128 368C128 376.8 135.2 384 144 384L197.5 384C186.3 400.1 180 419.4 180 439.7C180 498.9 232.5 544.3 291 535.9L443.7 513.9C452.4 512.6 458.5 504.5 457.3 495.8C456.1 487.1 447.9 481 439.2 482.3L286.5 504.3C247.2 510 212 479.5 212 439.8C212 417 223.9 395.9 243.3 384.1L496 384C504.8 384 512 376.8 512 368C512 359.3 505 352.2 496.3 352z"/></svg>