<svg xmlns="http://www.w3.org/2000/svg" viewBox="0 0 640 640"><!--! Font Awesome Pro 7.1.0 by @fontawesome - https://fontawesome.com License - https://fontawesome.com/license (Commercial License) Copyright 2025 Fonticons, Inc. --><path fill="currentColor" d="M320 544C231.6 544 160 472.4 160 384C160 367.6 166.2 343.8 178.5 314.2C190.5 285.3 207.1 253.7 225.3 222.8C261.3 161.4 301.9 104.7 320 80.1C338.1 104.7 378.7 161.4 414.7 222.8C432.9 253.8 449.5 285.3 461.5 314.2C473.8 343.8 480 367.6 480 384C480 472.4 408.4 544 320 544zM128 384C128 490 214 576 320 576C426 576 512 490 512 384C512 292.8 381.8 109.9 345.4 60.5C339.5 52.5 330.2 48 320.2 48L319.8 48C309.8 48 300.5 52.5 294.6 60.5C258.2 109.9 128 292.8 128 384zM395.3 331.3C401.5 325.1 401.5 314.9 395.3 308.7C389.1 302.5 378.9 302.5 372.7 308.7L244.7 436.7C238.5 442.9 238.5 453.1 244.7 459.3C250.9 465.5 261.1 465.5 267.3 459.3L395.3 331.3zM264 352C277.3 352 288 341.3 288 328C288 314.7 277.3 304 264 304C250.7 304 240 314.7 240 328C240 341.3 250.7 352 264 352zM400 440C400 426.7 389.3 416 376 416C362.7 416 352 426.7 352 440C352 453.3 362.7 464 376 464C389.3 464 400 453.3 400 440z"/></svg>