<svg xmlns="http://www.w3.org/2000/svg" viewBox="0 0 640 640"><!--! Font Awesome Pro 7.1.0 by @fontawesome - https://fontawesome.com License - https://fontawesome.com/license (Commercial License) Copyright 2025 Fonticons, Inc. --><path fill="currentColor" d="M309.4 65.7C328.9 63.2 344 79.1 344 96.8L344.1 162.9C439.3 182 512 266.6 512 367.4C512 473.3 432.9 560.6 330.6 573.7C311.1 576.2 296 560.3 296 542.6C296 530.9 295.9 476.5 295.9 476.5C200.7 457.4 128 372.8 128 272C128 166.1 207.1 78.8 309.4 65.7zM160 272C160 357.3 220.7 428.4 301.2 444.6C315.9 447.5 328 460.3 328 476.7L328 541.8C413.8 530.1 480 456.5 480 367.4C480 282.1 419.3 211 338.8 194.8C324.1 191.9 312 179.1 312 162.7L312 97.6C226.2 109.3 160 182.9 160 272zM272 320C272 346.5 293.5 368 320 368C346.5 368 368 346.5 368 320C368 293.5 346.5 272 320 272C293.5 272 272 293.5 272 320zM320 400C275.8 400 240 364.2 240 320C240 275.8 275.8 240 320 240C364.2 240 400 275.8 400 320C400 364.2 364.2 400 320 400z"/></svg>