<svg xmlns="http://www.w3.org/2000/svg" viewBox="0 0 640 640"><!--! Font Awesome Pro 7.1.0 by @fontawesome - https://fontawesome.com License - https://fontawesome.com/license (Commercial License) Copyright 2025 Fonticons, Inc. --><path fill="currentColor" d="M440 96C452.1 96 463.9 99.9 473.6 107.2L505.6 131.2C509.6 134.2 512 139 512 144C512 152.8 504.8 160 496 160L463.1 160C436.9 160 417.6 184.7 424 210.1L438.2 267.1C444.3 291.7 445 317.3 440 342.2L432.2 380.9C430.5 389.6 436.1 398 444.8 399.7C453.5 401.4 461.9 395.8 463.6 387.1L471.3 348.4C477.2 318.9 476.5 288.5 469.2 259.3L455 202.3C453.7 197 457.7 192 463.1 192L496 192C522.5 192 544 170.5 544 144C544 128.9 536.9 114.7 524.8 105.6L492.8 81.6C477.6 70.2 459 64 440 64C391.4 64 352 103.4 352 152L352 211.6C352 245 324.9 272 291.6 272L278.6 272C234.2 272 193.5 297.1 173.7 336.8L160.3 363.6C154.1 376.1 141.3 384 127.3 384C98.4 384 80.7 352.2 96.1 327.6L111.8 302.5C124.5 282.2 109.9 256 86 256C77.9 256 70.2 259.2 64.5 264.9L37.8 291.5C13.6 315.8 0 348.6 0 382.9C0 454.2 57.8 512 129.1 512L160 512L160 544C160 561.7 174.3 576 192 576L243.5 576C258.2 576 271 566 274.5 551.8L284.4 512L323.4 512L333.3 551.8C336.9 566 349.7 576 364.3 576L415.8 576C433.5 576 447.8 561.7 447.8 544L447.8 511.4C501.8 505.6 543.8 459.9 543.8 404.4L543.8 371.2C543.8 369.4 545.2 368 547 368L591.8 368C618.3 368 639.8 346.5 639.8 320C639.8 304.9 632.7 290.7 620.6 281.6L588.6 257.6C573.4 246.2 554.8 240 535.8 240C522.9 240 510.6 242.8 499.6 247.8C499.7 249 499.9 250.3 500.2 251.6C502.6 261.3 504.4 271.1 505.6 280.9C514.3 275.3 524.7 272 535.9 272C548 272 559.8 275.9 569.5 283.2L601.5 307.2C605.5 310.2 607.9 315 607.9 320C607.9 328.8 600.7 336 591.9 336L547.1 336C527.7 336 511.9 351.8 511.9 371.2L511.9 404.4C511.9 446.2 478 480 436.3 480L431.9 480C423.1 480 415.9 487.2 415.9 496L415.9 544L364.4 544L351.4 492.1C349.7 485 343.3 480 336 480L272 480C264.7 480 258.3 485 256.5 492.1L243.5 544L192 544L192 496C192 487.2 184.8 480 176 480L129.1 480C75.5 480 32 436.5 32 382.9C32 357.1 42.2 332.4 60.5 314.2L77.4 297.3L69.1 310.6C40.4 356.5 73.4 415.9 127.5 415.9C153.6 415.9 177.4 401.2 189.1 377.8L202.5 351C217 322.1 246.5 303.8 278.8 303.8L291.8 303.8C342.8 303.8 384.2 262.4 384.2 211.4L384 152C384 121.1 409.1 96 440 96zM260.9 241.1C266.7 240.4 272.6 240 278.6 240L291.6 240C293.2 240 294.8 239.9 296.3 239.6C292.4 221.9 276.6 208 256.9 208L224 208C215.2 208 208 200.8 208 192C208 187 210.4 182.2 214.4 179.2L246.4 155.2C256.1 147.9 267.9 144 280 144C295.7 144 309.8 150.4 320 160.8L320 152C320 142.2 321.2 132.6 323.4 123.4C310.6 116.1 295.8 112 280 112C261 112 242.4 118.2 227.2 129.6L195.2 153.6C183.1 162.7 176 176.9 176 192C176 218.5 197.5 240 224 240L256.9 240C258.4 240 259.8 240.4 261 241.1z"/></svg>