<svg xmlns="http://www.w3.org/2000/svg" viewBox="0 0 640 640"><!--! Font Awesome Pro 7.1.0 by @fontawesome - https://fontawesome.com License - https://fontawesome.com/license (Commercial License) Copyright 2025 Fonticons, Inc. --><path fill="currentColor" d="M192 224C192 153.3 249.3 96 320 96C390.7 96 448 153.3 448 224C448 225.2 448 226.4 447.9 227.6C447.7 234.5 452 240.8 458.6 243.1C480.4 250.8 496 271.6 496 295.9C496 326.8 470.9 351.9 440 351.9L200 351.9C169.1 351.9 144 326.8 144 295.9C144 271.5 159.6 250.7 181.4 243.1C188 240.8 192.3 234.5 192.1 227.6C192.1 226.4 192 225.2 192 224zM320 64C233.8 64 163.5 132.2 160.1 217.5C131.6 232.1 112 261.7 112 296C112 341.8 147 379.5 191.8 383.6L192 384L296.8 593.7C301.2 602.5 310.1 608 320 608C329.9 608 338.8 602.5 343.2 593.7L448 384L448.2 383.6C493 379.5 528 341.8 528 296C528 261.7 508.4 232.1 479.9 217.5C476.5 132.2 406.2 64 320 64zM412.2 384L320 568.4L227.8 384L412.2 384z"/></svg>