<svg xmlns="http://www.w3.org/2000/svg" viewBox="0 0 640 640"><!--! Font Awesome Pro 7.1.0 by @fontawesome - https://fontawesome.com License - https://fontawesome.com/license (Commercial License) Copyright 2025 Fonticons, Inc. --><path fill="currentColor" d="M336 64C344.8 64 352 71.2 352 80L352 292.1L443.6 319.6L451 322.2C487.5 336.5 512 371.8 512 411.6L512 440.1C512 462.2 494.1 480.1 472 480.1L448 480.1L448 544.1L544 544.1C561.7 544.1 576 529.8 576 512.1L576 496.1C576 487.3 583.2 480.1 592 480.1C600.8 480.1 608 487.3 608 496.1L608 512.1C608 547.4 579.3 576.1 544 576.1L48 576C39.2 576 32 568.8 32 560C32 551.2 39.2 544 48 544L160 544L160 480L136 480C113.9 480 96 462.1 96 440L96 144L96.3 141.1C97.5 134.5 102.9 129.1 109.8 128.2L320 98.1L320 80C320 71.2 327.2 64 336 64zM192 544L416 544L416 480L192 480L192 544zM128 157.9L128 440C128 444.4 131.6 448 136 448L472 448C476.4 448 480 444.4 480 440L480 411.5C480 385 463.7 361.4 439.4 351.9L434.4 350.2L333.7 320L256 320C247.2 320 240 312.8 240 304C240 295.2 247.2 288 256 288L320 288L320 240L256 240C247.2 240 240 232.8 240 224C240 215.2 247.2 208 256 208L320 208L320 130.4L128 157.8z"/></svg>