<svg xmlns="http://www.w3.org/2000/svg" viewBox="0 0 640 640"><!--! Font Awesome Pro 7.1.0 by @fontawesome - https://fontawesome.com License - https://fontawesome.com/license (Commercial License) Copyright 2025 Fonticons, Inc. --><path fill="currentColor" d="M64 100.6C64 80.4 80.4 64 100.6 64L538.1 64C559 64 576 81 576 101.9C576 104.3 575.8 106.7 575.3 109.1L487.7 563C486.2 570.5 479.6 576 471.9 576C464.2 576 457.6 570.5 456.2 562.9L397.7 250.9L367.5 371.9C365.7 378.9 359.4 383.9 352.2 384C345 384.1 338.5 379.3 336.6 372.3L314.6 292.9L279.8 467.1C278.3 474.6 271.7 480 264.1 480C256.5 480 249.9 474.6 248.4 467.1L212.2 286.2L183.3 373C181 379.6 174.9 384 168 384C161.1 384 155 379.6 152.8 373.1L65.9 112.2C64.6 108.5 64 104.6 64 100.6zM100.6 96C98 96 96 98.1 96 100.6C96 101.1 96.1 101.6 96.2 102.1L168 317.4L200.8 218.9C203.1 212 209.7 207.5 217 208C224.3 208.5 230.3 213.7 231.7 220.8L264 382.4L296.3 220.9C297.8 213.6 304 208.3 311.4 208C318.8 207.7 325.4 212.6 327.4 219.7L351.2 305.3L384.5 172.1C386.3 164.8 393 159.8 400.5 160C408 160.2 414.4 165.7 415.7 173L472.2 474.4L543.9 103C544 102.6 544 102.3 544 101.9C544 98.6 541.4 96 538.1 96L100.6 96z"/></svg>