<svg xmlns="http://www.w3.org/2000/svg" viewBox="0 0 640 640"><!--! Font Awesome Pro 7.1.0 by @fontawesome - https://fontawesome.com License - https://fontawesome.com/license (Commercial License) Copyright 2025 Fonticons, Inc. --><path fill="currentColor" d="M96 128C78.3 128 64 142.3 64 160L64 192L576 192L576 160C576 142.3 561.7 128 544 128L96 128zM32 208L32 160C32 124.7 60.7 96 96 96L544 96C579.3 96 608 124.7 608 160L608 480C608 515.3 579.3 544 544 544L96 544C60.7 544 32 515.3 32 480L32 208zM576 224L64 224L64 480C64 497.7 78.3 512 96 512L112 512C112 467.8 147.8 432 192 432L256 432C300.2 432 336 467.8 336 512L544 512C561.7 512 576 497.7 576 480L576 224zM304 512C304 485.5 282.5 464 256 464L192 464C165.5 464 144 485.5 144 512L304 512zM224 368C241.7 368 256 353.7 256 336C256 318.3 241.7 304 224 304C206.3 304 192 318.3 192 336C192 353.7 206.3 368 224 368zM224 272C259.3 272 288 300.7 288 336C288 371.3 259.3 400 224 400C188.7 400 160 371.3 160 336C160 300.7 188.7 272 224 272zM368 304C368 295.2 375.2 288 384 288L512 288C520.8 288 528 295.2 528 304C528 312.8 520.8 320 512 320L384 320C375.2 320 368 312.8 368 304zM368 400C368 391.2 375.2 384 384 384L512 384C520.8 384 528 391.2 528 400C528 408.8 520.8 416 512 416L384 416C375.2 416 368 408.8 368 400z"/></svg>