<svg xmlns="http://www.w3.org/2000/svg" viewBox="0 0 640 640"><!--! Font Awesome Pro 7.1.0 by @fontawesome - https://fontawesome.com License - https://fontawesome.com/license (Commercial License) Copyright 2025 Fonticons, Inc. --><path fill="currentColor" d="M176 96C149.5 96 128 117.5 128 144L128 528C128 536.8 135.2 544 144 544C152.8 544 160 536.8 160 528L160 144C160 135.2 167.2 128 176 128L288 128C332.2 128 368 163.8 368 208L368 400C368 408.8 375.2 416 384 416C392.8 416 400 408.8 400 400L400 208C400 146.1 349.9 96 288 96L176 96zM400 544C461.9 544 512 493.9 512 432L512 112C512 103.2 504.8 96 496 96C487.2 96 480 103.2 480 112L480 432C480 476.2 444.2 512 400 512L288 512C279.2 512 272 504.8 272 496L272 240C272 231.2 264.8 224 256 224C247.2 224 240 231.2 240 240L240 496C240 522.5 261.5 544 288 544L400 544z"/></svg>