<svg xmlns="http://www.w3.org/2000/svg" viewBox="0 0 640 640"><!--! Font Awesome Pro 7.1.0 by @fontawesome - https://fontawesome.com License - https://fontawesome.com/license (Commercial License) Copyright 2025 Fonticons, Inc. --><path fill="currentColor" d="M176 32L464 32C472.8 32 480 39.2 480 48C480 56.8 472.8 64 464 64L176 64C167.2 64 160 56.8 160 48C160 39.2 167.2 32 176 32zM128 128L512 128C520.8 128 528 135.2 528 144C528 152.8 520.8 160 512 160L128 160C119.2 160 112 152.8 112 144C112 135.2 119.2 128 128 128zM128 256C110.3 256 96 270.3 96 288L96 480C96 497.7 110.3 512 128 512L512 512C529.7 512 544 497.7 544 480L544 288C544 270.3 529.7 256 512 256L128 256zM64 288C64 252.7 92.7 224 128 224L512 224C547.3 224 576 252.7 576 288L576 480C576 515.3 547.3 544 512 544L128 544C92.7 544 64 515.3 64 480L64 288zM160 296C173.3 296 184 306.7 184 320C184 333.3 173.3 344 160 344C146.7 344 136 333.3 136 320C136 306.7 146.7 296 160 296zM379.6 333.8C377.2 333.8 375 334.9 373.4 336.7L329.5 389.9C326.6 393.4 322.4 395.5 317.9 395.7C313.4 395.9 309 394.2 305.8 391.1L293 378.4C291.4 376.8 289.2 375.9 286.9 376.1C284.6 376.3 282.5 377.3 281.1 379.1L236.8 435.1C234.9 437.5 234.5 440.8 235.9 443.6C237.3 446.4 240 448.1 243.1 448.1L460.5 448.1C463.6 448.1 466.4 446.3 467.7 443.5C469 440.7 468.6 437.4 466.6 435L385.6 336.8C384.1 335 381.8 333.9 379.4 333.9zM348.7 316.3C356.3 307.1 367.6 301.8 379.6 301.8C391.6 301.8 402.9 307.1 410.5 316.3L491.5 414.5C501.4 426.4 503.4 443 496.8 457C490.2 471 476.1 480 460.6 480L243.2 480C227.9 480 213.9 471.2 207.2 457.4C200.5 443.6 202.3 427.2 211.8 415.2L256.1 359.2C263.2 350.3 273.7 344.8 285.1 344.1C296.5 343.4 307.6 347.6 315.7 355.7L316 356L348.7 316.4z"/></svg>