<svg xmlns="http://www.w3.org/2000/svg" viewBox="0 0 640 640"><!--! Font Awesome Pro 7.1.0 by @fontawesome - https://fontawesome.com License - https://fontawesome.com/license (Commercial License) Copyright 2025 Fonticons, Inc. --><path fill="currentColor" d="M448 128L128 128C110.3 128 96 142.3 96 160L96 480C96 497.7 110.3 512 128 512L321.4 512C326.6 523.3 332.8 534 340 544L128 544C92.7 544 64 515.3 64 480L64 160C64 124.7 92.7 96 128 96L448 96C483.3 96 512 124.7 512 160L512 240.7C501.5 239.8 490.5 239.8 480 240.7L480 160C480 142.3 465.7 128 448 128zM353.6 266.3L368.2 288.8C360 296.1 352.4 304.1 345.6 312.8L326.8 283.7C325.3 281.4 322.8 280 320.1 280C317.4 280 314.9 281.4 313.4 283.7L267.8 354.1C264.9 358.6 260 361.3 254.7 361.4C249.4 361.5 244.4 358.9 241.3 354.6L230.7 339.4C229.2 337.3 226.8 336 224.1 336C221.4 336 219 337.3 217.5 339.4L161.5 419.4C159.8 421.8 159.6 425 161 427.7C162.4 430.4 165 432 168 432L304 432C304 442.9 304.9 453.6 306.7 464L168 464C153.1 464 139.4 455.7 132.5 442.5C125.6 429.3 126.7 413.3 135.2 401.1L191.2 321.1C198.7 310.4 210.9 304 224 304C235.3 304 246 308.8 253.6 317.1L286.5 266.3C293.9 254.9 306.5 248 320.1 248C333.7 248 346.3 254.9 353.7 266.3zM192 208C183.2 208 176 215.2 176 224C176 232.8 183.2 240 192 240C200.8 240 208 232.8 208 224C208 215.2 200.8 208 192 208zM240 224C240 250.5 218.5 272 192 272C165.5 272 144 250.5 144 224C144 197.5 165.5 176 192 176C218.5 176 240 197.5 240 224zM608 432C608 370.1 557.9 320 496 320C434.1 320 384 370.1 384 432C384 493.9 434.1 544 496 544C557.9 544 608 493.9 608 432zM352 432C352 352.5 416.5 288 496 288C575.5 288 640 352.5 640 432C640 511.5 575.5 576 496 576C416.5 576 352 511.5 352 432zM555.3 395.3L518.6 432L555.3 468.7C561.5 474.9 561.5 485.1 555.3 491.3C549.1 497.5 538.9 497.5 532.7 491.3L496 454.6L459.3 491.3C453.1 497.5 442.9 497.5 436.7 491.3C430.5 485.1 430.5 474.9 436.7 468.7L473.4 432L436.7 395.3C430.5 389.1 430.5 378.9 436.7 372.7C442.9 366.5 453.1 366.5 459.3 372.7L496 409.4L532.7 372.7C538.9 366.5 549.1 366.5 555.3 372.7C561.5 378.9 561.5 389.1 555.3 395.3z"/></svg>