<svg xmlns="http://www.w3.org/2000/svg" viewBox="0 0 640 640"><!--! Font Awesome Pro 7.1.0 by @fontawesome - https://fontawesome.com License - https://fontawesome.com/license (Commercial License) Copyright 2025 Fonticons, Inc. --><path fill="currentColor" d="M448 128L128 128C110.3 128 96 142.3 96 160L96 480C96 497.7 110.3 512 128 512L280.4 512C276.1 521.8 273.3 532.5 272.4 544L128 544C92.7 544 64 515.3 64 480L64 160C64 124.7 92.7 96 128 96L448 96C483.3 96 512 124.7 512 160L512 262L480 268.7L480 160.1C480 142.4 465.7 128.1 448 128.1zM353.6 266.3L379.9 306.9C372.4 317.4 368 330.3 368 344L368 347.5L326.7 283.7C325.2 281.4 322.7 280 320 280C317.3 280 314.8 281.4 313.3 283.7L267.7 354.1C264.8 358.6 259.9 361.3 254.6 361.4C249.3 361.5 244.3 358.9 241.2 354.6L230.6 339.4C229.1 337.3 226.7 336 224 336C221.3 336 218.9 337.3 217.4 339.4L161.4 419.4C159.7 421.8 159.5 425 160.9 427.7C162.3 430.4 165 432 168 432L368 432L368 449.2C352.8 451.3 338 456.4 324.7 464L168 464C153.1 464 139.4 455.7 132.5 442.5C125.6 429.3 126.7 413.3 135.2 401.1L191.2 321.1C198.7 310.4 210.9 304 224 304C235.3 304 246 308.8 253.6 317.1L286.5 266.3C293.9 254.9 306.5 248 320.1 248C333.7 248 346.3 254.9 353.7 266.3zM192 208C183.2 208 176 215.2 176 224C176 232.8 183.2 240 192 240C200.8 240 208 232.8 208 224C208 215.2 200.8 208 192 208zM240 224C240 250.5 218.5 272 192 272C165.5 272 144 250.5 144 224C144 197.5 165.5 176 192 176C218.5 176 240 197.5 240 224zM640 303.9L640 520C640 550.7 611.6 576 576 576C540.4 576 512 550.7 512 520C512 489.3 540.4 464 576 464C587.7 464 598.6 466.7 608 471.5L608 403.6L448 436.9L448 552C448 582.7 419.6 608 384 608C348.4 608 320 582.7 320 552C320 521.3 348.4 496 384 496C395.7 496 406.6 498.7 416 503.5L416 343.9C416 336.3 421.3 329.8 428.7 328.2L620.7 288.2C625.4 287.2 630.3 288.4 634.1 291.4C637.9 294.4 640 299 640 303.8zM608 370.9L608 323.6L448 356.9L448 404.2L608 370.9zM352 551.9C352 561.5 362.4 575.9 384 575.9C405.6 575.9 416 561.5 416 551.9C416 542.3 405.6 527.9 384 527.9C362.4 527.9 352 542.3 352 551.9zM576 495.9C554.4 495.9 544 510.3 544 519.9C544 529.5 554.4 543.9 576 543.9C597.6 543.9 608 529.5 608 519.9C608 510.3 597.6 495.9 576 495.9z"/></svg>