<svg xmlns="http://www.w3.org/2000/svg" viewBox="0 0 640 640"><!--! Font Awesome Pro 7.1.0 by @fontawesome - https://fontawesome.com License - https://fontawesome.com/license (Commercial License) Copyright 2025 Fonticons, Inc. --><path fill="currentColor" d="M192 128C174.3 128 160 142.3 160 160L160 416C160 433.7 174.3 448 192 448L240 448L240 432C240 387.8 275.8 352 320 352L384 352C428.2 352 464 387.8 464 432L464 448L512 448C529.7 448 544 433.7 544 416L544 160C544 142.3 529.7 128 512 128L192 128zM272 448L432 448L432 432C432 405.5 410.5 384 384 384L320 384C293.5 384 272 405.5 272 432L272 448zM128 160C128 124.7 156.7 96 192 96L512 96C547.3 96 576 124.7 576 160L576 416C576 451.3 547.3 480 512 480L192 480C156.7 480 128 451.3 128 416L128 160zM64 208L64 512C64 529.7 78.3 544 96 544L464 544C472.8 544 480 551.2 480 560C480 568.8 472.8 576 464 576L96 576C60.7 576 32 547.3 32 512L32 208C32 199.2 39.2 192 48 192C56.8 192 64 199.2 64 208zM352 288C369.7 288 384 273.7 384 256C384 238.3 369.7 224 352 224C334.3 224 320 238.3 320 256C320 273.7 334.3 288 352 288zM352 192C387.3 192 416 220.7 416 256C416 291.3 387.3 320 352 320C316.7 320 288 291.3 288 256C288 220.7 316.7 192 352 192z"/></svg>