<svg xmlns="http://www.w3.org/2000/svg" viewBox="0 0 640 640"><!--! Font Awesome Pro 7.1.0 by @fontawesome - https://fontawesome.com License - https://fontawesome.com/license (Commercial License) Copyright 2025 Fonticons, Inc. --><path fill="currentColor" d="M432 448L128 448L128 480C128 497.7 142.3 512 160 512L480 512C497.7 512 512 497.7 512 480L512 448L432 448zM430.4 416L512 416L512 160C512 142.3 497.7 128 480 128L160 128C142.3 128 128 142.3 128 160L128 416L209.6 416C217 379.5 249.3 352 288 352L352 352C390.7 352 423 379.5 430.4 416zM242.7 416L397.2 416C390.6 397.4 372.8 384 351.9 384L287.9 384C267 384 249.2 397.4 242.6 416zM544 160L544 480C544 515.3 515.3 544 480 544L160 544C124.7 544 96 515.3 96 480L96 160C96 124.7 124.7 96 160 96L480 96C515.3 96 544 124.7 544 160zM352 256C352 238.3 337.7 224 320 224C302.3 224 288 238.3 288 256C288 273.7 302.3 288 320 288C337.7 288 352 273.7 352 256zM320 192C355.3 192 384 220.7 384 256C384 291.3 355.3 320 320 320C284.7 320 256 291.3 256 256C256 220.7 284.7 192 320 192z"/></svg>