<svg xmlns="http://www.w3.org/2000/svg" viewBox="0 0 640 640"><!--! Font Awesome Pro 7.1.0 by @fontawesome - https://fontawesome.com License - https://fontawesome.com/license (Commercial License) Copyright 2025 Fonticons, Inc. --><path fill="currentColor" d="M480 128C497.7 128 512 142.3 512 160L512 480C512 497.7 497.7 512 480 512L160 512C142.3 512 128 497.7 128 480L128 160C128 142.3 142.3 128 160 128L480 128zM160 96C124.7 96 96 124.7 96 160L96 480C96 515.3 124.7 544 160 544L480 544C515.3 544 544 515.3 544 480L544 160C544 124.7 515.3 96 480 96L160 96zM320 224C337.7 224 352 238.3 352 256C352 273.7 337.7 288 320 288C302.3 288 288 273.7 288 256C288 238.3 302.3 224 320 224zM320 320C355.3 320 384 291.3 384 256C384 220.7 355.3 192 320 192C284.7 192 256 220.7 256 256C256 291.3 284.7 320 320 320zM240 432C240 405.5 261.5 384 288 384L352 384C378.5 384 400 405.5 400 432C400 440.8 407.2 448 416 448C424.8 448 432 440.8 432 432C432 387.8 396.2 352 352 352L288 352C243.8 352 208 387.8 208 432C208 440.8 215.2 448 224 448C232.8 448 240 440.8 240 432z"/></svg>