<svg xmlns="http://www.w3.org/2000/svg" viewBox="0 0 640 640"><!--! Font Awesome Pro 7.1.0 by @fontawesome - https://fontawesome.com License - https://fontawesome.com/license (Commercial License) Copyright 2025 Fonticons, Inc. --><path fill="currentColor" d="M59.3 36.8C53.1 30.6 42.9 30.6 36.7 36.8C30.5 43 30.5 53.2 36.7 59.4L580.7 603.4C586.9 609.6 597.1 609.6 603.3 603.4C609.5 597.2 609.5 587 603.3 580.8L535.1 512.6C540.8 503.1 544 491.9 544 480L544 160C544 124.7 515.3 96 480 96L160 96C148.1 96 137 99.2 127.4 104.9L59.3 36.8zM151.6 129.1C154.3 128.4 157.1 128 160 128L480 128C497.7 128 512 142.3 512 160L512 480C512 482.9 511.6 485.7 510.9 488.4L471.4 448.9C472.8 447.1 474.1 445.2 475.2 443.2C482.2 430.3 481.6 414.7 473.6 402.4L385.6 266.4C378.2 255 365.6 248.1 352 248.1C338.4 248.1 325.8 255 318.4 266.4L306.8 284.4L151.7 129.3zM447.9 425.4L329.9 307.4L345.3 283.7C346.8 281.4 349.3 280 352 280C354.7 280 357.2 281.4 358.7 283.7L446.7 419.7C447.8 421.4 448.2 423.5 447.9 425.4zM96 480C96 515.3 124.7 544 160 544L453.5 544L421.5 512L160 512C142.3 512 128 497.7 128 480L128 218.5L96 186.5L96 480zM223.2 321.1L167.2 401.1C158.6 413.3 157.6 429.3 164.5 442.5C171.4 455.7 185.1 464 200 464L373.5 464L341.5 432L200 432C197 432 194.3 430.3 192.9 427.7C191.5 425.1 191.7 421.9 193.4 419.4L249.2 339.7L226.5 317C225.3 318.3 224.2 319.6 223.2 321.1z"/></svg>