<svg xmlns="http://www.w3.org/2000/svg" viewBox="0 0 640 640"><!--! Font Awesome Pro 7.1.0 by @fontawesome - https://fontawesome.com License - https://fontawesome.com/license (Commercial License) Copyright 2025 Fonticons, Inc. --><path fill="currentColor" d="M480 128C497.7 128 512 142.3 512 160L512 480C512 497.7 497.7 512 480 512L160 512C142.3 512 128 497.7 128 480L128 160C128 142.3 142.3 128 160 128L480 128zM160 96C124.7 96 96 124.7 96 160L96 480C96 515.3 124.7 544 160 544L480 544C515.3 544 544 515.3 544 480L544 160C544 124.7 515.3 96 480 96L160 96zM224 240C215.2 240 208 232.8 208 224C208 215.2 215.2 208 224 208C232.8 208 240 215.2 240 224C240 232.8 232.8 240 224 240zM176 224C176 250.5 197.5 272 224 272C250.5 272 272 250.5 272 224C272 197.5 250.5 176 224 176C197.5 176 176 197.5 176 224zM345.3 283.7C346.8 281.4 349.3 280 352 280C354.7 280 357.2 281.4 358.7 283.7L446.7 419.7C448.3 422.2 448.4 425.3 447 427.9C445.6 430.5 442.9 432.1 440 432.1L200 432.1C197 432.1 194.3 430.4 192.9 427.8C191.5 425.2 191.7 422 193.4 419.5L249.4 339.5C250.9 337.4 253.3 336.1 256 336.1C258.7 336.1 261.1 337.4 262.6 339.5L273.2 354.7C276.3 359.1 281.3 361.6 286.6 361.5C291.9 361.4 296.8 358.7 299.7 354.2L345.3 283.8zM352 248C338.4 248 325.8 254.9 318.4 266.3L285.5 317.1C278 308.8 267.3 304 255.9 304C242.8 304 230.6 310.4 223.1 321.1L167.1 401.1C158.5 413.3 157.5 429.3 164.4 442.5C171.3 455.7 185.1 464 200 464L440 464C454.7 464 468.1 456 475.1 443.1C482.1 430.2 481.5 414.6 473.5 402.3L385.5 266.3C378.1 254.9 365.5 248 351.9 248z"/></svg>