<svg xmlns="http://www.w3.org/2000/svg" viewBox="0 0 640 640"><!--! Font Awesome Pro 7.1.0 by @fontawesome - https://fontawesome.com License - https://fontawesome.com/license (Commercial License) Copyright 2025 Fonticons, Inc. --><path fill="currentColor" d="M192 128C174.3 128 160 142.3 160 160L160 416C160 433.7 174.3 448 192 448L512 448C529.7 448 544 433.7 544 416L544 160C544 142.3 529.7 128 512 128L192 128zM128 160C128 124.7 156.7 96 192 96L512 96C547.3 96 576 124.7 576 160L576 416C576 451.3 547.3 480 512 480L192 480C156.7 480 128 451.3 128 416L128 160zM64 208L64 512C64 529.7 78.3 544 96 544L464 544C472.8 544 480 551.2 480 560C480 568.8 472.8 576 464 576L96 576C60.7 576 32 547.3 32 512L32 208C32 199.2 39.2 192 48 192C56.8 192 64 199.2 64 208zM240 192C231.2 192 224 199.2 224 208C224 216.8 231.2 224 240 224C248.8 224 256 216.8 256 208C256 199.2 248.8 192 240 192zM288 208C288 234.5 266.5 256 240 256C213.5 256 192 234.5 192 208C192 181.5 213.5 160 240 160C266.5 160 288 181.5 288 208zM377.3 259.7L338.7 319.7C335.9 324.1 331.1 326.8 325.8 327C320.5 327.2 315.6 324.8 312.4 320.6L302.3 307.2C300.8 305.2 298.4 304 295.9 304C293.4 304 291 305.2 289.5 307.2L241.5 371.2C239.7 373.6 239.4 376.9 240.7 379.6C242 382.3 245 384 248 384L456 384C458.9 384 461.6 382.4 463 379.8C464.4 377.2 464.3 374.1 462.7 371.6L390.7 259.6C389.2 257.3 386.7 255.9 384 255.9C381.3 255.9 378.7 257.3 377.3 259.6zM384 224C397.6 224 410.3 230.9 417.6 242.4L489.6 354.4C497.5 366.7 498.1 382.4 491.1 395.2C484.1 408 470.6 416 456 416L248 416C232.8 416 219 407.4 212.2 393.9C205.4 380.4 206.9 364.1 216 352L264 288C271.6 277.9 283.4 272 296 272C306.5 272 316.6 276.2 324 283.4L350.4 242.4C357.8 231 370.4 224 384 224z"/></svg>