<svg xmlns="http://www.w3.org/2000/svg" viewBox="0 0 640 640"><!--! Font Awesome Pro 7.1.0 by @fontawesome - https://fontawesome.com License - https://fontawesome.com/license (Commercial License) Copyright 2025 Fonticons, Inc. --><path fill="currentColor" d="M161.5 128C145.6 128 132.1 139.6 129.8 155.3L98.5 368L199.4 368C210.1 368 220.1 373.3 226 382.2L248.5 416L391.4 416L413.9 382.2C419.8 373.3 429.8 368 440.5 368L541.4 368L510.1 155.3C507.9 139.6 494.4 128 478.5 128L161.5 128zM96 480C96 497.7 110.3 512 128 512L512 512C529.7 512 544 497.7 544 480L544 400L440.6 400L418.1 433.8C412.2 442.7 402.2 448 391.5 448L248.6 448C237.9 448 227.9 442.7 222 433.8L199.4 400L96 400L96 480zM98.1 150.7C102.8 119.3 129.7 96 161.5 96L478.6 96C510.3 96 537.3 119.3 541.9 150.7L575.4 378.2C575.9 381.3 576.1 384.4 576.1 387.5L576.1 480C576.1 515.3 547.4 544 512.1 544L128 544C92.7 544 64 515.3 64 480L64 387.5C64 384.4 64.2 381.3 64.7 378.2L98.1 150.7zM403.3 291.3L331.3 363.3C325.1 369.5 314.9 369.5 308.7 363.3L236.7 291.3C230.5 285.1 230.5 274.9 236.7 268.7C242.9 262.5 253.1 262.5 259.3 268.7L304 313.4L304 192C304 183.2 311.2 176 320 176C328.8 176 336 183.2 336 192L336 313.4L380.7 268.7C386.9 262.5 397.1 262.5 403.3 268.7C409.5 274.9 409.5 285.1 403.3 291.3z"/></svg>