<svg xmlns="http://www.w3.org/2000/svg" viewBox="0 0 640 640"><!--! Font Awesome Pro 7.1.0 by @fontawesome - https://fontawesome.com License - https://fontawesome.com/license (Commercial License) Copyright 2025 Fonticons, Inc. --><path fill="currentColor" d="M161.5 128C145.6 128 132.1 139.6 129.8 155.3L98.5 368L199.4 368C210.1 368 220.1 373.3 226 382.2L248.5 416L391.4 416L413.9 382.2C419.8 373.3 429.8 368 440.5 368L541.4 368L510.1 155.3C507.9 139.6 494.4 128 478.5 128L161.5 128zM96 480C96 497.7 110.3 512 128 512L512 512C529.7 512 544 497.7 544 480L544 400L440.6 400L418.1 433.8C412.2 442.7 402.2 448 391.5 448L248.6 448C237.9 448 227.9 442.7 222 433.8L199.4 400L96 400L96 480zM98.1 150.7C102.8 119.3 129.7 96 161.5 96L478.6 96C510.3 96 537.3 119.3 541.9 150.7L575.4 378.2C575.9 381.3 576.1 384.4 576.1 387.5L576.1 480C576.1 515.3 547.4 544 512.1 544L128 544C92.7 544 64 515.3 64 480L64 387.5C64 384.4 64.2 381.3 64.7 378.2L98.1 150.7zM308.6 180.7C314.8 174.5 325 174.5 331.2 180.7L403.2 252.7C409.4 258.9 409.4 269.1 403.2 275.3C397 281.5 386.8 281.5 380.6 275.3L336 230.6L336 352C336 360.8 328.8 368 320 368C311.2 368 304 360.8 304 352L304 230.6L259.3 275.3C253.1 281.5 242.9 281.5 236.7 275.3C230.5 269.1 230.5 258.9 236.7 252.7L308.7 180.7z"/></svg>