<svg xmlns="http://www.w3.org/2000/svg" viewBox="0 0 640 640"><!--! Font Awesome Pro 7.1.0 by @fontawesome - https://fontawesome.com License - https://fontawesome.com/license (Commercial License) Copyright 2025 Fonticons, Inc. --><path fill="currentColor" d="M150.5 96C135.5 96 122.5 106.4 119.3 121.1L96.8 222.3C96.7 222.9 96.6 223.4 96.5 224L198.2 224C210.3 224 221.4 230.8 226.8 241.7L250 288L390.2 288L413.4 241.7C418.8 230.9 429.9 224 442 224L543.7 224C543.6 223.4 543.5 222.9 543.4 222.3L520.7 121.1C517.5 106.4 504.5 96 489.5 96L150.5 96zM96 384L544 384L544 256L441.9 256L418.7 302.3C413.3 313.1 402.2 320 390.1 320L249.9 320C237.8 320 226.7 313.2 221.3 302.3L198.1 256L96 256L96 384zM64 384L64 229.3C64 224.6 64.5 220 65.5 215.4L88 114.1C94.5 84.8 120.5 64 150.5 64L489.5 64C519.5 64 545.5 84.8 552 114.1L574.5 215.4C575.5 220 576 224.6 576 229.3L576 512C576 547.3 547.3 576 512 576L128 576C92.7 576 64 547.3 64 512L64 384zM96 416L96 512C96 529.7 110.3 544 128 544L512 544C529.7 544 544 529.7 544 512L544 416L441.9 416L418.7 462.3C413.3 473.1 402.2 480 390.1 480L249.9 480C237.8 480 226.7 473.2 221.3 462.3L198.1 416L96 416zM233.9 416L249.9 448L390.1 448L406.1 416L233.9 416z"/></svg>