<svg xmlns="http://www.w3.org/2000/svg" viewBox="0 0 640 640"><!--! Font Awesome Pro 7.1.0 by @fontawesome - https://fontawesome.com License - https://fontawesome.com/license (Commercial License) Copyright 2025 Fonticons, Inc. --><path fill="currentColor" d="M96 128C96 119.2 103.2 112 112 112L528 112C536.8 112 544 119.2 544 128C544 136.8 536.8 144 528 144L112 144C103.2 144 96 136.8 96 128zM288 256C288 247.2 295.2 240 304 240L528 240C536.8 240 544 247.2 544 256C544 264.8 536.8 272 528 272L304 272C295.2 272 288 264.8 288 256zM304 368L528 368C536.8 368 544 375.2 544 384C544 392.8 536.8 400 528 400L304 400C295.2 400 288 392.8 288 384C288 375.2 295.2 368 304 368zM96 512C96 503.2 103.2 496 112 496L528 496C536.8 496 544 503.2 544 512C544 520.8 536.8 528 528 528L112 528C103.2 528 96 520.8 96 512zM128 275.8L128 364.2L181.7 320L128 275.8zM217 307.6C224.8 314 224.8 325.9 217 332.3L122.2 410.4C111.7 419 96 411.6 96 398.1L96 241.9C96 228.4 111.7 221 122.2 229.5L217 307.6z"/></svg>