<svg xmlns="http://www.w3.org/2000/svg" viewBox="0 0 640 640"><!--! Font Awesome Pro 7.1.0 by @fontawesome - https://fontawesome.com License - https://fontawesome.com/license (Commercial License) Copyright 2025 Fonticons, Inc. --><path fill="currentColor" d="M160 112C160 103.2 167.2 96 176 96L464 96C472.8 96 480 103.2 480 112C480 120.8 472.8 128 464 128L362.5 128C391.2 151.2 410.8 185.3 415.1 224L464 224C472.8 224 480 231.2 480 240C480 248.8 472.8 256 464 256L415.1 256C407.1 328 346.1 384 272 384L225.9 384L409.3 515C416.5 520.1 418.2 530.1 413 537.3C407.8 544.5 397.9 546.2 390.7 541L166.7 381C161 377 158.6 369.7 160.8 363.1C163 356.5 169 352 176 352L272 352C328.4 352 375.1 310.3 382.9 256L176 256C167.2 256 160 248.8 160 240C160 231.2 167.2 224 176 224L382.9 224C375.1 169.7 328.5 128 272 128L176 128C167.2 128 160 120.8 160 112z"/></svg>