<svg xmlns="http://www.w3.org/2000/svg" viewBox="0 0 640 640"><!--! Font Awesome Pro 7.1.0 by @fontawesome - https://fontawesome.com License - https://fontawesome.com/license (Commercial License) Copyright 2025 Fonticons, Inc. --><path fill="currentColor" d="M112 128C103.2 128 96 135.2 96 144L96 480C96 497.7 110.3 512 128 512L512 512C529.7 512 544 497.7 544 480L544 222.9C544 216.4 536.6 212.6 531.3 216.4L393.3 315.7C388.4 319.2 382 319.7 376.7 317C371.4 314.3 368 308.8 368 302.8L368 220.9C368 214.5 360.9 210.7 355.6 214.2L216.9 306.6C212 309.9 205.7 310.2 200.5 307.4C195.3 304.6 192 299.2 192 293.3L192 144C192 135.2 184.8 128 176 128L112 128zM64 144C64 117.5 85.5 96 112 96L176 96C202.5 96 224 117.5 224 144L224 263.4L337.8 187.5C364.4 169.8 400 188.8 400 220.8L400 271.4L512.6 190.3C539.1 171.2 576 190.2 576 222.8L576 480C576 515.3 547.3 544 512 544L128 544C92.7 544 64 515.3 64 480L64 144z"/></svg>