<svg xmlns="http://www.w3.org/2000/svg" viewBox="0 0 640 640"><!--! Font Awesome Pro 7.1.0 by @fontawesome - https://fontawesome.com License - https://fontawesome.com/license (Commercial License) Copyright 2025 Fonticons, Inc. --><path fill="currentColor" d="M160 128C142.3 128 128 142.3 128 160L128 480C128 497.7 142.3 512 160 512L480 512C497.7 512 512 497.7 512 480L512 160C512 142.3 497.7 128 480 128L160 128zM96 160C96 124.7 124.7 96 160 96L480 96C515.3 96 544 124.7 544 160L544 480C544 515.3 515.3 544 480 544L160 544C124.7 544 96 515.3 96 480L96 160zM296 224C296 210.7 306.7 200 320 200C333.3 200 344 210.7 344 224C344 237.3 333.3 248 320 248C306.7 248 296 237.3 296 224zM272 288L320 288C328.8 288 336 295.2 336 304L336 416L368 416C376.8 416 384 423.2 384 432C384 440.8 376.8 448 368 448L272 448C263.2 448 256 440.8 256 432C256 423.2 263.2 416 272 416L304 416L304 320L272 320C263.2 320 256 312.8 256 304C256 295.2 263.2 288 272 288z"/></svg>