<svg xmlns="http://www.w3.org/2000/svg" viewBox="0 0 640 640"><!--! Font Awesome Pro 7.1.0 by @fontawesome - https://fontawesome.com License - https://fontawesome.com/license (Commercial License) Copyright 2025 Fonticons, Inc. --><path fill="currentColor" d="M296 120C296 106.7 306.7 96 320 96C333.3 96 344 106.7 344 120C344 133.3 333.3 144 320 144C306.7 144 296 133.3 296 120zM224 240C224 231.2 231.2 224 240 224L304 224C321.7 224 336 238.3 336 256L336 512L400 512C408.8 512 416 519.2 416 528C416 536.8 408.8 544 400 544L240 544C231.2 544 224 536.8 224 528C224 519.2 231.2 512 240 512L304 512L304 256L240 256C231.2 256 224 248.8 224 240z"/></svg>