<svg xmlns="http://www.w3.org/2000/svg" viewBox="0 0 640 640"><!--! Font Awesome Pro 7.1.0 by @fontawesome - https://fontawesome.com License - https://fontawesome.com/license (Commercial License) Copyright 2025 Fonticons, Inc. --><path fill="currentColor" d="M415.9 104.2C423.8 79.8 449.5 65.8 474.2 72.6L589 103.9C615 111 630.1 138.2 622.3 164L522.1 498.4C514 525.5 489 544 460.8 544L272.5 544C246 544 224.5 522.5 224.5 496L224.5 336C224.5 309.5 246 288 272.5 288L356.8 288L415.9 104.2zM465.8 103.5C457.5 101.2 449 105.9 446.4 114L425.6 178.6L427.1 180L551.1 290.2L591.7 154.8C594.3 146.2 589.3 137.1 580.6 134.8L465.8 103.5zM541 324.1L414.9 212L383.7 308.9C381.6 315.5 375.4 320 368.5 320L272.5 320C263.7 320 256.5 327.2 256.5 336L256.5 496C256.5 504.8 263.7 512 272.5 512L460.8 512C474.9 512 487.4 502.7 491.4 489.2L541 324.1zM32.5 392C45.8 392 56.5 402.7 56.5 416C56.5 429.3 45.8 440 32.5 440C19.2 440 8.5 429.3 8.5 416C8.5 402.7 19.2 392 32.5 392zM56.5 512C56.5 525.3 45.8 536 32.5 536C19.2 536 8.5 525.3 8.5 512C8.5 498.7 19.2 488 32.5 488C45.8 488 56.5 498.7 56.5 512zM128.5 344C141.8 344 152.5 354.7 152.5 368C152.5 381.3 141.8 392 128.5 392C115.2 392 104.5 381.3 104.5 368C104.5 354.7 115.2 344 128.5 344zM56.5 320C56.5 333.3 45.8 344 32.5 344C19.2 344 8.5 333.3 8.5 320C8.5 306.7 19.2 296 32.5 296C45.8 296 56.5 306.7 56.5 320zM128.5 440C141.8 440 152.5 450.7 152.5 464C152.5 477.3 141.8 488 128.5 488C115.2 488 104.5 477.3 104.5 464C104.5 450.7 115.2 440 128.5 440z"/></svg>