<svg xmlns="http://www.w3.org/2000/svg" viewBox="0 0 640 640"><!--! Font Awesome Pro 7.1.0 by @fontawesome - https://fontawesome.com License - https://fontawesome.com/license (Commercial License) Copyright 2025 Fonticons, Inc. --><path fill="currentColor" d="M544 160C561.7 160 576 174.3 576 192L576 448C576 465.7 561.7 480 544 480L96 480C78.3 480 64 465.7 64 448L64 192C64 174.3 78.3 160 96 160L544 160zM96 128C60.7 128 32 156.7 32 192L32 448C32 483.3 60.7 512 96 512L544 512C579.3 512 608 483.3 608 448L608 192C608 156.7 579.3 128 544 128L96 128zM128 288L128 400C128 408.8 135.2 416 144 416C152.8 416 160 408.8 160 400L160 352L224 352L224 400C224 408.8 231.2 416 240 416C248.8 416 256 408.8 256 400L256 288C256 252.7 227.3 224 192 224C156.7 224 128 252.7 128 288zM224 320L160 320L160 288C160 270.3 174.3 256 192 256C209.7 256 224 270.3 224 288L224 320zM304 240L304 400C304 408.8 311.2 416 320 416L384 416C414.9 416 440 390.9 440 360C440 342.2 431.7 326.4 418.8 316.1C427 306.3 432 293.7 432 280C432 249.1 406.9 224 376 224L320 224C311.2 224 304 231.2 304 240zM400 280C400 293.3 389.3 304 376 304L336 304L336 256L376 256C389.3 256 400 266.7 400 280zM336 384L336 336L384 336C397.3 336 408 346.7 408 360C408 373.3 397.3 384 384 384L336 384z"/></svg>