<svg xmlns="http://www.w3.org/2000/svg" viewBox="0 0 640 640"><!--! Font Awesome Pro 7.1.0 by @fontawesome - https://fontawesome.com License - https://fontawesome.com/license (Commercial License) Copyright 2025 Fonticons, Inc. --><path fill="currentColor" d="M544 160C561.7 160 576 174.3 576 192L576 448C576 465.7 561.7 480 544 480L96 480C78.3 480 64 465.7 64 448L64 192C64 174.3 78.3 160 96 160L544 160zM96 128C60.7 128 32 156.7 32 192L32 448C32 483.3 60.7 512 96 512L544 512C579.3 512 608 483.3 608 448L608 192C608 156.7 579.3 128 544 128L96 128zM128 240C128 248.8 135.2 256 144 256L160 256L160 384L144 384C135.2 384 128 391.2 128 400C128 408.8 135.2 416 144 416L208 416C216.8 416 224 408.8 224 400C224 391.2 216.8 384 208 384L192 384L192 240C192 231.2 184.8 224 176 224L144 224C135.2 224 128 231.2 128 240zM296.7 267.4C306.1 256.1 322.9 254.8 333.9 264.5C344.7 274 345.8 290.4 336.4 301.2L259.8 389.5C255.7 394.2 254.7 400.9 257.3 406.6C259.9 412.3 265.6 416 271.9 416L367.9 416C376.7 416 383.9 408.8 383.9 400C383.9 391.2 376.7 384 367.9 384L306.9 384L360.5 322.1C381.4 297.9 378.9 261.4 354.9 240.3C330.3 218.8 292.9 221.8 272 246.8L259.6 261.7C253.9 268.5 254.9 278.6 261.6 284.2C268.3 289.8 278.5 288.9 284.1 282.2L296.5 267.3z"/></svg>