<svg xmlns="http://www.w3.org/2000/svg" viewBox="0 0 640 640"><!--! Font Awesome Pro 7.1.0 by @fontawesome - https://fontawesome.com License - https://fontawesome.com/license (Commercial License) Copyright 2025 Fonticons, Inc. --><path fill="currentColor" d="M96 160C78.3 160 64 174.3 64 192L64 448C64 465.7 78.3 480 96 480L544 480C561.7 480 576 465.7 576 448L576 192C576 174.3 561.7 160 544 160L96 160zM32 192C32 156.7 60.7 128 96 128L544 128C579.3 128 608 156.7 608 192L608 448C608 483.3 579.3 512 544 512L96 512C60.7 512 32 483.3 32 448L32 192zM160 240L160 400C160 408.8 152.8 416 144 416C135.2 416 128 408.8 128 400L128 240C128 231.2 135.2 224 144 224C152.8 224 160 231.2 160 240z"/></svg>