<svg xmlns="http://www.w3.org/2000/svg" viewBox="0 0 640 640"><!--! Font Awesome Pro 7.1.0 by @fontawesome - https://fontawesome.com License - https://fontawesome.com/license (Commercial License) Copyright 2025 Fonticons, Inc. --><path fill="currentColor" d="M320 96C249.3 96 192 153.3 192 224C192 232.8 184.8 240 176 240C167.2 240 160 232.8 160 224C160 135.6 231.6 64 320 64C408.4 64 480 135.6 480 224C480 290.9 438.9 348.2 380.7 372.1C354.6 382.8 336 402.7 336 424L336 448C336 456.8 328.8 464 320 464C311.2 464 304 456.8 304 448L304 208C304 199.2 311.2 192 320 192C328.8 192 336 199.2 336 208L336 361.9C346.1 353.6 357.5 347 368.5 342.5C415.1 323.4 448 277.5 448 224C448 153.3 390.7 96 320 96zM344 552C344 565.3 333.3 576 320 576C306.7 576 296 565.3 296 552C296 538.7 306.7 528 320 528C333.3 528 344 538.7 344 552z"/></svg>