<svg xmlns="http://www.w3.org/2000/svg" viewBox="0 0 640 640"><!--! Font Awesome Pro 7.1.0 by @fontawesome - https://fontawesome.com License - https://fontawesome.com/license (Commercial License) Copyright 2025 Fonticons, Inc. --><path fill="currentColor" d="M240 64C288.7 64 324.7 80.5 348.6 102.9C363.9 98.5 381 96 400 96C484.4 96 530.2 145.5 541.3 188.2L542.1 192.1C544.6 211.3 527.3 224 512 224L352.3 224C355 230.6 357.7 237.5 360.2 244.8C375.7 290.5 385.9 351.3 368.3 417C431.3 425 480 478.8 480 543.9C480 561.6 465.7 575.9 448 575.9L128 575.9L124.7 575.7C108.6 574.2 96 560.6 96 544C96 473.3 153.3 416 224 416L335.3 416C353.5 355.4 344.7 298.6 329.9 255.2C327.3 247.6 324.5 240.5 321.7 233.8L218.5 336.9C207.7 347.7 186.5 351 174.7 335.6L172.5 332.3C153.2 299.4 148.6 244.8 186.1 192L128 192C111.7 192 93.1 177.5 98.7 156.2L101.2 148.1C115.7 107.5 160.8 64 240 64zM224 448C171 448 128 491 128 544L448 544C448 491 405 448 352 448L224 448zM240 96C173.1 96 140.3 132.3 130.9 160L214.9 160C225.9 150.1 237 142.1 248.2 135.8L251.2 134.5C258.3 132.3 266.2 135.3 270 142.1C274.3 149.8 271.5 159.6 263.7 163.8L255.3 168.8C246.9 174.3 238.3 181.2 229.8 189.7L221.5 198.6C182.9 243.1 185.8 287.6 198 312.2L313.5 196.7L315.9 194.7C318.5 193 321.6 192 324.8 192L509 192C499.6 164.3 466.9 128 400 128C380.2 128 363.6 131.2 349.7 136.2C343.6 138.4 336.7 136.7 332.3 131.9C315.1 112.8 285.6 96 240.1 96z"/></svg>