<svg xmlns="http://www.w3.org/2000/svg" viewBox="0 0 640 640"><!--! Font Awesome Pro 7.1.0 by @fontawesome - https://fontawesome.com License - https://fontawesome.com/license (Commercial License) Copyright 2025 Fonticons, Inc. --><path fill="currentColor" d="M256 112C256 103.2 263.2 96 272 96L496 96C504.8 96 512 103.2 512 112C512 120.8 504.8 128 496 128L403.4 128L270.5 512L368 512C376.8 512 384 519.2 384 528C384 536.8 376.8 544 368 544L144 544C135.2 544 128 536.8 128 528C128 519.2 135.2 512 144 512L236.6 512L369.5 128L272 128C263.2 128 256 120.8 256 112z"/></svg>