<svg xmlns="http://www.w3.org/2000/svg" viewBox="0 0 640 640"><!--! Font Awesome Pro 7.1.0 by @fontawesome - https://fontawesome.com License - https://fontawesome.com/license (Commercial License) Copyright 2025 Fonticons, Inc. --><path fill="currentColor" d="M291.3 112L348.7 112L377.8 193.5C374.1 192.8 370.5 191.5 367.2 189.5C352.6 180.8 336.7 176 320 176C303.3 176 287.4 180.8 272.8 189.5C269.5 191.5 265.9 192.8 262.2 193.5L291.3 112zM263 95.9L231.1 185.1C218.8 179.2 205.6 175.9 191.9 175.9C121.2 175.9 63.9 261.9 63.9 367.9C63.9 473.9 121.3 560 192 560C208.7 560 224.6 555.2 239.2 546.5C249.5 540.4 262.6 540.4 272.9 546.5C287.5 555.2 303.4 560 320.1 560C336.8 560 352.7 555.2 367.3 546.5C377.6 540.4 390.7 540.4 401 546.5C415.6 555.2 431.5 560 448.2 560C518.9 560 576.2 474 576.2 368C576.2 262 518.7 176 448 176C434.3 176 421.2 179.2 408.8 185.2L377 95.9C373.6 86.4 364.5 80 354.4 80L285.7 80C275.6 80 266.5 86.4 263.1 95.9zM192 528C170.7 528 147.5 515 128.1 486C108.9 457.2 96 415.6 96 368C96 320.4 108.9 278.8 128.1 250C147.4 221 170.7 208 192 208C202.3 208 212.7 210.9 222.8 217C243.2 229.1 268.8 229.1 289.2 217C299.4 211 309.7 208 320 208C330.3 208 340.7 210.9 350.8 217C371.1 229.1 396.8 229.1 417.2 217C427.4 211 437.7 208 448 208C469.3 208 492.5 221 511.9 250C531.1 278.8 544 320.4 544 368C544 415.6 531.1 457.2 511.9 486C492.5 515 469.3 528 448 528C437.7 528 427.3 525.1 417.2 519C396.9 506.9 371.2 506.9 350.8 519C340.6 525 330.3 528 320 528C309.7 528 299.3 525.1 289.2 519C268.8 506.9 243.2 506.9 222.8 519C212.6 525 202.3 528 192 528zM252.5 262C249.5 258.2 244.9 256 240 256C235.1 256 230.5 258.2 227.5 262L195.5 302C190 308.9 191.1 319 198 324.5C204.9 330 215 328.9 220.5 322L240 297.6L259.5 322C265 328.9 275.1 330 282 324.5C288.9 319 290 308.9 284.5 302L252.5 262zM412.5 262C409.5 258.2 404.9 256 400 256C395.1 256 390.5 258.2 387.5 262L355.5 302C350 308.9 351.1 319 358 324.5C364.9 330 375 328.9 380.5 322L400 297.6L419.5 322C425 328.9 435.1 330 442 324.5C448.9 319 450 308.9 444.5 302L412.5 262zM211.6 404.1C241.8 411.1 272.8 415.2 304 416.2L304 424C304 432.8 311.2 440 320 440C328.8 440 336 432.8 336 424L336 416.2C367.2 415.2 398.3 411.1 428.4 404.1C420.7 416.4 410.9 427.3 399.5 436.3C397.8 429.3 391.5 424 383.9 424C375.1 424 367.9 431.2 367.9 440L367.9 454.7C353.1 460.7 336.9 464 319.9 464C302.9 464 286.7 460.7 271.9 454.7L271.9 440C271.9 431.2 264.7 424 255.9 424C248.3 424 242 429.2 240.3 436.3C229 427.3 219.2 416.4 211.4 404.1zM453.5 364C368.3 391.3 271.7 391.3 186.5 364C174.9 360.3 163.1 369.6 166.5 381.3C186 447.6 247.4 496 320 496C392.6 496 454 447.6 473.5 381.3C476.9 369.6 465.1 360.3 453.5 364z"/></svg>