<svg xmlns="http://www.w3.org/2000/svg" viewBox="0 0 640 640"><!--! Font Awesome Pro 7.1.0 by @fontawesome - https://fontawesome.com License - https://fontawesome.com/license (Commercial License) Copyright 2025 Fonticons, Inc. --><path fill="currentColor" d="M208 48C208 56.8 215.2 64 224 64L416 64C424.8 64 432 56.8 432 48C432 39.2 424.8 32 416 32L224 32C215.2 32 208 39.2 208 48zM416 144C433.7 144 448 158.3 448 176L448 512C448 529.7 433.7 544 416 544L224 544C206.3 544 192 529.7 192 512L192 176C192 158.3 206.3 144 224 144L416 144zM224 112C188.7 112 160 140.7 160 176L160 512C160 547.3 188.7 576 224 576L416 576C451.3 576 480 547.3 480 512L480 176C480 140.7 451.3 112 416 112L224 112zM250.7 224L256 224C276.9 224 294.7 237.4 301.3 256L296 256C275.1 256 257.3 242.6 250.7 224zM256 192L232 192C223.2 192 216 199.2 216 208C216 252.2 251.8 288 296 288L344 288C388.2 288 424 252.2 424 208C424 199.2 416.8 192 408 192L384 192C357.8 192 334.6 204.6 320 224C305.4 204.6 282.2 192 256 192zM344 256L338.7 256C345.3 237.4 363.1 224 384 224L389.3 224C382.7 242.6 364.9 256 344 256zM250.7 432L256 432C276.9 432 294.7 445.4 301.3 464L296 464C275.1 464 257.3 450.6 250.7 432zM296 496L304 496L304 512C304 520.8 311.2 528 320 528C328.8 528 336 520.8 336 512L336 496L344 496C388.2 496 424 460.2 424 416C424 407.2 416.8 400 408 400L384 400C357.8 400 334.6 412.6 320 432C305.4 412.6 282.2 400 256 400L232 400C223.2 400 216 407.2 216 416C216 460.2 251.8 496 296 496zM344 464L338.7 464C345.3 445.4 363.1 432 384 432L389.3 432C382.7 450.6 364.9 464 344 464zM344 360L338.7 360C345.3 341.4 363.1 328 384 328L389.3 328C382.7 346.6 364.9 360 344 360zM408 296L384 296C357.8 296 334.6 308.6 320 328C305.4 308.6 282.2 296 256 296L232 296C223.2 296 216 303.2 216 312C216 356.2 251.8 392 296 392L344 392C388.2 392 424 356.2 424 312C424 303.2 416.8 296 408 296zM250.7 328L256 328C276.9 328 294.7 341.4 301.3 360L296 360C275.1 360 257.3 346.6 250.7 328z"/></svg>