<svg xmlns="http://www.w3.org/2000/svg" viewBox="0 0 640 640"><!--! Font Awesome Pro 7.1.0 by @fontawesome - https://fontawesome.com License - https://fontawesome.com/license (Commercial License) Copyright 2025 Fonticons, Inc. --><path fill="currentColor" d="M224 32L416 32C424.8 32 432 39.2 432 48C432 56.8 424.8 64 416 64L224 64C215.2 64 208 56.8 208 48C208 39.2 215.2 32 224 32zM224 144C206.3 144 192 158.3 192 176L192 256L448 256L448 176C448 158.3 433.7 144 416 144L224 144zM192 288L192 416L448 416L448 288L192 288zM192 448L192 512C192 529.7 206.3 544 224 544L416 544C433.7 544 448 529.7 448 512L448 448L192 448zM160 176C160 140.7 188.7 112 224 112L416 112C451.3 112 480 140.7 480 176L480 512C480 547.3 451.3 576 416 576L224 576C188.7 576 160 547.3 160 512L160 176z"/></svg>