<svg xmlns="http://www.w3.org/2000/svg" viewBox="0 0 640 640"><!--! Font Awesome Pro 7.1.0 by @fontawesome - https://fontawesome.com License - https://fontawesome.com/license (Commercial License) Copyright 2025 Fonticons, Inc. --><path fill="currentColor" d="M491.3 96L145.5 96C136.3 96 129 103.8 129.5 113L130.4 128L506.3 128L507.2 113C507.8 103.8 500.5 96 491.2 96zM384.5 160L336.5 160L336.5 544L465.3 544C473.7 544 480.7 537.4 481.3 529L498.4 256L480.5 256C427.5 256 384.5 213 384.5 160zM416.5 160C416.5 195.3 445.2 224 480.5 224L500.4 224L504.4 160L416.5 160zM304.5 160L256.5 160C256.5 213 213.5 256 160.5 256L138.5 256L155.6 529C156.1 537.4 163.1 544 171.6 544L304.6 544L304.6 160zM132.5 160L136.5 224L160.5 224C195.8 224 224.5 195.3 224.5 160L132.5 160zM145.5 64L491.3 64C519 64 540.9 87.4 539.2 115L513.2 531C511.6 556.3 490.6 576 465.3 576L171.5 576C146.2 576 125.2 556.3 123.6 531L97.6 115C95.9 87.4 117.8 64 145.5 64z"/></svg>