<svg xmlns="http://www.w3.org/2000/svg" viewBox="0 0 640 640"><!--! Font Awesome Pro 7.1.0 by @fontawesome - https://fontawesome.com License - https://fontawesome.com/license (Commercial License) Copyright 2025 Fonticons, Inc. --><path fill="currentColor" d="M152.2 109.4C157.3 83.1 180.3 64 207.2 64L433.3 64C460.2 64 483.2 83.1 488.3 109.4L567 518.6C572.8 549 553 578.3 522.6 584.2L442.6 599.6C413 605.3 384.3 586.6 377.5 557.3L320.3 310.9L263.1 557.3C256.3 586.6 227.5 605.3 198 599.6L118 584.2C87.6 578.3 67.7 549 73.5 518.6L152.2 109.4zM207.2 96C195.7 96 185.8 104.2 183.6 115.5L181.2 128L459.2 128L456.8 115.5C454.7 104.2 444.8 96 433.3 96L207.2 96zM384.2 160L336.2 160L336.2 238.2L408.5 550C411.4 562.6 423.7 570.6 436.4 568.1L516.4 552.7C529.4 550.2 537.9 537.6 535.4 524.6L483.7 256L480.1 256C427.1 256 384.1 213 384.1 160zM416.2 160C416.2 194.5 443.5 222.6 477.7 224L465.4 160L416.2 160zM304.2 160L256.2 160C256.2 213 213.2 256 160.2 256L156.6 256L104.9 524.6C102.4 537.6 110.9 550.2 123.9 552.7L203.9 568.1C216.6 570.5 228.9 562.5 231.8 550L304.1 238.2L304.1 160zM175.1 160L162.8 224C197 222.7 224.3 194.5 224.3 160L175.1 160z"/></svg>