<svg xmlns="http://www.w3.org/2000/svg" viewBox="0 0 640 640"><!--! Font Awesome Pro 7.1.0 by @fontawesome - https://fontawesome.com License - https://fontawesome.com/license (Commercial License) Copyright 2025 Fonticons, Inc. --><path fill="currentColor" d="M320 64C328.8 64 336 71.2 336 80L336 344.9L372.1 320.8C375.3 318.7 379.5 319.1 382.2 321.8C384.9 324.5 385.3 328.7 383.2 331.9L359.3 367.7L401.5 376.1C405.2 376.8 407.9 380.1 407.9 383.9C407.9 387.7 405.2 391 401.5 391.7L359.3 400.1L383.2 435.9C385.3 439.1 384.9 443.3 382.2 446C379.5 448.7 375.3 449.1 372.1 447L336 422.9L336 494.6C390.3 486.8 432 440.2 432 383.7C432 347.5 414.9 315.4 388.2 294.9C384 291.7 381.7 286.6 382 281.3C382.3 276 385.2 271.2 389.8 268.5C429.5 244.7 456 201.3 456 151.7C456 131.4 451.5 112.1 443.6 94.8C440.6 88.3 442.3 80.7 447.6 76C452.9 71.3 460.8 70.8 466.7 74.6C542 123.3 592 207.8 592 304C592 454.2 470.2 576 320 576C169.8 576 48 454.2 48 304C48 207.8 98 123.3 173.3 74.9C179.3 71.1 187.1 71.6 192.4 76.3C197.7 81 199.4 88.6 196.4 95.1C188.4 112.4 184 131.6 184 152C184 201.6 210.5 245 250.2 268.8C254.7 271.5 257.6 276.3 258 281.6C258.4 286.9 256 292 251.8 295.2C225.2 315.7 208 347.9 208 384C208 440.4 249.7 487.1 304 494.9L304 423.2L267.9 447.3C264.7 449.4 260.5 449 257.8 446.3C255.1 443.6 254.7 439.4 256.8 436.2L280.7 400.4L238.5 392C234.8 391.3 232.1 388 232.1 384.2C232.1 380.4 234.8 377.1 238.5 376.4L280.7 368L256.8 332.2C254.7 329 255.1 324.8 257.8 322.1C260.5 319.4 264.7 319 267.9 321.1L304 344.9L304 80C304 71.2 311.2 64 320 64zM96.1 217.5L139.3 260.7C145.5 266.9 145.5 277.1 139.3 283.3C133.1 289.5 122.9 289.5 116.7 283.3L85.6 252.2C83.4 262.1 81.8 272.3 80.9 282.7C81.7 283.3 82.5 283.9 83.3 284.7L139.3 340.7C145.5 346.9 145.5 357.1 139.3 363.3C133.1 369.5 122.9 369.5 116.7 363.3L81.2 327.8C93.1 449.2 195.5 544 320 544C444.5 544 546.9 449.2 558.8 327.8L523.3 363.3C517.1 369.5 506.9 369.5 500.7 363.3C494.5 357.1 494.5 346.9 500.7 340.7L556.7 284.7C557.4 284 558.2 283.3 559.1 282.7C558.2 272.3 556.6 262.2 554.4 252.2L523.3 283.3C517.1 289.5 506.9 289.5 500.7 283.3C494.5 277.1 494.5 266.9 500.7 260.7L543.9 217.5C531.2 184.7 511.6 155.4 486.7 131.4C487.5 138.2 488 145 488 152C488 205.6 462.9 253.4 423.8 284.1C448.7 310 464 345.2 464 384C464 463.5 399.5 528 320 528C240.5 528 176 463.5 176 384C176 345.2 191.3 310 216.2 284.1C177.1 253.4 152 205.6 152 152C152 145 152.4 138.1 153.3 131.4C128.5 155.4 108.8 184.7 96.1 217.5z"/></svg>