<svg xmlns="http://www.w3.org/2000/svg" viewBox="0 0 640 640"><!--! Font Awesome Pro 7.1.0 by @fontawesome - https://fontawesome.com License - https://fontawesome.com/license (Commercial License) Copyright 2025 Fonticons, Inc. --><path fill="currentColor" d="M80 480C71.2 480 64 472.8 64 464L64 336C64 327.2 71.2 320 80 320C88.8 320 96 327.2 96 336L96 387.8L256 248.7L256 164.8C256 149.3 258.5 133.9 263.4 119.3L283.8 58.1C289 42.5 303.6 32 320 32C336.4 32 351 42.5 356.2 58.1L376.6 119.2C381.5 133.9 384 149.3 384 164.7L384 248.4L544 381.7L544 335.9C544 327.1 551.2 319.9 560 319.9C568.8 319.9 576 327.1 576 335.9L576 463.9C576 472.7 568.8 479.9 560 479.9C551.2 479.9 544 472.7 544 463.9L544 447.9L384 447.9L384 473.3L427.3 516.6C430.3 519.6 432 523.7 432 527.9L432 591.9C432 600.7 424.8 607.9 416 607.9L224 607.9C215.2 607.9 208 600.7 208 591.9L208 527.9C208 523.7 209.7 519.6 212.7 516.6L256 473.3L256 447.9L96 447.9L96 463.9C96 472.7 88.8 479.9 80 479.9zM256 416L256 291.1L112.4 416L256 416zM384 416L535 416L384 290.2L384 416zM336 576L400 576L400 534.6L356.7 491.3C353.7 488.3 352 484.2 352 480L352 164.8C352 152.8 350.1 140.8 346.3 129.4L325.9 68.2C325 65.7 322.7 64 320 64C317.3 64 315 65.7 314.1 68.2L293.7 129.4C289.9 140.8 288 152.8 288 164.8L288 480C288 484.2 286.3 488.3 283.3 491.3L240 534.6L240 576L304 576L304 528C304 519.2 311.2 512 320 512C328.8 512 336 519.2 336 528L336 576z"/></svg>