<svg xmlns="http://www.w3.org/2000/svg" viewBox="0 0 640 640"><!--! Font Awesome Pro 7.1.0 by @fontawesome - https://fontawesome.com License - https://fontawesome.com/license (Commercial License) Copyright 2025 Fonticons, Inc. --><path fill="currentColor" d="M416 64C407.2 64 400 71.2 400 80L400 107C400 155.8 419.4 202.6 453.9 237.1L474.9 258.1C488.4 271.6 496 289.9 496 309L496 336C496 344.8 503.2 352 512 352C520.8 352 528 344.8 528 336L528 309C528 281.4 517 255 497.5 235.5L476.5 214.5C448 186 432 147.3 432 107L432 80C432 71.2 424.8 64 416 64zM592 352C600.8 352 608 344.8 608 336L608 309C608 260.2 588.6 213.4 554.1 178.9L533.1 157.9C519.6 144.4 512 126.1 512 107L512 80C512 71.2 504.8 64 496 64C487.2 64 480 71.2 480 80L480 107C480 134.6 491 161 510.5 180.5L531.5 201.5C560 230 576 268.7 576 309L576 336C576 344.8 583.2 352 592 352zM70.2 456L214.8 422.6L269.8 512L261.8 512C249.7 512 237.6 510.6 225.8 507.9L70.2 472C66.7 471.2 64 467.9 64 464C64 460.1 66.7 456.8 70.2 456zM307.4 512L248.7 416.5C253.1 416.1 257.5 416 261.9 416L354.8 416L412.5 509.7L409.7 510.1C401.7 511.3 393.5 512 385.4 512L307.5 512zM446.7 504.4L392.4 416.1C398.2 416.4 403.9 416.9 409.6 417.8L555.6 440.3C567.3 442.1 575.9 452.1 575.9 464C575.9 475.9 567.3 485.9 555.6 487.7L446.7 504.4zM218.7 388.9L63 424.8C44.9 429 32 445.4 32 464C32 482.6 44.9 499 63 503.2L218.7 539.1C232.9 542.4 247.3 544 261.9 544L385.4 544C395.2 544 404.9 543.3 414.6 541.8L560.6 519.3C587.9 515.1 608 491.6 608 464C608 436.4 587.9 412.9 560.6 408.7L414.6 386.2C404.9 384.7 395.2 384 385.4 384L261.9 384C247.4 384 232.9 385.6 218.7 388.9z"/></svg>