<svg xmlns="http://www.w3.org/2000/svg" viewBox="0 0 640 640"><!--! Font Awesome Pro 7.1.0 by @fontawesome - https://fontawesome.com License - https://fontawesome.com/license (Commercial License) Copyright 2025 Fonticons, Inc. --><path fill="currentColor" d="M320 64C381.9 64 432 114.1 432 176C432 232.4 390.3 279.1 336 286.8L336 416L480 416L486.5 416.3C518.8 419.6 544 446.8 544 480L544 512L543.7 518.5C540.6 548.6 516.7 572.6 486.6 575.6L480.1 575.9L160.1 575.9L153.6 575.6C123.5 572.5 99.5 548.6 96.5 518.5L96 512L96 480C96 446.9 121.2 419.6 153.5 416.3L160 416L304 416L304 286.8C249.7 279 208 232.4 208 176C208 114.1 258.1 64 320 64zM160 448C142.3 448 128 462.3 128 480L128 512C128 529.7 142.3 544 160 544L480 544C497.7 544 512 529.7 512 512L512 480C512 462.3 497.7 448 480 448L160 448zM320 96C275.8 96 240 131.8 240 176C240 220.2 275.8 256 320 256C364.2 256 400 220.2 400 176C400 131.8 364.2 96 320 96zM304 168C290.7 168 280 157.3 280 144C280 130.7 290.7 120 304 120C317.3 120 328 130.7 328 144C328 157.3 317.3 168 304 168z"/></svg>