<svg xmlns="http://www.w3.org/2000/svg" viewBox="0 0 640 640"><!--! Font Awesome Pro 7.1.0 by @fontawesome - https://fontawesome.com License - https://fontawesome.com/license (Commercial License) Copyright 2025 Fonticons, Inc. --><path fill="currentColor" d="M192 96L192 128L256 128L256 96L192 96zM160 88C160 74.7 170.7 64 184 64L264 64C277.3 64 288 74.7 288 88L288 128L304 128C312.8 128 320 135.2 320 144C320 152.8 312.8 160 304 160L144 160C135.2 160 128 152.8 128 144C128 135.2 135.2 128 144 128L160 128L160 88zM96 320L96 512C96 529.7 110.3 544 128 544L281.3 544C286 555.6 292.4 566.4 300.1 576L128 576C92.7 576 64 547.3 64 512L64 320C64 249.3 121.3 192 192 192L301.1 192C293.1 201.7 286.6 212.4 281.8 224L192 224C139 224 96 267 96 320zM365.5 305.9C377.7 318.3 377.7 338.1 365.6 350.6C357.2 359.3 352 371 352 384C352 397.1 357.2 408.9 365.7 417.6C377.9 430 377.9 450 365.7 462.4C357.2 471.1 352 482.9 352 496C352 522.5 373.5 544 400 544L496 544C522.5 544 544 522.5 544 496C544 482.9 538.8 471.1 530.3 462.4C518.1 450 518.1 430 530.3 417.6C538.8 408.9 544 397.1 544 384C544 371 538.9 359.2 530.4 350.6C518.3 338.1 518.3 318.3 530.5 305.9C538.9 297.4 544 285.8 544 272.9C544 255.1 533.9 238.7 518 230.8L515.4 229.5C508.2 225.9 500.3 224 492.2 224L403.8 224C395.8 224 387.8 225.9 380.6 229.5L378 230.8C362 238.8 352 255.1 352 272.9C352 285.7 357.1 297.3 365.5 305.9zM363.8 202.2L366.4 200.9C372.1 198.1 378 195.9 384.1 194.4L384.1 168C384.1 145.9 402 128 424.1 128L472.1 128C494.2 128 512.1 145.9 512.1 168L512.1 194.4C518.2 195.9 524.1 198.1 529.8 200.9L532.4 202.2C559.2 215.6 576.1 243 576.1 273C576.1 294.6 567.5 314.1 553.5 328.4C567.5 342.8 576.1 362.5 576.1 384.1C576.1 405.9 567.4 425.7 553.2 440.1C567.3 454.5 576.1 474.3 576.1 496.1C576.1 540.3 540.3 576.1 496.1 576.1L400.1 576.1C355.9 576.1 320.1 540.3 320.1 496.1C320.1 474.3 328.8 454.5 343 440.1C328.9 425.7 320.1 405.9 320.1 384.1C320.1 362.4 328.7 342.8 342.7 328.4C328.7 314.1 320.1 294.6 320.1 273C320.1 243 337 215.6 363.8 202.2zM480 192L480 168C480 163.6 476.4 160 472 160L424 160C419.6 160 416 163.6 416 168L416 192L480 192z"/></svg>