<svg xmlns="http://www.w3.org/2000/svg" viewBox="0 0 640 640"><!--! Font Awesome Pro 7.1.0 by @fontawesome - https://fontawesome.com License - https://fontawesome.com/license (Commercial License) Copyright 2025 Fonticons, Inc. --><path fill="currentColor" d="M272 149L272 80L368 80L368 149C368 163.2 372.7 177.1 381.5 188.3L459.8 289C472.9 305.9 480 326.6 480 347.9L480 352L160 352L160 347.9C160 326.6 167.1 305.8 180.2 289L258.5 188.3C267.3 177.1 272 163.3 272 149zM224 64C224 72.8 231.2 80 240 80L240 149C240 156.1 237.6 163 233.3 168.6L155 269.3C137.5 291.8 128 319.4 128 347.9L128 512C128 547.3 156.7 576 192 576L448 576C483.3 576 512 547.3 512 512L512 347.9C512 326.1 506.4 304.8 496 286C523.6 278.9 544 253.8 544 224C544 188.7 515.3 160 480 160C456.4 160 435.8 172.8 424.7 191.8L406.7 168.7C402.4 163 400 156.1 400 149L400 80C408.8 80 416 72.8 416 64C416 55.2 408.8 48 400 48L240 48C231.2 48 224 55.2 224 64zM474.3 255.5L448.1 221.8C449.2 205.1 463.1 192 480 192C497.7 192 512 206.3 512 224C512 241.7 497.7 256 480 256C478 256 476.1 255.8 474.3 255.5zM160 448L160 384L480 384L480 448L160 448zM160 480L480 480L480 512C480 529.7 465.7 544 448 544L192 544C174.3 544 160 529.7 160 512L160 480z"/></svg>