<svg xmlns="http://www.w3.org/2000/svg" viewBox="0 0 640 640"><!--! Font Awesome Pro 7.1.0 by @fontawesome - https://fontawesome.com License - https://fontawesome.com/license (Commercial License) Copyright 2025 Fonticons, Inc. --><path fill="currentColor" d="M192 112C192 103.2 184.8 96 176 96C167.2 96 160 103.2 160 112L160 528C160 536.8 167.2 544 176 544C184.8 544 192 536.8 192 528L192 406.6L286.1 312.5L451.1 537.5C456.3 544.6 466.3 546.2 473.5 540.9C480.7 535.6 482.2 525.7 476.9 518.5L309 289.6L475.3 123.3C481.5 117.1 481.5 106.9 475.3 100.7C469.1 94.5 458.9 94.5 452.7 100.7L192 361.4L192 112z"/></svg>