<svg xmlns="http://www.w3.org/2000/svg" viewBox="0 0 640 640"><!--! Font Awesome Pro 7.1.0 by @fontawesome - https://fontawesome.com License - https://fontawesome.com/license (Commercial License) Copyright 2025 Fonticons, Inc. --><path fill="currentColor" d="M96 196.1L96 249.9L314.3 332.7C318 334.1 322 334.1 325.6 332.7L543.9 249.9L543.9 196.1L336.9 274.6C325.9 278.8 313.8 278.8 302.9 274.6L96 196.1zM517.1 172.1L325.6 100.3C322 98.9 318 98.9 314.4 100.3L122.9 172.1L314.3 244.7C318 246.1 322 246.1 325.6 244.7L517.1 172.1zM544 284.1L337 362.7C326 366.9 313.9 366.9 303 362.7L96 284.2L96 338L192 374.4L192 408.6L96 372.2L96 446.8C96 453.5 100.1 459.4 106.4 461.8L314.4 539.8C318 541.2 322 541.2 325.6 539.8L533.6 461.8C539.8 459.5 544 453.5 544 446.8L544 372.2L448 408.6L448 374.4L544 338L544 284.2zM64 446.7L64 193.3C64 173.3 76.4 155.4 95.1 148.4L303.1 70.4C314 66.3 325.9 66.3 336.8 70.4L544.8 148.4C563.5 155.4 575.9 173.3 575.9 193.3L575.9 446.8C575.9 466.8 563.5 484.7 544.8 491.7L336.8 569.7C325.9 573.8 314 573.8 303.1 569.7L95.1 491.7C76.4 484.7 64 466.7 64 446.7zM240 426.7L240 392.5L314.3 420.7C318 422.1 322 422.1 325.6 420.7L399.9 392.5L399.9 426.7L336.9 450.6C325.9 454.8 313.8 454.8 302.9 450.6L239.9 426.7z"/></svg>