<svg xmlns="http://www.w3.org/2000/svg" viewBox="0 0 640 640"><!--! Font Awesome Pro 7.1.0 by @fontawesome - https://fontawesome.com License - https://fontawesome.com/license (Commercial License) Copyright 2025 Fonticons, Inc. --><path fill="currentColor" d="M304 464L144 560L80 496L176 336L201.6 310.4C211.3 376.4 263.6 428.7 329.6 438.4L304 464zM329 137.7C263.5 147.7 211.7 199.5 201.7 265L153.3 313.4C151.4 315.3 149.8 317.3 148.5 319.6L52.5 479.6C44.9 492.2 46.9 508.3 57.3 518.7L121.3 582.7C131.7 593.1 147.8 595.1 160.4 587.5L320.4 491.5C322.6 490.2 324.7 488.5 326.6 486.7L375 438.3C440.5 428.4 492.4 376.6 502.3 311L598.7 214.6C611.2 202.1 611.2 181.8 598.7 169.3L470.7 41.3C458.2 28.8 437.9 28.8 425.4 41.3L329 137.7zM576 192L502.4 265.6C492.7 199.6 440.4 147.3 374.4 137.6L448 64L576 192zM352 168C418.3 168 472 221.7 472 288C472 354.3 418.3 408 352 408C285.7 408 232 354.3 232 288C232 221.7 285.7 168 352 168zM400 304C408.8 304 416 296.8 416 288C416 279.2 408.8 272 400 272L368 272L368 240C368 231.2 360.8 224 352 224C343.2 224 336 231.2 336 240L336 272L304 272C295.2 272 288 279.2 288 288C288 296.8 295.2 304 304 304L336 304L336 336C336 344.8 343.2 352 352 352C360.8 352 368 344.8 368 336L368 304L400 304z"/></svg>