<svg xmlns="http://www.w3.org/2000/svg" viewBox="0 0 640 640"><!--! Font Awesome Pro 7.1.0 by @fontawesome - https://fontawesome.com License - https://fontawesome.com/license (Commercial License) Copyright 2025 Fonticons, Inc. --><path fill="currentColor" d="M80.8 65.7C72.9 69.6 69.7 79.3 73.7 87.2L185.7 311.2C188.4 316.6 194 320 200 320C206 320 211.6 316.6 214.3 311.2L326.3 87.2C330.3 79.3 327 69.7 319.1 65.7C311.2 61.7 301.6 65 297.6 72.9L200 268.2L102.3 72.8C98.4 64.9 88.8 61.7 80.8 65.7zM494.1 224L385.9 224L440 115.8L494.1 224zM369.9 256L510.1 256L537.7 311.2C541.7 319.1 551.3 322.3 559.2 318.4C567.1 314.5 570.3 304.8 566.4 296.9L454.4 72.9C451.6 67.4 446.1 64 440 64C433.9 64 428.4 67.4 425.7 72.8L313.7 296.8C309.7 304.7 313 314.3 320.9 318.3C328.8 322.3 338.4 319 342.4 311.1L369.9 256zM235.3 411.3C241.5 405.1 241.5 394.9 235.3 388.7C229.1 382.5 218.9 382.5 212.7 388.7L132.7 468.7C126.5 474.9 126.5 485.1 132.7 491.3L212.7 571.3C218.9 577.5 229.1 577.5 235.3 571.3C241.5 565.1 241.5 554.9 235.3 548.7L182.6 496L457.3 496L404.6 548.7C398.4 554.9 398.4 565.1 404.6 571.3C410.8 577.5 421 577.5 427.2 571.3L507.2 491.3C513.4 485.1 513.4 474.9 507.2 468.7L427.2 388.7C421 382.5 410.8 382.5 404.6 388.7C398.4 394.9 398.4 405.1 404.6 411.3L457.3 464L182.6 464L235.3 411.3z"/></svg>