<svg xmlns="http://www.w3.org/2000/svg" viewBox="0 0 640 640"><!--! Font Awesome Pro 7.1.0 by @fontawesome - https://fontawesome.com License - https://fontawesome.com/license (Commercial License) Copyright 2025 Fonticons, Inc. --><path fill="currentColor" d="M347.8 64C420.8 64 480 123.2 480 196.2C480 220.5 472.8 243.2 461.2 264.2L440.6 298.5C484.2 333.7 512.1 387.5 512.1 447.9C512.1 481.7 503.3 513.4 488 541C474.7 564.9 447.5 575.9 420.2 575.9L219.9 575.9L214.8 575.8C191 574.6 167.9 564.9 154.8 545.4L152.1 541.1C136.8 513.5 128 481.8 128 448C128 387.6 155.9 333.8 199.4 298.6L178.8 264.3C166.5 243.7 160 220.2 160 196.2C160 123.2 219.2 64 292.2 64L347.7 64zM320 288C291.4 288 264.6 295.5 241.3 308.7C234.9 312.3 228.8 316.3 223.1 320.7C184.8 349.9 160 396.1 160 448C160 476.2 167.3 502.6 180.1 525.6C185.9 536 199.9 544 219.9 544L420.2 544C440.2 544 454.2 536 460 525.6C472.8 502.7 480.1 476.2 480.1 448C480.1 399.3 458.3 355.7 424 326.3C422.2 324.7 420.3 323.2 418.3 321.7C418 321.5 417.7 321.2 417.4 320.9C411.4 316.3 405.1 312.1 398.4 308.4C375.2 295.4 348.5 287.9 320.1 287.9zM292.2 96C236.8 96 192 140.9 192 196.2C192 214.4 196.9 232.2 206.3 247.8L226 280.6C253.8 264.9 285.9 256 320.1 256C354.2 256 386.3 265 414.1 280.6L433.4 248.5C442.8 231.2 448 214 448 196.2C448 140.9 403.1 96 347.8 96L292.3 96z"/></svg>