<svg xmlns="http://www.w3.org/2000/svg" viewBox="0 0 640 640"><!--! Font Awesome Pro 7.1.0 by @fontawesome - https://fontawesome.com License - https://fontawesome.com/license (Commercial License) Copyright 2025 Fonticons, Inc. --><path fill="currentColor" d="M400 96C461.9 96 512 146.1 512 208C512 269.9 461.9 320 400 320C338.1 320 288 269.9 288 208C288 146.1 338.1 96 400 96zM400 352C479.5 352 544 287.5 544 208C544 128.5 479.5 64 400 64C320.5 64 256 128.5 256 208C256 242 267.8 273.2 287.5 297.9L100.7 484.7C94.5 490.9 94.5 501.1 100.7 507.3L164.7 571.3C170.9 577.5 181.1 577.5 187.3 571.3C193.5 565.1 193.5 554.9 187.3 548.7L134.6 496L176 454.6L228.7 507.3C234.9 513.5 245.1 513.5 251.3 507.3C257.5 501.1 257.5 490.9 251.3 484.7L198.6 432L310.1 320.5C334.8 340.2 366 352 400 352z"/></svg>