<svg xmlns="http://www.w3.org/2000/svg" viewBox="0 0 640 640"><!--! Font Awesome Pro 7.1.0 by @fontawesome - https://fontawesome.com License - https://fontawesome.com/license (Commercial License) Copyright 2025 Fonticons, Inc. --><path fill="currentColor" d="M608.5 192C608.5 139 565.5 96 512.5 96C459.5 96 416.5 139 416.5 192C416.5 245 459.5 288 512.5 288C565.5 288 608.5 245 608.5 192zM640.5 192C640.5 262.7 583.2 320 512.5 320C441.8 320 384.5 262.7 384.5 192L384.5 192L288.5 192L288.5 256C288.5 264.8 281.3 272 272.5 272C263.7 272 256.5 264.8 256.5 256L256.5 192L192.5 192L192.5 256C192.5 264.8 185.3 272 176.5 272C167.7 272 160.5 264.8 160.5 256L160.5 176C160.5 167.2 167.7 160 176.5 160L388.5 160C402.7 104.8 452.8 64 512.5 64C583.2 64 640.5 121.3 640.5 192zM32.5 448C32.5 501 75.5 544 128.5 544C181.5 544 224.5 501 224.5 448C224.5 395 181.5 352 128.5 352C75.5 352 32.5 395 32.5 448zM.5 448C.5 377.3 57.8 320 128.5 320C199.2 320 256.5 377.3 256.5 448L352.5 448L352.5 384C352.5 375.2 359.7 368 368.5 368C377.3 368 384.5 375.2 384.5 384L384.5 448L448.5 448L448.5 384C448.5 375.2 455.7 368 464.5 368C473.3 368 480.5 375.2 480.5 384L480.5 464C480.5 472.8 473.3 480 464.5 480L252.5 480C238.3 535.2 188.2 576 128.5 576C57.8 576 .5 518.7 .5 448z"/></svg>