<svg xmlns="http://www.w3.org/2000/svg" viewBox="0 0 640 640"><!--! Font Awesome Pro 7.1.0 by @fontawesome - https://fontawesome.com License - https://fontawesome.com/license (Commercial License) Copyright 2025 Fonticons, Inc. --><path fill="currentColor" d="M256 240C256 160.5 320.5 96 400 96C479.5 96 544 160.5 544 240C544 319.5 479.5 384 400 384C388.9 384 378 382.7 367.6 380.4C362.2 379.2 356.6 380.8 352.7 384.7L321.4 416L272 416C263.2 416 256 423.2 256 432L256 480L208 480C199.2 480 192 487.2 192 496L192 544L96 544L96 462.6L258.8 299.8C263 295.6 264.5 289.3 262.7 283.6C258.3 269.8 256 255.2 256 239.9zM400 64C302.8 64 224 142.8 224 240C224 255.1 225.9 269.8 229.5 283.9L68.7 444.7C65.7 447.7 64 451.8 64 456L64 560C64 568.8 71.2 576 80 576L208 576C216.8 576 224 568.8 224 560L224 512L272 512C280.8 512 288 504.8 288 496L288 448L328 448C332.2 448 336.3 446.3 339.3 443.3L369.3 413.3C379.3 415.1 389.5 416 400 416C497.2 416 576 337.2 576 240C576 142.8 497.2 64 400 64zM432 232C445.3 232 456 221.3 456 208C456 194.7 445.3 184 432 184C418.7 184 408 194.7 408 208C408 221.3 418.7 232 432 232z"/></svg>