<svg xmlns="http://www.w3.org/2000/svg" viewBox="0 0 640 640"><!--! Font Awesome Pro 7.1.0 by @fontawesome - https://fontawesome.com License - https://fontawesome.com/license (Commercial License) Copyright 2025 Fonticons, Inc. --><path fill="currentColor" d="M96 160C78.3 160 64 174.3 64 192L64 448C64 465.7 78.3 480 96 480L544 480C561.7 480 576 465.7 576 448L576 192C576 174.3 561.7 160 544 160L96 160zM32 192C32 156.7 60.7 128 96 128L544 128C579.3 128 608 156.7 608 192L608 448C608 483.3 579.3 512 544 512L96 512C60.7 512 32 483.3 32 448L32 192zM120 200L136 200C144.8 200 152 207.2 152 216L152 232C152 240.8 144.8 248 136 248L120 248C111.2 248 104 240.8 104 232L104 216C104 207.2 111.2 200 120 200zM104 312C104 303.2 111.2 296 120 296L136 296C144.8 296 152 303.2 152 312L152 328C152 336.8 144.8 344 136 344L120 344C111.2 344 104 336.8 104 328L104 312zM216 200L232 200C240.8 200 248 207.2 248 216L248 232C248 240.8 240.8 248 232 248L216 248C207.2 248 200 240.8 200 232L200 216C200 207.2 207.2 200 216 200zM200 312C200 303.2 207.2 296 216 296L232 296C240.8 296 248 303.2 248 312L248 328C248 336.8 240.8 344 232 344L216 344C207.2 344 200 336.8 200 328L200 312zM312 200L328 200C336.8 200 344 207.2 344 216L344 232C344 240.8 336.8 248 328 248L312 248C303.2 248 296 240.8 296 232L296 216C296 207.2 303.2 200 312 200zM296 312C296 303.2 303.2 296 312 296L328 296C336.8 296 344 303.2 344 312L344 328C344 336.8 336.8 344 328 344L312 344C303.2 344 296 336.8 296 328L296 312zM408 200L424 200C432.8 200 440 207.2 440 216L440 232C440 240.8 432.8 248 424 248L408 248C399.2 248 392 240.8 392 232L392 216C392 207.2 399.2 200 408 200zM392 312C392 303.2 399.2 296 408 296L424 296C432.8 296 440 303.2 440 312L440 328C440 336.8 432.8 344 424 344L408 344C399.2 344 392 336.8 392 328L392 312zM504 200L520 200C528.8 200 536 207.2 536 216L536 232C536 240.8 528.8 248 520 248L504 248C495.2 248 488 240.8 488 232L488 216C488 207.2 495.2 200 504 200zM488 312C488 303.2 495.2 296 504 296L520 296C528.8 296 536 303.2 536 312L536 328C536 336.8 528.8 344 520 344L504 344C495.2 344 488 336.8 488 328L488 312zM208 400L432 400C440.8 400 448 407.2 448 416C448 424.8 440.8 432 432 432L208 432C199.2 432 192 424.8 192 416C192 407.2 199.2 400 208 400z"/></svg>