<svg xmlns="http://www.w3.org/2000/svg" viewBox="0 0 640 640"><!--! Font Awesome Pro 7.1.0 by @fontawesome - https://fontawesome.com License - https://fontawesome.com/license (Commercial License) Copyright 2025 Fonticons, Inc. --><path fill="currentColor" d="M115.3 236.7C109.1 230.5 98.9 230.5 92.7 236.7C86.5 242.9 86.5 253.1 92.7 259.3L180.7 347.3C186.9 353.5 197.1 353.5 203.3 347.3C209.5 341.1 209.5 330.9 203.3 324.7L115.3 236.7zM304 288C304 296.8 311.2 304 320 304C328.8 304 336 296.8 336 288L336 160C336 151.2 328.8 144 320 144C311.2 144 304 151.2 304 160L304 288zM436.7 324.7C430.5 330.9 430.5 341.1 436.7 347.3C442.9 353.5 453.1 353.5 459.3 347.3L547.3 259.3C553.5 253.1 553.5 242.9 547.3 236.7C541.1 230.5 530.9 230.5 524.7 236.7L436.7 324.7zM0 464C0 472.8 7.2 480 16 480L112 480C120.8 480 128 472.8 128 464C128 455.2 120.8 448 112 448L16 448C7.2 448 0 455.2 0 464zM208 448C199.2 448 192 455.2 192 464C192 472.8 199.2 480 208 480L432 480C440.8 480 448 472.8 448 464C448 455.2 440.8 448 432 448L208 448zM528 448C519.2 448 512 455.2 512 464C512 472.8 519.2 480 528 480L624 480C632.8 480 640 472.8 640 464C640 455.2 632.8 448 624 448L528 448z"/></svg>