<svg xmlns="http://www.w3.org/2000/svg" viewBox="0 0 640 640"><!--! Font Awesome Pro 7.1.0 by @fontawesome - https://fontawesome.com License - https://fontawesome.com/license (Commercial License) Copyright 2025 Fonticons, Inc. --><path fill="currentColor" d="M320 248C333.3 248 344 237.3 344 224C344 210.7 333.3 200 320 200C306.7 200 296 210.7 296 224C296 237.3 306.7 248 320 248zM208 448C199.2 448 192 455.2 192 464C192 472.8 199.2 480 208 480L432 480C440.8 480 448 472.8 448 464C448 455.2 440.8 448 432 448L208 448zM184 288C184 274.7 173.3 264 160 264C146.7 264 136 274.7 136 288C136 301.3 146.7 312 160 312C173.3 312 184 301.3 184 288zM480 312C493.3 312 504 301.3 504 288C504 274.7 493.3 264 480 264C466.7 264 456 274.7 456 288C456 301.3 466.7 312 480 312zM568 448C568 434.7 557.3 424 544 424C530.7 424 520 434.7 520 448C520 461.3 530.7 472 544 472C557.3 472 568 461.3 568 448zM96 472C109.3 472 120 461.3 120 448C120 434.7 109.3 424 96 424C82.7 424 72 434.7 72 448C72 461.3 82.7 472 96 472z"/></svg>