<svg xmlns="http://www.w3.org/2000/svg" viewBox="0 0 640 640"><!--! Font Awesome Pro 7.1.0 by @fontawesome - https://fontawesome.com License - https://fontawesome.com/license (Commercial License) Copyright 2025 Fonticons, Inc. --><path fill="currentColor" d="M320 96C311.2 96 304 103.2 304 112C304 120.8 311.2 128 320 128L384 128C392.8 128 400 120.8 400 112C400 103.2 392.8 96 384 96L320 96zM274.7 96C281.3 77.4 299.1 64 320 64L384 64C410.5 64 432 85.5 432 112C432 138.5 410.5 160 384 160L320 160C299.1 160 281.3 146.6 274.7 128L240 128C213.5 128 192 149.5 192 176L192 192C192.5 192 193.1 192 193.6 192L446.4 192C466.6 192 484.6 204.6 491.5 223.6L541.6 361.2C543.2 365.7 544.1 370.4 544.1 375.1C544.1 397.6 525.8 415.9 503.3 415.9L336.1 415.9L336.1 543.9L400.1 543.9C408.9 543.9 416.1 551.1 416.1 559.9C416.1 568.7 408.9 575.9 400.1 575.9L240.1 575.9C231.3 575.9 224.1 568.7 224.1 559.9C224.1 551.1 231.3 543.9 240.1 543.9L304.1 543.9L304.1 415.9L136.9 415.9C114.4 415.9 96.1 397.6 96.1 375.1C96.1 370.3 96.9 365.6 98.6 361.2L148.5 223.6C151 216.7 155 210.7 160 205.7L160 176C160 131.8 195.8 96 240 96L274.7 96zM128.5 372.2C128.1 373.2 128 374.2 128 375.2C128 380.1 131.9 384 136.8 384L503.2 384C508.1 384 512 380.1 512 375.2C512 374.2 511.8 373.2 511.5 372.2L461.4 234.5C459.1 228.2 453.1 224 446.4 224L193.6 224C186.9 224 180.9 228.2 178.6 234.5L128.5 372.2z"/></svg>