<svg xmlns="http://www.w3.org/2000/svg" viewBox="0 0 640 640"><!--! Font Awesome Pro 7.1.0 by @fontawesome - https://fontawesome.com License - https://fontawesome.com/license (Commercial License) Copyright 2025 Fonticons, Inc. --><path fill="currentColor" d="M335.4 72C326.5 64.6 313.6 64.6 304.7 72L266.9 103.5C258.2 110.8 255.8 123.1 260.9 133.1C262.1 135.5 263.7 138.6 265.5 142.3C231.3 161.5 208.2 198.1 208.2 240.1C208.2 282.1 231.3 318.7 265.5 337.9C263.7 341.6 262.2 344.7 260.9 347.1C255.8 357.1 258.2 369.4 266.9 376.7L304.1 407.7L304.1 426.8C282.1 411.7 256.9 394.4 228.5 374.8C185.7 345.4 160.1 296.8 160.1 244.8L160.1 233.7C160.1 209.8 167.2 186.4 180.5 166.5C185.6 158.8 185.1 148.7 178.8 141.9C172.2 134.8 161.6 133.8 153.6 139.1C126.1 157.2 64.2 206.6 64.2 288.2C64.2 334.7 84.4 376.8 106 408.6C127.6 440.6 151.6 463.6 161.3 472.4C169.1 479.5 180.3 480.3 188.9 475.4L259.7 435.1L292.4 457.6L246.6 489.1C244.5 488.5 242.4 488.2 240.1 488.2C226.8 488.2 216.1 498.9 216.1 512.2C216.1 525.5 226.8 536.2 240.1 536.2C252 536.2 261.9 527.5 263.8 516.1L304.1 488.4L304.1 516.5C294.5 522 288.1 532.4 288.1 544.2C288.1 561.9 302.4 576.2 320.1 576.2C337.8 576.2 352.1 561.9 352.1 544.2C352.1 532.4 345.7 522 336.1 516.5L336.1 487.6L376.3 515.2C377.8 527 387.9 536.2 400.1 536.2C413.4 536.2 424.1 525.5 424.1 512.2C424.1 498.9 413.4 488.2 400.1 488.2C398.1 488.2 396.2 488.4 394.4 488.9L348.9 457.6L381.6 435.1L452.4 475.4C461.1 480.3 472.2 479.5 480 472.4C489.7 463.6 513.7 440.5 535.3 408.6C556.8 376.8 577.1 334.7 577.1 288.2C577.1 206.5 515.2 157.1 487.7 139.1C479.6 133.8 469.1 134.8 462.5 141.9C456.1 148.8 455.7 158.9 460.8 166.5C474.1 186.4 481.2 209.8 481.2 233.7L481.2 244.8C481.2 296.7 455.6 345.4 412.8 374.8C384.5 394.2 359 411.8 336.1 427.5L336.1 407.7L373.3 376.7C382 369.4 384.4 357.1 379.3 347.1C378.1 344.7 376.5 341.6 374.7 337.9C408.9 318.7 432 282.1 432 240.1C432 198.1 408.9 161.5 374.7 142.3C376.5 138.6 378 135.5 379.3 133.1C384.4 123.1 382 110.8 373.3 103.5L335.4 72zM361.6 171.7C384.6 185.7 400 211.1 400 240.1C400 269.1 384.6 294.4 361.6 308.5C360.4 305.5 359.2 302.4 358 299.3C350 278.2 344 256.5 344 240.2C344 223.9 350 202.2 358 181.1C359.2 178 360.4 174.9 361.6 171.9zM278.5 308.4C255.5 294.4 240.1 269 240.1 240C240.1 211 255.5 185.7 278.5 171.6C279.7 174.6 280.9 177.7 282.1 180.8C290.1 201.9 296.1 223.6 296.1 239.9C296.1 256.2 290.1 277.9 282.1 299C280.9 302.1 279.7 305.2 278.5 308.2zM292.1 124.1L320.1 100.8L348 124.1C342.8 134.6 335.1 151.1 328.1 169.6C325.3 177.1 322.5 185.1 320.1 193.3C317.7 185.1 314.9 177.1 312.1 169.6C305.1 151.1 297.4 134.6 292.2 124.1zM312 310.4C314.8 302.9 317.6 294.9 320 286.7C322.4 294.9 325.2 302.9 328 310.4C335 328.9 342.7 345.4 347.9 355.9L320 379.2L292.1 355.9C297.3 345.4 305 328.9 312 310.4zM230.3 414.7L178.2 444.4C167.8 434.5 149.2 415.4 132.3 390.5C112.5 361.3 96 325.5 96 288.1C96 250.5 112.8 220.8 131.9 199.3C129.3 210.5 128 222.1 128 233.7L128 244.8C128 307.3 158.8 365.8 210.2 401.2L230.2 415zM430.9 401C482.4 365.6 513.1 307.1 513.1 244.6L513.1 233.5C513.1 221.9 511.8 210.3 509.2 199.1C528.3 220.6 545.1 250.3 545.1 287.9C545.1 325.3 528.6 361.1 508.8 390.3C491.9 415.3 473.3 434.4 462.9 444.2L410.8 414.5L430.8 400.7z"/></svg>