<svg xmlns="http://www.w3.org/2000/svg" viewBox="0 0 640 640"><!--! Font Awesome Pro 7.1.0 by @fontawesome - https://fontawesome.com License - https://fontawesome.com/license (Commercial License) Copyright 2025 Fonticons, Inc. --><path fill="currentColor" d="M135.8 114.5L130 119.7C67.6 175.8 32 255.8 32 339.7L32 343.9C32 383.7 64.2 415.9 104 415.9C143.8 415.9 176 383.7 176 343.9L176 339.7C176 296.6 194.3 255.5 226.3 226.7L232.1 221.4C261.7 194.8 264.1 149.3 237.5 119.7C210.9 90.1 165.4 87.7 135.8 114.3zM224.7 72.3C238.3 78.1 250.8 86.8 261.3 98.5C299.7 141.2 296.3 207 253.6 245.4L247.8 250.7C236.6 260.8 227.5 272.8 220.8 286L249.8 311.4C274.1 332.7 288 363.4 288 395.7L288 560C288 568.8 280.8 576 272 576C263.2 576 256 568.8 256 560L256 395.6C256 372.5 246 350.6 228.7 335.4L209.9 318.9C208.7 325.7 208.1 332.7 208.1 339.8L208.1 344C208.1 401.4 161.5 448 104.1 448C46.7 448 0 401.4 0 344L0 339.8C0 246.8 39.5 158.2 108.6 96L108.6 96L114.4 90.7C145.4 62.8 188.6 57 224.7 72.3zM378.7 98.5C417.1 55.8 482.9 52.3 525.6 90.8L531.4 96.1C600.5 158.2 640 246.8 640 339.8L640 344C640 401.4 593.4 448 536 448C478.6 448 432 401.4 432 344L432 339.8C432 332.7 431.4 325.7 430.2 318.9L411.4 335.4C394 350.5 384 372.5 384 395.6L384 560C384 568.8 376.8 576 368 576C359.2 576 352 568.8 352 560L352 395.6C352 363.3 365.9 332.6 390.2 311.3L419.2 285.9C412.6 272.7 403.5 260.7 392.2 250.6L386.4 245.3C343.7 206.9 340.2 141.1 378.7 98.4zM402.5 119.9C375.9 149.5 378.3 195 407.9 221.6L413.7 226.9C445.7 255.7 464 296.8 464 339.9L464 344.1C464 383.9 496.2 416.1 536 416.1C575.8 416.1 608 383.9 608 344.1L608 339.9C608 256 572.4 176 510 119.9L504.2 114.6C474.6 88 429.1 90.4 402.5 120z"/></svg>