<svg xmlns="http://www.w3.org/2000/svg" viewBox="0 0 640 640"><!--! Font Awesome Pro 7.1.0 by @fontawesome - https://fontawesome.com License - https://fontawesome.com/license (Commercial License) Copyright 2025 Fonticons, Inc. --><path fill="currentColor" d="M208 96C216.8 96 224 103.2 224 112L224 286.4L453.9 99.6C460.8 94 470.8 95.1 476.4 101.9C482 108.7 480.9 118.8 474.1 124.4L253.1 304L496 304C504.8 304 512 311.2 512 320C512 328.8 504.8 336 496 336L253.1 336L474.1 515.6C481 521.2 482 531.2 476.4 538.1C470.8 545 460.7 546 453.9 540.4L224 353.6L224 529C224 537.8 216.8 545 208 545C199.2 545 192 537.8 192 529L192 336L144 336C135.2 336 128 328.8 128 320C128 311.2 135.2 304 144 304L192 304L192 112C192 103.2 199.2 96 208 96z"/></svg>