<svg xmlns="http://www.w3.org/2000/svg" viewBox="0 0 640 640"><!--! Font Awesome Pro 7.1.0 by @fontawesome - https://fontawesome.com License - https://fontawesome.com/license (Commercial License) Copyright 2025 Fonticons, Inc. --><path fill="currentColor" d="M544 320C544 196.3 443.7 96 320 96C196.3 96 96 196.3 96 320C96 443.7 196.3 544 320 544C443.7 544 544 443.7 544 320zM64 320C64 178.6 178.6 64 320 64C461.4 64 576 178.6 576 320C576 461.4 461.4 576 320 576C178.6 576 64 461.4 64 320zM304 352C304 343.2 311.2 336 320 336L336 336C362.5 336 384 357.5 384 384C384 396.3 379.4 407.5 371.8 416C379.4 424.5 384 435.7 384 448C384 474.5 362.5 496 336 496L320 496C311.2 496 304 488.8 304 480C304 471.2 311.2 464 320 464L336 464C344.8 464 352 456.8 352 448C352 439.2 344.8 432 336 432L320 432C311.2 432 304 424.8 304 416C304 407.2 311.2 400 320 400L336 400C344.8 400 352 392.8 352 384C352 375.2 344.8 368 336 368L320 368C311.2 368 304 360.8 304 352zM240 248C222.3 248 208 262.3 208 280C208 288.8 200.8 296 192 296C183.2 296 176 288.8 176 280C176 244.7 204.7 216 240 216C275.3 216 304 244.7 304 280C304 288.8 296.8 296 288 296C279.2 296 272 288.8 272 280C272 262.3 257.7 248 240 248zM368 280C368 288.8 360.8 296 352 296C343.2 296 336 288.8 336 280C336 244.7 364.7 216 400 216C435.3 216 464 244.7 464 280C464 288.8 456.8 296 448 296C439.2 296 432 288.8 432 280C432 262.3 417.7 248 400 248C382.3 248 368 262.3 368 280z"/></svg>