<svg xmlns="http://www.w3.org/2000/svg" viewBox="0 0 640 640"><!--! Font Awesome Pro 7.1.0 by @fontawesome - https://fontawesome.com License - https://fontawesome.com/license (Commercial License) Copyright 2025 Fonticons, Inc. --><path fill="currentColor" d="M179.6 480L460.5 480L460.5 160L179.6 160L179.6 480zM147.6 480L147.6 160L128 160C110.3 160 96 174.3 96 192L96 448C96 465.7 110.3 480 128 480L147.6 480zM128 128L512 128C547.3 128 576 156.7 576 192L576 448C576 483.3 547.3 512 512 512L128 512C92.7 512 64 483.3 64 448L64 192C64 156.7 92.7 128 128 128zM492.4 480L512 480C529.7 480 544 465.7 544 448L544 192C544 174.3 529.7 160 512 160L492.4 160L492.4 480zM304 224L336 224C353.7 224 368 238.3 368 256L368 272L384 272C401.7 272 416 286.3 416 304L416 336C416 353.7 401.7 368 384 368L368 368L368 384C368 401.7 353.7 416 336 416L304 416C286.3 416 272 401.7 272 384L272 368L256 368C238.3 368 224 353.7 224 336L224 304C224 286.3 238.3 272 256 272L272 272L272 256C272 238.3 286.3 224 304 224zM336 360L336 344C336 339.6 339.6 336 344 336L384 336L384 304L344 304C339.6 304 336 300.4 336 296L336 256L304 256L304 296C304 300.4 300.4 304 296 304L256 304L256 336L296 336C300.4 336 304 339.6 304 344L304 384L336 384L336 360z"/></svg>