<svg xmlns="http://www.w3.org/2000/svg" viewBox="0 0 640 640"><!--! Font Awesome Pro 7.1.0 by @fontawesome - https://fontawesome.com License - https://fontawesome.com/license (Commercial License) Copyright 2025 Fonticons, Inc. --><path fill="currentColor" d="M564.9 64.2C589.1 66.7 608 87.1 608 112L608 340.8C608 364.3 590.9 384.4 567.7 388.2L255.6 438.9L136.3 558.3C130.1 564.5 121.7 568 113 568C94.8 568 80 553.2 80 535L80 375.6L21.9 398.9C17 400.9 11.4 400.3 7 397.3C2.6 394.3 0 389.3 0 384L0 288C0 282.7 2.6 277.7 7 274.8C11.4 271.9 17 271.2 21.9 273.2L80 296.4L80 256C80 238.3 65.7 224 48 224L16 224C7.2 224 0 216.8 0 208C0 199.2 7.2 192 16 192L48 192C83.3 192 112 220.7 112 256L112 296.4L170.1 273.2L172 272.6C176.4 271.4 181.2 272.2 185 274.8C189.4 277.8 192 282.7 192 288L192 384C192 389.3 189.4 394.3 185 397.3C180.6 400.3 175 400.9 170.1 398.9L112 375.6L112 535C112 535.5 112.4 536 113 536C113.3 536 113.5 535.9 113.7 535.7L233 416.3L283.8 104.3C287.6 81.1 307.7 64 331.2 64L560 64L564.9 64.2zM294.4 400.2L551.7 358.3L444 250.6L294.4 400.2zM271.7 377.7L421.4 228L313.6 120.3L271.7 377.7zM32 360.4L80 341.2L80 330.9L32 311.7L32 360.5zM112 330.8L112 341.1L160 360.3L160 311.5L112 330.7zM466.6 228L576 337.4L576 118.6L466.6 228zM444 205.4L553.4 96L334.6 96L444 205.4z"/></svg>