<svg xmlns="http://www.w3.org/2000/svg" viewBox="0 0 640 640"><!--! Font Awesome Pro 7.1.0 by @fontawesome - https://fontawesome.com License - https://fontawesome.com/license (Commercial License) Copyright 2025 Fonticons, Inc. --><path fill="currentColor" d="M512 240C512 214.8 496.1 187.6 461.1 165.1C426.5 142.8 376.7 128 320 128C263.3 128 213.6 142.8 178.9 165.1C143.9 187.6 128 214.8 128 240C128 265.2 143.9 292.4 178.9 314.9C213.6 337.2 263.4 352 320 352C376.6 352 426.4 337.2 461.1 314.9C496.1 292.4 512 265.2 512 240zM544 240L544 320C544 443.7 443.7 544 320 544C196.3 544 96 443.7 96 320L96 240C96 160.5 196.3 96 320 96C443.7 96 544 160.5 544 240zM512 314.2C472.8 356 401.5 384 320 384C238.5 384 167.2 356 128 314.2L128 320C128 426 214 512 320 512C426 512 512 426 512 320L512 314.2zM376 240C376 253.3 350.9 264 320 264C289.1 264 264 253.3 264 240C264 226.7 289.1 216 320 216C350.9 216 376 226.7 376 240zM336 152L336 176C336 184.8 328.8 192 320 192C311.2 192 304 184.8 304 176L304 152C304 143.2 311.2 136 320 136C328.8 136 336 143.2 336 152zM251.3 164.7L267.3 180.7C273.5 186.9 273.5 197.1 267.3 203.3C261.1 209.5 250.9 209.5 244.7 203.3L228.7 187.3C222.5 181.1 222.5 170.9 228.7 164.7C234.9 158.5 245.1 158.5 251.3 164.7zM411.3 164.7C417.5 170.9 417.5 181.1 411.3 187.3L395.3 203.3C389.1 209.5 378.9 209.5 372.7 203.3C366.5 197.1 366.5 186.9 372.7 180.7L388.7 164.7C394.9 158.5 405.1 158.5 411.3 164.7zM192 224L224 224C232.8 224 240 231.2 240 240C240 248.8 232.8 256 224 256L192 256C183.2 256 176 248.8 176 240C176 231.2 183.2 224 192 224zM416 224L448 224C456.8 224 464 231.2 464 240C464 248.8 456.8 256 448 256L416 256C407.2 256 400 248.8 400 240C400 231.2 407.2 224 416 224zM267.3 299.3L251.3 315.3C245.1 321.5 234.9 321.5 228.7 315.3C222.5 309.1 222.5 298.9 228.7 292.7L244.7 276.7C250.9 270.5 261.1 270.5 267.3 276.7C273.5 282.9 273.5 293.1 267.3 299.3zM395.3 276.7L411.3 292.7C417.5 298.9 417.5 309.1 411.3 315.3C405.1 321.5 394.9 321.5 388.7 315.3L372.7 299.3C366.5 293.1 366.5 282.9 372.7 276.7C378.9 270.5 389.1 270.5 395.3 276.7zM336 304L336 328C336 336.8 328.8 344 320 344C311.2 344 304 336.8 304 328L304 304C304 295.2 311.2 288 320 288C328.8 288 336 295.2 336 304z"/></svg>