<svg xmlns="http://www.w3.org/2000/svg" viewBox="0 0 640 640"><!--! Font Awesome Pro 7.1.0 by @fontawesome - https://fontawesome.com License - https://fontawesome.com/license (Commercial License) Copyright 2025 Fonticons, Inc. --><path fill="currentColor" d="M224 448C257.9 448 289.3 437.5 315.2 419.5C348.9 396.1 393.4 368 445.6 368L496 368C540.2 368 576 332.2 576 288C576 243.8 540.2 208 496 208L445.6 208C393.4 208 348.9 179.9 315.2 156.5C289.3 138.5 258 128 224 128C135.6 128 64 199.6 64 288C64 376.4 135.6 448 224 448zM535.3 392.9L576 466.2L576 366.3C564.6 377.9 550.8 387 535.3 392.8zM578 535.8L502.5 399.8C500.4 399.9 498.2 400 496 400L445.6 400C404.4 400 367.3 422.3 333.5 445.8C319.6 455.5 304.3 463.3 288.1 469.1L288.1 528C288.1 536.8 280.9 544 272.1 544C263.3 544 256.1 536.8 256.1 528L256.1 477.3C245.7 479 235 480 224.1 480C201.7 480 180.1 476.2 160.1 469.1L160.1 528C160.1 536.8 152.9 544 144.1 544C135.3 544 128.1 536.8 128.1 528L128.1 454.3C70.6 421.1 32 359.1 32 288C32 182 118 96 224 96C264.7 96 302.4 108.6 333.4 130.2C367.3 153.7 404.4 176 445.6 176L496 176C557.9 176 608 226.1 608 288L608 528C608 535.3 603.1 541.7 596 543.5C588.9 545.3 581.5 542.2 578 535.8zM480 264C493.3 264 504 274.7 504 288C504 301.3 493.3 312 480 312C466.7 312 456 301.3 456 288C456 274.7 466.7 264 480 264z"/></svg>