<svg xmlns="http://www.w3.org/2000/svg" viewBox="0 0 640 640"><!--! Font Awesome Pro 7.1.0 by @fontawesome - https://fontawesome.com License - https://fontawesome.com/license (Commercial License) Copyright 2025 Fonticons, Inc. --><path fill="currentColor" d="M517.7 97L342.7 272L418.9 348.2L463.9 323.2C469 320.4 472.1 315 472.1 309.2L472.1 277.3C472.1 264.6 477.2 252.4 486.2 243.4L575.2 154.4C575.8 153.8 576.2 152.9 576.2 152.1C576.2 151.3 575.9 150.4 575.2 149.8L522.3 97C521.7 96.4 520.8 96 520 96C519.2 96 518.3 96.3 517.7 97zM520 64C529.4 64 538.3 67.7 545 74.3L597.7 127C604.3 133.6 608 142.6 608 152C608 161.4 604.3 170.3 597.7 177L508.7 266C505.7 269 504 273.1 504 277.3L504 309.2C504 326.6 494.6 342.7 479.3 351.2L434.3 376.2C421.8 383.1 406.2 381 396.1 370.9L320 294.6C307.5 282.1 307.5 261.8 320 249.3L495 74.3C501.7 67.7 510.6 64 520 64zM36.7 532.7L274.7 294.6L297.4 317.3L78.6 536C100.3 541.1 122.5 544 144 544C243.8 544 309.6 504.1 376.5 441.6L367.5 432.6C355 420.1 355 399.9 367.5 387.4L400.5 420.4C412 433 411.8 452.6 399.2 464.3C328.7 530.4 255.3 576.1 144.1 576.1C110.2 576.1 75.5 569.8 43.3 559.3C32.2 555.6 28.5 541.1 36.8 532.7zM448 208C448 199.2 455.2 192 464 192C472.8 192 480 199.2 480 208C480 216.8 472.8 224 464 224C455.2 224 448 216.8 448 208zM512 144C520.8 144 528 151.2 528 160C528 168.8 520.8 176 512 176C503.2 176 496 168.8 496 160C496 151.2 503.2 144 512 144z"/></svg>