<svg xmlns="http://www.w3.org/2000/svg" viewBox="0 0 640 640"><!--! Font Awesome Pro 7.1.0 by @fontawesome - https://fontawesome.com License - https://fontawesome.com/license (Commercial License) Copyright 2025 Fonticons, Inc. --><path fill="currentColor" d="M516.8 100.7C523 94.5 533.2 94.5 539.4 100.7L540.2 101.5C590.2 151.5 590.2 232.5 540.2 282.5L402.1 420.7C383.4 439.4 353 439.4 334.2 420.7L288.1 374.6L91.4 571.3C85.2 577.5 75 577.5 68.8 571.3C62.6 565.1 62.6 554.9 68.8 548.7L516.8 100.7zM310.7 352L356.8 398.1C363 404.3 373.2 404.3 379.4 398.1L517.6 259.9C551.5 226 554.7 173 527.3 135.5L310.7 352z"/></svg>