<svg xmlns="http://www.w3.org/2000/svg" viewBox="0 0 640 640"><!--! Font Awesome Pro 7.1.0 by @fontawesome - https://fontawesome.com License - https://fontawesome.com/license (Commercial License) Copyright 2025 Fonticons, Inc. --><path fill="currentColor" d="M111.3 107.3C108.7 98.9 99.7 94.1 91.3 96.7C82.9 99.3 78.1 108.3 80.7 116.7L143.3 320L96 320C87.2 320 80 327.2 80 336C80 344.8 87.2 352 96 352L153.1 352L208.7 532.7C210.8 539.6 217.3 544.2 224.6 544C231.9 543.8 238 538.7 239.6 531.6L281 352L359 352L400.4 531.6C402 538.6 408.2 543.7 415.4 544C422.6 544.3 429.1 539.6 431.3 532.7L486.9 352L544 352C552.8 352 560 344.8 560 336C560 327.2 552.8 320 544 320L496.7 320L559.3 116.7C561.9 108.3 557.2 99.3 548.7 96.7C540.2 94.1 531.3 98.8 528.7 107.3L463.3 320L384.5 320L335.7 108.4C333.9 101.1 327.5 96 320 96C312.5 96 306.1 101.1 304.4 108.4L255.6 320L176.7 320L111.3 107.3zM186.6 352L248.2 352L221.8 466.4L186.6 352zM288.4 320L320 183.2L351.6 320L288.4 320zM391.8 352L453.4 352L418.2 466.4L391.8 352z"/></svg>