<svg xmlns="http://www.w3.org/2000/svg" viewBox="0 0 640 640"><!--! Font Awesome Pro 7.1.0 by @fontawesome - https://fontawesome.com License - https://fontawesome.com/license (Commercial License) Copyright 2025 Fonticons, Inc. --><path fill="currentColor" d="M528 608C483.8 608 448 572.2 448 528C448 483.8 483.8 448 528 448C572.2 448 608 483.8 608 528C608 572.2 572.2 608 528 608zM432.8 32C529.5 32 608 110.5 608 207.2L607.6 216.9C603.8 264.8 571.7 306.3 525.5 321.7L496.9 331.2C483.7 335.6 471.4 342.1 460.2 350.4L455.5 354.1L411.5 390.1C391 406.9 365.3 416.1 338.8 416.1C312.9 416.1 288.9 407.5 269.7 393L75.3 587.3C69.1 593.5 58.9 593.5 52.7 587.3C46.5 581.1 46.5 570.9 52.7 564.7L247.1 370.2C232.6 351 224 327.1 224 301.1C224 274.6 233.2 248.9 250 228.4L286 184.4L289.7 179.7C298 168.6 304.5 156.2 308.9 143L318.4 114.4C334.7 65.2 380.8 32 432.8 32zM528 480C501.5 480 480 501.5 480 528C480 554.5 501.5 576 528 576C554.5 576 576 554.5 576 528C576 501.5 554.5 480 528 480zM432.8 64C394.6 64 360.8 88.4 348.7 124.6L339.2 153.2C333.7 169.6 325.7 185 315.4 198.9L310.8 204.7L274.8 248.7C262.7 263.5 256.1 282 256.1 301.1C256.1 346.8 293.2 383.9 338.9 383.9C358 383.9 376.5 377.3 391.3 365.2L435.3 329.2L441.1 324.6C454.9 314.3 470.4 306.3 486.8 300.8L515.4 291.3C549.3 280 572.9 249.5 575.7 214.3L576 207.2C576 128.1 511.9 64 432.8 64z"/></svg>