<svg xmlns="http://www.w3.org/2000/svg" viewBox="0 0 640 640"><!--! Font Awesome Pro 7.1.0 by @fontawesome - https://fontawesome.com License - https://fontawesome.com/license (Commercial License) Copyright 2025 Fonticons, Inc. --><path fill="currentColor" d="M112 96C103.2 96 96 103.2 96 112C96 120.8 103.2 128 112 128L235.5 128C241.7 128 247.4 131.6 250 137.3L257.4 153.3L97.3 521.6C93.8 529.7 97.5 539.1 105.6 542.7C113.7 546.3 123.1 542.5 126.7 534.4L275.4 192.3L424.9 516.1C432.7 533.1 449.8 544 468.5 544L528 544C536.8 544 544 536.8 544 528C544 519.2 536.8 512 528 512L468.5 512C462.3 512 456.6 508.4 454 502.7L279.1 123.9C271.3 106.9 254.2 96 235.5 96L112 96z"/></svg>