<svg xmlns="http://www.w3.org/2000/svg" viewBox="0 0 640 640"><!--! Font Awesome Pro 7.1.0 by @fontawesome - https://fontawesome.com License - https://fontawesome.com/license (Commercial License) Copyright 2025 Fonticons, Inc. --><path fill="currentColor" d="M224 96L160 256L480 256L416 96L224 96zM194.3 84.1C199.1 72 210.9 64 224 64L416 64C429.1 64 440.9 72 445.7 84.1L509.7 244.1C513.6 254 512.4 265.1 506.5 273.9C500.6 282.7 490.6 288 480 288L336 288L336 544L432 544C440.8 544 448 551.2 448 560C448 568.8 440.8 576 432 576L208 576C199.2 576 192 568.8 192 560C192 551.2 199.2 544 208 544L304 544L304 288L160 288C149.4 288 139.5 282.7 133.5 273.9C127.5 265.1 126.3 253.9 130.3 244.1L194.3 84.1z"/></svg>