<svg xmlns="http://www.w3.org/2000/svg" viewBox="0 0 640 640"><!--! Font Awesome Pro 7.1.0 by @fontawesome - https://fontawesome.com License - https://fontawesome.com/license (Commercial License) Copyright 2025 Fonticons, Inc. --><path fill="currentColor" d="M101.4 337.8C95.5 328.9 94.4 317.6 98.5 307.7L178.5 115.7C183.4 103.8 195.1 96 208 96L432 96C444.9 96 456.6 103.8 461.5 115.7L541.5 307.7C545.6 317.6 544.5 328.9 538.6 337.8C532.7 346.7 522.7 352 512 352L400 352L400 380.1C429.3 403.6 448 439.6 448 480C448 518.2 431.2 552.5 404.7 576L235.4 576C208.8 552.5 192.1 518.2 192.1 480C192.1 439.6 210.8 403.5 240.1 380.1L240.1 352L128.1 352C117.4 352 107.4 346.7 101.5 337.8zM240 320L512 320L432 128L208 128L128 320L240 320zM272 352L272 395.4L260 405C238 422.6 224 449.7 224 480C224 504.6 233.2 527 248.4 544L391.5 544C406.7 527 415.9 504.6 415.9 480C415.9 449.7 401.9 422.7 379.9 405L367.9 395.4L367.9 352L271.9 352z"/></svg>