<svg xmlns="http://www.w3.org/2000/svg" viewBox="0 0 640 640"><!--! Font Awesome Pro 7.1.0 by @fontawesome - https://fontawesome.com License - https://fontawesome.com/license (Commercial License) Copyright 2025 Fonticons, Inc. --><path fill="currentColor" d="M371.3 92.7C338.5 59.9 285.4 59.9 252.7 92.7C220 125.5 219.9 178.6 252.7 211.3L265.4 224L180.7 308.7C176.7 312.7 175.1 318.6 176.6 324.1L235.2 544L80 544C71.2 544 64 551.2 64 560C64 568.8 71.2 576 80 576L432 576C440.8 576 448 568.8 448 560C448 551.2 440.8 544 432 544L268.3 544L209.8 324.8L288 246.6L288 388.7C288 403.8 300.2 416 315.3 416C322.5 416 329.5 413.1 334.6 408L568 174.6C573.1 169.5 576 162.5 576 155.3C576 140.2 563.8 128 548.7 128L406.6 128L371.3 92.7zM275.3 115.3C295.6 95 328.4 95 348.7 115.3L388.7 155.3C391.7 158.3 395.8 160 400 160L537.4 160L320 377.4L320 240C320 235.8 318.3 231.7 315.3 228.7L275.3 188.7C255 168.4 255 135.6 275.3 115.3z"/></svg>