<svg xmlns="http://www.w3.org/2000/svg" viewBox="0 0 640 640"><!--! Font Awesome Pro 7.1.0 by @fontawesome - https://fontawesome.com License - https://fontawesome.com/license (Commercial License) Copyright 2025 Fonticons, Inc. --><path fill="currentColor" d="M448 351.9C459 351.4 469.7 349.8 480 347.3L480 464L496 464C504.8 464 512 471.2 512 480C512 488.8 504.8 496 496 496L80 496C71.2 496 64 488.8 64 480C64 471.2 71.2 464 80 464L96 464L96 272L64 272C49.8 272 37.3 262.6 33.3 249C29.3 235.4 34.8 220.7 46.7 213.1L270.7 69.1C281.2 62.3 294.8 62.3 305.3 69.1L313 74.1C306 82.2 299.8 90.9 294.4 100.2L288 96L64 240L281.5 240C285.5 251.3 290.6 262 296.8 272L240 272L240 464L336 464L336 316C345.8 323.8 356.6 330.5 368 335.9L368 464L448 464L448 351.9zM128 272L128 464L208 464L208 272L128 272zM32 560C32 551.2 39.2 544 48 544L528 544C536.8 544 544 551.2 544 560C544 568.8 536.8 576 528 576L48 576C39.2 576 32 568.8 32 560zM440 272.1C488.6 272.1 528 232.7 528 184.1C528 135.5 488.6 96.1 440 96.1C391.4 96.1 352 135.5 352 184.1C352 232.7 391.4 272.1 440 272.1zM440 304.1C373.7 304.1 320 250.4 320 184.1C320 117.8 373.7 64.1 440 64.1C506.3 64.1 560 117.8 560 184.1C560 211.4 550.9 236.7 535.4 256.8L603.3 324.8C609.5 331.1 609.5 341.2 603.3 347.4C597.1 353.6 586.9 353.6 580.7 347.4L512.9 279.5C492.7 294.9 467.5 304.1 440.1 304.1z"/></svg>