<svg xmlns="http://www.w3.org/2000/svg" viewBox="0 0 640 640"><!--! Font Awesome Pro 7.1.0 by @fontawesome - https://fontawesome.com License - https://fontawesome.com/license (Commercial License) Copyright 2025 Fonticons, Inc. --><path fill="currentColor" d="M561.3 213.1C573.2 220.8 578.7 235.4 574.7 249C570.7 262.6 558.2 272 544 272L512 272L512 464L528 464C536.8 464 544 471.2 544 480C544 488.8 536.8 496 528 496L112 496C103.2 496 96 488.8 96 480C96 471.2 103.2 464 112 464L128 464L128 272L96 272C81.8 272 69.3 262.6 65.3 249C61.3 235.4 66.8 220.7 78.7 213.1L302.7 69.1C313.2 62.3 326.8 62.3 337.3 69.1L561.3 213.1zM160 272L160 464L240 464L240 272L160 272zM272 272L272 464L368 464L368 272L272 272zM400 272L400 464L480 464L480 272L400 272zM96 240L544 240L320 96L96 240zM64 560C64 551.2 71.2 544 80 544L560 544C568.8 544 576 551.2 576 560C576 568.8 568.8 576 560 576L80 576C71.2 576 64 568.8 64 560z"/></svg>