<svg xmlns="http://www.w3.org/2000/svg" viewBox="0 0 640 640"><!--! Font Awesome Pro 7.1.0 by @fontawesome - https://fontawesome.com License - https://fontawesome.com/license (Commercial License) Copyright 2025 Fonticons, Inc. --><path fill="currentColor" d="M320 64C328.8 64 336 71.2 336 80L336 96.7C434.6 104.8 512 187.4 512 288L528 288C536.8 288 544 295.2 544 304C544 312.8 536.8 320 528 320L512 320L512 464L528 464C536.8 464 544 471.2 544 480C544 488.8 536.8 496 528 496L112 496C103.2 496 96 488.8 96 480C96 471.2 103.2 464 112 464L128 464L128 320L112 320C103.2 320 96 312.8 96 304C96 295.2 103.2 288 112 288L128 288C128 187.3 205.4 104.8 304 96.7L304 80C304 71.2 311.2 64 320 64zM160 288L480 288C480 199.6 408.4 128 320 128C231.6 128 160 199.6 160 288zM160 320L160 464L240 464L240 320L160 320zM272 320L272 464L368 464L368 320L272 320zM400 320L400 464L480 464L480 320L400 320zM64 560C64 551.2 71.2 544 80 544L560 544C568.8 544 576 551.2 576 560C576 568.8 568.8 576 560 576L80 576C71.2 576 64 568.8 64 560z"/></svg>