<svg xmlns="http://www.w3.org/2000/svg" viewBox="0 0 640 640"><!--! Font Awesome Pro 7.1.0 by @fontawesome - https://fontawesome.com License - https://fontawesome.com/license (Commercial License) Copyright 2025 Fonticons, Inc. --><path fill="currentColor" d="M336 64C336 55.2 328.8 48 320 48C311.2 48 304 55.2 304 64L304 192C304 200.8 311.2 208 320 208C328.8 208 336 200.8 336 192L336 64zM416 416L224 416L224 352L416 352L416 416zM192 352L192 416L112 416C85.5 416 64 437.5 64 464L64 528C64 554.5 85.5 576 112 576L528 576C554.5 576 576 554.5 576 528L576 464C576 437.5 554.5 416 528 416L448 416L448 352C448 334.3 433.7 320 416 320L224 320C206.3 320 192 334.3 192 352zM416 448L528 448C536.8 448 544 455.2 544 464L544 528C544 536.8 536.8 544 528 544L112 544C103.2 544 96 536.8 96 528L96 464C96 455.2 103.2 448 112 448L416 448zM50.7 183.1C45.8 190.5 47.8 200.4 55.1 205.3L151.1 269.3C158.5 274.2 168.4 272.2 173.3 264.9C178.2 257.6 176.2 247.6 168.9 242.7L72.9 178.7C65.5 173.8 55.6 175.8 50.7 183.1zM567.1 178.7L471.1 242.7C463.7 247.6 461.8 257.5 466.7 264.9C471.6 272.3 481.5 274.2 488.9 269.3L584.9 205.3C592.3 200.4 594.2 190.5 589.3 183.1C584.4 175.7 574.5 173.8 567.1 178.7z"/></svg>