<svg xmlns="http://www.w3.org/2000/svg" viewBox="0 0 640 640"><!--! Font Awesome Pro 7.1.0 by @fontawesome - https://fontawesome.com License - https://fontawesome.com/license (Commercial License) Copyright 2025 Fonticons, Inc. --><path fill="currentColor" d="M176 64C184.8 64 192 71.2 192 80L192 160L368 160C376.8 160 384 167.2 384 176C384 184.8 376.8 192 368 192L346.6 192L330.9 228.6C308.9 279.9 275.7 325.2 234.2 361.3C248.2 370.8 263 379.4 278.4 386.8L278.5 386.8L349.1 420.9L433.4 233.5C436 227.8 441.7 224.1 448 224.1C454.3 224.1 460 227.8 462.6 233.5L606.6 553.5C610.2 561.6 606.6 571 598.6 574.7C590.6 578.4 581.1 574.7 577.4 566.7L538.4 480.1L357.5 480.1L318.5 566.7C314.9 574.8 305.4 578.4 297.3 574.7C289.2 571 285.6 561.6 289.3 553.5L335.8 450.1L264.4 415.7L264.4 415.7C244.5 406.2 225.5 394.9 207.8 382.1C190.1 394.9 171.2 406.1 151.2 415.7L86.9 446.4C78.9 450.2 69.4 446.8 65.6 438.9C61.8 431 65.2 421.4 73.1 417.6L137.6 386.7C153.1 379.3 167.8 370.8 181.8 361.2C150.1 333.6 123.2 300.7 102.5 263.8C98.2 256.1 100.9 246.3 108.6 242C116.3 237.7 126.1 240.4 130.4 248.1C150.4 283.8 176.8 315.4 208 341.4C248.3 307.7 280.5 264.8 301.5 215.9L311.8 191.9L48.1 191.9C39.3 191.9 32.1 184.7 32.1 175.9C32.1 167.1 39.2 160 48 160L160 160L160 80C160 71.2 167.2 64 176 64zM524.1 448L448 279L372 448L524.1 448z"/></svg>