<svg xmlns="http://www.w3.org/2000/svg" viewBox="0 0 640 640"><!--! Font Awesome Pro 7.1.0 by @fontawesome - https://fontawesome.com License - https://fontawesome.com/license (Commercial License) Copyright 2025 Fonticons, Inc. --><path fill="currentColor" d="M59.3 36.8C53.1 30.6 42.9 30.6 36.7 36.8C30.5 43 30.5 53.2 36.7 59.4L580.7 603.4C586.9 609.6 597.1 609.6 603.3 603.4C609.5 597.2 609.5 587 603.3 580.8L565.6 543.1C607.7 536.9 640 500.7 640 456.9C640 443.2 628.9 432 615.1 432L454.5 432L150.5 128L512 128C529.7 128 544 142.3 544 160L544 384L576 384L576 160C576 124.7 547.3 96 512 96L128 96C125 96 122 96.2 119.1 96.6L59.3 36.8zM486.5 464L607.5 464C604 491.1 580.9 512 552.8 512L534.4 512L486.4 464zM64 160L64 384L96 384L96 186.5L64.2 154.7C64.1 156.4 64 158.2 64 160zM24.9 432C11.1 432 0 443.1 0 456.9C0 505 39 544 87.1 544L453.5 544L421.5 512L87.1 512C59.1 512 35.9 491.1 32.4 464L373.4 464L341.4 432L24.8 432z"/></svg>