<svg xmlns="http://www.w3.org/2000/svg" viewBox="0 0 640 640"><!--! Font Awesome Pro 7.1.0 by @fontawesome - https://fontawesome.com License - https://fontawesome.com/license (Commercial License) Copyright 2025 Fonticons, Inc. --><path fill="currentColor" d="M128 128C128 110.3 142.3 96 160 96L448 96C465.7 96 480 110.3 480 128L480 176L512 176L512 128C512 92.7 483.3 64 448 64L160 64C124.7 64 96 92.7 96 128L96 304L54.4 304C42 304 32 314 32 326.4C32 375.9 72.1 416 121.6 416L272 416L272 384L121.6 384C93.1 384 69.4 363.2 64.8 336L272 336L272 304L128 304L128 128zM544 384L544 528C544 536.8 536.8 544 528 544L368 544C359.2 544 352 536.8 352 528L352 272C352 263.2 359.2 256 368 256L444.1 256C445.4 256 446.7 256.2 448 256.5L448 336C448 362.5 469.5 384 496 384L544 384zM480 285.3L539.3 344.6C541.4 346.7 542.8 349.2 543.5 352L496 352C487.2 352 480 344.8 480 336L480 285.3zM368 224C341.5 224 320 245.5 320 272L320 528C320 554.5 341.5 576 368 576L528 576C554.5 576 576 554.5 576 528L576 355.9C576 343.2 570.9 331 561.9 322L478 238.1C469 229.1 456.8 224 444.1 224L368 224z"/></svg>