<svg xmlns="http://www.w3.org/2000/svg" viewBox="0 0 640 640"><!--! Font Awesome Pro 7.1.0 by @fontawesome - https://fontawesome.com License - https://fontawesome.com/license (Commercial License) Copyright 2025 Fonticons, Inc. --><path fill="currentColor" d="M128 128L512 128C529.7 128 544 142.3 544 160L544 384L576 384L576 160C576 124.7 547.3 96 512 96L128 96C92.7 96 64 124.7 64 160L64 384L96 384L96 160C96 142.3 110.3 128 128 128zM32.5 464L607.6 464C604.1 491.1 581 512 552.9 512L87.1 512C59.1 512 35.9 491.1 32.4 464zM24.9 432C11.1 432 0 443.1 0 456.9C0 505 39 544 87.1 544L552.9 544C601 544 640 505 640 456.9C640 443.2 628.9 432 615.1 432L24.9 432zM200 192C177.9 192 160 209.9 160 232L160 264C160 286.1 177.9 304 200 304L216 304C238.1 304 256 286.1 256 264L256 232C256 209.9 238.1 192 216 192L200 192zM192 232C192 227.6 195.6 224 200 224L216 224C220.4 224 224 227.6 224 232L224 264C224 268.4 220.4 272 216 272L200 272C195.6 272 192 268.4 192 264L192 232zM304 192C295.2 192 288 199.2 288 208C288 216.8 295.2 224 304 224L304 288C304 296.8 311.2 304 320 304C328.8 304 336 296.8 336 288L336 208C336 199.2 328.8 192 320 192L304 192zM384 232L384 264C384 286.1 401.9 304 424 304L440 304C462.1 304 480 286.1 480 264L480 232C480 209.9 462.1 192 440 192L424 192C401.9 192 384 209.9 384 232zM424 224L440 224C444.4 224 448 227.6 448 232L448 264C448 268.4 444.4 272 440 272L424 272C419.6 272 416 268.4 416 264L416 232C416 227.6 419.6 224 424 224zM192 336C183.2 336 176 343.2 176 352C176 360.8 183.2 368 192 368L192 384L224 384L224 352C224 343.2 216.8 336 208 336L192 336zM432 336L416 336C407.2 336 400 343.2 400 352C400 360.8 407.2 368 416 368L416 384L448 384L448 352C448 343.2 440.8 336 432 336zM368 376C368 353.9 350.1 336 328 336L312 336C289.9 336 272 353.9 272 376L272 384L304 384L304 376C304 371.6 307.6 368 312 368L328 368C332.4 368 336 371.6 336 376L336 384L368 384L368 376z"/></svg>