<svg xmlns="http://www.w3.org/2000/svg" viewBox="0 0 640 640"><!--! Font Awesome Pro 7.1.0 by @fontawesome - https://fontawesome.com License - https://fontawesome.com/license (Commercial License) Copyright 2025 Fonticons, Inc. --><path fill="currentColor" d="M128 128L512 128C529.7 128 544 142.3 544 160L544 384L576 384L576 160C576 124.7 547.3 96 512 96L128 96C92.7 96 64 124.7 64 160L64 384L96 384L96 160C96 142.3 110.3 128 128 128zM32.5 464L607.6 464C604.1 491.1 581 512 552.9 512L87.1 512C59.1 512 35.9 491.1 32.4 464zM24.9 432C11.1 432 0 443.1 0 456.9C0 505 39 544 87.1 544L552.9 544C601 544 640 505 640 456.9C640 443.2 628.9 432 615.1 432L24.9 432zM283.3 219.3C289.5 213.1 289.5 202.9 283.3 196.7C277.1 190.5 266.9 190.5 260.7 196.7L196.7 260.7C190.5 266.9 190.5 277.1 196.7 283.3L260.7 347.3C266.9 353.5 277.1 353.5 283.3 347.3C289.5 341.1 289.5 330.9 283.3 324.7L230.6 272L283.3 219.3zM379.3 196.7C373.1 190.5 362.9 190.5 356.7 196.7C350.5 202.9 350.5 213.1 356.7 219.3L409.4 272L356.7 324.7C350.5 330.9 350.5 341.1 356.7 347.3C362.9 353.5 373.1 353.5 379.3 347.3L443.3 283.3C449.5 277.1 449.5 266.9 443.3 260.7L379.3 196.7z"/></svg>