<svg xmlns="http://www.w3.org/2000/svg" viewBox="0 0 640 640"><!--! Font Awesome Pro 7.1.0 by @fontawesome - https://fontawesome.com License - https://fontawesome.com/license (Commercial License) Copyright 2025 Fonticons, Inc. --><path fill="currentColor" d="M336 80L336 297.4L388.7 244.7C394.9 238.5 405.1 238.5 411.3 244.7C417.5 250.9 417.5 261.1 411.3 267.3L331.3 347.3C325.1 353.5 314.9 353.5 308.7 347.3L228.7 267.3C222.5 261.1 222.5 250.9 228.7 244.7C234.9 238.5 245.1 238.5 251.3 244.7L304 297.4L304 80C304 71.2 311.2 64 320 64C328.8 64 336 71.2 336 80zM128 96L256 96L256 128L128 128C110.3 128 96 142.3 96 160L96 384L64 384L64 160C64 124.7 92.7 96 128 96zM512 128L384 128L384 96L512 96C547.3 96 576 124.7 576 160L576 384L544 384L544 160C544 142.3 529.7 128 512 128zM87.1 512L552.9 512C580.9 512 604.1 491.1 607.6 464L32.5 464C36 491.1 59.1 512 87.2 512zM0 456.9C0 443.1 11.1 432 24.9 432L615.1 432C628.8 432 640 443.1 640 456.9C640 505 601 544 552.9 544L87.1 544C39 544 0 505 0 456.9z"/></svg>