<svg xmlns="http://www.w3.org/2000/svg" viewBox="0 0 640 640"><!--! Font Awesome Pro 7.1.0 by @fontawesome - https://fontawesome.com License - https://fontawesome.com/license (Commercial License) Copyright 2025 Fonticons, Inc. --><path fill="currentColor" d="M128 128L512 128C529.7 128 544 142.3 544 160L544 384L576 384L576 160C576 124.7 547.3 96 512 96L128 96C92.7 96 64 124.7 64 160L64 384L96 384L96 160C96 142.3 110.3 128 128 128zM32.5 464L607.6 464C604.1 491.1 581 512 552.9 512L87.1 512C59.1 512 35.9 491.1 32.4 464zM24.9 432C11.1 432 0 443.1 0 456.9C0 505 39 544 87.1 544L552.9 544C601 544 640 505 640 456.9C640 443.2 628.9 432 615.1 432L24.9 432zM304 192C286.3 192 272 206.3 272 224L272 240L256 240C238.3 240 224 254.3 224 272L224 304C224 321.7 238.3 336 256 336L272 336L272 352C272 369.7 286.3 384 304 384L336 384C353.7 384 368 369.7 368 352L368 336L384 336C401.7 336 416 321.7 416 304L416 272C416 254.3 401.7 240 384 240L368 240L368 224C368 206.3 353.7 192 336 192L304 192zM336 328L336 352L304 352L304 312C304 307.6 300.4 304 296 304L256 304L256 272L296 272C300.4 272 304 268.4 304 264L304 224L336 224L336 264C336 268.4 339.6 272 344 272L384 272L384 304L344 304C339.6 304 336 307.6 336 312L336 328z"/></svg>