<svg xmlns="http://www.w3.org/2000/svg" viewBox="0 0 640 640"><!--! Font Awesome Pro 7.1.0 by @fontawesome - https://fontawesome.com License - https://fontawesome.com/license (Commercial License) Copyright 2025 Fonticons, Inc. --><path fill="currentColor" d="M272 64C280.8 64 288 71.2 288 80L288 130.7C298.4 129 309.1 128 320 128C330.9 128 341.6 128.9 352 130.7L352 80C352 71.2 359.2 64 368 64C376.8 64 384 71.2 384 80L384 138.9C446.8 161.1 494.7 215.1 508.2 281.6C510 290.3 504.4 298.7 495.7 300.5C487 302.3 478.6 296.7 476.8 288C466.3 236.4 431.1 193.9 384 173.3L384 304C384 312.8 376.8 320 368 320C359.2 320 352 312.8 352 304L352 163.2C341.7 161.1 331 160 320 160C309 160 298.3 161.1 288 163.2L288 304C288 312.8 280.8 320 272 320C263.2 320 256 312.8 256 304L256 173.3C199.5 198 160 254.4 160 320C160 408.4 231.6 480 320 480L496 480C504.8 480 512 487.2 512 496C512 504.8 504.8 512 496 512L144 512C135.2 512 128 504.8 128 496C128 487.2 135.2 480 144 480L213.8 480C162.1 445.6 128 386.8 128 320C128 236.4 181.4 165.3 256 138.9L256 80C256 71.2 263.2 64 272 64z"/></svg>