<svg xmlns="http://www.w3.org/2000/svg" viewBox="0 0 640 640"><!--! Font Awesome Pro 7.1.0 by @fontawesome - https://fontawesome.com License - https://fontawesome.com/license (Commercial License) Copyright 2025 Fonticons, Inc. --><path fill="currentColor" d="M368 32C359.2 32 352 39.2 352 48L352 96L304 96C295.2 96 288 103.2 288 112C288 120.8 295.2 128 304 128L352 128L352 176C352 184.8 359.2 192 368 192C376.8 192 384 184.8 384 176L384 128L432 128C440.8 128 448 120.8 448 112C448 103.2 440.8 96 432 96L384 96L384 48C384 39.2 376.8 32 368 32zM240.4 104.5C204.4 112.4 171.6 125.7 144.3 143.3C98.2 173 64 217.8 64 272C64 326.2 98.2 371.1 144.3 400.7C147.6 402.8 151 404.9 154.4 406.9L227.5 451.4C242.5 460.6 251.8 477.1 251.8 494.8C251.8 522.6 229.3 545.2 201.6 545.2C194.7 545.2 187.8 543.8 181.5 541L118.4 513.3C110.3 509.8 100.9 513.4 97.3 521.5C93.7 529.6 97.4 539 105.5 542.6L168.7 570.2C179.1 574.7 190.3 577.1 201.6 577.1C247.1 577.1 283.8 540 283.8 494.7C283.8 476.2 277.6 458.5 266.6 444.2C283.9 446.7 301.7 448 319.9 448C387 448 449.2 430.6 495.6 400.7C541.8 371 575.9 326.2 575.9 272C575.9 217.8 541.7 172.9 495.6 143.3C493.7 142 491.7 140.8 489.7 139.6C484.9 149.6 477.7 158.1 468.7 164.4C472 166.3 475.2 168.2 478.3 170.2C518.9 196.3 543.9 232.3 543.9 272C543.9 311.7 518.9 347.7 478.3 373.8C437.8 399.9 381.8 416 319.9 416C262.6 416 210.3 402.2 170.6 379.4L161.3 373.7C120.8 347.6 95.9 311.6 95.9 272C95.9 232.3 120.9 196.3 161.5 170.2C184.7 155.3 213.1 143.6 244.7 136.3C241.6 128.8 239.9 120.6 239.9 112C239.9 109.5 240 107 240.3 104.5zM528 448C519.2 448 512 455.2 512 464L512 512L464 512C455.2 512 448 519.2 448 528C448 536.8 455.2 544 464 544L512 544L512 592C512 600.8 519.2 608 528 608C536.8 608 544 600.8 544 592L544 544L592 544C600.8 544 608 536.8 608 528C608 519.2 600.8 512 592 512L544 512L544 464C544 455.2 536.8 448 528 448z"/></svg>