<svg xmlns="http://www.w3.org/2000/svg" viewBox="0 0 640 640"><!--! Font Awesome Pro 7.1.0 by @fontawesome - https://fontawesome.com License - https://fontawesome.com/license (Commercial License) Copyright 2025 Fonticons, Inc. --><path fill="currentColor" d="M544 320C544 196.3 443.7 96 320 96C196.3 96 96 196.3 96 320C96 443.7 196.3 544 320 544C443.7 544 544 443.7 544 320zM64 320C64 178.6 178.6 64 320 64C461.4 64 576 178.6 576 320C576 461.4 461.4 576 320 576C178.6 576 64 461.4 64 320zM320 464C373.7 464 419.7 430.9 438.7 384L201.3 384C220.3 430.9 266.3 464 320 464zM187.3 352L452.7 352C466.9 352 478.1 364.3 474.4 378C455.9 446 393.8 496 320 496C246.2 496 184 446 165.6 378C161.9 364.3 173.1 352 187.3 352zM240 248C222.3 248 208 262.3 208 280C208 288.8 200.8 296 192 296C183.2 296 176 288.8 176 280C176 244.7 204.7 216 240 216C275.3 216 304 244.7 304 280C304 288.8 296.8 296 288 296C279.2 296 272 288.8 272 280C272 262.3 257.7 248 240 248zM368 280C368 288.8 360.8 296 352 296C343.2 296 336 288.8 336 280C336 244.7 364.7 216 400 216C435.3 216 464 244.7 464 280C464 288.8 456.8 296 448 296C439.2 296 432 288.8 432 280C432 262.3 417.7 248 400 248C382.3 248 368 262.3 368 280z"/></svg>