<svg xmlns="http://www.w3.org/2000/svg" viewBox="0 0 640 640"><!--! Font Awesome Pro 7.1.0 by @fontawesome - https://fontawesome.com License - https://fontawesome.com/license (Commercial License) Copyright 2025 Fonticons, Inc. --><path fill="currentColor" d="M512 48L512 96L560 96C568.8 96 576 103.2 576 112C576 120.8 568.8 128 560 128L512 128L512 176C512 184.8 504.8 192 496 192C487.2 192 480 184.8 480 176L480 128L432 128C423.2 128 416 120.8 416 112C416 103.2 423.2 96 432 96L480 96L480 48C480 39.2 487.2 32 496 32C504.8 32 512 39.2 512 48zM309.9 194.2L107.1 288L309.9 381.7C316.3 384.7 323.6 384.7 330 381.7L532.9 288L330.1 194.2C323.7 191.2 316.3 191.2 310 194.2zM296.5 165.2C311.4 158.3 328.6 158.3 343.5 165.2L562.1 266.2C570.6 270.1 576 278.6 576 288C576 297.4 570.6 305.9 562.1 309.8L343.5 410.8C328.6 417.7 311.4 417.7 296.5 410.8L77.9 309.8C69.4 305.8 64 297.3 64 288C64 278.7 69.4 270.1 77.9 266.2L296.5 165.2zM77.9 426.2L146.6 394.4L184.7 412L107 447.9L309.9 541.7C316.3 544.7 323.6 544.7 330 541.7L532.9 447.9L455.2 412L493.3 394.4L562 426.2C570.5 430.1 575.9 438.6 575.9 448C575.9 457.4 570.5 465.9 562 469.8L343.4 570.8C328.5 577.7 311.3 577.7 296.4 570.8L77.9 469.8C69.4 465.8 64 457.3 64 448C64 438.7 69.4 430.1 77.9 426.2z"/></svg>