<svg xmlns="http://www.w3.org/2000/svg" viewBox="0 0 640 640"><!--! Font Awesome Pro 7.1.0 by @fontawesome - https://fontawesome.com License - https://fontawesome.com/license (Commercial License) Copyright 2025 Fonticons, Inc. --><path fill="currentColor" d="M432 96C423.2 96 416 103.2 416 112C416 120.8 423.2 128 432 128L560 128C568.8 128 576 120.8 576 112C576 103.2 568.8 96 560 96L432 96zM330.1 194.2L532.9 288L330.1 381.7C323.7 384.7 316.3 384.7 310 381.7L107.1 288L309.9 194.2C316.3 191.2 323.6 191.2 330 194.2zM343.5 165.2C328.6 158.3 311.4 158.3 296.5 165.2L77.9 266.2C69.4 270.1 64 278.6 64 288C64 297.4 69.4 305.9 77.9 309.8L296.5 410.8C311.4 417.7 328.6 417.7 343.5 410.8L562.1 309.8C570.6 305.9 576 297.4 576 288C576 278.6 570.6 270.1 562.1 266.2L343.5 165.2zM146.7 394.4L77.9 426.2C69.4 430.1 64 438.6 64 448C64 457.4 69.4 465.9 77.9 469.8L296.5 570.8C311.4 577.7 328.6 577.7 343.5 570.8L562.1 469.8C570.6 465.9 576 457.4 576 448C576 438.6 570.6 430.1 562.1 426.2L493.4 394.4L455.3 412L533 447.9L330.1 541.7C323.7 544.7 316.3 544.7 310 541.7L107.1 448L184.8 412L146.7 394.4z"/></svg>