<svg xmlns="http://www.w3.org/2000/svg" viewBox="0 0 640 640"><!--! Font Awesome Pro 7.1.0 by @fontawesome - https://fontawesome.com License - https://fontawesome.com/license (Commercial License) Copyright 2025 Fonticons, Inc. --><path fill="currentColor" d="M562.5 64.3C570 65.8 575.4 72.4 575.4 80L575.4 274.1C575.4 401.5 474.6 505.4 348.9 511.8L336.7 512.1C247.4 512.1 173 445.5 161.6 359.1C121.6 391.4 96.1 440.8 96.1 496.1L96.1 528.1C96.1 536.9 88.9 544.1 80.1 544.1C71.3 544.1 64 536.8 64 528L64 496C64 422.1 102.7 357.2 160.7 320.3C168.6 230.4 244.1 160 336 160C424.6 160 477 136.8 506.9 115.1C521.9 104.2 531.5 93.3 537.3 85.5C540.2 81.6 542.1 78.4 543.3 76.3C543.9 75.3 544.3 74.5 544.5 74.1L544.7 73.7C547.7 66.7 555.1 62.8 562.6 64.3zM543.4 126.4C538.3 131.1 532.5 136.1 525.8 140.9C492 165.5 437.8 188.9 353.4 191.7L336.1 192L328.7 192.2C252.5 196 192 259 192 336C192 415.5 257 480 336.6 480L347.2 479.7C456.1 474.2 543.4 384.1 543.4 274L543.4 126.3zM329.5 240.3C343.8 241.7 357.3 247.8 368 257.5C380.3 246.3 396.4 239.9 413.1 239.9L416 239.9C451.3 239.9 480 268.6 480 303.9C480 339.2 456.9 368.4 435 388.5C418.2 403.9 400.3 415.7 388.5 422.7L379.1 428.1C373 431.4 365.9 431.8 359.5 429.3L356.8 428.1C347.7 423.2 323.3 409 300.9 388.5C280.4 369.7 258.8 342.8 256.2 310.5L256 304C256 268.7 284.7 240 320 240L322.9 240L329.5 240.3zM320 272C302.3 272 288 286.3 288 304L288.2 308C289.9 328 303.8 347.7 322.7 365C339.5 380.5 358.1 392 368.1 397.7C378.1 392 396.6 380.5 413.5 365C433.6 346.5 448.1 325.3 448.1 304C448.1 286.3 433.8 272 416.1 272L413.2 272C405.1 272 397.3 274.8 391.1 279.9L388.5 282.2L379.4 291.3C376.4 294.3 372.3 296 368.1 296C363.9 296 359.8 294.3 356.8 291.3L347.7 282.2C341.2 275.7 332.3 272 323 272L320.1 272z"/></svg>