<svg xmlns="http://www.w3.org/2000/svg" viewBox="0 0 640 640"><!--! Font Awesome Pro 7.1.0 by @fontawesome - https://fontawesome.com License - https://fontawesome.com/license (Commercial License) Copyright 2025 Fonticons, Inc. --><path fill="currentColor" d="M320 32C345.7 32 369.1 46.5 380.6 69.5L391.7 91.8C414.5 83.8 440 89.5 457.2 106.7L460.9 110.7C477 129.8 480.3 156.7 469.3 179.1L466.7 183.8L452.2 208L480 208C515.3 208 544 236.7 544 272C544 292.1 534.5 311.1 518.4 323.2L464.9 363.2L480.2 368.9C499.3 376.1 512 394.4 512 414.8C512 436.8 497.3 456.2 476.1 462.1L411.9 480C381.2 488.5 354.5 507.3 336 533.1L336 592.1C336 600.9 328.8 608.1 320 608.1C311.2 608.1 304 600.9 304 592.1L304 533.1C285.5 507.3 258.8 488.5 228.2 480L163.9 462.1C142.7 456.2 128 436.9 128 414.8C128 394.4 140.7 376.1 159.8 368.9L175 363.2L121.6 323.1C105.5 311.1 96 292.1 96 272C96 236.7 124.7 208 160 208L187.8 208L173.3 183.8C158.4 159 162.3 127.2 182.8 106.7C200 89.5 225.5 83.8 248.3 91.8L259.5 69.5L261.8 65.3C273.8 44.7 296 32 320 32zM320 64C308.2 64 297.2 69.8 290.6 79.4L288 83.7L275.3 109.1C268.8 122.2 253.3 128.1 239.7 122.7L238.9 122.4C227.3 117.8 214.1 120.5 205.3 129.3C195.2 139.4 193.3 155.1 200.6 167.4L215.1 191.6C228 212.9 212.6 240 187.8 240L160 240C142.3 240 128 254.3 128 272C128 282.1 132.8 291.6 140.8 297.6L195.8 338.9C215.3 353.5 211 383.9 188.2 392.5L171 398.9C164.4 401.4 159.9 407.7 159.9 414.8C159.9 422.4 165 429.2 172.4 431.2L236.6 449C261.7 456 284.6 468.6 303.9 485.6L303.9 239.9L304.2 236.7C305.7 229.4 312.2 223.9 319.9 223.9C327.6 223.9 334.1 229.4 335.6 236.7L335.9 239.9L335.9 485.6C355.2 468.6 378.1 456 403.2 449L467.4 431.2C474.8 429.2 479.9 422.4 479.9 414.8C479.9 407.7 475.5 401.4 468.9 398.9L451.7 392.5C428.9 383.9 424.6 353.5 444.1 338.9L499.2 297.6L502.1 295.2C508.4 289.2 512 280.8 512 272C512 254.3 497.7 240 480 240L452.3 240C427.4 240 412.1 212.9 424.9 191.6L439.4 167.4L441.7 162.6C445.5 152.9 444.2 141.8 438.1 133.3L434.7 129.3C425.9 120.5 412.7 117.8 401.1 122.4L400.3 122.7C387.6 127.8 373.2 122.9 366.1 111.5L364.8 109.1L352.1 83.7C346 71.7 333.6 64 320 64z"/></svg>