<svg xmlns="http://www.w3.org/2000/svg" viewBox="0 0 640 640"><!--! Font Awesome Pro 7.1.0 by @fontawesome - https://fontawesome.com License - https://fontawesome.com/license (Commercial License) Copyright 2025 Fonticons, Inc. --><path fill="currentColor" d="M549.8 67.2C554.3 63.9 560.2 63.1 565.5 65.3C571.5 67.8 575.4 73.6 575.4 80.1L575.4 274.2C575.4 401.6 474.6 505.5 348.9 511.9L336.7 512.2C247.4 512.2 173 445.6 161.6 359.2C121.6 391.5 96.1 440.8 96.1 496.2L96.1 528.2C96.1 537 88.9 544.2 80.1 544.2C71.3 544.2 64 536.8 64 528L64 496C64 422.1 102.6 357.2 160.7 320.3C168.7 230.5 244.1 160 336 160C396.1 160 449 137.5 487.4 114.3C506.5 102.8 521.8 91.2 532.2 82.6C537.4 78.3 541.4 74.7 544.1 72.3C545.4 71.1 546.4 70.1 547.1 69.5L547.9 68.7L549.7 67.1zM543.4 114.8C532.9 122.9 519.6 132.4 504 141.8C465.3 165.1 411.3 188.9 348.7 191.8L336.1 192.1L328.7 192.3C264 195.6 210.6 241.5 196 302.5C219.6 293.2 245.2 288.1 272.1 288.1L368.1 288.1C376.9 288.1 384.1 295.3 384.1 304.1C384.1 312.9 376.9 320.1 368.1 320.1L272.1 320.1C243.3 320.1 216.2 327 192.2 339.3C193.9 417.3 258.2 480.1 336.7 480.1L347.3 479.9C456.2 474.4 543.5 384.3 543.5 274.2L543.5 114.9z"/></svg>