<svg xmlns="http://www.w3.org/2000/svg" viewBox="0 0 640 640"><!--! Font Awesome Pro 7.1.0 by @fontawesome - https://fontawesome.com License - https://fontawesome.com/license (Commercial License) Copyright 2025 Fonticons, Inc. --><path fill="currentColor" d="M265.8 91C227.8 54.5 167.4 55 130 92.5C124.1 98.4 119.1 104.9 115 111.8C102.1 133.7 82.7 154 63 170C60.7 171.8 58.6 173.8 56.5 175.9C30.7 201.7 25.4 240.3 40.6 271.3C46.3 283 51.6 295.4 51.6 308.4L51.6 344.1C51.6 358.8 57.4 372.9 67.9 383.3L94.2 409.6C104.6 420 110.5 434.1 110.5 448.8L110.5 461.7C110.5 464.6 110.7 467.5 111.2 470.4L118.8 462.8C124.8 456.8 128.2 448.7 128.2 440.2L128.2 400.9C124.9 395.9 121.2 391.3 116.9 387L90.3 360.7C85.9 356.3 83.4 350.3 83.4 344.1L83.4 308.4C83.4 287.3 74.9 269.1 69.1 257.2C59.7 238 63.1 214.3 78.9 198.5L78.9 198.5C80.2 197.2 81.6 196 82.9 194.9C104.6 177.3 127 154.2 142.3 128.1C145 123.5 148.4 119.2 152.4 115.1C177.8 89.7 219 89.7 244.5 115.1L244.5 115.1C246.2 116.8 247.7 118.5 249.1 120.2C251.9 113.3 255.3 106.6 259.2 100.4C261.2 97.2 263.4 94 265.6 91zM100.7 571.3C106.9 577.5 117.1 577.5 123.3 571.3L123.3 571.3L163.9 530.7C175.9 518.7 192.2 512 209.2 512L277.6 512C294.6 512 310.9 505.3 322.9 493.3L333.4 482.8C345.4 470.8 361.7 464.1 378.7 464.1L421.7 464.1C438.7 464.1 455 457.4 467 445.4L496.1 416.3C506.8 405.6 521.1 399.9 535.4 395C573.1 382.1 600.3 346.3 600.3 304.2C600.3 300.8 600.1 297.4 599.8 294.1C596.7 265 597.5 232.6 604.8 204.2C607.1 195.3 608.3 185.9 608.3 176.2C608.3 114.3 558.2 64.2 496.3 64.2C486.6 64.2 477.3 65.4 468.3 67.7C439.9 75 407.5 75.8 378.4 72.7C375.1 72.4 371.7 72.2 368.3 72.2C326.2 72.2 290.4 99.3 277.5 137.1C272.6 151.4 266.9 165.7 256.2 176.4L227.1 205.5C215.1 217.5 208.4 233.8 208.4 250.8L208.4 293.8C208.4 310.8 201.7 327.1 189.7 339.1L179.2 349.6C167.2 361.6 160.5 377.9 160.5 394.9L160.5 463.3C160.5 480.3 153.8 496.6 141.8 508.6L100.7 548.7C94.5 554.9 94.5 565.1 100.7 571.3zM214.6 480C288.6 406 342 352.6 374.6 320L464 320C472.8 320 480 312.8 480 304C480 295.2 472.8 288 464 288L406.6 288L475.3 219.3C481.5 213.1 481.5 202.9 475.3 196.7C469.1 190.5 458.9 190.5 452.7 196.7C378.8 270.6 334.6 314.8 320 329.4L320 272C320 263.2 312.8 256 304 256C295.2 256 288 263.2 288 272L288 361.4L192 457.4L192 394.5C192 386 195.4 377.9 201.4 371.9L211.9 361.4C229.9 343.4 240 319 240 293.5L240 250.5C240 242 243.4 233.9 249.4 227.9L278.5 198.8C294.9 182.4 302.5 161.7 307.5 147.3C316.1 122.1 340 104.1 368.1 104.1C370.4 104.1 372.7 104.2 374.9 104.5C406.6 107.8 443 107.2 476.1 98.7C482.5 97.1 489.1 96.2 496.1 96.2C540.3 96.2 576.1 132 576.1 176.2C576.1 183.1 575.2 189.8 573.6 196.2C565.1 229.3 564.4 265.7 567.8 297.4C568 299.6 568.2 301.9 568.2 304.2C568.2 332.2 550.2 356.1 525 364.8C510.6 369.7 489.8 377.4 473.5 393.8L444.4 422.9C438.4 428.9 430.3 432.3 421.8 432.3L378.8 432.3C353.3 432.3 328.9 442.4 310.9 460.4L300.4 470.9C294.4 476.9 286.3 480.3 277.8 480.3L214.9 480.3z"/></svg>