<svg xmlns="http://www.w3.org/2000/svg" viewBox="0 0 640 640"><!--! Font Awesome Pro 7.1.0 by @fontawesome - https://fontawesome.com License - https://fontawesome.com/license (Commercial License) Copyright 2025 Fonticons, Inc. --><path fill="currentColor" d="M298.9 74.3C310.7 62.7 329.7 62.7 341.5 74.3L343.9 77L385.2 128.7L417.4 128.7C435.4 128.7 449.1 144.2 447.6 161.5L447.1 165L432.6 237.2L455.6 216.4L458.4 214.2C471.8 204.7 490.5 207.6 500.3 220.8L502.2 223.8L516.1 247.9L559.5 259.5L559.5 259.5L562.4 260.4C575.8 265.5 583.8 279.4 581.5 293.6L580.9 296.6L569.3 340L583.2 364.1L584.8 367.3C591.8 383.4 583.5 402.6 566.3 408.1L566.3 408.1L453.3 444.6L458.9 476.8L458.9 476.8L459.3 481C460 500.3 442.3 515.5 423.3 511.8L419.2 510.7L336 482.5L336 592C336 600.8 328.8 608 320 608C311.2 608 304 600.8 304 592L304 482.4L219.4 510.6C197.3 518 175.5 498.6 180.1 475.9L186.4 444.5L73.9 408.2L73.9 408.2C55.5 402.2 47.4 380.9 57 364.2L71 340L59.4 296.6C55.1 280.5 64.7 263.8 80.8 259.5L80.8 259.5L124.1 247.9L138 223.8L139.9 220.8C149.7 207.6 168.4 204.7 181.8 214.2L184.6 216.4L207.6 237.2L193.2 165C189.4 146.3 203.8 128.7 223 128.7L255.2 128.7L296.5 77L298.9 74.3zM275.4 154.7C272.4 158.5 267.8 160.7 262.9 160.7L225.1 160.7L248.7 278.4C250.1 285.2 246.9 292.1 240.9 295.5C235.7 298.5 229.3 298.2 224.3 295L222.3 293.4L164.9 241.5L148.7 269.6C146.6 273.3 143.1 276 139 277.1L90.9 289.9L103.8 338.1L104.3 341.2C104.5 344.3 103.8 347.5 102.2 350.2L85.8 378.3L210 418.4C217.7 420.9 222.4 428.8 220.8 436.7L212.3 479.3L304.3 448.6L304.3 271.9L304.6 268.7C306.1 261.4 312.6 255.9 320.3 255.9C328 255.9 334.5 261.4 336 268.7L336.3 271.9L336.3 448.6L427.1 479.4L419.7 436.3C418.3 428.5 423 420.8 430.5 418.4L554.7 378.3L538.5 350.2C536.4 346.5 535.8 342.2 536.9 338.1L549.8 289.9L501.7 277.1C497.6 276 494.1 273.3 492 269.6L475.8 241.5L418.4 293.4C413.3 298 405.8 298.8 399.8 295.4C393.8 292 390.7 285.1 392 278.3L415.6 160.6L377.8 160.6C372.9 160.6 368.3 158.4 365.3 154.6L320.4 98.5L275.6 154.6z"/></svg>