<svg xmlns="http://www.w3.org/2000/svg" viewBox="0 0 640 640"><!--! Font Awesome Pro 7.1.0 by @fontawesome - https://fontawesome.com License - https://fontawesome.com/license (Commercial License) Copyright 2025 Fonticons, Inc. --><path fill="currentColor" d="M375 159L231 303C221.6 312.4 221.6 327.6 231 336.9L375 481C381.9 487.9 392.2 489.9 401.2 486.2C410.2 482.5 416 473.7 416 464L416 384L528 384C554.5 384 576 362.5 576 336L576 304C576 277.5 554.5 256 528 256L416 256L416 176C416 166.3 410.2 157.5 401.2 153.8C392.2 150.1 381.9 152.2 375 159zM384 444.7L259.3 320L384 195.3L384 272C384 280.8 391.2 288 400 288L528 288C536.8 288 544 295.2 544 304L544 336C544 344.8 536.8 352 528 352L400 352C391.2 352 384 359.2 384 368L384 444.7zM240 512L160 512C124.7 512 96 483.3 96 448L96 192C96 156.7 124.7 128 160 128L240 128C248.8 128 256 120.8 256 112C256 103.2 248.8 96 240 96L160 96C107 96 64 139 64 192L64 448C64 501 107 544 160 544L240 544C248.8 544 256 536.8 256 528C256 519.2 248.8 512 240 512z"/></svg>