<svg xmlns="http://www.w3.org/2000/svg" viewBox="0 0 640 640"><!--! Font Awesome Pro 7.1.0 by @fontawesome - https://fontawesome.com License - https://fontawesome.com/license (Commercial License) Copyright 2025 Fonticons, Inc. --><path fill="currentColor" d="M71 303L71 303C61.6 312.4 61.6 327.6 71 336.9L71 336.9L215 480.9C221.9 487.8 232.2 489.8 241.2 486.1C250.2 482.4 256 473.7 256 464L256 384L368 384C394.5 384 416 362.5 416 336L416 304C416 277.5 394.5 256 368 256L256 256L256 176C256 166.3 250.2 157.5 241.2 153.8C232.2 150.1 221.9 152.2 215 159L71 303zM224 444.7L99.3 320L224 195.3L224 272C224 280.8 231.2 288 240 288L368 288C376.8 288 384 295.2 384 304L384 336C384 344.8 376.8 352 368 352L240 352C231.2 352 224 359.2 224 368L224 444.7zM400 512C391.2 512 384 519.2 384 528C384 536.8 391.2 544 400 544L480 544C533 544 576 501 576 448L576 192C576 139 533 96 480 96L400 96C391.2 96 384 103.2 384 112C384 120.8 391.2 128 400 128L480 128C515.3 128 544 156.7 544 192L544 448C544 483.3 515.3 512 480 512L400 512z"/></svg>