<svg xmlns="http://www.w3.org/2000/svg" viewBox="0 0 640 640"><!--! Font Awesome Pro 7.1.0 by @fontawesome - https://fontawesome.com License - https://fontawesome.com/license (Commercial License) Copyright 2025 Fonticons, Inc. --><path fill="currentColor" d="M112 152C112 165.3 101.3 176 88 176C74.7 176 64 165.3 64 152C64 138.7 74.7 128 88 128C101.3 128 112 138.7 112 152zM112 264C112 277.3 101.3 288 88 288C74.7 288 64 277.3 64 264C64 250.7 74.7 240 88 240C101.3 240 112 250.7 112 264zM88 400C74.7 400 64 389.3 64 376C64 362.7 74.7 352 88 352C101.3 352 112 362.7 112 376C112 389.3 101.3 400 88 400zM112 488C112 501.3 101.3 512 88 512C74.7 512 64 501.3 64 488C64 474.7 74.7 464 88 464C101.3 464 112 474.7 112 488zM199 337C189.6 327.6 189.6 312.4 199 303.1L343 159C349.9 152.1 360.2 150.1 369.2 153.8C378.2 157.5 384 166.3 384 176L384 256L448 256L448 256L528 256C554.5 256 576 277.5 576 304L576 336C576 362.5 554.5 384 528 384L384 384L384 464C384 473.7 378.2 482.5 369.2 486.2C360.2 489.9 349.9 487.9 343 481L199 337zM448 352L528 352C536.8 352 544 344.8 544 336L544 304C544 295.2 536.8 288 528 288L448 288L448 288L368 288C359.2 288 352 280.8 352 272L352 195.3L227.3 320L352 444.7L352 368C352 359.2 359.2 352 368 352L448 352z"/></svg>