<svg xmlns="http://www.w3.org/2000/svg" viewBox="0 0 640 640"><!--! Font Awesome Pro 7.1.0 by @fontawesome - https://fontawesome.com License - https://fontawesome.com/license (Commercial License) Copyright 2025 Fonticons, Inc. --><path fill="currentColor" d="M192 284.7L192 99.3L99.3 192L192 284.7zM194.3 64C210.7 64 224 77.3 224 93.7L224 176L560 176C568.8 176 576 183.2 576 192C576 200.8 568.8 208 560 208L224 208L224 290.3C224 306.7 210.7 320 194.3 320C186.4 320 178.9 316.9 173.3 311.3L71 209C66.5 204.5 64 198.4 64 192C64 185.6 66.5 179.5 71 175L173.4 72.7C179 67.1 186.5 64 194.4 64zM80 464C71.2 464 64 456.8 64 448C64 439.2 71.2 432 80 432L416 432L416 349.7C416 333.3 429.3 320 445.7 320C453.6 320 461.1 323.1 466.7 328.7L569 431C573.5 435.5 576 441.6 576 448C576 454.4 573.5 460.5 569 465L466.6 567.3C461 572.9 453.5 576 445.6 576C429.2 576 415.9 562.7 415.9 546.3L415.9 464L79.9 464zM448 355.3L448 540.7L540.7 448L448 355.3z"/></svg>