<svg xmlns="http://www.w3.org/2000/svg" viewBox="0 0 640 640"><!--! Font Awesome Pro 7.1.0 by @fontawesome - https://fontawesome.com License - https://fontawesome.com/license (Commercial License) Copyright 2025 Fonticons, Inc. --><path fill="currentColor" d="M71 337L71 337C61.6 327.6 61.6 312.4 71 303.1L71 303.1L215 159.1C221.9 152.2 232.2 150.2 241.2 153.9C250.2 157.6 256 166.3 256 176L256 256L400 256C426.5 256 448 277.5 448 304L448 336C448 362.5 426.5 384 400 384L256 384L256 464C256 473.7 250.2 482.5 241.2 486.2C232.2 489.9 221.9 487.9 215 481L71 337zM320 288L240 288C231.2 288 224 280.8 224 272L224 195.3L99.3 320L224 444.7L224 368C224 359.2 231.2 352 240 352L400 352C408.8 352 416 344.8 416 336L416 304C416 295.2 408.8 288 400 288L320 288zM560 128C568.8 128 576 135.2 576 144L576 496C576 504.8 568.8 512 560 512C551.2 512 544 504.8 544 496L544 144C544 135.2 551.2 128 560 128z"/></svg>