<svg xmlns="http://www.w3.org/2000/svg" viewBox="0 0 640 640"><!--! Font Awesome Pro 7.1.0 by @fontawesome - https://fontawesome.com License - https://fontawesome.com/license (Commercial License) Copyright 2025 Fonticons, Inc. --><path fill="currentColor" d="M71 303L71 303C61.6 312.4 61.6 327.6 71 336.9L71 336.9L215 480.9C221.9 487.8 232.2 489.8 241.2 486.1C250.2 482.4 256 473.7 256 464L256 384L400 384C426.5 384 448 362.5 448 336L448 304C448 277.5 426.5 256 400 256L320 256L320 256L256 256L256 176C256 166.3 250.2 157.5 241.2 153.8C232.2 150.1 221.9 152.2 215 159L71 303zM320 288L320 288L400 288C408.8 288 416 295.2 416 304L416 336C416 344.8 408.8 352 400 352L240 352C231.2 352 224 359.2 224 368L224 444.7L99.3 320L224 195.3L224 272C224 280.8 231.2 288 240 288L320 288zM528 488C528 501.3 538.7 512 552 512C565.3 512 576 501.3 576 488C576 474.7 565.3 464 552 464C538.7 464 528 474.7 528 488zM528 376C528 389.3 538.7 400 552 400C565.3 400 576 389.3 576 376C576 362.7 565.3 352 552 352C538.7 352 528 362.7 528 376zM552 288C565.3 288 576 277.3 576 264C576 250.7 565.3 240 552 240C538.7 240 528 250.7 528 264C528 277.3 538.7 288 552 288zM528 152C528 165.3 538.7 176 552 176C565.3 176 576 165.3 576 152C576 138.7 565.3 128 552 128C538.7 128 528 138.7 528 152z"/></svg>