<svg xmlns="http://www.w3.org/2000/svg" viewBox="0 0 640 640"><!--! Font Awesome Pro 7.1.0 by @fontawesome - https://fontawesome.com License - https://fontawesome.com/license (Commercial License) Copyright 2025 Fonticons, Inc. --><path fill="currentColor" d="M80 512C88.8 512 96 504.8 96 496L96 144C96 135.2 88.8 128 80 128C71.2 128 64 135.2 64 144L64 496C64 504.8 71.2 512 80 512zM199 303C189.6 312.4 189.6 327.6 199 336.9L343 481C349.9 487.9 360.2 489.9 369.2 486.2C378.2 482.5 384 473.7 384 464L384 384L528 384C554.5 384 576 362.5 576 336L576 304C576 277.5 554.5 256 528 256L448 256L448 256L384 256L384 176C384 166.3 378.2 157.5 369.2 153.8C360.2 150.1 349.9 152.2 343 159L199 303zM448 288L448 288L528 288C536.8 288 544 295.2 544 304L544 336C544 344.8 536.8 352 528 352L368 352C359.2 352 352 359.2 352 368L352 444.7L227.3 320L352 195.3L352 272C352 280.8 359.2 288 368 288L448 288z"/></svg>