<svg xmlns="http://www.w3.org/2000/svg" viewBox="0 0 640 640"><!--! Font Awesome Pro 7.1.0 by @fontawesome - https://fontawesome.com License - https://fontawesome.com/license (Commercial License) Copyright 2025 Fonticons, Inc. --><path fill="currentColor" d="M0 176C0 167.2 7.2 160 16 160C24.8 160 32 167.2 32 176L32 464C32 472.8 24.8 480 16 480C7.2 480 0 472.8 0 464L0 176zM137.4 342.6C124.9 330.1 124.9 309.8 137.4 297.3L265.4 169.3C274.6 160.1 288.3 157.4 300.3 162.4C312.3 167.4 320 179.1 320 192L320 256L592 256C618.5 256 640 277.5 640 304L640 336C640 362.5 618.5 384 592 384L320 384L320 448C320 460.9 312.2 472.6 300.2 477.6C288.2 482.6 274.5 479.8 265.3 470.7L137.3 342.7zM160 320L288 448L288 368C288 359.2 295.2 352 304 352L592 352C600.8 352 608 344.8 608 336L608 304C608 295.2 600.8 288 592 288L304 288C295.2 288 288 280.8 288 272L288 192L160 320z"/></svg>