<svg xmlns="http://www.w3.org/2000/svg" viewBox="0 0 640 640"><!--! Font Awesome Pro 7.1.0 by @fontawesome - https://fontawesome.com License - https://fontawesome.com/license (Commercial License) Copyright 2025 Fonticons, Inc. --><path fill="currentColor" d="M464 128C458.2 128 452.8 129 447.8 130.8C428.9 137.6 403.7 143.7 377.7 137.9C317 124.4 249 148.9 198.9 198.9C148.8 248.9 124.4 317 137.9 377.6C143.7 403.6 137.6 428.8 130.8 447.7C129 452.7 128 458.2 128 463.9C128 490.4 149.5 511.9 176 511.9C181.8 511.9 187.2 510.9 192.2 509.1C211.1 502.3 236.3 496.2 262.3 502C323 515.5 391 491 441.1 441C491.2 391 515.6 322.9 502.1 262.2C496.3 236.2 502.4 211 509.2 192.1C511 187.1 512 181.6 512 175.9C512 149.4 490.5 127.9 464 127.9zM464 96C508.2 96 544 131.8 544 176C544 185.5 542.3 194.6 539.3 203.1C533.3 219.8 529.5 238.1 533.4 255.5C549.8 329.2 519.7 407.9 463.8 463.8C407.9 519.7 329.1 549.8 255.5 533.4C238.2 529.5 219.8 533.3 203.1 539.3C194.7 542.3 185.5 544 176 544C131.8 544 96 508.2 96 464C96 454.5 97.7 445.4 100.7 436.9C106.7 420.2 110.5 401.9 106.6 384.5C90.2 310.8 120.3 232.1 176.2 176.2C232.1 120.3 310.9 90.2 384.5 106.6C401.8 110.5 420.2 106.7 436.9 100.7C445.3 97.7 454.5 96 464 96zM342.7 198.5L324.3 207C272.5 230.9 230.9 272.5 207 324.3L198.5 342.7C194.8 350.7 185.3 354.2 177.3 350.5C169.3 346.8 165.8 337.3 169.5 329.3L178 310.9C205.1 252.2 252.3 205 311 177.9L329.4 169.4C337.4 165.7 346.9 169.2 350.6 177.2C354.3 185.2 350.8 194.7 342.8 198.4z"/></svg>