<svg xmlns="http://www.w3.org/2000/svg" viewBox="0 0 640 640"><!--! Font Awesome Pro 7.1.0 by @fontawesome - https://fontawesome.com License - https://fontawesome.com/license (Commercial License) Copyright 2025 Fonticons, Inc. --><path fill="currentColor" d="M533.2 127.1C541.5 124.2 546 115.1 543.1 106.7C540.2 98.3 531.1 93.9 522.7 96.8L106.7 240.8C100.3 243.1 96 249.2 96 256C96 262.8 100.3 268.9 106.8 271.1L522.8 415.1C531.2 418 540.3 413.6 543.2 405.2C546.1 396.8 541.7 387.7 533.3 384.8L160.9 256L533.2 127.1zM112 512C103.2 512 96 519.2 96 528C96 536.8 103.2 544 112 544L528 544C536.8 544 544 536.8 544 528C544 519.2 536.8 512 528 512L112 512z"/></svg>