<svg xmlns="http://www.w3.org/2000/svg" viewBox="0 0 640 640"><!--! Font Awesome Pro 7.1.0 by @fontawesome - https://fontawesome.com License - https://fontawesome.com/license (Commercial License) Copyright 2025 Fonticons, Inc. --><path fill="currentColor" d="M144 96C135.2 96 128 88.8 128 80C128 71.2 135.2 64 144 64L240 64C293 64 336 107 336 160L336 521.4L452.7 404.7C458.9 398.5 469.1 398.5 475.3 404.7C481.5 410.9 481.5 421.1 475.3 427.3L331.3 571.3C328.3 574.3 324.2 576 320 576C315.8 576 311.7 574.3 308.7 571.3L164.7 427.3C158.5 421.1 158.5 410.9 164.7 404.7C170.9 398.5 181.1 398.5 187.3 404.7L304 521.4L304 160C304 124.7 275.3 96 240 96L144 96z"/></svg>