<svg xmlns="http://www.w3.org/2000/svg" viewBox="0 0 640 640"><!--! Font Awesome Pro 7.1.0 by @fontawesome - https://fontawesome.com License - https://fontawesome.com/license (Commercial License) Copyright 2025 Fonticons, Inc. --><path fill="currentColor" d="M144 544C135.2 544 128 551.2 128 560C128 568.8 135.2 576 144 576L240 576C293 576 336 533 336 480L336 118.6L452.7 235.3C458.9 241.5 469.1 241.5 475.3 235.3C481.5 229.1 481.5 218.9 475.3 212.7L331.3 68.7C328.3 65.7 324.2 64 320 64C315.8 64 311.7 65.7 308.7 68.7L164.7 212.7C158.5 218.9 158.5 229.1 164.7 235.3C170.9 241.5 181.1 241.5 187.3 235.3L304 118.6L304 480C304 515.3 275.3 544 240 544L144 544z"/></svg>