<svg xmlns="http://www.w3.org/2000/svg" viewBox="0 0 640 640"><!--! Font Awesome Pro 7.1.0 by @fontawesome - https://fontawesome.com License - https://fontawesome.com/license (Commercial License) Copyright 2025 Fonticons, Inc. --><path fill="currentColor" d="M466.7 489.3C427.4 523.4 376.1 544 320 544C263.9 544 212.6 523.4 173.3 489.3L264.4 398.3C280.1 409.4 299.3 416 320 416C340.7 416 359.9 409.4 375.6 398.3L466.6 489.3zM489.3 466.7L398.3 375.7C409.4 359.9 416 340.7 416 320C416 299.3 409.4 280.1 398.3 264.4L489.3 173.3C523.4 212.6 544 263.9 544 320C544 376.1 523.4 427.4 489.3 466.7zM512 489.4C551.8 444.3 576 385 576 320C576 255 551.8 195.8 512 150.6L523.3 139.3C529.5 133.1 529.5 122.9 523.3 116.7C517.1 110.5 506.9 110.5 500.7 116.7L489.4 128C444.2 88.2 384.9 64 320 64C255.1 64 195.8 88.2 150.6 128L139.3 116.7C133.1 110.5 122.9 110.5 116.7 116.7C110.5 122.9 110.5 133.1 116.7 139.3L128 150.6C88.2 195.8 64 255.1 64 320C64 384.9 88.2 444.2 128 489.4L116.7 500.7C110.5 506.9 110.5 517.1 116.7 523.3C122.9 529.5 133.1 529.5 139.3 523.3L150.6 512C195.7 551.8 255 576 320 576C385 576 444.2 551.8 489.4 512L500.7 523.3C506.9 529.5 517.1 529.5 523.3 523.3C529.5 517.1 529.5 506.9 523.3 500.7L512 489.4zM466.7 150.7L375.7 241.8C359.9 230.6 340.7 224 320 224C299.3 224 280.1 230.6 264.4 241.7L173.3 150.7C212.6 116.6 263.9 96 320 96C376.1 96 427.4 116.6 466.7 150.7zM241.7 375.6L150.6 466.6C116.6 427.4 96 376.1 96 320C96 263.9 116.6 212.6 150.7 173.3L241.8 264.4C230.6 280.1 224 299.3 224 320C224 340.7 230.6 359.9 241.7 375.6zM256 320C256 284.7 284.7 256 320 256C355.3 256 384 284.7 384 320C384 355.3 355.3 384 320 384C284.7 384 256 355.3 256 320z"/></svg>