<svg xmlns="http://www.w3.org/2000/svg" viewBox="0 0 640 640"><!--! Font Awesome Pro 7.1.0 by @fontawesome - https://fontawesome.com License - https://fontawesome.com/license (Commercial License) Copyright 2025 Fonticons, Inc. --><path fill="currentColor" d="M320 64C426 64 512 150 512 256C512 307.2 492 353.7 459.3 388.1C435.7 413 416 443.4 416 477.7L416 496C416 540.2 380.2 576 336 576L304 576C259.8 576 224 540.2 224 496L224 477.7C224 443.4 204.3 413 180.7 388.1C148 353.7 128 307.2 128 256C128 150 214 64 320 64zM256 496C256 522.5 277.5 544 304 544L336 544C362.5 544 384 522.5 384 496L384 480L256 480L256 496zM320 96C231.6 96 160 167.6 160 256C160 298.7 176.7 337.4 203.9 366.1C223.8 387 244.3 414.8 252.4 448L387.7 448C395.8 414.8 416.3 387 436.2 366.1C463.4 337.4 480.1 298.7 480.1 256C480.1 167.6 408.5 96 320.1 96zM71.1 370.7C78.5 365.8 88.4 367.8 93.3 375.1C98.2 382.4 96.2 392.4 88.9 397.3L40.9 429.3C33.5 434.2 23.6 432.2 18.7 424.9C13.8 417.6 15.8 407.6 23.1 402.7L71.1 370.7zM546.7 375.1C551.6 367.7 561.5 365.8 568.9 370.7L616.9 402.7C624.3 407.6 626.2 417.5 621.3 424.9C616.4 432.3 606.5 434.2 599.1 429.3L551.1 397.3C543.7 392.4 541.8 382.5 546.7 375.1zM320 384C306.7 384 296 373.3 296 360C296 346.7 306.7 336 320 336C333.3 336 344 346.7 344 360C344 373.3 333.3 384 320 384zM320 160C333.6 160 344.3 171.6 343.4 185.1L336 289.1C335.4 297.5 328.4 304 320 304C311.6 304 304.6 297.5 304 289.1L296.6 185.1C295.6 171.5 306.4 160 320 160zM64 240C72.8 240 80 247.2 80 256C80 264.8 72.8 272 64 272L16 272C7.2 272 0 264.8 0 256C0 247.2 7.2 240 16 240L64 240zM624 240C632.8 240 640 247.2 640 256C640 264.8 632.8 272 624 272L576 272C567.2 272 560 264.8 560 256C560 247.2 567.2 240 576 240L624 240zM18.7 87.1C23.6 79.7 33.5 77.8 40.9 82.7L88.9 114.7C96.3 119.6 98.2 129.5 93.3 136.9C88.4 144.3 78.5 146.2 71.1 141.3L23.1 109.3C15.7 104.4 13.8 94.5 18.7 87.1zM599.1 82.7C606.5 77.8 616.4 79.8 621.3 87.1C626.2 94.4 624.2 104.4 616.9 109.3L568.9 141.3C561.5 146.2 551.6 144.2 546.7 136.9C541.8 129.6 543.8 119.6 551.1 114.7L599.1 82.7z"/></svg>