<svg xmlns="http://www.w3.org/2000/svg" viewBox="0 0 640 640"><!--! Font Awesome Pro 7.1.0 by @fontawesome - https://fontawesome.com License - https://fontawesome.com/license (Commercial License) Copyright 2025 Fonticons, Inc. --><path fill="currentColor" d="M267.9 68.5C302.5 59.9 336 86 336 121.7C336 125.1 335.7 128.5 335.1 131.7L411.9 112.5C446.5 103.9 480 130 480 165.7C480 181.3 473.4 195.6 462.7 205.7C473.3 215.6 480 229.7 480 245.7C480 261.3 473.4 275.6 462.7 285.7C473.3 295.6 480 309.7 480 325.7C480 350.8 462.9 372.8 438.5 378.9L368 396.5L368 448L384 448C401.7 448 416 462.3 416 480L416 496C416 540.2 380.2 576 336 576L304 576C259.8 576 224 540.2 224 496L224 480C224 462.3 238.3 448 256 448L272 448L272 381.5L304 373.5L304 448L336 448L336 384C336 376.7 341 370.3 348.1 368.5L430.7 347.9C440.9 345.4 448 336.2 448 325.8C448 311 434.1 300.1 419.7 303.7C313.4 330.3 366.5 317 291.9 335.6L291.8 335.6L228.1 351.5C193.5 360.1 160 334 160 298.3C160 282.7 166.6 268.4 177.3 258.3C166.7 248.4 160 234.3 160 218.3C160 202.7 166.6 188.4 177.3 178.3C166.7 168.4 160 154.3 160 138.3C160 113.2 177.1 91.2 201.5 85.1L267.9 68.5zM284.1 304.4L430.7 267.7C440.9 265.2 448 256 448 245.6C448 230.8 434.2 220 419.8 223.4L228.1 271.3L227.9 271.4L209.3 276C199.1 278.5 192 287.7 192 298.1C192 312.9 205.9 323.8 220.3 320.2L284.1 304.3zM294.5 174.8L228.1 191.4L228 191.4L209.2 196.1C199 198.6 191.9 207.8 191.9 218.2C191.9 233 205.7 243.8 220.1 240.4L411.8 192.5L412 192.4L430.6 187.8C440.8 185.3 447.9 176.1 447.9 165.7C447.9 150.9 434 140 419.6 143.6L294.5 174.9L294.4 174.9zM304 121.7C304 106.9 290.1 96 275.7 99.6L209.3 116.2C199.1 118.7 192 127.8 192 138.3C192 153.1 205.9 164 220.3 160.4L220.3 160.4L286.7 143.8L286.7 143.8C296.9 141.3 304 132.2 304 121.7zM256 480L256 496C256 522.5 277.5 544 304 544L336 544C362.5 544 384 522.5 384 496L384 480L256 480z"/></svg>