<svg xmlns="http://www.w3.org/2000/svg" viewBox="0 0 640 640"><!--! Font Awesome Pro 7.1.0 by @fontawesome - https://fontawesome.com License - https://fontawesome.com/license (Commercial License) Copyright 2025 Fonticons, Inc. --><path fill="currentColor" d="M311.4 66.5C316.7 63.1 323.4 63.1 328.7 66.5L440.7 138.5C448.1 143.3 450.3 153.2 445.5 160.6C440.7 168 430.8 170.2 423.4 165.4L416 160.7L416 224L432 224C440.8 224 448 231.2 448 240C448 248.8 440.8 256 432 256L422.4 256L480 544L496 544C504.8 544 512 551.2 512 560C512 568.8 504.8 576 496 576L144 576C135.2 576 128 568.8 128 560C128 551.2 135.2 544 144 544L160 544L217.6 256L208 256C199.2 256 192 248.8 192 240C192 231.2 199.2 224 208 224L224 224L224 160.7L216.7 165.4C209.3 170.2 199.4 168 194.6 160.6C189.8 153.2 192 143.3 199.4 138.5L311.4 66.5zM304 544L336 544L336 480C336 471.2 328.8 464 320 464C311.2 464 304 471.2 304 480L304 544zM368 544L447.4 544L389.8 256L250.3 256L192.7 544L272.1 544L272.1 480C272.1 453.5 293.6 432 320.1 432C346.6 432 368.1 453.5 368.1 480L368.1 544zM384 140.2L320 99.1L256 140.2L256 224L384 224L384 140.2zM71.2 81.7L135.2 113.7C143.1 117.7 146.3 127.3 142.4 135.2C138.5 143.1 128.8 146.3 120.8 142.3L56.8 110.3C48.9 106.3 45.7 96.7 49.6 88.8C53.5 80.9 63.2 77.7 71.1 81.6zM135.2 270.3L71.2 302.3C63.3 306.3 53.7 303 49.7 295.1C45.7 287.2 49 277.6 56.9 273.6L120.9 241.6C128.8 237.6 138.4 240.9 142.4 248.8C146.4 256.7 143.1 266.3 135.2 270.3zM590.3 88.8C594.3 96.7 591 106.3 583.1 110.3L519.1 142.3C511.2 146.3 501.6 143 497.6 135.1C493.6 127.2 496.9 117.6 504.8 113.6L568.8 81.6C576.7 77.6 586.3 80.9 590.3 88.8zM497.7 248.8C501.7 240.9 511.3 237.7 519.2 241.6L583.2 273.6C591.1 277.6 594.3 287.2 590.4 295.1C586.5 303 576.8 306.2 568.9 302.3L504.9 270.3C497 266.3 493.8 256.7 497.7 248.8z"/></svg>