<svg xmlns="http://www.w3.org/2000/svg" viewBox="0 0 640 640"><!--! Font Awesome Pro 7.1.0 by @fontawesome - https://fontawesome.com License - https://fontawesome.com/license (Commercial License) Copyright 2025 Fonticons, Inc. --><path fill="currentColor" d="M320.2 64C329 64 336.2 71.2 336.2 80L336.2 224.5C459.5 232.1 559.2 327 574.2 448.1C576.4 465.6 561.8 480 544.2 480L421.4 480C403.4 517.8 364.9 544 320.2 544C275.5 544 237 517.8 219 480L96.2 480C78.5 480 64 465.6 66.2 448.1C81.3 327 180.9 232.1 304.2 224.5L304.2 80C304.2 71.2 311.4 64 320.2 64zM251.3 480C266.5 501.8 291.7 516 320.2 516C348.7 516 374 501.8 389.1 480L251.2 480zM98.5 448L542 448C526.5 339.5 433.1 256 320.2 256C207.3 256 114 339.5 98.5 448z"/></svg>