<svg xmlns="http://www.w3.org/2000/svg" viewBox="0 0 640 640"><!--! Font Awesome Pro 7.1.0 by @fontawesome - https://fontawesome.com License - https://fontawesome.com/license (Commercial License) Copyright 2025 Fonticons, Inc. --><path fill="currentColor" d="M448 96L192 96C174.3 96 160 110.3 160 128L160 512C160 529.7 174.3 544 192 544L448 544C465.7 544 480 529.7 480 512L480 128C480 110.3 465.7 96 448 96zM192 64L448 64C483.3 64 512 92.7 512 128L512 512C512 547.3 483.3 576 448 576L192 576C156.7 576 128 547.3 128 512L128 128C128 92.7 156.7 64 192 64zM256 336L256 432C256 440.8 263.2 448 272 448L368 448C376.8 448 384 440.8 384 432L384 336L256 336zM384 304L384 208C384 199.2 376.8 192 368 192L272 192C263.2 192 256 199.2 256 208L256 304L384 304zM272 160L368 160C394.5 160 416 181.5 416 208L416 432C416 458.5 394.5 480 368 480L272 480C245.5 480 224 458.5 224 432L224 208C224 181.5 245.5 160 272 160zM304 224L336 224C344.8 224 352 231.2 352 240C352 248.8 344.8 256 336 256L304 256C295.2 256 288 248.8 288 240C288 231.2 295.2 224 304 224z"/></svg>