<svg xmlns="http://www.w3.org/2000/svg" viewBox="0 0 640 640"><!--! Font Awesome Pro 7.1.0 by @fontawesome - https://fontawesome.com License - https://fontawesome.com/license (Commercial License) Copyright 2025 Fonticons, Inc. --><path fill="currentColor" d="M48 160C39.2 160 32 167.2 32 176C32 184.8 39.2 192 48 192L112 192L112 305.6C75.5 313 48 345.3 48 384C48 432 104 512 128 512C152 512 208 432 208 384C208 345.3 180.5 313 144 305.6L144 192L304 192L304 305.6C267.5 313 240 345.3 240 384C240 432 296 512 320 512C344 512 400 432 400 384C400 345.3 372.5 313 336 305.6L336 192L496 192L496 305.6C459.5 313 432 345.3 432 384C432 432 488 512 512 512C536 512 592 432 592 384C592 345.3 564.5 313 528 305.6L528 192L592 192C600.8 192 608 184.8 608 176C608 167.2 600.8 160 592 160L48 160zM128 336C154.5 336 176 357.5 176 384C176 398.5 166.2 424 150.2 448.5C142.4 460.4 134.4 470.1 128 476.1C121.6 470.1 113.5 460.3 105.8 448.5C89.8 424 80 398.5 80 384C80 357.5 101.5 336 128 336zM320 336C346.5 336 368 357.5 368 384C368 398.5 358.2 424 342.2 448.5C334.4 460.4 326.4 470.1 320 476.1C313.6 470.1 305.5 460.3 297.8 448.5C281.8 424 272 398.5 272 384C272 357.5 293.5 336 320 336zM464 384C464 357.5 485.5 336 512 336C538.5 336 560 357.5 560 384C560 398.5 550.2 424 534.2 448.5C526.4 460.4 518.4 470.1 512 476.1C505.6 470.1 497.5 460.3 489.8 448.5C473.8 424 464 398.5 464 384z"/></svg>