<svg xmlns="http://www.w3.org/2000/svg" viewBox="0 0 640 640"><!--! Font Awesome Pro 7.1.0 by @fontawesome - https://fontawesome.com License - https://fontawesome.com/license (Commercial License) Copyright 2025 Fonticons, Inc. --><path fill="currentColor" d="M256.4 96C339.4 96 407.7 159.2 415.6 240.1C418.5 239.7 421.5 239.6 424.5 239.6L447.7 239.6C439.4 141.2 356.9 64 256.4 64C150.4 64 64.4 150 64.4 256C64.4 307.2 84.4 353.7 117.1 388.1C140.7 413 160.4 443.4 160.4 477.7L160.4 496C160.4 540.2 196.2 576 240.4 576L272.4 576C275.9 576 279.3 575.8 282.6 575.4C281.7 574.1 280.9 572.7 280.2 571.3L265 544L240.4 544C213.9 544 192.4 522.5 192.4 496L192.4 480L250.3 480C252.9 468.3 258.5 457.2 266.7 448L188.8 448C180.7 414.7 160.2 387 140.3 366.1C113.1 337.4 96.4 298.7 96.4 256C96.4 167.6 168 96 256.4 96zM176.4 240C176.4 204.7 205.1 176 240.4 176C249.2 176 256.4 168.8 256.4 160C256.4 151.2 249.2 144 240.4 144C187.4 144 144.4 187 144.4 240C144.4 248.8 151.6 256 160.4 256C169.2 256 176.4 248.8 176.4 240zM424.6 319.6L472.6 319.6L472.6 330.2C472.6 346.8 481.9 360.6 494.5 367.9C507.2 375.3 523.9 376.4 538.2 368.1L547.4 362.8L571.4 404.4L562.1 409.8C547.8 418.1 540.4 433 540.4 447.6C540.4 462.2 547.8 477.2 562.1 485.4L571.4 490.8L547.4 532.4L538.2 527.1C523.9 518.8 507.2 519.9 494.5 527.3C481.9 534.6 472.6 548.4 472.6 565L472.6 575.6L424.6 575.6L424.6 565.2C424.6 548.5 415.2 534.6 402.5 527.3C389.8 520 373.1 518.8 358.7 527.1L349.7 532.3L325.7 490.7L334.6 485.6C349 477.3 356.4 462.2 356.4 447.5C356.4 432.8 349 417.7 334.6 409.4L325.7 404.3L349.7 362.7L358.7 367.9C373.1 376.2 389.8 375.1 402.5 367.7C415.2 360.4 424.6 346.5 424.6 329.8L424.6 319.4zM416.6 287.6C403.3 287.6 392.6 298.3 392.6 311.6L392.6 330C392.6 334.2 390.2 338 386.5 340.2C382.8 342.4 378.3 342.5 374.7 340.4L358.8 331.2C347.3 324.6 332.6 328.5 326 340L294 395.4C287.4 406.9 291.3 421.6 302.8 428.2L318.6 437.3C322.3 439.4 324.4 443.4 324.4 447.7C324.4 452 322.3 455.9 318.6 458.1L302.8 467.2C291.3 473.8 287.4 488.5 294 500L326 555.4C332.6 566.9 347.3 570.8 358.8 564.2L374.7 555C378.4 552.9 382.9 553 386.5 555.2C390.1 557.4 392.6 561.1 392.6 565.4L392.6 583.8C392.6 597.1 403.3 607.8 416.6 607.8L480.6 607.8C493.9 607.8 504.6 597.1 504.6 583.8L504.6 565.2C504.6 561 507 557.3 510.6 555.2C514.2 553.1 518.7 552.9 522.3 555L538.4 564.3C549.9 570.9 564.6 567 571.2 555.5L603.2 500.1C609.8 488.6 605.9 473.9 594.4 467.3L578.1 457.9C574.5 455.8 572.4 451.9 572.4 447.8C572.4 443.7 574.5 439.8 578.1 437.7L594.4 428.3C605.9 421.7 609.8 407 603.2 395.5L571.2 340.1C564.6 328.6 549.9 324.7 538.4 331.3L522.3 340.6C518.7 342.7 514.2 342.5 510.6 340.4C507 338.3 504.6 334.5 504.6 330.4L504.6 311.8C504.6 298.5 493.9 287.8 480.6 287.8L416.6 287.8zM504.4 447.8C504.4 416.9 479.3 391.8 448.4 391.8C417.5 391.8 392.4 416.9 392.4 447.8C392.4 478.7 417.5 503.8 448.4 503.8C479.3 503.8 504.4 478.7 504.4 447.8zM448.4 423.8C461.7 423.8 472.4 434.5 472.4 447.8C472.4 461.1 461.7 471.8 448.4 471.8C435.1 471.8 424.4 461.1 424.4 447.8C424.4 434.5 435.1 423.8 448.4 423.8z"/></svg>