<svg xmlns="http://www.w3.org/2000/svg" viewBox="0 0 640 640"><!--! Font Awesome Pro 7.1.0 by @fontawesome - https://fontawesome.com License - https://fontawesome.com/license (Commercial License) Copyright 2025 Fonticons, Inc. --><path fill="currentColor" d="M376.7 304C381.5 288.9 384 272.7 384 256C384 167.6 312.4 96 224 96C135.6 96 64 167.6 64 256C64 298.7 80.7 337.4 107.9 366.1C127.8 387 148.3 414.8 156.4 448L272 448L272 480L160 480L160 496C160 522.5 181.5 544 208 544L240 544C252.3 544 263.6 539.4 272.1 531.7C272.6 543.7 275.2 555.1 279.6 565.5C267.9 572.2 254.4 576 240 576L208 576C163.8 576 128 540.2 128 496L128 477.7C128 443.4 108.3 413 84.7 388.1C52 353.7 32 307.2 32 256C32 150 118 64 224 64C330 64 416 150 416 256C416 272.6 413.9 288.7 410 304L376.7 304zM208 176C172.7 176 144 204.7 144 240C144 248.8 136.8 256 128 256C119.2 256 112 248.8 112 240C112 187 155 144 208 144C216.8 144 224 151.2 224 160C224 168.8 216.8 176 208 176zM352 400L352 528C352 536.8 359.2 544 368 544L416 544C421 544 425.8 546.4 428.8 550.4L464 597.3L499.2 550.4C502.2 546.4 507 544 512 544L560 544C568.8 544 576 536.8 576 528L576 400C576 391.2 568.8 384 560 384L368 384C359.2 384 352 391.2 352 400zM368 352L560 352C586.5 352 608 373.5 608 400L608 528C608 554.5 586.5 576 560 576L520 576L476.8 633.6C473.8 637.6 469 640 464 640C459 640 454.2 637.6 451.2 633.6L408 576L368 576C341.5 576 320 554.5 320 528L320 400C320 373.5 341.5 352 368 352z"/></svg>