<svg xmlns="http://www.w3.org/2000/svg" viewBox="0 0 640 640"><!--! Font Awesome Pro 7.1.0 by @fontawesome - https://fontawesome.com License - https://fontawesome.com/license (Commercial License) Copyright 2025 Fonticons, Inc. --><path fill="currentColor" d="M59.3 36.8C53.1 30.6 42.9 30.6 36.7 36.8C30.5 43 30.5 53.2 36.7 59.4L580.7 603.4C586.9 609.6 597.1 609.6 603.3 603.4C609.5 597.2 609.5 587 603.3 580.8L437.5 415C443.9 405.5 451.4 396.5 459.3 388.2C492 353.8 512 307.3 512 256.1C512 150.1 426 64.1 320 64.1C256.4 64.1 200 95 165.1 142.7L59.3 36.8zM188 165.5C216.8 123.5 265.2 96 320 96C408.4 96 480 167.6 480 256C480 298.7 463.3 337.4 436.1 366.1C428.8 373.8 421.4 382.5 414.5 392L243 220.5C251.2 194.7 275.4 176 304 176C312.8 176 320 168.8 320 160C320 151.2 312.8 144 304 144C266.8 144 234.6 165.2 218.6 196.1L188 165.5zM128 256C128 307.2 148 353.7 180.7 388.1C204.3 413 224 443.4 224 477.7L224 496C224 540.2 259.8 576 304 576L336 576C376.8 576 410.5 545.4 415.4 505.9L357.5 448L252.4 448C244.3 414.7 223.8 387 203.9 366.1C176.7 337.4 160 298.7 160 256C160 254.2 160 252.4 160.1 250.6L131.1 221.6C129.1 232.8 128 244.3 128 256zM256 496L256 480L384 480L384 496C384 522.5 362.5 544 336 544L304 544C277.5 544 256 522.5 256 496z"/></svg>