<svg xmlns="http://www.w3.org/2000/svg" viewBox="0 0 640 640"><!--! Font Awesome Pro 7.1.0 by @fontawesome - https://fontawesome.com License - https://fontawesome.com/license (Commercial License) Copyright 2025 Fonticons, Inc. --><path fill="currentColor" d="M55.2 97.7L119.2 129.7C127.1 133.7 130.3 143.3 126.4 151.2C122.5 159.1 112.8 162.3 104.9 158.4L40.9 126.4C33 122.4 29.8 112.8 33.7 104.9C37.6 97 47.3 93.8 55.2 97.7zM599.2 126.3L535.2 158.3C527.3 162.3 517.7 159 513.7 151.1C509.7 143.2 513 133.6 520.9 129.6L584.9 97.6C592.8 93.6 602.4 96.9 606.4 104.8C610.4 112.7 607.1 122.3 599.2 126.3zM16 256L80 256C88.8 256 96 263.2 96 272C96 280.8 88.8 288 80 288L16 288C7.2 288 0 280.8 0 272C0 263.2 7.2 256 16 256zM560 256L624 256C632.8 256 640 263.2 640 272C640 280.8 632.8 288 624 288L560 288C551.2 288 544 280.8 544 272C544 263.2 551.2 256 560 256zM480 384L496 384C522.5 384 544 405.5 544 432L544 496C544 522.5 522.5 544 496 544L144 544C117.5 544 96 522.5 96 496L96 432C96 405.5 117.5 384 144 384L160 384L160 256C160 167.6 231.6 96 320 96C408.4 96 480 167.6 480 256L480 384zM448 384L448 256C448 185.3 390.7 128 320 128C249.3 128 192 185.3 192 256L192 384L448 384zM128 432L128 496C128 504.8 135.2 512 144 512L496 512C504.8 512 512 504.8 512 496L512 432C512 423.2 504.8 416 496 416L144 416C135.2 416 128 423.2 128 432zM320 192C284.7 192 256 220.7 256 256C256 264.8 248.8 272 240 272C231.2 272 224 264.8 224 256C224 203 267 160 320 160C328.8 160 336 167.2 336 176C336 184.8 328.8 192 320 192z"/></svg>