<svg xmlns="http://www.w3.org/2000/svg" viewBox="0 0 640 640"><!--! Font Awesome Pro 7.1.0 by @fontawesome - https://fontawesome.com License - https://fontawesome.com/license (Commercial License) Copyright 2025 Fonticons, Inc. --><path fill="currentColor" d="M192 96L448 96C465.7 96 480 110.3 480 128L480 512C480 529.7 465.7 544 448 544L192 544C174.3 544 160 529.7 160 512L160 128C160 110.3 174.3 96 192 96zM448 64L192 64C156.7 64 128 92.7 128 128L128 512C128 547.3 156.7 576 192 576L448 576C483.3 576 512 547.3 512 512L512 128C512 92.7 483.3 64 448 64zM256 432L256 336L384 336L384 432C384 440.8 376.8 448 368 448L272 448C263.2 448 256 440.8 256 432zM256 304L256 208C256 199.2 263.2 192 272 192L368 192C376.8 192 384 199.2 384 208L384 304L256 304zM224 208L224 432C224 458.5 245.5 480 272 480L368 480C394.5 480 416 458.5 416 432L416 208C416 181.5 394.5 160 368 160L272 160C245.5 160 224 181.5 224 208z"/></svg>