<svg xmlns="http://www.w3.org/2000/svg" viewBox="0 0 640 640"><!--! Font Awesome Pro 7.1.0 by @fontawesome - https://fontawesome.com License - https://fontawesome.com/license (Commercial License) Copyright 2025 Fonticons, Inc. --><path fill="currentColor" d="M480 256C480 298.7 463.3 337.4 436.1 366.1C416.2 387 395.7 414.8 387.6 448L252.4 448C244.3 414.7 223.8 387 203.9 366.1C176.7 337.4 160 298.7 160 256C160 167.6 231.6 96 320 96C408.4 96 480 167.6 480 256zM256 480L384 480L384 496C384 522.5 362.5 544 336 544L304 544C277.5 544 256 522.5 256 496L256 480zM416 477.7C416 443.4 435.7 413 459.3 388.1C492 353.7 512 307.2 512 256C512 150 426 64 320 64C214 64 128 150 128 256C128 307.2 148 353.7 180.7 388.1C204.3 413 224 443.4 224 477.7L224 496C224 540.2 259.8 576 304 576L336 576C380.2 576 416 540.2 416 496L416 477.7zM304 168C304 159.2 311.2 152 320 152C328.8 152 336 159.2 336 168L336 176L352 176C360.8 176 368 183.2 368 192C368 200.8 360.8 208 352 208L302.3 208C294.4 208 288 214.4 288 222.3C288 229.3 293.1 235.3 300 236.4L345.3 244C367.6 247.7 384 267 384 289.7C384 315.3 363.3 336 337.7 336L336 336L336 344C336 352.8 328.8 360 320 360C311.2 360 304 352.8 304 344L304 336L280 336C271.2 336 264 328.8 264 320C264 311.2 271.2 304 280 304L337.7 304C345.6 304 352 297.6 352 289.7C352 282.7 346.9 276.7 340 275.6L294.7 268C272.4 264.3 256 245 256 222.3C256 196.7 276.7 176 302.3 176L304 176L304 168z"/></svg>