<svg xmlns="http://www.w3.org/2000/svg" viewBox="0 0 640 640"><!--! Font Awesome Pro 7.1.0 by @fontawesome - https://fontawesome.com License - https://fontawesome.com/license (Commercial License) Copyright 2025 Fonticons, Inc. --><path fill="currentColor" d="M96 112C96 103.2 88.8 96 80 96C71.2 96 64 103.2 64 112L64 464C64 508.2 99.8 544 144 544L560 544C568.8 544 576 536.8 576 528C576 519.2 568.8 512 560 512L144 512C117.5 512 96 490.5 96 464L96 112zM539.3 219.3C545.5 213.1 545.5 202.9 539.3 196.7C533.1 190.5 522.9 190.5 516.7 196.7L384 329.4L299.3 244.7C293.1 238.5 282.9 238.5 276.7 244.7L164.7 356.7C158.5 362.9 158.5 373.1 164.7 379.3C170.9 385.5 181.1 385.5 187.3 379.3L288 278.6L372.7 363.3C378.9 369.5 389.1 369.5 395.3 363.3L539.3 219.3z"/></svg>