<svg xmlns="http://www.w3.org/2000/svg" viewBox="0 0 640 640"><!--! Font Awesome Pro 7.1.0 by @fontawesome - https://fontawesome.com License - https://fontawesome.com/license (Commercial License) Copyright 2025 Fonticons, Inc. --><path fill="currentColor" d="M112 112C103.2 112 96 119.2 96 128C96 136.8 103.2 144 112 144L272 144C280.8 144 288 136.8 288 128C288 119.2 280.8 112 272 112L112 112zM112 240C103.2 240 96 247.2 96 256C96 264.8 103.2 272 112 272L272 272C280.8 272 288 264.8 288 256C288 247.2 280.8 240 272 240L112 240zM112 368C103.2 368 96 375.2 96 384C96 392.8 103.2 400 112 400L272 400C280.8 400 288 392.8 288 384C288 375.2 280.8 368 272 368L112 368zM112 496C103.2 496 96 503.2 96 512C96 520.8 103.2 528 112 528L272 528C280.8 528 288 520.8 288 512C288 503.2 280.8 496 272 496L112 496zM368 112C359.2 112 352 119.2 352 128C352 136.8 359.2 144 368 144L528 144C536.8 144 544 136.8 544 128C544 119.2 536.8 112 528 112L368 112zM368 240C359.2 240 352 247.2 352 256C352 264.8 359.2 272 368 272L528 272C536.8 272 544 264.8 544 256C544 247.2 536.8 240 528 240L368 240zM368 368C359.2 368 352 375.2 352 384C352 392.8 359.2 400 368 400L528 400C536.8 400 544 392.8 544 384C544 375.2 536.8 368 528 368L368 368zM368 496C359.2 496 352 503.2 352 512C352 520.8 359.2 528 368 528L528 528C536.8 528 544 520.8 544 512C544 503.2 536.8 496 528 496L368 496z"/></svg>