<svg xmlns="http://www.w3.org/2000/svg" viewBox="0 0 640 640"><!--! Font Awesome Pro 7.1.0 by @fontawesome - https://fontawesome.com License - https://fontawesome.com/license (Commercial License) Copyright 2025 Fonticons, Inc. --><path fill="currentColor" d="M171.3 100.7C165.1 94.5 154.9 94.5 148.7 100.7L68.7 180.7C62.5 186.9 62.5 197.1 68.7 203.3C74.9 209.5 85.1 209.5 91.3 203.3L144 150.6L144 489.4L91.3 436.7C85.1 430.5 74.9 430.5 68.7 436.7C62.5 442.9 62.5 453.1 68.7 459.3L148.7 539.3C154.9 545.5 165.1 545.5 171.3 539.3L251.3 459.3C257.5 453.1 257.5 442.9 251.3 436.7C245.1 430.5 234.9 430.5 228.7 436.7L176 489.4L176 150.7L228.7 203.4C234.9 209.6 245.1 209.6 251.3 203.4C257.5 197.2 257.5 187 251.3 180.8L171.3 100.8zM336 128C327.2 128 320 135.2 320 144C320 152.8 327.2 160 336 160L560 160C568.8 160 576 152.8 576 144C576 135.2 568.8 128 560 128L336 128zM336 304C327.2 304 320 311.2 320 320C320 328.8 327.2 336 336 336L560 336C568.8 336 576 328.8 576 320C576 311.2 568.8 304 560 304L336 304zM336 480C327.2 480 320 487.2 320 496C320 504.8 327.2 512 336 512L560 512C568.8 512 576 504.8 576 496C576 487.2 568.8 480 560 480L336 480z"/></svg>