<svg xmlns="http://www.w3.org/2000/svg" viewBox="0 0 640 640"><!--! Font Awesome Pro 7.1.0 by @fontawesome - https://fontawesome.com License - https://fontawesome.com/license (Commercial License) Copyright 2025 Fonticons, Inc. --><path fill="currentColor" d="M318.9 117.7C322.1 109.5 318 100.2 309.7 97C301.4 93.8 292.2 97.9 289 106.2L129 522.2C125.8 530.4 129.9 539.7 138.2 542.9C146.5 546.1 155.7 542 158.9 533.7L318.9 117.7zM403.6 96.4C395 94.4 386.4 99.8 384.4 108.4L288.4 524.4C286.4 533 291.8 541.6 300.4 543.6C309 545.6 317.6 540.2 319.6 531.6L415.6 115.6C417.6 107 412.2 98.4 403.6 96.4zM496 96C487.2 96 480 103.2 480 112L480 528C480 536.8 487.2 544 496 544C504.8 544 512 536.8 512 528L512 112C512 103.2 504.8 96 496 96z"/></svg>