<svg xmlns="http://www.w3.org/2000/svg" viewBox="0 0 640 640"><!--! Font Awesome Pro 7.1.0 by @fontawesome - https://fontawesome.com License - https://fontawesome.com/license (Commercial License) Copyright 2025 Fonticons, Inc. --><path fill="currentColor" d="M32 320C32 214 118 128 224 128L272 128C280.8 128 288 135.2 288 144C288 152.8 280.8 160 272 160L224 160C135.6 160 64 231.6 64 320C64 408.4 135.6 480 224 480L272 480C280.8 480 288 487.2 288 496C288 504.8 280.8 512 272 512L224 512C118 512 32 426 32 320zM192 320C192 311.2 199.2 304 208 304L432 304C440.8 304 448 311.2 448 320C448 328.8 440.8 336 432 336L208 336C199.2 336 192 328.8 192 320zM416 128C522 128 608 214 608 320C608 426 522 512 416 512L368 512C359.2 512 352 504.8 352 496C352 487.2 359.2 480 368 480L416 480C504.4 480 576 408.4 576 320C576 231.6 504.4 160 416 160L368 160C359.2 160 352 152.8 352 144C352 135.2 359.2 128 368 128L416 128z"/></svg>