<svg xmlns="http://www.w3.org/2000/svg" viewBox="0 0 640 640"><!--! Font Awesome Pro 7.1.0 by @fontawesome - https://fontawesome.com License - https://fontawesome.com/license (Commercial License) Copyright 2025 Fonticons, Inc. --><path fill="currentColor" d="M336 352C397.9 352 448 301.9 448 240C448 178.1 397.9 128 336 128L176 128C114.1 128 64 178.1 64 240C64 282.3 87.5 319.2 122.2 338.2C118.7 348.5 116 359.2 114.3 370.2C65.6 347 32 297.5 32 240C32 160.5 96.5 96 176 96L336 96C415.5 96 480 160.5 480 240C480 319.5 415.5 384 336 384L272 384C263.2 384 256 376.8 256 368C256 359.2 263.2 352 272 352L336 352zM576 400C576 357.7 552.5 320.8 517.8 301.8C521.3 291.5 523.9 280.9 525.6 269.9C574.3 293 607.9 342.6 607.9 400.1C607.9 479.6 543.4 544.1 463.9 544.1L303.9 544.1C224.4 544.1 159.9 479.6 159.9 400.1C159.9 320.6 224.4 256.1 303.9 256.1L367.9 256.1C376.7 256.1 383.9 263.3 383.9 272.1C383.9 280.9 376.7 288.1 367.9 288.1L303.9 288.1C242 288.1 191.9 338.2 191.9 400.1C191.9 462 242 512.1 303.9 512.1L463.9 512.1C525.8 512.1 575.9 462 575.9 400.1z"/></svg>