<svg xmlns="http://www.w3.org/2000/svg" viewBox="0 0 640 640"><!--! Font Awesome Pro 7.1.0 by @fontawesome - https://fontawesome.com License - https://fontawesome.com/license (Commercial License) Copyright 2025 Fonticons, Inc. --><path fill="currentColor" d="M59.3 36.8C53.1 30.6 42.9 30.6 36.7 36.8C30.5 43 30.5 53.2 36.7 59.4L580.7 603.4C586.9 609.6 597.1 609.6 603.3 603.4C609.5 597.2 609.5 587 603.3 580.8L510 487.5C568.5 454.6 608 391.9 608 320C608 214 522 128 416 128L368 128C359.2 128 352 135.2 352 144C352 152.8 359.2 160 368 160L416 160C504.4 160 576 231.6 576 320C576 383.1 539.4 437.7 486.3 463.8L358.5 336L432 336C440.8 336 448 328.8 448 320C448 311.2 440.8 304 432 304L326.5 304L186.8 164.3C198.8 161.5 211.2 160 224 160L272 160C280.8 160 288 152.8 288 144C288 135.2 280.8 128 272 128L224 128C202 128 180.8 131.7 161.1 138.5L59.3 36.8zM32 320C32 426 118 512 224 512L272 512C280.8 512 288 504.8 288 496C288 487.2 280.8 480 272 480L224 480C135.6 480 64 408.4 64 320C64 274.4 83.1 233.3 113.6 204.2L91 181.5C54.6 216.5 32 265.6 32 320z"/></svg>