<svg xmlns="http://www.w3.org/2000/svg" viewBox="0 0 640 640"><!--! Font Awesome Pro 7.1.0 by @fontawesome - https://fontawesome.com License - https://fontawesome.com/license (Commercial License) Copyright 2025 Fonticons, Inc. --><path fill="currentColor" d="M238.5 128C204.3 128 171.8 143.4 150.1 169.9L35.6 309.9C30.9 315.7 30.8 324 35.4 329.9L112.1 428C157.6 486 227.3 520 301.1 520L338.8 520C412.6 520 482.3 486 527.8 427.9L604.5 329.8C609.1 323.9 609 315.6 604.3 309.8L489.8 169.8C468.1 143.3 435.7 127.9 401.4 127.9C382.6 127.9 364.1 132.5 347.6 141.4L320 156.3L292.3 141.5C275.7 132.7 257.3 128 238.5 128zM174.9 190.1C190.5 171 213.9 160 238.5 160C252 160 265.3 163.3 277.2 169.7L312.4 188.5C317.1 191 322.8 191 327.5 188.5L362.7 169.7C374.6 163.3 387.9 160 401.4 160C426 160 449.4 171.1 465 190.1L571.4 320.2L502.6 408.2C463.2 458.6 402.8 488 338.9 488L301.2 488C237.2 488 176.8 458.6 137.4 408.2L68.6 320.2L175 190.1zM229 240.8C223.3 238.9 216.9 240.4 212.6 244.7L148.6 308.7C145.2 312.1 143.5 316.8 144 321.6C144.5 326.4 147.1 330.7 151 333.3L198.6 365.1C232.8 387.9 272.9 400 314 400L325.7 400C366.8 400 406.9 387.8 441.1 365.1L488.7 333.3C492.7 330.6 495.3 326.3 495.7 321.6C496.1 316.9 494.5 312.1 491.1 308.7L427.1 244.7C422.8 240.4 416.5 238.9 410.7 240.8L319.8 271.1L228.9 240.8zM185.1 317.5L228.3 274.3L314.9 303.2C318.2 304.3 321.7 304.3 325 303.2L411.6 274.3L454.8 317.5L423.4 338.4C394.5 357.7 360.5 368 325.8 368L314.1 368C279.4 368 245.4 357.7 216.5 338.4L185.1 317.5z"/></svg>