<svg xmlns="http://www.w3.org/2000/svg" viewBox="0 0 640 640"><!--! Font Awesome Pro 7.1.0 by @fontawesome - https://fontawesome.com License - https://fontawesome.com/license (Commercial License) Copyright 2025 Fonticons, Inc. --><path fill="currentColor" d="M128 160C110.3 160 96 174.3 96 192L96 448C96 465.7 110.3 480 128 480L512 480C529.7 480 544 465.7 544 448L544 192C544 174.3 529.7 160 512 160L128 160zM64 192C64 156.7 92.7 128 128 128L512 128C547.3 128 576 156.7 576 192L576 448C576 483.3 547.3 512 512 512L128 512C92.7 512 64 483.3 64 448L64 192zM192 296C178.7 296 168 285.3 168 272C168 258.7 178.7 248 192 248C205.3 248 216 258.7 216 272C216 285.3 205.3 296 192 296zM272 256L464 256C472.8 256 480 263.2 480 272C480 280.8 472.8 288 464 288L272 288C263.2 288 256 280.8 256 272C256 263.2 263.2 256 272 256zM272 352L464 352C472.8 352 480 359.2 480 368C480 376.8 472.8 384 464 384L272 384C263.2 384 256 376.8 256 368C256 359.2 263.2 352 272 352zM168 368C168 354.7 178.7 344 192 344C205.3 344 216 354.7 216 368C216 381.3 205.3 392 192 392C178.7 392 168 381.3 168 368z"/></svg>