<svg xmlns="http://www.w3.org/2000/svg" viewBox="0 0 640 640"><!--! Font Awesome Pro 7.1.0 by @fontawesome - https://fontawesome.com License - https://fontawesome.com/license (Commercial License) Copyright 2025 Fonticons, Inc. --><path fill="currentColor" d="M88 136C74.7 136 64 146.7 64 160C64 173.3 74.7 184 88 184C101.3 184 112 173.3 112 160C112 146.7 101.3 136 88 136zM208 144C199.2 144 192 151.2 192 160C192 168.8 199.2 176 208 176L560 176C568.8 176 576 168.8 576 160C576 151.2 568.8 144 560 144L208 144zM208 304C199.2 304 192 311.2 192 320C192 328.8 199.2 336 208 336L560 336C568.8 336 576 328.8 576 320C576 311.2 568.8 304 560 304L208 304zM208 464C199.2 464 192 471.2 192 480C192 488.8 199.2 496 208 496L560 496C568.8 496 576 488.8 576 480C576 471.2 568.8 464 560 464L208 464zM112 320C112 306.7 101.3 296 88 296C74.7 296 64 306.7 64 320C64 333.3 74.7 344 88 344C101.3 344 112 333.3 112 320zM88 456C74.7 456 64 466.7 64 480C64 493.3 74.7 504 88 504C101.3 504 112 493.3 112 480C112 466.7 101.3 456 88 456z"/></svg>