<svg xmlns="http://www.w3.org/2000/svg" viewBox="0 0 640 640"><!--! Font Awesome Pro 7.1.0 by @fontawesome - https://fontawesome.com License - https://fontawesome.com/license (Commercial License) Copyright 2025 Fonticons, Inc. --><path fill="currentColor" d="M568.2 69.4C588.4 64.4 608 79.6 608 100.4L608 195.4C608 210.1 598 222.9 583.8 226.4L480 252.5L480 464C480 517 429.9 560 368 560C306.1 560 256 517 256 464C256 411 306.1 368 368 368C399.3 368 427.7 379 448 396.8L448 124.5C448 109.8 458 97 472.2 93.5L568.2 69.5zM368 400C319 400 288 433.1 288 464C288 494.9 319 528 368 528C417 528 448 494.9 448 464C448 433.1 417 400 368 400zM480 219.5L576 195.5L576 100.5L480 124.5L480 219.5zM80 144L368 144C376.8 144 384 151.2 384 160C384 168.8 376.8 176 368 176L80 176C71.2 176 64 168.8 64 160C64 151.2 71.2 144 80 144zM80 304L240 304C248.8 304 256 311.2 256 320C256 328.8 248.8 336 240 336L80 336C71.2 336 64 328.8 64 320C64 311.2 71.2 304 80 304zM80 464L192 464C200.8 464 208 471.2 208 480C208 488.8 200.8 496 192 496L80 496C71.2 496 64 488.8 64 480C64 471.2 71.2 464 80 464z"/></svg>