<svg xmlns="http://www.w3.org/2000/svg" viewBox="0 0 640 640"><!--! Font Awesome Pro 7.1.0 by @fontawesome - https://fontawesome.com License - https://fontawesome.com/license (Commercial License) Copyright 2025 Fonticons, Inc. --><path fill="currentColor" d="M160 128L480 128C497.7 128 512 142.3 512 160L512 224L128 224L128 160C128 142.3 142.3 128 160 128zM128 256L512 256L512 480C512 497.7 497.7 512 480 512L160 512C142.3 512 128 497.7 128 480L128 256zM96 160L96 480C96 515.3 124.7 544 160 544L480 544C515.3 544 544 515.3 544 480L544 160C544 124.7 515.3 96 480 96L160 96C124.7 96 96 124.7 96 160zM208 320C199.2 320 192 327.2 192 336C192 344.8 199.2 352 208 352L432 352C440.8 352 448 344.8 448 336C448 327.2 440.8 320 432 320L208 320zM208 416C199.2 416 192 423.2 192 432C192 440.8 199.2 448 208 448L432 448C440.8 448 448 440.8 448 432C448 423.2 440.8 416 432 416L208 416zM408 156C403.1 156 398.8 158.9 396.9 163.4C395 167.9 396.1 173 399.5 176.5L423.5 200.5C428.2 205.2 435.8 205.2 440.5 200.5L464.5 176.5C467.9 173.1 469 167.9 467.1 163.4C465.2 158.9 460.9 156 456 156L408 156z"/></svg>