<svg xmlns="http://www.w3.org/2000/svg" viewBox="0 0 640 640"><!--! Font Awesome Pro 7.1.0 by @fontawesome - https://fontawesome.com License - https://fontawesome.com/license (Commercial License) Copyright 2025 Fonticons, Inc. --><path fill="currentColor" d="M64 128C64 136.8 71.2 144 80 144L120 144L120 256L80 256C71.2 256 64 263.2 64 272C64 280.8 71.2 288 80 288L192 288C200.8 288 208 280.8 208 272C208 263.2 200.8 256 192 256L152 256L152 128C152 119.2 144.8 112 136 112L80 112C71.2 112 64 119.2 64 128zM256 160C256 168.8 263.2 176 272 176L560 176C568.8 176 576 168.8 576 160C576 151.2 568.8 144 560 144L272 144C263.2 144 256 151.2 256 160zM256 320C256 328.8 263.2 336 272 336L560 336C568.8 336 576 328.8 576 320C576 311.2 568.8 304 560 304L272 304C263.2 304 256 311.2 256 320zM256 480C256 488.8 263.2 496 272 496L560 496C568.8 496 576 488.8 576 480C576 471.2 568.8 464 560 464L272 464C263.2 464 256 471.2 256 480zM141 352C129.4 352 118 355.4 108.3 361.9L71.1 386.7C63.7 391.6 61.8 401.5 66.7 408.9C71.6 416.3 81.5 418.2 88.9 413.3L126 388.5C130.4 385.5 135.6 384 141 384L142.9 384C156.7 384 168 395.2 168 409.1C168 417.8 163.5 425.9 156.1 430.4L76.5 479.4C68.7 484.1 64 492.6 64 501.7C64 516.2 75.8 528 90.3 528L192 528C200.8 528 208 520.8 208 512C208 503.2 200.8 496 192 496L110.5 496L172.8 457.7C189.7 447.3 200 428.9 200 409.1C200 377.6 174.5 352 142.9 352L141 352z"/></svg>