<svg xmlns="http://www.w3.org/2000/svg" viewBox="0 0 640 640"><!--! Font Awesome Pro 7.1.0 by @fontawesome - https://fontawesome.com License - https://fontawesome.com/license (Commercial License) Copyright 2025 Fonticons, Inc. --><path fill="currentColor" d="M112 176L112 144L144 144L144 176L112 176zM80 136L80 184C80 197.3 90.7 208 104 208L152 208C165.3 208 176 197.3 176 184L176 136C176 122.7 165.3 112 152 112L104 112C90.7 112 80 122.7 80 136zM240 144C231.2 144 224 151.2 224 160C224 168.8 231.2 176 240 176L560 176C568.8 176 576 168.8 576 160C576 151.2 568.8 144 560 144L240 144zM240 304C231.2 304 224 311.2 224 320C224 328.8 231.2 336 240 336L560 336C568.8 336 576 328.8 576 320C576 311.2 568.8 304 560 304L240 304zM240 464C231.2 464 224 471.2 224 480C224 488.8 231.2 496 240 496L560 496C568.8 496 576 488.8 576 480C576 471.2 568.8 464 560 464L240 464zM112 304L144 304L144 336L112 336L112 304zM104 272C90.7 272 80 282.7 80 296L80 344C80 357.3 90.7 368 104 368L152 368C165.3 368 176 357.3 176 344L176 296C176 282.7 165.3 272 152 272L104 272zM112 496L112 464L144 464L144 496L112 496zM80 456L80 504C80 517.3 90.7 528 104 528L152 528C165.3 528 176 517.3 176 504L176 456C176 442.7 165.3 432 152 432L104 432C90.7 432 80 442.7 80 456z"/></svg>