<svg xmlns="http://www.w3.org/2000/svg" viewBox="0 0 640 640"><!--! Font Awesome Pro 7.1.0 by @fontawesome - https://fontawesome.com License - https://fontawesome.com/license (Commercial License) Copyright 2025 Fonticons, Inc. --><path fill="currentColor" d="M140.5 130.5L98.5 172.5C96.9 168.7 96 164.4 96 160C96 142.3 110.3 128 128 128C132.4 128 136.7 128.9 140.5 130.5zM157.5 147.5C159.1 151.3 160 155.6 160 160C160 177.7 145.7 192 128 192C123.6 192 119.3 191.1 115.5 189.5L157.5 147.5zM192 160C192 124.7 163.3 96 128 96C92.7 96 64 124.7 64 160C64 195.3 92.7 224 128 224C163.3 224 192 195.3 192 160zM256 160C256 168.8 263.2 176 272 176L560 176C568.8 176 576 168.8 576 160C576 151.2 568.8 144 560 144L272 144C263.2 144 256 151.2 256 160zM256 320C256 328.8 263.2 336 272 336L560 336C568.8 336 576 328.8 576 320C576 311.2 568.8 304 560 304L272 304C263.2 304 256 311.2 256 320zM256 480C256 488.8 263.2 496 272 496L560 496C568.8 496 576 488.8 576 480C576 471.2 568.8 464 560 464L272 464C263.2 464 256 471.2 256 480zM128 352C110.3 352 96 337.7 96 320C96 302.3 110.3 288 128 288C145.7 288 160 302.3 160 320C160 337.7 145.7 352 128 352zM128 256C92.7 256 64 284.7 64 320C64 355.3 92.7 384 128 384C163.3 384 192 355.3 192 320C192 284.7 163.3 256 128 256zM128 512C110.3 512 96 497.7 96 480C96 462.3 110.3 448 128 448C145.7 448 160 462.3 160 480C160 497.7 145.7 512 128 512zM128 416C92.7 416 64 444.7 64 480C64 515.3 92.7 544 128 544C163.3 544 192 515.3 192 480C192 444.7 163.3 416 128 416z"/></svg>