<svg xmlns="http://www.w3.org/2000/svg" viewBox="0 0 640 640"><!--! Font Awesome Pro 7.1.0 by @fontawesome - https://fontawesome.com License - https://fontawesome.com/license (Commercial License) Copyright 2025 Fonticons, Inc. --><path fill="currentColor" d="M112 176C120.8 176 128 168.8 128 160C128 151.2 120.8 144 112 144C103.2 144 96 151.2 96 160C96 168.8 103.2 176 112 176zM64 160C64 133.5 85.5 112 112 112C138.5 112 160 133.5 160 160C160 180.9 146.6 198.7 128 205.3L128 304L194.7 304C201.3 285.4 219.1 272 240 272C266.5 272 288 293.5 288 320C288 346.5 266.5 368 240 368C219.1 368 201.3 354.6 194.7 336L128 336L128 448C128 456.8 135.2 464 144 464L194.7 464C201.3 445.4 219.1 432 240 432C266.5 432 288 453.5 288 480C288 506.5 266.5 528 240 528C219.1 528 201.3 514.6 194.7 496L144 496C117.5 496 96 474.5 96 448L96 205.3C77.4 198.7 64 180.9 64 160zM224 160C224 151.2 231.2 144 240 144L560 144C568.8 144 576 151.2 576 160C576 168.8 568.8 176 560 176L240 176C231.2 176 224 168.8 224 160zM352 320C352 311.2 359.2 304 368 304L560 304C568.8 304 576 311.2 576 320C576 328.8 568.8 336 560 336L368 336C359.2 336 352 328.8 352 320zM352 480C352 471.2 359.2 464 368 464L560 464C568.8 464 576 471.2 576 480C576 488.8 568.8 496 560 496L368 496C359.2 496 352 488.8 352 480zM224 320C224 328.8 231.2 336 240 336C248.8 336 256 328.8 256 320C256 311.2 248.8 304 240 304C231.2 304 224 311.2 224 320zM240 496C248.8 496 256 488.8 256 480C256 471.2 248.8 464 240 464C231.2 464 224 471.2 224 480C224 488.8 231.2 496 240 496z"/></svg>