<svg xmlns="http://www.w3.org/2000/svg" viewBox="0 0 640 640"><!--! Font Awesome Pro 7.1.0 by @fontawesome - https://fontawesome.com License - https://fontawesome.com/license (Commercial License) Copyright 2025 Fonticons, Inc. --><path fill="currentColor" d="M224 112C224 103.2 216.8 96 208 96C199.2 96 192 103.2 192 112L192 291.5L140.1 304.5C131.6 306.6 126.3 315.3 128.5 323.9C130.7 332.5 139.3 337.7 147.9 335.5L192 324.5L192 504C192 526.1 209.9 544 232 544L496 544C504.8 544 512 536.8 512 528C512 519.2 504.8 512 496 512L232 512C227.6 512 224 508.4 224 504L224 316.5L403.9 271.5C412.5 269.4 417.7 260.7 415.5 252.1C413.3 243.5 404.7 238.3 396.1 240.5L224 283.5L224 112z"/></svg>