<svg xmlns="http://www.w3.org/2000/svg" viewBox="0 0 640 640"><!--! Font Awesome Pro 7.1.0 by @fontawesome - https://fontawesome.com License - https://fontawesome.com/license (Commercial License) Copyright 2025 Fonticons, Inc. --><path fill="currentColor" d="M336 80L336 176C336 184.8 328.8 192 320 192C311.2 192 304 184.8 304 176L304 80C304 71.2 311.2 64 320 64C328.8 64 336 71.2 336 80zM336 464L336 560C336 568.8 328.8 576 320 576C311.2 576 304 568.8 304 560L304 464C304 455.2 311.2 448 320 448C328.8 448 336 455.2 336 464zM64 320C64 311.2 71.2 304 80 304L176 304C184.8 304 192 311.2 192 320C192 328.8 184.8 336 176 336L80 336C71.2 336 64 328.8 64 320zM464 304L560 304C568.8 304 576 311.2 576 320C576 328.8 568.8 336 560 336L464 336C455.2 336 448 328.8 448 320C448 311.2 455.2 304 464 304zM501 139C507.2 145.2 507.2 155.4 501 161.6L433.1 229.5C426.9 235.7 416.7 235.7 410.5 229.5C404.3 223.3 404.3 213.1 410.5 206.9L478.4 139C484.6 132.8 494.8 132.8 501 139zM229.5 433.1L161.6 501C155.4 507.2 145.2 507.2 139 501C132.8 494.8 132.8 484.6 139 478.4L206.9 410.5C213.1 404.3 223.3 404.3 229.5 410.5C235.7 416.7 235.7 426.9 229.5 433.1zM139 139C145.2 132.8 155.4 132.8 161.6 139L229.5 206.9C235.7 213.1 235.7 223.3 229.5 229.5C223.3 235.7 213.1 235.7 206.9 229.5L139 161.6C132.8 155.4 132.8 145.2 139 139zM433.1 410.5L501 478.4C507.2 484.6 507.2 494.8 501 501C494.8 507.2 484.6 507.2 478.4 501L410.5 433.1C404.3 426.9 404.3 416.7 410.5 410.5C416.7 404.3 426.9 404.3 433.1 410.5z"/></svg>