<svg xmlns="http://www.w3.org/2000/svg" viewBox="0 0 640 640"><!--! Font Awesome Pro 7.1.0 by @fontawesome - https://fontawesome.com License - https://fontawesome.com/license (Commercial License) Copyright 2025 Fonticons, Inc. --><path fill="currentColor" d="M306.7 430.1C315.2 426.2 324.9 426.2 333.4 430.1L512 512L320 96L128 512L306.7 430.1zM320 64C332.5 64 343.8 71.3 349.1 82.6L541.1 498.6C546.7 510.8 544.2 525.1 534.7 534.6C525.2 544.1 510.9 546.7 498.7 541.1L320 459.2L141.3 541.1C129.1 546.7 114.8 544.1 105.3 534.6C95.8 525.1 93.3 510.8 98.9 498.6L290.9 82.6C296.2 71.3 307.5 64 320 64z"/></svg>