<svg xmlns="http://www.w3.org/2000/svg" viewBox="0 0 640 640"><!--! Font Awesome Pro 7.1.0 by @fontawesome - https://fontawesome.com License - https://fontawesome.com/license (Commercial License) Copyright 2025 Fonticons, Inc. --><path fill="currentColor" d="M272.8 346.9C282.4 350.1 289.9 357.6 293 367.1L352 544L512 128L96 288L272.8 346.9zM84.5 258.1L500.5 98.1C512.3 93.6 525.7 96.4 534.6 105.3C543.5 114.2 546.4 127.6 541.8 139.4L381.8 555.4C377 568 364.7 576.2 351.2 575.9C337.7 575.6 325.8 566.8 321.6 554L262.7 377.3L85.9 318.4C73.1 314.1 64.3 302.2 64 288.7C63.7 275.2 71.9 263 84.5 258.1z"/></svg>