<svg xmlns="http://www.w3.org/2000/svg" viewBox="0 0 640 640"><!--! Font Awesome Pro 7.1.0 by @fontawesome - https://fontawesome.com License - https://fontawesome.com/license (Commercial License) Copyright 2025 Fonticons, Inc. --><path fill="currentColor" d="M59.3 36.8C53.1 30.6 42.9 30.6 36.7 36.8C30.5 43 30.5 53.2 36.7 59.4L580.7 603.4C586.9 609.6 597.1 609.6 603.3 603.4C609.5 597.2 609.5 587 603.3 580.8L489.3 466.7C520.1 431.2 540 385.8 543.5 336L576.1 336C584.9 336 592.1 328.8 592.1 320C592.1 311.2 584.9 304 576.1 304L543.5 304C535.6 193 447 104.4 336 96.6L336 64C336 55.2 328.8 48 320 48C311.2 48 304 55.2 304 64L304 96.6C254.2 100.1 208.8 119.9 173.3 150.8L59.3 36.8zM196 173.4C229.5 145.1 272.7 128 320 128C426 128 512 214 512 320C512 367.3 494.9 410.6 466.6 444L409.7 387.1C423.7 368.4 432 345.2 432 320C432 258.1 381.9 208 320 208C294.8 208 271.6 216.3 252.9 230.3L196 173.4zM386.7 364.2L275.8 253.3C288.5 244.9 303.6 240 320 240C364.2 240 400 275.8 400 320C400 336.3 395.1 351.5 386.7 364.2zM96.6 304L64 304C55.2 304 48 311.2 48 320C48 328.8 55.2 336 64 336L96.6 336C104.4 447 193 535.6 304 543.4L304 576C304 584.8 311.2 592 320 592C328.8 592 336 584.8 336 576L336 543.4C368.6 541.1 399.3 531.8 426.6 517L402.8 493.2C377.7 505.2 349.7 511.9 320 511.9C214 511.9 128 425.9 128 319.9C128 290.3 134.7 262.2 146.7 237.1L122.9 213.4C108.1 240.7 98.8 271.4 96.5 304zM208 320C208 381.9 258.1 432 320 432C326.7 432 333.3 431.4 339.8 430.3L308.7 399.2C273.6 394.2 245.8 366.4 240.8 331.3L209.7 300.2C208.6 306.6 208 313.2 208 320z"/></svg>