<svg xmlns="http://www.w3.org/2000/svg" viewBox="0 0 640 640"><!--! Font Awesome Pro 7.1.0 by @fontawesome - https://fontawesome.com License - https://fontawesome.com/license (Commercial License) Copyright 2025 Fonticons, Inc. --><path fill="currentColor" d="M160 252.6C160 166.6 231.1 96 320 96C408.9 96 480 166.6 480 252.6C480 302.9 454.1 362 418.6 418.2C384.6 472 344.6 518.7 320 545.6C295.4 518.7 255.4 471.9 221.4 418.2C185.9 362 160 302.9 160 252.6zM320 64C214 64 128 148.4 128 252.6C128 371.9 248.2 514.9 298.4 569.4C310.2 582.2 329.8 582.2 341.6 569.4C391.8 514.9 512 371.9 512 252.6C512 148.4 426 64 320 64zM320 208C340.6 208 357.2 224.7 357.2 245.2C357.2 263 346.2 272.2 334 277.7C319.3 284.3 303.9 299.2 303.9 320C303.9 328.8 311.1 336 319.9 336C328.7 336 335.9 328.8 335.9 320C335.9 316.2 339.3 310.4 347 306.9C364.8 298.9 389.1 281 389.1 245.2C389.1 207 358.1 176 319.9 176C281.7 176 250.7 207 250.7 245.2C250.7 254 257.9 261.2 266.7 261.2C275.5 261.2 282.7 254 282.7 245.2C282.7 224.6 299.4 208 319.9 208zM340 384C340 373 331 364 320 364C309 364 300 373 300 384C300 395 309 404 320 404C331 404 340 395 340 384z"/></svg>