<svg xmlns="http://www.w3.org/2000/svg" viewBox="0 0 640 640"><!--! Font Awesome Pro 7.1.0 by @fontawesome - https://fontawesome.com License - https://fontawesome.com/license (Commercial License) Copyright 2025 Fonticons, Inc. --><path fill="currentColor" d="M96 252.6C96 166.7 167.1 96 256 96C343.8 96 414.2 164.9 416 249.3C426 245.3 436.6 242.4 447.7 241C441.6 142.2 358.1 64 256.1 64C150.1 64 64.1 148.4 64.1 252.6C64.1 371.9 184.3 514.9 234.5 569.4C246.3 582.2 266 582.2 277.8 569.4C285.3 561.3 294.2 551.3 304.2 539.6L304.2 489.2C286 512.2 269 531.6 256.2 545.6C231.6 518.7 191.6 471.9 157.6 418.2C122.1 362 96.2 302.9 96.2 252.6zM304 256C304 282.5 282.5 304 256 304C229.5 304 208 282.5 208 256C208 229.5 229.5 208 256 208C282.5 208 304 229.5 304 256zM256 176C211.8 176 176 211.8 176 256C176 300.2 211.8 336 256 336C300.2 336 336 300.2 336 256C336 211.8 300.2 176 256 176zM384 416.1L384 418.7C365.4 425.3 352 443.1 352 464L352 560C352 586.5 373.5 608 400 608L528 608C554.5 608 576 586.5 576 560L576 464C576 443.1 562.6 425.3 544 418.7L544 368.1C544 323.9 508.2 288.1 464 288.1C419.8 288.1 384 323.9 384 368.1L384 416.1zM384 464C384 455.8 390.2 449 398.3 448.1L529.8 448.1C537.8 449 544.1 455.8 544.1 464L544.1 560C544.1 568.8 536.9 576 528.1 576L400.1 576C391.3 576 384.1 568.8 384.1 560L384.1 464zM512 368.1L512 416L416 416L416 368.1C416 341.6 437.5 320.1 464 320.1C490.5 320.1 512 341.6 512 368.1z"/></svg>