<svg xmlns="http://www.w3.org/2000/svg" viewBox="0 0 640 640"><!--! Font Awesome Pro 7.1.0 by @fontawesome - https://fontawesome.com License - https://fontawesome.com/license (Commercial License) Copyright 2025 Fonticons, Inc. --><path fill="currentColor" d="M320 64C426 64 512 148.4 512 252.6C512 371.9 391.8 514.9 341.6 569.4L341.6 569.4C329.8 582.2 310.2 582.2 298.3 569.4L298.3 569.4C248.1 514.8 128 371.9 128 252.6C128 148.4 214 64 320 64zM320 96C231.1 96 160 166.6 160 252.6C160 302.9 185.9 362 221.4 418.2C255.4 472 295.3 518.6 320 545.6C344.6 518.7 384.6 472 418.6 418.2C454.1 362 480 302.9 480 252.6C480 166.7 408.9 96 320 96zM387.1 202.2C392.3 195.1 402.3 193.5 409.4 198.7C416.5 203.9 418.1 213.9 412.9 221L307.3 366.2C304.5 370 300.2 372.4 295.5 372.7C290.8 373 286.2 371.3 282.9 367.9L228.5 311.6C222.4 305.2 222.5 295.1 228.9 289C235.3 282.9 245.4 283.1 251.5 289.4L292.7 332L387.1 202.2z"/></svg>