<svg xmlns="http://www.w3.org/2000/svg" viewBox="0 0 640 640"><!--! Font Awesome Pro 7.1.0 by @fontawesome - https://fontawesome.com License - https://fontawesome.com/license (Commercial License) Copyright 2025 Fonticons, Inc. --><path fill="currentColor" d="M544 320C544 196.3 443.7 96 320 96C196.3 96 96 196.3 96 320C96 443.7 196.3 544 320 544C443.7 544 544 443.7 544 320zM64 320C64 178.6 178.6 64 320 64C461.4 64 576 178.6 576 320C576 461.4 461.4 576 320 576C178.6 576 64 461.4 64 320zM191.7 347C180 347 169.8 338.7 167.5 327.2C165.1 315.8 171.2 304.1 182 299.5L402.5 205C412 201.1 422.7 203.1 429.8 210.3C437 217.4 439 228.1 435 237.5L340.5 458C336.6 467.1 327.6 473 317.7 473C316.1 473 314.4 472.9 312.8 472.5C301.3 470.1 293 459.9 293 448.2L293 347L191.7 347zM227 315L292.9 315C310.6 315 324.9 329.3 324.9 347L324.9 413L398.4 241.6L227 315z"/></svg>