<svg xmlns="http://www.w3.org/2000/svg" viewBox="0 0 640 640"><!--! Font Awesome Pro 7.1.0 by @fontawesome - https://fontawesome.com License - https://fontawesome.com/license (Commercial License) Copyright 2025 Fonticons, Inc. --><path fill="currentColor" d="M320 96C231.1 96 160 166.6 160 252.6C160 302.9 185.9 362 221.4 418.2C255.4 472 295.4 518.7 320 545.6C344.6 518.7 384.6 471.9 418.6 418.2C454.1 362 480 302.9 480 252.6C480 166.7 408.9 96 320 96zM128 252.6C128 148.4 214 64 320 64C426 64 512 148.4 512 252.6C512 371.9 391.8 514.9 341.6 569.4C329.8 582.2 310.1 582.2 298.3 569.4C248.1 514.9 127.9 371.9 127.9 252.6z"/></svg>