<svg xmlns="http://www.w3.org/2000/svg" viewBox="0 0 640 640"><!--! Font Awesome Pro 7.1.0 by @fontawesome - https://fontawesome.com License - https://fontawesome.com/license (Commercial License) Copyright 2025 Fonticons, Inc. --><path fill="currentColor" d="M320 48C328.8 48 336 55.2 336 64L336 96.6C447 104.4 535.6 193 543.4 304L576 304C584.8 304 592 311.2 592 320C592 328.8 584.8 336 576 336L543.4 336C535.6 447 447 535.6 336 543.4L336 576C336 584.8 328.8 592 320 592C311.2 592 304 584.8 304 576L304 543.4C193 535.6 104.4 447 96.6 336L64 336C55.2 336 48 328.8 48 320C48 311.2 55.2 304 64 304L96.6 304C104.4 193 193 104.4 304 96.6L304 64C304 55.2 311.2 48 320 48zM128 320C128 426 214 512 320 512C426 512 512 426 512 320C512 214 426 128 320 128C214 128 128 214 128 320zM240 320C240 364.2 275.8 400 320 400C364.2 400 400 364.2 400 320C400 275.8 364.2 240 320 240C275.8 240 240 275.8 240 320zM320 432C258.1 432 208 381.9 208 320C208 258.1 258.1 208 320 208C381.9 208 432 258.1 432 320C432 381.9 381.9 432 320 432z"/></svg>