<svg xmlns="http://www.w3.org/2000/svg" viewBox="0 0 640 640"><!--! Font Awesome Pro 7.1.0 by @fontawesome - https://fontawesome.com License - https://fontawesome.com/license (Commercial License) Copyright 2025 Fonticons, Inc. --><path fill="currentColor" d="M320 64C373 64 416 107 416 160L416 224L224 224L224 160C224 107 267 64 320 64zM192 160L192 224C156.7 224 128 252.7 128 288L128 512C128 547.3 156.7 576 192 576L448 576C483.3 576 512 547.3 512 512L512 288C512 252.7 483.3 224 448 224L448 160C448 89.3 390.7 32 320 32C249.3 32 192 89.3 192 160zM192 256L448 256C465.7 256 480 270.3 480 288L480 512C480 529.7 465.7 544 448 544L192 544C174.3 544 160 529.7 160 512L160 288C160 270.3 174.3 256 192 256zM320 304C313.9 304 308.4 307.4 305.7 312.8L225.7 472.8C221.7 480.7 225 490.3 232.9 494.3C240.8 498.3 250.4 495 254.4 487.1L274 447.9L366.2 447.9L385.8 487.1C389.8 495 399.4 498.2 407.3 494.3C415.2 490.4 418.4 480.7 414.5 472.8L334.5 312.8C331.8 307.4 326.3 304 320.2 304zM320 355.8L350.1 416L289.9 416L320 355.8z"/></svg>