<svg xmlns="http://www.w3.org/2000/svg" viewBox="0 0 640 640"><!--! Font Awesome Pro 7.1.0 by @fontawesome - https://fontawesome.com License - https://fontawesome.com/license (Commercial License) Copyright 2025 Fonticons, Inc. --><path fill="currentColor" d="M480 64C427 64 384 107 384 160L384 224L448 224C483.3 224 512 252.7 512 288L512 512C512 547.3 483.3 576 448 576L192 576C156.7 576 128 547.3 128 512L128 288C128 252.7 156.7 224 192 224L352 224L352 160C352 89.3 409.3 32 480 32C550.7 32 608 89.3 608 160L608 208C608 216.8 600.8 224 592 224C583.2 224 576 216.8 576 208L576 160C576 107 533 64 480 64zM448 256L192 256C174.3 256 160 270.3 160 288L160 512C160 529.7 174.3 544 192 544L448 544C465.7 544 480 529.7 480 512L480 288C480 270.3 465.7 256 448 256zM368 416L272 416C263.2 416 256 408.8 256 400C256 391.2 263.2 384 272 384L368 384C376.8 384 384 391.2 384 400C384 408.8 376.8 416 368 416z"/></svg>