<svg xmlns="http://www.w3.org/2000/svg" viewBox="0 0 640 640"><!--! Font Awesome Pro 7.1.0 by @fontawesome - https://fontawesome.com License - https://fontawesome.com/license (Commercial License) Copyright 2025 Fonticons, Inc. --><path fill="currentColor" d="M608 336L608 384C608 433.8 570.1 474.7 521.7 479.5L542.4 520.8C546.4 528.7 543.1 538.3 535.2 542.3C527.3 546.3 517.7 543 513.7 535.1L486.1 479.9L349.9 479.9L317.9 535.8C313.5 543.5 303.7 546.1 296.1 541.8C288.5 537.5 285.8 527.6 290.1 520L313 479.9L280.8 479.9L268.8 479.6C257.4 479 246 477.5 234.8 475.1L188.9 537.4C183.7 544.5 173.6 546 166.5 540.8C159.4 535.6 157.9 525.5 163.1 518.4L202 465.7C197.1 463.9 192.3 461.9 187.6 459.7L187.6 459.7L136.7 436.4L60.8 537.6C55.5 544.7 45.5 546.1 38.4 540.8C31.3 535.5 29.9 525.5 35.2 518.4L106.9 422.8L105 421.9L100.4 419.6C79.6 408.2 65.9 387 64.2 363.3L64 358.2C64 321.9 91.6 292 127 288.4L134.2 288L208 288L275.2 198.4L277.9 195.6C280.8 193.2 284.6 191.9 288.5 192C293.7 192.1 298.5 194.8 301.4 199.1L341.9 259.9L387.2 198.5L388.5 196.9C391.8 193.5 396.4 191.7 401.2 192C406.6 192.4 411.5 195.5 414.1 200.3L461.9 288L512.1 288C535.9 288 557.7 296.7 574.5 311.2C562.3 208 474.5 128 368 128L336 128C327.2 128 320 120.8 320 112C320 103.2 327.2 96 336 96L368 96C500.5 96 608 203.5 608 336zM576 384L576 383.7C575.9 348.5 547.3 320 512 320L224 320L156.3 410.2L200.9 430.6C226 442.1 253.2 448 280.8 448L495.6 448C495.8 448 496.1 448 496.3 448L512 448C547.3 448 575.9 419.4 576 384.1L576 384zM425.4 288L397.9 237.7L360.8 288L425.3 288zM321.6 287.3L287.2 235.7L248 288L321.2 288L321.7 287.3zM126.5 396.6L184 320L134.2 320C113.1 320 96 337.1 96 358.2C96 373.1 104.7 386.7 118.3 392.9L126.5 396.7zM504 360C517.3 360 528 370.7 528 384C528 397.3 517.3 408 504 408C490.7 408 480 397.3 480 384C480 370.7 490.7 360 504 360z"/></svg>