<svg xmlns="http://www.w3.org/2000/svg" viewBox="0 0 640 640"><!--! Font Awesome Pro 7.1.0 by @fontawesome - https://fontawesome.com License - https://fontawesome.com/license (Commercial License) Copyright 2025 Fonticons, Inc. --><path fill="currentColor" d="M41.4 342.6C28.9 330.1 28.9 309.8 41.4 297.3L169.4 169.3C178.6 160.1 192.3 157.4 204.3 162.4C216.3 167.4 224 179.1 224 192L224 256L560 256C586.5 256 608 277.5 608 304L608 336C608 362.5 586.5 384 560 384L224 384L224 448C224 460.9 216.2 472.6 204.2 477.6C192.2 482.6 178.5 479.8 169.3 470.7L41.3 342.7zM192 192L64 320L192 448L192 368C192 359.2 199.2 352 208 352L560 352C568.8 352 576 344.8 576 336L576 304C576 295.2 568.8 288 560 288L208 288C199.2 288 192 280.8 192 272L192 192z"/></svg>