<svg xmlns="http://www.w3.org/2000/svg" viewBox="0 0 640 640"><!--! Font Awesome Pro 7.1.0 by @fontawesome - https://fontawesome.com License - https://fontawesome.com/license (Commercial License) Copyright 2025 Fonticons, Inc. --><path fill="currentColor" d="M297.4 598.6C309.9 611.1 330.2 611.1 342.7 598.6L470.7 470.6C479.9 461.4 482.6 447.7 477.6 435.7C472.6 423.7 460.9 416 448 416L384 416L384 80C384 53.5 362.5 32 336 32L304 32C277.5 32 256 53.5 256 80L256 416L192 416C179.1 416 167.4 423.8 162.4 435.8C157.4 447.8 160.2 461.5 169.4 470.6L297.4 598.6zM448 448L320 576L192 448L272 448C280.8 448 288 440.8 288 432L288 80C288 71.2 295.2 64 304 64L336 64C344.8 64 352 71.2 352 80L352 432C352 440.8 359.2 448 368 448L448 448z"/></svg>