<svg xmlns="http://www.w3.org/2000/svg" viewBox="0 0 640 640"><!--! Font Awesome Pro 7.1.0 by @fontawesome - https://fontawesome.com License - https://fontawesome.com/license (Commercial License) Copyright 2025 Fonticons, Inc. --><path fill="currentColor" d="M384 544L256 544C185.3 544 128 486.7 128 416L128 288C128 182 214 96 320 96C426 96 512 182 512 288L512 416C512 486.7 454.7 544 384 544zM320 64C196.3 64 96 164.3 96 288L96 416C96 504.4 167.6 576 256 576L384 576C472.4 576 544 504.4 544 416L544 288C544 164.3 443.7 64 320 64zM256 416L384 416C401.7 416 416 430.3 416 448C416 465.7 401.7 480 384 480L256 480C238.3 480 224 465.7 224 448C224 430.3 238.3 416 256 416zM249.6 384.3C217.3 387.5 192 414.8 192 448C192 483.3 220.7 512 256 512L384 512C419.3 512 448 483.3 448 448C448 414.8 422.8 387.5 390.4 384.3C391.4 380.6 392 376.7 392 372.7C392 365.4 390.2 358.3 386.7 352L400 352C444.2 352 480 316.2 480 272C480 245.5 458.5 224 432 224L400 224C355.8 224 320 259.8 320 304C320 259.8 284.2 224 240 224L208 224C181.5 224 160 245.5 160 272C160 316.2 195.8 352 240 352L253.3 352C249.9 358.3 248 365.4 248 372.7C248 376.7 248.6 380.6 249.6 384.3zM291.3 384C285.1 384 280 378.9 280 372.7C280 369.7 281.2 366.8 283.3 364.7C289.3 358.7 293.3 354.7 295.5 352.5L295.9 352.1L306.2 341.8C309.8 338.2 314.7 336.1 319.9 336.1C325.1 336.1 329.9 338.1 333.6 341.8L356.6 364.8C358.7 366.9 359.9 369.8 359.9 372.8C359.9 379 354.8 384.1 348.6 384.1L291.2 384.1zM192 272C192 263.2 199.2 256 208 256L240 256C266.5 256 288 277.5 288 304C288 312.8 280.8 320 272 320L240 320C213.5 320 192 298.5 192 272zM432 256C440.8 256 448 263.2 448 272C448 298.5 426.5 320 400 320L368 320C359.2 320 352 312.8 352 304C352 277.5 373.5 256 400 256L432 256z"/></svg>