<svg xmlns="http://www.w3.org/2000/svg" viewBox="0 0 640 640"><!--! Font Awesome Pro 7.1.0 by @fontawesome - https://fontawesome.com License - https://fontawesome.com/license (Commercial License) Copyright 2025 Fonticons, Inc. --><path fill="currentColor" d="M336 80C336 71.2 328.8 64 320 64C311.2 64 304 71.2 304 80L304 246.9L256 275.7L256 140.3C256 115.9 236.1 96 211.6 96L210.8 96C198.8 96 187.4 101.1 179.4 109.9L166.8 123.8C80.1 219.1 32 343.4 32 472.4L32 477.8C32 532.1 76 576.1 130.3 576.1C149.7 576.1 168.7 570.4 184.8 559.6L199 550C234.6 526.3 256 486.3 256 443.5L256 313.1L320 274.7L384 313.1L384 443.5C384 486.3 405.4 526.3 441 550L455.2 559.5C471.3 570.3 490.3 576 509.7 576C564 576 608 532 608 477.7L608 472.3C608 343.4 559.9 219.1 473.2 123.7L460.6 109.9C452.6 101.1 441.2 96 429.2 96L428.4 96C403.9 96 384 115.9 384 140.4L384 275.8L336 247L336 80.1zM224 294.9L151.8 338.2C144.2 342.7 141.8 352.6 146.3 360.1C150.8 367.6 160.7 370.1 168.3 365.6L224.1 332.1L224.1 443.3C224.1 475.4 208.1 505.4 181.4 523.2L167 532.9C156.1 540.2 143.3 544 130.3 544C93.7 544 64 514.3 64 477.7L64 472.3C64 351.3 109.1 234.7 190.5 145.2L203 131.4C205 129.2 207.8 128 210.8 128L211.6 128C218.4 128 224 133.5 224 140.4L224 295zM416 443.5L416 332.3L471.8 365.8C479.4 370.3 489.2 367.9 493.8 360.3C498.4 352.7 495.9 342.9 488.3 338.4L416 294.9L416 140.4C416 133.6 421.5 128 428.4 128L429.2 128C432.2 128 435 129.2 437 131.4L449.6 145.2C530.9 234.8 576 351.4 576 472.4L576 477.8C576 514.4 546.3 544.1 509.7 544.1C496.6 544.1 483.8 540.2 473 533L458.8 523.5C432 505.6 416 475.6 416 443.5z"/></svg>