<svg xmlns="http://www.w3.org/2000/svg" viewBox="0 0 640 640"><!--! Font Awesome Pro 7.1.0 by @fontawesome - https://fontawesome.com License - https://fontawesome.com/license (Commercial License) Copyright 2025 Fonticons, Inc. --><path fill="currentColor" d="M298.1 63.1C306.7 64.3 314.6 68.2 322.4 72.1C324.8 73.3 327.3 74.5 329.7 75.7C332.3 76.8 335.3 77.3 338 76.4C345.4 74 353 71.6 360.8 71.2C373 71.2 382.5 74.6 390.2 80.3C398.1 86.7 404.2 94.6 409.2 103.4C413 110.6 416.6 118 420.2 125.4C422 129.2 423.9 133 425.8 136.7L455.6 118.9L456.2 118.6L456.8 118.3C477.8 108.1 499.8 112.8 513.6 126.7C527.4 140.6 532.3 162.5 522 183.5L521.7 184.1L521.3 184.7L503.4 214.4C507.2 216.3 511 218.2 514.8 220.1C522.2 223.7 529.6 227.3 536.7 231.1C545.6 236.2 553.4 242.2 559.8 250.1C565.5 257.8 568.9 267.2 568.9 279.5C568.6 287.4 566.1 294.9 563.7 302.3C562.8 305 563.3 308 564.4 310.6C565.5 313 566.7 315.4 567.9 317.8C571.8 325.6 575.8 333.5 576.9 342.1C578.8 356 572.3 364.5 561.4 371.8C556.9 374.8 553.8 377.7 553.8 383.5C553.8 391.1 556.7 397.8 554.8 406.6C552.7 416.3 549.8 423.4 542.7 428.8C538.2 432.4 532.8 435.2 527.5 437.9C523 440.2 519 442 517.2 447.1C514.5 454.3 513.3 461.9 510.6 469.1C508 476.7 502.3 482 495.3 485.3C487.1 488.6 478.4 490.2 469.8 492.1C467.7 492.5 466 493.7 464.6 495.3C459.5 501.7 455.3 509.4 451.7 516.6C446.8 524.3 438.8 528.3 430.1 529.3C422.5 530.2 414.7 530 407 530C404.2 530 401.6 531.5 399.5 533.4C394 538.6 389.4 544.8 384.3 550.4C378.1 557 369.6 559.4 360.9 558.8C352.7 558.3 344.6 556.1 336.6 555C334.4 555 331.9 556 329.9 557.2C324.7 560.4 318.4 566.2 311.9 570.9C305.4 575.5 297.7 576.6 290.2 575.2C282.1 573.3 274.3 569.9 266.7 566.5C263.5 565.1 260.6 564.8 257.2 566C250.6 568.5 243.3 572.3 235.7 574.5C227.1 577.3 216.6 575.3 209.6 569.4C207.4 567.6 205.2 565.2 202.9 562.8C198.6 558.2 194.1 553.3 188.9 551.7C184.1 550.8 179.2 550.8 174.3 550.9C170.2 550.9 166.2 550.9 162.1 550.4C152.9 549.6 145.4 544.1 140.6 536.4C135.7 528.5 134.6 518.6 127.8 511.8C121 505 111.1 504 103.2 499C95.6 494.2 90.1 486.7 89.2 477.5C88.1 468.6 89.5 459.5 87.9 450.7C85.3 442.8 75.3 436.4 70.2 430C64.3 423.1 62.3 412.5 65.1 403.9C67.3 396.3 71.1 389 73.6 382.4C74.8 379 74.5 376.1 73.1 372.9C69.7 365.3 66.3 357.5 64.4 349.4C63 341.9 64.2 334.2 68.7 327.7C73.4 321.1 79.1 314.9 82.4 309.7C83.7 307.7 84.7 305.3 84.6 303C83.5 294.9 81.3 286.8 80.8 278.7C80.3 270 82.7 261.6 89.2 255.3C94.8 250.2 100.9 245.6 106.2 240.1C108.2 238 109.6 235.5 109.6 232.6C109.6 224.9 109.4 217.2 110.3 209.5C111.4 200.9 115.4 192.8 123 187.9C130.3 184.3 138 180 144.3 175C146.9 172.6 147.6 169.1 148.4 165.7C150 158.4 151.6 151.1 154.4 144.2C157.6 137.2 163 131.6 170.6 129C177.8 126.4 185.4 125.1 192.6 122.4C195.3 121.4 197.8 119.8 199.1 117.3C200 115.6 200.9 113.8 201.8 112.1C204.5 106.8 207.3 101.5 210.9 96.9C216.3 89.8 223.5 86.9 233.1 84.8C238.7 83.6 243.4 84.3 248 85C250.7 85.4 253.4 85.8 256.2 85.8C262 85.8 264.9 82.7 267.9 78.2C275.2 67.4 283.7 60.8 297.6 62.7zM295.9 95.3C295.8 95.5 290 103.9 286.1 107.3C278.3 114.4 269.4 116.9 262.8 117.8C254.1 118.4 245.4 117.7 236.7 117.4C233.6 122.4 230.8 127.5 228 132.6C221.5 145 210.7 150.5 204.4 152.9C196.6 155.9 189.3 157.6 183.8 159.2C182.3 164.8 180.9 170.5 179.6 176.1C177 187.4 170.5 196 161.5 203.1C154.6 207.9 147.9 211.3 142.7 214.3L142.1 233C142.1 247.4 134.6 257.5 129.8 262.5C124.5 267.7 118.9 272.5 113.4 277.4C113.8 280.2 114.3 283 114.7 285.7C115.8 292.2 117 298.7 117 305.3C116.7 312.3 114.5 318.2 112.3 322.6C107.8 330.5 102.1 337.5 96.6 344.8C98.6 350.5 100.8 356 103.3 361.5C107.8 371.7 107.2 380.9 105.8 387.5C103.5 395.8 100 403.7 96.9 411.8C102.4 418.4 108.9 424 114 431C117.7 436.7 119.5 442.6 120.3 447.3C121.4 455.7 121.2 464 121.5 472.4C132 477.3 142.7 480.7 151.1 489.1C159.6 497.5 162.9 508.2 167.9 518.7C176.3 519 184.7 518.8 193 519.9C197.8 520.7 203.6 522.5 209.3 526.2C216.2 531.3 221.9 537.7 228.5 543.3C236.6 540.2 244.4 536.7 252.8 534.4C259.3 533 268.6 532.4 278.8 536.9C284.3 539.3 289.9 541.5 295.5 543.6C302.7 538.1 309.7 532.4 317.7 527.9C322.1 525.7 328 523.6 335 523.2C341.6 523.2 348.1 524.4 354.6 525.5C357.4 526 360.2 526.5 363 526.9C367.9 521.4 372.7 515.8 377.9 510.5C382.9 505.7 393 498.2 407.4 498.2L426.1 497.7C429.1 492.5 432.5 485.8 437.4 478.9C444.3 470.2 452.4 463.3 463.6 461C469.5 459.6 475.5 458.3 481.4 456.7C483 451.2 484.7 444 487.7 436.1C490 429.9 495.5 419 507.9 412.5C513 409.7 518.1 406.9 523.1 403.8C522.8 395 522.1 386.4 522.7 377.7C523.5 371 526 362.2 533.2 354.4C536.6 350.5 545.1 344.6 545.2 344.6C542 337.6 539 330.5 535.5 323.6C532.9 317.5 529.4 305.9 533.7 292.7C536.2 284.8 537.3 282.6 537.3 279.7C537 275.3 536.3 271.8 533.6 268.3C526 259.7 513 254.8 502.8 249.7C478.4 237.6 454.2 225.6 433.7 206.9C415 186.5 403.1 162.5 391 138.1C388.6 133.3 386.2 128.4 383.7 123.6C380.6 117.7 377.4 111.6 372.4 107.2C368.9 104.6 365.3 103.8 361 103.5C358.1 103.5 355.9 104.6 348 107.1C334.8 111.4 323.2 107.9 317.1 105.3C312.5 103 307.9 100.9 303.2 98.8C300.8 97.7 298.4 96.7 296.1 95.6zM264.3 360C271.7 360 278.4 365.3 279.9 372.9C281.4 380.5 277.3 387.9 270.5 390.8L267.4 391.7L237.9 397.6L232 427.1L231.1 430.2C228.2 437 220.8 441.1 213.2 439.6C205.6 438.1 200.4 431.4 200.3 424L200.6 420.8L208.6 380.8C209.7 375.3 213.6 370.8 218.9 368.9L221.2 368.2L261.2 360.2L264.4 359.9zM424.3 328C431.7 328 438.4 333.3 439.9 340.9C441.4 348.5 437.3 355.9 430.5 358.8L427.4 359.7L397.9 365.6L392 395.1L391.1 398.2C388.2 405 380.8 409.1 373.2 407.6C365.6 406.1 360.4 399.4 360.3 392L360.6 388.8L368.6 348.8C369.7 343.3 373.6 338.8 378.8 336.9L381.1 336.2L421.1 328.2L424.3 327.9zM296.3 200C303.7 200 310.4 205.3 311.9 212.9C313.4 220.5 309.3 227.9 302.5 230.8L299.4 231.7L269.9 237.6L264 267.1L263.1 270.2C260.2 277 252.8 281.1 245.2 279.6C237.6 278.1 232.4 271.4 232.3 264L232.6 260.8L240.6 220.8C241.7 215.3 245.6 210.8 250.9 208.9L253.2 208.2L293.2 200.2L296.4 199.9zM491 149.3C486.8 145.1 479.7 142.8 471.1 146.8L441.3 164.7C445.7 171.5 450.6 178 456.2 184C462.2 189.6 468.7 194.5 475.5 198.9L493.4 169.1C497.4 160.5 495.2 153.4 491 149.3z"/></svg>