<svg xmlns="http://www.w3.org/2000/svg" viewBox="0 0 640 640"><!--! Font Awesome Pro 7.1.0 by @fontawesome - https://fontawesome.com License - https://fontawesome.com/license (Commercial License) Copyright 2025 Fonticons, Inc. --><path fill="currentColor" d="M107.3 96.7C114 94.6 121.3 97.2 125.2 103L320 387.7L514.8 103C518.8 97.2 526 94.7 532.7 96.7C539.4 98.7 544 105 544 112L544 528C544 536.8 536.8 544 528 544C519.2 544 512 536.8 512 528L512 163.7L333.2 425C330.2 429.4 325.3 432 320 432C314.7 432 309.8 429.4 306.8 425L128 163.7L128 528C128 536.8 120.8 544 112 544C103.2 544 96 536.8 96 528L96 112C96 105 100.6 98.8 107.3 96.7z"/></svg>