<svg xmlns="http://www.w3.org/2000/svg" viewBox="0 0 640 640"><!--! Font Awesome Pro 7.1.0 by @fontawesome - https://fontawesome.com License - https://fontawesome.com/license (Commercial License) Copyright 2025 Fonticons, Inc. --><path fill="currentColor" d="M384 32C389.4 32 394.3 34.7 397.3 39.1L435.2 95.9C486.8 112.4 527.6 153.1 544.1 204.8L600.9 242.7C605.4 245.7 608 250.7 608 256C608 261.3 605.3 266.3 600.9 269.3L544.1 307.2C527.6 358.8 486.9 399.6 435.2 416.1L397.3 472.9C394.3 477.4 389.3 480 384 480C378.7 480 373.7 477.3 370.7 472.9L332.8 416.1C312.2 409.5 293.3 399.1 277 385.6L91.3 571.3C85.1 577.5 74.9 577.5 68.7 571.3C62.5 565.1 62.5 554.9 68.7 548.7L254.4 362.9C240.9 346.6 230.5 327.7 223.9 307.2L167.1 269.3C162.6 266.3 160 261.3 160 256C160 250.7 162.7 245.7 167.1 242.7L223.9 204.8C240.4 153.2 281.1 112.4 332.8 95.9L370.7 39.1C373.7 34.6 378.7 32 384 32zM384 76.8L356.2 118.5C354.1 121.7 350.9 124 347.2 125C301.7 137.8 265.7 173.7 253 219.2C252 222.9 249.7 226.1 246.5 228.2L204.9 256L246.5 283.8C249.7 285.9 252 289.1 253 292.8C265.8 338.3 301.7 374.3 347.2 387C350.9 388 354.1 390.3 356.2 393.5L384 435.1L411.8 393.5C413.9 390.3 417.1 388 420.8 387C466.3 374.2 502.3 338.3 515 292.8C516 289.1 518.3 285.9 521.5 283.8L563.1 256L521.5 228.2C518.3 226.1 516 222.9 515 219.2C502.2 173.7 466.3 137.7 420.8 125C417.1 124 413.9 121.7 411.8 118.5L384 76.8zM408 256C408 242.7 397.3 232 384 232C370.7 232 360 242.7 360 256C360 269.3 370.7 280 384 280C397.3 280 408 269.3 408 256zM328 256C328 225.1 353.1 200 384 200C414.9 200 440 225.1 440 256C440 286.9 414.9 312 384 312C353.1 312 328 286.9 328 256z"/></svg>