<svg xmlns="http://www.w3.org/2000/svg" viewBox="0 0 640 640"><!--! Font Awesome Pro 7.1.0 by @fontawesome - https://fontawesome.com License - https://fontawesome.com/license (Commercial License) Copyright 2025 Fonticons, Inc. --><path fill="currentColor" d="M448 107.3L448 176L379.3 176L448 107.3zM456 208C469.3 208 480 197.3 480 184L480 88C480 78.3 474.2 69.5 465.2 65.8C456.2 62.1 445.9 64.2 439 71L401.1 108.9C365.7 80.8 320.8 64 272 64C163 64 73.5 147.9 64.7 254.7C64 263.5 70.5 271.2 79.3 271.9C79.7 272 80.1 272 80.5 272L80.8 272C89 271.9 95.9 265.6 96.6 257.3C104.1 167 179.7 96 272 96C311.9 96 348.8 109.3 378.3 131.7L343 167C336.1 173.9 334.1 184.2 337.8 193.2C341.5 202.2 350.3 208 360 208L456 208zM96 436.7L96 368L164.7 368L96 436.7zM88 336C74.7 336 64 346.7 64 360L64 456C64 465.7 69.8 474.5 78.8 478.2C87.8 481.9 98.1 479.8 105 473L201 377C207.9 370.1 209.9 359.8 206.2 350.8C202.5 341.8 193.7 336 184 336L88 336zM430 407.3C457.7 375 475.6 334.2 479.3 289.3C480 280.5 473.5 272.8 464.7 272C464.3 272 463.9 272 463.5 271.9L463.2 271.9C455 272 448.1 278.3 447.4 286.6C439.9 376.9 364.3 447.9 272 447.9C232.1 447.9 195.2 434.6 165.7 412.2L142.9 435.1C178.4 463.2 223.2 480 272 480C323.7 480 371 461.2 407.3 430L548.7 571.3C554.9 577.5 565.1 577.5 571.3 571.3C577.5 565.1 577.5 554.9 571.3 548.7L430 407.3z"/></svg>