<svg xmlns="http://www.w3.org/2000/svg" viewBox="0 0 640 640"><!--! Font Awesome Pro 7.1.0 by @fontawesome - https://fontawesome.com License - https://fontawesome.com/license (Commercial License) Copyright 2025 Fonticons, Inc. --><path fill="currentColor" d="M272 96C369.2 96 448 174.8 448 272C448 369.2 369.2 448 272 448C174.8 448 96 369.2 96 272C96 174.8 174.8 96 272 96zM272 480C323.7 480 371 461.2 407.3 430L548.7 571.3C554.9 577.5 565.1 577.5 571.3 571.3C577.5 565.1 577.5 554.9 571.3 548.7L430 407.3C461.2 371 480 323.7 480 272C480 157.1 386.9 64 272 64C157.1 64 64 157.1 64 272C64 386.9 157.1 480 272 480zM336 176L312 176C298.7 176 288 186.7 288 200L288 272C278.6 266.9 267.7 264 256 264C220.7 264 192 290.9 192 324C192 357.1 220.7 384 256 384C291.3 384 320 357.1 320 324C320 322.6 320 321.3 319.9 319.9L320 320L320 208L336 208C344.8 208 352 200.8 352 192C352 183.2 344.8 176 336 176zM256 352C236.4 352 224 337.5 224 324C224 310.5 236.4 296 256 296C275.6 296 288 310.5 288 324C288 337.5 275.6 352 256 352z"/></svg>