<svg xmlns="http://www.w3.org/2000/svg" viewBox="0 0 640 640"><!--! Font Awesome Pro 7.1.0 by @fontawesome - https://fontawesome.com License - https://fontawesome.com/license (Commercial License) Copyright 2025 Fonticons, Inc. --><path fill="currentColor" d="M144 128C135.2 128 128 135.2 128 144L128 224L208 224L208 144C208 135.2 200.8 128 192 128L144 128zM128 352C128 458 214 544 320 544C426 544 512 458 512 352L512 256L432 256L432 352C432 413.9 381.9 464 320 464C258.1 464 208 413.9 208 352L208 256L128 256L128 352zM512 224L512 144C512 135.2 504.8 128 496 128L448 128C439.2 128 432 135.2 432 144L432 224L512 224zM96 144C96 117.5 117.5 96 144 96L192 96C218.5 96 240 117.5 240 144L240 352C240 396.2 275.8 432 320 432C364.2 432 400 396.2 400 352L400 144C400 117.5 421.5 96 448 96L496 96C522.5 96 544 117.5 544 144L544 352C544 475.7 443.7 576 320 576C196.3 576 96 475.7 96 352L96 144z"/></svg>