<svg xmlns="http://www.w3.org/2000/svg" viewBox="0 0 640 640"><!--! Font Awesome Pro 7.1.0 by @fontawesome - https://fontawesome.com License - https://fontawesome.com/license (Commercial License) Copyright 2025 Fonticons, Inc. --><path fill="currentColor" d="M272 96C369.2 96 448 174.8 448 272C448 369.2 369.2 448 272 448C174.8 448 96 369.2 96 272C96 174.8 174.8 96 272 96zM272 480C323.7 480 371 461.2 407.3 430L548.7 571.3C554.9 577.5 565.1 577.5 571.3 571.3C577.5 565.1 577.5 554.9 571.3 548.7L430 407.3C461.2 371 480 323.7 480 272C480 157.1 386.9 64 272 64C157.1 64 64 157.1 64 272C64 386.9 157.1 480 272 480zM192 272L192 336C192 344.8 199.2 352 208 352C216.8 352 224 344.8 224 336L224 272C224 263.2 216.8 256 208 256C199.2 256 192 263.2 192 272zM256 176L256 336C256 344.8 263.2 352 272 352C280.8 352 288 344.8 288 336L288 176C288 167.2 280.8 160 272 160C263.2 160 256 167.2 256 176zM320 240L320 336C320 344.8 327.2 352 336 352C344.8 352 352 344.8 352 336L352 240C352 231.2 344.8 224 336 224C327.2 224 320 231.2 320 240z"/></svg>