<svg xmlns="http://www.w3.org/2000/svg" viewBox="0 0 640 640"><!--! Font Awesome Pro 7.1.0 by @fontawesome - https://fontawesome.com License - https://fontawesome.com/license (Commercial License) Copyright 2025 Fonticons, Inc. --><path fill="currentColor" d="M272 96C369.2 96 448 174.8 448 272C448 369.2 369.2 448 272 448C174.8 448 96 369.2 96 272C96 174.8 174.8 96 272 96zM272 480C323.7 480 371 461.2 407.3 430L548.7 571.3C554.9 577.5 565.1 577.5 571.3 571.3C577.5 565.1 577.5 554.9 571.3 548.7L430 407.3C461.2 371 480 323.7 480 272C480 157.1 386.9 64 272 64C157.1 64 64 157.1 64 272C64 386.9 157.1 480 272 480zM256 176C256 167.2 248.8 160 240 160C231.2 160 224 167.2 224 176L224 368C224 376.8 231.2 384 240 384C248.8 384 256 376.8 256 368L256 176zM192 208C192 199.2 184.8 192 176 192C167.2 192 160 199.2 160 208L160 336C160 344.8 167.2 352 176 352C184.8 352 192 344.8 192 336L192 208zM320 208C320 199.2 312.8 192 304 192C295.2 192 288 199.2 288 208L288 336C288 344.8 295.2 352 304 352C312.8 352 320 344.8 320 336L320 208zM384 240C384 231.2 376.8 224 368 224C359.2 224 352 231.2 352 240L352 304C352 312.8 359.2 320 368 320C376.8 320 384 312.8 384 304L384 240z"/></svg>