<svg xmlns="http://www.w3.org/2000/svg" viewBox="0 0 640 640"><!--! Font Awesome Pro 7.1.0 by @fontawesome - https://fontawesome.com License - https://fontawesome.com/license (Commercial License) Copyright 2025 Fonticons, Inc. --><path fill="currentColor" d="M272 96C369.2 96 448 174.8 448 272C448 369.2 369.2 448 272 448C174.8 448 96 369.2 96 272C96 174.8 174.8 96 272 96zM272 480C323.7 480 371 461.2 407.3 430L548.7 571.3C554.9 577.5 565.1 577.5 571.3 571.3C577.5 565.1 577.5 554.9 571.3 548.7L430 407.3C461.2 371 480 323.7 480 272C480 157.1 386.9 64 272 64C157.1 64 64 157.1 64 272C64 386.9 157.1 480 272 480zM334.1 272L246.8 324.4L246.8 219.6L334.1 272zM242.1 184C227 184 214.8 196.2 214.8 211.3L214.8 332.7C214.8 347.8 227 360 242.1 360C247 360 251.9 358.7 256.1 356.1L355.2 296.6C363.8 291.4 369.1 282.1 369.1 272C369.1 261.9 363.8 252.6 355.2 247.4L256.1 187.9C251.9 185.4 247 184 242.1 184z"/></svg>