<svg xmlns="http://www.w3.org/2000/svg" viewBox="0 0 640 640"><!--! Font Awesome Pro 7.1.0 by @fontawesome - https://fontawesome.com License - https://fontawesome.com/license (Commercial License) Copyright 2025 Fonticons, Inc. --><path fill="currentColor" d="M272 96C369.2 96 448 174.8 448 272C448 369.2 369.2 448 272 448C174.8 448 96 369.2 96 272C96 174.8 174.8 96 272 96zM272 480C323.7 480 371 461.2 407.3 430L548.7 571.3C554.9 577.5 565.1 577.5 571.3 571.3C577.5 565.1 577.5 554.9 571.3 548.7L430 407.3C461.2 371 480 323.7 480 272C480 157.1 386.9 64 272 64C157.1 64 64 157.1 64 272C64 386.9 157.1 480 272 480zM272 168C263.2 168 256 175.2 256 184L256 192L254.3 192C228.7 192 208 212.7 208 238.3C208 260.9 224.4 280.3 246.7 284L292 291.6C298.9 292.8 304 298.7 304 305.7C304 313.6 297.6 320 289.7 320L232 320C223.2 320 216 327.2 216 336C216 344.8 223.2 352 232 352L256 352L256 360C256 368.8 263.2 376 272 376C280.8 376 288 368.8 288 360L288 352L289.7 352C315.3 352 336 331.3 336 305.7C336 283.1 319.6 263.7 297.3 260L252 252.4C245.1 251.2 240 245.3 240 238.3C240 230.4 246.4 224 254.3 224L304 224C312.8 224 320 216.8 320 208C320 199.2 312.8 192 304 192L288 192L288 184C288 175.2 280.8 168 272 168z"/></svg>