<svg xmlns="http://www.w3.org/2000/svg" viewBox="0 0 640 640"><!--! Font Awesome Pro 7.1.0 by @fontawesome - https://fontawesome.com License - https://fontawesome.com/license (Commercial License) Copyright 2025 Fonticons, Inc. --><path fill="currentColor" d="M342.7 128C338.4 137.8 336 148.6 336 160L266.5 160C299.1 186.4 320 226.8 320 272L320 480C320 491.7 316.9 502.6 311.4 512L544 512C561.7 512 576 497.7 576 480L576 288C576 265.5 570.2 244.3 560 225.9C560 225.3 560 224.6 560 224L560 173.7C589.6 202.7 608 243.2 608 288L608 480C608 515.3 579.3 544 544 544L96 544C60.7 544 32 515.3 32 480L32 272C32 192.5 96.5 128 176 128L342.7 128zM176 160C114.1 160 64 210.1 64 272L64 480C64 497.7 78.3 512 96 512L256 512C273.7 512 288 497.7 288 480L288 272C288 210.1 237.9 160 176 160zM112 304C112 295.2 119.2 288 128 288L224 288C232.8 288 240 295.2 240 304C240 312.8 232.8 320 224 320L128 320C119.2 320 112 312.8 112 304zM384 304L384 160C384 142.3 398.3 128 416 128L480 128C497.7 128 512 142.3 512 160L512 224C512 241.7 497.7 256 480 256L416 256L416 304C416 312.8 408.8 320 400 320C391.2 320 384 312.8 384 304zM480 224L480 160L416 160L416 224L480 224z"/></svg>