<svg xmlns="http://www.w3.org/2000/svg" viewBox="0 0 640 640"><!--! Font Awesome Pro 7.1.0 by @fontawesome - https://fontawesome.com License - https://fontawesome.com/license (Commercial License) Copyright 2025 Fonticons, Inc. --><path fill="currentColor" d="M488.2 128.2C572.8 132.5 640 202.4 640 288L640 480L639.7 486.5C636.6 516.6 612.7 540.6 582.6 543.6L576.1 543.9L16.1 543.9C7.3 543.9 .1 536.7 .1 527.9C.1 519.1 7.3 511.9 16.1 511.9L96.1 511.9L96.1 255.9C96.1 249.9 96.5 243.9 97.3 238.1C97.7 235.6 98 233 98.5 230.5C98.7 229.5 99 228.4 99.2 227.4C99.4 226.3 99.7 225.3 99.9 224.2C100.1 223.4 100.3 222.6 100.5 221.8C100.8 220.6 101.1 219.5 101.5 218.3C102 216.7 102.5 215.2 103.1 213.7C104 211.2 104.9 208.8 105.9 206.4C106.2 205.6 106.6 204.7 107 203.9C107.5 202.8 108 201.8 108.5 200.7C108.8 200 109.2 199.3 109.5 198.6C110 197.5 110.6 196.5 111.1 195.4C111.5 194.6 112 193.8 112.4 193C112.9 192 113.5 191.1 114.1 190.1C114.6 189.3 115.1 188.5 115.6 187.6C116.1 186.8 116.7 185.9 117.2 185.1C117.4 184.8 117.6 184.5 117.8 184.2L119.9 181.2C120.2 180.7 120.6 180.2 121 179.8C121.4 179.3 121.8 178.8 122.1 178.3C122.9 177.2 123.7 176.1 124.6 175.1C125.1 174.4 125.7 173.8 126.2 173.2C126.8 172.4 127.5 171.7 128.1 171C128.8 170.2 129.4 169.5 130.1 168.8C131 167.8 132 166.8 132.9 165.8C133.1 165.6 133.4 165.3 133.6 165.1C134.9 163.8 136.2 162.6 137.5 161.4C138 161 138.5 160.5 139 160.1C139.8 159.4 140.6 158.7 141.4 158C142.1 157.4 142.7 156.9 143.4 156.3C144.2 155.7 144.9 155.1 145.7 154.5C146.5 153.9 147.3 153.3 148.1 152.7C149.2 151.9 150.3 151.1 151.4 150.4C151.8 150.1 152.2 149.9 152.6 149.6C153.8 148.8 155.1 148 156.4 147.2C156.9 146.9 157.5 146.5 158.1 146.2C159.1 145.6 160.2 145 161.3 144.4C162.2 143.9 163 143.5 163.9 143C167 141.4 170.1 139.9 173.3 138.5C173.7 138.3 174 138.2 174.4 138C175.9 137.4 177.4 136.8 179 136.2C179.4 136 179.8 135.9 180.2 135.8C181.3 135.4 182.5 135 183.6 134.6C184.6 134.3 185.5 134 186.5 133.7C191.9 132.1 197.4 130.8 203 129.9C203.5 129.8 204.1 129.7 204.6 129.6C208.8 129 213 128.5 217.4 128.3L224 128.1L480 128.1L488.2 128.3zM224 160C171 160 128 203 128 256L128 512L288 512C305.7 512 320 497.7 320 480L320 256C320 203 277 160 224 160zM308.6 160C335.2 183.5 352 217.8 352 256L352 480L351.7 486.5C350.8 495.7 347.8 504.3 343.4 512L576 512C593.7 512 608 497.7 608 480L608 288C608 217.3 550.7 160 480 160L308.6 160zM544 288C561.7 288 576 302.3 576 320L576 384C576 401.7 561.7 416 544 416L480 416C462.3 416 448 401.7 448 384L448 320L400 320C391.2 320 384 312.8 384 304C384 295.2 391.2 288 400 288L544 288zM480 384L544 384L544 320L480 320L480 384z"/></svg>