<svg xmlns="http://www.w3.org/2000/svg" viewBox="0 0 640 640"><!--! Font Awesome Pro 7.1.0 by @fontawesome - https://fontawesome.com License - https://fontawesome.com/license (Commercial License) Copyright 2025 Fonticons, Inc. --><path fill="currentColor" d="M304 320L48 320C39.2 320 32 327.2 32 336L32 343.2L169.8 430.2L172.8 431.5C173.9 431.8 174.9 432 176 432C178.2 432 180.4 431.4 182.2 430.2L304 353.3L304 391.1L199.3 457.2C192.3 461.6 184.2 463.9 176 463.9C169.8 463.9 163.7 462.6 158.1 460.1L152.7 457.3L32 381L32 496C32 504.8 39.2 512 48 512L304 512L304 544L48 544C21.5 544 0 522.5 0 496L0 336C0 309.5 21.5 288 48 288L304 288L304 320zM390.7 128C386.4 137.8 384 148.6 384 160L330.5 160C363.1 186.4 384 226.8 384 272L384 512L576 512C593.7 512 608 497.7 608 480L608 192C628.1 218.7 640 252 640 288L640 480L639.7 486.5C636.6 516.6 612.7 540.6 582.6 543.6L576.1 543.9L352.1 543.9L352.1 271.9C352.1 210 302 159.9 240.1 159.9C189.4 159.9 146.5 193.6 132.8 239.9L99.8 239.9C100.1 238.7 100.3 237.5 100.6 236.3C100.9 235.2 101.2 234 101.5 232.9C101.8 231.9 102.1 230.8 102.4 229.8C102.7 228.7 103.1 227.7 103.4 226.6C103.8 225.3 104.3 224 104.7 222.7C105.2 221.2 105.8 219.8 106.4 218.4C106.6 217.9 106.8 217.3 107 216.8C107.5 215.6 108 214.4 108.6 213.2C109.1 212.2 109.5 211.2 109.9 210.2C110.4 209.2 110.9 208.1 111.5 207.1C112 206 112.6 204.9 113.2 203.8C113.6 203.1 114 202.4 114.4 201.7C115.1 200.4 115.8 199.2 116.6 197.9C117.1 197.1 117.6 196.4 118 195.6C118.5 194.9 118.9 194.1 119.4 193.4L120.8 191.2C121.3 190.4 121.9 189.6 122.5 188.8C123 188.1 123.4 187.5 123.9 186.8C124.7 185.8 125.4 184.8 126.2 183.8C126.9 182.9 127.6 181.9 128.3 181.1C128.8 180.4 129.4 179.8 130 179.1C130.9 178 131.9 176.9 132.9 175.8C133.2 175.5 133.4 175.2 133.7 175L136 172.5C138 170.4 140.1 168.3 142.3 166.3C143.1 165.6 143.8 164.9 144.6 164.2C145.4 163.5 146.2 162.8 147 162.1C148 161.2 149.1 160.3 150.2 159.5C150.9 159 151.5 158.5 152.2 157.9C153.2 157.1 154.2 156.3 155.2 155.6C156.2 154.9 157.3 154.1 158.3 153.4C159 152.9 159.8 152.4 160.5 151.9C161.7 151.1 163 150.3 164.3 149.5C164.9 149.1 165.5 148.8 166.1 148.4C167.4 147.6 168.7 146.9 170.1 146.2C171 145.7 171.9 145.2 172.8 144.7C173.4 144.4 174.1 144 174.8 143.7C176.1 143 177.5 142.3 178.8 141.7C179 141.6 179.2 141.5 179.5 141.4L184.3 139.3C184.5 139.2 184.8 139.1 185 139C188.4 137.6 191.9 136.3 195.4 135.2C196.4 134.9 197.3 134.6 198.3 134.3C199 134.1 199.6 133.9 200.3 133.7C201.8 133.3 203.3 132.8 204.8 132.5C208.5 131.6 212.2 130.8 216 130.2C216.9 130 217.8 129.9 218.7 129.7C223.3 129 228.1 128.5 232.9 128.3L240.3 128.1L391 128.1zM528 128C545.7 128 560 142.3 560 160L560 224C560 241.7 545.7 256 528 256L464 256L464 304C464 312.8 456.8 320 448 320C439.2 320 432 312.8 432 304L432 160C432 142.3 446.3 128 464 128L528 128zM464 224L528 224L528 160L464 160L464 224z"/></svg>