<svg xmlns="http://www.w3.org/2000/svg" viewBox="0 0 640 640"><!--! Font Awesome Pro 7.1.0 by @fontawesome - https://fontawesome.com License - https://fontawesome.com/license (Commercial License) Copyright 2025 Fonticons, Inc. --><path fill="currentColor" d="M360 224C373.3 224 384 213.3 384 200L384 112L544 272L384 432L384 344C384 330.7 373.3 320 360 320L256 320C185.3 320 128 377.3 128 448C128 456.3 128.7 464.1 130 471.2C111.8 447.8 96 414.1 96 368C96 288.5 160.5 224 240 224L360 224zM352 368L352 432C352 444.9 359.8 456.6 371.8 461.6C383.8 466.6 397.5 463.8 406.7 454.7L566.7 294.7C579.2 282.2 579.2 261.9 566.7 249.4L406.7 89.4C397.5 80.2 383.8 77.5 371.8 82.5C359.8 87.5 352 99.1 352 112L352 192L240 192C142.8 192 64 270.8 64 368C64 481.3 145.5 531.9 164.2 542.1C166.7 543.5 169.5 544 172.3 544C183.2 544 192 535.1 192 524.3C192 516.8 187.7 509.9 182.2 504.8C172.8 496 160 478.4 160 448.1C160 395.1 203 352.1 256 352.1L352 352.1L352 368.1z"/></svg>