<svg xmlns="http://www.w3.org/2000/svg" viewBox="0 0 640 640"><!--! Font Awesome Pro 7.1.0 by @fontawesome - https://fontawesome.com License - https://fontawesome.com/license (Commercial License) Copyright 2025 Fonticons, Inc. --><path fill="currentColor" d="M266.5 160C299.1 186.4 320 226.8 320 272L320 480C320 491.7 316.9 502.6 311.4 512L544 512C561.7 512 576 497.7 576 480L576 288C576 217.3 518.7 160 448 160L266.5 160zM176 160C114.1 160 64 210.1 64 272L64 480C64 497.7 78.3 512 96 512L256 512C273.7 512 288 497.7 288 480L288 272C288 210.1 237.9 160 176 160zM176 128L448 128C536.4 128 608 199.6 608 288L608 480C608 515.3 579.3 544 544 544L96 544C60.7 544 32 515.3 32 480L32 272C32 192.5 96.5 128 176 128zM128 288L224 288C232.8 288 240 295.2 240 304C240 312.8 232.8 320 224 320L128 320C119.2 320 112 312.8 112 304C112 295.2 119.2 288 128 288zM352 304C352 295.2 359.2 288 368 288L512 288C529.7 288 544 302.3 544 320L544 384C544 401.7 529.7 416 512 416L448 416C430.3 416 416 401.7 416 384L416 320L368 320C359.2 320 352 312.8 352 304zM448 320L448 384L512 384L512 320L448 320z"/></svg>