<svg xmlns="http://www.w3.org/2000/svg" viewBox="0 0 640 640"><!--! Font Awesome Pro 7.1.0 by @fontawesome - https://fontawesome.com License - https://fontawesome.com/license (Commercial License) Copyright 2025 Fonticons, Inc. --><path fill="currentColor" d="M192 272C197.3 266.7 314.6 148.4 352 110.7L352 208C352 216.8 359.2 224 368 224L432 224C511.5 224 576 288.5 576 368C576 411.8 560.5 444.7 542.3 468.1C543.4 461.8 544 455.1 544 448C544 377.3 486.7 320 416 320L368 320C359.2 320 352 327.2 352 336L352 433.3C314.6 395.6 197.3 277.3 192 272zM356.7 72C349.6 72 342.7 74.7 337.4 80C314.3 103.3 175.1 243.7 169.4 249.4C156.9 261.9 156.9 282.2 169.4 294.7C175.1 300.4 314.4 440.8 337.4 464.1C342.7 469.4 349.6 472.1 356.7 472.1C371.8 472.1 384 459.9 384 444.8L384 352.1L416 352.1C469 352.1 512 395.1 512 448.1C512 475.5 500.8 492.2 485.8 514.6L482.7 519.2C478.7 525.2 479.2 533.2 484 538.7C488.8 544.2 496.7 545.7 503.1 542.4C520.8 533.6 607.9 481.6 607.9 368.1C607.9 270.9 529.1 192.1 431.9 192.1L383.9 192.1L383.9 99.4C384 84.2 371.8 72 356.7 72zM235.3 100.7C241.5 94.5 241.5 84.3 235.3 78.1C229.1 71.9 218.9 71.9 212.7 78.1L41.4 249.4C28.9 261.9 28.9 282.2 41.4 294.7L212.7 465.9C218.9 472.1 229.1 472.1 235.3 465.9C241.5 459.7 241.5 449.5 235.3 443.3L64 272L235.3 100.7z"/></svg>