<svg xmlns="http://www.w3.org/2000/svg" viewBox="0 0 640 640"><!--! Font Awesome Pro 7.1.0 by @fontawesome - https://fontawesome.com License - https://fontawesome.com/license (Commercial License) Copyright 2025 Fonticons, Inc. --><path fill="currentColor" d="M544 200C544 177.6 531.8 160.1 518.1 148C504.4 135.9 486.4 126.4 467 119.1C427.8 104.4 375.8 96 320 96C264.2 96 212.2 104.4 173 119.1C153.5 126.4 135.5 135.9 121.9 148C108.2 160.1 96 177.6 96 200L96 416C96 461.2 131.8 493.4 169.9 512.5C210 532.5 263.1 544 320 544C376.9 544 430 532.5 470.1 512.5C508.2 493.4 544 461.2 544 416L544 200zM512 200C512 214.8 500.1 228.6 479.7 240C390.5 239.9 336.2 181.1 336 128.2C434.6 131.2 512 162.2 512 200zM128 200C128 162.3 205.4 131.3 304 128.2C304 140.7 306.1 153.1 310 164.9C292.1 169.5 270.7 176.8 249.2 187.6C222.5 201 194.8 220.2 174 246.7C145.3 234.1 128 217.8 128 199.9zM206.4 258.1C222.5 240.6 242.7 226.8 263.6 216.3C285.6 205.3 307.4 198.3 324.1 194.5C343.4 224.8 375.5 249.5 416.1 262.3C387.8 268.4 355 271.9 320 271.9C277.5 271.9 238.2 266.7 206.4 258zM128 257C140.7 266.7 156.3 274.6 173 280.8C212.2 295.5 264.2 303.9 320 303.9C375.8 303.9 427.8 295.5 467 280.8C483.7 274.5 499.3 266.7 512 257L512 416C512 469 426 512 320 512C214 512 128 469 128 416L128 257z"/></svg>