<svg xmlns="http://www.w3.org/2000/svg" viewBox="0 0 640 640"><!--! Font Awesome Pro 7.1.0 by @fontawesome - https://fontawesome.com License - https://fontawesome.com/license (Commercial License) Copyright 2025 Fonticons, Inc. --><path fill="currentColor" d="M320 496C320 504.8 327.2 512 336 512C344.8 512 352 504.8 352 496L352 196.8L450.7 344.8C453.7 349.3 458.7 351.9 464 351.9C469.3 351.9 474.3 349.2 477.3 344.8L576 196.8L576 496C576 504.8 583.2 512 592 512C600.8 512 608 504.8 608 496L608 144C608 136.9 603.4 130.7 596.6 128.7C589.8 126.7 582.6 129.3 578.7 135.1L464 307.2L349.3 135.1C345.4 129.2 338.1 126.6 331.4 128.7C324.7 130.8 320 137 320 144L320 496zM32 144L32 496C32 504.8 39.2 512 48 512C56.8 512 64 504.8 64 496L64 368L161.9 368L209 501.3C211.9 509.6 221.1 514 229.4 511.1C237.7 508.2 242.1 499 239.2 490.7L194.7 365C248.1 352.8 288 305.1 288 248C288 181.7 234.3 128 168 128L48 128C39.2 128 32 135.2 32 144zM64 336L64 160L168 160C216.6 160 256 199.4 256 248C256 296.6 216.6 336 168 336L64 336z"/></svg>