<svg xmlns="http://www.w3.org/2000/svg" viewBox="0 0 640 640"><!--! Font Awesome Pro 7.1.0 by @fontawesome - https://fontawesome.com License - https://fontawesome.com/license (Commercial License) Copyright 2025 Fonticons, Inc. --><path fill="currentColor" d="M296 88C296 74.7 306.7 64 320 64C333.3 64 344 74.7 344 88C344 101.3 333.3 112 320 112C306.7 112 296 101.3 296 88zM376 88C376 57.1 350.9 32 320 32C289.1 32 264 57.1 264 88C264 118.9 289.1 144 320 144C350.9 144 376 118.9 376 88zM236.8 255.1C237.8 253.4 238.9 251.7 240 250.1L240 592C240 600.8 247.2 608 256 608C264.8 608 272 600.8 272 592L272 432L368 432L368 592C368 600.8 375.2 608 384 608C392.8 608 400 600.8 400 592L400 250.1C401.1 251.7 402.2 253.4 403.2 255.1L466.3 360.2C470.8 367.8 480.7 370.2 488.3 365.7C495.9 361.2 498.3 351.3 493.8 343.8L430.7 238.6C407.3 199.8 365.3 176 320 176C274.7 176 232.7 199.8 209.4 238.6L146.3 343.8C141.8 351.4 144.2 361.2 151.8 365.7C159.4 370.2 169.2 367.8 173.8 360.2L236.9 255.1zM368 400L272 400L272 220.7C286.4 212.5 302.9 208 320 208C337.1 208 353.6 212.5 368 220.7L368 400z"/></svg>