<svg xmlns="http://www.w3.org/2000/svg" viewBox="0 0 640 640"><!--! Font Awesome Pro 7.1.0 by @fontawesome - https://fontawesome.com License - https://fontawesome.com/license (Commercial License) Copyright 2025 Fonticons, Inc. --><path fill="currentColor" d="M320 96C311.2 96 304 103.2 304 112L304 160.7C205.4 168.8 128 251.3 128 352L128 528C128 536.8 135.2 544 144 544C152.8 544 160 536.8 160 528L160 352C160 269 223.1 200.8 304 192.8L304 528C304 536.8 311.2 544 320 544C328.8 544 336 536.8 336 528L336 192.8C416.9 200.8 480 269 480 352L480 528C480 536.8 487.2 544 496 544C504.8 544 512 536.8 512 528L512 352C512 251.3 434.6 168.8 336 160.7L336 112C336 103.2 328.8 96 320 96z"/></svg>