<svg xmlns="http://www.w3.org/2000/svg" viewBox="0 0 640 640"><!--! Font Awesome Pro 7.1.0 by @fontawesome - https://fontawesome.com License - https://fontawesome.com/license (Commercial License) Copyright 2025 Fonticons, Inc. --><path fill="currentColor" d="M523.3 68.7C518.3 63.6 510.5 62.5 504.2 66L432.2 106C428.2 108.2 425.4 112 424.4 116.4L401.4 215.9L362.8 254.5C291.4 251.1 64 251.6 64 400C64 497.2 142.8 576 240 576C388.4 576 388.9 348.6 385.4 277.2L424 238.6L523.5 215.6C527.9 214.6 531.7 211.7 533.9 207.8L573.9 135.8C577.4 129.6 576.3 121.8 571.2 116.7L523.2 68.7zM331.6 285.7L288.5 328.8C279 323.2 267.9 319.9 256 319.9C220.7 319.9 192 348.6 192 383.9C192 419.2 220.7 447.9 256 447.9C291.3 447.9 320 419.2 320 383.9C320 372 316.8 360.9 311.1 351.4L354.2 308.3C354.4 336.9 352.8 373.9 346.4 410.4C339.8 448.3 328.4 482.8 310.8 507.1C294.2 530 272.3 543.9 240 543.9C160.5 543.9 96 479.4 96 399.9C96 367.5 109.9 345.6 132.8 329.1C157.1 311.5 191.6 300.1 229.5 293.5C266 287.1 303 285.6 331.6 285.7zM509.5 186L437.4 202.6L454 130.5L509.2 99.8L540.1 130.7L509.4 185.9zM256 352C273.7 352 288 366.3 288 384C288 401.7 273.7 416 256 416C238.3 416 224 401.7 224 384C224 366.3 238.3 352 256 352z"/></svg>