<svg xmlns="http://www.w3.org/2000/svg" viewBox="0 0 640 640"><!--! Font Awesome Pro 7.1.0 by @fontawesome - https://fontawesome.com License - https://fontawesome.com/license (Commercial License) Copyright 2025 Fonticons, Inc. --><path fill="currentColor" d="M544 320C544 196.3 443.7 96 320 96C196.3 96 96 196.3 96 320C96 443.7 196.3 544 320 544C443.7 544 544 443.7 544 320zM64 320C64 178.6 178.6 64 320 64C461.4 64 576 178.6 576 320C576 461.4 461.4 576 320 576C178.6 576 64 461.4 64 320zM176 320C176 380.2 213 431.9 265.6 453.4C279.9 440.2 299 432 320 432C341 432 360.2 440.1 374.4 453.4C427 431.9 464 380.2 464 320C464 259.8 427 208.1 374.4 186.6C360.2 199.9 341 208 320 208C299 208 279.8 199.9 265.6 186.6C213 208.1 176 259.8 176 320zM144 320C144 242.2 194.5 176.1 264.6 152.9C271.7 150.5 279.2 154.3 284.2 159.9C293 169.8 305.8 176 320 176C334.2 176 347 169.8 355.8 159.9C360.8 154.3 368.2 150.5 375.4 152.9C445.5 176.1 496 242.2 496 320C496 397.8 445.5 463.9 375.4 487.1C368.3 489.5 360.8 485.7 355.8 480.1C347 470.2 334.2 464 320 464C305.8 464 293 470.2 284.2 480.1C279.2 485.7 271.8 489.5 264.6 487.1C194.5 463.9 144 397.8 144 320zM304 280C304 293.3 293.3 304 280 304C266.7 304 256 293.3 256 280C256 266.7 266.7 256 280 256C293.3 256 304 266.7 304 280zM280 384C266.7 384 256 373.3 256 360C256 346.7 266.7 336 280 336C293.3 336 304 346.7 304 360C304 373.3 293.3 384 280 384zM384 280C384 293.3 373.3 304 360 304C346.7 304 336 293.3 336 280C336 266.7 346.7 256 360 256C373.3 256 384 266.7 384 280zM360 384C346.7 384 336 373.3 336 360C336 346.7 346.7 336 360 336C373.3 336 384 346.7 384 360C384 373.3 373.3 384 360 384z"/></svg>