<svg xmlns="http://www.w3.org/2000/svg" viewBox="0 0 640 640"><!--! Font Awesome Pro 7.1.0 by @fontawesome - https://fontawesome.com License - https://fontawesome.com/license (Commercial License) Copyright 2025 Fonticons, Inc. --><path fill="currentColor" d="M160 252.6C160 166.6 231.1 96 320 96C408.9 96 480 166.6 480 252.6C480 302.9 454.1 362 418.6 418.2C384.6 472 344.6 518.7 320 545.6C295.4 518.7 255.4 471.9 221.4 418.2C185.9 362 160 302.9 160 252.6zM320 64C214 64 128 148.4 128 252.6C128 371.9 248.2 514.9 298.4 569.4C310.2 582.2 329.8 582.2 341.6 569.4C391.8 514.9 512 371.9 512 252.6C512 148.4 426 64 320 64zM359.1 188.3C362.9 184.5 368 182.4 373.4 182.4C384.6 182.4 393.6 191.4 393.6 202.6C393.6 208 391.5 213.1 387.7 216.9L292.5 312.1C288.4 316.2 283.3 319.1 277.6 320.5L248.1 327.9L255.5 298.4C256.9 292.8 259.8 287.6 263.9 283.5L359.1 188.3zM373.4 150.4C359.6 150.4 346.3 155.9 336.5 165.7L241.3 260.9C233.1 269.1 227.3 279.4 224.5 290.6L215.3 327.5C214.8 329.7 214.5 331.9 214.5 334.1C214.5 349.2 226.8 361.5 241.9 361.5C244.1 361.5 246.4 361.2 248.5 360.7L285.4 351.5C296.7 348.7 306.9 342.9 315.1 334.7L410.3 239.5C420.1 229.7 425.6 216.4 425.6 202.6C425.6 173.8 402.2 150.4 373.4 150.4z"/></svg>