<svg xmlns="http://www.w3.org/2000/svg" viewBox="0 0 640 640"><!--! Font Awesome Pro 7.1.0 by @fontawesome - https://fontawesome.com License - https://fontawesome.com/license (Commercial License) Copyright 2025 Fonticons, Inc. --><path fill="currentColor" d="M160 252.6C160 166.6 231.1 96 320 96C408.9 96 480 166.6 480 252.6C480 302.9 454.1 362 418.6 418.2C384.6 472 344.6 518.7 320 545.6C295.4 518.7 255.4 471.9 221.4 418.2C185.9 362 160 302.9 160 252.6zM320 64C214 64 128 148.4 128 252.6C128 371.9 248.2 514.9 298.4 569.4C310.2 582.2 329.8 582.2 341.6 569.4C391.8 514.9 512 371.9 512 252.6C512 148.4 426 64 320 64zM304 328C304 336.8 311.2 344 320 344C328.8 344 336 336.8 336 328L336 272L392 272C400.8 272 408 264.8 408 256C408 247.2 400.8 240 392 240L336 240L336 184C336 175.2 328.8 168 320 168C311.2 168 304 175.2 304 184L304 240L248 240C239.2 240 232 247.2 232 256C232 264.8 239.2 272 248 272L304 272L304 328z"/></svg>