<svg xmlns="http://www.w3.org/2000/svg" viewBox="0 0 640 640"><!--! Font Awesome Pro 7.1.0 by @fontawesome - https://fontawesome.com License - https://fontawesome.com/license (Commercial License) Copyright 2025 Fonticons, Inc. --><path fill="currentColor" d="M304 80C304 71.2 311.2 64 320 64C328.8 64 336 71.2 336 80L336 128L504.3 128C509.2 128 513.8 130.2 516.8 134L568 198C572.7 203.8 572.7 212.1 568 218L516.8 282C513.8 285.8 509.2 288 504.3 288L336 288L336 320L504 320C526.1 320 544 337.9 544 360L544 440C544 462.1 526.1 480 504 480L336 480L336 560C336 568.8 328.8 576 320 576C311.2 576 304 568.8 304 560L304 480L135.7 480C130.8 480 126.2 477.8 123.2 474L72 410C67.3 404.2 67.3 395.9 72 390L123.2 326C126.2 322.2 130.8 320 135.7 320L304 320L304 288L136 288C113.9 288 96 270.1 96 248L96 168C96 145.9 113.9 128 136 128L304 128L304 80zM496.6 160L136 160C131.6 160 128 163.6 128 168L128 248C128 252.4 131.6 256 136 256L496.6 256L535 208L496.6 160zM143.4 352L105 400L143.4 448L504 448C508.4 448 512 444.4 512 440L512 360C512 355.6 508.4 352 504 352L143.4 352z"/></svg>