<svg xmlns="http://www.w3.org/2000/svg" viewBox="0 0 640 640"><!--! Font Awesome Pro 7.1.0 by @fontawesome - https://fontawesome.com License - https://fontawesome.com/license (Commercial License) Copyright 2025 Fonticons, Inc. --><path fill="currentColor" d="M160 252.6C160 166.6 231.1 96 320 96C408.9 96 480 166.6 480 252.6C480 302.9 454.1 362 418.6 418.2C384.6 472 344.6 518.7 320 545.6C295.4 518.7 255.4 471.9 221.4 418.2C185.9 362 160 302.9 160 252.6zM320 64C214 64 128 148.4 128 252.6C128 371.9 248.2 514.9 298.4 569.4C310.2 582.2 329.8 582.2 341.6 569.4C391.8 514.9 512 371.9 512 252.6C512 148.4 426 64 320 64zM256 248C269.3 248 280 237.3 280 224C280 210.7 269.3 200 256 200C242.7 200 232 210.7 232 224C232 237.3 242.7 248 256 248zM408 224C408 210.7 397.3 200 384 200C370.7 200 360 210.7 360 224C360 237.3 370.7 248 384 248C397.3 248 408 237.3 408 224zM253.3 311.1C248.4 303.7 238.5 301.8 231.1 306.7C223.7 311.6 221.8 321.5 226.7 328.9C237.7 345.4 270.6 376 320 376C369.4 376 402.3 345.4 413.3 328.9C418.2 321.5 416.2 311.6 408.9 306.7C401.6 301.8 391.6 303.8 386.7 311.1C379.9 321.3 356 344 320 344C284 344 260.1 321.3 253.3 311.1z"/></svg>