<svg xmlns="http://www.w3.org/2000/svg" viewBox="0 0 640 640"><!--! Font Awesome Pro 7.1.0 by @fontawesome - https://fontawesome.com License - https://fontawesome.com/license (Commercial License) Copyright 2025 Fonticons, Inc. --><path fill="currentColor" d="M576 90.7C576 85.1 573.1 80 568.4 77.1C563.7 74.2 557.8 73.9 552.8 76.4L416.9 144.7L242.6 86.6C231.1 82.8 218.6 83.4 207.6 88.4L73.4 149.3C67.7 151.9 64 157.6 64 163.9L64 549.3C64 554.9 66.9 560 71.6 563C76.3 566 82.2 566.2 87.2 563.7L223.1 495.3L397.4 553.4C408.9 557.2 421.4 556.6 432.4 551.6L566.6 490.7C572.3 488.1 576 482.4 576 476.1L576 90.7zM432 173L544 116.6L544 465.8L432 516.6L432 173zM400 172.8L400 520.5L240 467.2L240 119.5L400 172.8zM208 467L96 523.4L96 174.2L208 123.4L208 467z"/></svg>