<svg xmlns="http://www.w3.org/2000/svg" viewBox="0 0 640 640"><!--! Font Awesome Pro 7.1.0 by @fontawesome - https://fontawesome.com License - https://fontawesome.com/license (Commercial License) Copyright 2025 Fonticons, Inc. --><path fill="currentColor" d="M422.5 116.9L265 274.3L365.7 375L523.1 217.5C536.5 204.1 544 186 544 167.2C544 127.9 512.1 96 472.8 96C453.9 96 435.8 103.5 422.5 116.9zM242.3 297L189 350.3C143.7 395.6 113.5 453.7 102.3 516.7L97.8 542.1L123.2 537.6C186.2 526.5 244.3 496.2 289.6 451L343 397.7L242.3 297zM399.8 94.2C419.2 74.8 445.4 64 472.8 64C529.8 64 576 110.2 576 167.2C576 194.6 565.1 220.8 545.8 240.2L312.3 473.7C262.4 523.6 198.3 557 128.8 569.2L92.1 575.7C84.5 577 76.6 574.5 71 569C65.4 563.5 63 555.6 64.3 547.9L70.8 511.2C83.1 441.7 116.4 377.6 166.3 327.7L363.7 130.3L342.6 109.3C330.1 96.8 309.8 96.8 297.3 109.3L187.3 219.3C181.1 225.5 170.9 225.5 164.7 219.3C158.5 213.1 158.5 202.9 164.7 196.7L274.7 86.6C299.7 61.6 340.2 61.6 365.2 86.6L386.3 107.7L399.8 94.2z"/></svg>