<svg xmlns="http://www.w3.org/2000/svg" viewBox="0 0 640 640"><!--! Font Awesome Pro 7.1.0 by @fontawesome - https://fontawesome.com License - https://fontawesome.com/license (Commercial License) Copyright 2025 Fonticons, Inc. --><path fill="currentColor" d="M288 112C288 103.2 295.2 96 304 96L432 96C440.8 96 448 103.2 448 112L448 240C448 248.8 440.8 256 432 256C423.2 256 416 248.8 416 240L416 150.6L311.3 255.3C336.7 285.8 352 325.1 352 367.9C352 465.1 273.2 543.9 176 543.9C78.8 543.9 0 465.2 0 368C0 270.8 78.8 192 176 192C218.8 192 258.1 207.3 288.6 232.7L393.4 128L304 128C295.2 128 288 120.8 288 112zM176 512C255.5 512 320 447.5 320 368C320 288.5 255.5 224 176 224C96.5 224 32 288.5 32 368C32 447.5 96.5 512 176 512zM322 537.9C331.6 529.6 340.6 520.5 348.7 510.7C355 511.5 361.5 512 368 512C447.5 512 512 447.5 512 368C512 334.9 500.8 304.3 482 280C490.8 269 496 255.1 496 240L496 217.4L585.4 128L496 128L496 112C496 106.5 495.3 101.2 494 96.1C494.6 96 495.3 96 496 96L624 96C632.8 96 640 103.2 640 112L640 240C640 248.8 632.8 256 624 256C615.2 256 608 248.8 608 240L608 150.6L503.3 255.3C528.7 285.8 544 325.1 544 367.9C544 465.1 465.2 543.9 368 543.9C352.1 543.9 336.6 541.8 322 537.8z"/></svg>