<svg xmlns="http://www.w3.org/2000/svg" viewBox="0 0 640 640"><!--! Font Awesome Pro 7.1.0 by @fontawesome - https://fontawesome.com License - https://fontawesome.com/license (Commercial License) Copyright 2025 Fonticons, Inc. --><path fill="currentColor" d="M448 0C439.2 0 432 7.2 432 16C432 24.8 439.2 32 448 32L521.4 32L416.7 136.7C386.1 111.3 346.8 96 304 96C206.8 96 128 174.8 128 272C128 363.8 198.3 439.2 288 447.3L288 512L224 512C215.2 512 208 519.2 208 528C208 536.8 215.2 544 224 544L288 544L288 592C288 600.8 295.2 608 304 608C312.8 608 320 600.8 320 592L320 544L384 544C392.8 544 400 536.8 400 528C400 519.2 392.8 512 384 512L320 512L320 447.3C409.7 439.2 480 363.8 480 272C480 229.2 464.7 189.9 439.3 159.4L544 54.6L544 128C544 136.8 551.2 144 560 144C568.8 144 576 136.8 576 128L576 16C576 7.2 568.8 0 560 0L448 0zM304 128C383.5 128 448 192.5 448 272C448 351.5 383.5 416 304 416C224.5 416 160 351.5 160 272C160 192.5 224.5 128 304 128z"/></svg>