<svg xmlns="http://www.w3.org/2000/svg" viewBox="0 0 640 640"><!--! Font Awesome Pro 7.1.0 by @fontawesome - https://fontawesome.com License - https://fontawesome.com/license (Commercial License) Copyright 2025 Fonticons, Inc. --><path fill="currentColor" d="M400 96C391.2 96 384 103.2 384 112C384 120.8 391.2 128 400 128L489.4 128L384.7 232.7C354.1 207.3 314.8 192 272 192C174.8 192 96 270.8 96 368C96 465.2 174.8 544 272 544C369.2 544 448 465.2 448 368C448 325.2 432.7 285.9 407.3 255.4L512 150.6L512 240C512 248.8 519.2 256 528 256C536.8 256 544 248.8 544 240L544 112C544 103.2 536.8 96 528 96L400 96zM128 368C128 288.5 192.5 224 272 224C351.5 224 416 288.5 416 368C416 447.5 351.5 512 272 512C192.5 512 128 447.5 128 368z"/></svg>