<svg xmlns="http://www.w3.org/2000/svg" viewBox="0 0 640 640"><!--! Font Awesome Pro 7.1.0 by @fontawesome - https://fontawesome.com License - https://fontawesome.com/license (Commercial License) Copyright 2025 Fonticons, Inc. --><path fill="currentColor" d="M320 256L320 256C240.5 256 176 320.5 176 400C176 479.5 240.5 544 320 544C399.5 544 464 479.5 464 400C464 320.5 399.5 256 320 256zM144 400C144 308.2 214.3 232.8 304 224.7L304 176L256 176C247.2 176 240 168.8 240 160C240 151.2 247.2 144 256 144L304 144L304 75.3L266.5 108.1C259.8 113.9 249.7 113.2 243.9 106.6C238.1 100 238.8 89.8 245.4 84L309.4 28C315.4 22.7 324.4 22.7 330.5 28L394.5 84C401.1 89.8 401.8 99.9 396 106.6C390.2 113.3 380.1 113.9 373.4 108.1L336 75.3L336 144L384 144C392.8 144 400 151.2 400 160C400 168.8 392.8 176 384 176L336 176L336 224.7C425.7 232.8 496 308.2 496 400C496 497.2 417.2 576 320 576C222.8 576 144 497.2 144 400z"/></svg>