<svg xmlns="http://www.w3.org/2000/svg" viewBox="0 0 640 640"><!--! Font Awesome Pro 7.1.0 by @fontawesome - https://fontawesome.com License - https://fontawesome.com/license (Commercial License) Copyright 2025 Fonticons, Inc. --><path fill="currentColor" d="M384.5 320L384.5 320C384.5 240.5 320 176 240.5 176C161 176 96.5 240.5 96.5 320C96.5 399.5 161 464 240.5 464C320 464 384.5 399.5 384.5 320zM240.5 144C332.3 144 407.7 214.3 415.8 304L464.5 304L464.5 256C464.5 247.2 471.7 240 480.5 240C489.3 240 496.5 247.2 496.5 256L496.5 304L565.2 304L532.4 266.5C526.6 259.8 527.3 249.7 533.9 243.9C540.5 238.1 550.7 238.8 556.5 245.4L612.5 309.4C617.8 315.4 617.8 324.4 612.5 330.5L556.5 394.5C550.7 401.1 540.6 401.8 533.9 396C527.2 390.2 526.6 380.1 532.4 373.4L565.2 335.9L496.5 335.9L496.5 383.9C496.5 392.7 489.3 399.9 480.5 399.9C471.7 399.9 464.5 392.7 464.5 383.9L464.5 335.9L415.8 335.9C407.7 425.6 332.3 495.9 240.5 495.9C143.3 495.9 64.5 417.1 64.5 319.9C64.5 222.7 143.3 143.9 240.5 143.9z"/></svg>