<svg xmlns="http://www.w3.org/2000/svg" viewBox="0 0 640 640"><!--! Font Awesome Pro 7.1.0 by @fontawesome - https://fontawesome.com License - https://fontawesome.com/license (Commercial License) Copyright 2025 Fonticons, Inc. --><path fill="currentColor" d="M432 64C423.2 64 416 71.2 416 80C416 88.8 423.2 96 432 96L521.4 96L448 169.4L411.3 132.7C405.1 126.5 394.9 126.5 388.7 132.7C382.5 138.9 382.5 149.1 388.7 155.3L425.4 192L384.7 232.7C354.1 207.3 314.8 192 272 192C174.8 192 96 270.8 96 368C96 465.2 174.8 544 272 544C369.2 544 448 465.2 448 368C448 325.2 432.7 285.9 407.3 255.4L448 214.7L484.7 251.4C490.9 257.6 501.1 257.6 507.3 251.4C513.5 245.2 513.5 235 507.3 228.8L470.6 192L544 118.6L544 208C544 216.8 551.2 224 560 224C568.8 224 576 216.8 576 208L576 80C576 71.2 568.8 64 560 64L432 64zM128 368C128 288.5 192.5 224 272 224C351.5 224 416 288.5 416 368C416 447.5 351.5 512 272 512C192.5 512 128 447.5 128 368z"/></svg>