<svg xmlns="http://www.w3.org/2000/svg" viewBox="0 0 640 640"><!--! Font Awesome Pro 7.1.0 by @fontawesome - https://fontawesome.com License - https://fontawesome.com/license (Commercial License) Copyright 2025 Fonticons, Inc. --><path fill="currentColor" d="M496 16C496 7.2 503.2 0 512 0L624 0C632.8 0 640 7.2 640 16L640 128C640 136.8 632.8 144 624 144C615.2 144 608 136.8 608 128L608 54.6L503.3 159.4C528.7 189.9 544 229.2 544 272C544 363.8 473.7 439.2 384 447.3L384 512L448 512C456.8 512 464 519.2 464 528C464 536.8 456.8 544 448 544L384 544L384 592C384 600.8 376.8 608 368 608C359.2 608 352 600.8 352 592L352 544L288 544C279.2 544 272 536.8 272 528C272 519.2 279.2 512 288 512L352 512L352 447.3C262.3 439.2 192 363.8 192 272C192 174.8 270.8 96 368 96C410.8 96 450.1 111.3 480.6 136.7L585.4 32L512 32C503.2 32 496 24.8 496 16zM512 272C512 192.5 447.5 128 368 128C288.5 128 224 192.5 224 272C224 351.5 288.5 416 368 416C447.5 416 512 351.5 512 272zM176 40C182.2 40 187.9 43.6 190.5 49.3L216.8 106.6C208.3 114.4 200.4 122.8 193.2 131.8L176 94.3L152.9 144.5C149.7 151.5 142 155.2 134.5 153.4L80.8 140.1L105.7 189.5C109.2 196.4 107.3 204.7 101.2 209.4L57.4 243.1L111.5 254.4C119 256 124.4 262.7 124.2 270.3L123.2 325.6L146.6 306.2C148.4 318.1 151.2 329.7 154.8 340.9L116.7 372.4C111.9 376.4 105.2 377.2 99.6 374.5C94 371.8 90.4 366 90.5 359.8L92 283L16.7 267.3C10.6 266 5.8 261.3 4.4 255.2C3 249.1 5.3 242.8 10.2 239L71.1 192.2L36.5 123.6C33.7 118 34.4 111.3 38.3 106.4C42.2 101.5 48.6 99.3 54.6 100.8L129.2 119.2L161.3 49.4C163.9 43.7 169.6 40.1 175.8 40.1z"/></svg>