<svg xmlns="http://www.w3.org/2000/svg" viewBox="0 0 640 640"><!--! Font Awesome Pro 7.1.0 by @fontawesome - https://fontawesome.com License - https://fontawesome.com/license (Commercial License) Copyright 2025 Fonticons, Inc. --><path fill="currentColor" d="M80 96C73.7 96 67.9 99.7 65.4 105.5C62.9 111.3 63.9 118.1 68.2 122.8L152 215L152 224L160.2 224L304 382.2L304 544L208 544C199.2 544 192 551.2 192 560C192 568.8 199.2 576 208 576L432 576C440.8 576 448 568.8 448 560C448 551.2 440.8 544 432 544L336 544L336 382.2L479.8 224L488 224L488 215L571.8 122.8C576.1 118.1 577.2 111.4 574.6 105.6C572 99.8 566.3 96 560 96L80 96zM465.7 192L174.4 192L116.2 128L523.9 128L465.7 192zM203.4 224L436.6 224L320 352.2L203.4 224z"/></svg>