<svg xmlns="http://www.w3.org/2000/svg" viewBox="0 0 640 640"><!--! Font Awesome Pro 7.1.0 by @fontawesome - https://fontawesome.com License - https://fontawesome.com/license (Commercial License) Copyright 2025 Fonticons, Inc. --><path fill="currentColor" d="M496 256C483.7 256 471.9 254 460.9 250.4L439.9 276.7C457.2 284 476.1 288.1 496.1 288.1C575.6 288.1 640.1 223.6 640.1 144.1C640.1 64.6 575.5 0 496 0C439.5 0 390.5 32.6 367 80L404.1 80C424.3 51 458 32 496 32C557.9 32 608 82.1 608 144C608 205.9 557.9 256 496 256zM80 128C73.8 128 68.2 131.5 65.6 137.1C63 142.7 63.7 149.2 67.5 154L256 389.6L256 544L176 544C167.2 544 160 551.2 160 560C160 568.8 167.2 576 176 576L368 576C376.8 576 384 568.8 384 560C384 551.2 376.8 544 368 544L288 544L288 389.6L476.5 154C480.3 149.2 481.1 142.6 478.4 137.1C475.7 131.6 470.2 128 464 128L80 128zM430.7 160L272 358.4L113.3 160L430.7 160z"/></svg>