<svg xmlns="http://www.w3.org/2000/svg" viewBox="0 0 640 640"><!--! Font Awesome Pro 7.1.0 by @fontawesome - https://fontawesome.com License - https://fontawesome.com/license (Commercial License) Copyright 2025 Fonticons, Inc. --><path fill="currentColor" d="M320 160C340.9 160 361.3 166.2 378.6 177.8L415.7 202.6C436.7 216.6 461.4 224.1 486.7 224.1L511.9 224.1L511.9 288.1C511.9 394.1 425.9 480.1 319.9 480.1C213.9 480.1 128 394 128 288L128 224L153.2 224C178.5 224 203.2 216.5 224.2 202.5L261.3 177.7C278.7 166.2 299.1 160 320 160zM153.2 192L48 192C21.5 192 0 213.5 0 240L0 325C0 376.4 35 421.2 84.8 433.7L156.1 451.5L171 455.2C210.6 490.5 262.8 512 320 512C377.2 512 429.4 490.5 469 455.2L483.9 451.5L555.2 433.7C605 421.2 640 376.4 640 325L640 240C640 213.5 618.5 192 592 192L486.8 192C467.8 192 449.3 186.4 433.5 175.9L396.4 151.1C373.8 136 347.2 128 320 128C292.8 128 266.2 136 243.6 151.1L206.5 175.9C190.7 186.4 172.2 192 153.2 192zM48 224L96 224L96 288C96 334.3 110 377.3 134.1 413L92.6 402.7C57 393.8 32 361.8 32 325L32 240C32 231.2 39.2 224 48 224zM547.4 402.7L505.9 413C530 377.3 544 334.3 544 288L544 224L592 224C600.8 224 608 231.2 608 240L608 325C608 361.7 583 393.7 547.4 402.6zM208 256C199.2 256 192 263.2 192 272C192 280.8 199.2 288 208 288L432 288C440.8 288 448 280.8 448 272C448 263.2 440.8 256 432 256L208 256zM192 336C192 344.8 199.2 352 208 352L432 352C440.8 352 448 344.8 448 336C448 327.2 440.8 320 432 320L208 320C199.2 320 192 327.2 192 336zM240 384C231.2 384 224 391.2 224 400C224 408.8 231.2 416 240 416L400 416C408.8 416 416 408.8 416 400C416 391.2 408.8 384 400 384L240 384z"/></svg>