<svg xmlns="http://www.w3.org/2000/svg" viewBox="0 0 640 640"><!--! Font Awesome Pro 7.1.0 by @fontawesome - https://fontawesome.com License - https://fontawesome.com/license (Commercial License) Copyright 2025 Fonticons, Inc. --><path fill="currentColor" d="M608 450.1C608 519.8 552.2 576.7 482.4 578.1C413 579.4 355.6 525.3 352.1 456.8L351.9 450.1L351.9 432C351.9 423.2 359.1 416 367.9 416C376.7 416 383.9 423.2 383.9 432L383.9 450.1L384 455.1C386.6 506.5 429.7 547.1 481.7 546.1C534 545.1 575.9 502.4 575.9 450.1L575.9 272L607.9 272L607.9 450.1zM422.5 128.3C454.8 131.6 480 158.9 480 192L480 288L479.7 294.5C476.6 324.6 452.7 348.6 422.6 351.6L416.1 351.9L339.9 351.9L335.8 351.7C316.9 350.4 299.8 339.8 290.1 323.5L288.1 319.9L279.3 302.2C274.9 293.4 265.9 287.9 256.1 287.9C246.3 287.9 237.3 293.4 232.9 302.2L224.1 319.9L222.1 323.5C212.4 339.8 195.3 350.4 176.4 351.7L172.3 351.9L96.1 351.9L89.6 351.6C59.5 348.5 35.5 324.6 32.5 294.5L32 288L32 192C32 158.9 57.2 131.6 89.5 128.3L96 128L416 128L422.5 128.3zM96 160C79.4 160 65.8 172.6 64.2 188.7L64 192L64 288C64 305.7 78.3 320 96 320L172.2 320C182 320 191 314.5 195.4 305.7L204.2 288L206.2 284.4C216.6 266.9 235.4 256 256 256C276.6 256 295.4 266.9 305.8 284.4L307.8 288L316.6 305.7C321 314.5 330 320 339.8 320L416 320C433.7 320 448 305.7 448 288L448 192C448 174.3 433.7 160 416 160L96 160zM592 96C600.8 96 608 103.2 608 112L608 224L576 224L576 112C576 103.2 583.2 96 592 96z"/></svg>