<svg xmlns="http://www.w3.org/2000/svg" viewBox="0 0 640 640"><!--! Font Awesome Pro 7.1.0 by @fontawesome - https://fontawesome.com License - https://fontawesome.com/license (Commercial License) Copyright 2025 Fonticons, Inc. --><path fill="currentColor" d="M288 160L288 480L96 480C78.3 480 64 465.7 64 448L64 192C64 174.3 78.3 160 96 160L288 160zM320 160L544 160C561.7 160 576 174.3 576 192L576 448C576 465.7 561.7 480 544 480L320 480L320 160zM96 128C60.7 128 32 156.7 32 192L32 448C32 483.3 60.7 512 96 512L544 512C579.3 512 608 483.3 608 448L608 192C608 156.7 579.3 128 544 128L96 128zM208 224C216.8 224 224 231.2 224 240L224 400C224 408.8 216.8 416 208 416L144 416C135.2 416 128 408.8 128 400L128 240C128 231.2 135.2 224 144 224L208 224zM144 192C117.5 192 96 213.5 96 240L96 400C96 426.5 117.5 448 144 448L208 448C234.5 448 256 426.5 256 400L256 240C256 213.5 234.5 192 208 192L144 192z"/></svg>