<svg xmlns="http://www.w3.org/2000/svg" viewBox="0 0 640 640"><!--! Font Awesome Pro 7.1.0 by @fontawesome - https://fontawesome.com License - https://fontawesome.com/license (Commercial License) Copyright 2025 Fonticons, Inc. --><path fill="currentColor" d="M114.2 260.5L114.8 260.7C123 262.7 131.6 260.3 137.6 254.4L184.7 207.3L297.4 320L184.7 432.7L137.6 385.6C131.6 379.6 123 377.2 114.8 379.3L114.2 379.5C103.5 382.1 96 391.7 96 402.7L96 520C96 533.3 106.7 544 120 544L237.3 544C248.3 544 257.9 536.5 260.6 525.8L260.8 525.2C262.8 517 260.4 508.4 254.5 502.4L207.4 455.3L320.1 342.6L432.8 455.3L385.7 502.4C379.7 508.4 377.3 517 379.4 525.2L379.6 525.8C382.3 536.5 391.9 544 402.9 544L520 544C533.3 544 544 533.3 544 520L544 402.7C544 391.7 536.5 382.1 525.8 379.4L525.2 379.2C517 377.2 508.4 379.6 502.4 385.5L455.3 432.6L342.6 319.9L455.3 207.2L502.4 254.3C508.4 260.3 517 262.7 525.2 260.6L525.8 260.4C536.5 257.7 544 248.1 544 237.1L544 120C544 106.7 533.3 96 520 96L402.7 96C391.7 96 382.1 103.5 379.4 114.2L379.2 114.8C377.2 123 379.6 131.6 385.5 137.6L432.6 184.7L319.9 297.4L207.2 184.7L254.3 137.6C260.3 131.6 262.7 123 260.6 114.8L260.4 114.2C257.9 103.5 248.3 96 237.3 96L120 96C106.7 96 96 106.7 96 120L96 237.3C96 248.3 103.5 257.9 114.2 260.6zM128 218.7L128 128L218.7 128L128 218.7zM218.7 512L128 512L128 421.3L218.7 512zM512 218.7L421.3 128L512 128L512 218.7zM421.3 512L512 421.3L512 512L421.3 512z"/></svg>