<svg xmlns="http://www.w3.org/2000/svg" viewBox="0 0 640 640"><!--! Font Awesome Pro 7.1.0 by @fontawesome - https://fontawesome.com License - https://fontawesome.com/license (Commercial License) Copyright 2025 Fonticons, Inc. --><path fill="currentColor" d="M352.9 287.1C382.9 317.1 418.2 338.3 452.3 347.3C464.5 350.5 477.5 352.3 490.3 352L473 369.3C443 399.3 402.3 416.1 359.9 416.1L271.9 416.1C245.4 416.1 223.9 394.6 223.9 368.1L223.9 280.1C223.9 237.7 240.8 197 270.8 167L288 149.8C287.7 162.6 289.5 175.6 292.7 187.8C301.7 221.9 322.9 257.2 352.9 287.2zM528.7 304.8C497.5 336 429 317.9 375.5 264.5C322 211.1 304 142.5 335.2 111.3C345.1 101.4 358.7 96.5 374.4 96.1C383.3 96.3 392.5 97.7 401.5 100C430.4 107.6 461.1 125.9 487.6 152.3C514.1 178.7 532.3 209.5 539.9 238.4C542.2 247.3 543.6 256.3 543.8 265.2C543.4 281.1 538.5 294.8 528.5 304.8zM411.6 68.8C399.6 65.6 386.8 63.8 374.2 64.1C348.5 63.8 321.5 71 300.2 92.3L248.2 144.3C212.2 180.3 192 229.1 192 280.1L192 370.8C192 375 190.3 379.1 187.3 382.1L185.3 384.1L185.2 384.1C185.1 384.1 184.7 384.2 184 384.2C182.5 384.1 180.5 383.5 178.8 382.2C166.8 373.3 151.9 368 135.9 368C96.1 368 63.9 400.2 63.9 440C63.9 477.2 92.1 507.8 128.3 511.6C132.1 547.8 162.7 576 199.9 576C239.7 576 271.9 543.8 271.9 504C271.9 487.9 266.6 473.1 257.7 461.1C256.5 459.4 255.8 457.4 255.7 455.9C255.7 455.2 255.8 454.8 255.8 454.7L255.8 454.6L257.8 452.6C260.8 449.6 264.9 447.9 269.1 447.9L359.9 447.9C410.8 447.9 459.6 427.7 495.6 391.7L547.7 339.6C569.1 318.2 576.3 291 575.8 265.1C576 252.6 574.2 240.1 571.1 228.2C562.1 194.1 540.9 158.8 510.9 128.8C480.9 98.8 445.7 77.7 411.6 68.8zM229.9 436C219.3 450.6 224.2 469.5 232.1 480.1C237 486.8 240 495 240 503.9C240 526 222.1 543.9 200 543.9C177.9 543.9 160 526 160 503.9C160 490.8 149.1 479.9 136 479.9C113.9 479.9 96 462 96 439.9C96 417.8 113.9 399.9 136 399.9C145 399.9 153.2 402.8 159.8 407.8C170.5 415.7 189.3 420.6 203.9 410C210.4 420.5 219.3 429.4 229.8 435.9zM415.9 224.1C431.2 239.4 450.8 244.5 459.7 235.6C468.6 226.7 463.5 207.1 448.2 191.8C432.9 176.5 413.3 171.4 404.4 180.3C395.5 189.2 400.6 208.8 415.9 224.1z"/></svg>