<svg xmlns="http://www.w3.org/2000/svg" viewBox="0 0 640 640"><!--! Font Awesome Pro 7.1.0 by @fontawesome - https://fontawesome.com License - https://fontawesome.com/license (Commercial License) Copyright 2025 Fonticons, Inc. --><path fill="currentColor" d="M294 193.7L221.1 60C219 56.2 214.4 54.7 210.5 56.7L125.5 99.2C121.4 101.2 119.9 106.2 122.1 110.2L193 240.2C220.7 215.7 255.6 199 294.2 193.8zM249.2 44.7L320 174.6L390.9 44.7C401.2 25.8 424.6 18.4 443.9 28.1L528.9 70.6C549.2 80.7 557 105.6 546.1 125.5L470.3 264.5C496.4 297.3 512 338.8 512 384C512 490 426 576 320 576C214 576 128 490 128 384C128 338.8 143.6 297.3 169.7 264.5L93.9 125.5C83 105.6 90.9 80.7 111.1 70.6L196.1 28.1C215.4 18.5 238.8 25.8 249.1 44.7zM518.1 110.2C520.3 106.2 518.7 101.2 514.7 99.2L429.7 56.7C425.9 54.8 421.2 56.2 419.1 60L346 193.7C384.5 198.9 419.4 215.6 447.2 240.1L518.1 110.1zM480 384C480 295.6 408.4 224 320 224C231.6 224 160 295.6 160 384C160 472.4 231.6 544 320 544C408.4 544 480 472.4 480 384zM274.3 332.1C278 331.6 281.2 329.3 282.8 325.9L309.9 271C314 262.6 326 262.6 330.2 271L357.3 325.9C358.9 329.2 362.1 331.5 365.8 332.1L426.4 340.9C435.7 342.2 439.4 353.6 432.7 360.2L388.9 402.9C386.2 405.5 385 409.2 385.6 412.9L395.9 473.2C397.5 482.4 387.8 489.5 379.5 485.1L325.3 456.6C322 454.9 318.1 454.9 314.8 456.6L260.6 485.1C252.3 489.5 242.6 482.4 244.2 473.2L254.5 412.9C255.1 409.2 253.9 405.5 251.2 402.9L207.4 360.2C200.7 353.7 204.4 342.3 213.7 340.9L274.3 332.1zM259.8 366.5C252.5 388.1 257.3 412 272.5 429C287.7 446 310.9 453.5 333.2 448.7C355.5 443.8 373.4 427.4 380.2 405.6C387.5 384 382.7 360.1 367.5 343.1C352.3 326.1 329.1 318.6 306.8 323.4C284.5 328.3 266.6 344.7 259.8 366.5z"/></svg>