<svg xmlns="http://www.w3.org/2000/svg" viewBox="0 0 640 640"><!--! Font Awesome Pro 7.1.0 by @fontawesome - https://fontawesome.com License - https://fontawesome.com/license (Commercial License) Copyright 2025 Fonticons, Inc. --><path fill="currentColor" d="M544 320C544 443.7 443.7 544 320 544C196.3 544 96 443.7 96 320C96 196.3 196.3 96 320 96C443.7 96 544 196.3 544 320zM320 64C178.6 64 64 178.6 64 320C64 461.4 178.6 576 320 576C461.4 576 576 461.4 576 320C576 178.6 461.4 64 320 64zM240 296C253.3 296 264 285.3 264 272C264 258.7 253.3 248 240 248C226.7 248 216 258.7 216 272C216 285.3 226.7 296 240 296zM424 272C424 258.7 413.3 248 400 248C386.7 248 376 258.7 376 272C376 285.3 386.7 296 400 296C413.3 296 424 285.3 424 272zM240 384C231.2 384 224 391.2 224 400C224 408.8 231.2 416 240 416L400 416C408.8 416 416 408.8 416 400C416 391.2 408.8 384 400 384L240 384z"/></svg>