<svg xmlns="http://www.w3.org/2000/svg" viewBox="0 0 640 640"><!--! Font Awesome Pro 7.1.0 by @fontawesome - https://fontawesome.com License - https://fontawesome.com/license (Commercial License) Copyright 2025 Fonticons, Inc. --><path fill="currentColor" d="M491.3 68.7C485.1 62.5 474.9 62.5 468.7 68.7L386.6 150.8C383 154.4 381.4 159.4 382.1 164.4C383.4 173.4 384.1 182.6 384.1 192C384.1 298 298.1 384 192.1 384C182.7 384 173.5 383.3 164.5 382C159.5 381.3 154.5 383 150.9 386.5L68.7 468.7C62.5 474.9 62.5 485.1 68.7 491.3C122.9 545.5 196.5 576 273.2 576L277.2 576C442.2 576 576 442.2 576 277.2L576 273.2C576 196.5 545.5 123 491.3 68.7zM455 127.7L479.6 103C521 149.8 544 210.3 544 273.1L544 277.1C544 424.5 424.5 544 277.2 544L273.2 544C210.3 544 149.8 521 103 479.6L127.7 455C168.5 490.5 221.7 512 280 512C408.1 512 512 408.1 512 280C512 221.7 490.5 168.4 455 127.7zM432.3 150.3C462.1 185.2 480 230.5 480 280C480 390.5 390.5 480 280 480C230.5 480 185.3 462 150.3 432.3L167.9 414.7C175.8 415.5 183.9 416 192 416C315.7 416 416 315.7 416 192C416 183.9 415.6 175.8 414.7 167.9L432.3 150.3z"/></svg>