<svg xmlns="http://www.w3.org/2000/svg" viewBox="0 0 640 640"><!--! Font Awesome Pro 7.1.0 by @fontawesome - https://fontawesome.com License - https://fontawesome.com/license (Commercial License) Copyright 2025 Fonticons, Inc. --><path fill="currentColor" d="M544 320C544 284.2 535.6 250.3 520.6 220.3C512.2 276.9 472.9 347.9 410.4 410.4C347.9 472.9 276.9 512.2 220.3 520.6C250.3 535.5 284.2 544 320 544C443.7 544 544 443.7 544 320zM119.4 419.7C127.8 363.1 167.1 292.1 229.6 229.6C292.1 167.1 363.1 127.8 419.7 119.4C389.7 104.5 355.8 96 320 96C196.3 96 96 196.3 96 320C96 355.8 104.4 389.7 119.4 419.7zM64 320C64 178.6 178.6 64 320 64C461.4 64 576 178.6 576 320C576 461.4 461.4 576 320 576C178.6 576 64 461.4 64 320zM478.3 161.7C466.5 149.9 439.6 143.3 394.1 158.5C350.6 173 299.4 205 252.1 252.3C204.8 299.6 172.8 350.8 158.3 394.3C143.1 439.8 149.7 466.7 161.5 478.5C173.3 490.3 200.2 496.9 245.7 481.7C289.2 467.2 340.4 435.2 387.7 387.9C435 340.6 467 289.4 481.5 245.9C496.7 200.4 490.1 173.5 478.3 161.7z"/></svg>