<svg xmlns="http://www.w3.org/2000/svg" viewBox="0 0 640 640"><!--! Font Awesome Pro 7.1.0 by @fontawesome - https://fontawesome.com License - https://fontawesome.com/license (Commercial License) Copyright 2025 Fonticons, Inc. --><path fill="currentColor" d="M192 96C174.3 96 160 110.3 160 128L160 512C160 529.7 174.3 544 192 544L448 544C465.7 544 480 529.7 480 512L480 128C480 110.3 465.7 96 448 96L192 96zM128 128C128 92.7 156.7 64 192 64L448 64C483.3 64 512 92.7 512 128L512 512C512 547.3 483.3 576 448 576L192 576C156.7 576 128 547.3 128 512L128 128zM240 192L400 192C408.8 192 416 199.2 416 208C416 216.8 408.8 224 400 224L240 224C231.2 224 224 216.8 224 208C224 199.2 231.2 192 240 192zM240 288L400 288C408.8 288 416 295.2 416 304C416 312.8 408.8 320 400 320L240 320C231.2 320 224 312.8 224 304C224 295.2 231.2 288 240 288zM240 384L336 384C344.8 384 352 391.2 352 400C352 408.8 344.8 416 336 416L240 416C231.2 416 224 408.8 224 400C224 391.2 231.2 384 240 384z"/></svg>