<svg xmlns="http://www.w3.org/2000/svg" viewBox="0 0 640 640"><!--! Font Awesome Pro 7.1.0 by @fontawesome - https://fontawesome.com License - https://fontawesome.com/license (Commercial License) Copyright 2025 Fonticons, Inc. --><path fill="currentColor" d="M64 184C64 153.1 89.1 128 120 128L520 128C550.9 128 576 153.1 576 184L576 200.6C576 206.3 573 211.6 568 214.4C553.6 222.7 544 238.2 544 256C544 273.8 553.6 289.3 568 297.6C572.9 300.5 576 305.7 576 311.4L576 480C576 497.7 561.7 512 544 512L96 512C78.3 512 64 497.7 64 480L64 311.4C64 305.7 67 300.4 72 297.6C86.4 289.3 96 273.8 96 256C96 238.2 86.4 222.7 72 214.4C67.1 211.5 64 206.3 64 200.6L64 184zM96 384L96 480L160 480L160 448C160 439.2 167.2 432 176 432C184.8 432 192 439.2 192 448L192 480L256 480L256 448C256 439.2 263.2 432 272 432C280.8 432 288 439.2 288 448L288 480L352 480L352 448C352 439.2 359.2 432 368 432C376.8 432 384 439.2 384 448L384 480L448 480L448 448C448 439.2 455.2 432 464 432C472.8 432 480 439.2 480 448L480 480L544 480L544 384L96 384zM544 352L544 320C524.6 305.4 512 282.2 512 256C512 229.8 524.6 206.6 544 192L544 184C544 170.7 533.3 160 520 160L120 160C106.7 160 96 170.7 96 184L96 192C115.4 206.6 128 229.8 128 256C128 282.2 115.4 305.4 96 320L96 352L544 352zM208 192C216.8 192 224 199.2 224 208L224 304C224 312.8 216.8 320 208 320C199.2 320 192 312.8 192 304L192 208C192 199.2 199.2 192 208 192zM320 192C328.8 192 336 199.2 336 208L336 304C336 312.8 328.8 320 320 320C311.2 320 304 312.8 304 304L304 208C304 199.2 311.2 192 320 192zM432 192C440.8 192 448 199.2 448 208L448 304C448 312.8 440.8 320 432 320C423.2 320 416 312.8 416 304L416 208C416 199.2 423.2 192 432 192z"/></svg>