<svg xmlns="http://www.w3.org/2000/svg" viewBox="0 0 640 640"><!--! Font Awesome Pro 7.1.0 by @fontawesome - https://fontawesome.com License - https://fontawesome.com/license (Commercial License) Copyright 2025 Fonticons, Inc. --><path fill="currentColor" d="M48 80L48 144C48 152.8 40.8 160 32 160C23.2 160 16 152.8 16 144L16 80C16 71.2 23.2 64 32 64C40.8 64 48 71.2 48 80zM144 80L144 144C144 152.8 136.8 160 128 160C119.2 160 112 152.8 112 144L112 80C112 71.2 119.2 64 128 64C136.8 64 144 71.2 144 80zM240 80L240 144C240 152.8 232.8 160 224 160C215.2 160 208 152.8 208 144L208 80C208 71.2 215.2 64 224 64C232.8 64 240 71.2 240 80zM336 80L336 144C336 152.8 328.8 160 320 160C311.2 160 304 152.8 304 144L304 80C304 71.2 311.2 64 320 64C328.8 64 336 71.2 336 80zM432 80L432 144C432 152.8 424.8 160 416 160C407.2 160 400 152.8 400 144L400 80C400 71.2 407.2 64 416 64C424.8 64 432 71.2 432 80zM528 80L528 144C528 152.8 520.8 160 512 160C503.2 160 496 152.8 496 144L496 80C496 71.2 503.2 64 512 64C520.8 64 528 71.2 528 80zM624 80L624 144C624 152.8 616.8 160 608 160C599.2 160 592 152.8 592 144L592 80C592 71.2 599.2 64 608 64C616.8 64 624 71.2 624 80zM32 192C40.8 192 48 199.2 48 208L48 368C48 394.5 69.5 416 96 416L112 416L112 208C112 199.2 119.2 192 128 192C136.8 192 144 199.2 144 208L144 416L208 416L208 208C208 199.2 215.2 192 224 192C232.8 192 240 199.2 240 208L240 416L304 416L304 208C304 199.2 311.2 192 320 192C328.8 192 336 199.2 336 208L336 416L400 416L400 208C400 199.2 407.2 192 416 192C424.8 192 432 199.2 432 208L432 416L496 416L496 208C496 199.2 503.2 192 512 192C520.8 192 528 199.2 528 208L528 416L544 416C570.5 416 592 394.5 592 368L592 208C592 199.2 599.2 192 608 192C616.8 192 624 199.2 624 208L624 368C624 412.2 588.2 448 544 448L336 448L336 544L496 544C504.8 544 512 551.2 512 560C512 568.8 504.8 576 496 576L144 576C135.2 576 128 568.8 128 560C128 551.2 135.2 544 144 544L304 544L304 448L96 448C51.8 448 16 412.2 16 368L16 208C16 199.2 23.2 192 32 192z"/></svg>