<svg xmlns="http://www.w3.org/2000/svg" viewBox="0 0 640 640"><!--! Font Awesome Pro 7.1.0 by @fontawesome - https://fontawesome.com License - https://fontawesome.com/license (Commercial License) Copyright 2025 Fonticons, Inc. --><path fill="currentColor" d="M217.2 52.8C211 46.5 200.9 46.4 194.6 52.6C188.3 58.8 188.2 68.9 194.4 75.2C209.3 90.4 227 103 246.7 112C186.2 139.8 144.1 201 144.1 272C144.1 363.8 214.4 439.2 304.1 447.3C304.1 447.5 304.1 447.8 304.1 448L304.1 496L256.1 496C247.3 496 240.1 503.2 240.1 512C240.1 520.8 247.3 528 256.1 528L304.1 528L304.1 560C304.1 568.8 311.3 576 320.1 576C328.9 576 336.1 568.8 336.1 560L336.1 528L384.1 528C392.9 528 400.1 520.8 400.1 512C400.1 503.2 392.9 496 384.1 496L336.1 496L336.1 448C336.1 447.8 336.1 447.5 336.1 447.3C425.8 439.2 496.1 363.8 496.1 272C496.1 201 454.1 139.8 393.5 112C413.1 103 430.8 90.4 445.8 75.2C452 68.9 451.9 58.8 445.6 52.6C439.3 46.4 429.2 46.5 423 52.8C396.7 79.5 360.3 96 320 96C279.7 96 243.3 79.5 217.2 52.8zM320 128C399.5 128 464 192.5 464 272C464 351.5 399.5 416 320 416C240.5 416 176 351.5 176 272C176 192.5 240.5 128 320 128z"/></svg>