<svg xmlns="http://www.w3.org/2000/svg" viewBox="0 0 640 640"><!--! Font Awesome Pro 7.1.0 by @fontawesome - https://fontawesome.com License - https://fontawesome.com/license (Commercial License) Copyright 2025 Fonticons, Inc. --><path fill="currentColor" d="M243.2 597.6L243.2 597.6L355.2 513.6C356.6 512.6 358.3 512 360 512L480 512C533 512 576 469 576 416L576 192C576 139 533 96 480 96L160 96C107 96 64 139 64 192L64 416C64 469 107 512 160 512L192 512L192 580C192 595.5 204.5 608 220 608C226.1 608 232 606 236.8 602.4L243.2 597.6zM224 512L224 504C224 490.7 213.3 480 200 480L160 480C124.7 480 96 451.3 96 416L96 192C96 156.7 124.7 128 160 128L480 128C515.3 128 544 156.7 544 192L544 416C544 451.3 515.3 480 480 480L360 480C351.3 480 342.9 482.8 336 488L224 572L224 512zM256 280C269.3 280 280 269.3 280 256C280 242.7 269.3 232 256 232C242.7 232 232 242.7 232 256C232 269.3 242.7 280 256 280zM384 280C397.3 280 408 269.3 408 256C408 242.7 397.3 232 384 232C370.7 232 360 242.7 360 256C360 269.3 370.7 280 384 280zM219.9 348.1C213.3 354 212.8 364.1 218.6 370.7C243.5 398.5 279.7 416 320 416C360.3 416 396.5 398.5 421.4 370.7C427.3 364.1 426.7 354 420.1 348.1C413.5 342.2 403.4 342.8 397.5 349.4C378.5 370.6 350.8 384 320 384C289.2 384 261.5 370.6 242.5 349.3C236.6 342.7 226.5 342.2 219.9 348z"/></svg>