<svg xmlns="http://www.w3.org/2000/svg" viewBox="0 0 640 640"><!--! Font Awesome Pro 7.1.0 by @fontawesome - https://fontawesome.com License - https://fontawesome.com/license (Commercial License) Copyright 2025 Fonticons, Inc. --><path fill="currentColor" d="M59.3 36.8C53.1 30.6 42.9 30.6 36.7 36.8C30.5 43 30.5 53.2 36.7 59.4L580.7 603.4C586.9 609.6 597.1 609.6 603.3 603.4C609.5 597.2 609.5 587 603.3 580.8L523.9 501.4C554.9 485.4 576 453.2 576 416L576 192C576 139 533 96 480 96L160 96C147.7 96 135.9 98.3 125.1 102.5L59.3 36.8zM151.1 128.6C154 128.2 157 128 160 128L480 128C515.3 128 544 156.7 544 192L544 416C544 444.5 525.3 468.7 499.5 477L151.1 128.6zM64 192L64 416C64 469 107 512 160 512L192 512L192 580C192 595.5 204.5 608 220 608C226.1 608 232 606 236.8 602.4L243.2 597.6L243.2 597.6L355.2 513.6C356.6 512.6 358.3 512 360 512L421.5 512L389.5 480L360 480C351.3 480 342.9 482.8 336 488L224 572L224 504C224 490.7 213.3 480 200 480L160 480C124.7 480 96 451.3 96 416L96 192C96 190.2 96.1 188.5 96.2 186.7L69.5 160C66 170 64 180.8 64 192z"/></svg>