<svg xmlns="http://www.w3.org/2000/svg" viewBox="0 0 640 640"><!--! Font Awesome Pro 7.1.0 by @fontawesome - https://fontawesome.com License - https://fontawesome.com/license (Commercial License) Copyright 2025 Fonticons, Inc. --><path fill="currentColor" d="M243.2 597.6L243.2 597.6L355.2 513.6C356.6 512.6 358.3 512 360 512L480 512C533 512 576 469 576 416L576 192C576 139 533 96 480 96L160 96C107 96 64 139 64 192L64 416C64 469 107 512 160 512L192 512L192 580C192 595.5 204.5 608 220 608C226.1 608 232 606 236.8 602.4L243.2 597.6zM224 512L224 504C224 490.7 213.3 480 200 480L160 480C124.7 480 96 451.3 96 416L96 192C96 156.7 124.7 128 160 128L480 128C515.3 128 544 156.7 544 192L544 416C544 451.3 515.3 480 480 480L360 480C351.3 480 342.9 482.8 336 488L224 572L224 512zM304 208C286.3 208 272 222.3 272 240L272 256L256 256C238.3 256 224 270.3 224 288L224 320C224 337.7 238.3 352 256 352L272 352L272 368C272 385.7 286.3 400 304 400L336 400C353.7 400 368 385.7 368 368L368 352L384 352C401.7 352 416 337.7 416 320L416 288C416 270.3 401.7 256 384 256L368 256L368 240C368 222.3 353.7 208 336 208L304 208zM336 344L336 368L304 368L304 328C304 323.6 300.4 320 296 320L256 320L256 288L296 288C300.4 288 304 284.4 304 280L304 240L336 240L336 280C336 284.4 339.6 288 344 288L384 288L384 320L344 320C339.6 320 336 323.6 336 328L336 344z"/></svg>