<svg xmlns="http://www.w3.org/2000/svg" viewBox="0 0 640 640"><!--! Font Awesome Pro 7.1.0 by @fontawesome - https://fontawesome.com License - https://fontawesome.com/license (Commercial License) Copyright 2025 Fonticons, Inc. --><path fill="currentColor" d="M243.2 597.6L243.2 597.6L355.2 513.6C356.6 512.6 358.3 512 360 512L480 512C533 512 576 469 576 416L576 192C576 139 533 96 480 96L160 96C107 96 64 139 64 192L64 416C64 469 107 512 160 512L192 512L192 580C192 595.5 204.5 608 220 608C226.1 608 232 606 236.8 602.4L243.2 597.6zM224 512L224 504C224 490.7 213.3 480 200 480L160 480C124.7 480 96 451.3 96 416L96 192C96 156.7 124.7 128 160 128L480 128C515.3 128 544 156.7 544 192L544 416C544 451.3 515.3 480 480 480L360 480C351.3 480 342.9 482.8 336 488L224 572L224 512zM308.7 212.7L236.7 284.7C230.5 290.9 230.5 301.1 236.7 307.3C242.9 313.5 253.1 313.5 259.3 307.3L304 262.6L304 384C304 392.8 311.2 400 320 400C328.8 400 336 392.8 336 384L336 262.6L380.7 307.3C386.9 313.5 397.1 313.5 403.3 307.3C409.5 301.1 409.5 290.9 403.3 284.7L331.3 212.7C325.1 206.5 314.9 206.5 308.7 212.7z"/></svg>