<svg xmlns="http://www.w3.org/2000/svg" viewBox="0 0 640 640"><!--! Font Awesome Pro 7.1.0 by @fontawesome - https://fontawesome.com License - https://fontawesome.com/license (Commercial License) Copyright 2025 Fonticons, Inc. --><path fill="currentColor" d="M128 192C128 156.7 156.7 128 192 128L448 128C483.3 128 512 156.7 512 192L512 416C512 451.3 483.3 480 448 480L360 480C351.3 480 342.9 482.8 336 488L224 572L224 504C224 490.7 213.3 480 200 480L192 480C156.7 480 128 451.3 128 416L128 192zM192 96C139 96 96 139 96 192L96 256L16 256C7.2 256 0 263.2 0 272C0 280.8 7.2 288 16 288L96 288L96 416C96 469 139 512 192 512L192 580C192 595.5 204.5 608 220 608C226.1 608 232 606 236.8 602.4L355.2 513.6C356.6 512.6 358.3 512 360 512L448 512C501 512 544 469 544 416L544 288L624 288C632.8 288 640 280.8 640 272C640 263.2 632.8 256 624 256L544 256L544 192C544 139 501 96 448 96L192 96zM256 312C269.3 312 280 301.3 280 288C280 274.7 269.3 264 256 264C242.7 264 232 274.7 232 288C232 301.3 242.7 312 256 312zM408 288C408 274.7 397.3 264 384 264C370.7 264 360 274.7 360 288C360 301.3 370.7 312 384 312C397.3 312 408 301.3 408 288zM256 224L384 224C419.3 224 448 252.7 448 288C448 323.3 419.3 352 384 352L256 352C220.7 352 192 323.3 192 288C192 252.7 220.7 224 256 224zM160 288C160 341 203 384 256 384L384 384C437 384 480 341 480 288C480 235 437 192 384 192L256 192C203 192 160 235 160 288z"/></svg>