<svg xmlns="http://www.w3.org/2000/svg" viewBox="0 0 640 640"><!--! Font Awesome Pro 7.1.0 by @fontawesome - https://fontawesome.com License - https://fontawesome.com/license (Commercial License) Copyright 2025 Fonticons, Inc. --><path fill="currentColor" d="M243.2 597.6C243.2 597.6 243.2 597.6 243.2 597.6L236.8 602.4C232 606 226.1 608 220 608C204.5 608 192 595.5 192 580L192 512L160 512C107 512 64 469 64 416L64 192C64 139 107 96 160 96L480 96C533 96 576 139 576 192L576 416C576 469 533 512 480 512L360 512C358.3 512 356.6 512.6 355.2 513.6L243.2 597.6zM224 532L224 572L336 488C342.9 482.8 351.3 480 360 480L480 480C515.3 480 544 451.3 544 416L544 192C544 156.7 515.3 128 480 128L160 128C124.7 128 96 156.7 96 192L96 416C96 451.3 124.7 480 160 480L200 480C213.3 480 224 490.7 224 504L224 532z"/></svg>