<svg xmlns="http://www.w3.org/2000/svg" viewBox="0 0 640 640"><!--! Font Awesome Pro 7.1.0 by @fontawesome - https://fontawesome.com License - https://fontawesome.com/license (Commercial License) Copyright 2025 Fonticons, Inc. --><path fill="currentColor" d="M243.2 597.6L243.2 597.6L355.2 513.6C356.6 512.6 358.3 512 360 512L480 512C533 512 576 469 576 416L576 192C576 139 533 96 480 96L160 96C107 96 64 139 64 192L64 416C64 469 107 512 160 512L192 512L192 580C192 595.5 204.5 608 220 608C226.1 608 232 606 236.8 602.4L243.2 597.6zM224 512L224 504C224 490.7 213.3 480 200 480L160 480C124.7 480 96 451.3 96 416L96 192C96 156.7 124.7 128 160 128L480 128C515.3 128 544 156.7 544 192L544 416C544 451.3 515.3 480 480 480L360 480C351.3 480 342.9 482.8 336 488L224 572L224 512zM340.4 266.2C346.9 259.7 355.8 256 365.1 256L368 256C385.7 256 400 270.3 400 288C400 309.4 385.5 330.5 365.4 349C348.5 364.5 330 376 320 381.7C310 376 291.5 364.5 274.6 349C254.5 330.5 240 309.3 240 288C240 270.3 254.3 256 272 256L274.9 256C284.2 256 293 259.7 299.6 266.2L308.7 275.3C311.7 278.3 315.8 280 320 280C324.2 280 328.3 278.3 331.3 275.3L340.4 266.2zM365.1 224C348.4 224 332.3 230.3 320 241.5C307.7 230.3 291.6 224 274.9 224L272 224C236.7 224 208 252.7 208 288C208 323.3 231.1 352.5 253 372.6C275.4 393.2 299.8 407.3 308.9 412.2C315.9 416 324.2 416 331.1 412.2C340.2 407.3 364.6 393.2 387 372.6C408.8 352.5 432 323.3 432 288C432 252.7 403.3 224 368 224L365.1 224z"/></svg>