<svg xmlns="http://www.w3.org/2000/svg" viewBox="0 0 640 640"><!--! Font Awesome Pro 7.1.0 by @fontawesome - https://fontawesome.com License - https://fontawesome.com/license (Commercial License) Copyright 2025 Fonticons, Inc. --><path fill="currentColor" d="M64 104L64 296C64 318.1 81.9 336 104 336L144 336C152.8 336 160 343.2 160 352L160 397.8L218.6 348.9C228.7 340.5 241.3 335.9 254.5 335.9L344 335.9C366.1 335.9 384 318 384 295.9L384 103.9C384 81.8 366.1 63.9 344 63.9L104 64C81.9 64 64 81.9 64 104zM104 32L344 32C383.8 32 416 64.2 416 104L416 296C416 335.8 383.8 368 344 368L254.5 368C248.9 368 243.4 370 239.1 373.6L154.2 444.3C149.4 448.3 142.8 449.1 137.2 446.5C131.6 443.9 128 438.2 128 432L128 368L104 368C64.2 368 32 335.8 32 296L32 104C32 64.2 64.2 32 104 32zM256 422L256 456C256 478.1 273.9 496 296 496L385.5 496C398.6 496 411.3 500.6 421.4 509L480 557.9L480 512.1C480 503.3 487.2 496.1 496 496.1L536 496.1C558.1 496.1 576 478.2 576 456.1L576 264.1C576 242 558.1 224.1 536 224.1L464 224.1L464 192.1L536 192.1C575.8 192.1 608 224.3 608 264.1L608 456.1C608 495.9 575.8 528.1 536 528.1L512 528.1L512 592.1C512 598.3 508.4 604 502.8 606.6C497.2 609.2 490.5 608.4 485.8 604.4L400.9 533.7C396.6 530.1 391.1 528.1 385.5 528.1L296 528C256.2 528 224 495.8 224 456L224 448.6L256 421.9z"/></svg>