<svg xmlns="http://www.w3.org/2000/svg" viewBox="0 0 640 640"><!--! Font Awesome Pro 7.1.0 by @fontawesome - https://fontawesome.com License - https://fontawesome.com/license (Commercial License) Copyright 2025 Fonticons, Inc. --><path fill="currentColor" d="M576 448C576 501 533 544 480 544L160 544C107 544 64 501 64 448L64 224C64 171 107 128 160 128L228 128C230.5 128 232.9 126.8 234.4 124.8L294.4 44.8C300.4 36.7 309.9 32 320 32C330.1 32 339.6 36.7 345.6 44.8L408 128L480 128C533 128 576 171 576 224L576 448zM480 512C515.3 512 544 483.3 544 448L544 224C544 188.7 515.3 160 480 160L404 160C396.4 160 389.3 156.4 384.8 150.4L320 64L260 144C252.4 154.1 240.6 160 228 160L160 160C124.7 160 96 188.7 96 224L96 448C96 483.3 124.7 512 160 512L480 512z"/></svg>