<svg xmlns="http://www.w3.org/2000/svg" viewBox="0 0 640 640"><!--! Font Awesome Pro 7.1.0 by @fontawesome - https://fontawesome.com License - https://fontawesome.com/license (Commercial License) Copyright 2025 Fonticons, Inc. --><path fill="currentColor" d="M160 128C124.7 128 96 156.7 96 192L96 416C96 451.3 124.7 480 160 480L200 480C213.3 480 224 490.7 224 504L224 572L304 512L304 544C304 546.6 304.2 549.1 304.5 551.7L236.8 602.4C232 606 226.1 608 220 608C204.5 608 192 595.5 192 580L192 512L160 512C107 512 64 469 64 416L64 192C64 139 107 96 160 96L480 96C533 96 576 139 576 192L576 357.7C567.7 348.3 556.6 341.3 544 338L544 192C544 156.7 515.3 128 480 128L160 128zM464 368L464 592C464 600.8 456.8 608 448 608C439.2 608 432 600.8 432 592L432 368C432 359.2 439.2 352 448 352C456.8 352 464 359.2 464 368zM544 400L544 560C544 568.8 536.8 576 528 576C519.2 576 512 568.8 512 560L512 400C512 391.2 519.2 384 528 384C536.8 384 544 391.2 544 400zM384 416L384 544C384 552.8 376.8 560 368 560C359.2 560 352 552.8 352 544L352 416C352 407.2 359.2 400 368 400C376.8 400 384 407.2 384 416zM624 448L624 512C624 520.8 616.8 528 608 528C599.2 528 592 520.8 592 512L592 448C592 439.2 599.2 432 608 432C616.8 432 624 439.2 624 448z"/></svg>