<svg xmlns="http://www.w3.org/2000/svg" viewBox="0 0 640 640"><!--! Font Awesome Pro 7.1.0 by @fontawesome - https://fontawesome.com License - https://fontawesome.com/license (Commercial License) Copyright 2025 Fonticons, Inc. --><path fill="currentColor" d="M243.2 597.6L243.2 597.6L355.2 513.6C356.6 512.6 358.3 512 360 512L480 512C533 512 576 469 576 416L576 192C576 139 533 96 480 96L160 96C107 96 64 139 64 192L64 416C64 469 107 512 160 512L192 512L192 580C192 595.5 204.5 608 220 608C226.1 608 232 606 236.8 602.4L243.2 597.6zM224 512L224 504C224 490.7 213.3 480 200 480L160 480C124.7 480 96 451.3 96 416L96 192C96 156.7 124.7 128 160 128L480 128C515.3 128 544 156.7 544 192L544 416C544 451.3 515.3 480 480 480L360 480C351.3 480 342.9 482.8 336 488L224 572L224 512zM320 224C340.6 224 357.2 240.7 357.2 261.2C357.2 279 346.2 288.2 334 293.7C319.3 300.3 303.9 315.2 303.9 336C303.9 344.8 311.1 352 319.9 352C328.7 352 335.9 344.8 335.9 336C335.9 332.2 339.3 326.4 347 322.9C364.8 314.9 389.1 297 389.1 261.2C389.1 223 358.1 192 319.9 192C281.7 192 250.7 223 250.7 261.2C250.7 270 257.9 277.2 266.7 277.2C275.5 277.2 282.7 270 282.7 261.2C282.7 240.6 299.4 224 319.9 224zM340 400C340 389 331 380 320 380C309 380 300 389 300 400C300 411 309 420 320 420C331 420 340 411 340 400z"/></svg>