<svg xmlns="http://www.w3.org/2000/svg" viewBox="0 0 640 640"><!--! Font Awesome Pro 7.1.0 by @fontawesome - https://fontawesome.com License - https://fontawesome.com/license (Commercial License) Copyright 2025 Fonticons, Inc. --><path fill="currentColor" d="M480 144C480 117.5 501.5 96 528 96C554.5 96 576 117.5 576 144C576 170.5 554.5 192 528 192C501.5 192 480 170.5 480 144zM608 144C608 99.8 572.2 64 528 64C483.8 64 448 99.8 448 144C448 188.2 483.8 224 528 224C572.2 224 608 188.2 608 144zM576 416L576 262.7C565.9 266.8 555.2 269.6 544 271L544 416C544 451.3 515.3 480 480 480L360 480C351.3 480 342.9 482.8 336 488L224 572L224 504C224 490.7 213.3 480 200 480L160 480C124.7 480 96 451.3 96 416L96 192C96 156.7 124.7 128 160 128L401 128C402.4 116.8 405.2 106.1 409.3 96L160 96C107 96 64 139 64 192L64 416C64 469 107 512 160 512L192 512L192 580C192 595.5 204.5 608 220 608C226.1 608 232 606 236.8 602.4L355.2 513.6C356.6 512.6 358.3 512 360 512L480 512C533 512 576 469 576 416z"/></svg>