<svg xmlns="http://www.w3.org/2000/svg" viewBox="0 0 640 640"><!--! Font Awesome Pro 7.1.0 by @fontawesome - https://fontawesome.com License - https://fontawesome.com/license (Commercial License) Copyright 2025 Fonticons, Inc. --><path fill="currentColor" d="M243.2 597.6L243.2 597.6L355.2 513.6C356.6 512.6 358.3 512 360 512L480 512C533 512 576 469 576 416L576 192C576 139 533 96 480 96L160 96C107 96 64 139 64 192L64 416C64 469 107 512 160 512L192 512L192 580C192 595.5 204.5 608 220 608C226.1 608 232 606 236.8 602.4L243.2 597.6zM224 512L224 504C224 490.7 213.3 480 200 480L160 480C124.7 480 96 451.3 96 416L96 192C96 156.7 124.7 128 160 128L480 128C515.3 128 544 156.7 544 192L544 416C544 451.3 515.3 480 480 480L360 480C351.3 480 342.9 482.8 336 488L224 572L224 512zM248 208C248 194.7 237.3 184 224 184C210.7 184 200 194.7 200 208C200 221.3 210.7 232 224 232C237.3 232 248 221.3 248 208zM295 250.5L201.2 345.8C195.3 351.8 192 359.8 192 368.2C192 385.8 206.3 400.1 223.9 400.1L416.1 400.1C433.7 400.1 448 385.8 448 368.2C448 359.8 444.7 351.8 438.8 345.8L345 250.5C338.4 243.8 329.4 240 320 240C310.6 240 301.6 243.8 295 250.5zM320 272C320.8 272 321.6 272.3 322.2 272.9L415.8 368L224.1 368L317.7 272.9C318.3 272.3 319.1 272 319.9 272z"/></svg>