<svg xmlns="http://www.w3.org/2000/svg" viewBox="0 0 640 640"><!--! Font Awesome Pro 7.1.0 by @fontawesome - https://fontawesome.com License - https://fontawesome.com/license (Commercial License) Copyright 2025 Fonticons, Inc. --><path fill="currentColor" d="M64 192C64 139 107 96 160 96L480 96C533 96 576 139 576 192L576 416C576 469 533 512 480 512L412 512C409.5 512 407.1 513.2 405.6 515.2L345.6 595.2C339.6 603.3 330.1 608 320 608C309.9 608 300.4 603.3 294.4 595.2L232 512L160 512C107 512 64 469 64 416L64 192zM160 128C124.7 128 96 156.7 96 192L96 416C96 451.3 124.7 480 160 480L236 480C243.6 480 250.7 483.6 255.2 489.6L320 576L380 496C387.6 485.9 399.4 480 412 480L480 480C515.3 480 544 451.3 544 416L544 192C544 156.7 515.3 128 480 128L160 128z"/></svg>