<svg xmlns="http://www.w3.org/2000/svg" viewBox="0 0 640 640"><!--! Font Awesome Pro 7.1.0 by @fontawesome - https://fontawesome.com License - https://fontawesome.com/license (Commercial License) Copyright 2025 Fonticons, Inc. --><path fill="currentColor" d="M320 96C414.9 96 496.1 155.1 528.7 238.4C539.8 235.3 551.7 235.4 562.8 238.6C528.8 137.1 432.9 64 320 64C178.6 64 64 178.6 64 320C64 460.3 176.9 574.2 316.8 576C308.7 565.6 301.6 554.5 295.5 542.7C183.3 530.5 96.1 435.4 96.1 320C96.1 196.3 196.4 96 320.1 96zM320 192C311.2 192 304 199.2 304 208L304 272C304 280.8 311.2 288 320 288C328.8 288 336 280.8 336 272L336 208C336 199.2 328.8 192 320 192zM240 208C240 199.2 232.8 192 224 192C215.2 192 208 199.2 208 208L208 272C208 280.8 215.2 288 224 288C232.8 288 240 280.8 240 272L240 208zM427.5 263.6C403.9 284.8 377.4 312.9 356.6 344.4C336 375.6 320 411.7 320 448.1C320 536.9 391.2 608.1 480 608.1C568.8 608.1 640 536.9 640 448.1C640 385.6 597.6 325 559.1 289.5C547.9 279.2 530.6 279.2 519.4 289.4C515.4 293.1 509.8 298.7 504.8 303.9C493.1 290 481 276.5 466.8 263.6C462.1 259.4 456.1 256.1 448.1 256C442 256 433.7 257.9 427.5 263.5zM447.1 289C462.1 302.8 474.8 317.8 488.8 334.7C496.5 344 510.5 344.4 518.8 335.6C523.8 330.3 533.2 320.4 539.3 314.6C574.4 347.6 608.1 399.4 608.1 448.1C608.1 481.7 595.4 512.2 574.5 534.9C575.6 529.6 576.1 524.1 576.1 518.5C576.1 461.1 512.3 408 488.7 390.3C483.5 386.4 476.6 386.4 471.4 390.3C447.8 408 384 461.1 384 518.5C384 524.1 384.6 529.6 385.6 534.9C364.7 512.2 352 481.7 352 448.1C352 420.6 364.3 390.8 383.3 362C401.7 334.2 425.4 308.7 447.1 289zM544 518.6C544 548.3 517.5 576.1 480.1 576.2L480 576.2C442.5 576.2 416 548.4 416 518.6C416 501.2 426.1 480.9 443.4 460.1C455.5 445.6 469.2 433.1 480 424.3C490.7 433.1 504.5 445.6 516.6 460.1C533.9 480.8 544 501.2 544 518.6z"/></svg>