<svg xmlns="http://www.w3.org/2000/svg" viewBox="0 0 640 640"><!--! Font Awesome Pro 7.1.0 by @fontawesome - https://fontawesome.com License - https://fontawesome.com/license (Commercial License) Copyright 2025 Fonticons, Inc. --><path fill="currentColor" d="M320 544C331 544 341.8 543.2 352.3 541.7C355.8 552.3 360.4 562.4 365.9 571.9C351 574.6 335.7 576 320 576C178.6 576 64 461.4 64 320C64 178.6 178.6 64 320 64C444.7 64 548.5 153.1 571.3 271.2L569.3 268.9C558.7 257 545.4 249.1 531.3 245.4C500.6 158.4 417.6 96 320 96C196.3 96 96 196.3 96 320C96 443.7 196.3 544 320 544zM432 208L432 272C432 280.8 424.8 288 416 288C407.2 288 400 280.8 400 272L400 208C400 199.2 407.2 192 416 192C424.8 192 432 199.2 432 208zM320 192C328.8 192 336 199.2 336 208L336 272C336 280.8 328.8 288 320 288C311.2 288 304 280.8 304 272L304 208C304 199.2 311.2 192 320 192zM240 208L240 272C240 280.8 232.8 288 224 288C215.2 288 208 280.8 208 272L208 208C208 199.2 215.2 192 224 192C232.8 192 240 199.2 240 208zM424 490.1C424 537 462.9 576 512 576C561.1 576 600 537 600 490.1C600 464.5 587.6 433 568.2 400.7C550.2 370.8 528.3 343.6 512 324.9C495.6 343.6 473.8 370.7 455.8 400.7C436.4 433 424 464.5 424 490.1zM512 608C445.7 608 392 555.2 392 490.1C392 421.2 456.1 339.7 490.6 300.8C502.2 287.7 521.9 287.7 533.5 300.8C568 339.7 632.1 421.2 632.1 490.1C632.1 555.2 578.4 608 512.1 608z"/></svg>