<svg xmlns="http://www.w3.org/2000/svg" viewBox="0 0 640 640"><!--! Font Awesome Pro 7.1.0 by @fontawesome - https://fontawesome.com License - https://fontawesome.com/license (Commercial License) Copyright 2025 Fonticons, Inc. --><path fill="currentColor" d="M544 320C544 196.3 443.7 96 320 96C196.3 96 96 196.3 96 320C96 443.7 196.3 544 320 544C443.7 544 544 443.7 544 320zM64 320C64 178.6 178.6 64 320 64C461.4 64 576 178.6 576 320C576 461.4 461.4 576 320 576C178.6 576 64 461.4 64 320zM432 208L432 272C432 280.8 424.8 288 416 288C407.2 288 400 280.8 400 272L400 208C400 199.2 407.2 192 416 192C424.8 192 432 199.2 432 208zM320 192C328.8 192 336 199.2 336 208L336 272C336 280.8 328.8 288 320 288C311.2 288 304 280.8 304 272L304 208C304 199.2 311.2 192 320 192zM240 208L240 272C240 280.8 232.8 288 224 288C215.2 288 208 280.8 208 272L208 208C208 199.2 215.2 192 224 192C232.8 192 240 199.2 240 208z"/></svg>