<svg xmlns="http://www.w3.org/2000/svg" viewBox="0 0 640 640"><!--! Font Awesome Pro 7.1.0 by @fontawesome - https://fontawesome.com License - https://fontawesome.com/license (Commercial License) Copyright 2025 Fonticons, Inc. --><path fill="currentColor" d="M320 544C336.7 544 352.9 542.2 368.6 538.7C374.5 542.8 381 546 387.9 548.3L383.2 565.3C382.9 566.3 382.7 567.3 382.4 568.3C362.4 573.3 341.5 576 320 576C178.6 576 64 461.4 64 320C64 178.6 178.6 64 320 64C451.7 64 560.2 163.5 574.4 291.4C564.5 285.3 553 281.3 540.5 280.3C521.7 175.5 430.2 96 320 96C196.3 96 96 196.3 96 320C96 443.7 196.3 544 320 544zM432 208L432 272C432 280.8 424.8 288 416 288C407.2 288 400 280.8 400 272L400 208C400 199.2 407.2 192 416 192C424.8 192 432 199.2 432 208zM320 192C328.8 192 336 199.2 336 208L336 272C336 280.8 328.8 288 320 288C311.2 288 304 280.8 304 272L304 208C304 199.2 311.2 192 320 192zM240 208L240 272C240 280.8 232.8 288 224 288C215.2 288 208 280.8 208 272L208 208C208 199.2 215.2 192 224 192C232.8 192 240 199.2 240 208zM533.7 320C553.5 320 567.8 338.8 562.5 357.9L541.9 432L580.6 432C595.7 432 607.9 444.2 607.9 459.3C607.9 466.5 605 473.5 599.9 478.6L479.4 599.3C473.8 604.9 466.2 608 458.3 608C438.5 608 424.2 589.2 429.5 570.1L450.1 496L411.4 496C396.3 496 384.1 483.8 384.1 468.7C384.1 461.5 387 454.5 392.1 449.4L512.6 328.7C518.2 323.1 525.8 320 533.7 320zM422.6 464L471.1 464C481.5 464 489.3 474.2 486.5 484.3L462.4 570.9L569.3 464L520.8 464C510.4 464 502.6 453.8 505.4 443.7L529.5 357.1L422.6 464z"/></svg>