<svg xmlns="http://www.w3.org/2000/svg" viewBox="0 0 640 640"><!--! Font Awesome Pro 7.1.0 by @fontawesome - https://fontawesome.com License - https://fontawesome.com/license (Commercial License) Copyright 2025 Fonticons, Inc. --><path fill="currentColor" d="M384 96C384 69.6 353.9 54.6 332.8 70.4L145.1 211.2C94 249.5 64 310.1 64 373.8C64 484.9 154 576 265.3 576C329.9 576 390.6 545 428.4 492.6L562.6 306.7C577.9 285.5 562.8 256 536.7 256L510.6 256L573 114.3C575 109.8 576 104.8 576 99.9C576 80.1 560 64.1 540.2 64.1C535.2 64.1 530.3 65.1 525.8 67.1L384 129.4L384 96zM538.6 96.3C539.1 96.1 539.6 96 540.1 96C542.2 96 543.9 97.7 543.9 99.8C543.9 100.3 543.8 100.9 543.6 101.3L471.4 265.6C469.2 270.5 469.7 276.3 472.6 280.8C475.5 285.3 480.6 288.1 486 288.1L536.6 288.1L402.4 473.9C370.7 517.9 319.6 544 265.3 544C171.9 544 96 467.4 96 373.8C96 320 121.3 269 164.3 236.8L352 96L352 153.9C352 159.3 354.7 164.3 359.3 167.3C363.9 170.3 369.5 170.7 374.5 168.5L538.6 96.3zM360 376C360 429 317 472 264 472C211 472 168 429 168 376C168 323 211 280 264 280C317 280 360 323 360 376zM264 248C193.3 248 136 305.3 136 376C136 446.7 193.3 504 264 504C334.7 504 392 446.7 392 376C392 305.3 334.7 248 264 248zM248 368C261.3 368 272 357.3 272 344C272 330.7 261.3 320 248 320C234.7 320 224 330.7 224 344C224 357.3 234.7 368 248 368zM304 416C304 407.2 296.8 400 288 400C279.2 400 272 407.2 272 416C272 424.8 279.2 432 288 432C296.8 432 304 424.8 304 416z"/></svg>