<svg xmlns="http://www.w3.org/2000/svg" viewBox="0 0 640 640"><!--! Font Awesome Pro 7.1.0 by @fontawesome - https://fontawesome.com License - https://fontawesome.com/license (Commercial License) Copyright 2025 Fonticons, Inc. --><path fill="currentColor" d="M240 96C231.2 96 224 103.2 224 112L224 336C224 344.8 231.2 352 240 352L304 352C312.8 352 320 344.8 320 336L320 112C320 103.2 312.8 96 304 96L240 96zM192 112C192 85.5 213.5 64 240 64L304 64C330.5 64 352 85.5 352 112L352 192L384 192C490 192 576 278 576 384C576 450.8 541.9 509.6 490.2 544L560 544C568.8 544 576 551.2 576 560C576 568.8 568.8 576 560 576L80 576C71.2 576 64 568.8 64 560C64 551.2 71.2 544 80 544L384 544C472.4 544 544 472.4 544 384C544 295.6 472.4 224 384 224L352 224L352 336C352 362.5 330.5 384 304 384L240 384C213.5 384 192 362.5 192 336L192 112zM176 448L368 448C376.8 448 384 455.2 384 464C384 472.8 376.8 480 368 480L176 480C167.2 480 160 472.8 160 464C160 455.2 167.2 448 176 448z"/></svg>