<svg xmlns="http://www.w3.org/2000/svg" viewBox="0 0 640 640"><!--! Font Awesome Pro 7.1.0 by @fontawesome - https://fontawesome.com License - https://fontawesome.com/license (Commercial License) Copyright 2025 Fonticons, Inc. --><path fill="currentColor" d="M384 96C419.3 96 448 124.7 448 160L448 288C448 323.3 419.3 352 384 352C348.7 352 320 323.3 320 288L320 160C320 124.7 348.7 96 384 96zM288 160L288 288C288 341 331 384 384 384C437 384 480 341 480 288L480 160C480 107 437 64 384 64C331 64 288 107 288 160zM224 240C224 231.2 216.8 224 208 224C199.2 224 192 231.2 192 240L192 288C192 388.6 269.4 471.2 368 479.3L368 544L304 544C295.2 544 288 551.2 288 560C288 568.8 295.2 576 304 576L464 576C472.8 576 480 568.8 480 560C480 551.2 472.8 544 464 544L400 544L400 479.3C498.6 471.2 576 388.6 576 288L576 240C576 231.2 568.8 224 560 224C551.2 224 544 231.2 544 240L544 288C544 376.4 472.4 448 384 448C295.6 448 224 376.4 224 288L224 240zM112 128C112 114.7 101.3 104 88 104C74.7 104 64 114.7 64 128C64 141.3 74.7 152 88 152C101.3 152 112 141.3 112 128zM88 280C101.3 280 112 269.3 112 256C112 242.7 101.3 232 88 232C74.7 232 64 242.7 64 256C64 269.3 74.7 280 88 280zM112 384C112 370.7 101.3 360 88 360C74.7 360 64 370.7 64 384C64 397.3 74.7 408 88 408C101.3 408 112 397.3 112 384zM88 536C101.3 536 112 525.3 112 512C112 498.7 101.3 488 88 488C74.7 488 64 498.7 64 512C64 525.3 74.7 536 88 536z"/></svg>