<svg xmlns="http://www.w3.org/2000/svg" viewBox="0 0 640 640"><!--! Font Awesome Pro 7.1.0 by @fontawesome - https://fontawesome.com License - https://fontawesome.com/license (Commercial License) Copyright 2025 Fonticons, Inc. --><path fill="currentColor" d="M544 160C561.7 160 576 174.3 576 192L576 448C576 465.7 561.7 480 544 480L96 480C78.3 480 64 465.7 64 448L64 192C64 174.3 78.3 160 96 160L544 160zM512 512L512 528C512 536.8 519.2 544 528 544C536.8 544 544 536.8 544 528L544 512C579.3 512 608 483.3 608 448L608 192C608 156.7 579.3 128 544 128L96 128C60.7 128 32 156.7 32 192L32 448C32 483.3 60.7 512 96 512L96 528C96 536.8 103.2 544 112 544C120.8 544 128 536.8 128 528L128 512L512 512zM480 240L480 400C480 408.8 487.2 416 496 416C504.8 416 512 408.8 512 400L512 240C512 231.2 504.8 224 496 224C487.2 224 480 231.2 480 240zM160 384L160 256L384 256L384 384L160 384zM128 248L128 392C128 405.3 138.7 416 152 416L392 416C405.3 416 416 405.3 416 392L416 248C416 234.7 405.3 224 392 224L152 224C138.7 224 128 234.7 128 248z"/></svg>