<svg xmlns="http://www.w3.org/2000/svg" viewBox="0 0 640 640"><!--! Font Awesome Pro 7.1.0 by @fontawesome - https://fontawesome.com License - https://fontawesome.com/license (Commercial License) Copyright 2025 Fonticons, Inc. --><path fill="currentColor" d="M59.3 36.8C53.1 30.6 42.9 30.6 36.7 36.8C30.5 43 30.5 53.2 36.7 59.4L580.7 603.4C586.9 609.6 597.1 609.6 603.3 603.4C609.5 597.2 609.5 587 603.3 580.8L451 428.4C488.6 393.4 512 343.4 512 288L512 240C512 231.2 504.8 224 496 224C487.2 224 480 231.2 480 240L480 288C480 334.6 460.1 376.5 428.3 405.8L383 360.5C403.2 342.9 416 317 416 288L416 160C416 107 373 64 320 64C267 64 224 107 224 160L224 201.5L59.3 36.8zM256 233.5L256 160C256 124.7 284.7 96 320 96C355.3 96 384 124.7 384 160L384 288C384 308.1 374.7 326 360.3 337.7L256 233.5zM135.8 226.3C131.1 229.1 128 234.2 128 240L128 288C128 388.6 205.4 471.2 304 479.3L304 544L240 544C231.2 544 224 551.2 224 560C224 568.8 231.2 576 240 576L400 576C408.8 576 416 568.8 416 560C416 551.2 408.8 544 400 544L336 544L336 479.3C351.2 478 365.9 475 379.9 470.4L353.8 444.3C342.9 446.7 331.5 447.9 319.9 447.9C231.5 447.9 159.9 376.3 159.9 287.9L159.9 250.4L135.7 226.2z"/></svg>