<svg xmlns="http://www.w3.org/2000/svg" viewBox="0 0 640 640"><!--! Font Awesome Pro 7.1.0 by @fontawesome - https://fontawesome.com License - https://fontawesome.com/license (Commercial License) Copyright 2025 Fonticons, Inc. --><path fill="currentColor" d="M382 144C374.9 116.4 349.8 96 320 96C284.7 96 256 124.7 256 160L256 288C256 323.3 284.7 352 320 352C349.8 352 374.9 331.6 382 304L336 304C327.2 304 320 296.8 320 288C320 279.2 327.2 272 336 272L384 272L384 240L336 240C327.2 240 320 232.8 320 224C320 215.2 327.2 208 336 208L384 208L384 176L336 176C327.2 176 320 168.8 320 160C320 151.2 327.2 144 336 144L382 144zM416 160L416 288C416 341 373 384 320 384C267 384 224 341 224 288L224 160C224 107 267 64 320 64C373 64 416 107 416 160zM144 224C152.8 224 160 231.2 160 240L160 288C160 376.4 231.6 448 320 448C408.4 448 480 376.4 480 288L480 240C480 231.2 487.2 224 496 224C504.8 224 512 231.2 512 240L512 288C512 388.6 434.6 471.2 336 479.3L336 544L400 544C408.8 544 416 551.2 416 560C416 568.8 408.8 576 400 576L240 576C231.2 576 224 568.8 224 560C224 551.2 231.2 544 240 544L304 544L304 479.3C205.4 471.2 128 388.6 128 288L128 240C128 231.2 135.2 224 144 224z"/></svg>