<svg xmlns="http://www.w3.org/2000/svg" viewBox="0 0 640 640"><!--! Font Awesome Pro 7.1.0 by @fontawesome - https://fontawesome.com License - https://fontawesome.com/license (Commercial License) Copyright 2025 Fonticons, Inc. --><path fill="currentColor" d="M240 80C240 71.2 232.8 64 224 64C215.2 64 208 71.2 208 80L208 128L192 128C156.7 128 128 156.7 128 192L128 208L80 208C71.2 208 64 215.2 64 224C64 232.8 71.2 240 80 240L128 240L128 304L80 304C71.2 304 64 311.2 64 320C64 328.8 71.2 336 80 336L128 336L128 400L80 400C71.2 400 64 407.2 64 416C64 424.8 71.2 432 80 432L128 432L128 448C128 483.3 156.7 512 192 512L208 512L208 560C208 568.8 215.2 576 224 576C232.8 576 240 568.8 240 560L240 512L304 512L304 560C304 568.8 311.2 576 320 576C328.8 576 336 568.8 336 560L336 512L400 512L400 560C400 568.8 407.2 576 416 576C424.8 576 432 568.8 432 560L432 512L448 512C483.3 512 512 483.3 512 448L512 432L560 432C568.8 432 576 424.8 576 416C576 407.2 568.8 400 560 400L512 400L512 336L560 336C568.8 336 576 328.8 576 320C576 311.2 568.8 304 560 304L512 304L512 240L560 240C568.8 240 576 232.8 576 224C576 215.2 568.8 208 560 208L512 208L512 192C512 156.7 483.3 128 448 128L432 128L432 80C432 71.2 424.8 64 416 64C407.2 64 400 71.2 400 80L400 128L336 128L336 80C336 71.2 328.8 64 320 64C311.2 64 304 71.2 304 80L304 128L240 128L240 80zM480 192L480 448C480 465.7 465.7 480 448 480L192 480C174.3 480 160 465.7 160 448L160 192C160 174.3 174.3 160 192 160L448 160C465.7 160 480 174.3 480 192zM256 224C238.3 224 224 238.3 224 256L224 384C224 401.7 238.3 416 256 416L384 416C401.7 416 416 401.7 416 384L416 256C416 238.3 401.7 224 384 224L256 224zM384 256L384 384L256 384L256 256L384 256z"/></svg>