<svg xmlns="http://www.w3.org/2000/svg" viewBox="0 0 640 640"><!--! Font Awesome Pro 7.1.0 by @fontawesome - https://fontawesome.com License - https://fontawesome.com/license (Commercial License) Copyright 2025 Fonticons, Inc. --><path fill="currentColor" d="M320 96C355.3 96 384 124.7 384 160L384 288C384 323.3 355.3 352 320 352C284.7 352 256 323.3 256 288L256 160C256 124.7 284.7 96 320 96zM224 160L224 288C224 341 267 384 320 384C373 384 416 341 416 288L416 160C416 107 373 64 320 64C267 64 224 107 224 160zM160 240C160 231.2 152.8 224 144 224C135.2 224 128 231.2 128 240L128 288C128 388.6 205.4 471.2 304 479.3L304 544L240 544C231.2 544 224 551.2 224 560C224 568.8 231.2 576 240 576L400 576C408.8 576 416 568.8 416 560C416 551.2 408.8 544 400 544L336 544L336 479.3C434.6 471.2 512 388.6 512 288L512 240C512 231.2 504.8 224 496 224C487.2 224 480 231.2 480 240L480 288C480 376.4 408.4 448 320 448C231.6 448 160 376.4 160 288L160 240z"/></svg>