<svg xmlns="http://www.w3.org/2000/svg" viewBox="0 0 640 640"><!--! Font Awesome Pro 7.1.0 by @fontawesome - https://fontawesome.com License - https://fontawesome.com/license (Commercial License) Copyright 2025 Fonticons, Inc. --><path fill="currentColor" d="M256 96C291.3 96 320 124.7 320 160L320 241C329.5 230.2 340.3 220.5 352 212L352 160C352 107 309 64 256 64C203 64 160 107 160 160L160 288C160 341 203 384 256 384C261.6 384 267.2 383.5 272.5 382.6C271.8 373.7 271.6 362.4 272.8 349.8C267.4 351.3 261.8 352 255.9 352C220.6 352 191.9 323.3 191.9 288L191.9 160C191.9 124.7 220.6 96 255.9 96zM303.9 474C297.8 464.8 292.5 455 288 444.8C277.7 446.9 267 448 256 448C167.6 448 96 376.4 96 288L96 240C96 231.2 88.8 224 80 224C71.2 224 64 231.2 64 240L64 288C64 388.6 141.4 471.2 240 479.3L240 544L176 544C167.2 544 160 551.2 160 560C160 568.8 167.2 576 176 576L336 576C344.8 576 352 568.8 352 560C352 551.2 344.8 544 336 544L272 544L272 479.3C282.9 478.4 293.6 476.6 303.9 473.9zM352 368C352 306.1 402.1 256 464 256C525.9 256 576 306.1 576 368C576 429.9 525.9 480 464 480C402.1 480 352 429.9 352 368zM608 368C608 288.5 543.5 224 464 224C384.5 224 320 288.5 320 368C320 447.5 384.5 512 464 512C543.5 512 608 447.5 608 368zM523.3 331.3C529.5 325.1 529.5 314.9 523.3 308.7C517.1 302.5 506.9 302.5 500.7 308.7L464 345.4L427.3 308.7C421.1 302.5 410.9 302.5 404.7 308.7C398.5 314.9 398.5 325.1 404.7 331.3L441.4 368L404.7 404.7C398.5 410.9 398.5 421.1 404.7 427.3C410.9 433.5 421.1 433.5 427.3 427.3L464 390.6L500.7 427.3C506.9 433.5 517.1 433.5 523.3 427.3C529.5 421.1 529.5 410.9 523.3 404.7L486.6 368L523.3 331.3z"/></svg>