<svg xmlns="http://www.w3.org/2000/svg" viewBox="0 0 640 640"><!--! Font Awesome Pro 7.1.0 by @fontawesome - https://fontawesome.com License - https://fontawesome.com/license (Commercial License) Copyright 2025 Fonticons, Inc. --><path fill="currentColor" d="M224 64C232.8 64 240 71.2 240 80L240 128L304 128L304 80C304 71.2 311.2 64 320 64C328.8 64 336 71.2 336 80L336 128L400 128L400 80C400 71.2 407.2 64 416 64C424.8 64 432 71.2 432 80L432 128L448 128C483.3 128 512 156.7 512 192L512 208L560 208C568.8 208 576 215.2 576 224C576 232.8 568.8 240 560 240L512 240L512 304L560 304C568.8 304 576 311.2 576 320C576 328.8 568.8 336 560 336L512 336L512 400L560 400C568.8 400 576 407.2 576 416C576 424.8 568.8 432 560 432L512 432L512 448C512 483.3 483.3 512 448 512L432 512L432 560C432 568.8 424.8 576 416 576C407.2 576 400 568.8 400 560L400 512L336 512L336 560C336 568.8 328.8 576 320 576C311.2 576 304 568.8 304 560L304 512L240 512L240 560C240 568.8 232.8 576 224 576C215.2 576 208 568.8 208 560L208 512L192 512C156.7 512 128 483.3 128 448L128 432L80 432C71.2 432 64 424.8 64 416C64 407.2 71.2 400 80 400L128 400L128 336L80 336C71.2 336 64 328.8 64 320C64 311.2 71.2 304 80 304L128 304L128 240L80 240C71.2 240 64 232.8 64 224C64 215.2 71.2 208 80 208L128 208L128 192C128 156.7 156.7 128 192 128L208 128L208 80C208 71.2 215.2 64 224 64zM192 160C174.3 160 160 174.3 160 192L160 448C160 465.7 174.3 480 192 480L448 480C465.7 480 480 465.7 480 448L480 192C480 174.3 465.7 160 448 160L192 160zM286.7 249.6L342.7 377.6C346.2 385.7 342.5 395.1 334.5 398.7C326.5 402.3 317 398.5 313.4 390.5L303.6 368.1L240.5 368.1L230.7 390.5C227.2 398.6 217.7 402.3 209.6 398.7C201.5 395.1 197.8 385.7 201.4 377.6L257.4 249.6C259.9 243.8 265.7 240 272.1 240C278.5 240 284.2 243.8 286.8 249.6zM272 295.9L254.5 336L289.6 336L272.1 295.9zM416 256L416 384C416 392.8 408.8 400 400 400C391.2 400 384 392.8 384 384L384 256C384 247.2 391.2 240 400 240C408.8 240 416 247.2 416 256z"/></svg>