<svg xmlns="http://www.w3.org/2000/svg" viewBox="0 0 640 640"><!--! Font Awesome Pro 7.1.0 by @fontawesome - https://fontawesome.com License - https://fontawesome.com/license (Commercial License) Copyright 2025 Fonticons, Inc. --><path fill="currentColor" d="M287.8 264.9L375.2 352.3L196.6 515.4C184 526.9 164.5 526.5 152.4 514.4L125.8 487.6C113.7 475.5 113.3 456 124.8 443.4L287.8 264.8zM398.6 332L399.4 331.2L308.9 240.7L308.1 241.5L308 230.1C307.8 209.4 315.6 188.7 331.4 172.9L342.8 161.5L478.6 297.3L467.2 308.7C451.4 324.5 430.7 332.3 410 332.1L398.6 332zM501.1 139C538.5 176.4 538.6 237.1 501.2 274.6L365.5 138.8C403 101.5 463.7 101.5 501.1 139zM523.7 116.4C473.7 66.4 392.7 66.4 342.7 116.4L308.8 150.3C286.7 172.4 275.8 201.4 276 230.4L101.2 421.8C78.1 447 79 486 103.2 510.2L129.8 536.9C154 561.1 193 562 218.3 539L304.2 460.6L304.2 592.1C304.2 600.9 311.4 608.1 320.2 608.1C329 608.1 336.2 600.9 336.2 592.1L336.2 431.4L409.8 364.2C438.8 364.4 467.8 353.5 489.9 331.4L523.8 297.5C573.8 247.5 573.8 166.5 523.8 116.5z"/></svg>