<svg xmlns="http://www.w3.org/2000/svg" viewBox="0 0 640 640"><!--! Font Awesome Pro 7.1.0 by @fontawesome - https://fontawesome.com License - https://fontawesome.com/license (Commercial License) Copyright 2025 Fonticons, Inc. --><path fill="currentColor" d="M36.7 36.8C42.9 30.6 53.1 30.6 59.3 36.8L224 201.5L224 160C224 107 267 64 320 64C373 64 416 107 416 160L416 288C416 316.9 403.2 342.9 383 360.5L428.3 405.8C460.1 376.5 480 334.6 480 288L480 240C480 231.2 487.2 224 496 224C504.8 224 512 231.2 512 240L512 288C512 343.4 488.5 393.4 451 428.4L603.3 580.8C609.5 587 609.5 597.2 603.3 603.4C597.1 609.6 586.9 609.6 580.7 603.4L36.7 59.4C30.5 53.2 30.5 43 36.7 36.8zM384 224L384 176L336 176C327.2 176 320 168.8 320 160C320 151.2 327.2 144 336 144L382 144C374.9 116.4 349.8 96 320 96C284.7 96 256 124.7 256 160L256 233.5L360.3 337.8C374.7 326 384 308.1 384 288L384 256L336 256C327.2 256 320 248.8 320 240C320 231.2 327.2 224 336 224L384 224zM128 240C128 234.2 131.1 229.1 135.8 226.3L160 250.5L160 288C160 376.4 231.6 448 320 448C331.6 448 343 446.8 353.9 444.4L380 470.5C366 475.1 351.3 478.1 336.1 479.4L336.1 544.1L400.1 544.1C408.9 544.1 416.1 551.3 416.1 560.1C416.1 568.9 408.9 576.1 400.1 576.1L240.1 576.1C231.3 576.1 224.1 568.9 224.1 560.1C224.1 551.3 231.3 544.1 240.1 544.1L304.1 544.1L304.1 479.4C205.4 471.2 128 388.6 128 288L128 240z"/></svg>