<svg xmlns="http://www.w3.org/2000/svg" viewBox="0 0 640 640"><!--! Font Awesome Pro 7.1.0 by @fontawesome - https://fontawesome.com License - https://fontawesome.com/license (Commercial License) Copyright 2025 Fonticons, Inc. --><path fill="currentColor" d="M384 116.3C384 96.2 403.3 79.8 423.6 86.1L427.7 87.7L435.8 91.6C519 133.9 576 220.3 576 320C576 461.4 461.4 576 320 576C178.6 576 64 461.4 64 320C64 217.1 124.8 128.4 212.3 87.7L216.4 86.1C236.7 79.7 256 96.1 256 116.3L256 176L256.3 179.2C257.8 186.5 264.3 192 272 192L368 192L371.2 191.7C378.5 190.2 384 183.7 384 176L384 116.3zM416 176L415.8 180.9C413.5 203.5 395.5 221.5 373 223.7L368.1 223.9L272.1 223.9C247.2 223.9 226.8 205 224.3 180.8L224.1 175.9L224.1 117.5C148.3 153.6 96 230.7 96 320C96 443.7 196.3 544 320 544C443.7 544 544 443.7 544 320C544 230.7 491.7 153.6 416 117.6L416 176zM320 496C306.7 496 296 485.3 296 472C296 458.7 306.7 448 320 448C333.3 448 344 458.7 344 472C344 485.3 333.3 496 320 496zM229.5 444.4C223.6 451 214.5 453.7 205.9 451.6C197.3 449.4 190.6 442.7 188.4 434.1C186.3 425.5 189 416.4 195.6 410.5C201.5 403.9 210.6 401.2 219.2 403.3C227.8 405.5 234.5 412.2 236.7 420.8C238.8 429.4 236.1 438.5 229.5 444.4zM444.4 444.4C438.5 451 429.4 453.7 420.8 451.6C412.2 449.4 405.5 442.7 403.3 434.1C401.2 425.5 403.9 416.4 410.5 410.5C416.4 403.9 425.5 401.2 434.1 403.3C442.7 405.5 449.4 412.2 451.6 420.8C453.7 429.4 451 438.5 444.4 444.4zM168 344C154.7 344 144 333.3 144 320C144 306.7 154.7 296 168 296C181.3 296 192 306.7 192 320C192 333.3 181.3 344 168 344zM472 344C458.7 344 448 333.3 448 320C448 306.7 458.7 296 472 296C485.3 296 496 306.7 496 320C496 333.3 485.3 344 472 344z"/></svg>