<svg xmlns="http://www.w3.org/2000/svg" viewBox="0 0 640 640"><!--! Font Awesome Pro 7.1.0 by @fontawesome - https://fontawesome.com License - https://fontawesome.com/license (Commercial License) Copyright 2025 Fonticons, Inc. --><path fill="currentColor" d="M224.8 130.8C227.3 111.2 244.1 96 264.5 96C286.5 96 304.3 113.7 304.5 135.7L304.5 136L304.5 410C312.6 393.4 323.4 378.4 336.5 365.6L336.5 135.7C336.7 113.7 354.5 96 376.5 96C396.8 96 413.6 111.2 416.2 130.8C417.1 138 422.7 143.6 429.9 144.6C463 149.2 488.5 177.6 488.5 212C488.5 222.9 486 233.1 481.5 242.1C481 243 480.7 244 480.4 245C488.8 241.7 497.9 239.9 507.4 239.8C510.4 239.8 513.4 239.9 516.4 240.3C519.1 231.3 520.5 221.8 520.5 212C520.5 165.4 488.6 126.2 445.4 115.1C436.5 85.5 409 64 376.5 64C353.9 64 333.7 74.4 320.5 90.7C307.3 74.4 287.1 64 264.5 64C232 64 204.5 85.5 195.6 115.1C152.4 126.2 120.5 165.3 120.5 212C120.5 222.6 122.2 232.9 125.2 242.5C98.2 261.3 80.5 292.5 80.5 328C80.5 353.1 89.4 376.2 104.3 394.2C99.3 405.8 96.5 418.6 96.5 432C96.5 479.4 130.8 518.7 175.9 526.6C189.1 555.7 218.4 576 252.5 576C272.8 576 291.4 568.8 305.9 556.8C301.1 546.7 297 535.5 293.9 523.4C284.4 535.9 269.4 544 252.4 544C229 544 209.1 528.5 202.6 507.2C200.7 500.8 195 496.3 188.3 495.9C154.9 493.8 128.4 466 128.4 432C128.4 420.1 131.6 409.1 137.2 399.6C141 393.2 139.8 385.1 134.5 379.9C120.9 366.8 112.4 348.4 112.4 328C112.4 299.8 128.6 275.4 152.2 263.6C160.1 259.7 163.3 250.1 159.4 242.2C154.9 233.1 152.4 222.9 152.4 212.1C152.4 177.7 177.9 149.3 211 144.7C218.2 143.7 223.8 138.1 224.7 130.9zM527.2 296C522 290.8 515 288 507.7 288C492.7 288.1 480.5 300.3 480.5 315.3L480.5 359.9L448.5 359.9C385.1 359.9 336.5 419.7 336.5 479.9C336.5 523.3 358.7 557.2 373.4 571.4C378 575.9 384.9 577.1 390.8 574.6C396.7 572.1 400.6 566.3 400.6 559.9L400.6 527.9C400.6 492.6 429.3 463.9 464.6 463.9L480.6 463.9L480.6 516.6C480.6 531.7 492.9 544 508.1 543.9C515.3 543.9 522.2 541 527.2 535.9L635.8 427.3C638.8 424.3 640.5 420.2 640.5 416C640.5 411.8 638.8 407.7 635.8 404.7L527.2 296zM512.5 376L512.5 326.6L601.9 416L512.5 505.4L512.5 448C512.5 439.2 505.3 432 496.5 432L464.5 432C419.8 432 382.2 462.6 371.5 504C369.6 496.6 368.5 488.5 368.5 480C368.5 434.1 405.9 392 448.5 392L496.5 392C505.3 392 512.5 384.8 512.5 376z"/></svg>