<svg xmlns="http://www.w3.org/2000/svg" viewBox="0 0 640 640"><!--! Font Awesome Pro 7.1.0 by @fontawesome - https://fontawesome.com License - https://fontawesome.com/license (Commercial License) Copyright 2025 Fonticons, Inc. --><path fill="currentColor" d="M320 64C328.8 64 336 71.2 336 80L336 153.4L427.3 244.7C427.5 244.9 427.7 245.2 427.9 245.4L433.8 246.5L516.7 262.4C569.7 272.6 608 319 608 372.9C608 414.3 574.4 447.9 533 447.9C479 447.9 432.7 409.6 422.5 356.6L406.6 273.7L405.5 267.8C405.3 267.6 405 267.4 404.8 267.1L336.1 198.4L336.1 341.1L340.1 346.4L396.9 422.1C409.4 438.7 416.1 458.9 416.1 479.7C416.1 532.7 373.1 575.7 320.1 575.7C267.1 575.7 224.1 532.7 224.1 479.7C224.1 458.9 230.8 438.7 243.3 422.1L300.1 346.4L304.1 341.1L304.1 198.4L235.4 267.1C235.2 267.3 234.9 267.5 234.7 267.8C233.8 272.3 233.3 275 233.2 275.8C225.3 273.2 216.9 271.8 208.1 271.8C190.1 271.8 173.5 277.7 160.1 287.8L129.4 293.7C91.5 301 64.1 334.2 64.1 372.8C64.1 396.6 83.4 415.8 107.1 415.8C121.9 415.8 135.9 411.8 148 404.6C155.5 413.1 164.8 420 175.3 424.8C156.2 439.3 132.5 447.8 107.1 447.8C65.7 447.8 32.1 414.2 32.1 372.8C32.1 318.8 70.4 272.5 123.4 262.3L206.3 246.4L212.2 245.3C212.4 245.1 212.6 244.8 212.9 244.6L304 153.4L304 80C304 71.2 311.2 64 320 64zM510.7 293.9L440.4 280.4L453.9 350.7C461.2 388.6 494.4 416 533 416C556.8 416 576 396.7 576 373C576 334.4 548.6 301.2 510.7 293.9zM268.8 441.6C260.5 452.7 256 466.2 256 480C256 515.3 284.7 544 320 544C355.3 544 384 515.3 384 480C384 466.2 379.5 452.7 371.2 441.6L320 373.3L268.8 441.6zM400 128C400 136.8 407.2 144 416 144C424.8 144 432 136.8 432 128C432 119.2 424.8 112 416 112C407.2 112 400 119.2 400 128zM416 176C389.5 176 368 154.5 368 128C368 101.5 389.5 80 416 80C442.5 80 464 101.5 464 128C464 154.5 442.5 176 416 176zM208 336C199.2 336 192 343.2 192 352C192 360.8 199.2 368 208 368C216.8 368 224 360.8 224 352C224 343.2 216.8 336 208 336zM256 352C256 378.5 234.5 400 208 400C181.5 400 160 378.5 160 352C160 325.5 181.5 304 208 304C234.5 304 256 325.5 256 352z"/></svg>