<svg xmlns="http://www.w3.org/2000/svg" viewBox="0 0 640 640"><!--! Font Awesome Pro 7.1.0 by @fontawesome - https://fontawesome.com License - https://fontawesome.com/license (Commercial License) Copyright 2025 Fonticons, Inc. --><path fill="currentColor" d="M85.2 404.7C90.7 399.2 99.1 398.5 105.3 402.6L107.8 404.7L155.8 452.7L157.9 455.2C162 461.4 161.3 469.9 155.8 475.3C150.3 480.7 141.9 481.5 135.7 477.4L133.2 475.3L112.5 454.6L112.5 480C112.5 524.2 148.3 560 192.5 560C215.1 560 235.4 550.6 250 535.5L272.7 558.2C252.4 579.1 224 592 192.5 592C130.6 592 80.5 541.9 80.5 480L80.5 454.6L59.8 475.3C53.6 481.5 43.4 481.5 37.2 475.3C31 469.1 31 458.9 37.2 452.7L85.2 404.7zM216.1 78.3C241.2 57.8 278.3 59.3 301.8 82.7L557.8 338.7L562.2 343.5C582.7 368.6 581.2 405.7 557.8 429.2L429.8 557.2C406.4 580.6 369.3 582.1 344.1 561.6L339.3 557.2L83.3 301.2C58.3 276.2 58.3 235.7 83.3 210.7L211.3 82.7L216.1 78.3zM279.1 105.3C267.5 93.7 249 92.9 236.5 102.9L233.4 105.7L105.8 233.3C93.3 245.8 93.3 266.1 105.8 278.5L361.4 534.1L364.5 536.9C377 547 395.4 546.2 407.1 534.5L535.1 406.5L537.2 404.2C546.8 392.6 546.9 375.8 537.7 364L534.7 361L279.1 105.4zM439.7 386.6C445.9 382.5 454.4 383.2 459.8 388.7C465.2 394.2 466 402.6 461.9 408.8L459.8 411.3L411.8 459.3C405.6 465.5 395.4 465.5 389.2 459.3C383 453.1 383 442.9 389.2 436.7L437.2 388.7L439.7 386.6zM448.5 48C510.4 48 560.5 98.1 560.5 160L560.5 185.4L581.2 164.7C587.4 158.5 597.6 158.5 603.8 164.7C610 170.9 610 181.1 603.8 187.3L555.8 235.3C550.3 240.8 541.9 241.5 535.7 237.4L533.2 235.3L485.2 187.3L483.1 184.8C479 178.6 479.7 170.1 485.2 164.7C490.7 159.3 499.1 158.5 505.3 162.6L507.8 164.7L528.5 185.4L528.5 160C528.5 115.8 492.7 80 448.5 80C425.9 80 405.6 89.4 391 104.5L368.3 81.8C388.7 61 417.1 48 448.5 48z"/></svg>