<svg xmlns="http://www.w3.org/2000/svg" viewBox="0 0 640 640"><!--! Font Awesome Pro 7.1.0 by @fontawesome - https://fontawesome.com License - https://fontawesome.com/license (Commercial License) Copyright 2025 Fonticons, Inc. --><path fill="currentColor" d="M432 96C449.7 96 464 110.3 464 128L464 512C464 529.7 449.7 544 432 544L208 544C190.3 544 176 529.7 176 512L176 128C176 110.3 190.3 96 208 96L432 96zM208 64C172.7 64 144 92.7 144 128L144 512C144 547.3 172.7 576 208 576L432 576C467.3 576 496 547.3 496 512L496 128C496 92.7 467.3 64 432 64L208 64zM272 480C272 488.8 279.2 496 288 496L352 496C360.8 496 368 488.8 368 480C368 471.2 360.8 464 352 464L288 464C279.2 464 272 471.2 272 480zM403.3 291.3C409.5 285.1 409.5 274.9 403.3 268.7C397.1 262.5 386.9 262.5 380.7 268.7L336 313.4L336 192C336 183.2 328.8 176 320 176C311.2 176 304 183.2 304 192L304 313.4L259.3 268.7C253.1 262.5 242.9 262.5 236.7 268.7C230.5 274.9 230.5 285.1 236.7 291.3L308.7 363.3C314.9 369.5 325.1 369.5 331.3 363.3L403.3 291.3z"/></svg>