<svg xmlns="http://www.w3.org/2000/svg" viewBox="0 0 640 640"><!--! Font Awesome Pro 7.1.0 by @fontawesome - https://fontawesome.com License - https://fontawesome.com/license (Commercial License) Copyright 2025 Fonticons, Inc. --><path fill="currentColor" d="M422.5 64.3C454.8 67.6 480 94.9 480 128L480 512C480 545.1 454.8 572.4 422.5 575.7L416 576L224 576L217.5 575.7C185.2 572.4 160 545.1 160 512L160 128C160 94.9 185.2 67.6 217.5 64.3L224 64L416 64L422.5 64.3zM224 96C206.3 96 192 110.3 192 128L192 512C192 529.7 206.3 544 224 544L416 544C433.7 544 448 529.7 448 512L448 128C448 110.3 433.7 96 416 96L224 96zM352 464C360.8 464 368 471.2 368 480C368 488.8 360.8 496 352 496L288 496C279.2 496 272 488.8 272 480C272 471.2 279.2 464 288 464L352 464zM84.7 196.7C90.9 190.5 101.1 190.5 107.3 196.7C113.5 202.9 113.5 213.1 107.3 219.3L65 261.7C64.4 262.3 64 263.2 64 264C64 264.8 64.3 265.7 65 266.3L93.7 295L96 297.6C101.1 303.9 104 311.8 104 320C104 328.2 101.1 336.1 96 342.4L93.7 345L65 373.7C64.4 374.3 64 375.2 64 376C64 376.8 64.3 377.7 65 378.3L107.3 420.6L109.4 423.1C113.5 429.3 112.8 437.8 107.3 443.2C101.8 448.6 93.4 449.4 87.2 445.3L84.7 443.2L42.4 400.9C35.7 394.3 32 385.4 32 376C32 366.6 35.7 357.7 42.3 351L71 322.3L71.7 321.2C72 320.4 72 319.4 71.7 318.6L71 317.7L42.3 289C35.7 282.3 32 273.4 32 264C32 254.6 35.7 245.7 42.3 239L84.6 196.7zM532.7 196.7C538.9 190.5 549.1 190.5 555.3 196.7L597.7 239C604.3 245.6 608 254.6 608 264C608 273.4 604.3 282.3 597.7 289L569 317.7L568.3 318.8C568.1 319.2 568.1 319.6 568.1 320.1C568.1 320.6 568.2 321 568.3 321.4L569 322.5L597.7 351.2C604.3 357.8 608 366.8 608 376.2C608 385.6 604.3 394.5 597.7 401.2L555.4 443.5L552.9 445.6C546.7 449.7 538.2 449 532.8 443.5C527.4 438 526.6 429.6 530.7 423.4L532.8 420.9L575.1 378.6C575.7 378 576.1 377.1 576.1 376.3C576.1 375.5 575.8 374.6 575.1 374L546.4 345.3L544.1 342.7C539 336.4 536.1 328.5 536.1 320.3C536.1 312.1 539 304.2 544.1 297.9L546.4 295.3L575.1 266.6C575.7 266 576.1 265.1 576.1 264.3C576.1 263.5 575.8 262.6 575.1 262L532.8 219.7C526.6 213.5 526.6 203.3 532.8 197.1z"/></svg>