<svg xmlns="http://www.w3.org/2000/svg" viewBox="0 0 640 640"><!--! Font Awesome Pro 7.1.0 by @fontawesome - https://fontawesome.com License - https://fontawesome.com/license (Commercial License) Copyright 2025 Fonticons, Inc. --><path fill="currentColor" d="M36.7 36.8C42.2 31.3 50.6 30.6 56.8 34.7L59.3 36.8L144.3 121.8C147.2 91.5 171.3 67.5 201.5 64.4L208 64.1L432 64.1L438.5 64.4C470.8 67.6 496 94.9 496 128L496 473.5L603.3 580.8L605.4 583.3C609.5 589.5 608.8 598 603.3 603.4C597.8 608.8 589.4 609.6 583.2 605.5L580.7 603.4L36.7 59.4L34.6 56.9C30.5 50.7 31.2 42.2 36.7 36.8zM176 266.5L176 512C176 529.7 190.3 544 208 544L432 544C438.1 544 443.8 542.2 448.7 539.2L471.6 562.1C462.3 569.5 450.9 574.3 438.5 575.6L432 575.9L208 575.9L201.5 575.6C169.2 572.4 144 545.1 144 512L144 234.5L176 266.5zM352 464C360.8 464 368 471.2 368 480C368 488.8 360.8 496 352 496L288 496C279.2 496 272 488.8 272 480C272 471.2 279.2 464 288 464L352 464zM208 96C190.3 96 176 110.3 176 128L176 153.5L464 441.5L464 128C464 110.3 449.7 96 432 96L208 96z"/></svg>