<svg xmlns="http://www.w3.org/2000/svg" viewBox="0 0 640 640"><!--! Font Awesome Pro 7.1.0 by @fontawesome - https://fontawesome.com License - https://fontawesome.com/license (Commercial License) Copyright 2025 Fonticons, Inc. --><path fill="currentColor" d="M555.8 404.7C550.3 399.2 541.9 398.5 535.7 402.6L533.2 404.7L485.2 452.7L483.1 455.2C479 461.4 479.7 469.9 485.2 475.3C490.7 480.7 499.1 481.5 505.3 477.4L507.8 475.3L528.5 454.6L528.5 480C528.5 524.2 492.7 560 448.5 560C425.9 560 405.6 550.6 391 535.5L368.3 558.2C388.6 579.1 417 592 448.5 592C510.4 592 560.5 541.9 560.5 480L560.5 454.6L581.2 475.3C587.4 481.5 597.6 481.5 603.8 475.3C610 469.1 610 458.9 603.8 452.7L555.8 404.7zM424.9 78.3C399.8 57.8 362.7 59.3 339.2 82.7L83.2 338.7L78.8 343.5C58.3 368.6 59.8 405.7 83.2 429.2L211.2 557.2L215.8 561.3C237.7 579.4 268.8 580.7 292.1 565.2L296.9 561.6L301.7 557.2L557.7 301.2C581.1 277.8 582.6 240.7 562.1 215.5L557.7 210.7L429.7 82.7L424.9 78.3zM361.9 105.3C373.5 93.7 392 92.9 404.5 102.9L407.6 105.7L535.2 233.3C547.7 245.8 547.7 266.1 535.2 278.5L280 533.8L276.4 537.1C263.9 547 245.6 546.1 234 534.6L106 406.6L103.9 404.3C94.3 392.7 94.2 375.9 103.4 364.2L106.7 360.6L361.9 105.3zM201.3 386.6C195.1 382.5 186.6 383.2 181.2 388.7C175.8 394.2 175 402.6 179.1 408.8L181.2 411.3L229.2 459.3C235.4 465.5 245.6 465.5 251.8 459.3C258 453.1 258 442.9 251.8 436.7L203.8 388.7L201.3 386.6zM192.5 48C130.6 48 80.5 98.1 80.5 160L80.5 185.4L59.8 164.7C53.6 158.5 43.4 158.5 37.2 164.7C31 170.9 31 181.1 37.2 187.3L85.2 235.3C90.7 240.8 99.1 241.5 105.3 237.4L107.8 235.3L155.8 187.3L157.9 184.8C162 178.6 161.3 170.1 155.8 164.7C150.3 159.3 141.9 158.5 135.7 162.6L133.2 164.7L112.5 185.4L112.5 160C112.5 115.8 148.3 80 192.5 80C215.1 80 235.4 89.4 250 104.5L272.7 81.8C252.3 61 223.9 48 192.5 48z"/></svg>