<svg xmlns="http://www.w3.org/2000/svg" viewBox="0 0 640 640"><!--! Font Awesome Pro 7.1.0 by @fontawesome - https://fontawesome.com License - https://fontawesome.com/license (Commercial License) Copyright 2025 Fonticons, Inc. --><path fill="currentColor" d="M368 32C500.5 32 608 139.5 608 272C608 280.8 600.8 288 592 288C583.2 288 576 280.8 576 272C576 157.1 482.9 64 368 64C359.2 64 352 56.8 352 48C352 39.2 359.2 32 368 32zM384 224C401.7 224 416 238.3 416 256C416 273.7 401.7 288 384 288C366.3 288 352 273.7 352 256C352 238.3 366.3 224 384 224zM352 144C352 135.2 359.2 128 368 128C447.5 128 512 192.5 512 272C512 280.8 504.8 288 496 288C487.2 288 480 280.8 480 272C480 210.1 429.9 160 368 160C359.2 160 352 152.8 352 144zM128 64L304 64L304 96L128 96C110.3 96 96 110.3 96 128L96 512C96 529.7 110.3 544 128 544L352 544C369.7 544 384 529.7 384 512L384 336L416 336L416 512C416 547.3 387.3 576 352 576L128 576C92.7 576 64 547.3 64 512L64 128C64 92.7 92.7 64 128 64zM208 464L272 464C280.8 464 288 471.2 288 480C288 488.8 280.8 496 272 496L208 496C199.2 496 192 488.8 192 480C192 471.2 199.2 464 208 464z"/></svg>