<svg xmlns="http://www.w3.org/2000/svg" viewBox="0 0 640 640"><!--! Font Awesome Pro 7.1.0 by @fontawesome - https://fontawesome.com License - https://fontawesome.com/license (Commercial License) Copyright 2025 Fonticons, Inc. --><path fill="currentColor" d="M128 96L352 96C369.7 96 384 110.3 384 128L384 387.3C393.9 377.2 404.6 367.9 416 359.4L416 128C416 92.7 387.3 64 352 64L128 64C92.7 64 64 92.7 64 128L64 512C64 547.3 92.7 576 128 576L304.1 576C304.4 565.2 305.2 554.5 306.7 544L128 544C110.3 544 96 529.7 96 512L96 128C96 110.3 110.3 96 128 96zM208 464C199.2 464 192 471.2 192 480C192 488.8 199.2 496 208 496L272 496C280.8 496 288 488.8 288 480C288 471.2 280.8 464 272 464L208 464zM592 352C459.5 352 352 459.5 352 592C352 600.8 359.2 608 368 608C376.8 608 384 600.8 384 592C384 477.1 477.1 384 592 384C600.8 384 608 376.8 608 368C608 359.2 600.8 352 592 352zM576 608C593.7 608 608 593.7 608 576C608 558.3 593.7 544 576 544C558.3 544 544 558.3 544 576C544 593.7 558.3 608 576 608zM608 464C608 455.2 600.8 448 592 448C512.5 448 448 512.5 448 592C448 600.8 455.2 608 464 608C472.8 608 480 600.8 480 592C480 530.1 530.1 480 592 480C600.8 480 608 472.8 608 464z"/></svg>