<svg xmlns="http://www.w3.org/2000/svg" viewBox="0 0 640 640"><!--! Font Awesome Pro 7.1.0 by @fontawesome - https://fontawesome.com License - https://fontawesome.com/license (Commercial License) Copyright 2025 Fonticons, Inc. --><path fill="currentColor" d="M432 96C449.7 96 464 110.3 464 128L464 512C464 529.7 449.7 544 432 544L208 544C190.3 544 176 529.7 176 512L176 128C176 110.3 190.3 96 208 96L432 96zM208 64C172.7 64 144 92.7 144 128L144 512C144 547.3 172.7 576 208 576L432 576C467.3 576 496 547.3 496 512L496 128C496 92.7 467.3 64 432 64L208 64zM384 224L384 288L256 288L256 224L384 224zM256 192C238.3 192 224 206.3 224 224L224 288C224 305.7 238.3 320 256 320L384 320C401.7 320 416 305.7 416 288L416 224C416 206.3 401.7 192 384 192L256 192zM240 416C253.3 416 264 405.3 264 392C264 378.7 253.3 368 240 368C226.7 368 216 378.7 216 392C216 405.3 226.7 416 240 416zM264 472C264 458.7 253.3 448 240 448C226.7 448 216 458.7 216 472C216 485.3 226.7 496 240 496C253.3 496 264 485.3 264 472zM320 416C333.3 416 344 405.3 344 392C344 378.7 333.3 368 320 368C306.7 368 296 378.7 296 392C296 405.3 306.7 416 320 416zM344 472C344 458.7 333.3 448 320 448C306.7 448 296 458.7 296 472C296 485.3 306.7 496 320 496C333.3 496 344 485.3 344 472zM400 416C413.3 416 424 405.3 424 392C424 378.7 413.3 368 400 368C386.7 368 376 378.7 376 392C376 405.3 386.7 416 400 416zM424 472C424 458.7 413.3 448 400 448C386.7 448 376 458.7 376 472C376 485.3 386.7 496 400 496C413.3 496 424 485.3 424 472zM288 128C279.2 128 272 135.2 272 144C272 152.8 279.2 160 288 160L352 160C360.8 160 368 152.8 368 144C368 135.2 360.8 128 352 128L288 128z"/></svg>