<svg xmlns="http://www.w3.org/2000/svg" viewBox="0 0 640 640"><!--! Font Awesome Pro 7.1.0 by @fontawesome - https://fontawesome.com License - https://fontawesome.com/license (Commercial License) Copyright 2025 Fonticons, Inc. --><path fill="currentColor" d="M256 96L256 136C256 149.3 266.7 160 280 160L360 160C373.3 160 384 149.3 384 136L384 96L432 96C449.7 96 464 110.3 464 128L464 512C464 529.7 449.7 544 432 544L208 544C190.3 544 176 529.7 176 512L176 128C176 110.3 190.3 96 208 96L256 96zM256 64L208 64C172.7 64 144 92.7 144 128L144 512C144 547.3 172.7 576 208 576L432 576C467.3 576 496 547.3 496 512L496 128C496 92.7 467.3 64 432 64L256 64zM288 96L352 96L352 128L288 128L288 96zM272 480C272 488.8 279.2 496 288 496L352 496C360.8 496 368 488.8 368 480C368 471.2 360.8 464 352 464L288 464C279.2 464 272 471.2 272 480z"/></svg>