<svg xmlns="http://www.w3.org/2000/svg" viewBox="0 0 640 640"><!--! Font Awesome Pro 7.1.0 by @fontawesome - https://fontawesome.com License - https://fontawesome.com/license (Commercial License) Copyright 2025 Fonticons, Inc. --><path fill="currentColor" d="M544 80C544 75.8 542.3 71.7 539.3 68.7C536.3 65.7 532.2 64 528 64L426.2 64C417.4 64 410.2 71.2 410.2 80C410.2 88.8 417.4 96 426.2 96L489.4 96L351.2 234.2L250.4 147.8C244.4 142.7 235.6 142.7 229.6 147.8L117.6 243.8C110.9 249.6 110.1 259.7 115.9 266.4C121.7 273.1 131.8 273.9 138.5 268.1L240 181.1L341.6 268.1C347.9 273.5 357.4 273.2 363.3 267.3L512 118.6L512 181.8C512 190.6 519.2 197.8 528 197.8C536.8 197.8 544 190.6 544 181.8L544 80zM528 352C536.8 352 544 359.2 544 368L544 400C517.5 400 496 378.5 496 352L528 352zM176 352L464 352C464 396.2 499.8 432 544 432L544 464C499.8 464 464 499.8 464 544L176 544C176 499.8 140.2 464 96 464L96 432C140.2 432 176 396.2 176 352zM496 544C496 517.5 517.5 496 544 496L544 528C544 536.8 536.8 544 528 544L496 544zM96 496C122.5 496 144 517.5 144 544L112 544C103.2 544 96 536.8 96 528L96 496zM144 352C144 378.5 122.5 400 96 400L96 368C96 359.2 103.2 352 112 352L144 352zM112 320C85.5 320 64 341.5 64 368L64 528C64 554.5 85.5 576 112 576L528 576C554.5 576 576 554.5 576 528L576 368C576 341.5 554.5 320 528 320L112 320zM288 448C288 430.3 302.3 416 320 416C337.7 416 352 430.3 352 448C352 465.7 337.7 480 320 480C302.3 480 288 465.7 288 448zM384 448C384 412.7 355.3 384 320 384C284.7 384 256 412.7 256 448C256 483.3 284.7 512 320 512C355.3 512 384 483.3 384 448z"/></svg>