<svg xmlns="http://www.w3.org/2000/svg" viewBox="0 0 640 640"><!--! Font Awesome Pro 7.1.0 by @fontawesome - https://fontawesome.com License - https://fontawesome.com/license (Commercial License) Copyright 2025 Fonticons, Inc. --><path fill="currentColor" d="M96 448C130.1 448 158 474.7 159.9 508.4C142.5 506.6 124.1 502.8 104.1 496.4C100.2 495.2 96 490.6 96 483.6L96 448zM96 416L96 272C145.7 272 186.6 234.2 191.5 185.8C245.3 185.7 290 170.8 331.4 157L335.7 155.6C373.1 143.1 408.2 131.9 448.1 130.5C449.4 182.4 491.9 224 544.1 224L544.1 368C494.4 368 453.5 405.8 448.6 454.2C394.8 454.3 350.1 469.2 308.7 483.1L304.4 484.5C267 497 231.9 508.2 192 509.5C190.7 457.6 148.2 416 96 416zM538.9 467.8C518.3 461.6 498.9 457.8 480.5 455.9C484.5 424.4 511.4 400.1 544 400.1L544 466.6C543.9 466.7 543.7 466.9 543.3 467.2C542.1 468 540.4 468.3 538.9 467.9zM544 156.4L544 192C509.9 192 482 165.3 480.1 131.6C497.5 133.4 515.9 137.2 535.9 143.6C539.8 144.8 544 149.4 544 156.4zM96 240L96 173.5C96.1 173.4 96.3 173.2 96.7 172.9C97.9 172.1 99.6 171.8 101.1 172.2C121.7 178.4 141.1 182.2 159.5 184.1C155.5 215.6 128.6 239.9 96 239.9zM64 173.5L64 483.6C64 503 75.8 520.9 94.3 526.9C188.3 556.9 253.1 535.3 317.6 513.8C380 493 442 472.3 529.7 498.5C551.9 505.1 575.9 489.7 575.9 466.5L575.9 156.4C575.9 137 564.1 119.1 545.6 113.1C451.6 83.1 386.8 104.7 322.3 126.2C259.9 147 197.9 167.7 110.2 141.5C88 134.9 63.9 150.3 63.9 173.5zM276.1 256.2C288.2 240.4 303.9 232 320 232C336.1 232 351.8 240.4 363.9 256.2C376 272 384 294.5 384 320C384 345.5 376 368 363.9 383.8C351.8 399.6 336.1 408 320 408C303.9 408 288.2 399.6 276.1 383.8C264 368 256 345.5 256 320C256 294.5 264 272 276.1 256.2zM250.7 236.7C233.9 258.6 224 288.1 224 320C224 351.9 233.9 381.4 250.7 403.3C267.6 425.2 291.9 440 320 440C348.1 440 372.4 425.2 389.3 403.3C406.1 381.4 416 351.9 416 320C416 288.1 406.1 258.6 389.3 236.7C372.4 214.8 348.1 200 320 200C291.9 200 267.6 214.8 250.7 236.7zM304 272C295.2 272 288 279.2 288 288C288 296.8 295.2 304 304 304L304 336C295.2 336 288 343.2 288 352C288 360.8 295.2 368 304 368L336 368C344.8 368 352 360.8 352 352C352 343.2 344.8 336 336 336L336 288C336 279.2 328.8 272 320 272L304 272z"/></svg>