<svg xmlns="http://www.w3.org/2000/svg" viewBox="0 0 640 640"><!--! Font Awesome Pro 7.1.0 by @fontawesome - https://fontawesome.com License - https://fontawesome.com/license (Commercial License) Copyright 2025 Fonticons, Inc. --><path fill="currentColor" d="M96 483.6C96 490.6 100.2 495.1 104.1 496.4C124.1 502.8 142.6 506.6 159.9 508.4C158 474.7 130.1 448 96 448L96 483.6zM192 509.5C231.8 508.2 266.9 496.9 304.4 484.5L308.7 483.1C350 469.3 394.8 454.4 448.6 454.2C453.5 405.8 494.4 368 544.1 368L544.1 224C491.9 224 449.5 182.4 448.1 130.5C408.3 131.8 373.2 143.1 335.7 155.6L331.4 157C290.1 170.8 245.3 185.7 191.5 185.8C186.6 234.2 145.7 272 96 272L96 416C148.2 416 190.6 457.6 192 509.5zM480.5 455.9C498.9 457.9 518.3 461.7 538.9 467.8C540.4 468.2 542 468 543.3 467.1C543.7 466.8 543.9 466.6 544 466.5L544 400C511.4 400 484.5 424.3 480.5 455.8zM544 192L544 156.4C544 149.4 539.8 144.9 535.9 143.6C515.9 137.2 497.4 133.4 480.1 131.6C482 165.3 509.9 192 544 192zM159.5 184.2C141.1 182.2 121.7 178.4 101.1 172.3C99.6 171.9 98 172.1 96.7 173C96.3 173.3 96.1 173.5 96 173.6L96 240C128.6 240 155.5 215.6 159.5 184.2zM64 483.6L64 173.5C64 150.3 88.1 134.9 110.3 141.5C198 167.7 260 147 322.4 126.2C386.9 104.7 451.8 83.1 545.7 113.1C564.2 119 576 136.9 576 156.4L576 466.5C576 489.7 551.9 505.1 529.8 498.5C442.1 472.3 380 493 317.7 513.8C253.2 535.3 188.3 556.9 94.4 526.9C75.9 521 64.1 503.1 64.1 483.6zM264 320C264 343.4 271.1 363.9 281.9 378.3C292.7 392.7 306.3 400 320 400C333.7 400 347.4 392.6 358.1 378.3C368.8 364 376 343.4 376 320C376 296.6 368.9 276.1 358.1 261.7C347.3 247.3 333.7 240 320 240C306.3 240 292.6 247.4 281.9 261.7C271.2 276 264 296.6 264 320zM320 208C346 208 368.4 222.1 383.7 242.5C399 262.9 408 290.3 408 320C408 349.7 399 377.1 383.7 397.5C368.4 417.9 346 432 320 432C294 432 271.6 417.9 256.3 397.5C241 377.1 232 349.7 232 320C232 290.3 241 262.9 256.3 242.5C271.6 222.1 294 208 320 208z"/></svg>