<svg xmlns="http://www.w3.org/2000/svg" viewBox="0 0 640 640"><!--! Font Awesome Pro 7.1.0 by @fontawesome - https://fontawesome.com License - https://fontawesome.com/license (Commercial License) Copyright 2025 Fonticons, Inc. --><path fill="currentColor" d="M288 128L288 133.3C269.4 126.7 256 108.9 256 88L256 82.7C274.6 89.3 288 107.1 288 128zM224 64L224 88C224 119.7 242.4 147 269.1 160C242.4 173 224 200.3 224 232L224 256C224 264.8 231.2 272 240 272C284.2 272 320 236.2 320 192L320 128C320 83.8 284.2 48 240 48C231.2 48 224 55.2 224 64zM112 64C103.2 64 96 71.2 96 80C96 88.8 103.2 96 112 96L176 96C184.8 96 192 88.8 192 80C192 71.2 184.8 64 176 64L112 64zM80 144C71.2 144 64 151.2 64 160C64 168.8 71.2 176 80 176L208 176C216.8 176 224 168.8 224 160C224 151.2 216.8 144 208 144L80 144zM96 240C96 248.8 103.2 256 112 256L176 256C184.8 256 192 248.8 192 240C192 231.2 184.8 224 176 224L112 224C103.2 224 96 231.2 96 240zM400 133.3C381.4 126.7 368 108.9 368 88L368 82.7C386.6 89.3 400 107.1 400 128L400 133.3zM352 48C343.2 48 336 55.2 336 64L336 88C336 119.7 354.4 147 381.1 160C354.4 173 336 200.3 336 232L336 256C336 264.8 343.2 272 352 272C396.2 272 432 236.2 432 192L432 128C432 83.8 396.2 48 352 48zM512 128L512 133.3C493.4 126.7 480 108.9 480 88L480 82.7C498.6 89.3 512 107.1 512 128zM448 64L448 88C448 119.7 466.4 147 493.1 160C466.4 173 448 200.3 448 232L448 256C448 264.8 455.2 272 464 272C508.2 272 544 236.2 544 192L544 128C544 83.8 508.2 48 464 48C455.2 48 448 55.2 448 64zM368 237.3L368 232C368 211.1 381.4 193.3 400 186.7L400 192C400 212.9 386.6 230.7 368 237.3zM256 232C256 211.1 269.4 193.3 288 186.7L288 192C288 212.9 274.6 230.7 256 237.3L256 232zM480 237.3L480 232C480 211.1 493.4 193.3 512 186.7L512 192C512 212.9 498.6 230.7 480 237.3zM544 368L544 400C517.5 400 496 378.5 496 352L528 352C536.8 352 544 359.2 544 368zM96 432C140.2 432 176 396.2 176 352L464 352C464 396.2 499.8 432 544 432L544 464C499.8 464 464 499.8 464 544L176 544C176 499.8 140.2 464 96 464L96 432zM496 544C496 517.5 517.5 496 544 496L544 528C544 536.8 536.8 544 528 544L496 544zM96 496C122.5 496 144 517.5 144 544L112 544C103.2 544 96 536.8 96 528L96 496zM144 352C144 378.5 122.5 400 96 400L96 368C96 359.2 103.2 352 112 352L144 352zM112 320C85.5 320 64 341.5 64 368L64 528C64 554.5 85.5 576 112 576L528 576C554.5 576 576 554.5 576 528L576 368C576 341.5 554.5 320 528 320L112 320zM288 448C288 430.3 302.3 416 320 416C337.7 416 352 430.3 352 448C352 465.7 337.7 480 320 480C302.3 480 288 465.7 288 448zM384 448C384 412.7 355.3 384 320 384C284.7 384 256 412.7 256 448C256 483.3 284.7 512 320 512C355.3 512 384 483.3 384 448z"/></svg>