<svg xmlns="http://www.w3.org/2000/svg" viewBox="0 0 640 640"><!--! Font Awesome Pro 7.1.0 by @fontawesome - https://fontawesome.com License - https://fontawesome.com/license (Commercial License) Copyright 2025 Fonticons, Inc. --><path fill="currentColor" d="M160 160C160 195.3 131.3 224 96 224L96 192C96 174.3 110.3 160 128 160L160 160zM192 160L448 160C448 213 491 256 544 256L544 384C491 384 448 427 448 480L192 480C192 427 149 384 96 384L96 256C149 256 192 213 192 160zM512 480L480 480C480 444.7 508.7 416 544 416L544 448C544 465.7 529.7 480 512 480zM160 480L128 480C110.3 480 96 465.7 96 448L96 416C131.3 416 160 444.7 160 480zM544 192L544 224C508.7 224 480 195.3 480 160L512 160C529.7 160 544 174.3 544 192zM128 128C92.7 128 64 156.7 64 192L64 448C64 483.3 92.7 512 128 512L512 512C547.3 512 576 483.3 576 448L576 192C576 156.7 547.3 128 512 128L128 128zM320 224C373 224 416 267 416 320C416 373 373 416 320 416C267 416 224 373 224 320C224 267 267 224 320 224zM320 448C390.7 448 448 390.7 448 320C448 249.3 390.7 192 320 192C249.3 192 192 249.3 192 320C192 390.7 249.3 448 320 448zM304 272C295.2 272 288 279.2 288 288C288 296.8 295.2 304 304 304L304 336L296 336C287.2 336 280 343.2 280 352C280 360.8 287.2 368 296 368L344 368C352.8 368 360 360.8 360 352C360 343.2 352.8 336 344 336L336 336L336 288C336 279.2 328.8 272 320 272L304 272z"/></svg>