<svg xmlns="http://www.w3.org/2000/svg" viewBox="0 0 640 640"><!--! Font Awesome Pro 7.1.0 by @fontawesome - https://fontawesome.com License - https://fontawesome.com/license (Commercial License) Copyright 2025 Fonticons, Inc. --><path fill="currentColor" d="M112 96C85.5 96 64 117.5 64 144L64 240C64 248.8 56.8 256 48 256C39.2 256 32 248.8 32 240L32 144C32 99.8 67.8 64 112 64L528 64C572.2 64 608 99.8 608 144L608 240C608 248.8 600.8 256 592 256C583.2 256 576 248.8 576 240L576 144C576 117.5 554.5 96 528 96L112 96zM480 512L480 160L512 160L512 512C512 547.3 483.3 576 448 576L192 576C156.7 576 128 547.3 128 512L128 160L160 160L160 512C160 529.7 174.3 544 192 544L448 544C465.7 544 480 529.7 480 512zM320 384C355.3 384 384 355.3 384 320C384 284.7 355.3 256 320 256C284.7 256 256 284.7 256 320C256 355.3 284.7 384 320 384zM320 224C373 224 416 267 416 320C416 373 373 416 320 416C267 416 224 373 224 320C224 267 267 224 320 224z"/></svg>