<svg xmlns="http://www.w3.org/2000/svg" viewBox="0 0 640 640"><!--! Font Awesome Pro 7.1.0 by @fontawesome - https://fontawesome.com License - https://fontawesome.com/license (Commercial License) Copyright 2025 Fonticons, Inc. --><path fill="currentColor" d="M480.4 160L96.4 160C78.7 160 64.4 174.3 64.4 192L64.4 448C64.4 465.7 78.7 480 96.4 480L294.2 480C290.1 489 287.1 498.5 285.5 508.3L284.9 512L96.4 512C61.1 512 32.4 483.3 32.4 448L32.4 192C32.4 156.7 61.1 128 96.4 128L480.4 128C515.7 128 544.4 156.7 544.4 192L544.4 268.1C533.6 268.1 522.8 269.6 512.4 272.5L512.4 191.9C512.4 174.2 498.1 159.9 480.4 159.9zM128.4 368C128.4 359.2 135.6 352 144.4 352L304.4 352C313.2 352 320.4 359.2 320.4 368C320.4 376.8 313.2 384 304.4 384L144.4 384C135.6 384 128.4 376.8 128.4 368zM144.4 256L432.4 256C441.2 256 448.4 263.2 448.4 272C448.4 280.8 441.2 288 432.4 288L144.4 288C135.6 288 128.4 280.8 128.4 272C128.4 263.2 135.6 256 144.4 256zM373.5 504.1C368.8 508.8 365.7 514.9 364.6 521.5L356.1 572.3L406.9 563.8C413.5 562.7 419.5 559.6 424.3 554.9L526.5 452.7L475.8 402L373.6 504.2zM498.3 379.3L549 430L569.7 409.3C583.7 395.3 583.7 372.6 569.7 358.6C555.7 344.6 533 344.6 519 358.6L498.3 379.3zM333 516.2C335.2 503 341.4 490.9 350.9 481.5L496.4 336C522.9 309.5 565.9 309.5 592.4 336C618.9 362.5 618.9 405.5 592.4 432L446.9 577.5C437.5 586.9 425.3 593.2 412.2 595.4L337.6 607.8C336.8 607.9 336 608 335.2 608C327 608 320.4 601.4 320.4 593.2C320.4 592.4 320.5 591.6 320.6 590.8L333 516.2z"/></svg>