<svg xmlns="http://www.w3.org/2000/svg" viewBox="0 0 640 640"><!--! Font Awesome Pro 7.1.0 by @fontawesome - https://fontawesome.com License - https://fontawesome.com/license (Commercial License) Copyright 2025 Fonticons, Inc. --><path fill="currentColor" d="M128 160C110.3 160 96 174.3 96 192L96 224C131.3 224 160 195.3 160 160L128 160zM96 256L96 384C149 384 192 427 192 480L448 480C448 427 491 384 544 384L544 256C491 256 448 213 448 160L192 160C192 213 149 256 96 256zM480 480L512 480C529.7 480 544 465.7 544 448L544 416C508.7 416 480 444.7 480 480zM96 416L96 448C96 465.7 110.3 480 128 480L160 480C160 444.7 131.3 416 96 416zM544 224L544 192C544 174.3 529.7 160 512 160L480 160C480 195.3 508.7 224 544 224zM64 192C64 156.7 92.7 128 128 128L512 128C547.3 128 576 156.7 576 192L576 448C576 483.3 547.3 512 512 512L128 512C92.7 512 64 483.3 64 448L64 192zM384 320C384 284.7 355.3 256 320 256C284.7 256 256 284.7 256 320C256 355.3 284.7 384 320 384C355.3 384 384 355.3 384 320zM224 320C224 267 267 224 320 224C373 224 416 267 416 320C416 373 373 416 320 416C267 416 224 373 224 320z"/></svg>