<svg xmlns="http://www.w3.org/2000/svg" viewBox="0 0 640 640"><!--! Font Awesome Pro 7.1.0 by @fontawesome - https://fontawesome.com License - https://fontawesome.com/license (Commercial License) Copyright 2025 Fonticons, Inc. --><path fill="currentColor" d="M36.7 155.3C30.5 149.1 30.5 138.9 36.7 132.7L108.7 60.7C114.9 54.5 125.1 54.5 131.3 60.7C137.5 66.9 137.5 77.1 131.3 83.3L86.6 128L208 128L208.1 128L512 128C547.3 128 576 156.7 576 192L576 389.5L565.3 378.8C559 372.5 551.8 367.8 544 364.7L544 256C491 256 448 213 448 160L154.5 160L154.5 160L86.6 160L131.3 204.7C137.5 210.9 137.5 221.1 131.3 227.3C125.1 233.5 114.9 233.5 108.7 227.3L36.7 155.3zM64 448L64 250.5L74.7 261.2C81 267.5 88.2 272.2 96 275.3L96 384C149 384 192 427 192 480L553.4 480L508.7 435.3C502.5 429.1 502.5 418.9 508.7 412.7C514.9 406.5 525.1 406.5 531.3 412.7L603.3 484.7C609.5 490.9 609.5 501.1 603.3 507.3L531.3 579.3C525.1 585.5 514.9 585.5 508.7 579.3C502.5 573.1 502.5 562.9 508.7 556.7L553.4 512L128 512C92.7 512 64 483.3 64 448zM96 416L96 448C96 465.7 110.3 480 128 480L160 480C160 444.7 131.3 416 96 416zM544 224L544 192C544 174.3 529.7 160 512 160L480 160C480 195.3 508.7 224 544 224zM384 320C384 284.7 355.3 256 320 256C284.7 256 256 284.7 256 320C256 355.3 284.7 384 320 384C355.3 384 384 355.3 384 320zM224 320C224 267 267 224 320 224C373 224 416 267 416 320C416 373 373 416 320 416C267 416 224 373 224 320z"/></svg>