<svg xmlns="http://www.w3.org/2000/svg" viewBox="0 0 640 640"><!--! Font Awesome Pro 7.1.0 by @fontawesome - https://fontawesome.com License - https://fontawesome.com/license (Commercial License) Copyright 2025 Fonticons, Inc. --><path fill="currentColor" d="M96 483.6C96 490.6 100.2 495.1 104.1 496.4C186.2 522.6 242 505.2 304.4 484.5L308.7 483.1C371.2 462.2 441.5 438.8 539 467.9C540.5 468.3 542.1 468.1 543.4 467.2C543.8 466.9 544 466.7 544.1 466.6L544.1 156.5C544.1 149.5 539.9 145 536 143.7C453.9 117.5 398.1 134.9 335.7 155.6L331.4 157C268.9 177.9 198.6 201.3 101.1 172.2C99.6 171.8 98 172 96.7 172.9C96.3 173.2 96.1 173.4 96 173.5L96 483.6zM64 483.6L64 173.5C64 150.3 88.1 134.9 110.3 141.5C198 167.7 260 147 322.4 126.2C386.9 104.7 451.8 83.1 545.7 113.1C564.2 119 576 136.9 576 156.4L576 466.5C576 489.7 551.9 505.1 529.8 498.5C442.1 472.3 380 493 317.7 513.8C253.2 535.3 188.3 556.9 94.4 526.9C75.9 521 64.1 503.1 64.1 483.6zM264 320C264 343.4 271.1 363.9 281.9 378.3C292.7 392.7 306.3 400 320 400C333.7 400 347.4 392.6 358.1 378.3C368.8 364 376 343.4 376 320C376 296.6 368.9 276.1 358.1 261.7C347.3 247.3 333.7 240 320 240C306.3 240 292.6 247.4 281.9 261.7C271.2 276 264 296.6 264 320zM320 208C346 208 368.4 222.1 383.7 242.5C399 262.9 408 290.3 408 320C408 349.7 399 377.1 383.7 397.5C368.4 417.9 346 432 320 432C294 432 271.6 417.9 256.3 397.5C241 377.1 232 349.7 232 320C232 290.3 241 262.9 256.3 242.5C271.6 222.1 294 208 320 208z"/></svg>