<svg xmlns="http://www.w3.org/2000/svg" viewBox="0 0 640 640"><!--! Font Awesome Pro 7.1.0 by @fontawesome - https://fontawesome.com License - https://fontawesome.com/license (Commercial License) Copyright 2025 Fonticons, Inc. --><path fill="currentColor" d="M128 160C110.3 160 96 174.3 96 192L96 448C96 465.7 110.3 480 128 480L512 480C529.7 480 544 465.7 544 448L544 192C544 174.3 529.7 160 512 160L128 160zM64 192C64 156.7 92.7 128 128 128L512 128C547.3 128 576 156.7 576 192L576 448C576 483.3 547.3 512 512 512L128 512C92.7 512 64 483.3 64 448L64 192zM368 352L464 352C472.8 352 480 359.2 480 368C480 376.8 472.8 384 464 384L368 384C359.2 384 352 376.8 352 368C352 359.2 359.2 352 368 352zM352 272C352 263.2 359.2 256 368 256L464 256C472.8 256 480 263.2 480 272C480 280.8 472.8 288 464 288L368 288C359.2 288 352 280.8 352 272zM224 216C232.8 216 240 223.2 240 232L240 240L256 240C264.8 240 272 247.2 272 256C272 264.8 264.8 272 256 272L206.3 272C198.4 272 192 278.4 192 286.3C192 293.3 197.1 299.3 204 300.4L249.3 308C271.6 311.7 288 331 288 353.7C288 379.3 267.3 400 241.7 400L240 400L240 408C240 416.8 232.8 424 224 424C215.2 424 208 416.8 208 408L208 400L184 400C175.2 400 168 392.8 168 384C168 375.2 175.2 368 184 368L241.7 368C249.6 368 256 361.6 256 353.7C256 346.7 250.9 340.7 244 339.6L198.7 332C176.4 328.3 160 309 160 286.3C160 260.7 180.7 240 206.3 240L208 240L208 232C208 223.2 215.2 216 224 216z"/></svg>