<svg xmlns="http://www.w3.org/2000/svg" viewBox="0 0 640 640"><!--! Font Awesome Pro 7.1.0 by @fontawesome - https://fontawesome.com License - https://fontawesome.com/license (Commercial License) Copyright 2025 Fonticons, Inc. --><path fill="currentColor" d="M512 160C529.7 160 544 174.3 544 192L544 448C544 465.7 529.7 480 512 480L128 480C110.3 480 96 465.7 96 448L96 192C96 174.3 110.3 160 128 160L512 160zM128 128C92.7 128 64 156.7 64 192L64 448C64 483.3 92.7 512 128 512L512 512C547.3 512 576 483.3 576 448L576 192C576 156.7 547.3 128 512 128L128 128zM160 368C160 376.8 167.2 384 176 384L336 384C344.8 384 352 376.8 352 368C352 359.2 344.8 352 336 352L176 352C167.2 352 160 359.2 160 368zM176 256C167.2 256 160 263.2 160 272C160 280.8 167.2 288 176 288L464 288C472.8 288 480 280.8 480 272C480 263.2 472.8 256 464 256L176 256z"/></svg>