<svg xmlns="http://www.w3.org/2000/svg" viewBox="0 0 640 640"><!--! Font Awesome Pro 7.1.0 by @fontawesome - https://fontawesome.com License - https://fontawesome.com/license (Commercial License) Copyright 2025 Fonticons, Inc. --><path fill="currentColor" d="M128 160C110.3 160 96 174.3 96 192L96 320L208 320C213.6 320 218.8 322.9 221.7 327.8L254 381.7L321.4 233.4C324 227.8 329.5 224.1 335.7 224C341.9 223.9 347.5 227.3 350.3 232.8L393.9 320L464 320C472.8 320 480 327.2 480 336C480 344.8 472.8 352 464 352L384 352C377.9 352 372.4 348.6 369.7 343.2L336.7 277.2L270.6 422.7C268.1 428.1 262.9 431.7 256.9 432.1C250.9 432.5 245.3 429.5 242.3 424.4L198.9 352L96 352L96 448C96 465.7 110.3 480 128 480L512 480C529.7 480 544 465.7 544 448L544 192C544 174.3 529.7 160 512 160L128 160zM64 192C64 156.7 92.7 128 128 128L512 128C547.3 128 576 156.7 576 192L576 448C576 483.3 547.3 512 512 512L128 512C92.7 512 64 483.3 64 448L64 192z"/></svg>