<svg xmlns="http://www.w3.org/2000/svg" viewBox="0 0 640 640"><!--! Font Awesome Pro 7.1.0 by @fontawesome - https://fontawesome.com License - https://fontawesome.com/license (Commercial License) Copyright 2025 Fonticons, Inc. --><path fill="currentColor" d="M192 480C192 397.7 236.3 325.8 302.4 286.9C307.1 296.6 312.9 305.6 319.5 314C262.4 347.3 224 409.2 224 480L224 544L448 544L448 496C448 451.8 412.2 416 368 416L336 416C327.2 416 320 408.8 320 400C320 391.2 327.2 384 336 384L368 384C399.3 384 427.7 396.9 448 417.6L448 367.1C462.7 365.5 476.7 361.6 489.7 356L568.9 440.1C594 466.8 608 502.1 608 538.8L608 560C608 568.8 600.8 576 592 576C583.2 576 576 568.8 576 560L576 538.8C576 510.3 565.1 482.8 545.6 462L480 392.3L480 544L512 544C520.8 544 528 551.2 528 560C528 568.8 520.8 576 512 576L176 576C96.5 576 32 511.5 32 432L32 167.3C32 110.2 78.2 64 135.3 64C184.3 64 224 103.7 224 152.7L224 160C224 213 181 256 128 256L112 256C103.2 256 96 248.8 96 240C96 231.2 103.2 224 112 224L128 224C163.3 224 192 195.3 192 160L192 152.7C192 121.4 166.6 96 135.3 96C95.9 96 64 127.9 64 167.3L64 432C64 493.9 114.1 544 176 544L192 544L192 480zM512 224L512 176C512 196.8 498.8 214.4 480.4 221.1C475.7 222.8 472 227 472 232C472 254.1 454.1 272 432 272C409.9 272 392 254.1 392 232C392 227 388.3 222.8 383.6 221.1C365.1 214.4 352 196.7 352 176L352 224C352 268.2 387.8 304 432 304C476.2 304 512 268.2 512 224zM368 128L496 128C481.4 108.6 458.2 96 432 96C405.8 96 382.6 108.6 368 128zM432 336C375.6 336 328.9 294.3 321.1 240L320 240C284.7 240 256 211.3 256 176C256 140.7 284.7 112 320 112L340.1 112C360.3 83 393.9 64 432 64C470.1 64 503.7 83 523.9 112L544 112C579.3 112 608 140.7 608 176C608 211.3 579.3 240 544 240L542.9 240C535.1 294.3 488.5 336 432 336zM576 176C576 158.3 561.7 144 544 144L539.4 144C542.4 154.1 544 164.9 544 176L544 208C561.7 208 576 193.7 576 176zM320 208L320 176C320 164.9 321.6 154.1 324.6 144L320 144C302.3 144 288 158.3 288 176C288 193.7 302.3 208 320 208zM400 192C408.8 192 416 184.8 416 176C416 167.2 408.8 160 400 160C391.2 160 384 167.2 384 176C384 184.8 391.2 192 400 192zM480 176C480 167.2 472.8 160 464 160C455.2 160 448 167.2 448 176C448 184.8 455.2 192 464 192C472.8 192 480 184.8 480 176z"/></svg>