<svg xmlns="http://www.w3.org/2000/svg" viewBox="0 0 640 640"><!--! Font Awesome Pro 7.1.0 by @fontawesome - https://fontawesome.com License - https://fontawesome.com/license (Commercial License) Copyright 2025 Fonticons, Inc. --><path fill="currentColor" d="M308.7 36.7C314.9 30.5 325.1 30.5 331.3 36.7L411.3 116.7C414 119.4 415.6 123 415.9 126.8L447.9 542.8L448 544L464 544C472.8 544 480 551.2 480 560C480 568.8 472.8 576 464 576L176 576C167.2 576 160 568.8 160 560C160 551.2 167.2 544 176 544L192 544L192.1 542.8L224.1 126.8C224.4 123 226 119.4 228.7 116.7L308.7 36.7zM384.5 135.1L320 70.6L255.5 135.1L224 544L416 544L384.5 135.1zM288 352L352 352C360.8 352 368 359.2 368 368C368 376.8 360.8 384 352 384L288 384C279.2 384 272 376.8 272 368C272 359.2 279.2 352 288 352z"/></svg>