<svg xmlns="http://www.w3.org/2000/svg" viewBox="0 0 640 640"><!--! Font Awesome Pro 7.1.0 by @fontawesome - https://fontawesome.com License - https://fontawesome.com/license (Commercial License) Copyright 2025 Fonticons, Inc. --><path fill="currentColor" d="M96 320C96 443.7 196.3 544 320 544C372.4 544 420.6 526 458.7 495.9C344.4 492.7 248 397.2 248 280C248 203.4 287.9 136.1 348 97.7C338.8 96.6 329.5 96 320 96C196.3 96 96 196.3 96 320zM64 320C64 178.6 178.6 64 320 64C339.4 64 358.4 66.2 376.7 70.3C386.6 72.5 394 80.8 395.2 90.8C396.4 100.8 391.2 110.6 382.1 115.2C321.5 145.4 280 207.9 280 280C280 386.1 373.4 471.8 478.8 463.4C488.9 462.6 498.4 468.2 502.6 477.5C506.8 486.8 504.6 497.6 497.3 504.6C451.3 548.8 388.8 576 320 576C178.6 576 64 461.4 64 320zM480 192L480 256L544 256C552.8 256 560 263.2 560 272C560 280.8 552.8 288 544 288L480 288L480 352C480 360.8 472.8 368 464 368C455.2 368 448 360.8 448 352L448 288L384 288C375.2 288 368 280.8 368 272C368 263.2 375.2 256 384 256L448 256L448 192C448 183.2 455.2 176 464 176C472.8 176 480 183.2 480 192z"/></svg>