<svg xmlns="http://www.w3.org/2000/svg" viewBox="0 0 640 640"><!--! Font Awesome Pro 7.1.0 by @fontawesome - https://fontawesome.com License - https://fontawesome.com/license (Commercial License) Copyright 2025 Fonticons, Inc. --><path fill="currentColor" d="M528 48L528 80L560 80C568.8 80 576 87.2 576 96C576 104.8 568.8 112 560 112L528 112L528 144C528 152.8 520.8 160 512 160C503.2 160 496 152.8 496 144L496 112L464 112C455.2 112 448 104.8 448 96C448 87.2 455.2 80 464 80L496 80L496 48C496 39.2 503.2 32 512 32C520.8 32 528 39.2 528 48zM288 160C182 160 96 246 96 352C96 458 182 544 288 544C328.9 544 366.9 531.2 398.1 509.4C299 501.3 221 418.3 221 317C221 252.6 252.6 195.5 301.1 160.4C296.8 160.1 292.4 160 288 160zM64 352C64 228.3 164.3 128 288 128C305 128 321.6 129.9 337.6 133.5C346.3 135.5 352.8 142.7 353.8 151.5C354.8 160.3 350.3 168.8 342.3 172.8C289.3 199.2 253 253.9 253 317C253 405.9 325.1 478 414 478C418.4 478 422.7 477.8 426.9 477.5C435.7 476.8 444.1 481.7 447.7 489.8C451.3 497.9 449.5 507.4 443.1 513.6C402.9 552.2 348.2 576 288 576C164.3 576 64 475.7 64 352zM448 208C456.8 208 464 215.2 464 224L464 288L528 288C536.8 288 544 295.2 544 304C544 312.8 536.8 320 528 320L464 320L464 384C464 392.8 456.8 400 448 400C439.2 400 432 392.8 432 384L432 320L368 320C359.2 320 352 312.8 352 304C352 295.2 359.2 288 368 288L432 288L432 224C432 215.2 439.2 208 448 208z"/></svg>