<svg xmlns="http://www.w3.org/2000/svg" viewBox="0 0 640 640"><!--! Font Awesome Pro 7.1.0 by @fontawesome - https://fontawesome.com License - https://fontawesome.com/license (Commercial License) Copyright 2025 Fonticons, Inc. --><path fill="currentColor" d="M416 576C391 576 366.9 572.4 344.1 565.8C353.2 558.1 361.1 549 367.4 538.8C383 542.3 399.3 544.1 416 544.1C468.4 544.1 516.6 526.1 554.7 496C440.4 492.8 344 397.3 344 280.1C344 203.5 383.9 136.2 444 97.8C434.8 96.7 425.5 96.1 416 96.1C297.7 96.1 200.8 187.9 192.6 304.1L192 304.1C181 304.1 170.4 305.5 160.3 308.1C166.6 172.3 278.7 64.1 416 64.1C435.4 64.1 454.4 66.3 472.7 70.4C482.6 72.6 490 80.9 491.2 90.9C492.4 100.9 487.2 110.7 478.1 115.3C417.5 145.5 376 208 376 280.1C376 386.2 469.4 471.9 574.8 463.5C584.9 462.7 594.4 468.3 598.6 477.6C602.8 486.9 600.6 497.7 593.3 504.7C547.3 548.8 484.8 576 416 576zM192 352C230.7 352 263 379.5 270.4 416C270.9 416 271.5 416 272 416C307.3 416 336 444.7 336 480C336 515.3 307.3 544 272 544L104 544C64.2 544 32 511.8 32 472C32 432.2 64.2 400 104 400C108.8 400 113.5 400.5 118.1 401.4C130.1 372.4 158.7 352 192 352zM144.6 424.3C143.8 429.3 140.7 433.7 136.1 436C131.5 438.3 126.2 438.4 121.7 436.1C116.4 433.5 110.4 432 104 432C81.9 432 64 449.9 64 472C64 494.1 81.9 512 104 512L272 512C289.7 512 304 497.7 304 480C304 462.3 289.7 448 272 448C268.2 448 264.6 448.6 261.3 449.8C256.3 451.6 250.7 450.8 246.4 447.6C242.1 444.4 239.7 439.4 239.9 434.1C239.9 433.4 239.9 432.7 239.9 432C239.9 405.5 218.4 384 191.9 384C168 384 148.2 401.5 144.5 424.3z"/></svg>