<svg xmlns="http://www.w3.org/2000/svg" viewBox="0 0 640 640"><!--! Font Awesome Pro 7.1.0 by @fontawesome - https://fontawesome.com License - https://fontawesome.com/license (Commercial License) Copyright 2025 Fonticons, Inc. --><path fill="currentColor" d="M320 112C320 103.2 327.2 96 336 96L416 96C423.5 96 430 101.2 431.6 108.6L441.9 155.8L501.9 135.8C522.6 128.9 544 144.3 544 166.2L544 233.8C544 255.6 522.6 271.1 501.9 264.2L462.6 251.1L465.3 263.7C470.3 286.7 464.9 310.6 450.7 329.3L386.3 413.5C369.7 435.3 343.8 448 316.4 448L247.6 448C247.8 450.6 248 453.3 248 456C248 504.6 208.6 544 160 544C111.4 544 72 504.6 72 456C72 453.3 72.1 450.6 72.4 448L64 448C46.3 448 32 433.7 32 416L32 384C32 313.3 89.3 256 160 256L224 256C241.7 256 256 270.3 256 288L256 360C256 367.7 257.6 375.1 260.4 381.8C268.9 401.9 288.8 416 312 416L316.4 416C333.8 416 350.3 407.9 360.9 394L425.3 309.8C433.9 298.6 437.1 284.2 434.1 270.4L403.1 128L336 128C327.2 128 320 120.8 320 112zM454.7 214.7L512 233.8L512 166.2L448.7 187.3L454.7 214.7zM244.1 416C241 412.2 238.2 408.2 235.7 403.9C228.2 391 224 376 224 360L224 288L160 288C107 288 64 331 64 384L64 416L244.1 416zM112 192L240 192C248.8 192 256 199.2 256 208C256 216.8 248.8 224 240 224L112 224C103.2 224 96 216.8 96 208C96 199.2 103.2 192 112 192zM104 456C104 486.9 129.1 512 160 512C190.9 512 216 486.9 216 456C216 453.3 215.8 450.6 215.4 448L104.6 448C104.2 450.6 104 453.3 104 456zM568 456C568 425.1 542.9 400 512 400C481.1 400 456 425.1 456 456C456 486.9 481.1 512 512 512C542.9 512 568 486.9 568 456zM424 456C424 407.4 463.4 368 512 368C560.6 368 600 407.4 600 456C600 504.6 560.6 544 512 544C463.4 544 424 504.6 424 456z"/></svg>