<svg xmlns="http://www.w3.org/2000/svg" viewBox="0 0 640 640"><!--! Font Awesome Pro 7.1.0 by @fontawesome - https://fontawesome.com License - https://fontawesome.com/license (Commercial License) Copyright 2025 Fonticons, Inc. --><path fill="currentColor" d="M528 112.9C532.9 108.5 533.3 100.9 528.9 96C524.5 91.1 516.9 90.7 512 95.1L368.2 224L320.2 224L490.6 71.2C508.7 55 536.5 56.5 552.8 74.6C569.1 92.7 567.5 120.5 549.4 136.7L452.1 224L404.1 224L528 112.9zM128 288L128 320C128 389.4 163.3 442.2 230.6 466.1C240.3 469.6 247.8 477.5 250.7 487.5C253.6 497.5 251.4 508.2 244.9 516.2C238.3 524.5 233 533.9 229.5 544L410.6 544C407 533.8 401.8 524.5 395.2 516.2C388.8 508.1 386.6 497.4 389.4 487.5C392.2 477.6 399.7 469.6 409.5 466.1C476.7 442.2 512 389.4 512 320L512 288L128 288zM576 272C576 280.8 568.8 288 560 288L544 288L544 320C544 391.6 511.3 450.1 450.2 483C440.8 488 430.8 492.5 420.1 496.3C426.9 504.8 432.6 514.1 437 524.2C442 535.4 445.4 547.5 447 560.1C448.1 568.9 440.8 576.1 432 576.1L208 576.1C199.2 576.1 191.9 568.9 193 560.1C194.6 547.5 198 535.4 203 524.2C207.5 514.2 213.2 504.8 219.9 496.3C209.2 492.5 199.2 488.1 189.8 483C128.7 450.1 96 391.6 96 320L96 288L80 288C71.2 288 64 280.8 64 272C64 263.2 71.2 256 80 256L560 256C568.8 256 576 263.2 576 272z"/></svg>