<svg xmlns="http://www.w3.org/2000/svg" viewBox="0 0 640 640"><!--! Font Awesome Pro 7.1.0 by @fontawesome - https://fontawesome.com License - https://fontawesome.com/license (Commercial License) Copyright 2025 Fonticons, Inc. --><path fill="currentColor" d="M77.2 224L301.4 131.7C307.3 129.3 313.6 128 320 128C326.4 128 332.7 129.3 338.6 131.7L562.8 224L338.6 316.3C332.7 318.7 326.4 320 320 320C313.6 320 307.3 318.7 301.4 316.3L77.2 224zM64 253.2L128 279.5L128 448C128 501 214 544 320 544C426 544 512 501 512 448L512 279.5L593.2 246.1C602.2 242.4 608 233.7 608 224C608 214.3 602.2 205.6 593.2 201.9L350.8 102.1C341 98.1 330.6 96 320 96C309.4 96 299 98.1 289.2 102.1L46.8 201.9C37.8 205.6 32 214.3 32 224L32 528C32 536.8 39.2 544 48 544C56.8 544 64 536.8 64 528L64 253.2zM160 448L160 292.7L289.2 345.9C299 349.9 309.4 352 320 352C330.6 352 341 349.9 350.8 345.9L480 292.7L480 448C480 455.9 472.8 471.6 441.5 487.3C412.1 502 369.2 512 320 512C270.8 512 228 502 198.5 487.3C167.2 471.6 160 455.9 160 448z"/></svg>