<svg xmlns="http://www.w3.org/2000/svg" viewBox="0 0 640 640"><!--! Font Awesome Pro 7.1.0 by @fontawesome - https://fontawesome.com License - https://fontawesome.com/license (Commercial License) Copyright 2025 Fonticons, Inc. --><path fill="currentColor" d="M576 424C584.8 424 592 431.2 592 440L592 464L616 464C624.8 464 632 471.2 632 480C632 488.8 624.8 496 616 496L592 496L592 560L616 560C624.8 560 632 567.2 632 576C632 584.8 624.8 592 616 592L592 592L592 616L591.7 619.2C590.2 626.5 583.7 632 576 632C568.3 632 561.8 626.5 560.3 619.2L560 616L560 592L496 592L496 616L495.7 619.2C494.2 626.5 487.7 632 480 632C472.3 632 465.8 626.5 464.3 619.2L464 616L464 592L440 592C431.2 592 424 584.8 424 576C424 567.2 431.2 560 440 560L464 560L464 496L440 496C431.2 496 424 488.8 424 480C424 471.2 431.2 464 440 464L464 464L464 440C464 431.2 471.2 424 480 424C488.8 424 496 431.2 496 440L496 464L560 464L560 440C560 431.2 567.2 424 576 424zM183.1 82.6C189.4 78.2 197.7 79.1 203 84.3L205.1 86.8L237.1 134.8L238.7 137.9C240 141.1 240.2 144.6 239.4 148L225.9 202L272.1 240.5L272.1 240C272.1 219.1 285.5 201.4 304.1 194.8L304.1 127.9L304.4 124.7C305.9 117.4 312.4 112 320.1 111.9C327.8 111.9 334.3 117.4 335.8 124.7L336.1 127.9L336.1 194.7C354.7 201.3 368.1 219 368.1 239.9L368.1 240.4L414.3 201.9L400.8 147.9C400 144.5 400.2 141 401.5 137.8L403.1 134.7L435.1 86.7L437.2 84.2C442.5 79 450.8 78.1 457 82.5C463.3 86.9 465.4 95.2 462.6 102.2L461.1 105.1L433.1 147L447.3 204L447.7 206.3C448.2 210.9 446.7 215.6 443.6 219L441.9 220.6L390.2 263.7L532.9 279.5L540.8 280.7C579.6 288.7 608 323 608 363.4L607.6 372C607.2 375.8 606.5 379.5 605.6 383.1C598.6 379.4 590.8 377 582.5 376.2L576 376C575.5 376 574.9 376 574.4 376.1C575.4 372.1 576 367.9 576 363.6C576 336.9 555.9 314.5 529.3 311.5L368 293.6L368 315.4L457.2 380.3C446.5 384.4 437.1 391.3 430.1 400.1L384.2 366.7L421.8 413.6C420.9 415.5 420.2 417.4 419.5 419.4C410.9 422.3 403.1 427.1 396.5 433.1L368 397.6L368 464C368 490.5 346.5 512 320 512C293.5 512 272 490.5 272 464L272 397.5L239.8 437.8L239.8 479.9C239.8 481.2 239.7 482.5 239.4 483.7L238.1 487.3L206.1 551.3L204.4 554C199.8 559.9 191.6 561.8 184.9 558.3C178.1 554.7 175 546.8 177 539.5L178.2 536.4L208.5 475.9L208.5 431.8L208.7 429C209.2 426.3 210.3 423.7 212 421.5L256 366.5L166.4 431.7L160.9 435.4C147.6 443.5 132.3 447.9 116.7 447.9L108.1 447.5C68.4 443.5 36.7 411.9 32.7 372.1L32.3 363.5C32.3 323.2 60.8 288.9 99.5 280.8L107.4 279.6L250.2 263.8L198.4 220.7C193.6 216.7 191.5 210.2 193 204L207.2 147L179.2 105.1L177.7 102.2C174.9 95.3 177 87 183.3 82.5zM496 560L560 560L560 496L496 496L496 560zM320 224C311.2 224 304 231.2 304 240L304 464C304 472.8 311.2 480 320 480C328.8 480 336 472.8 336 464L336 240C336 231.2 328.8 224 320 224zM110.6 311.5C84.1 314.5 64 336.9 63.9 363.6C63.9 392.5 87.4 416 116.4 416C127.5 416 138.3 412.5 147.3 406L271.9 315.3L271.9 293.5L110.5 311.4z"/></svg>