<svg xmlns="http://www.w3.org/2000/svg" viewBox="0 0 640 640"><!--! Font Awesome Pro 7.1.0 by @fontawesome - https://fontawesome.com License - https://fontawesome.com/license (Commercial License) Copyright 2025 Fonticons, Inc. --><path fill="currentColor" d="M437.1 84.3C442.4 79.1 450.7 78.2 456.9 82.6C463.2 87 465.3 95.3 462.5 102.3L461 105.2L433 147.1L447.2 204.1L447.6 206.4C448.1 211 446.6 215.7 443.5 219.1L441.8 220.7L390.1 263.8L532.8 279.6L540.7 280.8C579.5 288.8 607.9 323.1 607.9 363.5L607.5 372.1C603.5 411.8 571.8 443.4 532.1 447.5L523.5 447.9C507.9 447.9 492.6 443.6 479.3 435.4L473.8 431.7L384.2 366.5L428.2 421.5C429.9 423.7 431.1 426.3 431.5 429L431.7 431.8L431.7 475.9L461.9 536.4L463.1 539.5C465.1 546.8 461.9 554.7 455.2 558.3C448.4 561.9 440.3 559.9 435.7 554L434 551.3L402 487.3C400.9 485 400.3 482.4 400.2 479.9L400.2 437.8L368 397.5L368 463.9C368 490.4 346.5 511.9 320 511.9C293.5 511.9 272 490.4 272 463.9L272 397.4L239.8 437.7L239.8 479.8C239.8 481.1 239.7 482.4 239.4 483.6L238.1 487.2L206.1 551.2L204.4 553.9C199.8 559.8 191.6 561.8 184.9 558.2C178.1 554.6 175 546.6 177 539.4L178.2 536.3L208.5 475.8L208.5 431.7L208.7 428.9C209.2 426.2 210.3 423.5 212 421.4L256 366.4L166.4 431.6L160.9 435.3C147.6 443.4 132.3 447.8 116.7 447.8L108.1 447.4C68.4 443.4 36.7 411.8 32.7 372L32 363.6C32 323.3 60.5 289 99.2 280.9L107.1 279.7L249.9 263.9L198.1 220.8C193.3 216.8 191.2 210.3 192.7 204.1L206.9 147.1L178.9 105.2L177.4 102.3C174.6 95.4 176.7 87.1 183 82.6C189.3 78.2 197.6 79 202.9 84.3L205 86.8L237 134.8L238.6 137.9C239.9 141.1 240.1 144.7 239.3 148.1L225.8 202.1L272 240.6L272 240.1C272 219.2 285.4 201.5 304 194.9L304 128L304.3 124.8C305.8 117.5 312.3 112.1 320 112C327.7 112 334.2 117.5 335.7 124.8L336 128L336 194.9C354.6 201.5 368 219.2 368 240.1L368 240.6L414.2 202.1L400.7 148.1C399.9 144.7 400.1 141.1 401.4 137.9L403 134.8L435 86.8L437.1 84.3zM320 224C311.2 224 304 231.2 304 240L304 464C304 472.8 311.2 480 320 480C328.8 480 336 472.8 336 464L336 240C336 231.2 328.8 224 320 224zM110.7 311.5C84.2 314.5 64 336.9 64 363.6C64 392.5 87.5 416 116.5 416C127.6 416 138.4 412.5 147.4 406L272 315.3L272 293.5L110.6 311.4zM368 315.4L492.6 406C501.6 412.5 512.4 416 523.5 416C552.5 416 576 392.5 576 363.6C576 336.9 555.9 314.5 529.3 311.5L368 293.6L368 315.4z"/></svg>