<svg xmlns="http://www.w3.org/2000/svg" viewBox="0 0 640 640"><!--! Font Awesome Pro 7.1.0 by @fontawesome - https://fontawesome.com License - https://fontawesome.com/license (Commercial License) Copyright 2025 Fonticons, Inc. --><path fill="currentColor" d="M320 73.7L452.5 184.5C469.9 199.1 480 220.6 480 243.3C480 285.6 445.7 320 403.3 320L236.6 320C194.3 320 159.9 285.7 159.9 243.3C159.9 220.6 170 199 187.4 184.5L320 73.7zM128 243.3C128 273.2 140.1 300.3 159.7 320L64 320L64 272C64 263.2 56.8 256 48 256C39.2 256 32 263.2 32 272L32 512C32 547.3 60.7 576 96 576L544 576C579.3 576 608 547.3 608 512L608 276C608 265 599 256 588 256C577 256 568 265 568 276L568 320L480.3 320C499.9 300.3 512 273.2 512 243.3C512 211.1 497.7 180.6 473 159.9L330.3 40.6C324.4 35.6 315.7 35.6 309.8 40.6L167 160C142.3 180.6 128 211.2 128 243.4zM568 352L576 352L576 512C576 529.7 561.7 544 544 544L384 544L384 480C384 444.7 355.3 416 320 416C284.7 416 256 444.7 256 480L256 544L96 544C78.3 544 64 529.7 64 512L64 352L568 352zM288 480C288 462.3 302.3 448 320 448C337.7 448 352 462.3 352 480L352 544L288 544L288 480z"/></svg>