<svg xmlns="http://www.w3.org/2000/svg" viewBox="0 0 640 640"><!--! Font Awesome Pro 7.1.0 by @fontawesome - https://fontawesome.com License - https://fontawesome.com/license (Commercial License) Copyright 2025 Fonticons, Inc. --><path fill="currentColor" d="M288 112C288 103.2 295.2 96 304 96L368 96C374.4 96 380.2 99.9 382.7 105.8L399.5 145.7L421.4 131.8C425.3 129.3 429.7 128 434.3 128L496 128C504.8 128 512 135.2 512 144L512 208C512 216.8 504.8 224 496 224L432.5 224L461.4 292.7C472.4 289.6 484 288 495.9 288C566.6 288 623.9 345.3 623.9 416C623.9 486.7 566.6 544 495.9 544C425.2 544 367.9 486.7 367.9 416C367.9 368.6 393.6 327.3 431.9 305.1L417.2 270.3C369.2 293.6 336 343 336 400L336 416C336 424.8 328.8 432 320 432L271 432C263.1 495.1 209.3 544 144 544C73.3 544 16 486.7 16 416C16 345.3 73.3 288 144 288C209.3 288 263.1 336.9 271 400L303.2 400C295.2 319.1 227 256 144 256L80 256C71.2 256 64 248.8 64 240C64 231.2 71.2 224 80 224L144 224C178.1 224 210.2 232.9 238 248.5L247.5 242.5L372.3 163.1L357.5 128L304.1 128C295.3 128 288.1 120.8 288.1 112zM384.8 193L266.6 268.2C287.8 285.8 305.2 307.9 317.2 333C333.9 292.4 365.4 259.5 404.9 240.8L384.8 193zM419.1 192L480.1 192L480.1 160L436.8 160L412.3 175.6L419.2 192zM128 400L238.7 400C231.1 354.6 191.6 320 144 320C91 320 48 363 48 416C48 469 91 512 144 512C191.6 512 231.1 477.4 238.7 432L128 432C119.2 432 112 424.8 112 416C112 407.2 119.2 400 128 400zM481.3 422.2L444.5 335C417.7 352 400 382 400 416C400 469 443 512 496 512C549 512 592 469 592 416C592 363 549 320 496 320C488.4 320 481.1 320.9 474 322.5L510.7 409.8C514.1 417.9 510.3 427.3 502.2 430.8C494.1 434.3 484.7 430.4 481.2 422.3z"/></svg>