<svg xmlns="http://www.w3.org/2000/svg" viewBox="0 0 640 640"><!--! Font Awesome Pro 7.1.0 by @fontawesome - https://fontawesome.com License - https://fontawesome.com/license (Commercial License) Copyright 2025 Fonticons, Inc. --><path fill="currentColor" d="M320.3 64C285 64 256.3 92.7 256.3 128L256.3 182.1C268.5 187.4 279.6 195.8 288.3 207.5L288.3 128C288.3 110.3 302.6 96 320.3 96L416.3 96C434 96 448.3 110.3 448.3 128L448.3 176C448.3 184.8 455.5 192 464.3 192L544.3 192C562 192 576.3 206.3 576.3 224L576.3 512C576.3 529.7 562 544 544.3 544L472.7 544C472.7 555.1 470.3 566 465.9 576L544.3 576C579.6 576 608.3 547.3 608.3 512L608.3 224C608.3 188.7 579.6 160 544.3 160L544.3 80C544.3 71.2 537.1 64 528.3 64C519.5 64 512.3 71.2 512.3 80L512.3 160L480.3 160L480.3 128C480.3 92.7 451.6 64 416.3 64L320.3 64zM356.3 152C349.7 152 344.3 157.4 344.3 164L344.3 188C344.3 194.6 349.7 200 356.3 200L380.3 200C386.9 200 392.3 194.6 392.3 188L392.3 164C392.3 157.4 386.9 152 380.3 152L356.3 152zM344.3 260L344.3 284C344.3 290.6 349.7 296 356.3 296L380.3 296C386.9 296 392.3 290.6 392.3 284L392.3 260C392.3 253.4 386.9 248 380.3 248L356.3 248C349.7 248 344.3 253.4 344.3 260zM484.3 248C477.7 248 472.3 253.4 472.3 260L472.3 284C472.3 290.6 477.7 296 484.3 296L508.3 296C514.9 296 520.3 290.6 520.3 284L520.3 260C520.3 253.4 514.9 248 508.3 248L484.3 248zM472.3 356L472.3 380C472.3 386.6 477.7 392 484.3 392L508.3 392C514.9 392 520.3 386.6 520.3 380L520.3 356C520.3 349.4 514.9 344 508.3 344L484.3 344C477.7 344 472.3 349.4 472.3 356zM224.3 255.5L290 368L240.3 368C236.1 368 232 369.7 229 372.7L192.3 409.4L155.8 372.9L224.3 255.5zM56 544L139.1 401.5L180.9 443.3C187.1 449.5 197.3 449.5 203.5 443.3L246.8 400L308.5 400L392.5 544L55.9 544zM196.7 239.4L28.4 527.9C16 549.2 31.4 576 56 576L392.6 576C417.3 576 432.7 549.2 420.2 527.9L252 239.4C239.7 218.2 209.1 218.2 196.7 239.4z"/></svg>