<svg xmlns="http://www.w3.org/2000/svg" viewBox="0 0 640 640"><!--! Font Awesome Pro 7.1.0 by @fontawesome - https://fontawesome.com License - https://fontawesome.com/license (Commercial License) Copyright 2025 Fonticons, Inc. --><path fill="currentColor" d="M320.5 64C335.2 64 348.7 72.1 355.7 85L571.7 485C578.4 497.4 578.1 512.4 570.9 524.5C563.7 536.6 550.6 544 536.6 544L104.6 544C90.5 544 77.5 536.6 70.3 524.5C63.1 512.4 62.8 497.4 69.5 485L285.5 85L288.4 80.4C295.7 70.2 307.6 64 320.5 64zM97.5 500.2C96.2 502.7 96.2 505.7 97.7 508.1L99 509.7C100.5 511.1 102.5 512 104.6 512L536.6 512C539.4 512 542 510.5 543.4 508.1L544.2 506.2C544.6 504.9 544.6 503.5 544.3 502.2L543.6 500.3L446.3 320.1L328.6 320.1L285.4 377.7C282.4 381.7 277.8 384 272.8 384.1C269.1 384.2 265.5 382.9 262.6 380.7L260 378L202.3 305.9L97.5 500.2zM320.5 96C318.1 96 315.8 97.1 314.3 98.9L313 101L218.9 275.3L221 278L272.1 341.8L307.7 294.4L310.3 291.7C313.1 289.3 316.7 288 320.5 288L428.9 288L327.5 100.2C326.1 97.6 323.4 96 320.5 96z"/></svg>