<svg xmlns="http://www.w3.org/2000/svg" viewBox="0 0 640 640"><!--! Font Awesome Pro 7.1.0 by @fontawesome - https://fontawesome.com License - https://fontawesome.com/license (Commercial License) Copyright 2025 Fonticons, Inc. --><path fill="currentColor" d="M261.3 96.3C273 97.9 283.4 105 289.2 115.5L491.7 488.5C498 500.1 497.7 514.2 490.9 525.6L488.1 529.6C482.1 537.3 473.2 542.3 463.6 543.6L458.7 543.9L53.7 543.9L48.8 543.6C39.1 542.3 30.3 537.3 24.3 529.6L21.5 525.6C14.7 514.2 14.4 500.1 20.8 488.5L223.3 115.5L226.1 111.2C233.1 101.7 244.3 95.9 256.3 95.9L261.4 96.2zM422.3 160.3C432.3 161.7 441.1 167.7 446.1 176.6L621.6 496.6L623.4 500.4C626.9 509.5 626.1 519.8 621.1 528.3L618.7 531.8C613.5 538.4 606 542.6 597.7 543.7L593.5 544L535.6 544C540.5 533.9 543.4 523 544.1 512L593.5 512L593.2 511.3L418.1 192L417.5 193L401.7 221.8L383.5 188.4L390 176.6L392.3 172.9C398.3 164.8 407.8 159.9 418 159.9L422.3 160.2zM48.9 503.9C48 505.6 48 507.6 49 509.3L49.9 510.4C50.9 511.4 52.3 512 53.7 512L458.7 512C460.6 512 462.4 511 463.4 509.3L464 508C464.4 506.6 464.2 505.1 463.6 503.9L363.8 320L278.2 320L222.7 367.8C216.4 373.2 206.9 372.9 201 367L150.4 316.8L48.9 503.9zM256.2 128C254.6 128 253 128.7 252 129.9L250.9 131.6L166.3 287.4L213 333.8L261.8 291.8L264.1 290.1C266.5 288.7 269.3 287.9 272.2 287.9L346.3 287.9L261 130.8C260.3 129.5 259.1 128.5 257.7 128.1L256.2 127.9z"/></svg>