<svg xmlns="http://www.w3.org/2000/svg" viewBox="0 0 640 640"><!--! Font Awesome Pro 7.1.0 by @fontawesome - https://fontawesome.com License - https://fontawesome.com/license (Commercial License) Copyright 2025 Fonticons, Inc. --><path fill="currentColor" d="M288 64C302.7 64 316.2 72.1 323.2 85L539.2 485C545.9 497.4 545.6 512.4 538.4 524.5L535.4 528.8C529 537 519.5 542.3 509.2 543.6L504 543.9L72 543.9L66.8 543.6C56.5 542.2 47.1 536.9 40.6 528.8L37.6 524.5C31.3 513.9 30.2 501.1 34.6 489.8L36.8 485L252.8 85L255.7 80.4C263.2 70.2 275.2 64 288 64zM65 500.2C63.7 502.7 63.7 505.7 65.2 508.1L66.5 509.7C68 511.1 70 512 72.1 512L504.1 512C506.9 512 509.5 510.5 511 508.1C512.4 505.7 512.5 502.7 511.2 500.2L413.8 320L296 320L252.8 377.6C249.8 381.6 245.2 383.9 240.2 384C236.5 384.1 232.9 382.8 230 380.6L227.5 378L169.9 306L65 500.2zM288 96C285.6 96 283.4 97.1 281.9 98.9L280.6 101L186.4 275.3L188.5 277.9L239.6 341.7L275.2 294.3L277.8 291.6C280.6 289.2 284.3 287.9 288 287.9L396.5 287.9L295.1 100.1C293.7 97.5 291 95.9 288 95.9zM528 224C483.8 224 448 188.2 448 144C448 99.8 483.8 64 528 64C572.2 64 608 99.8 608 144C608 188.2 572.2 224 528 224zM528 96C501.5 96 480 117.5 480 144C480 170.5 501.5 192 528 192C554.5 192 576 170.5 576 144C576 117.5 554.5 96 528 96z"/></svg>