<svg xmlns="http://www.w3.org/2000/svg" viewBox="0 0 640 640"><!--! Font Awesome Pro 7.1.0 by @fontawesome - https://fontawesome.com License - https://fontawesome.com/license (Commercial License) Copyright 2025 Fonticons, Inc. --><path fill="currentColor" d="M443.4 100.6C449.6 97.6 456.6 96 464 96C490.5 96 512 117.5 512 144C512 153.6 509.2 162.6 504.3 170.1C491.8 164.6 478.3 161.2 464 160.3L464 160C464 137.6 456.3 117 443.4 100.6zM531.6 186.8C539.4 174.4 544 159.7 544 144C544 99.8 508.2 64 464 64C447.1 64 431.3 69.3 418.4 78.3C403.8 69.3 386.5 64 368 64C314.9 64 272 107.4 272 160.3C272 186 282.2 210.1 299.5 227.8C219.8 244.6 160 315.3 160 400C160 418 166 434.6 176 448L128 448C92.7 448 64 476.7 64 512C64 547.3 92.7 576 128 576L528 576C536.8 576 544 568.8 544 560C544 551.2 536.8 544 528 544L128 544C110.3 544 96 529.7 96 512C96 494.3 110.3 480 128 480L420.1 480C444.3 480 464 460.3 464 436.1C464 417.2 451.9 400.4 434 394.5L421.2 390.2L442.9 336L528.1 336C554.6 336 576.1 314.5 576.1 288L576.1 280C576.1 242.4 558.8 208.8 531.7 186.8zM240 448C213.5 448 192 426.5 192 400C192 320.5 256.5 256 336 256L352 256C359.7 256 366.4 250.5 367.7 242.9C369 235.3 364.8 227.8 357.6 225.1L345.5 220.6C320.6 211.3 304 187.2 304 160.4C304 125 332.7 96.1 368 96.1C403.3 96.1 432 124.8 432 160.1L432 176.1C432 184.9 439.2 192.1 448 192.1L456 192.1C504.6 192.1 544 231.5 544 280.1L544 288.1C544 296.9 536.8 304.1 528 304.1L432 304.1C425.5 304.1 419.6 308.1 417.1 314.2L390.7 380.2L357 369C348.6 366.2 339.6 370.7 336.8 379.1C334 387.5 338.5 396.5 346.9 399.3L423.8 424.9C428.7 426.5 431.9 431.1 431.9 436.2C431.9 442.8 426.6 448.1 420 448.1L240 448zM400 144C400 135.2 392.8 128 384 128C375.2 128 368 135.2 368 144L368 160L352 160C343.2 160 336 167.2 336 176C336 184.8 343.2 192 352 192L384 192C392.8 192 400 184.8 400 176L400 144zM496 252C496 241 487 232 476 232C465 232 456 241 456 252C456 263 465 272 476 272C487 272 496 263 496 252z"/></svg>