<svg xmlns="http://www.w3.org/2000/svg" viewBox="0 0 640 640"><!--! Font Awesome Pro 7.1.0 by @fontawesome - https://fontawesome.com License - https://fontawesome.com/license (Commercial License) Copyright 2025 Fonticons, Inc. --><path fill="currentColor" d="M192 96C174.3 96 160 110.3 160 128L160 512C160 529.7 174.3 544 192 544L448 544C465.7 544 480 529.7 480 512L480 128C480 110.3 465.7 96 448 96L192 96zM128 128C128 92.7 156.7 64 192 64L448 64C483.3 64 512 92.7 512 128L512 512C512 547.3 483.3 576 448 576L192 576C156.7 576 128 547.3 128 512L128 128zM392 408C392 368.2 359.8 336 320 336C280.2 336 248 368.2 248 408C248 447.8 280.2 480 320 480C359.8 480 392 447.8 392 408zM216 408C216 350.6 262.6 304 320 304C377.4 304 424 350.6 424 408C424 465.4 377.4 512 320 512C262.6 512 216 465.4 216 408zM296 408C296 394.7 306.7 384 320 384C333.3 384 344 394.7 344 408C344 421.3 333.3 432 320 432C306.7 432 296 421.3 296 408zM224 160L224 224L416 224L416 160L224 160zM192 160C192 142.3 206.3 128 224 128L416 128C433.7 128 448 142.3 448 160L448 224C448 241.7 433.7 256 416 256L224 256C206.3 256 192 241.7 192 224L192 160z"/></svg>