<svg xmlns="http://www.w3.org/2000/svg" viewBox="0 0 640 640"><!--! Font Awesome Pro 7.1.0 by @fontawesome - https://fontawesome.com License - https://fontawesome.com/license (Commercial License) Copyright 2025 Fonticons, Inc. --><path fill="currentColor" d="M432 128L448 128L448 368C448 403.3 419.3 432 384 432L192 432C156.7 432 128 403.3 128 368L128 128L432 128zM480 288L480 128L496 128C540.2 128 576 163.8 576 208C576 252.2 540.2 288 496 288L480 288zM480 368L480 320L496 320C557.9 320 608 269.9 608 208C608 146.1 557.9 96 496 96L128 96C110.3 96 96 110.3 96 128L96 368C96 421 139 464 192 464L384 464C437 464 480 421 480 368zM80 544C71.2 544 64 551.2 64 560C64 568.8 71.2 576 80 576L496 576C504.8 576 512 568.8 512 560C512 551.2 504.8 544 496 544L80 544z"/></svg>