<svg xmlns="http://www.w3.org/2000/svg" viewBox="0 0 640 640"><!--! Font Awesome Pro 7.1.0 by @fontawesome - https://fontawesome.com License - https://fontawesome.com/license (Commercial License) Copyright 2025 Fonticons, Inc. --><path fill="currentColor" d="M320 96C311.2 96 304 103.2 304 112L304 144L272 144C272 135.2 264.8 128 256 128L176 128C167.2 128 160 135.2 160 144L128 144C128 117.5 149.5 96 176 96L256 96C262.2 96 268.2 97.2 273.7 99.4C279.2 79 297.9 64 320 64L400 64C426.5 64 448 85.5 448 112L448 144L416 144L416 112C416 103.2 408.8 96 400 96L320 96zM128 448C128 483.3 156.7 512 192 512L384 512C419.3 512 448 483.3 448 448L448 224L224 224L224 336C224 344.8 216.8 352 208 352C199.2 352 192 344.8 192 336L192 224L128 224L128 448zM480 224L480 384L496 384C540.2 384 576 348.2 576 304C576 259.8 540.2 224 496 224L480 224zM480 416L480 448C480 501 437 544 384 544L192 544C139 544 96 501 96 448L96 224C96 206.3 110.3 192 128 192L496 192C557.9 192 608 242.1 608 304C608 365.9 557.9 416 496 416L480 416z"/></svg>