<svg xmlns="http://www.w3.org/2000/svg" viewBox="0 0 640 640"><!--! Font Awesome Pro 7.1.0 by @fontawesome - https://fontawesome.com License - https://fontawesome.com/license (Commercial License) Copyright 2025 Fonticons, Inc. --><path fill="currentColor" d="M224 160L128 160L128 416C128 451.3 156.7 480 192 480L384 480C419.3 480 448 451.3 448 416L448 160L256 160L256 200.5L292.5 230.9C299.8 237 304 246 304 255.5L304 320C304 337.7 289.7 352 272 352L208 352C190.3 352 176 337.7 176 320L176 255.5C176 246 180.2 237 187.5 230.9L224 200.5L224 160zM480 320L496 320C540.2 320 576 284.2 576 240C576 195.8 540.2 160 496 160L480 160L480 320zM496 352L480 352L480 416C480 469 437 512 384 512L192 512C139 512 96 469 96 416L96 160C96 142.3 110.3 128 128 128L496 128C557.9 128 608 178.1 608 240C608 301.9 557.9 352 496 352zM208 255.5L208 320L272 320L272 255.5L240 228.8L208 255.5z"/></svg>