<svg xmlns="http://www.w3.org/2000/svg" viewBox="0 0 640 640"><!--! Font Awesome Pro 7.1.0 by @fontawesome - https://fontawesome.com License - https://fontawesome.com/license (Commercial License) Copyright 2025 Fonticons, Inc. --><path fill="currentColor" d="M176 64C167.2 64 160 71.2 160 80C160 115.3 180.9 133.6 196.6 147.3L197.4 148C213.6 162.2 223.9 171.9 223.9 192C223.9 200.8 231.1 208 239.9 208C248.7 208 255.9 200.8 255.9 192C255.9 156.7 235 138.4 219.3 124.7L218.5 124C202.3 109.8 192 100.1 192 80C192 71.2 184.8 64 176 64zM128 288L448 288L448 480C448 515.3 419.3 544 384 544L192 544C156.7 544 128 515.3 128 480L128 288zM480 288L496 288C540.2 288 576 323.8 576 368C576 412.2 540.2 448 496 448L480 448L480 288zM480 480L496 480C557.9 480 608 429.9 608 368C608 306.1 557.9 256 496 256L128 256C110.3 256 96 270.3 96 288L96 480C96 533 139 576 192 576L384 576C437 576 480 533 480 480zM320 80C320 71.2 312.8 64 304 64C295.2 64 288 71.2 288 80C288 115.3 308.9 133.6 324.6 147.3L325.4 148C341.6 162.2 351.9 171.9 351.9 192C351.9 200.8 359.1 208 367.9 208C376.7 208 383.9 200.8 383.9 192C383.9 156.7 363 138.4 347.3 124.7L346.5 124C330.3 109.8 320 100.1 320 80z"/></svg>