<svg xmlns="http://www.w3.org/2000/svg" viewBox="0 0 640 640"><!--! Font Awesome Pro 7.1.0 by @fontawesome - https://fontawesome.com License - https://fontawesome.com/license (Commercial License) Copyright 2025 Fonticons, Inc. --><path fill="currentColor" d="M256 128L256 168.5L292.5 198.9C299.8 205 304 214 304 223.5L304 288C304 305.7 289.7 320 272 320L208 320C190.3 320 176 305.7 176 288L176 223.5C176 214 180.2 205 187.5 198.9L224 168.5L224 128L128 128L128 368C128 403.3 156.7 432 192 432L384 432C419.3 432 448 403.3 448 368L448 128L256 128zM480 128L480 288L496 288C540.2 288 576 252.2 576 208C576 163.8 540.2 128 496 128L480 128zM480 320L480 368C480 421 437 464 384 464L192 464C139 464 96 421 96 368L96 128C96 110.3 110.3 96 128 96L496 96C557.9 96 608 146.1 608 208C608 269.9 557.9 320 496 320L480 320zM64 560C64 551.2 71.2 544 80 544L496 544C504.8 544 512 551.2 512 560C512 568.8 504.8 576 496 576L80 576C71.2 576 64 568.8 64 560zM208 223.5L208 288L272 288L272 223.5L240 196.8L208 223.5z"/></svg>