<svg xmlns="http://www.w3.org/2000/svg" viewBox="0 0 640 640"><!--! Font Awesome Pro 7.1.0 by @fontawesome - https://fontawesome.com License - https://fontawesome.com/license (Commercial License) Copyright 2025 Fonticons, Inc. --><path fill="currentColor" d="M128 160L448 160L448 416C448 451.3 419.3 480 384 480L192 480C156.7 480 128 451.3 128 416L128 160zM480 160L496 160C540.2 160 576 195.8 576 240C576 284.2 540.2 320 496 320L480 320L480 160zM480 352L496 352C557.9 352 608 301.9 608 240C608 178.1 557.9 128 496 128L128 128C110.3 128 96 142.3 96 160L96 416C96 469 139 512 192 512L384 512C437 512 480 469 480 416L480 352z"/></svg>