<svg xmlns="http://www.w3.org/2000/svg" viewBox="0 0 640 640"><!--! Font Awesome Pro 7.1.0 by @fontawesome - https://fontawesome.com License - https://fontawesome.com/license (Commercial License) Copyright 2025 Fonticons, Inc. --><path fill="currentColor" d="M325.3 96.1C327.1 101.1 328 106.5 328 112C328 138.5 306.5 160 280 160C254.1 160 233.1 139.5 232 113.9C259 102.4 288.7 96 320 96C321.8 96 323.5 96 325.3 96.1zM359 99.4C464.1 117.9 544 209.6 544 320C544 337.7 529.7 352 512 352L128 352C110.3 352 96 337.7 96 320C96 239.6 138.3 169.1 201.9 129.6C209.9 165.3 241.8 192 280 192C324.2 192 360 156.2 360 112C360 107.7 359.7 103.5 359 99.4zM128 384L244 384L228.5 508C226.1 527.1 241 544 260.3 544L379.8 544C399 544 413.9 527.1 411.6 508L396 384L512 384C547.3 384 576 355.3 576 320C576 178.6 461.4 64 320 64C178.6 64 64 178.6 64 320C64 355.3 92.7 384 128 384zM260.2 512L276.2 384L363.7 384L379.7 512L260.2 512zM192 304C209.7 304 224 289.7 224 272C224 254.3 209.7 240 192 240C174.3 240 160 254.3 160 272C160 289.7 174.3 304 192 304zM432 224C440.8 224 448 231.2 448 240C448 248.8 440.8 256 432 256C423.2 256 416 248.8 416 240C416 231.2 423.2 224 432 224zM432 288C458.5 288 480 266.5 480 240C480 213.5 458.5 192 432 192C405.5 192 384 213.5 384 240C384 266.5 405.5 288 432 288z"/></svg>