<svg xmlns="http://www.w3.org/2000/svg" viewBox="0 0 640 640"><!--! Font Awesome Pro 7.1.0 by @fontawesome - https://fontawesome.com License - https://fontawesome.com/license (Commercial License) Copyright 2025 Fonticons, Inc. --><path fill="currentColor" d="M512 100.5C512 79.7 492.4 64.4 472.2 69.5L376.2 93.5C362 97 352 109.8 352 124.5L352 396.8C331.7 379 303.3 368 272 368C210.1 368 160 411 160 464C160 517 210.1 560 272 560C333.9 560 384 517 384 464L384 252.5L487.8 226.6C502 223 512 210.2 512 195.6L512 100.6zM352 464C352 494.9 321 528 272 528C223 528 192 494.9 192 464C192 433.1 223 400 272 400C321 400 352 433.1 352 464zM480 195.5L384 219.5L384 124.5L480 100.5L480 195.5z"/></svg>