<svg xmlns="http://www.w3.org/2000/svg" viewBox="0 0 640 640"><!--! Font Awesome Pro 7.1.0 by @fontawesome - https://fontawesome.com License - https://fontawesome.com/license (Commercial License) Copyright 2025 Fonticons, Inc. --><path fill="currentColor" d="M59.3 36.8C53.1 30.6 42.9 30.6 36.7 36.8C30.5 43 30.5 53.2 36.7 59.4L580.7 603.4C586.9 609.6 597.1 609.6 603.3 603.4C609.5 597.2 609.5 587 603.3 580.8L384 361.5L384 252.5L487.8 226.6C502 223 512 210.2 512 195.6L512 100.6C512 79.8 492.4 64.5 472.2 69.6L376.2 93.6C362 97 352 109.8 352 124.5L352 329.5L59.3 36.8zM272 368C210.1 368 160 411 160 464C160 517 210.1 560 272 560C329.9 560 377.6 522.3 383.4 473.9L339.4 429.9C347.6 440.3 352 452.3 352 464C352 494.9 321 528 272 528C223 528 192 494.9 192 464C192 433.1 223 400 272 400C294.9 400 313.9 407.2 327.6 418.1L277.6 368.1C275.7 368 273.9 368 272 368zM480 195.5L384 219.5L384 124.5L480 100.5L480 195.5z"/></svg>