<svg xmlns="http://www.w3.org/2000/svg" viewBox="0 0 640 640"><!--! Font Awesome Pro 7.1.0 by @fontawesome - https://fontawesome.com License - https://fontawesome.com/license (Commercial License) Copyright 2025 Fonticons, Inc. --><path fill="currentColor" d="M492.5 104.3L268.5 154.1C261.2 155.7 256 162.2 256 169.7L256 244.1L512 187.2L512 119.9C512 109.7 502.5 102.1 492.5 104.3zM512 340.4L512 220L256 276.9L256 464.1C256 508.3 213 544.1 160 544.1C107 544.1 64 508.3 64 464.1C64 419.9 107 384.1 160 384.1C184.6 384.1 207 391.8 224 404.5L224 169.8C224 147.3 239.6 127.8 261.6 122.9L485.6 73C515.6 66.3 544 89.1 544 119.9L544 400C544 444.2 501 480 448 480C395 480 352 444.2 352 400C352 355.8 395 320 448 320C472.6 320 495 327.7 512 340.4zM512 400C512 373.5 483.3 352 448 352C412.7 352 384 373.5 384 400C384 426.5 412.7 448 448 448C483.3 448 512 426.5 512 400zM224 464C224 437.5 195.3 416 160 416C124.7 416 96 437.5 96 464C96 490.5 124.7 512 160 512C195.3 512 224 490.5 224 464z"/></svg>