<svg xmlns="http://www.w3.org/2000/svg" viewBox="0 0 640 640"><!--! Font Awesome Pro 7.1.0 by @fontawesome - https://fontawesome.com License - https://fontawesome.com/license (Commercial License) Copyright 2025 Fonticons, Inc. --><path fill="currentColor" d="M235 176C203.3 176 172.8 188.6 150.4 211.1C118.8 242.7 68.5 245.5 33.6 217.6L26.1 211.6C21 207.5 14.1 207.1 8.6 210C7.2 210.7 5.9 211.7 4.8 212.8C1.9 215.7 .1 219.7 .1 224.1L.1 268.1C.1 376.3 87.9 464.1 196.1 464.1C238.5 464.1 279.8 450.3 313.7 424.9L320.1 420.1L326.5 424.9C360.4 450.3 401.7 464.1 444.1 464.1C552.3 464.1 640.1 376.3 640.1 268.1L640.1 224.1C640.1 219.7 638.3 215.7 635.5 212.8C634.4 211.6 633.1 210.7 631.7 210C626.2 207.1 619.3 207.5 614.2 211.6L606.7 217.6C571.8 245.5 521.5 242.7 489.9 211.1C467.5 188.7 437 176 405.3 176L402 176C376.8 176 352.2 183.5 331.2 197.4L320.2 204.7L309.2 197.4C288.2 183.4 263.6 176 238.4 176L235.1 176zM608 254.7L608 268C608 358.6 534.6 432 444 432C408.5 432 374 420.5 345.6 399.2L329.6 387.2C323.9 382.9 316.1 382.9 310.4 387.2L294.4 399.2C266 420.5 231.5 432 196 432C105.4 432 32 358.6 32 268L32 254.7C77.7 279.1 135.1 271.5 172.9 233.7C189.3 217.3 211.7 208 234.9 208L238.2 208C257.1 208 275.5 213.6 291.2 224.1L311.1 237.4C316.5 241 323.5 241 328.9 237.4L348.8 224.1C364.5 213.6 382.9 208 401.8 208L405.1 208C428.4 208 450.7 217.2 467.1 233.7C504.9 271.5 562.4 279.1 608 254.7z"/></svg>