<svg xmlns="http://www.w3.org/2000/svg" viewBox="0 0 640 640"><!--! Font Awesome Pro 7.1.0 by @fontawesome - https://fontawesome.com License - https://fontawesome.com/license (Commercial License) Copyright 2025 Fonticons, Inc. --><path fill="currentColor" d="M138.5 97C144.8 94.7 151.9 96.6 156.2 101.7L480 484.3L480 112C480 103.2 487.2 96 496 96C504.8 96 512 103.2 512 112L512 528C512 534.7 507.8 540.7 501.5 543C495.2 545.3 488.1 543.4 483.8 538.3L160 155.7L160 528C160 536.8 152.8 544 144 544C135.2 544 128 536.8 128 528L128 112C128 105.3 132.2 99.3 138.5 97z"/></svg>