<svg xmlns="http://www.w3.org/2000/svg" viewBox="0 0 640 640"><!--! Font Awesome Pro 7.1.0 by @fontawesome - https://fontawesome.com License - https://fontawesome.com/license (Commercial License) Copyright 2025 Fonticons, Inc. --><path fill="currentColor" d="M189.2 102.9C185.2 97.1 178 94.6 171.3 96.7C164.6 98.8 160 105 160 112L160 320L112 320C103.2 320 96 327.2 96 336C96 344.8 103.2 352 112 352L160 352L160 528C160 536.8 167.2 544 176 544C184.8 544 192 536.8 192 528L192 352L322.7 352L450.9 537.1C454.9 542.9 462.1 545.4 468.8 543.3C475.5 541.2 480 535 480 528L480 352L528 352C536.8 352 544 344.8 544 336C544 327.2 536.8 320 528 320L480 320L480 112C480 103.2 472.8 96 464 96C455.2 96 448 103.2 448 112L448 320L339.5 320L189.2 102.9zM361.6 352L448 352L448 476.8L361.6 352zM300.5 320L192 320L192 163.2L300.5 320z"/></svg>