<svg xmlns="http://www.w3.org/2000/svg" viewBox="0 0 640 640"><!--! Font Awesome Pro 7.1.0 by @fontawesome - https://fontawesome.com License - https://fontawesome.com/license (Commercial License) Copyright 2025 Fonticons, Inc. --><path fill="currentColor" d="M630.6 65.4C638.6 69.1 642.2 78.5 638.5 86.6L562.2 254.6C609 286.3 640 339.6 640 400C640 497.2 561.2 576 464 576L240 576C151.6 576 80 504.4 80 416L80 328.3L34.1 296.2C12.7 281.2 0 256.8 0 230.7L0 176C0 170 3.3 164.6 8.6 161.8C13.9 159 20.3 159.5 25.2 162.9L96 212.5L166.8 162.9C171.7 159.5 178.1 159.1 183.4 161.8C188.7 164.5 192 170 192 176L192 230.7C192 256.8 179.3 281.3 157.9 296.2L112 328.3L112 392.3C112 405.4 122.6 416 135.7 416C141.1 416 146.3 414.2 150.5 410.8L323.1 272.7C362.5 241.1 412.2 224 462.7 224C488.1 224 512.3 229.4 534.2 239L609.4 73.4C613.1 65.4 622.5 61.8 630.6 65.5zM464 544C543.5 544 608 479.5 608 400C608 320.8 542.5 256 462.6 256C419.3 256 376.7 270.8 343 297.7L170.5 435.8C160.6 443.7 148.4 448 135.7 448C128.4 448 121.5 446.6 115.1 444.1C127.9 501.3 179 544 240 544L464 544zM504 336C517.3 336 528 346.7 528 360C528 373.3 517.3 384 504 384C490.7 384 480 373.3 480 360C480 346.7 490.7 336 504 336zM32 230.7C32 246.4 39.6 261 52.5 270L96 300.5L139.5 270C152.3 261 160 246.3 160 230.7L160 206.8L105.2 245.2C99.7 249.1 92.4 249.1 86.8 245.2L32 206.7L32 230.7z"/></svg>