<svg xmlns="http://www.w3.org/2000/svg" viewBox="0 0 640 640"><!--! Font Awesome Pro 7.1.0 by @fontawesome - https://fontawesome.com License - https://fontawesome.com/license (Commercial License) Copyright 2025 Fonticons, Inc. --><path fill="currentColor" d="M256.3 64C327 64 384.3 121.3 384.3 192L384.3 259.2C372.9 265.1 362.1 272.1 352.3 280.2L352.3 233.6C332.7 266.2 297.1 287.9 256.3 287.9C215.5 287.9 179.9 266.1 160.3 233.6L160.3 319.9L316.8 319.9C310.3 329.9 304.7 340.6 300.3 351.9L139.5 351.9C129.9 351.9 123.4 355.6 120.1 359.7L118.9 361.5C104.5 387.1 96.3 416.6 96.3 448C96.3 479.4 104.5 508.9 118.9 534.3C121.6 539.2 128.6 544 139.6 544L271.5 544C271.5 555.2 273.9 566.1 278.3 576L139.6 576L132.3 575.6C116.5 573.8 101.8 566.3 93.1 553.2L91 550.1C74 519.9 64.3 485.1 64.3 448C64.3 415.5 71.7 384.8 85 357.4L91 345.9C98.8 332.1 112.8 323.7 128.3 321L128.3 192C128.3 121.3 185.6 64 256.3 64zM464.3 288C535 288 592.3 345.3 592.3 416L592.3 477.5L592.7 486.7C593.6 495.8 595.7 504.7 599.1 513.2L606.7 532.2C615.1 553.2 599.6 576.1 577 576.1L351.5 576.1L347.3 575.9C328.3 573.5 315.6 554.7 320.5 536.2L321.8 532.3L329.4 513.3C332.8 504.8 335 495.9 335.8 486.8L336.2 477.6L336.2 416.1C336.2 345.4 393.5 288.1 464.2 288.1zM560.3 473.7C540.7 506.2 505.1 528 464.3 528C423.5 528 387.9 506.2 368.3 473.7L368.3 477.5C368.3 491.8 365.9 505.9 361.3 519.3L359.2 525L351.6 543.9L577.1 543.9L569.5 525C563.5 509.9 560.3 493.7 560.3 477.4L560.3 473.6zM464.3 412.1C446.5 434.3 419.7 447.5 391 448C403.3 476.3 431.5 496.1 464.3 496.1C497.1 496.1 525.2 476.3 537.6 448C508.9 447.5 482.1 434.3 464.3 412.1zM464.3 320C411.3 320 368.3 363 368.3 416L389.5 416C410.9 416 430.9 405.3 442.8 387.5L451 375.1L452.2 373.5C455.2 370 459.6 368 464.3 368C469.7 368 474.6 370.7 477.6 375.1L485.8 387.5L488.1 390.7C500.2 406.6 519 416 539.1 416L560.3 416C560.3 363 517.3 320 464.3 320zM256.3 172.1C238.5 194.3 211.7 207.5 183 208C195.3 236.3 223.5 256.1 256.3 256.1C289.1 256.1 317.2 236.3 329.6 208C300.9 207.5 274.1 194.3 256.3 172.1zM256.3 96C208.7 96 169.3 130.6 161.6 176L181.4 176C202.8 176 222.8 165.3 234.6 147.5L242.8 135.1L244 133.5C247 130 251.4 128 256.1 128C261.4 128 266.4 130.7 269.4 135.1L277.6 147.5L279.9 150.7C292.2 166.6 311 176 331.1 176L350.9 176C343.3 130.6 303.8 96 256.2 96z"/></svg>