<svg xmlns="http://www.w3.org/2000/svg" viewBox="0 0 640 640"><!--! Font Awesome Pro 7.1.0 by @fontawesome - https://fontawesome.com License - https://fontawesome.com/license (Commercial License) Copyright 2025 Fonticons, Inc. --><path fill="currentColor" d="M368 128C376.8 128 384 135.2 384 144L384 208C384 216.8 376.8 224 368 224L272 224C263.2 224 256 216.8 256 208L256 144C256 135.2 263.2 128 272 128L368 128zM272 96C245.5 96 224 117.5 224 144L224 208C224 234.5 245.5 256 272 256L304 256L304 304L48 304C39.2 304 32 311.2 32 320C32 328.8 39.2 336 48 336L176 336L176 384L144 384C117.5 384 96 405.5 96 432L96 496C96 522.5 117.5 544 144 544L240 544C266.5 544 288 522.5 288 496L288 432C288 405.5 266.5 384 240 384L208 384L208 336L432 336L432 384L400 384C373.5 384 352 405.5 352 432L352 496C352 522.5 373.5 544 400 544L496 544C522.5 544 544 522.5 544 496L544 432C544 405.5 522.5 384 496 384L464 384L464 336L592 336C600.8 336 608 328.8 608 320C608 311.2 600.8 304 592 304L336 304L336 256L368 256C394.5 256 416 234.5 416 208L416 144C416 117.5 394.5 96 368 96L272 96zM144 416L240 416C248.8 416 256 423.2 256 432L256 496C256 504.8 248.8 512 240 512L144 512C135.2 512 128 504.8 128 496L128 432C128 423.2 135.2 416 144 416zM496 416C504.8 416 512 423.2 512 432L512 496C512 504.8 504.8 512 496 512L400 512C391.2 512 384 504.8 384 496L384 432C384 423.2 391.2 416 400 416L496 416z"/></svg>