<svg xmlns="http://www.w3.org/2000/svg" viewBox="0 0 640 640"><!--! Font Awesome Pro 7.1.0 by @fontawesome - https://fontawesome.com License - https://fontawesome.com/license (Commercial License) Copyright 2025 Fonticons, Inc. --><path fill="currentColor" d="M431.3 539.6C436.4 544.5 444.2 545.4 450.3 541.8C526.2 497.9 577.1 413.7 577.1 320C577.1 226.3 526.2 142.1 450.3 98.1C442.7 93.7 432.9 96.3 428.4 103.9C423.9 111.5 426.6 121.3 434.2 125.8C500.4 164.1 545.1 237.7 545.1 320C545.1 398 504.9 468.2 444.3 507.9L267.1 340.4C260.7 334.3 250.6 334.6 244.5 341C238.4 347.4 238.7 357.6 245.1 363.6L431.3 539.6zM209.9 100.4C204.8 95.5 197.1 94.6 190.9 98.2C115 142.1 64.1 226.2 64.1 320C64.1 413.8 115 497.9 190.9 541.9C198.5 546.3 208.3 543.7 212.8 536.1C217.3 528.5 214.6 518.7 207 514.2C140.8 475.9 96.1 402.2 96.1 320C96.1 242.1 136.3 171.8 196.9 132.1L373 299.6C379.4 305.7 389.5 305.4 395.6 299C401.7 292.6 401.4 282.5 395 276.4L209.9 100.4z"/></svg>