<svg xmlns="http://www.w3.org/2000/svg" viewBox="0 0 640 640"><!--! Font Awesome Pro 7.1.0 by @fontawesome - https://fontawesome.com License - https://fontawesome.com/license (Commercial License) Copyright 2025 Fonticons, Inc. --><path fill="currentColor" d="M59.3 36.8C53.1 30.6 42.9 30.6 36.7 36.8C30.5 43 30.5 53.2 36.7 59.4L580.7 603.4C586.9 609.6 597.1 609.6 603.3 603.4C609.5 597.2 609.5 587 603.3 580.8L535.1 512.6C540.8 503.1 544 491.9 544 480L544 160C544 124.7 515.3 96 480 96L160 96C148.1 96 137 99.2 127.4 104.9L59.3 36.8zM151.6 129.1C154.3 128.4 157.1 128 160 128L480 128C497.7 128 512 142.3 512 160L512 480C512 482.9 511.6 485.7 510.9 488.4L446.9 424.4C447.6 421.7 448 418.9 448 416L448 224C448 206.3 433.7 192 416 192L336 192C318.3 192 304 206.3 304 224L304 274.7C302.4 275.3 300.8 275.9 299.2 276.7L151.6 129.1zM416 393.5L363.3 340.8C366.3 334.5 368 327.5 368 320C368 299.1 354.6 281.3 336 274.7L336 224L416 224L416 393.5zM96 186.7L96 480C96 515.3 124.7 544 160 544L453.3 544L421.3 512L160 512C142.3 512 128 497.7 128 480L128 218.7L96 186.7zM192 282.7L192 416C192 433.7 206.3 448 224 448L357.3 448L325.3 416L224 416L224 314.7L192 282.7z"/></svg>