<svg xmlns="http://www.w3.org/2000/svg" viewBox="0 0 640 640"><!--! Font Awesome Pro 7.1.0 by @fontawesome - https://fontawesome.com License - https://fontawesome.com/license (Commercial License) Copyright 2025 Fonticons, Inc. --><path fill="currentColor" d="M448 128L128 128C110.3 128 96 142.3 96 160L96 480C96 497.7 110.3 512 128 512L313 512C310.3 522.4 308.1 533.1 306.6 544L128 544C92.7 544 64 515.3 64 480L64 160C64 124.7 92.7 96 128 96L448 96C483.3 96 512 124.7 512 160L512 313C501.1 315.9 490.4 319.4 480 323.5L480 160C480 142.3 465.7 128 448 128zM416 224L416 359.3C404.6 367.8 393.9 377.1 384 387.2L384 223.9L304 223.9L304 274.6C322.6 281.2 336 299 336 319.9C336 346.4 314.5 367.9 288 367.9C261.5 367.9 240 346.4 240 319.9C240 299 253.4 281.2 272 274.6L272 223.9C272 206.2 286.3 191.9 304 191.9L384 191.9C401.7 191.9 416 206.2 416 223.9zM338.6 448L192 448C174.3 448 160 433.7 160 416L160 224C160 206.3 174.3 192 192 192L208 192C216.8 192 224 199.2 224 208C224 216.8 216.8 224 208 224L192 224L192 416L359.3 416C351.7 426.2 344.8 436.8 338.6 448zM288 304C279.2 304 272 311.2 272 320C272 328.8 279.2 336 288 336C296.8 336 304 328.8 304 320C304 311.2 296.8 304 288 304zM592 352C600.8 352 608 359.2 608 368C608 376.8 600.8 384 592 384C477.1 384 384 477.1 384 592C384 600.8 376.8 608 368 608C359.2 608 352 600.8 352 592C352 459.5 459.5 352 592 352zM576 544C593.7 544 608 558.3 608 576C608 593.7 593.7 608 576 608C558.3 608 544 593.7 544 576C544 558.3 558.3 544 576 544zM608 464C608 472.8 600.8 480 592 480C530.1 480 480 530.1 480 592C480 600.8 472.8 608 464 608C455.2 608 448 600.8 448 592C448 512.5 512.5 448 592 448C600.8 448 608 455.2 608 464z"/></svg>