<svg xmlns="http://www.w3.org/2000/svg" viewBox="0 0 640 640"><!--! Font Awesome Pro 7.1.0 by @fontawesome - https://fontawesome.com License - https://fontawesome.com/license (Commercial License) Copyright 2025 Fonticons, Inc. --><path fill="currentColor" d="M448.4 128L128.4 128C110.7 128 96.4 142.3 96.4 160L96.4 480C96.4 497.7 110.7 512 128.4 512L284.9 512L279.6 544L128.4 544C93.1 544 64.4 515.3 64.4 480L64.4 160C64.4 124.7 93.1 96 128.4 96L448.4 96C483.7 96 512.4 124.7 512.4 160L512.4 272.6C501.2 275.8 490.4 280.7 480.4 287.3L480.4 160C480.4 142.3 466.1 128 448.4 128zM416.4 224L416.4 348L384.4 380L384.4 224L304.4 224L304.4 274.7C323 281.3 336.4 299.1 336.4 320C336.4 346.5 314.9 368 288.4 368C261.9 368 240.4 346.5 240.4 320C240.4 299.1 253.8 281.3 272.4 274.7L272.4 224C272.4 206.3 286.7 192 304.4 192L384.4 192C402.1 192 416.4 206.3 416.4 224zM316.8 447.6L316.4 448L192.4 448C174.7 448 160.4 433.7 160.4 416L160.4 224C160.4 206.3 174.7 192 192.4 192L208.4 192C217.2 192 224.4 199.2 224.4 208C224.4 216.8 217.2 224 208.4 224L192.4 224L192.4 416L348.4 416L316.8 447.6zM288.4 304C279.6 304 272.4 311.2 272.4 320C272.4 328.8 279.6 336 288.4 336C297.2 336 304.4 328.8 304.4 320C304.4 311.2 297.2 304 288.4 304zM373.5 504.1C368.8 508.8 365.7 514.9 364.6 521.5L356.1 572.3L406.9 563.8C413.5 562.7 419.5 559.6 424.3 554.9L526.5 452.7L475.8 402L373.6 504.2zM498.3 379.3L549 430L569.7 409.3C583.7 395.3 583.7 372.6 569.7 358.6C555.7 344.6 533 344.6 519 358.6L498.3 379.3zM333 516.2C335.2 503 341.4 490.9 350.9 481.5L496.4 336C522.9 309.5 565.9 309.5 592.4 336C618.9 362.5 618.9 405.5 592.4 432L446.9 577.5C437.5 586.9 425.3 593.2 412.2 595.4L337.6 607.8C327.8 609.4 319 600.6 320.6 590.8L333 516.2z"/></svg>