<svg xmlns="http://www.w3.org/2000/svg" viewBox="0 0 640 640"><!--! Font Awesome Pro 7.1.0 by @fontawesome - https://fontawesome.com License - https://fontawesome.com/license (Commercial License) Copyright 2025 Fonticons, Inc. --><path fill="currentColor" d="M448 128L128 128C110.3 128 96 142.3 96 160L96 480C96 497.7 110.3 512 128 512L336 512L336 544L128 544C92.7 544 64 515.3 64 480L64 160C64 124.7 92.7 96 128 96L448 96C483.3 96 512 124.7 512 160L512 241C506.8 240.3 501.4 240 496 240C490.6 240 485.2 240.3 480 241L480 160C480 142.3 465.7 128 448 128zM416 224L416 268.1C403 278.5 392.1 291.4 384 306L384 224L304 224L304 274.7C322.6 281.3 336 299.1 336 320C336 346.5 314.5 368 288 368C261.5 368 240 346.5 240 320C240 299.1 253.4 281.3 272 274.7L272 224C272 206.3 286.3 192 304 192L384 192C401.7 192 416 206.3 416 224zM337.3 448L192 448C174.3 448 160 433.7 160 416L160 224C160 206.3 174.3 192 192 192L208 192C216.8 192 224 199.2 224 208C224 216.8 216.8 224 208 224L192 224L192 416L348.8 416C343.2 425.7 339.2 436.5 337.3 448zM288 304C279.2 304 272 311.2 272 320C272 328.8 279.2 336 288 336C296.8 336 304 328.8 304 320C304 311.2 296.8 304 288 304zM416 416.1L416 368.1C416 323.9 451.8 288.1 496 288.1C540.2 288.1 576 323.9 576 368.1L576 418.7C594.6 425.3 608 443.1 608 464L608 560C608 586.5 586.5 608 560 608L432 608C405.5 608 384 586.5 384 560L384 464C384 443.1 397.4 425.3 416 418.7L416 416.1zM416 464L416 560C416 568.8 423.2 576 432 576L560 576C568.8 576 576 568.8 576 560L576 464C576 455.8 569.8 449 561.7 448.1L430.2 448.1C422.2 449 415.9 455.8 415.9 464zM544 368.1C544 341.6 522.5 320.1 496 320.1C469.5 320.1 448 341.6 448 368.1L448 416L544 416L544 368.1z"/></svg>