<svg xmlns="http://www.w3.org/2000/svg" viewBox="0 0 640 640"><!--! Font Awesome Pro 7.1.0 by @fontawesome - https://fontawesome.com License - https://fontawesome.com/license (Commercial License) Copyright 2025 Fonticons, Inc. --><path fill="currentColor" d="M448 128L128 128C110.3 128 96 142.3 96 160L96 480C96 497.7 110.3 512 128 512L337 512L339.3 544L128 544C92.7 544 64 515.3 64 480L64 160C64 124.7 92.7 96 128 96L448 96C483.3 96 512 124.7 512 160L512 240L480 240L480 160C480 142.3 465.7 128 448 128zM416 224L416 244.1C403.5 248.5 392.4 256.3 384 266.7L384 224L304 224L304 274.7C316.1 279 325.9 287.9 331.4 299.4C314.8 311 304 330.2 304 351.9C304 356.3 304.4 360.6 305.3 364.8C299.9 366.9 294.1 368 288 368C261.5 368 240 346.5 240 320C240 299.1 253.4 281.3 272 274.7L272 224C272 206.3 286.3 192 304 192L384 192C401.7 192 416 206.3 416 224zM332.5 448L192 448C174.3 448 160 433.7 160 416L160 224C160 206.3 174.3 192 192 192L208 192C216.8 192 224 199.2 224 208C224 216.8 216.8 224 208 224L192 224L192 416L330.2 416L332.5 448zM444.9 320.1L436.9 336L522.9 336L514.9 320.1L444.8 320.1zM402.5 333.4L418.5 301.4C422.6 293.3 430.9 288.1 440 288.1L520 288.1C529.1 288.1 537.4 293.2 541.5 301.4L557.5 333.4C557.9 334.3 558.3 335.1 558.6 336L592 336C600.8 336 608 343.2 608 352C608 360.8 600.8 368 592 368L538.1 368C537.4 368.1 536.7 368.1 536 368.1L424 368.1C423.3 368.1 422.6 368.1 421.9 368L368 368C359.2 368 352 360.8 352 352C352 343.2 359.2 336 368 336L401.4 336C401.7 335.1 402.1 334.2 402.5 333.4zM389.9 578.3L377.2 400.1L409.3 400.1L421.9 576L538.3 576L550.9 400.1L583 400.1L570.3 578.3C568.9 595 555 608 538.2 608L421.8 608C405 608 391.1 595 389.9 578.3z"/></svg>