<svg xmlns="http://www.w3.org/2000/svg" viewBox="0 0 640 640"><!--! Font Awesome Pro 7.1.0 by @fontawesome - https://fontawesome.com License - https://fontawesome.com/license (Commercial License) Copyright 2025 Fonticons, Inc. --><path fill="currentColor" d="M448 128L128 128C110.3 128 96 142.3 96 160L96 480C96 497.7 110.3 512 128 512L276 512C285.6 524.1 296.7 534.9 309.2 544L128 544C92.7 544 64 515.3 64 480L64 160C64 124.7 92.7 96 128 96L448 96C483.3 96 512 124.7 512 160L512 276.1C502.2 268.3 491.4 261.6 480 256.2L480 160C480 142.3 465.7 128 448 128zM416 224L416 240.3C413.4 240.2 410.7 240.1 408 240.1C399.9 240.1 391.8 240.7 384 241.8L384 224L304 224L304 274.7C304.4 274.8 304.8 275 305.2 275.2C280.6 294.3 261.4 320.1 250.4 349.8C243.9 341.6 240 331.2 240 320C240 299.1 253.4 281.3 272 274.7L272 224C272 206.3 286.3 192 304 192L384 192C401.7 192 416 206.3 416 224zM244.8 448L192 448C174.3 448 160 433.7 160 416L160 224C160 206.3 174.3 192 192 192L208 192C216.8 192 224 199.2 224 208C224 216.8 216.8 224 208 224L192 224L192 416L240.2 416C240.7 427 242.3 437.7 244.8 448zM408 496.1C456.6 496.1 496 456.7 496 408.1C496 359.5 456.6 320.1 408 320.1C359.4 320.1 320 359.5 320 408.1C320 456.7 359.4 496.1 408 496.1zM408 528.1C341.7 528.1 288 474.4 288 408.1C288 341.8 341.7 288.1 408 288.1C474.3 288.1 528 341.8 528 408.1C528 435.5 518.9 460.7 503.4 480.8L571.3 548.8C577.5 555.1 577.5 565.2 571.3 571.4C565.1 577.6 554.9 577.6 548.7 571.4L480.9 503.5C460.7 518.9 435.5 528.1 408.1 528.1z"/></svg>