<svg xmlns="http://www.w3.org/2000/svg" viewBox="0 0 640 640"><!--! Font Awesome Pro 7.1.0 by @fontawesome - https://fontawesome.com License - https://fontawesome.com/license (Commercial License) Copyright 2025 Fonticons, Inc. --><path fill="currentColor" d="M480 128C497.7 128 512 142.3 512 160L512 480C512 497.7 497.7 512 480 512L160 512C142.3 512 128 497.7 128 480L128 160C128 142.3 142.3 128 160 128L480 128zM160 96C124.7 96 96 124.7 96 160L96 480C96 515.3 124.7 544 160 544L480 544C515.3 544 544 515.3 544 480L544 160C544 124.7 515.3 96 480 96L160 96zM192 224L192 416C192 433.7 206.3 448 224 448L416 448C433.7 448 448 433.7 448 416L448 224C448 206.3 433.7 192 416 192L336 192C318.3 192 304 206.3 304 224L304 274.7C285.4 281.3 272 299.1 272 320C272 346.5 293.5 368 320 368C346.5 368 368 346.5 368 320C368 299.1 354.6 281.3 336 274.7L336 224L416 224L416 416L224 416L224 224L240 224C248.8 224 256 216.8 256 208C256 199.2 248.8 192 240 192L224 192C206.3 192 192 206.3 192 224zM320 336C311.2 336 304 328.8 304 320C304 311.2 311.2 304 320 304C328.8 304 336 311.2 336 320C336 328.8 328.8 336 320 336z"/></svg>