<svg xmlns="http://www.w3.org/2000/svg" viewBox="0 0 640 640"><!--! Font Awesome Pro 7.1.0 by @fontawesome - https://fontawesome.com License - https://fontawesome.com/license (Commercial License) Copyright 2025 Fonticons, Inc. --><path fill="currentColor" d="M567.3 352.7L462.6 317.9L522 217.5C539.4 238.4 551.7 263.8 556.7 292.2L567.4 352.7zM407.8 160.2C441.7 162 473.1 174.5 498.4 194.5L431.6 307.6L365.4 285.6C356.3 282.6 347 280.4 337.6 279.1L407.8 160.2zM301 278.1C288 279.2 275.1 282 262.5 286.3L165.4 320L259.9 160L370.8 160L301 278.1zM118.6 336.2L73.1 352L83.6 292.3C96 222.2 152.8 169.6 222 161.3L118.6 336.2zM241.3 128C148.1 128 68.4 194.9 52.2 286.6L41.6 346.4C37.4 370.4 60.5 390.2 83.6 382.2L273 316.5C299.6 307.3 328.5 307.1 355.3 316L557.3 383.1C580.3 390.7 603.1 371 598.9 347.2L588.2 286.7C572 194.9 492.3 128 399.1 128L241.3 128zM64.2 416.9C64.7 469.5 107.5 512 160.2 512C177.5 512 193.8 507.4 207.8 499.4C210.5 497.8 213.9 497.8 216.6 499.4C230.6 507.4 246.9 512 264.2 512C283 512 300.6 506.6 315.4 497.2C318.3 495.4 322 495.4 324.9 497.2C339.7 506.6 357.3 512 376.1 512C393.4 512 409.7 507.4 423.7 499.4C426.4 497.8 429.8 497.8 432.5 499.4C446.5 507.4 462.8 512 480.1 512C532.6 512 575.2 469.9 576.1 417.6C567.7 418.3 559 417.4 550.3 414.5L544.1 412.5L544.1 416C544.1 451.3 515.4 480 480.1 480C468.5 480 457.7 476.9 448.4 471.6C435.8 464.4 420.4 464.4 407.8 471.6C398.5 476.9 387.7 480 376.1 480C363.5 480 351.8 476.4 342 470.2C328.6 461.8 311.6 461.8 298.3 470.2C288.4 476.4 276.8 480 264.2 480C252.6 480 241.8 476.9 232.5 471.6C219.9 464.4 204.5 464.4 191.9 471.6C182.6 476.9 171.8 480 160.2 480C124.9 480 96.2 451.3 96.2 416L96.2 411.7L90.9 413.5C81.9 416.6 72.9 417.6 64.2 416.9z"/></svg>