<svg xmlns="http://www.w3.org/2000/svg" viewBox="0 0 640 640"><!--! Font Awesome Pro 7.1.0 by @fontawesome - https://fontawesome.com License - https://fontawesome.com/license (Commercial License) Copyright 2025 Fonticons, Inc. --><path fill="currentColor" d="M310.9 575.8C217.9 571.1 144 494.2 144 400L144.2 390.9C148.6 303.2 217.2 232.5 304 224.7L304 171.4L244.6 205.6L241.7 206.9C234.6 209.3 226.6 206.4 222.8 199.7C219 193 220.5 184.6 226 179.7L228.6 177.8L287.8 143.6L228.7 109.5L226.1 107.6C220.5 102.7 219 94.3 222.9 87.6C226.8 80.9 234.7 78 241.8 80.4L244.7 81.7L303.9 115.9L303.9 47.7L304.2 44.5C305.7 37.2 312.2 31.7 319.9 31.7C327.6 31.7 334.1 37.2 335.6 44.5L335.9 47.7L335.9 115.7L394.8 81.7C402.5 77.3 412.2 79.9 416.6 87.6C420.5 94.3 419 102.6 413.4 107.6L410.8 109.5L351.7 143.6L410.9 177.8C418.6 182.2 421.2 192 416.7 199.7C412.8 206.4 404.9 209.2 397.8 206.9L394.9 205.6L335.8 171.5L335.8 224.6C422.5 232.4 491.1 303.1 495.6 390.8L495.8 399.9C495.8 497.1 417 575.9 319.8 575.9L310.7 575.7zM320 544C399.5 544 464 479.5 464 400C464 323 403.5 260 327.4 256.2L320 256L312.6 256.2C236.5 260 176 323 176 400C176 479.5 240.5 544 320 544z"/></svg>