<svg xmlns="http://www.w3.org/2000/svg" viewBox="0 0 640 640"><!--! Font Awesome Pro 7.1.0 by @fontawesome - https://fontawesome.com License - https://fontawesome.com/license (Commercial License) Copyright 2025 Fonticons, Inc. --><path fill="currentColor" d="M160 104C160 95.2 152.8 88 144 88C135.2 88 128 95.2 128 104L128 528C128 536.8 135.2 544 144 544C152.8 544 160 536.8 160 528L160 407.5L202.7 371.9L323.1 537.4C328.3 544.5 338.3 546.1 345.5 540.9C352.7 535.7 354.2 525.7 349 518.5L227.3 351.4L346.2 252.3C353 246.6 353.9 236.6 348.2 229.8C342.5 223 332.5 222.1 325.7 227.8L160 365.8L160 104zM528 256L544 256C552.8 256 560 248.8 560 240C560 231.2 552.8 224 544 224L528 224C497.7 224 468.9 236.3 448 257.6L448 240C448 231.2 440.8 224 432 224C423.2 224 416 231.2 416 240L416 528C416 536.8 423.2 544 432 544C440.8 544 448 536.8 448 528L448 336C448 318.7 453.6 301.8 464 288C479.1 267.9 502.8 256 528 256z"/></svg>