<svg xmlns="http://www.w3.org/2000/svg" viewBox="0 0 640 640"><!--! Font Awesome Pro 7.1.0 by @fontawesome - https://fontawesome.com License - https://fontawesome.com/license (Commercial License) Copyright 2025 Fonticons, Inc. --><path fill="currentColor" d="M262.2 67.4C269.2 62 279.2 63.2 284.7 70.2L516.7 367.5C534.4 390.2 544 418.1 544 446.9C544 518.2 486.2 576 414.9 576L208 576C146.1 576 96 525.9 96 464C96 402.1 146.1 352 208 352L224 352C232.8 352 240 359.2 240 368C240 376.8 232.8 384 224 384L208 384C163.8 384 128 419.8 128 464C128 502.7 155.5 535 192 542.4L192 536C192 496.2 224.2 464 264 464C303.8 464 336 496.2 336 536L336 544L414.9 544C468.5 544 512 500.5 512 446.9C512 425.3 504.8 404.2 491.4 387.2L259.4 89.8C254 82.8 255.2 72.8 262.2 67.3zM304 544L304 536C304 513.9 286.1 496 264 496C241.9 496 224 513.9 224 536L224 544L304 544z"/></svg>