<svg xmlns="http://www.w3.org/2000/svg" viewBox="0 0 640 640"><!--! Font Awesome Pro 7.1.0 by @fontawesome - https://fontawesome.com License - https://fontawesome.com/license (Commercial License) Copyright 2025 Fonticons, Inc. --><path fill="currentColor" d="M477.2 121.1C482.2 113.8 480.4 103.9 473.2 98.8C466 93.7 456 95.6 450.9 102.8L389.2 192L112 192C103.2 192 96 199.2 96 208C96 216.8 103.2 224 112 224L367 224L234.1 416L112 416C103.2 416 96 423.2 96 432C96 440.8 103.2 448 112 448L211.9 448L162.8 518.9C157.8 526.2 159.6 536.1 166.8 541.2C174 546.3 184 544.4 189.1 537.2L250.8 448L528 448C536.8 448 544 440.8 544 432C544 423.2 536.8 416 528 416L273 416L405.9 224L528 224C536.8 224 544 216.8 544 208C544 199.2 536.8 192 528 192L428.1 192L477.2 121.1z"/></svg>