<svg xmlns="http://www.w3.org/2000/svg" viewBox="0 0 640 640"><!--! Font Awesome Pro 7.1.0 by @fontawesome - https://fontawesome.com License - https://fontawesome.com/license (Commercial License) Copyright 2025 Fonticons, Inc. --><path fill="currentColor" d="M160 516.5L300.3 320L160 123.5L160 516.5zM179.7 544L460.3 544L320 347.5L179.7 544zM339.7 320L480 516.5L480 123.5L339.7 320zM460.3 96L179.7 96L320 292.5L460.3 96zM128 112C128 85.5 149.5 64 176 64L464 64C490.5 64 512 85.5 512 112L512 528C512 554.5 490.5 576 464 576L176 576C149.5 576 128 554.5 128 528L128 112z"/></svg>