<svg xmlns="http://www.w3.org/2000/svg" viewBox="0 0 640 640"><!--! Font Awesome Pro 7.1.0 by @fontawesome - https://fontawesome.com License - https://fontawesome.com/license (Commercial License) Copyright 2025 Fonticons, Inc. --><path fill="currentColor" d="M389.5 448C398 448 406.1 444.6 412.1 438.6L534.6 316.1C540.6 310.1 544 302 544 293.5L544 128C544 110.3 529.7 96 512 96L224 96C206.3 96 192 110.3 192 128L192 416C192 433.7 206.3 448 224 448L389.5 448zM224 480C188.7 480 160 451.3 160 416L160 128C160 92.7 188.7 64 224 64L512 64C547.3 64 576 92.7 576 128L576 293.5C576 310.5 569.3 326.8 557.3 338.8L434.7 461.3C422.7 473.3 406.4 480 389.4 480L224 480zM80 160C88.8 160 96 167.2 96 176L96 512C96 529.7 110.3 544 128 544L400 544C408.8 544 416 551.2 416 560C416 568.8 408.8 576 400 576L128 576C92.7 576 64 547.3 64 512L64 176C64 167.2 71.2 160 80 160zM352 176L384 176C401.7 176 416 190.3 416 208L416 224L432 224C449.7 224 464 238.3 464 256L464 288C464 305.7 449.7 320 432 320L416 320L416 336C416 353.7 401.7 368 384 368L352 368C334.3 368 320 353.7 320 336L320 320L304 320C286.3 320 272 305.7 272 288L272 256C272 238.3 286.3 224 304 224L320 224L320 208C320 190.3 334.3 176 352 176zM384 312L384 296C384 291.6 387.6 288 392 288L432 288L432 256L392 256C387.6 256 384 252.4 384 248L384 208L352 208L352 248C352 252.4 348.4 256 344 256L304 256L304 288L344 288C348.4 288 352 291.6 352 296L352 336L384 336L384 312z"/></svg>