<svg xmlns="http://www.w3.org/2000/svg" viewBox="0 0 640 640"><!--! Font Awesome Pro 7.1.0 by @fontawesome - https://fontawesome.com License - https://fontawesome.com/license (Commercial License) Copyright 2025 Fonticons, Inc. --><path fill="currentColor" d="M160 512C142.3 512 128 497.7 128 480L128 160C128 142.3 142.3 128 160 128L480 128C497.7 128 512 142.3 512 160L512 357.5C512 366 508.6 374.1 502.6 380.1L380.1 502.6C374.1 508.6 366 512 357.5 512L160 512zM96 480C96 515.3 124.7 544 160 544L357.5 544C374.5 544 390.8 537.3 402.8 525.3L525.3 402.7C537.3 390.7 544 374.4 544 357.4L544 160C544 124.7 515.3 96 480 96L160 96C124.7 96 96 124.7 96 160L96 480zM304 224C286.3 224 272 238.3 272 256L272 272L256 272C238.3 272 224 286.3 224 304L224 336C224 353.7 238.3 368 256 368L272 368L272 384C272 401.7 286.3 416 304 416L336 416C353.7 416 368 401.7 368 384L368 368L384 368C401.7 368 416 353.7 416 336L416 304C416 286.3 401.7 272 384 272L368 272L368 256C368 238.3 353.7 224 336 224L304 224zM336 360L336 384L304 384L304 344C304 339.6 300.4 336 296 336L256 336L256 304L296 304C300.4 304 304 300.4 304 296L304 256L336 256L336 296C336 300.4 339.6 304 344 304L384 304L384 336L344 336C339.6 336 336 339.6 336 344L336 360z"/></svg>