<svg xmlns="http://www.w3.org/2000/svg" viewBox="0 0 640 640"><!--! Font Awesome Pro 7.1.0 by @fontawesome - https://fontawesome.com License - https://fontawesome.com/license (Commercial License) Copyright 2025 Fonticons, Inc. --><path fill="currentColor" d="M224 448L384 448L384 352C384 316.7 412.7 288 448 288L544 288L544 128C544 110.3 529.7 96 512 96L224 96C206.3 96 192 110.3 192 128L192 416C192 433.7 206.3 448 224 448zM416 434.7L530.7 320L448 320C430.3 320 416 334.3 416 352L416 434.7zM224 480C188.7 480 160 451.3 160 416L160 128C160 92.7 188.7 64 224 64L512 64C547.3 64 576 92.7 576 128L576 293.5C576 310.5 569.3 326.8 557.3 338.8L434.7 461.3C422.7 473.3 406.4 480 389.4 480L224 480zM96 176L96 512C96 529.7 110.3 544 128 544L400 544C408.8 544 416 551.2 416 560C416 568.8 408.8 576 400 576L128 576C92.7 576 64 547.3 64 512L64 176C64 167.2 71.2 160 80 160C88.8 160 96 167.2 96 176z"/></svg>