<svg xmlns="http://www.w3.org/2000/svg" viewBox="0 0 640 640"><!--! Font Awesome Pro 7.1.0 by @fontawesome - https://fontawesome.com License - https://fontawesome.com/license (Commercial License) Copyright 2025 Fonticons, Inc. --><path fill="currentColor" d="M384 448L224 448C206.3 448 192 433.7 192 416L192 128C192 110.3 206.3 96 224 96L512 96C529.7 96 544 110.3 544 128L544 288L448 288C412.7 288 384 316.7 384 352L384 448zM530.7 320L416 434.7L416 352C416 334.3 430.3 320 448 320L530.7 320zM160 416C160 451.3 188.7 480 224 480L389.5 480C406.5 480 422.8 473.3 434.8 461.3L557.3 338.7C569.3 326.7 576 310.4 576 293.4L576 128C576 92.7 547.3 64 512 64L224 64C188.7 64 160 92.7 160 128L160 416zM80 160C71.2 160 64 167.2 64 176L64 512C64 547.3 92.7 576 128 576L400 576C408.8 576 416 568.8 416 560C416 551.2 408.8 544 400 544L128 544C110.3 544 96 529.7 96 512L96 176C96 167.2 88.8 160 80 160zM296 368C296 354.7 285.3 344 272 344C258.7 344 248 354.7 248 368C248 381.3 258.7 392 272 392C285.3 392 296 381.3 296 368zM272 152C258.7 152 248 162.7 248 176C248 189.3 258.7 200 272 200C285.3 200 296 189.3 296 176C296 162.7 285.3 152 272 152zM296 272C296 258.7 285.3 248 272 248C258.7 248 248 258.7 248 272C248 285.3 258.7 296 272 296C285.3 296 296 285.3 296 272z"/></svg>