<svg xmlns="http://www.w3.org/2000/svg" viewBox="0 0 640 640"><!--! Font Awesome Pro 7.1.0 by @fontawesome - https://fontawesome.com License - https://fontawesome.com/license (Commercial License) Copyright 2025 Fonticons, Inc. --><path fill="currentColor" d="M160 512L352 512L352 416C352 380.7 380.7 352 416 352L512 352L512 160C512 142.3 497.7 128 480 128L160 128C142.3 128 128 142.3 128 160L128 480C128 497.7 142.3 512 160 512zM384 498.7L498.7 384L416 384C398.3 384 384 398.3 384 416L384 498.7zM160 544C124.7 544 96 515.3 96 480L96 160C96 124.7 124.7 96 160 96L480 96C515.3 96 544 124.7 544 160L544 357.5C544 374.5 537.3 390.8 525.3 402.8L402.7 525.3C390.7 537.3 374.4 544 357.4 544L160 544zM184 432C184 418.7 194.7 408 208 408C221.3 408 232 418.7 232 432C232 445.3 221.3 456 208 456C194.7 456 184 445.3 184 432zM208 232C194.7 232 184 221.3 184 208C184 194.7 194.7 184 208 184C221.3 184 232 194.7 232 208C232 221.3 221.3 232 208 232zM184 320C184 306.7 194.7 296 208 296C221.3 296 232 306.7 232 320C232 333.3 221.3 344 208 344C194.7 344 184 333.3 184 320z"/></svg>