<svg xmlns="http://www.w3.org/2000/svg" viewBox="0 0 640 640"><!--! Font Awesome Pro 7.1.0 by @fontawesome - https://fontawesome.com License - https://fontawesome.com/license (Commercial License) Copyright 2025 Fonticons, Inc. --><path fill="currentColor" d="M256 96L256 544L192 544C174.3 544 160 529.7 160 512L160 464L192 464C200.8 464 208 456.8 208 448C208 439.2 200.8 432 192 432L160 432L160 336L192 336C200.8 336 208 328.8 208 320C208 311.2 200.8 304 192 304L160 304L160 208L192 208C200.8 208 208 200.8 208 192C208 183.2 200.8 176 192 176L160 176L160 128C160 110.3 174.3 96 192 96L256 96zM288 96L480 96C497.7 96 512 110.3 512 128L512 512C512 529.7 497.7 544 480 544L288 544L288 96zM128 128L128 176L80 176C71.2 176 64 183.2 64 192C64 200.8 71.2 208 80 208L128 208L128 304L80 304C71.2 304 64 311.2 64 320C64 328.8 71.2 336 80 336L128 336L128 432L80 432C71.2 432 64 439.2 64 448C64 456.8 71.2 464 80 464L128 464L128 512C128 547.3 156.7 576 192 576L480 576C515.3 576 544 547.3 544 512L544 128C544 92.7 515.3 64 480 64L192 64C156.7 64 128 92.7 128 128z"/></svg>