<svg xmlns="http://www.w3.org/2000/svg" viewBox="0 0 640 640"><!--! Font Awesome Pro 7.1.0 by @fontawesome - https://fontawesome.com License - https://fontawesome.com/license (Commercial License) Copyright 2025 Fonticons, Inc. --><path fill="currentColor" d="M80 64C71.2 64 64 71.2 64 80C64 88.8 71.2 96 80 96L560 96C568.8 96 576 88.8 576 80C576 71.2 568.8 64 560 64L80 64zM240 224C248.8 224 256 231.2 256 240L256 528C256 536.8 248.8 544 240 544L176 544C167.2 544 160 536.8 160 528L160 240C160 231.2 167.2 224 176 224L240 224zM176 192C149.5 192 128 213.5 128 240L128 528C128 554.5 149.5 576 176 576L240 576C266.5 576 288 554.5 288 528L288 240C288 213.5 266.5 192 240 192L176 192zM464 224C472.8 224 480 231.2 480 240L480 400C480 408.8 472.8 416 464 416L400 416C391.2 416 384 408.8 384 400L384 240C384 231.2 391.2 224 400 224L464 224zM400 192C373.5 192 352 213.5 352 240L352 400C352 426.5 373.5 448 400 448L464 448C490.5 448 512 426.5 512 400L512 240C512 213.5 490.5 192 464 192L400 192z"/></svg>