<svg xmlns="http://www.w3.org/2000/svg" viewBox="0 0 640 640"><!--! Font Awesome Pro 7.1.0 by @fontawesome - https://fontawesome.com License - https://fontawesome.com/license (Commercial License) Copyright 2025 Fonticons, Inc. --><path fill="currentColor" d="M224 384C241.7 384 256 398.3 256 416L256 512C256 529.7 270.3 544 288 544L512 544C529.7 544 544 529.7 544 512L544 288C544 270.3 529.7 256 512 256L416 256C398.3 256 384 241.7 384 224L384 128C384 110.3 369.7 96 352 96L128 96C110.3 96 96 110.3 96 128L96 352C96 369.7 110.3 384 128 384L224 384zM192 416L128 416C92.7 416 64 387.3 64 352L64 128C64 92.7 92.7 64 128 64L352 64C387.3 64 416 92.7 416 128L416 224L512 224C547.3 224 576 252.7 576 288L576 512C576 547.3 547.3 576 512 576L288 576C252.7 576 224 547.3 224 512L224 416L192 416z"/></svg>