<svg xmlns="http://www.w3.org/2000/svg" viewBox="0 0 640 640"><!--! Font Awesome Pro 7.1.0 by @fontawesome - https://fontawesome.com License - https://fontawesome.com/license (Commercial License) Copyright 2025 Fonticons, Inc. --><path fill="currentColor" d="M64 128C64 110.3 78.3 96 96 96C113.7 96 128 110.3 128 128C128 145.7 113.7 160 96 160C78.3 160 64 145.7 64 128zM112 190C134.5 184.2 152.2 166.5 158 144L482 144C487.8 166.5 505.5 184.2 528 190L528 450C505.5 455.8 487.8 473.5 482 496L158 496C152.2 473.5 134.5 455.8 112 450L112 190zM544 64C514.2 64 489.1 84.4 482 112L158 112C150.9 84.4 125.8 64 96 64C60.7 64 32 92.7 32 128C32 157.8 52.4 182.9 80 190L80 450C52.4 457.1 32 482.2 32 512C32 547.3 60.7 576 96 576C125.8 576 150.9 555.6 158 528L482 528C489.1 555.6 514.2 576 544 576C579.3 576 608 547.3 608 512C608 482.2 587.6 457.1 560 450L560 190C587.6 182.9 608 157.8 608 128C608 92.7 579.3 64 544 64zM512 128C512 110.3 526.3 96 544 96C561.7 96 576 110.3 576 128C576 145.7 561.7 160 544 160C526.3 160 512 145.7 512 128zM96 480C113.7 480 128 494.3 128 512C128 529.7 113.7 544 96 544C78.3 544 64 529.7 64 512C64 494.3 78.3 480 96 480zM512 512C512 494.3 526.3 480 544 480C561.7 480 576 494.3 576 512C576 529.7 561.7 544 544 544C526.3 544 512 529.7 512 512zM320 224L320 304L192 304L192 224L320 224zM192 192C174.3 192 160 206.3 160 224L160 304C160 321.7 174.3 336 192 336L320 336C337.7 336 352 321.7 352 304L352 224C352 206.3 337.7 192 320 192L192 192zM304 384L304 416C304 433.7 318.3 448 336 448L448 448C465.7 448 480 433.7 480 416L480 336C480 318.3 465.7 304 448 304L400 304C400 315.4 397.6 326.2 393.3 336L448 336L448 416L336 416L336 382.4C330.8 383.4 325.5 384 320 384L304 384z"/></svg>