<svg xmlns="http://www.w3.org/2000/svg" viewBox="0 0 640 640"><!--! Font Awesome Pro 7.1.0 by @fontawesome - https://fontawesome.com License - https://fontawesome.com/license (Commercial License) Copyright 2025 Fonticons, Inc. --><path fill="currentColor" d="M576 80C576 71.2 568.8 64 560 64C551.2 64 544 71.2 544 80L544 560C544 568.8 551.2 576 560 576C568.8 576 576 568.8 576 560L576 80zM416 240C416 248.8 408.8 256 400 256L112 256C103.2 256 96 248.8 96 240L96 176C96 167.2 103.2 160 112 160L400 160C408.8 160 416 167.2 416 176L416 240zM448 176C448 149.5 426.5 128 400 128L112 128C85.5 128 64 149.5 64 176L64 240C64 266.5 85.5 288 112 288L400 288C426.5 288 448 266.5 448 240L448 176zM416 464C416 472.8 408.8 480 400 480L240 480C231.2 480 224 472.8 224 464L224 400C224 391.2 231.2 384 240 384L400 384C408.8 384 416 391.2 416 400L416 464zM448 400C448 373.5 426.5 352 400 352L240 352C213.5 352 192 373.5 192 400L192 464C192 490.5 213.5 512 240 512L400 512C426.5 512 448 490.5 448 464L448 400z"/></svg>