<svg xmlns="http://www.w3.org/2000/svg" viewBox="0 0 640 640"><!--! Font Awesome Pro 7.1.0 by @fontawesome - https://fontawesome.com License - https://fontawesome.com/license (Commercial License) Copyright 2025 Fonticons, Inc. --><path fill="currentColor" d="M240 128C248.8 128 256 135.2 256 144L256 496C256 504.8 248.8 512 240 512L176 512C167.2 512 160 504.8 160 496L160 144C160 135.2 167.2 128 176 128L240 128zM176 96C149.5 96 128 117.5 128 144L128 304L48 304C39.2 304 32 311.2 32 320C32 328.8 39.2 336 48 336L128 336L128 496C128 522.5 149.5 544 176 544L240 544C266.5 544 288 522.5 288 496L288 336L352 336L352 432C352 458.5 373.5 480 400 480L464 480C490.5 480 512 458.5 512 432L512 336L592 336C600.8 336 608 328.8 608 320C608 311.2 600.8 304 592 304L512 304L512 208C512 181.5 490.5 160 464 160L400 160C373.5 160 352 181.5 352 208L352 304L288 304L288 144C288 117.5 266.5 96 240 96L176 96zM464 192C472.8 192 480 199.2 480 208L480 432C480 440.8 472.8 448 464 448L400 448C391.2 448 384 440.8 384 432L384 208C384 199.2 391.2 192 400 192L464 192z"/></svg>