<svg xmlns="http://www.w3.org/2000/svg" viewBox="0 0 640 640"><!--! Font Awesome Pro 7.1.0 by @fontawesome - https://fontawesome.com License - https://fontawesome.com/license (Commercial License) Copyright 2025 Fonticons, Inc. --><path fill="currentColor" d="M64 80C64 71.2 71.2 64 80 64C88.8 64 96 71.2 96 80L96 560C96 568.8 88.8 576 80 576C71.2 576 64 568.8 64 560L64 80zM224 240C224 248.8 231.2 256 240 256L528 256C536.8 256 544 248.8 544 240L544 176C544 167.2 536.8 160 528 160L240 160C231.2 160 224 167.2 224 176L224 240zM192 176C192 149.5 213.5 128 240 128L528 128C554.5 128 576 149.5 576 176L576 240C576 266.5 554.5 288 528 288L240 288C213.5 288 192 266.5 192 240L192 176zM224 464C224 472.8 231.2 480 240 480L400 480C408.8 480 416 472.8 416 464L416 400C416 391.2 408.8 384 400 384L240 384C231.2 384 224 391.2 224 400L224 464zM192 400C192 373.5 213.5 352 240 352L400 352C426.5 352 448 373.5 448 400L448 464C448 490.5 426.5 512 400 512L240 512C213.5 512 192 490.5 192 464L192 400z"/></svg>