<svg xmlns="http://www.w3.org/2000/svg" viewBox="0 0 640 640"><!--! Font Awesome Pro 7.1.0 by @fontawesome - https://fontawesome.com License - https://fontawesome.com/license (Commercial License) Copyright 2025 Fonticons, Inc. --><path fill="currentColor" d="M80 576C71.2 576 64 568.8 64 560C64 551.2 71.2 544 80 544L560 544C568.8 544 576 551.2 576 560C576 568.8 568.8 576 560 576L80 576zM240 416C248.8 416 256 408.8 256 400L256 112C256 103.2 248.8 96 240 96L176 96C167.2 96 160 103.2 160 112L160 400C160 408.8 167.2 416 176 416L240 416zM176 448C149.5 448 128 426.5 128 400L128 112C128 85.5 149.5 64 176 64L240 64C266.5 64 288 85.5 288 112L288 400C288 426.5 266.5 448 240 448L176 448zM464 416C472.8 416 480 408.8 480 400L480 240C480 231.2 472.8 224 464 224L400 224C391.2 224 384 231.2 384 240L384 400C384 408.8 391.2 416 400 416L464 416zM400 448C373.5 448 352 426.5 352 400L352 240C352 213.5 373.5 192 400 192L464 192C490.5 192 512 213.5 512 240L512 400C512 426.5 490.5 448 464 448L400 448z"/></svg>