<svg xmlns="http://www.w3.org/2000/svg" viewBox="0 0 640 640"><!--! Font Awesome Pro 7.1.0 by @fontawesome - https://fontawesome.com License - https://fontawesome.com/license (Commercial License) Copyright 2025 Fonticons, Inc. --><path fill="currentColor" d="M336 48C336 39.2 328.8 32 320 32C311.2 32 304 39.2 304 48L304 128L144 128C117.5 128 96 149.5 96 176L96 240C96 266.5 117.5 288 144 288L304 288L304 352L208 352C181.5 352 160 373.5 160 400L160 464C160 490.5 181.5 512 208 512L304 512L304 592C304 600.8 311.2 608 320 608C328.8 608 336 600.8 336 592L336 512L432 512C458.5 512 480 490.5 480 464L480 400C480 373.5 458.5 352 432 352L336 352L336 288L496 288C522.5 288 544 266.5 544 240L544 176C544 149.5 522.5 128 496 128L336 128L336 48zM512 240C512 248.8 504.8 256 496 256L144 256C135.2 256 128 248.8 128 240L128 176C128 167.2 135.2 160 144 160L496 160C504.8 160 512 167.2 512 176L512 240zM448 464C448 472.8 440.8 480 432 480L208 480C199.2 480 192 472.8 192 464L192 400C192 391.2 199.2 384 208 384L432 384C440.8 384 448 391.2 448 400L448 464z"/></svg>