<svg xmlns="http://www.w3.org/2000/svg" viewBox="0 0 640 640"><!--! Font Awesome Pro 7.1.0 by @fontawesome - https://fontawesome.com License - https://fontawesome.com/license (Commercial License) Copyright 2025 Fonticons, Inc. --><path fill="currentColor" d="M144 128C135.2 128 128 135.2 128 144L128 304C128 312.8 135.2 320 144 320L240 320C248.8 320 256 312.8 256 304L256 144C256 135.2 248.8 128 240 128L144 128zM96 144C96 117.5 117.5 96 144 96L240 96C266.5 96 288 117.5 288 144L288 304C288 330.5 266.5 352 240 352L144 352C117.5 352 96 330.5 96 304L96 144zM400 320C391.2 320 384 327.2 384 336L384 496C384 504.8 391.2 512 400 512L496 512C504.8 512 512 504.8 512 496L512 336C512 327.2 504.8 320 496 320L400 320zM352 336C352 309.5 373.5 288 400 288L496 288C522.5 288 544 309.5 544 336L544 496C544 522.5 522.5 544 496 544L400 544C373.5 544 352 522.5 352 496L352 336zM240 448L144 448C135.2 448 128 455.2 128 464L128 496C128 504.8 135.2 512 144 512L240 512C248.8 512 256 504.8 256 496L256 464C256 455.2 248.8 448 240 448zM144 416L240 416C266.5 416 288 437.5 288 464L288 496C288 522.5 266.5 544 240 544L144 544C117.5 544 96 522.5 96 496L96 464C96 437.5 117.5 416 144 416zM400 128C391.2 128 384 135.2 384 144L384 176C384 184.8 391.2 192 400 192L496 192C504.8 192 512 184.8 512 176L512 144C512 135.2 504.8 128 496 128L400 128zM352 144C352 117.5 373.5 96 400 96L496 96C522.5 96 544 117.5 544 144L544 176C544 202.5 522.5 224 496 224L400 224C373.5 224 352 202.5 352 176L352 144z"/></svg>