<svg xmlns="http://www.w3.org/2000/svg" viewBox="0 0 640 640"><!--! Font Awesome Pro 7.1.0 by @fontawesome - https://fontawesome.com License - https://fontawesome.com/license (Commercial License) Copyright 2025 Fonticons, Inc. --><path fill="currentColor" d="M0 128C0 157.8 20.4 182.9 48 190L48 290C20.4 297.1 0 322.2 0 352C0 387.3 28.7 416 64 416C93.8 416 118.9 395.6 126 368L322 368C329.1 395.6 354.2 416 384 416C419.3 416 448 387.3 448 352C448 322.2 427.6 297.1 400 290L400 190C427.6 182.9 448 157.8 448 128C448 92.7 419.3 64 384 64C354.2 64 329.1 84.4 322 112L126 112C118.9 84.4 93.8 64 64 64C28.7 64 0 92.7 0 128zM322 144C327.8 166.5 345.5 184.2 368 190L368 290C345.5 295.8 327.8 313.5 322 336L126 336C120.2 313.5 102.5 295.8 80 290L80 190C102.5 184.2 120.2 166.5 126 144L322 144zM496 272L480 272L480 304L514 304C519.8 326.5 537.5 344.2 560 350L560 450C537.5 455.8 519.8 473.5 514 496L318 496C312.2 473.5 294.5 455.8 272 450L272 416L240 416L240 450C212.4 457.1 192 482.2 192 512C192 547.3 220.7 576 256 576C285.8 576 310.9 555.6 318 528L514 528C521.1 555.6 546.2 576 576 576C611.3 576 640 547.3 640 512C640 482.2 619.6 457.1 592 450L592 350C619.6 342.9 640 317.8 640 288C640 252.7 611.3 224 576 224C546.2 224 521.1 244.4 514 272L496 272zM576 320C558.3 320 544 305.7 544 288C544 270.3 558.3 256 576 256C593.7 256 608 270.3 608 288C608 305.7 593.7 320 576 320zM544 512C544 494.3 558.3 480 576 480C593.7 480 608 494.3 608 512C608 529.7 593.7 544 576 544C558.3 544 544 529.7 544 512zM256 544C238.3 544 224 529.7 224 512C224 494.3 238.3 480 256 480C273.7 480 288 494.3 288 512C288 529.7 273.7 544 256 544zM352 352C352 334.3 366.3 320 384 320C401.7 320 416 334.3 416 352C416 369.7 401.7 384 384 384C366.3 384 352 369.7 352 352zM64 384C46.3 384 32 369.7 32 352C32 334.3 46.3 320 64 320C81.7 320 96 334.3 96 352C96 369.7 81.7 384 64 384zM352 128C352 110.3 366.3 96 384 96C401.7 96 416 110.3 416 128C416 145.7 401.7 160 384 160C366.3 160 352 145.7 352 128zM64 160C46.3 160 32 145.7 32 128C32 110.3 46.3 96 64 96C81.7 96 96 110.3 96 128C96 145.7 81.7 160 64 160z"/></svg>