<svg xmlns="http://www.w3.org/2000/svg" viewBox="0 0 640 640"><!--! Font Awesome Pro 7.1.0 by @fontawesome - https://fontawesome.com License - https://fontawesome.com/license (Commercial License) Copyright 2025 Fonticons, Inc. --><path fill="currentColor" d="M394.9 64.1C407.6 64.1 419.9 69.2 428.9 78.2L562.3 211.6C571.3 220.6 576.4 232.8 576.4 245.5L576.4 394.3C576.4 407 571.3 419.3 562.3 428.3L428.8 561.9C419.8 570.9 407.6 576 394.8 576L246 576C233.3 576 221.1 570.9 212.1 561.9L78.6 428.4C69.6 419.4 64.5 407.2 64.5 394.4L64.5 245.6C64.5 232.9 69.6 220.7 78.6 211.7L212.1 78.1C221.1 69.1 233.3 64 246 64L394.8 64zM246 96.1C241.8 96.1 237.7 97.8 234.7 100.8L101.2 234.3C98.2 237.3 96.5 241.4 96.5 245.6L96.5 394.4C96.5 398.6 98.2 402.7 101.2 405.7L234.7 539.3C237.7 542.3 241.8 544 246 544L394.8 544C399 544 403.1 542.3 406.1 539.3L539.7 405.7C542.7 402.7 544.4 398.6 544.4 394.4L544.4 245.6C544.4 241.4 542.7 237.3 539.7 234.3L406.2 100.8C403.2 97.8 399.1 96.1 394.9 96.1L246 96.1zM403.5 230.6C408.7 223.5 418.7 221.9 425.8 227.1C432.9 232.3 434.5 242.3 429.3 249.4L301.3 425.4C298.5 429.2 294.3 431.6 289.6 431.9C284.9 432.2 280.3 430.6 277 427.3L213 363.3C206.8 357.1 206.8 346.9 213 340.7C219.2 334.5 229.4 334.5 235.6 340.7L286.4 391.4L403.4 230.6z"/></svg>