<svg xmlns="http://www.w3.org/2000/svg" viewBox="0 0 640 640"><!--! Font Awesome Pro 7.1.0 by @fontawesome - https://fontawesome.com License - https://fontawesome.com/license (Commercial License) Copyright 2025 Fonticons, Inc. --><path fill="currentColor" d="M64.5 394.4C64.5 407.1 69.6 419.3 78.6 428.3L212.1 561.9C221.1 570.9 233.3 576 246 576L394.8 576C407.5 576 419.7 570.9 428.7 561.9L562.3 428.4C571.3 419.4 576.4 407.2 576.4 394.5L576.4 245.7C576.4 233 571.3 220.8 562.3 211.8L428.8 78.1C419.8 69.1 407.6 64 394.9 64L246 64.1C233.3 64.1 221.1 69.2 212.1 78.2L78.6 211.6C69.6 220.6 64.5 232.8 64.5 245.5L64.5 394.3zM246 96.1L394.8 96.1C399 96.1 403.1 97.8 406.1 100.8L539.7 234.3C542.7 237.3 544.4 241.4 544.4 245.6L544.4 394.4C544.4 398.6 542.7 402.7 539.7 405.7L406.2 539.2C403.2 542.2 399.1 543.9 394.9 543.9L246.1 543.9C241.9 543.9 237.8 542.2 234.8 539.2L101.2 405.7C98.2 402.7 96.5 398.6 96.5 394.4L96.5 245.6C96.5 241.4 98.2 237.3 101.2 234.3L234.7 100.8C237.7 97.8 241.8 96.1 246 96.1zM229.1 228.7C222.9 234.9 222.9 245.1 229.1 251.3L297.8 320L229.1 388.7C222.9 394.9 222.9 405.1 229.1 411.3C235.3 417.5 245.5 417.5 251.7 411.3L320.4 342.6L389.1 411.3C395.3 417.5 405.5 417.5 411.7 411.3C417.9 405.1 417.9 394.9 411.7 388.7L343 320L411.7 251.3C417.9 245.1 417.9 234.9 411.7 228.7C405.5 222.5 395.3 222.5 389.1 228.7L320.4 297.4L251.7 228.7C245.5 222.5 235.3 222.5 229.1 228.7z"/></svg>