<svg xmlns="http://www.w3.org/2000/svg" viewBox="0 0 640 640"><!--! Font Awesome Pro 7.1.0 by @fontawesome - https://fontawesome.com License - https://fontawesome.com/license (Commercial License) Copyright 2025 Fonticons, Inc. --><path fill="currentColor" d="M78.6 428.4C69.6 419.4 64.5 407.2 64.5 394.5L64.5 245.7C64.5 233 69.6 220.8 78.6 211.8L212.1 78.1C221.1 69.1 233.3 64 246 64L394.8 64C407.5 64 419.7 69.1 428.7 78.1L562.3 211.6C571.3 220.6 576.4 232.8 576.4 245.5L576.4 394.3C576.4 407 571.3 419.2 562.3 428.2L428.8 561.9C419.8 570.9 407.6 576 394.9 576L246.1 576C233.4 576 221.2 570.9 212.2 561.9L78.6 428.4zM234.7 100.8L101.2 234.3C98.2 237.3 96.5 241.4 96.5 245.6L96.5 394.4C96.5 398.6 98.2 402.7 101.2 405.7L234.7 539.2C237.7 542.2 241.8 543.9 246 543.9L394.8 543.9C399 543.9 403.1 542.2 406.1 539.2L539.7 405.7C542.7 402.7 544.4 398.6 544.4 394.4L544.4 245.6C544.4 241.4 542.7 237.3 539.7 234.3L406.2 100.8C403.2 97.8 399.1 96.1 394.9 96.1L246 96.1C241.8 96.1 237.7 97.8 234.7 100.8z"/></svg>