<svg xmlns="http://www.w3.org/2000/svg" viewBox="0 0 640 640"><!--! Font Awesome Pro 7.1.0 by @fontawesome - https://fontawesome.com License - https://fontawesome.com/license (Commercial License) Copyright 2025 Fonticons, Inc. --><path fill="currentColor" d="M192 224L192 227.3C192 234.8 192.6 242.4 193.9 249.8L193.9 249.8C204.8 312.3 214.2 366.7 222.3 413.1C223.4 419.4 224 425.8 224 432.2L224 436.1C224 453.2 220 469.4 212.9 483.8L237.3 469.8C262.5 455.4 291 447.8 320 447.8C349 447.8 377.5 455.4 402.7 469.8L427.1 483.8C420 469.5 416 453.3 416 436.2L416 432.3C416 425.9 416.6 419.5 417.7 413.2C425.8 366.8 435.2 312.4 446.1 249.9C447.4 242.5 448 234.9 448 227.4L448 224.1C448 153.4 390.7 96.1 320 96.1C249.3 96.1 192 153.3 192 224zM452.4 400.3L449.2 418.6C448.4 423.1 448 427.7 448 432.3L448 436.2C448 477.4 480.9 510.9 521.8 512C522.6 512 523.4 512 524.3 512C560.6 511.8 591.7 485.9 598.4 450.2L608.4 397.1C610 388.4 618.4 382.7 627.1 384.3C635.8 385.9 641.5 394.3 639.9 403L629.9 456.1C620.4 506.7 576.4 543.5 525 544L525 544L523.9 544C523 544 522.1 544 521.2 544C485.1 543.4 449.7 533.6 418.3 515.7L387 497.8C366.5 486.1 343.4 480 320 480C296.6 480 273.6 486.1 253.2 497.7L221.9 515.6C190.5 533.5 155.1 543.3 119 543.9C118.1 543.9 117.2 543.9 116.3 543.9L115.2 543.9L115.2 543.9C63.8 543.4 19.8 506.6 10.3 456L.3 402.9C-1.3 394.2 4.4 385.9 13.1 384.2C21.8 382.5 30.1 388.3 31.8 397L41.8 450.1C48.5 485.8 79.6 511.7 115.9 511.9C116.7 511.9 117.5 511.9 118.4 511.9C159.3 510.8 192.2 477.3 192.2 436.1L192.2 432.2C192.2 427.6 191.8 423.1 191 418.5L187.8 400.2C176.5 409.9 161.7 415.9 145.4 415.9C114.1 415.9 87.1 393.6 81.3 362.8L76.5 337.7C70.8 308.9 45.5 288 16 288C7.2 288 0 280.8 0 272C0 263.2 7.2 256 16 256C60.8 256 99.3 287.8 107.7 331.9L112.5 357C115.5 372.7 129.2 384.1 145.2 384.1C165.9 384.1 181.5 365.5 178 345.1L178 345.1L162.4 255.4L162.1 253.7C160.7 245.6 160 237.4 160 229.1L160 224.1C160 135.6 231.6 64 320 64C408.4 64 480 135.6 480 224L480 229C480 237.2 479.3 245.5 477.9 253.6L477.6 255.3L462 345C462 345 462 345 462 345C458.5 365.4 474.1 384 494.8 384C510.8 384 524.5 372.6 527.5 356.9L532.3 331.8C540.7 287.8 579.2 255.9 624 255.9C632.8 255.9 640 263.1 640 271.9C640 280.7 632.8 287.9 624 287.9C594.5 287.9 569.2 308.8 563.7 337.8L558.9 362.9C553 393.7 526.1 416 494.8 416C478.5 416 463.7 410.1 452.4 400.3zM272 316C283 316 292 325 292 336C292 347 283 356 272 356C261 356 252 347 252 336C252 325 261 316 272 316zM348 336C348 325 357 316 368 316C379 316 388 325 388 336C388 347 379 356 368 356C357 356 348 347 348 336z"/></svg>