<svg xmlns="http://www.w3.org/2000/svg" viewBox="0 0 640 640"><!--! Font Awesome Pro 7.1.0 by @fontawesome - https://fontawesome.com License - https://fontawesome.com/license (Commercial License) Copyright 2025 Fonticons, Inc. --><path fill="currentColor" d="M336 160C344.8 160 352 152.8 352 144C352 135.2 344.8 128 336 128L176 128C167.2 128 160 135.2 160 144C160 152.8 167.2 160 176 160L240 160L240 224L48 224C21.5 224 0 245.5 0 272L0 334.7C0 354.7 12.4 372.6 31.1 379.6L96 404L96 432C96 458.5 117.5 480 144 480L403.1 480C421.5 480 438.9 472.1 451.1 458.3L633.5 251.7C645.8 237.8 633.2 216.3 615.1 220.2L448 256L397.5 230.8C388.6 226.4 378.8 224 368.9 224L272 224L272 160L336 160zM433.7 284.6C440.2 287.8 447.6 288.8 454.7 287.3L583.8 259.6L427.2 437.1C421.1 444 412.4 447.9 403.2 447.9L144 448C135.2 448 128 440.8 128 432L128 256L368.9 256C373.9 256 378.8 257.2 383.2 259.4L433.7 284.6zM96 369.8L42.4 349.7C36.2 347.4 32 341.4 32 334.7L32 272C32 263.2 39.2 256 48 256L96 256L96 369.8z"/></svg>