<svg xmlns="http://www.w3.org/2000/svg" viewBox="0 0 640 640"><!--! Font Awesome Pro 7.1.0 by @fontawesome - https://fontawesome.com License - https://fontawesome.com/license (Commercial License) Copyright 2025 Fonticons, Inc. --><path fill="currentColor" d="M570.8 288.1C577.7 313.7 562.5 340 536.9 346.9L521.4 351L455.1 103.7L470.6 99.6C496.2 92.7 522.5 107.9 529.4 133.5L570.8 288zM560.3 125.3C548.9 82.6 505 57.3 462.3 68.7L446.9 72.8C429.8 77.4 419.7 95 424.3 112L452.9 218.9L332.5 250.1L319.1 210.8C316.9 204.3 310.8 200 304 200C297.2 200 291.1 204.4 288.9 210.8L269.9 266.4L128 303.2L128 240C128 231.2 120.8 224 112 224C103.2 224 96 231.2 96 240L96 544L48 544C39.2 544 32 551.2 32 560C32 568.8 39.2 576 48 576L592 576C600.8 576 608 568.8 608 560C608 551.2 600.8 544 592 544L432.9 544L431.1 538.8L360.8 332.9L329.7 341L358 424L249.8 424L273.1 355.6L236 365.2L176.7 538.8L174.9 544L127.8 544L127.8 336.2L461 249.8L490.3 359.3C494.9 376.4 512.4 386.5 529.5 381.9L545 377.8C587.7 366.4 613 322.5 601.6 279.8L560.3 125.3zM369 456L399 544L208.8 544L238.8 456L368.9 456z"/></svg>