<svg xmlns="http://www.w3.org/2000/svg" viewBox="0 0 640 640"><!--! Font Awesome Pro 7.1.0 by @fontawesome - https://fontawesome.com License - https://fontawesome.com/license (Commercial License) Copyright 2025 Fonticons, Inc. --><path fill="currentColor" d="M592 436C602.1 436 606.2 444.2 610.6 451.5C623.5 472.5 640 498.4 640 524C640 552 621.2 576 592 576C563.8 576 544 550.9 544 524C544 498.3 560.5 472.4 573.4 451.5C577.9 444.2 582 436 592 436zM614.4 284.8C632.5 280.8 645.3 302.3 633 316.2L451.1 522.3C439 536.1 421.5 544 403.1 544L144 544L139.1 543.8C114.9 541.3 96 520.8 96 496L96 468L31.2 443.7C13.6 437.1 1.6 421 .2 402.5L0 398.7L0 336C0 309.5 21.5 288 48 288L220.1 288C212.4 297.6 206.1 308.4 201.3 320L128 320L128 496C128 504.8 135.2 512 144 512L403.1 512C412.3 512 421 508.1 427.1 501.2L582.9 324.6L447.3 354.7C446.2 343.9 443.7 333.4 440 323.5L614.4 284.8zM592 483.1C585.5 494.8 576 510.1 576 524C576 536.9 584.9 544 592 544C603.6 544 608 534.5 608 524C608 510.1 598.5 494.8 592 483.1zM400 64C408.8 64 416 71.2 416 80C416 88.8 408.8 96 400 96L336 96L336 160L400 160C408.8 160 416 167.2 416 176C416 184.8 408.8 192 400 192L336 192L336 289.6C372.5 297 400 329.3 400 368C400 412.2 364.2 448 320 448C275.8 448 240 412.2 240 368C240 329.3 267.5 297 304 289.6L304 80C304 71.2 311.2 64 320 64L400 64zM48 320C39.2 320 32 327.2 32 336L32 398.7C32 405.4 36.1 411.3 42.4 413.7L96 433.8L96 320L48 320zM320 320C293.5 320 272 341.5 272 368C272 394.5 293.5 416 320 416C346.5 416 368 394.5 368 368C368 341.5 346.5 320 320 320z"/></svg>