<svg xmlns="http://www.w3.org/2000/svg" viewBox="0 0 640 640"><!--! Font Awesome Pro 7.1.0 by @fontawesome - https://fontawesome.com License - https://fontawesome.com/license (Commercial License) Copyright 2025 Fonticons, Inc. --><path fill="currentColor" d="M352 144C352 152.8 344.8 160 336 160L272 160L272 224L368.9 224C378.8 224 388.6 226.3 397.5 230.8L448 256L615 220.2C633.1 216.3 645.7 237.8 633.4 251.7L451.1 458.3C439 472.1 421.5 480 403.1 480L144 480C117.5 480 96 458.5 96 432L96 404L31.1 379.7C12.4 372.7 0 354.7 0 334.7L0 272C0 245.5 21.5 224 48 224L240 224L240 160L176 160C167.2 160 160 152.8 160 144C160 135.2 167.2 128 176 128L336 128C344.8 128 352 135.2 352 144zM454.7 287.3C447.6 288.8 440.2 287.9 433.7 284.6L383.2 259.4C378.8 257.2 373.9 256 368.9 256L128 256L128 432C128 440.8 135.2 448 144 448L403.1 448C412.3 448 421 444.1 427.1 437.2L583.7 259.7L454.6 287.4zM96 256L48 256C39.2 256 32 263.2 32 272L32 334.7C32 341.4 36.1 347.3 42.4 349.7L96 369.8L96 256zM574.5 385.7C578.6 378.9 582.8 372 592 372C601.2 372 605.5 378.9 609.5 385.7C609.9 386.3 610.2 386.9 610.6 387.5C611 388.2 611.4 388.8 611.8 389.5C624.5 410.1 639.9 435.2 639.9 460C639.9 488 621.1 512 591.9 512C563.7 512 543.9 486.9 543.9 460C543.9 435.2 559.3 410.1 572 389.5C572.4 388.8 572.8 388.2 573.2 387.5C573.6 386.9 573.9 386.3 574.3 385.7zM594.3 423.1C593.5 421.7 592.8 420.4 592 419.1C591.3 420.4 590.5 421.8 589.7 423.1C583.5 434.2 576 447.6 576 460C576 472.9 584.9 480 592 480C603.6 480 608 470.5 608 460C608 447.6 600.5 434.2 594.3 423.1z"/></svg>