<svg xmlns="http://www.w3.org/2000/svg" viewBox="0 0 640 640"><!--! Font Awesome Pro 7.1.0 by @fontawesome - https://fontawesome.com License - https://fontawesome.com/license (Commercial License) Copyright 2025 Fonticons, Inc. --><path fill="currentColor" d="M128 160C89.1 160 59.2 142.1 41.6 128C59.2 113.9 89.1 96 128 96C166.9 96 196.8 113.9 214.4 128C196.8 142.1 166.9 160 128 160zM128 64C59.2 64 14.1 108.2 2.8 120.6C.9 122.6 0 125.2 0 128C0 130.8 .9 133.4 2.8 135.4C10.9 144.4 36.8 170 76.5 183.5C30.6 211.6 0 262.2 0 320L0 336C0 344.8 7.2 352 16 352L48 352C136.4 352 208 280.4 208 192L208 178.4L330.4 119.6C362.8 104.1 398.3 96 434.3 96L624 96C632.8 96 640 88.8 640 80C640 71.2 632.8 64 624 64L434.3 64C393.6 64 353.3 73.2 316.6 90.8L253.6 121C253.5 120.8 253.3 120.7 253.2 120.6C241.9 108.2 196.8 64 128 64zM175.7 192C175.8 192 175.9 192 176 192C176 262.7 118.7 320 48 320L32 320C32 249.3 89.3 192 160 192L175.7 192zM412.2 500.6C390.7 529.2 363.4 544 336 544C308.6 544 281.3 529.2 259.8 500.6C238.3 472 224 430.8 224 384C224 337.2 238.3 296.1 259.8 267.4C281.3 238.8 308.6 224 336 224C363.4 224 390.7 238.8 412.2 267.4C433.7 296.1 448 337.2 448 384C448 430.8 433.7 471.9 412.2 500.6zM336 576C415.5 576 480 490 480 384C480 278 415.5 192 336 192C256.5 192 192 278 192 384C192 490 256.5 576 336 576zM465.7 535.8C518.6 552.3 571.2 544.2 605.3 508.8C661.5 450.5 646.3 340.2 571.4 262.4C528.5 217.9 475.3 193.7 427.2 192.1C440.8 202.5 452.9 215 463.4 229C463.9 229.7 464.4 230.4 464.9 231C493.2 240 522.6 257.8 548.3 284.5C581.4 318.9 600.7 359.8 605.8 397.1C611 434.6 601.9 466 582.2 486.4C562.7 506.6 533.3 515.6 498.2 510.4C493.2 509.7 488.1 508.6 483 507.3C477.8 517.3 472 526.8 465.6 535.6z"/></svg>