<svg xmlns="http://www.w3.org/2000/svg" viewBox="0 0 640 640"><!--! Font Awesome Pro 7.1.0 by @fontawesome - https://fontawesome.com License - https://fontawesome.com/license (Commercial License) Copyright 2025 Fonticons, Inc. --><path fill="currentColor" d="M256 512C185.3 512 128 454.7 128 384C128 299.2 167.8 235.7 219.7 192.6C272.6 148.7 335.5 128 376 128C402.6 128 436.9 144.8 466 174C495.1 203.2 512 237.5 512 264C512 304.5 491.3 367.5 447.4 420.3C404.3 472.1 340.8 512 256 512zM96 384C96 472.4 167.6 544 256 544C448 544 544 362.1 544 264C544 187.5 452.5 96 376 96C277.9 96 96 192 96 384zM356.4 196.4C360 192.8 367.6 190.2 380.6 193.4C393.2 196.6 408.2 204.9 421.6 218.3C435 231.7 443.4 246.7 446.5 259.3C449.7 272.3 447.1 279.9 443.5 283.5C439.9 287.1 432.3 289.7 419.3 286.5C406.7 283.3 391.7 275 378.3 261.6C364.9 248.2 356.5 233.2 353.4 220.6C350.2 207.6 352.8 200 356.4 196.4zM444.2 195.7C427.3 178.8 407.5 167.1 388.3 162.3C369.5 157.6 348.4 159.1 333.8 173.7C319.2 188.3 317.7 209.5 322.4 228.2C327.2 247.3 338.9 267.2 355.8 284.1C372.7 301 392.5 312.7 411.7 317.5C430.5 322.2 451.6 320.7 466.2 306.1C480.8 291.5 482.3 270.3 477.6 251.6C472.8 232.5 461.1 212.6 444.2 195.7z"/></svg>