<svg xmlns="http://www.w3.org/2000/svg" viewBox="0 0 640 640"><!--! Font Awesome Pro 7.1.0 by @fontawesome - https://fontawesome.com License - https://fontawesome.com/license (Commercial License) Copyright 2025 Fonticons, Inc. --><path fill="currentColor" d="M420.7 68.7C426.9 62.5 437.1 62.5 443.3 68.7L483.3 108.7C489.5 114.9 489.5 125.1 483.3 131.3L443.3 171.3C437.1 177.5 426.9 177.5 420.7 171.3L380.7 131.3C374.5 125.1 374.5 114.9 380.7 108.7L420.7 68.7zM414.6 120L432 137.4L449.4 120L432 102.6L414.6 120zM208 192C193.6 192 180.3 196.8 169.6 204.8C162.5 210.1 152.5 208.7 147.2 201.6C141.9 194.5 143.3 184.5 150.4 179.2C166.4 167.1 186.4 160 208 160C261 160 304 203 304 256C304 280.6 294.8 303 279.6 320L359 320C376 320 392.2 313.3 404.2 301.3L423.2 282.3C440 265.5 462.8 256.1 486.5 256.1C535.9 256.1 576 296.2 576 345.6L576 456C576 504.6 536.6 544 488 544L472 544C423.4 544 384 504.6 384 456L384 448C384 439.2 391.2 432 400 432C408.8 432 416 439.2 416 448L416 456C416 486.9 441.1 512 472 512L488 512C518.9 512 544 486.9 544 456L544 345.5C544 313.7 518.2 288 486.5 288C471.2 288 456.6 294.1 445.8 304.9L426.8 323.9C408.8 341.9 384.4 352 359 352L303.4 352C333 375.1 352.1 409.1 352.1 448C352.1 520.6 285.6 576 208.1 576C130.6 576 64 520.6 64 448C64 439.2 71.2 432 80 432C88.8 432 96 439.2 96 448C96 499.1 144.1 544 208 544C271.9 544 320 499.1 320 448C320 396.9 271.9 352 208 352L192 352C183.2 352 176 344.8 176 336C176 327.2 183.2 320 192 320L208 320C243.3 320 272 291.3 272 256C272 220.7 243.3 192 208 192zM356.5 158.1C351 151.1 341 150 334.1 155.5C327.2 161 326 171.1 331.5 178C353.9 206.2 390.9 224 432 224C473.1 224 510.1 206.2 532.5 177.9C538 171 536.8 160.9 529.9 155.4C523 149.9 512.9 151.1 507.4 158C491.5 178 464 191.9 431.9 191.9C399.8 191.9 372.3 178 356.4 158z"/></svg>