<svg xmlns="http://www.w3.org/2000/svg" viewBox="0 0 640 640"><!--! Font Awesome Pro 7.1.0 by @fontawesome - https://fontawesome.com License - https://fontawesome.com/license (Commercial License) Copyright 2025 Fonticons, Inc. --><path fill="currentColor" d="M320 128C214 128 128 214 128 320C128 389.5 164.9 450.4 220.3 484.1C229.7 489.8 236.2 500.2 236.2 512C236.2 529.7 221.9 544 204.2 544L112 544C103.2 544 96 536.8 96 528C96 519.2 103.2 512 112 512L204.1 511.9C139.6 472.6 96 401.1 96 320C96 196.3 196.3 96 320 96C443.7 96 544 196.3 544 320C544 401.1 500.4 472.6 435.9 511.9L528 512C536.8 512 544 519.2 544 528C544 536.8 536.8 544 528 544L435.8 544C418.1 544 403.8 529.7 403.8 512C403.8 500.2 410.3 489.8 419.7 484.1C475.1 450.4 512 389.5 512 320C512 214 426 128 320 128z"/></svg>