<svg xmlns="http://www.w3.org/2000/svg" viewBox="0 0 640 640"><!--! Font Awesome Pro 7.1.0 by @fontawesome - https://fontawesome.com License - https://fontawesome.com/license (Commercial License) Copyright 2025 Fonticons, Inc. --><path fill="currentColor" d="M512 160C529.7 160 544 174.3 544 192L544 448C544 465.7 529.7 480 512 480L128 480C110.3 480 96 465.7 96 448L96 192C96 174.3 110.3 160 128 160L512 160zM128 128C92.7 128 64 156.7 64 192L64 448C64 483.3 92.7 512 128 512L512 512C547.3 512 576 483.3 576 448L576 192C576 156.7 547.3 128 512 128L128 128zM392 256L424 256C437.3 256 448 266.7 448 280C448 288.8 455.2 296 464 296C472.8 296 480 288.8 480 280C480 249.1 454.9 224 424 224L392 224C361.1 224 336 249.1 336 280L336 360C336 390.9 361.1 416 392 416L424 416C454.9 416 480 390.9 480 360C480 351.2 472.8 344 464 344C455.2 344 448 351.2 448 360C448 373.3 437.3 384 424 384L392 384C378.7 384 368 373.3 368 360L368 280C368 266.7 378.7 256 392 256zM192 280C192 266.7 202.7 256 216 256L248 256C261.3 256 272 266.7 272 280L272 360C272 373.3 261.3 384 248 384L216 384C202.7 384 192 373.3 192 360L192 280zM216 224C185.1 224 160 249.1 160 280L160 360C160 390.9 185.1 416 216 416L248 416C278.9 416 304 390.9 304 360L304 280C304 249.1 278.9 224 248 224L216 224z"/></svg>