<svg xmlns="http://www.w3.org/2000/svg" viewBox="0 0 640 640"><!--! Font Awesome Pro 7.1.0 by @fontawesome - https://fontawesome.com License - https://fontawesome.com/license (Commercial License) Copyright 2025 Fonticons, Inc. --><path fill="currentColor" d="M178 171.7C171.9 164.3 162.8 160 153.2 160L16 160C7.2 160 0 152.8 0 144C0 135.2 7.2 128 16 128L153.3 128C172.5 128 190.7 136.6 202.8 151.5L462 468.3C468.1 475.7 477.2 480 486.8 480L624 480C632.8 480 640 487.2 640 496C640 504.8 632.8 512 624 512L486.7 512C467.5 512 449.3 503.4 437.2 488.5L178 171.7zM624 128C632.8 128 640 135.2 640 144C640 152.8 632.8 160 624 160L432 160C423.2 160 416 152.8 416 144C416 135.2 423.2 128 432 128L624 128z"/></svg>