<svg xmlns="http://www.w3.org/2000/svg" viewBox="0 0 640 640"><!--! Font Awesome Pro 7.1.0 by @fontawesome - https://fontawesome.com License - https://fontawesome.com/license (Commercial License) Copyright 2025 Fonticons, Inc. --><path fill="currentColor" d="M320 32C284.7 32 256 60.7 256 96L256 137.3C163.5 164.8 96 250.5 96 352C96 475.7 196.3 576 320 576C443.7 576 544 475.7 544 352C544 250.5 476.5 164.8 384 137.3L384 96C384 60.7 355.3 32 320 32zM352 130.3C341.5 128.8 330.9 128 320 128C309.1 128 298.5 128.8 288 130.3L288 96C288 78.3 302.3 64 320 64C337.7 64 352 78.3 352 96L352 130.3zM486.3 448C453.1 505.4 391.1 544 320 544C248.9 544 186.9 505.4 153.7 448L486.3 448zM501.1 416L138.9 416C131.8 396 128 374.4 128 352C128 329.6 131.8 308 138.9 288L501.1 288C508.2 308 512 329.6 512 352C512 374.4 508.2 396 501.1 416zM320 160C391.1 160 453.1 198.6 486.3 256L153.7 256C186.9 198.6 248.9 160 320 160z"/></svg>