<svg xmlns="http://www.w3.org/2000/svg" viewBox="0 0 640 640"><!--! Font Awesome Pro 7.1.0 by @fontawesome - https://fontawesome.com License - https://fontawesome.com/license (Commercial License) Copyright 2025 Fonticons, Inc. --><path fill="currentColor" d="M145.7 275.4L132.8 281.8C124.7 285.9 115.7 288 106.6 288C74.2 288 48 261.8 48 229.4L48 208C48 163.8 83.8 128 128 128L192 128C236.2 128 272 163.8 272 208L272 229.4C272 261.8 245.8 288 213.4 288C204.3 288 195.3 285.9 187.2 281.8L174.3 275.4C165.3 270.9 154.7 270.9 145.7 275.4zM16 208L16 229.4C16 248.5 21.9 266.2 32 280.8L32 320.6C32 444 132 544 255.4 544L414.9 544C539.2 544 640 443.2 640 318.9C640 228.2 576 150.1 487 132.3L467.1 128.3C458.8 126.6 450.7 131.7 448.5 139.9C446.3 148.1 450.9 156.5 458.9 159.2L480.5 166.4C518.4 179 543.9 214.5 543.9 254.4C543.9 270.8 537.9 285.8 527.9 297.3L527.9 256C527.9 247.2 520.7 240 511.9 240C467.7 240 431.9 275.8 431.9 320L367.9 320C394.4 320 415.9 298.5 415.9 272C415.9 245.5 394.4 224 367.9 224L359.9 224C339 224 319.5 230.2 303.2 240.8C303.7 237.1 303.9 233.2 303.9 229.4L303.9 208C303.9 202.6 303.5 197.2 302.8 192L303.9 192C312.7 192 319.9 184.8 319.9 176C319.9 167.2 312.7 160 303.9 160L293.1 160C275.1 122.2 236.6 96 191.9 96L127.9 96C83.3 96 44.8 122.2 26.8 160L16 160C7.2 160 0 167.2 0 176C0 184.8 7.2 192 16 192L17.1 192C16.4 197.2 16 202.6 16 208zM112 352C87.4 352 67.1 333.4 64.3 309.5C76.9 316.2 91.3 320 106.6 320C120.7 320 134.5 316.7 147.1 310.4L160 304L172.9 310.4C185.5 316.7 199.4 320 213.4 320C230.1 320 245.7 315.5 259.1 307.7C267.4 333.4 291.5 352 320 352L376.4 352C361.2 369 352 391.4 352 416L269.3 416C271.1 411 272 405.6 272 400C272 373.5 250.5 352 224 352L112 352zM319.8 320C308 319.9 297.6 313.4 292.2 303.8C302.1 275.9 328.8 256 360 256L368 256C376.8 256 384 263.2 384 272C384 280.8 376.8 288 368 288L360 288C340.6 288 324.5 301.7 320.8 320L319.8 320zM528 397.7L528 338.4C556.7 321.4 576 290.1 576 254.3C576 241 573.9 228 569.9 215.8C593.8 243.7 608 279.8 608 318.8C608 425.5 521.5 511.9 414.9 511.9L255.4 511.9C167.8 512 93.9 453.1 71.2 372.8C83.1 379.9 97.1 384 112 384L224 384C232.8 384 240 391.2 240 400C240 408.8 232.8 416 224 416L160 416C151.2 416 144 423.2 144 432C144 440.8 151.2 448 160 448L368 448C376.8 448 384 440.8 384 432L384 416C384 380.7 412.5 352.2 447.7 352L448 352C456.8 352 464 344.8 464 336L464 320C464 299.1 477.4 281.3 496 274.7L496 397.7C496 413.8 488 428.7 474.6 437.6L455.1 450.6C447.7 455.5 445.8 465.4 450.7 472.8C455.6 480.2 465.5 482.1 472.9 477.2L492.4 464.2C514.7 449.4 528 424.4 528 397.6zM112 208C112 199.2 104.8 192 96 192C87.2 192 80 199.2 80 208C80 216.8 87.2 224 96 224C104.8 224 112 216.8 112 208zM224 224C232.8 224 240 216.8 240 208C240 199.2 232.8 192 224 192C215.2 192 208 199.2 208 208C208 216.8 215.2 224 224 224zM152 208C138.7 208 128 218.7 128 232L128 240C128 246.1 131.4 251.6 136.8 254.3L152.8 262.3C157.3 264.6 162.6 264.6 167.1 262.3L183.1 254.3C188.5 251.6 191.9 246 191.9 240L191.9 232C191.9 218.7 181.2 208 167.9 208L151.9 208z"/></svg>