<svg xmlns="http://www.w3.org/2000/svg" viewBox="0 0 640 640"><!--! Font Awesome Pro 7.1.0 by @fontawesome - https://fontawesome.com License - https://fontawesome.com/license (Commercial License) Copyright 2025 Fonticons, Inc. --><path fill="currentColor" d="M160 128C142.3 128 128 142.3 128 160L128 480C128 497.7 142.3 512 160 512L480 512C497.7 512 512 497.7 512 480L512 160C512 142.3 497.7 128 480 128L160 128zM96 160C96 124.7 124.7 96 160 96L480 96C515.3 96 544 124.7 544 160L544 480C544 515.3 515.3 544 480 544L160 544C124.7 544 96 515.3 96 480L96 160zM208 320C208 369.2 232.6 399.3 247.5 413.1C248.7 414.2 251.8 416 258.4 416L381.7 416C388.3 416 391.4 414.2 392.6 413.1C407.5 399.3 432.1 369.2 432.1 320C432.1 270.8 407.5 240.7 392.6 226.9C391.4 225.8 388.3 224 381.7 224L258.4 224C251.8 224 248.7 225.8 247.5 226.9C232.6 240.7 208 270.8 208 320zM176 320C176 258.9 206.8 220.9 225.7 203.4C234.5 195.2 246.4 192 258.3 192L381.6 192C393.6 192 405.5 195.3 414.2 203.4C433.1 220.9 463.9 258.9 463.9 320C463.9 381.1 433.1 419 414.2 436.6C405.4 444.8 393.5 448 381.6 448L258.3 448C246.3 448 234.4 444.7 225.7 436.6C206.8 419.1 176 381.1 176 320zM272 256C280.8 256 288 263.2 288 272L288 304C288 312.8 280.8 320 272 320C263.2 320 256 312.8 256 304L256 272C256 263.2 263.2 256 272 256zM368 256C376.8 256 384 263.2 384 272L384 304C384 312.8 376.8 320 368 320C359.2 320 352 312.8 352 304L352 272C352 263.2 359.2 256 368 256zM320 336C333.3 336 344 346.7 344 360L344 384L296 384L296 360C296 346.7 306.7 336 320 336z"/></svg>