<svg xmlns="http://www.w3.org/2000/svg" viewBox="0 0 640 640"><!--! Font Awesome Pro 7.1.0 by @fontawesome - https://fontawesome.com License - https://fontawesome.com/license (Commercial License) Copyright 2025 Fonticons, Inc. --><path fill="currentColor" d="M448 96C483.3 96 512 124.7 512 160L512 256L128 256L128 160C128 124.7 156.7 96 192 96L448 96zM512 288L512 512C512 529.7 497.7 544 480 544L160 544C142.3 544 128 529.7 128 512L128 288L512 288zM192 64C139 64 96 107 96 160L96 512C96 547.3 124.7 576 160 576L480 576C515.3 576 544 547.3 544 512L544 160C544 107 501 64 448 64L192 64zM224 176C224 162.7 213.3 152 200 152C186.7 152 176 162.7 176 176C176 189.3 186.7 200 200 200C213.3 200 224 189.3 224 176zM280 200C293.3 200 304 189.3 304 176C304 162.7 293.3 152 280 152C266.7 152 256 162.7 256 176C256 189.3 266.7 200 280 200zM384 176C384 162.7 373.3 152 360 152C346.7 152 336 162.7 336 176C336 189.3 346.7 200 360 200C373.3 200 384 189.3 384 176zM440 200C453.3 200 464 189.3 464 176C464 162.7 453.3 152 440 152C426.7 152 416 162.7 416 176C416 189.3 426.7 200 440 200zM192 368C192 376.8 199.2 384 208 384L432 384C440.8 384 448 376.8 448 368C448 359.2 440.8 352 432 352L208 352C199.2 352 192 359.2 192 368z"/></svg>