<svg xmlns="http://www.w3.org/2000/svg" viewBox="0 0 640 640"><!--! Font Awesome Pro 7.1.0 by @fontawesome - https://fontawesome.com License - https://fontawesome.com/license (Commercial License) Copyright 2025 Fonticons, Inc. --><path fill="currentColor" d="M144 96C135.2 96 128 88.8 128 80C128 71.2 135.2 64 144 64L496 64C504.8 64 512 71.2 512 80C512 88.8 504.8 96 496 96L144 96zM480 384C480 295.6 408.4 224 320 224C231.6 224 160 295.6 160 384C160 472.4 231.6 544 320 544C408.4 544 480 472.4 480 384zM128 384C128 278 214 192 320 192C426 192 512 278 512 384C512 490 426 576 320 576C214 576 128 490 128 384z"/></svg>