<svg xmlns="http://www.w3.org/2000/svg" viewBox="0 0 640 640"><!--! Font Awesome Pro 7.1.0 by @fontawesome - https://fontawesome.com License - https://fontawesome.com/license (Commercial License) Copyright 2025 Fonticons, Inc. --><path fill="currentColor" d="M512 160C529.7 160 544 174.3 544 192L544 448C544 465.7 529.7 480 512 480L128 480C110.3 480 96 465.7 96 448L96 192C96 174.3 110.3 160 128 160L512 160zM128 128C92.7 128 64 156.7 64 192L64 448C64 483.3 92.7 512 128 512L512 512C547.3 512 576 483.3 576 448L576 192C576 156.7 547.3 128 512 128L128 128zM144 416C144 424.8 151.2 432 160 432L224 432C232.8 432 240 424.8 240 416C240 407.2 232.8 400 224 400L160 400C151.2 400 144 407.2 144 416zM288 416C288 424.8 295.2 432 304 432L368 432C376.8 432 384 424.8 384 416C384 407.2 376.8 400 368 400L304 400C295.2 400 288 407.2 288 416zM176 240L464 240L464 320L176 320L176 240zM144 240L144 320C144 337.7 158.3 352 176 352L464 352C481.7 352 496 337.7 496 320L496 240C496 222.3 481.7 208 464 208L176 208C158.3 208 144 222.3 144 240z"/></svg>