<svg xmlns="http://www.w3.org/2000/svg" viewBox="0 0 640 640"><!--! Font Awesome Pro 7.1.0 by @fontawesome - https://fontawesome.com License - https://fontawesome.com/license (Commercial License) Copyright 2025 Fonticons, Inc. --><path fill="currentColor" d="M192 96C174.3 96 160 110.3 160 128L160 512C160 529.7 174.3 544 192 544L448 544C465.7 544 480 529.7 480 512L480 250.5C480 242 476.6 233.9 470.6 227.9L348.1 105.4C342.1 99.4 334 96 325.5 96L192 96zM128 128C128 92.7 156.7 64 192 64L325.5 64C342.5 64 358.8 70.7 370.8 82.7L493.3 205.3C505.3 217.3 512 233.6 512 250.6L512 512C512 547.3 483.3 576 448 576L192 576C156.7 576 128 547.3 128 512L128 128zM319.3 391.7C319.5 391.9 319.7 392 320 392C320.3 392 320.5 391.9 320.7 391.7L379.3 320L260.6 320L319.2 391.7zM320 424C310.1 424 300.8 419.6 294.6 411.9L230.3 333.3C226.2 328.3 224 322.1 224 315.7C224 300.4 236.4 287.9 251.8 287.9L388.2 287.9C403.6 287.9 416 300.3 416 315.7C416 322.1 413.8 328.3 409.7 333.3L345.4 411.9C339.2 419.5 329.8 424 320 424z"/></svg>