<svg xmlns="http://www.w3.org/2000/svg" viewBox="0 0 640 640"><!--! Font Awesome Pro 7.1.0 by @fontawesome - https://fontawesome.com License - https://fontawesome.com/license (Commercial License) Copyright 2025 Fonticons, Inc. --><path fill="currentColor" d="M416 96C433.7 96 448 110.3 448 128L448 192C448 209.7 433.7 224 416 224L128 224C110.3 224 96 209.7 96 192L96 128C96 110.3 110.3 96 128 96L416 96zM128 64C92.7 64 64 92.7 64 128L64 192C64 227.3 92.7 256 128 256L416 256C451.3 256 480 227.3 480 192L480 176L496 176C513.7 176 528 190.3 528 208L528 288C528 305.7 513.7 320 496 320L336 320C300.7 320 272 348.7 272 384C245.5 384 224 405.5 224 432L224 560C224 586.5 245.5 608 272 608L304 608C330.5 608 352 586.5 352 560L352 432C352 405.5 330.5 384 304 384C304 366.3 318.3 352 336 352L496 352C531.3 352 560 323.3 560 288L560 208C560 172.7 531.3 144 496 144L480 144L480 128C480 92.7 451.3 64 416 64L128 64zM304 416C312.8 416 320 423.2 320 432L320 560C320 568.8 312.8 576 304 576L272 576C263.2 576 256 568.8 256 560L256 432C256 423.2 263.2 416 272 416L304 416z"/></svg>