<svg xmlns="http://www.w3.org/2000/svg" viewBox="0 0 640 640"><!--! Font Awesome Pro 7.1.0 by @fontawesome - https://fontawesome.com License - https://fontawesome.com/license (Commercial License) Copyright 2025 Fonticons, Inc. --><path fill="currentColor" d="M59.3 36.8C53.1 30.6 42.9 30.6 36.7 36.8C30.5 43 30.5 53.2 36.7 59.4L580.7 603.4C586.9 609.6 597.1 609.6 603.3 603.4C609.5 597.2 609.5 587 603.3 580.8L425.9 403.4C431.7 398.2 437 392.3 441.7 385.9L594.5 175.7C603.2 163.7 608 149.2 608 134.3C608 95.5 576.5 64 537.7 64C522.8 64 508.4 68.7 496.3 77.5L286.1 230.3C279.7 235 273.8 240.3 268.6 246.1L59.3 36.8zM291.3 268.8C295.2 264.2 299.7 260 304.9 256.2L515.1 103.3C521.7 98.5 529.5 96 537.6 96C558.8 96 575.9 113.2 575.9 134.3C575.9 142.4 573.3 150.3 568.6 156.8L415.8 367.1C412 372.3 407.8 376.9 403.2 380.7L291.3 268.8zM224 320C153.3 320 96 377.3 96 448C96 463.5 98.8 478.4 103.8 492.2C111.4 513 98 544 75.8 544L48 544C39.2 544 32 551.2 32 560C32 568.8 39.2 576 48 576L224 576C294.7 576 352 518.7 352 448C352 446.1 352 444.2 351.9 442.4L303.2 393.7C313.8 409.2 320 427.9 320 448C320 501 277 544 224 544L127.6 544C138.4 525.3 141.4 501.5 133.9 481.1C130.1 470.8 128 459.7 128 448C128 395 171 352 224 352C244.2 352 262.9 358.2 278.3 368.8L229.6 320.1C227.7 320 225.9 320 224 320z"/></svg>