<svg xmlns="http://www.w3.org/2000/svg" viewBox="0 0 640 640"><!--! Font Awesome Pro 7.1.0 by @fontawesome - https://fontawesome.com License - https://fontawesome.com/license (Commercial License) Copyright 2025 Fonticons, Inc. --><path fill="currentColor" d="M107.8 200.5C100.2 192.9 96 182.7 96 172C96 161.3 100.2 151.1 107.8 143.5L143.5 107.8C151.1 100.2 161.3 96 172 96C182.7 96 192.9 100.2 200.5 107.8L301.1 208.4L323.7 185.8L223.1 85.2C209.6 71.6 191.2 64 172 64C152.8 64 134.4 71.6 120.9 85.2L85.2 120.9C71.6 134.4 64 152.8 64 172C64 191.2 71.6 209.6 85.2 223.1L150.2 288.1C160.9 283.2 172.2 279.3 183.9 276.5L107.8 200.5zM383.9 521.5C393.7 529.9 405.3 536.1 417.8 539.6L545.6 575.1C553.9 577.4 562.9 575.1 569 568.9C575.1 562.7 577.5 553.8 575.2 545.5L539.6 417.8C535.5 403.2 527.8 389.9 517 379.1L486.2 348.3L463.6 370.9L494.4 401.7C501.2 408.5 506.2 417 508.8 426.3L540.5 540.4L426.4 508.7C417.1 506.1 408.6 501.2 401.8 494.3L395.5 488C392.8 499.6 388.9 510.8 384 521.4zM541.1 96C560.4 96 576 111.6 576 130.9C576 140.2 572.3 149 565.8 155.6L335.8 385.6C324.2 364.9 307.1 347.8 286.4 336.2L516.4 106.2C523 99.7 531.8 96 541.1 96zM493.8 83.6L253.9 323.5C244.3 321.2 234.3 320 224 320C153.3 320 96 377.3 96 448C96 463.5 98.8 478.4 103.8 492.2C111.4 513 98 544 75.8 544L48 544C39.2 544 32 551.2 32 560C32 568.8 39.2 576 48 576L224 576C294.7 576 352 518.7 352 448C352 437.7 350.8 427.7 348.5 418.1L588.4 178.2C601 165.7 608 148.7 608 130.9C608 94 578 64 541.1 64C523.3 64 506.3 71 493.8 83.6zM224 544L127.6 544C128.3 542.7 129 541.4 129.7 540.2C138 523.5 141.4 501.3 133.9 481.2C130.1 470.9 128 459.8 128 448.1C128 395.1 171 352.1 224 352.1C277 352.1 320 395.1 320 448.1C320 501.1 277 544.1 224 544.1z"/></svg>