<svg xmlns="http://www.w3.org/2000/svg" viewBox="0 0 640 640"><!--! Font Awesome Pro 7.1.0 by @fontawesome - https://fontawesome.com License - https://fontawesome.com/license (Commercial License) Copyright 2025 Fonticons, Inc. --><path fill="currentColor" d="M544 322.3C543.9 336.4 530.2 352 505.9 352L408 352C363.8 352 328 387.8 328 432C328 437.6 328.6 443.2 329.7 448.6C332.6 462.4 338.6 475.9 342.9 485.6C343.7 487.3 344.4 488.9 345 490.4C350 502 351.9 508.6 351.9 513.9C351.9 533.1 339.6 543.5 329.2 543.9C326.1 544 323 544.1 319.9 544.1C196.2 544.1 95.9 443.8 95.9 320.1C95.9 196.4 196.3 96 320 96C443.7 96 544 196.3 544 320C544 320.8 544 321.6 544 322.3zM576 322.6C576 321.7 576 320.8 576 319.9C576 178.5 461.4 63.9 320 63.9C178.6 63.9 64 178.6 64 320C64 461.4 178.6 576 320 576C323.5 576 327.1 575.9 330.6 575.8C362.4 574.5 384 545.7 384 513.8C384 499.3 377.9 485.5 371.9 471.8C367.6 462 363.2 452.1 361.1 441.9C360.4 438.7 360.1 435.4 360.1 432C360.1 405.5 381.6 384 408.1 384L506 384C542.5 384 575.7 359.2 576.1 322.7zM216 320C216 306.7 205.3 296 192 296C178.7 296 168 306.7 168 320C168 333.3 178.7 344 192 344C205.3 344 216 333.3 216 320zM224 248C237.3 248 248 237.3 248 224C248 210.7 237.3 200 224 200C210.7 200 200 210.7 200 224C200 237.3 210.7 248 224 248zM344 192C344 178.7 333.3 168 320 168C306.7 168 296 178.7 296 192C296 205.3 306.7 216 320 216C333.3 216 344 205.3 344 192zM416 248C429.3 248 440 237.3 440 224C440 210.7 429.3 200 416 200C402.7 200 392 210.7 392 224C392 237.3 402.7 248 416 248z"/></svg>