<svg xmlns="http://www.w3.org/2000/svg" viewBox="0 0 640 640"><!--! Font Awesome Pro 7.1.0 by @fontawesome - https://fontawesome.com License - https://fontawesome.com/license (Commercial License) Copyright 2025 Fonticons, Inc. --><path fill="currentColor" d="M48 384C39.2 384 32 391.2 32 400C32 408.8 39.2 416 48 416L112 416L112 544L48 544C39.2 544 32 551.2 32 560C32 568.8 39.2 576 48 576L592 576C600.8 576 608 568.8 608 560C608 551.2 600.8 544 592 544L528 544L528 416L592 416C600.8 416 608 408.8 608 400C608 391.2 600.8 384 592 384L48 384zM496 416L496 544L336 544L336 416L496 416zM304 544L144 544L144 416L304 416L304 544z"/></svg>