<svg xmlns="http://www.w3.org/2000/svg" viewBox="0 0 640 640"><!--! Font Awesome Pro 7.1.0 by @fontawesome - https://fontawesome.com License - https://fontawesome.com/license (Commercial License) Copyright 2025 Fonticons, Inc. --><path fill="currentColor" d="M208 96C199.2 96 192 103.2 192 112L192 272C192 280.8 199.2 288 208 288L432 288C440.8 288 448 280.8 448 272L448 112C448 103.2 440.8 96 432 96L208 96zM160 112C160 85.5 181.5 64 208 64L432 64C458.5 64 480 85.5 480 112L480 272C480 298.5 458.5 320 432 320L208 320C181.5 320 160 298.5 160 272L160 112zM32 400C32 391.2 39.2 384 48 384L592 384C600.8 384 608 391.2 608 400C608 408.8 600.8 416 592 416L528 416L528 544L592 544C600.8 544 608 551.2 608 560C608 568.8 600.8 576 592 576L48 576C39.2 576 32 568.8 32 560C32 551.2 39.2 544 48 544L112 544L112 416L48 416C39.2 416 32 408.8 32 400zM336 416L336 544L496 544L496 416L336 416zM304 416L144 416L144 544L304 544L304 416z"/></svg>