<svg xmlns="http://www.w3.org/2000/svg" viewBox="0 0 640 640"><!--! Font Awesome Pro 7.1.0 by @fontawesome - https://fontawesome.com License - https://fontawesome.com/license (Commercial License) Copyright 2025 Fonticons, Inc. --><path fill="currentColor" d="M272 96C280.8 96 288 103.2 288 112L288 272C288 280.8 280.8 288 272 288L112 288C103.2 288 96 280.8 96 272L96 112C96 103.2 103.2 96 112 96L272 96zM112 64C85.5 64 64 85.5 64 112L64 272C64 298.5 85.5 320 112 320L272 320C298.5 320 320 298.5 320 272L320 112C320 85.5 298.5 64 272 64L112 64zM48 384C39.2 384 32 391.2 32 400C32 408.8 39.2 416 48 416L112 416L112 544L48 544C39.2 544 32 551.2 32 560C32 568.8 39.2 576 48 576L592 576C600.8 576 608 568.8 608 560C608 551.2 600.8 544 592 544L528 544L528 416L592 416C600.8 416 608 408.8 608 400C608 391.2 600.8 384 592 384L48 384zM496 544L336 544L336 416L496 416L496 544zM304 544L144 544L144 416L304 416L304 544zM432 160L528 160C536.8 160 544 167.2 544 176L544 272C544 280.8 536.8 288 528 288L432 288C423.2 288 416 280.8 416 272L416 176C416 167.2 423.2 160 432 160zM384 176L384 272C384 298.5 405.5 320 432 320L528 320C554.5 320 576 298.5 576 272L576 176C576 149.5 554.5 128 528 128L432 128C405.5 128 384 149.5 384 176z"/></svg>