<svg xmlns="http://www.w3.org/2000/svg" viewBox="0 0 640 640"><!--! Font Awesome Pro 7.1.0 by @fontawesome - https://fontawesome.com License - https://fontawesome.com/license (Commercial License) Copyright 2025 Fonticons, Inc. --><path fill="currentColor" d="M522.4 416C526.9 406.6 530.7 396.7 533.9 386.6C534.2 385.7 534.4 384.9 534.7 384C540.7 363.7 544 342.2 544 320C544 297.8 540.8 276.3 534.7 256C531.6 245.4 527.7 235.2 523.1 225.3L522.5 224C486.5 148.3 409.4 96 320 96C230.6 96 153.5 148.3 117.6 224C112.7 234.2 108.6 244.9 105.3 256L105.3 256C99.3 276.3 96 297.8 96 320C96 342.2 99.2 363.7 105.3 384C108.4 394.6 112.3 404.8 116.9 414.7L117.5 416C153.5 491.7 230.6 544 319.9 544C409.2 544 486.4 491.7 522.3 416zM557.3 416C519.3 509.8 427.3 576 319.9 576C212.5 576 120.6 509.8 82.6 416L40 416C17.9 416 0 398.1 0 376L0 264C0 241.9 17.9 224 40 224L82.6 224C120.6 130.2 212.6 64 320 64C427.4 64 519.4 130.2 557.4 224L600 224C622.1 224 640 241.9 640 264L640 376C640 398.1 622.1 416 600 416L557.4 416zM567.8 256C573.1 276.5 575.9 297.9 575.9 320C575.9 342.1 573.1 363.5 567.8 384L599.9 384C604.3 384 607.9 380.4 607.9 376L607.9 264C607.9 259.6 604.3 256 599.9 256L567.8 256zM72.1 256L40 256C35.6 256 32 259.6 32 264L32 376C32 380.4 35.6 384 40 384L72.1 384C66.8 363.5 64 342.1 64 320C64 297.9 66.8 276.5 72.1 256zM417.6 400C396.1 400 375.4 391.4 360.2 376.2C355.7 371.7 355.7 364.3 360.2 359.8L455.8 264.2C460.3 259.7 467.7 259.7 472.3 264.3C487.4 279.4 496 300 496 321.4L496 323.8C496 351.2 481.3 376.4 457.6 390C446.1 396.6 433 400 419.8 400L417.7 400zM464 321.3C464 315.5 462.9 309.8 460.9 304.3L400.4 364.8C405.9 366.8 411.7 367.9 417.7 367.9L419.8 367.9C427.5 367.9 435.1 365.9 441.8 362.1C455.6 354.2 464.1 339.6 464.1 323.7L464.1 321.3zM203.3 267.3L171.3 299.3C165.1 305.5 154.9 305.5 148.7 299.3C142.5 293.1 142.5 282.9 148.7 276.7L180.7 244.7C186.9 238.5 197.1 238.5 203.3 244.7C209.5 250.9 209.5 261.1 203.3 267.3zM296 288C296 274.7 306.7 264 320 264C333.3 264 344 274.7 344 288C344 301.3 333.3 312 320 312C306.7 312 296 301.3 296 288zM416 424C429.3 424 440 434.7 440 448C440 461.3 429.3 472 416 472C402.7 472 392 461.3 392 448C392 434.7 402.7 424 416 424zM235.3 363.3C232.7 365.9 232.7 370.1 235.3 372.7L241.9 379.3C244.9 382.3 249 384 253.2 384L287.9 384C323.2 384 351.9 412.7 351.9 448C351.9 483.3 323.2 512 287.9 512C252.6 512 223.9 483.3 223.9 448L223.9 413.3C223.9 409.1 222.2 405 219.2 402L212.6 395.4C210 392.8 205.8 392.8 203.2 395.4C197 401.6 186.8 401.6 180.6 395.4C174.4 389.2 174.4 379 180.6 372.8L212.6 340.8C218.8 334.6 229 334.6 235.2 340.8C241.4 347 241.4 357.2 235.2 363.4zM320 448C320 430.3 305.7 416 288 416L272 416C263.2 416 256 423.2 256 432L256 448C256 465.7 270.3 480 288 480C305.7 480 320 465.7 320 448zM320 160C299.1 160 281.3 173.4 274.7 192L365.2 192C358.6 173.4 340.8 160 319.9 160zM240 208C240 163.8 275.8 128 320 128C364.2 128 400 163.8 400 208C400 216.8 392.8 224 384 224L256 224C247.2 224 240 216.8 240 208z"/></svg>