<svg xmlns="http://www.w3.org/2000/svg" viewBox="0 0 640 640"><!--! Font Awesome Pro 7.1.0 by @fontawesome - https://fontawesome.com License - https://fontawesome.com/license (Commercial License) Copyright 2025 Fonticons, Inc. --><path fill="currentColor" d="M256 96C362 96 448 182 448 288C448 394 362 480 256 480C150 480 64 394 64 288C64 182 150 96 256 96zM256 512C309 512 357.6 493.6 396 462.9L473 549.9C487.7 566.5 508.8 576 530.9 576C573.4 576 608.1 541.5 608.1 499C608.1 472.3 594.3 447.5 571.5 433.4L465.3 368C474.8 343.2 480 316.2 480 288C480 164.3 379.7 64 256 64C132.3 64 32 164.3 32 288C32 411.7 132.3 512 256 512zM496.9 528.7L419.4 441.1C431.8 427.8 442.7 413.1 451.6 397.1L554.6 460.6C567.9 468.8 576 483.3 576 498.9C576 523.7 555.8 543.9 530.8 543.9C517.8 543.9 505.4 538.3 496.9 528.6zM528 512C536.8 512 544 504.8 544 496C544 487.2 536.8 480 528 480C519.2 480 512 487.2 512 496C512 504.8 519.2 512 528 512zM184.6 166.3C170.1 180.2 162 198.4 160.3 217C158.2 240.5 151.6 269.4 140.9 288C114.4 333.9 130.1 392.6 176 419.1C221.9 445.6 280.6 429.9 307.1 384C310 378.9 316 373.1 324 368.2C331.9 363.3 340.4 360.2 347.1 359.2C359.9 357.4 372.5 352.5 383.6 344.2C419.1 317.9 426.5 267.8 400.2 232.3C388.8 217 373 206.8 355.8 202.5C347.1 200.3 335.8 195.4 324.8 188.9C313.8 182.4 303.9 175.1 297.7 168.6C267.1 136.7 216.4 135.7 184.6 166.4zM274.6 190.7C283.5 200 296 209.1 308.7 216.5C321.4 223.9 335.4 230.3 347.9 233.5C358.2 236.1 367.7 242.2 374.5 251.4C390.3 272.7 385.8 302.8 364.5 318.5C357.8 323.5 350.3 326.4 342.6 327.5C330.7 329.2 318 334.2 307.2 340.9C296.4 347.6 285.8 356.8 279.4 368C261.7 398.6 222.6 409.1 192 391.4C161.4 373.7 150.9 334.6 168.6 304C182.6 279.7 189.9 245.6 192.2 219.8C193.2 208.6 198 197.8 206.7 189.4C225.8 171 256.2 171.6 274.6 190.7zM232 288C232 274.7 242.7 264 256 264C269.3 264 280 274.7 280 288C280 301.3 269.3 312 256 312C242.7 312 232 301.3 232 288zM312 288C312 257.1 286.9 232 256 232C225.1 232 200 257.1 200 288C200 318.9 225.1 344 256 344C286.9 344 312 318.9 312 288z"/></svg>