<svg xmlns="http://www.w3.org/2000/svg" viewBox="0 0 640 640"><!--! Font Awesome Pro 7.1.0 by @fontawesome - https://fontawesome.com License - https://fontawesome.com/license (Commercial License) Copyright 2025 Fonticons, Inc. --><path fill="currentColor" d="M477.3 247.7C515.2 231.8 528 212.3 528 192C528 171.7 515.2 152.2 477.3 136.3C439.4 120.4 384.3 112 320 112C255.7 112 200.6 120.4 162.7 136.3C124.8 152.2 112 171.7 112 192C112 216.6 132.1 241.4 192 257.6C212.4 263.1 228 281.7 228 304.3L228 408C228 419 237 428 248 428C259 428 268 419 268 408L268 320.2C268 293 290.3 271.9 316.6 272L320 272C384.3 272 439.4 263.6 477.3 247.7zM560 192C560 206.9 556.1 220.2 548.7 232C556 243.8 560 257.1 560 272C560 286.9 556.1 300.2 548.7 312C556 323.8 560 337.1 560 352C560 366.9 556.1 380.2 548.7 392C556 403.8 560 417.1 560 432C560 509.9 452.5 544 320 544C187.5 544 80 509.9 80 432C80 417.1 83.9 403.8 91.3 392C84 380.2 80 366.9 80 352C80 337.1 83.9 323.8 91.3 312C83.9 300.2 80 286.9 80 272C80 257.1 83.9 243.8 91.3 232C83.9 220.2 80 206.9 80 192C80 114.1 187.5 80 320 80C452.5 80 560 114.1 560 192zM320 304L316.4 304C307.4 304 300 311.2 300 320.2L300 408C300 436.7 276.7 460 248 460C219.3 460 196 436.7 196 408L196 304.3C196 296.9 190.8 290.4 183.7 288.5C155.8 280.9 132.2 270.5 114.6 257C112.8 261.9 112 266.9 112 272C112 291.9 124.2 310.8 160 326.5L160 361C142.3 354.5 126.9 346.5 114.6 337C112.8 341.9 112 346.9 112 352C112 371.9 124.3 390.9 160.2 406.6C161.2 420.7 165.6 433.8 172.5 445.2C149.4 438 129.8 428.6 114.5 417C112.7 421.9 111.9 426.9 111.9 432C111.9 452.3 124.7 471.8 162.6 487.7C200.5 503.6 255.6 512 319.9 512C384.2 512 439.3 503.6 477.2 487.7C515.1 471.8 527.9 452.3 527.9 432C527.9 426.9 527.1 421.9 525.3 417C483.2 449.2 407 464 319.9 464C316 464 312.2 464 308.4 463.9C317.8 455 325.2 444.1 329.9 431.9C389.9 431.1 441.3 422.8 477.2 407.7C515.1 391.8 527.9 372.3 527.9 352C527.9 346.9 527.1 341.9 525.3 337C485.8 367.2 416.3 382.1 335.9 383.8L335.9 351.8C393.3 350.5 442.5 342.3 477.2 327.7C515.1 311.8 527.9 292.3 527.9 272C527.9 266.9 527.1 261.9 525.3 257C483.2 289.2 407 304 319.9 304zM256 192C256 200.8 263.2 208 272 208L368 208C376.8 208 384 200.8 384 192C384 183.2 376.8 176 368 176L272 176C263.2 176 256 183.2 256 192zM224 192C224 165.5 245.5 144 272 144L368 144C394.5 144 416 165.5 416 192C416 218.5 394.5 240 368 240L272 240C245.5 240 224 218.5 224 192z"/></svg>