<svg xmlns="http://www.w3.org/2000/svg" viewBox="0 0 640 640"><!--! Font Awesome Pro 7.1.0 by @fontawesome - https://fontawesome.com License - https://fontawesome.com/license (Commercial License) Copyright 2025 Fonticons, Inc. --><path fill="currentColor" d="M160 128C142.3 128 128 142.3 128 160L128 432L176 432C202.5 432 224 410.5 224 384L224 368L208 368C190.3 368 176 353.7 176 336L176 208C176 190.3 190.3 176 208 176L272 176C289.7 176 304 190.3 304 208L304 336C304 353.7 289.7 368 272 368L256 368L256 384C256 428.2 220.2 464 176 464L128 464L128 480C128 497.7 142.3 512 160 512L480 512C497.7 512 512 497.7 512 480L512 160C512 142.3 497.7 128 480 128L160 128zM96 160C96 124.7 124.7 96 160 96L480 96C515.3 96 544 124.7 544 160L544 480C544 515.3 515.3 544 480 544L160 544C124.7 544 96 515.3 96 480L96 160zM368 368L368 432L432 432L432 368L368 368zM336 368C336 350.3 350.3 336 368 336L432 336C449.7 336 464 350.3 464 368L464 432C464 449.7 449.7 464 432 464L368 464C350.3 464 336 449.7 336 432L336 368zM336 192C336 183.2 343.2 176 352 176L448 176C456.8 176 464 183.2 464 192C464 200.8 456.8 208 448 208L352 208C343.2 208 336 200.8 336 192zM336 272C336 263.2 343.2 256 352 256L448 256C456.8 256 464 263.2 464 272C464 280.8 456.8 288 448 288L352 288C343.2 288 336 280.8 336 272zM208 208L208 336L272 336L272 208L208 208z"/></svg>