<svg xmlns="http://www.w3.org/2000/svg" viewBox="0 0 640 640"><!--! Font Awesome Pro 7.1.0 by @fontawesome - https://fontawesome.com License - https://fontawesome.com/license (Commercial License) Copyright 2025 Fonticons, Inc. --><path fill="currentColor" d="M448 128L128 128C110.3 128 96 142.3 96 160L96 480C96 497.7 110.3 512 128 512L250.6 512C254.3 523.1 258.8 533.8 264.2 544L128 544C92.7 544 64 515.3 64 480L64 160C64 124.7 92.7 96 128 96L448 96C483.3 96 512 124.7 512 160L512 236.2C500.9 236.5 489.8 239.7 480 245.8L480 160C480 142.3 465.7 128 448 128zM384 176C405.9 176 424.4 190.7 430.2 210.8C418.1 207.1 405.2 207.1 393.1 210.8C390.5 209 387.4 208 384.1 208L192.1 208C183.3 208 176.1 215.2 176.1 224L176.1 288C176.1 296.8 183.3 304 192.1 304L297.3 304C290.9 312.8 285 321.6 279.6 330.3C278.4 332.2 277.3 334.1 276.2 336L192 336C165.5 336 144 314.5 144 288L144 224C144 197.5 165.5 176 192 176L384 176zM152 400C152 386.7 162.7 376 176 376C189.3 376 200 386.7 200 400C200 413.3 189.3 424 176 424C162.7 424 152 413.3 152 400zM395.5 263.5C401.8 257.9 410 256 416.1 256C424.1 256.1 430.1 259.3 434.8 263.6C449 276.4 461.1 290 472.8 303.9C477.8 298.7 483.4 293 487.4 289.4C498.6 279.1 516 279.2 527.1 289.5C565.6 325 608 385.6 608 448.1C608 536.9 536.8 608.1 448 608.1C359.2 608.1 288 536.8 288 448C288 411.5 304 375.5 324.6 344.3C345.4 312.8 371.9 284.7 395.5 263.5zM415.1 288.9C393.4 308.6 369.7 334.1 351.3 361.9C332.3 390.7 320 420.5 320 448C320 481.6 332.7 512.1 353.6 534.8C352.5 529.5 352 524 352 518.4C352 461 415.8 407.9 439.4 390.2C444.6 386.3 451.5 386.3 456.7 390.2C480.3 407.9 544.1 461 544.1 518.4C544.1 524 543.5 529.5 542.5 534.8C563.4 512.1 576.1 481.6 576.1 448C576.1 399.3 542.4 347.6 507.3 314.5C501.2 320.3 491.9 330.1 486.8 335.5C478.5 344.3 464.5 343.8 456.8 334.6C442.8 317.7 430.1 302.8 415.1 288.9zM512 518.4C512 501 501.9 480.7 484.6 459.9C472.5 445.4 458.8 432.9 448 424.1C437.3 432.9 423.5 445.4 411.4 459.9C394.1 480.6 384 501 384 518.4C384 548.2 410.5 576 448 576L448.1 576C485.5 575.9 512 548.1 512 518.4z"/></svg>