<svg xmlns="http://www.w3.org/2000/svg" viewBox="0 0 640 640"><!--! Font Awesome Pro 7.1.0 by @fontawesome - https://fontawesome.com License - https://fontawesome.com/license (Commercial License) Copyright 2025 Fonticons, Inc. --><path fill="currentColor" d="M75.9 144C69.3 144 64 149.3 64 155.9L64 484.1C64 490.7 69.3 496 75.9 496C77.4 496 78.9 495.7 80.3 495.2C95.3 489.5 189.8 456 320 456C450.2 456 544.7 489.5 559.7 495.2C561.1 495.7 562.6 496 564.1 496C570.7 496 576 490.7 576 484.1L576 155.9C576 149.3 570.7 144 564.1 144C562.6 144 561.1 144.3 559.7 144.8C544.7 150.5 450.2 184 320 184C189.8 184 95.3 150.5 80.3 144.8C78.9 144.3 77.4 144 75.9 144zM548.4 114.9C553.4 113 558.6 112 564.1 112C588.4 112 608 131.7 608 155.9L608 484.1C608 508.4 588.3 528 564.1 528C558.6 528 553.4 527 548.4 525.1C535.5 520.2 445 488 320 488C195 488 104.5 520.3 91.6 525.1C86.6 527 81.4 528 75.9 528C51.7 528 32 508.3 32 484.1L32 155.9C32 131.7 51.7 112 75.9 112C81.4 112 86.6 113 91.6 114.9C104.5 119.7 195 152 320 152C445 152 535.5 119.7 548.4 114.9zM144 224C135.2 224 128 231.2 128 240C128 248.8 135.2 256 144 256C152.8 256 160 248.8 160 240C160 231.2 152.8 224 144 224zM192 240C192 266.5 170.5 288 144 288C117.5 288 96 266.5 96 240C96 213.5 117.5 192 144 192C170.5 192 192 213.5 192 240zM357.3 251L283.7 345.8C280.7 349.7 276.1 352 271.2 352C266.3 352 261.7 349.8 258.6 346L235 316.6C234.2 315.6 232.9 314.9 231.6 314.9C230.3 314.9 229 315.5 228.2 316.6L169.2 390.3C168.1 391.7 167.9 393.7 168.8 395.3C169.7 396.9 171.5 397.7 173.3 397.4C213.1 390.6 263.1 384.9 319.9 384.9C376.3 384.9 426.1 390.5 465.8 397.2C467.6 397.5 469.4 396.7 470.3 395.1C471.2 393.5 471.1 391.6 470 390.2L364.2 251C363.4 249.9 362.1 249.3 360.7 249.3C359.3 249.3 358 249.9 357.2 251zM361 217.3C372.3 217.4 382.9 222.7 389.8 231.7L495.5 370.9C504.5 382.8 505.4 399 497.7 411.8C490 424.6 475.2 431.3 460.5 428.8C422.3 422.3 374.4 416.9 320 416.9C265.3 416.9 217.1 422.3 178.8 428.9C163.9 431.5 149 424.5 141.3 411.5C133.6 398.5 134.8 382.1 144.2 370.3L203.2 296.6C210.1 288 220.6 282.9 231.6 282.9C242.6 282.9 253.1 287.9 260 296.6L270.9 310.2L332.1 231.4C339 222.5 349.7 217.3 361 217.3z"/></svg>