<svg xmlns="http://www.w3.org/2000/svg" viewBox="0 0 640 640"><!--! Font Awesome Pro 7.1.0 by @fontawesome - https://fontawesome.com License - https://fontawesome.com/license (Commercial License) Copyright 2025 Fonticons, Inc. --><path fill="currentColor" d="M37.8 187.2C41.5 184.2 46.4 182.9 51 183.9C128.7 199.1 220.9 208 319.9 208C418.9 208 511.1 199.1 588.8 183.9C593.5 183 598.4 184.2 602 187.2C605.6 190.2 607.8 194.8 607.8 199.6L607.8 256C607.8 262.5 603.9 268.3 598 270.8L554.4 289C465.7 326 399.7 402.7 376.4 495.9L367.4 532C365.7 539 359.3 544 352 544L288 544C280.7 544 274.3 539 272.5 531.9L263.5 495.8C240.2 402.6 174.2 325.9 85.5 288.9L41.8 270.8C35.9 268.3 32 262.5 32 256L32 199.6C32 194.8 34.1 190.3 37.8 187.2zM576 218.9C500.3 232.3 412.9 240 320 240C227.1 240 139.7 232.3 64 218.9L64 245.4L97.8 259.5C195.8 300.3 268.8 385.1 294.5 488.2L300.5 512.1L339.5 512.1L345.5 488.2C371.3 385.2 444.2 300.4 542.2 259.5L576 245.4L576 218.9z"/></svg>