<svg xmlns="http://www.w3.org/2000/svg" viewBox="0 0 640 640"><!--! Font Awesome Pro 7.1.0 by @fontawesome - https://fontawesome.com License - https://fontawesome.com/license (Commercial License) Copyright 2025 Fonticons, Inc. --><path fill="currentColor" d="M147.5 96C138.3 96 131 103.8 131.5 113L134.4 160L192.3 160C201.1 160 208.3 167.2 208.3 176C208.3 184.8 201.1 192 192.3 192L136.4 192L157.5 529C158 537.4 165 544 173.5 544L304.4 544L304.4 248C304.4 239.2 311.6 232 320.4 232C329.2 232 336.4 239.2 336.4 248L336.4 544L467.3 544C475.8 544 482.7 537.4 483.3 529L504.4 192L448.5 192C439.7 192 432.5 184.8 432.5 176C432.5 167.2 439.7 160 448.5 160L506.4 160L509.3 113C509.9 103.8 502.6 96 493.3 96L147.5 96zM320.4 576L173.5 576C148.2 576 127.2 556.3 125.6 531L99.6 115C97.9 87.4 119.8 64 147.5 64L493.3 64C521 64 542.9 87.4 541.2 115L515.2 531C513.6 556.3 492.6 576 467.3 576L320.4 576z"/></svg>