<svg xmlns="http://www.w3.org/2000/svg" viewBox="0 0 640 640"><!--! Font Awesome Pro 7.1.0 by @fontawesome - https://fontawesome.com License - https://fontawesome.com/license (Commercial License) Copyright 2025 Fonticons, Inc. --><path fill="currentColor" d="M152.2 109.4C157.3 83.1 180.3 64 207.2 64L433.3 64C460.2 64 483.2 83.1 488.3 109.4L567 518.6C572.8 549 553 578.3 522.6 584.2L442.6 599.6C413 605.3 384.3 586.6 377.5 557.3L320.3 310.9L263.1 557.3C256.3 586.6 227.5 605.3 198 599.6L118 584.2C87.6 578.3 67.7 549 73.5 518.6L152.2 109.4zM207.2 96C195.7 96 185.8 104.2 183.6 115.5L175 160L224.2 160C233 160 240.2 167.2 240.2 176C240.2 184.8 233 192 224.2 192L168.9 192L104.9 524.6C102.4 537.6 110.9 550.2 123.9 552.7L203.9 568.1C216.6 570.5 228.9 562.5 231.8 550L304.5 236.4C306.2 229.1 312.6 224 320.1 224C327.6 224 334 229.1 335.7 236.4L408.6 550C411.5 562.6 423.8 570.6 436.5 568.1L516.5 552.7C529.5 550.2 538 537.6 535.5 524.6L471.5 192L416.2 192C407.4 192 400.2 184.8 400.2 176C400.2 167.2 407.4 160 416.2 160L465.4 160L456.8 115.5C454.7 104.2 444.8 96 433.3 96L207.2 96z"/></svg>