<svg xmlns="http://www.w3.org/2000/svg" viewBox="0 0 640 640"><!--! Font Awesome Pro 7.1.0 by @fontawesome - https://fontawesome.com License - https://fontawesome.com/license (Commercial License) Copyright 2025 Fonticons, Inc. --><path fill="currentColor" d="M160 160C160 89.3 217.3 32 288 32C358.7 32 416 89.3 416 160L416 400C416 444.2 380.2 480 336 480C291.8 480 256 444.2 256 400L256 176C256 167.2 263.2 160 272 160C280.8 160 288 167.2 288 176L288 400C288 426.5 309.5 448 336 448C362.5 448 384 426.5 384 400L384 160C384 107 341 64 288 64C235 64 192 107 192 160L192 432C192 511.5 256.5 576 336 576C415.5 576 480 511.5 480 432L480 208C480 199.2 487.2 192 496 192C504.8 192 512 199.2 512 208L512 432C512 529.2 433.2 608 336 608C238.8 608 160 529.2 160 432L160 160z"/></svg>