<svg xmlns="http://www.w3.org/2000/svg" viewBox="0 0 640 640"><!--! Font Awesome Pro 7.1.0 by @fontawesome - https://fontawesome.com License - https://fontawesome.com/license (Commercial License) Copyright 2025 Fonticons, Inc. --><path fill="currentColor" d="M324.9 82.4C374.9 32.4 455.9 32.4 505.9 82.4C555.9 132.4 555.9 213.4 505.9 263.4L336.2 433.1C305 464.3 254.3 464.3 223.1 433.1C191.9 401.9 191.9 351.2 223.1 320L381.4 161.6C387.6 155.4 397.8 155.4 404 161.6C410.2 167.8 410.2 178 404 184.2L245.7 342.6C227 361.3 227 391.7 245.7 410.5C264.4 429.3 294.8 429.2 313.6 410.5L483.3 240.8C520.8 203.3 520.8 142.5 483.3 105C445.8 67.5 385 67.5 347.5 105L155.2 297.4C99 353.6 99 444.8 155.2 501C211.4 557.2 302.6 557.2 358.8 501L517.2 342.6C523.4 336.4 533.6 336.4 539.8 342.6C546 348.8 546 359 539.8 365.2L381.4 523.6C312.7 592.3 201.2 592.3 132.5 523.6C63.8 454.9 63.8 343.4 132.5 274.7L324.9 82.4z"/></svg>