<svg xmlns="http://www.w3.org/2000/svg" viewBox="0 0 640 640"><!--! Font Awesome Pro 7.1.0 by @fontawesome - https://fontawesome.com License - https://fontawesome.com/license (Commercial License) Copyright 2025 Fonticons, Inc. --><path fill="currentColor" d="M447.5 256C442.8 179.9 421.3 114.2 390.8 74C473.9 99.5 537.4 169.1 544.4 256L447.5 256zM415.4 256L225.5 256C229.1 202.5 241.4 155.6 258.6 121.3C280.1 78.4 303.8 64 320.5 64C337.2 64 360.9 78.4 382.4 121.3C399.6 155.6 411.9 202.5 415.5 256zM193.4 256L96.5 256C103.5 169.1 167 99.5 250.1 74C219.5 114.2 198.1 179.9 193.4 256zM124.4 288L304.4 288L304.4 384L288.4 384C275.7 384 263.9 387.7 254 394L124.5 288zM336.4 288L516.4 288L386.8 394C376.9 387.7 365.1 384 352.4 384L336.4 384L336.4 288zM70.7 284L232.7 416.6C227.5 425.9 224.5 436.6 224.5 448L224.5 512C224.5 547.3 253.2 576 288.5 576L352.5 576C387.8 576 416.5 547.3 416.5 512L416.5 448C416.5 436.6 413.5 425.8 408.3 416.6L570.3 284C573.9 281.1 576 276.7 576 272C576 137.3 461.2 37.3 329.9 32.7C326.8 32.2 323.7 32 320.5 32C317.3 32 314.2 32.2 311.1 32.7C179.8 37.3 65 137.3 65 272C65 276.6 67.1 281 70.7 284zM288.5 416L352.5 416C370.2 416 384.5 430.3 384.5 448L384.5 512C384.5 529.7 370.2 544 352.5 544L288.5 544C270.8 544 256.5 529.7 256.5 512L256.5 448C256.5 430.3 270.8 416 288.5 416z"/></svg>