<svg xmlns="http://www.w3.org/2000/svg" viewBox="0 0 640 640"><!--! Font Awesome Pro 7.1.0 by @fontawesome - https://fontawesome.com License - https://fontawesome.com/license (Commercial License) Copyright 2025 Fonticons, Inc. --><path fill="currentColor" d="M256 64C167.6 64 96 135.6 96 224C96 312.4 167.6 384 256 384L352 384L352 560C352 568.8 359.2 576 368 576C376.8 576 384 568.8 384 560L384 96L448 96L448 560C448 568.8 455.2 576 464 576C472.8 576 480 568.8 480 560L480 96L528 96C536.8 96 544 88.8 544 80C544 71.2 536.8 64 528 64L256 64zM352 96L352 352L256 352C185.3 352 128 294.7 128 224C128 153.3 185.3 96 256 96L352 96z"/></svg>