<svg xmlns="http://www.w3.org/2000/svg" viewBox="0 0 640 640"><!--! Font Awesome Pro 7.1.0 by @fontawesome - https://fontawesome.com License - https://fontawesome.com/license (Commercial License) Copyright 2025 Fonticons, Inc. --><path fill="currentColor" d="M144 176C144 114.1 194.1 64 256 64L496 64C504.8 64 512 71.2 512 80C512 88.8 504.8 96 496 96L448 96L448 400C448 408.8 440.8 416 432 416C423.2 416 416 408.8 416 400L416 96L352 96L352 400C352 408.8 344.8 416 336 416C327.2 416 320 408.8 320 400L320 288L256 288C194.1 288 144 237.9 144 176zM320 256L320 96L256 96C211.8 96 176 131.8 176 176C176 220.2 211.8 256 256 256L320 256zM235.3 420.7C241.5 426.9 241.5 437.1 235.3 443.3L182.6 496L496 496C504.8 496 512 503.2 512 512C512 520.8 504.8 528 496 528L182.6 528L235.3 580.7C241.5 586.9 241.5 597.1 235.3 603.3C229.1 609.5 218.9 609.5 212.7 603.3L132.7 523.3C126.5 517.1 126.5 506.9 132.7 500.7L212.7 420.7C218.9 414.5 229.1 414.5 235.3 420.7z"/></svg>