<svg xmlns="http://www.w3.org/2000/svg" viewBox="0 0 640 640"><!--! Font Awesome Pro 7.1.0 by @fontawesome - https://fontawesome.com License - https://fontawesome.com/license (Commercial License) Copyright 2025 Fonticons, Inc. --><path fill="currentColor" d="M160 128C142.3 128 128 142.3 128 160L128 480C128 497.7 142.3 512 160 512L480 512C497.7 512 512 497.7 512 480L512 160C512 142.3 497.7 128 480 128L160 128zM96 160C96 124.7 124.7 96 160 96L480 96C515.3 96 544 124.7 544 160L544 480C544 515.3 515.3 544 480 544L160 544C124.7 544 96 515.3 96 480L96 160zM256 352L336 352C371.3 352 400 323.3 400 288C400 252.7 371.3 224 336 224L256 224L256 352zM336 384L256 384L256 432C256 440.8 248.8 448 240 448C231.2 448 224 440.8 224 432L224 216C224 202.7 234.7 192 248 192L336 192C389 192 432 235 432 288C432 341 389 384 336 384z"/></svg>