<svg xmlns="http://www.w3.org/2000/svg" viewBox="0 0 640 640"><!--! Font Awesome Pro 7.1.0 by @fontawesome - https://fontawesome.com License - https://fontawesome.com/license (Commercial License) Copyright 2025 Fonticons, Inc. --><path fill="currentColor" d="M544 320C544 196.3 443.7 96 320 96C196.3 96 96 196.3 96 320C96 443.7 196.3 544 320 544C443.7 544 544 443.7 544 320zM64 320C64 178.6 178.6 64 320 64C461.4 64 576 178.6 576 320C576 461.4 461.4 576 320 576C178.6 576 64 461.4 64 320zM272 352L352 352C387.3 352 416 323.3 416 288C416 252.7 387.3 224 352 224L272 224L272 352zM352 384L272 384L272 432C272 440.8 264.8 448 256 448C247.2 448 240 440.8 240 432L240 216C240 202.7 250.7 192 264 192L352 192C405 192 448 235 448 288C448 341 405 384 352 384z"/></svg>