<svg xmlns="http://www.w3.org/2000/svg" viewBox="0 0 640 640"><!--! Font Awesome Pro 7.1.0 by @fontawesome - https://fontawesome.com License - https://fontawesome.com/license (Commercial License) Copyright 2025 Fonticons, Inc. --><path fill="currentColor" d="M448 96C465.7 96 480 110.3 480 128L480 512C480 529.7 465.7 544 448 544L192 544C174.3 544 160 529.7 160 512L160 128C160 110.3 174.3 96 192 96L448 96zM192 64C156.7 64 128 92.7 128 128L128 512C128 547.3 156.7 576 192 576L448 576C483.3 576 512 547.3 512 512L512 128C512 92.7 483.3 64 448 64L192 64zM357.3 360.5C366.8 342 373.2 316.6 375 288L414.7 288C409.2 320.8 387.1 347.9 357.3 360.5zM282.8 360.5C253 347.9 230.8 320.8 225.3 288L265 288C266.8 316.6 273.3 342 282.7 360.5zM297.1 288L342.9 288C341.3 310.5 336.4 329.6 330.2 343C325.7 352.7 322 356.8 320 358.5C318 356.8 314.3 352.7 309.8 343C303.6 329.6 298.7 310.5 297.1 288zM297.1 256C298.7 233.5 303.6 214.4 309.8 201C314.3 191.4 318 187.2 320 185.5C322 187.2 325.7 191.3 330.2 201C336.4 214.4 341.3 233.5 342.9 256L297.1 256zM375 256C373.2 227.4 366.7 202 357.3 183.5C387.1 196.1 409.2 223.2 414.7 256L375 256zM282.8 183.5C273.3 202 266.8 227.4 265 256L225.3 256C230.8 223.2 252.9 196.1 282.7 183.5zM320 400C390.7 400 448 342.7 448 272C448 201.3 390.7 144 320 144C249.3 144 192 201.3 192 272C192 342.7 249.3 400 320 400zM240 448C231.2 448 224 455.2 224 464C224 472.8 231.2 480 240 480L400 480C408.8 480 416 472.8 416 464C416 455.2 408.8 448 400 448L240 448z"/></svg>