<svg xmlns="http://www.w3.org/2000/svg" viewBox="0 0 640 640"><!--! Font Awesome Pro 7.1.0 by @fontawesome - https://fontawesome.com License - https://fontawesome.com/license (Commercial License) Copyright 2025 Fonticons, Inc. --><path fill="currentColor" d="M320 288C361.3 288 454.4 323.9 506.8 465.2C510.4 474.9 512 485.3 512 495.7L512 500.1L511.8 504.6C509.5 526.7 490.8 544 468.1 544L458.1 543.6C451.5 543.1 444.9 542.1 438.4 540.6L428.8 538L348.6 512.9C330 507.1 310 507.1 291.4 512.9L211.2 538L201.6 540.6C191.9 542.8 181.9 544 171.9 544L167.4 543.8C146.7 541.7 130.3 525.3 128.2 504.6L128 500.1L128 495.7C128 487.9 128.9 480.1 130.9 472.6L133.2 465.2C185.6 323.9 278.7 288 320 288zM320 320C295.1 320 216.8 343.9 167.8 464.3L163.2 476.3C161.1 482 160 488.5 160 495.7L160 500.1C160 506.7 165.3 512 171.9 512C182 512 192 510.5 201.6 507.5L281.8 482.4L291.2 479.8C313.3 474.7 336.4 475.6 358.2 482.4L438.4 507.5L445.7 509.5C453.1 511.2 460.6 512.1 468.1 512.1C474.7 512.1 480 506.8 480 500.2L480 495.8C480 490.4 479.4 485.4 478.2 480.9L476.8 476.5C428.2 345.4 345.7 320 320 320zM80 192C88.8 192 96 199.2 96 208L96 236.5C107.8 232.8 120.3 234.1 131.2 238.6C144.7 244.1 157 254.7 165.4 268.6C173.8 282.5 177.4 298.1 175.6 312.5C173.8 327 166.3 340.9 152.2 348.7C138.3 356.4 122.4 355.6 108.9 350C97.1 345.2 86.2 336.5 78.1 325.1L74.6 320C68.5 309.9 64.9 298.9 64.2 288.2L64 283.5L64 208C64 199.2 71.2 192 80 192zM560 192C568.8 192 576 199.2 576 208L576 280C576 280.3 575.9 280.6 575.9 280.9C576.5 293.9 572.8 307.7 565.4 320.1C557 334 544.8 344.5 531.2 350.1C517.7 355.6 501.8 356.4 487.9 348.8C473.8 341 466.3 327.1 464.5 312.6C462.7 298.2 466.3 282.6 474.7 268.7C483.1 254.8 495.3 244.3 508.9 238.7C519.9 234.2 532.3 232.9 544.1 236.6L544.1 208.1C544.1 199.3 551.3 192.1 560.1 192.1zM106.3 266.8L103.3 268C99.9 269.9 96.8 273.9 96.1 280.6L95.9 283.6L96.2 288.3C96.9 293.1 98.7 298.4 101.9 303.6L103.9 306.6C108.7 313.4 114.9 318.1 120.8 320.5C127.6 323.3 133 322.7 136.6 320.8C140 318.9 142.9 315 143.7 308.6C144.5 302.1 143 293.6 137.9 285.2C132.8 276.8 125.8 271.1 119 268.3C113.9 266.2 109.6 266 106.2 266.9zM536.6 268C533 266 527.6 265.5 520.8 268.2C514 271 507 276.7 501.9 285.1C496.8 293.5 495.3 302 496.1 308.5C496.9 314.9 499.8 318.8 503.2 320.7C506.8 322.7 512.2 323.2 519 320.4C525.8 317.6 532.8 311.9 537.9 303.5C543 295.1 544.5 286.6 543.7 280.1C542.9 273.7 540 269.8 536.6 267.9zM192 64C200.8 64 208 71.2 208 80L208 113.8C210.4 112.6 212.9 111.5 215.6 110.6L222.4 108.9C238.1 106 253.7 110.7 266.5 119.6C281 129.7 292.8 145.6 299.2 164.7C305.6 183.8 305.7 203.5 300.1 220.3C294.5 237.1 282.5 251.7 264.6 257.6C246.7 263.5 228.3 258.7 213.8 248.7C201.1 239.9 190.5 226.6 183.8 210.6L181.2 203.6C178.7 196.1 177.2 188.5 176.6 181.1L176.3 173.7L176.3 80.1C176.3 71.3 183.5 64.1 192.3 64.1zM448 56C456.8 56 464 63.2 464 72L464 165.6C464 165.7 464 165.8 464 165.9C464 175.6 462.4 185.6 459.1 195.5C452.7 214.6 441 230.5 426.4 240.6C411.8 250.7 393.5 255.4 375.6 249.5C357.6 243.6 345.7 229 340.1 212.2C334.5 195.5 334.6 175.7 341 156.6C347.4 137.5 359.1 121.6 373.7 111.5C388.3 101.4 406.6 96.7 424.5 102.6C427.2 103.5 429.7 104.6 432.1 105.8L432 72C432 63.2 439.2 56 448 56zM248.2 145.8C240.9 140.7 233.8 139.2 228 140.3L225.6 140.9C217.7 143.5 210.2 152.4 208.4 166.9L208 173.5L208.2 178.3C208.6 183.1 209.6 188.2 211.3 193.3L213.1 198C217.6 208.8 224.5 217.1 231.8 222.1C240.2 227.9 248.2 229 254.5 226.9C260.8 224.8 266.4 219.3 269.6 209.8C272.8 200.3 273.1 187.7 268.7 174.5C264.3 161.4 256.6 151.4 248.2 145.6zM414.5 133C408.2 130.9 400.2 132 391.8 137.8C383.4 143.6 375.7 153.6 371.3 166.7C366.9 179.8 367.2 192.4 370.4 202C373.6 211.5 379.3 217 385.5 219.1C391.8 221.2 399.8 220.1 408.2 214.3C416.6 208.5 424.3 198.5 428.7 185.4C433.1 172.3 432.8 159.7 429.6 150.1C426.4 140.6 420.7 135.1 414.5 133z"/></svg>