<svg xmlns="http://www.w3.org/2000/svg" viewBox="0 0 640 640"><!--! Font Awesome Pro 7.1.0 by @fontawesome - https://fontawesome.com License - https://fontawesome.com/license (Commercial License) Copyright 2025 Fonticons, Inc. --><path fill="currentColor" d="M320 288C361.3 288 454.4 323.9 506.8 465.2C510.4 474.9 512 485.3 512 495.7L512 500.1L511.8 504.6C509.6 526.7 490.8 544 468.1 544L458.1 543.6C448.2 542.8 438.3 541 428.8 538L348.6 512.9L341.6 511C325 507.2 307.7 507.8 291.4 512.9L211.2 538C198.5 542 185.2 544 171.9 544L167.4 543.8C146.7 541.7 130.3 525.3 128.2 504.6L128 500.1L128 495.7C128 487.9 128.9 480.1 130.9 472.6L133.2 465.2C185.6 323.9 278.7 288 320 288zM320 320C295.1 320 216.8 343.9 167.8 464.3L163.2 476.3C161.1 482 160 488.5 160 495.7L160 500.1C160 506.7 165.3 512 171.9 512C182 512 192 510.5 201.6 507.5L281.8 482.4L291.2 479.8C313.3 474.7 336.4 475.6 358.2 482.4L438.4 507.5C448 510.5 458 512 468.1 512C474.7 512 480 506.7 480 500.1L480 495.7C480 490.3 479.4 485.3 478.2 480.8L476.8 476.4C428.2 345.4 345.7 320 320 320zM85.8 229.3C110.3 215.3 145.5 230.2 164.3 262.6C183.1 295 178.6 332.7 154.1 346.8C131.1 360 98.8 347.7 79.3 319.4L75.6 313.6C56.8 281 61.3 243.3 85.8 229.3zM475.6 262.6C494.5 230.2 529.6 215.3 554.1 229.3C578.6 243.3 583.2 281 564.3 313.5L560.6 319.3C541.1 347.6 508.8 359.9 485.8 346.7C461.3 332.7 456.7 295 475.6 262.5zM114.7 258C107.4 254.9 103.4 256.2 101.7 257.1C100.1 258 97.1 260.7 96.2 268.4C95.3 276.1 97 286.6 103.2 297.4C109.4 308.2 117.9 315 125.2 318.1C132.5 321.2 136.5 319.9 138.2 319C139.8 318.1 142.8 315.4 143.7 307.8C144.6 300.1 142.9 289.6 136.7 278.8C130.5 268 122 261.1 114.7 258zM538.2 257.1C536.6 256.2 532.5 254.9 525.2 258C517.9 261.1 509.5 267.9 503.2 278.7C496.9 289.5 495.2 300.1 496.2 307.7C497.1 315.3 500.1 318 501.7 318.9C503.3 319.8 507.4 321.1 514.7 318C522 314.9 530.4 308.1 536.7 297.3C543 286.5 544.7 275.9 543.7 268.3C542.8 260.7 539.8 258 538.2 257zM214.1 98.3C246.4 87.7 284.2 113.9 298.5 156.8C312.8 199.7 298.2 243 265.9 253.6C235.6 263.5 200.5 241.1 184.4 202.9L181.5 195.1C167.2 152.2 181.8 108.9 214.1 98.3zM341.5 156.8C355.8 113.9 393.6 87.7 425.9 98.3C458.2 108.9 472.8 152.2 458.5 195.1L455.6 202.9C439.5 241.1 404.4 263.5 374.1 253.6C341.8 243 327.2 199.7 341.5 156.8zM244.8 133.8C235.7 127.5 228.5 127.2 224 128.7C219.6 130.2 214 134.5 210.6 144.8C207.1 155.1 206.7 169.5 211.8 185C216.9 200.5 226.1 211.8 235.1 218.1C244.1 224.4 251.4 224.7 255.9 223.2C260.3 221.7 265.9 217.4 269.3 207.1C272.8 196.8 273.2 182.4 268.1 166.9C263 151.4 253.8 140.1 244.8 133.8zM416 128.8C411.5 127.3 404.3 127.6 395.2 133.9C386.1 140.2 377 151.5 371.9 167C366.8 182.5 367.2 196.9 370.7 207.2C374.2 217.5 379.7 221.8 384.1 223.3C388.6 224.8 395.8 224.5 404.9 218.2C414 211.9 423.1 200.6 428.2 185.1C433.3 169.6 432.9 155.2 429.4 144.9C425.9 134.6 420.4 130.3 416 128.8z"/></svg>