<svg xmlns="http://www.w3.org/2000/svg" viewBox="0 0 640 640"><!--! Font Awesome Pro 7.1.0 by @fontawesome - https://fontawesome.com License - https://fontawesome.com/license (Commercial License) Copyright 2025 Fonticons, Inc. --><path fill="currentColor" d="M304 543.4L304 353.7L157.2 473.8C194.6 513.4 246.3 539.3 304 543.4zM136.9 449.1L304 312.4L304 96.6C187.8 104.8 96 201.7 96 320C96 368.1 111.1 412.6 136.9 449.1zM320 576C178.6 576 64 461.4 64 320C64 178.6 178.6 64 320 64C461.4 64 576 178.6 576 320C576 461.4 461.4 576 320 576zM336 543.4C393.7 539.3 445.4 513.4 482.8 473.8L336 353.8L336 543.4zM503.1 449.1C528.9 412.6 544 368.1 544 320C544 201.7 452.2 104.8 336 96.6L336 312.5L503.1 449.2z"/></svg>