<svg xmlns="http://www.w3.org/2000/svg" viewBox="0 0 640 640"><!--! Font Awesome Pro 7.1.0 by @fontawesome - https://fontawesome.com License - https://fontawesome.com/license (Commercial License) Copyright 2025 Fonticons, Inc. --><path fill="currentColor" d="M192 64C165.5 64 144 85.5 144 112C144 129 147.8 145.1 154.6 159.5C164.5 155.4 174.7 152 185.3 149.4C179.4 138.2 176 125.5 176 111.9C176 103.1 183.2 95.9 192 95.9L224 95.9C261.2 95.9 292.5 121.3 301.4 155.8C313.5 158.6 326.4 158.6 338.5 155.8C347.4 121.4 378.7 95.9 415.9 95.9L447.9 95.9C456.7 95.9 463.9 103.1 463.9 111.9C463.9 125.4 460.5 138.2 454.6 149.4C465.2 151.9 475.5 155.3 485.3 159.5C492.1 145.1 495.9 129 495.9 112C495.9 85.5 474.4 64 447.9 64L416 64C375.3 64 339.6 85.8 320 118.3C300.4 85.8 264.7 64 224 64L192 64zM232 208C301.7 208 359.2 260.4 367.1 328C368.1 336.8 375.2 344 384 344C392.8 344 400.1 336.8 399.2 328C395.2 285.2 375.1 247.1 345.1 219.8C352 218.6 358.9 216.9 365.6 214.7C378.9 210.3 393.1 208 408 208C483.1 208 544 268.9 544 344C544 395.7 505.8 441 452.9 478C401.4 514.1 344.3 536.2 324.7 543.3C323.6 543.7 322.1 544 320.1 544C318.1 544 316.6 543.7 315.4 543.3C295.8 536.3 238.7 514.1 187.2 478C134.3 440.9 96.1 395.6 96.1 344C96.1 268.9 157 208 232.1 208zM355.7 184.3C332.7 191.8 307.3 191.8 284.3 184.3C267.8 178.9 250.3 176 232 176C139.2 176 64 251.2 64 344C64 480.2 263.3 558.6 304.6 573.4C309.6 575.2 314.7 576 320 576C325.3 576 330.4 575.2 335.4 573.4C376.7 558.6 576 480.2 576 344C576 251.2 500.8 176 408 176C389.7 176 372.2 178.9 355.7 184.3z"/></svg>