<svg xmlns="http://www.w3.org/2000/svg" viewBox="0 0 640 640"><!--! Font Awesome Pro 7.1.0 by @fontawesome - https://fontawesome.com License - https://fontawesome.com/license (Commercial License) Copyright 2025 Fonticons, Inc. --><path fill="currentColor" d="M96 426.9L96 496C96 522.5 117.5 544 144 544L205.7 544C239.6 544 272.2 530.5 296.2 506.5L309.1 493.6C328 474.7 340.5 450.4 344.8 424.1L346.7 412.5C352.3 378.8 378.7 352.4 412.5 346.7L419 345.6C448.6 340.7 475.9 326.6 497.2 305.4L501.8 300.8C528.8 273.8 544 237.2 544 199L544 144C544 117.5 522.5 96 496 96L440.9 96C402.7 96 366.1 111.2 339.1 138.2L334.5 142.8C313.3 164 299.2 191.3 294.3 221L293.2 227.5C287.6 261.2 261.2 287.6 227.4 293.3L208 296.5C185.6 300.2 164.6 309.9 147.1 324.4L142 328.6C112.9 352.9 96 389 96 426.9zM64 496L64 426.9C64 379.5 85.1 334.4 121.6 304L126.7 299.8C148.5 281.6 174.8 269.6 202.8 264.9L222.2 261.7C242.4 258.3 258.3 242.5 261.7 222.2L262.8 215.7C268.8 179.5 286 146.1 312 120.2L316.6 115.6C349.5 82.5 394.2 64 440.9 64L496 64C540.2 64 576 99.8 576 144L576 199.1C576 245.8 557.5 290.5 524.5 323.6L519.9 328.2C494 354.1 460.6 371.3 424.4 377.4L417.9 378.5C397.7 381.9 381.8 397.7 378.4 418L376.5 429.6C371 462.5 355.4 492.9 331.8 516.4L318.9 529.3C288.9 559.3 248.2 576.2 205.8 576.2L144 576C99.8 576 64 540.2 64 496zM172.8 480C172.8 469.4 181.4 460.8 192 460.8C202.6 460.8 211.2 469.4 211.2 480C211.2 490.6 202.6 499.2 192 499.2C181.4 499.2 172.8 490.6 172.8 480zM416 236.8C426.6 236.8 435.2 245.4 435.2 256C435.2 266.6 426.6 275.2 416 275.2C405.4 275.2 396.8 266.6 396.8 256C396.8 245.4 405.4 236.8 416 236.8zM236.8 480C236.8 469.4 245.4 460.8 256 460.8C266.6 460.8 275.2 469.4 275.2 480C275.2 490.6 266.6 499.2 256 499.2C245.4 499.2 236.8 490.6 236.8 480zM480 236.8C490.6 236.8 499.2 245.4 499.2 256C499.2 266.6 490.6 275.2 480 275.2C469.4 275.2 460.8 266.6 460.8 256C460.8 245.4 469.4 236.8 480 236.8zM236.8 416C236.8 405.4 245.4 396.8 256 396.8C266.6 396.8 275.2 405.4 275.2 416C275.2 426.6 266.6 435.2 256 435.2C245.4 435.2 236.8 426.6 236.8 416zM480 172.8C490.6 172.8 499.2 181.4 499.2 192C499.2 202.6 490.6 211.2 480 211.2C469.4 211.2 460.8 202.6 460.8 192C460.8 181.4 469.4 172.8 480 172.8z"/></svg>