<svg xmlns="http://www.w3.org/2000/svg" viewBox="0 0 640 640"><!--! Font Awesome Pro 7.1.0 by @fontawesome - https://fontawesome.com License - https://fontawesome.com/license (Commercial License) Copyright 2025 Fonticons, Inc. --><path fill="currentColor" d="M96 496L96 426.9C96 388.9 112.9 352.9 142.1 328.6L147.2 324.4C164.7 309.8 185.7 300.2 208.1 296.5L227.5 293.3C261.2 287.7 287.6 261.3 293.3 227.5L294.4 221C299.3 191.4 313.4 164.1 334.6 142.9L339.2 138.3C366.2 111.3 402.8 96.1 441 96.1L496 96C522.5 96 544 117.5 544 144L544 199.1C544 237.3 528.8 273.9 501.8 300.9L497.2 305.5C476 326.7 448.7 340.8 419 345.7L412.5 346.8C378.8 352.4 352.4 378.8 346.7 412.6L344.8 424.2C340.4 450.5 327.9 474.8 309.1 493.7L296.2 506.6C272.2 530.6 239.6 544.1 205.7 544.1L144 544C117.5 544 96 522.5 96 496zM64 426.9L64 496C64 540.2 99.8 576 144 576L205.7 576C248.1 576 288.8 559.1 318.8 529.1L331.7 516.2C355.3 492.6 370.9 462.3 376.4 429.4L378.3 417.8C381.7 397.6 397.5 381.7 417.8 378.3L424.3 377.2C460.5 371.2 493.9 354 519.8 328L524.4 323.4C557.4 290.4 575.9 245.6 575.9 198.9L576 144C576 99.8 540.2 64 496 64L440.9 64C394.2 64 349.5 82.5 316.4 115.5L311.8 120.1C285.9 146 268.7 179.4 262.6 215.6L261.5 222.1C258.1 242.3 242.3 258.2 222 261.6L202.6 264.8C174.6 269.5 148.3 281.5 126.5 299.7L121.6 304C85.1 334.4 64 379.5 64 426.9zM192 499.2C202.6 499.2 211.2 490.6 211.2 480C211.2 469.4 202.6 460.8 192 460.8C181.4 460.8 172.8 469.4 172.8 480C172.8 490.6 181.4 499.2 192 499.2zM435.2 256C435.2 245.4 426.6 236.8 416 236.8C405.4 236.8 396.8 245.4 396.8 256C396.8 266.6 405.4 275.2 416 275.2C426.6 275.2 435.2 266.6 435.2 256zM256 499.2C266.6 499.2 275.2 490.6 275.2 480C275.2 469.4 266.6 460.8 256 460.8C245.4 460.8 236.8 469.4 236.8 480C236.8 490.6 245.4 499.2 256 499.2zM499.2 256C499.2 245.4 490.6 236.8 480 236.8C469.4 236.8 460.8 245.4 460.8 256C460.8 266.6 469.4 275.2 480 275.2C490.6 275.2 499.2 266.6 499.2 256zM256 435.2C266.6 435.2 275.2 426.6 275.2 416C275.2 405.4 266.6 396.8 256 396.8C245.4 396.8 236.8 405.4 236.8 416C236.8 426.6 245.4 435.2 256 435.2zM499.2 192C499.2 181.4 490.6 172.8 480 172.8C469.4 172.8 460.8 181.4 460.8 192C460.8 202.6 469.4 211.2 480 211.2C490.6 211.2 499.2 202.6 499.2 192zM339.6 575.2C323.3 588.9 305.1 599.9 285.7 608L327 608C360.9 608 393.5 594.5 417.5 570.5L423 565C441.9 546.1 454.4 521.8 458.7 495.5L460.2 486.5C462.4 473 473 462.4 486.5 460.2L495.5 458.7C521.8 454.3 546.1 441.8 565 423L570.5 417.5C594.5 393.5 608 360.9 608 327L608 284C608 283.4 608 282.9 608 282.3C599.9 302.4 589 321.4 575.3 338.6C572.7 359.8 563.1 379.7 547.9 394.9L542.4 400.4C528.3 414.6 510 423.9 490.3 427.2L481.3 428.7C454.3 433.2 433.2 454.3 428.7 481.3L427.2 490.3C423.9 510 414.5 528.3 400.4 542.4L394.9 547.9C379.9 562.9 360.5 572.4 339.7 575.2z"/></svg>