<svg xmlns="http://www.w3.org/2000/svg" viewBox="0 0 640 640"><!--! Font Awesome Pro 7.1.0 by @fontawesome - https://fontawesome.com License - https://fontawesome.com/license (Commercial License) Copyright 2025 Fonticons, Inc. --><path fill="currentColor" d="M480 96C267.9 96 96 267.9 96 480L96 528C96 536.8 103.2 544 112 544L160 544C372.1 544 544 372.1 544 160L544 112C544 103.2 536.8 96 528 96L480 96zM480 64L528 64C554.5 64 576 85.5 576 112L576 160C576 389.8 389.8 576 160 576L112 576C85.5 576 64 554.5 64 528L64 480C64 250.2 250.2 64 480 64zM432 176C414.3 176 400 190.3 400 208C400 225.7 414.3 240 432 240C449.7 240 464 225.7 464 208C464 190.3 449.7 176 432 176zM496 208C496 243.3 467.3 272 432 272C396.7 272 368 243.3 368 208C368 172.7 396.7 144 432 144C467.3 144 496 172.7 496 208zM288 320C288 337.7 302.3 352 320 352C337.7 352 352 337.7 352 320C352 302.3 337.7 288 320 288C302.3 288 288 302.3 288 320zM320 384C284.7 384 256 355.3 256 320C256 284.7 284.7 256 320 256C355.3 256 384 284.7 384 320C384 355.3 355.3 384 320 384zM176 432C176 449.7 190.3 464 208 464C225.7 464 240 449.7 240 432C240 414.3 225.7 400 208 400C190.3 400 176 414.3 176 432zM208 496C172.7 496 144 467.3 144 432C144 396.7 172.7 368 208 368C243.3 368 272 396.7 272 432C272 467.3 243.3 496 208 496z"/></svg>