<svg xmlns="http://www.w3.org/2000/svg" viewBox="0 0 640 640"><!--! Font Awesome Pro 7.1.0 by @fontawesome - https://fontawesome.com License - https://fontawesome.com/license (Commercial License) Copyright 2025 Fonticons, Inc. --><path fill="currentColor" d="M571.3 68.7C577.5 74.9 577.5 85.1 571.3 91.3L517.1 145.5C534 167.2 544 194.4 544 224C544 254.7 533.2 282.9 515.1 305C485.2 341.5 453.7 386.8 441.8 432.4C433.5 464.4 416.8 494.7 391.7 519.7C316.7 594.7 195.2 594.7 120.2 519.7C45.2 444.7 45.2 323.2 120.2 248.2C145.3 223.1 175.5 206.4 207.5 198.1C253.2 186.3 298.4 154.7 334.9 124.8C357 106.8 385.2 95.9 415.9 95.9C445.5 95.9 472.7 105.9 494.4 122.8L548.7 68.7C554.9 62.5 565.1 62.5 571.3 68.7zM452.7 164.7L471.6 145.8C455.9 134.6 436.7 128.1 416 128.1C392.9 128.1 371.8 136.2 355.3 149.7C318.2 180 268.4 215.5 215.6 229.2C189 236.1 163.8 250 142.8 270.9C80.3 333.4 80.3 434.7 142.8 497.2C205.3 559.7 306.6 559.7 369.1 497.2C390 476.3 403.9 451.1 410.8 424.4C424.5 371.6 460 321.8 490.3 284.7C503.8 268.1 511.9 247 511.9 224C511.9 203.3 505.3 184.1 494.2 168.4L475.3 187.3C469.1 193.5 458.9 193.5 452.7 187.3C446.5 181.1 446.5 170.9 452.7 164.7zM368 400C368 453 325 496 272 496C263.2 496 256 488.8 256 480C256 471.2 263.2 464 272 464C307.3 464 336 435.3 336 400C336 391.2 343.2 384 352 384C360.8 384 368 391.2 368 400z"/></svg>