<svg xmlns="http://www.w3.org/2000/svg" viewBox="0 0 640 640"><!--! Font Awesome Pro 7.1.0 by @fontawesome - https://fontawesome.com License - https://fontawesome.com/license (Commercial License) Copyright 2025 Fonticons, Inc. --><path fill="currentColor" d="M192 96C174.3 96 160 110.3 160 128L160 544L480 544L480 128C480 110.3 465.7 96 448 96L192 96zM128 544L128 128C128 92.7 156.7 64 192 64L448 64C483.3 64 512 92.7 512 128L512 544L528 544C536.8 544 544 551.2 544 560C544 568.8 536.8 576 528 576L112 576C103.2 576 96 568.8 96 560C96 551.2 103.2 544 112 544L128 544zM216 176C216 162.7 226.7 152 240 152C253.3 152 264 162.7 264 176C264 189.3 253.3 200 240 200C226.7 200 216 189.3 216 176zM400 152C413.3 152 424 162.7 424 176C424 189.3 413.3 200 400 200C386.7 200 376 189.3 376 176C376 162.7 386.7 152 400 152z"/></svg>