<svg xmlns="http://www.w3.org/2000/svg" viewBox="0 0 640 640"><!--! Font Awesome Pro 7.1.0 by @fontawesome - https://fontawesome.com License - https://fontawesome.com/license (Commercial License) Copyright 2025 Fonticons, Inc. --><path fill="currentColor" d="M365 217.3C366.1 215.8 366.9 214 367.5 212.1C367.9 210.7 368.1 209.2 368 207.7C368.1 146 418.2 96 480 96L517.8 96C542.5 96 563.2 114.8 565.6 139.4L573.3 220.2C574.4 232.1 568.8 243.6 558.6 249.9C544.2 258.9 525.2 254.8 515.7 240.7L509.3 231.1C506.3 226.6 501.3 224 496 224L464 224C455.2 224 448 231.2 448 240L448 292.8C447.7 294.3 447.6 295.8 447.7 297.3C447.9 299.5 448 301.7 448 304C448 328 437.6 349.1 421.3 363.6C417.9 366.6 416 371 416 375.5L416 536C416 540.4 412.4 544 408 544L376 544C371.6 544 368 540.4 368 536L368 398.7C368 390.9 362.4 384.2 354.7 382.9C353.3 382.7 351.9 382.4 350.4 382.1L234.2 355.9C229 354.7 223.6 356.2 219.7 359.9C215.8 363.6 214 368.9 214.9 374.2C215.7 378.7 216 383.3 216 387.9C216 399.2 213.7 410.3 209.3 420.7L201.2 439.7C196.2 451.4 195.3 464.5 198.7 476.7L214.6 533.9C216 539 212.2 544 206.9 544L173.7 544C170.1 544 167 541.6 166 538.1L152.5 489.5C146.2 466.7 147.8 442.4 157.1 420.7L165.2 401.7C167.1 397.3 168 392.6 168 387.8C168 383.2 167.1 378.5 165.3 374.3L131.9 294.2C129.3 288 128 281.4 128 274.7C128 252.9 141.8 234.2 161.2 227.1C156.8 217.7 152.8 207.8 149.4 197.3C129 205 112.4 220.6 103.4 240.4C63.3 244.7 32 278.7 32 319.9L32 367.9C32 376.7 39.2 383.9 48 383.9C56.8 383.9 64 376.7 64 367.9L64 319.9C64 299 77.4 281.2 96 274.6C96 285.5 98.2 296.3 102.4 306.3L135.8 386.4C136 386.8 136 387.2 136 387.6C136 388 135.9 388.5 135.7 388.9L127.6 407.9C115.4 436.3 113.3 468.1 121.6 497.9L135.1 546.5C139.9 563.8 155.7 575.8 173.6 575.8L206.8 575.8C233.3 575.8 252.4 550.6 245.3 525.1L229.4 467.9C227.9 462.6 228.3 457 230.5 452L238.6 433C244.2 419.9 247.4 405.8 247.8 391.6L336 411.6L336 536C336 558.1 353.9 576 376 576L408 576C430.1 576 448 558.1 448 536L448 382.4C467.6 362.4 480 334.9 480 304C480 302.1 479.9 300.1 479.9 298.2C480 297.5 480 296.8 480 296L480 256L487.4 256L489.1 258.5C508.1 287.1 546.5 295.3 575.6 277.1C596 264.4 607.4 241.2 605.2 217.2L597.5 136.4C596 120.9 590.2 106.7 581.2 95.1C587.5 93 592 87 592 80C592 71.2 584.8 64 576 64L480 64C409.4 64 350.7 114.8 338.4 181.8L191.9 98.1C186.9 95.3 180.9 95.3 175.9 98.2C170.9 101.1 167.9 106.3 167.9 112C167.9 189.2 202.3 244.9 236.2 281C253.1 299 270.1 312.2 282.8 321C289.2 325.4 294.5 328.7 298.3 330.9C300.2 332 301.7 332.9 302.8 333.4C303.3 333.7 303.8 333.9 304.1 334.1L304.5 334.3L304.6 334.4L304.6 334.4L304.6 334.4L311.8 320.1L304.6 334.4C312.5 338.4 322.1 335.1 326.1 327.2C330.1 319.3 326.9 309.7 319 305.7L319 305.7L318.8 305.6L317.9 305.1C317.1 304.7 315.9 304 314.3 303.1C311.1 301.3 306.5 298.4 300.8 294.5C289.5 286.7 274.4 275 259.4 259C233.8 231.8 208.6 192.8 201.6 140.6L343.8 221.8C346.8 223.5 350.2 224.2 353.4 223.8C355.7 223.6 357.9 222.8 359.8 221.7C361.7 220.6 363.4 219.1 364.8 217.2zM512 176C520.8 176 528 168.8 528 160C528 151.2 520.8 144 512 144C503.2 144 496 151.2 496 160C496 168.8 503.2 176 512 176z"/></svg>