<svg xmlns="http://www.w3.org/2000/svg" viewBox="0 0 640 640"><!--! Font Awesome Pro 7.1.0 by @fontawesome - https://fontawesome.com License - https://fontawesome.com/license (Commercial License) Copyright 2025 Fonticons, Inc. --><path fill="currentColor" d="M468 96C457.3 96 447.1 100.2 439.5 107.8L381 166.3L473.7 259L532.2 200.5C539.8 192.9 544 182.7 544 172C544 161.3 539.8 151.1 532.2 143.5L496.5 107.8C488.9 100.2 478.7 96 468 96zM358.3 143.7L416.8 85.2C430.4 71.6 448.8 64 468 64C487.2 64 505.6 71.6 519.1 85.2L554.8 120.9C568.4 134.4 576 152.8 576 172C576 191.2 568.4 209.6 554.8 223.1L260.8 517.1C250.1 527.8 236.7 535.6 222.1 539.7L94.4 575.1C86.1 577.4 77.1 575.1 71 568.9C64.9 562.7 62.5 553.8 64.8 545.5L100.4 417.8C104.5 403.2 112.2 389.9 123 379.1L335.8 166.3L310.7 141.2C298.2 128.7 277.9 128.7 265.4 141.2L155.3 251.3C149.1 257.5 138.9 257.5 132.7 251.3C126.5 245.1 126.5 234.9 132.7 228.7L242.7 118.6C267.7 93.6 308.2 93.6 333.2 118.6L358.3 143.7zM358.3 189L145.6 401.8C138.8 408.6 133.8 417.1 131.2 426.4L99.5 540.5L213.6 508.8C222.9 506.2 231.4 501.3 238.2 494.4L451 281.7L358.3 189z"/></svg>