<svg xmlns="http://www.w3.org/2000/svg" viewBox="0 0 640 640"><!--! Font Awesome Pro 7.1.0 by @fontawesome - https://fontawesome.com License - https://fontawesome.com/license (Commercial License) Copyright 2025 Fonticons, Inc. --><path fill="currentColor" d="M441.4 109.3L374.7 176L464.1 265.4L530.8 198.7C543.3 186.2 543.3 165.9 530.8 153.4L486.7 109.3C474.2 96.8 453.9 96.8 441.4 109.3zM343.7 161.7L418.8 86.6C443.8 61.6 484.3 61.6 509.3 86.6L553.4 130.7C578.4 155.7 578.4 196.2 553.4 221.2L478.4 296.3L440.8 434C433.5 460.6 413.1 481.6 386.6 489.6L111.5 572.1C99.2 575.8 85.8 572.4 76.8 563.3C67.8 554.2 64.3 540.9 68 528.6L150.5 253.4C158.4 227 179.4 206.5 206.1 199.2L343.7 161.7zM347.3 193.9L214.5 230.1C198.5 234.5 185.9 246.7 181.2 262.6L106.8 510.7L216.9 400.5C211.3 391 208 379.9 208 368C208 332.7 236.7 304 272 304C307.3 304 336 332.7 336 368C336 403.3 307.3 432 272 432C260.1 432 249 428.8 239.5 423.1L129.4 533.3L377.4 458.9C393.3 454.1 405.6 441.5 409.9 425.6L446.1 292.8L347.2 193.9zM272 336C254.3 336 240 350.3 240 368C240 385.7 254.3 400 272 400C289.7 400 304 385.7 304 368C304 350.3 289.7 336 272 336z"/></svg>