<svg xmlns="http://www.w3.org/2000/svg" viewBox="0 0 640 640"><!--! Font Awesome Pro 7.1.0 by @fontawesome - https://fontawesome.com License - https://fontawesome.com/license (Commercial License) Copyright 2025 Fonticons, Inc. --><path fill="currentColor" d="M160 128C142.3 128 128 142.3 128 160L128 480C128 497.7 142.3 512 160 512L480 512C497.7 512 512 497.7 512 480L512 160C512 142.3 497.7 128 480 128L160 128zM96 160C96 124.7 124.7 96 160 96L480 96C515.3 96 544 124.7 544 160L544 480C544 515.3 515.3 544 480 544L160 544C124.7 544 96 515.3 96 480L96 160zM395.5 227.3C389.3 221.1 379.1 221.1 372.9 227.3L351.5 248.7L391.5 288.7L412.9 267.3C419.1 261.1 419.1 250.9 412.9 244.7L395.5 227.3zM246.5 353.7C244.4 355.8 243 358.3 242.3 361.1L230 410.1L279 397.8C281.8 397.1 284.4 395.6 286.4 393.6L368.7 311.3L328.7 271.3L246.4 353.6zM350.3 204.7C369 186 399.4 186 418.2 204.7L435.6 222.1C454.3 240.8 454.3 271.2 435.6 290L309.1 416.3C302.9 422.5 295.2 426.8 286.8 428.9L211.9 447.6C206.4 449 200.7 447.4 196.7 443.4C192.7 439.4 191.1 433.7 192.5 428.2L211.2 353.3C213.3 344.9 217.7 337.2 223.8 331L350.2 204.7z"/></svg>