<svg xmlns="http://www.w3.org/2000/svg" viewBox="0 0 640 640"><!--! Font Awesome Pro 7.1.0 by @fontawesome - https://fontawesome.com License - https://fontawesome.com/license (Commercial License) Copyright 2025 Fonticons, Inc. --><path fill="currentColor" d="M519 109.5C506.4 96.9 486 97 473.6 109.6L447.2 136.4L504.2 193.4L530.9 166.6C543.4 154.1 543.4 133.8 530.9 121.4L519 109.5zM282.3 303.2C278 307.6 275 313.1 273.7 319.1L260.8 380.8L322.3 367.9C328.4 366.6 334 363.6 338.4 359.2L481.5 216L424.6 159.1L282.3 303.2zM450.8 87.1C475.7 61.8 516.5 61.7 541.6 86.8L553.5 98.7C578.5 123.7 578.5 164.2 553.5 189.2L361 381.8C352.2 390.6 341 396.6 328.9 399.2L243.4 417.1C238.1 418.2 232.6 416.6 228.8 412.8C225 409 223.3 403.5 224.5 398.2L242.5 312.5C245 300.5 251 289.4 259.6 280.7L450.8 87.1zM320.1 80C341.6 80 362.5 82.8 382.4 88.2L355.9 115.1C344.3 113.1 332.3 112 320.1 112C205.2 112 112.1 205.1 112.1 320C112.1 434.9 205.2 528 320.1 528C328.9 528 336.1 535.2 336.1 544C336.1 552.8 328.9 560 320.1 560C187.6 560 80.1 452.5 80.1 320C80.1 187.5 187.6 80 320.1 80zM528.1 320C528.1 308.2 527.1 296.7 525.2 285.4L552.1 258.5C557.3 278.1 560.1 298.7 560.1 320C560.1 399.5 495.6 464 416.1 464C403.7 464 391.6 462.4 380.1 459.5C371.5 457.3 366.4 448.6 368.6 440C370.8 431.4 379.5 426.3 388.1 428.5C397 430.8 406.4 432 416.1 432C478 432 528.1 381.9 528.1 320z"/></svg>