<svg xmlns="http://www.w3.org/2000/svg" viewBox="0 0 640 640"><!--! Font Awesome Pro 7.1.0 by @fontawesome - https://fontawesome.com License - https://fontawesome.com/license (Commercial License) Copyright 2025 Fonticons, Inc. --><path fill="currentColor" d="M59.3 36.8C53.1 30.6 42.9 30.6 36.7 36.8C30.5 43 30.5 53.2 36.7 59.4L580.7 603.4C586.9 609.6 597.1 609.6 603.3 603.4C609.5 597.2 609.5 587 603.3 580.8L444.1 421.6L478.3 296.3L553.4 221.2C578.4 196.2 578.4 155.7 553.4 130.7L509.3 86.6C484.3 61.6 443.8 61.6 418.8 86.6L343.7 161.7L218.4 195.9L59.3 36.8zM244.5 221.9L347.3 193.9L446.2 292.8L418.2 395.6L244.6 222zM150.5 253.4L67.9 528.6C64.2 540.9 67.6 554.3 76.7 563.3C85.8 572.3 99.1 575.8 111.4 572.1L386.6 489.6C389.7 488.7 392.8 487.5 395.7 486.3L370.5 461L129.3 533.3L239.5 423.1C249 428.7 260.1 432 272 432C291.1 432 308.2 423.7 319.9 410.4L297.2 387.7C291.3 395.2 282.2 400 272 400C254.3 400 240 385.7 240 368C240 357.8 244.8 348.7 252.3 342.8L229.6 320.1C216.4 331.8 208 348.9 208 368C208 379.9 211.2 391 216.9 400.5L106.7 510.7L179 269.6L153.8 244.3C152.5 247.2 151.4 250.3 150.5 253.4zM441.4 109.3C453.9 96.8 474.2 96.8 486.7 109.3L530.8 153.4C543.3 165.9 543.3 186.2 530.8 198.7L464 265.4L374.6 176L441.4 109.3z"/></svg>