<svg xmlns="http://www.w3.org/2000/svg" viewBox="0 0 640 640"><!--! Font Awesome Pro 7.1.0 by @fontawesome - https://fontawesome.com License - https://fontawesome.com/license (Commercial License) Copyright 2025 Fonticons, Inc. --><path fill="currentColor" d="M436 96C425.3 96 415.1 100.2 407.5 107.8L349 166.3L441.7 259L500.2 200.5C507.8 192.9 512 182.7 512 172C512 161.3 507.8 151.1 500.2 143.5L464.5 107.8C456.9 100.2 446.7 96 436 96zM113.6 401.8C106.8 408.6 101.8 417.1 99.2 426.4L67.5 540.5L181.6 508.8C190.9 506.2 199.4 501.3 206.2 494.4L419 281.7L326.3 189L113.6 401.8zM384.9 85.2C398.4 71.6 416.8 64 436 64C455.2 64 473.6 71.6 487.1 85.2L522.8 120.9C536.4 134.4 544 152.8 544 172C544 191.2 536.4 209.6 522.8 223.1L228.8 517.1C218.1 527.8 204.7 535.6 190.1 539.7L62.4 575.1C54.1 577.4 45.1 575.1 39 568.9C32.9 562.7 30.5 553.8 32.8 545.5L68.4 417.8C72.5 403.2 80.2 389.9 91 379.1L385 85.1zM304 544L592 544C600.8 544 608 551.2 608 560C608 568.8 600.8 576 592 576L304 576C295.2 576 288 568.8 288 560C288 551.2 295.2 544 304 544z"/></svg>