<svg xmlns="http://www.w3.org/2000/svg" viewBox="0 0 640 640"><!--! Font Awesome Pro 7.1.0 by @fontawesome - https://fontawesome.com License - https://fontawesome.com/license (Commercial License) Copyright 2025 Fonticons, Inc. --><path fill="currentColor" d="M59.3 36.8C53.1 30.6 42.9 30.6 36.7 36.8C30.5 43 30.5 53.2 36.7 59.4L580.7 603.4C586.9 609.6 597.1 609.6 603.3 603.4C609.5 597.2 609.5 587 603.3 580.8L381.1 358.6L548.7 207.7C566.1 192.1 576 169.8 576 146.4C576 100.9 539.1 64 493.6 64C470.2 64 448 73.9 432.3 91.3L281.5 258.9L59.3 36.8zM304.1 281.6L456.1 112.7C465.7 102.1 479.3 96 493.6 96C521.4 96 544 118.6 544 146.4C544 160.7 537.9 174.3 527.3 183.9L358.4 335.9L304.1 281.6zM162.9 329.4C143.1 335.5 127.5 350.7 121 370.3L66.9 532.6C58.6 557.6 82.4 581.4 107.4 573.1L269.6 519C289.2 512.5 304.5 496.9 310.5 477.1L328.4 419L302.8 393.4L279.9 467.7C276.9 477.6 269.2 485.4 259.4 488.6L131.2 531.4L198.7 464C199.1 464 199.6 464 200 464C213.3 464 224 453.3 224 440C224 426.7 213.3 416 200 416C186.7 416 176 426.7 176 440C176 440.4 176 440.9 176 441.3L108.6 508.7L151.4 380.4C154.7 370.6 162.5 363 172.3 359.9L246.6 337L221 311.4L162.9 329.3z"/></svg>