<svg xmlns="http://www.w3.org/2000/svg" viewBox="0 0 640 640"><!--! Font Awesome Pro 7.1.0 by @fontawesome - https://fontawesome.com License - https://fontawesome.com/license (Commercial License) Copyright 2025 Fonticons, Inc. --><path fill="currentColor" d="M456.1 112.7C465.7 102.1 479.3 96 493.6 96C521.4 96 544 118.6 544 146.4C544 160.7 537.9 174.3 527.3 183.9L324.8 366.2L273.8 315.2L456.1 112.7zM249.6 336.2L303.7 390.3L279.9 467.6C276.9 477.5 269.2 485.3 259.4 488.5L131.2 531.4L198.7 464C199.1 464 199.6 464 200 464C213.3 464 224 453.3 224 440C224 426.7 213.3 416 200 416C186.7 416 176 426.7 176 440C176 440.4 176 440.9 176 441.3L108.6 508.8L151.4 380.5C154.7 370.7 162.5 363.1 172.3 360L249.6 336.2zM493.6 64C470.2 64 448 73.9 432.3 91.3L239.1 306L162.9 329.4C143.1 335.5 127.5 350.7 121 370.3L66.9 532.6C58.6 557.6 82.4 581.4 107.4 573.1L269.6 519C289.2 512.5 304.5 496.9 310.5 477.1L334 400.9L548.7 207.7C566.1 192.1 576 169.8 576 146.4C576 100.9 539.1 64 493.6 64z"/></svg>