<svg xmlns="http://www.w3.org/2000/svg" viewBox="0 0 640 640"><!--! Font Awesome Pro 7.1.0 by @fontawesome - https://fontawesome.com License - https://fontawesome.com/license (Commercial License) Copyright 2025 Fonticons, Inc. --><path fill="currentColor" d="M468 96C457.3 96 447.1 100.2 439.5 107.8L381 166.3L473.7 259L532.2 200.5C539.8 192.9 544 182.7 544 172C544 161.3 539.8 151.1 532.2 143.5L496.5 107.8C488.9 100.2 478.7 96 468 96zM145.6 401.8C138.8 408.6 133.8 417.1 131.2 426.4L99.5 540.5L213.6 508.8C222.9 506.2 231.4 501.3 238.2 494.4L451 281.7L358.3 189L145.6 401.8zM416.9 85.2C430.4 71.6 448.8 64 468 64C487.2 64 505.6 71.6 519.1 85.2L554.8 120.9C568.4 134.4 576 152.8 576 172C576 191.2 568.4 209.6 554.8 223.1L260.8 517.1C250.1 527.8 236.7 535.6 222.1 539.7L94.4 575.1C86.1 577.4 77.1 575.1 71 568.9C64.9 562.7 62.5 553.8 64.8 545.5L100.4 417.8C104.5 403.2 112.2 389.9 123 379.1L417 85.1zM153.8 280.4L59.6 186.2C47 173.7 40 156.7 40 138.9C40 102 70 72 106.9 72C124.7 72 141.7 79 154.2 91.6L248.4 185.8L225.8 208.4L131.6 114.2C125.1 107.7 116.2 104 106.9 104C87.6 104 72 119.6 72 138.9C72 148.2 75.7 157.1 82.2 163.6L176.4 257.8L153.8 280.4zM316.9 529L339.7 506.2C357.2 529.2 384.9 544 416.1 544L568.6 544C546.4 544 529.6 531.4 520.1 517C510.8 502.9 506.7 484.7 510.3 467C511.5 460.9 512.2 454.6 512.2 448C512.2 416.9 497.4 389.2 474.4 371.6L497 348.9C525.7 372.4 544 408.1 544 448C544 456.6 543.1 465.1 541.5 473.2C537.9 491.3 550 512 568.5 512L576 512C593.7 512 608 526.3 608 544C608 561.7 593.7 576 576 576L416 576C376 576 340.3 557.7 316.9 529z"/></svg>