<svg xmlns="http://www.w3.org/2000/svg" viewBox="0 0 640 640"><!--! Font Awesome Pro 7.1.0 by @fontawesome - https://fontawesome.com License - https://fontawesome.com/license (Commercial License) Copyright 2025 Fonticons, Inc. --><path fill="currentColor" d="M504 64C494.6 64 485.7 67.7 479 74.3L440.4 112.9C437.7 112.3 434.8 112 432 112C421.8 112 411.9 116.1 404.7 123.3L375.3 152.7L345.9 123.3C327.2 104.6 296.8 104.6 278 123.3L172.7 228.7C166.5 234.9 166.5 245.1 172.7 251.3C178.9 257.5 189.1 257.5 195.3 251.3L300.7 145.9C306.9 139.7 317.1 139.7 323.3 145.9L352.7 175.3L144.4 383.6C138.9 389.1 134.8 395.8 132.5 403.2L96 519.9L96.7 520.6L68.7 548.6C62.5 554.8 62.5 565 68.7 571.2C74.9 577.4 85.1 577.4 91.3 571.2L119.3 543.2L120 543.9L236.7 507.4C244.1 505.1 250.8 501 256.3 495.5L516.7 235.3C523.9 228.1 528 218.2 528 208C528 205.1 527.7 202.3 527.1 199.6L565.7 161C572.3 154.4 576 145.4 576 136C576 126.6 572.3 117.7 565.7 111L529 74.3C522.3 67.7 513.4 64 504 64zM508.7 172.7L467.3 131.3L501.7 97C502.3 96.4 503.2 96 504 96C504.8 96 505.7 96.3 506.3 97L543 133.7C543.6 134.3 544 135.2 544 136C544 136.8 543.7 137.7 543 138.3L508.7 172.6zM494.1 203.3C495.3 204.5 496 206.2 496 208C496 209.8 495.3 211.4 494.1 212.7L252.7 454.1L185.9 387.3L427.3 145.9C428.5 144.7 430.2 144 432 144C433.8 144 435.4 144.7 436.7 145.9L494.1 203.3zM163 412.8C163.2 412 163.5 411.3 163.9 410.5L229.4 476C228.7 476.4 227.9 476.7 227.1 476.9L133.9 506.1L163 412.8z"/></svg>