<svg xmlns="http://www.w3.org/2000/svg" viewBox="0 0 640 640"><!--! Font Awesome Pro 7.1.0 by @fontawesome - https://fontawesome.com License - https://fontawesome.com/license (Commercial License) Copyright 2025 Fonticons, Inc. --><path fill="currentColor" d="M329.6 86.8C324 82.7 316.4 82.7 310.8 86.8L86.1 250.1C80.5 254.2 78.1 261.4 80.3 268L166.1 532.1C168.2 538.7 174.4 543.2 181.3 543.2L459 543.2C465.9 543.2 472.1 538.7 474.2 532.1L560 267.9C562.1 261.3 559.8 254.1 554.2 250L329.6 86.8L348.4 60.9L573 224.2C589.8 236.4 596.9 258.1 590.4 277.9L504.7 541.9C498.3 561.7 479.8 575.1 459 575.1L181.3 575.1C160.5 575.1 142.1 561.7 135.6 541.9L49.9 277.8C43.5 258 50.5 236.4 67.3 224.1L292 60.9C308.8 48.7 331.6 48.7 348.4 60.9L329.6 86.8z"/></svg>