<svg xmlns="http://www.w3.org/2000/svg" viewBox="0 0 640 640"><!--! Font Awesome Pro 7.1.0 by @fontawesome - https://fontawesome.com License - https://fontawesome.com/license (Commercial License) Copyright 2025 Fonticons, Inc. --><path fill="currentColor" d="M192 112C205.3 112 216 101.3 216 88C216 74.7 205.3 64 192 64C178.7 64 168 74.7 168 88C168 101.3 178.7 112 192 112zM192 32C222.9 32 248 57.1 248 88C248 118.9 222.9 144 192 144C161.1 144 136 118.9 136 88C136 57.1 161.1 32 192 32zM112 265.6L62.1 359.5C58 367.3 48.3 370.3 40.5 366.1C32.7 361.9 29.7 352.3 33.9 344.5L92.3 234.3C111.3 198.4 148.7 176 189.3 176C233.2 176 272.8 202.1 290.2 242.4L322.4 317L385.2 212.4C398.7 189.8 423.1 176 449.4 176C473.8 176 496.7 187.9 510.8 207.9L605.2 342.8C610.3 350 608.5 360 601.3 365.1C594.1 370.2 584.1 368.4 579 361.2L520.7 278L569.2 427C572.6 437.3 564.9 448 554 448L512 448L512 592C512 600.8 504.8 608 496 608C487.2 608 480 600.8 480 592L480 448L416 448L416 592C416 600.8 408.8 608 400 608C391.2 608 384 600.8 384 592L384 448L342 448C331.1 448 323.4 437.4 326.8 427L366.1 306.1L333.7 360.2C330.6 365.3 324.9 368.3 318.9 367.9C312.9 367.5 307.6 363.8 305.3 358.3L272 281L272 592C272 600.8 264.8 608 256 608C247.2 608 240 600.8 240 592L240 432L144 432L144 592C144 600.8 136.8 608 128 608C119.2 608 112 600.8 112 592L112 265.6zM240 226.8C226.2 214.9 208.3 208.1 189.3 208.1C172.7 208.1 156.9 213.4 144 222.7L144 400.1L240 400.1L240 226.8zM448 112C461.3 112 472 101.3 472 88C472 74.7 461.3 64 448 64C434.7 64 424 74.7 424 88C424 101.3 434.7 112 448 112zM448 32C478.9 32 504 57.1 504 88C504 118.9 478.9 144 448 144C417.1 144 392 118.9 392 88C392 57.1 417.1 32 448 32zM531.9 416L470 225.5C466.9 216 458 209.6 448.1 209.6C438.2 209.6 429.2 216 426.2 225.5L364.2 416L532.1 416z"/></svg>