<svg xmlns="http://www.w3.org/2000/svg" viewBox="0 0 640 640"><!--! Font Awesome Pro 7.1.0 by @fontawesome - https://fontawesome.com License - https://fontawesome.com/license (Commercial License) Copyright 2025 Fonticons, Inc. --><path fill="currentColor" d="M352 128C352 110.3 337.7 96 320 96C302.3 96 288 110.3 288 128C288 145.7 302.3 160 320 160C337.7 160 352 145.7 352 128zM256 128C256 92.7 284.7 64 320 64C355.3 64 384 92.7 384 128C384 163.3 355.3 192 320 192C284.7 192 256 163.3 256 128zM160 176C173.3 176 184 165.3 184 152C184 138.7 173.3 128 160 128C146.7 128 136 138.7 136 152C136 165.3 146.7 176 160 176zM160 96C190.9 96 216 121.1 216 152C216 182.9 190.9 208 160 208C129.1 208 104 182.9 104 152C104 121.1 129.1 96 160 96zM480 176C493.3 176 504 165.3 504 152C504 138.7 493.3 128 480 128C466.7 128 456 138.7 456 152C456 165.3 466.7 176 480 176zM480 96C510.9 96 536 121.1 536 152C536 182.9 510.9 208 480 208C449.1 208 424 182.9 424 152C424 121.1 449.1 96 480 96zM191.2 257C184.1 266.6 178.1 277 173.3 288C130.4 289.4 96 324.7 96 368C96 391.7 106.3 413 122.7 427.6C126.1 430.6 128 435 128 439.5L128 528C128 536.8 120.8 544 112 544C103.2 544 96 536.8 96 528L96 446.4C76.2 426.2 64 398.5 64 368C64 306.1 114.1 256 176 256C181.2 256 186.2 256.3 191.2 257zM466.7 288C461.9 277 455.8 266.6 448.8 257C453.8 256.3 458.9 256 464 256C525.9 256 576 306.1 576 368C576 398.5 563.8 426.2 544 446.4L544 528C544 536.8 536.8 544 528 544C519.2 544 512 536.8 512 528L512 439.6C512 435 513.9 430.7 517.3 427.7C533.7 413 544 391.8 544 368.1C544 324.8 509.6 289.6 466.7 288.1zM320 272C275.8 272 240 307.8 240 352L240 368C240 391.7 250.3 413 266.7 427.6C270.1 430.6 272 435 272 439.5L272 519.9C272 533.2 282.7 543.9 296 543.9L344 543.9C357.3 543.9 368 533.2 368 519.9L368 439.5C368 434.9 369.9 430.6 373.3 427.6C389.7 412.9 400 391.7 400 368L400 352C400 307.8 364.2 272 320 272zM208 352C208 290.1 258.1 240 320 240C381.9 240 432 290.1 432 352L432 368C432 398.5 419.8 426.2 400 446.4L400 520C400 550.9 374.9 576 344 576L296 576C265.1 576 240 550.9 240 520L240 446.4C220.2 426.2 208 398.5 208 368L208 352z"/></svg>