<svg xmlns="http://www.w3.org/2000/svg" viewBox="0 0 640 640"><!--! Font Awesome Pro 7.1.0 by @fontawesome - https://fontawesome.com License - https://fontawesome.com/license (Commercial License) Copyright 2025 Fonticons, Inc. --><path fill="currentColor" d="M168 88C168 74.7 178.7 64 192 64C205.3 64 216 74.7 216 88C216 101.3 205.3 112 192 112C178.7 112 168 101.3 168 88zM248 88C248 57.1 222.9 32 192 32C161.1 32 136 57.1 136 88C136 118.9 161.1 144 192 144C222.9 144 248 118.9 248 88zM112 259.8L112 592C112 600.8 119.2 608 128 608C136.8 608 144 600.8 144 592L144 432L240 432L240 592C240 600.8 247.2 608 256 608C264.8 608 272 600.8 272 592L272 275.1L305.2 358C307.6 364.1 313.5 368.1 320.1 368.1C326.7 368.1 332.5 364.1 335 358L368 275.1L368 592C368 600.8 375.2 608 384 608C392.8 608 400 600.8 400 592L400 432L496 432L496 592C496 600.8 503.2 608 512 608C520.8 608 528 600.8 528 592L528 259.8L577.7 359.2C581.7 367.1 591.3 370.3 599.2 366.4C607.1 362.5 610.3 352.8 606.4 344.9L552.8 237.9C533.9 200 495.1 176 452.7 176L449 176C403.2 176 362 203.9 345 246.4L320 308.9L295 246.4C278 203.9 236.8 176 191 176L187.3 176C144.9 176 106.1 200 87.1 237.9L33.7 344.8C29.7 352.7 33 362.3 40.9 366.3C48.8 370.3 58.4 367 62.4 359.1L112 259.8zM144 220.8C156.7 212.6 171.7 208 187.3 208L191 208C209.1 208 226.3 214.1 240 224.8L240 400L144 400L144 220.8zM496 220.8L496 400.1L400 400.1L400 224.9C413.7 214.3 430.9 208.1 449 208.1L452.7 208.1C468.4 208.1 483.3 212.7 496 220.8zM424 88C424 74.7 434.7 64 448 64C461.3 64 472 74.7 472 88C472 101.3 461.3 112 448 112C434.7 112 424 101.3 424 88zM504 88C504 57.1 478.9 32 448 32C417.1 32 392 57.1 392 88C392 118.9 417.1 144 448 144C478.9 144 504 118.9 504 88z"/></svg>