<svg xmlns="http://www.w3.org/2000/svg" viewBox="0 0 640 640"><!--! Font Awesome Pro 7.1.0 by @fontawesome - https://fontawesome.com License - https://fontawesome.com/license (Commercial License) Copyright 2025 Fonticons, Inc. --><path fill="currentColor" d="M192.1 96C209.8 96 224.1 110.3 224.1 128C224.1 145.7 209.8 160 192.1 160C174.4 160 160.1 145.7 160.1 128C160.1 110.3 174.4 96 192.1 96zM192.1 192C227.4 192 256.1 163.3 256.1 128C256.1 92.7 227.4 64 192.1 64C156.8 64 128.1 92.7 128.1 128C128.1 163.3 156.8 192 192.1 192zM224.1 256C241.8 256 256.1 270.3 256.1 288L256.1 352C256.1 369.7 241.8 384 224.1 384L160.1 384C142.4 384 128.1 369.7 128.1 352L128.1 288C128.1 270.3 142.4 256 160.1 256L224.1 256zM160.1 224C124.8 224 96.1 252.7 96.1 288L96.1 352C96.1 375.7 109 396.4 128.1 407.4L128.1 560C128.1 568.8 135.3 576 144.1 576C152.9 576 160.1 568.8 160.1 560L160.1 416L224.1 416L224.1 560C224.1 568.8 231.3 576 240.1 576C248.9 576 256.1 568.8 256.1 560L256.1 407.4C275.2 396.3 288.1 375.7 288.1 352L288.1 288C288.1 252.7 259.4 224 224.1 224L160.1 224zM448.1 96C465.8 96 480.1 110.3 480.1 128C480.1 145.7 465.8 160 448.1 160C430.4 160 416.1 145.7 416.1 128C416.1 110.3 430.4 96 448.1 96zM448.1 192C483.4 192 512.1 163.3 512.1 128C512.1 92.7 483.4 64 448.1 64C412.8 64 384.1 92.7 384.1 128C384.1 163.3 412.8 192 448.1 192zM533.7 416L362.5 416L397.3 294.3C403.8 271.6 424.5 256 448.1 256C471.7 256 492.4 271.6 498.9 294.3L533.7 416zM448.1 224C410.2 224 376.9 249.1 366.5 285.5L331.8 407.2C326 427.6 341.3 448 362.6 448L384.2 448L384.2 560C384.2 568.8 391.4 576 400.2 576C409 576 416.2 568.8 416.2 560L416.2 448L480.2 448L480.2 560C480.2 568.8 487.4 576 496.2 576C505 576 512.2 568.8 512.2 560L512.2 448L533.8 448C555.1 448 570.4 427.7 564.6 407.2L529.7 285.5C519.3 249.1 486 224 448.1 224z"/></svg>