<svg xmlns="http://www.w3.org/2000/svg" viewBox="0 0 640 640"><!--! Font Awesome Pro 7.1.0 by @fontawesome - https://fontawesome.com License - https://fontawesome.com/license (Commercial License) Copyright 2025 Fonticons, Inc. --><path fill="currentColor" d="M160 160C177.7 160 192 145.7 192 128C192 110.3 177.7 96 160 96C142.3 96 128 110.3 128 128C128 145.7 142.3 160 160 160zM160 64C195.3 64 224 92.7 224 128C224 163.3 195.3 192 160 192C124.7 192 96 163.3 96 128C96 92.7 124.7 64 160 64zM192 256L128 256C110.3 256 96 270.3 96 288L96 352C96 369.7 110.3 384 128 384L192 384C192.3 384 192.5 384 192.8 384L224 415.2L224 560C224 568.8 216.8 576 208 576C199.2 576 192 568.8 192 560L192 416L128 416L128 560C128 568.8 120.8 576 112 576C103.2 576 96 568.8 96 560L96 407.4C76.9 396.4 64 375.7 64 352L64 288C64 252.7 92.7 224 128 224L192 224C201.6 224 210.7 226.1 218.9 229.9L192.8 256C192.5 256 192.3 256 192 256zM416 560L416 415.2L447.2 384C447.5 384 447.7 384 448 384L512 384C529.7 384 544 369.7 544 352L544 288C544 270.3 529.7 256 512 256L448 256C447.7 256 447.5 256 447.2 256L421.1 229.9C429.3 226.1 438.4 224 448 224L512 224C547.3 224 576 252.7 576 288L576 352C576 375.7 563.1 396.4 544 407.4L544 560C544 568.8 536.8 576 528 576C519.2 576 512 568.8 512 560L512 416L448 416L448 560C448 568.8 440.8 576 432 576C423.2 576 416 568.8 416 560zM480 160C497.7 160 512 145.7 512 128C512 110.3 497.7 96 480 96C462.3 96 448 110.3 448 128C448 145.7 462.3 160 480 160zM480 64C515.3 64 544 92.7 544 128C544 163.3 515.3 192 480 192C444.7 192 416 163.3 416 128C416 92.7 444.7 64 480 64zM246.6 304L393.3 304L356.6 267.3C350.4 261.1 350.4 250.9 356.6 244.7C362.8 238.5 373 238.5 379.2 244.7L443.2 308.7C449.4 314.9 449.4 325.1 443.2 331.3L379.2 395.3C373 401.5 362.8 401.5 356.6 395.3C350.4 389.1 350.4 378.9 356.6 372.7L393.3 336L246.6 336L283.3 372.7C289.5 378.9 289.5 389.1 283.3 395.3C277.1 401.5 266.9 401.5 260.7 395.3L196.7 331.3C190.5 325.1 190.5 314.9 196.7 308.7L260.7 244.7C266.9 238.5 277.1 238.5 283.3 244.7C289.5 250.9 289.5 261.1 283.3 267.3L246.6 304z"/></svg>