<svg xmlns="http://www.w3.org/2000/svg" viewBox="0 0 640 640"><!--! Font Awesome Pro 7.1.0 by @fontawesome - https://fontawesome.com License - https://fontawesome.com/license (Commercial License) Copyright 2025 Fonticons, Inc. --><path fill="currentColor" d="M192 96C209.7 96 224 110.3 224 128C224 145.7 209.7 160 192 160C174.3 160 160 145.7 160 128C160 110.3 174.3 96 192 96zM192 192C227.3 192 256 163.3 256 128C256 92.7 227.3 64 192 64C156.7 64 128 92.7 128 128C128 163.3 156.7 192 192 192zM224 256C241.7 256 256 270.3 256 288L256 352C256 369.7 241.7 384 224 384L160 384C142.3 384 128 369.7 128 352L128 288C128 270.3 142.3 256 160 256L224 256zM160 224C124.7 224 96 252.7 96 288L96 352C96 375.7 108.9 396.4 128 407.4L128 560C128 568.8 135.2 576 144 576C152.8 576 160 568.8 160 560L160 416L224 416L224 560C224 568.8 231.2 576 240 576C248.8 576 256 568.8 256 560L256 407.4C275.1 396.3 288 375.7 288 352L288 288C288 252.7 259.3 224 224 224L160 224zM448 96C465.7 96 480 110.3 480 128C480 145.7 465.7 160 448 160C430.3 160 416 145.7 416 128C416 110.3 430.3 96 448 96zM448 192C483.3 192 512 163.3 512 128C512 92.7 483.3 64 448 64C412.7 64 384 92.7 384 128C384 163.3 412.7 192 448 192zM480 256C497.7 256 512 270.3 512 288L512 352C512 369.7 497.7 384 480 384L416 384C398.3 384 384 369.7 384 352L384 288C384 270.3 398.3 256 416 256L480 256zM416 224C380.7 224 352 252.7 352 288L352 352C352 375.7 364.9 396.4 384 407.4L384 560C384 568.8 391.2 576 400 576C408.8 576 416 568.8 416 560L416 416L480 416L480 560C480 568.8 487.2 576 496 576C504.8 576 512 568.8 512 560L512 407.4C531.1 396.3 544 375.7 544 352L544 288C544 252.7 515.3 224 480 224L416 224z"/></svg>