<svg xmlns="http://www.w3.org/2000/svg" viewBox="0 0 640 640"><!--! Font Awesome Pro 7.1.0 by @fontawesome - https://fontawesome.com License - https://fontawesome.com/license (Commercial License) Copyright 2025 Fonticons, Inc. --><path fill="currentColor" d="M120 88C120 74.7 109.3 64 96 64C82.7 64 72 74.7 72 88C72 101.3 82.7 112 96 112C109.3 112 120 101.3 120 88zM40 88C40 57.1 65.1 32 96 32C126.9 32 152 57.1 152 88C152 118.9 126.9 144 96 144C65.1 144 40 118.9 40 88zM32 240.5C32 204.9 60.9 176 96.5 176C122 176 145.1 191 155.4 214.3L189.7 291.5C196.1 305.8 209 316 224 319L224 192C224 174.3 238.3 160 256 160L384 160C401.7 160 416 174.3 416 192L416 319C431 315.9 443.9 305.8 450.3 291.5L484.6 214.3C494.9 191 518 176 543.5 176C579.1 176 608 204.9 608 240.5L608 336C608 361.2 596.1 384.9 576 400L499.2 457.6C487.1 466.7 480 480.9 480 496L480 592C480 600.8 472.8 608 464 608C455.2 608 448 600.8 448 592L448 496C448 470.8 459.9 447.1 480 432L480 303.4L479.5 304.5C466.7 333.4 438 352 406.4 352L233.6 352C202 352 173.3 333.4 160.5 304.5L160 303.4L160 432C180.1 447.1 192 470.8 192 496L192 592C192 600.8 184.8 608 176 608C167.2 608 160 600.8 160 592L160 496C160 480.9 152.9 466.7 140.8 457.6L64 400C43.9 384.9 32 361.2 32 336L32 240.5zM368 320L384 320L384 192L256 192L256 320L368 320zM32 435.9C33.1 436.7 34.1 437.6 35.2 438.4L64 460L64 592C64 600.8 56.8 608 48 608C39.2 608 32 600.8 32 592L32 435.9zM96 208C78.3 208 64 222.3 64 240L64 336C64 351.1 71.1 365.3 83.2 374.4L128 408L128 240C128 222.3 113.7 208 96 208zM544 112C557.3 112 568 101.3 568 88C568 74.7 557.3 64 544 64C530.7 64 520 74.7 520 88C520 101.3 530.7 112 544 112zM544 32C574.9 32 600 57.1 600 88C600 118.9 574.9 144 544 144C513.1 144 488 118.9 488 88C488 57.1 513.1 32 544 32zM608 592C608 600.8 600.8 608 592 608C583.2 608 576 600.8 576 592L576 460L604.8 438.4C605.9 437.6 606.9 436.8 608 435.9L608 592zM512 240L512 408L556.8 374.4C568.9 365.3 576 351.1 576 336L576 240C576 222.3 561.7 208 544 208C526.3 208 512 222.3 512 240z"/></svg>