<svg xmlns="http://www.w3.org/2000/svg" viewBox="0 0 640 640"><!--! Font Awesome Pro 7.1.0 by @fontawesome - https://fontawesome.com License - https://fontawesome.com/license (Commercial License) Copyright 2025 Fonticons, Inc. --><path fill="currentColor" d="M327.2 81.7C322.7 79.4 317.4 79.4 312.9 81.7L56.9 209.7C49 213.7 45.8 223.3 49.7 231.2C53.6 239.1 63.3 242.3 71.2 238.4L320 113.9L568.8 238.3C576.7 242.3 586.3 239 590.3 231.1C594.3 223.2 591 213.6 583.1 209.6L327.1 81.6zM288 288C288 270.3 302.3 256 320 256C337.7 256 352 270.3 352 288C352 305.7 337.7 320 320 320C302.3 320 288 305.7 288 288zM384 288C384 252.7 355.3 224 320 224C284.7 224 256 252.7 256 288C256 323.3 284.7 352 320 352C355.3 352 384 323.3 384 288zM320 384C249.3 384 192 441.3 192 512L192 528C192 536.8 199.2 544 208 544C216.8 544 224 536.8 224 528L224 512C224 459 267 416 320 416C373 416 416 459 416 512L416 528C416 536.8 423.2 544 432 544C440.8 544 448 536.8 448 528L448 512C448 441.3 390.7 384 320 384zM160 288C173.3 288 184 298.7 184 312C184 325.3 173.3 336 160 336C146.7 336 136 325.3 136 312C136 298.7 146.7 288 160 288zM160 368C190.9 368 216 342.9 216 312C216 281.1 190.9 256 160 256C129.1 256 104 281.1 104 312C104 342.9 129.1 368 160 368zM480 288C493.3 288 504 298.7 504 312C504 325.3 493.3 336 480 336C466.7 336 456 325.3 456 312C456 298.7 466.7 288 480 288zM480 368C510.9 368 536 342.9 536 312C536 281.1 510.9 256 480 256C449.1 256 424 281.1 424 312C424 342.9 449.1 368 480 368zM160 416C107 416 64 459 64 512L64 528C64 536.8 71.2 544 80 544C88.8 544 96 536.8 96 528L96 512C96 478 122.5 450.2 155.9 448.1C160.2 437.1 165.6 426.5 171.9 416.7C168 416.2 164 416 159.9 416zM484.1 448.1C517.5 450.2 544 478 544 512L544 528C544 536.8 551.2 544 560 544C568.8 544 576 536.8 576 528L576 512C576 459 533 416 480 416C475.9 416 471.9 416.3 468 416.7C474.3 426.5 479.7 437 484 448.1z"/></svg>