<svg xmlns="http://www.w3.org/2000/svg" viewBox="0 0 640 640"><!--! Font Awesome Pro 7.1.0 by @fontawesome - https://fontawesome.com License - https://fontawesome.com/license (Commercial License) Copyright 2025 Fonticons, Inc. --><path fill="currentColor" d="M352 128C352 110.3 337.7 96 320 96C302.3 96 288 110.3 288 128C288 145.7 302.3 160 320 160C337.7 160 352 145.7 352 128zM256 128C256 92.7 284.7 64 320 64C355.3 64 384 92.7 384 128C384 163.3 355.3 192 320 192C284.7 192 256 163.3 256 128zM160 176C173.3 176 184 165.3 184 152C184 138.7 173.3 128 160 128C146.7 128 136 138.7 136 152C136 165.3 146.7 176 160 176zM160 96C190.9 96 216 121.1 216 152C216 182.9 190.9 208 160 208C129.1 208 104 182.9 104 152C104 121.1 129.1 96 160 96zM480 176C493.3 176 504 165.3 504 152C504 138.7 493.3 128 480 128C466.7 128 456 138.7 456 152C456 165.3 466.7 176 480 176zM480 96C510.9 96 536 121.1 536 152C536 182.9 510.9 208 480 208C449.1 208 424 182.9 424 152C424 121.1 449.1 96 480 96zM191.2 257C184.1 266.6 178.1 277 173.3 288C130.4 289.4 96 324.7 96 368C96 391.7 106.3 413 122.7 427.6C126.1 430.6 128 435 128 439.5L128 495.9L96 495.9L96 446.3C76.2 426.1 64 398.4 64 367.9C64 306 114.1 255.9 176 255.9C181.2 255.9 186.2 256.2 191.2 256.9zM400 446.4L400 496L368 496L368 439.6C368 435 369.9 430.7 373.3 427.7C389.7 413 400 391.8 400 368.1L400 352.1C400 307.9 364.2 272.1 320 272.1C275.8 272.1 240 307.9 240 352.1L240 368.1C240 391.8 250.3 413.1 266.7 427.7C270.1 430.7 272 435.1 272 439.6L272 496L240 496L240 446.4C220.2 426.2 208 398.5 208 368L208 352C208 290.1 258.1 240 320 240C381.9 240 432 290.1 432 352L432 368C432 398.5 419.8 426.2 400 446.4zM512 496L512 439.6C512 435 513.9 430.7 517.3 427.7C533.7 413 544 391.8 544 368.1C544 324.8 509.6 289.6 466.7 288.1C461.9 277.1 455.8 266.7 448.8 257.1C453.8 256.4 458.9 256.1 464 256.1C525.9 256.1 576 306.2 576 368.1C576 398.6 563.8 426.3 544 446.5L544 496.1L512 496.1zM48 544L592 544C600.8 544 608 551.2 608 560C608 568.8 600.8 576 592 576L48 576C39.2 576 32 568.8 32 560C32 551.2 39.2 544 48 544z"/></svg>