<svg xmlns="http://www.w3.org/2000/svg" viewBox="0 0 640 640"><!--! Font Awesome Pro 7.1.0 by @fontawesome - https://fontawesome.com License - https://fontawesome.com/license (Commercial License) Copyright 2025 Fonticons, Inc. --><path fill="currentColor" d="M192 64C205.3 64 216 74.7 216 88C216 101.3 205.3 112 192 112C178.7 112 168 101.3 168 88C168 74.7 178.7 64 192 64zM192 144C222.9 144 248 118.9 248 88C248 57.1 222.9 32 192 32C161.1 32 136 57.1 136 88C136 118.9 161.1 144 192 144zM128 448L128 592C128 600.8 135.2 608 144 608C152.8 608 160 600.8 160 592L160 448L224 448L224 592C224 600.8 231.2 608 240 608C248.8 608 256 600.8 256 592L256 448L298 448C308.9 448 316.6 437.4 313.2 427L271.6 299.2L306.3 357C309.2 361.8 314.4 364.8 320 364.8C325.6 364.8 330.8 361.8 333.7 357L368.4 299.1L326.8 427C323.4 437.3 331.1 448 342 448L384 448L384 592C384 600.8 391.2 608 400 608C408.8 608 416 600.8 416 592L416 448L480 448L480 592C480 600.8 487.2 608 496 608C504.8 608 512 600.8 512 592L512 448L554 448C564.9 448 572.6 437.4 569.2 427L518.7 272L578.9 358C584 365.2 593.9 367 601.2 361.9C608.5 356.8 610.2 346.9 605.1 339.6L510.7 204.7C496.7 184.7 473.8 172.8 449.3 172.8C423 172.8 398.6 186.6 385.1 209.2L320 317.7L254.9 209.2C241.4 186.6 217 172.8 190.7 172.8C166.3 172.8 143.4 184.7 129.4 204.7L34.9 339.6C29.8 346.8 31.6 356.8 38.8 361.9C46 367 56 365.2 61.1 358L121.3 272L70.8 427C67.4 437.3 75.1 448 86 448L128 448zM275.9 416L108 416L170 225.5C173.1 216 182 209.6 191.9 209.6C201.8 209.6 210.8 216 213.8 225.5L275.8 416zM448 64C461.3 64 472 74.7 472 88C472 101.3 461.3 112 448 112C434.7 112 424 101.3 424 88C424 74.7 434.7 64 448 64zM448 144C478.9 144 504 118.9 504 88C504 57.1 478.9 32 448 32C417.1 32 392 57.1 392 88C392 118.9 417.1 144 448 144zM531.9 416L364 416L426 225.5C429.1 216 438 209.6 447.9 209.6C457.8 209.6 466.8 216 469.8 225.5L531.8 416z"/></svg>