<svg xmlns="http://www.w3.org/2000/svg" viewBox="0 0 640 640"><!--! Font Awesome Pro 7.1.0 by @fontawesome - https://fontawesome.com License - https://fontawesome.com/license (Commercial License) Copyright 2025 Fonticons, Inc. --><path fill="currentColor" d="M192.1 96C209.8 96 224.1 110.3 224.1 128C224.1 145.7 209.8 160 192.1 160C174.4 160 160.1 145.7 160.1 128C160.1 110.3 174.4 96 192.1 96zM192.1 192C227.4 192 256.1 163.3 256.1 128C256.1 92.7 227.4 64 192.1 64C156.8 64 128.1 92.7 128.1 128C128.1 163.3 156.8 192 192.1 192zM277.7 416L106.5 416L141.3 294.3C147.8 271.6 168.5 256 192.1 256C215.7 256 236.4 271.6 242.9 294.3L277.7 416zM192.1 224C154.2 224 120.9 249.1 110.5 285.5L75.8 407.2C69.9 427.7 85.3 448 106.5 448L128.1 448L128.1 560C128.1 568.8 135.3 576 144.1 576C152.9 576 160.1 568.8 160.1 560L160.1 448L224.1 448L224.1 560C224.1 568.8 231.3 576 240.1 576C248.9 576 256.1 568.8 256.1 560L256.1 448L277.7 448C299 448 314.3 427.7 308.5 407.2L273.7 285.5C263.3 249.1 230 224 192.1 224zM448.1 96C465.8 96 480.1 110.3 480.1 128C480.1 145.7 465.8 160 448.1 160C430.4 160 416.1 145.7 416.1 128C416.1 110.3 430.4 96 448.1 96zM448.1 192C483.4 192 512.1 163.3 512.1 128C512.1 92.7 483.4 64 448.1 64C412.8 64 384.1 92.7 384.1 128C384.1 163.3 412.8 192 448.1 192zM533.7 416L362.5 416L397.3 294.3C403.8 271.6 424.5 256 448.1 256C471.7 256 492.4 271.6 498.9 294.3L533.7 416zM448.1 224C410.2 224 376.9 249.1 366.5 285.5L331.8 407.2C326 427.6 341.3 448 362.6 448L384.2 448L384.2 560C384.2 568.8 391.4 576 400.2 576C409 576 416.2 568.8 416.2 560L416.2 448L480.2 448L480.2 560C480.2 568.8 487.4 576 496.2 576C505 576 512.2 568.8 512.2 560L512.2 448L533.8 448C555.1 448 570.4 427.7 564.6 407.2L529.7 285.5C519.3 249.1 486 224 448.1 224z"/></svg>