<svg xmlns="http://www.w3.org/2000/svg" viewBox="0 0 640 640"><!--! Font Awesome Pro 7.1.0 by @fontawesome - https://fontawesome.com License - https://fontawesome.com/license (Commercial License) Copyright 2025 Fonticons, Inc. --><path fill="currentColor" d="M136 120C136 106.7 125.3 96 112 96C98.7 96 88 106.7 88 120C88 133.3 98.7 144 112 144C125.3 144 136 133.3 136 120zM56 120C56 89.1 81.1 64 112 64C142.9 64 168 89.1 168 120C168 150.9 142.9 176 112 176C81.1 176 56 150.9 56 120zM65.5 233.3C64.6 235.3 64 237.6 64 240L64 400C64 408.8 56.8 416 48 416C39.2 416 32 408.8 32 400L32 240C32 213.5 53.5 192 80 192L142.6 192C159.3 192 175.5 197.2 189.1 206.9L310.8 293.7C322.6 260.3 346.3 232.2 377.7 215.1L390.4 208.2C409.8 197.6 431.6 192 453.8 192C490.7 192 523.5 215.6 535.2 250.7L552.3 302.1C555.7 312.2 562.3 320.9 571.2 326.9L600.9 346.7C608.3 351.6 610.2 361.5 605.3 368.9C600.4 376.3 590.5 378.2 583.1 373.3L553.4 353.5C538.6 343.6 527.5 329.1 521.9 312.2L513.1 285.8L475.3 395L518.9 432.8C523.6 436.9 527 442.2 528.7 448.2L559.4 555.6C561.8 564.1 556.9 573 548.4 575.4C539.9 577.8 531 572.9 528.6 564.4L497.9 457L397.4 369.8C383 357.3 377.3 337.4 383 319.2L409.6 234.2C408.3 234.8 407 235.5 405.7 236.2L393 243.1C365.5 258.1 345.6 283.9 338 314.3L335.7 323.5C335.5 324.5 335.2 325.4 334.8 326.3C334 328.3 332.7 330 331.3 331.4C328 334.6 323.5 336.3 318.8 335.9C316.9 335.7 315 335.3 313.3 334.4C312.3 333.9 311.4 333.4 310.6 332.8L180.4 239.9L255.7 556.3C257.7 564.9 252.4 573.5 243.8 575.6C235.2 577.7 226.6 572.3 224.5 563.7L189.3 416L132.9 416L159.8 557C161.5 565.7 155.8 574.1 147.1 575.7C138.4 577.3 130 571.7 128.4 563L65.5 233.3zM144.5 227.7C144.2 226.5 144.1 225.2 144.1 224C143.6 224 143.2 224 142.7 224L96.4 224L126.9 384L181.8 384L144.6 227.7zM512 120C512 106.7 501.3 96 488 96C474.7 96 464 106.7 464 120C464 133.3 474.7 144 488 144C501.3 144 512 133.3 512 120zM432 120C432 89.1 457.1 64 488 64C518.9 64 544 89.1 544 120C544 150.9 518.9 176 488 176C457.1 176 432 150.9 432 120zM413.5 328.8C411.6 334.9 413.5 341.5 418.3 345.7L449.2 372.5L494.2 242.5C484.2 231 469.5 224.1 453.6 224.1C451.1 224.1 448.6 224.2 446.1 224.4L413.5 328.8zM407.1 417.7C415 421.7 418.2 431.3 414.3 439.2L383.5 500.9C382 504 379.9 506.8 377.5 509.2L315.3 571.4C309.1 577.6 298.9 577.6 292.7 571.4C286.5 565.2 286.5 555 292.7 548.8L354.9 486.6L385.7 424.9C389.7 417 399.3 413.8 407.2 417.7z"/></svg>