<svg xmlns="http://www.w3.org/2000/svg" viewBox="0 0 640 640"><!--! Font Awesome Pro 7.1.0 by @fontawesome - https://fontawesome.com License - https://fontawesome.com/license (Commercial License) Copyright 2025 Fonticons, Inc. --><path fill="currentColor" d="M336 128C336 101.5 357.5 80 384 80C392.8 80 400 72.8 400 64C400 55.2 392.8 48 384 48C339.8 48 304 83.8 304 128L304 133.5C287.8 127.8 269.9 126.3 251.9 130.2C243.8 131.9 236.1 134.7 228.9 138.3C208.4 128.5 184.5 125.3 160.6 130.8C104.6 143.7 69.7 199.6 82.6 255.5L130.6 463.5C143.5 519.5 199.4 554.4 255.3 541.5C262.9 539.7 270.1 537.2 276.9 534C295.7 543.5 317.8 546.8 340.1 542.1C346.8 540.7 353.1 538.6 359.2 535.9C363.6 537.8 368.2 539.4 373 540.7C428.5 555.6 485.5 522.8 500.5 467.3L556.5 259.3C571.4 203.8 538.6 146.8 483.1 131.8C458.1 125.1 432.8 128.1 411.2 138.4C403.9 134.7 396 132 387.7 130.2C369.9 126.5 352.1 128 336.1 133.7L336.1 128.2zM419.1 170.2C435.3 160.5 455.1 157.2 474.7 162.5C513.1 172.8 535.8 212.3 525.5 250.7L469.5 458.7C459.2 497.1 419.7 519.8 381.3 509.5C376 508.1 371.1 506.1 366.4 503.7C361.6 501.2 355.9 501.3 351.2 503.9C345.8 506.9 339.8 509.2 333.4 510.6C316.3 514.3 299.4 510.8 285.7 502.1C280.6 498.9 274.1 498.8 268.9 501.9C262.6 505.6 255.7 508.5 248.1 510.2C209.4 519.1 170.7 495 161.8 456.2L113.8 248.2C104.9 209.5 129 170.8 167.8 161.9C186.7 157.5 205.5 161 220.9 170.2C226.1 173.3 232.6 173.2 237.7 170C243.9 166.1 250.9 163.1 258.6 161.5C277.4 157.5 296.1 162.1 310.4 172.9C316.1 177.2 323.9 177.2 329.6 172.9C343.8 162.2 362.3 157.5 381.1 161.4C388.9 163 396 166 402.4 170C407.5 173.2 414 173.3 419.2 170.2z"/></svg>