<svg xmlns="http://www.w3.org/2000/svg" viewBox="0 0 640 640"><!--! Font Awesome Pro 7.1.0 by @fontawesome - https://fontawesome.com License - https://fontawesome.com/license (Commercial License) Copyright 2025 Fonticons, Inc. --><path fill="currentColor" d="M571.3 123.3C577.5 117.1 577.5 106.9 571.3 100.7C565.1 94.5 554.9 94.5 548.7 100.7L517.3 132.1C489.7 109.5 454.5 96 416 96C363.5 96 316.9 121.3 287.7 160.4C277.3 174.3 288.7 192 306 192L314.2 192L142.4 428.2C133.4 440.6 118.9 448 103.6 448L96 448C69.5 448 48 469.5 48 496C48 522.5 69.5 544 96 544L119.9 544C187.5 544 253.4 522.6 308.1 482.8L479.9 357.8L479.9 366C479.9 383.3 497.7 394.6 511.5 384.3C550.6 355.1 575.9 308.5 575.9 256C575.9 217.6 562.4 182.3 539.8 154.7L571.2 123.3zM511.9 340.8C511.8 338.9 511.6 337 511.3 335.1L511.3 335.1C509.5 323.9 504.4 313.8 497 305.9L497 305.9C486.8 294.9 472.2 288 456 288L384 288L384 216C384 199.8 377.1 185.2 366.1 175L366.1 175C358.2 167.6 348.1 162.5 336.9 160.7L336.9 160.7C335 160.4 333.1 160.2 331.2 160.1C353.8 140.1 383.5 128 416 128C486.7 128 544 185.3 544 256C544 288.5 531.9 318.2 511.9 340.8zM168.3 447.1L347 201.3C350.1 205.4 352 210.5 352 216L352 296C352 309.3 362.7 320 376 320L456 320C461.5 320 466.6 321.9 470.7 325L289.3 456.9C240.1 492.7 180.8 512 119.9 512L96 512C87.2 512 80 504.8 80 496C80 487.2 87.2 480 96 480L103.6 480C129.2 480 153.2 467.8 168.3 447.1z"/></svg>