<svg xmlns="http://www.w3.org/2000/svg" viewBox="0 0 640 640"><!--! Font Awesome Pro 7.1.0 by @fontawesome - https://fontawesome.com License - https://fontawesome.com/license (Commercial License) Copyright 2025 Fonticons, Inc. --><path fill="currentColor" d="M539.3 100.7C545.5 106.9 545.5 117.1 539.3 123.3L123.3 539.3C117.1 545.5 106.9 545.5 100.7 539.3C94.5 533.1 94.5 522.9 100.7 516.7L516.7 100.7C522.9 94.5 533.1 94.5 539.3 100.7zM192 256C227.3 256 256 227.3 256 192C256 156.7 227.3 128 192 128C156.7 128 128 156.7 128 192C128 227.3 156.7 256 192 256zM192 96C245 96 288 139 288 192C288 245 245 288 192 288C139 288 96 245 96 192C96 139 139 96 192 96zM512 448C512 412.7 483.3 384 448 384C412.7 384 384 412.7 384 448C384 483.3 412.7 512 448 512C483.3 512 512 483.3 512 448zM352 448C352 395 395 352 448 352C501 352 544 395 544 448C544 501 501 544 448 544C395 544 352 501 352 448z"/></svg>