<svg xmlns="http://www.w3.org/2000/svg" viewBox="0 0 640 640"><!--! Font Awesome Pro 7.1.0 by @fontawesome - https://fontawesome.com License - https://fontawesome.com/license (Commercial License) Copyright 2025 Fonticons, Inc. --><path fill="currentColor" d="M352.1 128C352.1 110.3 337.8 96 320.1 96C302.4 96 288.1 110.3 288.1 128C288.1 145.7 302.4 160 320.1 160C337.8 160 352.1 145.7 352.1 128zM256.1 128C256.1 92.7 284.8 64 320.1 64C355.4 64 384.1 92.7 384.1 128C384.1 163.3 355.4 192 320.1 192C284.8 192 256.1 163.3 256.1 128zM370.9 294.3C364.4 271.6 343.7 256 320.1 256C296.5 256 275.8 271.6 269.3 294.3L234.5 416L405.7 416L370.9 294.3zM238.5 285.5C248.9 249.1 282.2 224 320.1 224C358 224 391.3 249.1 401.7 285.5L436.5 407.2C442.3 427.6 427 448 405.7 448L384.1 448L384.1 560C384.1 568.8 376.9 576 368.1 576C359.3 576 352.1 568.8 352.1 560L352.1 448L288.1 448L288.1 560C288.1 568.8 280.9 576 272.1 576C263.3 576 256.1 568.8 256.1 560L256.1 448L234.5 448C213.2 448 197.9 427.7 203.7 407.2L238.5 285.5z"/></svg>