<svg xmlns="http://www.w3.org/2000/svg" viewBox="0 0 640 640"><!--! Font Awesome Pro 7.1.0 by @fontawesome - https://fontawesome.com License - https://fontawesome.com/license (Commercial License) Copyright 2025 Fonticons, Inc. --><path fill="currentColor" d="M208 96C221.3 96 232 106.7 232 120C232 133.3 221.3 144 208 144C194.7 144 184 133.3 184 120C184 106.7 194.7 96 208 96zM208 176C238.9 176 264 150.9 264 120C264 89.1 238.9 64 208 64C177.1 64 152 89.1 152 120C152 150.9 177.1 176 208 176zM382.3 136.8C378.3 128.9 368.7 125.7 360.8 129.6C352.9 133.5 349.7 143.2 353.6 151.1L380.9 205.7L352.8 239.4L237.8 203.5C230.2 201.1 222.3 199.9 214.4 199.9C171.1 199.9 135.9 235 135.9 278.4L135.9 288.6C113.2 292.4 95.9 312.2 95.9 335.9L95.9 399.9C76.5 414.5 63.9 437.7 63.9 463.9C63.9 508.1 99.7 543.9 143.9 543.9L303.9 543.9C348.1 543.9 383.9 508.1 383.9 463.9C383.9 445.9 377.9 429.3 367.9 415.9L422 415.9L470 511.9L431.9 511.9C423.1 511.9 415.9 519.1 415.9 527.9C415.9 536.7 423.1 543.9 431.9 543.9L535.9 543.9C558 543.9 575.9 526 575.9 503.9L575.9 495.9C575.9 487.1 568.7 479.9 559.9 479.9C551.1 479.9 543.9 487.1 543.9 495.9L543.9 503.9C543.9 508.3 540.3 511.9 535.9 511.9L505.8 511.9L457.8 415.9L471.9 415.9C529.3 415.9 575.9 369.3 575.9 311.9L575.9 303.9C575.9 298.3 573 293.1 568.1 290.2L412.1 196.6L382.2 136.8zM168 288L168 278.5C168 252.8 188.8 232 214.5 232C219.2 232 223.9 232.7 228.4 234.1L330.8 266.1L312.6 288L168.1 288zM264 384L144 384C138.5 384 133.2 384.6 128 385.6L128 336C128 327.2 135.2 320 144 320L320 320C324.7 320 329.3 317.9 332.3 314.2L403.5 228.7L544 313C543.4 352.3 511.4 383.9 472 383.9L264 383.9zM144 416L304 416C330.5 416 352 437.5 352 464C352 490.5 330.5 512 304 512L144 512C117.5 512 96 490.5 96 464C96 437.5 117.5 416 144 416z"/></svg>