<svg xmlns="http://www.w3.org/2000/svg" viewBox="0 0 640 640"><!--! Font Awesome Pro 7.1.0 by @fontawesome - https://fontawesome.com License - https://fontawesome.com/license (Commercial License) Copyright 2025 Fonticons, Inc. --><path fill="currentColor" d="M272.1 144C272.1 117.5 293.6 96 320.1 96C346.6 96 368.1 117.5 368.1 144C368.1 170.5 346.6 192 320.1 192C293.6 192 272.1 170.5 272.1 144zM400.1 144C400.1 99.8 364.3 64 320.1 64C275.9 64 240.1 99.8 240.1 144C240.1 188.2 275.9 224 320.1 224C364.3 224 400.1 188.2 400.1 144zM199.4 337.9C220.2 306.7 255.1 288 292.6 288L360.7 288C391.6 288 421.2 300.8 442.3 323.3L497.8 382.4C512.4 398 512.2 422.3 497.4 437.6L420.6 516.8C414.4 523.1 414.6 533.3 420.9 539.4C427.2 545.5 437.4 545.4 443.5 539.1L520.3 459.9C547.1 432.3 547.4 388.5 521.1 360.5L465.6 301.4C438.4 272.4 400.4 256 360.6 256L292.5 256C244.4 256 199.4 280.1 172.7 320.1L119.1 400.7C94.6 437.4 108.7 487.4 148.8 506L297.4 574.6C305.4 578.3 314.9 574.8 318.6 566.8C322.3 558.8 318.8 549.3 310.8 545.6L162.3 476.9C140 466.6 132.2 438.8 145.8 418.4L199.5 337.9zM288.1 384C288.1 375.2 280.9 368 272.1 368C263.3 368 256.1 375.2 256.1 384L256.1 427.4C256.1 433.4 257.8 439.3 261 444.4C287.3 486.5 333.4 512 383 512L384.1 512C392.9 512 400.1 504.8 400.1 496C400.1 487.2 392.9 480 384.1 480L383 480C344.4 480 308.6 460.1 288.1 427.4L288.1 384zM368.1 384C376.9 384 384.1 391.2 384.1 400C384.1 408.8 376.9 416 368.1 416C359.3 416 352.1 408.8 352.1 400C352.1 391.2 359.3 384 368.1 384zM368.1 448C394.6 448 416.1 426.5 416.1 400C416.1 373.5 394.6 352 368.1 352C341.6 352 320.1 373.5 320.1 400C320.1 426.5 341.6 448 368.1 448z"/></svg>