<svg xmlns="http://www.w3.org/2000/svg" viewBox="0 0 640 640"><!--! Font Awesome Pro 7.1.0 by @fontawesome - https://fontawesome.com License - https://fontawesome.com/license (Commercial License) Copyright 2025 Fonticons, Inc. --><path fill="currentColor" d="M256 128L256 123.1L384 101.8L384 128L256 128L256 128zM416 136L416 92.3C416 77.5 402.7 66.2 388.1 68.6L244.1 92.6C232.5 94.6 224 104.6 224 116.3L224 136C224 147.1 231.5 156.4 241.8 159.2C240.6 164.6 240 170.2 240 176C240 220.2 275.8 256 320 256C364.2 256 400 220.2 400 176C400 170.2 399.4 164.6 398.2 159.2C408.4 156.5 416 147.1 416 136zM274.7 160L365.2 160C367 165 367.9 170.4 367.9 176C367.9 202.5 346.4 224 319.9 224C293.4 224 271.9 202.5 271.9 176C271.9 170.4 272.9 165 274.6 160zM256 360C256 357.7 256.2 355.4 256.6 353.3L365.6 544L272 544C263.2 544 256 536.8 256 528L256 360zM384 511.8L277.1 324.8C282.7 321.8 289.2 320.1 296 320.1L344 320.1C366.1 320.1 384 338 384 360.1L384 511.9zM416 528L416 364.2L514.1 535.9C518.5 543.6 528.3 546.2 535.9 541.9C543.5 537.6 546.2 527.7 541.9 520.1L448 355.7L494.9 274.6C503.7 259.3 498.5 239.7 483.2 230.9C491.2 217 507.2 189.3 531.2 147.8L539.2 133.9C543.6 126.2 541 116.5 533.3 112L519.4 104C511.7 99.6 502 102.2 497.5 109.9C493 117.6 495.7 127.3 503.4 131.8C479.4 173.4 463.4 201.1 455.4 214.9C440.1 206.1 420.5 211.3 411.7 226.6L373.9 292C364.4 289.4 354.4 288 344.3 288L295.7 288C255.5 288 218.4 309.5 198.5 344.4L98.1 520.1C93.7 527.8 96.4 537.5 104.1 541.9C111.8 546.3 121.5 543.6 125.9 535.9L224 364.2L224 528C224 554.5 245.5 576 272 576L368 576C394.5 576 416 554.5 416 528zM403.4 304.9L439.4 242.6L467.1 258.6L428.2 325.9C420.9 317.7 412.6 310.6 403.4 304.9zM352 384C360.8 384 368 376.8 368 368C368 359.2 360.8 352 352 352C343.2 352 336 359.2 336 368C336 376.8 343.2 384 352 384z"/></svg>