<svg xmlns="http://www.w3.org/2000/svg" viewBox="0 0 640 640"><!--! Font Awesome Pro 7.1.0 by @fontawesome - https://fontawesome.com License - https://fontawesome.com/license (Commercial License) Copyright 2025 Fonticons, Inc. --><path fill="currentColor" d="M328 104C328 90.7 317.3 80 304 80C290.7 80 280 90.7 280 104C280 117.3 290.7 128 304 128C317.3 128 328 117.3 328 104zM248 104C248 73.1 273.1 48 304 48C334.9 48 360 73.1 360 104C360 134.9 334.9 160 304 160C273.1 160 248 134.9 248 104zM177.7 324L216.6 224L168.3 224C163.2 224 158.4 226.4 155.4 230.6L100.9 305.4C95.7 312.5 85.7 314.1 78.5 308.9C71.3 303.7 69.8 293.7 75 286.5L129.4 211.7C138.4 199.3 152.9 191.9 168.2 191.9L239.5 191.9C239.7 191.9 240 191.9 240.2 191.9L285.2 191.9C317.5 191.9 346.6 211.3 359 241.1L376 281.5C378.1 286.6 382.7 290.2 388.1 291.1L466.6 304.2C475.3 305.7 481.2 313.9 479.8 322.6C478.4 331.3 470.1 337.2 461.4 335.8L382.9 322.7C366.6 320 352.8 309.1 346.5 293.8L329.7 253.5L329.4 252.7L291.4 353.9L352.6 396.7C361 402.6 367.4 411.1 370.6 420.8L415.3 554.8C418.1 563.2 413.6 572.2 405.2 575C396.8 577.8 387.8 573.3 385 564.9L340.3 430.9C339.2 427.6 337.1 424.8 334.3 422.9L278.5 383.9L212.5 383.9L234.9 446.8C239.8 460.6 234.7 476 222.5 484.2L88.9 573.3C81.5 578.2 71.6 576.2 66.7 568.9C61.8 561.6 63.8 551.6 71.1 546.7L204.7 457.6L176.9 379.8C170.4 361.7 170.7 341.8 177.7 323.9zM304.4 228C298.5 225.4 292 224 285.3 224L250.9 224L207.5 335.6C205.4 340.9 204.4 346.5 204.2 352L257.8 352L304.3 228zM544 448C544 430.3 529.7 416 512 416C494.3 416 480 430.3 480 448C480 465.7 494.3 480 512 480C529.7 480 544 465.7 544 448zM448 448C448 412.7 476.7 384 512 384C547.3 384 576 412.7 576 448C576 483.3 547.3 512 512 512C476.7 512 448 483.3 448 448z"/></svg>