<svg xmlns="http://www.w3.org/2000/svg" viewBox="0 0 640 640"><!--! Font Awesome Pro 7.1.0 by @fontawesome - https://fontawesome.com License - https://fontawesome.com/license (Commercial License) Copyright 2025 Fonticons, Inc. --><path fill="currentColor" d="M312 88C312 74.7 301.3 64 288 64C274.7 64 264 74.7 264 88C264 101.3 274.7 112 288 112C301.3 112 312 101.3 312 88zM232 88C232 57.1 257.1 32 288 32C318.9 32 344 57.1 344 88C344 118.9 318.9 144 288 144C257.1 144 232 118.9 232 88zM224 240.5C224 204.9 252.9 176 288.5 176C314 176 337.1 191 347.4 214.3L381.7 291.5C389.4 308.8 406.6 320 425.6 320L464 320C472.8 320 480 327.2 480 336C480 344.8 472.8 352 464 352L425.6 352C394 352 365.3 333.4 352.5 304.5L352 303.4L352 432C372.1 447.1 384 470.8 384 496L384 592C384 600.8 376.8 608 368 608C359.2 608 352 600.8 352 592L352 496C352 480.9 344.9 466.7 332.8 457.6L256 400C235.9 384.9 224 361.2 224 336L224 240.5zM224 435.9C225.1 436.7 226.1 437.6 227.2 438.4L256 460L256 592C256 600.8 248.8 608 240 608C231.2 608 224 600.8 224 592L224 435.9zM288 208C270.3 208 256 222.3 256 240L256 336C256 351.1 263.1 365.3 275.2 374.4L320 408L320 240C320 222.3 305.7 208 288 208z"/></svg>