<svg xmlns="http://www.w3.org/2000/svg" viewBox="0 0 640 640"><!--! Font Awesome Pro 7.1.0 by @fontawesome - https://fontawesome.com License - https://fontawesome.com/license (Commercial License) Copyright 2025 Fonticons, Inc. --><path fill="currentColor" d="M512 120C512 106.7 501.3 96 488 96C474.7 96 464 106.7 464 120C464 133.3 474.7 144 488 144C501.3 144 512 133.3 512 120zM432 120C432 89.1 457.1 64 488 64C518.9 64 544 89.1 544 120C544 150.9 518.9 176 488 176C457.1 176 432 150.9 432 120zM366.4 224L208 224C199.2 224 192 216.8 192 208C192 199.2 199.2 192 208 192L424 192C442.6 192 459 201 469.2 215C487.5 239.5 482.5 274.1 458.1 292.5L380.4 350.8L413 365.3C424.6 370.4 432 381.9 432 394.5L432 496C432 504.8 424.8 512 416 512C407.2 512 400 504.8 400 496L400 394.4L313.6 356C280.7 341.4 275 297.1 303.1 274.7L366.4 224zM443.5 233.9C435.5 223.5 420.6 221.7 410.3 229.9L323.1 299.7C313.7 307.2 315.6 321.9 326.6 326.8L347 335.8L439 266.8C445.2 262.2 448.4 255.1 448.4 248L448.2 248C448.2 242.7 446.5 237.9 443.6 233.9zM248.5 352.9C253.5 362.3 260.2 370.8 268.7 378L179.4 467.3C173.2 473.5 163 473.5 156.8 467.3C150.6 461.1 150.6 450.9 156.8 444.7L248.6 352.9zM511.6 531.9L511.2 533.6C505 558.5 482.6 576 456.9 576L368 576C359.2 576 352 568.8 352 560C352 551.2 359.2 544 368 544L456.8 544C467.8 544 477.4 536.5 480.1 525.8L480.5 524.1C482.6 515.5 491.3 510.3 499.9 512.5C508.5 514.7 513.7 523.3 511.5 531.9zM214.4 528.9C218.4 536.8 215.1 546.4 207.2 550.4L201 553.5C179.4 564.3 153.4 560.1 136.4 543L76.7 483.3C70.5 477.1 70.5 466.9 76.7 460.7C82.9 454.5 93.1 454.5 99.3 460.7L158.9 520.3C166.2 527.6 177.4 529.4 186.6 524.8L192.8 521.7C200.7 517.7 210.3 521 214.3 528.9z"/></svg>