<svg xmlns="http://www.w3.org/2000/svg" viewBox="0 0 640 640"><!--! Font Awesome Pro 7.1.0 by @fontawesome - https://fontawesome.com License - https://fontawesome.com/license (Commercial License) Copyright 2025 Fonticons, Inc. --><path fill="currentColor" d="M504 144C517.3 144 528 133.3 528 120C528 106.7 517.3 96 504 96C490.7 96 480 106.7 480 120C480 133.3 490.7 144 504 144zM504 64C534.9 64 560 89.1 560 120C560 150.9 534.9 176 504 176C473.1 176 448 150.9 448 120C448 89.1 473.1 64 504 64zM41.8 368.6C45.9 360.8 55.5 357.7 63.4 361.8L278.5 473.5L347.9 369.4L257.2 267.4C252.1 261.6 248.6 255.1 246.8 248.3L309.9 278.5L371.9 348.2C381.6 359.1 382.7 375.1 374.6 387.2L307 488.3L446.8 560.9C462.7 569.2 481.6 569.3 497.7 561.3L512.9 553.7C520.8 549.7 530.4 553 534.4 560.9C538.4 568.8 535.1 578.4 527.2 582.4L512 589.9C486.8 602.5 457.1 602.3 432.1 589.3L48.6 390.2C40.8 386.1 37.7 376.5 41.8 368.6zM134.7 113.5L153.2 122L161.7 104.9C165.7 97 175.3 93.8 183.2 97.7C191.1 101.6 194.3 111.3 190.4 119.2L182.3 135.3L289.6 184.5L348.7 158.2C372.7 147.5 400.8 158.1 411.8 181.9L446.1 256.1L518.8 289.4C526.8 293.1 530.4 302.6 526.7 310.6C523 318.6 513.5 322.2 505.5 318.5L168.1 163.9L158.5 183.2C154.5 191.1 144.9 194.3 137 190.4C129.1 186.5 125.9 176.8 129.8 168.9L138.9 150.6L121.4 142.6C113.4 138.9 109.8 129.4 113.5 121.4C117.2 113.4 126.7 109.8 134.7 113.5zM382.7 195.4C379 187.5 369.7 183.9 361.7 187.5L328.4 202.3L401.3 235.7L382.7 195.4z"/></svg>