<svg xmlns="http://www.w3.org/2000/svg" viewBox="0 0 640 640"><!--! Font Awesome Pro 7.1.0 by @fontawesome - https://fontawesome.com License - https://fontawesome.com/license (Commercial License) Copyright 2025 Fonticons, Inc. --><path fill="currentColor" d="M460 452.7C487.5 449 512 470.4 512 498.1C512 523.4 491.5 543.9 466.2 543.9L173.8 544C148.5 544 128 523.5 128 498.2C128 470.4 152.5 449 180 452.8L320.1 471.8L460 452.8zM175.7 484.4C167.4 483.3 160 489.7 160 498.1C160 505.7 166.2 511.9 173.8 511.9L288.2 511.9C288 510.5 287.9 509.1 287.9 507.6C287.9 504.9 288.2 502.2 288.8 499.6L175.7 484.4zM464.3 484.4L323.7 503.4C321.6 503.7 320 505.5 320 507.6C320 510 321.9 511.9 324.3 511.9L466.2 511.9C473.8 511.9 480 505.7 480 498.1C480 489.7 472.6 483.3 464.3 484.4zM320 240C365.3 240 406.7 265.6 426.9 306.1L457.8 368L527.9 368C536.7 368 543.9 375.2 543.9 384C543.9 392.8 536.7 400 527.9 400L447.9 400C441.8 400 436.3 396.6 433.6 391.2L399.9 323.8L399.9 428.6L367.9 432.9L367.9 286.4C353.9 277.2 337.3 272 319.9 272C302.5 272 285.9 277.2 271.9 286.4L271.9 432.9L239.9 428.6L239.9 323.8L206.2 391.2C203.5 396.6 197.9 400 191.9 400L111.9 400C103.1 400 95.9 392.8 95.9 384C95.9 375.2 103.1 368 111.9 368L182 368L212.9 306.1C233.3 265.6 274.7 240 320 240zM320 192C289.1 192 264 166.9 264 136C264 105.1 289.1 80 320 80C350.9 80 376 105.1 376 136C376 166.9 350.9 192 320 192zM320 112C306.7 112 296 122.7 296 136C296 149.3 306.7 160 320 160C333.3 160 344 149.3 344 136C344 122.7 333.3 112 320 112z"/></svg>