<svg xmlns="http://www.w3.org/2000/svg" viewBox="0 0 640 640"><!--! Font Awesome Pro 7.1.0 by @fontawesome - https://fontawesome.com License - https://fontawesome.com/license (Commercial License) Copyright 2025 Fonticons, Inc. --><path fill="currentColor" d="M344 88C344 74.7 333.3 64 320 64C306.7 64 296 74.7 296 88C296 101.3 306.7 112 320 112C333.3 112 344 101.3 344 88zM264 88C264 57.1 289.1 32 320 32C350.9 32 376 57.1 376 88C376 118.9 350.9 144 320 144C289.1 144 264 118.9 264 88zM252.6 261.9L172.5 362C167 368.9 156.9 370 150 364.5C143.1 359 142 348.9 147.5 342L256.3 206C268.4 190.9 285.3 180.9 304 177.4L304 216.1C301.3 218.7 299.3 221.9 298.1 225.6L236.1 416.1L304 416.1L304 448.1L288 448.1L288 592.1C288 600.9 280.8 608.1 272 608.1C263.2 608.1 256 600.9 256 592.1L256 448.1L214 448.1C203.1 448.1 195.4 437.5 198.8 427.1L252.5 262zM368 432L336 432L336 400L368 400L368 220.7C358.2 215.1 347.3 211.2 336 209.3L336 177C375 181.9 410.1 204.4 430.7 238.7L493.8 343.8C498.3 351.4 495.9 361.2 488.3 365.7C480.7 370.2 470.9 367.8 466.3 360.2L403.2 255.1C402.2 253.4 401.1 251.7 400 250.1L400 592C400 600.8 392.8 608 384 608C375.2 608 368 600.8 368 592L368 432z"/></svg>