<svg xmlns="http://www.w3.org/2000/svg" viewBox="0 0 640 640"><!--! Font Awesome Pro 7.1.0 by @fontawesome - https://fontawesome.com License - https://fontawesome.com/license (Commercial License) Copyright 2025 Fonticons, Inc. --><path fill="currentColor" d="M256 112C269.3 112 280 122.7 280 136C280 149.3 269.3 160 256 160C242.7 160 232 149.3 232 136C232 122.7 242.7 112 256 112zM256 192C286.9 192 312 166.9 312 136C312 105.1 286.9 80 256 80C225.1 80 200 105.1 200 136C200 166.9 225.1 192 256 192zM286.7 256C298.9 256 309.6 264.3 312.6 276.2L347.5 416L330 416C308 416 288.8 401 283.4 379.6L260.8 289.1C256.6 272.3 269.3 255.9 286.7 255.9zM380.5 416L343.6 268.5C337.1 242.4 313.6 224 286.7 224C248.5 224 220.5 259.9 229.8 296.9L252.4 387.4C261.3 423 293.3 448 330 448L367.7 448C367.9 448 368.2 448 368.4 448L418.4 448C430.5 448 441.6 454.8 447 465.7L497.7 567.2C501.3 574.3 509.5 577.7 517.1 575.2L565.1 559.2C573.5 556.4 578 547.3 575.2 539C572.4 530.7 563.3 526.1 555 528.9L520.2 540.5L475.7 451.4C464.9 429.7 442.7 416 418.5 416L380.7 416zM159.6 236.3C157.6 227.7 149 222.4 140.4 224.4C131.8 226.4 126.5 235 128.5 243.6L175.1 441.6C187 492.2 232.1 527.9 284.1 527.9L368.1 527.9C376.9 527.9 384.1 520.7 384.1 511.9C384.1 503.1 376.9 495.9 368.1 495.9L284.1 495.9C247 495.9 214.7 470.4 206.2 434.2L159.6 236.2z"/></svg>