<svg xmlns="http://www.w3.org/2000/svg" viewBox="0 0 640 640"><!--! Font Awesome Pro 7.1.0 by @fontawesome - https://fontawesome.com License - https://fontawesome.com/license (Commercial License) Copyright 2025 Fonticons, Inc. --><path fill="currentColor" d="M296 96C296 82.7 306.7 72 320 72C333.3 72 344 82.7 344 96C344 109.3 333.3 120 320 120C306.7 120 296 109.3 296 96zM376 96C376 65.1 350.9 40 320 40C289.1 40 264 65.1 264 96C264 126.9 289.1 152 320 152C350.9 152 376 126.9 376 96zM136.5 114.4C129 109.7 119.1 112 114.5 119.5C109.9 127 112.1 136.9 119.6 141.5L200.9 192.3C213.3 200.1 226.4 206.4 240.1 211.4L240.1 359.5C240.1 379.2 236.8 398.7 230.3 417.3C228.8 421.5 211 472.7 177 570.7C174.1 579 178.5 588.2 186.9 591.1C195.3 594 204.4 589.6 207.3 581.2L250.3 457.6C260.7 427.8 288.7 407.9 320.2 407.9C351.7 407.9 379.7 427.8 390.1 457.5L390.1 457.6L433.1 581.2C436 589.5 445.1 594 453.5 591.1C461.9 588.2 466.3 579.1 463.4 570.7L420.4 447.1L420.4 447L410.1 417.3C403.6 398.7 400.3 379.2 400.3 359.5L400.3 211.4C413.9 206.4 427.1 200.1 439.5 192.3L520.8 141.5C528.3 136.8 530.6 126.9 525.9 119.5C521.2 112.1 511.3 109.7 503.9 114.4L422.6 165.2C394.6 182.7 362.3 192 329.3 192L311.4 192C278.4 192 246.1 182.7 218.1 165.2L136.5 114.4zM370 388.5C355 380.5 337.9 376 320 376C302.1 376 285 380.5 270 388.5C271.3 378.9 272 369.2 272 359.5L272 220.2C284.8 222.7 297.9 223.9 311.1 223.9L329 223.9C342.2 223.9 355.2 222.7 368.1 220.2L368.1 359.5C368.1 369.2 368.8 378.9 370.1 388.5z"/></svg>