<svg xmlns="http://www.w3.org/2000/svg" viewBox="0 0 640 640"><!--! Font Awesome Pro 7.1.0 by @fontawesome - https://fontawesome.com License - https://fontawesome.com/license (Commercial License) Copyright 2025 Fonticons, Inc. --><path fill="currentColor" d="M304 72C304 63.2 296.8 56 288 56C279.2 56 272 63.2 272 72L272 80.2C272 129.4 246.8 175.3 205.3 201.7L177.5 219.4C126.7 251.7 96 307.7 96 367.8L96 456C96 464.8 103.2 472 112 472C120.8 472 128 464.8 128 456L128 367.8C128 343.3 134.2 319.7 145.6 298.9L371.7 570.2C377.4 577 387.4 577.9 394.2 572.2C401 566.5 401.9 556.5 396.2 549.7L278.8 408.8L342 351.9L424.2 351.9L483.4 425.9C488.9 432.8 499 433.9 505.9 428.4C512.8 422.9 513.9 412.8 508.4 405.9L449.2 331.9C443.1 324.3 433.9 319.9 424.2 319.9L327.2 319.9L238.8 216.7C279.8 183.6 304 133.5 304 80.2L304 72zM304.7 342.7L258.5 384.3L164.8 271.8C173.5 262.1 183.5 253.5 194.8 246.3L212.5 235L304.7 342.6zM80 152C80 138.7 90.7 128 104 128C117.3 128 128 138.7 128 152C128 165.3 117.3 176 104 176C90.7 176 80 165.3 80 152zM160 152C160 121.1 134.9 96 104 96C73.1 96 48 121.1 48 152C48 182.9 73.1 208 104 208C134.9 208 160 182.9 160 152zM416 144.1L416 96.1C416 87.3 408.8 80.1 400 80.1C391.2 80.1 384 87.3 384 96.1L384 144.1C384 152.9 391.2 160.1 400 160.1C408.8 160.1 416 152.9 416 144.1zM528 288.1L576 288.1C584.8 288.1 592 280.9 592 272.1C592 263.3 584.8 256.1 576 256.1L528 256.1C519.2 256.1 512 263.3 512 272.1C512 280.9 519.2 288.1 528 288.1zM479.2 192.9C485.4 199.1 495.6 199.1 501.8 192.9L535.8 159C542 152.8 542 142.6 535.8 136.4C529.6 130.2 519.4 130.2 513.2 136.4L479.3 170.3C473.1 176.5 473.1 186.7 479.3 192.9z"/></svg>