<svg xmlns="http://www.w3.org/2000/svg" viewBox="0 0 640 640"><!--! Font Awesome Pro 7.1.0 by @fontawesome - https://fontawesome.com License - https://fontawesome.com/license (Commercial License) Copyright 2025 Fonticons, Inc. --><path fill="currentColor" d="M456 176C469.3 176 480 165.3 480 152C480 138.7 469.3 128 456 128C442.7 128 432 138.7 432 152C432 165.3 442.7 176 456 176zM456 96C486.9 96 512 121.1 512 152C512 182.9 486.9 208 456 208C425.1 208 400 182.9 400 152C400 121.1 425.1 96 456 96zM65.7 312.8C69.7 304.9 79.3 301.7 87.2 305.7L483 504.6C497 511.6 513.3 512.5 527.9 507L554.4 497C562.7 493.9 571.9 498.1 575 506.3C578.1 514.5 573.9 523.8 565.7 526.9L539.2 536.9C516.2 545.6 490.6 544.2 468.6 533.2L72.8 334.3C64.9 330.3 61.7 320.7 65.7 312.8zM224 208L384 208C390.5 208 396.3 211.9 398.8 217.9C401.3 223.9 399.9 230.8 395.3 235.3L294.6 336L408 336C421.3 336 432 346.7 432 360L432 432C432 440.8 424.8 448 416 448C407.2 448 400 440.8 400 432L400 368L294.6 368C266.1 368 251.8 333.5 272 313.4L345.4 240L224 240C215.2 240 208 232.8 208 224C208 215.2 215.2 208 224 208z"/></svg>