<svg xmlns="http://www.w3.org/2000/svg" viewBox="0 0 640 640"><!--! Font Awesome Pro 7.1.0 by @fontawesome - https://fontawesome.com License - https://fontawesome.com/license (Commercial License) Copyright 2025 Fonticons, Inc. --><path fill="currentColor" d="M304 88C304 74.7 314.7 64 328 64C341.3 64 352 74.7 352 88C352 101.3 341.3 112 328 112C314.7 112 304 101.3 304 88zM384 88C384 57.1 358.9 32 328 32C297.1 32 272 57.1 272 88C272 118.9 297.1 144 328 144C358.9 144 384 118.9 384 88zM320 208C337.1 208 353.6 212.5 368 220.7L368 400L272 400L272 220.7C286.4 212.5 302.9 208 320 208zM368 432L368 592C368 600.8 375.2 608 384 608C392.8 608 400 600.8 400 592L400 250.1C401.1 251.7 402.2 253.4 403.2 255.1L466.3 360.2C470.8 367.8 480.7 370.2 488.3 365.7C495.9 361.2 498.3 351.3 493.8 343.8L430.6 238.6C407.3 199.8 365.3 176 320 176C274.7 176 232.7 199.8 209.4 238.6L146.3 343.8C141.8 351.4 144.2 361.2 151.8 365.7C159.4 370.2 169.2 367.8 173.8 360.2L236.9 255.1C237.9 253.4 239 251.7 240.1 250.1L240 592C240 600.8 247.2 608 256 608C264.8 608 272 600.8 272 592L272 432L368 432zM496 432C504.8 432 512 439.2 512 448L512 592C512 600.8 519.2 608 528 608C536.8 608 544 600.8 544 592L544 448C544 421.5 522.5 400 496 400C469.5 400 448 421.5 448 448C448 456.8 455.2 464 464 464C472.8 464 480 456.8 480 448C480 439.2 487.2 432 496 432z"/></svg>