<svg xmlns="http://www.w3.org/2000/svg" viewBox="0 0 640 640"><!--! Font Awesome Pro 7.1.0 by @fontawesome - https://fontawesome.com License - https://fontawesome.com/license (Commercial License) Copyright 2025 Fonticons, Inc. --><path fill="currentColor" d="M204 96.1C195.2 96.1 188 88.9 188 80.1L188 32.1C188 23.3 195.2 16.1 204 16.1C212.8 16.1 220 23.3 220 32.1L220 80.1C220 88.9 212.8 96.1 204 96.1zM12 208.1C12 199.3 19.2 192.1 28 192.1L76 192.1C84.8 192.1 92 199.3 92 208.1C92 216.9 84.8 224.1 76 224.1L28 224.1C19.2 224.1 12 216.9 12 208.1zM90.9 343.9C84.7 350.1 74.5 350.1 68.3 343.9C62.1 337.7 62.1 327.5 68.3 321.3L102.2 287.4C108.4 281.2 118.6 281.2 124.8 287.4C131 293.6 131 303.8 124.8 310L90.9 343.9zM68.2 72.3C74.4 66.1 84.6 66.1 90.8 72.3L124.7 106.2C130.9 112.4 130.9 122.6 124.7 128.8C118.5 135 108.3 135 102.1 128.8L68.2 95C62 88.7 62 78.6 68.2 72.3zM352.4 112C365.7 112 376.4 101.3 376.4 88C376.4 74.7 365.7 64 352.4 64C339.1 64 328.4 74.7 328.4 88C328.4 101.3 339.1 112 352.4 112zM352.4 32C383.3 32 408.4 57.1 408.4 88C408.4 118.9 383.3 144 352.4 144C321.5 144 296.4 118.9 296.4 88C296.4 57.1 321.5 32 352.4 32zM272.4 250.1C271.3 251.7 270.2 253.4 269.2 255.1L206.1 360.2C201.6 367.8 191.7 370.2 184.1 365.7C176.5 361.2 174.1 351.3 178.6 343.8L241.7 238.7C265 199.8 307 176.1 352.3 176.1C397.6 176.1 439.6 199.9 462.9 238.7L526 343.8C530.5 351.4 528.1 361.2 520.5 365.7C512.9 370.2 503.1 367.8 498.5 360.2L435.6 255.1C434.6 253.4 433.5 251.7 432.4 250.1L432.4 592C432.4 600.8 425.2 608 416.4 608C407.6 608 400.4 600.8 400.4 592L400.4 432L304.4 432L304.4 592C304.4 600.8 297.2 608 288.4 608C279.6 608 272.4 600.8 272.4 592L272.4 250.1zM400.4 220.7C386 212.5 369.5 208 352.4 208C335.3 208 318.8 212.5 304.4 220.7L304.4 400L400.4 400L400.4 220.7z"/></svg>