<svg xmlns="http://www.w3.org/2000/svg" viewBox="0 0 640 640"><!--! Font Awesome Pro 7.1.0 by @fontawesome - https://fontawesome.com License - https://fontawesome.com/license (Commercial License) Copyright 2025 Fonticons, Inc. --><path fill="currentColor" d="M288 123.1L288 128L416 128L416 101.8L288 123.1zM430.2 159.2C431.4 164.6 432 170.2 432 176C432 220.2 396.2 256 352 256C307.8 256 272 220.2 272 176C272 170.2 272.6 164.6 273.8 159.2C263.6 156.5 256 147.1 256 136L256 116.3C256 104.6 264.5 94.6 276.1 92.6L420.1 68.6C434.7 66.2 448 77.5 448 92.3L448 136C448 147.1 440.5 156.4 430.2 159.2zM397.2 160L306.7 160C304.9 165 304 170.4 304 176C304 202.5 325.5 224 352 224C378.5 224 400 202.5 400 176C400 170.4 399 165 397.3 160zM64 304C64 295.2 71.2 288 80 288L376.3 288C416.5 288 453.6 309.5 473.5 344.4L573.9 520.1C578.3 527.8 575.6 537.5 567.9 541.9C560.2 546.3 550.5 543.6 546.1 535.9L448 364.2L448 528C448 554.5 426.5 576 400 576L304 576C277.5 576 256 554.5 256 528L256 496.4C256 496.2 256 495.9 256 495.7L256 320.1L80 320.1C71.2 320.1 64 312.9 64 304.1zM288 528C288 536.8 295.2 544 304 544L400 544C408.8 544 416 536.8 416 528L416 512L288 512L288 528zM416 360C416 355.7 415.3 351.5 414.1 347.6L305.8 480L416 480L416 360zM376 320L288 320L288 451.2L392.4 323.6C387.4 321.3 381.8 320.1 376 320.1z"/></svg>