<svg xmlns="http://www.w3.org/2000/svg" viewBox="0 0 640 640"><!--! Font Awesome Pro 7.1.0 by @fontawesome - https://fontawesome.com License - https://fontawesome.com/license (Commercial License) Copyright 2025 Fonticons, Inc. --><path fill="currentColor" d="M248 120C248 106.7 237.3 96 224 96C210.7 96 200 106.7 200 120C200 133.3 210.7 144 224 144C237.3 144 248 133.3 248 120zM168 120C168 89.1 193.1 64 224 64C254.9 64 280 89.1 280 120C280 150.9 254.9 176 224 176C193.1 176 168 150.9 168 120zM144 384L208 384L208 225.2C204.6 224.4 201.1 224 197.5 224L163.3 224C156.5 224 150 225.4 144 228L144 384zM323.8 346.4L240 247.9L240 560C240 568.8 232.8 576 224 576C215.2 576 208 568.8 208 560L208 416L144 416L144 560C144 568.8 136.8 576 128 576C119.2 576 112 568.8 112 560L112 266.2L62.1 359.6C57.9 367.4 48.2 370.3 40.4 366.2C32.6 362.1 29.7 352.3 33.8 344.5L92.7 234.3C106.6 208.3 133.7 192 163.3 192L197.5 192C221 192 243.2 202.3 258.4 220.2L348.2 325.7C353.9 332.4 353.1 342.5 346.4 348.3C339.7 354.1 329.6 353.2 323.8 346.5zM336 96L392 96C400.8 96 408 103.2 408 112C408 120.8 400.8 128 392 128L336 128C327.2 128 320 120.8 320 112C320 103.2 327.2 96 336 96zM464 336C477.3 336 488 325.3 488 312C488 298.7 477.3 288 464 288C450.7 288 440 298.7 440 312C440 325.3 450.7 336 464 336zM464 256C494.9 256 520 281.1 520 312C520 342.9 494.9 368 464 368C433.1 368 408 342.9 408 312C408 281.1 433.1 256 464 256zM552 352C582.9 352 608 377.1 608 408L608 520C608 550.9 582.9 576 552 576C526.9 576 503.2 564.5 487.6 544.7L434.1 476.5L381.9 567.9C377.5 575.6 367.7 578.2 360.1 573.9C352.5 569.6 349.8 559.7 354.1 552.1L418.1 440.1C420.7 435.5 425.5 432.5 430.8 432.1C436.1 431.7 441.3 434 444.6 438.2L496 503.6L496 408C496 377.1 521.1 352 552 352zM552 544C565.3 544 576 533.3 576 520L576 408C576 394.7 565.3 384 552 384C538.7 384 528 394.7 528 408L528 520C528 533.3 538.7 544 552 544zM297.7 168.8C301.7 160.9 311.3 157.7 319.2 161.6L367.2 185.6C375.1 189.6 378.3 199.2 374.4 207.1C370.5 215 360.8 218.2 352.9 214.3L304.9 190.3C297 186.3 293.8 176.7 297.7 168.8z"/></svg>