<svg xmlns="http://www.w3.org/2000/svg" viewBox="0 0 640 640"><!--! Font Awesome Pro 7.1.0 by @fontawesome - https://fontawesome.com License - https://fontawesome.com/license (Commercial License) Copyright 2025 Fonticons, Inc. --><path fill="currentColor" d="M344 88C344 74.7 333.3 64 320 64C306.7 64 296 74.7 296 88C296 101.3 306.7 112 320 112C333.3 112 344 101.3 344 88zM264 88C264 57.1 289.1 32 320 32C350.9 32 376 57.1 376 88C376 118.9 350.9 144 320 144C289.1 144 264 118.9 264 88zM304.9 208C289.5 208 275.1 215.5 266.3 228.1L173.1 361.2C168 368.4 158.1 370.2 150.8 365.1C143.5 360 141.8 350.1 146.9 342.8L240 209.8C254.8 188.6 279 176 304.8 176C348.5 176 383.9 211.4 383.9 255.1L383.9 262.9L412.4 280C444.4 299.2 463.9 334 463.9 371.2C463.9 404.2 448.4 435.5 421.9 455.4C410.4 464.1 397.5 470.5 383.9 474.7L384 592C384 600.8 376.8 608 368 608C359.2 608 352 600.8 352 592L352 479.9C350.8 479.9 349.6 480 348.4 480L288 480L288 592C288 600.8 280.8 608 272 608C263.2 608 256 600.8 256 592L256 480L208 480C202.9 480 198 477.5 195 473.4C192 469.3 191.2 463.9 192.8 459L240.8 315C243.6 306.6 252.7 302.1 261 304.9C269.3 307.7 273.9 316.8 271.1 325.1L230.1 448L348.3 448C367.9 448 387 441.6 402.7 429.9C421 416.2 431.9 394.3 431.9 371.3C431.9 345.2 418.2 320.9 396 307.5L359.7 285.7C354.9 282.8 351.9 277.6 351.9 272L351.9 255.1C351.9 229.1 330.8 208 304.8 208z"/></svg>