<svg xmlns="http://www.w3.org/2000/svg" viewBox="0 0 640 640"><!--! Font Awesome Pro 7.1.0 by @fontawesome - https://fontawesome.com License - https://fontawesome.com/license (Commercial License) Copyright 2025 Fonticons, Inc. --><path fill="currentColor" d="M296 152C296 138.7 306.7 128 320 128C333.3 128 344 138.7 344 152C344 165.3 333.3 176 320 176C306.7 176 296 165.3 296 152zM376 152C376 121.1 350.9 96 320 96C289.1 96 264 121.1 264 152C264 182.9 289.1 208 320 208C350.9 208 376 182.9 376 152zM134.8 137.8C131.4 129.6 122 125.8 113.9 129.2C105.8 132.6 101.9 142 105.3 150.1L117 178.1C136.8 225.5 179.1 259.8 229.5 269.3L229.7 269.3L197.7 375.9C208.5 376.1 219.3 377.5 229.9 380L262.3 271.9L354.4 271.9C357.9 271.9 361.5 271.8 365 271.6L320.7 419.3L319.3 423.8C319.6 423.8 319.8 423.9 320 423.9C321.7 423.9 330.7 422.4 355.6 404.7C356.8 403.8 358 403 359.3 402.2L399.4 268.5L399.9 266.9C405.7 265.6 411.5 264.1 417.1 262.3L540.9 223.2C549.3 220.5 554 211.6 551.3 203.1C548.6 194.6 539.6 190 531.2 192.7L407.4 231.8C390.3 237.2 372.4 240 354.4 240L257.7 240C250.2 240 242.7 239.3 235.4 237.9C195.5 230.4 162.1 203.3 146.5 165.8L134.8 137.8zM402 469.9C428 451.3 463.1 451.3 489.1 469.9C508.8 484 531.5 496.8 556.1 501.5C581.3 506.3 607.8 502.4 633.3 484.1C640.5 479 642.2 469 637 461.8C631.8 454.6 621.9 452.9 614.7 458.1C596.7 470.9 579.3 473.4 562.1 470.1C544.2 466.7 525.9 456.9 507.7 443.9C470.6 417.4 420.6 417.4 383.4 443.9C358.1 462 338.1 472 319.9 472C301.7 472 281.8 461.9 256.4 443.9C219.3 417.4 169.3 417.4 132.1 443.9C108.9 460.4 86 471.6 63.9 471.4C51.4 471.3 38.5 467.7 25.1 458.1C17.9 453 7.9 454.6 2.8 461.8C-2.3 469-.5 479 6.7 484.1C25.4 497.4 44.7 503.3 63.9 503.4C96.3 503.6 126.1 487.6 150.8 469.9C176.8 451.3 211.9 451.3 237.9 469.9C263.5 488.2 290.8 504 319.9 504C349 504 376.3 488.2 401.9 469.9z"/></svg>