<svg xmlns="http://www.w3.org/2000/svg" viewBox="0 0 640 640"><!--! Font Awesome Pro 7.1.0 by @fontawesome - https://fontawesome.com License - https://fontawesome.com/license (Commercial License) Copyright 2025 Fonticons, Inc. --><path fill="currentColor" d="M320 64C328.8 64 336 71.2 336 80L336 274.8C334.1 275.1 332.3 275.4 330.4 275.9L304 282.5L304 80C304 71.2 311.2 64 320 64zM168.8 241.7C176.7 237.7 186.3 241 190.3 248.9L232.6 333.4L338.2 307C353.3 303.2 368 314.7 368 330.3L368 466.8L518.7 407.1C534 401.1 544 386.3 544 369.9L544 368C544 359.2 551.2 352 560 352C568.8 352 576 359.2 576 368L576 369.9C576 399.4 558 426 530.5 436.8L181.9 574.8C173.7 578.1 164.4 574 161.1 565.8C157.8 557.6 161.9 548.3 170.1 545L336 479.3L336 340.3L240.3 364.2C225.7 367.8 210.6 360.9 203.9 347.5L161.7 263.2C157.7 255.3 161 245.7 168.9 241.7zM73.1 225.6C81.1 221.8 90.6 225.1 94.4 233.1L167.3 385C177.3 405.9 200.8 416.6 223.2 410.5L259.7 400.5C268.2 398.2 277 403.2 279.3 411.7C281.6 420.2 276.6 429 268.1 431.3L231.6 441.3C194.3 451.5 155.1 433.6 138.4 398.7L65.6 246.9C61.8 238.9 65.1 229.4 73.1 225.6zM192 152C192 138.7 181.3 128 168 128C154.7 128 144 138.7 144 152C144 165.3 154.7 176 168 176C181.3 176 192 165.3 192 152zM112 152C112 121.1 137.1 96 168 96C198.9 96 224 121.1 224 152C224 182.9 198.9 208 168 208C137.1 208 112 182.9 112 152z"/></svg>