<svg xmlns="http://www.w3.org/2000/svg" viewBox="0 0 640 640"><!--! Font Awesome Pro 7.1.0 by @fontawesome - https://fontawesome.com License - https://fontawesome.com/license (Commercial License) Copyright 2025 Fonticons, Inc. --><path fill="currentColor" d="M472 128C485.3 128 496 117.3 496 104C496 90.7 485.3 80 472 80C458.7 80 448 90.7 448 104C448 117.3 458.7 128 472 128zM472 48C502.9 48 528 73.1 528 104C528 134.9 502.9 160 472 160C441.1 160 416 134.9 416 104C416 73.1 441.1 48 472 48zM192 192C192 183.2 199.2 176 208 176L399.9 176C443.2 176 464.4 228.9 433 258.8L260.1 423.3L246.6 483.9L501.4 352.1C522.7 341.1 536 319.2 536 295.3L536 288C536 279.2 543.2 272 552 272C560.8 272 568 279.2 568 288L568 295.3C568 331.2 548 364.1 516.1 380.6L95.4 598.2C87.6 602.3 77.9 599.2 73.8 591.3C69.7 583.4 72.8 573.8 80.7 569.7L209.6 503.1L252.1 312C255.6 296.2 263.9 281.8 275.8 270.7L343.3 208L208 208C199.2 208 192 200.8 192 192zM390.3 208L297.5 294.2C290.4 300.8 285.4 309.5 283.3 319L272.5 367.3L411 235.6C421.5 225.6 414.4 208 400 208L390.3 208z"/></svg>