<svg xmlns="http://www.w3.org/2000/svg" viewBox="0 0 640 640"><!--! Font Awesome Pro 7.1.0 by @fontawesome - https://fontawesome.com License - https://fontawesome.com/license (Commercial License) Copyright 2025 Fonticons, Inc. --><path fill="currentColor" d="M320 64C333.3 64 344 74.7 344 88C344 101.3 333.3 112 320 112C306.7 112 296 101.3 296 88C296 74.7 306.7 64 320 64zM320 144C350.9 144 376 118.9 376 88C376 57.1 350.9 32 320 32C289.1 32 264 57.1 264 88C264 118.9 289.1 144 320 144zM164.3 222.5C168.1 213.7 176.8 208 186.4 208L234.4 208L196.3 333.1C187.3 362.7 204 394 233.6 403L362 442L305.4 569.5C301.8 577.6 305.4 587 313.5 590.6C321.6 594.2 331 590.6 334.6 582.5L391.3 455C399.1 437.4 389.8 417 371.4 411.4L305.2 391.2L343.7 274.9L352.9 293.4C361 309.7 377.7 319.9 395.8 319.9L464 319.9C472.8 319.9 480 312.7 480 303.9C480 295.1 472.8 287.9 464 287.9L395.8 287.9C389.7 287.9 384.2 284.5 381.5 279.1L352 220.2C338.4 193.1 310.7 176 280.4 176L186.3 176C163.9 176 143.7 189.4 134.8 209.9L97.3 297.7C93.8 305.8 97.6 315.2 105.7 318.7C113.8 322.2 123.2 318.4 126.7 310.3L164.3 222.5zM227 342.4L267.9 208L280.5 208C298.6 208 315.2 218.2 323.4 234.4L274.5 381.9L242.9 372.3C230.2 368.4 223.1 355 226.9 342.4zM174.3 459.7C171.7 467.1 167.3 473.7 161.5 479L69.2 563.3C62.7 569.3 62.2 579.4 68.2 585.9C74.2 592.4 84.3 592.9 90.8 586.9L183.1 502.5C192.7 493.7 200 482.7 204.4 470.4L212.9 446.6C202.5 442.6 193 437.1 184.7 430.5L174.3 459.7zM480 544C480 526.3 494.3 512 512 512C529.7 512 544 526.3 544 544C544 561.7 529.7 576 512 576C494.3 576 480 561.7 480 544zM576 544C576 508.7 547.3 480 512 480C476.7 480 448 508.7 448 544C448 579.3 476.7 608 512 608C547.3 608 576 579.3 576 544z"/></svg>