<svg xmlns="http://www.w3.org/2000/svg" viewBox="0 0 640 640"><!--! Font Awesome Pro 7.1.0 by @fontawesome - https://fontawesome.com License - https://fontawesome.com/license (Commercial License) Copyright 2025 Fonticons, Inc. --><path fill="currentColor" d="M128 112C141.3 112 152 101.3 152 88C152 74.7 141.3 64 128 64C114.7 64 104 74.7 104 88C104 101.3 114.7 112 128 112zM128 32C158.9 32 184 57.1 184 88C184 118.9 158.9 144 128 144C97.1 144 72 118.9 72 88C72 57.1 97.1 32 128 32zM128.5 176C154 176 177.1 191 187.4 214.3L221.7 291.5C229.4 308.8 246.6 320 265.6 320L304 320C312.8 320 320 327.2 320 336C320 344.8 312.8 352 304 352L265.6 352C234 352 205.3 333.4 192.5 304.5L192 303.4L192 432C212.1 447.1 224 470.8 224 496L224 592C224 600.8 216.8 608 208 608C199.2 608 192 600.8 192 592L192 496C192 480.9 184.9 466.7 172.8 457.6L96 400C75.9 384.9 64 361.2 64 336L64 240.5C64 204.9 92.9 176 128.5 176zM64 592L64 435.9C65.1 436.7 66.1 437.6 67.2 438.4L96 460L96 592C96 600.8 88.8 608 80 608C71.2 608 64 600.8 64 592zM160 240C160 222.3 145.7 208 128 208C110.3 208 96 222.3 96 240L96 336C96 351.1 103.1 365.3 115.2 374.4L160 408L160 240zM438.3 296.8C439.9 300 440.4 303.7 439.7 307.2L403.7 479.9L576 479.9L576 111.9C576 103.1 568.8 95.9 560 95.9L337.9 96L438.3 296.8zM576 592L576 512L384 512C379.2 512 374.6 509.8 371.6 506.1C368.6 502.4 367.4 497.5 368.3 492.7L407.2 306.1L320 131.7L320 267.9L288 267.9L288 111.9C288 85.4 309.5 63.9 336 63.9L560 64C586.5 64 608 85.5 608 112L608 592C608 600.8 600.8 608 592 608C583.2 608 576 600.8 576 592zM320 592C320 600.8 312.8 608 304 608C295.2 608 288 600.8 288 592L288 404L320 404L320 592z"/></svg>