<svg xmlns="http://www.w3.org/2000/svg" viewBox="0 0 640 640"><!--! Font Awesome Pro 7.1.0 by @fontawesome - https://fontawesome.com License - https://fontawesome.com/license (Commercial License) Copyright 2025 Fonticons, Inc. --><path fill="currentColor" d="M563.2 32.3C570.5 33.8 576 40.3 576 48L576 592C576 600.8 568.8 608 560 608C551.2 608 544 600.8 544 592L544 448L256 448L256 592C256 600.8 248.8 608 240 608C231.2 608 224 600.8 224 592L224 340.8L141.5 217.1C137.7 211.4 131.3 208 124.4 208C113.1 208 103.9 217.2 103.9 228.5L103.9 344C103.9 355.6 108.1 366.9 115.8 375.6L140.1 403.4L144.6 409.1C154.5 422.7 159.9 439.2 159.9 456.1L160 592C160 600.8 152.8 608 144 608C135.2 608 128 600.8 128 592L128 456.1C128 445.9 124.8 436 118.8 427.9L116.1 424.5L91.8 396.7C79 382 72 363.3 72 343.9L72 228.5C72 199.5 95.5 176 124.5 176C142 176 158.5 184.8 168.2 199.4L247.4 318.2L517.5 264.2L428.2 163.7C420.3 154.9 416 143.6 416 131.8L416 48L416.3 44.8C417.8 37.5 424.3 32 432 32L560 32L563.2 32.3zM256 349.1L256 416L544 416L544 291.5L256 349.1zM448 131.8C448 135.7 449.4 139.5 452 142.4L544 245.8L544 63.9L448 63.9L448 131.7zM128 144C97.1 144 72 118.9 72 88C72 57.1 97.1 32 128 32C158.9 32 184 57.1 184 88C184 118.9 158.9 144 128 144zM128 64C114.7 64 104 74.7 104 88C104 101.3 114.7 112 128 112C141.3 112 152 101.3 152 88C152 74.7 141.3 64 128 64z"/></svg>