<svg xmlns="http://www.w3.org/2000/svg" viewBox="0 0 640 640"><!--! Font Awesome Pro 7.1.0 by @fontawesome - https://fontawesome.com License - https://fontawesome.com/license (Commercial License) Copyright 2025 Fonticons, Inc. --><path fill="currentColor" d="M448.5 64L434.4 64L473.8 142.8C489.4 173.9 477.2 211.8 446.4 228.1L425.4 239.2L468.9 351.1C476.7 371.2 479.9 392.8 478.3 414.3L464.4 593.2C463.7 602 456 608.6 447.2 607.9C438.4 607.2 431.8 599.5 432.5 590.7L446 416L383.1 416C381.2 426.2 377.3 436 371.5 445L269.9 600.8C265.1 608.2 255.2 610.3 247.8 605.5C240.4 600.7 238.3 590.8 243.1 583.4L344.7 427.5C353.3 414.3 354.9 397.6 348.9 383L317.3 306.2C307.6 282.6 318 255.6 341 244.6L397.3 217.8L431.4 199.8C446.8 191.7 452.9 172.7 445.1 157.2L398.6 64L211.6 64L193.4 112.4C189.9 121.8 180.9 128 170.9 128L124 128C107.3 128 95.7 111.3 101.5 95.6L115.7 58C121.6 42.4 136.5 32 153.2 32L407.9 32C408.3 32 408.7 32 409.1 32L448.5 32C457.3 32 464.5 39.2 464.5 48C464.5 56.8 457.3 64 448.5 64zM382.6 384L445 384C443.7 376.7 441.7 369.6 439.1 362.7L396.7 253.5L354.9 273.4C347.2 277.1 343.7 286.1 347 293.9L378.6 370.7C380.4 375 381.8 379.4 382.7 383.9zM344.5 160C344.5 146.7 333.8 136 320.5 136C307.2 136 296.5 146.7 296.5 160C296.5 173.3 307.2 184 320.5 184C333.8 184 344.5 173.3 344.5 160zM264.5 160C264.5 129.1 289.6 104 320.5 104C351.4 104 376.5 129.1 376.5 160C376.5 190.9 351.4 216 320.5 216C289.6 216 264.5 190.9 264.5 160zM153.1 64C149.8 64 146.8 66.1 145.6 69.2L135.6 96L165.4 96L177.4 64L153.1 64z"/></svg>