<svg xmlns="http://www.w3.org/2000/svg" viewBox="0 0 640 640"><!--! Font Awesome Pro 7.1.0 by @fontawesome - https://fontawesome.com License - https://fontawesome.com/license (Commercial License) Copyright 2025 Fonticons, Inc. --><path fill="currentColor" d="M280 136C280 122.7 269.3 112 256 112C242.7 112 232 122.7 232 136C232 149.3 242.7 160 256 160C269.3 160 280 149.3 280 136zM200 136C200 105.1 225.1 80 256 80C286.9 80 312 105.1 312 136C312 166.9 286.9 192 256 192C225.1 192 200 166.9 200 136zM224 288L224 368C224 394.5 245.5 416 272 416L288 416L288 288C288 270.3 273.7 256 256 256C238.3 256 224 270.3 224 288zM320 288L320 416L336 416C371.3 416 400 444.7 400 480L400 544L432 544C440.8 544 448 551.2 448 560C448 568.8 440.8 576 432 576L384 576C375.2 576 368 568.8 368 560L368 480C368 462.3 353.7 448 336 448L272 448C227.8 448 192 412.2 192 368L192 288C192 252.7 220.7 224 256 224C291.3 224 320 252.7 320 288zM128 224C136.8 224 144 231.2 144 240L144 416C144 460.2 179.8 496 224 496L304 496C312.8 496 320 503.2 320 512C320 520.8 312.8 528 304 528L224 528C162.1 528 112 477.9 112 416L112 240C112 231.2 119.2 224 128 224zM448 128C430.3 128 416 142.3 416 160L416 256C416 273.7 430.3 288 448 288L480 288C497.7 288 512 273.7 512 256L512 160C512 142.3 497.7 128 480 128L448 128zM384 160C384 124.7 412.7 96 448 96L480 96C515.3 96 544 124.7 544 160L544 256C544 291.3 515.3 320 480 320L448 320C412.7 320 384 291.3 384 256L384 160z"/></svg>