<svg xmlns="http://www.w3.org/2000/svg" viewBox="0 0 640 640"><!--! Font Awesome Pro 7.1.0 by @fontawesome - https://fontawesome.com License - https://fontawesome.com/license (Commercial License) Copyright 2025 Fonticons, Inc. --><path fill="currentColor" d="M352 56C360.8 56 368 63.2 368 72L368 80.2C368 133.6 343.8 183.7 302.9 216.9L391.3 320.1L488.3 320.1C498 320.1 507.2 324.5 513.3 332.1L572.5 406.1C578 413 576.9 423.1 570 428.6C563.1 434.1 553 433 547.5 426.1L488.3 352.1L406.1 352.1L342.9 409L460.3 549.9C466 556.7 465 566.8 458.3 572.4C451.6 578 441.4 577.1 435.8 570.4L209.6 298.9C198.2 319.7 192 343.4 192 367.8L192 456C192 464.8 184.8 472 176 472C167.2 472 160 464.8 160 456L160 367.8C160 307.6 190.7 251.6 241.5 219.3L269.3 201.6C310.8 175.2 336 129.4 336 80.2L336 72C336 63.2 343.2 56 352 56zM322.4 384.3L368.6 342.7L276.4 235.1L258.7 246.4C247.4 253.6 237.4 262.2 228.7 271.9L322.4 384.4zM168 176C181.3 176 192 165.3 192 152C192 138.7 181.3 128 168 128C154.7 128 144 138.7 144 152C144 165.3 154.7 176 168 176zM168 96C198.9 96 224 121.1 224 152C224 182.9 198.9 208 168 208C137.1 208 112 182.9 112 152C112 121.1 137.1 96 168 96z"/></svg>