<svg xmlns="http://www.w3.org/2000/svg" viewBox="0 0 640 640"><!--! Font Awesome Pro 7.1.0 by @fontawesome - https://fontawesome.com License - https://fontawesome.com/license (Commercial License) Copyright 2025 Fonticons, Inc. --><path fill="currentColor" d="M152 88C152 74.7 141.3 64 128 64C114.7 64 104 74.7 104 88C104 101.3 114.7 112 128 112C141.3 112 152 101.3 152 88zM72 88C72 57.1 97.1 32 128 32C158.9 32 184 57.1 184 88C184 118.9 158.9 144 128 144C97.1 144 72 118.9 72 88zM64 240.5C64 204.9 92.9 176 128.5 176C154 176 177.1 191 187.4 214.3L221.7 291.5C229.4 308.8 246.6 320 265.6 320L320 320L320 240C320 231.2 327.2 224 336 224C344.8 224 352 231.2 352 240L352 514.7C365.6 519.5 376.4 530.3 381.3 544L560 544C568.8 544 576 551.2 576 560C576 568.8 568.8 576 560 576L381.3 576C374.7 594.6 356.9 608 336 608C309.5 608 288 586.5 288 560C288 539.1 301.4 521.3 320 514.7L320 352L265.6 352C234 352 205.3 333.4 192.5 304.5L192 303.4L192 432C212.1 447.1 224 470.8 224 496L224 592C224 600.8 216.8 608 208 608C199.2 608 192 600.8 192 592L192 496C192 480.9 184.9 466.7 172.8 457.6L96 400C75.9 384.9 64 361.2 64 336L64 240.5zM64 435.9C65.1 436.7 66.1 437.6 67.2 438.4L96 460L96 592C96 600.8 88.8 608 80 608C71.2 608 64 600.8 64 592L64 435.9zM128 208C110.3 208 96 222.3 96 240L96 336C96 351.1 103.1 365.3 115.2 374.4L160 408L160 240C160 222.3 145.7 208 128 208zM336 576C344.8 576 352 568.8 352 560C352 551.2 344.8 544 336 544C327.2 544 320 551.2 320 560C320 568.8 327.2 576 336 576z"/></svg>