<svg xmlns="http://www.w3.org/2000/svg" viewBox="0 0 640 640"><!--! Font Awesome Pro 7.1.0 by @fontawesome - https://fontawesome.com License - https://fontawesome.com/license (Commercial License) Copyright 2025 Fonticons, Inc. --><path fill="currentColor" d="M320 112C333.3 112 344 122.7 344 136C344 149.3 333.3 160 320 160C306.7 160 296 149.3 296 136C296 122.7 306.7 112 320 112zM320 192C350.9 192 376 166.9 376 136C376 105.1 350.9 80 320 80C289.1 80 264 105.1 264 136C264 166.9 289.1 192 320 192zM320 256C337.7 256 352 270.3 352 288L352 416L336 416C309.5 416 288 394.5 288 368L288 288C288 270.3 302.3 256 320 256zM384 416L384 288C384 252.7 355.3 224 320 224C284.7 224 256 252.7 256 288L256 368C256 412.2 291.8 448 336 448L400 448C417.7 448 432 462.3 432 480L432 560C432 568.8 439.2 576 448 576L496 576C504.8 576 512 568.8 512 560C512 551.2 504.8 544 496 544L464 544L464 480C464 444.7 435.3 416 400 416L384 416zM208 240C208 231.2 200.8 224 192 224C183.2 224 176 231.2 176 240L176 416C176 477.9 226.1 528 288 528L368 528C376.8 528 384 520.8 384 512C384 503.2 376.8 496 368 496L288 496C243.8 496 208 460.2 208 416L208 240z"/></svg>