<svg xmlns="http://www.w3.org/2000/svg" viewBox="0 0 640 640"><!--! Font Awesome Pro 7.1.0 by @fontawesome - https://fontawesome.com License - https://fontawesome.com/license (Commercial License) Copyright 2025 Fonticons, Inc. --><path fill="currentColor" d="M168.5 88C168.5 74.7 179.2 64 192.5 64C205.8 64 216.5 74.7 216.5 88C216.5 101.3 205.8 112 192.5 112C179.2 112 168.5 101.3 168.5 88zM248.5 88C248.5 57.1 223.4 32 192.5 32C161.6 32 136.5 57.1 136.5 88C136.5 118.9 161.6 144 192.5 144C223.4 144 248.5 118.9 248.5 88zM112.5 257.8L112.5 592C112.5 600.8 119.7 608 128.5 608C137.3 608 144.5 600.8 144.5 592L144.5 432L240.5 432L240.5 592C240.5 600.8 247.7 608 256.5 608C265.3 608 272.5 600.8 272.5 592L272.5 256L272.5 256L272.5 208L400.5 208C409.3 208 416.5 200.8 416.5 192C416.5 183.2 409.3 176 400.5 176L352.5 176L352.5 112C352.5 103.2 359.7 96 368.5 96L592.5 96C601.3 96 608.5 103.2 608.5 112L608.5 336C608.5 344.8 601.3 352 592.5 352L368.5 352C359.7 352 352.5 344.8 352.5 336L352.5 272L320.5 272L320.5 336C320.5 362.5 342 384 368.5 384L592.5 384C619 384 640.5 362.5 640.5 336L640.5 112C640.5 85.5 619 64 592.5 64L368.5 64C342 64 320.5 85.5 320.5 112L320.5 176L197.8 176C157.3 176 119.2 195.2 95 227.7L27.6 318.5C22.3 325.6 23.8 335.6 30.9 340.9C38 346.2 48 344.7 53.3 337.6L112.4 257.9zM240.5 208L240.5 216L240.5 216L240.5 400L144.5 400L144.5 224.1C160.1 213.7 178.6 208 197.8 208L240.5 208z"/></svg>