<svg xmlns="http://www.w3.org/2000/svg" viewBox="0 0 640 640"><!--! Font Awesome Pro 7.1.0 by @fontawesome - https://fontawesome.com License - https://fontawesome.com/license (Commercial License) Copyright 2025 Fonticons, Inc. --><path fill="currentColor" d="M448 64C461.3 64 472 74.7 472 88C472 101.3 461.3 112 448 112C434.7 112 424 101.3 424 88C424 74.7 434.7 64 448 64zM448 144C478.9 144 504 118.9 504 88C504 57.1 478.9 32 448 32C417.1 32 392 57.1 392 88C392 118.9 417.1 144 448 144zM292.3 222.5C296.1 213.7 304.8 208 314.4 208L362.4 208L324.3 333.1C315.3 362.7 332 394 361.6 403L490 442L433.4 569.5C429.8 577.6 433.4 587 441.5 590.6C449.6 594.2 459 590.6 462.6 582.5L519.3 455C527.1 437.4 517.8 417 499.4 411.4L433.2 391.2L471.7 274.9L480.9 293.4C489 309.7 505.7 319.9 523.8 319.9L592 319.9C600.8 319.9 608 312.7 608 303.9C608 295.1 600.8 287.9 592 287.9L523.8 287.9C517.7 287.9 512.2 284.5 509.5 279.1L480 220.2C466.4 193.1 438.7 176 408.4 176L314.3 176C291.9 176 271.7 189.4 262.8 209.9L225.2 297.7C221.7 305.8 225.5 315.2 233.6 318.7C241.7 322.2 251.1 318.4 254.6 310.3L292.2 222.5zM355 342.4L395.9 208L408.5 208C426.6 208 443.2 218.2 451.4 234.4L402.5 381.9L370.9 372.3C358.2 368.4 351.1 355 354.9 342.4zM302.3 459.7C299.7 467.1 295.3 473.7 289.5 479L197.2 563.4C190.7 569.4 190.2 579.5 196.2 586C202.2 592.5 212.3 593 218.8 587L311.1 502.6C320.7 493.8 328 482.8 332.4 470.5L340.9 446.7C330.5 442.7 321 437.2 312.7 430.6L302.3 459.8zM48 159.8C39.2 159.8 32 167 32 175.8C32 184.6 39.2 191.8 48 191.8L176 191.8C184.8 191.8 192 184.6 192 175.8C192 167 184.8 159.8 176 159.8L48 159.8zM64 271.8C64 280.6 71.2 287.8 80 287.8L144 287.8C152.8 287.8 160 280.6 160 271.8C160 263 152.8 255.8 144 255.8L80 255.8C71.2 255.8 64 263 64 271.8zM48 351.8C39.2 351.8 32 359 32 367.8C32 376.6 39.2 383.8 48 383.8L176 383.8C184.8 383.8 192 376.6 192 367.8C192 359 184.8 351.8 176 351.8L48 351.8z"/></svg>