<svg xmlns="http://www.w3.org/2000/svg" viewBox="0 0 640 640"><!--! Font Awesome Pro 7.1.0 by @fontawesome - https://fontawesome.com License - https://fontawesome.com/license (Commercial License) Copyright 2025 Fonticons, Inc. --><path fill="currentColor" d="M344 88C344 74.7 333.3 64 320 64C306.7 64 296 74.7 296 88C296 101.3 306.7 112 320 112C333.3 112 344 101.3 344 88zM264 88C264 57.1 289.1 32 320 32C350.9 32 376 57.1 376 88C376 118.9 350.9 144 320 144C289.1 144 264 118.9 264 88zM252.6 261.9L172.5 362C167 368.9 156.9 370 150 364.5C143.1 359 142 348.9 147.5 342L256.3 206C271.5 187 294.5 176 318.8 176L321.3 176C345.6 176 368.6 187 383.8 206L492.5 342C498 348.9 496.9 359 490 364.5C483.1 370 473 368.9 467.5 362L387.4 261.9L441.2 427C444.6 437.3 436.9 448 426 448L384 448L384 592C384 600.8 376.8 608 368 608C359.2 608 352 600.8 352 592L352 448L288 448L288 592C288 600.8 280.8 608 272 608C263.2 608 256 600.8 256 592L256 448L214 448C203.1 448 195.4 437.4 198.8 427L252.5 261.9zM403.9 416L342 225.5C338.9 216 330 209.6 320.1 209.6C310.2 209.6 301.2 216 298.1 225.5L236.1 416L404 416z"/></svg>