<svg xmlns="http://www.w3.org/2000/svg" viewBox="0 0 640 640"><!--! Font Awesome Pro 7.1.0 by @fontawesome - https://fontawesome.com License - https://fontawesome.com/license (Commercial License) Copyright 2025 Fonticons, Inc. --><path fill="currentColor" d="M136 88C136 74.7 146.7 64 160 64C173.3 64 184 74.7 184 88C184 101.3 173.3 112 160 112C146.7 112 136 101.3 136 88zM216 88C216 57.1 190.9 32 160 32C129.1 32 104 57.1 104 88C104 118.9 129.1 144 160 144C190.9 144 216 118.9 216 88zM144.8 208C155.6 208 166.1 209.8 176 213.3L176 390.1L138.5 371.4C122.2 363.3 112 346.6 112 328.5L112 213.9C122.4 210 133.5 208 144.8 208zM75 238.9C76.6 237.1 78.3 235.4 80 233.8L80 328.5C80 358.8 97.1 386.5 124.2 400.1L217.7 446.8C232.3 454.1 242.1 468.2 243.9 484.4L256.1 593.8C257.1 602.6 265 608.9 273.8 607.9C282.6 606.9 288.9 599 287.9 590.2L275.7 480.8C272.7 453.8 256.2 430.2 232 418.1L208 406.1L208 232.3C212.5 236.3 216.6 240.8 220.3 245.8L240 272C255.1 292.1 278.8 304 304 304L336 304C344.8 304 352 296.8 352 288C352 279.2 344.8 272 336 272L304 272C288.9 272 274.7 264.9 265.6 252.8L245.9 226.5C222 194.7 184.6 176 144.8 176C109.2 176 75.2 191 51.3 217.4L20.8 250.9C7.4 265.7 0 284.8 0 304.7L0 368C0 376.8 7.2 384 16 384C24.8 384 32 376.8 32 368L32 304.7C32 292.8 36.5 281.2 44.5 272.4L75 238.9zM100.8 463C98.8 468.9 95.7 474.3 91.7 479.1L3.9 581.6C-1.9 588.3-1.1 598.4 5.6 604.2C12.3 610 22.4 609.2 28.2 602.5L116 499.9C122.7 492 127.9 483 131.2 473.1L135.8 459.3L106.9 444.8L100.9 462.9zM364.7 404.6C358.5 410.8 358.5 421 364.7 427.2L436.7 499.2C442.9 505.4 453.1 505.4 459.3 499.2C465.5 493 465.5 482.8 459.3 476.6L414.6 432L544 432C597 432 640 389 640 336C640 283 597 240 544 240L432 240C423.2 240 416 247.2 416 256C416 264.8 423.2 272 432 272L544 272C579.3 272 608 300.7 608 336C608 371.3 579.3 400 544 400L414.6 400L459.3 355.3C465.5 349.1 465.5 338.9 459.3 332.7C453.1 326.5 442.9 326.5 436.7 332.7L364.7 404.7z"/></svg>