<svg xmlns="http://www.w3.org/2000/svg" viewBox="0 0 640 640"><!--! Font Awesome Pro 7.1.0 by @fontawesome - https://fontawesome.com License - https://fontawesome.com/license (Commercial License) Copyright 2025 Fonticons, Inc. --><path fill="currentColor" d="M352 128C352 110.3 337.7 96 320 96C302.3 96 288 110.3 288 128C288 145.7 302.3 160 320 160C337.7 160 352 145.7 352 128zM256 128C256 92.7 284.7 64 320 64C355.3 64 384 92.7 384 128C384 163.3 355.3 192 320 192C284.7 192 256 163.3 256 128zM288 256C270.3 256 256 270.3 256 288L256 352C256 369.7 270.3 384 288 384L352 384C369.7 384 384 369.7 384 352L384 288C384 270.3 369.7 256 352 256L288 256zM224 288C224 252.7 252.7 224 288 224L352 224C387.3 224 416 252.7 416 288L416 352C416 375.7 403.1 396.4 384 407.4L384 560C384 568.8 376.8 576 368 576C359.2 576 352 568.8 352 560L352 416L288 416L288 560C288 568.8 280.8 576 272 576C263.2 576 256 568.8 256 560L256 407.4C236.9 396.4 224 375.7 224 352L224 288z"/></svg>