<svg xmlns="http://www.w3.org/2000/svg" viewBox="0 0 640 640"><!--! Font Awesome Pro 7.1.0 by @fontawesome - https://fontawesome.com License - https://fontawesome.com/license (Commercial License) Copyright 2025 Fonticons, Inc. --><path fill="currentColor" d="M156.9 96.3C165.6 94.6 174 100.2 175.7 108.9L182.6 143.4C195.7 208.9 253.2 256 320 256C386.8 256 444.3 208.9 457.4 143.4L464.3 108.9C466 100.2 474.5 94.6 483.1 96.3C491.7 98 497.4 106.5 495.7 115.1L488.8 149.6C478.3 201.9 444.8 244.8 400 268.3L400 382.8C389 386.2 378.2 390.8 368 396.8L368 281.2C352.7 285.6 336.6 288 320 288C303.4 288 287.3 285.6 272 281.2L272 396.8C261.8 390.9 251 386.2 240 382.8L240 268.3C195.2 244.8 161.7 202 151.2 149.6L144.3 115.1C142.6 106.4 148.2 98 156.9 96.3zM320 176C333.3 176 344 165.3 344 152C344 138.7 333.3 128 320 128C306.7 128 296 138.7 296 152C296 165.3 306.7 176 320 176zM320 96C350.9 96 376 121.1 376 152C376 182.9 350.9 208 320 208C289.1 208 264 182.9 264 152C264 121.1 289.1 96 320 96zM402 469.9C376.4 488.2 349.1 504 320 504C290.9 504 263.6 488.2 238 469.9C212 451.3 176.9 451.3 150.9 469.9C126.2 487.5 96.3 503.6 64 503.4C44.7 503.3 25.4 497.4 6.8 484.1C-.4 479-2.1 469 3.1 461.8C8.3 454.6 18.2 452.9 25.4 458.1C38.8 467.7 51.8 471.4 64.2 471.4C86.2 471.5 109.2 460.4 132.4 443.9C169.5 417.4 219.5 417.4 256.7 443.9C282 462 302 472 320.2 472C338.4 472 358.3 461.9 383.7 443.9C420.8 417.4 470.8 417.4 508 443.9C526.2 456.9 544.5 466.7 562.4 470.1C579.6 473.4 597 470.9 615 458.1C622.2 453 632.2 454.6 637.3 461.8C642.4 469 640.8 479 633.6 484.1C608 502.3 581.6 506.3 556.4 501.5C531.9 496.8 509.2 484 489.4 469.9C463.4 451.3 428.3 451.3 402.3 469.9z"/></svg>