<svg xmlns="http://www.w3.org/2000/svg" viewBox="0 0 640 640"><!--! Font Awesome Pro 7.1.0 by @fontawesome - https://fontawesome.com License - https://fontawesome.com/license (Commercial License) Copyright 2025 Fonticons, Inc. --><path fill="currentColor" d="M192 112C205.3 112 216 101.3 216 88C216 74.7 205.3 64 192 64C178.7 64 168 74.7 168 88C168 101.3 178.7 112 192 112zM192 32C222.9 32 248 57.1 248 88C248 118.9 222.9 144 192 144C161.1 144 136 118.9 136 88C136 57.1 161.1 32 192 32zM144 213.9L144 328.5C144 346.7 154.3 363.3 170.5 371.4L208 390.1L208 213.3C198.1 209.8 187.6 208 176.8 208C165.5 208 154.4 210 144 213.9zM112 233.8C110.3 235.4 108.6 237.1 107 238.9L76.5 272.5C68.5 281.3 64 292.8 64 304.8L64 368C64 376.8 56.8 384 48 384C39.2 384 32 376.8 32 368L32 304.7C32 284.8 39.4 265.6 52.8 250.9L83.3 217.3C107.2 191 141.2 175.9 176.8 175.9C216.6 175.9 254 194.6 277.9 226.4L297.6 252.7C306.7 264.8 320.9 271.9 336 271.9L368 271.9C376.8 271.9 384 279.1 384 287.9C384 296.7 376.8 303.9 368 303.9L336 303.9C310.8 303.9 287.1 292 272 271.9L252.3 245.6C248.6 240.7 244.5 236.2 240 232.1L240 405.9L264 417.9C288.3 430 304.7 453.6 307.7 480.6L319.9 590C320.9 598.8 314.5 606.7 305.8 607.7C297.1 608.7 289.1 602.3 288.1 593.6L275.9 484.4C274.1 468.2 264.2 454.1 249.7 446.8L156.2 400C129.1 386.4 112 358.7 112 328.4L112 233.7zM138.8 445L167.7 459.5L163.1 473.3C159.8 483.1 154.7 492.2 147.9 500.1L60.1 602.4C54.3 609.1 44.2 609.9 37.5 604.1C30.8 598.3 30 588.2 35.8 581.5L123.7 479.1C127.7 474.4 130.8 468.9 132.8 463L138.8 444.9zM531.3 403.4C525.1 409.6 514.9 409.6 508.7 403.4C502.5 397.2 502.5 387 508.7 380.8L553.4 336L432 336C423.2 336 416 328.8 416 320C416 311.2 423.2 304 432 304L553.4 304L508.7 259.3C502.5 253.1 502.5 242.9 508.7 236.7C514.9 230.5 525.1 230.5 531.3 236.7L603.3 308.7C609.5 314.9 609.5 325.1 603.3 331.3L531.3 403.3z"/></svg>