<svg xmlns="http://www.w3.org/2000/svg" viewBox="0 0 640 640"><!--! Font Awesome Pro 7.1.0 by @fontawesome - https://fontawesome.com License - https://fontawesome.com/license (Commercial License) Copyright 2025 Fonticons, Inc. --><path fill="currentColor" d="M184.5 88C184.5 74.7 195.2 64 208.5 64C221.8 64 232.5 74.7 232.5 88C232.5 101.3 221.8 112 208.5 112C195.2 112 184.5 101.3 184.5 88zM264.5 88C264.5 57.1 239.4 32 208.5 32C177.6 32 152.5 57.1 152.5 88C152.5 118.9 177.6 144 208.5 144C239.4 144 264.5 118.9 264.5 88zM128.5 259.2L128.5 592C128.5 600.8 135.7 608 144.5 608C153.3 608 160.5 600.8 160.5 592L160.5 432L256.5 432L256.5 592C256.5 600.8 263.7 608 272.5 608C281.3 608 288.5 600.8 288.5 592L288.5 263.2L291.3 267C303.7 284.1 320.7 297.3 340.3 305.1L394.6 326.8C396.3 327.5 398 327.8 399.7 327.9L385 368.2C382 376.5 386.3 385.7 394.6 388.7C402.9 391.7 412.1 387.4 415.1 379.1L459.7 256.5L527.8 281.3C540.3 285.8 554 279.4 558.6 267L596.9 161.7C601.4 149.2 595 135.5 582.6 130.9L514.5 106.1L519.1 93.4C522.1 85.1 517.8 75.9 509.5 72.9C501.2 69.9 492 74.2 489 82.5L484.4 95.2L417.2 70.7C404.7 66.2 391 72.6 386.4 85L348.1 190.3C343.6 202.8 350 216.5 362.4 221.1L429.6 245.6L410.1 299.3C409 298.5 407.8 297.8 406.4 297.2L352.1 275.5C338.1 269.9 326 260.5 317.1 248.3L298.2 222.3C277.1 193.3 243.4 176.1 207.5 176.1C172.9 176.1 140.2 192.1 119 219.4L35.9 326.2C30.5 333.2 31.7 343.2 38.7 348.7C45.7 354.2 55.7 352.9 61.2 345.9L128.6 259.3zM160.5 223.2C174 213.4 190.5 207.9 207.5 207.9C225.4 207.9 242.6 213.9 256.5 224.6L256.5 399.9L160.5 399.9L160.5 223.2zM380.9 193.7L413.7 103.5L564.1 158.2L531.3 248.4L381 193.7z"/></svg>