<svg xmlns="http://www.w3.org/2000/svg" viewBox="0 0 640 640"><!--! Font Awesome Pro 7.1.0 by @fontawesome - https://fontawesome.com License - https://fontawesome.com/license (Commercial License) Copyright 2025 Fonticons, Inc. --><path fill="currentColor" d="M480 48C480 39.2 472.8 32 464 32C455.2 32 448 39.2 448 48L448 91C448 128.5 422 161 385.4 169.1L285.7 191.3C255.1 198.1 228.8 217.4 213.1 244.5L146.2 360C141.8 367.6 144.4 377.4 152 381.9C159.6 386.4 169.4 383.7 173.9 376.1L240 261.8L240 592C240 600.8 247.2 608 256 608C264.8 608 272 600.8 272 592L272 432L368 432L368 592C368 600.8 375.2 608 384 608C392.8 608 400 600.8 400 592L400 198.3C447.2 184.3 480 140.8 480 91L480 48zM368 400L272 400L272 230.2C278.4 226.7 285.4 224.1 292.6 222.5L368 205.7L368 400zM296 88C296 74.7 306.7 64 320 64C333.3 64 344 74.7 344 88C344 101.3 333.3 112 320 112C306.7 112 296 101.3 296 88zM376 88C376 57.1 350.9 32 320 32C289.1 32 264 57.1 264 88C264 118.9 289.1 144 320 144C350.9 144 376 118.9 376 88z"/></svg>