<svg xmlns="http://www.w3.org/2000/svg" viewBox="0 0 640 640"><!--! Font Awesome Pro 7.1.0 by @fontawesome - https://fontawesome.com License - https://fontawesome.com/license (Commercial License) Copyright 2025 Fonticons, Inc. --><path fill="currentColor" d="M48 96C39.2 96 32 103.2 32 112L32 464C32 472.8 39.2 480 48 480L128 480L128 409.6C128 339 169.2 274.9 233.3 245.5C286.1 221.3 320 168.5 320 110.4L320 96L48 96zM352 110.4C352 174.2 318.4 232.7 264.6 265.1L328.2 352L392.7 352C402 352 410.9 356.1 417 363.2L508.2 469.6L517.1 480L592 480C600.8 480 608 472.8 608 464L608 112C608 103.2 600.8 96 592 96L352 96L352 110.4zM386.9 480L474.9 480L392.6 384L341.3 384L287.3 424.5L380.8 550.5C386.1 557.6 384.6 567.6 377.5 572.9C370.4 578.2 360.4 576.7 355.1 569.6L312.5 512L48 512C21.5 512 0 490.5 0 464L0 112C0 85.5 21.5 64 48 64L592 64C618.5 64 640 85.5 640 112L640 464C640 490.5 618.5 512 592 512L410.3 512L386.8 480zM268.3 398.8L303.4 372.5L235.8 280.1C222.6 287.5 210.7 296.8 200.6 307.6L268.3 398.8zM180.5 334.2C167.3 356.6 159.9 382.5 159.9 409.6L159.9 480L288.6 480L180.4 334.2zM168 200C168 186.7 157.3 176 144 176C130.7 176 120 186.7 120 200C120 213.3 130.7 224 144 224C157.3 224 168 213.3 168 200zM88 200C88 169.1 113.1 144 144 144C174.9 144 200 169.1 200 200C200 230.9 174.9 256 144 256C113.1 256 88 230.9 88 200z"/></svg>