<svg xmlns="http://www.w3.org/2000/svg" viewBox="0 0 640 640"><!--! Font Awesome Pro 7.1.0 by @fontawesome - https://fontawesome.com License - https://fontawesome.com/license (Commercial License) Copyright 2025 Fonticons, Inc. --><path fill="currentColor" d="M272 96C298.5 96 320 117.5 320 144C320 170.5 298.5 192 272 192C245.5 192 224 170.5 224 144C224 117.5 245.5 96 272 96zM272 224C316.2 224 352 188.2 352 144C352 99.8 316.2 64 272 64C227.8 64 192 99.8 192 144C192 188.2 227.8 224 272 224zM208 300C225.1 292.3 244 288 264 288C290.4 288 315.1 295.5 336 308.6L336 272.2C314.2 261.8 289.8 256 264 256C171.2 256 96 331.2 96 424L96 496C96 504.8 103.2 512 112 512C120.8 512 128 504.8 128 496L128 424C128 382.4 146.6 345.2 176 320.3L176 560C176 568.8 183.2 576 192 576C200.8 576 208 568.8 208 560L208 300zM448 64C439.2 64 432 71.2 432 80C432 88.8 439.2 96 448 96L448 192C430.3 192 416 206.3 416 224L416 256C389.5 256 368 277.5 368 304L368 416C368 442.5 389.5 464 416 464L416 544C416 561.7 430.3 576 448 576L514.2 576C535.8 576 551.2 555.1 544.7 534.5L517.7 448L559.9 448C568.7 448 575.9 440.8 575.9 432C575.9 423.2 568.7 416 559.9 416L511.9 416L511.9 380.5L563.8 367.5C570.9 365.7 575.9 359.3 575.9 352L575.9 272C575.9 263.2 568.7 256 559.9 256C551.1 256 543.9 263.2 543.9 272L543.9 339.5L511.9 347.5L511.9 224C511.9 206.3 497.6 192 479.9 192L479.9 80C479.9 71.2 472.7 64 463.9 64L448 64zM448 224L480 224L480 432C480 433.6 480.2 435.2 480.7 436.8L514.2 544L448 544L448 448C448 439.2 440.8 432 432 432L416 432C407.2 432 400 424.8 400 416L400 304C400 295.2 407.2 288 416 288L432 288C440.8 288 448 280.8 448 272L448 224z"/></svg>