<svg xmlns="http://www.w3.org/2000/svg" viewBox="0 0 640 640"><!--! Font Awesome Pro 7.1.0 by @fontawesome - https://fontawesome.com License - https://fontawesome.com/license (Commercial License) Copyright 2025 Fonticons, Inc. --><path fill="currentColor" d="M384 64C397.3 64 408 74.7 408 88C408 101.3 397.3 112 384 112C370.7 112 360 101.3 360 88C360 74.7 370.7 64 384 64zM384 144C414.9 144 440 118.9 440 88C440 57.1 414.9 32 384 32C353.1 32 328 57.1 328 88C328 118.9 353.1 144 384 144zM304 233.8L304 328.5C304 358.8 321.1 386.5 348.2 400.1L441.7 446.8C456.3 454.1 466.1 468.2 467.9 484.4L480.1 593.8C481.1 602.6 489 608.9 497.8 607.9C506.6 606.9 512.9 599 511.9 590.2L499.8 480.8C496.8 453.8 480.3 430.2 456.1 418.1L432.1 406.1L432.1 232.3C436.6 236.3 440.7 240.8 444.4 245.8L464 272C479.1 292.1 502.8 304 528 304L560 304C568.8 304 576 296.8 576 288C576 279.2 568.8 272 560 272L528 272C512.9 272 498.7 264.9 489.6 252.8L469.9 226.5C446 194.7 408.6 176 368.8 176C333.2 176 299.2 191 275.3 217.4L244.8 251C231.4 265.7 224 284.9 224 304.8L224 404.3L208.8 434.6L157.4 408.9C141.6 401 122.4 407.4 114.5 423.2L56.9 538.5C49 554.3 55.4 573.5 71.2 581.4L122.6 607.1C138.4 615 157.6 608.6 165.5 592.8L254.3 415.1C255.4 412.9 256 410.4 256 407.9L256 304.6C256 292.7 260.5 281.1 268.5 272.3L299 238.9C300.6 237.1 302.3 235.4 304 233.8zM336 213.9C346.4 210 357.5 208 368.8 208C379.6 208 390.1 209.8 400 213.3L400 390.1L362.5 371.4C346.2 363.3 336 346.6 336 328.5L336 213.9zM324.8 463C322.8 468.9 319.7 474.3 315.7 479.1L227.9 581.6C222.1 588.3 222.9 598.4 229.6 604.2C236.3 610 246.4 609.2 252.2 602.5L340 499.9C346.7 492 351.9 483 355.2 473.1L359.8 459.3L330.9 444.8L324.9 462.9zM143.2 437.5L194.6 463.2L136.9 578.6L85.5 552.9L143.2 437.5z"/></svg>