<svg xmlns="http://www.w3.org/2000/svg" viewBox="0 0 640 640"><!--! Font Awesome Pro 7.1.0 by @fontawesome - https://fontawesome.com License - https://fontawesome.com/license (Commercial License) Copyright 2025 Fonticons, Inc. --><path fill="currentColor" d="M192 64C205.3 64 216 74.7 216 88C216 101.3 205.3 112 192 112C178.7 112 168 101.3 168 88C168 74.7 178.7 64 192 64zM192 144C222.9 144 248 118.9 248 88C248 57.1 222.9 32 192 32C161.1 32 136 57.1 136 88C136 118.9 161.1 144 192 144zM192.5 176C156.9 176 128 204.9 128 240.5L128 336C128 361.2 139.9 384.9 160 400L236.8 457.6C248.9 466.7 256 480.9 256 496L256 592C256 600.8 263.2 608 272 608C280.8 608 288 600.8 288 592L288 496C288 470.8 276.1 447.1 256 432L256 303.4L256.5 304.5C269.3 333.4 298 352 329.6 352L464 352C490.5 352 512 330.5 512 304L512 208C512 181.5 490.5 160 464 160L368 160C341.5 160 320 181.5 320 208L320 304C320 309.4 320.9 314.6 322.6 319.5C306.5 317.1 292.5 306.7 285.8 291.5L251.5 214.3C241.1 191 218 176 192.5 176zM368 320C359.2 320 352 312.8 352 304L352 208C352 199.2 359.2 192 368 192L464 192C472.8 192 480 199.2 480 208L480 304C480 312.8 472.8 320 464 320L368 320zM128 592C128 600.8 135.2 608 144 608C152.8 608 160 600.8 160 592L160 460L131.2 438.4C130.1 437.6 129.1 436.8 128 435.9L128 592zM224 240L224 408L179.2 374.4C167.1 365.3 160 351.1 160 336L160 240C160 222.3 174.3 208 192 208C209.7 208 224 222.3 224 240z"/></svg>