<svg xmlns="http://www.w3.org/2000/svg" viewBox="0 0 640 640"><!--! Font Awesome Pro 7.1.0 by @fontawesome - https://fontawesome.com License - https://fontawesome.com/license (Commercial License) Copyright 2025 Fonticons, Inc. --><path fill="currentColor" d="M520 184C520 170.7 509.3 160 496 160C482.7 160 472 170.7 472 184C472 197.3 482.7 208 496 208C509.3 208 520 197.3 520 184zM440 184C440 153.1 465.1 128 496 128C526.9 128 552 153.1 552 184C552 214.9 526.9 240 496 240C465.1 240 440 214.9 440 184zM454.2 312.2C443.1 311.6 431.9 312.2 420.9 313.9C410.7 287.4 393.9 263.7 371.6 245.1C365 239.6 358 234.6 350.6 230.2L245.3 320.6C232.4 316.1 219.1 313.4 205.6 312.4L318.8 215.4C316 214.4 313.1 213.5 310.3 212.7L264.1 199.5C250.6 195.6 236 197.9 224.3 205.7L152.9 253.3C145.5 258.2 135.6 256.2 130.7 248.9C125.8 241.6 127.8 231.6 135.1 226.7L206.5 179.1C226 166.1 250.3 162.3 272.9 168.7L319 181.9C345.8 189.5 370.7 202.7 392 220.5C421.2 244.9 442.6 276.8 454.1 312.2zM489.1 405.9C463.1 387.3 428 387.3 402 405.9C376.4 424.2 349.1 440 320 440C290.9 440 263.6 424.2 238 405.9C212 387.3 176.9 387.3 150.9 405.9C126.2 423.5 96.3 439.6 64 439.4C44.7 439.3 25.4 433.4 6.8 420.1C-.4 415-2.1 405 3.1 397.8C8.3 390.6 18.2 388.9 25.4 394.1C38.8 403.7 51.8 407.4 64.2 407.4C86.2 407.5 109.2 396.4 132.4 379.9C169.5 353.4 219.5 353.4 256.7 379.9C282 398 302 408 320.2 408C338.4 408 358.3 397.9 383.7 379.9C420.8 353.4 470.8 353.4 508 379.9C526.2 392.9 544.5 402.7 562.4 406.1C579.6 409.4 597 406.9 615 394.1C622.2 389 632.2 390.6 637.3 397.8C642.4 405 640.8 415 633.6 420.1C608 438.3 581.6 442.3 556.4 437.5C531.9 432.8 509.2 420 489.4 405.9zM32 488C45.3 488 56 498.7 56 512C56 525.3 45.3 536 32 536C18.7 536 8 525.3 8 512C8 498.7 18.7 488 32 488zM176 488C189.3 488 200 498.7 200 512C200 525.3 189.3 536 176 536C162.7 536 152 525.3 152 512C152 498.7 162.7 488 176 488zM440 512C440 498.7 450.7 488 464 488C477.3 488 488 498.7 488 512C488 525.3 477.3 536 464 536C450.7 536 440 525.3 440 512zM608 488C621.3 488 632 498.7 632 512C632 525.3 621.3 536 608 536C594.7 536 584 525.3 584 512C584 498.7 594.7 488 608 488zM296 512C296 498.7 306.7 488 320 488C333.3 488 344 498.7 344 512C344 525.3 333.3 536 320 536C306.7 536 296 525.3 296 512z"/></svg>