<svg xmlns="http://www.w3.org/2000/svg" viewBox="0 0 640 640"><!--! Font Awesome Pro 7.1.0 by @fontawesome - https://fontawesome.com License - https://fontawesome.com/license (Commercial License) Copyright 2025 Fonticons, Inc. --><path fill="currentColor" d="M224 112C237.3 112 248 101.3 248 88C248 74.7 237.3 64 224 64C210.7 64 200 74.7 200 88C200 101.3 210.7 112 224 112zM224 32C254.9 32 280 57.1 280 88C280 118.9 254.9 144 224 144C193.1 144 168 118.9 168 88C168 57.1 193.1 32 224 32zM144 250.1C142.9 251.7 141.8 253.4 140.8 255.1L77.7 360.2C73.2 367.8 63.3 370.2 55.7 365.7C48.1 361.2 45.7 351.3 50.2 343.8L113.4 238.6C136.7 199.8 178.7 176 224 176C269.3 176 311.3 199.8 334.6 238.6L397.7 343.7C402.2 351.3 399.8 361.1 392.2 365.6C384.6 370.1 374.8 367.7 370.2 360.1L307.2 255.1C306.2 253.4 305.1 251.7 304 250.1L304 576L592 576C600.8 576 608 583.2 608 592C608 600.8 600.8 608 592 608L48 608C39.2 608 32 600.8 32 592C32 583.2 39.2 576 48 576L144 576L144 250.1zM176 576L272 576L272 432L176 432L176 576zM272 220.7C257.6 212.5 241.1 208 224 208C206.9 208 190.4 212.5 176 220.7L176 400L272 400L272 220.7zM587.3 164.7C593.5 170.9 593.5 181.1 587.3 187.3L507.3 267.3C501.1 273.5 490.9 273.5 484.7 267.3L404.7 187.3C398.5 181.1 398.5 170.9 404.7 164.7C410.9 158.5 421.1 158.5 427.3 164.7L480 217.4L480 48C480 39.2 487.2 32 496 32C504.8 32 512 39.2 512 48L512 217.4L564.7 164.7C570.9 158.5 581.1 158.5 587.3 164.7z"/></svg>