<svg xmlns="http://www.w3.org/2000/svg" viewBox="0 0 640 640"><!--! Font Awesome Pro 7.1.0 by @fontawesome - https://fontawesome.com License - https://fontawesome.com/license (Commercial License) Copyright 2025 Fonticons, Inc. --><path fill="currentColor" d="M288 64C301.3 64 312 74.7 312 88C312 101.3 301.3 112 288 112C274.7 112 264 101.3 264 88C264 74.7 274.7 64 288 64zM288 144C318.9 144 344 118.9 344 88C344 57.1 318.9 32 288 32C257.1 32 232 57.1 232 88C232 118.9 257.1 144 288 144zM132.3 222.5C136.1 213.7 144.8 208 154.4 208L202.4 208L164.3 333.1C155.3 362.7 172 394 201.6 403L330 442L273.4 569.5C269.8 577.6 273.4 587 281.5 590.6C289.6 594.2 299 590.6 302.6 582.5L359.3 455C367.1 437.4 357.8 417 339.4 411.4L273.2 391.2L311.7 274.9L320.9 293.4C329 309.7 345.7 319.9 363.8 319.9L432 319.9C440.8 319.9 448 312.7 448 303.9C448 295.1 440.8 287.9 432 287.9L363.8 287.9C357.7 287.9 352.2 284.5 349.5 279.1L320 220.2C306.4 193.1 278.7 176 248.4 176L154.3 176C131.9 176 111.7 189.4 102.8 209.9L65.3 297.7C61.8 305.8 65.6 315.2 73.7 318.7C81.8 322.2 91.2 318.4 94.7 310.3L132.3 222.5zM195 342.4L235.9 208L248.5 208C266.6 208 283.2 218.2 291.4 234.4L242.5 381.9L210.9 372.3C198.2 368.4 191.1 355 194.9 342.4zM142.3 459.7C139.7 467.1 135.3 473.7 129.5 479L37.2 563.3C30.7 569.3 30.2 579.4 36.2 585.9C42.2 592.4 52.3 592.9 58.8 586.9L151.1 502.5C160.7 493.7 168 482.7 172.4 470.4L180.9 446.6C170.5 442.6 161 437.1 152.7 430.5L142.3 459.7zM454.6 113.7C468.5 72.5 484.8 64 496 64C507.2 64 523.5 72.5 537.4 113.7C551 154 560 220 560 320C560 420 551 486 537.4 526.3C523.5 567.5 507.2 576 496 576C484.8 576 468.5 567.5 454.6 526.3C443.3 492.8 435.2 441.6 432.8 368L400.8 368C403.2 443.8 411.6 498.8 424.3 536.6C439.3 581.1 463.1 608 496 608C528.9 608 552.7 581.1 567.7 536.6C583 491.3 592 421.2 592 320C592 218.8 583 148.8 567.7 103.4C552.7 58.9 528.9 32 496 32C463.1 32 439.3 58.9 424.3 103.4C413.4 135.6 405.7 180.4 402.2 240L434.3 240C437.8 183.2 445 142.1 454.7 113.7z"/></svg>