<svg xmlns="http://www.w3.org/2000/svg" viewBox="0 0 640 640"><!--! Font Awesome Pro 7.1.0 by @fontawesome - https://fontawesome.com License - https://fontawesome.com/license (Commercial License) Copyright 2025 Fonticons, Inc. --><path fill="currentColor" d="M320 112C333.3 112 344 101.3 344 88C344 74.7 333.3 64 320 64C306.7 64 296 74.7 296 88C296 101.3 306.7 112 320 112zM320 32C350.9 32 376 57.1 376 88C376 118.9 350.9 144 320 144C289.1 144 264 118.9 264 88C264 57.1 289.1 32 320 32zM240 250.1C238.9 251.7 237.8 253.4 236.8 255.1L173.7 360.2C169.2 367.8 159.3 370.2 151.7 365.7C144.1 361.2 141.7 351.3 146.2 343.8L209.3 238.7C232.7 199.8 274.7 176 320 176C365.3 176 407.3 199.8 430.6 238.6L493.7 343.7C498.2 351.3 495.8 361.1 488.2 365.6C480.6 370.1 470.8 367.7 466.2 360.1L403.2 255.1C402.2 253.4 401.1 251.7 400 250.1L400 592C400 600.8 392.8 608 384 608C375.2 608 368 600.8 368 592L368 432L272 432L272 592C272 600.8 264.8 608 256 608C247.2 608 240 600.8 240 592L240 250.1zM368 220.7C353.6 212.5 337.1 208 320 208C302.9 208 286.4 212.5 272 220.7L272 400L368 400L368 220.7zM68.7 68.7C74.9 62.5 85.1 62.5 91.3 68.7L187.3 164.7C193.5 170.9 193.5 181.1 187.3 187.3C181.1 193.5 170.9 193.5 164.7 187.3L68.7 91.3C62.5 85.1 62.5 74.9 68.7 68.7zM571.3 68.7C577.5 74.9 577.5 85.1 571.3 91.3L475.3 187.3C469.1 193.5 458.9 193.5 452.7 187.3C446.5 181.1 446.5 170.9 452.7 164.7L548.7 68.7C554.9 62.5 565.1 62.5 571.3 68.7zM91.3 571.3C85.1 577.5 74.9 577.5 68.7 571.3C62.5 565.1 62.5 554.9 68.7 548.7L164.7 452.7C170.9 446.5 181.1 446.5 187.3 452.7C193.5 458.9 193.5 469.1 187.3 475.3L91.3 571.3zM571.3 571.3C565.1 577.5 554.9 577.5 548.7 571.3L452.7 475.3C446.5 469.1 446.5 458.9 452.7 452.7C458.9 446.5 469.1 446.5 475.3 452.7L571.3 548.7C577.5 554.9 577.5 565.1 571.3 571.3z"/></svg>