<svg xmlns="http://www.w3.org/2000/svg" viewBox="0 0 640 640"><!--! Font Awesome Pro 7.1.0 by @fontawesome - https://fontawesome.com License - https://fontawesome.com/license (Commercial License) Copyright 2025 Fonticons, Inc. --><path fill="currentColor" d="M200 88C200 74.7 210.7 64 224 64C237.3 64 248 74.7 248 88C248 101.3 237.3 112 224 112C210.7 112 200 101.3 200 88zM280 88C280 57.1 254.9 32 224 32C193.1 32 168 57.1 168 88C168 118.9 193.1 144 224 144C254.9 144 280 118.9 280 88zM140.8 255.1C141.8 253.4 142.9 251.7 144 250.1L144 592C144 600.8 151.2 608 160 608C168.8 608 176 600.8 176 592L176 432L272 432L272 592C272 600.8 279.2 608 288 608C296.8 608 304 600.8 304 592L304 250.1C305.1 251.7 306.2 253.4 307.2 255.1L354.6 334.1C362 326.1 370 318.7 378.7 312L334.7 238.6C311.3 199.8 269.3 176 224 176C178.7 176 136.7 199.8 113.4 238.6L50.3 343.8C45.8 351.4 48.2 361.2 55.8 365.7C63.4 370.2 73.2 367.8 77.8 360.2L140.9 255.1zM272 400L176 400L176 220.7C190.4 212.5 206.9 208 224 208C241.1 208 257.6 212.5 272 220.7L272 400zM384 464C384 402.1 434.1 352 496 352C557.9 352 608 402.1 608 464C608 525.9 557.9 576 496 576C434.1 576 384 525.9 384 464zM640 464C640 384.5 575.5 320 496 320C416.5 320 352 384.5 352 464C352 543.5 416.5 608 496 608C575.5 608 640 543.5 640 464zM512 400C512 391.2 504.8 384 496 384C487.2 384 480 391.2 480 400L480 448L432 448C423.2 448 416 455.2 416 464C416 472.8 423.2 480 432 480L480 480L480 528C480 536.8 487.2 544 496 544C504.8 544 512 536.8 512 528L512 480L560 480C568.8 480 576 472.8 576 464C576 455.2 568.8 448 560 448L512 448L512 400z"/></svg>