<svg xmlns="http://www.w3.org/2000/svg" viewBox="0 0 640 640"><!--! Font Awesome Pro 7.1.0 by @fontawesome - https://fontawesome.com License - https://fontawesome.com/license (Commercial License) Copyright 2025 Fonticons, Inc. --><path fill="currentColor" d="M328.2 66.3C323.1 63.3 316.8 63.3 311.7 66.3L71.7 210.3C66.9 213.2 64 218.4 64 224L64 560C64 568.8 71.2 576 80 576C88.8 576 96 568.8 96 560L96 233.1L320 98.7L544 233.1L544 560C544 568.8 551.2 576 560 576C568.8 576 576 568.8 576 560L576 224C576 218.4 573.1 213.2 568.2 210.3L328.2 66.3zM304 232C304 223.2 311.2 216 320 216C328.8 216 336 223.2 336 232C336 240.8 328.8 248 320 248C311.2 248 304 240.8 304 232zM368 232C368 205.5 346.5 184 320 184C293.5 184 272 205.5 272 232C272 258.5 293.5 280 320 280C346.5 280 368 258.5 368 232zM264 356.1L264 560C264 568.8 271.2 576 280 576C288.8 576 296 568.8 296 560L296 464L344 464L344 560C344 568.8 351.2 576 360 576C368.8 576 376 568.8 376 560L376 356.1C377.2 357.8 378.4 359.5 379.5 361.3L418.3 424.4C422.9 431.9 432.8 434.3 440.3 429.6C447.8 424.9 450.2 415.1 445.5 407.6L406.7 344.5C388.2 314.4 355.4 296 320 296C284.6 296 251.8 314.4 233.2 344.5L194.4 407.6C189.8 415.1 192.1 425 199.6 429.6C207.1 434.2 217 431.9 221.6 424.4L260.4 361.3C261.5 359.5 262.7 357.8 263.9 356.1zM296 432L296 332.2C303.6 329.4 311.7 328 320 328C328.3 328 336.4 329.5 344 332.2L344 432L296 432z"/></svg>