<svg xmlns="http://www.w3.org/2000/svg" viewBox="0 0 640 640"><!--! Font Awesome Pro 7.1.0 by @fontawesome - https://fontawesome.com License - https://fontawesome.com/license (Commercial License) Copyright 2025 Fonticons, Inc. --><path fill="currentColor" d="M480 136C480 122.7 469.3 112 456 112C442.7 112 432 122.7 432 136C432 149.3 442.7 160 456 160C469.3 160 480 149.3 480 136zM400 136C400 105.1 425.1 80 456 80C486.9 80 512 105.1 512 136C512 166.9 486.9 192 456 192C425.1 192 400 166.9 400 136zM210.9 118.8C216 111.6 226 109.9 233.2 115L505.2 307C512.4 312.1 514.1 322.1 509 329.3C503.9 336.5 493.9 338.2 486.7 333.1L412.1 280.4L324 355.9L344.9 373.3C359.5 385.5 367.9 403.5 367.9 422.5L367.9 515.4L459.9 533.4C467.3 534.9 475 534.5 482.3 532.4L523.5 520.6C532 518.2 540.9 523.1 543.3 531.6C545.7 540.1 540.8 549 532.3 551.4L491.1 563.2C479 566.7 466.2 567.2 453.8 564.8L120.1 499.4C104.5 496.3 90.1 488.7 78.9 477.5L52.7 451.3C46.5 445.1 46.5 434.9 52.7 428.7C58.9 422.5 69.1 422.5 75.3 428.7L101.5 454.9C108.2 461.6 116.9 466.2 126.2 468.1L208 484.1L208 349.1C208 326 218 304.1 235.3 288.9L319.6 215.1L214.8 141.1C207.6 136 205.9 126 211 118.8zM240 490.3L336 509.1L336 422.5C336 413 331.8 404 324.5 397.9L245.8 332.3C245.1 331.7 244.4 331 243.8 330.4C241.3 336.2 240 342.6 240 349.1L240 490.4zM385.2 261.3L346.5 234L264.1 306.1C264.8 306.5 265.6 307 266.3 307.6L299.2 335L385.2 261.2z"/></svg>