<svg xmlns="http://www.w3.org/2000/svg" viewBox="0 0 640 640"><!--! Font Awesome Pro 7.1.0 by @fontawesome - https://fontawesome.com License - https://fontawesome.com/license (Commercial License) Copyright 2025 Fonticons, Inc. --><path fill="currentColor" d="M240 97.1L240 110.8L152 110.8L152 108.9L240 97.2zM244.8 64.2L140.8 78.1C128.9 79.6 120 89.8 120 101.8L120 118.7C120 132 130.7 142.7 144 142.7L248 142.7C261.3 142.7 272 132 272 118.7L272 88C272 73.5 259.2 62.3 244.8 64.2zM416 160.6C416 142.9 430.3 128.6 448 128.6C465.7 128.6 480 142.9 480 160.6C480 178.3 465.7 192.6 448 192.6C430.3 192.6 416 178.3 416 160.6zM512 160.6C512 125.3 483.3 96.6 448 96.6C412.7 96.6 384 125.3 384 160.6C384 195.9 412.7 224.6 448 224.6C483.3 224.6 512 195.9 512 160.6zM384 320.5C384 302.8 398.3 288.5 416 288.5L480 288.5C497.7 288.5 512 302.8 512 320.5L512 352.3L384 352.3L384 320.5zM352 320.5L352 352.3C352 370 366.3 384.3 384 384.3L512 384.3C529.7 384.3 544 370 544 352.3L544 320.5C544 285.2 515.3 256.5 480 256.5L416 256.5C380.7 256.5 352 285.2 352 320.5zM180.5 288.5L224 288.5C241.7 288.5 256 302.8 256 320.5L256 333.7L180.5 288.5zM224.7 352.3L127.9 352.3L127.9 320.5C127.9 312.3 131 304.9 136 299.2L224.7 352.3zM160 256.5C124.7 256.5 96 285.2 96 320.5L96 352.3C96 370 110.3 384.3 128 384.3L256 384.3C273.7 384.3 288 370 288 352.3L288 320.5C288 285.2 259.3 256.5 224 256.5L160 256.5zM128 160.6C128 195.9 156.7 224.5 192 224.5C227.3 224.5 256 195.9 256 160.6L224 160.6C224 178.2 209.7 192.5 192 192.5C174.3 192.5 160 178.2 160 160.6L128 160.6zM210.6 420.2C204 414.3 193.9 414.9 188 421.5C182.1 428.1 182.7 438.2 189.3 444.1L229.8 480L79.9 480C71.1 480 63.9 487.2 63.9 496C63.9 504.8 71.1 512 79.9 512L229.8 512L189.3 547.9C182.7 553.8 182.1 563.9 188 570.5C193.9 577.1 204 577.7 210.6 571.8L282.6 507.9C286 504.9 288 500.5 288 495.9C288 491.3 286 487 282.6 483.9L210.6 420zM429.4 420.2L357.4 484.1C354 487.1 352 491.5 352 496.1C352 500.7 354 505 357.4 508.1L429.4 572C436 577.9 446.1 577.3 452 570.7C457.9 564.1 457.3 554 450.7 548.1L410.2 512.2L560.1 512.2C568.9 512.2 576.1 505 576.1 496.2C576.1 487.4 568.9 480.2 560.1 480.2L410.2 480.2L450.7 444.3C457.3 438.4 457.9 428.3 452 421.7C446.1 415.1 436 414.5 429.4 420.4z"/></svg>