<svg xmlns="http://www.w3.org/2000/svg" viewBox="0 0 640 640"><!--! Font Awesome Pro 7.1.0 by @fontawesome - https://fontawesome.com License - https://fontawesome.com/license (Commercial License) Copyright 2025 Fonticons, Inc. --><path fill="currentColor" d="M208 96.1C216.8 96.1 224 88.9 224 80.1L224 32.1C224 23.3 216.8 16.1 208 16.1C199.2 16.1 192 23.3 192 32.1L192 80.1C192 88.9 199.2 96.1 208 96.1zM16 208.1C16 216.9 23.2 224.1 32 224.1L80 224.1C88.8 224.1 96 216.9 96 208.1C96 199.3 88.8 192.1 80 192.1L32 192.1C23.2 192.1 16 199.3 16 208.1zM94.9 343.9L128.8 310C135 303.8 135 293.6 128.8 287.4C122.6 281.2 112.4 281.2 106.2 287.4L72.2 321.2C66 327.4 66 337.6 72.2 343.8C78.4 350 88.6 350 94.8 343.8zM72.2 72.3C66 78.6 66 88.7 72.2 95L106.1 128.9C112.3 135.1 122.5 135.1 128.7 128.9C134.9 122.7 134.9 112.5 128.7 106.3L94.9 72.3C88.7 66.1 78.5 66.1 72.3 72.3zM352 64C365.3 64 376 74.7 376 88C376 101.3 365.3 112 352 112C338.7 112 328 101.3 328 88C328 74.7 338.7 64 352 64zM352 144C382.9 144 408 118.9 408 88C408 57.1 382.9 32 352 32C321.1 32 296 57.1 296 88C296 118.9 321.1 144 352 144zM204.5 362L284.6 261.9L230.8 427C227.4 437.3 235.1 448 246 448L288 448L288 592C288 600.8 295.2 608 304 608C312.8 608 320 600.8 320 592L320 448L384 448L384 592C384 600.8 391.2 608 400 608C408.8 608 416 600.8 416 592L416 448L458 448C468.9 448 476.6 437.4 473.2 427L419.4 261.9L499.5 362C505 368.9 515.1 370 522 364.5C528.9 359 530 348.9 524.5 342L415.7 206C400.5 187 377.5 176 353.2 176L350.7 176C326.4 176 303.4 187 288.2 206L179.5 342C174 348.9 175.1 359 182 364.5C188.9 370 199 368.9 204.5 362zM268.1 416L330.1 225.5C333.2 216 342.1 209.6 352 209.6C361.9 209.6 370.9 216 373.9 225.5L435.9 416L268 416z"/></svg>