<svg xmlns="http://www.w3.org/2000/svg" viewBox="0 0 640 640"><!--! Font Awesome Pro 7.1.0 by @fontawesome - https://fontawesome.com License - https://fontawesome.com/license (Commercial License) Copyright 2025 Fonticons, Inc. --><path fill="currentColor" d="M288 112C301.3 112 312 101.3 312 88C312 74.7 301.3 64 288 64C274.7 64 264 74.7 264 88C264 101.3 274.7 112 288 112zM288 32C318.9 32 344 57.1 344 88C344 118.9 318.9 144 288 144C257.1 144 232 118.9 232 88C232 57.1 257.1 32 288 32zM288 208C274.7 208 264 218.7 264 232L264 336.4C264 351.4 271 365.4 282.8 374.5L312 396.8L312 232C312 218.7 301.3 208 288 208zM344 421.3L372.7 443.2C389.6 456.1 400.6 475.1 403.4 496.2L415.9 589.9C417.1 598.7 410.9 606.7 402.2 607.9C393.5 609.1 385.4 602.9 384.2 594.2L371.7 500.5C370 487.9 363.4 476.4 353.3 468.7L263.5 400C243.7 384.9 232.1 361.4 232.1 336.5L232 232C232 201.1 257.1 176 288 176C313.5 176 337.1 189.7 349.8 211.8L379.5 263.8C388 278.8 404 288 421.2 288L480.1 288L480.1 176C480.1 167.2 487.3 160 496.1 160C504.9 160 512.1 167.2 512.1 176L512.1 592C512.1 600.8 504.9 608 496.1 608C487.3 608 480.1 600.8 480.1 592L480.1 320L421.2 320C392.5 320 366 304.6 351.7 279.7L344 266.3L344 421.3zM229.2 475.7L239.8 438.5L266.5 461.4L259.9 484.5C256.2 497.6 249.2 509.5 239.5 519.1L155.3 603.3C149.1 609.5 138.9 609.5 132.7 603.3C126.5 597.1 126.5 586.9 132.7 580.7L217 496.4C222.8 490.6 227 483.5 229.2 475.6zM160 192C142.3 192 128 206.3 128 224L128 320L160 320L160 192zM96 224C96 188.7 124.7 160 160 160C177.7 160 192 174.3 192 192L192 320C192 337.7 177.7 352 160 352L128 352C110.3 352 96 337.7 96 320L96 224z"/></svg>