<svg xmlns="http://www.w3.org/2000/svg" viewBox="0 0 640 640"><!--! Font Awesome Pro 7.1.0 by @fontawesome - https://fontawesome.com License - https://fontawesome.com/license (Commercial License) Copyright 2025 Fonticons, Inc. --><path fill="currentColor" d="M558.1 64.5C566.6 66.7 571.8 75.5 569.6 84L445.6 564C443.4 572.5 434.6 577.7 426.1 575.5C417.5 573.3 412.4 564.6 414.6 556L538.6 76C540.8 67.4 549.5 62.3 558.1 64.5zM320 128C328.8 128 336 135.2 336 144C336 152.8 328.8 160 320 160L177.9 160C141.6 160 112 189.5 112 225.9C112 258.4 135.7 286 167.8 291L281.6 308.8C331.3 316.6 368 359.4 368 409.8C368 466.3 322.2 512 265.8 512L112 512C103.2 512 96 504.8 96 496C96 487.2 103.2 480 112 480L265.8 480C304.6 480 336 448.6 336 409.8C336 375.2 310.8 345.8 276.6 340.4L162.8 322.6C115.2 315.2 80 274.1 80 225.9C80 171.8 123.9 128 177.9 128L320 128z"/></svg>