<svg xmlns="http://www.w3.org/2000/svg" viewBox="0 0 640 640"><!--! Font Awesome Pro 7.1.0 by @fontawesome - https://fontawesome.com License - https://fontawesome.com/license (Commercial License) Copyright 2025 Fonticons, Inc. --><path fill="currentColor" d="M208 96C199.2 96 192 103.2 192 112L192 240L160 240C151.2 240 144 247.2 144 256C144 264.8 151.2 272 160 272L192 272L192 528C192 536.8 199.2 544 208 544C216.8 544 224 536.8 224 528L224 416L320 416C403 416 471.2 352.9 479.2 272L512 272C520.8 272 528 264.8 528 256C528 247.2 520.8 240 512 240L479.2 240C471.2 159.1 403 96 320 96L208 96zM447 240L224 240L224 128L320 128C385.3 128 439.1 176.9 447 240zM224 272L447 272C439.1 335.1 385.3 384 320 384L224 384L224 272z"/></svg>