<svg xmlns="http://www.w3.org/2000/svg" viewBox="0 0 640 640"><!--! Font Awesome Pro 7.1.0 by @fontawesome - https://fontawesome.com License - https://fontawesome.com/license (Commercial License) Copyright 2025 Fonticons, Inc. --><path fill="currentColor" d="M192 112C192 103.2 199.2 96 208 96L320 96C391.6 96 452.3 143.1 472.7 208L512 208C520.8 208 528 215.2 528 224C528 232.8 520.8 240 512 240L479.2 240C480.1 249 480.7 263.1 478.2 280L512 280C520.8 280 528 287.2 528 296C528 304.8 520.8 312 512 312L469.9 312C447.2 372.7 388.7 416 320 416L224 416L224 528C224 536.8 216.8 544 208 544C199.2 544 192 536.8 192 528L192 312L160 312C151.2 312 144 304.8 144 296C144 287.2 151.2 280 160 280L192 280L192 240L160 240C151.2 240 144 232.8 144 224C144 215.2 151.2 208 160 208L192 208L192 112zM224 312L224 384L320 384C370.6 384 414.4 354.6 435.1 312L224 312zM445.8 280C449 263.2 448.2 248.9 447.1 240L224.1 240L224.1 280L445.9 280zM320 128L224 128L224 208L438.7 208C419.7 161.1 373.7 128 320 128z"/></svg>