<svg xmlns="http://www.w3.org/2000/svg" viewBox="0 0 640 640"><!--! Font Awesome Pro 7.1.0 by @fontawesome - https://fontawesome.com License - https://fontawesome.com/license (Commercial License) Copyright 2025 Fonticons, Inc. --><path fill="currentColor" d="M112 128C103.2 128 96 135.2 96 144L96 496C96 504.8 103.2 512 112 512L176 512C184.8 512 192 504.8 192 496L192 144C192 135.2 184.8 128 176 128L112 128zM212.6 527C203.8 537.4 190.7 544 176 544L112 544C85.5 544 64 522.5 64 496L64 144C64 117.5 85.5 96 112 96L176 96C190.7 96 203.8 102.6 212.6 113C224 102.5 239.2 96 256 96L512 96C547.3 96 576 124.7 576 160L576 480C576 515.3 547.3 544 512 544L256 544C239.3 544 224 537.6 212.6 527zM224 480C224 497.7 238.3 512 256 512L512 512C529.7 512 544 497.7 544 480L544 160C544 142.3 529.7 128 512 128L256 128C238.3 128 224 142.3 224 160L224 480zM464 208L304 208L304 288L464 288L464 208zM304 176L464 176C481.7 176 496 190.3 496 208L496 288C496 305.7 481.7 320 464 320L304 320C286.3 320 272 305.7 272 288L272 208C272 190.3 286.3 176 304 176zM304 376C317.3 376 328 386.7 328 400C328 413.3 317.3 424 304 424C290.7 424 280 413.3 280 400C280 386.7 290.7 376 304 376zM360 400C360 386.7 370.7 376 384 376C397.3 376 408 386.7 408 400C408 413.3 397.3 424 384 424C370.7 424 360 413.3 360 400zM464 376C477.3 376 488 386.7 488 400C488 413.3 477.3 424 464 424C450.7 424 440 413.3 440 400C440 386.7 450.7 376 464 376z"/></svg>