<svg xmlns="http://www.w3.org/2000/svg" viewBox="0 0 640 640"><!--! Font Awesome Pro 7.1.0 by @fontawesome - https://fontawesome.com License - https://fontawesome.com/license (Commercial License) Copyright 2025 Fonticons, Inc. --><path fill="currentColor" d="M580.7 36.8C586.9 30.6 597.1 30.6 603.3 36.8C609.5 43 609.5 53.2 603.3 59.4L59.3 603.4C53.1 609.6 42.9 609.6 36.7 603.4C30.5 597.2 30.5 587 36.7 580.8L177 440.5C122.6 382.1 83.7 309 66.8 227.9C50.4 148.8 107.7 85.3 172.7 67.6L179.4 65.8C203.3 59.3 228.4 71.5 237.9 94.4L276.8 187.7C285.2 207.8 279.4 231.1 262.5 244.9L230.4 271.2C242.6 296.6 258.1 320.1 276.5 341.1L580.7 36.8zM253.7 363.7C230 336.8 210.4 306.2 196 272.9C193.2 266.3 195 258.7 200.6 254.2L242.2 220.1C248.1 215.3 250.2 207.1 247.2 200L208.3 106.7C204.9 98.7 196.1 94.4 187.7 96.6L181 98.4C127.9 113 86 163.1 98.2 221.4C113.7 296.3 149.6 363.8 199.6 417.8L253.7 363.7zM336.3 394.2C346 400.8 356.2 406.9 366.7 412.4L395.2 377.5C409 360.6 432.2 354.8 452.4 363.2L545.7 402.1C568.6 411.6 580.8 436.7 574.3 460.6L572.5 467.3C554.8 532.3 491.3 589.6 412.2 573.2C347.4 559.7 287.8 532.2 236.6 494L259.5 471.1C306.1 505.2 360.1 529.7 418.7 541.9C476.9 554 527.1 512.2 541.6 459L543.4 452.3C545.7 443.9 541.4 435.1 533.3 431.7L440 392.8C432.9 389.9 424.8 391.9 419.9 397.8L383.3 442.5C378.6 448.2 370.7 450 364.1 446.8C346.3 438.3 329.3 428.4 313.3 417.1L336.3 394.1z"/></svg>