<svg xmlns="http://www.w3.org/2000/svg" viewBox="0 0 640 640"><!--! Font Awesome Pro 7.1.0 by @fontawesome - https://fontawesome.com License - https://fontawesome.com/license (Commercial License) Copyright 2025 Fonticons, Inc. --><path fill="currentColor" d="M208.4 106.7C205 98.7 196.2 94.4 187.8 96.6L181.1 98.4C127.9 113 86.1 163.1 98.2 221.4C131.6 382 258.1 508.4 418.7 541.9C476.9 554 527.1 512.2 541.6 458.9L543.4 452.2C545.7 443.8 541.4 435 533.3 431.6L440 392.7C432.9 389.8 424.8 391.8 419.9 397.7L383.3 442.4C378.6 448.1 370.7 449.9 364.1 446.7C289.1 411.1 229.1 349.1 196 272.7C193.2 266.1 195 258.5 200.6 254L242.2 219.9C248.1 215.1 250.2 206.9 247.2 199.8L208.4 106.7zM179.4 65.8C203.3 59.3 228.4 71.5 237.9 94.4L276.8 187.7C285.2 207.8 279.4 231.1 262.5 244.9L230.4 271.2C259.4 331.7 307.5 381.4 366.7 412.5L395.2 377.6C409 360.7 432.2 354.9 452.4 363.3L545.7 402.2C568.6 411.7 580.8 436.8 574.3 460.7L572.5 467.4C554.8 532.3 491.2 589.6 412.2 573.2C239.1 537.2 102.9 401 66.9 227.9C50.4 148.8 107.7 85.3 172.7 67.6L179.4 65.8z"/></svg>