<svg xmlns="http://www.w3.org/2000/svg" viewBox="0 0 640 640"><!--! Font Awesome Pro 7.1.0 by @fontawesome - https://fontawesome.com License - https://fontawesome.com/license (Commercial License) Copyright 2025 Fonticons, Inc. --><path fill="currentColor" d="M537.7 453.5C560.6 462.9 587 453.9 599.3 432.4L602.7 426.4C636.1 367.9 631.7 282.5 564.2 238.2C416.3 141.3 223.7 141.3 75.9 238.2C8.3 282.5 4 367.9 37.4 426.4L40.8 432.4C53.1 453.9 79.5 463 102.4 453.5L195.9 415C216.1 406.7 228.4 386.2 226.2 364.5L221.7 319.7C285.6 299.8 354.7 301 418 323.2L413.9 364.5C411.7 386.2 424.1 406.7 444.2 415L537.7 453.5zM571.5 416.5C567.2 424.1 557.9 427.2 549.9 423.9L456.4 385.4C449.3 382.5 445 375.3 445.8 367.6L451.2 314.1C451.9 307 447.8 300.3 441.2 297.6C363.8 267 277.5 265.6 199.3 293.4C192.4 295.9 188 302.7 188.7 310.1L194.5 367.6C195.3 375.2 190.9 382.4 183.9 385.4L90.2 423.9C82.1 427.2 72.9 424 68.6 416.5L65.2 410.5C37.8 362.6 43.7 297.5 93.5 264.9C230.7 175 409.5 175 546.7 264.9C596.5 297.5 602.4 362.6 575 410.5L571.6 416.5z"/></svg>