<svg xmlns="http://www.w3.org/2000/svg" viewBox="0 0 640 640"><!--! Font Awesome Pro 7.1.0 by @fontawesome - https://fontawesome.com License - https://fontawesome.com/license (Commercial License) Copyright 2025 Fonticons, Inc. --><path fill="currentColor" d="M187.8 96.6C196.2 94.3 205 98.6 208.4 106.7L247.3 200C250.2 207.1 248.2 215.2 242.3 220.1L200.7 254.2C195.2 258.7 193.3 266.4 196.1 272.9C229.2 349.3 289.2 411.3 364.2 446.9C370.8 450.1 378.8 448.3 383.4 442.6L420 397.8C424.8 391.9 433 389.8 440.1 392.8L533.4 431.7C541.4 435.1 545.7 443.9 543.5 452.3L541.7 459C527.1 512.2 476.9 554 418.7 541.9C258.1 508.4 131.6 382 98.2 221.4C86.1 163.1 127.9 113 181.1 98.4L187.8 96.6zM237.9 94.3C228.4 71.5 203.3 59.2 179.4 65.7L172.7 67.5C107.7 85.2 50.4 148.7 66.8 227.8C102.8 400.9 239 537.1 412.1 573.1C491.2 589.6 554.7 532.2 572.4 467.2L574.2 460.5C580.7 436.6 568.5 411.5 545.6 402L452.3 363.1C432.2 354.7 408.9 360.5 395.1 377.4L366.6 412.3C307.3 381.2 259.3 331.5 230.3 271L262.4 244.7C279.3 230.9 285.1 207.7 276.7 187.5L237.9 94.4zM428.7 76.7C422.5 82.9 422.5 93.1 428.7 99.3L473.4 144L428.7 188.7C422.5 194.9 422.5 205.1 428.7 211.3C434.9 217.5 445.1 217.5 451.3 211.3L496 166.6L540.7 211.3C546.9 217.5 557.1 217.5 563.3 211.3C569.5 205.1 569.5 194.9 563.3 188.7L518.7 144L563.3 99.3C569.5 93.1 569.5 82.9 563.3 76.7C557.1 70.5 546.9 70.5 540.7 76.7L496 121.4L451.3 76.7C445.1 70.5 434.9 70.5 428.7 76.7z"/></svg>