<svg xmlns="http://www.w3.org/2000/svg" viewBox="0 0 640 640"><!--! Font Awesome Pro 7.1.0 by @fontawesome - https://fontawesome.com License - https://fontawesome.com/license (Commercial License) Copyright 2025 Fonticons, Inc. --><path fill="currentColor" d="M160 128C142.3 128 128 142.3 128 160L128 480C128 497.7 142.3 512 160 512L480 512C497.7 512 512 497.7 512 480L512 160C512 142.3 497.7 128 480 128L160 128zM96 160C96 124.7 124.7 96 160 96L480 96C515.3 96 544 124.7 544 160L544 480C544 515.3 515.3 544 480 544L160 544C124.7 544 96 515.3 96 480L96 160zM249.6 214.3L247.6 215.1C226.9 223.1 212.7 243.2 216.8 264.8C231.7 345.1 295 408.3 375.3 423.3C396.9 427.3 417 413.2 425 392.5L425.8 390.5C428.9 382.4 425 373.3 417 370L395.6 361.1C389.2 358.4 381.7 360.2 377.2 365.5L365.9 378.8C361.2 384.3 353.4 386 346.8 382.9C307.4 364.2 275.9 331.7 258.6 291.5C255.8 285 257.6 277.5 263 273L274.8 263C280.1 258.5 281.9 251.1 279.2 244.6L270.3 223.2C267 215.2 257.8 211.3 249.8 214.4zM299.7 210.8L308.6 232.2C316.6 251.5 311.3 273.8 295.3 287.3L293 289.3C306 313.8 325.7 334.3 349.7 348.2L352.7 344.7C366.2 328.7 388.5 323.4 407.8 331.4L429.2 340.3C453.2 350.3 464.9 377.7 455.5 401.9L454.7 403.9C442.6 435.2 409.7 462.1 369.3 454.6C276 437.3 202.6 363.8 185.2 270.5C177.7 230.1 204.6 197.2 235.9 185.1L237.9 184.3C262.2 174.9 289.5 186.6 299.5 210.6z"/></svg>