<svg xmlns="http://www.w3.org/2000/svg" viewBox="0 0 640 640"><!--! Font Awesome Pro 7.1.0 by @fontawesome - https://fontawesome.com License - https://fontawesome.com/license (Commercial License) Copyright 2025 Fonticons, Inc. --><path fill="currentColor" d="M478.4 478.4C390.9 565.9 249.1 565.9 161.6 478.4C74.1 390.9 74.1 249.1 161.6 161.6C249.1 74.1 390.9 74.1 478.4 161.6C565.9 249.1 565.9 390.9 478.4 478.4zM139 139C72.7 203.3 46.3 298.4 69.8 387.7C93.2 477 163 546.8 252.3 570.2C341.6 593.7 436.7 567.3 501 501C567.3 436.7 593.7 341.6 570.2 252.3C546.8 163 477 93.2 387.7 69.8C298.4 46.3 203.3 72.7 139 139zM444.5 345C441 352.9 431.8 356.6 423.8 353.3L402.3 344.5C395.9 341.8 391.9 335.3 392.4 328.4L393.7 313C394.3 306 390.2 299.4 383.7 296.8C343.1 280.7 297.8 279.9 256.7 294.6C249.9 297 245.5 303.8 246.1 311L247.5 328.4C248.1 335.3 244.1 341.9 237.6 344.5L216.1 353.3C208.1 356.6 198.9 352.9 195.4 345L194.5 343C185.5 322.7 189.7 298.5 207.8 286.1C275.1 239.9 364.6 239.9 431.9 286.1C450 298.6 454.2 322.7 445.2 343L444.3 345zM411.6 382.9C435.7 392.8 463.3 381.7 473.8 357.9L474.7 355.9C488.3 325.2 484.1 282.9 450.2 259.6C372 205.9 268.1 205.9 189.9 259.6C156 282.8 151.8 325.1 165.4 355.9L166.3 357.9C176.8 381.7 204.4 392.8 228.5 382.9L250 374.1C269.3 366.1 281.3 346.6 279.6 325.7L279.2 321.1C306 314 334.4 314.5 360.9 322.6L360.6 325.7C358.9 346.5 370.8 366.1 390.2 374.1L411.7 382.9z"/></svg>