<svg xmlns="http://www.w3.org/2000/svg" viewBox="0 0 640 640"><!--! Font Awesome Pro 7.1.0 by @fontawesome - https://fontawesome.com License - https://fontawesome.com/license (Commercial License) Copyright 2025 Fonticons, Inc. --><path fill="currentColor" d="M464 48C464 39.2 456.8 32 448 32C439.2 32 432 39.2 432 48L432 272C432 280.8 439.2 288 448 288C456.8 288 464 280.8 464 272L464 48zM544 80C544 71.2 536.8 64 528 64C519.2 64 512 71.2 512 80L512 240C512 248.8 519.2 256 528 256C536.8 256 544 248.8 544 240L544 80zM384 96C384 87.2 376.8 80 368 80C359.2 80 352 87.2 352 96L352 224C352 232.8 359.2 240 368 240C376.8 240 384 232.8 384 224L384 96zM624 128C624 119.2 616.8 112 608 112C599.2 112 592 119.2 592 128L592 192C592 200.8 599.2 208 608 208C616.8 208 624 200.8 624 192L624 128zM187.8 96.6C196.2 94.3 205 98.6 208.4 106.7L247.2 200C250.1 207.1 248.1 215.2 242.2 220.1L200.6 254.2C195.1 258.7 193.2 266.4 196 272.9C229.1 349.3 289.1 411.3 364.1 446.9C370.7 450.1 378.7 448.3 383.3 442.6L420 397.8C424.8 391.9 433 389.8 440.1 392.8L533.4 431.7C541.4 435.1 545.7 443.9 543.5 452.3L541.7 459C527.1 512.2 476.9 554 418.7 541.9C258 508.4 131.6 382 98.2 221.4C86.1 163.1 127.9 113 181.1 98.4L187.8 96.6zM237.9 94.3C228.3 71.5 203.3 59.2 179.4 65.7L172.7 67.5C107.7 85.2 50.4 148.7 66.8 227.8C102.8 400.9 239 537.1 412.1 573.1C491.2 589.6 554.7 532.2 572.4 467.2L574.2 460.5C580.7 436.6 568.5 411.5 545.6 402L452.3 363.1C432.2 354.7 408.9 360.5 395.1 377.4L366.6 412.3C307.3 381.2 259.3 331.5 230.3 271L262.4 244.7C279.3 230.9 285.1 207.7 276.7 187.5L237.9 94.4z"/></svg>