<svg xmlns="http://www.w3.org/2000/svg" viewBox="0 0 640 640"><!--! Font Awesome Pro 7.1.0 by @fontawesome - https://fontawesome.com License - https://fontawesome.com/license (Commercial License) Copyright 2025 Fonticons, Inc. --><path fill="currentColor" d="M160 128C142.3 128 128 142.3 128 160L128 480C128 497.7 142.3 512 160 512L480 512C497.7 512 512 497.7 512 480L512 160C512 142.3 497.7 128 480 128L160 128zM96 160C96 124.7 124.7 96 160 96L480 96C515.3 96 544 124.7 544 160L544 480C544 515.3 515.3 544 480 544L160 544C124.7 544 96 515.3 96 480L96 160zM390.4 214.3C382.3 211.2 373.2 215.1 369.9 223.1L361 244.5C358.3 250.9 360.1 258.4 365.4 262.9L377.2 272.9C382.6 277.5 384.3 285 381.6 291.4C364.3 331.5 332.8 364.1 293.4 382.8C286.8 385.9 279 384.2 274.3 378.7L263 365.4C258.5 360.1 251.1 358.3 244.6 361L223.2 369.9C215.2 373.2 211.3 382.4 214.4 390.4L215.2 392.4C223.2 413.1 243.3 427.3 264.9 423.2C345.2 408.3 408.4 345 423.4 264.7C427.4 243.1 413.3 223 392.6 215L390.6 214.2zM340.3 210.8C350.3 186.8 377.7 175.1 401.9 184.5L403.9 185.3C435.2 197.4 462.1 230.3 454.6 270.7C437.3 364 363.8 437.4 270.5 454.8C230.1 462.3 197.2 435.4 185.1 404.1L184.3 402.1C174.9 377.8 186.6 350.5 210.6 340.5L232 331.6C251.3 323.6 273.6 328.9 287.1 344.9L290.1 348.4C314.1 334.5 333.8 314.1 346.8 289.5L344.5 287.5C328.5 274 323.2 251.7 331.2 232.4L340.1 211z"/></svg>