<svg xmlns="http://www.w3.org/2000/svg" viewBox="0 0 640 640"><!--! Font Awesome Pro 7.1.0 by @fontawesome - https://fontawesome.com License - https://fontawesome.com/license (Commercial License) Copyright 2025 Fonticons, Inc. --><path fill="currentColor" d="M128 128C128 110.3 142.3 96 160 96L448 96C465.7 96 480 110.3 480 128L480 176L512 176L512 128C512 92.7 483.3 64 448 64L160 64C124.7 64 96 92.7 96 128L96 304L54.4 304C42 304 32 314 32 326.4C32 375.9 72.1 416 121.6 416L304 416L304 384L121.6 384C93.1 384 69.4 363.2 64.8 336L304 336L304 304L128 304L128 128zM416 544C398.3 544 384 529.7 384 512L384 288C384 270.3 398.3 256 416 256L512 256C529.7 256 544 270.3 544 288L544 512C544 529.7 529.7 544 512 544L416 544zM416 224C380.7 224 352 252.7 352 288L352 512C352 547.3 380.7 576 416 576L512 576C547.3 576 576 547.3 576 512L576 288C576 252.7 547.3 224 512 224L416 224zM448 480C439.2 480 432 487.2 432 496C432 504.8 439.2 512 448 512L480 512C488.8 512 496 504.8 496 496C496 487.2 488.8 480 480 480L448 480z"/></svg>