<svg xmlns="http://www.w3.org/2000/svg" viewBox="0 0 640 640"><!--! Font Awesome Pro 7.1.0 by @fontawesome - https://fontawesome.com License - https://fontawesome.com/license (Commercial License) Copyright 2025 Fonticons, Inc. --><path fill="currentColor" d="M128 128L512 128C529.7 128 544 142.3 544 160L544 480C544 497.7 529.7 512 512 512L272 512L272 544L512 544C547.3 544 576 515.3 576 480L576 160C576 124.7 547.3 96 512 96L128 96C92.7 96 64 124.7 64 160L64 496C64 522.5 85.5 544 112 544L176 544C202.5 544 224 522.5 224 496L224 224C224 197.5 202.5 176 176 176L112 176C106.4 176 101 177 96 178.7L96 160C96 142.3 110.3 128 128 128zM96 224C96 215.2 103.2 208 112 208L176 208C184.8 208 192 215.2 192 224L192 496C192 504.8 184.8 512 176 512L112 512C103.2 512 96 504.8 96 496L96 224zM464 208L464 256L304 256L304 208L464 208zM304 176C286.3 176 272 190.3 272 208L272 256C272 273.7 286.3 288 304 288L464 288C481.7 288 496 273.7 496 256L496 208C496 190.3 481.7 176 464 176L304 176zM328 440C328 426.7 317.3 416 304 416C290.7 416 280 426.7 280 440C280 453.3 290.7 464 304 464C317.3 464 328 453.3 328 440zM384 464C397.3 464 408 453.3 408 440C408 426.7 397.3 416 384 416C370.7 416 360 426.7 360 440C360 453.3 370.7 464 384 464zM488 440C488 426.7 477.3 416 464 416C450.7 416 440 426.7 440 440C440 453.3 450.7 464 464 464C477.3 464 488 453.3 488 440zM304 384C317.3 384 328 373.3 328 360C328 346.7 317.3 336 304 336C290.7 336 280 346.7 280 360C280 373.3 290.7 384 304 384zM408 360C408 346.7 397.3 336 384 336C370.7 336 360 346.7 360 360C360 373.3 370.7 384 384 384C397.3 384 408 373.3 408 360zM464 384C477.3 384 488 373.3 488 360C488 346.7 477.3 336 464 336C450.7 336 440 346.7 440 360C440 373.3 450.7 384 464 384z"/></svg>