<svg xmlns="http://www.w3.org/2000/svg" viewBox="0 0 640 640"><!--! Font Awesome Pro 7.1.0 by @fontawesome - https://fontawesome.com License - https://fontawesome.com/license (Commercial License) Copyright 2025 Fonticons, Inc. --><path fill="currentColor" d="M64 211.9L64 240C64 266.5 85.5 288 112 288L123.6 288L144.9 256L111.9 256C103.1 256 95.9 248.8 95.9 240L95.9 211.9C95.9 207.4 97.6 205 98.8 204C128.5 180.2 206.8 128 319.9 128C433 128 511.2 180.2 541 204C542.2 205 543.9 207.4 543.9 211.9L543.9 240C543.9 248.8 536.7 256 527.9 256L494.9 256L516.2 288L527.8 288C554.3 288 575.8 266.5 575.8 240L575.8 211.9C575.8 199.2 570.8 187 560.8 179C528 152.8 442.8 96 319.8 96C196.8 96 111.7 152.8 79 179C69 187 64 199.2 64 211.9zM128 437.8C128 429.9 130.3 422.2 134.7 415.6L231.6 270.2C237.5 261.3 247.5 256 258.2 256L381.7 256C392.4 256 402.4 261.3 408.3 270.2L505.2 415.6C509.6 422.2 511.9 429.9 511.9 437.8L511.9 480C511.9 497.7 497.6 512 479.9 512L160 512C142.3 512 128 497.7 128 480L128 437.8zM96 437.8L96 480C96 515.3 124.7 544 160 544L480 544C515.3 544 544 515.3 544 480L544 437.8C544 423.6 539.8 409.7 531.9 397.9L435 252.5C423.5 235.3 404.5 224.8 384 224L384 192C384 183.2 376.8 176 368 176C359.2 176 352 183.2 352 192L352 224L288 224L288 192C288 183.2 280.8 176 272 176C263.2 176 256 183.2 256 192L256 224C235.5 224.7 216.5 235.3 205 252.5L108.1 397.9C100.2 409.7 96 423.6 96 437.8zM320 336C346.5 336 368 357.5 368 384C368 410.5 346.5 432 320 432C293.5 432 272 410.5 272 384C272 357.5 293.5 336 320 336zM320 464C364.2 464 400 428.2 400 384C400 339.8 364.2 304 320 304C275.8 304 240 339.8 240 384C240 428.2 275.8 464 320 464z"/></svg>