<svg xmlns="http://www.w3.org/2000/svg" viewBox="0 0 640 640"><!--! Font Awesome Pro 7.1.0 by @fontawesome - https://fontawesome.com License - https://fontawesome.com/license (Commercial License) Copyright 2025 Fonticons, Inc. --><path fill="currentColor" d="M544 96L256 96C238.3 96 224 110.3 224 128L224 352C224 369.7 238.3 384 256 384L368 384L368 416L256 416C220.7 416 192 387.3 192 352L192 128C192 92.7 220.7 64 256 64L544 64C579.3 64 608 92.7 608 128L608 242L576 248.7L576 128.1C576 110.4 561.7 96.1 544 96.1zM224 512L280.4 512C276.1 521.8 273.3 532.5 272.4 544L64 544C28.7 544 0 515.3 0 480L0 256C0 220.7 28.7 192 64 192L144 192L144 224L128 224L128 512L224 512zM544 255.3L509.6 262.5L454.5 187.3C453 185.2 450.5 184 447.9 184C445.3 184 442.9 185.3 441.4 187.5L386 267.7C383 272 378.2 274.6 373 274.6C367.8 274.6 362.9 272.2 359.9 268L341.9 243.2C340.3 241 337.8 239.8 335.1 239.9C332.4 240 330 241.4 328.6 243.7L289.2 307.6C287.7 310.1 287.6 313.2 289 315.7C290.4 318.2 293.1 319.8 296 319.8L372.7 319.8C369.6 327.3 368 335.5 368 344L368 351.8L296 351.8C281.5 351.8 268.1 344 261.1 331.3C254.1 318.6 254.4 303.1 262 290.8L301.4 226.9C308.4 215.5 320.6 208.4 334 207.9C347.4 207.4 360 213.6 367.9 224.4L372.6 230.9L415.2 169.2C422.6 158.5 434.6 152.1 447.6 151.9C460.6 151.7 472.8 157.8 480.4 168.2L544 255.3zM264 160C264 146.7 274.7 136 288 136C301.3 136 312 146.7 312 160C312 173.3 301.3 184 288 184C274.7 184 264 173.3 264 160zM96 304L96 224L64 224C46.3 224 32 238.3 32 256L32 304L96 304zM96 432L32 432L32 480C32 497.7 46.3 512 64 512L96 512L96 432zM96 336L32 336L32 400L96 400L96 336zM640 303.9L640 520C640 550.7 611.6 576 576 576C540.4 576 512 550.7 512 520C512 489.3 540.4 464 576 464C587.7 464 598.6 466.7 608 471.5L608 403.6L448 436.9L448 552C448 582.7 419.6 608 384 608C348.4 608 320 582.7 320 552C320 521.3 348.4 496 384 496C395.7 496 406.6 498.7 416 503.5L416 343.9C416 336.3 421.3 329.8 428.7 328.2L620.7 288.2C625.4 287.2 630.3 288.4 634.1 291.4C637.9 294.4 640 299 640 303.8zM608 370.9L608 323.6L448 356.9L448 404.2L608 370.9zM352 551.9C352 561.5 362.4 575.9 384 575.9C405.6 575.9 416 561.5 416 551.9C416 542.3 405.6 527.9 384 527.9C362.4 527.9 352 542.3 352 551.9zM576 495.9C554.4 495.9 544 510.3 544 519.9C544 529.5 554.4 543.9 576 543.9C597.6 543.9 608 529.5 608 519.9C608 510.3 597.6 495.9 576 495.9z"/></svg>