<svg xmlns="http://www.w3.org/2000/svg" viewBox="0 0 640 640"><!--! Font Awesome Pro 7.1.0 by @fontawesome - https://fontawesome.com License - https://fontawesome.com/license (Commercial License) Copyright 2025 Fonticons, Inc. --><path fill="currentColor" d="M256 96C238.3 96 224 110.3 224 128L224 352C224 369.7 238.3 384 256 384L576 384C593.7 384 608 369.7 608 352L608 128C608 110.3 593.7 96 576 96L256 96zM192 128C192 92.7 220.7 64 256 64L576 64C611.3 64 640 92.7 640 128L640 352C640 387.3 611.3 416 576 416L256 416C220.7 416 192 387.3 192 352L192 128zM288 136C301.3 136 312 146.7 312 160C312 173.3 301.3 184 288 184C274.7 184 264 173.3 264 160C264 146.7 274.7 136 288 136zM454.5 187.3C453 185.2 450.5 184 447.9 184C445.3 184 442.9 185.3 441.4 187.5L386 267.7C383 272 378.2 274.6 373 274.6C367.8 274.6 362.9 272.2 359.9 268L341.9 243.2C340.3 241 337.8 239.8 335.1 239.9C332.4 240 330 241.4 328.6 243.7L289.2 307.6C287.7 310.1 287.6 313.2 289 315.7C290.4 318.2 293.1 319.8 296 319.8L535.8 319.8C538.8 319.8 541.6 318.1 542.9 315.4C544.2 312.7 544 309.5 542.2 307.1L454.5 187.3zM447.5 152C460.4 151.8 472.7 157.9 480.3 168.3L568.1 288.1C577 300.3 578.3 316.4 571.5 329.8C564.7 343.2 550.9 351.7 535.8 351.7L296 351.7C281.5 351.7 268.1 343.9 261.1 331.2C254.1 318.5 254.4 303 262 290.7L301.4 226.8C308.4 215.4 320.6 208.3 334 207.8C347.4 207.3 360 213.5 367.9 224.3L372.6 230.8L415.2 169.1C422.6 158.4 434.6 152 447.6 151.8zM128 192L144 192L144 224L128 224L128 512L320 512L320 464L352 464L352 512L384 512C401.7 512 416 497.7 416 480L416 464L448 464L448 480C448 515.3 419.3 544 384 544L64 544C28.7 544 0 515.3 0 480L0 256C0 220.7 28.7 192 64 192L128 192zM96 224L64 224C46.3 224 32 238.3 32 256L32 304L96 304L96 224zM96 512L96 432L32 432L32 480C32 497.7 46.3 512 64 512L96 512zM96 400L96 336L32 336L32 400L96 400z"/></svg>