<svg xmlns="http://www.w3.org/2000/svg" viewBox="0 0 640 640"><!--! Font Awesome Pro 7.1.0 by @fontawesome - https://fontawesome.com License - https://fontawesome.com/license (Commercial License) Copyright 2025 Fonticons, Inc. --><path fill="currentColor" d="M112 96C103.2 96 96 103.2 96 112C96 120.8 103.2 128 112 128L224 128L224 369.5C224 422.8 208.2 474.8 178.7 519.2C173.8 526.6 175.8 536.5 183.1 541.4C190.4 546.3 200.4 544.3 205.3 537C238.4 487.3 256 429 256 369.5L256 128L416 128L416 478.6C416 514.7 445.3 544 481.4 544C506.2 544 528.8 530 539.9 507.8L542.2 503.1C546.2 495.2 542.9 485.6 535 481.6C527.1 477.6 517.5 480.9 513.5 488.8L511.2 493.5C505.5 504.8 494 512 481.3 512C462.8 512 447.9 497 447.9 478.6L447.9 128L527.9 128C536.7 128 543.9 120.8 543.9 112C543.9 103.2 536.7 96 527.9 96L112 96z"/></svg>