<svg xmlns="http://www.w3.org/2000/svg" viewBox="0 0 640 640"><!--! Font Awesome Pro 7.1.0 by @fontawesome - https://fontawesome.com License - https://fontawesome.com/license (Commercial License) Copyright 2025 Fonticons, Inc. --><path fill="currentColor" d="M480 288L480 352C480 360.8 472.8 368 464 368C455.2 368 448 360.8 448 352L448 288L480 288zM448 397.3L448 480L336 480L336 397.3C354.6 390.7 368 372.9 368 352L368 288L416 288L416 352C416 372.9 429.4 390.7 448 397.3zM480 480L480 397.3C498.6 390.7 512 372.9 512 352L512 288L576 288L576 448C576 465.7 561.7 480 544 480L480 480zM464 512L544 512C579.3 512 608 483.3 608 448L608 192C608 156.7 579.3 128 544 128L96 128C60.7 128 32 156.7 32 192L32 448C32 483.3 60.7 512 96 512L464 512zM304 480L192 480L192 397.3C210.6 390.7 224 372.9 224 352L224 288L272 288L272 352C272 372.9 285.4 390.7 304 397.3L304 480zM160 480L96 480C78.3 480 64 465.7 64 448L64 288L128 288L128 352C128 372.9 141.4 390.7 160 397.3L160 480zM176 368C167.2 368 160 360.8 160 352L160 288L192 288L192 352C192 360.8 184.8 368 176 368zM320 368C311.2 368 304 360.8 304 352L304 288L336 288L336 352C336 360.8 328.8 368 320 368zM496 256L64 256L64 192C64 174.3 78.3 160 96 160L544 160C561.7 160 576 174.3 576 192L576 256L496 256z"/></svg>