<svg xmlns="http://www.w3.org/2000/svg" viewBox="0 0 640 640"><!--! Font Awesome Pro 7.1.0 by @fontawesome - https://fontawesome.com License - https://fontawesome.com/license (Commercial License) Copyright 2025 Fonticons, Inc. --><path fill="currentColor" d="M496 448L496 480C496 488.8 488.8 496 480 496C471.2 496 464 488.8 464 480L464 448L432 448L432 480C432 488.8 424.8 496 416 496C407.2 496 400 488.8 400 480L400 448L304 448L304 480C304 488.8 296.8 496 288 496C279.2 496 272 488.8 272 480L272 448L240 448L240 480C240 488.8 232.8 496 224 496C215.2 496 208 488.8 208 480L208 448L176 448L176 480C176 488.8 168.8 496 160 496C151.2 496 144 488.8 144 480L144 448L96 448L96 512C96 529.7 110.3 544 128 544L512 544C529.7 544 544 529.7 544 512L544 448L496 448zM480 416L544 416L544 391.6C544 379.5 537.2 368.4 526.3 363L467.9 333.8C436.1 317.9 416 285.4 416 249.8C416 164.9 347.2 96.1 262.3 96.1L256 96C167.6 96 96 167.6 96 256L96 416L480 416zM576 391.6L576 512C576 547.3 547.3 576 512 576L128 576C92.7 576 64 547.3 64 512L64 256C64 150 150 64 256 64L262.3 64C364.9 64 448 147.2 448 249.7C448 273.2 461.2 294.6 482.2 305.1L540.6 334.3C562.3 345.1 576 367.3 576 391.5z"/></svg>