<svg xmlns="http://www.w3.org/2000/svg" viewBox="0 0 640 640"><!--! Font Awesome Pro 7.1.0 by @fontawesome - https://fontawesome.com License - https://fontawesome.com/license (Commercial License) Copyright 2025 Fonticons, Inc. --><path fill="currentColor" d="M480.5 608C409.8 608 352.5 550.7 352.5 480C352.5 409.3 409.8 352 480.5 352C551.2 352 608.5 409.3 608.5 480C608.5 550.7 551.2 608 480.5 608zM480.5 384C427.5 384 384.5 427 384.5 480C384.5 533 427.5 576 480.5 576C533.5 576 576.5 533 576.5 480C576.5 427 533.5 384 480.5 384zM303.9 89.9C335.1 58.7 385.8 58.7 417 89.9L552.2 225.1L557.7 231.2C579.6 258.1 581.3 295.9 563 324.5C553.4 319.4 543.3 315.1 532.8 311.8C547.1 294.2 547.1 268.9 532.8 251.4L529.5 247.7L394.2 112.5C375.5 93.8 345.1 93.8 326.3 112.5L199.1 240L337.3 377.7C330.9 386.7 325.3 396.2 320.6 406.3L181 267.1C179.5 272.7 178.9 278.7 179.6 284.6L192.4 406.2C192.9 411.1 191.2 415.9 187.7 419.3L120.3 485.4C110.9 494.6 110.8 509.6 120.1 518.9C129.2 528 144 528.1 153.3 519.1L221.3 452.6L224.1 450.4C227.1 448.6 230.6 447.8 234.2 448.1L306.2 455.7C305.1 463.7 304.5 471.8 304.5 480C304.5 482.6 304.5 485.1 304.7 487.7L238.4 480.7L175.8 542C154 563.3 119.2 563.1 97.6 541.6C75.7 519.7 75.9 484.2 98 462.6L159.8 402.1L147.8 288.2C145.3 264.2 153.7 240.3 170.8 223.3L303.9 89.9zM480.5 556C469.5 556 460.5 547 460.5 536C460.5 525 469.5 516 480.5 516C491.5 516 500.5 525 500.5 536C500.5 547 491.5 556 480.5 556zM424.5 500C413.5 500 404.5 491 404.5 480C404.5 469 413.5 460 424.5 460C435.5 460 444.5 469 444.5 480C444.5 491 435.5 500 424.5 500zM480.5 500C469.5 500 460.5 491 460.5 480C460.5 469 469.5 460 480.5 460C491.5 460 500.5 469 500.5 480C500.5 491 491.5 500 480.5 500zM536.5 500C525.5 500 516.5 491 516.5 480C516.5 469 525.5 460 536.5 460C547.5 460 556.5 469 556.5 480C556.5 491 547.5 500 536.5 500zM480.5 444C469.5 444 460.5 435 460.5 424C460.5 413 469.5 404 480.5 404C491.5 404 500.5 413 500.5 424C500.5 435 491.5 444 480.5 444z"/></svg>