<svg xmlns="http://www.w3.org/2000/svg" viewBox="0 0 640 640"><!--! Font Awesome Pro 7.1.0 by @fontawesome - https://fontawesome.com License - https://fontawesome.com/license (Commercial License) Copyright 2025 Fonticons, Inc. --><path fill="currentColor" d="M576 288C576 324 567.5 358 552.5 388.1C497.3 251.6 388.4 142.7 251.9 87.5C282 72.5 316 64 352 64C475.7 64 576 164.3 576 288zM534.1 430.7C538.1 442.8 553.6 446.3 561 435.9C590.6 394.1 608 343.1 608 288C608 223.1 583.8 163.8 544 118.6L571.3 91.3C577.5 85.1 577.5 74.9 571.3 68.7C565.1 62.5 554.9 62.5 548.7 68.7L521.4 96C476.3 56.2 417 32 352 32C296.9 32 245.8 49.4 204.1 79C193.7 86.3 197.3 101.9 209.3 105.9C280.6 129.6 345 168.5 398.5 218.8L68.7 548.7C62.5 554.9 62.5 565.1 68.7 571.3C74.9 577.5 85.1 577.5 91.3 571.3L421.2 241.4C471.5 294.9 510.4 359.3 534.1 430.6z"/></svg>