<svg xmlns="http://www.w3.org/2000/svg" viewBox="0 0 640 640"><!--! Font Awesome Pro 7.1.0 by @fontawesome - https://fontawesome.com License - https://fontawesome.com/license (Commercial License) Copyright 2025 Fonticons, Inc. --><path fill="currentColor" d="M542 272C528.2 182.8 457.6 112.2 368.4 98.4L368.4 272L542 272zM256.4 133.6C164.7 155.3 96.4 237.7 96.4 336C96.4 450.9 189.5 544 304.4 544C338.8 544 371.1 535.7 399.6 521L269.3 363.7C261 353.7 256.4 341 256.4 328L256.4 133.6zM570.9 384L431.6 384L514.5 484.1C541.9 457.1 561.8 422.6 570.9 384zM574.4 272.1C576.7 289.6 562.2 304 544.5 304L368.5 304C350.8 304 336.5 289.7 336.5 272L336.5 96C336.5 78.3 350.9 63.8 368.4 66.1C475.4 80.3 560.2 165.1 574.4 272.1zM288.4 130.7L288.4 328C288.4 333.6 290.4 339 293.9 343.3L426 502.7C437.7 516.8 435.2 538.1 419.1 546.8C385 565.4 345.9 576 304.4 576C171.9 576 64.4 468.5 64.4 336C64.4 220.5 145.9 124.1 254.6 101.2C272.7 97.4 288.4 112.2 288.4 130.7zM603.2 385.8C593 434.2 568.2 477.2 533.6 510C521.3 521.7 502 519.2 491.2 506.1L406.9 404.4C389.6 383.5 404.5 352 431.5 352L573.7 352C592.2 352 607 367.7 603.2 385.8z"/></svg>