<svg xmlns="http://www.w3.org/2000/svg" viewBox="0 0 640 640"><!--! Font Awesome Pro 7.1.0 by @fontawesome - https://fontawesome.com License - https://fontawesome.com/license (Commercial License) Copyright 2025 Fonticons, Inc. --><path fill="currentColor" d="M320 144C225.5 144 143.7 198.6 104.6 278.1C99.9 287.6 92.3 296 82.1 301L72.8 305.6C64.9 309.6 61.7 319.2 65.6 327.1C69.5 335 79.2 338.2 87.1 334.3L126.5 314.6C138.3 308.7 152 307.9 164.4 312.4L199.2 325.1C220.4 332.8 243.6 332.8 264.8 325.1L303.6 311C314.2 307.1 325.8 307.1 336.4 311L375.2 325.1C396.4 332.8 419.6 332.8 440.8 325.1L475.6 312.5C488 308 501.7 308.8 513.5 314.7L552.9 334.4C560.8 338.4 570.4 335.1 574.4 327.2C578.4 319.3 575.1 309.7 567.2 305.7L557.9 301.1C547.8 296 540.1 287.6 535.5 278.1C496.3 198.6 414.5 144 320 144zM75.9 264C120.2 174 212.8 112 320 112C427.2 112 519.8 174 564.2 264C566.1 267.9 569 270.8 572.3 272.5L581.6 277.1C605.3 289 614.9 317.8 603.1 341.5C591.3 365.2 562.4 374.8 538.7 363L499.3 343.3C495.4 341.3 490.8 341.1 486.7 342.6L451.9 355.2C423.6 365.5 392.7 365.5 364.4 355.2L325.6 341.1C322.1 339.8 318.2 339.8 314.7 341.1L275.9 355.2C247.6 365.5 216.7 365.5 188.4 355.2L153.6 342.6C149.5 341.1 144.9 341.4 141 343.3L101.5 362.9C77.8 374.8 49 365.1 37.1 341.4C25.2 317.7 34.9 288.9 58.6 277L67.9 272.4C71.1 270.8 74 267.9 76 263.9zM90.5 399.4C101.9 398.5 112.5 396.4 122.3 393.6L145.6 463.5C148.9 473.3 158 479.9 168.4 479.9L471.7 479.9C482 479.9 491.2 473.3 494.5 463.5L517.8 393.6C527.6 396.4 538.2 398.4 549.6 399.4L524.8 473.7C517.2 496.6 495.8 512 471.7 512L168.4 512C144.3 512 122.9 496.6 115.3 473.7L90.5 399.4zM238.3 215.2L222.3 247.2C218.3 255.1 208.7 258.3 200.8 254.4C192.9 250.5 189.7 240.8 193.6 232.9L209.6 200.9C213.6 193 223.2 189.8 231.1 193.7C239 197.6 242.2 207.3 238.3 215.2zM430.3 200.9L446.3 232.9C450.3 240.8 447 250.4 439.1 254.4C431.2 258.4 421.6 255.1 417.6 247.2L401.6 215.2C397.7 207.3 400.9 197.7 408.8 193.7C416.7 189.7 426.3 193 430.3 200.9zM336 208L336 240C336 248.8 328.8 256 320 256C311.2 256 304 248.8 304 240L304 208C304 199.2 311.2 192 320 192C328.8 192 336 199.2 336 208z"/></svg>