<svg xmlns="http://www.w3.org/2000/svg" viewBox="0 0 640 640"><!--! Font Awesome Pro 7.1.0 by @fontawesome - https://fontawesome.com License - https://fontawesome.com/license (Commercial License) Copyright 2025 Fonticons, Inc. --><path fill="currentColor" d="M484.2 96C479.8 96 475.5 96.7 471.3 97.9L416.6 114.8C399.7 120 385.5 130.4 375.5 144L240 144C162.6 144 98 199 83.2 272L47.4 272C38.9 272 32 265.1 32 256.6C32 249.5 36.8 243.3 43.7 241.6L51.9 239.6C60.5 237.5 65.7 228.8 63.5 220.2C61.3 211.6 52.7 206.4 44.1 208.6L35.9 210.6C14.8 215.8 0 234.8 0 256.6C0 282.8 21.2 304 47.4 304L80 304L80 320C80 373.4 109.1 420 152.2 444.8L180 522.8C184.5 535.5 196.6 544 210.1 544L256 544C273.7 544 288 529.7 288 512L288 480L368 480L368 512C368 529.7 382.3 544 400 544L445.9 544C459.4 544 471.5 535.5 476 522.8L494 472.5C519.9 463.5 542.8 447 559.3 424.8C559.6 424.4 559.9 424.2 560.1 424.1L560.2 424.1L560.3 424.1L600.1 424.1C622.2 424.1 640.1 406.2 640.1 384.1L640.1 304.1C640.1 282 622.2 264.1 600.1 264.1L581.4 264.1C576.2 260.6 571.5 256.4 567.3 251.8C592.3 238.1 608.2 211.8 608.2 182.9C608.2 161.5 590.9 144.2 569.5 144.2L528.2 144.2L528.2 140C528 115.6 508.4 96 484.2 96zM525.1 176L569.2 176C572.9 176 575.9 179 575.9 182.7C575.9 201.3 564.9 218 547.9 225.4C538.9 213.9 528.8 203.4 517.7 194.2C520.8 188.5 523.3 182.4 525 176zM480.7 128.5C481.8 128.2 483 128 484.2 128C490.7 128 496 133.3 496 139.8L496 154.1C496 166.6 491.5 178.2 484 187.4C481.2 190.8 479.9 195.2 480.4 199.6C480.9 204 483.3 208 486.9 210.6C504.8 223.6 520.4 239.9 532.7 259.1C540.9 271.8 551.6 282.6 564 291C569.4 294.6 575.4 296.1 581.1 296.1L600 296.1C604.4 296.1 608 299.7 608 304.1L608 384.1C608 388.5 604.4 392.1 600 392.1L560.2 392.1C549.1 392.1 539.5 397.8 533.6 405.8C519.6 424.6 499.8 438.1 477.3 444.3C472.3 445.7 468.3 449.4 466.5 454.3L445.9 512.1L400 512.1L400 464.1C400 455.3 392.8 448.1 384 448.1L272 448.1C263.2 448.1 256 455.3 256 464.1L256 512.1L210.1 512.1L180.2 428.4C178.8 424.6 176.1 421.4 172.5 419.6C136.5 400.9 112 363.4 112 320.1L112 304.1C112 233.4 169.3 176.1 240 176.1L380.5 176.1C381.6 176.1 382.7 176.1 383.9 176.1C389.8 176.2 395.3 173.1 398.2 167.9C404.1 157.3 413.9 149.1 426.1 145.4L480.8 128.6zM468 320C479 320 488 311 488 300C488 289 479 280 468 280C457 280 448 289 448 300C448 311 457 320 468 320z"/></svg>