<svg xmlns="http://www.w3.org/2000/svg" viewBox="0 0 640 640"><!--! Font Awesome Pro 7.1.0 by @fontawesome - https://fontawesome.com License - https://fontawesome.com/license (Commercial License) Copyright 2025 Fonticons, Inc. --><path fill="currentColor" d="M320 64C355.3 64 384 92.7 384 128C384 163.3 355.3 192 320 192C284.7 192 256 163.3 256 128C256 92.7 284.7 64 320 64zM320 224C373 224 416 181 416 128C416 75 373 32 320 32C267 32 224 75 224 128C224 181 267 224 320 224zM454.2 180.3C449.8 191.7 443.9 202.3 436.9 212C439.4 213.3 441.8 214.6 444.2 216C450.2 219.5 457.8 218.6 462.9 214C477.8 200.5 497.6 192.3 519.3 192.3L532.2 192.3L512.5 271C511.5 275.1 512.1 279.5 514.3 283.1C519.4 291.6 523.6 300.4 527 309.5C529.3 315.8 535.3 320 542 320L567 320C572 320 576 324 576 329L576 439C576 444 572 448 567 448L508.2 448C504 448 500 449.6 497 452.6C485.7 463.7 472.1 473.5 456.5 481.7C451.3 484.5 448 489.9 448 495.8L448 526.6C448 536.2 440.2 544 430.6 544L399.1 544C391.9 544 385.4 539.5 382.8 532.7L379 522.4C376.7 516.2 370.7 512 364 512L276 512C269.3 512 263.4 516.1 261 522.4L257.1 532.8C254.6 539.6 248.1 544.1 240.8 544.1L209.3 544.1C199.7 544.1 191.9 536.3 191.9 526.7L191.9 495.9C191.9 490 188.6 484.5 183.4 481.8C133.9 455.6 103.9 414 103.9 360.1C103.9 299.3 142.7 243.9 202.9 212.1C196.7 203.5 191.5 194.2 187.3 184.3C118.6 220.7 71.9 284.8 71.9 360.1C71.9 424.8 106.9 474.3 159.9 505.4L159.9 526.8C159.9 554.1 182 576.2 209.3 576.2L240.8 576.2C261.4 576.2 279.8 563.4 287 544.2L352.8 544.2C360 563.4 378.4 576.2 399 576.2L430.5 576.2C457.8 576.2 479.9 554.1 479.9 526.8L479.9 505.4C492.5 498 504.1 489.6 514.5 480.1L566.9 480.1C589.6 480.1 607.9 461.7 607.9 439.1L607.9 329.1C607.9 306.4 589.5 288.1 566.9 288.1L552.7 288.1C550.4 282.8 547.8 277.7 545.1 272.6L565.7 190.2C569.5 175.1 558 160.4 542.4 160.4L519.3 160.4C495.2 160.4 472.8 167.8 454.2 180.4zM480 360C480 346.7 469.3 336 456 336C442.7 336 432 346.7 432 360C432 373.3 442.7 384 456 384C469.3 384 480 373.3 480 360zM240 256C231.2 256 224 263.2 224 272C224 280.8 231.2 288 240 288L400 288C408.8 288 416 280.8 416 272C416 263.2 408.8 256 400 256L240 256z"/></svg>