<svg xmlns="http://www.w3.org/2000/svg" viewBox="0 0 640 640"><!--! Font Awesome Pro 7.1.0 by @fontawesome - https://fontawesome.com License - https://fontawesome.com/license (Commercial License) Copyright 2025 Fonticons, Inc. --><path fill="currentColor" d="M265.7 336L96 336L96 464C96 508.2 131.8 544 176 544C209.6 544 238.4 523.3 250.2 493.9C254.5 506.5 260 518.4 266.7 529.7C246.3 557.7 213.3 576 176 576C114.1 576 64 525.9 64 464L64 176C64 114.1 114.1 64 176 64C237.9 64 288 114.1 288 176L288 305C279.6 314.5 272.1 324.9 265.7 336zM256 304L256 176C256 131.8 220.2 96 176 96C131.8 96 96 131.8 96 176L96 304L256 304zM342.3 499.1L499.1 342.3C480.4 328.3 457.2 320 432 320C370.1 320 320 370.1 320 432C320 457.2 328.3 480.4 342.3 499.1zM364.9 521.7C383.6 535.7 406.8 544 432 544C493.9 544 544 493.9 544 432C544 406.8 535.7 383.6 521.7 364.9L364.9 521.7zM432 288C511.5 288 576 352.5 576 432C576 511.5 511.5 576 432 576C352.5 576 288 511.5 288 432C288 352.5 352.5 288 432 288z"/></svg>