<svg xmlns="http://www.w3.org/2000/svg" viewBox="0 0 640 640"><!--! Font Awesome Pro 7.1.0 by @fontawesome - https://fontawesome.com License - https://fontawesome.com/license (Commercial License) Copyright 2025 Fonticons, Inc. --><path fill="currentColor" d="M296 32C326.9 32 352 57.1 352 88L352 208L480 208C533 208 576 251 576 304L576 520C576 550.9 550.9 576 520 576L488 576C457.1 576 432 550.9 432 520L432 480L304 480L304 520C304 550.9 278.9 576 248 576L216 576C185.1 576 160 550.9 160 520L160 265.9L105.7 238.7C80.1 226 64 199.9 64 171.3C64 129.7 97.7 96 139.3 96L240 96L240 88C240 57.1 265.1 32 296 32zM478 415.6C466.6 422.7 451.9 422 441.3 413.7L418.1 395.5L386 415.6C376 421.9 363.5 422.1 353.5 416.4L349.3 413.6L326.1 395.4L294 415.5C284 421.8 271.5 422 261.5 416.3L257.3 413.5L234.1 395.3L192.5 421.3C192.3 421.4 192.2 421.4 192 421.5L192 519.7C192 533 202.7 543.7 216 543.7L248 543.7C261.3 543.7 272 533 272 519.7L272 463.7C272 454.9 279.2 447.7 288 447.7L448 447.7C456.8 447.7 464 454.9 464 463.7L464 519.7C464 533 474.7 543.7 488 543.7L520 543.7C533.3 543.7 544 533 544 519.7L544 421.5L542.1 420.3L510.1 395.2L478 415.3zM478 335.6C468 341.9 455.5 342.1 445.5 336.4L441.3 333.6L418.1 315.4L386 335.5C374.6 342.6 359.9 341.9 349.3 333.6L326.1 315.4L294 335.5C282.6 342.6 267.9 341.9 257.3 333.6L234.1 315.4L192.5 341.4C192.3 341.5 192.2 341.5 192 341.6L192 383.9L217.1 368.2L221.5 365.9C232.1 361.4 244.5 362.9 253.8 370.1L277 388.3L309.1 368.2L313.5 365.9C324.1 361.4 336.5 362.9 345.8 370.1L369 388.3L401.1 368.2C412.5 361.1 427.2 361.8 437.8 370.1L461 388.3L493.1 368.2L497.5 365.9C508.1 361.4 520.5 362.9 529.8 370.1L544 381.2L544 341.6L542.1 340.4L510.1 315.3L478 335.4zM296 64C282.7 64 272 74.7 272 88L272 112C272 120.8 264.8 128 256 128L139.3 128C115.4 128 96 147.4 96 171.3C96 187.7 105.3 202.7 119.9 210.1L183.1 241.7C188.5 244.4 191.9 250 191.9 256L191.9 304.1L217 288.4L221.4 286.1C232 281.6 244.4 283.1 253.7 290.3L276.9 308.5L309 288.4L313.4 286.1C324 281.6 336.4 283.1 345.7 290.3L368.9 308.5L401 288.4L405.4 286.1C416 281.6 428.4 283.1 437.7 290.3L460.9 308.5L493 288.4L497.4 286.1C508 281.6 520.4 283.1 529.7 290.3L543.7 301.3C542.4 267.2 514.4 240 480 240L336 240C327.2 240 320 232.8 320 224L320 88C320 74.7 309.3 64 296 64zM232 208C218.7 208 208 197.3 208 184C208 170.7 218.7 160 232 160C245.3 160 256 170.7 256 184C256 197.3 245.3 208 232 208z"/></svg>