<svg xmlns="http://www.w3.org/2000/svg" viewBox="0 0 640 640"><!--! Font Awesome Pro 7.1.0 by @fontawesome - https://fontawesome.com License - https://fontawesome.com/license (Commercial License) Copyright 2025 Fonticons, Inc. --><path fill="currentColor" d="M384 192C384 156.7 412.7 128 448 128C483.3 128 512 156.7 512 192C512 227.3 483.3 256 448 256C412.7 256 384 227.3 384 192zM448 288C501 288 544 245 544 192C544 139 501 96 448 96C395 96 352 139 352 192C352 245 395 288 448 288zM216 352C216 338.7 205.3 328 192 328C178.7 328 168 338.7 168 352C168 365.3 178.7 376 192 376C205.3 376 216 365.3 216 352zM253.7 278.5C213.1 244.4 152.5 249.7 118.5 290.3C84.5 330.9 89.7 391.5 130.3 425.6L137.5 431.1C145 436.2 153.3 440.4 162.3 443.4L470.1 542.5L472.9 543.3C486.9 546.5 501.2 539.9 508 527.5C515.4 514.7 512.2 496.7 499.7 486.9L253.7 278.6zM143 310.9C165.7 283.9 206 280.3 233 302.9L233 302.9L479 511.2L479.5 511.6L479.9 511.9L479.9 512L172.1 412.9C166.1 410.9 160.5 408.2 155.6 404.8L150.8 401.2C123.7 378.5 120.2 338 142.9 311z"/></svg>