<svg xmlns="http://www.w3.org/2000/svg" viewBox="0 0 640 640"><!--! Font Awesome Pro 7.1.0 by @fontawesome - https://fontawesome.com License - https://fontawesome.com/license (Commercial License) Copyright 2025 Fonticons, Inc. --><path fill="currentColor" d="M451.4 66.6C439.4 71.8 429.6 79.6 422.3 89.1C409.8 76.9 389.8 77.1 377.4 89.4C360.3 106.5 350.7 128.3 348.6 150.6C359.6 153.9 370.3 158.5 380.3 164.2C379.2 145.5 385.8 126.4 400.1 112.1L414.8 126.8C418.7 130.7 424.4 132.3 429.8 131.1C435.2 129.9 439.5 125.9 441.3 120.7C444.8 110 452.5 100.9 464 96L467.6 110.3C468.8 115.1 472.2 119.2 476.8 121.1C481.4 123 486.6 122.8 491 120.3C500.5 114.9 511.4 112 522.5 112L528 112L528 117.5C528 128.7 525.1 139.5 519.7 149C517.2 153.3 516.9 158.6 518.9 163.2C520.9 167.8 524.9 171.2 529.7 172.4L544 176C539.1 187.5 530 195.2 519.4 198.8C514.2 200.6 510.2 204.9 509 210.3C507.8 215.7 509.4 221.3 513.3 225.3L528 240C513.7 254.3 494.6 260.9 475.9 259.8C481.6 269.8 486.1 280.5 489.5 291.5C511.8 289.4 533.6 279.8 550.7 262.7C563.1 250.3 563.2 230.3 551 217.8C560.4 210.5 568.3 200.7 573.5 188.7C577.2 180.1 576.9 170.3 572.8 161.9C569.2 154.7 563.1 149.2 555.7 146.3C558.6 137.1 560.1 127.4 560.1 117.6L560.1 112.1C560.1 94.4 545.8 80.1 528.1 80.1L522.6 80.1C512.8 80.1 503.1 81.6 493.9 84.5C491 77.1 485.5 71 478.3 67.4C469.9 63.2 460.1 63 451.5 66.7zM131.9 470.6C108.9 447.7 96 416.5 96 384C96 351.5 108.9 320.3 131.9 297.4L217.4 211.9C240.4 188.9 271.5 176 304 176C336.5 176 367.7 188.9 390.6 211.9L428.1 249.4C451.1 272.4 464 303.5 464 336C464 368.5 451.1 399.7 428.1 422.6L342.6 508.1C319.6 531.1 288.5 544 256 544C223.5 544 192.3 531.1 169.4 508.1L131.9 470.6zM109.3 493.3L146.8 530.8C175.8 559.8 215.1 576.1 256.1 576.1C297.1 576.1 336.4 559.8 365.4 530.8L450.9 445.3C479.9 416.3 496.2 377 496.2 336C496.2 295 479.9 255.7 450.9 226.7L413.4 189.2C384.3 160.3 345 144 304 144C263 144 223.7 160.3 194.7 189.3L109.3 274.7C80.3 303.7 64 343 64 384C64 425 80.3 464.3 109.3 493.3zM212.7 276.7C206.5 282.9 206.5 293.1 212.7 299.3L244.7 331.3C250.9 337.5 261.1 337.5 267.3 331.3L299.3 299.3C305.5 293.1 305.5 282.9 299.3 276.7C293.1 270.5 282.9 270.5 276.7 276.7L256 297.4L235.3 276.7C229.1 270.5 218.9 270.5 212.7 276.7zM148.7 364.7C142.5 370.9 142.5 381.1 148.7 387.3L180.7 419.3C186.9 425.5 197.1 425.5 203.3 419.3L235.3 387.3C241.5 381.1 241.5 370.9 235.3 364.7C229.1 358.5 218.9 358.5 212.7 364.7L192 385.4L171.3 364.7C165.1 358.5 154.9 358.5 148.7 364.7zM276.7 364.7C270.5 370.9 270.5 381.1 276.7 387.3L308.7 419.3C314.9 425.5 325.1 425.5 331.3 419.3L363.3 387.3C369.5 381.1 369.5 370.9 363.3 364.7C357.1 358.5 346.9 358.5 340.7 364.7L320 385.4L299.3 364.7C293.1 358.5 282.9 358.5 276.7 364.7zM212.7 452.7C206.5 458.9 206.5 469.1 212.7 475.3L244.7 507.3C250.9 513.5 261.1 513.5 267.3 507.3L299.3 475.3C305.5 469.1 305.5 458.9 299.3 452.7C293.1 446.5 282.9 446.5 276.7 452.7L256 473.4L235.3 452.7C229.1 446.5 218.9 446.5 212.7 452.7z"/></svg>