<svg xmlns="http://www.w3.org/2000/svg" viewBox="0 0 640 640"><!--! Font Awesome Pro 7.1.0 by @fontawesome - https://fontawesome.com License - https://fontawesome.com/license (Commercial License) Copyright 2025 Fonticons, Inc. --><path fill="currentColor" d="M507.7 409.7C520.7 382.6 528 352.2 528 320C528 287.8 520.7 257.5 507.7 230.3C501.8 218.1 504.3 203.5 513.9 193.9C532.6 175.2 532.6 144.8 513.9 126C495.2 107.2 464.8 107.3 446 126C436.4 135.6 421.8 138.1 409.6 132.2C382.5 119.2 352.1 111.9 319.9 111.9C287.7 111.9 257.4 119.2 230.2 132.2C218 138.1 203.4 135.6 193.8 126C175.1 107.3 144.7 107.3 125.9 126C107.1 144.7 107.2 175.1 125.9 193.9C135.5 203.5 138 218.1 132.1 230.3C119.1 257.4 111.8 287.8 111.8 320C111.8 352.2 119.1 382.6 132.1 409.7C138 421.9 135.5 436.5 125.9 446.1C107.2 464.8 107.2 495.2 125.9 514C144.6 532.8 175 532.7 193.8 514C203.4 504.4 218 501.9 230.2 507.8C257.3 520.8 287.7 528.1 319.9 528.1C352.1 528.1 382.5 520.8 409.6 507.8C421.8 501.9 436.4 504.4 446 514C464.7 532.7 495.1 532.7 513.9 514C532.7 495.3 532.6 464.9 513.9 446.1C504.3 436.5 501.8 421.9 507.7 409.7zM103.4 536.6C72.2 505.3 72.2 454.7 103.4 423.5C88.4 392.1 80 357.1 80 320C80 282.9 88.4 247.9 103.4 216.5C72.2 185.3 72.2 134.7 103.4 103.4C134.6 72.1 185.2 72.2 216.5 103.4C247.9 88.4 282.9 80 320 80C357.1 80 392.1 88.4 423.5 103.4C454.7 72.2 505.4 72.2 536.6 103.4C567.8 134.6 567.8 185.2 536.6 216.5C551.6 247.8 560 282.9 560 320C560 357.1 551.6 392.1 536.6 423.5C567.8 454.7 567.8 505.4 536.6 536.6C505.4 567.8 454.8 567.8 423.5 536.6C392.1 551.6 357.1 560 320 560C282.9 560 247.9 551.6 216.5 536.6C185.3 567.8 134.6 567.8 103.4 536.6zM448 320C448 249.3 390.7 192 320 192C249.3 192 192 249.3 192 320C192 390.7 249.3 448 320 448C390.7 448 448 390.7 448 320zM160 320C160 231.6 231.6 160 320 160C408.4 160 480 231.6 480 320C480 408.4 408.4 480 320 480C231.6 480 160 408.4 160 320z"/></svg>