<svg xmlns="http://www.w3.org/2000/svg" viewBox="0 0 640 640"><!--! Font Awesome Pro 7.1.0 by @fontawesome - https://fontawesome.com License - https://fontawesome.com/license (Commercial License) Copyright 2025 Fonticons, Inc. --><path fill="currentColor" d="M336 112C336 103.2 328.8 96 320 96C311.2 96 304 103.2 304 112L304 160L208 160C199.2 160 192 167.2 192 176C192 184.8 199.2 192 208 192L304 192L304 256L96 256L96 240C96 231.2 88.8 224 80 224C71.2 224 64 231.2 64 240L64 528C64 536.8 71.2 544 80 544C88.8 544 96 536.8 96 528L96 512L544 512L544 528C544 536.8 551.2 544 560 544C568.8 544 576 536.8 576 528L576 240C576 231.2 568.8 224 560 224C551.2 224 544 231.2 544 240L544 256L336 256L336 192L432 192C440.8 192 448 184.8 448 176C448 167.2 440.8 160 432 160L336 160L336 112zM320 288L544 288L544 480L96 480L96 288L320 288z"/></svg>