<svg xmlns="http://www.w3.org/2000/svg" viewBox="0 0 640 640"><!--! Font Awesome Pro 7.1.0 by @fontawesome - https://fontawesome.com License - https://fontawesome.com/license (Commercial License) Copyright 2025 Fonticons, Inc. --><path fill="currentColor" d="M433 99C446.8 77.2 470.8 64 496.6 64L624 64C632.8 64 640 71.2 640 80C640 88.8 632.8 96 624 96L568.8 96L315.1 496.6C283.8 546 229.3 576 170.8 576C76.5 576 0 499.5 0 405.2L0 303.7C0 278.7 20.2 258.3 45.2 258.1L242 256.3C267.4 256.1 288 276.5 288 301.9L288 328.7L433 99zM496.6 96C481.8 96 468 103.6 460.1 116.1L371.8 256L429.6 256L530.9 96L496.6 96zM351.6 288L285.6 392.5C281.8 398.5 274.5 401.3 267.6 399.3C260.7 397.3 256 391.1 256 384L256 301.9C256 294.3 249.8 288.2 242.3 288.3L45.5 290.1C38 290.2 32 296.3 32 303.7L32 405.2C32 481.9 94.1 544 170.8 544C218.4 544 262.6 519.6 288.1 479.5L409.4 288L351.6 288z"/></svg>