<svg xmlns="http://www.w3.org/2000/svg" viewBox="0 0 640 640"><!--! Font Awesome Pro 7.1.0 by @fontawesome - https://fontawesome.com License - https://fontawesome.com/license (Commercial License) Copyright 2025 Fonticons, Inc. --><path fill="currentColor" d="M32 176C32 167.2 24.8 160 16 160C7.2 160 0 167.2 0 176L0 464C0 472.8 7.2 480 16 480C24.8 480 32 472.8 32 464L32 448L608 448L608 464C608 472.8 615.2 480 624 480C632.8 480 640 472.8 640 464L640 176C640 167.2 632.8 160 624 160C615.2 160 608 167.2 608 176L608 192L32 192L32 176zM608 416L32 416L32 224L608 224L608 416z"/></svg>