<svg xmlns="http://www.w3.org/2000/svg" viewBox="0 0 640 640"><!--! Font Awesome Pro 7.1.0 by @fontawesome - https://fontawesome.com License - https://fontawesome.com/license (Commercial License) Copyright 2025 Fonticons, Inc. --><path fill="currentColor" d="M80 160C88.8 160 96 167.2 96 176L96 192L544 192L544 176C544 167.2 551.2 160 560 160C568.8 160 576 167.2 576 176L576 308C566 300.8 555.3 294.6 544 289.4L544 224L96 224L96 416L278 416C275.3 426.4 273.5 437 272.6 448L96 448L96 464C96 472.8 88.8 480 80 480C71.2 480 64 472.8 64 464L64 176C64 167.2 71.2 160 80 160zM464 576C525.9 576 576 525.9 576 464C576 402.1 525.9 352 464 352C402.1 352 352 402.1 352 464C352 525.9 402.1 576 464 576zM464 320C543.5 320 608 384.5 608 464C608 543.5 543.5 608 464 608C384.5 608 320 543.5 320 464C320 384.5 384.5 320 464 320zM521.4 403.1C528.5 408.3 530.1 418.3 524.9 425.5L460.9 513.5C458.1 517.3 453.9 519.7 449.2 520C444.5 520.3 439.9 518.7 436.6 515.4L396.6 475.4C390.4 469.2 390.4 459 396.6 452.8C402.8 446.6 413 446.6 419.2 452.8L446 479.6L499 406.7C504.2 399.6 514.2 398 521.4 403.2z"/></svg>