<svg xmlns="http://www.w3.org/2000/svg" viewBox="0 0 640 640"><!--! Font Awesome Pro 7.1.0 by @fontawesome - https://fontawesome.com License - https://fontawesome.com/license (Commercial License) Copyright 2025 Fonticons, Inc. --><path fill="currentColor" d="M231.5 96.8C225.4 96.4 219.1 100.5 217.1 107.9L207.1 145.5C359 160.1 479.9 281 494.5 432.9L532.1 422.9C539.5 420.9 543.6 414.6 543.2 408.5C531.7 241.7 398.3 108.3 231.5 96.8zM102.6 537.4L463.1 441.3C452.1 300.4 339.6 187.9 198.7 176.9L102.6 537.4zM68.7 571.3C64.7 567.3 63.1 561.4 64.6 555.9L186.2 99.6C191.7 78.8 210.9 63.3 233.7 64.9C416.5 77.5 562.5 223.5 575.1 406.3C576.7 429.1 561.1 448.2 540.4 453.8L84.1 575.5C78.6 577 72.7 575.4 68.7 571.4zM240 280C253.3 280 264 290.7 264 304C264 317.3 253.3 328 240 328C226.7 328 216 317.3 216 304C216 290.7 226.7 280 240 280zM312 400C312 386.7 322.7 376 336 376C349.3 376 360 386.7 360 400C360 413.3 349.3 424 336 424C322.7 424 312 413.3 312 400zM208 408C221.3 408 232 418.7 232 432C232 445.3 221.3 456 208 456C194.7 456 184 445.3 184 432C184 418.7 194.7 408 208 408z"/></svg>