<svg xmlns="http://www.w3.org/2000/svg" viewBox="0 0 640 640"><!--! Font Awesome Pro 7.1.0 by @fontawesome - https://fontawesome.com License - https://fontawesome.com/license (Commercial License) Copyright 2025 Fonticons, Inc. --><path fill="currentColor" d="M376.2 453.5C350.9 470.3 320.6 480 288 480C199.6 480 128 408.4 128 320C128 231.6 199.6 160 288 160C320.6 160 350.9 169.8 376.2 186.5L276.6 286.1C257.9 304.8 257.9 335.2 276.6 354L376.2 453.5zM401.1 433.1L299.3 331.3C293.1 325.1 293.1 314.9 299.3 308.7C476.5 131.5 410.6 197.4 457.7 150.3C463.9 144.1 464 133.9 457.4 128C412.3 88.2 353 64 288 64C146.6 64 32 178.6 32 320C32 461.4 146.6 576 288 576C352.9 576 412.2 551.8 457.4 512C464 506.2 464 496 457.7 489.7L401.1 433.1zM399.2 476.5L422.1 499.4C384.7 527.4 338.3 544 288 544C164.3 544 64 443.7 64 320C64 196.3 164.3 96 288 96C338.3 96 384.7 112.6 422.2 140.6L399.2 163.5C367.9 141.1 329.5 128 288 128C182 128 96 214 96 320C96 426 182 512 288 512C329.5 512 367.9 498.9 399.2 476.5zM531.4 454.1L508.5 431.2C530.9 399.9 544 361.5 544 320C544 278.5 530.9 240.1 508.5 208.8L531.4 185.9C559.4 223.3 576 269.7 576 320.1C576 370.5 559.4 416.8 531.4 454.3zM512 320C512 352.6 502.2 382.9 485.5 408.2L397.3 320L485.5 231.8C502.2 257.1 512 287.4 512 320zM544 489.4C583.8 444.3 608 385 608 320C608 255 583.8 195.8 544 150.6C538.2 144 528 144 521.7 150.3L363.3 308.7C357.1 314.9 357.1 325.1 363.3 331.3C540.5 508.5 474.5 442.5 521.7 489.7C527.9 495.9 538.1 496 544 489.4zM192 344C205.3 344 216 333.3 216 320C216 306.7 205.3 296 192 296C178.7 296 168 306.7 168 320C168 333.3 178.7 344 192 344zM280 224C280 210.7 269.3 200 256 200C242.7 200 232 210.7 232 224C232 237.3 242.7 248 256 248C269.3 248 280 237.3 280 224zM256 440C269.3 440 280 429.3 280 416C280 402.7 269.3 392 256 392C242.7 392 232 402.7 232 416C232 429.3 242.7 440 256 440z"/></svg>