<svg xmlns="http://www.w3.org/2000/svg" viewBox="0 0 640 640"><!--! Font Awesome Pro 7.1.0 by @fontawesome - https://fontawesome.com License - https://fontawesome.com/license (Commercial License) Copyright 2025 Fonticons, Inc. --><path fill="currentColor" d="M243.2 249.6L198.4 283.2C194.4 286.2 192 291 192 296L192 544L256 544L256 448C256 412.7 284.7 384 320 384C355.3 384 384 412.7 384 448L384 544L448 544L448 296C448 291 445.6 286.2 441.6 283.2C406.4 256.8 387.2 242.4 384 240L384 143L320 89.7L256 143L256 240L243.2 249.6zM480 544L512 544C529.7 544 544 529.7 544 512L544 407.6C544 395.5 537.2 384.4 526.3 379L480 355.8L480 544zM160 544L160 355.8L113.7 379C102.8 384.4 96 395.4 96 407.6L96 512C96 529.7 110.3 544 128 544L160 544zM352 544L352 448C352 430.3 337.7 416 320 416C302.3 416 288 430.3 288 448L288 544L352 544zM256 576C149.3 576 154.7 576 128 576C92.7 576 64 547.3 64 512L64 407.6C64 383.4 77.7 361.2 99.4 350.4L160 320L160 296C160 280.9 167.1 266.7 179.2 257.6L224 224L224 143C224 133.5 228.2 124.5 235.5 118.4L304.6 60.8C313.5 53.4 326.4 53.4 335.3 60.8L404.4 118.4C411.8 124.5 416 133.5 416 143L416 224L460.8 257.6C472.9 266.7 480 280.9 480 296L480 320L540.6 350.3C562.3 361.1 576 383.3 576 407.5L576 512C576 547.3 547.3 576 512 576L256 576z"/></svg>