<svg xmlns="http://www.w3.org/2000/svg" viewBox="0 0 640 640"><!--! Font Awesome Pro 7.1.0 by @fontawesome - https://fontawesome.com License - https://fontawesome.com/license (Commercial License) Copyright 2025 Fonticons, Inc. --><path fill="currentColor" d="M59.3 36.8C53.1 30.6 42.9 30.6 36.7 36.8C30.5 43 30.5 53.2 36.7 59.4L580.7 603.4C586.9 609.6 597.1 609.6 603.3 603.4C609.5 597.2 609.5 587 603.3 580.8L423.5 401L439 384L544 384C579.3 384 608 355.3 608 320C608 284.7 579.3 256 544 256L439 256L267.8 69.2C264.8 65.9 260.5 64 256 64L176 64C170.9 64 166 66.5 163 70.6C160 74.7 159.2 80.1 160.8 85L187.4 164.9L59.3 36.8zM238 215.5L198.2 96L249 96L420.2 282.8C423.2 286.1 427.5 288 432 288L544 288C561.7 288 576 302.3 576 320C576 337.7 561.7 352 544 352L432 352C427.5 352 423.2 353.9 420.2 357.2L400.8 378.3L238 215.5zM40 176C35.1 176 30.4 178.3 27.4 182.2C24.4 186.1 23.3 191.1 24.5 195.9L55.5 320L24.5 444.1C23.3 448.9 24.4 453.9 27.4 457.8C30.4 461.7 35.1 464 40 464L88 464C92.9 464 97.5 461.8 100.5 458L159.7 384L217.8 384L160.8 554.9C159.2 559.8 160 565.1 163 569.3C166 573.5 170.8 575.9 176 575.9L256 575.9C260.5 575.9 264.8 574 267.8 570.7L369.4 459.8L346.8 437.2L249 543.9L198.2 543.9L255.2 373C256.8 368.1 256 362.8 253 358.6C250 354.4 245.2 352 240 352L152 352C147.1 352 142.5 354.2 139.5 358L80.3 432L60.5 432L87.5 323.9C88.1 321.3 88.1 318.7 87.5 316.1L60.5 208L80.3 208L139.5 282C142.5 285.8 147.1 288 152 288L197.5 288L165.5 256L159.7 256L136.5 227L85.5 176L40 176z"/></svg>