<svg xmlns="http://www.w3.org/2000/svg" viewBox="0 0 640 640"><!--! Font Awesome Pro 7.1.0 by @fontawesome - https://fontawesome.com License - https://fontawesome.com/license (Commercial License) Copyright 2025 Fonticons, Inc. --><path fill="currentColor" d="M69.2 372.2L180.1 270.6L202.7 293.2L96 391L96 441.8L266.9 384.8C271.8 383.2 277.1 384 281.3 387C285.5 390 287.9 394.8 287.9 400L287.9 488C287.9 492.9 285.7 497.5 281.9 500.5L207.9 559.7L207.9 579.5L316 552.5C318.5 551.9 321.2 551.9 323.8 552.5L431.9 579.5L431.9 559.7L357.9 500.5C354.1 497.5 351.9 492.9 351.9 488L351.9 442.5L383.9 474.5L383.9 480.3L412.9 503.5L463.9 554.5L463.9 600C463.9 604.9 461.6 609.6 457.7 612.6C453.8 615.6 448.8 616.7 444 615.5L319.9 584.5L195.8 615.5C191 616.7 186 615.6 182.1 612.6C178.2 609.6 176 604.9 176 600L176 552C176 547.1 178.2 542.5 182 539.5L256 480.3L256 422.2L85.1 479.2C80.2 480.8 74.9 480 70.7 477C66.5 474 64 469.1 64 464L64 384C64 379.5 65.9 375.2 69.2 372.2zM475.1 452.6L603.3 580.8C609.5 587 609.5 597.2 603.3 603.4C597.1 609.6 586.9 609.6 580.7 603.4L36.7 59.4C30.5 53.2 30.5 43 36.7 36.8C42.9 30.6 53.1 30.6 59.3 36.8L239 216.5L256 201L256 96C256 60.7 284.7 32 320 32C355.3 32 384 60.7 384 96L384 201L570.8 372.2C574.1 375.2 576 379.5 576 384L576 464C576 469.1 573.5 474 569.4 477C565.3 480 559.9 480.8 555 479.2L475.2 452.6zM424.5 402L544 441.8L544 391L357.2 219.8C353.9 216.8 352 212.5 352 208L352 96C352 78.3 337.7 64 320 64C302.3 64 288 78.3 288 96L288 208C288 212.5 286.1 216.8 282.8 219.8L261.7 239.2L424.5 402z"/></svg>