<svg xmlns="http://www.w3.org/2000/svg" viewBox="0 0 640 640"><!--! Font Awesome Pro 7.1.0 by @fontawesome - https://fontawesome.com License - https://fontawesome.com/license (Commercial License) Copyright 2025 Fonticons, Inc. --><path fill="currentColor" d="M543.7 304C561.5 304 576 318.5 576 336.3C576 354.2 561.5 368.6 543.7 368.6L128.1 368L117.5 368C94.3 368 74.4 351.4 70.3 328.6L51.3 224L63.8 224L115 297.2C118 301.5 122.9 304 128.1 304L224.1 304C229.2 304 234.1 301.5 237.1 297.4C240.1 293.3 240.9 287.9 239.3 283L182.2 112L233 112L404.2 298.8C407.2 302.1 411.5 304 416 304L543.7 304zM608 336.3C608 300.8 579.2 272 543.7 272L423 272L251.8 85.2C248.8 81.9 244.5 80 240 80L160 80C154.9 80 150 82.5 147 86.6C144 90.7 143.2 96.1 144.8 101L201.8 271.9L136.3 271.9L85.1 198.7C82.1 194.4 77.2 191.9 72 191.9L32 191.9C27.3 191.9 22.8 194 19.7 197.6C16.6 201.2 15.4 206 16.2 210.7L38.7 334.3C45.6 372.3 78.7 400 117.4 400L128 400L543.6 400.6C579.1 400.7 608 371.8 608 336.3zM48 544C39.2 544 32 551.2 32 560C32 568.8 39.2 576 48 576L592 576C600.8 576 608 568.8 608 560C608 551.2 600.8 544 592 544L48 544z"/></svg>