<svg xmlns="http://www.w3.org/2000/svg" viewBox="0 0 640 640"><!--! Font Awesome Pro 7.1.0 by @fontawesome - https://fontawesome.com License - https://fontawesome.com/license (Commercial License) Copyright 2025 Fonticons, Inc. --><path fill="currentColor" d="M256 96C256 60.7 284.7 32 320 32C355.3 32 384 60.7 384 96L384 201L570.8 372.2C574.1 375.2 576 379.5 576 384L576 464C576 469.1 573.5 474 569.4 477C565.3 480 559.9 480.8 555 479.2L384.1 422.2L384.1 480.3L458.1 539.5C461.9 542.5 464.1 547.1 464.1 552L464.1 600C464.1 604.9 461.8 609.6 457.9 612.6C454 615.6 449 616.7 444.2 615.5L320.1 584.5L196 615.5C191.2 616.7 186.2 615.6 182.3 612.6C178.4 609.6 176 604.9 176 600L176 552C176 547.1 178.2 542.5 182 539.5L256 480.3L256 422.2L85.1 479.2C80.2 480.8 74.9 480 70.7 477C66.5 474 64 469.1 64 464L64 384C64 379.5 65.9 375.2 69.2 372.2L256 201L256 96zM320 64C302.3 64 288 78.3 288 96L288 488C288 492.9 285.8 497.5 282 500.5L208 559.7L208 579.5L316.1 552.5C318.6 551.9 321.3 551.9 323.9 552.5L432 579.5L432 559.7L358 500.5C354.2 497.5 352 492.9 352 488L352 96C352 78.3 337.7 64 320 64zM384 244.4L384 388.5L544 441.8L544 391L384 244.3zM96 391L96 441.8L256 388.5L256 244.4L96 391.1z"/></svg>