<svg xmlns="http://www.w3.org/2000/svg" viewBox="0 0 640 640"><!--! Font Awesome Pro 7.1.0 by @fontawesome - https://fontawesome.com License - https://fontawesome.com/license (Commercial License) Copyright 2025 Fonticons, Inc. --><path fill="currentColor" d="M535.9 222.8C552.5 216.8 570.9 225.3 576.9 241.9C582.9 258.5 574.4 276.9 557.8 282.9L189.5 417C186.1 418.2 177.8 421.3 164.5 426.1C142.7 434 118.3 425.2 106.6 405.2L53 313.4L72.9 306.2L153.8 355.5C158 358 163 358.5 167.6 356.9L250.3 326.8C255.1 325 258.8 321.1 260.2 316.1C261.6 311.1 260.5 305.8 257.3 301.8L145.3 160.7L193 143.3L417.8 260.3C421.8 262.4 426.4 262.7 430.7 261.1L535.9 222.8zM607 231C594.9 197.8 558.2 180.7 525 192.7L426.4 228.6L201.6 111.6C197.6 109.5 193 109.2 188.7 110.8L113.5 138.2C108.7 140 105 143.9 103.6 148.9C102.2 153.9 103.3 159.2 106.5 163.2L218.5 304.3L163.9 324.2L83 274.9C78.8 272.4 73.8 271.9 69.2 273.5L24 290C19.5 291.6 16 295.1 14.4 299.6C12.8 304.1 13.2 309 15.6 313.1L79 421.4C98.5 454.8 139.1 469.4 175.4 456.2C188.7 451.4 197 448.3 200.4 447.1L568.8 313C602 300.9 619.1 264.2 607 231zM48.2 544C39.4 544 32.2 551.2 32.2 560C32.2 568.8 39.4 576 48.2 576L592.2 576C601 576 608.2 568.8 608.2 560C608.2 551.2 601 544 592.2 544L48.2 544z"/></svg>