<svg xmlns="http://www.w3.org/2000/svg" viewBox="0 0 640 640"><!--! Font Awesome Pro 7.1.0 by @fontawesome - https://fontawesome.com License - https://fontawesome.com/license (Commercial License) Copyright 2025 Fonticons, Inc. --><path fill="currentColor" d="M545.1 343.3C562.5 346.4 574.1 363 571.1 380.4C568.1 397.8 551.4 409.4 534 406.4L148 338.3C144.5 337.7 135.8 336.1 121.8 333.7C99 329.7 82.3 309.9 82.1 286.7L81.5 180.4L102.3 184.1L147.7 267.3C150 271.6 154.2 274.5 159 275.4L245.7 290.7C250.8 291.6 256 290 259.6 286.4C263.2 282.8 265 277.7 264.3 272.6L237.9 94.2L287.8 103L424 316.7C426.4 320.5 430.3 323.1 434.7 323.9L545 343.3zM602.6 385.9C608.7 351.1 585.5 317.9 550.7 311.8L447.3 293.5L311 79.8C308.6 76 304.7 73.4 300.3 72.6L221.6 58.8C216.5 57.9 211.3 59.5 207.7 63.1C204.1 66.7 202.3 71.8 203 76.9L229.4 255.1L172.2 245L126.8 161.8C124.5 157.5 120.3 154.6 115.5 153.7L68.2 145.5C63.5 144.7 58.7 146 55.1 149C51.5 152 49.4 156.6 49.4 161.3L50.1 286.8C50.3 325.5 78.1 358.4 116.2 365.2C130.1 367.7 138.9 369.2 142.4 369.8L528.4 437.9C563.2 444 596.4 420.8 602.5 386zM257.3 487C270.6 487 281.3 476.3 281.3 463C281.3 449.7 270.6 439 257.3 439C244 439 233.3 449.7 233.3 463C233.3 476.3 244 487 257.3 487zM375.8 479.7C375.8 466.4 365.1 455.7 351.8 455.7C338.5 455.7 327.8 466.4 327.8 479.7C327.8 493 338.5 503.7 351.8 503.7C365.1 503.7 375.8 493 375.8 479.7zM48 544C39.2 544 32 551.2 32 560C32 568.8 39.2 576 48 576L592 576C600.8 576 608 568.8 608 560C608 551.2 600.8 544 592 544L48 544z"/></svg>