<svg xmlns="http://www.w3.org/2000/svg" viewBox="0 0 640 640"><!--! Font Awesome Pro 7.1.0 by @fontawesome - https://fontawesome.com License - https://fontawesome.com/license (Commercial License) Copyright 2025 Fonticons, Inc. --><path fill="currentColor" d="M224 96C224 60.7 252.7 32 288 32C323.3 32 352 60.7 352 96L352 201L438.9 280.7C427.6 284.2 416.7 288.8 406.3 294.2L352 244.4L352 337C338.9 351.9 328 368.7 320 387.1L320 96C320 78.3 305.7 64 288 64C270.3 64 256 78.3 256 96L256 488C256 492.9 253.8 497.5 250 500.5L176 559.7L176 579.5L284.1 552.5C286.6 551.9 289.3 551.9 291.9 552.5L331 562.3C340.1 577.5 351.3 591.4 364.1 603.6L288 584.6L163.9 615.6C159.1 616.8 154.1 615.7 150.2 612.7C146.3 609.7 144 604.9 144 600L144 552C144 547.1 146.2 542.5 150 539.5L224 480.3L224 422.2L53.1 479.2C48.2 480.8 42.9 480 38.7 477C34.5 474 32 469.1 32 464L32 384C32 379.5 33.9 375.2 37.2 372.2L224 201L224 96zM64 391L64 441.8L224 388.5L224 244.4L64 391.1zM608 464C608 402.1 557.9 352 496 352C434.1 352 384 402.1 384 464C384 525.9 434.1 576 496 576C557.9 576 608 525.9 608 464zM352 464C352 384.5 416.5 320 496 320C575.5 320 640 384.5 640 464C640 543.5 575.5 608 496 608C416.5 608 352 543.5 352 464zM555.3 427.3L518.6 464L555.3 500.7C561.5 506.9 561.5 517.1 555.3 523.3C549.1 529.5 538.9 529.5 532.7 523.3L496 486.6L459.3 523.3C453.1 529.5 442.9 529.5 436.7 523.3C430.5 517.1 430.5 506.9 436.7 500.7L473.4 464L436.7 427.3C430.5 421.1 430.5 410.9 436.7 404.7C442.9 398.5 453.1 398.5 459.3 404.7L496 441.4L532.7 404.7C538.9 398.5 549.1 398.5 555.3 404.7C561.5 410.9 561.5 421.1 555.3 427.3z"/></svg>