<svg xmlns="http://www.w3.org/2000/svg" viewBox="0 0 640 640"><!--! Font Awesome Pro 7.1.0 by @fontawesome - https://fontawesome.com License - https://fontawesome.com/license (Commercial License) Copyright 2025 Fonticons, Inc. --><path fill="currentColor" d="M544 96C561.7 96 576 110.3 576 128C576 145.7 561.7 160 544 160C526.3 160 512 145.7 512 128C512 110.3 526.3 96 544 96zM544 192C579.3 192 608 163.3 608 128C608 92.7 579.3 64 544 64C508.7 64 480 92.7 480 128C480 163.3 508.7 192 544 192zM256 544C150 544 64 458 64 352C64 343.9 64.5 335.9 65.5 328L124.1 328C132.6 328 140.7 331.4 146.7 337.4L184 374.7L184 406.2C184 423.2 193.6 438.8 208.8 446.4C213.2 448.6 216 453.1 216 458L216 473.3C216 499.1 236.9 520.1 262.8 520.1C279 520.1 294.1 511.7 302.7 497.8L348.2 423.9C356 411.3 360.1 396.8 360.1 382L360.1 360.1C360.1 333.6 338.6 312.1 312.1 312.1L250.6 312.1C245.4 312.1 240.6 309.1 238.2 304.4C236 300 236.3 294.7 239.1 290.5L281.3 227C291.1 212.3 295.7 194.9 294.6 177.3L293.7 163.7C381.7 181.2 448.1 258.9 448.1 352C448.1 458 362.1 544 256.1 544zM72.3 296C96.3 217.3 169.4 160 256 160C257.8 160 259.5 160 261.3 160.1L262.6 179.4C263.3 189.9 260.5 200.4 254.6 209.2L212.3 272.7C203.2 286.4 202.1 303.9 209.4 318.6C217.2 334.1 233 343.9 250.4 343.9L311.9 343.9C320.7 343.9 327.9 351.1 327.9 359.9L327.9 381.8C327.9 390.7 325.4 399.4 320.8 407L275.4 481C272.7 485.4 267.9 488 262.8 488C254.6 488 248 481.4 248 473.2L248 457.9C248 440.9 238.4 425.3 223.2 417.7C218.8 415.5 216 411 216 406.1L216 361.4L211.3 356.7L169.4 314.8C157.4 302.8 141.1 296.1 124.1 296.1L72.3 296.1zM259.2 128C258.1 128 257.1 128 256 128C132.3 128 32 228.3 32 352C32 475.7 132.3 576 256 576C379.7 576 480 475.7 480 352C480 240.3 398.3 147.8 291.4 130.8L291.4 130.8C280.9 129.1 270.1 128.2 259.1 128L259.1 128z"/></svg>