<svg xmlns="http://www.w3.org/2000/svg" viewBox="0 0 640 640"><!--! Font Awesome Pro 7.1.0 by @fontawesome - https://fontawesome.com License - https://fontawesome.com/license (Commercial License) Copyright 2025 Fonticons, Inc. --><path fill="currentColor" d="M544 256C579.3 256 608 284.7 608 320C608 355.3 579.3 384 544 384L439 384L394 433.1C415.7 437.7 431.9 457 431.9 480C431.9 506.5 410.4 528 383.9 528L306.9 528L267.7 570.8C264.7 574.1 260.4 576 255.9 576L175.9 576C170.8 576 165.9 573.5 162.9 569.4C159.9 565.3 159.1 559.9 160.7 555L217.7 384.1L159.6 384.1L100.4 458.1C97.4 461.9 92.8 464.1 87.9 464.1L39.9 464.1C35 464.1 30.3 461.8 27.3 457.9C24.3 454 23.2 449 24.4 444.2L55.4 320.1L24.4 196C23.2 191.2 24.3 186.2 27.3 182.3C30.3 178.4 35.1 176 40 176L88 176C92.9 176 97.5 178.2 100.5 182L159.7 256L217.8 256L160.8 85.1C159.2 80.2 160 74.9 163 70.7C166 66.5 170.9 64 176 64L256 64C260.5 64 264.8 65.9 267.8 69.2L307 112L384 112C410.5 112 432 133.5 432 160C432 183.1 415.7 202.3 394.1 206.9L439.1 256L544.1 256zM336.4 496L384 496C392.8 496 400 488.8 400 480C400 471.2 392.8 464 384 464L365.7 464L336.4 496zM365.7 176L384 176C392.8 176 400 168.8 400 160C400 151.2 392.8 144 384 144L336.4 144L365.7 176zM576 320C576 302.3 561.7 288 544 288L152 288C147.1 288 142.5 285.8 139.5 282L80.3 208L60.5 208L87.5 316.1C88.1 318.6 88.1 321.3 87.5 323.9L60.5 432L80.3 432L139.5 358C142.5 354.2 147.1 352 152 352L544 352C561.7 352 576 337.7 576 320zM395.6 384L251.5 384L198.2 544L249 544L395.7 384zM249 96L198.2 96L251.5 256L395.6 256L248.9 96z"/></svg>