<svg xmlns="http://www.w3.org/2000/svg" viewBox="0 0 640 640"><!--! Font Awesome Pro 7.1.0 by @fontawesome - https://fontawesome.com License - https://fontawesome.com/license (Commercial License) Copyright 2025 Fonticons, Inc. --><path fill="currentColor" d="M408 32C465.4 32 512 78.6 512 136L512 153.4C547.7 160 572.3 188.8 575.6 226.3L576 235C576 262.9 550.7 309.8 510 346.7C506.2 350.2 501.2 352 496 352C490.8 352 485.8 350.2 482 346.7C441.3 309.9 416 263 416 235L416.4 226.3C419.7 188.8 444.4 160 480 153.4L480 136C480 96.2 447.8 64 408 64C368.2 64 336 96.2 336 136L336 592C336 600.8 328.8 608 320 608C311.2 608 304 600.8 304 592L304 264C304 224.2 271.8 192 232 192C192.2 192 160 224.2 160 264L160 312.2C160 312.6 159.9 313 159.9 313.4C195.6 320 220.3 348.8 223.7 386.3L224.1 395C224.1 422.9 198.8 469.8 158.1 506.7C154.3 510.2 149.3 512 144.1 512C138.9 512 133.9 510.2 130.1 506.7C89.3 469.9 64 423 64 395.1L64.4 386.4C67.7 348.9 92.4 320.1 128.1 313.5C128.1 313.1 128 312.7 128 312.3L128 264C128 206.6 174.6 160 232 160C260 160 285.3 171.1 304 189.1L304 136C304 78.6 350.6 32 408 32zM144 344C116.1 344 96 363.9 96 395.1C96 400.9 99.3 413.9 109.5 431.6C117.8 446.1 129.6 461.6 144 475.9C158.4 461.6 170.2 446 178.5 431.6C188.7 413.9 192 400.9 192 395.1C192 363.9 171.9 344 144 344zM496 184C468.1 184 448 203.9 448 235.1C448 240.9 451.3 253.9 461.5 271.6C469.8 286.1 481.6 301.6 496 315.9C510.4 301.6 522.2 286 530.5 271.6C540.7 253.9 544 240.9 544 235.1C544 203.9 523.9 184 496 184z"/></svg>