<svg xmlns="http://www.w3.org/2000/svg" viewBox="0 0 640 640"><!--! Font Awesome Pro 7.1.0 by @fontawesome - https://fontawesome.com License - https://fontawesome.com/license (Commercial License) Copyright 2025 Fonticons, Inc. --><path fill="currentColor" d="M224 96C224 60.7 252.7 32 288 32C323.3 32 352 60.7 352 96L352 201L436.5 278.5C429 286.2 422.5 294.8 417.1 304.1L352 244.4L352 388.5L391.1 401.5C384 409.8 378.3 419.3 374.3 429.6L352 422.2L352 480.3L368 493.1L368 534.1L326 500.5C322.2 497.5 320 492.9 320 488L320 96C320 78.3 305.7 64 288 64C270.3 64 256 78.3 256 96L256 488C256 492.9 253.8 497.5 250 500.5L176 559.7L176 579.5L284.1 552.5C286.6 551.9 289.3 551.9 291.9 552.5L368.7 571.7C370.3 584.7 374.5 596.8 380.7 607.7L288 584.5L163.9 615.5C159.1 616.7 154.1 615.6 150.2 612.6C146.3 609.6 144 604.9 144 600L144 552C144 547.1 146.2 542.5 150 539.5L224 480.3L224 422.2L53.1 479.2C48.2 480.8 42.9 480 38.7 477C34.5 474 32 469.1 32 464L32 384C32 379.5 33.9 375.2 37.2 372.2L224 201L224 96zM64 391L64 441.8L224 388.5L224 244.4L64 391.1zM448 416.1L448 368.1C448 323.9 483.8 288.1 528 288.1C572.2 288.1 608 323.9 608 368.1L608 418.7C626.6 425.3 640 443.1 640 464L640 560C640 586.5 618.5 608 592 608L464 608C437.5 608 416 586.5 416 560L416 464C416 443.1 429.4 425.3 448 418.7L448 416.1zM448 464L448 560C448 568.8 455.2 576 464 576L592 576C600.8 576 608 568.8 608 560L608 464C608 455.8 601.8 449 593.7 448.1L462.2 448.1C454.2 449 447.9 455.8 447.9 464zM576 368.1C576 341.6 554.5 320.1 528 320.1C501.5 320.1 480 341.6 480 368.1L480 416L576 416L576 368.1z"/></svg>