<svg xmlns="http://www.w3.org/2000/svg" viewBox="0 0 640 640"><!--! Font Awesome Pro 7.1.0 by @fontawesome - https://fontawesome.com License - https://fontawesome.com/license (Commercial License) Copyright 2025 Fonticons, Inc. --><path fill="currentColor" d="M280 64C271.9 64 265.1 70 264.1 78L257.7 128L224 128C215.2 128 208 135.2 208 144C208 152.8 215.2 160 224 160L253.7 160L241.5 256L200.9 256C195 256 189.1 256.3 183.3 256.7L158.7 201.5C156.1 195.7 150.4 192 144.1 192L104.1 192C96.9 192 90.6 196.8 88.7 203.8L68.8 276.1C47.6 279.9 32 298.4 32 320C32 341.6 47.5 360.1 68.8 363.9L88.5 436.2C90.4 443.2 96.7 448 103.9 448L143.9 448C150.2 448 156 444.3 158.5 438.5L183.1 383.3C189 383.8 194.9 384 200.7 384L241.3 384L253.5 480L223.8 480C215 480 207.8 487.2 207.8 496C207.8 504.8 215 512 223.8 512L257.5 512L263.9 562C264.9 570 271.7 576 279.8 576L335.8 576C343.9 576 350.7 570 351.7 562L358.1 512L399.9 512L399.9 544C399.9 552.8 407.1 560 415.9 560C424.7 560 431.9 552.8 431.9 544L431.9 512C440.7 512 447.9 504.8 447.9 496C447.9 487.2 440.7 480 431.9 480L431.9 448C431.9 439.2 424.7 432 415.9 432C407.1 432 399.9 439.2 399.9 448L399.9 480L362.2 480L374.4 384L543.8 384C579.1 384 607.8 355.3 607.8 320C607.8 284.7 579.1 256 543.8 256L374.4 256L362.2 160L399.9 160L399.9 192C399.9 200.8 407.1 208 415.9 208C424.7 208 431.9 200.8 431.9 192L431.9 160C440.7 160 447.9 152.8 447.9 144C447.9 135.2 440.7 128 431.9 128L431.9 96C431.9 87.2 424.7 80 415.9 80C407.1 80 399.9 87.2 399.9 96L399.9 128L358.1 128L351.7 78C350.7 70 343.9 64 335.8 64L280 64zM150.4 378.3L133.6 416L116.2 416L103.7 370.1L150.4 378.3zM133.6 224L150.4 261.7L103.7 269.9L116.2 224L133.6 224zM342.3 256L273.7 256L294.1 96L321.9 96L342.3 256zM342.3 384L321.9 544L294.1 544L273.7 384L342.3 384zM544 288C561.7 288 576 302.3 576 320C576 337.7 561.7 352 544 352L200.8 352C190.5 352 180.3 351.1 170.2 349.3L74.5 332.4C68.5 331.3 64.1 326.1 64.1 320C64.1 313.9 68.5 308.6 74.5 307.6L170.3 290.7C180.4 288.9 190.6 288 200.9 288L544 288z"/></svg>