<svg xmlns="http://www.w3.org/2000/svg" viewBox="0 0 640 640"><!--! Font Awesome Pro 7.1.0 by @fontawesome - https://fontawesome.com License - https://fontawesome.com/license (Commercial License) Copyright 2025 Fonticons, Inc. --><path fill="currentColor" d="M128.6 70.4C131.6 66.4 136.4 64 141.4 64L221.5 64C245.5 64 268.4 74.3 284.3 92.2L487.1 320L575.9 320L575.9 352L151.9 352C138.6 352 127.9 362.7 127.9 376L127.9 381.3C127.9 388.4 131.1 395.1 136.5 399.7C248.4 493 389.5 544 535.1 544L575.9 544L575.9 576L535.1 576C381.9 576 233.6 522.3 116 424.3C103.3 413.7 95.9 397.9 95.9 381.3L95.9 376C95.9 345.1 121 320 151.9 320L194.3 320L125.9 84.5C124.5 79.7 125.4 74.5 128.5 70.4zM260.5 113.5C250.6 102.4 236.4 96 221.6 96L162.8 96L227.8 320L444.4 320L260.6 113.5zM368 416L496 416C504.8 416 512 423.2 512 432C512 440.8 504.8 448 496 448L368 448C359.2 448 352 440.8 352 432C352 423.2 359.2 416 368 416z"/></svg>