<svg xmlns="http://www.w3.org/2000/svg" viewBox="0 0 640 640"><!--! Font Awesome Pro 7.1.0 by @fontawesome - https://fontawesome.com License - https://fontawesome.com/license (Commercial License) Copyright 2025 Fonticons, Inc. --><path fill="currentColor" d="M544 256C579.3 256 608 284.7 608 320C608 355.3 579.3 384 544 384L439 384L267.8 570.8C264.8 574.1 260.5 576 256 576L176 576C170.9 576 166 573.5 163 569.4C160 565.3 159.2 559.9 160.8 555L217.8 384.1L159.7 384.1L100.5 458.1C97.5 461.9 92.9 464.1 88 464.1L40 464.1C35.1 464.1 30.4 461.8 27.4 457.9C24.4 454 23.3 449 24.5 444.2L55.5 320.1L24.5 196C23.3 191.2 24.4 186.2 27.4 182.3C30.4 178.4 35.1 176 40 176L88 176C92.9 176 97.5 178.2 100.5 182L159.7 256L217.8 256L160.8 85.1C159.2 80.2 160 74.9 163 70.7C166 66.5 170.9 64 176 64L256 64C260.5 64 264.8 65.9 267.8 69.2L439 256L544 256zM576 320C576 302.3 561.7 288 544 288L152 288C147.1 288 142.5 285.8 139.5 282L80.3 208L60.5 208L87.5 316.1C88.1 318.6 88.1 321.3 87.5 323.9L60.5 432L80.3 432L139.5 358C142.5 354.2 147.1 352 152 352L544 352C561.7 352 576 337.7 576 320zM395.6 384L251.5 384L198.2 544L249 544L395.7 384zM249 96L198.2 96L251.5 256L395.6 256L248.9 96z"/></svg>