<svg xmlns="http://www.w3.org/2000/svg" viewBox="0 0 640 640"><!--! Font Awesome Pro 7.1.0 by @fontawesome - https://fontawesome.com License - https://fontawesome.com/license (Commercial License) Copyright 2025 Fonticons, Inc. --><path fill="currentColor" d="M288 176L288 181.3C269.4 174.7 256 156.9 256 136L256 130.7C274.6 137.3 288 155.1 288 176zM224 112L224 136C224 180.2 259.8 216 304 216C312.8 216 320 208.8 320 200L320 176C320 131.8 284.2 96 240 96C231.2 96 224 103.2 224 112zM112 128C103.2 128 96 135.2 96 144C96 152.8 103.2 160 112 160L176 160C184.8 160 192 152.8 192 144C192 135.2 184.8 128 176 128L112 128zM80 208C71.2 208 64 215.2 64 224C64 232.8 71.2 240 80 240L208 240C216.8 240 224 232.8 224 224C224 215.2 216.8 208 208 208L80 208zM96 304C96 312.8 103.2 320 112 320L176 320C184.8 320 192 312.8 192 304C192 295.2 184.8 288 176 288L112 288C103.2 288 96 295.2 96 304zM400 181.3C381.4 174.7 368 156.9 368 136L368 130.7C386.6 137.3 400 155.1 400 176L400 181.3zM352 96C343.2 96 336 103.2 336 112L336 136C336 180.2 371.8 216 416 216C424.8 216 432 208.8 432 200L432 176C432 131.8 396.2 96 352 96zM512 176L512 181.3C493.4 174.7 480 156.9 480 136L480 130.7C498.6 137.3 512 155.1 512 176zM448 112L448 136C448 180.2 483.8 216 528 216C536.8 216 544 208.8 544 200L544 176C544 131.8 508.2 96 464 96C455.2 96 448 103.2 448 112zM368 317.3L368 312C368 291.1 381.4 273.3 400 266.7L400 272C400 292.9 386.6 310.7 368 317.3zM416 232C371.8 232 336 267.8 336 312L336 336C336 344.8 343.2 352 352 352C396.2 352 432 316.2 432 272L432 248C432 239.2 424.8 232 416 232zM256 312C256 291.1 269.4 273.3 288 266.7L288 272C288 292.9 274.6 310.7 256 317.3L256 312zM320 248C320 239.2 312.8 232 304 232C259.8 232 224 267.8 224 312L224 336C224 344.8 231.2 352 240 352C284.2 352 320 316.2 320 272L320 248zM480 317.3L480 312C480 291.1 493.4 273.3 512 266.7L512 272C512 292.9 498.6 310.7 480 317.3zM528 232C483.8 232 448 267.8 448 312L448 336C448 344.8 455.2 352 464 352C508.2 352 544 316.2 544 272L544 248C544 239.2 536.8 232 528 232zM193.8 505.1C188.3 495.6 178.3 489.5 167.3 489.1C128 487.6 96.6 455.5 96 416L544 416C543.5 455.5 512 487.6 472.7 489.1C461.7 489.5 451.7 495.6 446.2 505.1C443.8 509.3 439.3 512 434.3 512L205.7 512C200.7 512 196.2 509.3 193.8 505.1zM95 384C77.9 384 64 397.9 64 415C64 472.3 109.3 518.9 166.1 521.1C174 534.8 188.8 544 205.7 544L434.3 544C451.3 544 466.1 534.8 473.9 521.1C530.6 518.9 576 472.3 576 415C576 397.9 562.1 384 545 384L95 384z"/></svg>