<svg xmlns="http://www.w3.org/2000/svg" viewBox="0 0 640 640"><!--! Font Awesome Pro 7.1.0 by @fontawesome - https://fontawesome.com License - https://fontawesome.com/license (Commercial License) Copyright 2025 Fonticons, Inc. --><path fill="currentColor" d="M16 80C7.2 80 0 87.2 0 96L0 240C0 266.5 21.5 288 48 288L64 288L64 544C64 552.8 71.2 560 80 560C88.8 560 96 552.8 96 544L96 288L112 288C138.5 288 160 266.5 160 240L160 96C160 87.2 152.8 80 144 80C135.2 80 128 87.2 128 96L128 240C128 248.8 120.8 256 112 256L96 256L96 96C96 87.2 88.8 80 80 80C71.2 80 64 87.2 64 96L64 256L48 256C39.2 256 32 248.8 32 240L32 96C32 87.2 24.8 80 16 80zM498 142.9C455.3 103.8 398.4 80 336 80C282 80 232.1 97.9 192 128L192 169.9C229.4 134 280.1 112 336 112C394.9 112 448 136.5 485.9 175.8C489 163.8 493.1 152.9 498 142.9zM522.5 412.3C488.5 480.9 417.8 528 336 528C262.2 528 197.4 489.6 160.5 431.6C152 438.1 142.2 442.9 131.5 445.6C173.7 514.2 249.5 560 336 560C434.4 560 519 500.8 556 416L544 416C536.4 416 529.2 414.7 522.5 412.3zM480 320C480 240.5 415.5 176 336 176C256.5 176 192 240.5 192 320C192 399.5 256.5 464 336 464C415.5 464 480 399.5 480 320zM224 320C224 258.1 274.1 208 336 208C397.9 208 448 258.1 448 320C448 381.9 397.9 432 336 432C274.1 432 224 381.9 224 320zM608 118.4L608 352L544 352L544 224C544 162.7 583.4 131.8 608 118.4zM640 352L640 100.9C640 89.4 630.7 80 619.1 80C617 80 615 80.3 613 81C596.1 87.2 511.9 123.2 511.9 224L511.9 352C511.9 369.7 526.2 384 543.9 384L607.9 384L607.9 544C607.9 552.8 615.1 560 623.9 560C632.7 560 639.9 552.8 639.9 544L639.9 352z"/></svg>