<svg xmlns="http://www.w3.org/2000/svg" viewBox="0 0 640 640"><!--! Font Awesome Pro 7.1.0 by @fontawesome - https://fontawesome.com License - https://fontawesome.com/license (Commercial License) Copyright 2025 Fonticons, Inc. --><path fill="currentColor" d="M492.4 101.6C504.5 108.8 512 121.9 512 136L512 504C512 518.1 504.5 531.2 492.4 538.4C480.3 545.6 465.2 545.9 452.8 539.1L116.8 355.1C104 348.1 96 334.6 96 320C96 305.4 104 291.9 116.8 284.9L452.8 100.9C465.2 94.1 480.2 94.4 492.4 101.6zM468.2 129L132.2 313C129.6 314.4 128 317.1 128 320C128 322.9 129.6 325.6 132.2 327L468.2 511C470.7 512.4 473.7 512.3 476.1 510.9C478.5 509.5 480 506.8 480 504L480 136C480 133.2 478.5 130.6 476.1 129.1C473.7 127.6 470.7 127.6 468.2 129z"/></svg>