<svg xmlns="http://www.w3.org/2000/svg" viewBox="0 0 640 640"><!--! Font Awesome Pro 7.1.0 by @fontawesome - https://fontawesome.com License - https://fontawesome.com/license (Commercial License) Copyright 2025 Fonticons, Inc. --><path fill="currentColor" d="M448 144C448 135.2 440.8 128 432 128C423.2 128 416 135.2 416 144L416 496C416 504.8 423.2 512 432 512C440.8 512 448 504.8 448 496L448 144zM576 144C576 135.2 568.8 128 560 128C551.2 128 544 135.2 544 144L544 496C544 504.8 551.2 512 560 512C568.8 512 576 504.8 576 496L576 144zM288 320L96 480L96 160L288 320zM116.5 135.4C107 127.5 93.7 125.7 82.4 131C71.1 136.3 64 147.6 64 160L64 480C64 492.4 71.2 503.7 82.4 509C93.6 514.3 106.9 512.6 116.5 504.6L308.5 344.6C315.8 338.5 320 329.5 320 320C320 310.5 315.8 301.5 308.5 295.4L116.5 135.4z"/></svg>