<svg xmlns="http://www.w3.org/2000/svg" viewBox="0 0 640 640"><!--! Font Awesome Pro 7.1.0 by @fontawesome - https://fontawesome.com License - https://fontawesome.com/license (Commercial License) Copyright 2025 Fonticons, Inc. --><path fill="currentColor" d="M208 32C216.8 32 224 39.2 224 48L224 160L416 160L416 48C416 39.2 423.2 32 432 32C440.8 32 448 39.2 448 48L448 160L528 160C536.8 160 544 167.2 544 176C544 184.8 536.8 192 528 192L512 192L512 288C512 388.6 434.6 471.2 336 479.3L336 560C336 568.8 328.8 576 320 576C311.2 576 304 568.8 304 560L304 479.3C205.4 471.2 128 388.6 128 288L128 192L112 192C103.2 192 96 184.8 96 176C96 167.2 103.2 160 112 160L192 160L192 48C192 39.2 199.2 32 208 32zM160 192L160 288C160 376.4 231.6 448 320 448C408.4 448 480 376.4 480 288L480 192L160 192z"/></svg>