<svg xmlns="http://www.w3.org/2000/svg" viewBox="0 0 640 640"><!--! Font Awesome Pro 7.1.0 by @fontawesome - https://fontawesome.com License - https://fontawesome.com/license (Commercial License) Copyright 2025 Fonticons, Inc. --><path fill="currentColor" d="M176 32C184.8 32 192 39.2 192 48L192 160L384 160L384 48C384 39.2 391.2 32 400 32C408.8 32 416 39.2 416 48L416 160L496 160C504.8 160 512 167.2 512 176C512 184.8 504.8 192 496 192L480 192L480 272.7C469 273.6 458.4 275.4 448 278.1L448 192.1L128 192.1L128 288.1C128 376.5 199.6 448.1 288 448.1C293.6 448.1 299.2 447.8 304.7 447.2C303.7 458.5 303.8 469.6 304.6 479.4L304 479.5L304 560.2C304 569 296.8 576.2 288 576.2C279.2 576.2 272 569 272 560.2L272 479.5C173.4 471.2 96 388.6 96 288L96 192L80 192C71.2 192 64 184.8 64 176C64 167.2 71.2 160 80 160L160 160L160 48C160 39.2 167.2 32 176 32zM496 576C557.9 576 608 525.9 608 464C608 402.1 557.9 352 496 352C434.1 352 384 402.1 384 464C384 525.9 434.1 576 496 576zM496 320C575.5 320 640 384.5 640 464C640 543.5 575.5 608 496 608C416.5 608 352 543.5 352 464C352 384.5 416.5 320 496 320zM528.6 388.7C534.8 394.9 534.8 405.1 528.6 411.3L492 448L538.7 448C545.2 448 551 451.9 553.5 457.9C556 463.9 554.6 470.8 550 475.3L486 539.3C479.8 545.5 469.6 545.5 463.4 539.3C457.2 533.1 457.2 522.9 463.4 516.7L500.1 480L453.4 480C446.9 480 441.1 476.1 438.6 470.1C436.1 464.1 437.5 457.2 442.1 452.7L506.1 388.7C512.3 382.5 522.5 382.5 528.7 388.7z"/></svg>