<svg xmlns="http://www.w3.org/2000/svg" viewBox="0 0 640 640"><!--! Font Awesome Pro 7.1.0 by @fontawesome - https://fontawesome.com License - https://fontawesome.com/license (Commercial License) Copyright 2025 Fonticons, Inc. --><path fill="currentColor" d="M496 352C557.9 352 608 402.1 608 464C608 525.9 557.9 576 496 576C434.1 576 384 525.9 384 464C384 402.1 434.1 352 496 352zM496 608C575.5 608 640 543.5 640 464C640 384.5 575.5 320 496 320C416.5 320 352 384.5 352 464C352 543.5 416.5 608 496 608zM496 384C487.2 384 480 391.2 480 400L480 448L432 448C423.2 448 416 455.2 416 464C416 472.8 423.2 480 432 480L480 480L480 528C480 536.8 487.2 544 496 544C504.8 544 512 536.8 512 528L512 480L560 480C568.8 480 576 472.8 576 464C576 455.2 568.8 448 560 448L512 448L512 400C512 391.2 504.8 384 496 384zM192 48C192 39.2 184.8 32 176 32C167.2 32 160 39.2 160 48L160 160L80 160C71.2 160 64 167.2 64 176C64 184.8 71.2 192 80 192L96 192L96 288C96 388.6 173.4 471.2 272 479.3L272 560C272 568.8 279.2 576 288 576C296.8 576 304 568.8 304 560L304 479.3C304.2 479.3 304.4 479.3 304.6 479.2C303.8 469.4 303.7 458.4 304.7 447C299.2 447.6 293.6 447.9 288 447.9C199.6 447.9 128 376.3 128 287.9L128 191.9L448 191.9L448 277.9C458.4 275.2 469 273.4 480 272.5L480 191.8L496 191.8C504.8 191.8 512 184.6 512 175.8C512 167 504.8 159.8 496 159.8L416 159.8L416 47.8C416 39 408.8 31.8 400 31.8C391.2 31.8 384 39 384 47.8L384 159.8L192 159.8L192 47.8z"/></svg>