<svg xmlns="http://www.w3.org/2000/svg" viewBox="0 0 640 640"><!--! Font Awesome Pro 7.1.0 by @fontawesome - https://fontawesome.com License - https://fontawesome.com/license (Commercial License) Copyright 2025 Fonticons, Inc. --><path fill="currentColor" d="M304 272L304 432C304 440.8 311.2 448 320 448C328.8 448 336 440.8 336 432L336 272L496 272C504.8 272 512 264.8 512 256C512 247.2 504.8 240 496 240L336 240L336 80C336 71.2 328.8 64 320 64C311.2 64 304 71.2 304 80L304 240L144 240C135.2 240 128 247.2 128 256C128 264.8 135.2 272 144 272L304 272zM128 560C128 568.8 135.2 576 144 576L496 576C504.8 576 512 568.8 512 560C512 551.2 504.8 544 496 544L144 544C135.2 544 128 551.2 128 560z"/></svg>