<svg xmlns="http://www.w3.org/2000/svg" viewBox="0 0 640 640"><!--! Font Awesome Pro 7.1.0 by @fontawesome - https://fontawesome.com License - https://fontawesome.com/license (Commercial License) Copyright 2025 Fonticons, Inc. --><path fill="currentColor" d="M336 80C336 71.2 328.8 64 320 64C311.2 64 304 71.2 304 80L304 304L80 304C71.2 304 64 311.2 64 320C64 328.8 71.2 336 80 336L304 336L304 560C304 568.8 311.2 576 320 576C328.8 576 336 568.8 336 560L336 336L560 336C568.8 336 576 328.8 576 320C576 311.2 568.8 304 560 304L336 304L336 80z"/></svg>