<svg xmlns="http://www.w3.org/2000/svg" viewBox="0 0 640 640"><!--! Font Awesome Pro 7.1.0 by @fontawesome - https://fontawesome.com License - https://fontawesome.com/license (Commercial License) Copyright 2025 Fonticons, Inc. --><path fill="currentColor" d="M512 288C512 352.8 479.9 410.1 430.7 444.9C429.5 457.9 427.7 472 425.6 485.6C496.1 447.9 544.1 373.5 544.1 288C544.1 164.3 443.8 64 320.1 64C196.4 64 96 164.3 96 288C96 373.5 144 447.9 214.4 485.6C212.3 472 210.5 457.9 209.3 444.9C160.1 410.1 128 352.8 128 288C128 182 214 96 320 96C426 96 512 182 512 288zM416 288C416 310.5 408.3 331.1 395.3 347.5C403.7 353.3 411.5 360.8 417.9 370.4C436.7 348.1 448 319.4 448 288C448 217.3 390.7 160 320 160C249.3 160 192 217.3 192 288C192 319.4 203.3 348.2 222.1 370.4C228.4 360.8 236.3 353.2 244.7 347.5C231.8 331.1 224 310.5 224 288C224 235 267 192 320 192C373 192 416 235 416 288zM320 272C328.8 272 336 279.2 336 288C336 296.8 328.8 304 320 304C311.2 304 304 296.8 304 288C304 279.2 311.2 272 320 272zM320 336C346.5 336 368 314.5 368 288C368 261.5 346.5 240 320 240C293.5 240 272 261.5 272 288C272 314.5 293.5 336 320 336zM305.5 542.2C301.9 528.6 296.9 504.5 292.8 479.2C288.5 452.8 285.5 427.9 285.5 413.5C285.5 409.2 286.4 407.7 286.6 407.4C286.8 407.1 287.3 406.2 289.4 405.1C294.6 402.2 304.7 400 320.1 400C335.5 400 345.6 402.2 350.8 405.1C352.9 406.2 353.4 407.1 353.6 407.4C353.8 407.7 354.7 409.2 354.7 413.5C354.7 427.8 351.7 452.7 347.4 479.1C343.3 504.3 338.3 528.5 334.6 542.2C333.6 542.6 332.1 543 329.7 543.4C327 543.8 323.8 544 320 544C316.2 544 313 543.8 310.3 543.4C308 543 306.4 542.6 305.4 542.2zM274.9 551.7C280.2 571.5 300.4 576 320 576C339.6 576 359.8 571.4 365.1 551.7C373.2 521.8 386.6 447.8 386.6 413.5C386.6 377 354.2 368 320 368C285.8 368 253.4 377 253.4 413.5C253.4 447.9 266.8 522 274.9 551.7z"/></svg>