<svg xmlns="http://www.w3.org/2000/svg" viewBox="0 0 640 640"><!--! Font Awesome Pro 7.1.0 by @fontawesome - https://fontawesome.com License - https://fontawesome.com/license (Commercial License) Copyright 2025 Fonticons, Inc. --><path fill="currentColor" d="M320 96C311.2 96 304 103.2 304 112C304 120.8 311.2 128 320 128L384 128C392.8 128 400 120.8 400 112C400 103.2 392.8 96 384 96L320 96zM274.7 96C281.3 77.4 299.1 64 320 64L384 64C410.5 64 432 85.5 432 112C432 138.5 410.5 160 384 160L320 160C299.1 160 281.3 146.6 274.7 128L272 128C245.5 128 224 149.5 224 176L224 224L504 224C512.8 224 520 231.2 520 240C520 248.8 512.8 256 504 256L491.8 256L469.1 517.5C466.2 550.6 438.5 576 405.3 576L234.7 576C201.5 576 173.8 550.6 170.9 517.5L148.2 256L136 256C127.2 256 120 248.8 120 240C120 231.2 127.2 224 136 224L192 224L192 176C192 131.8 227.8 96 272 96L274.7 96zM437.2 514.8L459.7 256L180.3 256L202.8 514.8C204.2 531.3 218.1 544 234.7 544L405.3 544C421.9 544 435.7 531.3 437.2 514.8z"/></svg>