<svg xmlns="http://www.w3.org/2000/svg" viewBox="0 0 640 640"><!--! Font Awesome Pro 7.1.0 by @fontawesome - https://fontawesome.com License - https://fontawesome.com/license (Commercial License) Copyright 2025 Fonticons, Inc. --><path fill="currentColor" d="M336 80C336 71.2 328.8 64 320 64C311.2 64 304 71.2 304 80L304 96L224 96C206.3 96 192 110.3 192 128C174.3 128 160 142.3 160 160L160 544L144 544C135.2 544 128 551.2 128 560C128 568.8 135.2 576 144 576L496 576C504.8 576 512 568.8 512 560C512 551.2 504.8 544 496 544L480 544L480 160C480 142.3 465.7 128 448 128C448 110.3 433.7 96 416 96L336 96L336 80zM416 128C416 145.7 430.3 160 448 160L448 544L192 544L192 160C209.7 160 224 145.7 224 128L416 128zM264 192C241.9 192 224 209.9 224 232L224 344C224 366.1 241.9 384 264 384L296 384C318.1 384 336 366.1 336 344L336 304L376 304C398.1 304 416 286.1 416 264L416 232C416 209.9 398.1 192 376 192L264 192zM304 224L304 272L256 272L256 232C256 227.6 259.6 224 264 224L304 224zM304 304L304 344C304 348.4 300.4 352 296 352L264 352C259.6 352 256 348.4 256 344L256 304L304 304zM336 224L376 224C380.4 224 384 227.6 384 232L384 264C384 268.4 380.4 272 376 272L336 272L336 224z"/></svg>