<svg xmlns="http://www.w3.org/2000/svg" viewBox="0 0 640 640"><!--! Font Awesome Pro 7.1.0 by @fontawesome - https://fontawesome.com License - https://fontawesome.com/license (Commercial License) Copyright 2025 Fonticons, Inc. --><path fill="currentColor" d="M448 96C456.8 96 464 103.2 464 112L464 272.9L506.4 257C514.7 253.9 523.9 258.1 527 266.4C530.1 274.7 525.9 283.9 517.6 287L464 307.1L464 528C464 536.8 456.8 544 448 544C439.2 544 432 536.8 432 528L432 319.1L389.6 335C381.3 338.1 372.1 333.9 369 325.6C365.9 317.3 370.1 308.1 378.4 305L432 284.9L432 112C432 103.2 439.2 96 448 96zM112 256L304 256C310.1 256 315.6 259.4 318.3 264.8C321 270.2 320.4 276.7 316.8 281.6L144 512L304 512C312.8 512 320 519.2 320 528C320 536.8 312.8 544 304 544L112 544C105.9 544 100.4 540.6 97.7 535.2C95 529.8 95.6 523.3 99.2 518.4L272 288L112 288C103.2 288 96 280.8 96 272C96 263.2 103.2 256 112 256z"/></svg>