<svg xmlns="http://www.w3.org/2000/svg" viewBox="0 0 640 640"><!--! Font Awesome Pro 7.1.0 by @fontawesome - https://fontawesome.com License - https://fontawesome.com/license (Commercial License) Copyright 2025 Fonticons, Inc. --><path fill="currentColor" d="M160 144C160 135.2 152.8 128 144 128C135.2 128 128 135.2 128 144C128 152.8 135.2 160 144 160C152.8 160 160 152.8 160 144zM96 144C96 117.5 117.5 96 144 96C170.5 96 192 117.5 192 144C192 170.5 170.5 192 144 192C117.5 192 96 170.5 96 144zM480 160L480 256L528 256C536.8 256 544 248.8 544 240L544 176C544 167.2 536.8 160 528 160L480 160zM448 160L336 160C327.2 160 320 167.2 320 176L320 240C320 248.8 327.2 256 336 256L448 256L448 160zM288 176C288 149.5 309.5 128 336 128L528 128C554.5 128 576 149.5 576 176L576 240C576 266.5 554.5 288 528 288L336 288C309.5 288 288 266.5 288 240L288 176zM336 384C327.2 384 320 391.2 320 400L320 464C320 472.8 327.2 480 336 480L384 480L384 384L336 384zM416 480L528 480C536.8 480 544 472.8 544 464L544 400C544 391.2 536.8 384 528 384L416 384L416 480zM288 400C288 373.5 309.5 352 336 352L528 352C554.5 352 576 373.5 576 400L576 464C576 490.5 554.5 512 528 512L336 512C309.5 512 288 490.5 288 464L288 400zM144 416C152.8 416 160 408.8 160 400C160 391.2 152.8 384 144 384C135.2 384 128 391.2 128 400C128 408.8 135.2 416 144 416zM144 352C170.5 352 192 373.5 192 400C192 426.5 170.5 448 144 448C117.5 448 96 426.5 96 400C96 373.5 117.5 352 144 352zM104 256C99.6 256 96 259.6 96 264L96 272C96 280.8 88.8 288 80 288C71.2 288 64 280.8 64 272L64 264C64 241.9 81.9 224 104 224L184 224C206.1 224 224 241.9 224 264L224 272C224 280.8 216.8 288 208 288C199.2 288 192 280.8 192 272L192 264C192 259.6 188.4 256 184 256L104 256zM96 520L96 528C96 536.8 88.8 544 80 544C71.2 544 64 536.8 64 528L64 520C64 497.9 81.9 480 104 480L184 480C206.1 480 224 497.9 224 520L224 528C224 536.8 216.8 544 208 544C199.2 544 192 536.8 192 528L192 520C192 515.6 188.4 512 184 512L104 512C99.6 512 96 515.6 96 520z"/></svg>