<svg xmlns="http://www.w3.org/2000/svg" viewBox="0 0 640 640"><!--! Font Awesome Pro 7.1.0 by @fontawesome - https://fontawesome.com License - https://fontawesome.com/license (Commercial License) Copyright 2025 Fonticons, Inc. --><path fill="currentColor" d="M125 130.6C173.1 65.3 259.4 42.6 321.7 86.7C364.3 116.2 371.9 166.7 370.6 205.2C370.2 216.6 368.9 227.4 367.4 237C375.6 232.3 384.9 227.5 395 223.2C430 208.4 479.2 198 521.2 228.1C585.2 273.4 593.4 368.2 546.4 437.8C463 561 289.4 622.8 165.9 534.3L154.7 525.8C42.3 434.8 39.7 256.5 120.5 137.1L125 130.6zM303.3 112.8C257.1 80.1 186.6 95.9 147.1 154.9C70.2 268.4 79.4 433.3 184.6 508.4L194.5 515.1C294.9 577.8 436 533.1 512.5 430.5L520 420C559.6 361.3 549.4 287.3 502.8 254.3C474.8 234.1 439.5 239.3 407.6 252.8C392.1 259.4 378.4 267.4 368.6 274C363.4 277.5 358.3 281.1 353.4 285C347.9 289.5 340.1 289.9 334.2 285.9C328.3 281.9 325.8 274.5 328 267.7C329.9 261.6 331.5 255.4 332.8 249.2C335.4 237.5 338.1 221.5 338.7 204.2C339.9 168.7 332.1 132.8 303.3 112.9z"/></svg>