<svg xmlns="http://www.w3.org/2000/svg" viewBox="0 0 640 640"><!--! Font Awesome Pro 7.1.0 by @fontawesome - https://fontawesome.com License - https://fontawesome.com/license (Commercial License) Copyright 2025 Fonticons, Inc. --><path fill="currentColor" d="M318.4 37.9C321.9 33.6 327.4 31.4 332.9 32.2C379.8 38.5 416 78.8 416 127.4C416 133.1 415.5 138.6 414.6 144L424 144C472.6 144 512 183.4 512 232C512 246.8 508.3 260.8 501.8 273.1C543.8 279.7 576 316.1 576 360C576 408.6 536.6 448 488 448L461.5 448C458.3 435.9 452.1 424.9 443.8 416L488 416C518.9 416 544 390.9 544 360C544 332.1 523.6 308.9 496.8 304.7L474.7 301.2C469.6 300.4 465.2 297.2 462.9 292.6C460.6 288 460.7 282.5 463.1 278L473.6 258.2L473.6 258.2C477.7 250.4 480 241.6 480 232.1C480 201.2 454.9 176.1 424 176.1L395.6 176.1C390.9 176.1 386.4 174 383.4 170.4C380.4 166.8 379.1 162 379.9 157.4L383.2 138.7L383.2 138.7C383.8 135.1 384.2 131.4 384.2 127.6C384.2 103.8 371.2 83 351.9 71.9C352.1 74.4 352.2 77 352.2 79.5C352.2 110.9 339.3 135.7 317.9 152.4C297 168.7 269.3 176.2 240.2 176.2L216.2 176.2C185.3 176.2 160.2 201.3 160.2 232.2C160.2 241.7 162.5 250.6 166.6 258.3L177.1 278.1C179.5 282.7 179.6 288.1 177.3 292.7C175 297.3 170.6 300.5 165.5 301.3L143.4 304.8C116.7 309 96.2 332.2 96.2 360.1C96.2 391 121.3 416.1 152.2 416.1L173.7 416.1L166.3 423.5C159.2 430.6 153.7 438.9 149.9 448C102.4 446.8 64.2 407.9 64.2 360C64.2 316.1 96.3 279.7 138.4 273.1C131.9 260.8 128.2 246.9 128.2 232C128.2 183.4 167.6 144 216.2 144L240.2 144C264.2 144 284.4 137.8 298.3 127C311.7 116.6 320.2 101.1 320.2 79.4C320.2 70.2 318.7 61.4 315.9 53.3C314.1 48.1 315.1 42.2 318.7 38zM341.7 320C361.5 320 375.8 338.8 370.5 357.9L349.9 432L388.6 432C403.7 432 415.9 444.2 415.9 459.3C415.9 466.5 413 473.5 407.9 478.6L287.4 599.3C281.8 604.9 274.2 608 266.3 608C246.5 608 232.2 589.2 237.5 570.1L258.1 496L219.4 496C204.3 496 192.1 483.8 192.1 468.7C192.1 461.5 195 454.5 200.1 449.4L320.6 328.7C326.2 323.1 333.8 320 341.7 320zM230.6 464L279.1 464C289.5 464 297.3 474.2 294.5 484.3L270.4 570.9L377.3 464L328.8 464C318.4 464 310.6 453.8 313.4 443.7L337.5 357.1L230.6 464z"/></svg>