<svg xmlns="http://www.w3.org/2000/svg" viewBox="0 0 640 640"><!--! Font Awesome Pro 7.1.0 by @fontawesome - https://fontawesome.com License - https://fontawesome.com/license (Commercial License) Copyright 2025 Fonticons, Inc. --><path fill="currentColor" d="M288 64C281.5 64 275.7 67.9 273.2 73.9C270.7 79.9 272.1 86.8 276.7 91.3L282.5 97.1C291.2 105.8 296 117.5 296 129.8L296 138.7C296 159.3 279.3 176 258.7 176L240 176C191.4 176 152 215.4 152 264C152 271.2 152.9 278.3 154.5 285.1C120.4 297.2 96 329.8 96 368C96 384 100.3 399 107.7 411.9C81.5 427.2 64 455.5 64 488C64 536.6 103.4 576 152 576L488 576C536.6 576 576 536.6 576 488C576 455.5 558.4 427.2 532.3 411.9C539.8 399 544 384 544 368C544 329.7 519.6 297.2 485.5 285.1C487.2 278.3 488 271.3 488 264C488 229 467.6 198.9 438.1 184.7C426.9 116.3 367.6 64 296 64L288 64zM328 129.8C328 119.1 325.8 108.6 321.7 99C367.8 109.8 403 149.2 407.5 197.4C408.1 203.7 412.3 209 418.2 211C440.2 218.6 456 239.4 456 264C456 273.1 453.8 281.7 450 289.2C447.6 293.9 447.7 299.4 450.2 304C452.7 308.6 457.3 311.7 462.5 312.3C490.4 315.5 512 339.2 512 367.9C512 383.2 505.8 397.1 495.8 407.3C491.8 411.3 490.3 417.2 491.7 422.7C493.1 428.2 497.4 432.5 502.9 434C526.6 440.5 543.9 462.3 543.9 488C543.9 518.9 518.8 544 487.9 544L152 544C121.1 544 96 518.9 96 488C96 462.3 113.4 440.6 137 434C142.5 432.5 146.7 428.2 148.2 422.7C149.7 417.2 148.1 411.4 144.1 407.3C134.1 397.2 127.9 383.3 127.9 367.9C127.9 339.2 149.6 315.5 177.4 312.3C182.6 311.7 187.2 308.6 189.7 304C192.2 299.4 192.3 293.9 189.9 289.2C186.1 281.6 183.9 273.1 183.9 264C183.9 233.1 209 208 239.9 208L258.6 208C297 208 328 177 328 138.7L328 129.8zM256 360C269.3 360 280 349.3 280 336C280 322.7 269.3 312 256 312C242.7 312 232 322.7 232 336C232 349.3 242.7 360 256 360zM408 336C408 322.7 397.3 312 384 312C370.7 312 360 322.7 360 336C360 349.3 370.7 360 384 360C397.3 360 408 349.3 408 336zM236.3 416C220.7 416 208 428.7 208 444.3C208 449.8 209.6 455.8 213.6 460.9C223 472.9 258.4 512 320 512C381.6 512 417 472.8 426.4 460.9C430.4 455.8 432 449.8 432 444.3C432 428.7 419.3 416 403.7 416L236.3 416zM320 480C281.8 480 256.7 460.2 244.9 448L395.2 448C383.4 460.2 358.3 480 320.1 480z"/></svg>