<svg xmlns="http://www.w3.org/2000/svg" viewBox="0 0 640 640"><!--! Font Awesome Pro 7.1.0 by @fontawesome - https://fontawesome.com License - https://fontawesome.com/license (Commercial License) Copyright 2025 Fonticons, Inc. --><path fill="currentColor" d="M544 320C544 196.3 443.7 96 320 96C196.3 96 96 196.3 96 320C96 443.7 196.3 544 320 544C443.7 544 544 443.7 544 320zM64 320C64 178.6 178.6 64 320 64C461.4 64 576 178.6 576 320C576 461.4 461.4 576 320 576C178.6 576 64 461.4 64 320zM432 256C432 194.1 381.9 144 320 144C258.1 144 208 194.1 208 256C208 317.9 258.1 368 320 368C381.9 368 432 317.9 432 256zM176 256C176 176.5 240.5 112 320 112C399.5 112 464 176.5 464 256C464 335.5 399.5 400 320 400C240.5 400 176 335.5 176 256zM320 224C328.8 224 336 216.8 336 208C336 199.2 328.8 192 320 192C311.2 192 304 199.2 304 208C304 216.8 311.2 224 320 224zM357.3 238.2C368.8 248.5 376 263.4 376 280C376 310.9 350.9 336 320 336C289.1 336 264 310.9 264 280C264 263.4 271.2 248.5 282.7 238.2C276 229.9 272 219.4 272 208C272 181.5 293.5 160 320 160C346.5 160 368 181.5 368 208C368 219.5 364 230 357.3 238.2zM320 256C306.7 256 296 266.7 296 280C296 293.3 306.7 304 320 304C333.3 304 344 293.3 344 280C344 266.7 333.3 256 320 256z"/></svg>