<svg xmlns="http://www.w3.org/2000/svg" viewBox="0 0 640 640"><!--! Font Awesome Pro 7.1.0 by @fontawesome - https://fontawesome.com License - https://fontawesome.com/license (Commercial License) Copyright 2025 Fonticons, Inc. --><path fill="currentColor" d="M273.2 73.9C275.7 67.9 281.5 64 288 64L296 64C367.6 64 427 116.2 438.1 184.7C467.6 198.9 488 229.1 488 264C488 271.2 487.1 278.3 485.5 285.1C519.6 297.2 544 329.8 544 368C544 384 539.7 399 532.3 411.9C558.5 427.2 576 455.5 576 488C576 536.6 536.6 576 488 576L152 576C103.4 576 64 536.6 64 488C64 455.5 81.6 427.2 107.7 411.9C100.2 399 96 384 96 368C96 329.7 120.4 297.2 154.5 285.1C152.8 278.3 152 271.3 152 264C152 215.4 191.4 176 240 176L258.7 176C279.3 176 296 159.3 296 138.7L296 129.8C296 117.5 291.1 105.8 282.5 97.1L276.7 91.3C272.1 86.7 270.8 79.8 273.2 73.9zM321.7 99C325.8 108.6 328 119.1 328 129.8L328 138.7C328 177 297 208 258.7 208L240 208C209.1 208 184 233.1 184 264C184 273.1 186.2 281.7 190 289.2C192.4 293.9 192.3 299.4 189.8 304C187.3 308.6 182.7 311.7 177.5 312.3C149.6 315.5 128 339.2 128 367.9C128 383.2 134.2 397.1 144.2 407.3C148.2 411.3 149.7 417.2 148.3 422.7C146.9 428.2 142.5 432.5 137 434C113.3 440.5 96 462.3 96 488C96 518.9 121.1 544 152 544L488 544C518.9 544 544 518.9 544 488C544 462.3 526.6 440.6 503 434C497.5 432.5 493.3 428.2 491.8 422.7C490.3 417.2 491.9 411.4 495.9 407.3C505.9 397.2 512.1 383.3 512.1 367.9C512.1 339.2 490.4 315.5 462.6 312.3C457.4 311.7 452.8 308.6 450.3 304C447.8 299.4 447.7 293.9 450.1 289.2C453.9 281.6 456.1 273.1 456.1 264C456.1 239.5 440.3 218.6 418.3 211C412.4 209 408.2 203.6 407.6 197.4C403.1 149.1 367.9 109.8 321.8 99z"/></svg>