<svg xmlns="http://www.w3.org/2000/svg" viewBox="0 0 640 640"><!--! Font Awesome Pro 7.1.0 by @fontawesome - https://fontawesome.com License - https://fontawesome.com/license (Commercial License) Copyright 2025 Fonticons, Inc. --><path fill="currentColor" d="M448 224C448 153.3 390.7 96 320 96C249.3 96 192 153.3 192 224L192 400C192 408.8 199.2 416 208 416L304 416L304 256C304 247.2 311.2 240 320 240C328.8 240 336 247.2 336 256L336 416L432 416C440.8 416 448 408.8 448 400L448 224zM304 448L208 448C181.5 448 160 426.5 160 400L160 224C160 135.6 231.6 64 320 64C408.4 64 480 135.6 480 224L480 400C480 426.5 458.5 448 432 448L336 448L336 560C336 568.8 328.8 576 320 576C311.2 576 304 568.8 304 560L304 448z"/></svg>