<svg xmlns="http://www.w3.org/2000/svg" viewBox="0 0 640 640"><!--! Font Awesome Pro 7.1.0 by @fontawesome - https://fontawesome.com License - https://fontawesome.com/license (Commercial License) Copyright 2025 Fonticons, Inc. --><path fill="currentColor" d="M86.6 113.7C100.5 72.5 116.8 64 128 64C139.2 64 155.5 72.5 169.4 113.7C179.9 144.8 187.7 191.2 190.6 256.7L217.8 193.2C213.7 156.2 207.6 126.6 199.7 103.4C184.7 58.9 160.9 32 128 32C95.1 32 71.3 58.9 56.3 103.4C41 148.8 32 218.8 32 320C32 421.2 41 491.3 56.3 536.6C71.3 581.1 95.1 608 128 608C160.9 608 184.7 581.1 199.7 536.6C200.6 533.8 201.5 531 202.4 528L176 528C173.6 528 171.3 527.9 169 527.6C155.2 567.7 139.2 576 128 576C116.8 576 100.5 567.5 86.6 526.3C73 485.9 64 420 64 320C64 220 73 154 86.6 113.7zM424 88C424 74.7 434.7 64 448 64C461.3 64 472 74.7 472 88C472 101.3 461.3 112 448 112C434.7 112 424 101.3 424 88zM504 88C504 57.1 478.9 32 448 32C417.1 32 392 57.1 392 88C392 118.9 417.1 144 448 144C478.9 144 504 118.9 504 88zM292.3 222.5C296.1 213.7 304.8 208 314.4 208L362.4 208L324.3 333.1C315.3 362.7 332 394 361.6 403L490 442L433.4 569.5C429.8 577.6 433.4 587 441.5 590.6C449.6 594.2 459 590.6 462.6 582.5L519.3 455C527.1 437.4 517.8 417 499.4 411.4L433.2 391.2L471.7 274.9L480.9 293.4C489 309.7 505.7 319.9 523.8 319.9L592 319.9C600.8 319.9 608 312.7 608 303.9C608 295.1 600.8 287.9 592 287.9L523.8 287.9C517.7 287.9 512.2 284.5 509.5 279.1L480 220.2C466.4 193.1 438.7 176 408.4 176L314.3 176C291.9 176 271.7 189.4 262.8 209.9L225.2 297.7C221.7 305.8 225.5 315.2 233.6 318.7C241.7 322.2 251.1 318.4 254.6 310.3L292.2 222.5zM355 342.4L395.9 208L408.5 208C426.7 208 443.2 218.2 451.4 234.4L402.5 381.9L370.9 372.3C358.2 368.4 351.1 355 354.9 342.4zM308.1 426.5C299.3 439.7 284.4 448 268.1 448L176 448C167.2 448 160 455.2 160 464C160 472.8 167.2 480 176 480L268.1 480C295.4 480 320.3 466.2 334.9 444.1C324.9 439.6 316 433.6 308.2 426.5z"/></svg>