<svg xmlns="http://www.w3.org/2000/svg" viewBox="0 0 640 640"><!--! Font Awesome Pro 7.1.0 by @fontawesome - https://fontawesome.com License - https://fontawesome.com/license (Commercial License) Copyright 2025 Fonticons, Inc. --><path fill="currentColor" d="M112 96C103.2 96 96 103.2 96 112L96 161C96 168.3 100.9 174.7 108 176.5C114.9 178.3 120 184.6 120 192C120 199.4 114.9 205.7 108 207.5C100.9 209.3 96 215.7 96 223L96 289C96 296.3 100.9 302.7 108 304.5C114.9 306.3 120 312.6 120 320C120 327.4 114.9 333.7 108 335.5C100.9 337.3 96 343.7 96 351L96 417C96 424.3 100.9 430.7 108 432.5C114.9 434.3 120 440.6 120 448C120 455.4 114.9 461.7 108 463.5C100.9 465.3 96 471.7 96 479L96 528C96 536.8 103.2 544 112 544L161 544C168.3 544 174.7 539.1 176.5 532C178.3 525.1 184.6 520 192 520C199.4 520 205.7 525.1 207.5 532C209.3 539.1 215.7 544 223 544L289 544C296.3 544 302.7 539.1 304.5 532C306.3 525.1 312.6 520 320 520C327.4 520 333.7 525.1 335.5 532C337.3 539.1 343.7 544 351 544L417 544C424.3 544 430.7 539.1 432.5 532C434.3 525.1 440.6 520 448 520C455.4 520 461.7 525.1 463.5 532C465.3 539.1 471.7 544 479 544L528 544C536.8 544 544 536.8 544 528L544 479C544 471.7 539.1 465.3 532 463.5C525.1 461.7 520 455.4 520 448C520 440.6 525.1 434.3 532 432.5C539.1 430.7 544 424.3 544 417L544 351C544 343.7 539.1 337.3 532 335.5C525.1 333.7 520 327.4 520 320C520 312.6 525.1 306.3 532 304.5C539.1 302.7 544 296.3 544 289L544 223C544 215.7 539.1 209.3 532 207.5C525.1 205.7 520 199.4 520 192C520 184.6 525.1 178.3 532 176.5C539.1 174.7 544 168.3 544 161L544 112C544 103.2 536.8 96 528 96L479 96C471.7 96 465.3 100.9 463.5 108C461.7 114.9 455.4 120 448 120C440.6 120 434.3 114.9 432.5 108C430.7 100.9 424.3 96 417 96L351 96C343.7 96 337.3 100.9 335.5 108C333.7 114.9 327.4 120 320 120C312.6 120 306.3 114.9 304.5 108C302.7 100.9 296.3 96 289 96L223 96C215.7 96 209.3 100.9 207.5 108C205.7 114.9 199.4 120 192 120C184.6 120 178.3 114.9 176.5 108C174.7 100.9 168.3 96 161 96L112 96zM128 150.4L128 128L150.4 128C158.7 142.3 174.2 152 192 152C209.8 152 225.3 142.3 233.6 128L278.5 128C286.8 142.3 302.3 152 320.1 152C337.9 152 353.4 142.3 361.7 128L406.6 128C414.9 142.3 430.4 152 448.2 152C466 152 481.5 142.3 489.8 128L512.2 128L512.2 150.4C497.9 158.7 488.2 174.2 488.2 192C488.2 209.8 497.9 225.3 512.2 233.6L512.2 278.5C497.9 286.8 488.2 302.3 488.2 320.1C488.2 337.9 497.9 353.4 512.2 361.7L512.2 406.6C497.9 414.9 488.2 430.4 488.2 448.2C488.2 466 497.9 481.5 512.2 489.8L512.2 512.2L489.8 512.2C481.5 497.9 466 488.2 448.2 488.2C430.4 488.2 414.9 497.9 406.6 512.2L361.7 512.2C353.4 497.9 337.9 488.2 320.1 488.2C302.3 488.2 286.8 497.9 278.5 512.2L233.6 512.2C225.3 497.9 209.8 488.2 192 488.2C174.2 488.2 158.7 497.9 150.4 512.2L128 512.2L128 489.8C142.3 481.5 152 466 152 448.2C152 430.4 142.3 414.9 128 406.6L128 361.7C142.3 353.4 152 337.9 152 320.1C152 302.3 142.3 286.8 128 278.5L128 233.6C142.3 225.3 152 209.8 152 192C152 174.2 142.3 158.7 128 150.4zM192 224L192 416C192 433.7 206.3 448 224 448L416 448C433.7 448 448 433.7 448 416L448 224C448 206.3 433.7 192 416 192L224 192C206.3 192 192 206.3 192 224zM224 224L416 224L416 416L224 416L224 224z"/></svg>