<svg xmlns="http://www.w3.org/2000/svg" viewBox="0 0 640 640"><!--! Font Awesome Pro 7.1.0 by @fontawesome - https://fontawesome.com License - https://fontawesome.com/license (Commercial License) Copyright 2025 Fonticons, Inc. --><path fill="currentColor" d="M128 80C128 71.2 120.8 64 112 64C103.2 64 96 71.2 96 80C96 107.6 100.2 126.8 107.8 141.5C115.2 156 125.2 164.7 133.1 171.6L133.6 172C141.6 179 147.4 184.3 151.9 193C156.4 201.8 160.1 215.5 160.1 240C160.1 248.8 167.3 256 176.1 256C184.9 256 192.1 248.8 192.1 240C192.1 212.4 187.9 193.2 180.3 178.5C172.9 164 162.9 155.3 155 148.4L154.5 148C146.5 141 140.7 135.7 136.2 127C131.7 118.2 128 104.5 128 80zM224 80C224 71.2 216.8 64 208 64C199.2 64 192 71.2 192 80C192 107.6 196.2 126.8 203.8 141.5C211.2 156 221.2 164.7 229.1 171.6L229.6 172C237.6 179 243.4 184.3 247.9 193C252.4 201.8 256.1 215.5 256.1 240C256.1 248.8 263.3 256 272.1 256C280.9 256 288.1 248.8 288.1 240C288.1 212.4 283.9 193.2 276.3 178.5C268.9 164 258.9 155.3 251 148.4L250.5 148C242.5 141 236.7 135.7 232.2 127C227.7 118.2 224 104.5 224 80zM32 320C23.2 320 16 327.2 16 336C16 344.8 23.2 352 32 352L67.8 352C73.7 434.9 124.3 504.7 195.1 538.4C202.7 560.3 223.5 576 248 576L392 576C416.5 576 437.3 560.3 444.9 538.4C515.7 504.7 566.3 434.9 572.2 352L608 352C616.8 352 624 344.8 624 336C624 327.2 616.8 320 608 320L570.4 320C563.8 301.4 546.1 288 525.1 288L114.9 288C93.9 288 76.2 301.4 69.6 320L32 320zM539.4 256C525.6 209.7 482.8 176 432 176C381.2 176 338.4 209.7 324.6 256L358.6 256C370.9 227.7 399.1 208 431.9 208C464.7 208 492.9 227.7 505.2 256L539.2 256zM225.3 527.9C222.5 519.8 216.6 513.2 208.8 509.5C147.4 480.3 103.8 419.4 99.5 347.3L98.9 337C98.4 327.8 105.7 320.1 114.9 320.1L525.1 320.1C534.3 320.1 541.6 327.9 541.1 337L540.5 347.3C536.3 419.4 492.7 480.3 431.2 509.5C423.5 513.2 417.5 519.8 414.7 527.9C411.4 537.3 402.5 544 392 544L248 544C237.6 544 228.6 537.3 225.3 527.9z"/></svg>