<svg xmlns="http://www.w3.org/2000/svg" viewBox="0 0 640 640"><!--! Font Awesome Pro 7.1.0 by @fontawesome - https://fontawesome.com License - https://fontawesome.com/license (Commercial License) Copyright 2025 Fonticons, Inc. --><path fill="currentColor" d="M544 208C544 146.1 493.9 96 432 96C401 96 373 108.5 352.7 128.9C323.1 158.6 287 185.6 250.3 205.7C231.5 216 216 231.5 205.7 250.3C185.6 287 158.6 323.1 128.9 352.7C108.5 373 96 401 96 432C96 493.9 146.1 544 208 544C231.6 544 253.4 536.7 271.4 524.4C301.9 503.4 336.8 486 371.8 474.2C406.2 462.6 434.2 434.6 444.2 397C454.9 357.1 478.3 318.1 508.5 289.8C530.4 269.3 544 240.3 544 208zM576 208C576 249.5 558.4 286.9 530.3 313.2C504.5 337.4 484.2 371.1 475.1 405.3C462.2 453.6 426.1 489.6 382 504.5C349.7 515.4 317.6 531.4 289.5 550.7C266.3 566.6 238.2 576 208 576C128.5 576 64 511.5 64 432C64 392.2 80.2 356.1 106.3 330C133.8 302.6 158.9 268.9 177.6 234.9C190.8 210.8 210.7 190.9 234.9 177.6C269 158.9 302.6 133.8 330 106.3C356.1 80.2 392.1 64 432 64C511.5 64 576 128.5 576 208zM244 328C233 328 224 319 224 308C224 297 233 288 244 288C255 288 264 297 264 308C264 319 255 328 244 328zM232 460C232 471 223 480 212 480C201 480 192 471 192 460C192 449 201 440 212 440C223 440 232 449 232 460zM428 264C417 264 408 255 408 244C408 233 417 224 428 224C439 224 448 233 448 244C448 255 439 264 428 264z"/></svg>