<svg xmlns="http://www.w3.org/2000/svg" viewBox="0 0 640 640"><!--! Font Awesome Pro 7.1.0 by @fontawesome - https://fontawesome.com License - https://fontawesome.com/license (Commercial License) Copyright 2025 Fonticons, Inc. --><path fill="currentColor" d="M336 48C336 39.2 328.8 32 320 32C311.2 32 304 39.2 304 48L304 320C304 328.8 311.2 336 320 336C328.8 336 336 328.8 336 320L336 48zM215.5 121.8C223.3 117.7 226.3 108 222.2 100.2C218.1 92.4 208.4 89.4 200.6 93.5C119.4 136.4 64 221.7 64 320C64 461.4 178.6 576 320 576C461.4 576 576 461.4 576 320C576 221.7 520.6 136.4 439.5 93.5C431.7 89.4 422 92.4 417.9 100.2C413.8 108 416.8 117.7 424.6 121.8C495.6 159.4 544 234.1 544 320C544 443.7 443.7 544 320 544C196.3 544 96 443.7 96 320C96 234.1 144.4 159.4 215.5 121.8z"/></svg>