<svg xmlns="http://www.w3.org/2000/svg" viewBox="0 0 640 640"><!--! Font Awesome Pro 7.1.0 by @fontawesome - https://fontawesome.com License - https://fontawesome.com/license (Commercial License) Copyright 2025 Fonticons, Inc. --><path fill="currentColor" d="M352 128C352 110.3 366.3 96 384 96C401.7 96 416 110.3 416 128C416 145.7 401.7 160 384 160C366.3 160 352 145.7 352 128zM448 128C448 92.7 419.3 64 384 64C348.7 64 320 92.7 320 128C320 163.3 348.7 192 384 192C419.3 192 448 163.3 448 128zM296.5 240L297.4 240C309.8 240 321.1 247.2 326.4 258.5L329.5 265.2C329.4 265.4 329.3 265.7 329.2 265.9L253.1 448.6L226.4 431.8C213.3 423.6 208 407.2 213.7 392.8L266.8 260.1C271.7 248 283.4 240 296.5 240zM408.5 546.5L280.5 465.9L347.8 304.4L360.2 330.9C369.4 350.6 395.1 355.6 411 340.8L506.9 251.7C513.4 245.7 513.8 235.6 507.7 229.1C501.6 222.6 491.6 222.2 485.1 228.3L389.2 317.4L355.4 245C344.9 222.5 322.3 208.1 297.4 208.1L296.5 208.1C270.3 208.1 246.8 224 237.1 248.3L184 380.9C172.5 409.6 183.2 442.4 209.3 458.8L344.6 544L144 544C135.2 544 128 551.2 128 560C128 568.8 135.2 576 144 576L400 576C407.1 576 413.4 571.3 415.4 564.4C417.4 557.5 414.6 550.2 408.6 546.4z"/></svg>