<svg xmlns="http://www.w3.org/2000/svg" viewBox="0 0 640 640"><!--! Font Awesome Pro 7.1.0 by @fontawesome - https://fontawesome.com License - https://fontawesome.com/license (Commercial License) Copyright 2025 Fonticons, Inc. --><path fill="currentColor" d="M400 96C408.8 96 416 103.2 416 112L416 160C416 168.8 408.8 176 400 176L112 176C103.2 176 96 168.8 96 160L96 112C96 103.2 103.2 96 112 96L400 96zM64 160C64 180.9 77.4 198.7 96 205.3L96 512C96 547.3 124.7 576 160 576L308 576C300.8 566 294.6 555.3 289.4 544L160 544C142.3 544 128 529.7 128 512L128 480L208 480C216.8 480 224 472.8 224 464C224 455.2 216.8 448 208 448L128 448L128 384L208 384C216.8 384 224 376.8 224 368C224 359.2 216.8 352 208 352L128 352L128 288L208 288C216.8 288 224 280.8 224 272C224 263.2 216.8 256 208 256L128 256L128 208L384 208L384 289.4C394.2 284.7 404.9 280.9 416 278L416 205.2C434.6 198.6 448 180.8 448 159.9L448 111.9C448 85.4 426.5 63.9 400 63.9L112 64C85.5 64 64 85.5 64 112L64 160zM464 576C438.8 576 415.6 567.7 396.9 553.7L553.7 396.9C567.7 415.6 576 438.8 576 464C576 525.9 525.9 576 464 576zM531.1 374.3L374.3 531.1C360.3 512.4 352 489.2 352 464C352 402.1 402.1 352 464 352C489.2 352 512.4 360.3 531.1 374.3zM464 608C543.5 608 608 543.5 608 464C608 384.5 543.5 320 464 320C384.5 320 320 384.5 320 464C320 543.5 384.5 608 464 608z"/></svg>