<svg xmlns="http://www.w3.org/2000/svg" viewBox="0 0 640 640"><!--! Font Awesome Pro 7.1.0 by @fontawesome - https://fontawesome.com License - https://fontawesome.com/license (Commercial License) Copyright 2025 Fonticons, Inc. --><path fill="currentColor" d="M127.1 64C109.9 64 96 77.9 96 95.1L96 368C96 376.8 103.2 384 112 384C120.8 384 128 376.8 128 368L128 288L233.4 288L361.4 416L228.7 548.7C222.5 554.9 222.5 565.1 228.7 571.3C234.9 577.5 245.1 577.5 251.3 571.3L384 438.6L516.7 571.3C522.9 577.5 533.1 577.5 539.3 571.3C545.5 565.1 545.5 554.9 539.3 548.7L406.6 416L539.3 283.3C545.5 277.1 545.5 266.9 539.3 260.7C533.1 254.5 522.9 254.5 516.7 260.7L384 393.4L278.4 287.8C337.3 284.5 384 235.7 384 176C384 114.1 333.9 64 272 64L127.1 64zM240 256L128 256L128 96L272 96C316.2 96 352 131.8 352 176C352 220.2 316.2 256 272 256L240 256z"/></svg>