<svg xmlns="http://www.w3.org/2000/svg" viewBox="0 0 640 640"><!--! Font Awesome Pro 7.1.0 by @fontawesome - https://fontawesome.com License - https://fontawesome.com/license (Commercial License) Copyright 2025 Fonticons, Inc. --><path fill="currentColor" d="M464 96C472.8 96 480 103.2 480 112L480 160C480 168.8 472.8 176 464 176L176 176C167.2 176 160 168.8 160 160L160 112C160 103.2 167.2 96 176 96L464 96zM128 160C128 180.9 141.4 198.7 160 205.3L160 512C160 547.3 188.7 576 224 576L416 576C451.3 576 480 547.3 480 512L480 205.3C498.6 198.7 512 180.9 512 160L512 112C512 85.5 490.5 64 464 64L176 64C149.5 64 128 85.5 128 112L128 160zM192 512L192 208L448 208L448 512C448 529.7 433.7 544 416 544L224 544C206.3 544 192 529.7 192 512zM304 272C286.3 272 272 286.3 272 304L272 320L256 320C238.3 320 224 334.3 224 352L224 384C224 401.7 238.3 416 256 416L272 416L272 432C272 449.7 286.3 464 304 464L336 464C353.7 464 368 449.7 368 432L368 416L384 416C401.7 416 416 401.7 416 384L416 352C416 334.3 401.7 320 384 320L368 320L368 304C368 286.3 353.7 272 336 272L304 272zM336 408L336 432L304 432L304 392C304 387.6 300.4 384 296 384L256 384L256 352L296 352C300.4 352 304 348.4 304 344L304 304L336 304L336 344C336 348.4 339.6 352 344 352L384 352L384 384L344 384C339.6 384 336 387.6 336 392L336 408z"/></svg>