<svg xmlns="http://www.w3.org/2000/svg" viewBox="0 0 640 640"><!--! Font Awesome Pro 7.1.0 by @fontawesome - https://fontawesome.com License - https://fontawesome.com/license (Commercial License) Copyright 2025 Fonticons, Inc. --><path fill="currentColor" d="M213.4 128C148.6 128 96 180.6 96 245.4C96 310.1 124 368.1 168.7 408.2L196.3 368.3C164.1 337.3 144 293.7 144 245.4C144 207.1 175.1 176 213.4 176L220 176C262 176 296 210 296 252L296 255.6C296 271.8 291.1 287.6 281.8 300.9C272.1 314.9 255.1 339.5 230.6 374.8L230.6 374.8L185 440.6L185 440.6L156.2 482.2C148.7 493.1 151.4 508 162.3 515.6C173.2 523.2 188.1 520.4 195.7 509.5L230.2 459.7C234.2 453.9 241.5 451.4 248.2 453.6C269.1 460.3 291.4 463.9 314.6 463.9L325.4 463.9C340.9 463.9 356 462.3 370.5 459.2L340.1 415.2C335.3 415.6 330.4 415.8 325.4 415.8L314.6 415.8C306.2 415.8 298 415.2 289.9 414C284.4 413.2 279.7 409.6 277.5 404.6C275.3 399.6 275.9 393.7 279 389.1L306.8 349C309.8 344.7 314.7 342.1 320 342.1C325.3 342.1 330.2 344.7 333.2 349C370.2 402.5 438.9 501.7 444.3 509.5L444.3 509.5C451.8 520.4 466.8 523.1 477.7 515.6C488.6 508.1 491.3 493.1 483.8 482.2L455 440.6C450.1 433.6 451.6 424 458.4 418.8C510.5 378.8 544.1 316 544.1 245.3C544.1 180.5 491.5 127.9 426.7 127.9L420 128C385.3 128 354 142.2 331.4 165.2C328.4 168.3 324.3 170 320 170C315.7 170 311.6 168.3 308.6 165.2C286 142.2 254.7 128 220 128L213.4 128zM390.1 487.6C369.5 493.1 347.8 496 325.4 496L314.6 496C292.3 496 270.6 493.1 249.9 487.6L222 527.9C204.4 553.3 169.5 559.7 144.1 542.1C118.7 524.5 112.4 489.6 130 464.1L150.4 434.6C97.5 388.7 64 321 64 245.4C64 162.9 130.9 96 213.4 96L220 96C258 96 292.9 109.6 320 132.3C347.1 109.7 382 96 420 96L426.6 96C509.1 96 576 162.9 576 245.4C576 321 542.5 388.7 489.7 434.7L510 464.1C527.6 489.5 521.3 524.4 495.8 542C470.3 559.6 435.5 553.3 417.9 527.8L390 487.5zM237.3 309L255.5 282.7C261 274.7 264 265.3 264 255.6L264 252C264 227.7 244.3 208 220 208L213.4 208C192.7 208 176 224.7 176 245.4C176 282.7 190.8 316.6 214.8 341.6L237.3 309zM420 208C395.7 208 376 227.7 376 252L376 255.6C376 265.3 379 274.7 384.5 282.7L425.2 341.5C449.2 316.6 464 282.7 464 245.3C464 224.6 447.3 207.9 426.6 207.9L420 207.9zM344 252C344 210 378 176 420 176L426.6 176C464.9 176 496 207.1 496 245.4C496 299.1 471.2 346.9 432.5 378.2C429 381 424.6 382.2 420.2 381.6C415.8 381 411.9 378.5 409.3 374.9L358.2 301C349 287.7 344 271.9 344 255.7L344 252.1z"/></svg>