<svg xmlns="http://www.w3.org/2000/svg" viewBox="0 0 640 640"><!--! Font Awesome Pro 7.1.0 by @fontawesome - https://fontawesome.com License - https://fontawesome.com/license (Commercial License) Copyright 2025 Fonticons, Inc. --><path fill="currentColor" d="M59.3 36.8C53.1 30.6 42.9 30.6 36.7 36.8C30.5 43 30.5 53.2 36.7 59.4L580.7 603.4C586.9 609.6 597.1 609.6 603.3 603.4C609.5 597.2 609.5 587 603.3 580.8L502.5 480L544 480C561.7 480 576 465.7 576 448L576 320C576 284.7 547.3 256 512 256L278.5 256L192 169.5L192 128C192 110.3 206.3 96 224 96L373.5 96C382 96 390.1 99.4 396.1 105.4L438.6 147.9C444.6 153.9 448 162 448 170.5L448 208L480 208L480 170.5C480 153.5 473.3 137.2 461.3 125.2L418.7 82.7C406.7 70.7 390.5 64 373.5 64L224 64C188.7 64 160 92.7 160 128L160 137.5L59.3 36.8zM310.5 288L512 288C529.7 288 544 302.3 544 320L544 448L470.5 448L310.5 288zM128 256C92.7 256 64 284.7 64 320L64 448C64 465.7 78.3 480 96 480L160 480L160 544C160 561.7 174.3 576 192 576L448 576C458.2 576 467.4 571.2 473.2 563.7L453.5 544L192 544L192 416L325.5 416L293.5 384L192 384C174.3 384 160 398.3 160 416L160 448L96 448L96 320C96 302.3 110.3 288 128 288L197.5 288L165.5 256L128 256zM512 336C512 327.2 504.8 320 496 320C487.2 320 480 327.2 480 336C480 344.8 487.2 352 496 352C504.8 352 512 344.8 512 336z"/></svg>