<svg xmlns="http://www.w3.org/2000/svg" viewBox="0 0 640 640"><!--! Font Awesome Pro 7.1.0 by @fontawesome - https://fontawesome.com License - https://fontawesome.com/license (Commercial License) Copyright 2025 Fonticons, Inc. --><path fill="currentColor" d="M448 170.5C448 162 444.6 153.9 438.6 147.9L396.1 105.4C390.1 99.4 382 96 373.5 96L224 96C206.3 96 192 110.3 192 128L192 208L160 208L160 128C160 92.7 188.7 64 224 64L373.5 64C390.5 64 406.8 70.7 418.8 82.7L461.3 125.2C473.3 137.2 480 153.5 480 170.5L480 208L448 208L448 170.5zM512 288L128 288C110.3 288 96 302.3 96 320L96 448L160 448L160 416C160 398.3 174.3 384 192 384L448 384C465.7 384 480 398.3 480 416L480 448L544 448L544 320C544 302.3 529.7 288 512 288zM480 480L480 544C480 561.7 465.7 576 448 576L192 576C174.3 576 160 561.7 160 544L160 480L96 480C78.3 480 64 465.7 64 448L64 320C64 284.7 92.7 256 128 256L512 256C547.3 256 576 284.7 576 320L576 448C576 465.7 561.7 480 544 480L480 480zM192 416L192 544L448 544L448 416L192 416zM480 336C480 327.2 487.2 320 496 320C504.8 320 512 327.2 512 336C512 344.8 504.8 352 496 352C487.2 352 480 344.8 480 336z"/></svg>