<svg xmlns="http://www.w3.org/2000/svg" viewBox="0 0 640 640"><!--! Font Awesome Pro 7.1.0 by @fontawesome - https://fontawesome.com License - https://fontawesome.com/license (Commercial License) Copyright 2025 Fonticons, Inc. --><path fill="currentColor" d="M416 208L416 170.5C416 162 412.6 153.9 406.6 147.9L364.1 105.4C358.1 99.4 350 96 341.5 96L192 96C174.3 96 160 110.3 160 128L160 208L128 208L128 128C128 92.7 156.7 64 192 64L341.5 64C358.5 64 374.8 70.7 386.8 82.7L429.3 125.2C441.3 137.2 448 153.5 448 170.5L448 208L416 208zM341.5 288L96 288C78.3 288 64 302.3 64 320L64 448L128 448L128 416C128 398.3 142.3 384 160 384L276.8 384C274.3 394.3 272.7 405 272.2 416L160 416L160 544L322.3 544C335.6 557.1 351.1 567.9 368.1 576L160 576C142.3 576 128 561.7 128 544L128 480L64 480C46.3 480 32 465.7 32 448L32 320C32 284.7 60.7 256 96 256L440 256L440 256.1C403.2 256.1 369.2 267.9 341.5 288zM440 512.1C488.6 512.1 528 472.7 528 424.1C528 375.5 488.6 336.1 440 336.1C391.4 336.1 352 375.5 352 424.1C352 472.7 391.4 512.1 440 512.1zM440 544.1C373.7 544.1 320 490.4 320 424.1C320 357.8 373.7 304.1 440 304.1C506.3 304.1 560 357.8 560 424.1C560 451.5 550.9 476.7 535.4 496.8L603.3 564.8C609.5 571.1 609.5 581.2 603.3 587.4C597.1 593.6 586.9 593.6 580.7 587.4L512.9 519.5C492.7 534.9 467.5 544.1 440.1 544.1z"/></svg>