<svg xmlns="http://www.w3.org/2000/svg" viewBox="0 0 640 640"><!--! Font Awesome Pro 7.1.0 by @fontawesome - https://fontawesome.com License - https://fontawesome.com/license (Commercial License) Copyright 2025 Fonticons, Inc. --><path fill="currentColor" d="M492.8 38.4L536 96L592 96C600.8 96 608 103.2 608 112C608 120.8 600.8 128 592 128L528 128C523 128 518.2 125.6 515.2 121.6L483.2 78.9L430.5 190.8C428 196 423 199.5 417.2 199.9C411.4 200.3 405.9 197.6 402.7 192.8L359.4 128L304 128C295.2 128 288 120.8 288 112C288 103.2 295.2 96 304 96L368 96C373.4 96 378.3 98.7 381.3 103.1L413.6 151.5L465.5 41.1C467.9 36 472.8 32.6 478.4 32C484 31.4 489.5 33.8 492.8 38.3zM320 256C320 232.1 337.5 212.3 360.3 208.6L366.1 217.3C373.1 227.8 383.1 235.6 394.5 240L368 240C359.2 240 352 247.2 352 256L352 416L576 416L576 320C576 275.8 540.2 240 496 240L437.5 240C451.7 234.5 463.6 223.7 470.3 209.5L471 208L496 208C557.9 208 608 258.1 608 320L608 528C608 536.8 600.8 544 592 544C583.2 544 576 536.8 576 528L576 448L64 448L64 528C64 536.8 56.8 544 48 544C39.2 544 32 536.8 32 528L32 112C32 103.2 39.2 96 48 96C56.8 96 64 103.2 64 112L64 416L320 416L320 256zM240 288C240 261.5 218.5 240 192 240C165.5 240 144 261.5 144 288C144 314.5 165.5 336 192 336C218.5 336 240 314.5 240 288zM112 288C112 243.8 147.8 208 192 208C236.2 208 272 243.8 272 288C272 332.2 236.2 368 192 368C147.8 368 112 332.2 112 288z"/></svg>