<svg xmlns="http://www.w3.org/2000/svg" viewBox="0 0 640 640"><!--! Font Awesome Pro 7.1.0 by @fontawesome - https://fontawesome.com License - https://fontawesome.com/license (Commercial License) Copyright 2025 Fonticons, Inc. --><path fill="currentColor" d="M112 128C103.2 128 96 135.2 96 144L96 240C96 248.8 103.2 256 112 256L208 256C216.8 256 224 248.8 224 240L224 144C224 135.2 216.8 128 208 128L112 128zM211.9 287.8C210.6 287.9 209.3 288 208 288L112 288C85.5 288 64 266.5 64 240L64 144C64 117.5 85.5 96 112 96L208 96C234.5 96 256 117.5 256 144L256 176L384 176L384 144C384 117.5 405.5 96 432 96L528 96C554.5 96 576 117.5 576 144L576 240C576 266.5 554.5 288 528 288L432 288C405.5 288 384 266.5 384 240L384 208L256 208L256 240C256 253.4 250.5 265.5 241.7 274.2L300.2 352.1C301.5 352 302.8 351.9 304.1 351.9L400.1 351.9C426.6 351.9 448.1 373.4 448.1 399.9L448.1 495.9C448.1 522.4 426.6 543.9 400.1 543.9L304.1 543.9C277.6 543.9 256.1 522.4 256.1 495.9L256.1 399.9C256.1 386.5 261.6 374.4 270.4 365.7L211.9 287.8zM304 384C295.2 384 288 391.2 288 400L288 496C288 504.8 295.2 512 304 512L400 512C408.8 512 416 504.8 416 496L416 400C416 391.2 408.8 384 400 384L304 384zM416 208L416 240C416 248.8 423.2 256 432 256L528 256C536.8 256 544 248.8 544 240L544 144C544 135.2 536.8 128 528 128L432 128C423.2 128 416 135.2 416 144L416 208z"/></svg>