<svg xmlns="http://www.w3.org/2000/svg" viewBox="0 0 640 640"><!--! Font Awesome Pro 7.1.0 by @fontawesome - https://fontawesome.com License - https://fontawesome.com/license (Commercial License) Copyright 2025 Fonticons, Inc. --><path fill="currentColor" d="M384 382.7C392.3 379.7 401.5 384 404.5 392.4C424.4 447.7 407.8 515.3 359.8 563.2C357 566 354.2 568.6 351.4 571.1C344.8 577 334.7 576.4 328.8 569.8C322.9 563.2 323.6 553.1 330.2 547.2C332.6 545.1 334.9 542.9 337.2 540.6C377.5 500.3 389.6 445.5 374.4 403.3C371.4 395 375.7 385.8 384 382.8zM299.7 417.2C303.5 409.2 313 405.8 321 409.5C329 413.3 332.4 422.8 328.7 430.8C303.7 484 244.1 520 176.4 520C172.5 520 168.6 519.9 164.8 519.7C156 519.2 149.3 511.6 149.8 502.8C150.3 494 157.9 487.3 166.7 487.8C169.9 488 173.1 488.1 176.4 488.1C233.4 488.1 280.7 457.9 299.8 417.3zM409.7 319.2C413.5 311.2 423 307.8 431 311.5C484.2 336.5 520.2 396.1 520.2 463.8C520.2 467.7 520.1 471.6 519.9 475.4C519.4 484.2 511.8 490.9 503 490.4C494.2 489.9 487.5 482.3 488 473.5C488.2 470.3 488.3 467.1 488.3 463.8C488.3 406.8 458.1 359.5 417.5 340.4C409.5 336.6 406.1 327.1 409.8 319.1zM70.4 328.7C77 322.8 87.1 323.5 93 330.1C95.1 332.5 97.3 334.8 99.6 337.1C139.9 377.4 194.7 389.5 236.9 374.3C245.2 371.3 254.3 375.6 257.3 383.9C260.3 392.2 256 401.4 247.7 404.4C192.4 424.3 124.8 407.7 76.9 359.7C74.1 356.9 71.5 354.1 68.9 351.3C63 344.7 63.7 334.6 70.3 328.7zM319.9 376C289 375.9 263.9 350.8 264 319.9C264.1 289 289.2 263.9 320.1 264C351 264.1 376.1 289.2 376 320.1C375.9 351 350.8 376.1 319.9 376zM320.1 296C306.8 295.9 296.1 306.6 296 319.9C295.9 333.2 306.6 343.9 319.9 344C333.2 344.1 343.9 333.4 344 320.1C344.1 306.8 333.4 296.1 320.1 296zM137.4 149.6C146.2 150.1 152.9 157.7 152.4 166.5C152.2 169.7 152.1 172.9 152.1 176.2C152.1 233.2 182.3 280.5 222.9 299.6C230.9 303.4 234.3 312.9 230.6 320.9C226.9 328.9 217.3 332.3 209.3 328.6C156.1 303.6 120.1 244 120.1 176.3C120.1 172.4 120.2 168.5 120.4 164.7C120.9 155.9 128.5 149.2 137.3 149.7zM392.5 235.7C447.8 215.8 515.4 232.4 563.3 280.4C566.1 283.2 568.7 286 571.2 288.8C577.1 295.4 576.5 305.5 569.9 311.4C563.3 317.3 553.2 316.6 547.3 310C545.2 307.6 543 305.3 540.7 303C500.4 262.7 445.6 250.6 403.4 265.8C395.1 268.8 385.9 264.5 382.9 256.2C379.9 247.9 384.2 238.7 392.6 235.7zM288.9 68.9C295.5 63 305.6 63.7 311.5 70.3C317.4 76.9 316.7 87 310.1 92.9C307.7 95 305.4 97.2 303.1 99.5C262.8 139.8 250.7 194.6 265.9 236.8C268.9 245.1 264.6 254.2 256.3 257.2C248 260.2 238.8 255.9 235.8 247.6C215.9 192.3 232.5 124.7 280.5 76.8C283.3 74 286.1 71.4 288.9 68.8zM475.6 120.3C484.4 120.8 491.1 128.4 490.6 137.2C490.1 146 482.5 152.7 473.7 152.2C470.5 152 467.3 151.9 464 151.9C407 151.9 359.7 182.1 340.6 222.7C336.8 230.7 327.3 234.1 319.3 230.4C311.3 226.7 307.9 217.1 311.6 209.1C336.6 155.9 396.2 119.9 463.9 119.9C467.8 119.9 471.7 120 475.5 120.2z"/></svg>