<svg xmlns="http://www.w3.org/2000/svg" viewBox="0 0 640 640"><!--! Font Awesome Pro 7.1.0 by @fontawesome - https://fontawesome.com License - https://fontawesome.com/license (Commercial License) Copyright 2025 Fonticons, Inc. --><path fill="currentColor" d="M368 96L368 192L272 192L272 96L368 96zM240 96L240 192L224 192C188.7 192 160 220.7 160 256L160 512C160 547.3 188.7 576 224 576L416 576C451.3 576 480 547.3 480 512L480 256C480 220.7 451.3 192 416 192L400 192L400 144L464 144C472.8 144 480 136.8 480 128C480 119.2 472.8 112 464 112L400 112L400 96C400 78.3 385.7 64 368 64L272 64C254.3 64 240 78.3 240 96zM368 224L416 224C433.7 224 448 238.3 448 256L448 512C448 529.7 433.7 544 416 544L224 544C206.3 544 192 529.7 192 512L192 256C192 238.3 206.3 224 224 224L368 224zM319.3 320.2C319.3 320.2 319.5 320 320 320C320.5 320 320.7 320.2 320.7 320.2C327.4 328.4 339.6 344.1 350 361.4C360.9 379.5 368 396.4 368 407.9C368 420.8 362.9 430.3 355.1 436.8C346.9 443.6 334.7 447.9 320 447.9C305.3 447.9 293.1 443.6 284.9 436.8C277 430.3 272 420.8 272 407.9C272 396.4 279.1 379.5 290 361.4C300.4 344 312.6 328.4 319.3 320.2zM320 288C310.3 288 300.9 292.2 294.5 300C287.4 308.7 274.1 325.8 262.6 345C251.5 363.4 240.1 387 240.1 408C240.1 430.4 249.4 448.9 264.6 461.6C279.6 474 299.4 480 320.1 480C340.8 480 360.6 474 375.6 461.6C390.9 449 400.1 430.4 400.1 408C400.1 387 388.6 363.4 377.6 345C366.1 325.8 352.8 308.8 345.7 300C339.3 292.2 329.8 288 320.2 288z"/></svg>