<svg xmlns="http://www.w3.org/2000/svg" viewBox="0 0 640 640"><!--! Font Awesome Pro 7.1.0 by @fontawesome - https://fontawesome.com License - https://fontawesome.com/license (Commercial License) Copyright 2025 Fonticons, Inc. --><path fill="currentColor" d="M262.2 193.5C265.9 192.8 269.5 191.5 272.8 189.5C287.4 180.8 303.3 176 320 176C336.7 176 352.6 180.8 367.2 189.5C370.5 191.5 374.1 192.8 377.8 193.5L348.7 112L291.3 112L262.2 193.5zM231.2 185.2L263 95.9C266.4 86.3 275.5 80 285.6 80L354.3 80C364.4 80 373.5 86.4 376.9 95.9L408.8 185.1C421.1 179.2 434.3 175.9 448 175.9C518.7 175.9 576 261.9 576 367.9C576 473.9 518.7 560 448 560C431.3 560 415.4 555.2 400.8 546.5C390.5 540.4 377.4 540.4 367.1 546.5C352.5 555.2 336.6 560 319.9 560C303.2 560 287.3 555.2 272.7 546.5C262.4 540.4 249.3 540.4 239 546.5C224.4 555.2 208.5 560 191.8 560C121.1 560 63.8 474 63.8 368C63.8 262 121.3 176 192 176C205.7 176 218.8 179.2 231.2 185.2zM222.8 519C243.2 506.9 268.8 506.9 289.2 519C299.4 525 309.7 528 320 528C330.3 528 340.7 525.1 350.8 519C371.1 506.9 396.8 506.9 417.2 519C427.4 525 437.7 528 448 528C469.3 528 492.5 515 511.9 486C531.1 457.2 544 415.6 544 368C544 320.4 531.1 278.8 511.9 250C492.5 221 469.3 208 448 208C437.7 208 427.3 210.9 417.2 217C396.9 229.1 371.2 229.1 350.8 217C340.6 211 330.3 208 320 208C309.7 208 299.3 210.9 289.2 217C268.8 229.1 243.2 229.1 222.8 217C212.6 211 202.3 208 192 208C170.7 208 147.5 221 128.1 250C108.9 278.8 96 320.4 96 368C96 415.6 108.9 457.2 128.1 486C147.4 515 170.7 528 192 528C202.3 528 212.7 525.1 222.8 519z"/></svg>