<svg xmlns="http://www.w3.org/2000/svg" viewBox="0 0 640 640"><!--! Font Awesome Pro 7.1.0 by @fontawesome - https://fontawesome.com License - https://fontawesome.com/license (Commercial License) Copyright 2025 Fonticons, Inc. --><path fill="currentColor" d="M176 160C167.2 160 160 167.2 160 176L160 264.8C160 286.4 142.5 304 120.8 304C104.6 304 92.4 294.1 85.2 284.4C78.8 275.8 71.1 272 64 272C56.9 272 49.3 275.8 42.9 284.3C36.5 292.8 32 305.5 32 320C32 334.5 36.4 347.1 42.9 355.7C49.4 364.3 56.9 368 64 368C71.1 368 78.8 364.2 85.2 355.6C92.4 345.9 104.6 336 120.8 336C142.4 336 160 353.5 160 375.2L160 464C160 472.8 167.2 480 176 480L269.7 480C252.1 467.1 240 447.1 240 424C240 382.3 277.9 352 320 352C362.1 352 400 382.3 400 424C400 447.1 388 467.1 370.3 480L464 480C472.8 480 480 472.8 480 464L480 375.2C480 353.5 497.5 336 519.2 336C535.4 336 547.6 345.9 554.8 355.6C561.2 364.2 568.9 368 576 368C583.1 368 590.7 364.2 597.1 355.7C603.5 347.2 608 334.6 608 320C608 305.4 603.6 292.9 597.1 284.3C590.6 275.7 583 272 576 272C568.9 272 561.2 275.8 554.8 284.4C547.6 294.1 535.4 304 519.2 304C497.5 304 480 286.5 480 264.8L480 176C480 167.2 472.8 160 464 160L370.3 160C387.9 172.8 400 192.9 400 216C400 257.7 362.1 288 320 288C277.9 288 240 257.7 240 216C240 192.9 252 172.8 269.7 160L176 160zM128 176C128 149.5 149.5 128 176 128L273.5 128C290.4 128 304 141.7 304 158.5C304 170.4 297.2 179.8 289.4 185.2C278.2 192.9 272 204.2 272 216C272 236.2 291.4 256 320 256C348.6 256 368 236.2 368 216C368 204.2 361.7 192.9 350.6 185.2C342.8 179.8 336 170.4 336 158.5C336 141.6 349.7 128 366.6 128L464 128C490.5 128 512 149.5 512 176L512 264.8C512 268.8 515.2 272 519.2 272C521.5 272 525.3 270.4 529.2 265.3C540.2 250.6 556.6 240 576 240C595.4 240 611.8 250.5 622.7 265.1C633.6 279.7 640 299.2 640 320C640 340.8 633.7 360.2 622.7 374.9C611.7 389.6 595.4 400 576 400C556.5 400 540.1 389.4 529.2 374.7C525.4 369.5 521.5 368 519.2 368C515.2 368 512 371.2 512 375.2L512 464C512 490.5 490.5 512 464 512L366.6 512C349.7 512 336 498.3 336 481.4C336 469.5 342.8 460.1 350.6 454.7C361.8 447 368 435.7 368 423.9C368 403.7 348.6 383.9 320 383.9C291.4 383.9 272 403.7 272 423.9C272 435.7 278.3 447 289.4 454.7C297.2 460.1 304 469.5 304 481.4C304 498.3 290.3 512 273.5 512L176 512C149.5 512 128 490.5 128 464L128 375.2C128 371.2 124.8 368 120.8 368C118.5 368 114.7 369.6 110.8 374.7C99.8 389.4 83.4 400 64 400C44.6 400 28.2 389.5 17.3 374.9C6.4 360.3 0 340.8 0 320C0 299.2 6.3 279.8 17.3 265.1C28.3 250.4 44.6 240 64 240C83.5 240 99.9 250.6 110.8 265.3C114.6 270.5 118.5 272 120.8 272C124.8 272 128 268.8 128 264.8L128 176z"/></svg>