<svg xmlns="http://www.w3.org/2000/svg" viewBox="0 0 640 640"><!--! Font Awesome Pro 7.1.0 by @fontawesome - https://fontawesome.com License - https://fontawesome.com/license (Commercial License) Copyright 2025 Fonticons, Inc. --><path fill="currentColor" d="M384 64C366.3 64 352 78.3 352 96L352 120C352 137.7 366.3 152 384 152L400 152C408.8 152 416 159.2 416 168C416 176.8 408.8 184 400 184L384 184C366.3 184 352 198.3 352 216L352 240C352 257.7 366.3 272 384 272L416 272C416 298.5 437.5 320 464 320C490.5 320 512 298.5 512 272L544 272C561.7 272 576 257.7 576 240L576 128C576 92.7 547.3 64 512 64L384 64zM384 96L512 96C529.7 96 544 110.3 544 128L544 240L496 240C487.2 240 480 247.2 480 256L480 272C480 280.8 472.8 288 464 288C455.2 288 448 280.8 448 272L448 256C448 247.2 440.8 240 432 240L384 240L384 216L400 216C426.5 216 448 194.5 448 168C448 141.5 426.5 120 400 120L384 120L384 96zM128 128C92.7 128 64 156.7 64 192L64 512C64 547.3 92.7 576 128 576L448 576C483.3 576 512 547.3 512 512L512 368C512 350.3 497.7 336 480 336L432 336C414.3 336 400 350.3 400 368L400 384C400 392.8 392.8 400 384 400C375.2 400 368 392.8 368 384L368 368C368 350.3 353.7 336 336 336L304 336L304 160C304 142.3 289.7 128 272 128L128 128zM272 160L272 336L240 336L240 320C240 293.5 218.5 272 192 272C165.5 272 144 293.5 144 320L144 336L96 336L96 192C96 174.3 110.3 160 128 160L272 160zM144 368C161.7 368 176 353.7 176 336L176 320C176 311.2 183.2 304 192 304C200.8 304 208 311.2 208 320L208 336C208 353.7 222.3 368 240 368L272 368L272 400L256 400C229.5 400 208 421.5 208 448C208 474.5 229.5 496 256 496L272 496L272 544L128 544C110.3 544 96 529.7 96 512L96 368L144 368zM304 496C304 478.3 289.7 464 272 464L256 464C247.2 464 240 456.8 240 448C240 439.2 247.2 432 256 432L272 432C289.7 432 304 417.7 304 400L304 368L336 368L336 384C336 410.5 357.5 432 384 432C410.5 432 432 410.5 432 384L432 368L480 368L480 512C480 529.7 465.7 544 448 544L304 544L304 496z"/></svg>