<svg xmlns="http://www.w3.org/2000/svg" viewBox="0 0 640 640"><!--! Font Awesome Pro 7.1.0 by @fontawesome - https://fontawesome.com License - https://fontawesome.com/license (Commercial License) Copyright 2025 Fonticons, Inc. --><path fill="currentColor" d="M233.1 81.3C247.8 70.3 267.2 64 288 64C308.8 64 328.2 70.3 342.9 81.3C357.6 92.3 368 108.6 368 128C368 147.5 357.4 163.9 342.7 174.8C337.5 178.6 336 182.5 336 184.8C336 188.8 339.2 192 343.2 192L400 192C426.5 192 448 213.5 448 240L448 296.8C448 300.8 451.2 304 455.2 304C457.5 304 461.3 302.4 465.2 297.3C476.2 282.6 492.6 272 512 272C531.4 272 547.8 282.5 558.7 297.1C569.6 311.7 576 331.2 576 352C576 372.8 569.7 392.2 558.7 406.9C547.7 421.6 531.4 432 512 432C492.5 432 476.1 421.4 465.2 406.7C461.4 401.5 457.5 400 455.2 400C451.2 400 448 403.2 448 407.2L448 528C448 554.5 426.5 576 400 576L343.2 576C321.5 576 304 558.5 304 536.8C304 520.6 313.9 508.4 323.6 501.2C332.2 494.8 336 487.1 336 480C336 472.9 332.2 465.3 323.7 458.9C315.2 452.5 302.5 448 288 448C273.5 448 260.9 452.4 252.3 458.9C243.7 465.4 240 472.9 240 480C240 487.1 243.8 494.8 252.4 501.2C262.1 508.4 272 520.6 272 536.8C272 558.5 254.5 576 232.8 576L112 576C85.5 576 64 554.5 64 528L64 407.2C64 385.5 81.5 368 103.2 368C119.4 368 131.6 377.9 138.8 387.6C145.2 396.2 152.9 400 160 400C167.1 400 174.7 396.2 181.1 387.7C187.5 379.2 192 366.5 192 352C192 337.5 187.6 324.9 181.1 316.3C174.6 307.7 167.1 304 160 304C152.9 304 145.2 307.8 138.8 316.4C131.6 326.1 119.4 336 103.2 336C81.6 336 64 318.5 64 296.8L64 240C64 213.5 85.5 192 112 192L232.8 192C236.8 192 240 188.8 240 184.8C240 182.5 238.4 178.7 233.3 174.8C218.6 163.8 208 147.4 208 128C208 108.6 218.5 92.2 233.1 81.3zM252.3 106.9C243.7 113.3 240 121 240 128C240 135.1 243.8 142.8 252.4 149.2C262.1 156.4 272 168.6 272 184.8C272 206.4 254.5 224 232.8 224L112 224C103.2 224 96 231.2 96 240L96 296.8C96 300.8 99.2 304 103.2 304C105.5 304 109.3 302.4 113.2 297.3C124.2 282.6 140.6 272 160 272C179.4 272 195.8 282.5 206.7 297.1C217.6 311.7 224 331.2 224 352C224 372.8 217.7 392.2 206.7 406.9C195.7 421.6 179.4 432 160 432C140.5 432 124.1 421.4 113.2 406.7C109.4 401.5 105.5 400 103.2 400C99.2 400 96 403.2 96 407.2L96 528C96 536.8 103.2 544 112 544L232.8 544C236.8 544 240 540.8 240 536.8C240 534.5 238.4 530.7 233.3 526.8C218.6 515.8 208 499.4 208 480C208 460.6 218.5 444.2 233.1 433.3C247.7 422.4 267.2 416 288 416C308.8 416 328.2 422.3 342.9 433.3C357.6 444.3 368 460.6 368 480C368 499.5 357.4 515.9 342.7 526.8C337.5 530.6 336 534.5 336 536.8C336 540.8 339.2 544 343.2 544L400 544C408.8 544 416 536.8 416 528L416 407.2C416 385.5 433.5 368 455.2 368C471.4 368 483.6 377.9 490.8 387.6C497.2 396.2 504.9 400 512 400C519.1 400 526.7 396.2 533.1 387.7C539.5 379.2 544 366.6 544 352C544 337.4 539.6 324.9 533.1 316.3C526.6 307.7 519 304 512 304C504.9 304 497.2 307.8 490.8 316.4C483.6 326.1 471.4 336 455.2 336C433.5 336 416 318.5 416 296.8L416 240C416 231.2 408.8 224 400 224L343.2 224C321.5 224 304 206.5 304 184.8C304 168.6 313.9 156.4 323.6 149.2C332.2 142.8 336 135.1 336 128C336 120.9 332.2 113.3 323.7 106.9C315.2 100.5 302.5 96 288 96C273.5 96 260.9 100.4 252.3 106.9z"/></svg>