<svg xmlns="http://www.w3.org/2000/svg" viewBox="0 0 640 640"><!--! Font Awesome Pro 7.1.0 by @fontawesome - https://fontawesome.com License - https://fontawesome.com/license (Commercial License) Copyright 2025 Fonticons, Inc. --><path fill="currentColor" d="M240 128C248.8 128 256 135.2 256 144L256 240C256 248.8 248.8 256 240 256L144 256C135.2 256 128 248.8 128 240L128 144C128 135.2 135.2 128 144 128L240 128zM144 96C117.5 96 96 117.5 96 144L96 240C96 266.5 117.5 288 144 288L240 288C266.5 288 288 266.5 288 240L288 144C288 117.5 266.5 96 240 96L144 96zM256 400L256 496C256 504.8 248.8 512 240 512L144 512C135.2 512 128 504.8 128 496L128 400C128 391.2 135.2 384 144 384L240 384C248.8 384 256 391.2 256 400zM144 352C117.5 352 96 373.5 96 400L96 496C96 522.5 117.5 544 144 544L240 544C266.5 544 288 522.5 288 496L288 400C288 373.5 266.5 352 240 352L144 352zM400 128L496 128C504.8 128 512 135.2 512 144L512 240C512 248.8 504.8 256 496 256L400 256C391.2 256 384 248.8 384 240L384 144C384 135.2 391.2 128 400 128zM352 144L352 240C352 266.5 373.5 288 400 288L496 288C522.5 288 544 266.5 544 240L544 144C544 117.5 522.5 96 496 96L400 96C373.5 96 352 117.5 352 144zM360 384C360 397.3 370.7 408 384 408C397.3 408 408 397.3 408 384C408 370.7 397.3 360 384 360C370.7 360 360 370.7 360 384zM360 512C360 525.3 370.7 536 384 536C397.3 536 408 525.3 408 512C408 498.7 397.3 488 384 488C370.7 488 360 498.7 360 512zM512 488C498.7 488 488 498.7 488 512C488 525.3 498.7 536 512 536C525.3 536 536 525.3 536 512C536 498.7 525.3 488 512 488zM488 384C488 397.3 498.7 408 512 408C525.3 408 536 397.3 536 384C536 370.7 525.3 360 512 360C498.7 360 488 370.7 488 384zM448 424C434.7 424 424 434.7 424 448C424 461.3 434.7 472 448 472C461.3 472 472 461.3 472 448C472 434.7 461.3 424 448 424zM192 168C178.7 168 168 178.7 168 192C168 205.3 178.7 216 192 216C205.3 216 216 205.3 216 192C216 178.7 205.3 168 192 168zM168 448C168 461.3 178.7 472 192 472C205.3 472 216 461.3 216 448C216 434.7 205.3 424 192 424C178.7 424 168 434.7 168 448zM448 168C434.7 168 424 178.7 424 192C424 205.3 434.7 216 448 216C461.3 216 472 205.3 472 192C472 178.7 461.3 168 448 168z"/></svg>