<svg xmlns="http://www.w3.org/2000/svg" viewBox="0 0 640 640"><!--! Font Awesome Pro 7.1.0 by @fontawesome - https://fontawesome.com License - https://fontawesome.com/license (Commercial License) Copyright 2025 Fonticons, Inc. --><path fill="currentColor" d="M64 128C64 92.7 92.7 64 128 64L208 64C216.8 64 224 71.2 224 80C224 88.8 216.8 96 208 96L128 96C110.3 96 96 110.3 96 128L96 208C96 216.8 88.8 224 80 224C71.2 224 64 216.8 64 208L64 128zM576 128L576 208C576 216.8 568.8 224 560 224C551.2 224 544 216.8 544 208L544 128C544 110.3 529.7 96 512 96L432 96C423.2 96 416 88.8 416 80C416 71.2 423.2 64 432 64L512 64C547.3 64 576 92.7 576 128zM128 576C92.7 576 64 547.3 64 512L64 432C64 423.2 71.2 416 80 416C88.8 416 96 423.2 96 432L96 512C96 529.7 110.3 544 128 544L208 544C216.8 544 224 551.2 224 560C224 568.8 216.8 576 208 576L128 576zM576 512C576 547.3 547.3 576 512 576L432 576C423.2 576 416 568.8 416 560C416 551.2 423.2 544 432 544L512 544C529.7 544 544 529.7 544 512L544 432C544 423.2 551.2 416 560 416C568.8 416 576 423.2 576 432L576 512zM208 192C199.2 192 192 199.2 192 208L192 256C192 264.8 199.2 272 208 272L256 272C264.8 272 272 264.8 272 256L272 208C272 199.2 264.8 192 256 192L208 192zM160 208C160 181.5 181.5 160 208 160L256 160C282.5 160 304 181.5 304 208L304 256C304 282.5 282.5 304 256 304L208 304C181.5 304 160 282.5 160 256L160 208zM432 192L384 192C375.2 192 368 199.2 368 208L368 256C368 264.8 375.2 272 384 272L432 272C440.8 272 448 264.8 448 256L448 208C448 199.2 440.8 192 432 192zM384 160L432 160C458.5 160 480 181.5 480 208L480 256C480 282.5 458.5 304 432 304L384 304C357.5 304 336 282.5 336 256L336 208C336 181.5 357.5 160 384 160zM208 368C199.2 368 192 375.2 192 384L192 432C192 440.8 199.2 448 208 448L256 448C264.8 448 272 440.8 272 432L272 384C272 375.2 264.8 368 256 368L208 368zM160 384C160 357.5 181.5 336 208 336L256 336C282.5 336 304 357.5 304 384L304 432C304 458.5 282.5 480 256 480L208 480C181.5 480 160 458.5 160 432L160 384zM392 368C392 381.3 381.3 392 368 392C354.7 392 344 381.3 344 368C344 354.7 354.7 344 368 344C381.3 344 392 354.7 392 368zM368 472C354.7 472 344 461.3 344 448C344 434.7 354.7 424 368 424C381.3 424 392 434.7 392 448C392 461.3 381.3 472 368 472zM472 368C472 381.3 461.3 392 448 392C434.7 392 424 381.3 424 368C424 354.7 434.7 344 448 344C461.3 344 472 354.7 472 368zM448 472C434.7 472 424 461.3 424 448C424 434.7 434.7 424 448 424C461.3 424 472 434.7 472 448C472 461.3 461.3 472 448 472z"/></svg>