<svg xmlns="http://www.w3.org/2000/svg" viewBox="0 0 640 640"><!--! Font Awesome Pro 7.1.0 by @fontawesome - https://fontawesome.com License - https://fontawesome.com/license (Commercial License) Copyright 2025 Fonticons, Inc. --><path fill="currentColor" d="M528 608C483.8 608 448 572.2 448 528C448 483.8 483.8 448 528 448C572.2 448 608 483.8 608 528C608 572.2 572.2 608 528 608zM528 480C501.5 480 480 501.5 480 528C480 554.5 501.5 576 528 576C554.5 576 576 554.5 576 528C576 501.5 554.5 480 528 480zM583.2 66.6C589.4 62.5 597.9 63.2 603.3 68.7C608.7 74.2 609.5 82.6 605.4 88.8L603.3 91.3L395.3 299.3L440.6 344.5C445.4 349.3 448 355.7 448 362.4L447.6 367C445.7 377.4 437.5 385.7 426.8 387.5L372.1 396.6L373.5 406.5C380.1 452.8 364.5 499.4 331.5 532.5L326.2 537.6C299 562.3 263.4 576 226.5 576L54.7 576L50.1 575.5C41.3 573.7 34.3 566.7 32.5 557.9L32 553.3C32 548.8 33.4 544.5 35.8 540.8L38.6 537.4L128 448L113.3 448C104.9 448 97.9 442 96.3 434.2L96 430.7C96 402.7 106.4 375.7 125.1 355L129 351L139.5 340.5C170.5 309.5 213.4 293.9 256.8 297.5L265.5 298.5L275.3 299.9L284.4 245.2C286.4 233 297 224 309.4 224C316.1 224 322.6 226.7 327.3 231.4L372.6 276.6L580.6 68.6L583.1 66.5zM261 330.2C224.7 325 188.1 337.2 162.2 363.1L151.7 373.6C140.1 385.2 132.4 400.1 129.5 416.1C141.9 416.6 152.9 424.2 157.7 435.8C162.7 447.8 159.9 461.5 150.8 470.7L77.4 544.1L226.6 544.1L232.4 543.9C259.3 542.6 284.9 532 304.8 513.9L309 509.9C333.3 485.6 345.6 451.9 342.7 417.8L341.9 411L338.3 386.2L285.8 333.7L261 330.2zM306.7 306.6L365.4 365.3L408.9 358.1L314 263.2L306.7 306.7z"/></svg>