<svg xmlns="http://www.w3.org/2000/svg" viewBox="0 0 640 640"><!--! Font Awesome Pro 7.1.0 by @fontawesome - https://fontawesome.com License - https://fontawesome.com/license (Commercial License) Copyright 2025 Fonticons, Inc. --><path fill="currentColor" d="M96 272C96 210.1 146.1 160 208 160L240 160C248.8 160 256 167.2 256 176C256 184.8 248.8 192 240 192L208 192C163.8 192 128 227.8 128 272L128 296.6C137.4 291.2 148.3 288 160 288L224 288C259.3 288 288 316.7 288 352L288 416C288 451.3 259.3 480 224 480L160 480C124.7 480 96 451.3 96 416L96 272zM128 352L128 416C128 433.7 142.3 448 160 448L224 448C241.7 448 256 433.7 256 416L256 352C256 334.3 241.7 320 224 320L160 320C142.3 320 128 334.3 128 352zM480 320L416 320C398.3 320 384 334.3 384 352L384 416C384 433.7 398.3 448 416 448L480 448C497.7 448 512 433.7 512 416L512 352C512 334.3 497.7 320 480 320zM352 384L352 272C352 210.1 402.1 160 464 160L496 160C504.8 160 512 167.2 512 176C512 184.8 504.8 192 496 192L464 192C419.8 192 384 227.8 384 272L384 296.6C393.4 291.2 404.3 288 416 288L480 288C515.3 288 544 316.7 544 352L544 416C544 451.3 515.3 480 480 480L416 480C380.7 480 352 451.3 352 416L352 384z"/></svg>