<svg xmlns="http://www.w3.org/2000/svg" viewBox="0 0 640 640"><!--! Font Awesome Pro 7.1.0 by @fontawesome - https://fontawesome.com License - https://fontawesome.com/license (Commercial License) Copyright 2025 Fonticons, Inc. --><path fill="currentColor" d="M544 368C544 429.9 493.9 480 432 480L400 480C391.2 480 384 472.8 384 464C384 455.2 391.2 448 400 448L432 448C476.2 448 512 412.2 512 368L512 343.4C502.6 348.8 491.7 352 480 352L416 352C380.7 352 352 323.3 352 288L352 224C352 188.7 380.7 160 416 160L480 160C515.3 160 544 188.7 544 224L544 368zM512 288L512 224C512 206.3 497.7 192 480 192L416 192C398.3 192 384 206.3 384 224L384 288C384 305.7 398.3 320 416 320L480 320C497.7 320 512 305.7 512 288zM160 320L224 320C241.7 320 256 305.7 256 288L256 224C256 206.3 241.7 192 224 192L160 192C142.3 192 128 206.3 128 224L128 288C128 305.7 142.3 320 160 320zM288 256L288 368C288 429.9 237.9 480 176 480L144 480C135.2 480 128 472.8 128 464C128 455.2 135.2 448 144 448L176 448C220.2 448 256 412.2 256 368L256 343.4C246.6 348.8 235.7 352 224 352L160 352C124.7 352 96 323.3 96 288L96 224C96 188.7 124.7 160 160 160L224 160C259.3 160 288 188.7 288 224L288 256z"/></svg>