<svg xmlns="http://www.w3.org/2000/svg" viewBox="0 0 640 640"><!--! Font Awesome Pro 7.1.0 by @fontawesome - https://fontawesome.com License - https://fontawesome.com/license (Commercial License) Copyright 2025 Fonticons, Inc. --><path fill="currentColor" d="M32 152C32 103.4 71.4 64 120 64L128 64C136.8 64 144 71.2 144 80C144 88.8 136.8 96 128 96L120 96C89.1 96 64 121.1 64 152L64 162.7C69 161 74.4 160 80 160L112 160C138.5 160 160 181.5 160 208L160 240C160 266.5 138.5 288 112 288L80 288C53.5 288 32 266.5 32 240L32 152zM64 208L64 240C64 248.8 71.2 256 80 256L112 256C120.8 256 128 248.8 128 240L128 208C128 199.2 120.8 192 112 192L80 192C71.2 192 64 199.2 64 208zM192 152C192 103.4 231.4 64 280 64L288 64C296.8 64 304 71.2 304 80C304 88.8 296.8 96 288 96L280 96C249.1 96 224 121.1 224 152L224 162.7C229 160.9 234.4 160 240 160L272 160C298.5 160 320 181.5 320 208L320 240C320 266.5 298.5 288 272 288L240 288C213.5 288 192 266.5 192 240L192 152zM224 232L224 240C224 248.8 231.2 256 240 256L272 256C280.8 256 288 248.8 288 240L288 208C288 199.2 280.8 192 272 192L240 192C231.2 192 224 199.2 224 208L224 232zM608 488C608 536.6 568.6 576 520 576L512 576C503.2 576 496 568.8 496 560C496 551.2 503.2 544 512 544L520 544C550.9 544 576 518.9 576 488L576 477.3C571 479.1 565.6 480 560 480L528 480C501.5 480 480 458.5 480 432L480 400C480 373.5 501.5 352 528 352L560 352C586.5 352 608 373.5 608 400L608 488zM576 432L576 400C576 391.2 568.8 384 560 384L528 384C519.2 384 512 391.2 512 400L512 432C512 440.8 519.2 448 528 448L560 448C568.8 448 576 440.8 576 432zM448 488C448 536.6 408.6 576 360 576L352 576C343.2 576 336 568.8 336 560C336 551.2 343.2 544 352 544L360 544C390.9 544 416 518.9 416 488L416 477.3C411 479.1 405.6 480 400 480L368 480C341.5 480 320 458.5 320 432L320 400C320 373.5 341.5 352 368 352L400 352C426.5 352 448 373.5 448 400L448 488zM416 408L416 400C416 391.2 408.8 384 400 384L368 384C359.2 384 352 391.2 352 400L352 432C352 440.8 359.2 448 368 448L400 448C408.8 448 416 440.8 416 432L416 408z"/></svg>