<svg xmlns="http://www.w3.org/2000/svg" viewBox="0 0 640 640"><!--! Font Awesome Pro 7.1.0 by @fontawesome - https://fontawesome.com License - https://fontawesome.com/license (Commercial License) Copyright 2025 Fonticons, Inc. --><path fill="currentColor" d="M176 96C167.2 96 160 103.2 160 112L160 528C160 536.8 167.2 544 176 544C184.8 544 192 536.8 192 528L192 352L327.4 352L450.7 536.9C455.6 544.3 465.5 546.2 472.9 541.3C480.3 536.4 482.2 526.5 477.3 519.1L365.4 351.3C429.8 344.6 480 290.2 480 224C480 153.3 422.7 96 352 96L176 96zM336 320L192 320L192 128L352 128C405 128 448 171 448 224C448 277 405 320 352 320L336 320z"/></svg>