<svg xmlns="http://www.w3.org/2000/svg" viewBox="0 0 640 640"><!--! Font Awesome Pro 7.1.0 by @fontawesome - https://fontawesome.com License - https://fontawesome.com/license (Commercial License) Copyright 2025 Fonticons, Inc. --><path fill="currentColor" d="M481.3 212.5C495.9 214.6 510 219.1 523.1 226C522.4 191 508.1 157 482.3 131.8L480.9 130.4C479 128.5 476.2 127.7 473.6 128.2L472 128.5C469.7 128.9 467.8 130.4 466.7 132.4C459.2 124.7 451.1 117.7 442.4 111.3C448.2 104 456.5 98.9 465.9 97.1L467.5 96.8C480.5 94.3 493.9 98.3 503.3 107.6L504.7 109C541.8 145.4 559.7 196.5 554.1 247.2L577.8 264.9C596.8 279.1 608 301.4 608 325.2C608 366.7 574.3 400.4 532.8 400.4L438.6 400.4L406.6 432.4L456 432.4C482.5 432.4 504 453.9 504 480.4C504 506.9 482.5 528.4 456 528.4L338.5 528.4C317.3 528.4 296.9 520 281.9 505L269 492.1L202.6 536.4C180.5 551.1 150.7 545.1 136 523.1C121.3 501.1 127.3 471.2 149.3 456.5L199.7 422.9L144.7 367.9C134.9 358.1 127.1 346.7 121.6 334.2C115.9 335.6 110 336.4 103.9 336.4C64.1 336.4 31.9 304.2 31.9 264.4C31.9 224.6 64.1 192.4 103.9 192.4C120.2 192.4 135.2 197.8 147.2 206.9C167.3 188 194.3 176.4 224.1 176.4L233.1 176.4C250.4 176.4 267.5 180.1 283.3 187.3L351 217.9C346 207.2 342.2 195.8 339.7 184L332.3 149.6C328.4 131.2 338.9 112.8 356.7 106.9C363.9 104.5 371.7 104.4 379 106.6C429.3 121.7 468 161.9 481.3 212.5zM113 303.3C112.3 298.4 112 293.5 112 288.5C112 267.8 117.6 248.5 127.3 231.8C120.7 227.1 112.7 224.3 104 224.3C81.9 224.3 64 242.2 64 264.3C64 286.4 81.9 304.3 104 304.3C107.1 304.3 110.1 303.9 113 303.3zM167.1 483C159.7 487.9 157.8 497.8 162.7 505.2C167.6 512.6 177.5 514.5 184.9 509.6L246 468.9L222.9 445.8L167.1 483zM366.8 137.3C364.4 138.1 363 140.5 363.6 143L371 177.4C376.7 204.1 390.7 228 410.8 245.9C416.7 251.2 417.8 260 413.5 266.6C409.2 273.2 400.7 275.7 393.5 272.4L270.2 216.4C258.6 211.1 246 208.4 233.3 208.4L224.3 208.4C180 208.4 144.1 244.3 144.1 288.6C144.1 309.9 152.5 330.3 167.6 345.3L304.6 482.2C313.6 491.2 325.8 496.3 338.5 496.3L456 496.3C464.8 496.3 472 489.1 472 480.3C472 471.5 464.8 464.3 456 464.3L368 464.3C361.5 464.3 355.7 460.4 353.2 454.4C352.4 452.5 352 450.6 352 448.6L349.5 413.9C346.7 374.4 319.9 340.7 282 329L251.3 319.6C242.9 317 238.1 308 240.7 299.6C243.3 291.2 252.3 286.4 260.7 289L291.4 298.4C341.9 313.9 377.7 358.9 381.4 411.6L381.4 412.1L420.6 372.9C423.6 369.9 427.7 368.2 431.9 368.2L532.7 368.2C556.6 368.2 575.9 348.9 575.9 325C575.9 311.4 569.5 298.5 558.5 290.4L521.2 262.5C505.6 250.8 486.9 244.2 467.6 243.2C460.5 242.9 454.5 237.9 452.8 231L450.7 222.3C440.7 181.6 409.9 149.1 369.7 137.1C368.7 136.8 367.7 136.8 366.8 137.1zM512 288.3C520.8 288.3 528 295.5 528 304.3C528 313.1 520.8 320.3 512 320.3C503.2 320.3 496 313.1 496 304.3C496 295.5 503.2 288.3 512 288.3z"/></svg>