<svg xmlns="http://www.w3.org/2000/svg" viewBox="0 0 640 640"><!--! Font Awesome Pro 7.1.0 by @fontawesome - https://fontawesome.com License - https://fontawesome.com/license (Commercial License) Copyright 2025 Fonticons, Inc. --><path fill="currentColor" d="M388.1 84.8C394.6 94.2 400.2 104 405 114.3C408.5 109.9 412.2 105.7 416.2 101.7L419.3 98.6C421 96.9 423.3 96 425.7 96C430.2 96 434 99.3 434.6 103.7L435.3 108.6C438.6 131.3 436.5 154.2 429.7 175.4C416.8 170.6 403 168 389 167.9C382.7 134.7 366.5 103.5 341.6 78.9L338.5 75.8L338.5 75.8C330.9 68.3 320.5 64 309.7 64C289.3 64 272 79 269.1 99.2L268.4 104.1C260.8 157.1 277 210.3 312 250L312 287.6C249.2 305.1 198.4 351.3 174.6 411.2C163.4 404.1 150.2 400 136 400C96.2 400 64 432.2 64 472C64 511.8 96.2 544 136 544C148.4 544 160.1 540.9 170.3 535.3C184 559.5 209.9 575.8 239.6 576L368 576C394.5 576 416 554.5 416 528C416 502.1 395.5 481 369.8 480L390.8 457.8L446.7 552.4C460.2 575.2 489.6 582.8 512.4 569.3C535.2 555.8 542.8 526.4 529.3 503.6L444.5 360L451.8 360C493.9 360 528.1 325.9 528.1 283.7C528.1 260.8 517.8 239.1 500 224.6L463 194.5C461.5 193.3 459.9 192 458.3 190.9C468.1 163.5 471.3 133.8 467 104.1L466.3 99.2C463.4 79 446.1 64 425.7 64C414.9 64 404.5 68.3 396.8 75.9L393.7 79C391.8 80.9 389.9 82.9 388.1 84.8zM160.4 503.7C153.7 508.9 145.2 512 136 512C113.9 512 96 494.1 96 472C96 449.9 113.9 432 136 432C147.2 432 157.4 436.6 164.6 444.1C161.6 458.3 160 473 160 488L160 496C160 498.6 160.1 501.2 160.4 503.7zM300.8 103.7C301.4 99.3 305.2 96 309.7 96C312.1 96 314.4 96.9 316 98.6L319.1 101.7C342.5 124.9 356.4 155.2 359.4 186.9C359.8 191.5 362.2 195.6 365.9 198.3C369.6 201 374.3 202 378.8 201C381.9 200.3 385.1 200 388.4 200C408.2 200 427.4 206.8 442.7 219.3L479.6 249.4C489.9 257.8 495.9 270.4 495.9 283.7C495.9 308.1 476.1 328 451.6 328L416.3 328C410.6 328 405.3 331.1 402.4 336.1C399.5 341.1 399.6 347.2 402.5 352.2L501.6 519.9C506.1 527.5 503.6 537.3 496 541.8C488.4 546.3 478.6 543.8 474.1 536.2L407.6 423.3C405 419 400.6 416.1 395.6 415.5C390.6 414.9 385.6 416.7 382.2 420.4L321 485C316.6 489.6 315.4 496.5 317.9 502.3C320.4 508.1 326.2 512 332.6 512L368 512C376.8 512 384 519.2 384 528C384 536.8 376.8 544 368 544L239.8 544C213.4 543.9 192 522.4 192 496L192 488C192 403.4 251.7 332.7 331.3 315.8C338.7 314.2 344 307.7 344 300.1L344 244.4L344 244C344 239.9 342.5 235.9 339.6 232.8C308.3 199.7 293.6 154 300.1 108.6L300.8 103.7zM416 272C424.8 272 432 264.8 432 256C432 247.2 424.8 240 416 240C407.2 240 400 247.2 400 256C400 264.8 407.2 272 416 272z"/></svg>