<svg xmlns="http://www.w3.org/2000/svg" viewBox="0 0 640 640"><!--! Font Awesome Pro 7.1.0 by @fontawesome - https://fontawesome.com License - https://fontawesome.com/license (Commercial License) Copyright 2025 Fonticons, Inc. --><path fill="currentColor" d="M347.2 121.1L330.6 141.6C355.2 129.2 384.1 136.9 400 157.1C415.9 136.9 444.8 129.2 469.4 141.6L452.8 121.1C439.9 105.2 420.5 96 400 96C379.5 96 360.1 105.2 347.2 121.1zM400 226.6C397.4 230 394.3 233.1 390.9 235.8L354.2 265.2C356.4 266.5 358.6 267.9 360.8 269.3L376 279.4C376.3 266.4 386.9 256 400 256C413.1 256 423.7 266.4 424 279.4L439.3 269.2C441.4 267.8 443.6 266.4 445.9 265.1L409.2 235.7C405.8 233 402.7 229.9 400.1 226.5zM479.1 250.8L513.5 240.5C522.1 237.9 528 230 528 221C528 218.2 527.4 215.5 526.3 212.9L456.7 171.1C442.3 162.5 423.8 170.7 420.5 187.1C418.7 196 422 205.1 429.1 210.8L479.1 250.8zM370.9 210.8C378 205.1 381.3 196 379.5 187.1C376.2 170.7 357.6 162.4 343.3 171.1L273.7 212.9C272.6 215.4 272 218.2 272 221C272 230 277.9 237.9 286.5 240.5L320.9 250.8L370.9 210.8zM400 64C416 64 431.5 67.8 445.3 74.9L489.4 65.1C492.6 64.4 495.9 64 499.1 64L500.4 64C524.4 64 543.9 83.5 543.9 107.5C543.9 112.2 543.1 116.8 541.7 121.3L527.9 162.8L548.2 187.8C555.8 197.1 559.9 208.8 559.9 220.8C559.9 243.9 544.7 264.3 522.6 271L486.8 281.7C476.2 284.9 466.2 289.6 457 295.7L438.2 308.3C426.9 316 413.6 320 400 320C386.4 320 373.1 316 361.8 308.4L343 295.9C333.8 289.8 323.8 285 313.2 281.9L277.4 271.2C255.2 264.6 240.1 244.2 240.1 221C240.1 209 244.2 197.3 251.8 188L272.1 163L258.3 121.5C256.8 117.1 256.1 112.4 256.1 107.7C256.1 83.7 275.6 64.2 299.6 64.2L300.9 64.2C304.2 64.2 307.4 64.6 310.6 65.3L354.7 75.1C368.5 67.8 384 64 400 64zM303.6 96.3C302.7 96.1 301.8 96 300.8 96L299.5 96C293.1 96 288 101.2 288 107.5C288 108.7 288.2 110 288.6 111.1L296 133.3L322.4 100.9L322.7 100.5L303.6 96.3zM477.6 100.9L504 133.3L511.4 111.1C511.8 109.9 512 108.7 512 107.5C512 101.1 506.8 96 500.5 96L499.2 96C498.3 96 497.3 96.1 496.4 96.3L477.3 100.5L477.6 100.9zM192 331.1C206 314.3 222.6 299.7 241.1 288C249 294.1 258.1 298.8 268.1 301.8L277.4 304.6C217.5 332.7 176 393.5 176 464.1C176 472.9 168.8 480.1 160 480.1C151.2 480.1 144 472.9 144 464.1C144 447.6 145.9 431.5 149.6 416.1L96 416.1L96 464.1C96 508.3 131.8 544.1 176 544.1L384 544.1C384 526.4 369.7 512.1 352 512.1L304 512.1C295.2 512.1 288 504.9 288 496.1C288 487.3 295.2 480.1 304 480.1L352 480.1C387.3 480.1 416 508.8 416 544.1L512 544.1C512 526.4 497.7 512.1 480 512.1L464 512.1C455.2 512.1 448 504.9 448 496.1C448 487.3 455.2 480.1 464 480.1L480 480.1C515.3 480.1 544 508.8 544 544.1L544 560.1C544 568.9 536.8 576.1 528 576.1L176 576.1C114.1 576 64 525.9 64 464L64 160C64 124.7 92.7 96 128 96C163.3 96 192 124.7 192 160L192 331.1zM512 358.3C512 341.3 505.1 325.2 493.1 313.5C494.1 313.2 495.1 312.9 496 312.6L526.4 303.5C537.7 319.4 544 338.5 544 358.4C544 389.8 528.4 419.1 502.5 436.8L491.6 444C472.8 456.7 447.7 454.3 431.6 438.3C410.5 417.2 414 382.1 438.8 365.5L455.1 354.7C462.5 349.8 472.4 351.8 477.3 359.1C482.2 366.4 480.2 376.4 472.9 381.3L456.6 392.1C448.6 397.4 447.5 408.8 454.3 415.6C459.5 420.8 467.6 421.6 473.7 417.4L484.5 410.1C501.7 398.4 512 379 512 358.2zM159.9 384L160 383.9L160 320L96 320L96 384L159.9 384zM160 224L96 224L96 288L160 288L160 224zM160 192L160 160C160 142.3 145.7 128 128 128C110.3 128 96 142.3 96 160L96 192L160 192zM368.4 438.2C352.3 454.3 327.1 456.7 308.2 443.9L263 413.2C255.7 408.2 253.8 398.3 258.7 391C263.6 383.7 273.6 381.8 280.9 386.7L326.2 417.4C332.3 421.6 340.5 420.8 345.8 415.5C352.6 408.7 351.6 397.3 343.5 391.8L308.3 368C301 363 299.1 353.1 304 345.8C308.9 338.5 318.9 336.6 326.2 341.5L361.5 365.4C386.1 382.1 389.5 417.1 368.4 438.2zM336 192C336 183.2 343.2 176 352 176C360.8 176 368 183.2 368 192C368 200.8 360.8 208 352 208C343.2 208 336 200.8 336 192zM448 176C456.8 176 464 183.2 464 192C464 200.8 456.8 208 448 208C439.2 208 432 200.8 432 192C432 183.2 439.2 176 448 176z"/></svg>