<svg xmlns="http://www.w3.org/2000/svg" viewBox="0 0 640 640"><!--! Font Awesome Pro 7.1.0 by @fontawesome - https://fontawesome.com License - https://fontawesome.com/license (Commercial License) Copyright 2025 Fonticons, Inc. --><path fill="currentColor" d="M439.9 48.2C479.7 49.9 517.7 64.6 546.6 93.5C577.4 124.3 592.1 165.4 592.1 208.2L591.8 218.4C589.1 269.5 565.8 322.3 524 364.1C449.4 438.7 336.9 455.2 265.4 397.3L206.2 456.5C216.9 471.1 216.6 491.3 205 505.4L202.2 508.4L132.1 578.5C117.5 593.1 94.3 594.1 78.6 581.3L75.6 578.5L61.5 564.4C45.9 548.8 45.9 523.5 61.5 507.8L131.6 437.7L134.6 434.9C148.7 423.4 168.9 423 183.5 433.7L242.6 374.6C220.8 347.6 209.5 314.4 208 279.9L207.8 271.9C207.8 217.7 231.3 160.6 275.8 116.1C320.3 71.6 377.8 48 431.9 48L439.9 48.2zM165.6 460.3C162.9 457.6 158.6 457.2 155.5 459.3L154.3 460.3L84.2 530.4C81.1 533.5 81.1 538.6 84.2 541.7L98.3 555.8L99.5 556.8C102.6 558.8 106.8 558.5 109.6 555.8L179.7 485.7C182.4 483 182.8 478.7 180.7 475.6L179.7 474.3L165.6 460.2zM431.9 80C386.8 80 337.7 99.7 298.7 138.7C259.7 177.7 240 226.8 240 271.9L240.2 278.5C241.6 311.3 253.6 341.4 276.2 363.9C330.3 418 431 411.8 501.4 341.4C538 304.8 557.5 259.4 559.8 216.7L560 208.2C560 172.8 547.9 140.2 523.9 116.2C501.4 93.7 471.3 81.7 438.5 80.2L431.9 80z"/></svg>