<svg xmlns="http://www.w3.org/2000/svg" viewBox="0 0 640 640"><!--! Font Awesome Pro 7.1.0 by @fontawesome - https://fontawesome.com License - https://fontawesome.com/license (Commercial License) Copyright 2025 Fonticons, Inc. --><path fill="currentColor" d="M387.1 230.3C368.4 216.3 345.2 208 320 208C258.1 208 208 258.1 208 320C208 381.9 258.1 432 320 432C381.9 432 432 381.9 432 320L464 320C464 399.5 399.5 464 320 464C240.5 464 176 399.5 176 320C176 240.5 240.5 176 320 176C354 176 385.2 187.8 409.9 207.5L466.7 150.7C427.4 116.6 376.1 96 320 96C196.3 96 96 196.3 96 320C96 443.7 196.3 544 320 544C443.7 544 544 443.7 544 320L576 320C576 461.4 461.4 576 320 576C178.6 576 64 461.4 64 320C64 178.6 178.6 64 320 64C384.9 64 444.2 88.2 489.4 128L532.7 84.7C538.9 78.5 549.1 78.5 555.3 84.7C561.5 90.9 561.5 101.1 555.3 107.3L331.3 331.3C325.1 337.5 314.9 337.5 308.7 331.3C302.5 325.1 302.5 314.9 308.7 308.7L387.1 230.3z"/></svg>