<svg xmlns="http://www.w3.org/2000/svg" viewBox="0 0 640 640"><!--! Font Awesome Pro 7.1.0 by @fontawesome - https://fontawesome.com License - https://fontawesome.com/license (Commercial License) Copyright 2025 Fonticons, Inc. --><path fill="currentColor" d="M564.4 63.4C572.9 61 577.8 52.1 575.4 43.6C573 35.1 564.1 30.2 555.6 32.6L116.4 157.1C98.6 162.1 84 173.5 74.8 188.4C68 198.6 64 210.8 64 224L64 480C64 515.3 92.7 544 128 544L512 544C547.3 544 576 515.3 576 480L576 224C576 188.7 547.3 160 512 160L223.4 160L564.4 63.4zM96 336L96 226.3C96 218.9 98 211.8 101.7 205.8C107.5 197.5 117.1 192 128 192L512 192C529.7 192 544 206.3 544 224L544 480C544 497.7 529.7 512 512 512L128 512C110.3 512 96 497.7 96 480L96 336zM480 352C480 387.3 451.3 416 416 416C380.7 416 352 387.3 352 352C352 316.7 380.7 288 416 288C451.3 288 480 316.7 480 352zM416 256C363 256 320 299 320 352C320 405 363 448 416 448C469 448 512 405 512 352C512 299 469 256 416 256zM160 288C151.2 288 144 295.2 144 304C144 312.8 151.2 320 160 320L256 320C264.8 320 272 312.8 272 304C272 295.2 264.8 288 256 288L160 288zM160 384C151.2 384 144 391.2 144 400C144 408.8 151.2 416 160 416L256 416C264.8 416 272 408.8 272 400C272 391.2 264.8 384 256 384L160 384z"/></svg>