<svg xmlns="http://www.w3.org/2000/svg" viewBox="0 0 640 640"><!--! Font Awesome Pro 7.1.0 by @fontawesome - https://fontawesome.com License - https://fontawesome.com/license (Commercial License) Copyright 2025 Fonticons, Inc. --><path fill="currentColor" d="M564.4 63.4C572.9 61 577.8 52.1 575.4 43.6C573 35.1 564.1 30.2 555.6 32.6L116.4 157.1C98.6 162.1 84 173.5 74.8 188.4C68 198.6 64 210.8 64 224L64 480C64 515.3 92.7 544 128 544L512 544C547.3 544 576 515.3 576 480L576 224C576 188.7 547.3 160 512 160L223.4 160L564.4 63.4zM96 226.3C96 218.9 98 211.8 101.7 205.8C107.5 197.5 117.1 192 128 192L512 192C529.7 192 544 206.3 544 224L544 256L96 256L96 226.3zM96 288L544 288L544 480C544 497.7 529.7 512 512 512L128 512C110.3 512 96 497.7 96 480L96 288zM400 400C400 382.3 414.3 368 432 368C449.7 368 464 382.3 464 400C464 417.7 449.7 432 432 432C414.3 432 400 417.7 400 400zM496 400C496 364.7 467.3 336 432 336C396.7 336 368 364.7 368 400C368 435.3 396.7 464 432 464C467.3 464 496 435.3 496 400zM216 384C216 366.3 201.7 352 184 352C166.3 352 152 366.3 152 384C152 401.7 166.3 416 184 416C201.7 416 216 401.7 216 384zM288 416C305.7 416 320 401.7 320 384C320 366.3 305.7 352 288 352C270.3 352 256 366.3 256 384C256 401.7 270.3 416 288 416z"/></svg>