<svg xmlns="http://www.w3.org/2000/svg" viewBox="0 0 640 640"><!--! Font Awesome Pro 7.1.0 by @fontawesome - https://fontawesome.com License - https://fontawesome.com/license (Commercial License) Copyright 2025 Fonticons, Inc. --><path fill="currentColor" d="M451 81.6C443.4 77.4 433.8 80.1 429.4 87.6L361.4 205.5C359.2 209.3 358.7 213.8 359.9 218C361.1 222.2 364 225.7 367.9 227.7C401.3 245 424 279.9 424 320.1C424 328.9 431.2 336.1 440 336.1L576 336.1C580.2 336.1 584.3 334.4 587.3 331.4C590.3 328.4 592 324.3 592 320.1C592 217.3 535 127.9 451 81.7zM210.6 87.6C206.2 80.1 196.7 77.4 189 81.6C105 127.9 48 217.3 48 320C48 324.2 49.7 328.3 52.7 331.3C55.7 334.3 59.8 336 64 336L200 336C208.8 336 216 328.8 216 320C216 279.8 238.7 245 272.1 227.6C276 225.6 278.9 222.1 280.1 217.9C281.3 213.7 280.8 209.2 278.6 205.4L210.6 87.5zM396.9 207.8L449 117.6C511.5 157.6 554.3 225.6 559.4 304L455 304C450.3 264.1 428.4 229.5 396.9 207.8zM184.9 304L80.5 304C85.7 225.7 128.4 157.6 191 117.6L243.1 207.8C211.6 229.5 189.7 264.1 185 304zM263.9 407.6C260.2 405.2 255.7 404.5 251.5 405.5C247.3 406.5 243.6 409.3 241.4 413L173.4 531C169.1 538.5 171.5 548.2 179 552.7C220.1 577.7 268.4 592.1 320 592.1C371.6 592.1 419.9 577.7 461 552.7C468.4 548.2 470.9 538.6 466.5 531L398.5 413.1C396.3 409.3 392.7 406.6 388.4 405.6C384.1 404.6 379.7 405.3 376 407.7C359.9 418 340.7 424 320 424C299.3 424 280.1 418 264 407.6zM209.2 533L261.3 442.8C279.1 451.2 299 456 320 456C341 456 360.9 451.2 378.7 442.7L430.8 533C397.6 550.2 360 560 320 560C280 560 242.4 550.2 209.2 533zM352 320C352 337.7 337.7 352 320 352C302.3 352 288 337.7 288 320C288 302.3 302.3 288 320 288C337.7 288 352 302.3 352 320zM320 256C284.7 256 256 284.7 256 320C256 355.3 284.7 384 320 384C355.3 384 384 355.3 384 320C384 284.7 355.3 256 320 256z"/></svg>