<svg xmlns="http://www.w3.org/2000/svg" viewBox="0 0 640 640"><!--! Font Awesome Pro 7.1.0 by @fontawesome - https://fontawesome.com License - https://fontawesome.com/license (Commercial License) Copyright 2025 Fonticons, Inc. --><path fill="currentColor" d="M320 128C160.9 128 32 256.9 32 416L32 496C32 504.8 24.8 512 16 512C7.2 512 0 504.8 0 496L0 416C0 239.3 143.3 96 320 96C496.7 96 640 239.3 640 416L640 496C640 504.8 632.8 512 624 512C615.2 512 608 504.8 608 496L608 416C608 256.9 479.1 128 320 128zM316 240C221 240 144 317 144 412L144 496C144 504.8 136.8 512 128 512C119.2 512 112 504.8 112 496L112 412C112 299.3 203.3 208 316 208C428.7 208 520 299.3 520 412L520 496C520 504.8 512.8 512 504 512C495.2 512 488 504.8 488 496L488 412C488 317 411 240 316 240zM256 416L256 496C256 504.8 248.8 512 240 512C231.2 512 224 504.8 224 496L224 416C224 363 267 320 320 320C373 320 416 363 416 416L416 496C416 504.8 408.8 512 400 512C391.2 512 384 504.8 384 496L384 416C384 380.7 355.3 352 320 352C284.7 352 256 380.7 256 416z"/></svg>