<svg xmlns="http://www.w3.org/2000/svg" viewBox="0 0 640 640"><!--! Font Awesome Pro 7.1.0 by @fontawesome - https://fontawesome.com License - https://fontawesome.com/license (Commercial License) Copyright 2025 Fonticons, Inc. --><path fill="currentColor" d="M528 96C289.4 96 96 289.4 96 528C96 536.8 88.8 544 80 544C71.2 544 64 536.8 64 528C64 271.7 271.7 64 528 64C536.8 64 544 71.2 544 80C544 88.8 536.8 96 528 96zM528 240C368.9 240 240 368.9 240 528C240 536.8 232.8 544 224 544C215.2 544 208 536.8 208 528C208 351.3 351.3 208 528 208C536.8 208 544 215.2 544 224C544 232.8 536.8 240 528 240zM384 528C384 536.8 376.8 544 368 544C359.2 544 352 536.8 352 528C352 430.8 430.8 352 528 352C536.8 352 544 359.2 544 368C544 376.8 536.8 384 528 384C448.5 384 384 448.5 384 528z"/></svg>