<svg xmlns="http://www.w3.org/2000/svg" viewBox="0 0 640 640"><!--! Font Awesome Pro 7.1.0 by @fontawesome - https://fontawesome.com License - https://fontawesome.com/license (Commercial License) Copyright 2025 Fonticons, Inc. --><path fill="currentColor" d="M256 120.5L227.1 179.6C225 183.8 224 188.4 224 193.1C224 210.1 237.8 223.9 254.8 223.9L257.2 223.9C274.2 223.9 288 210.1 288 193.1C288 188.4 286.9 183.8 284.9 179.6L256 120.5zM313.6 165.6C317.8 174.2 320 183.6 320 193.2C320 227.9 291.9 256 257.2 256L254.8 256C220.1 256 192 227.9 192 193.2C192 183.6 194.2 174.2 198.4 165.6L244.5 71.2C246.6 66.8 251.1 64 256 64C260.9 64 265.4 66.8 267.5 71.2L313.6 165.6zM160 344.5L131.1 403.7C129 407.9 128 412.5 128 417.2C128 434.2 141.8 448 158.8 448L161.2 448C178.2 448 192 434.2 192 417.2C192 412.5 190.9 407.9 188.9 403.7L160 344.5zM217.6 389.6C221.8 398.2 224 407.6 224 417.2C224 451.9 195.9 480 161.2 480L158.8 480C124.1 480 96 451.9 96 417.2C96 407.6 98.2 398.2 102.4 389.6L148.5 295.2C150.6 290.8 155.1 288 160 288C164.9 288 169.4 290.8 171.5 295.2L217.6 389.6zM333.3 406.9C324.6 421.1 320 437.4 320 454C320 503.7 360.3 544 410 544L422 544C471.7 544 512 503.7 512 454C512 437.4 507.4 421.1 498.7 406.9L416 272.1L333.3 406.9zM306 390.2L403.8 230.8C406.4 226.6 411 224 416 224C421 224 425.6 226.6 428.2 230.8L526 390.2C537.8 409.4 544 431.5 544 454C544 521.4 489.4 576 422 576L410 576C342.6 576 288 521.4 288 454C288 431.5 294.2 409.4 306 390.2z"/></svg>