<svg xmlns="http://www.w3.org/2000/svg" viewBox="0 0 640 640"><!--! Font Awesome Pro 7.1.0 by @fontawesome - https://fontawesome.com License - https://fontawesome.com/license (Commercial License) Copyright 2025 Fonticons, Inc. --><path fill="currentColor" d="M336 120C336 89.1 361.1 64 392 64C422.9 64 448 89.1 448 120L448 130.8C455.7 129 463.7 128 472 128C486.2 128 499.7 130.8 512 136L512 120C512 89.1 537.1 64 568 64C598.9 64 624 89.1 624 120L624 128C624 136.8 616.8 144 608 144C599.2 144 592 136.8 592 128L592 120C592 106.7 581.3 96 568 96C554.7 96 544 106.7 544 120L544 157C555 167.5 563.7 180.5 569.2 194.9L616.9 226.7C624.3 231.6 626.2 241.5 621.3 248.9C616.4 256.3 606.5 258.2 599.1 253.3L576 237.9L576 304C576 357 533 400 480 400L464 400C411 400 368 357 368 304L368 243.2L352.9 253.3C345.5 258.2 335.6 256.2 330.7 248.9C325.8 241.6 327.8 231.6 335.1 226.7L372.4 201.8C379.7 177.9 395.3 157.6 415.9 144.3L416 120C416 106.7 405.3 96 392 96C378.7 96 368 106.7 368 120L368 128C368 136.8 360.8 144 352 144C343.2 144 336 136.8 336 128L336 120zM304.2 133.9L304.4 133.7C306 145 312.3 154.7 321.3 160.9C308.1 169.2 290.6 166.9 280.1 154.9C274.2 148.1 265.6 143.9 256 143.9C246.4 143.9 237.8 148.1 231.9 154.9C220.6 167.8 201.3 169.5 187.9 158.9C182.4 154.6 175.6 152 168 152C153 152 140.3 162.4 136.9 176.3C133 192.4 117.3 202.9 100.9 200.3C99.3 200.1 97.7 199.9 95.9 199.9C78.2 199.9 63.9 214.2 63.9 231.9C63.9 234.6 64.2 237.2 64.8 239.7C68.3 253.9 61.8 268.7 48.8 275.7C38.6 281.1 31.8 291.8 31.8 304C31.8 316.2 38.6 326.8 48.8 332.3C61.7 339.2 68.3 354 64.8 368.3C64.2 370.8 63.9 373.4 63.9 376.1C63.9 393.8 78.2 408.1 95.9 408.1C97.6 408.1 99.3 408 100.9 407.7C117.3 405.2 132.9 415.6 136.9 431.7C140.3 445.7 153 456 168 456C175.6 456 182.4 453.4 187.9 449.1C201.3 438.5 220.7 440.2 231.9 453.1C237.8 459.9 246.4 464.1 256 464.1C265.6 464.1 274.2 459.9 280.1 453.1C291.4 440.2 310.7 438.5 324.1 449.1C329.6 453.4 336.4 456 344 456C359 456 371.7 445.6 375.1 431.7C376.5 425.9 379.4 420.9 383.3 416.9C389.5 422.1 396.3 426.8 403.4 430.9L423.5 435.9L397.6 539.7C392.2 561 373 576 351 576L336 576C309.5 576 288 554.5 288 528L288 487.4C278.6 492.8 267.7 496 256 496C244.3 496 233.4 492.9 224 487.4L224 528C224 554.5 202.5 576 176 576L161 576C139 576 119.8 561 114.4 539.6L89.4 439.6C57.1 436.3 32 409.1 32 375.9C32 370.6 32.7 365.4 33.9 360.4C13.7 349.6 0 328.4 0 303.9C0 279.4 13.7 258.2 33.9 247.4C32.7 242.4 32 237.2 32 231.9C32 196.6 60.7 167.9 96 167.9C99.3 167.9 102.6 168.2 105.8 168.7C112.6 140.7 137.9 119.9 168 119.9C183 119.9 196.9 125.1 207.8 133.8C219.5 120.4 236.8 111.9 256 111.9C275.2 111.9 292.5 120.4 304.2 133.8zM344 488C335.5 488 327.4 486.3 320 483.3L320 528C320 536.8 327.2 544 336 544L351 544C358.3 544 364.7 539 366.5 531.9L380.3 476.7C370 483.8 357.5 488 344 488zM131.7 476.7L145.5 531.9C147.3 539 153.7 544 161 544L176 544C184.8 544 192 536.8 192 528L192 483.3C184.6 486.3 176.5 488 168 488C154.5 488 142 483.8 131.7 476.7zM544 232C544 192.2 511.8 160 472 160C435.9 160 406 186.6 400.8 221.2L400.9 221.3L400.8 221.4C400.3 224.9 400 228.4 400 232L400 304C400 339.3 428.7 368 464 368L480 368C515.3 368 544 339.3 544 304L544 232zM448 240C456.8 240 464 247.2 464 256C464 264.8 456.8 272 448 272C439.2 272 432 264.8 432 256C432 247.2 439.2 240 448 240zM496 256C496 247.2 503.2 240 512 240C520.8 240 528 247.2 528 256C528 264.8 520.8 272 512 272C503.2 272 496 264.8 496 256z"/></svg>