<svg xmlns="http://www.w3.org/2000/svg" viewBox="0 0 640 640"><!--! Font Awesome Pro 7.1.0 by @fontawesome - https://fontawesome.com License - https://fontawesome.com/license (Commercial License) Copyright 2025 Fonticons, Inc. --><path fill="currentColor" d="M128 128C128 92.7 156.7 64 192 64L448 64C483.3 64 512 92.7 512 128L512 468.7L480 404.7L480 128C480 110.3 465.7 96 448 96L192 96C174.3 96 160 110.3 160 128L160 404.7L128 468.7L128 128zM500.4 552.8C505.7 563.4 498 576 486.1 576L153.9 576C142 576 134.3 563.5 139.6 552.8C147.4 537.2 172.6 486.8 215.2 401.6C220.6 390.8 231.7 383.9 243.8 383.9L396.2 383.9C408.3 383.9 419.4 390.7 424.8 401.6C467.4 486.7 492.6 537.1 500.4 552.8zM460.2 544L396.2 416L243.8 416L179.8 544L460.2 544z"/></svg>