<svg xmlns="http://www.w3.org/2000/svg" viewBox="0 0 640 640"><!--! Font Awesome Pro 7.1.0 by @fontawesome - https://fontawesome.com License - https://fontawesome.com/license (Commercial License) Copyright 2025 Fonticons, Inc. --><path fill="currentColor" d="M71.3 66.6C75.8 63.6 81.6 63.2 86.5 65.4L227.4 128L304 128C322 128 338.6 134 352 144L352 112C352 103.2 359.2 96 368 96C376.8 96 384 103.2 384 112L384 224L416 224L416 144C416 135.2 423.2 128 432 128C440.8 128 448 135.2 448 144L448 224L480 224C480 217.9 483.4 212.4 488.8 209.7L584.8 161.7C589.8 159.2 595.7 159.5 600.4 162.4C605.1 165.3 608 170.5 608 176L608 304C608 309.5 605.1 314.7 600.4 317.6C595.7 320.5 589.8 320.8 584.8 318.3L488.8 270.3C483.4 267.6 480 262 480 256L448 256L448 336C448 344.8 440.8 352 432 352C423.2 352 416 344.8 416 336L416 256L384 256L384 368C384 376.8 376.8 384 368 384C359.2 384 352 376.8 352 368L352 336C339.6 345.3 324.4 351.1 307.8 351.9L307.8 352L204.6 558.3C196.7 574.1 177.5 580.5 161.7 572.6L81.7 532.6C65.9 524.7 59.5 505.5 67.4 489.7L136.4 351.8C78.1 347.8 32 299.3 32 240C32 209.5 44.2 181.8 64 161.6L64 80C64 74.6 66.7 69.5 71.3 66.6zM512 240L512 246.1L576 278.1L576 201.9L512 233.9L512 240zM224.3 160C224.1 160 223.8 160 223.6 160L144 160C99.8 160 64 195.8 64 240C64 284.2 99.8 320 144 320L304 320C330.5 320 352 298.5 352 272L352 208C352 181.5 330.5 160 304 160L224.3 160zM96 104.6L96 138.8C110.5 131.9 126.8 128 144 128L148.6 128L96 104.6zM172 352L96 504L176 544L272 352L172 352zM144 224C152.8 224 160 231.2 160 240C160 248.8 152.8 256 144 256C135.2 256 128 248.8 128 240C128 231.2 135.2 224 144 224zM192 240C192 231.2 199.2 224 208 224C216.8 224 224 231.2 224 240C224 248.8 216.8 256 208 256C199.2 256 192 248.8 192 240zM272 224C280.8 224 288 231.2 288 240C288 248.8 280.8 256 272 256C263.2 256 256 248.8 256 240C256 231.2 263.2 224 272 224z"/></svg>