<svg xmlns="http://www.w3.org/2000/svg" viewBox="0 0 640 640"><!--! Font Awesome Pro 7.1.0 by @fontawesome - https://fontawesome.com License - https://fontawesome.com/license (Commercial License) Copyright 2025 Fonticons, Inc. --><path fill="currentColor" d="M263.2 65.7C258.4 63.3 252.8 63.5 248.1 66.1L200 93.6L151.9 66.1C147 63.3 140.9 63.3 136 66.2C131.1 69.1 128 74.3 128 80L128 560C128 565.7 131 571 136 573.8C141 576.6 147 576.7 152 573.9L200.1 546.4L248.2 573.9C252.8 576.6 258.5 576.7 263.3 574.3L320.1 545.9L376.9 574.3C381.7 576.7 387.3 576.5 392 573.9L440.1 546.4L488.2 573.9C493.2 576.7 499.2 576.7 504.2 573.8C509.2 570.9 512.2 565.7 512.2 560L512.2 80C512.2 74.3 509.2 69 504.2 66.2C499.2 63.4 493.2 63.3 488.2 66.1L440 93.6L391.9 66.1C387.3 63.4 381.6 63.3 376.8 65.7L320 94.1L263.2 65.7zM207.9 125.9L256.5 98.1L312.8 126.3C317.3 128.6 322.6 128.6 327.1 126.3L383.4 98.1L432 125.9C436.9 128.7 443 128.7 447.9 125.9L480 107.6L480 532.5L447.9 514.2C443 511.4 436.9 511.4 432 514.2L383.4 542L327.1 513.8C322.6 511.5 317.3 511.5 312.8 513.8L256.5 542L207.9 514.2C203 511.4 196.9 511.4 192 514.2L160 532.4L160 107.6L192.1 125.9C197 128.7 203.1 128.7 208 125.9zM224 208C215.2 208 208 215.2 208 224C208 232.8 215.2 240 224 240L416 240C424.8 240 432 232.8 432 224C432 215.2 424.8 208 416 208L224 208zM208 416C208 424.8 215.2 432 224 432L416 432C424.8 432 432 424.8 432 416C432 407.2 424.8 400 416 400L224 400C215.2 400 208 407.2 208 416zM224 304C215.2 304 208 311.2 208 320C208 328.8 215.2 336 224 336L416 336C424.8 336 432 328.8 432 320C432 311.2 424.8 304 416 304L224 304z"/></svg>