<svg xmlns="http://www.w3.org/2000/svg" viewBox="0 0 640 640"><!--! Font Awesome Pro 7.1.0 by @fontawesome - https://fontawesome.com License - https://fontawesome.com/license (Commercial License) Copyright 2025 Fonticons, Inc. --><path fill="currentColor" d="M128 160C110.3 160 96 174.3 96 192L96 448C96 465.7 110.3 480 128 480L512 480C529.7 480 544 465.7 544 448L544 192C544 174.3 529.7 160 512 160L128 160zM64 192C64 156.7 92.7 128 128 128L512 128C547.3 128 576 156.7 576 192L576 448C576 483.3 547.3 512 512 512L128 512C92.7 512 64 483.3 64 448L64 192zM192 288L192 320L272 320L272 288C272 270.3 257.7 256 240 256L224 256C206.3 256 192 270.3 192 288zM272 400L272 352L192 352L192 400C192 408.8 184.8 416 176 416C167.2 416 160 408.8 160 400L160 288C160 252.7 188.7 224 224 224L240 224C275.3 224 304 252.7 304 288L304 400C304 408.8 296.8 416 288 416C279.2 416 272 408.8 272 400zM480 240L480 400C480 408.8 472.8 416 464 416C456.4 416 450 410.7 448.4 403.6C436.9 411.4 423 416 408 416C368.2 416 336 383.8 336 344C336 304.2 368.2 272 408 272C422.8 272 436.6 276.5 448 284.1L448 240C448 231.2 455.2 224 464 224C472.8 224 480 231.2 480 240zM408 304C385.9 304 368 321.9 368 344C368 366.1 385.9 384 408 384C430.1 384 448 366.1 448 344C448 321.9 430.1 304 408 304z"/></svg>