<svg xmlns="http://www.w3.org/2000/svg" viewBox="0 0 640 640"><!--! Font Awesome Pro 7.1.0 by @fontawesome - https://fontawesome.com License - https://fontawesome.com/license (Commercial License) Copyright 2025 Fonticons, Inc. --><path fill="currentColor" d="M448 32C465.7 32 480 46.3 480 64L480 576C480 593.7 465.7 608 448 608L192 608C174.3 608 160 593.7 160 576L160 64C160 46.3 174.3 32 192 32L448 32zM192 0C156.7 0 128 28.7 128 64L128 576C128 611.3 156.7 640 192 640L448 640C483.3 640 512 611.3 512 576L512 64C512 28.7 483.3 0 448 0L192 0z"/></svg>