<svg xmlns="http://www.w3.org/2000/svg" viewBox="0 0 640 640"><!--! Font Awesome Pro 7.1.0 by @fontawesome - https://fontawesome.com License - https://fontawesome.com/license (Commercial License) Copyright 2025 Fonticons, Inc. --><path fill="currentColor" d="M96 160C78.3 160 64 174.3 64 192L64 448C64 465.7 78.3 480 96 480L544 480C561.7 480 576 465.7 576 448L576 192C576 174.3 561.7 160 544 160L96 160zM32 192C32 156.7 60.7 128 96 128L544 128C579.3 128 608 156.7 608 192L608 448C608 483.3 579.3 512 544 512L96 512C60.7 512 32 483.3 32 448L32 192zM128 240L128 304L192 304L192 240C192 231.2 199.2 224 208 224C216.8 224 224 231.2 224 240L224 400C224 408.8 216.8 416 208 416C199.2 416 192 408.8 192 400L192 336L128 336L128 400C128 408.8 120.8 416 112 416C103.2 416 96 408.8 96 400L96 240C96 231.2 103.2 224 112 224C120.8 224 128 231.2 128 240zM256 240C256 231.2 263.2 224 272 224L320 224C355.3 224 384 252.7 384 288L384 352C384 387.3 355.3 416 320 416L272 416C263.2 416 256 408.8 256 400L256 240zM288 384L320 384C337.7 384 352 369.7 352 352L352 288C352 270.3 337.7 256 320 256L288 256L288 384zM416 240C416 231.2 423.2 224 432 224L480 224C515.3 224 544 252.7 544 288C544 308.3 534.5 326.4 519.8 338.1C534.7 351.3 544 370.5 544 392L544 400C544 408.8 536.8 416 528 416C519.2 416 512 408.8 512 400L512 392C512 369.9 494.1 352 472 352L448 352L448 400C448 408.8 440.8 416 432 416C423.2 416 416 408.8 416 400L416 240zM480 320C497.7 320 512 305.7 512 288C512 270.3 497.7 256 480 256L448 256L448 320L480 320z"/></svg>