<svg xmlns="http://www.w3.org/2000/svg" viewBox="0 0 640 640"><!--! Font Awesome Pro 7.1.0 by @fontawesome - https://fontawesome.com License - https://fontawesome.com/license (Commercial License) Copyright 2025 Fonticons, Inc. --><path fill="currentColor" d="M128 160C110.3 160 96 174.3 96 192L96 448C96 465.7 110.3 480 128 480L512 480C529.7 480 544 465.7 544 448L544 192C544 174.3 529.7 160 512 160L128 160zM64 192C64 156.7 92.7 128 128 128L512 128C547.3 128 576 156.7 576 192L576 448C576 483.3 547.3 512 512 512L128 512C92.7 512 64 483.3 64 448L64 192zM304 416L304 336L224 336C215.2 336 208 328.8 208 320C208 311.2 215.2 304 224 304L304 304L304 224C304 215.2 311.2 208 320 208C328.8 208 336 215.2 336 224L336 304L416 304C424.8 304 432 311.2 432 320C432 328.8 424.8 336 416 336L336 336L336 416C336 424.8 328.8 432 320 432C311.2 432 304 424.8 304 416z"/></svg>