<svg xmlns="http://www.w3.org/2000/svg" viewBox="0 0 640 640"><!--! Font Awesome Pro 7.1.0 by @fontawesome - https://fontawesome.com License - https://fontawesome.com/license (Commercial License) Copyright 2025 Fonticons, Inc. --><path fill="currentColor" d="M582.5 128.3C614.8 131.6 640 158.9 640 192L640 448L639.7 454.5C636.6 484.6 612.7 508.6 582.6 511.6L576.1 511.9L64.1 511.9L57.6 511.6C27.5 508.5 3.5 484.6 .5 454.5L0 448L0 192C0 158.9 25.2 131.6 57.5 128.3L64 128L576 128L582.5 128.3zM64 160C47.4 160 33.8 172.6 32.2 188.7L32 192L32 448C32 465.7 46.3 480 64 480L576 480C593.7 480 608 465.7 608 448L608 192C608 174.3 593.7 160 576 160L64 160zM144 240C170.5 240 192 261.5 192 288C192 298.3 188.7 307.8 183.2 315.6C193.4 324.4 200 337.4 200 352C200 378.5 178.5 400 152 400L112 400C104.3 400 97.8 394.5 96.3 387.2L96 384L96 256C96 247.2 103.2 240 112 240L144 240zM304 240C312.8 240 320 247.2 320 256C320 264.8 312.8 272 304 272L256 272L256 304L288 304C296.8 304 304 311.2 304 320C304 328.8 296.8 336 288 336L256 336L256 368L304 368C312.8 368 320 375.2 320 384C320 392.8 312.8 400 304 400L240 400C231.2 400 224 392.8 224 384L224 256L224.3 252.8C225.8 245.5 232.3 240 240 240L304 240zM416 240C424.8 240 432 247.2 432 256C432 264.8 424.8 272 416 272L400 272L400 384C400 392.8 392.8 400 384 400C375.2 400 368 392.8 368 384L368 272L352 272C343.2 272 336 264.8 336 256C336 247.2 343.2 240 352 240L416 240zM504 240C526.1 240 544 257.9 544 280L544 384C544 392.8 536.8 400 528 400C519.2 400 512 392.8 512 384L512 352L480 352L480 384C480 392.8 472.8 400 464 400C455.2 400 448 392.8 448 384L448 280C448 257.9 465.9 240 488 240L504 240zM128 368L152 368C160.8 368 168 360.8 168 352C168 343.2 160.8 336 152 336L128 336L128 368zM488 272C483.6 272 480 275.6 480 280L480 320L512 320L512 280C512 275.6 508.4 272 504 272L488 272zM128 304L144 304C152.8 304 160 296.8 160 288C160 279.2 152.8 272 144 272L128 272L128 304z"/></svg>