<svg xmlns="http://www.w3.org/2000/svg" viewBox="0 0 640 640"><!--! Font Awesome Pro 7.1.0 by @fontawesome - https://fontawesome.com License - https://fontawesome.com/license (Commercial License) Copyright 2025 Fonticons, Inc. --><path fill="currentColor" d="M512 160C529.7 160 544 174.3 544 192L544 448C544 465.7 529.7 480 512 480L128 480C110.3 480 96 465.7 96 448L96 192C96 174.3 110.3 160 128 160L512 160zM128 128C92.7 128 64 156.7 64 192L64 448C64 483.3 92.7 512 128 512L512 512C547.3 512 576 483.3 576 448L576 192C576 156.7 547.3 128 512 128L128 128zM176 224C167.2 224 160 231.2 160 240L160 296C160 326.9 185.1 352 216 352L272 352L272 400C272 408.8 279.2 416 288 416C296.8 416 304 408.8 304 400L304 240C304 231.2 296.8 224 288 224C279.2 224 272 231.2 272 240L272 320L216 320C202.7 320 192 309.3 192 296L192 240C192 231.2 184.8 224 176 224zM352 224C343.2 224 336 231.2 336 240L336 400C336 408.8 343.2 416 352 416C360.8 416 368 408.8 368 400L368 336L384 336C419.3 336 448 364.7 448 400C448 408.8 455.2 416 464 416C472.8 416 480 408.8 480 400C480 366.6 463 337.2 437.1 320C463 302.8 480 273.4 480 240C480 231.2 472.8 224 464 224C455.2 224 448 231.2 448 240C448 275.3 419.3 304 384 304L368 304L368 240C368 231.2 360.8 224 352 224z"/></svg>