<svg xmlns="http://www.w3.org/2000/svg" viewBox="0 0 640 640"><!--! Font Awesome Pro 7.1.0 by @fontawesome - https://fontawesome.com License - https://fontawesome.com/license (Commercial License) Copyright 2025 Fonticons, Inc. --><path fill="currentColor" d="M336 96C318.3 96 304 110.3 304 128L304 512C304 529.7 318.3 544 336 544L480 544C497.7 544 512 529.7 512 512L512 128C512 110.3 497.7 96 480 96L336 96zM272 128C272 92.7 300.7 64 336 64L480 64C515.3 64 544 92.7 544 128L544 512C544 547.3 515.3 576 480 576L336 576C300.7 576 272 547.3 272 512L272 128zM168 128C168 119.2 175.2 112 184 112C192.8 112 200 119.2 200 128L200 512C200 520.8 192.8 528 184 528C175.2 528 168 520.8 168 512L168 128zM64 176C64 167.2 71.2 160 80 160C88.8 160 96 167.2 96 176L96 464C96 472.8 88.8 480 80 480C71.2 480 64 472.8 64 464L64 176z"/></svg>