<svg xmlns="http://www.w3.org/2000/svg" viewBox="0 0 640 640"><!--! Font Awesome Pro 7.1.0 by @fontawesome - https://fontawesome.com License - https://fontawesome.com/license (Commercial License) Copyright 2025 Fonticons, Inc. --><path fill="currentColor" d="M544 336C544 318.3 529.7 304 512 304L128 304C110.3 304 96 318.3 96 336L96 480C96 497.7 110.3 512 128 512L512 512C529.7 512 544 497.7 544 480L544 336zM512 272C547.3 272 576 300.7 576 336L576 480C576 515.3 547.3 544 512 544L128 544C92.7 544 64 515.3 64 480L64 336C64 300.7 92.7 272 128 272L512 272zM512 168C520.8 168 528 175.2 528 184C528 192.8 520.8 200 512 200L128 200C119.2 200 112 192.8 112 184C112 175.2 119.2 168 128 168L512 168zM464 64C472.8 64 480 71.2 480 80C480 88.8 472.8 96 464 96L176 96C167.2 96 160 88.8 160 80C160 71.2 167.2 64 176 64L464 64z"/></svg>