<svg xmlns="http://www.w3.org/2000/svg" viewBox="0 0 640 640"><!--! Font Awesome Pro 7.1.0 by @fontawesome - https://fontawesome.com License - https://fontawesome.com/license (Commercial License) Copyright 2025 Fonticons, Inc. --><path fill="currentColor" d="M304 160C312.8 160 320 167.2 320 176L320 272C320 280.8 312.8 288 304 288L112 288C103.2 288 96 280.8 96 272L96 176C96 167.2 103.2 160 112 160L304 160zM112 128C85.5 128 64 149.5 64 176L64 272C64 298.5 85.5 320 112 320L304 320C330.5 320 352 298.5 352 272L352 176C352 149.5 330.5 128 304 128L112 128zM528 160C536.8 160 544 167.2 544 176L544 432C544 440.8 536.8 448 528 448L464 448C455.2 448 448 440.8 448 432L448 176C448 167.2 455.2 160 464 160L528 160zM464 128C437.5 128 416 149.5 416 176L416 432C416 458.5 437.5 480 464 480L528 480C554.5 480 576 458.5 576 432L576 176C576 149.5 554.5 128 528 128L464 128zM176 416L304 416C312.8 416 320 423.2 320 432L320 496C320 504.8 312.8 512 304 512L176 512C167.2 512 160 504.8 160 496L160 432C160 423.2 167.2 416 176 416zM128 432L128 496C128 522.5 149.5 544 176 544L304 544C330.5 544 352 522.5 352 496L352 432C352 405.5 330.5 384 304 384L176 384C149.5 384 128 405.5 128 432z"/></svg>