<svg xmlns="http://www.w3.org/2000/svg" viewBox="0 0 640 640"><!--! Font Awesome Pro 7.1.0 by @fontawesome - https://fontawesome.com License - https://fontawesome.com/license (Commercial License) Copyright 2025 Fonticons, Inc. --><path fill="currentColor" d="M96 160C78.3 160 64 174.3 64 192L64 448C64 465.7 78.3 480 96 480L544 480C561.7 480 576 465.7 576 448L576 192C576 174.3 561.7 160 544 160L96 160zM32 192C32 156.7 60.7 128 96 128L544 128C579.3 128 608 156.7 608 192L608 448C608 483.3 579.3 512 544 512L96 512C60.7 512 32 483.3 32 448L32 192zM128 240L128 308.9C128 332.2 137.3 354.6 153.8 371.1L160 377.3L166.2 371.1C182.7 354.6 192 332.2 192 308.9L192 240C192 231.2 199.2 224 208 224C216.8 224 224 231.2 224 240L224 308.9C224 340.7 211.4 371.2 188.9 393.8L171.4 411.3C165.2 417.5 155 417.5 148.8 411.3L131.1 393.8C108.6 371.3 96 340.7 96 308.9L96 240C96 231.2 103.2 224 112 224C120.8 224 128 231.2 128 240zM312 256C298.7 256 288 266.7 288 280L288 360C288 373.3 298.7 384 312 384L328 384C341.3 384 352 373.3 352 360L352 280C352 266.7 341.3 256 328 256L312 256zM256 280C256 249.1 281.1 224 312 224L328 224C358.9 224 384 249.1 384 280L384 360C384 390.9 358.9 416 328 416L312 416C281.1 416 256 390.9 256 360L256 280zM432 224L480 224C515.3 224 544 252.7 544 288L544 352C544 387.3 515.3 416 480 416L432 416C423.2 416 416 408.8 416 400L416 240C416 231.2 423.2 224 432 224zM448 384L480 384C497.7 384 512 369.7 512 352L512 288C512 270.3 497.7 256 480 256L448 256L448 384z"/></svg>