<svg xmlns="http://www.w3.org/2000/svg" viewBox="0 0 640 640"><!--! Font Awesome Pro 7.1.0 by @fontawesome - https://fontawesome.com License - https://fontawesome.com/license (Commercial License) Copyright 2025 Fonticons, Inc. --><path fill="currentColor" d="M96 160C78.3 160 64 174.3 64 192L64 448C64 465.7 78.3 480 96 480L544 480C561.7 480 576 465.7 576 448L576 192C576 174.3 561.7 160 544 160L96 160zM32 192C32 156.7 60.7 128 96 128L544 128C579.3 128 608 156.7 608 192L608 448C608 483.3 579.3 512 544 512L96 512C60.7 512 32 483.3 32 448L32 192zM112 224L160 224C195.3 224 224 252.7 224 288C224 323.3 195.3 352 160 352L128 352L128 400C128 408.8 120.8 416 112 416C103.2 416 96 408.8 96 400L96 240C96 231.2 103.2 224 112 224zM160 320C177.7 320 192 305.7 192 288C192 270.3 177.7 256 160 256L128 256L128 320L160 320zM272 224L320 224C355.3 224 384 252.7 384 288C384 308.3 374.5 326.4 359.8 338.1C374.7 351.3 384 370.5 384 392L384 400C384 408.8 376.8 416 368 416C359.2 416 352 408.8 352 400L352 392C352 369.9 334.1 352 312 352L288 352L288 400C288 408.8 280.8 416 272 416C263.2 416 256 408.8 256 400L256 240C256 231.2 263.2 224 272 224zM312 320L320 320C337.7 320 352 305.7 352 288C352 270.3 337.7 256 320 256L288 256L288 320L312 320zM448 280L448 360C448 373.3 458.7 384 472 384L488 384C501.3 384 512 373.3 512 360L512 280C512 266.7 501.3 256 488 256L472 256C458.7 256 448 266.7 448 280zM472 224L488 224C518.9 224 544 249.1 544 280L544 360C544 390.9 518.9 416 488 416L472 416C441.1 416 416 390.9 416 360L416 280C416 249.1 441.1 224 472 224z"/></svg>