<svg xmlns="http://www.w3.org/2000/svg" viewBox="0 0 640 640"><!--! Font Awesome Pro 7.1.0 by @fontawesome - https://fontawesome.com License - https://fontawesome.com/license (Commercial License) Copyright 2025 Fonticons, Inc. --><path fill="currentColor" d="M278 512L96 512C78.3 512 64 497.7 64 480L64 336C64 318.3 78.3 304 96 304L357.8 304C388.2 283.8 424.7 272 464 272L96 272C60.7 272 32 300.7 32 336L32 480C32 515.3 60.7 544 96 544L289.4 544C284.7 533.8 280.9 523.1 278 512zM496 184C496 175.2 488.8 168 480 168L96 168C87.2 168 80 175.2 80 184C80 192.8 87.2 200 96 200L480 200C488.8 200 496 192.8 496 184zM448 80C448 71.2 440.8 64 432 64L144 64C135.2 64 128 71.2 128 80C128 88.8 135.2 96 144 96L432 96C440.8 96 448 88.8 448 80zM352 464C352 402.1 402.1 352 464 352C525.9 352 576 402.1 576 464C576 525.9 525.9 576 464 576C402.1 576 352 525.9 352 464zM608 464C608 384.5 543.5 320 464 320C384.5 320 320 384.5 320 464C320 543.5 384.5 608 464 608C543.5 608 608 543.5 608 464zM480 400C480 391.2 472.8 384 464 384C455.2 384 448 391.2 448 400L448 448L400 448C391.2 448 384 455.2 384 464C384 472.8 391.2 480 400 480L448 480L448 528C448 536.8 455.2 544 464 544C472.8 544 480 536.8 480 528L480 480L528 480C536.8 480 544 472.8 544 464C544 455.2 536.8 448 528 448L480 448L480 400z"/></svg>