<svg xmlns="http://www.w3.org/2000/svg" viewBox="0 0 640 640"><!--! Font Awesome Pro 7.1.0 by @fontawesome - https://fontawesome.com License - https://fontawesome.com/license (Commercial License) Copyright 2025 Fonticons, Inc. --><path fill="currentColor" d="M278 512L96 512C78.3 512 64 497.7 64 480L64 336C64 318.3 78.3 304 96 304L357.8 304C388.2 283.8 424.7 272 464 272L96 272C60.7 272 32 300.7 32 336L32 480C32 515.3 60.7 544 96 544L289.4 544C284.7 533.8 280.9 523.1 278 512zM496 184C496 175.2 488.8 168 480 168L96 168C87.2 168 80 175.2 80 184C80 192.8 87.2 200 96 200L480 200C488.8 200 496 192.8 496 184zM448 80C448 71.2 440.8 64 432 64L144 64C135.2 64 128 71.2 128 80C128 88.8 135.2 96 144 96L432 96C440.8 96 448 88.8 448 80zM524 558.6C506.7 569.6 486.1 576 464 576C441.9 576 421.3 569.6 404 558.6C411.8 549.5 423.4 544 435.8 544L492.2 544C504.6 544 516.1 549.5 524 558.6zM548.3 537.8C534.5 521.7 514.1 512 492.2 512L435.8 512C414 512 393.6 521.6 379.7 537.8C362.4 518.1 352 492.3 352 464C352 402.1 402.1 352 464 352C525.9 352 576 402.1 576 464C576 492.2 565.5 518.1 548.3 537.8zM608 464C608 384.5 543.5 320 464 320C384.5 320 320 384.5 320 464C320 543.5 384.5 608 464 608C543.5 608 608 543.5 608 464zM464 416C477.3 416 488 426.7 488 440C488 453.3 477.3 464 464 464C450.7 464 440 453.3 440 440C440 426.7 450.7 416 464 416zM464 496C494.9 496 520 470.9 520 440C520 409.1 494.9 384 464 384C433.1 384 408 409.1 408 440C408 470.9 433.1 496 464 496z"/></svg>