<svg xmlns="http://www.w3.org/2000/svg" viewBox="0 0 640 640"><!--! Font Awesome Pro 7.1.0 by @fontawesome - https://fontawesome.com License - https://fontawesome.com/license (Commercial License) Copyright 2025 Fonticons, Inc. --><path fill="currentColor" d="M128 160C110.3 160 96 174.3 96 192L96 448C96 465.7 110.3 480 128 480L512 480C529.7 480 544 465.7 544 448L544 192C544 174.3 529.7 160 512 160L128 160zM64 192C64 156.7 92.7 128 128 128L512 128C547.3 128 576 156.7 576 192L576 448C576 483.3 547.3 512 512 512L128 512C92.7 512 64 483.3 64 448L64 192zM228.7 228.7C234.9 222.5 245.1 222.5 251.3 228.7L320 297.4L388.7 228.7C394.9 222.5 405.1 222.5 411.3 228.7C417.5 234.9 417.5 245.1 411.3 251.3L342.6 320L411.3 388.7C417.5 394.9 417.5 405.1 411.3 411.3C405.1 417.5 394.9 417.5 388.7 411.3L320 342.6L251.3 411.3C245.1 417.5 234.9 417.5 228.7 411.3C222.5 405.1 222.5 394.9 228.7 388.7L297.4 320L228.7 251.3C222.5 245.1 222.5 234.9 228.7 228.7z"/></svg>