<svg xmlns="http://www.w3.org/2000/svg" viewBox="0 0 640 640"><!--! Font Awesome Pro 7.1.0 by @fontawesome - https://fontawesome.com License - https://fontawesome.com/license (Commercial License) Copyright 2025 Fonticons, Inc. --><path fill="currentColor" d="M396.5 140C362.6 81.3 277.9 81.3 244 140L230.8 163C226.4 170.7 216.6 173.3 208.9 168.9C201.2 164.5 198.6 154.7 203 147L216.3 124C262.5 44 378 44 424.2 124L490.2 238.3L503.6 188.2C505.9 179.7 514.7 174.6 523.2 176.9C531.7 179.2 536.8 188 534.5 196.5L511 283.9C508.7 292.4 499.9 297.5 491.4 295.2L404 271.7C395.5 269.4 390.4 260.6 392.7 252.1C395 243.6 403.8 238.5 412.3 240.8L462.4 254.2L396.4 139.9zM527.6 335.1C535.3 330.7 545 333.3 549.5 341L562.8 364C609 444 551.3 544 458.9 544L327 544L363.7 580.7C369.9 586.9 369.9 597.1 363.7 603.3C357.5 609.5 347.3 609.5 341.1 603.3L277.1 539.3C270.9 533.1 270.9 522.9 277.1 516.7L341.1 452.7C347.3 446.5 357.5 446.5 363.7 452.7C369.9 458.9 369.9 469.1 363.7 475.3L327 512L458.9 512C526.6 512 569 438.7 535.1 380L521.8 357C517.4 349.3 520 339.6 527.7 335.1zM184.9 315.9L171.5 265.8L105.5 380.1C71.6 438.8 114 512.1 181.7 512.1L208.3 512.1C217.1 512.1 224.3 519.3 224.3 528.1C224.3 536.9 217.1 544.1 208.3 544.1L181.7 544.1C89.3 544 31.6 444 77.8 364L143.8 249.7L93.7 263.1C85.2 265.4 76.4 260.3 74.1 251.8C71.8 243.3 76.9 234.5 85.4 232.2L172.8 208.8C181.3 206.5 190.1 211.6 192.4 220.1L215.8 307.5C218.1 316 213 324.8 204.5 327.1C196 329.4 187.2 324.3 184.9 315.8z"/></svg>