<svg xmlns="http://www.w3.org/2000/svg" viewBox="0 0 640 640"><!--! Font Awesome Pro 7.1.0 by @fontawesome - https://fontawesome.com License - https://fontawesome.com/license (Commercial License) Copyright 2025 Fonticons, Inc. --><path fill="currentColor" d="M128 80C128 71.2 135.2 64 144 64L496 64C504.8 64 512 71.2 512 80C512 88.8 504.8 96 496 96L480 96L480 160L448 160L448 96L192 96L192 160L160 160L160 96L144 96C135.2 96 128 88.8 128 80zM128 560C128 551.2 135.2 544 144 544L160 544L160 480L192 480L192 544L448 544L448 480L480 480L480 544L496 544C504.8 544 512 551.2 512 560C512 568.8 504.8 576 496 576L144 576C135.2 576 128 568.8 128 560zM176 208L464 208C472.8 208 480 215.2 480 224C480 232.8 472.8 240 464 240L176 240C167.2 240 160 232.8 160 224C160 215.2 167.2 208 176 208zM176 304L528 304C536.8 304 544 311.2 544 320C544 328.8 536.8 336 528 336L176 336C167.2 336 160 328.8 160 320C160 311.2 167.2 304 176 304zM160 416C160 407.2 167.2 400 176 400L464 400C472.8 400 480 407.2 480 416C480 424.8 472.8 432 464 432L176 432C167.2 432 160 424.8 160 416z"/></svg>