<svg xmlns="http://www.w3.org/2000/svg" viewBox="0 0 640 640"><!--! Font Awesome Pro 7.1.0 by @fontawesome - https://fontawesome.com License - https://fontawesome.com/license (Commercial License) Copyright 2025 Fonticons, Inc. --><path fill="currentColor" d="M336 112L336 528C336 536.8 328.8 544 320 544C311.2 544 304 536.8 304 528L304 112C304 103.2 311.2 96 320 96C328.8 96 336 103.2 336 112zM212.7 320L96 203.3L96 436.7L212.7 320zM105 167L241 303C250.4 312.4 250.4 327.6 241 336.9L105 473C98.1 479.9 87.8 481.9 78.8 478.2C69.8 474.5 64 465.7 64 456L64 184C64 174.3 69.8 165.5 78.8 161.8C87.8 158.1 98.1 160.2 105 167zM427.3 320L544 436.7L544 203.3L427.3 320zM535 167C541.9 160.1 552.2 158.1 561.2 161.8C570.2 165.5 576 174.3 576 184L576 456C576 465.7 570.2 474.5 561.2 478.2C552.2 481.9 541.9 479.9 535 473L399 337C389.6 327.6 389.6 312.4 399 303.1L535 167z"/></svg>