<svg xmlns="http://www.w3.org/2000/svg" viewBox="0 0 640 640"><!--! Font Awesome Pro 7.1.0 by @fontawesome - https://fontawesome.com License - https://fontawesome.com/license (Commercial License) Copyright 2025 Fonticons, Inc. --><path fill="currentColor" d="M320 228.7L420.7 128L219.3 128L320 228.7zM320 411.3L219.3 512L420.7 512L320 411.3zM183 137C176.1 130.1 174.1 119.8 177.8 110.8C181.5 101.8 190.3 96 200 96L440 96C449.7 96 458.5 101.8 462.2 110.8C465.9 119.8 463.8 130.1 457 137L337 257C327.6 266.4 312.4 266.4 303.1 257L183 137zM183 503L303 383C312.4 373.6 327.6 373.6 336.9 383L457 503C463.9 509.9 465.9 520.2 462.2 529.2C458.5 538.2 449.7 544 440 544L200 544C190.3 544 181.5 538.2 177.8 529.2C174.1 520.2 176.2 509.9 183 503zM228.7 320L128 219.3L128 420.7L228.7 320zM512 219.3L411.3 320L512 420.7L512 219.3zM137 457C130.1 463.9 119.8 465.9 110.8 462.2C101.8 458.5 96 449.7 96 440L96 200C96 190.3 101.8 181.5 110.8 177.8C119.8 174.1 130.1 176.2 137 183L257 303C266.4 312.4 266.4 327.6 257 336.9L137 457zM503 457L383 337C373.6 327.6 373.6 312.4 383 303.1L503 183C509.9 176.1 520.2 174.1 529.2 177.8C538.2 181.5 544 190.3 544 200L544 440C544 449.7 538.2 458.5 529.2 462.2C520.2 465.9 509.9 463.9 503 457z"/></svg>