<svg xmlns="http://www.w3.org/2000/svg" viewBox="0 0 640 640"><!--! Font Awesome Pro 7.1.0 by @fontawesome - https://fontawesome.com License - https://fontawesome.com/license (Commercial License) Copyright 2025 Fonticons, Inc. --><path fill="currentColor" d="M416 96C451.3 96 480 124.7 480 160L480 224L416 224L416 176C416 167.2 408.8 160 400 160C391.2 160 384 167.2 384 176L384 224L160 224L160 160C160 124.7 188.7 96 224 96L416 96zM384 256L384 400C384 408.8 391.2 416 400 416C408.8 416 416 408.8 416 400L416 256L480 256L480 512C480 529.7 465.7 544 448 544L192 544C174.3 544 160 529.7 160 512L160 256L384 256zM224 64C171 64 128 107 128 160L128 512C128 547.3 156.7 576 192 576L448 576C483.3 576 512 547.3 512 512L512 160C512 107 469 64 416 64L224 64z"/></svg>