<svg xmlns="http://www.w3.org/2000/svg" viewBox="0 0 640 640"><!--! Font Awesome Pro 7.1.0 by @fontawesome - https://fontawesome.com License - https://fontawesome.com/license (Commercial License) Copyright 2025 Fonticons, Inc. --><path fill="currentColor" d="M96.5 305.1C100 252.8 121.7 201.6 161.6 161.6C205.3 117.9 262.6 96 320 96C382 96 441.2 121.5 483.8 166.6L522.9 208L416 208C407.2 208 400 215.2 400 224C400 232.8 407.2 240 416 240L560 240C568.8 240 576 232.8 576 224L576 80C576 71.2 568.8 64 560 64C551.2 64 544 71.2 544 80L544 183.8L507 144.7C458.4 93.2 390.8 64 320 64C254.5 64 189 89 139 139C93.3 184.6 68.5 243.2 64.6 302.9C64 311.8 70.7 319.4 79.5 320C88.3 320.6 95.9 313.9 96.5 305.1zM543.5 335C540 387.3 518.3 438.5 478.4 478.4C434.7 522.1 377.4 544 320 544C258 544 198.8 518.5 156.2 473.4L117.1 432L224 432C232.8 432 240 424.8 240 416C240 407.2 232.8 400 224 400L80 400C71.2 400 64 407.2 64 416L64 560C64 568.8 71.2 576 80 576C88.8 576 96 568.8 96 560L96 456.2L133 495.3C181.6 546.8 249.3 575.9 320 575.9C385.5 575.9 451 550.9 501 500.9C546.6 455.3 571.4 396.6 575.4 336.9C576 328.1 569.3 320.5 560.5 319.9C551.7 319.3 544.1 326 543.5 334.8z"/></svg>