<svg xmlns="http://www.w3.org/2000/svg" viewBox="0 0 640 640"><!--! Font Awesome Pro 7.1.0 by @fontawesome - https://fontawesome.com License - https://fontawesome.com/license (Commercial License) Copyright 2025 Fonticons, Inc. --><path fill="currentColor" d="M64 144C64 135.2 71.2 128 80 128L496 128C504.8 128 512 135.2 512 144C512 152.8 504.8 160 496 160L80 160C71.2 160 64 152.8 64 144zM128 320C128 311.2 135.2 304 144 304L560 304C568.8 304 576 311.2 576 320C576 328.8 568.8 336 560 336L144 336C135.2 336 128 328.8 128 320zM512 496C512 504.8 504.8 512 496 512L80 512C71.2 512 64 504.8 64 496C64 487.2 71.2 480 80 480L496 480C504.8 480 512 487.2 512 496z"/></svg>