<svg xmlns="http://www.w3.org/2000/svg" viewBox="0 0 640 640"><!--! Font Awesome Pro 7.1.0 by @fontawesome - https://fontawesome.com License - https://fontawesome.com/license (Commercial License) Copyright 2025 Fonticons, Inc. --><path fill="currentColor" d="M448 214.3L448 105.6L512 158.9L512 160.9L448 214.2zM416 87.5L416 144L256 144C150 144 64 230 64 336C64 344.8 71.2 352 80 352C88.8 352 96 344.8 96 336C96 247.6 167.6 176 256 176L416 176L416 232.5C416 245.5 426.5 256 439.5 256C445 256 450.3 254.1 454.5 250.6L532.5 185.6C539.8 179.5 544 170.5 544 161L544 159C544 149.5 539.8 140.5 532.5 134.4L454.5 69.4C450.3 65.9 445 64 439.5 64C426.5 64 416 74.5 416 87.5zM192 479.9C192 479.9 192 480 192 480C192 480 192 480.1 192 480.1L192 534.4L128 481.1L128 479.1L192 425.8L192 480.1zM224 464L224 407.5C224 394.5 213.5 384 200.5 384C195 384 189.7 385.9 185.5 389.4L107.5 454.4C100.2 460.5 96 469.5 96 479L96 481C96 490.5 100.2 499.5 107.5 505.6L185.5 570.6C189.7 574.1 195 576 200.5 576C213.5 576 224 565.5 224 552.5L224 496L384 496C490 496 576 410 576 304C576 295.2 568.8 288 560 288C551.2 288 544 295.2 544 304C544 392.4 472.4 464 384 464L224 464z"/></svg>