<svg xmlns="http://www.w3.org/2000/svg" viewBox="0 0 640 640"><!--! Font Awesome Pro 7.1.0 by @fontawesome - https://fontawesome.com License - https://fontawesome.com/license (Commercial License) Copyright 2025 Fonticons, Inc. --><path fill="currentColor" d="M512 161L512 159L448 105.7L448 214.4L512 161.1zM416 144L416 87.5C416 74.5 426.5 64 439.5 64C445 64 450.3 65.9 454.5 69.4L532.5 134.4C539.8 140.5 544 149.5 544 159L544 161C544 170.5 539.8 179.5 532.5 185.6L454.5 250.6C450.3 254.1 445 256 439.5 256C426.5 256 416 245.5 416 232.5L416 176L256 176C167.6 176 96 247.6 96 336C96 344.8 88.8 352 80 352C71.2 352 64 344.8 64 336C64 230 150 144 256 144L416 144zM192 480L192 479.9L192 425.6L128 478.9L128 480.9L192 534.2L192 479.9L192 479.8zM224 407.5L224 464L384 464C472.4 464 544 392.4 544 304C544 295.2 551.2 288 560 288C568.8 288 576 295.2 576 304C576 410 490 496 384 496L224 496L224 552.5C224 565.5 213.5 576 200.5 576C195 576 189.7 574.1 185.5 570.6L107.5 505.6C100.2 499.5 96 490.5 96 481L96 479C96 469.5 100.2 460.5 107.5 454.4L185.5 389.4C189.7 385.9 195 384 200.5 384C213.5 384 224 394.5 224 407.5zM352 272L352 368C352 376.8 344.8 384 336 384C327.2 384 320 376.8 320 368L320 304L313.6 308.8C306.5 314.1 296.5 312.7 291.2 305.6C285.9 298.5 287.3 288.5 294.4 283.2L326.4 259.2C331.2 255.6 337.7 255 343.2 257.7C348.7 260.4 352 266 352 272z"/></svg>