<svg xmlns="http://www.w3.org/2000/svg" viewBox="0 0 640 640"><!--! Font Awesome Pro 7.1.0 by @fontawesome - https://fontawesome.com License - https://fontawesome.com/license (Commercial License) Copyright 2025 Fonticons, Inc. --><path fill="currentColor" d="M464 64C525.9 64 576 114.1 576 176C576 237.9 525.9 288 464 288C402.1 288 352 237.9 352 176C352 114.1 402.1 64 464 64zM464 320C543.5 320 608 255.5 608 176C608 96.5 543.5 32 464 32C384.5 32 320 96.5 320 176C320 255.5 384.5 320 464 320zM464 96C455.2 96 448 103.2 448 112L448 176C448 184.8 455.2 192 464 192L512 192C520.8 192 528 184.8 528 176C528 167.2 520.8 160 512 160L480 160L480 112C480 103.2 472.8 96 464 96zM544 400C544 383.8 541.8 368.2 537.7 353.3C527.9 357.4 517.7 360.7 507.2 363.1C510.3 374.9 512 387.2 512 400C512 446.1 496.1 479.7 478 503.2C479.3 496.1 480 488.4 480 480C480 409.3 422.7 352 352 352L248 352C234.7 352 224 362.7 224 376L224 464L64 304L224 144L224 232C224 245.3 234.7 256 248 256L289.4 256C284.7 245.8 280.9 235.1 278 224L256 224L256 144C256 131.1 248.2 119.4 236.2 114.4C224.2 109.4 210.5 112.2 201.3 121.3L41.3 281.3C28.8 293.8 28.8 314.1 41.3 326.6L201.3 486.6C210.5 495.8 224.2 498.5 236.2 493.5C248.2 488.5 256 476.9 256 464L256 384L352 384C405 384 448 427 448 480C448 510.4 435.2 527.9 425.8 536.7C420.3 541.8 416 548.7 416 556.2C416 567.1 424.8 575.9 435.7 575.9C438.5 575.9 441.3 575.3 443.8 574C462.5 563.9 544 513.3 544 399.9z"/></svg>