<svg xmlns="http://www.w3.org/2000/svg" viewBox="0 0 640 640"><!--! Font Awesome Pro 7.1.0 by @fontawesome - https://fontawesome.com License - https://fontawesome.com/license (Commercial License) Copyright 2025 Fonticons, Inc. --><path fill="currentColor" d="M0 240C0 160.5 64.5 96 144 96L368 96C447.5 96 512 160.5 512 240L512 432C512 440.8 519.2 448 528 448C536.8 448 544 440.8 544 432L544 368C544 341.5 565.5 320 592 320C618.5 320 640 341.5 640 368L640 432C640 493.9 589.9 544 528 544C495.8 544 466.8 530.4 446.3 508.6C440.8 529 422.1 544 400 544L336 544C309.5 544 288 522.5 288 496L288 448L160 448L160 496C160 522.5 138.5 544 112 544L48 544C21.5 544 0 522.5 0 496L0 240zM480 352L32 352L32 496C32 504.8 39.2 512 48 512L112 512C120.8 512 128 504.8 128 496L128 432C128 423.2 135.2 416 144 416L304 416C312.8 416 320 423.2 320 432L320 496C320 504.8 327.2 512 336 512L400 512C408.8 512 416 504.8 416 496L416 432C416 423.2 423.2 416 432 416C440.8 416 448 423.2 448 432C448 476.2 483.8 512 528 512C572.2 512 608 476.2 608 432L608 368C608 359.2 600.8 352 592 352C583.2 352 576 359.2 576 368L576 432C576 458.5 554.5 480 528 480C501.5 480 480 458.5 480 432L480 352zM32 240L32 320L480 320L480 240C480 178.1 429.9 128 368 128L144 128C82.1 128 32 178.1 32 240zM128 200C141.3 200 152 210.7 152 224C152 237.3 141.3 248 128 248C114.7 248 104 237.3 104 224C104 210.7 114.7 200 128 200zM360 224C360 210.7 370.7 200 384 200C397.3 200 408 210.7 408 224C408 237.3 397.3 248 384 248C370.7 248 360 237.3 360 224zM256 200C269.3 200 280 210.7 280 224C280 237.3 269.3 248 256 248C242.7 248 232 237.3 232 224C232 210.7 242.7 200 256 200z"/></svg>