<svg xmlns="http://www.w3.org/2000/svg" viewBox="0 0 640 640"><!--! Font Awesome Pro 7.1.0 by @fontawesome - https://fontawesome.com License - https://fontawesome.com/license (Commercial License) Copyright 2025 Fonticons, Inc. --><path fill="currentColor" d="M96.1 128C96.1 110.3 110.4 96 128.1 96C145.8 96 160.1 110.3 160.1 128C160.1 145.7 145.8 160 128.1 160C110.4 160 96.1 145.7 96.1 128zM192.1 128C192.1 92.7 163.4 64 128.1 64C92.8 64 64.1 92.7 64.1 128C64.1 163.3 92.8 192 128.1 192C163.4 192 192.1 163.3 192.1 128zM96.1 256L160.1 256C177.8 256 192.1 270.3 192.1 288L192.1 352C192.1 369.7 177.8 384 160.1 384L96.1 384C78.4 384 64.1 369.7 64.1 352L64.1 288C64.1 270.3 78.4 256 96.1 256zM32.1 288L32.1 352C32.1 375.7 45 396.4 64.1 407.4L64.1 560C64.1 568.8 71.3 576 80.1 576C88.9 576 96.1 568.8 96.1 560L96.1 416L160.1 416L160.1 560C160.1 568.8 167.3 576 176.1 576C184.9 576 192.1 568.8 192.1 560L192.1 407.4C211.2 396.3 224.1 375.7 224.1 352L224.1 288C224.1 252.7 195.4 224 160.1 224L96.1 224C60.8 224 32.1 252.7 32.1 288zM320.1 64C311.3 64 304.1 71.2 304.1 80L304.1 560C304.1 568.8 311.3 576 320.1 576C328.9 576 336.1 568.8 336.1 560L336.1 80C336.1 71.2 328.9 64 320.1 64zM512.1 96C529.8 96 544.1 110.3 544.1 128C544.1 145.7 529.8 160 512.1 160C494.4 160 480.1 145.7 480.1 128C480.1 110.3 494.4 96 512.1 96zM512.1 192C547.4 192 576.1 163.3 576.1 128C576.1 92.7 547.4 64 512.1 64C476.8 64 448.1 92.7 448.1 128C448.1 163.3 476.8 192 512.1 192zM597.7 416L426.5 416L461.3 294.3C467.8 271.6 488.5 256 512.1 256C535.7 256 556.4 271.6 562.9 294.3L597.7 416zM512.1 224C474.2 224 440.9 249.1 430.5 285.5L395.8 407.2C390 427.6 405.3 448 426.6 448L448.2 448L448.2 560C448.2 568.8 455.4 576 464.2 576C473 576 480.2 568.8 480.2 560L480.2 448L544.2 448L544.2 560C544.2 568.8 551.4 576 560.2 576C569 576 576.2 568.8 576.2 560L576.2 448L597.8 448C619.1 448 634.4 427.7 628.6 407.2L593.7 285.5C583.3 249.1 550 224 512.1 224z"/></svg>