<svg xmlns="http://www.w3.org/2000/svg" viewBox="0 0 640 640"><!--! Font Awesome Pro 7.1.0 by @fontawesome - https://fontawesome.com License - https://fontawesome.com/license (Commercial License) Copyright 2025 Fonticons, Inc. --><path fill="currentColor" d="M144 144C157.3 144 168 133.3 168 120C168 106.7 157.3 96 144 96C130.7 96 120 106.7 120 120C120 133.3 130.7 144 144 144zM144 64C174.9 64 200 89.1 200 120C200 150.9 174.9 176 144 176C113.1 176 88 150.9 88 120C88 89.1 113.1 64 144 64zM112 232.4L112 384L176 384L176 232.4C166.4 227 155.4 224 144 224C132.6 224 121.6 227 112 232.4zM112 416L112 560C112 568.8 104.8 576 96 576C87.2 576 80 568.8 80 560L80 272.1L38.4 358.9C34.6 366.9 25 370.2 17.1 366.4C9.2 362.6 5.8 353.1 9.6 345.1L56.5 247.2C72.6 213.5 106.6 192 144 192C181.4 192 215.4 213.5 231.6 247.2L278.5 345.1C282.3 353.1 278.9 362.6 271 366.4C263.1 370.2 253.5 366.8 249.7 358.9L208 272.1L208 560C208 568.8 200.8 576 192 576C183.2 576 176 568.8 176 560L176 416L112 416zM496 144C509.3 144 520 133.3 520 120C520 106.7 509.3 96 496 96C482.7 96 472 106.7 472 120C472 133.3 482.7 144 496 144zM496 64C526.9 64 552 89.1 552 120C552 150.9 526.9 176 496 176C465.1 176 440 150.9 440 120C440 89.1 465.1 64 496 64zM455.2 305.7C463.1 309.7 466.3 319.3 462.4 327.2L410 432L582.2 432L529.8 327.2C525.8 319.3 529.1 309.7 537 305.7C544.9 301.7 554.5 305 558.5 312.9L616.7 429.3C624.7 445.3 613.1 464 595.2 464L560.1 464L560.1 560C560.1 568.8 552.9 576 544.1 576C535.3 576 528.1 568.8 528.1 560L528.1 464L464.1 464L464.1 560C464.1 568.8 456.9 576 448.1 576C439.3 576 432.1 568.8 432.1 560L432.1 464L397 464C379.2 464 367.6 445.2 375.5 429.3L433.7 312.9C437.7 305 447.3 301.8 455.2 305.7zM435 260.6L382.1 359.5C377.9 367.3 368.2 370.2 360.4 366.1C352.6 362 349.7 352.2 353.8 344.4L406.7 245.5C424.3 212.6 458.7 192 496 192C533.3 192 567.7 212.6 585.3 245.5L638.2 344.4C642.4 352.2 639.4 361.9 631.6 366.1C623.8 370.3 614.1 367.3 609.9 359.5L557 260.6C545 238.1 521.5 224 496 224C470.5 224 447 238.1 435 260.6zM336 80L336 560C336 568.8 328.8 576 320 576C311.2 576 304 568.8 304 560L304 80C304 71.2 311.2 64 320 64C328.8 64 336 71.2 336 80z"/></svg>