<svg xmlns="http://www.w3.org/2000/svg" viewBox="0 0 640 640"><!--! Font Awesome Pro 7.1.0 by @fontawesome - https://fontawesome.com License - https://fontawesome.com/license (Commercial License) Copyright 2025 Fonticons, Inc. --><path fill="currentColor" d="M139.3 100.7C133.1 94.5 122.9 94.5 116.7 100.7L36.7 180.7C30.5 186.9 30.5 197.1 36.7 203.3C42.9 209.5 53.1 209.5 59.3 203.3L112 150.6L112 448C112 501 155 544 208 544L336 544C344.8 544 352 536.8 352 528C352 519.2 344.8 512 336 512L208 512C172.7 512 144 483.3 144 448L144 150.6L196.7 203.3C202.9 209.5 213.1 209.5 219.3 203.3C225.5 197.1 225.5 186.9 219.3 180.7L139.3 100.7zM500.7 539.3C506.9 545.5 517.1 545.5 523.3 539.3L603.3 459.3C609.5 453.1 609.5 442.9 603.3 436.7C597.1 430.5 586.9 430.5 580.7 436.7L528 489.4L528 192C528 139 485 96 432 96L304 96C295.2 96 288 103.2 288 112C288 120.8 295.2 128 304 128L432 128C467.3 128 496 156.7 496 192L496 489.4L443.3 436.7C437.1 430.5 426.9 430.5 420.7 436.7C414.5 442.9 414.5 453.1 420.7 459.3L500.7 539.3z"/></svg>