<svg xmlns="http://www.w3.org/2000/svg" viewBox="0 0 640 640"><!--! Font Awesome Pro 7.1.0 by @fontawesome - https://fontawesome.com License - https://fontawesome.com/license (Commercial License) Copyright 2025 Fonticons, Inc. --><path fill="currentColor" d="M105.4 105.4C117.9 92.9 138.2 92.9 150.7 105.4L214.7 169.4C223.9 178.6 226.6 192.3 221.6 204.3C216.6 216.3 204.9 224 192 224L144 224L144 448C144 483.3 172.7 512 208 512L336 512C344.8 512 352 519.2 352 528C352 536.8 344.8 544 336 544L208 544C155 544 112 501 112 448L112 224L64 224C51.1 224 39.4 216.2 34.4 204.2C29.4 192.2 32.2 178.5 41.4 169.4L105.4 105.4zM192 192L128 128L64 192L192 192zM496 416L496 192C496 156.7 467.3 128 432 128L304 128C295.2 128 288 120.8 288 112C288 103.2 295.2 96 304 96L432 96C485 96 528 139 528 192L528 416L576 416C588.9 416 600.6 423.8 605.6 435.8C610.6 447.8 607.8 461.5 598.7 470.7L534.7 534.7C522.2 547.2 501.9 547.2 489.4 534.7L425.4 470.7C416.2 461.5 413.5 447.8 418.5 435.8C423.5 423.8 435.1 416 448 416L496 416zM512 512L576 448L448 448L512 512z"/></svg>