<svg xmlns="http://www.w3.org/2000/svg" viewBox="0 0 640 640"><!--! Font Awesome Pro 7.1.0 by @fontawesome - https://fontawesome.com License - https://fontawesome.com/license (Commercial License) Copyright 2025 Fonticons, Inc. --><path fill="currentColor" d="M363.1 96L276.8 96C254.5 96 233.8 107.6 222.2 126.6L220.9 128.7L245.8 160L394 160L418.9 128.7L417.6 126.6C406.1 107.6 385.4 96 363.1 96zM271.3 192L319.9 253.2L368.5 192L271.2 192zM385.9 336L448.5 257.8C465.3 236.8 467.2 207.4 453.1 184.4L436.8 157.7L340.5 278.8L386 335.9zM473.4 277.8L406.3 361.7L492.5 470C498 476.9 496.9 486.9 490 492.5L410 556.5C403.1 562 393 560.9 387.5 554L166.6 277.8C141.4 246.2 138.6 202.3 159.6 167.8L195 109.9C212.4 81.4 243.4 64 276.9 64L363.2 64C396.6 64 427.7 81.4 445.1 109.9L480.4 167.7C501.5 202.2 498.7 246.2 473.4 277.7zM147.5 470L203 400.2L223.5 425.8L182.4 477.4L237.4 521.4L268.7 482.3L289.2 507.9L252.4 553.9C246.9 560.8 236.8 561.9 229.9 556.4L149.9 492.4C143 486.9 141.9 476.8 147.4 469.9zM203.2 157.8L186.9 184.5C172.9 207.5 174.7 236.8 191.5 257.9L402.5 521.6L457.5 477.6L203.2 157.9z"/></svg>