<svg xmlns="http://www.w3.org/2000/svg" viewBox="0 0 640 640"><!--! Font Awesome Pro 7.1.0 by @fontawesome - https://fontawesome.com License - https://fontawesome.com/license (Commercial License) Copyright 2025 Fonticons, Inc. --><path fill="currentColor" d="M640 176C640 167.2 632.8 160 624 160C615.2 160 608 167.2 608 176L608 464C608 472.8 615.2 480 624 480C632.8 480 640 472.8 640 464L640 176zM502.6 342.6C515.1 330.1 515.1 309.8 502.6 297.3L374.6 169.3C365.4 160.1 351.7 157.4 339.7 162.4C327.7 167.4 320 179.1 320 192L320 256L48 256C21.5 256 0 277.5 0 304L0 336C0 362.5 21.5 384 48 384L320 384L320 448C320 460.9 327.8 472.6 339.8 477.6C351.8 482.6 365.5 479.8 374.7 470.7L502.7 342.7zM480 320L352 448L352 368C352 359.2 344.8 352 336 352L48 352C39.2 352 32 344.8 32 336L32 304C32 295.2 39.2 288 48 288L336 288C344.8 288 352 280.8 352 272L352 192L480 320z"/></svg>