<svg xmlns="http://www.w3.org/2000/svg" viewBox="0 0 640 640"><!--! Font Awesome Pro 7.1.0 by @fontawesome - https://fontawesome.com License - https://fontawesome.com/license (Commercial License) Copyright 2025 Fonticons, Inc. --><path fill="currentColor" d="M569 337L569 337C578.4 327.6 578.4 312.4 569 303.1L569 303.1L425 159.1C418.1 152.2 407.8 150.2 398.8 153.9C389.8 157.6 384 166.3 384 176L384 256L272 256C245.5 256 224 277.5 224 304L224 336C224 362.5 245.5 384 272 384L384 384L384 464C384 473.7 389.8 482.5 398.8 486.2C407.8 489.9 418.1 487.9 425 481L569 337zM416 195.3L540.7 320L416 444.7L416 368C416 359.2 408.8 352 400 352L272 352C263.2 352 256 344.8 256 336L256 304C256 295.2 263.2 288 272 288L400 288C408.8 288 416 280.8 416 272L416 195.3zM240 128C248.8 128 256 120.8 256 112C256 103.2 248.8 96 240 96L160 96C107 96 64 139 64 192L64 448C64 501 107 544 160 544L240 544C248.8 544 256 536.8 256 528C256 519.2 248.8 512 240 512L160 512C124.7 512 96 483.3 96 448L96 192C96 156.7 124.7 128 160 128L240 128z"/></svg>