<svg xmlns="http://www.w3.org/2000/svg" viewBox="0 0 640 640"><!--! Font Awesome Pro 7.1.0 by @fontawesome - https://fontawesome.com License - https://fontawesome.com/license (Commercial License) Copyright 2025 Fonticons, Inc. --><path fill="currentColor" d="M403.8 66.4C415.8 61.4 429.5 64.2 438.7 73.3L598.7 233.3C611.2 245.8 611.2 266.1 598.7 278.6L438.7 438.6C429.5 447.8 415.8 450.5 403.8 445.5C391.8 440.5 384 428.9 384 416L384 336L240 336C235.8 336 231.7 334.3 228.7 331.3C225.7 328.3 224 324.2 224 320L224 224L64 384L224 544L224 448C224 439.2 231.2 432 240 432L304 432C312.8 432 320 439.2 320 448C320 456.8 312.8 464 304 464L256 464L256 544C256 556.9 248.2 568.6 236.2 573.6C224.2 578.6 210.5 575.8 201.3 566.7L41.3 406.7C28.8 394.2 28.8 373.9 41.3 361.4L201.3 201.4C210.5 192.2 224.2 189.5 236.2 194.5C248.2 199.5 256 211.1 256 224L256 304L400 304C404.2 304 408.3 305.7 411.3 308.7C414.3 311.7 416 315.8 416 320L416 416L576 256L416 96L416 192C416 200.8 408.8 208 400 208L336 208C327.2 208 320 200.8 320 192C320 183.2 327.2 176 336 176L384 176L384 96C384 83.1 391.8 71.4 403.8 66.4z"/></svg>