<svg xmlns="http://www.w3.org/2000/svg" viewBox="0 0 640 640"><!--! Font Awesome Pro 7.1.0 by @fontawesome - https://fontawesome.com License - https://fontawesome.com/license (Commercial License) Copyright 2025 Fonticons, Inc. --><path fill="currentColor" d="M528 488C528 474.7 538.7 464 552 464C565.3 464 576 474.7 576 488C576 501.3 565.3 512 552 512C538.7 512 528 501.3 528 488zM528 376C528 362.7 538.7 352 552 352C565.3 352 576 362.7 576 376C576 389.3 565.3 400 552 400C538.7 400 528 389.3 528 376zM552 240C565.3 240 576 250.7 576 264C576 277.3 565.3 288 552 288C538.7 288 528 277.3 528 264C528 250.7 538.7 240 552 240zM528 152C528 138.7 538.7 128 552 128C565.3 128 576 138.7 576 152C576 165.3 565.3 176 552 176C538.7 176 528 165.3 528 152zM441 303C450.4 312.4 450.4 327.6 441 336.9L297 481C290.1 487.9 279.8 489.9 270.8 486.2C261.8 482.5 256 473.7 256 464L256 384L112 384C85.5 384 64 362.5 64 336L64 304C64 277.5 85.5 256 112 256L192 256L192 256L256 256L256 176C256 166.3 261.8 157.5 270.8 153.8C279.8 150.1 290.1 152.2 297 159L441 303zM192 288L192 288L112 288C103.2 288 96 295.2 96 304L96 336C96 344.8 103.2 352 112 352L272 352C280.8 352 288 359.2 288 368L288 444.7L412.7 320L288 195.3L288 272C288 280.8 280.8 288 272 288L192 288z"/></svg>