<svg xmlns="http://www.w3.org/2000/svg" viewBox="0 0 640 640"><!--! Font Awesome Pro 7.1.0 by @fontawesome - https://fontawesome.com License - https://fontawesome.com/license (Commercial License) Copyright 2025 Fonticons, Inc. --><path fill="currentColor" d="M265 159L409 303C418.4 312.4 418.4 327.6 409 336.9L265 481C258.1 487.9 247.8 489.9 238.8 486.2C229.8 482.5 224 473.7 224 464L224 384L112 384C85.5 384 64 362.5 64 336L64 304C64 277.5 85.5 256 112 256L224 256L224 176C224 166.3 229.8 157.5 238.8 153.8C247.8 150.1 258.1 152.2 265 159zM256 444.7L380.7 320L256 195.3L256 272C256 280.8 248.8 288 240 288L112 288C103.2 288 96 295.2 96 304L96 336C96 344.8 103.2 352 112 352L240 352C248.8 352 256 359.2 256 368L256 444.7zM400 512L480 512C515.3 512 544 483.3 544 448L544 192C544 156.7 515.3 128 480 128L400 128C391.2 128 384 120.8 384 112C384 103.2 391.2 96 400 96L480 96C533 96 576 139 576 192L576 448C576 501 533 544 480 544L400 544C391.2 544 384 536.8 384 528C384 519.2 391.2 512 400 512z"/></svg>