<svg xmlns="http://www.w3.org/2000/svg" viewBox="0 0 640 640"><!--! Font Awesome Pro 7.1.0 by @fontawesome - https://fontawesome.com License - https://fontawesome.com/license (Commercial License) Copyright 2025 Fonticons, Inc. --><path fill="currentColor" d="M540.7 192L448 284.7L448 99.3L540.7 192zM445.7 64C429.3 64 416 77.3 416 93.7L416 176L80 176C71.2 176 64 183.2 64 192C64 200.8 71.2 208 80 208L416 208L416 290.3C416 306.7 429.3 320 445.7 320C453.6 320 461.1 316.9 466.7 311.3L569 209C573.5 204.5 576 198.4 576 192C576 185.6 573.5 179.5 569 175L466.6 72.7C461 67.1 453.5 64 445.6 64zM560 464C568.8 464 576 456.8 576 448C576 439.2 568.8 432 560 432L224 432L224 349.7C224 333.3 210.7 320 194.3 320C186.4 320 178.9 323.1 173.3 328.7L71 431C66.5 435.5 64 441.6 64 448C64 454.4 66.5 460.5 71 465L173.4 567.3C179 572.9 186.5 576 194.4 576C210.8 576 224.1 562.7 224.1 546.3L224.1 464L560.1 464zM192 355.3L192 540.7L99.3 448L192 355.3z"/></svg>