<svg xmlns="http://www.w3.org/2000/svg" viewBox="0 0 640 640"><!--! Font Awesome Pro 7.1.0 by @fontawesome - https://fontawesome.com License - https://fontawesome.com/license (Commercial License) Copyright 2025 Fonticons, Inc. --><path fill="currentColor" d="M569 337L569 337C578.4 327.6 578.4 312.4 569 303.1L569 303.1L425 159.1C418.1 152.2 407.8 150.2 398.8 153.9C389.8 157.6 384 166.3 384 176L384 256L320 256L320 256L240 256C213.5 256 192 277.5 192 304L192 336C192 362.5 213.5 384 240 384L384 384L384 464C384 473.7 389.8 482.5 398.8 486.2C407.8 489.9 418.1 487.9 425 481L569 337zM320 352L240 352C231.2 352 224 344.8 224 336L224 304C224 295.2 231.2 288 240 288L320 288L320 288L400 288C408.8 288 416 280.8 416 272L416 195.3L540.7 320L416 444.7L416 368C416 359.2 408.8 352 400 352L320 352zM112 152C112 138.7 101.3 128 88 128C74.7 128 64 138.7 64 152C64 165.3 74.7 176 88 176C101.3 176 112 165.3 112 152zM112 264C112 250.7 101.3 240 88 240C74.7 240 64 250.7 64 264C64 277.3 74.7 288 88 288C101.3 288 112 277.3 112 264zM88 352C74.7 352 64 362.7 64 376C64 389.3 74.7 400 88 400C101.3 400 112 389.3 112 376C112 362.7 101.3 352 88 352zM112 488C112 474.7 101.3 464 88 464C74.7 464 64 474.7 64 488C64 501.3 74.7 512 88 512C101.3 512 112 501.3 112 488z"/></svg>