<svg xmlns="http://www.w3.org/2000/svg" viewBox="0 0 640 640"><!--! Font Awesome Pro 7.1.0 by @fontawesome - https://fontawesome.com License - https://fontawesome.com/license (Commercial License) Copyright 2025 Fonticons, Inc. --><path fill="currentColor" d="M534.6 297.4C540.9 303.7 544 311.9 544 320C544 328.1 540.9 336.4 534.6 342.6L374.6 502.6C365.4 511.8 351.7 514.5 339.7 509.5C327.7 504.5 320 492.9 320 480L320 384L144 384C117.5 384 96 362.5 96 336L96 304C96 277.5 117.5 256 144 256L320 256L320 160C320 147.1 327.8 135.4 339.8 130.4C351.8 125.4 365.5 128.2 374.7 137.3L374.7 137.3L534.7 297.3zM352 480L512 320L352 160L352 272C352 280.8 344.8 288 336 288L144 288C135.2 288 128 295.2 128 304L128 336C128 344.8 135.2 352 144 352L336 352C344.8 352 352 359.2 352 368L352 480z"/></svg>