<svg xmlns="http://www.w3.org/2000/svg" viewBox="0 0 640 640"><!--! Font Awesome Pro 7.1.0 by @fontawesome - https://fontawesome.com License - https://fontawesome.com/license (Commercial License) Copyright 2025 Fonticons, Inc. --><path fill="currentColor" d="M201.9 96L193.9 112L217.9 160L262.1 160L286.1 112L278.1 96L201.9 96zM318.3 119.2L293.7 168.4C364.6 191.1 416 257.6 416 336.1C416 394.4 387.7 446.1 344 478.1C335.2 471.8 327.5 463.9 321.2 455C359.1 429.1 384 385.5 384 336.1C384 308.6 376.3 282.8 362.9 260.9C301.4 277.3 256 333.4 256 400.1C256 479.6 320.5 544.1 400 544.1C479.5 544.1 544 479.6 544 400.1C544 339.2 506.2 287.2 452.8 266.1C448.4 252.7 442.8 239.9 436.1 227.8C516 244.5 576 315.3 576 400.1C576 497.3 497.2 576.1 400 576.1C344.7 576.1 295.3 550.6 263 510.6C255.5 511.6 247.8 512.1 240 512.1C142.8 512.1 64 433.3 64 336.1C64 257.6 115.4 191.2 186.3 168.4L161.7 119.2C159.4 114.7 159.4 109.4 161.7 104.9L177.7 72.9C180.4 67.4 185.9 64 192 64L288 64C294.1 64 299.6 67.4 302.3 72.8L318.3 104.8C320.6 109.3 320.6 114.6 318.3 119.1zM243.2 480C230.9 456 224 428.8 224 400C224 323.3 273.1 258 341.6 233.9C315.6 208 279.7 192 240 192C160.5 192 96 256.5 96 336C96 415.5 160.5 480 240 480C241.1 480 242.1 480 243.2 480z"/></svg>