<svg xmlns="http://www.w3.org/2000/svg" viewBox="0 0 640 640"><!--! Font Awesome Pro 7.1.0 by @fontawesome - https://fontawesome.com License - https://fontawesome.com/license (Commercial License) Copyright 2025 Fonticons, Inc. --><path fill="currentColor" d="M157.1 191.3C197.9 172.2 255.5 160 320 160C384.5 160 442.1 172.2 482.9 191.3C525.1 211 544 235 544 256C544 270.3 535.3 286 516.4 300.8C510.1 297.1 503.4 293.6 496.5 290.4C450.5 268.9 388.1 256.1 320 256.1C251.9 256.1 189.5 268.8 143.5 290.3C136.6 293.5 130 297 123.6 300.8C104.7 286 96 270.3 96 256C96 235 114.9 211 157.1 191.3zM544 319.3L544 384C544 405 525.1 429 482.9 448.7C442 467.8 384.4 480 320 480C255.6 480 197.9 467.8 157.1 448.7C114.9 429 96 405 96 384L96 319.3C109.2 331.1 125.5 341.3 143.5 349.7C189.5 371.2 251.9 384 320 384C388.1 384 450.5 371.2 496.5 349.7C514.5 341.3 530.9 331.1 544 319.3zM64 256L64 384C64 424.8 98.8 456.8 143.5 477.7C189.5 499.2 251.9 512 320 512C388.1 512 450.5 499.2 496.5 477.7C541.2 456.8 576 424.8 576 384L576 256C576 215.2 541.2 183.2 496.5 162.3C450.5 140.8 388.1 128 320 128C251.9 128 189.5 140.8 143.5 162.3C98.8 183.2 64 215.2 64 256zM157.1 320.7L155.6 320L157.1 319.3C197.9 300.2 255.5 288 320 288C384.5 288 442.1 300.2 482.9 319.3L484.4 320L482.9 320.7C442.1 339.8 384.5 352 320 352C255.5 352 197.9 339.8 157.1 320.7z"/></svg>