<svg xmlns="http://www.w3.org/2000/svg" viewBox="0 0 640 640"><!--! Font Awesome Pro 7.1.0 by @fontawesome - https://fontawesome.com License - https://fontawesome.com/license (Commercial License) Copyright 2025 Fonticons, Inc. --><path fill="currentColor" d="M186.1 151.6L96.9 481.1C96.3 483.2 96 485.3 96 487.5C96 501 107 512 120.5 512L310 512C312.9 523.1 316.7 533.8 321.4 544L120.5 544C89.3 544 64 518.7 64 487.5C64 482.5 64.7 477.5 66 472.7L155.2 143.3C162.8 115.4 188.1 96 217 96L423 96C451.9 96 477.2 115.4 484.8 143.3L520.1 273.5C512.2 272.5 504.2 272 496 272C492.8 272 489.7 272.1 486.6 272.2L453.9 151.6C450.1 137.7 437.5 128 423 128L336 128L336 192C336 200.8 328.8 208 320 208C311.2 208 304 200.8 304 192L304 128L217 128C202.5 128 189.9 137.7 186.1 151.6zM320 272C328.8 272 336 279.2 336 288L336 352C336 360.8 328.8 368 320 368C311.2 368 304 360.8 304 352L304 288C304 279.2 311.2 272 320 272zM608 464C608 402.1 557.9 352 496 352C434.1 352 384 402.1 384 464C384 525.9 434.1 576 496 576C557.9 576 608 525.9 608 464zM352 464C352 384.5 416.5 320 496 320C575.5 320 640 384.5 640 464C640 543.5 575.5 608 496 608C416.5 608 352 543.5 352 464zM496 508C507 508 516 517 516 528C516 539 507 548 496 548C485 548 476 539 476 528C476 517 485 508 496 508zM496 384C504.8 384 512 391.2 512 400L512 464C512 472.8 504.8 480 496 480C487.2 480 480 472.8 480 464L480 400C480 391.2 487.2 384 496 384z"/></svg>