<svg xmlns="http://www.w3.org/2000/svg" viewBox="0 0 640 640"><!--! Font Awesome Pro 7.1.0 by @fontawesome - https://fontawesome.com License - https://fontawesome.com/license (Commercial License) Copyright 2025 Fonticons, Inc. --><path fill="currentColor" d="M16 96C24.8 96 32 103.2 32 112L32 144L608 144L608 112C608 103.2 615.2 96 624 96C632.8 96 640 103.2 640 112L640 528C640 536.8 632.8 544 624 544C615.2 544 608 536.8 608 528L608 368L32 368L32 528C32 536.8 24.8 544 16 544C7.2 544 0 536.8 0 528L0 112C0 103.2 7.2 96 16 96zM608 336L608 176L569.9 176L489.9 336L608 336zM32 336L70.1 336L150.1 176L32 176L32 336zM406.1 176L313.9 176L233.9 336L326.1 336L406.1 176zM441.9 176L361.9 336L454.1 336L534.1 176L441.9 176zM185.9 176L105.9 336L198.1 336L278.1 176L185.9 176z"/></svg>