<svg xmlns="http://www.w3.org/2000/svg" viewBox="0 0 640 640"><!--! Font Awesome Pro 7.1.0 by @fontawesome - https://fontawesome.com License - https://fontawesome.com/license (Commercial License) Copyright 2025 Fonticons, Inc. --><path fill="currentColor" d="M93.3 172C143.5 247.4 176.4 296.7 192 320L192 180.8C192 165 212.5 158.8 221.3 171.9C271.5 247.3 304.4 296.6 320 319.9L320 180.7C320 164.9 340.5 158.7 349.3 171.8C399.5 247.2 432.4 296.5 448 319.8L448 180.6C448 164.8 468.5 158.6 477.3 171.7L606.8 366.2C621 387.5 605.7 416 580.2 416L64 416L64 180.8C64 165 84.5 158.8 93.3 171.9zM512 384L580.2 384L480 233.7L480 384L512 384zM421.4 337.8L352 233.7L352 384L452.2 384L421.4 337.8zM293.4 337.8L224 233.7L224 384L324.2 384L293.4 337.8zM165.4 337.8L96 233.7L96 384L196.2 384L165.4 337.8zM16 480L624 480C632.8 480 640 487.2 640 496C640 504.8 632.8 512 624 512L16 512C7.2 512 0 504.8 0 496C0 487.2 7.2 480 16 480z"/></svg>