<svg xmlns="http://www.w3.org/2000/svg" viewBox="0 0 640 640"><!--! Font Awesome Pro 7.1.0 by @fontawesome - https://fontawesome.com License - https://fontawesome.com/license (Commercial License) Copyright 2025 Fonticons, Inc. --><path fill="currentColor" d="M96.9 481.1C96.3 483.2 96 485.3 96 487.5C96 501 107 512 120.5 512L304 512L304 448C304 439.2 311.2 432 320 432C328.8 432 336 439.2 336 448L336 512L519.5 512C533 512 544 501 544 487.5C544 485.3 543.7 483.2 543.1 481.1L453.9 151.6C450.1 137.7 437.5 128 423 128L336 128L336 192C336 200.8 328.8 208 320 208C311.2 208 304 200.8 304 192L304 128L217 128C202.5 128 189.9 137.7 186.1 151.6L96.9 481.1zM66 472.7L155.2 143.3C162.8 115.4 188.1 96 217 96L423 96C451.9 96 477.2 115.4 484.8 143.3L574 472.7C575.3 477.5 576 482.5 576 487.5C576 518.7 550.7 544 519.5 544L120.5 544C89.3 544 64 518.7 64 487.5C64 482.5 64.7 477.5 66 472.7zM336 288L336 352C336 360.8 328.8 368 320 368C311.2 368 304 360.8 304 352L304 288C304 279.2 311.2 272 320 272C328.8 272 336 279.2 336 288z"/></svg>