<svg xmlns="http://www.w3.org/2000/svg" viewBox="0 0 640 640"><!--! Font Awesome Pro 7.1.0 by @fontawesome - https://fontawesome.com License - https://fontawesome.com/license (Commercial License) Copyright 2025 Fonticons, Inc. --><path fill="currentColor" d="M48 96C39.2 96 32 103.2 32 112C32 120.8 39.2 128 48 128L80 128L80 192L48 192C39.2 192 32 199.2 32 208L32 320C32 327.3 37 333.7 44.1 335.5L47.5 336.4C76 343.5 96 369.1 96 398.5L96 512C96 529.7 110.3 544 128 544L192 544C209.7 544 224 529.7 224 512L224 416C224 386.2 244.4 361.1 272 354L272 321.3C226.6 328.9 192 368.4 192 416L192 512L128 512L128 398.5C128 357.5 102 321.4 64 308L64 224.1L272 224.1L272 192.1L240 192.1L240 128.1L272 128.1L272 96.1L48 96.1zM208 128L208 192L112 192L112 128L208 128zM560 128C568.8 128 576 135.2 576 144L576 496C576 504.8 568.8 512 560 512L480 512L480 464C480 455.2 472.8 448 464 448C455.2 448 448 455.2 448 464L448 512L368 512C359.2 512 352 504.8 352 496L352 144C352 135.2 359.2 128 368 128L448 128L448 176C448 184.8 455.2 192 464 192C472.8 192 480 184.8 480 176L480 128L560 128zM560 96L368 96C341.5 96 320 117.5 320 144L320 496C320 522.5 341.5 544 368 544L560 544C586.5 544 608 522.5 608 496L608 144C608 117.5 586.5 96 560 96zM464 264C455.2 264 448 271.2 448 280L448 360C448 368.8 455.2 376 464 376C472.8 376 480 368.8 480 360L480 280C480 271.2 472.8 264 464 264z"/></svg>