<svg xmlns="http://www.w3.org/2000/svg" viewBox="0 0 640 640"><!--! Font Awesome Pro 7.1.0 by @fontawesome - https://fontawesome.com License - https://fontawesome.com/license (Commercial License) Copyright 2025 Fonticons, Inc. --><path fill="currentColor" d="M96.9 481.1L186.1 151.6C189.9 137.7 202.5 128 217 128L304 128L304 192C304 200.8 311.2 208 320 208C328.8 208 336 200.8 336 192L336 128L423 128C437.5 128 450.1 137.7 453.9 151.6L478.2 241.2C484 240.4 490 240 496 240C501.2 240 506.2 240.3 511.2 240.9L484.8 143.3C477.2 115.4 451.9 96 423 96L217 96C188.1 96 162.8 115.4 155.2 143.3L66 472.7C64.7 477.5 64 482.5 64 487.5C64 518.7 89.3 544 120.5 544L336 544L336 448C336 439.2 328.8 432 320 432C311.2 432 304 439.2 304 448L304 512L120.5 512C107 512 96 501 96 487.5C96 485.3 96.3 483.2 96.9 481.1zM336 288C336 279.2 328.8 272 320 272C311.2 272 304 279.2 304 288L304 352C304 360.8 311.2 368 320 368C328.8 368 336 360.8 336 352L336 288zM416 416.1L416 418.7C397.4 425.3 384 443.1 384 464L384 560C384 586.5 405.5 608 432 608L560 608C586.5 608 608 586.5 608 560L608 464C608 443.1 594.6 425.3 576 418.7L576 368.1C576 323.9 540.2 288.1 496 288.1C451.8 288.1 416 323.9 416 368.1L416 416.1zM416 464C416 455.8 422.2 449 430.3 448.1L561.8 448.1C569.8 449 576.1 455.8 576.1 464L576.1 560C576.1 568.8 568.9 576 560.1 576L432.1 576C423.3 576 416.1 568.8 416.1 560L416.1 464zM544 368.1L544 416L448 416L448 368.1C448 341.6 469.5 320.1 496 320.1C522.5 320.1 544 341.6 544 368.1z"/></svg>