<svg xmlns="http://www.w3.org/2000/svg" viewBox="0 0 640 640"><!--! Font Awesome Pro 7.1.0 by @fontawesome - https://fontawesome.com License - https://fontawesome.com/license (Commercial License) Copyright 2025 Fonticons, Inc. --><path fill="currentColor" d="M336 48C336 39.2 328.8 32 320 32C311.2 32 304 39.2 304 48L304 128L192 128C139 128 96 171 96 224L96 448C96 501 139 544 192 544L448 544C501 544 544 501 544 448L544 224C544 171 501 128 448 128L336 128L336 48zM320 160L448 160C483.3 160 512 188.7 512 224L512 448C512 483.3 483.3 512 448 512L192 512C156.7 512 128 483.3 128 448L128 224C128 188.7 156.7 160 192 160L320 160zM192 432C192 440.8 199.2 448 208 448L240 448C248.8 448 256 440.8 256 432C256 423.2 248.8 416 240 416L208 416C199.2 416 192 423.2 192 432zM288 432C288 440.8 295.2 448 304 448L336 448C344.8 448 352 440.8 352 432C352 423.2 344.8 416 336 416L304 416C295.2 416 288 423.2 288 432zM384 432C384 440.8 391.2 448 400 448L432 448C440.8 448 448 440.8 448 432C448 423.2 440.8 416 432 416L400 416C391.2 416 384 423.2 384 432zM272 304C272 321.7 257.7 336 240 336C222.3 336 208 321.7 208 304C208 286.3 222.3 272 240 272C257.7 272 272 286.3 272 304zM240 240C204.7 240 176 268.7 176 304C176 339.3 204.7 368 240 368C275.3 368 304 339.3 304 304C304 268.7 275.3 240 240 240zM400 336C382.3 336 368 321.7 368 304C368 286.3 382.3 272 400 272C417.7 272 432 286.3 432 304C432 321.7 417.7 336 400 336zM336 304C336 339.3 364.7 368 400 368C435.3 368 464 339.3 464 304C464 268.7 435.3 240 400 240C364.7 240 336 268.7 336 304zM64 272C64 263.2 56.8 256 48 256C39.2 256 32 263.2 32 272L32 400C32 408.8 39.2 416 48 416C56.8 416 64 408.8 64 400L64 272zM592 256C583.2 256 576 263.2 576 272L576 400C576 408.8 583.2 416 592 416C600.8 416 608 408.8 608 400L608 272C608 263.2 600.8 256 592 256z"/></svg>