<svg xmlns="http://www.w3.org/2000/svg" viewBox="0 0 640 640"><!--! Font Awesome Pro 7.1.0 by @fontawesome - https://fontawesome.com License - https://fontawesome.com/license (Commercial License) Copyright 2025 Fonticons, Inc. --><path fill="currentColor" d="M568.1 84.9C566.8 78.6 561.9 73.6 555.5 72.3C511.2 63.4 444.3 58.1 380 91.3C342.6 110.6 307.2 142.4 277.9 192L187.5 192C170.6 192 155 200.8 146.3 215.3L93.5 303.5C80.7 324.9 96 352 120.9 352L224.4 352C259.7 352 288.4 380.7 288.4 416L288.4 519.5C288.4 544.4 315.5 559.7 336.9 546.9L425.1 494C439.6 485.3 448.4 469.7 448.4 452.8L448.4 362.4C498 333.1 529.8 297.7 549.1 260.3C582.3 196 576.9 129.1 568.1 84.8zM416.4 379.3L416.4 452.8C416.4 458.4 413.5 463.6 408.6 466.5L320.4 519.4L320.4 415.9C320.4 414.8 320.4 413.6 320.3 412.5C357.1 403.3 388.9 392 416.4 379.2zM313.9 381.2C304.2 356.1 284.2 336.2 259.1 326.4C289.7 205 342.3 146.7 394.7 119.6C445.1 93.6 498.3 94.9 538.6 101.6C545.4 141.9 546.6 195.1 520.6 245.5C493.5 297.9 435.2 350.5 313.8 381.1zM227.8 320C226.7 320 225.6 319.9 224.4 319.9L120.9 319.9L173.8 231.7C176.7 226.9 181.9 223.9 187.5 223.9L261 223.9C248.1 251.3 236.9 283.2 227.7 320zM432.4 232C419.1 232 408.4 221.3 408.4 208C408.4 194.7 419.1 184 432.4 184C445.7 184 456.4 194.7 456.4 208C456.4 221.3 445.7 232 432.4 232zM376.4 208C376.4 238.9 401.5 264 432.4 264C463.3 264 488.4 238.9 488.4 208C488.4 177.1 463.3 152 432.4 152C401.5 152 376.4 177.1 376.4 208zM194.2 514.9C184.7 524.4 168.4 532 147.4 537C129.9 541.2 111.7 543 96.8 543.6C97.5 528.7 99.3 510.5 103.4 493C108.4 472 115.9 455.7 125.5 446.2C144.5 427.2 175.2 427.2 194.2 446.2C213.2 465.2 213.2 495.9 194.2 514.9zM216.8 537.5C248.3 506 248.3 455 216.8 423.5C185.3 392 134.3 392 102.8 423.5C71.5 454.8 65.3 515.5 64.5 549.9C64.1 564.5 75.7 576.1 90.4 575.8C124.9 575 185.5 568.8 216.8 537.5z"/></svg>