<svg xmlns="http://www.w3.org/2000/svg" viewBox="0 0 640 640"><!--! Font Awesome Pro 7.1.0 by @fontawesome - https://fontawesome.com License - https://fontawesome.com/license (Commercial License) Copyright 2025 Fonticons, Inc. --><path fill="currentColor" d="M376.4 224C376.4 254.9 351.3 280 320.4 280C289.5 280 264.4 254.9 264.4 224C264.4 193.1 289.5 168 320.4 168C351.3 168 376.4 193.1 376.4 224zM320.4 200C307.1 200 296.4 210.7 296.4 224C296.4 237.3 307.1 248 320.4 248C333.7 248 344.4 237.3 344.4 224C344.4 210.7 333.7 200 320.4 200zM203.8 324.6L132.1 396.3C119.9 408.5 115.2 426.3 119.7 442.9L145.9 538.8C152.4 562.5 182 570.4 199.4 553L275.2 477.2C300.2 452.2 340.7 452.2 365.7 477.2L441.4 553C458.8 570.4 488.4 562.5 494.9 538.8L521 442.9C525.5 426.3 520.8 408.5 508.6 396.3L437 324.6C469.2 185.5 397.5 104.7 337.8 60.3C327.4 52.6 313.3 52.6 303 60.3C243.3 104.7 171.6 185.5 203.8 324.6zM255.6 451.7C228.3 476.7 203 504.2 176.8 530.4L150.6 434.5C149.1 429 150.7 423 154.7 419L213.8 359.9C223.3 388.3 237 418.9 255.5 451.8zM427 359.8L486 418.9C490.1 423 491.6 428.9 490.1 434.4L464 530.4C437.8 504.2 412.5 476.7 385.2 451.7C403.8 418.8 417.4 388.2 426.9 359.8zM358.3 434.3C334.2 423.9 306.6 423.9 282.5 434.3C226.9 335 220.8 262.5 233.4 210.5C247.1 153.8 284.4 114.4 320.5 87.2C356.6 114.4 393.9 153.8 407.6 210.5C420.2 262.6 414.1 335 358.5 434.3z"/></svg>