<svg xmlns="http://www.w3.org/2000/svg" viewBox="0 0 640 640"><!--! Font Awesome Pro 7.1.0 by @fontawesome - https://fontawesome.com License - https://fontawesome.com/license (Commercial License) Copyright 2025 Fonticons, Inc. --><path fill="currentColor" d="M523.2 104.3C529.5 105.6 534.5 110.5 535.8 116.9C544.7 161.2 550 228.1 516.8 292.4C497.5 329.8 465.7 365.2 416.1 394.5L416.1 484.9C416.1 501.8 407.3 517.4 392.8 526.1L304.6 579C283.3 591.8 256.1 576.4 256.1 551.6L256 448C256 412.7 227.3 384 192 384L88.5 384C63.6 384 48.3 356.9 61.1 335.5L114 247.3C122.7 232.8 138.3 224 155.2 224L245.6 224C274.9 174.4 310.3 142.6 347.7 123.3C412 90.1 478.9 95.5 523.2 104.3zM288 444.6C288 445.7 288.1 446.8 288.1 448L288.1 551.5L376.3 498.6C381.1 495.7 384.1 490.5 384.1 484.9L384.1 411.4C356.7 424.3 324.8 435.5 288 444.7zM488.4 277.6C514.4 227.2 513.1 174 506.4 133.7C466.1 126.9 412.9 125.7 362.5 151.7C310.1 178.8 257.5 237.1 226.9 358.5C252 368.2 271.9 388.2 281.7 413.3C403.1 382.7 461.4 330.1 488.5 277.7zM228.7 256L155.2 256C149.6 256 144.4 258.9 141.5 263.8L88.5 352L192 352C193.1 352 194.3 352 195.4 352.1C204.6 315.3 215.9 283.5 228.7 256zM376 240C376 253.3 386.7 264 400 264C413.3 264 424 253.3 424 240C424 226.7 413.3 216 400 216C386.7 216 376 226.7 376 240zM400 296C369.1 296 344 270.9 344 240C344 209.1 369.1 184 400 184C430.9 184 456 209.1 456 240C456 270.9 430.9 296 400 296z"/></svg>