<svg xmlns="http://www.w3.org/2000/svg" viewBox="0 0 640 640"><!--! Font Awesome Pro 7.1.0 by @fontawesome - https://fontawesome.com License - https://fontawesome.com/license (Commercial License) Copyright 2025 Fonticons, Inc. --><path fill="currentColor" d="M64 272C64 210.1 114.2 160 176 160L176 528C176 536.8 183.2 544 192 544C200.8 544 208 536.8 208 528L208 163.4C237.6 170.9 263.4 190.2 278.6 217.6L304 263.3L304 528C304 536.8 311.2 544 320 544C328.8 544 336 536.8 336 528L336 320.9L370.4 382.7C384.4 407.9 406.3 427.2 432 438L432 527.9C432 536.7 439.2 543.9 448 543.9C456.8 543.9 464 536.7 464 527.9L464 446.7C469.7 447.5 475.4 447.9 481.2 447.9C519 447.9 552.8 431.1 576 404.6L576 528C576 536.8 583.2 544 592 544C600.8 544 608 536.8 608 528L608 317.6C608 248.2 551.8 192 482.4 192C451.1 192 421 203.6 397.9 224.7L385.3 236.2L406.8 259.9L419.4 248.4C432 236.9 447.5 229.2 464 225.9L464 364.8C469.4 366.9 475.2 368.1 481.2 368.1C486.4 368.1 491.4 367.3 496 365.7L496 225C541.3 231.6 576 270.6 576 317.6C576 370 535 416 481.2 416C446.8 416 415 397.3 398.3 367.2L306.6 202.1C281.2 156.4 233 128 180.7 128L176 128C96.5 128 32 192.5 32 272L32 528C32 536.8 39.2 544 48 544C56.8 544 64 536.8 64 528L64 272z"/></svg>