<svg xmlns="http://www.w3.org/2000/svg" viewBox="0 0 640 640"><!--! Font Awesome Pro 7.1.0 by @fontawesome - https://fontawesome.com License - https://fontawesome.com/license (Commercial License) Copyright 2025 Fonticons, Inc. --><path fill="currentColor" d="M96 107.3L196.8 208L96 208L96 107.3zM64 216C64 229.3 74.7 240 88 240L216.1 240C225.8 240 234.6 234.2 238.3 225.2C242 216.2 240 205.9 233.1 199L179.6 145.6C267.6 74.6 396.8 79.9 478.5 161.7C518.4 201.6 540.1 252.9 543.6 305.2C544.2 314 551.8 320.7 560.6 320.1C569.4 319.5 576.1 311.9 575.5 303.1C571.5 243.4 546.7 184.8 501.1 139.1C406.8 44.8 257.4 39.5 156.8 122.9L105 71C98.1 64.2 87.8 62.1 78.8 65.8C69.8 69.5 64 78.3 64 88L64 216zM96.6 334.9C96 326.1 88.4 319.4 79.6 320C70.8 320.6 64.1 328.2 64.7 337.1C68.7 396.8 93.5 455.4 139.1 501.1C233.4 595.4 382.8 600.7 483.4 517.3L535.2 569C542.1 575.9 552.4 577.9 561.4 574.2C570.4 570.5 576.2 561.7 576.2 552L576.2 424C576.2 410.7 565.5 400 552.2 400L424.1 400C414.4 400 405.6 405.8 401.9 414.8C398.2 423.8 400.2 434.1 407.1 441L460.6 494.5C372.6 565.5 243.4 560.2 161.7 478.4C121.8 438.5 100.1 387.2 96.6 335zM544.2 432L544.2 532.7L443.4 432L544.2 432z"/></svg>