<svg xmlns="http://www.w3.org/2000/svg" viewBox="0 0 640 640"><!--! Font Awesome Pro 7.1.0 by @fontawesome - https://fontawesome.com License - https://fontawesome.com/license (Commercial License) Copyright 2025 Fonticons, Inc. --><path fill="currentColor" d="M560.5 320C569.3 320.6 576 328.2 575.4 337C571.4 396.7 546.6 455.3 501 501C451 551 385.5 576 320 576C249.2 576 181.6 546.8 133 495.4L96 456.2L96 560C96 568.8 88.8 576 80 576C71.2 576 64 568.8 64 560L64 416C64 407.2 71.2 400 80 400L208 400C216.8 400 224 407.2 224 416C224 424.8 216.8 432 208 432L117.1 432L156.2 473.4C198.8 518.5 258 544 320 544C377.4 544 434.7 522.1 478.4 478.4C518.3 438.5 540 387.2 543.5 334.9C544.1 326.1 551.7 319.4 560.5 320zM320 448C306.7 448 296 437.3 296 424C296 410.7 306.7 400 320 400C333.3 400 344 410.7 344 424C344 437.3 333.3 448 320 448zM320 192C333.5 192 344.3 203.4 343.5 216.9L335.9 352.9C335.4 361.4 328.4 368 319.9 368C311.4 368 304.4 361.4 303.9 352.9L296.3 216.9C295.5 203.4 306.3 192 319.8 192zM560 64C568.8 64 576 71.2 576 80L576 224C576 232.8 568.8 240 560 240L432 240C423.2 240 416 232.8 416 224C416 215.2 423.2 208 432 208L522.9 208L483.8 166.6C441.2 121.5 382 96 320 96C262.6 96 205.3 117.9 161.6 161.6C121.6 201.5 100 252.8 96.5 305.1C95.9 313.9 88.3 320.6 79.5 320C70.7 319.4 64 311.8 64.6 302.9C68.5 243.2 93.3 184.6 139 139C189 89 254.5 64 320 64C390.8 64 458.4 93.2 507 144.6L544 183.7L544 79.9C544 71.1 551.2 63.9 560 63.9z"/></svg>