<svg xmlns="http://www.w3.org/2000/svg" viewBox="0 0 640 640"><!--! Font Awesome Pro 7.1.0 by @fontawesome - https://fontawesome.com License - https://fontawesome.com/license (Commercial License) Copyright 2025 Fonticons, Inc. --><path fill="currentColor" d="M544.2 107.3L443.4 208L544.2 208L544.2 107.3zM576.2 216C576.2 229.3 565.5 240 552.2 240L424.1 240C414.4 240 405.6 234.2 401.9 225.2C398.2 216.2 400.2 205.9 407.1 199L460.6 145.5C372.6 74.5 243.4 79.8 161.7 161.6C121.8 201.5 100.1 252.8 96.6 305.1C96 313.9 88.4 320.6 79.6 320C70.8 319.4 64.1 311.8 64.7 302.9C68.7 243.2 93.5 184.6 139.1 138.9C233.4 44.6 382.8 39.3 483.4 122.7L535.2 71C542.1 64.1 552.4 62.1 561.4 65.8C570.4 69.5 576.2 78.3 576.2 88L576.2 216zM543.6 334.9C544.2 326.1 551.8 319.4 560.6 320C569.4 320.6 576.1 328.2 575.5 337C571.5 396.7 546.7 455.3 501.1 501C406.8 595.3 257.4 600.6 156.8 517.2L105 569C98.1 575.9 87.8 577.9 78.8 574.2C69.8 570.5 64 561.7 64 552L64 424C64 410.7 74.7 400 88 400L216.1 400C225.8 400 234.6 405.8 238.3 414.8C242 423.8 240 434.1 233.1 441L179.6 494.5C267.6 565.5 396.8 560.2 478.5 478.4C518.4 438.5 540.1 387.2 543.6 335zM96 432L96 532.7L196.8 432L96 432z"/></svg>