<svg xmlns="http://www.w3.org/2000/svg" viewBox="0 0 640 640"><!--! Font Awesome Pro 7.1.0 by @fontawesome - https://fontawesome.com License - https://fontawesome.com/license (Commercial License) Copyright 2025 Fonticons, Inc. --><path fill="currentColor" d="M96 107.3L96 208L196.7 208L96 107.3zM88 240C74.7 240 64 229.3 64 216L64 88C64 78.3 69.9 69.5 78.8 65.8C87.7 62.1 98.1 64.2 105 71L156.8 122.8C257.4 39.3 406.8 44.7 501.1 139C546.7 184.6 571.6 243.3 575.5 303C579.5 361.8 563.2 422.3 525.2 473.2C440.6 586.5 280.2 609.7 166.9 525.1C135.4 501.6 110.8 472.1 93.6 439.4C89.5 431.6 92.5 421.9 100.3 417.8C108.1 413.7 117.8 416.7 121.9 424.5C136.9 453.1 158.4 478.8 186 499.4C285.1 573.4 425.5 553.1 499.5 453.9C532.8 409.3 547 356.4 543.5 304.9L543.5 304.9C540 252.6 518.3 201.4 478.4 161.4C396.7 79.7 267.4 74.3 179.5 145.3L233 199C239.9 205.9 241.9 216.2 238.2 225.2C234.5 234.2 225.7 240 216 240L88 240z"/></svg>