<svg xmlns="http://www.w3.org/2000/svg" viewBox="0 0 640 640"><!--! Font Awesome Pro 7.1.0 by @fontawesome - https://fontawesome.com License - https://fontawesome.com/license (Commercial License) Copyright 2025 Fonticons, Inc. --><path fill="currentColor" d="M544 107.3L544 208L443.3 208L544 107.3zM552 240C565.3 240 576 229.3 576 216L576 88C576 78.3 570.2 69.5 561.2 65.8C552.2 62.1 541.9 64.2 535 71L483.3 122.8C382.7 39.3 233.3 44.7 139 139C93.4 184.6 68.5 243.3 64.6 303C60.6 361.8 76.9 422.3 114.9 473.2C199.5 586.5 359.9 609.7 473.2 525.1C504.7 501.6 529.3 472.1 546.5 439.4C550.6 431.6 547.6 421.9 539.8 417.8C532 413.7 522.3 416.7 518.2 424.5C503.2 453.1 481.7 478.8 454.1 499.4C355 573.4 214.6 553.1 140.6 453.9C107.3 409.3 93.1 356.4 96.6 304.9L96.6 304.9C100 252.8 121.7 201.6 161.6 161.6C243.4 79.9 372.6 74.5 460.5 145.5L407 199C400.1 205.9 398.1 216.2 401.8 225.2C405.5 234.2 414.3 240 424 240L552 240z"/></svg>