<svg xmlns="http://www.w3.org/2000/svg" viewBox="0 0 640 640"><!--! Font Awesome Pro 7.1.0 by @fontawesome - https://fontawesome.com License - https://fontawesome.com/license (Commercial License) Copyright 2025 Fonticons, Inc. --><path fill="currentColor" d="M208 96C199.2 96 192 103.2 192 112L192 352L144 352C135.2 352 128 359.2 128 368C128 376.8 135.2 384 144 384L192 384L192 448L144 448C135.2 448 128 455.2 128 464C128 472.8 135.2 480 144 480L192 480L192 528C192 536.8 199.2 544 208 544C216.8 544 224 536.8 224 528L224 480L384 480C392.8 480 400 472.8 400 464C400 455.2 392.8 448 384 448L224 448L224 384L336 384C415.5 384 480 319.5 480 240C480 160.5 415.5 96 336 96L208 96zM336 352L224 352L224 128L336 128C397.9 128 448 178.1 448 240C448 301.9 397.9 352 336 352z"/></svg>