<svg xmlns="http://www.w3.org/2000/svg" viewBox="0 0 640 640"><!--! Font Awesome Pro 7.1.0 by @fontawesome - https://fontawesome.com License - https://fontawesome.com/license (Commercial License) Copyright 2025 Fonticons, Inc. --><path fill="currentColor" d="M219 156.2C263.6 118.6 321.1 96 384 96C446.9 96 504.4 118.6 549 156.2C555.8 161.9 565.8 161 571.5 154.3C577.2 147.6 576.3 137.5 569.6 131.8C519.5 89.5 454.7 64 384 64C313.3 64 248.5 89.5 198.4 131.8C191.6 137.5 190.8 147.6 196.5 154.3C202.2 161 212.3 161.9 219 156.2zM282.2 228.5C309.9 205.7 345.3 192 384 192C422.7 192 458.1 205.7 485.8 228.6C492.6 234.2 502.7 233.3 508.3 226.5C513.9 219.7 513 209.6 506.2 204C473 176.5 430.4 160 384 160C337.6 160 295 176.5 261.8 203.9C255 209.5 254 219.6 259.7 226.4C265.4 233.2 275.4 234.2 282.2 228.5zM384 384L512 384C529.7 384 544 398.3 544 416L544 480C544 497.7 529.7 512 512 512L128 512C110.3 512 96 497.7 96 480L96 416C96 398.3 110.3 384 128 384L384 384zM368 352L128 352C92.7 352 64 380.7 64 416L64 480C64 515.3 92.7 544 128 544L512 544C547.3 544 576 515.3 576 480L576 416C576 380.7 547.3 352 512 352L400 352L400 304C400 295.2 392.8 288 384 288C375.2 288 368 295.2 368 304L368 352zM168 424C154.7 424 144 434.7 144 448C144 461.3 154.7 472 168 472C181.3 472 192 461.3 192 448C192 434.7 181.3 424 168 424zM240 448C240 461.3 250.7 472 264 472C277.3 472 288 461.3 288 448C288 434.7 277.3 424 264 424C250.7 424 240 434.7 240 448z"/></svg>