<svg xmlns="http://www.w3.org/2000/svg" viewBox="0 0 640 640"><!--! Font Awesome Pro 7.1.0 by @fontawesome - https://fontawesome.com License - https://fontawesome.com/license (Commercial License) Copyright 2025 Fonticons, Inc. --><path fill="currentColor" d="M328.2 66.3C323.1 63.3 316.8 63.3 311.7 66.3L290.6 79C258.7 98.2 219.1 99.7 185.8 83C168.1 74.1 146.6 79.2 134.7 95.1L110.5 127.3C99.8 141.5 98.6 160.8 107.5 176.3C121 199.9 128 226.5 128 253.7L128 267C128 289.4 123.7 311.6 115.4 332.4L104 360.9C98.7 374.1 96 388.3 96 402.5C96 446.2 121.4 486 161.1 504.3L313.3 574.5C317.6 576.5 322.5 576.5 326.7 574.5L478.9 504.3C518.6 486 544 446.2 544 402.5C544 388.2 541.3 374.1 536 360.9L524.6 332.4C516.3 311.6 512 289.4 512 267L512 253.6C512 226.5 519.1 199.8 532.6 176.2C541.4 160.7 540.2 141.5 529.6 127.2L505.3 95.1C493.4 79.3 471.9 74.2 454.2 83C420.9 99.7 381.4 98.1 349.4 79L328.2 66.3zM307 106.4L320 98.6L333 106.4C374.3 131.2 425.4 133.2 468.5 111.6C472.4 109.7 477.1 110.8 479.7 114.2L503.9 146.5C506.9 150.5 507.3 156 504.8 160.4C493.5 180.1 486 201.7 482.4 224L157.6 224C154 201.7 146.5 180.2 135.2 160.4C132.7 156 133 150.6 136.1 146.5L160.3 114.3C162.9 110.8 167.6 109.7 171.5 111.7C214.6 133.3 265.7 131.3 307 106.5zM160 256L480 256L480 267C480 293.5 485 319.7 494.9 344.2L506.3 372.7C510.1 382.2 512 392.3 512 402.5C512 433.7 493.8 462.1 465.5 475.2L320 542.4L174.5 475.2C146.1 462.1 128 433.7 128 402.5C128 392.3 129.9 382.2 133.7 372.7L145.1 344.2C155 319.7 160 293.5 160 267L160 256z"/></svg>