<svg xmlns="http://www.w3.org/2000/svg" viewBox="0 0 640 640"><!--! Font Awesome Pro 7.1.0 by @fontawesome - https://fontawesome.com License - https://fontawesome.com/license (Commercial License) Copyright 2025 Fonticons, Inc. --><path fill="currentColor" d="M118 127.9C177.3 149.7 259.9 139.8 320.3 99.6C380.7 139.8 463.3 149.7 522.6 127.9C525.9 162.4 527.7 194.3 527.7 224L112.5 224C112.7 194.2 114.7 162.2 118 127.9zM113 256L527 256C524.7 300.8 517.1 340.2 502.2 375.4C474.4 441.4 420 495.2 319.9 542.5C218.4 499.2 164.1 445.6 136.8 378.8C122 342.7 114.8 302.1 112.9 256zM334.4 70.4C326 64.5 314.7 64.5 306.3 70.4C250.6 109.5 171.5 117 121.8 94.9C107.6 88.6 89 97 87.2 114.6C76.3 222.8 76.1 314.5 107.4 390.9C139.1 468.3 201.9 527.6 310.9 573.4C317.1 576 324.3 575.9 330.4 573C437.1 523.2 499.7 464 531.8 387.8C563.6 312.4 564.5 222.8 553.6 114.6C551.8 97 533.2 88.5 519 94.9C469.3 117 390.2 109.5 334.5 70.4z"/></svg>