<svg xmlns="http://www.w3.org/2000/svg" viewBox="0 0 640 640"><!--! Font Awesome Pro 7.1.0 by @fontawesome - https://fontawesome.com License - https://fontawesome.com/license (Commercial License) Copyright 2025 Fonticons, Inc. --><path fill="currentColor" d="M48 128C39.2 128 32 135.2 32 144C32 152.8 39.2 160 48 160L64 160L64 224L48 224C39.2 224 32 231.2 32 240C32 248.8 39.2 256 48 256L64 256L64 304L48 304C39.2 304 32 311.2 32 320C32 328.8 39.2 336 48 336L64 336L64 384L48 384C39.2 384 32 391.2 32 400C32 408.8 39.2 416 48 416L64 416L64 480L48 480C39.2 480 32 487.2 32 496C32 504.8 39.2 512 48 512L592 512C600.8 512 608 504.8 608 496C608 487.2 600.8 480 592 480L576 480L576 416L592 416C600.8 416 608 408.8 608 400C608 391.2 600.8 384 592 384L576 384L576 336L592 336C600.8 336 608 328.8 608 320C608 311.2 600.8 304 592 304L576 304L576 256L592 256C600.8 256 608 248.8 608 240C608 231.2 600.8 224 592 224L576 224L576 160L592 160C600.8 160 608 152.8 608 144C608 135.2 600.8 128 592 128L48 128zM96 160L160 160L160 480L96 480L96 160zM480 160L544 160L544 480L480 480L480 160zM448 160L448 480L192 480L192 160L448 160z"/></svg>