<svg xmlns="http://www.w3.org/2000/svg" viewBox="0 0 640 640"><!--! Font Awesome Pro 7.1.0 by @fontawesome - https://fontawesome.com License - https://fontawesome.com/license (Commercial License) Copyright 2025 Fonticons, Inc. --><path fill="currentColor" d="M183.3 183.8C279.5 87.6 459.7 45.8 526.4 112.5C593.1 179.3 555.2 363.3 459 459.5C362.8 555.7 179.5 592.9 112.8 526.2C46 459.4 87.1 280 183.3 183.8zM527.6 201.8C521.9 216 514.4 231.1 505.7 246.3C478.8 293.9 437.8 348.9 393.1 393.6C348.4 438.3 293.5 479.3 246 506C231 514.5 216.1 521.8 202.2 527.5C222.2 528.8 244.9 527.3 268.7 522.6C329.7 510.6 393.5 479.9 436.4 437L444.3 428.7C483.1 386.1 511 326.2 522.4 268.8C527.2 244.8 528.8 222 527.5 201.9zM502.8 135.8C479.8 112.8 369.4 175.5 285.4 253.7L269 269.5C183.7 354.8 111.3 478.1 135.9 502.7C158.9 525.7 270 464.8 354.1 386.8L370.5 371C453.2 288.3 522.9 168.1 504.9 138.3L502.9 135.7zM435.4 112.1C417 111.4 395.9 113.4 372.7 118.4C316.2 130.6 257.1 159.4 214.3 198.5L206 206.5C162.8 249.7 131.1 312.8 118.3 372.8C113.4 395.8 111.5 416.8 112.2 435.1C117.9 421.6 125.2 407.4 133.5 393.1C160.6 346.1 201.8 291.7 246.4 247C291 202.3 345.5 161 392.6 133.8C407.2 125.3 421.7 117.9 435.3 112.1z"/></svg>