<svg xmlns="http://www.w3.org/2000/svg" viewBox="0 0 640 640"><!--! Font Awesome Pro 7.1.0 by @fontawesome - https://fontawesome.com License - https://fontawesome.com/license (Commercial License) Copyright 2025 Fonticons, Inc. --><path fill="currentColor" d="M560 416L80 416C71.2 416 64 408.8 64 400L64 240C64 231.2 71.2 224 80 224L128 224L128 304C128 312.8 135.2 320 144 320C152.8 320 160 312.8 160 304L160 224L216 224L216 272C216 280.8 223.2 288 232 288C240.8 288 248 280.8 248 272L248 224L304 224L304 304C304 312.8 311.2 320 320 320C328.8 320 336 312.8 336 304L336 224L392 224L392 272C392 280.8 399.2 288 408 288C416.8 288 424 280.8 424 272L424 224L480 224L480 304C480 312.8 487.2 320 496 320C504.8 320 512 312.8 512 304L512 224L560 224C568.8 224 576 231.2 576 240L576 400C576 408.8 568.8 416 560 416zM144 192L80 192C53.5 192 32 213.5 32 240L32 400C32 426.5 53.5 448 80 448L560 448C586.5 448 608 426.5 608 400L608 240C608 213.5 586.5 192 560 192L144 192z"/></svg>