<svg xmlns="http://www.w3.org/2000/svg" viewBox="0 0 640 640"><!--! Font Awesome Pro 7.1.0 by @fontawesome - https://fontawesome.com License - https://fontawesome.com/license (Commercial License) Copyright 2025 Fonticons, Inc. --><path fill="currentColor" d="M144 128L240 128C248.8 128 256 135.2 256 144L256 192L208 192C199.2 192 192 199.2 192 208C192 216.8 199.2 224 208 224L256 224L256 272L208 272C199.2 272 192 279.2 192 288C192 296.8 199.2 304 208 304L256 304L256 352L208 352C199.2 352 192 359.2 192 368C192 376.8 199.2 384 208 384L256 384L256 432C256 440.8 263.2 448 272 448C280.8 448 288 440.8 288 432L288 384L336 384L336 432C336 440.8 343.2 448 352 448C360.8 448 368 440.8 368 432L368 384L416 384L416 432C416 440.8 423.2 448 432 448C440.8 448 448 440.8 448 432L448 384L496 384C504.8 384 512 391.2 512 400L512 496C512 504.8 504.8 512 496 512L144 512C135.2 512 128 504.8 128 496L128 144C128 135.2 135.2 128 144 128zM288 208L288 144C288 117.5 266.5 96 240 96L144 96C117.5 96 96 117.5 96 144L96 496C96 522.5 117.5 544 144 544L496 544C522.5 544 544 522.5 544 496L544 400C544 373.5 522.5 352 496 352L288 352L288 208z"/></svg>