<svg xmlns="http://www.w3.org/2000/svg" viewBox="0 0 640 640"><!--! Font Awesome Pro 7.1.0 by @fontawesome - https://fontawesome.com License - https://fontawesome.com/license (Commercial License) Copyright 2025 Fonticons, Inc. --><path fill="currentColor" d="M544 512L128 512L128 96L196.7 164.7L180.7 180.7C174.5 186.9 174.5 197.1 180.7 203.3C186.9 209.5 197.1 209.5 203.3 203.3L219.3 187.3L260.7 228.7L244.7 244.7C238.5 250.9 238.5 261.1 244.7 267.3C250.9 273.5 261.1 273.5 267.3 267.3L283.3 251.3L324.7 292.7L308.7 308.7C302.5 314.9 302.5 325.1 308.7 331.3C314.9 337.5 325.1 337.5 331.3 331.3L347.3 315.3L388.7 356.7L372.7 372.7C366.5 378.9 366.5 389.1 372.7 395.3C378.9 401.5 389.1 401.5 395.3 395.3L411.3 379.3L452.7 420.7L436.7 436.7C430.5 442.9 430.5 453.1 436.7 459.3C442.9 465.5 453.1 465.5 459.3 459.3L475.3 443.3L544 512zM150.6 73.4C141.5 64.2 127.7 61.5 115.8 66.4C103.9 71.3 96 83.1 96 96L96 512C96 529.7 110.3 544 128 544L544 544C556.9 544 568.6 536.2 573.6 524.2C578.6 512.2 575.8 498.5 566.7 489.3L150.6 73.4zM219.3 285.9C214.7 281.3 207.8 280 201.9 282.4C196 284.8 192 290.7 192 297.2L192 432C192 440.8 199.2 448 208 448L342.9 448C349.4 448 355.2 444.1 357.7 438.1C360.2 432.1 358.8 425.2 354.2 420.7L219.3 285.8zM224 416L224 335.8L304.2 416L224 416z"/></svg>