<svg xmlns="http://www.w3.org/2000/svg" viewBox="0 0 640 640"><!--! Font Awesome Pro 7.1.0 by @fontawesome - https://fontawesome.com License - https://fontawesome.com/license (Commercial License) Copyright 2025 Fonticons, Inc. --><path fill="currentColor" d="M557.9 218.2L218.5 557.6C212.3 563.8 202.1 563.8 195.9 557.6L82.7 444.5C76.5 438.3 76.5 428.1 82.7 421.9L116.6 388L173.2 444.6C179.4 450.8 189.6 450.8 195.8 444.6C202 438.4 202 428.2 195.8 422L139.2 365.4L178.8 325.8L212.7 359.7C218.9 365.9 229.1 365.9 235.3 359.7C241.5 353.5 241.5 343.3 235.3 337.1L201.4 303.2L241 263.6L297.6 320.2C303.8 326.4 314 326.4 320.2 320.2C326.4 314 326.4 303.8 320.2 297.6L263.6 241L303.2 201.4L337.1 235.3C343.3 241.5 353.5 241.5 359.7 235.3C365.9 229.1 365.9 218.9 359.7 212.7L325.8 178.8L365.4 139.2L422 195.8C428.2 202 438.4 202 444.6 195.8C450.8 189.6 450.8 179.4 444.6 173.2L388 116.6L421.9 82.7C428.1 76.5 438.3 76.5 444.5 82.7L557.9 195.5C564.1 201.7 564.1 211.9 557.9 218.1zM105.3 353.9L60.1 399.2C41.4 417.9 41.4 448.3 60.1 467.1L173.2 580.2C191.9 598.9 222.3 598.9 241.1 580.2L580.5 240.8C599.2 222.1 599.2 191.7 580.5 172.9L467.4 59.8C448.6 41 418.2 41 399.5 59.8C109.1 350.2 172.3 287 105.3 353.9z"/></svg>