<svg xmlns="http://www.w3.org/2000/svg" viewBox="0 0 640 640"><!--! Font Awesome Pro 7.1.0 by @fontawesome - https://fontawesome.com License - https://fontawesome.com/license (Commercial License) Copyright 2025 Fonticons, Inc. --><path fill="currentColor" d="M224 560L224 80C224 71.2 231.2 64 240 64L400 64C408.8 64 416 71.2 416 80L416 128L336 128C327.2 128 320 135.2 320 144C320 152.8 327.2 160 336 160L416 160L416 216L368 216C359.2 216 352 223.2 352 232C352 240.8 359.2 248 368 248L416 248L416 304L336 304C327.2 304 320 311.2 320 320C320 328.8 327.2 336 336 336L416 336L416 392L368 392C359.2 392 352 399.2 352 408C352 416.8 359.2 424 368 424L416 424L416 480L336 480C327.2 480 320 487.2 320 496C320 504.8 327.2 512 336 512L416 512L416 560C416 568.8 408.8 576 400 576L240 576C231.2 576 224 568.8 224 560zM448 144L448 80C448 53.5 426.5 32 400 32L240 32C213.5 32 192 53.5 192 80L192 560C192 586.5 213.5 608 240 608L400 608C426.5 608 448 586.5 448 560L448 144z"/></svg>