<svg xmlns="http://www.w3.org/2000/svg" viewBox="0 0 640 640"><!--! Font Awesome Pro 7.1.0 by @fontawesome - https://fontawesome.com License - https://fontawesome.com/license (Commercial License) Copyright 2025 Fonticons, Inc. --><path fill="currentColor" d="M376 88C376 74.7 365.3 64 352 64C338.7 64 328 74.7 328 88C328 101.3 338.7 112 352 112C365.3 112 376 101.3 376 88zM296 88C296 57.1 321.1 32 352 32C382.9 32 408 57.1 408 88C408 118.9 382.9 144 352 144C321.1 144 296 118.9 296 88zM218.4 208C208.8 208 200.1 213.7 196.3 222.5L158.7 310.3C155.2 318.4 145.8 322.2 137.7 318.7C129.6 315.2 125.8 305.8 129.3 297.7L166.9 209.9C175.7 189.4 196 176 218.4 176L312.5 176C342.8 176 370.5 193.1 384.1 220.2L413.6 279.1C416.3 284.5 421.8 287.9 427.9 287.9L496.1 287.9C504.9 287.9 512.1 295.1 512.1 303.9C512.1 312.7 504.9 319.9 496.1 319.9L427.9 319.9C409.7 319.9 393.1 309.6 385 293.4L375.8 274.9L337.3 391.2L403.5 411.4C421.9 417 431.2 437.4 423.4 455L366.6 582.5C363 590.6 353.6 594.2 345.5 590.6C337.4 587 333.8 577.6 337.4 569.5L394 442L265.6 403C236 394 219.3 362.7 228.3 333.1L266.4 208L218.4 208zM299.9 208L259 342.4C255.1 355.1 262.3 368.5 275 372.3L306.6 381.9L355.5 234.4C347.4 218.2 330.8 208 312.6 208L300 208zM216.7 430.4C225 437.1 234.5 442.6 244.9 446.5L236.4 470.3C232 482.6 224.7 493.6 215.1 502.4L122.8 587C116.3 593 106.2 592.5 100.2 586C94.2 579.5 94.7 569.4 101.2 563.4L193.5 479C199.3 473.7 203.7 467.1 206.3 459.7L216.7 430.5z"/></svg>