<svg xmlns="http://www.w3.org/2000/svg" viewBox="0 0 640 640"><!--! Font Awesome Pro 7.1.0 by @fontawesome - https://fontawesome.com License - https://fontawesome.com/license (Commercial License) Copyright 2025 Fonticons, Inc. --><path fill="currentColor" d="M96 112C96 103.2 103.2 96 112 96L208 96C287.5 96 352 160.5 352 240C352 300.9 314.1 353 260.7 374.1L303.4 523.6C305.8 532.1 300.9 541 292.4 543.4C283.9 545.8 275 540.9 272.6 532.4L229.7 382.4C222.6 383.5 215.3 384 207.9 384L127.9 384L127.9 528C127.9 536.8 120.7 544 111.9 544C103.1 544 96 536.8 96 528L96 112zM128 352L208 352C269.9 352 320 301.9 320 240C320 178.1 269.9 128 208 128L128 128L128 352zM433.4 288L488 288C496.8 288 504 295.2 504 304C504 312.8 496.8 320 488 320L433.4 320C414.9 320 400 335 400 353.4C400 368.1 409.6 381.1 423.7 385.4L494.5 407C523.9 416 544 443.2 544 474C544 512.7 512.7 544 474 544L400 544C391.2 544 384 536.8 384 528C384 519.2 391.2 512 400 512L474 512C495 512 512 495 512 474C512 457.3 501.1 442.5 485.1 437.6L414.3 416C386.8 407.6 368 382.2 368 353.4C368 317.3 397.3 288 433.4 288z"/></svg>