<svg xmlns="http://www.w3.org/2000/svg" viewBox="0 0 640 640"><!--! Font Awesome Pro 7.1.0 by @fontawesome - https://fontawesome.com License - https://fontawesome.com/license (Commercial License) Copyright 2025 Fonticons, Inc. --><path fill="currentColor" d="M64 112C64 103.2 71.2 96 80 96L176 96C255.5 96 320 160.5 320 240C320 300.9 282.1 353 228.7 374.1L271.4 523.6C273.8 532.1 268.9 541 260.4 543.4C251.9 545.8 243 540.9 240.6 532.4L197.7 382.4C190.6 383.5 183.3 384 175.9 384L95.9 384L95.9 528C95.9 536.8 88.7 544 79.9 544C71.1 544 64 536.8 64 528L64 112zM96 352L176 352C237.9 352 288 301.9 288 240C288 178.1 237.9 128 176 128L96 128L96 352zM384 336L384 480L464 480C508.2 480 544 444.2 544 400C544 355.8 508.2 320 464 320L400 320C391.2 320 384 327.2 384 336zM400 288L464 288C525.9 288 576 338.1 576 400C576 461.9 525.9 512 464 512L384 512L384 592C384 600.8 376.8 608 368 608C359.2 608 352 600.8 352 592L352 336C352 309.5 373.5 288 400 288z"/></svg>