<svg xmlns="http://www.w3.org/2000/svg" viewBox="0 0 640 640"><!--! Font Awesome Pro 7.1.0 by @fontawesome - https://fontawesome.com License - https://fontawesome.com/license (Commercial License) Copyright 2025 Fonticons, Inc. --><path fill="currentColor" d="M256 104L256 112C256 120.8 248.8 128 240 128L144 128C99.8 128 64 163.8 64 208L64 377.5C64 388.4 67.7 399 74.5 407.5L111.6 453.9C127.5 431 154 416 184 416C224.3 416 258.2 443.1 268.7 480L384 480L384 208C384 199.2 391.2 192 400 192L576 192C576 156.7 547.3 128 512 128L400 128C391.2 128 384 120.8 384 112L384 104C384 99.6 380.4 96 376 96L264 96C259.6 96 256 99.6 256 104zM472 592C426.1 592 388.4 556.9 384.4 512L271.7 512C267.7 556.9 230 592 184.1 592C135.5 592 96.1 552.6 96.1 504C96.1 498.4 96.6 492.9 97.6 487.5L49.6 427.5C38.2 413.3 32 395.7 32 377.5L32 208C32 146.1 82.1 96 144 96L224.8 96C228.5 77.7 244.6 64 264 64L376 64C395.4 64 411.5 77.7 415.2 96L512 96C565 96 608 139 608 192L608 208C608 216.8 600.8 224 592 224L416 224L416 256L510.9 256C526.9 256 541.9 264 550.8 277.4L599.9 351.1C605.2 359 608 368.2 608 377.7L608 464C608 490.5 586.5 512 560 512L559.6 512C555.6 556.9 517.9 592 472 592zM556.7 480L560 480C568.8 480 576 472.8 576 464L576 384L416 384L416 436.1C431.2 423.5 450.7 416 472 416C512.3 416 546.2 443.1 556.7 480zM416 352L562.1 352L524.2 295.1C521.2 290.6 516.2 288 510.9 288L416 288L416 352zM184 560C214.9 560 240 534.9 240 504C240 473.1 214.9 448 184 448C153.1 448 128 473.1 128 504C128 534.9 153.1 560 184 560zM472 560C502.9 560 528 534.9 528 504C528 473.1 502.9 448 472 448C441.1 448 416 473.1 416 504C416 534.9 441.1 560 472 560zM168 192L280 192C302.1 192 320 209.9 320 232L320 280C320 302.1 302.1 320 280 320L168 320C145.9 320 128 302.1 128 280L128 232C128 209.9 145.9 192 168 192zM160 232L160 280C160 284.4 163.6 288 168 288L280 288C284.4 288 288 284.4 288 280L288 232C288 227.6 284.4 224 280 224L168 224C163.6 224 160 227.6 160 232z"/></svg>