<svg xmlns="http://www.w3.org/2000/svg" viewBox="0 0 640 640"><!--! Font Awesome Pro 7.1.0 by @fontawesome - https://fontawesome.com License - https://fontawesome.com/license (Commercial License) Copyright 2025 Fonticons, Inc. --><path fill="currentColor" d="M160 211.6C160 147.8 211.8 96 275.6 96L448 96C456.8 96 464 103.2 464 112C464 120.8 456.8 128 448 128L275.6 128C229.4 128 192 165.4 192 211.6C192 252.5 221.6 287.4 261.9 294.1L383.4 314.4C439.1 323.7 480 371.9 480 428.4C480 492.2 428.2 544 364.4 544L192 544C183.2 544 176 536.8 176 528C176 519.2 183.2 512 192 512L364.4 512C410.6 512 448 474.6 448 428.4C448 387.5 418.5 352.6 378.1 345.9L256.6 325.7C200.9 316.4 160 268.1 160 211.6z"/></svg>