<svg xmlns="http://www.w3.org/2000/svg" viewBox="0 0 640 640"><!--! Font Awesome Pro 7.1.0 by @fontawesome - https://fontawesome.com License - https://fontawesome.com/license (Commercial License) Copyright 2025 Fonticons, Inc. --><path fill="currentColor" d="M396.5 202.1L443 120.7C446.3 115 448 108.5 448 101.9C448 81 431 64 410.1 64L229.9 64C209 64 192 81 192 101.9C192 108.5 193.7 115 197 120.7L243.5 202.1C159.3 279.4 80 355.6 80 480.8C80 533.4 122.6 576 175.2 576L464.8 576C517.4 576 560 533.4 560 480.8C560 355.6 480.7 279.4 396.5 202.1zM373 224C459 303 528 370.3 528 480.8C528 515.7 499.7 544 464.8 544L175.2 544C140.3 544 112 515.7 112 480.8C112 370.3 181 303 267 224L373 224zM365.4 192L274.5 192L224.7 104.9C224.2 104 223.9 103 223.9 102C223.9 98.7 226.6 96.1 229.8 96.1L409.9 96.1C413.2 96.1 415.8 98.8 415.8 102C415.8 103 415.5 104 415 104.9L365.4 192z"/></svg>