<svg xmlns="http://www.w3.org/2000/svg" viewBox="0 0 640 640"><!--! Font Awesome Pro 7.1.0 by @fontawesome - https://fontawesome.com License - https://fontawesome.com/license (Commercial License) Copyright 2025 Fonticons, Inc. --><path fill="currentColor" d="M443 120.7L396.5 202.1C480.7 279.4 560 355.6 560 480.8C560 533.4 517.4 576 464.8 576L175.2 576C122.6 576 80 533.4 80 480.8C80 355.6 159.3 279.4 243.5 202.1L197 120.7C193.7 115 192 108.5 192 101.9C192 81 209 64 229.9 64L410.1 64C431 64 448 81 448 101.9C448 108.5 446.3 115 443 120.7zM267 224C181 303 112 370.3 112 480.8C112 515.7 140.3 544 175.2 544L464.8 544C499.7 544 528 515.7 528 480.8C528 370.2 459 302.9 373 224L267 224zM415.2 104.9C415.7 104 416 103 416 102C416 98.7 413.3 96.1 410.1 96.1L229.9 96C226.6 96 224 98.7 224 101.9C224 102.9 224.3 103.9 224.8 104.8L274.6 191.9L365.5 191.9L415.3 104.8zM252.7 332.7C258.9 326.5 269.1 326.5 275.3 332.7L320 377.4L364.7 332.7C370.9 326.5 381.1 326.5 387.3 332.7C393.5 338.9 393.5 349.1 387.3 355.3L342.6 400L387.3 444.7C393.5 450.9 393.5 461.1 387.3 467.3C381.1 473.5 370.9 473.5 364.7 467.3L320 422.6L275.3 467.3C269.1 473.5 258.9 473.5 252.7 467.3C246.5 461.1 246.5 450.9 252.7 444.7L297.4 400L252.7 355.3C246.5 349.1 246.5 338.9 252.7 332.7z"/></svg>