<svg xmlns="http://www.w3.org/2000/svg" viewBox="0 0 640 640"><!--! Font Awesome Pro 7.1.0 by @fontawesome - https://fontawesome.com License - https://fontawesome.com/license (Commercial License) Copyright 2025 Fonticons, Inc. --><path fill="currentColor" d="M443 120.7L396.5 202.1C480.7 279.4 560 355.6 560 480.8C560 533.4 517.4 576 464.8 576L175.2 576C122.6 576 80 533.4 80 480.8C80 355.6 159.3 279.4 243.5 202.1L197 120.7C193.7 115 192 108.5 192 101.9C192 81 209 64 229.9 64L410.1 64C431 64 448 81 448 101.9C448 108.5 446.3 115 443 120.7zM267 224C181 303 112 370.3 112 480.8C112 515.7 140.3 544 175.2 544L464.8 544C499.7 544 528 515.7 528 480.8C528 370.2 459 302.9 373 224L267 224zM415.2 104.9C415.7 104 416 103 416 102C416 98.7 413.3 96.1 410.1 96.1L229.9 96C226.6 96 224 98.7 224 101.9C224 102.9 224.3 103.9 224.8 104.8L274.6 191.9L365.5 191.9L415.3 104.8zM320 280C328.8 280 336 287.2 336 296L336 304L352 304C360.8 304 368 311.2 368 320C368 328.8 360.8 336 352 336L302.3 336C294.4 336 288 342.4 288 350.3C288 357.3 293.1 363.3 300 364.4L345.3 372C367.6 375.7 384 395 384 417.7C384 443.3 363.3 464 337.7 464L336 464L336 472C336 480.8 328.8 488 320 488C311.2 488 304 480.8 304 472L304 464L280 464C271.2 464 264 456.8 264 448C264 439.2 271.2 432 280 432L337.7 432C345.6 432 352 425.6 352 417.7C352 410.7 346.9 404.7 340 403.6L294.7 396C272.4 392.3 256 373 256 350.3C256 324.7 276.7 304 302.3 304L304 304L304 296C304 287.2 311.2 280 320 280z"/></svg>