<svg xmlns="http://www.w3.org/2000/svg" viewBox="0 0 640 640"><!--! Font Awesome Pro 7.1.0 by @fontawesome - https://fontawesome.com License - https://fontawesome.com/license (Commercial License) Copyright 2025 Fonticons, Inc. --><path fill="currentColor" d="M448 503.8L448 336C448 327.2 440.8 320 432 320C423.2 320 416 327.2 416 336L416 522.4C386.9 536.2 354.4 544 320 544C285.6 544 253.1 536.3 224 522.4L224 336C224 327.2 216.8 320 208 320C199.2 320 192 327.2 192 336L192 503.8C134 463.4 96 396.1 96 320C96 196.3 196.3 96 320 96C443.7 96 544 196.3 544 320C544 396.1 506 463.4 448 503.8zM320 576C461.4 576 576 461.4 576 320C576 178.6 461.4 64 320 64C178.6 64 64 178.6 64 320C64 461.4 178.6 576 320 576zM216 256L232 256C245.3 256 256 266.7 256 280C256 288.8 263.2 296 272 296C280.8 296 288 288.8 288 280C288 249.1 262.9 224 232 224L216 224C185.1 224 160 249.1 160 280C160 288.8 167.2 296 176 296C184.8 296 192 288.8 192 280C192 266.7 202.7 256 216 256zM384 280C384 266.7 394.7 256 408 256L424 256C437.3 256 448 266.7 448 280C448 288.8 455.2 296 464 296C472.8 296 480 288.8 480 280C480 249.1 454.9 224 424 224L408 224C377.1 224 352 249.1 352 280C352 288.8 359.2 296 368 296C376.8 296 384 288.8 384 280zM352 440C352 457.7 337.7 472 320 472C302.3 472 288 457.7 288 440L288 416C288 398.3 302.3 384 320 384C337.7 384 352 398.3 352 416L352 440zM320 352C284.7 352 256 380.7 256 416L256 440C256 475.3 284.7 504 320 504C355.3 504 384 475.3 384 440L384 416C384 380.7 355.3 352 320 352z"/></svg>