<svg xmlns="http://www.w3.org/2000/svg" viewBox="0 0 640 640"><!--! Font Awesome Pro 7.1.0 by @fontawesome - https://fontawesome.com License - https://fontawesome.com/license (Commercial License) Copyright 2025 Fonticons, Inc. --><path fill="currentColor" d="M483 368L320 131.9L320 368L483 368zM288 400L134.4 400C118.6 400 109.5 381.9 119 369.3L284.2 149.1C286.7 145.8 288 141.7 288 137.6L288 79.7C288 71 295 64 303.7 64L303.8 64L303.9 64C310.5 64 316.2 68 318.6 73.8L523.2 369.9C532 382.6 522.9 400 507.4 400L320 400L320 448L560 448C568.8 448 576 455.2 576 464C576 525.9 525.9 576 464 576L176 576C114.1 576 64 525.9 64 464C64 455.2 71.2 448 80 448L288 448L288 400zM288 368L288 197.3L160 368L288 368zM97.6 480C105 516.5 137.3 544 176 544L464 544C502.7 544 535 516.5 542.4 480L97.6 480z"/></svg>