<svg xmlns="http://www.w3.org/2000/svg" viewBox="0 0 640 640"><!--! Font Awesome Pro 7.1.0 by @fontawesome - https://fontawesome.com License - https://fontawesome.com/license (Commercial License) Copyright 2025 Fonticons, Inc. --><path fill="currentColor" d="M544 160L544 224L96 224L96 160L544 160zM96 128C78.3 128 64 142.3 64 160L64 224C64 241.7 78.3 256 96 256L544 256C561.7 256 576 241.7 576 224L576 160C576 142.3 561.7 128 544 128L96 128zM64 416L64 480C64 497.7 78.3 512 96 512L544 512C561.7 512 576 497.7 576 480L576 416C576 398.3 561.7 384 544 384L456 384C453.8 384 451.5 384.5 449.5 385.4L384 414.5L318.5 385.4C316.5 384.5 314.2 384 312 384L96 384C78.3 384 64 398.3 64 416zM308.6 416L377.5 446.6C381.6 448.4 386.4 448.4 390.5 446.6L459.4 416L544 416L544 480L96 480L96 416L308.6 416zM80 352C90.5 352 100.9 349.4 110.5 346.2C119 343.3 127.7 339.6 136.1 336.1L136.1 336.1L139.3 334.8C158.7 326.6 175.8 320.1 192.1 320.1C212.5 320.1 228.8 326.8 248.7 334.9C268.2 342.9 290.9 352.1 320.1 352.1C349.3 352.1 371.9 342.9 391.5 334.9C411.4 326.8 427.7 320.1 448.1 320.1C464.4 320.1 481.5 326.7 500.9 334.8L504.1 336.1C512.4 339.6 521.2 343.3 529.7 346.2C539.3 349.4 549.7 352 560.2 352C569 352 576.2 344.8 576.2 336C576.2 327.2 569 320 560.2 320C554.7 320 548.1 318.6 539.9 315.8C532.6 313.3 525 310.1 516.5 306.5L513.3 305.2C494.7 297.4 471.8 287.9 448.1 287.9C421.3 287.9 399.9 296.7 381.1 304.4L379.3 305.1C359.7 313.1 342.3 319.9 320 319.9C297.7 319.9 280.3 313.1 260.7 305.1L258.9 304.4C240.1 296.7 218.7 287.9 191.9 287.9C168.2 287.9 145.3 297.3 126.7 305.2L123.5 306.5C115 310.1 107.4 313.3 100.1 315.8C91.9 318.6 85.3 320 79.8 320C71 320 63.8 327.2 63.8 336C63.8 344.8 71 352 79.8 352z"/></svg>