<svg xmlns="http://www.w3.org/2000/svg" viewBox="0 0 640 640"><!--! Font Awesome Pro 7.1.0 by @fontawesome - https://fontawesome.com License - https://fontawesome.com/license (Commercial License) Copyright 2025 Fonticons, Inc. --><path fill="currentColor" d="M280 99.3L347.7 167L263 251.7L195.3 184L280 99.3zM370.3 144.4L297 71C287.6 61.6 272.4 61.6 263.1 71L167.1 167C157.7 176.4 157.7 191.6 167.1 200.9L240.5 274.3L234 280.8C215.7 275 196.3 271.9 176.1 271.9C135.5 271.9 97.8 284.5 66.7 306.1C59 311.5 58.5 322.4 65.2 329.1L176.8 440.7L116.8 500.7C110.6 506.9 110.6 517.1 116.8 523.3C123 529.5 133.2 529.5 139.4 523.3L199.4 463.3L311 574.9C317.6 581.5 328.6 581.1 334 573.4C355.5 542.4 368.2 504.7 368.2 464C368.2 443.8 365.1 424.4 359.3 406.1L365.8 399.6L439.2 473C448.6 482.4 463.8 482.4 473.1 473L569.1 377C578.5 367.6 578.5 352.4 569.1 343.1L495.7 269.7L550.7 214.7C563.2 202.2 563.2 181.9 550.7 169.4L470.7 89.4C458.2 76.9 437.9 76.9 425.4 89.4L370.4 144.4zM473 292.3L540.7 360L456 444.7L388.3 377L473 292.3zM448 112L528 192L345.8 374.2C327.8 340.2 299.8 312.2 265.8 294.2L448 112zM336 464C336 490.4 329.6 515.2 318.4 537.1L102.9 321.6C124.8 310.3 149.6 304 176 304C264.4 304 336 375.6 336 464z"/></svg>