<svg xmlns="http://www.w3.org/2000/svg" viewBox="0 0 640 640"><!--! Font Awesome Pro 7.1.0 by @fontawesome - https://fontawesome.com License - https://fontawesome.com/license (Commercial License) Copyright 2025 Fonticons, Inc. --><path fill="currentColor" d="M288 64C279.2 64 272 71.2 272 80C272 88.8 279.2 96 288 96C429.4 96 544 210.6 544 352C544 360.8 551.2 368 560 368C568.8 368 576 360.8 576 352C576 192.9 447.1 64 288 64zM272 176C272 184.8 279.2 192 288 192C376.4 192 448 263.6 448 352C448 360.8 455.2 368 464 368C472.8 368 480 360.8 480 352C480 246 394 160 288 160C279.2 160 272 167.2 272 176zM96 320C96 286.3 103.4 254.5 116.7 225.9L414.1 523.3C385.5 536.6 353.7 544 320 544C196.3 544 96 443.7 96 320zM136.8 200.8C122.7 186.7 99.2 188.8 90.3 206.6C73.4 240.8 63.9 279.2 63.9 319.9C63.9 461.3 178.5 575.9 319.9 575.9C360.6 575.9 399.1 566.4 433.2 549.5C451.1 540.7 453.1 517.1 439 503L299.2 363.2L347.2 315.2C353.4 309 353.4 298.8 347.2 292.6C341 286.4 330.8 286.4 324.6 292.6L276.6 340.6L136.8 200.8z"/></svg>