<svg xmlns="http://www.w3.org/2000/svg" viewBox="0 0 640 640"><!--! Font Awesome Pro 7.1.0 by @fontawesome - https://fontawesome.com License - https://fontawesome.com/license (Commercial License) Copyright 2025 Fonticons, Inc. --><path fill="currentColor" d="M464 64C455.2 64 448 71.2 448 80C448 88.8 455.2 96 464 96L528 96C536.8 96 544 88.8 544 80C544 71.2 536.8 64 528 64L464 64zM96 464C96 455.2 88.8 448 80 448C71.2 448 64 455.2 64 464L64 528C64 536.8 71.2 544 80 544C88.8 544 96 536.8 96 528L96 464zM544 224C544 400.7 400.7 544 224 544C188.7 544 160 515.3 160 480C160 444.7 188.7 416 224 416C330 416 416 330 416 224C416 188.7 444.7 160 480 160C515.3 160 544 188.7 544 224zM576 224C576 171 533 128 480 128C427 128 384 171 384 224C384 312.4 312.4 384 224 384C171 384 128 427 128 480C128 533 171 576 224 576C418.4 576 576 418.4 576 224zM464 224C455.2 224 448 231.2 448 240C448 354.9 354.9 448 240 448C231.2 448 224 455.2 224 464C224 472.8 231.2 480 240 480C372.5 480 480 372.5 480 240C480 231.2 472.8 224 464 224z"/></svg>