<svg xmlns="http://www.w3.org/2000/svg" viewBox="0 0 640 640"><!--! Font Awesome Pro 7.1.0 by @fontawesome - https://fontawesome.com License - https://fontawesome.com/license (Commercial License) Copyright 2025 Fonticons, Inc. --><path fill="currentColor" d="M128 128C110.3 128 96 142.3 96 160L96 480C96 497.7 110.3 512 128 512L278 512C280.9 523.1 284.7 533.8 289.4 544L128 544C92.7 544 64 515.3 64 480L64 160C64 124.7 92.7 96 128 96L370.7 96C387.7 96 404 102.7 416 114.7L493.3 192C505.3 204 512 220.3 512 237.3L512 278.1C501.6 275.4 491 273.6 480 272.7L480 237.3C480 228.8 476.6 220.7 470.6 214.7L393.4 137.4C390.7 134.7 387.5 132.5 384 130.9L384 240C384 257.7 369.7 272 352 272L192 272C174.3 272 160 257.7 160 240L160 128L128 128zM288 320C301.7 320 314.4 324.3 324.9 331.7C317.5 339.5 310.8 347.8 304.8 356.7C299.9 353.7 294.2 352 288.1 352C270.4 352 256.1 366.3 256.1 384C256.1 398.3 265.5 410.5 278.5 414.5C275.8 424.7 273.9 435.3 272.9 446.1C244.9 439.3 224.1 414 224.1 383.9C224.1 348.6 252.8 319.9 288.1 319.9zM192 128L192 240L352 240L352 128L192 128zM464 576C525.9 576 576 525.9 576 464C576 402.1 525.9 352 464 352C402.1 352 352 402.1 352 464C352 525.9 402.1 576 464 576zM464 320C543.5 320 608 384.5 608 464C608 543.5 543.5 608 464 608C384.5 608 320 543.5 320 464C320 384.5 384.5 320 464 320zM460.7 396.7C466.9 390.5 477.1 390.5 483.3 396.7L539.3 452.7C545.5 458.9 545.5 469.1 539.3 475.3L483.3 531.3C477.1 537.5 466.9 537.5 460.7 531.3C454.5 525.1 454.5 514.9 460.7 508.7L489.4 480L400 480C391.2 480 384 472.8 384 464C384 455.2 391.2 448 400 448L489.4 448L460.7 419.3C454.5 413.1 454.5 402.9 460.7 396.7z"/></svg>