<svg xmlns="http://www.w3.org/2000/svg" viewBox="0 0 640 640"><!--! Font Awesome Pro 7.1.0 by @fontawesome - https://fontawesome.com License - https://fontawesome.com/license (Commercial License) Copyright 2025 Fonticons, Inc. --><path fill="currentColor" d="M149.1 134.6C158.1 134.4 166.5 130.5 172.5 123.8C173.6 122.6 174.6 121.3 175.5 120.3C186.8 132 198.2 146.7 207.1 162.7C217.7 181.8 224 201.1 224 217.7C224 225.4 223.1 232.8 221.4 240L254.1 240C255.4 232.8 256 225.3 256 217.7C256 193.7 247.2 169 235.1 147.2C222.9 125.3 206.9 105.3 191.1 90.7C186.6 86.5 180.9 84.5 175.2 84.5C171.4 84.5 168.1 85.4 165.1 87C159.7 89.8 155.5 94.7 151.4 99.5C150.5 100.6 149.6 101.6 148.7 102.6L133.4 86.7C131.8 85 130.2 83.2 128.6 81.4C127.9 80.7 127.3 79.9 126.6 79.2C120 71.7 112.6 64.4 102.4 64.1C96.6 64 90.7 66 86.1 70.1C67.4 87 46.1 109.2 29.4 134.2C12.8 159.1 0 187.9 0 217.8C0 225.4 .6 232.8 1.9 240.1L34.5 240.1C32.8 233 32 225.5 32 217.8C32 196.9 41.2 174.3 56.1 152C69.2 132.4 85.9 114.2 101.7 99.3L110.2 108.8L125.4 124.7C131.6 131.2 140.2 134.8 149.1 134.6zM196.2 240C180.8 208.3 149 182 134.9 171.5C130.8 168.4 125.2 168.4 121.1 171.5C107 182 75.1 208.3 59.8 240L97 240C99 237.2 101.2 234.3 103.7 231.4C111.6 221.9 120.5 213.5 128.1 207C135.7 213.5 144.5 221.9 152.5 231.4C154.9 234.3 157.2 237.2 159.2 240L196.4 240zM521.9 128C501.1 128 481.1 136.1 466.2 150.6L221.1 388.3C218.8 390.6 215.7 391.8 212.4 391.8C205.5 391.8 199.9 386.2 199.9 379.3L199.9 376.8C199.9 374 200.7 371.2 202.2 368.9L232.8 319.9L239.9 319.9C248.7 319.9 255.9 312.7 255.9 303.9C255.9 295.1 248.7 287.9 239.9 287.9L16 288C7.2 288 0 295.2 0 304C0 311.8 5.5 318.2 12.9 319.7L2.7 375.5C.9 385.5 0 395.7 0 405.9L0 413.5C0 503.3 72.8 576.1 162.6 576.1C211.4 576.1 257.5 554.2 288.4 516.5L522.8 229.9C525.8 226.2 530.4 224 535.2 224L612.7 224C627.8 224 640 211.8 640 196.7C640 189.5 637.1 182.5 632 177.4L606.1 151.4C591.1 136.4 570.7 128 549.5 128L521.9 128zM45.4 320L195.2 320L175.2 352C170.5 359.5 168.1 368.1 168.1 376.9L168.1 379.4C168.1 404 188 423.9 212.6 423.9C224.2 423.9 235.3 419.4 243.6 411.4L488.5 173.5C497.5 164.8 509.4 160 521.9 160L549.5 160C562.2 160 574.4 165.1 583.4 174.1L601.3 192L535.1 192C520.7 192 507.1 198.5 497.9 209.6L263.6 496.1C238.8 526.4 201.7 544 162.6 544C90.5 544 32 485.5 32 413.4L32 405.8C32 397.5 32.7 389.2 34.2 381.1L45.4 320zM144 392C144 378.7 133.3 368 120 368C106.7 368 96 378.7 96 392C96 405.3 106.7 416 120 416C133.3 416 144 405.3 144 392z"/></svg>