<svg xmlns="http://www.w3.org/2000/svg" viewBox="0 0 640 640"><!--! Font Awesome Pro 7.1.0 by @fontawesome - https://fontawesome.com License - https://fontawesome.com/license (Commercial License) Copyright 2025 Fonticons, Inc. --><path fill="currentColor" d="M521.9 96C501.1 96 481.1 104.1 466.2 118.6L221.1 356.3C218.8 358.6 215.7 359.8 212.4 359.8C205.5 359.8 199.9 354.2 199.9 347.3L199.9 342.8C199.9 340.5 200.4 338.1 201.3 336L250.3 223.9L271.8 223.9C280.6 223.9 287.8 216.7 287.8 207.9C287.8 199.1 280.6 191.9 271.8 191.9L16 192C7.2 192 0 199.2 0 208C0 216.8 7.2 224 16 224L28.3 224L3.6 341.2C1.2 352.6 0 364.2 0 375.8L0 381.4C0 471.2 72.8 544 162.6 544C211.4 544 257.5 522.1 288.4 484.4L522.8 197.9C525.8 194.2 530.4 192 535.2 192L612.7 192C627.8 192 640 179.8 640 164.7C640 157.5 637.1 150.5 632 145.4L606.1 119.4C591.1 104.4 570.7 96 549.5 96L521.9 96zM61 224L215.6 224L172.2 323.3C169.5 329.5 168.1 336.2 168.1 342.9L168.1 347.4C168.1 372 188 391.9 212.6 391.9C224.2 391.9 235.3 387.4 243.6 379.4L488.5 141.5C497.5 132.8 509.4 128 521.9 128L549.5 128C562.2 128 574.4 133.1 583.4 142.1L601.3 160L535.1 160C520.7 160 507.1 166.5 497.9 177.6L263.6 464.1C238.8 494.4 201.7 512 162.6 512C90.5 512 32 453.5 32 381.4L32 375.8C32 366.4 33 357 34.9 347.7L61 224zM104 400C117.3 400 128 389.3 128 376C128 362.7 117.3 352 104 352C90.7 352 80 362.7 80 376C80 389.3 90.7 400 104 400zM144 296C144 282.7 133.3 272 120 272C106.7 272 96 282.7 96 296C96 309.3 106.7 320 120 320C133.3 320 144 309.3 144 296z"/></svg>