<svg xmlns="http://www.w3.org/2000/svg" viewBox="0 0 640 640"><!--! Font Awesome Pro 7.1.0 by @fontawesome - https://fontawesome.com License - https://fontawesome.com/license (Commercial License) Copyright 2025 Fonticons, Inc. --><path fill="currentColor" d="M112.2 74.9C109.4 83.3 113.9 92.3 122.3 95.1L256.5 139.9C261.1 164.3 279.6 183.8 303.4 190L303.4 544L111.4 544C102.6 544 95.4 551.2 95.4 560C95.4 568.8 102.6 576 111.4 576L319.4 576C328.2 576 335.4 568.8 335.4 560L335.4 190C345.7 187.4 355 182.2 362.6 175.3L506.4 223.2C514.8 226 523.8 221.5 526.6 213.1C529.4 204.7 524.9 195.7 516.5 192.9L380.3 147.5C382.3 141.4 383.3 134.8 383.3 128C383.3 92.7 354.6 64 319.3 64C291.3 64 267.5 82 258.8 107L132.4 64.8C124 62 115 66.6 112.2 74.9zM199.3 394.2C182.2 407.1 157.1 416 128 416C98.9 416 73.8 407.1 56.7 394.3C39.6 381.5 32 366.2 32 352L224 352C224 366.2 216.4 381.5 199.3 394.3zM128 179.3L213.7 320L42.3 320L128 179.3zM256 352L256 350.4C256 335.7 252 321.3 244.3 308.8L152.3 157.6C147.2 149.2 137.9 144 128 144C118.1 144 108.8 149.2 103.7 157.7L11.7 308.9C4 321.4 0 335.8 0 350.4L0 352C0 405 57.3 448 128 448C198.7 448 256 405 256 352zM608 480C608 494.2 600.4 509.5 583.3 522.3C566.2 535.1 541.1 544 512 544C482.9 544 457.8 535.1 440.7 522.3C423.6 509.5 416 494.2 416 480L608 480zM597.7 448L426.3 448L512 307.3L597.7 448zM512 576C582.7 576 640 533 640 480L640 478.4C640 463.7 636 449.3 628.3 436.8L536.3 285.6C531.1 277.1 521.9 271.9 512 271.9C502.1 271.9 492.8 277.1 487.7 285.6L395.7 436.8C388 449.4 384 463.8 384 478.4L384 480C384 533 441.3 576 512 576zM319.3 96C337 96 351.3 110.3 351.3 128C351.3 145.7 337 160 319.3 160C301.6 160 287.3 145.7 287.3 128C287.3 110.3 301.6 96 319.3 96z"/></svg>