<svg xmlns="http://www.w3.org/2000/svg" viewBox="0 0 640 640"><!--! Font Awesome Pro 7.1.0 by @fontawesome - https://fontawesome.com License - https://fontawesome.com/license (Commercial License) Copyright 2025 Fonticons, Inc. --><path fill="currentColor" d="M384 128C384 157.8 363.6 182.9 336 190L336 544L528 544C536.8 544 544 551.2 544 560C544 568.8 536.8 576 528 576L112 576C103.2 576 96 568.8 96 560C96 551.2 103.2 544 112 544L304 544L304 190C276.4 182.9 256 157.8 256 128L112 128C103.2 128 96 120.8 96 112C96 103.2 103.2 96 112 96L264.6 96C275.6 76.9 296.3 64 320 64C343.7 64 364.4 76.9 375.4 96L512 96C520.8 96 528 103.2 528 112C528 120.8 520.8 128 512 128L384 128zM440.7 426.3C457.8 439.1 482.9 448 512 448C541.1 448 566.2 439.1 583.3 426.3C600.4 413.5 608 398.2 608 384L416 384C416 398.2 423.6 413.5 440.7 426.3zM512 211.3L426.3 352L597.7 352L512 211.3zM384 384L384 382.4C384 367.7 388 353.3 395.7 340.8L487.7 189.6C492.9 181.1 502.1 175.9 512 175.9C521.9 175.9 531.2 181.1 536.3 189.6L628.3 340.8C635.9 353.3 640 367.7 640 382.4L640 384C640 437 582.7 480 512 480C441.3 480 384 437 384 384zM32 384C32 398.2 39.6 413.5 56.7 426.3C73.8 439.1 98.9 448 128 448C157.1 448 182.2 439.1 199.3 426.3C216.4 413.5 224 398.2 224 384L32 384zM42.3 352L213.7 352L128 211.3L42.3 352zM128 480C57.3 480 0 437 0 384L0 382.4C0 367.7 4 353.3 11.7 340.8L103.7 189.6C108.9 181.1 118.1 175.9 128 175.9C137.9 175.9 147.2 181.1 152.3 189.6L244.3 340.8C251.9 353.3 256 367.7 256 382.4L256 384C256 437 198.7 480 128 480zM320 160C337.7 160 352 145.7 352 128C352 110.3 337.7 96 320 96C302.3 96 288 110.3 288 128C288 145.7 302.3 160 320 160z"/></svg>