<svg xmlns="http://www.w3.org/2000/svg" viewBox="0 0 640 640"><!--! Font Awesome Pro 7.1.0 by @fontawesome - https://fontawesome.com License - https://fontawesome.com/license (Commercial License) Copyright 2025 Fonticons, Inc. --><path fill="currentColor" d="M306.7 416L276.3 446.4C234.3 488.4 177.3 512 117.9 512L77.1 512L172.9 416L306.7 416zM204.8 384L474.8 113.4C485.9 102.3 501 96 516.8 96C549.2 96 575.6 122.3 575.8 154.4C575.9 170 569.7 185.1 558.6 196.1L384 370.7C375.5 379.2 364 384 352 384L352 384L204.8 384zM581.3 218.7C598.4 201.6 607.9 178.4 607.8 154.2C607.6 104.3 566.7 64 516.8 64C492.6 64 469.2 73.6 452.1 90.8L31.9 512L0 544L118 544C185.9 544 251 517 299 469L352 416C372.5 416 392.1 407.9 406.6 393.4L581.3 218.7z"/></svg>