<svg xmlns="http://www.w3.org/2000/svg" viewBox="0 0 640 640"><!--! Font Awesome Pro 7.1.0 by @fontawesome - https://fontawesome.com License - https://fontawesome.com/license (Commercial License) Copyright 2025 Fonticons, Inc. --><path fill="currentColor" d="M172.9 416L77.1 512L117.9 512C177.3 512 234.3 488.4 276.3 446.4L306.7 416L172.9 416zM474.8 113.4L204.8 384L352 384L352 384C364 384 375.5 379.2 384 370.7L558.7 196.1C569.8 185 575.9 170 575.9 154.4C575.8 122.3 549.4 96 516.9 96C501.1 96 485.9 102.3 474.9 113.4zM607.8 154.3C607.9 178.5 598.4 201.7 581.3 218.8L406.6 393.4C392.1 407.9 372.5 416 352 416L299 469C251 517 185.9 544 118 544L0 544L31.9 512L452.2 90.8C469.3 73.7 492.7 64 516.9 64C566.8 64 607.7 104.3 607.9 154.2zM336 512L432 512C440.8 512 448 519.2 448 528C448 536.8 440.8 544 432 544L336 544C327.2 544 320 536.8 320 528C320 519.2 327.2 512 336 512zM512 512L592 512C600.8 512 608 519.2 608 528C608 536.8 600.8 544 592 544L512 544C503.2 544 496 536.8 496 528C496 519.2 503.2 512 512 512z"/></svg>