<svg xmlns="http://www.w3.org/2000/svg" viewBox="0 0 640 640"><!--! Font Awesome Pro 7.1.0 by @fontawesome - https://fontawesome.com License - https://fontawesome.com/license (Commercial License) Copyright 2025 Fonticons, Inc. --><path fill="currentColor" d="M527.8 74.9C530.6 83.3 526.1 92.3 517.7 95.1L383.5 139.9C378.9 164.3 360.4 183.8 336.6 190L336.6 544L528.6 544C537.4 544 544.6 551.2 544.6 560C544.6 568.8 537.4 576 528.6 576L320.6 576C311.8 576 304.6 568.8 304.6 560L304.6 190C294.3 187.4 285 182.2 277.4 175.3L133.7 223.2C125.3 226 116.3 221.5 113.5 213.1C110.7 204.7 115.2 195.7 123.6 192.9L259.7 147.5C257.7 141.4 256.7 134.8 256.7 128C256.7 92.7 285.4 64 320.7 64C348.7 64 372.5 82 381.2 107L507.6 64.8C516 62 525 66.6 527.8 74.9zM440.7 394.3C457.8 407.1 482.9 416 512 416C541.1 416 566.2 407.1 583.3 394.3C600.4 381.5 608 366.2 608 352L416 352L416 352C416 366.2 423.6 381.5 440.7 394.3zM512 179.3L426.3 320L597.7 320L512 179.3zM384 352L384 350.4C384 335.7 388 321.3 395.7 308.8L487.7 157.6C492.8 149.2 502.1 144 512 144C521.9 144 531.2 149.2 536.3 157.7L628.3 308.9C635.9 321.4 640 335.8 640 350.5L640 352.1C640 405.1 582.7 448.1 512 448.1C441.3 448.1 384 405.1 384 352.1zM32 480C32 494.2 39.6 509.5 56.7 522.3C73.8 535.1 98.9 544 128 544C157.1 544 182.2 535.1 199.3 522.3C216.4 509.5 224 494.2 224 480L32 480L32 480zM42.3 448L213.7 448L128 307.3L42.3 448zM128 576C57.3 576 0 533 0 480L0 478.4C0 463.7 4 449.3 11.7 436.8L103.7 285.6C108.9 277.1 118.1 271.9 128 271.9C137.9 271.9 147.2 277.1 152.3 285.6L244.3 436.8C251.9 449.3 256 463.7 256 478.4L256 480C256 533 198.7 576 128 576zM320.7 160C338.4 160 352.7 145.7 352.7 128C352.7 110.3 338.4 96 320.7 96C303 96 288.7 110.3 288.7 128C288.7 145.7 303 160 320.7 160z"/></svg>