<svg xmlns="http://www.w3.org/2000/svg" viewBox="0 0 640 640"><!--! Font Awesome Pro 7.1.0 by @fontawesome - https://fontawesome.com License - https://fontawesome.com/license (Commercial License) Copyright 2025 Fonticons, Inc. --><path fill="currentColor" d="M192 32C183.2 32 176 39.2 176 48L176 112L208 112L208 48C208 39.2 200.8 32 192 32zM416 48C416 39.2 408.8 32 400 32C391.2 32 384 39.2 384 48L384 132.1C396.9 141.1 407.8 152.8 416 166.3L416 48zM352 48C352 39.2 344.8 32 336 32C327.2 32 320 39.2 320 48L320 112C331.1 112 341.9 113.6 352 116.6L352 48zM288 48C288 39.2 280.8 32 272 32C263.2 32 256 39.2 256 48L256 112L288 112L288 48zM560 32C551.2 32 544 39.2 544 48L544 336C544 344.8 551.2 352 560 352C568.8 352 576 344.8 576 336L576 48C576 39.2 568.8 32 560 32zM480 32C471.2 32 464 39.2 464 48L464 336C464 344.8 471.2 352 480 352C488.8 352 496 344.8 496 336L496 48C496 39.2 488.8 32 480 32zM320 192C337.7 192 352 206.3 352 224L352 512C352 529.7 337.7 544 320 544L128 544C110.3 544 96 529.7 96 512L96 224C96 206.3 110.3 192 128 192L320 192zM128 160C92.7 160 64 188.7 64 224L64 512C64 547.3 92.7 576 128 576L320 576C355.3 576 384 547.3 384 512L384 224C384 188.7 355.3 160 320 160L128 160zM160 256L288 256L288 480L160 480L160 256zM152 224C138.7 224 128 234.7 128 248L128 488C128 501.3 138.7 512 152 512L296 512C309.3 512 320 501.3 320 488L320 248C320 234.7 309.3 224 296 224L152 224z"/></svg>