<svg xmlns="http://www.w3.org/2000/svg" viewBox="0 0 640 640"><!--! Font Awesome Pro 7.1.0 by @fontawesome - https://fontawesome.com License - https://fontawesome.com/license (Commercial License) Copyright 2025 Fonticons, Inc. --><path fill="currentColor" d="M192 32C183.2 32 176 39.2 176 48L176 112L208 112L208 48C208 39.2 200.8 32 192 32zM416 48C416 39.2 408.8 32 400 32C391.2 32 384 39.2 384 48L384 132.1C396.9 141.1 407.8 152.8 416 166.3L416 48zM352 48C352 39.2 344.8 32 336 32C327.2 32 320 39.2 320 48L320 112C331.1 112 341.9 113.6 352 116.6L352 48zM288 48C288 39.2 280.8 32 272 32C263.2 32 256 39.2 256 48L256 112L288 112L288 48zM560 32C551.2 32 544 39.2 544 48L544 336C544 344.8 551.2 352 560 352C568.8 352 576 344.8 576 336L576 48C576 39.2 568.8 32 560 32zM480 32C471.2 32 464 39.2 464 48L464 336C464 344.8 471.2 352 480 352C488.8 352 496 344.8 496 336L496 48C496 39.2 488.8 32 480 32zM320 192C337.7 192 352 206.3 352 224L352 512C352 529.7 337.7 544 320 544L128 544C110.3 544 96 529.7 96 512L96 224C96 206.3 110.3 192 128 192L320 192zM128 160C92.7 160 64 188.7 64 224L64 512C64 547.3 92.7 576 128 576L320 576C355.3 576 384 547.3 384 512L384 224C384 188.7 355.3 160 320 160L128 160zM240 416C240 424.8 247.2 432 256 432L288 432C296.8 432 304 424.8 304 416C304 407.2 296.8 400 288 400L256 400C247.2 400 240 407.2 240 416zM160 320L160 256L288 256L288 320L160 320zM128 248L128 328C128 341.3 138.7 352 152 352L296 352C309.3 352 320 341.3 320 328L320 248C320 234.7 309.3 224 296 224L152 224C138.7 224 128 234.7 128 248zM240 480C240 488.8 247.2 496 256 496L288 496C296.8 496 304 488.8 304 480C304 471.2 296.8 464 288 464L256 464C247.2 464 240 471.2 240 480zM160 400C151.2 400 144 407.2 144 416C144 424.8 151.2 432 160 432L192 432C200.8 432 208 424.8 208 416C208 407.2 200.8 400 192 400L160 400zM144 480C144 488.8 151.2 496 160 496L192 496C200.8 496 208 488.8 208 480C208 471.2 200.8 464 192 464L160 464C151.2 464 144 471.2 144 480z"/></svg>