<svg xmlns="http://www.w3.org/2000/svg" viewBox="0 0 640 640"><!--! Font Awesome Pro 7.1.0 by @fontawesome - https://fontawesome.com License - https://fontawesome.com/license (Commercial License) Copyright 2025 Fonticons, Inc. --><path fill="currentColor" d="M292.2 288L326.3 288C334.3 288 341 282.1 342.1 274.3L360.4 146.3C361.8 136.7 354.3 128 344.6 128L144 128C99.8 128 64 163.8 64 208C64 252.2 99.8 288 144 288L292.2 288zM287.6 320L175.9 320L175.9 496C175.9 504.8 183.1 512 191.9 512L246.3 512C254.3 512 261 506.1 262.1 498.3L287.7 320zM144 320C82.1 320 32 269.9 32 208C32 146.1 82.1 96 144 96L344.7 96C373.9 96 396.3 121.9 392.2 150.8L373.9 278.8C370.5 302.4 350.3 320 326.4 320L320 320L293.9 502.8C290.5 526.4 270.3 544 246.4 544L192 544C165.5 544 144 522.5 144 496L144 320zM464 96L592 96C600.8 96 608 103.2 608 112C608 120.8 600.8 128 592 128L464 128C455.2 128 448 120.8 448 112C448 103.2 455.2 96 464 96zM464 160L592 160C600.8 160 608 167.2 608 176C608 184.8 600.8 192 592 192L464 192C455.2 192 448 184.8 448 176C448 167.2 455.2 160 464 160zM448 272C448 263.2 455.2 256 464 256L592 256C600.8 256 608 263.2 608 272C608 280.8 600.8 288 592 288L464 288C455.2 288 448 280.8 448 272zM464 320L592 320C600.8 320 608 327.2 608 336C608 344.8 600.8 352 592 352L464 352C455.2 352 448 344.8 448 336C448 327.2 455.2 320 464 320zM448 400C448 391.2 455.2 384 464 384L592 384C600.8 384 608 391.2 608 400C608 408.8 600.8 416 592 416L464 416C455.2 416 448 408.8 448 400zM464 512L592 512C600.8 512 608 519.2 608 528C608 536.8 600.8 544 592 544L464 544C455.2 544 448 536.8 448 528C448 519.2 455.2 512 464 512z"/></svg>