<svg xmlns="http://www.w3.org/2000/svg" viewBox="0 0 640 640"><!--! Font Awesome Pro 7.1.0 by @fontawesome - https://fontawesome.com License - https://fontawesome.com/license (Commercial License) Copyright 2025 Fonticons, Inc. --><path fill="currentColor" d="M240 144C240 99.8 275.8 64 320 64C364.2 64 400 99.8 400 144C400 188.2 364.2 224 320 224C275.8 224 240 188.2 240 144zM398.4 224L486.7 224L475.5 238C472.8 241.4 471.6 245.7 472.1 250C472.6 254.3 474.9 258.2 478.4 260.8L493.3 272L478.4 283.2C474.9 285.8 472.7 289.7 472.1 294C471.5 298.3 472.8 302.6 475.5 306L486.7 320L416 320C411.1 320 406.4 322.3 403.4 326.2C400.4 330.1 399.3 335.1 400.5 339.9L427.5 448L212.5 448L239.5 339.9C240.7 335.1 239.6 330.1 236.6 326.2C233.6 322.3 228.9 320 224 320L153.3 320L164.5 306C167.2 302.6 168.4 298.3 167.9 294C167.4 289.7 165.1 285.8 161.6 283.2L146.7 272L161.6 260.8C165.1 258.2 167.3 254.3 167.9 250C168.5 245.7 167.2 241.4 164.5 238L153.3 224L241.6 224C261.8 243.8 289.5 256 320 256C350.5 256 378.2 243.8 398.4 224zM421.2 192C428.1 177.5 432 161.2 432 144C432 82.1 381.9 32 320 32C258.1 32 208 82.1 208 144C208 161.2 211.9 177.5 218.8 192L120 192C113.8 192 108.2 195.5 105.6 201.1C103 206.7 103.7 213.2 107.5 218L129.2 245.1L110.4 259.2C106.4 262.2 104 267 104 272C104 277 106.4 281.8 110.4 284.8L129.2 298.9L107.5 326C103.7 330.8 102.9 337.4 105.6 342.9C108.3 348.4 113.8 352 120 352L203.5 352L176.5 460.1C175.3 464.9 176.4 469.9 179.4 473.8C182.4 477.7 187.1 480 192 480L304 480L304 592C304 600.8 311.2 608 320 608C328.8 608 336 600.8 336 592L336 480L448 480C452.9 480 457.6 477.7 460.6 473.8C463.6 469.9 464.7 464.9 463.5 460.1L436.5 352L520 352C526.2 352 531.8 348.5 534.4 342.9C537 337.3 536.3 330.8 532.5 326L510.8 298.9L529.6 284.8C533.6 281.8 536 277 536 272C536 267 533.6 262.2 529.6 259.2L510.8 245.1L532.5 218C536.3 213.2 537.1 206.6 534.4 201.1C531.7 195.6 526.2 192 520 192L421.2 192zM312 128C312 114.7 301.3 104 288 104C274.7 104 264 114.7 264 128C264 141.3 274.7 152 288 152C301.3 152 312 141.3 312 128zM384 144C384 130.7 373.3 120 360 120C346.7 120 336 130.7 336 144C336 157.3 346.7 168 360 168C373.3 168 384 157.3 384 144z"/></svg>