<svg xmlns="http://www.w3.org/2000/svg" viewBox="0 0 640 640"><!--! Font Awesome Pro 7.1.0 by @fontawesome - https://fontawesome.com License - https://fontawesome.com/license (Commercial License) Copyright 2025 Fonticons, Inc. --><path fill="currentColor" d="M192 176L192 232.2C192 253.4 200.4 273.8 215.4 288.8L320 393.4L324.7 388.7L393.4 320L317.7 244.3C292.5 219.1 310.3 176 346 176L352.1 176C360.9 176 368.1 183.2 368.1 192C368.1 200.8 360.9 208 352.1 208L346 208C338.9 208 335.3 216.6 340.3 221.7L416 297.4L424.6 288.8C439.6 273.8 448 253.4 448 232.2L448 176C448 131.8 412.2 96 368 96L272 96C227.8 96 192 131.8 192 176zM416 342.6L390.6 368L515.3 492.7C521.5 498.9 521.5 509.1 515.3 515.3C509.1 521.5 498.9 521.5 492.7 515.3L368 390.6L342.6 416L467.3 540.7C473.5 546.9 473.5 557.1 467.3 563.3C461.1 569.5 450.9 569.5 444.7 563.3L320 438.6C318.6 437.2 276.2 394.8 192.8 311.4C171.8 290.4 160 261.9 160 232.2L160 176C160 114.1 210.1 64 272 64L368 64C429.9 64 480 114.1 480 176L480 232.2C480 261.9 468.2 290.4 447.2 311.4L438.6 320L563.3 444.7C569.5 450.9 569.5 461.1 563.3 467.3C557.1 473.5 546.9 473.5 540.7 467.3L416 342.6zM167.4 353.9L190 376.5L99.3 467.2C93.1 473.4 82.9 473.4 76.7 467.2C70.5 461 70.5 450.8 76.7 444.6L167.4 353.9zM215.4 401.9L238 424.5L147.3 515.2C141.1 521.4 130.9 521.4 124.7 515.2C118.5 509 118.5 498.8 124.7 492.6L215.4 401.9zM263.4 449.9L286 472.5L195.3 563.2C189.1 569.4 178.9 569.4 172.7 563.2C166.5 557 166.5 546.8 172.7 540.6L263.4 449.9z"/></svg>