<svg xmlns="http://www.w3.org/2000/svg" viewBox="0 0 640 640"><!--! Font Awesome Pro 7.1.0 by @fontawesome - https://fontawesome.com License - https://fontawesome.com/license (Commercial License) Copyright 2025 Fonticons, Inc. --><path fill="currentColor" d="M336 64L336 96L416 96L416 64L336 64zM304 135.4L304 56C304 42.7 314.7 32 328 32L424 32C437.3 32 448 42.7 448 56L448 104C448 117.3 437.3 128 424 128L336 128L336 135.4L468.8 224L544 224C579.3 224 608 252.7 608 288L608 512C608 547.3 579.3 576 544 576L96 576C60.7 576 32 547.3 32 512L32 288C32 252.7 60.7 224 96 224L171.2 224L304 135.4zM184.9 253.3C182.3 255.1 179.2 256 176 256L96 256C78.3 256 64 270.3 64 288L64 512C64 529.7 78.3 544 96 544L256 544L256 464C256 428.7 284.7 400 320 400C355.3 400 384 428.7 384 464L384 544L544 544C561.7 544 576 529.7 576 512L576 288C576 270.3 561.7 256 544 256L464 256C460.8 256 457.8 255.1 455.1 253.3L320 163.2L184.9 253.3zM176 480L128 480L128 432L176 432L176 480zM128 368L128 320L176 320L176 368L128 368zM512 480L464 480L464 432L512 432L512 480zM464 368L464 320L512 320L512 368L464 368zM320 320C337.7 320 352 305.7 352 288C352 270.3 337.7 256 320 256C302.3 256 288 270.3 288 288C288 305.7 302.3 320 320 320zM320 224C355.3 224 384 252.7 384 288C384 323.3 355.3 352 320 352C284.7 352 256 323.3 256 288C256 252.7 284.7 224 320 224zM352 464C352 446.3 337.7 432 320 432C302.3 432 288 446.3 288 464L288 544L352 544L352 464z"/></svg>