<svg xmlns="http://www.w3.org/2000/svg" viewBox="0 0 640 640"><!--! Font Awesome Pro 7.1.0 by @fontawesome - https://fontawesome.com License - https://fontawesome.com/license (Commercial License) Copyright 2025 Fonticons, Inc. --><path fill="currentColor" d="M268.2 83.3C279.8 74.1 296.2 74.1 307.9 83.3L445.6 192L512 192C547.3 192 576 220.7 576 256L576 289.4C565.8 284.7 555.1 280.9 544 278L544 256C544 238.3 529.7 224 512 224L440 224C436.4 224 432.9 222.8 430.1 220.6L288 108.4L145.9 220.6C143.1 222.8 139.6 224 136 224L64 224C46.3 224 32 238.3 32 256L32 512C32 529.7 46.3 544 64 544L224 544L224 448C224 421.5 245.5 400 272 400L304 400C307.6 400 311.1 400.4 314.5 401.2C311 411.2 308.4 421.6 306.6 432.3C305.7 432.2 304.9 432.1 304 432.1L272 432.1C263.2 432.1 256 439.3 256 448.1L256 544.1L320 544.1L320 544.1L321.4 544.1C326.6 555.4 332.8 566.1 340 576.1L64 576C28.7 576 0 547.3 0 512L0 256C0 220.7 28.7 192 64 192L130.4 192L268.1 83.3zM144 448C144 456.8 136.8 464 128 464L112 464C103.2 464 96 456.8 96 448L96 432C96 423.2 103.2 416 112 416L128 416C136.8 416 144 423.2 144 432L144 448zM128 352L112 352C103.2 352 96 344.8 96 336L96 320C96 311.2 103.2 304 112 304L128 304C136.8 304 144 311.2 144 320L144 336C144 344.8 136.8 352 128 352zM288 288C305.7 288 320 273.7 320 256C320 238.3 305.7 224 288 224C270.3 224 256 238.3 256 256C256 273.7 270.3 288 288 288zM288 192C323.3 192 352 220.7 352 256C352 291.3 323.3 320 288 320C252.7 320 224 291.3 224 256C224 220.7 252.7 192 288 192zM608 464C608 402.1 557.9 352 496 352C434.1 352 384 402.1 384 464C384 525.9 434.1 576 496 576C557.9 576 608 525.9 608 464zM352 464C352 384.5 416.5 320 496 320C575.5 320 640 384.5 640 464C640 543.5 575.5 608 496 608C416.5 608 352 543.5 352 464zM555.3 427.3L518.6 464L555.3 500.7C561.5 506.9 561.5 517.1 555.3 523.3C549.1 529.5 538.9 529.5 532.7 523.3L496 486.6L459.3 523.3C453.1 529.5 442.9 529.5 436.7 523.3C430.5 517.1 430.5 506.9 436.7 500.7L473.4 464L436.7 427.3C430.5 421.1 430.5 410.9 436.7 404.7C442.9 398.5 453.1 398.5 459.3 404.7L496 441.4L532.7 404.7C538.9 398.5 549.1 398.5 555.3 404.7C561.5 410.9 561.5 421.1 555.3 427.3z"/></svg>