<svg xmlns="http://www.w3.org/2000/svg" viewBox="0 0 640 640"><!--! Font Awesome Pro 7.1.0 by @fontawesome - https://fontawesome.com License - https://fontawesome.com/license (Commercial License) Copyright 2025 Fonticons, Inc. --><path fill="currentColor" d="M300.2 83.3C311.8 74.1 328.2 74.1 339.9 83.3L477.6 192L544 192C579.3 192 608 220.7 608 256L608 512C608 547.3 579.3 576 544 576L96 576C60.7 576 32 547.3 32 512L32 256C32 220.7 60.7 192 96 192L162.4 192L300.1 83.3zM288 544L352 544L352 448C352 439.2 344.8 432 336 432L304 432C295.2 432 288 439.2 288 448L288 544zM384 544L544 544C561.7 544 576 529.7 576 512L576 256C576 238.3 561.7 224 544 224L472 224C468.4 224 464.9 222.8 462.1 220.6L320 108.4L177.9 220.6C175.1 222.8 171.6 224 168 224L96 224C78.3 224 64 238.3 64 256L64 512C64 529.7 78.3 544 96 544L256 544L256 448C256 421.5 277.5 400 304 400L336 400C362.5 400 384 421.5 384 448L384 544zM176 448C176 456.8 168.8 464 160 464L144 464C135.2 464 128 456.8 128 448L128 432C128 423.2 135.2 416 144 416L160 416C168.8 416 176 423.2 176 432L176 448zM160 352L144 352C135.2 352 128 344.8 128 336L128 320C128 311.2 135.2 304 144 304L160 304C168.8 304 176 311.2 176 320L176 336C176 344.8 168.8 352 160 352zM512 448C512 456.8 504.8 464 496 464L480 464C471.2 464 464 456.8 464 448L464 432C464 423.2 471.2 416 480 416L496 416C504.8 416 512 423.2 512 432L512 448zM496 352L480 352C471.2 352 464 344.8 464 336L464 320C464 311.2 471.2 304 480 304L496 304C504.8 304 512 311.2 512 320L512 336C512 344.8 504.8 352 496 352zM320 288C337.7 288 352 273.7 352 256C352 238.3 337.7 224 320 224C302.3 224 288 238.3 288 256C288 273.7 302.3 288 320 288zM320 192C355.3 192 384 220.7 384 256C384 291.3 355.3 320 320 320C284.7 320 256 291.3 256 256C256 220.7 284.7 192 320 192z"/></svg>