<svg xmlns="http://www.w3.org/2000/svg" viewBox="0 0 640 640"><!--! Font Awesome Pro 7.1.0 by @fontawesome - https://fontawesome.com License - https://fontawesome.com/license (Commercial License) Copyright 2025 Fonticons, Inc. --><path fill="currentColor" d="M268.2 83.3C279.8 74.1 296.2 74.1 307.9 83.3L445.6 192L512 192C545 192 572.2 217 575.6 249.2C564.4 244.7 552.5 241.8 540 240.6C534.6 230.7 524 224 512 224L440 224C436.4 224 432.9 222.8 430.1 220.6L288 108.4L145.9 220.6C143.1 222.8 139.6 224 136 224L64 224C46.3 224 32 238.3 32 256L32 512C32 529.7 46.3 544 64 544L224 544L224 448C224 421.5 245.5 400 272 400L304 400C330.5 400 352 421.5 352 448L352 544L368 544L368 559.9C368 565.4 368.5 570.8 369.3 576L64 576C28.7 576 0 547.3 0 512L0 256C0 220.7 28.7 192 64 192L130.4 192L268.1 83.3zM320 544L320 448C320 439.2 312.8 432 304 432L272 432C263.2 432 256 439.2 256 448L256 544L320 544zM144 448C144 456.8 136.8 464 128 464L112 464C103.2 464 96 456.8 96 448L96 432C96 423.2 103.2 416 112 416L128 416C136.8 416 144 423.2 144 432L144 448zM128 352L112 352C103.2 352 96 344.8 96 336L96 320C96 311.2 103.2 304 112 304L128 304C136.8 304 144 311.2 144 320L144 336C144 344.8 136.8 352 128 352zM288 288C305.7 288 320 273.7 320 256C320 238.3 305.7 224 288 224C270.3 224 256 238.3 256 256C256 273.7 270.3 288 288 288zM288 192C323.3 192 352 220.7 352 256C352 291.3 323.3 320 288 320C252.7 320 224 291.3 224 256C224 220.7 252.7 192 288 192zM448 416.1L448 368.1C448 323.9 483.8 288.1 528 288.1C572.2 288.1 608 323.9 608 368.1L608 418.7C626.6 425.3 640 443.1 640 464L640 560C640 586.5 618.5 608 592 608L464 608C437.5 608 416 586.5 416 560L416 464C416 443.1 429.4 425.3 448 418.7L448 416.1zM448 464L448 560C448 568.8 455.2 576 464 576L592 576C600.8 576 608 568.8 608 560L608 464C608 455.8 601.8 449 593.7 448.1L462.2 448.1C454.2 449 447.9 455.8 447.9 464zM576 368.1C576 341.6 554.5 320.1 528 320.1C501.5 320.1 480 341.6 480 368.1L480 416L576 416L576 368.1z"/></svg>