<svg xmlns="http://www.w3.org/2000/svg" viewBox="0 0 640 640"><!--! Font Awesome Pro 7.1.0 by @fontawesome - https://fontawesome.com License - https://fontawesome.com/license (Commercial License) Copyright 2025 Fonticons, Inc. --><path fill="currentColor" d="M176 96C131.8 96 96 131.8 96 176C96 220.2 131.8 256 176 256C220.2 256 256 220.2 256 176C256 131.8 220.2 96 176 96zM176 64C237.9 64 288 114.1 288 176C288 188.4 286 200.4 282.2 211.6L320 249.4L447.9 121.5C478.9 90.5 529.1 90.5 560.1 121.5C572.5 133.9 572.5 154.1 560.1 166.5L285.6 441C287.2 448.4 288 456.1 288 464C288 525.9 237.9 576 176 576C114.1 576 64 525.9 64 464C64 402.1 114.1 352 176 352C188.4 352 200.4 354 211.6 357.8L241.4 328L199 285.6C191.6 287.2 183.9 288 176 288C114.1 288 64 237.9 64 176C64 114.1 114.1 64 176 64zM231.8 273.1L264 305.3L297.4 271.9L266.9 241.4C257.6 254.3 245.6 265.1 231.8 273.1zM470.5 144.1L241.5 373.1C254.4 382.4 265.2 394.4 273.2 408.2L537.4 144C518.9 125.6 489 125.7 470.5 144.1zM256 464C256 419.8 220.2 384 176 384C131.8 384 96 419.8 96 464C96 508.2 131.8 544 176 544C220.2 544 256 508.2 256 464zM462.5 503.9C481 522.4 510.9 522.4 529.4 504L410 384.6L432.6 362L552.1 481.5C564.5 493.9 564.5 514.1 552.1 526.5C521.1 557.5 470.9 557.5 439.9 526.5L354 440.6L376.6 418L462.5 503.9z"/></svg>