<svg xmlns="http://www.w3.org/2000/svg" viewBox="0 0 640 640"><!--! Font Awesome Pro 7.1.0 by @fontawesome - https://fontawesome.com License - https://fontawesome.com/license (Commercial License) Copyright 2025 Fonticons, Inc. --><path fill="currentColor" d="M320 112C320 103.2 327.2 96 336 96L416 96C423.4 96 429.9 101.1 431.6 108.3L495.6 380.3L496.5 384C540.5 384.2 576.1 420 576.1 464C576.1 508.2 540.3 544 496.1 544C457.4 544 425.1 516.5 417.7 480L222.5 480C215.1 516.5 182.8 544 144.1 544C99.9 544 64.1 508.2 64.1 464C64.1 419.8 99.9 384 144.1 384C182.8 384 215.1 411.5 222.5 448L417.7 448C423 421.8 441.1 400.3 465.1 390.2L464.5 387.6L403.4 127.9L336.1 127.9C327.3 127.9 320.1 120.7 320.1 111.9zM192 464C192 437.5 170.5 416 144 416C117.5 416 96 437.5 96 464C96 490.5 117.5 512 144 512C170.5 512 192 490.5 192 464zM448 464C448 490.5 469.5 512 496 512C522.5 512 544 490.5 544 464C544 437.5 522.5 416 496 416C469.5 416 448 437.5 448 464z"/></svg>