<svg xmlns="http://www.w3.org/2000/svg" viewBox="0 0 640 640"><!--! Font Awesome Pro 7.1.0 by @fontawesome - https://fontawesome.com License - https://fontawesome.com/license (Commercial License) Copyright 2025 Fonticons, Inc. --><path fill="currentColor" d="M512 128L128 128C110.3 128 96 142.3 96 160L96 240.1C93.8 240 91.6 240 89.3 240L64 240L64 160C64 124.7 92.7 96 128 96L512 96C547.3 96 576 124.7 576 160L576 480C576 515.3 547.3 544 512 544L368 544L368 518.7C368 516.5 368 514.2 367.9 512L512 512C529.7 512 544 497.7 544 480L544 160C544 142.3 529.7 128 512 128zM80 288C212.5 288 320 395.5 320 528C320 536.8 312.8 544 304 544C295.2 544 288 536.8 288 528C288 413.1 194.9 320 80 320C71.2 320 64 312.8 64 304C64 295.2 71.2 288 80 288zM96 480C113.7 480 128 494.3 128 512C128 529.7 113.7 544 96 544C78.3 544 64 529.7 64 512C64 494.3 78.3 480 96 480zM64 400C64 391.2 71.2 384 80 384C159.5 384 224 448.5 224 528C224 536.8 216.8 544 208 544C199.2 544 192 536.8 192 528C192 466.1 141.9 416 80 416C71.2 416 64 408.8 64 400z"/></svg>