<svg xmlns="http://www.w3.org/2000/svg" viewBox="0 0 640 640"><!--! Font Awesome Pro 7.1.0 by @fontawesome - https://fontawesome.com License - https://fontawesome.com/license (Commercial License) Copyright 2025 Fonticons, Inc. --><path fill="currentColor" d="M512 96L128 96C110.3 96 96 110.3 96 128L96 272C84.9 272 74.1 273.6 64 276.6L64 128C64 92.7 92.7 64 128 64L512 64C547.3 64 576 92.7 576 128L576 276.6C565.9 273.6 555.1 272 544 272L544 128C544 110.3 529.7 96 512 96zM96 416C113.7 416 128 401.7 128 384C128 366.3 113.7 352 96 352C78.3 352 64 366.3 64 384C64 401.7 78.3 416 96 416zM96 320C131.3 320 160 348.7 160 384C160 419.3 131.3 448 96 448C60.7 448 32 419.3 32 384C32 348.7 60.7 320 96 320zM320 416C337.7 416 352 401.7 352 384C352 366.3 337.7 352 320 352C302.3 352 288 366.3 288 384C288 401.7 302.3 416 320 416zM320 320C355.3 320 384 348.7 384 384C384 419.3 355.3 448 320 448C284.7 448 256 419.3 256 384C256 348.7 284.7 320 320 320zM576 384C576 366.3 561.7 352 544 352C526.3 352 512 366.3 512 384C512 401.7 526.3 416 544 416C561.7 416 576 401.7 576 384zM480 384C480 348.7 508.7 320 544 320C579.3 320 608 348.7 608 384C608 419.3 579.3 448 544 448C508.7 448 480 419.3 480 384zM32 544L32 560C32 568.8 24.8 576 16 576C7.2 576 0 568.8 0 560L0 544C0 508.7 28.7 480 64 480L128 480C163.3 480 192 508.7 192 544L192 560C192 568.8 184.8 576 176 576C167.2 576 160 568.8 160 560L160 544C160 526.3 145.7 512 128 512L64 512C46.3 512 32 526.3 32 544zM288 512C270.3 512 256 526.3 256 544L256 560C256 568.8 248.8 576 240 576C231.2 576 224 568.8 224 560L224 544C224 508.7 252.7 480 288 480L352 480C387.3 480 416 508.7 416 544L416 560C416 568.8 408.8 576 400 576C391.2 576 384 568.8 384 560L384 544C384 526.3 369.7 512 352 512L288 512zM480 544L480 560C480 568.8 472.8 576 464 576C455.2 576 448 568.8 448 560L448 544C448 508.7 476.7 480 512 480L576 480C611.3 480 640 508.7 640 544L640 560C640 568.8 632.8 576 624 576C615.2 576 608 568.8 608 560L608 544C608 526.3 593.7 512 576 512L512 512C494.3 512 480 526.3 480 544z"/></svg>