<svg xmlns="http://www.w3.org/2000/svg" viewBox="0 0 640 640"><!--! Font Awesome Pro 7.1.0 by @fontawesome - https://fontawesome.com License - https://fontawesome.com/license (Commercial License) Copyright 2025 Fonticons, Inc. --><path fill="currentColor" d="M582.8 102.7C588.2 108.1 589 116.5 584.8 122.9L505.6 241.8C499.7 250.7 489.7 256 479 256L406.8 256L330.5 332.3C355.1 367.6 351.7 416.5 320.2 448L194.1 574.1C175.4 592.8 145 592.8 126.2 574.1L66.1 513.9C47.4 495.2 47.4 464.8 66.1 446L192.1 320C223.6 288.5 272.5 285.1 307.8 309.7L384.1 233.4L384.1 161.2C384.1 150.5 389.4 140.5 398.3 134.6L517.2 55.3C523.5 51.1 532 51.9 537.4 57.3L582.8 102.7zM416.1 224L479 224L550.9 116.1L524 89.2L416.1 161.1L416.1 224zM88.7 491.3L148.8 551.4C155 557.6 165.2 557.6 171.4 551.4L297.5 425.4C320.4 402.5 320.4 365.5 297.5 342.7C274.6 319.9 237.6 319.9 214.8 342.7L88.7 468.7C82.5 474.9 82.5 485.1 88.7 491.3z"/></svg>