<svg xmlns="http://www.w3.org/2000/svg" viewBox="0 0 640 640"><!--! Font Awesome Pro 7.1.0 by @fontawesome - https://fontawesome.com License - https://fontawesome.com/license (Commercial License) Copyright 2025 Fonticons, Inc. --><path fill="currentColor" d="M260.6 83.5C274.2 71 292 64 310.5 64L311.4 64C351.5 64 384 96.5 384 136.6C384 155.8 376.4 174.3 362.7 187.9L139.9 410.7C132.3 418.3 128 428.6 128 439.4C128 461.8 146.2 480 168.6 480C179.4 480 189.7 475.7 197.3 468.1L452.1 213.3C465.7 199.7 484.2 192 503.4 192C543.5 192 576 224.5 576 264.6C576 283.8 568.4 302.3 554.7 315.9L434.5 436.1C422.7 447.9 416 464.1 416 480.9C416 515.7 444.2 544 479 544C487.7 544 496.3 542 504.1 538.1L552.9 513.7C560.8 509.7 570.4 513 574.4 520.9C578.4 528.8 575.1 538.4 567.2 542.4L518.4 566.8C506.2 572.9 492.6 576.1 479 576.1C426.5 576.1 384 533.4 384 481C384 455.8 394 431.5 411.9 413.6L532.1 293.3C539.7 285.7 544 275.4 544 264.6C544 242.2 525.8 224 503.4 224C492.6 224 482.3 228.3 474.7 235.9L219.9 490.7C206.3 504.3 187.8 512 168.6 512C128.5 512 96 479.5 96 439.4C96 420.2 103.6 401.7 117.3 388.1L340.1 165.3C347.7 157.7 352 147.4 352 136.6C352 114.2 333.8 96 311.4 96L310.5 96C300.1 96 290 99.9 282.3 107L90.9 283.8C84.4 289.8 74.3 289.4 68.3 282.9C62.3 276.4 62.7 266.3 69.2 260.3L260.6 83.5z"/></svg>