<svg xmlns="http://www.w3.org/2000/svg" viewBox="0 0 640 640"><!--! Font Awesome Pro 7.1.0 by @fontawesome - https://fontawesome.com License - https://fontawesome.com/license (Commercial License) Copyright 2025 Fonticons, Inc. --><path fill="currentColor" d="M64 168C64 145.9 81.9 128 104 128C126.1 128 144 145.9 144 168L144 224L72 224C67.6 224 64 220.4 64 216L64 168zM163.9 128L392 128C422.9 128 448 153.1 448 184L448 206.9C448 212.2 445.3 217.2 440.9 220.2L407.1 242.7C402.7 245.7 400 250.7 400 256C400 261.3 402.7 266.3 407.1 269.3L440.9 291.8C445.3 294.8 448 299.8 448 305.1L448 384L429.3 384C416.6 384 404.4 389.1 395.4 398.1L384.1 409.4L372.8 398.1C363.8 389.1 351.6 384 338.9 384L304 384C277.5 384 256 405.5 256 432L256 472C256 494.1 238.1 512 216 512C193.9 512 176 494.1 176 472L176 385.1C176 379.7 178.7 374.8 183.1 371.8L216.9 349.3C221.4 346.3 224 341.3 224 336C224 330.7 221.3 325.7 216.9 322.7L183.1 300.2C178.6 297.2 176 292.2 176 286.9L176 168C176 153.2 171.5 139.4 163.9 128zM480 384L480 305.1C480 289.1 472 274.1 458.6 265.2L444.8 256L458.6 246.8C472 237.9 480 222.9 480 206.9L480 184C480 135.4 440.6 96 392 96L104 96C64.2 96 32 128.2 32 168L32 216C32 238.1 49.9 256 72 256L144 256L144 286.9C144 302.9 152 317.9 165.4 326.8L179.2 336L165.4 345.2C152 354.1 144 369.1 144 385.1L144 472C144 511.8 176.2 544 216 544L488 544C536.6 544 576 504.6 576 456L576 432C576 405.5 554.5 384 528 384L480 384zM488 512L275.9 512C283.6 500.6 288 486.8 288 472L288 432C288 423.2 295.2 416 304 416L338.7 416C342.9 416 347 417.7 350 420.7L372.6 443.3C378.8 449.5 389 449.5 395.2 443.3L417.8 420.7C420.8 417.7 424.9 416 429.1 416L527.8 416C536.6 416 543.8 423.2 543.8 432L543.8 456C543.8 486.9 518.7 512 487.8 512z"/></svg>