<svg xmlns="http://www.w3.org/2000/svg" viewBox="0 0 640 640"><!--! Font Awesome Pro 7.1.0 by @fontawesome - https://fontawesome.com License - https://fontawesome.com/license (Commercial License) Copyright 2025 Fonticons, Inc. --><path fill="currentColor" d="M64 168C64 145.9 81.9 128 104 128C126.1 128 144 145.9 144 168L144 224L72 224C67.6 224 64 220.4 64 216L64 168zM163.9 128L392 128C422.9 128 448 153.1 448 184L448 384L304 384C277.5 384 256 405.5 256 432L256 472C256 494.1 238.1 512 216 512C193.9 512 176 494.1 176 472L176 168C176 153.2 171.5 139.4 163.9 128zM480 384L480 184C480 135.4 440.6 96 392 96L104 96C64.2 96 32 128.2 32 168L32 216C32 238.1 49.9 256 72 256L144 256L144 472C144 511.8 176.2 544 216 544L488 544C536.6 544 576 504.6 576 456L576 432C576 405.5 554.5 384 528 384L480 384zM488 512L275.9 512C283.6 500.6 288 486.8 288 472L288 432C288 423.2 295.2 416 304 416L528 416C536.8 416 544 423.2 544 432L544 456C544 486.9 518.9 512 488 512z"/></svg>