<svg xmlns="http://www.w3.org/2000/svg" viewBox="0 0 640 640"><!--! Font Awesome Pro 7.1.0 by @fontawesome - https://fontawesome.com License - https://fontawesome.com/license (Commercial License) Copyright 2025 Fonticons, Inc. --><path fill="currentColor" d="M81.2 246.8L75.8 256L534.4 256L571.7 96L343.7 96C235.7 96 135.7 153.4 81.2 246.8zM512.1 352L527 288L48 288C42.3 288 37 284.9 34.1 280C31.2 275.1 31.3 268.9 34.2 264L53.6 230.8C113.8 127.5 224.3 64 343.8 64L592 64C596.9 64 601.5 66.2 604.5 70.1C607.5 74 608.7 78.9 607.5 83.7L495.5 563.7C493.5 572.3 484.9 577.7 476.3 575.6C467.7 573.5 462.3 565 464.4 556.4L504.6 384L368 384C359.2 384 352 376.8 352 368C352 359.2 359.2 352 368 352L512.1 352z"/></svg>