<svg xmlns="http://www.w3.org/2000/svg" viewBox="0 0 640 640"><!--! Font Awesome Pro 7.1.0 by @fontawesome - https://fontawesome.com License - https://fontawesome.com/license (Commercial License) Copyright 2025 Fonticons, Inc. --><path fill="currentColor" d="M169.4 163.9C163.4 169.9 160 178 160 186.5L160 512C160 529.7 174.3 544 192 544L448 544C465.7 544 480 529.7 480 512L480 128C480 110.3 465.7 96 448 96L250.5 96C242 96 233.9 99.4 227.9 105.4L169.4 163.9zM146.7 141.3L205.3 82.7C217.3 70.7 233.5 64 250.5 64L448 64C483.3 64 512 92.7 512 128L512 512C512 547.3 483.3 576 448 576L192 576C156.7 576 128 547.3 128 512L128 186.5C128 169.5 134.7 153.2 146.7 141.2zM272 160L272 224C272 232.8 264.8 240 256 240C247.2 240 240 232.8 240 224L240 160C240 151.2 247.2 144 256 144C264.8 144 272 151.2 272 160zM352 160L352 224C352 232.8 344.8 240 336 240C327.2 240 320 232.8 320 224L320 160C320 151.2 327.2 144 336 144C344.8 144 352 151.2 352 160zM432 160L432 224C432 232.8 424.8 240 416 240C407.2 240 400 232.8 400 224L400 160C400 151.2 407.2 144 416 144C424.8 144 432 151.2 432 160z"/></svg>