<svg xmlns="http://www.w3.org/2000/svg" viewBox="0 0 640 640"><!--! Font Awesome Pro 7.1.0 by @fontawesome - https://fontawesome.com License - https://fontawesome.com/license (Commercial License) Copyright 2025 Fonticons, Inc. --><path fill="currentColor" d="M320 64C330.2 64 340.1 68.1 347.3 75.3L400 128L464 128C490.5 128 512 149.5 512 176L512 240L564.7 292.7C571.9 299.9 576 309.8 576 320C576 330.2 571.9 340.1 564.7 347.3L512 400L512 464C512 490.5 490.5 512 464 512L400 512L347.3 564.7C340.1 571.9 330.2 576 320 576C309.8 576 299.9 571.9 292.7 564.7L240 512L176 512C149.5 512 128 490.5 128 464L128 400L75.3 347.3C68.1 340.1 64 330.2 64 320C64 309.8 68.1 299.9 75.3 292.7L128 240L128 176C128 149.5 149.5 128 176 128L240 128L292.7 75.3C300 68.1 309.8 64 320 64zM320 96C318.2 96 316.6 96.7 315.3 97.9L262.6 150.6C256.6 156.6 248.5 160 240 160L176 160C167.2 160 160 167.2 160 176L160 240C160 248.5 156.6 256.6 150.6 262.6L98 315.3C96.8 316.5 96.1 318.2 96.1 320C96.1 321.8 96.8 323.4 98 324.7L150.7 377.4C156.7 383.4 160.1 391.5 160.1 400L160.1 464C160.1 472.8 167.3 480 176.1 480L240.1 480C248.6 480 256.7 483.4 262.7 489.4L315.4 542.1C316.6 543.3 318.3 544 320.1 544C321.9 544 323.5 543.3 324.8 542.1L377.5 489.4L379.8 487.3C385.5 482.6 392.7 480 400.1 480L464.1 480C472.9 480 480.1 472.8 480.1 464L480.1 400C480.1 391.5 483.5 383.4 489.5 377.4L542.2 324.7C543.4 323.5 544.1 321.8 544.1 320C544.1 318.2 543.4 316.6 542.2 315.3L489.5 262.6C483.5 256.6 480.1 248.5 480.1 240L480.1 176C480.1 167.2 472.9 160 464.1 160L400.1 160C391.6 160 383.5 156.6 377.5 150.6L324.7 97.9C323.5 96.7 321.8 96 320 96zM320 448C306.7 448 296 437.3 296 424C296 410.7 306.7 400 320 400C333.3 400 344 410.7 344 424C344 437.3 333.3 448 320 448zM320 192C333.5 192 344.3 203.4 343.5 216.9L335.9 352.9C335.4 361.4 328.4 368 319.9 368C311.4 368 304.4 361.4 303.9 352.9L296.3 216.9C295.5 203.4 306.3 192 319.8 192z"/></svg>