<svg xmlns="http://www.w3.org/2000/svg" viewBox="0 0 640 640"><!--! Font Awesome Pro 7.1.0 by @fontawesome - https://fontawesome.com License - https://fontawesome.com/license (Commercial License) Copyright 2025 Fonticons, Inc. --><path fill="currentColor" d="M96.2 400.5C92.8 408.7 96.7 418 104.9 421.4L160.9 444.6C176.6 451.1 189 463.6 195.5 479.2L218.7 535.2C222.1 543.4 231.4 547.2 239.6 543.9L295.6 520.7C311.3 514.2 328.9 514.2 344.6 520.7L400.6 543.9C408.8 547.3 418.1 543.4 421.5 535.2L444.7 479.2C451.2 463.5 463.7 451.1 479.3 444.6L535.3 421.4C543.5 418 547.3 408.7 544 400.5L520.8 344.5C514.3 328.8 514.3 311.2 520.8 295.5L544 239.5C547.4 231.3 543.5 222 535.3 218.6L479.3 195.4C463.6 188.9 451.2 176.4 444.7 160.8L421.5 104.8C418.1 96.6 408.8 92.8 400.6 96.1L344.6 119.3C328.9 125.8 311.3 125.8 295.6 119.3L239.6 96.1C231.4 92.7 222.1 96.6 218.7 104.8L195.5 160.8C189 176.5 176.5 188.9 160.9 195.4L104.9 218.6C96.7 222 92.9 231.3 96.2 239.5L119.4 295.5C125.9 311.2 125.9 328.8 119.4 344.5L96.2 400.5zM189.1 92.6C199.2 68.1 227.3 56.5 251.8 66.6L307.8 89.8C315.6 93 324.5 93 332.3 89.8L388.3 66.6C412.8 56.5 440.9 68.1 451 92.6L474.2 148.6C477.4 156.4 483.7 162.7 491.5 165.9L547.5 189.1C572 199.2 583.6 227.3 573.5 251.8L550.3 307.8C547.1 315.6 547.1 324.5 550.3 332.3L573.5 388.3C583.6 412.8 572 440.9 547.5 451L491.5 474.2C483.7 477.4 477.4 483.7 474.2 491.5L451 547.5C440.9 572 412.8 583.6 388.3 573.5L332.3 550.3C324.5 547.1 315.6 547.1 307.8 550.3L251.8 573.5C227.3 583.6 199.2 572 189.1 547.5L165.9 491.5C162.7 483.7 156.4 477.4 148.6 474.2L92.6 451C68.1 440.9 56.5 412.8 66.6 388.3L89.8 332.3C93 324.5 93 315.7 89.8 307.8L66.6 251.8C56.5 227.3 68.1 199.2 92.6 189.1L148.6 165.9C156.4 162.7 162.7 156.4 165.9 148.6L189.1 92.6z"/></svg>