<svg xmlns="http://www.w3.org/2000/svg" viewBox="0 0 640 640"><!--! Font Awesome Pro 7.1.0 by @fontawesome - https://fontawesome.com License - https://fontawesome.com/license (Commercial License) Copyright 2025 Fonticons, Inc. --><path fill="currentColor" d="M272 96C369.2 96 448 174.8 448 272C448 369.2 369.2 448 272 448C174.8 448 96 369.2 96 272C96 174.8 174.8 96 272 96zM272 480C323.7 480 371 461.2 407.3 430L548.7 571.3C554.9 577.5 565.1 577.5 571.3 571.3C577.5 565.1 577.5 554.9 571.3 548.7L430 407.3C461.2 371 480 323.7 480 272C480 157.1 386.9 64 272 64C157.1 64 64 157.1 64 272C64 386.9 157.1 480 272 480zM298.2 301.6C289.9 316.1 280.5 329.8 272 341.2C263.5 329.8 254.1 316.1 245.8 301.6C232.1 277.6 224 255.7 224 240C224 213.5 245.5 192 272 192C298.5 192 320 213.5 320 240C320 255.7 311.9 277.6 298.2 301.6zM283.4 378.6C305.5 351.6 352 288.8 352 240C352 195.8 316.2 160 272 160C227.8 160 192 195.8 192 240C192 288.8 238.5 351.6 260.6 378.6C266.6 385.9 277.4 385.9 283.3 378.6zM296 248C296 234.7 285.3 224 272 224C258.7 224 248 234.7 248 248C248 261.3 258.7 272 272 272C285.3 272 296 261.3 296 248z"/></svg>