<svg xmlns="http://www.w3.org/2000/svg" viewBox="0 0 640 640"><!--! Font Awesome Pro 7.1.0 by @fontawesome - https://fontawesome.com License - https://fontawesome.com/license (Commercial License) Copyright 2025 Fonticons, Inc. --><path fill="currentColor" d="M144 64C152.8 64 160 71.2 160 80L160 218C160 225.4 161.3 232.7 163.8 239.7L192.7 320L424 320C432.8 320 440 327.2 440 336C440 344.8 432.8 352 424 352L204.2 352L215.8 384.3C222.7 403.3 240.7 416 261 416L496 416C504.8 416 512 423.2 512 432C512 440.8 504.8 448 496 448L261 448C227.3 448 197.2 426.8 185.7 395.1L133.7 250.6C129.9 240.1 128 229.1 128 218L128 80C128 71.2 135.2 64 144 64zM160 560C160 551.2 167.2 544 176 544L496 544C504.8 544 512 551.2 512 560C512 568.8 504.8 576 496 576L176 576C167.2 576 160 568.8 160 560z"/></svg>