<svg xmlns="http://www.w3.org/2000/svg" viewBox="0 0 640 640"><!--! Font Awesome Pro 7.1.0 by @fontawesome - https://fontawesome.com License - https://fontawesome.com/license (Commercial License) Copyright 2025 Fonticons, Inc. --><path fill="currentColor" d="M144 64C152.8 64 160 71.2 160 80L160 218C160 225.4 161.3 232.7 163.8 239.7L215.8 384.2C222.7 403.2 240.7 415.9 261 415.9L496 415.9C504.8 415.9 512 423.1 512 431.9C512 440.7 504.8 447.9 496 447.9L261 447.9C227.3 447.9 197.2 426.7 185.7 395L133.7 250.6C129.9 240.1 128 229.1 128 218L128 80C128 71.2 135.2 64 144 64zM160 560C160 551.2 167.2 544 176 544L496 544C504.8 544 512 551.2 512 560C512 568.8 504.8 576 496 576L176 576C167.2 576 160 568.8 160 560zM352 64L416 64C451.3 64 480 92.7 480 128L480 256C480 291.3 451.3 320 416 320L352 320C316.7 320 288 291.3 288 256L288 128C288 92.7 316.7 64 352 64zM320 128L320 256C320 273.7 334.3 288 352 288L416 288C433.7 288 448 273.7 448 256L448 128C448 110.3 433.7 96 416 96L352 96C334.3 96 320 110.3 320 128z"/></svg>