<svg xmlns="http://www.w3.org/2000/svg" viewBox="0 0 640 640"><!--! Font Awesome Pro 7.1.0 by @fontawesome - https://fontawesome.com License - https://fontawesome.com/license (Commercial License) Copyright 2025 Fonticons, Inc. --><path fill="currentColor" d="M384 96C401.7 96 416 110.3 416 128L416 320L224 320L224 128C224 110.3 238.3 96 256 96L384 96zM192 128L192 320L176 320C149.5 320 128 341.5 128 368L128 416C128 436.9 141.4 454.7 160 461.3L160 560C160 568.8 167.2 576 176 576C184.8 576 192 568.8 192 560L192 464L448 464L448 560C448 568.8 455.2 576 464 576C472.8 576 480 568.8 480 560L480 461.3C498.6 454.7 512 436.9 512 416L512 368C512 341.5 490.5 320 464 320L448 320L448 128C448 92.7 419.3 64 384 64L256 64C220.7 64 192 92.7 192 128zM464 432L176 432C167.2 432 160 424.8 160 416L160 368C160 359.2 167.2 352 176 352L464 352C472.8 352 480 359.2 480 368L480 416C480 424.8 472.8 432 464 432z"/></svg>