<svg xmlns="http://www.w3.org/2000/svg" viewBox="0 0 640 640"><!--! Font Awesome Pro 7.1.0 by @fontawesome - https://fontawesome.com License - https://fontawesome.com/license (Commercial License) Copyright 2025 Fonticons, Inc. --><path fill="currentColor" d="M288.4 192C288.4 174.3 302.7 160 320.4 160C338.1 160 352.4 174.3 352.4 192C352.4 209.7 338.1 224 320.4 224C302.7 224 288.4 209.7 288.4 192zM384.4 192C384.4 156.7 355.7 128 320.4 128C285.1 128 256.4 156.7 256.4 192C256.4 227.3 285.1 256 320.4 256C355.7 256 384.4 227.3 384.4 192zM352.4 414.4C352.4 420 350.9 425.5 347.9 430.3L279.8 541.9C279 543.2 277.5 544 276 544C273.2 544 271.1 541.5 271.6 538.8L295 407.9C297.5 394.1 309.5 384 323.5 384C339.5 384 352.5 397 352.5 413L352.5 414.5zM384.4 414.4L384.4 412.9C384.4 379.2 357.1 351.9 323.4 351.9C293.9 351.9 268.6 373.1 263.4 402.1L240.1 533.1C236.1 555.4 253.3 576 276 576C288.7 576 300.5 569.4 307.1 558.6L375.3 447C381.3 437.2 384.5 425.9 384.5 414.4z"/></svg>