<svg xmlns="http://www.w3.org/2000/svg" viewBox="0 0 640 640"><!--! Font Awesome Pro 7.1.0 by @fontawesome - https://fontawesome.com License - https://fontawesome.com/license (Commercial License) Copyright 2025 Fonticons, Inc. --><path fill="currentColor" d="M192 64C209.7 64 224 78.3 224 96L224 192C224 209.7 209.7 224 192 224L96 224C78.3 224 64 209.7 64 192L64 96C64 78.3 78.3 64 96 64L192 64zM96 32C60.7 32 32 60.7 32 96L32 192C32 227.3 60.7 256 96 256L192 256C227.3 256 256 227.3 256 192L256 96C256 60.7 227.3 32 192 32L96 32zM544 416C561.7 416 576 430.3 576 448L576 544C576 561.7 561.7 576 544 576L448 576C430.3 576 416 561.7 416 544L416 448C416 430.3 430.3 416 448 416L544 416zM448 384C412.7 384 384 412.7 384 448L384 544C384 579.3 412.7 608 448 608L544 608C579.3 608 608 579.3 608 544L608 448C608 412.7 579.3 384 544 384L448 384zM160 304L160 416C160 451.3 188.7 480 224 480L336 480L336 448L310.6 448L339.8 418.8C350.1 380.4 380.4 350.2 418.7 339.9L447.9 310.7L447.9 336.1L479.9 336.1L479.9 224.1C479.9 188.8 451.2 160.1 415.9 160.1L303.9 160.1L303.9 192.1L329.3 192.1L300.1 221.3C289.8 259.7 259.5 289.9 221.2 300.2L192 329.4L192 304L160 304zM448 224L448 265.4L265.4 448L224 448C221.1 448 218.4 447.6 215.7 446.9L446.9 215.7C447.6 218.3 448 221.1 448 224zM192 374.6L374.6 192L416 192C418.9 192 421.6 192.4 424.3 193.1L193.1 424.3C192.4 421.7 192 418.9 192 416L192 374.6z"/></svg>