<svg xmlns="http://www.w3.org/2000/svg" viewBox="0 0 640 640"><!--! Font Awesome Pro 7.1.0 by @fontawesome - https://fontawesome.com License - https://fontawesome.com/license (Commercial License) Copyright 2025 Fonticons, Inc. --><path fill="currentColor" d="M188 336L548.1 336L101.2 538.5L188 336zM548.2 304L188 304L101.2 101.5L548.1 304zM66.1 101L160 320L66.1 539C64.7 542.3 64 545.9 64 549.5C64 564 75.8 576 90.3 576C94 576 97.7 575.2 101.2 573.7L586.2 353.9C599.5 347.9 608.1 334.6 608.1 320C608.1 305.4 599.5 292.1 586.2 286.1L101.2 66.3C97.8 64.8 94.1 64 90.3 64C75.8 64 64 76 64 90.5C64 94.1 64.7 97.7 66.1 101z"/></svg>