<svg xmlns="http://www.w3.org/2000/svg" viewBox="0 0 640 640"><!--! Font Awesome Pro 7.1.0 by @fontawesome - https://fontawesome.com License - https://fontawesome.com/license (Commercial License) Copyright 2025 Fonticons, Inc. --><path fill="currentColor" d="M160 128L480 128C497.7 128 512 142.3 512 160L512 245.8C521.8 239.7 532.9 236.5 544 236.2L544 160C544 124.7 515.3 96 480 96L160 96C124.7 96 96 124.7 96 160L96 480C96 515.3 124.7 544 160 544L296.1 544C290.7 533.8 286.2 523.1 282.5 512L160 512C142.3 512 128 497.7 128 480L128 160C128 142.3 142.3 128 160 128zM224 208C224 199.2 216.8 192 208 192C199.2 192 192 199.2 192 208L192 304C192 312.8 199.2 320 208 320C216.8 320 224 312.8 224 304L224 208zM288 208C288 199.2 280.8 192 272 192C263.2 192 256 199.2 256 208L256 304C256 312.8 263.2 320 272 320C280.8 320 288 312.8 288 304L288 208zM427.5 263.5C403.9 284.7 377.4 312.8 356.6 344.3C336 375.5 320 411.6 320 448C320 536.8 391.2 608 480 608C568.8 608 640 536.8 640 448C640 385.5 597.6 324.9 559.1 289.4C547.9 279.1 530.6 279.1 519.4 289.3C515.4 293 509.8 298.6 504.8 303.8C493.1 289.9 481 276.4 466.8 263.5C462.1 259.3 456.1 256 448.1 255.9C442 255.9 433.7 257.8 427.5 263.4zM447.1 288.9C462.1 302.8 474.8 317.7 488.8 334.6C496.5 343.9 510.5 344.3 518.8 335.5C523.8 330.2 533.2 320.3 539.3 314.5C574.4 347.5 608.1 399.3 608.1 448C608.1 481.6 595.4 512.1 574.5 534.8C575.6 529.5 576.1 524 576.1 518.4C576.1 461 512.3 407.9 488.7 390.2C483.5 386.3 476.6 386.3 471.4 390.2C447.8 407.9 384 461 384 518.4C384 524 384.6 529.5 385.6 534.8C364.7 512.1 352 481.6 352 448C352 420.5 364.3 390.7 383.3 361.9C401.7 334.1 425.4 308.6 447.1 288.9zM544 518.4C544 548.1 517.5 575.9 480.1 576L480 576C442.5 576 416 548.2 416 518.4C416 501 426.1 480.7 443.4 459.9C455.5 445.4 469.2 432.9 480 424.1C490.7 432.9 504.5 445.4 516.6 459.9C533.9 480.6 544 501 544 518.4z"/></svg>