<svg xmlns="http://www.w3.org/2000/svg" viewBox="0 0 640 640"><!--! Font Awesome Pro 7.1.0 by @fontawesome - https://fontawesome.com License - https://fontawesome.com/license (Commercial License) Copyright 2025 Fonticons, Inc. --><path fill="currentColor" d="M160 128C142.3 128 128 142.3 128 160L128 480C128 497.7 142.3 512 160 512L480 512C497.7 512 512 497.7 512 480L512 160C512 142.3 497.7 128 480 128L160 128zM96 160C96 124.7 124.7 96 160 96L480 96C515.3 96 544 124.7 544 160L544 480C544 515.3 515.3 544 480 544L160 544C124.7 544 96 515.3 96 480L96 160zM224 208L224 304C224 312.8 216.8 320 208 320C199.2 320 192 312.8 192 304L192 208C192 199.2 199.2 192 208 192C216.8 192 224 199.2 224 208zM288 208L288 304C288 312.8 280.8 320 272 320C263.2 320 256 312.8 256 304L256 208C256 199.2 263.2 192 272 192C280.8 192 288 199.2 288 208z"/></svg>