<svg xmlns="http://www.w3.org/2000/svg" viewBox="0 0 640 640"><!--! Font Awesome Pro 7.1.0 by @fontawesome - https://fontawesome.com License - https://fontawesome.com/license (Commercial License) Copyright 2025 Fonticons, Inc. --><path fill="currentColor" d="M384 128C401.7 128 416 142.3 416 160L416 480C416 497.7 401.7 512 384 512L64 512C46.3 512 32 497.7 32 480L32 160C32 142.3 46.3 128 64 128L384 128zM64 96C28.7 96 0 124.7 0 160L0 480C0 515.3 28.7 544 64 544L384 544C419.3 544 448 515.3 448 480L448 160C448 124.7 419.3 96 384 96L64 96zM112 192C103.2 192 96 199.2 96 208L96 304C96 312.8 103.2 320 112 320C120.8 320 128 312.8 128 304L128 208C128 199.2 120.8 192 112 192zM176 192C167.2 192 160 199.2 160 208L160 304C160 312.8 167.2 320 176 320C184.8 320 192 312.8 192 304L192 208C192 199.2 184.8 192 176 192zM600.2 157.7C607.8 153.2 610.2 143.3 605.7 135.7C601.2 128.1 591.3 125.7 583.8 130.2L503.8 178.2C496.2 182.7 493.8 192.6 498.3 200.2C502.8 207.8 512.7 210.2 520.2 205.7L600.2 157.7zM528 304C519.2 304 512 311.2 512 320C512 328.8 519.2 336 528 336L624 336C632.8 336 640 328.8 640 320C640 311.2 632.8 304 624 304L528 304zM520.2 434.3C512.6 429.8 502.8 432.2 498.3 439.8C493.8 447.4 496.2 457.2 503.8 461.8L583.8 509.8C591.4 514.3 601.2 511.9 605.7 504.3C610.2 496.7 607.8 486.9 600.2 482.3L520.2 434.3z"/></svg>