<svg xmlns="http://www.w3.org/2000/svg" viewBox="0 0 640 640"><!--! Font Awesome Pro 7.1.0 by @fontawesome - https://fontawesome.com License - https://fontawesome.com/license (Commercial License) Copyright 2025 Fonticons, Inc. --><path fill="currentColor" d="M160 128L480 128C497.7 128 512 142.3 512 160L512 322.4C523.3 324.7 534.1 328.6 544 333.8L544 160C544 124.7 515.3 96 480 96L160 96C124.7 96 96 124.7 96 160L96 480C96 515.3 124.7 544 160 544L210.1 544C208.7 536.2 208 528.2 208 520C208 517.3 208.1 514.6 208.2 512L160 512C142.3 512 128 497.7 128 480L128 160C128 142.3 142.3 128 160 128zM224 208C224 199.2 216.8 192 208 192C199.2 192 192 199.2 192 208L192 304C192 312.8 199.2 320 208 320C216.8 320 224 312.8 224 304L224 208zM288 208C288 199.2 280.8 192 272 192C263.2 192 256 199.2 256 208L256 304C256 312.8 263.2 320 272 320C280.8 320 288 312.8 288 304L288 208zM320.7 457.3C315.2 419.6 345.7 384 384 384C403.1 384 420.2 392.4 432 405.7C437.3 411.7 446.3 412.9 453 408.3C460.7 403.1 470 400 480 400C507.2 400 529.6 423.9 527.9 451.1C527.5 458.2 531.8 464.8 538.6 467.2C560.4 474.9 576 495.7 576 520.1C576 551 550.9 576.1 520 576.1L344 576.1C313.1 576.1 288 551 288 520.1C288 500.4 298.1 483.1 313.5 473.1C318.7 469.7 321.5 463.6 320.6 457.4zM384 352C329.4 352 286 399 288.1 452C268.5 468.1 256 492.6 256 520C256 568.6 295.4 608 344 608L520 608C568.6 608 608 568.6 608 520C608 485.7 588.3 456 559.7 441.5C556.2 401.1 521.8 368 480 368C468.1 368 456.8 370.6 446.7 375.3C429.9 360.8 408 352 384 352z"/></svg>