<svg xmlns="http://www.w3.org/2000/svg" viewBox="0 0 640 640"><!--! Font Awesome Pro 7.1.0 by @fontawesome - https://fontawesome.com License - https://fontawesome.com/license (Commercial License) Copyright 2025 Fonticons, Inc. --><path fill="currentColor" d="M299.4 32.5C315.3 27 332.9 27.9 348.2 35.2L520.6 118.2L526.9 121.7C541.1 130.7 551.4 145 555.2 161.6L597.8 348.1L599 355.3C600.6 369.6 597.3 384.1 589.6 396.4L585.4 402.3L466.1 551.9L461.3 557.3C451.1 567.5 437.7 573.9 423.3 575.6L416.1 576L224.8 576L217.6 575.6C203.3 574 189.9 567.5 179.6 557.3L174.8 552L55.5 402.4C43.4 387.2 38.8 367.2 43.2 348.2L85.8 161.7L87.8 154.7C92.7 140.8 102.2 129 114.8 121.3L120.4 118.3L292.8 35.3L299.5 32.6zM334.4 64.1C326.9 60.5 318.3 60 310.4 62.6L305.8 64.5L134.2 147.1C126.7 150.7 121 157 118.1 164.7L116.6 169.9L74.3 355.4C72.1 364.9 74.4 374.9 80.5 382.5L199.8 532.1L202.2 534.8C208.2 540.7 216.3 544.1 224.8 544.1L416.1 544.1C425.8 544.1 435.1 539.7 441.1 532.1L559.8 383.2L562.6 379.2C566.2 373.3 567.8 366.3 567.1 359.4L566.3 354.6L523.9 168.9C522 160.8 517 153.7 510.1 149.2L506 146.8L334.4 64.1z"/></svg>