<svg xmlns="http://www.w3.org/2000/svg" viewBox="0 0 640 640"><!--! Font Awesome Pro 7.1.0 by @fontawesome - https://fontawesome.com License - https://fontawesome.com/license (Commercial License) Copyright 2025 Fonticons, Inc. --><path fill="currentColor" d="M160 128C142.3 128 128 142.3 128 160L128 224C128 241.7 142.3 256 160 256L480 256C497.7 256 512 241.7 512 224L512 160C512 142.3 497.7 128 480 128L160 128zM96 160C96 124.7 124.7 96 160 96L480 96C515.3 96 544 124.7 544 160L544 224C544 259.3 515.3 288 480 288L160 288C124.7 288 96 259.3 96 224L96 160zM360 168C373.3 168 384 178.7 384 192C384 205.3 373.3 216 360 216C346.7 216 336 205.3 336 192C336 178.7 346.7 168 360 168zM416 192C416 178.7 426.7 168 440 168C453.3 168 464 178.7 464 192C464 205.3 453.3 216 440 216C426.7 216 416 205.3 416 192zM160 384C142.3 384 128 398.3 128 416L128 480C128 497.7 142.3 512 160 512L480 512C497.7 512 512 497.7 512 480L512 416C512 398.3 497.7 384 480 384L160 384zM96 416C96 380.7 124.7 352 160 352L480 352C515.3 352 544 380.7 544 416L544 480C544 515.3 515.3 544 480 544L160 544C124.7 544 96 515.3 96 480L96 416zM336 448C336 434.7 346.7 424 360 424C373.3 424 384 434.7 384 448C384 461.3 373.3 472 360 472C346.7 472 336 461.3 336 448zM440 424C453.3 424 464 434.7 464 448C464 461.3 453.3 472 440 472C426.7 472 416 461.3 416 448C416 434.7 426.7 424 440 424z"/></svg>