<svg xmlns="http://www.w3.org/2000/svg" viewBox="0 0 640 640"><!--! Font Awesome Pro 7.1.0 by @fontawesome - https://fontawesome.com License - https://fontawesome.com/license (Commercial License) Copyright 2025 Fonticons, Inc. --><path fill="currentColor" d="M512 160C512 124.7 483.3 96 448 96C412.7 96 384 124.7 384 160C384 165.6 384.7 171 386 176.1C388.6 186.3 393.7 195.5 400.6 203C400.9 203.4 401.2 203.7 401.6 204C413.3 216.3 429.7 223.9 448 223.9C483.3 223.9 512 195.2 512 159.9zM357.5 192C354 182 352 171.2 352 160C352 107 395 64 448 64C501 64 544 107 544 160C544 213 501 256 448 256C417.7 256 390.6 241.9 373 220L250.5 288C254 298 256 308.8 256 320C256 331.2 254.1 342 250.5 352L373 420C390.6 398 417.6 384 448 384C501 384 544 427 544 480C544 533 501 576 448 576C395 576 352 533 352 480C352 468.8 353.9 458 357.5 448L235 380C217.4 402 190.4 416 160 416C107 416 64 373 64 320C64 267 107 224 160 224C190.3 224 217.4 238.1 235 260L357.5 192zM206.4 275.9C194.7 263.6 178.3 256 160 256C124.7 256 96 284.7 96 320C96 355.3 124.7 384 160 384C178.3 384 194.7 376.3 206.4 364.1C213.1 357.1 218.2 348.5 221.1 339.1C221.4 338.1 221.7 337.2 221.9 336.2C223.2 331.1 223.9 325.6 223.9 320.1C223.9 314.6 223.2 309.1 221.9 304C219.3 293.8 214.2 284.6 207.3 277.1C207 276.7 206.7 276.4 206.3 276.1zM448 544C483.3 544 512 515.3 512 480C512 444.7 483.3 416 448 416C429.7 416 413.3 423.6 401.6 435.9C401.3 436.2 400.9 436.6 400.6 436.9C393.7 444.4 388.7 453.6 386 463.8C384.7 468.9 384 474.3 384 479.9C384 515.2 412.7 543.9 448 543.9z"/></svg>