<svg xmlns="http://www.w3.org/2000/svg" viewBox="0 0 640 640"><!--! Font Awesome Pro 7.1.0 by @fontawesome - https://fontawesome.com License - https://fontawesome.com/license (Commercial License) Copyright 2025 Fonticons, Inc. --><path fill="currentColor" d="M448 176L448 102.6L569.4 224L448 345.4L448 272C448 263.2 440.8 256 432 256L369.5 256C306.8 256 256 306.8 256 369.5C256 374.1 256.3 378.8 256.8 383.4C238.9 364.9 224 339.3 224 304.1C224 242.2 274.1 192.1 336 192.1L432 192.1C440.8 192.1 448 184.9 448 176.1zM443.3 64C428.2 64 416 76.2 416 91.3L416 160L336 160C256.5 160 192 224.5 192 304C192 397.4 274.8 438.8 292.6 446.6C293.5 447 294.5 447.3 295.4 447.5L295.5 447.5C302.7 449.2 310.1 445.6 313.4 439C316.7 432.4 315 424.3 309.3 419.6C294.6 407.4 287.9 389.6 287.9 369.4C287.9 324.4 324.4 287.9 369.4 287.9L415.9 287.9L415.9 356.6C415.9 371.7 428.1 383.9 443.2 383.9C450.4 383.9 457.4 381 462.5 375.9L603.3 235.3C609.5 229.1 609.5 218.9 603.3 212.7L462.6 72C457.5 66.9 450.5 64 443.3 64zM144 160C99.8 160 64 195.8 64 240L64 496C64 540.2 99.8 576 144 576L400 576C444.2 576 480 540.2 480 496L480 464C480 455.2 472.8 448 464 448C455.2 448 448 455.2 448 464L448 496C448 522.5 426.5 544 400 544L144 544C117.5 544 96 522.5 96 496L96 240C96 213.5 117.5 192 144 192L176 192C184.8 192 192 184.8 192 176C192 167.2 184.8 160 176 160L144 160z"/></svg>