<svg xmlns="http://www.w3.org/2000/svg" viewBox="0 0 640 640"><!--! Font Awesome Pro 7.1.0 by @fontawesome - https://fontawesome.com License - https://fontawesome.com/license (Commercial License) Copyright 2025 Fonticons, Inc. --><path fill="currentColor" d="M448 272C442.7 266.7 325.4 148.4 288 110.7L288 208C288 216.8 280.8 224 272 224L208 224C128.5 224 64 288.5 64 368C64 411.8 79.5 444.7 97.7 468.1C96.6 461.8 96 455.1 96 448C96 377.3 153.3 320 224 320L272 320C280.8 320 288 327.2 288 336L288 433.3C325.4 395.6 442.7 277.3 448 272zM283.3 72C290.4 72 297.3 74.7 302.6 80C325.7 103.3 464.9 243.7 470.6 249.4C483.1 261.9 483.1 282.2 470.6 294.7C464.9 300.4 325.6 440.8 302.6 464.1C297.3 469.4 290.4 472.1 283.3 472.1C268.2 472.1 256 459.9 256 444.8L256 352.1L224 352.1C171 352.1 128 395.1 128 448.1C128 475.5 139.2 492.2 154.2 514.6L157.3 519.2C161.3 525.2 160.8 533.2 156 538.7C151.2 544.2 143.3 545.7 136.8 542.4C119.2 533.5 32 481.5 32 368C32 270.8 110.8 192 208 192L256 192L256 99.3C256 84.2 268.2 72 283.3 72zM404.7 100.7C398.5 94.5 398.5 84.3 404.7 78.1C410.9 71.9 421.1 71.9 427.3 78.1L598.6 249.4C611.1 261.9 611.1 282.2 598.6 294.7L427.3 465.9C421.1 472.1 410.9 472.1 404.7 465.9C398.5 459.7 398.5 449.5 404.7 443.3L576 272L404.7 100.7z"/></svg>