<svg xmlns="http://www.w3.org/2000/svg" viewBox="0 0 640 640"><!--! Font Awesome Pro 7.1.0 by @fontawesome - https://fontawesome.com License - https://fontawesome.com/license (Commercial License) Copyright 2025 Fonticons, Inc. --><path fill="currentColor" d="M544 200C544 160.2 511.8 128 472 128C435.9 128 406 154.6 400.8 189.2L400.9 189.3L400.8 189.4C400.3 192.9 400 196.4 400 200L400 272C400 307.3 428.7 336 464 336L480 336C515.3 336 544 307.3 544 272L544 200zM372.5 169.8C385.4 127.1 425.1 96 472 96C516.4 96 554.2 123.8 569.2 162.9L616.9 194.7C624.3 199.6 626.2 209.5 621.3 216.9C616.4 224.3 606.5 226.2 599.1 221.3L576 205.9L576 272C576 325 533 368 480 368L464 368C411 368 368 325 368 272L368 211.2L352.9 221.3C345.5 226.2 335.6 224.2 330.7 216.9C325.8 209.6 327.8 199.6 335.1 194.7L372.4 169.8zM448 208C456.8 208 464 215.2 464 224C464 232.8 456.8 240 448 240C439.2 240 432 232.8 432 224C432 215.2 439.2 208 448 208zM496 224C496 215.2 503.2 208 512 208C520.8 208 528 215.2 528 224C528 232.8 520.8 240 512 240C503.2 240 496 232.8 496 224zM416 408C425.9 408 434.8 403.5 440.7 396.4C450.8 398.8 461.2 400 472 400C473.1 400 474.2 400 475.4 400C466.7 421.5 446.6 437.3 422.6 439.7L397.6 539.7C392.2 561 373 576 351 576L336 576C309.5 576 288 554.5 288 528L288 487.4C278.6 492.8 267.7 496 256 496C244.3 496 233.4 492.9 224 487.4L224 528C224 554.5 202.5 576 176 576L161 576C139 576 119.8 561 114.4 539.6L89.4 439.6C57.1 436.3 32 409.1 32 375.9C32 370.6 32.7 365.4 33.9 360.4C13.7 349.6 0 328.4 0 303.9C0 279.4 13.7 258.2 33.9 247.4C32.7 242.4 32 237.2 32 231.9C32 196.6 60.7 167.9 96 167.9C99.3 167.9 102.6 168.2 105.8 168.7C112.6 140.7 137.9 119.9 168 119.9C183 119.9 196.9 125.1 207.8 133.8C219.5 120.4 236.8 111.9 256 111.9C275.2 111.9 292.5 120.4 304.2 133.8C315.1 125.1 329 119.9 344 119.9C349.7 119.9 355.2 120.6 360.5 122C354.1 131.2 348.8 141.2 344.7 151.9L344 151.9C336.4 151.9 329.6 154.5 324.1 158.8C310.7 169.4 291.3 167.7 280.1 154.8C274.2 148 265.6 143.8 256 143.8C246.4 143.8 237.8 148 231.9 154.8C220.6 167.7 201.3 169.4 187.9 158.8C182.4 154.5 175.6 151.9 168 151.9C153 151.9 140.3 162.3 136.9 176.2C133 192.3 117.3 202.8 100.9 200.2C99.3 200 97.7 199.8 95.9 199.8C78.2 199.8 63.9 214.1 63.9 231.8C63.9 234.5 64.2 237.1 64.8 239.6C68.3 253.8 61.8 268.6 48.8 275.6C38.6 281 31.8 291.7 31.8 303.9C31.8 316.1 38.6 326.7 48.8 332.2C61.7 339.1 68.3 353.9 64.8 368.2C64.2 370.7 63.9 373.3 63.9 376C63.9 393.7 78.2 408 95.9 408C97.6 408 99.3 407.9 100.9 407.6C117.3 405.1 132.9 415.5 136.9 431.6C140.3 445.6 153 455.9 168 455.9C175.6 455.9 182.4 453.3 187.9 449C201.3 438.4 220.7 440.1 231.9 453C237.8 459.8 246.4 464 256 464C265.6 464 274.2 459.8 280.1 453C291.4 440.1 310.7 438.4 324.1 449C329.6 453.3 336.4 455.9 344 455.9C359 455.9 371.7 445.5 375.1 431.6C379 415.5 394.7 405 411.1 407.6C412.7 407.8 414.3 408 416.1 408zM344 488C335.5 488 327.4 486.3 320 483.3L320 528C320 536.8 327.2 544 336 544L351 544C358.3 544 364.7 539 366.5 531.9L380.3 476.7C370 483.8 357.5 488 344 488zM131.7 476.7L145.5 531.9C147.3 539 153.7 544 161 544L176 544C184.8 544 192 536.8 192 528L192 483.3C184.6 486.3 176.5 488 168 488C154.5 488 142 483.8 131.7 476.7z"/></svg>