<svg xmlns="http://www.w3.org/2000/svg" viewBox="0 0 640 640"><!--! Font Awesome Pro 7.1.0 by @fontawesome - https://fontawesome.com License - https://fontawesome.com/license (Commercial License) Copyright 2025 Fonticons, Inc. --><path fill="currentColor" d="M192 544L320 544L320 448C320 412.7 348.7 384 384 384L480 384L480 128C480 110.3 465.7 96 448 96L192 96C174.3 96 160 110.3 160 128L160 512C160 529.7 174.3 544 192 544zM352 530.7L466.7 416L384 416C366.3 416 352 430.3 352 448L352 530.7zM192 576C156.7 576 128 547.3 128 512L128 128C128 92.7 156.7 64 192 64L448 64C483.3 64 512 92.7 512 128L512 389.5C512 406.5 505.3 422.8 493.3 434.8L370.7 557.3C358.7 569.3 342.4 576 325.4 576L192 576zM267.3 171.3L235.3 203.3C229.1 209.5 218.9 209.5 212.7 203.3C206.5 197.1 206.5 186.9 212.7 180.7L244.7 148.7C250.9 142.5 261.1 142.5 267.3 148.7C273.5 154.9 273.5 165.1 267.3 171.3zM363.3 203.3L267.3 299.3C261.1 305.5 250.9 305.5 244.7 299.3C238.5 293.1 238.5 282.9 244.7 276.7L340.7 180.7C346.9 174.5 357.1 174.5 363.3 180.7C369.5 186.9 369.5 197.1 363.3 203.3z"/></svg>