<svg xmlns="http://www.w3.org/2000/svg" viewBox="0 0 640 640"><!--! Font Awesome Pro 7.1.0 by @fontawesome - https://fontawesome.com License - https://fontawesome.com/license (Commercial License) Copyright 2025 Fonticons, Inc. --><path fill="currentColor" d="M80 64C88.8 64 96 71.2 96 80L96 224L544 224L544 80C544 71.2 551.2 64 560 64C568.8 64 576 71.2 576 80L576 560C576 568.8 568.8 576 560 576C551.2 576 544 568.8 544 560L544 512L96 512L96 560C96 568.8 88.8 576 80 576C71.2 576 64 568.8 64 560L64 80C64 71.2 71.2 64 80 64zM96 480L544 480L544 256L96 256L96 480zM216 352C211.6 352 208 355.6 208 360L208 408C208 412.4 211.6 416 216 416L264 416C268.4 416 272 412.4 272 408L272 360C272 355.6 268.4 352 264 352L216 352zM176 360C176 337.9 193.9 320 216 320L264 320C286.1 320 304 337.9 304 360L304 408C304 430.1 286.1 448 264 448L216 448C193.9 448 176 430.1 176 408L176 360zM424 352L376 352C371.6 352 368 355.6 368 360L368 408C368 412.4 371.6 416 376 416L424 416C428.4 416 432 412.4 432 408L432 360C432 355.6 428.4 352 424 352zM376 320L424 320C446.1 320 464 337.9 464 360L464 408C464 430.1 446.1 448 424 448L376 448C353.9 448 336 430.1 336 408L336 360C336 337.9 353.9 320 376 320zM376 96C371.6 96 368 99.6 368 104L368 152C368 156.4 371.6 160 376 160L424 160C428.4 160 432 156.4 432 152L432 104C432 99.6 428.4 96 424 96L376 96zM336 104C336 81.9 353.9 64 376 64L424 64C446.1 64 464 81.9 464 104L464 152C464 174.1 446.1 192 424 192L376 192C353.9 192 336 174.1 336 152L336 104z"/></svg>