<svg xmlns="http://www.w3.org/2000/svg" viewBox="0 0 640 640"><!--! Font Awesome Pro 7.1.0 by @fontawesome - https://fontawesome.com License - https://fontawesome.com/license (Commercial License) Copyright 2025 Fonticons, Inc. --><path fill="currentColor" d="M96 80C96 71.2 88.8 64 80 64C71.2 64 64 71.2 64 80L64 560C64 568.8 71.2 576 80 576C88.8 576 96 568.8 96 560L96 512L544 512L544 560C544 568.8 551.2 576 560 576C568.8 576 576 568.8 576 560L576 80C576 71.2 568.8 64 560 64C551.2 64 544 71.2 544 80L544 224L96 224L96 80zM96 256L544 256L544 480L96 480L96 256z"/></svg>