<svg xmlns="http://www.w3.org/2000/svg" viewBox="0 0 640 640"><!--! Font Awesome Pro 7.1.0 by @fontawesome - https://fontawesome.com License - https://fontawesome.com/license (Commercial License) Copyright 2025 Fonticons, Inc. --><path fill="currentColor" d="M307.6 101.3C315.6 97.9 324.6 97.9 332.6 101.3L509.3 176.3C520.6 181.1 528.2 191.8 528.1 203.9C527.6 297.9 488.7 463.7 332.6 538.4C324.7 542.2 315.4 542.2 307.5 538.4C151.4 463.7 112.5 298 112.1 203.9C112 191.8 119.6 181.1 130.9 176.3L307.6 101.3zM345.1 71.8C329.1 65 311.1 65 295.1 71.8L118.3 146.8C96.3 156.1 79.9 177.8 80 204C80.5 303.2 121.3 484.7 293.6 567.2C310.3 575.2 329.7 575.2 346.4 567.2C518.8 484.7 559.6 303.2 560 204C560.1 177.8 543.7 156.1 521.7 146.8L345.1 71.8zM235.3 196.7C230.7 192.1 223.8 190.8 217.9 193.2C212 195.6 208 201.5 208 208L208 336C208 397.9 258.1 448 320 448C381.9 448 432 397.9 432 336L432 208C432 201.5 428.1 195.7 422.1 193.2C416.1 190.7 409.2 192.1 404.7 196.7L345.4 256L294.7 256L235.4 196.7zM240 336L240 246.6L276.7 283.3C279.7 286.3 283.8 288 288 288L352 288C356.2 288 360.3 286.3 363.3 283.3L400 246.6L400 336C400 380.2 364.2 416 320 416C275.8 416 240 380.2 240 336zM296 336C296 327.2 288.8 320 280 320C271.2 320 264 327.2 264 336C264 344.8 271.2 352 280 352C288.8 352 296 344.8 296 336zM360 352C368.8 352 376 344.8 376 336C376 327.2 368.8 320 360 320C351.2 320 344 327.2 344 336C344 344.8 351.2 352 360 352z"/></svg>