<svg xmlns="http://www.w3.org/2000/svg" viewBox="0 0 640 640"><!--! Font Awesome Pro 7.1.0 by @fontawesome - https://fontawesome.com License - https://fontawesome.com/license (Commercial License) Copyright 2025 Fonticons, Inc. --><path fill="currentColor" d="M59.3 36.8C53.1 30.6 42.9 30.6 36.7 36.8C30.5 43 30.5 53.2 36.7 59.4L580.7 603.4C586.9 609.6 597.1 609.6 603.3 603.4C609.5 597.2 609.5 587 603.3 580.8L479.4 456.9C541.7 371.6 559.7 269.8 560 204C560.1 177.8 543.7 156.1 521.7 146.8L345 71.8C329 65 311 65 295 71.8L154.1 131.6L59.3 36.8zM178.5 156L307.5 101.3C315.5 97.9 324.5 97.9 332.5 101.3L509.2 176.3C520.5 181.1 528.1 191.8 528 203.9C527.7 265.1 511.1 356.8 456.4 434L178.5 156zM80 204C80.5 303.2 121.3 484.7 293.6 567.2C310.3 575.2 329.7 575.2 346.4 567.2C376.6 552.8 402.7 535.3 425.3 515.8L402.5 493C382.3 510.2 359.1 525.6 332.6 538.3C324.7 542.1 315.4 542.1 307.5 538.3C151.4 463.6 112.5 297.9 112.1 203.8C112.1 203.4 112.1 202.9 112.1 202.5L86.3 176.8C82.3 184.9 80 194.1 80 204z"/></svg>