<svg xmlns="http://www.w3.org/2000/svg" viewBox="0 0 640 640"><!--! Font Awesome Pro 7.1.0 by @fontawesome - https://fontawesome.com License - https://fontawesome.com/license (Commercial License) Copyright 2025 Fonticons, Inc. --><path fill="currentColor" d="M304 102.8L304 536.6C150.8 461.1 112.5 297.2 112 203.8C112 191.7 119.5 181 130.8 176.3L304 102.8zM336 536.6L336 102.7L509.2 176.2C520.5 181 528.1 191.7 528 203.8C527.5 297.1 489.2 461.1 336 536.6zM345 71.8C329 65 311 65 295 71.8L118.3 146.8C96.3 156.1 79.9 177.8 80 204C80.5 303.2 121.3 484.7 293.6 567.2C310.3 575.2 329.7 575.2 346.4 567.2C518.8 484.7 559.6 303.2 560 204C560.1 177.8 543.7 156.1 521.7 146.8L345.1 71.8z"/></svg>