<svg xmlns="http://www.w3.org/2000/svg" viewBox="0 0 640 640"><!--! Font Awesome Pro 7.1.0 by @fontawesome - https://fontawesome.com License - https://fontawesome.com/license (Commercial License) Copyright 2025 Fonticons, Inc. --><path fill="currentColor" d="M307.6 101.3C315.6 97.9 324.6 97.9 332.6 101.3L509.3 176.3C520.6 181.1 528.2 191.8 528.1 203.9C527.6 297.9 488.7 463.7 332.6 538.4C324.7 542.2 315.4 542.2 307.5 538.4C151.4 463.7 112.5 298 112.1 203.9C112 191.8 119.6 181.1 130.9 176.3L307.6 101.3zM345.1 71.8C329.1 65 311.1 65 295.1 71.8L118.3 146.8C96.3 156.1 79.9 177.8 80 204C80.5 303.2 121.3 484.7 293.6 567.2C310.3 575.2 329.7 575.2 346.4 567.2C518.8 484.7 559.6 303.2 560 204C560.1 177.8 543.7 156.1 521.7 146.8L345.1 71.8zM336 176C336 167.2 328.8 160 320 160C311.2 160 304 167.2 304 176L304 240L176 240C167.2 240 160 247.2 160 256C160 264.8 167.2 272 176 272L304 272L304 464C304 472.8 311.2 480 320 480C328.8 480 336 472.8 336 464L336 272L464 272C472.8 272 480 264.8 480 256C480 247.2 472.8 240 464 240L336 240L336 176z"/></svg>