<svg xmlns="http://www.w3.org/2000/svg" viewBox="0 0 640 640"><!--! Font Awesome Pro 7.1.0 by @fontawesome - https://fontawesome.com License - https://fontawesome.com/license (Commercial License) Copyright 2025 Fonticons, Inc. --><path fill="currentColor" d="M130.8 176.3C119.5 181.1 111.9 191.8 112 203.9C112.1 223.9 113.9 247.1 118.3 272.1L304 272.1L304 102.9L130.8 176.4zM125.1 304C146.4 388.6 197.3 484.1 304 536.6L304 304L125.1 304zM336 304L336 536.6C442.7 484.1 493.7 388.6 515 304L336 304zM521.8 272C526.1 247.1 528 223.8 528.1 203.8C528.2 191.7 520.6 181 509.3 176.2L336 102.8L336 272L521.8 272zM295.1 71.8C311.1 65 329.1 65 345.1 71.8L521.8 146.8C543.8 156.1 560.2 177.8 560.1 204C559.6 303.2 518.8 484.7 346.5 567.2C329.8 575.2 310.4 575.2 293.7 567.2C121.3 484.7 80.6 303.2 80.1 204C80 177.8 96.4 156.1 118.4 146.8L295.1 71.8z"/></svg>