<svg xmlns="http://www.w3.org/2000/svg" viewBox="0 0 640 640"><!--! Font Awesome Pro 7.1.0 by @fontawesome - https://fontawesome.com License - https://fontawesome.com/license (Commercial License) Copyright 2025 Fonticons, Inc. --><path fill="currentColor" d="M307.6 101.3C315.6 97.9 324.6 97.9 332.6 101.3L509.3 176.3C520.6 181.1 528.2 191.8 528.1 203.9C527.6 297.9 488.7 463.7 332.6 538.4C324.7 542.2 315.4 542.2 307.5 538.4C151.4 463.7 112.5 298 112.1 203.9C112 191.8 119.6 181.1 130.9 176.3L307.6 101.3zM345.1 71.8C329.1 65 311.1 65 295.1 71.8L118.3 146.8C96.3 156.1 79.9 177.8 80 204C80.5 303.2 121.3 484.7 293.6 567.2C310.3 575.2 329.7 575.2 346.4 567.2C518.8 484.7 559.6 303.2 560 204C560.1 177.8 543.7 156.1 521.7 146.8L345.1 71.8zM340.5 250.2C347 243.7 355.9 240 365.2 240L368.1 240C385.8 240 400.1 254.3 400.1 272C400.1 293.4 385.6 314.5 365.5 333C348.6 348.5 330.1 360 320.1 365.7C310.1 360 291.6 348.5 274.7 333C254.6 314.5 240.1 293.3 240.1 272C240.1 254.3 254.4 240 272.1 240L275 240C284.3 240 293.1 243.7 299.7 250.2L308.8 259.3C311.8 262.3 315.9 264 320.1 264C324.3 264 328.4 262.3 331.4 259.3L340.5 250.2zM365.1 208C348.4 208 332.3 214.3 320 225.5C307.7 214.3 291.6 208 274.9 208L272 208C236.7 208 208 236.7 208 272C208 307.3 231.1 336.5 253 356.6C275.4 377.2 299.8 391.3 308.9 396.2C315.9 400 324.2 400 331.1 396.2C340.2 391.3 364.6 377.2 387 356.6C408.8 336.5 432 307.3 432 272C432 236.7 403.3 208 368 208L365.1 208z"/></svg>