<svg xmlns="http://www.w3.org/2000/svg" viewBox="0 0 640 640"><!--! Font Awesome Pro 7.1.0 by @fontawesome - https://fontawesome.com License - https://fontawesome.com/license (Commercial License) Copyright 2025 Fonticons, Inc. --><path fill="currentColor" d="M307.6 101.3C315.6 97.9 324.6 97.9 332.6 101.3L509.3 176.3C520.6 181.1 528.2 191.8 528.1 203.9C527.6 297.9 488.7 463.7 332.6 538.4C324.7 542.2 315.4 542.2 307.5 538.4C151.4 463.7 112.5 298 112.1 203.9C112 191.8 119.6 181.1 130.9 176.3L307.6 101.3zM345.1 71.8C329.1 65 311.1 65 295.1 71.8L118.3 146.8C96.3 156.1 79.9 177.8 80 204C80.5 303.2 121.3 484.7 293.6 567.2C310.3 575.2 329.7 575.2 346.4 567.2C518.8 484.7 559.6 303.2 560 204C560.1 177.8 543.7 156.1 521.7 146.8L345.1 71.8zM320 248C333.3 248 344 258.7 344 272C344 285.3 333.3 296 320 296C306.7 296 296 285.3 296 272C296 258.7 306.7 248 320 248zM376 272C376 241.1 350.9 216 320 216C289.1 216 264 241.1 264 272C264 297.4 280.9 318.8 304 325.7L304 400C304 408.8 311.2 416 320 416C328.8 416 336 408.8 336 400L336 325.7C359.1 318.8 376 297.4 376 272z"/></svg>