<svg xmlns="http://www.w3.org/2000/svg" viewBox="0 0 640 640"><!--! Font Awesome Pro 7.1.0 by @fontawesome - https://fontawesome.com License - https://fontawesome.com/license (Commercial License) Copyright 2025 Fonticons, Inc. --><path fill="currentColor" d="M307.6 101.3C315.6 97.9 324.6 97.9 332.6 101.3L509.3 176.3C520.6 181.1 528.2 191.8 528.1 203.9C527.6 297.9 488.7 463.7 332.6 538.4C324.7 542.2 315.4 542.2 307.5 538.4C151.4 463.7 112.5 298 112.1 203.9C112 191.8 119.6 181.1 130.9 176.3L307.6 101.3zM345.1 71.8C329.1 65 311.1 65 295.1 71.8L118.3 146.8C96.3 156.1 79.9 177.8 80 204C80.5 303.2 121.3 484.7 293.6 567.2C310.3 575.2 329.7 575.2 346.4 567.2C518.8 484.7 559.6 303.2 560 204C560.1 177.8 543.7 156.1 521.7 146.8L345.1 71.8zM264 192L242.7 192C210.3 192 184 218.3 184 250.7L184 280C184 302.6 197.4 322.1 216.7 330.9L201.7 360.8C197.7 368.7 201 378.3 208.9 382.3C216.8 386.3 226.4 383 230.4 375.1L250.4 335C276.4 330.1 296 307.3 296 280L296 224L356.2 224C362.3 224 367.8 227.4 370.5 232.8L377.7 247.1C380.4 252.5 385.9 255.9 392 255.9L448 255.9L448 271.9C448 307.2 419.3 335.9 384 335.9L336 335.9C327.2 335.9 320 343.1 320 351.9L320 431.9C320 440.7 327.2 447.9 336 447.9C344.8 447.9 352 440.7 352 431.9L352 367.9L384 367.9C437 367.9 480 324.9 480 271.9L480 255.9C480 238.2 465.7 223.9 448 223.9L401.9 223.9L399.2 218.4C391.1 202.1 374.4 191.9 356.3 191.9L264 192zM239.8 304C226.7 303.9 216.1 293.2 216.1 280L216.1 250.7C216.1 239.8 222.7 230.4 232.1 226.3C235.4 224.9 239 224.1 242.8 224.1L264.1 224.1L264.1 280.1C264.1 293.3 253.5 304 240.4 304.1L239.9 304.1zM336 272C344.8 272 352 264.8 352 256C352 247.2 344.8 240 336 240C327.2 240 320 247.2 320 256C320 264.8 327.2 272 336 272z"/></svg>