<svg xmlns="http://www.w3.org/2000/svg" viewBox="0 0 640 640"><!--! Font Awesome Pro 7.1.0 by @fontawesome - https://fontawesome.com License - https://fontawesome.com/license (Commercial License) Copyright 2025 Fonticons, Inc. --><path fill="currentColor" d="M295.1 71.9C311.1 65.1 329.1 65.1 345.1 71.9L521.8 146.8C543.8 156.1 560.2 177.8 560.1 204C559.6 303.2 518.8 484.7 346.4 567.2C329.7 575.2 310.3 575.2 293.7 567.2C121.3 484.7 80.6 303.2 80.1 204C80 177.8 96.4 156.1 118.4 146.8L295.1 71.9zM332.6 101.3C324.6 97.9 315.6 97.9 307.6 101.3L130.9 176.3C119.6 181.1 112.1 191.8 112.1 203.9C112.6 297.9 151.4 463.7 307.5 538.4C315.4 542.2 324.7 542.2 332.6 538.4C488.7 463.7 527.6 298 528.1 203.9C528.2 191.8 520.6 181.1 509.3 176.3L332.6 101.3zM320 432C306.7 432 296 421.3 296 408C296 394.7 306.7 384 320 384C333.3 384 344 394.7 344 408C344 421.3 333.3 432 320 432zM320 176C333.5 176 344.3 187.4 343.5 200.9L335.9 336.9C335.4 345.4 328.4 352 319.9 352C311.4 352 304.4 345.4 303.9 336.9L296.3 200.9C295.5 187.4 306.3 176 319.8 176z"/></svg>