<svg xmlns="http://www.w3.org/2000/svg" viewBox="0 0 640 640"><!--! Font Awesome Pro 7.1.0 by @fontawesome - https://fontawesome.com License - https://fontawesome.com/license (Commercial License) Copyright 2025 Fonticons, Inc. --><path fill="currentColor" d="M332.6 101.3C324.6 97.9 315.6 97.9 307.6 101.3L130.9 176.3C119.6 181.1 112 191.8 112.1 203.9C112.6 297.9 151.4 463.7 307.5 538.4C315.4 542.2 324.7 542.2 332.6 538.4C488.7 463.7 527.6 298 528.1 203.9C528.2 191.8 520.6 181.1 509.3 176.3L332.6 101.3zM295.1 71.8C311.1 65 329.1 65 345.1 71.8L521.8 146.8C543.8 156.1 560.2 177.8 560.1 204C559.6 303.2 518.8 484.7 346.5 567.2C329.8 575.2 310.4 575.2 293.7 567.2C121.3 484.7 80.6 303.2 80.1 204C80 177.8 96.4 156.1 118.4 146.8L295.1 71.8z"/></svg>