<svg xmlns="http://www.w3.org/2000/svg" viewBox="0 0 640 640"><!--! Font Awesome Pro 7.1.0 by @fontawesome - https://fontawesome.com License - https://fontawesome.com/license (Commercial License) Copyright 2025 Fonticons, Inc. --><path fill="currentColor" d="M307.6 101.3C315.6 97.9 324.6 97.9 332.6 101.3L509.3 176.3C520.6 181.1 528.2 191.8 528.1 203.9C527.6 297.9 488.7 463.7 332.6 538.4C324.7 542.2 315.4 542.2 307.5 538.4C151.4 463.7 112.5 298 112.1 203.9C112 191.8 119.6 181.1 130.9 176.3L307.6 101.3zM345.1 71.8C329.1 65 311.1 65 295.1 71.8L118.3 146.8C96.3 156.1 79.9 177.8 80 204C80.5 303.2 121.3 484.7 293.6 567.2C310.3 575.2 329.7 575.2 346.4 567.2C518.8 484.7 559.6 303.2 560 204C560.1 177.8 543.7 156.1 521.7 146.8L345.1 71.8zM252.7 236.7C246.5 242.9 246.5 253.1 252.7 259.3L297.4 304L252.7 348.7C246.5 354.9 246.5 365.1 252.7 371.3C258.9 377.5 269.1 377.5 275.3 371.3L320 326.6L364.7 371.3C370.9 377.5 381.1 377.5 387.3 371.3C393.5 365.1 393.5 354.9 387.3 348.7L342.6 304L387.3 259.3C393.5 253.1 393.5 242.9 387.3 236.7C381.1 230.5 370.9 230.5 364.7 236.7L320 281.4L275.3 236.7C269.1 230.5 258.9 230.5 252.7 236.7z"/></svg>