<svg xmlns="http://www.w3.org/2000/svg" viewBox="0 0 640 640"><!--! Font Awesome Pro 7.1.0 by @fontawesome - https://fontawesome.com License - https://fontawesome.com/license (Commercial License) Copyright 2025 Fonticons, Inc. --><path fill="currentColor" d="M295.1 71.9C311.1 65.1 329.1 65.1 345.1 71.9L521.8 146.8L525.8 148.7C544.4 158.2 558.2 176.7 559.9 199.1L560.1 203.9L559.5 223.4C554 325.4 508 489.8 346.4 567.1L340.8 569.4C329.5 573.5 317.3 574.1 305.7 571.4L300 569.7L293.6 567.1C132.1 489.8 86.1 325.5 80.6 223.5L80 204C79.9 179.4 94.3 158.8 114.2 148.7L118.3 146.8L295 71.9zM332.6 101.3C325.6 98.3 317.8 98 310.7 100.2L307.7 101.3L130.9 176.2C119.6 181 112 191.8 112 203.8L112.6 222.2C117.8 318.1 161 467.9 306.9 538L310.9 539.6C318 541.9 325.8 541.5 332.6 538.3L346.9 531C491.1 453.3 527.6 294.9 528.1 203.8L528 201.3C527.2 191.1 520.8 182 511.3 177.2L511.3 177.2L508.7 176L332.6 101.3zM352 336C396.2 336 432 371.8 432 416C432 424.8 424.8 432 416 432C407.2 432 400 424.8 400 416C400 389.5 378.5 368 352 368L288 368C261.5 368 240 389.5 240 416C240 424.8 232.8 432 224 432C215.2 432 208 424.8 208 416C208 371.8 243.8 336 288 336L352 336zM320 304C284.7 304 256 275.3 256 240C256 204.7 284.7 176 320 176C355.3 176 384 204.7 384 240C384 275.3 355.3 304 320 304zM320 208C302.3 208 288 222.3 288 240C288 257.7 302.3 272 320 272C337.7 272 352 257.7 352 240C352 222.3 337.7 208 320 208z"/></svg>