<svg xmlns="http://www.w3.org/2000/svg" viewBox="0 0 640 640"><!--! Font Awesome Pro 7.1.0 by @fontawesome - https://fontawesome.com License - https://fontawesome.com/license (Commercial License) Copyright 2025 Fonticons, Inc. --><path fill="currentColor" d="M390.6 503.2C426.8 481.5 473 483 507.8 507.9L514.6 512.6C530.5 523.2 546.5 531.1 562.2 534.1C579.4 537.4 596.8 534.9 614.8 522.1L617.6 520.5C624.4 517.5 632.6 519.6 637.1 525.8C642.2 533 640.5 543 633.4 548.1L628.6 551.4C604.5 566.9 579.8 570.1 556.2 565.6C534.8 561.5 514.7 551.1 496.8 539.2L489.3 534C464.9 516.6 432.6 515.5 407.2 530.7L402.2 534C378.2 551.1 352.7 566.1 325.6 567.9L320 568C294.5 568 270.4 555.9 247.7 540.6L238 533.9C213.6 516.5 181.2 515.4 155.9 530.6L150.9 533.9C127.7 550.4 100 565.6 70 567.3L64 567.5C47.1 567.4 30.2 562.9 13.8 552.9L6.8 548.2L4.4 546.1C-.7 540.7-1.4 532.2 3.1 525.9C7.6 519.6 15.8 517.5 22.6 520.6L25.4 522.2L30.4 525.5C42 532.6 53.3 535.4 64.2 535.5L68.3 535.4C89.1 534.2 110.6 523.5 132.3 508L139.4 503.3C175.6 481.6 221.7 483.1 256.5 508L265.7 514.4C286.7 528.4 304 536.1 319.9 536.2L326.8 535.7C343.1 533.5 361.2 523.8 383.4 508L390.5 503.3zM320 32C328.8 32 336 39.2 336 48L336 80L432 80C458.5 80 480 101.5 480 128L480 193.9L511.1 200.6L516.3 202C541.7 210.5 555.6 238.6 546 264.4L513.1 352.2C512.4 354 512.1 355.9 512.1 357.8L512.1 455C501.8 450.1 491.1 446.4 480.1 443.9L480.1 357.8C480.1 352 481.1 346.3 483.2 340.9L516 253.1C519.4 244 513.9 233.9 504.3 231.8L336 195.8L336 481.4C329.5 485.1 325.3 486.8 322.8 487.5L320 488C318.9 488 314.4 487.3 304 481.4L304 195.7L135.7 231.8C126.1 233.8 120.6 243.9 124 253.1L156.9 340.9L158.2 345C159.3 349.2 159.9 353.5 159.9 357.8L159.9 443.9C149 446.4 138.2 450.1 127.9 455L127.9 357.8C127.9 356.8 127.8 355.9 127.7 354.9L126.9 352.2L94 264.4C83.7 236.9 100.2 206.8 128.9 200.6L160 193.9L160 128C160 101.5 181.5 80 208 80L304 80L304 48C304 39.2 311.2 32 320 32zM208 112C199.2 112 192 119.2 192 128L192 187.1L309.9 161.8C316.5 160.4 323.4 160.4 330 161.8L448 187.1L448 128C448 119.2 440.8 112 432 112L208 112z"/></svg>