<svg xmlns="http://www.w3.org/2000/svg" viewBox="0 0 640 640"><!--! Font Awesome Pro 7.1.0 by @fontawesome - https://fontawesome.com License - https://fontawesome.com/license (Commercial License) Copyright 2025 Fonticons, Inc. --><path fill="currentColor" d="M272 96C263.2 96 256 103.2 256 112L256 128L384 128L384 112C384 103.2 376.8 96 368 96L272 96zM224 128L224 112C224 85.5 245.5 64 272 64L368 64C394.5 64 416 85.5 416 112L416 128L432 128C476.2 128 512 163.8 512 208L512 316.8L533.6 325.4C548.4 331.3 556.1 347.8 551 362.9C540 395.9 522.4 425.2 499.9 449.7C488.1 445.3 475.8 442.4 463.4 440.9C488.7 417.8 508.4 388.3 520 354.4L336 280.9L336 481.5C329.5 485.2 325.3 486.8 322.8 487.5L320 488C318.9 488 314.4 487.3 304 481.5L304 280.9L119.9 354.5C131.5 388.4 151.3 417.9 176.5 441C164.1 442.4 151.9 445.4 140 449.8C117.5 425.3 99.9 395.9 88.9 363C83.8 347.8 91.5 331.4 106.3 325.5L127.9 316.9L127.9 208.1C127.9 163.9 163.7 128.1 207.9 128.1L223.9 128.1zM480 208C480 181.5 458.5 160 432 160L208 160C181.5 160 160 181.5 160 208L160 304L296.2 249.5C311.5 243.4 328.5 243.4 343.7 249.5L480 304L480 208zM402 533.9C376.4 552.2 349.1 568 320 568C290.9 568 263.6 552.2 238 533.9C212 515.3 176.9 515.3 150.9 533.9C126.2 551.5 96.3 567.6 64 567.4C44.7 567.3 25.4 561.4 6.8 548.1C-.4 543-2.1 533 3.1 525.8C8.3 518.6 18.2 516.9 25.4 522.1C38.8 531.7 51.8 535.4 64.2 535.4C86.2 535.5 109.2 524.4 132.4 507.9C169.5 481.4 219.5 481.4 256.7 507.9C282 526 302 536 320.2 536C338.4 536 358.3 525.9 383.7 507.9C420.8 481.4 470.8 481.4 508 507.9C526.2 520.9 544.5 530.7 562.4 534.1C579.6 537.4 597 534.9 615 522.1C622.2 517 632.2 518.6 637.3 525.8C642.4 533 640.8 543 633.6 548.1C608 566.3 581.6 570.3 556.4 565.5C531.9 560.8 509.2 548 489.4 533.9C463.4 515.3 428.3 515.3 402.3 533.9z"/></svg>