<svg xmlns="http://www.w3.org/2000/svg" viewBox="0 0 640 640"><!--! Font Awesome Pro 7.1.0 by @fontawesome - https://fontawesome.com License - https://fontawesome.com/license (Commercial License) Copyright 2025 Fonticons, Inc. --><path fill="currentColor" d="M216.6 96L225.4 96C233 141.4 272.5 176 320.1 176C367.7 176 407.2 141.4 414.8 96L423.6 96C435.5 96 446.9 100.4 455.7 108.3L543.3 187.2L479.6 263.6L473.7 259.2C468.9 255.6 462.4 255 456.9 257.7C451.4 260.4 448 265.9 448 272L448 528C448 536.8 440.8 544 432 544L208 544C199.2 544 192 536.8 192 528L192 272C192 265.9 188.6 260.4 183.2 257.7C177.8 255 171.3 255.6 166.4 259.2L160.5 263.6L96.8 187.2L184.4 108.3C193.2 100.4 204.7 96 216.5 96zM567 208.6L585.9 225.6L525.5 298.1L505.2 282.9L567.1 208.7zM54.2 225.6L73.1 208.6L135 282.8L114.7 298L54.3 225.5zM423.4 64L216.6 64C196.8 64 177.7 71.3 163 84.5L21.3 212.1C14.9 217.9 14.2 227.6 19.7 234.2L99.7 330.2C105.2 336.7 114.8 337.9 121.6 332.8L160 304L160 528C160 554.5 181.5 576 208 576L432 576C458.5 576 480 554.5 480 528L480 304L518.4 332.8C525.2 337.9 534.8 336.8 540.3 330.2L620.3 234.2C625.8 227.6 625.1 217.8 618.7 212.1L477 84.5C462.3 71.3 443.2 64 423.4 64zM320 144C290.2 144 265.1 123.6 258 96L382 96C374.9 123.6 349.8 144 320 144zM312 256L328 256C341.3 256 352 266.7 352 280L352 328C352 341.3 341.3 352 328 352L312 352C298.7 352 288 341.3 288 328L288 280C288 266.7 298.7 256 312 256zM256 280L256 328C256 358.9 281.1 384 312 384L328 384C358.9 384 384 358.9 384 328L384 280C384 249.1 358.9 224 328 224L312 224C281.1 224 256 249.1 256 280z"/></svg>