<svg xmlns="http://www.w3.org/2000/svg" viewBox="0 0 640 640"><!--! Font Awesome Pro 7.1.0 by @fontawesome - https://fontawesome.com License - https://fontawesome.com/license (Commercial License) Copyright 2025 Fonticons, Inc. --><path fill="currentColor" d="M224 80C224 71.2 216.8 64 208 64C199.2 64 192 71.2 192 80C192 214.3 162.7 272.6 146.4 294.6C137.5 306.5 128 323.2 128 342.2L128 520C128 550.9 153.1 576 184 576L456 576C486.9 576 512 550.9 512 520L512 342.2C512 323.2 502.5 306.5 493.6 294.6C477.3 272.6 448 214.4 448 80C448 71.2 440.8 64 432 64C423.2 64 416 71.2 416 80L416 128C416 181 373 224 320 224C267 224 224 181 224 128L224 80zM214.5 200.5C237.6 234 276.2 256 320 256C363.8 256 402.4 234 425.5 200.5C436.2 260.3 453.9 294.6 467.9 313.6C475.5 323.8 480 333.6 480 342.2L480 520C480 533.3 469.3 544 456 544L184 544C170.7 544 160 533.3 160 520L160 342.2C160 333.6 164.6 323.8 172.1 313.6C186.1 294.6 203.8 260.3 214.5 200.5z"/></svg>