<svg xmlns="http://www.w3.org/2000/svg" viewBox="0 0 640 640"><!--! Font Awesome Pro 7.1.0 by @fontawesome - https://fontawesome.com License - https://fontawesome.com/license (Commercial License) Copyright 2025 Fonticons, Inc. --><path fill="currentColor" d="M416 160C416 124.7 444.7 96 480 96C515.3 96 544 124.7 544 160C544 174.4 539.2 187.7 531.2 198.4C525.9 205.5 527.3 215.5 534.4 220.8C541.5 226.1 551.5 224.7 556.8 217.6C568.9 201.6 576 181.6 576 160C576 107 533 64 480 64C427 64 384 107 384 160C384 172.7 386.5 184.9 391 196.1C396.7 210.1 395.2 222.2 389.5 227.9L380.7 236.7L350.6 206.6C336.1 192.1 316.5 184 296 184C275.5 184 255.9 192.1 241.4 206.6L222.7 225.3C208.2 239.8 200.1 259.4 200.1 279.9C200.1 286.1 200.8 292.2 202.3 298.1C196.4 296.7 190.3 295.9 184.1 295.9C163.6 295.9 144 304 129.5 318.5L110.6 337.4C96.1 351.9 88 371.5 88 392C88 412.5 96.1 432.1 110.6 446.6L140.7 476.7L68.7 548.7C62.5 554.9 62.5 565.1 68.7 571.3C74.9 577.5 85.1 577.5 91.3 571.3L163.3 499.3L193.4 529.4C207.9 543.9 227.5 552 248 552C268.5 552 288.1 543.9 302.6 529.4L321.3 510.7C335.8 496.2 343.9 476.6 343.9 456.1C343.9 449.9 343.2 443.8 341.7 437.9C347.6 439.3 353.7 440.1 359.9 440.1C380.4 440.1 400 432 414.5 417.5L433.2 398.8C447.9 384.1 456 364.5 456 344C456 323.5 447.9 303.9 433.4 289.4L403.3 259.3L412.1 250.5C431.4 231.2 428.3 202.8 420.7 184.1C417.7 176.7 416 168.6 416 160zM245.3 312C236.8 303.5 232 292 232 280C232 268 236.8 256.5 245.3 248L264 229.3C272.5 220.8 284 216 296 216C308 216 319.5 220.8 328 229.3L410.7 312C419.2 320.5 424 332 424 344C424 356 419.2 367.5 410.7 376L392 394.7C383.5 403.2 372 408 360 408C348 408 336.5 403.2 328 394.7L245.3 312zM133.3 424C124.8 415.5 120 404 120 392C120 380 124.8 368.5 133.3 360L152 341.3C160.5 332.8 172 328 184 328C196 328 207.5 332.8 216 341.3L298.7 424C307.2 432.5 312 444 312 456C312 468 307.2 479.5 298.7 488L280 506.7C271.5 515.2 260 520 248 520C236 520 224.5 515.2 216 506.7L133.3 424z"/></svg>