<svg xmlns="http://www.w3.org/2000/svg" viewBox="0 0 640 640"><!--! Font Awesome Pro 7.1.0 by @fontawesome - https://fontawesome.com License - https://fontawesome.com/license (Commercial License) Copyright 2025 Fonticons, Inc. --><path fill="currentColor" d="M160 448L160 464C160 472.8 152.8 480 144 480L48 480C39.2 480 32 472.8 32 464L32 448L160 448zM32 416L32 288C32 279.2 39.2 272 48 272L114.3 272C174.6 272 227.5 232.1 244.1 174.1L246 167.4C247.2 163 251.2 160 255.8 160C258.3 160 260.7 160.9 262.6 162.6L330 223.3L292.6 260.7C286.4 266.9 286.4 277.1 292.6 283.3C298.8 289.5 309 289.5 315.2 283.3L353.8 244.7L384.1 272C388.5 276 393.1 279.8 397.8 283.4L364.5 316.6C358.3 322.8 358.3 333 364.5 339.2C370.7 345.4 380.9 345.4 387.1 339.2L425.1 301.2C434.2 306.3 443.7 310.7 453.5 314.5L546.3 350.2C575.7 361.5 597.2 386.3 604.8 415.9L32 416zM608 448L608 464C608 472.8 600.8 480 592 480L318.2 480C303.3 480 288.6 476.5 275.3 469.9L231.6 448L608 448zM222.5 479.3L261 498.5C278.8 507.4 298.4 512 318.2 512L592 512C618.5 512 640 490.5 640 464L640 439.9C640 386.9 607.4 339.4 557.9 320.4L465.1 284.7C443.2 276.3 423 263.9 405.6 248.2L284 138.8C276.3 131.8 266.2 128 255.8 128C237 128 220.4 140.5 215.2 158.6L213.3 165.3C200.7 209.5 160.3 240 114.3 240L48 240C21.5 240 0 261.5 0 288L0 464C0 490.5 21.5 512 48 512L144 512C159 512 172.4 505.1 181.2 494.4C188 486.1 192 475.6 192 464L222.5 479.3z"/></svg>