<svg xmlns="http://www.w3.org/2000/svg" viewBox="0 0 640 640"><!--! Font Awesome Pro 7.1.0 by @fontawesome - https://fontawesome.com License - https://fontawesome.com/license (Commercial License) Copyright 2025 Fonticons, Inc. --><path fill="currentColor" d="M240 124.5L240 224.4C285.6 226.8 318 239.1 345.9 250.3L348.9 251.5C378 263.2 400.1 272 432 272C468.5 272 507 264.6 535 249.7C562.4 235.2 576 216.3 576 192C576 170.9 558.6 147.1 517.7 126.6C478.5 107 427.5 96 384 96C356.3 96 319.5 103.2 287.9 111C272.5 114.9 258.9 118.7 249.3 121.6C245.6 122.7 242.5 123.7 240.1 124.4zM208 224L208 128L176 128C149.5 128 128 149.5 128 176C128 202.5 149.5 224 176 224L208 224zM224 96C224 96 320.3 64 384 64C480 64 608 112 608 192C608 272 512 304 432 304C393.8 304 366.6 293.1 338.1 281.6C306.9 269.1 274.2 256 224 256L176 256C131.8 256 96 220.2 96 176C96 131.8 131.8 96 176 96L224 96zM144 512L144 416L112 416C85.5 416 64 437.5 64 464C64 490.5 85.5 512 112 512L144 512zM185.2 518.3C194.9 521.2 208.4 525.1 223.8 528.9C255.4 536.8 292.2 543.9 319.9 543.9C363.4 543.9 414.4 532.9 453.6 513.3C494.6 492.8 511.9 469 511.9 447.9C511.9 423.5 498.3 404.7 470.9 390.2C442.8 375.3 404.4 367.9 367.9 367.9C336 367.9 313.9 376.8 284.8 388.4L281.8 389.6C254 400.9 221.6 413.2 176 415.6L176 515.5C178.4 516.3 181.5 517.2 185.2 518.3zM160 544L112 544C67.8 544 32 508.2 32 464C32 419.8 67.8 384 112 384L160 384C210.2 384 242.9 370.9 274.1 358.4C302.6 347 329.8 336 368 336C448 336 544 368 544 448C544 528 416 576 320 576C256.3 576 160 544 160 544z"/></svg>