<svg xmlns="http://www.w3.org/2000/svg" viewBox="0 0 640 640"><!--! Font Awesome Pro 7.1.0 by @fontawesome - https://fontawesome.com License - https://fontawesome.com/license (Commercial License) Copyright 2025 Fonticons, Inc. --><path fill="currentColor" d="M50.1 259.4C48.7 262.1 48 265.2 48 268.2C48 279.1 56.9 288 67.8 288L508.2 288C519.1 288 528 279.1 528 268.2C528 265.1 527.3 262.1 525.9 259.4L469.1 145.7C463.6 134.8 452.6 128 440.4 128L135.6 128C123.5 128 112.4 134.8 107 145.7L50.1 259.4zM64 319.9C37.2 318 16 295.6 16 268.3C16 260.3 17.9 252.3 21.5 245.1L78.3 131.4C89.2 109.7 111.3 96 135.6 96L440.5 96C464.7 96 486.9 109.7 497.7 131.4L554.5 245.1C558.1 252.3 560 260.2 560 268.3C560 295.6 538.8 318 512 319.9L512 368L480 368L480 320L352 320L352 370C339.4 373.2 328.3 380.2 320 389.7L320 320L96 320L96 416L306 416C304.7 421.1 304 426.5 304 432L304 448L96 448L96 496C96 504.8 103.2 512 112 512L304 512L304 544L112 544C85.5 544 64 522.5 64 496L64 319.9zM352 464C352 437.5 373.5 416 400 416C426.5 416 448 437.5 448 464L448 465C448 478.6 443 491.7 434 501.9L396.5 544L432 544C440.8 544 448 551.2 448 560C448 568.8 440.8 576 432 576L373.8 576C361.8 576 352 566.2 352 554.2C352 548.9 354 543.7 357.5 539.7L410 480.6C413.8 476.3 415.9 470.7 415.9 465L415.9 464C415.9 455.2 408.7 448 399.9 448C391.1 448 383.9 455.2 383.9 464C383.9 472.8 376.7 480 367.9 480C359.1 480 351.9 472.8 351.9 464zM480 496L480 432C480 423.2 487.2 416 496 416C504.8 416 512 423.2 512 432L512 480L544 480L544 432C544 423.2 551.2 416 560 416C568.8 416 576 423.2 576 432L576 560C576 568.8 568.8 576 560 576C551.2 576 544 568.8 544 560L544 512L496 512C491.8 512 487.7 510.3 484.7 507.3C481.7 504.3 480 500.2 480 496z"/></svg>