<svg xmlns="http://www.w3.org/2000/svg" viewBox="0 0 640 640"><!--! Font Awesome Pro 7.1.0 by @fontawesome - https://fontawesome.com License - https://fontawesome.com/license (Commercial License) Copyright 2025 Fonticons, Inc. --><path fill="currentColor" d="M106.9 145.7L50.1 259.4C48.7 262.1 48 265.2 48 268.2C48 279.1 56.9 288 67.8 288L409.3 288C405.2 298.1 402.4 308.8 401 320L352 320L352 496C352 522.5 330.5 544 304 544L112 544C85.5 544 64 522.5 64 496L64 319.9C37.2 318 16 295.6 16 268.3C16 260.3 17.9 252.3 21.5 245.1L78.3 131.4C89.2 109.7 111.3 96 135.6 96L440.5 96C464.7 96 486.9 109.7 497.7 131.4L536.1 208.3C533.4 208.1 530.7 208 528 208C518.9 208 510.1 208.9 501.6 210.7L469.1 145.7C463.6 134.8 452.6 128 440.4 128L135.6 128C123.5 128 112.4 134.8 107 145.7zM96 416L320 416L320 320L96 320L96 416zM96 448L96 496C96 504.8 103.2 512 112 512L304 512C312.8 512 320 504.8 320 496L320 448L96 448zM448 384.1L448 336.1C448 291.9 483.8 256.1 528 256.1C572.2 256.1 608 291.9 608 336.1L608 386.7C626.6 393.3 640 411.1 640 432L640 528C640 554.5 618.5 576 592 576L464 576C437.5 576 416 554.5 416 528L416 432C416 411.1 429.4 393.3 448 386.7L448 384.1zM448 432L448 528C448 536.8 455.2 544 464 544L592 544C600.8 544 608 536.8 608 528L608 432C608 423.8 601.8 417 593.7 416.1L462.2 416.1C454.2 417 447.9 423.8 447.9 432zM576 336.1C576 309.6 554.5 288.1 528 288.1C501.5 288.1 480 309.6 480 336.1L480 384L576 384L576 336.1z"/></svg>