<svg xmlns="http://www.w3.org/2000/svg" viewBox="0 0 640 640"><!--! Font Awesome Pro 7.1.0 by @fontawesome - https://fontawesome.com License - https://fontawesome.com/license (Commercial License) Copyright 2025 Fonticons, Inc. --><path fill="currentColor" d="M320 64C324.6 64 328.9 65.9 331.9 69.3L470.3 224L576 224C584.8 224 592 231.2 592 240C592 248.8 584.8 256 576 256L569.6 256L522.3 492.6C516.3 522.5 490.1 544 459.5 544L180.4 544C149.9 544 123.6 522.5 117.6 492.6L70.4 256L64 256C55.2 256 48 248.8 48 240C48 231.2 55.2 224 64 224L64 224L169.7 224L308.1 69.3C311.1 65.9 315.5 64 320 64zM320 104L212.6 224L427.4 224L320 104zM103 256L149.1 486.3C152.1 501.3 165.2 512 180.5 512L459.6 512C474.9 512 488 501.2 491 486.3L537 256L103 256zM224 336L224 432C224 440.8 216.8 448 208 448C199.2 448 192 440.8 192 432L192 336C192 327.2 199.2 320 208 320C216.8 320 224 327.2 224 336zM320 320C328.8 320 336 327.2 336 336L336 432C336 440.8 328.8 448 320 448C311.2 448 304 440.8 304 432L304 336C304 327.2 311.2 320 320 320zM448 336L448 432C448 440.8 440.8 448 432 448C423.2 448 416 440.8 416 432L416 336C416 327.2 423.2 320 432 320C440.8 320 448 327.2 448 336z"/></svg>