<svg xmlns="http://www.w3.org/2000/svg" viewBox="0 0 640 640"><!--! Font Awesome Pro 7.1.0 by @fontawesome - https://fontawesome.com License - https://fontawesome.com/license (Commercial License) Copyright 2025 Fonticons, Inc. --><path fill="currentColor" d="M491.4 52.7C485.2 46.5 475 46.5 468.8 52.7L424.7 96.8C409 112.5 400.1 133.9 400.1 156.1C400.1 173.5 405.4 189.6 414.4 203L292.7 324.7L228.7 260.7C208.9 240.9 176.5 242.2 158.3 263.4L29.1 414.3C12.8 433.3 13.9 461.7 31.6 479.5L160.7 608.6C178.4 626.3 206.8 627.4 225.9 611.1L376.8 481.7C398 463.5 399.3 431.1 379.5 411.3L315.5 347.3L437.2 225.6C450.6 234.7 466.7 239.9 484.1 239.9C506.3 239.9 527.7 231.1 543.4 215.3L587.5 171.2C593.7 165 593.7 154.8 587.5 148.6L491.5 52.6zM447.3 119.4L480.1 86.6L553.5 160L520.7 192.8C511 202.5 497.8 208 484 208C455.3 208 432.1 184.8 432.1 156.1C432.1 142.3 437.6 129.1 447.3 119.4zM182.7 284.2C188.8 277.1 199.6 276.7 206.2 283.3L356.8 434C363.4 440.6 363 451.4 355.9 457.5L205.1 586.8C198.8 592.2 189.3 591.9 183.4 586L54.2 456.8C48.3 450.9 47.9 441.4 53.4 435.1L182.7 284.2zM219.5 379.3C225.7 373.1 225.7 362.9 219.5 356.7C213.3 350.5 203.1 350.5 196.9 356.7L116.9 436.7C110.7 442.9 110.7 453.1 116.9 459.3C123.1 465.5 133.3 465.5 139.5 459.3L219.5 379.3zM283.5 443.3C289.7 437.1 289.7 426.9 283.5 420.7C277.3 414.5 267.1 414.5 260.9 420.7L180.9 500.7C174.7 506.9 174.7 517.1 180.9 523.3C187.1 529.5 197.3 529.5 203.5 523.3L283.5 443.3z"/></svg>