<svg xmlns="http://www.w3.org/2000/svg" viewBox="0 0 640 640"><!--! Font Awesome Pro 7.1.0 by @fontawesome - https://fontawesome.com License - https://fontawesome.com/license (Commercial License) Copyright 2025 Fonticons, Inc. --><path fill="currentColor" d="M468.7 52.7C474.9 46.5 485.1 46.5 491.3 52.7L587.3 148.7C593.5 154.9 593.5 165.1 587.3 171.3L543.2 215.4C527.5 231.1 506.1 240 483.9 240C466.5 240 450.4 234.7 437 225.7L299.3 363.4L350 414.1C368.7 432.8 368.7 463.2 350 482L265.2 566.8C238.8 593.2 203 608 165.7 608C91.9 608 32 548.1 32 474.3C32 437 46.8 401.2 73.2 374.8L158 290C176.7 271.3 207.1 271.3 225.9 290L276.7 340.7L414.3 203C405.2 189.6 400 173.5 400 156.1C400 133.9 408.8 112.5 424.6 96.8L468.7 52.7zM480 86.6L447.2 119.4C437.5 129.1 432 142.3 432 156.1C432 184.8 455.2 208 483.9 208C497.7 208 510.9 202.5 520.6 192.8L553.4 160L480 86.6zM95.8 397.4C75.4 417.8 64 445.5 64 474.3C64 530.5 109.5 576 165.7 576C194.5 576 222.2 564.5 242.6 544.2L327.4 459.4C333.6 453.2 333.6 443 327.4 436.8L203.3 312.6C197.1 306.4 186.9 306.4 180.7 312.6L95.8 397.4z"/></svg>