<svg xmlns="http://www.w3.org/2000/svg" viewBox="0 0 640 640"><!--! Font Awesome Pro 7.1.0 by @fontawesome - https://fontawesome.com License - https://fontawesome.com/license (Commercial License) Copyright 2025 Fonticons, Inc. --><path fill="currentColor" d="M320 64C328.8 64 336 71.2 336 80L336 96.8C416.9 104.8 480 173 480 256L496 256C504.8 256 512 263.2 512 272C512 280.8 504.8 288 496 288L144 288C135.2 288 128 280.8 128 272C128 263.2 135.2 256 144 256L160 256C160 173 223.1 104.8 304 96.8L304 80C304 71.2 311.2 64 320 64zM320 128C249.3 128 192 185.3 192 256L448 256C448 185.3 390.7 128 320 128zM370.7 516.9C368.9 519.7 368 523 368 526.3L368 528C368 536.8 375.2 544 384 544C392.8 544 400 536.8 400 528L400 526.3C400 523 399.1 519.7 397.3 516.9L384 495.6L370.7 516.9zM343.6 499.9L371.8 454.8C374.4 450.6 379.1 448 384 448C388.9 448 393.6 450.6 396.2 454.8L424.4 499.9C429.3 507.8 432 516.9 432 526.3L432 528C432 554.5 410.5 576 384 576C357.5 576 336 554.5 336 528L336 526.3C336 517 338.6 507.8 343.6 499.9zM448 367.6L434.7 388.9C432.9 391.7 432 395 432 398.3L432 400C432 408.8 439.2 416 448 416C456.8 416 464 408.8 464 400L464 398.3C464 395 463.1 391.7 461.3 388.9L448 367.6zM435.8 326.8C438.4 322.6 443.1 320 448 320C452.9 320 457.6 322.6 460.2 326.8L488.4 371.9C493.3 379.8 496 388.9 496 398.3L496 400C496 426.5 474.5 448 448 448C421.5 448 400 426.5 400 400L400 398.3C400 389 402.6 379.8 407.6 371.9L435.8 326.8zM242.7 516.9C240.9 519.7 240 523 240 526.3L240 528C240 536.8 247.2 544 256 544C264.8 544 272 536.8 272 528L272 526.3C272 523 271.1 519.7 269.3 516.9L256 495.6L242.7 516.9zM215.6 499.9L243.8 454.8C246.4 450.6 251.1 448 256 448C260.9 448 265.6 450.6 268.2 454.8L296.4 499.9C301.3 507.8 304 516.9 304 526.3L304 528C304 554.5 282.5 576 256 576C229.5 576 208 554.5 208 528L208 526.3C208 517 210.6 507.8 215.6 499.9zM320 367.6L306.7 388.9C304.9 391.7 304 395 304 398.3L304 400C304 408.8 311.2 416 320 416C328.8 416 336 408.8 336 400L336 398.3C336 395 335.1 391.7 333.3 388.9L320 367.6zM307.8 326.8C310.4 322.6 315.1 320 320 320C324.9 320 329.6 322.6 332.2 326.8L360.4 371.9C365.3 379.8 368 388.9 368 398.3L368 400C368 426.5 346.5 448 320 448C293.5 448 272 426.5 272 400L272 398.3C272 389 274.6 379.8 279.6 371.9L307.8 326.8zM178.7 388.9C176.9 391.7 176 395 176 398.3L176 400C176 408.8 183.2 416 192 416C200.8 416 208 408.8 208 400L208 398.3C208 395 207.1 391.7 205.3 388.9L192 367.6L178.7 388.9zM151.6 371.9L179.8 326.8C182.4 322.6 187 320 192 320C197 320 201.6 322.6 204.2 326.8L232.4 371.9C237.3 379.8 240 388.9 240 398.3L240 400C240 426.5 218.5 448 192 448C165.5 448 144 426.5 144 400L144 398.3C144 389 146.6 379.8 151.6 371.9z"/></svg>