<svg xmlns="http://www.w3.org/2000/svg" viewBox="0 0 640 640"><!--! Font Awesome Pro 7.1.0 by @fontawesome - https://fontawesome.com License - https://fontawesome.com/license (Commercial License) Copyright 2025 Fonticons, Inc. --><path fill="currentColor" d="M96 179.9C96 151.2 119.2 128 147.9 128C161.7 128 174.9 133.5 184.6 143.2L212.7 171.3C213.2 171.8 213.8 172.3 214.4 172.8C181.4 216.7 184.9 279.3 224.8 319.2L229.5 323.9L212.7 340.7C206.5 346.9 206.5 357.1 212.7 363.3C218.9 369.5 229.1 369.5 235.3 363.3L427.3 171.3C433.5 165.1 433.5 154.9 427.3 148.7C421.1 142.5 410.9 142.5 404.7 148.7L387.9 165.5L383.2 160.8C343.3 120.9 280.7 117.4 236.8 150.4C236.4 149.8 235.9 149.2 235.3 148.7L207.2 120.6C191.5 104.8 170.1 96 147.9 96C101.6 96 64 133.6 64 179.9L64 528C64 536.8 71.2 544 80 544C88.8 544 96 536.8 96 528L96 179.9zM247.4 183.4C278.6 152.2 329.3 152.2 360.5 183.4L365.2 188.1L252.1 301.2L247.4 296.5C216.2 265.3 216.2 214.6 247.4 183.4zM480 264C480 250.7 469.3 240 456 240C442.7 240 432 250.7 432 264C432 277.3 442.7 288 456 288C469.3 288 480 277.3 480 264zM392 352C405.3 352 416 341.3 416 328C416 314.7 405.3 304 392 304C378.7 304 368 314.7 368 328C368 341.3 378.7 352 392 352zM352 392C352 378.7 341.3 368 328 368C314.7 368 304 378.7 304 392C304 405.3 314.7 416 328 416C341.3 416 352 405.3 352 392zM424 448C437.3 448 448 437.3 448 424C448 410.7 437.3 400 424 400C410.7 400 400 410.7 400 424C400 437.3 410.7 448 424 448zM360 512C373.3 512 384 501.3 384 488C384 474.7 373.3 464 360 464C346.7 464 336 474.7 336 488C336 501.3 346.7 512 360 512zM488 384C501.3 384 512 373.3 512 360C512 346.7 501.3 336 488 336C474.7 336 464 346.7 464 360C464 373.3 474.7 384 488 384zM576 296C576 282.7 565.3 272 552 272C538.7 272 528 282.7 528 296C528 309.3 538.7 320 552 320C565.3 320 576 309.3 576 296z"/></svg>