<svg xmlns="http://www.w3.org/2000/svg" viewBox="0 0 640 640"><!--! Font Awesome Pro 7.1.0 by @fontawesome - https://fontawesome.com License - https://fontawesome.com/license (Commercial License) Copyright 2025 Fonticons, Inc. --><path fill="currentColor" d="M448 208L448 170.5C448 162 444.6 153.9 438.6 147.9L396.1 105.4C390.1 99.4 382 96 373.5 96L224 96C206.3 96 192 110.3 192 128L192 208L160 208L160 128C160 92.7 188.7 64 224 64L373.5 64C390.5 64 406.8 70.7 418.8 82.7L461.3 125.2C473.3 137.2 480 153.5 480 170.5L480 208L448 208zM128 288C110.3 288 96 302.3 96 320L96 448L544 448L544 320C544 302.3 529.7 288 512 288L128 288zM64 320C64 284.7 92.7 256 128 256L512 256C547.3 256 576 284.7 576 320L576 448C576 465.7 561.7 480 544 480L480 480L480 560C480 568.8 472.8 576 464 576C455.2 576 448 568.8 448 560L448 480L384 480L384 560C384 568.8 376.8 576 368 576C359.2 576 352 568.8 352 560L352 480L288 480L288 560C288 568.8 280.8 576 272 576C263.2 576 256 568.8 256 560L256 480L192 480L192 560C192 568.8 184.8 576 176 576C167.2 576 160 568.8 160 560L160 480L96 480C78.3 480 64 465.7 64 448L64 320zM496 320C504.8 320 512 327.2 512 336C512 344.8 504.8 352 496 352C487.2 352 480 344.8 480 336C480 327.2 487.2 320 496 320z"/></svg>