<svg xmlns="http://www.w3.org/2000/svg" viewBox="0 0 640 640"><!--! Font Awesome Pro 7.1.0 by @fontawesome - https://fontawesome.com License - https://fontawesome.com/license (Commercial License) Copyright 2025 Fonticons, Inc. --><path fill="currentColor" d="M64 160C64 124.7 92.7 96 128 96L496 96C504.8 96 512 103.2 512 112C512 120.8 504.8 128 496 128L128 128C110.3 128 96 142.3 96 160C96 177.7 110.3 192 128 192L400 192C497.2 192 576 270.8 576 368C576 465.2 497.2 544 400 544L304 544C295.2 544 288 536.8 288 528C288 523.6 289.8 519.6 292.7 516.7L329.4 480L292.7 443.3C287.7 438.3 286.6 430.6 290 424.3C293.4 418 300.5 414.8 307.4 416.3L412.9 439C416.1 439.7 419.3 440 422.6 440C436.6 440 448 428.6 448 414.6L448 412C448 396.5 435.5 384 420 384L304 384C212.2 384 136.8 313.7 128.7 224L128 224C92.7 224 64 195.3 64 160zM400 512L400 468.9L353.6 459L363.3 468.7C369.5 474.9 369.5 485.1 363.3 491.3L342.6 512L400 512zM432 508.4C465 500.9 493.7 482.1 513.7 456.3L473.9 440.4C465.8 456.5 450.4 468.2 432 471.2L432 508.4zM530.7 428.6C539.3 410.2 544 389.6 544 368C544 358.7 543.1 349.7 541.5 340.9L474.1 385.9C477.4 392.8 479.5 400.3 480 408.3L530.8 428.6zM531.5 309.1C511 263.6 467.6 230.6 416 224.9L416 352L420 352C432 352 443.3 355.5 452.7 361.7L531.5 309.2zM384 224L160.9 224C168.9 296 229.9 352 304 352L384 352L384 224zM272 256C280.8 256 288 263.2 288 272C288 280.8 280.8 288 272 288C263.2 288 256 280.8 256 272C256 263.2 263.2 256 272 256z"/></svg>