<svg xmlns="http://www.w3.org/2000/svg" viewBox="0 0 640 640"><!--! Font Awesome Pro 7.1.0 by @fontawesome - https://fontawesome.com License - https://fontawesome.com/license (Commercial License) Copyright 2025 Fonticons, Inc. --><path fill="currentColor" d="M96 112C96 120.8 103.2 128 112 128L528 128C536.8 128 544 120.8 544 112C544 103.2 536.8 96 528 96L112 96C103.2 96 96 103.2 96 112zM114.3 176L97.6 234.3C96.5 238.1 96 242 96 245.9C96 262.7 105.8 277.2 120 283.9L97.6 362.3C96.5 366.1 96 370 96 373.9C96 390.7 105.8 405.2 120 411.9L97.6 490.3C96.5 494.1 96 498 96 501.9C96 525.1 114.9 544 138.1 544L501.9 544C525.2 544 544 525.1 544 501.9C544 498 543.5 494.1 542.4 490.3L520 411.9C534.2 405.1 544 390.6 544 373.9C544 370 543.5 366.1 542.4 362.3L520 283.9C534.2 277.1 544 262.6 544 245.9C544 242 543.5 238.1 542.4 234.3L525.7 176L492.4 176L511.6 243.1C511.9 244 512 244.9 512 245.9C512 251.5 507.5 256 501.9 256L138.1 256C132.5 256 128 251.5 128 245.9C128 245 128.1 244 128.4 243.1L147.6 176L114.3 176zM152.1 288L487.8 288L511.6 371.1C511.9 372 512 372.9 512 373.9C512 379.5 507.5 384 501.9 384L138.1 384C132.5 384 128 379.5 128 373.9C128 373 128.1 372 128.4 371.1L152.1 288zM128.4 499.1L152.1 416L487.8 416L511.6 499.1C511.9 500 512 500.9 512 501.9C512 507.5 507.5 512 501.9 512L138.1 512C132.5 512 128 507.5 128 501.9C128 501 128.1 500 128.4 499.1z"/></svg>