<svg xmlns="http://www.w3.org/2000/svg" viewBox="0 0 640 640"><!--! Font Awesome Pro 7.1.0 by @fontawesome - https://fontawesome.com License - https://fontawesome.com/license (Commercial License) Copyright 2025 Fonticons, Inc. --><path fill="currentColor" d="M306.9 40.5C319.2 40.5 331 45.4 339.7 54.1L409.9 124.3L466.1 135.6C485.5 139.5 500.7 154.6 504.5 174L515.7 230.2L585.9 300.4L589 303.8C595.8 312.1 599.5 322.5 599.5 333.2C599.5 350.8 589.5 366.9 573.9 374.7L570.7 376.2L351.5 466.4L271.3 538.1C223.9 580.5 151.6 578.5 106.6 533.5C61.6 488.5 59.7 416 102.1 368.6L173.8 288.4L264 69.2L265.4 66C273.2 50.4 289.3 40.4 306.9 40.4zM126 389.9C94.9 424.7 96.4 477.7 129.4 510.7C162.4 543.7 215.4 545.2 250.2 514.1L255 509.7L130.4 385L126 389.9zM151.7 361.1L278.9 488.3L320.4 451.3L188.8 319.7L151.7 361.1zM322.2 407.9L347.7 433.4L558.6 346.6L560.5 345.6C564.8 343 567.5 338.3 567.5 333.2C567.5 330.3 566.7 327.6 565.1 325.2L563.3 323L500.1 259.7L322.2 407.9zM254.9 340.6L299.5 385.2L483.5 231.9L473.2 180.3C471.9 173.6 466.6 168.3 459.9 167L408.3 156.7L255 340.7zM306.9 72.6C301.8 72.6 297.1 75.3 294.5 79.6L293.5 81.5L206.7 292.4L232.1 317.8L380.3 140L317.1 76.8C314.4 74.1 310.7 72.6 306.9 72.6z"/></svg>