<svg xmlns="http://www.w3.org/2000/svg" viewBox="0 0 640 640"><!--! Font Awesome Pro 7.1.0 by @fontawesome - https://fontawesome.com License - https://fontawesome.com/license (Commercial License) Copyright 2025 Fonticons, Inc. --><path fill="currentColor" d="M512.1 394.8L416 234.7L416 208C416 143.3 388.6 84.5 339.7 43.2C328.3 33.6 311.7 33.6 300.3 43.2C251.4 84.5 224 143.3 224 208L224 234.7L127.9 394.8C107 429.6 96 469.4 96 510L96 560C96 586.5 117.5 608 144 608L496 608C522.5 608 544 586.5 544 560L544 510C544 469.4 533 429.6 512.1 394.8zM304 576L224 576L224 496C224 480.7 231.1 467.1 242.3 458.3C249.6 452.5 256 443.1 256 431.3L256 208C256 153.1 278.9 103.6 320 68.5C361.1 103.6 384 153.1 384 208L384 431.3C384 443.1 390.4 452.5 397.7 458.3C408.9 467.1 416 480.7 416 496L416 576L336 576L336 464C336 455.2 328.8 448 320 448C311.2 448 304 455.2 304 464L304 576zM417.5 433.2C416.8 432.6 416.3 432 416.1 431.7C416 431.5 416 431.4 416 431.4L416 297L484.6 411.4C497.3 432.6 505.8 455.9 509.6 480.1L446.4 480.1C442.6 461.2 432.1 444.8 417.5 433.3zM448 576L448 512L512 512L512 560C512 568.8 504.8 576 496 576L448 576zM222.5 433.2C208 444.7 197.5 461.1 193.6 480L130.4 480C134.2 455.8 142.7 432.4 155.4 411.3L224 296.9L224 431.3C224 431.3 224 431.5 223.9 431.6C223.7 432 223.2 432.6 222.5 433.1zM192 512L192 576L144 576C135.2 576 128 568.8 128 560L128 512L192 512zM288 176C288 184.8 295.2 192 304 192L336 192C344.8 192 352 184.8 352 176C352 167.2 344.8 160 336 160L304 160C295.2 160 288 167.2 288 176z"/></svg>