<svg xmlns="http://www.w3.org/2000/svg" viewBox="0 0 640 640"><!--! Font Awesome Pro 7.1.0 by @fontawesome - https://fontawesome.com License - https://fontawesome.com/license (Commercial License) Copyright 2025 Fonticons, Inc. --><path fill="currentColor" d="M384 64C278 64 192 150 192 256C192 327 230.5 388.9 287.7 422.1C294 425.7 301.9 424.7 307.1 419.6L343.1 383.6C348.4 378.3 349.3 370.1 345.3 363.7C334.4 346.4 328.1 326 328.1 304C328.1 242.1 378.2 192 440.1 192C488.2 192 529.2 222.3 545.1 264.9C547.8 272.1 555.2 276.4 562.8 275.1C570.4 273.8 576 267.3 576.1 259.6C576.1 258.4 576.1 257.2 576.1 256C576.1 150 490.1 64 384.1 64zM224 256C224 167.6 295.6 96 384 96C449.7 96 506.1 135.6 530.8 192.2C506 172.1 474.4 160 440 160C360.5 160 296 224.5 296 304C296 327.6 301.7 349.9 311.8 369.6L293.5 387.9C251.5 359.1 224 310.7 224 256zM179.3 364.7C173.1 358.5 162.9 358.5 156.7 364.7C150.5 370.9 150.5 381.1 156.7 387.3L161.4 392L77.2 476.2C68.7 484.6 64 496.1 64 508C64 519.9 68.7 531.4 77.2 539.8L100.2 562.8C108.6 571.3 120.1 576 132 576C143.9 576 155.4 571.3 163.8 562.8L248 478.6L252.7 483.3C258.9 489.5 269.1 489.5 275.3 483.3C281.5 477.1 281.5 466.9 275.3 460.7L179.3 364.7zM99.8 498.8L184 414.6L225.4 456L141.2 540.2C138.8 542.6 135.5 544 132 544C128.5 544 125.3 542.6 122.8 540.2L99.8 517.2C97.4 514.8 96 511.5 96 508C96 504.5 97.4 501.3 99.8 498.8z"/></svg>