<svg xmlns="http://www.w3.org/2000/svg" viewBox="0 0 640 640"><!--! Font Awesome Pro 7.1.0 by @fontawesome - https://fontawesome.com License - https://fontawesome.com/license (Commercial License) Copyright 2025 Fonticons, Inc. --><path fill="currentColor" d="M352 160L352 480L512 480C529.7 480 544 465.7 544 448L544 192C544 174.3 529.7 160 512 160L352 160zM336 128L512 128C547.3 128 576 156.7 576 192L576 448C576 483.3 547.3 512 512 512L128 512C92.7 512 64 483.3 64 448L64 192C64 156.7 92.7 128 128 128L336 128zM320 160L128 160C110.3 160 96 174.3 96 192L96 448C96 465.7 110.3 480 128 480L320 480L320 160zM496 224C496 232.8 488.8 240 480 240L416 240C407.2 240 400 232.8 400 224C400 215.2 407.2 208 416 208L480 208C488.8 208 496 215.2 496 224zM496 288C496 296.8 488.8 304 480 304L416 304C407.2 304 400 296.8 400 288C400 279.2 407.2 272 416 272L480 272C488.8 272 496 279.2 496 288zM496 352C496 360.8 488.8 368 480 368L416 368C407.2 368 400 360.8 400 352C400 343.2 407.2 336 416 336L480 336C488.8 336 496 343.2 496 352z"/></svg>