<svg xmlns="http://www.w3.org/2000/svg" viewBox="0 0 640 640"><!--! Font Awesome Pro 7.1.0 by @fontawesome - https://fontawesome.com License - https://fontawesome.com/license (Commercial License) Copyright 2025 Fonticons, Inc. --><path fill="currentColor" d="M288 160L288 480L128 480C110.3 480 96 465.7 96 448L96 192C96 174.3 110.3 160 128 160L288 160zM304 128L128 128C92.7 128 64 156.7 64 192L64 448C64 483.3 92.7 512 128 512L512 512C547.3 512 576 483.3 576 448L576 192C576 156.7 547.3 128 512 128L304 128zM320 160L512 160C529.7 160 544 174.3 544 192L544 448C544 465.7 529.7 480 512 480L320 480L320 160zM144 224C144 232.8 151.2 240 160 240L224 240C232.8 240 240 232.8 240 224C240 215.2 232.8 208 224 208L160 208C151.2 208 144 215.2 144 224zM144 288C144 296.8 151.2 304 160 304L224 304C232.8 304 240 296.8 240 288C240 279.2 232.8 272 224 272L160 272C151.2 272 144 279.2 144 288zM144 352C144 360.8 151.2 368 160 368L224 368C232.8 368 240 360.8 240 352C240 343.2 232.8 336 224 336L160 336C151.2 336 144 343.2 144 352z"/></svg>