<svg xmlns="http://www.w3.org/2000/svg" viewBox="0 0 640 640"><!--! Font Awesome Pro 7.1.0 by @fontawesome - https://fontawesome.com License - https://fontawesome.com/license (Commercial License) Copyright 2025 Fonticons, Inc. --><path fill="currentColor" d="M59.3 36.8C53.1 30.6 42.9 30.6 36.7 36.8C30.5 43 30.5 53.2 36.7 59.4L580.7 603.4C586.9 609.6 597.1 609.6 603.3 603.4C609.5 597.2 609.5 587 603.3 580.8L544 521.5L544 112C544 103.2 536.8 96 528 96C519.2 96 512 103.2 512 112L512 489.5L405.3 382.8L405.3 208C405.3 199.2 398.1 192 389.3 192C380.5 192 373.3 199.2 373.3 208L373.3 350.8L59.3 36.8zM234.7 336L234.7 528C234.7 536.8 241.9 544 250.7 544C259.5 544 266.7 536.8 266.7 528L266.7 357.2L237.1 327.6C235.6 330 234.7 332.9 234.7 336zM373.3 528C373.3 536.8 380.5 544 389.3 544C398.1 544 405.3 536.8 405.3 528L405.3 495.8L373.3 463.8L373.3 528zM128 464C128 455.2 120.8 448 112 448C103.2 448 96 455.2 96 464L96 528C96 536.8 103.2 544 112 544C120.8 544 128 536.8 128 528L128 464z"/></svg>