<svg xmlns="http://www.w3.org/2000/svg" viewBox="0 0 640 640"><!--! Font Awesome Pro 7.1.0 by @fontawesome - https://fontawesome.com License - https://fontawesome.com/license (Commercial License) Copyright 2025 Fonticons, Inc. --><path fill="currentColor" d="M160 192C160 156.7 188.7 128 224 128C259.3 128 288 156.7 288 192L288 200.2C288 224.6 286 249 282.1 273L155 307.7C120.2 317.2 96 348.8 96 384.9L96 448L16 448C7.2 448 0 455.2 0 464C0 472.8 7.2 480 16 480L96 480C97.3 515.6 126.5 544 162.4 544C186.4 544 208.6 531 220.3 510.1L251.4 454.7C269.5 422.5 284.2 388.6 295.2 353.3L297.7 345.2C302.5 329.8 306.5 314.2 309.8 298.5L433.5 264.8L385.5 360.8C383 365.8 383.3 371.7 386.2 376.4C389.1 381.1 394.3 384 399.8 384L559.8 384C568.6 384 575.8 376.8 575.8 368C575.8 359.2 568.6 352 559.8 352L425.7 352L478.1 247.2C480.9 241.6 480.2 234.8 476.2 229.9C472.2 225 465.7 222.9 459.6 224.6L315.6 263.9C318.4 242.8 319.8 221.6 319.8 200.3L319.8 192.1C319.8 139.1 276.8 96.1 223.8 96.1C170.8 96.1 127.8 139.1 127.8 192.1L127.8 240.1C127.8 248.9 135 256.1 143.8 256.1C152.6 256.1 159.8 248.9 159.8 240.1L159.8 192.1zM163.4 338.6L275 308.1C272.7 317.4 270.2 326.6 267.3 335.7L264.8 343.8C254.5 376.9 240.7 408.8 223.7 439L192.6 494.4C186.5 505.3 175 512 162.5 512C143.5 512 128 496.6 128 477.5L128 384.9C128 363.3 142.5 344.3 163.4 338.6zM295 480L624 480C632.8 480 640 472.8 640 464C640 455.2 632.8 448 624 448L311.5 448C306.4 458.8 300.9 469.5 295 480z"/></svg>