<svg xmlns="http://www.w3.org/2000/svg" viewBox="0 0 640 640"><!--! Font Awesome Pro 7.1.0 by @fontawesome - https://fontawesome.com License - https://fontawesome.com/license (Commercial License) Copyright 2025 Fonticons, Inc. --><path fill="currentColor" d="M59.3 36.8C53.1 30.6 42.9 30.6 36.7 36.8C30.5 43 30.5 53.2 36.7 59.4L580.7 603.4C586.9 609.6 597.1 609.6 603.3 603.4C609.5 597.2 609.5 587 603.3 580.8L544 521.5L544 112C544 103.2 536.8 96 528 96C519.2 96 512 103.2 512 112L512 489.5L440 417.5L440 208C440 199.2 432.8 192 424 192C415.2 192 408 199.2 408 208L408 385.5L59.3 36.8zM304 528C304 536.8 311.2 544 320 544C328.8 544 336 536.8 336 528L336 426.5L304 394.5L304 528zM216 384C207.2 384 200 391.2 200 400L200 528C200 536.8 207.2 544 216 544C224.8 544 232 536.8 232 528L232 400C232 391.2 224.8 384 216 384zM112 448C103.2 448 96 455.2 96 464L96 528C96 536.8 103.2 544 112 544C120.8 544 128 536.8 128 528L128 464C128 455.2 120.8 448 112 448z"/></svg>