<svg xmlns="http://www.w3.org/2000/svg" viewBox="0 0 640 640"><!--! Font Awesome Pro 7.1.0 by @fontawesome - https://fontawesome.com License - https://fontawesome.com/license (Commercial License) Copyright 2025 Fonticons, Inc. --><path fill="currentColor" d="M266.7 336C266.7 327.2 259.5 320 250.7 320C241.9 320 234.7 327.2 234.7 336L234.7 528C234.7 536.8 241.9 544 250.7 544C259.5 544 266.7 536.8 266.7 528L266.7 336zM128 464C128 455.2 120.8 448 112 448C103.2 448 96 455.2 96 464L96 528C96 536.8 103.2 544 112 544C120.8 544 128 536.8 128 528L128 464z"/></svg>