<svg xmlns="http://www.w3.org/2000/svg" viewBox="0 0 640 640"><!--! Font Awesome Pro 7.1.0 by @fontawesome - https://fontawesome.com License - https://fontawesome.com/license (Commercial License) Copyright 2025 Fonticons, Inc. --><path fill="currentColor" d="M304.4 80C304.4 71.2 311.6 64 320.4 64C329.2 64 336.4 71.2 336.4 80L336.4 128L458.3 128C472.3 128 485.6 134.1 494.7 144.8L558.5 219.2C568.8 231.2 568.8 248.9 558.5 260.9L494.7 335.3C485.6 345.9 472.3 352.1 458.3 352.1L336.4 352.1L336.4 560.1C336.4 568.9 329.2 576.1 320.4 576.1C311.6 576.1 304.4 568.9 304.4 560.1L304.4 352.1L160.4 352.1C125.1 352.1 96.4 323.4 96.4 288.1L96.4 192.1C96.4 156.8 125.1 128.1 160.4 128.1L304.4 128.1L304.4 80.1zM470.5 165.6C467.5 162.1 463 160 458.4 160L160.4 160C142.7 160 128.4 174.3 128.4 192L128.4 288C128.4 305.7 142.7 320 160.4 320L458.3 320C463 320 467.4 318 470.4 314.4L534.2 240L470.4 165.6z"/></svg>