<svg xmlns="http://www.w3.org/2000/svg" viewBox="0 0 640 640"><!--! Font Awesome Pro 7.1.0 by @fontawesome - https://fontawesome.com License - https://fontawesome.com/license (Commercial License) Copyright 2025 Fonticons, Inc. --><path fill="currentColor" d="M36.7 36.8C42.9 30.6 53.1 30.6 59.3 36.8L151.5 129C169.1 108.8 195 96 224 96C277 96 320 139 320 192L320 200.2C320 221.5 318.6 242.8 315.8 263.8L459.8 224.5C465.9 222.8 472.4 224.9 476.4 229.8C480.4 234.7 481.2 241.5 478.3 247.1C437.3 329 446.4 310.9 425.9 351.9L560 352C568.8 352 576 359.2 576 368C576 376.8 568.8 384 560 384L406.5 384L470.5 448L624 448C632.8 448 640 455.2 640 464C640 472.8 632.8 480 624 480L502.5 480L603.3 580.8C609.5 587 609.5 597.2 603.3 603.4C597.1 609.6 586.9 609.6 580.7 603.4L36.7 59.4C30.5 53.2 30.5 43 36.7 36.8zM385.7 360.9C441.7 248.9 420.4 291.4 433.7 264.9L318.7 296.3L384.9 362.5L385.7 361zM283.9 261.3C286.6 241.1 288 220.6 288 200.2L288 192C288 156.7 259.3 128 224 128C203.9 128 186 137.3 174.3 151.7L283.9 261.3zM155 307.7L203.9 294.4L230 320.5L163.5 338.6C142.6 344.3 128.1 363.3 128.1 384.9L128.1 477.5C128.1 496.5 143.5 512 162.6 512C175.1 512 186.5 505.3 192.7 494.4L223.8 439C239.3 411.4 252.1 382.4 262.1 352.4L287.2 377.5C277.4 404.1 265.6 429.9 251.6 454.6L220.5 510C208.7 530.9 186.6 543.9 162.6 543.9C126.7 543.9 97.5 515.5 96.2 479.9L16.2 479.9C7.4 479.9 .2 472.7 .2 463.9C.2 455.1 7.4 447.9 16.2 447.9L96.2 447.9L96.2 384.8C96.2 348.7 120.3 317.1 155.2 307.6zM309.3 448L357.5 448L389.5 480L292.4 480L293.4 478.3C299 468.4 304.3 458.3 309.3 448z"/></svg>