<svg xmlns="http://www.w3.org/2000/svg" viewBox="0 0 640 640"><!--! Font Awesome Pro 7.1.0 by @fontawesome - https://fontawesome.com License - https://fontawesome.com/license (Commercial License) Copyright 2025 Fonticons, Inc. --><path fill="currentColor" d="M59.3 36.8C53.1 30.6 42.9 30.6 36.7 36.8C30.5 43 30.5 53.2 36.7 59.4L580.7 603.4C586.9 609.6 597.1 609.6 603.3 603.4C609.5 597.2 609.5 587 603.3 580.8L534.6 512.1C580.2 461.1 608 393.8 608 320C608 244.9 579.2 176.5 532.1 125.2C526.1 118.7 516 118.3 509.5 124.2C503 130.1 502.6 140.3 508.5 146.8C550.4 192.4 575.9 253.2 575.9 319.9C575.9 384.9 551.7 444.2 511.8 489.3L455.1 432.6C480.6 402.1 495.9 362.8 495.9 319.9C495.9 271.9 476.7 228.4 445.6 196.7C439.4 190.4 429.3 190.3 423 196.5C416.7 202.7 416.6 212.8 422.8 219.1C448.3 245.1 464 280.6 464 319.9C464 353.9 452.2 385.2 432.5 409.8L375.1 352.4C380.8 342.9 384 331.7 384 319.8C384 284.5 355.3 255.8 320 255.8C308.1 255.8 297 259 287.4 264.7L59.3 36.8zM311.6 289.1C314.3 288.4 317.1 288 320 288C337.7 288 352 302.3 352 320C352 322.9 351.6 325.7 350.9 328.4L311.6 289.1zM32 320C32 395.1 60.8 463.5 107.9 514.8C113.9 521.3 124 521.7 130.5 515.8C137 509.9 137.4 499.7 131.5 493.2C89.5 447.5 64 386.8 64 320C64 272.5 76.9 228.1 99.4 190L76.2 166.7C48.2 211.1 32 263.7 32 320zM144 320C144 368 163.2 411.5 194.3 443.2C200.5 449.5 210.6 449.6 216.9 443.4C223.2 437.2 223.3 427.1 217.1 420.8C191.6 394.8 175.9 359.3 175.9 320C175.9 303.9 178.5 288.4 183.4 274L158.7 249.3C149.3 270.9 144 294.9 144 320z"/></svg>