<svg xmlns="http://www.w3.org/2000/svg" viewBox="0 0 640 640"><!--! Font Awesome Pro 7.1.0 by @fontawesome - https://fontawesome.com License - https://fontawesome.com/license (Commercial License) Copyright 2025 Fonticons, Inc. --><path fill="currentColor" d="M128 96L128 128C92.7 128 64 156.7 64 192L64 448C64 483.3 92.7 512 128 512L128 512L128 560C128 568.8 135.2 576 144 576C152.8 576 160 568.8 160 560L160 512L480 512L480 560C480 568.8 487.2 576 496 576C504.8 576 512 568.8 512 560L512 512C547.3 512 576 483.3 576 448L576 192C576 156.7 547.3 128 512 128L512 96C512 87.2 504.8 80 496 80C487.2 80 480 87.2 480 96L480 128L160 128L160 96C160 87.2 152.8 80 144 80C135.2 80 128 87.2 128 96zM512 160C529.7 160 544 174.3 544 192L544 448C544 465.7 529.7 480 512 480L128 480C110.3 480 96 465.7 96 448L96 192C96 174.3 110.3 160 128 160L512 160z"/></svg>