<svg xmlns="http://www.w3.org/2000/svg" viewBox="0 0 640 640"><!--! Font Awesome Pro 7.1.0 by @fontawesome - https://fontawesome.com License - https://fontawesome.com/license (Commercial License) Copyright 2025 Fonticons, Inc. --><path fill="currentColor" d="M232 400C232 391.2 224.8 384 216 384C207.2 384 200 391.2 200 400L200 528C200 536.8 207.2 544 216 544C224.8 544 232 536.8 232 528L232 400zM128 464C128 455.2 120.8 448 112 448C103.2 448 96 455.2 96 464L96 528C96 536.8 103.2 544 112 544C120.8 544 128 536.8 128 528L128 464z"/></svg>