<svg xmlns="http://www.w3.org/2000/svg" viewBox="0 0 640 640"><!--! Font Awesome Pro 7.1.0 by @fontawesome - https://fontawesome.com License - https://fontawesome.com/license (Commercial License) Copyright 2025 Fonticons, Inc. --><path fill="currentColor" d="M96 96L96 128C60.7 128 32 156.7 32 192L32 448C32 483.3 60.7 512 96 512L96 512L96 560C96 568.8 103.2 576 112 576C120.8 576 128 568.8 128 560L128 512L364.5 512C358 502 352.4 491.3 348 480L96 480C78.3 480 64 465.7 64 448L64 192C64 174.3 78.3 160 96 160L480 160C497.7 160 512 174.3 512 192L512 240C522.9 240 533.6 241 544 242.9L544 192C544 156.7 515.3 128 480 128L480 96C480 87.2 472.8 80 464 80C455.2 80 448 87.2 448 96L448 128L128 128L128 96C128 87.2 120.8 80 112 80C103.2 80 96 87.2 96 96zM480 314.8C480 309.3 477.2 304.2 472.5 301.3C467.8 298.4 462 298 457.1 300.4C413.9 320.9 384 365 384 416.1C384 463.5 409.8 504.9 448 527L448 592.1C448 600.9 455.2 608.1 464 608.1C472.8 608.1 480 600.9 480 592.1L480 517.3C480 511.1 476.4 505.5 470.9 502.8C438.4 487.4 416 454.3 416 416C416 387.6 428.3 362 448 344.4L448 384C448 419.3 476.7 448 512 448C547.3 448 576 419.3 576 384L576 344.4C595.7 362 608 387.5 608 416C608 454.3 585.6 487.3 553.1 502.8C547.5 505.4 544 511.1 544 517.3L544 592.1C544 600.9 551.2 608.1 560 608.1C568.8 608.1 576 600.9 576 592.1L576 527C614.2 504.9 640 463.5 640 416.1C640 365 610.1 321 566.9 300.4C561.9 298 556.1 298.4 551.5 301.3C546.9 304.2 544 309.3 544 314.8L544 384C544 401.7 529.7 416 512 416C494.3 416 480 401.7 480 384L480 314.8z"/></svg>