<svg xmlns="http://www.w3.org/2000/svg" viewBox="0 0 640 640"><!--! Font Awesome Pro 7.1.0 by @fontawesome - https://fontawesome.com License - https://fontawesome.com/license (Commercial License) Copyright 2025 Fonticons, Inc. --><path fill="currentColor" d="M464 64C455.2 64 448 71.2 448 80L448 128L438.1 128C381.7 128 336 173.7 336 230.1C336 280.5 372.8 323.4 422.6 331L484.6 340.5C518.8 345.8 544.1 375.2 544.1 409.8C544.1 448.5 512.7 479.9 474 479.9L368 480C359.2 480 352 487.2 352 496C352 504.8 359.2 512 368 512L448 512L448 560C448 568.8 455.2 576 464 576C472.8 576 480 568.8 480 560L480 511.8C533.5 508.6 576 464.2 576 409.9C576 359.5 539.2 316.6 489.4 309L427.4 299.5C393.2 294.2 367.9 264.8 367.9 230.2C367.9 191.5 399.3 160.1 438 160.1L447.9 160.1L447.9 160.1L479.9 160.1L479.9 160.1L527.9 160.1C536.7 160.1 543.9 152.9 543.9 144.1C543.9 135.3 536.7 128.1 527.9 128.1L479.9 128.1L479.9 80.1C479.9 71.3 472.7 64.1 463.9 64.1zM166.1 128C109.7 128 64 173.7 64 230.1C64 280.5 100.8 323.4 150.6 331L212.6 340.5C246.8 345.8 272.1 375.2 272.1 409.8C272.1 448.5 240.7 479.9 202 479.9L96 480C87.2 480 80 487.2 80 496C80 504.8 87.2 512 96 512L201.9 512C258.3 512 304 466.3 304 409.9C304 359.5 267.2 316.6 217.4 309L155.4 299.5C121.3 294.2 96 264.7 96 230.1C96 191.4 127.4 160 166.1 160L256 160C264.8 160 272 152.8 272 144C272 135.2 264.8 128 256 128L166.1 128z"/></svg>