<svg xmlns="http://www.w3.org/2000/svg" viewBox="0 0 640 640"><!--! Font Awesome Pro 7.1.0 by @fontawesome - https://fontawesome.com License - https://fontawesome.com/license (Commercial License) Copyright 2025 Fonticons, Inc. --><path fill="currentColor" d="M192 128C156.7 128 128 156.7 128 192L128 240C128 248.8 120.8 256 112 256C103.2 256 96 248.8 96 240L96 192C96 139 139 96 192 96C245 96 288 139 288 192L288 195.4C288 216.4 286.6 237.4 283.7 258.2L395.4 224.7C401.5 222.9 408.1 224.8 412.2 229.7C413.9 231.7 415 234 415.5 236.4C386.5 259.9 367.9 295.8 367.9 336L367.9 360.4C360.3 367.2 353.8 375.2 348.7 384L336 384C330.5 384 325.3 381.1 322.4 376.4C319.5 371.7 319.2 365.8 321.7 360.8L369.1 265.9L277.4 293.4C275.6 301.9 273.5 310.3 271.2 318.6L264 344.4C252.6 385.4 236.3 424.9 215.5 461.9L188.4 510C176.6 531 154.5 544 130.5 544C93.8 544 64 514.2 64 477.5L64 383.6C64 348.3 87.2 317.1 121 307L249.7 268.4C253.9 244.3 256 219.9 256 195.4L256 192C256 156.7 227.3 128 192 128zM336 480L260.4 480C266.2 469.5 271.6 458.8 276.7 448L336 448L336 480zM242 304.1L130.2 337.6C109.9 343.7 96 362.4 96 383.6L96 477.5C96 496.5 111.4 512 130.5 512C143 512 154.4 505.3 160.6 494.4L187.7 446.3C207.3 411.5 222.6 374.4 233.3 335.9L240.5 310.2C241.1 308.2 241.6 306.2 242.1 304.2zM416 384.1L416 336.1C416 291.9 451.8 256.1 496 256.1C540.2 256.1 576 291.9 576 336.1L576 386.7C594.6 393.3 608 411.1 608 432L608 528C608 554.5 586.5 576 560 576L432 576C405.5 576 384 554.5 384 528L384 432C384 411.1 397.4 393.3 416 386.7L416 384.1zM416 432L416 528C416 536.8 423.2 544 432 544L560 544C568.8 544 576 536.8 576 528L576 432C576 423.8 569.8 417 561.7 416.1L430.2 416.1C422.2 417 415.9 423.8 415.9 432zM544 336.1C544 309.6 522.5 288.1 496 288.1C469.5 288.1 448 309.6 448 336.1L448 384L544 384L544 336.1z"/></svg>