<svg xmlns="http://www.w3.org/2000/svg" viewBox="0 0 640 640"><!--! Font Awesome Pro 7.1.0 by @fontawesome - https://fontawesome.com License - https://fontawesome.com/license (Commercial License) Copyright 2025 Fonticons, Inc. --><path fill="currentColor" d="M130.5 124.3C137 130.3 137.4 140.4 131.5 146.9C89.6 192.5 64.1 253.3 64.1 320C64.1 386.7 89.5 447.5 131.4 493.1C137.4 499.6 136.9 509.7 130.4 515.7C123.9 521.7 113.8 521.2 107.8 514.7C60.8 463.5 32 395.1 32 320C32 244.9 60.8 176.5 107.9 125.2C113.9 118.7 124 118.3 130.5 124.2zM509.6 124.3C516.1 118.3 526.2 118.8 532.2 125.3C579.3 176.6 608.1 245 608.1 320.1C608.1 395.2 579.3 463.6 532.2 514.9C526.2 521.4 516.1 521.8 509.6 515.9C503.1 510 502.7 499.8 508.6 493.3C550.5 447.5 576 386.8 576 320C576 253.2 550.5 192.5 508.6 146.9C502.6 140.4 503.1 130.3 509.6 124.3zM256 320C256 284.7 284.7 256 320 256C355.3 256 384 284.7 384 320C384 355.3 355.3 384 320 384C284.7 384 256 355.3 256 320zM320 352C337.7 352 352 337.7 352 320C352 302.3 337.7 288 320 288C302.3 288 288 302.3 288 320C288 337.7 302.3 352 320 352zM217.2 219.2C191.7 245.2 176 280.7 176 320C176 359.3 191.7 394.8 217.2 420.8C223.4 427.1 223.3 437.2 217 443.4C210.7 449.6 200.6 449.5 194.4 443.2C163.2 411.5 144 368 144 320C144 272 163.2 228.5 194.3 196.8C200.5 190.5 210.6 190.4 216.9 196.6C223.2 202.8 223.3 212.9 217.1 219.2zM445.7 196.8C476.8 228.5 496 272 496 320C496 368 476.8 411.5 445.7 443.2C439.5 449.5 429.4 449.6 423.1 443.4C416.8 437.2 416.7 427.1 422.9 420.8C448.4 394.8 464.1 359.3 464.1 320C464.1 280.7 448.4 245.2 422.9 219.2C416.7 212.9 416.8 202.8 423.1 196.6C429.4 190.4 439.5 190.5 445.7 196.8z"/></svg>