<svg xmlns="http://www.w3.org/2000/svg" viewBox="0 0 640 640"><!--! Font Awesome Pro 7.1.0 by @fontawesome - https://fontawesome.com License - https://fontawesome.com/license (Commercial License) Copyright 2025 Fonticons, Inc. --><path fill="currentColor" d="M544 112C544 103.2 536.8 96 528 96C519.2 96 512 103.2 512 112L512 528C512 536.8 519.2 544 528 544C536.8 544 544 536.8 544 528L544 112zM389.3 192C380.5 192 373.3 199.2 373.3 208L373.3 528C373.3 536.8 380.5 544 389.3 544C398.1 544 405.3 536.8 405.3 528L405.3 208C405.3 199.2 398.1 192 389.3 192zM266.7 336C266.7 327.2 259.5 320 250.7 320C241.9 320 234.7 327.2 234.7 336L234.7 528C234.7 536.8 241.9 544 250.7 544C259.5 544 266.7 536.8 266.7 528L266.7 336zM128 464C128 455.2 120.8 448 112 448C103.2 448 96 455.2 96 464L96 528C96 536.8 103.2 544 112 544C120.8 544 128 536.8 128 528L128 464z"/></svg>