<svg xmlns="http://www.w3.org/2000/svg" viewBox="0 0 640 640"><!--! Font Awesome Pro 7.1.0 by @fontawesome - https://fontawesome.com License - https://fontawesome.com/license (Commercial License) Copyright 2025 Fonticons, Inc. --><path fill="currentColor" d="M192 96C174.3 96 160 110.3 160 128L160 512C160 529.7 174.3 544 192 544L448 544C465.7 544 480 529.7 480 512L480 189.3C480 180.8 476.6 172.7 470.6 166.7L409.4 105.4C403.4 99.4 395.3 96 386.8 96L192 96zM432 82.7L493.3 144C505.3 156 512 172.3 512 189.3L512 512C512 547.3 483.3 576 448 576L192 576C156.7 576 128 547.3 128 512L128 128C128 92.7 156.7 64 192 64L386.7 64C403.7 64 420 70.7 432 82.7zM416 480L416 416L304 416L304 480L416 480zM272 480L272 416L224 416L224 480L272 480zM224 320L224 384L336 384L336 320L224 320zM416 384L416 320L368 320L368 384L416 384zM448 320L448 480C448 497.7 433.7 512 416 512L224 512C206.3 512 192 497.7 192 480L192 320C192 302.3 206.3 288 224 288L416 288C433.7 288 448 302.3 448 320z"/></svg>