<svg xmlns="http://www.w3.org/2000/svg" viewBox="0 0 640 640"><!--! Font Awesome Pro 7.1.0 by @fontawesome - https://fontawesome.com License - https://fontawesome.com/license (Commercial License) Copyright 2025 Fonticons, Inc. --><path fill="currentColor" d="M224 448L224 96C224 78.3 238.3 64 256 64L421.5 64C430 64 438.1 67.4 444.1 73.4L502.6 131.9C508.6 137.9 512 146 512 154.5L512 448C512 465.7 497.7 480 480 480L256 480C238.3 480 224 465.7 224 448zM256 512L480 512C515.3 512 544 483.3 544 448L544 154.5C544 137.5 537.3 121.2 525.3 109.2L466.7 50.7C454.7 38.7 438.4 32 421.4 32L256 32C220.7 32 192 60.7 192 96L192 448C192 483.3 220.7 512 256 512zM128 240C128 231.2 120.8 224 112 224C103.2 224 96 231.2 96 240L96 544C96 579.3 124.7 608 160 608L432 608C440.8 608 448 600.8 448 592C448 583.2 440.8 576 432 576L160 576C142.3 576 128 561.7 128 544L128 240zM368 288L368 336L288 336L288 288L368 288zM400 288L448 288L448 336L400 336L400 288zM448 368L448 416L368 416L368 368L448 368zM336 416L288 416L288 368L336 368L336 416zM288 256C270.3 256 256 270.3 256 288L256 416C256 433.7 270.3 448 288 448L448 448C465.7 448 480 433.7 480 416L480 288C480 270.3 465.7 256 448 256L288 256z"/></svg>