<svg xmlns="http://www.w3.org/2000/svg" viewBox="0 0 640 640"><!--! Font Awesome Pro 7.1.0 by @fontawesome - https://fontawesome.com License - https://fontawesome.com/license (Commercial License) Copyright 2025 Fonticons, Inc. --><path fill="currentColor" d="M368 160C376.8 160 384 167.2 384 176C384 184.8 376.8 192 368 192L336 192C291.8 192 256 227.8 256 272L256 296.6C263.6 292.2 272.3 289.3 281.5 288.3L288 288L352 288L358.5 288.3C390.8 291.6 416 318.8 416 352L416 416L415.7 422.5C412.6 452.6 388.7 476.6 358.6 479.6L352.1 479.9L288.1 479.9L281.6 479.6C251.5 476.5 227.5 452.6 224.5 422.5L224 416L224 272C224 210.1 274.1 160 336 160L368 160zM288 320C270.3 320 256 334.3 256 352L256 416C256 433.7 270.3 448 288 448L352 448C369.7 448 384 433.7 384 416L384 352C384 334.3 369.7 320 352 320L288 320z"/></svg>