<svg xmlns="http://www.w3.org/2000/svg" viewBox="0 0 640 640"><!--! Font Awesome Pro 7.1.0 by @fontawesome - https://fontawesome.com License - https://fontawesome.com/license (Commercial License) Copyright 2025 Fonticons, Inc. --><path fill="currentColor" d="M272 480C263.2 480 256 472.8 256 464C256 455.2 263.2 448 272 448L304 448C348.2 448 384 412.2 384 368L384 343.4C376.4 347.8 367.7 350.7 358.5 351.7L352 352L288 352L281.5 351.7C249.2 348.4 224 321.1 224 288L224 224L224.3 217.5C227.4 187.4 251.3 163.4 281.4 160.4L287.9 160.1L351.9 160.1L358.4 160.4C388.5 163.5 412.5 187.4 415.5 217.5L415.8 224L415.8 368C415.8 429.9 365.7 480 303.8 480L271.8 480zM352 320C369.7 320 384 305.7 384 288L384 224C384 206.3 369.7 192 352 192L288 192C270.3 192 256 206.3 256 224L256 288C256 305.7 270.3 320 288 320L352 320z"/></svg>