<svg xmlns="http://www.w3.org/2000/svg" viewBox="0 0 640 640"><!--! Font Awesome Pro 7.1.0 by @fontawesome - https://fontawesome.com License - https://fontawesome.com/license (Commercial License) Copyright 2025 Fonticons, Inc. --><path fill="currentColor" d="M336 144C336 117.5 357.5 96 384 96C410.5 96 432 117.5 432 144L432 176C432 184.8 439.2 192 448 192C456.8 192 464 184.8 464 176L464 144C464 99.8 428.2 64 384 64C339.8 64 304 99.8 304 144L304 352L224 352L224 336C224 309.5 202.5 288 176 288L112 288C103.2 288 96 295.2 96 304C96 312.8 103.2 320 112 320L176 320C184.8 320 192 327.2 192 336L192 352L80 352C71.2 352 64 359.2 64 368C64 376.8 71.2 384 80 384L96 384L96 464C96 525.9 146.1 576 208 576L432 576C493.9 576 544 525.9 544 464L544 384L560 384C568.8 384 576 376.8 576 368C576 359.2 568.8 352 560 352L448 352L448 336C448 327.2 455.2 320 464 320L528 320C536.8 320 544 312.8 544 304C544 295.2 536.8 288 528 288L464 288C437.5 288 416 309.5 416 336L416 352L336 352L336 144zM512 384L512 464C512 508.2 476.2 544 432 544L208 544C163.8 544 128 508.2 128 464L128 384L512 384z"/></svg>