<svg xmlns="http://www.w3.org/2000/svg" viewBox="0 0 640 640"><!--! Font Awesome Pro 7.1.0 by @fontawesome - https://fontawesome.com License - https://fontawesome.com/license (Commercial License) Copyright 2025 Fonticons, Inc. --><path fill="currentColor" d="M55.2 97.7C47.3 93.7 37.7 97 33.7 104.9C29.7 112.8 33 122.4 40.9 126.4L104.9 158.4C112.8 162.4 122.4 159.1 126.4 151.2C130.4 143.3 127.1 133.7 119.2 129.7L55.2 97.7zM599.2 126.3C607.1 122.3 610.3 112.7 606.4 104.8C602.5 96.9 592.8 93.7 584.9 97.6L520.9 129.6C513 133.6 509.8 143.2 513.7 151.1C517.6 159 527.3 162.2 535.2 158.3L599.2 126.3zM16 256C7.2 256 0 263.2 0 272C0 280.8 7.2 288 16 288L80 288C88.8 288 96 280.8 96 272C96 263.2 88.8 256 80 256L16 256zM560 256C551.2 256 544 263.2 544 272C544 280.8 551.2 288 560 288L624 288C632.8 288 640 280.8 640 272C640 263.2 632.8 256 624 256L560 256zM169 384L200.2 155.7C202.3 139.8 215.9 128 231.9 128L408.2 128C424.2 128 437.7 139.8 439.9 155.7L471 384L273.7 384L287.9 241.6C288.8 232.8 282.4 225 273.6 224.1C264.8 223.2 257 229.6 256.1 238.4L241.5 384L169 384zM144 416L496 416C504.8 416 512 423.2 512 432L512 496C512 504.8 504.8 512 496 512L144 512C135.2 512 128 504.8 128 496L128 432C128 423.2 135.2 416 144 416zM503.4 384.6L471.5 151.4C467.2 119.6 440.1 96 408.1 96L231.9 96C199.9 96 172.8 119.6 168.5 151.4L136.7 384.6C113.6 388.1 96 408 96 432L96 496C96 522.5 117.5 544 144 544L496 544C522.5 544 544 522.5 544 496L544 432C544 408 526.4 388.1 503.4 384.6z"/></svg>