<svg xmlns="http://www.w3.org/2000/svg" viewBox="0 0 640 640"><!--! Font Awesome Pro 7.1.0 by @fontawesome - https://fontawesome.com License - https://fontawesome.com/license (Commercial License) Copyright 2025 Fonticons, Inc. --><path fill="currentColor" d="M241.5 384L256.1 238.4C257 229.6 264.8 223.2 273.6 224.1C282.4 225 288.8 232.8 287.9 241.6L273.7 384L471 384L439.8 155.7C437.7 139.8 424.1 128 408.1 128L231.9 128C215.9 128 202.4 139.8 200.2 155.7L169 384L241.5 384zM255.8 416L144 416C135.2 416 128 423.2 128 432L128 496C128 504.8 135.2 512 144 512L496 512C504.8 512 512 504.8 512 496L512 432C512 423.2 504.8 416 496 416L255.9 416zM471.5 151.4L503.3 384.6C526.3 388.1 543.9 408 543.9 432L543.9 496C543.9 522.5 522.4 544 495.9 544L144 544C117.5 544 96 522.5 96 496L96 432C96 408 113.6 388.1 136.7 384.6L168.5 151.4C172.8 119.6 199.9 96 231.9 96L408.2 96C440.2 96 467.3 119.6 471.6 151.4z"/></svg>