<svg xmlns="http://www.w3.org/2000/svg" viewBox="0 0 640 640"><!--! Font Awesome Pro 7.1.0 by @fontawesome - https://fontawesome.com License - https://fontawesome.com/license (Commercial License) Copyright 2025 Fonticons, Inc. --><path fill="currentColor" d="M336 80C336 71.2 328.8 64 320 64C311.2 64 304 71.2 304 80L304 128L254.1 128C224.8 128 197.5 144 184.4 170.9C169.5 201.7 147.5 250 129.2 302.9C111 355.4 96 413.8 96 464L96 475.2C96 513.2 126.8 544 164.8 544C174.4 544 183.9 542 192.7 538.1L274.5 501.8C284 497.6 293.9 494.8 304 493.3L304 560.1C304 568.9 311.2 576.1 320 576.1C328.8 576.1 336 568.9 336 560.1L336 493.3C346.1 494.8 356 497.6 365.5 501.8L447.3 538.1C456.1 542 465.6 544 475.2 544C513.2 544 544 513.2 544 475.2L544 464C544 413.8 529 355.5 510.8 302.9C492.5 250.1 470.5 201.7 455.6 170.9C442.5 144 415.2 128 385.9 128L336 128L336 80zM304 160L304 242.9L176.2 268.5C189.5 235.3 203 206 213.2 185C220.6 169.7 236.4 160.1 254.1 160.1L304 160zM162.8 303.7L163.1 303.6L304 275.4L304 347.9L135.8 397C141.5 369.6 149.9 341.1 159.5 313.3C160.6 310.1 161.8 306.8 162.9 303.6zM130 431.9C130.8 431.8 131.6 431.6 132.4 431.4L303.9 381.4L303.9 461C289.4 462.6 275 466.5 261.4 472.5L179.6 508.8C174.9 510.9 169.8 512 164.7 512C144.4 512 127.9 495.5 127.9 475.2L127.9 464C127.9 453.7 128.6 443 129.9 431.9zM336 461L336 381.4L507.5 431.4C508.3 431.6 509.1 431.8 510 431.9C511.3 443 512 453.8 512 464L512 475.2C512 495.5 495.5 512 475.2 512C470.1 512 465 510.9 460.3 508.8L378.5 472.5C364.9 466.4 350.5 462.6 336 461zM504.2 397.1L336 348L336 275.5L476.9 303.7L477.2 303.8C478.3 307 479.5 310.2 480.6 313.5C490.2 341.2 498.6 369.7 504.3 397.2zM463.8 268.4L336 242.9L336 160L385.9 160C403.6 160 419.4 169.6 426.8 184.9C437 205.9 450.5 235.2 463.8 268.4zM0 192L0 560C0 568.8 7.2 576 16 576C24.8 576 32 568.8 32 560L32 304C32 295.4 36.9 287.4 44.6 283.6L89.1 261.4C112.9 249.5 128 225.1 128 198.4L128 192C128 156.7 99.3 128 64 128C28.7 128 0 156.7 0 192zM32 254.1L32 192C32 174.3 46.3 160 64 160C81.7 160 96 174.3 96 192L96 198.4C96 212.9 87.8 226.2 74.8 232.7L32 254.1zM576 128C540.7 128 512 156.7 512 192L512 198.4C512 225.1 527.1 249.4 550.9 261.4L595.4 283.6C603.1 287.5 608 295.4 608 304L608 560C608 568.8 615.2 576 624 576C632.8 576 640 568.8 640 560L640 192C640 156.7 611.3 128 576 128zM565.2 232.7C552.2 226.2 544 212.9 544 198.4L544 192C544 174.3 558.3 160 576 160C593.7 160 608 174.3 608 192L608 254.1L565.2 232.7z"/></svg>