<svg xmlns="http://www.w3.org/2000/svg" viewBox="0 0 640 640"><!--! Font Awesome Pro 7.1.0 by @fontawesome - https://fontawesome.com License - https://fontawesome.com/license (Commercial License) Copyright 2025 Fonticons, Inc. --><path fill="currentColor" d="M320 64C328.8 64 336 71.2 336 80L336 160L488 160C496.8 160 504 167.2 504 176C504 184.8 496.8 192 488 192L336 192L336 256L552 256C560.8 256 568 263.2 568 272C568 280.8 560.8 288 552 288L336 288L336 352L456 352C464.8 352 472 359.2 472 368C472 376.8 464.8 384 456 384L336 384L336 480L400 480C444.2 480 480 515.8 480 560C480 568.8 472.8 576 464 576C455.2 576 448 568.8 448 560C448 533.5 426.5 512 400 512L240 512C213.5 512 192 533.5 192 560C192 568.8 184.8 576 176 576C167.2 576 160 568.8 160 560C160 515.8 195.8 480 240 480L304 480L304 384L184 384C175.2 384 168 376.8 168 368C168 359.2 175.2 352 184 352L304 352L304 288L88 288C79.2 288 72 280.8 72 272C72 263.2 79.2 256 88 256L304 256L304 192L152 192C143.2 192 136 184.8 136 176C136 167.2 143.2 160 152 160L304 160L304 80C304 71.2 311.2 64 320 64z"/></svg>