<svg xmlns="http://www.w3.org/2000/svg" viewBox="0 0 640 640"><!--! Font Awesome Pro 7.1.0 by @fontawesome - https://fontawesome.com License - https://fontawesome.com/license (Commercial License) Copyright 2025 Fonticons, Inc. --><path fill="currentColor" d="M434.9 64.3C443.6 65.9 449.3 74.3 447.7 83L401.6 328.6L508.3 399.8L512.4 402.7C532.2 417.8 544 441.3 544 466.4L544 544.2L560 544.2C568.8 544.2 576 551.4 576 560.2C576 569 568.8 576.2 560 576.2L80 576C71.2 576 64 568.8 64 560L64 523.4C64 514.9 64.8 506.3 66.3 497.9L136.3 109.1L137.1 106.4C139.3 100.2 145.2 96 152 96L412.7 96L416.3 77.1C417.9 68.4 426.3 62.7 435 64.3zM303.3 128C266.5 291.4 176.9 347.7 122.4 366.7L97.8 503.6C96.6 510.1 96 516.8 96 523.4L96 544L512 544L512 466.2C512 452.2 505.8 438.9 495.4 429.9L490.7 426.3L379.2 352L304 352C295.2 352 288 344.8 288 336C288 327.2 295.2 320 304 320L370.7 320L382.7 256L336 256C327.2 256 320 248.8 320 240C320 231.2 327.2 224 336 224L388.7 224L406.7 128L303.3 128zM129.1 329.5C174.2 308.6 239.5 256.9 270.5 128L165.4 128L129.1 329.5z"/></svg>