<svg xmlns="http://www.w3.org/2000/svg" viewBox="0 0 640 640"><!--! Font Awesome Pro 7.1.0 by @fontawesome - https://fontawesome.com License - https://fontawesome.com/license (Commercial License) Copyright 2025 Fonticons, Inc. --><path fill="currentColor" d="M624 464C632.8 464 640 471.2 640 480L640 496C640 540.2 604.2 576 560 576L16 576C7.2 576 0 568.8 0 560C0 551.2 7.2 544 16 544L560 544C586.5 544 608 522.5 608 496L608 480C608 471.2 615.2 464 624 464zM419.6 64.4C428.2 66.4 433.6 75 431.6 83.6L386.4 279.3L458.9 315.5L464.8 318.8C493.9 336 512 367.3 512 401.4L512 416C512 451.3 483.3 480 448 480L169.5 480C129.6 480 99.4 443.8 106.5 404.6L153.1 148.6C158.6 118.2 185.1 96 216.1 96L395.9 96L400.4 76.4C402.4 67.8 411 62.4 419.6 64.4zM284.6 128C258.9 226.3 201.8 266.6 161.2 282.8L138 410.3C134.4 429.9 149.5 448 169.5 448L448 448C465.7 448 480 433.7 480 416L480 401.4C480 378.7 468 357.8 448.6 346.3L444.6 344.1L364.2 303.9L320 303.9C311.2 303.9 304 296.7 304 287.9C304 279.1 311.2 271.9 320 271.9L355.3 271.9L366.4 223.9L336.1 223.9C327.3 223.9 320.1 216.7 320.1 207.9C320.1 199.1 327.3 191.9 336.1 191.9L373.8 191.9L388.6 127.9L284.7 127.9zM216.1 128C200.6 128 187.4 139.1 184.6 154.3L168.3 244C197.5 227.2 232.2 194 251.4 128.1L216.1 128.1z"/></svg>