<svg xmlns="http://www.w3.org/2000/svg" viewBox="0 0 640 640"><!--! Font Awesome Pro 7.1.0 by @fontawesome - https://fontawesome.com License - https://fontawesome.com/license (Commercial License) Copyright 2025 Fonticons, Inc. --><path fill="currentColor" d="M432.8 136C432.8 122.7 443.5 112 456.8 112C470.1 112 480.8 122.7 480.8 136C480.8 149.3 470.1 160 456.8 160C443.5 160 432.8 149.3 432.8 136zM512.8 136C512.8 105.1 487.7 80 456.8 80C425.9 80 400.8 105.1 400.8 136C400.8 166.9 425.9 192 456.8 192C487.7 192 512.8 166.9 512.8 136zM544 285.9C551.3 281.7 554.1 272.5 550.3 264.9C546.3 257 536.7 253.8 528.8 257.7L488.4 277.9C481.6 281.3 473.2 279.4 468.6 273.3L444.6 242.1C416.5 205.6 377.2 179.5 332.7 167.8L295 157.9C258.6 148.3 221.8 172.1 215.6 209.3L208.8 250.2L55.2 496L92.9 496L237.4 264.8C238.1 263.7 238.7 262.6 239.1 261.4C239.5 260.4 239.7 259.4 239.9 258.3L247.2 214.6C250.3 196 268.7 184.1 286.9 188.9L322 198.1L267.7 291.8C249.2 323.7 261.5 364.6 294.5 381.1L366.9 417.3C374.3 421 377.6 429.7 374.7 437.4L335.8 538.3C335.1 540.2 334.7 542.1 334.7 544L196.5 544L249.5 477.7C252.4 474 254.8 469.9 256.6 465.5L273.2 424.1C263.1 419 254.1 412.6 246.3 405.2L226.9 453.6C226.3 455.1 225.5 456.4 224.5 457.7L163.5 534L155.5 544L48 544C39.2 544 32 551.2 32 560C32 568.8 39.2 576 48 576L541.5 576C562.7 576 583.1 567.6 598.1 552.6L603.4 547.3C609.6 541.1 609.6 530.9 603.4 524.7C597.2 518.5 587 518.5 580.8 524.7L575.5 530C566.5 539 554.3 544.1 541.6 544.1L368 544.1L404.6 449C413.5 425.9 403.4 399.9 381.3 388.8L354.9 375.6L423.3 266.8L443.4 292.9C457.4 311.1 482.4 316.8 502.9 306.6L512.2 302L512.2 496.1L544.2 496.1L544.2 286zM326 361.1L308.8 352.5C292.3 344.3 286.2 323.8 295.4 307.8L352.7 208.8C370.5 216.9 386.9 228 401.1 241.5L326 361.1z"/></svg>