<svg xmlns="http://www.w3.org/2000/svg" viewBox="0 0 640 640"><!--! Font Awesome Pro 7.1.0 by @fontawesome - https://fontawesome.com License - https://fontawesome.com/license (Commercial License) Copyright 2025 Fonticons, Inc. --><path fill="currentColor" d="M398.1 296.7C429.3 275.6 448 243.2 448 208C448 149.2 393.9 96 320 96C246.1 96 192 149.2 192 208C192 243.2 210.7 275.6 241.9 296.7C250.7 302.7 256 312.6 256 323.2L256 336C256 344.8 263.2 352 272 352L368 352C376.8 352 384 344.8 384 336L384 323.2C384 312.6 389.3 302.6 398.1 296.7zM416 336C416 362.5 394.5 384 368 384L272 384C245.5 384 224 362.5 224 336L224 323.2C185.1 296.9 160 255.1 160 208C160 128.5 231.6 64 320 64C408.4 64 480 128.5 480 208C480 255.1 454.9 296.9 416 323.2L416 336zM97.5 393.3C101.2 385.3 110.7 381.8 118.7 385.5L320 478.4L521.3 385.5C529.3 381.8 538.8 385.3 542.5 393.3C546.2 401.3 542.7 410.8 534.7 414.5L358.2 496L534.7 577.5C542.7 581.2 546.2 590.7 542.5 598.7C538.8 606.7 529.3 610.2 521.3 606.5L320 513.6L118.7 606.5C110.7 610.2 101.2 606.7 97.5 598.7C93.8 590.7 97.3 581.2 105.3 577.5L281.8 496L105.3 414.5C97.3 410.8 93.8 401.3 97.5 393.3zM248 208C248 194.7 258.7 184 272 184C285.3 184 296 194.7 296 208C296 221.3 285.3 232 272 232C258.7 232 248 221.3 248 208zM368 184C381.3 184 392 194.7 392 208C392 221.3 381.3 232 368 232C354.7 232 344 221.3 344 208C344 194.7 354.7 184 368 184z"/></svg>