<svg xmlns="http://www.w3.org/2000/svg" viewBox="0 0 640 640"><!--! Font Awesome Pro 7.1.0 by @fontawesome - https://fontawesome.com License - https://fontawesome.com/license (Commercial License) Copyright 2025 Fonticons, Inc. --><path fill="currentColor" d="M48 96C39.2 96 32 103.2 32 112C32 120.8 39.2 128 48 128L64 128L64 320C64 361.8 90.7 397.4 128 410.5L128 496L48 496C39.2 496 32 503.2 32 512C32 520.8 39.2 528 48 528L568 528C607.8 528 640 495.8 640 456L640 448C640 439.2 632.8 432 624 432C615.2 432 608 439.2 608 448L608 456C608 478.1 590.1 496 568 496L480 496L480 416C533 416 576 373 576 320L576 192L592 192C600.8 192 608 184.8 608 176C608 167.2 600.8 160 592 160L560 160C551.2 160 544 167.2 544 176L544 192C544 227.3 515.3 256 480 256L392.5 256C347.5 256 305.9 232.4 282.7 193.9L261.3 158.1C238.2 119.6 196.5 96 151.5 96L48 96zM448 496L160 496L160 416L448 416L448 496zM544 320C544 355.3 515.3 384 480 384L160 384C124.7 384 96 355.3 96 320L96 128L151.5 128C185.2 128 216.5 145.7 233.8 174.6L255.2 210.3C284.1 258.5 336.2 288 392.4 288L479.9 288C504.5 288 526.9 278.8 543.9 263.6L543.9 320z"/></svg>