<svg xmlns="http://www.w3.org/2000/svg" viewBox="0 0 640 640"><!--! Font Awesome Pro 7.1.0 by @fontawesome - https://fontawesome.com License - https://fontawesome.com/license (Commercial License) Copyright 2025 Fonticons, Inc. --><path fill="currentColor" d="M160 64C168.8 64 176 71.2 176 80L176 145.6C212.5 153 240 185.3 240 224C240 262.7 212.5 295 176 302.4L176 560C176 568.8 168.8 576 160 576C151.2 576 144 568.8 144 560L144 302.4C107.5 295 80 262.7 80 224C80 185.3 107.5 153 144 145.6L144 80C144 71.2 151.2 64 160 64zM160 272C186.5 272 208 250.5 208 224C208 197.5 186.5 176 160 176C133.5 176 112 197.5 112 224C112 250.5 133.5 272 160 272zM320 464C346.5 464 368 442.5 368 416C368 389.5 346.5 368 320 368C293.5 368 272 389.5 272 416C272 442.5 293.5 464 320 464zM400 416C400 454.7 372.5 487 336 494.4L336 560C336 568.8 328.8 576 320 576C311.2 576 304 568.8 304 560L304 494.4C267.5 487 240 454.7 240 416C240 377.3 267.5 345 304 337.6L304 80C304 71.2 311.2 64 320 64C328.8 64 336 71.2 336 80L336 337.6C372.5 345 400 377.3 400 416zM528 256C528 229.5 506.5 208 480 208C453.5 208 432 229.5 432 256C432 282.5 453.5 304 480 304C506.5 304 528 282.5 528 256zM496 334.4L496 560C496 568.8 488.8 576 480 576C471.2 576 464 568.8 464 560L464 334.4C427.5 327 400 294.7 400 256C400 217.3 427.5 185 464 177.6L464 80C464 71.2 471.2 64 480 64C488.8 64 496 71.2 496 80L496 177.6C532.5 185 560 217.3 560 256C560 294.7 532.5 327 496 334.4z"/></svg>