<svg xmlns="http://www.w3.org/2000/svg" viewBox="0 0 640 640"><!--! Font Awesome Pro 7.1.0 by @fontawesome - https://fontawesome.com License - https://fontawesome.com/license (Commercial License) Copyright 2025 Fonticons, Inc. --><path fill="currentColor" d="M480 320C480 267 437 224 384 224C331 224 288 267 288 320C288 373 331 416 384 416C437 416 480 373 480 320zM511 336C503.1 399.1 449.3 448 384 448C313.3 448 256 390.7 256 320C256 249.3 313.3 192 384 192C449.3 192 503.1 240.9 511 304L592 304C600.8 304 608 311.2 608 320C608 328.8 600.8 336 592 336L511 336zM208.7 304C208.2 309.3 208 314.6 208 320C208 325.4 208.2 330.7 208.7 336L48 336C39.2 336 32 328.8 32 320C32 311.2 39.2 304 48 304L208.7 304z"/></svg>