<svg xmlns="http://www.w3.org/2000/svg" viewBox="0 0 640 640"><!--! Font Awesome Pro 7.1.0 by @fontawesome - https://fontawesome.com License - https://fontawesome.com/license (Commercial License) Copyright 2025 Fonticons, Inc. --><path fill="currentColor" d="M144 480C117.5 480 96 458.5 96 432C96 405.5 117.5 384 144 384C170.5 384 192 405.5 192 432C192 458.5 170.5 480 144 480zM222.4 416C215 379.5 182.7 352 144 352C99.8 352 64 387.8 64 432C64 476.2 99.8 512 144 512C182.7 512 215 484.5 222.4 448L560 448C568.8 448 576 440.8 576 432C576 423.2 568.8 416 560 416L222.4 416zM544 208C544 234.5 522.5 256 496 256C469.5 256 448 234.5 448 208C448 181.5 469.5 160 496 160C522.5 160 544 181.5 544 208zM417.6 192L80 192C71.2 192 64 199.2 64 208C64 216.8 71.2 224 80 224L417.6 224C425 260.5 457.3 288 496 288C540.2 288 576 252.2 576 208C576 163.8 540.2 128 496 128C457.3 128 425 155.5 417.6 192z"/></svg>