<svg xmlns="http://www.w3.org/2000/svg" viewBox="0 0 640 640"><!--! Font Awesome Pro 7.1.0 by @fontawesome - https://fontawesome.com License - https://fontawesome.com/license (Commercial License) Copyright 2025 Fonticons, Inc. --><path fill="currentColor" d="M454.5 96.3C486.8 99.6 512 126.9 512 160L512 480L511.7 486.5C510.8 495.7 507.9 504.3 503.4 512L528 512C554.5 512 576 490.5 576 464L576 253.2C557.4 246.6 544 228.9 544 208C544 181.5 565.5 160 592 160C618.5 160 640 181.5 640 208C640 228.9 626.6 246.6 608 253.2L608 464C608 508.2 572.2 544 528 544L96 544L89.5 543.7C59.4 540.6 35.4 516.7 32.4 486.6L32 480L32 160C32 126.9 57.2 99.6 89.5 96.3L96 96L448 96L454.5 96.3zM96 128C79.4 128 65.8 140.6 64.2 156.7L64 160L64 480C64 497.7 78.3 512 96 512L448 512C465.7 512 480 497.7 480 480L480 160C480 143.4 467.4 129.8 451.3 128.2L448 128L96 128zM195.7 224.4C199.3 225.3 202.6 227.4 204.8 230.4C207 233.4 208.1 237.2 207.9 240.9L207.2 244.6L159.2 404.6C156.7 413.1 147.8 417.9 139.3 415.3C130.8 412.7 126 403.9 128.6 395.4L170.5 256L144 256C135.2 256 128 248.8 128 240C128 231.2 135.2 224 144 224L192 224L195.7 224.4zM307.7 224.4C311.3 225.3 314.6 227.4 316.8 230.4C319 233.4 320.1 237.2 319.9 240.9L319.2 244.6L271.2 404.6C268.7 413.1 259.8 417.9 251.3 415.3C242.8 412.7 238 403.9 240.6 395.4L282.5 256L256 256C247.2 256 240 248.8 240 240C240 231.2 247.2 224 256 224L304 224L307.7 224.4zM419.7 224.4C423.3 225.3 426.6 227.4 428.8 230.4C431 233.4 432.1 237.2 431.9 240.9L431.2 244.6L383.2 404.6C380.7 413.1 371.8 417.9 363.3 415.3C354.8 412.7 350 403.9 352.6 395.4L394.5 256L368 256C359.2 256 352 248.8 352 240C352 231.2 359.2 224 368 224L416 224L419.7 224.4zM592 192C583.2 192 576 199.2 576 208C576 216.8 583.2 224 592 224C600.8 224 608 216.8 608 208C608 199.2 600.8 192 592 192z"/></svg>