<svg xmlns="http://www.w3.org/2000/svg" viewBox="0 0 640 640"><!--! Font Awesome Pro 7.1.0 by @fontawesome - https://fontawesome.com License - https://fontawesome.com/license (Commercial License) Copyright 2025 Fonticons, Inc. --><path fill="currentColor" d="M560 24C560 15.2 552.8 8 544 8C535.2 8 528 15.2 528 24L528 80L472 80C463.2 80 456 87.2 456 96C456 104.8 463.2 112 472 112L528 112L528 168C528 176.8 535.2 184 544 184C552.8 184 560 176.8 560 168L560 112L616 112C624.8 112 632 104.8 632 96C632 87.2 624.8 80 616 80L560 80L560 24zM240 128C354.9 128 448 221.1 448 336C448 450.9 354.9 544 240 544C125.1 544 32 450.9 32 336C32 221.1 125.1 128 240 128zM240 576C372.5 576 480 468.5 480 336C480 203.5 372.5 96 240 96C107.5 96 0 203.5 0 336C0 468.5 107.5 576 240 576zM142.7 387.1C137 380.4 126.9 379.6 120.1 385.3C113.3 391 112.6 401.1 118.3 407.9C147.6 442.2 191.3 464 240 464C288.7 464 332.4 442.2 361.7 407.9C367.4 401.2 366.7 391.1 359.9 385.3C353.1 379.5 343.1 380.3 337.3 387.1C313.8 414.6 279 432 240 432C201 432 166.2 414.6 142.7 387.1zM184 288C184 274.7 173.3 264 160 264C146.7 264 136 274.7 136 288C136 301.3 146.7 312 160 312C173.3 312 184 301.3 184 288zM320 312C333.3 312 344 301.3 344 288C344 274.7 333.3 264 320 264C306.7 264 296 274.7 296 288C296 301.3 306.7 312 320 312z"/></svg>