<svg xmlns="http://www.w3.org/2000/svg" viewBox="0 0 640 640"><!--! Font Awesome Pro 7.1.0 by @fontawesome - https://fontawesome.com License - https://fontawesome.com/license (Commercial License) Copyright 2025 Fonticons, Inc. --><path fill="currentColor" d="M64 208C64 128.5 128.5 64 208 64C235.2 64 260.6 71.5 282.3 84.6C302.4 71.6 326.3 64 352 64C399.4 64 440.8 89.8 462.9 128L464 128C525.9 128 576 178.1 576 240C576 300.3 528.4 349.4 468.8 351.9C446.2 371.9 416.5 384 384 384C351.5 384 321.9 371.9 299.3 352L208 352C128.5 352 64 287.5 64 208zM208 96C146.1 96 96 146.1 96 208C96 269.9 146.1 320 208 320L305.6 320C309.8 320 313.8 321.6 316.8 324.6C334.1 341.6 357.8 352 384 352C410.2 352 433.9 341.6 451.2 324.6C454.2 321.7 458.2 320 462.4 320L464 320C508.2 320 544 284.2 544 240C544 195.8 508.2 160 464 160C461 160 458.1 160.2 455.2 160.5C448.4 161.2 441.9 157.6 439 151.4C423.7 118.7 390.5 96 352 96C329.5 96 308.9 103.7 292.6 116.6C287 121 279.1 121.2 273.3 117C254.9 103.8 232.4 96 208 96zM544 464C544 472.8 536.8 480 528 480L48 480C39.2 480 32 472.8 32 464C32 455.2 39.2 448 48 448L528 448C536.8 448 544 455.2 544 464zM112 544L208 544C216.8 544 224 551.2 224 560C224 568.8 216.8 576 208 576L112 576C103.2 576 96 568.8 96 560C96 551.2 103.2 544 112 544zM288 544L592 544C600.8 544 608 551.2 608 560C608 568.8 600.8 576 592 576L288 576C279.2 576 272 568.8 272 560C272 551.2 279.2 544 288 544z"/></svg>