<svg xmlns="http://www.w3.org/2000/svg" viewBox="0 0 640 640"><!--! Font Awesome Pro 7.1.0 by @fontawesome - https://fontawesome.com License - https://fontawesome.com/license (Commercial License) Copyright 2025 Fonticons, Inc. --><path fill="currentColor" d="M416 64C424.8 64 432 71.2 432 80L432 107C432 147.3 448 186 476.5 214.5L497.5 235.5C517 255 528 281.4 528 309L528 336C528 344.8 520.8 352 512 352C503.2 352 496 344.8 496 336L496 309C496 289.9 488.4 271.6 474.9 258.1L453.9 237.1C419.4 202.6 400 155.8 400 107L400 80C400 71.2 407.2 64 416 64zM592 352C583.2 352 576 344.8 576 336L576 309C576 268.7 560 230 531.5 201.5L510.5 180.5C491 161 480 134.6 480 107L480 80C480 71.2 487.2 64 496 64C504.8 64 512 71.2 512 80L512 107C512 126.1 519.6 144.4 533.1 157.9L554.1 178.9C588.6 213.4 608 260.2 608 309L608 336C608 344.8 600.8 352 592 352zM96 448C78.3 448 64 462.3 64 480L64 512C64 529.7 78.3 544 96 544L320 544L320 448L96 448zM352 544L512 544L512 448L352 448L352 544zM32 480C32 444.7 60.7 416 96 416L512 416C529.7 416 544 430.3 544 448L544 544C544 561.7 529.7 576 512 576L96 576C60.7 576 32 547.3 32 512L32 480zM608 432L608 560C608 568.8 600.8 576 592 576C583.2 576 576 568.8 576 560L576 432C576 423.2 583.2 416 592 416C600.8 416 608 423.2 608 432z"/></svg>