<svg xmlns="http://www.w3.org/2000/svg" viewBox="0 0 640 640"><!--! Font Awesome Pro 7.1.0 by @fontawesome - https://fontawesome.com License - https://fontawesome.com/license (Commercial License) Copyright 2025 Fonticons, Inc. --><path fill="currentColor" d="M160 96C107 96 64 139 64 192C64 231.2 87.5 264.9 121.2 279.8C120.3 282.5 119.5 285.2 118.7 288C110.1 291.9 101.9 296.6 94.1 301.8C56.9 279.4 32 238.6 32 192.1C32 121.4 89.3 64.1 160 64.1C200.1 64.1 235.9 82.5 259.3 111.4C277.4 101.7 298 96.1 320 96.1C358.5 96.1 393 113.1 416.4 139.9C405.9 144 395.9 149 386.5 154.9C369.2 138.3 345.8 128.1 319.9 128.1C299.1 128.1 279.9 134.7 264.2 145.9C260.6 148.5 256.1 149.4 251.8 148.6C247.5 147.8 243.7 145.1 241.4 141.4C224.5 114 194.3 96 160 96zM480 208C438.7 208 403.4 234.1 389.9 270.8C388.6 274.3 386.2 277.2 383.1 279C376 276.8 368.8 275.1 361.3 274C343.7 253.2 317.4 240 288 240C258.8 240 232.7 253 215.1 273.5C207.5 272.5 199.8 272 192 272C186.9 272 181.8 272.2 176.7 272.7C198.7 234.1 240.3 208 288 208C319.4 208 348.1 219.3 370.3 238C392.7 200.9 433.4 176 480 176C550.7 176 608 233.3 608 304C608 341.3 592 374.9 566.6 398.3C560.5 389.5 553.5 381.4 545.6 374.1C564.3 356.6 576 331.7 576 304C576 251 533 208 480 208zM64 448C64 377.3 121.3 320 192 320C219.9 320 245.7 328.9 266.7 344C285.8 329 309.9 320 336 320C380.9 320 419.6 346.4 437.5 384.6C441 384.2 444.5 384 448 384C501 384 544 427 544 480C544 533 501 576 448 576L192 576C121.3 576 64 518.7 64 448zM192 352C139 352 96 395 96 448C96 501 139 544 192 544L448 544C483.3 544 512 515.3 512 480C512 444.7 483.3 416 448 416C442.3 416 436.8 416.7 431.5 418.1C423.3 420.3 414.8 415.6 412.2 407.5C401.9 375.3 371.6 351.9 336 351.9C313.5 351.9 293.2 361.1 278.7 376.1C272.7 382.3 262.9 382.6 256.5 376.8C239.4 361.3 216.9 351.9 192 351.9z"/></svg>