<svg xmlns="http://www.w3.org/2000/svg" viewBox="0 0 640 640"><!--! Font Awesome Pro 7.1.0 by @fontawesome - https://fontawesome.com License - https://fontawesome.com/license (Commercial License) Copyright 2025 Fonticons, Inc. --><path fill="currentColor" d="M150.7 173.3C455.4 478 340.7 363.3 466.7 489.3C427.4 523.4 376.1 544 320 544C196.3 544 96 443.7 96 320C96 263.9 116.6 212.6 150.7 173.3zM342.6 320L448 320L448 352L374.6 352L342.6 320zM406.6 384L464 384C472.8 384 480 376.8 480 368L480 304C480 295.2 472.8 288 464 288L310.6 288L173.3 150.7C212.6 116.6 263.9 96 320 96C443.7 96 544 196.3 544 320C544 376.1 523.4 427.4 489.3 466.7L406.6 384zM320 576C461.4 576 576 461.4 576 320C576 178.6 461.4 64 320 64C178.6 64 64 178.6 64 320C64 461.4 178.6 576 320 576zM336 160C327.2 160 320 167.2 320 176C320 202.5 341.5 224 368 224L400 224C408.8 224 416 231.2 416 240C416 248.8 423.2 256 432 256C440.8 256 448 248.8 448 240C448 213.5 426.5 192 400 192L368 192C359.2 192 352 184.8 352 176C352 167.2 344.8 160 336 160zM284.1 352L192 352L192 320L252.1 320L220.1 288L176 288C167.2 288 160 295.2 160 304L160 368C160 376.8 167.2 384 176 384L316.1 384L284.1 352z"/></svg>