<svg xmlns="http://www.w3.org/2000/svg" viewBox="0 0 640 640"><!--! Font Awesome Pro 7.1.0 by @fontawesome - https://fontawesome.com License - https://fontawesome.com/license (Commercial License) Copyright 2025 Fonticons, Inc. --><path fill="currentColor" d="M144 464.2C150.2 452.8 148.9 438.8 140.8 428.8C112.6 393.9 96 350.7 96 304C96 191 194.3 96 320 96C445.7 96 544 191 544 304C544 417 445.7 512 320 512C287.7 512 257.2 505.7 229.6 494.4C221.7 491.1 212.7 491.2 204.8 494.6L103.8 537.8L144 464.2zM64 304C64 358.4 83.3 408.6 115.9 448.9L67.1 538.3C65.1 542 64 546.2 64 550.5C64 564.6 75.4 576 89.5 576C93.5 576 97.3 575.4 101 573.9L217.4 524C248.8 536.9 283.5 544 320 544C461.4 544 576 436.5 576 304C576 171.5 461.4 64 320 64C178.6 64 64 171.5 64 304zM202.9 236.8C181 236.8 163.2 254.6 163.2 276.5C163.2 291.5 171.7 305.3 185.2 312L210.2 324.5C212.8 325.8 214.5 328.5 214.5 331.4C214.5 335.7 211 339.1 206.8 339.1L179.3 339.1C170.5 339.1 163.3 346.3 163.3 355.1C163.3 363.9 170.5 371.1 179.3 371.1L206.8 371.1C228.7 371.1 246.5 353.3 246.5 331.4C246.5 316.3 238 302.6 224.5 295.9L199.5 283.4C196.9 282.1 195.2 279.4 195.2 276.5C195.2 272.2 198.7 268.8 202.9 268.8L224 268.8C232.8 268.8 240 261.6 240 252.8C240 244 232.8 236.8 224 236.8L202.9 236.8zM393.6 276.5C393.6 291.5 402.1 305.3 415.6 312L440.6 324.5C443.2 325.8 444.9 328.5 444.9 331.4C444.9 335.7 441.4 339.1 437.2 339.1L409.7 339.1C400.9 339.1 393.7 346.3 393.7 355.1C393.7 363.9 400.9 371.1 409.7 371.1L437.2 371.1C459.1 371.1 476.9 353.3 476.9 331.4C476.9 316.3 468.4 302.6 454.9 295.9L429.9 283.4C427.3 282.1 425.6 279.4 425.6 276.5C425.6 272.2 429.1 268.8 433.3 268.8L454.4 268.8C463.2 268.8 470.4 261.6 470.4 252.8C470.4 244 463.2 236.8 454.4 236.8L433.3 236.8C411.4 236.8 393.6 254.6 393.6 276.5zM295.3 244.5C291.6 238.3 284.2 235.4 277.3 237.3C270.4 239.2 265.6 245.5 265.6 252.7L265.6 355.1C265.6 363.9 272.8 371.1 281.6 371.1C290.4 371.1 297.6 363.9 297.6 355.1L297.6 310.5L306.3 325C309.2 329.8 314.4 332.8 320 332.8C325.6 332.8 330.8 329.8 333.7 325L342.4 310.5L342.4 355.1C342.4 363.9 349.6 371.1 358.4 371.1C367.2 371.1 374.4 363.9 374.4 355.1L374.4 252.7C374.4 245.5 369.6 239.2 362.7 237.3C355.8 235.4 348.4 238.3 344.7 244.5L320 285.6L295.3 244.5z"/></svg>