<svg xmlns="http://www.w3.org/2000/svg" viewBox="0 0 640 640"><!--! Font Awesome Pro 7.1.0 by @fontawesome - https://fontawesome.com License - https://fontawesome.com/license (Commercial License) Copyright 2025 Fonticons, Inc. --><path fill="currentColor" d="M208 512C216.8 512 224 519.2 224 528C224 536.8 216.8 544 208 544L48 544C39.2 544 32 536.8 32 528C32 519.2 39.2 512 48 512L208 512zM226.9 96C243 96 256 109 256 125.1L256 146.8C256 170.2 273.8 189.5 296.6 191.8L301.2 192C311.7 192 321.8 188.3 329.9 181.8L333.2 178.8L370.9 141.1C378.2 133.8 387.7 129.3 397.9 128.3L402.3 128.1C420.2 128.1 436.4 138.9 443.3 155.4L512 320C582.7 320 640 377.3 640 448L640 485.8C640 517.9 613.9 544 581.8 544L451 544L442.4 543.7C422.5 542.4 403.1 536.4 385.8 526.2L114.4 365.8C88.3 350.4 78.7 317.9 91.3 291.1L94.1 285.8L199.5 110.1C204.8 101.3 214.2 96 224.4 96L226.8 96zM121.6 302.2C114.1 314.6 118.2 330.8 130.7 338.2L402.2 498.7C417 507.4 433.9 512 451 512L581.8 512L584.5 511.9C596.8 510.6 606.6 500.8 607.9 488.5L608 485.8L608 462.8L603.1 462.8L465.3 462.8C452.7 462.8 440.3 459.5 429.3 453.1L133.4 282.2L121.5 302.1zM112 416C120.8 416 128 423.2 128 432C128 440.8 120.8 448 112 448L48 448C39.2 448 32 440.8 32 432C32 423.2 39.2 416 48 416L112 416zM149.9 254.9L445.4 425.5C451.5 429 458.4 430.9 465.4 430.9L606.5 430.9C598.4 386 559.2 352 512 352L490.7 352L490.7 352L432.1 352C423.3 352 416.1 344.8 416.1 336C416.1 327.2 423.3 320 432.1 320L477.4 320L457.4 272L400.1 272C391.3 272 384.1 264.8 384.1 256C384.1 247.2 391.3 240 400.1 240L444.1 240L413.9 167.6C412.2 163.6 408.5 160.8 404.3 160.1L402.5 159.9C400 159.9 397.6 160.6 395.6 162L393.7 163.6L356 201.3C343.3 214 326.7 221.8 309 223.5L301.3 223.9C261.3 223.9 228.4 193.5 224.4 154.5L224 146.6L224 131.4L149.9 254.8z"/></svg>