<svg xmlns="http://www.w3.org/2000/svg" viewBox="0 0 640 640"><!--! Font Awesome Pro 7.1.0 by @fontawesome - https://fontawesome.com License - https://fontawesome.com/license (Commercial License) Copyright 2025 Fonticons, Inc. --><path fill="currentColor" d="M411.3 315.3C405.1 321.5 394.9 321.5 388.7 315.3C382.5 309.1 382.5 298.9 388.7 292.7L410.7 270.7L359.5 239.2L315.3 283.4C309.1 289.6 298.9 289.6 292.7 283.4C286.5 277.2 286.5 267 292.7 260.8L331.5 222L232.3 160.9C231.4 160.4 230.5 160.1 229.5 160.1C226.5 160.1 224.1 162.5 224.1 165.5L224.1 210.8C224.1 262.3 182.3 304.1 130.8 304.1C98 304.1 67.7 286.9 50.8 258.8L32 227.5L32 384L605 384C594.8 341 559.7 307 514.5 299.5L442.8 287.6L439.6 287.1L411.3 315.4zM32 416L32 448C32 465.7 46.3 480 64 480L576 480C593.7 480 608 465.7 608 448L608 416L32 416zM0 448L0 222.6C0 205.7 13.7 192 30.6 192C41.4 192 51.3 197.6 56.9 206.9L78.1 242.3C89.2 260.8 109.1 272.1 130.7 272.1C164.6 272.1 192 244.7 192 210.8L192 165.5C192 144.8 208.7 128.1 229.4 128.1C236.3 128.1 243.1 130 249 133.6L448 256L519.7 267.9C589.1 279.5 640 339.6 640 410L640 448C640 483.3 611.3 512 576 512L64 512C28.7 512 0 483.3 0 448z"/></svg>