<svg xmlns="http://www.w3.org/2000/svg" viewBox="0 0 640 640"><!--! Font Awesome Pro 7.1.0 by @fontawesome - https://fontawesome.com License - https://fontawesome.com/license (Commercial License) Copyright 2025 Fonticons, Inc. --><path fill="currentColor" d="M128 160L128 192C92.7 192 64 220.7 64 256L64 385.6C44.2 405.8 32 433.5 32 464C32 525.9 82.1 576 144 576L368 576C429.9 576 480 525.9 480 464C480 440.2 472.6 418.1 459.9 400L544 400L544 496C544 540.2 579.8 576 624 576C632.8 576 640 568.8 640 560C640 551.2 632.8 544 624 544C597.5 544 576 522.5 576 496L576 272C576 245.5 597.5 224 624 224C632.8 224 640 216.8 640 208C640 199.2 632.8 192 624 192C579.8 192 544 227.8 544 272L544 368L448 368L448 303.1C448 293.2 445.7 283.4 441.2 274.5L353.7 99.4C342.8 77.7 320.7 64 296.4 64L192 64C156.7 64 128 92.7 128 128L128 160zM416 362.8C401.5 355.9 385.2 352 368 352L144 352C126.8 352 110.5 355.9 96 362.8L96 256C96 238.3 110.3 224 128 224L138.9 224L246.7 301C249.4 302.9 252.7 304 256 304L416 304L416 362.8zM160 199.8L160 128C160 110.3 174.3 96 192 96L296.4 96C308.5 96 319.6 102.8 325 113.7L404.2 272L261.1 272L160 199.8zM64 464C64 419.8 99.8 384 144 384L368 384C412.2 384 448 419.8 448 464C448 508.2 412.2 544 368 544L144 544C99.8 544 64 508.2 64 464zM168 464C168 450.7 157.3 440 144 440C130.7 440 120 450.7 120 464C120 477.3 130.7 488 144 488C157.3 488 168 477.3 168 464zM368 488C381.3 488 392 477.3 392 464C392 450.7 381.3 440 368 440C354.7 440 344 450.7 344 464C344 477.3 354.7 488 368 488zM280 464C280 450.7 269.3 440 256 440C242.7 440 232 450.7 232 464C232 477.3 242.7 488 256 488C269.3 488 280 477.3 280 464z"/></svg>