<svg xmlns="http://www.w3.org/2000/svg" viewBox="0 0 640 640"><!--! Font Awesome Pro 7.1.0 by @fontawesome - https://fontawesome.com License - https://fontawesome.com/license (Commercial License) Copyright 2025 Fonticons, Inc. --><path fill="currentColor" d="M320 64C253.7 64 200 117.7 200 184C200 220.6 216.4 253.4 242.3 275.4C246.3 278.8 248.3 283.8 247.9 289C247.5 294.2 244.5 298.8 240 301.4C192.2 329.1 160.1 380.8 160.1 439.9C160.1 497.3 190.3 547.6 235.8 575.9L404.5 575.9C450 547.6 480.2 497.3 480.2 439.9C480.2 380.7 448.1 329.1 400.3 301.4C395.8 298.8 392.9 294.2 392.4 289C391.9 283.8 394 278.7 398 275.4C423.9 253.4 440.3 220.6 440.3 184C440.3 117.7 386.6 64 320.3 64zM168 184C168 100.1 236.1 32 320 32C403.9 32 472 100.1 472 184C472 222.8 457.4 258.3 433.5 285.1C457.6 302.8 477.4 325.9 491.1 352.7L536 333.4L536 288C536 279.2 543.2 272 552 272C560.8 272 568 279.2 568 288L568 319.7L601.7 305.3C609.8 301.8 619.2 305.6 622.7 313.7C626.2 321.8 622.4 331.2 614.3 334.7C576.8 350.8 539.8 366.6 503.2 382.3C508.9 400.5 512 419.9 512 440C512 510.7 473.7 572.5 416.9 605.8C414.4 607.2 411.7 608 408.8 608L231.2 608C228.4 608 225.6 607.2 223.1 605.8C166.2 572.5 128 510.7 128 440C128 419.9 131.1 400.5 136.8 382.3C100.2 366.6 63.2 350.7 25.7 334.7C17.6 331.2 13.8 321.8 17.3 313.7C20.8 305.6 30.2 301.8 38.3 305.3L72 319.7L72 288C72 279.2 79.2 272 88 272C96.8 272 104 279.2 104 288L104 333.4L148.9 352.7C162.6 325.9 182.4 302.8 206.5 285.1C182.6 258.2 168 222.8 168 184zM296 480C296 466.7 306.7 456 320 456C333.3 456 344 466.7 344 480C344 493.3 333.3 504 320 504C306.7 504 296 493.3 296 480zM320 360C333.3 360 344 370.7 344 384C344 397.3 333.3 408 320 408C306.7 408 296 397.3 296 384C296 370.7 306.7 360 320 360zM248 160C248 146.7 258.7 136 272 136C285.3 136 296 146.7 296 160C296 173.3 285.3 184 272 184C258.7 184 248 173.3 248 160zM368 136C381.3 136 392 146.7 392 160C392 173.3 381.3 184 368 184C354.7 184 344 173.3 344 160C344 146.7 354.7 136 368 136zM319.6 224C311 224 304 231 304 239.6C304 242.3 304.7 245 306.1 247.3L320 271.8L334 247.3C335.4 244.9 336.1 242.3 336.1 239.6C336.1 231 329.1 224 320.5 224L319.7 224zM272 239.6C272 213.3 293.3 192 319.6 192L320.4 192C346.7 192 368 213.3 368 239.6C368 247.9 365.8 256 361.7 263.2L340.8 299.8C331.6 315.9 308.3 315.9 299.1 299.8L278.2 263.2C274.1 256 271.9 247.9 271.9 239.6z"/></svg>