<svg xmlns="http://www.w3.org/2000/svg" viewBox="0 0 640 640"><!--! Font Awesome Pro 7.1.0 by @fontawesome - https://fontawesome.com License - https://fontawesome.com/license (Commercial License) Copyright 2025 Fonticons, Inc. --><path fill="currentColor" d="M480 48C488.8 48 496 55.2 496 64L496 96L528 96C536.8 96 544 103.2 544 112C544 120.8 536.8 128 528 128L496 128L496 160C496 168.8 488.8 176 480 176C471.2 176 464 168.8 464 160L464 128L432 128C423.2 128 416 120.8 416 112C416 103.2 423.2 96 432 96L464 96L464 64C464 55.2 471.2 48 480 48zM224 128C232.8 128 240 135.2 240 144L240 217.4L260.7 196.7C266.9 190.5 277.1 190.5 283.3 196.7C289.5 202.9 289.5 213.1 283.3 219.3L240 262.6L240 324.3L293.4 293.5L309.3 234.3C311.6 225.8 320.4 220.7 328.9 223C337.4 225.3 342.5 234.1 340.2 242.6L332.6 270.9L396.1 234.2C403.8 229.8 413.5 232.4 418 240.1C422.5 247.8 419.8 257.5 412.1 262L348.6 298.7L376.9 306.3C385.4 308.6 390.5 317.4 388.2 325.9C385.9 334.4 377.1 339.5 368.6 337.2L309.4 321.3L256 352.1L309.4 382.9L368.6 367C377.1 364.7 385.9 369.8 388.2 378.3C390.5 386.8 385.4 395.6 376.9 397.9L348.6 405.5L412.1 442.2C419.8 446.6 422.4 456.4 418 464.1C413.6 471.8 403.8 474.4 396.1 470L332.6 433.3L340.2 461.6C342.5 470.1 337.4 478.9 328.9 481.2C320.4 483.5 311.6 478.4 309.3 469.9L293.4 410.7L240 379.9L240 441.6L283.3 484.9C289.5 491.1 289.5 501.3 283.3 507.5C277.1 513.7 266.9 513.7 260.7 507.5L240 486.6L240 560C240 568.8 232.8 576 224 576C215.2 576 208 568.8 208 560L208 486.6L187.3 507.3C181.1 513.5 170.9 513.5 164.7 507.3C158.5 501.1 158.5 490.9 164.7 484.7L208 441.4L208 379.7L154.6 410.5L138.7 469.7C136.4 478.2 127.6 483.3 119.1 481C110.6 478.7 105.5 469.9 107.8 461.4L115.4 433.1L51.9 469.8C44.2 474.2 34.5 471.6 30 463.9C25.5 456.2 28.2 446.5 35.9 442L99.4 405.3L71.1 397.7C62.6 395.4 57.5 386.6 59.8 378.1C62.1 369.6 70.9 364.7 79.4 367L138.6 382.9L192 352.1L138.6 321.3L79.4 337.2C70.9 339.5 62.1 334.4 59.8 325.9C57.5 317.4 62.6 308.6 71.1 306.3L99.4 298.7L35.9 262C28.2 257.6 25.6 247.8 30 240.1C34.4 232.4 44.2 229.8 51.9 234.2L115.4 270.9L107.8 242.6C105.5 234.1 110.6 225.3 119.1 223C127.6 220.7 136.4 225.8 138.7 234.3L154.6 293.5L208 324.3L208 262.6L164.7 219.3C158.5 213.1 158.5 202.9 164.7 196.7C170.9 190.5 181.1 190.5 187.3 196.7L208 217.4L208 144C208 135.2 215.2 128 224 128zM576 224L576 256L608 256C616.8 256 624 263.2 624 272C624 280.8 616.8 288 608 288L576 288L576 320C576 328.8 568.8 336 560 336C551.2 336 544 328.8 544 320L544 288L512 288C503.2 288 496 280.8 496 272C496 263.2 503.2 256 512 256L544 256L544 224C544 215.2 551.2 208 560 208C568.8 208 576 215.2 576 224z"/></svg>