<svg xmlns="http://www.w3.org/2000/svg" viewBox="0 0 640 640"><!--! Font Awesome Pro 7.1.0 by @fontawesome - https://fontawesome.com License - https://fontawesome.com/license (Commercial License) Copyright 2025 Fonticons, Inc. --><path fill="currentColor" d="M320.1 32C328.9 32 336.1 39.2 336.1 48L336.1 153.4L372.8 116.7C379 110.5 389.2 110.5 395.4 116.7C401.6 122.9 401.6 133.1 395.4 139.3L336.1 198.6L336.1 292.3L417.2 245.5L438.9 164.5C441.2 156 450 150.9 458.5 153.2C467 155.5 472.1 164.3 469.8 172.8L456.4 222.9L547.7 170.2C555.4 165.8 565.1 168.4 569.6 176.1C574.1 183.8 571.4 193.5 563.7 198L472.4 250.7L522.5 264.1C531 266.4 536.1 275.2 533.8 283.7C531.5 292.2 522.7 297.3 514.2 295L433.2 273.3L352.1 320.1L433.2 366.9L514.2 345.2C522.7 342.9 531.5 348 533.8 356.5C536.1 365 531 373.7 522.5 376L472.4 389.4L563.7 442.1C571.4 446.5 574 456.3 569.6 464C565.2 471.7 555.4 474.3 547.7 469.9L456.4 417.2L469.8 467.3C472.1 475.8 467 484.6 458.5 486.9C450 489.2 441.2 484.1 438.9 475.6L417.2 394.6L336.1 347.8L336.1 441.5L395.4 500.8C401.6 507 401.6 517.2 395.4 523.4C389.2 529.6 379 529.6 372.8 523.4L336.1 486.7L336.1 592.1C336.1 600.9 328.9 608.1 320.1 608.1C311.3 608.1 304.1 600.9 304.1 592.1L304.1 486.7L267.4 523.4C261.2 529.6 251 529.6 244.8 523.4C238.6 517.2 238.6 507 244.8 500.8L304.1 441.5L304.1 347.8L223 394.6L201.3 475.6C199 484.1 190.2 489.2 181.7 486.9C173.2 484.6 168.1 475.8 170.4 467.3L183.8 417.2L92.5 469.9C84.8 474.3 75.1 471.7 70.6 464C66.1 456.3 68.8 446.6 76.5 442.1L167.8 389.4L117.7 376C109.1 373.7 104 365 106.3 356.4C108.6 347.8 117.4 342.8 125.9 345.1L206.9 366.8L288 320L206.9 273.2L125.9 294.9C117.4 297.2 108.6 292.1 106.3 283.6C104 275.1 109.1 266.3 117.6 264L167.7 250.6L76.4 197.9C68.9 193.4 66.2 183.7 70.6 176C75 168.3 84.8 165.7 92.5 170.1L183.8 222.8L170.4 172.7C168.1 164.2 173.2 155.4 181.7 153.1C190.2 150.8 199 155.9 201.3 164.4L223 245.4L304.1 292.2L304.1 198.5L244.8 139.2C238.6 133 238.6 122.8 244.8 116.6C251 110.4 261.2 110.4 267.4 116.6L304.1 153.3L304.1 47.9C304.1 39.1 311.3 31.9 320.1 31.9z"/></svg>