<svg xmlns="http://www.w3.org/2000/svg" viewBox="0 0 640 640"><!--! Font Awesome Pro 7.1.0 by @fontawesome - https://fontawesome.com License - https://fontawesome.com/license (Commercial License) Copyright 2025 Fonticons, Inc. --><path fill="currentColor" d="M382.3 136.8C378.3 128.9 368.7 125.7 360.8 129.6C352.9 133.5 349.7 143.2 353.6 151.1L381 205.8L312.5 288L144 288C117.5 288 96 309.5 96 336L96 400C76.6 414.6 64 437.8 64 464C64 508.2 99.8 544 144 544L304 544C348.2 544 384 508.2 384 464C384 446 378 429.4 368 416L422.1 416L470.1 512L432 512C423.2 512 416 519.2 416 528C416 536.8 423.2 544 432 544L536 544C558.1 544 576 526.1 576 504L576 496C576 487.2 568.8 480 560 480C551.2 480 544 487.2 544 496L544 504C544 508.4 540.4 512 536 512L505.9 512L457.9 416L472 416C529.4 416 576 369.4 576 312L576 304C576 298.4 573.1 293.2 568.2 290.3L412.2 196.7L382.3 136.9zM264 384L144 384C138.5 384 133.2 384.6 128 385.6L128 336C128 327.2 135.2 320 144 320L320 320C324.7 320 329.3 317.9 332.3 314.2L403.5 228.7L544 313C543.4 352.3 511.4 383.9 472 383.9L264 383.9zM144 416L304 416C330.5 416 352 437.5 352 464C352 490.5 330.5 512 304 512L144 512C117.5 512 96 490.5 96 464C96 437.5 117.5 416 144 416z"/></svg>