<svg xmlns="http://www.w3.org/2000/svg" viewBox="0 0 640 640"><!--! Font Awesome Pro 7.1.0 by @fontawesome - https://fontawesome.com License - https://fontawesome.com/license (Commercial License) Copyright 2025 Fonticons, Inc. --><path fill="currentColor" d="M224 96L416 96C433.7 96 448 110.3 448 128L448 224L480 224L480 128C480 92.7 451.3 64 416 64L224 64C188.7 64 160 92.7 160 128L160 224L192 224L192 128C192 110.3 206.3 96 224 96zM448 288L448.7 288C478 319.4 496 361.6 496 408C496 460 473.5 506.8 437.5 539C434.5 541.7 429.2 544 421.7 544L218.2 544C210.7 544 205.5 541.8 202.4 539C166.5 506.7 143.9 460 143.9 408C143.9 361.6 161.8 319.4 191.2 288L448 288zM112 256C103.2 256 96 263.2 96 272C96 280.8 103.2 288 112 288L150.1 288C126.1 321.9 112 363.3 112 408C112 469.5 138.7 524.8 181.1 562.8C191.2 571.9 204.7 576 218.2 576L421.7 576C435.3 576 448.7 571.9 458.8 562.8C501.2 524.7 527.9 469.5 527.9 408C527.9 363.3 513.8 321.9 489.8 288L527.9 288C536.7 288 543.9 280.8 543.9 272C543.9 263.2 536.7 256 527.9 256L112 256zM240 392C253.3 392 264 381.3 264 368C264 354.7 253.3 344 240 344C226.7 344 216 354.7 216 368C216 381.3 226.7 392 240 392zM424 368C424 354.7 413.3 344 400 344C386.7 344 376 354.7 376 368C376 381.3 386.7 392 400 392C413.3 392 424 381.3 424 368zM320 384C293.5 384 272 405.5 272 432L272 433C272 439.9 273.4 446.6 276.2 452.9L305.4 518.5C308 524.3 313.7 528 320 528C326.3 528 332.1 524.3 334.6 518.5L363.8 452.9C366.6 446.6 368 439.9 368 433L368 432C368 405.5 346.5 384 320 384zM304 432C304 423.2 311.2 416 320 416C328.8 416 336 423.2 336 432L336 433C336 435.4 335.5 437.7 334.5 439.9L320 472.6L305.5 439.9C304.5 437.7 304 435.4 304 433L304 432z"/></svg>