<svg xmlns="http://www.w3.org/2000/svg" viewBox="0 0 640 640"><!--! Font Awesome Pro 7.1.0 by @fontawesome - https://fontawesome.com License - https://fontawesome.com/license (Commercial License) Copyright 2025 Fonticons, Inc. --><path fill="currentColor" d="M192 144C192 135.2 184.8 128 176 128C167.2 128 160 135.2 160 144L160 185.4L139.3 164.7C133.1 158.5 122.9 158.5 116.7 164.7C110.5 170.9 110.5 181.1 116.7 187.3L160 230.6L160 292.3L106.6 261.5L90.7 202.3C88.4 193.8 79.6 188.7 71.1 191C62.6 193.3 57.6 202 59.8 210.6L67.4 238.9L31.6 218.2C23.9 213.8 14.2 216.4 9.7 224.1C5.2 231.8 7.9 241.5 15.6 246L51.4 266.7L23.1 274.3C14.6 276.6 9.5 285.4 11.8 293.9C14.1 302.4 22.9 307.3 31.4 305L90.6 289.2L144 320L90.6 350.8L31.4 335C22.9 332.7 14.1 337.8 11.8 346.3C9.5 354.8 14.6 363.6 23.1 365.9L51.4 373.5L15.6 394.2C7.9 398.6 5.3 408.3 9.7 416C14.1 423.7 23.9 426.3 31.6 421.9L67.4 401.2L59.8 429.5C57.5 438 62.6 446.8 71.1 449.1C79.6 451.4 88.4 446.3 90.7 437.8L106.6 378.6L160 347.8L160 409.5L116.7 452.8C110.5 459 110.5 469.2 116.7 475.4C122.9 481.6 133.1 481.6 139.3 475.4L160 454.7L160 496.1C160 504.9 167.2 512.1 176 512.1C184.8 512.1 192 504.9 192 496.1L192 454.7L212.7 475.4C218.9 481.6 229.1 481.6 235.3 475.4C241.5 469.2 241.5 459 235.3 452.8L192 409.5L192 347.8L245.4 378.6L261.3 437.8C263.6 446.3 272.4 451.4 280.9 449.1C289.4 446.8 294.5 438 292.2 429.5L284.6 401.2L320.4 421.9C328.1 426.3 337.8 423.7 342.3 416C346.8 408.3 344.1 398.6 336.4 394.1L300.6 373.4L328.9 365.8C337.4 363.5 342.5 354.7 340.2 346.2C337.9 337.7 329.1 332.6 320.6 334.9L261.4 350.8L208 320L261.4 289.2L320.6 305.1C329.1 307.4 337.9 302.3 340.2 293.8C342.5 285.3 337.4 276.5 328.9 274.2L300.6 266.6L336.4 245.9C344.1 241.5 346.7 231.7 342.3 224C337.9 216.3 328.1 213.7 320.4 218.1L284.6 238.8L292.2 210.5C294.5 202 289.4 193.2 280.9 190.9C272.4 188.6 263.6 193.7 261.3 202.2L245.4 261.4L192 292.2L192 230.5L235.3 187.2C241.5 181 241.5 170.8 235.3 164.6C229.1 158.4 218.9 158.4 212.7 164.6L192 185.4L192 144zM480 144C480 152.8 487.2 160 496 160L560 160C586.5 160 608 181.5 608 208C608 234.5 586.5 256 560 256L400 256C391.2 256 384 263.2 384 272C384 280.8 391.2 288 400 288L560 288C604.2 288 640 252.2 640 208C640 163.8 604.2 128 560 128L496 128C487.2 128 480 135.2 480 144zM480 496C480 504.8 487.2 512 496 512L560 512C604.2 512 640 476.2 640 432C640 387.8 604.2 352 560 352L400 352C391.2 352 384 359.2 384 368C384 376.8 391.2 384 400 384L560 384C586.5 384 608 405.5 608 432C608 458.5 586.5 480 560 480L496 480C487.2 480 480 487.2 480 496z"/></svg>