<svg xmlns="http://www.w3.org/2000/svg" viewBox="0 0 640 640"><!--! Font Awesome Pro 7.1.0 by @fontawesome - https://fontawesome.com License - https://fontawesome.com/license (Commercial License) Copyright 2025 Fonticons, Inc. --><path fill="currentColor" d="M320 576C178.6 576 64 461.4 64 320C64 178.6 178.6 64 320 64C461.4 64 576 178.6 576 320C576 461.4 461.4 576 320 576zM279.9 413.6C274.8 413.6 270 416.1 267 420.2L252.9 439.6C250 443.6 249.1 448.8 250.5 453.5L275.7 539.5C290 542.4 304.9 543.9 320.1 543.9C335.3 543.9 350.2 542.4 364.5 539.5L389.7 453.5C391.1 448.7 390.2 443.6 387.3 439.6L373.2 420.2C370.2 416.1 365.4 413.6 360.3 413.6L280 413.6zM147.9 463.3C172.1 492.3 203.4 515 239.2 528.9L222.4 471.7C220.3 464.6 213.6 459.8 206.2 460.2L147.8 463.3zM433.8 460.2C426.4 459.8 419.7 464.6 417.6 471.7L400.9 528.8C436.7 514.9 468 492.2 492.1 463.3L433.8 460.2zM186.3 293.4C181.3 291.8 175.9 292.7 171.7 295.8L98.2 350.9C102.3 380.3 112 407.8 126.3 432.4L214.6 427.8C219.4 427.5 223.9 425.1 226.7 421.2L241.1 401.4C244.1 397.3 244.9 391.9 243.4 387.1L218.6 310.8C217 305.9 213.2 302.1 208.3 300.5L186.4 293.4zM453.7 293.4L431.8 300.5C426.9 302.1 423.1 305.9 421.6 310.8L396.8 387.1C395.2 392 396.1 397.3 399.1 401.4L413.4 421.2C416.2 425.1 420.7 427.5 425.5 427.8L513.8 432.4C528.1 407.8 537.8 380.3 541.9 351L468.4 295.8C464.2 292.7 458.8 291.8 453.8 293.4zM329.4 250.6C323.8 246.5 316.2 246.5 310.6 250.6L256.9 289.6C251.3 293.7 248.9 300.9 251.1 307.5L271.6 370.6C273.7 377.2 279.9 381.7 286.8 381.7L353.2 381.7C360.1 381.7 366.3 377.2 368.4 370.6L388.9 307.5C391 300.9 388.7 293.7 383.1 289.6L329.4 250.6zM488.5 256.2C485.8 262.9 488 270.6 493.8 274.9L543.8 312.4C542.5 271.8 530.4 234 510.3 201.7L488.5 256.1zM129.8 201.8C109.7 234.1 97.6 271.9 96.2 312.5L146.3 275C152.1 270.7 154.3 263 151.6 256.3L129.8 201.8zM226.2 116.6C197.8 129.7 172.7 148.6 152.2 171.7L184.8 253.1C186.6 257.5 190.2 260.9 194.7 262.4L218.2 270C223.1 271.6 228.4 270.8 232.5 267.8L297.4 220.6C301.5 217.6 304 212.8 304 207.6L304 190.6C304 185.9 301.9 181.5 298.4 178.5L226.1 116.5zM341.7 178.6C338.2 181.6 336.1 186.1 336.1 190.8L336.1 207.7C336.1 212.8 338.6 217.6 342.7 220.6L407.6 267.8C411.7 270.8 417.1 271.7 421.9 270.1L445.4 262.5C449.9 261 453.6 257.6 455.3 253.2L487.8 171.8C467.3 148.6 442.2 129.8 413.8 116.6L341.5 178.6zM320 96C299.4 96 279.5 98.8 260.6 104L309.6 146C315.6 151.1 324.5 151.1 330.4 146L379.3 104C360.4 98.8 340.5 96 320 96z"/></svg>