<svg xmlns="http://www.w3.org/2000/svg" viewBox="0 0 640 640"><!--! Font Awesome Pro 7.1.0 by @fontawesome - https://fontawesome.com License - https://fontawesome.com/license (Commercial License) Copyright 2025 Fonticons, Inc. --><path fill="currentColor" d="M188.7 539.1C180.8 542.3 172.2 544 163.5 544L160 544C124.7 544 96 515.3 96 480C96 459.9 105.5 440.9 121.6 428.8L179.2 385.6C207.4 364.4 224 331.3 224 296L224 192L304 192L304 160L224 160L224 112C224 103.2 231.2 96 240 96L305.3 96C307.2 84.5 311.2 73.7 316.8 64L240 64C213.5 64 192 85.5 192 112L192 296C192 321.2 180.1 344.9 160 360L102.4 403.2C78.2 421.3 64 449.8 64 480C64 533 107 576 160 576L163.5 576C178 576 192.2 572.8 205.1 566.9C198.6 558.3 193.1 549.1 188.6 539.2zM400 64C373.5 64 352 85.5 352 112L352 296C352 321.2 340.1 344.9 320 360L262.4 403.2C238.2 421.3 224 449.8 224 480C224 533 267 576 320 576L323.5 576C345.5 576 366.9 568.7 384.3 555.2L500.4 465.5C527.8 444.3 543.9 411.6 543.9 376.9L544 112C544 85.5 522.5 64 496 64L400 64zM384 112C384 103.2 391.2 96 400 96L496 96C504.8 96 512 103.2 512 112L512 160L384 160L384 112zM384 192L512 192L512 376.9C512 401.7 500.5 425.1 480.9 440.2L364.8 529.9C353 539 338.4 544 323.5 544L320 544C284.7 544 256 515.3 256 480C256 459.9 265.5 440.9 281.6 428.8L339.2 385.6C367.4 364.4 384 331.3 384 296L384 192z"/></svg>