<svg xmlns="http://www.w3.org/2000/svg" viewBox="0 0 640 640"><!--! Font Awesome Pro 7.1.0 by @fontawesome - https://fontawesome.com License - https://fontawesome.com/license (Commercial License) Copyright 2025 Fonticons, Inc. --><path fill="currentColor" d="M320 32C314.1 32 308.7 35.2 305.9 40.5C303.1 45.8 303.4 52 306.7 56.9L317.5 73.1C319.1 75.5 320 78.4 320 81.3C320 89.4 313.4 96 305.3 96L244 96C206.4 96 176 126.4 176 164C176 175.5 178.8 186.2 183.8 195.7C151.4 205.9 128 236.2 128 272C128 298.2 140.6 321.4 160 336L160 400C160 426.5 181.5 448 208 448L211.9 448L221.6 564C223.7 588.9 244.5 608 269.4 608L370.5 608C395.5 608 416.3 588.9 418.3 564L428 448L431.9 448C458.4 448 479.9 426.5 479.9 400L479.9 336C499.3 321.4 511.9 298.2 511.9 272C511.9 234.8 486.5 203.5 452.1 194.6C459.6 182.5 463.9 168.3 463.9 153C463.9 86.2 409.7 32 342.9 32L319.9 32zM432 320L208 320C181.5 320 160 298.5 160 272C160 245.5 181.5 224 208 224L240 224C248.8 224 256 216.8 256 208C256 199.2 248.8 192 240 192L221.4 192C213.2 185.4 208 175.3 208 164C208 144.1 224.1 128 244 128L305.3 128C331.1 128 352 107.1 352 81.3C352 75.4 350.9 69.6 348.8 64.2C395.3 67.2 432 105.8 432 153C432 169.2 423.8 183.5 411.2 192L368 192C359.2 192 352 199.2 352 208C352 216.8 359.2 224 368 224L432 224C458.5 224 480 245.5 480 272C480 298.5 458.5 320 432 320zM208 352L448 352L448 400C448 408.8 440.8 416 432 416L413.3 416C405 416 398 422.4 397.4 430.7L386.5 561.3C385.8 569.6 378.9 576 370.6 576L269.5 576C261.2 576 254.2 569.6 253.6 561.3L242.6 430.7C241.9 422.4 235 416 226.7 416L208 416C199.2 416 192 408.8 192 400L192 352L208 352z"/></svg>