<svg xmlns="http://www.w3.org/2000/svg" viewBox="0 0 640 640"><!--! Font Awesome Pro 7.1.0 by @fontawesome - https://fontawesome.com License - https://fontawesome.com/license (Commercial License) Copyright 2025 Fonticons, Inc. --><path fill="currentColor" d="M122.6 153.1L99.7 256L229.3 256L238.9 128L153.8 128C138.8 128 125.8 138.4 122.6 153.1zM92.6 288L72.8 377.1C68.4 397 83.6 416 104 416L217.3 416L226.9 288L92.6 288zM249.4 416L390.9 416L381.3 288L259 288L249.4 416zM423 416L536.3 416C556.8 416 572 397 567.5 377.1L547.7 288L413.4 288L423 416zM540.6 256L517.7 153.1C514.5 138.4 501.5 128 486.5 128L401.4 128L411 256L540.6 256zM369.3 128L271 128L261.4 256L378.9 256L369.3 128zM91.3 146.1C97.8 116.8 123.8 96 153.8 96L486.5 96C516.5 96 542.5 116.8 549 146.1L598.8 370.1C607.7 410.1 577.3 448 536.3 448L336.2 448L336.2 544L432.2 544C441 544 448.2 551.2 448.2 560C448.2 568.8 441 576 432.2 576L208.2 576C199.4 576 192.2 568.8 192.2 560C192.2 551.2 199.4 544 208.2 544L304.2 544L304.2 448L104.1 448C63.1 448 32.7 410.1 41.6 370.1L91.4 146.1z"/></svg>