<svg xmlns="http://www.w3.org/2000/svg" viewBox="0 0 640 640"><!--! Font Awesome Pro 7.1.0 by @fontawesome - https://fontawesome.com License - https://fontawesome.com/license (Commercial License) Copyright 2025 Fonticons, Inc. --><path fill="currentColor" d="M299.3 443.3L203.3 539.3C197.1 545.5 186.9 545.5 180.7 539.3L84.7 443.3C78.5 437.1 78.5 426.9 84.7 420.7C90.9 414.5 101.1 414.5 107.3 420.7L176 489.4L176 112C176 103.2 183.2 96 192 96C200.8 96 208 103.2 208 112L208 489.4L276.7 420.7C282.9 414.5 293.1 414.5 299.3 420.7C305.5 426.9 305.5 437.1 299.3 443.3zM462.3 104.8L526.2 232.5C526.3 232.7 526.4 232.9 526.5 233.1L542.3 264.8C546.3 272.7 543 282.3 535.1 286.3C527.2 290.3 517.6 287 513.6 279.1L502 255.9L393.8 255.9L382.2 279.1C378.2 287 368.6 290.2 360.7 286.3C352.8 282.4 349.6 272.7 353.5 264.8L369.3 233.1C369.4 232.9 369.5 232.7 369.6 232.5L433.7 104.8C436.4 99.4 441.9 96 448 96C454.1 96 459.6 99.4 462.3 104.8zM448 147.8L409.9 224L486.1 224L448 147.8zM376 352L520 352C526.3 352 532 355.7 534.6 361.5C537.2 367.3 536.1 374 531.9 378.7L411.9 512L520 512C528.8 512 536 519.2 536 528C536 536.8 528.8 544 520 544L376 544C369.7 544 364 540.3 361.4 534.5C358.8 528.7 359.9 522 364.1 517.3L484.1 384L376 384C367.2 384 360 376.8 360 368C360 359.2 367.2 352 376 352z"/></svg>