<svg xmlns="http://www.w3.org/2000/svg" viewBox="0 0 640 640"><!--! Font Awesome Pro 7.1.0 by @fontawesome - https://fontawesome.com License - https://fontawesome.com/license (Commercial License) Copyright 2025 Fonticons, Inc. --><path fill="currentColor" d="M203.3 100.7C197.1 94.5 186.9 94.5 180.7 100.7L84.7 196.7C78.5 202.9 78.5 213.1 84.7 219.3C90.9 225.5 101.1 225.5 107.3 219.3L176 150.6L176 528C176 536.8 183.2 544 192 544C200.8 544 208 536.8 208 528L208 150.6L276.7 219.3C282.9 225.5 293.1 225.5 299.3 219.3C305.5 213.1 305.5 202.9 299.3 196.7L203.3 100.7zM384 144C384 135.2 391.2 128 400 128L464 128C472.8 128 480 135.2 480 144L480 208C480 216.8 472.8 224 464 224L400 224C391.2 224 384 216.8 384 208L384 144zM352 144L352 208C352 234.5 373.5 256 400 256L464 256C490.5 256 512 234.5 512 208L512 144C512 117.5 490.5 96 464 96L400 96C373.5 96 352 117.5 352 144zM384 368C384 359.2 391.2 352 400 352L528 352C536.8 352 544 359.2 544 368L544 496C544 504.8 536.8 512 528 512L400 512C391.2 512 384 504.8 384 496L384 368zM352 368L352 496C352 522.5 373.5 544 400 544L528 544C554.5 544 576 522.5 576 496L576 368C576 341.5 554.5 320 528 320L400 320C373.5 320 352 341.5 352 368z"/></svg>