<svg xmlns="http://www.w3.org/2000/svg" viewBox="0 0 640 640"><!--! Font Awesome Pro 7.1.0 by @fontawesome - https://fontawesome.com License - https://fontawesome.com/license (Commercial License) Copyright 2025 Fonticons, Inc. --><path fill="currentColor" d="M544 320C544 196.3 443.7 96 320 96C196.3 96 96 196.3 96 320C96 443.7 196.3 544 320 544C443.7 544 544 443.7 544 320zM64 320C64 178.6 178.6 64 320 64C461.4 64 576 178.6 576 320C576 461.4 461.4 576 320 576C178.6 576 64 461.4 64 320zM320 195.3L259.3 256L380.7 256L320 195.3zM303 167C312.4 157.6 327.6 157.6 336.9 167L416.9 247C423.8 253.9 425.8 264.2 422.1 273.2C418.4 282.2 409.7 288 400 288L240 288C230.3 288 221.5 282.2 217.8 273.2C214.1 264.2 216.1 253.9 223 247L303 167zM259.3 384L320 444.7L380.7 384L259.3 384zM337 473C327.6 482.4 312.4 482.4 303.1 473L223.1 393C216.2 386.1 214.2 375.8 217.9 366.8C221.6 357.8 230.3 352 240 352L400 352C409.7 352 418.5 357.8 422.2 366.8C425.9 375.8 423.9 386.1 417 393L337 473z"/></svg>