<svg xmlns="http://www.w3.org/2000/svg" viewBox="0 0 640 640"><!--! Font Awesome Pro 7.1.0 by @fontawesome - https://fontawesome.com License - https://fontawesome.com/license (Commercial License) Copyright 2025 Fonticons, Inc. --><path fill="currentColor" d="M544 320C544 196.3 443.7 96 320 96C196.3 96 96 196.3 96 320C96 443.7 196.3 544 320 544C443.7 544 544 443.7 544 320zM64 320C64 178.6 178.6 64 320 64C461.4 64 576 178.6 576 320C576 461.4 461.4 576 320 576C178.6 576 64 461.4 64 320zM417 370.3C423.2 376.5 423.2 386.7 417 392.9L337 472.9C327.6 482.3 312.4 482.3 303.1 472.9L223.1 392.9C216.9 386.7 216.9 376.5 223.1 370.3C229.3 364.1 239.5 364.1 245.7 370.3L320 444.6L394.3 370.3C400.5 364.1 410.7 364.1 416.9 370.3zM259.3 256L380.7 256L320 195.3L259.3 256zM337 167L417 247C423.9 253.9 425.9 264.2 422.2 273.2C418.5 282.2 409.7 288 400 288L240 288C230.3 288 221.5 282.2 217.8 273.2C214.1 264.2 216.1 253.9 223 247L303 167C312.4 157.6 327.6 157.6 336.9 167z"/></svg>