<svg xmlns="http://www.w3.org/2000/svg" viewBox="0 0 640 640"><!--! Font Awesome Pro 7.1.0 by @fontawesome - https://fontawesome.com License - https://fontawesome.com/license (Commercial License) Copyright 2025 Fonticons, Inc. --><path fill="currentColor" d="M299.3 443.3L203.3 539.3C197.1 545.5 186.9 545.5 180.7 539.3L84.7 443.3C78.5 437.1 78.5 426.9 84.7 420.7C90.9 414.5 101.1 414.5 107.3 420.7L176 489.4L176 112C176 103.2 183.2 96 192 96C200.8 96 208 103.2 208 112L208 489.4L276.7 420.7C282.9 414.5 293.1 414.5 299.3 420.7C305.5 426.9 305.5 437.1 299.3 443.3zM384 496C384 504.8 391.2 512 400 512L496 512C504.8 512 512 504.8 512 496L512 400C512 391.2 504.8 384 496 384L400 384C391.2 384 384 391.2 384 400L384 496zM448 131.5L373.3 256L522.7 256L448 131.5zM339.6 250L423.8 109.7C428.9 101.2 438.1 96 448 96C457.9 96 467.1 101.2 472.2 109.7L556.4 250C558.7 253.9 560 258.4 560 262.9C560 276.7 548.8 288 534.9 288L361 288C347.2 288 335.9 276.8 335.9 262.9C335.9 258.4 337.1 253.9 339.5 250zM352 496L352 400C352 373.5 373.5 352 400 352L496 352C522.5 352 544 373.5 544 400L544 496C544 522.5 522.5 544 496 544L400 544C373.5 544 352 522.5 352 496z"/></svg>