<svg xmlns="http://www.w3.org/2000/svg" viewBox="0 0 640 640"><!--! Font Awesome Pro 7.1.0 by @fontawesome - https://fontawesome.com License - https://fontawesome.com/license (Commercial License) Copyright 2025 Fonticons, Inc. --><path fill="currentColor" d="M299.3 443.3L203.3 539.3C197.1 545.5 186.9 545.5 180.7 539.3L84.7 443.3C78.5 437.1 78.5 426.9 84.7 420.7C90.9 414.5 101.1 414.5 107.3 420.7L176 489.4L176 112C176 103.2 183.2 96 192 96C200.8 96 208 103.2 208 112L208 489.4L276.7 420.7C282.9 414.5 293.1 414.5 299.3 420.7C305.5 426.9 305.5 437.1 299.3 443.3zM473.6 99.2C477.6 102.2 480 107 480 112L480 256L520 256C528.8 256 536 263.2 536 272C536 280.8 528.8 288 520 288L408 288C399.2 288 392 280.8 392 272C392 263.2 399.2 256 408 256L448 256L448 133.2L412.4 143.4C403.9 145.8 395 140.9 392.6 132.4C390.2 123.9 395.1 115 403.6 112.6L459.6 96.6C464.4 95.2 469.6 96.2 473.6 99.2zM512 400C512 373.5 490.5 352 464 352C437.5 352 416 373.5 416 400C416 426.5 437.5 448 464 448C490.5 448 512 426.5 512 400zM469.9 479.8C467.9 479.9 466 480 464 480C419.8 480 384 444.2 384 400C384 355.8 419.8 320 464 320C508.2 320 544 355.8 544 400C544 418.9 538.2 437.3 527.5 452.8L469.2 537.1C464.2 544.4 454.2 546.2 446.9 541.1C439.6 536 437.8 526.1 442.9 518.8L470 479.7z"/></svg>