<svg xmlns="http://www.w3.org/2000/svg" viewBox="0 0 640 640"><!--! Font Awesome Pro 7.1.0 by @fontawesome - https://fontawesome.com License - https://fontawesome.com/license (Commercial License) Copyright 2025 Fonticons, Inc. --><path fill="currentColor" d="M160 256L480 256L320 96L160 256zM160 288C147.1 288 135.4 280.2 130.4 268.2C125.4 256.2 128.2 242.5 137.4 233.4L297.4 73.4C309.9 60.9 330.2 60.9 342.7 73.4L502.7 233.4C511.9 242.6 514.6 256.3 509.6 268.3C504.6 280.3 492.9 288 480 288L160 288zM160 384L320 544L480 384L160 384zM160 352L480 352C492.9 352 504.6 359.8 509.6 371.8C514.6 383.8 511.8 397.5 502.7 406.7L342.7 566.7C330.2 579.2 309.9 579.2 297.4 566.7L137.4 406.7C128.2 397.5 125.5 383.8 130.5 371.8C135.5 359.8 147.1 352 160 352z"/></svg>