<svg xmlns="http://www.w3.org/2000/svg" viewBox="0 0 640 640"><!--! Font Awesome Pro 7.1.0 by @fontawesome - https://fontawesome.com License - https://fontawesome.com/license (Commercial License) Copyright 2025 Fonticons, Inc. --><path fill="currentColor" d="M203.3 100.7C197.1 94.5 186.9 94.5 180.7 100.7L68.7 212.7C62.5 218.9 62.5 229.1 68.7 235.3C74.9 241.5 85.1 241.5 91.3 235.3L176 150.6L176 528C176 536.8 183.2 544 192 544C200.8 544 208 536.8 208 528L208 150.6L292.7 235.3C298.9 241.5 309.1 241.5 315.3 235.3C321.5 229.1 321.5 218.9 315.3 212.7L203.3 100.7zM416 176C416 149.5 437.5 128 464 128C490.5 128 512 149.5 512 176C512 202.5 490.5 224 464 224C437.5 224 416 202.5 416 176zM469.9 255.8L442.8 294.9C437.8 302.2 439.6 312.1 446.8 317.2C454 322.3 464 320.4 469.1 313.2L527.4 228.9C538.1 213.4 543.9 194.9 543.9 176.1C543.9 131.9 508.1 96.1 463.9 96.1C419.7 96.1 383.9 131.9 383.9 176.1C383.9 220.3 419.7 256.1 463.9 256.1C465.9 256.1 467.9 256 469.8 255.9zM473.6 355.2C469.6 352.2 464.4 351.2 459.6 352.6L403.6 368.6C395.1 371 390.2 379.9 392.6 388.4C395 396.9 403.9 401.8 412.4 399.4L448 389.2L448 512L408 512C399.2 512 392 519.2 392 528C392 536.8 399.2 544 408 544L520 544C528.8 544 536 536.8 536 528C536 519.2 528.8 512 520 512L480 512L480 368C480 363 477.6 358.2 473.6 355.2z"/></svg>