<svg xmlns="http://www.w3.org/2000/svg" viewBox="0 0 640 640"><!--! Font Awesome Pro 7.1.0 by @fontawesome - https://fontawesome.com License - https://fontawesome.com/license (Commercial License) Copyright 2025 Fonticons, Inc. --><path fill="currentColor" d="M473.6 99.2C469.6 96.2 464.4 95.2 459.6 96.6L403.6 112.6C395.1 115 390.2 123.9 392.6 132.4C395 140.9 403.9 145.8 412.4 143.4L448 133.2L448 256L408 256C399.2 256 392 263.2 392 272C392 280.8 399.2 288 408 288L520 288C528.8 288 536 280.8 536 272C536 263.2 528.8 256 520 256L480 256L480 112C480 107 477.6 102.2 473.6 99.2zM416 400C416 373.5 437.5 352 464 352C490.5 352 512 373.5 512 400C512 426.5 490.5 448 464 448C437.5 448 416 426.5 416 400zM469.9 479.8L442.8 518.9C437.8 526.2 439.6 536.1 446.8 541.2C454 546.3 464 544.4 469.1 537.2L527.4 452.9C538.1 437.4 543.9 418.9 543.9 400.1C543.9 355.9 508.1 320.1 463.9 320.1C419.7 320.1 383.9 355.9 383.9 400.1C383.9 444.3 419.7 480.1 463.9 480.1C465.9 480.1 467.9 480 469.8 479.9zM203.3 100.7C197.1 94.5 186.9 94.5 180.7 100.7L68.7 212.7C62.5 218.9 62.5 229.1 68.7 235.3C74.9 241.5 85.1 241.5 91.3 235.3L176 150.6L176 528C176 536.8 183.2 544 192 544C200.8 544 208 536.8 208 528L208 150.6L292.7 235.3C298.9 241.5 309.1 241.5 315.3 235.3C321.5 229.1 321.5 218.9 315.3 212.7L203.3 100.7z"/></svg>