<svg xmlns="http://www.w3.org/2000/svg" viewBox="0 0 640 640"><!--! Font Awesome Pro 7.1.0 by @fontawesome - https://fontawesome.com License - https://fontawesome.com/license (Commercial License) Copyright 2025 Fonticons, Inc. --><path fill="currentColor" d="M203.3 100.7C197.1 94.5 186.9 94.5 180.7 100.7L84.7 196.7C78.5 202.9 78.5 213.1 84.7 219.3C90.9 225.5 101.1 225.5 107.3 219.3L176 150.6L176 528C176 536.8 183.2 544 192 544C200.8 544 208 536.8 208 528L208 150.6L276.7 219.3C282.9 225.5 293.1 225.5 299.3 219.3C305.5 213.1 305.5 202.9 299.3 196.7L203.3 100.7zM384 496L384 400C384 391.2 391.2 384 400 384L496 384C504.8 384 512 391.2 512 400L512 496C512 504.8 504.8 512 496 512L400 512C391.2 512 384 504.8 384 496zM448 131.5L522.7 256L373.3 256L448 131.5zM339.6 250C337.3 253.9 336 258.4 336 262.9C336 276.7 347.2 288 361.1 288L535 288C548.8 288 560.1 276.8 560.1 262.9C560.1 258.4 558.9 253.9 556.5 250L472.2 109.7C467.1 101.2 457.9 96 448 96C438.1 96 428.9 101.2 423.8 109.7L339.6 250zM352 496C352 522.5 373.5 544 400 544L496 544C522.5 544 544 522.5 544 496L544 400C544 373.5 522.5 352 496 352L400 352C373.5 352 352 373.5 352 400L352 496z"/></svg>