<svg xmlns="http://www.w3.org/2000/svg" viewBox="0 0 640 640"><!--! Font Awesome Pro 7.1.0 by @fontawesome - https://fontawesome.com License - https://fontawesome.com/license (Commercial License) Copyright 2025 Fonticons, Inc. --><path fill="currentColor" d="M299.3 443.3L203.3 539.3C197.1 545.5 186.9 545.5 180.7 539.3L84.7 443.3C78.5 437.1 78.5 426.9 84.7 420.7C90.9 414.5 101.1 414.5 107.3 420.7L176 489.4L176 112C176 103.2 183.2 96 192 96C200.8 96 208 103.2 208 112L208 489.4L276.7 420.7C282.9 414.5 293.1 414.5 299.3 420.7C305.5 426.9 305.5 437.1 299.3 443.3zM384 144L384 208C384 216.8 391.2 224 400 224L464 224C472.8 224 480 216.8 480 208L480 144C480 135.2 472.8 128 464 128L400 128C391.2 128 384 135.2 384 144zM352 144C352 117.5 373.5 96 400 96L464 96C490.5 96 512 117.5 512 144L512 208C512 234.5 490.5 256 464 256L400 256C373.5 256 352 234.5 352 208L352 144zM384 368L384 496C384 504.8 391.2 512 400 512L528 512C536.8 512 544 504.8 544 496L544 368C544 359.2 536.8 352 528 352L400 352C391.2 352 384 359.2 384 368zM352 368C352 341.5 373.5 320 400 320L528 320C554.5 320 576 341.5 576 368L576 496C576 522.5 554.5 544 528 544L400 544C373.5 544 352 522.5 352 496L352 368z"/></svg>