<svg xmlns="http://www.w3.org/2000/svg" viewBox="0 0 640 640"><!--! Font Awesome Pro 7.1.0 by @fontawesome - https://fontawesome.com License - https://fontawesome.com/license (Commercial License) Copyright 2025 Fonticons, Inc. --><path fill="currentColor" d="M208.1 48C216.9 48 224.1 55.2 224.1 64L224.1 80C224.1 100.1 233.6 119.1 249.7 131.2C273.9 149.3 288.1 177.8 288.1 208L288.1 224C288.1 232.8 280.9 240 272.1 240C263.3 240 256.1 232.8 256.1 224L256.1 208C256.1 187.9 246.6 168.9 230.5 156.8C206.3 138.7 192.1 110.2 192.1 80L192.1 64C192.1 55.2 199.3 48 208.1 48zM208.9 509.5C216.6 513.2 222.6 519.8 225.4 527.9C228.7 537.3 237.6 544 248.1 544L392.1 544C402.5 544 411.5 537.3 414.8 527.9C417.6 519.8 423.5 513.2 431.3 509.5C492.7 480.3 536.3 419.4 540.6 347.3L541.2 337C541.7 327.8 534.4 320.1 525.2 320.1L115 320C105.8 320 98.5 327.8 99 336.9L99.6 347.2C103.8 419.3 147.4 480.2 208.9 509.4zM67.1 338.8C65.5 311.2 87.4 288 115 288L525.2 288C552.8 288 574.7 311.2 573.1 338.8L572.5 349.1C567.6 433.2 516.6 504.2 445 538.3C437.4 560.2 416.6 575.9 392.1 575.9L248.1 575.9C223.6 575.9 202.8 560.2 195.2 538.3C123.6 504.2 72.7 433.2 67.7 349.1L67.1 338.8zM352.1 64L352.1 80C352.1 100.1 361.6 119.1 377.7 131.2C401.9 149.3 416.1 177.8 416.1 208L416.1 224C416.1 232.8 408.9 240 400.1 240C391.3 240 384.1 232.8 384.1 224L384.1 208C384.1 187.9 374.6 168.9 358.5 156.8C334.3 138.7 320.1 110.2 320.1 80L320.1 64C320.1 55.2 327.3 48 336.1 48C344.9 48 352.1 55.2 352.1 64z"/></svg>