<svg xmlns="http://www.w3.org/2000/svg" viewBox="0 0 640 640"><!--! Font Awesome Pro 7.1.0 by @fontawesome - https://fontawesome.com License - https://fontawesome.com/license (Commercial License) Copyright 2025 Fonticons, Inc. --><path fill="currentColor" d="M426.6 249.8C398.5 166.2 350.6 116.7 334 101.3C330.2 97.8 325.2 96.1 320.1 96.1C315 96.1 310 97.8 306.2 101.3C289.5 116.7 241.7 166.2 213.6 249.8C223.2 255.2 232.6 261 241.6 267.2C263.6 197.1 300.9 152.1 320.2 132.3C339.5 152.1 376.8 197.1 398.8 267.2C407.8 260.9 417.2 255.1 426.8 249.8zM224 533.1C248.1 540.2 273.5 544 299.9 544L340.1 544C366.5 544 391.9 540.2 416 533.1C527 500.4 608 397.7 608 276.1C608 265 598.9 256 587.8 256C523.3 256 463.7 277.6 416 313.9C372.4 347.1 338.6 392.6 320 445.1C301.4 392.5 267.6 347 224 313.9C176.2 277.6 116.6 256 52.2 256C41.1 256 32 265 32 276.1C32 397.7 113 500.4 224 533.1zM224 498.7C135.7 467.8 69.3 386.6 64.3 288.3C125.8 291.2 181.7 316.3 224 355.7C267 395.8 296 450.6 302.6 512C275.3 512 248.8 507.3 224 498.7zM416 498.7C391.2 507.3 364.8 512 337.4 512C344 450.6 373 395.7 416 355.7C458.3 316.3 514.2 291.3 575.7 288.3C570.7 386.6 504.3 467.8 416 498.7z"/></svg>