<svg xmlns="http://www.w3.org/2000/svg" viewBox="0 0 640 640"><!--! Font Awesome Pro 7.1.0 by @fontawesome - https://fontawesome.com License - https://fontawesome.com/license (Commercial License) Copyright 2025 Fonticons, Inc. --><path fill="currentColor" d="M245.2 512.1L405.3 416L432 416C496.7 416 555.5 388.6 596.8 339.7C606.4 328.3 606.4 311.7 596.8 300.3C555.5 251.4 496.7 224 432 224L405.3 224L245.2 127.9C210.4 107 170.6 96 130 96L80 96C53.5 96 32 117.5 32 144L32 496C32 522.5 53.5 544 80 544L130 544C170.6 544 210.4 533 245.2 512.1zM64 304L64 224L144 224C159.3 224 172.9 231.1 181.7 242.3C187.5 249.6 196.9 256 208.7 256L432 256C486.9 256 536.4 278.9 571.5 320C536.4 361.1 486.9 384 432 384L208.7 384C196.9 384 187.5 390.4 181.7 397.7C172.9 408.9 159.3 416 144 416L64 416L64 336L176 336C184.8 336 192 328.8 192 320C192 311.2 184.8 304 176 304L64 304zM206.8 417.5C207.4 416.8 208 416.3 208.4 416.1C208.6 416 208.7 416 208.7 416L343.1 416L228.7 484.6C207.5 497.3 184.2 505.8 160 509.6L160 446.4C178.9 442.6 195.3 432.1 206.8 417.5zM64 448L128 448L128 512L80 512C71.2 512 64 504.8 64 496L64 448zM206.8 222.5C195.3 208 178.9 197.5 160 193.6L160 130.4C184.2 134.2 207.6 142.7 228.7 155.4L343.1 224L208.7 224C208.7 224 208.5 224 208.4 223.9C208 223.7 207.4 223.2 206.8 222.5zM128 192L64 192L64 144C64 135.2 71.2 128 80 128L128 128L128 192zM464 288C455.2 288 448 295.2 448 304L448 336C448 344.8 455.2 352 464 352C472.8 352 480 344.8 480 336L480 304C480 295.2 472.8 288 464 288z"/></svg>