<svg xmlns="http://www.w3.org/2000/svg" viewBox="0 0 640 640"><!--! Font Awesome Pro 7.1.0 by @fontawesome - https://fontawesome.com License - https://fontawesome.com/license (Commercial License) Copyright 2025 Fonticons, Inc. --><path fill="currentColor" d="M96 320C96 196.3 196.3 96 320 96C381 96 436.3 120.4 476.7 160L432 160C423.2 160 416 167.2 416 176C416 184.8 423.2 192 432 192L512 192C518.1 192 523.6 188.6 526.3 183.1C529 177.6 528.4 171.2 524.8 166.3C478.1 104.2 403.8 64 320 64C178.6 64 64 178.6 64 320C64 461.4 178.6 576 320 576C411.2 576 491.3 528.3 536.6 456.5C539.7 451.6 539.9 445.3 537.1 440.2C534.3 435.1 528.9 431.9 523.1 431.9L480 432C471.2 432 464 439.2 464 448C464 456.8 471.2 464 480 464L491.6 464C450.5 512.9 388.9 544 320 544C224.9 544 143.7 484.8 111.2 401.2C150.4 414.8 215.2 433.5 320 433.5C439.5 433.5 507 409.2 543.8 395.9C548.8 394.1 553.2 392.5 557.1 391.2C558.8 390.6 560.3 389.8 561.7 388.8L563.4 387.5C566.4 385.2 568.5 382 569.3 378.4C573.7 359.7 576 340.1 576 320.1C576 314.4 575.8 308.7 575.4 303C574.8 294.6 567.9 288.1 559.4 288.1L496 288C487.2 288 480 295.2 480 304C480 312.8 487.2 320 496 320L544 320C544 334.8 542.6 349.3 539.8 363.3C537.7 364 535.6 364.8 533.3 365.6C497 378.7 433.8 401.4 320 401.4C206.2 401.4 143 378.7 106.7 365.6C104.4 364.8 102.3 364 100.2 363.3C97.5 349.3 96 334.8 96 320zM200 224C200 193.1 225.1 168 256 168C286.9 168 312 193.1 312 224C312 254.9 286.9 280 256 280C225.1 280 200 254.9 200 224zM344 224C344 175.4 304.6 136 256 136C207.4 136 168 175.4 168 224C168 272.6 207.4 312 256 312C304.6 312 344 272.6 344 224zM280 224C280 210.7 269.3 200 256 200C242.7 200 232 210.7 232 224C232 237.3 242.7 248 256 248C269.3 248 280 237.3 280 224zM432 224C423.2 224 416 231.2 416 240C416 248.8 423.2 256 432 256L512 256C520.8 256 528 248.8 528 240C528 231.2 520.8 224 512 224L432 224z"/></svg>