<svg xmlns="http://www.w3.org/2000/svg" viewBox="0 0 640 640"><!--! Font Awesome Pro 7.1.0 by @fontawesome - https://fontawesome.com License - https://fontawesome.com/license (Commercial License) Copyright 2025 Fonticons, Inc. --><path fill="currentColor" d="M96 320C96 196.3 196.3 96 320 96C443.7 96 544 196.3 544 320C544 334.8 542.6 349.3 539.8 363.3C537.7 364 535.6 364.8 533.3 365.6C497 378.7 433.8 401.4 320 401.4C206.2 401.4 143 378.7 106.7 365.6L106.7 365.6C104.4 364.8 102.3 364 100.2 363.3C97.5 349.3 96 334.8 96 320zM320 433.4C424.8 433.4 489.6 414.7 528.8 401.1C496.3 484.7 415 543.9 320 543.9C225 543.9 143.7 484.8 111.2 401.2C150.4 414.8 215.2 433.5 320 433.5zM320 64C178.6 64 64 178.6 64 320C64 461.4 178.6 576 320 576C461.4 576 576 461.4 576 320C576 178.6 461.4 64 320 64zM200 224C200 193.1 225.1 168 256 168C286.9 168 312 193.1 312 224C312 254.9 286.9 280 256 280C225.1 280 200 254.9 200 224zM344 224C344 175.4 304.6 136 256 136C207.4 136 168 175.4 168 224C168 272.6 207.4 312 256 312C304.6 312 344 272.6 344 224zM256 248C269.3 248 280 237.3 280 224C280 210.7 269.3 200 256 200C242.7 200 232 210.7 232 224C232 237.3 242.7 248 256 248z"/></svg>