<svg xmlns="http://www.w3.org/2000/svg" viewBox="0 0 640 640"><!--! Font Awesome Pro 7.1.0 by @fontawesome - https://fontawesome.com License - https://fontawesome.com/license (Commercial License) Copyright 2025 Fonticons, Inc. --><path fill="currentColor" d="M307.2 101.5C310.7 98 315.5 96 320.5 96C325.5 96 330.2 98 333.8 101.5L516.4 284.1C553.9 321.6 553.9 382.4 516.4 419.9C478.9 457.4 418.1 457.4 380.6 419.9L331.8 371.1C325.6 364.9 315.4 364.9 309.2 371.1L260.4 419.9C222.9 457.4 162.1 457.4 124.6 419.9C87.1 382.4 87.1 321.6 124.6 284.1L307.2 101.5zM320.5 64C307 64 294.1 69.3 284.6 78.9L102 261.5C52 311.5 52 392.5 102 442.5C152 492.5 233 492.5 283 442.5L304.5 421L304.5 544L240.5 544C231.7 544 224.5 551.2 224.5 560C224.5 568.8 231.7 576 240.5 576L400.5 576C409.3 576 416.5 568.8 416.5 560C416.5 551.2 409.3 544 400.5 544L336.5 544L336.5 421L358 442.5C408 492.5 489 492.5 539 442.5C589 392.5 589 311.5 539 261.5L356.4 78.9L356.4 78.9C346.9 69.3 334 64 320.5 64z"/></svg>