<svg xmlns="http://www.w3.org/2000/svg" viewBox="0 0 640 640"><!--! Font Awesome Pro 7.1.0 by @fontawesome - https://fontawesome.com License - https://fontawesome.com/license (Commercial License) Copyright 2025 Fonticons, Inc. --><path fill="currentColor" d="M192 96C209.7 96 224 110.3 224 128C224 145.7 209.7 160 192 160C174.3 160 160 145.7 160 128C160 110.3 174.3 96 192 96zM234 176.3C247.5 164.6 256 147.3 256 128C256 92.7 227.3 64 192 64C156.7 64 128 92.7 128 128C128 163.3 156.7 192 192 192C196.6 192 201.1 191.5 205.4 190.6L219 217.7C194.1 232.2 175.2 251.2 159.8 269.8C152.2 278.9 145.4 288 139.2 296.2L138.7 296.9C132.3 305.4 126.7 312.8 121.3 319.1C110 332.1 102.6 336.1 96.1 336.1C91.1 336.1 87.4 334.3 83.4 330.6C78.9 326.2 74.9 320.1 69.6 311.7L69.1 311C64.4 303.5 58.5 294.1 50.8 286.7C42.2 278.5 30.9 272.2 16 272.2C7.2 272.2 0 279.4 0 288.2C0 297 7.2 304.2 16 304.2C21 304.2 24.7 306 28.7 309.7C33.2 314.1 37.2 320.2 42.5 328.6L43 329.3C47.7 336.8 53.6 346.2 61.3 353.6C69.9 361.8 81.2 368.1 96.1 368.1C115.5 368.1 130.2 356.7 141.8 344.2L142.8 345.7C147.2 352.2 153 360 160 368.3C157 376.8 154.4 385.3 152 393.2L152 393.2L150.7 397.5C147.3 408.7 144.2 418.3 140.5 426.3C136.8 434.3 133 439.6 128.8 443C125 446 120 448.2 112.1 448.2C101.1 448.2 91.1 442.9 75.3 434.4L74.7 434.1C59.7 426.1 40.5 416.2 16.2 416.2C7.4 416.2 .2 423.4 .2 432.2C.2 441 7.4 448.2 16.2 448.2C31.8 448.2 44.7 454.3 59.7 462.3L62.8 464C76.1 471.2 92.9 480.2 112.2 480.2C126.8 480.2 139 476 148.9 468C158.5 460.4 164.9 450.1 169.7 439.8C174.5 429.5 178.1 417.9 181.5 406.9L182.8 402.5C183.7 399.7 184.5 396.9 185.4 394.1C204.7 411.1 229.5 427.5 260 437.3L259 440.7C253.6 459.1 246 484.5 234.7 506.3C221.7 531.3 207.5 544.2 192.3 544.2C183.5 544.2 176.3 551.4 176.3 560.2C176.3 569 183.5 576.2 192.3 576.2C227.4 576.2 249.6 547.1 263.1 521.1C275.9 496.4 284.3 468 289.7 449.9C290.2 448.1 290.7 446.4 291.2 444.8L291.3 444.5C300.5 445.9 310.2 446.6 320.3 446.6C330.4 446.6 340 445.9 349.3 444.5L349.4 444.8C349.9 446.4 350.4 448.1 350.9 449.9L350.9 449.9C356.2 468 364.7 496.4 377.5 521.1C391 547.1 413.3 576.2 448.3 576.2C457.1 576.2 464.3 569 464.3 560.2C464.3 551.4 457.1 544.2 448.3 544.2C433.1 544.2 418.9 531.3 405.9 506.3C394.6 484.5 387 459.1 381.6 440.7L380.6 437.3C411.1 427.5 435.9 411.1 455.2 394.1C456.1 396.9 456.9 399.7 457.8 402.5L459.1 406.9C462.5 417.9 466.1 429.5 470.9 439.8C475.7 450.1 482.1 460.4 491.7 468C501.6 475.9 513.8 480.2 528.4 480.2C547.7 480.2 564.5 471.2 577.8 464L580.9 462.3C595.9 454.3 608.7 448.2 624.4 448.2C633.2 448.2 640.4 441 640.4 432.2C640.4 423.4 633.2 416.2 624.4 416.2C600 416.2 580.9 426.1 565.9 434.1L565.3 434.4C549.5 442.8 539.5 448.2 528.5 448.2C520.6 448.2 515.6 446.1 511.8 443C507.6 439.7 503.8 434.4 500.1 426.3C496.4 418.2 493.3 408.6 489.9 397.5L488.6 393.2C486.2 385.3 483.6 376.8 480.6 368.3C487.7 360 493.4 352.2 497.8 345.7L498.8 344.2C510.4 356.7 525.1 368.1 544.5 368.1C551.7 368.1 558.4 366.6 564.3 363.5C570.2 360.4 574.5 356 577.8 351.5C582.4 345.2 585.8 336.8 588.4 330.6L588.4 330.6C589 329.1 589.6 327.7 590.1 326.5C593.4 319 596.4 314 600.7 310.5C604.6 307.3 611.3 304.1 624.5 304.1C633.3 304.1 640.5 296.9 640.5 288.1C640.5 279.3 633.3 272.1 624.5 272.1C605.7 272.1 591.4 276.9 580.5 285.7C570 294.2 564.6 305.1 560.8 313.7C559.6 316.5 558.6 318.9 557.7 321L557.7 321C555.5 326.3 554.1 329.7 551.9 332.7C550.8 334.2 549.9 334.9 549.3 335.2C548.6 335.5 547.3 336.1 544.5 336.1C538 336.1 530.6 332.1 519.3 319.1C513.9 312.9 508.3 305.5 501.9 296.9L501.4 296.2C495.2 288 488.4 278.9 480.8 269.8C465.3 251.2 446.4 232.3 421.6 217.7L435.1 190.6C439.4 191.5 443.9 192 448.5 192C483.8 192 512.5 163.3 512.5 128C512.5 92.7 483.8 64 448.5 64C413.2 64 384.5 92.7 384.5 128C384.5 147.3 393 164.5 406.5 176.3L392.1 204C371.7 196.5 347.9 192 320 192C292.1 192 268.3 196.5 247.9 204L234 176.3zM448 96C465.7 96 480 110.3 480 128C480 145.7 465.7 160 448 160C430.3 160 416 145.7 416 128C416 110.3 430.3 96 448 96zM452.6 355.8C451.7 356.6 450.9 357.5 450.1 358.4C447.9 360.8 445.5 363.2 443 365.6C415.7 391.9 375.1 417.6 320 417.6C264.9 417.6 224.3 392 197 365.6C194.5 363.2 192.2 360.8 189.9 358.4C189.2 357.4 188.4 356.6 187.4 355.8C178.5 346.1 171.5 336.8 166.5 329.4C164.2 326 162.3 323 160.8 320.5L164.2 316L164.5 315.6C170.8 307.2 177.2 298.7 184.3 290.2C212.5 256.3 250.5 224 320 224C389.5 224 427.5 256.3 455.7 290.2C462.8 298.7 469.2 307.2 475.5 315.6L475.8 316L479.2 320.5C477.7 323 475.8 326 473.5 329.4C468.5 336.8 461.5 346.1 452.6 355.8z"/></svg>