<svg xmlns="http://www.w3.org/2000/svg" viewBox="0 0 640 640"><!--! Font Awesome Pro 7.1.0 by @fontawesome - https://fontawesome.com License - https://fontawesome.com/license (Commercial License) Copyright 2025 Fonticons, Inc. --><path fill="currentColor" d="M390.6 268.1L529.2 320L390.6 371.9C381.9 375.1 375.1 382 371.8 390.7L320 529.2L268.1 390.6C264.9 381.9 258 375.1 249.3 371.8L110.8 320L249.4 268.1C258.1 264.9 264.9 258 268.2 249.3L320 110.8L371.9 249.4C375.1 258.1 382 264.9 390.7 268.2zM401.8 238.1L342.5 79.6C339 70.2 330 64 320 64C310 64 301 70.2 297.5 79.6L238.2 238.2L79.6 297.5C70.2 301 64 310 64 320C64 330 70.2 339 79.6 342.5L238.2 401.9L297.6 560.5C301 569.8 310 576 320 576C330 576 339 569.8 342.5 560.4L401.9 401.8L560.5 342.4C569.8 339 576 330 576 320C576 310 569.8 301 560.4 297.5L401.8 238.2z"/></svg>