<svg xmlns="http://www.w3.org/2000/svg" viewBox="0 0 640 640"><!--! Font Awesome Pro 7.1.0 by @fontawesome - https://fontawesome.com License - https://fontawesome.com/license (Commercial License) Copyright 2025 Fonticons, Inc. --><path fill="currentColor" d="M192 96C174.3 96 160 110.3 160 128L160 512C160 529.7 174.3 544 192 544L448 544C465.7 544 480 529.7 480 512L480 128C480 110.3 465.7 96 448 96L192 96zM128 128C128 92.7 156.7 64 192 64L448 64C483.3 64 512 92.7 512 128L512 512C512 547.3 483.3 576 448 576L192 576C156.7 576 128 547.3 128 512L128 128zM320 168C333.3 168 344 178.7 344 192C344 205.3 333.3 216 320 216C306.7 216 296 205.3 296 192C296 178.7 306.7 168 320 168zM296 384C296 370.7 306.7 360 320 360C333.3 360 344 370.7 344 384C344 397.3 333.3 408 320 408C306.7 408 296 397.3 296 384zM320 288C373 288 416 331 416 384C416 437 373 480 320 480C267 480 224 437 224 384C224 331 267 288 320 288zM384 384C384 348.7 355.3 320 320 320C284.7 320 256 348.7 256 384C256 419.3 284.7 448 320 448C355.3 448 384 419.3 384 384z"/></svg>