<svg xmlns="http://www.w3.org/2000/svg" viewBox="0 0 640 640"><!--! Font Awesome Pro 7.1.0 by @fontawesome - https://fontawesome.com License - https://fontawesome.com/license (Commercial License) Copyright 2025 Fonticons, Inc. --><path fill="currentColor" d="M256 64C238.3 64 224 78.3 224 96L224 448C224 465.7 238.3 480 256 480L480 480C497.7 480 512 465.7 512 448L512 96C512 78.3 497.7 64 480 64L256 64zM192 96C192 60.7 220.7 32 256 32L480 32C515.3 32 544 60.7 544 96L544 448C544 483.3 515.3 512 480 512L256 512C220.7 512 192 483.3 192 448L192 96zM432 336C432 300.7 403.3 272 368 272C332.7 272 304 300.7 304 336C304 371.3 332.7 400 368 400C403.3 400 432 371.3 432 336zM272 336C272 283 315 240 368 240C421 240 464 283 464 336C464 389 421 432 368 432C315 432 272 389 272 336zM344 144C344 130.7 354.7 120 368 120C381.3 120 392 130.7 392 144C392 157.3 381.3 168 368 168C354.7 168 344 157.3 344 144zM128 144L128 544C128 561.7 142.3 576 160 576L432 576C440.8 576 448 583.2 448 592C448 600.8 440.8 608 432 608L160 608C124.7 608 96 579.3 96 544L96 144C96 135.2 103.2 128 112 128C120.8 128 128 135.2 128 144z"/></svg>