<svg xmlns="http://www.w3.org/2000/svg" viewBox="0 0 640 640"><!--! Font Awesome Pro 7.1.0 by @fontawesome - https://fontawesome.com License - https://fontawesome.com/license (Commercial License) Copyright 2025 Fonticons, Inc. --><path fill="currentColor" d="M152 96C103.4 96 64 135.4 64 184L64 368C64 376.8 71.2 384 80 384C88.8 384 96 376.8 96 368L96 272L224 272L224 368C224 376.8 231.2 384 240 384C248.8 384 256 376.8 256 368L256 184C256 135.4 216.6 96 168 96L152 96zM224 240L96 240L96 184C96 153.1 121.1 128 152 128L168 128C198.9 128 224 153.1 224 184L224 240zM320 96C311.2 96 304 103.2 304 112L304 368C304 376.8 311.2 384 320 384L416 384C460.2 384 496 348.2 496 304C496 274 479.4 247.8 455 234.1C470.4 219.5 480 198.9 480 176C480 131.8 444.2 96 400 96L320 96zM400 224L336 224L336 128L400 128C426.5 128 448 149.5 448 176C448 202.5 426.5 224 400 224zM336 352L336 256L416 256C442.5 256 464 277.5 464 304C464 330.5 442.5 352 416 352L336 352zM604.8 377.6C610.1 370.5 608.7 360.5 601.6 355.2C594.5 349.9 584.5 351.3 579.2 358.4L447.3 534.2L380.3 453.7C374.6 446.9 364.6 446 357.8 451.7C351 457.4 350.1 467.4 355.8 474.2L435.8 570.2C438.9 574 443.6 576.1 448.5 576C453.4 575.9 458 573.5 460.9 569.6L604.9 377.6z"/></svg>