<svg xmlns="http://www.w3.org/2000/svg" viewBox="0 0 640 640"><!--! Font Awesome Pro 7.1.0 by @fontawesome - https://fontawesome.com License - https://fontawesome.com/license (Commercial License) Copyright 2025 Fonticons, Inc. --><path fill="currentColor" d="M426.7 33.1C433.9 30.3 441.9 33.1 445.9 39.3L447.4 42.2L503.4 186.2C505.6 191.9 504.4 198.4 500.2 202.9L414 295.7L524 266.8L545.3 203L546.6 200C550.3 193.6 558.2 190.4 565.5 192.8C572.8 195.3 577.2 202.5 576.3 209.9L575.6 213.1L551.6 285.1C549.9 290.2 545.7 294.1 540.5 295.5L447.3 320L540.5 344.5C545.7 345.9 549.9 349.8 551.6 354.9L575.6 426.9L576.3 430.1C577.2 437.5 572.8 444.7 565.5 447.2C558.2 449.6 550.3 446.5 546.6 440L545.3 437L524 373.2L431.7 348.9L501.5 446.6C504.3 450.6 505.2 455.7 503.8 460.4L463.8 596.4L462.6 599.4C459.1 605.9 451.4 609.4 444 607.2C435.5 604.7 430.7 595.8 433.2 587.4L471 459L432.4 405C429.8 462.6 383.8 508.9 326.3 511.8L320.5 512C260.3 512 211.2 464.5 208.6 405L170 459L207.8 587.5C210.3 596 205.4 604.9 197 607.3C189.6 609.5 181.9 606 178.4 599.5L177.2 596.5L137.2 460.5C135.8 455.8 136.7 450.7 139.5 446.7L209.3 349L117 373.3L95.8 437.1L94.5 440.1C90.8 446.5 82.9 449.7 75.6 447.3C68.3 444.9 63.9 437.6 64.8 430.2L65.5 427L89.5 355C91.2 349.9 95.4 346 100.6 344.6L193.8 320.1L100.6 295.6C95.4 294.2 91.2 290.3 89.5 285.2L65.5 213.2L64.8 210C63.9 202.6 68.3 195.4 75.6 192.9C82.9 190.5 90.8 193.6 94.5 200.1L95.8 203.1L117 266.9L227 295.8L140.8 203C136.6 198.5 135.4 192 137.6 186.3L193.6 42.3L195.1 39.4C199.1 33.1 207.1 30.4 214.3 33.2C221.5 36 225.5 43.5 224.3 50.8L223.4 53.9L171 188.6L240.5 263.4L240.5 240.1C240.5 195.9 276.3 160.1 320.5 160.1L328.7 160.5C369 164.6 400.5 198.7 400.5 240.1L400.5 263.4L470 188.6L417.6 53.9L416.7 50.8C415.4 43.5 419.5 36 426.7 33.2zM320.5 192C294 192 272.5 213.5 272.5 240L272.5 272C272.5 281.1 275.1 289.5 279.5 296.8C283.9 304 281.9 313.4 274.9 318.3C254.1 332.8 240.5 356.8 240.5 384L240.5 400C240.5 444.2 276.3 480 320.5 480L328.7 479.6C369 475.5 400.5 441.4 400.5 400L400.5 384C400.5 356.8 386.9 332.8 366 318.3C359.1 313.5 357.1 304.1 361.4 296.8C365.9 289.5 368.5 281 368.5 272L368.5 240L368.3 235.1C366 212.5 348 194.6 325.5 192.3L320.6 192.1z"/></svg>