<svg xmlns="http://www.w3.org/2000/svg" viewBox="0 0 640 640"><!--! Font Awesome Pro 7.1.0 by @fontawesome - https://fontawesome.com License - https://fontawesome.com/license (Commercial License) Copyright 2025 Fonticons, Inc. --><path fill="currentColor" d="M173.9 82.4C176.6 75.1 184.2 70.9 191.8 72.3L265.4 86.1C302.4 93 340.4 93 377.4 86.1L451.1 72.3C458.7 70.9 466.3 75.1 469 82.4L499.7 164.2C511.7 196.2 529 225.9 550.8 252.1L598.9 309.8C603.8 315.7 603.8 324.4 598.9 330.3L550.7 388C528.9 414.2 511.6 443.9 499.6 475.9L469 557.6C466.3 564.9 458.7 569.1 451.1 567.7L377.5 553.9C340.5 547 302.5 547 265.5 553.9L191.9 567.7C184.3 569.1 176.7 564.9 174 557.6L143.3 475.8C131.3 443.8 114 414.1 92.2 387.9L44 330.2C39.1 324.3 39.1 315.6 44 309.7L92.1 252C113.9 225.8 131.2 196.1 143.2 164.1L173.9 82.3zM191.7 126.2L173.2 175.4C160 210.7 140.9 243.5 116.7 272.5L90.4 304L160.9 304L163.5 301.1C188.9 272 208.6 238.4 221.4 202L226.6 187.3L191.6 126.1zM219.3 110L253.5 169.9C297.6 181.9 344 181.9 388.1 170.1L422.3 110.3L383.3 117.6C342.4 125.3 300.4 125.3 259.5 117.6L219.3 110zM450.8 124.9L415.6 186.6L421 202C433.8 238.4 453.5 272 478.9 301.1L481.5 304L552.5 304L526.3 272.5C502.2 243.5 483.1 210.7 469.8 175.4L450.8 124.9zM552.4 336L481.2 336L480.1 337.3C453.9 367.3 433.8 402.1 421 439.8L416 454.4L450.7 515.1L469.6 464.6C482.8 429.3 501.9 396.5 526.1 367.5L552.4 336zM422.3 529.8L390.1 473.4C345.9 459.1 298.5 457.9 253.6 470L219.3 530.1L259.5 522.6C300.4 514.9 342.4 514.9 383.3 522.6L422.3 529.9zM191.6 513.9L226.6 452.7L221.4 437.9C208.6 401.5 188.9 367.9 163.5 338.8L161.1 336L90.4 336L116.6 367.5C140.7 396.5 159.8 429.3 173.1 464.6L191.6 513.9zM202.5 336C221.1 360.5 236.2 387.5 247.5 416.1L293.3 336L202.5 336zM274.8 432.8C305.7 428.1 337.2 428.7 367.9 434.6L320.8 352.2L274.8 432.8zM395 417.6C406.1 388.4 421.3 361 440 336L348.4 336L395 417.6zM440 304C421.2 279.3 406 252.1 394.7 223.1L348.4 304L440 304zM366.9 207.2C336.4 212.1 305.3 212 274.8 207.1L320.9 287.7L366.9 207.2zM247.4 223.8C236.1 252.5 221 279.5 202.3 304L293.2 304L247.4 223.8z"/></svg>