<svg xmlns="http://www.w3.org/2000/svg" viewBox="0 0 640 640"><!--! Font Awesome Pro 7.1.0 by @fontawesome - https://fontawesome.com License - https://fontawesome.com/license (Commercial License) Copyright 2025 Fonticons, Inc. --><path fill="currentColor" d="M320 108C331 108 340 117 340 128C340 139 331 148 320 148C309 148 300 139 300 128C300 117 309 108 320 108zM268 128C268 156.7 291.3 180 320 180C348.7 180 372 156.7 372 128C372 99.3 348.7 76 320 76C291.3 76 268 99.3 268 128zM296 512C296 525.3 306.7 536 320 536C333.3 536 344 525.3 344 512C344 498.7 333.3 488 320 488C306.7 488 296 498.7 296 512zM536 320C536 306.7 525.3 296 512 296C498.7 296 488 306.7 488 320C488 333.3 498.7 344 512 344C525.3 344 536 333.3 536 320zM140 320C140 326.6 134.6 332 128 332C121.4 332 116 326.6 116 320C116 313.4 121.4 308 128 308C134.6 308 140 313.4 140 320zM128 276C103.7 276 84 295.7 84 320C84 344.3 103.7 364 128 364C152.3 364 172 344.3 172 320C172 295.7 152.3 276 128 276zM472.7 201.2C466.8 207.8 457.7 210.5 449.1 208.4C440.5 206.2 433.8 199.5 431.6 190.9C429.5 182.3 432.2 173.2 438.8 167.3C444.7 160.7 453.8 158 462.4 160.1C471 162.3 477.7 169 479.9 177.6C482 186.2 479.3 195.3 472.7 201.2zM495.3 144.6C473.4 122.7 438 122.7 416.1 144.6C394.2 166.5 394.2 201.9 416.1 223.8C438 245.7 473.4 245.7 495.3 223.8C517.2 201.9 517.2 166.5 495.3 144.6zM156.2 455.8C156.2 471.3 168.7 483.8 184.2 483.8C199.7 483.8 212.2 471.3 212.2 455.8C212.2 440.3 199.7 427.8 184.2 427.8C168.7 427.8 156.2 440.3 156.2 455.8zM448 472C461.3 472 472 461.3 472 448C472 434.7 461.3 424 448 424C434.7 424 424 434.7 424 448C424 461.3 434.7 472 448 472zM195.5 195.5C191.5 199.9 185.5 201.7 179.8 200.3C174 198.8 169.6 194.4 168.1 188.6C166.7 182.9 168.5 176.9 172.9 172.9C176.9 168.5 182.9 166.7 188.6 168.1C194.4 169.6 198.8 174 200.3 179.8C201.7 185.5 199.9 191.5 195.5 195.5zM218.1 150.2C199.3 131.4 169 131.4 150.2 150.2C131.4 169 131.4 199.3 150.2 218.1C169 236.9 199.3 236.9 218.1 218.1C236.9 199.3 236.9 169 218.1 150.2z"/></svg>