<svg xmlns="http://www.w3.org/2000/svg" viewBox="0 0 640 640"><!--! Font Awesome Pro 7.1.0 by @fontawesome - https://fontawesome.com License - https://fontawesome.com/license (Commercial License) Copyright 2025 Fonticons, Inc. --><path fill="currentColor" d="M320 96C328.8 96 336 103.2 336 112C336 120.8 328.8 128 320 128C311.2 128 304 120.8 304 112C304 103.2 311.2 96 320 96zM320 160C346.5 160 368 138.5 368 112C368 85.5 346.5 64 320 64C293.5 64 272 85.5 272 112C272 138.5 293.5 160 320 160zM320 512C328.8 512 336 519.2 336 528C336 536.8 328.8 544 320 544C311.2 544 304 536.8 304 528C304 519.2 311.2 512 320 512zM320 576C346.5 576 368 554.5 368 528C368 501.5 346.5 480 320 480C293.5 480 272 501.5 272 528C272 554.5 293.5 576 320 576zM96 320C96 311.2 103.2 304 112 304C120.8 304 128 311.2 128 320C128 328.8 120.8 336 112 336C103.2 336 96 328.8 96 320zM160 320C160 293.5 138.5 272 112 272C85.5 272 64 293.5 64 320C64 346.5 85.5 368 112 368C138.5 368 160 346.5 160 320zM528 304C536.8 304 544 311.2 544 320C544 328.8 536.8 336 528 336C519.2 336 512 328.8 512 320C512 311.2 519.2 304 528 304zM528 368C554.5 368 576 346.5 576 320C576 293.5 554.5 272 528 272C501.5 272 480 293.5 480 320C480 346.5 501.5 368 528 368zM161.6 478.4C157.2 474.4 155.4 468.4 156.8 462.7C158.3 456.9 162.7 452.5 168.5 451C174.2 449.6 180.2 451.4 184.2 455.8C188.6 459.8 190.4 465.8 189 471.5C187.5 477.3 183.1 481.7 177.3 483.2C171.6 484.6 165.6 482.8 161.6 478.4zM206.9 433.1C188.1 414.3 157.8 414.3 139 433.1C120.2 451.9 120.2 482.2 139 501C157.8 519.8 188.1 519.8 206.9 501C225.7 482.2 225.7 451.9 206.9 433.1zM184.2 161.6C188.6 165.6 190.4 171.6 189 177.3C187.5 183.1 183.1 187.5 177.3 189C171.6 190.4 165.6 188.6 161.6 184.2C157.2 180.2 155.4 174.2 156.8 168.5C158.3 162.7 162.7 158.3 168.5 156.8C174.2 155.4 180.2 157.2 184.2 161.6zM139 206.9C157.8 225.7 188.1 225.7 206.9 206.9C225.7 188.1 225.7 157.8 206.9 139C188.1 120.2 157.8 120.2 139 139C120.2 157.8 120.2 188.1 139 206.9zM455.8 455.8C459.8 451.4 465.8 449.6 471.5 451C477.3 452.5 481.7 456.9 483.2 462.7C484.6 468.4 482.8 474.4 478.4 478.4C474.4 482.8 468.4 484.6 462.7 483.2C456.9 481.7 452.5 477.3 451 471.5C449.6 465.8 451.4 459.8 455.8 455.8zM501 501C519.8 482.2 519.8 451.9 501 433.1C482.2 414.3 451.9 414.3 433.1 433.1C414.3 451.9 414.3 482.2 433.1 501C451.9 519.8 482.2 519.8 501 501z"/></svg>