<svg xmlns="http://www.w3.org/2000/svg" viewBox="0 0 640 640"><!--! Font Awesome Pro 7.1.0 by @fontawesome - https://fontawesome.com License - https://fontawesome.com/license (Commercial License) Copyright 2025 Fonticons, Inc. --><path fill="currentColor" d="M198.9 63.1C206.2 58.1 216.1 59.9 221.1 67.2C226.1 74.5 224.3 84.4 217 89.4C143.9 140 96 224.4 96 320C96 443.7 196.3 544 320 544C443.7 544 544 443.7 544 320C544 227.2 468.8 152 376 152C283.2 152 208 227.2 208 320C208 381.8 258.1 432 320 432C381.9 432 432 381.8 432 320C432 289.1 406.9 264 376 264C345.1 264 320 289.1 320 320C320 328.8 312.8 336 304 336C295.2 336 288 328.8 288 320C288 271.4 327.4 232 376 232C424.6 232 464 271.4 464 320C464 399.5 399.5 464 320 464C240.5 464 176 399.5 176 320C176 209.5 265.5 120 376 120C486.5 120 576 209.5 576 320C576 461.4 461.4 576 320 576C178.6 576 64 461.4 64 320C64 213.4 117.4 119.4 198.9 63.1z"/></svg>