<svg xmlns="http://www.w3.org/2000/svg" viewBox="0 0 640 640"><!--! Font Awesome Pro 7.1.0 by @fontawesome - https://fontawesome.com License - https://fontawesome.com/license (Commercial License) Copyright 2025 Fonticons, Inc. --><path fill="currentColor" d="M468.7 68.7C474.9 62.5 485.1 62.5 491.3 68.7L571.3 148.7C577.5 154.9 577.5 165.1 571.3 171.3L491.3 251.3C485.1 257.5 474.9 257.5 468.7 251.3C462.5 245.1 462.5 234.9 468.7 228.7L521.4 176L417.2 176C400.2 176 383.9 182.7 371.9 194.7L258.7 307.9C254.1 312.5 249.2 316.5 243.9 320C249.2 323.5 254.2 327.6 258.7 332.1L371.9 445.3C383.9 457.3 400.2 464 417.2 464L521.4 464L468.7 411.3C462.5 405.1 462.5 394.9 468.7 388.7C474.9 382.5 485.1 382.5 491.3 388.7L571.3 468.7C577.5 474.9 577.5 485.1 571.3 491.3L491.3 571.3C485.1 577.5 474.9 577.5 468.7 571.3C462.5 565.1 462.5 554.9 468.7 548.7L521.4 496L417.2 496C391.7 496 367.3 485.9 349.3 467.9L236.1 354.7C224.1 342.7 207.8 336 190.8 336L80 336C71.2 336 64 328.8 64 320C64 311.2 71.2 304 80 304L190.9 304C207.9 304 224.2 297.3 236.2 285.3L349.3 172.1C367.3 154.1 391.7 144 417.2 144L521.4 144L468.7 91.3C462.5 85.1 462.5 74.9 468.7 68.7z"/></svg>