<svg xmlns="http://www.w3.org/2000/svg" viewBox="0 0 640 640"><!--! Font Awesome Pro 7.1.0 by @fontawesome - https://fontawesome.com License - https://fontawesome.com/license (Commercial License) Copyright 2025 Fonticons, Inc. --><path fill="currentColor" d="M253.1 480.1L150.4 489.5C129.8 491.4 112 475.1 112 454.4C112 446.8 114.5 439.4 119 433.3L137.8 408.3C152.3 388.9 159.9 365.2 159.4 341C158.9 320.8 152.8 301.2 141.8 284.4L101.3 222.5C97.9 217.3 96 211.1 96 204.9C96 184.8 114.2 169.7 133.9 173.3L176.7 181.1C223.7 189.6 271.6 172.3 302.1 135.6L324.4 108.8C331.1 100.8 341 96.1 351.5 96.1C366.7 96.1 380.2 105.8 385 120.2L400 165.3C414.2 207.9 446.9 241.8 488.9 257.6L521.2 269.7C534.9 274.8 543.9 287.9 543.9 302.5C543.9 313.5 538.7 323.9 529.9 330.5L468 377C434.6 402 417 442.8 421.6 484.3L424.1 507C426.3 526.8 410.8 544.1 390.9 544.1C383.3 544.1 376 541.5 370 536.8L333 507C311.1 489.5 284 480 256 480C255 480 254.1 480 253.1 480.1zM115 301.8C122.8 313.7 127.1 327.5 127.4 341.6C127.8 358.6 122.5 375.3 112.2 389L93.4 414C84.7 425.6 80 439.8 80 454.3C80 493.8 113.9 524.8 153.3 521.2L256 512C276.7 512 296.8 519 313 532L350.1 561.7C361.7 571 376.1 576 391 576C430 576 460.3 542.1 456 503.4L453.5 480.7C450.1 450.5 463 420.8 487.3 402.6L549.3 356.1C566.2 343.4 576.1 323.6 576.1 302.5C576.1 274.5 558.8 249.5 532.6 239.7L500.3 227.6C467.3 215.2 441.6 188.6 430.5 155.2L415.3 110C406.1 82.5 380.4 64 351.5 64C331.5 64 312.6 72.9 299.8 88.2L277.5 115C254.3 142.8 218 156 182.4 149.5L139.6 141.7C100.2 134.6 64 164.8 64 204.9C64 217.3 67.6 229.6 74.5 240L115 301.8z"/></svg>