<svg xmlns="http://www.w3.org/2000/svg" viewBox="0 0 640 640"><!--! Font Awesome Pro 7.1.0 by @fontawesome - https://fontawesome.com License - https://fontawesome.com/license (Commercial License) Copyright 2025 Fonticons, Inc. --><path fill="currentColor" d="M137.6 213.5C198.8 119.4 315 59.1 514.3 86.8L518 87.5C536 91.5 550.8 105.9 553.8 125L556.2 142C567.1 228.6 559.7 340 503.4 426.5C444.1 517.6 333.2 577.1 145.2 555.5L126.8 553.2C108.4 550.6 92.6 537.2 88 518.8L87.2 515C73.1 426.4 77.6 305.8 137.6 213.5zM140.3 522.7L148.6 523.8C199.4 529.7 243.7 529.2 282.2 523.9C273.7 488.4 256.9 456.1 233.7 429.3L140.4 522.7zM256.4 406.7C284 438 304 476.1 313.7 518.1C365.1 506.3 404.8 484.9 435.2 457.5L320.4 342.7L256.4 406.7zM118 358.5C110.3 407.4 111.3 456.9 117.4 500.4L211.1 406.7C184.8 383.8 153 367 118 358.5zM343.1 320L457.6 434.4C464.5 426.2 470.9 417.8 476.6 409C495.7 379.7 508.6 346.8 516.8 312.8C475.5 302.9 438 283.1 407.1 255.9L343.1 319.9zM183.4 205.5C176.5 213.7 170.1 222.2 164.4 230.9C145.3 260.2 132.5 293.1 124.2 327C165.5 336.9 203 356.7 233.8 383.9L297.8 319.9L183.3 205.4zM327.1 121.9C275.7 133.6 236 155.1 205.6 182.5L320.4 297.3L384.4 233.3C356.8 202 336.7 163.9 327 121.8zM429.8 233.3C456.2 256.2 488 272.9 523 281.5C530.3 235.1 529.7 188.1 524.5 146.3L523.5 139.5L429.8 233.3zM500.5 117.3C446.2 110.4 399.2 110.5 358.7 116.2C367.2 151.7 384.1 184 407.2 210.7L500.5 117.3z"/></svg>