<svg xmlns="http://www.w3.org/2000/svg" viewBox="0 0 640 640"><!--! Font Awesome Pro 7.1.0 by @fontawesome - https://fontawesome.com License - https://fontawesome.com/license (Commercial License) Copyright 2025 Fonticons, Inc. --><path fill="currentColor" d="M288 96L288 144L320 144L320 96C320 78.3 305.7 64 288 64L224 64C206.3 64 192 78.3 192 96L192 144L224 144L224 96L288 96zM384 152C397.3 152 408 141.3 408 128C408 114.7 397.3 104 384 104C370.7 104 360 114.7 360 128C360 141.3 370.7 152 384 152zM320 224C355.3 224 384 252.7 384 288L384 504C384 526.1 366.1 544 344 544L168 544C145.9 544 128 526.1 128 504L128 288C128 252.7 156.7 224 192 224L320 224zM192 192C139 192 96 235 96 288L96 504C96 543.8 128.2 576 168 576L344 576C383.8 576 416 543.8 416 504L416 288C416 235 373 192 320 192L192 192zM256 336C282.5 336 304 357.5 304 384C304 410.5 282.5 432 256 432C229.5 432 208 410.5 208 384C208 357.5 229.5 336 256 336zM256 464C300.2 464 336 428.2 336 384C336 339.8 300.2 304 256 304C211.8 304 176 339.8 176 384C176 428.2 211.8 464 256 464zM504 128C504 114.7 493.3 104 480 104C466.7 104 456 114.7 456 128C456 141.3 466.7 152 480 152C493.3 152 504 141.3 504 128zM576 152C589.3 152 600 141.3 600 128C600 114.7 589.3 104 576 104C562.7 104 552 114.7 552 128C552 141.3 562.7 152 576 152zM600 224C600 210.7 589.3 200 576 200C562.7 200 552 210.7 552 224C552 237.3 562.7 248 576 248C589.3 248 600 237.3 600 224zM576 344C589.3 344 600 333.3 600 320C600 306.7 589.3 296 576 296C562.7 296 552 306.7 552 320C552 333.3 562.7 344 576 344zM504 224C504 210.7 493.3 200 480 200C466.7 200 456 210.7 456 224C456 237.3 466.7 248 480 248C493.3 248 504 237.3 504 224z"/></svg>