<svg xmlns="http://www.w3.org/2000/svg" viewBox="0 0 640 640"><!--! Font Awesome Pro 7.1.0 by @fontawesome - https://fontawesome.com License - https://fontawesome.com/license (Commercial License) Copyright 2025 Fonticons, Inc. --><path fill="currentColor" d="M128 64L160 64L160 147.8L256 174L256 207.2L139.8 175.5C132.8 173.5 128 167.2 128 160L128 64zM384 174L480 147.8L480 64L512 64L512 160C512 167.2 507.2 173.5 500.2 175.4L384 207.1L384 174zM320 96C328.8 96 336 103.2 336 112L336 288L432 288C440.8 288 448 295.2 448 304C448 312.8 440.8 320 432 320L208 320C199.2 320 192 312.8 192 304C192 295.2 199.2 288 208 288L304 288L304 112C304 103.2 311.2 96 320 96zM272 384C280.8 384 288 391.2 288 400C288 408.8 280.8 416 272 416C263.2 416 256 408.8 256 400C256 391.2 263.2 384 272 384zM208 480C199.2 480 192 472.8 192 464C192 455.2 199.2 448 208 448C216.8 448 224 455.2 224 464C224 472.8 216.8 480 208 480zM352 400C352 391.2 359.2 384 368 384C376.8 384 384 391.2 384 400C384 408.8 376.8 416 368 416C359.2 416 352 408.8 352 400zM320 480C311.2 480 304 472.8 304 464C304 455.2 311.2 448 320 448C328.8 448 336 455.2 336 464C336 472.8 328.8 480 320 480zM288 528C288 536.8 280.8 544 272 544C263.2 544 256 536.8 256 528C256 519.2 263.2 512 272 512C280.8 512 288 519.2 288 528zM368 544C359.2 544 352 536.8 352 528C352 519.2 359.2 512 368 512C376.8 512 384 519.2 384 528C384 536.8 376.8 544 368 544zM512 528C512 536.8 504.8 544 496 544C487.2 544 480 536.8 480 528C480 519.2 487.2 512 496 512C504.8 512 512 519.2 512 528zM432 480C423.2 480 416 472.8 416 464C416 455.2 423.2 448 432 448C440.8 448 448 455.2 448 464C448 472.8 440.8 480 432 480zM160 528C160 536.8 152.8 544 144 544C135.2 544 128 536.8 128 528C128 519.2 135.2 512 144 512C152.8 512 160 519.2 160 528z"/></svg>