<svg xmlns="http://www.w3.org/2000/svg" viewBox="0 0 640 640"><!--! Font Awesome Pro 7.1.0 by @fontawesome - https://fontawesome.com License - https://fontawesome.com/license (Commercial License) Copyright 2025 Fonticons, Inc. --><path fill="currentColor" d="M560 64C568.8 64 576 71.2 576 80C576 88.8 568.8 96 560 96C551.2 96 544 88.8 544 80C544 71.2 551.2 64 560 64zM496 128C504.8 128 512 135.2 512 144C512 152.8 504.8 160 496 160C487.2 160 480 152.8 480 144C480 135.2 487.2 128 496 128zM96 208C96 216.8 88.8 224 80 224C71.2 224 64 216.8 64 208C64 199.2 71.2 192 80 192C88.8 192 96 199.2 96 208zM224 208C224 216.8 216.8 224 208 224C199.2 224 192 216.8 192 208C192 199.2 199.2 192 208 192C216.8 192 224 199.2 224 208zM416 208C416 199.2 423.2 192 432 192C440.8 192 448 199.2 448 208C448 216.8 440.8 224 432 224C423.2 224 416 216.8 416 208zM560 192C568.8 192 576 199.2 576 208C576 216.8 568.8 224 560 224C551.2 224 544 216.8 544 208C544 199.2 551.2 192 560 192zM496 256C504.8 256 512 263.2 512 272C512 280.8 504.8 288 496 288C487.2 288 480 280.8 480 272C480 263.2 487.2 256 496 256zM160 272C160 280.8 152.8 288 144 288C135.2 288 128 280.8 128 272C128 263.2 135.2 256 144 256C152.8 256 160 263.2 160 272zM560 320C568.8 320 576 327.2 576 336C576 344.8 568.8 352 560 352C551.2 352 544 344.8 544 336C544 327.2 551.2 320 560 320zM96 336C96 344.8 88.8 352 80 352C71.2 352 64 344.8 64 336C64 327.2 71.2 320 80 320C88.8 320 96 327.2 96 336zM160 144C160 152.8 152.8 160 144 160C135.2 160 128 152.8 128 144C128 135.2 135.2 128 144 128C152.8 128 160 135.2 160 144zM96 80C96 88.8 88.8 96 80 96C71.2 96 64 88.8 64 80C64 71.2 71.2 64 80 64C88.8 64 96 71.2 96 80zM320 128C328.8 128 336 135.2 336 144L336 320L456 320C465.7 320 474.5 325.8 478.2 334.8C481.9 343.8 479.9 354.1 473 361L384 450L384 536.1C384 558.2 366.1 576.1 344 576.1L296 576.1C273.9 576.1 256 558.2 256 536.1L256 450L167 361C160.1 354.1 158.1 343.8 161.8 334.8C165.5 325.8 174.3 320 184 320L304 320L304 144C304 135.2 311.2 128 320 128zM203.3 352L278.6 427.3C284.6 433.3 288 441.4 288 449.9L288 536C288 540.4 291.6 544 296 544L344 544C348.4 544 352 540.4 352 536L352 449.9C352 441.4 355.4 433.3 361.4 427.3L436.7 352L203.3 352z"/></svg>