<svg xmlns="http://www.w3.org/2000/svg" viewBox="0 0 640 640"><!--! Font Awesome Pro 7.1.0 by @fontawesome - https://fontawesome.com License - https://fontawesome.com/license (Commercial License) Copyright 2025 Fonticons, Inc. --><path fill="currentColor" d="M560 64L563.2 64.3C570.5 65.8 576 72.3 576 80L576 112L575.7 123.5C569.9 238 478 329.9 363.5 335.7L352 336L352 560C352 568.8 344.8 576 336 576C327.2 576 320 568.8 320 560L320 384L288 384L276.5 383.7C158.1 377.7 64 279.8 64 160L64 144C64 136.3 69.5 129.8 76.8 128.3L80 128L128 128L139.5 128.3C219.2 132.3 287.9 178.1 324.3 244.1C344 145 429 69.5 532.5 64.3L544 64L560 64zM96 160C96 266 182 352 288 352L320 352C320 246 234 160 128 160L96 160zM544 96C438 96 352 182 352 288L352 304C458 304 544 218 544 112L544 96z"/></svg>