<svg xmlns="http://www.w3.org/2000/svg" viewBox="0 0 640 640"><!--! Font Awesome Pro 7.1.0 by @fontawesome - https://fontawesome.com License - https://fontawesome.com/license (Commercial License) Copyright 2025 Fonticons, Inc. --><path fill="currentColor" d="M160 128C142.3 128 128 142.3 128 160L128 480C128 497.7 142.3 512 160 512L480 512C497.7 512 512 497.7 512 480L512 160C512 142.3 497.7 128 480 128L160 128zM96 160C96 124.7 124.7 96 160 96L480 96C515.3 96 544 124.7 544 160L544 480C544 515.3 515.3 544 480 544L160 544C124.7 544 96 515.3 96 480L96 160zM416 320C416 267 373 224 320 224C267 224 224 267 224 320C224 373 267 416 320 416C373 416 416 373 416 320zM192 320C192 249.3 249.3 192 320 192C390.7 192 448 249.3 448 320C448 390.7 390.7 448 320 448C249.3 448 192 390.7 192 320z"/></svg>