<svg xmlns="http://www.w3.org/2000/svg" viewBox="0 0 640 640"><!--! Font Awesome Pro 7.1.0 by @fontawesome - https://fontawesome.com License - https://fontawesome.com/license (Commercial License) Copyright 2025 Fonticons, Inc. --><path fill="currentColor" d="M160 128C142.3 128 128 142.3 128 160L128 480C128 497.7 142.3 512 160 512L480 512C497.7 512 512 497.7 512 480L512 160C512 142.3 497.7 128 480 128L160 128zM96 160C96 124.7 124.7 96 160 96L480 96C515.3 96 544 124.7 544 160L544 480C544 515.3 515.3 544 480 544L160 544C124.7 544 96 515.3 96 480L96 160zM208 192C216.8 192 224 199.2 224 208L224 333.8L293.8 275.7C300.6 270 310.7 271 316.3 277.7C321.9 284.4 321 294.6 314.3 300.2L273.2 334.4L318.4 424.7C322.4 432.6 319.1 442.2 311.2 446.2C303.3 450.2 293.7 446.9 289.7 439L247.9 355.4L224 375.3L224 431.8C224 440.6 216.8 447.8 208 447.8C199.2 447.8 192 440.6 192 431.8L192 207.8C192 199 199.2 191.8 208 191.8zM396.1 328.5C388.4 335.1 384 344.8 384 354.9L384 432C384 440.8 376.8 448 368 448C359.2 448 352 440.8 352 432L352 304C352 295.2 359.2 288 368 288C374.9 288 380.8 292.3 383 298.4C393.7 291.6 406.1 288 418.9 288L432 288C440.8 288 448 295.2 448 304C448 312.8 440.8 320 432 320L418.9 320C410.5 320 402.4 323 396.1 328.5z"/></svg>