<svg xmlns="http://www.w3.org/2000/svg" viewBox="0 0 640 640"><!--! Font Awesome Pro 7.1.0 by @fontawesome - https://fontawesome.com License - https://fontawesome.com/license (Commercial License) Copyright 2025 Fonticons, Inc. --><path fill="currentColor" d="M160 128C142.3 128 128 142.3 128 160L128 480C128 497.7 142.3 512 160 512L480 512C497.7 512 512 497.7 512 480L512 160C512 142.3 497.7 128 480 128L160 128zM96 160C96 124.7 124.7 96 160 96L480 96C515.3 96 544 124.7 544 160L544 480C544 515.3 515.3 544 480 544L160 544C124.7 544 96 515.3 96 480L96 160zM336 176L336 192.8C364.2 196 389.6 208.4 409.1 226.9C415.5 233 415.8 243.1 409.7 249.5C403.6 255.9 393.5 256.2 387.1 250.2C373.3 237.1 355.6 228.2 336 225.1L336 414.9C355.6 411.9 373.3 402.9 387.1 389.8C393.5 383.7 403.7 384 409.7 390.4C415.7 396.8 415.5 407 409.1 413C389.5 431.5 364.1 443.8 336 447.1L336 463.9C336 472.7 328.8 479.9 320 479.9C311.2 479.9 304 472.7 304 463.9L304 446.7C241.5 438.3 193.3 384.7 193.3 319.9C193.3 255.1 241.5 201.6 304 193.2L304 176C304 167.2 311.2 160 320 160C328.8 160 336 167.2 336 176zM225.3 320C225.3 367.1 259.3 406.3 304 414.5L304 225.6C259.2 233.7 225.3 272.9 225.3 320.1z"/></svg>