<svg xmlns="http://www.w3.org/2000/svg" viewBox="0 0 640 640"><!--! Font Awesome Pro 7.1.0 by @fontawesome - https://fontawesome.com License - https://fontawesome.com/license (Commercial License) Copyright 2025 Fonticons, Inc. --><path fill="currentColor" d="M184 96L192 96C200.8 96 208 103.2 208 112C208 120.8 200.8 128 192 128L184 128C153.1 128 128 153.1 128 184L128 192C128 200.8 120.8 208 112 208C103.2 208 96 200.8 96 192L96 184C96 135.4 135.4 96 184 96zM112 256C120.8 256 128 263.2 128 272L128 368C128 376.8 120.8 384 112 384C103.2 384 96 376.8 96 368L96 272C96 263.2 103.2 256 112 256zM528 256C536.8 256 544 263.2 544 272L544 368C544 376.8 536.8 384 528 384C519.2 384 512 376.8 512 368L512 272C512 263.2 519.2 256 528 256zM528 208C519.2 208 512 200.8 512 192L512 184C512 153.1 486.9 128 456 128L448 128C439.2 128 432 120.8 432 112C432 103.2 439.2 96 448 96L456 96C504.6 96 544 135.4 544 184L544 192C544 200.8 536.8 208 528 208zM544 448L544 456C544 504.6 504.6 544 456 544L448 544C439.2 544 432 536.8 432 528C432 519.2 439.2 512 448 512L456 512C486.9 512 512 486.9 512 456L512 448C512 439.2 519.2 432 528 432C536.8 432 544 439.2 544 448zM128 448L128 456C128 486.9 153.1 512 184 512L192 512C200.8 512 208 519.2 208 528C208 536.8 200.8 544 192 544L184 544C135.4 544 96 504.6 96 456L96 448C96 439.2 103.2 432 112 432C120.8 432 128 439.2 128 448zM272 544C263.2 544 256 536.8 256 528C256 519.2 263.2 512 272 512L368 512C376.8 512 384 519.2 384 528C384 536.8 376.8 544 368 544L272 544zM256 112C256 103.2 263.2 96 272 96L368 96C376.8 96 384 103.2 384 112C384 120.8 376.8 128 368 128L272 128C263.2 128 256 120.8 256 112z"/></svg>