<svg xmlns="http://www.w3.org/2000/svg" viewBox="0 0 640 640"><!--! Font Awesome Pro 7.1.0 by @fontawesome - https://fontawesome.com License - https://fontawesome.com/license (Commercial License) Copyright 2025 Fonticons, Inc. --><path fill="currentColor" d="M160 128C142.3 128 128 142.3 128 160L128 480C128 497.7 142.3 512 160 512L480 512C497.7 512 512 497.7 512 480L512 160C512 142.3 497.7 128 480 128L160 128zM96 160C96 124.7 124.7 96 160 96L480 96C515.3 96 544 124.7 544 160L544 480C544 515.3 515.3 544 480 544L160 544C124.7 544 96 515.3 96 480L96 160zM208 192L264 192C303.8 192 336 224.2 336 264C336 293.4 318.4 318.7 293.2 329.8L318.9 394C322.2 402.2 318.2 411.5 310 414.8C301.8 418.1 292.5 414.1 289.2 405.9L261.2 336L224 336L224 400C224 408.8 216.8 416 208 416C199.2 416 192 408.8 192 400L192 208C192 199.2 199.2 192 208 192zM264 304C286.1 304 304 286.1 304 264C304 241.9 286.1 224 264 224L224 224L224 304L264 304zM352 304C352 295.2 359.2 288 368 288L408 288C438.9 288 464 313.1 464 344C464 374.9 438.9 400 408 400L384 400L384 448C384 456.8 376.8 464 368 464C359.2 464 352 456.8 352 448L352 304zM384 368L408 368C421.3 368 432 357.3 432 344C432 330.7 421.3 320 408 320L384 320L384 368z"/></svg>