<svg xmlns="http://www.w3.org/2000/svg" viewBox="0 0 640 640"><!--! Font Awesome Pro 7.1.0 by @fontawesome - https://fontawesome.com License - https://fontawesome.com/license (Commercial License) Copyright 2025 Fonticons, Inc. --><path fill="currentColor" d="M160 128C142.3 128 128 142.3 128 160L128 480C128 497.7 142.3 512 160 512L480 512C497.7 512 512 497.7 512 480L512 160C512 142.3 497.7 128 480 128L160 128zM96 160C96 124.7 124.7 96 160 96L480 96C515.3 96 544 124.7 544 160L544 480C544 515.3 515.3 544 480 544L160 544C124.7 544 96 515.3 96 480L96 160zM272 224L336 224C371.3 224 400 252.7 400 288C400 313.5 385 335.6 363.4 345.9L396.8 390.4C402.1 397.5 400.7 407.5 393.6 412.8C386.5 418.1 376.5 416.7 371.2 409.6L328 352L288 352L288 400C288 408.8 280.8 416 272 416C263.2 416 256 408.8 256 400L256 240C256 231.2 263.2 224 272 224zM336 320C353.7 320 368 305.7 368 288C368 270.3 353.7 256 336 256L288 256L288 320L336 320z"/></svg>