<svg xmlns="http://www.w3.org/2000/svg" viewBox="0 0 640 640"><!--! Font Awesome Pro 7.1.0 by @fontawesome - https://fontawesome.com License - https://fontawesome.com/license (Commercial License) Copyright 2025 Fonticons, Inc. --><path fill="currentColor" d="M160 128C142.3 128 128 142.3 128 160L128 480C128 497.7 142.3 512 160 512L480 512C497.7 512 512 497.7 512 480L512 160C512 142.3 497.7 128 480 128L160 128zM96 160C96 124.7 124.7 96 160 96L480 96C515.3 96 544 124.7 544 160L544 480C544 515.3 515.3 544 480 544L160 544C124.7 544 96 515.3 96 480L96 160zM252.3 229.8L320 311L387.7 229.8C393.4 223 403.4 222.1 410.2 227.8C417 233.5 417.9 243.5 412.2 250.3L336 341.8L336 400C336 408.8 328.8 416 320 416C311.2 416 304 408.8 304 400L304 341.8L227.7 250.3C222 243.5 223 233.4 229.7 227.8C236.4 222.2 246.6 223.1 252.2 229.8z"/></svg>