<svg xmlns="http://www.w3.org/2000/svg" viewBox="0 0 640 640"><!--! Font Awesome Pro 7.1.0 by @fontawesome - https://fontawesome.com License - https://fontawesome.com/license (Commercial License) Copyright 2025 Fonticons, Inc. --><path fill="currentColor" d="M160 128C142.3 128 128 142.3 128 160L128 480C128 497.7 142.3 512 160 512L480 512C497.7 512 512 497.7 512 480L512 160C512 142.3 497.7 128 480 128L160 128zM96 160C96 124.7 124.7 96 160 96L480 96C515.3 96 544 124.7 544 160L544 480C544 515.3 515.3 544 480 544L160 544C124.7 544 96 515.3 96 480L96 160zM272 192C280.8 192 288 199.2 288 208L288 265.8L362.9 240.8C371.3 238 380.3 242.5 383.1 250.9C385.9 259.3 381.4 268.3 373 271.1L287.9 299.5L287.9 329.8L362.8 304.8C371.2 302 380.2 306.5 383 314.9C385.8 323.3 381.3 332.3 372.9 335.1L287.8 363.5L287.8 416L335.8 416C371.1 416 399.8 387.3 399.8 352C399.8 343.2 407 336 415.8 336C424.6 336 431.8 343.2 431.8 352C431.8 405 388.8 448 335.8 448L271.8 448C263 448 255.8 440.8 255.8 432L255.8 374.2L228.9 383.2C220.5 386 211.5 381.5 208.7 373.1C205.9 364.7 210.4 355.7 218.8 352.9L255.9 340.5L255.9 310.2L229 319.2C220.6 322 211.6 317.5 208.8 309.1C206 300.7 210.5 291.7 218.9 288.9L256 276.5L256 208C256 199.2 263.2 192 272 192z"/></svg>