<svg xmlns="http://www.w3.org/2000/svg" viewBox="0 0 640 640"><!--! Font Awesome Pro 7.1.0 by @fontawesome - https://fontawesome.com License - https://fontawesome.com/license (Commercial License) Copyright 2025 Fonticons, Inc. --><path fill="currentColor" d="M160 128C142.3 128 128 142.3 128 160L128 480C128 497.7 142.3 512 160 512L480 512C497.7 512 512 497.7 512 480L512 160C512 142.3 497.7 128 480 128L160 128zM96 160C96 124.7 124.7 96 160 96L480 96C515.3 96 544 124.7 544 160L544 480C544 515.3 515.3 544 480 544L160 544C124.7 544 96 515.3 96 480L96 160zM280 400C280 391.2 287.2 384 296 384L328 384C345.7 384 360 369.7 360 352L360 343.4C350.6 348.8 339.7 352 328 352L312 352C276.7 352 248 323.3 248 288C248 252.7 276.7 224 312 224L328 224C363.3 224 392 252.7 392 288L392 352C392 387.3 363.3 416 328 416L296 416C287.2 416 280 408.8 280 400zM328 256L312 256C294.3 256 280 270.3 280 288C280 305.7 294.3 320 312 320L328 320C345.7 320 360 305.7 360 288C360 270.3 345.7 256 328 256z"/></svg>