<svg xmlns="http://www.w3.org/2000/svg" viewBox="0 0 640 640"><!--! Font Awesome Pro 7.1.0 by @fontawesome - https://fontawesome.com License - https://fontawesome.com/license (Commercial License) Copyright 2025 Fonticons, Inc. --><path fill="currentColor" d="M152 96L160 96C168.8 96 176 103.2 176 112C176 120.8 168.8 128 160 128L152 128C121.1 128 96 153.1 96 184L96 192C96 200.8 88.8 208 80 208C71.2 208 64 200.8 64 192L64 184C64 135.4 103.4 96 152 96zM80 256C88.8 256 96 263.2 96 272L96 368C96 376.8 88.8 384 80 384C71.2 384 64 376.8 64 368L64 272C64 263.2 71.2 256 80 256zM96 448L96 456C96 486.9 121.1 512 152 512L278 512C280.9 523.1 284.7 533.8 289.4 544L152 544C103.4 544 64 504.6 64 456L64 448C64 439.2 71.2 432 80 432C88.8 432 96 439.2 96 448zM512 184L512 278C501.6 275.3 491 273.5 480 272.6L480 183.9C480 153 454.9 127.9 424 127.9L416 127.9C407.2 127.9 400 120.7 400 111.9C400 103.1 407.2 95.9 416 95.9L424 95.9C472.6 95.9 512 135.3 512 183.9zM352 112C352 120.8 344.8 128 336 128L240 128C231.2 128 224 120.8 224 112C224 103.2 231.2 96 240 96L336 96C344.8 96 352 103.2 352 112zM576 464C576 402.1 525.9 352 464 352C402.1 352 352 402.1 352 464C352 525.9 402.1 576 464 576C525.9 576 576 525.9 576 464zM320 464C320 384.5 384.5 320 464 320C543.5 320 608 384.5 608 464C608 543.5 543.5 608 464 608C384.5 608 320 543.5 320 464zM480 400L480 448L528 448C536.8 448 544 455.2 544 464C544 472.8 536.8 480 528 480L480 480L480 528C480 536.8 472.8 544 464 544C455.2 544 448 536.8 448 528L448 480L400 480C391.2 480 384 472.8 384 464C384 455.2 391.2 448 400 448L448 448L448 400C448 391.2 455.2 384 464 384C472.8 384 480 391.2 480 400z"/></svg>