<svg xmlns="http://www.w3.org/2000/svg" viewBox="0 0 640 640"><!--! Font Awesome Pro 7.1.0 by @fontawesome - https://fontawesome.com License - https://fontawesome.com/license (Commercial License) Copyright 2025 Fonticons, Inc. --><path fill="currentColor" d="M160 128C142.3 128 128 142.3 128 160L128 480C128 497.7 142.3 512 160 512L480 512C497.7 512 512 497.7 512 480L512 160C512 142.3 497.7 128 480 128L160 128zM96 160C96 124.7 124.7 96 160 96L480 96C515.3 96 544 124.7 544 160L544 480C544 515.3 515.3 544 480 544L160 544C124.7 544 96 515.3 96 480L96 160zM208 208L264 208C303.8 208 336 240.2 336 280C336 309.4 318.4 334.7 293.2 345.8L318.9 410C322.2 418.2 318.2 427.5 310 430.8C301.8 434.1 292.5 430.1 289.2 421.9L261.2 352L224 352L224 416C224 424.8 216.8 432 208 432C199.2 432 192 424.8 192 416L192 224C192 215.2 199.2 208 208 208zM264 320C286.1 320 304 302.1 304 280C304 257.9 286.1 240 264 240L224 240L224 320L264 320zM352 307.2C352 278.9 374.9 256 403.2 256L440 256C448.8 256 456 263.2 456 272C456 280.8 448.8 288 440 288L403.2 288C392.6 288 384 296.6 384 307.2C384 316.3 390.4 324.2 399.4 326L422.9 330.7C446.8 335.5 464 356.5 464 380.9C464 409.2 441.1 432.1 412.8 432.1L376 432C367.2 432 360 424.8 360 416C360 407.2 367.2 400 376 400L412.8 400C423.4 400 432 391.4 432 380.8C432 371.7 425.6 363.8 416.6 362L393.1 357.3C369.2 352.5 352 331.5 352 307.1z"/></svg>