<svg xmlns="http://www.w3.org/2000/svg" viewBox="0 0 640 640"><!--! Font Awesome Pro 7.1.0 by @fontawesome - https://fontawesome.com License - https://fontawesome.com/license (Commercial License) Copyright 2025 Fonticons, Inc. --><path fill="currentColor" d="M160 128C142.3 128 128 142.3 128 160L128 480C128 497.7 142.3 512 160 512L480 512C497.7 512 512 497.7 512 480L512 160C512 142.3 497.7 128 480 128L160 128zM96 160C96 124.7 124.7 96 160 96L480 96C515.3 96 544 124.7 544 160L544 480C544 515.3 515.3 544 480 544L160 544C124.7 544 96 515.3 96 480L96 160zM394.5 252L326.2 311.8L395.9 389.2C401.8 395.8 401.3 405.9 394.7 411.8C388.1 417.7 378 417.2 372.1 410.6L302.1 332.8L272 359.1L272 399.8C272 408.6 264.8 415.8 256 415.8C247.2 415.8 240 408.6 240 399.8L240 239.8C240 231 247.2 223.8 256 223.8C264.8 223.8 272 231 272 239.8L272 316.5L373.5 227.7C380.2 221.9 390.3 222.6 396.1 229.2C401.9 235.8 401.2 246 394.6 251.8z"/></svg>