<svg xmlns="http://www.w3.org/2000/svg" viewBox="0 0 640 640"><!--! Font Awesome Pro 7.1.0 by @fontawesome - https://fontawesome.com License - https://fontawesome.com/license (Commercial License) Copyright 2025 Fonticons, Inc. --><path fill="currentColor" d="M160 128C142.3 128 128 142.3 128 160L128 480C128 497.7 142.3 512 160 512L480 512C497.7 512 512 497.7 512 480L512 160C512 142.3 497.7 128 480 128L160 128zM96 160C96 124.7 124.7 96 160 96L480 96C515.3 96 544 124.7 544 160L544 480C544 515.3 515.3 544 480 544L160 544C124.7 544 96 515.3 96 480L96 160zM352 176C352 167.2 359.2 160 368 160C376.8 160 384 167.2 384 176L384 192L400 192C408.8 192 416 199.2 416 208C416 216.8 408.8 224 400 224L384 224L384 400C384 408.8 376.8 416 368 416C359.2 416 352 408.8 352 400C338.6 410 322 416 304 416C259.8 416 224 380.2 224 336C224 291.8 259.8 256 304 256C322 256 338.6 262 352 272L352 224L304 224C295.2 224 288 216.8 288 208C288 199.2 295.2 192 304 192L352 192L352 176zM304 288C277.5 288 256 309.5 256 336C256 362.5 277.5 384 304 384C330.5 384 352 362.5 352 336C352 309.5 330.5 288 304 288zM208 464C208 455.2 215.2 448 224 448L416 448C424.8 448 432 455.2 432 464C432 472.8 424.8 480 416 480L224 480C215.2 480 208 472.8 208 464z"/></svg>