<svg xmlns="http://www.w3.org/2000/svg" viewBox="0 0 640 640"><!--! Font Awesome Pro 7.1.0 by @fontawesome - https://fontawesome.com License - https://fontawesome.com/license (Commercial License) Copyright 2025 Fonticons, Inc. --><path fill="currentColor" d="M160 128C142.3 128 128 142.3 128 160L128 480C128 497.7 142.3 512 160 512L480 512C497.7 512 512 497.7 512 480L512 160C512 142.3 497.7 128 480 128L160 128zM96 160C96 124.7 124.7 96 160 96L480 96C515.3 96 544 124.7 544 160L544 480C544 515.3 515.3 544 480 544L160 544C124.7 544 96 515.3 96 480L96 160zM224 192L416 192C424.8 192 432 199.2 432 208C432 216.8 424.8 224 416 224L224 224C215.2 224 208 216.8 208 208C208 199.2 215.2 192 224 192zM224 256L416 256C424.8 256 432 263.2 432 272C432 280.8 424.8 288 416 288L336 288L336 432C336 440.8 328.8 448 320 448C311.2 448 304 440.8 304 432L304 288L224 288C215.2 288 208 280.8 208 272C208 263.2 215.2 256 224 256z"/></svg>