<svg xmlns="http://www.w3.org/2000/svg" viewBox="0 0 640 640"><!--! Font Awesome Pro 7.1.0 by @fontawesome - https://fontawesome.com License - https://fontawesome.com/license (Commercial License) Copyright 2025 Fonticons, Inc. --><path fill="currentColor" d="M480 128C497.7 128 512 142.3 512 160L512 480C512 497.7 497.7 512 480 512L160 512C142.3 512 128 497.7 128 480L128 160C128 142.3 142.3 128 160 128L480 128zM160 96C124.7 96 96 124.7 96 160L96 480C96 515.3 124.7 544 160 544L480 544C515.3 544 544 515.3 544 480L544 160C544 124.7 515.3 96 480 96L160 96zM240 192C231.2 192 224 199.2 224 208L224 256L200 256C191.2 256 184 263.2 184 272C184 280.8 191.2 288 200 288L224 288L224 432C224 440.8 231.2 448 240 448C248.8 448 256 440.8 256 432L256 288L280 288C288.8 288 296 280.8 296 272C296 263.2 288.8 256 280 256L256 256L256 208C256 199.2 248.8 192 240 192zM400 192C391.2 192 384 199.2 384 208L384 352L360 352C351.2 352 344 359.2 344 368C344 376.8 351.2 384 360 384L384 384L384 432C384 440.8 391.2 448 400 448C408.8 448 416 440.8 416 432L416 384L440 384C448.8 384 456 376.8 456 368C456 359.2 448.8 352 440 352L416 352L416 208C416 199.2 408.8 192 400 192z"/></svg>