<svg xmlns="http://www.w3.org/2000/svg" viewBox="0 0 640 640"><!--! Font Awesome Pro 7.1.0 by @fontawesome - https://fontawesome.com License - https://fontawesome.com/license (Commercial License) Copyright 2025 Fonticons, Inc. --><path fill="currentColor" d="M160 128C142.3 128 128 142.3 128 160L128 480C128 497.7 142.3 512 160 512L480 512C497.7 512 512 497.7 512 480L512 160C512 142.3 497.7 128 480 128L160 128zM96 160C96 124.7 124.7 96 160 96L480 96C515.3 96 544 124.7 544 160L544 480C544 515.3 515.3 544 480 544L160 544C124.7 544 96 515.3 96 480L96 160zM272 224L328 224C367.8 224 400 256.2 400 296C400 335.8 367.8 368 328 368L288 368L288 400C288 408.8 280.8 416 272 416C263.2 416 256 408.8 256 400L256 240C256 231.2 263.2 224 272 224zM328 336C350.1 336 368 318.1 368 296C368 273.9 350.1 256 328 256L288 256L288 336L328 336z"/></svg>