<svg xmlns="http://www.w3.org/2000/svg" viewBox="0 0 640 640"><!--! Font Awesome Pro 7.1.0 by @fontawesome - https://fontawesome.com License - https://fontawesome.com/license (Commercial License) Copyright 2025 Fonticons, Inc. --><path fill="currentColor" d="M160 128C142.3 128 128 142.3 128 160L128 480C128 497.7 142.3 512 160 512L480 512C497.7 512 512 497.7 512 480L512 160C512 142.3 497.7 128 480 128L160 128zM96 160C96 124.7 124.7 96 160 96L480 96C515.3 96 544 124.7 544 160L544 480C544 515.3 515.3 544 480 544L160 544C124.7 544 96 515.3 96 480L96 160zM239.5 236.1L266.5 344.2L304.8 234.7C307 228.3 313.1 224 319.9 224C326.7 224 332.8 228.3 335 234.7L373.3 344.2L400.3 236.1C402.4 227.5 411.1 222.3 419.7 224.5C428.3 226.7 433.5 235.3 431.3 243.9L391.3 403.9C389.6 410.8 383.6 415.7 376.5 416C369.4 416.3 363 412 360.7 405.3L320 288.4L279.1 405.3C276.8 412 270.3 416.3 263.3 416C256.3 415.7 250.2 410.8 248.5 403.9L208.5 243.9C206.4 235.3 211.6 226.6 220.1 224.5C228.6 222.4 237.4 227.6 239.5 236.1z"/></svg>