<svg xmlns="http://www.w3.org/2000/svg" viewBox="0 0 640 640"><!--! Font Awesome Pro 7.1.0 by @fontawesome - https://fontawesome.com License - https://fontawesome.com/license (Commercial License) Copyright 2025 Fonticons, Inc. --><path fill="currentColor" d="M160 128C142.3 128 128 142.3 128 160L128 480C128 497.7 142.3 512 160 512L480 512C497.7 512 512 497.7 512 480L512 160C512 142.3 497.7 128 480 128L160 128zM96 160C96 124.7 124.7 96 160 96L480 96C515.3 96 544 124.7 544 160L544 480C544 515.3 515.3 544 480 544L160 544C124.7 544 96 515.3 96 480L96 160zM224 208L304 208C339.3 208 368 236.7 368 272L368 336C368 344.8 360.8 352 352 352C343.2 352 336 344.8 336 336L336 272C336 254.3 321.7 240 304 240L240 240L240 416C240 424.8 232.8 432 224 432C215.2 432 208 424.8 208 416L208 224C208 215.2 215.2 208 224 208zM432 224L432 368C432 403.3 403.3 432 368 432L288 432C283.8 432 279.7 430.3 276.7 427.3C273.7 424.3 272 420.2 272 416L272 304C272 295.2 279.2 288 288 288C296.8 288 304 295.2 304 304L304 400L368 400C385.7 400 400 385.7 400 368L400 224C400 215.2 407.2 208 416 208C424.8 208 432 215.2 432 224z"/></svg>