<svg xmlns="http://www.w3.org/2000/svg" viewBox="0 0 640 640"><!--! Font Awesome Pro 7.1.0 by @fontawesome - https://fontawesome.com License - https://fontawesome.com/license (Commercial License) Copyright 2025 Fonticons, Inc. --><path fill="currentColor" d="M160 128C142.3 128 128 142.3 128 160L128 480C128 497.7 142.3 512 160 512L480 512C497.7 512 512 497.7 512 480L512 160C512 142.3 497.7 128 480 128L160 128zM96 160C96 124.7 124.7 96 160 96L480 96C515.3 96 544 124.7 544 160L544 480C544 515.3 515.3 544 480 544L160 544C124.7 544 96 515.3 96 480L96 160zM359.9 192L392.9 192C401.7 192 408.9 199.2 408.9 208C408.9 216.8 401.7 224 392.9 224L359.9 224C324.2 224 293.1 243.3 276.3 272L336 272C344.8 272 352 279.2 352 288C352 296.8 344.8 304 336 304L264.6 304C263.6 309.4 263.2 315 263.2 320.8C263.2 326 263.6 331.1 264.4 336L336.1 336C344.9 336 352.1 343.2 352.1 352C352.1 360.8 344.9 368 336.1 368L275.5 368C292.1 397.5 323.7 417.5 360 417.5L393 417.5C401.8 417.5 409 424.7 409 433.5C409 442.3 401.8 449.5 393 449.5L360 449.5C305.6 449.5 259 415.7 240.2 368L216 368C207.2 368 200 360.8 200 352C200 343.2 207.2 336 216 336L232 336C231.4 331 231.1 325.9 231.1 320.8C231.1 315.1 231.5 309.5 232.2 304L216 304C207.2 304 200 296.8 200 288C200 279.2 207.2 272 216 272L240.7 272C259.9 225.1 306.1 192 359.9 192z"/></svg>