<svg xmlns="http://www.w3.org/2000/svg" viewBox="0 0 640 640"><!--! Font Awesome Pro 7.1.0 by @fontawesome - https://fontawesome.com License - https://fontawesome.com/license (Commercial License) Copyright 2025 Fonticons, Inc. --><path fill="currentColor" d="M160 128C142.3 128 128 142.3 128 160L128 480C128 497.7 142.3 512 160 512L480 512C497.7 512 512 497.7 512 480L512 160C512 142.3 497.7 128 480 128L160 128zM96 160C96 124.7 124.7 96 160 96L480 96C515.3 96 544 124.7 544 160L544 480C544 515.3 515.3 544 480 544L160 544C124.7 544 96 515.3 96 480L96 160zM192 224L242.7 224C278 224 306.7 252.7 306.7 288C306.7 315.8 288.9 339.5 264.1 348.3L286.4 392.8C290.4 400.7 287.1 410.3 279.2 414.3C271.3 418.3 261.7 415 257.7 407.1L230.1 351.9L208 351.9L208 399.9C208 408.7 200.8 415.9 192 415.9C183.2 415.9 176 408.7 176 399.9L176 239.9C176 231.1 183.2 223.9 192 223.9zM242.7 320C260.4 320 274.7 305.7 274.7 288C274.7 270.3 260.4 256 242.7 256L208 256L208 320L242.7 320zM336 416C327.2 416 320 408.8 320 400L320 240C320 233.2 324.3 227.2 330.7 224.9C337.1 222.6 344.2 224.7 348.5 230L400 294.4L451.5 230C455.7 224.7 462.9 222.6 469.3 224.9C475.7 227.2 480 233.2 480 240L480 400C480 408.8 472.8 416 464 416C455.2 416 448 408.8 448 400L448 285.6L412.5 330C409.5 333.8 404.9 336 400 336C395.1 336 390.5 333.8 387.5 330L352 285.6L352 400C352 408.8 344.8 416 336 416z"/></svg>