<svg xmlns="http://www.w3.org/2000/svg" viewBox="0 0 640 640"><!--! Font Awesome Pro 7.1.0 by @fontawesome - https://fontawesome.com License - https://fontawesome.com/license (Commercial License) Copyright 2025 Fonticons, Inc. --><path fill="currentColor" d="M160 128C142.3 128 128 142.3 128 160L128 480C128 497.7 142.3 512 160 512L480 512C497.7 512 512 497.7 512 480L512 160C512 142.3 497.7 128 480 128L160 128zM96 160C96 124.7 124.7 96 160 96L480 96C515.3 96 544 124.7 544 160L544 480C544 515.3 515.3 544 480 544L160 544C124.7 544 96 515.3 96 480L96 160zM240 192L240 272C240 316.2 275.8 352 320 352C364.2 352 400 316.2 400 272L400 192L326.6 192L347.3 212.7C350.7 216.1 352.4 220.8 351.9 225.6C351.4 230.4 348.8 234.7 344.9 237.3L314.7 257.4L346.2 283.7C353 289.4 353.9 299.4 348.2 306.2C342.5 313 332.5 313.9 325.7 308.2L277.7 268.2C273.8 265 271.7 260.1 272 255.1C272.3 250.1 274.9 245.4 279.1 242.6L310.9 221.4L281.4 191.9L240 191.9zM238.9 160L401.1 160C418.2 160 432 173.8 432 190.9L432 272C432 328.4 390.3 375.1 336 382.9L336 448L368 448C376.8 448 384 455.2 384 464C384 472.8 376.8 480 368 480L272 480C263.2 480 256 472.8 256 464C256 455.2 263.2 448 272 448L304 448L304 382.9C249.7 375.1 208 328.5 208 272L208 190.9C208 173.8 221.8 160 238.9 160z"/></svg>