<svg xmlns="http://www.w3.org/2000/svg" viewBox="0 0 640 640"><!--! Font Awesome Pro 7.1.0 by @fontawesome - https://fontawesome.com License - https://fontawesome.com/license (Commercial License) Copyright 2025 Fonticons, Inc. --><path fill="currentColor" d="M160 128C142.3 128 128 142.3 128 160L128 480C128 497.7 142.3 512 160 512L480 512C497.7 512 512 497.7 512 480L512 160C512 142.3 497.7 128 480 128L160 128zM96 160C96 124.7 124.7 96 160 96L480 96C515.3 96 544 124.7 544 160L544 480C544 515.3 515.3 544 480 544L160 544C124.7 544 96 515.3 96 480L96 160zM336 304C349.3 304 360 293.3 360 280C360 266.7 349.3 256 336 256L264 256C255.2 256 248 248.8 248 240C248 231.2 255.2 224 264 224L336 224C366.9 224 392 249.1 392 280C392 295.7 385.6 309.8 375.2 320C385.6 330.2 392 344.3 392 360C392 390.9 366.9 416 336 416L264 416C255.2 416 248 408.8 248 400C248 391.2 255.2 384 264 384L336 384C349.3 384 360 373.3 360 360C360 346.7 349.3 336 336 336L280 336C271.2 336 264 328.8 264 320C264 311.2 271.2 304 280 304L336 304z"/></svg>