<svg xmlns="http://www.w3.org/2000/svg" viewBox="0 0 640 640"><!--! Font Awesome Pro 7.1.0 by @fontawesome - https://fontawesome.com License - https://fontawesome.com/license (Commercial License) Copyright 2025 Fonticons, Inc. --><path fill="currentColor" d="M151.7 129.1L320 297.4L488.3 129.1C485.7 128.4 482.9 128 480 128L160 128C157.1 128 154.4 128.4 151.7 129.1zM129.1 151.7C128.4 154.4 128 157.1 128 160L128 480C128 482.9 128.4 485.6 129.1 488.3L297.4 320L129.1 151.7zM151.7 510.9C154.3 511.6 157.1 512 160 512L480 512C482.9 512 485.6 511.6 488.3 510.9L320 342.6L151.7 510.9zM510.9 488.3C511.6 485.7 512 482.9 512 480L512 160C512 157.1 511.6 154.4 510.9 151.7L342.6 320L510.9 488.3zM96 160C96 124.7 124.7 96 160 96L480 96C515.3 96 544 124.7 544 160L544 480C544 515.3 515.3 544 480 544L160 544C124.7 544 96 515.3 96 480L96 160z"/></svg>