<svg xmlns="http://www.w3.org/2000/svg" viewBox="0 0 640 640"><!--! Font Awesome Pro 7.1.0 by @fontawesome - https://fontawesome.com License - https://fontawesome.com/license (Commercial License) Copyright 2025 Fonticons, Inc. --><path fill="currentColor" d="M160 128C142.3 128 128 142.3 128 160L128 480C128 497.7 142.3 512 160 512L480 512C497.7 512 512 497.7 512 480L512 160C512 142.3 497.7 128 480 128L160 128zM96 160C96 124.7 124.7 96 160 96L480 96C515.3 96 544 124.7 544 160L544 480C544 515.3 515.3 544 480 544L160 544C124.7 544 96 515.3 96 480L96 160zM320 184L320 192.1C321.4 192.1 322.7 192 324.1 192C328.1 192 332.1 192.2 336 192.5L336 184C336 175.2 343.2 168 352 168C360.8 168 368 175.2 368 184L368 199.7C409.3 214.8 440.6 250.5 449.6 294.4C451.4 303.1 445.8 311.5 437.1 313.3C428.4 315.1 420 309.5 418.2 300.8C412.3 271.9 393.5 247.7 368 234.6L368 280C368 288.8 360.8 296 352 296C343.2 296 336 288.8 336 280L336 224.7C332.1 224.2 328.1 224 324.1 224C322.7 224 321.3 224 320 224.1L320 280C320 288.8 312.8 296 304 296C295.2 296 288 288.8 288 280L288 231C252.9 245.3 228.1 279.7 228.1 320C228.1 373 271.1 416 324.1 416L416 416C424.8 416 432 423.2 432 432C432 440.8 424.8 448 416 448L224 448C215.2 448 208 440.8 208 432C208 423.2 215.2 416 224 416L239.5 416C212.9 392.5 196.2 358.2 196.2 320C196.2 261.9 235 212.8 288.1 197.2L288.1 184C288.1 175.2 295.3 168 304.1 168C312.9 168 320.1 175.2 320.1 184z"/></svg>