<svg xmlns="http://www.w3.org/2000/svg" viewBox="0 0 640 640"><!--! Font Awesome Pro 7.1.0 by @fontawesome - https://fontawesome.com License - https://fontawesome.com/license (Commercial License) Copyright 2025 Fonticons, Inc. --><path fill="currentColor" d="M59.3 36.8C53.1 30.6 42.9 30.6 36.7 36.8C30.5 43 30.5 53.2 36.7 59.4L580.7 603.4C586.9 609.6 597.1 609.6 603.3 603.4C609.5 597.2 609.5 587 603.3 580.8L535.1 512.6C540.8 503.1 544 491.9 544 480L544 160C544 124.7 515.3 96 480 96L160 96C148.1 96 137 99.2 127.4 104.9L59.3 36.8zM151.6 129.1C154.3 128.4 157.1 128 160 128L480 128C497.7 128 512 142.3 512 160L512 480C512 482.9 511.6 485.7 510.9 488.4L390 367.4C415.4 350.1 432 321 432 288C432 235 389 192 336 192L248 192C238.9 192 231.1 197 227 204.4L151.6 129.1zM366.7 344.2L256 233.5L256 224L336 224C371.3 224 400 252.7 400 288C400 312.2 386.5 333.3 366.7 344.2zM96 480C96 515.3 124.7 544 160 544L453.5 544L421.5 512L160 512C142.3 512 128 497.7 128 480L128 218.5L96 186.5L96 480zM224 368L224 432C224 440.8 231.2 448 240 448C248.8 448 256 440.8 256 432L256 384L293.5 384L261.5 352L256 352L256 346.5L224 314.5L224 368z"/></svg>