<svg xmlns="http://www.w3.org/2000/svg" viewBox="0 0 640 640"><!--! Font Awesome Pro 7.1.0 by @fontawesome - https://fontawesome.com License - https://fontawesome.com/license (Commercial License) Copyright 2025 Fonticons, Inc. --><path fill="currentColor" d="M160 128C142.3 128 128 142.3 128 160L128 480C128 497.7 142.3 512 160 512L480 512C497.7 512 512 497.7 512 480L512 160C512 142.3 497.7 128 480 128L160 128zM96 160C96 124.7 124.7 96 160 96L480 96C515.3 96 544 124.7 544 160L544 480C544 515.3 515.3 544 480 544L160 544C124.7 544 96 515.3 96 480L96 160zM256 240C256 231.2 263.2 224 272 224L328 224C358.9 224 384 249.1 384 280C384 292.1 380.2 303.3 373.6 312.5C389.4 322.4 400 340 400 360C400 390.9 374.9 416 344 416L272 416C263.2 416 256 408.8 256 400L256 240zM352 280C352 266.7 341.3 256 328 256L288 256L288 304L328 304C341.3 304 352 293.3 352 280zM288 384L344 384C357.3 384 368 373.3 368 360C368 346.7 357.3 336 344 336L288 336L288 384z"/></svg>