<svg xmlns="http://www.w3.org/2000/svg" viewBox="0 0 640 640"><!--! Font Awesome Pro 7.1.0 by @fontawesome - https://fontawesome.com License - https://fontawesome.com/license (Commercial License) Copyright 2025 Fonticons, Inc. --><path fill="currentColor" d="M480 128C497.7 128 512 142.3 512 160L512 480C512 497.7 497.7 512 480 512L160 512C142.3 512 128 497.7 128 480L128 160C128 142.3 142.3 128 160 128L480 128zM160 96C124.7 96 96 124.7 96 160L96 480C96 515.3 124.7 544 160 544L480 544C515.3 544 544 515.3 544 480L544 160C544 124.7 515.3 96 480 96L160 96zM304 350.4L304 264C304 241.9 286.1 224 264 224L232 224C209.9 224 192 241.9 192 264L192 296C192 318.1 209.9 336 232 336L264 336C266.7 336 269.4 335.7 272 335.2L272 350.4C272 366.3 260.3 379.8 244.5 382.1L229.7 384.2C221 385.5 214.9 393.6 216.1 402.3C217.3 411 225.5 417.1 234.2 415.9L249 413.8C280.5 409.3 303.9 382.3 303.9 350.4zM272 296C272 300.4 268.4 304 264 304L232 304C227.6 304 224 300.4 224 296L224 264C224 259.6 227.6 256 232 256L264 256C268.4 256 272 259.6 272 264L272 296zM448 296L448 264C448 241.9 430.1 224 408 224L376 224C353.9 224 336 241.9 336 264L336 296C336 318.1 353.9 336 376 336L408 336C410.7 336 413.4 335.7 416 335.2L416 350.4C416 366.3 404.3 379.8 388.5 382.1L373.7 384.2C365 385.5 358.9 393.6 360.1 402.3C361.3 411 369.5 417.1 378.2 415.9L393 413.8C424.5 409.3 448 382.3 448 350.4L448 296zM416 280L416 296C416 300.4 412.4 304 408 304L376 304C371.6 304 368 300.4 368 296L368 264C368 259.6 371.6 256 376 256L408 256C412.4 256 416 259.6 416 264L416 280z"/></svg>