<svg xmlns="http://www.w3.org/2000/svg" viewBox="0 0 640 640"><!--! Font Awesome Pro 7.1.0 by @fontawesome - https://fontawesome.com License - https://fontawesome.com/license (Commercial License) Copyright 2025 Fonticons, Inc. --><path fill="currentColor" d="M160 128C142.3 128 128 142.3 128 160L128 480C128 497.7 142.3 512 160 512L480 512C497.7 512 512 497.7 512 480L512 160C512 142.3 497.7 128 480 128L160 128zM96 160C96 124.7 124.7 96 160 96L480 96C515.3 96 544 124.7 544 160L544 480C544 515.3 515.3 544 480 544L160 544C124.7 544 96 515.3 96 480L96 160zM304 184C304 175.2 311.2 168 320 168C328.8 168 336 175.2 336 184L336 201.1C362.3 204.6 386 216.7 404 234.3C410.3 240.5 410.4 250.6 404.2 256.9C398 263.2 387.9 263.3 381.6 257.1C369.3 245.1 353.6 236.6 336 233.4L336 304L424 304C432.8 304 440 311.2 440 320C440 380.8 394.7 431.1 336 438.9L336 456C336 464.8 328.8 472 320 472C311.2 472 304 464.8 304 456L304 438.9C245.3 431.1 200 380.8 200 320C200 259.2 245.3 208.9 304 201.1L304 184zM232 320C232 363.1 263 399 304 406.6L304 233.5C263 241 232 276.9 232 320zM406.5 336L335.9 336L335.9 406.6C371.7 400 399.9 371.8 406.5 336z"/></svg>