<svg xmlns="http://www.w3.org/2000/svg" viewBox="0 0 640 640"><!--! Font Awesome Pro 7.1.0 by @fontawesome - https://fontawesome.com License - https://fontawesome.com/license (Commercial License) Copyright 2025 Fonticons, Inc. --><path fill="currentColor" d="M480 128C497.7 128 512 142.3 512 160L512 480C512 497.7 497.7 512 480 512L160 512C142.3 512 128 497.7 128 480L128 160C128 142.3 142.3 128 160 128L480 128zM160 96C124.7 96 96 124.7 96 160L96 480C96 515.3 124.7 544 160 544L480 544C515.3 544 544 515.3 544 480L544 160C544 124.7 515.3 96 480 96L160 96zM288 432C288 440.8 295.2 448 304 448L432 448C440.8 448 448 440.8 448 432C448 423.2 440.8 416 432 416L304 416C295.2 416 288 423.2 288 432zM219.3 212.7C213.1 206.5 202.9 206.5 196.7 212.7C190.5 218.9 190.5 229.1 196.7 235.3L281.4 320L196.7 404.7C190.5 410.9 190.5 421.1 196.7 427.3C202.9 433.5 213.1 433.5 219.3 427.3L315.3 331.3C321.5 325.1 321.5 314.9 315.3 308.7L219.3 212.7z"/></svg>