<svg xmlns="http://www.w3.org/2000/svg" viewBox="0 0 640 640"><!--! Font Awesome Pro 7.1.0 by @fontawesome - https://fontawesome.com License - https://fontawesome.com/license (Commercial License) Copyright 2025 Fonticons, Inc. --><path fill="currentColor" d="M480 128C497.7 128 512 142.3 512 160L512 480C512 497.7 497.7 512 480 512L160 512C142.3 512 128 497.7 128 480L128 160C128 142.3 142.3 128 160 128L480 128zM160 96C124.7 96 96 124.7 96 160L96 480C96 515.3 124.7 544 160 544L480 544C515.3 544 544 515.3 544 480L544 160C544 124.7 515.3 96 480 96L160 96zM399.4 192C408.2 192 415.4 199.2 415.4 208L415.4 296.6L434 289.1C442.2 285.8 451.5 289.8 454.8 298C458.1 306.2 454.1 315.5 445.9 318.8L415.4 331L415.4 431.9C415.4 440.7 408.2 447.9 399.4 447.9C390.6 447.9 383.4 440.7 383.4 431.9L383.4 343.8L365.9 350.8C357.7 354.1 348.4 350.1 345.1 341.9C341.8 333.7 345.8 324.4 354 321.1L383.4 309.3L383.4 207.9C383.4 199.1 390.6 191.9 399.4 191.9zM216 256L304 256C309.5 256 314.7 258.9 317.6 263.6C320.5 268.3 320.8 274.2 318.3 279.2L249.9 416L312 416C320.8 416 328 423.2 328 432C328 440.8 320.8 448 312 448L224 448C218.5 448 213.3 445.1 210.4 440.4C207.5 435.7 207.2 429.8 209.7 424.8L278.1 288L216 288C207.2 288 200 280.8 200 272C200 263.2 207.2 256 216 256z"/></svg>