<svg xmlns="http://www.w3.org/2000/svg" viewBox="0 0 640 640"><!--! Font Awesome Pro 7.1.0 by @fontawesome - https://fontawesome.com License - https://fontawesome.com/license (Commercial License) Copyright 2025 Fonticons, Inc. --><path fill="currentColor" d="M160 128C142.3 128 128 142.3 128 160L128 480C128 497.7 142.3 512 160 512L480 512C497.7 512 512 497.7 512 480L512 160C512 142.3 497.7 128 480 128L160 128zM96 160C96 124.7 124.7 96 160 96L480 96C515.3 96 544 124.7 544 160L544 480C544 515.3 515.3 544 480 544L160 544C124.7 544 96 515.3 96 480L96 160zM320 224C364.2 224 400 259.8 400 304L400 336C400 380.2 364.2 416 320 416C275.8 416 240 380.2 240 336L240 304C240 259.8 275.8 224 320 224zM272 304L272 336C272 362.5 293.5 384 320 384C346.5 384 368 362.5 368 336L368 304C368 277.5 346.5 256 320 256C293.5 256 272 277.5 272 304z"/></svg>