<svg xmlns="http://www.w3.org/2000/svg" viewBox="0 0 640 640"><!--! Font Awesome Pro 7.1.0 by @fontawesome - https://fontawesome.com License - https://fontawesome.com/license (Commercial License) Copyright 2025 Fonticons, Inc. --><path fill="currentColor" d="M160 128C142.3 128 128 142.3 128 160L128 480C128 497.7 142.3 512 160 512L480 512C497.7 512 512 497.7 512 480L512 160C512 142.3 497.7 128 480 128L160 128zM96 160C96 124.7 124.7 96 160 96L480 96C515.3 96 544 124.7 544 160L544 480C544 515.3 515.3 544 480 544L160 544C124.7 544 96 515.3 96 480L96 160zM204 208C228.3 208 248 227.7 248 252L248 256C248 264.8 240.8 272 232 272C223.2 272 216 264.8 216 256L216 252C216 245.4 210.6 240 204 240C197.4 240 192 245.4 192 252L192 388C192 394.6 197.4 400 204 400C210.6 400 216 394.6 216 388L216 384C216 375.2 223.2 368 232 368C240.8 368 248 375.2 248 384L248 388C248 412.3 228.3 432 204 432C179.7 432 160 412.3 160 388L160 252C160 227.7 179.7 208 204 208zM304 224L304 304L336 304L336 224C336 215.2 343.2 208 352 208C360.8 208 368 215.2 368 224L368 416C368 424.8 360.8 432 352 432C343.2 432 336 424.8 336 416L336 336L304 336L304 416C304 424.8 296.8 432 288 432C279.2 432 272 424.8 272 416L272 224C272 215.2 279.2 208 288 208C296.8 208 304 215.2 304 224zM416 208L464 208C472.8 208 480 215.2 480 224C480 232.8 472.8 240 464 240L432 240L432 304L456 304C464.8 304 472 311.2 472 320C472 328.8 464.8 336 456 336L432 336L432 416C432 424.8 424.8 432 416 432C407.2 432 400 424.8 400 416L400 224C400 215.2 407.2 208 416 208z"/></svg>