<svg xmlns="http://www.w3.org/2000/svg" viewBox="0 0 640 640"><!--! Font Awesome Pro 7.1.0 by @fontawesome - https://fontawesome.com License - https://fontawesome.com/license (Commercial License) Copyright 2025 Fonticons, Inc. --><path fill="currentColor" d="M160 128C142.3 128 128 142.3 128 160L128 480C128 497.7 142.3 512 160 512L480 512C497.7 512 512 497.7 512 480L512 160C512 142.3 497.7 128 480 128L160 128zM96 160C96 124.7 124.7 96 160 96L480 96C515.3 96 544 124.7 544 160L544 480C544 515.3 515.3 544 480 544L160 544C124.7 544 96 515.3 96 480L96 160zM212.7 212.7C218.9 206.5 229.1 206.5 235.3 212.7L264.4 241.8C280.1 230.6 299.3 224 320 224C340.7 224 359.9 230.6 375.6 241.7L404.7 212.6C410.9 206.4 421.1 206.4 427.3 212.6C433.5 218.8 433.5 229 427.3 235.2L398.2 264.3C409.4 280.1 416 299.3 416 320C416 340.7 409.4 359.9 398.3 375.6L427.4 404.7C433.6 410.9 433.6 421.1 427.4 427.3C421.2 433.5 411 433.5 404.8 427.3L375.7 398.2C359.9 409.4 340.7 416 320 416C299.3 416 280.1 409.4 264.4 398.3L235.3 427.4C229.1 433.6 218.9 433.6 212.7 427.4C206.5 421.2 206.5 411 212.7 404.8L241.8 375.7C230.6 359.9 224 340.7 224 320C224 299.3 230.6 280.1 241.7 264.4L212.6 235.3C206.4 229.1 206.4 218.9 212.6 212.7zM320 384C355.3 384 384 355.3 384 320C384 284.7 355.3 256 320 256C284.7 256 256 284.7 256 320C256 355.3 284.7 384 320 384z"/></svg>