<svg xmlns="http://www.w3.org/2000/svg" viewBox="0 0 640 640"><!--! Font Awesome Pro 7.1.0 by @fontawesome - https://fontawesome.com License - https://fontawesome.com/license (Commercial License) Copyright 2025 Fonticons, Inc. --><path fill="currentColor" d="M160 128C142.3 128 128 142.3 128 160L128 480C128 497.7 142.3 512 160 512L480 512C497.7 512 512 497.7 512 480L512 160C512 142.3 497.7 128 480 128L160 128zM96 160C96 124.7 124.7 96 160 96L480 96C515.3 96 544 124.7 544 160L544 480C544 515.3 515.3 544 480 544L160 544C124.7 544 96 515.3 96 480L96 160zM272 225.3L329.8 225.3C359.7 225.3 384 249.6 384 279.5C384 300.7 371.7 319.9 352.4 328.7L316 345.4C300.5 352.5 290 367.2 288.3 384L368 384C376.8 384 384 391.2 384 400C384 408.8 376.8 416 368 416L272 416C263.2 416 256 408.8 256 400L256 389.1C256 357.8 274.2 329.4 302.7 316.4L339.1 299.7C347 296.1 352 288.2 352 279.5C352 267.3 342.1 257.3 329.8 257.3L272 257.3C263.2 257.3 256 250.1 256 241.3C256 232.5 263.2 225.3 272 225.3z"/></svg>