<svg xmlns="http://www.w3.org/2000/svg" viewBox="0 0 640 640"><!--! Font Awesome Pro 7.1.0 by @fontawesome - https://fontawesome.com License - https://fontawesome.com/license (Commercial License) Copyright 2025 Fonticons, Inc. --><path fill="currentColor" d="M480 512C497.7 512 512 497.7 512 480L512 160C512 142.3 497.7 128 480 128L160 128C142.3 128 128 142.3 128 160L128 480C128 497.7 142.3 512 160 512L480 512zM544 480C544 515.3 515.3 544 480 544L160 544C124.7 544 96 515.3 96 480L96 160C96 124.7 124.7 96 160 96L480 96C515.3 96 544 124.7 544 160L544 480zM384 272C384 263.2 391.2 256 400 256C408.8 256 416 263.2 416 272L416 400C416 408.8 408.8 416 400 416L272 416C263.2 416 256 408.8 256 400C256 391.2 263.2 384 272 384L361.4 384L228.7 251.3C222.5 245.1 222.5 234.9 228.7 228.7C234.9 222.5 245.1 222.5 251.3 228.7L384 361.4L384 272z"/></svg>