<svg xmlns="http://www.w3.org/2000/svg" viewBox="0 0 640 640"><!--! Font Awesome Pro 7.1.0 by @fontawesome - https://fontawesome.com License - https://fontawesome.com/license (Commercial License) Copyright 2025 Fonticons, Inc. --><path fill="currentColor" d="M160 128C142.3 128 128 142.3 128 160L128 480C128 497.7 142.3 512 160 512L480 512C497.7 512 512 497.7 512 480L512 160C512 142.3 497.7 128 480 128L160 128zM96 160C96 124.7 124.7 96 160 96L480 96C515.3 96 544 124.7 544 160L544 480C544 515.3 515.3 544 480 544L160 544C124.7 544 96 515.3 96 480L96 160zM253 230.7L320 324.5L387 230.7C391 225 398.3 222.6 404.9 224.8C411.5 227 416 233 416 240L416 400C416 408.8 408.8 416 400 416C391.2 416 384 408.8 384 400L384 289.9L333 361.3C330 365.5 325.1 368 320 368C314.9 368 310 365.5 307 361.3L256 289.9L256 400C256 408.8 248.8 416 240 416C231.2 416 224 408.8 224 400L224 240C224 233 228.5 226.9 235.1 224.8C241.7 222.7 249 225.1 253 230.7z"/></svg>