<svg xmlns="http://www.w3.org/2000/svg" viewBox="0 0 640 640"><!--! Font Awesome Pro 7.1.0 by @fontawesome - https://fontawesome.com License - https://fontawesome.com/license (Commercial License) Copyright 2025 Fonticons, Inc. --><path fill="currentColor" d="M160 128C142.3 128 128 142.3 128 160L128 480C128 497.7 142.3 512 160 512L480 512C497.7 512 512 497.7 512 480L512 160C512 142.3 497.7 128 480 128L160 128zM96 160C96 124.7 124.7 96 160 96L480 96C515.3 96 544 124.7 544 160L544 480C544 515.3 515.3 544 480 544L160 544C124.7 544 96 515.3 96 480L96 160zM320 192C327.1 192 333.4 196.7 335.4 203.6L364.1 304L405.3 304L432.7 211.5C435.2 203 444.1 198.2 452.6 200.7C461.1 203.2 465.9 212.1 463.4 220.6L438.7 304L448.1 304C456.9 304 464.1 311.2 464.1 320C464.1 328.8 456.9 336 448.1 336L429.2 336L399.4 436.5C397.4 443.3 391.1 448 384 448C376.9 448 370.6 443.2 368.7 436.4L340 336L300.1 336L271.4 436.4C269.4 443.2 263.2 448 256.1 448C249 448 242.7 443.4 240.7 436.5L210.9 336L192 336C183.2 336 176 328.8 176 320C176 311.2 183.2 304 192 304L201.4 304L176.7 220.6C174.2 212.1 179 203.2 187.5 200.7C196 198.2 204.9 203 207.4 211.5L234.8 304L276 304L304.7 203.6C306.7 196.7 312.9 192 320.1 192zM384.3 374.7L395.8 336L373.3 336L384.4 374.7zM320 266.2L309.2 304L330.8 304L320 266.2zM244.2 336L255.7 374.7L266.8 336L244.3 336z"/></svg>