<svg xmlns="http://www.w3.org/2000/svg" viewBox="0 0 640 640"><!--! Font Awesome Pro 7.1.0 by @fontawesome - https://fontawesome.com License - https://fontawesome.com/license (Commercial License) Copyright 2025 Fonticons, Inc. --><path fill="currentColor" d="M480 128L160 128C142.3 128 128 142.3 128 160L128 176L96 176L96 160C96 124.7 124.7 96 160 96L480 96C515.3 96 544 124.7 544 160L544 176L512 176L512 160C512 142.3 497.7 128 480 128zM96 464L128 464L128 480C128 497.7 142.3 512 160 512L480 512C497.7 512 512 497.7 512 480L512 464L544 464L544 480C544 515.3 515.3 544 480 544L160 544C124.7 544 96 515.3 96 480L96 464zM173.7 231.8L240 342.2L240 240C240 231.2 247.2 224 256 224C264.8 224 272 231.2 272 240L272 400C272 407.2 267.2 413.5 260.3 415.4C253.4 417.3 246 414.4 242.3 408.2L176 297.8L176 400C176 408.8 168.8 416 160 416C151.2 416 144 408.8 144 400L144 240C144 232.8 148.8 226.5 155.7 224.6C162.6 222.7 170 225.6 173.7 231.8zM304 240C304 231.2 311.2 224 320 224L416 224C424.8 224 432 231.2 432 240C432 248.8 424.8 256 416 256L336 256L336 304L400 304C408.8 304 416 311.2 416 320C416 328.8 408.8 336 400 336L336 336L336 400C336 408.8 328.8 416 320 416C311.2 416 304 408.8 304 400L304 240zM488 240L488 400C488 408.8 480.8 416 472 416C463.2 416 456 408.8 456 400L456 240C456 231.2 463.2 224 472 224C480.8 224 488 231.2 488 240z"/></svg>