<svg xmlns="http://www.w3.org/2000/svg" viewBox="0 0 640 640"><!--! Font Awesome Pro 7.1.0 by @fontawesome - https://fontawesome.com License - https://fontawesome.com/license (Commercial License) Copyright 2025 Fonticons, Inc. --><path fill="currentColor" d="M160 128C142.3 128 128 142.3 128 160L128 480C128 497.7 142.3 512 160 512L480 512C497.7 512 512 497.7 512 480L512 160C512 142.3 497.7 128 480 128L160 128zM96 160C96 124.7 124.7 96 160 96L480 96C515.3 96 544 124.7 544 160L544 480C544 515.3 515.3 544 480 544L160 544C124.7 544 96 515.3 96 480L96 160zM416 192C424.8 192 432 199.2 432 208L432 224L440 224C448.8 224 456 231.2 456 240C456 248.8 448.8 256 440 256L406.2 256C394 256 384 265.9 384 278.2C384 287.3 389.5 295.4 397.9 298.8L429.9 311.6C450.5 319.8 463.9 339.7 463.9 361.9C463.9 383.9 450.8 402.9 431.9 411.3L431.9 432C431.9 440.8 424.7 448 415.9 448C407.1 448 399.9 440.8 399.9 432L399.9 416L375.9 416C367.1 416 359.9 408.8 359.9 400C359.9 391.2 367.1 384 375.9 384L409.7 384C421.9 384 431.9 374.1 431.9 361.8C431.9 352.7 426.4 344.6 418 341.2L386 328.4C365.4 320.2 352 300.3 352 278.1C352 250.3 373 227.3 400 224.3L400 208C400 199.2 407.2 192 416 192zM192 208L248 208C287.8 208 320 240.2 320 280C320 309.4 302.4 334.7 277.2 345.8L302.9 410C306.2 418.2 302.2 427.5 294 430.8C285.8 434.1 276.5 430.1 273.2 421.9L245.2 352L208 352L208 416C208 424.8 200.8 432 192 432C183.2 432 176 424.8 176 416L176 224C176 215.2 183.2 208 192 208zM248 320C270.1 320 288 302.1 288 280C288 257.9 270.1 240 248 240L208 240L208 320L248 320z"/></svg>