<svg xmlns="http://www.w3.org/2000/svg" viewBox="0 0 640 640"><!--! Font Awesome Pro 7.1.0 by @fontawesome - https://fontawesome.com License - https://fontawesome.com/license (Commercial License) Copyright 2025 Fonticons, Inc. --><path fill="currentColor" d="M160 128C142.3 128 128 142.3 128 160L128 480C128 497.7 142.3 512 160 512L480 512C497.7 512 512 497.7 512 480L512 160C512 142.3 497.7 128 480 128L160 128zM96 160C96 124.7 124.7 96 160 96L480 96C515.3 96 544 124.7 544 160L544 480C544 515.3 515.3 544 480 544L160 544C124.7 544 96 515.3 96 480L96 160zM304 200C304 191.2 311.2 184 320 184C328.8 184 336 191.2 336 200L336 209.1C390.3 216.9 432 263.5 432 320L432 432C432 440.8 424.8 448 416 448C407.2 448 400 440.8 400 432L400 320C400 281.3 372.5 249 336 241.6L336 432C336 440.8 328.8 448 320 448C311.2 448 304 440.8 304 432L304 241.6C267.5 249 240 281.3 240 320L240 432C240 440.8 232.8 448 224 448C215.2 448 208 440.8 208 432L208 320C208 263.6 249.7 216.9 304 209.1L304 200z"/></svg>