<svg xmlns="http://www.w3.org/2000/svg" viewBox="0 0 640 640"><!--! Font Awesome Pro 7.1.0 by @fontawesome - https://fontawesome.com License - https://fontawesome.com/license (Commercial License) Copyright 2025 Fonticons, Inc. --><path fill="currentColor" d="M160 128C142.3 128 128 142.3 128 160L128 480C128 497.7 142.3 512 160 512L480 512C497.7 512 512 497.7 512 480L512 160C512 142.3 497.7 128 480 128L160 128zM96 160C96 124.7 124.7 96 160 96L480 96C515.3 96 544 124.7 544 160L544 480C544 515.3 515.3 544 480 544L160 544C124.7 544 96 515.3 96 480L96 160zM256 224L384 224C392.8 224 400 231.2 400 240C400 248.8 392.8 256 384 256L336 256L336 384L384 384C392.8 384 400 391.2 400 400C400 408.8 392.8 416 384 416L256 416C247.2 416 240 408.8 240 400C240 391.2 247.2 384 256 384L304 384L304 256L256 256C247.2 256 240 248.8 240 240C240 231.2 247.2 224 256 224z"/></svg>