<svg xmlns="http://www.w3.org/2000/svg" viewBox="0 0 640 640"><!--! Font Awesome Pro 7.1.0 by @fontawesome - https://fontawesome.com License - https://fontawesome.com/license (Commercial License) Copyright 2025 Fonticons, Inc. --><path fill="currentColor" d="M480 96C515.3 96 544 124.7 544 160L544 480C544 515.3 515.3 544 480 544L160 544C124.7 544 96 515.3 96 480L96 160C96 124.7 124.7 96 160 96L480 96zM160 128C142.3 128 128 142.3 128 160L128 480C128 497.7 142.3 512 160 512L480 512C497.7 512 512 497.7 512 480L512 160C512 142.3 497.7 128 480 128L160 128zM436.4 192.6C444.9 195 449.8 203.9 447.4 212.4L383.4 436.4C381 444.9 372.1 449.8 363.6 447.4C355.1 445 350.2 436.1 352.6 427.6L416.6 203.6C419 195.1 427.9 190.2 436.4 192.6zM304 224C312.8 224 320 231.2 320 240C320 248.8 312.8 256 304 256L255 256C242.3 256 232 266.3 232 279C232 290.2 240.1 299.8 251.2 301.7L282.1 306.8C308.6 311.2 328 334.2 328 361C328 391.4 303.4 416 273 416L224 416C215.2 416 208 408.8 208 400C208 391.2 215.2 384 224 384L273 384C285.7 384 296 373.7 296 361C296 349.8 287.9 340.2 276.8 338.3L245.9 333.2C219.4 328.8 200 305.8 200 278.9C200 248.5 224.6 223.9 255 223.9L304 223.9z"/></svg>