<svg xmlns="http://www.w3.org/2000/svg" viewBox="0 0 640 640"><!--! Font Awesome Pro 7.1.0 by @fontawesome - https://fontawesome.com License - https://fontawesome.com/license (Commercial License) Copyright 2025 Fonticons, Inc. --><path fill="currentColor" d="M480 128C497.7 128 512 142.3 512 160L512 480C512 497.7 497.7 512 480 512C480 441.3 422.7 384 352 384L288 384C217.3 384 160 441.3 160 512C142.3 512 128 497.7 128 480L128 160C128 142.3 142.3 128 160 128L480 128zM448 512L192 512C192 459 235 416 288 416L352 416C405 416 448 459 448 512zM160 96C124.7 96 96 124.7 96 160L96 480C96 515.3 124.7 544 160 544L480 544C515.3 544 544 515.3 544 480L544 160C544 124.7 515.3 96 480 96L160 96zM320 304C293.5 304 272 282.5 272 256C272 229.5 293.5 208 320 208C346.5 208 368 229.5 368 256C368 282.5 346.5 304 320 304zM240 256C240 300.2 275.8 336 320 336C364.2 336 400 300.2 400 256C400 211.8 364.2 176 320 176C275.8 176 240 211.8 240 256z"/></svg>