<svg xmlns="http://www.w3.org/2000/svg" viewBox="0 0 640 640"><!--! Font Awesome Pro 7.1.0 by @fontawesome - https://fontawesome.com License - https://fontawesome.com/license (Commercial License) Copyright 2025 Fonticons, Inc. --><path fill="currentColor" d="M160 128C142.3 128 128 142.3 128 160L128 480C128 497.7 142.3 512 160 512L480 512C497.7 512 512 497.7 512 480L512 160C512 142.3 497.7 128 480 128L160 128zM96 160C96 124.7 124.7 96 160 96L480 96C515.3 96 544 124.7 544 160L544 480C544 515.3 515.3 544 480 544L160 544C124.7 544 96 515.3 96 480L96 160zM216.5 320C216.5 371.8 254.4 414.8 304 422.7L304 312C304 303.2 311.2 296 320 296C328.8 296 336 303.2 336 312L336 316.1C347.4 308.4 361.2 304 376 304C384.8 304 392 311.2 392 320C392 328.8 384.8 336 376 336C353.9 336 336 353.9 336 376L336 422.9C357.5 419.7 376.8 409.9 391.8 395.7C398.2 389.6 408.4 389.9 414.4 396.3C420.4 402.7 420.2 412.9 413.8 418.9C389.5 441.9 356.6 456 320.5 456C245.4 456 184.5 395.1 184.5 320C184.5 244.9 245.4 184 320.5 184C356.6 184 389.5 198.1 413.8 221.1C420.2 227.2 420.5 237.3 414.4 243.7C408.3 250.1 398.2 250.4 391.8 244.4C373.2 226.8 348.1 216 320.4 216C263 216 216.4 262.6 216.4 320z"/></svg>