<svg xmlns="http://www.w3.org/2000/svg" viewBox="0 0 640 640"><!--! Font Awesome Pro 7.1.0 by @fontawesome - https://fontawesome.com License - https://fontawesome.com/license (Commercial License) Copyright 2025 Fonticons, Inc. --><path fill="currentColor" d="M160 128C142.3 128 128 142.3 128 160L128 480C128 497.7 142.3 512 160 512L480 512C497.7 512 512 497.7 512 480L512 160C512 142.3 497.7 128 480 128L160 128zM96 160C96 124.7 124.7 96 160 96L480 96C515.3 96 544 124.7 544 160L544 480C544 515.3 515.3 544 480 544L160 544C124.7 544 96 515.3 96 480L96 160zM343.2 181.1L339.1 193.3C348.8 194.7 358.1 197.1 367 200.5L376.8 171C379.6 162.6 388.7 158.1 397 160.9C405.3 163.7 409.9 172.8 407.1 181.1L395.5 215.8C400.3 219.2 404.8 222.9 409 226.9C415.4 233 415.7 243.1 409.6 249.5C403.5 255.9 393.4 256.2 387 250.2C386.2 249.5 385.5 248.8 384.7 248.1L329 415.7C351.5 413.9 371.7 404.4 387.2 389.8C393.6 383.7 403.8 384 409.8 390.5C415.8 397 415.6 407.1 409.2 413.1C386.3 434.7 355.4 448 321.3 448C320.3 448 319.3 448 318.3 448L311.3 469.1C308.5 477.5 299.4 482 291.1 479.2C282.8 476.4 278.2 467.3 281 459L286.3 443.2C276.9 440.5 268 436.8 259.7 432.2L247.4 469.1C244.6 477.5 235.5 482 227.2 479.2C218.9 476.4 214.3 467.3 217.1 459L232.7 412.2C208.6 388.9 193.5 356.2 193.5 320C193.5 254.6 242.5 200.7 305.7 193L313 171C315.8 162.6 324.9 158.1 333.2 160.9C341.5 163.7 346.1 172.8 343.3 181.1zM356.9 230.9C348.1 227.4 338.7 225.1 328.8 224.4L269.8 401.1C277.9 406.2 286.7 410.2 296.2 412.7L356.8 230.8zM293.8 228C254.2 239.8 225.2 276.5 225.2 320C225.2 341.4 232.2 361.2 244 377.1L293.8 228z"/></svg>