<svg xmlns="http://www.w3.org/2000/svg" viewBox="0 0 640 640"><!--! Font Awesome Pro 7.1.0 by @fontawesome - https://fontawesome.com License - https://fontawesome.com/license (Commercial License) Copyright 2025 Fonticons, Inc. --><path fill="currentColor" d="M160 128C142.3 128 128 142.3 128 160L128 480C128 497.7 142.3 512 160 512L480 512C497.7 512 512 497.7 512 480L512 160C512 142.3 497.7 128 480 128L160 128zM96 160C96 124.7 124.7 96 160 96L480 96C515.3 96 544 124.7 544 160L544 480C544 515.3 515.3 544 480 544L160 544C124.7 544 96 515.3 96 480L96 160zM208 208C208 199.2 215.2 192 224 192L416 192C424.8 192 432 199.2 432 208C432 216.8 424.8 224 416 224L336 224L336 281.8L386.9 264.8C395.3 262 404.3 266.5 407.1 274.9C409.9 283.3 405.4 292.3 397 295.1L335.9 315.5L335.9 345.8L386.8 328.8C395.2 326 404.2 330.5 407 338.9C409.8 347.3 405.3 356.3 396.9 359.1L336 379.5L336 432C336 440.8 328.8 448 320 448C311.2 448 304 440.8 304 432L304 390.2L253.1 407.2C244.7 410 235.7 405.5 232.9 397.1C230.1 388.7 234.6 379.7 243 376.9L304.1 356.5L304.1 326.2L253.2 343.2C244.8 346 235.8 341.5 233 333.1C230.2 324.7 234.7 315.7 243.1 312.9L304.2 292.5L304.2 224L224.2 224C215.4 224 208.2 216.8 208.2 208z"/></svg>