<svg xmlns="http://www.w3.org/2000/svg" viewBox="0 0 640 640"><!--! Font Awesome Pro 7.1.0 by @fontawesome - https://fontawesome.com License - https://fontawesome.com/license (Commercial License) Copyright 2025 Fonticons, Inc. --><path fill="currentColor" d="M160 128C142.3 128 128 142.3 128 160L128 480C128 497.7 142.3 512 160 512L480 512C497.7 512 512 497.7 512 480L512 160C512 142.3 497.7 128 480 128L160 128zM96 160C96 124.7 124.7 96 160 96L480 96C515.3 96 544 124.7 544 160L544 480C544 515.3 515.3 544 480 544L160 544C124.7 544 96 515.3 96 480L96 160zM240 192L400 192C408.8 192 416 199.2 416 208C416 216.8 408.8 224 400 224L352 224C359 233.3 364 244.2 366.4 256L400 256C408.8 256 416 263.2 416 272C416 280.8 408.8 288 400 288L366.4 288C359 324.5 326.7 352 288 352L377.6 419.2C384.7 424.5 386.1 434.5 380.8 441.6C375.5 448.7 365.5 450.1 358.4 444.8L230.4 348.8C224.9 344.7 222.6 337.5 224.8 330.9C227 324.3 233.1 320 240 320L288 320C308.9 320 326.7 306.6 333.3 288L240 288C231.2 288 224 280.8 224 272C224 263.2 231.2 256 240 256L333.3 256C326.7 237.4 308.9 224 288 224L240 224C231.2 224 224 216.8 224 208C224 199.2 231.2 192 240 192z"/></svg>