<svg xmlns="http://www.w3.org/2000/svg" viewBox="0 0 640 640"><!--! Font Awesome Pro 7.1.0 by @fontawesome - https://fontawesome.com License - https://fontawesome.com/license (Commercial License) Copyright 2025 Fonticons, Inc. --><path fill="currentColor" d="M160 128C142.3 128 128 142.3 128 160L128 480C128 497.7 142.3 512 160 512L480 512C497.7 512 512 497.7 512 480L512 160C512 142.3 497.7 128 480 128L160 128zM96 160C96 124.7 124.7 96 160 96L480 96C515.3 96 544 124.7 544 160L544 480C544 515.3 515.3 544 480 544L160 544C124.7 544 96 515.3 96 480L96 160zM272 192C280.8 192 288 199.2 288 208L288 281.8L362.9 256.8C371.3 254 380.3 258.5 383.1 266.9C385.9 275.3 381.4 284.3 373 287.1L287.9 315.5L287.9 416L399.9 416C408.7 416 415.9 423.2 415.9 432C415.9 440.8 408.7 448 399.9 448L271.9 448C263.1 448 255.9 440.8 255.9 432L255.9 326.2L229 335.2C220.6 338 211.6 333.5 208.8 325.1C206 316.7 210.5 307.7 218.9 304.9L256 292.5L256 208C256 199.2 263.2 192 272 192z"/></svg>