<svg xmlns="http://www.w3.org/2000/svg" viewBox="0 0 640 640"><!--! Font Awesome Pro 7.1.0 by @fontawesome - https://fontawesome.com License - https://fontawesome.com/license (Commercial License) Copyright 2025 Fonticons, Inc. --><path fill="currentColor" d="M128 128L448 128C465.7 128 480 142.3 480 160L480 209C485.2 208.3 490.6 208 496 208C501.4 208 506.8 208.3 512 209L512 160C512 124.7 483.3 96 448 96L128 96C92.7 96 64 124.7 64 160L64 480C64 515.3 92.7 544 128 544L337.3 544C336.4 538.8 336 533.4 336 527.9L336 512L128 512C110.3 512 96 497.7 96 480L96 160C96 142.3 110.3 128 128 128zM302.3 232.8C299.6 227.4 294 224 288 224C282 224 276.4 227.4 273.7 232.8L193.7 392.8C189.7 400.7 193 410.3 200.9 414.3C208.8 418.3 218.4 415 222.4 407.1L234 383.9L342.2 383.9L345.5 390.4C350.7 379.4 358 369.6 366.8 361.5L302.3 232.8zM288 275.8L326.1 352L249.9 352L288 275.8zM416 384.1L416 386.7C397.4 393.3 384 411.1 384 432L384 528C384 554.5 405.5 576 432 576L560 576C586.5 576 608 554.5 608 528L608 432C608 411.1 594.6 393.3 576 386.7L576 336.1C576 291.9 540.2 256.1 496 256.1C451.8 256.1 416 291.9 416 336.1L416 384.1zM416 432C416 423.8 422.2 417 430.3 416.1L561.8 416.1C569.8 417 576.1 423.8 576.1 432L576.1 528C576.1 536.8 568.9 544 560.1 544L432.1 544C423.3 544 416.1 536.8 416.1 528L416.1 432zM544 336.1L544 384L448 384L448 336.1C448 309.6 469.5 288.1 496 288.1C522.5 288.1 544 309.6 544 336.1z"/></svg>