<svg xmlns="http://www.w3.org/2000/svg" viewBox="0 0 640 640"><!--! Font Awesome Pro 7.1.0 by @fontawesome - https://fontawesome.com License - https://fontawesome.com/license (Commercial License) Copyright 2025 Fonticons, Inc. --><path fill="currentColor" d="M160 128C142.3 128 128 142.3 128 160L128 480C128 497.7 142.3 512 160 512L480 512C497.7 512 512 497.7 512 480L512 160C512 142.3 497.7 128 480 128L160 128zM96 160C96 124.7 124.7 96 160 96L480 96C515.3 96 544 124.7 544 160L544 480C544 515.3 515.3 544 480 544L160 544C124.7 544 96 515.3 96 480L96 160zM360 240C360 248.8 352.8 256 344 256L312 256C294.3 256 280 270.3 280 288L280 296.6C289.4 291.2 300.3 288 312 288L328 288C363.3 288 392 316.7 392 352C392 387.3 363.3 416 328 416L312 416C276.7 416 248 387.3 248 352L248 288C248 252.7 276.7 224 312 224L344 224C352.8 224 360 231.2 360 240zM312 384L328 384C345.7 384 360 369.7 360 352C360 334.3 345.7 320 328 320L312 320C294.3 320 280 334.3 280 352C280 369.7 294.3 384 312 384z"/></svg>