<svg xmlns="http://www.w3.org/2000/svg" viewBox="0 0 640 640"><!--! Font Awesome Pro 7.1.0 by @fontawesome - https://fontawesome.com License - https://fontawesome.com/license (Commercial License) Copyright 2025 Fonticons, Inc. --><path fill="currentColor" d="M160 128C142.3 128 128 142.3 128 160L128 480C128 497.7 142.3 512 160 512L480 512C497.7 512 512 497.7 512 480L512 160C512 142.3 497.7 128 480 128L160 128zM96 160C96 124.7 124.7 96 160 96L480 96C515.3 96 544 124.7 544 160L544 480C544 515.3 515.3 544 480 544L160 544C124.7 544 96 515.3 96 480L96 160zM256 356.7L280.7 332C283.7 329 287.8 327.3 292 327.3C296.2 327.3 300.3 329 303.3 332L368 396.7L396.7 368L332 303.3C325.8 297.1 325.8 286.9 332 280.7L356.7 256L256 256L256 356.7zM248 224L376 224C397.2 224 408 250 393 265L366 292L425 351C434.4 360.4 434.4 375.6 425 384.9L385 424.9C375.6 434.3 360.4 434.3 351.1 424.9L292.1 365.9L265.1 392.9C250.1 407.9 224.1 397.2 224.1 375.9L224.1 247.9C224.1 234.6 234.8 223.9 248.1 223.9z"/></svg>