<svg xmlns="http://www.w3.org/2000/svg" viewBox="0 0 640 640"><!--! Font Awesome Pro 7.1.0 by @fontawesome - https://fontawesome.com License - https://fontawesome.com/license (Commercial License) Copyright 2025 Fonticons, Inc. --><path fill="currentColor" d="M160 128C142.3 128 128 142.3 128 160L128 480C128 497.7 142.3 512 160 512L480 512C497.7 512 512 497.7 512 480L512 160C512 142.3 497.7 128 480 128L160 128zM96 160C96 124.7 124.7 96 160 96L480 96C515.3 96 544 124.7 544 160L544 480C544 515.3 515.3 544 480 544L160 544C124.7 544 96 515.3 96 480L96 160zM336.3 182.4C374.5 177.9 408 207.7 408 246.2C408 255.2 406.1 264 402.6 272L416 272C424.8 272 432 279.2 432 288C432 296.8 424.8 304 416 304L224 304C215.2 304 208 296.8 208 288C208 279.2 215.2 272 224 272L363.1 272C371.2 265.9 376 256.4 376 246.2C376 226.9 359.2 212 340 214.2L257.8 223.9C249 224.9 241.1 218.7 240 209.9C238.9 201.1 245.2 193.2 254 192.1L336.2 182.4zM324.8 336L416 336C424.8 336 432 343.2 432 352C432 360.8 424.8 368 416 368L277 368C268.9 374.1 264.1 383.8 264.1 394C264.1 413.4 280.9 428.5 300.1 426.4L398.4 416.1C407.2 415.2 415.1 421.5 416 430.3C416.9 439.1 410.6 447 401.8 447.9L303.5 458.2C265.4 462.2 232.1 432.3 232.1 394C232.1 384.9 234 376.1 237.6 368L224 368C215.2 368 208 360.8 208 352C208 343.2 215.2 336 224 336L324.8 336z"/></svg>