<svg xmlns="http://www.w3.org/2000/svg" viewBox="0 0 640 640"><!--! Font Awesome Pro 7.1.0 by @fontawesome - https://fontawesome.com License - https://fontawesome.com/license (Commercial License) Copyright 2025 Fonticons, Inc. --><path fill="currentColor" d="M128 480C128 497.7 142.3 512 160 512L480 512C497.7 512 512 497.7 512 480L512 160C512 142.3 497.7 128 480 128L160 128C142.3 128 128 142.3 128 160L128 480zM96 160C96 124.7 124.7 96 160 96L480 96C515.3 96 544 124.7 544 160L544 480C544 515.3 515.3 544 480 544L160 544C124.7 544 96 515.3 96 480L96 160zM192 240C192 231.2 199.2 224 208 224L256 224L256 200C256 191.2 263.2 184 272 184C280.8 184 288 191.2 288 200L288 224L432 224C440.8 224 448 231.2 448 240C448 248.8 440.8 256 432 256L288 256L288 280C288 288.8 280.8 296 272 296C263.2 296 256 288.8 256 280L256 256L208 256C199.2 256 192 248.8 192 240zM192 400C192 391.2 199.2 384 208 384L352 384L352 360C352 351.2 359.2 344 368 344C376.8 344 384 351.2 384 360L384 384L432 384C440.8 384 448 391.2 448 400C448 408.8 440.8 416 432 416L384 416L384 440C384 448.8 376.8 456 368 456C359.2 456 352 448.8 352 440L352 416L208 416C199.2 416 192 408.8 192 400z"/></svg>