<svg xmlns="http://www.w3.org/2000/svg" viewBox="0 0 640 640"><!--! Font Awesome Pro 7.1.0 by @fontawesome - https://fontawesome.com License - https://fontawesome.com/license (Commercial License) Copyright 2025 Fonticons, Inc. --><path fill="currentColor" d="M160 128C142.3 128 128 142.3 128 160L128 480C128 497.7 142.3 512 160 512L480 512C497.7 512 512 497.7 512 480L512 160C512 142.3 497.7 128 480 128L160 128zM96 160C96 124.7 124.7 96 160 96L480 96C515.3 96 544 124.7 544 160L544 480C544 515.3 515.3 544 480 544L160 544C124.7 544 96 515.3 96 480L96 160zM235.1 192.8C241.7 190.7 249 193.1 253 198.7L339.6 320L383.9 320L383.9 208C383.9 199.2 391.1 192 399.9 192C408.7 192 415.9 199.2 415.9 208L415.9 320L431.9 320C440.7 320 447.9 327.2 447.9 336C447.9 344.8 440.7 352 431.9 352L415.9 352L415.9 432C415.9 439 411.4 445.1 404.8 447.2C398.2 449.3 391 447 387 441.3L323.2 352L256 352L256 432C256 440.8 248.8 448 240 448C231.2 448 224 440.8 224 432L224 352L208 352C199.2 352 192 344.8 192 336C192 327.2 199.2 320 208 320L224 320L224 208C224 201 228.5 194.9 235.1 192.8zM384 382.1L384 352L362.5 352L384 382.1zM256 257.9L256 320L300.3 320L256 257.9z"/></svg>