<svg xmlns="http://www.w3.org/2000/svg" viewBox="0 0 640 640"><!--! Font Awesome Pro 7.1.0 by @fontawesome - https://fontawesome.com License - https://fontawesome.com/license (Commercial License) Copyright 2025 Fonticons, Inc. --><path fill="currentColor" d="M160 128C142.3 128 128 142.3 128 160L128 480C128 497.7 142.3 512 160 512L480 512C497.7 512 512 497.7 512 480L512 160C512 142.3 497.7 128 480 128L160 128zM96 160C96 124.7 124.7 96 160 96L480 96C515.3 96 544 124.7 544 160L544 480C544 515.3 515.3 544 480 544L160 544C124.7 544 96 515.3 96 480L96 160zM272 224L368 224C376.8 224 384 231.2 384 240C384 248.8 376.8 256 368 256L288 256L288 304L352 304C360.8 304 368 311.2 368 320C368 328.8 360.8 336 352 336L288 336L288 384L368 384C376.8 384 384 391.2 384 400C384 408.8 376.8 416 368 416L272 416C263.2 416 256 408.8 256 400L256 240C256 231.2 263.2 224 272 224z"/></svg>