<svg xmlns="http://www.w3.org/2000/svg" viewBox="0 0 640 640"><!--! Font Awesome Pro 7.1.0 by @fontawesome - https://fontawesome.com License - https://fontawesome.com/license (Commercial License) Copyright 2025 Fonticons, Inc. --><path fill="currentColor" d="M384.1 128C377 128 370.7 132.7 368.7 139.6L255.4 532.4C253.6 538.7 248.2 543.2 241.7 543.9C235.2 544.6 229 541.3 225.9 535.5L114.9 328.4C112.1 323.2 106.7 320 100.8 320L48 320C39.2 320 32 312.8 32 304C32 295.2 39.2 288 48 288L100.8 288C118.5 288 134.8 297.7 143.1 313.3L235.5 485.8L338 130.7C343.9 110.1 362.7 96 384.1 96L592 96C600.8 96 608 103.2 608 112C608 120.8 600.8 128 592 128L384.1 128z"/></svg>