<svg xmlns="http://www.w3.org/2000/svg" viewBox="0 0 640 640"><!--! Font Awesome Pro 7.1.0 by @fontawesome - https://fontawesome.com License - https://fontawesome.com/license (Commercial License) Copyright 2025 Fonticons, Inc. --><path fill="currentColor" d="M160 128C142.3 128 128 142.3 128 160L128 480C128 497.7 142.3 512 160 512L480 512C497.7 512 512 497.7 512 480L512 160C512 142.3 497.7 128 480 128L160 128zM96 160C96 124.7 124.7 96 160 96L480 96C515.3 96 544 124.7 544 160L544 480C544 515.3 515.3 544 480 544L160 544C124.7 544 96 515.3 96 480L96 160zM304 176C304 167.2 311.2 160 320 160C328.8 160 336 167.2 336 176L336 192L349.3 192C389.1 192 421.3 224.2 421.3 264C421.3 283.1 413.9 300.4 401.8 313.3C423.6 325.7 438.3 349.1 438.3 376C438.3 415.8 406.1 448 366.3 448L336.1 448L336.1 464C336.1 472.8 328.9 480 320.1 480C311.3 480 304.1 472.8 304.1 464L304.1 448L256.2 448C239.4 448 225.8 434.4 225.8 417.6L225.8 219.9C225.8 204.5 238.3 192 253.7 192L304 192L304 176zM257.8 224L257.8 304L304 304L304 224L257.8 224zM336 224L336 304L349.3 304C371.4 304 389.3 286.1 389.3 264C389.3 241.9 371.4 224 349.3 224L336 224zM257.8 336L257.8 416L304 416L304 336L257.8 336zM336 336L336 416L366.2 416C388.3 416 406.2 398.1 406.2 376C406.2 353.9 388.3 336 366.2 336L336 336z"/></svg>