<svg xmlns="http://www.w3.org/2000/svg" viewBox="0 0 640 640"><!--! Font Awesome Pro 7.1.0 by @fontawesome - https://fontawesome.com License - https://fontawesome.com/license (Commercial License) Copyright 2025 Fonticons, Inc. --><path fill="currentColor" d="M160 128L480 128C497.7 128 512 142.3 512 160L512 480C512 497.7 497.7 512 480 512L160 512C142.3 512 128 497.7 128 480L128 160C128 142.3 142.3 128 160 128zM160 96C124.7 96 96 124.7 96 160L96 480C96 515.3 124.7 544 160 544L480 544C515.3 544 544 515.3 544 480L544 160C544 124.7 515.3 96 480 96L160 96zM240 208L240 272L224 272C215.2 272 208 279.2 208 288C208 296.8 215.2 304 224 304L240 304L240 432C240 440.8 247.2 448 256 448C264.8 448 272 440.8 272 432L272 384L320 384C367.6 384 407 349.4 414.7 304L432 304C440.8 304 448 296.8 448 288C448 279.2 440.8 272 432 272L414.7 272C407.1 226.6 367.6 192 320 192L256 192C247.2 192 240 199.2 240 208zM320 224C349.8 224 374.9 244.4 382 272L272 272L272 224L320 224zM272 352L272 304L382 304C374.9 331.6 349.8 352 320 352L272 352z"/></svg>