<svg xmlns="http://www.w3.org/2000/svg" viewBox="0 0 640 640"><!--! Font Awesome Pro 7.1.0 by @fontawesome - https://fontawesome.com License - https://fontawesome.com/license (Commercial License) Copyright 2025 Fonticons, Inc. --><path fill="currentColor" d="M160 128C142.3 128 128 142.3 128 160L128 480C128 497.7 142.3 512 160 512L480 512C497.7 512 512 497.7 512 480L512 160C512 142.3 497.7 128 480 128L160 128zM96 160C96 124.7 124.7 96 160 96L480 96C515.3 96 544 124.7 544 160L544 480C544 515.3 515.3 544 480 544L160 544C124.7 544 96 515.3 96 480L96 160zM390.5 161.4C398.6 165 402.2 174.4 398.6 182.5L379.7 225.1C409.5 230.6 432 256.7 432 288L432 400C432 408.8 424.8 416 416 416C407.2 416 400 408.8 400 400L400 288C400 270.3 385.7 256 368 256C367.3 256 366.6 256 365.9 256.1L336 323.4L336 400C336 408.8 328.8 416 320 416C311.2 416 304 408.8 304 400L304 395.4L270.6 470.5C267 478.6 257.6 482.2 249.5 478.6C241.4 475 237.8 465.6 241.4 457.5L304 316.6L304 288L304 287.6C303.8 270.1 289.5 256 272 256C254.3 256 240 270.3 240 288L240 400C240 408.8 232.8 416 224 416C215.2 416 208 408.8 208 400L208 304L208 304L208 240C208 231.2 215.2 224 224 224C230.5 224 236.1 227.9 238.6 233.4C248.3 227.4 259.8 224 272 224C291.1 224 308.3 232.4 320 245.7C326.3 238.6 334.1 232.9 342.9 229.2L369.4 169.6C373 161.5 382.4 157.9 390.5 161.5z"/></svg>