<svg xmlns="http://www.w3.org/2000/svg" viewBox="0 0 640 640"><!--! Font Awesome Pro 7.1.0 by @fontawesome - https://fontawesome.com License - https://fontawesome.com/license (Commercial License) Copyright 2025 Fonticons, Inc. --><path fill="currentColor" d="M160 128C142.3 128 128 142.3 128 160L128 480C128 497.7 142.3 512 160 512L480 512C497.7 512 512 497.7 512 480L512 160C512 142.3 497.7 128 480 128L160 128zM96 160C96 124.7 124.7 96 160 96L480 96C515.3 96 544 124.7 544 160L544 480C544 515.3 515.3 544 480 544L160 544C124.7 544 96 515.3 96 480L96 160zM384 256C401.7 256 416 241.7 416 224C416 206.3 401.7 192 384 192C366.3 192 352 206.3 352 224C352 241.7 366.3 256 384 256zM384 288C366.5 288 350.6 281 339.1 269.6L285.4 301.8C287.1 307.6 288 313.7 288 320C288 326.3 287.1 332.4 285.4 338.2L339.1 370.4C350.7 359 366.5 352 384 352C419.3 352 448 380.7 448 416C448 451.3 419.3 480 384 480C348.7 480 320 451.3 320 416C320 409.7 320.9 403.6 322.6 397.8L268.9 365.6C257.3 377 241.5 384 224 384C188.7 384 160 355.3 160 320C160 284.7 188.7 256 224 256C241.5 256 257.4 263 268.9 274.4L322.6 242.2C320.9 236.4 320 230.3 320 224C320 188.7 348.7 160 384 160C419.3 160 448 188.7 448 224C448 259.3 419.3 288 384 288zM384 448C401.7 448 416 433.7 416 416C416 398.3 401.7 384 384 384C366.3 384 352 398.3 352 416C352 433.7 366.3 448 384 448zM256 320C256 302.3 241.7 288 224 288C206.3 288 192 302.3 192 320C192 337.7 206.3 352 224 352C241.7 352 256 337.7 256 320z"/></svg>