<svg xmlns="http://www.w3.org/2000/svg" viewBox="0 0 640 640"><!--! Font Awesome Pro 7.1.0 by @fontawesome - https://fontawesome.com License - https://fontawesome.com/license (Commercial License) Copyright 2025 Fonticons, Inc. --><path fill="currentColor" d="M160 128C142.3 128 128 142.3 128 160L128 480C128 497.7 142.3 512 160 512L480 512C497.7 512 512 497.7 512 480L512 160C512 142.3 497.7 128 480 128L160 128zM96 160C96 124.7 124.7 96 160 96L480 96C515.3 96 544 124.7 544 160L544 480C544 515.3 515.3 544 480 544L160 544C124.7 544 96 515.3 96 480L96 160zM320 238.1L290.8 304L349.2 304L320 238.1zM340.5 205.4L384.2 304L432 304C440.8 304 448 311.2 448 320C448 328.8 440.8 336 432 336L398.4 336L412.6 368L432.1 368C440.9 368 448.1 375.2 448.1 384C448.1 392.8 440.9 400 432.1 400L426.8 400L438.1 425.5C441.7 433.6 438 443 429.9 446.6C421.8 450.2 412.4 446.5 408.8 438.4L391.8 399.9L248.4 399.9L231.4 438.4C227.8 446.5 218.4 450.1 210.3 446.6C202.2 443.1 198.6 433.6 202.1 425.5L213.4 400L208.1 400C199.3 400 192.1 392.8 192.1 384C192.1 375.2 199.3 368 208.1 368L227.6 368L241.8 336L208.2 336C199.4 336 192.2 328.8 192.2 320C192.2 311.2 199.4 304 208.2 304L256 304L299.7 205.4C303.3 197.3 311.3 192 320.2 192C329.1 192 337.1 197.2 340.7 205.4zM276.6 336L262.4 368L377.5 368L363.3 336L276.5 336z"/></svg>