<svg xmlns="http://www.w3.org/2000/svg" viewBox="0 0 640 640"><!--! Font Awesome Pro 7.1.0 by @fontawesome - https://fontawesome.com License - https://fontawesome.com/license (Commercial License) Copyright 2025 Fonticons, Inc. --><path fill="currentColor" d="M160 128C142.3 128 128 142.3 128 160L128 480C128 497.7 142.3 512 160 512L480 512C497.7 512 512 497.7 512 480L512 160C512 142.3 497.7 128 480 128L160 128zM96 160C96 124.7 124.7 96 160 96L480 96C515.3 96 544 124.7 544 160L544 480C544 515.3 515.3 544 480 544L160 544C124.7 544 96 515.3 96 480L96 160zM320 200C333.3 200 344 210.7 344 224C344 237.3 333.3 248 320 248C306.7 248 296 237.3 296 224C296 210.7 306.7 200 320 200zM224 304L416 304C424.8 304 432 311.2 432 320C432 328.8 424.8 336 416 336L224 336C215.2 336 208 328.8 208 320C208 311.2 215.2 304 224 304zM296 416C296 402.7 306.7 392 320 392C333.3 392 344 402.7 344 416C344 429.3 333.3 440 320 440C306.7 440 296 429.3 296 416z"/></svg>