<svg xmlns="http://www.w3.org/2000/svg" viewBox="0 0 640 640"><!--! Font Awesome Pro 7.1.0 by @fontawesome - https://fontawesome.com License - https://fontawesome.com/license (Commercial License) Copyright 2025 Fonticons, Inc. --><path fill="currentColor" d="M512 96C529.7 96 544 110.3 544 128L544 512C544 529.7 529.7 544 512 544L128 544C110.3 544 96 529.7 96 512L96 128C96 110.3 110.3 96 128 96L512 96zM128 64C92.7 64 64 92.7 64 128L64 512C64 547.3 92.7 576 128 576L512 576C547.3 576 576 547.3 576 512L576 128C576 92.7 547.3 64 512 64L128 64z"/></svg>