<svg xmlns="http://www.w3.org/2000/svg" viewBox="0 0 640 640"><!--! Font Awesome Pro 7.1.0 by @fontawesome - https://fontawesome.com License - https://fontawesome.com/license (Commercial License) Copyright 2025 Fonticons, Inc. --><path fill="currentColor" d="M480 128C497.7 128 512 142.3 512 160L512 480C512 497.7 497.7 512 480 512L160 512C142.3 512 128 497.7 128 480L128 160C128 142.3 142.3 128 160 128L480 128zM160 96C124.7 96 96 124.7 96 160L96 480C96 515.3 124.7 544 160 544L480 544C515.3 544 544 515.3 544 480L544 160C544 124.7 515.3 96 480 96L160 96zM208 216L208 264C208 286.1 225.9 304 248 304L280 304C302.1 304 320 286.1 320 264L320 216C320 193.9 302.1 176 280 176L248 176C225.9 176 208 193.9 208 216zM248 208L280 208C284.4 208 288 211.6 288 216L288 264C288 268.4 284.4 272 280 272L248 272C243.6 272 240 268.4 240 264L240 216C240 211.6 243.6 208 248 208zM360 344C337.9 344 320 361.9 320 384L320 432C320 454.1 337.9 472 360 472L392 472C414.1 472 432 454.1 432 432L432 384C432 361.9 414.1 344 392 344L360 344zM352 384C352 379.6 355.6 376 360 376L392 376C396.4 376 400 379.6 400 384L400 432C400 436.4 396.4 440 392 440L360 440C355.6 440 352 436.4 352 432L352 384zM216 360C216 368.8 223.2 376 232 376L240 376L240 456C240 464.8 247.2 472 256 472C264.8 472 272 464.8 272 456L272 360C272 351.2 264.8 344 256 344L232 344C223.2 344 216 351.2 216 360zM376 176C367.2 176 360 183.2 360 192C360 200.8 367.2 208 376 208L384 208L384 288C384 296.8 391.2 304 400 304C408.8 304 416 296.8 416 288L416 192C416 183.2 408.8 176 400 176L376 176z"/></svg>