<svg xmlns="http://www.w3.org/2000/svg" viewBox="0 0 640 640"><!--! Font Awesome Pro 7.1.0 by @fontawesome - https://fontawesome.com License - https://fontawesome.com/license (Commercial License) Copyright 2025 Fonticons, Inc. --><path fill="currentColor" d="M128 480C128 497.7 142.3 512 160 512L480 512C497.7 512 512 497.7 512 480L512 160C512 142.3 497.7 128 480 128L160 128C142.3 128 128 142.3 128 160L128 480zM160 544C124.7 544 96 515.3 96 480L96 160C96 124.7 124.7 96 160 96L480 96C515.3 96 544 124.7 544 160L544 480C544 515.3 515.3 544 480 544L160 544zM296 320C296 306.7 306.7 296 320 296C333.3 296 344 306.7 344 320C344 333.3 333.3 344 320 344C306.7 344 296 333.3 296 320zM224 344C210.7 344 200 333.3 200 320C200 306.7 210.7 296 224 296C237.3 296 248 306.7 248 320C248 333.3 237.3 344 224 344zM392 320C392 306.7 402.7 296 416 296C429.3 296 440 306.7 440 320C440 333.3 429.3 344 416 344C402.7 344 392 333.3 392 320z"/></svg>