<svg xmlns="http://www.w3.org/2000/svg" viewBox="0 0 640 640"><!--! Font Awesome Pro 7.1.0 by @fontawesome - https://fontawesome.com License - https://fontawesome.com/license (Commercial License) Copyright 2025 Fonticons, Inc. --><path fill="currentColor" d="M160 128C142.3 128 128 142.3 128 160L128 480C128 497.7 142.3 512 160 512L480 512C497.7 512 512 497.7 512 480L512 160C512 142.3 497.7 128 480 128L160 128zM96 160C96 124.7 124.7 96 160 96L480 96C515.3 96 544 124.7 544 160L544 480C544 515.3 515.3 544 480 544L160 544C124.7 544 96 515.3 96 480L96 160zM256 368C256 376.8 248.8 384 240 384C231.2 384 224 376.8 224 368L224 240C224 231.2 231.2 224 240 224L368 224C376.8 224 384 231.2 384 240C384 248.8 376.8 256 368 256L278.6 256L411.3 388.7C417.5 394.9 417.5 405.1 411.3 411.3C405.1 417.5 394.9 417.5 388.7 411.3L256 278.6L256 368z"/></svg>