<svg xmlns="http://www.w3.org/2000/svg" viewBox="0 0 640 640"><!--! Font Awesome Pro 7.1.0 by @fontawesome - https://fontawesome.com License - https://fontawesome.com/license (Commercial License) Copyright 2025 Fonticons, Inc. --><path fill="currentColor" d="M160 128C142.3 128 128 142.3 128 160L128 480C128 497.7 142.3 512 160 512L480 512C497.7 512 512 497.7 512 480L512 160C512 142.3 497.7 128 480 128L160 128zM96 160C96 124.7 124.7 96 160 96L480 96C515.3 96 544 124.7 544 160L544 480C544 515.3 515.3 544 480 544L160 544C124.7 544 96 515.3 96 480L96 160zM357.7 176C377.5 176 391.8 194.8 386.5 213.9L365.9 288L404.6 288C419.7 288 431.9 300.2 431.9 315.3C431.9 322.5 429 329.5 423.9 334.6L303.4 455.3C297.8 460.9 290.2 464 282.3 464C262.5 464 248.2 445.2 253.5 426.1L274.1 352L235.4 352C220.3 352 208.1 339.8 208.1 324.7C208.1 317.5 211 310.5 216.1 305.4L336.6 184.7C342.2 179.1 349.8 176 357.7 176zM246.6 320L295.1 320C305.5 320 313.3 330.2 310.5 340.3L286.4 426.9L393.3 320L344.8 320C334.4 320 326.6 309.7 329.4 299.7L353.5 213.1L246.6 320z"/></svg>