<svg xmlns="http://www.w3.org/2000/svg" viewBox="0 0 640 640"><!--! Font Awesome Pro 7.1.0 by @fontawesome - https://fontawesome.com License - https://fontawesome.com/license (Commercial License) Copyright 2025 Fonticons, Inc. --><path fill="currentColor" d="M160 128C142.3 128 128 142.3 128 160L128 480C128 497.7 142.3 512 160 512L480 512C497.7 512 512 497.7 512 480L512 160C512 142.3 497.7 128 480 128L160 128zM96 160C96 124.7 124.7 96 160 96L480 96C515.3 96 544 124.7 544 160L544 480C544 515.3 515.3 544 480 544L160 544C124.7 544 96 515.3 96 480L96 160zM208 224L280 224C288.8 224 296 231.2 296 240C296 248.8 288.8 256 280 256L224 256L224 307.2L272 307.2C280.8 307.2 288 314.4 288 323.2C288 332 280.8 339.2 272 339.2L224 339.2L224 384L281.6 384C290.4 384 297.6 391.2 297.6 400C297.6 408.8 290.4 416 281.6 416L208 416C199.2 416 192 408.8 192 400L192 240C192 231.2 199.2 224 208 224zM344 224L432 224C437.7 224 442.9 227 445.8 231.9C448.7 236.8 448.8 242.8 446 247.8L371 384.1L431.9 384.1C440.7 384.1 447.9 391.3 447.9 400.1C447.9 408.9 440.7 416.1 431.9 416.1L343.9 416.1C338.2 416.1 333 413.1 330.1 408.2C327.2 403.3 327.1 397.3 329.9 392.3L404.9 256L344 256C335.2 256 328 248.8 328 240C328 231.2 335.2 224 344 224z"/></svg>