<svg xmlns="http://www.w3.org/2000/svg" viewBox="0 0 640 640"><!--! Font Awesome Pro 7.1.0 by @fontawesome - https://fontawesome.com License - https://fontawesome.com/license (Commercial License) Copyright 2025 Fonticons, Inc. --><path fill="currentColor" d="M160 128C142.3 128 128 142.3 128 160L128 480C128 497.7 142.3 512 160 512L480 512C497.7 512 512 497.7 512 480L512 160C512 142.3 497.7 128 480 128L160 128zM96 160C96 124.7 124.7 96 160 96L480 96C515.3 96 544 124.7 544 160L544 480C544 515.3 515.3 544 480 544L160 544C124.7 544 96 515.3 96 480L96 160zM302.6 224L360 224C368.8 224 376 231.2 376 240C376 248.8 368.8 256 360 256L302.6 256C290.1 256 280 266.1 280 278.6C280 289.8 288.3 299.3 299.4 300.9L345.2 307.4C372.1 311.2 392 334.3 392 361.4C392 391.5 367.6 416 337.4 416L272 416C263.2 416 256 408.8 256 400C256 391.2 263.2 384 272 384L337.4 384C349.9 384 360 373.9 360 361.4C360 350.2 351.7 340.7 340.6 339.1L294.8 332.6C267.9 328.8 248 305.7 248 278.6C248 248.5 272.4 224 302.6 224z"/></svg>