<svg xmlns="http://www.w3.org/2000/svg" viewBox="0 0 640 640"><!--! Font Awesome Pro 7.1.0 by @fontawesome - https://fontawesome.com License - https://fontawesome.com/license (Commercial License) Copyright 2025 Fonticons, Inc. --><path fill="currentColor" d="M160 128C142.3 128 128 142.3 128 160L128 480C128 497.7 142.3 512 160 512L480 512C497.7 512 512 497.7 512 480L512 160C512 142.3 497.7 128 480 128L160 128zM96 160C96 124.7 124.7 96 160 96L480 96C515.3 96 544 124.7 544 160L544 480C544 515.3 515.3 544 480 544L160 544C124.7 544 96 515.3 96 480L96 160zM248 320C248 359.8 280.2 392 320 392C359.8 392 392 359.8 392 320C392 280.2 359.8 248 320 248C280.2 248 248 280.2 248 320zM320 424C262.6 424 216 377.4 216 320C216 262.6 262.6 216 320 216C377.4 216 424 262.6 424 320C424 377.4 377.4 424 320 424z"/></svg>