<svg xmlns="http://www.w3.org/2000/svg" viewBox="0 0 640 640"><!--! Font Awesome Pro 7.1.0 by @fontawesome - https://fontawesome.com License - https://fontawesome.com/license (Commercial License) Copyright 2025 Fonticons, Inc. --><path fill="currentColor" d="M416 192C433.7 192 448 206.3 448 224L448 416C448 433.7 433.7 448 416 448L224 448C206.3 448 192 433.7 192 416L192 224C192 206.3 206.3 192 224 192L416 192zM224 160C188.7 160 160 188.7 160 224L160 416C160 451.3 188.7 480 224 480L416 480C451.3 480 480 451.3 480 416L480 224C480 188.7 451.3 160 416 160L224 160z"/></svg>