<svg xmlns="http://www.w3.org/2000/svg" viewBox="0 0 640 640"><!--! Font Awesome Pro 7.1.0 by @fontawesome - https://fontawesome.com License - https://fontawesome.com/license (Commercial License) Copyright 2025 Fonticons, Inc. --><path fill="currentColor" d="M160 128C142.3 128 128 142.3 128 160L128 480C128 497.7 142.3 512 160 512L480 512C497.7 512 512 497.7 512 480L512 160C512 142.3 497.7 128 480 128L160 128zM96 160C96 124.7 124.7 96 160 96L480 96C515.3 96 544 124.7 544 160L544 480C544 515.3 515.3 544 480 544L160 544C124.7 544 96 515.3 96 480L96 160zM247.3 312L240 312C231.2 312 224 304.8 224 296C224 287.9 230.1 281.2 237.9 280.1C233.1 234.6 268.7 192 317.5 192L318.8 192C344.3 192 368.7 202.1 386.7 220.1L395.3 228.7C401.5 234.9 401.5 245.1 395.3 251.3C389.1 257.5 378.9 257.5 372.7 251.3L364.1 242.7C352.1 230.7 335.8 224 318.8 224L317.5 224C287.1 224 265.2 251.5 270.1 280L367.9 280C376.7 280 383.9 287.2 383.9 296C383.9 304.8 376.7 312 367.9 312L281.2 312C283.6 319.9 285 327.9 285.4 336L367.9 336C376.7 336 383.9 343.2 383.9 352C383.9 360.8 376.7 368 367.9 368L281.7 368C278.7 378.3 274.1 388.2 267.8 397.2L254.7 416L400 416C408.8 416 416 423.2 416 432C416 440.8 408.8 448 400 448L224 448C218 448 212.6 444.7 209.8 439.4C207 434.1 207.5 427.7 210.9 422.8L241.7 378.8C244.1 375.4 246.2 371.7 247.9 367.9L240.1 367.9C231.3 367.9 224.1 360.7 224.1 351.9C224.1 343.1 231.3 335.9 240.1 335.9L253.6 335.9C253.1 329.4 251.7 322.9 249.3 316.7L247.4 311.9z"/></svg>