<svg xmlns="http://www.w3.org/2000/svg" viewBox="0 0 640 640"><!--! Font Awesome Pro 7.1.0 by @fontawesome - https://fontawesome.com License - https://fontawesome.com/license (Commercial License) Copyright 2025 Fonticons, Inc. --><path fill="currentColor" d="M160 128C142.3 128 128 142.3 128 160L128 480C128 497.7 142.3 512 160 512L480 512C497.7 512 512 497.7 512 480L512 160C512 142.3 497.7 128 480 128L160 128zM96 160C96 124.7 124.7 96 160 96L480 96C515.3 96 544 124.7 544 160L544 480C544 515.3 515.3 544 480 544L160 544C124.7 544 96 515.3 96 480L96 160zM272 224L384 224C389.9 224 395.3 227.2 398.1 232.4C400.9 237.6 400.6 243.8 397.5 248.8L293.5 408.8C288.7 416.2 278.8 418.3 271.4 413.5C264 408.7 261.9 398.8 266.7 391.4L354.5 256L272 256C263.2 256 256 248.8 256 240C256 231.2 263.2 224 272 224z"/></svg>