<svg xmlns="http://www.w3.org/2000/svg" viewBox="0 0 640 640"><!--! Font Awesome Pro 7.1.0 by @fontawesome - https://fontawesome.com License - https://fontawesome.com/license (Commercial License) Copyright 2025 Fonticons, Inc. --><path fill="currentColor" d="M160 128C142.3 128 128 142.3 128 160L128 480C128 497.7 142.3 512 160 512L480 512C497.7 512 512 497.7 512 480L512 160C512 142.3 497.7 128 480 128L160 128zM96 160C96 124.7 124.7 96 160 96L480 96C515.3 96 544 124.7 544 160L544 480C544 515.3 515.3 544 480 544L160 544C124.7 544 96 515.3 96 480L96 160zM288 160C296.8 160 304 167.2 304 176L304 192L320 192L320 176C320 167.2 327.2 160 336 160C344.8 160 352 167.2 352 176L352 192.1C390.5 193.5 421.3 225.2 421.3 264C421.3 283.1 413.9 300.4 401.8 313.3C423.6 325.7 438.3 349.1 438.3 376C438.3 415.8 406.1 448 366.3 448L352.1 448L352.1 464C352.1 472.8 344.9 480 336.1 480C327.3 480 320.1 472.8 320.1 464L320.1 448L304.1 448L304.1 464C304.1 472.8 296.9 480 288.1 480C279.3 480 272.1 472.8 272.1 464L272.1 448L256.2 448C239.4 448 225.8 434.4 225.8 417.6L225.8 219.9C225.8 204.5 238.3 192 253.7 192L272 192L272 176C272 167.2 279.2 160 288 160zM366.2 416C388.3 416 406.2 398.1 406.2 376C406.2 353.9 388.3 336 366.2 336L257.7 336L257.7 416L366.2 416zM336 224L257.8 224L257.8 304L349.3 304C371.4 304 389.3 286.1 389.3 264C389.3 241.9 371.4 224 349.3 224L336 224z"/></svg>