<svg xmlns="http://www.w3.org/2000/svg" viewBox="0 0 640 640"><!--! Font Awesome Pro 7.1.0 by @fontawesome - https://fontawesome.com License - https://fontawesome.com/license (Commercial License) Copyright 2025 Fonticons, Inc. --><path fill="currentColor" d="M160 128C142.3 128 128 142.3 128 160L128 480C128 497.7 142.3 512 160 512L480 512C497.7 512 512 497.7 512 480L512 160C512 142.3 497.7 128 480 128L160 128zM96 160C96 124.7 124.7 96 160 96L480 96C515.3 96 544 124.7 544 160L544 480C544 515.3 515.3 544 480 544L160 544C124.7 544 96 515.3 96 480L96 160zM352 224C352 232.8 344.8 240 336 240L208 240C199.2 240 192 232.8 192 224C192 215.2 199.2 208 208 208L336 208C344.8 208 352 215.2 352 224zM432 304C440.8 304 448 311.2 448 320C448 328.8 440.8 336 432 336L208 336C199.2 336 192 328.8 192 320C192 311.2 199.2 304 208 304L432 304zM288 416C288 424.8 280.8 432 272 432L208 432C199.2 432 192 424.8 192 416C192 407.2 199.2 400 208 400L272 400C280.8 400 288 407.2 288 416z"/></svg>