<svg xmlns="http://www.w3.org/2000/svg" viewBox="0 0 640 640"><!--! Font Awesome Pro 7.1.0 by @fontawesome - https://fontawesome.com License - https://fontawesome.com/license (Commercial License) Copyright 2025 Fonticons, Inc. --><path fill="currentColor" d="M160 128C142.3 128 128 142.3 128 160L128 480C128 497.7 142.3 512 160 512L480 512C497.7 512 512 497.7 512 480L512 160C512 142.3 497.7 128 480 128L160 128zM96 160C96 124.7 124.7 96 160 96L480 96C515.3 96 544 124.7 544 160L544 480C544 515.3 515.3 544 480 544L160 544C124.7 544 96 515.3 96 480L96 160zM412.3 197.8C418 204.6 417 214.7 410.2 220.3L309.4 304.2L399.7 304.2C408.5 304.2 415.7 311.4 415.7 320.2C415.7 329 408.5 336.2 399.7 336.2L309.5 336.2L410.1 419.7C416.9 425.3 417.8 435.4 412.2 442.2C406.6 449 396.5 449.9 389.7 444.3L288 359.9L288 432C288 440.8 280.8 448 272 448C263.2 448 256 440.8 256 432L256 336.2L224.2 336.2C215.4 336.2 208.2 329 208.2 320.2C208.2 311.4 215.4 304.2 224.2 304.2L256 304.2L256 208C256 199.2 263.2 192 272 192C280.8 192 288 199.2 288 208L288 280.5L389.8 195.7C396.6 190 406.7 191 412.3 197.8z"/></svg>