<svg xmlns="http://www.w3.org/2000/svg" viewBox="0 0 640 640"><!--! Font Awesome Pro 7.1.0 by @fontawesome - https://fontawesome.com License - https://fontawesome.com/license (Commercial License) Copyright 2025 Fonticons, Inc. --><path fill="currentColor" d="M480 512C497.7 512 512 497.7 512 480L512 160C512 142.3 497.7 128 480 128L160 128C142.3 128 128 142.3 128 160L128 480C128 497.7 142.3 512 160 512L480 512zM544 480C544 515.3 515.3 544 480 544L160 544C124.7 544 96 515.3 96 480L96 160C96 124.7 124.7 96 160 96L480 96C515.3 96 544 124.7 544 160L544 480zM384 283.3L359.3 308C356.3 311 352.2 312.7 348 312.7C343.8 312.7 339.7 311 336.7 308L272 243.3L243.3 272L308 336.7C314.2 342.9 314.2 353.1 308 359.3L283.3 384L384 384L384 283.3zM392 416L264 416C242.8 416 232 390 247 375L274 348L215 289C205.6 279.6 205.6 264.4 215 255.1L255 215.1C264.4 205.7 279.6 205.7 288.9 215.1L347.9 274.1L374.9 247.1C389.9 232.1 415.9 242.8 415.9 264.1L415.9 392.1C415.9 405.4 405.2 416.1 391.9 416.1z"/></svg>