<svg xmlns="http://www.w3.org/2000/svg" viewBox="0 0 640 640"><!--! Font Awesome Pro 7.1.0 by @fontawesome - https://fontawesome.com License - https://fontawesome.com/license (Commercial License) Copyright 2025 Fonticons, Inc. --><path fill="currentColor" d="M160 128C142.3 128 128 142.3 128 160L128 480C128 497.7 142.3 512 160 512L480 512C497.7 512 512 497.7 512 480L512 160C512 142.3 497.7 128 480 128L160 128zM96 160C96 124.7 124.7 96 160 96L480 96C515.3 96 544 124.7 544 160L544 480C544 515.3 515.3 544 480 544L160 544C124.7 544 96 515.3 96 480L96 160zM243 301C222.6 248.6 261.3 192 317.6 192L318.9 192C344.4 192 368.8 202.1 386.8 220.1L395.4 228.7C401.6 234.9 401.6 245.1 395.4 251.3C389.2 257.5 379 257.5 372.8 251.3L364.2 242.7C352.2 230.7 335.9 224 318.9 224L317.6 224C283.8 224 260.6 257.9 272.9 289.4L279.1 305.2C281 310 282.5 315 283.5 320L368.1 320C376.9 320 384.1 327.2 384.1 336C384.1 344.8 376.9 352 368.1 352L285.1 352C283.3 368 277.5 383.6 268 397.2L254.7 416L400 416C408.8 416 416 423.2 416 432C416 440.8 408.8 448 400 448L224 448C218 448 212.6 444.7 209.8 439.4C207 434.1 207.5 427.7 210.9 422.8L241.7 378.8C247.4 370.7 251.1 361.5 252.7 351.9L240 352C231.2 352 224 344.8 224 336C224 327.2 231.2 320 240 320L250.3 320C249.9 318.9 249.6 317.9 249.2 316.8L243 301z"/></svg>