<svg xmlns="http://www.w3.org/2000/svg" viewBox="0 0 640 640"><!--! Font Awesome Pro 7.1.0 by @fontawesome - https://fontawesome.com License - https://fontawesome.com/license (Commercial License) Copyright 2025 Fonticons, Inc. --><path fill="currentColor" d="M160 128C142.3 128 128 142.3 128 160L128 480C128 497.7 142.3 512 160 512L480 512C497.7 512 512 497.7 512 480L512 160C512 142.3 497.7 128 480 128L160 128zM96 160C96 124.7 124.7 96 160 96L480 96C515.3 96 544 124.7 544 160L544 480C544 515.3 515.3 544 480 544L160 544C124.7 544 96 515.3 96 480L96 160zM208 192C340.5 192 448 299.5 448 432C448 440.8 440.8 448 432 448C423.2 448 416 440.8 416 432C416 317.1 322.9 224 208 224C199.2 224 192 216.8 192 208C192 199.2 199.2 192 208 192zM216 400C229.3 400 240 410.7 240 424C240 437.3 229.3 448 216 448C202.7 448 192 437.3 192 424C192 410.7 202.7 400 216 400zM192 304C192 295.2 199.2 288 208 288C287.5 288 352 352.5 352 432C352 440.8 344.8 448 336 448C327.2 448 320 440.8 320 432C320 370.1 269.9 320 208 320C199.2 320 192 312.8 192 304z"/></svg>