<svg xmlns="http://www.w3.org/2000/svg" viewBox="0 0 640 640"><!--! Font Awesome Pro 7.1.0 by @fontawesome - https://fontawesome.com License - https://fontawesome.com/license (Commercial License) Copyright 2025 Fonticons, Inc. --><path fill="currentColor" d="M480 96C515.3 96 544 124.7 544 160L544 480C544 515.3 515.3 544 480 544L160 544C124.7 544 96 515.3 96 480L96 160C96 124.7 124.7 96 160 96L480 96zM160 128C142.3 128 128 142.3 128 160L128 480C128 497.7 142.3 512 160 512L480 512C497.7 512 512 497.7 512 480L512 160C512 142.3 497.7 128 480 128L160 128zM403.1 230.6C408.3 223.5 418.3 221.9 425.4 227.1C432.5 232.3 434.1 242.3 428.9 249.4L300.9 425.4C298.1 429.2 293.9 431.6 289.2 431.9C284.5 432.2 279.9 430.6 276.6 427.3L212.6 363.3C206.4 357.1 206.4 346.9 212.6 340.7C218.8 334.5 229 334.5 235.2 340.7L285.9 391.4L402.9 230.6z"/></svg>