<svg xmlns="http://www.w3.org/2000/svg" viewBox="0 0 640 640"><!--! Font Awesome Pro 7.1.0 by @fontawesome - https://fontawesome.com License - https://fontawesome.com/license (Commercial License) Copyright 2025 Fonticons, Inc. --><path fill="currentColor" d="M160 128C142.3 128 128 142.3 128 160L128 480C128 497.7 142.3 512 160 512L480 512C497.7 512 512 497.7 512 480L512 160C512 142.3 497.7 128 480 128L160 128zM96 160C96 124.7 124.7 96 160 96L480 96C515.3 96 544 124.7 544 160L544 480C544 515.3 515.3 544 480 544L160 544C124.7 544 96 515.3 96 480L96 160zM384 240L384 344C384 383.8 351.8 416 312 416C272.2 416 240 383.8 240 344L240 336C240 327.2 247.2 320 256 320C264.8 320 272 327.2 272 336L272 344C272 366.1 289.9 384 312 384C334.1 384 352 366.1 352 344L352 240C352 231.2 359.2 224 368 224C376.8 224 384 231.2 384 240z"/></svg>