<svg xmlns="http://www.w3.org/2000/svg" viewBox="0 0 640 640"><!--! Font Awesome Pro 7.1.0 by @fontawesome - https://fontawesome.com License - https://fontawesome.com/license (Commercial License) Copyright 2025 Fonticons, Inc. --><path fill="currentColor" d="M160 128C142.3 128 128 142.3 128 160L128 480C128 497.7 142.3 512 160 512L480 512C497.7 512 512 497.7 512 480L512 160C512 142.3 497.7 128 480 128L160 128zM96 160C96 124.7 124.7 96 160 96L480 96C515.3 96 544 124.7 544 160L544 480C544 515.3 515.3 544 480 544L160 544C124.7 544 96 515.3 96 480L96 160zM268.5 230L320 294.4L371.5 230C377 223.1 387.1 222 394 227.5C400.9 233 402 243.1 396.5 250L340.5 320L396.5 390C402 396.9 400.9 407 394 412.5C387.1 418 377 416.9 371.5 410L320 345.6L268.5 410C263 416.9 252.9 418 246 412.5C239.1 407 238 396.9 243.5 390L299.5 320L243.5 250C238 243.1 239.1 233 246 227.5C252.9 222 263 223.1 268.5 230z"/></svg>