<svg xmlns="http://www.w3.org/2000/svg" viewBox="0 0 640 640"><!--! Font Awesome Pro 7.1.0 by @fontawesome - https://fontawesome.com License - https://fontawesome.com/license (Commercial License) Copyright 2025 Fonticons, Inc. --><path fill="currentColor" d="M160 128C142.3 128 128 142.3 128 160L128 480C128 497.7 142.3 512 160 512L480 512C497.7 512 512 497.7 512 480L512 160C512 142.3 497.7 128 480 128L160 128zM96 160C96 124.7 124.7 96 160 96L480 96C515.3 96 544 124.7 544 160L544 480C544 515.3 515.3 544 480 544L160 544C124.7 544 96 515.3 96 480L96 160zM224 272C224 263.2 231.2 256 240 256L400 256C408.8 256 416 263.2 416 272C416 280.8 408.8 288 400 288L240 288C231.2 288 224 280.8 224 272zM224 368C224 359.2 231.2 352 240 352L400 352C408.8 352 416 359.2 416 368C416 376.8 408.8 384 400 384L240 384C231.2 384 224 376.8 224 368z"/></svg>