<svg xmlns="http://www.w3.org/2000/svg" viewBox="0 0 640 640"><!--! Font Awesome Pro 7.1.0 by @fontawesome - https://fontawesome.com License - https://fontawesome.com/license (Commercial License) Copyright 2025 Fonticons, Inc. --><path fill="currentColor" d="M160 128C142.3 128 128 142.3 128 160L128 480C128 497.7 142.3 512 160 512L480 512C497.7 512 512 497.7 512 480L512 160C512 142.3 497.7 128 480 128L160 128zM96 160C96 124.7 124.7 96 160 96L480 96C515.3 96 544 124.7 544 160L544 480C544 515.3 515.3 544 480 544L160 544C124.7 544 96 515.3 96 480L96 160zM256 208C256 199.2 263.2 192 272 192L352 192C396.2 192 432 227.8 432 272C432 316.2 396.2 352 352 352L288 352L288 384L352 384C360.8 384 368 391.2 368 400C368 408.8 360.8 416 352 416L288 416L288 432C288 440.8 280.8 448 272 448C263.2 448 256 440.8 256 432L256 416L224 416C215.2 416 208 408.8 208 400C208 391.2 215.2 384 224 384L256 384L256 352L224 352C215.2 352 208 344.8 208 336C208 327.2 215.2 320 224 320L256 320L256 208zM352 320C378.5 320 400 298.5 400 272C400 245.5 378.5 224 352 224L288 224L288 320L352 320z"/></svg>