<svg xmlns="http://www.w3.org/2000/svg" viewBox="0 0 640 640"><!--! Font Awesome Pro 7.1.0 by @fontawesome - https://fontawesome.com License - https://fontawesome.com/license (Commercial License) Copyright 2025 Fonticons, Inc. --><path fill="currentColor" d="M308.6 68.7C312.1 65.2 316.9 63.5 321.8 64.1L455.1 79.8C483.3 73.3 514.4 68.3 548.9 65C563.9 63.6 576.5 76.2 575.1 91.2C571.8 125.6 566.7 156.8 560.3 185L576 318.2C576.6 323.1 574.9 328 571.4 331.4C567.9 334.8 563 336.5 558.1 335.9L501.1 328.8C493.8 339.5 486.2 349.2 478.3 357.9C434.4 406.8 383.6 426.1 341.4 430.8L381.5 470.9C387.6 477 397.4 477.2 403.7 471.3L470.5 409.3C489.4 391.7 518.8 392.3 537.1 410.5L571.3 444.7C577.3 450.7 577.6 460.2 572 466.6L561 479.1C530.5 513.9 476.9 515.7 444.2 483L441.3 480.1L425.4 494.8C406.5 512.4 377.1 511.8 358.8 493.6L308.5 443.3L278.4 464L316.5 502.1C335.2 520.8 335.2 551.2 316.5 570L315.1 571.4C308.9 577.6 298.7 577.6 292.5 571.4C286.3 565.2 286.3 555 292.5 548.8L293.9 547.4C300.1 541.2 300.1 531 293.9 524.8L251.6 482.5L217.2 506.1C211.4 510.1 208.1 516.6 208.2 523.6C208.4 535 217.7 544.1 229 544.1L240.7 544.1C249.5 544.1 256.7 551.3 256.7 560.1C256.7 568.9 249.5 576.1 240.7 576.1L229 576.1C200.1 576.1 176.6 553 176.2 524.1C175.9 506.4 184.5 489.7 199.1 479.7L228.6 459.4L180.5 411.3L159.8 441.4C150.2 455.6 134.2 464 117 464C88.2 464 64.9 440.7 64.9 411.9L64.9 400C64.9 391.2 72.1 384 80.9 384C89.7 384 96.9 391.2 96.9 400L96.9 411.9C96.9 423 105.9 432 117 432C123.6 432 129.8 428.7 133.6 423.3L157.7 388.3L115.4 346C109.2 339.8 99 339.8 92.8 346L91.4 347.4C85.2 353.6 75 353.6 68.8 347.4C62.6 341.2 62.6 331 68.8 324.8L70.2 323.4C88.9 304.7 119.3 304.7 138.1 323.4L176.2 361.5L196.9 331.4L146.6 281.1C128.3 262.8 127.8 233.4 145.4 214.5L160.1 198.6L157.2 195.7C124.3 163 126.1 109.4 160.9 78.9L173.5 68C179.8 62.5 189.4 62.8 195.3 68.7L229.5 102.9C247.8 121.2 248.3 150.6 230.7 169.5L168.7 236.3C162.8 242.6 163 252.4 169.1 258.5L209.2 298.6C213.9 256.4 233.2 205.6 282.1 161.7C290.9 153.8 300.6 146.2 311.2 138.9L304.1 81.9C303.5 77 305.2 72.1 308.6 68.6zM341.2 120.8C353 114.5 365.7 108.6 379.4 103.1L338.4 98.3L341.2 120.8zM199.1 384.5L255.5 440.9L300.7 409.8C310.2 403.3 320.9 400.3 331.3 399.5C367.6 396.9 414 381.5 454.5 336.4C494.1 292.3 529.1 218.6 542.2 97.7C421.3 110.8 347.6 145.8 303.5 185.4C258.4 225.9 243 272.3 240.4 308.6C239.7 318.9 236.6 329.7 230.1 339.2L199 384.4zM519.2 298.8L541.8 301.6L537 260.6C531.5 274.3 525.6 287 519.3 298.8zM181.8 175.2L207.3 147.7C213.2 141.4 213 131.6 206.9 125.5L183.3 101.9L182 103C161.1 121.3 160 153.4 179.7 173.1L181.8 175.2zM464.8 458.2L466.9 460.3C486.5 479.9 518.7 478.9 537 458L538.1 456.7L514.5 433.1C508.4 427 498.6 426.8 492.3 432.7L464.8 458.2zM272.9 384C272.9 375.2 280.1 368 288.9 368C297.7 368 304.9 375.2 304.9 384C304.9 392.8 297.7 400 288.9 400C280.1 400 272.9 392.8 272.9 384zM256.9 336C265.7 336 272.9 343.2 272.9 352C272.9 360.8 265.7 368 256.9 368C248.1 368 240.9 360.8 240.9 352C240.9 343.2 248.1 336 256.9 336z"/></svg>