<svg xmlns="http://www.w3.org/2000/svg" viewBox="0 0 640 640"><!--! Font Awesome Pro 7.1.0 by @fontawesome - https://fontawesome.com License - https://fontawesome.com/license (Commercial License) Copyright 2025 Fonticons, Inc. --><path fill="currentColor" d="M295.6 18.4C300.3 15.5 306.2 15.2 311.2 17.7L407.2 65.7C412.6 68.4 416 73.9 416 80C416 86.1 412.6 91.6 407.2 94.3L320 137.9L320 160C379.1 160 434.2 167 480 179.3L480 64C480 58.5 482.9 53.3 487.6 50.4C492.3 47.5 498.2 47.2 503.2 49.7L599.2 97.7C604.6 100.4 608 106 608 112C608 118 604.6 123.6 599.2 126.3L512 169.9L512 189.3C514 190 516.1 190.8 518 191.5C543.7 201.3 565.6 213.4 581.3 227.6C597 241.8 608 259.5 608 280L608 472C608 492.5 597.1 510.1 581.4 524.4C565.7 538.7 543.8 550.7 518.1 560.5C466.6 580.2 396.6 592 320 592C243.4 592 173.4 580.2 122 560.5C96.3 550.7 74.4 538.6 58.7 524.4C43 510.2 32 492.5 32 472L32 280C32 259.5 42.9 241.9 58.6 227.6C68.7 218.5 81.4 210.2 96 202.8L96 64C96 58.5 98.9 53.3 103.6 50.4C108.3 47.5 114.2 47.2 119.2 49.7L215.2 97.7C220.6 100.4 224 106 224 112C224 118 220.6 123.6 215.2 126.3L128 169.9L128 189.3C171.4 173.7 226.9 163.4 288 160.7L288 32C288 26.5 290.9 21.3 295.6 18.4zM512 134.1L556.2 112L512 89.9L512 134.1zM320 102.1L364.2 80L320 57.9L320 102.1zM128 121.4L128 134.1L172.2 112L128 89.9L128 121.4zM436.9 202.4C401.9 195.8 362.2 192.1 320 192.1C277.8 192.1 238.1 195.9 203.1 202.4L267.4 292.4C284.3 290.9 301.9 290 320.1 290C338.3 290 355.9 290.8 372.8 292.4L437.1 202.4zM470.8 210L408.7 296.9C421.5 299 433.7 301.6 445 304.5C473 311.8 497.7 322.1 514.4 335.4C534.1 327.2 549.4 318 559.8 308.6C571.6 297.9 575.9 288.3 575.9 280C575.9 271.7 571.6 262 559.8 251.4C548 240.8 530.1 230.4 506.5 221.4C495.6 217.2 483.6 213.4 470.7 210zM133.4 221.4C109.9 230.4 91.9 240.7 80.1 251.4C68.3 262.1 64 271.7 64 280L64 280C64 288.3 68.3 298 80.1 308.6C90.5 318 105.8 327.2 125.5 335.4C142.3 322.1 167 311.8 194.9 304.5C206.2 301.5 218.4 299 231.2 296.9L169.2 210C156.3 213.4 144.4 217.2 133.4 221.4zM576 472L576 336.9C560.8 349.2 540.9 359.7 518 368.5C466.5 388.2 396.5 400 320 400C243.5 400 173.4 388.2 122 368.5C99.1 359.8 79.2 349.2 64 336.9L64 472C64 480.3 68.3 490 80.1 500.6C91.9 511.2 109.8 521.6 133.4 530.6C162.5 541.7 199 550.4 240 555.3L240 512C240 467.8 275.8 432 320 432C364.2 432 400 467.8 400 512L400 555.3C441 550.3 477.5 541.7 506.6 530.6C530.1 521.6 548.1 511.3 559.9 500.6C571.7 489.9 576 480.3 576 472zM368 558.3L368 512C368 485.5 346.5 464 320 464C293.5 464 272 485.5 272 512L272 558.3C287.5 559.4 303.6 560 320 560C336.4 560 352.5 559.4 368 558.3zM320 368C378.4 368 432 360.8 475.1 348.9C464.9 344.1 452.1 339.5 436.9 335.5C404.7 327.1 364.2 322 319.9 322C275.6 322 235.1 327.1 202.9 335.5C187.7 339.5 175 344.1 164.7 348.9C207.8 360.8 261.4 368 319.8 368z"/></svg>