<svg xmlns="http://www.w3.org/2000/svg" viewBox="0 0 640 640"><!--! Font Awesome Pro 7.1.0 by @fontawesome - https://fontawesome.com License - https://fontawesome.com/license (Commercial License) Copyright 2025 Fonticons, Inc. --><path fill="currentColor" d="M348.2 108.2L341 122.5C329.1 146.2 338.8 175 362.5 186.9C386.2 198.8 415 189.1 426.9 165.4C428.6 162 432 159.9 435.7 159.9L464 160C472.8 160 480 167.2 480 176L480 223.7C480 230.8 475.3 237.1 468.4 239.1L298.8 287.6C285.7 291.3 273.8 298.3 264.2 308L224.8 347.4C221.8 350.4 217.7 352.1 213.5 352.1L176 352C167.2 352 160 359.2 160 368L160 405.5C160 409.7 158.3 413.8 155.3 416.8L78.1 494.1C59.4 512.8 59.4 543.2 78.1 562C96.8 580.8 127.2 580.7 146 562L326.2 381.7C328.1 379.8 330.5 378.4 333.1 377.6L418.6 353.2C422.7 352 427.1 352.5 430.9 354.6L463.7 373.1C471.4 377.4 481.2 374.7 485.5 367L504.5 333.4C506.6 329.7 510 327 514 325.9L517.9 324.8C552.2 315 575.9 283.6 575.9 247.9L576 144C576 99.8 540.2 64 496 64L419.8 64C389.5 64 361.8 81.1 348.2 108.2zM419.8 96L496 96C522.5 96 544 117.5 544 144L544 247.9C544 269.3 529.8 288.2 509.2 294.1L505.3 295.2C493.2 298.7 482.9 306.8 476.7 317.8L465.6 337.5L446.7 326.8C435.5 320.5 422.3 318.9 409.9 322.4L324.4 346.8C316.6 349 309.4 353.2 303.6 359L123.3 539.3C117.1 545.5 106.9 545.5 100.7 539.3C94.5 533.1 94.5 522.9 100.7 516.7L178 439.4C187 430.4 192.1 418.2 192.1 405.5L192.1 384L213.6 384C226.3 384 238.5 378.9 247.5 369.9L286.9 330.5C292.7 324.7 299.8 320.5 307.7 318.3L477.3 269.8C497.9 263.9 512.1 245.1 512.1 223.6L512.1 175.9C512.1 149.4 490.6 127.9 464.1 127.9L435.9 127.9C420 127.9 405.5 136.9 398.4 151.1C394.4 159 384.8 162.2 376.9 158.3C369 154.4 365.8 144.7 369.7 136.8L376.9 122.5C385 106.3 401.6 96 419.8 96z"/></svg>