<svg xmlns="http://www.w3.org/2000/svg" viewBox="0 0 640 640"><!--! Font Awesome Pro 7.1.0 by @fontawesome - https://fontawesome.com License - https://fontawesome.com/license (Commercial License) Copyright 2025 Fonticons, Inc. --><path fill="currentColor" d="M448 112C448 103.2 455.2 96 464 96L592 96C600.8 96 608 103.2 608 112C608 120.8 600.8 128 592 128L480 128L480 240C480 248.8 472.8 256 464 256L336 256L336 400C336 408.8 328.8 416 320 416L192 416L192 528C192 536.8 184.8 544 176 544L48 544C39.2 544 32 536.8 32 528C32 519.2 39.2 512 48 512L160 512L160 400C160 391.2 167.2 384 176 384L304 384L304 240C304 231.2 311.2 224 320 224L448 224L448 112z"/></svg>