<svg xmlns="http://www.w3.org/2000/svg" viewBox="0 0 640 640"><!--! Font Awesome Pro 7.1.0 by @fontawesome - https://fontawesome.com License - https://fontawesome.com/license (Commercial License) Copyright 2025 Fonticons, Inc. --><path fill="currentColor" d="M374.4 193.8C380.5 184 384 172.5 384 160C384 124.7 355.3 96 320 96C284.7 96 256 124.7 256 160C256 172.5 259.5 184 265.6 193.8C275.1 209 288 231.7 288 258.9C288 310.3 246.3 352 194.9 352L176 352C131.8 352 96 387.8 96 432C96 440.8 103.2 448 112 448L528 448C536.8 448 544 440.8 544 432C544 387.8 508.2 352 464 352L445.1 352C393.7 352 352 310.3 352 258.9C352 231.8 364.9 209 374.4 193.8zM401.6 210.7C392.4 225.5 384.1 241.5 384.1 258.9C384.1 292.7 411.5 320 445.2 320L464.1 320C526 320 576.1 370.1 576.1 432C576.1 458.5 554.6 480 528.1 480L112 480C85.5 480 64 458.5 64 432C64 370.1 114.1 320 176 320L194.9 320C228.7 320 256 292.6 256 258.9C256 241.5 247.7 225.5 238.5 210.7C229.3 196 224 178.6 224 160C224 107 267 64 320 64C373 64 416 107 416 160C416 178.6 410.7 196 401.5 210.7zM112 544L528 544C536.8 544 544 551.2 544 560C544 568.8 536.8 576 528 576L112 576C103.2 576 96 568.8 96 560C96 551.2 103.2 544 112 544z"/></svg>