<svg xmlns="http://www.w3.org/2000/svg" viewBox="0 0 640 640"><!--! Font Awesome Pro 7.1.0 by @fontawesome - https://fontawesome.com License - https://fontawesome.com/license (Commercial License) Copyright 2025 Fonticons, Inc. --><path fill="currentColor" d="M512 160C529.7 160 544 174.3 544 192L544 448C544 465.7 529.7 480 512 480L128 480C110.3 480 96 465.7 96 448L96 192C96 174.3 110.3 160 128 160L512 160zM128 128C92.7 128 64 156.7 64 192L64 448C64 483.3 92.7 512 128 512L512 512C547.3 512 576 483.3 576 448L576 192C576 156.7 547.3 128 512 128L128 128zM160 275.8L160 284.1C160 312.7 183.2 335.9 211.8 335.9L252.1 335.9C263.1 335.9 271.9 344.8 271.9 355.7L271.9 364C271.9 375 263 383.8 252.1 383.8L184 384C175.2 384 168 391.2 168 400C168 408.8 175.2 416 184 416L252.2 416C280.8 416 304 392.8 304 364.2L304 355.9C304 327.3 280.8 304.1 252.2 304.1L211.9 304.1C200.9 304.1 192.1 295.2 192.1 284.3L192.1 276C192.1 265 201 256.2 211.9 256.2L280.1 256.2C288.9 256.2 296.1 249 296.1 240.2C296.1 231.4 288.9 224.2 280.1 224.2L211.9 224.2C183.2 224 160 247.2 160 275.8zM352 224C343.2 224 336 231.2 336 240L336 400C336 408.8 343.2 416 352 416L408 416C447.8 416 480 383.8 480 344L480 296C480 256.2 447.8 224 408 224L352 224zM368 384L368 256L408 256C430.1 256 448 273.9 448 296L448 344C448 366.1 430.1 384 408 384L368 384z"/></svg>