<svg xmlns="http://www.w3.org/2000/svg" viewBox="0 0 640 640"><!--! Font Awesome Pro 7.1.0 by @fontawesome - https://fontawesome.com License - https://fontawesome.com/license (Commercial License) Copyright 2025 Fonticons, Inc. --><path fill="currentColor" d="M448 448L448 512L48 512C39.2 512 32 519.2 32 528C32 536.8 39.2 544 48 544L560 544C604.2 544 640 508.2 640 464L640 363.3C640 326.9 619.5 293.7 586.9 277.4L260.7 114.4C236.6 102.3 209.9 96 182.9 96C128.2 96 76.7 121.8 43.8 165.6L11.5 208.7C4 218.6 0 230.7 0 243.1C0 269.5 17.9 292.5 43.5 298.9L72 306L72 416C72 433.7 86.3 448 104 448L448 448zM448 416L104 416L104 314L448 400L448 416zM560 512L480 512L480 400C480 385.3 470 372.5 455.8 369L51.3 267.8C40 265 32 254.8 32 243.1C32 237.6 33.8 232.2 37.1 227.8L69.4 184.7C96.2 149 138.3 128 182.9 128C205 128 226.7 133.1 246.4 143L572.6 306.1C594.3 316.9 608 339.1 608 363.3L608 464C608 490.5 586.5 512 560 512z"/></svg>