<svg xmlns="http://www.w3.org/2000/svg" viewBox="0 0 640 640"><!--! Font Awesome Pro 7.1.0 by @fontawesome - https://fontawesome.com License - https://fontawesome.com/license (Commercial License) Copyright 2025 Fonticons, Inc. --><path fill="currentColor" d="M320 96C443.7 96 544 196.3 544 320C544 443.7 443.7 544 320 544C196.3 544 96 443.7 96 320C96 196.3 196.3 96 320 96zM320 576C461.4 576 576 461.4 576 320C576 178.6 461.4 64 320 64C178.6 64 64 178.6 64 320C64 461.4 178.6 576 320 576zM334.2 180.7C331.5 175.3 326 172 319.9 172C313.8 172 308.4 175.4 305.6 180.7L269.7 251L191.8 263.4C185.9 264.3 181 268.5 179.1 274.3C177.2 280.1 178.7 286.3 183 290.6L238.8 346.4L226.5 424.3C225.6 430.2 228 436.2 232.9 439.7C237.8 443.2 244.2 443.7 249.6 441L320 405.3L390.3 441C395.7 443.7 402.1 443.2 407 439.7C411.9 436.2 414.3 430.2 413.4 424.3L401.1 346.4L456.9 290.6C461.1 286.3 462.7 280.1 460.8 274.3C458.9 268.5 454 264.4 448.1 263.4L370.2 251L334.3 180.7zM294.6 272.8L319.9 223.2L345.2 272.8C347.5 277.4 351.9 280.5 356.9 281.3L411.9 290L372.5 329.4C368.9 333 367.2 338.1 368 343.2L376.7 398.2L327.1 372.9C322.5 370.6 317.1 370.6 312.6 372.9L263 398.2L271.7 343.2C272.5 338.1 270.8 333 267.2 329.4L227.8 290L282.8 281.3C287.9 280.5 292.2 277.3 294.5 272.8z"/></svg>