<svg xmlns="http://www.w3.org/2000/svg" viewBox="0 0 640 640"><!--! Font Awesome Pro 7.1.0 by @fontawesome - https://fontawesome.com License - https://fontawesome.com/license (Commercial License) Copyright 2025 Fonticons, Inc. --><path fill="currentColor" d="M379.3 91.3C385.5 85.1 385.5 74.9 379.3 68.7C373.1 62.5 362.9 62.5 356.7 68.7L292.7 132.7C286.5 138.9 286.5 149.1 292.7 155.3C298.9 161.5 309.1 161.5 315.3 155.3L379.3 91.3zM571.3 91.3C577.5 85.1 577.5 74.9 571.3 68.7C565.1 62.5 554.9 62.5 548.7 68.7L388.7 228.7C382.5 234.9 382.5 245.1 388.7 251.3C394.9 257.5 405.1 257.5 411.3 251.3L571.3 91.3zM571.3 283.3C577.5 277.1 577.5 266.9 571.3 260.7C565.1 254.5 554.9 254.5 548.7 260.7L484.7 324.7C478.5 330.9 478.5 341.1 484.7 347.3C490.9 353.5 501.1 353.5 507.3 347.3L571.3 283.3zM192.7 347.1C203.1 345.6 212.1 339 216.8 329.6L255.9 250.2L295 329.6C299.7 339.1 308.7 345.6 319.1 347.1L406.6 359.8L343.2 421.7C335.7 429 332.2 439.6 334 450L349 537.3L270.8 496.1C261.5 491.2 250.3 491.2 241 496.1L162.8 537.3L177.8 450C179.6 439.6 176.1 429.1 168.6 421.7L105.2 359.8L192.7 347.1zM277.4 221.5C268.6 203.6 243.1 203.6 234.3 221.5L188 315.5L84.5 330.6C64.9 333.3 57 357.5 71.3 371.4L146.2 444.6L128.5 547.9C125.1 567.5 145.7 582.5 163.3 573.2L255.9 524.4L348.5 573.2C366.1 582.5 386.7 567.5 383.3 547.9L365.6 444.6L440.5 371.4C454.7 357.5 446.9 333.3 427.2 330.5L323.7 315.4L277.4 221.4z"/></svg>