<svg xmlns="http://www.w3.org/2000/svg" viewBox="0 0 640 640"><!--! Font Awesome Pro 7.1.0 by @fontawesome - https://fontawesome.com License - https://fontawesome.com/license (Commercial License) Copyright 2025 Fonticons, Inc. --><path fill="currentColor" d="M256.1 112C256.1 85.5 277.6 64 304.1 64L336.1 64C362.6 64 384.1 85.5 384.1 112L384.1 209.1L468.2 160.5C491.2 147.2 520.5 155.1 533.8 178.1L549.8 205.8C563.1 228.8 555.2 258.1 532.2 271.4L448.1 320L532.2 368.6C555.2 381.9 563 411.2 549.8 434.2L533.8 461.9C520.5 484.9 491.2 492.7 468.2 479.5L384.1 430.9L384.1 528C384.1 554.5 362.6 576 336.1 576L304.1 576C277.6 576 256.1 554.5 256.1 528L256.1 430.9L172 479.5C149 492.8 119.7 484.9 106.4 461.9L90.4 434.2C77.1 411.2 85 381.9 108 368.6L192.1 320L108 271.4L108 271.4C85 258.1 77.2 228.8 90.4 205.8L106.4 178.1C119.7 155.1 149 147.3 172 160.5L256.1 209.1L256.1 112zM304.1 96C295.3 96 288.1 103.2 288.1 112L288.1 236.9C288.1 242.6 285.1 247.9 280.1 250.8C275.1 253.7 269.1 253.7 264.1 250.8L156 188.3C148.3 183.9 138.6 186.5 134.1 194.2L118.1 221.9C113.7 229.6 116.3 239.3 124 243.8L232.1 306.2C237.1 309.1 240.1 314.3 240.1 320.1C240.1 325.9 237.1 331.1 232.1 334L124 396.3C116.3 400.7 113.7 410.5 118.1 418.2L134.1 445.9C138.5 453.6 148.3 456.2 156 451.8L264.1 389.4C269.1 386.5 275.1 386.5 280.1 389.4C285.1 392.3 288.1 397.5 288.1 403.3L288.1 528.2C288.1 537 295.3 544.2 304.1 544.2L336.1 544.2C344.9 544.2 352.1 537 352.1 528.2L352.1 403.3C352.1 397.6 355.1 392.3 360.1 389.4C365.1 386.5 371.1 386.5 376.1 389.4L484.2 451.8C491.9 456.2 501.6 453.6 506.1 445.9L522.1 418.2C526.5 410.5 523.9 400.8 516.2 396.3L408.1 333.9C403.1 331 400.1 325.8 400.1 320C400.1 314.2 403.1 309 408.1 306.1L516.2 243.7C523.9 239.3 526.5 229.5 522.1 221.8L506.1 194.1C501.7 186.4 491.9 183.8 484.2 188.2L376.1 250.7C371.1 253.6 365.1 253.6 360.1 250.7C355.1 247.8 352.1 242.6 352.1 236.8L352.1 111.9C352.1 103.1 344.9 95.9 336.1 95.9L304.1 95.9z"/></svg>