<svg xmlns="http://www.w3.org/2000/svg" viewBox="0 0 640 640"><!--! Font Awesome Pro 7.1.0 by @fontawesome - https://fontawesome.com License - https://fontawesome.com/license (Commercial License) Copyright 2025 Fonticons, Inc. --><path fill="currentColor" d="M341.5 45.1L415 189.3L574.9 214.7C583.8 216.1 591.2 222.4 594 231C596.8 239.6 594.5 249 588.2 255.4L473.7 369.9L499 529.8C500.4 538.7 496.7 547.7 489.4 553C482.1 558.3 472.4 559.1 464.4 555L320.1 481.6L175.8 555C167.8 559.1 158.1 558.3 150.8 553C143.5 547.7 139.8 538.8 141.2 529.8L166.4 369.9L52 255.4C45.6 249 43.4 239.6 46.2 231C49 222.4 56.3 216.1 65.3 214.7L225.2 189.3L298.8 45.1C302.9 37.1 311.2 32 320.2 32C329.2 32 337.5 37.1 341.6 45.1zM386.6 203.8L336.1 104.9L336.1 453.7L464.9 519.2L442.1 374.8C440.5 364.7 443.8 354.4 451.1 347.2L554.4 243.7L410 220.7C399.9 219.1 391.2 212.8 386.5 203.6zM304.1 104.9L253.6 203.8C249 212.9 240.2 219.3 230.1 220.9L85.7 243.9L189 347.4C196.2 354.6 199.6 364.9 198 375L175.2 519.4L304 453.9L304 105z"/></svg>