<svg xmlns="http://www.w3.org/2000/svg" viewBox="0 0 640 640"><!--! Font Awesome Pro 7.1.0 by @fontawesome - https://fontawesome.com License - https://fontawesome.com/license (Commercial License) Copyright 2025 Fonticons, Inc. --><path fill="currentColor" d="M320 141.8L270.8 262.1C268.3 268.1 262.5 272 256 272L107.3 272L233.3 363C238.8 367 241.2 374.1 239.2 380.6L195.5 524.6L320 427.7L320 141.8zM312 76.9C315.2 69.1 322.8 64 331.2 64C342.7 64 352 73.3 352 84.8L352 435.6C352 440.5 349.7 445.2 345.8 448.2L187.1 571.6C183.5 574.4 179 576 174.4 576C160.5 576 150.5 562.6 154.6 549.2L205.4 382.2L75.1 288.1C68.2 283.1 64.1 275.1 64.1 266.5C64.1 251.8 76 239.9 90.7 239.9L245.3 240L312 76.9z"/></svg>