<svg xmlns="http://www.w3.org/2000/svg" viewBox="0 0 640 640"><!--! Font Awesome Pro 7.1.0 by @fontawesome - https://fontawesome.com License - https://fontawesome.com/license (Commercial License) Copyright 2025 Fonticons, Inc. --><path fill="currentColor" d="M269.5 99C272 79 289 64 309.2 64L330.8 64C351 64 368 79 370.5 99L398.1 320C398.7 320 399.3 319.9 400 319.9L448 319.9C465.7 319.9 480 334.2 480 351.9L576 351.9L576 223.9L560 223.9C551.2 223.9 544 216.7 544 207.9C544 199.1 551.2 191.9 560 191.9L576 191.9L576 159.9C576 151.1 583.2 143.9 592 143.9C600.8 143.9 608 151.1 608 159.9L608 191.9L624 191.9C632.8 191.9 640 199.1 640 207.9C640 216.7 632.8 223.9 624 223.9L608 223.9L608 511.9C608 520.7 600.8 527.9 592 527.9C583.2 527.9 576 520.7 576 511.9L576 457.8L480 505.8L480 511.9C480 529.6 465.7 543.9 448 543.9L400 543.9C391.8 543.9 384.4 540.8 378.7 535.8C371.1 540.9 361.9 543.9 352 543.9L288 543.9C278.1 543.9 268.9 540.9 261.3 535.8C255.6 540.8 248.2 543.9 240 543.9L192 543.9C174.3 543.9 160 529.6 160 511.9L160 505.8L64 457.8L64 511.9C64 520.7 56.8 527.9 48 527.9C39.2 527.9 32 520.7 32 511.9L32 223.9L16 223.9C7.2 223.9 0 216.7 0 207.9C0 199.1 7.2 191.9 16 191.9L32 191.9L32 159.9C32 151.1 39.2 143.9 48 143.9C56.8 143.9 64 151.1 64 159.9L64 191.9L80 191.9C88.8 191.9 96 199.1 96 207.9C96 216.7 88.8 223.9 80 223.9L64 223.9L64 351.9L160 351.9C160 334.2 174.3 319.9 192 319.9L240 319.9C240.6 319.9 241.3 319.9 241.9 320L269.5 99zM576 384L480 384L480 470.1L576 422.1L576 384zM448 384L448 352L400 352L400 512L448 512L448 384zM64 422.1L160 470.1L160 384L64 384L64 422.1zM192 512L240 512L240 352L192 352L192 512zM368 496L368 337L338.8 103C338.3 99 334.9 96 330.9 96L309.3 96C305.3 96 301.9 99 301.4 103L272 337L272 496C272 504.8 279.2 512 288 512L352 512C360.8 512 368 504.8 368 496zM320 288C328.8 288 336 295.2 336 304L336 368C336 376.8 328.8 384 320 384C311.2 384 304 376.8 304 368L304 304C304 295.2 311.2 288 320 288z"/></svg>