<svg xmlns="http://www.w3.org/2000/svg" viewBox="0 0 640 640"><!--! Font Awesome Pro 7.1.0 by @fontawesome - https://fontawesome.com License - https://fontawesome.com/license (Commercial License) Copyright 2025 Fonticons, Inc. --><path fill="currentColor" d="M0 176C0 149.5 21.5 128 48 128L208 128C234.5 128 256 149.5 256 176C256 202.5 234.5 224 208 224L161.2 224L208.8 258.6L268.9 250.4C296.8 178.8 366.5 128 448 128C554 128 640 214 640 320C640 426 554 512 448 512C366.5 512 296.8 461.2 269 389.6L208.9 381.4L161.3 416L208.1 416C234.6 416 256.1 437.5 256.1 464C256.1 490.5 234.6 512 208.1 512L48 512C21.5 512 0 490.5 0 464C0 437.5 21.5 416 48 416L106.8 416L163 375.1L141.5 372.2C115.5 368.6 96 346.3 96 320C96 293.7 115.5 271.4 141.5 267.8L163 264.9L106.8 224L48 224C21.5 224 0 202.5 0 176zM48 160C39.2 160 32 167.2 32 176C32 184.8 39.2 192 48 192L208 192C216.8 192 224 184.8 224 176C224 167.2 216.8 160 208 160L48 160zM145.9 299.5C135.6 300.9 128 309.7 128 320C128 330.3 135.6 339.1 145.9 340.5L259.4 356C257.2 344.4 256 332.3 256 320.1C256 307.9 257.2 295.8 259.4 284.2L145.9 299.5zM32 464C32 472.8 39.2 480 48 480L208 480C216.8 480 224 472.8 224 464C224 455.2 216.8 448 208 448L48 448C39.2 448 32 455.2 32 464zM448 480C536.4 480 608 408.4 608 320C608 231.6 536.4 160 448 160C359.6 160 288 231.6 288 320C288 408.4 359.6 480 448 480zM480 320C480 302.3 465.7 288 448 288C430.3 288 416 302.3 416 320C416 337.7 430.3 352 448 352C465.7 352 480 337.7 480 320zM384 320C384 284.7 412.7 256 448 256C483.3 256 512 284.7 512 320C512 355.3 483.3 384 448 384C412.7 384 384 355.3 384 320z"/></svg>