<svg xmlns="http://www.w3.org/2000/svg" viewBox="0 0 640 640"><!--! Font Awesome Pro 7.1.0 by @fontawesome - https://fontawesome.com License - https://fontawesome.com/license (Commercial License) Copyright 2025 Fonticons, Inc. --><path fill="currentColor" d="M320.1 32C329.1 32 337.4 37.1 341.5 45.1L415 189.3L574.9 214.7C583.8 216.1 591.2 222.4 594 231C596.8 239.6 594.5 249 588.2 255.4L473.7 369.9L499 529.8C500.4 538.7 496.7 547.7 489.4 553C482.1 558.3 472.5 559.1 464.4 555L320.1 481.6L175.8 555C167.8 559.1 158.1 558.3 150.8 553C143.5 547.7 139.8 538.8 141.2 529.8L166.4 369.9L52 255.4C45.6 249 43.4 239.6 46.2 231C49 222.4 56.4 216.1 65.3 214.7L225.2 189.3L298.8 45.1C302.9 37.1 311.2 32 320.2 32zM253.6 203.8C248.9 212.9 240.2 219.3 230.1 220.9L85.7 243.8L189.1 347.3C196.3 354.5 199.7 364.8 198.1 374.9L175.3 519.3L305.6 453C314.7 448.4 325.5 448.4 334.6 453L464.9 519.3L442.1 374.9C440.5 364.8 443.8 354.5 451.1 347.3L554.4 243.8L410 220.9C399.9 219.3 391.2 212.9 386.5 203.8L320.1 73.6L253.6 203.8zM320.1 416C306.8 416 296.1 405.3 296.1 392C296.1 378.7 306.8 368 320.1 368C333.4 368 344.1 378.7 344.1 392C344.1 405.3 333.4 416 320.1 416zM320.1 192C333.7 192 344.4 203.6 343.5 217.1L336.1 321.1C335.5 329.5 328.5 336 320.1 336C311.7 336 304.7 329.5 304.1 321.1L296.7 217.1C295.7 203.5 306.5 192 320.1 192z"/></svg>