<svg xmlns="http://www.w3.org/2000/svg" viewBox="0 0 640 640"><!--! Font Awesome Pro 7.1.0 by @fontawesome - https://fontawesome.com License - https://fontawesome.com/license (Commercial License) Copyright 2025 Fonticons, Inc. --><path fill="currentColor" d="M156.8 89.6C162.1 82.5 160.7 72.5 153.6 67.2C146.5 61.9 136.5 63.3 131.2 70.4L41.6 189.9C35.4 198.2 32 208.3 32 218.7L32 421.3C32 431.7 35.4 441.8 41.6 450.1L131.2 569.6C136.5 576.7 146.5 578.1 153.6 572.8C160.7 567.5 162.1 557.5 156.8 550.4L67.2 430.9C65.1 428.1 64 424.8 64 421.3L64 371.9L180.1 397.7C207.5 446.8 259.9 480 320 480C380.1 480 432.5 446.8 459.9 397.8L576 372L576 413.9C576 417.2 575 420.4 573.1 423.1L482.9 550.8C477.8 558 479.5 568 486.7 573.1C493.9 578.2 503.9 576.5 509 569.3L599.1 441.6C604.8 433.5 607.9 423.8 607.9 413.9L607.9 211.3C607.9 200.4 604.2 189.8 597.4 181.3L508.5 70C503 63.1 492.9 62 486 67.5C479.1 73 478 83.1 483.5 90L572.5 201.2C574.8 204 576 207.6 576 211.2L576 268L459.9 242.2C432.5 193.2 380.1 160 320 160C259.9 160 207.5 193.2 180.1 242.2L64 268.1L64 218.7C64 215.2 65.1 211.9 67.2 209.1L156.8 89.6zM474.5 278.3L576 300.9L576 339.2L474.5 361.8C478.1 348.5 480 334.5 480 320.1C480 305.7 478.1 291.7 474.5 278.4zM165.5 361.7L64 339.2L64 300.8L165.5 278.3C161.9 291.6 160 305.6 160 320C160 334.4 161.9 348.4 165.5 361.7zM320 192C390.7 192 448 249.3 448 320C448 390.7 390.7 448 320 448C249.3 448 192 390.7 192 320C192 249.3 249.3 192 320 192zM368 320C368 346.5 346.5 368 320 368C293.5 368 272 346.5 272 320C272 293.5 293.5 272 320 272C346.5 272 368 293.5 368 320zM320 240C275.8 240 240 275.8 240 320C240 364.2 275.8 400 320 400C364.2 400 400 364.2 400 320C400 275.8 364.2 240 320 240z"/></svg>