<svg xmlns="http://www.w3.org/2000/svg" viewBox="0 0 640 640"><!--! Font Awesome Pro 7.1.0 by @fontawesome - https://fontawesome.com License - https://fontawesome.com/license (Commercial License) Copyright 2025 Fonticons, Inc. --><path fill="currentColor" d="M409.1 435.9L347.5 349C350.4 339.8 352 330.1 352 320C352 267 309 224 256 224C203 224 160 267 160 320C160 373 203 416 256 416C256.6 416 257.1 416 257.7 416L318.4 501.7C298.8 508.4 277.9 512.1 256 512.1C150 512.1 64 426.1 64 320.1C64 214.1 150 128 256 128C360.4 128 445.3 211.3 447.9 315C448 318.2 448 321.7 447.9 325.2C446.8 366.7 432.5 405 409 435.9zM437.4 464L428.9 464L428.3 463.1C450.8 436 467 403.6 474.8 368L576 368L576 410.1L437.4 464zM492 477.1L587.6 439.9C599.9 435.1 608 423.3 608 410.1L608 368C608 350.3 593.7 336 576 336L479.4 336C480.2 325.4 480.1 314.6 479.4 304.2L479.4 304L576 304C593.7 304 608 289.7 608 272L608 229.9C608 216.7 599.9 204.9 587.6 200.1L379.6 119.2C340.2 103.9 298.3 96 256 96C132.3 96 32 196.3 32 320C32 443.7 132.3 544 256 544C284.7 544 313.1 540.4 340.8 533.3L354.3 552.4C364.8 567.2 381.8 576 400 576L456 576C486.9 576 512 550.9 512 520C512 502.8 504.2 487.4 492 477.1zM479.4 272L474.8 272C466.4 233.4 448 198.5 422.5 170.2L575.9 229.9L575.9 272L479.3 272zM112 336C120.8 336 128 328.8 128 320C128 311.2 120.8 304 112 304C103.2 304 96 311.2 96 320C96 328.8 103.2 336 112 336zM160 224C160 215.2 152.8 208 144 208C135.2 208 128 215.2 128 224C128 232.8 135.2 240 144 240C152.8 240 160 232.8 160 224zM144 432C152.8 432 160 424.8 160 416C160 407.2 152.8 400 144 400C135.2 400 128 407.2 128 416C128 424.8 135.2 432 144 432zM192 320C192 284.7 220.7 256 256 256C291.3 256 320 284.7 320 320C320 355.3 291.3 384 256 384C220.7 384 192 355.3 192 320zM380.2 533.6L294.3 408.1C309.3 401.6 322.3 391.3 332.2 378.5L412.7 496L456 496C469.3 496 480 506.7 480 520C480 533.3 469.3 544 456 544L400 544C392.1 544 384.7 540.1 380.2 533.6z"/></svg>