<svg xmlns="http://www.w3.org/2000/svg" viewBox="0 0 640 640"><!--! Font Awesome Pro 7.1.0 by @fontawesome - https://fontawesome.com License - https://fontawesome.com/license (Commercial License) Copyright 2025 Fonticons, Inc. --><path fill="currentColor" d="M304 157.9L304 440.2L195.5 524.6L239.3 380.7C241.3 374.2 238.9 367.1 233.4 363.1L107.4 272.1L256.1 272.1C263.1 272.1 269.2 267.6 271.3 261L304 157.9zM336 440.2L336 157.9L368.8 260.8C370.9 267.4 377.1 271.9 384 271.9L532.7 271.9L406.7 362.9C401.2 366.9 398.8 374 400.8 380.5L444.5 524.6L336 440.2zM320 64C308.3 64 297.9 71.6 294.3 82.8L244.3 240L90.6 240C75.9 240 64 251.9 64 266.6C64 275.1 68.1 283.2 75 288.2L205.3 382.3L154.5 549.3C150.4 562.6 160.4 576.1 174.3 576.1C178.9 576.1 183.4 574.6 187 571.7L320 468.3L452.9 571.6C456.5 574.4 461 576 465.6 576C479.5 576 489.5 562.6 485.4 549.2L434.6 382.2L564.9 288.1C571.8 283.1 575.9 275.1 575.9 266.5C575.9 251.8 564 239.9 549.3 239.9L395.6 239.9L345.6 82.7C342.1 71.6 331.7 64 320 64z"/></svg>