<svg xmlns="http://www.w3.org/2000/svg" viewBox="0 0 640 640"><!--! Font Awesome Pro 7.1.0 by @fontawesome - https://fontawesome.com License - https://fontawesome.com/license (Commercial License) Copyright 2025 Fonticons, Inc. --><path fill="currentColor" d="M416 80L416 144L480 144C488.8 144 496 151.2 496 160C496 168.8 488.8 176 480 176L416 176L416 240C416 248.8 408.8 256 400 256C391.2 256 384 248.8 384 240L384 176L320 176C311.2 176 304 168.8 304 160C304 151.2 311.2 144 320 144L384 144L384 80C384 71.2 391.2 64 400 64C408.8 64 416 71.2 416 80zM216.8 329.5C212.1 339 203.1 345.5 192.7 347L105.2 359.7L168.6 421.6C176.1 428.9 179.6 439.5 177.8 449.9L162.8 537.2L241 496C250.3 491.1 261.5 491.1 270.8 496L349 537.2L334 449.9C332.2 439.5 335.7 429 343.2 421.6L406.6 359.7L319.1 347C308.7 345.5 299.7 338.9 295 329.5L255.9 250.1L216.8 329.5zM234.4 221.4C243.2 203.5 268.7 203.5 277.5 221.4L323.8 315.4L427.3 330.5C447 333.4 454.8 357.5 440.6 371.4L365.7 444.6L383.4 547.9C386.8 567.5 366.2 582.5 348.6 573.2L256 524.4L163.4 573.2C145.8 582.5 125.2 567.5 128.6 547.9L146.2 444.6L71.3 371.4C57 357.5 64.9 333.3 84.6 330.5L188.1 315.4L234.4 221.4zM512 224C520.8 224 528 231.2 528 240L528 272L560 272C568.8 272 576 279.2 576 288C576 296.8 568.8 304 560 304L528 304L528 336C528 344.8 520.8 352 512 352C503.2 352 496 344.8 496 336L496 304L464 304C455.2 304 448 296.8 448 288C448 279.2 455.2 272 464 272L496 272L496 240C496 231.2 503.2 224 512 224z"/></svg>