<svg xmlns="http://www.w3.org/2000/svg" viewBox="0 0 640 640"><!--! Font Awesome Pro 7.1.0 by @fontawesome - https://fontawesome.com License - https://fontawesome.com/license (Commercial License) Copyright 2025 Fonticons, Inc. --><path fill="currentColor" d="M320 107.6L271.2 260.9C269.1 267.5 263 272 256 272L107.3 272L233.3 363C238.8 367 241.2 374.1 239.2 380.6L195.4 524.5L310.1 435.3C315.9 430.8 324 430.8 329.7 435.3L444.4 524.5L400.6 380.6C398.6 374.1 401 367 406.5 363L532.5 272L383.8 272C376.8 272 370.7 267.5 368.6 260.9L320 107.6zM294.3 82.8C297.9 71.6 308.3 64 320 64C331.7 64 342.1 71.6 345.7 82.8L395.7 240L549.4 240C564.1 240 576 251.9 576 266.6C576 275.1 571.9 283.2 565 288.2L434.7 382.3L485.5 549.3C489.6 562.6 479.6 576.1 465.7 576.1C461.1 576.1 456.6 574.6 453 571.7L320 468.3L187.1 571.6C183.5 574.4 179 576 174.4 576C160.5 576 150.5 562.6 154.6 549.2L205.4 382.2L75.1 288.1C68.2 283.1 64.1 275.1 64.1 266.5C64.1 251.8 76 239.9 90.7 239.9L244.4 239.9L294.4 82.7z"/></svg>