<svg xmlns="http://www.w3.org/2000/svg" viewBox="0 0 640 640"><!--! Font Awesome Pro 7.1.0 by @fontawesome - https://fontawesome.com License - https://fontawesome.com/license (Commercial License) Copyright 2025 Fonticons, Inc. --><path fill="currentColor" d="M96 320C96 438.4 187.9 535.4 304.3 543.5C215.1 508.4 152 421.6 152 320C152 218.4 215.1 131.6 304.3 96.5C187.9 104.6 96 201.6 96 320zM413.6 81.7C421 84.6 425.1 92.4 423.4 100.1C421.7 107.8 414.6 113.1 406.7 112.5C401.9 112.2 397 112 392.1 112C277.2 112 184.1 205.1 184.1 320C184.1 434.9 277.2 528 392.1 528C397 528 401.9 527.8 406.7 527.5C414.6 527 421.7 532.2 423.4 539.9C425.1 547.6 421 555.4 413.6 558.3C384.6 569.7 353 576 320 576C178.6 576 64 461.4 64 320C64 178.6 178.6 64 320 64C353 64 384.6 70.3 413.6 81.7zM430.2 220.2L430.5 219.7C432.4 215.8 435.4 209.7 439.5 201.5C443 194.4 453.2 194.4 456.7 201.5C460.8 209.7 463.7 215.8 465.7 219.7L466 220.2L488.2 265.3C489.6 268.1 492.3 270.1 495.4 270.6L545.1 277.8L545.7 277.9L565.8 280.8C573.7 281.9 576.8 291.6 571.1 297.2C564.5 303.6 559.7 308.3 556.6 311.3L556.2 311.7L520.2 346.8C517.9 349 516.9 352.2 517.4 355.3L525.9 404.8L526 405.4C526.7 409.7 527.9 416.4 529.4 425.4C530.7 433.2 522.5 439.2 515.5 435.5C507.4 431.2 501.4 428.1 497.6 426.1L497.1 425.8L452.6 402.4C449.8 400.9 446.5 400.9 443.7 402.4L399.2 425.8L398.7 426.1C394.8 428.1 388.9 431.3 380.8 435.5C373.8 439.2 365.5 433.2 366.9 425.4C368.4 416.4 369.6 409.7 370.3 405.4L370.4 404.8L378.9 355.3C379.4 352.2 378.4 349 376.1 346.8L340.1 311.7L339.7 311.3C336.6 308.3 331.7 303.5 325.2 297.2C319.5 291.6 322.6 282 330.5 280.8L350.6 277.9L351.2 277.8L400.9 270.6C404 270.1 406.7 268.2 408.1 265.3L430.3 220.2zM436.7 279.4C430.6 291.7 418.9 300.2 405.4 302.2L379.9 305.9L398.3 323.9C408.1 333.5 412.6 347.2 410.3 360.7L405.9 386.1L428.7 374.1C440.8 367.7 455.3 367.7 467.4 374.1L490.2 386.1L485.8 360.7C483.5 347.2 488 333.4 497.8 323.9L516.2 305.9L490.7 302.2C477.2 300.2 465.4 291.7 459.4 279.4L448 256.3L436.6 279.4z"/></svg>