<svg xmlns="http://www.w3.org/2000/svg" viewBox="0 0 640 640"><!--! Font Awesome Pro 7.1.0 by @fontawesome - https://fontawesome.com License - https://fontawesome.com/license (Commercial License) Copyright 2025 Fonticons, Inc. --><path fill="currentColor" d="M280.9 269.5L320 119.7L359.1 269.5C360.6 275.1 364.9 279.5 370.5 280.9L520.3 320L370.5 359.1C364.9 360.6 360.5 364.9 359.1 370.5L320 520.3L280.9 370.5C279.4 364.9 275.1 360.5 269.5 359.1L119.7 320L269.5 280.9C275.1 279.4 279.5 275.1 280.9 269.5zM320 64C309.1 64 299.5 71.4 296.8 81.9L252.3 252.3L81.9 296.8C71.4 299.5 64 309.1 64 320C64 330.9 71.4 340.5 81.9 343.2L252.3 387.6L296.7 558C299.5 568.6 309 575.9 319.9 575.9C330.8 575.9 340.4 568.5 343.1 558L387.5 387.6L557.9 343.2C568.5 340.4 575.8 330.9 575.8 320C575.8 309.1 568.4 299.5 557.9 296.8L387.7 252.3L343.2 81.9C340.5 71.4 330.9 64 320 64zM132.7 132.7C126.5 138.9 126.5 149.1 132.7 155.3L196.7 219.3C202.9 225.5 213.1 225.5 219.3 219.3C225.5 213.1 225.5 202.9 219.3 196.7L155.3 132.7C149.1 126.5 138.9 126.5 132.7 132.7zM507.3 132.7C501.1 126.5 490.9 126.5 484.7 132.7L420.7 196.7C414.5 202.9 414.5 213.1 420.7 219.3C426.9 225.5 437.1 225.5 443.3 219.3L507.3 155.3C513.5 149.1 513.5 138.9 507.3 132.7zM219.3 443.3C225.5 437.1 225.5 426.9 219.3 420.7C213.1 414.5 202.9 414.5 196.7 420.7L132.7 484.7C126.5 490.9 126.5 501.1 132.7 507.3C138.9 513.5 149.1 513.5 155.3 507.3L219.3 443.3zM420.7 420.7C414.5 426.9 414.5 437.1 420.7 443.3L484.7 507.3C490.9 513.5 501.1 513.5 507.3 507.3C513.5 501.1 513.5 490.9 507.3 484.7L443.3 420.7C437.1 414.5 426.9 414.5 420.7 420.7z"/></svg>