<svg xmlns="http://www.w3.org/2000/svg" viewBox="0 0 640 640"><!--! Font Awesome Pro 7.1.0 by @fontawesome - https://fontawesome.com License - https://fontawesome.com/license (Commercial License) Copyright 2025 Fonticons, Inc. --><path fill="currentColor" d="M96 112C96 103.2 88.8 96 80 96C71.2 96 64 103.2 64 112L64 528C64 536.8 71.2 544 80 544C88.8 544 96 536.8 96 528L96 371.8L175.5 388.8C201.3 442.7 256.3 480 320 480C383.7 480 438.7 442.7 464.5 388.8L544 371.8L544 528C544 536.8 551.2 544 560 544C568.8 544 576 536.8 576 528L576 112C576 103.2 568.8 96 560 96C551.2 96 544 103.2 544 112L544 268.2L464.5 251.2C438.7 197.3 383.7 160 320 160C256.3 160 201.3 197.3 175.5 251.2L96 268.2L96 112zM476.5 286.5L544 301L544 339.1L476.5 353.6C478.8 342.8 480 331.6 480 320.1C480 308.6 478.8 297.4 476.5 286.6zM163.5 353.6L96 339.1L96 301L163.5 286.5C161.2 297.3 160 308.5 160 320C160 331.5 161.2 342.7 163.5 353.5zM320 192C390.7 192 448 249.3 448 320C448 390.7 390.7 448 320 448C249.3 448 192 390.7 192 320C192 249.3 249.3 192 320 192zM368 320C368 346.5 346.5 368 320 368C293.5 368 272 346.5 272 320C272 293.5 293.5 272 320 272C346.5 272 368 293.5 368 320zM320 240C275.8 240 240 275.8 240 320C240 364.2 275.8 400 320 400C364.2 400 400 364.2 400 320C400 275.8 364.2 240 320 240z"/></svg>