<svg xmlns="http://www.w3.org/2000/svg" viewBox="0 0 640 640"><!--! Font Awesome Pro 7.1.0 by @fontawesome - https://fontawesome.com License - https://fontawesome.com/license (Commercial License) Copyright 2025 Fonticons, Inc. --><path fill="currentColor" d="M416 248C429.3 248 440 237.3 440 224C440 210.7 429.3 200 416 200C402.7 200 392 210.7 392 224C392 237.3 402.7 248 416 248zM330.8 178.5C347.6 147.4 380.2 128 415.6 128C468.9 128 512 171.2 512 224.4L512 352C512 422.7 454.7 480 384 480L175.9 480C131.8 480 96 444.2 96 400.1C96 356 131.8 320.2 175.9 320.2C220.9 320.2 262.6 304.4 285.2 262.7L330.7 178.6zM415.6 160C392 160 370.2 173 358.9 193.8L313.4 277.9C285.2 329.9 232.7 352.2 175.9 352.2C149.4 352.2 128 373.7 128 400.1C128 426.5 149.5 448 175.9 448L384 448C437 448 480 405 480 352L480 224.4C480 188.8 451.2 160 415.6 160zM175.9 256.1C197.2 256.1 217.6 253 228.9 232.1L274.4 148C302.5 96.3 356.7 64 415.6 64C504.2 64 576 135.8 576 224.4L576 352C576 458 490 544 384 544L175.9 544C96.4 544 32 479.6 32 400.1C32 320.6 96.4 256.1 175.9 256.1zM175.9 288.1C114.1 288.1 64 338.2 64 400.1C64 462 114.1 512 175.9 512L384 512C472.4 512 544 440.4 544 352L544 224.4C544 153.5 486.5 96 415.6 96C368.4 96 325.1 121.8 302.6 163.3L257.1 247.4C240.1 278.8 209.1 288.1 175.9 288.1z"/></svg>