<svg xmlns="http://www.w3.org/2000/svg" viewBox="0 0 640 640"><!--! Font Awesome Pro 7.1.0 by @fontawesome - https://fontawesome.com License - https://fontawesome.com/license (Commercial License) Copyright 2025 Fonticons, Inc. --><path fill="currentColor" d="M496 96C487.2 96 480 103.2 480 112L480 293.2L470 286.6L190 102.6C177.7 94.5 162 93.8 149 100.8C136 107.8 128 121.3 128 136L128 504C128 518.7 136.1 532.2 149 539.2C161.9 546.2 177.7 545.5 190 537.4L470 353.4L480 346.8L480 528C480 536.8 487.2 544 496 544C504.8 544 512 536.8 512 528L512 112C512 103.2 504.8 96 496 96zM172.4 129.3L452.4 313.3L462.6 320L452.4 326.7L172.4 510.7C169.9 512.3 166.8 512.5 164.2 511.1C161.6 509.7 160 507 160 504.1L160 136C160 133.1 161.6 130.4 164.2 129C166.8 127.6 169.9 127.7 172.4 129.4z"/></svg>