<svg xmlns="http://www.w3.org/2000/svg" viewBox="0 0 640 640"><!--! Font Awesome Pro 7.1.0 by @fontawesome - https://fontawesome.com License - https://fontawesome.com/license (Commercial License) Copyright 2025 Fonticons, Inc. --><path fill="currentColor" d="M144 96C152.8 96 160 103.2 160 112L160 293.2L170 286.6L450 102.6C462.3 94.5 478 93.8 491 100.8C504 107.8 512 121.3 512 136L512 504C512 518.7 503.9 532.2 491 539.2C478.1 546.2 462.3 545.5 450 537.4L170 353.4L160 346.8L160 528C160 536.8 152.8 544 144 544C135.2 544 128 536.8 128 528L128 112C128 103.2 135.2 96 144 96zM467.6 129.3L187.6 313.3L177.4 320L187.6 326.7L467.6 510.7C470.1 512.3 473.2 512.5 475.8 511.1C478.4 509.7 480 507 480 504.1L480 136.1C480 133.2 478.4 130.5 475.8 129.1C473.2 127.7 470.1 127.8 467.6 129.5z"/></svg>