<svg xmlns="http://www.w3.org/2000/svg" viewBox="0 0 640 640"><!--! Font Awesome Pro 7.1.0 by @fontawesome - https://fontawesome.com License - https://fontawesome.com/license (Commercial License) Copyright 2025 Fonticons, Inc. --><path fill="currentColor" d="M64 112C64 85.5 85.5 64 112 64L168 64C176.8 64 184 71.2 184 80C184 88.8 176.8 96 168 96L112 96C103.2 96 96 103.2 96 112L96 240C96 310.7 153.3 368 224 368C294.7 368 352 310.7 352 240L352 112C352 103.2 344.8 96 336 96L280 96C271.2 96 264 88.8 264 80C264 71.2 271.2 64 280 64L336 64C362.5 64 384 85.5 384 112L384 240C384 323 320.9 391.2 240 399.2L240 448C240 518.7 297.3 576 368 576C438.7 576 496 518.7 496 448L496 318C468.4 310.9 448 285.8 448 256C448 220.7 476.7 192 512 192C547.3 192 576 220.7 576 256C576 285.8 555.6 310.9 528 318L528 448C528 536.4 456.4 608 368 608C279.6 608 208 536.4 208 448L208 399.2C127.1 391.2 64 323 64 240L64 112zM512 288C529.7 288 544 273.7 544 256C544 238.3 529.7 224 512 224C494.3 224 480 238.3 480 256C480 273.7 494.3 288 512 288z"/></svg>