<svg xmlns="http://www.w3.org/2000/svg" viewBox="0 0 640 640"><!--! Font Awesome Pro 7.1.0 by @fontawesome - https://fontawesome.com License - https://fontawesome.com/license (Commercial License) Copyright 2025 Fonticons, Inc. --><path fill="currentColor" d="M224 96L224 144L480 144L480 96L224 96zM192 96C192 78.3 206.3 64 224 64L480 64C497.7 64 512 78.3 512 96L512 144C512 161.7 497.7 176 480 176L480 379.5C480 422.3 458.6 462.3 423 486L318.9 555.4C298.8 568.8 275.1 576 250.8 576C183 576 128 521 128 453.2L128 451C128 409.2 148.9 370.1 183.7 346.9L209.8 329.5C218.7 323.6 224 313.6 224 302.9L224 176C206.3 176 192 161.7 192 144L192 96zM256 176L256 302.9C256 324.3 245.3 344.3 227.5 356.2L201.4 373.5C175.6 390.8 160 419.8 160 450.9L160 453.1C160 503.3 200.7 543.9 250.8 543.9C268.7 543.9 286.3 538.6 301.2 528.6L405.3 459.2C432 441.6 448 411.6 448 379.5L448 176L256 176z"/></svg>