<svg xmlns="http://www.w3.org/2000/svg" viewBox="0 0 640 640"><!--! Font Awesome Pro 7.1.0 by @fontawesome - https://fontawesome.com License - https://fontawesome.com/license (Commercial License) Copyright 2025 Fonticons, Inc. --><path fill="currentColor" d="M224 80C224 71.2 216.8 64 208 64C199.2 64 192 71.2 192 80L192 144C192 205.9 242.1 256 304 256L324 256C321.4 266.2 320 277 320 288L320 336C320 380.2 284.2 416 240 416L176 416C121.5 416 76 455 66 506.6C64.7 512.8 64 519.2 64 525.7L64 560C64 568.8 71.2 576 80 576C88.8 576 96 568.8 96 560L96 528C96 522.8 96.5 517.8 97.4 512.9C101.2 496.2 112.3 481.7 128 473.9C152.8 461.5 184.5 468.2 206.4 489.1C245.3 526.3 310.5 576 384 576C490 576 576 490 576 384L576 288C576 217.3 518.7 160 448 160C400.6 160 359.3 185.7 337.1 224L304 224C259.8 224 224 188.2 224 144L224 80zM228.5 466C221.1 458.9 212.6 452.8 203.5 448L239.9 448C296.3 448 343 406.3 350.8 352L360.2 352C381.4 352 401.8 360.4 416.8 375.4L424.6 383.2C445.6 404.2 474.1 416 503.8 416L540.8 416C526 489 461.4 544 384 544C323.7 544 266.5 502.3 228.5 466zM544 384L503.8 384C482.6 384 462.2 375.6 447.2 360.6L439.4 352.8C418.4 331.8 389.9 320 360.2 320L352 320L352 288C352 235 395 192 448 192C501 192 544 235 544 288L544 384z"/></svg>