<svg xmlns="http://www.w3.org/2000/svg" viewBox="0 0 640 640"><!--! Font Awesome Pro 7.1.0 by @fontawesome - https://fontawesome.com License - https://fontawesome.com/license (Commercial License) Copyright 2025 Fonticons, Inc. --><path fill="currentColor" d="M240 80C240 71.2 247.2 64 256 64L384 64C392.8 64 400 71.2 400 80C400 88.8 392.8 96 384 96L336 96L336 144C336 144.2 336 144.4 336 144.6C389.4 148.7 437.2 172.9 471.7 209.7L500.7 180.7C506.9 174.5 517.1 174.5 523.3 180.7C529.5 186.9 529.5 197.1 523.3 203.3L491.8 234.8C514.6 268.2 528 308.5 528 352C528 466.9 434.9 560 320 560C205.1 560 112 466.9 112 352C112 242.5 196.6 152.8 304 144.6C304 144.4 304 144.2 304 144L304 96L256 96C247.2 96 240 88.8 240 80zM144 352C144 449.2 222.8 528 320 528C417.2 528 496 449.2 496 352C496 254.8 417.2 176 320 176C222.8 176 144 254.8 144 352zM320 232C328.8 232 336 239.2 336 248L336 352C336 360.8 328.8 368 320 368C311.2 368 304 360.8 304 352L304 248C304 239.2 311.2 232 320 232z"/></svg>