<svg xmlns="http://www.w3.org/2000/svg" viewBox="0 0 640 640"><!--! Font Awesome Pro 7.1.0 by @fontawesome - https://fontawesome.com License - https://fontawesome.com/license (Commercial License) Copyright 2025 Fonticons, Inc. --><path fill="currentColor" d="M256 64C247.2 64 240 71.2 240 80C240 88.8 247.2 96 256 96L304 96L304 144C304 144.2 304 144.4 304 144.6C196.6 152.8 112 242.5 112 352C112 466.9 205.1 560 320 560C434.9 560 528 466.9 528 352C528 308.5 514.7 268.2 491.8 234.8L523.3 203.3C529.5 197.1 529.5 186.9 523.3 180.7C517.1 174.5 506.9 174.5 500.7 180.7L471.7 209.7C437.2 172.9 389.4 148.7 336 144.6C336 144.4 336 144.2 336 144L336 96L384 96C392.8 96 400 88.8 400 80C400 71.2 392.8 64 384 64L256 64zM320 528C222.8 528 144 449.2 144 352C144 254.8 222.8 176 320 176C417.2 176 496 254.8 496 352C496 449.2 417.2 528 320 528zM208 304C208 312.8 215.2 320 224 320C232.8 320 240 312.8 240 304C240 295.2 247.2 288 256 288C264.8 288 272 295.2 272 304L272 307.8C272 312.8 270.6 317.7 268 321.9L211.3 414C209.1 417.5 208 421.5 208 425.7C208 438 218 447.9 230.2 447.9L288 447.9C296.8 447.9 304 440.7 304 431.9C304 423.1 296.8 415.9 288 415.9L247.7 415.9L295.2 338.6C300.9 329.3 304 318.6 304 307.7L304 303.9C304 277.4 282.5 255.9 256 255.9C229.5 255.9 208 277.4 208 303.9zM384 256C357.5 256 336 277.5 336 304L336 400C336 426.5 357.5 448 384 448C410.5 448 432 426.5 432 400L432 304C432 277.5 410.5 256 384 256zM368 304C368 295.2 375.2 288 384 288C392.8 288 400 295.2 400 304L400 400C400 408.8 392.8 416 384 416C375.2 416 368 408.8 368 400L368 304z"/></svg>