<svg xmlns="http://www.w3.org/2000/svg" viewBox="0 0 640 640"><!--! Font Awesome Pro 7.1.0 by @fontawesome - https://fontawesome.com License - https://fontawesome.com/license (Commercial License) Copyright 2025 Fonticons, Inc. --><path fill="currentColor" d="M138.9 145.7C144.4 134.8 155.4 128 167.6 128L472.5 128C484.6 128 495.7 134.8 501.1 145.7L557.9 259.4C559.3 262.1 560 265.2 560 268.2C560 279.1 551.1 288 540.2 288L99.8 288C88.9 288 80 279.1 80 268.2C80 265.1 80.7 262.1 82.1 259.4L138.9 145.7zM48 268.2C48 295.5 69.2 317.9 96 319.8L96 496C96 522.5 117.5 544 144 544L336 544C362.5 544 384 522.5 384 496L384 320L512 320L512 528C512 536.8 519.2 544 528 544C536.8 544 544 536.8 544 528L544 319.9C570.8 318 592 295.6 592 268.3C592 260.3 590.1 252.3 586.5 245.1L529.7 131.4C518.8 109.7 496.7 96 472.4 96L167.6 96C143.4 96 121.2 109.7 110.4 131.4L53.5 245.1C49.9 252.3 48 260.2 48 268.3zM128 416L128 320L352 320L352 416L128 416zM128 448L352 448L352 496C352 504.8 344.8 512 336 512L144 512C135.2 512 128 504.8 128 496L128 448z"/></svg>