<svg xmlns="http://www.w3.org/2000/svg" viewBox="0 0 640 640"><!--! Font Awesome Pro 7.1.0 by @fontawesome - https://fontawesome.com License - https://fontawesome.com/license (Commercial License) Copyright 2025 Fonticons, Inc. --><path fill="currentColor" d="M92.5 146.2C102 116.3 129.7 96 161.1 96L479.1 96C510.5 96 538.2 116.3 547.8 146.2L566.6 205.4C576.3 235.8 565.8 266.6 544.1 285.5L544.1 472C544.1 511.8 511.9 544 472.1 544L168.1 544C128.3 544 96.1 511.8 96.1 472L96.1 285.5C74.4 266.7 63.9 235.9 73.6 205.4L92.5 146.2zM441.7 128L450.4 224.1L450.4 224.2L451.1 232.3C453.1 254.8 472 272 494.5 272C524 272 545 243.3 536.1 215.1L517.3 155.9C512 139.3 496.6 128 479.2 128L441.7 128zM418.6 227.1C418.6 227.1 418.6 227 418.6 227L409.6 128L336.2 128L336.2 230.7C336.2 253.5 354.7 272 377.5 272C401.7 272 420.8 251.2 418.6 227.1zM320.2 276.5C306.8 293.3 286.1 304.1 262.9 304.1C239.2 304.1 218.2 292.9 204.9 275.6C191 293 169.6 304.1 145.7 304.1C139.6 304.1 133.8 303.4 128.2 302.1L128.2 384.1L512.2 384.1L512.2 302.1C506.6 303.4 500.7 304.1 494.7 304.1C470.9 304.1 449.5 293 435.5 275.6C422.2 292.9 401.2 304.1 377.5 304.1C354.3 304.1 333.6 293.3 320.2 276.5zM304.1 128L230.7 128L221.7 227C219.5 251.2 238.5 272 262.8 272C285.6 272 304.1 253.5 304.1 230.7L304.1 128zM161.1 128C143.7 128 128.2 139.3 123 155.9L104.1 215.1C95.1 243.2 116.1 272 145.7 272C168.3 272 187.1 254.8 189.1 232.3L189.8 224.1L189.8 224.1L198.5 128L161 128zM128.1 416L128.1 472C128.1 494.1 146 512 168.1 512L472.1 512C494.2 512 512.1 494.1 512.1 472L512.1 416L128.1 416z"/></svg>