<svg xmlns="http://www.w3.org/2000/svg" viewBox="0 0 640 640"><!--! Font Awesome Pro 7.1.0 by @fontawesome - https://fontawesome.com License - https://fontawesome.com/license (Commercial License) Copyright 2025 Fonticons, Inc. --><path fill="currentColor" d="M59.3 36.8C53.1 30.6 42.9 30.6 36.7 36.8C30.5 43 30.5 53.2 36.7 59.4L580.7 603.4C586.9 609.6 597.1 609.6 603.3 603.4C609.5 597.2 609.5 587 603.3 580.8L544 521.5L544 319.9C570.8 318 592 295.6 592 268.3C592 260.3 590.1 252.3 586.5 245.1L529.7 131.4C518.8 109.7 496.7 96 472.4 96L167.6 96C154 96 141.1 100.3 130.5 107.9L59.3 36.8zM153.7 131.2C157.9 129.2 162.7 128 167.6 128L472.5 128C484.6 128 495.7 134.8 501.1 145.7L557.9 259.4C559.3 262.1 560 265.2 560 268.2C560 279.1 551.1 288 540.2 288L310.5 288L153.7 131.2zM342.5 320L512 320L512 489.5L342.5 320zM87.2 177.7L53.5 245.1C49.9 252.3 48 260.2 48 268.3C48 295.6 69.2 318 96 319.9L96 496C96 522.5 117.5 544 144 544L336 544C362.5 544 384 522.5 384 496L384 474.5L325.5 416L128 416L128 320L229.5 320L197.5 288L99.8 288C88.9 288 80 279.1 80 268.2C80 265.1 80.7 262.1 82.1 259.4L111 201.5L87.2 177.7zM128 496L128 448L352 448L352 496C352 504.8 344.8 512 336 512L144 512C135.2 512 128 504.8 128 496z"/></svg>