<svg xmlns="http://www.w3.org/2000/svg" viewBox="0 0 640 640"><!--! Font Awesome Pro 7.1.0 by @fontawesome - https://fontawesome.com License - https://fontawesome.com/license (Commercial License) Copyright 2025 Fonticons, Inc. --><path fill="currentColor" d="M59.3 36.8C53.1 30.6 42.9 30.6 36.7 36.8C30.5 43 30.5 53.2 36.7 59.4L580.7 603.4C586.9 609.6 597.1 609.6 603.3 603.4C609.5 597.2 609.5 587 603.3 580.8L532.9 510.4C539.9 499.3 544 486.1 544 472L544 285.5C565.7 266.6 576.2 235.8 566.5 205.4L547.7 146.2C538.2 116.3 510.4 96 479 96L161 96C148.9 96 137.3 99 127.1 104.5L59.3 36.8zM151.6 129.1C154.6 128.4 157.7 128 160.9 128L198.4 128L194.4 172L151.6 129.2zM223.9 201.4L230.6 128L304 128L304 230.7C304 244.5 297.2 256.7 286.8 264.2L223.9 201.3zM309.6 287.1C313.4 283.9 316.9 280.4 320 276.5C333.4 293.3 354.1 304.1 377.3 304.1C401 304.1 422 292.9 435.3 275.6C449.2 293 470.6 304.1 494.5 304.1C500.6 304.1 506.4 303.4 512 302.1L512 384.1L406.5 384.1L309.6 287.2zM438.5 416L512 416L512 472C512 477.2 511 482.1 509.2 486.7L438.5 416zM73.5 205.4C63.8 235.8 74.3 266.6 96 285.5L96 472C96 511.8 128.2 544 168 544L453.5 544L421.5 512L168 512C145.9 512 128 494.1 128 472L128 416L325.5 416L293.5 384L128 384L128 302C133.6 303.3 139.5 304 145.5 304C164.3 304 181.7 297.1 195 285.6L172.3 262.9C164.9 268.7 155.6 272.1 145.5 272.1C116 272.1 95 243.4 103.9 215.2L108.9 199.5L83.4 174L73.4 205.4zM441.5 128L479 128C496.4 128 511.9 139.3 517.2 155.9L536 215.1C545 243.2 524 272 494.4 272C471.8 272 453 254.8 451 232.3L450.3 224.2L450.3 224.1L441.6 128zM418.4 227.1C420.5 251.2 401.5 272 377.3 272C354.5 272 336 253.5 336 230.7L336 128L409.4 128L418.4 227L418.4 227.1z"/></svg>