<svg xmlns="http://www.w3.org/2000/svg" viewBox="0 0 640 640"><!--! Font Awesome Pro 7.1.0 by @fontawesome - https://fontawesome.com License - https://fontawesome.com/license (Commercial License) Copyright 2025 Fonticons, Inc. --><path fill="currentColor" d="M60.3 146.2C69.8 116.3 97.6 96 129 96L447 96C478.4 96 506.1 116.3 515.7 146.2L534.5 205.4C534.8 206.3 535.1 207.2 535.3 208.2C532.9 208.1 530.4 208 528 208C519.3 208 510.8 208.9 502.6 210.5L485.2 155.9C479.9 139.3 464.5 128 447 128L409.5 128L418.2 224.1L418.2 224.2L418.9 232.3C419.7 241.1 423.1 249.1 428.3 255.6C421.4 264.2 415.5 273.7 411 283.8C408.2 281.2 405.6 278.4 403.2 275.4C389.9 292.7 368.9 303.9 345.2 303.9C322 303.9 301.3 293.1 287.9 276.3C274.5 293.1 253.8 303.9 230.6 303.9C206.9 303.9 185.9 292.7 172.6 275.4C158.7 292.8 137.3 303.9 113.4 303.9C107.3 303.9 101.5 303.2 95.9 301.9L95.9 383.9L380.7 383.9C375.1 393.6 371.1 404.4 369.2 415.9L96 416L96 472C96 494.1 113.9 512 136 512L368 512L368 527.9C368 533.4 368.5 538.8 369.3 544L136 544C96.2 544 64 511.8 64 472L64 285.5C42.3 266.6 31.8 235.8 41.5 205.4L60.3 146.2zM386.4 227.1L386.4 227L377.4 128L304 128L304 230.7C304 253.5 322.5 272 345.3 272C369.5 272 388.6 251.2 386.4 227.1zM272 128L198.6 128L189.6 227C187.4 251.2 206.4 272 230.7 272C253.5 272 272 253.5 272 230.7L272 128zM129 128C111.6 128 96.1 139.3 90.8 155.9L72 215.1C63 243.2 84 272 113.6 272C136.2 272 155 254.8 157 232.3L157.7 224.1L157.7 224.1L166.4 128L128.9 128zM448 384.1L448 336.1C448 291.9 483.8 256.1 528 256.1C572.2 256.1 608 291.9 608 336.1L608 386.7C626.6 393.3 640 411.1 640 432L640 528C640 554.5 618.5 576 592 576L464 576C437.5 576 416 554.5 416 528L416 432C416 411.1 429.4 393.3 448 386.7L448 384.1zM448 432L448 528C448 536.8 455.2 544 464 544L592 544C600.8 544 608 536.8 608 528L608 432C608 423.8 601.8 417 593.7 416.1L462.2 416.1C454.2 417 447.9 423.8 447.9 432zM576 336.1C576 309.6 554.5 288.1 528 288.1C501.5 288.1 480 309.6 480 336.1L480 384L576 384L576 336.1z"/></svg>