<svg xmlns="http://www.w3.org/2000/svg" viewBox="0 0 640 640"><!--! Font Awesome Pro 7.1.0 by @fontawesome - https://fontawesome.com License - https://fontawesome.com/license (Commercial License) Copyright 2025 Fonticons, Inc. --><path fill="currentColor" d="M129.1 96C97.7 96 70 116.3 60.5 146.2L41.6 205.4C31.9 235.8 42.4 266.6 64.1 285.5L64.1 472C64.1 511.8 96.3 544 136.1 544L304.1 544L304.1 512L136.1 512C114 512 96.1 494.1 96.1 472L96.1 416L306.1 416C309.3 403.4 316.3 392.3 325.8 384L96.1 384L96.1 302C101.7 303.3 107.6 304 113.6 304C137.4 304 158.8 292.9 172.8 275.5C186.1 292.8 207.1 304 230.8 304C254 304 274.7 293.2 288.1 276.4C301.5 293.2 322.2 304 345.4 304C369.1 304 390.1 292.8 403.4 275.5C417.3 292.9 438.7 304 462.6 304C468.7 304 474.5 303.3 480.1 302L480.1 368L512.1 368L512.1 285.5C533.8 266.6 544.3 235.8 534.6 205.4L515.8 146.2C506.3 116.3 478.5 96 447.2 96L129.2 96zM418.4 224.1L409.7 128L447.2 128C464.6 128 480.1 139.3 485.4 155.9L504.3 215.1C513.3 243.2 492.3 272 462.7 272C440.1 272 421.3 254.8 419.3 232.3L418.6 224.2L418.6 224.1zM386.5 227L386.5 227.1C388.6 251.2 369.6 272 345.4 272C322.6 272 304.1 253.5 304.1 230.7L304.1 128L377.5 128L386.5 227zM198.7 128L272.1 128L272.1 230.7C272.1 253.5 253.6 272 230.8 272C206.5 272 187.5 251.2 189.7 227L198.7 128zM166.6 128L157.9 224.1L157.9 224.1L157.2 232.3C155.2 254.8 136.3 272 113.8 272C84.3 272 63.3 243.3 72.2 215.1L91 155.9C96.2 139.3 111.7 128 129.1 128L166.6 128zM352.1 464C352.1 472.8 359.3 480 368.1 480C376.9 480 384.1 472.8 384.1 464C384.1 455.2 391.3 448 400.1 448C408.9 448 416.1 455.2 416.1 464L416.1 465C416.1 470.8 414 476.3 410.2 480.6L357.7 539.7C354.2 543.7 352.2 548.8 352.2 554.2C352.2 566.2 362 576 374 576L432.2 576C441 576 448.2 568.8 448.2 560C448.2 551.2 441 544 432.2 544L396.7 544L434.1 501.9C443.1 491.7 448.1 478.6 448.1 465L448.1 464C448.1 437.5 426.6 416 400.1 416C373.6 416 352.1 437.5 352.1 464zM480.1 496C480.1 500.2 481.8 504.3 484.8 507.3C487.8 510.3 491.9 512 496.1 512L544.1 512L544.1 560C544.1 568.8 551.3 576 560.1 576C568.9 576 576.1 568.8 576.1 560L576.1 432C576.1 423.2 568.9 416 560.1 416C551.3 416 544.1 423.2 544.1 432L544.1 480L512.1 480L512.1 432C512.1 423.2 504.9 416 496.1 416C487.3 416 480.1 423.2 480.1 432L480.1 496z"/></svg>