<svg xmlns="http://www.w3.org/2000/svg" viewBox="0 0 640 640"><!--! Font Awesome Pro 7.1.0 by @fontawesome - https://fontawesome.com License - https://fontawesome.com/license (Commercial License) Copyright 2025 Fonticons, Inc. --><path fill="currentColor" d="M422.6 80C410.1 67.5 389.8 67.5 377.3 80L365.3 92.1C347.3 110.1 338 133.4 337.2 157C313.7 137.7 285 128 256.2 128C160.2 128 64 224 64 400C64 528 112 576 240 576C416 576 512 480 512 384C512 355.2 502.3 326.3 483 302.8C506.6 302.1 529.9 292.7 547.9 274.7L560 262.6C572.5 250.1 572.5 229.8 560 217.3L547.9 205.2C524.3 181.6 491.4 172.8 461 179C467.1 148.5 458.4 115.7 434.8 92.1L422.6 80zM434.7 227.9C459.7 202.9 500.2 202.9 525.2 227.9L537.3 240L525.2 252.1C500.2 277.1 459.7 277.1 434.7 252.1L422.6 240L434.7 227.9zM400 217.4L387.9 205.3C362.9 180.3 362.9 139.8 387.9 114.8L400 102.6L412.1 114.7C437.1 139.7 437.1 180.2 412.1 205.2L400 217.4zM256.2 160C280.8 160.1 305.2 169.4 323.9 188.1L451.9 316.1C470.7 334.9 480 359.4 480 384C480 455.5 406.1 544 240 544C178.7 544 145.5 532.2 126.6 513.4C107.7 494.6 96 461.3 96 400C96 234 184.7 160 256.2 160zM244.8 252.8C256.7 240.9 259.4 224.5 253.5 218.5C247.6 212.5 231.1 215.3 219.2 227.2C207.3 239.1 204.6 255.5 210.5 261.5C216.4 267.5 232.9 264.7 244.8 252.8zM309.5 282.5C303.6 276.6 287.1 279.3 275.2 291.2C263.3 303.1 260.6 319.5 266.5 325.5C272.4 331.5 288.9 328.7 300.8 316.8C312.7 304.9 315.4 288.5 309.5 282.5zM277.5 362.5C271.6 356.6 255.1 359.3 243.2 371.2C231.3 383.1 228.6 399.5 234.5 405.5C240.4 411.5 256.9 408.7 268.8 396.8C280.7 384.9 283.4 368.5 277.5 362.5zM245.5 442.5C239.6 436.6 223.1 439.3 211.2 451.2C199.3 463.1 196.6 479.5 202.5 485.5C208.4 491.5 224.9 488.7 236.8 476.8C248.7 464.9 251.4 448.5 245.5 442.5zM324.8 444.8C336.7 432.9 339.4 416.5 333.5 410.5C327.6 404.5 311.1 407.3 299.2 419.2C287.3 431.1 284.6 447.5 290.5 453.5C296.4 459.5 312.9 456.7 324.8 444.8zM348.8 364.8C360.7 352.9 363.4 336.5 357.5 330.5C351.6 324.5 335.1 327.3 323.2 339.2C311.3 351.1 308.6 367.5 314.5 373.5C320.4 379.5 336.9 376.7 348.8 364.8zM421.5 386.5C415.6 380.6 399.1 383.3 387.2 395.2C375.3 407.1 372.6 423.5 378.5 429.5C384.4 435.5 400.9 432.7 412.8 420.8C424.7 408.9 427.4 392.5 421.5 386.5zM229.5 306.5C223.6 300.6 207.1 303.3 195.2 315.2C183.3 327.1 180.6 343.5 186.5 349.5C192.4 355.5 208.9 352.7 220.8 340.8C232.7 328.9 235.4 312.5 229.5 306.5zM188.8 428.8C200.7 416.9 203.4 400.5 197.5 394.5C191.6 388.5 175.1 391.3 163.2 403.2C151.3 415.1 148.6 431.5 154.5 437.5C160.4 443.5 176.9 440.7 188.8 428.8z"/></svg>