<svg xmlns="http://www.w3.org/2000/svg" viewBox="0 0 640 640"><!--! Font Awesome Pro 7.1.0 by @fontawesome - https://fontawesome.com License - https://fontawesome.com/license (Commercial License) Copyright 2025 Fonticons, Inc. --><path fill="currentColor" d="M320 96C337.7 96 352 110.3 352 128C352 145.7 337.7 160 320 160C302.3 160 288 145.7 288 128C288 110.3 302.3 96 320 96zM320 192C355.3 192 384 163.3 384 128C384 92.7 355.3 64 320 64C284.7 64 256 92.7 256 128C256 163.3 284.7 192 320 192zM256 344L256 344L256 288C256 270.3 270.3 256 288 256L352 256C369.7 256 384 270.3 384 288L384 344L384 344C369.6 346.1 358.4 357.8 356.8 372.3L347.9 456.8C347.5 460.9 344 464 339.9 464L299.9 464C295.8 464 292.4 460.9 291.9 456.8L283 372.3C281.5 357.8 270.3 346.1 255.8 344zM224 288L224 344C224 360.1 235.9 373.4 251.3 375.7L260.2 460.2C262.3 480.6 279.5 496 300 496L340 496C360.5 496 377.6 480.5 379.8 460.2L388.7 375.7C404.2 373.4 416 360.1 416 344L416 288C416 252.7 387.3 224 352 224L288 224C252.7 224 224 252.7 224 288zM96 490.2C96 489.1 96.4 486.9 99.6 483.3C102.9 479.6 108.5 475.3 116.9 470.8C133.7 461.9 158.9 453.8 190.5 447.7L184.4 416.3C151.2 422.7 122.6 431.6 101.8 442.5C91.4 448 82.3 454.4 75.6 461.9C68.8 469.5 63.8 479.1 63.8 490.2C63.8 507.8 76 521.2 89.6 530.5C103.7 540.2 123.1 548.3 145.6 554.9C190.9 568.1 252.4 576 319.8 576C387.2 576 448.7 568.1 494 554.9C516.5 548.3 535.9 540.2 550 530.5C563.6 521.1 575.8 507.8 575.8 490.2C575.8 479.1 570.9 469.6 564 461.9C557.3 454.4 548.1 448 537.8 442.5C517 431.5 488.4 422.7 455.2 416.3L449.1 447.7C480.7 453.8 505.9 461.9 522.7 470.8C531.1 475.3 536.7 479.5 540 483.3C543.2 486.9 543.6 489.2 543.6 490.2C543.6 491.8 542.3 496.8 531.7 504.2C521.5 511.2 505.8 518.1 484.9 524.2C443.3 536.3 384.9 544 319.7 544C254.5 544 196.1 536.3 154.5 524.2C133.6 518.1 117.8 511.2 107.7 504.2C97 496.9 95.8 491.9 95.8 490.2z"/></svg>