<svg xmlns="http://www.w3.org/2000/svg" viewBox="0 0 640 640"><!--! Font Awesome Pro 7.1.0 by @fontawesome - https://fontawesome.com License - https://fontawesome.com/license (Commercial License) Copyright 2025 Fonticons, Inc. --><path fill="currentColor" d="M592 336C600.8 336 608 343.2 608 352C608 360.8 600.8 368 592 368L453.5 368L348.1 440.7L409.1 482.8L411.9 484.7C418 481.9 424.8 480.3 432 480.3C458.5 480.3 480 501.8 480 528.3C480 554.8 458.5 576.3 432 576.3C405.5 576.3 384 554.8 384 528.3C384 520.9 385.7 513.9 388.7 507.6L320 460.1L251.2 507.6C254.2 513.9 256 520.9 256 528.3C256 554.8 234.5 576.3 208 576.3C181.5 576.3 160 554.8 160 528.3C160 501.8 181.5 480.3 208 480.3C215.2 480.3 221.9 481.9 228 484.7L230.9 482.8L291.8 440.7L186.4 368L47.9 368C39.1 368 31.9 360.8 31.9 352C31.9 343.2 39.1 336 47.9 336L591.9 336zM208 512.4C199.2 512.4 192 519.6 192 528.4C192 537.2 199.2 544.4 208 544.4C216.8 544.4 224 537.2 224 528.4C224 519.6 216.8 512.4 208 512.4zM432 512.4C423.2 512.4 416 519.6 416 528.4C416 537.2 423.2 544.4 432 544.4C440.8 544.4 448 537.2 448 528.4C448 519.6 440.8 512.4 432 512.4zM242.8 368L320 421.3L397.2 368L242.8 368zM41.1 95.1C59.3 64.8 98.6 54.9 128.9 73.1L273.7 160L544 160L550.5 160.3C582.8 163.6 608 190.9 608 224L607.7 230.5C604.6 260.6 580.7 284.6 550.6 287.6L544.1 287.9L265 287.9C247.6 287.9 230.5 283.2 215.6 274.2L63.1 182.9C32.8 164.7 23 125.4 41.1 95.1zM112.4 100.6C97.3 91.5 77.6 96.4 68.5 111.6C59.4 126.7 64.3 146.4 79.5 155.5L232 246.9C241.9 252.9 253.3 256 264.9 256L544 256L547.3 255.8C563.4 254.2 576 240.5 576 224L575.8 220.7C574.3 205.6 562.3 193.7 547.2 192.1L543.9 191.9L264.7 191.9L260.9 189.6L112.3 100.4z"/></svg>