<svg xmlns="http://www.w3.org/2000/svg" viewBox="0 0 640 640"><!--! Font Awesome Pro 7.1.0 by @fontawesome - https://fontawesome.com License - https://fontawesome.com/license (Commercial License) Copyright 2025 Fonticons, Inc. --><path fill="currentColor" d="M160 211.6C160 147.8 211.8 96 275.6 96L448 96C456.8 96 464 103.2 464 112C464 120.8 456.8 128 448 128L275.6 128C229.4 128 192 165.4 192 211.6C192 252.5 221.6 287.4 261.9 294.1L383.4 314.4C390.8 315.6 397.9 317.5 404.7 320.1L560 320C568.8 320 576 327.2 576 336C576 344.8 568.8 352 560 352L80 352C71.2 352 64 344.8 64 336C64 327.2 71.2 320 80 320L235.3 320C190.8 303.5 160 260.7 160 211.6zM443 400L476.4 400C478.7 409.1 479.9 418.6 479.9 428.4C479.9 492.2 428.1 544 364.3 544L192 544C183.2 544 176 536.8 176 528C176 519.2 183.2 512 192 512L364.4 512C410.6 512 448 474.6 448 428.4C448 418.5 446.3 408.9 443 400z"/></svg>