<svg xmlns="http://www.w3.org/2000/svg" viewBox="0 0 640 640"><!--! Font Awesome Pro 7.1.0 by @fontawesome - https://fontawesome.com License - https://fontawesome.com/license (Commercial License) Copyright 2025 Fonticons, Inc. --><path fill="currentColor" d="M320 96C196.3 96 96 196.3 96 320C96 443.7 196.3 544 320 544C443.7 544 544 443.7 544 320C544 196.3 443.7 96 320 96zM64 320C64 178.6 178.6 64 320 64C461.4 64 576 178.6 576 320C576 461.4 461.4 576 320 576C178.6 576 64 461.4 64 320zM206.9 184.2L252.2 229.5L297.5 184.2L274.9 161.6C268.7 155.4 268.7 145.2 274.9 139C281.1 132.8 291.3 132.8 297.5 139L320 161.6L342.6 139C348.8 132.8 359 132.8 365.2 139C371.4 145.2 371.4 155.4 365.2 161.6L342.6 184.2L387.9 229.5L433.2 184.2C439.4 178 449.6 178 455.8 184.2C462 190.4 462 200.6 455.8 206.8L410.5 252.1L455.8 297.4L478.4 274.8C484.6 268.6 494.8 268.6 501 274.8C507.2 281 507.2 291.2 501 297.4L478.4 320L501 342.6C507.2 348.8 507.2 359 501 365.2C494.8 371.4 484.6 371.4 478.4 365.2L455.8 342.6L410.5 387.9L455.8 433.2C462 439.4 462 449.6 455.8 455.8C449.6 462 439.4 462 433.2 455.8L387.9 410.5L342.6 455.8L365.2 478.4C371.4 484.6 371.4 494.8 365.2 501C359 507.2 348.8 507.2 342.6 501L320 478.4L297.4 501C291.2 507.2 281 507.2 274.8 501C268.6 494.8 268.6 484.6 274.8 478.4L297.4 455.8L252.1 410.5L206.8 455.8C200.6 462 190.4 462 184.2 455.8C178 449.6 178 439.4 184.2 433.2L229.5 387.9L184.2 342.6L161.6 365.2C155.4 371.4 145.2 371.4 139 365.2C132.8 359 132.8 348.8 139 342.6L161.6 320L139 297.4C132.8 291.2 132.8 281 139 274.8C145.2 268.6 155.4 268.6 161.6 274.8L184.2 297.4L229.5 252.1L184.2 206.8C178 200.6 178 190.4 184.2 184.2C190.4 178 200.6 178 206.8 184.2zM252.2 274.7L206.9 320L252.2 365.3L297.5 320L252.2 274.7zM433.2 320L387.9 274.7L342.6 320L387.9 365.3L433.2 320zM365.3 387.9L320 342.6L274.7 387.9L320 433.2L365.3 387.9zM274.7 252.1L320 297.4L365.3 252.1L320 206.8L274.7 252.1z"/></svg>