<svg xmlns="http://www.w3.org/2000/svg" viewBox="0 0 640 640"><!--! Font Awesome Pro 7.1.0 by @fontawesome - https://fontawesome.com License - https://fontawesome.com/license (Commercial License) Copyright 2025 Fonticons, Inc. --><path fill="currentColor" d="M112 128C103.2 128 96 135.2 96 144C96 152.8 103.2 160 112 160L151.2 160L253 320L151.2 480L112 480C103.2 480 96 487.2 96 496C96 504.8 103.2 512 112 512L160 512C165.5 512 170.6 509.2 173.5 504.6L272 349.8L370.5 504.6C373.4 509.2 378.5 512 384 512L432 512C440.8 512 448 504.8 448 496C448 487.2 440.8 480 432 480L392.8 480L291 320L392.8 160L432 160C440.8 160 448 152.8 448 144C448 135.2 440.8 128 432 128L384 128C378.5 128 373.4 130.8 370.5 135.4L272 290.2L173.5 135.4C170.6 130.8 165.5 128 160 128L112 128zM560 400C560 394.9 557.5 390 553.4 387C549.3 384 543.9 383.2 539 384.8L491 400.8C482.6 403.6 478.1 412.7 480.9 421C483.7 429.3 492.8 433.9 501.1 431.1L528 422.1L528 543.9L496 543.9C487.2 543.9 480 551.1 480 559.9C480 568.7 487.2 575.9 496 575.9L592 575.9C600.8 575.9 608 568.7 608 559.9C608 551.1 600.8 543.9 592 543.9L560 543.9L560 399.9z"/></svg>