<svg xmlns="http://www.w3.org/2000/svg" viewBox="0 0 640 640"><!--! Font Awesome Pro 7.1.0 by @fontawesome - https://fontawesome.com License - https://fontawesome.com/license (Commercial License) Copyright 2025 Fonticons, Inc. --><path fill="currentColor" d="M512 160C529.7 160 544 174.3 544 192L544 448C544 465.7 529.7 480 512 480L128 480C110.3 480 96 465.7 96 448L96 192C96 174.3 110.3 160 128 160L512 160zM128 128C92.7 128 64 156.7 64 192L64 448C64 483.3 92.7 512 128 512L512 512C547.3 512 576 483.3 576 448L576 192C576 156.7 547.3 128 512 128L128 128zM144 416C144 424.8 151.2 432 160 432L224 432C232.8 432 240 424.8 240 416C240 407.2 232.8 400 224 400L160 400C151.2 400 144 407.2 144 416zM288 416C288 424.8 295.2 432 304 432L480 432C488.8 432 496 424.8 496 416C496 407.2 488.8 400 480 400L304 400C295.2 400 288 407.2 288 416zM480 320L416 320C407.2 320 400 327.2 400 336C400 344.8 407.2 352 416 352L480 352C488.8 352 496 344.8 496 336C496 327.2 488.8 320 480 320zM336 320L160 320C151.2 320 144 327.2 144 336C144 344.8 151.2 352 160 352L336 352C344.8 352 352 344.8 352 336C352 327.2 344.8 320 336 320z"/></svg>