<svg xmlns="http://www.w3.org/2000/svg" viewBox="0 0 640 640"><!--! Font Awesome Pro 7.1.0 by @fontawesome - https://fontawesome.com License - https://fontawesome.com/license (Commercial License) Copyright 2025 Fonticons, Inc. --><path fill="currentColor" d="M304 96L304 288L160 288L160 160C160 124.7 188.7 96 224 96L304 96zM336 96L416 96C451.3 96 480 124.7 480 160L480 288L336 288L336 96zM128 288L128 416C128 458.5 155.6 494.5 193.9 507.2L131.7 581.8C126 588.6 127 598.7 133.7 604.3C140.4 609.9 150.6 609 156.2 602.3L231.4 512.1L408.4 512.1L483.6 602.3C489.3 609.1 499.3 610 506.1 604.3C512.9 598.6 513.8 588.6 508.1 581.8L445.9 507.2C484.4 494.5 512 458.5 512 416L512 160C512 107 469 64 416 64L224 64C171 64 128 107 128 160L128 288zM480 416C480 451.3 451.3 480 416 480L224 480C188.7 480 160 451.3 160 416L160 320L480 320L480 416zM416 408C429.3 408 440 397.3 440 384C440 370.7 429.3 360 416 360C402.7 360 392 370.7 392 384C392 397.3 402.7 408 416 408zM248 384C248 370.7 237.3 360 224 360C210.7 360 200 370.7 200 384C200 397.3 210.7 408 224 408C237.3 408 248 397.3 248 384z"/></svg>