<svg xmlns="http://www.w3.org/2000/svg" viewBox="0 0 640 640"><!--! Font Awesome Pro 7.1.0 by @fontawesome - https://fontawesome.com License - https://fontawesome.com/license (Commercial License) Copyright 2025 Fonticons, Inc. --><path fill="currentColor" d="M320 96C196.3 96 96 196.3 96 320L96 560C96 568.8 88.8 576 80 576C71.2 576 64 568.8 64 560L64 320C64 178.6 178.6 64 320 64C461.4 64 576 178.6 576 320L576 560C576 568.8 568.8 576 560 576C551.2 576 544 568.8 544 560L544 320C544 196.3 443.7 96 320 96zM336 224L336 320L432 320L432 272C432 245.5 410.5 224 384 224L336 224zM304 224L256 224C229.5 224 208 245.5 208 272L208 320L304 320L304 224zM208 352L208 432C208 458.5 229.5 480 256 480L384 480C410.5 480 432 458.5 432 432L432 352L208 352zM176 272C176 227.8 211.8 192 256 192L384 192C428.2 192 464 227.8 464 272L464 432C464 464.8 444.2 493 416 505.4L459.3 548.7C465.5 554.9 465.5 565.1 459.3 571.3C453.1 577.5 442.9 577.5 436.7 571.3L377.4 512L262.7 512L203.4 571.3C197.2 577.5 187 577.5 180.8 571.3C174.6 565.1 174.6 554.9 180.8 548.7L224 505.4C195.7 493.1 176 464.9 176 432L176 272zM240 424C240 410.7 250.7 400 264 400C277.3 400 288 410.7 288 424C288 437.3 277.3 448 264 448C250.7 448 240 437.3 240 424zM376 400C389.3 400 400 410.7 400 424C400 437.3 389.3 448 376 448C362.7 448 352 437.3 352 424C352 410.7 362.7 400 376 400z"/></svg>