<svg xmlns="http://www.w3.org/2000/svg" viewBox="0 0 640 640"><!--! Font Awesome Pro 7.1.0 by @fontawesome - https://fontawesome.com License - https://fontawesome.com/license (Commercial License) Copyright 2025 Fonticons, Inc. --><path fill="currentColor" d="M256 80L256 160L384 160L384 80C384 71.2 376.8 64 368 64L272 64C263.2 64 256 71.2 256 80zM224 160L224 80C224 53.5 245.5 32 272 32L368 32C394.5 32 416 53.5 416 80L416 160L448 160C483.3 160 512 188.7 512 224L512 512C512 547.3 483.3 576 448 576L448 592C448 600.8 440.8 608 432 608C423.2 608 416 600.8 416 592L416 576L224 576L224 592C224 600.8 216.8 608 208 608C199.2 608 192 600.8 192 592L192 576C156.7 576 128 547.3 128 512L128 224C128 188.7 156.7 160 192 160L224 160zM208 544L448 544C465.7 544 480 529.7 480 512L480 224C480 206.3 465.7 192 448 192L192 192C174.3 192 160 206.3 160 224L160 512C160 529.7 174.3 544 192 544L208 544zM224 320C224 311.2 231.2 304 240 304L400 304C408.8 304 416 311.2 416 320C416 328.8 408.8 336 400 336L240 336C231.2 336 224 328.8 224 320zM224 416C224 407.2 231.2 400 240 400L400 400C408.8 400 416 407.2 416 416C416 424.8 408.8 432 400 432L240 432C231.2 432 224 424.8 224 416z"/></svg>