<svg xmlns="http://www.w3.org/2000/svg" viewBox="0 0 640 640"><!--! Font Awesome Pro 7.1.0 by @fontawesome - https://fontawesome.com License - https://fontawesome.com/license (Commercial License) Copyright 2025 Fonticons, Inc. --><path fill="currentColor" d="M256 112L256 160L384 160L384 112C384 103.2 376.8 96 368 96L272 96C263.2 96 256 103.2 256 112zM224 160L224 112C224 85.5 245.5 64 272 64L368 64C394.5 64 416 85.5 416 112L416 160L512 160C547.3 160 576 188.7 576 224L576 480C576 515.3 547.3 544 512 544L128 544C92.7 544 64 515.3 64 480L64 224C64 188.7 92.7 160 128 160L224 160zM400 192L192 192L192 512L448 512L448 192L400 192zM480 192L480 512L512 512C529.7 512 544 497.7 544 480L544 224C544 206.3 529.7 192 512 192L480 192zM160 512L160 192L128 192C110.3 192 96 206.3 96 224L96 480C96 497.7 110.3 512 128 512L160 512zM272 288C272 270.3 286.3 256 304 256L336 256C353.7 256 368 270.3 368 288L368 304L384 304C401.7 304 416 318.3 416 336L416 368C416 385.7 401.7 400 384 400L368 400L368 416C368 433.7 353.7 448 336 448L304 448C286.3 448 272 433.7 272 416L272 400L256 400C238.3 400 224 385.7 224 368L224 336C224 318.3 238.3 304 256 304L272 304L272 288zM336 400L336 376C336 371.6 339.6 368 344 368L384 368L384 336L344 336C339.6 336 336 332.4 336 328L336 288L304 288L304 328C304 332.4 300.4 336 296 336L256 336L256 368L296 368C300.4 368 304 371.6 304 376L304 416L336 416L336 400z"/></svg>