<svg xmlns="http://www.w3.org/2000/svg" viewBox="0 0 640 640"><!--! Font Awesome Pro 7.1.0 by @fontawesome - https://fontawesome.com License - https://fontawesome.com/license (Commercial License) Copyright 2025 Fonticons, Inc. --><path fill="currentColor" d="M160.5 64C155.4 64 150.5 66.5 147.6 70.6L146.4 72.4L118.9 123.3L63.3 106.7C57.7 105 51.6 106.6 47.4 110.7C43.2 114.8 41.7 121 43.4 126.6L60 182L9 209.5C3.8 212.3 .6 217.7 .6 223.6C.6 229.5 3.9 235 9 237.8L60 265.2L43.4 320.7C41.7 326.3 43.2 332.4 47.4 336.6C51.6 340.8 57.7 342.3 63.3 340.6L118.8 323.9L146.3 374.9C149.1 380.1 154.5 383.3 160.4 383.3C166.3 383.3 171.7 380.1 174.5 374.9L202 323.9L257.6 340.6C263.2 342.3 269.3 340.7 273.5 336.6C277.7 332.5 279.2 326.3 277.5 320.7L260.8 265.2L311.9 237.8C317.1 235 320.3 229.6 320.3 223.7C320.3 217.8 317.1 212.4 311.9 209.6L260.8 182.1L277.5 126.7C279.2 121.1 277.7 115 273.5 110.8C269.9 107.2 264.7 105.5 259.7 106.3L257.6 106.8L202 123.4L174.5 72.5C171.8 67.2 166.4 64 160.5 64zM140.9 150L160.5 113.7L180.1 150C183.7 156.7 191.5 159.9 198.8 157.7L238.4 145.9L226.6 185.4C224.4 192.7 227.7 200.5 234.4 204.1L270.7 223.7L234.4 243.3C227.7 246.9 224.5 254.7 226.6 262L238.4 301.5L198.8 289.7C192.4 287.8 185.7 290 181.7 295.1L180.2 297.4L160.6 333.7L141 297.4C137.8 291.6 131.5 288.4 125.1 289.1L122.4 289.7L82.8 301.5L94.7 262C96.9 254.7 93.6 246.9 86.9 243.3L50.6 223.7L86.9 204.1C93.6 200.5 96.8 192.7 94.7 185.4L82.8 145.9L122.4 157.7L125.1 158.3C131.5 159.1 137.9 155.8 141 150zM193.1 224.8C193.8 213 187.8 201.7 177.7 195.6C167.5 189.5 154.8 189.5 144.6 195.6C134.5 201.7 128.5 213 129.2 224.8C128.5 236.6 134.5 247.9 144.6 254C154.8 260.1 167.5 260.1 177.7 254C187.8 247.9 193.8 236.6 193.1 224.8zM464.8 224.8L464.8 268.7C453.4 261.1 439.6 256.6 424.9 256.6C385.2 256.6 352.9 288.8 352.9 328.5L352.9 338.1C341.5 340.6 331.2 346 323 354.3C311.1 366.4 305 383.2 305 402.3C305 416.7 312.4 433.2 321.5 447.6C330.9 462.7 343.8 478.3 358 491.7C364.2 497.5 373.8 497.5 380 491.7C394.2 478.3 407.1 462.7 416.5 447.5C425.5 433.1 433 416.6 433 402.3C433 383.2 426.9 366.4 415 354.3C406.8 346 396.5 340.6 385.1 338.1L385.1 328.5C385.1 306.4 403 288.6 425.1 288.6C447.2 288.6 465 306.5 465 328.5L465 543.9L16.2 543.9C7.4 543.9 .2 551.1 .2 559.9C.2 568.7 7.4 575.9 16.2 575.9L480.3 575.9C480.5 575.9 480.8 575.9 481 575.9C481.2 575.9 481.5 575.9 481.7 575.9L624.2 575.9C633 575.9 640.2 568.7 640.2 559.9C640.2 551.1 633 543.9 624.2 543.9L497 543.9L497 224.7C497 207.1 511.3 192.8 529 192.8C546.6 192.8 560.9 207.1 560.9 224.8L560.9 274.1C549.2 276.6 538.7 282 530.3 290.4C518.4 302.5 512.3 319.3 512.3 338.4C512.3 352.8 519.7 369.3 528.8 383.7C538.2 398.8 551.1 414.4 565.3 427.8C571.5 433.6 581.1 433.6 587.3 427.8C601.5 414.4 614.4 398.8 623.8 383.6C632.8 369.2 640.3 352.7 640.3 338.4C640.3 319.3 634.2 302.5 622.3 290.4C614.2 282.3 604.2 276.9 593 274.4L593 224.8C593 189.5 564.4 160.8 529.1 160.8C493.8 160.8 465.1 189.4 465.1 224.7zM587 428L576 416.4L576 416.4L587 428zM379.9 491.9L368.9 480.3L368.9 480.3L379.9 491.9zM348.6 430.8C340.3 417.5 337 407.5 337 402.5C337 390.2 340.8 382 345.8 377C350.8 372 358.4 368.6 369 368.6C379.6 368.6 387.2 372 392.2 377C397.2 382 401 390.2 401 402.5C401 407.4 397.7 417.4 389.4 430.8C383.9 439.6 376.9 448.7 369.1 457.4C361.3 448.8 354.2 439.6 348.8 430.9zM544.1 338.6C544.1 326.3 547.9 318.1 552.9 313.1C557.9 308.1 565.5 304.7 576.1 304.7C586.7 304.7 594.3 308.1 599.3 313.1C604.3 318.1 608.1 326.3 608.1 338.6C608.1 343.5 604.8 353.5 596.5 366.9C591 375.7 584 384.8 576.2 393.5C568.3 384.9 561.3 375.7 555.9 367C547.6 353.7 544.3 343.7 544.3 338.7z"/></svg>