<svg xmlns="http://www.w3.org/2000/svg" viewBox="0 0 640 640"><!--! Font Awesome Pro 7.1.0 by @fontawesome - https://fontawesome.com License - https://fontawesome.com/license (Commercial License) Copyright 2025 Fonticons, Inc. --><path fill="currentColor" d="M444.8 71.3L463 161.2L436.5 187.7C435.5 185.5 434.8 183.3 434.3 180.9L415.8 89.3L338 141C327.3 148.1 313.3 148.1 302.6 141L224.7 89.3L206.2 180.9C203.6 193.5 193.8 203.4 181.2 205.9L89.6 224.4L141.3 302.3C148.4 313 148.4 327 141.3 337.7L89.6 415.6L181.2 434.1C183.6 434.6 185.9 435.3 188 436.3L161.5 462.8L71.6 444.6C62.8 442.8 57 436.5 54.4 430.2C51.8 423.9 51.4 415.3 56.4 407.8L114.6 320L56.4 232.2C51.4 224.7 51.8 216.2 54.4 209.8C57 203.4 62.8 197.2 71.6 195.4L174.8 174.6L195.7 71.3C197.5 62.5 203.8 56.7 210.1 54.1C216.4 51.5 225 51.1 232.5 56.1L320.3 114.3L408 56.1C415.5 51.1 424 51.5 430.4 54.1C436.8 56.7 443 62.5 444.8 71.3zM320.3 208C347.2 208 371.8 217.5 391.1 233.2L368.3 256C354.9 246 338.3 240 320.3 240C276.1 240 240.3 275.8 240.3 320C240.3 338 246.3 354.6 256.3 368L233.5 390.8C217.7 371.5 208.3 346.9 208.3 320C208.3 258.1 258.4 208 320.3 208zM520.3 224C520.3 210.7 531 200 544.3 200C557.6 200 568.3 210.7 568.3 224C568.3 237.3 557.6 248 544.3 248C531 248 520.3 237.3 520.3 224zM464.3 280C477.6 280 488.3 290.7 488.3 304C488.3 317.3 477.6 328 464.3 328C451 328 440.3 317.3 440.3 304C440.3 290.7 451 280 464.3 280zM520.3 384C520.3 370.7 531 360 544.3 360C557.6 360 568.3 370.7 568.3 384C568.3 397.3 557.6 408 544.3 408C531 408 520.3 397.3 520.3 384zM464.3 440C477.6 440 488.3 450.7 488.3 464C488.3 477.3 477.6 488 464.3 488C451 488 440.3 477.3 440.3 464C440.3 450.7 451 440 464.3 440zM224.3 520C237.6 520 248.3 530.7 248.3 544C248.3 557.3 237.6 568 224.3 568C211 568 200.3 557.3 200.3 544C200.3 530.7 211 520 224.3 520zM384.3 520C397.6 520 408.3 530.7 408.3 544C408.3 557.3 397.6 568 384.3 568C371 568 360.3 557.3 360.3 544C360.3 530.7 371 520 384.3 520zM520.3 544C520.3 530.7 531 520 544.3 520C557.6 520 568.3 530.7 568.3 544C568.3 557.3 557.6 568 544.3 568C531 568 520.3 557.3 520.3 544zM304.3 440C317.6 440 328.3 450.7 328.3 464C328.3 477.3 317.6 488 304.3 488C291 488 280.3 477.3 280.3 464C280.3 450.7 291 440 304.3 440zM360.3 384C360.3 370.7 371 360 384.3 360C397.6 360 408.3 370.7 408.3 384C408.3 397.3 397.6 408 384.3 408C371 408 360.3 397.3 360.3 384z"/></svg>