<svg xmlns="http://www.w3.org/2000/svg" viewBox="0 0 640 640"><!--! Font Awesome Pro 7.1.0 by @fontawesome - https://fontawesome.com License - https://fontawesome.com/license (Commercial License) Copyright 2025 Fonticons, Inc. --><path fill="currentColor" d="M415.5 89.3L434 180.9C436.6 193.5 446.4 203.4 459 205.9L550.6 224.4L498.9 302.3C491.8 313 491.8 327 498.9 337.7L520.6 370.4C541.4 374.5 560.4 383.6 576.2 396.4L525.6 320.1L583.8 232.3C588.8 224.8 588.4 216.3 585.8 209.9C583.2 203.5 577.4 197.3 568.6 195.5L465.4 174.6L444.6 71.3C442.8 62.5 436.5 56.7 430.2 54.1C423.9 51.5 415.3 51.1 407.8 56.1L320 114.3L232.2 56.1C224.7 51.1 216.2 51.5 209.8 54.1C203.4 56.7 197.2 62.5 195.4 71.3L174.6 174.6L71.3 195.4C62.5 197.2 56.7 203.5 54.1 209.8C51.5 216.1 51.1 224.7 56.1 232.2L114.3 320L56.1 407.8C51.1 415.3 51.5 423.8 54.1 430.2C56.7 436.6 62.5 442.8 71.3 444.6L174.5 465.5L195.4 568.7C197.2 577.5 203.5 583.3 209.8 585.9C216.1 588.5 224.7 588.9 232.2 583.9L273.7 556.4C272.6 549.8 272 543 272 536C272 530 272.4 524 273.3 518.3L224.4 550.7L205.9 459.1C203.3 446.5 193.5 436.6 180.9 434.1L89.3 415.5L141 337.7C148.1 327 148.1 313 141 302.3L89.3 224.4L180.9 205.9C193.5 203.3 203.4 193.5 205.9 180.9L224.5 89.3L302.3 141C313 148.1 327 148.1 337.7 141L415.6 89.3zM320 240C364.2 240 400 275.8 400 320C400 364.2 364.2 400 320 400C275.8 400 240 364.2 240 320C240 275.8 275.8 240 320 240zM320 432C381.9 432 432 381.9 432 320C432 258.1 381.9 208 320 208C258.1 208 208 258.1 208 320C208 381.9 258.1 432 320 432zM496 416C461 416 431.2 438.5 420.4 469.8C411.7 466.1 402.1 464 392 464C352.2 464 320 496.2 320 536C320 575.8 352.2 608 392 608L576 608C611.3 608 640 579.3 640 544C640 508.7 611.3 480 576 480C575.5 480 574.9 480 574.4 480C567 443.5 534.7 416 496 416zM448 496.7L448 495.9C448 469.4 469.5 447.9 496 447.9C522.5 447.9 544 469.4 544 495.9C544 496.6 544 497.3 544 498C543.8 503.3 546.2 508.4 550.5 511.5C554.8 514.6 560.3 515.5 565.4 513.7C568.7 512.5 572.3 511.9 576.1 511.9C593.8 511.9 608.1 526.2 608.1 543.9C608.1 561.6 593.8 575.9 576.1 575.9L392.1 575.9C370 575.9 352.1 558 352.1 535.9C352.1 513.8 370 495.9 392.1 495.9C403.3 495.9 413.4 500.5 420.7 507.9C425.3 512.6 432.2 514 438.2 511.5C444.2 509 448.1 503.1 448.1 496.6z"/></svg>