<svg xmlns="http://www.w3.org/2000/svg" viewBox="0 0 640 640"><!--! Font Awesome Pro 7.1.0 by @fontawesome - https://fontawesome.com License - https://fontawesome.com/license (Commercial License) Copyright 2025 Fonticons, Inc. --><path fill="currentColor" d="M434.3 180.9C436.9 193.5 446.7 203.4 459.3 205.9L550.9 224.4L499.2 302.3C492.1 313 492.1 327 499.2 337.7L550.9 415.6L459.3 434.1C446.7 436.7 436.8 446.5 434.3 459.1L415.8 550.7L338 499C327.3 491.9 313.3 491.9 302.6 499L224.7 550.7L206.2 459.1C203.6 446.5 193.8 436.6 181.2 434.1L89.6 415.6L141.3 337.7C148.4 327 148.4 313 141.3 302.3L89.6 224.4L181.2 205.9C193.8 203.3 203.7 193.5 206.2 180.9L224.7 89.3L302.6 141C313.3 148.1 327.3 148.1 338 141L415.9 89.3L434.4 180.9zM444.8 71.3C443 62.5 436.7 56.7 430.4 54.1C424.1 51.5 415.5 51.1 408 56.1L320.3 114.3L232.5 56.1C225 51.1 216.5 51.5 210.1 54.1C203.7 56.7 197.5 62.5 195.7 71.3L174.8 174.6L71.6 195.4C62.8 197.2 57 203.5 54.4 209.8C51.8 216.1 51.4 224.7 56.4 232.2L114.6 320L56.4 407.8C51.4 415.3 51.8 423.8 54.4 430.2C57 436.6 62.8 442.8 71.6 444.6L174.8 465.5L195.7 568.7C197.5 577.5 203.8 583.3 210.1 585.9C216.4 588.5 225 588.9 232.5 583.9L320.3 525.7L408.1 583.9C415.6 588.9 424.1 588.5 430.5 585.9C436.9 583.3 443.1 577.5 444.9 568.7L465.8 465.5L569 444.6C577.8 442.8 583.6 436.5 586.2 430.2C588.8 423.9 589.2 415.3 584.2 407.8L526 320L584.2 232.2C589.2 224.7 588.8 216.2 586.2 209.8C583.6 203.4 577.8 197.2 569 195.4L465.7 174.6L444.8 71.3zM239.7 320C238.7 290.7 253.7 263.1 279 248.1C304.2 233.1 335.7 233.1 360.9 248.1C386.2 263.1 401.2 290.7 400.2 320C401.2 349.3 386.2 376.9 360.9 391.9C335.7 406.9 304.2 406.9 279 391.9C253.7 376.9 238.7 349.3 239.7 320zM432.2 320C433.4 279.1 412.3 240.8 377.1 220C341.8 199.1 298.1 199.1 262.8 220C227.6 240.8 206.5 279.1 207.7 320C206.5 360.9 227.6 399.2 262.8 420C298.1 440.9 341.8 440.9 377.1 420C412.3 399.2 433.4 360.9 432.2 320z"/></svg>