<svg xmlns="http://www.w3.org/2000/svg" viewBox="0 0 640 640"><!--! Font Awesome Pro 7.1.0 by @fontawesome - https://fontawesome.com License - https://fontawesome.com/license (Commercial License) Copyright 2025 Fonticons, Inc. --><path fill="currentColor" d="M160.3 128C138.8 128 120 142.2 114.1 162.8L69.2 320L256 320C273.7 320 288 334.3 288 352L352 352C352 334.3 366.3 320 384 320L570.8 320L525.9 162.8C520 142.2 501.2 128 479.7 128L448 128C439.2 128 432 120.8 432 112C432 103.2 439.2 96 448 96L479.7 96C515.4 96 546.8 119.7 556.6 154L604.9 323C606.9 330.1 608 337.5 608 345L608 448C608 501 565 544 512 544L448 544C395 544 352 501 352 448L352 384L288 384L288 448C288 501 245 544 192 544L128 544C75 544 32 501 32 448L32 345C32 337.6 33 330.2 35.1 323L83.4 154C93.2 119.7 124.6 96 160.3 96L192 96C200.8 96 208 103.2 208 112C208 120.8 200.8 128 192 128L160.3 128zM550.7 352L384 352L384 448C384 460.1 387.3 471.3 393.1 481L550.7 352zM576 372.7L416.1 503.5C425.5 508.9 436.4 512 448 512L512 512C547.3 512 576 483.3 576 448L576 372.7zM64 352L64 448C64 460.1 67.3 471.3 73.1 481L230.7 352L64 352zM128 512L192 512C227.3 512 256 483.3 256 448L256 372.7L96.1 503.5C105.5 508.9 116.4 512 128 512z"/></svg>