<svg xmlns="http://www.w3.org/2000/svg" viewBox="0 0 640 640"><!--! Font Awesome Pro 7.1.0 by @fontawesome - https://fontawesome.com License - https://fontawesome.com/license (Commercial License) Copyright 2025 Fonticons, Inc. --><path fill="currentColor" d="M395.6 187.3C401.8 181.1 401.8 170.9 395.6 164.7C389.4 158.5 379.2 158.5 373 164.7L336.3 201.4L336.3 64C336.3 55.2 329.1 48 320.3 48C311.5 48 304.3 55.2 304.3 64L304.3 201.4L267.6 164.7C261.4 158.5 251.2 158.5 245 164.7C238.8 170.9 238.8 181.1 245 187.3L309 251.3C315.2 257.5 325.4 257.5 331.6 251.3L395.6 187.3zM415.8 297.3L434.3 388.9C436.9 401.5 446.7 411.4 459.3 413.9L550.9 432.4L519.4 479.9L557.8 479.9L584.2 440.1C589.2 432.6 588.8 424.1 586.2 417.7C583.6 411.3 577.8 405.1 569 403.3L465.8 382.4L444.9 279.2C443.1 270.4 436.8 264.6 430.5 262C424.2 259.4 415.6 259 408.1 264L320.3 322.2L232.5 264C225 259 216.5 259.4 210.1 262C203.7 264.6 197.5 270.4 195.7 279.2L174.8 382.6L71.6 403.4C62.8 405.2 57 411.5 54.4 417.8C51.8 424.1 51.4 432.7 56.4 440.2L82.8 480L121.2 480L89.7 432.5L181.3 414C193.9 411.4 203.8 401.6 206.3 389L224.8 297.4L302.7 349C313.4 356.1 327.4 356.1 338.1 349L416 297.4zM421.5 480C403.5 442.2 365 416 320.3 416C275.6 416 237 442.2 219 480L256.2 480C270.8 460.6 294 448 320.2 448C346.4 448 369.6 460.6 384.2 480L421.4 480zM64.3 560C64.3 568.8 71.5 576 80.3 576L560.3 576C569.1 576 576.3 568.8 576.3 560C576.3 551.2 569.1 544 560.3 544L80.3 544C71.5 544 64.3 551.2 64.3 560z"/></svg>