<svg xmlns="http://www.w3.org/2000/svg" viewBox="0 0 640 640"><!--! Font Awesome Pro 7.1.0 by @fontawesome - https://fontawesome.com License - https://fontawesome.com/license (Commercial License) Copyright 2025 Fonticons, Inc. --><path fill="currentColor" d="M560 80C560 74.9 557.5 70 553.4 67C549.3 64 543.8 63.2 538.9 64.8L490.9 80.8C482.5 83.6 478 92.7 480.8 101C483.6 109.3 492.7 114 501.1 111.2L528 102.2L528 224L496 224C487.2 224 480 231.2 480 240C480 248.8 487.2 256 496 256L592 256C600.8 256 608 248.8 608 240C608 231.2 600.8 224 592 224L560 224L560 80zM112 128C103.2 128 96 135.2 96 144C96 152.8 103.2 160 112 160L151.2 160L253 320L151.2 480L112 480C103.2 480 96 487.2 96 496C96 504.8 103.2 512 112 512L160 512C165.5 512 170.6 509.2 173.5 504.6L272 349.8L370.5 504.6C373.4 509.2 378.5 512 384 512L432 512C440.8 512 448 504.8 448 496C448 487.2 440.8 480 432 480L392.8 480L291 320L392.8 160L432 160C440.8 160 448 152.8 448 144C448 135.2 440.8 128 432 128L384 128C378.5 128 373.4 130.8 370.5 135.4L272 290.2L173.5 135.4C170.6 130.8 165.5 128 160 128L112 128z"/></svg>