<svg xmlns="http://www.w3.org/2000/svg" viewBox="0 0 640 640"><!--! Font Awesome Pro 7.1.0 by @fontawesome - https://fontawesome.com License - https://fontawesome.com/license (Commercial License) Copyright 2025 Fonticons, Inc. --><path fill="currentColor" d="M544 320C544 196.3 443.7 96 320 96C196.3 96 96 196.3 96 320C96 443.7 196.3 544 320 544C443.7 544 544 443.7 544 320zM64 320C64 178.6 178.6 64 320 64C461.4 64 576 178.6 576 320C576 461.4 461.4 576 320 576C178.6 576 64 461.4 64 320zM240 248C253.3 248 264 258.7 264 272C264 285.3 253.3 296 240 296C226.7 296 216 285.3 216 272C216 258.7 226.7 248 240 248zM376 272C376 258.7 386.7 248 400 248C413.3 248 424 258.7 424 272C424 285.3 413.3 296 400 296C386.7 296 376 285.3 376 272zM272 416C272 442.5 293.5 464 320 464C346.5 464 368 442.5 368 416C368 389.5 346.5 368 320 368C293.5 368 272 389.5 272 416zM320 496C275.8 496 240 460.2 240 416C240 371.8 275.8 336 320 336C364.2 336 400 371.8 400 416C400 460.2 364.2 496 320 496z"/></svg>