<svg xmlns="http://www.w3.org/2000/svg" viewBox="0 0 640 640"><!--! Font Awesome Pro 7.1.0 by @fontawesome - https://fontawesome.com License - https://fontawesome.com/license (Commercial License) Copyright 2025 Fonticons, Inc. --><path fill="currentColor" d="M37.2 203.3C31 197.1 31 186.9 37.2 180.7L117.2 100.7C120.2 97.7 124.3 96 128.5 96C132.7 96 136.8 97.7 139.8 100.7L219.8 180.7C226 186.9 226 197.1 219.8 203.3C213.6 209.5 203.4 209.5 197.2 203.3L144.5 150.6L144.5 432C144.5 476.2 180.3 512 224.5 512C268.7 512 304.5 476.2 304.5 432L304.5 208C304.5 146.1 354.6 96 416.5 96C478.4 96 528.5 146.1 528.5 208L528.5 489.4L581.2 436.7C587.4 430.5 597.6 430.5 603.8 436.7C610 442.9 610 453.1 603.8 459.3L523.8 539.3C517.6 545.5 507.4 545.5 501.2 539.3L421.2 459.3C415 453.1 415 442.9 421.2 436.7C427.4 430.5 437.6 430.5 443.8 436.7L496.5 489.4L496.5 208C496.5 163.8 460.7 128 416.5 128C372.3 128 336.5 163.8 336.5 208L336.5 432C336.5 493.9 286.4 544 224.5 544C162.6 544 112.5 493.9 112.5 432L112.5 150.6L59.8 203.3C53.6 209.5 43.4 209.5 37.2 203.3z"/></svg>