<svg xmlns="http://www.w3.org/2000/svg" viewBox="0 0 640 640"><!--! Font Awesome Pro 7.1.0 by @fontawesome - https://fontawesome.com License - https://fontawesome.com/license (Commercial License) Copyright 2025 Fonticons, Inc. --><path fill="currentColor" d="M60.4 224L112 224L112 432C112 493.9 162.1 544 224 544C285.9 544 336 493.9 336 432L336 208C336 163.8 371.8 128 416 128C460.2 128 496 163.8 496 208L496 416L444.4 416C428.7 416 416 428.9 416 444.8C416 452.4 419 459.8 424.3 465.2L495 536.9C504.4 546.4 519.6 546.4 528.9 536.9L599.6 465.2C604.9 459.8 607.9 452.5 607.9 444.8C607.9 428.9 595.2 416 579.5 416L527.9 416L527.9 208C527.9 146.1 477.8 96 415.9 96C354 96 304 146.1 304 208L304 432C304 476.2 268.2 512 224 512C179.8 512 144 476.2 144 432L144 224L195.6 224C211.3 224 224 211.1 224 195.2C224 187.6 221 180.2 215.7 174.8L145 103.1C135.6 93.6 120.4 93.6 111.1 103.1L40.3 174.8C35 180.2 32 187.5 32 195.2C32 211.1 44.7 224 60.4 224zM512 448L571.7 448L512 508.5L452.3 448L512 448zM128 131.5L187.7 192L68.3 192L128 131.5z"/></svg>