<svg xmlns="http://www.w3.org/2000/svg" viewBox="0 0 640 640"><!--! Font Awesome Pro 7.1.0 by @fontawesome - https://fontawesome.com License - https://fontawesome.com/license (Commercial License) Copyright 2025 Fonticons, Inc. --><path fill="currentColor" d="M64 480C64 533 107 576 160 576L512 576C547.3 576 576 547.3 576 512L576 448C576 412.7 547.3 384 512 384L463.6 384L431.6 416L512 416C529.7 416 544 430.3 544 448L544 512C544 529.7 529.7 544 512 544L235.7 544L477.3 302.4C502.3 277.4 502.3 236.9 477.3 211.9L432 166.6C407 141.6 366.5 141.6 341.5 166.6L303.9 204.2L303.9 249.5L364.1 189.3C376.6 176.8 396.9 176.8 409.4 189.3L454.7 234.6C467.2 247.1 467.2 267.4 454.7 279.9L256 478.5L256 128C256 92.7 227.3 64 192 64L128 64C92.7 64 64 92.7 64 128L64 480zM160 544C124.7 544 96 515.3 96 480L96 352L224 352L224 480C224 515.3 195.3 544 160 544zM96 320L96 224L224 224L224 320L96 320zM96 192L96 128C96 110.3 110.3 96 128 96L192 96C209.7 96 224 110.3 224 128L224 192L96 192zM160 504C173.3 504 184 493.3 184 480C184 466.7 173.3 456 160 456C146.7 456 136 466.7 136 480C136 493.3 146.7 504 160 504z"/></svg>