<svg xmlns="http://www.w3.org/2000/svg" viewBox="0 0 640 640"><!--! Font Awesome Pro 7.1.0 by @fontawesome - https://fontawesome.com License - https://fontawesome.com/license (Commercial License) Copyright 2025 Fonticons, Inc. --><path fill="currentColor" d="M496 192C509.3 192 520 202.7 520 216C520 229.3 509.3 240 496 240C482.7 240 472 229.3 472 216C472 202.7 482.7 192 496 192zM496 272C526.9 272 552 246.9 552 216C552 185.1 526.9 160 496 160C465.1 160 440 185.1 440 216C440 246.9 465.1 272 496 272zM420.9 346C431.9 344.2 443.1 343.6 454.2 344.3C442.7 308.9 421.3 277 392.1 252.6C370.7 234.8 345.8 221.6 319.1 214L272.9 200.8C250.3 194.4 226.1 198.1 206.5 211.2L135.1 258.8C127.7 263.7 125.8 273.6 130.7 281C135.6 288.4 145.5 290.3 152.9 285.4L224.3 237.8C236 230 250.6 227.7 264.1 231.6L310.3 244.8C313.2 245.6 316 246.5 318.8 247.5L205.6 344.5C219 345.5 232.4 348.2 245.3 352.7L350.7 262.4C358 266.8 365.1 271.8 371.7 277.3C394 295.9 410.8 319.7 421 346.1zM402 437.9C428 419.3 463.1 419.3 489.1 437.9C508.8 452 531.5 464.8 556.1 469.5C581.3 474.3 607.8 470.4 633.3 452.1C640.5 447 642.2 437 637 429.8C631.8 422.6 621.9 420.9 614.7 426.1C596.7 438.9 579.3 441.4 562.1 438.1C544.2 434.7 525.9 424.9 507.7 411.9C470.6 385.4 420.6 385.4 383.4 411.9C358.1 430 338.1 440 319.9 440C301.7 440 281.8 429.9 256.4 411.9C219.3 385.4 169.3 385.4 132.1 411.9C108.9 428.4 86 439.6 63.9 439.4C51.4 439.3 38.5 435.7 25.1 426.1C17.9 421 7.9 422.6 2.8 429.8C-2.3 437-.5 447 6.7 452.1C25.4 465.4 44.7 471.3 63.9 471.4C96.3 471.6 126.1 455.6 150.8 437.9C176.8 419.3 211.9 419.3 237.9 437.9C263.5 456.2 290.8 472 319.9 472C349 472 376.3 456.2 401.9 437.9z"/></svg>