<svg xmlns="http://www.w3.org/2000/svg" viewBox="0 0 640 640"><!--! Font Awesome Pro 7.1.0 by @fontawesome - https://fontawesome.com License - https://fontawesome.com/license (Commercial License) Copyright 2025 Fonticons, Inc. --><path fill="currentColor" d="M203.7 340.7L487 57.4C493 51.4 501.1 48 509.6 48L576.3 48C585.1 48 592.3 55.2 592.3 64L592.3 130.7C592.3 139.2 588.9 147.3 582.9 153.3L299.6 436.6L329.3 466.3C341.2 478.2 341.2 497.6 329.3 509.5C321.8 516.9 311.1 520 300.8 517.7L213.3 497.5L168.3 542.5L168.3 561.2C168.3 569.7 164.9 577.8 158.9 583.8L150.9 591.8C138.4 604.3 118.1 604.3 105.6 591.8L48.4 534.6C35.9 522.1 35.9 501.8 48.4 489.3L56.4 481.3C62.4 475.3 70.5 471.9 79 471.9L97.7 471.9L142.7 426.9L122.5 339.4C120.1 329.1 123.2 318.4 130.7 310.9C142.6 299 162 299 173.9 310.9L203.6 340.6zM226.3 363.3L277 414L560.3 130.7L560.3 80L509.6 80L226.3 363.3zM176 428.4C177.2 433.8 175.6 439.4 171.7 443.3L115.7 499.3C112.7 502.3 108.6 504 104.4 504L79 504L71 512L128.4 569.4L136.4 561.4L136.4 536C136.4 531.8 138.1 527.7 141.1 524.7L197.1 468.7C201 464.8 206.6 463.2 212 464.4L303.2 485.5L154.9 337.2L176 428.4z"/></svg>