<svg xmlns="http://www.w3.org/2000/svg" viewBox="0 0 640 640"><!--! Font Awesome Pro 7.1.0 by @fontawesome - https://fontawesome.com License - https://fontawesome.com/license (Commercial License) Copyright 2025 Fonticons, Inc. --><path fill="currentColor" d="M35.4 518.1L202.6 350.8C202.1 365.9 207.5 381.6 220.3 394.4L276.3 450.4L122 604.7C103.3 623.4 72.9 623.4 54.1 604.7L35.4 585.9C16.7 567.2 16.7 536.8 35.4 518zM612.7 83.5L430.7 284.2L407.1 262.6L589 62C591.8 58.9 591.7 54.2 588.7 51.3C585.7 48.4 581.1 48.3 578 51L376 234.3L352.2 212.7L556.6 27.3C572.3 13.1 596.4 13.6 611.4 28.6C626.4 43.6 627 67.8 612.7 83.5zM192.1 406.6L166.7 432L208.1 473.4L233.5 448L192.1 406.6zM185.4 496L144.1 454.6L58 540.7C51.8 546.9 51.8 557.1 58 563.3L76.7 582C82.9 588.2 93.1 588.2 99.3 582L185.4 496zM51.3 51.4C48.4 54.3 48.2 59 51 62.1L295.2 336L374.7 336L62.1 51.1C59 48.3 54.2 48.4 51.3 51.4zM83.7 27.5L422.3 336L434.9 336C443.4 336 451.5 339.4 457.5 345.4L606.1 494.1C624.8 512.8 624.8 543.2 606.1 562L562 606.1C543.3 624.8 512.9 624.8 494.1 606.1L251.4 363.3C243.6 355.5 246.1 343.3 254.4 338.3L27.1 83.4C13 67.6 13.7 43.7 28.7 28.7C43.7 13.7 68 13.1 83.7 27.4zM583.5 539.3C589.7 533.1 589.7 522.9 583.5 516.7L508.8 442L486.7 464.1L572.8 550.2L583.5 539.5zM539.4 583.4L550.1 572.7L464 486.6L441.9 508.7L516.6 583.4C522.8 589.6 533 589.6 539.2 583.4zM419.4 486L486.1 419.3L434.8 368L301.3 368L419.4 486.1z"/></svg>