<svg xmlns="http://www.w3.org/2000/svg" viewBox="0 0 640 640"><!--! Font Awesome Pro 7.1.0 by @fontawesome - https://fontawesome.com License - https://fontawesome.com/license (Commercial License) Copyright 2025 Fonticons, Inc. --><path fill="currentColor" d="M578.4 51.1L263.6 336.6L303.9 376.8L589.4 62C592.2 58.9 592.1 54.2 589.1 51.3C586.1 48.4 581.5 48.3 578.4 51zM241 313.9L557 27.3C572.7 13.1 596.8 13.6 611.8 28.6C626.8 43.6 627.4 67.7 613.1 83.4L326.5 399.3L331.7 404.5C337.9 410.7 337.9 420.9 331.7 427.1C325.5 433.3 315.3 433.3 309.1 427.1L304.4 422.4L122.3 604.5C103.6 623.2 73.2 623.2 54.4 604.5L35.8 585.9C17.1 567.2 17.1 536.8 35.8 518L217.9 335.9L213.2 331.2C207 325 207 314.8 213.2 308.6C219.4 302.4 229.6 302.4 235.8 308.6L241 313.8zM281.8 400L240.4 358.6L215 384L256.4 425.4L281.8 400zM167.1 432L208.5 473.4L233.9 448L192.5 406.6L167.1 432zM144.5 454.6L58.4 540.7C52.2 546.9 52.2 557.1 58.4 563.3L77.1 582C83.3 588.2 93.5 588.2 99.7 582L185.8 495.9L144.4 454.5z"/></svg>