<svg xmlns="http://www.w3.org/2000/svg" viewBox="0 0 640 640"><!--! Font Awesome Pro 7.1.0 by @fontawesome - https://fontawesome.com License - https://fontawesome.com/license (Commercial License) Copyright 2025 Fonticons, Inc. --><path fill="currentColor" d="M96 96L146.7 96L438.1 387.3L387.3 438.1L96 146.7L96 96zM460.7 364.7L169.4 73.4C163.4 67.4 155.2 64 146.7 64L80 64C71.2 64 64 71.2 64 80L64 146.7C64 155.2 67.4 163.3 73.4 169.3L364.7 460.6L360.5 464.8C343.3 482 343.3 509.8 360.5 527C372.3 538.8 389.7 542.9 405.5 537.6L451.7 522.2L481.4 551.9C493.9 564.4 514.2 564.4 526.7 551.9L552 526.6C564.5 514.1 564.5 493.8 552 481.3L522.3 451.6L537.7 405.4C543 389.6 538.9 372.2 527.1 360.4C509.9 343.2 482.1 343.2 464.9 360.4L460.7 364.6zM487.6 383.1C492.3 378.4 499.9 378.4 504.5 383.1C507.7 386.3 508.8 391 507.4 395.3L488.9 450.9C487 456.7 488.5 463 492.8 467.3L529.5 504L504.1 529.4L467.4 492.7C463.1 488.4 456.8 486.9 451 488.8L395.4 507.3C391.1 508.7 386.4 507.6 383.2 504.4C378.5 499.7 378.5 492.1 383.2 487.5L487.5 383.1zM135.6 383.1C140.3 378.4 147.9 378.4 152.5 383.1L256.9 487.5C261.6 492.2 261.6 499.8 256.9 504.4C253.7 507.6 249 508.7 244.7 507.3L189.1 488.8C183.4 486.9 177 488.4 172.7 492.7L136 529.4L110.6 504L147.3 467.3C151.6 463 153.1 456.7 151.2 450.9L132.6 395.3C131.2 391 132.3 386.3 135.5 383.1zM175.2 360.5C158 343.3 130.2 343.3 113 360.5C101.2 372.3 97.1 389.7 102.4 405.5L117.7 451.7L88 481.4C75.5 493.9 75.5 514.2 88 526.7L113.4 552C125.9 564.5 146.2 564.5 158.7 552L188.4 522.3L234.6 537.7C250.4 543 267.8 538.9 279.6 527.1C296.8 509.9 296.8 482.1 279.6 464.9L275.4 460.7L320.1 416L297.5 393.4L252.8 438.1L202.1 387.4L246.8 342.7L224.2 320.1L179.5 364.8L175.3 360.6zM353.9 190.1L376.5 212.7L493.2 96L543.9 96L543.9 146.7L427.2 263.4L449.8 286L566.5 169.3C572.5 163.3 575.9 155.2 575.9 146.7L576 80C576 71.2 568.8 64 560 64L493.3 64C484.8 64 476.7 67.4 470.7 73.4L353.9 190.1z"/></svg>