<svg xmlns="http://www.w3.org/2000/svg" viewBox="0 0 640 640"><!--! Font Awesome Pro 7.1.0 by @fontawesome - https://fontawesome.com License - https://fontawesome.com/license (Commercial License) Copyright 2025 Fonticons, Inc. --><path fill="currentColor" d="M578 51.1L265.4 336L344.9 336L589.1 62.1C591.9 59 591.7 54.3 588.8 51.4C585.8 48.4 581.1 48.3 578 51.1zM217.9 336L556.5 27.5C572.2 13.2 596.4 13.7 611.5 28.8C626.4 43.7 627.1 67.7 613.1 83.5L385.8 338.3C394.1 343.3 396.6 355.5 388.8 363.3L146 606.1C127.3 624.8 96.9 624.8 78.1 606.1L34 561.9C15.3 543.2 15.3 512.8 34 494L182.7 345.4C188.7 339.4 196.8 336 205.3 336L217.9 336zM67.4 550.1L153.5 464L131.4 441.9L56.7 516.6C50.5 522.8 50.5 533 56.7 539.2L67.4 549.9zM90 572.7L100.7 583.4C106.9 589.6 117.1 589.6 123.3 583.4L198 508.7L175.9 486.6L89.8 572.7zM338.8 368L205.3 368L154 419.3L220.7 486L338.8 367.9z"/></svg>