<svg xmlns="http://www.w3.org/2000/svg" viewBox="0 0 640 640"><!--! Font Awesome Pro 7.1.0 by @fontawesome - https://fontawesome.com License - https://fontawesome.com/license (Commercial License) Copyright 2025 Fonticons, Inc. --><path fill="currentColor" d="M80 64L272 64C280.8 64 288 71.2 288 80C288 88.8 280.8 96 272 96L80 96C71.2 96 64 88.8 64 80C64 71.2 71.2 64 80 64zM80 160L272 160C280.8 160 288 167.2 288 176C288 184.8 280.8 192 272 192L192 192L192 272C192 280.8 184.8 288 176 288C167.2 288 160 280.8 160 272L160 192L80 192C71.2 192 64 184.8 64 176C64 167.2 71.2 160 80 160zM537.7 64.6C557.5 60.7 576 75.8 576 96L576 232.6C575.9 261.3 547.3 284.5 512 284.5C476.7 284.5 448 261.2 448 232.5C448 203.8 476.7 180.5 512 180.5C523.7 180.5 534.6 183 544 187.5L544 96.1L416 121.7L416 264.7C415.9 293.4 387.3 316.6 352 316.6C316.7 316.6 288 293.3 288 264.6C288 235.9 316.7 212.6 352 212.6C363.7 212.6 374.6 215.1 384 219.6L384 121.8C384 106.5 394.8 93.4 409.7 90.4L537.7 64.6zM544 232.5C544 229.4 542.5 225 537.1 220.6C531.6 216.1 522.8 212.5 512 212.5C501.2 212.5 492.5 216.1 486.9 220.6C481.4 225 480 229.4 480 232.5C480 235.6 481.5 240 486.9 244.4C492.4 248.9 501.2 252.5 512 252.5C522.8 252.5 531.5 248.9 537.1 244.4C542.6 240 544 235.6 544 232.5L544 232.5zM377.1 252.6C371.6 248.1 362.8 244.5 352 244.5C341.2 244.5 332.5 248.1 326.9 252.6C321.4 257 320 261.4 320 264.5C320 267.6 321.5 272 326.9 276.4C332.4 280.9 341.2 284.5 352 284.5C362.8 284.5 371.5 280.9 377.1 276.4C382.6 272 384 267.6 384 264.5C384 261.4 382.5 257 377.1 252.6zM528 544C536.8 544 544 536.8 544 528C544 519.2 536.8 512 528 512C519.2 512 512 519.2 512 528C512 536.8 519.2 544 528 544zM528 480C554.5 480 576 501.5 576 528C576 554.5 554.5 576 528 576C501.5 576 480 554.5 480 528C480 501.5 501.5 480 528 480zM416 400C416 391.2 408.8 384 400 384C391.2 384 384 391.2 384 400C384 408.8 391.2 416 400 416C408.8 416 416 408.8 416 400zM352 400C352 373.5 373.5 352 400 352C426.5 352 448 373.5 448 400C448 426.5 426.5 448 400 448C373.5 448 352 426.5 352 400zM571.3 356.7C577.5 362.9 577.5 373.1 571.3 379.3L379.3 571.3C373.1 577.5 362.9 577.5 356.7 571.3C350.5 565.1 350.5 554.9 356.7 548.7L548.7 356.7C554.9 350.5 565.1 350.5 571.3 356.7zM144 320L145.4 320C180 320 208 348 208 382.6C208 403.9 197.2 423.7 179.3 435.2L163.7 445.3L214.8 489.4L262.1 451.5C269 446 279.1 447.1 284.6 454C290.1 460.9 289 471 282.1 476.5L239.4 510.6L282.5 547.9C289.2 553.7 289.9 563.8 284.2 570.5C278.5 577.2 268.3 577.9 261.6 572.2L214 531.1L176.7 560.9C164.3 570.6 149 576 133.3 576L131.7 576C94.3 576 64 545.7 64 508.3C64 485.2 75.7 463.8 95.1 451.3L110.3 441.5L102.6 434.9C88.3 422.5 80 404.4 80 385.4L80 384C80 348.7 108.7 320 144 320zM162 408.3C170.8 402.7 176 393 176 382.6C176 365.7 162.3 352 145.4 352L144 352C126.3 352 112 366.3 112 384L112 385.4C112 395.1 116.2 404.3 123.6 410.7L138.4 423.5L162 408.3zM112.4 478.2C102.2 484.8 96 496.1 96 508.3C96 528 112 544 131.7 544L133.3 544C141.8 544 150 541.1 156.6 535.8L189.3 509.7L135.6 463.3L112.5 478.2z"/></svg>