<svg xmlns="http://www.w3.org/2000/svg" viewBox="0 0 640 640"><!--! Font Awesome Pro 7.1.0 by @fontawesome - https://fontawesome.com License - https://fontawesome.com/license (Commercial License) Copyright 2025 Fonticons, Inc. --><path fill="currentColor" d="M120 80C80.2 80 48 112.2 48 152L48 512C48 547.3 76.7 576 112 576L528 576C563.3 576 592 547.3 592 512L592 152C592 112.2 559.8 80 520 80C480.2 80 448 112.2 448 152L448 180.8L327.8 114C323 111.3 317.1 111.3 312.3 114L192 180.8L192 152C192 112.2 159.8 80 120 80zM160 192L80 192L80 152C80 129.9 97.9 112 120 112C142.1 112 160 129.9 160 152L160 192zM80 224L160 224L160 544L112 544C94.3 544 80 529.7 80 512L80 224zM192 217.4L320 146.3L448 217.4L448 544L384 544L384 464C384 428.7 355.3 400 320 400C284.7 400 256 428.7 256 464L256 544L192 544L192 217.4zM288 544L288 464C288 446.3 302.3 432 320 432C337.7 432 352 446.3 352 464L352 544L288 544zM480 224L560 224L560 512C560 529.7 545.7 544 528 544L480 544L480 224zM560 192L480 192L480 152C480 129.9 497.9 112 520 112C542.1 112 560 129.9 560 152L560 192zM288 272C288 254.3 302.3 240 320 240C337.7 240 352 254.3 352 272C352 289.7 337.7 304 320 304C302.3 304 288 289.7 288 272zM384 272C384 236.7 355.3 208 320 208C284.7 208 256 236.7 256 272C256 307.3 284.7 336 320 336C355.3 336 384 307.3 384 272z"/></svg>