<svg xmlns="http://www.w3.org/2000/svg" viewBox="0 0 640 640"><!--! Font Awesome Pro 7.1.0 by @fontawesome - https://fontawesome.com License - https://fontawesome.com/license (Commercial License) Copyright 2025 Fonticons, Inc. --><path fill="currentColor" d="M523.3 52.7C517.1 46.5 506.9 46.5 500.7 52.7C494.5 58.9 494.5 69.1 500.7 75.3L521.4 96L464 153.4L395.3 84.7C389.1 78.5 378.9 78.5 372.7 84.7C366.5 90.9 366.5 101.1 372.7 107.3L377.4 112L142.1 347.3C133.1 356.3 128 368.5 128 381.2L128 489.3L68.7 548.6C62.5 554.8 62.5 565 68.7 571.2C74.9 577.4 85.1 577.4 91.3 571.2L150.6 511.9L258.7 511.9C271.4 511.9 283.6 506.8 292.6 497.8L527.9 262.5L532.6 267.2C538.8 273.4 549 273.4 555.2 267.2C561.4 261 561.4 250.8 555.2 244.6L486.6 176L544 118.6L564.7 139.3C570.9 145.5 581.1 145.5 587.3 139.3C593.5 133.1 593.5 122.9 587.3 116.7L523.3 52.7zM505.4 240L270.1 475.3C267.1 478.3 263 480 258.8 480L160.1 480L160.1 381.3C160.1 377.1 161.8 373 164.8 370L208.1 326.7L244.8 363.4C251 369.6 261.2 369.6 267.4 363.4C273.6 357.2 273.6 347 267.4 340.8L230.7 304.1L304.1 230.7L340.8 267.4C347 273.6 357.2 273.6 363.4 267.4C369.6 261.2 369.6 251 363.4 244.8L326.6 208L400 134.6C435.1 169.7 470.2 204.8 505.4 240z"/></svg>