<svg xmlns="http://www.w3.org/2000/svg" viewBox="0 0 640 640"><!--! Font Awesome Pro 7.1.0 by @fontawesome - https://fontawesome.com License - https://fontawesome.com/license (Commercial License) Copyright 2025 Fonticons, Inc. --><path fill="currentColor" d="M439.3 96C412.5 96 388.3 112.3 378.3 137.3L366.8 166C366 168 364.8 169.8 363.3 171.4L315.3 219.4C312.3 222.4 308.2 224.1 304 224.1L267.9 224.1C229.5 224.1 195.3 248.7 183.2 285.2L168.8 328.3C160.9 352.1 138.6 368.2 113.5 368.2C98 368.2 83.2 362.1 72.3 351.1L68.7 347.5C55.4 334.1 48 316.1 48 297.4L48 281.8C37.5 299.9 32 320.4 32 341.3L32 344.7C32 410.6 85.4 464 151.4 464L192.1 464C192 462.7 192 461.4 192 460.1L192 432C192 423.2 199.2 416 208 416C216.8 416 224 423.2 224 432L224 460.1C224 468.6 227.4 476.7 233.4 482.7L292.3 541.6C293.8 543.1 295.8 543.9 298 543.9L384.1 543.9L384.1 535.9C384.1 522.6 373.4 511.9 360.1 511.9L352.1 511.9C345.2 511.9 339.1 507.5 336.9 501L320.9 453C318.7 446.5 321 439.3 326.5 435.1C342.1 423.4 352.1 404.8 352.1 383.9C352.1 348.6 323.4 319.9 288.1 319.9C279.3 319.9 272.1 312.7 272.1 303.9C272.1 295.1 279.3 287.9 288.1 287.9C341.1 287.9 384.1 330.9 384.1 383.9C384.1 411.1 372.8 435.6 354.7 453.1L363.7 480.1C392.8 482 416 506.3 416 536L416 544C416 561.7 401.7 576 384 576L297.9 576C287.3 576 277.1 571.8 269.6 564.3L210.7 505.4C207.8 502.5 205.2 499.4 203 496L151.4 496C67.8 496 0 428.2 0 344.6L0 341.2C0 313.9 7.4 287.2 21.4 263.8L28 252.8C42.6 228.5 79.9 238.8 79.9 267.2L79.9 297.4C79.9 307.6 84 317.5 91.2 324.7L94.8 328.3C99.7 333.2 106.4 336 113.4 336C124.7 336 134.8 328.8 138.3 318L152.7 274.9C169.2 225.4 215.6 192 267.8 192L297.3 192L338.3 151L348.5 125.4C363.4 88.3 399.4 64 439.3 64C450 64 460.6 65.8 470.7 69.2C478.5 65.9 487 64 496 64C519.7 64 540.4 76.9 551.4 96L560 96C604.2 96 640 131.8 640 176L640 208C640 232.1 622.3 252 599.2 255.5L585.4 269.3C573.4 281.3 557.1 288 540.1 288L470.6 288L429 329.6L455.8 344.9C470.8 353.4 480 369.3 480 386.6L480 400C480 408.8 472.8 416 464 416C455.2 416 448 408.8 448 400L448 386.6C448 380.9 444.9 375.6 439.9 372.7L413.2 357.4C410.1 342.7 404.5 328.9 396.8 316.5L452.7 260.6C455.7 257.6 459.8 255.9 464 255.9L540.1 255.9C542.7 255.9 545.3 255.6 547.8 255C538.6 253.2 530 248.6 523.3 241.9L510 228.6C507 225.6 502.9 223.9 498.7 223.9L480 224C471.2 224 464 216.8 464 208C464 199.2 471.2 192 480 192L498.7 192C511.4 192 523.6 197.1 532.6 206.1L545.9 219.4C548.9 222.4 553 224.1 557.2 224.1L591.9 224.1C600.7 224.1 607.9 216.9 607.9 208.1L607.9 176.1C607.9 149.6 586.4 128.1 559.9 128.1L541.2 128.1C534.4 128.1 528.4 123.8 526.1 117.4C521.7 104.9 509.8 96.1 495.9 96.1C489.9 96.1 484.4 97.7 479.6 100.5C475.2 103.1 469.8 103.4 465.1 101.4C456.9 97.9 448.1 96 439.1 96zM480 144C480 135.2 487.2 128 496 128C504.8 128 512 135.2 512 144C512 152.8 504.8 160 496 160C487.2 160 480 152.8 480 144z"/></svg>