<svg xmlns="http://www.w3.org/2000/svg" viewBox="0 0 640 640"><!--! Font Awesome Pro 7.1.0 by @fontawesome - https://fontawesome.com License - https://fontawesome.com/license (Commercial License) Copyright 2025 Fonticons, Inc. --><path fill="currentColor" d="M184.4 108.3L54.1 225.6L114.5 298.1L166.3 259.2C171.1 255.6 177.6 255 183.1 257.7C188.6 260.4 191.9 266 191.9 272L191.9 528C191.9 536.8 199.1 544 207.9 544L431.9 544C440.7 544 447.9 536.8 447.9 528L447.9 272C447.9 265.9 451.3 260.4 456.7 257.7C462.1 255 468.6 255.6 473.5 259.2L525.3 298.1L585.7 225.6L455.4 108.3C446.7 100.4 435.3 96 423.4 96L414.6 96C407 141.4 367.5 176 319.9 176C272.3 176 232.8 141.4 225.2 96L216.4 96C204.5 96 193.1 100.4 184.3 108.3zM416 64L423.4 64C443.2 64 462.2 71.3 476.9 84.5L618.7 212.1C625.1 217.9 625.8 227.6 620.3 234.2L540.3 330.2C534.8 336.7 525.2 337.9 518.4 332.8L480 304L480 528C480 554.5 458.5 576 432 576L208 576C181.5 576 160 554.5 160 528L160 304L121.6 332.8C114.8 337.9 105.2 336.8 99.7 330.2L19.7 234.2C14.2 227.6 14.9 217.8 21.3 212.1L163 84.5C177.7 71.3 196.8 64 216.6 64L416 64zM382 96L258 96C265.1 123.6 290.2 144 320 144C349.8 144 374.9 123.6 382 96z"/></svg>