<svg xmlns="http://www.w3.org/2000/svg" viewBox="0 0 640 640"><!--! Font Awesome Pro 7.1.0 by @fontawesome - https://fontawesome.com License - https://fontawesome.com/license (Commercial License) Copyright 2025 Fonticons, Inc. --><path fill="currentColor" d="M432 320C406.8 320 383.6 311.7 364.9 297.7L521.7 140.9C535.7 159.6 544 182.8 544 208C544 269.9 493.9 320 432 320zM320 208C320 146.1 370.1 96 432 96C457.2 96 480.4 104.3 499.1 118.3L342.3 275.1C328.3 256.4 320 233.2 320 208zM432 352C511.5 352 576 287.5 576 208C576 128.5 511.5 64 432 64C352.5 64 288 128.5 288 208C288 287.5 352.5 352 432 352zM208 544C151.6 544 104.9 502.3 97.1 448L318.8 448C311 502.3 264.4 544 207.9 544zM97.1 416C104.9 361.7 151.5 320 208 320C264.5 320 311.1 361.7 318.9 416L97.1 416zM208 576C287.5 576 352 511.5 352 432C352 352.5 287.5 288 208 288C128.5 288 64 352.5 64 432C64 511.5 128.5 576 208 576z"/></svg>