<svg xmlns="http://www.w3.org/2000/svg" viewBox="0 0 640 640"><!--! Font Awesome Pro 7.1.0 by @fontawesome - https://fontawesome.com License - https://fontawesome.com/license (Commercial License) Copyright 2025 Fonticons, Inc. --><path fill="currentColor" d="M224 128L448 128C465.7 128 480 142.3 480 160L480 217.3C490.1 213.2 500.8 210.4 512 209L512 160C512 124.7 483.3 96 448 96L128 96C92.7 96 64 124.7 64 160L64 480C64 515.3 92.7 544 128 544L369.3 544C368.4 538.8 368 533.4 368 527.9L368 512L224 512L224 416L369.3 416C371.2 404.5 375.2 393.7 380.8 384L224 384L224 256L428.1 256C438.5 243 451.4 232.1 466 224L224 224L224 128zM192 512L128 512C110.3 512 96 497.7 96 480L96 160C96 142.3 110.3 128 128 128L192 128L192 512zM576 336L608 336C607.9 291.9 572.2 256.1 528 256.1C483.8 256.1 448 291.9 448 336.1L448 386.7C429.4 393.3 416 411.1 416 432L416 528C416 554.5 437.5 576 464 576L592 576C618.5 576 640 554.5 640 528L640 432C640 405.5 618.5 384 592 384L480 384L480 336.1C480 309.6 501.5 288.1 528 288.1C554.5 288.1 575.9 309.5 576 336zM480 416.1L544 416.1L544 416L592 416C600.8 416 608 423.2 608 432L608 528C608 536.8 600.8 544 592 544L464 544C455.2 544 448 536.8 448 528L448 432C448 423.8 454.2 417 462.3 416.1L480 416.1z"/></svg>