<svg xmlns="http://www.w3.org/2000/svg" viewBox="0 0 640 640"><!--! Font Awesome Pro 7.1.0 by @fontawesome - https://fontawesome.com License - https://fontawesome.com/license (Commercial License) Copyright 2025 Fonticons, Inc. --><path fill="currentColor" d="M160 96C142.3 96 128 110.3 128 128L128 512C128 529.7 142.3 544 160 544L480 544C497.7 544 512 529.7 512 512L512 128C512 110.3 497.7 96 480 96L160 96zM96 128C96 92.7 124.7 64 160 64L480 64C515.3 64 544 92.7 544 128L544 512C544 547.3 515.3 576 480 576L160 576C124.7 576 96 547.3 96 512L96 128zM320 448C333.3 448 344 458.7 344 472C344 485.3 333.3 496 320 496C306.7 496 296 485.3 296 472C296 458.7 306.7 448 320 448z"/></svg>