<svg xmlns="http://www.w3.org/2000/svg" viewBox="0 0 640 640"><!--! Font Awesome Pro 7.1.0 by @fontawesome - https://fontawesome.com License - https://fontawesome.com/license (Commercial License) Copyright 2025 Fonticons, Inc. --><path fill="currentColor" d="M448 128L128 128C110.3 128 96 142.3 96 160L96 224L466 224C451.4 232.1 438.5 243 428.1 256L384 256L384 378.8C382.9 380.5 381.8 382.2 380.8 384L352 384L352 256L224 256L224 512L368 512L368 527.9C368 533.4 368.5 538.8 369.3 544L128 544C92.7 544 64 515.3 64 480L64 160C64 124.7 92.7 96 128 96L448 96C483.3 96 512 124.7 512 160L512 209C500.8 210.4 490.1 213.2 480 217.3L480 160C480 142.3 465.7 128 448 128zM192 256L96 256L96 480C96 497.7 110.3 512 128 512L192 512L192 256zM448 384.1L448 336.1C448 291.9 483.8 256.1 528 256.1C572.2 256.1 608 291.9 608 336.1L608 386.7C626.6 393.3 640 411.1 640 432L640 528C640 554.5 618.5 576 592 576L464 576C437.5 576 416 554.5 416 528L416 432C416 411.1 429.4 393.3 448 386.7L448 384.1zM448 432L448 528C448 536.8 455.2 544 464 544L592 544C600.8 544 608 536.8 608 528L608 432C608 423.8 601.8 417 593.7 416.1L462.2 416.1C454.2 417 447.9 423.8 447.9 432zM576 336.1C576 309.6 554.5 288.1 528 288.1C501.5 288.1 480 309.6 480 336.1L480 384L576 384L576 336.1z"/></svg>