<svg xmlns="http://www.w3.org/2000/svg" viewBox="0 0 640 640"><!--! Font Awesome Pro 7.1.0 by @fontawesome - https://fontawesome.com License - https://fontawesome.com/license (Commercial License) Copyright 2025 Fonticons, Inc. --><path fill="currentColor" d="M128 512C128 529.7 142.3 544 160 544L480 544C497.7 544 512 529.7 512 512L512 416L128 416L128 512zM128 384L512 384L512 128C512 110.3 497.7 96 480 96L160 96C142.3 96 128 110.3 128 128L128 384zM96 128C96 92.7 124.7 64 160 64L480 64C515.3 64 544 92.7 544 128L544 512C544 547.3 515.3 576 480 576L160 576C124.7 576 96 547.3 96 512L96 128zM320 456C333.3 456 344 466.7 344 480C344 493.3 333.3 504 320 504C306.7 504 296 493.3 296 480C296 466.7 306.7 456 320 456z"/></svg>