<svg xmlns="http://www.w3.org/2000/svg" viewBox="0 0 640 640"><!--! Font Awesome Pro 7.1.0 by @fontawesome - https://fontawesome.com License - https://fontawesome.com/license (Commercial License) Copyright 2025 Fonticons, Inc. --><path fill="currentColor" d="M126.8 502.1C123.5 510.3 114.1 514.2 105.9 510.9C97.7 507.6 93.8 498.2 97.1 490L147 368.1L181.6 368.1L126.8 502.2zM542.8 490C546.1 498.2 542.2 507.5 534.1 510.9C526 514.3 516.6 510.3 513.2 502.1L458.4 368L493 368L542.9 489.9zM496 128C504.8 128 512 135.2 512 144C512 152.8 504.8 160 496 160L407.8 160L460.1 288L559.9 288C568.7 288 575.9 295.2 575.9 304C575.9 312.8 568.7 320 559.9 320L80 320C71.2 320 64 312.8 64 304C64 295.2 71.2 288 80 288L179.8 288L232.1 160L143.9 160C135.1 160 127.9 152.8 127.9 144C127.9 135.2 135.1 128 143.9 128L495.9 128zM266.8 160L214.4 288L425.7 288L373.3 160L266.8 160z"/></svg>