<svg xmlns="http://www.w3.org/2000/svg" viewBox="0 0 640 640"><!--! Font Awesome Pro 7.1.0 by @fontawesome - https://fontawesome.com License - https://fontawesome.com/license (Commercial License) Copyright 2025 Fonticons, Inc. --><path fill="currentColor" d="M224 128L448 128C465.7 128 480 142.3 480 160L480 217.3C490.1 213.2 500.8 210.4 512 209L512 160C512 124.7 483.3 96 448 96L128 96C92.7 96 64 124.7 64 160L64 480C64 515.3 92.7 544 128 544L369.3 544C368.4 538.8 368 533.4 368 527.9L368 512L224 512L224 416L369.3 416C371.2 404.5 375.2 393.7 380.8 384L224 384L224 256L428.1 256C438.5 243 451.4 232.1 466 224L224 224L224 128zM192 512L128 512C110.3 512 96 497.7 96 480L96 160C96 142.3 110.3 128 128 128L192 128L192 512zM448 384.1L448 386.7C429.4 393.3 416 411.1 416 432L416 528C416 554.5 437.5 576 464 576L592 576C618.5 576 640 554.5 640 528L640 432C640 411.1 626.6 393.3 608 386.7L608 336.1C608 291.9 572.2 256.1 528 256.1C483.8 256.1 448 291.9 448 336.1L448 384.1zM448 432C448 423.8 454.2 417 462.3 416.1L593.8 416.1C601.8 417 608.1 423.8 608.1 432L608.1 528C608.1 536.8 600.9 544 592.1 544L464.1 544C455.3 544 448.1 536.8 448.1 528L448.1 432zM576 336.1L576 384L480 384L480 336.1C480 309.6 501.5 288.1 528 288.1C554.5 288.1 576 309.6 576 336.1z"/></svg>