<svg xmlns="http://www.w3.org/2000/svg" viewBox="0 0 640 640"><!--! Font Awesome Pro 7.1.0 by @fontawesome - https://fontawesome.com License - https://fontawesome.com/license (Commercial License) Copyright 2025 Fonticons, Inc. --><path fill="currentColor" d="M480 128C497.7 128 512 142.3 512 160L512 224L128 224L128 160C128 142.3 142.3 128 160 128L480 128zM224 256L512 256L512 480C512 497.7 497.7 512 480 512L160 512C142.3 512 128 497.7 128 480L128 256L192 256L192 400C192 426.5 213.5 448 240 448L304 448C312.8 448 320 440.8 320 432C320 423.2 312.8 416 304 416L240 416C231.2 416 224 408.8 224 400L224 349.3C229 351.1 234.4 352 240 352L272 352C280.8 352 288 344.8 288 336C288 327.2 280.8 320 272 320L240 320C231.2 320 224 312.8 224 304L224 256zM160 96C124.7 96 96 124.7 96 160L96 480C96 515.3 124.7 544 160 544L480 544C515.3 544 544 515.3 544 480L544 160C544 124.7 515.3 96 480 96L160 96zM352 336C352 344.8 359.2 352 368 352L432 352C440.8 352 448 344.8 448 336C448 327.2 440.8 320 432 320L368 320C359.2 320 352 327.2 352 336zM384 432C384 440.8 391.2 448 400 448L432 448C440.8 448 448 440.8 448 432C448 423.2 440.8 416 432 416L400 416C391.2 416 384 423.2 384 432z"/></svg>