<svg xmlns="http://www.w3.org/2000/svg" viewBox="0 0 640 640"><!--! Font Awesome Pro 7.1.0 by @fontawesome - https://fontawesome.com License - https://fontawesome.com/license (Commercial License) Copyright 2025 Fonticons, Inc. --><path fill="currentColor" d="M96 160C78.3 160 64 174.3 64 192L64 448C64 465.7 78.3 480 96 480L544 480C561.7 480 576 465.7 576 448L576 192C576 174.3 561.7 160 544 160L96 160zM32 192C32 156.7 60.7 128 96 128L544 128C579.3 128 608 156.7 608 192L608 448C608 483.3 579.3 512 544 512L96 512C60.7 512 32 483.3 32 448L32 192zM144 240L144 288L320 288L320 240L144 240zM112 240C112 222.3 126.3 208 144 208L320 208C337.7 208 352 222.3 352 240L352 288C352 305.7 337.7 320 320 320L144 320C126.3 320 112 305.7 112 288L112 240zM472 288C485.3 288 496 277.3 496 264C496 250.7 485.3 240 472 240C458.7 240 448 250.7 448 264C448 277.3 458.7 288 472 288zM472 208C502.9 208 528 233.1 528 264C528 294.9 502.9 320 472 320C441.1 320 416 294.9 416 264C416 233.1 441.1 208 472 208zM128 400L272 400C280.8 400 288 407.2 288 416C288 424.8 280.8 432 272 432L128 432C119.2 432 112 424.8 112 416C112 407.2 119.2 400 128 400zM368 400L512 400C520.8 400 528 407.2 528 416C528 424.8 520.8 432 512 432L368 432C359.2 432 352 424.8 352 416C352 407.2 359.2 400 368 400z"/></svg>