<svg xmlns="http://www.w3.org/2000/svg" viewBox="0 0 640 640"><!--! Font Awesome Pro 7.1.0 by @fontawesome - https://fontawesome.com License - https://fontawesome.com/license (Commercial License) Copyright 2025 Fonticons, Inc. --><path fill="currentColor" d="M320 544C443.7 544 544 443.7 544 320C544 196.3 443.7 96 320 96C196.3 96 96 196.3 96 320C96 443.7 196.3 544 320 544zM320 64C461.4 64 576 178.6 576 320C576 461.4 461.4 576 320 576C178.6 576 64 461.4 64 320C64 178.6 178.6 64 320 64zM344 160C344 173.3 333.3 184 320 184C306.7 184 296 173.3 296 160C296 146.7 306.7 136 320 136C333.3 136 344 146.7 344 160zM288 416C288 433.7 302.3 448 320 448C337.7 448 352 433.7 352 416C352 398.3 337.7 384 320 384C302.3 384 288 398.3 288 416zM256 416C256 380.7 284.7 352 320 352C337.5 352 353.4 359 364.9 370.4L471.8 306.3C479.4 301.8 489.2 304.2 493.8 311.8C498.4 319.4 495.9 329.2 488.3 333.8L381.4 397.8C383.1 403.6 384 409.7 384 416C384 451.3 355.3 480 320 480C284.7 480 256 451.3 256 416zM456 208C456 221.3 445.3 232 432 232C418.7 232 408 221.3 408 208C408 194.7 418.7 184 432 184C445.3 184 456 194.7 456 208zM160 296C173.3 296 184 306.7 184 320C184 333.3 173.3 344 160 344C146.7 344 136 333.3 136 320C136 306.7 146.7 296 160 296zM232 208C232 221.3 221.3 232 208 232C194.7 232 184 221.3 184 208C184 194.7 194.7 184 208 184C221.3 184 232 194.7 232 208z"/></svg>