<svg xmlns="http://www.w3.org/2000/svg" viewBox="0 0 640 640"><!--! Font Awesome Pro 7.1.0 by @fontawesome - https://fontawesome.com License - https://fontawesome.com/license (Commercial License) Copyright 2025 Fonticons, Inc. --><path fill="currentColor" d="M96.3 160C96.3 142.3 110.6 128 128.3 128L265.1 128C271.5 128 277.6 130.5 282.1 135L436.5 289.4C449 301.9 449 322.2 436.5 334.7L303 468.1C290.5 480.6 270.2 480.6 257.7 468.1L103.4 313.8C98.9 309.3 96.4 303.2 96.4 296.8L96.3 160zM64.3 160L64.3 296.8C64.3 311.7 70.2 325.9 80.7 336.4L235.1 490.7C260.1 515.7 300.6 515.7 325.6 490.7L459.1 357.3C484.1 332.3 484.1 291.8 459.1 266.8L304.7 112.4C294.2 101.9 280 96 265.1 96L128.3 96C93 96 64.3 124.7 64.3 160zM413.1 116.6C406.8 122.8 406.7 132.9 412.9 139.2L566.8 295.1C576 304.5 576 319.5 566.8 328.8L404.8 492.7C398.6 499 398.6 509.1 404.9 515.3C411.2 521.5 421.3 521.5 427.5 515.2L589.5 351.3C611 329.5 611.1 294.4 589.5 272.6L435.7 116.8C429.5 110.5 419.4 110.4 413.1 116.6zM176.3 232C189.6 232 200.3 221.3 200.3 208C200.3 194.7 189.6 184 176.3 184C163 184 152.3 194.7 152.3 208C152.3 221.3 163 232 176.3 232z"/></svg>