<svg xmlns="http://www.w3.org/2000/svg" viewBox="0 0 640 640"><!--! Font Awesome Pro 7.1.0 by @fontawesome - https://fontawesome.com License - https://fontawesome.com/license (Commercial License) Copyright 2025 Fonticons, Inc. --><path fill="currentColor" d="M128 96C136.8 96 144 103.2 144 112L144 528C144 536.8 136.8 544 128 544C119.2 544 112 536.8 112 528L112 112C112 103.2 119.2 96 128 96zM256 96C264.8 96 272 103.2 272 112L272 528C272 536.8 264.8 544 256 544C247.2 544 240 536.8 240 528L240 112C240 103.2 247.2 96 256 96zM400 112L400 528C400 536.8 392.8 544 384 544C375.2 544 368 536.8 368 528L368 112C368 103.2 375.2 96 384 96C392.8 96 400 103.2 400 112z"/></svg>