<svg xmlns="http://www.w3.org/2000/svg" viewBox="0 0 640 640"><!--! Font Awesome Pro 7.1.0 by @fontawesome - https://fontawesome.com License - https://fontawesome.com/license (Commercial License) Copyright 2025 Fonticons, Inc. --><path fill="currentColor" d="M198.8 91.7C218.4 80.4 257.6 64 320.3 64C383 64 422.2 80.4 441.9 91.7C442.7 92.2 443.5 92.9 444.2 94.6C445 96.5 445.5 99.4 445 103.2L422.5 272L454.8 272L476.7 107.4C479 90.1 473 72.7 457.8 64C433.6 50 389 32 320.3 32C251.6 32 207 50 182.8 64C167.7 72.7 161.7 90.1 164 107.4L185.9 272L218.2 272L195.7 103.2C195.2 99.4 195.7 96.4 196.5 94.6C197.2 93 197.9 92.2 198.8 91.7zM218.2 368L185.9 368L164 532.6C161.7 549.9 167.7 567.3 182.8 576C207 590 251.7 608 320.3 608C388.9 608 433.6 590 457.8 576C472.9 567.3 478.9 549.9 476.6 532.6L454.7 368L422.4 368L444.9 536.8C445.4 540.6 444.9 543.6 444.1 545.4C443.4 547 442.7 547.8 441.8 548.3C422.2 559.6 383 576 320.2 576C257.4 576 218.4 559.6 198.8 548.3C198 547.8 197.2 547.1 196.5 545.4C195.7 543.5 195.2 540.6 195.7 536.8L218.2 368zM374.4 272L392.2 130C393.3 121.2 387.1 113.2 378.3 112.1C369.5 111 361.5 117.2 360.4 126L342.2 272L374.4 272zM392.2 510L381.2 422.3C378.9 424 376.4 425.6 373.8 426.9C366.2 430.7 358.1 432.3 350.2 431.9L360.5 513.9C361.6 522.7 369.6 528.9 378.4 527.8C387.2 526.7 393.4 518.7 392.3 509.9zM266.9 426.9L266.9 426.9L256.5 510C255.4 518.8 261.6 526.8 270.4 527.9C279.2 529 287.2 522.8 288.3 514L298.7 430.9C288.4 433.2 277.2 432 267 426.9zM306.4 272L288.2 126C287.1 117.2 279.1 111 270.3 112.1C261.5 113.2 255.3 121.2 256.4 130L274.2 272L306.4 272zM176.3 320C176.3 328.8 183.5 336 192.3 336L294.4 336L274 376.8C270 384.7 273.3 394.3 281.2 398.3C289.1 402.3 298.7 399 302.7 391.1L320.4 355.7L338.1 391.1C342.1 399 351.7 402.2 359.6 398.3C367.5 394.4 370.7 384.7 366.8 376.8L346.4 336L448.5 336C457.3 336 464.5 328.8 464.5 320C464.5 311.2 457.3 304 448.5 304L192.5 304C183.7 304 176.5 311.2 176.5 320z"/></svg>