<svg xmlns="http://www.w3.org/2000/svg" viewBox="0 0 640 640"><!--! Font Awesome Pro 7.1.0 by @fontawesome - https://fontawesome.com License - https://fontawesome.com/license (Commercial License) Copyright 2025 Fonticons, Inc. --><path fill="currentColor" d="M320 64C324.9 64 329.5 66.7 332 70.9L382 158.5C388.5 170 392 182.9 392 196.1L392 200C392 239.8 359.8 272 320 272C280.2 272 248 239.8 248 200L248 196.1C248 182.9 251.4 169.9 258 158.5L308 70.9C310.5 66.6 315 64 320 64zM285.8 174.4C282 181 280 188.5 280 196.2L280 200.1C280 222.2 297.9 240.1 320 240.1C342.1 240.1 360 222.2 360 200.1L360 196.2C360 188.6 358 181.1 354.2 174.4L320 114.5L285.8 174.4zM160 96L238.4 96L220.1 128L160 128C142.3 128 128 142.3 128 160L128 350.9C129.4 349.9 130.9 348.9 132.3 347.9C169.4 321.4 219.4 321.4 256.6 347.9C281.9 366 301.9 376 320.1 376C338.3 376 358.2 365.9 383.6 347.9C420.7 321.4 470.7 321.4 507.9 347.9C509.3 348.9 510.8 349.9 512.2 350.9L512 160C512 142.3 497.7 128 480 128L419.9 128L401.6 96L480 96C515.3 96 544 124.7 544 160L544 480C544 515.3 515.3 544 480 544L160 544C124.7 544 96 515.3 96 480L96 160C96 124.7 124.7 96 160 96zM128 388.6L128 480C128 497.7 142.3 512 160 512L480 512C497.7 512 512 497.7 512 480L512 388.6C504 384.1 496.4 379.1 489.1 373.9C463.1 355.3 428 355.3 402 373.9C376.4 392.2 349.1 408 320 408C290.9 408 263.6 392.2 238 373.9C212 355.3 176.9 355.3 150.9 373.9C143.7 379 136 384.1 128 388.6z"/></svg>