<svg xmlns="http://www.w3.org/2000/svg" viewBox="0 0 640 640"><!--! Font Awesome Pro 7.1.0 by @fontawesome - https://fontawesome.com License - https://fontawesome.com/license (Commercial License) Copyright 2025 Fonticons, Inc. --><path fill="currentColor" d="M390.5 48.3C422.8 51.6 448 78.9 448 112L448 181.6C485.3 194.8 512 230.3 512 272L512 320L528 320C536.8 320 544 327.2 544 336C544 344.8 536.8 352 528 352L512 352L512 416C512 457.8 485.3 493.2 448 506.4L448 544C448 561.7 433.7 576 416 576L224 576C207.4 576 193.8 563.4 192.2 547.3L192 544L192 506.4C156.2 493.7 130.1 460.6 128.1 420.9L128 416L128 352L112 352C103.2 352 96 344.8 96 336C96 327.2 103.2 320 112 320L128 320L128 272C128 230.2 154.7 194.8 192 181.6L192 112C192 76.7 220.7 48 256 48L384 48L390.5 48.3zM224 544L416 544L416 512L224 512L224 544zM160 416C160 451.3 188.7 480 224 480L416 480C451.3 480 480 451.3 480 416L480 352L160 352L160 416zM224 208C188.7 208 160 236.7 160 272L160 320L480 320L480 272C480 236.7 451.3 208 416 208L224 208zM256 80C238.3 80 224 94.3 224 112L224 176L304 176L304 144L288 144C279.2 144 272 136.8 272 128C272 119.2 279.2 112 288 112L352 112C360.8 112 368 119.2 368 128C368 136.8 360.8 144 352 144L336 144L336 176L416 176L416 112C416 94.3 401.7 80 384 80L256 80z"/></svg>