<svg xmlns="http://www.w3.org/2000/svg" viewBox="0 0 640 640"><!--! Font Awesome Pro 7.1.0 by @fontawesome - https://fontawesome.com License - https://fontawesome.com/license (Commercial License) Copyright 2025 Fonticons, Inc. --><path fill="currentColor" d="M288 128C394 128 480 214 480 320C480 426 394 512 288 512C182 512 96 426 96 320C96 214 182 128 288 128zM403.4 512C468.5 472.8 512 401.5 512 320C512 196.3 411.7 96 288 96C164.3 96 64 196.3 64 320C64 443.7 164.3 544 288 544L592 544C600.8 544 608 536.8 608 528C608 519.2 600.8 512 592 512L403.4 512zM288 256C323.3 256 352 284.7 352 320C352 355.3 323.3 384 288 384C252.7 384 224 355.3 224 320C224 284.7 252.7 256 288 256zM288 416C341 416 384 373 384 320C384 267 341 224 288 224C235 224 192 267 192 320C192 373 235 416 288 416z"/></svg>