<svg xmlns="http://www.w3.org/2000/svg" viewBox="0 0 640 640"><!--! Font Awesome Pro 7.1.0 by @fontawesome - https://fontawesome.com License - https://fontawesome.com/license (Commercial License) Copyright 2025 Fonticons, Inc. --><path fill="currentColor" d="M294.5 146.4C283.7 167.7 291.7 192 320 192C347.6 192 356.3 168.8 345.5 147.8C339.1 135.3 329.1 120.4 319.6 107.4C310.3 119.9 300.7 134.2 294.5 146.5zM256 164C256 141.7 280.6 105.5 299.3 81.2C302.5 77.1 305.5 73.3 308.1 70C314.2 62.5 325.5 62.6 331.5 70.2C334.1 73.5 337.1 77.3 340.2 81.4C358.9 106.2 383.9 143.2 383.9 163.9C383.9 197 355.2 223.9 319.9 223.9C284.6 223.9 255.9 197 255.9 163.9zM512 160L432 160C432 148.9 430.4 138.1 427.4 128L512 128C547.3 128 576 156.7 576 192L576 325.5C576 342.5 569.3 358.8 557.3 370.8L434.7 493.3C422.7 505.3 406.4 512 389.4 512L128 512C92.7 512 64 483.3 64 448L64 192C64 156.7 92.7 128 128 128L212.6 128C209.6 138.1 208 148.9 208 160L128 160C110.3 160 96 174.3 96 192L96 448C96 465.7 110.3 480 128 480L384 480L384 384C384 348.7 412.7 320 448 320L544 320L544 192C544 174.3 529.7 160 512 160zM530.7 352L448 352C430.3 352 416 366.3 416 384L416 466.7L530.7 352zM160 200C173.3 200 184 210.7 184 224C184 237.3 173.3 248 160 248C146.7 248 136 237.3 136 224C136 210.7 146.7 200 160 200z"/></svg>