<svg xmlns="http://www.w3.org/2000/svg" viewBox="0 0 640 640"><!--! Font Awesome Pro 7.1.0 by @fontawesome - https://fontawesome.com License - https://fontawesome.com/license (Commercial License) Copyright 2025 Fonticons, Inc. --><path fill="currentColor" d="M205.3 120.9C210.2 113.5 208.2 103.6 200.9 98.7C193.6 93.8 183.6 95.8 178.7 103.1L125.5 182.9L91.3 148.7C85.1 142.5 74.9 142.5 68.7 148.7C62.5 154.9 62.5 165.1 68.7 171.3L116.7 219.3C120.1 222.7 124.8 224.4 129.6 223.9C134.4 223.4 138.7 220.8 141.3 216.9L205.3 120.9zM272 144C263.2 144 256 151.2 256 160C256 168.8 263.2 176 272 176L560 176C568.8 176 576 168.8 576 160C576 151.2 568.8 144 560 144L272 144zM272 304C263.2 304 256 311.2 256 320C256 328.8 263.2 336 272 336L560 336C568.8 336 576 328.8 576 320C576 311.2 568.8 304 560 304L272 304zM240 464C231.2 464 224 471.2 224 480C224 488.8 231.2 496 240 496L560 496C568.8 496 576 488.8 576 480C576 471.2 568.8 464 560 464L240 464zM120 456C106.7 456 96 466.7 96 480C96 493.3 106.7 504 120 504C133.3 504 144 493.3 144 480C144 466.7 133.3 456 120 456zM200.9 258.7C193.5 253.8 183.6 255.8 178.7 263.1L125.5 342.9L91.3 308.7C85.1 302.5 74.9 302.5 68.7 308.7C62.5 314.9 62.5 325.1 68.7 331.3L116.7 379.3C120.1 382.7 124.8 384.4 129.6 383.9C134.4 383.4 138.7 380.8 141.3 376.9L205.3 280.9C210.2 273.5 208.2 263.6 200.9 258.7z"/></svg>