<svg xmlns="http://www.w3.org/2000/svg" viewBox="0 0 640 640"><!--! Font Awesome Pro 7.1.0 by @fontawesome - https://fontawesome.com License - https://fontawesome.com/license (Commercial License) Copyright 2025 Fonticons, Inc. --><path fill="currentColor" d="M128 96L320 96C338.2 96 354.6 103.6 366.3 115.8C374.4 113.3 383.1 112 392 112L403.2 112C386.6 83.3 355.5 64 320 64L128 64C75 64 32 107 32 160L32 416C32 439.7 44.9 460.4 64 471.4L64 528C64 536.8 71.2 544 80 544C88.8 544 96 536.8 96 528L96 480L176 480L176 448L96 448C78.3 448 64 433.7 64 416L64 304L222 304L230 272L64 272L64 176L307.3 176C310.7 164.1 316.5 153.3 324.1 144L66 144C73.1 116.4 98.2 96 128 96zM128 408C141.3 408 152 397.3 152 384C152 370.7 141.3 360 128 360C114.7 360 104 370.7 104 384C104 397.3 114.7 408 128 408zM440 192C444.4 192 448 195.6 448 200L448 224L384 224L384 200C384 195.6 387.6 192 392 192L440 192zM480 224L480 200C480 177.9 462.1 160 440 160L392 160C369.9 160 352 177.9 352 200L352 224L341.5 224C312.1 224 286.5 244 279.4 272.5L257.6 359.7C237.6 370.5 224 391.7 224 416L224 560C224 568.8 231.2 576 240 576C248.8 576 256 568.8 256 560L256 544L576 544L576 560C576 568.8 583.2 576 592 576C600.8 576 608 568.8 608 560L608 416C608 391.7 594.4 370.5 574.4 359.7L552.6 272.5C545.5 244 519.9 224 490.5 224L480 224zM352 256L490.5 256C505.2 256 518 266 521.5 280.2L539.4 352L292.4 352L310.3 280.2C313.9 266 326.7 256 341.3 256L351.8 256zM576 416L576 512L256 512L256 416C256 398.3 270.3 384 288 384L544 384C561.7 384 576 398.3 576 416zM320 472C333.3 472 344 461.3 344 448C344 434.7 333.3 424 320 424C306.7 424 296 434.7 296 448C296 461.3 306.7 472 320 472zM536 448C536 434.7 525.3 424 512 424C498.7 424 488 434.7 488 448C488 461.3 498.7 472 512 472C525.3 472 536 461.3 536 448z"/></svg>