<svg xmlns="http://www.w3.org/2000/svg" viewBox="0 0 640 640"><!--! Font Awesome Pro 7.1.0 by @fontawesome - https://fontawesome.com License - https://fontawesome.com/license (Commercial License) Copyright 2025 Fonticons, Inc. --><path fill="currentColor" d="M424.3 64C464.1 64 496.3 96.2 496.3 136C496.3 161.2 483.3 183.2 463.8 196.1C464.1 200 464.3 203.9 464.3 208C464.3 219.5 462.9 230.6 460.4 241.3C484.8 218.3 520.5 219.7 546 239.5C571.5 261.4 573.8 297.2 556.7 324.6C534.3 356.7 505.4 384.1 472 404.8C479.5 401.7 487.8 400 496.4 400C528.4 400 560.4 427.8 560.4 464L560.4 496C558.2 540.9 525.3 573.8 480.4 576L160.4 576C115.5 573.8 82.6 540.9 80.4 496L80.4 464C80.4 427.8 112.4 400 144.4 400C153 400 161.3 401.7 168.8 404.8C135.4 384.1 106.5 356.7 84 324.6C66.9 297.2 69.2 261.4 94.7 239.5C120.2 219.7 155.9 218.3 180.3 241.3C177.8 230.6 176.4 219.5 176.4 208C176.4 203.9 176.6 200 176.9 196.1C157.4 183.3 144.4 161.2 144.4 136C144.4 96.2 176.6 64 216.4 64C242.8 64 265.7 78.2 278.2 99.3C292.2 97 306.2 96.3 320.4 96C334.5 96.2 348.6 96.9 362.6 99.3C375.1 78.2 398.1 64 424.4 64zM525.1 263.8C509.9 252.1 489.8 254.5 478 269.7C442.4 320.8 384.4 352 320.4 352C256.4 352 198.4 320.8 162.8 269.7C151 254.4 130.9 252 115.7 263.8C102.9 274.8 101.9 292.6 110.4 306.4C133.5 339.5 164.2 366.9 200 386C205.2 388.8 208.5 394.2 208.5 400.1L208.5 464.1C207.7 472.7 201.9 480.1 192.5 480.1C183.1 480.1 177.4 472.7 176.5 464.1C176.5 446.4 162.2 432.1 144.5 432.1C127.1 432.9 112.5 446 112.5 464.1L112.5 496.1C113.9 523.1 133.5 542.7 160.5 544.1L480.5 544.1C507.5 542.7 527.1 523.1 528.5 496.1L528.5 464.1C528.5 446 513.9 432.9 496.5 432.1C478.8 432.1 464.5 446.4 464.5 464.1C463.6 472.7 457.9 480.1 448.5 480.1C439.1 480.1 433.3 472.7 432.5 464.1L432.5 400.1C432.5 394.2 435.8 388.8 441 386C476.8 366.9 507.6 339.5 530.6 306.4C539.1 292.7 538 274.8 525.3 263.8zM320.3 384C364.5 384 400.3 419.8 400.3 464L400.3 480C400.3 488.8 393.1 496 384.3 496C375.5 496 368.3 488.8 368.3 480L368.3 464C368.3 437.5 346.8 416 320.3 416C293.8 416 272.3 437.5 272.3 464L272.3 480C272.3 488.8 265.1 496 256.3 496C247.5 496 240.3 488.8 240.3 480L240.3 464C240.3 419.8 276.1 384 320.3 384zM424.3 96C406.9 96 392.1 107.1 386.6 122.7C383.9 130.4 375.8 134.8 367.8 132.9C352.1 129.2 336.3 128.3 320.3 127.9C304.3 128.3 288.4 129.2 272.8 132.9C264.8 134.8 256.7 130.4 254 122.7C248.5 107.1 233.7 96 216.3 96C194.2 96 176.3 113.9 176.3 136C176.3 152.4 186.2 166.6 200.5 172.7C207.3 175.7 211.2 183 209.9 190.3C208.9 195.7 208.3 201.6 208.3 208C208.3 269.9 258.4 320 320.3 320C382.2 320 432.3 269.9 432.3 208C432.3 201.6 431.7 195.7 430.7 190.3C429.3 183 433.2 175.6 440.1 172.7C454.4 166.5 464.3 152.4 464.3 136C464.3 113.9 446.4 96 424.3 96zM320.3 240C338 240 352.3 250.7 352.3 264C352.3 277.3 338 288 320.3 288C302.6 288 288.3 277.3 288.3 264C288.3 250.7 302.6 240 320.3 240zM272.3 228C261.3 228 252.3 219 252.3 208C252.3 197 261.3 188 272.3 188C283.3 188 292.3 197 292.3 208C292.3 219 283.3 228 272.3 228zM368.3 228C357.3 228 348.3 219 348.3 208C348.3 197 357.3 188 368.3 188C379.3 188 388.3 197 388.3 208C388.3 219 379.3 228 368.3 228z"/></svg>