<svg xmlns="http://www.w3.org/2000/svg" viewBox="0 0 640 640"><!--! Font Awesome Pro 7.1.0 by @fontawesome - https://fontawesome.com License - https://fontawesome.com/license (Commercial License) Copyright 2025 Fonticons, Inc. --><path fill="currentColor" d="M488 288L520 288C533.3 288 544 277.3 544 264L544 256C544 233.9 526.1 216 504 216C481.9 216 464 233.9 464 256L464 264C464 277.3 474.7 288 488 288zM544 196.1L544 160C544 142.3 529.7 128 512 128L128 128C110.3 128 96 142.3 96 160L96 196.1C107.4 188.4 121.2 184 136 184C154.9 184 172.1 191.3 184.9 203.2C198.2 177.5 225 160 256 160C282.2 160 305.4 172.6 320 192C334.6 172.6 357.8 160 384 160C414.9 160 441.7 177.5 455 203.2C467.8 191.3 485 184 504 184C518.8 184 532.6 188.5 544 196.1zM576 256L576 264C576 294.9 550.9 320 520 320L120 320C89.1 320 64 294.9 64 264L64 160C64 124.7 92.7 96 128 96L512 96C547.3 96 576 124.7 576 160L576 256zM96 256L96 264C96 277.3 106.7 288 120 288L152 288C165.3 288 176 277.3 176 264L176 256C176 233.9 158.1 216 136 216C113.9 216 96 233.9 96 256zM232 288L280 288C293.3 288 304 277.3 304 264L304 240C304 213.5 282.5 192 256 192C229.5 192 208 213.5 208 240L208 264C208 277.3 218.7 288 232 288zM360 288L408 288C421.3 288 432 277.3 432 264L432 240C432 213.5 410.5 192 384 192C357.5 192 336 213.5 336 240L336 264C336 277.3 346.7 288 360 288zM188.8 459.4C176.4 472.1 159.1 480 140 480L132 480C118.8 480 106.4 476.2 96 469.7L96 480C96 497.7 110.3 512 128 512L512 512C529.7 512 544 497.7 544 480L544 469.7C533.6 476.2 521.2 480 508 480L500 480C480.9 480 463.6 472.1 451.2 459.4C437 481.4 412.2 496 384 496C357.8 496 334.6 483.4 320 464C305.4 483.4 282.2 496 256 496C227.8 496 203 481.4 188.8 459.4zM164 368L532 368C556.3 368 576 387.7 576 412C576 412.7 576 413.5 576 414.2C576 414.8 576 415.4 576 416L576 480C576 515.3 547.3 544 512 544L128 544C92.7 544 64 515.3 64 480L64 416C64 415.4 64 414.8 64 414.2C64 413.5 64 412.8 64 412C64 387.7 83.7 368 108 368L164 368zM132 448L140 448C159.9 448 176 431.9 176 412C176 405.4 170.6 400 164 400L112 400C103.7 400 96.9 406.3 96.1 414.4C97.3 433.2 112.9 448 132 448zM476 400C469.4 400 464 405.4 464 412C464 431.9 480.1 448 500 448L508 448C527.1 448 542.7 433.2 543.9 414.4C543.1 406.3 536.3 400 528 400L476 400zM336 416C336 442.5 357.5 464 384 464C410.5 464 432 442.5 432 416C432 407.2 424.8 400 416 400L352 400C343.2 400 336 407.2 336 416zM208 416C208 442.5 229.5 464 256 464C282.5 464 304 442.5 304 416C304 407.2 296.8 400 288 400L224 400C215.2 400 208 407.2 208 416z"/></svg>