<svg xmlns="http://www.w3.org/2000/svg" viewBox="0 0 640 640"><!--! Font Awesome Pro 7.1.0 by @fontawesome - https://fontawesome.com License - https://fontawesome.com/license (Commercial License) Copyright 2025 Fonticons, Inc. --><path fill="currentColor" d="M128 128C110.3 128 96 142.3 96 160L96 228.1C107.4 220.4 121.2 216 136 216C154.9 216 172.1 223.3 184.9 235.2C198.2 209.5 225 192 256 192C282.2 192 305.4 204.6 320 224C334.6 204.6 357.8 192 384 192C414.9 192 441.7 209.5 455 235.2C467.8 223.3 485 216 504 216C518.8 216 532.6 220.5 544 228.1L544 160C544 142.3 529.7 128 512 128L128 128zM96 288L96 296C96 309.3 106.7 320 120 320L152 320C165.3 320 176 309.3 176 296L176 288C176 265.9 158.1 248 136 248C113.9 248 96 265.9 96 288zM96 368L96 376C96 398.1 113.9 416 136 416C158.1 416 176 398.1 176 376L176 368C176 359.2 168.8 352 160 352L112 352C103.2 352 96 359.2 96 368zM64 376L64 160C64 124.7 92.7 96 128 96L512 96C547.3 96 576 124.7 576 160L576 480C576 515.3 547.3 544 512 544L128 544C92.7 544 64 515.3 64 480L64 376zM544 435.9C532.6 443.6 518.8 448 504 448C483.6 448 465.2 439.5 452.1 425.9C438 448.7 412.8 464 384 464C357.8 464 334.6 451.4 320 432C305.4 451.4 282.2 464 256 464C227.2 464 202 448.8 187.9 425.9C174.8 439.5 156.4 448 136 448C121.2 448 107.4 443.5 96 435.9L96 480C96 497.7 110.3 512 128 512L512 512C529.7 512 544 497.7 544 480L544 435.9zM544 376L544 368C544 359.2 536.8 352 528 352L480 352C471.2 352 464 359.2 464 368L464 376C464 398.1 481.9 416 504 416C526.1 416 544 398.1 544 376zM544 296L544 288C544 265.9 526.1 248 504 248C481.9 248 464 265.9 464 288L464 296C464 309.3 474.7 320 488 320L520 320C533.3 320 544 309.3 544 296zM224 352C215.2 352 208 359.2 208 368L208 384C208 410.5 229.5 432 256 432C282.5 432 304 410.5 304 384L304 368C304 359.2 296.8 352 288 352L224 352zM352 352C343.2 352 336 359.2 336 368L336 384C336 410.5 357.5 432 384 432C410.5 432 432 410.5 432 384L432 368C432 359.2 424.8 352 416 352L352 352zM432 296L432 272C432 245.5 410.5 224 384 224C357.5 224 336 245.5 336 272L336 296C336 309.3 346.7 320 360 320L408 320C421.3 320 432 309.3 432 296zM232 320L280 320C293.3 320 304 309.3 304 296L304 272C304 245.5 282.5 224 256 224C229.5 224 208 245.5 208 272L208 296C208 309.3 218.7 320 232 320z"/></svg>