<svg xmlns="http://www.w3.org/2000/svg" viewBox="0 0 640 640"><!--! Font Awesome Pro 7.1.0 by @fontawesome - https://fontawesome.com License - https://fontawesome.com/license (Commercial License) Copyright 2025 Fonticons, Inc. --><path fill="currentColor" d="M215.3 306.8L136.3 339.3C116.9 347.3 94.6 339.6 84.2 321.4C53 266.8 57.5 194.2 113.8 157.3C238.7 75.4 401.4 75.4 526.3 157.3C582.6 194.2 587.2 266.7 555.9 321.4C545.5 339.6 523.2 347.2 503.8 339.3L424.8 306.8C407.8 299.8 397.4 282.4 399.2 264.1L402.7 229.2C349.2 210.4 290.8 209.4 236.8 226.2L240.6 264.1C242.4 282.4 232 299.8 215 306.8zM205.3 229.4C203.8 214.3 213.1 200.2 227.6 195.7C288.2 176.8 353.6 178 413.6 199C427.5 203.9 436.3 217.7 434.8 232.4L431.3 267.3C430.9 271.6 433.3 275.6 437.2 277.2L516.2 309.7C520.7 311.6 525.9 309.8 528.3 305.6C553.9 260.7 546.8 209 508.9 184.2C394.6 109.3 245.7 109.3 131.4 184.2C93.5 209 86.4 260.8 112 305.6C114.4 309.8 119.6 311.6 124.1 309.7L203.1 277.2C207.1 275.6 209.5 271.5 209 267.3L205.2 229.4zM152.2 416C152.2 429.3 141.5 440 128.2 440C114.9 440 104.2 429.3 104.2 416C104.2 402.7 114.9 392 128.2 392C141.5 392 152.2 402.7 152.2 416zM248.2 416C248.2 429.3 237.5 440 224.2 440C210.9 440 200.2 429.3 200.2 416C200.2 402.7 210.9 392 224.2 392C237.5 392 248.2 402.7 248.2 416zM128.2 536C114.9 536 104.2 525.3 104.2 512C104.2 498.7 114.9 488 128.2 488C141.5 488 152.2 498.7 152.2 512C152.2 525.3 141.5 536 128.2 536zM536.2 512C536.2 525.3 525.5 536 512.2 536C498.9 536 488.2 525.3 488.2 512C488.2 498.7 498.9 488 512.2 488C525.5 488 536.2 498.7 536.2 512zM320.2 440C306.9 440 296.2 429.3 296.2 416C296.2 402.7 306.9 392 320.2 392C333.5 392 344.2 402.7 344.2 416C344.2 429.3 333.5 440 320.2 440zM440.2 416C440.2 429.3 429.5 440 416.2 440C402.9 440 392.2 429.3 392.2 416C392.2 402.7 402.9 392 416.2 392C429.5 392 440.2 402.7 440.2 416zM512.2 440C498.9 440 488.2 429.3 488.2 416C488.2 402.7 498.9 392 512.2 392C525.5 392 536.2 402.7 536.2 416C536.2 429.3 525.5 440 512.2 440zM192.2 512C192.2 503.2 199.4 496 208.2 496L432.2 496C441 496 448.2 503.2 448.2 512C448.2 520.8 441 528 432.2 528L208.2 528C199.4 528 192.2 520.8 192.2 512z"/></svg>