<svg xmlns="http://www.w3.org/2000/svg" viewBox="0 0 640 640"><!--! Font Awesome Pro 7.1.0 by @fontawesome - https://fontawesome.com License - https://fontawesome.com/license (Commercial License) Copyright 2025 Fonticons, Inc. --><path fill="currentColor" d="M479.1 99.7L575.1 266L485.9 317.5L389.9 151.2L479.1 99.7zM376 191.2L441.8 305.2L403.9 325.7C389.8 303 364.6 288 336 288C291.8 288 256 323.8 256 368C256 380 258.7 391.5 263.4 401.7L166.1 454.3L111.3 359.3L376 191.2zM457.7 332.7L458.2 333.5C467 348.8 486.6 354.1 501.9 345.2L591.1 293.7C606.4 284.9 611.6 265.3 602.8 250L506.8 83.7C498 68.4 478.4 63.2 463.1 72L373.9 123.5C359.8 131.7 354.2 149 360.4 163.6L92 334.1C79 342.4 74.8 359.4 82.5 372.8L140.1 472.6C147.9 486.1 165 491 178.7 483.5L278.4 429.6L225.2 553.7C221.7 561.8 225.5 571.2 233.6 574.7C241.7 578.2 251.1 574.4 254.6 566.3L307.5 442.8C316.3 446.1 325.9 448 335.9 448C345.9 448 355.5 446.2 364.3 442.8L417.2 566.3C420.7 574.4 430.1 578.2 438.2 574.7C446.3 571.2 450.1 561.8 446.6 553.7L391.6 425.4C406.6 410.9 415.9 390.5 415.9 368C415.9 363.8 415.6 359.7 415 355.7L457.6 332.6zM336 320C362.5 320 384 341.5 384 368C384 394.5 362.5 416 336 416C309.5 416 288 394.5 288 368C288 341.5 309.5 320 336 320zM61.9 416.1C57.5 408.4 47.7 405.8 40.1 410.1C32.5 414.4 29.8 424.3 34.1 431.9L66.1 487.9C70.5 495.6 80.3 498.2 87.9 493.9C95.5 489.6 98.2 479.7 93.9 472.1L61.9 416.1z"/></svg>