<svg xmlns="http://www.w3.org/2000/svg" viewBox="0 0 640 640"><!--! Font Awesome Pro 7.1.0 by @fontawesome - https://fontawesome.com License - https://fontawesome.com/license (Commercial License) Copyright 2025 Fonticons, Inc. --><path fill="currentColor" d="M144 176C144 131.8 179.8 96 224 96C268.2 96 304 131.8 304 176L304 347.3C304 351.2 305.4 355 308 357.9C325.4 377.7 336 403.6 336 432C336 493.9 285.9 544 224 544C162.1 544 112 493.9 112 432C112 403.6 122.6 377.7 140 357.9C142.6 355 144 351.2 144 347.3L144 176zM224 64C162.1 64 112 114.1 112 176L112 341.5C92 366.2 80 397.7 80 432C80 511.5 144.5 576 224 576C303.5 576 368 511.5 368 432C368 397.7 356 366.2 336 341.5L336 176C336 114.1 285.9 64 224 64zM192 432C192 414.3 206.3 400 224 400C241.7 400 256 414.3 256 432C256 449.7 241.7 464 224 464C206.3 464 192 449.7 192 432zM288 432C288 402.2 267.6 377.1 240 370L240 176C240 167.2 232.8 160 224 160C215.2 160 208 167.2 208 176L208 370C180.4 377.1 160 402.2 160 432C160 467.3 188.7 496 224 496C259.3 496 288 467.3 288 432zM468.7 68.7L388.7 148.7C382.5 154.9 382.5 165.1 388.7 171.3C394.9 177.5 405.1 177.5 411.3 171.3L464 118.6L464 368C464 376.8 471.2 384 480 384C488.8 384 496 376.8 496 368L496 118.6L548.7 171.3C554.9 177.5 565.1 177.5 571.3 171.3C577.5 165.1 577.5 154.9 571.3 148.7L491.3 68.7C485.1 62.5 474.9 62.5 468.7 68.7z"/></svg>