<svg xmlns="http://www.w3.org/2000/svg" viewBox="0 0 640 640"><!--! Font Awesome Pro 7.1.0 by @fontawesome - https://fontawesome.com License - https://fontawesome.com/license (Commercial License) Copyright 2025 Fonticons, Inc. --><path fill="currentColor" d="M352.5 176C352.5 131.8 388.3 96 432.5 96C476.7 96 512.5 131.8 512.5 176L512.5 347.3C512.5 351.2 513.9 355 516.5 357.9C533.9 377.7 544.5 403.6 544.5 432C544.5 493.9 494.4 544 432.5 544C370.6 544 320.5 493.9 320.5 432C320.5 403.6 331.1 377.7 348.5 357.9C351.1 355 352.5 351.2 352.5 347.3L352.5 176zM432.5 64C370.6 64 320.5 114.1 320.5 176L320.5 341.5C300.5 366.2 288.5 397.7 288.5 432C288.5 511.5 353 576 432.5 576C512 576 576.5 511.5 576.5 432C576.5 397.7 564.5 366.2 544.5 341.5L544.5 176C544.5 114.1 494.4 64 432.5 64zM400.5 432C400.5 414.3 414.8 400 432.5 400C450.2 400 464.5 414.3 464.5 432C464.5 449.7 450.2 464 432.5 464C414.8 464 400.5 449.7 400.5 432zM496.5 432C496.5 402.2 476.1 377.1 448.5 370L448.5 176C448.5 167.2 441.3 160 432.5 160C423.7 160 416.5 167.2 416.5 176L416.5 370C388.9 377.1 368.5 402.2 368.5 432C368.5 467.3 397.2 496 432.5 496C467.8 496 496.5 467.3 496.5 432zM272.5 193.6C267.3 192.6 262 192 256.5 192C212.3 192 176.5 227.8 176.5 272C176.5 316.2 212.3 352 256.5 352C257 352 257.5 352 257.9 352C262.1 342.9 267 334.1 272.5 325.9L272.5 317.3C267.5 319.1 262.1 320 256.5 320C230 320 208.5 298.5 208.5 272C208.5 245.5 230 224 256.5 224C262.1 224 267.5 225 272.5 226.7L272.5 193.6zM243 401L187.9 437.5L173.7 367.2C172.4 360.9 167.5 356 161.2 354.7L90.9 340.5L130.5 280.7C134 275.4 134 268.4 130.5 263.1L90.9 203.3L161.2 189.1C167.5 187.8 172.4 182.9 173.7 176.6L187.9 106.4L247.6 146C252.9 149.5 259.9 149.5 265.2 146L276.8 138.3C281.6 118.3 290.2 99.7 301.8 83.4L256.5 113.6L185.8 66.7C181.4 63.8 175.8 63.2 170.9 65.3C166 67.4 162.4 71.7 161.4 76.9L144.5 160L61.3 176.8C56.1 177.9 51.8 181.4 49.7 186.3C47.6 191.2 48.2 196.8 51.1 201.2L98.1 272L51.2 342.7C48.3 347.1 47.7 352.7 49.8 357.6C51.9 362.5 56.2 366.1 61.4 367.1L144.6 383.9L161.4 467.1C162.5 472.3 166 476.6 170.9 478.7C175.8 480.8 181.4 480.2 185.8 477.3L240.7 440.9C240.6 438 240.5 435 240.5 432C240.5 421.5 241.4 411.1 243 401z"/></svg>