<svg xmlns="http://www.w3.org/2000/svg" viewBox="0 0 640 640"><!--! Font Awesome Pro 7.1.0 by @fontawesome - https://fontawesome.com License - https://fontawesome.com/license (Commercial License) Copyright 2025 Fonticons, Inc. --><path fill="currentColor" d="M144 176C144 131.8 179.8 96 224 96C268.2 96 304 131.8 304 176L304 347.3C304 351.2 305.4 355 308 357.9C325.4 377.7 336 403.6 336 432C336 493.9 285.9 544 224 544C162.1 544 112 493.9 112 432C112 403.6 122.6 377.7 140 357.9C142.6 355 144 351.2 144 347.3L144 176zM224 64C162.1 64 112 114.1 112 176L112 341.5C92 366.2 80 397.7 80 432C80 511.5 144.5 576 224 576C303.5 576 368 511.5 368 432C368 397.7 356 366.2 336 341.5L336 176C336 114.1 285.9 64 224 64zM192 432C192 414.3 206.3 400 224 400C241.7 400 256 414.3 256 432C256 449.7 241.7 464 224 464C206.3 464 192 449.7 192 432zM288 432C288 402.2 267.6 377.1 240 370L240 240C240 231.2 232.8 224 224 224C215.2 224 208 231.2 208 240L208 370C180.4 377.1 160 402.2 160 432C160 467.3 188.7 496 224 496C259.3 496 288 467.3 288 432zM400 96C391.2 96 384 103.2 384 112C384 120.8 391.2 128 400 128L528 128C536.8 128 544 120.8 544 112C544 103.2 536.8 96 528 96L400 96zM400 224C391.2 224 384 231.2 384 240C384 248.8 391.2 256 400 256L528 256C536.8 256 544 248.8 544 240C544 231.2 536.8 224 528 224L400 224zM432 352C423.2 352 416 359.2 416 368C416 376.8 423.2 384 432 384L528 384C536.8 384 544 376.8 544 368C544 359.2 536.8 352 528 352L432 352z"/></svg>