<svg xmlns="http://www.w3.org/2000/svg" viewBox="0 0 640 640"><!--! Font Awesome Pro 7.1.0 by @fontawesome - https://fontawesome.com License - https://fontawesome.com/license (Commercial License) Copyright 2025 Fonticons, Inc. --><path fill="currentColor" d="M352.4 176C352.4 131.8 388.2 96 432.4 96C476.6 96 512.4 131.8 512.4 176L512.4 347.3C512.4 351.2 513.8 355 516.4 357.9C533.8 377.7 544.4 403.6 544.4 432C544.4 493.9 494.3 544 432.4 544C370.5 544 320.4 493.9 320.4 432C320.4 403.6 331 377.7 348.4 357.9C351 355 352.4 351.2 352.4 347.3L352.4 176zM432.4 64C370.5 64 320.4 114.1 320.4 176L320.4 341.5C300.4 366.2 288.4 397.7 288.4 432C288.4 511.5 352.9 576 432.4 576C511.9 576 576.4 511.5 576.4 432C576.4 397.7 564.4 366.2 544.4 341.5L544.4 176C544.4 114.1 494.3 64 432.4 64zM400.4 432C400.4 414.3 414.7 400 432.4 400C450.1 400 464.4 414.3 464.4 432C464.4 449.7 450.1 464 432.4 464C414.7 464 400.4 449.7 400.4 432zM496.4 432C496.4 402.2 476 377.1 448.4 370L448.4 352C448.4 343.2 441.2 336 432.4 336C423.6 336 416.4 343.2 416.4 352L416.4 370C388.8 377.1 368.4 402.2 368.4 432C368.4 467.3 397.1 496 432.4 496C467.7 496 496.4 467.3 496.4 432zM240.4 260.3L240.4 198.6L272.7 166.3C273.5 153.6 275.7 141.3 279.3 129.5C273.4 126.7 266 127.7 261.1 132.6L240.4 153.3L240.4 111.9C240.4 103.1 233.2 95.9 224.4 95.9C215.6 95.9 208.4 103.1 208.4 111.9L208.4 153.3L187.7 132.6C181.5 126.4 171.3 126.4 165.1 132.6C158.9 138.8 158.9 149 165.1 155.2L208.4 198.5L208.4 260.2L155 229.4L139.1 170.2C136.9 161.7 128.1 156.7 119.6 159C111.1 161.3 106 170 108.3 178.6L115.9 206.9L80.1 186.2C72.4 181.8 62.7 184.4 58.2 192.1C53.7 199.8 56.4 209.5 64.1 214L99.9 234.7L71.6 242.3C63 244.4 58 253.2 60.3 261.7C62.6 270.2 71.3 275.3 79.9 273L139 257.2L192.4 288L139 318.8L79.9 303C71.4 300.7 62.6 305.8 60.3 314.3C58 322.8 63.1 331.6 71.6 333.9L99.9 341.5L64.1 362.2C56.4 366.6 53.8 376.4 58.2 384.1C62.6 391.8 72.4 394.4 80.1 390L115.9 369.3L108.3 397.6C106 405.9 111 414.7 119.6 417C128.2 419.3 136.9 414.2 139.2 405.7L155.1 346.5L208.5 315.7L208.5 377.4L165.2 420.7C159 426.9 159 437.1 165.2 443.3C171.4 449.5 181.6 449.5 187.8 443.3L208.5 422.6L208.5 464C208.5 472.8 215.7 480 224.5 480C233.3 480 240.5 472.8 240.5 464L240.5 422.6L240.7 422.8C241.3 409.3 243.4 396.2 246.7 383.5L240.5 377.3L240.5 315.6L268.6 331.8C269.9 329.7 271.2 327.7 272.5 325.7L272.5 297.1L256.5 287.9L272.5 278.7L272.5 241.7L240.5 260.2z"/></svg>