<svg xmlns="http://www.w3.org/2000/svg" viewBox="0 0 640 640"><!--! Font Awesome Pro 7.1.0 by @fontawesome - https://fontawesome.com License - https://fontawesome.com/license (Commercial License) Copyright 2025 Fonticons, Inc. --><path fill="currentColor" d="M176 176C176 131.8 211.8 96 256 96C300.2 96 336 131.8 336 176L336 347.3C336 351.2 337.4 355 340 357.9C357.4 377.7 368 403.6 368 432C368 493.9 317.9 544 256 544C194.1 544 144 493.9 144 432C144 403.6 154.6 377.7 172 357.9C174.6 355 176 351.2 176 347.3L176 176zM256 64C194.1 64 144 114.1 144 176L144 341.5C124 366.2 112 397.7 112 432C112 511.5 176.5 576 256 576C335.5 576 400 511.5 400 432C400 397.7 388 366.2 368 341.5L368 176C368 114.1 317.9 64 256 64zM224 432C224 414.3 238.3 400 256 400C273.7 400 288 414.3 288 432C288 449.7 273.7 464 256 464C238.3 464 224 449.7 224 432zM320 432C320 402.2 299.6 377.1 272 370L272 352C272 343.2 264.8 336 256 336C247.2 336 240 343.2 240 352L240 370C212.4 377.1 192 402.2 192 432C192 467.3 220.7 496 256 496C291.3 496 320 467.3 320 432zM448 128C448 110.3 462.3 96 480 96C497.7 96 512 110.3 512 128C512 145.7 497.7 160 480 160C462.3 160 448 145.7 448 128zM544 128C544 92.7 515.3 64 480 64C444.7 64 416 92.7 416 128C416 163.3 444.7 192 480 192C515.3 192 544 163.3 544 128z"/></svg>