<svg xmlns="http://www.w3.org/2000/svg" viewBox="0 0 640 640"><!--! Font Awesome Pro 7.1.0 by @fontawesome - https://fontawesome.com License - https://fontawesome.com/license (Commercial License) Copyright 2025 Fonticons, Inc. --><path fill="currentColor" d="M144 176C144 131.8 179.8 96 224 96C268.2 96 304 131.8 304 176L304 347.3C304 351.2 305.4 355 308 357.9C325.4 377.7 336 403.6 336 432C336 493.9 285.9 544 224 544C162.1 544 112 493.9 112 432C112 403.6 122.6 377.7 140 357.9C142.6 355 144 351.2 144 347.3L144 176zM224 64C162.1 64 112 114.1 112 176L112 341.5C92 366.2 80 397.7 80 432C80 511.5 144.5 576 224 576C303.5 576 368 511.5 368 432C368 397.7 356 366.2 336 341.5L336 176C336 114.1 285.9 64 224 64zM192 432C192 414.3 206.3 400 224 400C241.7 400 256 414.3 256 432C256 449.7 241.7 464 224 464C206.3 464 192 449.7 192 432zM288 432C288 402.2 267.6 377.1 240 370L240 352C240 343.2 232.8 336 224 336C215.2 336 208 343.2 208 352L208 370C180.4 377.1 160 402.2 160 432C160 467.3 188.7 496 224 496C259.3 496 288 467.3 288 432zM388.7 299.3L468.7 379.3C474.9 385.5 485.1 385.5 491.3 379.3L571.3 299.3C577.5 293.1 577.5 282.9 571.3 276.7C565.1 270.5 554.9 270.5 548.7 276.7L496 329.4L496 80C496 71.2 488.8 64 480 64C471.2 64 464 71.2 464 80L464 329.4L411.3 276.7C405.1 270.5 394.9 270.5 388.7 276.7C382.5 282.9 382.5 293.1 388.7 299.3z"/></svg>