<svg xmlns="http://www.w3.org/2000/svg" viewBox="0 0 640 640"><!--! Font Awesome Pro 7.1.0 by @fontawesome - https://fontawesome.com License - https://fontawesome.com/license (Commercial License) Copyright 2025 Fonticons, Inc. --><path fill="currentColor" d="M320.6 544C316.1 485.6 336.2 425.6 380.9 380.9C425.6 336.2 485.6 316.1 544 320.6L544 320C544 196.3 443.7 96 320 96L319.4 96C323.9 154.4 303.8 214.4 259.1 259.1C214.4 303.8 154.4 323.9 96 319.4L96 320C96 443.7 196.3 544 320 544L320.6 544zM352.5 541.7C450.2 527.5 527.4 450.3 541.6 352.6C492.1 348.8 441.3 365.8 403.5 403.6C365.7 441.4 348.7 492.2 352.5 541.7zM287.5 98.3C189.8 112.5 112.6 189.8 98.4 287.4C147.9 291.2 198.7 274.2 236.5 236.4C274.3 198.6 291.3 147.8 287.5 98.3zM64 320C64 178.6 178.6 64 320 64C461.4 64 576 178.6 576 320C576 461.4 461.4 576 320 576C178.6 576 64 461.4 64 320z"/></svg>