<svg xmlns="http://www.w3.org/2000/svg" viewBox="0 0 640 640"><!--! Font Awesome Pro 7.1.0 by @fontawesome - https://fontawesome.com License - https://fontawesome.com/license (Commercial License) Copyright 2025 Fonticons, Inc. --><path fill="currentColor" d="M329.5 67.1C323.9 63 316.2 63 310.6 67.1L70.6 243.1C66.4 246.1 64 250.9 64 256L64 296C64 326.2 82.7 352.1 109.1 362.8L73.5 517.2C66.5 547.3 89.4 576 120.2 576L519.7 576C550.6 576 573.4 547.3 566.5 517.2L530.9 362.8C557.3 352.1 576 326.3 576 296L576 256C576 250.9 573.6 246.1 569.5 243.1L329.5 67.1zM499.2 367.8L535.3 524.4C537.6 534.4 530 544 519.7 544L445.1 544L410.4 363.5C424.4 358.6 436.6 349.9 445.9 338.6C458.1 355.2 477.3 366.4 499.2 367.8zM412.6 544L227.3 544L261.2 367.8C285.2 366.2 306.3 354.1 319.9 336C333.5 354.1 354.6 366.3 378.7 367.8L412.6 544zM194 338.6C203.2 349.9 215.4 358.6 229.5 363.5L194.8 544L120.2 544C109.9 544 102.3 534.4 104.6 524.4L140.8 367.8C162.7 366.4 181.8 355.2 194.1 338.6zM320 240L128.9 240L320 99.8L511.1 240L320 240zM96 296L96 272L176 272L176 296C176 318.1 158.1 336 136 336C113.9 336 96 318.1 96 296zM464 272L544 272L544 296C544 318.1 526.1 336 504 336C481.9 336 464 318.1 464 296L464 272zM208 288L208 272L304 272L304 288C304 314.5 282.5 336 256 336C229.5 336 208 314.5 208 288zM336 272L432 272L432 288C432 314.5 410.5 336 384 336C357.5 336 336 314.5 336 288L336 272z"/></svg>