<svg xmlns="http://www.w3.org/2000/svg" viewBox="0 0 640 640"><!--! Font Awesome Pro 7.1.0 by @fontawesome - https://fontawesome.com License - https://fontawesome.com/license (Commercial License) Copyright 2025 Fonticons, Inc. --><path fill="currentColor" d="M139.3 251.3C133.1 257.5 122.9 257.5 116.7 251.3L44.7 179.3C38.5 173.1 38.5 162.9 44.7 156.7C50.9 150.5 61.1 150.5 67.3 156.7L112 201.4L112 80C112 71.2 119.2 64 128 64C136.8 64 144 71.2 144 80L144 201.4L188.7 156.7C194.9 150.5 205.1 150.5 211.3 156.7C217.5 162.9 217.5 173.1 211.3 179.3L139.3 251.3zM163.6 544L188 325C189.1 315.1 194.7 306.3 203.2 301.2L366.3 202C376.5 195.8 389.2 195.8 399.4 201.9L564.7 301.1C573.3 306.2 578.9 315.1 580 325L605 549.3C606.6 563.5 595.5 576 581.1 576L48 576C39.2 576 32 568.8 32 560C32 551.2 39.2 544 48 544L163.6 544zM400 544L466.9 544L400 438.9L400 544zM368 544L368 238.5L219.8 328.5L195.8 544L368 544zM400 239.6L400 379.3L504.8 544L572.2 544L548.2 328.6L400 239.6z"/></svg>