<svg xmlns="http://www.w3.org/2000/svg" viewBox="0 0 640 640"><!--! Font Awesome Pro 7.1.0 by @fontawesome - https://fontawesome.com License - https://fontawesome.com/license (Commercial License) Copyright 2025 Fonticons, Inc. --><path fill="currentColor" d="M571.3 148.7L499.3 76.7C493.1 70.5 482.9 70.5 476.7 76.7C470.5 82.9 470.5 93.1 476.7 99.3L521.4 144L400 144C400 144 400 144 399.9 144L118.6 144L163.3 99.3C169.5 93.1 169.5 82.9 163.3 76.7C157.1 70.5 146.9 70.5 140.7 76.7L68.7 148.7C62.5 154.9 62.5 165.1 68.7 171.3L140.7 243.3C146.9 249.5 157.1 249.5 163.3 243.3C169.5 237.1 169.5 226.9 163.3 220.7L118.6 176L448 176L521.4 176L476.7 220.7C470.5 226.9 470.5 237.1 476.7 243.3C482.9 249.5 493.1 249.5 499.3 243.3L571.3 171.3C577.5 165.1 577.5 154.9 571.3 148.7zM132.3 544L155.5 360.7L304 270.5L304 544L132.3 544zM336 350L336 271.6L484.5 360.8L507.7 544L441.5 544L336 350zM336 544L336 417L405.1 544L336 544zM539.4 540L516.2 356.7C515 347 509.3 338.3 500.9 333.3L335.4 233.9C325.2 227.8 312.5 227.8 302.3 234L138.9 333.3C130.6 338.4 125 347 123.8 356.6L100.6 540C98.2 559.1 113.1 576 132.3 576L507.7 576C527 576 541.9 559.1 539.4 540z"/></svg>