<svg xmlns="http://www.w3.org/2000/svg" viewBox="0 0 640 640"><!--! Font Awesome Pro 7.1.0 by @fontawesome - https://fontawesome.com License - https://fontawesome.com/license (Commercial License) Copyright 2025 Fonticons, Inc. --><path fill="currentColor" d="M472.3 384L476.4 416L572 416C591.3 416 606.2 399.1 603.7 380L580.4 196C579.2 186.7 574.1 178.4 566.2 173.3L417.8 75.6C407.1 68.6 393.3 68.6 382.6 75.6L234.2 173.2C230 176 226.6 179.6 224.1 183.9C239.3 180.8 255.3 182.1 269.9 188L400.2 102.3L548.6 200L571.9 384L472.3 384zM68.5 544L91.8 360L224.2 272.9L224.2 544.1L68.5 544.1zM256.2 379.3L256.2 272.8L388.6 359.9L411.9 543.9L361 543.9L256.2 379.2zM256.2 438.9L323.1 544L256.2 544L256.2 438.9zM443.6 540L420.3 356C419.1 346.7 414 338.4 406.1 333.3L257.8 235.6C247.1 228.6 233.3 228.6 222.6 235.6L74.2 333.2C66.4 338.3 61.2 346.6 60 355.9L36.8 540C34.4 559.1 49.3 576 68.5 576L411.9 576C431.2 576 446.1 559.1 443.6 540z"/></svg>