<svg xmlns="http://www.w3.org/2000/svg" viewBox="0 0 640 640"><!--! Font Awesome Pro 7.1.0 by @fontawesome - https://fontawesome.com License - https://fontawesome.com/license (Commercial License) Copyright 2025 Fonticons, Inc. --><path fill="currentColor" d="M68.7 171.3C62.5 165.1 62.5 154.9 68.7 148.7L140.7 76.7C146.9 70.5 157.1 70.5 163.3 76.7C169.5 82.9 169.5 93.1 163.3 99.3L118.6 144L192 144L192 144L496 144C540.2 144 576 179.8 576 224L576 248C576 256.8 568.8 264 560 264C551.2 264 544 256.8 544 248L544 224C544 197.5 522.5 176 496 176L240.1 176C240.1 176 240 176 240 176L118.6 176L163.3 220.7C169.5 226.9 169.5 237.1 163.3 243.3C157.1 249.5 146.9 249.5 140.7 243.3L68.7 171.3zM155.5 360.7L132.3 544L304 544L304 270.5L155.5 360.7zM336 271.6L336 350L441.5 544L507.7 544L484.5 360.8L336 271.6zM336 417L336 544L405.1 544L336 417zM516.2 356.7L539.4 540C541.8 559.1 526.9 576 507.7 576L132.3 576C113 576 98.1 559.1 100.6 540L123.8 356.6C125 346.9 130.6 338.3 138.9 333.3L302.3 234C312.5 227.8 325.2 227.8 335.4 233.9L501 333.3C509.4 338.3 515 347 516.3 356.7z"/></svg>