<svg xmlns="http://www.w3.org/2000/svg" viewBox="0 0 640 640"><!--! Font Awesome Pro 7.1.0 by @fontawesome - https://fontawesome.com License - https://fontawesome.com/license (Commercial License) Copyright 2025 Fonticons, Inc. --><path fill="currentColor" d="M122.8 274.1L99.5 512L304.2 512L304.2 143.5L137.3 250.2C129 255.5 123.6 264.3 122.7 274zM336.2 144.7L336.2 299.3L472.9 512L540.9 512L517.7 274.2C516.7 264.4 511.3 255.6 503 250.3L336.2 144.7zM336.2 358.4L336.2 511.9L434.9 511.9L336.2 358.4zM67.7 508.9L90.9 270.9C92.8 251.4 103.6 233.8 120.1 223.2L293.3 112.5C309 102.5 329.1 102.4 344.8 112.4L520.1 223.3C536.8 233.9 547.6 251.5 549.6 271.1L572.8 508.9C574.6 527.7 559.9 544 541 544L99.5 544C80.6 544 65.8 527.7 67.7 508.9z"/></svg>