<svg xmlns="http://www.w3.org/2000/svg" viewBox="0 0 640 640"><!--! Font Awesome Pro 7.1.0 by @fontawesome - https://fontawesome.com License - https://fontawesome.com/license (Commercial License) Copyright 2025 Fonticons, Inc. --><path fill="currentColor" d="M243.3 179.3L171.3 251.3C165.1 257.5 154.9 257.5 148.7 251.3L76.7 179.3C70.5 173.1 70.5 162.9 76.7 156.7C82.9 150.5 93.1 150.5 99.3 156.7L144 201.4L144 80C144 71.2 151.2 64 160 64C168.8 64 176 71.2 176 80L176 201.4L220.7 156.7C226.9 150.5 237.1 150.5 243.3 156.7C249.5 162.9 249.5 173.1 243.3 179.3zM491.3 251.3C485.1 257.5 474.9 257.5 468.7 251.3L396.7 179.3C390.5 173.1 390.5 162.9 396.7 156.7C402.9 150.5 413.1 150.5 419.3 156.7L464 201.4L464 80C464 71.2 471.2 64 480 64C488.8 64 496 71.2 496 80L496 201.4L540.7 156.7C546.9 150.5 557.1 150.5 563.3 156.7C569.5 162.9 569.5 173.1 563.3 179.3L491.3 251.3zM157.6 355.8L132.5 544L304 544L304 270.4L157.6 355.8zM336 270.4L336 350.1L441.5 544.1L507.4 544.1L482.3 355.9L335.9 270.5zM336 417L336 544L405.1 544L336 417zM100.8 539.8L125.9 351.5C127.2 341.7 133 333.1 141.5 328.1L303.9 233.4C313.9 227.6 326.2 227.6 336.1 233.4L498.5 328.1C507 333.1 512.8 341.7 514.1 351.5L539.2 539.7C541.8 558.9 526.8 575.9 507.5 575.9L132.5 576C113.1 576 98.2 559 100.8 539.8z"/></svg>