<svg xmlns="http://www.w3.org/2000/svg" viewBox="0 0 640 640"><!--! Font Awesome Pro 7.1.0 by @fontawesome - https://fontawesome.com License - https://fontawesome.com/license (Commercial License) Copyright 2025 Fonticons, Inc. --><path fill="currentColor" d="M443.3 436.7C437.1 430.5 426.9 430.5 420.7 436.7C414.5 442.9 414.5 453.1 420.7 459.3L500.7 539.3C506.9 545.5 517.1 545.5 523.3 539.3L603.3 459.3C609.5 453.1 609.5 442.9 603.3 436.7C597.1 430.5 586.9 430.5 580.7 436.7L528 489.4L528 150.7L580.7 203.4C586.9 209.6 597.1 209.6 603.3 203.4C609.5 197.2 609.5 187 603.3 180.8L523.3 100.8C517.1 94.6 506.9 94.6 500.7 100.8L420.7 180.8C414.5 187 414.5 197.2 420.7 203.4C426.9 209.6 437.1 209.6 443.3 203.4L496 150.7L496 489.4L443.3 436.7zM72 96C49.9 96 32 113.9 32 136L32 208C32 216.8 39.2 224 48 224C56.8 224 64 216.8 64 208L64 136C64 131.6 67.6 128 72 128L176 128L176 512L112 512C103.2 512 96 519.2 96 528C96 536.8 103.2 544 112 544L272 544C280.8 544 288 536.8 288 528C288 519.2 280.8 512 272 512L208 512L208 128L312 128C316.4 128 320 131.6 320 136L320 208C320 216.8 327.2 224 336 224C344.8 224 352 216.8 352 208L352 136C352 113.9 334.1 96 312 96L72 96z"/></svg>