<svg xmlns="http://www.w3.org/2000/svg" viewBox="0 0 640 640"><!--! Font Awesome Pro 7.1.0 by @fontawesome - https://fontawesome.com License - https://fontawesome.com/license (Commercial License) Copyright 2025 Fonticons, Inc. --><path fill="currentColor" d="M64 136C64 131.6 67.6 128 72 128L176 128L176 512L112 512C103.2 512 96 519.2 96 528C96 536.8 103.2 544 112 544L272 544C280.8 544 288 536.8 288 528C288 519.2 280.8 512 272 512L208 512L208 128L312 128C316.4 128 320 131.6 320 136L320 208C320 216.8 327.2 224 336 224C344.8 224 352 216.8 352 208L352 136C352 113.9 334.1 96 312 96L72 96C49.9 96 32 113.9 32 136L32 208C32 216.8 39.2 224 48 224C56.8 224 64 216.8 64 208L64 136zM320 328C320 323.6 323.6 320 328 320L432 320L432 512L368 512C359.2 512 352 519.2 352 528C352 536.8 359.2 544 368 544L528 544C536.8 544 544 536.8 544 528C544 519.2 536.8 512 528 512L464 512L464 320L568 320C572.4 320 576 323.6 576 328L576 400C576 408.8 583.2 416 592 416C600.8 416 608 408.8 608 400L608 328C608 305.9 590.1 288 568 288L328 288C305.9 288 288 305.9 288 328L288 400C288 408.8 295.2 416 304 416C312.8 416 320 408.8 320 400L320 328z"/></svg>