<svg xmlns="http://www.w3.org/2000/svg" viewBox="0 0 640 640"><!--! Font Awesome Pro 7.1.0 by @fontawesome - https://fontawesome.com License - https://fontawesome.com/license (Commercial License) Copyright 2025 Fonticons, Inc. --><path fill="currentColor" d="M136 64C113.9 64 96 81.9 96 104L96 176C96 184.8 103.2 192 112 192C120.8 192 128 184.8 128 176L128 104C128 99.6 131.6 96 136 96L304 96L304 320L240 320C231.2 320 224 327.2 224 336C224 344.8 231.2 352 240 352L400 352C408.8 352 416 344.8 416 336C416 327.2 408.8 320 400 320L336 320L336 96L504 96C508.4 96 512 99.6 512 104L512 176C512 184.8 519.2 192 528 192C536.8 192 544 184.8 544 176L544 104C544 81.9 526.1 64 504 64L136 64zM203.3 443.3C209.5 437.1 209.5 426.9 203.3 420.7C197.1 414.5 186.9 414.5 180.7 420.7L100.7 500.7C94.5 506.9 94.5 517.1 100.7 523.3L180.7 603.3C186.9 609.5 197.1 609.5 203.3 603.3C209.5 597.1 209.5 586.9 203.3 580.7L150.6 528L489.3 528L436.6 580.7C430.4 586.9 430.4 597.1 436.6 603.3C442.8 609.5 453 609.5 459.2 603.3L539.2 523.3C545.4 517.1 545.4 506.9 539.2 500.7L459.2 420.7C453 414.5 442.8 414.5 436.6 420.7C430.4 426.9 430.4 437.1 436.6 443.3L489.3 496L150.6 496L203.3 443.3z"/></svg>