<svg xmlns="http://www.w3.org/2000/svg" viewBox="0 0 640 640"><!--! Font Awesome Pro 7.1.0 by @fontawesome - https://fontawesome.com License - https://fontawesome.com/license (Commercial License) Copyright 2025 Fonticons, Inc. --><path fill="currentColor" d="M59.3 36.8C53.1 30.6 42.9 30.6 36.7 36.8C30.5 43 30.5 53.2 36.7 59.4L580.7 603.4C586.9 609.6 597.1 609.6 603.3 603.4C609.5 597.2 609.5 587 603.3 580.8L324.6 302.1L364.8 128.1L539.6 128.1L528.6 172.2C526.5 180.8 531.7 189.5 540.2 191.6C548.7 193.7 557.5 188.5 559.6 180L570.6 135.9C575.6 115.7 560.4 96.1 539.6 96.1L172.6 96.1C158.3 96.1 145.7 105.6 141.8 119.3L59.3 36.8zM168.1 145.6L172.5 128L331.9 128L297.9 275.4L168.1 145.6zM243.3 512L176 512C167.2 512 160 519.2 160 528C160 536.8 167.2 544 176 544L336 544C344.8 544 352 536.8 352 528C352 519.2 344.8 512 336 512L276.1 512L303.4 393.9L276.7 367.2L243.3 512z"/></svg>