<svg xmlns="http://www.w3.org/2000/svg" viewBox="0 0 640 640"><!--! Font Awesome Pro 7.1.0 by @fontawesome - https://fontawesome.com License - https://fontawesome.com/license (Commercial License) Copyright 2025 Fonticons, Inc. --><path fill="currentColor" d="M160 136C160 131.6 163.6 128 168 128L304 128L304 512L224 512C215.2 512 208 519.2 208 528C208 536.8 215.2 544 224 544L416 544C424.8 544 432 536.8 432 528C432 519.2 424.8 512 416 512L336 512L336 128L472 128C476.4 128 480 131.6 480 136L480 208C480 216.8 487.2 224 496 224C504.8 224 512 216.8 512 208L512 136C512 113.9 494.1 96 472 96L168 96C145.9 96 128 113.9 128 136L128 208C128 216.8 135.2 224 144 224C152.8 224 160 216.8 160 208L160 136z"/></svg>