<svg xmlns="http://www.w3.org/2000/svg" viewBox="0 0 640 640"><!--! Font Awesome Pro 7.1.0 by @fontawesome - https://fontawesome.com License - https://fontawesome.com/license (Commercial License) Copyright 2025 Fonticons, Inc. --><path fill="currentColor" d="M336 128L336 304L512 304L512 160C512 142.3 497.7 128 480 128L336 128zM304 128L160 128C142.3 128 128 142.3 128 160L128 304L304 304L304 128zM96 336L96 160C96 124.7 124.7 96 160 96L480 96C515.3 96 544 124.7 544 160L544 480C544 515.3 515.3 544 480 544L160 544C124.7 544 96 515.3 96 480L96 336zM512 336L336 336L336 512L480 512C497.7 512 512 497.7 512 480L512 336zM304 512L304 336L128 336L128 480C128 497.7 142.3 512 160 512L304 512z"/></svg>