<svg xmlns="http://www.w3.org/2000/svg" viewBox="0 0 640 640"><!--! Font Awesome Pro 7.1.0 by @fontawesome - https://fontawesome.com License - https://fontawesome.com/license (Commercial License) Copyright 2025 Fonticons, Inc. --><path fill="currentColor" d="M176.2 221.7L176.2 258.4C170.8 252.8 162.9 249.9 154.7 251.3C145 253 137.7 260.3 135.5 269.3C133.4 277.9 124.8 283.2 116.2 281.1C107.6 279 102.3 270.4 104.4 261.8C109.5 240.9 126.5 223.8 149.1 219.8C158.5 218.1 167.7 218.9 176.2 221.7zM176.2 324.9L176.2 363.4C176.2 366 176.2 368.6 176.3 371.1C171.5 378.6 168 386.8 165.8 395.5L177.9 393.4C179.2 404.1 181.1 414.6 183.6 424.9L168.9 427.5C150.6 430.7 129.1 416.3 133.5 393.2C138.8 365.9 154.1 341.5 176.1 324.9zM215.7 500C224.1 513.2 233.6 525.7 244.3 537.2C242 537 239.7 536.7 237.4 536.3L208.3 531.2C122.2 516 54.8 448.6 39.6 362.5L9.7 193.3C8 183.4 9.1 171.8 15.9 161.9C36.5 131.8 88.7 84.2 182.5 67.7C226.9 59.9 265 61.8 295.9 68.2C275 75.8 256.9 84.9 241.5 94.6C225.2 94.5 207.4 95.8 188.1 99.2C102.9 114.2 58.1 156.9 42.3 180C41.3 181.5 40.6 184 41.2 187.8L71.1 356.9C83.9 429.8 141 486.9 213.9 499.7L215.7 500zM235.7 159.8C261.3 133.8 321 96 416.2 96C511.4 96 571.2 133.8 596.7 159.8C605.2 168.4 608.2 179.6 608.2 189.7L608.2 361.5C608.2 449 553.5 527.1 471.3 557L443.6 567.1C425.9 573.5 406.6 573.5 388.9 567.1L361.1 557C278.9 527.1 224.2 449 224.2 361.5L224.2 189.7C224.2 179.7 227.3 168.4 235.7 159.8zM416.2 128C329.7 128 278.2 162.2 258.6 182.2C257.4 183.5 256.2 185.9 256.2 189.7L256.2 361.5C256.2 435.5 302.5 501.6 372.1 526.9L399.8 537C410.4 540.9 422 540.9 432.6 537L460.3 526.9C529.9 501.6 576.2 435.5 576.2 361.5L576.2 189.7C576.2 185.9 575 183.5 573.8 182.2C554.2 162.2 502.7 128 416.2 128zM416.2 448C454.5 448 487.5 425.6 503 393.2C477.4 407.7 447.8 416 416.2 416C384.6 416 355 407.7 329.4 393.2C344.8 425.6 377.9 448 416.2 448zM328.7 354.4C353 373 383.3 384 416.2 384C449.1 384 479.4 373 503.7 354.4C511.6 348.3 521.7 347.9 529.6 351.8C537.9 356 544.1 365.4 541.8 376.8C530.2 435.6 478.4 480 416.2 480C354 480 302.2 435.6 290.6 376.8C288.4 365.5 294.5 356 302.8 351.8C310.7 347.8 320.8 348.3 328.7 354.4zM347.5 280C337.7 280 329.2 285.9 325.5 294.4C322 302.5 312.5 306.2 304.4 302.7C296.3 299.2 292.6 289.7 296.1 281.6C304.7 261.9 324.4 248 347.4 248C370.4 248 390.1 261.8 398.7 281.6C402.2 289.7 398.5 299.1 390.4 302.7C382.3 306.3 372.9 302.5 369.3 294.4C365.6 285.9 357.1 280 347.3 280zM462.8 294.4C459.3 302.5 449.8 306.2 441.7 302.7C433.6 299.2 429.9 289.7 433.4 281.6C442 261.9 461.7 248 484.7 248C507.7 248 527.4 261.8 536 281.6C539.5 289.7 535.8 299.1 527.7 302.7C519.6 306.3 510.2 302.5 506.6 294.4C502.9 285.9 494.4 280 484.6 280C474.8 280 466.3 285.9 462.6 294.4z"/></svg>