<svg xmlns="http://www.w3.org/2000/svg" viewBox="0 0 640 640"><!--! Font Awesome Pro 7.1.0 by @fontawesome - https://fontawesome.com License - https://fontawesome.com/license (Commercial License) Copyright 2025 Fonticons, Inc. --><path fill="currentColor" d="M416.8 117.8C430.8 103.8 449.7 96 469.5 96C510.6 96 544 129.4 544 170.5C544 190.3 536.2 209.2 522.2 223.2L302.1 443.3C299.1 446.3 295 448 290.8 448L192.1 448L192.1 349.3C192.1 345.1 193.8 341 196.8 338L224.1 310.7L260.8 347.4C267 353.6 277.2 353.6 283.4 347.4C289.6 341.2 289.6 331 283.4 324.8L246.7 288.1L304.1 230.7L340.8 267.4C347 273.6 357.2 273.6 363.4 267.4C369.6 261.2 369.6 251 363.4 244.8L326.6 208L384 150.6L420.7 187.3C426.9 193.5 437.1 193.5 443.3 187.3C449.5 181.1 449.5 170.9 443.3 164.7L406.6 128L416.8 117.8zM160 349.3L160 457.4L68.7 548.7C62.5 554.9 62.5 565.1 68.7 571.3C74.9 577.5 85.1 577.5 91.3 571.3L182.6 480L290.7 480C303.4 480 315.6 474.9 324.6 465.9L544.8 245.8C564.8 225.8 576 198.7 576 170.5C576 111.7 528.3 64 469.5 64C441.3 64 414.2 75.2 394.2 95.2L174.1 315.3C165.1 324.3 160 336.5 160 349.2z"/></svg>