<svg xmlns="http://www.w3.org/2000/svg" viewBox="0 0 640 640"><!--! Font Awesome Pro 7.1.0 by @fontawesome - https://fontawesome.com License - https://fontawesome.com/license (Commercial License) Copyright 2025 Fonticons, Inc. --><path fill="currentColor" d="M240 176C240 131.8 275.8 96 320 96C364.2 96 400 131.8 400 176L400 347.3C400 351.2 401.4 355 404 357.9C421.4 377.7 432 403.6 432 432C432 493.9 381.9 544 320 544C258.1 544 208 493.9 208 432C208 403.6 218.6 377.7 236 357.9C238.6 355 240 351.2 240 347.3L240 176zM320 64C258.1 64 208 114.1 208 176L208 341.5C188 366.2 176 397.7 176 432C176 511.5 240.5 576 320 576C399.5 576 464 511.5 464 432C464 397.7 452 366.2 432 341.5L432 176C432 114.1 381.9 64 320 64zM352 432C352 449.7 337.7 464 320 464C302.3 464 288 449.7 288 432C288 414.3 302.3 400 320 400C337.7 400 352 414.3 352 432zM384 432C384 396.7 355.3 368 320 368C284.7 368 256 396.7 256 432C256 467.3 284.7 496 320 496C355.3 496 384 467.3 384 432z"/></svg>