<svg xmlns="http://www.w3.org/2000/svg" viewBox="0 0 640 640"><!--! Font Awesome Pro 7.1.0 by @fontawesome - https://fontawesome.com License - https://fontawesome.com/license (Commercial License) Copyright 2025 Fonticons, Inc. --><path fill="currentColor" d="M320 96C275.8 96 240 131.8 240 176L240 347.3C240 351.2 238.6 355 236 357.9C218.6 377.7 208 403.6 208 432C208 493.9 258.1 544 320 544C381.9 544 432 493.9 432 432C432 403.6 421.4 377.7 404 357.9C401.4 355 400 351.2 400 347.3L400 176C400 131.8 364.2 96 320 96zM208 176C208 114.1 258.1 64 320 64C381.9 64 432 114.1 432 176L432 341.5C452 366.2 464 397.7 464 432C464 511.5 399.5 576 320 576C240.5 576 176 511.5 176 432C176 397.7 188 366.2 208 341.5L208 176zM320 464C337.7 464 352 449.7 352 432C352 414.3 337.7 400 320 400C302.3 400 288 414.3 288 432C288 449.7 302.3 464 320 464zM320 496C284.7 496 256 467.3 256 432C256 402.2 276.4 377.1 304 370L304 352C304 343.2 311.2 336 320 336C328.8 336 336 343.2 336 352L336 370C363.6 377.1 384 402.2 384 432C384 467.3 355.3 496 320 496z"/></svg>