<svg xmlns="http://www.w3.org/2000/svg" viewBox="0 0 640 640"><!--! Font Awesome Pro 7.1.0 by @fontawesome - https://fontawesome.com License - https://fontawesome.com/license (Commercial License) Copyright 2025 Fonticons, Inc. --><path fill="currentColor" d="M480 320C480 255.6 460.4 198.5 430.2 158.2C400 117.9 360.7 96 320 96C279.3 96 240 117.9 209.8 158.2C179.6 198.5 160 255.6 160 320C160 384.4 179.6 441.5 209.8 481.8C240 522.1 279.3 544 320 544C360.7 544 400 522.1 430.2 481.8C460.4 441.5 480 384.4 480 320zM512 320C512 461.4 426 576 320 576C214 576 128 461.4 128 320C128 178.6 214 64 320 64C426 64 512 178.6 512 320zM240 304L400 304C408.8 304 416 311.2 416 320C416 328.8 408.8 336 400 336L240 336C231.2 336 224 328.8 224 320C224 311.2 231.2 304 240 304z"/></svg>