<svg xmlns="http://www.w3.org/2000/svg" viewBox="0 0 640 640"><!--! Font Awesome Pro 7.1.0 by @fontawesome - https://fontawesome.com License - https://fontawesome.com/license (Commercial License) Copyright 2025 Fonticons, Inc. --><path fill="currentColor" d="M59.3 36.8C53.1 30.6 42.9 30.6 36.7 36.8C30.5 43 30.5 53.2 36.7 59.4L580.7 603.4C586.9 609.6 597.1 609.6 603.3 603.4C609.5 597.2 609.5 587 603.3 580.8L438.5 416L468.3 416C493.7 416 512.7 392.6 507.4 367.8L506.2 362.1C496.7 317 471.1 278.6 436.2 252.6L424.7 96L464 96C472.8 96 480 88.8 480 80C480 71.2 472.8 64 464 64L176 64C170.2 64 165.1 67.1 162.3 71.8L186.5 96L215.3 96L208.6 186.1L59.2 36.7zM238.5 216L247.4 96L392.5 96L404.8 262.2C405.1 266.8 407.5 271.1 411.2 273.8L417 278.2C445.8 299.7 467 331.4 474.8 368.7L476 374.4C477 379.4 473.3 384 468.2 384L406.5 384L238.5 216zM181.5 272.1C158 296.3 141.1 327.2 133.7 362.1L132.5 367.8C127.3 392.7 146.2 416 171.6 416L325.4 416L293.4 384L171.6 384C166.5 384 162.7 379.3 163.8 374.4L165 368.7C171 340 184.9 314.7 204.1 294.7L181.5 272.1zM304 592C304 600.8 311.2 608 320 608C328.8 608 336 600.8 336 592L336 464L304 464L304 592z"/></svg>