<svg xmlns="http://www.w3.org/2000/svg" viewBox="0 0 640 640"><!--! Font Awesome Pro 7.1.0 by @fontawesome - https://fontawesome.com License - https://fontawesome.com/license (Commercial License) Copyright 2025 Fonticons, Inc. --><path fill="currentColor" d="M244.5 96.8C264.3 68.6 302.7 59.5 333.4 76.8L339.3 80.5C365.6 99 375.3 133.7 362.5 163.2L359.4 169.4L328.6 224.1L480.1 224.1L485.5 224.3C535 228.3 558.7 286 532.8 324.1C549.7 349.1 546.6 383.7 525.1 405.3C533.6 433.3 521.4 464.6 495.9 479.5C496 511.3 471.9 539.8 439.5 543.7L432 544.1L317.6 544.1C288 544.1 263.1 532.6 240.9 522.8L240.8 522.8C221.6 514.2 205.1 501.5 192 486.1L192 496.2C192 522.7 170.5 544.2 144 544.2L112 544.2C85.5 544.2 64 522.7 64 496.2L64 272C64 245.5 85.5 224 112 224L144 224C153.2 224 161.7 226.6 169 231C170.2 228.4 171.5 225.8 172.9 223.3L240.8 102.6L244.5 96.7zM112 256C103.2 256 96 263.2 96 272L96 496C96 504.8 103.2 512 112 512L144 512C152.8 512 160 504.8 160 496L160 272C160 263.2 152.8 256 144 256L112 256zM317.7 104.6C301.5 95.5 281.1 100.3 270.6 115.2L268.6 118.3L200.7 239C195.7 247.8 192.8 257.6 192.1 267.7L192 398.4C192 439.5 216.2 476.7 253.8 493.4L253.8 493.4C277.4 503.7 296 512 317.7 512L432.1 512L435.8 511.8C454 509.6 467.3 491.3 463.3 473.1C461.5 465.1 466.2 457 474 454.4C492.8 448.3 501.6 425.3 491.9 408.3C487.7 400.9 490.1 391.5 497.2 387C514.8 375.8 516.8 349.8 501.1 336C497.7 333 495.7 328.6 495.7 324C495.7 319.4 497.7 315 501.1 312C521.1 294.4 510.2 260.6 485.2 256.5L480 256.1L301.2 256.1C295.5 256.1 290.3 253.1 287.4 248.2C284.5 243.3 284.5 237.2 287.3 232.3L331.5 153.8L333.1 150.5C339.9 134.9 334.8 116.6 320.9 106.8L317.8 104.8z"/></svg>