<svg xmlns="http://www.w3.org/2000/svg" viewBox="0 0 640 640"><!--! Font Awesome Pro 7.1.0 by @fontawesome - https://fontawesome.com License - https://fontawesome.com/license (Commercial License) Copyright 2025 Fonticons, Inc. --><path fill="currentColor" d="M432 96L439.5 96.4C471.9 100.3 496 128.8 495.9 160.6C521.4 175.4 533.6 206.7 525.1 234.8C546.6 256.4 549.7 290.9 532.8 316C558.7 354.1 535 411.8 485.5 415.8L480.1 416L328.6 416L359.4 470.7L362.5 476.9C375.4 506.4 365.6 541 339.3 559.6L333.4 563.3C302.7 580.5 264.4 571.4 244.5 543.3L240.8 537.4L189.7 446.7C183.5 466 165.4 480 144 480L112 480C85.5 480 64 458.5 64 432L64 208C64 181.5 85.5 160 112 160L144 160C157.3 160 169.3 165.4 178 174.1C192.1 149.5 213.8 129.3 240.8 117.3L240.9 117.3C263.1 107.5 288 96 317.6 96L432 96zM317.6 128C295.9 128 277.3 136.2 253.7 146.6L253.7 146.6C216.2 163.3 192 200.5 191.9 241.6L192.1 372.3C192.8 382.4 195.7 392.2 200.7 401L268.6 521.7L270.6 524.8C281.1 539.7 301.4 544.5 317.7 535.4L320.8 533.4C334.7 523.6 339.8 505.3 333 489.7L331.4 486.4L287.2 407.9C284.4 402.9 284.5 396.9 287.3 392C290.1 387.1 295.4 384.1 301.1 384.1L479.9 384.1L485.1 383.7C510.1 379.5 521 345.8 501 328.2C497.6 325.2 495.6 320.8 495.6 316.2C495.6 311.6 497.6 307.2 501 304.2C516.6 290.5 514.7 264.5 497.1 253.2C490 248.6 487.6 239.2 491.8 231.9C501.4 214.9 492.7 191.9 473.9 185.8C466.1 183.3 461.5 175.2 463.2 167.1C467.2 148.9 453.8 130.6 435.7 128.4L432 128L317.6 128zM112 192C103.2 192 96 199.2 96 208L96 432C96 440.8 103.2 448 112 448L144 448C152.8 448 160 440.8 160 432L160 208C160 199.2 152.8 192 144 192L112 192z"/></svg>