<svg xmlns="http://www.w3.org/2000/svg" viewBox="0 0 640 640"><!--! Font Awesome Pro 7.1.0 by @fontawesome - https://fontawesome.com License - https://fontawesome.com/license (Commercial License) Copyright 2025 Fonticons, Inc. --><path fill="currentColor" d="M59.3 36.8C53.1 30.6 42.9 30.6 36.7 36.8C30.5 43 30.5 53.2 36.7 59.4L580.7 603.4C586.9 609.6 597.1 609.6 603.3 603.4C609.5 597.2 609.5 587 603.3 580.8L413.8 391.3L520.6 267.4L548.7 295.5C554.9 301.7 565.1 301.7 571.3 295.5C577.5 289.3 577.5 279.1 571.3 272.9L367.2 68.7C361 62.5 350.8 62.5 344.6 68.7C338.4 74.9 338.4 85.1 344.6 91.3L372.6 119.4L248.7 226.2L59.3 36.8zM271.4 248.9L395.1 142.3L497.7 244.9L391.1 368.6L271.4 248.9zM126.6 250.1L121.8 253.3C100.5 267.2 97.4 297.1 115.4 315.1L325 524.7C343 542.7 372.9 539.5 386.8 518.3L390 513.4C394.5 506.5 398.4 499.5 401.9 492.3L377.5 468C373.7 477.6 369 487 363.1 496L359.9 500.9C357.1 505.2 351.1 505.8 347.5 502.2L137.9 292.4C134.3 288.8 134.9 282.8 139.2 280L144 276.8C153 271 162.3 266.2 172 262.4L147.7 238.1C140.5 241.6 133.4 245.5 126.6 250zM197.5 465.2L174.9 442.5L68.7 548.7C62.5 554.9 62.5 565.1 68.7 571.3C74.9 577.5 85.1 577.5 91.3 571.3L197.5 465.1z"/></svg>