<svg xmlns="http://www.w3.org/2000/svg" viewBox="0 0 640 640"><!--! Font Awesome Pro 7.1.0 by @fontawesome - https://fontawesome.com License - https://fontawesome.com/license (Commercial License) Copyright 2025 Fonticons, Inc. --><path fill="currentColor" d="M176.3 96L215.6 96L204 252.6C169.2 278.6 143.6 317 134.1 362.1L132.9 367.8C127.6 392.6 146.6 416 172 416L468.6 416C494 416 513 392.6 507.7 367.8L506.5 362.1C497 317 471.4 278.6 436.5 252.6L425 96L464.3 96C473.1 96 480.3 88.8 480.3 80C480.3 71.2 473.1 64 464.3 64L176.3 64C167.5 64 160.3 71.2 160.3 80C160.3 88.8 167.5 96 176.3 96zM235.4 262.2L247.7 96L392.9 96L405.2 262.2C405.5 266.8 407.9 271.1 411.6 273.8L417.4 278.2C446.2 299.7 467.4 331.4 475.2 368.7L476.4 374.4C477.4 379.4 473.7 384 468.6 384L172 384C166.9 384 163.1 379.3 164.2 374.4L165.4 368.7C173.3 331.4 194.4 299.7 223.2 278.2L229 273.8C232.7 271 235 266.8 235.4 262.2zM304.3 464L304.3 592C304.3 600.8 311.5 608 320.3 608C329.1 608 336.3 600.8 336.3 592L336.3 464L304.3 464z"/></svg>