<svg xmlns="http://www.w3.org/2000/svg" viewBox="0 0 640 640"><!--! Font Awesome Pro 7.1.0 by @fontawesome - https://fontawesome.com License - https://fontawesome.com/license (Commercial License) Copyright 2025 Fonticons, Inc. --><path fill="currentColor" d="M425.3 132C417.5 124.4 408.7 117.8 399.1 112.4C422.6 64.7 471.6 31.9 528.4 31.9C539.1 31.9 549.8 33.1 560.3 35.4C565.9 36.7 570 41.3 570.7 47C571.4 52.7 568.4 58.2 563.3 60.7C559.7 62.5 556.3 64.5 553 66.6C524.6 85.1 505.9 117.1 505.9 153.4C505.9 209.4 550.3 254.9 605.8 256.8C609.8 256.9 613.7 256.8 617.7 256.5C623.4 256 628.7 259.2 631.1 264.4C633.5 269.6 632.3 275.7 628.1 279.7C624.9 282.8 621.5 285.8 618 288.6C591.7 309.5 563.8 320.4 528.3 319.8C528.3 308.7 526.9 298 524.3 287.8C525.7 287.9 527.1 287.9 528.5 287.9C541.5 287.9 554 285.7 565.6 281.6C512.3 263.4 474 212.8 474 153.4C474 120.2 486 89.8 505.8 66.2C469.5 73.7 439.7 98.7 425.5 131.9zM257 328.7C262.6 323.1 270.2 320 278.1 320C297.9 320 312.2 338.8 306.9 357.9L286.3 432L325 432C340.1 432 352.3 444.2 352.3 459.3C352.3 466.5 349.4 473.5 344.3 478.6L223.8 599.3C218.2 604.9 210.6 608 202.7 608C182.9 608 168.6 589.2 173.9 570.1L194.5 496L155.8 496C140.7 496 128.5 483.8 128.5 468.7C128.5 461.5 131.4 454.5 136.5 449.4L257 328.7zM273.9 357L167 464L215.5 464C225.9 464 233.7 474.2 230.9 484.3L206.8 570.9L313.7 464L265.2 464C254.8 464 247 453.8 249.8 443.7L273.9 357.1zM208.4 144C173.1 144 144.4 172.7 144.4 208C144.4 212.4 144.8 216.7 145.7 220.8C146.7 225.6 145.4 230.5 142.3 234.2C139.2 237.9 134.6 240 129.7 240C94.4 239.3 64.4 268.6 64.4 304C64.4 339.3 93.1 368 128.4 368L157.9 368L125.9 400C74 398.7 32.3 356.2 32.3 304C32.3 256.4 66.9 217 112.3 209.3C111.6 156 154.8 112 208.3 112C243.2 112 273.7 130.6 290.5 158.4C303.5 149.3 319.2 144 336.3 144C380.5 144 416.3 179.8 416.3 224C416.3 229.9 415.7 235.7 414.4 241.2C451.8 247.9 480.2 280.6 480.2 319.9C480.2 364 444.4 399.8 400.3 399.9L358.7 399.9C355.4 398.2 351.9 396.8 348.4 395.6L353.1 378.6C354.1 375 354.8 371.4 355.3 367.8L400.3 367.8C426.8 367.8 448.2 346.3 448.2 319.8C448.2 291 421.8 268.3 393.5 272.3C387.4 273.1 381.4 270.4 378 265.3C374.6 260.2 374.4 253.6 377.6 248.3C381.8 241.2 384.3 232.8 384.3 223.9C384.3 197.4 362.8 175.9 336.3 175.9C320.6 175.9 306.7 183.4 297.9 195.1C294.3 199.9 288.2 202.3 282.2 201.2C276.2 200.1 271.4 195.8 269.7 189.9C261.9 163.3 237.3 143.9 208.3 143.9z"/></svg>