<svg xmlns="http://www.w3.org/2000/svg" viewBox="0 0 640 640"><!--! Font Awesome Pro 7.1.0 by @fontawesome - https://fontawesome.com License - https://fontawesome.com/license (Commercial License) Copyright 2025 Fonticons, Inc. --><path fill="currentColor" d="M64 192C64 174.3 78.3 160 96 160L544 160C561.7 160 576 174.3 576 192L576 246.7C547.8 259 528 287.2 528 320C528 352.8 547.8 381 576 393.3L576 448C576 465.7 561.7 480 544 480L96 480C78.3 480 64 465.7 64 448L64 192zM96 128C60.7 128 32 156.7 32 192L32 448C32 483.3 60.7 512 96 512L544 512C579.3 512 608 483.3 608 448L608 384C608 375.2 600.6 368.3 592.3 365.4C573.5 358.9 560 341 560 320C560 299 573.5 281.1 592.3 274.6C600.6 271.7 608 264.8 608 256L608 192C608 156.7 579.3 128 544 128L96 128zM448 248C461.3 248 472 237.3 472 224C472 210.7 461.3 200 448 200C434.7 200 424 210.7 424 224C424 237.3 434.7 248 448 248zM448 344C461.3 344 472 333.3 472 320C472 306.7 461.3 296 448 296C434.7 296 424 306.7 424 320C424 333.3 434.7 344 448 344zM472 416C472 402.7 461.3 392 448 392C434.7 392 424 402.7 424 416C424 429.3 434.7 440 448 440C461.3 440 472 429.3 472 416z"/></svg>