<svg xmlns="http://www.w3.org/2000/svg" viewBox="0 0 640 640"><!--! Font Awesome Pro 7.1.0 by @fontawesome - https://fontawesome.com License - https://fontawesome.com/license (Commercial License) Copyright 2025 Fonticons, Inc. --><path fill="currentColor" d="M160 128L544 128C561.7 128 576 142.3 576 160L576 198.7C547.8 211 528 239.2 528 272C528 304.8 547.8 333 576 345.3L576 384C576 401.7 561.7 416 544 416L160 416C142.3 416 128 401.7 128 384L128 345.3C156.2 333 176 304.8 176 272C176 239.2 156.2 211 128 198.7L128 160C128 142.3 142.3 128 160 128zM160 96C124.7 96 96 124.7 96 160L96 208C96 216.8 103.4 223.7 111.7 226.6C130.5 233.1 144 251 144 272C144 293 130.5 310.9 111.7 317.4C103.4 320.3 96 327.2 96 336L96 384C96 419.3 124.7 448 160 448L544 448C579.3 448 608 419.3 608 384L608 336C608 327.2 600.6 320.3 592.3 317.4C573.5 310.9 560 293 560 272C560 251 573.5 233.1 592.3 226.6C600.6 223.7 608 216.8 608 208L608 160C608 124.7 579.3 96 544 96L160 96zM16 192C7.2 192 0 199.2 0 208L0 488C0 518.9 25.1 544 56 544L496 544C504.8 544 512 536.8 512 528C512 519.2 504.8 512 496 512L56 512C42.7 512 32 501.3 32 488L32 208C32 199.2 24.8 192 16 192zM264 224L440 224C444.4 224 448 227.6 448 232L448 312C448 316.4 444.4 320 440 320L264 320C259.6 320 256 316.4 256 312L256 232C256 227.6 259.6 224 264 224zM224 232L224 312C224 334.1 241.9 352 264 352L440 352C462.1 352 480 334.1 480 312L480 232C480 209.9 462.1 192 440 192L264 192C241.9 192 224 209.9 224 232z"/></svg>