<svg xmlns="http://www.w3.org/2000/svg" viewBox="0 0 640 640"><!--! Font Awesome Pro 7.1.0 by @fontawesome - https://fontawesome.com License - https://fontawesome.com/license (Commercial License) Copyright 2025 Fonticons, Inc. --><path fill="currentColor" d="M64 192L64 246.7C92.2 259 112 287.2 112 320C112 352.8 92.2 381 64 393.3L64 448C64 465.7 78.3 480 96 480L544 480C561.7 480 576 465.7 576 448L576 393.3C547.8 381 528 352.8 528 320C528 287.2 547.8 259 576 246.7L576 192C576 174.3 561.7 160 544 160L96 160C78.3 160 64 174.3 64 192zM32 192C32 156.7 60.7 128 96 128L544 128C579.3 128 608 156.7 608 192L608 256C608 264.8 600.6 271.7 592.3 274.6C573.5 281.1 560 299 560 320C560 341 573.5 358.9 592.3 365.4C600.6 368.3 608 375.2 608 384L608 448C608 483.3 579.3 512 544 512L96 512C60.7 512 32 483.3 32 448L32 384C32 375.2 39.4 368.3 47.7 365.4C66.5 358.9 80 341 80 320C80 299 66.5 281.1 47.7 274.6C39.4 271.7 32 264.8 32 256L32 192zM192 256L192 384L448 384L448 256L192 256zM160 256C160 238.3 174.3 224 192 224L448 224C465.7 224 480 238.3 480 256L480 384C480 401.7 465.7 416 448 416L192 416C174.3 416 160 401.7 160 384L160 256z"/></svg>