<svg xmlns="http://www.w3.org/2000/svg" viewBox="0 0 640 640"><!--! Font Awesome Pro 7.1.0 by @fontawesome - https://fontawesome.com License - https://fontawesome.com/license (Commercial License) Copyright 2025 Fonticons, Inc. --><path fill="currentColor" d="M160 128C142.3 128 128 142.3 128 160L128 384C128 401.7 142.3 416 160 416L544 416C561.7 416 576 401.7 576 384L576 345.3C547.8 333 528 304.8 528 272C528 239.2 547.8 211 576 198.7L576 160C576 142.3 561.7 128 544 128L160 128zM96 160C96 124.7 124.7 96 160 96L544 96C579.3 96 608 124.7 608 160L608 208C608 216.8 600.6 223.7 592.3 226.6C573.5 233.1 560 251 560 272C560 293 573.5 310.9 592.3 317.4C600.6 320.3 608 327.2 608 336L608 384C608 419.3 579.3 448 544 448L160 448C124.7 448 96 419.3 96 384L96 160zM16 192C24.8 192 32 199.2 32 208L32 488C32 501.3 42.7 512 56 512L496 512C504.8 512 512 519.2 512 528C512 536.8 504.8 544 496 544L56 544C25.1 544 0 518.9 0 488L0 208C0 199.2 7.2 192 16 192zM448 328C461.3 328 472 338.7 472 352C472 365.3 461.3 376 448 376C434.7 376 424 365.3 424 352C424 338.7 434.7 328 448 328zM424 272C424 258.7 434.7 248 448 248C461.3 248 472 258.7 472 272C472 285.3 461.3 296 448 296C434.7 296 424 285.3 424 272zM448 168C461.3 168 472 178.7 472 192C472 205.3 461.3 216 448 216C434.7 216 424 205.3 424 192C424 178.7 434.7 168 448 168z"/></svg>