<svg xmlns="http://www.w3.org/2000/svg" viewBox="0 0 640 640"><!--! Font Awesome Pro 7.1.0 by @fontawesome - https://fontawesome.com License - https://fontawesome.com/license (Commercial License) Copyright 2025 Fonticons, Inc. --><path fill="currentColor" d="M160 128C142.3 128 128 142.3 128 160L128 384C128 401.7 142.3 416 160 416L544 416C561.7 416 576 401.7 576 384L576 345.3C547.8 333 528 304.8 528 272C528 239.2 547.8 211 576 198.7L576 160C576 142.3 561.7 128 544 128L160 128zM96 160C96 124.7 124.7 96 160 96L544 96C579.3 96 608 124.7 608 160L608 208C608 216.8 600.6 223.7 592.3 226.6C573.5 233.1 560 251 560 272C560 293 573.5 310.9 592.3 317.4C600.6 320.3 608 327.2 608 336L608 384C608 419.3 579.3 448 544 448L160 448C124.7 448 96 419.3 96 384L96 160zM16 192C24.8 192 32 199.2 32 208L32 488C32 501.3 42.7 512 56 512L496 512C504.8 512 512 519.2 512 528C512 536.8 504.8 544 496 544L56 544C25.1 544 0 518.9 0 488L0 208C0 199.2 7.2 192 16 192zM322.3 234.9C323.9 239.8 323.1 245.1 320.1 249.3C317.1 253.5 312.3 255.9 307.1 255.9L261.8 255.9C257.6 255.9 253.5 254.2 250.5 251.2L239.2 239.9L228 239.9L235.3 261.8C237.5 268.4 237.5 275.5 235.3 282L228 303.9L239.2 303.9L250.5 292.6C253.5 289.6 257.6 287.9 261.8 287.9L307.1 287.9C312.2 287.9 317.1 290.4 320.1 294.5C323.1 298.6 323.9 304 322.3 308.9L308 352L328 352C330.8 352 333.5 350.5 334.9 348L365.3 295.9C368.2 291 373.4 288 379.1 288L432 288C440.8 288 448 280.8 448 272C448 263.2 440.8 256 432 256L379.1 256C373.4 256 368.1 253 365.3 248.1L334.9 196C333.5 193.5 330.8 192 328 192L308 192L322.3 234.9zM296.9 160L328 160C342.2 160 355.4 167.6 362.6 179.8L362.6 179.8L388.4 224L432.1 224C458.6 224 480.1 245.5 480.1 272C480.1 298.5 458.6 320 432.1 320L388.4 320L362.6 364.2C355.4 376.4 342.2 384 328 384L296.9 384C280.5 384 269 368 274.1 352.4L284.9 320L268.4 320L261.8 326.6C255.8 332.6 247.7 336 239.2 336L216.9 336C200.5 336 189 320 194.1 304.4L204.9 272L194.1 239.6C188.9 224.1 200.5 208 216.9 208L239.2 208C247.7 208 255.8 211.4 261.8 217.4L268.4 224L284.9 224L274.1 191.6C268.9 176 280.5 160 296.9 160z"/></svg>