<svg xmlns="http://www.w3.org/2000/svg" viewBox="0 0 640 640"><!--! Font Awesome Pro 7.1.0 by @fontawesome - https://fontawesome.com License - https://fontawesome.com/license (Commercial License) Copyright 2025 Fonticons, Inc. --><path fill="currentColor" d="M170.5 224C129.4 224 96 257.4 96 298.5L96 400C96 408.8 88.8 416 80 416C71.2 416 64 408.8 64 400L64 298.5C64 239.7 111.7 192 170.5 192C198.7 192 225.8 203.2 245.8 223.2L416.8 394.2C430.8 408.2 449.7 416 469.5 416C510.6 416 544 382.6 544 341.5L544 240C544 231.2 551.2 224 560 224C568.8 224 576 231.2 576 240L576 341.5C576 400.3 528.3 448 469.5 448C441.3 448 414.2 436.8 394.2 416.8L223.2 245.8C209.2 231.8 190.3 224 170.5 224z"/></svg>