<svg xmlns="http://www.w3.org/2000/svg" viewBox="0 0 640 640"><!--! Font Awesome Pro 7.1.0 by @fontawesome - https://fontawesome.com License - https://fontawesome.com/license (Commercial License) Copyright 2025 Fonticons, Inc. --><path fill="currentColor" d="M93.3 339.9L189.5 508C196.6 520.4 209.9 528.1 224.2 528.1L415.8 528.1C430.1 528.1 443.4 520.4 450.5 508L546.7 339.9C553.7 327.6 553.7 312.5 546.7 300.2L450.5 132.1C443.4 119.7 430.2 112 415.8 112L224.2 112C209.9 112 196.6 119.7 189.5 132.1L93.3 300.2C86.3 312.5 86.3 327.6 93.3 339.9zM65.5 355.8C52.8 333.6 52.8 306.4 65.5 284.3L161.7 116.2C174.5 93.8 198.4 80 224.2 80L415.8 80C441.6 80 465.5 93.8 478.3 116.2L574.5 284.3C587.2 306.5 587.2 333.7 574.5 355.8L478.3 523.9C465.5 546.3 441.6 560.1 415.8 560.1L224.2 560.1C198.4 560.1 174.5 546.3 161.7 523.9L65.5 355.8zM228.7 228.7C234.9 222.5 245.1 222.5 251.3 228.7L320 297.4L388.7 228.7C394.9 222.5 405.1 222.5 411.3 228.7C417.5 234.9 417.5 245.1 411.3 251.3L342.6 320L411.3 388.7C417.5 394.9 417.5 405.1 411.3 411.3C405.1 417.5 394.9 417.5 388.7 411.3L320 342.6L251.3 411.3C245.1 417.5 234.9 417.5 228.7 411.3C222.5 405.1 222.5 394.9 228.7 388.7L297.4 320L228.7 251.3C222.5 245.1 222.5 234.9 228.7 228.7z"/></svg>