<svg xmlns="http://www.w3.org/2000/svg" viewBox="0 0 640 640"><!--! Font Awesome Pro 7.1.0 by @fontawesome - https://fontawesome.com License - https://fontawesome.com/license (Commercial License) Copyright 2025 Fonticons, Inc. --><path fill="currentColor" d="M176 160C176 133.5 154.5 112 128 112C101.5 112 80 133.5 80 160C80 186.5 101.5 208 128 208C154.5 208 176 186.5 176 160zM208 160C208 198.7 180.5 231 144 238.4L144 320L368 320L368 238.4C331.5 231 304 198.7 304 160C304 115.8 339.8 80 384 80C428.2 80 464 115.8 464 160C464 198.7 436.5 231 400 238.4L400 320L553.4 320L508.7 275.3C502.5 269.1 502.5 258.9 508.7 252.7C514.9 246.5 525.1 246.5 531.3 252.7L603.3 324.7C609.5 330.9 609.5 341.1 603.3 347.3L531.3 419.3C525.1 425.5 514.9 425.5 508.7 419.3C502.5 413.1 502.5 402.9 508.7 396.7L553.4 352L272 352L272 401.6C308.5 409 336 441.3 336 480C336 524.2 300.2 560 256 560C211.8 560 176 524.2 176 480C176 441.3 203.5 409 240 401.6L240 352L48 352C39.2 352 32 344.8 32 336C32 327.2 39.2 320 48 320L112 320L112 238.4C75.5 231 48 198.7 48 160C48 115.8 83.8 80 128 80C172.2 80 208 115.8 208 160zM384 208C410.5 208 432 186.5 432 160C432 133.5 410.5 112 384 112C357.5 112 336 133.5 336 160C336 186.5 357.5 208 384 208zM304 480C304 453.5 282.5 432 256 432C229.5 432 208 453.5 208 480C208 506.5 229.5 528 256 528C282.5 528 304 506.5 304 480z"/></svg>