<svg xmlns="http://www.w3.org/2000/svg" viewBox="0 0 640 640"><!--! Font Awesome Pro 7.1.0 by @fontawesome - https://fontawesome.com License - https://fontawesome.com/license (Commercial License) Copyright 2025 Fonticons, Inc. --><path fill="currentColor" d="M320 64C311.2 64 304 71.2 304 80L304 176C304 184.8 311.2 192 320 192C328.8 192 336 184.8 336 176L336 96.6C452.2 104.8 544 201.7 544 320C544 443.7 443.7 544 320 544C196.3 544 96 443.7 96 320C96 258.1 121.1 202.2 161.6 161.6C167.8 155.4 167.8 145.2 161.6 139C155.4 132.8 145.2 132.7 139 139C92.7 185.3 64 249.3 64 320C64 461.4 178.6 576 320 576C461.4 576 576 461.4 576 320C576 178.6 461.4 64 320 64zM235.3 212.7C229.1 206.5 218.9 206.5 212.7 212.7C206.5 218.9 206.5 229.1 212.7 235.3L308.7 331.3C314.9 337.5 325.1 337.5 331.3 331.3C337.5 325.1 337.5 314.9 331.3 308.7L235.3 212.7z"/></svg>