<svg xmlns="http://www.w3.org/2000/svg" viewBox="0 0 640 640"><!--! Font Awesome Pro 7.1.0 by @fontawesome - https://fontawesome.com License - https://fontawesome.com/license (Commercial License) Copyright 2025 Fonticons, Inc. --><path fill="currentColor" d="M480 64C471.2 64 464 71.2 464 80L464 91.6C464 133.8 473.8 175.5 492.7 213.2L497.7 223.1C497.9 223.4 498 223.7 498.2 224C516.2 254.9 534.6 297.1 534 344.5C533.4 390 515.3 442.4 457.8 495.9L182.2 495.9C124.7 442.4 106.6 390 106 344.5C105.4 297.1 123.8 254.8 141.8 224C142 223.7 142.1 223.4 142.3 223.1L147.3 213.2C166.2 175.4 176 133.8 176 91.6L176 80C176 71.2 168.8 64 160 64C151.2 64 144 71.2 144 80L144 91.6C144 128.9 135.3 165.6 118.7 198.9L114 208.4C94.7 241.5 73.4 289.5 74.1 345C74.8 400 97.2 460.3 160.1 519.1C160.1 519.4 160.1 519.7 160.1 520L160.1 560C160.1 568.8 167.3 576 176.1 576C184.9 576 192.1 568.8 192.1 560L192.1 528L256.1 528L256.1 560C256.1 568.8 263.3 576 272.1 576C280.9 576 288.1 568.8 288.1 560L288.1 528L352.1 528L352.1 560C352.1 568.8 359.3 576 368.1 576C376.9 576 384.1 568.8 384.1 560L384.1 528L448.1 528L448.1 560C448.1 568.8 455.3 576 464.1 576C472.9 576 480.1 568.8 480.1 560L480.1 520C480.1 519.7 480.1 519.4 480.1 519.1C543 460.3 565.4 400 566.1 345C566.8 289.5 545.4 241.5 526.2 208.4L521.5 198.9C504.7 165.6 496 128.8 496 91.6L496 80C496 71.2 488.8 64 480 64zM320 176C311.2 176 304 183.2 304 192L304 320C304 328.8 311.2 336 320 336C328.8 336 336 328.8 336 320L336 192C336 183.2 328.8 176 320 176zM340 385.3C340 374.3 331 365.3 320 365.3C309 365.3 300 374.3 300 385.3C300 396.3 309 405.3 320 405.3C331 405.3 340 396.3 340 385.3z"/></svg>