<svg xmlns="http://www.w3.org/2000/svg" viewBox="0 0 640 640"><!--! Font Awesome Pro 7.1.0 by @fontawesome - https://fontawesome.com License - https://fontawesome.com/license (Commercial License) Copyright 2025 Fonticons, Inc. --><path fill="currentColor" d="M544 320C544 196.3 443.7 96 320 96C196.3 96 96 196.3 96 320C96 443.7 196.3 544 320 544C443.7 544 544 443.7 544 320zM64 320C64 178.6 178.6 64 320 64C461.4 64 576 178.6 576 320C576 461.4 461.4 576 320 576C178.6 576 64 461.4 64 320zM320 414C344.2 414 368.2 417.4 391.4 424C387.9 418.9 383.7 413.7 378.8 408.8C363.3 393.3 342.6 382 320.1 382C297.6 382 276.9 393.3 261.4 408.8C256.5 413.7 252.2 418.9 248.8 424C272 417.3 296 414 320.2 414zM320 350C353.5 350 381.8 366.7 401.3 386.2C411.1 396 419.1 407 424.7 417.7C430.2 428.1 434 439.5 434 450.1C434 455.3 431.5 460.2 427.2 463.2C422.9 466.2 417.5 466.9 412.6 465.2L396.1 459.3C371.7 450.4 346 446 320 446C294 446 268.2 450.5 243.8 459.2L227.3 465C222.4 466.8 217 466 212.7 463C208.4 460 205.9 455.1 205.9 449.9C205.9 439.3 209.7 428 215.2 417.5C220.8 406.8 228.8 395.9 238.6 386C258.1 366.5 286.5 349.8 319.9 349.8zM185.3 224.8C189.3 216.9 198.9 213.7 206.8 217.6L286.8 257.6C292.2 260.3 295.6 265.9 295.6 271.9C295.6 277.9 292.2 283.5 286.8 286.2L206.8 326.2C198.9 330.2 189.3 326.9 185.3 319C181.3 311.1 184.6 301.5 192.5 297.5L243.9 271.8L192.5 246.1C184.6 242.1 181.4 232.5 185.3 224.6zM447.5 246.3L396.1 272L447.5 297.7C455.4 301.7 458.6 311.3 454.7 319.2C450.8 327.1 441.1 330.3 433.2 326.4L353.2 286.4C347.8 283.7 344.4 278.1 344.4 272.1C344.4 266.1 347.8 260.5 353.2 257.8L433.2 217.8C441.1 213.8 450.7 217.1 454.7 225C458.7 232.9 455.4 242.5 447.5 246.5z"/></svg>