<svg xmlns="http://www.w3.org/2000/svg" viewBox="0 0 640 640"><!--! Font Awesome Pro 7.1.0 by @fontawesome - https://fontawesome.com License - https://fontawesome.com/license (Commercial License) Copyright 2025 Fonticons, Inc. --><path fill="currentColor" d="M544 320C544 196.3 443.7 96 320 96C196.3 96 96 196.3 96 320C96 443.7 196.3 544 320 544C443.7 544 544 443.7 544 320zM64 320C64 178.6 178.6 64 320 64C461.4 64 576 178.6 576 320C576 461.4 461.4 576 320 576C178.6 576 64 461.4 64 320zM383.9 324L445.7 344.1C447.2 336.3 448 328.2 448 319.9C448 283.1 432.5 250 407.7 226.6L369.5 279.2C378.6 290.2 384 304.4 384 319.8C384 321.2 384 322.5 383.9 323.8zM374 354.4C365.4 367.9 351.9 377.9 336 382L336 447C380.3 441.5 417.5 413.4 435.8 374.6L373.9 354.5zM304 447L304 382C288.2 377.9 274.7 367.9 266.1 354.5L204.2 374.6C222.5 413.4 259.7 441.5 304 447zM194.3 344.2L256.1 324C256 322.7 256 321.3 256 320C256 304.6 261.5 290.4 270.5 279.4C266.8 274.2 254 256.7 232.3 226.8C207.5 250.1 192 283.3 192 320.1C192 328.4 192.8 336.4 194.3 344.3zM296.4 260.5C303.7 257.6 311.7 256 320 256C328.3 256 336.3 257.6 343.6 260.5L381.8 207.9C363.5 197.8 342.4 192 320 192C297.6 192 276.5 197.8 258.2 207.9C280 237.9 292.7 255.4 296.4 260.5zM352 320C352 302.3 337.7 288 320 288C302.3 288 288 302.3 288 320C288 337.7 302.3 352 320 352C337.7 352 352 337.7 352 320zM320 160C408.4 160 480 231.6 480 320C480 408.4 408.4 480 320 480C231.6 480 160 408.4 160 320C160 231.6 231.6 160 320 160z"/></svg>