<svg xmlns="http://www.w3.org/2000/svg" viewBox="0 0 640 640"><!--! Font Awesome Pro 7.1.0 by @fontawesome - https://fontawesome.com License - https://fontawesome.com/license (Commercial License) Copyright 2025 Fonticons, Inc. --><path fill="currentColor" d="M277.9 110.5C278.7 102.3 285.6 96 293.8 96L346.2 96C354.4 96 361.3 102.3 362.1 110.5L362.4 113.6C363 120.2 367.6 125.7 374 127.5C389.5 131.8 404.2 138 417.9 145.7C423.7 148.9 430.8 148.3 435.9 144.1L438.3 142.1C444.7 136.9 454 137.3 459.8 143.1L496.9 180.2C502.7 186 503.2 195.3 497.9 201.7L495.9 204.1C491.7 209.2 491.1 216.4 494.3 222.1C502 235.8 508.2 250.5 512.5 266C514.3 272.4 519.8 277 526.4 277.6L529.5 277.9C537.7 278.7 544 285.6 544 293.8L544 346.2C544 354.4 537.7 361.3 529.5 362.1L526.4 362.4C519.8 363 514.3 367.6 512.5 374C508.2 389.5 502 404.2 494.3 417.9C491.1 423.7 491.7 430.8 495.9 435.9L497.9 438.3C503.1 444.7 502.7 454 496.9 459.8L459.8 496.9C454 502.7 444.7 503.2 438.3 497.9L435.9 495.9C430.8 491.7 423.6 491.1 417.9 494.3C404.2 502 389.5 508.2 374 512.5C367.6 514.3 363 519.8 362.4 526.4L362.1 529.5C361.3 537.7 354.4 544 346.2 544L293.8 544C285.6 544 278.7 537.7 277.9 529.5L277.6 526.4C277 519.8 272.4 514.3 266 512.5C250.5 508.2 235.8 502 222.1 494.3C216.3 491.1 209.2 491.7 204.1 495.9L201.7 497.9C195.3 503.1 186 502.7 180.2 496.9L143.1 459.9C137.3 454.1 136.8 444.8 142.1 438.4L144.1 436C148.3 430.9 148.9 423.7 145.7 418C138 404.3 131.8 389.6 127.5 374.1C125.7 367.7 120.2 363.1 113.6 362.5L110.5 362.2C102.3 361.4 96 354.5 96 346.3L96 293.9C96 285.7 102.3 278.8 110.5 278L113.6 277.7C120.2 277.1 125.7 272.5 127.5 266.1C131.8 250.6 138 235.9 145.7 222.2C148.9 216.4 148.3 209.3 144.1 204.2L142.1 201.8C136.9 195.4 137.3 186.1 143.1 180.3L180.2 143.2C186 137.4 195.3 136.9 201.7 142.2L204.1 144.2C209.2 148.4 216.4 149 222.1 145.8C235.8 138.1 250.5 131.9 266 127.6C272.4 125.8 277 120.3 277.6 113.7L277.9 110.6zM293.8 64C271.8 64 252.9 78.9 247.4 99.6C236.4 103.2 225.7 107.7 215.5 112.8C197 102.1 173.1 104.8 157.5 120.4L120.4 157.5C104.8 173.1 102.1 197 112.8 215.5C107.6 225.7 103.2 236.4 99.6 247.4C78.9 252.9 64 271.7 64 293.8L64 346.2C64 368.2 78.9 387.1 99.6 392.6C103.2 403.6 107.7 414.3 112.8 424.5C102.1 443 104.8 466.9 120.4 482.5L157.5 519.6C173.1 535.2 197 537.9 215.5 527.2C225.7 532.4 236.4 536.8 247.4 540.4C252.9 561.1 271.7 576 293.8 576L346.2 576C368.2 576 387.1 561.1 392.6 540.4C403.6 536.8 414.3 532.3 424.5 527.2C443 537.9 466.9 535.2 482.5 519.6L519.6 482.5C535.2 466.9 537.9 443.1 527.2 424.5C532.4 414.3 536.8 403.6 540.4 392.6C561.1 387.1 576 368.3 576 346.2L576 293.8C576 271.8 561.1 252.9 540.4 247.4C536.8 236.4 532.3 225.7 527.2 215.5C537.9 197 535.2 173.1 519.6 157.5L482.5 120.4C466.9 104.8 443.1 102.1 424.5 112.8C414.3 107.6 403.6 103.2 392.6 99.6C387.1 78.9 368.3 64 346.2 64L293.8 64zM432 320C432 381.9 381.9 432 320 432C258.1 432 208 381.9 208 320C208 258.1 258.1 208 320 208C381.9 208 432 258.1 432 320zM320 176C240.5 176 176 240.5 176 320C176 399.5 240.5 464 320 464C399.5 464 464 399.5 464 320C464 240.5 399.5 176 320 176zM320 232C306.7 232 296 242.7 296 256C296 269.3 306.7 280 320 280C333.3 280 344 269.3 344 256C344 242.7 333.3 232 320 232zM344 384C344 370.7 333.3 360 320 360C306.7 360 296 370.7 296 384C296 397.3 306.7 408 320 408C333.3 408 344 397.3 344 384zM256 296C242.7 296 232 306.7 232 320C232 333.3 242.7 344 256 344C269.3 344 280 333.3 280 320C280 306.7 269.3 296 256 296zM408 320C408 306.7 397.3 296 384 296C370.7 296 360 306.7 360 320C360 333.3 370.7 344 384 344C397.3 344 408 333.3 408 320z"/></svg>