<svg xmlns="http://www.w3.org/2000/svg" viewBox="0 0 640 640"><!--! Font Awesome Pro 7.1.0 by @fontawesome - https://fontawesome.com License - https://fontawesome.com/license (Commercial License) Copyright 2025 Fonticons, Inc. --><path fill="currentColor" d="M96 524.2C96 535.1 104.9 544 115.8 544L524.2 544C535.1 544 544 535.1 544 524.2C544 521.1 543.3 518.1 541.9 515.4L524.2 480C518.6 468.9 518.7 456.1 523.6 445.3C536.6 416.9 543.9 385.3 543.9 352C543.9 228.3 443.6 128 319.9 128C196.2 128 96 228.3 96 352C96 385.4 103.3 417 116.3 445.3C121.3 456.1 121.3 468.9 115.7 480L98 515.3L98 515.3C96.6 518 95.9 521.1 95.9 524.1zM576 352C576 390.1 567.7 426.2 552.8 458.7C551.8 460.9 551.8 463.5 552.9 465.7L570.6 501C574.2 508.2 576.1 516.1 576.1 524.2C576.1 552.8 552.9 576 524.3 576L115.8 576C87.2 576 64 552.8 64 524.2C64 516.2 65.9 508.2 69.5 501L87.2 465.7C88.3 463.5 88.3 460.9 87.3 458.7C72.4 426.2 64.1 390.1 64.1 352C64.1 210.6 178.7 96 320.1 96C461.5 96 576 210.6 576 352zM448 352C448 315.2 432.5 282.1 407.7 258.7L369.5 311.3C378.6 322.3 384 336.5 384 351.9C384 353.3 384 354.6 383.9 355.9L445.7 376C447.2 368.2 448 360.1 448 351.8zM373.9 386.4C365.3 399.9 351.8 409.9 335.9 414L335.9 479C380.2 473.5 417.4 445.4 435.7 406.6L373.8 386.5zM303.9 413.9C288.1 409.8 274.6 399.8 266 386.4L204.1 406.5C222.4 445.3 259.6 473.4 303.9 478.9L303.9 413.9zM192 352C192 360.3 192.8 368.3 194.3 376.2L256.1 356C256 354.7 256 353.3 256 352C256 336.6 261.5 322.4 270.5 311.4C266.8 306.2 254 288.7 232.3 258.8C207.5 282.1 192 315.3 192 352.1zM320 288C328.3 288 336.3 289.6 343.6 292.5L381.8 239.9C363.5 229.8 342.4 224 320 224C297.6 224 276.5 229.8 258.2 239.9C280 269.9 292.7 287.4 296.4 292.5C303.7 289.6 311.7 288 320 288zM160 352C160 263.6 231.6 192 320 192C408.4 192 480 263.6 480 352C480 440.4 408.4 512 320 512C231.6 512 160 440.4 160 352zM352 352C352 334.3 337.7 320 320 320C302.3 320 288 334.3 288 352C288 369.7 302.3 384 320 384C337.7 384 352 369.7 352 352z"/></svg>