<svg xmlns="http://www.w3.org/2000/svg" viewBox="0 0 640 640"><!--! Font Awesome Pro 7.1.0 by @fontawesome - https://fontawesome.com License - https://fontawesome.com/license (Commercial License) Copyright 2025 Fonticons, Inc. --><path fill="currentColor" d="M192 192C121.3 192 64 249.3 64 320C64 390.7 121.3 448 192 448L448 448C518.7 448 576 390.7 576 320C576 249.3 518.7 192 448 192L192 192zM32 320C32 231.6 103.6 160 192 160L448 160C536.4 160 608 231.6 608 320C608 408.4 536.4 480 448 480L192 480C103.6 480 32 408.4 32 320zM512 320C512 284.7 483.3 256 448 256C412.7 256 384 284.7 384 320C384 355.3 412.7 384 448 384C483.3 384 512 355.3 512 320zM352 320C352 267 395 224 448 224C501 224 544 267 544 320C544 373 501 416 448 416C395 416 352 373 352 320z"/></svg>