<svg xmlns="http://www.w3.org/2000/svg" viewBox="0 0 640 640"><!--! Font Awesome Pro 7.1.0 by @fontawesome - https://fontawesome.com License - https://fontawesome.com/license (Commercial License) Copyright 2025 Fonticons, Inc. --><path fill="currentColor" d="M448 192C518.7 192 576 249.3 576 320C576 390.7 518.7 448 448 448L192 448C121.3 448 64 390.7 64 320C64 249.3 121.3 192 192 192L448 192zM608 320C608 231.6 536.4 160 448 160L192 160C103.6 160 32 231.6 32 320C32 408.4 103.6 480 192 480L448 480C536.4 480 608 408.4 608 320zM256 320C256 355.3 227.3 384 192 384C156.7 384 128 355.3 128 320C128 284.7 156.7 256 192 256C227.3 256 256 284.7 256 320zM96 320C96 373 139 416 192 416C245 416 288 373 288 320C288 267 245 224 192 224C139 224 96 267 96 320z"/></svg>