<svg xmlns="http://www.w3.org/2000/svg" viewBox="0 0 640 640"><!--! Font Awesome Pro 7.1.0 by @fontawesome - https://fontawesome.com License - https://fontawesome.com/license (Commercial License) Copyright 2025 Fonticons, Inc. --><path fill="currentColor" d="M192 448C121.3 448 64 390.7 64 320C64 249.3 121.3 192 192 192C262.7 192 320 249.3 320 320C320 390.7 262.7 448 192 448zM192 480L448 480C536.4 480 608 408.4 608 320C608 231.6 536.4 160 448 160L192 160C103.6 160 32 231.6 32 320C32 408.4 103.6 480 192 480zM288 448C326.9 418.8 352 372.3 352 320C352 267.7 326.9 221.2 288 192L448 192C518.7 192 576 249.3 576 320C576 390.7 518.7 448 448 448L288 448z"/></svg>