<svg xmlns="http://www.w3.org/2000/svg" viewBox="0 0 640 640"><!--! Font Awesome Pro 7.1.0 by @fontawesome - https://fontawesome.com License - https://fontawesome.com/license (Commercial License) Copyright 2025 Fonticons, Inc. --><path fill="currentColor" d="M448 192C377.3 192 320 249.3 320 320C320 390.7 377.3 448 448 448C518.7 448 576 390.7 576 320C576 249.3 518.7 192 448 192zM448 480L192 480C103.6 480 32 408.4 32 320C32 231.6 103.6 160 192 160L448 160C536.4 160 608 231.6 608 320C608 408.4 536.4 480 448 480zM352 448C313.1 418.8 288 372.3 288 320C288 267.7 313.1 221.2 352 192L192 192C121.3 192 64 249.3 64 320C64 390.7 121.3 448 192 448L352 448z"/></svg>