<svg xmlns="http://www.w3.org/2000/svg" viewBox="0 0 640 640"><!--! Font Awesome Pro 7.1.0 by @fontawesome - https://fontawesome.com License - https://fontawesome.com/license (Commercial License) Copyright 2025 Fonticons, Inc. --><path fill="currentColor" d="M128 96L224 96C241.7 96 256 110.3 256 128L256 160L96 160L96 128C96 110.3 110.3 96 128 96zM64 160L64 560C64 568.8 71.2 576 80 576C88.8 576 96 568.8 96 560L96 544L256 544L256 560C256 568.8 263.2 576 272 576C280.8 576 288 568.8 288 560L288 128C288 92.7 259.3 64 224 64L128 64C92.7 64 64 92.7 64 128L64 160zM256 192L256 272L232 272C209.9 272 192 289.9 192 312L192 360C192 382.1 209.9 400 232 400L256 400L256 512L96 512L96 192L256 192zM256 304L256 368L232 368C227.6 368 224 364.4 224 360L224 312C224 307.6 227.6 304 232 304L256 304zM416 96L520 96C537.7 96 552 110.3 552 128L552 160L384 160L384 128C384 110.3 398.3 96 416 96zM384 512L384 192L552 192L552 272L528 272C505.9 272 488 289.9 488 312L488 360C488 382.1 505.9 400 528 400L552 400L552 512L384 512zM584 272L584 128C584 92.7 555.3 64 520 64L416 64C380.7 64 352 92.7 352 128L352 560C352 568.8 359.2 576 368 576C376.8 576 384 568.8 384 560L384 544L552 544L552 560C552 568.8 559.2 576 568 576C576.8 576 584 568.8 584 560L584 272zM552 304L552 368L528 368C523.6 368 520 364.4 520 360L520 312C520 307.6 523.6 304 528 304L552 304z"/></svg>