<svg xmlns="http://www.w3.org/2000/svg" viewBox="0 0 640 640"><!--! Font Awesome Pro 7.1.0 by @fontawesome - https://fontawesome.com License - https://fontawesome.com/license (Commercial License) Copyright 2025 Fonticons, Inc. --><path fill="currentColor" d="M59.3 36.8C53.1 30.6 42.9 30.6 36.7 36.8C30.5 43 30.5 53.2 36.7 59.4L580.7 603.4C586.9 609.6 597.1 609.6 603.3 603.4C609.5 597.2 609.5 587 603.3 580.8L495.3 472.8C516.1 462.8 533.3 443.4 546 420.2C564.9 385.6 576.1 338.8 576.1 288.1C576.1 237.4 564.9 190.6 546 156C527.4 121.9 499.1 96 464 96L176 96C160.1 96 145.6 101.3 132.8 110.3L59.3 36.8zM156 133.5C162.7 129.8 169.5 128 176 128L401.3 128C394.1 136.2 387.7 145.7 382.1 155.9C363.2 190.5 352 237.3 352 288L352 329.5L156 133.5zM397.2 374.7C388.9 349.8 384 320.2 384 288C384 241.5 394.3 200.3 410.2 171.2C426.4 141.5 446.1 128 464 128C481.9 128 501.6 141.5 517.8 171.2C533.7 200.3 544 241.5 544 288C544 334.5 533.7 375.7 517.8 404.8C503.4 431.2 486.2 444.8 470 447.5L397.2 374.7zM64 288L64 544C64 579.3 92.7 608 128 608L320 608C355.3 608 384 579.3 384 544L384 474.5L352 442.5L352 544C352 561.7 337.7 576 320 576L128 576C110.3 576 96 561.7 96 544L96 288C96 255.3 101.1 225.2 109.6 200.1L84.8 175.3C71.6 207.1 64 246.2 64 288zM464 336C477.3 336 488 314.5 488 288C488 261.5 477.3 240 464 240C450.7 240 440 261.5 440 288C440 314.5 450.7 336 464 336z"/></svg>