<svg xmlns="http://www.w3.org/2000/svg" viewBox="0 0 640 640"><!--! Font Awesome Pro 7.1.0 by @fontawesome - https://fontawesome.com License - https://fontawesome.com/license (Commercial License) Copyright 2025 Fonticons, Inc. --><path fill="currentColor" d="M96 288C96 241.5 106.3 200.3 122.2 171.2C138.4 141.5 158.1 128 176 128L401.3 128C394.1 136.2 387.7 145.7 382.1 155.9C363.2 190.5 352 237.3 352 288C352 338.7 363.2 385.5 382.1 420.1C387.7 430.3 394.1 439.7 401.3 448L176 448C158.1 448 138.4 434.5 122.2 404.8C106.3 375.7 96 334.5 96 288zM410.2 171.2C426.4 141.5 446.1 128 464 128C481.9 128 501.6 141.5 517.8 171.2C533.7 200.3 544 241.5 544 288C544 334.5 533.7 375.7 517.8 404.8C501.6 434.5 481.9 448 464 448C446.1 448 426.4 434.5 410.2 404.8C394.3 375.7 384 334.5 384 288C384 241.5 394.3 200.3 410.2 171.2zM544 423.6L544 544C544 561.7 529.7 576 512 576L256 576C238.3 576 224 561.7 224 544L224 480L464 480C497.9 480 525.4 455.9 544 423.6zM192 480L192 544C192 579.3 220.7 608 256 608L512 608C547.3 608 576 579.3 576 544L576 288C576 237.2 564.8 190.5 545.9 155.9C527.3 121.9 499.1 96 464 96L176 96C140.9 96 112.6 121.9 94.1 155.9C75.2 190.5 64 237.2 64 288C64 338.8 75.2 385.5 94.1 420.1C112.6 454.1 140.9 480 176 480L192 480zM488 288C488 261.5 477.3 240 464 240C450.7 240 440 261.5 440 288C440 314.5 450.7 336 464 336C477.3 336 488 314.5 488 288zM164.7 220.7C158.5 226.9 158.5 237.1 164.7 243.3L209.4 288L164.7 332.7C158.5 338.9 158.5 349.1 164.7 355.3C170.9 361.5 181.1 361.5 187.3 355.3L232 310.6L276.7 355.3C282.9 361.5 293.1 361.5 299.3 355.3C305.5 349.1 305.5 338.9 299.3 332.7L254.6 288L299.3 243.3C305.5 237.1 305.5 226.9 299.3 220.7C293.1 214.5 282.9 214.5 276.7 220.7L232 265.4L187.3 220.7C181.1 214.5 170.9 214.5 164.7 220.7z"/></svg>