<svg xmlns="http://www.w3.org/2000/svg" viewBox="0 0 640 640"><!--! Font Awesome Pro 7.1.0 by @fontawesome - https://fontawesome.com License - https://fontawesome.com/license (Commercial License) Copyright 2025 Fonticons, Inc. --><path fill="currentColor" d="M464 96C499.1 96 527.4 121.9 545.9 155.9C564.8 190.5 576 237.3 576 288C576 338.7 564.8 385.5 545.9 420.1C527.3 454.1 499.1 480 464 480C430.1 480 402.6 455.9 384 423.6L384 544C384 579.3 355.3 608 320 608L128 608C92.7 608 64 579.3 64 544L64 288C64 237.2 75.2 190.5 94.1 155.9C112.6 121.9 140.9 96 176 96L464 96zM176 128C158.1 128 138.3 141.5 122.2 171.2C106.3 200.3 96 241.6 96 288L96 544C96 561.7 110.3 576 128 576L320 576C337.7 576 352 561.7 352 544L352 288C352 237.2 363.2 190.5 382.1 155.9C387.7 145.7 394.1 136.3 401.3 128L176 128zM464 128C446.1 128 426.3 141.5 410.2 171.2C394.3 200.3 384 241.5 384 288C384 334.5 394.3 375.7 410.2 404.8C426.3 434.5 446.1 448 464 448C481.9 448 501.7 434.5 517.8 404.8C533.7 375.7 544 334.4 544 288C544 241.6 533.7 200.3 517.8 171.2C501.7 141.5 481.9 128 464 128zM291.1 202.2C296.3 195.1 306.3 193.5 313.4 198.7C320.5 203.9 322.1 213.9 316.9 221L211.3 366.2C208.5 370 204.2 372.4 199.5 372.7C194.8 373 190.2 371.3 186.9 367.9L132.5 311.6C126.4 305.2 126.5 295.1 132.9 289C139.3 282.9 149.4 283.1 155.5 289.4L196.7 332L291.1 202.2zM464 240C477.3 240 488 261.5 488 288C488 314.5 477.3 336 464 336C450.7 336 440 314.5 440 288C440 261.5 450.7 240 464 240z"/></svg>