<svg xmlns="http://www.w3.org/2000/svg" viewBox="0 0 640 640"><!--! Font Awesome Pro 7.1.0 by @fontawesome - https://fontawesome.com License - https://fontawesome.com/license (Commercial License) Copyright 2025 Fonticons, Inc. --><path fill="currentColor" d="M216 96C202.7 96 192 106.7 192 120L192 160L448 160L448 120C448 106.7 437.3 96 424 96L216 96zM192 512L448 512L448 400L424 400C401.9 400 384 382.1 384 360L384 312C384 289.9 401.9 272 424 272L448 272L448 192L192 192L192 512zM448 368L448 304L424 304C419.6 304 416 307.6 416 312L416 360C416 364.4 419.6 368 424 368L448 368zM480 400L480 560C480 568.8 472.8 576 464 576C455.2 576 448 568.8 448 560L448 544L192 544L192 560C192 568.8 184.8 576 176 576C167.2 576 160 568.8 160 560L160 120C160 89.1 185.1 64 216 64L424 64C454.9 64 480 89.1 480 120L480 400z"/></svg>