<svg xmlns="http://www.w3.org/2000/svg" viewBox="0 0 640 640"><!--! Font Awesome Pro 7.1.0 by @fontawesome - https://fontawesome.com License - https://fontawesome.com/license (Commercial License) Copyright 2025 Fonticons, Inc. --><path fill="currentColor" d="M96 80C96 71.2 103.2 64 112 64L528 64C536.8 64 544 71.2 544 80C544 88.8 536.8 96 528 96L512 96L512 274.6C514.1 275.8 516.2 277.1 518.1 278.4C532 287.8 544 301.4 544 320C544 389.8 508.2 438.1 463 468.5L478.2 519.5C479.4 523.6 480 527.8 480 532C480 556.3 460.3 575.9 436.1 575.9L204 575.9C179.7 575.9 160.1 556.2 160.1 532C160.1 527.8 160.7 523.5 161.9 519.5L177.1 468.5C131.8 438.1 96.1 389.8 96.1 320C96.1 301.5 108.1 287.8 122 278.4C123.9 277.1 126 275.8 128.1 274.6L128 96L112 96C103.2 96 96 88.8 96 80zM160 260.8C165 259.2 170.2 257.6 175.4 256.2C217 245.2 270.5 239.9 320 239.9C369.5 239.9 423 245.1 464.6 256.2C469.9 257.6 475 259.1 480 260.8L480 96L160 96L160 260.8zM136.3 369.7C147.6 401.3 169.5 425.1 196 442.6C235.4 468.7 284.3 479.9 320.1 479.9C355.9 479.9 404.7 468.6 444.2 442.6C470.7 425.1 492.6 401.3 503.9 369.7C492.4 375.3 479 379.9 464.7 383.7C423.1 394.7 369.6 400 320.1 400C270.6 400 217.1 394.8 175.5 383.7C161.2 379.9 147.9 375.3 136.3 369.7zM512 320C512 316.9 510.2 311.7 500.2 305C490.4 298.4 475.5 292.3 456.3 287.2C418.2 277.1 367.7 272 320 272C272.3 272 221.8 277.1 183.7 287.2C164.5 292.3 149.6 298.4 139.8 305C129.9 311.7 128 316.9 128 320C128 323.1 129.8 328.3 139.8 335C149.6 341.6 164.5 347.7 183.7 352.8C221.8 362.9 272.3 368 320 368C367.7 368 418.2 362.9 456.3 352.8C475.5 347.7 490.4 341.6 500.2 335C510.1 328.3 512 323.1 512 320zM208 128L240 128C248.8 128 256 135.2 256 144C256 152.8 248.8 160 240 160L208 160C199.2 160 192 152.8 192 144C192 135.2 199.2 128 208 128zM447.5 528.7L434.4 484.9C395.6 503.7 353.3 512 320 512C286.7 512 244.4 503.7 205.6 484.8L192.5 528.7C192.2 529.8 192 531 192 532.1C192 538.7 197.3 544 203.9 544L436 544C442.6 544 447.9 538.7 447.9 532.1C447.9 530.9 447.7 529.8 447.4 528.7z"/></svg>