<svg xmlns="http://www.w3.org/2000/svg" viewBox="0 0 640 640"><!--! Font Awesome Pro 7.1.0 by @fontawesome - https://fontawesome.com License - https://fontawesome.com/license (Commercial License) Copyright 2025 Fonticons, Inc. --><path fill="currentColor" d="M336 64C336 55.2 328.8 48 320 48C311.2 48 304 55.2 304 64L304 104.4C287 89.2 264.6 80 240 80L208 80C190.3 80 176 94.3 176 112C176 138.4 186.6 162.3 203.9 179.6C120.9 210.3 64 275.8 64 368C64 498.9 178.6 576 320 576C461.4 576 576 498.9 576 368C576 275.8 519.1 210.3 436.1 179.6C453.3 162.2 464 138.4 464 112C464 94.3 449.7 80 432 80L400 80C375.4 80 353 89.2 336 104.4L336 64zM304 176L272 176C236.7 176 208 147.3 208 112L240 112C275.3 112 304 140.7 304 176zM272 208L304 208C304 243.3 275.3 272 240 272L208 272C208 236.7 236.7 208 272 208zM336 208L368 208C403.3 208 432 236.7 432 272L400 272C364.7 272 336 243.3 336 208zM368 176L336 176C336 140.7 364.7 112 400 112L432 112C432 147.3 403.3 176 368 176zM448.6 219.8C460.6 225.8 471.6 232.6 481.5 240.3C520.3 270.2 544 313 544 368C544 423 520.4 465.8 481.5 495.7C441.9 526.2 385.2 544 320 544C254.8 544 198.1 526.2 158.5 495.7C119.6 465.8 96 423 96 368C96 313 119.6 270.2 158.5 240.3C168.4 232.7 179.5 225.8 191.4 219.8C181.7 234.8 176 252.7 176 272C176 289.7 190.3 304 208 304L240 304C273.4 304 302.8 287 320 261.1C337.2 287 366.6 304 400 304L432 304C449.7 304 464 289.7 464 272C464 252.8 458.3 234.8 448.6 219.8z"/></svg>