<svg xmlns="http://www.w3.org/2000/svg" viewBox="0 0 640 640"><!--! Font Awesome Pro 7.1.0 by @fontawesome - https://fontawesome.com License - https://fontawesome.com/license (Commercial License) Copyright 2025 Fonticons, Inc. --><path fill="currentColor" d="M480 544L160 544L160 256C160 167.6 231.6 96 320 96C408.4 96 480 167.6 480 256L480 544zM128 256L128 544L112 544C103.2 544 96 551.2 96 560C96 568.8 103.2 576 112 576L528 576C536.8 576 544 568.8 544 560C544 551.2 536.8 544 528 544L512 544L512 256C512 150 426 64 320 64C214 64 128 150 128 256zM336 208C336 199.2 328.8 192 320 192C311.2 192 304 199.2 304 208L304 272L240 272C231.2 272 224 279.2 224 288C224 296.8 231.2 304 240 304L304 304L304 432C304 440.8 311.2 448 320 448C328.8 448 336 440.8 336 432L336 304L400 304C408.8 304 416 296.8 416 288C416 279.2 408.8 272 400 272L336 272L336 208z"/></svg>