<svg xmlns="http://www.w3.org/2000/svg" viewBox="0 0 640 640"><!--! Font Awesome Pro 7.1.0 by @fontawesome - https://fontawesome.com License - https://fontawesome.com/license (Commercial License) Copyright 2025 Fonticons, Inc. --><path fill="currentColor" d="M480 256C480 167.6 408.4 96 320 96C231.6 96 160 167.6 160 256L160 544L480 544L480 256zM128 544L128 256C128 150 214 64 320 64C426 64 512 150 512 256L512 544L528 544C536.8 544 544 551.2 544 560C544 568.8 536.8 576 528 576L112 576C103.2 576 96 568.8 96 560C96 551.2 103.2 544 112 544L128 544z"/></svg>