<svg xmlns="http://www.w3.org/2000/svg" viewBox="0 0 640 640"><!--! Font Awesome Pro 7.1.0 by @fontawesome - https://fontawesome.com License - https://fontawesome.com/license (Commercial License) Copyright 2025 Fonticons, Inc. --><path fill="currentColor" d="M240 96L400 96C408.8 96 416 103.2 416 112L416 160L224 160L224 112C224 103.2 231.2 96 240 96zM192 112L192 160L163.9 160C151.2 160 139 165.1 130 174.1L78.1 225.9C69.1 234.9 64 247.1 64 259.8L64 480C64 515.3 92.7 544 128 544L512 544C547.3 544 576 515.3 576 480L576 259.9C576 247.2 570.9 235 561.9 226L510 174.1C501 165.1 488.8 160 476.1 160L448 160L448 112C448 85.5 426.5 64 400 64L240 64C213.5 64 192 85.5 192 112zM208 192L476.1 192C480.3 192 484.4 193.7 487.4 196.7L539.3 248.6C542.3 251.6 544 255.7 544 259.9L544 352L432 352L432 320C432 311.2 424.8 304 416 304C407.2 304 400 311.2 400 320L400 352L240 352L240 320C240 311.2 232.8 304 224 304C215.2 304 208 311.2 208 320L208 352L96 352L96 259.9C96 255.7 97.7 251.6 100.7 248.6L152.6 196.7C155.6 193.7 159.7 192 163.9 192L208 192zM96 384L208 384L208 416C208 424.8 215.2 432 224 432C232.8 432 240 424.8 240 416L240 384L400 384L400 416C400 424.8 407.2 432 416 432C424.8 432 432 424.8 432 416L432 384L544 384L544 480C544 497.7 529.7 512 512 512L128 512C110.3 512 96 497.7 96 480L96 384z"/></svg>