<svg xmlns="http://www.w3.org/2000/svg" viewBox="0 0 640 640"><!--! Font Awesome Pro 7.1.0 by @fontawesome - https://fontawesome.com License - https://fontawesome.com/license (Commercial License) Copyright 2025 Fonticons, Inc. --><path fill="currentColor" d="M96 183.6C96 117.5 149.5 64 215.6 64C234.1 64 252.4 68.3 269 76.6L320 102.1L371 76.6C387.6 68.3 405.9 64 424.4 64C490.5 64 544 117.5 544 183.6L544 253.4C544 278.9 537.2 303.9 524.4 326L500.2 367.5C491.9 381.7 486.9 397.5 485.4 413.8L475.4 523.7C472.7 553.3 447.9 576 418.1 576C390.7 576 367.1 556.6 361.7 529.7L333 386.7C331.8 380.5 326.3 376 320 376C313.7 376 308.2 380.5 307 386.7L278.4 529.7C273 556.6 249.4 576 222 576C192.2 576 167.4 553.3 164.7 523.7L154.7 413.8C153.2 397.5 148.2 381.7 139.9 367.5L115.6 326C102.8 303.9 96 278.9 96 253.4L96 183.6zM215.6 96C167.2 96 128 135.2 128 183.6L128 253.4C128 273.2 133.3 292.7 143.3 309.8L167.5 351.3C178.1 369.5 184.6 389.8 186.5 410.8L196.5 520.7C197.7 533.9 208.7 543.9 221.9 543.9C234.1 543.9 244.6 535.3 246.9 523.4L275.5 380.3C279.7 359.1 298.3 343.9 319.9 343.9C341.5 343.9 360.1 359.1 364.3 380.3L393 523.5C395.4 535.4 405.9 544 418 544C431.2 544 442.2 533.9 443.4 520.8L453.4 410.9C455.3 389.9 461.8 369.6 472.4 351.4L496.6 309.9C506.6 292.8 511.9 273.3 511.9 253.5L511.9 183.7C511.9 135.3 472.7 96.1 424.3 96.1C410.7 96.1 397.3 99.3 385.1 105.3L327.2 134.3C322.7 136.6 317.4 136.6 312.9 134.3L254.7 105.2C242.5 99.1 229.1 96 215.5 96z"/></svg>