<svg xmlns="http://www.w3.org/2000/svg" viewBox="0 0 640 640"><!--! Font Awesome Pro 7.1.0 by @fontawesome - https://fontawesome.com License - https://fontawesome.com/license (Commercial License) Copyright 2025 Fonticons, Inc. --><path fill="currentColor" d="M96 256C78.3 256 64 241.7 64 224C64 206.3 78.3 192 96 192L320 192C344.8 192 365.1 182.1 377.7 163.1C384.3 153 387.8 141.9 389.6 131.5C404.4 135.1 417.5 141.2 427.5 149.3C440.3 159.7 448 173.4 448 192C448 227.3 419.3 256 384 256L96 256zM32 224C32 259.3 60.7 288 96 288L384 288C437 288 480 245 480 192C480 133.5 428.4 102.1 376 96.8C367.2 95.9 360.2 103.2 359.6 112C358.1 137.3 351.2 160 320 160L96 160C60.7 160 32 188.7 32 224zM96 336C96 327.2 88.8 320 80 320C71.2 320 64 327.2 64 336L64 512L48 512C39.2 512 32 519.2 32 528C32 536.8 39.2 544 48 544L592 544C600.8 544 608 536.8 608 528C608 519.2 600.8 512 592 512L416 512L416 336C416 327.2 408.8 320 400 320C391.2 320 384 327.2 384 336L384 512L352 512L352 336C352 327.2 344.8 320 336 320C327.2 320 320 327.2 320 336L320 512L288 512L288 336C288 327.2 280.8 320 272 320C263.2 320 256 327.2 256 336L256 512L224 512L224 336C224 327.2 216.8 320 208 320C199.2 320 192 327.2 192 336L192 512L160 512L160 336C160 327.2 152.8 320 144 320C135.2 320 128 327.2 128 336L128 512L96 512L96 336z"/></svg>