<svg xmlns="http://www.w3.org/2000/svg" viewBox="0 0 640 640"><!--! Font Awesome Pro 7.1.0 by @fontawesome - https://fontawesome.com License - https://fontawesome.com/license (Commercial License) Copyright 2025 Fonticons, Inc. --><path fill="currentColor" d="M128 144L128 496C128 513.7 113.7 528 96 528C78.3 528 64 513.7 64 496L64 144C64 126.3 78.3 112 96 112C113.7 112 128 126.3 128 144zM96 560C119.7 560 140.4 547.1 151.4 528L488.5 528C499.6 547.1 520.2 560 543.9 560C579.2 560 607.9 531.3 607.9 496L607.9 144C607.9 108.7 579.2 80 543.9 80C520.2 80 499.5 92.9 488.5 112L151.4 112C140.4 92.9 119.7 80 96 80C60.7 80 32 108.7 32 144L32 496C32 531.3 60.7 560 96 560zM480 144L480 496L160 496L160 144L480 144zM512 496L512 144C512 126.3 526.3 112 544 112C561.7 112 576 126.3 576 144L576 496C576 513.7 561.7 528 544 528C526.3 528 512 513.7 512 496zM333.5 207.5C330.6 202.9 325.5 200 320 200C314.5 200 309.4 202.8 306.5 207.5L275.8 256L224 256C218.2 256 212.8 259.2 210 264.3C207.2 269.4 207.4 275.6 210.5 280.6L235.4 320.1L210.5 359.6C207.4 364.5 207.2 370.8 210 375.9C212.8 381 218.2 384.2 224 384.2L275.8 384.2L306.5 432.7C309.4 437.3 314.5 440.2 320 440.2C325.5 440.2 330.6 437.4 333.5 432.7L364.2 384.2L416 384.2C421.8 384.2 427.2 381 430 375.9C432.8 370.8 432.6 364.6 429.5 359.6L404.6 320.1L429.5 280.6C432.6 275.7 432.8 269.4 430 264.3C427.2 259.2 421.8 256 416 256L364.2 256L333.5 207.5zM298.1 280.6L320 246L341.8 280.5C344.7 285.1 349.8 288 355.3 288L386.9 288L372.1 311.5C368.8 316.7 368.8 323.4 372.1 328.6L386.9 352.1L355.3 352.1C349.8 352.1 344.7 354.9 341.8 359.6L320 394L298.2 359.5C295.3 354.9 290.2 352 284.7 352L253.1 352L267.9 328.5C271.2 323.3 271.2 316.6 267.9 311.4L253 288L284.6 288C290.1 288 295.2 285.2 298.1 280.5z"/></svg>