<svg xmlns="http://www.w3.org/2000/svg" viewBox="0 0 640 640"><!--! Font Awesome Pro 7.1.0 by @fontawesome - https://fontawesome.com License - https://fontawesome.com/license (Commercial License) Copyright 2025 Fonticons, Inc. --><path fill="currentColor" d="M120.2 82.3C115.3 79.3 109.1 79.3 104.1 82.1C99.1 84.9 96 90.2 96 96L96 176C96 214.7 123.5 247 160 254.4L160 320L128 320C119.2 320 112 327.2 112 336C112 344.8 119.2 352 128 352L160 352L160 560C160 568.8 167.2 576 176 576C184.8 576 192 568.8 192 560L192 352L448 352L448 560C448 568.8 455.2 576 464 576C472.8 576 480 568.8 480 560L480 352L512 352C520.8 352 528 344.8 528 336C528 327.2 520.8 320 512 320L480 320L480 254.4C516.5 247 544 214.7 544 176L544 96C544 90.2 540.9 84.9 535.9 82.1C530.9 79.3 524.7 79.3 519.8 82.3L455 121.2C447.5 125.7 439 128 430.3 128L209.7 128C201 128 192.5 125.6 185 121.2L120.2 82.3zM448 256L448 320L336 320L336 256L448 256zM304 256L304 320L192 320L192 256L304 256zM128 176L128 124.3L168.6 148.6C181 156.1 195.2 160 209.7 160L430.2 160C444.7 160 458.9 156.1 471.4 148.6L512 124.3L512 176C512 202.5 490.5 224 464 224L176 224C149.5 224 128 202.5 128 176z"/></svg>