<svg xmlns="http://www.w3.org/2000/svg" viewBox="0 0 640 640"><!--! Font Awesome Pro 7.1.0 by @fontawesome - https://fontawesome.com License - https://fontawesome.com/license (Commercial License) Copyright 2025 Fonticons, Inc. --><path fill="currentColor" d="M72.9 73.1C64.7 69.9 55.4 74 52.3 82.3C39.2 116.2 32 153.2 32 192C32 230.8 39.2 267.8 52.3 301.8C55.5 310 64.7 314.2 73 311C81.3 307.8 85.4 298.6 82.2 290.3C70.4 260 64 226.8 64 192C64 157.2 70.4 124.1 82.1 93.8C85.3 85.6 81.2 76.3 72.9 73.1zM567 73.1C558.8 76.3 554.6 85.5 557.8 93.8C569.5 124.1 575.9 157.3 575.9 192C575.9 226.7 569.5 259.9 557.8 290.2C554.6 298.4 558.7 307.7 567 310.9C575.3 314.1 584.5 310 587.7 301.7C600.8 267.8 608 230.7 608 191.9C608 153.1 600.8 116.1 587.7 82.1C584.5 73.9 575.3 69.7 567 72.9zM320 160C337.7 160 352 174.3 352 192C352 209.7 337.7 224 320 224C302.3 224 288 209.7 288 192C288 174.3 302.3 160 320 160zM367.3 235.1C377.7 223.7 384 208.6 384 192C384 156.7 355.3 128 320 128C284.7 128 256 156.7 256 192C256 208.6 262.3 223.7 272.7 235.1L129.4 553.4C125.8 561.5 129.4 570.9 137.4 574.6C145.4 578.3 154.9 574.6 158.6 566.6L197.6 480L442.5 480L481.5 566.6C485.1 574.7 494.6 578.3 502.7 574.6C510.8 570.9 514.4 561.5 510.7 553.4L367.3 235.1zM428.1 448L212 448L240.8 384L399.3 384L428.1 448zM340.2 252.8L384.9 352L255.2 352L299.9 252.8C306.2 254.9 313 256.1 320.1 256.1C327.2 256.1 333.9 255 340.3 252.8zM172 134.4C175.5 126.3 171.8 116.9 163.7 113.3C155.6 109.7 146.2 113.5 142.6 121.6C133.2 143.2 128 167 128 192C128 217 133.2 240.8 142.7 262.4C146.2 270.5 155.7 274.2 163.8 270.7C171.9 267.2 175.6 257.7 172.1 249.6C164.4 232 160.1 212.5 160.1 192C160.1 171.5 164.4 152 172.1 134.4zM497.3 121.6C493.8 113.5 484.3 109.8 476.2 113.3C468.1 116.8 464.4 126.3 467.9 134.4C475.6 152 479.9 171.5 479.9 192C479.9 212.5 475.6 232 467.9 249.6C464.4 257.7 468.1 267.1 476.2 270.7C484.3 274.3 493.7 270.5 497.3 262.4C506.8 240.8 512 217 512 192C512 167 506.8 143.2 497.3 121.6z"/></svg>