<svg xmlns="http://www.w3.org/2000/svg" viewBox="0 0 640 640"><!--! Font Awesome Pro 7.1.0 by @fontawesome - https://fontawesome.com License - https://fontawesome.com/license (Commercial License) Copyright 2025 Fonticons, Inc. --><path fill="currentColor" d="M240 80C240 71.2 247.2 64 256 64L384 64C392.8 64 400 71.2 400 80C400 88.8 392.8 96 384 96L336 96L336 160L528 160C533 160 537.8 162.4 540.8 166.4C543.8 170.4 544.8 175.6 543.4 180.4L485.2 384L496 384C504.8 384 512 391.2 512 400C512 408.8 504.8 416 496 416L480 416L480 576L448 576L448 416L192 416L192 576L160 576L160 416L144 416C135.2 416 128 408.8 128 400C128 391.2 135.2 384 144 384L154.8 384L96.6 180.4C95.2 175.6 96.2 170.4 99.2 166.4C102.2 162.4 107 160 112 160L304 160L304 96L256 96C247.2 96 240 88.8 240 80zM451.9 384L506.8 192L416 192L416 384L451.9 384zM384 384L384 192L256 192L256 384L384 384zM224 384L224 192L133.2 192L188.1 384L224 384z"/></svg>