<svg xmlns="http://www.w3.org/2000/svg" viewBox="0 0 640 640"><!--! Font Awesome Pro 7.1.0 by @fontawesome - https://fontawesome.com License - https://fontawesome.com/license (Commercial License) Copyright 2025 Fonticons, Inc. --><path fill="currentColor" d="M312.8 65.7C317.3 63.4 322.6 63.4 327.1 65.7L503.1 153.7C511 157.7 514.2 167.3 510.3 175.2C506.4 183.1 496.7 186.3 488.8 182.4L480 178L480 256.1C480 282.6 458.5 304.1 432 304.1L424.2 304.1L463.8 541.5C463.9 542.4 464 543.3 464 544.1L528 544.1C536.8 544.1 544 551.3 544 560.1C544 568.9 536.8 576.1 528 576.1L112 576C103.2 576 96 568.8 96 560C96 551.2 103.2 544 112 544L176 544C176 543.1 176.1 542.3 176.2 541.4L215.8 304L208 304C181.5 304 160 282.5 160 256L160 177.9L151.2 182.3C143.3 186.3 133.7 183 129.7 175.1C125.7 167.2 129 157.6 136.9 153.6L312.9 65.6zM320 97.9L192 161.9L192 192L448 192L448 161.9L320 97.9zM192 224L192 256C192 264.8 199.2 272 208 272L432 272C440.8 272 448 264.8 448 256L448 224L192 224zM423.4 544L320 455.4L216.6 544L423.4 544zM248 304C248 304.9 247.9 305.7 247.8 306.6L241.3 345.7L320 413.2L398.7 345.7L392.2 306.6C392.1 305.7 392 304.8 392 304L248 304zM235.1 382.6L215 503.2L295.4 434.3L235.1 382.6zM344.6 434.3L425 503.2L404.9 382.6L344.6 434.3z"/></svg>