<svg xmlns="http://www.w3.org/2000/svg" viewBox="0 0 640 640"><!--! Font Awesome Pro 7.1.0 by @fontawesome - https://fontawesome.com License - https://fontawesome.com/license (Commercial License) Copyright 2025 Fonticons, Inc. --><path fill="currentColor" d="M160 128L267.8 128C279 128 289.5 133.9 295.2 143.5L362.7 256L160 256L160 128zM128 256L128 269.3C71.5 294 32 350.4 32 416C32 504.4 103.6 576 192 576C269.4 576 334 521 348.8 448L433.6 448C427.5 460 424 473.6 424 488C424 536.6 463.4 576 512 576C560.6 576 600 536.6 600 488C600 455.3 582.2 426.8 555.7 411.6L590.7 382.4C601.6 373.3 608 359.8 608 345.5L608 304C608 277.5 586.5 256 560 256L512 256L512 176C512 167.2 504.8 160 496 160C487.2 160 480 167.2 480 176L480 256L400 256L322.6 127.1C311.1 107.8 290.2 96 267.8 96L160 96C142.3 96 128 110.3 128 128L128 256zM519.3 400.3C516.9 400.1 514.5 400 512 400C493.2 400 475.7 405.9 461.4 416L352 416C352 363.7 326.9 317.2 288 288L560 288C568.8 288 576 295.2 576 304L576 345.5C576 350.2 573.9 354.8 570.2 357.8L519.2 400.3zM176 536L176 543C152.6 540.1 131.2 530.9 113.5 517.1L118.5 512.1C124.7 505.9 124.7 495.7 118.5 489.5C112.3 483.3 102.1 483.3 95.9 489.5L90.9 494.5C77.1 476.8 67.9 455.4 65 432L72 432C80.8 432 88 424.8 88 416C88 407.2 80.8 400 72 400L65 400C67.9 376.6 77.1 355.2 90.9 337.5L95.9 342.5C102.1 348.7 112.3 348.7 118.5 342.5C124.7 336.3 124.7 326.1 118.5 319.9L113.5 314.9C131.2 301.1 152.6 291.9 176 289L176 296C176 304.8 183.2 312 192 312C200.8 312 208 304.8 208 296L208 289C231.4 291.9 252.8 301.1 270.5 314.9L265.5 319.9C259.3 326.1 259.3 336.3 265.5 342.5C271.7 348.7 281.9 348.7 288.1 342.5L293.1 337.5C306.9 355.2 316.1 376.6 319 400L312 400C303.2 400 296 407.2 296 416C296 424.8 303.2 432 312 432L319 432C316.1 455.4 306.9 476.8 293.1 494.5L288.1 489.5C281.9 483.3 271.7 483.3 265.5 489.5C259.3 495.7 259.3 505.9 265.5 512.1L270.5 517.1C252.8 530.9 231.4 540.1 208 543L208 536C208 527.2 200.8 520 192 520C183.2 520 176 527.2 176 536zM192 488C231.8 488 264 455.8 264 416C264 376.2 231.8 344 192 344C152.2 344 120 376.2 120 416C120 455.8 152.2 488 192 488zM152 416C152 393.9 169.9 376 192 376C214.1 376 232 393.9 232 416C232 438.1 214.1 456 192 456C169.9 456 152 438.1 152 416zM456 488C456 457.1 481.1 432 512 432C542.9 432 568 457.1 568 488C568 518.9 542.9 544 512 544C481.1 544 456 518.9 456 488z"/></svg>