<svg xmlns="http://www.w3.org/2000/svg" viewBox="0 0 640 640"><!--! Font Awesome Pro 7.1.0 by @fontawesome - https://fontawesome.com License - https://fontawesome.com/license (Commercial License) Copyright 2025 Fonticons, Inc. --><path fill="currentColor" d="M0 176C0 184.8 7.2 192 16 192L112 192L112 464C112 472.8 119.2 480 128 480C136.8 480 144 472.8 144 464L144 192L240 192C248.8 192 256 184.8 256 176C256 167.2 248.8 160 240 160L16 160C7.2 160 0 167.2 0 176zM317.5 167.3C313.7 161.3 306.3 158.6 299.5 160.6C292.7 162.6 288 168.9 288 176L288 464C288 472.8 295.2 480 304 480C312.8 480 320 472.8 320 464L320 230.5L434.5 408.7C437.4 413.3 442.5 416 448 416C453.5 416 458.5 413.2 461.5 408.7L576 230.5L576 464C576 472.8 583.2 480 592 480C600.8 480 608 472.8 608 464L608 176C608 168.9 603.3 162.6 596.5 160.6C589.7 158.6 582.4 161.3 578.5 167.3L448 370.4L317.5 167.3z"/></svg>