<svg xmlns="http://www.w3.org/2000/svg" viewBox="0 0 640 640"><!--! Font Awesome Pro 7.1.0 by @fontawesome - https://fontawesome.com License - https://fontawesome.com/license (Commercial License) Copyright 2025 Fonticons, Inc. --><path fill="currentColor" d="M224 64C206.3 64 192 78.3 192 96L192 448C192 518.7 249.3 576 320 576C390.7 576 448 518.7 448 448L448 96C448 78.3 433.7 64 416 64L224 64zM160 96C160 60.7 188.7 32 224 32L416 32C451.3 32 480 60.7 480 96L480 448C480 536.4 408.4 608 320 608C231.6 608 160 536.4 160 448L160 96zM320 408C350.9 408 376 433.1 376 464C376 494.9 350.9 520 320 520C289.1 520 264 494.9 264 464C264 433.1 289.1 408 320 408zM320 296C306.7 296 296 306.7 296 320C296 333.3 306.7 344 320 344C333.3 344 344 333.3 344 320C344 306.7 333.3 296 320 296zM320 376C289.1 376 264 350.9 264 320C264 289.1 289.1 264 320 264C350.9 264 376 289.1 376 320C376 350.9 350.9 376 320 376zM296 176C296 189.3 306.7 200 320 200C333.3 200 344 189.3 344 176C344 162.7 333.3 152 320 152C306.7 152 296 162.7 296 176zM376 176C376 206.9 350.9 232 320 232C289.1 232 264 206.9 264 176C264 145.1 289.1 120 320 120C350.9 120 376 145.1 376 176z"/></svg>