<svg xmlns="http://www.w3.org/2000/svg" viewBox="0 0 640 640"><!--! Font Awesome Pro 7.1.0 by @fontawesome - https://fontawesome.com License - https://fontawesome.com/license (Commercial License) Copyright 2025 Fonticons, Inc. --><path fill="currentColor" d="M96 320C96 196.3 196.3 96 320 96C443.7 96 544 196.3 544 320L544 560C544 568.8 551.2 576 560 576C568.8 576 576 568.8 576 560L576 320C576 178.6 461.4 64 320 64C178.6 64 64 178.6 64 320L64 560C64 568.8 71.2 576 80 576C88.8 576 96 568.8 96 560L96 320zM432 272L432 320L208 320L208 272C208 245.5 229.5 224 256 224L384 224C410.5 224 432 245.5 432 272zM208 432L208 352L432 352L432 432C432 458.5 410.5 480 384 480L256 480C229.5 480 208 458.5 208 432zM224 505.4L180.7 548.7C174.5 554.9 174.5 565.1 180.7 571.3C186.9 577.5 197.1 577.5 203.3 571.3L262.6 512L377.3 512L436.6 571.3C442.8 577.5 453 577.5 459.2 571.3C465.4 565.1 465.4 554.9 459.2 548.7L416 505.4C444.3 493.1 464 464.9 464 432L464 272C464 227.8 428.2 192 384 192L256 192C211.8 192 176 227.8 176 272L176 432C176 464.8 195.8 493 224 505.4zM344 416C344 402.7 333.3 392 320 392C306.7 392 296 402.7 296 416C296 429.3 306.7 440 320 440C333.3 440 344 429.3 344 416z"/></svg>