<svg xmlns="http://www.w3.org/2000/svg" viewBox="0 0 640 640"><!--! Font Awesome Pro 7.1.0 by @fontawesome - https://fontawesome.com License - https://fontawesome.com/license (Commercial License) Copyright 2025 Fonticons, Inc. --><path fill="currentColor" d="M416 96C451.3 96 480 124.7 480 160L480 288L160 288L160 160C160 124.7 188.7 96 224 96L416 96zM160 416L160 320L480 320L480 416C480 451.3 451.3 480 416 480L224 480C188.7 480 160 451.3 160 416zM512 416L512 160C512 107 469 64 416 64L224 64C171 64 128 107 128 160L128 416C128 458.5 155.6 494.5 193.9 507.2L131.7 581.8C126 588.6 127 598.7 133.7 604.3C140.4 609.9 150.6 609 156.2 602.3L231.4 512.1L408.4 512.1L483.6 602.3C489.3 609.1 499.3 610 506.1 604.3C512.9 598.6 513.8 588.6 508.1 581.8L445.9 507.2C484.4 494.5 512 458.5 512 416zM320 424C333.3 424 344 413.3 344 400C344 386.7 333.3 376 320 376C306.7 376 296 386.7 296 400C296 413.3 306.7 424 320 424z"/></svg>