<svg xmlns="http://www.w3.org/2000/svg" viewBox="0 0 640 640"><!--! Font Awesome Pro 7.1.0 by @fontawesome - https://fontawesome.com License - https://fontawesome.com/license (Commercial License) Copyright 2025 Fonticons, Inc. --><path fill="currentColor" d="M128 64C128 55.2 135.2 48 144 48L496 48C504.8 48 512 55.2 512 64L512 112C512 120.8 504.8 128 496 128C487.2 128 480 120.8 480 112L480 80L336 80L336 160L384 160C437 160 480 203 480 256L480 416C480 449.5 462.9 478.9 436.9 496.1L508.3 581.7C514 588.5 513 598.6 506.3 604.2C499.6 609.8 489.4 608.9 483.8 602.2L406.4 509.3C399.2 511 391.8 511.9 384.1 511.9L256.1 511.9C248.4 511.9 240.9 511 233.8 509.3L156.3 602.2C150.6 609 140.6 609.9 133.8 604.2C127 598.5 126.1 588.5 131.8 581.7L203.2 496.1C177.1 478.9 160 449.5 160 416L160 256C160 203 203 160 256 160L304 160L304 80L160 80L160 112C160 120.8 152.8 128 144 128C135.2 128 128 120.8 128 112L128 64zM384 192L256 192C220.7 192 192 220.7 192 256L192 320L448 320L448 256C448 220.7 419.3 192 384 192zM448 352L192 352L192 416C192 451.3 220.7 480 256 480L384 480C419.3 480 448 451.3 448 416L448 352zM232 416C232 402.7 242.7 392 256 392C269.3 392 280 402.7 280 416C280 429.3 269.3 440 256 440C242.7 440 232 429.3 232 416zM384 392C397.3 392 408 402.7 408 416C408 429.3 397.3 440 384 440C370.7 440 360 429.3 360 416C360 402.7 370.7 392 384 392z"/></svg>