<svg xmlns="http://www.w3.org/2000/svg" viewBox="0 0 640 640"><!--! Font Awesome Pro 7.1.0 by @fontawesome - https://fontawesome.com License - https://fontawesome.com/license (Commercial License) Copyright 2025 Fonticons, Inc. --><path fill="currentColor" d="M231.9 96.5C240.5 98.6 245.7 107.3 243.5 115.9L228.5 176L411.5 176L396.5 115.9C394.4 107.3 399.6 98.6 408.1 96.5C416.6 94.4 425.4 99.6 427.5 108.1L444.5 176L496 176C504.8 176 512 183.2 512 192C512 200.8 504.8 208 496 208L452.5 208L476.5 304L528 304C536.8 304 544 311.2 544 320C544 328.8 536.8 336 528 336L484.5 336L508.5 432L560 432C568.8 432 576 439.2 576 448C576 456.8 568.8 464 560 464L516.5 464L531.5 524.1C533.6 532.7 528.4 541.4 519.9 543.5C511.4 545.6 502.6 540.4 500.5 531.9L483.5 464L156.5 464L139.5 531.9C137.4 540.5 128.7 545.7 120.1 543.5C111.5 541.3 106.3 532.7 108.5 524.1L123.5 464L80 464C71.2 464 64 456.8 64 448C64 439.2 71.2 432 80 432L131.5 432L155.5 336L112 336C103.2 336 96 328.8 96 320C96 311.2 103.2 304 112 304L163.5 304L187.5 208L144 208C135.2 208 128 200.8 128 192C128 183.2 135.2 176 144 176L195.5 176L212.5 108.1C214.6 99.5 223.3 94.3 231.9 96.5zM220.5 208L196.5 304L443.5 304L419.5 208L220.5 208zM451.5 336L188.5 336L164.5 432L475.5 432L451.5 336z"/></svg>