<svg xmlns="http://www.w3.org/2000/svg" viewBox="0 0 640 640"><!--! Font Awesome Pro 7.1.0 by @fontawesome - https://fontawesome.com License - https://fontawesome.com/license (Commercial License) Copyright 2025 Fonticons, Inc. --><path fill="currentColor" d="M280.2 128.4C320.5 132.5 352 166.6 352 208L352 400L351.6 408.2C348 443.6 321.4 472.1 286.9 478.6L316.8 518.4L318.5 521.2C321.7 527.9 319.8 536.2 313.6 540.8C307.4 545.4 299 544.9 293.4 540L291.2 537.6L248 480L136 480L92.8 537.6C87.5 544.7 77.5 546.1 70.4 540.8C63.3 535.5 61.9 525.5 67.2 518.4L97 478.6C62.6 472.1 36 443.6 32.4 408.2L32 400L32 208C32 166.6 63.5 132.5 103.8 128.4L112 128L272 128L280.2 128.4zM512 64C573.9 64 624 114.1 624 176C624 232.4 582.3 279.1 528 286.8L528 528C528 536.8 520.8 544 512 544C503.2 544 496 536.8 496 528L496 286.8C441.7 279 400 232.4 400 176C400 114.1 450.1 64 512 64zM64 400C64 426.5 85.5 448 112 448L272 448C298.5 448 320 426.5 320 400L320 320L64 320L64 400zM192 408C178.7 408 168 397.3 168 384C168 370.7 178.7 360 192 360C205.3 360 216 370.7 216 384C216 397.3 205.3 408 192 408zM112 160C87.1 160 66.7 178.9 64.2 203.1L64 208L64 288L320 288L320 208C320 181.5 298.5 160 272 160L112 160zM512 96C467.8 96 432 131.8 432 176C432 220.2 467.8 256 512 256C556.2 256 592 220.2 592 176C592 131.8 556.2 96 512 96z"/></svg>