<svg xmlns="http://www.w3.org/2000/svg" viewBox="0 0 640 640"><!--! Font Awesome Pro 7.1.0 by @fontawesome - https://fontawesome.com License - https://fontawesome.com/license (Commercial License) Copyright 2025 Fonticons, Inc. --><path fill="currentColor" d="M480 128C497.7 128 512 142.3 512 160L512 416C512 433.7 497.7 448 480 448L302.4 448C287.8 419.5 258.2 400 224 400C189.8 400 160.2 419.5 145.6 448L96 448C78.3 448 64 433.7 64 416L64 160C64 142.3 78.3 128 96 128L480 128zM96 480L136.4 480C136.2 482.6 136 485.3 136 488C136 536.6 175.4 576 224 576C272.6 576 312 536.6 312 488C312 485.3 311.9 482.6 311.6 480L624 480C632.8 480 640 472.8 640 464C640 455.2 632.8 448 624 448L535.4 448C540.8 438.6 544 427.7 544 416L544 160C544 124.7 515.3 96 480 96L96 96C60.7 96 32 124.7 32 160L32 416C32 451.3 60.7 480 96 480zM336 192C327.2 192 320 199.2 320 208L320 336C320 344.8 327.2 352 336 352C344.8 352 352 344.8 352 336L352 208C352 199.2 344.8 192 336 192zM416 208L416 336C416 344.8 423.2 352 432 352C440.8 352 448 344.8 448 336L448 208C448 199.2 440.8 192 432 192C423.2 192 416 199.2 416 208zM144 192C135.2 192 128 199.2 128 208L128 336C128 344.8 135.2 352 144 352C152.8 352 160 344.8 160 336L160 208C160 199.2 152.8 192 144 192zM224 208L224 336C224 344.8 231.2 352 240 352C248.8 352 256 344.8 256 336L256 208C256 199.2 248.8 192 240 192C231.2 192 224 199.2 224 208zM224 432C254.9 432 280 457.1 280 488C280 518.9 254.9 544 224 544C193.1 544 168 518.9 168 488C168 457.1 193.1 432 224 432z"/></svg>