<svg xmlns="http://www.w3.org/2000/svg" viewBox="0 0 640 640"><!--! Font Awesome Pro 7.1.0 by @fontawesome - https://fontawesome.com License - https://fontawesome.com/license (Commercial License) Copyright 2025 Fonticons, Inc. --><path fill="currentColor" d="M296 88C296 74.7 306.7 64 320 64C333.3 64 344 74.7 344 88C344 101.3 333.3 112 320 112C306.7 112 296 101.3 296 88zM376 88C376 57.1 350.9 32 320 32C289.1 32 264 57.1 264 88C264 118.9 289.1 144 320 144C350.9 144 376 118.9 376 88zM236.8 255.1C237.8 253.4 238.9 251.7 240 250.1L240 544L272 544L272 432L368 432L368 544L400 544L400 250.1C401.1 251.7 402.2 253.4 403.2 255.1L466.3 360.2C470.8 367.8 480.7 370.2 488.3 365.7C495.9 361.2 498.3 351.3 493.8 343.8L430.6 238.6C407.3 199.8 365.3 176 320 176C274.7 176 232.7 199.8 209.4 238.6L146.3 343.8C141.8 351.4 144.2 361.2 151.8 365.7C159.4 370.2 169.2 367.8 173.8 360.2L236.9 255.1zM256 608L464 608C472.8 608 480 600.8 480 592C480 583.2 472.8 576 464 576L176 576C167.2 576 160 583.2 160 592C160 600.8 167.2 608 176 608L256 608zM368 400L272 400L272 220.7C286.4 212.5 302.9 208 320 208C337.1 208 353.6 212.5 368 220.7L368 400zM96 160L88.7 134.6C87.6 130.7 84.1 128 80 128C75.9 128 72.4 130.7 71.3 134.6L64 160L38.6 167.3C34.7 168.4 32 171.9 32 176C32 180.1 34.7 183.6 38.6 184.7L64 192L71.3 217.4C72.4 221.3 76 224 80 224C84 224 87.6 221.3 88.7 217.4L96 192L121.4 184.7C125.3 183.6 128 180 128 176C128 172 125.3 168.4 121.4 167.3L96 160zM568.7 70.6C567.6 66.7 564.1 64 560 64C555.9 64 552.4 66.7 551.3 70.6L544 96L518.6 103.3C514.7 104.4 512 108 512 112C512 116 514.7 119.6 518.6 120.7L544 128L551.3 153.4C552.4 157.3 556 160 560 160C564 160 567.6 157.3 568.7 153.4L576 128L601.4 120.7C605.3 119.6 608 116 608 112C608 108 605.3 104.4 601.4 103.3L576 96L568.7 70.6z"/></svg>