<svg xmlns="http://www.w3.org/2000/svg" viewBox="0 0 640 640"><!--! Font Awesome Pro 7.1.0 by @fontawesome - https://fontawesome.com License - https://fontawesome.com/license (Commercial License) Copyright 2025 Fonticons, Inc. --><path fill="currentColor" d="M320 112C333.3 112 344 101.3 344 88C344 74.7 333.3 64 320 64C306.7 64 296 74.7 296 88C296 101.3 306.7 112 320 112zM320 32C350.9 32 376 57.1 376 88C376 118.9 350.9 144 320 144C289.1 144 264 118.9 264 88C264 57.1 289.1 32 320 32zM240 250.1C238.9 251.7 237.8 253.4 236.8 255.1L173.7 360.2C169.2 367.8 159.3 370.2 151.7 365.7C144.1 361.2 141.7 351.3 146.2 343.8L209.3 238.7C232.7 199.8 274.7 176 320 176C365.3 176 407.3 199.8 430.6 238.6L493.7 343.7C498.2 351.3 495.8 361.1 488.2 365.6C480.6 370.1 470.8 367.7 466.2 360.1L403.2 255.1C402.2 253.4 401.1 251.7 400 250.1L400 384L368 384L368 220.7C353.6 212.5 337.1 208 320 208C302.9 208 286.4 212.5 272 220.7L272 384L240 384L240 250.1zM176 608C167.2 608 160 600.8 160 592C160 583.2 167.2 576 176 576L464 576C472.8 576 480 583.2 480 592C480 600.8 472.8 608 464 608L176 608zM568.7 198.6L576 224L601.4 231.3C605.3 232.4 608 236 608 240C608 244 605.3 247.6 601.4 248.7L576 256L568.7 281.4C567.6 285.3 564 288 560 288C556 288 552.4 285.3 551.3 281.4L544 256L518.6 248.7C514.7 247.6 512 244 512 240C512 236 514.7 232.4 518.6 231.3L544 224L551.3 198.6C552.4 194.7 556 192 560 192C564 192 567.6 194.7 568.7 198.6zM88.7 390.6L96 416L121.4 423.3C125.3 424.4 128 428 128 432C128 436 125.3 439.6 121.4 440.7L96 448L88.7 473.4C87.6 477.3 84 480 80 480C76 480 72.4 477.3 71.3 473.4L64 448L38.6 440.7C34.7 439.6 32 436.1 32 432C32 427.9 34.7 424.4 38.6 423.3L64 416L71.3 390.6C72.4 386.7 76 384 80 384C84 384 87.6 386.7 88.7 390.6zM224 448C224 439.2 231.2 432 240 432L400 432C408.8 432 416 439.2 416 448C416 456.8 408.8 464 400 464L240 464C231.2 464 224 456.8 224 448zM224 512C224 503.2 231.2 496 240 496L400 496C408.8 496 416 503.2 416 512C416 520.8 408.8 528 400 528L240 528C231.2 528 224 520.8 224 512z"/></svg>