<svg xmlns="http://www.w3.org/2000/svg" viewBox="0 0 640 640"><!--! Font Awesome Pro 7.1.0 by @fontawesome - https://fontawesome.com License - https://fontawesome.com/license (Commercial License) Copyright 2025 Fonticons, Inc. --><path fill="currentColor" d="M320 112C333.3 112 344 101.3 344 88C344 74.7 333.3 64 320 64C306.7 64 296 74.7 296 88C296 101.3 306.7 112 320 112zM320 32C350.9 32 376 57.1 376 88C376 118.9 350.9 144 320 144C289.1 144 264 118.9 264 88C264 57.1 289.1 32 320 32zM240 250.1C238.9 251.7 237.8 253.4 236.8 255.1L197.9 320L160.6 320L209.4 238.6C232.7 199.8 274.7 176 320 176C365.3 176 407.3 199.8 430.6 238.6L479.4 320L442.1 320L403.2 255.1C402.2 253.4 401.1 251.7 400 250.1L400 320L368 320L368 220.7C353.6 212.5 337.1 208 320 208C302.9 208 286.4 212.5 272 220.7L272 320L240 320L240 250.1zM176 608C167.2 608 160 600.8 160 592C160 583.2 167.2 576 176 576L464 576C472.8 576 480 583.2 480 592C480 600.8 472.8 608 464 608L176 608zM160 368L480 368C488.8 368 496 375.2 496 384C496 392.8 488.8 400 480 400L160 400C151.2 400 144 392.8 144 384C144 375.2 151.2 368 160 368zM240 432L400 432C408.8 432 416 439.2 416 448C416 456.8 408.8 464 400 464L240 464C231.2 464 224 456.8 224 448C224 439.2 231.2 432 240 432zM240 496L400 496C408.8 496 416 503.2 416 512C416 520.8 408.8 528 400 528L240 528C231.2 528 224 520.8 224 512C224 503.2 231.2 496 240 496zM96 96L121.4 103.3C125.3 104.4 128 107.9 128 112C128 116.1 125.3 119.6 121.4 120.7L96 128L88.7 153.4C87.6 157.3 84.1 160 80 160C75.9 160 72.4 157.3 71.3 153.4L64 128L38.6 120.7C34.7 119.6 32 116.1 32 112C32 107.9 34.7 104.4 38.6 103.3L64 96L71.3 70.6C72.4 66.7 75.9 64 80 64C84.1 64 87.6 66.7 88.7 70.6L96 96zM568.7 390.6L576 416L601.4 423.3C605.3 424.4 608 428 608 432C608 436 605.3 439.6 601.4 440.7L576 448L568.7 473.4C567.6 477.3 564 480 560 480C556 480 552.4 477.3 551.3 473.4L544 448L518.6 440.7C514.7 439.6 512 436 512 432C512 428 514.7 424.4 518.6 423.3L544 416L551.3 390.6C552.4 386.7 556 384 560 384C564 384 567.6 386.7 568.7 390.6z"/></svg>