<svg xmlns="http://www.w3.org/2000/svg" viewBox="0 0 640 640"><!--! Font Awesome Pro 7.1.0 by @fontawesome - https://fontawesome.com License - https://fontawesome.com/license (Commercial License) Copyright 2025 Fonticons, Inc. --><path fill="currentColor" d="M256 80C256 71.2 248.8 64 240 64C231.2 64 224 71.2 224 80L224 96L192 96C183.2 96 176 103.2 176 112C176 120.8 183.2 128 192 128L288 128C296.8 128 304 120.8 304 112C304 103.2 296.8 96 288 96L256 96L256 80zM416 80C416 71.2 408.8 64 400 64C391.2 64 384 71.2 384 80L384 96L352 96C343.2 96 336 103.2 336 112C336 120.8 343.2 128 352 128L448 128C456.8 128 464 120.8 464 112C464 103.2 456.8 96 448 96L416 96L416 80zM176 176C176 184.8 183.2 192 192 192L288 192C296.8 192 304 184.8 304 176C304 167.2 296.8 160 288 160L192 160C183.2 160 176 167.2 176 176zM336 176C336 184.8 343.2 192 352 192L448 192C456.8 192 464 184.8 464 176C464 167.2 456.8 160 448 160L352 160C343.2 160 336 167.2 336 176zM144 224C135.2 224 128 231.2 128 240C128 248.8 135.2 256 144 256L160 256L160 544L144 544C135.2 544 128 551.2 128 560C128 568.8 135.2 576 144 576L496 576C504.8 576 512 568.8 512 560C512 551.2 504.8 544 496 544L480 544L480 256L496 256C504.8 256 512 248.8 512 240C512 231.2 504.8 224 496 224L144 224zM192 544L192 256L448 256L448 544L192 544zM270.6 400L332.5 338.1L328.1 382.4C327.6 386.9 329.1 391.4 332.2 394.7C335.3 398 339.5 400 344.1 400L369.5 400L307.6 461.9L312 417.6C312.4 413.1 311 408.6 307.9 405.3C304.8 402 300.5 400 296 400L270.6 400zM346.2 288C340.6 288 335.2 290.2 331.2 294.2L230.3 395C226.2 399.1 224 404.6 224 410.3C224 422.3 233.7 432 245.7 432L278.4 432L272.7 488.6C271.4 501.1 281.3 512 293.9 512C299.5 512 304.9 509.8 308.9 505.8L409.7 405C413.8 400.9 416 395.4 416 389.7C416 377.7 406.3 368 394.3 368L361.6 368L367.3 311.4C368.6 298.9 358.7 288 346.1 288z"/></svg>