<svg xmlns="http://www.w3.org/2000/svg" viewBox="0 0 640 640"><!--! Font Awesome Pro 7.1.0 by @fontawesome - https://fontawesome.com License - https://fontawesome.com/license (Commercial License) Copyright 2025 Fonticons, Inc. --><path fill="currentColor" d="M272 48C263.2 48 256 55.2 256 64C256 72.8 263.2 80 272 80L368 80C376.8 80 384 72.8 384 64C384 55.2 376.8 48 368 48L272 48zM240 176C231.2 176 224 183.2 224 192C224 200.8 231.2 208 240 208L400 208C408.8 208 416 200.8 416 192C416 183.2 408.8 176 400 176L240 176zM176 304C167.2 304 160 311.2 160 320C160 328.8 167.2 336 176 336L464 336C472.8 336 480 328.8 480 320C480 311.2 472.8 304 464 304L176 304zM240 432C231.2 432 224 439.2 224 448C224 456.8 231.2 464 240 464L400 464C408.8 464 416 456.8 416 448C416 439.2 408.8 432 400 432L240 432zM176 576C167.2 576 160 583.2 160 592C160 600.8 167.2 608 176 608L464 608C472.8 608 480 600.8 480 592C480 583.2 472.8 576 464 576L176 576zM96 224L88.7 198.6C87.6 194.7 84 192 80 192C76 192 72.4 194.7 71.3 198.6L64 224L38.6 231.3C34.7 232.4 32 235.9 32 240C32 244.1 34.7 247.6 38.6 248.7L64 256L71.3 281.4C72.4 285.3 76 288 80 288C84 288 87.6 285.3 88.7 281.4L96 256L121.4 248.7C125.3 247.6 128 244 128 240C128 236 125.3 232.4 121.4 231.3L96 224zM568.7 70.6C567.6 66.7 564.1 64 560 64C555.9 64 552.4 66.7 551.3 70.6L544 96L518.6 103.3C514.7 104.4 512 108 512 112C512 116 514.7 119.6 518.6 120.7L544 128L551.3 153.4C552.4 157.3 556 160 560 160C564 160 567.6 157.3 568.7 153.4L576 128L601.4 120.7C605.3 119.6 608 116 608 112C608 108 605.3 104.4 601.4 103.3L576 96L568.7 70.6z"/></svg>