<svg xmlns="http://www.w3.org/2000/svg" viewBox="0 0 640 640"><!--! Font Awesome Pro 7.1.0 by @fontawesome - https://fontawesome.com License - https://fontawesome.com/license (Commercial License) Copyright 2025 Fonticons, Inc. --><path fill="currentColor" d="M192 64C192 72.8 184.8 80 176 80L102.6 80L160 137.4L180.7 116.7C186.9 110.5 197.1 110.5 203.3 116.7C209.5 122.9 209.5 133.1 203.3 139.3L182.6 160L210.2 187.6C238.9 160.6 277.5 144 320 144C362.5 144 401.1 160.6 429.8 187.6L537.4 80L464 80C455.2 80 448 72.8 448 64C448 55.2 455.2 48 464 48L576 48C584.8 48 592 55.2 592 64L592 176C592 184.8 584.8 192 576 192C567.2 192 560 184.8 560 176L560 102.6L450.8 211.8C469.2 237.9 480 269.7 480 304C480 387 416.9 455.2 336 463.2L336 512L384 512C392.8 512 400 519.2 400 528C400 536.8 392.8 544 384 544L336 544L336 592C336 600.8 328.8 608 320 608C311.2 608 304 600.8 304 592L304 544L256 544C247.2 544 240 536.8 240 528C240 519.2 247.2 512 256 512L304 512L304 463.2C223.1 455.2 160 387 160 304C160 269.7 170.8 237.9 189.2 211.8L160 182.6L139.3 203.3C133.1 209.5 122.9 209.5 116.7 203.3C110.5 197.1 110.5 186.9 116.7 180.7L137.4 160L80 102.6L80 176C80 184.8 72.8 192 64 192C55.2 192 48 184.8 48 176L48 64C48 55.2 55.2 48 64 48L176 48C184.8 48 192 55.2 192 64zM320 432C390.7 432 448 374.7 448 304C448 233.3 390.7 176 320 176C249.3 176 192 233.3 192 304C192 374.7 249.3 432 320 432z"/></svg>