<svg xmlns="http://www.w3.org/2000/svg" viewBox="0 0 640 640"><!--! Font Awesome Pro 7.1.0 by @fontawesome - https://fontawesome.com License - https://fontawesome.com/license (Commercial License) Copyright 2025 Fonticons, Inc. --><path fill="currentColor" d="M512 64C547.3 64 576 92.7 576 128C576 157.8 555.6 182.8 528 189.9L528 288C528 314.5 506.5 336 480 336L336 336L336 450.1C363.6 457.2 384 482.2 384 512C384 547.3 355.3 576 320 576C284.7 576 256 547.3 256 512C256 482.2 276.4 457.2 304 450.1L304 336L144 336L144 450.1C171.6 457.2 192 482.2 192 512C192 547.3 163.3 576 128 576C92.7 576 64 547.3 64 512C64 482.2 84.4 457.2 112 450.1L112 189.9C84.4 182.8 64 157.8 64 128C64 92.7 92.7 64 128 64C163.3 64 192 92.7 192 128C192 157.8 171.6 182.8 144 189.9L144 304L304 304L304 189.9C276.4 182.8 256 157.8 256 128C256 92.7 284.7 64 320 64C355.3 64 384 92.7 384 128C384 157.8 363.6 182.8 336 189.9L336 304L480 304C488.8 304 496 296.8 496 288L496 189.9C468.4 182.8 448 157.8 448 128C448 92.7 476.7 64 512 64zM128 480C110.3 480 96 494.3 96 512C96 529.7 110.3 544 128 544C145.7 544 160 529.7 160 512C160 494.3 145.7 480 128 480zM320 480C302.3 480 288 494.3 288 512C288 529.7 302.3 544 320 544C337.7 544 352 529.7 352 512C352 494.3 337.7 480 320 480zM512 96C494.3 96 480 110.3 480 128C480 145.7 494.3 160 512 160C529.7 160 544 145.7 544 128C544 110.3 529.7 96 512 96zM128 96C110.3 96 96 110.3 96 128C96 145.7 110.3 160 128 160C145.7 160 160 145.7 160 128C160 110.3 145.7 96 128 96zM320 96C302.3 96 288 110.3 288 128C288 145.7 302.3 160 320 160C337.7 160 352 145.7 352 128C352 110.3 337.7 96 320 96z"/></svg>