<svg xmlns="http://www.w3.org/2000/svg" viewBox="0 0 640 640"><!--! Font Awesome Pro 7.1.0 by @fontawesome - https://fontawesome.com License - https://fontawesome.com/license (Commercial License) Copyright 2025 Fonticons, Inc. --><path fill="currentColor" d="M272 48C263.2 48 256 55.2 256 64C256 72.8 263.2 80 272 80L368 80C376.8 80 384 72.8 384 64C384 55.2 376.8 48 368 48L272 48zM272 112C263.2 112 256 119.2 256 128C256 136.8 263.2 144 272 144L368 144C376.8 144 384 136.8 384 128C384 119.2 376.8 112 368 112L272 112zM240 176C231.2 176 224 183.2 224 192C224 200.8 231.2 208 240 208L400 208C408.8 208 416 200.8 416 192C416 183.2 408.8 176 400 176L240 176zM208 240C199.2 240 192 247.2 192 256C192 264.8 199.2 272 208 272L432 272C440.8 272 448 264.8 448 256C448 247.2 440.8 240 432 240L208 240zM176 304C167.2 304 160 311.2 160 320C160 328.8 167.2 336 176 336L464 336C472.8 336 480 328.8 480 320C480 311.2 472.8 304 464 304L176 304zM160 368C151.2 368 144 375.2 144 384C144 392.8 151.2 400 160 400L480 400C488.8 400 496 392.8 496 384C496 375.2 488.8 368 480 368L160 368zM240 432C231.2 432 224 439.2 224 448C224 456.8 231.2 464 240 464L400 464C408.8 464 416 456.8 416 448C416 439.2 408.8 432 400 432L240 432zM240 496C231.2 496 224 503.2 224 512C224 520.8 231.2 528 240 528L400 528C408.8 528 416 520.8 416 512C416 503.2 408.8 496 400 496L240 496zM176 576C167.2 576 160 583.2 160 592C160 600.8 167.2 608 176 608L464 608C472.8 608 480 600.8 480 592C480 583.2 472.8 576 464 576L176 576zM96 448L88.7 422.6C87.6 418.7 84 416 80 416C76 416 72.4 418.7 71.3 422.6L64 448L38.6 455.3C34.7 456.4 32 459.9 32 464C32 468.1 34.7 471.6 38.6 472.7L64 480L71.3 505.4C72.4 509.3 76 512 80 512C84 512 87.6 509.3 88.7 505.4L96 480L121.4 472.7C125.3 471.6 128 468 128 464C128 460 125.3 456.4 121.4 455.3L96 448zM568.7 198.6C567.6 194.7 564 192 560 192C556 192 552.4 194.7 551.3 198.6L544 224L518.6 231.3C514.7 232.4 512 236 512 240C512 244 514.7 247.6 518.6 248.7L544 256L551.3 281.4C552.4 285.3 556 288 560 288C564 288 567.6 285.3 568.7 281.4L576 256L601.4 248.7C605.3 247.6 608 244 608 240C608 236 605.3 232.4 601.4 231.3L576 224L568.7 198.6z"/></svg>