<svg xmlns="http://www.w3.org/2000/svg" viewBox="0 0 640 640"><!--! Font Awesome Pro 7.1.0 by @fontawesome - https://fontawesome.com License - https://fontawesome.com/license (Commercial License) Copyright 2025 Fonticons, Inc. --><path fill="currentColor" d="M368 32C376.8 32 384 39.2 384 48L384 128L400 128C426.5 128 448 149.5 448 176L448 448L464 448C490.5 448 512 469.5 512 496L512 560L511.8 564.9C509.3 589.1 488.9 608 464 608L176 608C151.1 608 130.7 589.1 128.2 564.9L128 560L128 496C128 469.5 149.5 448 176 448L192 448L192 176C192 149.5 213.5 128 240 128L256 128L256 48C256 39.2 263.2 32 272 32C280.8 32 288 39.2 288 48L288 128L352 128L352 48C352 39.2 359.2 32 368 32zM176 480C167.2 480 160 487.2 160 496L160 560C160 568.8 167.2 576 176 576L224 576L224 480L176 480zM256 576L384 576L384 480L256 480L256 576zM416 576L464 576C472.8 576 480 568.8 480 560L480 496C480 487.2 472.8 480 464 480L416 480L416 576zM240 160C231.2 160 224 167.2 224 176L224 448L416 448L416 176C416 167.2 408.8 160 400 160L240 160z"/></svg>