<svg xmlns="http://www.w3.org/2000/svg" viewBox="0 0 640 640"><!--! Font Awesome Pro 7.1.0 by @fontawesome - https://fontawesome.com License - https://fontawesome.com/license (Commercial License) Copyright 2025 Fonticons, Inc. --><path fill="currentColor" d="M272 48C263.2 48 256 55.2 256 64C256 72.8 263.2 80 272 80L368 80C376.8 80 384 72.8 384 64C384 55.2 376.8 48 368 48L272 48zM176 304C167.2 304 160 311.2 160 320C160 328.8 167.2 336 176 336L464 336C472.8 336 480 328.8 480 320C480 311.2 472.8 304 464 304L176 304zM176 576C167.2 576 160 583.2 160 592C160 600.8 167.2 608 176 608L464 608C472.8 608 480 600.8 480 592C480 583.2 472.8 576 464 576L176 576zM96 96L88.7 70.6C87.6 66.7 84.1 64 80 64C75.9 64 72.4 66.7 71.3 70.6L64 96L38.6 103.3C34.7 104.4 32 107.9 32 112C32 116.1 34.7 119.6 38.6 120.7L64 128L71.3 153.4C72.4 157.3 75.9 160 80 160C84.1 160 87.6 157.3 88.7 153.4L96 128L121.4 120.7C125.3 119.6 128 116.1 128 112C128 107.9 125.3 104.4 121.4 103.3L96 96zM568.7 422.6C567.6 418.7 564 416 560 416C556 416 552.4 418.7 551.3 422.6L544 448L518.6 455.3C514.7 456.4 512 460 512 464C512 468 514.7 471.6 518.6 472.7L544 480L551.3 505.4C552.4 509.3 556 512 560 512C564 512 567.6 509.3 568.7 505.4L576 480L601.4 472.7C605.3 471.6 608 468 608 464C608 460 605.3 456.4 601.4 455.3L576 448L568.7 422.6z"/></svg>