<svg xmlns="http://www.w3.org/2000/svg" viewBox="0 0 640 640"><!--! Font Awesome Pro 7.1.0 by @fontawesome - https://fontawesome.com License - https://fontawesome.com/license (Commercial License) Copyright 2025 Fonticons, Inc. --><path fill="currentColor" d="M568.7 102.6L576 128L601.4 135.3C605.3 136.4 608 140 608 144C608 148 605.3 151.6 601.4 152.7L576 160L568.7 185.4C567.6 189.3 564 192 560 192C556 192 552.4 189.3 551.3 185.4L544 160L518.6 152.7C514.7 151.6 512 148 512 144C512 140 514.7 136.4 518.6 135.3L544 128L551.3 102.6C552.4 98.7 556 96 560 96C564 96 567.6 98.7 568.7 102.6zM96 352L121.4 359.3C125.3 360.4 128 364 128 368C128 372 125.3 375.6 121.4 376.7L96 384L88.7 409.4C87.6 413.3 84 416 80 416C76 416 72.4 413.3 71.3 409.4L64 384L38.6 376.7C34.7 375.6 32 372.1 32 368C32 363.9 34.7 360.4 38.6 359.3L64 352L71.3 326.6C72.4 322.7 76 320 80 320C84 320 87.6 322.7 88.7 326.6L96 352zM160 592C160 583.2 167.2 576 176 576L464 576C472.8 576 480 583.2 480 592C480 600.8 472.8 608 464 608L176 608C167.2 608 160 600.8 160 592z"/></svg>