<svg xmlns="http://www.w3.org/2000/svg" viewBox="0 0 640 640"><!--! Font Awesome Pro 7.1.0 by @fontawesome - https://fontawesome.com License - https://fontawesome.com/license (Commercial License) Copyright 2025 Fonticons, Inc. --><path fill="currentColor" d="M256.5 91.4C258.5 84.6 264.8 80 271.8 80L368.2 80C375.3 80 381.5 84.6 383.5 91.4L394.5 128L245.5 128L256.5 91.4zM212.1 128L112 128C103.2 128 96 135.2 96 144C96 152.8 103.2 160 112 160L528 160C536.8 160 544 152.8 544 144C544 135.2 536.8 128 528 128L427.9 128L414.2 82.2C408.1 61.9 389.4 48 368.2 48L271.8 48C250.6 48 231.9 61.9 225.8 82.2L212.1 128zM128 208L128 512C128 547.3 156.7 576 192 576L448 576C483.3 576 512 547.3 512 512L512 208L480 208L480 512C480 529.7 465.7 544 448 544L192 544C174.3 544 160 529.7 160 512L160 208L128 208zM252.7 284.7C246.5 290.9 246.5 301.1 252.7 307.3L297.4 352L252.7 396.7C246.5 402.9 246.5 413.1 252.7 419.3C258.9 425.5 269.1 425.5 275.3 419.3L320 374.6L364.7 419.3C370.9 425.5 381.1 425.5 387.3 419.3C393.5 413.1 393.5 402.9 387.3 396.7L342.6 352L387.3 307.3C393.5 301.1 393.5 290.9 387.3 284.7C381.1 278.5 370.9 278.5 364.7 284.7L320 329.4L275.3 284.7C269.1 278.5 258.9 278.5 252.7 284.7z"/></svg>