<svg xmlns="http://www.w3.org/2000/svg" viewBox="0 0 640 640"><!--! Font Awesome Pro 7.1.0 by @fontawesome - https://fontawesome.com License - https://fontawesome.com/license (Commercial License) Copyright 2025 Fonticons, Inc. --><path fill="currentColor" d="M160 512C160 529.7 174.3 544 192 544L448 544C465.7 544 480 529.7 480 512L480 208L512 208L512 512C512 547.3 483.3 576 448 576L192 576C156.7 576 128 547.3 128 512L128 208L160 208L160 512zM387.1 282.2C392.3 275.1 402.3 273.5 409.4 278.7C416.5 283.9 418.1 293.9 412.9 301L307.3 446.2C304.5 450 300.2 452.4 295.5 452.7C290.8 453 286.2 451.3 282.9 447.9L228.5 391.6C222.4 385.2 222.5 375.1 228.9 369C235.3 362.9 245.4 363.1 251.5 369.4L292.7 412L387.1 282.2zM368.2 48C389.4 48 408.1 61.9 414.2 82.2L427.9 128L528 128C536.8 128 544 135.2 544 144C544 152.8 536.8 160 528 160L112 160C103.2 160 96 152.8 96 144C96 135.2 103.2 128 112 128L212.1 128L225.9 82.2C232 61.9 250.7 48 271.9 48L368.3 48zM271.8 80C264.7 80 258.5 84.6 256.5 91.4L245.5 128L394.5 128L383.5 91.4C381.5 84.6 375.2 80 368.2 80L271.8 80z"/></svg>