<svg xmlns="http://www.w3.org/2000/svg" viewBox="0 0 640 640"><!--! Font Awesome Pro 7.1.0 by @fontawesome - https://fontawesome.com License - https://fontawesome.com/license (Commercial License) Copyright 2025 Fonticons, Inc. --><path fill="currentColor" d="M256.5 91.4C258.5 84.6 264.8 80 271.8 80L368.2 80C375.3 80 381.5 84.6 383.5 91.4L394.5 128L245.5 128L256.5 91.4zM212.1 128L112 128C103.2 128 96 135.2 96 144C96 152.8 103.2 160 112 160L528 160C536.8 160 544 152.8 544 144C544 135.2 536.8 128 528 128L427.9 128L414.2 82.2C408.1 61.9 389.4 48 368.2 48L271.8 48C250.6 48 231.9 61.9 225.8 82.2L212.1 128zM128 208L128 512C128 547.3 156.7 576 192 576L448 576C483.3 576 512 547.3 512 512L512 208L480 208L480 512C480 529.7 465.7 544 448 544L192 544C174.3 544 160 529.7 160 512L160 208L128 208zM331.3 260.7C325.1 254.5 314.9 254.5 308.7 260.7L236.7 332.7C230.5 338.9 230.5 349.1 236.7 355.3C242.9 361.5 253.1 361.5 259.3 355.3L304 310.6L304 432C304 440.8 311.2 448 320 448C328.8 448 336 440.8 336 432L336 310.6L380.7 355.3C386.9 361.5 397.1 361.5 403.3 355.3C409.5 349.1 409.5 338.9 403.3 332.7L331.3 260.7z"/></svg>