<svg xmlns="http://www.w3.org/2000/svg" viewBox="0 0 640 640"><!--! Font Awesome Pro 7.1.0 by @fontawesome - https://fontawesome.com License - https://fontawesome.com/license (Commercial License) Copyright 2025 Fonticons, Inc. --><path fill="currentColor" d="M271.8 80C264.7 80 258.5 84.6 256.5 91.4L245.5 128L394.5 128L383.5 91.4C381.5 84.6 375.2 80 368.2 80L271.8 80zM225.8 82.2C231.9 61.9 250.6 48 271.8 48L368.2 48C389.4 48 408.1 61.9 414.2 82.2L427.9 128L528 128C536.8 128 544 135.2 544 144C544 152.8 536.8 160 528 160L112 160C103.2 160 96 152.8 96 144C96 135.2 103.2 128 112 128L212.1 128L225.8 82.2zM147.6 516.7L124.7 208L156.8 208L179.5 514.4C180.7 531.1 194.7 544 211.4 544L428.5 544C445.3 544 459.2 531.1 460.4 514.4L483.1 208L515.2 208L492.3 516.7C489.8 550.1 462 576 428.5 576L211.4 576C177.9 576 150.1 550.1 147.6 516.7zM331.3 260.7L403.3 332.7C409.5 338.9 409.5 349.1 403.3 355.3C397.1 361.5 386.9 361.5 380.7 355.3L336 310.6L336 432C336 440.8 328.8 448 320 448C311.2 448 304 440.8 304 432L304 310.6L259.3 355.3C253.1 361.5 242.9 361.5 236.7 355.3C230.5 349.1 230.5 338.9 236.7 332.7L308.7 260.7C314.9 254.5 325.1 254.5 331.3 260.7z"/></svg>