<svg xmlns="http://www.w3.org/2000/svg" viewBox="0 0 640 640"><!--! Font Awesome Pro 7.1.0 by @fontawesome - https://fontawesome.com License - https://fontawesome.com/license (Commercial License) Copyright 2025 Fonticons, Inc. --><path fill="currentColor" d="M175.8 80L304.2 80C311.3 80 317.5 84.6 319.5 91.4L330.5 128L149.5 128L160.5 91.4C162.5 84.6 168.8 80 175.8 80zM129.8 82.2L116.1 128L48 128C39.2 128 32 135.2 32 144C32 152.8 39.2 160 48 160L432 160C440.8 160 448 152.8 448 144C448 135.2 440.8 128 432 128L363.9 128L350.2 82.2C344.1 61.9 325.4 48 304.2 48L175.8 48C154.6 48 135.9 61.9 129.8 82.2zM496 192C487.2 192 480 199.2 480 208C480 216.8 487.2 224 496 224L624 224C632.8 224 640 216.8 640 208C640 199.2 632.8 192 624 192L496 192zM496 320C487.2 320 480 327.2 480 336C480 344.8 487.2 352 496 352L592 352C600.8 352 608 344.8 608 336C608 327.2 600.8 320 592 320L496 320zM480 464C480 472.8 487.2 480 496 480L528 480C536.8 480 544 472.8 544 464C544 455.2 536.8 448 528 448L496 448C487.2 448 480 455.2 480 464zM64 208L64 512C64 547.3 92.7 576 128 576L352 576C387.3 576 416 547.3 416 512L416 208L384 208L384 512C384 529.7 369.7 544 352 544L128 544C110.3 544 96 529.7 96 512L96 208L64 208zM208 272C208 263.2 200.8 256 192 256C183.2 256 176 263.2 176 272L176 464C176 472.8 183.2 480 192 480C200.8 480 208 472.8 208 464L208 272zM304 272C304 263.2 296.8 256 288 256C279.2 256 272 263.2 272 272L272 464C272 472.8 279.2 480 288 480C296.8 480 304 472.8 304 464L304 272z"/></svg>