<svg xmlns="http://www.w3.org/2000/svg" viewBox="0 0 640 640"><!--! Font Awesome Pro 7.1.0 by @fontawesome - https://fontawesome.com License - https://fontawesome.com/license (Commercial License) Copyright 2025 Fonticons, Inc. --><path fill="currentColor" d="M224.5 91.4C226.5 84.6 232.8 80 239.8 80L336.2 80C343.3 80 349.5 84.6 351.5 91.4L362.5 128L213.5 128L224.5 91.4zM180.1 128L80 128C71.2 128 64 135.2 64 144C64 152.8 71.2 160 80 160L496 160C504.8 160 512 152.8 512 144C512 135.2 504.8 128 496 128L395.9 128L382.2 82.2C376.1 61.9 357.4 48 336.2 48L239.8 48C218.6 48 199.9 61.9 193.8 82.2L180.1 128zM92.7 208L115.6 516.7C118.1 550.1 145.9 576 179.4 576L308 576C300.8 566 294.6 555.3 289.4 544L179.4 544C162.6 544 148.7 531.1 147.5 514.4L124.8 208L92.7 208zM483.2 208L451.1 208L446.3 272.8C458.4 271.7 469.4 271.9 478.4 272.5L483.2 208zM464 352C525.9 352 576 402.1 576 464C576 525.9 525.9 576 464 576C402.1 576 352 525.9 352 464C352 402.1 402.1 352 464 352zM464 608C543.5 608 608 543.5 608 464C608 384.5 543.5 320 464 320C384.5 320 320 384.5 320 464C320 543.5 384.5 608 464 608zM464 384C455.2 384 448 391.2 448 400L448 464C448 472.8 455.2 480 464 480L512 480C520.8 480 528 472.8 528 464C528 455.2 520.8 448 512 448L480 448L480 400C480 391.2 472.8 384 464 384z"/></svg>