<svg xmlns="http://www.w3.org/2000/svg" viewBox="0 0 640 640"><!--! Font Awesome Pro 7.1.0 by @fontawesome - https://fontawesome.com License - https://fontawesome.com/license (Commercial License) Copyright 2025 Fonticons, Inc. --><path fill="currentColor" d="M59.3 36.8C53.1 30.6 42.9 30.6 36.7 36.8C30.5 43 30.5 53.2 36.7 59.4L580.7 603.4C586.9 609.6 597.1 609.6 603.3 603.4C609.5 597.2 609.5 587 603.3 580.8L512 489.5L512 208L480 208L480 457.5L432 409.5L432 272C432 263.2 424.8 256 416 256C407.2 256 400 263.2 400 272L400 377.5L336 313.5L336 272C336 263.2 328.8 256 320 256C311.2 256 304 263.2 304 272L304 281.5L182.5 160L528 160C536.8 160 544 152.8 544 144C544 135.2 536.8 128 528 128L427.9 128L414.2 82.2C408.1 61.9 389.4 48 368.2 48L271.8 48C250.6 48 231.9 61.9 225.8 82.2L212.1 128L150.5 128L59.3 36.8zM128 512C128 547.3 156.7 576 192 576L448 576C458.9 576 469.1 573.3 478 568.5L453.1 543.6C451.4 543.9 449.7 544 448 544L192 544C174.3 544 160 529.7 160 512L160 250.5L128 218.5L128 512zM208 464C208 472.8 215.2 480 224 480C232.8 480 240 472.8 240 464L240 330.5L208 298.5L208 464zM304 464C304 472.8 311.2 480 320 480C328.8 480 336 472.8 336 464L336 426.5L304 394.5L304 464zM256.5 91.4C258.5 84.6 264.8 80 271.8 80L368.2 80C375.3 80 381.5 84.6 383.5 91.4L394.5 128L245.5 128L256.5 91.4z"/></svg>