<svg xmlns="http://www.w3.org/2000/svg" viewBox="0 0 640 640"><!--! Font Awesome Pro 7.1.0 by @fontawesome - https://fontawesome.com License - https://fontawesome.com/license (Commercial License) Copyright 2025 Fonticons, Inc. --><path fill="currentColor" d="M59.3 36.8C53.1 30.6 42.9 30.6 36.7 36.8C30.5 43 30.5 53.2 36.7 59.4L580.7 603.4C586.9 609.6 597.1 609.6 603.3 603.4C609.5 597.2 609.5 587 603.3 580.8L495.6 473.1L515.3 208L483.2 208L465.7 443.2L182.5 160L528 160C536.8 160 544 152.8 544 144C544 135.2 536.8 128 528 128L427.9 128L414.2 82.2C408.1 61.9 389.4 48 368.2 48L271.8 48C250.6 48 231.9 61.9 225.8 82.2L212.1 128L150.5 128L59.3 36.8zM147.6 516.7C150.1 550.1 177.9 576 211.4 576L428.5 576C444.3 576 458.9 570.2 470.1 560.7L447.3 537.9C442 541.8 435.5 544 428.5 544L211.4 544C194.6 544 180.7 531.1 179.5 514.4L160 250.5L125.3 215.8L147.6 516.7zM256.5 91.4C258.5 84.6 264.8 80 271.8 80L368.2 80C375.3 80 381.5 84.6 383.5 91.4L394.5 128L245.5 128L256.5 91.4z"/></svg>