<svg xmlns="http://www.w3.org/2000/svg" viewBox="0 0 640 640"><!--! Font Awesome Pro 7.1.0 by @fontawesome - https://fontawesome.com License - https://fontawesome.com/license (Commercial License) Copyright 2025 Fonticons, Inc. --><path fill="currentColor" d="M224.5 91.4C226.5 84.6 232.8 80 239.8 80L336.2 80C343.3 80 349.5 84.6 351.5 91.4L362.5 128L213.5 128L224.5 91.4zM180.1 128L80 128C71.2 128 64 135.2 64 144C64 152.8 71.2 160 80 160L496 160C504.8 160 512 152.8 512 144C512 135.2 504.8 128 496 128L395.9 128L382.2 82.2C376.1 61.9 357.4 48 336.2 48L239.8 48C218.6 48 199.9 61.9 193.8 82.2L180.1 128zM96 208L96 512C96 547.3 124.7 576 160 576L308 576C300.8 566 294.6 555.3 289.4 544L160 544C142.3 544 128 529.7 128 512L128 208L96 208zM480 208L448 208L448 272.7C458.5 271.8 469.5 271.8 480 272.7L480 208zM400 272C400 263.2 392.8 256 384 256C375.2 256 368 263.2 368 272L368 297.7C378.1 291.8 388.8 286.9 400 282.9L400 272zM304 272C304 263.2 296.8 256 288 256C279.2 256 272 263.2 272 272L272 464C272 424.7 283.8 388.2 304 357.8L304 272zM208 272C208 263.2 200.8 256 192 256C183.2 256 176 263.2 176 272L176 464C176 472.8 183.2 480 192 480C200.8 480 208 472.8 208 464L208 272zM464 352C525.9 352 576 402.1 576 464C576 525.9 525.9 576 464 576C402.1 576 352 525.9 352 464C352 402.1 402.1 352 464 352zM464 608C543.5 608 608 543.5 608 464C608 384.5 543.5 320 464 320C384.5 320 320 384.5 320 464C320 543.5 384.5 608 464 608zM464 384C455.2 384 448 391.2 448 400L448 464C448 472.8 455.2 480 464 480L512 480C520.8 480 528 472.8 528 464C528 455.2 520.8 448 512 448L480 448L480 400C480 391.2 472.8 384 464 384z"/></svg>