<svg xmlns="http://www.w3.org/2000/svg" viewBox="0 0 640 640"><!--! Font Awesome Pro 7.1.0 by @fontawesome - https://fontawesome.com License - https://fontawesome.com/license (Commercial License) Copyright 2025 Fonticons, Inc. --><path fill="currentColor" d="M175.8 80C168.7 80 162.5 84.6 160.5 91.4L149.5 128L330.5 128L319.5 91.4C317.5 84.6 311.2 80 304.2 80L175.8 80zM129.8 82.2C135.9 61.9 154.6 48 175.8 48L304.2 48C325.4 48 344.1 61.9 350.2 82.2L363.9 128L432 128C440.8 128 448 135.2 448 144C448 152.8 440.8 160 432 160L48 160C39.2 160 32 152.8 32 144C32 135.2 39.2 128 48 128L116.1 128L129.8 82.2zM83.6 516.7L60.7 208L92.8 208L115.5 514.4C116.7 531.1 130.7 544 147.4 544L332.5 544C349.3 544 363.2 531.1 364.4 514.4L387.1 208L419.2 208L396.3 516.7C393.8 550.1 366 576 332.5 576L147.4 576C113.9 576 86.1 550.1 83.6 516.7zM496 192L624 192C632.8 192 640 199.2 640 208C640 216.8 632.8 224 624 224L496 224C487.2 224 480 216.8 480 208C480 199.2 487.2 192 496 192zM496 320L592 320C600.8 320 608 327.2 608 336C608 344.8 600.8 352 592 352L496 352C487.2 352 480 344.8 480 336C480 327.2 487.2 320 496 320zM480 464C480 455.2 487.2 448 496 448L528 448C536.8 448 544 455.2 544 464C544 472.8 536.8 480 528 480L496 480C487.2 480 480 472.8 480 464z"/></svg>