<svg xmlns="http://www.w3.org/2000/svg" viewBox="0 0 640 640"><!--! Font Awesome Pro 7.1.0 by @fontawesome - https://fontawesome.com License - https://fontawesome.com/license (Commercial License) Copyright 2025 Fonticons, Inc. --><path fill="currentColor" d="M320 128L320 512C320 529.7 334.3 544 352 544L576 544C593.7 544 608 529.7 608 512L608 224C608 206.3 593.7 192 576 192L496 192C487.2 192 480 184.8 480 176L480 128C480 110.3 465.7 96 448 96L352 96C334.3 96 320 110.3 320 128zM512 160L544 160L544 80C544 71.2 551.2 64 560 64C568.8 64 576 71.2 576 80L576 160C611.3 160 640 188.7 640 224L640 512C640 547.3 611.3 576 576 576L352 576C316.7 576 288 547.3 288 512L288 128C288 92.7 316.7 64 352 64L448 64C483.3 64 512 92.7 512 128L512 160zM388 152L412 152C418.6 152 424 157.4 424 164L424 188C424 194.6 418.6 200 412 200L388 200C381.4 200 376 194.6 376 188L376 164C376 157.4 381.4 152 388 152zM376 260C376 253.4 381.4 248 388 248L412 248C418.6 248 424 253.4 424 260L424 284C424 290.6 418.6 296 412 296L388 296C381.4 296 376 290.6 376 284L376 260zM388 344L412 344C418.6 344 424 349.4 424 356L424 380C424 386.6 418.6 392 412 392L388 392C381.4 392 376 386.6 376 380L376 356C376 349.4 381.4 344 388 344zM504 260C504 253.4 509.4 248 516 248L540 248C546.6 248 552 253.4 552 260L552 284C552 290.6 546.6 296 540 296L516 296C509.4 296 504 290.6 504 284L504 260zM516 344L540 344C546.6 344 552 349.4 552 356L552 380C552 386.6 546.6 392 540 392L516 392C509.4 392 504 386.6 504 380L504 356C504 349.4 509.4 344 516 344zM32 216C32 158.6 78.6 112 136 112C193.4 112 240 158.6 240 216L240 320C240 364.2 204.2 400 160 400L144 400L144 560C144 568.8 136.8 576 128 576C119.2 576 112 568.8 112 560L112 400L96 400C43 400 0 357 0 304C0 275 12.9 249 33.1 231.4C32.3 226.4 32 221.2 32 216zM160 368C186.5 368 208 346.5 208 320L208 216C208 176.2 175.8 144 136 144C96.2 144 64 176.2 64 216C64 222.2 64.8 228.3 66.3 234C68 240.5 65.4 247.4 59.9 251.2C43.1 262.8 32.1 282.1 32.1 304C32.1 339.3 60.8 368 96.1 368L112.1 368L112.1 288C112.1 279.2 119.3 272 128.1 272C136.9 272 144.1 279.2 144.1 288L144.1 368L160.1 368z"/></svg>