<svg xmlns="http://www.w3.org/2000/svg" viewBox="0 0 640 640"><!--! Font Awesome Pro 7.1.0 by @fontawesome - https://fontawesome.com License - https://fontawesome.com/license (Commercial License) Copyright 2025 Fonticons, Inc. --><path fill="currentColor" d="M492.3 245.2C496.5 249.9 497.6 256.6 495.1 262.4C492.6 268.2 486.8 271.9 480.5 271.9L433.2 271.9L525.1 390.1C528.8 394.9 529.5 401.5 526.9 406.9C524.3 412.3 518.6 415.9 512.5 415.9L464.5 415.9L565.3 550.3C568.9 555.1 569.5 561.6 566.8 567C564.1 572.4 558.5 575.8 552.5 575.8L88.5 575.8C82.4 575.8 76.9 572.4 74.2 567C71.5 561.6 72.1 555.1 75.7 550.3L176.5 415.9L128.5 415.9C122.4 415.9 116.8 412.4 114.1 406.9C111.4 401.4 112.1 394.9 115.9 390.1L207.8 271.9L160.5 271.9C154.2 271.9 148.4 268.2 145.9 262.4C143.4 256.6 144.4 249.9 148.7 245.2L222.4 164.1C223 164.4 223.7 164.6 224.3 164.9L244.1 172.3L248.2 183.2L196.7 239.9L240.5 239.9C246.6 239.9 252.2 243.4 254.9 248.9C257.6 254.4 256.9 260.9 253.1 265.7L161.2 384L208.5 384C214.6 384 220.1 387.4 222.8 392.8C225.5 398.2 224.9 404.7 221.3 409.5L120.5 544L520.5 544L419.7 409.6C416.1 404.8 415.5 398.3 418.2 392.9C420.9 387.5 426.5 384.1 432.5 384.1L479.8 384.1L387.9 265.9C384.2 261.1 383.5 254.5 386.1 249.1C388.7 243.7 394.4 240.1 400.5 240.1L444.3 240.1L392.7 183.3L396.8 172.4L416.7 165L418.6 164.2L492.4 245.3zM384.5 504C371.2 504 360.5 493.3 360.5 480C360.5 466.7 371.2 456 384.5 456C397.8 456 408.5 466.7 408.5 480C408.5 493.3 397.8 504 384.5 504zM288.5 376C275.2 376 264.5 365.3 264.5 352C264.5 338.7 275.2 328 288.5 328C301.8 328 312.5 338.7 312.5 352C312.5 365.3 301.8 376 288.5 376zM324.4 .3C332.1 1.5 338.9 6.2 342.8 13L344.5 16.6L359.6 56.8L399.9 71.9L403.5 73.6C411.5 78.1 416.5 86.6 416.5 95.9C416.5 106.6 409.9 116.1 399.9 119.9L359.6 135L344.5 175.3C340.7 185.3 331.2 191.9 320.5 191.9C311.2 191.9 302.7 186.8 298.2 178.9L296.5 175.3L281.4 135L241.2 119.9C232.4 116.6 226.3 108.9 224.9 99.8L224.6 95.9L224.9 92C226.3 83 232.5 75.2 241.2 71.9L281.4 56.8L296.5 16.6L298.2 13C302.7 5 311.2 0 320.5 0L324.4 .3zM308.8 74.9C307.2 79.2 303.8 82.7 299.4 84.3L268.2 96L299.4 107.7L302.5 109.2C305.4 111 307.6 113.8 308.8 117L320.5 148.1L332.2 117L333.7 113.9C335.5 111 338.3 108.8 341.5 107.6L372.7 96L341.6 84.3C338.4 83.1 335.6 80.9 333.8 78L332.3 74.9L320.6 43.7L308.9 74.9z"/></svg>