<svg xmlns="http://www.w3.org/2000/svg" viewBox="0 0 640 640"><!--! Font Awesome Pro 7.1.0 by @fontawesome - https://fontawesome.com License - https://fontawesome.com/license (Commercial License) Copyright 2025 Fonticons, Inc. --><path fill="currentColor" d="M432 64C436.9 64 441.5 66.2 444.5 70L572.5 230C576.3 234.8 577.1 241.4 574.4 246.9C571.7 252.4 566.1 256 560 256L519.5 256L604.3 357.8C608.3 362.6 609.1 369.2 606.5 374.8C603.9 380.4 598.2 384 592 384L551.9 384L635.7 485.8L637 487.7C639.8 492.2 640.1 497.9 637.8 502.8C635.2 508.4 629.5 512 623.3 512L448 512L448 560C448 568.8 440.8 576 432 576C423.2 576 416 568.8 416 560L416 512L224 512L224 560C224 568.8 216.8 576 208 576C199.2 576 192 568.8 192 560L192 512L16 512C9.8 512 4.2 508.4 1.5 502.8C-1.2 497.2-.3 490.6 3.6 485.8L87.8 384L48 384C41.8 384 36.1 380.4 33.5 374.8C30.9 369.2 31.8 362.5 35.7 357.8L120.5 256L80 256C73.9 256 68.3 252.5 65.6 246.9C62.9 241.3 63.7 234.8 67.5 230L195.5 70L198.1 67.5C200.9 65.3 204.4 64 208 64C212.9 64 217.5 66.2 220.5 70L348.5 230C352.3 234.8 353.1 241.4 350.4 246.9C347.7 252.4 342.1 256 336 256L295.5 256L380.3 357.8C384.3 362.6 385.1 369.2 382.5 374.8C379.9 380.4 374.2 384 368 384L327.9 384L406.9 480L589.5 480L505.7 378.2C501.8 373.4 500.9 366.8 503.6 361.2C506.3 355.6 511.9 352 518.1 352L557.9 352L473.1 250.2C469.1 245.4 468.3 238.8 470.9 233.2C473.5 227.6 479.2 224 485.4 224L526.7 224L432 105.6L371.2 181.5L350.7 155.9L419.5 70L422.1 67.5C424.9 65.2 428.3 64 432 64zM113.3 224L154.6 224C160.8 224 166.5 227.6 169.1 233.2C171.7 238.8 170.9 245.5 166.9 250.2L82.1 352L121.7 352C127.9 352 133.5 355.6 136.2 361.2C138.9 366.8 138 373.4 134.1 378.2L50 480L365.5 480L281.7 378.2C277.8 373.4 276.9 366.8 279.6 361.2C282.2 355.6 287.9 352 294.1 352L333.9 352L249.1 250.2C245.1 245.4 244.3 238.8 246.9 233.2C249.5 227.6 255.2 224 261.4 224L302.7 224L208 105.6L113.3 224z"/></svg>