<svg xmlns="http://www.w3.org/2000/svg" viewBox="0 0 640 640"><!--! Font Awesome Pro 7.1.0 by @fontawesome - https://fontawesome.com License - https://fontawesome.com/license (Commercial License) Copyright 2025 Fonticons, Inc. --><path fill="currentColor" d="M320 64C366.1 64 405.4 91.8 422.6 131.5C430.7 129.3 439.2 128 448 128C501 128 544 171 544 224C544 243.4 538.2 261.4 528.3 276.4C557.1 296.6 576 330 576 368C576 427.9 528.9 476.9 469.8 479.8L464 480L336 480L336 592C336 600.8 328.8 608 320 608C311.2 608 304 600.8 304 592L304 480L176 480C114.1 480 64 429.9 64 368C64 330.1 82.9 296.7 111.7 276.4C101.8 261.3 96 243.3 96 224C96 171 139 128 192 128C200.8 128 209.3 129.2 217.3 131.5C234.5 91.8 273.9 64 320 64zM320 96C282.7 96 251.4 121.6 242.6 156.2C241.4 160.9 238.2 164.7 233.8 166.8C230.5 168.3 226.8 168.6 223.4 167.8L220.1 166.6C211.6 162.4 202.1 160 192.1 160C156.8 160 128.1 188.7 128.1 224C128.1 241.8 135.4 257.9 147.1 269.5C150.8 273.2 152.5 278.5 151.6 283.6C150.7 288.7 147.3 293.2 142.6 295.4C115 308.1 96 335.8 96 368C96 412.2 131.8 448 176 448L304 448L304 304C304 295.2 311.2 288 320 288C328.8 288 336 295.2 336 304L336 448L464 448L472.2 447.6C512.5 443.5 544 409.4 544 368C544 335.8 525 308.1 497.5 295.4C492.7 293.2 489.4 288.8 488.5 283.6C487.6 278.4 489.3 273.2 493 269.5C504.8 257.9 512.1 241.8 512.1 224C512.1 188.7 483.4 160 448.1 160C440.6 160 433.4 161.4 426.6 163.8L420 166.6C415.7 168.7 410.6 168.8 406.3 166.8C402 164.8 398.7 160.9 397.5 156.2C388.6 121.6 357.3 96 320 96z"/></svg>