<svg xmlns="http://www.w3.org/2000/svg" viewBox="0 0 640 640"><!--! Font Awesome Pro 7.1.0 by @fontawesome - https://fontawesome.com License - https://fontawesome.com/license (Commercial License) Copyright 2025 Fonticons, Inc. --><path fill="currentColor" d="M320 32C324.7 32 329.1 34.1 332.2 37.6L468.2 197.6C472.2 202.4 473.2 209 470.5 214.7C467.8 220.4 462.2 224 456 224L400.2 224L500.2 341.6C504.2 346.4 505.2 353 502.5 358.7C499.8 364.4 494.2 368 488 368L432.2 368L532.2 485.6C536.2 490.4 537.2 497 534.5 502.7C531.8 508.4 526.2 512 520 512L336 512L336 592C336 600.8 328.8 608 320 608C311.2 608 304 600.8 304 592L304 512L120 512C113.8 512 108.1 508.4 105.5 502.7C102.9 497 103.8 490.4 107.8 485.6L207.8 368L152 368C145.8 368 140.1 364.4 137.5 358.7C134.9 353 135.8 346.4 139.8 341.6L239.8 224L184 224C177.8 224 172.1 220.4 169.5 214.7C166.9 209 167.8 202.4 171.8 197.6L307.8 37.6L310.3 35.2C313.1 33.1 316.4 32 320 32zM218.6 192L274.4 192C280.6 192 286.3 195.6 288.9 201.3C291.5 207 290.6 213.6 286.6 218.4L186.6 336L242.4 336C248.6 336 254.3 339.6 256.9 345.3C259.5 351 258.6 357.6 254.6 362.4L154.6 480L485.4 480L385.4 362.4C381.4 357.7 380.4 351 383.1 345.3C385.8 339.6 391.4 336 397.6 336L453.4 336L353.4 218.4C349.4 213.6 348.4 207 351.1 201.3C353.8 195.6 359.4 192 365.6 192L421.4 192L320 72.7L218.6 192z"/></svg>