<svg xmlns="http://www.w3.org/2000/svg" viewBox="0 0 640 640"><!--! Font Awesome Pro 7.1.0 by @fontawesome - https://fontawesome.com License - https://fontawesome.com/license (Commercial License) Copyright 2025 Fonticons, Inc. --><path fill="currentColor" d="M336 48C336 39.2 328.8 32 320 32C311.2 32 304 39.2 304 48L304 83.3C296.2 86.7 289.5 92.6 285.1 100.4L69.1 484.4C62.1 496.8 62.3 511.9 69.4 524.2C76.5 536.5 89.8 544 104 544L536 544C550.2 544 563.4 536.5 570.5 524.2C577.6 511.9 577.8 496.8 570.8 484.4L471.2 307.3L447.7 330.8L542.9 500.1C544.3 502.6 544.3 505.6 542.8 508.1C541.3 510.6 538.7 512.1 535.9 512.1L104 512C101.2 512 98.5 510.5 97.1 508C95.7 505.5 95.6 502.5 97 500L97 500L313 116C314.4 113.5 317.1 111.9 320 111.9C322.9 111.9 325.6 113.5 327 116L327 116L407 258.3L346.6 318.7C338.7 314.4 329.6 312 320 312C289.1 312 264 337.1 264 368C264 398.9 289.1 424 320 424C350.9 424 376 398.9 376 368C376 358.4 373.6 349.3 369.3 341.4C445 265.7 463.9 246.8 563.3 147.4C569.5 141.2 569.5 131 563.3 124.8C557.1 118.6 546.9 118.6 540.7 124.8L430.5 234.9L354.9 100.4C350.6 92.7 343.9 86.8 336 83.3L336 48zM344 368C344 381.3 333.3 392 320 392C306.7 392 296 381.3 296 368C296 354.7 306.7 344 320 344C333.3 344 344 354.7 344 368z"/></svg>