<svg xmlns="http://www.w3.org/2000/svg" viewBox="0 0 640 640"><!--! Font Awesome Pro 7.1.0 by @fontawesome - https://fontawesome.com License - https://fontawesome.com/license (Commercial License) Copyright 2025 Fonticons, Inc. --><path fill="currentColor" d="M327 100.2C325.6 97.6 322.9 96 320 96C317.1 96 314.4 97.6 313 100.2L97 500.2C95.7 502.7 95.7 505.7 97.2 508.1C98.7 510.5 101.2 512 104 512L536 512C538.8 512 541.4 510.5 542.9 508.1C544.4 505.7 544.4 502.7 543.1 500.2L327 100.2zM320 64C334.7 64 348.2 72.1 355.2 85L571.2 485C577.9 497.4 577.6 512.4 570.4 524.5C563.2 536.6 550.1 544 536 544L104 544C89.9 544 76.9 536.6 69.6 524.5C62.3 512.4 62.1 497.4 68.8 485L284.8 85C291.8 72.1 305.3 64 320 64zM240.5 324C242.3 317 248.7 312 256 312L292.2 312C310.4 312 327 322.3 335.1 338.5L345.9 360.1L384.6 383.3L389.9 373.6C396 362.5 411.9 362.5 418 373.6L459 448.3C464.8 459 457.1 472 445 472L363 472C350.8 472 343.1 459 349 448.3L369.2 411.4L325.7 385.3L248.2 342C241.8 338.4 238.7 331 240.5 324zM320 216C337.7 216 352 230.3 352 248C352 265.7 337.7 280 320 280C302.3 280 288 265.7 288 248C288 230.3 302.3 216 320 216zM223.3 370.9C227.6 369.7 232.3 370.3 236.1 372.7L296.4 410.4C301.1 413.3 303.9 418.5 303.9 424L303.9 456C303.9 464.8 296.7 472 287.9 472C279.1 472 271.9 464.8 271.9 456L271.9 432.9L234 409.2L207.2 463.1C203.3 471 193.7 474.2 185.7 470.3C177.7 466.4 174.6 456.8 178.5 448.8L213.2 379.1C215.2 375.1 218.8 372.1 223.2 370.8zM404 414.6L390 440L417.9 440L403.9 414.6z"/></svg>