<svg xmlns="http://www.w3.org/2000/svg" viewBox="0 0 640 640"><!--! Font Awesome Pro 7.1.0 by @fontawesome - https://fontawesome.com License - https://fontawesome.com/license (Commercial License) Copyright 2025 Fonticons, Inc. --><path fill="currentColor" d="M320.5 64C335.2 64 348.7 72.1 355.7 85L571.7 485C578.4 497.4 578.1 512.4 570.9 524.5C563.7 536.6 550.6 544 536.5 544L104.5 544C90.4 544 77.4 536.6 70.2 524.5C63 512.4 62.7 497.4 69.4 485L285.4 85C292.4 72.1 305.9 64 320.6 64zM320.5 96C317.6 96 314.9 97.6 313.5 100.2L97.5 500.2C96.2 502.7 96.2 505.7 97.7 508.1C99.2 510.5 101.8 512 104.6 512L536.6 512C539.4 512 542 510.5 543.5 508.1C545 505.7 545 502.7 543.7 500.2L327.7 100.2C326.3 97.6 323.6 96 320.7 96zM320.5 464C307.2 464 296.5 453.3 296.5 440C296.5 426.7 307.2 416 320.5 416C333.8 416 344.5 426.7 344.5 440C344.5 453.3 333.8 464 320.5 464zM320.5 240C334.1 240 344.8 251.6 343.9 265.1L336.5 369.1C335.9 377.5 328.9 384 320.5 384C312.1 384 305.1 377.5 304.5 369.1L297.1 265.1C296.1 251.5 306.9 240 320.5 240z"/></svg>