<svg xmlns="http://www.w3.org/2000/svg" viewBox="0 0 640 640"><!--! Font Awesome Pro 7.1.0 by @fontawesome - https://fontawesome.com License - https://fontawesome.com/license (Commercial License) Copyright 2025 Fonticons, Inc. --><path fill="currentColor" d="M288 144C288 135.2 295.2 128 304 128L352 128C357.2 128 362.1 130.5 365.1 134.8L502.2 329.6C514.8 323.5 529 320 544 320C597 320 640 363 640 416C640 469 597 512 544 512C491 512 448 469 448 416C448 389.5 458.7 365.5 476.1 348.1L455.6 319L382.1 392.5C367.1 407.5 346.7 415.9 325.5 415.9L222.9 415.9C215.1 470.2 168.5 511.9 112 511.9C50.1 511.9 0 461.8 0 399.9C0 349.7 33 307.3 78.4 293C74.8 287.9 71.9 282.3 69.8 276.1L48.8 213.1C46 204.7 50.5 195.7 58.9 192.9C67.3 190.1 76.3 194.6 79.1 203L100.2 266.2C104.6 279.3 116.8 288.1 130.6 288.1L208 288.1C216.8 288.1 224 295.3 224 304.1C224 312.9 216.8 320.1 208 320.1L190.4 320.1C207.5 336.9 219.3 359.2 222.9 384.1L325.5 384.1C338.2 384.1 350.4 379 359.4 370L436.7 292.7L438 294L343.7 160L304 160C295.2 160 288 152.8 288 144zM192 400C192 355.8 156.2 320 112 320C67.8 320 32 355.8 32 400C32 444.2 67.8 480 112 480C156.2 480 192 444.2 192 400zM544 480C579.3 480 608 451.3 608 416C608 380.7 579.3 352 544 352C508.7 352 480 380.7 480 416C480 451.3 508.7 480 544 480z"/></svg>