<svg xmlns="http://www.w3.org/2000/svg" viewBox="0 0 640 640"><!--! Font Awesome Pro 7.1.0 by @fontawesome - https://fontawesome.com License - https://fontawesome.com/license (Commercial License) Copyright 2025 Fonticons, Inc. --><path fill="currentColor" d="M368 96C359.2 96 352 103.2 352 112C352 120.8 359.2 128 368 128L424 128C437.3 128 448 138.7 448 152L448 154.4C448 162.5 443.9 170 437.2 174.5L234.8 307.3L181.3 224L192 224C200.8 224 208 216.8 208 208C208 199.2 200.8 192 192 192L112 192C103.2 192 96 199.2 96 208C96 216.8 103.2 224 112 224L143.3 224L208 324.6C197.9 321.6 187.2 320 176 320C114.1 320 64 370.1 64 432C64 493.9 114.1 544 176 544C237.9 544 288 493.9 288 432C288 394.6 269.7 361.5 241.5 341.1L376.6 252.4L392.6 300.5C349.6 321.1 319.9 365.1 319.9 415.9C319.9 486.6 377.2 543.9 447.9 543.9C518.6 543.9 575.9 486.6 575.9 415.9C575.9 345.2 518.6 287.9 447.9 287.9C439.3 287.9 431 288.7 422.9 290.3L404.2 234.2L454.6 201.1C470.4 190.7 479.9 173.1 479.9 154.3L479.9 151.9C479.9 121 454.8 95.9 423.9 95.9L367.9 95.9zM402.9 331.2L432.8 421C435.6 429.4 444.7 433.9 453 431.1C461.3 428.3 465.9 419.2 463.1 410.9L433.2 321.1C438 320.4 442.9 320 448 320C501 320 544 363 544 416C544 469 501 512 448 512C395 512 352 469 352 416C352 379.3 372.6 347.4 402.9 331.2zM176 352C220.2 352 256 387.8 256 432C256 476.2 220.2 512 176 512C131.8 512 96 476.2 96 432C96 387.8 131.8 352 176 352z"/></svg>