<svg xmlns="http://www.w3.org/2000/svg" viewBox="0 0 640 640"><!--! Font Awesome Pro 7.1.0 by @fontawesome - https://fontawesome.com License - https://fontawesome.com/license (Commercial License) Copyright 2025 Fonticons, Inc. --><path fill="currentColor" d="M301.6 59.3C312.6 50.8 327.7 50.9 338.7 59.3L341 61.2L352.1 72C364.7 84.7 380.9 102.8 395.5 123.9C401.6 132.8 407.5 142.5 412.7 152.7C426.9 151.5 441.1 151.7 454.4 152.7C480 154.7 503.8 159.8 521.1 164.3L536.1 168.5C551.5 173.2 560.6 188.8 556.9 204.6L553.1 219.7C548.4 236.9 540.9 260 529.8 283.2C524.7 294 518.5 305 511.4 315.6C518.5 326.3 524.6 337.4 529.8 348.2C544.6 379.1 552.9 409.9 556.9 426.8L557.5 429.7C559.3 443.4 551.7 456.5 538.9 461.8L536.1 462.8C519.5 467.8 488.6 475.9 454.5 478.6C441.2 479.6 426.9 479.8 412.6 478.5C407.3 488.8 401.5 498.5 395.4 507.4C376 535.6 353.6 558.3 340.9 570.2L338.6 572.1C327.6 580.6 312.5 580.6 301.5 572.1L299.2 570.2L288 559.4C275.4 546.7 259.2 528.6 244.6 507.5C238.5 498.6 232.6 488.8 227.4 478.6C213.2 479.8 199 479.7 185.7 478.6C160.1 476.6 136.3 471.5 119 467L104 462.8C88.5 458.1 79.5 442.5 83.2 426.7L87 411.6C91.7 394.4 99.2 371.3 110.3 348.1C115.5 337.3 121.6 326.1 128.7 315.5C121.6 304.9 115.4 293.9 110.3 283.1C95.5 252.2 87.2 221.4 83.2 204.5L82.6 201.6C80.8 187.9 88.4 174.8 101.2 169.5L104 168.5C120.6 163.5 151.5 155.4 185.6 152.7C198.9 151.7 213.1 151.5 227.4 152.7C232.7 142.4 238.6 132.7 244.7 123.8C264.1 95.6 286.5 72.9 299.2 61L301.5 59.1zM320.1 436C313.7 443.5 306.3 450.4 297.8 456.2L290.8 460.6C281.3 466.1 271.2 470.1 260.7 473C263.9 478.6 267.4 484.2 271.1 489.6C288.1 514.4 308.1 534.8 320 546.1C332 534.8 351.9 514.4 368.9 489.6C372.6 484.2 376.1 478.6 379.3 473C371.1 470.7 363.1 467.7 355.4 463.8L349.3 460.5C337.9 453.9 328 445.5 319.9 436zM320.2 85.6C308.2 96.9 288.3 117.3 271.3 142.1C253.5 168 240.2 196.8 240.2 224C240.2 237.1 243.3 249.4 248.9 260.2C251.4 265.2 251.2 271.1 248.3 275.8C245.4 280.5 240.2 283.4 234.6 283.4C222.8 283.4 210.8 286.1 199.5 291.6L194.7 294.2C171.1 307.8 152.8 333.7 139.3 362.1C126.3 389.2 118.6 416.7 114.8 432.7C130.6 437.4 158.2 444.5 188.2 446.9C219.5 449.3 251.1 446.5 274.7 432.8L279.7 429.6C291.1 421.9 299.9 411.6 305.8 400.1L307 398.2C310 394 314.8 391.4 320.1 391.4C326.1 391.4 331.6 394.8 334.3 400.1C341.1 413.3 351.6 424.8 365.4 432.8L369.9 435.2C392.9 446.7 422.5 449.1 451.9 446.9C481.9 444.6 509.5 437.5 525.3 432.7C521.5 416.7 513.8 389.2 500.9 362.1C488.2 335.5 471.3 311.1 449.8 296.9L445.4 294.2C432.8 287 419.2 283.5 405.7 283.4C400.2 283.4 395 280.5 392.1 275.7C389.2 270.9 389 265.1 391.5 260.1C397 249.2 400.2 236.9 400.2 223.9L400 218.8C398.5 193.1 385.8 166.3 369.1 142C352.1 117.2 332.1 96.8 320.2 85.5zM320.2 360C289.3 360 264.2 334.9 264.2 304C264.2 273.1 289.3 248 320.2 248C351.1 248 376.2 273.1 376.2 304C376.2 334.9 351.1 360 320.2 360zM320.2 280C306.9 280 296.2 290.7 296.2 304C296.2 317.3 306.9 328 320.2 328C333.5 328 344.2 317.3 344.2 304C344.2 290.7 333.5 280 320.2 280zM214.5 184.2C205.9 183.9 197 184.1 188.3 184.8C158.3 187.1 130.7 194.2 114.9 199C118.7 215 126.4 242.5 139.3 269.6C142.5 276.4 146.1 283 149.9 289.4C158.4 280.6 168 272.8 178.7 266.6L185.4 263C194.1 258.7 203.1 255.7 212.2 253.8C209.6 244.3 208.1 234.3 208.1 224C208.1 210.4 210.4 197 214.4 184.2zM425.8 184.2C429.8 197.1 432.2 210.5 432.2 224L432 230.8C431.5 238.7 430.2 246.4 428.1 253.8C439.5 256.2 450.8 260.4 461.4 266.5L467.3 270.1C475.7 275.6 483.2 282.1 490.2 289.3C494 282.9 497.6 276.3 500.9 269.5C513.9 242.4 521.6 214.9 525.4 198.9C509.6 194.2 482 187.1 452 184.7C443.2 184 434.5 183.8 425.8 184.1z"/></svg>