<svg xmlns="http://www.w3.org/2000/svg" viewBox="0 0 640 640"><!--! Font Awesome Pro 7.1.0 by @fontawesome - https://fontawesome.com License - https://fontawesome.com/license (Commercial License) Copyright 2025 Fonticons, Inc. --><path fill="currentColor" d="M53.2 164.7C59.4 158.5 69.6 158.5 75.8 164.7L219.8 308.7L221.9 311.2C226 317.4 225.3 325.9 219.8 331.3L75.8 475.3L73.3 477.4C67.1 481.5 58.6 480.8 53.2 475.3C47.8 469.8 47 461.4 51.1 455.2L53.2 452.7L185.9 320L53.2 187.3C47 181.1 47 170.9 53.2 164.7zM245.2 164.7C251.4 158.5 261.6 158.5 267.8 164.7L411.8 308.7L413.9 311.2C418 317.4 417.3 325.9 411.8 331.3L267.8 475.3L265.3 477.4C259.1 481.5 250.6 480.8 245.2 475.3C239.8 469.8 239 461.4 243.1 455.2L245.2 452.7L377.9 320L245.2 187.3C239 181.1 239 170.9 245.2 164.7zM437.2 164.7C443.4 158.5 453.6 158.5 459.8 164.7L603.8 308.7L605.9 311.2C610 317.4 609.3 325.9 603.8 331.3L459.8 475.3L457.3 477.4C451.1 481.5 442.6 480.8 437.2 475.3C431.7 469.8 431 461.4 435.1 455.2L437.2 452.7L569.9 320L437.2 187.3C431 181.1 431 170.9 437.2 164.7z"/></svg>