<svg xmlns="http://www.w3.org/2000/svg" viewBox="0 0 640 640"><!--! Font Awesome Pro 7.1.0 by @fontawesome - https://fontawesome.com License - https://fontawesome.com/license (Commercial License) Copyright 2025 Fonticons, Inc. --><path fill="currentColor" d="M311.2 418.6C317.4 414.5 325.9 415.2 331.3 420.7L475.3 564.7L477.4 567.2C481.5 573.4 480.8 581.9 475.3 587.3C469.8 592.7 461.4 593.5 455.2 589.4L452.7 587.3L320 454.6L187.3 587.3C181.1 593.5 170.9 593.5 164.7 587.3C158.5 581.1 158.5 570.9 164.7 564.7L308.7 420.7L311.2 418.6zM311.2 226.6C317.4 222.5 325.9 223.2 331.3 228.7L475.3 372.7L477.4 375.2C481.5 381.4 480.8 389.9 475.3 395.3C469.8 400.7 461.4 401.5 455.2 397.4L452.7 395.3L320 262.6L187.3 395.3C181.1 401.5 170.9 401.5 164.7 395.3C158.5 389.1 158.5 378.9 164.7 372.7L308.7 228.7L311.2 226.6zM311.2 34.6C317.4 30.5 325.9 31.2 331.3 36.7L475.3 180.7L477.4 183.2C481.5 189.4 480.8 197.9 475.3 203.3C469.8 208.7 461.4 209.5 455.2 205.4L452.7 203.3L320 70.6L187.3 203.3C181.1 209.5 170.9 209.5 164.7 203.3C158.5 197.1 158.5 186.9 164.7 180.7L308.7 36.7L311.2 34.6z"/></svg>