<svg xmlns="http://www.w3.org/2000/svg" viewBox="0 0 640 640"><!--! Font Awesome Pro 7.1.0 by @fontawesome - https://fontawesome.com License - https://fontawesome.com/license (Commercial License) Copyright 2025 Fonticons, Inc. --><path fill="currentColor" d="M452.7 436.7C458.9 430.5 469.1 430.5 475.3 436.7C481.5 442.9 481.5 453.1 475.3 459.3L331.3 603.3L328.8 605.4C322.6 609.5 314.1 608.8 308.7 603.3L164.7 459.3L162.6 456.8C158.5 450.6 159.2 442.1 164.7 436.7C170.2 431.2 178.6 430.5 184.8 434.6L187.3 436.7L320 569.4L452.7 436.7zM452.7 244.7C458.9 238.5 469.1 238.5 475.3 244.7C481.5 250.9 481.5 261.1 475.3 267.3L331.3 411.3L328.8 413.4C322.6 417.5 314.1 416.8 308.7 411.3L164.7 267.3L162.6 264.8C158.5 258.6 159.2 250.1 164.7 244.7C170.2 239.2 178.6 238.5 184.8 242.6L187.3 244.7L320 377.4L452.7 244.7zM452.7 52.7C458.9 46.5 469.1 46.5 475.3 52.7C481.5 58.9 481.5 69.1 475.3 75.3L331.3 219.3L328.8 221.4C322.6 225.5 314.1 224.8 308.7 219.3L164.7 75.3L162.7 72.8C158.6 66.6 159.3 58.1 164.8 52.7C170.3 47.2 178.7 46.5 184.9 50.6L187.4 52.7L320 185.4L452.7 52.7z"/></svg>