<svg xmlns="http://www.w3.org/2000/svg" viewBox="0 0 640 640"><!--! Font Awesome Pro 7.1.0 by @fontawesome - https://fontawesome.com License - https://fontawesome.com/license (Commercial License) Copyright 2025 Fonticons, Inc. --><path fill="currentColor" d="M183.7 162.6C189.9 158.5 198.4 159.2 203.8 164.7C209.3 170.2 210 178.6 205.9 184.8L203.8 187.3L71.1 320L203.8 452.7C210 458.9 210 469.1 203.8 475.3C197.6 481.5 187.4 481.5 181.2 475.3L37.2 331.3L35.1 328.8C31 322.6 31.7 314.1 37.2 308.7L181.2 164.7L183.7 162.6zM375.7 162.6C381.9 158.5 390.4 159.2 395.8 164.7C401.2 170.2 402 178.6 397.9 184.8L395.8 187.3L263.1 320L395.8 452.7C402 458.9 402 469.1 395.8 475.3C389.6 481.5 379.4 481.5 373.2 475.3L229.2 331.3L227.1 328.8C223 322.6 223.7 314.1 229.2 308.7L373.2 164.7L375.7 162.6zM567.7 162.6C573.9 158.5 582.4 159.2 587.8 164.7C593.2 170.2 594 178.6 589.9 184.8L587.8 187.3L455.1 320L587.8 452.7C594 458.9 594 469.1 587.8 475.3C581.6 481.5 571.4 481.5 565.2 475.3L421.2 331.3L419.1 328.8C415 322.6 415.7 314.1 421.2 308.7L565.2 164.7L567.7 162.6z"/></svg>