<svg xmlns="http://www.w3.org/2000/svg" viewBox="0 0 640 640"><!--! Font Awesome Pro 7.1.0 by @fontawesome - https://fontawesome.com License - https://fontawesome.com/license (Commercial License) Copyright 2025 Fonticons, Inc. --><path fill="currentColor" d="M587.8 52.2C614.7 79.1 614.7 122.7 587.8 149.7L492.4 245.1C477.8 259.7 454.2 259.7 439.6 245.1L428.6 234.1L294.6 368.1L379.3 452.8C383.2 456.7 384.8 462.4 383.6 467.8C382.4 473.2 378.3 477.5 373.1 479.3L85.1 575.3C79.4 577.2 73 575.7 68.7 571.4C64.4 567.1 62.9 560.8 64.8 555L160.8 267C162.6 261.7 166.9 257.8 172.3 256.5C177.7 255.2 183.4 256.8 187.3 260.8L272 345.5L406 211.5L395 200.5C380.4 185.9 380.4 162.3 395 147.7L490.4 52.3C517.3 25.4 560.9 25.4 587.9 52.3zM417.6 170.2C415.5 172.3 415.5 175.7 417.6 177.7L462.3 222.4C464.4 224.5 467.8 224.5 469.8 222.4L565.2 127C579.6 112.6 579.6 89.2 565.2 74.8C550.8 60.4 527.4 60.4 513 74.8L417.6 170.2zM105.3 534.7L338.4 457L183 301.6L105.3 534.7z"/></svg>