<svg xmlns="http://www.w3.org/2000/svg" viewBox="0 0 640 640"><!--! Font Awesome Pro 7.1.0 by @fontawesome - https://fontawesome.com License - https://fontawesome.com/license (Commercial License) Copyright 2025 Fonticons, Inc. --><path fill="currentColor" d="M239.9 80.2L95.6 164.4C74.4 176.7 74.4 207.3 95.6 219.7L239.8 303.8C261.1 316.2 287.9 300.9 287.9 276.2L287.9 208.1L559.9 208.1C568.7 208.1 575.9 200.9 575.9 192.1C575.9 183.3 568.7 176.1 559.9 176.1L287.9 176.1L287.9 108C287.9 83.3 261.1 67.9 239.8 80.4zM256 107.9L256 276.1L111.8 192L256 107.9zM352 448L544 448L544 528C544 536.8 536.8 544 528 544L320 544L320 448L352 448zM288 448L288 544L112 544C103.2 544 96 536.8 96 528L96 464C96 455.2 103.2 448 112 448L288 448zM544 416L384 416L384 336C384 327.2 391.2 320 400 320L528 320C536.8 320 544 327.2 544 336L544 416zM352 336L352 416L112 416C85.5 416 64 437.5 64 464L64 528C64 554.5 85.5 576 112 576L528 576C554.5 576 576 554.5 576 528L576 336C576 309.5 554.5 288 528 288L400 288C373.5 288 352 309.5 352 336z"/></svg>