<svg xmlns="http://www.w3.org/2000/svg" viewBox="0 0 640 640"><!--! Font Awesome Pro 7.1.0 by @fontawesome - https://fontawesome.com License - https://fontawesome.com/license (Commercial License) Copyright 2025 Fonticons, Inc. --><path fill="currentColor" d="M96 128C78.3 128 64 142.3 64 160L64 400C64 406.8 68.2 412.6 74.2 414.9C89 387 118.3 368 152 368C186.2 368 215.8 387.5 230.4 416L384 416L384 160C384 142.3 369.7 128 352 128L96 128zM0 224C0 206.3 14.3 192 32 192L32 160C32 124.7 60.7 96 96 96L352 96C387.3 96 416 124.7 416 160L440.6 160C466 160 489 175.1 499.2 198.3L531.4 272L559.9 272C586.4 272 607.9 293.5 607.9 320L607.9 400C607.9 426.5 586.4 448 559.9 448L559.5 448C559.7 450.6 559.9 453.3 559.9 456C559.9 504.6 520.5 544 471.9 544C423.3 544 383.9 504.6 383.9 456C383.9 453.3 384 450.6 384.3 448L239.6 448C239.8 450.6 240 453.3 240 456C240 504.6 200.6 544 152 544C103.4 544 64 504.6 64 456C64 452.4 64.2 448.9 64.6 445.5C45.6 439.1 32 421.1 32 400L32 352C14.3 352 0 337.7 0 320L0 224zM416 388.1C431.2 375.5 450.7 368 472 368C506.2 368 535.8 387.5 550.4 416L560 416C568.8 416 576 408.8 576 400L576 320C576 311.2 568.8 304 560 304L416 304L416 388.1zM416 272L496.5 272L469.9 211.2C464.8 199.6 453.3 192 440.6 192L416 192L416 272zM152 512C182.9 512 208 486.9 208 456C208 425.1 182.9 400 152 400C121.1 400 96 425.1 96 456C96 486.9 121.1 512 152 512zM528 456C528 425.1 502.9 400 472 400C441.1 400 416 425.1 416 456C416 486.9 441.1 512 472 512C502.9 512 528 486.9 528 456zM269.3 199.1L304 251.1L304 207.9C304 199.1 311.2 191.9 320 191.9C328.8 191.9 336 199.1 336 207.9L336 303.9C336 311 331.4 317.2 324.6 319.2C317.8 321.2 310.6 318.6 306.7 312.8L272 260.8L272 304C272 312.8 264.8 320 256 320C247.2 320 240 312.8 240 304L240 208C240 200.9 244.6 194.7 251.4 192.7C258.2 190.7 265.4 193.3 269.3 199.1zM144 208L144 272C144 280.8 151.2 288 160 288C168.8 288 176 280.8 176 272L176 208C176 199.2 183.2 192 192 192C200.8 192 208 199.2 208 208L208 272C208 298.5 186.5 320 160 320C133.5 320 112 298.5 112 272L112 208C112 199.2 119.2 192 128 192C136.8 192 144 199.2 144 208z"/></svg>