<svg xmlns="http://www.w3.org/2000/svg" viewBox="0 0 640 640"><!--! Font Awesome Pro 7.1.0 by @fontawesome - https://fontawesome.com License - https://fontawesome.com/license (Commercial License) Copyright 2025 Fonticons, Inc. --><path fill="currentColor" d="M416 96C380.7 96 352 124.7 352 160L352 452.1L43.4 544.7C34.9 547.2 30.1 556.1 32.7 564.6C35.3 573.1 44.2 577.9 52.6 575.3L370.4 480L432.4 480C432.2 482.6 432 485.3 432 488C432 536.6 471.4 576 520 576C568.6 576 608 536.6 608 488C608 439.4 568.6 400 520 400C485.8 400 456.2 419.5 441.6 448L384 448L384 160C384 142.3 398.3 128 416 128L608 128L608 96L416 96zM464 488C464 457.1 489.1 432 520 432C550.9 432 576 457.1 576 488C576 518.9 550.9 544 520 544C489.1 544 464 518.9 464 488zM102.9 240.4C69.1 250.7 50.1 286.5 60.4 320.3C71.3 356 82.2 391.7 93.1 427.4L97.8 442.7C103 459.6 120.9 469.1 137.8 463.9L304 413.1L304 379.6L128.5 433.3C127.3 429.5 120.3 406.5 107.4 364.4C103.5 351.7 110.7 338.3 123.3 334.4C135.9 330.5 149.4 337.7 153.3 350.3L155.6 358C158.2 366.5 167.1 371.2 175.6 368.6L304 329.4L304 295.9L304 295.9L181.1 333.5C169.5 308.7 141 295.6 114.1 303.8C105.9 306.3 98.7 310.5 92.7 316L91.1 310.8C85.9 293.9 95.4 276 112.3 270.8L304 212.2L304 178.7L102.9 240.2z"/></svg>