<svg xmlns="http://www.w3.org/2000/svg" viewBox="0 0 640 640"><!--! Font Awesome Pro 7.1.0 by @fontawesome - https://fontawesome.com License - https://fontawesome.com/license (Commercial License) Copyright 2025 Fonticons, Inc. --><path fill="currentColor" d="M421.1 145.7L476.3 256L272.1 256L272.1 128L392.5 128C404.6 128 415.7 134.8 421.1 145.7zM240 128L240 256L71.3 256L123.6 146.2C128.8 135.1 140.1 128 152.4 128L240 128zM496 288L544 288C561.7 288 576 302.3 576 320L576 384C576 399.6 564.9 412.6 550.1 415.4C535.4 387.2 506 368 472 368C437.8 368 408.2 387.5 393.6 416L246.4 416C231.8 387.5 202.2 368 168 368C134 368 104.6 387.2 89.9 415.4C75.1 412.6 64 399.6 64 384L64 288L496 288zM559.5 446.1C587.3 439.2 608 414 608 384L608 320C608 284.7 579.3 256 544 256L512 256L449.7 131.4C438.8 109.7 416.7 96 392.4 96L152.4 96C127.7 96 105.2 110.2 94.6 132.5L41.3 244.4C35.2 257.3 32 271.4 32 285.7L32 384C32 414 52.7 439.2 80.5 446.1C80.1 449.3 80 452.6 80 456C80 504.6 119.4 544 168 544C216.6 544 256 504.6 256 456C256 453.3 255.9 450.6 255.6 448L384.3 448C384.1 450.6 383.9 453.3 383.9 456C383.9 504.6 423.3 544 471.9 544C520.5 544 559.9 504.6 559.9 456C559.9 452.7 559.7 449.4 559.4 446.1zM112 456C112 425.1 137.1 400 168 400C198.9 400 224 425.1 224 456C224 486.9 198.9 512 168 512C137.1 512 112 486.9 112 456zM472 400C502.9 400 528 425.1 528 456C528 486.9 502.9 512 472 512C441.1 512 416 486.9 416 456C416 425.1 441.1 400 472 400z"/></svg>