<svg xmlns="http://www.w3.org/2000/svg" viewBox="0 0 640 640"><!--! Font Awesome Pro 7.1.0 by @fontawesome - https://fontawesome.com License - https://fontawesome.com/license (Commercial License) Copyright 2025 Fonticons, Inc. --><path fill="currentColor" d="M224 64C241.7 64 256 78.3 256 96L256 140.1C265.6 132.4 276.4 126 288 121.3L288 96C288 60.7 259.3 32 224 32C188.7 32 160 60.7 160 96L160 170L3.9 349.5C1.4 352.4 0 356.1 0 360L0 432C0 437.4 2.8 442.5 7.3 445.4C11.8 448.3 17.6 448.8 22.6 446.6L160 384.8L160 449.4L100.7 508.7C97.7 511.7 96 515.8 96 520L96 560C96 565 98.4 569.8 102.4 572.8C106.4 575.8 111.6 576.8 116.4 575.4L224.2 544.6L240.1 548.8L240.1 516.6C239.7 516.2 239.4 515.8 239 515.4L228.2 512.5C225.4 511.8 222.5 511.8 219.7 512.6L128.1 538.8L128.1 526.6L187.4 467.3C190.4 464.3 192.1 460.2 192.1 456L192.1 96C192.1 78.3 206.4 64 224.1 64zM32 366L160 218.8L160 349.7L32 407.3L32 366zM560 192C586.5 192 608 213.5 608 240L608 352C598.7 345 587.8 340 576 337.6L576 288C576 261.5 554.5 240 528 240L368 240C341.5 240 320 261.5 320 288L320 337.6C308.2 340 297.3 345 288 352L288 240C288 213.5 309.5 192 336 192L560 192zM544 336L352 336L352 288C352 279.2 359.2 272 368 272L528 272C536.8 272 544 279.2 544 288L544 336zM640 416L640 240C640 195.8 604.2 160 560 160L336 160C291.8 160 256 195.8 256 240L256 432C256 458.2 268.6 481.4 288 496L288 560C288 568.8 295.2 576 304 576C312.8 576 320 568.8 320 560L320 510.4C325.2 511.4 330.5 512 336 512L560 512C565.5 512 570.8 511.4 576 510.4L576 560C576 568.8 583.2 576 592 576C600.8 576 608 568.8 608 560L608 496C627.4 481.4 640 458.2 640 432L640 416zM608 416L608 432C608 458.5 586.5 480 560 480L336 480C309.5 480 288 458.5 288 432L288 416C288 389.5 309.5 368 336 368L560 368C586.5 368 608 389.5 608 416zM352 448C365.3 448 376 437.3 376 424C376 410.7 365.3 400 352 400C338.7 400 328 410.7 328 424C328 437.3 338.7 448 352 448zM568 424C568 410.7 557.3 400 544 400C530.7 400 520 410.7 520 424C520 437.3 530.7 448 544 448C557.3 448 568 437.3 568 424z"/></svg>