<svg xmlns="http://www.w3.org/2000/svg" viewBox="0 0 640 640"><!--! Font Awesome Pro 7.1.0 by @fontawesome - https://fontawesome.com License - https://fontawesome.com/license (Commercial License) Copyright 2025 Fonticons, Inc. --><path fill="currentColor" d="M16 96C7.2 96 0 103.2 0 112C0 120.8 7.2 128 16 128L32 128L32 224L16 224C7.2 224 0 231.2 0 240C0 248.8 7.2 256 16 256L336 256C344.8 256 352 248.8 352 240C352 231.2 344.8 224 336 224L304 224L304 128L336 128C344.8 128 352 120.8 352 112C352 103.2 344.8 96 336 96L16 96zM272 128L272 224L224 224L224 128L272 128zM192 128L192 224L144 224L144 128L192 128zM112 128L112 224L64 224L64 128L112 128zM384 336L576 336L576 416C576 433.7 561.7 448 544 448L543.6 448C539.6 403.1 501.9 368 456 368C410.1 368 372.4 403.1 368.4 448L271.7 448C267.7 403.1 230 368 184.1 368C138.2 368 100.5 403.1 96.5 448L80 448C71.2 448 64 440.8 64 432L64 352C64 343.2 71.2 336 80 336L384 336zM384 304L80 304C53.5 304 32 325.5 32 352L32 432C32 458.5 53.5 480 80 480L99.3 480C109.7 516.9 143.7 544 184 544C224.3 544 258.2 516.9 268.7 480L371.3 480C381.7 516.9 415.7 544 456 544C496.3 544 530.2 516.9 540.7 480L544 480C579.3 480 608 451.3 608 416L608 320.6C608 309.2 605 298.5 599.9 289.5L546.2 192.9C535 172.6 513.6 160 490.3 160L416 160C398.3 160 384 174.3 384 192L384 304zM416 304L416 192L490.3 192C501.9 192 512.6 198.3 518.3 208.5L571.4 304L416 304zM128 456C128 425.1 153.1 400 184 400C214.9 400 240 425.1 240 456C240 486.9 214.9 512 184 512C153.1 512 128 486.9 128 456zM456 400C486.9 400 512 425.1 512 456C512 486.9 486.9 512 456 512C425.1 512 400 486.9 400 456C400 425.1 425.1 400 456 400z"/></svg>