<svg xmlns="http://www.w3.org/2000/svg" viewBox="0 0 640 640"><!--! Font Awesome Pro 7.1.0 by @fontawesome - https://fontawesome.com License - https://fontawesome.com/license (Commercial License) Copyright 2025 Fonticons, Inc. --><path fill="currentColor" d="M490.3 160C513.5 160 535 172.6 546.2 192.9L599.9 289.5C604.9 298.5 608 309.1 608 320.6L608 416C608 451.3 579.3 480 544 480L540.7 480C530.3 516.9 496.3 544 456 544C415.7 544 381.8 516.9 371.3 480L268.7 480C258.3 516.9 224.3 544 184 544C143.7 544 109.8 516.9 99.3 480L80 480C53.5 480 32 458.5 32 432L32 352C32 325.5 53.5 304 80 304L384 304L384 192C384 174.3 398.3 160 416 160L490.3 160zM416 304L571.4 304L518.3 208.5C512.7 198.3 502 192 490.3 192L416 192L416 304zM576 336L80 336C71.2 336 64 343.2 64 352L64 432C64 440.8 71.2 448 80 448L96.4 448C100.4 403.1 138.1 368 184 368C229.9 368 267.6 403.1 271.6 448L368.3 448C372.3 403.1 410 368 455.9 368C501.8 368 539.5 403.1 543.5 448L543.9 448C561.6 448 575.9 433.7 575.9 416L575.9 336zM240 456C240 425.1 214.9 400 184 400C153.1 400 128 425.1 128 456C128 486.9 153.1 512 184 512C214.9 512 240 486.9 240 456zM456 512C486.9 512 512 486.9 512 456C512 425.1 486.9 400 456 400C425.1 400 400 425.1 400 456C400 486.9 425.1 512 456 512z"/></svg>