<svg xmlns="http://www.w3.org/2000/svg" viewBox="0 0 640 640"><!--! Font Awesome Pro 7.1.0 by @fontawesome - https://fontawesome.com License - https://fontawesome.com/license (Commercial License) Copyright 2025 Fonticons, Inc. --><path fill="currentColor" d="M416 96C380.7 96 352 124.7 352 160L352 452.1L43.4 544.7C34.9 547.2 30.1 556.1 32.7 564.6C35.3 573.1 44.2 577.9 52.6 575.3L370.4 480L432.4 480C432.2 482.6 432 485.3 432 488C432 536.6 471.4 576 520 576C568.6 576 608 536.6 608 488C608 439.4 568.6 400 520 400C485.8 400 456.2 419.5 441.6 448L384 448L384 160C384 142.3 398.3 128 416 128L608 128L608 96L416 96zM464 488C464 457.1 489.1 432 520 432C550.9 432 576 457.1 576 488C576 518.9 550.9 544 520 544C489.1 544 464 518.9 464 488zM93.2 244.1L185 216C201.9 210.8 219.8 220.3 225 237.2L253.1 329C258.3 345.9 248.8 363.8 231.9 369L140 397.1C123.1 402.3 105.2 392.8 100 375.9L72 284C66.8 267.1 76.3 249.2 93.2 244zM41.4 293.4L69.5 385.2C79.8 419 115.6 438 149.4 427.7L241.2 399.6C275 389.3 294 353.5 283.7 319.7L255.6 227.9C245.3 194.1 209.5 175.1 175.7 185.4L83.9 213.5C50.1 223.8 31.1 259.6 41.4 293.4z"/></svg>