<svg xmlns="http://www.w3.org/2000/svg" viewBox="0 0 640 640"><!--! Font Awesome Pro 7.1.0 by @fontawesome - https://fontawesome.com License - https://fontawesome.com/license (Commercial License) Copyright 2025 Fonticons, Inc. --><path fill="currentColor" d="M384 128C401.7 128 416 142.3 416 160L416 409.6C389.8 423 371.1 449.2 368.4 480L271.7 480C267.7 435.1 230 400 184.1 400C138.2 400 100.5 435.1 96.5 480L96.1 480C78.4 480 64.1 465.7 64.1 448L64 160C64 142.3 78.3 128 96 128L384 128zM448 400.4L448 352L576 352L576 448C576 465.7 561.7 480 544 480L543.6 480C539.6 435.1 501.9 400 456 400C453.3 400 450.6 400.1 448 400.4zM576 291.9L576 320L448 320L448 224L508.1 224C516.6 224 524.7 227.4 530.7 233.4L566.6 269.3C572.6 275.3 576 283.4 576 291.9zM96 512L99.3 512C109.7 548.9 143.7 576 184 576C224.3 576 258.2 548.9 268.7 512L371.3 512C381.7 548.9 415.7 576 456 576C496.3 576 530.2 548.9 540.7 512L544 512C579.3 512 608 483.3 608 448L608 291.9C608 274.9 601.3 258.6 589.3 246.6L553.4 210.7C541.4 198.7 525.1 192 508.1 192L448 192L448 160C448 124.7 419.3 96 384 96L96 96C60.7 96 32 124.7 32 160L32 448C32 483.3 60.7 512 96 512zM128 488C128 457.1 153.1 432 184 432C214.9 432 240 457.1 240 488C240 518.9 214.9 544 184 544C153.1 544 128 518.9 128 488zM400 488C400 457.1 425.1 432 456 432C486.9 432 512 457.1 512 488C512 518.9 486.9 544 456 544C425.1 544 400 518.9 400 488zM331.3 283.3C337.5 277.1 337.5 266.9 331.3 260.7L259.3 188.7C253.1 182.5 242.9 182.5 236.7 188.7C230.5 194.9 230.5 205.1 236.7 211.3L281.4 256L160 256C151.2 256 144 263.2 144 272C144 280.8 151.2 288 160 288L281.4 288L236.7 332.7C230.5 338.9 230.5 349.1 236.7 355.3C242.9 361.5 253.1 361.5 259.3 355.3L331.3 283.3z"/></svg>