<svg xmlns="http://www.w3.org/2000/svg" viewBox="0 0 640 640"><!--! Font Awesome Pro 7.1.0 by @fontawesome - https://fontawesome.com License - https://fontawesome.com/license (Commercial License) Copyright 2025 Fonticons, Inc. --><path fill="currentColor" d="M384 128C401.7 128 416 142.3 416 160L416 409.6C389.8 423 371.1 449.2 368.4 480L271.7 480C267.7 435.1 230 400 184.1 400C138.2 400 100.5 435.1 96.5 480L96.1 480C78.4 480 64.1 465.7 64.1 448L64 160C64 142.3 78.3 128 96 128L384 128zM448 400.4L448 352L576 352L576 448C576 465.7 561.7 480 544 480L543.6 480C539.6 435.1 501.9 400 456 400C453.3 400 450.6 400.1 448 400.4zM576 291.9L576 320L448 320L448 224L508.1 224C516.6 224 524.7 227.4 530.7 233.4L566.6 269.3C572.6 275.3 576 283.4 576 291.9zM96 512L99.3 512C109.7 548.9 143.7 576 184 576C224.3 576 258.2 548.9 268.7 512L371.3 512C381.7 548.9 415.7 576 456 576C496.3 576 530.2 548.9 540.7 512L544 512C579.3 512 608 483.3 608 448L608 291.9C608 274.9 601.3 258.6 589.3 246.6L553.4 210.7C541.4 198.7 525.1 192 508.1 192L448 192L448 160C448 124.7 419.3 96 384 96L96 96C60.7 96 32 124.7 32 160L32 448C32 483.3 60.7 512 96 512zM128 488C128 457.1 153.1 432 184 432C214.9 432 240 457.1 240 488C240 518.9 214.9 544 184 544C153.1 544 128 518.9 128 488zM400 488C400 457.1 425.1 432 456 432C486.9 432 512 457.1 512 488C512 518.9 486.9 544 456 544C425.1 544 400 518.9 400 488zM240 256L240 192C240 183.2 232.8 176 224 176C215.2 176 208 183.2 208 192L208 256L192 256L192 192C192 183.2 184.8 176 176 176C167.2 176 160 183.2 160 192L160 256L144 256L144 192C144 183.2 136.8 176 128 176C119.2 176 112 183.2 112 192L112 256C112 282.5 133.5 304 160 304L160 352C160 360.8 167.2 368 176 368C184.8 368 192 360.8 192 352L192 304C218.5 304 240 282.5 240 256zM320 216L320 320L288 320L288 248C288 228.6 301.7 212.5 320 208.8L320 216zM320 352L320 400C320 408.8 327.2 416 336 416C344.8 416 352 408.8 352 400L352 200C352 186.7 341.3 176 328 176C288.2 176 256 208.2 256 248L256 320C256 337.7 270.3 352 288 352L320 352z"/></svg>