<svg xmlns="http://www.w3.org/2000/svg" viewBox="0 0 640 640"><!--! Font Awesome Pro 7.1.0 by @fontawesome - https://fontawesome.com License - https://fontawesome.com/license (Commercial License) Copyright 2025 Fonticons, Inc. --><path fill="currentColor" d="M256 128L256 224L456 224L393.6 140.8C387.6 132.7 378.1 128 368 128L256 128zM224 224L224 128C224 110.3 238.3 96 256 96L368 96C388.1 96 407.1 105.5 419.2 121.6L496 224L560 224C586.5 224 608 245.5 608 272L608 336C608 352.9 599.3 367.8 586.1 376.3C599.9 396.8 608 421.4 608 448C608 518.7 550.7 576 480 576C409.3 576 352 518.7 352 448C352 424.7 358.2 402.8 369.1 384L270.9 384C281.8 402.8 288 424.7 288 448C288 518.7 230.7 576 160 576C89.3 576 32 518.7 32 448C32 421.4 40.1 396.8 53.9 376.3C40.7 367.8 32 352.9 32 336L32 272C32 245.5 53.5 224 80 224L224 224zM395.3 352C417.9 332.1 447.5 320 480 320C512.2 320 541.6 331.9 564.1 351.5C571 349.7 576 343.5 576 336L576 272C576 263.2 568.8 256 560 256L80 256C71.2 256 64 263.2 64 272L64 336C64 343.4 69.1 349.7 75.9 351.5C98.4 331.9 127.8 320 160 320C192.5 320 222.1 332.1 244.7 352L395.4 352zM160 528C168.4 528 175.3 534.5 175.9 542.7C190.5 540.3 204 534.5 215.6 526.2C210.3 519.9 210.6 510.5 216.5 504.5C222.4 498.5 231.9 498.3 238.2 503.6C246.5 492 252.2 478.5 254.7 463.9C246.5 463.2 240 456.3 240 448C240 439.7 246.5 432.7 254.7 432.1C252.3 417.5 246.5 404 238.2 392.4C231.9 397.7 222.5 397.4 216.5 391.5C210.5 385.6 210.3 376.1 215.6 369.8C204 361.5 190.5 355.8 175.9 353.3C175.2 361.5 168.3 368 160 368C151.7 368 144.7 361.5 144.1 353.3C129.5 355.7 116 361.5 104.4 369.8C109.7 376.1 109.4 385.5 103.5 391.5C97.6 397.5 88.1 397.7 81.8 392.4C73.5 404 67.8 417.5 65.3 432.1C73.5 432.8 80 439.7 80 448C80 456.3 73.5 463.3 65.3 463.9C67.7 478.5 73.5 492 81.8 503.6C88.1 498.3 97.5 498.6 103.5 504.5C109.5 510.4 109.7 519.9 104.4 526.2C116 534.5 129.5 540.2 144.1 542.7C144.8 534.5 151.7 528 160 528zM160 384C195.3 384 224 412.7 224 448C224 483.3 195.3 512 160 512C124.7 512 96 483.3 96 448C96 412.7 124.7 384 160 384zM192 448C192 430.3 177.7 416 160 416C142.3 416 128 430.3 128 448C128 465.7 142.3 480 160 480C177.7 480 192 465.7 192 448zM464.1 542.7C464.8 534.5 471.7 528 480 528C488.3 528 495.3 534.5 495.9 542.7C510.5 540.3 524 534.5 535.6 526.2C530.3 519.9 530.6 510.5 536.5 504.5C542.4 498.5 551.9 498.3 558.2 503.6C566.5 492 572.2 478.5 574.7 463.9C566.5 463.2 560 456.3 560 448C560 439.7 566.5 432.7 574.7 432.1C572.3 417.5 566.5 404 558.2 392.4C551.9 397.7 542.5 397.4 536.5 391.5C530.5 385.6 530.3 376.1 535.6 369.8C524 361.5 510.5 355.8 495.9 353.3C495.2 361.5 488.3 368 480 368C471.7 368 464.7 361.5 464.1 353.3C449.5 355.7 436 361.5 424.4 369.8C429.7 376.1 429.4 385.5 423.5 391.5C417.6 397.5 408.1 397.7 401.8 392.4C393.5 404 387.8 417.5 385.3 432.1C393.5 432.8 400 439.7 400 448C400 456.3 393.5 463.3 385.3 463.9C387.7 478.5 393.5 492 401.8 503.6C408.1 498.3 417.5 498.6 423.5 504.5C429.5 510.4 429.7 519.9 424.4 526.2C436 534.5 449.5 540.2 464.1 542.7zM416 448C416 412.7 444.7 384 480 384C515.3 384 544 412.7 544 448C544 483.3 515.3 512 480 512C444.7 512 416 483.3 416 448zM480 480C497.7 480 512 465.7 512 448C512 430.3 497.7 416 480 416C462.3 416 448 430.3 448 448C448 465.7 462.3 480 480 480z"/></svg>