<svg xmlns="http://www.w3.org/2000/svg" viewBox="0 0 640 640"><!--! Font Awesome Pro 7.1.0 by @fontawesome - https://fontawesome.com License - https://fontawesome.com/license (Commercial License) Copyright 2025 Fonticons, Inc. --><path fill="currentColor" d="M267.8 128C279 128 289.5 133.9 295.2 143.5L362.7 256L160 256L160 128L267.8 128zM128 128L128 256L48 256C21.5 256 0 277.5 0 304L0 400C0 421.1 13.7 439.1 32.6 445.5C32.2 448.9 32 452.5 32 456C32 504.6 71.4 544 120 544C168.6 544 208 504.6 208 456C208 453.3 207.9 450.6 207.6 448L304.3 448C304.1 450.6 303.9 453.3 303.9 456C303.9 504.6 343.3 544 391.9 544C440.5 544 479.9 504.6 479.9 456L479.9 368L543.9 368L543.9 464C543.9 508.2 579.7 544 623.9 544C632.7 544 639.9 536.8 639.9 528C639.9 519.2 632.7 512 623.9 512C597.4 512 575.9 490.5 575.9 464L575.9 240C575.9 213.5 597.4 192 623.9 192C632.7 192 639.9 184.8 639.9 176C639.9 167.2 632.7 160 623.9 160C579.7 160 543.9 195.8 543.9 240L543.9 336L479.9 336L479.9 304C479.9 277.5 458.4 256 431.9 256L399.9 256L322.5 127.1C311.1 107.8 290.2 96 267.8 96L160 96C142.3 96 128 110.3 128 128zM448 360L448 388.1C432.8 375.5 413.3 368 392 368C357.8 368 328.2 387.5 313.6 416L198.4 416C183.8 387.5 154.2 368 120 368C86.2 368 56.9 387 42.2 414.9C36.2 412.6 32 406.8 32 400L32 304C32 295.2 39.2 288 48 288L432 288C440.8 288 448 295.2 448 304L448 360zM64 456C64 425.1 89.1 400 120 400C150.9 400 176 425.1 176 456C176 486.9 150.9 512 120 512C89.1 512 64 486.9 64 456zM392 400C422.9 400 448 425.1 448 456C448 486.9 422.9 512 392 512C361.1 512 336 486.9 336 456C336 425.1 361.1 400 392 400z"/></svg>