<svg xmlns="http://www.w3.org/2000/svg" viewBox="0 0 640 640"><!--! Font Awesome Pro 7.1.0 by @fontawesome - https://fontawesome.com License - https://fontawesome.com/license (Commercial License) Copyright 2025 Fonticons, Inc. --><path fill="currentColor" d="M352 128C369.7 128 384 142.3 384 160L384 416L230.4 416C215.8 387.5 186.2 368 152 368C118.2 368 88.9 387 74.2 414.9C68.2 412.6 64 406.8 64 400L64 160C64 142.3 78.3 128 96 128L352 128zM32 192C14.3 192 0 206.3 0 224L0 320C0 337.7 14.3 352 32 352L32 400C32 421.1 45.7 439.1 64.6 445.5C64.2 448.9 64 452.5 64 456C64 504.6 103.4 544 152 544C200.6 544 240 504.6 240 456C240 453.3 239.9 450.6 239.6 448L384.3 448C384.1 450.6 383.9 453.3 383.9 456C383.9 504.6 423.3 544 471.9 544C520.5 544 559.9 504.6 559.9 456C559.9 453.3 559.8 450.6 559.5 448L559.9 448C586.4 448 607.9 426.5 607.9 400L607.9 320C607.9 293.5 586.4 272 559.9 272L531.4 272L499.2 198.3C489 175.1 466 160 440.6 160L416 160C416 124.7 387.3 96 352 96L96 96C60.7 96 32 124.7 32 160L32 192zM472 368C450.7 368 431.2 375.5 416 388.1L416 304L560 304C568.8 304 576 311.2 576 320L576 400C576 408.8 568.8 416 560 416L550.4 416C535.8 387.5 506.2 368 472 368zM496.5 272L416 272L416 192L440.6 192C453.3 192 464.8 199.5 469.9 211.2L496.5 272zM96 456C96 425.1 121.1 400 152 400C182.9 400 208 425.1 208 456C208 486.9 182.9 512 152 512C121.1 512 96 486.9 96 456zM472 400C502.9 400 528 425.1 528 456C528 486.9 502.9 512 472 512C441.1 512 416 486.9 416 456C416 425.1 441.1 400 472 400z"/></svg>