<svg xmlns="http://www.w3.org/2000/svg" viewBox="0 0 640 640"><!--! Font Awesome Pro 7.1.0 by @fontawesome - https://fontawesome.com License - https://fontawesome.com/license (Commercial License) Copyright 2025 Fonticons, Inc. --><path fill="currentColor" d="M256 128L256 256L458.7 256L391.2 143.5C385.4 133.9 375 128 363.8 128L256 128zM224 256L224 128C224 110.3 238.3 96 256 96L363.8 96C386.3 96 407.1 107.8 418.7 127.1L496 256L560 256C586.5 256 608 277.5 608 304L608 416L624 416C632.8 416 640 423.2 640 432C640 440.8 632.8 448 624 448L575.6 448C575.8 450.6 576 453.3 576 456C576 504.6 536.6 544 488 544C439.4 544 400 504.6 400 456C400 453.3 400.1 450.6 400.4 448L239.7 448C239.9 450.6 240.1 453.3 240.1 456C240.1 504.6 200.7 544 152.1 544C103.5 544 64.1 504.6 64.1 456C64.1 453.3 64.2 450.6 64.5 448L16 448C7.2 448 0 440.8 0 432C0 423.2 7.2 416 16 416L32 416L32 304C32 277.5 53.5 256 80 256L224 256zM224 288L80 288C71.2 288 64 295.2 64 304L64 416L73.6 416C88.2 387.5 117.8 368 152 368C186.2 368 215.8 387.5 230.4 416L409.6 416C424.2 387.5 453.8 368 488 368C522.2 368 551.8 387.5 566.4 416L576 416L576 304C576 295.2 568.8 288 560 288L224 288zM208 456C208 425.1 182.9 400 152 400C121.1 400 96 425.1 96 456C96 486.9 121.1 512 152 512C182.9 512 208 486.9 208 456zM488 512C518.9 512 544 486.9 544 456C544 425.1 518.9 400 488 400C457.1 400 432 425.1 432 456C432 486.9 457.1 512 488 512z"/></svg>