<svg xmlns="http://www.w3.org/2000/svg" viewBox="0 0 640 640"><!--! Font Awesome Pro 7.1.0 by @fontawesome - https://fontawesome.com License - https://fontawesome.com/license (Commercial License) Copyright 2025 Fonticons, Inc. --><path fill="currentColor" d="M352 160C352 124.7 380.7 96 416 96L608 96L608 128L416 128C398.3 128 384 142.3 384 160L384 448L441.6 448C456.2 419.5 485.8 400 520 400C568.6 400 608 439.4 608 488C608 536.6 568.6 576 520 576C471.4 576 432 536.6 432 488C432 485.3 432.1 482.6 432.4 480L370.4 480L52.6 575.3C44.1 577.8 35.2 573 32.7 564.6C30.2 556.2 35 547.2 43.4 544.7L352 452.1L352 160zM520 544C550.9 544 576 518.9 576 488C576 457.1 550.9 432 520 432C489.1 432 464 457.1 464 488C464 518.9 489.1 544 520 544z"/></svg>