<svg xmlns="http://www.w3.org/2000/svg" viewBox="0 0 640 640"><!--! Font Awesome Pro 7.1.0 by @fontawesome - https://fontawesome.com License - https://fontawesome.com/license (Commercial License) Copyright 2025 Fonticons, Inc. --><path fill="currentColor" d="M96 128C78.3 128 64 142.3 64 160L64 448C64 465.7 78.3 480 96 480L96.4 480C100.4 435.1 138.1 400 184 400C229.9 400 267.6 435.1 271.6 480L368.3 480C371.1 449.2 389.7 423 415.9 409.6L416 160C416 142.3 401.7 128 384 128L96 128zM448 352L448 400.4C450.6 400.2 453.3 400 456 400C501.9 400 539.6 435.1 543.6 480L544 480C561.7 480 576 465.7 576 448L576 352L448 352zM576 320L576 291.9C576 283.4 572.6 275.3 566.6 269.3L530.7 233.4C524.7 227.4 516.6 224 508.1 224L448 224L448 320L576 320zM99.3 512L96 512C60.7 512 32 483.3 32 448L32 160C32 124.7 60.7 96 96 96L384 96C419.3 96 448 124.7 448 160L448 192L508.1 192C525.1 192 541.4 198.7 553.4 210.7L589.3 246.6C601.3 258.6 608 274.9 608 291.9L608 448C608 483.3 579.3 512 544 512L540.7 512C530.3 548.9 496.3 576 456 576C415.7 576 381.8 548.9 371.3 512L268.7 512C258.3 548.9 224.3 576 184 576C143.7 576 109.8 548.9 99.3 512zM184 544C214.9 544 240 518.9 240 488C240 457.1 214.9 432 184 432C153.1 432 128 457.1 128 488C128 518.9 153.1 544 184 544zM456 544C486.9 544 512 518.9 512 488C512 457.1 486.9 432 456 432C425.1 432 400 457.1 400 488C400 518.9 425.1 544 456 544z"/></svg>