<svg xmlns="http://www.w3.org/2000/svg" viewBox="0 0 640 640"><!--! Font Awesome Pro 7.1.0 by @fontawesome - https://fontawesome.com License - https://fontawesome.com/license (Commercial License) Copyright 2025 Fonticons, Inc. --><path fill="currentColor" d="M464 192C455.2 192 448 199.2 448 208L448 420.1C430.4 434.6 418.5 455.9 416.4 480L319.7 480C315.7 435.1 278 400 232.1 400C202.3 400 176 414.8 160.1 437.4C144.2 414.8 117.9 400 88.1 400C39.5 400 .1 439.4 .1 488C.1 536.6 39.5 576 88.1 576C117.9 576 144.2 561.2 160.1 538.6C176 561.2 202.3 576 232.1 576C272.4 576 306.3 548.9 316.8 512L419.4 512C429.8 548.9 463.8 576 504.1 576C544.9 576 579.2 548.3 589.2 510.7C618.3 504.7 640.1 478.9 640.1 448L640.1 291.9C640.1 274.9 633.4 258.6 621.4 246.6L585.5 210.7C573.5 198.7 557.2 192 540.2 192L464 192zM504 432C534.9 432 560 457.1 560 488C560 518.9 534.9 544 504 544C473.1 544 448 518.9 448 488C448 457.1 473.1 432 504 432zM591.2 476.2C585.4 433.2 548.6 400 504 400C495.7 400 487.6 401.2 480 403.3L480 352L608 352L608 448C608 460.2 601.2 470.7 591.2 476.2zM480 320L480 224L540.1 224C548.6 224 556.7 227.4 562.7 233.4L598.6 269.3C604.6 275.3 608 283.4 608 291.9L608 320L480 320zM32 488C32 457.1 57.1 432 88 432C118.9 432 144 457.1 144 488C144 518.9 118.9 544 88 544C57.1 544 32 518.9 32 488zM288 488C288 518.9 262.9 544 232 544C201.1 544 176 518.9 176 488C176 457.1 201.1 432 232 432C262.9 432 288 457.1 288 488z"/></svg>