<svg xmlns="http://www.w3.org/2000/svg" viewBox="0 0 640 640"><!--! Font Awesome Pro 7.1.0 by @fontawesome - https://fontawesome.com License - https://fontawesome.com/license (Commercial License) Copyright 2025 Fonticons, Inc. --><path fill="currentColor" d="M608 160.8L608 447.3C598 433 574.4 401.9 540.9 374.1C507 346.1 461.3 320 408 320L32 320L32 288L408 288C461.3 288 507 261.9 540.9 233.9C574.5 206.1 598 175.1 608 160.8zM346 352L352 352L352 480L304 480L304 352L346 352zM384 480L384 352L408 352C450.8 352 489.4 373 520.5 398.8C551.4 424.4 573.3 453.4 582.2 466.2C588.1 474.7 597.8 480.1 608.6 480.1C626 480.1 640 466 640 448.7L640 159.6C640 142.2 625.9 128.2 608.6 128.2C597.8 128.2 588.1 133.6 582.2 142.1C573.3 154.9 551.4 183.9 520.5 209.5C489.4 235.2 450.8 256.3 408 256.3L384 256.3L384 240.3C384 231.5 376.8 224.3 368 224.3C359.2 224.3 352 231.5 352 240.3L352 256.3L304 256.3L304 240.3C304 231.5 296.8 224.3 288 224.3C279.2 224.3 272 231.5 272 240.3L272 256.3L224 256.3L224 240.3C224 231.5 216.8 224.3 208 224.3C199.2 224.3 192 231.5 192 240.3L192 256.3L32 256.3C32 247.5 24.8 240.3 16 240.3C7.2 240.3 0 247.2 0 256L0 352C0 360.8 7.2 368 16 368C24.8 368 32 360.8 32 352L88.4 352C73.2 369 64 391.4 64 416C64 469 107 512 160 512L416 512C457 512 492 486.3 505.8 450.1C500.9 445.3 495.5 440.4 489.9 435.7C486.3 432.7 482.7 429.9 479.1 427.3C473.8 457.3 447.6 480 416.1 480L384.1 480zM272 480L224 480L224 352L272 352L272 480zM192 480L160 480C124.7 480 96 451.3 96 416C96 380.7 124.7 352 160 352L192 352L192 480z"/></svg>