<svg xmlns="http://www.w3.org/2000/svg" viewBox="0 0 640 640"><!--! Font Awesome Pro 7.1.0 by @fontawesome - https://fontawesome.com License - https://fontawesome.com/license (Commercial License) Copyright 2025 Fonticons, Inc. --><path fill="currentColor" d="M240 96C248.8 96 256 103.2 256 112L256 189.1L411.6 144.6C420.1 142.2 429 147.1 431.4 155.6C433.8 164.1 428.9 173 420.4 175.4L256 222.4L256 285.1L411.6 240.6C420.1 238.2 429 243.1 431.4 251.6C433.8 260.1 428.9 269 420.4 271.4L256 318.4L256 512L336 512C415.5 512 480 447.5 480 368C480 359.2 487.2 352 496 352C504.8 352 512 359.2 512 368C512 465.2 433.2 544 336 544L240 544C231.2 544 224 536.8 224 528L224 327.5L196.4 335.4C187.9 337.8 179 332.9 176.6 324.4C174.2 315.9 179.1 307 187.6 304.6L224 294.2L224 231.5L196.4 239.4C187.9 241.8 179 236.9 176.6 228.4C174.2 219.9 179.1 211 187.6 208.6L224 198.2L224 112C224 103.2 231.2 96 240 96z"/></svg>