<svg xmlns="http://www.w3.org/2000/svg" viewBox="0 0 640 640"><!--! Font Awesome Pro 7.1.0 by @fontawesome - https://fontawesome.com License - https://fontawesome.com/license (Commercial License) Copyright 2025 Fonticons, Inc. --><path fill="currentColor" d="M123.8 96.6C132.2 94.3 141 98.6 144.4 106.7L183.2 200C186.1 207.1 184.1 215.2 178.2 220.1L136.6 254.2C131.1 258.7 129.2 266.4 132 272.9C165.1 349.3 225.1 411.3 300.1 446.9C306.7 450.1 314.7 448.3 319.3 442.6L356 397.8C360.8 391.9 369 389.8 376.1 392.8L469.4 431.7C477.4 435.1 481.7 443.9 479.5 452.3L477.7 459C463.1 512.2 412.9 554 354.7 541.9C194 508.4 67.6 382 34.2 221.4C22.1 163.1 63.9 113 117.1 98.4L123.8 96.6zM173.9 94.3C164.3 71.5 139.3 59.2 115.4 65.7L108.7 67.5C43.7 85.3-13.6 148.8 2.8 227.9C38.8 401 175 537.2 348.1 573.2C427.2 589.6 490.7 532.3 508.5 467.3L510.3 460.6C516.8 436.7 504.6 411.6 481.7 402.1L388.4 363.2C368.3 354.8 345 360.6 331.2 377.5L302.7 412.4C243.4 381.3 195.4 331.6 166.4 271.1L198.5 244.8C215.4 231 221.2 207.8 212.8 187.6L173.9 94.4zM320 104C306.7 104 296 114.7 296 128C296 141.3 306.7 152 320 152C333.3 152 344 141.3 344 128C344 114.7 333.3 104 320 104zM320 200C306.7 200 296 210.7 296 224C296 237.3 306.7 248 320 248C333.3 248 344 237.3 344 224C344 210.7 333.3 200 320 200zM584 224C584 237.3 594.7 248 608 248C621.3 248 632 237.3 632 224C632 210.7 621.3 200 608 200C594.7 200 584 210.7 584 224zM416 104C402.7 104 392 114.7 392 128C392 141.3 402.7 152 416 152C429.3 152 440 141.3 440 128C440 114.7 429.3 104 416 104zM488 128C488 141.3 498.7 152 512 152C525.3 152 536 141.3 536 128C536 114.7 525.3 104 512 104C498.7 104 488 114.7 488 128zM608 104C594.7 104 584 114.7 584 128C584 141.3 594.7 152 608 152C621.3 152 632 141.3 632 128C632 114.7 621.3 104 608 104zM384 224C384 232.8 391.2 240 400 240L528 240C536.8 240 544 232.8 544 224C544 215.2 536.8 208 528 208L400 208C391.2 208 384 215.2 384 224z"/></svg>