<svg xmlns="http://www.w3.org/2000/svg" viewBox="0 0 640 640"><!--! Font Awesome Pro 7.1.0 by @fontawesome - https://fontawesome.com License - https://fontawesome.com/license (Commercial License) Copyright 2025 Fonticons, Inc. --><path fill="currentColor" d="M144 96C135.2 96 128 103.2 128 112C128 120.8 135.2 128 144 128L304 128L304 275.5L188.1 304.5C179.5 306.6 174.3 315.3 176.5 323.9C178.7 332.5 187.3 337.7 195.9 335.5L304 308.5L304 371.5L188.1 400.5C179.5 402.6 174.3 411.3 176.5 419.9C178.7 428.5 187.3 433.7 195.9 431.5L304 404.5L304 520C304 528.8 311.2 536 320 536C328.8 536 336 528.8 336 520L336 396.5L451.9 367.5C460.5 365.4 465.7 356.7 463.5 348.1C461.3 339.5 452.7 334.3 444.1 336.5L336 363.5L336 300.5L451.9 271.5C460.5 269.4 465.7 260.7 463.5 252.1C461.3 243.5 452.7 238.3 444.1 240.5L336 267.5L336 128L496 128C504.8 128 512 120.8 512 112C512 103.2 504.8 96 496 96L144 96z"/></svg>