<svg xmlns="http://www.w3.org/2000/svg" viewBox="0 0 640 640"><!--! Font Awesome Pro 7.1.0 by @fontawesome - https://fontawesome.com License - https://fontawesome.com/license (Commercial License) Copyright 2025 Fonticons, Inc. --><path fill="currentColor" d="M496 96C478.3 96 464 110.3 464 128C464 130.8 464.1 134 464.2 137.6C464.4 146.3 464.7 156.7 463.8 165.9C462.6 179.4 458.9 195.2 446.9 207.2L440.5 213.6C435.6 218.5 428.1 219.7 421.9 216.5C391.3 200.9 356.7 192 320 192C196.3 192 96 292.3 96 416L96 480C96 515.3 124.7 544 160 544L480 544C515.3 544 544 515.3 544 480L544 416C544 362 524.9 312.5 493.1 273.8C492.1 274.8 491.1 275.9 490.1 277C487.5 279.7 484.8 282.5 481.8 285.5C467.4 299.9 463.7 323.2 464 350.3C464 350.9 464 351.5 464 352.1C464 422.8 406.7 480.1 336 480.1C265.3 480.1 208 422.7 208 352C208 343.2 215.2 336 224 336C232.8 336 240 343.2 240 352C240 405 283 448 336 448C389 448 432 405 432 352L432 350.6C431.6 322.8 434.8 287.2 459.1 262.8C461.1 260.8 463.3 258.5 465.6 256.1C471.1 250.4 477.3 243.9 483.5 238.5C495.6 228.1 510.7 225 523.6 224C532.3 223.3 542 223.6 550.3 223.8C553.8 223.9 557.1 224 559.9 224C577.6 224 591.9 209.7 591.9 192C591.9 174.3 577.6 160 559.9 160L551.9 160C538.6 160 527.9 149.3 527.9 136L527.9 128C527.9 110.3 513.6 96 495.9 96zM520.3 256.6C555.2 300.3 576 355.8 576 416L576 480C576 533 533 576 480 576L160 576C107 576 64 533 64 480L64 416C64 274.6 178.6 160 320 160C357.7 160 393.5 168.2 425.8 182.8C429.1 178.6 431.1 172.3 432 163C432.7 155.6 432.5 148.5 432.3 140.7C432.2 136.7 432.1 132.5 432.1 128C432.1 92.7 460.8 64 496.1 64C531.4 64 560.1 92.7 560.1 128C595.4 128 624.1 156.7 624.1 192C624.1 227.3 595.4 256 560.1 256C555.6 256 551.5 255.9 547.5 255.8C540.1 255.6 533.4 255.4 526.3 256C524.2 256.2 522.3 256.4 520.5 256.6z"/></svg>