<svg xmlns="http://www.w3.org/2000/svg" viewBox="0 0 640 640"><!--! Font Awesome Pro 7.1.0 by @fontawesome - https://fontawesome.com License - https://fontawesome.com/license (Commercial License) Copyright 2025 Fonticons, Inc. --><path fill="currentColor" d="M342.6 566.6C330.1 579.1 309.8 579.1 297.3 566.6L169.3 438.6C160.1 429.4 157.4 415.7 162.4 403.7C167.4 391.7 179.1 384 192 384L256 384L256 224C256 135.6 327.6 64 416 64L480 64C497.7 64 512 78.3 512 96L512 160C512 177.7 497.7 192 480 192L416 192C398.3 192 384 206.3 384 224L384 384L448 384C460.9 384 472.6 391.8 477.6 403.8C482.6 415.8 479.8 429.5 470.7 438.7L342.7 566.7zM320 544L448 416L368 416C359.2 416 352 408.8 352 400L352 224C352 188.7 380.7 160 416 160L480 160L480 96L416 96C345.3 96 288 153.3 288 224L288 400C288 408.8 280.8 416 272 416L192 416L320 544z"/></svg>