<svg xmlns="http://www.w3.org/2000/svg" viewBox="0 0 640 640"><!--! Font Awesome Pro 7.1.0 by @fontawesome - https://fontawesome.com License - https://fontawesome.com/license (Commercial License) Copyright 2025 Fonticons, Inc. --><path fill="currentColor" d="M342.6 73.4C330.1 60.9 309.8 60.9 297.3 73.4L169.3 201.4C160.1 210.6 157.4 224.3 162.4 236.3C167.4 248.3 179.1 256 192 256L256 256L256 416C256 504.4 327.6 576 416 576L480 576C497.7 576 512 561.7 512 544L512 480C512 462.3 497.7 448 480 448L416 448C398.3 448 384 433.7 384 416L384 256L448 256C460.9 256 472.6 248.2 477.6 236.2C482.6 224.2 479.8 210.5 470.7 201.3L342.7 73.3zM320 96L448 224L368 224C359.2 224 352 231.2 352 240L352 416C352 451.3 380.7 480 416 480L480 480L480 544L416 544C345.3 544 288 486.7 288 416L288 240C288 231.2 280.8 224 272 224L192 224L320 96z"/></svg>