<svg xmlns="http://www.w3.org/2000/svg" viewBox="0 0 640 640"><!--! Font Awesome Pro 7.1.0 by @fontawesome - https://fontawesome.com License - https://fontawesome.com/license (Commercial License) Copyright 2025 Fonticons, Inc. --><path fill="currentColor" d="M73.4 297.4C60.9 309.9 60.9 330.2 73.4 342.7L201.4 470.7C210.6 479.9 224.3 482.6 236.3 477.6C248.3 472.6 256 460.9 256 448L256 384L416 384C504.4 384 576 312.4 576 224L576 160C576 142.3 561.7 128 544 128L480 128C462.3 128 448 142.3 448 160L448 224C448 241.7 433.7 256 416 256L256 256L256 192C256 179.1 248.2 167.4 236.2 162.4C224.2 157.4 210.5 160.2 201.3 169.3L73.3 297.3zM96 320L224 192L224 272C224 280.8 231.2 288 240 288L416 288C451.3 288 480 259.3 480 224L480 160L544 160L544 224C544 294.7 486.7 352 416 352L240 352C231.2 352 224 359.2 224 368L224 448L96 320z"/></svg>