<svg xmlns="http://www.w3.org/2000/svg" viewBox="0 0 640 640"><!--! Font Awesome Pro 7.1.0 by @fontawesome - https://fontawesome.com License - https://fontawesome.com/license (Commercial License) Copyright 2025 Fonticons, Inc. --><path fill="currentColor" d="M297.4 566.6C309.9 579.1 330.2 579.1 342.7 566.6L470.7 438.6C479.9 429.4 482.6 415.7 477.6 403.7C472.6 391.7 460.9 384 448 384L384 384L384 224C384 135.6 312.4 64 224 64L160 64C142.3 64 128 78.3 128 96L128 160C128 177.7 142.3 192 160 192L224 192C241.7 192 256 206.3 256 224L256 384L192 384C179.1 384 167.4 391.8 162.4 403.8C157.4 415.8 160.2 429.5 169.3 438.7L297.3 566.7zM320 544L192 416L272 416C280.8 416 288 408.8 288 400L288 224C288 188.7 259.3 160 224 160L160 160L160 96L224 96C294.7 96 352 153.3 352 224L352 400C352 408.8 359.2 416 368 416L448 416L320 544z"/></svg>