<svg xmlns="http://www.w3.org/2000/svg" viewBox="0 0 640 640"><!--! Font Awesome Pro 7.1.0 by @fontawesome - https://fontawesome.com License - https://fontawesome.com/license (Commercial License) Copyright 2025 Fonticons, Inc. --><path fill="currentColor" d="M96 128C78.3 128 64 142.3 64 160L64 480C64 497.7 78.3 512 96 512L544 512C561.7 512 576 497.7 576 480L576 160C576 142.3 561.7 128 544 128L96 128zM32 160C32 124.7 60.7 96 96 96L544 96C579.3 96 608 124.7 608 160L608 480C608 515.3 579.3 544 544 544L96 544C60.7 544 32 515.3 32 480L32 160zM368 320C368 258.1 317.9 208 256 208C194.1 208 144 258.1 144 320C144 381.9 194.1 432 256 432C317.9 432 368 381.9 368 320zM112 320C112 240.5 176.5 176 256 176C335.5 176 400 240.5 400 320C400 399.5 335.5 464 256 464C176.5 464 112 399.5 112 320zM496 176C504.8 176 512 183.2 512 192L512 349.8C512 359.2 509.6 368.4 505.2 376.6L462.1 455.6C457.9 463.4 448.2 466.2 440.4 462C432.6 457.8 429.8 448.1 434 440.3L477.1 361.3C479 357.8 480 353.8 480 349.8L480 192C480 183.2 487.2 176 496 176zM256 296C269.3 296 280 306.7 280 320C280 333.3 269.3 344 256 344C242.7 344 232 333.3 232 320C232 306.7 242.7 296 256 296z"/></svg>