<svg xmlns="http://www.w3.org/2000/svg" viewBox="0 0 640 640"><!--! Font Awesome Pro 7.1.0 by @fontawesome - https://fontawesome.com License - https://fontawesome.com/license (Commercial License) Copyright 2025 Fonticons, Inc. --><path fill="currentColor" d="M566.6 342.6C579.1 330.1 579.1 309.8 566.6 297.3L438.6 169.3C429.4 160.1 415.7 157.4 403.7 162.4C391.7 167.4 384 179.1 384 192L384 256L224 256C135.6 256 64 327.6 64 416L64 480C64 497.7 78.3 512 96 512L160 512C177.7 512 192 497.7 192 480L192 416C192 398.3 206.3 384 224 384L384 384L384 448C384 460.9 391.8 472.6 403.8 477.6C415.8 482.6 429.5 479.8 438.7 470.7L566.7 342.7zM544 320L416 448L416 368C416 359.2 408.8 352 400 352L224 352C188.7 352 160 380.7 160 416L160 480L96 480L96 416C96 345.3 153.3 288 224 288L400 288C408.8 288 416 280.8 416 272L416 192L544 320z"/></svg>