<svg xmlns="http://www.w3.org/2000/svg" viewBox="0 0 640 640"><!--! Font Awesome Pro 7.1.0 by @fontawesome - https://fontawesome.com License - https://fontawesome.com/license (Commercial License) Copyright 2025 Fonticons, Inc. --><path fill="currentColor" d="M566.6 297.4C579.1 309.9 579.1 330.2 566.6 342.7L438.6 470.7C429.4 479.9 415.7 482.6 403.7 477.6C391.7 472.6 384 460.9 384 448L384 384L224 384C135.6 384 64 312.4 64 224L64 160C64 142.3 78.3 128 96 128L160 128C177.7 128 192 142.3 192 160L192 224C192 241.7 206.3 256 224 256L384 256L384 192C384 179.1 391.8 167.4 403.8 162.4C415.8 157.4 429.5 160.2 438.7 169.3L566.7 297.3zM544 320L416 192L416 272C416 280.8 408.8 288 400 288L224 288C188.7 288 160 259.3 160 224L160 160L96 160L96 224C96 294.7 153.3 352 224 352L400 352C408.8 352 416 359.2 416 368L416 448L544 320z"/></svg>