<svg xmlns="http://www.w3.org/2000/svg" viewBox="0 0 640 640"><!--! Font Awesome Pro 7.1.0 by @fontawesome - https://fontawesome.com License - https://fontawesome.com/license (Commercial License) Copyright 2025 Fonticons, Inc. --><path fill="currentColor" d="M73.4 342.6C60.9 330.1 60.9 309.8 73.4 297.3L201.4 169.3C210.6 160.1 224.3 157.4 236.3 162.4C248.3 167.4 256 179.1 256 192L256 256L416 256C504.4 256 576 327.6 576 416L576 480C576 497.7 561.7 512 544 512L480 512C462.3 512 448 497.7 448 480L448 416C448 398.3 433.7 384 416 384L256 384L256 448C256 460.9 248.2 472.6 236.2 477.6C224.2 482.6 210.5 479.8 201.3 470.7L73.3 342.7zM96 320L224 448L224 368C224 359.2 231.2 352 240 352L416 352C451.3 352 480 380.7 480 416L480 480L544 480L544 416C544 345.3 486.7 288 416 288L240 288C231.2 288 224 280.8 224 272L224 192L96 320z"/></svg>