<svg xmlns="http://www.w3.org/2000/svg" viewBox="0 0 640 640"><!--! Font Awesome Pro 7.1.0 by @fontawesome - https://fontawesome.com License - https://fontawesome.com/license (Commercial License) Copyright 2025 Fonticons, Inc. --><path fill="currentColor" d="M232 128C156.9 128 96 188.9 96 264L96 304C96 312.8 88.8 320 80 320C71.2 320 64 312.8 64 304L64 264C64 171.2 139.2 96 232 96C324.8 96 400 171.2 400 264L400 304C400 312.8 392.8 320 384 320C375.2 320 368 312.8 368 304L368 264C368 188.9 307.1 128 232 128zM432 252.6C432 210.3 466.3 176 508.6 176C563.5 176 608 220.5 608 275.4L608 288C608 323.3 579.3 352 544 352L523.5 352C503.2 409.4 448.8 448 387.7 448L384 448L384 496C384 522.5 362.5 544 336 544L304 544C277.5 544 256 522.5 256 496L256 448L224 448L224 496C224 522.5 202.5 544 176 544L144 544C117.5 544 96 522.5 96 496L96 448L80 448C53.5 448 32 426.5 32 400C32 373.5 53.5 352 80 352L392 352C414.1 352 432 334.1 432 312L432 252.6zM288 480L288 496C288 504.8 295.2 512 304 512L336 512C344.8 512 352 504.8 352 496L352 416L387.7 416C435.9 416 478.7 385.2 494 339.4L496.8 330.9C499 324.4 505.1 320 512 320L544 320C561.7 320 576 305.7 576 288L576 275.4C576 238.2 545.8 208 508.6 208C484 208 464 228 464 252.6L464 312C464 351.8 431.8 384 392 384L80 384C71.2 384 64 391.2 64 400C64 408.8 71.2 416 80 416L128 416L128 496C128 504.8 135.2 512 144 512L176 512C184.8 512 192 504.8 192 496L192 416L288 416L288 480zM512 256C520.8 256 528 263.2 528 272C528 280.8 520.8 288 512 288C503.2 288 496 280.8 496 272C496 263.2 503.2 256 512 256z"/></svg>