<svg xmlns="http://www.w3.org/2000/svg" viewBox="0 0 640 640"><!--! Font Awesome Pro 7.1.0 by @fontawesome - https://fontawesome.com License - https://fontawesome.com/license (Commercial License) Copyright 2025 Fonticons, Inc. --><path fill="currentColor" d="M544 128C561.7 128 576 142.3 576 160L576 416C576 433.7 561.7 448 544 448L96 448C78.3 448 64 433.7 64 416L64 160C64 142.3 78.3 128 96 128L544 128zM96 96C60.7 96 32 124.7 32 160L32 416C32 451.3 60.7 480 96 480L544 480C579.3 480 608 451.3 608 416L608 160C608 124.7 579.3 96 544 96L96 96zM160 560C160 568.8 167.2 576 176 576L464 576C472.8 576 480 568.8 480 560C480 551.2 472.8 544 464 544L176 544C167.2 544 160 551.2 160 560zM384 176L360 176C346.7 176 336 186.7 336 200L336 272C326.6 266.9 315.7 264 304 264C268.7 264 240 290.9 240 324C240 357.1 268.7 384 304 384C339.3 384 368 357.1 368 324C368 322.6 368 321.3 367.9 319.9L368 320L368 208L384 208C392.8 208 400 200.8 400 192C400 183.2 392.8 176 384 176zM304 352C284.4 352 272 337.5 272 324C272 310.5 284.4 296 304 296C323.6 296 336 310.5 336 324C336 337.5 323.7 352 304 352z"/></svg>