<svg xmlns="http://www.w3.org/2000/svg" viewBox="0 0 640 640"><!--! Font Awesome Pro 7.1.0 by @fontawesome - https://fontawesome.com License - https://fontawesome.com/license (Commercial License) Copyright 2025 Fonticons, Inc. --><path fill="currentColor" d="M235.3 68.7C229.1 62.5 218.9 62.5 212.7 68.7C206.5 74.9 206.5 85.1 212.7 91.3L281.4 160L128 160C92.7 160 64 188.7 64 224L64 480C64 515.3 92.7 544 128 544L512 544C547.3 544 576 515.3 576 480L576 224C576 188.7 547.3 160 512 160L358.6 160L427.3 91.3C433.5 85.1 433.5 74.9 427.3 68.7C421.1 62.5 410.9 62.5 404.7 68.7L320 153.4L235.3 68.7zM320 192L512 192C529.7 192 544 206.3 544 224L544 480C544 497.7 529.7 512 512 512L128 512C110.3 512 96 497.7 96 480L96 224C96 206.3 110.3 192 128 192L320 192zM504 296C504 282.7 493.3 272 480 272C466.7 272 456 282.7 456 296C456 309.3 466.7 320 480 320C493.3 320 504 309.3 504 296zM480 400C493.3 400 504 389.3 504 376C504 362.7 493.3 352 480 352C466.7 352 456 362.7 456 376C456 389.3 466.7 400 480 400zM368 256C376.8 256 384 263.2 384 272L384 432C384 440.8 376.8 448 368 448L176 448C167.2 448 160 440.8 160 432L160 272C160 263.2 167.2 256 176 256L368 256zM176 224C149.5 224 128 245.5 128 272L128 432C128 458.5 149.5 480 176 480L368 480C394.5 480 416 458.5 416 432L416 272C416 245.5 394.5 224 368 224L176 224z"/></svg>