<svg xmlns="http://www.w3.org/2000/svg" viewBox="0 0 640 640"><!--! Font Awesome Pro 7.1.0 by @fontawesome - https://fontawesome.com License - https://fontawesome.com/license (Commercial License) Copyright 2025 Fonticons, Inc. --><path fill="currentColor" d="M96 128C78.3 128 64 142.3 64 160L64 416C64 433.7 78.3 448 96 448L544 448C561.7 448 576 433.7 576 416L576 160C576 142.3 561.7 128 544 128L96 128zM32 160C32 124.7 60.7 96 96 96L544 96C579.3 96 608 124.7 608 160L608 416C608 451.3 579.3 480 544 480L96 480C60.7 480 32 451.3 32 416L32 160zM176 544L464 544C472.8 544 480 551.2 480 560C480 568.8 472.8 576 464 576L176 576C167.2 576 160 568.8 160 560C160 551.2 167.2 544 176 544z"/></svg>