<svg xmlns="http://www.w3.org/2000/svg" viewBox="0 0 640 640"><!--! Font Awesome Pro 7.1.0 by @fontawesome - https://fontawesome.com License - https://fontawesome.com/license (Commercial License) Copyright 2025 Fonticons, Inc. --><path fill="currentColor" d="M224 96C206.3 96 192 110.3 192 128L192 208L160 208L160 128C160 92.7 188.7 64 224 64L380.1 64C397.1 64 413.4 70.7 425.4 82.7L461.3 118.6C473.3 130.6 480 146.9 480 163.9L480 208L448 208L448 163.9C448 155.4 444.6 147.3 438.6 141.3L402.7 105.4C396.7 99.4 388.6 96 380.1 96L224 96zM220.8 256C228.1 256 235.1 258.5 240.8 263L263.3 281C269 285.5 276 288 283.3 288L356.8 288C364.1 288 371.1 285.5 376.8 281L399.3 263C405 258.5 412 256 419.3 256L512.1 256C529.8 256 544.1 270.3 544.1 288L544.1 352C544.1 369.7 529.8 384 512.1 384L512.1 512C512.1 547.3 483.4 576 448.1 576L192 576C156.7 576 128 547.3 128 512L128 384C110.3 384 96 369.7 96 352L96 288C96 270.3 110.3 256 128 256L220.8 256zM160 384L160 512C160 529.7 174.3 544 192 544L448 544C465.7 544 480 529.7 480 512L480 384L160 384zM128 352L512 352L512 288L419.2 288L396.7 306C385.4 315.1 371.3 320 356.7 320L283.2 320C268.7 320 254.6 315.1 243.2 306L220.7 288L127.9 288L127.9 352zM212 456C201 456 192 447 192 436C192 425 201 416 212 416C223 416 232 425 232 436C232 447 223 456 212 456zM304 436C304 447 295 456 284 456C273 456 264 447 264 436C264 425 273 416 284 416C295 416 304 425 304 436zM356 456C345 456 336 447 336 436C336 425 345 416 356 416C367 416 376 425 376 436C376 447 367 456 356 456zM448 436C448 447 439 456 428 456C417 456 408 447 408 436C408 425 417 416 428 416C439 416 448 425 448 436zM252 520C241 520 232 511 232 500C232 489 241 480 252 480C263 480 272 489 272 500C272 511 263 520 252 520zM340 500C340 511 331 520 320 520C309 520 300 511 300 500C300 489 309 480 320 480C331 480 340 489 340 500zM388 520C377 520 368 511 368 500C368 489 377 480 388 480C399 480 408 489 408 500C408 511 399 520 388 520z"/></svg>