<svg xmlns="http://www.w3.org/2000/svg" viewBox="0 0 640 640"><!--! Font Awesome Pro 7.1.0 by @fontawesome - https://fontawesome.com License - https://fontawesome.com/license (Commercial License) Copyright 2025 Fonticons, Inc. --><path fill="currentColor" d="M64 448C64 457.7 68.4 464.7 72.3 469.5L73.3 470.6L185.3 582.6C205.4 602.7 239.9 588.1 239.9 560L239.9 512L367.9 512C482.8 512 575.9 418.9 575.9 304C575.9 189.1 482.9 96 368 96L160 96L156.7 96.2C140.6 97.8 128 111.4 128 128L128 192L128.2 195.3C129.8 211.4 143.4 224 160 224L368 224C412.2 224 448 259.8 448 304C448 348.2 412.2 384 368 384L240 384L240 336C240 307.9 205.5 293.3 185.4 313.4L73.4 425.4L72.4 426.5C68.4 431.3 64 438.3 64 448L64 448zM96.8 447.2L208 336L208 400C208 408.8 215.2 416 224 416L368 416C429.8 416 480 365.9 480 304C480 242.1 429.8 192 368 192L160 192L160 128L368 128C465.2 128 544 206.8 544 304C544 401.2 465.2 480 368 480L224 480C215.2 480 208 487.2 208 496L208 560L96.8 448.8C96.5 448.5 96.4 448.2 96.2 448C96.3 447.8 96.5 447.5 96.8 447.2z"/></svg>