<svg xmlns="http://www.w3.org/2000/svg" viewBox="0 0 640 640"><!--! Font Awesome Pro 7.1.0 by @fontawesome - https://fontawesome.com License - https://fontawesome.com/license (Commercial License) Copyright 2025 Fonticons, Inc. --><path fill="currentColor" d="M576 192C576 182.3 571.6 175.3 567.7 170.5L566.7 169.4L454.7 57.4C434.5 37.3 400 51.9 400 80L400 128L272 128C157.1 128 64 221.1 64 336C64 450.9 157.1 544 272 544L480 544L483.3 543.8C499.4 542.2 512 528.5 512 512L512 448L511.8 444.7C510.2 428.6 496.6 416 480 416L272 416C227.8 416 192 380.2 192 336C192 291.8 227.8 256 272 256L400 256L400 304C400 332.1 434.5 346.7 454.6 326.6L566.6 214.6L567.6 213.5C571.5 208.7 575.9 201.7 575.9 192L575.9 192zM543.2 192.8L432 304L432 240C432 231.2 424.8 224 416 224L272 224C210.1 224 160 274.1 160 336C160 397.9 210.2 448 272 448L480 448L480 512L272 512C174.8 512 96 433.2 96 336C96 238.8 174.8 160 272 160L416 160C424.8 160 432 152.8 432 144L432 80L543.2 191.2C543.5 191.5 543.6 191.8 543.8 192C543.7 192.2 543.5 192.5 543.2 192.8z"/></svg>