<svg xmlns="http://www.w3.org/2000/svg" viewBox="0 0 640 640"><!--! Font Awesome Pro 7.1.0 by @fontawesome - https://fontawesome.com License - https://fontawesome.com/license (Commercial License) Copyright 2025 Fonticons, Inc. --><path fill="currentColor" d="M576 448C576 457.7 571.6 464.7 567.7 469.5L566.7 470.6L454.7 582.6C434.5 602.7 400 588.1 400 560L400 512L272 512C157.1 512 64 418.9 64 304C64 189.1 157.1 96 272 96L480 96L483.3 96.2C499.4 97.8 512 111.4 512 128L512 192L511.8 195.3C510.2 211.4 496.6 224 480 224L272 224C227.8 224 192 259.8 192 304C192 348.2 227.8 384 272 384L400 384L400 336C400 307.9 434.5 293.3 454.6 313.4L566.6 425.4L567.6 426.5C571.5 431.3 575.9 438.3 575.9 448L575.9 448zM543.2 447.2L432 336L432 400C432 408.8 424.8 416 416 416L272 416C210.1 416 160 365.9 160 304C160 242.1 210.2 192 272 192L480 192L480 128L272 128C174.8 128 96 206.8 96 304C96 401.2 174.8 480 272 480L416 480C424.8 480 432 487.2 432 496L432 560L543.2 448.8C543.5 448.5 543.6 448.2 543.8 448C543.7 447.8 543.5 447.5 543.2 447.2z"/></svg>