<svg xmlns="http://www.w3.org/2000/svg" viewBox="0 0 640 640"><!--! Font Awesome Pro 7.1.0 by @fontawesome - https://fontawesome.com License - https://fontawesome.com/license (Commercial License) Copyright 2025 Fonticons, Inc. --><path fill="currentColor" d="M448.5 64C458.2 64 465.2 68.4 470 72.3L471.1 73.3L583.1 185.3C603.2 205.4 588.6 239.9 560.5 239.9L512.5 239.9L512.5 367.9C512.5 482.8 419.4 575.9 304.5 575.9C189.6 575.9 96.5 482.8 96.5 367.9L96.5 159.9L96.7 156.6C98.3 140.6 111.9 128 128.5 128L192.5 128L195.8 128.2C211.9 129.8 224.5 143.5 224.5 160L224.5 368C224.5 412.2 260.3 448 304.5 448C348.7 448 384.5 412.2 384.5 368L384.5 240L336.5 240C308.4 240 293.8 205.5 313.9 185.4L425.9 73.4L427 72.4C431.7 68.4 438.8 64 448.5 64L448.5 64zM447.7 96.8L336.5 208L400.5 208C409.3 208 416.5 215.2 416.5 224L416.5 368C416.5 429.8 366.4 480 304.5 480C242.6 480 192.5 429.8 192.5 368L192.5 160L128.5 160L128.5 368C128.5 465.2 207.3 544 304.5 544C401.7 544 480.5 465.2 480.5 368L480.5 224C480.5 215.2 487.7 208 496.5 208L560.5 208L449.3 96.8C449 96.5 448.7 96.4 448.5 96.2C448.3 96.3 448 96.5 447.7 96.8z"/></svg>