<svg xmlns="http://www.w3.org/2000/svg" viewBox="0 0 640 640"><!--! Font Awesome Pro 7.1.0 by @fontawesome - https://fontawesome.com License - https://fontawesome.com/license (Commercial License) Copyright 2025 Fonticons, Inc. --><path fill="currentColor" d="M448.5 576C458.2 576 465.2 571.6 470 567.7L471.1 566.7L583.1 454.7C603.2 434.6 588.6 400.1 560.5 400.1L512.5 400.1L512.5 272.1C512.5 157.2 419.4 64.1 304.5 64.1C189.6 64.1 96.5 157.2 96.5 272.1L96.5 480.1L96.7 483.4C98.3 499.4 111.9 512 128.5 512L192.5 512L195.8 511.8C211.9 510.2 224.5 496.5 224.5 480L224.5 272C224.5 227.8 260.3 192 304.5 192C348.7 192 384.5 227.8 384.5 272L384.5 400L336.5 400C308.4 400 293.8 434.5 313.9 454.6L425.9 566.6L427 567.6C431.8 571.5 438.8 575.9 448.5 575.9L448.5 575.9zM447.7 543.2L336.5 432L400.5 432C409.3 432 416.5 424.8 416.5 416L416.5 272C416.5 210.1 366.4 160 304.5 160C242.6 160 192.5 210.2 192.5 272L192.5 480L128.5 480L128.5 272C128.5 174.8 207.3 96 304.5 96C401.7 96 480.5 174.8 480.5 272L480.5 416C480.5 424.8 487.7 432 496.5 432L560.5 432L449.3 543.2C449 543.5 448.7 543.6 448.5 543.8C448.3 543.7 448 543.5 447.7 543.2z"/></svg>