<svg xmlns="http://www.w3.org/2000/svg" viewBox="0 0 640 640"><!--! Font Awesome Pro 7.1.0 by @fontawesome - https://fontawesome.com License - https://fontawesome.com/license (Commercial License) Copyright 2025 Fonticons, Inc. --><path fill="currentColor" d="M192.5 576C182.8 576 175.8 571.6 171 567.7L169.9 566.7L57.9 454.7C37.7 434.5 52.3 400 80.5 400L128.5 400L128.5 272C128.5 157.1 221.6 64 336.5 64C451.4 64 544.5 157.1 544.5 272L544.5 480L544.3 483.3C542.7 499.4 529 512 512.5 512L448.5 512L445.2 511.8C429.1 510.2 416.5 496.5 416.5 480L416.5 272C416.5 227.8 380.7 192 336.5 192C292.3 192 256.5 227.8 256.5 272L256.5 400L304.5 400C332.6 400 347.2 434.5 327.1 454.6L215.1 566.6L214 567.6C209.2 571.5 202.2 575.9 192.5 575.9L192.5 575.9zM193.3 543.2L304.5 432L240.5 432C231.7 432 224.5 424.8 224.5 416L224.5 272C224.5 210.1 274.6 160 336.5 160C398.4 160 448.5 210.2 448.5 272L448.5 480L512.5 480L512.5 272C512.5 174.8 433.7 96 336.5 96C239.3 96 160.5 174.8 160.5 272L160.5 416C160.5 424.8 153.3 432 144.5 432L80.5 432L191.7 543.2C192 543.5 192.3 543.6 192.5 543.8C192.7 543.7 193 543.5 193.3 543.2z"/></svg>