<svg xmlns="http://www.w3.org/2000/svg" viewBox="0 0 640 640"><!--! Font Awesome Pro 7.1.0 by @fontawesome - https://fontawesome.com License - https://fontawesome.com/license (Commercial License) Copyright 2025 Fonticons, Inc. --><path fill="currentColor" d="M192.5 64C182.8 64 175.8 68.4 171 72.3L169.9 73.3L57.9 185.3C37.7 205.5 52.3 240 80.5 240L128.5 240L128.5 368C128.5 482.9 221.6 576 336.5 576C451.4 576 544.5 482.9 544.5 368L544.5 160L544.3 156.7C542.7 140.6 529 128 512.5 128L448.5 128L445.2 128.2C429.1 129.8 416.5 143.5 416.5 160L416.5 368C416.5 412.2 380.7 448 336.5 448C292.3 448 256.5 412.2 256.5 368L256.5 240L304.5 240C332.6 240 347.2 205.5 327.1 185.4L215.1 73.4L214 72.4C209.2 68.4 202.2 64 192.5 64L192.5 64zM193.3 96.8L304.5 208L240.5 208C231.7 208 224.5 215.2 224.5 224L224.5 368C224.5 429.8 274.6 480 336.5 480C398.4 480 448.5 429.8 448.5 368L448.5 160L512.5 160L512.5 368C512.5 465.2 433.7 544 336.5 544C239.3 544 160.5 465.2 160.5 368L160.5 224C160.5 215.2 153.3 208 144.5 208L80.5 208L191.7 96.8C192 96.5 192.3 96.4 192.5 96.2C192.7 96.3 193 96.5 193.3 96.8z"/></svg>