<svg xmlns="http://www.w3.org/2000/svg" viewBox="0 0 640 640"><!--! Font Awesome Pro 7.1.0 by @fontawesome - https://fontawesome.com License - https://fontawesome.com/license (Commercial License) Copyright 2025 Fonticons, Inc. --><path fill="currentColor" d="M192 208C192 137.3 249.3 80 320 80C390.7 80 448 137.3 448 208L448 217.3C420.4 242.8 371.6 257.2 320 257.2C268.4 257.2 219.6 242.9 192 217.3L192 208zM160.1 201.4C160 203.6 160 205.8 160 208L160 224C160 228.1 161.6 232 164.4 235C199.7 272.4 261.4 289.2 320 289.2C378.6 289.2 440.3 272.3 475.6 235C478.4 232 480 228.1 480 224L480 208C480 205.8 480 203.6 479.9 201.4C489 204.7 497.5 208.2 505.6 212C553.5 234.5 576.1 262.5 576.1 288C576.1 313.5 553.5 341.5 505.6 364C458.9 386 393.4 400 320.1 400C246.8 400 181.2 386 134.6 364C86.6 341.5 64 313.5 64 288C64 262.5 86.6 234.5 134.5 212C142.5 208.2 151.1 204.7 160.2 201.4zM165.6 165.8C149.5 170.8 134.5 176.6 120.8 183C70.3 206.8 31.9 242.8 31.9 288C31.9 333.2 70.2 369.2 120.8 393C172.6 417.4 243 432 319.9 432C396.8 432 467.3 417.4 519 393C569.5 369.2 607.9 333.2 607.9 288C607.9 242.8 569.6 206.8 519 183C505.5 176.6 490.5 170.8 474.4 165.8C455.9 97.9 393.8 48 320 48C246.2 48 184.1 97.9 165.6 165.8zM344 336C344 322.7 333.3 312 320 312C306.7 312 296 322.7 296 336C296 349.3 306.7 360 320 360C333.3 360 344 349.3 344 336zM152 328C165.3 328 176 317.3 176 304C176 290.7 165.3 280 152 280C138.7 280 128 290.7 128 304C128 317.3 138.7 328 152 328zM512 304C512 290.7 501.3 280 488 280C474.7 280 464 290.7 464 304C464 317.3 474.7 328 488 328C501.3 328 512 317.3 512 304zM177.1 458.8C169.8 453.8 159.9 455.6 154.8 462.8L82.8 566.8C77.8 574.1 79.6 584 86.8 589.1C94 594.2 104 592.3 109.1 585.1L181.1 481.1C186.1 473.8 184.3 463.9 177.1 458.8zM458.8 481.1L530.8 585.1C535.8 592.4 545.8 594.2 553.1 589.1C560.4 584 562.2 574.1 557.1 566.8L485.1 462.8C480.1 455.5 470.1 453.7 462.8 458.8C455.5 463.9 453.7 473.8 458.8 481.1z"/></svg>