<svg xmlns="http://www.w3.org/2000/svg" viewBox="0 0 640 640"><!--! Font Awesome Pro 7.1.0 by @fontawesome - https://fontawesome.com License - https://fontawesome.com/license (Commercial License) Copyright 2025 Fonticons, Inc. --><path fill="currentColor" d="M192 272C192 201.3 249.3 144 320 144C390.7 144 448 201.3 448 272L448 281.3C420.4 306.8 371.6 321.2 320 321.2C268.4 321.2 219.6 306.9 192 281.3L192 272zM160.1 265.4C160 267.6 160 269.8 160 272L160 288C160 292.1 161.6 296 164.4 299C199.7 336.4 261.4 353.2 320 353.2C378.6 353.2 440.3 336.3 475.6 299C478.4 296 480 292.1 480 288L480 272C480 269.8 480 267.6 479.9 265.4C489 268.7 497.5 272.2 505.6 276C553.5 298.5 576.1 326.5 576.1 352C576.1 377.5 553.5 405.5 505.6 428C458.9 450 393.4 464 320.1 464C246.8 464 181.2 450 134.6 428C86.6 405.5 64 377.5 64 352C64 326.5 86.6 298.5 134.5 276C142.5 272.2 151.1 268.7 160.2 265.4zM165.6 229.8C149.5 234.8 134.5 240.6 120.8 247C70.3 270.8 31.9 306.8 31.9 352C31.9 397.2 70.2 433.2 120.8 457C172.6 481.4 243 496 319.9 496C396.8 496 467.3 481.4 519 457C569.5 433.2 607.9 397.2 607.9 352C607.9 306.8 569.6 270.8 519 247C505.5 240.6 490.5 234.8 474.4 229.8C455.9 161.9 393.8 112 320 112C246.2 112 184.1 161.9 165.6 229.8zM344 400C344 386.7 333.3 376 320 376C306.7 376 296 386.7 296 400C296 413.3 306.7 424 320 424C333.3 424 344 413.3 344 400zM152 392C165.3 392 176 381.3 176 368C176 354.7 165.3 344 152 344C138.7 344 128 354.7 128 368C128 381.3 138.7 392 152 392zM512 368C512 354.7 501.3 344 488 344C474.7 344 464 354.7 464 368C464 381.3 474.7 392 488 392C501.3 392 512 381.3 512 368z"/></svg>