<svg xmlns="http://www.w3.org/2000/svg" viewBox="0 0 640 640"><!--! Font Awesome Pro 7.1.0 by @fontawesome - https://fontawesome.com License - https://fontawesome.com/license (Commercial License) Copyright 2025 Fonticons, Inc. --><path fill="currentColor" d="M336.2 48C336.2 39.2 329 32 320.2 32C311.4 32 304.2 39.2 304.2 48L304.2 64.5C181 72.1 81.3 167 66.2 288.1C64 305.6 78.6 320 96.2 320L544.2 320C561.9 320 576.4 305.6 574.2 288.1C559.1 167 459.5 72.1 336.2 64.5L336.2 48zM542 288L98.5 288C114 179.5 207.4 96 320.2 96C433 96 526.5 179.5 542 288zM336.2 368L304.2 368L304.2 512.4C304.2 529.9 290 544 272.6 544C257.1 544 243.9 532.8 241.4 517.6L240 509.4C238.5 500.7 230.3 494.8 221.6 496.2C212.9 497.6 207 505.9 208.4 514.6L209.8 522.8C214.9 553.5 241.5 576 272.6 576C307.7 576 336.2 547.5 336.2 512.4L336.2 368z"/></svg>