<svg xmlns="http://www.w3.org/2000/svg" viewBox="0 0 640 640"><!--! Font Awesome Pro 7.1.0 by @fontawesome - https://fontawesome.com License - https://fontawesome.com/license (Commercial License) Copyright 2025 Fonticons, Inc. --><path fill="currentColor" d="M544 320C544 344.7 540 368.4 532.7 390.6L136 192.2C176.5 134 243.8 96 320 96C443.7 96 544 196.3 544 320zM520.4 420.2C536.2 428.1 555.6 421.7 561.5 405.1C570.9 378.5 576 349.8 576 320C576 178.6 461.4 64 320 64C231.2 64 153 109.2 107.1 177.8C97.3 192.5 103.8 211.9 119.6 219.8L299.3 309.6L297.7 312.8L185.7 536.8L182.1 544L80 544C71.2 544 64 551.2 64 560C64 568.8 71.2 576 80 576L560 576C568.8 576 576 568.8 576 560C576 551.2 568.8 544 560 544L217.9 544L326.3 327.2L327.9 324L520.4 420.3z"/></svg>