<svg xmlns="http://www.w3.org/2000/svg" viewBox="0 0 640 640"><!--! Font Awesome Pro 7.1.0 by @fontawesome - https://fontawesome.com License - https://fontawesome.com/license (Commercial License) Copyright 2025 Fonticons, Inc. --><path fill="currentColor" d="M448 96L485.8 96C510.5 96 531.2 114.8 533.6 139.4L541.3 220.2C542.4 232.1 536.8 243.6 526.6 249.9C512.2 258.9 493.2 254.8 483.7 240.7L477.3 231.1C474.3 226.6 469.3 224 464 224L432 224C423.2 224 416 231.2 416 240L416 292.8C415.7 294.3 415.6 295.8 415.7 297.3C415.9 299.5 416 301.7 416 304C416 328 405.6 349.1 389.3 363.6C385.9 366.6 384 371 384 375.5L384 536C384 540.4 380.4 544 376 544L344 544C339.6 544 336 540.4 336 536L336 398.7C336 390.9 330.4 384.2 322.7 382.9C321.3 382.7 319.9 382.4 318.4 382.1L202.2 355.9C197 354.7 191.6 356.2 187.7 359.9C183.8 363.6 182 368.9 182.9 374.2C183.7 378.7 184 383.3 184 387.9C184 399.2 181.7 410.3 177.3 420.7L169.2 439.7C164.2 451.4 163.3 464.5 166.7 476.7L182.6 533.9C184 539 180.2 544 174.9 544L141.7 544C138.1 544 135 541.6 134 538.1L120.5 489.5C114.2 466.7 115.8 442.4 125.1 420.7L133.2 401.7C135.1 397.3 136 392.6 136 387.8C136 383.2 135.1 378.5 133.3 374.3L99.9 294.2C97.3 288 96 281.4 96 274.7C96 246.7 118.7 224 146.7 224L320 224C328.8 224 336 216.8 336 208C336 146.1 386.1 96 448 96zM564.2 128C561.7 115.8 556.5 104.6 549.2 95.1C555.5 93 560 87 560 80C560 71.2 552.8 64 544 64L448 64C373.9 64 312.8 120 304.9 192L146.7 192C113.2 192 84.4 211.9 71.4 240.5C31.3 244.8 0 278.7 0 320L0 368C0 376.8 7.2 384 16 384C24.8 384 32 376.8 32 368L32 320C32 299.1 45.4 281.3 64 274.7C64 285.6 66.2 296.4 70.4 306.4L103.8 386.5C104 386.9 104 387.3 104 387.7C104 388.1 103.9 388.6 103.7 389L95.6 408C83.4 436.4 81.3 468.2 89.6 498L103.1 546.6C107.9 563.9 123.7 575.9 141.6 575.9L174.8 575.9C201.3 575.9 220.4 550.7 213.3 525.2L197.4 468C195.9 462.7 196.3 457.1 198.5 452.1L206.6 433.1C212.2 420 215.4 405.9 215.8 391.7L304 411.6L304 536C304 558.1 321.9 576 344 576L376 576C398.1 576 416 558.1 416 536L416 382.4C435.6 362.4 448 334.9 448 304C448 302.1 447.9 300.1 447.9 298.2C448 297.5 448 296.8 448 296L448 256L455.4 256L457.1 258.5C476.1 287.1 514.5 295.3 543.6 277.1C564 264.4 575.4 241.2 573.2 217.2L568.5 167.8L633.7 146.1C637.5 144.8 640.1 141.3 640.1 137.3C640.1 132.2 635.9 128 630.8 128L564.3 128zM480 176C488.8 176 496 168.8 496 160C496 151.2 488.8 144 480 144C471.2 144 464 151.2 464 160C464 168.8 471.2 176 480 176z"/></svg>