<svg xmlns="http://www.w3.org/2000/svg" viewBox="0 0 640 640"><!--! Font Awesome Pro 7.1.0 by @fontawesome - https://fontawesome.com License - https://fontawesome.com/license (Commercial License) Copyright 2025 Fonticons, Inc. --><path fill="currentColor" d="M208 64C216.8 64 224 71.2 224 80C224 106.5 245.5 128 272 128L400 128C408.8 128 416 135.2 416 144C416 152.8 408.8 160 400 160L336 160L336 224.7C425.7 232.8 496 308.2 496 400C496 497.2 417.2 576 320 576C222.8 576 144 497.2 144 400C144 308.2 214.3 232.8 304 224.7L304 160L272 160C227.8 160 192 124.2 192 80C192 71.2 199.2 64 208 64zM304 256.9C232 264.9 176 325.9 176 400C176 479.5 240.5 544 320 544C399.5 544 464 479.5 464 400C464 325.9 408 264.8 336 256.9L336 400C336 408.8 328.8 416 320 416C311.2 416 304 408.8 304 400L304 256.9z"/></svg>