<svg xmlns="http://www.w3.org/2000/svg" viewBox="0 0 640 640"><!--! Font Awesome Pro 7.1.0 by @fontawesome - https://fontawesome.com License - https://fontawesome.com/license (Commercial License) Copyright 2025 Fonticons, Inc. --><path fill="currentColor" d="M176 64C175.1 64 174.2 64.1 173.3 64.2C135.2 66.6 100.8 88.3 82.2 122L15.8 242.8C5.5 261.7 0 282.9 0 304.4L0 432C0 458.5 21.5 480 48 480L80 480C106.5 480 128 458.5 128 432L128 304.4L160 246.2L160 351.9L192 351.9L192 185.1C192 178.4 187.8 172.4 181.6 170.1C175.4 167.8 168.3 169.6 163.9 174.6C162 176.8 160.3 179.2 158.8 181.9L100 289C97.4 293.7 96 299 96 304.4L96 432C96 440.8 88.8 448 80 448L48 448C39.2 448 32 440.8 32 432L32 304.4C32 288.2 36.1 272.3 43.9 258.1L110.3 137.4C123.8 112.9 149 97.3 176.7 96C177.1 96 177.4 96 177.8 95.9L230.1 95.9L302.1 239.9L246.1 351.9L281.9 351.9C313 289.7 355.7 204.4 409.9 95.9L462.2 95.9C462.6 95.9 462.9 96 463.3 96C491 97.3 516.3 112.9 529.7 137.4L596.1 258.1C603.9 272.3 608 288.2 608 304.4L608 432C608 440.8 600.8 448 592 448L560 448C551.2 448 544 440.8 544 432L544 304.4C544 299 542.6 293.7 540 289L481.2 182C479.8 179.4 478.1 176.9 476.2 174.7C471.8 169.6 464.8 167.8 458.5 170.2C452.2 172.6 448.1 178.5 448.1 185.2L448.1 352L480.1 352L480.1 246.3L512.1 304.5L512.1 432.1C512.1 458.6 533.6 480.1 560.1 480.1L592.1 480.1C618.6 480.1 640.1 458.6 640.1 432.1L640.1 304.5C640.1 282.9 634.7 261.7 624.3 242.8L557.8 122C539.3 88.3 504.8 66.6 466.7 64.2C465.8 64.1 464.9 64 464 64L176 64zM265.9 96L374.1 96L320 204.2L265.9 96zM448 448L448 520C448 533.3 437.3 544 424 544L216 544C202.7 544 192 533.3 192 520L192 448L160 448L160 520C160 550.9 185.1 576 216 576L424 576C454.9 576 480 550.9 480 520L480 448L448 448zM144 400C144 408.8 151.2 416 160 416L290.1 416L242.7 487.1C237.8 494.5 239.8 504.4 247.1 509.3C254.4 514.2 264.4 512.2 269.3 504.9L320 428.9L370.7 504.9C375.6 512.3 385.5 514.2 392.9 509.3C400.3 504.4 402.2 494.5 397.3 487.1L349.9 416L480 416C488.8 416 496 408.8 496 400C496 391.2 488.8 384 480 384L160 384C151.2 384 144 391.2 144 400z"/></svg>