<svg xmlns="http://www.w3.org/2000/svg" viewBox="0 0 640 640"><!--! Font Awesome Pro 7.1.0 by @fontawesome - https://fontawesome.com License - https://fontawesome.com/license (Commercial License) Copyright 2025 Fonticons, Inc. --><path fill="currentColor" d="M59.3 36.8C53.1 30.6 42.9 30.6 36.7 36.8C30.5 43 30.5 53.2 36.7 59.4L580.7 603.4C586.9 609.6 597.1 609.6 603.3 603.4C609.5 597.2 609.5 587 603.3 580.8L473.7 451.2C478.6 447.4 483.3 443.3 487.8 438.9L566.9 359.8C593.2 333.5 608 297.7 608 260.5C608 182.9 545.1 120 467.5 120C432.5 120 398.9 133.1 373.1 156.5C381.3 163.4 388.8 171 395.7 179.2C415.5 161.8 441 152.1 467.5 152.1C527.4 152.1 576 200.7 576 260.6C576 289.4 564.6 316.9 544.2 337.3L465.1 416.4C460.7 420.8 455.9 424.9 450.8 428.4L379.9 357.5C387.8 339.7 392 320.4 392 300.5C392 222.9 329.1 160 251.5 160C231.7 160 212.3 164.2 194.5 172.1L59.3 36.8zM219.4 196.9C229.7 193.7 240.5 192 251.5 192C311.4 192 360 240.6 360 300.5C360 311.5 358.3 322.3 355.1 332.6L219.4 196.9zM73.1 280.2C46.8 306.5 32 342.3 32 379.5C32 457.1 94.9 520 172.5 520C207.5 520 241.1 506.9 266.9 483.5C258.7 476.6 251.2 469 244.3 460.8C224.5 478.2 199 487.9 172.5 487.9C112.6 487.9 64 439.3 64 379.4C64 350.6 75.4 323.1 95.8 302.7L154.1 244.4L131.5 221.8L73.2 280.1zM248 339.5C248 417.1 310.9 480 388.5 480L389.5 480L350.8 441.3C321.2 430.3 297.7 406.8 286.8 377.3L248.1 338.6L248.1 339.6z"/></svg>