<svg xmlns="http://www.w3.org/2000/svg" viewBox="0 0 640 640"><!--! Font Awesome Pro 7.1.0 by @fontawesome - https://fontawesome.com License - https://fontawesome.com/license (Commercial License) Copyright 2025 Fonticons, Inc. --><path fill="currentColor" d="M224 160C224 107 267 64 320 64C373 64 416 107 416 160C416 168.8 423.2 176 432 176C440.8 176 448 168.8 448 160C448 89.3 390.7 32 320 32C249.3 32 192 89.3 192 160L192 224C156.7 224 128 252.7 128 288L128 512C128 547.3 156.7 576 192 576L448 576C483.3 576 512 547.3 512 512L512 288C512 252.7 483.3 224 448 224L224 224L224 160zM160 288C160 270.3 174.3 256 192 256L448 256C465.7 256 480 270.3 480 288L480 512C480 529.7 465.7 544 448 544L192 544C174.3 544 160 529.7 160 512L160 288z"/></svg>