<svg xmlns="http://www.w3.org/2000/svg" viewBox="0 0 640 640"><!--! Font Awesome Pro 7.1.0 by @fontawesome - https://fontawesome.com License - https://fontawesome.com/license (Commercial License) Copyright 2025 Fonticons, Inc. --><path fill="currentColor" d="M337 71L337 71C327.6 61.6 312.4 61.6 303.1 71L303.1 71L159.1 215C152.2 221.9 150.2 232.2 153.9 241.2C157.6 250.2 166.3 256 176 256L256 256L256 320L256 320L256 400C256 426.5 277.5 448 304 448L336 448C362.5 448 384 426.5 384 400L384 256L464 256C473.7 256 482.5 250.2 486.2 241.2C489.9 232.2 487.9 221.9 481 215L337 71zM352 320L352 400C352 408.8 344.8 416 336 416L304 416C295.2 416 288 408.8 288 400L288 320L288 320L288 240C288 231.2 280.8 224 272 224L195.3 224L320 99.3L444.7 224L368 224C359.2 224 352 231.2 352 240L352 320zM152 528C138.7 528 128 538.7 128 552C128 565.3 138.7 576 152 576C165.3 576 176 565.3 176 552C176 538.7 165.3 528 152 528zM264 528C250.7 528 240 538.7 240 552C240 565.3 250.7 576 264 576C277.3 576 288 565.3 288 552C288 538.7 277.3 528 264 528zM352 552C352 565.3 362.7 576 376 576C389.3 576 400 565.3 400 552C400 538.7 389.3 528 376 528C362.7 528 352 538.7 352 552zM488 528C474.7 528 464 538.7 464 552C464 565.3 474.7 576 488 576C501.3 576 512 565.3 512 552C512 538.7 501.3 528 488 528z"/></svg>