<svg xmlns="http://www.w3.org/2000/svg" viewBox="0 0 640 640"><!--! Font Awesome Pro 7.1.0 by @fontawesome - https://fontawesome.com License - https://fontawesome.com/license (Commercial License) Copyright 2025 Fonticons, Inc. --><path fill="currentColor" d="M337 71L337 71C327.6 61.6 312.4 61.6 303.1 71L303.1 71L159.1 215C152.2 221.9 150.2 232.2 153.9 241.2C157.6 250.2 166.3 256 176 256L256 256L256 320L256 320L256 400C256 426.5 277.5 448 304 448L336 448C362.5 448 384 426.5 384 400L384 256L464 256C473.7 256 482.5 250.2 486.2 241.2C489.9 232.2 487.9 221.9 481 215L337 71zM352 320L352 400C352 408.8 344.8 416 336 416L304 416C295.2 416 288 408.8 288 400L288 320L288 320L288 240C288 231.2 280.8 224 272 224L195.3 224L320 99.3L444.7 224L368 224C359.2 224 352 231.2 352 240L352 320zM128 560C128 568.8 135.2 576 144 576L496 576C504.8 576 512 568.8 512 560C512 551.2 504.8 544 496 544L144 544C135.2 544 128 551.2 128 560z"/></svg>