<svg xmlns="http://www.w3.org/2000/svg" viewBox="0 0 640 640"><!--! Font Awesome Pro 7.1.0 by @fontawesome - https://fontawesome.com License - https://fontawesome.com/license (Commercial License) Copyright 2025 Fonticons, Inc. --><path fill="currentColor" d="M160.2 160L160.2 425.4L244.9 340.7C251.1 334.5 261.3 334.5 267.5 340.7L420.9 494.1C427.1 500.3 437.3 500.3 443.5 494.1L494.2 443.4C500.4 437.2 500.4 427 494.2 420.8L340.9 267.3C334.7 261.1 334.7 250.9 340.9 244.7L425.6 160L160.2 160zM128.2 152C128.2 138.7 138.9 128 152.2 128L425.6 128C454.1 128 468.4 162.5 448.2 182.6L374.9 256L516.9 398.1C535.6 416.8 535.6 447.2 516.9 466L466.2 516.7C447.5 535.4 417.1 535.4 398.3 516.7L256.2 374.6L182.9 448C162.7 468.2 128.3 453.9 128.3 425.4L128.2 152z"/></svg>