<svg xmlns="http://www.w3.org/2000/svg" viewBox="0 0 640 640"><!--! Font Awesome Pro 7.1.0 by @fontawesome - https://fontawesome.com License - https://fontawesome.com/license (Commercial License) Copyright 2025 Fonticons, Inc. --><path fill="currentColor" d="M464 0C472.8 0 480 7.2 480 16C480 24.8 472.8 32 464 32L176 32C167.2 32 160 24.8 160 16C160 7.2 167.2 0 176 0L464 0zM297.4 137.4C309.9 124.9 330.2 124.9 342.7 137.4L470.7 265.4C479.9 274.6 482.6 288.3 477.6 300.3C472.6 312.3 460.9 320 448 320L384 320L384 592C384 618.5 362.5 640 336 640L304 640C277.5 640 256 618.5 256 592L256 320L192 320C179.1 320 167.4 312.2 162.4 300.2C157.4 288.2 160.2 274.5 169.4 265.4L297.4 137.4zM320 160L192 288L272 288C280.8 288 288 295.2 288 304L288 592C288 600.8 295.2 608 304 608L336 608C344.8 608 352 600.8 352 592L352 304C352 295.2 359.2 288 368 288L448 288L320 160z"/></svg>