<svg xmlns="http://www.w3.org/2000/svg" viewBox="0 0 640 640"><!--! Font Awesome Pro 7.1.0 by @fontawesome - https://fontawesome.com License - https://fontawesome.com/license (Commercial License) Copyright 2025 Fonticons, Inc. --><path fill="currentColor" d="M416 208C416 261 373 304 320 304C267 304 224 261 224 208L224 192L287.1 192C312 192 336.2 183.7 355.9 168.4L397.9 135.7C409.3 151.6 416 171 416 192L416 208zM320 96C340.4 96 359.2 102.3 374.8 113.1L336.2 143.1C322.1 154.1 304.9 160 287.1 160L229.5 160C242.7 122.7 278.2 96 320 96zM320 64C249.3 64 192 121.3 192 192L192 208C192 278.7 249.3 336 320 336C390.7 336 448 278.7 448 208L448 192C448 121.3 390.7 64 320 64zM252.1 376.8C248.3 372.4 242.5 370.4 236.8 371.6C156.5 387.9 96 458.9 96 544.1L96 560.1C96 568.9 103.2 576.1 112 576.1C120.8 576.1 128 568.9 128 560.1L128 544.1C128 477.7 173 421.7 234.2 405.1L307.9 490.5C310.9 494 315.4 496.1 320 496.1C324.6 496.1 329.1 494.1 332.1 490.5L405.8 405C467 421.6 512 477.6 512 544L512 560C512 568.8 519.2 576 528 576C536.8 576 544 568.8 544 560L544 544C544 458.8 483.5 387.8 403.2 371.5C397.5 370.3 391.7 372.4 387.9 376.7L320 455.4L252.1 376.7z"/></svg>