<svg xmlns="http://www.w3.org/2000/svg" viewBox="0 0 640 640"><!--! Font Awesome Pro 7.1.0 by @fontawesome - https://fontawesome.com License - https://fontawesome.com/license (Commercial License) Copyright 2025 Fonticons, Inc. --><path fill="currentColor" d="M64 128C64 92.7 92.7 64 128 64L208 64C216.8 64 224 71.2 224 80C224 88.8 216.8 96 208 96L128 96C110.3 96 96 110.3 96 128L96 208C96 216.8 88.8 224 80 224C71.2 224 64 216.8 64 208L64 128zM416 80C416 71.2 423.2 64 432 64L512 64C547.3 64 576 92.7 576 128L576 208C576 216.8 568.8 224 560 224C551.2 224 544 216.8 544 208L544 128C544 110.3 529.7 96 512 96L432 96C423.2 96 416 88.8 416 80zM80 416C88.8 416 96 423.2 96 432L96 512C96 529.7 110.3 544 128 544L208 544C216.8 544 224 551.2 224 560C224 568.8 216.8 576 208 576L128 576C92.7 576 64 547.3 64 512L64 432C64 423.2 71.2 416 80 416zM560 416C568.8 416 576 423.2 576 432L576 512C576 547.3 547.3 576 512 576L432 576C423.2 576 416 568.8 416 560C416 551.2 423.2 544 432 544L512 544C529.7 544 544 529.7 544 512L544 432C544 423.2 551.2 416 560 416zM192 448C192 395 235 352 288 352L352 352C405 352 448 395 448 448L448 464C448 472.8 440.8 480 432 480C423.2 480 416 472.8 416 464L416 448C416 412.7 387.3 384 352 384L288 384C252.7 384 224 412.7 224 448L224 464C224 472.8 216.8 480 208 480C199.2 480 192 472.8 192 464L192 448zM360 232C360 209.9 342.1 192 320 192C297.9 192 280 209.9 280 232C280 254.1 297.9 272 320 272C342.1 272 360 254.1 360 232zM248 232C248 192.2 280.2 160 320 160C359.8 160 392 192.2 392 232C392 271.8 359.8 304 320 304C280.2 304 248 271.8 248 232z"/></svg>