<svg xmlns="http://www.w3.org/2000/svg" viewBox="0 0 640 640"><!--! Font Awesome Pro 7.1.0 by @fontawesome - https://fontawesome.com License - https://fontawesome.com/license (Commercial License) Copyright 2025 Fonticons, Inc. --><path fill="currentColor" d="M128.1 172.4C130.6 117.8 175.1 64 233.2 64L278.8 64C336.7 64 381.5 116.4 383.9 171.3L422.7 234.8C422.8 235 423 235.2 423.1 235.5C429 246.3 432.1 258.4 432.1 270.6C432.1 296.2 419 318.7 399.2 331.8C399.8 335.8 400.1 339.8 400.1 344C400.1 388.2 364.3 424 320.1 424C315.6 424 311.2 423.6 306.9 422.9C295.2 438.1 276.8 448 256.1 448C235.4 448 217 438.2 205.3 422.9C201 423.6 196.6 424 192.1 424C147.9 424 112.1 388.2 112.1 344C112.1 339.9 112.4 335.8 113 331.8C93.2 318.7 80.1 296.2 80.1 270.6C80.1 258.3 83.2 246.2 89.1 235.5C89.2 235.2 89.4 235 89.6 234.7L128.3 172.4zM233.2 96C199.8 96 169.6 125 161.9 160L178.8 160C203.5 160 227.3 150.2 244.7 132.7C247.7 129.7 251.8 128 256 128C260.2 128 264.3 129.7 267.3 132.7C284.8 150.2 308.5 160 333.3 160L350.4 160C343.1 124.8 312.8 96 278.9 96L233.3 96zM116.9 251.2C113.7 257.2 112 263.9 112 270.6C112 287.8 122.5 302.6 137.5 308.8C145.3 312 149.2 320.7 146.5 328.7C144.9 333.5 144 338.6 144 344C144 370.5 165.5 392 192 392C197.4 392 202.6 391.1 207.5 389.5C215.2 386.9 223.6 390.4 227.1 397.8C232.3 408.6 243.3 416.1 256 416.1C268.7 416.1 279.8 408.7 284.9 397.8C288.4 390.5 296.8 386.9 304.5 389.5C309.3 391.1 314.5 392 320 392C346.5 392 368 370.5 368 344C368 338.6 367.1 333.5 365.5 328.7C362.8 320.7 366.8 312.1 374.5 308.8C389.5 302.6 400 287.8 400 270.6C400 263.8 398.3 257.1 395.1 251.1L382.1 229.8C371.8 290.1 319.2 336 256 336C192.9 336 140.4 290.3 129.9 230.2L116.8 251.2zM352 192L333.3 192C305.2 192 278 182.5 256 165.3C234.1 182.5 206.9 192 178.7 192L160 192L160 208C160 232.8 169.4 255.4 184.9 272.5L190.1 267.3C207.5 249.8 231.3 240 256 240C280.7 240 304.5 249.8 321.9 267.3L327.1 272.5C342.6 255.5 352 232.8 352 208L352 192zM256 304C272.6 304 288.2 299.8 301.8 292.4L299.3 289.9C287.8 278.5 272.2 272 256 272C239.8 272 224.2 278.5 212.7 289.9L210.2 292.4C223.8 299.8 239.4 304 256 304zM117.4 448C84.8 474.4 64 514.7 64 560C64 568.8 56.8 576 48 576C39.2 576 32 568.8 32 560C32 506.4 56 458.4 93.8 426.1C100.7 434.4 108.7 441.8 117.4 448.1zM533.7 320C553.5 320 567.8 338.8 562.5 357.9L541.9 432L580.6 432C595.7 432 607.9 444.2 607.9 459.3C607.9 466.5 605 473.5 599.9 478.6L479.4 599.3C473.8 604.9 466.2 608 458.3 608C438.5 608 424.2 589.2 429.5 570.1L450.1 496L411.4 496C396.3 496 384.1 483.8 384.1 468.7C384.1 461.5 387 454.5 392.1 449.4L512.6 328.7C518.2 323.1 525.8 320 533.7 320zM422.6 464L471.1 464C481.5 464 489.3 474.2 486.5 484.3L462.4 570.9L569.3 464L520.8 464C510.4 464 502.6 453.8 505.4 443.7L529.5 357.1L422.6 464z"/></svg>