<svg xmlns="http://www.w3.org/2000/svg" viewBox="0 0 640 640"><!--! Font Awesome Pro 7.1.0 by @fontawesome - https://fontawesome.com License - https://fontawesome.com/license (Commercial License) Copyright 2025 Fonticons, Inc. --><path fill="currentColor" d="M192.1 172.4C194.6 117.8 239.1 64 297.2 64L342.8 64C400.7 64 445.5 116.4 447.9 171.3L486.7 234.8C486.8 234.9 486.9 235.1 486.9 235.2C487 235.3 487 235.4 487.1 235.5C493 246.3 496.1 258.4 496.1 270.6C496.1 296.2 483 318.7 463.2 331.8C463.8 335.8 464.1 339.8 464.1 344C464.1 388.2 428.3 424 384.1 424C379.6 424 375.2 423.6 370.9 422.9C359.2 438.1 340.8 448 320.1 448C299.4 448 281 438.2 269.3 422.9C265 423.6 260.6 424 256.1 424C211.9 424 176.1 388.2 176.1 344C176.1 339.9 176.4 335.8 177 331.8C157.2 318.7 144.1 296.2 144.1 270.6C144.1 258.3 147.2 246.2 153.1 235.5C153.2 235.2 153.4 235 153.6 234.7L192.3 172.4zM297.2 96C263.8 96 233.6 125 225.9 160L242.8 160C267.5 160 291.3 150.2 308.7 132.7C311.7 129.7 315.8 128 320 128C324.2 128 328.3 129.7 331.3 132.7C348.8 150.2 372.5 160 397.3 160L414.4 160C407.1 124.8 376.8 96 342.9 96L297.3 96zM180.9 251.2C177.7 257.2 176 263.9 176 270.6C176 287.8 186.5 302.6 201.5 308.8C209.3 312 213.2 320.7 210.5 328.7C208.9 333.5 208 338.6 208 344C208 370.5 229.5 392 256 392C261.4 392 266.6 391.1 271.5 389.5C279.2 386.9 287.6 390.4 291.1 397.8C296.3 408.6 307.3 416.1 320 416.1C332.7 416.1 343.8 408.7 348.9 397.8C352.4 390.5 360.8 386.9 368.5 389.5C373.3 391.1 378.5 392 384 392C410.5 392 432 370.5 432 344C432 338.6 431.1 333.5 429.5 328.7C426.8 320.7 430.8 312.1 438.5 308.8C453.5 302.6 464 287.8 464 270.6C464 263.8 462.3 257.1 459.1 251.1L446.1 229.8C435.8 290.1 383.2 336 320 336C256.9 336 204.4 290.3 193.9 230.2L180.8 251.2zM416 192L397.3 192C369.1 192 342 182.5 320 165.3C298.1 182.5 270.9 192 242.7 192L224 192L224 208C224 232.8 233.4 255.4 248.9 272.5L254.1 267.3C271.5 249.8 295.3 240 320 240C344.7 240 368.5 249.8 385.9 267.3L391.1 272.5C406.6 255.5 416 232.8 416 208L416 192zM320 304C336.6 304 352.2 299.8 365.8 292.4L363.3 289.9C351.8 278.5 336.2 272 320 272C303.8 272 288.2 278.5 276.7 289.9L274.2 292.4C287.8 299.8 303.4 304 320 304zM482.2 426.1C520 458.4 544 506.4 544 560C544 568.8 536.8 576 528 576C519.2 576 512 568.8 512 560C512 514.8 491.2 474.4 458.6 448C467.4 441.7 475.3 434.3 482.2 426zM181.4 448C148.8 474.4 128 514.7 128 560C128 568.8 120.8 576 112 576C103.2 576 96 568.8 96 560C96 506.4 120 458.4 157.8 426.1C164.7 434.4 172.7 441.8 181.4 448.1z"/></svg>