<svg xmlns="http://www.w3.org/2000/svg" viewBox="0 0 640 640"><!--! Font Awesome Pro 7.1.0 by @fontawesome - https://fontawesome.com License - https://fontawesome.com/license (Commercial License) Copyright 2025 Fonticons, Inc. --><path fill="currentColor" d="M416 160L336 160L336 144L352 144C356.4 144 360 140.4 360 136L360 120C360 115.6 356.4 112 352 112L336 112L336 96C336 91.6 332.4 88 328 88L312 88C307.6 88 304 91.6 304 96L304 112L288 112C283.6 112 280 115.6 280 120L280 136C280 140.4 283.6 144 288 144L304 144L304 160L224 160L224 108.9L320 66.9L416 108.9L416 160zM211.2 79.6C199.5 84.7 192 96.2 192 108.9L192 192C192 219.7 183 246.6 166.4 268.8L149.6 291.2C146 296 144 301.9 144 308C144 323.5 156.5 336 172 336L468 336C483.5 336 496 323.5 496 308C496 301.9 494 296 490.4 291.2L473.6 268.8C457 246.6 448 219.7 448 192L448 108.9C448 96.2 440.5 84.7 428.8 79.6L332.8 37.6C324.6 34 315.3 34 307.1 37.6L211.1 79.6zM224 192L416 192L416 208C416 261 373 304 320 304C267 304 224 261 224 208L224 192zM404.7 304C416.8 293.4 426.8 280.5 434.2 266C438.2 273.7 442.8 281 448.1 288L460.1 304L404.8 304zM205.9 266C213.3 280.5 223.3 293.4 235.4 304L180 304L192 288C197.2 281 201.9 273.7 205.9 266zM252.2 376.8C248.4 372.4 242.6 370.4 236.9 371.6C156.6 387.9 96.1 458.9 96.1 544.1L96.1 560.1C96.1 568.9 103.3 576.1 112.1 576.1C120.9 576.1 128.1 568.9 128.1 560.1L128.1 544.1C128.1 477.7 173.1 421.7 234.3 405.1L308 490.5C311 494 315.5 496.1 320.1 496.1C324.7 496.1 329.2 494.1 332.2 490.5L405.8 405C467 421.6 512 477.6 512 544L512 560C512 568.8 519.2 576 528 576C536.8 576 544 568.8 544 560L544 544C544 458.8 483.5 387.8 403.2 371.5C397.5 370.3 391.7 372.3 387.9 376.7L320 455.4L252.1 376.7z"/></svg>