<svg xmlns="http://www.w3.org/2000/svg" viewBox="0 0 640 640"><!--! Font Awesome Pro 7.1.0 by @fontawesome - https://fontawesome.com License - https://fontawesome.com/license (Commercial License) Copyright 2025 Fonticons, Inc. --><path fill="currentColor" d="M304.5 368C401.7 368 480.5 446.8 480.5 544L480.5 560C480.5 568.8 473.3 576 464.5 576C455.7 576 448.5 568.8 448.5 560L448.5 544C448.5 464.5 384 400 304.5 400L208.5 400C129 400 64.5 464.5 64.5 544L64.5 560C64.5 568.8 57.3 576 48.5 576C39.7 576 32.5 568.8 32.5 560L32.5 544C32.5 446.8 111.3 368 208.5 368L304.5 368zM595.6 170.2C600.8 163.1 610.8 161.5 617.9 166.7C625 171.9 626.6 181.9 621.4 189L515.8 334.2C513 338 508.7 340.4 504 340.7C499.3 341 494.7 339.3 491.4 335.9L437 279.6C430.9 273.2 431 263.1 437.4 257C443.8 250.9 453.9 251.1 460 257.4L501.2 300L595.6 170.2zM256.5 320C185.8 320 128.5 262.7 128.5 192C128.5 121.3 185.8 64 256.5 64C327.2 64 384.5 121.3 384.5 192C384.5 262.7 327.2 320 256.5 320zM256.5 96C203.5 96 160.5 139 160.5 192C160.5 245 203.5 288 256.5 288C309.5 288 352.5 245 352.5 192C352.5 139 309.5 96 256.5 96z"/></svg>