<svg xmlns="http://www.w3.org/2000/svg" viewBox="0 0 640 640"><!--! Font Awesome Pro 7.1.0 by @fontawesome - https://fontawesome.com License - https://fontawesome.com/license (Commercial License) Copyright 2025 Fonticons, Inc. --><path fill="currentColor" d="M320 80C240.5 80 176 144.5 176 224L176 240C176 248.8 168.8 256 160 256C151.2 256 144 248.8 144 240L144 224C144 126.8 222.8 48 320 48C417.2 48 496 126.8 496 224L496 368C496 376.8 488.8 384 480 384L288 384C261.5 384 240 362.5 240 336C240 309.5 261.5 288 288 288L352 288C378.5 288 400 309.5 400 336C400 341.6 399 347 397.3 352L464 352L464 224C464 144.5 399.5 80 320 80zM352 352C360.8 352 368 344.8 368 336C368 327.2 360.8 320 352 320L288 320C279.2 320 272 327.2 272 336C272 344.8 279.2 352 288 352L352 352zM400 224C400 179.8 364.2 144 320 144C275.8 144 240 179.8 240 224C240 233.3 241.6 242.1 244.5 250.4C234.5 255.5 225.6 262.2 218 270.3C211.6 256.2 208 240.5 208 224C208 162.1 258.1 112 320 112C381.9 112 432 162.1 432 224C432 240.5 428.4 256.2 422 270.3C414.4 262.2 405.5 255.5 395.5 250.4C398.4 242.1 400 233.2 400 224zM128 560C128 568.8 120.8 576 112 576C103.2 576 96 568.8 96 560C96 480.5 160.5 416 240 416L400 416C479.5 416 544 480.5 544 560C544 568.8 536.8 576 528 576C519.2 576 512 568.8 512 560C512 498.1 461.9 448 400 448L240 448C178.1 448 128 498.1 128 560z"/></svg>