<svg xmlns="http://www.w3.org/2000/svg" viewBox="0 0 640 640"><!--! Font Awesome Pro 7.1.0 by @fontawesome - https://fontawesome.com License - https://fontawesome.com/license (Commercial License) Copyright 2025 Fonticons, Inc. --><path fill="currentColor" d="M352.1 192C352.1 139 309.1 96 256.1 96C203.1 96 160.1 139 160.1 192C160.1 245 203.1 288 256.1 288C309.1 288 352.1 245 352.1 192zM128.1 192C128.1 121.3 185.4 64 256.1 64C326.8 64 384.1 121.3 384.1 192C384.1 262.7 326.8 320 256.1 320C185.4 320 128.1 262.7 128.1 192zM64.1 544L64.1 560C64.1 568.8 56.9 576 48.1 576C39.3 576 32.1 568.8 32.1 560L32.1 544C32.1 446.8 110.9 368 208.1 368L304.1 368L305.7 368C304.6 373.2 304.1 378.6 304.1 384.1L304.1 400L208.1 400C128.6 400 64.1 464.5 64.1 544zM384.1 384.1L384.1 476.2C384.1 480.4 385.8 484.5 388.8 487.5L484.8 583.5C491 589.7 501.2 589.7 507.4 583.5L583.5 507.4C589.7 501.2 589.7 491 583.5 484.8L487.5 388.8C484.5 385.8 480.4 384.1 476.2 384.1L384.1 384.1zM366.2 510.2C357.2 501.2 352.1 489 352.1 476.3L352.1 384.2C352.1 366.5 366.4 352.2 384.1 352.2L476.2 352.2C488.9 352.2 501.1 357.3 510.1 366.3L606.1 462.3C624.8 481 624.8 511.4 606.1 530.2L530 606.3C511.3 625 480.9 625 462.1 606.3L366.1 510.3zM424.1 448C424.1 434.7 434.8 424 448.1 424C461.4 424 472.1 434.7 472.1 448C472.1 461.3 461.4 472 448.1 472C434.8 472 424.1 461.3 424.1 448z"/></svg>