<svg xmlns="http://www.w3.org/2000/svg" viewBox="0 0 640 640"><!--! Font Awesome Pro 7.1.0 by @fontawesome - https://fontawesome.com License - https://fontawesome.com/license (Commercial License) Copyright 2025 Fonticons, Inc. --><path fill="currentColor" d="M368 192C368 165.5 346.5 144 320 144C293.5 144 272 165.5 272 192C272 218.5 293.5 240 320 240C346.5 240 368 218.5 368 192zM240 192C240 147.8 275.8 112 320 112C364.2 112 400 147.8 400 192C400 236.2 364.2 272 320 272C275.8 272 240 236.2 240 192zM184 256C192 256 199.4 253.7 205.7 249.6C210.6 259.2 216.6 268.1 223.6 276.1C212.2 283.6 198.7 287.9 184 287.9C144.2 287.9 112 255.7 112 215.9C112 176.1 144.2 143.9 184 143.9C189.7 143.9 195.2 144.6 200.5 145.8C196.7 155.6 194.1 166 192.8 176.9C189.9 176.3 187 175.9 183.9 175.9C161.8 175.9 143.9 193.8 143.9 215.9C143.9 238 161.8 255.9 183.9 255.9zM456 288C441.4 288 427.8 283.6 416.4 276.2C423.4 268.2 429.4 259.3 434.3 249.7C440.5 253.7 448 256.1 456 256.1C478.1 256.1 496 238.2 496 216.1C496 194 478.1 176.1 456 176.1C453 176.1 450 176.4 447.1 177.1C445.8 166.3 443.2 155.9 439.4 146C444.7 144.8 450.3 144.1 455.9 144.1C495.7 144.1 527.9 176.3 527.9 216.1C527.9 255.9 495.7 288.1 455.9 288.1zM80 424C80 366.6 126.6 320 184 320L186.7 320C176.6 330.6 168 342.6 161.3 355.7C132.7 365.2 112.1 392.2 112.1 424L112.1 432C112.1 440.8 104.9 448 96.1 448C87.3 448 80.1 440.8 80.1 432L80.1 424zM478.8 355.7C472 342.6 463.4 330.6 453.4 320L456.1 320C513.5 320 560.1 366.6 560.1 424L560.1 432C560.1 440.8 552.9 448 544.1 448C535.3 448 528.1 440.8 528.1 432L528.1 424C528.1 392.2 507.5 365.2 478.9 355.7zM48 512L592 512C600.8 512 608 519.2 608 528C608 536.8 600.8 544 592 544L48 544C39.2 544 32 536.8 32 528C32 519.2 39.2 512 48 512zM192 424C192 366.6 238.6 320 296 320L344 320C401.4 320 448 366.6 448 424L448 432C448 440.8 440.8 448 432 448C423.2 448 416 440.8 416 432L416 424C416 384.2 383.8 352 344 352L296 352C256.2 352 224 384.2 224 424L224 432C224 440.8 216.8 448 208 448C199.2 448 192 440.8 192 432L192 424z"/></svg>