<svg xmlns="http://www.w3.org/2000/svg" viewBox="0 0 640 640"><!--! Font Awesome Pro 7.1.0 by @fontawesome - https://fontawesome.com License - https://fontawesome.com/license (Commercial License) Copyright 2025 Fonticons, Inc. --><path fill="currentColor" d="M304 32C288.7 32 276 42.7 272.8 57C225.5 75.8 192 122 192 176L184 176C175.2 176 168 183.2 168 192C168 200.8 175.2 208 184 208L192 208C192 278.7 249.3 336 320 336C390.7 336 448 278.7 448 208L456 208C464.8 208 472 200.8 472 192C472 183.2 464.8 176 456 176L448 176C448 122 414.5 75.8 367.2 57C364 42.7 351.2 32 336 32L304 32zM416 208C416 261 373 304 320 304C267 304 224 261 224 208L416 208zM224 176C224 140.5 243.3 109.4 272 92.8L272 112C272 120.8 279.2 128 288 128C296.8 128 304 120.8 304 112L304 64L336 64L336 112C336 120.8 343.2 128 352 128C360.8 128 368 120.8 368 112L368 92.8C396.7 109.4 416 140.4 416 176L224 176zM272 416L368 416C447.5 416 512 480.5 512 560C512 568.8 519.2 576 528 576C536.8 576 544 568.8 544 560C544 462.8 465.2 384 368 384L272 384C174.8 384 96 462.8 96 560C96 568.8 103.2 576 112 576C120.8 576 128 568.8 128 560C128 480.5 192.5 416 272 416z"/></svg>