<svg xmlns="http://www.w3.org/2000/svg" viewBox="0 0 640 640"><!--! Font Awesome Pro 7.1.0 by @fontawesome - https://fontawesome.com License - https://fontawesome.com/license (Commercial License) Copyright 2025 Fonticons, Inc. --><path fill="currentColor" d="M160 192C160 139 203 96 256 96C309 96 352 139 352 192C352 245 309 288 256 288C203 288 160 245 160 192zM384 192C384 121.3 326.7 64 256 64C185.3 64 128 121.3 128 192C128 262.7 185.3 320 256 320C326.7 320 384 262.7 384 192zM64 544C64 464.5 128.5 400 208 400L304 400C321.4 400 338 403.1 353.4 408.7C357.6 402.7 362.5 397.2 368 392.3L368 379.9C348.2 372.2 326.6 367.9 304 367.9L208 367.9C110.8 368 32 446.8 32 544L32 560C32 568.8 39.2 576 48 576C56.8 576 64 568.8 64 560L64 544zM544 368L576 368C576 323.8 540.2 288 496 288C451.8 288 416 323.8 416 368L416 418.7C397.4 425.3 384 443.1 384 464L384 560C384 586.5 405.5 608 432 608L560 608C586.5 608 608 586.5 608 560L608 464C608 437.5 586.5 416 560 416L448 416L448 368C448 341.5 469.5 320 496 320C522.5 320 544 341.5 544 368zM416 464C416 455.2 423.2 448 432 448L560 448C568.8 448 576 455.2 576 464L576 560C576 568.8 568.8 576 560 576L432 576C423.2 576 416 568.8 416 560L416 464z"/></svg>