<svg xmlns="http://www.w3.org/2000/svg" viewBox="0 0 640 640"><!--! Font Awesome Pro 7.1.0 by @fontawesome - https://fontawesome.com License - https://fontawesome.com/license (Commercial License) Copyright 2025 Fonticons, Inc. --><path fill="currentColor" d="M288.4 282.4C294.3 292 301.6 300.7 310 308.1C293.6 315.7 275.3 320 256 320C185.3 320 128 262.7 128 192C128 121.3 185.3 64 256 64C267.5 64 278.6 65.5 289.2 68.3C283.5 77.4 279 87.4 276 98C269.5 96.6 262.8 95.9 256 95.9C203 95.9 160 138.9 160 191.9C160 244.9 203 287.9 256 287.9C267.4 287.9 278.3 285.9 288.4 282.3zM160 424.2C104.1 444 64 497.3 64 560C64 568.8 56.8 576 48 576C39.2 576 32 568.8 32 560C32 462.8 110.8 384 208 384L304 384C401.2 384 480 462.8 480 560C480 568.8 472.8 576 464 576C455.2 576 448 568.8 448 560C448 497.3 407.9 444 352 424.2L352 466C379.6 473.1 400 498.2 400 528L400 552C400 560.8 392.8 568 384 568C375.2 568 368 560.8 368 552L368 528C368 510.3 353.7 496 336 496C318.3 496 304 510.3 304 528L304 552C304 560.8 296.8 568 288 568C279.2 568 272 560.8 272 552L272 528C272 498.2 292.4 473.1 320 466L320 416.9C314.7 416.3 309.4 416 304 416L208 416C202.6 416 197.3 416.3 192 416.9L192 466.3C215.1 473.2 232 494.6 232 520C232 550.9 206.9 576 176 576C145.1 576 120 550.9 120 520C120 494.6 136.9 473.2 160 466.3L160 424.2zM176 544C189.3 544 200 533.3 200 520C200 506.7 189.3 496 176 496C162.7 496 152 506.7 152 520C152 533.3 162.7 544 176 544zM352 128L352 224C352 241.7 366.3 256 384 256L400 256C408.8 256 416 263.2 416 272L416 313.4L468.7 260.7C471.7 257.7 475.8 256 480 256L544 256C561.7 256 576 241.7 576 224L576 128C576 110.3 561.7 96 544 96L384 96C366.3 96 352 110.3 352 128zM384 64L544 64C579.3 64 608 92.7 608 128L608 224C608 259.3 579.3 288 544 288L486.6 288L438.6 336C418.4 356.2 384 341.9 384 313.4L384 288C348.7 288 320 259.3 320 224L320 128C320 92.7 348.7 64 384 64z"/></svg>