<svg xmlns="http://www.w3.org/2000/svg" viewBox="0 0 640 640"><!--! Font Awesome Pro 7.1.0 by @fontawesome - https://fontawesome.com License - https://fontawesome.com/license (Commercial License) Copyright 2025 Fonticons, Inc. --><path fill="currentColor" d="M320 96C373 96 416 139 416 192C416 245 373 288 320 288C267 288 224 245 224 192C224 139 267 96 320 96zM192 192C192 262.7 249.3 320 320 320C390.7 320 448 262.7 448 192C448 121.3 390.7 64 320 64C249.3 64 192 121.3 192 192zM128 560C128 497.3 168.1 444 224 424.2L224 466.3C200.9 473.2 184 494.6 184 520C184 550.9 209.1 576 240 576C270.9 576 296 550.9 296 520C296 494.6 279.1 473.2 256 466.3L256 416.9C261.3 416.3 266.6 416 272 416L368 416C373.4 416 378.7 416.3 384 416.9L384 466C356.4 473.1 336 498.2 336 528L336 552C336 560.8 343.2 568 352 568C360.8 568 368 560.8 368 552L368 528C368 510.3 382.3 496 400 496C417.7 496 432 510.3 432 528L432 552C432 560.8 439.2 568 448 568C456.8 568 464 560.8 464 552L464 528C464 498.2 443.6 473.1 416 466L416 424.2C471.9 444 512 497.3 512 560C512 568.8 519.2 576 528 576C536.8 576 544 568.8 544 560C544 462.8 465.2 384 368 384L272 384C174.8 384 96 462.8 96 560C96 568.8 103.2 576 112 576C120.8 576 128 568.8 128 560zM264 520C264 533.3 253.3 544 240 544C226.7 544 216 533.3 216 520C216 506.7 226.7 496 240 496C253.3 496 264 506.7 264 520z"/></svg>