<svg xmlns="http://www.w3.org/2000/svg" viewBox="0 0 640 640"><!--! Font Awesome Pro 7.1.0 by @fontawesome - https://fontawesome.com License - https://fontawesome.com/license (Commercial License) Copyright 2025 Fonticons, Inc. --><path fill="currentColor" d="M256 288C309 288 352 245 352 192C352 139 309 96 256 96C203 96 160 139 160 192C160 245 203 288 256 288zM256 64C326.7 64 384 121.3 384 192C384 262.7 326.7 320 256 320C185.3 320 128 262.7 128 192C128 121.3 185.3 64 256 64zM208 400C128.5 400 64 464.5 64 544L64 560C64 568.8 56.8 576 48 576C39.2 576 32 568.8 32 560L32 544C32 446.8 110.8 368 208 368L304 368C401.2 368 480 446.8 480 544L480 560C480 568.8 472.8 576 464 576C455.2 576 448 568.8 448 560L448 544C448 464.5 383.5 400 304 400L208 400zM528 176C507.4 176 490.8 192.7 490.8 213.2C490.8 222 483.6 229.2 474.8 229.2C466 229.2 458.8 222 458.8 213.2C458.8 175 489.8 144 528 144C566.2 144 597.2 175 597.2 213.2C597.2 249 572.9 266.9 555.1 274.9C547.3 278.4 544 284.1 544 288C544 296.8 536.8 304 528 304C519.2 304 512 296.8 512 288C512 267.2 527.3 252.3 542.1 245.7C554.3 240.3 565.3 231 565.3 213.2C565.3 192.6 548.6 176 528.1 176zM508 352C508 341 517 332 528 332C539 332 548 341 548 352C548 363 539 372 528 372C517 372 508 363 508 352z"/></svg>