<svg xmlns="http://www.w3.org/2000/svg" viewBox="0 0 640 640"><!--! Font Awesome Pro 7.1.0 by @fontawesome - https://fontawesome.com License - https://fontawesome.com/license (Commercial License) Copyright 2025 Fonticons, Inc. --><path fill="currentColor" d="M352 192C352 139 309 96 256 96C203 96 160 139 160 192C160 245 203 288 256 288C309 288 352 245 352 192zM128 192C128 121.3 185.3 64 256 64C326.7 64 384 121.3 384 192C384 262.7 326.7 320 256 320C185.3 320 128 262.7 128 192zM64 544L64 560C64 568.8 56.8 576 48 576C39.2 576 32 568.8 32 560L32 544C32 446.8 110.8 368 208 368L304 368C317.9 368 331.5 369.6 344.5 372.7C331 378 319.7 387.8 312.5 400.3C309.7 400.1 306.8 400.1 303.9 400.1L207.9 400.1C128.5 400 64 464.5 64 544zM416 352C416 316.7 444.7 288 480 288C515.3 288 544 316.7 544 352L544 448C544 483.3 515.3 512 480 512C444.7 512 416 483.3 416 448L416 352zM480 320C462.3 320 448 334.3 448 352L448 448C448 465.7 462.3 480 480 480C497.7 480 512 465.7 512 448L512 352C512 334.3 497.7 320 480 320zM368 416C376.8 416 384 423.2 384 432L384 448C384 501 427 544 480 544C533 544 576 501 576 448L576 432C576 423.2 583.2 416 592 416C600.8 416 608 423.2 608 432L608 448C608 513.3 559.1 567.1 496 575L496 592C496 600.8 488.8 608 480 608C471.2 608 464 600.8 464 592L464 575C400.9 567.1 352 513.3 352 448L352 432C352 423.2 359.2 416 368 416z"/></svg>