<svg xmlns="http://www.w3.org/2000/svg" viewBox="0 0 640 640"><!--! Font Awesome Pro 7.1.0 by @fontawesome - https://fontawesome.com License - https://fontawesome.com/license (Commercial License) Copyright 2025 Fonticons, Inc. --><path fill="currentColor" d="M352 192C352 139 309 96 256 96C203 96 160 139 160 192C160 245 203 288 256 288C309 288 352 245 352 192zM128 192C128 121.3 185.3 64 256 64C326.7 64 384 121.3 384 192C384 262.7 326.7 320 256 320C185.3 320 128 262.7 128 192zM64 544L64 560C64 568.8 56.8 576 48 576C39.2 576 32 568.8 32 560L32 544C32 446.8 110.8 368 208 368L304 368C312.2 368 320.2 368.6 328.1 369.6C328 371.7 328 373.8 328 376C328 385 328.7 393.8 330.1 402.4C321.6 400.9 312.9 400 304 400L208 400C128.5 400 64 464.5 64 544zM496 288C447.4 288 408 327.4 408 376C408 409.9 427.2 439.4 455.4 454.1C460.7 456.9 464 462.3 464 468.3L464 568.7L504 603L536.5 575.2L516.7 555.4C510.5 549.2 510.5 539 516.7 532.8L537.4 512.1L516.7 491.4C513.7 488.4 512 484.3 512 480.1L512 475.1C512 468.2 516.5 462 523.1 459.9C558.5 448.5 584 415.3 584 376.1C584 327.5 544.6 288.1 496 288.1zM376 376C376 309.7 429.7 256 496 256C562.3 256 616 309.7 616 376C616 421.9 590.3 461.7 552.5 481.9L571.3 500.7C577.5 506.9 577.5 517.1 571.3 523.3L550.6 544L571.3 564.7C574.4 567.9 576.1 572.2 576 576.6C575.9 581 573.8 585.2 570.4 588.1L514.4 636.1C508.4 641.2 499.6 641.2 493.6 636.1L437.6 588.1C434.1 585.1 432 580.6 432 575.9L432 477.4C398.4 456.2 376 418.6 376 375.9zM496 376C482.7 376 472 365.3 472 352C472 338.7 482.7 328 496 328C509.3 328 520 338.7 520 352C520 365.3 509.3 376 496 376z"/></svg>