<svg xmlns="http://www.w3.org/2000/svg" viewBox="0 0 640 640"><!--! Font Awesome Pro 7.1.0 by @fontawesome - https://fontawesome.com License - https://fontawesome.com/license (Commercial License) Copyright 2025 Fonticons, Inc. --><path fill="currentColor" d="M320 288C361.8 288 397.4 261.3 410.5 224L229.4 224C242.6 261.3 278.1 288 319.9 288zM410.5 160L232 160C231.2 160 230.3 159.9 229.5 159.8C225.9 169.9 224 180.7 224 192L416 192C416 180.8 414.1 170 410.5 160zM391.5 128C374 108.4 348.4 96 320 96C291.6 96 266 108.4 248.4 128L391.5 128zM320 320C256.4 320 203.7 273.7 193.7 212.9L171.3 235.3C165.1 241.5 154.9 241.5 148.7 235.3C142.5 229.1 142.5 218.9 148.7 212.7L185.4 176L148.7 139.3C142.5 133.1 142.5 122.9 148.7 116.7C154.9 110.5 165.1 110.5 171.3 116.7L200.5 145.9C219 98 265.6 64 320 64C390.7 64 448 121.3 448 192C448 262.7 390.7 320 320 320zM236.5 371.6C237.6 371.4 238.7 371.2 239.8 371.2C240.7 371.2 241.5 371.2 242.4 371.4C246.1 371.9 249.6 373.8 252.2 376.8L320.1 455.5L388 376.8C391.8 372.4 397.6 370.4 403.3 371.6C483.6 387.9 544.1 458.9 544.1 544.1L544.1 560.1C544.1 568.9 536.9 576.1 528.1 576.1C519.3 576.1 512.1 568.9 512.1 560.1L512.1 544.1C512.1 477.7 467.1 421.7 405.9 405.1L341.2 480.1L396.2 543.9C402 550.6 401.2 560.7 394.5 566.5C387.8 572.3 377.7 571.5 371.9 564.8C330.8 517.1 284.9 463.8 234.2 405C173 421.6 128 477.6 128 544L128 560C128 568.8 120.8 576 112 576C103.2 576 96 568.8 96 560L96 544C96 459 156.3 388 236.5 371.6z"/></svg>