<svg xmlns="http://www.w3.org/2000/svg" viewBox="0 0 640 640"><!--! Font Awesome Pro 7.1.0 by @fontawesome - https://fontawesome.com License - https://fontawesome.com/license (Commercial License) Copyright 2025 Fonticons, Inc. --><path fill="currentColor" d="M176 64C167.2 64 160 71.2 160 80L160 328C160 329 160.1 330 160.3 331L160.1 334.5C159.3 346.5 167.6 357.2 179.3 359.6L293.9 382.5C310.1 385.7 330 385.7 346.2 382.5L460.8 359.6C472.6 357.2 480.8 346.5 480 334.5L471.7 206.3C466.5 126.2 400.1 64 320 64C266.5 64 219.1 91.7 192 134L192 96C200.8 96 208 88.8 208 80C208 71.2 200.8 64 192 64L176 64zM198.2 240.1L199.2 224L304 224L304 351.7C302.7 351.5 301.4 351.3 300.1 351L286.6 348.3C279.3 298.1 244.6 256.8 198.2 240zM196 273.7C223.7 286.6 244.7 311.4 252.6 341.5L192.4 329.5L196 273.7zM336 351.7L336 224L440.8 224L441.8 240.1C395.4 256.9 360.7 298.2 353.4 348.4L339.9 351.1C338.6 351.3 337.4 351.6 336 351.8zM437.6 192L202.4 192C213.6 136.9 262.3 96 320 96C377.7 96 426.4 136.9 437.6 192zM444 273.7L447.6 329.5L387.4 341.5C395.3 311.4 416.3 286.6 444 273.7zM240 448L400 448C461.9 448 512 498.1 512 560C512 568.8 519.2 576 528 576C536.8 576 544 568.8 544 560C544 480.5 479.5 416 400 416L240 416C160.5 416 96 480.5 96 560C96 568.8 103.2 576 112 576C120.8 576 128 568.8 128 560C128 498.1 178.1 448 240 448zM308.7 484.7L244.7 548.7C238.5 554.9 238.5 565.1 244.7 571.3C250.9 577.5 261.1 577.5 267.3 571.3L320 518.6L372.7 571.3C378.9 577.5 389.1 577.5 395.3 571.3C401.5 565.1 401.5 554.9 395.3 548.7L331.3 484.7C325.1 478.5 314.9 478.5 308.7 484.7z"/></svg>