<svg xmlns="http://www.w3.org/2000/svg" viewBox="0 0 640 640"><!--! Font Awesome Pro 7.1.0 by @fontawesome - https://fontawesome.com License - https://fontawesome.com/license (Commercial License) Copyright 2025 Fonticons, Inc. --><path fill="currentColor" d="M416 192C416 171 409.3 151.6 397.8 135.8L355.8 168.5C336.2 183.7 312 192 287.1 192L224 192L224 208C224 261 267 304 320 304C373 304 416 261 416 208L416 192zM287.1 160C304.9 160 322.2 154.1 336.2 143.1L374.8 113.1C359.2 102.3 340.4 96 320 96C278.2 96 242.6 122.7 229.5 160L287.1 160zM434.1 266C426.7 280.5 416.7 293.4 404.6 304L459.9 304L447.9 288C442.7 281 438 273.7 434 266zM320 336L172 336C156.5 336 144 323.5 144 308C144 301.9 146 296 149.6 291.2L166.4 268.8C183 246.6 192 219.7 192 192C192 121.3 249.3 64 320 64C390.7 64 448 121.3 448 192C448 219.7 457 246.6 473.6 268.8L490.4 291.2C494 296 496 301.9 496 308C496 323.5 483.5 336 468 336L320 336zM235.3 304C223.2 293.4 213.2 280.5 205.8 266C201.8 273.7 197.2 281 191.9 288L179.9 304L235.2 304zM272 384C272 375.2 279.2 368 288 368L352 368C360.8 368 368 375.2 368 384C368 392.8 360.8 400 352 400L345.9 400L373.2 454.6L418.9 388.3C423.2 382 431.5 379.6 438.5 382.7C500.6 409.8 544.1 471.9 544.1 544.1L544.1 560.1C544.1 568.9 536.9 576.1 528.1 576.1C519.3 576.1 512.1 568.9 512.1 560.1L512.1 544.1C512.1 489.7 482 442.4 437.4 417.9L333.2 569.1C330.2 573.4 325.3 576 320 576C314.7 576 309.8 573.4 306.8 569.1L202.7 417.8C158.1 442.3 128 489.6 128 544L128 560C128 568.8 120.8 576 112 576C103.2 576 96 568.8 96 560L96 544C96 471.8 139.5 409.8 201.6 382.7C208.6 379.6 216.8 382 221.2 388.3L266.9 454.6L294.2 400L288.1 400C279.3 400 272.1 392.8 272.1 384zM320 531.8L352.4 484.7L320 419.8L287.6 484.7L320 531.8z"/></svg>