<svg xmlns="http://www.w3.org/2000/svg" viewBox="0 0 640 640"><!--! Font Awesome Pro 7.1.0 by @fontawesome - https://fontawesome.com License - https://fontawesome.com/license (Commercial License) Copyright 2025 Fonticons, Inc. --><path fill="currentColor" d="M336 88C336 79.2 328.8 72 320 72C311.2 72 304 79.2 304 88L304 128L240 128C195.8 128 160 163.8 160 208L160 240L136 240C127.2 240 120 247.2 120 256C120 264.8 127.2 272 136 272L160 272L160 304C160 348.2 195.8 384 240 384L400 384C444.2 384 480 348.2 480 304L480 272L504 272C512.8 272 520 264.8 520 256C520 247.2 512.8 240 504 240L480 240L480 208C480 163.8 444.2 128 400 128L336 128L336 88zM448 208L448 304C448 330.5 426.5 352 400 352L240 352C213.5 352 192 330.5 192 304L192 208C192 181.5 213.5 160 240 160L400 160C426.5 160 448 181.5 448 208zM128 504C128 473.1 153.1 448 184 448L456 448C486.9 448 512 473.1 512 504L512 560C512 568.8 519.2 576 528 576C536.8 576 544 568.8 544 560L544 504C544 455.4 504.6 416 456 416L184 416C135.4 416 96 455.4 96 504L96 560C96 568.8 103.2 576 112 576C120.8 576 128 568.8 128 560L128 504zM256 528C256 519.2 248.8 512 240 512C231.2 512 224 519.2 224 528L224 560C224 568.8 231.2 576 240 576C248.8 576 256 568.8 256 560L256 528zM320 512C311.2 512 304 519.2 304 528L304 560C304 568.8 311.2 576 320 576C328.8 576 336 568.8 336 560L336 528C336 519.2 328.8 512 320 512zM416 528C416 519.2 408.8 512 400 512C391.2 512 384 519.2 384 528L384 560C384 568.8 391.2 576 400 576C408.8 576 416 568.8 416 560L416 528zM264 224.8C272.4 224.8 279.2 231.6 279.2 240C279.2 248.4 272.4 255.2 264 255.2C255.6 255.2 248.8 248.4 248.8 240C248.8 231.6 255.6 224.8 264 224.8zM264 284C288.3 284 308 264.3 308 240C308 215.7 288.3 196 264 196C239.7 196 220 215.7 220 240C220 264.3 239.7 284 264 284zM360.8 240C360.8 231.6 367.6 224.8 376 224.8C384.4 224.8 391.2 231.6 391.2 240C391.2 248.4 384.4 255.2 376 255.2C367.6 255.2 360.8 248.4 360.8 240zM420 240C420 215.7 400.3 196 376 196C351.7 196 332 215.7 332 240C332 264.3 351.7 284 376 284C400.3 284 420 264.3 420 240z"/></svg>