<svg xmlns="http://www.w3.org/2000/svg" viewBox="0 0 640 640"><!--! Font Awesome Pro 7.1.0 by @fontawesome - https://fontawesome.com License - https://fontawesome.com/license (Commercial License) Copyright 2025 Fonticons, Inc. --><path fill="currentColor" d="M32 128C32 92.7 60.7 64 96 64L176 64C184.8 64 192 71.2 192 80C192 88.8 184.8 96 176 96L96 96C78.3 96 64 110.3 64 128L64 208C64 216.8 56.8 224 48 224C39.2 224 32 216.8 32 208L32 128zM368 224C368 197.5 346.5 176 320 176C293.5 176 272 197.5 272 224C272 250.5 293.5 272 320 272C346.5 272 368 250.5 368 224zM240 224C240 179.8 275.8 144 320 144C364.2 144 400 179.8 400 224C400 268.2 364.2 304 320 304C275.8 304 240 268.2 240 224zM208.7 287.3C215.2 298.7 223.4 309 233 317.9C227.5 319.2 221.8 319.9 215.9 319.9C176.1 319.9 143.9 287.7 143.9 247.9C143.9 213.4 168.2 184.6 200.6 177.5C196 189.5 193 202.3 192.2 215.7C182.3 223 175.9 234.7 175.9 247.9C175.9 267.5 190 283.8 208.6 287.2zM406.9 318C416.5 309.1 424.7 298.8 431.2 287.4C449.8 284 463.9 267.7 463.9 248.1C463.9 234.9 457.5 223.2 447.6 215.9C446.8 202.5 443.9 189.7 439.2 177.7C471.6 184.7 495.9 213.6 495.9 248.1C495.9 287.9 463.7 320.1 423.9 320.1C418 320.1 412.3 319.4 406.8 318.1zM112 456C112 410.7 140.9 372.2 181.3 357.9C159.7 383 146.1 415.1 144.2 450.3C144.1 452.2 144 454.1 144 456L144 464C144 472.8 136.8 480 128 480C119.2 480 112 472.8 112 464L112 456zM458.7 357.9C499.1 372.2 528 410.7 528 456L528 464C528 472.8 520.8 480 512 480C503.2 480 496 472.8 496 464L496 456C496 454.1 495.9 452.2 495.8 450.3C493.9 415.1 480.3 383 458.7 357.9zM192 456C192 398.6 238.6 352 296 352L344 352C401.4 352 448 398.6 448 456L448 464C448 472.8 440.8 480 432 480C423.2 480 416 472.8 416 464L416 456C416 416.2 383.8 384 344 384L296 384C256.2 384 224 416.2 224 456L224 464C224 472.8 216.8 480 208 480C199.2 480 192 472.8 192 464L192 456zM544 64C579.3 64 608 92.7 608 128L608 208C608 216.8 600.8 224 592 224C583.2 224 576 216.8 576 208L576 128C576 110.3 561.7 96 544 96L464 96C455.2 96 448 88.8 448 80C448 71.2 455.2 64 464 64L544 64zM32 512L32 432C32 423.2 39.2 416 48 416C56.8 416 64 423.2 64 432L64 512C64 529.7 78.3 544 96 544L176 544C184.8 544 192 551.2 192 560C192 568.8 184.8 576 176 576L96 576C60.7 576 32 547.3 32 512zM544 576L464 576C455.2 576 448 568.8 448 560C448 551.2 455.2 544 464 544L544 544C561.7 544 576 529.7 576 512L576 432C576 423.2 583.2 416 592 416C600.8 416 608 423.2 608 432L608 512C608 547.3 579.3 576 544 576z"/></svg>