<svg xmlns="http://www.w3.org/2000/svg" viewBox="0 0 640 640"><!--! Font Awesome Pro 7.1.0 by @fontawesome - https://fontawesome.com License - https://fontawesome.com/license (Commercial License) Copyright 2025 Fonticons, Inc. --><path fill="currentColor" d="M192 112C192 125.9 200.9 137.8 213.3 142.2C219.7 144.5 224 150.5 224 157.3L224 192L416 192L416 157.3C416 150.5 420.3 144.5 426.7 142.2C439.1 137.8 448 125.9 448 112C448 94.3 433.7 80 416 80C398.3 80 384 94.3 384 112C384 120.8 376.8 128 368 128C359.2 128 352 120.8 352 112C352 94.3 337.7 80 320 80C302.3 80 288 94.3 288 112C288 120.8 280.8 128 272 128C263.2 128 256 120.8 256 112C256 94.3 241.7 80 224 80C206.3 80 192 94.3 192 112zM224 48C243.1 48 260.3 56.4 272 69.7C283.7 56.4 300.9 48 320 48C339.1 48 356.3 56.4 368 69.7C379.7 56.4 396.9 48 416 48C451.3 48 480 76.7 480 112C480 135.7 467.1 156.4 448 167.4L448 224C448 294.7 390.7 352 320 352C249.3 352 192 294.7 192 224L192 167.4C172.9 156.4 160 135.7 160 112C160 76.7 188.7 48 224 48zM224 224C224 277 267 320 320 320C373 320 416 277 416 224L224 224zM176 384C176 378.8 178.6 373.8 182.9 370.8C187.2 367.8 192.7 367.1 197.6 369L321.5 415.5L442.2 369.1C447.1 367.2 452.7 367.9 457 370.8C461.3 373.7 463.9 378.7 463.9 384L463.9 421.3C512.4 443.2 543.9 491.6 543.9 545.2L543.9 560C543.9 568.8 536.7 576 527.9 576C519.1 576 511.9 568.8 511.9 560L511.9 545.2C511.9 502.7 486 464.4 446.5 448.6L441.9 446.8C436 444.4 432 438.5 432 432L432 407.3L322.7 449.4C282.5 464.8 256 503.4 256 546.5L256 560.1C256 568.9 248.8 576.1 240 576.1C231.2 576.1 224 568.9 224 560.1L224 546.5C224 501.4 246.3 460 282.1 435L208 407.1L208 432C208 438.5 204 444.4 197.9 446.9L193.3 448.7C153.9 464.5 128 502.7 128 545.2L128 560C128 568.8 120.8 576 112 576C103.2 576 96 568.8 96 560L96 545.2C96 491.6 127.5 443.2 176 421.3L176 384zM432 520C432 533.3 421.3 544 408 544C394.7 544 384 533.3 384 520C384 506.7 394.7 496 408 496C421.3 496 432 506.7 432 520zM328 544C314.7 544 304 533.3 304 520C304 506.7 314.7 496 328 496C341.3 496 352 506.7 352 520C352 533.3 341.3 544 328 544z"/></svg>