<svg xmlns="http://www.w3.org/2000/svg" viewBox="0 0 640 640"><!--! Font Awesome Pro 7.1.0 by @fontawesome - https://fontawesome.com License - https://fontawesome.com/license (Commercial License) Copyright 2025 Fonticons, Inc. --><path fill="currentColor" d="M320 112C364.2 112 400 147.8 400 192C400 236.2 364.2 272 320 272C275.8 272 240 236.2 240 192C240 147.8 275.8 112 320 112zM320 304C381.9 304 432 253.9 432 192C432 130.1 381.9 80 320 80C258.1 80 208 130.1 208 192C208 253.9 258.1 304 320 304zM296 384L321.4 384C326.6 372.7 332.8 362 340 352L296 352C212.1 352 144 420.1 144 504L144 528C144 536.8 151.2 544 160 544C168.8 544 176 536.8 176 528L176 504C176 437.7 229.7 384 296 384zM520.5 273.5C533 275.1 545.1 277.9 556.7 281.7C568.8 265.6 576 245.6 576 223.9C576 170.9 533 127.9 480 127.9C475.6 127.9 471.3 128.2 467.1 128.8C471.4 138.7 474.7 149.2 476.9 160C478 159.9 479 159.9 480.1 159.9C515.4 159.9 544.1 188.6 544.1 223.9C544.1 243.9 534.9 261.7 520.6 273.4zM160 128C107 128 64 171 64 224C64 277 107 320 160 320C177.7 320 194.3 315.2 208.6 306.8C200.8 299.2 193.7 290.8 187.6 281.8C179.3 285.8 169.9 288 160.1 288C124.8 288 96.1 259.3 96.1 224C96.1 188.7 124.8 160 160.1 160C161.2 160 162.2 160 163.3 160.1C165.5 149.3 168.8 138.8 173.1 128.9C168.9 128.3 164.6 128 160.2 128zM149.4 368L144 368C64.5 368 0 432.5 0 512L0 528C0 536.8 7.2 544 16 544C24.8 544 32 536.8 32 528L32 512C32 456.9 71.7 411.2 124.1 401.8C131.3 389.7 139.8 378.3 149.4 368zM496 352C557.9 352 608 402.1 608 464C608 525.9 557.9 576 496 576C434.1 576 384 525.9 384 464C384 402.1 434.1 352 496 352zM496 608C575.5 608 640 543.5 640 464C640 384.5 575.5 320 496 320C416.5 320 352 384.5 352 464C352 543.5 416.5 608 496 608zM485.3 392C476.5 392 469.3 399.2 469.3 408L469.3 437.3L440 437.3C431.2 437.3 424 444.5 424 453.3L424 474.6C424 483.4 431.2 490.6 440 490.6L469.3 490.6L469.3 519.9C469.3 528.7 476.5 535.9 485.3 535.9L506.6 535.9C515.4 535.9 522.6 528.7 522.6 519.9L522.6 490.6L551.9 490.6C560.7 490.6 567.9 483.4 567.9 474.6L567.9 453.3C567.9 444.5 560.7 437.3 551.9 437.3L522.6 437.3L522.6 408C522.6 399.2 515.4 392 506.6 392L485.3 392z"/></svg>