<svg xmlns="http://www.w3.org/2000/svg" viewBox="0 0 640 640"><!--! Font Awesome Pro 7.1.0 by @fontawesome - https://fontawesome.com License - https://fontawesome.com/license (Commercial License) Copyright 2025 Fonticons, Inc. --><path fill="currentColor" d="M32 80C32 71.2 39.2 64 48 64L592 64C600.8 64 608 71.2 608 80C608 88.8 600.8 96 592 96L48 96C39.2 96 32 88.8 32 80zM32 560C32 551.2 39.2 544 48 544L592 544C600.8 544 608 551.2 608 560C608 568.8 600.8 576 592 576L48 576C39.2 576 32 568.8 32 560zM184 288C192 288 199.4 285.7 205.7 281.6C210.6 291.2 216.6 300.1 223.6 308.1C212.2 315.6 198.7 319.9 184 319.9C144.2 319.9 112 287.7 112 247.9C112 208.1 144.2 175.9 184 175.9C189.7 175.9 195.2 176.6 200.5 177.8C196.7 187.6 194.1 198 192.8 208.9C189.9 208.3 187 207.9 183.9 207.9C161.8 207.9 143.9 225.8 143.9 247.9C143.9 270 161.8 287.9 183.9 287.9zM456 320C441.4 320 427.8 315.6 416.4 308.2C423.4 300.2 429.4 291.3 434.3 281.7C440.5 285.7 448 288.1 456 288.1C478.1 288.1 496 270.2 496 248.1C496 226 478.1 208.1 456 208.1C453 208.1 450 208.4 447.1 209.1C445.8 198.3 443.2 187.9 439.4 178C444.7 176.8 450.3 176.1 455.9 176.1C495.7 176.1 527.9 208.3 527.9 248.1C527.9 287.9 495.7 320.1 455.9 320.1zM80 456C80 398.6 126.6 352 184 352L186.7 352C176.6 362.6 168 374.6 161.3 387.7C132.7 397.2 112.1 424.2 112.1 456L112.1 464C112.1 472.8 104.9 480 96.1 480C87.3 480 80.1 472.8 80.1 464L80.1 456zM478.8 387.7C472 374.6 463.4 362.6 453.4 352L456.1 352C513.5 352 560.1 398.6 560.1 456L560.1 464C560.1 472.8 552.9 480 544.1 480C535.3 480 528.1 472.8 528.1 464L528.1 456C528.1 424.2 507.5 397.2 478.9 387.7zM192 456C192 398.6 238.6 352 296 352L344 352C401.4 352 448 398.6 448 456L448 464C448 472.8 440.8 480 432 480C423.2 480 416 472.8 416 464L416 456C416 416.2 383.8 384 344 384L296 384C256.2 384 224 416.2 224 456L224 464C224 472.8 216.8 480 208 480C199.2 480 192 472.8 192 464L192 456zM368 224C368 197.5 346.5 176 320 176C293.5 176 272 197.5 272 224C272 250.5 293.5 272 320 272C346.5 272 368 250.5 368 224zM240 224C240 179.8 275.8 144 320 144C364.2 144 400 179.8 400 224C400 268.2 364.2 304 320 304C275.8 304 240 268.2 240 224z"/></svg>