<svg xmlns="http://www.w3.org/2000/svg" viewBox="0 0 640 640"><!--! Font Awesome Pro 7.1.0 by @fontawesome - https://fontawesome.com License - https://fontawesome.com/license (Commercial License) Copyright 2025 Fonticons, Inc. --><path fill="currentColor" d="M400 192C400 147.8 364.2 112 320 112C275.8 112 240 147.8 240 192C240 236.2 275.8 272 320 272C364.2 272 400 236.2 400 192zM208 192C208 130.1 258.1 80 320 80C381.9 80 432 130.1 432 192C432 253.9 381.9 304 320 304C258.1 304 208 253.9 208 192zM176 504L176 528C176 536.8 168.8 544 160 544C151.2 544 144 536.8 144 528L144 504C144 420.1 212.1 352 296 352L344 352C359 352 373.5 354.2 387.2 358.2C383 361.3 379.1 365 375.5 369.4C371.3 374.6 367.4 380 363.8 385.6C357.3 384.5 350.7 384 344 384L296 384C229.7 384 176 437.7 176 504zM531.5 305C520.4 303.8 504.3 303.1 485.2 306.1C474.6 307.7 465.5 311.8 457.9 317.4C448.5 315.2 439.6 311.6 431.5 306.8C439.3 299.2 446.4 290.8 452.5 281.8C460.8 285.8 470.2 288 480.1 288C515.4 288 544.1 259.3 544.1 224C544.1 188.7 515.4 160 480.1 160C479 160 478 160 476.9 160.1C474.7 149.3 471.4 138.8 467.1 128.9C471.3 128.3 475.7 128 480 128C533 128 576 171 576 224C576 258.1 558.3 288 531.5 305zM172.9 128.9C168.6 138.8 165.3 149.3 163.1 160.1C162 160 161 160 159.9 160C124.6 160 95.9 188.7 95.9 224C95.9 259.3 124.6 288 159.9 288C169.8 288 179.1 285.8 187.4 281.8C193.5 290.9 200.6 299.2 208.4 306.8C194.2 315.2 177.6 320 159.8 320C106.8 320 63.8 277 63.8 224C63.8 171 106.8 128 159.8 128C164.2 128 168.5 128.3 172.7 128.9zM144 368L149.4 368C139.8 378.3 131.3 389.6 124.1 401.8C71.8 411.2 32 457 32 512L32 528C32 536.8 24.8 544 16 544C7.2 544 0 536.8 0 528L0 512C0 432.5 64.5 368 144 368zM464 384C464 366.3 478.3 352 496 352L528 352C545.7 352 560 366.3 560 384C560 389 566.8 392.9 571.1 390.4C586.4 381.6 606 386.8 614.8 402.1L630.8 429.8C639.6 445.1 634.4 464.7 619.1 473.5C614.8 476 614.8 483.9 619.1 486.4C634.4 495.2 639.7 514.8 630.8 530.1L614.8 557.8C606 573.1 586.4 578.4 571.1 569.5C566.8 567 560 570.9 560 575.9C560 593.6 545.7 607.9 528 607.9L496 607.9C478.3 607.9 464 593.6 464 575.9C464 570.9 457.2 567 452.9 569.5C437.6 578.3 418 573.1 409.2 557.8L393.2 530.1C384.4 514.8 389.6 495.2 404.9 486.4C409.2 483.9 409.2 476 404.9 473.5C389.6 464.7 384.3 445.1 393.2 429.8L409.2 402.1C418 386.8 437.6 381.5 452.9 390.4C457.2 392.9 464 388.9 464 384zM528 384L496 384L496 384.7C496 413.6 461.5 432.4 436.9 418.2L420.9 445.9C446.2 460.5 446.1 499.6 420.9 514.2L436.9 541.9C462.1 527.3 496 546.9 496 576L528 576C528 546.8 561.9 527.3 587.1 541.9L603.1 514.2C577.8 499.6 577.8 460.5 603.1 445.9L587.1 418.2C561.9 432.8 528 413.2 528 384.1zM488 480C488 466.7 498.7 456 512 456C525.3 456 536 466.7 536 480C536 493.3 525.3 504 512 504C498.7 504 488 493.3 488 480z"/></svg>