<svg xmlns="http://www.w3.org/2000/svg" viewBox="0 0 640 640"><!--! Font Awesome Pro 7.1.0 by @fontawesome - https://fontawesome.com License - https://fontawesome.com/license (Commercial License) Copyright 2025 Fonticons, Inc. --><path fill="currentColor" d="M59.3 36.8C53.1 30.6 42.9 30.6 36.7 36.8C30.5 43 30.5 53.2 36.7 59.4L580.7 603.4C586.9 609.6 597.1 609.6 603.3 603.4C609.5 597.2 609.5 587 603.3 580.8L326.3 303.8C385.2 300.5 431.9 251.7 431.9 192C431.9 130.1 381.8 80 319.9 80C260.2 80 211.4 126.7 208.1 185.6L59.3 36.8zM287.8 265.2L246.8 224.2C242.5 214.3 240 203.4 240 192C240 147.8 275.8 112 320 112C364.2 112 400 147.8 400 192C400 236.2 364.2 272 320 272C308.5 272 297.6 269.6 287.8 265.2zM80.2 170.7C70 186 64 204.3 64 224C64 277 107 320 160 320C179.7 320 198.1 314 213.3 303.8L190 280.5C181 285.3 170.8 288 160 288C124.7 288 96 259.3 96 224C96 213.1 98.7 202.9 103.5 194L80.2 170.7zM264.7 355.2C195.8 369.6 144 430.8 144 504L144 528C144 536.8 151.2 544 160 544C168.8 544 176 536.8 176 528L176 504C176 438.6 228.4 385.3 293.5 384L264.7 355.2zM510.8 401C512.5 401.2 514.2 401.5 515.9 401.8C563.5 410.4 600.6 448.9 607 497.2L639.9 530C640 529.3 640 528.7 640 528L640 512C640 432.5 575.5 368 496 368L477.8 368L510.8 401zM452.4 281.8C446.3 290.9 439.2 299.2 431.4 306.8C445.6 315.2 462.3 320 480 320C533 320 576 277 576 224C576 171 533 128 480 128C475.6 128 471.3 128.3 467.1 128.9C471.4 138.8 474.7 149.3 476.9 160.1C478 160 479 160 480.1 160C515.4 160 544.1 188.7 544.1 224C544.1 259.3 515.4 288 480.1 288C470.2 288 460.9 285.8 452.5 281.8zM149.4 368L144 368C64.5 368 0 432.5 0 512L0 528C0 536.8 7.2 544 16 544C24.8 544 32 536.8 32 528L32 512C32 456.9 71.7 411.2 124.1 401.8C131.3 389.7 139.8 378.3 149.4 368z"/></svg>