<svg xmlns="http://www.w3.org/2000/svg" viewBox="0 0 640 640"><!--! Font Awesome Pro 7.1.0 by @fontawesome - https://fontawesome.com License - https://fontawesome.com/license (Commercial License) Copyright 2025 Fonticons, Inc. --><path fill="currentColor" d="M59.3 36.8C53.1 30.6 42.9 30.6 36.7 36.8C30.5 43 30.5 53.2 36.7 59.4L580.7 603.4C586.9 609.6 597.1 609.6 603.3 603.4C609.5 597.2 609.5 587 603.3 580.8L542.3 519.8C542.2 519.4 542.2 518.9 542.1 518.5L535.9 513.4L340.8 318.3C401.6 308.4 448 255.6 448 192C448 121.3 390.7 64 320 64C256.4 64 203.6 110.4 193.7 171.2L59.3 36.8zM224.5 202C224.2 198.7 224 195.4 224 192C224 139 267 96 320 96C373 96 416 139 416 192C416 245 373 288 320 288C316.6 288 313.3 287.8 310 287.5L224.5 202zM298.2 400L266.3 368.1C171.7 371.1 96 448.7 96 544L96 560C96 568.8 103.2 576 112 576C120.8 576 128 568.8 128 560L128 544C128 464.5 192.5 400 272 400L298.2 400z"/></svg>