<svg xmlns="http://www.w3.org/2000/svg" viewBox="0 0 640 640"><!--! Font Awesome Pro 7.1.0 by @fontawesome - https://fontawesome.com License - https://fontawesome.com/license (Commercial License) Copyright 2025 Fonticons, Inc. --><path fill="currentColor" d="M447.5 119.8L462 111.1C463.2 110.4 464 109 464 107.6C464 105.8 462.8 104.1 461 103.7L320 65.2L179 103.6C177.2 104.1 176 105.7 176 107.5C176 108.9 176.8 110.3 178 111L192.5 119.7C202.1 125.5 208 136 208 147.2L208 154.5C227.5 161.7 259.2 171.4 294.8 174.8L267.3 147.3C261.1 141.1 261.1 130.9 267.3 124.7L308.7 83.3C314.9 77.1 325.1 77.1 331.3 83.3L372.7 124.7C378.9 130.9 378.9 141.1 372.7 147.3L345.2 174.8C380.8 171.4 412.5 161.7 432 154.5L432 147.2C432 136 437.9 125.5 447.5 119.8zM478.4 138.6L463.9 147.3L463.9 155.9C463.9 167.3 457.9 177.7 447.9 182.6L447.9 208.1C447.9 278.8 390.6 336.1 319.9 336.1C249.2 336.1 192 278.7 192 208L192 182.5C182 177.5 176 167.1 176 155.8L176 147.2L161.5 138.5C150.7 132 144 120.2 144 107.6C144 91.3 154.9 77 170.6 72.7L311.6 34.2C317.1 32.7 322.9 32.7 328.4 34.2L469.4 72.7C485.1 77 496 91.2 496 107.5C496 120.2 489.3 131.9 478.5 138.4zM224 193.4L224 208C224 261 267 304 320 304C373 304 416 261 416 208L416 193.4C390.1 200.9 356.1 208 320 208C283.9 208 249.9 200.9 224 193.4zM288 368L352 368C360.8 368 368 375.2 368 384C368 392.8 360.8 400 352 400L345.9 400L373.2 454.6L418.9 388.3C423.2 382 431.5 379.6 438.5 382.7C500.6 409.8 544.1 471.9 544.1 544L544.1 560C544.1 568.8 536.9 576 528.1 576C519.3 576 512.1 568.8 512.1 560L512.1 544C512.1 489.6 482 442.3 437.4 417.8L333.2 569.1C330.2 573.4 325.3 576 320 576C314.7 576 309.8 573.4 306.8 569.1L202.7 417.8C158.1 442.3 128 489.6 128 544L128 560C128 568.8 120.8 576 112 576C103.2 576 96 568.8 96 560L96 544C96 471.8 139.5 409.8 201.6 382.7C208.6 379.6 216.8 382 221.2 388.3L266.9 454.6L294.2 400L288.1 400C279.3 400 272.1 392.8 272.1 384C272.1 375.2 279.3 368 288.1 368zM287.6 484.7L320 531.8L352.4 484.7L320 419.8L287.6 484.7zM301.3 136L320 154.7L338.7 136L320 117.3L301.3 136z"/></svg>