<svg xmlns="http://www.w3.org/2000/svg" viewBox="0 0 640 640"><!--! Font Awesome Pro 7.1.0 by @fontawesome - https://fontawesome.com License - https://fontawesome.com/license (Commercial License) Copyright 2025 Fonticons, Inc. --><path fill="currentColor" d="M432 147.2L432 154.5C408 163.3 365.5 176 320 176C274.5 176 232 163.3 208 154.5L208 147.2C208 136 202.1 125.5 192.5 119.8L178 111.1C176.8 110.4 176 109 176 107.6C176 105.8 177.2 104.1 179 103.7L320 65.2L461 103.6C462.8 104.1 464 105.7 464 107.5C464 108.9 463.2 110.3 462 111L447.5 119.7C437.9 125.5 432 136 432 147.2zM464 147.2L478.5 138.5C489.3 132 496 120.2 496 107.6C496 91.3 485.1 77 469.4 72.7L328.4 34.2C322.9 32.7 317.1 32.7 311.6 34.2L170.6 72.7C154.9 77 144 91.3 144 107.6C144 120.2 150.7 132 161.5 138.5L176 147.2L176 155.8C176 167.2 182 177.6 192 182.5L192 192C192 219.7 183 246.6 166.4 268.8L149.6 291.2C146 296 144 301.9 144 308C144 323.5 156.5 336 172 336L468 336C483.5 336 496 323.5 496 308C496 301.9 494 296 490.4 291.2L473.6 268.8C457 246.6 448 219.7 448 192L448 182.5C458 177.5 464 167.1 464 155.8L464 147.2zM434.1 266C438.1 273.7 442.7 281 448 288L460 304L404.7 304C416.8 293.4 426.8 280.5 434.2 266zM235.3 304L180 304L192 288C197.2 281 201.9 273.7 205.9 266C213.3 280.5 223.3 293.4 235.4 304zM224 208L224 193.4C249.9 200.9 283.9 208 320 208C356.1 208 390.1 200.9 416 193.4L416 208C416 261 373 304 320 304C267 304 224 261 224 208zM252.1 376.8C248.3 372.4 242.5 370.4 236.8 371.6C156.5 387.9 96 458.9 96 544.1L96 560.1C96 568.9 103.2 576.1 112 576.1C120.8 576.1 128 568.9 128 560.1L128 544.1C128 477.7 173 421.7 234.2 405.1L304 486L304 560.1C304 568.9 311.2 576.1 320 576.1C328.8 576.1 336 568.9 336 560.1L336 486L405.8 405.1C467 421.6 512 477.6 512 544L512 560C512 568.8 519.2 576 528 576C536.8 576 544 568.8 544 560L544 544C544 458.8 483.5 387.8 403.2 371.5C397.5 370.3 391.7 372.4 387.9 376.7L320 455.4L252.1 376.7zM384 528C384 536.8 391.2 544 400 544L448 544C456.8 544 464 536.8 464 528C464 519.2 456.8 512 448 512L400 512C391.2 512 384 519.2 384 528zM279.2 97.7C271.3 93.7 261.7 97 257.7 104.9C253.7 112.8 257 122.4 264.9 126.4L312.9 150.4C317.4 152.7 322.7 152.7 327.2 150.4L375.2 126.4C383.1 122.4 386.3 112.8 382.4 104.9C378.5 97 368.8 93.8 360.9 97.7L320 118.1L279.2 97.7z"/></svg>