<svg xmlns="http://www.w3.org/2000/svg" viewBox="0 0 640 640"><!--! Font Awesome Pro 7.1.0 by @fontawesome - https://fontawesome.com License - https://fontawesome.com/license (Commercial License) Copyright 2025 Fonticons, Inc. --><path fill="currentColor" d="M416 192C416 171 409.3 151.6 397.8 135.8L355.8 168.5C336.2 183.7 312 192 287.1 192L224 192L224 208C224 261 267 304 320 304C373 304 416 261 416 208L416 192zM287.1 160C304.9 160 322.2 154.1 336.2 143.1L374.8 113.1C359.2 102.3 340.4 96 320 96C278.2 96 242.6 122.7 229.5 160L287.1 160zM434.1 266C426.7 280.5 416.7 293.4 404.6 304L459.9 304L447.9 288C442.7 281 438 273.7 434 266zM320 336L172 336C156.5 336 144 323.5 144 308C144 301.9 146 296 149.6 291.2L166.4 268.8C183 246.6 192 219.7 192 192C192 121.3 249.3 64 320 64C390.7 64 448 121.3 448 192C448 219.7 457 246.6 473.6 268.8L490.4 291.2C494 296 496 301.9 496 308C496 323.5 483.5 336 468 336L320 336zM235.3 304C223.2 293.4 213.2 280.5 205.8 266C201.8 273.7 197.2 281 191.9 288L179.9 304L235.2 304zM252.1 376.8L320 455.5L387.9 376.8C391.7 372.4 397.5 370.4 403.2 371.6C483.5 387.9 544 458.9 544 544.1L544 560.1C544 568.9 536.8 576.1 528 576.1C519.2 576.1 512 568.9 512 560.1L512 544.1C512 477.7 467 421.7 405.8 405.1L332.1 490.5C329.1 494 324.6 496.1 320 496.1C315.4 496.1 310.9 494.1 307.9 490.5L234.2 405C173 421.6 128 477.6 128 544L128 560C128 568.8 120.8 576 112 576C103.2 576 96 568.8 96 560L96 544C96 458.8 156.5 387.8 236.8 371.5C242.5 370.3 248.3 372.4 252.1 376.7z"/></svg>