<svg xmlns="http://www.w3.org/2000/svg" viewBox="0 0 640 640"><!--! Font Awesome Pro 7.1.0 by @fontawesome - https://fontawesome.com License - https://fontawesome.com/license (Commercial License) Copyright 2025 Fonticons, Inc. --><path fill="currentColor" d="M306.9 75.4C315.5 73.3 324.4 73.3 333 75.4L485.7 112L333.1 148.6C324.5 150.7 315.6 150.7 307 148.6L154.3 112L306.9 75.4zM340.5 44.3C327 41 313 41 299.5 44.2L114.4 88.7C103.6 91.3 96 100.9 96 112C96 122.3 102.5 131.3 112 134.6L112 205.7L80.6 315.5C79.2 320.3 80.2 325.5 83.2 329.5C86.2 333.5 91 336 96 336L160 336C165 336 169.8 333.6 172.8 329.6C175.8 325.6 176.8 320.4 175.4 315.6L144 205.8L144 142.4L192 154L192 208C192 278.7 249.3 336 320 336C390.7 336 448 278.7 448 208L448 154L525.6 135.4C536.4 132.7 544 123.1 544 112C544 100.9 536.4 91.3 525.6 88.7L340.5 44.2zM416 161.6L416 208C416 261 373 304 320 304C267 304 224 261 224 208L224 161.6L299.5 179.7C313 182.9 327.1 182.9 340.6 179.7L416 161.6zM128 266.2L138.8 304L117.2 304L128 266.2zM236.8 371.5C156.5 387.8 96 458.8 96 544L96 560C96 568.8 103.2 576 112 576C120.8 576 128 568.8 128 560L128 544C128 477.6 173 421.6 234.2 405L304 485.9L304 560C304 568.8 311.2 576 320 576C328.8 576 336 568.8 336 560L336 485.9L405.8 405C467 421.6 512 477.6 512 544L512 560C512 568.8 519.2 576 528 576C536.8 576 544 568.8 544 560L544 544C544 458.8 483.5 387.8 403.2 371.5C397.5 370.3 391.7 372.4 387.9 376.7L320 455.4L252.1 376.7C248.3 372.3 242.5 370.3 236.8 371.5z"/></svg>