<svg xmlns="http://www.w3.org/2000/svg" viewBox="0 0 640 640"><!--! Font Awesome Pro 7.1.0 by @fontawesome - https://fontawesome.com License - https://fontawesome.com/license (Commercial License) Copyright 2025 Fonticons, Inc. --><path fill="currentColor" d="M192 239C192 157.3 251.9 96 320 96C388.1 96 448 157.3 448 239C448 280.8 426.9 319 398.9 351C371.1 382.8 339.1 405.3 323.9 415.1C323.3 415.5 322.1 416 320.1 416C318.1 416 316.8 415.5 316.3 415.1C301 405.3 269.1 382.8 241.3 351C213.3 319 192.2 280.8 192.2 239zM320 64C231.6 64 160 142.3 160 239C160 344.5 265.8 420.8 298.8 442C305.1 446.1 312.5 448 320 448C327.5 448 334.9 446.1 341.2 442C374.2 420.8 480 344.5 480 239C480 142.3 408.4 64 320 64zM96 560C96 568.8 103.2 576 112 576C120.8 576 128 568.8 128 560C128 502.5 171.4 455.1 227.2 448.7C217.9 440.9 208 432 198.2 422.2C139.1 440.1 96 495 96 560zM512 560C512 568.8 519.2 576 528 576C536.8 576 544 568.8 544 560C544 495 500.9 440.1 441.8 422.2C432 432.1 422.1 440.9 412.8 448.8C468.6 455.1 512 502.5 512 560.1zM328 293.7C328 308.2 339.8 320 354.3 320C397.2 320 432 285.2 432 242.3C432 227.8 420.2 216 405.7 216C362.8 216 328 250.8 328 293.7zM399.6 248.4C379.2 251.1 363.1 267.2 360.4 287.6C380.8 284.9 396.9 268.8 399.6 248.4zM234.3 216C219.8 216 208 227.8 208 242.3C208 285.2 242.8 320 285.7 320C300.2 320 312 308.2 312 293.7C312 250.8 277.2 216 234.3 216zM240.4 248.4C260.8 251.1 276.9 267.2 279.6 287.6C259.2 284.9 243.1 268.8 240.4 248.4z"/></svg>