<svg xmlns="http://www.w3.org/2000/svg" viewBox="0 0 640 640"><!--! Font Awesome Pro 7.1.0 by @fontawesome - https://fontawesome.com License - https://fontawesome.com/license (Commercial License) Copyright 2025 Fonticons, Inc. --><path fill="currentColor" d="M336 88C336 79.2 328.8 72 320 72C311.2 72 304 79.2 304 88L304 128L240 128C195.8 128 160 163.8 160 208L160 240L136 240C127.2 240 120 247.2 120 256C120 264.8 127.2 272 136 272L160 272L160 304C160 348.2 195.8 384 240 384L400 384C444.2 384 480 348.2 480 304L480 272L504 272C512.8 272 520 264.8 520 256C520 247.2 512.8 240 504 240L480 240L480 208C480 163.8 444.2 128 400 128L336 128L336 88zM448 208L448 304C448 330.5 426.5 352 400 352L240 352C213.5 352 192 330.5 192 304L192 208C192 181.5 213.5 160 240 160L400 160C426.5 160 448 181.5 448 208zM128 504C128 473.1 153.1 448 184 448L456 448C486.9 448 512 473.1 512 504L512 560C512 568.8 519.2 576 528 576C536.8 576 544 568.8 544 560L544 504C544 455.4 504.6 416 456 416L184 416C135.4 416 96 455.4 96 504L96 560C96 568.8 103.2 576 112 576C120.8 576 128 568.8 128 560L128 504zM256 528C256 519.2 248.8 512 240 512C231.2 512 224 519.2 224 528L224 560C224 568.8 231.2 576 240 576C248.8 576 256 568.8 256 560L256 528zM320 512C311.2 512 304 519.2 304 528L304 560C304 568.8 311.2 576 320 576C328.8 576 336 568.8 336 560L336 528C336 519.2 328.8 512 320 512zM416 560L416 528C416 519.2 408.8 512 400 512C391.2 512 384 519.2 384 528L384 560C384 568.8 391.2 576 400 576C408.8 576 416 568.8 416 560zM251.3 204.7C245.1 198.5 234.9 198.5 228.7 204.7C222.5 210.9 222.5 221.1 228.7 227.3L241.4 240L228.7 252.7C222.5 258.9 222.5 269.1 228.7 275.3C234.9 281.5 245.1 281.5 251.3 275.3L264 262.6L276.7 275.3C282.9 281.5 293.1 281.5 299.3 275.3C305.5 269.1 305.5 258.9 299.3 252.7L286.6 240L299.3 227.3C305.5 221.1 305.5 210.9 299.3 204.7C293.1 198.5 282.9 198.5 276.7 204.7L264 217.4L251.3 204.7zM363.3 204.7C357.1 198.5 346.9 198.5 340.7 204.7C334.5 210.9 334.5 221.1 340.7 227.3L353.4 240L340.7 252.7C334.5 258.9 334.5 269.1 340.7 275.3C346.9 281.5 357.1 281.5 363.3 275.3L376 262.6L388.7 275.3C394.9 281.5 405.1 281.5 411.3 275.3C417.5 269.1 417.5 258.9 411.3 252.7L398.6 240L411.3 227.3C417.5 221.1 417.5 210.9 411.3 204.7C405.1 198.5 394.9 198.5 388.7 204.7L376 217.4L363.3 204.7z"/></svg>