<svg xmlns="http://www.w3.org/2000/svg" viewBox="0 0 640 640"><!--! Font Awesome Pro 7.1.0 by @fontawesome - https://fontawesome.com License - https://fontawesome.com/license (Commercial License) Copyright 2025 Fonticons, Inc. --><path fill="currentColor" d="M256 288C309 288 352 245 352 192C352 139 309 96 256 96C203 96 160 139 160 192C160 245 203 288 256 288zM256 64C326.7 64 384 121.3 384 192C384 262.7 326.7 320 256 320C185.3 320 128 262.7 128 192C128 121.3 185.3 64 256 64zM208 400C128.5 400 64 464.5 64 544L64 560C64 568.8 56.8 576 48 576C39.2 576 32 568.8 32 560L32 544C32 446.8 110.8 368 208 368L304 368C401.2 368 480 446.8 480 544L480 560C480 568.8 472.8 576 464 576C455.2 576 448 568.8 448 560L448 544C448 464.5 383.5 400 304 400L208 400zM476.7 188.7C482.9 182.5 493.1 182.5 499.3 188.7L544 233.4L588.7 188.7C594.9 182.5 605.1 182.5 611.3 188.7C617.5 194.9 617.5 205.1 611.3 211.3L566.6 256L611.3 300.7C617.5 306.9 617.5 317.1 611.3 323.3C605.1 329.5 594.9 329.5 588.7 323.3L544 278.6L499.3 323.3C493.1 329.5 482.9 329.5 476.7 323.3C470.5 317.1 470.5 306.9 476.7 300.7L521.4 256L476.7 211.3C470.5 205.1 470.5 194.9 476.7 188.7z"/></svg>