<svg xmlns="http://www.w3.org/2000/svg" viewBox="0 0 640 640"><!--! Font Awesome Pro 7.1.0 by @fontawesome - https://fontawesome.com License - https://fontawesome.com/license (Commercial License) Copyright 2025 Fonticons, Inc. --><path fill="currentColor" d="M320 96C373 96 416 139 416 192C416 245 373 288 320 288C267 288 224 245 224 192C224 139 267 96 320 96zM192 192C192 262.7 249.3 320 320 320C390.7 320 448 262.7 448 192C448 121.3 390.7 64 320 64C249.3 64 192 121.3 192 192zM252.1 376.8C248.3 372.4 242.5 370.4 236.8 371.6C156.5 387.9 96 458.9 96 544.1L96 560.1C96 568.9 103.2 576.1 112 576.1C120.8 576.1 128 568.9 128 560.1L128 544.1C128 477.7 173 421.7 234.2 405.1L307.9 490.5C310.9 494 315.4 496.1 320 496.1C324.6 496.1 329.1 494.1 332.1 490.5L405.8 405C467 421.6 512 477.6 512 544L512 560C512 568.8 519.2 576 528 576C536.8 576 544 568.8 544 560L544 544C544 458.8 483.5 387.8 403.2 371.5C397.5 370.3 391.7 372.4 387.9 376.7L320 455.4L252.1 376.7z"/></svg>