<svg xmlns="http://www.w3.org/2000/svg" viewBox="0 0 640 640"><!--! Font Awesome Pro 7.1.0 by @fontawesome - https://fontawesome.com License - https://fontawesome.com/license (Commercial License) Copyright 2025 Fonticons, Inc. --><path fill="currentColor" d="M464 272C508.2 272 544 236.2 544 192C544 147.8 508.2 112 464 112C419.8 112 384 147.8 384 192C384 236.2 419.8 272 464 272zM464 80C525.9 80 576 130.1 576 192C576 253.9 525.9 304 464 304C402.1 304 352 253.9 352 192C352 130.1 402.1 80 464 80zM400 507C410.6 510.3 421.9 512 433.5 512L494.5 512C557.2 512 608 461.2 608 398.5C608 390.5 601.5 384 593.5 384L360 384C351.2 372.3 341.2 361.7 330.2 352.2C331.6 352.1 333 352 334.5 352L593.5 352C619.2 352 640 372.8 640 398.5C640 478.9 574.8 544 494.5 544L433.5 544C421.6 544 410 542.6 398.9 539.9C399.6 536.1 400 532.1 400 528L400 507zM176 272C220.2 272 256 236.2 256 192C256 147.8 220.2 112 176 112C131.8 112 96 147.8 96 192C96 236.2 131.8 272 176 272zM176 80C237.9 80 288 130.1 288 192C288 253.9 237.9 304 176 304C114.1 304 64 253.9 64 192C64 130.1 114.1 80 176 80zM152 384C85.7 384 32 437.7 32 504L32 528C32 536.8 24.8 544 16 544C7.2 544 0 536.8 0 528L0 504C0 420.1 68.1 352 152 352L200 352C283.9 352 352 420.1 352 504L352 528C352 536.8 344.8 544 336 544C327.2 544 320 536.8 320 528L320 504C320 437.7 266.3 384 200 384L152 384z"/></svg>