<svg xmlns="http://www.w3.org/2000/svg" viewBox="0 0 640 640"><!--! Font Awesome Pro 7.1.0 by @fontawesome - https://fontawesome.com License - https://fontawesome.com/license (Commercial License) Copyright 2025 Fonticons, Inc. --><path fill="currentColor" d="M237.3 50.9C247.6 40.1 261.2 32 278 32C290.9 32 302.4 37 310.7 41C314.6 42.8 317.8 43.7 320 43.7C322.2 43.7 325.4 42.9 329.3 41C337.6 37 349.1 32 362 32C378.8 32 392.4 40.2 402.7 50.9C412.9 61.5 420.7 75.5 426.7 89.7C436.4 112.7 442.6 138.9 445.9 160L479.9 160C488.7 160 495.9 167.2 495.9 176C495.9 184.8 488.7 192 479.9 192L447.9 192L447.9 208C447.9 278.7 390.6 336 319.9 336C249.2 336 192 278.7 192 208L192 192L160 192C151.2 192 144 184.8 144 176C144 167.2 151.2 160 160 160L194 160C197.3 139 203.5 112.7 213.2 89.7C219.2 75.4 227.1 61.5 237.2 50.9zM397.3 102.2C392 89.8 386 79.7 379.6 73C373.3 66.4 367.6 63.9 362 63.9C356.8 63.9 351 65.9 343 69.8C337 72.7 328.8 75.6 320 75.6C311.2 75.6 303 72.7 297 69.8C289 66 283.2 63.9 278 63.9C272.4 63.9 266.6 66.4 260.4 73C254 79.7 248 89.8 242.7 102.2C234.9 120.5 229.6 141.8 226.5 159.9L413.6 159.9C410.5 141.8 405.1 120.4 397.4 102.2zM416 192L224 192L224 208C224 261 267 304 320 304C373 304 416 261 416 208L416 192zM272 384C272 375.2 279.2 368 288 368L352 368C360.8 368 368 375.2 368 384C368 392.8 360.8 400 352 400L345.9 400L373.2 454.6L418.9 388.3C423.2 382 431.5 379.6 438.5 382.7C500.6 409.8 544.1 471.9 544.1 544L544.1 560C544.1 568.8 536.9 576 528.1 576C519.3 576 512.1 568.8 512.1 560L512.1 544C512.1 489.6 482 442.3 437.4 417.8L333.2 569.1C330.2 573.4 325.3 576 320 576C314.7 576 309.8 573.4 306.8 569.1L202.7 417.8C158.1 442.3 128 489.6 128 544L128 560C128 568.8 120.8 576 112 576C103.2 576 96 568.8 96 560L96 544C96 471.8 139.5 409.8 201.6 382.7C208.6 379.6 216.8 382 221.2 388.3L266.9 454.6L294.2 400L288.1 400C279.3 400 272.1 392.8 272.1 384zM320 531.8L352.4 484.7L320 419.8L287.6 484.7L320 531.8z"/></svg>