<svg xmlns="http://www.w3.org/2000/svg" viewBox="0 0 640 640"><!--! Font Awesome Pro 7.1.0 by @fontawesome - https://fontawesome.com License - https://fontawesome.com/license (Commercial License) Copyright 2025 Fonticons, Inc. --><path fill="currentColor" d="M447.5 119.8L462 111.1C463.2 110.4 464 109 464 107.6C464 105.8 462.8 104.1 461 103.7L320 65.2L179 103.6C177.2 104.1 176 105.7 176 107.5C176 108.9 176.8 110.3 178 111L192.5 119.7C202.1 125.5 208 136 208 147.2L208 154.5C227.5 161.7 259.2 171.4 294.8 174.8L267.3 147.3C261.1 141.1 261.1 130.9 267.3 124.7L308.7 83.3C314.9 77.1 325.1 77.1 331.3 83.3L372.7 124.7C378.9 130.9 378.9 141.1 372.7 147.3L345.2 174.8C380.8 171.4 412.5 161.7 432 154.5L432 147.2C432 136 437.9 125.5 447.5 119.8zM478.4 138.6L463.9 147.3L463.9 155.9C463.9 167.3 457.9 177.7 447.9 182.6L447.9 192.1C447.9 219.8 456.9 246.7 473.5 268.9L490.3 291.3C493.9 296.1 495.9 302 495.9 308.1C495.9 323.6 483.4 336.1 467.9 336.1L172 336C156.5 336 144 323.5 144 308C144 301.9 146 296 149.6 291.2L166.4 268.8C183 246.6 192 219.7 192 192L192 182.5C182 177.5 176 167.1 176 155.8L176 147.2L161.5 138.5C150.7 132 144 120.2 144 107.6C144 91.3 154.9 77 170.6 72.7L311.6 34.2C317.1 32.7 322.9 32.7 328.4 34.2L469.4 72.7C485.1 77 496 91.2 496 107.5C496 120.2 489.3 131.9 478.5 138.4zM205.9 266C201.9 273.7 197.3 281 192 288L180 304L235.3 304C223.2 293.4 213.2 280.5 205.8 266zM320.4 304C373.3 303.8 416.1 260.9 416.1 208L416.1 193.4C390.2 200.9 356.2 208 320.1 208C284 208 250 200.9 224.1 193.4L224.1 208C224.1 260.9 266.9 303.8 319.8 304L320.5 304zM404.7 304L460 304L448 288C442.8 281 438.1 273.7 434.1 266C426.7 280.5 416.7 293.4 404.6 304zM236.8 371.5C242.5 370.3 248.3 372.4 252.1 376.7L320 455.4L387.9 376.7C391.7 372.3 397.5 370.3 403.2 371.5C483.5 387.8 544 458.8 544 544L544 560C544 568.8 536.8 576 528 576C519.2 576 512 568.8 512 560L512 544C512 477.6 467 421.6 405.8 405L332.1 490.4C329.1 493.9 324.6 496 320 496C315.4 496 310.9 494 307.9 490.4L234.2 405C173 421.6 128 477.6 128 544L128 560C128 568.8 120.8 576 112 576C103.2 576 96 568.8 96 560L96 544C96 458.8 156.5 387.8 236.8 371.5zM301.3 136L320 154.7L338.7 136L320 117.3L301.3 136zM416 528C424.8 528 432 520.8 432 512C432 503.2 424.8 496 416 496C407.2 496 400 503.2 400 512C400 520.8 407.2 528 416 528zM416 464C442.5 464 464 485.5 464 512C464 538.5 442.5 560 416 560C389.5 560 368 538.5 368 512C368 485.5 389.5 464 416 464z"/></svg>