<svg xmlns="http://www.w3.org/2000/svg" viewBox="0 0 640 640"><!--! Font Awesome Pro 7.1.0 by @fontawesome - https://fontawesome.com License - https://fontawesome.com/license (Commercial License) Copyright 2025 Fonticons, Inc. --><path fill="currentColor" d="M160.4 192C160.4 139 203.4 96 256.4 96C309.4 96 352.4 139 352.4 192C352.4 245 309.4 288 256.4 288C203.4 288 160.4 245 160.4 192zM384.4 192C384.4 121.3 327.1 64 256.4 64C185.7 64 128.4 121.3 128.4 192C128.4 262.7 185.7 320 256.4 320C327.1 320 384.4 262.7 384.4 192zM64.4 544C64.4 464.5 128.9 400 208.4 400L304.4 400C322.3 400 339.4 403.3 355.2 409.2L379.6 384.8C356.7 374 331.3 368 304.4 368L208.4 368C111.2 368 32.4 446.8 32.4 544L32.4 560C32.4 568.8 39.6 576 48.4 576C57.2 576 64.4 568.8 64.4 560L64.4 544zM373.5 504.1L475.7 401.9L526.4 452.6L424.2 554.8C419.5 559.5 413.4 562.6 406.8 563.7L356 572.2L364.5 521.4C365.6 514.8 368.7 508.8 373.4 504zM498.3 379.3L519 358.6C533 344.6 555.7 344.6 569.7 358.6C583.7 372.6 583.7 395.3 569.7 409.3L549 430L498.3 379.3zM333 516.2L320.6 590.8C319 600.6 327.8 609.4 337.6 607.8L412.2 595.4C425.4 593.2 437.5 587 446.9 577.5L592.4 432C618.9 405.5 618.9 362.5 592.4 336C565.9 309.5 522.9 309.5 496.4 336L350.9 481.5C341.5 490.9 335.2 503.1 333 516.2z"/></svg>