<svg xmlns="http://www.w3.org/2000/svg" viewBox="0 0 640 640"><!--! Font Awesome Pro 7.1.0 by @fontawesome - https://fontawesome.com License - https://fontawesome.com/license (Commercial License) Copyright 2025 Fonticons, Inc. --><path fill="currentColor" d="M308.7 52.7L282.2 79.1C276.5 84.8 268.8 88 260.8 88C255.3 88 249.9 86.5 245.2 83.7L216.2 66.3C211.3 63.3 205.1 63.3 200.1 66.1C195.1 68.9 192 74.2 192 80L192 208C192 278.7 249.3 336 320 336C390.7 336 448 278.7 448 208L448 80C448 74.2 444.9 68.9 439.9 66.1C434.9 63.3 428.7 63.3 423.8 66.3L394.8 83.7C390.1 86.5 384.7 88 379.2 88C371.2 88 363.5 84.8 357.8 79.1L331.3 52.7C325.1 46.5 314.9 46.5 308.7 52.7zM320 86.6L335.1 101.7C346.8 113.4 362.6 119.9 379.2 119.9C390.5 119.9 401.6 116.8 411.3 111L416.1 108.1L416.1 175.8L224.1 175.8L224.1 108.1L228.9 111C238.6 116.8 249.7 119.9 261 119.9C277.5 119.9 293.4 113.3 305.1 101.7L320 86.6zM320 304C267 304 224 261 224 208L416 208C416 261 373 304 320 304zM128 560C128 480.5 192.5 416 272 416L368 416C447.5 416 512 480.5 512 560C512 568.8 519.2 576 528 576C536.8 576 544 568.8 544 560C544 462.8 465.2 384 368 384L272 384C174.8 384 96 462.8 96 560C96 568.8 103.2 576 112 576C120.8 576 128 568.8 128 560z"/></svg>