<svg xmlns="http://www.w3.org/2000/svg" viewBox="0 0 640 640"><!--! Font Awesome Pro 7.1.0 by @fontawesome - https://fontawesome.com License - https://fontawesome.com/license (Commercial License) Copyright 2025 Fonticons, Inc. --><path fill="currentColor" d="M36.7 36.7C30.5 42.9 30.5 53.1 36.7 59.3L92.7 115.3C98.9 121.5 109.1 121.5 115.3 115.3C121.5 109.1 121.5 98.9 115.3 92.7L59.3 36.7C53.1 30.5 42.9 30.5 36.7 36.7zM603.3 36.7C597.1 30.5 586.9 30.5 580.7 36.7L524.7 92.7C518.5 98.9 518.5 109.1 524.7 115.3C530.9 121.5 541.1 121.5 547.3 115.3L603.3 59.3C609.5 53.1 609.5 42.9 603.3 36.7zM59.3 603.3L115.3 547.3C121.5 541.1 121.5 530.9 115.3 524.7C109.1 518.5 98.9 518.5 92.7 524.7L36.7 580.7C30.5 586.9 30.5 597.1 36.7 603.3C42.9 609.5 53.1 609.5 59.3 603.3zM603.3 603.3C609.5 597.1 609.5 586.9 603.3 580.7L547.3 524.7C541.1 518.5 530.9 518.5 524.7 524.7C518.5 530.9 518.5 541.1 524.7 547.3L580.7 603.3C586.9 609.5 597.1 609.5 603.3 603.3zM320 160C346.5 160 368 181.5 368 208C368 234.5 346.5 256 320 256C293.5 256 272 234.5 272 208C272 181.5 293.5 160 320 160zM320 288C364.2 288 400 252.2 400 208C400 163.8 364.2 128 320 128C275.8 128 240 163.8 240 208C240 252.2 275.8 288 320 288zM176 232C176 218.8 182.4 207.1 192.3 199.8C193.1 186.4 196 173.6 200.7 161.6C168.3 168.6 144 197.5 144 232C144 271.8 176.2 304 216 304C221.9 304 227.6 303.3 233.1 302C223.5 293.1 215.3 282.8 208.8 271.4C190.2 268 176.1 251.7 176.1 232.1zM424 304C463.8 304 496 271.8 496 232C496 197.5 471.7 168.7 439.3 161.6C443.9 173.6 446.8 186.4 447.7 199.8C457.6 207.1 464 218.8 464 232C464 251.6 449.9 267.9 431.3 271.3C424.8 282.7 416.6 293 407 301.9C412.5 303.2 418.2 303.9 424.1 303.9zM181.3 341.9C140.9 356.2 112 394.7 112 440L112 448C112 456.8 119.2 464 128 464C136.8 464 144 456.8 144 448L144 440C144 438.1 144.1 436.2 144.2 434.3C146.1 399.1 159.7 367 181.3 341.9zM495.8 434.3C496 436.2 496 438.1 496 440L496 448C496 456.8 503.2 464 512 464C520.8 464 528 456.8 528 448L528 440C528 394.7 499.1 356.2 458.7 341.9C480.3 367 493.9 399.1 495.8 434.3zM296 336C238.6 336 192 382.6 192 440L192 448C192 456.8 199.2 464 208 464C216.8 464 224 456.8 224 448L224 440C224 400.2 256.2 368 296 368L344 368C383.8 368 416 400.2 416 440L416 448C416 456.8 423.2 464 432 464C440.8 464 448 456.8 448 448L448 440C448 382.6 401.4 336 344 336L296 336z"/></svg>