<svg xmlns="http://www.w3.org/2000/svg" viewBox="0 0 640 640"><!--! Font Awesome Pro 7.1.0 by @fontawesome - https://fontawesome.com License - https://fontawesome.com/license (Commercial License) Copyright 2025 Fonticons, Inc. --><path fill="currentColor" d="M304 64C304 55.2 311.2 48 320 48C328.8 48 336 55.2 336 64L352 64C405 64 448 107 448 160L448 220.2L502.3 328.8C504.8 333.8 504.5 339.7 501.6 344.4C498.7 349.1 493.5 352 488 352L416 352C416 354.3 415.5 356.6 414.5 358.8C411.9 364.4 406.2 368 400 368L240 368C233.8 368 228.1 364.4 225.5 358.8C224.5 356.6 224 354.3 224 352L152 352C146.5 352 141.3 349.1 138.4 344.4C135.5 339.7 135.2 333.8 137.7 328.8L192 220.2L192 160C192 107 235 64 288 64L304 64zM224 224C224 226.5 223.4 228.9 222.3 231.2L177.9 320L245.9 320L304.1 250.2L304.1 240C304.1 231.2 311.3 224 320.1 224C328.9 224 336.1 231.2 336.1 240L336.1 250.2L394.3 320L462.3 320L417.9 231.2C416.8 229 416.2 226.5 416.2 224L416.2 216C416.2 193.9 398.3 176 376.2 176L336.2 176L336.2 184C336.2 192.8 329 200 320.2 200C311.4 200 304.2 192.8 304.2 184L304.2 176L264.2 176C242.1 176 224.2 193.9 224.2 216L224.2 224zM376 144C390.7 144 404.5 148.4 415.9 156C413.9 122.5 386 96 352 96L288 96C254 96 226.2 122.5 224.1 156C235.5 148.4 249.2 144 264 144L376 144zM240 448C178.1 448 128 498.1 128 560C128 568.8 120.8 576 112 576C103.2 576 96 568.8 96 560C96 480.5 160.5 416 240 416L400 416C479.5 416 544 480.5 544 560C544 568.8 536.8 576 528 576C519.2 576 512 568.8 512 560C512 498.1 461.9 448 400 448L240 448zM208 512C216.8 512 224 519.2 224 528L224 560C224 568.8 216.8 576 208 576C199.2 576 192 568.8 192 560L192 528C192 519.2 199.2 512 208 512zM320 512C328.8 512 336 519.2 336 528L336 560C336 568.8 328.8 576 320 576C311.2 576 304 568.8 304 560L304 528C304 519.2 311.2 512 320 512zM432 512C440.8 512 448 519.2 448 528L448 560C448 568.8 440.8 576 432 576C423.2 576 416 568.8 416 560L416 528C416 519.2 423.2 512 432 512zM274.2 336L365.9 336L320.1 281L274.3 336z"/></svg>