<svg xmlns="http://www.w3.org/2000/svg" viewBox="0 0 640 640"><!--! Font Awesome Pro 7.1.0 by @fontawesome - https://fontawesome.com License - https://fontawesome.com/license (Commercial License) Copyright 2025 Fonticons, Inc. --><path fill="currentColor" d="M416 208C416 261 373 304 320 304C267 304 224 261 224 208L224 192L287.1 192C312 192 336.2 183.7 355.9 168.4L397.9 135.7C409.3 151.6 416 171 416 192L416 208zM320 96C340.4 96 359.2 102.3 374.8 113.1L336.2 143.1C322.1 154.1 304.9 160 287.1 160L229.5 160C242.7 122.7 278.2 96 320 96zM320 64C249.3 64 192 121.3 192 192L192 208C192 278.7 249.3 336 320 336C390.7 336 448 278.7 448 208L448 192C448 121.3 390.7 64 320 64zM128 560C128 480.5 192.5 416 272 416L368 416C447.5 416 512 480.5 512 560C512 568.8 519.2 576 528 576C536.8 576 544 568.8 544 560C544 462.8 465.2 384 368 384L272 384C174.8 384 96 462.8 96 560C96 568.8 103.2 576 112 576C120.8 576 128 568.8 128 560z"/></svg>