<svg xmlns="http://www.w3.org/2000/svg" viewBox="0 0 640 640"><!--! Font Awesome Pro 7.1.0 by @fontawesome - https://fontawesome.com License - https://fontawesome.com/license (Commercial License) Copyright 2025 Fonticons, Inc. --><path fill="currentColor" d="M304 96C265.3 96 233 123.5 225.6 160L237.2 160C255.9 160 274 153.4 288.4 141.5L309.7 123.8C315.6 118.9 324.3 118.9 330.2 123.8L351.5 141.5C365.9 153.4 384 160 402.8 160L414.4 160C407 123.5 374.7 96 336 96L304 96zM193.1 160C200.9 105.7 247.6 64 304 64L336 64C392.4 64 439.1 105.7 446.9 160L448 160C456.8 160 464 167.2 464 176C464 184.8 456.8 192 448 192L448 246.3C448 264.5 454.2 282.1 465.5 296.3L476.5 310C482 316.9 480.9 327 474 332.5C467.1 338 457 336.9 451.5 330L440.5 316.3C432.8 306.7 426.8 295.9 422.6 284.4C416.9 292.1 410.3 299.1 403.1 305.3L413.8 324.1C418.2 331.8 415.5 341.5 407.8 345.9C400.1 350.3 390.4 347.6 386 339.9L376.3 322.9C359.3 331.3 340.1 336 319.9 336C299.7 336 280.5 331.3 263.5 322.9L253.8 339.9C249.4 347.6 239.6 350.2 232 345.9C224.4 341.6 221.7 331.7 226 324.1L236.7 305.3C229.4 299.1 222.9 292.1 217.2 284.4C213.1 295.8 207.1 306.6 199.3 316.3L188.5 330C183 336.9 172.9 338 166 332.5C159.1 327 158 316.9 163.5 310L174.5 296.3C185.8 282.1 192 264.5 192 246.3L192 192C183.2 192 176 184.8 176 176C176 167.2 183.2 160 192 160L193.1 160zM416 208.2L416 192L402.8 192C376.6 192 351.2 182.8 331.1 166L320 156.8L308.9 166C288.8 182.8 263.4 192 237.2 192L224 192L224 208C224 261 267 304 320 304C373 304 415.9 261.1 416 208.2zM272 384C272 375.2 279.2 368 288 368L352 368C360.8 368 368 375.2 368 384C368 392.8 360.8 400 352 400L345.9 400L373.2 454.6L418.9 388.3C423.2 382 431.5 379.6 438.5 382.7C500.6 409.8 544.1 471.9 544.1 544.1L544.1 560.1C544.1 568.9 536.9 576.1 528.1 576.1C519.3 576.1 512.1 568.9 512.1 560.1L512.1 544.1C512.1 489.7 482 442.4 437.4 417.9L333.2 569.1C330.2 573.4 325.3 576 320 576C314.7 576 309.8 573.4 306.8 569.1L202.7 417.8C158.1 442.3 128 489.6 128 544L128 560C128 568.8 120.8 576 112 576C103.2 576 96 568.8 96 560L96 544C96 471.8 139.5 409.8 201.6 382.7C208.6 379.6 216.8 382 221.2 388.3L266.9 454.6L294.2 400L288.1 400C279.3 400 272.1 392.8 272.1 384zM320 531.8L352.4 484.7L320 419.8L287.6 484.7L320 531.8z"/></svg>