<svg xmlns="http://www.w3.org/2000/svg" viewBox="0 0 640 640"><!--! Font Awesome Pro 7.1.0 by @fontawesome - https://fontawesome.com License - https://fontawesome.com/license (Commercial License) Copyright 2025 Fonticons, Inc. --><path fill="currentColor" d="M224 192C224 139 267 96 320 96C373 96 416 139 416 192C416 245 373 288 320 288C267 288 224 245 224 192zM448 192C448 121.3 390.7 64 320 64C249.3 64 192 121.3 192 192C192 262.7 249.3 320 320 320C390.7 320 448 262.7 448 192zM128 544C128 464.5 192.5 400 272 400L368 400C447.5 400 512 464.5 512 544L512 560C512 568.8 519.2 576 528 576C536.8 576 544 568.8 544 560L544 544C544 446.8 465.2 368 368 368L272 368C174.8 368 96 446.8 96 544L96 560C96 568.8 103.2 576 112 576C120.8 576 128 568.8 128 560L128 544z"/></svg>