<svg xmlns="http://www.w3.org/2000/svg" viewBox="0 0 640 640"><!--! Font Awesome Pro 7.1.0 by @fontawesome - https://fontawesome.com License - https://fontawesome.com/license (Commercial License) Copyright 2025 Fonticons, Inc. --><path fill="currentColor" d="M237.3 66.9C247.6 56.1 261.2 48 278 48C290.9 48 302.4 53 310.7 57C314.6 58.8 317.8 59.7 320 59.7C322.2 59.7 325.4 58.9 329.3 57C337.6 53 349.1 48 362 48C378.8 48 392.4 56.2 402.7 66.9C412.9 77.5 420.7 91.5 426.7 105.7C436.5 128.7 442.6 154.9 445.9 176L479.9 176C488.7 176 495.9 183.2 495.9 192C495.9 200.8 488.7 208 479.9 208L447.9 208L447.9 240C447.9 257 444.6 273.2 438.6 288L479.9 288C485.3 288 490.2 290.7 493.2 295.1C496.2 299.5 496.7 305.2 494.7 310.1L460.3 392.8C483.9 407.4 503.3 429.4 517.4 454.2C534.1 483.7 544 518.4 544 551.9L544 559.9C544 568.7 536.8 575.9 528 575.9C519.2 575.9 512 568.7 512 559.9L512 551.9C512 524.4 503.8 495.1 489.6 469.9C475.3 444.7 455.5 424.7 433.3 414.4C425.5 410.8 422 401.7 425.3 393.7L456.1 319.9L420 319.9C396.5 349.2 360.5 367.9 320.1 367.9C279.7 367.9 243.6 349.2 220.2 319.9L184.1 319.9L214.9 393.7C218.2 401.6 214.7 410.7 206.9 414.4C184.6 424.7 164.9 444.7 150.6 469.9C136.3 495 128.2 524.3 128.2 551.9L128.2 559.9C128.2 568.7 121 575.9 112.2 575.9C103.4 575.9 96 568.8 96 560L96 552C96 518.5 105.8 483.8 122.6 454.3C136.7 429.4 156.1 407.4 179.7 392.9L145.2 310.2C143.1 305.3 143.7 299.6 146.7 295.2C149.7 290.8 154.7 288.1 160 288.1L201.3 288.1C195.3 273.3 192 257.1 192 240.1L192 208.1L160 208.1C151.2 208.1 144 200.9 144 192.1C144 183.3 151.2 176.1 160 176.1L194 176.1C197.3 155.1 203.5 128.8 213.2 105.8C219.2 91.5 227.1 77.6 237.2 67zM226.4 176L413.5 176C410.4 157.9 405 136.5 397.3 118.3C392 105.9 386 95.8 379.6 89.1C373.3 82.5 367.6 80 362 80C356.8 80 351 82 343 85.9C337 88.8 328.8 91.7 320 91.7C311.2 91.7 303 88.8 297 85.9C289 82.1 283.2 80 278 80C272.4 80 266.6 82.5 260.4 89.1C254 95.8 248 105.9 242.7 118.3C234.9 136.6 229.6 157.9 226.5 176zM228.2 268.4C240.4 307.6 276.9 336 320 336C363.1 336 399.6 307.6 411.7 268.4C405.6 270.7 398.9 272 392 272L364.8 272C346.8 272 330.3 263.4 320 249.6C309.6 263.5 293.1 272 275.2 272L248 272C241.1 272 234.4 270.7 228.3 268.4zM416 216L416 208L336.9 208L342.1 223.6C345.4 233.4 354.5 240 364.9 240L392.1 240C405.4 240 416.1 229.3 416.1 216zM303.1 208L224 208L224 216C224 229.3 234.7 240 248 240L275.2 240C285.5 240 294.7 233.4 298 223.6L303.2 208zM352 432L342.2 432L383.2 554.9C384.8 559.8 384 565.1 381 569.3C378 573.5 373.2 575.9 368 575.9L272 575.9C266.9 575.9 262 573.4 259 569.3C256 565.2 255.2 559.8 256.8 554.9L297.8 432L288 432C279.2 432 272 424.8 272 416C272 407.2 279.2 400 288 400L352 400C360.8 400 368 407.2 368 416C368 424.8 360.8 432 352 432zM320 466.6L294.2 544L345.8 544L320 466.6z"/></svg>