<svg xmlns="http://www.w3.org/2000/svg" viewBox="0 0 640 640"><!--! Font Awesome Pro 7.1.0 by @fontawesome - https://fontawesome.com License - https://fontawesome.com/license (Commercial License) Copyright 2025 Fonticons, Inc. --><path fill="currentColor" d="M447.5 119.8L462 111.1C463.2 110.4 464 109 464 107.6C464 105.8 462.8 104.1 461 103.7L320 65.2L179 103.6C177.2 104.1 176 105.7 176 107.5C176 108.9 176.8 110.3 178 111L192.5 119.7C202.1 125.5 208 136 208 147.2L208 154.5C232 163.3 274.5 176 320 176C365.5 176 408 163.3 432 154.5L432 147.2C432 136 437.9 125.5 447.5 119.8zM478.4 138.6L463.9 147.3L463.9 155.9C463.9 167.3 457.9 177.7 447.9 182.6L447.9 208.1C447.9 278.8 390.6 336.1 319.9 336.1C249.2 336.1 192 278.7 192 208L192 182.5C182 177.5 176 167.1 176 155.8L176 147.2L161.5 138.5C150.7 132 144 120.2 144 107.6C144 91.3 154.9 77 170.6 72.7L311.6 34.2C317.1 32.7 322.9 32.7 328.4 34.2L469.4 72.7C485.1 77 496 91.2 496 107.5C496 120.2 489.3 131.9 478.5 138.4zM224 193.4L224 208C224 261 267 304 320 304C373 304 416 261 416 208L416 193.4C390.1 200.9 356.1 208 320 208C283.9 208 249.9 200.9 224 193.4zM236.8 371.5C242.5 370.3 248.3 372.3 252.1 376.7L320 455.4L387.9 376.7C391.7 372.3 397.5 370.3 403.2 371.5C483.5 387.8 544 458.8 544 544L544 560C544 568.8 536.8 576 528 576C519.2 576 512 568.8 512 560L512 544C512 477.6 467 421.6 405.8 405L336 485.9L336 560C336 568.8 328.8 576 320 576C311.2 576 304 568.8 304 560L304 485.9L234.2 405C173 421.6 128 477.6 128 544L128 560C128 568.8 120.8 576 112 576C103.2 576 96 568.8 96 560L96 544C96 458.8 156.5 387.8 236.8 371.5zM400 512L448 512C456.8 512 464 519.2 464 528C464 536.8 456.8 544 448 544L400 544C391.2 544 384 536.8 384 528C384 519.2 391.2 512 400 512zM257.7 104.8C261.7 96.9 271.3 93.7 279.2 97.6L320 118.1L360.8 97.7C368.7 93.7 378.3 97 382.3 104.9C386.3 112.8 383 122.4 375.1 126.4L327.1 150.4C322.6 152.7 317.3 152.7 312.8 150.4L264.8 126.4C256.9 122.4 253.7 112.8 257.6 104.9z"/></svg>