<svg xmlns="http://www.w3.org/2000/svg" viewBox="0 0 640 640"><!--! Font Awesome Pro 7.1.0 by @fontawesome - https://fontawesome.com License - https://fontawesome.com/license (Commercial License) Copyright 2025 Fonticons, Inc. --><path fill="currentColor" d="M416 108.9L320 66.9L224 108.9L224 160L304 160L304 144L288 144C283.6 144 280 140.4 280 136L280 120C280 115.6 283.6 112 288 112L304 112L304 96C304 91.6 307.6 88 312 88L328 88C332.4 88 336 91.6 336 96L336 112L352 112C356.4 112 360 115.6 360 120L360 136C360 140.4 356.4 144 352 144L336 144L336 160L416 160L416 108.9zM192 108.9C192 96.2 199.5 84.7 211.2 79.6L307.2 37.6C315.4 34 324.7 34 332.9 37.6L428.9 79.6C440.5 84.7 448 96.2 448 108.9L448 208C448 278.7 390.7 336 320 336C249.3 336 192 278.7 192 208L192 108.9zM287.1 192L224 192L224 208C224 213.5 224.5 218.8 225.3 224L275.5 224C295.1 224 314 216.8 328.6 203.8L341.9 192L287 192zM390.1 192L349.9 227.7C329.4 245.9 302.9 256 275.5 256L236.8 256C253.4 284.7 284.4 304 320 304C373 304 416 261 416 208L416 192L390.1 192zM236.8 371.5C242.5 370.3 248.3 372.3 252.1 376.7L320 455.4L387.9 376.7C391.7 372.3 397.5 370.3 403.2 371.5C483.5 387.8 544 458.8 544 544L544 560C544 568.8 536.8 576 528 576C519.2 576 512 568.8 512 560L512 544C512 477.6 467 421.6 405.8 405L332.1 490.4C329.1 493.9 324.6 496 320 496C315.4 496 310.9 494 307.9 490.4L234.2 405C173 421.6 128 477.6 128 544L128 560C128 568.8 120.8 576 112 576C103.2 576 96 568.8 96 560L96 544C96 458.8 156.5 387.8 236.8 371.5z"/></svg>