<svg xmlns="http://www.w3.org/2000/svg" viewBox="0 0 640 640"><!--! Font Awesome Pro 7.1.0 by @fontawesome - https://fontawesome.com License - https://fontawesome.com/license (Commercial License) Copyright 2025 Fonticons, Inc. --><path fill="currentColor" d="M416 192C416 171 409.3 151.6 397.8 135.8L355.8 168.5C336.2 183.7 312 192 287.1 192L224 192L224 208C224 261 267 304 320 304C373 304 416 261 416 208L416 192zM287.1 160C304.9 160 322.2 154.1 336.2 143.1L374.8 113.1C359.2 102.3 340.4 96 320 96C278.2 96 242.6 122.7 229.5 160L287.1 160zM434.1 266C426.7 280.5 416.7 293.4 404.6 304L459.9 304L447.9 288C442.7 281 438 273.7 434 266zM320 336L172 336C156.5 336 144 323.5 144 308C144 301.9 146 296 149.6 291.2L166.4 268.8C183 246.6 192 219.7 192 192C192 121.3 249.3 64 320 64C390.7 64 448 121.3 448 192C448 219.7 457 246.6 473.6 268.8L490.4 291.2C494 296 496 301.9 496 308C496 323.5 483.5 336 468 336L320 336zM235.3 304C223.2 293.4 213.2 280.5 205.8 266C201.8 273.7 197.2 281 191.9 288L179.9 304L235.2 304zM128 560C128 568.8 120.8 576 112 576C103.2 576 96 568.8 96 560C96 462.8 174.8 384 272 384L368 384C465.2 384 544 462.8 544 560C544 568.8 536.8 576 528 576C519.2 576 512 568.8 512 560C512 497.3 471.9 444 416 424.2L416 466C443.6 473.1 464 498.2 464 528L464 552C464 560.8 456.8 568 448 568C439.2 568 432 560.8 432 552L432 528C432 510.3 417.7 496 400 496C382.3 496 368 510.3 368 528L368 552C368 560.8 360.8 568 352 568C343.2 568 336 560.8 336 552L336 528C336 498.2 356.4 473.1 384 466L384 416.9C378.7 416.3 373.4 416 368 416L272 416C266.6 416 261.3 416.3 256 416.9L256 466.3C279.1 473.2 296 494.6 296 520C296 550.9 270.9 576 240 576C209.1 576 184 550.9 184 520C184 494.6 200.9 473.2 224 466.3L224 424.2C168.1 444 128 497.3 128 560zM264 520C264 506.7 253.3 496 240 496C226.7 496 216 506.7 216 520C216 533.3 226.7 544 240 544C253.3 544 264 533.3 264 520z"/></svg>