<svg xmlns="http://www.w3.org/2000/svg" viewBox="0 0 640 640"><!--! Font Awesome Pro 7.1.0 by @fontawesome - https://fontawesome.com License - https://fontawesome.com/license (Commercial License) Copyright 2025 Fonticons, Inc. --><path fill="currentColor" d="M416 208C416 255.6 381.4 295.1 336 302.7L336 288C336 279.2 328.8 272 320 272C311.2 272 304 279.2 304 288L304 302.7C258.6 295.1 224 255.6 224 208L224 192C224 139 267 96 320 96C373 96 416 139 416 192L416 208zM320 336C342.5 336 363.6 330.2 382 320L444 320C472.7 320 496 296.7 496 268C496 256.7 492.4 245.8 485.6 236.8L447.9 186.5C445 118.4 388.9 64 320 64C251.1 64 195 118.4 192.1 186.5L154.4 236.8C147.6 245.8 144 256.7 144 268C144 296.7 167.3 320 196 320L258 320C276.4 330.2 297.5 336 320 336zM195.1 235.9C199.4 255.3 208.1 273 220.1 288L196 288C185 288 176 279 176 268C176 263.7 177.4 259.5 180 256L195.1 235.9zM444 288L419.9 288C431.9 273 440.6 255.3 444.9 235.9L460 256C462.6 259.5 464 263.7 464 268C464 279 455 288 444 288zM327.2 209.7C322.7 207.4 317.4 207.4 312.9 209.7L280.9 225.7C273 229.7 269.8 239.3 273.7 247.2C277.6 255.1 287.3 258.3 295.2 254.4L320 242L344.8 254.4C352.7 258.4 362.3 255.1 366.3 247.2C370.3 239.3 367 229.7 359.1 225.7L327.1 209.7zM128 560C128 510.1 153.4 466.1 192 440.2L192 448C192 474.5 213.5 496 240 496L304 496L304 560C304 568.8 311.2 576 320 576C328.8 576 336 568.8 336 560L336 496L400 496C426.5 496 448 474.5 448 448L448 440.2C486.6 466 512 510 512 560C512 568.8 519.2 576 528 576C536.8 576 544 568.8 544 560C544 490.8 504.1 430.9 446 402.2C440.1 382.4 421.7 368 400 368L240 368C218.3 368 200 382.4 194 402.2C135.9 431 96 490.8 96 560C96 568.8 103.2 576 112 576C120.8 576 128 568.8 128 560zM224 416C224 407.2 231.2 400 240 400L400 400C408.8 400 416 407.2 416 416L416 448C416 456.8 408.8 464 400 464L240 464C231.2 464 224 456.8 224 448L224 416z"/></svg>