<svg xmlns="http://www.w3.org/2000/svg" viewBox="0 0 640 640"><!--! Font Awesome Pro 7.1.0 by @fontawesome - https://fontawesome.com License - https://fontawesome.com/license (Commercial License) Copyright 2025 Fonticons, Inc. --><path fill="currentColor" d="M176 240C176 160.5 240.5 96 320 96C399.5 96 464 160.5 464 240C464 278.5 448.9 313.5 424.3 339.3C415.3 348.7 413.1 361.5 414.9 372.2C416.7 382.9 422.9 394.2 434.4 400.2C480.5 424.2 512 472.5 512 528L512 560C512 568.8 519.2 576 528 576C536.8 576 544 568.8 544 560L544 528C544 460.1 505.5 401.1 449.2 371.8C448.5 371.4 447 370 446.5 366.9C446 363.8 447 361.9 447.5 361.4C477.5 329.8 496 287 496 240C496 142.8 417.2 64 320 64C222.8 64 144 142.8 144 240C144 287 162.5 329.8 192.5 361.4C193 362 194 363.8 193.5 366.9C193 370 191.5 371.5 190.8 371.8C134.5 401.1 96 460.1 96 528L96 560C96 568.8 103.2 576 112 576C120.8 576 128 568.8 128 560L128 528C128 472.5 159.4 424.2 205.6 400.2C217.1 394.2 223.3 382.8 225.1 372.2C226.9 361.6 224.7 348.8 215.7 339.3C191.1 313.5 176 278.5 176 240zM320 176C356.2 176 384 204.3 384 237.3C384 254.8 375.5 273.1 361.1 290.9C348 307.1 332.1 320.4 320 329.4C307.9 320.5 292 307.1 278.9 290.9C264.5 273 256 254.8 256 237.3C256 204.3 283.8 176 320 176zM224 237.3C224 292.9 277.3 338.2 304.5 357.7C313.9 364.4 326.2 364.4 335.6 357.7C362.8 338.2 416.1 293 416.1 237.3C416.1 185.8 373.1 144 320.1 144C267.1 144 224.1 185.8 224.1 237.3zM272 448C263.2 448 256 455.2 256 464L256 528C256 536.8 263.2 544 272 544C280.8 544 288 536.8 288 528L288 464C288 455.2 280.8 448 272 448zM368 448C359.2 448 352 455.2 352 464L352 528C352 536.8 359.2 544 368 544C376.8 544 384 536.8 384 528L384 464C384 455.2 376.8 448 368 448z"/></svg>