<svg xmlns="http://www.w3.org/2000/svg" viewBox="0 0 640 640"><!--! Font Awesome Pro 7.1.0 by @fontawesome - https://fontawesome.com License - https://fontawesome.com/license (Commercial License) Copyright 2025 Fonticons, Inc. --><path fill="currentColor" d="M432 147.2L432 154.5C412.5 161.7 380.8 171.4 345.2 174.8L372.7 147.3C378.9 141.1 378.9 130.9 372.7 124.7L331.3 83.3C325.1 77.1 314.9 77.1 308.7 83.3L267.3 124.7C261.1 130.9 261.1 141.1 267.3 147.3L294.8 174.8C259.2 171.4 227.5 161.7 208 154.5L208 147.2C208 136 202.1 125.5 192.5 119.8L178 111.1C176.8 110.4 176 109 176 107.6C176 105.8 177.2 104.1 179 103.7L320 65.2L461 103.6C462.8 104.1 464 105.7 464 107.5C464 108.9 463.2 110.3 462 111L447.5 119.7C437.9 125.5 432 136 432 147.2zM464 147.2L478.5 138.5C489.3 132 496 120.2 496 107.6C496 91.3 485.1 77 469.4 72.7L328.4 34.2C322.9 32.7 317.1 32.7 311.6 34.2L170.6 72.7C154.9 77 144 91.3 144 107.6C144 120.2 150.7 132 161.5 138.5L176 147.2L176 155.8C176 167.2 182 177.6 192 182.5L192 192C192 219.7 183 246.6 166.4 268.8L149.6 291.2C146 296 144 301.9 144 308C144 323.5 156.5 336 172 336L468 336C483.5 336 496 323.5 496 308C496 301.9 494 296 490.4 291.2L473.6 268.8C457 246.6 448 219.7 448 192L448 182.5C458 177.5 464 167.1 464 155.8L464 147.2zM434.1 266C438.1 273.7 442.7 281 448 288L460 304L404.7 304C416.8 293.4 426.8 280.5 434.2 266zM235.3 304L180 304L192 288C197.2 281 201.9 273.7 205.9 266C213.3 280.5 223.3 293.4 235.4 304zM224 208L224 193.4C249.9 200.9 283.9 208 320 208C356.1 208 390.1 200.9 416 193.4L416 208C416 261 373 304 320 304C267 304 224 261 224 208zM272 384C272 392.8 279.2 400 288 400L294.1 400L266.8 454.6L221.1 388.3C216.8 382 208.5 379.6 201.5 382.7C139.4 409.8 95.9 471.9 95.9 544L95.9 560C95.9 568.8 103.1 576 111.9 576C120.7 576 127.9 568.8 127.9 560L127.9 544C127.9 489.6 158 442.3 202.6 417.8L306.8 569.1C309.8 573.4 314.7 576 320 576C325.3 576 330.2 573.4 333.2 569.1L437.3 417.8C481.9 442.3 512 489.6 512 544L512 560C512 568.8 519.2 576 528 576C536.8 576 544 568.8 544 560L544 544C544 471.8 500.5 409.8 438.4 382.7C431.4 379.6 423.2 382 418.8 388.3L373.1 454.6L345.8 400L351.9 400C360.7 400 367.9 392.8 367.9 384C367.9 375.2 360.7 368 351.9 368L287.9 368C279.1 368 271.9 375.2 271.9 384zM320 531.8L287.6 484.7L320 419.8L352.4 484.7L320 531.8zM320 117.3L338.7 136L320 154.7L301.3 136L320 117.3z"/></svg>