<svg xmlns="http://www.w3.org/2000/svg" viewBox="0 0 640 640"><!--! Font Awesome Pro 7.1.0 by @fontawesome - https://fontawesome.com License - https://fontawesome.com/license (Commercial License) Copyright 2025 Fonticons, Inc. --><path fill="currentColor" d="M160 192C160 139 203 96 256 96C309 96 352 139 352 192C352 245 309 288 256 288C203 288 160 245 160 192zM384 192C384 121.3 326.7 64 256 64C185.3 64 128 121.3 128 192C128 262.7 185.3 320 256 320C326.7 320 384 262.7 384 192zM64 544C64 464.5 128.5 400 208 400L282.9 400C286.9 388.8 291.8 378.1 297.7 368L208 368C110.8 368 32 446.8 32 544L32 560C32 568.8 39.2 576 48 576C56.8 576 64 568.8 64 560L64 544zM464 352C525.9 352 576 402.1 576 464C576 525.9 525.9 576 464 576C402.1 576 352 525.9 352 464C352 402.1 402.1 352 464 352zM464 608C543.5 608 608 543.5 608 464C608 384.5 543.5 320 464 320C384.5 320 320 384.5 320 464C320 543.5 384.5 608 464 608zM544 464C544 455.2 536.8 448 528 448L400 448C391.2 448 384 455.2 384 464C384 472.8 391.2 480 400 480L528 480C536.8 480 544 472.8 544 464z"/></svg>