<svg xmlns="http://www.w3.org/2000/svg" viewBox="0 0 640 640"><!--! Font Awesome Pro 7.1.0 by @fontawesome - https://fontawesome.com License - https://fontawesome.com/license (Commercial License) Copyright 2025 Fonticons, Inc. --><path fill="currentColor" d="M320 288C373 288 416 245 416 192L224 192C224 245 267 288 320 288zM320 96C278.2 96 242.6 122.7 229.5 160L295 160L332.9 96.8C328.7 96.2 324.4 96 320.1 96zM364.2 106.8L332.3 160L410.5 160C402.3 136.9 385.6 117.9 364.2 106.8zM448 192C448 262.7 390.7 320 320 320C249.3 320 192 262.7 192 192C192 121.3 249.3 64 320 64C390.7 64 448 121.3 448 192zM128.9 544L273.7 544L212.7 428.8C167.4 449.3 134.6 492.6 128.9 544zM112 576C103.2 576 96 568.8 96 560C96 462.8 174.8 384 272 384L368 384C465.2 384 544 462.8 544 560C544 568.8 536.8 576 528 576C519.2 576 512 568.8 512 560C512 480.5 447.5 416 368 416L272 416C262.3 416 252.8 417 243.6 418.8L259.1 448L352.1 448C387.4 448 416.1 476.7 416.1 512C416.1 547.3 387.4 576 352.1 576L112 576zM276 480L309.9 544L352 544C369.7 544 384 529.7 384 512C384 494.3 369.7 480 352 480L276 480z"/></svg>