<svg xmlns="http://www.w3.org/2000/svg" viewBox="0 0 640 640"><!--! Font Awesome Pro 7.1.0 by @fontawesome - https://fontawesome.com License - https://fontawesome.com/license (Commercial License) Copyright 2025 Fonticons, Inc. --><path fill="currentColor" d="M416 160L336 160L336 144L352 144C356.4 144 360 140.4 360 136L360 120C360 115.6 356.4 112 352 112L336 112L336 96C336 91.6 332.4 88 328 88L312 88C307.6 88 304 91.6 304 96L304 112L288 112C283.6 112 280 115.6 280 120L280 136C280 140.4 283.6 144 288 144L304 144L304 160L224 160L224 108.9L320 66.9L416 108.9L416 160zM211.2 79.6C199.5 84.7 192 96.2 192 108.9L192 208C192 278.7 249.3 336 320 336C390.7 336 448 278.7 448 208L448 108.9C448 96.2 440.5 84.7 428.8 79.6L332.8 37.6C324.6 34 315.3 34 307.1 37.6L211.1 79.6zM224 192L416 192L416 208C416 261 373 304 320 304C267 304 224 261 224 208L224 192zM252.1 376.8C248.3 372.4 242.5 370.4 236.8 371.6C156.5 387.9 96 458.9 96 544.1L96 560.1C96 568.9 103.2 576.1 112 576.1C120.8 576.1 128 568.9 128 560.1L128 544.1C128 477.7 173 421.7 234.2 405.1L307.9 490.5C310.9 494 315.4 496.1 320 496.1C324.6 496.1 329.1 494.1 332.1 490.5L405.8 405C467 421.6 512 477.6 512 544L512 560C512 568.8 519.2 576 528 576C536.8 576 544 568.8 544 560L544 544C544 458.8 483.5 387.8 403.2 371.5C397.5 370.3 391.7 372.3 387.9 376.7L320 455.4L252.1 376.7z"/></svg>