<svg xmlns="http://www.w3.org/2000/svg" viewBox="0 0 640 640"><!--! Font Awesome Pro 7.1.0 by @fontawesome - https://fontawesome.com License - https://fontawesome.com/license (Commercial License) Copyright 2025 Fonticons, Inc. --><path fill="currentColor" d="M445.4 217.8C433.5 276.1 381.9 320 320 320C258.1 320 206.5 276.1 194.6 217.8C183.4 210.7 176 198.2 176 184L176 168C176 148.4 190.1 132.1 208.7 128.7C230.8 90 272.4 64 320 64C367.6 64 409.2 90 431.3 128.7C449.9 132.1 464 148.4 464 168L464 184C464 198.2 456.6 210.7 445.4 217.8zM229.5 224C242.7 261.3 278.2 288 320 288C361.8 288 397.4 261.3 410.5 224L229.4 224zM248.5 128L391.6 128C374 108.4 348.4 96 320 96C291.6 96 266 108.4 248.4 128zM272 400C192.5 400 128 464.5 128 544L128 560C128 568.8 120.8 576 112 576C103.2 576 96 568.8 96 560L96 544C96 446.8 174.8 368 272 368L368 368C465.2 368 544 446.8 544 544L544 560C544 568.8 536.8 576 528 576C519.2 576 512 568.8 512 560L512 544C512 464.5 447.5 400 368 400L272 400zM350.3 555.4L390.5 475.1C394.4 467.2 405.6 467.2 409.6 475.1L449.8 555.4C454.4 564.6 444.7 574.3 435.5 569.7L404.9 554.4C401.9 552.9 398.4 552.9 395.4 554.4L364.8 569.7C355.6 574.3 345.9 564.6 350.5 555.4zM216 160C211.6 160 208 163.6 208 168L208 184C208 188.4 211.6 192 216 192L424 192C428.4 192 432 188.4 432 184L432 168C432 163.6 428.4 160 424 160L216 160z"/></svg>