<svg xmlns="http://www.w3.org/2000/svg" viewBox="0 0 640 640"><!--! Font Awesome Pro 7.1.0 by @fontawesome - https://fontawesome.com License - https://fontawesome.com/license (Commercial License) Copyright 2025 Fonticons, Inc. --><path fill="currentColor" d="M320 320C334.7 320 348.9 317.5 362.1 312.9L345.7 284.5C337.5 286.8 328.9 288 320 288C311.1 288 302.5 286.8 294.3 284.5L277.9 312.9C291.1 317.5 305.3 320 320 320zM236.3 288.9L252.7 260.5C240.4 248.5 231.4 233.2 227 216L194.2 216C199.7 244.9 214.9 270.4 236.3 288.9zM413 168L445.8 168C440.3 139.1 425.1 113.6 403.7 95.1L387.3 123.5C399.6 135.5 408.6 150.8 413 168zM345.7 99.5L362.1 71.1C348.9 66.5 334.7 64 320 64C305.3 64 291.1 66.5 277.9 71.1L294.3 99.5C302.5 97.2 311.1 96 320 96C328.9 96 337.5 97.2 345.7 99.5zM194.2 168L227 168C231.4 150.8 240.5 135.5 252.7 123.5L236.3 95.1C214.9 113.6 199.7 139.1 194.2 168zM403.7 288.9C425.1 270.4 440.3 244.9 445.8 216L413 216C408.6 233.2 399.5 248.5 387.3 260.5L403.7 288.9zM368 400C382.6 400 396.7 402.2 410 406.2L424.5 377.2C406.8 371.2 387.7 367.9 368 367.9L344 367.9L344 399.9L368 399.9zM272 368C252.2 368 233.2 371.3 215.5 377.3L230 406.3C243.3 402.2 257.4 400.1 272 400.1L296 400.1L296 368.1L272 368.1zM187 427.7L172.5 398.7C151.4 413.2 133.6 432.2 120.5 454.3L150.7 466.4C160.3 451.4 172.7 438.2 187.1 427.7zM96 544L96 560C96 568.8 103.2 576 112 576C120.8 576 128 568.8 128 560L128 544C128 532.5 129.3 521.3 131.9 510.6L101.9 498.6C98.1 513.1 96 528.3 96 544zM453 427.7C467.4 438.2 479.7 451.4 489.4 466.4L519.6 454.3C506.5 432.2 488.7 413.2 467.6 398.7L453.1 427.7zM508.1 510.6C510.6 521.3 512 532.5 512 544L512 560C512 568.8 519.2 576 528 576C536.8 576 544 568.8 544 560L544 544C544 528.3 541.9 513.1 538.1 498.6L508.1 510.6z"/></svg>