<svg xmlns="http://www.w3.org/2000/svg" viewBox="0 0 640 640"><!--! Font Awesome Pro 7.1.0 by @fontawesome - https://fontawesome.com License - https://fontawesome.com/license (Commercial License) Copyright 2025 Fonticons, Inc. --><path fill="currentColor" d="M304 80L336 80C374.7 80 407 107.5 414.4 144L402.8 144C384.1 144 366 137.4 351.6 125.5L330.2 107.7C324.3 102.8 315.6 102.8 309.7 107.7L288.5 125.5C274.1 137.4 256 144 237.2 144L225.6 144C233 107.5 265.3 80 304 80zM193.1 144L192 144C183.2 144 176 151.2 176 160C176 168.8 183.2 176 192 176L192 230.3C192 248.5 185.8 266.1 174.5 280.3L163.5 294C158 300.9 159.1 311 166 316.5C172.9 322 183 320.9 188.5 314L199.5 300.3C207.2 290.7 213.2 279.9 217.4 268.4C223.1 276.1 229.7 283.1 236.9 289.3L226.2 308.1C221.8 315.8 224.5 325.5 232.2 329.9C239.9 334.3 249.6 331.6 254 323.9L263.7 306.9C280.7 315.3 299.9 320 320.1 320C340.3 320 359.5 315.3 376.5 306.9L386.2 323.9C390.6 331.6 400.4 334.2 408 329.9C415.6 325.6 418.3 315.7 414 308.1L403.3 289.3C410.6 283.1 417.1 276.1 422.8 268.4C426.9 279.8 433 290.6 440.7 300.3L451.7 314C457.2 320.9 467.3 322 474.2 316.5C481.1 311 482.2 300.9 476.7 294L465.7 280.3C454.4 266.1 448.2 248.5 448.2 230.3L448.2 176C457 176 464.2 168.8 464.2 160C464.2 151.2 457 144 448.2 144L447.1 144C439.1 89.7 392.4 48 336 48L304 48C247.6 48 200.9 89.7 193.1 144zM416 192.2C415.9 245.1 373 288 320 288C267 288 224 245 224 192L224 176L237.2 176C263.4 176 288.8 166.8 308.9 150L320 140.8L331.1 150C351.2 166.8 376.6 176 402.8 176L416 176L416 192.2zM252.1 376.8C248.3 372.4 242.5 370.4 236.8 371.6C156.5 387.9 96 458.9 96 544.1L96 560.1C96 568.9 103.2 576.1 112 576.1C120.8 576.1 128 568.9 128 560.1L128 544.1C128 477.7 173 421.7 234.2 405.1L307.9 490.5C310.9 494 315.4 496.1 320 496.1C324.6 496.1 329.1 494.1 332.1 490.5L405.8 405C467 421.6 512 477.6 512 544L512 560C512 568.8 519.2 576 528 576C536.8 576 544 568.8 544 560L544 544C544 458.8 483.5 387.8 403.2 371.5C397.5 370.3 391.7 372.4 387.9 376.7L320 455.4L252.1 376.7z"/></svg>