<svg xmlns="http://www.w3.org/2000/svg" viewBox="0 0 640 640"><!--! Font Awesome Pro 7.1.0 by @fontawesome - https://fontawesome.com License - https://fontawesome.com/license (Commercial License) Copyright 2025 Fonticons, Inc. --><path fill="currentColor" d="M469 70.5C474.2 77.6 472.7 87.6 465.6 92.9L351.3 176.7C332.2 190.7 320.2 212.8 320.2 236C320.2 254.8 327.7 272.8 341 286.1L354 299.2C367.3 312.5 385.3 320 404.1 320C427.2 320 449.4 308 463.4 288.9L547.2 174.6C552.4 167.5 562.4 165.9 569.6 171.2C576.8 176.5 578.3 186.4 573 193.6L489.2 307.8C469.7 334.4 438.3 352 404.1 352C379.1 352 355 342.9 336.3 326.5L91.4 571.3C85.2 577.5 75 577.5 68.8 571.3C62.6 565.1 62.6 554.9 68.8 548.7L313.6 303.8C297.2 285.1 288.1 261 288.1 236C288.1 201.8 305.7 170.4 332.3 150.9L446.6 67.1C453.7 61.9 463.7 63.4 469 70.5zM523.4 116.6C529.6 122.8 529.6 133 523.4 139.2L411.4 251.2C405.2 257.4 395 257.4 388.8 251.2C382.6 245 382.6 234.8 388.8 228.6L500.8 116.6C507 110.4 517.2 110.4 523.4 116.6zM241.8 219C239.9 234.5 240.4 250.3 243.4 265.8L112.9 135.4C85.5 173 88.7 226 122.6 259.9L206.2 343.4L183.6 366L100.1 282.4C50.1 232.4 50.1 151.4 100.1 101.4L100.9 100.6C107.1 94.4 117.3 94.4 123.5 100.6L241.8 219zM548.8 571.3L379.4 401.9L377.9 397.4C392.2 399.8 406.8 400.1 421.1 398.3L571.4 548.7C577.6 554.9 577.6 565.1 571.4 571.3C565.2 577.5 555 577.5 548.8 571.3z"/></svg>