<svg xmlns="http://www.w3.org/2000/svg" viewBox="0 0 640 640"><!--! Font Awesome Pro 7.1.0 by @fontawesome - https://fontawesome.com License - https://fontawesome.com/license (Commercial License) Copyright 2025 Fonticons, Inc. --><path fill="currentColor" d="M338.7 269.3L370.7 301.3C383.2 313.8 399.4 320 415.8 320C443.3 320 475.1 303 501.3 271.5C527.2 240.4 543.9 199.5 543.9 160C543.9 124.7 515.2 96 479.9 96C440.4 96 399.5 112.7 368.4 138.6C336.9 164.9 319.9 196.7 319.9 224.1C319.9 240.5 326.2 256.7 338.6 269.2zM316.1 291.9C297.4 273.2 288 248.7 288 224.2C288 144 384 64 480 64C533 64 576 107 576 160C576 256 496 352 415.8 352C391.3 352 366.8 342.6 348.1 323.9L343.4 319.2L91.3 571.3C85.1 577.5 74.9 577.5 68.7 571.3C62.5 565.1 62.5 554.9 68.7 548.7L320.8 296.6L316.1 291.9z"/></svg>