<svg xmlns="http://www.w3.org/2000/svg" viewBox="0 0 640 640"><!--! Font Awesome Pro 7.1.0 by @fontawesome - https://fontawesome.com License - https://fontawesome.com/license (Commercial License) Copyright 2025 Fonticons, Inc. --><path fill="currentColor" d="M336 80C336 71.2 328.8 64 320 64C311.2 64 304 71.2 304 80L304 160L176 160L176 112C176 103.2 168.8 96 160 96C151.2 96 144 103.2 144 112L144 160L128.3 160C128.1 160 128 160 127.8 160L96 160L96 112C96 103.2 88.8 96 80 96C71.2 96 64 103.2 64 112L64 176C64 184.8 71.2 192 80 192L123.4 192L304 304.9L304 352L176 352L176 304C176 295.2 168.8 288 160 288C151.2 288 144 295.2 144 304L144 352L128.3 352C128.1 352 127.9 352 127.8 352L96 352L96 304C96 295.2 88.8 288 80 288C71.2 288 64 295.2 64 304L64 368C64 376.8 71.2 384 80 384L123.4 384L304 496.9L304 560C304 568.8 311.2 576 320 576C328.8 576 336 568.8 336 560L336 496.9L516.6 384L560 384C568.8 384 576 376.8 576 368L576 304C576 295.2 568.8 288 560 288C551.2 288 544 295.2 544 304L544 352L512.2 352C512 352 511.9 352 511.7 352L496 352L496 304C496 295.2 488.8 288 480 288C471.2 288 464 295.2 464 304L464 352L336 352L336 304.9L516.6 192L560 192C568.8 192 576 184.8 576 176L576 112C576 103.2 568.8 96 560 96C551.2 96 544 103.2 544 112L544 160L512.2 160C512 160 511.9 160 511.7 160L496 160L496 112C496 103.2 488.8 96 480 96C471.2 96 464 103.2 464 112L464 160L336 160L336 80zM456.2 192L336 267.1L336 192L456.2 192zM304 267.1L183.8 192L304 192L304 267.1zM456.2 384L336 459.1L336 384L456.2 384zM304 459.1L183.8 384L304 384L304 459.1z"/></svg>