<svg xmlns="http://www.w3.org/2000/svg" viewBox="0 0 640 640"><!--! Font Awesome Pro 7.1.0 by @fontawesome - https://fontawesome.com License - https://fontawesome.com/license (Commercial License) Copyright 2025 Fonticons, Inc. --><path fill="currentColor" d="M336 80C336 71.2 328.8 64 320 64C311.2 64 304 71.2 304 80L304 160L176 160L176 112C176 103.2 168.8 96 160 96C151.2 96 144 103.2 144 112L144 160L128.2 160L127.9 160L96 160L96 112C96 103.2 88.8 96 80 96C71.2 96 64 103.2 64 112L64 176C64 184.8 71.2 192 80 192L122.4 192L304 335.7L304 560C304 568.8 311.2 576 320 576C328.8 576 336 568.8 336 560L336 335.7L517.6 192L560 192C568.8 192 576 184.8 576 176L576 112C576 103.2 568.8 96 560 96C551.2 96 544 103.2 544 112L544 160L512.1 160L511.8 160L496 160L496 112C496 103.2 488.8 96 480 96C471.2 96 464 103.2 464 112L464 160L336 160L336 80zM466 192L336 294.9L336 192L466 192zM304 294.9L174 192L304 192L304 294.9z"/></svg>