<svg xmlns="http://www.w3.org/2000/svg" viewBox="0 0 640 640"><!--! Font Awesome Pro 7.1.0 by @fontawesome - https://fontawesome.com License - https://fontawesome.com/license (Commercial License) Copyright 2025 Fonticons, Inc. --><path fill="currentColor" d="M302.1 64C249 64 203.2 101.2 192.4 153.2L131 448L101.2 448C59.9 448 23.2 474.4 10.1 513.6L2.5 536.6C.8 541.5 0 546.6 0 551.8C0 565.2 10.8 576 24.2 576L160 576C195.3 576 224 547.3 224 512C224 477.9 197.3 450 163.7 448.1L223.7 159.7C231.5 122.6 264.2 96 302.1 96L528 96C572.2 96 608 131.8 608 176C608 210.8 585.8 240.4 554.8 251.4C519.8 214.8 470.6 192 416 192C380.7 192 352 220.7 352 256L352 356C362.2 353.4 373 352 384 352L384 256C384 238.3 398.3 224 416 224C504.4 224 576 295.6 576 384L576 512C576 529.7 561.7 544 544 544L494.9 544C487.9 556 479.1 566.8 468.7 576L544 576C579.3 576 608 547.3 608 512L608 384C608 344.5 596.1 307.9 575.7 277.4C613.7 259.5 640 220.8 640 176C640 114.1 589.9 64 528 64L302.1 64zM143.7 480C143.9 480 144.1 480 144.3 480L160 480C177.7 480 192 494.3 192 512C192 529.7 177.7 544 160 544L33.7 544L40.4 523.8C49.1 497.7 73.6 480 101.1 480L143.6 480zM384 416C419.3 416 448 444.7 448 480C448 515.3 419.3 544 384 544C348.7 544 320 515.3 320 480C320 444.7 348.7 416 384 416zM384 576C437 576 480 533 480 480C480 427 437 384 384 384C331 384 288 427 288 480C288 533 331 576 384 576zM408 480C408 466.7 397.3 456 384 456C370.7 456 360 466.7 360 480C360 493.3 370.7 504 384 504C397.3 504 408 493.3 408 480z"/></svg>