<svg xmlns="http://www.w3.org/2000/svg" viewBox="0 0 640 640"><!--! Font Awesome Pro 7.1.0 by @fontawesome - https://fontawesome.com License - https://fontawesome.com/license (Commercial License) Copyright 2025 Fonticons, Inc. --><path fill="currentColor" d="M96 144L96 496C96 504.8 88.8 512 80 512C71.2 512 64 504.8 64 496L64 144C64 135.2 71.2 128 80 128C88.8 128 96 135.2 96 144zM576 144L576 496C576 504.8 568.8 512 560 512C551.2 512 544 504.8 544 496L544 144C544 135.2 551.2 128 560 128C568.8 128 576 135.2 576 144zM196.7 196.7C202.9 190.5 213.1 190.5 219.3 196.7L320 297.4L420.7 196.7C426.9 190.5 437.1 190.5 443.3 196.7C449.5 202.9 449.5 213.1 443.3 219.3L342.6 320L443.3 420.7C449.5 426.9 449.5 437.1 443.3 443.3C437.1 449.5 426.9 449.5 420.7 443.3L320 342.6L219.3 443.3C213.1 449.5 202.9 449.5 196.7 443.3C190.5 437.1 190.5 426.9 196.7 420.7L297.4 320L196.7 219.3C190.5 213.1 190.5 202.9 196.7 196.7z"/></svg>