<svg xmlns="http://www.w3.org/2000/svg" viewBox="0 0 640 640"><!--! Font Awesome Pro 7.1.0 by @fontawesome - https://fontawesome.com License - https://fontawesome.com/license (Commercial License) Copyright 2025 Fonticons, Inc. --><path fill="currentColor" d="M64 192L64 288L192 288L192 160L96 160C78.3 160 64 174.3 64 192zM64 320L64 400C64 417.7 78.3 432 96 432L99.3 432C109.7 395.1 143.7 368 184 368C224.3 368 258.2 395.1 268.7 432L379.3 432C389.7 395.1 423.7 368 464 368C504.2 368 538 394.9 548.6 431.7C564.1 429.5 576 416.1 576 400L576 320L64 320zM571.4 288C570.7 286.9 570 285.8 569.2 284.8L481.8 172.4C475.7 164.6 466.4 160 456.5 160L384 160L384 288L571.4 288zM352 288L352 160L224 160L224 288L352 288zM608 400C608 432.7 583.4 459.8 551.7 463.5C547.9 508.6 510.1 544 464 544C418.1 544 380.4 508.9 376.4 464L271.7 464C267.7 508.9 230 544 184.1 544C138.2 544 100.5 508.9 96.5 464L96.1 464C60.8 464 32.1 435.3 32.1 400L32 192C32 156.7 60.7 128 96 128L456.5 128C476.3 128 494.9 137.1 507 152.7L594.5 265.2C603.2 276.4 608 290.3 608 304.5L608 400zM520 456C520 425.1 494.9 400 464 400C433.1 400 408 425.1 408 456C408 486.9 433.1 512 464 512C494.9 512 520 486.9 520 456zM184 512C214.9 512 240 486.9 240 456C240 425.1 214.9 400 184 400C153.1 400 128 425.1 128 456C128 486.9 153.1 512 184 512z"/></svg>