<svg xmlns="http://www.w3.org/2000/svg" viewBox="0 0 640 640"><!--! Font Awesome Pro 7.1.0 by @fontawesome - https://fontawesome.com License - https://fontawesome.com/license (Commercial License) Copyright 2025 Fonticons, Inc. --><path fill="currentColor" d="M88 160L376 160L376 240C376 275.3 404.7 304 440 304L568 304L568 304.5L568 400C568 416.1 556.1 429.4 540.6 431.7C530 394.9 496.2 368 456 368C415.7 368 381.8 395.1 371.3 432L260.7 432C250.3 395.1 216.3 368 176 368C135.7 368 101.8 395.1 91.3 432L88 432C70.3 432 56 417.7 56 400L56 192C56 174.3 70.3 160 88 160zM543.7 463.5C575.4 459.7 600 432.7 600 400L600 304.5C600 290.3 595.3 276.4 586.5 265.2L499 152.7C486.9 137.1 468.3 128 448.5 128L88 128C52.7 128 24 156.7 24 192L24 400C24 435.3 52.7 464 88 464L88.4 464C92.4 508.9 130.1 544 176 544C221.9 544 259.6 508.9 263.6 464L368.3 464C372.3 508.9 410 544 455.9 544C502 544 539.8 508.6 543.6 463.5zM408 160L448.5 160C458.4 160 467.7 164.6 473.8 172.4L551.3 272L440 272C422.3 272 408 257.7 408 240L408 160zM400 456C400 425.1 425.1 400 456 400C486.9 400 512 425.1 512 456C512 486.9 486.9 512 456 512C425.1 512 400 486.9 400 456zM176 400C206.9 400 232 425.1 232 456C232 486.9 206.9 512 176 512C145.1 512 120 486.9 120 456C120 425.1 145.1 400 176 400z"/></svg>