<svg xmlns="http://www.w3.org/2000/svg" viewBox="0 0 640 640"><!--! Font Awesome Pro 7.1.0 by @fontawesome - https://fontawesome.com License - https://fontawesome.com/license (Commercial License) Copyright 2025 Fonticons, Inc. --><path fill="currentColor" d="M128 128C110.3 128 96 142.3 96 160L96 480C96 497.7 110.3 512 128 512L512 512C529.7 512 544 497.7 544 480L544 160C544 142.3 529.7 128 512 128L128 128zM480 560L480 544L160 544L160 560C160 568.8 152.8 576 144 576C135.2 576 128 568.8 128 560L128 544C92.7 544 64 515.3 64 480L64 160C64 124.7 92.7 96 128 96L512 96C547.3 96 576 124.7 576 160L576 480C576 515.3 547.3 544 512 544L512 560C512 568.8 504.8 576 496 576C487.2 576 480 568.8 480 560zM384 320C384 258.1 333.9 208 272 208C210.1 208 160 258.1 160 320C160 381.9 210.1 432 272 432C333.9 432 384 381.9 384 320zM128 320C128 240.5 192.5 176 272 176C351.5 176 416 240.5 416 320C416 399.5 351.5 464 272 464C192.5 464 128 399.5 128 320zM464 224C472.8 224 480 231.2 480 240L480 400C480 408.8 472.8 416 464 416C455.2 416 448 408.8 448 400L448 240C448 231.2 455.2 224 464 224zM272 256C307.3 256 336 284.7 336 320C336 355.3 307.3 384 272 384C236.7 384 208 355.3 208 320C208 284.7 236.7 256 272 256zM304 320C304 302.3 289.7 288 272 288C254.3 288 240 302.3 240 320C240 337.7 254.3 352 272 352C289.7 352 304 337.7 304 320z"/></svg>