<svg xmlns="http://www.w3.org/2000/svg" viewBox="0 0 640 640"><!--! Font Awesome Pro 7.1.0 by @fontawesome - https://fontawesome.com License - https://fontawesome.com/license (Commercial License) Copyright 2025 Fonticons, Inc. --><path fill="currentColor" d="M288 96.3C288.1 113.9 302.4 128 320 128C337.7 128 352 113.7 352 96C352 78.3 337.7 64 320 64C302.4 64 288.1 78.2 288 95.7L288 96.2zM256.4 88.6C260.1 56.7 287.2 32 320 32C352.8 32 379.9 56.7 383.6 88.5C465 110.8 529.2 175 551.5 256.4C583.3 260.1 608 287.2 608 320C608 352.8 583.3 379.9 551.5 383.6C529.2 465 465 529.2 383.6 551.5C379.9 583.3 352.8 608 320 608C287.2 608 260.1 583.3 256.4 551.5C175 529.2 110.8 465 88.5 383.6C56.7 379.9 32 352.8 32 320C32 287.2 56.7 260.1 88.5 256.4C110.8 175 175 110.8 256.4 88.5zM120.5 260.9C143.7 270.5 160 293.4 160 320C160 346.6 143.7 369.5 120.5 379.1C140.4 446.4 193.5 499.5 260.8 519.4C270.4 496.2 293.3 479.9 319.9 479.9C346.5 479.9 369.4 496.2 379 519.4C446.3 499.5 499.4 446.4 519.3 379.1C496.1 369.5 479.8 346.6 479.8 320C479.8 293.4 496.1 270.5 519.3 260.9C499.5 193.5 446.5 140.5 379.1 120.5C369.5 143.7 346.7 160 320 160C293.3 160 270.5 143.7 260.9 120.5C193.6 140.4 140.5 193.5 120.6 260.8zM288 544.3C288.1 561.9 302.4 576 320 576C337.7 576 352 561.7 352 544C352 526.3 337.7 512 320 512C302.4 512 288.1 526.2 288 543.7L288 544.2zM96 288C78.3 288 64 302.3 64 320C64 337.7 78.3 352 96 352C113.7 352 128 337.7 128 320C128 302.3 113.7 288 96 288zM544 352C561.7 352 576 337.7 576 320C576 302.3 561.7 288 544 288C526.3 288 512 302.3 512 320C512 337.7 526.3 352 544 352z"/></svg>