<svg xmlns="http://www.w3.org/2000/svg" viewBox="0 0 640 640"><!--! Font Awesome Pro 7.1.0 by @fontawesome - https://fontawesome.com License - https://fontawesome.com/license (Commercial License) Copyright 2025 Fonticons, Inc. --><path fill="currentColor" d="M512 160C529.7 160 544 174.3 544 192L544 448C544 465.7 529.7 480 512 480L128 480C110.3 480 96 465.7 96 448L96 192C96 174.3 110.3 160 128 160L512 160zM64 192L64 224L32 224C14.3 224 0 238.3 0 256L0 384C0 401.7 14.3 416 32 416L64 416L64 448C64 483.3 92.7 512 128 512L512 512C547.3 512 576 483.3 576 448L576 416L608 416C625.7 416 640 401.7 640 384L640 256C640 238.3 625.7 224 608 224L576 224L576 192C576 156.7 547.3 128 512 128L128 128C92.7 128 64 156.7 64 192zM64 256L64 384L32 384L32 256L64 256zM608 384L576 384L576 256L608 256L608 384zM176 224C167.2 224 160 231.2 160 240C160 248.8 167.2 256 176 256L464 256C472.8 256 480 248.8 480 240C480 231.2 472.8 224 464 224L176 224zM176 304C167.2 304 160 311.2 160 320C160 328.8 167.2 336 176 336L464 336C472.8 336 480 328.8 480 320C480 311.2 472.8 304 464 304L176 304zM176 384C167.2 384 160 391.2 160 400C160 408.8 167.2 416 176 416L464 416C472.8 416 480 408.8 480 400C480 391.2 472.8 384 464 384L176 384z"/></svg>