<svg xmlns="http://www.w3.org/2000/svg" viewBox="0 0 640 640"><!--! Font Awesome Pro 7.1.0 by @fontawesome - https://fontawesome.com License - https://fontawesome.com/license (Commercial License) Copyright 2025 Fonticons, Inc. --><path fill="currentColor" d="M192 384C271.5 384 336 319.5 336 240C336 160.5 271.5 96 192 96C112.5 96 48 160.5 48 240C48 319.5 112.5 384 192 384zM368 240C368 331.8 297.7 407.2 208 415.3L208 480L272 480C280.8 480 288 487.2 288 496C288 504.8 280.8 512 272 512L208 512L208 560C208 568.8 200.8 576 192 576C183.2 576 176 568.8 176 560L176 512L112 512C103.2 512 96 504.8 96 496C96 487.2 103.2 480 112 480L176 480L176 415.3C86.3 407.2 16 331.8 16 240C16 142.8 94.8 64 192 64C289.2 64 368 142.8 368 240zM357.5 391C364.8 383 371.5 374.6 377.5 365.6C398.3 377.3 422.4 384 448 384C527.5 384 592 319.5 592 240C592 160.5 527.5 96 448 96C422.4 96 398.3 102.7 377.5 114.4C371.4 105.5 364.7 97 357.5 89C383.9 73.1 414.9 64 448 64C545.2 64 624 142.8 624 240C624 331.8 553.7 407.2 464 415.3L464 480L528 480C536.8 480 544 487.2 544 496C544 504.8 536.8 512 528 512L464 512L464 560C464 568.8 456.8 576 448 576C439.2 576 432 568.8 432 560L432 512L368 512C359.2 512 352 504.8 352 496C352 487.2 359.2 480 368 480L432 480L432 415.3C404.9 412.9 379.6 404.3 357.5 391z"/></svg>