<svg xmlns="http://www.w3.org/2000/svg" viewBox="0 0 640 640"><!--! Font Awesome Pro 7.1.0 by @fontawesome - https://fontawesome.com License - https://fontawesome.com/license (Commercial License) Copyright 2025 Fonticons, Inc. --><path fill="currentColor" d="M480 16C480 7.2 487.2 0 496 0L624 0C632.8 0 640 7.2 640 16L640 144C640 152.8 632.8 160 624 160C615.2 160 608 152.8 608 144L608 54.6L503.3 159.4C528.7 189.9 544 229.2 544 272C544 369.2 465.2 448 368 448C339.2 448 312 441.1 288 428.8C268.5 438.8 246.9 445.2 224 447.3L224 512L288 512C296.8 512 304 519.2 304 528C304 536.8 296.8 544 288 544L224 544L224 592C224 600.8 216.8 608 208 608C199.2 608 192 600.8 192 592L192 544L128 544C119.2 544 112 536.8 112 528C112 519.2 119.2 512 128 512L192 512L192 447.3C102.3 439.2 32 363.8 32 272C32 174.8 110.8 96 208 96C236.8 96 264 102.9 288 115.2C312 102.9 339.2 96 368 96C410.8 96 450.1 111.3 480.6 136.7L585.4 32L496 32C487.2 32 480 24.8 480 16zM256 136.2C241 130.9 224.8 128 208 128C128.5 128 64 192.5 64 272C64 351.5 128.5 416 208 416C224.8 416 241 413.1 256 407.8C216.9 375.5 192 326.7 192 272C192 217.3 216.9 168.5 256 136.2zM288 391.7C326.6 365.9 352 321.9 352 271.9C352 221.9 326.6 178 288 152.1C249.4 177.9 224 221.9 224 271.9C224 321.9 249.4 365.8 288 391.7zM320 407.7C335 413 351.2 415.9 368 415.9C447.5 415.9 512 351.4 512 271.9C512 192.4 447.5 128 368 128C351.2 128 335 130.9 320 136.2C359.1 168.5 384 217.3 384 272C384 326.7 359.1 375.5 320 407.8z"/></svg>