<svg xmlns="http://www.w3.org/2000/svg" viewBox="0 0 640 640"><!--! Font Awesome Pro 7.1.0 by @fontawesome - https://fontawesome.com License - https://fontawesome.com/license (Commercial License) Copyright 2025 Fonticons, Inc. --><path fill="currentColor" d="M176 240C176 160.5 240.5 96 320 96C399.5 96 464 160.5 464 240C464 319.5 399.5 384 320 384C240.5 384 176 319.5 176 240zM336 415.3C425.7 407.2 496 331.8 496 240C496 142.8 417.2 64 320 64C222.8 64 144 142.8 144 240C144 331.8 214.3 407.2 304 415.3L304 480L240 480C231.2 480 224 487.2 224 496C224 504.8 231.2 512 240 512L304 512L304 560C304 568.8 311.2 576 320 576C328.8 576 336 568.8 336 560L336 512L400 512C408.8 512 416 504.8 416 496C416 487.2 408.8 480 400 480L336 480L336 415.3z"/></svg>