<svg xmlns="http://www.w3.org/2000/svg" viewBox="0 0 640 640"><!--! Font Awesome Pro 7.1.0 by @fontawesome - https://fontawesome.com License - https://fontawesome.com/license (Commercial License) Copyright 2025 Fonticons, Inc. --><path fill="currentColor" d="M320 300L374.7 131C360.8 138.6 342.8 144 320 144C297.2 144 279.2 138.6 265.3 131L320 300zM431.3 96C424.4 96 418.2 100.5 416.1 107.1L337.6 349.7C336.6 352.9 336 356.2 336 359.5L336 543.9L496 543.9C504.8 543.9 512 536.7 512 527.9L512 357.2C512 351.4 510.4 345.7 507.4 340.7L473.1 283.5C467.1 273.6 464 262.2 464 250.6L464 112C464 104.3 458.5 97.8 451.2 96.3C450.2 96.1 449.1 96 448 96L431.3 96zM496 192L496 250.7C496 256.5 497.6 262.2 500.6 267.2L534.9 324.4C540.9 334.3 544 345.7 544 357.3L544 528C544 554.5 522.5 576 496 576L144 576C117.5 576 96 554.5 96 528L96 357.3C96 345.7 99.2 334.3 105.1 324.4L139.4 267.2C142.4 262.2 144 256.5 144 250.7L144 112C144 85.5 165.5 64 192 64L216.4 64C236.9 64 253.1 77 263.1 88.7C272 99 288.9 112 320 112C351.1 112 368 99 376.9 88.7C386.9 77 403.1 64 423.6 64L448 64C474.5 64 496 85.5 496 112L496 192zM176 192L176 250.7C176 262.3 172.8 273.7 166.9 283.6L132.6 340.8C129.6 345.8 128 351.5 128 357.3L128 528C128 536.8 135.2 544 144 544L304 544L304 359.6C304 356.3 303.5 352.9 302.4 349.8L223.9 107.1C221.8 100.5 215.6 96 208.7 96L192 96C183.2 96 176 103.2 176 112L176 192z"/></svg>