<svg xmlns="http://www.w3.org/2000/svg" viewBox="0 0 640 640"><!--! Font Awesome Pro 7.1.0 by @fontawesome - https://fontawesome.com License - https://fontawesome.com/license (Commercial License) Copyright 2025 Fonticons, Inc. --><path fill="currentColor" d="M265.3 131C279.2 138.6 297.2 144 320 144C342.8 144 360.8 138.6 374.7 131L320 300L265.3 131zM416.1 107.1C418.2 100.5 424.4 96 431.3 96L448 96C449.1 96 450.2 96.1 451.2 96.3C458.5 97.8 464 104.2 464 112L464 250.7C464 262.3 467.2 273.7 473.1 283.6L507.4 340.8C510.4 345.8 512 351.5 512 357.3L512 528C512 536.8 504.8 544 496 544L336 544L336 359.6C336 356.3 336.5 352.9 337.6 349.8L416.1 107.1zM496 250.7L496 112C496 85.5 474.5 64 448 64L423.6 64C403.1 64 386.9 77 376.9 88.7C368 99 351.1 112 320 112C288.9 112 272 99 263.1 88.7C253.1 77 236.9 64 216.4 64L192 64C165.5 64 144 85.5 144 112L144 250.7C144 256.5 142.4 262.2 139.4 267.2L105.1 324.4C99.1 334.3 96 345.7 96 357.3L96 528C96 554.5 117.5 576 144 576L496 576C522.5 576 544 554.5 544 528L544 357.3C544 345.7 540.8 334.3 534.9 324.4L500.6 267.2C497.6 262.2 496 256.5 496 250.7zM176 250.7L176 112C176 103.2 183.2 96 192 96L208.7 96C215.6 96 221.8 100.5 223.9 107.1L302.4 349.7C303.4 352.9 304 356.2 304 359.5L304 543.9L144 543.9C135.2 543.9 128 536.7 128 527.9L128 357.2C128 351.4 129.6 345.7 132.6 340.7L166.9 283.5C172.9 273.6 176 262.2 176 250.6zM216 321.4L203.3 308.7C197.1 302.5 186.9 302.5 180.7 308.7C174.5 314.9 174.5 325.1 180.7 331.3L193.4 344L180.7 356.7C174.5 362.9 174.5 373.1 180.7 379.3C186.9 385.5 197.1 385.5 203.3 379.3L216 366.6L228.7 379.3C234.9 385.5 245.1 385.5 251.3 379.3C257.5 373.1 257.5 362.9 251.3 356.7L238.6 344L251.3 331.3C257.5 325.1 257.5 314.9 251.3 308.7C245.1 302.5 234.9 302.5 228.7 308.7L216 321.4zM192 464C192 455.2 199.2 448 208 448C216.8 448 224 455.2 224 464C224 472.8 216.8 480 208 480C199.2 480 192 472.8 192 464zM256 464C256 437.5 234.5 416 208 416C181.5 416 160 437.5 160 464C160 490.5 181.5 512 208 512C234.5 512 256 490.5 256 464zM368 344L368 400C368 408.8 375.2 416 384 416L440 416C462.1 416 480 398.1 480 376C480 356.4 465.9 340.1 447.3 336.7C443.9 318.1 427.6 304 408 304C385.9 304 368 321.9 368 344zM408 336C412.4 336 416 339.6 416 344L416 352C416 360.8 423.2 368 432 368L440 368C444.4 368 448 371.6 448 376C448 380.4 444.4 384 440 384L400 384L400 344C400 339.6 403.6 336 408 336z"/></svg>