<svg xmlns="http://www.w3.org/2000/svg" viewBox="0 0 640 640"><!--! Font Awesome Pro 7.1.0 by @fontawesome - https://fontawesome.com License - https://fontawesome.com/license (Commercial License) Copyright 2025 Fonticons, Inc. --><path fill="currentColor" d="M128 160C110.3 160 96 174.3 96 192L96 208L544 208L544 192C544 174.3 529.7 160 512 160L128 160zM96 240L96 448C96 465.7 110.3 480 128 480L512 480C529.7 480 544 465.7 544 448L544 240L96 240zM64 192C64 156.7 92.7 128 128 128L512 128C547.3 128 576 156.7 576 192L576 448C576 483.3 547.3 512 512 512L128 512C92.7 512 64 483.3 64 448L64 192zM256 416L384 416L384 320L256 320L256 416zM416 400L416 416L464 416C474.1 402.6 480 386 480 368C480 350 474.1 333.4 464 320L416 320L416 336C433.7 336 448 350.3 448 368C448 385.7 433.7 400 416 400zM192 368C192 350.3 206.3 336 224 336L224 320L176 320C165.9 333.4 160 350 160 368C160 386 165.9 402.6 176 416L224 416L224 400C206.3 400 192 385.7 192 368zM174.7 448C166.3 448 158.1 444.9 152.9 438.3C137.4 419.1 128.1 394.6 128.1 368C128.1 341.4 137.4 316.9 152.9 297.7C158.2 291.2 166.4 288 174.7 288L465.3 288C473.7 288 481.9 291.2 487.1 297.7C502.6 316.9 511.9 341.4 511.9 368C511.9 394.6 502.6 419.1 487.1 438.3C481.8 444.8 473.6 448 465.3 448L174.7 448z"/></svg>