<svg xmlns="http://www.w3.org/2000/svg" viewBox="0 0 640 640"><!--! Font Awesome Pro 7.1.0 by @fontawesome - https://fontawesome.com License - https://fontawesome.com/license (Commercial License) Copyright 2025 Fonticons, Inc. --><path fill="currentColor" d="M356.7 68.7C362.9 62.5 373.1 62.5 379.3 68.7L571.3 260.7C577.5 266.9 577.5 277.1 571.3 283.3C565.1 289.5 554.9 289.5 548.7 283.3L528 262.6C490.3 300.3 396.3 394.3 245.8 544.8C225.8 564.8 198.7 576 170.5 576C111.7 576 64 528.3 64 469.5C64 441.3 75.2 414.2 95.2 394.2C117.7 371.7 211.7 277.7 377.4 112L356.7 91.3C350.5 85.1 350.5 74.9 356.7 68.7zM400 134.6L214.6 320L425.4 320L505.4 240L400 134.6zM393.4 352L182.7 352L117.9 416.8C103.9 430.8 96.1 449.7 96.1 469.5C96.1 510.6 129.5 544 170.6 544C190.4 544 209.3 536.2 223.3 522.2L393.4 352z"/></svg>