<svg xmlns="http://www.w3.org/2000/svg" viewBox="0 0 640 640"><!--! Font Awesome Pro 7.1.0 by @fontawesome - https://fontawesome.com License - https://fontawesome.com/license (Commercial License) Copyright 2025 Fonticons, Inc. --><path fill="currentColor" d="M96 80C96 71.2 103.2 64 112 64L368 64C376.8 64 384 71.2 384 80C384 88.8 376.8 96 368 96L352 96L352 289.4C340.7 294.6 330 300.8 320 308L320 288L160 288L160 464C160 508.2 195.8 544 240 544C245.7 544 251.3 543.4 256.6 542.3C261.1 552.4 266.5 562.1 272.6 571.2C262.3 574.3 251.3 576 239.9 576C178 576 127.9 525.9 127.9 464L127.9 96L111.9 96C103.1 96 95.9 88.8 95.9 80zM160 96L160 256L320 256L320 96L160 96zM432 576C493.9 576 544 525.9 544 464C544 402.1 493.9 352 432 352C370.1 352 320 402.1 320 464C320 525.9 370.1 576 432 576zM432 320C511.5 320 576 384.5 576 464C576 543.5 511.5 608 432 608C352.5 608 288 543.5 288 464C288 384.5 352.5 320 432 320zM489.4 403.1C496.5 408.3 498.1 418.3 492.9 425.5L428.9 513.5C426.1 517.3 421.9 519.7 417.2 520C412.5 520.3 407.9 518.7 404.6 515.4L364.6 475.4C358.4 469.2 358.4 459 364.6 452.8C370.8 446.6 381 446.6 387.2 452.8L414 479.6L467 406.7C472.2 399.6 482.2 398 489.4 403.2z"/></svg>