<svg xmlns="http://www.w3.org/2000/svg" viewBox="0 0 640 640"><!--! Font Awesome Pro 7.1.0 by @fontawesome - https://fontawesome.com License - https://fontawesome.com/license (Commercial License) Copyright 2025 Fonticons, Inc. --><path fill="currentColor" d="M80 64C71.2 64 64 71.2 64 80C64 88.8 71.2 96 80 96L96 96L96 480C96 533 139 576 192 576C245 576 288 533 288 480L288 96L352 96L352 480C352 533 395 576 448 576C501 576 544 533 544 480L544 96L560 96C568.8 96 576 88.8 576 80C576 71.2 568.8 64 560 64L80 64zM256 96L256 256L128 256L128 96L256 96zM128 480L128 288L256 288L256 480C256 515.3 227.3 544 192 544C156.7 544 128 515.3 128 480zM512 96L512 256L384 256L384 96L512 96zM384 480L384 288L512 288L512 480C512 515.3 483.3 544 448 544C412.7 544 384 515.3 384 480z"/></svg>