<svg xmlns="http://www.w3.org/2000/svg" viewBox="0 0 640 640"><!--! Font Awesome Pro 7.1.0 by @fontawesome - https://fontawesome.com License - https://fontawesome.com/license (Commercial License) Copyright 2025 Fonticons, Inc. --><path fill="currentColor" d="M112 576C103.2 576 96 583.2 96 592C96 600.8 103.2 608 112 608L528 608C536.8 608 544 600.8 544 592C544 583.2 536.8 576 528 576L112 576zM448 320C448 337.7 433.7 352 416 352L224 352C206.3 352 192 337.7 192 320L192 128C192 110.3 206.3 96 224 96L416 96C433.7 96 448 110.3 448 128L448 320zM224 384L262.4 384L227.4 442.3C225.2 446 224 450.3 224 454.6L224 456C224 469.3 234.7 480 248 480L392 480C405.3 480 416 469.3 416 456L416 454.6C416 450.3 414.8 446 412.6 442.3L377.6 384L416 384C451.3 384 480 355.3 480 320L480 128C480 92.7 451.3 64 416 64L224 64C188.7 64 160 92.7 160 128L160 320C160 355.3 188.7 384 224 384zM261.3 448L299.7 384L340.3 384L378.7 448L261.3 448z"/></svg>