<svg xmlns="http://www.w3.org/2000/svg" viewBox="0 0 640 640"><!--! Font Awesome Pro 7.1.0 by @fontawesome - https://fontawesome.com License - https://fontawesome.com/license (Commercial License) Copyright 2025 Fonticons, Inc. --><path fill="currentColor" d="M384 160C401.7 160 416 174.3 416 192L416 448C416 465.7 401.7 480 384 480L128 480C110.3 480 96 465.7 96 448L96 192C96 174.3 110.3 160 128 160L384 160zM128 128C92.7 128 64 156.7 64 192L64 448C64 483.3 92.7 512 128 512L384 512C419.3 512 448 483.3 448 448L448 192C448 156.7 419.3 128 384 128L128 128zM496 236L496 276L576 216L576 424L496 364L496 404L569.6 459.2C573.8 462.3 578.8 464 584 464C597.3 464 608 453.3 608 440L608 200C608 186.7 597.3 176 584 176C578.8 176 573.8 177.7 569.6 180.8L496 236zM240 392C240 400.8 247.2 408 256 408C264.8 408 272 400.8 272 392L272 336L328 336C336.8 336 344 328.8 344 320C344 311.2 336.8 304 328 304L272 304L272 248C272 239.2 264.8 232 256 232C247.2 232 240 239.2 240 248L240 304L184 304C175.2 304 168 311.2 168 320C168 328.8 175.2 336 184 336L240 336L240 392z"/></svg>