<svg xmlns="http://www.w3.org/2000/svg" viewBox="0 0 640 640"><!--! Font Awesome Pro 7.1.0 by @fontawesome - https://fontawesome.com License - https://fontawesome.com/license (Commercial License) Copyright 2025 Fonticons, Inc. --><path fill="currentColor" d="M128 160C110.3 160 96 174.3 96 192L96 448C96 465.7 110.3 480 128 480L384 480C401.7 480 416 465.7 416 448L416 192C416 174.3 401.7 160 384 160L128 160zM64 192C64 156.7 92.7 128 128 128L384 128C419.3 128 448 156.7 448 192L448 448C448 483.3 419.3 512 384 512L128 512C92.7 512 64 483.3 64 448L64 192zM496 276L496 236L569.6 180.8C573.8 177.7 578.8 176 584 176C597.3 176 608 186.7 608 200L608 440C608 453.3 597.3 464 584 464C578.8 464 573.8 462.3 569.6 459.2L496 404L496 364L576 424L576 216L496 276z"/></svg>