<svg xmlns="http://www.w3.org/2000/svg" viewBox="0 0 640 640"><!--! Font Awesome Pro 7.1.0 by @fontawesome - https://fontawesome.com License - https://fontawesome.com/license (Commercial License) Copyright 2025 Fonticons, Inc. --><path fill="currentColor" d="M384 160C401.7 160 416 174.3 416 192L416 448C416 465.7 401.7 480 384 480L128 480C110.3 480 96 465.7 96 448L96 192C96 174.3 110.3 160 128 160L384 160zM128 128C92.7 128 64 156.7 64 192L64 448C64 483.3 92.7 512 128 512L384 512C419.3 512 448 483.3 448 448L448 192C448 156.7 419.3 128 384 128L128 128zM496 236L496 276L576 216L576 424L496 364L496 404L569.6 459.2C573.8 462.3 578.8 464 584 464C597.3 464 608 453.3 608 440L608 200C608 186.7 597.3 176 584 176C578.8 176 573.8 177.7 569.6 180.8L496 236zM256 240C276.6 240 293.2 256.7 293.2 277.2C293.2 295 282.2 304.2 270 309.7C255.3 316.3 239.9 331.2 239.9 352C239.9 360.8 247.1 368 255.9 368C264.7 368 271.9 360.8 271.9 352C271.9 348.2 275.3 342.4 283 338.9C300.8 330.9 325.1 313 325.1 277.2C325.1 239 294.1 208 255.9 208C217.7 208 186.7 239 186.7 277.2C186.7 286 193.9 293.2 202.7 293.2C211.5 293.2 218.7 286 218.7 277.2C218.7 256.6 235.4 240 255.9 240zM276 416C276 405 267 396 256 396C245 396 236 405 236 416C236 427 245 436 256 436C267 436 276 427 276 416z"/></svg>