<svg xmlns="http://www.w3.org/2000/svg" viewBox="0 0 640 640"><!--! Font Awesome Pro 7.1.0 by @fontawesome - https://fontawesome.com License - https://fontawesome.com/license (Commercial License) Copyright 2025 Fonticons, Inc. --><path fill="currentColor" d="M59.3 36.8C53.1 30.6 42.9 30.6 36.7 36.8C30.5 43 30.5 53.2 36.7 59.4L580.7 603.4C586.9 609.6 597.1 609.6 603.3 603.4C609.5 597.2 609.5 587 603.3 580.8L448 425.5L448 192C448 156.7 419.3 128 384 128L150.5 128L59.3 36.8zM182.5 160L384 160C401.7 160 416 174.3 416 192L416 393.5L182.5 160zM64 192L64 448C64 483.3 92.7 512 128 512L384 512C394.9 512 405.1 509.3 414 504.5L389.1 479.6C387.4 479.9 385.7 480 384 480L128 480C110.3 480 96 465.7 96 448L96 192C96 190.3 96.1 188.6 96.4 186.9L71.5 162C66.7 171 64 181.2 64 192zM496 276L576 216L576 424L496 364L496 404L569.6 459.2C573.8 462.3 578.8 464 584 464C597.3 464 608 453.3 608 440L608 200C608 186.7 597.3 176 584 176C578.8 176 573.8 177.7 569.6 180.8L496 236L496 276z"/></svg>