<svg xmlns="http://www.w3.org/2000/svg" viewBox="0 0 640 640"><!--! Font Awesome Pro 7.1.0 by @fontawesome - https://fontawesome.com License - https://fontawesome.com/license (Commercial License) Copyright 2025 Fonticons, Inc. --><path fill="currentColor" d="M384 160C401.7 160 416 174.3 416 192L416 448C416 465.7 401.7 480 384 480L128 480C110.3 480 96 465.7 96 448L96 192C96 174.3 110.3 160 128 160L384 160zM128 128C92.7 128 64 156.7 64 192L64 448C64 483.3 92.7 512 128 512L384 512C419.3 512 448 483.3 448 448L448 192C448 156.7 419.3 128 384 128L128 128zM569.6 180.8L496 236L496 276L576 216L576 424L496 364L496 404L569.6 459.2C573.8 462.3 578.8 464 584 464C597.3 464 608 453.3 608 440L608 200C608 186.7 597.3 176 584 176C578.8 176 573.8 177.7 569.6 180.8zM192 272C192 263.2 184.8 256 176 256C167.2 256 160 263.2 160 272L160 400C160 408.8 167.2 416 176 416L304 416C312.8 416 320 408.8 320 400C320 391.2 312.8 384 304 384L214.6 384L347.3 251.3C353.5 245.1 353.5 234.9 347.3 228.7C341.1 222.5 330.9 222.5 324.7 228.7L192 361.4L192 272z"/></svg>