<svg xmlns="http://www.w3.org/2000/svg" viewBox="0 0 640 640"><!--! Font Awesome Pro 7.1.0 by @fontawesome - https://fontawesome.com License - https://fontawesome.com/license (Commercial License) Copyright 2025 Fonticons, Inc. --><path fill="currentColor" d="M329.2 66.9C323.7 63 316.4 63 310.9 66.9L175.6 161.5C162.2 171 146.2 176 129.7 176L128 176C119.2 176 112 183.2 112 192C112 200.8 119.2 208 128 208L129.7 208C140 208 150.2 206.6 160 203.8L160 234.4L104.3 304L80 304C71.2 304 64 311.2 64 320C64 328.8 71.2 336 80 336L128 336L128 395.2L71.4 480L48 480C39.2 480 32 487.2 32 496C32 504.8 39.2 512 48 512L80 512L80 560C80 568.8 87.2 576 96 576C104.8 576 112 568.8 112 560L112 512L304 512L304 560C304 568.8 311.2 576 320 576C328.8 576 336 568.8 336 560L336 512L528 512L528 560C528 568.8 535.2 576 544 576C552.8 576 560 568.8 560 560L560 512L592 512C600.8 512 608 504.8 608 496C608 487.2 600.8 480 592 480L568.6 480L512 395.2L512 336L560 336C568.8 336 576 328.8 576 320C576 311.2 568.8 304 560 304L535.7 304L480 234.4L480 203.8C489.8 206.5 500 208 510.3 208L512 208C520.8 208 528 200.8 528 192C528 183.2 520.8 176 512 176L510.3 176C493.9 176 477.9 171 464.4 161.5L329.2 66.9zM480 336L480 384L160 384L160 336L480 336zM494.7 304L145.3 304L183.7 256L456.3 256L494.7 304zM448 224L192 224L192 189.1C192.7 188.7 193.3 188.2 194 187.8L320 99.6L446 187.8C446.6 188.3 447.3 188.7 448 189.1L448 224zM530.1 480L109.9 480L152.6 416L487.5 416L530.2 480z"/></svg>