<svg xmlns="http://www.w3.org/2000/svg" viewBox="0 0 640 640"><!--! Font Awesome Pro 7.1.0 by @fontawesome - https://fontawesome.com License - https://fontawesome.com/license (Commercial License) Copyright 2025 Fonticons, Inc. --><path fill="currentColor" d="M347.3 91.3C353.5 85.1 353.5 74.9 347.3 68.7C341.1 62.5 330.9 62.5 324.7 68.7L4.7 388.7C-1.5 394.9-1.5 405.1 4.7 411.3C10.9 417.5 21.1 417.5 27.3 411.3L347.3 91.3zM635.3 91.3C641.5 85.1 641.5 74.9 635.3 68.7C629.1 62.5 618.9 62.5 612.7 68.7L452.5 228.9C399.2 183.4 341.3 184.2 300.5 209.9C290.7 216.1 288.1 228.4 288.1 240C288.1 275.3 259.4 304 224.1 304C218.9 304 213.9 303.4 209 302.2C194.9 298.8 178.8 298.2 169.2 308.9C143.7 337.3 128.1 374.8 128.1 415.9C128.1 438.3 132.7 459.6 141 479L139.6 479.9C132.4 484.3 128.1 492.1 128.1 500.5C128.1 506.9 130.7 513.1 135.2 517.6L186.4 568.8C190.9 573.3 197.1 575.9 203.5 575.9C211.9 575.9 219.7 571.5 224.1 564.4L225 563C244.4 571.3 265.7 575.9 288.1 575.9C329.3 575.9 366.8 560.4 395.1 534.8C405.8 525.1 405.2 509 401.8 495C400.6 490.2 400 485.1 400 479.9C400 444.6 428.7 415.9 464 415.9C475.6 415.9 488 413.3 494.1 403.5C519.8 362.6 520.6 304.8 475.1 251.5L635.3 91.3zM429.8 251.6L324.7 356.7C318.5 362.9 318.5 373.1 324.7 379.3C330.9 385.5 341.1 385.5 347.3 379.3L452.4 274.2C486.6 315.5 484.6 356 468.8 383.6L468.4 383.7C467.2 383.9 465.8 384 464 384C411 384 368 427 368 480C368 487.7 368.9 495.3 370.7 502.6C371.3 505 371.7 507.2 371.9 509.1C372.1 510.7 372.1 511.8 372 512.7C349.5 532.3 320.2 544.1 288.1 544.1C271.8 544.1 256.3 541.1 242 535.5L282.4 469.8C288.2 460.3 286.8 448.1 278.9 440.3L263.8 425.2C255.9 417.3 243.7 415.9 234.3 421.7L168.6 462.1C163.1 447.8 160 432.3 160 416C160 383.9 171.8 354.5 191.4 332.1C192.2 332.1 193.4 332.1 195 332.2C196.9 332.4 199.1 332.8 201.5 333.4C208.8 335.2 216.3 336.1 224.1 336.1C277.1 336.1 320.1 293.1 320.1 240.1C320.1 238.4 320.2 236.9 320.4 235.7L320.5 235.3C348.1 219.5 388.6 217.4 429.9 251.7zM496 136C496 122.7 485.3 112 472 112C458.7 112 448 122.7 448 136C448 149.3 458.7 160 472 160C485.3 160 496 149.3 496 136zM568 256C581.3 256 592 245.3 592 232C592 218.7 581.3 208 568 208C554.7 208 544 218.7 544 232C544 245.3 554.7 256 568 256zM544 88C544 74.7 533.3 64 520 64C506.7 64 496 74.7 496 88C496 101.3 506.7 112 520 112C533.3 112 544 101.3 544 88zM616 208C629.3 208 640 197.3 640 184C640 170.7 629.3 160 616 160C602.7 160 592 170.7 592 184C592 197.3 602.7 208 616 208zM245.6 452.2L251.7 458.3L201.9 539.2L164.6 501.9L245.5 452.1z"/></svg>