<svg xmlns="http://www.w3.org/2000/svg" viewBox="0 0 640 640"><!--! Font Awesome Pro 7.1.0 by @fontawesome - https://fontawesome.com License - https://fontawesome.com/license (Commercial License) Copyright 2025 Fonticons, Inc. --><path fill="currentColor" d="M144 416C205.9 416 256 365.9 256 304C256 242.1 205.9 192 144 192C82.1 192 32 242.1 32 304C32 365.9 82.1 416 144 416zM288 304C288 349.2 267.1 389.6 234.5 416L405.5 416C372.9 389.6 352 349.2 352 304C352 224.5 416.5 160 496 160C575.5 160 640 224.5 640 304C640 383.5 575.5 448 496 448L144 448C64.5 448 0 383.5 0 304C0 224.5 64.5 160 144 160C223.5 160 288 224.5 288 304zM496 416C557.9 416 608 365.9 608 304C608 242.1 557.9 192 496 192C434.1 192 384 242.1 384 304C384 365.9 434.1 416 496 416z"/></svg>