<svg xmlns="http://www.w3.org/2000/svg" viewBox="0 0 640 640"><!--! Font Awesome Pro 7.1.0 by @fontawesome - https://fontawesome.com License - https://fontawesome.com/license (Commercial License) Copyright 2025 Fonticons, Inc. --><path fill="currentColor" d="M277 122.7C274.5 127.7 269.6 131 264.1 131.5C258.6 132 253.1 129.5 249.8 125.1C243.9 117.2 234.6 112.1 224 112.1C206.3 112.1 192 126.4 192 144.1C192 161.8 206.3 176.1 224 176.1C233.7 176.1 242.3 171.8 248.2 165C251.3 161.4 255.9 159.4 260.6 159.5C265.3 159.6 269.8 161.8 272.8 165.5L319.5 223.9C319.6 224.1 319.8 224.1 320 224.1C320.2 224.1 320.4 224 320.5 223.9L367.2 165.5C370.2 161.8 374.6 159.6 379.4 159.5C384.2 159.4 388.7 161.4 391.8 165C397.7 171.8 406.3 176.1 416 176.1C433.7 176.1 448 161.8 448 144.1C448 126.4 433.7 112.1 416 112.1C405.4 112.1 396.1 117.2 390.2 125.1C386.9 129.6 381.5 132 375.9 131.5C370.3 131 365.4 127.7 363 122.7C355.1 106.8 338.8 96 320 96C301.2 96 284.9 106.8 277 122.7zM320 64C343.9 64 365.3 74.5 380 91.1C390.3 84.1 402.6 80 416 80C451.3 80 480 108.7 480 144C480 179.3 451.3 208 416 208C403.5 208 391.8 204.4 381.9 198.2L345.5 243.8C339.3 251.5 329.9 256.1 320 256.1C310.1 256.1 300.7 251.6 294.5 243.8L258.1 198.2C248.2 204.4 236.6 208 224 208C188.7 208 160 179.3 160 144C160 108.7 188.7 80 224 80C237.4 80 249.8 84.1 260 91.1C274.6 74.5 296.1 64 320 64zM96 523.8C96 535 105 544 116.2 544L523.9 544C535 544 544.1 535 544.1 523.8C544.1 518.9 542.3 514.1 539 510.4L451 411.5L426 449C419.7 458.4 409.2 464 398 464C389.1 464 380.5 460.4 374.2 454.1L339.7 419.6C327.1 407 310.1 400 292.4 400C279.2 400 266.3 403.9 255.3 411.2L237.5 423.1C228.8 428.9 218.6 432 208.2 432C197.8 432 187.6 428.9 178.9 423.1L101.1 510.4C97.8 514.1 96 518.9 96 523.8zM399.4 431.2L429 386.8L388.7 341.5C376.6 327.8 359.1 320 340.9 320L299.1 320C280.8 320 263.4 327.8 251.3 341.5L200.5 398.6C202.9 399.5 205.4 400 208 400C212.1 400 216.1 398.8 219.6 396.5L237.4 384.6C253.7 373.8 272.8 368 292.3 368C318.5 368 343.7 378.4 362.3 397L396.8 431.5C397.1 431.8 397.6 432 398 432C398.6 432 399.1 431.7 399.4 431.2zM412.7 320.2C472.7 387.7 439.5 350.4 469.4 384L562.9 489.2C571.4 498.7 576.1 511.1 576.1 523.9C576.1 552.7 552.7 576.1 523.9 576.1L116.2 576C87.4 576 64 552.6 64 523.8C64 511 68.7 498.7 77.2 489.1C201.4 349.3 171.8 382.7 227.4 320.1C245.6 299.6 271.7 287.9 299.2 287.9L341 287.9C368.4 287.9 394.5 299.6 412.8 320.1z"/></svg>