<svg xmlns="http://www.w3.org/2000/svg" viewBox="0 0 640 640"><!--! Font Awesome Pro 7.1.0 by @fontawesome - https://fontawesome.com License - https://fontawesome.com/license (Commercial License) Copyright 2025 Fonticons, Inc. --><path fill="currentColor" d="M479.1 477.7C393.8 497.7 301.3 484.5 222.9 434.9C209.4 456.3 198.7 479.3 191 503.1C227.5 528.9 272 544 320.1 544C382.3 544 438.6 518.6 479.2 477.7zM513.1 433.7C524 415.3 532.3 395.2 537.5 373.9C465.5 386.4 389.1 375.7 320.3 338.4C289.3 357.5 262.8 381.5 241.4 408.6C325 460.8 426 467.7 513.1 433.6zM543.2 340.3C543.8 333.6 544.1 326.9 544.1 320C544.1 220.7 479.5 136.5 390 107.1C442.5 172.4 470.6 257.1 462.9 346.4C490 347.9 517 345.8 543.2 340.2zM336.8 96.6C331.3 96.2 325.7 96 320 96C298.5 96 277.7 99 258 104.7C304.8 160.8 333.7 232.3 335.9 310.5C366.4 326.9 398.5 337.6 431 342.9C439 247.6 401.9 158.1 336.8 96.5zM226 116.6C149.3 152.1 96 229.8 96 320C96 327.5 96.4 334.9 97.1 342.1C131.5 272.8 189.9 215 266.7 182.4L270.4 180.8C258.4 157.5 243.4 135.9 226 116.6zM109.3 396.3C121.1 428.8 140.2 457.8 164.6 481.3C189.7 412.7 237.2 352 303.9 311C302.9 275.5 295.7 241.5 283.5 210.1L279.1 212C195.4 247.5 135.8 316.2 109.3 396.3zM64 320C64 178.6 178.6 64 320 64C461.4 64 576 178.6 576 320C576 461.4 461.4 576 320 576C178.6 576 64 461.4 64 320z"/></svg>