<svg xmlns="http://www.w3.org/2000/svg" viewBox="0 0 640 640"><!--! Font Awesome Pro 7.1.0 by @fontawesome - https://fontawesome.com License - https://fontawesome.com/license (Commercial License) Copyright 2025 Fonticons, Inc. --><path fill="currentColor" d="M166.6 393.4L284.7 511.4C285.1 511.8 285.6 512 286.1 512C287.2 512 288 511.1 288 510.1L288 130C288 128.9 287.1 128.1 286.1 128.1C285.6 128.1 285.1 128.3 284.7 128.7L166.6 246.6C160.6 252.6 152.5 256 144 256L80 256C71.2 256 64 263.2 64 272L64 368C64 376.8 71.2 384 80 384L144 384C152.5 384 160.6 387.4 166.6 393.4zM80 224L144 224L262.1 105.9C268.5 99.5 277.1 96 286.1 96C304.8 96 320 111.2 320 129.9L320 510C320 528.7 304.8 543.9 286.1 543.9C277.1 543.9 268.5 540.3 262.1 534L144 416L80 416C53.5 416 32 394.5 32 368L32 272C32 245.5 53.5 224 80 224zM409.6 243.2C432.9 260.7 448 288.6 448 320C448 351.4 432.9 379.3 409.6 396.8C402.5 402.1 392.5 400.7 387.2 393.6C381.9 386.5 383.3 376.5 390.4 371.2C406 359.5 416 340.9 416 320C416 299.1 406 280.5 390.4 268.8C383.3 263.5 381.9 253.5 387.2 246.4C392.5 239.3 402.5 237.9 409.6 243.2zM451.6 174C457.2 167.2 467.3 166.2 474.1 171.9C516.7 207.1 543.9 260.4 543.9 320C543.9 379.6 516.7 432.9 474.1 468.1C467.3 473.7 457.2 472.8 451.6 465.9C446 459 446.9 449 453.7 443.4C489.4 414.1 512 369.7 512 320C512 270.3 489.4 225.9 453.8 196.6C447 191 446 180.9 451.7 174.1zM538.3 100.4C600.5 153.2 640 232 640 320C640 408 600.5 486.8 538.4 539.6C531.7 545.3 521.6 544.5 515.8 537.8C510 531.1 510.9 521 517.6 515.2C572.9 468.2 608 398.2 608 320C608 241.8 572.9 171.8 517.6 124.8C510.9 119.1 510 109 515.8 102.2C521.6 95.4 531.6 94.6 538.4 100.4z"/></svg>