<svg xmlns="http://www.w3.org/2000/svg" viewBox="0 0 640 640"><!--! Font Awesome Pro 7.1.0 by @fontawesome - https://fontawesome.com License - https://fontawesome.com/license (Commercial License) Copyright 2025 Fonticons, Inc. --><path fill="currentColor" d="M230.6 393.4L348.7 511.4C349.1 511.8 349.6 512 350.1 512C351.2 512 352 511.1 352 510.1L352 130C352 128.9 351.1 128.1 350.1 128.1C349.6 128.1 349.1 128.3 348.7 128.7L230.6 246.6C224.6 252.6 216.5 256 208 256L144 256C135.2 256 128 263.2 128 272L128 368C128 376.8 135.2 384 144 384L208 384C216.5 384 224.6 387.4 230.6 393.4zM144 224L208 224L326.1 105.9C332.5 99.5 341.1 96 350.1 96C368.8 96 384 111.2 384 129.9L384 510C384 528.7 368.8 543.9 350.1 543.9C341.1 543.9 332.5 540.3 326.1 534L208 416L144 416C117.5 416 96 394.5 96 368L96 272C96 245.5 117.5 224 144 224zM473.6 243.2C496.9 260.7 512 288.6 512 320C512 351.4 496.9 379.3 473.6 396.8C466.5 402.1 456.5 400.7 451.2 393.6C445.9 386.5 447.3 376.5 454.4 371.2C470 359.5 480 340.9 480 320C480 299.1 470 280.5 454.4 268.8C447.3 263.5 445.9 253.5 451.2 246.4C456.5 239.3 466.5 237.9 473.6 243.2z"/></svg>