<svg xmlns="http://www.w3.org/2000/svg" viewBox="0 0 640 640"><!--! Font Awesome Pro 7.1.0 by @fontawesome - https://fontawesome.com License - https://fontawesome.com/license (Commercial License) Copyright 2025 Fonticons, Inc. --><path fill="currentColor" d="M272 384L208 384C199.2 384 192 376.8 192 368L192 272C192 263.2 199.2 256 208 256L272 256C280.5 256 288.6 252.6 294.6 246.6L412.7 128.6C413.1 128.2 413.6 128 414.1 128C415.2 128 416 128.9 416 129.9L416 510C416 511.1 415.1 511.9 414.1 511.9C413.6 511.9 413.1 511.7 412.7 511.3L294.6 393.4C288.6 387.4 280.5 384 272 384zM272 224L208 224C181.5 224 160 245.5 160 272L160 368C160 394.5 181.5 416 208 416L272 416L390.1 534.1C396.5 540.5 405.1 544 414.1 544C432.8 544 448 528.8 448 510.1L448 130C448 111.3 432.8 96.1 414.1 96.1C405.1 96.1 396.5 99.7 390.1 106L272 224z"/></svg>