<svg xmlns="http://www.w3.org/2000/svg" viewBox="0 0 640 640"><!--! Font Awesome Pro 7.1.0 by @fontawesome - https://fontawesome.com License - https://fontawesome.com/license (Commercial License) Copyright 2025 Fonticons, Inc. --><path fill="currentColor" d="M368 32C359.2 32 352 39.2 352 48C352 56.8 359.2 64 368 64C482.9 64 576 157.1 576 272C576 280.8 583.2 288 592 288C600.8 288 608 280.8 608 272C608 139.5 500.5 32 368 32zM384 288C401.7 288 416 273.7 416 256C416 238.3 401.7 224 384 224C366.3 224 352 238.3 352 256C352 273.7 366.3 288 384 288zM352 144C352 152.8 359.2 160 368 160C429.9 160 480 210.1 480 272C480 280.8 487.2 288 496 288C504.8 288 512 280.8 512 272C512 192.5 447.5 128 368 128C359.2 128 352 135.2 352 144zM187.8 96.6C196.2 94.3 205 98.6 208.4 106.7L247.2 200C250.1 207.1 248.1 215.2 242.2 220.1L200.6 254.2C195.1 258.7 193.2 266.4 196 272.9C229.1 349.3 289.1 411.3 364.1 446.9C370.7 450.1 378.7 448.3 383.3 442.6L420 397.8C424.8 391.9 433 389.8 440.1 392.8L533.4 431.7C541.4 435.1 545.7 443.9 543.5 452.3L541.7 459C527.1 512.2 476.9 554 418.7 541.9C258 508.4 131.6 382 98.2 221.4C86.1 163.1 127.9 113 181.1 98.4L187.8 96.6zM237.9 94.3C228.3 71.5 203.3 59.2 179.4 65.7L172.7 67.5C107.7 85.3 50.4 148.8 66.8 227.9C102.8 401 239 537.2 412.1 573.2C491.2 589.6 554.7 532.3 572.5 467.3L574.3 460.6C580.8 436.7 568.6 411.6 545.7 402.1L452.4 363.2C432.3 354.8 409 360.6 395.2 377.5L366.7 412.4C307.4 381.3 259.4 331.6 230.4 271.1L262.5 244.8C279.4 231 285.2 207.8 276.8 187.6L237.9 94.4z"/></svg>