<svg xmlns="http://www.w3.org/2000/svg" viewBox="0 0 640 640"><!--! Font Awesome Pro 7.1.0 by @fontawesome - https://fontawesome.com License - https://fontawesome.com/license (Commercial License) Copyright 2025 Fonticons, Inc. --><path fill="currentColor" d="M592 352C600.8 352 608 359.2 608 368L608 480C608 515.3 579.3 544 544 544L96 544C60.7 544 32 515.3 32 480L32 368C32 359.2 39.2 352 48 352C56.8 352 64 359.2 64 368L64 480C64 497.7 78.3 512 96 512L544 512C561.7 512 576 497.7 576 480L576 368C576 359.2 583.2 352 592 352zM448 96C483.3 96 512 124.7 512 160L512 384C512 419.3 483.3 448 448 448L192 448C156.7 448 128 419.3 128 384L128 160C128 124.7 156.7 96 192 96L448 96zM192 128C174.3 128 160 142.3 160 160L160 384C160 401.7 174.3 416 192 416L448 416C465.7 416 480 401.7 480 384L480 160C480 142.3 465.7 128 448 128L192 128zM387.1 186.2C392.3 179.1 402.3 177.5 409.4 182.7C416.5 187.9 418.1 197.9 412.9 205L307.3 350.2C304.5 354 300.2 356.4 295.5 356.7C290.8 357 286.2 355.3 282.9 351.9L228.5 295.6C222.4 289.2 222.5 279.1 228.9 273C235.3 266.9 245.4 267.1 251.5 273.4L292.7 316L387.1 186.2z"/></svg>