<svg xmlns="http://www.w3.org/2000/svg" viewBox="0 0 640 640"><!--! Font Awesome Pro 7.1.0 by @fontawesome - https://fontawesome.com License - https://fontawesome.com/license (Commercial License) Copyright 2025 Fonticons, Inc. --><path fill="currentColor" d="M448 128C465.7 128 480 142.3 480 160L480 384C480 401.7 465.7 416 448 416L192 416C174.3 416 160 401.7 160 384L160 160C160 142.3 174.3 128 192 128L448 128zM192 96C156.7 96 128 124.7 128 160L128 384C128 419.3 156.7 448 192 448L448 448C483.3 448 512 419.3 512 384L512 160C512 124.7 483.3 96 448 96L192 96zM48 352C39.2 352 32 359.2 32 368L32 480C32 515.3 60.7 544 96 544L544 544C579.3 544 608 515.3 608 480L608 368C608 359.2 600.8 352 592 352C583.2 352 576 359.2 576 368L576 480C576 497.7 561.7 512 544 512L96 512C78.3 512 64 497.7 64 480L64 368C64 359.2 56.8 352 48 352zM397.6 216.5C402.3 209 400 199.1 392.5 194.5C385 189.9 375.1 192.1 370.5 199.6L302.9 307.8L268.9 262.5C263.6 255.4 253.6 254 246.5 259.3C239.4 264.6 238 274.6 243.3 281.7L291.3 345.7C294.5 349.9 299.5 352.3 304.8 352.1C310.1 351.9 314.9 349.1 317.7 344.6L397.7 216.6z"/></svg>