<svg xmlns="http://www.w3.org/2000/svg" viewBox="0 0 640 640"><!--! Font Awesome Pro 7.1.0 by @fontawesome - https://fontawesome.com License - https://fontawesome.com/license (Commercial License) Copyright 2025 Fonticons, Inc. --><path fill="currentColor" d="M96 192L544 192C561.7 192 576 206.3 576 224L576 416C576 433.7 561.7 448 544 448L426.5 448C418 448 409.9 444.6 403.9 438.6L370 404.7C356.7 391.4 338.7 384 320 384C301.3 384 283.3 391.4 270.1 404.7L236.2 438.6C230.2 444.6 222.1 448 213.6 448L96 448C78.3 448 64 433.7 64 416L64 224C64 206.3 78.3 192 96 192zM544 160L96 160C60.7 160 32 188.7 32 224L32 416C32 451.3 60.7 480 96 480L213.5 480C230.5 480 246.8 473.3 258.8 461.3L292.7 427.4C299.9 420.2 309.8 416.1 320 416.1C330.2 416.1 340.1 420.2 347.3 427.4L381.2 461.3C393.2 473.3 409.5 480 426.5 480L544 480C579.3 480 608 451.3 608 416L608 224C608 188.7 579.3 160 544 160zM192 336C174.3 336 160 321.7 160 304C160 286.3 174.3 272 192 272C209.7 272 224 286.3 224 304C224 321.7 209.7 336 192 336zM128 304C128 339.3 156.7 368 192 368C227.3 368 256 339.3 256 304C256 268.7 227.3 240 192 240C156.7 240 128 268.7 128 304zM448 336C430.3 336 416 321.7 416 304C416 286.3 430.3 272 448 272C465.7 272 480 286.3 480 304C480 321.7 465.7 336 448 336zM384 304C384 339.3 412.7 368 448 368C483.3 368 512 339.3 512 304C512 268.7 483.3 240 448 240C412.7 240 384 268.7 384 304z"/></svg>