<svg xmlns="http://www.w3.org/2000/svg" viewBox="0 0 640 640"><!--! Font Awesome Pro 7.1.0 by @fontawesome - https://fontawesome.com License - https://fontawesome.com/license (Commercial License) Copyright 2025 Fonticons, Inc. --><path fill="currentColor" d="M42.5 97C50.8 94 60 98.2 63 106.5L198.2 476.5L304.6 107.6C306.6 100.8 312.8 96 320 96C327.2 96 333.4 100.7 335.4 107.6L441.8 476.5L577 106.5C580 98.2 589.2 93.9 597.5 97C605.8 100.1 610.1 109.2 607 117.5L455 533.5C452.6 540 446.3 544.2 439.4 544C432.5 543.8 426.5 539.1 424.6 532.4L320 169.7L215.4 532.4C213.5 539 207.5 543.7 200.6 544C193.7 544.3 187.4 540 185 533.5L33 117.5C29.9 109.2 34.2 100 42.5 97z"/></svg>