<svg xmlns="http://www.w3.org/2000/svg" viewBox="0 0 640 640"><!--! Font Awesome Pro 7.1.0 by @fontawesome - https://fontawesome.com License - https://fontawesome.com/license (Commercial License) Copyright 2025 Fonticons, Inc. --><path fill="currentColor" d="M544 320C544 196.3 443.7 96 320 96C196.3 96 96 196.3 96 320C96 443.7 196.3 544 320 544C443.7 544 544 443.7 544 320zM64 320C64 178.6 178.6 64 320 64C461.4 64 576 178.6 576 320C576 461.4 461.4 576 320 576C178.6 576 64 461.4 64 320zM336 144L336 208L400 208L400 176C400 167.2 407.2 160 416 160C424.8 160 432 167.2 432 176L432 208L464 208C472.8 208 480 215.2 480 224C480 232.8 472.8 240 464 240L432 240L432 304L496 304C504.8 304 512 311.2 512 320C512 328.8 504.8 336 496 336L432 336L432 400L464 400C472.8 400 480 407.2 480 416C480 424.8 472.8 432 464 432L432 432L432 464C432 472.8 424.8 480 416 480C407.2 480 400 472.8 400 464L400 432L336 432L336 496C336 504.8 328.8 512 320 512C311.2 512 304 504.8 304 496L304 432L240 432L240 464C240 472.8 232.8 480 224 480C215.2 480 208 472.8 208 464L208 432L176 432C167.2 432 160 424.8 160 416C160 407.2 167.2 400 176 400L208 400L208 336L144 336C135.2 336 128 328.8 128 320C128 311.2 135.2 304 144 304L208 304L208 240L176 240C167.2 240 160 232.8 160 224C160 215.2 167.2 208 176 208L208 208L208 176C208 167.2 215.2 160 224 160C232.8 160 240 167.2 240 176L240 208L304 208L304 144C304 135.2 311.2 128 320 128C328.8 128 336 135.2 336 144zM240 240L240 304L304 304L304 240L240 240zM240 336L240 400L304 400L304 336L240 336zM336 336L336 400L400 400L400 336L336 336zM336 304L400 304L400 240L336 240L336 304z"/></svg>