<svg xmlns="http://www.w3.org/2000/svg" viewBox="0 0 640 640"><!--! Font Awesome Pro 7.1.0 by @fontawesome - https://fontawesome.com License - https://fontawesome.com/license (Commercial License) Copyright 2025 Fonticons, Inc. --><path fill="currentColor" d="M224.2 288L94.1 288L74.5 150.8C70.4 121.9 92.8 96 122 96L224.2 96L224.2 288zM240.2 320L544.2 320L544.2 385.6C523.9 364.9 495.5 352 464.2 352C407.8 352 361.1 393.7 353.3 448L287 448C279.2 393.7 232.6 352 176.1 352C144.8 352 116.4 364.9 96.1 385.6L96.1 320L240.1 320zM384.2 288L256.2 288L256.2 96L384.2 96L384.2 288zM416.2 288L416.2 96L518.4 96C547.6 96 570 121.9 565.9 150.8L546.3 288L416.2 288zM576.2 305.1L597.6 155.3C604.5 107.1 567.1 64 518.4 64L416.2 64C416.2 55.2 409 48 400.2 48C391.4 48 384.2 55.2 384.2 64L384.2 64L256.2 64C256.2 55.2 249 48 240.2 48C231.4 48 224.2 55.2 224.2 64L224.2 64L122 64C73.3 64 35.9 107.1 42.8 155.3L64.2 305.1L64.2 464C64.2 525.9 114.3 576 176.2 576C232.6 576 279.3 534.3 287.1 480L353.4 480C361.2 534.3 407.8 576 464.3 576C526.2 576 576.3 525.9 576.3 464L576.3 305.1zM96.2 464C96.2 447.7 101.1 432.5 109.5 419.9L153.6 464L109.5 508.1C101.1 495.5 96.2 480.3 96.2 464zM132.1 397.3C144.7 388.9 159.9 384 176.2 384C192.5 384 207.7 388.9 220.3 397.3L176.2 441.4L132.1 397.3zM176.2 486.7L220.3 530.8C207.7 539.2 192.5 544.1 176.2 544.1C159.9 544.1 144.7 539.2 132.1 530.8L176.2 486.7zM243 508.1L198.8 464L243 419.9C251.4 432.5 256.3 447.7 256.3 464C256.3 480.3 251.4 495.5 243 508.1zM544.3 463.9L544.3 464C544.3 480.3 539.4 495.5 531 508.1L486.8 464L531 419.9C539.4 432.5 544.2 447.7 544.3 463.9zM508.4 530.7C495.8 539.1 480.6 544 464.3 544C448 544 432.8 539.1 420.2 530.7L464.3 486.6L508.4 530.7zM441.6 464L397.5 508.1C389.1 495.5 384.2 480.3 384.2 464C384.2 447.7 389.1 432.5 397.5 419.9L441.6 464zM464.2 441.4L420.1 397.3C432.7 388.9 447.9 384 464.2 384C480.5 384 495.7 388.9 508.3 397.3L464.2 441.4z"/></svg>