<svg xmlns="http://www.w3.org/2000/svg" viewBox="0 0 640 640"><!--! Font Awesome Pro 7.1.0 by @fontawesome - https://fontawesome.com License - https://fontawesome.com/license (Commercial License) Copyright 2025 Fonticons, Inc. --><path fill="currentColor" d="M208 32C216.8 32 224 39.2 224 48L224 128L296 128C296 114.7 306.7 104 320 104C333.3 104 344 114.7 344 128L392 128C392 114.7 402.7 104 416 104C429.3 104 440 114.7 440 128L448 128C483.3 128 512 156.7 512 192L512 332.6C512 348.4 507.3 363.8 498.6 377L485.4 396.8C481.9 402.1 480 408.2 480 414.6L480 512.1C480 547.4 451.3 576.1 416 576.1L224 576C188.7 576 160 547.3 160 512L160 414.5C160 408.2 158.1 402 154.6 396.7L141.4 377C132.7 363.9 128 348.4 128 332.6L128 192C128 156.7 156.7 128 192 128L192 48C192 39.2 199.2 32 208 32zM192 160C174.3 160 160 174.3 160 192L160 332.6C160 342.1 162.8 351.3 168.1 359.2L181.3 379C188.3 389.5 192 401.9 192 414.5L192 512C192 529.7 206.3 544 224 544L416 544C433.7 544 448 529.7 448 512L448 414.5C448 401.9 451.7 389.5 458.7 379L471.9 359.2C477.2 351.3 480 342.1 480 332.6L480 192C480 174.3 465.7 160 448 160L192 160zM240 224L400 224C408.8 224 416 231.2 416 240C416 248.8 408.8 256 400 256L240 256C231.2 256 224 248.8 224 240C224 231.2 231.2 224 240 224zM240 320L400 320C408.8 320 416 327.2 416 336C416 344.8 408.8 352 400 352L240 352C231.2 352 224 344.8 224 336C224 327.2 231.2 320 240 320z"/></svg>