<svg xmlns="http://www.w3.org/2000/svg" viewBox="0 0 640 640"><!--! Font Awesome Pro 7.1.0 by @fontawesome - https://fontawesome.com License - https://fontawesome.com/license (Commercial License) Copyright 2025 Fonticons, Inc. --><path fill="currentColor" d="M296 88C296 74.7 306.7 64 320 64C333.3 64 344 74.7 344 88C344 101.3 333.3 112 320 112C306.7 112 296 101.3 296 88zM376 88C376 57.1 350.9 32 320 32C289.1 32 264 57.1 264 88C264 118.9 289.1 144 320 144C350.9 144 376 118.9 376 88zM304.8 208C315.6 208 326.1 209.8 336 213.3L336 390.1L298.5 371.4C282.2 363.3 272 346.6 272 328.5L272 213.9C282.4 210 293.5 208 304.8 208zM235 238.9C236.6 237.1 238.3 235.4 240 233.8L240 328.5C240 358.8 257.1 386.5 284.2 400.1L377.7 446.8C392.3 454.1 402.1 468.2 403.9 484.4L416.1 593.8C417.1 602.6 425 608.9 433.8 607.9C442.6 606.9 448.9 599 447.9 590.2L435.7 480.8C432.7 453.8 416.2 430.2 392 418.1L368 406.1L368 232.3C372.5 236.3 376.6 240.8 380.3 245.8L400 272C415.1 292.1 438.8 304 464 304L496 304C504.8 304 512 296.8 512 288C512 279.2 504.8 272 496 272L464 272C448.9 272 434.7 264.9 425.6 252.8L405.9 226.5C382 194.7 344.6 176 304.8 176C269.2 176 235.2 191 211.3 217.4L180.8 250.9C167.4 265.7 160 284.8 160 304.7L160 368C160 376.8 167.2 384 176 384C184.8 384 192 376.8 192 368L192 304.7C192 292.8 196.5 281.2 204.5 272.4L235 238.9zM260.8 463C258.8 468.9 255.7 474.3 251.7 479.1L163.9 581.6C158.1 588.3 158.9 598.4 165.6 604.2C172.3 610 182.4 609.2 188.2 602.5L276 499.9C282.7 492 287.9 483 291.2 473.1L295.8 459.3L266.9 444.8L260.9 462.9z"/></svg>