<svg xmlns="http://www.w3.org/2000/svg" viewBox="0 0 640 640"><!--! Font Awesome Pro 7.1.0 by @fontawesome - https://fontawesome.com License - https://fontawesome.com/license (Commercial License) Copyright 2025 Fonticons, Inc. --><path fill="currentColor" d="M289.2 96L416 96C442.5 96 464 117.5 464 144L464 256L209.6 256L242.8 131.6C248.4 110.6 267.4 96 289.2 96zM464 288L464 450C436.4 457.1 416 482.2 416 512C416 547.3 444.7 576 480 576C515.3 576 544 547.3 544 512C544 482.2 523.6 457.1 496 450L496 144C496 99.8 460.2 64 416 64L289.2 64C253 64 221.2 88.4 211.9 123.4L96.5 555.9C94.2 564.4 99.3 573.2 107.8 575.5C116.3 577.8 125.1 572.7 127.4 564.2L201.1 288L464 288zM448 512C448 494.3 462.3 480 480 480C497.7 480 512 494.3 512 512C512 529.7 497.7 544 480 544C462.3 544 448 529.7 448 512z"/></svg>