<svg xmlns="http://www.w3.org/2000/svg" viewBox="0 0 640 640"><!--! Font Awesome Pro 7.1.0 by @fontawesome - https://fontawesome.com License - https://fontawesome.com/license (Commercial License) Copyright 2025 Fonticons, Inc. --><path fill="currentColor" d="M144 96C99.8 96 64 131.8 64 176L64 432C64 476.2 99.8 512 144 512L496 512C540.2 512 576 476.2 576 432L576 240C576 195.8 540.2 160 496 160L176 160C167.2 160 160 167.2 160 176C160 184.8 167.2 192 176 192L496 192C522.5 192 544 213.5 544 240L544 432C544 458.5 522.5 480 496 480L144 480C117.5 480 96 458.5 96 432L96 176C96 149.5 117.5 128 144 128L528 128C536.8 128 544 120.8 544 112C544 103.2 536.8 96 528 96L144 96zM448 360C461.3 360 472 349.3 472 336C472 322.7 461.3 312 448 312C434.7 312 424 322.7 424 336C424 349.3 434.7 360 448 360z"/></svg>