<svg xmlns="http://www.w3.org/2000/svg" viewBox="0 0 640 640"><!--! Font Awesome Pro 7.1.0 by @fontawesome - https://fontawesome.com License - https://fontawesome.com/license (Commercial License) Copyright 2025 Fonticons, Inc. --><path fill="currentColor" d="M536.8 64C527.2 64 517.9 67.5 510.8 73.9L233.9 320L200 320C177.9 320 160 337.9 160 360L160 387.1L81.7 457C70.5 467.1 64 481.5 64 496.6C64 510.7 69.6 524.2 79.6 534.2L105.8 560.4C115.8 570.4 129.3 576 143.4 576C158.5 576 172.9 569.6 183 558.4L455.1 256L480 256C497.7 256 512 241.7 512 224L512 197.6L567.3 128.5C572.9 121.5 576 112.7 576 103.7L576 103.2C576 81.5 558.5 64 536.8 64zM532 97.8C533.3 96.6 535 96 536.8 96C540.8 96 544 99.2 544 103.2L544 103.7C544 105.4 543.4 107.1 542.3 108.5L483.5 182C481.2 184.8 480 188.4 480 192L480 224L448 224C443.5 224 439.1 225.9 436.1 229.3L159.2 537C155.2 541.5 149.4 544 143.4 544C137.8 544 132.4 541.8 128.4 537.8L102.2 511.6C98.2 507.6 96 502.3 96 496.7C96 490.7 98.6 485 103.1 480.9L186.7 406.3C190.1 403.3 192 398.9 192 394.4L192 360.1C192 355.7 195.6 352.1 200 352.1L240 352.1C243.9 352.1 247.7 350.7 250.6 348.1L532 97.8zM320 96C320 87.2 312.8 80 304 80C295.2 80 288 87.2 288 96L288 128L256 128C247.2 128 240 135.2 240 144C240 152.8 247.2 160 256 160L288 160L288 192C288 200.8 295.2 208 304 208C312.8 208 320 200.8 320 192L320 160L352 160C360.8 160 368 152.8 368 144C368 135.2 360.8 128 352 128L320 128L320 96zM160 144C160 135.2 152.8 128 144 128C135.2 128 128 135.2 128 144L128 192L80 192C71.2 192 64 199.2 64 208C64 216.8 71.2 224 80 224L128 224L128 272C128 280.8 135.2 288 144 288C152.8 288 160 280.8 160 272L160 224L208 224C216.8 224 224 216.8 224 208C224 199.2 216.8 192 208 192L160 192L160 144zM512 368C512 359.2 504.8 352 496 352C487.2 352 480 359.2 480 368L480 416L432 416C423.2 416 416 423.2 416 432C416 440.8 423.2 448 432 448L480 448L480 496C480 504.8 487.2 512 496 512C504.8 512 512 504.8 512 496L512 448L560 448C568.8 448 576 440.8 576 432C576 423.2 568.8 416 560 416L512 416L512 368z"/></svg>