<svg xmlns="http://www.w3.org/2000/svg" viewBox="0 0 640 640"><!--! Font Awesome Pro 7.1.0 by @fontawesome - https://fontawesome.com License - https://fontawesome.com/license (Commercial License) Copyright 2025 Fonticons, Inc. --><path fill="currentColor" d="M304 56C304 47.2 296.8 40 288 40C279.2 40 272 47.2 272 56L272 80L248 80C239.2 80 232 87.2 232 96C232 104.8 239.2 112 248 112L272 112L272 136C272 144.8 279.2 152 288 152C296.8 152 304 144.8 304 136L304 112L328 112C336.8 112 344 104.8 344 96C344 87.2 336.8 80 328 80L304 80L304 56zM492 96C497.6 96 502.9 98.2 506.8 102.1L537.8 133.1C541.7 137 543.9 142.4 543.9 147.9C543.9 153.4 541.7 158.8 537.8 162.7L425.7 275L365 214.3L477.2 102.1C481.1 98.2 486.5 96 492 96zM102.1 477.2L342.3 237L403 297.7L162.8 537.9C158.9 541.8 153.5 544 148 544C142.5 544 137.1 541.8 133.2 537.9L102.2 506.9L102.2 506.9C98.3 503 96.1 497.6 96.1 492.1C96.1 486.6 98.3 481.2 102.2 477.3zM492 64C478 64 464.5 69.6 454.5 79.5L79.5 454.5C69.6 464.5 64 478 64 492C64 506 69.6 519.5 79.5 529.5L110.5 560.5C120.5 570.4 134 576 148 576C162 576 175.5 570.4 185.5 560.5L560.5 185.5C570.4 175.5 576 162 576 148C576 134 570.4 120.5 560.5 110.5L529.5 79.5C519.5 69.6 506 64 492 64zM144 112C144 103.2 136.8 96 128 96C119.2 96 112 103.2 112 112L112 176L48 176C39.2 176 32 183.2 32 192C32 200.8 39.2 208 48 208L112 208L112 272C112 280.8 119.2 288 128 288C136.8 288 144 280.8 144 272L144 208L208 208C216.8 208 224 200.8 224 192C224 183.2 216.8 176 208 176L144 176L144 112zM496 368C487.2 368 480 375.2 480 384L480 448L416 448C407.2 448 400 455.2 400 464C400 472.8 407.2 480 416 480L480 480L480 544C480 552.8 487.2 560 496 560C504.8 560 512 552.8 512 544L512 480L576 480C584.8 480 592 472.8 592 464C592 455.2 584.8 448 576 448L512 448L512 384C512 375.2 504.8 368 496 368z"/></svg>