<svg xmlns="http://www.w3.org/2000/svg" viewBox="0 0 640 640"><!--! Font Awesome Pro 7.1.0 by @fontawesome - https://fontawesome.com License - https://fontawesome.com/license (Commercial License) Copyright 2025 Fonticons, Inc. --><path fill="currentColor" d="M510.8 73.9C518 67.5 527.2 64 536.8 64C558.5 64 576 81.5 576 103.2L576 103.7C576 112.7 572.9 121.5 567.3 128.5L512 197.6L512 224C512 241.7 497.7 256 480 256L455.1 256L183 558.4C172.9 569.6 158.5 576 143.4 576C129.3 576 115.7 570.4 105.8 560.4L79.6 534.2C69.6 524.2 64 510.7 64 496.6C64 481.5 70.5 467.1 81.7 457L160 387.1L160 360C160 337.9 177.9 320 200 320L233.9 320L510.8 73.9zM536.8 96C535 96 533.3 96.6 532 97.8L250.6 348C247.7 350.6 243.9 352 240 352L200 352C195.6 352 192 355.6 192 360L192 394.3C192 398.9 190.1 403.2 186.7 406.2L103.1 480.9C98.6 484.9 96 490.6 96 496.7C96 502.3 98.2 507.7 102.2 511.6L128.4 537.8C132.4 541.8 137.8 544 143.4 544C149.4 544 155.2 541.4 159.2 537L436.1 229.3C439.1 225.9 443.5 224 448 224L480 224L480 192C480 188.4 481.2 184.8 483.5 182L542.3 108.5C543.4 107.1 544 105.4 544 103.7L544 103.2C544 99.2 540.8 96 536.8 96z"/></svg>