<svg xmlns="http://www.w3.org/2000/svg" viewBox="0 0 640 640"><!--! Font Awesome Pro 7.1.0 by @fontawesome - https://fontawesome.com License - https://fontawesome.com/license (Commercial License) Copyright 2025 Fonticons, Inc. --><path fill="currentColor" d="M477.2 102.1L365 214.3L425.7 275L537.9 162.8C541.8 158.9 544 153.5 544 148C544 142.5 541.8 137.1 537.9 133.2L506.9 102.2C503 98.3 497.6 96.1 492.1 96.1C486.6 96.1 481.2 98.3 477.3 102.2zM342.3 237L102.1 477.2C98.2 481.1 96 486.5 96 492C96 497.5 98.2 502.9 102.1 506.8L102.1 506.8L133.1 537.8C137 541.7 142.4 543.9 147.9 543.9C153.4 543.9 158.8 541.7 162.7 537.8L403 297.7L342.3 237zM454.5 79.5C464.5 69.6 478 64 492 64C506 64 519.5 69.6 529.5 79.5L560.5 110.5C570.4 120.5 576 134 576 148C576 162 570.4 175.5 560.5 185.5L185.5 560.5C175.5 570.4 162 576 148 576C134 576 120.5 570.4 110.5 560.5L79.5 529.5C69.6 519.5 64 506 64 492C64 478 69.6 464.5 79.5 454.5L454.5 79.5z"/></svg>