<svg xmlns="http://www.w3.org/2000/svg" viewBox="0 0 640 640"><!--! Font Awesome Pro 7.1.0 by @fontawesome - https://fontawesome.com License - https://fontawesome.com/license (Commercial License) Copyright 2025 Fonticons, Inc. --><path fill="currentColor" d="M576 256L64 256L64 560C64 568.8 56.8 576 48 576C39.2 576 32 568.8 32 560L32 219.8C32 193.4 48.2 169.7 72.8 160.2L302.6 70.8C313.8 66.4 326.2 66.4 337.4 70.8L567.2 160.1C591.8 169.7 608 193.4 608 219.7L608 560C608 568.8 600.8 576 592 576C583.2 576 576 568.8 576 560L576 256zM576 224L576 219.8C576 206.6 567.9 194.8 555.6 190L325.8 100.6C322.1 99.1 317.9 99.1 314.2 100.6L84.4 190C72.1 194.7 64 206.6 64 219.8L64 224L576 224zM144 320L496 320C504.8 320 512 327.2 512 336C512 344.8 504.8 352 496 352L144 352C135.2 352 128 344.8 128 336C128 327.2 135.2 320 144 320zM128 432C128 423.2 135.2 416 144 416L496 416C504.8 416 512 423.2 512 432C512 440.8 504.8 448 496 448L144 448C135.2 448 128 440.8 128 432zM144 512L496 512C504.8 512 512 519.2 512 528C512 536.8 504.8 544 496 544L144 544C135.2 544 128 536.8 128 528C128 519.2 135.2 512 144 512z"/></svg>