<svg xmlns="http://www.w3.org/2000/svg" viewBox="0 0 640 640"><!--! Font Awesome Pro 7.1.0 by @fontawesome - https://fontawesome.com License - https://fontawesome.com/license (Commercial License) Copyright 2025 Fonticons, Inc. --><path fill="currentColor" d="M576 256L64 256L64 560C64 568.8 56.8 576 48 576C39.2 576 32 568.8 32 560L32 219.8C32 193.4 48.2 169.7 72.8 160.2L302.6 70.8C313.8 66.4 326.2 66.4 337.4 70.8L567.2 160.1C591.8 169.7 608 193.4 608 219.7L608 560C608 568.8 600.8 576 592 576C583.2 576 576 568.8 576 560L576 256zM576 224L576 219.8C576 206.6 567.9 194.8 555.6 190L325.8 100.6C322.1 99.1 317.9 99.1 314.2 100.6L84.4 190C72.1 194.7 64 206.6 64 219.8L64 224L576 224zM160 368L160 528C160 536.8 167.2 544 176 544L464 544C472.8 544 480 536.8 480 528L480 464C480 455.2 472.8 448 464 448L336 448C327.2 448 320 440.8 320 432L320 368C320 359.2 312.8 352 304 352L176 352C167.2 352 160 359.2 160 368zM176 320L304 320C330.5 320 352 341.5 352 368L352 416L464 416C490.5 416 512 437.5 512 464L512 528C512 554.5 490.5 576 464 576L176 576C149.5 576 128 554.5 128 528L128 368C128 341.5 149.5 320 176 320z"/></svg>