<svg xmlns="http://www.w3.org/2000/svg" viewBox="0 0 640 640"><!--! Font Awesome Pro 7.1.0 by @fontawesome - https://fontawesome.com License - https://fontawesome.com/license (Commercial License) Copyright 2025 Fonticons, Inc. --><path fill="currentColor" d="M160 96C142.3 96 128 110.3 128 128L128 512C128 529.7 142.3 544 160 544L480 544C497.7 544 512 529.7 512 512L512 128C512 110.3 497.7 96 480 96L160 96zM96 128C96 92.7 124.7 64 160 64L480 64C515.3 64 544 92.7 544 128L544 512C544 547.3 515.3 576 480 576L160 576C124.7 576 96 547.3 96 512L96 128zM192 136C205.3 136 216 146.7 216 160C216 173.3 205.3 184 192 184C178.7 184 168 173.3 168 160C168 146.7 178.7 136 192 136zM264 160C264 146.7 274.7 136 288 136C301.3 136 312 146.7 312 160C312 173.3 301.3 184 288 184C274.7 184 264 173.3 264 160zM421.7 415C414.7 415.7 407.4 416 400 416C358.2 416 327.1 395.2 304.3 380L302.2 378.6C277.2 361.9 260.9 352 240 352C230.2 352 219.4 353.6 208.6 356C208.2 359.9 208 363.9 208 368C208 429.9 258.1 480 320 480C365.1 480 403.9 453.4 421.7 415zM431.2 381.6C431.7 377.2 432 372.7 432 368.1C432 306.2 381.9 256.1 320 256.1C274.7 256.1 235.6 283.1 218 321.8C225.4 320.7 232.8 320.1 240 320.1C304 320.1 336 384.1 400 384.1C410.9 384.1 421.4 383.2 431.2 381.6zM176 368C176 288.5 240.5 224 320 224C399.5 224 464 288.5 464 368C464 447.5 399.5 512 320 512C240.5 512 176 447.5 176 368z"/></svg>