<svg xmlns="http://www.w3.org/2000/svg" viewBox="0 0 640 640"><!--! Font Awesome Pro 7.1.0 by @fontawesome - https://fontawesome.com License - https://fontawesome.com/license (Commercial License) Copyright 2025 Fonticons, Inc. --><path fill="currentColor" d="M251 64C242.8 64 236 70.1 235.1 78.2L229.6 128L410.5 128L405 78.2C404 70.1 397.2 64 389 64L251 64zM436.7 74.7L442.7 128.7C481.8 134 512 167.5 512 208L512 432C512 472.5 481.8 506 442.7 511.3L436.7 565.3C434 589.6 413.5 608 389 608L251 608C226.5 608 206 589.6 203.3 565.3L197.3 511.3C158.2 506 128 472.5 128 432L128 208C128 167.5 158.2 134 197.3 128.7L203.3 74.7C206 50.4 226.5 32 251 32L389 32C413.5 32 434 50.4 436.7 74.7zM414 160L208 160C181.5 160 160 181.5 160 208L160 432C160 458.5 181.5 480 208 480L432 480C458.5 480 480 458.5 480 432L480 208C480 181.5 458.5 160 432 160L414 160zM229.5 512L235 561.8C235.9 569.9 242.7 576 250.9 576L389 576C397.2 576 404 569.9 404.9 561.8L410.4 512L229.5 512zM224 288L416 288L416 224L224 224L224 288zM192 216C192 202.7 202.7 192 216 192L424 192C437.3 192 448 202.7 448 216L448 296C448 309.3 437.3 320 424 320L216 320C202.7 320 192 309.3 192 296L192 216zM192 368C192 359.2 199.2 352 208 352L240 352C248.8 352 256 359.2 256 368C256 376.8 248.8 384 240 384L208 384C199.2 384 192 376.8 192 368zM304 352L336 352C344.8 352 352 359.2 352 368C352 376.8 344.8 384 336 384L304 384C295.2 384 288 376.8 288 368C288 359.2 295.2 352 304 352zM384 368C384 359.2 391.2 352 400 352L432 352C440.8 352 448 359.2 448 368C448 376.8 440.8 384 432 384L400 384C391.2 384 384 376.8 384 368zM208 416L240 416C248.8 416 256 423.2 256 432C256 440.8 248.8 448 240 448L208 448C199.2 448 192 440.8 192 432C192 423.2 199.2 416 208 416zM288 432C288 423.2 295.2 416 304 416L336 416C344.8 416 352 423.2 352 432C352 440.8 344.8 448 336 448L304 448C295.2 448 288 440.8 288 432zM400 416L432 416C440.8 416 448 423.2 448 432C448 440.8 440.8 448 432 448L400 448C391.2 448 384 440.8 384 432C384 423.2 391.2 416 400 416z"/></svg>