<svg xmlns="http://www.w3.org/2000/svg" viewBox="0 0 640 640"><!--! Font Awesome Pro 7.1.0 by @fontawesome - https://fontawesome.com License - https://fontawesome.com/license (Commercial License) Copyright 2025 Fonticons, Inc. --><path fill="currentColor" d="M389 32L250.9 32L246.4 32.2C224 34.3 205.7 51.9 203.2 74.7L193.2 165.3C148.5 202 120 257.7 120 320C120 382.3 148.5 438 193.2 474.7L203.3 565.3L204 569.8C208.3 590.4 225.5 605.8 246.5 607.8L251 608L389.1 608C412 608 431.5 591.8 436.1 569.8L436.8 565.3L446.9 474.7C491.5 438 520 382.3 520 320C520 257.7 491.5 202 446.8 165.3L436.7 74.7C434 50.4 413.5 32 389 32zM412 142.4C384.5 128.1 353.2 120 320 120C286.8 120 255.5 128.1 227.9 142.4L235 78.2C236 70.1 242.8 64 251 64L389 64C397.1 64 404 70.1 404.9 78.2L412 142.4zM412 497.6L404.9 561.8C404 569.9 397.1 576 389 576L251 576C242.9 576 236 569.9 235.1 561.8L228 497.6C255.5 511.9 286.8 520 320 520C353.2 520 384.5 511.9 412.1 497.6zM304 240L304 320C304 324.2 305.7 328.3 308.7 331.3L356.7 379.3C362.9 385.5 373.1 385.5 379.3 379.3C385.5 373.1 385.5 362.9 379.3 356.7L336 313.4L336 240C336 231.2 328.8 224 320 224C311.2 224 304 231.2 304 240zM320 488C227.2 488 152 412.8 152 320C152 227.2 227.2 152 320 152C412.8 152 488 227.2 488 320C488 412.8 412.8 488 320 488z"/></svg>