<svg xmlns="http://www.w3.org/2000/svg" viewBox="0 0 640 640"><!--! Font Awesome Pro 7.1.0 by @fontawesome - https://fontawesome.com License - https://fontawesome.com/license (Commercial License) Copyright 2025 Fonticons, Inc. --><path fill="currentColor" d="M251 64C242.8 64 236 70.1 235.1 78.2L229.6 128L410.5 128L405 78.2C404 70.1 397.2 64 389 64L251 64zM436.7 74.7L442.7 128.7C481.8 134 512 167.5 512 208L512 432C512 472.5 481.8 506 442.7 511.3L436.7 565.3C434 589.6 413.5 608 389 608L251 608C226.5 608 206 589.6 203.3 565.3L197.3 511.3C158.2 506 128 472.5 128 432L128 208C128 167.5 158.2 134 197.3 128.7L203.3 74.7C206 50.4 226.5 32 251 32L389 32C413.5 32 434 50.4 436.7 74.7zM414 160L208 160C181.5 160 160 181.5 160 208L160 432C160 458.5 181.5 480 208 480L432 480C458.5 480 480 458.5 480 432L480 208C480 181.5 458.5 160 432 160L414 160zM229.5 512L235 561.8C235.9 569.9 242.7 576 250.9 576L389 576C397.2 576 404 569.9 404.9 561.8L410.4 512L229.5 512zM340.4 266.2L331.3 275.3C328.3 278.3 324.2 280 320 280C315.8 280 311.7 278.3 308.7 275.3L299.6 266.2C293.1 259.7 284.2 256 274.9 256L272 256C254.3 256 240 270.3 240 288C240 309.4 254.5 330.5 274.6 349C291.4 364.5 310 376 320 381.7C330 376 348.5 364.5 365.4 349C385.5 330.5 400 309.3 400 288C400 270.3 385.7 256 368 256L365.1 256C355.8 256 347 259.7 340.4 266.2zM365.1 224L368 224C403.3 224 432 252.7 432 288C432 323.3 408.9 352.5 387 372.6C364.6 393.2 340.2 407.3 331.1 412.2C324.1 416 315.8 416 308.9 412.2C299.8 407.3 275.4 393.2 253 372.6C231.2 352.5 208 323.3 208 288C208 252.7 236.7 224 272 224L274.9 224C291.6 224 307.7 230.3 320 241.5C332.3 230.3 348.4 224 365.1 224z"/></svg>