<svg xmlns="http://www.w3.org/2000/svg" viewBox="0 0 640 640"><!--! Font Awesome Pro 7.1.0 by @fontawesome - https://fontawesome.com License - https://fontawesome.com/license (Commercial License) Copyright 2025 Fonticons, Inc. --><path fill="currentColor" d="M251 64C242.8 64 236 70.1 235.1 78.2L229.6 128L410.5 128L405 78.2C404 70.1 397.2 64 389 64L251 64zM436.7 74.7L442.7 128.7C481.8 134 512 167.5 512 208L512 432C512 472.5 481.8 506 442.7 511.3L436.7 565.3C434 589.6 413.5 608 389 608L251 608C226.5 608 206 589.6 203.3 565.3L197.3 511.3C158.2 506 128 472.5 128 432L128 208C128 167.5 158.2 134 197.3 128.7L203.3 74.7C206 50.4 226.5 32 251 32L389 32C413.5 32 434 50.4 436.7 74.7zM414 160L208 160C181.5 160 160 181.5 160 208L160 432C160 458.5 181.5 480 208 480L432 480C458.5 480 480 458.5 480 432L480 208C480 181.5 458.5 160 432 160L414 160zM229.5 512L235 561.8C235.9 569.9 242.7 576 250.9 576L389 576C397.2 576 404 569.9 404.9 561.8L410.4 512L229.5 512zM336 240L336 313.4L379.3 356.7C385.5 362.9 385.5 373.1 379.3 379.3C373.1 385.5 362.9 385.5 356.7 379.3L308.7 331.3C305.7 328.3 304 324.2 304 320L304 240C304 231.2 311.2 224 320 224C328.8 224 336 231.2 336 240z"/></svg>