<svg xmlns="http://www.w3.org/2000/svg" viewBox="0 0 640 640"><!--! Font Awesome Pro 7.1.0 by @fontawesome - https://fontawesome.com License - https://fontawesome.com/license (Commercial License) Copyright 2025 Fonticons, Inc. --><path fill="currentColor" d="M468.7 68.7C474.9 62.5 485.1 62.5 491.3 68.7C545.5 122.9 576 196.5 576 273.2L576 277.2C576 442.2 442.2 576 277.2 576L273.2 576C196.5 576 123 545.5 68.7 491.3C62.5 485.1 62.5 474.9 68.7 468.7L468.7 68.7zM479.7 103L455 127.7C490.5 168.5 512 221.7 512 280C512 408.1 408.1 512 280 512C221.7 512 168.4 490.5 127.7 455L103 479.6C149.8 521 210.3 544 273.1 544L277.1 544C424.5 544 544 424.5 544 277.2L544 273.2C544 210.4 521 149.9 479.6 103zM150.3 432.3C185.2 462.1 230.5 480 280 480C390.5 480 480 390.5 480 280C480 230.5 462 185.3 432.3 150.3L150.3 432.3zM411.3 228.7L427.3 244.7C433.5 250.9 433.5 261.1 427.3 267.3C421.1 273.5 410.9 273.5 404.7 267.3L388.7 251.3C382.5 245.1 382.5 234.9 388.7 228.7C394.9 222.5 405.1 222.5 411.3 228.7zM331.3 308.7L347.3 324.7C353.5 330.9 353.5 341.1 347.3 347.3C341.1 353.5 330.9 353.5 324.7 347.3L308.7 331.3C302.5 325.1 302.5 314.9 308.7 308.7C314.9 302.5 325.1 302.5 331.3 308.7zM419.3 316.7L435.3 332.7C441.5 338.9 441.5 349.1 435.3 355.3C429.1 361.5 418.9 361.5 412.7 355.3L396.7 339.3C390.5 333.1 390.5 322.9 396.7 316.7C402.9 310.5 413.1 310.5 419.3 316.7zM251.3 388.7L267.3 404.7C273.5 410.9 273.5 421.1 267.3 427.3C261.1 433.5 250.9 433.5 244.7 427.3L228.7 411.3C222.5 405.1 222.5 394.9 228.7 388.7C234.9 382.5 245.1 382.5 251.3 388.7zM339.3 396.7L355.3 412.7C361.5 418.9 361.5 429.1 355.3 435.3C349.1 441.5 338.9 441.5 332.7 435.3L316.7 419.3C310.5 413.1 310.5 402.9 316.7 396.7C322.9 390.5 333.1 390.5 339.3 396.7z"/></svg>