<svg xmlns="http://www.w3.org/2000/svg" viewBox="0 0 640 640"><!--! Font Awesome Pro 7.1.0 by @fontawesome - https://fontawesome.com License - https://fontawesome.com/license (Commercial License) Copyright 2025 Fonticons, Inc. --><path fill="currentColor" d="M384 507.9C421.1 481.4 471.1 481.4 508.3 507.9C526.5 520.9 544.8 530.7 562.7 534.1C579.9 537.4 597.3 534.9 615.3 522.1C622.5 517 632.5 518.6 637.6 525.8C642.7 533 641 543 633.8 548.1C608.2 566.3 581.8 570.3 556.6 565.5C532.1 560.8 509.4 547.9 489.7 533.9C463.7 515.4 428.6 515.4 402.6 533.9C377 552.2 349.7 568 320.6 568C291.5 568 264.2 552.2 238.6 533.9C212.6 515.4 177.5 515.4 151.5 533.9C126.8 551.5 96.9 567.6 64.6 567.4C45.3 567.3 26 561.4 7.4 548.1C.2 543-1.5 533 3.7 525.8C8.8 518.6 18.8 517 26 522.1C39.4 531.7 52.4 535.3 64.8 535.4C86.8 535.5 109.8 524.4 133 507.9C170.1 481.4 220.1 481.4 257.3 507.9C282.6 526 302.6 536 320.8 536C339 536 359 525.9 384.3 507.9zM400.5 64C409.3 64 416.5 71.2 416.5 80C416.5 88.8 409.3 96 400.5 96L336.5 96L336.5 160L400.5 160C409.3 160 416.5 167.2 416.5 176C416.5 184.8 409.3 192 400.5 192L336.5 192L336.5 289.6C373 297 400.5 329.3 400.5 368C400.5 412.2 364.7 448 320.5 448C276.3 448 240.5 412.2 240.5 368C240.5 329.3 268 297 304.5 289.6L304.5 80C304.5 71.2 311.7 64 320.5 64L400.5 64zM192.5 368C192.5 376.2 193.3 384.2 194.8 392C179.6 392 164.4 396.7 151.4 405.9C126.7 423.5 96.8 439.6 64.5 439.4C45.2 439.3 25.9 433.4 7.3 420.1C.1 415-1.6 405 3.6 397.8C8.7 390.6 18.7 389 25.9 394.1C39.3 403.7 52.3 407.3 64.7 407.4C86.7 407.5 109.7 396.4 132.9 379.9C150.8 367.1 171.8 360.5 192.9 360.1C192.7 362.7 192.7 365.4 192.6 368zM448.2 360.1C469.3 360.5 490.2 367.1 508.2 379.9C526.4 392.9 544.7 402.7 562.6 406.1C579.8 409.4 597.2 406.9 615.2 394.1C622.4 389 632.4 390.6 637.5 397.8C642.6 405 640.9 415 633.7 420.1C608.1 438.3 581.7 442.3 556.5 437.5C532 432.8 509.3 419.9 489.6 405.9C476.6 396.7 461.4 392 446.2 392C447.7 384.2 448.5 376.2 448.5 368C448.5 365.3 448.4 362.7 448.2 360.1zM320.5 320C294 320 272.5 341.5 272.5 368C272.5 394.5 294 416 320.5 416C347 416 368.5 394.5 368.5 368C368.5 341.5 347 320 320.5 320z"/></svg>