<svg xmlns="http://www.w3.org/2000/svg" viewBox="0 0 640 640"><!--! Font Awesome Pro 7.1.0 by @fontawesome - https://fontawesome.com License - https://fontawesome.com/license (Commercial License) Copyright 2025 Fonticons, Inc. --><path fill="currentColor" d="M489.1 181.9C509.1 196.2 532.2 209.2 557.1 213.7C565.8 215.3 574.1 209.5 575.7 200.8C577.3 192.1 571.5 183.8 562.8 182.2C544.7 178.9 526.1 169 507.7 155.8C470.6 129.3 420.6 129.3 383.4 155.8C358.1 173.9 338.1 183.9 319.9 183.9C301.7 183.9 281.8 173.8 256.4 155.8C219.3 129.3 169.3 129.3 132.1 155.8C113.6 169 95.1 178.9 77 182.2C68.3 183.8 62.5 192.1 64.1 200.8C65.7 209.5 74 215.3 82.7 213.7C107.6 209.2 130.7 196.2 150.7 181.9C141.5 169.1 141.5 169.1 150.7 181.9C176.7 163.3 211.8 163.3 237.8 181.9C263.4 200.2 290.7 216 319.8 216C348.9 216 376.2 200.2 401.8 181.9C427.8 163.3 462.9 163.3 488.9 181.9zM489.1 325.9C509.1 340.2 532.2 353.2 557.1 357.7C565.8 359.3 574.1 353.5 575.7 344.8C577.3 336.1 571.5 327.8 562.8 326.2C544.7 322.9 526.1 313 507.7 299.8C470.6 273.3 420.6 273.3 383.4 299.8C358.1 317.9 338.1 327.9 319.9 327.9C301.7 327.9 281.8 317.8 256.4 299.8C219.3 273.3 169.3 273.3 132.1 299.8C113.6 313 95.1 322.9 77 326.2C68.3 327.8 62.5 336.1 64.1 344.8C65.7 353.5 74 359.3 82.7 357.7C107.6 353.2 130.7 340.2 150.7 325.9C176.7 307.3 211.8 307.3 237.8 325.9C263.4 344.2 290.7 360 319.8 360C348.9 360 376.2 344.2 401.8 325.9C427.8 307.3 462.9 307.3 488.9 325.9zM402 469.9C428 451.3 463.1 451.3 489.1 469.9C509.1 484.2 532.2 497.2 557.1 501.7C565.8 503.3 574.1 497.5 575.7 488.8C577.3 480.1 571.5 471.8 562.8 470.2C544.7 466.9 526.1 457 507.7 443.8C470.6 417.3 420.6 417.3 383.4 443.8C358.1 461.9 338.1 471.9 319.9 471.9C301.7 471.9 281.8 461.8 256.4 443.8C219.3 417.3 169.3 417.3 132.1 443.8C113.6 457 95.1 466.9 77 470.2C68.3 471.8 62.5 480.1 64.1 488.8C65.7 497.5 74 503.3 82.7 501.7C107.6 497.2 130.7 484.2 150.7 469.9C176.7 451.3 211.8 451.3 237.8 469.9C263.4 488.2 290.7 504 319.8 504C348.9 504 376.2 488.2 401.8 469.9z"/></svg>