<svg xmlns="http://www.w3.org/2000/svg" viewBox="0 0 640 640"><!--! Font Awesome Pro 7.1.0 by @fontawesome - https://fontawesome.com License - https://fontawesome.com/license (Commercial License) Copyright 2025 Fonticons, Inc. --><path fill="currentColor" d="M336 80C336 71.2 328.8 64 320 64C311.2 64 304 71.2 304 80L304 249.4L251.3 196.7C245.1 190.5 234.9 190.5 228.7 196.7C222.5 202.9 222.5 213.1 228.7 219.3L308.7 299.3C314.9 305.5 325.1 305.5 331.3 299.3L411.3 219.3C417.5 213.1 417.5 202.9 411.3 196.7C405.1 190.5 394.9 190.5 388.7 196.7L336 249.4L336 80zM489.1 405.9C509.1 420.2 532.2 433.2 557.1 437.7C565.8 439.3 574.1 433.5 575.7 424.8C577.3 416.1 571.5 407.8 562.8 406.2C544.7 402.9 526.1 393 507.7 379.8C470.6 353.3 420.6 353.3 383.4 379.8C358.1 397.9 338.1 407.9 319.9 407.9C301.7 407.9 281.8 397.8 256.4 379.8C219.3 353.3 169.3 353.3 132.1 379.8C113.6 393 95.1 402.9 77 406.2C68.3 407.8 62.5 416.1 64.1 424.8C65.7 433.5 74 439.3 82.7 437.7C107.6 433.2 130.7 420.2 150.7 405.9C176.7 387.3 211.8 387.3 237.8 405.9C263.4 424.2 290.7 440 319.8 440C348.9 440 376.2 424.2 401.8 405.9C427.8 387.3 462.9 387.3 488.9 405.9zM489.1 533.9C509.1 548.2 532.2 561.2 557.1 565.7C565.8 567.3 574.1 561.5 575.7 552.8C577.3 544.1 571.5 535.8 562.8 534.2C544.7 530.9 526.1 521 507.7 507.8C470.6 481.3 420.6 481.3 383.4 507.8C358.1 525.9 338.1 535.9 319.9 535.9C301.7 535.9 281.8 525.8 256.4 507.8C219.3 481.3 169.3 481.3 132.1 507.8C113.6 521 95.1 530.9 77 534.2C68.3 535.8 62.5 544.1 64.1 552.8C65.7 561.5 74 567.3 82.7 565.7C107.6 561.2 130.7 548.2 150.7 533.9C176.7 515.3 211.8 515.3 237.8 533.9C263.4 552.2 290.7 568 319.8 568C348.9 568 376.2 552.2 401.8 533.9C427.8 515.3 462.9 515.3 488.9 533.9z"/></svg>