<svg xmlns="http://www.w3.org/2000/svg" viewBox="0 0 640 640"><!--! Font Awesome Pro 7.1.0 by @fontawesome - https://fontawesome.com License - https://fontawesome.com/license (Commercial License) Copyright 2025 Fonticons, Inc. --><path fill="currentColor" d="M192 160L192 328C192 341.3 181.3 352 168 352L80 352C71.2 352 64 344.8 64 336C64 327.2 71.2 320 80 320L160 320L160 152C160 138.7 170.7 128 184 128L312 128C325.3 128 336 138.7 336 152L336 480L448 480L448 312C448 298.7 458.7 288 472 288L560 288C568.8 288 576 295.2 576 304C576 312.8 568.8 320 560 320L480 320L480 488C480 501.3 469.3 512 456 512L328 512C314.7 512 304 501.3 304 488L304 160L192 160z"/></svg>