<svg xmlns="http://www.w3.org/2000/svg" viewBox="0 0 640 640"><!--! Font Awesome Pro 7.1.0 by @fontawesome - https://fontawesome.com License - https://fontawesome.com/license (Commercial License) Copyright 2025 Fonticons, Inc. --><path fill="currentColor" d="M208.5 128C213.8 128.2 218.7 130.9 221.5 135.4L432.9 467.6L547.1 310.6C552.3 303.5 562.3 301.9 569.5 307.1C576.7 312.3 578.2 322.3 573 329.5L445 505.5C441.9 509.8 436.9 512.2 431.6 512.1C426.3 512 421.4 509.2 418.6 504.7L207.1 172.4L92.9 329.4C87.7 336.5 77.7 338.1 70.5 332.9C63.3 327.7 61.8 317.7 67 310.5L195 134.5C198.1 130.2 203.1 127.8 208.4 127.9z"/></svg>