<svg xmlns="http://www.w3.org/2000/svg" viewBox="0 0 640 640"><!--! Font Awesome Pro 7.1.0 by @fontawesome - https://fontawesome.com License - https://fontawesome.com/license (Commercial License) Copyright 2025 Fonticons, Inc. --><path fill="currentColor" d="M70.9 203.8C89.2 158 133.5 128 182.8 128C233.5 128 278.8 159.7 296.1 207.3L374.1 421.7C386.8 456.7 420.1 480 457.3 480C493.5 480 526.1 458 539.5 424.3L577.2 330C580.5 321.8 589.8 317.8 598 321.1C606.2 324.4 610.2 333.7 606.9 341.9L569.2 436.2C550.9 482 506.6 512 457.3 512C406.6 512 361.3 480.3 344 432.7L266 218.3C253.3 183.3 220 160 182.8 160C146.6 160 114 182 100.6 215.7L62.9 309.9C59.6 318.1 50.3 322.1 42.1 318.8C33.9 315.5 29.9 306.2 33.2 298L70.9 203.7z"/></svg>