<svg xmlns="http://www.w3.org/2000/svg" viewBox="0 0 640 640"><!--! Font Awesome Pro 7.1.0 by @fontawesome - https://fontawesome.com License - https://fontawesome.com/license (Commercial License) Copyright 2025 Fonticons, Inc. --><path fill="currentColor" d="M32 496C32 504.8 39.2 512 48 512C93.2 512 133.9 484.7 151 442.8L158 425.6L140.7 383.3L121.3 430.6C109.2 460.5 80.2 480 48 480C39.2 480 32 487.2 32 496zM184 277.7L151 197.1C133.9 155.3 93.2 128 48 128C39.2 128 32 135.2 32 144C32 152.8 39.2 160 48 160C80.2 160 109.2 179.5 121.4 209.3L217 442.8C234.1 484.6 274.8 512 320 512C365.2 512 405.9 484.7 423 442.8L430 425.6L412.7 383.3L393.3 430.6C381.2 460.5 352.2 480 320 480C287.8 480 258.8 460.5 246.6 430.7L201.3 320L246.6 209.3C258.8 179.5 287.8 160 320 160C352.2 160 381.2 179.5 393.4 209.3L489 442.8C506.1 484.6 546.8 512 592 512C600.8 512 608 504.8 608 496C608 487.2 600.8 480 592 480C559.8 480 530.8 460.5 518.6 430.7L473.3 320L518.6 209.3C530.8 179.5 559.8 160 592 160C600.8 160 608 152.8 608 144C608 135.2 600.8 128 592 128C546.8 128 506.1 155.3 489 197.2L456 277.8L423 197.2C405.9 155.3 365.2 128 320 128C274.8 128 234.1 155.3 217 197.2L184 277.8z"/></svg>