<svg xmlns="http://www.w3.org/2000/svg" viewBox="0 0 640 640"><!--! Font Awesome Pro 7.1.0 by @fontawesome - https://fontawesome.com License - https://fontawesome.com/license (Commercial License) Copyright 2025 Fonticons, Inc. --><path fill="currentColor" d="M320 64C327.8 64 334.5 69.7 335.8 77.4L399.4 458.9L448.2 141.6C449.4 134 455.8 128.3 463.5 128C471.2 127.7 478 133.1 479.6 140.6L524.9 352L576 352C584.8 352 592 359.2 592 368C592 376.8 584.8 384 576 384L512 384C504.5 384 497.9 378.7 496.4 371.4L466.6 232.5L415.8 562.5C414.6 570.3 407.9 576 400.1 576.1C392.3 576.2 385.5 570.5 384.2 562.7L320 177.3L255.8 562.6C254.5 570.4 247.8 576 239.9 576C232 576 225.4 570.2 224.2 562.4L173.4 232.4L143.6 371.3C142 378.7 135.5 383.9 128 383.9L64 383.9C55.2 383.9 48 376.7 48 367.9C48 359.1 55.2 351.9 64 351.9L115.1 351.9L160.4 140.5C162 133 168.8 127.6 176.5 127.9C184.2 128.2 190.7 133.8 191.8 141.5L240.6 458.8L304.2 77.3C305.5 69.7 312.2 64 320 64z"/></svg>