<svg xmlns="http://www.w3.org/2000/svg" viewBox="0 0 640 640"><!--! Font Awesome Pro 7.1.0 by @fontawesome - https://fontawesome.com License - https://fontawesome.com/license (Commercial License) Copyright 2025 Fonticons, Inc. --><path fill="currentColor" d="M176 288C176 199.6 247.6 128 336 128C372 128 405.3 139.9 432 160L432 160C361.3 160 304 217.3 304 288C304 339.6 350.9 378.4 401.6 368.7L439.6 361.4C444.9 360.4 449.1 360 452.9 360.3C465.7 361.5 478.3 366.1 489.2 373.9C509.2 388.2 532.3 401.2 557.2 405.7C565.9 407.3 574.2 401.5 575.8 392.8C577.4 384.1 571.6 375.8 562.9 374.2C544.8 370.9 526.2 361 507.8 347.8C492.2 336.6 474.2 330.2 456 328.4C447.8 327.6 440.1 328.6 433.6 329.9L395.6 337.2C364.7 343.1 336 319.4 336 288C336 235 379 192 432 192C446.8 192 460.7 195.3 473.1 201.2C479.7 204.3 487.5 202.6 492.2 197.1C496.9 191.6 497.2 183.5 493 177.6C458.4 128.3 401 96 336 96C230 96 144 182 144 288L144 293.5C144 326.9 123.3 356.7 92.1 368.4L74.4 375C66.1 378.1 61.9 387.3 65 395.6C68.1 403.9 77.3 408.1 85.6 405L103.3 398.4C147 381.9 176 340.2 176 293.5L176 288zM402 501.9C428 483.3 463.1 483.3 489.1 501.9C509.1 516.2 532.2 529.2 557.1 533.7C565.8 535.3 574.1 529.5 575.7 520.8C577.3 512.1 571.5 503.8 562.8 502.2C544.7 498.9 526.1 489 507.7 475.8C470.6 449.3 420.6 449.3 383.4 475.8C358.1 493.9 338.1 503.9 319.9 503.9C301.7 503.9 281.8 493.8 256.4 475.8C219.3 449.3 169.3 449.3 132.1 475.8C113.6 489 95.1 498.9 77 502.2C68.3 503.8 62.5 512.1 64.1 520.8C65.7 529.5 74 535.3 82.7 533.7C107.6 529.2 130.7 516.2 150.7 501.9C176.7 483.3 211.8 483.3 237.8 501.9C263.4 520.2 290.7 536 319.8 536C348.9 536 376.2 520.2 401.8 501.9z"/></svg>