<svg xmlns="http://www.w3.org/2000/svg" viewBox="0 0 640 640"><!--! Font Awesome Pro 7.1.0 by @fontawesome - https://fontawesome.com License - https://fontawesome.com/license (Commercial License) Copyright 2025 Fonticons, Inc. --><path fill="currentColor" d="M272 64C280.8 64 288 71.2 288 80L288 528C288 536.8 280.8 544 272 544C263.2 544 256 536.8 256 528L256 80C256 71.2 263.2 64 272 64zM464 128C472.8 128 480 135.2 480 144L480 464C480 472.8 472.8 480 464 480C455.2 480 448 472.8 448 464L448 144C448 135.2 455.2 128 464 128zM176 160C184.8 160 192 167.2 192 176L192 432C192 440.8 184.8 448 176 448C167.2 448 160 440.8 160 432L160 176C160 167.2 167.2 160 176 160zM368 192C376.8 192 384 199.2 384 208L384 400C384 408.8 376.8 416 368 416C359.2 416 352 408.8 352 400L352 208C352 199.2 359.2 192 368 192zM80 256C88.8 256 96 263.2 96 272L96 336C96 344.8 88.8 352 80 352C71.2 352 64 344.8 64 336L64 272C64 263.2 71.2 256 80 256zM560 256C568.8 256 576 263.2 576 272L576 336C576 344.8 568.8 352 560 352C551.2 352 544 344.8 544 336L544 272C544 263.2 551.2 256 560 256z"/></svg>