<svg xmlns="http://www.w3.org/2000/svg" viewBox="0 0 640 640"><!--! Font Awesome Pro 7.1.0 by @fontawesome - https://fontawesome.com License - https://fontawesome.com/license (Commercial License) Copyright 2025 Fonticons, Inc. --><path fill="currentColor" d="M300.2 116C300.2 105 309.2 96 320.2 96C331.2 96 340.2 105 340.2 116C340.2 127 331.2 136 320.2 136C309.2 136 300.2 127 300.2 116zM342 163.2C359.8 155 372.2 136.9 372.2 116C372.2 87.3 348.9 64 320.2 64C291.5 64 268.2 87.3 268.2 116C268.2 136.8 280.5 154.8 298.2 163.1L192 256L87.6 235.1C92.9 227.4 96 218 96 208C96 181.5 74.5 160 48 160C21.5 160 0 181.5 0 208C0 234 20.6 255.1 46.4 256L48.1 259.9L159 506.3C169.3 529.3 192.2 544 217.4 544L422.6 544C447.8 544 470.6 529.2 481 506.3L591.9 259.9L593.7 256C619.5 255.1 640.1 234 640.1 208C640.1 181.5 618.6 160 592.1 160C565.6 160 544.1 181.5 544.1 208C544.1 218.1 547.2 227.4 552.5 235.1L448 256L342 163.2zM454.3 287.4L553.3 267.6L451.8 493.2C446.6 504.7 435.2 512.1 422.6 512.1L217.4 512.1C204.8 512.1 193.4 504.7 188.2 493.2L86.7 267.6L185.7 287.4C195.5 289.4 205.6 286.7 213 280.1L320 186.5L426.9 280.1C434.4 286.7 444.5 289.3 454.2 287.4zM592 192C600.8 192 608 199.2 608 208C608 216.8 600.8 224 592 224C583.2 224 576 216.8 576 208C576 199.2 583.2 192 592 192zM32 208C32 199.2 39.2 192 48 192C56.8 192 64 199.2 64 208C64 216.8 56.8 224 48 224C39.2 224 32 216.8 32 208z"/></svg>