<svg xmlns="http://www.w3.org/2000/svg" viewBox="0 0 640 640"><!--! Font Awesome Pro 7.1.0 by @fontawesome - https://fontawesome.com License - https://fontawesome.com/license (Commercial License) Copyright 2025 Fonticons, Inc. --><path fill="currentColor" d="M344.9 99.3C293.7 85.6 241 116 227.3 167.2C216.3 208.1 233.5 250 267.1 272.2C277.2 278.9 281.8 292.7 275.1 304.5L212.1 416.4C219.5 424.8 224 435.9 224 448C224 474.5 202.5 496 176 496C149.5 496 128 474.5 128 448C128 421.5 149.5 400 176 400C178.8 400 181.6 400.2 184.2 400.7L243.7 294.9C202.7 264.5 182.3 211.2 196.3 158.9C214.6 90.6 284.8 50.1 353.1 68.4C421.4 86.7 462 156.8 443.7 225.1C441.4 233.6 432.6 238.7 424.1 236.4C415.6 234.1 410.5 225.3 412.8 216.8C426.5 165.6 396.1 113 344.9 99.3zM304 192C304 200.8 311.2 208 320 208C328.8 208 336 200.8 336 192C336 183.2 328.8 176 320 176C311.2 176 304 183.2 304 192zM320 144C346.5 144 368 165.5 368 192C368 204.1 363.5 215.2 356.1 223.6L415.6 329.4C461.8 310.6 516.9 319.9 554.4 357.4C604.4 407.4 604.4 488.4 554.4 538.4C512.9 579.9 449.9 586.9 401.1 559.5C393.4 555.2 390.7 545.4 395 537.7C399.3 530 409.1 527.3 416.8 531.6C453.4 552.2 500.6 546.9 531.8 515.8C569.3 478.3 569.3 417.5 531.8 380C502.4 350.6 458.6 344.2 422.9 361C412 366.2 397.7 362.9 391.1 351.1L328.1 239.2C325.4 239.7 322.7 239.9 319.9 239.9C293.4 239.9 271.9 218.4 271.9 191.9C271.9 165.4 293.4 143.9 319.9 143.9zM160 448C160 456.8 167.2 464 176 464C184.8 464 192 456.8 192 448C192 439.2 184.8 432 176 432C167.2 432 160 439.2 160 448zM464 432C455.2 432 448 439.2 448 448C448 456.8 455.2 464 464 464C472.8 464 480 456.8 480 448C480 439.2 472.8 432 464 432zM418.7 432C425.3 413.4 443.1 400 464 400C490.5 400 512 421.5 512 448C512 474.5 490.5 496 464 496C443.1 496 425.3 482.6 418.7 464L303 464C296.7 513.6 261.5 557.1 210.2 571.3C142.1 590.2 71.5 550.3 52.6 482.2C33.7 414.1 73.6 343.5 141.7 324.6C150.2 322.2 159 327.2 161.4 335.7C163.8 344.2 158.8 353 150.3 355.4C99.2 369.6 69.3 422.5 83.5 473.6C97.7 524.7 150.6 554.6 201.7 540.4C241.9 529.2 269 494.1 271.8 454.8C272.7 442.8 282.5 431.9 296 431.9L418.7 431.9z"/></svg>