<svg xmlns="http://www.w3.org/2000/svg" viewBox="0 0 640 640"><!--! Font Awesome Pro 7.1.0 by @fontawesome - https://fontawesome.com License - https://fontawesome.com/license (Commercial License) Copyright 2025 Fonticons, Inc. --><path fill="currentColor" d="M320 64C364.2 64 400 99.8 400 144C400 162 393.9 178.6 383.9 192L432.4 192L437.7 192.2C463.8 194.3 486.1 212.2 493.8 237.6L573.8 504.1C575.4 509.3 576.1 514.7 576.1 520.1L575.8 525.8C573.1 552.1 552.2 572.9 526 575.6L520.3 575.9L119.9 575.9L114.2 575.6C87.8 573 67 552.2 64.3 525.9L64 520.2C64 516.1 64.4 512.1 65.3 508.1L66.3 504.2L146.3 237.7C153.9 212.3 176.3 194.4 202.4 192.3L207.6 192.1L256.1 192.1C246 178.7 240 162.1 240 144.1C240 99.9 275.8 64.1 320 64.1zM207.6 224C195.2 224 184.1 231.1 178.8 241.9L176.9 246.8L96.9 513.3C96.2 515.5 95.9 517.8 95.9 520.1C95.9 533.2 106.6 543.9 119.7 543.9L520.1 543.9C533.2 543.9 543.9 533.2 543.9 520.1C543.9 518.9 543.8 517.8 543.7 516.6L543 513.2L463 246.7C459.4 234.9 449.5 226.3 437.6 224.3L432.4 223.9L207.7 223.9zM320 96C293.5 96 272 117.5 272 144C272 170.5 293.5 192 320 192C346.5 192 368 170.5 368 144C368 117.5 346.5 96 320 96z"/></svg>