<svg xmlns="http://www.w3.org/2000/svg" viewBox="0 0 640 640"><!--! Font Awesome Pro 7.1.0 by @fontawesome - https://fontawesome.com License - https://fontawesome.com/license (Commercial License) Copyright 2025 Fonticons, Inc. --><path fill="currentColor" d="M164.9 64.8C170.6 66.6 174.8 71.5 175.8 77.4L189.9 162.1L274.6 176.2C280.5 177.2 285.4 181.4 287.2 187.1C289 192.8 287.5 199.1 283.3 203.3L242.6 244C224.3 262.3 198.4 270.6 172.9 266.3L111 256L70.8 314.4C61.6 327.7 60.4 345 67.7 359.4C75.2 374.5 90.6 384 107.4 384L110.6 384C121.9 384 132.8 380.2 141.6 373.1L270.9 269.7C333.8 219.4 411.8 192 492.3 192C573.9 192 640 258.1 640 339.7L640 448C640 501 597 544 544 544L162.4 544C72.7 544 0 471.3 0 381.6C0 342.2 15.7 304.3 43.6 276.4L90.1 229.9L93.5 226.5L85.6 179.1C81.4 153.6 89.7 127.7 108 109.4L148.7 68.7C152.9 64.5 159.2 62.9 164.9 64.8zM149.3 113.3L130.6 132C119.6 143 114.6 158.5 117.2 173.8L125.9 226L178.1 234.7C193.4 237.2 209 232.3 219.9 221.3L238.6 202.6L173.3 191.7C166.6 190.6 161.3 185.3 160.1 178.5L149.3 113.3zM368 360C368 346.7 378.7 336 392 336C405.3 336 416 346.7 416 360C416 373.3 405.3 384 392 384C378.7 384 368 373.3 368 360zM33.9 360.5C32.6 367.4 32 374.5 32 381.7C32 453.7 90.4 512.1 162.4 512.1L544 512C579.3 512 608 483.3 608 448L608 339.7C608 275.8 556.2 224 492.3 224C419.1 224 348.1 248.9 290.9 294.7L161.6 398.1C147.1 409.7 129.2 416 110.7 416L107.5 416C78.6 416 52.1 399.6 39.1 373.8C36.9 369.5 35.2 365 33.9 360.5z"/></svg>