<svg xmlns="http://www.w3.org/2000/svg" viewBox="0 0 640 640"><!--! Font Awesome Pro 7.1.0 by @fontawesome - https://fontawesome.com License - https://fontawesome.com/license (Commercial License) Copyright 2025 Fonticons, Inc. --><path fill="currentColor" d="M75.8 587.3C69.6 593.5 59.5 593.5 53.2 587.3C47 581.1 47 570.9 53.2 564.7L75.8 587.3zM120.5 296C124.7 296 128.8 297.7 131.8 300.7L177.9 346.8C202.2 371.1 210.9 405.7 203.2 437.3C234.9 429.6 269.4 438.3 293.8 462.6L339.9 508.7C342.9 511.7 344.6 515.8 344.6 520C344.6 524.2 342.9 528.3 339.9 531.3L332.5 538.7C295 576.2 234.2 576.2 196.7 538.7L160.5 502.5L75.8 587.2C68.3 579.7 60.8 572.1 53.2 564.6L137.9 479.9L101.8 443.8C64.3 406.3 64.3 345.5 101.8 308.1L109.2 300.7L111.6 298.7C114.2 297 117.3 296 120.5 296zM271.1 485.3C248.3 462.5 212 460.2 186.5 480L184.6 481.5L219.2 516.1C242.9 539.8 280.5 541 305.6 519.8L271.1 485.3zM224.5 192C228.7 192 232.8 193.7 235.8 196.7L281.9 242.8C306.2 267.1 314.9 301.7 307.2 333.3C338.9 325.6 373.4 334.3 397.8 358.6L443.9 404.7C446.9 407.7 448.6 411.8 448.6 416C448.6 420.2 446.9 424.3 443.9 427.3L436.5 434.7C399 472.2 338.2 472.2 300.7 434.7L205.8 339.8C168.3 302.3 168.3 241.5 205.8 204.1L213.2 196.7L215.6 194.7C218.2 193 221.3 192 224.5 192zM120.7 334.8C99.5 359.9 100.7 397.6 124.4 421.2L159 455.8L160.5 453.9L164 449C180 423.9 176.7 390.7 155.3 369.3L120.7 334.8zM375.1 381.2C352.3 358.4 316 356.1 290.5 375.9L288.6 377.4L323.2 412C346.9 435.7 384.5 436.9 409.6 415.7L375.1 381.2zM532.8 84.7C539 78.5 549.2 78.5 555.5 84.7C561.7 90.9 561.7 101.1 555.5 107.3L436.2 226.6C450.3 226.9 464.3 230.3 477.1 236.8L533.2 180.7C539.4 174.5 549.6 174.5 555.8 180.7C562 186.9 562 197.1 555.8 203.3L503.1 256L547.8 300.7C550.8 303.7 552.5 307.8 552.5 312C552.5 316.2 550.8 320.3 547.8 323.3L540.4 330.7C502.9 368.2 442.1 368.2 404.6 330.7L309.7 235.8C272.2 198.3 272.2 137.5 309.7 100L317.1 92.6L319.5 90.6C322.1 88.9 325.2 87.9 328.4 87.9C332.6 87.9 336.7 89.6 339.7 92.6L384.4 137.3L437.1 84.6C443.3 78.4 453.5 78.4 459.7 84.6C465.2 90.1 465.9 98.5 461.8 104.7L459.7 107.2L403.6 163.3C409.9 175.9 413.4 189.7 413.8 203.6L532.8 84.6zM224.7 230.8C203.5 255.9 204.7 293.6 228.4 317.2L263 351.8L264.5 349.9L268 345C284 319.9 280.7 286.7 259.3 265.3L224.7 230.7zM479.1 277.2C456.3 254.4 420 252.1 394.5 272L392.6 273.5L427.2 308.1C450.9 331.8 488.5 333 513.6 311.8L479.1 277.3zM328.7 126.8C307.5 151.9 308.7 189.6 332.4 213.2L367 247.8L368.5 245.9L372 241C388 215.9 384.7 182.7 363.3 161.3L328.7 126.8z"/></svg>