<svg xmlns="http://www.w3.org/2000/svg" viewBox="0 0 640 640"><!--! Font Awesome Pro 7.1.0 by @fontawesome - https://fontawesome.com License - https://fontawesome.com/license (Commercial License) Copyright 2025 Fonticons, Inc. --><path fill="currentColor" d="M36.7 36.8C42.2 31.3 50.6 30.6 56.8 34.7L59.3 36.8L603.3 580.8L605.4 583.3C609.5 589.5 608.8 598 603.3 603.4C597.8 608.8 589.4 609.6 583.2 605.5L580.7 603.4L36.7 59.4L34.6 56.9C30.5 50.7 31.2 42.2 36.7 36.8zM75.3 587.3C69.1 593.5 59 593.5 52.7 587.3C46.5 581.1 46.5 570.9 52.7 564.7L75.3 587.3zM120 296C124.2 296 128.3 297.7 131.3 300.7L177.4 346.8C201.7 371.1 210.4 405.7 202.7 437.3C234.4 429.6 268.9 438.3 293.3 462.6L339.4 508.7C342.4 511.7 344.1 515.8 344.1 520C344.1 524.2 342.4 528.3 339.4 531.3L332 538.7C294.5 576.2 233.7 576.2 196.3 538.7L160 502.6L75.3 587.3C67.8 579.8 60.3 572.2 52.7 564.7L137.4 480L101.3 443.9C63.8 406.4 63.8 345.6 101.3 308.1L108.7 300.7L111.1 298.7C113.7 297 116.8 296 120 296zM270.6 485.3C247.8 462.5 211.5 460.3 186 480.1L184.1 481.6L218.7 516.2C242.4 539.9 280 541 305.1 519.9L270.6 485.4zM372.1 462.7C346.2 463.8 319.9 454.6 300.1 434.8L205.2 339.9C185.4 320.1 176.2 293.8 177.3 267.8L372.2 462.6zM120.2 334.8C99 359.9 100.2 397.6 123.9 421.2L158.5 455.8L160 453.9L163.5 449C179.5 423.9 176.2 390.7 154.8 369.3L120.2 334.8zM436.7 84.7C442.9 78.5 453.1 78.4 459.3 84.7C464.8 90.2 465.5 98.6 461.4 104.9L459.3 107.4L403.2 163.5C409.5 176.1 412.9 189.9 413.3 203.8L532.4 84.7C538.6 78.5 548.8 78.5 555 84.7C561.2 90.9 561.2 101.1 555 107.3L435.7 226.6C449.8 226.9 463.7 230.4 476.5 236.8L532.6 180.7C538.8 174.5 549 174.4 555.2 180.7C561.4 186.9 561.4 197.1 555.2 203.4L502.5 256.1L547.2 300.8C550.2 303.8 551.9 307.9 551.9 312.1C551.9 316.3 550.2 320.4 547.2 323.4L539.8 330.8C502.3 368.3 441.5 368.3 404.1 330.8L309.2 235.9C271.7 198.4 271.7 137.6 309.2 100.2L316.6 92.8L319 90.8C321.6 89.1 324.7 88.1 327.9 88.1C332.1 88.1 336.2 89.8 339.2 92.8L384 137.4L436.7 84.7zM478.6 277.3C455.8 254.5 419.5 252.2 394 272.1L392.1 273.6L426.7 308.2C450.4 331.9 488 333 513.1 311.9L478.6 277.4zM328.2 126.8C307 151.9 308.2 189.6 331.9 213.2L366.5 247.8L368 245.9L371.5 241C387.5 215.9 384.2 182.7 362.8 161.3L328.2 126.8z"/></svg>