<svg xmlns="http://www.w3.org/2000/svg" viewBox="0 0 640 640"><!--! Font Awesome Pro 7.1.0 by @fontawesome - https://fontawesome.com License - https://fontawesome.com/license (Commercial License) Copyright 2025 Fonticons, Inc. --><path fill="currentColor" d="M36.7 36.8C42.2 31.3 50.6 30.6 56.8 34.7L59.3 36.8L603.3 580.8L605.4 583.3C609.5 589.5 608.8 598 603.3 603.4C597.8 608.8 589.4 609.6 583.2 605.5L580.7 603.4L36.7 59.4L34.6 56.9C30.5 50.7 31.2 42.2 36.7 36.8zM75.3 587.3C69.1 593.5 59 593.5 52.7 587.3C46.5 581.1 46.5 570.9 52.7 564.7L75.3 587.3zM120 296C124.2 296 128.3 297.7 131.3 300.7L177.4 346.8C201.7 371.1 210.4 405.7 202.7 437.3C234.4 429.6 268.9 438.3 293.3 462.6L339.4 508.7C342.4 511.7 344.1 515.8 344.1 520C344.1 524.2 342.4 528.3 339.4 531.3L332 538.7C294.5 576.2 233.7 576.2 196.2 538.7L160 502.6L75.3 587.3C67.8 579.8 60.3 572.2 52.7 564.7L137.4 480L101.3 443.9C63.8 406.4 63.8 345.6 101.3 308.1L108.7 300.7L111.1 298.7C113.7 297 116.8 296 120 296zM270.7 485.3C247.9 462.5 211.6 460.3 186.1 480.1L184.2 481.6L218.8 516.2C242.5 539.9 280.1 541.1 305.2 519.9L270.7 485.4zM372.2 462.7C346.3 463.8 320 454.6 300.2 434.8L205.3 339.9C185.5 320.1 176.2 293.8 177.4 267.9L372.1 462.6zM120.2 334.8C99 359.9 100.2 397.6 123.9 421.2L158.5 455.8L160 453.9L163.5 449C179.5 424 176.2 390.7 154.8 369.3L120.2 334.8zM328 88C332.2 88 336.3 89.7 339.3 92.7L385.4 138.8C409.7 163.1 418.4 197.7 410.7 229.3C442.4 221.6 476.9 230.3 501.3 254.6L547.4 300.7C550.4 303.7 552.1 307.8 552.1 312C552.1 316.2 550.4 320.3 547.4 323.3L540 330.7C502.5 368.2 441.7 368.2 404.2 330.7L309.3 235.8C271.8 198.3 271.8 137.5 309.3 100.1L316.7 92.7L319.1 90.7C321.7 89 324.8 88 328 88zM478.7 277.3C455.9 254.5 419.6 252.2 394.1 272.1L392.2 273.6L426.8 308.2C450.5 331.9 488.1 333.1 513.2 311.9L478.7 277.4zM328.2 126.8C307 151.9 308.2 189.6 331.9 213.2L366.5 247.8L368 245.9L371.5 241C387.5 215.9 384.2 182.7 362.8 161.3L328.2 126.8zM579.2 48.3C582.3 48.9 585.1 50.4 587.4 52.7C590.4 55.7 592.1 59.8 592.1 64L592.1 99L592 103.8C589.6 151.3 551.4 189.5 503.9 191.9L499.1 192L464.1 192C459.9 192 455.8 190.3 452.8 187.3C449.8 184.3 448 180.2 448 176L448 141C448 89.6 489.6 48 541 48L576 48L579.1 48.3zM541 80C507.3 80 480 107.3 480 141L480 160L499 160L505.2 159.7C533.9 156.8 556.7 133.9 559.6 105.3L559.9 99.1L559.9 80.1L540.9 80.1z"/></svg>