<svg xmlns="http://www.w3.org/2000/svg" viewBox="0 0 640 640"><!--! Font Awesome Pro 7.1.0 by @fontawesome - https://fontawesome.com License - https://fontawesome.com/license (Commercial License) Copyright 2025 Fonticons, Inc. --><path fill="currentColor" d="M75.3 587.3C69.1 593.5 59 593.5 52.7 587.3C46.4 581.1 46.5 570.9 52.7 564.7L75.3 587.3zM120 296C124.2 296 128.3 297.7 131.3 300.7L177.4 346.8C201.7 371.2 210.4 405.7 202.7 437.3C234.4 429.6 268.9 438.3 293.3 462.6L339.4 508.7C342.4 511.7 344.1 515.8 344.1 520C344.1 524.2 342.4 528.3 339.4 531.3L332 538.7C294.5 576.2 233.7 576.2 196.3 538.7L160 502.6L75.3 587.3C67.8 579.8 60.3 572.2 52.7 564.7L137.4 480L101.3 443.9C63.8 406.4 63.8 345.6 101.3 308.1L108.7 300.7L111.1 298.7C113.7 297 116.8 296 120 296zM270.6 485.3C247.8 462.5 211.5 460.2 186 480L184.1 481.5L218.7 516.1C242.4 539.8 280 541 305.1 519.8L270.6 485.3zM224 192C228.2 192 232.3 193.7 235.3 196.7L281.4 242.8C305.7 267.2 314.4 301.7 306.7 333.3C338.4 325.6 372.9 334.3 397.3 358.6L443.4 404.7C446.4 407.7 448.1 411.8 448.1 416C448.1 420.2 446.4 424.3 443.4 427.3L436 434.7C398.5 472.2 337.7 472.2 300.3 434.7L205.4 339.8C167.9 302.3 167.9 241.5 205.4 204L212.8 196.6L215.2 194.6C217.8 192.9 220.9 191.9 224.1 191.9zM120.2 334.8C99 359.9 100.2 397.6 123.9 421.2L158.5 455.8L160 453.9L163.5 449C179.5 423.9 176.2 390.7 154.8 369.3L120.2 334.8zM374.6 381.2C351.8 358.4 315.5 356.1 290 375.9L288.1 377.4L322.7 412C346.4 435.7 384 436.9 409.1 415.7L374.6 381.2zM328 88C332.2 88 336.3 89.7 339.3 92.7L385.4 138.8C409.7 163.2 418.4 197.7 410.7 229.3C442.4 221.6 476.9 230.3 501.3 254.6L547.4 300.7C550.4 303.7 552.1 307.8 552.1 312C552.1 316.2 550.4 320.3 547.4 323.3L540 330.7C502.5 368.2 441.7 368.2 404.2 330.7L309.3 235.8C271.8 198.3 271.8 137.5 309.3 100.1L316.7 92.7L319.1 90.7C321.7 89 324.8 88 328 88zM224.2 230.8C203 255.9 204.2 293.6 227.9 317.2L262.5 351.8L264 349.9L267.5 345C283.5 319.9 280.2 286.7 258.8 265.3L224.2 230.7zM478.6 277.2C455.8 254.4 419.5 252.1 394 272L392.1 273.5L426.7 308.1C450.4 331.8 488 333 513.1 311.8L478.6 277.3zM328.2 126.8C307 151.9 308.2 189.6 331.9 213.2L366.5 247.8L368 245.9L371.5 241C387.5 215.9 384.2 182.7 362.8 161.3L328.2 126.8zM579.1 48.3C582.2 48.9 585 50.4 587.3 52.7C590.3 55.7 592 59.8 592 64L592 99L591.9 103.8C589.5 151.4 551.4 189.5 503.8 191.9L499 192L464 192C459.8 192 455.7 190.3 452.7 187.3C449.7 184.3 448 180.2 448 176L448 141C448 89.6 489.6 48 541 48L576 48L579.1 48.3zM541 80C507.3 80 480 107.3 480 141L480 160L499 160L505.2 159.7C533.9 156.8 556.7 134 559.6 105.3L559.9 99.1L559.9 80.1L540.9 80.1z"/></svg>