<svg xmlns="http://www.w3.org/2000/svg" viewBox="0 0 640 640"><!--! Font Awesome Pro 7.1.0 by @fontawesome - https://fontawesome.com License - https://fontawesome.com/license (Commercial License) Copyright 2025 Fonticons, Inc. --><path fill="currentColor" d="M496 640C416.5 640 352 575.5 352 496C352 416.5 416.5 352 496 352C575.5 352 640 416.5 640 496C640 575.5 575.5 640 496 640zM496 384C434.1 384 384 434.1 384 496C384 557.9 434.1 608 496 608C557.9 608 608 557.9 608 496C608 434.1 557.9 384 496 384zM75.3 587.3C69.1 593.5 59 593.5 52.7 587.3C46.5 581.1 46.5 570.9 52.7 564.7L75.3 587.3zM120 296C124.2 296 128.3 297.7 131.3 300.7L177.4 346.8C201.7 371.2 210.4 405.7 202.7 437.3C234.4 429.6 268.9 438.3 293.3 462.6L305.3 474.6C304.5 481.6 304.1 488.8 304.1 496C304.1 516 307.1 535.3 312.8 553.4C276 575.2 227.8 570.4 196.2 538.7L160 502.6L75.3 587.3C67.8 579.8 60.3 572.2 52.7 564.7L137.4 480L101.3 443.9C63.8 406.4 63.8 345.6 101.3 308.1L108.7 300.7L111.1 298.7C113.7 297 116.8 296 120 296zM496 580C485 580 476 571 476 560C476 549 485 540 496 540C507 540 516 549 516 560C516 571 507 580 496 580zM270.6 485.3C247.8 462.5 211.5 460.2 186 480L184.1 481.5L218.7 516.1C242.4 539.8 280 540.9 305.1 519.8L270.6 485.3zM496 416C504.8 416 512 423.2 512 432L512 496C512 504.8 504.8 512 496 512C487.2 512 480 504.8 480 496L480 432C480 423.2 487.2 416 496 416zM120.2 334.8C99 359.9 100.2 397.6 123.9 421.2L158.5 455.8L160 453.9L163.5 449C179.5 423.9 176.2 390.7 154.8 369.3L120.2 334.7zM224 192C228.2 192 232.3 193.7 235.3 196.7L281.4 242.8C305.7 267.2 314.4 301.7 306.7 333.3C330.9 327.4 356.8 331.1 378.6 344.1C369.6 351.1 361.2 358.8 353.5 367.3C332.9 358.9 308.6 361.6 290.1 376L288.2 377.5L322.8 412.1C322.9 412.2 323 412.3 323.1 412.4C318.2 422.5 314.2 433.2 311.1 444.2C307.3 441.4 303.6 438.2 300.1 434.7L205.2 339.8C167.7 302.3 167.7 241.5 205.2 204L212.6 196.6L215 194.6C217.6 192.9 220.7 191.9 223.9 191.9zM224.2 230.8C203 255.9 204.2 293.6 227.9 317.2L262.5 351.8L264 349.9L267.5 345C283.5 319.9 280.2 286.7 258.8 265.3L224.2 230.7zM532.4 84.7C538.6 78.5 548.8 78.5 555 84.7C561.2 90.9 561.2 101.1 555 107.3L435.7 226.6C449.8 226.9 463.7 230.4 476.5 236.8L532.6 180.7C538.8 174.5 549 174.4 555.2 180.7C561.4 186.9 561.4 197.1 555.2 203.4L502.5 256.1L547.2 300.8C550.2 303.8 551.9 307.9 551.9 312.1C551.9 312.2 551.9 312.3 551.9 312.4C537.1 307.9 521.6 305.1 505.5 304.3L478.6 277.4C455.8 254.6 419.5 252.3 394 272.2L392.1 273.7L426.7 308.3C429 310.6 431.4 312.6 433.9 314.5C422.7 318.3 412 323.1 401.9 328.8L309.2 236.1C271.7 198.6 271.7 137.8 309.2 100.3L316.6 92.9L319 90.9C321.6 89.2 324.7 88.2 327.9 88.2C332.1 88.2 336.2 89.9 339.2 92.9L384 137.4L436.7 84.7C442.9 78.5 453.1 78.4 459.3 84.7C464.8 90.2 465.5 98.6 461.4 104.9L459.3 107.4L403.2 163.5C409.5 176.1 412.9 189.9 413.3 203.8L532.4 84.7zM328.2 126.8C307 151.9 308.2 189.6 331.9 213.2L366.5 247.8L368 245.9L371.5 241C387.5 215.9 384.2 182.7 362.8 161.3L328.2 126.8z"/></svg>