<svg xmlns="http://www.w3.org/2000/svg" viewBox="0 0 640 640"><!--! Font Awesome Pro 7.1.0 by @fontawesome - https://fontawesome.com License - https://fontawesome.com/license (Commercial License) Copyright 2025 Fonticons, Inc. --><path fill="currentColor" d="M256 128C269.3 128 280 117.3 280 104C280 90.7 269.3 80 256 80C242.7 80 232 90.7 232 104C232 117.3 242.7 128 256 128zM256 48C286.9 48 312 73.1 312 104C312 134.9 286.9 160 256 160C225.1 160 200 134.9 200 104C200 73.1 225.1 48 256 48zM180.6 262C181.1 266.8 182 271.7 183.2 276.6L187.4 293.4C134.6 309.2 96 358.1 96 416.1C96 486.8 153.3 544.1 224 544.1C277.7 544.1 323.7 511 342.7 464.1L366.6 464.1C367.5 464.1 368.4 464.1 369.4 464.1L376.7 464.1C356.3 529 295.7 576.1 224 576.1C135.6 576.1 64 504.5 64 416.1C64 342.8 113.3 281 180.6 262.1zM260.8 257.2L283.4 347.7C288.7 369 307.9 384 330 384L347.5 384L312.6 244.2C309.6 232.3 299 224 286.7 224C269.3 224 256.6 240.3 260.8 257.2zM343.6 236.5L380.5 384L418.3 384C442.5 384 464.7 397.7 475.5 419.4L520 508.5L554.8 496.9C563.2 494.1 572.2 498.6 575 507C577.8 515.4 573.3 524.4 564.9 527.2L516.9 543.2C509.3 545.7 501.1 542.3 497.5 535.2L447 433.7C441.6 422.9 430.5 416 418.4 416L368.4 416C368.2 416 367.9 416 367.7 416L330 416C293.3 416 261.3 391 252.4 355.4L229.8 264.9C220.5 227.9 248.6 192 286.7 192C313.6 192 337.1 210.3 343.6 236.5z"/></svg>