<svg xmlns="http://www.w3.org/2000/svg" viewBox="0 0 640 640"><!--! Font Awesome Pro 7.1.0 by @fontawesome - https://fontawesome.com License - https://fontawesome.com/license (Commercial License) Copyright 2025 Fonticons, Inc. --><path fill="currentColor" d="M128 144C128 135.2 135.2 128 144 128L496 128C504.8 128 512 135.2 512 144L512 288L128 288L128 144zM128 320L512 320L512 416C512 469 469 512 416 512L224 512C171 512 128 469 128 416L128 320zM144 96C117.5 96 96 117.5 96 144L96 416C96 486.7 153.3 544 224 544L416 544C486.7 544 544 486.7 544 416L544 144C544 117.5 522.5 96 496 96L144 96z"/></svg>