<svg xmlns="http://www.w3.org/2000/svg" viewBox="0 0 640 640"><!--! Font Awesome Pro 7.1.0 by @fontawesome - https://fontawesome.com License - https://fontawesome.com/license (Commercial License) Copyright 2025 Fonticons, Inc. --><path fill="currentColor" d="M592 128C618.5 128 640 149.5 640 176L640 246.5C640 267.5 626.4 285.8 606.8 292.2L602.8 293.3L416 336.4C415.8 451.1 322.7 544 208 544C93.1 544 0 450.9 0 336C0 221.1 93.1 128 208 128L592 128zM208 160C110.8 160 32 238.8 32 336C32 433.2 110.8 512 208 512C305.2 512 384 433.2 384 336C384 332.4 383.8 328.6 383.6 324.8C383.1 317 388.3 310 396 308.2L595.6 262.1L598.2 261.3C604 258.8 608 253.1 608 246.5L608 176C608 167.2 600.8 160 592 160L448 160L448 208C448 216.8 440.8 224 432 224C423.2 224 416 216.8 416 208L416 160L208 160zM208 416C163.8 416 128 380.2 128 336C128 291.8 163.8 256 208 256C252.2 256 288 291.8 288 336C288 380.2 252.2 416 208 416zM208 288C181.5 288 160 309.5 160 336C160 362.5 181.5 384 208 384C234.5 384 256 362.5 256 336C256 309.5 234.5 288 208 288z"/></svg>