<svg xmlns="http://www.w3.org/2000/svg" viewBox="0 0 640 640"><!--! Font Awesome Pro 7.1.0 by @fontawesome - https://fontawesome.com License - https://fontawesome.com/license (Commercial License) Copyright 2025 Fonticons, Inc. --><path fill="currentColor" d="M59.3 236.2C126 169.4 218.1 128 320 128C421.9 128 514 169.4 580.7 236.2C586.9 242.5 597.1 242.5 603.3 236.2C609.5 229.9 609.6 219.8 603.3 213.6C530.9 141 430.7 96 320 96C209.3 96 109.1 141 36.7 213.6C30.5 219.9 30.5 230 36.7 236.2C42.9 242.4 53.1 242.4 59.3 236.2zM320 304C379.4 304 432.5 330.9 467.7 373.3C473.3 380.1 483.4 381 490.2 375.4C497 369.8 497.9 359.7 492.3 352.9C451.2 303.5 389.3 272 320 272C250.7 272 188.8 303.5 147.7 352.9C142 359.7 143 369.8 149.8 375.4C156.6 381 166.7 380.1 172.3 373.3C207.5 330.9 260.6 304 320 304zM320 464C333.3 464 344 474.7 344 488C344 501.3 333.3 512 320 512C306.7 512 296 501.3 296 488C296 474.7 306.7 464 320 464zM320 544C350.9 544 376 518.9 376 488C376 457.1 350.9 432 320 432C289.1 432 264 457.1 264 488C264 518.9 289.1 544 320 544z"/></svg>