<svg xmlns="http://www.w3.org/2000/svg" viewBox="0 0 640 640"><!--! Font Awesome Pro 7.1.0 by @fontawesome - https://fontawesome.com License - https://fontawesome.com/license (Commercial License) Copyright 2025 Fonticons, Inc. --><path fill="currentColor" d="M36.7 36.8C42.9 30.6 53.1 30.6 59.3 36.8L154.3 131.8C204.8 108.8 260.9 96 320 96C430.7 96 530.9 141 603.3 213.6C609.5 219.9 609.5 230 603.3 236.2C597.1 242.4 586.9 242.4 580.7 236.2C514 169.4 421.9 128 320 128C269.9 128 222.2 138 178.7 156.1L295.8 273.3C303.7 272.4 311.8 272 320 272C389.3 272 451.2 303.5 492.3 352.9C498 359.7 497 369.8 490.2 375.4C483.4 381 473.3 380.1 467.7 373.3C433.8 332.5 383.3 306 326.6 304.1L603.3 580.8C609.5 587 609.5 597.2 603.3 603.4C597.1 609.6 586.9 609.6 580.7 603.4L36.7 59.4C30.5 53.2 30.5 43 36.7 36.8zM83.1 173.6L106 196.6C89.3 208.5 73.7 221.8 59.3 236.3C53.1 242.6 42.9 242.6 36.7 236.3C30.5 230 30.4 219.9 36.7 213.7C51.1 199.2 66.7 185.8 83.2 173.7zM210.2 300.7L233.8 324.3C210 336.2 189.1 353 172.3 373.3C166.7 380.1 156.6 381 149.8 375.4C143 369.8 142.1 359.7 147.7 352.9C165.1 332 186.3 314.2 210.2 300.8zM344 488C344 474.7 333.3 464 320 464C306.7 464 296 474.7 296 488C296 501.3 306.7 512 320 512C333.3 512 344 501.3 344 488zM264 488C264 457.1 289.1 432 320 432C350.9 432 376 457.1 376 488C376 518.9 350.9 544 320 544C289.1 544 264 518.9 264 488z"/></svg>