<svg xmlns="http://www.w3.org/2000/svg" viewBox="0 0 640 640"><!--! Font Awesome Pro 7.1.0 by @fontawesome - https://fontawesome.com License - https://fontawesome.com/license (Commercial License) Copyright 2025 Fonticons, Inc. --><path fill="currentColor" d="M336 112L336 352C336 360.8 328.8 368 320 368C311.2 368 304 360.8 304 352L304 112C304 103.2 311.2 96 320 96C328.8 96 336 103.2 336 112zM36.7 213.6C95.1 155 171.5 114.4 257 100.9C256.4 104.5 256 108.2 256 112L256 133.5C179.8 146.9 111.7 183.6 59.3 236.2C53.1 242.5 42.9 242.5 36.7 236.2C30.5 229.9 30.4 219.8 36.7 213.6zM147.7 352.8C175.6 319.3 213.1 294 256 281.2L256 314.8C223.1 326.4 194.2 346.8 172.3 373.2C166.6 380 156.6 380.9 149.8 375.3C143 369.7 142.1 359.6 147.7 352.8zM384 281.3C426.9 294.1 464.4 319.3 492.3 352.9C498 359.7 497 369.8 490.2 375.4C483.4 381 473.3 380.1 467.7 373.3C445.8 347 417 326.6 384 314.9L384 281.3zM384 112C384 108.2 383.7 104.5 383 100.9C468.4 114.4 544.9 155 603.3 213.6C609.5 219.9 609.5 230 603.3 236.2C597.1 242.4 586.9 242.4 580.7 236.2C528.3 183.7 460.2 146.9 384 133.5L384 112zM320 512C333.3 512 344 501.3 344 488C344 474.7 333.3 464 320 464C306.7 464 296 474.7 296 488C296 501.3 306.7 512 320 512zM320 432C350.9 432 376 457.1 376 488C376 518.9 350.9 544 320 544C289.1 544 264 518.9 264 488C264 457.1 289.1 432 320 432z"/></svg>