<svg xmlns="http://www.w3.org/2000/svg" viewBox="0 0 640 640"><!--! Font Awesome Pro 7.1.0 by @fontawesome - https://fontawesome.com License - https://fontawesome.com/license (Commercial License) Copyright 2025 Fonticons, Inc. --><path fill="currentColor" d="M366.6 463.2C384.8 492.8 430.6 476.2 425.5 441.8L397.2 249.6L489.5 78.8C506 48.2 468.7 16.9 441.5 38.5L289.3 159.1L95.1 164.6C60.3 165.6 51.9 213.5 84.2 226.3L264.8 297.8L304.5 362.3L304.5 544L208.5 544C199.7 544 192.5 551.2 192.5 560C192.5 568.8 199.7 576 208.5 576L432.5 576C441.3 576 448.5 568.8 448.5 560C448.5 551.2 441.3 544 432.5 544L336.5 544L336.5 414.3L366.6 463.3zM365.5 254.3L393.9 446.5L292.1 281C288.5 275.1 283.1 270.6 276.6 268L96 196.5L290.2 191.1C297.1 190.9 303.8 188.5 309.2 184.2L461.4 63.6L369 234.4C365.7 240.5 364.5 247.5 365.5 254.3zM336.5 240C336.5 231.2 329.3 224 320.5 224C311.7 224 304.5 231.2 304.5 240C304.5 248.8 311.7 256 320.5 256C329.3 256 336.5 248.8 336.5 240z"/></svg>