<svg xmlns="http://www.w3.org/2000/svg" viewBox="0 0 640 640"><!--! Font Awesome Pro 7.1.0 by @fontawesome - https://fontawesome.com License - https://fontawesome.com/license (Commercial License) Copyright 2025 Fonticons, Inc. --><path fill="currentColor" d="M336 96L448 96C465.7 96 480 110.3 480 128L480 320L336 320L336 96zM512 352L512 128C512 92.7 483.3 64 448 64L192 64C156.7 64 128 92.7 128 128L128 352L512 352zM304 320L160 320L160 128C160 110.3 174.3 96 192 96L304 96L304 320zM112 544C103.2 544 96 551.2 96 560C96 568.8 103.2 576 112 576L528 576C536.8 576 544 568.8 544 560C544 551.2 536.8 544 528 544L512 544L512 400L480 400L480 544L160 544L160 400L128 400L128 544L112 544z"/></svg>