<svg xmlns="http://www.w3.org/2000/svg" viewBox="0 0 640 640"><!--! Font Awesome Pro 7.1.0 by @fontawesome - https://fontawesome.com License - https://fontawesome.com/license (Commercial License) Copyright 2025 Fonticons, Inc. --><path fill="currentColor" d="M256 96C374.3 96 471.2 187.8 479.4 304L447.3 304C439.2 205.4 356.6 128 256 128C150 128 64 214 64 320C64 426 150 512 256 512C320.2 512 377.1 480.5 412 432L450.1 432C411.4 499 339 544 256.1 544C132.4 544 32.1 443.7 32.1 320C32.1 196.3 132.3 96 256 96zM528 352C572.2 352 608 387.8 608 432C608 476.2 572.2 512 528 512L496 512C487.2 512 480 504.8 480 496C480 487.2 487.2 480 496 480L528 480C554.5 480 576 458.5 576 432C576 405.5 554.5 384 528 384L400 384C391.2 384 384 376.8 384 368C384 359.2 391.2 352 400 352L528 352zM256 448C242.7 448 232 437.3 232 424C232 410.7 242.7 400 256 400C269.3 400 280 410.7 280 424C280 437.3 269.3 448 256 448zM256 192C269.5 192 280.3 203.4 279.5 216.9L271.9 352.9C271.4 361.4 264.4 368 255.9 368C247.4 368 240.4 361.4 239.9 352.9L232.3 216.9C231.5 203.4 242.3 192 255.8 192zM560 128C604.2 128 640 163.8 640 208C640 252.2 604.2 288 560 288L526.2 288C524.9 277.1 523 266.4 520.5 256L560.1 256C586.6 256 608.1 234.5 608.1 208C608.1 181.5 586.6 160 560.1 160L528.1 160C519.3 160 512.1 152.8 512.1 144C512.1 135.2 519.3 128 528.1 128L560.1 128z"/></svg>