<svg xmlns="http://www.w3.org/2000/svg" viewBox="0 0 640 640"><!--! Font Awesome Pro 7.1.0 by @fontawesome - https://fontawesome.com License - https://fontawesome.com/license (Commercial License) Copyright 2025 Fonticons, Inc. --><path fill="currentColor" d="M448 64C483.3 64 512 92.7 512 128L512 544L528 544C536.8 544 544 551.2 544 560C544 568.8 536.8 576 528 576L112 576C103.2 576 96 568.8 96 560C96 551.2 103.2 544 112 544L128 544L128 128C128 92.7 156.7 64 192 64L448 64zM160 304L304 304L304 96L192 96C174.3 96 160 110.3 160 128L160 304zM160 336L160 544L304 544L304 336L160 336zM336 336L336 544L480 544L480 336L336 336zM480 304L480 128C480 110.3 465.7 96 448 96L336 96L336 304L480 304z"/></svg>