<svg xmlns="http://www.w3.org/2000/svg" viewBox="0 0 640 640"><!--! Font Awesome Pro 7.1.0 by @fontawesome - https://fontawesome.com License - https://fontawesome.com/license (Commercial License) Copyright 2025 Fonticons, Inc. --><path fill="currentColor" d="M80 64C88.8 64 96 71.2 96 80L96 192L160 192L160 150.7C160 130.6 178.3 115.5 198 119.3L550 187C565.1 189.9 576 203.1 576 218.4L576 325.5C576 340.8 565.1 354 550 356.9L198 424.7C178.3 428.5 160 413.4 160 393.3L160 352L96 352L96 560C96 568.8 88.8 576 80 576C71.2 576 64 568.8 64 560L64 80C64 71.2 71.2 64 80 64zM96 224L96 320L160 320L160 224L96 224zM192 150.7L192 393.2L288 374.7L288 169.1L192 150.6zM320 175.3L320 368.6L448 344L448 199.9L320 175.3zM480 206.1L480 337.9L544 325.6L544 218.5L480 206.2z"/></svg>