<svg xmlns="http://www.w3.org/2000/svg" viewBox="0 0 640 640"><!--! Font Awesome Pro 7.1.0 by @fontawesome - https://fontawesome.com License - https://fontawesome.com/license (Commercial License) Copyright 2025 Fonticons, Inc. --><path fill="currentColor" d="M128 160C110.3 160 96 174.3 96 192L96 288L544 288L544 192C544 174.3 529.7 160 512 160L128 160zM96 320L96 448C96 465.7 110.3 480 128 480L512 480C529.7 480 544 465.7 544 448L544 320L96 320zM512 128C547.3 128 576 156.7 576 192L576 448C576 483.3 547.3 512 512 512L128 512C92.7 512 64 483.3 64 448L64 192C64 156.7 92.7 128 128 128L512 128zM504 224C504 237.3 493.3 248 480 248C466.7 248 456 237.3 456 224C456 210.7 466.7 200 480 200C493.3 200 504 210.7 504 224zM384 200C397.3 200 408 210.7 408 224C408 237.3 397.3 248 384 248C370.7 248 360 237.3 360 224C360 210.7 370.7 200 384 200zM312 224C312 237.3 301.3 248 288 248C274.7 248 264 237.3 264 224C264 210.7 274.7 200 288 200C301.3 200 312 210.7 312 224z"/></svg>