<svg xmlns="http://www.w3.org/2000/svg" viewBox="0 0 640 640"><!--! Font Awesome Pro 7.1.0 by @fontawesome - https://fontawesome.com License - https://fontawesome.com/license (Commercial License) Copyright 2025 Fonticons, Inc. --><path fill="currentColor" d="M309.2 96L236.2 96L196.4 242C193.5 252.7 192 263.8 192 274.9C192 344 248 400 317.1 400L322.9 400C392 400 448 344 448 274.9C448 263.8 446.5 252.7 443.6 242L403.8 96L343.7 96L366.9 154.1C370 161.8 366.6 170.6 359.2 174.4L315.1 196.5L363.4 244.8C369.6 251 369.6 261.2 363.4 267.4C357.2 273.6 347 273.6 340.8 267.4L276.8 203.4C273.2 199.8 271.5 194.6 272.3 189.5C273.1 184.4 276.3 180.1 280.9 177.8L331.7 152.3L309.2 96zM320.3 64L416 64C423.2 64 429.5 68.8 431.4 75.8L474.4 233.6C478.1 247.1 479.9 261 479.9 274.9C479.9 357.3 416.5 424.8 335.9 431.5L335.9 576L415.9 576C424.7 576 431.9 583.2 431.9 592C431.9 600.8 424.7 608 415.9 608L224 608C215.2 608 208 600.8 208 592C208 583.2 215.2 576 224 576L304 576L304 431.5C223.4 424.8 160 357.3 160 274.9C160 260.9 161.9 247 165.5 233.6L208.5 75.8C210.5 68.8 216.8 64 224 64L319.6 64C319.8 64 320.1 64 320.3 64z"/></svg>