<svg xmlns="http://www.w3.org/2000/svg" viewBox="0 0 640 640"><!--! Font Awesome Pro 7.1.0 by @fontawesome - https://fontawesome.com License - https://fontawesome.com/license (Commercial License) Copyright 2025 Fonticons, Inc. --><path fill="currentColor" d="M224 64C216.8 64 210.5 68.8 208.6 75.8L165.5 233.6C161.9 247 160 260.9 160 274.9C160 357.2 223.4 424.8 304 431.5L304 576L224 576C215.2 576 208 583.2 208 592C208 600.8 215.2 608 224 608L416 608C424.8 608 432 600.8 432 592C432 583.2 424.8 576 416 576L336 576L336 431.5C416.6 424.8 480 357.3 480 274.9C480 260.9 478.1 247 474.5 233.6L431.5 75.8C429.5 68.8 423.2 64 416 64L224 64zM196.4 242L236.2 96L403.8 96L443.6 242C446.5 252.7 448 263.8 448 274.9C448 344 392 400 322.9 400L317.1 400C248 400 192 344 192 274.9C192 263.8 193.5 252.7 196.4 242z"/></svg>