<svg xmlns="http://www.w3.org/2000/svg" viewBox="0 0 640 640"><!--! Font Awesome Pro 7.1.0 by @fontawesome - https://fontawesome.com License - https://fontawesome.com/license (Commercial License) Copyright 2025 Fonticons, Inc. --><path fill="currentColor" d="M208.6 75.8C210.5 68.8 216.8 64 224 64L416 64C423.2 64 429.5 68.8 431.4 75.8L474.4 233.6C478.1 247.1 479.9 261 479.9 274.9C479.9 357.3 416.5 424.8 335.9 431.5L335.9 576L415.9 576C424.7 576 431.9 583.2 431.9 592C431.9 600.8 424.7 608 415.9 608L224 608C215.2 608 208 600.8 208 592C208 583.2 215.2 576 224 576L304 576L304 431.5C223.4 424.8 160 357.3 160 274.9C160 260.9 161.9 247 165.5 233.6L208.5 75.8zM201.3 224L196.4 242C193.5 252.7 192 263.8 192 274.9C192 344 248 400 317.1 400L322.9 400C392 400 448 344 448 274.9C448 263.8 446.5 252.7 443.6 242L438.7 224L201.3 224zM210 192L430 192L403.8 96L236.2 96L210 192z"/></svg>