<svg xmlns="http://www.w3.org/2000/svg" viewBox="0 0 640 640"><!--! Font Awesome Pro 7.1.0 by @fontawesome - https://fontawesome.com License - https://fontawesome.com/license (Commercial License) Copyright 2025 Fonticons, Inc. --><path fill="currentColor" d="M125.4 271.2C261.3 278.1 369.3 390.4 369.3 528C369.3 537.5 361.6 545.2 352.1 545.2C342.6 545.2 335 537.5 335 528C335 408.8 241.4 311.4 123.6 305.4L112.1 305.1L108.6 304.7C100.9 303.2 95 296.3 95 288C95 278.5 102.7 270.8 112.2 270.8L125.4 271.1zM152.2 544C121.3 544 96.2 518.9 96.2 488C96.2 457.1 121.3 432 152.2 432C183.1 432 208.2 457.1 208.2 488C208.2 518.9 183.1 544 152.2 544zM112.2 96C350.8 96 544.2 289.4 544.2 528C544.2 536.8 537 544 528.2 544C519.4 544 512.2 536.8 512.2 528C512.2 307.1 333.1 128 112.2 128C103.4 128 96.2 120.8 96.2 112C96.2 103.2 103.4 96 112.2 96zM152.2 464C138.9 464 128.2 474.7 128.2 488C128.2 501.3 138.9 512 152.2 512C165.5 512 176.2 501.3 176.2 488C176.2 474.7 165.5 464 152.2 464z"/></svg>