<svg xmlns="http://www.w3.org/2000/svg" viewBox="0 0 640 640"><!--! Font Awesome Pro 7.1.0 by @fontawesome - https://fontawesome.com License - https://fontawesome.com/license (Commercial License) Copyright 2025 Fonticons, Inc. --><path fill="currentColor" d="M496 256L496 228.2C478.3 225.7 458.8 222.9 437.4 219.8C406.7 215.4 384 189.2 384 158.2C384 123.8 411.9 95.9 446.3 95.9L486.4 95.9C518.2 96 544 121.8 544 153.6L544 420C544 488.5 488.5 544 420 544C351.5 544 296 488.5 296 420L296 384C296 339.8 260.2 304 216 304C176.2 304 144 336.2 144 376L144 520C144 533.3 133.3 544 120 544C106.7 544 96 533.3 96 520L96 376C96 309.7 149.7 256 216 256C286.7 256 344 313.3 344 384L344 420C344 462 378 496 420 496C462 496 496 462 496 420L496 256zM446.3 64C394.2 64 352 106.2 352 158.3C352 205.2 386.5 245 432.9 251.6L464 256L464 420C464 444.3 444.3 464 420 464C395.7 464 376 444.3 376 420L376 384C376 295.6 304.4 224 216 224C132.1 224 64 292.1 64 376L64 520C64 550.9 89.1 576 120 576C150.9 576 176 550.9 176 520L176 376C176 353.9 193.9 336 216 336C242.5 336 264 357.5 264 384L264 420C264 506.2 333.8 576 420 576C506.2 576 576 506.2 576 420L576 153.6C576 104.1 535.9 64 486.4 64L446.3 64zM472 176C485.3 176 496 165.3 496 152C496 138.7 485.3 128 472 128C458.7 128 448 138.7 448 152C448 165.3 458.7 176 472 176z"/></svg>