<svg xmlns="http://www.w3.org/2000/svg" viewBox="0 0 640 640"><!--! Font Awesome Pro 7.1.0 by @fontawesome - https://fontawesome.com License - https://fontawesome.com/license (Commercial License) Copyright 2025 Fonticons, Inc. --><path fill="currentColor" d="M384 96C428.2 96 464 131.8 464 176C419.8 176 384 140.2 384 96zM494.6 158C486 104.7 439.7 64 384 64L368 64C359.2 64 352 71.2 352 80L352 96C352 157.9 402.1 208 464 208L472.1 208C497.8 239.5 512 279 512 320C512 392.8 471.5 456.1 411.8 488.7C421.2 491 430.5 493.7 439.6 496.9L439.6 496.9C451.9 501.2 463.9 506.2 475.6 512.1L480.2 514.4C531.7 523.4 585.6 500.2 613.2 452.3L630 423C633.9 416.2 631.6 407.5 624.8 403.6C613.4 397 601.2 392.6 588.9 390.3C619.9 366.9 639.9 329.8 639.9 288L639.9 254.2C639.9 246.3 633.5 240 625.7 240C612.5 240 599.8 242.3 588 246.4C603.2 210.7 602 168.5 581.1 132.3L564.2 103C560.3 96.2 551.6 93.9 544.8 97.8C520.5 111.8 503.3 133.5 494.6 158zM319.8 544L339.6 544C376.9 544 413.6 552.7 446.9 569.3L456.8 574.3C464.7 578.3 474.3 575 478.3 567.1C482.3 559.2 479 549.6 471.1 545.6L461.2 540.6C423.4 521.8 381.8 512 339.6 512L320 512C214 512 128 426 128 320C128 279 142.2 239.5 167.9 208L176 208C237.9 208 288 157.9 288 96L288 80C288 71.2 280.8 64 272 64L256 64C200.3 64 154 104.7 145.4 158C136.6 133.5 119.5 111.8 95.2 97.8C88.4 93.9 79.7 96.2 75.8 103L58.9 132.3C38 168.5 36.8 210.7 52 246.4C40.2 242.3 27.5 240 14.3 240C6.4 240 .1 246.4 .1 254.2L0 288C0 329.8 20 366.9 51 390.3C38.7 392.6 26.6 397 15.1 403.6C8.3 407.5 6 416.2 9.9 423L26.8 452.3C56.6 504 117 527 171.9 511.7C178.8 509.8 185.6 507.3 192.2 504.1C202.4 511.2 213.2 517.5 224.6 522.8C208.8 527.4 193.5 533.4 178.7 540.8L168.8 545.8C160.9 549.8 157.7 559.4 161.6 567.3C165.5 575.2 175.2 578.4 183.1 574.5L193 569.5C226.3 552.8 263.1 544.2 300.3 544.2L319.6 544.2zM176 176C176 154.4 184.5 134.8 198.4 120.5C212.9 105.4 233.4 96 256 96C256 140.2 220.2 176 176 176zM96 353.8L96 378.6C58.7 365.4 32 329.8 32 288L32 273.9C68.6 282 96 314.7 96 353.7zM544 378.6L544 353.8C544 314.7 571.4 282.1 608 274L608 288.1C608 329.9 581.3 365.5 544 378.6zM142.9 461.3L155.3 482.7C116.4 489.9 75.5 472.5 54.6 436.3L47.6 424.1C83.4 412.8 123.4 427.4 142.9 461.2zM96.7 258.7C71 228.6 65.7 184.5 86.6 148.3L93.6 136.1C121.3 161.4 128.6 203.4 109.1 237.2L96.7 258.7zM530.8 237.3C511.3 203.5 518.7 161.5 546.3 136.2L553.3 148.4C574.2 184.6 568.8 228.8 543.1 258.8L530.7 237.4zM497 461.3C516.5 427.5 556.6 412.9 592.3 424.2L585.3 436.4C564.4 472.6 523.5 490 484.6 482.8L497 461.4z"/></svg>