<svg xmlns="http://www.w3.org/2000/svg" viewBox="0 0 640 640"><!--! Font Awesome Pro 7.1.0 by @fontawesome - https://fontawesome.com License - https://fontawesome.com/license (Commercial License) Copyright 2025 Fonticons, Inc. --><path fill="currentColor" d="M265 66.8C269.4 69.8 272 74.7 272 80L272 232L320 268L368 232L368 80C368 74.7 370.6 69.8 375 66.8C379.4 63.8 384.9 63.2 389.8 65.1C460.9 92.9 512 158.1 512 240C512 311.1 473.4 373.1 416 406.3L416 560C416 568.8 408.8 576 400 576C391.2 576 384 568.8 384 560L384 396.8C384 390.8 387.4 385.3 392.7 382.6C444.5 356.1 480 302.2 480 240C480 181.1 448.1 132.3 400 105.2L400 240C400 245 397.6 249.8 393.6 252.8L329.6 300.8C323.9 305.1 316.1 305.1 310.4 300.8L246.4 252.8C242.4 249.8 240 245 240 240L240 105.2C191.9 132.2 160 181.1 160 240C160 302.2 195.4 356.1 247.3 382.6C252.7 385.3 256 390.8 256 396.8L256 560C256 568.8 248.8 576 240 576C231.2 576 224 568.8 224 560L224 406.3C166.6 373.1 128 311.1 128 240C128 158.1 179.1 92.9 250.2 65.1C255.1 63.2 260.7 63.8 265 66.8z"/></svg>