<svg xmlns="http://www.w3.org/2000/svg" viewBox="0 0 640 640"><!--! Font Awesome Pro 7.1.0 by @fontawesome - https://fontawesome.com License - https://fontawesome.com/license (Commercial License) Copyright 2025 Fonticons, Inc. --><path fill="currentColor" d="M240 232C240 139.2 315.2 64 408 64C436.2 64 462.7 70.9 486.1 83.2C490.6 85.6 493.7 89.9 494.5 95C495.3 100.1 493.6 105.1 490 108.7L400.1 198.6L400.1 240L441.5 240L531.4 150.1C535 146.5 540.1 144.8 545.1 145.6C550.1 146.4 554.5 149.5 556.9 154C569.2 177.3 576.1 203.9 576.1 232.1C576.1 324.9 500.9 400.1 408.1 400.1C388.3 400.1 369.3 396.7 351.6 390.4L178.9 562.9C150.8 591 105.2 591 77.1 562.9C49 534.8 49 489.2 77.1 461.1L249.7 288.5C243.4 270.8 240 251.8 240 232zM408 96C332.9 96 272 156.9 272 232C272 251.2 276 269.5 283.1 286C285.7 292 284.4 299 279.7 303.7L99.7 483.7C84.1 499.3 84.1 524.6 99.7 540.3C115.3 556 140.6 555.9 156.3 540.3L336.3 360.2C340.9 355.6 347.9 354.2 354 356.8C370.5 364 388.8 367.9 408 367.9C483.1 367.9 544 307 544 231.9C544 217 541.6 202.7 537.2 189.3L459.3 267.2C456.3 270.2 452.2 271.9 448 271.9L384 271.9C375.2 271.9 368 264.7 368 255.9L368 191.9C368 187.7 369.7 183.6 372.7 180.6L450.6 102.7C437.2 98.4 422.9 96 408 96z"/></svg>