<svg xmlns="http://www.w3.org/2000/svg" viewBox="0 0 640 640"><!--! Font Awesome Pro 7.1.0 by @fontawesome - https://fontawesome.com License - https://fontawesome.com/license (Commercial License) Copyright 2025 Fonticons, Inc. --><path fill="currentColor" d="M80 96C71.2 96 64 103.2 64 112C64 120.8 71.2 128 80 128L96 128L96 512L80 512C71.2 512 64 519.2 64 528C64 536.8 71.2 544 80 544L560 544C568.8 544 576 536.8 576 528C576 519.2 568.8 512 560 512L544 512L544 128L560 128C568.8 128 576 120.8 576 112C576 103.2 568.8 96 560 96L80 96zM128 512L128 128L512 128L512 512L128 512zM336 192C336 183.2 328.8 176 320 176C311.2 176 304 183.2 304 192L304 224L224 224C215.2 224 208 231.2 208 240C208 248.8 215.2 256 224 256L304 256L304 304L208 304C199.2 304 192 311.2 192 320C192 328.8 199.2 336 208 336L304 336L304 384L224 384C215.2 384 208 391.2 208 400C208 408.8 215.2 416 224 416L304 416L304 448C304 456.8 311.2 464 320 464C328.8 464 336 456.8 336 448L336 416L416 416C424.8 416 432 408.8 432 400C432 391.2 424.8 384 416 384L336 384L336 336L432 336C440.8 336 448 328.8 448 320C448 311.2 440.8 304 432 304L336 304L336 256L416 256C424.8 256 432 248.8 432 240C432 231.2 424.8 224 416 224L336 224L336 192z"/></svg>