<svg xmlns="http://www.w3.org/2000/svg" viewBox="0 0 640 640"><!--! Font Awesome Pro 7.1.0 by @fontawesome - https://fontawesome.com License - https://fontawesome.com/license (Commercial License) Copyright 2025 Fonticons, Inc. --><path fill="currentColor" d="M16 96L624 96C632.8 96 640 103.2 640 112C640 120.8 632.8 128 624 128L16 128C7.2 128 0 120.8 0 112C0 103.2 7.2 96 16 96zM16 512L624 512C632.8 512 640 519.2 640 528C640 536.8 632.8 544 624 544L16 544C7.2 544 0 536.8 0 528C0 519.2 7.2 512 16 512zM228.7 228.7C234.9 222.5 245.1 222.5 251.3 228.7L320 297.4L388.7 228.7C394.9 222.5 405.1 222.5 411.3 228.7C417.5 234.9 417.5 245.1 411.3 251.3L342.6 320L411.3 388.7C417.5 394.9 417.5 405.1 411.3 411.3C405.1 417.5 394.9 417.5 388.7 411.3L320 342.6L251.3 411.3C245.1 417.5 234.9 417.5 228.7 411.3C222.5 405.1 222.5 394.9 228.7 388.7L297.4 320L228.7 251.3C222.5 245.1 222.5 234.9 228.7 228.7zM118.6 320L187.3 388.7C193.5 394.9 193.5 405.1 187.3 411.3C181.1 417.5 170.9 417.5 164.7 411.3L96 342.6L27.3 411.3C21.1 417.5 10.9 417.5 4.7 411.3C-1.5 405.1-1.5 394.9 4.7 388.7L73.4 320L4.7 251.3C-1.5 245.1-1.5 234.9 4.7 228.7C10.9 222.5 21.1 222.5 27.3 228.7L96 297.4L164.7 228.7C170.9 222.5 181.1 222.5 187.3 228.7C193.5 234.9 193.5 245.1 187.3 251.3L118.6 320zM452.7 228.7C458.9 222.5 469.1 222.5 475.3 228.7L544 297.4L612.7 228.7C618.9 222.5 629.1 222.5 635.3 228.7C641.5 234.9 641.5 245.1 635.3 251.3L566.6 320L635.3 388.7C641.5 394.9 641.5 405.1 635.3 411.3C629.1 417.5 618.9 417.5 612.7 411.3L544 342.6L475.3 411.3C469.1 417.5 458.9 417.5 452.7 411.3C446.5 405.1 446.5 394.9 452.7 388.7L521.4 320L452.7 251.3C446.5 245.1 446.5 234.9 452.7 228.7z"/></svg>