<svg xmlns="http://www.w3.org/2000/svg" viewBox="0 0 640 640"><!--! Font Awesome Pro 7.1.0 by @fontawesome - https://fontawesome.com License - https://fontawesome.com/license (Commercial License) Copyright 2025 Fonticons, Inc. --><path fill="currentColor" d="M68.7 91.3C62.5 85.1 62.5 74.9 68.7 68.7C74.9 62.5 85.1 62.5 91.3 68.7L320 297.4L548.7 68.7C554.9 62.5 565.1 62.5 571.3 68.7C577.5 74.9 577.5 85.1 571.3 91.3L342.6 320L571.3 548.7C577.5 554.9 577.5 565.1 571.3 571.3C565.1 577.5 554.9 577.5 548.7 571.3L320 342.6L91.3 571.3C85.1 577.5 74.9 577.5 68.7 571.3C62.5 565.1 62.5 554.9 68.7 548.7L297.4 320L68.7 91.3z"/></svg>