<svg xmlns="http://www.w3.org/2000/svg" viewBox="0 0 640 640"><!--! Font Awesome Pro 7.1.0 by @fontawesome - https://fontawesome.com License - https://fontawesome.com/license (Commercial License) Copyright 2025 Fonticons, Inc. --><path fill="currentColor" d="M173.3 103.1C168.4 95.7 158.5 93.8 151.1 98.7C143.7 103.6 141.8 113.5 146.7 120.9L300.8 352L216 352C207.2 352 200 359.2 200 368C200 376.8 207.2 384 216 384L304 384L304 416L216 416C207.2 416 200 423.2 200 432C200 440.8 207.2 448 216 448L304 448L304 528C304 536.8 311.2 544 320 544C328.8 544 336 536.8 336 528L336 448L424 448C432.8 448 440 440.8 440 432C440 423.2 432.8 416 424 416L336 416L336 384L424 384C432.8 384 440 376.8 440 368C440 359.2 432.8 352 424 352L339.2 352L493.3 120.9C498.2 113.5 496.2 103.6 488.9 98.7C481.6 93.8 471.6 95.8 466.7 103.1L320 323.1L173.3 103.1z"/></svg>