<svg xmlns="http://www.w3.org/2000/svg" viewBox="0 0 640 640"><!--! Font Awesome Pro 7.1.0 by @fontawesome - https://fontawesome.com License - https://fontawesome.com/license (Commercial License) Copyright 2025 Fonticons, Inc. --><path fill="currentColor" d="M544 320C544 443.7 443.7 544 320 544C262.6 544 216 497.4 216 440C216 382.6 262.6 336 320 336C395.1 336 456 275.1 456 200C456 173.5 448.4 148.8 435.4 128C500.5 167.2 544 238.5 544 320zM320 96C377.4 96 424 142.6 424 200C424 257.4 377.4 304 320 304C244.9 304 184 364.9 184 440C184 466.5 191.6 491.2 204.6 512C139.5 472.8 96 401.5 96 320C96 196.3 196.3 96 320 96zM320 576C461.4 576 576 461.4 576 320C576 178.6 461.4 64 320 64C178.6 64 64 178.6 64 320C64 461.4 178.6 576 320 576zM344 440C344 426.7 333.3 416 320 416C306.7 416 296 426.7 296 440C296 453.3 306.7 464 320 464C333.3 464 344 453.3 344 440zM320 224C333.3 224 344 213.3 344 200C344 186.7 333.3 176 320 176C306.7 176 296 186.7 296 200C296 213.3 306.7 224 320 224z"/></svg>