<svg xmlns="http://www.w3.org/2000/svg" viewBox="0 0 640 640"><!--! Font Awesome Pro 7.1.0 by @fontawesome - https://fontawesome.com License - https://fontawesome.com/license (Commercial License) Copyright 2025 Fonticons, Inc. --><path fill="currentColor" d="M128 112C128 103.2 135.2 96 144 96L496 96C502.2 96 507.9 99.6 510.5 105.3C513.1 111 512.2 117.6 508.2 122.4L178.5 512L496 512C504.8 512 512 519.2 512 528C512 536.8 504.8 544 496 544L144 544C137.8 544 132.1 540.4 129.5 534.7C126.9 529 127.8 522.4 131.8 517.6L461.5 128L144 128C135.2 128 128 120.8 128 112z"/></svg>