<svg xmlns="http://www.w3.org/2000/svg" viewBox="0 0 640 640"><!--! Font Awesome Pro 7.1.0 by @fontawesome - https://fontawesome.com License - https://fontawesome.com/license (Commercial License) Copyright 2025 Fonticons, Inc. --><path fill="currentColor" d="M272 96C263.2 96 256 88.8 256 80C256 71.2 263.2 64 272 64L400 64C406.5 64 412.3 67.9 414.8 73.9C417.3 79.9 415.9 86.8 411.3 91.3L310.6 192L400 192C408.8 192 416 199.2 416 208C416 216.8 408.8 224 400 224L272 224C265.5 224 259.7 220.1 257.2 214.1C254.7 208.1 256.1 201.2 260.7 196.7L361.4 96L272 96zM96 304C96 295.2 103.2 288 112 288L304 288C310.1 288 315.6 291.4 318.3 296.8C321 302.2 320.4 308.7 316.8 313.6L144 544L304 544C312.8 544 320 551.2 320 560C320 568.8 312.8 576 304 576L112 576C105.9 576 100.4 572.6 97.7 567.2C95 561.8 95.6 555.3 99.2 550.4L272 320L112 320C103.2 320 96 312.8 96 304zM400 288L528 288C534.2 288 539.8 291.5 542.4 297.1C545 302.7 544.3 309.2 540.5 314L433.3 448L528 448C536.8 448 544 455.2 544 464C544 472.8 536.8 480 528 480L400 480C393.8 480 388.2 476.5 385.6 470.9C383 465.3 383.7 458.8 387.5 454L494.7 320L400 320C391.2 320 384 312.8 384 304C384 295.2 391.2 288 400 288z"/></svg>